# 3ds Max Wavefront OBJ Exporter v0.94b - (c)2007 guruware
# 创建的文件:23.06.2019 20:04:36

mtllib 1.mtl

#
# object Box01
#

v  -25.0000 -20.0000 25.0000
v  -25.0000 -20.0000 -25.0000
v  25.0000 -20.0000 -25.0000
v  25.0000 -20.0000 25.0000
v  -25.0000 20.0000 25.0000
v  25.0000 20.0000 25.0000
v  25.0000 20.0000 -25.0000
v  -25.0000 20.0000 -25.0000
# 8 vertices

vn 0.0000 -1.0000 -0.0000
vn 0.0000 1.0000 -0.0000
vn 0.0000 0.0000 1.0000
vn 1.0000 0.0000 -0.0000
vn 0.0000 0.0000 -1.0000
vn -1.0000 0.0000 -0.0000
# 6 vertex normals

vt 0.0100 0.3773 0.0000
vt 0.0100 0.0100 0.0000
vt 0.3773 0.0100 0.0000
vt 0.3773 0.3773 0.0000
vt 0.0100 0.3856 0.0000
vt 0.3773 0.3856 0.0000
vt 0.3773 0.7529 0.0000
vt 0.0100 0.7529 0.0000
vt 0.3856 0.7613 0.0000
vt 0.3856 0.3940 0.0000
vt 0.6794 0.3940 0.0000
vt 0.6794 0.7613 0.0000
vt 0.3856 0.3773 0.0000
vt 0.3856 0.0100 0.0000
vt 0.6794 0.0100 0.0000
vt 0.6794 0.3773 0.0000
vt 0.6962 0.3773 0.0000
vt 0.6962 0.0100 0.0000
vt 0.9900 0.0100 0.0000
vt 0.9900 0.3773 0.0000
vt 0.6962 0.7613 0.0000
vt 0.6962 0.3940 0.0000
vt 0.9900 0.3940 0.0000
vt 0.9900 0.7613 0.0000
# 24 texture coords

g Box01
usemtl 24___Default
s 2
f 1/1/1 2/2/1 3/3/1 4/4/1 
s 4
f 5/5/2 6/6/2 7/7/2 8/8/2 
s 8
f 1/9/3 4/10/3 6/11/3 5/12/3 
s 16
f 4/13/4 3/14/4 7/15/4 6/16/4 
s 32
f 3/17/5 2/18/5 8/19/5 7/20/5 
s 64
f 2/21/6 1/22/6 5/23/6 8/24/6 
# 6 polygons

