# 3ds Max Wavefront OBJ Exporter v0.94b - (c)2007 guruware
# 创建的文件:30.03.2018 16:05:20

mtllib fangzi.mtl

#
# object Box11
#

v  94.2648 182.5000 -94.7040
v  94.2648 182.5000 94.7039
v  98.2648 182.5000 94.7039
v  98.2648 182.5000 -94.7040
v  94.2648 -182.5000 94.7039
v  98.2648 -182.5000 94.7039
v  98.2648 -182.5000 -94.7040
v  94.2648 -182.5000 -94.7040
v  94.2648 -182.5000 60.2854
v  98.2648 -182.5000 60.2854
v  98.2648 -182.5000 -63.2027
v  94.2648 -182.5000 -63.2027
v  94.2648 101.2146 -63.2027
v  98.2648 101.2146 -63.2027
v  98.2648 101.2146 60.2854
v  94.2648 101.2146 60.2854
v  -94.2649 182.5000 -94.7040
v  94.2648 182.5000 -98.7040
v  -94.2649 182.5000 -98.7040
v  -94.2649 -182.5000 -94.7040
v  -94.2649 -182.5000 -98.7040
v  94.2648 -182.5000 -98.7040
v  -98.2650 182.5000 -94.7040
v  -98.2650 182.5000 94.7039
v  -94.2650 182.5000 94.7039
v  -94.2650 182.5000 -94.7040
v  -98.2650 -182.5000 94.7039
v  -94.2650 -182.5000 94.7039
v  -94.2650 -182.5000 -94.7040
v  -98.2650 -182.5000 -94.7040
v  -98.2650 -182.5000 60.2854
v  -94.2650 -182.5000 60.2854
v  -94.2650 -182.5000 -63.2027
v  -98.2650 -182.5000 -63.2027
v  -98.2650 101.2146 -63.2027
v  -94.2650 101.2146 -63.2027
v  -94.2650 101.2146 60.2854
v  -98.2650 101.2146 60.2854
v  -94.2649 182.5000 98.7039
v  94.2648 182.5000 98.7039
v  -94.2649 182.5000 94.7039
v  -94.2649 -182.5000 98.7039
v  -94.2649 -182.5000 94.7039
v  94.2648 -182.5000 98.7039
v  -94.2649 180.1679 94.7039
v  94.2648 180.1679 94.7039
v  94.2648 180.1679 -94.7040
v  -94.2649 180.1679 -94.7040
v  -94.2649 177.1679 94.7039
v  -94.2649 177.1679 -94.7040
v  94.2648 177.1679 -94.7040
v  94.2648 177.1679 94.7039
# 52 vertices

vn 0.0000 1.0000 -0.0000
vn 0.0000 0.0000 1.0000
vn 0.0000 0.0000 -1.0000
vn 0.0000 -1.0000 -0.0000
vn -1.0000 0.0000 -0.0000
vn 1.0000 0.0000 -0.0000
# 6 vertex normals

vt 0.4916 0.0100 0.0000
vt 0.6535 0.0100 0.0000
vt 0.6535 0.0134 0.0000
vt 0.4916 0.0134 0.0000
vt 0.6535 0.1893 0.0000
vt 0.6501 0.1893 0.0000
vt 0.5709 0.1832 0.0000
vt 0.5743 0.1832 0.0000
vt 0.5743 0.1700 0.0000
vt 0.4687 0.1700 0.0000
vt 0.4687 0.1666 0.0000
vt 0.5743 0.1666 0.0000
vt 0.0795 0.2374 0.0000
vt 0.3220 0.2374 0.0000
vt 0.5743 0.2101 0.0000
vt 0.5709 0.2101 0.0000
vt 0.7279 0.6742 0.0000
vt 0.7279 0.9862 0.0000
vt 0.3450 0.6742 0.0000
vt 0.3450 0.9862 0.0000
vt 0.5668 0.9862 0.0000
vt 0.5668 0.6742 0.0000
vt 0.1839 0.9862 0.0000
vt 0.1839 0.6742 0.0000
vt 0.0100 0.2868 0.0000
vt 0.3415 0.1053 0.0000
vt 0.0100 0.2833 0.0000
vt 0.3415 0.1019 0.0000
vt 0.6452 0.1893 0.0000
vt 0.6418 0.1893 0.0000
vt 0.6335 0.1599 0.0000
vt 0.6369 0.1599 0.0000
vt 0.5743 0.1783 0.0000
vt 0.4687 0.1783 0.0000
vt 0.4687 0.1749 0.0000
vt 0.5743 0.1749 0.0000
vt 0.6418 0.1599 0.0000
vt 0.6452 0.1599 0.0000
vt 0.6369 0.1868 0.0000
vt 0.6335 0.1868 0.0000
vt 0.5541 0.6742 0.0000
vt 0.5541 0.9862 0.0000
vt 0.1711 0.6742 0.0000
vt 0.1711 0.9862 0.0000
vt 0.3930 0.9862 0.0000
vt 0.3930 0.6742 0.0000
vt 0.0100 0.9862 0.0000
vt 0.0100 0.6742 0.0000
vt 0.7407 0.8250 0.0000
vt 0.7432 0.8250 0.0000
vt 0.3577 0.8250 0.0000
vt 0.3603 0.8250 0.0000
vt 0.7432 0.9862 0.0000
vt 0.7407 0.9862 0.0000
vt 0.3603 0.9862 0.0000
vt 0.3577 0.9862 0.0000
vt 0.6535 0.1249 0.0000
vt 0.6535 0.1543 0.0000
vt 0.4110 0.1543 0.0000
vt 0.3415 0.1249 0.0000
vt 0.4110 0.2598 0.0000
vt 0.3415 0.2868 0.0000
vt 0.6535 0.2868 0.0000
vt 0.6535 0.2598 0.0000
vt 0.4110 0.6202 0.0000
vt 0.6535 0.6202 0.0000
vt 0.6535 0.6497 0.0000
vt 0.3415 0.6497 0.0000
vt 0.4110 0.5147 0.0000
vt 0.3415 0.4878 0.0000
vt 0.6535 0.4878 0.0000
vt 0.6535 0.5147 0.0000
vt 0.0100 0.2638 0.0000
vt 0.0100 0.2604 0.0000
vt 0.3220 0.2604 0.0000
vt 0.3220 0.2638 0.0000
vt 0.3415 0.0823 0.0000
vt 0.3415 0.0789 0.0000
vt 0.6535 0.0789 0.0000
vt 0.6535 0.0823 0.0000
vt 0.6501 0.1599 0.0000
vt 0.6535 0.1599 0.0000
vt 0.6535 0.3063 0.0000
vt 0.6535 0.3357 0.0000
vt 0.4110 0.3357 0.0000
vt 0.3415 0.3063 0.0000
vt 0.4110 0.4413 0.0000
vt 0.3415 0.4682 0.0000
vt 0.6535 0.4682 0.0000
vt 0.6535 0.4413 0.0000
vt 0.0795 0.6202 0.0000
vt 0.3220 0.6202 0.0000
vt 0.3220 0.6497 0.0000
vt 0.0100 0.6497 0.0000
vt 0.0795 0.5147 0.0000
vt 0.0100 0.4878 0.0000
vt 0.3220 0.4878 0.0000
vt 0.3220 0.5147 0.0000
vt 0.3220 0.2408 0.0000
vt 0.0795 0.2408 0.0000
vt 0.0795 0.2144 0.0000
vt 0.3220 0.2144 0.0000
vt 0.3220 0.2178 0.0000
vt 0.0795 0.2178 0.0000
vt 0.1601 0.1914 0.0000
vt 0.3220 0.1914 0.0000
vt 0.3220 0.1949 0.0000
vt 0.1601 0.1949 0.0000
vt 0.3220 0.2833 0.0000
vt 0.3220 0.2868 0.0000
vt 0.6535 0.1019 0.0000
vt 0.6535 0.1053 0.0000
vt 0.4110 0.0559 0.0000
vt 0.6535 0.0559 0.0000
vt 0.6535 0.0594 0.0000
vt 0.4110 0.0594 0.0000
vt 0.4110 0.0330 0.0000
vt 0.6535 0.0330 0.0000
vt 0.6535 0.0364 0.0000
vt 0.4110 0.0364 0.0000
vt 0.1608 0.1538 0.0000
vt 0.1608 0.1504 0.0000
vt 0.3220 0.1504 0.0000
vt 0.3220 0.1538 0.0000
vt 0.1608 0.1719 0.0000
vt 0.1608 0.1685 0.0000
vt 0.3220 0.1685 0.0000
vt 0.3220 0.1719 0.0000
vt 0.1601 0.3071 0.0000
vt 0.3220 0.3071 0.0000
vt 0.3220 0.4682 0.0000
vt 0.1601 0.4682 0.0000
vt 0.8575 0.0108 0.0000
vt 0.8575 0.1719 0.0000
vt 0.8541 0.1719 0.0000
vt 0.8541 0.0108 0.0000
vt 0.8492 0.0108 0.0000
vt 0.8492 0.1719 0.0000
vt 0.8458 0.1719 0.0000
vt 0.8458 0.0108 0.0000
vt 0.8392 0.1719 0.0000
vt 0.6780 0.1719 0.0000
vt 0.6780 0.0100 0.0000
vt 0.8392 0.0100 0.0000
vt 0.6780 0.2471 0.0000
vt 0.9900 0.2471 0.0000
vt 0.9900 0.2505 0.0000
vt 0.6780 0.2505 0.0000
vt 0.6780 0.2526 0.0000
vt 0.9900 0.2526 0.0000
vt 0.9900 0.2560 0.0000
vt 0.6780 0.2560 0.0000
vt 0.8281 0.2451 0.0000
vt 0.8281 0.2425 0.0000
vt 0.9900 0.2425 0.0000
vt 0.9900 0.2451 0.0000
vt 0.6780 0.2092 0.0000
vt 0.9900 0.2092 0.0000
vt 0.9900 0.2126 0.0000
vt 0.6780 0.2126 0.0000
vt 0.6780 0.2146 0.0000
vt 0.9900 0.2146 0.0000
vt 0.9900 0.2180 0.0000
vt 0.6780 0.2180 0.0000
vt 0.8281 0.2071 0.0000
vt 0.8281 0.2046 0.0000
vt 0.9900 0.2046 0.0000
vt 0.9900 0.2071 0.0000
# 168 texture coords

g Box11
usemtl Material__980
s 2
f 1/1/1 2/2/1 3/3/1 
f 3/3/1 4/4/1 1/1/1 
s 8
f 3/77/2 2/78/2 5/79/2 
f 5/79/2 6/80/2 3/77/2 
s 32
f 1/73/3 4/74/3 7/75/3 
f 7/75/3 8/76/3 1/73/3 
s 4
f 9/5/4 10/6/4 6/81/4 
f 6/81/4 5/82/4 9/5/4 
f 11/7/4 12/8/4 8/15/4 
f 8/15/4 7/16/4 11/7/4 
s 1
f 13/101/2 12/102/2 11/103/2 
f 11/103/2 14/104/2 13/101/2 
s 2
f 14/9/4 15/10/4 16/11/4 
f 16/11/4 13/12/4 14/9/4 
s 1
f 15/13/3 10/14/3 9/99/3 
f 9/99/3 16/100/3 15/13/3 
s 64
f 16/65/5 9/66/5 5/67/5 
f 16/65/5 5/67/5 2/68/5 
f 13/69/5 16/65/5 2/68/5 
f 13/69/5 2/68/5 1/70/5 
f 13/69/5 1/70/5 8/71/5 
f 13/69/5 8/71/5 12/72/5 
s 16
f 6/57/6 10/58/6 15/59/6 
f 3/60/6 6/57/6 15/59/6 
f 3/60/6 15/59/6 14/61/6 
f 4/62/6 3/60/6 14/61/6 
f 7/63/6 4/62/6 14/61/6 
f 7/63/6 14/61/6 11/64/6 
s 2
f 17/133/1 1/134/1 18/135/1 19/136/1 
s 4
f 20/121/4 21/122/4 22/123/4 8/124/4 
s 8
f 17/17/2 20/18/2 8/21/2 1/22/2 
s 16
f 1/157/6 8/158/6 22/159/6 18/160/6 
s 32
f 18/19/3 22/20/3 21/23/3 19/24/3 
s 64
f 19/145/5 21/146/5 20/147/5 17/148/5 
s 2
f 23/105/1 24/106/1 25/107/1 
f 25/107/1 26/108/1 23/105/1 
s 8
f 25/26/2 24/28/2 27/111/2 
f 27/111/2 28/112/2 25/26/2 
s 32
f 23/25/3 26/27/3 29/109/3 
f 29/109/3 30/110/3 23/25/3 
s 4
f 31/29/4 32/30/4 28/37/4 
f 28/37/4 27/38/4 31/29/4 
f 33/31/4 34/32/4 30/39/4 
f 30/39/4 29/40/4 33/31/4 
s 1
f 35/117/2 34/118/2 33/119/2 
f 33/119/2 36/120/2 35/117/2 
s 2
f 36/33/4 37/34/4 38/35/4 
f 38/35/4 35/36/4 36/33/4 
s 1
f 37/113/3 32/114/3 31/115/3 
f 31/115/3 38/116/3 37/113/3 
s 64
f 38/91/5 31/92/5 27/93/5 
f 38/91/5 27/93/5 24/94/5 
f 35/95/5 38/91/5 24/94/5 
f 35/95/5 24/94/5 23/96/5 
f 35/95/5 23/96/5 30/97/5 
f 35/95/5 30/97/5 34/98/5 
s 16
f 28/83/6 32/84/6 37/85/6 
f 25/86/6 28/83/6 37/85/6 
f 25/86/6 37/85/6 36/87/6 
f 26/88/6 25/86/6 36/87/6 
f 29/89/6 26/88/6 36/87/6 
f 29/89/6 36/87/6 33/90/6 
s 2
f 39/137/1 40/138/1 2/139/1 41/140/1 
s 4
f 42/125/4 43/126/4 5/127/4 44/128/4 
s 8
f 39/41/2 42/42/2 44/45/2 40/46/2 
s 16
f 40/161/6 44/162/6 5/163/6 2/164/6 
s 32
f 2/43/3 5/44/3 43/47/3 41/48/3 
s 64
f 41/149/5 43/150/5 42/151/5 39/152/5 
s 2
f 45/141/1 46/142/1 47/143/1 48/144/1 
s 4
f 49/129/4 50/130/4 51/131/4 52/132/4 
s 8
f 45/49/2 49/50/2 52/53/2 46/54/2 
s 16
f 46/165/6 52/166/6 51/167/6 47/168/6 
s 32
f 47/51/3 51/52/3 50/55/3 48/56/3 
s 64
f 48/153/5 50/154/5 49/155/5 45/156/5 
# 18 polygons - 56 triangles

#
# object Box06
#

v  -102.2649 -182.5000 102.7040
v  -102.2649 -182.5000 94.7040
v  -94.2649 -182.5000 94.7040
v  -94.2649 -182.5000 102.7040
v  -102.2649 182.5000 102.7040
v  -94.2649 182.5000 102.7040
v  -94.2649 182.5000 94.7040
v  -102.2649 182.5000 94.7040
v  94.2649 -182.5000 102.7040
v  94.2649 -182.5000 94.7040
v  102.2649 -182.5000 94.7040
v  102.2649 -182.5000 102.7040
v  94.2649 182.5000 102.7040
v  102.2649 182.5000 102.7040
v  102.2649 182.5000 94.7040
v  94.2649 182.5000 94.7040
v  94.2649 -182.5000 -94.7040
v  94.2649 -182.5000 -102.7040
v  102.2649 -182.5000 -102.7040
v  102.2649 -182.5000 -94.7040
v  94.2649 182.5000 -94.7040
v  102.2649 182.5000 -94.7040
v  102.2649 182.5000 -102.7040
v  94.2649 182.5000 -102.7040
v  -102.2649 -182.5000 -94.7040
v  -102.2649 -182.5000 -102.7040
v  -94.2649 -182.5000 -102.7040
v  -94.2649 -182.5000 -94.7040
v  -102.2649 182.5000 -94.7040
v  -94.2649 182.5000 -94.7040
v  -94.2649 182.5000 -102.7040
v  -102.2649 182.5000 -102.7040
# 32 vertices

vn 0.0000 -1.0000 -0.0000
vn 0.0000 1.0000 -0.0000
vn 0.0000 0.0000 1.0000
vn 1.0000 0.0000 -0.0000
vn 0.0000 0.0000 -1.0000
vn -1.0000 0.0000 -0.0000
# 6 vertex normals

vt 0.9900 0.0100 0.0000
vt 0.9900 0.0315 0.0000
vt 0.9900 0.4344 0.0000
vt 0.9900 0.4559 0.0000
vt 0.0100 0.0315 0.0000
vt 0.0100 0.0100 0.0000
vt 0.0100 0.4559 0.0000
vt 0.0100 0.4344 0.0000
vt 0.9900 0.1093 0.0000
vt 0.9900 0.1307 0.0000
vt 0.9900 0.5336 0.0000
vt 0.9900 0.5551 0.0000
vt 0.0100 0.1307 0.0000
vt 0.0100 0.1093 0.0000
vt 0.0100 0.5551 0.0000
vt 0.0100 0.5336 0.0000
vt 0.9900 0.0762 0.0000
vt 0.9900 0.0977 0.0000
vt 0.9900 0.5006 0.0000
vt 0.9900 0.5220 0.0000
vt 0.0100 0.0977 0.0000
vt 0.0100 0.0762 0.0000
vt 0.0100 0.5220 0.0000
vt 0.0100 0.5006 0.0000
vt 0.9900 0.0431 0.0000
vt 0.9900 0.0646 0.0000
vt 0.9900 0.4675 0.0000
vt 0.9900 0.4889 0.0000
vt 0.0100 0.0646 0.0000
vt 0.0100 0.0431 0.0000
vt 0.0100 0.4889 0.0000
vt 0.0100 0.4675 0.0000
vt 0.0319 0.6480 0.0000
vt 0.0534 0.6480 0.0000
vt 0.0534 0.6695 0.0000
vt 0.0319 0.6695 0.0000
vt 0.0100 0.6261 0.0000
vt 0.0315 0.6261 0.0000
vt 0.0315 0.6476 0.0000
vt 0.0100 0.6476 0.0000
vt 0.0100 0.6480 0.0000
vt 0.0315 0.6480 0.0000
vt 0.0315 0.6695 0.0000
vt 0.0100 0.6695 0.0000
vt 0.0319 0.6261 0.0000
vt 0.0534 0.6261 0.0000
vt 0.0534 0.6476 0.0000
vt 0.0319 0.6476 0.0000
vt 0.0319 0.6192 0.0000
vt 0.0319 0.5977 0.0000
vt 0.0534 0.5977 0.0000
vt 0.0534 0.6192 0.0000
vt 0.0100 0.5973 0.0000
vt 0.0100 0.5758 0.0000
vt 0.0315 0.5758 0.0000
vt 0.0315 0.5973 0.0000
vt 0.0100 0.6192 0.0000
vt 0.0100 0.5977 0.0000
vt 0.0315 0.5977 0.0000
vt 0.0315 0.6192 0.0000
vt 0.0319 0.5973 0.0000
vt 0.0319 0.5758 0.0000
vt 0.0534 0.5758 0.0000
vt 0.0534 0.5973 0.0000
vt 0.9900 0.1515 0.0000
vt 0.9900 0.1729 0.0000
vt 0.0100 0.1729 0.0000
vt 0.0100 0.1515 0.0000
vt 0.9900 0.2507 0.0000
vt 0.9900 0.2722 0.0000
vt 0.0100 0.2722 0.0000
vt 0.0100 0.2507 0.0000
vt 0.9900 0.2176 0.0000
vt 0.9900 0.2391 0.0000
vt 0.0100 0.2391 0.0000
vt 0.0100 0.2176 0.0000
vt 0.9900 0.1845 0.0000
vt 0.9900 0.2060 0.0000
vt 0.0100 0.2060 0.0000
vt 0.0100 0.1845 0.0000
vt 0.9900 0.2929 0.0000
vt 0.9900 0.3144 0.0000
vt 0.0100 0.3144 0.0000
vt 0.0100 0.2929 0.0000
vt 0.9900 0.3922 0.0000
vt 0.9900 0.4137 0.0000
vt 0.0100 0.4137 0.0000
vt 0.0100 0.3922 0.0000
vt 0.9900 0.3591 0.0000
vt 0.9900 0.3806 0.0000
vt 0.0100 0.3806 0.0000
vt 0.0100 0.3591 0.0000
vt 0.9900 0.3260 0.0000
vt 0.9900 0.3475 0.0000
vt 0.0100 0.3475 0.0000
vt 0.0100 0.3260 0.0000
# 96 texture coords

g Box06
usemtl Material__983
s 2
f 53/217/7 54/218/7 55/219/7 56/220/7 
s 4
f 57/201/8 58/202/8 59/203/8 60/204/8 
s 8
f 53/169/9 56/170/9 58/173/9 57/174/9 
s 16
f 56/249/10 55/250/10 59/251/10 58/252/10 
s 32
f 55/171/11 54/172/11 60/175/11 59/176/11 
s 64
f 54/233/12 53/234/12 57/235/12 60/236/12 
s 2
f 61/221/7 62/222/7 63/223/7 64/224/7 
s 4
f 65/205/8 66/206/8 67/207/8 68/208/8 
s 8
f 61/177/9 64/178/9 66/181/9 65/182/9 
s 16
f 64/253/10 63/254/10 67/255/10 66/256/10 
s 32
f 63/179/11 62/180/11 68/183/11 67/184/11 
s 64
f 62/237/12 61/238/12 65/239/12 68/240/12 
s 2
f 69/225/7 70/226/7 71/227/7 72/228/7 
s 4
f 73/209/8 74/210/8 75/211/8 76/212/8 
s 8
f 69/185/9 72/186/9 74/189/9 73/190/9 
s 16
f 72/257/10 71/258/10 75/259/10 74/260/10 
s 32
f 71/187/11 70/188/11 76/191/11 75/192/11 
s 64
f 70/241/12 69/242/12 73/243/12 76/244/12 
s 2
f 77/229/7 78/230/7 79/231/7 80/232/7 
s 4
f 81/213/8 82/214/8 83/215/8 84/216/8 
s 8
f 77/193/9 80/194/9 82/197/9 81/198/9 
s 16
f 80/261/10 79/262/10 83/263/10 82/264/10 
s 32
f 79/195/11 78/196/11 84/199/11 83/200/11 
s 64
f 78/245/12 77/246/12 81/247/12 84/248/12 
# 24 polygons

