# 3ds Max Wavefront OBJ Exporter v0.94b - (c)2007 guruware
# 创建的文件:02.04.2018 17:05:36

mtllib duiduoji22.mtl

#
# object ____01
#

v  6.7305 -7.4671 50.7457
v  -2.0244 -7.4671 50.7457
v  -2.0244 -7.4671 27.3719
v  6.7305 -7.4671 27.3719
v  6.7305 -1.8000 50.7457
v  6.7305 -1.8000 27.3719
v  -2.0244 -1.8000 27.3719
v  -2.0244 -1.8000 50.7457
v  37.3967 -7.4671 27.3712
v  -37.3967 -7.4671 27.3712
v  -37.3967 -7.4671 -50.7457
v  37.3967 -7.4671 -50.7457
v  37.3967 1.9494 27.3712
v  37.3967 1.9494 -50.7457
v  -37.3967 1.9494 -50.7457
v  -37.3967 1.9494 27.3712
v  29.8315 1.9337 -26.5547
v  -31.8648 1.9337 -26.5547
v  -31.8648 1.9337 -34.0247
v  29.8315 1.9337 -34.0247
v  29.8315 7.4670 -26.5547
v  29.8315 7.4670 -34.0247
v  -31.8648 7.4670 -34.0247
v  -31.8648 7.4670 -26.5547
v  29.8315 1.9337 5.8867
v  -31.8648 1.9337 5.8867
v  -31.8648 1.9337 -1.5833
v  29.8315 1.9337 -1.5833
v  29.8315 7.4670 5.8867
v  29.8315 7.4670 -1.5833
v  -31.8648 7.4670 -1.5833
v  -31.8648 7.4670 5.8867
# 32 vertices

vn 0.0000 -1.0000 -0.0000
vn 0.0000 1.0000 -0.0000
vn -1.0000 0.0000 -0.0000
vn 0.0000 0.0000 1.0000
vn 1.0000 0.0000 -0.0000
vn 0.0000 0.0000 -1.0000
# 6 vertex normals

vt 0.3019 0.0649 0.0000
vt 0.2959 0.0649 0.0000
vt 0.2959 0.0487 0.0000
vt 0.3019 0.0487 0.0000
vt 0.6538 0.4746 0.0000
vt 0.6538 0.4908 0.0000
vt 0.6478 0.4908 0.0000
vt 0.6478 0.4746 0.0000
vt 0.4208 0.5232 0.0000
vt 0.3690 0.5232 0.0000
vt 0.3690 0.4690 0.0000
vt 0.4208 0.4690 0.0000
vt 0.4889 0.5395 0.0000
vt 0.4889 0.5936 0.0000
vt 0.4371 0.5936 0.0000
vt 0.4371 0.5395 0.0000
vt 0.2617 0.0162 0.0000
vt 0.2617 0.0589 0.0000
vt 0.2565 0.0589 0.0000
vt 0.2565 0.0162 0.0000
vt 0.3490 0.3319 0.0000
vt 0.3541 0.3319 0.0000
vt 0.3541 0.3747 0.0000
vt 0.3490 0.3747 0.0000
vt 0.2414 0.1186 0.0000
vt 0.2414 0.1613 0.0000
vt 0.2362 0.1613 0.0000
vt 0.2362 0.1186 0.0000
vt 0.3024 0.2796 0.0000
vt 0.3076 0.2796 0.0000
vt 0.3076 0.3223 0.0000
vt 0.3024 0.3223 0.0000
vt 0.2406 0.3572 0.0000
vt 0.2406 0.3734 0.0000
vt 0.2367 0.3734 0.0000
vt 0.2367 0.3572 0.0000
vt 0.5450 0.4662 0.0000
vt 0.5450 0.4824 0.0000
vt 0.5411 0.4824 0.0000
vt 0.5411 0.4662 0.0000
vt 0.3089 0.3346 0.0000
vt 0.3089 0.3887 0.0000
vt 0.3024 0.3887 0.0000
vt 0.3024 0.3346 0.0000
vt 0.2428 0.1736 0.0000
vt 0.2428 0.2277 0.0000
vt 0.2362 0.2277 0.0000
vt 0.2362 0.1736 0.0000
vt 0.4943 0.4659 0.0000
vt 0.4943 0.4719 0.0000
vt 0.4904 0.4719 0.0000
vt 0.4904 0.4659 0.0000
vt 0.5582 0.5363 0.0000
vt 0.5582 0.5424 0.0000
vt 0.5542 0.5424 0.0000
vt 0.5542 0.5363 0.0000
vt 0.4018 0.2493 0.0000
vt 0.4018 0.3011 0.0000
vt 0.3953 0.3011 0.0000
vt 0.3953 0.2493 0.0000
vt 0.2826 0.1624 0.0000
vt 0.2826 0.2142 0.0000
vt 0.2761 0.2142 0.0000
vt 0.2761 0.1624 0.0000
vt 0.4287 0.2350 0.0000
vt 0.4287 0.2778 0.0000
vt 0.4248 0.2778 0.0000
vt 0.4248 0.2350 0.0000
vt 0.2401 0.0636 0.0000
vt 0.2401 0.1063 0.0000
vt 0.2362 0.1063 0.0000
vt 0.2362 0.0636 0.0000
vt 0.2432 0.2994 0.0000
vt 0.2432 0.3421 0.0000
vt 0.2394 0.3421 0.0000
vt 0.2394 0.2994 0.0000
vt 0.3093 0.4603 0.0000
vt 0.3093 0.5031 0.0000
vt 0.3055 0.5031 0.0000
vt 0.3055 0.4603 0.0000
vt 0.3095 0.2498 0.0000
vt 0.3095 0.2549 0.0000
vt 0.3056 0.2549 0.0000
vt 0.3056 0.2498 0.0000
vt 0.6087 0.5402 0.0000
vt 0.6087 0.5453 0.0000
vt 0.6049 0.5453 0.0000
vt 0.6049 0.5402 0.0000
vt 0.4767 0.4068 0.0000
vt 0.4767 0.4120 0.0000
vt 0.4729 0.4120 0.0000
vt 0.4729 0.4068 0.0000
vt 0.3095 0.1450 0.0000
vt 0.3095 0.1501 0.0000
vt 0.3057 0.1501 0.0000
vt 0.3057 0.1450 0.0000
# 96 texture coords

g ____01
usemtl Material__26
s 2
f 1/3/1 2/4/1 3/1/1 4/2/1 
s 4
f 5/7/2 6/8/2 7/5/2 8/6/2 
s 8
f 8/39/3 7/40/3 3/37/3 2/38/3 
s 16
f 5/55/4 8/56/4 2/53/4 1/54/4 
s 32
f 6/35/5 5/36/5 1/33/5 4/34/5 
s 64
f 7/51/6 6/52/6 4/49/6 3/50/6 
s 2
f 9/11/1 10/12/1 11/9/1 12/10/1 
s 4
f 13/15/2 14/16/2 15/13/2 16/14/2 
s 8
f 16/47/3 15/48/3 11/45/3 10/46/3 
s 16
f 13/63/4 16/64/4 10/61/4 9/62/4 
s 32
f 14/43/5 13/44/5 9/41/5 12/42/5 
s 64
f 15/59/6 14/60/6 12/57/6 11/58/6 
s 2
f 17/19/1 18/20/1 19/17/1 20/18/1 
s 4
f 21/23/2 22/24/2 23/21/2 24/22/2 
s 8
f 24/83/3 23/84/3 19/81/3 18/82/3 
s 16
f 21/71/4 24/72/4 18/69/4 17/70/4 
s 32
f 22/87/5 21/88/5 17/85/5 20/86/5 
s 64
f 23/67/6 22/68/6 20/65/6 19/66/6 
s 2
f 25/27/1 26/28/1 27/25/1 28/26/1 
s 4
f 29/31/2 30/32/2 31/29/2 32/30/2 
s 8
f 32/91/3 31/92/3 27/89/3 26/90/3 
s 16
f 29/79/4 32/80/4 26/77/4 25/78/4 
s 32
f 30/95/5 29/96/5 25/93/5 28/94/5 
s 64
f 31/75/6 30/76/6 28/73/6 27/74/6 
# 24 polygons

