# 3ds Max Wavefront OBJ Exporter v0.94b - (c)2007 guruware
# 创建的文件:11.04.2018 15:46:21

mtllib guanzi1.mtl

#
# object Circle01
#

v  150.0000 -0.0001 30.0000
v  150.0000 6.8739 29.2069
v  -150.0000 6.8739 29.2069
v  -150.0000 -0.0001 30.0000
v  150.0000 13.1866 26.9482
v  -150.0000 13.1866 26.9482
v  150.0000 18.7571 23.4046
v  -150.0000 18.7571 23.4046
v  150.0000 23.4046 18.7572
v  -150.0000 23.4045 18.7572
v  150.0000 26.9481 13.1867
v  -150.0000 26.9481 13.1867
v  150.0000 29.2068 6.8740
v  -150.0000 29.2068 6.8740
v  150.0000 29.9999 0.0000
v  -150.0000 29.9999 -0.0000
v  150.0000 29.2068 -6.8740
v  -150.0000 29.2068 -6.8740
v  150.0000 26.9481 -13.1867
v  -150.0000 26.9481 -13.1867
v  150.0000 23.4046 -18.7572
v  -150.0000 23.4045 -18.7572
v  150.0000 18.7571 -23.4046
v  -150.0000 18.7571 -23.4046
v  150.0000 13.1866 -26.9481
v  -150.0000 13.1866 -26.9481
v  150.0000 6.8739 -29.2069
v  -150.0000 6.8739 -29.2069
v  150.0000 -0.0001 -30.0000
v  -150.0000 -0.0001 -30.0000
v  150.0000 -6.8741 -29.2069
v  -150.0000 -6.8741 -29.2069
v  150.0000 -13.1868 -26.9482
v  -150.0000 -13.1868 -26.9482
v  150.0000 -18.7573 -23.4046
v  -150.0000 -18.7573 -23.4046
v  150.0000 -23.4047 -18.7572
v  -150.0000 -23.4047 -18.7572
v  150.0000 -26.9482 -13.1867
v  -150.0000 -26.9482 -13.1867
v  150.0000 -29.2070 -6.8740
v  -150.0000 -29.2070 -6.8740
v  150.0000 -30.0001 0.0000
v  -150.0000 -30.0001 -0.0000
v  150.0000 -29.2070 6.8740
v  -150.0000 -29.2070 6.8740
v  150.0000 -26.9482 13.1867
v  -150.0000 -26.9482 13.1867
v  150.0000 -23.4047 18.7572
v  -150.0000 -23.4047 18.7572
v  150.0000 -18.7573 23.4046
v  -150.0000 -18.7573 23.4046
v  150.0000 -13.1868 26.9481
v  -150.0000 -13.1868 26.9481
v  150.0000 -6.8741 29.2069
v  -150.0000 -6.8741 29.2069
v  150.0000 -6.0721 25.7993
v  150.0000 -11.6483 23.8041
v  -150.0000 -11.6483 23.8041
v  -150.0000 -6.0721 25.7993
v  150.0000 -16.5689 20.6740
v  -150.0000 -16.5689 20.6740
v  150.0000 -20.6741 16.5688
v  -150.0000 -20.6741 16.5688
v  150.0000 -23.8042 11.6482
v  -150.0000 -23.8042 11.6482
v  150.0000 -25.7994 6.0720
v  -150.0000 -25.7994 6.0720
v  150.0000 -26.5000 0.0000
v  -150.0000 -26.5000 -0.0000
v  150.0000 -25.7994 -6.0720
v  -150.0000 -25.7994 -6.0720
v  150.0000 -23.8042 -11.6482
v  -150.0000 -23.8042 -11.6482
v  150.0000 -20.6741 -16.5688
v  -150.0000 -20.6741 -16.5688
v  150.0000 -16.5689 -20.6740
v  -150.0000 -16.5689 -20.6740
v  150.0000 -11.6483 -23.8041
v  -150.0000 -11.6483 -23.8041
v  150.0000 -6.0721 -25.7993
v  -150.0000 -6.0721 -25.7993
v  150.0000 -0.0001 -26.4999
v  -150.0000 -0.0001 -26.4999
v  150.0000 6.0720 -25.7993
v  -150.0000 6.0720 -25.7993
v  150.0000 11.6482 -23.8041
v  -150.0000 11.6481 -23.8041
v  150.0000 16.5687 -20.6740
v  -150.0000 16.5687 -20.6740
v  150.0000 20.6739 -16.5688
v  -150.0000 20.6739 -16.5688
v  150.0000 23.8040 -11.6482
v  -150.0000 23.8040 -11.6482
v  150.0000 25.7992 -6.0720
v  -150.0000 25.7992 -6.0720
v  150.0000 26.4998 0.0000
v  -150.0000 26.4998 -0.0000
v  150.0000 25.7992 6.0720
v  -150.0000 25.7992 6.0720
v  150.0000 23.8040 11.6482
v  -150.0000 23.8040 11.6482
v  150.0000 20.6739 16.5688
v  -150.0000 20.6739 16.5688
v  150.0000 16.5687 20.6740
v  -150.0000 16.5687 20.6740
v  150.0000 11.6482 23.8041
v  -150.0000 11.6481 23.8041
v  150.0000 6.0720 25.7993
v  -150.0000 6.0720 25.7993
v  150.0000 -0.0001 26.4999
v  -150.0000 -0.0001 26.4999
# 112 vertices

vn -0.0000 0.0000 1.0000
vn -0.0000 0.2272 0.9738
vn -0.0000 -0.0000 1.0000
vn -0.0000 0.4395 0.8982
vn -0.0000 0.6257 0.7801
vn -0.0000 0.7801 0.6257
vn -0.0000 0.8982 0.4395
vn -0.0000 0.9738 0.2272
vn 0.0000 1.0000 -0.0000
vn 0.0000 0.9738 -0.2272
vn -0.0000 0.8982 -0.4395
vn 0.0000 0.8982 -0.4395
vn -0.0000 0.7801 -0.6257
vn 0.0000 0.6257 -0.7801
vn -0.0000 0.6257 -0.7801
vn 0.0000 0.4395 -0.8982
vn 0.0000 0.2272 -0.9738
vn 0.0000 0.0000 -1.0000
vn 0.0000 -0.2272 -0.9738
vn 0.0000 -0.4395 -0.8982
vn 0.0000 -0.6257 -0.7801
vn 0.0000 -0.7801 -0.6257
vn 0.0000 -0.8982 -0.4395
vn 0.0000 -0.9738 -0.2272
vn 0.0000 -1.0000 -0.0000
vn -0.0000 -0.9738 0.2272
vn -0.0000 -0.8982 0.4395
vn -0.0000 -0.7801 0.6257
vn -0.0000 -0.6257 0.7801
vn -0.0000 -0.4395 0.8982
vn -0.0000 -0.2272 0.9738
vn 0.0000 0.7801 -0.6257
vn -0.0000 1.0000 0.0000
vn 0.0000 -0.2272 0.9738
vn 0.0000 -0.4395 0.8982
vn 0.0000 -0.6257 0.7801
vn -0.0000 -1.0000 0.0000
vn 1.0000 0.0000 0.0000
vn -1.0000 0.0000 -0.0000
# 39 vertex normals

vt 0.0803 0.7449 0.0000
vt 0.0633 0.7449 0.0000
vt 0.0633 0.0100 0.0000
vt 0.0803 0.0100 0.0000
vt 0.0474 0.7449 0.0000
vt 0.5268 0.7449 0.0000
vt 0.5104 0.7449 0.0000
vt 0.5104 0.0100 0.0000
vt 0.5268 0.0100 0.0000
vt 0.4939 0.7449 0.0000
vt 0.6269 0.7449 0.0000
vt 0.6108 0.7449 0.0000
vt 0.6108 0.0100 0.0000
vt 0.6269 0.0100 0.0000
vt 0.5950 0.7449 0.0000
vt 0.7264 0.7449 0.0000
vt 0.7100 0.7449 0.0000
vt 0.7100 0.0100 0.0000
vt 0.7264 0.0100 0.0000
vt 0.6942 0.7449 0.0000
vt 0.8167 0.7449 0.0000
vt 0.7998 0.7449 0.0000
vt 0.7998 0.0100 0.0000
vt 0.8167 0.0100 0.0000
vt 0.7833 0.7449 0.0000
vt 0.0474 0.0100 0.0000
vt 0.0328 0.7449 0.0000
vt 0.0328 0.0100 0.0000
vt 0.0202 0.7449 0.0000
vt 0.0202 0.0100 0.0000
vt 0.0100 0.7449 0.0000
vt 0.0100 0.0100 0.0000
vt 0.1341 0.7449 0.0000
vt 0.4939 0.0100 0.0000
vt 0.4787 0.7449 0.0000
vt 0.4787 0.0100 0.0000
vt 0.4660 0.7449 0.0000
vt 0.4660 0.0100 0.0000
vt 0.5950 0.0100 0.0000
vt 0.5802 0.7449 0.0000
vt 0.5802 0.0100 0.0000
vt 0.5669 0.7449 0.0000
vt 0.5669 0.0100 0.0000
vt 0.6942 0.0100 0.0000
vt 0.6797 0.7449 0.0000
vt 0.6797 0.0100 0.0000
vt 0.6669 0.7449 0.0000
vt 0.6669 0.0100 0.0000
vt 0.7833 0.0100 0.0000
vt 0.7685 0.7449 0.0000
vt 0.7685 0.0100 0.0000
vt 0.7560 0.7449 0.0000
vt 0.7560 0.0100 0.0000
vt 0.1241 0.7449 0.0000
vt 0.1241 0.0100 0.0000
vt 0.1341 0.0100 0.0000
vt 0.2071 0.7449 0.0000
vt 0.1934 0.7449 0.0000
vt 0.1934 0.0100 0.0000
vt 0.2071 0.0100 0.0000
vt 0.9900 0.7449 0.0000
vt 0.9763 0.7449 0.0000
vt 0.9763 0.0100 0.0000
vt 0.9900 0.0100 0.0000
vt 0.9615 0.7449 0.0000
vt 0.4265 0.7449 0.0000
vt 0.4188 0.7449 0.0000
vt 0.4188 0.0100 0.0000
vt 0.4265 0.0100 0.0000
vt 0.4088 0.7449 0.0000
vt 0.4088 0.0100 0.0000
vt 0.3967 0.7449 0.0000
vt 0.3967 0.0100 0.0000
vt 0.3830 0.7449 0.0000
vt 0.9034 0.7449 0.0000
vt 0.8897 0.7449 0.0000
vt 0.8897 0.0100 0.0000
vt 0.9034 0.0100 0.0000
vt 0.8748 0.7449 0.0000
vt 0.1814 0.7449 0.0000
vt 0.1814 0.0100 0.0000
vt 0.1713 0.7449 0.0000
vt 0.1713 0.0100 0.0000
vt 0.1637 0.7449 0.0000
vt 0.1637 0.0100 0.0000
vt 0.2803 0.7449 0.0000
vt 0.2726 0.7449 0.0000
vt 0.2726 0.0100 0.0000
vt 0.9615 0.0100 0.0000
vt 0.9466 0.7449 0.0000
vt 0.9466 0.0100 0.0000
vt 0.9329 0.7449 0.0000
vt 0.9329 0.0100 0.0000
vt 0.3830 0.0100 0.0000
vt 0.3682 0.7449 0.0000
vt 0.3682 0.0100 0.0000
vt 0.3533 0.7449 0.0000
vt 0.3533 0.0100 0.0000
vt 0.3396 0.7449 0.0000
vt 0.3396 0.0100 0.0000
vt 0.3276 0.7449 0.0000
vt 0.3276 0.0100 0.0000
vt 0.8748 0.0100 0.0000
vt 0.8600 0.7449 0.0000
vt 0.8600 0.0100 0.0000
vt 0.8463 0.7449 0.0000
vt 0.8463 0.0100 0.0000
vt 0.2803 0.0100 0.0000
vt 0.2626 0.7449 0.0000
vt 0.2626 0.0100 0.0000
vt 0.2505 0.7449 0.0000
vt 0.2505 0.0100 0.0000
vt 0.2626 0.9220 0.0000
vt 0.2461 0.9259 0.0000
vt 0.2452 0.9173 0.0000
vt 0.2597 0.9139 0.0000
vt 0.2292 0.9258 0.0000
vt 0.2302 0.9173 0.0000
vt 0.2774 0.9148 0.0000
vt 0.2728 0.9075 0.0000
vt 0.2132 0.9221 0.0000
vt 0.2161 0.9140 0.0000
vt 0.2899 0.9046 0.0000
vt 0.2839 0.8985 0.0000
vt 0.1986 0.9150 0.0000
vt 0.2032 0.9078 0.0000
vt 0.3000 0.8920 0.0000
vt 0.2927 0.8874 0.0000
vt 0.1860 0.9050 0.0000
vt 0.1921 0.8989 0.0000
vt 0.3070 0.8774 0.0000
vt 0.2990 0.8746 0.0000
vt 0.3108 0.8614 0.0000
vt 0.3023 0.8604 0.0000
vt 0.3108 0.8445 0.0000
vt 0.3023 0.8455 0.0000
vt 0.3069 0.8280 0.0000
vt 0.2989 0.8309 0.0000
vt 0.2997 0.8132 0.0000
vt 0.2925 0.8179 0.0000
vt 0.2895 0.8007 0.0000
vt 0.2835 0.8068 0.0000
vt 0.2769 0.7907 0.0000
vt 0.2723 0.7979 0.0000
vt 0.2624 0.7836 0.0000
vt 0.2595 0.7917 0.0000
vt 0.2464 0.7798 0.0000
vt 0.2454 0.7884 0.0000
vt 0.2294 0.7798 0.0000
vt 0.2304 0.7883 0.0000
vt 0.2129 0.7837 0.0000
vt 0.2158 0.7917 0.0000
vt 0.1982 0.7909 0.0000
vt 0.2028 0.7982 0.0000
vt 0.1856 0.8011 0.0000
vt 0.1917 0.8071 0.0000
vt 0.1756 0.8137 0.0000
vt 0.1828 0.8183 0.0000
vt 0.1685 0.8283 0.0000
vt 0.1766 0.8311 0.0000
vt 0.1648 0.8442 0.0000
vt 0.1733 0.8453 0.0000
vt 0.1648 0.8612 0.0000
vt 0.1733 0.8602 0.0000
vt 0.1686 0.8777 0.0000
vt 0.1767 0.8748 0.0000
vt 0.1759 0.8924 0.0000
vt 0.1831 0.8878 0.0000
vt 0.0744 0.9258 0.0000
vt 0.0904 0.9173 0.0000
vt 0.0914 0.9259 0.0000
vt 0.0754 0.9173 0.0000
vt 0.1079 0.9220 0.0000
vt 0.1050 0.9139 0.0000
vt 0.0584 0.9221 0.0000
vt 0.0613 0.9140 0.0000
vt 0.1226 0.9148 0.0000
vt 0.1180 0.9075 0.0000
vt 0.0439 0.9150 0.0000
vt 0.0484 0.9078 0.0000
vt 0.1352 0.9046 0.0000
vt 0.1291 0.8985 0.0000
vt 0.0313 0.9050 0.0000
vt 0.0373 0.8989 0.0000
vt 0.1452 0.8920 0.0000
vt 0.1379 0.8874 0.0000
vt 0.0211 0.8924 0.0000
vt 0.0283 0.8878 0.0000
vt 0.0138 0.8777 0.0000
vt 0.0219 0.8748 0.0000
vt 0.0100 0.8612 0.0000
vt 0.0185 0.8602 0.0000
vt 0.0100 0.8442 0.0000
vt 0.0185 0.8453 0.0000
vt 0.0138 0.8283 0.0000
vt 0.0218 0.8311 0.0000
vt 0.0208 0.8137 0.0000
vt 0.0281 0.8183 0.0000
vt 0.0308 0.8011 0.0000
vt 0.0369 0.8071 0.0000
vt 0.0434 0.7909 0.0000
vt 0.0480 0.7982 0.0000
vt 0.0581 0.7837 0.0000
vt 0.0610 0.7917 0.0000
vt 0.0747 0.7798 0.0000
vt 0.0756 0.7883 0.0000
vt 0.0916 0.7798 0.0000
vt 0.0906 0.7884 0.0000
vt 0.1076 0.7836 0.0000
vt 0.1047 0.7917 0.0000
vt 0.1221 0.7907 0.0000
vt 0.1176 0.7979 0.0000
vt 0.1347 0.8007 0.0000
vt 0.1287 0.8068 0.0000
vt 0.1449 0.8132 0.0000
vt 0.1377 0.8179 0.0000
vt 0.1522 0.8280 0.0000
vt 0.1441 0.8309 0.0000
vt 0.1560 0.8445 0.0000
vt 0.1475 0.8455 0.0000
vt 0.1560 0.8614 0.0000
vt 0.1475 0.8604 0.0000
vt 0.1523 0.8774 0.0000
vt 0.1442 0.8746 0.0000
vt 0.3175 0.7449 0.0000
vt 0.3175 0.0100 0.0000
vt 0.3099 0.7449 0.0000
vt 0.3099 0.0100 0.0000
vt 0.2369 0.7449 0.0000
vt 0.2369 0.0100 0.0000
vt 0.2220 0.7449 0.0000
vt 0.2220 0.0100 0.0000
vt 0.1115 0.7449 0.0000
vt 0.1115 0.0100 0.0000
vt 0.0968 0.7449 0.0000
vt 0.0968 0.0100 0.0000
vt 0.4560 0.7449 0.0000
vt 0.4560 0.0100 0.0000
vt 0.5564 0.7449 0.0000
vt 0.5564 0.0100 0.0000
vt 0.6565 0.7449 0.0000
vt 0.6565 0.0100 0.0000
# 242 texture coords

g Circle01
usemtl 24___Default
s 1
f 1/1/1 2/2/2 3/3/2 4/4/3 
s 3
f 2/2/2 5/5/4 6/26/4 3/3/2 
s 2
f 5/5/4 7/27/5 8/28/5 6/26/4 
f 7/27/5 9/29/6 10/30/6 8/28/5 
f 9/29/6 11/31/7 12/32/7 10/30/6 
f 11/6/7 13/7/8 14/8/8 12/9/7 
f 13/7/8 15/10/9 16/34/9 14/8/8 
f 15/10/9 17/35/10 18/36/10 16/34/9 
f 17/35/10 19/37/11 20/38/12 18/36/10 
f 19/37/11 21/237/13 22/238/13 20/38/12 
f 21/11/13 23/12/14 24/13/15 22/14/13 
f 23/12/14 25/15/16 26/39/16 24/13/15 
f 25/15/16 27/40/17 28/41/17 26/39/16 
f 27/40/17 29/42/18 30/43/18 28/41/17 
f 29/42/18 31/239/19 32/240/19 30/43/18 
f 31/16/19 33/17/20 34/18/20 32/19/19 
f 33/17/20 35/20/21 36/44/21 34/18/20 
f 35/20/21 37/45/22 38/46/22 36/44/21 
f 37/45/22 39/47/23 40/48/23 38/46/22 
f 39/47/23 41/241/24 42/242/24 40/48/23 
f 41/21/24 43/22/25 44/23/25 42/24/24 
f 43/22/25 45/25/26 46/49/26 44/23/25 
f 45/25/26 47/50/27 48/51/27 46/49/26 
f 47/50/27 49/52/28 50/53/28 48/51/27 
f 49/33/28 51/54/29 52/55/29 50/56/28 
f 51/54/29 53/233/30 54/234/30 52/55/29 
f 53/233/30 55/235/31 56/236/31 54/234/30 
s 3
f 55/235/31 1/1/1 4/4/3 56/236/31 
s 1
f 57/57/17 58/58/16 59/59/16 60/60/17 
s 3
f 58/58/16 61/80/14 62/81/14 59/59/16 
s 2
f 61/80/14 63/82/32 64/83/32 62/81/14 
f 63/82/32 65/84/12 66/85/12 64/83/32 
f 65/61/12 67/62/10 68/63/10 66/64/12 
f 67/62/10 69/65/33 70/89/9 68/63/10 
f 69/65/33 71/90/8 72/91/8 70/89/9 
f 71/90/8 73/92/7 74/93/7 72/91/8 
f 73/66/7 75/67/6 76/68/6 74/69/7 
f 75/67/6 77/70/5 78/71/5 76/68/6 
f 77/70/5 79/72/4 80/73/4 78/71/5 
f 79/72/4 81/74/2 82/94/2 80/73/4 
f 81/74/2 83/95/1 84/96/1 82/94/2 
f 83/95/1 85/97/34 86/98/31 84/96/1 
f 85/97/34 87/99/35 88/100/35 86/98/31 
f 87/99/35 89/101/29 90/102/36 88/100/35 
f 89/101/29 91/225/28 92/226/28 90/102/36 
f 91/225/28 93/227/27 94/228/27 92/226/28 
f 93/75/27 95/76/26 96/77/26 94/78/27 
f 95/76/26 97/79/25 98/103/37 96/77/26 
f 97/79/25 99/104/24 100/105/24 98/103/37 
f 99/104/24 101/106/23 102/107/23 100/105/24 
f 101/86/23 103/87/22 104/88/22 102/108/23 
f 103/87/22 105/109/21 106/110/21 104/88/22 
f 105/109/21 107/111/20 108/112/20 106/110/21 
f 107/111/20 109/229/19 110/230/19 108/112/20 
f 109/229/19 111/231/18 112/232/18 110/230/19 
s 3
f 111/231/18 57/57/17 60/60/17 112/232/18 
s 16
f 55/169/38 57/172/38 111/170/38 1/171/38 
f 111/170/38 109/174/38 2/173/38 1/171/38 
f 53/175/38 58/176/38 57/172/38 55/169/38 
f 109/174/38 107/178/38 5/177/38 2/173/38 
f 51/179/38 61/180/38 58/176/38 53/175/38 
f 107/178/38 105/182/38 7/181/38 5/177/38 
f 49/183/38 63/184/38 61/180/38 51/179/38 
f 105/182/38 103/186/38 9/185/38 7/181/38 
f 47/187/38 65/188/38 63/184/38 49/183/38 
f 45/189/38 67/190/38 65/188/38 47/187/38 
f 43/191/38 69/192/38 67/190/38 45/189/38 
f 41/193/38 71/194/38 69/192/38 43/191/38 
f 39/195/38 73/196/38 71/194/38 41/193/38 
f 37/197/38 75/198/38 73/196/38 39/195/38 
f 35/199/38 77/200/38 75/198/38 37/197/38 
f 33/201/38 79/202/38 77/200/38 35/199/38 
f 31/203/38 81/204/38 79/202/38 33/201/38 
f 29/205/38 83/206/38 81/204/38 31/203/38 
f 27/207/38 85/208/38 83/206/38 29/205/38 
f 25/209/38 87/210/38 85/208/38 27/207/38 
f 23/211/38 89/212/38 87/210/38 25/209/38 
f 21/213/38 91/214/38 89/212/38 23/211/38 
f 19/215/38 93/216/38 91/214/38 21/213/38 
f 17/217/38 95/218/38 93/216/38 19/215/38 
f 15/219/38 97/220/38 95/218/38 17/217/38 
f 13/221/38 99/222/38 97/220/38 15/219/38 
f 11/223/38 101/224/38 99/222/38 13/221/38 
f 9/185/38 103/186/38 101/224/38 11/223/38 
f 56/113/39 4/114/39 3/117/39 112/115/39 
f 56/113/39 112/115/39 60/116/39 54/119/39 
f 110/118/39 112/115/39 3/117/39 6/121/39 
f 54/119/39 60/116/39 59/120/39 52/123/39 
f 108/122/39 110/118/39 6/121/39 8/125/39 
f 52/123/39 59/120/39 62/124/39 50/127/39 
f 106/126/39 108/122/39 8/125/39 10/129/39 
f 50/127/39 62/124/39 64/128/39 48/131/39 
f 104/130/39 106/126/39 10/129/39 102/168/39 
f 48/131/39 64/128/39 66/132/39 46/133/39 
f 46/133/39 66/132/39 68/134/39 44/135/39 
f 44/135/39 68/134/39 70/136/39 42/137/39 
f 42/137/39 70/136/39 72/138/39 40/139/39 
f 40/139/39 72/138/39 74/140/39 38/141/39 
f 38/141/39 74/140/39 76/142/39 36/143/39 
f 36/143/39 76/142/39 78/144/39 34/145/39 
f 34/145/39 78/144/39 80/146/39 32/147/39 
f 32/147/39 80/146/39 82/148/39 30/149/39 
f 30/149/39 82/148/39 84/150/39 28/151/39 
f 28/151/39 84/150/39 86/152/39 26/153/39 
f 26/153/39 86/152/39 88/154/39 24/155/39 
f 24/155/39 88/154/39 90/156/39 22/157/39 
f 22/157/39 90/156/39 92/158/39 20/159/39 
f 20/159/39 92/158/39 94/160/39 18/161/39 
f 18/161/39 94/160/39 96/162/39 16/163/39 
f 16/163/39 96/162/39 98/164/39 14/165/39 
f 14/165/39 98/164/39 100/166/39 12/167/39 
f 12/167/39 100/166/39 102/168/39 10/129/39 
# 112 polygons

