<?xml version="1.0" encoding="utf-8"?>
<!-- Generator: Adobe Illustrator 16.0.0, SVG Export Plug-In . SVG Version: 6.00 Build 0)  -->
<!DOCTYPE svg PUBLIC "-//W3C//DTD SVG 1.1//EN" "http://www.w3.org/Graphics/SVG/1.1/DTD/svg11.dtd">
<svg version="1.1" id="图层_1" xmlns="http://www.w3.org/2000/svg" xmlns:xlink="http://www.w3.org/1999/xlink" x="0px" y="0px"
	 width="1274.734px" height="124.726px" viewBox="0 0 1274.734 124.726" enable-background="new 0 0 1274.734 124.726"
	 xml:space="preserve">
<path fill="#3E545E" d="M1274.734,116.222c0,4.695-3.849,8.504-8.595,8.504H8.593c-4.746,0-8.593-3.809-8.593-8.504V8.504
	C0,3.808,3.847,0,8.593,0H1266.14c4.746,0,8.595,3.808,8.595,8.504V116.222z"/>
<path fill="#C8C9CA" stroke="#F7EE82" stroke-miterlimit="10" d="M797.413,29.564c0-1.56-1.289-2.836-2.866-2.836H565.085
	c-1.577,0-2.864,1.276-2.864,2.836v2.339c0,1.559-1.289,2.834-2.864,2.834h-2.363c-1.576,0-2.866,1.275-2.866,2.835v49.122
	c0,1.559,1.29,2.834,2.866,2.834h2.363c1.575,0,2.864,1.275,2.864,2.836v2.338c0,1.559,1.287,2.834,2.864,2.834h229.462
	c1.577,0,2.866-1.275,2.866-2.834v-2.338c0-1.561,1.286-2.836,2.864-2.836h2.363c1.574,0,2.864-1.275,2.864-2.834V37.572
	c0-1.56-1.29-2.835-2.864-2.835h-2.363c-1.578,0-2.864-1.275-2.864-2.834V29.564z"/>
<path fill="#C8C9CA" stroke="#F7EE82" stroke-miterlimit="10" d="M1062.51,29.564c0-1.56-1.289-2.836-2.866-2.836H830.182
	c-1.576,0-2.864,1.276-2.864,2.836v2.339c0,1.559-1.289,2.834-2.864,2.834h-2.363c-1.576,0-2.865,1.275-2.865,2.835v49.122
	c0,1.559,1.289,2.834,2.865,2.834h2.363c1.575,0,2.864,1.275,2.864,2.836v2.338c0,1.559,1.288,2.834,2.864,2.834h229.462
	c1.577,0,2.866-1.275,2.866-2.834v-2.338c0-1.561,1.287-2.836,2.864-2.836h2.363c1.575,0,2.864-1.275,2.864-2.834V37.572
	c0-1.56-1.289-2.835-2.864-2.835h-2.363c-1.577,0-2.864-1.275-2.864-2.834V29.564z"/>
<path fill="#CCE7E0" d="M33.509,19.003V4.945h30.569v8.592c0,0-0.758,1.184,1.769,1.422h23.748v6.986H33.509V19.003z"/>
<g>
	<rect x="36.399" y="7.667" fill="#060001" width="21.979" height="11.337"/>
</g>
<g>
	<defs>
		<path id="SVGID_1_" d="M70.396,19.439c0,0.944,1.333,1.71,2.976,1.71c1.642,0,2.975-0.766,2.975-1.71
			c0-0.947-1.333-1.711-2.975-1.711C71.729,17.729,70.396,18.492,70.396,19.439"/>
	</defs>
	<clipPath id="SVGID_2_">
		<use xlink:href="#SVGID_1_"  overflow="visible"/>
	</clipPath>
	
		<linearGradient id="SVGID_3_" gradientUnits="userSpaceOnUse" x1="-107.4614" y1="199.9414" x2="-107.0317" y2="199.9414" gradientTransform="matrix(13.8485 0 0 -13.8485 1558.5781 2788.3203)">
		<stop  offset="0" style="stop-color:#727171"/>
		<stop  offset="1" style="stop-color:#595758"/>
	</linearGradient>
	<rect x="70.396" y="17.729" clip-path="url(#SVGID_2_)" fill="url(#SVGID_3_)" width="5.95" height="3.421"/>
</g>
<g>
	<defs>
		<path id="SVGID_4_" d="M70.396,9.028c0,0.944,1.333,1.71,2.976,1.71s2.975-0.766,2.975-1.71c0-0.946-1.332-1.711-2.975-1.711
			S70.396,8.083,70.396,9.028"/>
	</defs>
	<use xlink:href="#SVGID_4_"  overflow="visible" fill="#EFEE84"/>
	<clipPath id="SVGID_5_">
		<use xlink:href="#SVGID_4_"  overflow="visible"/>
	</clipPath>
	<rect x="70.396" y="7.317" clip-path="url(#SVGID_5_)" fill="#EFEE84" width="5.95" height="3.421"/>
</g>
<g>
	<defs>
		<path id="SVGID_6_" d="M109.732,9.028c0,0.944,1.332,1.71,2.975,1.71c1.644,0,2.975-0.766,2.975-1.71
			c0-0.946-1.331-1.711-2.975-1.711C111.064,7.317,109.732,8.083,109.732,9.028"/>
	</defs>
	<use xlink:href="#SVGID_6_"  overflow="visible" fill="#EFEE84"/>
	<clipPath id="SVGID_7_">
		<use xlink:href="#SVGID_6_"  overflow="visible"/>
	</clipPath>
	<rect x="109.732" y="7.317" clip-path="url(#SVGID_7_)" fill="#EFEE84" width="5.95" height="3.421"/>
</g>
<path fill="#1D1E1E" d="M367.888,17.619c0,0.386-0.319,0.698-0.711,0.698h-68.972c-0.393,0-0.71-0.313-0.71-0.698V8.016
	c0-0.386,0.318-0.699,0.71-0.699h68.972c0.393,0,0.711,0.313,0.711,0.699V17.619z"/>
<path fill="#1D1E1E" d="M448.037,17.619c0,0.386-0.319,0.698-0.711,0.698h-68.972c-0.393,0-0.711-0.313-0.711-0.698V8.016
	c0-0.386,0.319-0.699,0.711-0.699h68.972c0.393,0,0.711,0.313,0.711,0.699V17.619z"/>
<path fill="#1D1E1E" d="M528.186,17.619c0,0.386-0.319,0.698-0.712,0.698h-68.972c-0.393,0-0.71-0.313-0.71-0.698V8.016
	c0-0.386,0.318-0.699,0.71-0.699h68.972c0.393,0,0.712,0.313,0.712,0.699V17.619z"/>
<path fill="#1D1E1E" d="M633.385,17.619c0,0.386-0.318,0.698-0.712,0.698h-68.972c-0.393,0-0.71-0.313-0.71-0.698V8.016
	c0-0.386,0.317-0.699,0.71-0.699h68.972c0.394,0,0.712,0.313,0.712,0.699V17.619z"/>
<path fill="#1D1E1E" d="M713.533,17.619c0,0.386-0.318,0.698-0.711,0.698h-68.972c-0.393,0-0.712-0.313-0.712-0.698V8.016
	c0-0.386,0.319-0.699,0.712-0.699h68.972c0.393,0,0.711,0.313,0.711,0.699V17.619z"/>
<path fill="#1D1E1E" d="M793.682,17.619c0,0.386-0.319,0.698-0.712,0.698h-68.972c-0.393,0-0.71-0.313-0.71-0.698V8.016
	c0-0.386,0.317-0.699,0.71-0.699h68.972c0.393,0,0.712,0.313,0.712,0.699V17.619z"/>
<path fill="#1D1E1E" d="M898.881,17.619c0,0.386-0.318,0.698-0.711,0.698h-68.972c-0.393,0-0.711-0.313-0.711-0.698V8.016
	c0-0.386,0.318-0.699,0.711-0.699h68.972c0.393,0,0.711,0.313,0.711,0.699V17.619z"/>
<path fill="#1D1E1E" d="M979.03,17.619c0,0.386-0.319,0.698-0.712,0.698h-68.972c-0.393,0-0.711-0.313-0.711-0.698V8.016
	c0-0.386,0.318-0.699,0.711-0.699h68.972c0.393,0,0.712,0.313,0.712,0.699V17.619z"/>
<path fill="#1D1E1E" d="M1059.178,17.619c0,0.386-0.318,0.698-0.711,0.698h-68.972c-0.394,0-0.711-0.313-0.711-0.698V8.016
	c0-0.386,0.317-0.699,0.711-0.699h68.972c0.393,0,0.711,0.313,0.711,0.699V17.619z"/>
<path fill="#787A79" stroke="#191919" stroke-miterlimit="10" d="M1269.115,117.21c0,1.141-0.905,2.064-2.021,2.064h-191.332
	c-1.115,0-2.021-0.924-2.021-2.064V9.382c0-1.14,0.906-2.064,2.021-2.064h191.332c1.116,0,2.021,0.925,2.021,2.064V117.21z"/>
<path fill="#DCDAD3" d="M1264.535,114.817c0,1.09-0.864,1.973-1.932,1.973h-182.839c-1.066,0-1.932-0.883-1.932-1.973V11.775
	c0-1.09,0.865-1.973,1.932-1.973h182.839c1.067,0,1.932,0.883,1.932,1.973V114.817z"/>
<g>
	<path fill="#D5D6D5" d="M1100.748,96.007c0,1.51,1.457,2.734,3.256,2.734h137.725c1.798,0,3.257-1.225,3.257-2.734V72.075
		c0-1.51-1.459-2.735-3.257-2.735h-137.725c-1.799,0-3.256,1.225-3.256,2.735V96.007z"/>
	<path fill="#080404" d="M1104.004,68.938h137.725c2.02,0,3.663,1.406,3.663,3.137v23.932c0,1.73-1.644,3.137-3.663,3.137h-137.725
		c-2.021,0-3.664-1.406-3.664-3.137V72.075C1100.34,70.344,1101.983,68.938,1104.004,68.938z M1241.729,98.341
		c1.57,0,2.85-1.049,2.85-2.334V72.075c0-1.286-1.279-2.332-2.85-2.332h-137.725c-1.571,0-2.85,1.046-2.85,2.332v23.932
		c0,1.285,1.278,2.334,2.85,2.334H1241.729z"/>
</g>
<path fill="none" stroke="#2D3A3D" stroke-miterlimit="10" d="M1070.602,19.945c0,1.104-0.903,2-2.02,2H6.254
	c-1.115,0-2.02-0.896-2.02-2V3.517c0-1.104,0.905-2,2.02-2h1062.328c1.116,0,2.02,0.896,2.02,2V19.945z"/>
</svg>
