<?xml version="1.0" encoding="utf-8"?>
<!-- Generator: Adobe Illustrator 16.0.0, SVG Export Plug-In . SVG Version: 6.00 Build 0)  -->
<!DOCTYPE svg PUBLIC "-//W3C//DTD SVG 1.1//EN" "http://www.w3.org/Graphics/SVG/1.1/DTD/svg11.dtd">
<svg version="1.1" id="图层_1" xmlns="http://www.w3.org/2000/svg" xmlns:xlink="http://www.w3.org/1999/xlink" x="0px" y="0px"
	 width="52.36px" height="784.33px" viewBox="0 0 52.36 784.33" enable-background="new 0 0 52.36 784.33" xml:space="preserve">
<g>
	<g>
		<g>
			<path fill="#545454" d="M49.408,777.64c0,3.693-2.352,6.688-5.254,6.688H5.251c-2.9,0-5.252-2.994-5.252-6.688V6.687
				C-0.001,2.994,2.351,0,5.251,0h38.903c2.902,0,5.254,2.994,5.254,6.687V777.64z"/>
			<path fill="#C4C3BF" d="M51.326,777.64c0,3.693-2.352,6.688-5.254,6.688H7.169c-2.901,0-5.253-2.994-5.253-6.688V6.687
				C1.916,2.994,4.268,0,7.169,0h38.903c2.902,0,5.254,2.994,5.254,6.687V777.64z"/>
			<g>
				<g>
					<path fill="#AFAFAF" d="M34.311,12.077c0,4.038-3.443,7.312-7.689,7.312c-4.246,0-7.689-3.274-7.689-7.312
						c0-4.039,3.443-7.313,7.689-7.313C30.867,4.764,34.311,8.038,34.311,12.077"/>
					<ellipse fill="none" stroke="#949394" stroke-miterlimit="10" cx="26.621" cy="12.077" rx="7.689" ry="7.312"/>
					<path fill="#AFAFAF" d="M32.27,12.077c0,2.966-2.529,5.373-5.648,5.373c-3.121,0-5.65-2.406-5.65-5.373
						c0-2.967,2.529-5.374,5.65-5.374C29.74,6.704,32.27,9.11,32.27,12.077"/>
					<ellipse fill="none" stroke="#949394" stroke-miterlimit="10" cx="26.62" cy="12.077" rx="5.649" ry="5.373"/>
					<g>
						<g>
							<defs>
								<rect id="SVGID_1_" x="21.293" y="7.013" width="10.654" height="10.128"/>
							</defs>
							<clipPath id="SVGID_2_">
								<use xlink:href="#SVGID_1_"  overflow="visible"/>
							</clipPath>
							<path clip-path="url(#SVGID_2_)" fill="#BFBFBF" d="M31.945,12.077c0,2.796-2.383,5.064-5.324,5.064
								c-2.941,0-5.326-2.268-5.326-5.064c0-2.797,2.385-5.064,5.326-5.064C29.563,7.013,31.945,9.28,31.945,12.077"/>
							<path clip-path="url(#SVGID_2_)" fill="#C1C1C1" d="M31.82,12.077c0,2.73-2.328,4.944-5.199,4.944
								c-2.871,0-5.199-2.214-5.199-4.944c0-2.731,2.328-4.945,5.199-4.945C29.492,7.132,31.82,9.346,31.82,12.077"/>
							<path clip-path="url(#SVGID_2_)" fill="#C3C4C4" d="M31.695,12.077c0,2.665-2.271,4.826-5.074,4.826
								c-2.803,0-5.074-2.161-5.074-4.826c0-2.665,2.271-4.826,5.074-4.826C29.424,7.251,31.695,9.412,31.695,12.077"/>
							<path clip-path="url(#SVGID_2_)" fill="#C5C6C6" d="M31.57,12.077c0,2.599-2.217,4.707-4.949,4.707
								c-2.734,0-4.949-2.108-4.949-4.707c0-2.6,2.215-4.707,4.949-4.707C29.354,7.37,31.57,9.477,31.57,12.077"/>
							<path clip-path="url(#SVGID_2_)" fill="#C7C9C9" d="M31.445,12.077c0,2.533-2.16,4.587-4.824,4.587
								c-2.664,0-4.824-2.055-4.824-4.587c0-2.534,2.16-4.588,4.824-4.588C29.285,7.489,31.445,9.543,31.445,12.077"/>
							<path clip-path="url(#SVGID_2_)" fill="#CACBCB" d="M31.318,12.077c0,2.467-2.104,4.468-4.697,4.468
								c-2.596,0-4.699-2.001-4.699-4.468c0-2.468,2.104-4.469,4.699-4.469C29.215,7.608,31.318,9.609,31.318,12.077"/>
							<path clip-path="url(#SVGID_2_)" fill="#CCCECE" d="M31.193,12.077c0,2.401-2.047,4.349-4.572,4.349
								c-2.527,0-4.574-1.948-4.574-4.349c0-2.402,2.047-4.349,4.574-4.349C29.146,7.728,31.193,9.675,31.193,12.077"/>
							<path clip-path="url(#SVGID_2_)" fill="#CED0D0" d="M31.068,12.077c0,2.335-1.99,4.23-4.447,4.23
								c-2.457,0-4.449-1.895-4.449-4.23c0-2.336,1.992-4.231,4.449-4.231C29.078,7.846,31.068,9.741,31.068,12.077"/>
							<path clip-path="url(#SVGID_2_)" fill="#D1D3D3" d="M30.943,12.077c0,2.27-1.936,4.111-4.322,4.111
								c-2.387,0-4.323-1.841-4.323-4.111c0-2.271,1.937-4.112,4.323-4.112C29.008,7.965,30.943,9.806,30.943,12.077"/>
							<path clip-path="url(#SVGID_2_)" fill="#D3D5D5" d="M30.818,12.077c0,2.205-1.879,3.992-4.197,3.992
								c-2.319,0-4.197-1.787-4.197-3.992c0-2.205,1.878-3.992,4.197-3.992C28.939,8.085,30.818,9.872,30.818,12.077"/>
						</g>
					</g>
					<polygon fill="#5F5F5E" points="25.926,15.122 25.926,12.739 23.419,12.739 23.419,11.415 25.926,11.415 25.926,9.032 
						27.316,9.032 27.316,11.415 29.822,11.415 29.822,12.739 27.316,12.739 27.316,15.122 					"/>
					<path fill="#231815" d="M27.197,9.146V11.3v0.23h0.238h2.266v1.094h-2.266h-0.238v0.229v2.154h-1.152v-2.154v-0.229h-0.24
						H23.54V11.53h2.266h0.24V11.3V9.146H27.197z M27.436,8.917h-1.63V11.3h-2.506v1.553h2.506v2.383h1.63v-2.383h2.506V11.3h-2.506
						V8.917z"/>
				</g>
				<g>
					<path fill="#AFAFAF" d="M34.311,767.741c0,4.037-3.443,7.312-7.689,7.312c-4.246,0-7.689-3.274-7.689-7.312
						c0-4.039,3.443-7.313,7.689-7.313C30.867,760.428,34.311,763.702,34.311,767.741"/>
					<ellipse fill="none" stroke="#949394" stroke-miterlimit="10" cx="26.621" cy="767.741" rx="7.689" ry="7.312"/>
					<path fill="#AFAFAF" d="M32.27,767.741c0,2.966-2.529,5.372-5.648,5.372c-3.121,0-5.65-2.406-5.65-5.372
						c0-2.968,2.529-5.373,5.65-5.373C29.74,762.368,32.27,764.773,32.27,767.741"/>
					<ellipse fill="none" stroke="#949394" stroke-miterlimit="10" cx="26.62" cy="767.741" rx="5.649" ry="5.372"/>
					<g>
						<g>
							<defs>
								<rect id="SVGID_3_" x="21.293" y="762.677" width="10.654" height="10.127"/>
							</defs>
							<clipPath id="SVGID_4_">
								<use xlink:href="#SVGID_3_"  overflow="visible"/>
							</clipPath>
							<path clip-path="url(#SVGID_4_)" fill="#BFBFBF" d="M31.945,767.741c0,2.795-2.383,5.063-5.324,5.063
								c-2.941,0-5.326-2.268-5.326-5.063c0-2.797,2.385-5.064,5.326-5.064C29.563,762.677,31.945,764.944,31.945,767.741"/>
							<path clip-path="url(#SVGID_4_)" fill="#C1C1C1" d="M31.82,767.741c0,2.73-2.328,4.943-5.199,4.943
								c-2.871,0-5.199-2.213-5.199-4.943c0-2.731,2.328-4.945,5.199-4.945C29.492,762.796,31.82,765.01,31.82,767.741"/>
							<path clip-path="url(#SVGID_4_)" fill="#C3C4C4" d="M31.695,767.741c0,2.664-2.271,4.825-5.074,4.825
								c-2.803,0-5.074-2.161-5.074-4.825c0-2.666,2.271-4.826,5.074-4.826C29.424,762.915,31.695,765.075,31.695,767.741"/>
							<path clip-path="url(#SVGID_4_)" fill="#C5C6C6" d="M31.57,767.741c0,2.598-2.217,4.705-4.949,4.705
								c-2.734,0-4.949-2.107-4.949-4.705c0-2.601,2.215-4.707,4.949-4.707C29.354,763.034,31.57,765.141,31.57,767.741"/>
							<path clip-path="url(#SVGID_4_)" fill="#C7C9C9" d="M31.445,767.741c0,2.532-2.16,4.586-4.824,4.586
								c-2.664,0-4.824-2.054-4.824-4.586c0-2.534,2.16-4.588,4.824-4.588C29.285,763.153,31.445,765.207,31.445,767.741"/>
							<path clip-path="url(#SVGID_4_)" fill="#CACBCB" d="M31.318,767.741c0,2.467-2.104,4.468-4.697,4.468
								c-2.596,0-4.699-2.001-4.699-4.468c0-2.469,2.104-4.47,4.699-4.47C29.215,763.271,31.318,765.272,31.318,767.741"/>
							<path clip-path="url(#SVGID_4_)" fill="#CCCECE" d="M31.193,767.741c0,2.4-2.047,4.348-4.572,4.348
								c-2.527,0-4.574-1.947-4.574-4.348c0-2.402,2.047-4.35,4.574-4.35C29.146,763.392,31.193,765.339,31.193,767.741"/>
							<path clip-path="url(#SVGID_4_)" fill="#CED0D0" d="M31.068,767.741c0,2.334-1.99,4.23-4.447,4.23
								c-2.457,0-4.449-1.896-4.449-4.23c0-2.336,1.992-4.23,4.449-4.23C29.078,763.511,31.068,765.405,31.068,767.741"/>
							<path clip-path="url(#SVGID_4_)" fill="#D1D3D3" d="M30.943,767.741c0,2.27-1.936,4.111-4.322,4.111
								c-2.387,0-4.323-1.842-4.323-4.111c0-2.271,1.937-4.112,4.323-4.112C29.008,763.629,30.943,765.47,30.943,767.741"/>
							<path clip-path="url(#SVGID_4_)" fill="#D3D5D5" d="M30.818,767.741c0,2.203-1.879,3.99-4.197,3.99
								c-2.319,0-4.197-1.787-4.197-3.99c0-2.205,1.878-3.992,4.197-3.992C28.939,763.749,30.818,765.536,30.818,767.741"/>
						</g>
					</g>
					<polygon fill="#5F5F5E" points="25.926,770.785 25.926,768.401 23.419,768.401 23.419,767.079 25.926,767.079 25.926,764.694 
						27.316,764.694 27.316,767.079 29.822,767.079 29.822,768.401 27.316,768.401 27.316,770.785 					"/>
					<path fill="#231815" d="M27.197,764.81v2.154v0.229h0.238h2.266v1.094h-2.266h-0.238v0.229v2.154h-1.152v-2.154v-0.229h-0.24
						H23.54v-1.094h2.266h0.24v-0.229v-2.154H27.197z M27.436,764.581h-1.63v2.383h-2.506v1.553h2.506v2.383h1.63v-2.383h2.506
						v-1.553h-2.506V764.581z"/>
				</g>
			</g>
		</g>
		<rect x="51.326" y="10.877" fill="#545454" width="1.035" height="773.45"/>
	</g>
	<g>
		<path fill="#070001" d="M44.105,693.497c2.809,0,5.086,2.277,5.086,5.086s-2.277,5.086-5.086,5.086
			c-2.811,0-5.088-2.277-5.088-5.086S41.295,693.497,44.105,693.497"/>
		<g>
			<defs>
				<path id="SVGID_5_" d="M40.018,698.583c0,2.258,1.83,4.088,4.088,4.088s4.088-1.83,4.088-4.088s-1.83-4.088-4.088-4.088
					S40.018,696.325,40.018,698.583"/>
			</defs>
			<clipPath id="SVGID_6_">
				<use xlink:href="#SVGID_5_"  overflow="visible"/>
			</clipPath>
			
				<radialGradient id="SVGID_7_" cx="-801.5903" cy="735.9316" r="0.7177" gradientTransform="matrix(8.3884 0 0 8.3884 6767.168 -5476.1641)" gradientUnits="userSpaceOnUse">
				<stop  offset="0" style="stop-color:#F5D04D"/>
				<stop  offset="1" style="stop-color:#22AC38"/>
			</radialGradient>
			<rect x="40.018" y="694.495" clip-path="url(#SVGID_6_)" fill="url(#SVGID_7_)" width="8.176" height="8.176"/>
		</g>
		<g opacity="0.5" enable-background="new    ">
			<g>
				<defs>
					<rect id="SVGID_8_" x="42.197" y="696.222" width="1.363" height="1.363"/>
				</defs>
				<clipPath id="SVGID_9_">
					<use xlink:href="#SVGID_8_"  overflow="visible"/>
				</clipPath>
				<rect x="42.197" y="696.222" clip-path="url(#SVGID_9_)" fill="#FFFFFF" width="1.363" height="1.361"/>
			</g>
		</g>
		<g opacity="0.5" enable-background="new    ">
			<g>
				<defs>
					<rect id="SVGID_10_" x="42.197" y="696.222" width="0.682" height="1.363"/>
				</defs>
				<clipPath id="SVGID_11_">
					<use xlink:href="#SVGID_10_"  overflow="visible"/>
				</clipPath>
				<rect x="42.197" y="696.222" clip-path="url(#SVGID_11_)" fill="#FFFFFF" width="0.682" height="1.361"/>
			</g>
		</g>
	</g>
</g>
</svg>
