<?xml version="1.0" encoding="utf-8"?>
<!-- Generator: Adobe Illustrator 16.0.0, SVG Export Plug-In . SVG Version: 6.00 Build 0)  -->
<!DOCTYPE svg PUBLIC "-//W3C//DTD SVG 1.1//EN" "http://www.w3.org/Graphics/SVG/1.1/DTD/svg11.dtd">
<svg version="1.1" id="图层_1" xmlns="http://www.w3.org/2000/svg" xmlns:xlink="http://www.w3.org/1999/xlink" x="0px" y="0px"
	 width="1276.756px" height="253px" viewBox="0 0 1276.756 253" enable-background="new 0 0 1276.756 253" xml:space="preserve">
<g>
	<rect x="0.5" y="0.5" fill="#3D3D3F" width="1275.589" height="252"/>
	<path fill="#3D3D3F" d="M1276.589,253H0V0h1276.589V253z M1,252h1274.589V1H1V252z"/>
</g>
<g>
	<path fill="#F9F9F8" d="M203.105,23.458l-34.519,38.773l39.719,0.058v18.618h20.096V23.458H203.105z M210.356,52.777h-9.93
		l9.93-12.926V52.777z"/>
</g>
<g>
	<polygon fill="#F9F9F8" points="166.618,64.674 159.918,71.925 198.495,71.925 204.209,64.674 	"/>
</g>
<g>
	<polygon fill="#F9F9F8" points="159.133,73.349 152.435,80.599 191.009,80.599 196.724,73.349 	"/>
</g>
<g>
	<path fill="#F2F2F2" d="M241.344,44.34h9.955c0.756-1.219,1.468-2.471,2.136-3.756l5.29,1.052l-1.938,2.704h17.051v3.154h-5.979
		c-1.029,2.303-2.48,4.189-4.353,5.658l9.446,2.729l-2.366,3.354l-11.187-3.73c-3.724,1.569-8.975,2.779-15.754,3.631
		c-0.897-1.386-1.675-2.504-2.332-3.355c5.18-0.483,9.352-1.172,12.517-2.065c-2.891-0.9-5.487-1.681-7.787-2.341
		c1.106-1.243,2.146-2.536,3.121-3.88h-7.819V44.34z M254.321,35.177l5.421-0.826l1.249,2.679h11.663v5.458h-4.764v-2.354h-20.501
		v2.253h-4.764V37.03h12.616C254.935,36.378,254.628,35.761,254.321,35.177z M252.416,49.998l6.275,1.778
		c1.686-1.01,2.984-2.437,3.893-4.281h-8.164C253.719,48.404,253.051,49.239,252.416,49.998z"/>
	<path fill="#F2F2F2" d="M307.779,54.754c-0.569,1.085-1.063,2.312-1.479,3.681c-2.157,0.05-5.394,0.046-9.708-0.013l-5.306-0.088
		c-4.775,0-8.093-1.001-9.955-3.004c-0.833,0.601-2.278,1.836-4.337,3.705l-1.972-3.955c0.767-0.609,1.692-1.272,2.776-1.99
		s1.826-1.152,2.226-1.303c0.399-0.149,0.796-0.225,1.191-0.225c0.241,0,0.477,0.029,0.706,0.087
		c6.538-3.063,11.904-6.166,16.099-9.313h-21.158v-3.38h12.518c-0.613-0.859-1.457-1.886-2.529-3.079l4.369-1.577
		c1.489,1.619,2.573,2.896,3.253,3.83l-2.267,0.826h12.583v3.305c-5.454,4.456-11.724,8.37-18.81,11.741
		c1.512,0.585,3.335,0.877,5.471,0.877C298.733,54.88,304.176,54.838,307.779,54.754z"/>
	<path fill="#F2F2F2" d="M311.496,41.06c1.664,0.919,3.395,1.97,5.191,3.155l-2.957,2.703c-1.599-1.185-3.242-2.345-4.928-3.479
		L311.496,41.06z M312.481,48.22c1.643,0.568,2.99,0.969,4.041,1.202l-2.957,9.438c-1.445-0.418-2.891-0.76-4.336-1.026
		C310.346,55.281,311.43,52.076,312.481,48.22z M312.153,34.601c2.475,1.353,4.271,2.379,5.388,3.079l-3.056,2.529
		c-1.555-1.152-3.241-2.295-5.06-3.43L312.153,34.601z M325.623,51.525l3.22,1.502c-0.723,0.894-1.55,1.828-2.48,2.805
		c0.569,0.066,1.309,0.108,2.218,0.125c0.964-0.101,1.457-0.442,1.479-1.026v-3.956h-5.815v-10.59h3.532
		c0.394-0.692,0.739-1.41,1.035-2.153h-6.407v7.536c0,6.275-1.215,10.782-3.646,13.52c-1.402-1.068-2.64-1.87-3.713-2.404
		c2.125-2.403,3.176-6.259,3.154-11.565v-9.89h23.031v2.804h-8.099c-0.263,0.493-0.701,1.211-1.314,2.153h8v10.59h-5.553v4.732
		c0,0.951-0.26,1.693-0.78,2.228c-0.52,0.534-1.314,0.859-2.382,0.977s-2.467,0.158-4.197,0.125
		c-0.186-0.909-0.454-1.886-0.805-2.929c-0.635,0.65-1.309,1.318-2.021,2.003l-3.056-1.878
		C322.623,54.947,324.155,53.377,325.623,51.525z M335.742,42.938h-7.49v1.577h7.49V42.938z M335.742,48.42v-1.602h-7.49v1.602
		H335.742z M337.648,51.425c1.38,1.368,2.749,2.929,4.107,4.682l-3.384,1.527c-1.052-1.536-2.322-3.146-3.812-4.832L337.648,51.425z
		"/>
</g>
<g>
	<path fill="#F2F2F2" d="M476.719,90.138l5.827,1.484c-1.104,3.393-2.237,6.566-3.399,9.521v30.685h-5.605v-18.725
		c-1.045,1.838-2.104,3.527-3.179,5.068c-0.323-2.262-0.794-4.92-1.412-7.974C471.657,105.335,474.247,98.649,476.719,90.138z
		 M512.826,99.723h-30.854v-4.835h11.83c-0.53-1.23-1.134-2.53-1.81-3.902l6.577-1.145c0.721,1.301,1.53,2.982,2.428,5.047h11.83
		V99.723z M483.693,131.828v-16.286h26.573v16.286h-6.047v-2.205H489.74v2.205H483.693z M510.266,106.593h-26.485v-4.538h26.485
		V106.593z M510.266,113.294h-26.485v-4.538h26.485V113.294z M504.219,120.546H489.74v4.071h14.479V120.546z"/>
	<path fill="#F2F2F2" d="M516.587,108.036h43.832v5.174h-30.392l-0.419,2.672h25.558l-0.883,9.203
		c-0.221,2.163-1.049,3.75-2.482,4.761c-1.436,1.011-3.289,1.53-5.563,1.559s-6.478,0.042-12.613,0.042
		c-0.412-1.866-0.956-3.873-1.633-6.022c4.281,0.326,7.614,0.488,9.998,0.488c1.897,0,3.236-0.096,4.017-0.286
		c0.78-0.191,1.324-0.523,1.634-0.997c0.309-0.474,0.536-1.692,0.684-3.658h-25.91l1.302-7.761h-7.129V108.036z M554.989,91.495
		v14.123h-32.796V91.495H554.989z M548.633,100.571v-4.029h-20.084v4.029H548.633z"/>
	<path fill="#F2F2F2" d="M564.886,109.265h17.833v-3.436h2.053c-1.178-2.05-2.568-4.241-4.172-6.573l3.686-1.866l-16.883,0.509
		c-0.412-1.753-0.898-3.604-1.457-5.556c15.861-0.198,28.5-0.622,37.917-1.272l1.942,5.429l-20.084,0.849
		c1.81,2.432,3.251,4.481,4.325,6.149l-4.612,2.332h3.509v3.436h18.054v5.386h-14.324c4.253,4.171,9.454,7.408,15.604,9.713
		c-1.295,1.386-2.619,3.067-3.973,5.047c-6.548-3.309-11.668-7.267-15.361-11.875v14.08h-6.224v-14.038
		c-3.781,4.623-8.799,8.652-15.052,12.087c-1.118-1.668-2.429-3.364-3.929-5.089c5.855-2.389,10.851-5.697,14.985-9.925h-13.838
		V109.265z M571.463,98.408c2.06,2.093,4.075,4.298,6.047,6.616l-4.723,3.309c-1.766-2.318-3.664-4.609-5.694-6.871L571.463,98.408z
		 M599.271,97.348l4.812,3.053c-2.148,2.545-4.532,5.118-7.151,7.719l-4.237-3.393C595.107,102.295,597.3,99.836,599.271,97.348z"/>
	<path fill="#F2F2F2" d="M636.314,89.756c0.779,1.329,1.53,2.742,2.251,4.241h14.346v3.647h-14.743v2.247h13.154v3.394h-13.154
		v2.247h13.154v3.394h-13.154v2.247h15.361v3.732h-31.34v1.527h-5.826v-12.278c-0.795,0.735-1.619,1.449-2.473,2.142
		c-0.765-2.29-1.589-4.354-2.472-6.192c3.561-2.657,6.474-6.022,8.74-10.094l6.135,1.272c-0.5,0.934-1.022,1.838-1.566,2.715h7.57
		c-0.545-1.174-1.104-2.262-1.678-3.266L636.314,89.756z M630.443,115.839h5.827v1.95h18.495v4.071h-12.934
		c3.604,1.951,8.122,3.379,13.551,4.284c-1.266,1.922-2.295,3.604-3.09,5.047c-7.004-1.853-12.345-4.553-16.022-8.101v8.694h-5.827
		v-8.334c-3.884,3.279-9.211,6.001-15.979,8.164c-0.736-1.471-1.751-3.11-3.046-4.92c5.636-1.343,10.152-2.954,13.552-4.835h-12.58
		v-4.071h18.053V115.839z M622.189,97.729v2.163h10.152v-2.247h-10.108L622.189,97.729z M622.189,105.533h10.152v-2.247h-10.152
		V105.533z M622.189,111.173h10.152v-2.247h-10.152V111.173z"/>
	<path fill="#F2F2F2" d="M666.339,89.841h5.871c-0.412,1.089-0.883,2.148-1.413,3.181h9.844v4.495h-5.12
		c0.779,0.976,1.618,2.05,2.516,3.224l-4.458,2.29c-1.089-1.838-2.236-3.491-3.443-4.962l1.104-0.552h-3.2
		c-1.485,2.036-3.229,3.931-5.23,5.684c-1.118-1.244-2.398-2.403-3.84-3.478C662.292,96.669,664.75,93.375,666.339,89.841z
		 M658.968,120.292c2.942-2.828,5.149-5.867,6.621-9.119h-5.341v-5.344h6.003v-4.495h5.297v4.495h5.164v5.344h-5.164v2.058
		c2.06,1.484,4.134,3.046,6.224,4.687l-3.09,4.368c-1.03-1.188-2.074-2.312-3.134-3.372v12.957h-5.297v-13.784
		c-1.251,2.94-2.899,5.853-4.944,8.737C660.748,124.731,659.968,122.554,658.968,120.292z M677.992,131.871v-28.755h4.768
		c-1.295-1.527-2.398-2.771-3.311-3.732c2.236-2.262,4.325-5.442,6.268-9.542h6.268c-0.471,1.074-0.985,2.135-1.545,3.181h11.168
		v4.495h-7.681l2.781,3.054l-3.841,2.545h7.328v28.67h-5.65v-1.696h-10.902v1.781H677.992z M688.498,99.044l2.449-1.527h-3.244
		c-1.324,1.923-2.817,3.789-4.48,5.599h8.541C690.764,101.688,689.675,100.331,688.498,99.044z M694.545,107.993h-10.902v2.842
		h10.902V107.993z M683.643,117.917h10.902v-2.842h-10.902V117.917z M683.643,125.211h10.902v-3.054h-10.902V125.211z"/>
</g>
<g>
	<path fill="#F2F2F2" stroke="#F2F2F2" stroke-miterlimit="10" d="M721.405,129.25c-3.085,0-5.534-1.027-7.353-3.081
		c-1.817-2.054-2.726-5.281-2.726-9.682c0-3.716,0.963-6.796,2.892-9.242c1.926-2.443,4.543-3.667,7.848-3.667
		c0.77,0,1.541,0.099,2.313,0.294c0.769,0.293,1.43,0.439,1.982,0.439c0.438,0,0.798-0.048,1.074-0.146
		c0.273-0.097,0.521-0.293,0.743-0.587l1.487,6.455l-0.991,0.293c-0.661-1.856-1.544-3.275-2.645-4.254
		c-1.102-0.977-2.535-1.467-4.295-1.467c-2.313,0-4.105,1.125-5.37,3.374c-1.268,2.25-1.9,5.037-1.9,8.361
		c0,3.619,0.55,6.454,1.652,8.508c1.101,2.054,2.917,3.081,5.452,3.081c1.762,0,3.276-0.562,4.544-1.688
		c1.265-1.123,2.12-2.615,2.562-4.474l0.991,0.439c-0.553,2.054-1.569,3.741-3.057,5.062S723.389,129.25,721.405,129.25z"/>
	<path fill="#F2F2F2" stroke="#F2F2F2" stroke-miterlimit="10" d="M743.182,116.928c-2.974-1.174-5.014-2.201-6.113-3.081
		c-1.102-0.88-1.652-2.248-1.652-4.107c0-1.467,0.688-2.86,2.065-4.181c1.376-1.32,3.331-1.98,5.866-1.98
		c1.1,0,2.147,0.146,3.139,0.44c0.991,0.392,1.707,0.587,2.148,0.587c0.33,0,0.632-0.073,0.908-0.221
		c0.273-0.146,0.521-0.415,0.744-0.807l0.66,6.015l-0.826,0.293c-0.991-2.054-2.011-3.447-3.057-4.181
		c-1.048-0.733-2.396-1.1-4.048-1.1c-2.094,0-3.526,0.513-4.296,1.54c-0.771,1.026-1.156,2.127-1.156,3.301
		c0,1.077,0.356,1.935,1.074,2.571c0.715,0.638,2.669,1.591,5.865,2.863c2.644,0.951,4.543,2.04,5.7,3.264
		c1.156,1.227,1.734,2.673,1.734,4.339c0,1.765-0.688,3.335-2.065,4.708c-1.378,1.373-3.387,2.059-6.03,2.059
		c-1.103,0-2.094-0.195-2.974-0.587c-0.992-0.294-1.764-0.44-2.313-0.44c-0.33,0-0.661,0.099-0.991,0.294
		c-0.33,0.196-0.718,0.439-1.156,0.733l-1.322-7.188l0.991-0.293c0.77,2.445,1.844,4.132,3.222,5.061
		c1.377,0.931,2.946,1.394,4.709,1.394c1.872,0,3.276-0.488,4.213-1.467c0.936-0.977,1.405-2.396,1.405-4.254
		c0-0.977-0.524-1.931-1.569-2.858C747.008,118.715,745.384,117.81,743.182,116.928z"/>
	<path fill="#F2F2F2" stroke="#F2F2F2" stroke-miterlimit="10" d="M767.933,129.25c-3.085,0-5.535-1.027-7.353-3.081
		s-2.727-5.281-2.727-9.682c0-3.716,0.963-6.796,2.892-9.242c1.927-2.443,4.544-3.667,7.849-3.667c0.77,0,1.541,0.099,2.313,0.294
		c0.77,0.293,1.431,0.439,1.983,0.439c0.438,0,0.798-0.048,1.073-0.146c0.274-0.097,0.521-0.293,0.744-0.587l1.486,6.455
		l-0.991,0.293c-0.661-1.856-1.544-3.275-2.644-4.254c-1.102-0.977-2.535-1.467-4.295-1.467c-2.313,0-4.105,1.125-5.37,3.374
		c-1.268,2.25-1.9,5.037-1.9,8.361c0,3.619,0.55,6.454,1.652,8.508c1.1,2.054,2.917,3.081,5.452,3.081
		c1.761,0,3.276-0.562,4.544-1.688c1.265-1.123,2.119-2.615,2.561-4.474l0.991,0.439c-0.552,2.054-1.569,3.741-3.057,5.062
		C771.65,128.59,769.915,129.25,767.933,129.25z"/>
	<path fill="#F2F2F2" stroke="#F2F2F2" stroke-miterlimit="10" d="M791.857,103.432v22.297c0,0.784,0.273,1.371,0.826,1.761
		c0.549,0.392,1.321,0.587,2.313,0.587h1.652v0.88h-12.062v-0.88h1.487c1.1,0,1.9-0.195,2.396-0.587
		c0.496-0.39,0.743-0.977,0.743-1.761V107.98c0-0.39-0.139-0.709-0.412-0.954c-0.276-0.243-0.689-0.366-1.239-0.366h-2.975v-0.881
		h1.487c1.322,0,2.396-0.194,3.222-0.587c0.826-0.39,1.459-0.976,1.9-1.76H791.857z"/>
	<path fill="#F2F2F2" stroke="#F2F2F2" stroke-miterlimit="10" d="M813.634,129.25c-2.425,0-4.461-1.124-6.113-3.374
		c-1.652-2.249-2.479-5.428-2.479-9.535c0-3.814,0.798-6.895,2.396-9.242c1.596-2.347,3.661-3.521,6.196-3.521
		c2.421,0,4.433,1.126,6.03,3.374c1.596,2.251,2.396,5.38,2.396,9.389c0,4.011-0.801,7.165-2.396,9.462
		C818.066,128.102,816.055,129.25,813.634,129.25z M813.634,104.752c-1.544,0-2.837,1.052-3.883,3.153
		c-1.048,2.104-1.569,4.915-1.569,8.436c0,3.718,0.521,6.601,1.569,8.654c1.046,2.054,2.339,3.081,3.883,3.081
		c1.652,0,2.945-1.027,3.883-3.081c0.935-2.054,1.404-4.937,1.404-8.654c0-3.521-0.441-6.331-1.321-8.436
		C816.716,105.804,815.395,104.752,813.634,104.752z"/>
	<path fill="#F2F2F2" stroke="#F2F2F2" stroke-miterlimit="10" d="M836.896,129.25c-2.424,0-4.461-1.124-6.113-3.374
		c-1.651-2.249-2.478-5.428-2.478-9.535c0-3.814,0.798-6.895,2.396-9.242c1.596-2.347,3.66-3.521,6.195-3.521
		c2.422,0,4.434,1.126,6.031,3.374c1.596,2.251,2.396,5.38,2.396,9.389c0,4.011-0.8,7.165-2.396,9.462
		C841.33,128.102,839.318,129.25,836.896,129.25z M836.896,104.752c-1.543,0-2.837,1.052-3.882,3.153
		c-1.049,2.104-1.57,4.915-1.57,8.436c0,3.718,0.521,6.601,1.57,8.654c1.045,2.054,2.339,3.081,3.882,3.081
		c1.652,0,2.946-1.027,3.883-3.081c0.936-2.054,1.405-4.937,1.405-8.654c0-3.521-0.442-6.331-1.322-8.436
		C839.979,105.804,838.658,104.752,836.896,104.752z"/>
</g>
<g>
	<path fill="#F2F2F2" d="M253.273,74.054h-2.736l-0.881-2.191h-4.279l-0.866,2.191h-2.721l4.309-9.561h2.949L253.273,74.054z
		 M249.063,70.29l-1.337-3.314c-0.086-0.21-0.147-0.487-0.183-0.833h-0.068c-0.03,0.279-0.099,0.549-0.205,0.809l-1.345,3.339
		H249.063z"/>
	<path fill="#F2F2F2" d="M265.306,74.054h-2.568l-4.985-6.185c-0.259-0.32-0.446-0.58-0.563-0.777h-0.038
		c0.045,0.329,0.068,0.837,0.068,1.524v5.438h-2.379v-9.561h2.736l4.803,6.012c0.319,0.399,0.515,0.652,0.585,0.759h0.038
		c-0.05-0.23-0.076-0.67-0.076-1.32v-5.45h2.378V74.054z"/>
	<path fill="#F2F2F2" d="M276.495,65.598l-6.02,6.79h6.012v1.666h-9.409v-1.136l6.126-6.758h-5.67v-1.667h8.961V65.598z"/>
	<path fill="#F2F2F2" d="M288.353,74.054h-2.508V70.11h-5.016v3.944h-2.508v-9.561h2.508v3.857h5.016v-3.857h2.508V74.054z"/>
	<path fill="#F2F2F2" d="M293.682,64.494v9.561h-2.508v-9.561H293.682z"/>
	<path fill="#F2F2F2" d="M305.229,64.494l-3.846,6.147v3.413h-2.508v-3.376l-3.739-6.185h2.865l1.976,3.654
		c0.041,0.073,0.134,0.325,0.281,0.753h0.03c0.061-0.288,0.145-0.533,0.251-0.734l2.029-3.673H305.229z"/>
	<path fill="#F2F2F2" d="M316.151,69.944c0,2.852-1.632,4.277-4.895,4.277c-3.151,0-4.727-1.389-4.727-4.166v-5.562h2.515v5.573
		c0,1.593,0.773,2.389,2.318,2.389c1.52,0,2.28-0.768,2.28-2.302v-5.66h2.508V69.944z"/>
	<path fill="#F2F2F2" d="M328.663,74.054h-2.736l-0.882-2.191h-4.278l-0.867,2.191h-2.721l4.309-9.561h2.949L328.663,74.054z
		 M324.452,70.29l-1.337-3.314c-0.086-0.21-0.147-0.487-0.182-0.833h-0.069c-0.03,0.279-0.099,0.549-0.205,0.809l-1.345,3.339
		H324.452z"/>
	<path fill="#F2F2F2" d="M340.695,74.054h-2.569l-4.986-6.185c-0.258-0.32-0.446-0.58-0.563-0.777h-0.038
		c0.045,0.329,0.068,0.837,0.068,1.524v5.438h-2.379v-9.561h2.736l4.804,6.012c0.319,0.399,0.514,0.652,0.585,0.759h0.038
		c-0.051-0.23-0.076-0.67-0.076-1.32v-5.45h2.379V74.054z"/>
</g>
<g>
	<rect x="0.214" y="43.713" fill="#4B4C4D" width="65.022" height="210.078"/>
</g>
<g>
	<rect x="65.236" y="1.792" fill="#313233" width="2.235" height="252"/>
</g>
<g>
	<rect x="1209.414" y="1.895" fill="#313233" width="2.235" height="252"/>
</g>
<g>
	<ellipse fill="#4C4C4D" cx="31.168" cy="82.199" rx="12" ry="11.5"/>
	<path fill="#070607" d="M31.168,94.199c-6.893,0-12.5-5.383-12.5-12s5.607-12,12.5-12s12.5,5.383,12.5,12
		S38.061,94.199,31.168,94.199z M31.168,71.199c-6.341,0-11.5,4.935-11.5,11s5.159,11,11.5,11s11.5-4.935,11.5-11
		S37.509,71.199,31.168,71.199z"/>
</g>
<g>
	<circle fill="#565657" cx="31.169" cy="82.199" r="7.398"/>
</g>
<g>
	
		<rect x="27.46" y="81.023" transform="matrix(-0.7202 -0.6937 0.6937 -0.7202 -3.6608 163.1301)" fill="#040000" width="7.206" height="2.561"/>
</g>
<g>
	
		<rect x="29.801" y="78.643" transform="matrix(-0.7202 -0.6937 0.6937 -0.7202 -3.6615 163.1299)" fill="#040000" width="2.523" height="7.321"/>
</g>
<g>
	<rect x="1211.649" y="43.817" fill="#4B4C4D" width="65.106" height="210.078"/>
</g>
<g>
	<ellipse fill="#4C4C4D" cx="1238.799" cy="83.51" rx="12" ry="11.5"/>
	<path fill="#070607" d="M1238.799,95.51c-6.893,0-12.5-5.383-12.5-12s5.607-12,12.5-12s12.5,5.383,12.5,12
		S1245.691,95.51,1238.799,95.51z M1238.799,72.51c-6.342,0-11.5,4.935-11.5,11s5.158,11,11.5,11c6.341,0,11.5-4.935,11.5-11
		S1245.14,72.51,1238.799,72.51z"/>
</g>
<g>
	<circle fill="#565657" cx="1238.799" cy="83.51" r="7.398"/>
</g>
<g>
	
		<rect x="1235.09" y="82.334" transform="matrix(-0.7202 -0.6938 0.6938 -0.7202 2072.7866 1003.201)" fill="#040000" width="7.206" height="2.561"/>
</g>
<g>
	
		<rect x="1237.43" y="79.954" transform="matrix(-0.7201 -0.6938 0.6938 -0.7201 2072.7192 1003.2589)" fill="#040000" width="2.522" height="7.321"/>
</g>
</svg>
