<?xml version="1.0" encoding="utf-8"?>
<!-- Generator: Adobe Illustrator 16.0.0, SVG Export Plug-In . SVG Version: 6.00 Build 0)  -->
<!DOCTYPE svg PUBLIC "-//W3C//DTD SVG 1.1//EN" "http://www.w3.org/Graphics/SVG/1.1/DTD/svg11.dtd">
<svg version="1.1" id="图层_1" xmlns="http://www.w3.org/2000/svg" xmlns:xlink="http://www.w3.org/1999/xlink" x="0px" y="0px"
	 width="1275.59px" height="126.14px" viewBox="0 0 1275.59 126.14" enable-background="new 0 0 1275.59 126.14"
	 xml:space="preserve">
<rect y="-0.001" fill="#39393A" width="1275.59" height="126.142"/>
<g>
	<path fill="#AFAEAE" d="M63.906,65.945c0,4.197-3.407,7.602-7.61,7.602c-4.203,0-7.61-3.404-7.61-7.602
		c0-4.2,3.407-7.604,7.61-7.604C60.499,58.341,63.906,61.746,63.906,65.945"/>
	<ellipse fill="none" stroke="#929292" stroke-miterlimit="10" cx="56.296" cy="65.945" rx="7.61" ry="7.602"/>
	<path fill="#AFAEAE" d="M61.887,65.945c0,3.084-2.503,5.586-5.591,5.586c-3.087,0-5.591-2.502-5.591-5.586
		c0-3.086,2.504-5.587,5.591-5.587C59.384,60.358,61.887,62.859,61.887,65.945"/>
	<ellipse fill="none" stroke="#929292" stroke-miterlimit="10" cx="56.295" cy="65.945" rx="5.591" ry="5.586"/>
	<g>
		<g>
			<defs>
				<rect id="SVGID_1_" x="51.024" y="60.679" width="10.542" height="10.53"/>
			</defs>
			<clipPath id="SVGID_2_">
				<use xlink:href="#SVGID_1_"  overflow="visible"/>
			</clipPath>
			<path clip-path="url(#SVGID_2_)" fill="#BEBEBD" d="M61.565,65.945c0,2.906-2.359,5.264-5.27,5.264
				c-2.91,0-5.27-2.357-5.27-5.264c0-2.909,2.36-5.266,5.27-5.266C59.206,60.679,61.565,63.037,61.565,65.945"/>
			<path clip-path="url(#SVGID_2_)" fill="#C0C0C0" d="M61.441,65.945c0,2.838-2.304,5.139-5.146,5.139s-5.145-2.301-5.145-5.139
				c0-2.84,2.303-5.142,5.145-5.142S61.441,63.105,61.441,65.945"/>
			<path clip-path="url(#SVGID_2_)" fill="#C2C3C3" d="M61.317,65.945c0,2.77-2.249,5.016-5.022,5.016
				c-2.774,0-5.021-2.246-5.021-5.016c0-2.772,2.248-5.018,5.021-5.018C59.069,60.927,61.317,63.173,61.317,65.945"/>
			<path clip-path="url(#SVGID_2_)" fill="#C4C5C4" d="M61.193,65.945c0,2.701-2.192,4.893-4.898,4.893
				c-2.705,0-4.898-2.191-4.898-4.893c0-2.704,2.193-4.894,4.898-4.894C59.001,61.051,61.193,63.242,61.193,65.945"/>
			<path clip-path="url(#SVGID_2_)" fill="#C6C8C8" d="M61.069,65.945c0,2.633-2.138,4.768-4.774,4.768s-4.774-2.135-4.774-4.768
				c0-2.635,2.138-4.771,4.774-4.771S61.069,63.31,61.069,65.945"/>
			<path clip-path="url(#SVGID_2_)" fill="#C9CACB" d="M60.945,65.945c0,2.564-2.081,4.645-4.65,4.645
				c-2.568,0-4.65-2.08-4.65-4.645c0-2.567,2.082-4.647,4.65-4.647C58.864,61.298,60.945,63.378,60.945,65.945"/>
			<path clip-path="url(#SVGID_2_)" fill="#CBCDCD" d="M60.822,65.945c0,2.496-2.027,4.521-4.527,4.521
				c-2.5,0-4.525-2.025-4.525-4.521c0-2.499,2.025-4.524,4.525-4.524C58.795,61.421,60.822,63.447,60.822,65.945"/>
			<path clip-path="url(#SVGID_2_)" fill="#CCCFD0" d="M60.698,65.945c0,2.428-1.972,4.396-4.403,4.396
				c-2.43,0-4.402-1.969-4.402-4.396c0-2.43,1.972-4.399,4.402-4.399C58.727,61.546,60.698,63.515,60.698,65.945"/>
			<path clip-path="url(#SVGID_2_)" fill="#D0D2D2" d="M60.574,65.945c0,2.359-1.916,4.273-4.279,4.273s-4.278-1.914-4.278-4.273
				c0-2.362,1.915-4.276,4.278-4.276S60.574,63.583,60.574,65.945"/>
			<path clip-path="url(#SVGID_2_)" fill="#D2D4D5" d="M60.45,65.945c0,2.291-1.86,4.148-4.154,4.148
				c-2.294,0-4.154-1.857-4.154-4.148c0-2.293,1.86-4.151,4.154-4.151C58.589,61.794,60.45,63.652,60.45,65.945"/>
		</g>
	</g>
	<polygon fill="#605F5E" points="55.607,69.109 55.607,66.633 53.127,66.633 53.127,65.256 55.607,65.256 55.607,62.779 
		56.984,62.779 56.984,65.256 59.464,65.256 59.464,66.633 56.984,66.633 56.984,69.109 	"/>
	<path fill="#221714" d="M56.865,62.898v2.239v0.238h0.238h2.242v1.137h-2.242h-0.238v0.238v2.24h-1.139v-2.24v-0.238h-0.238h-2.242
		v-1.137h2.242h0.238v-0.238v-2.239H56.865z M57.103,62.66h-1.615v2.477h-2.48v1.613h2.48v2.479h1.615V66.75h2.479v-1.613h-2.479
		V62.66z"/>
</g>
<g>
	<path fill="#AFAEAE" d="M206.167,65.945c0,4.197-3.407,7.602-7.61,7.602s-7.61-3.404-7.61-7.602c0-4.2,3.408-7.604,7.61-7.604
		S206.167,61.746,206.167,65.945"/>
	<ellipse fill="none" stroke="#929292" stroke-miterlimit="10" cx="198.556" cy="65.945" rx="7.61" ry="7.602"/>
	<path fill="#AFAEAE" d="M204.148,65.945c0,3.084-2.503,5.586-5.591,5.586s-5.591-2.502-5.591-5.586
		c0-3.086,2.503-5.587,5.591-5.587S204.148,62.859,204.148,65.945"/>
	<ellipse fill="none" stroke="#929292" stroke-miterlimit="10" cx="198.557" cy="65.945" rx="5.591" ry="5.586"/>
	<g>
		<g>
			<defs>
				<rect id="SVGID_3_" x="193.285" y="60.679" width="10.542" height="10.53"/>
			</defs>
			<clipPath id="SVGID_4_">
				<use xlink:href="#SVGID_3_"  overflow="visible"/>
			</clipPath>
			<path clip-path="url(#SVGID_4_)" fill="#BEBEBD" d="M203.826,65.945c0,2.906-2.359,5.264-5.27,5.264
				c-2.911,0-5.27-2.357-5.27-5.264c0-2.909,2.359-5.266,5.27-5.266C201.467,60.679,203.826,63.037,203.826,65.945"/>
			<path clip-path="url(#SVGID_4_)" fill="#C0C0C0" d="M203.702,65.945c0,2.838-2.304,5.139-5.146,5.139
				c-2.842,0-5.146-2.301-5.146-5.139c0-2.84,2.304-5.142,5.146-5.142C201.398,60.803,203.702,63.105,203.702,65.945"/>
			<path clip-path="url(#SVGID_4_)" fill="#C2C3C3" d="M203.578,65.945c0,2.77-2.249,5.016-5.021,5.016
				c-2.774,0-5.022-2.246-5.022-5.016c0-2.772,2.248-5.018,5.022-5.018C201.33,60.927,203.578,63.173,203.578,65.945"/>
			<path clip-path="url(#SVGID_4_)" fill="#C4C5C4" d="M203.454,65.945c0,2.701-2.192,4.893-4.897,4.893s-4.898-2.191-4.898-4.893
				c0-2.704,2.193-4.894,4.898-4.894S203.454,63.242,203.454,65.945"/>
			<path clip-path="url(#SVGID_4_)" fill="#C6C8C8" d="M203.331,65.945c0,2.633-2.138,4.768-4.774,4.768
				c-2.637,0-4.774-2.135-4.774-4.768c0-2.635,2.137-4.771,4.774-4.771C201.192,61.174,203.331,63.31,203.331,65.945"/>
			<path clip-path="url(#SVGID_4_)" fill="#C9CACB" d="M203.207,65.945c0,2.564-2.082,4.645-4.65,4.645s-4.65-2.08-4.65-4.645
				c0-2.567,2.082-4.647,4.65-4.647S203.207,63.378,203.207,65.945"/>
			<path clip-path="url(#SVGID_4_)" fill="#CBCDCD" d="M203.083,65.945c0,2.496-2.027,4.521-4.526,4.521
				c-2.5,0-4.526-2.025-4.526-4.521c0-2.499,2.026-4.524,4.526-4.524C201.056,61.421,203.083,63.447,203.083,65.945"/>
			<path clip-path="url(#SVGID_4_)" fill="#CCCFD0" d="M202.959,65.945c0,2.428-1.972,4.396-4.402,4.396s-4.402-1.969-4.402-4.396
				c0-2.43,1.972-4.399,4.402-4.399S202.959,63.515,202.959,65.945"/>
			<path clip-path="url(#SVGID_4_)" fill="#D0D2D2" d="M202.835,65.945c0,2.359-1.916,4.273-4.278,4.273s-4.278-1.914-4.278-4.273
				c0-2.362,1.916-4.276,4.278-4.276S202.835,63.583,202.835,65.945"/>
			<path clip-path="url(#SVGID_4_)" fill="#D2D4D5" d="M202.711,65.945c0,2.291-1.861,4.148-4.154,4.148
				c-2.294,0-4.154-1.857-4.154-4.148c0-2.293,1.86-4.151,4.154-4.151C200.85,61.794,202.711,63.652,202.711,65.945"/>
		</g>
	</g>
	<polygon fill="#605F5E" points="197.868,69.109 197.868,66.633 195.388,66.633 195.388,65.256 197.868,65.256 197.868,62.779 
		199.245,62.779 199.245,65.256 201.725,65.256 201.725,66.633 199.245,66.633 199.245,69.109 	"/>
	<path fill="#221714" d="M199.126,62.898v2.239v0.238h0.238h2.242v1.137h-2.242h-0.238v0.238v2.24h-1.139v-2.24v-0.238h-0.238
		h-2.242v-1.137h2.242h0.238v-0.238v-2.239H199.126z M199.364,62.66h-1.615v2.477h-2.48v1.613h2.48v2.479h1.615V66.75h2.479v-1.613
		h-2.479V62.66z"/>
</g>
<g>
	<g>
		<defs>
			<rect id="SVGID_5_" x="247.919" y="37.805" width="32.851" height="59.812"/>
		</defs>
		<clipPath id="SVGID_6_">
			<use xlink:href="#SVGID_5_"  overflow="visible"/>
		</clipPath>
		
			<linearGradient id="SVGID_7_" gradientUnits="userSpaceOnUse" x1="-188.6826" y1="372.0264" x2="-187.6826" y2="372.0264" gradientTransform="matrix(0 -79.8244 -79.8244 0 29961.125 -14953.0625)">
			<stop  offset="0" style="stop-color:#113577"/>
			<stop  offset="0.2581" style="stop-color:#162145"/>
			<stop  offset="1" style="stop-color:#03051D"/>
		</linearGradient>
		<rect x="247.919" y="37.805" clip-path="url(#SVGID_6_)" fill="url(#SVGID_7_)" width="32.851" height="59.812"/>
	</g>
	<g>
		<defs>
			<path id="SVGID_8_" d="M247.836,39.268v58.421c0,0.283,0.128,0.449,0.082,0.459h33.548c0.056-0.059,0.148-0.215,0.148-0.459
				V39.268c0-0.286-0.125-0.454-0.079-0.463l-33.521-0.02C247.965,38.814,247.836,38.982,247.836,39.268"/>
		</defs>
		<clipPath id="SVGID_9_">
			<use xlink:href="#SVGID_8_"  overflow="visible"/>
		</clipPath>
		
			<linearGradient id="SVGID_10_" gradientUnits="userSpaceOnUse" x1="-182.3374" y1="343.6338" x2="-181.3374" y2="343.6338" gradientTransform="matrix(0 58.6222 58.6222 0 -19879.8438 10728.4063)">
			<stop  offset="0" style="stop-color:#2E2523"/>
			<stop  offset="1" style="stop-color:#342E2B"/>
		</linearGradient>
		<rect x="247.836" y="38.786" clip-path="url(#SVGID_9_)" fill="url(#SVGID_10_)" width="33.778" height="59.363"/>
	</g>
	<path d="M280.501,97.148h-31.55V39.805h31.55V97.148z M281.535,37.805h-33.618c-0.657,0-1.197,0.654-1.197,1.463v58.421
		c0,0.807,0.541,1.459,1.197,1.459h33.618c0.66,0,1.196-0.652,1.196-1.459V39.268C282.731,38.459,282.195,37.805,281.535,37.805"/>
	<path fill="#030303" d="M276.62,89.354c0,0.578-0.354,1.043-0.791,1.043h-22.206c-0.436,0-0.791-0.465-0.791-1.043v-41.75
		c0-0.576,0.355-1.044,0.791-1.044h22.206c0.437,0,0.791,0.468,0.791,1.044V89.354z"/>
	<g>
		<defs>
			<path id="SVGID_11_" d="M255.091,49.455c-0.38,0-0.686,0.406-0.686,0.908v18.114h20.643V50.363c0-0.502-0.308-0.908-0.686-0.908
				H255.091z"/>
		</defs>
		<clipPath id="SVGID_12_">
			<use xlink:href="#SVGID_11_"  overflow="visible"/>
		</clipPath>
		
			<linearGradient id="SVGID_13_" gradientUnits="userSpaceOnUse" x1="-176.5137" y1="317.584" x2="-175.5137" y2="317.584" gradientTransform="matrix(0 22.6221 22.6221 0 -6919.7031 4050.6406)">
			<stop  offset="0" style="stop-color:#251C18"/>
			<stop  offset="1" style="stop-color:#524E4E"/>
		</linearGradient>
		<rect x="254.405" y="49.455" clip-path="url(#SVGID_12_)" fill="url(#SVGID_13_)" width="20.643" height="19.022"/>
	</g>
	<path fill="#050505" d="M254.405,68.477v18.117c0,0.502,0.307,0.906,0.685,0.906h19.273c0.377,0,0.684-0.404,0.684-0.906V68.477
		H254.405z"/>
	<path fill="#121212" d="M254.405,68.477v18.117c0,0.502,0.307,0.906,0.685,0.906h19.273c0.377,0,0.684-0.404,0.684-0.906V68.477
		H254.405z"/>
	<rect x="254.406" y="68.477" fill="#030303" width="20.642" height="0.785"/>
	<rect x="263.218" y="54.402" fill="#4D4D4D" width="2.254" height="9.13"/>
	
		<ellipse fill="none" stroke="#4D4D4D" stroke-width="0.783" stroke-miterlimit="10" cx="264.783" cy="78.033" rx="1.784" ry="1.602"/>
</g>
<g>
	<rect y="-0.001" fill="#444344" width="11.978" height="126.142"/>
	<rect x="10.812" y="-0.001" fill="#6D6D6D" width="1.167" height="126.142"/>
</g>
<g>
	<rect x="10.836" y="-0.001" fill="#444344" width="1264.777" height="11.979"/>
	<rect x="10.836" y="10.81" fill="#6D6D6D" width="1264.777" height="1.167"/>
</g>
<g>
	<rect x="1263.611" y="10.81" fill="#444344" width="11.979" height="115.331"/>
	<rect x="1263.611" y="10.81" fill="#6D6D6D" width="1.168" height="115.331"/>
</g>
<rect x="308.185" y="76.434" fill="#CDCFC7" width="223.667" height="49.707"/>
</svg>
