<?xml version="1.0" encoding="utf-8"?>
<!-- Generator: Adobe Illustrator 16.0.0, SVG Export Plug-In . SVG Version: 6.00 Build 0)  -->
<!DOCTYPE svg PUBLIC "-//W3C//DTD SVG 1.1//EN" "http://www.w3.org/Graphics/SVG/1.1/DTD/svg11.dtd">
<svg version="1.1" id="图层_1" xmlns="http://www.w3.org/2000/svg" xmlns:xlink="http://www.w3.org/1999/xlink" x="0px" y="0px"
	 width="1275.59px" height="126.14px" viewBox="0 0 1275.59 126.14" enable-background="new 0 0 1275.59 126.14"
	 xml:space="preserve">
<rect fill="#39393A" width="1275.591" height="126.143"/>
<g>
	<path fill="#39393A" stroke="#030000" stroke-miterlimit="10" d="M1214.524,102.189c0,3.98-3.199,7.205-7.145,7.205H59.212
		c-3.946,0-7.146-3.225-7.146-7.205V23.953c0-3.98,3.199-7.206,7.146-7.206H1207.38c3.945,0,7.145,3.226,7.145,7.206V102.189z"/>
</g>
<path fill="#3C3C3D" stroke="#707070" stroke-miterlimit="10" d="M1212.884,101.07c0,3.867-3.191,7-7.127,7H60.527
	c-3.936,0-7.127-3.133-7.127-7V25.071c0-3.866,3.191-7,7.127-7h1145.23c3.936,0,7.127,3.134,7.127,7V101.07z"/>
<g>
	<polygon fill="#EFEFEF" points="60.359,34.809 63.518,42.485 71.571,41.75 63.963,41.194 71.037,40.415 63.474,39.903 
		70.481,39.192 62.939,38.647 70.058,37.857 62.45,37.413 69.546,36.656 61.872,36.01 69.035,35.276 	"/>
	<path fill="#EFEFEF" d="M69.102,34.409h-4.116l1.735-4.471c0,0,2.091-3.426,5.361-0.423l5.117,13.103h-4.093l-3.537-9.21
		L69.102,34.409z"/>
	<path fill="#EFEFEF" d="M84.251,28.585H75.55c-0.86,0-1.557,0.678-1.557,1.513s0.697,1.513,1.557,1.513h2.472v11.006h3.382V31.611
		h2.848c0.859,0,1.557-0.678,1.557-1.513S85.111,28.585,84.251,28.585z"/>
	<path fill="#EFEFEF" d="M97.179,39.374h-7.211v-2.336h6.396c0.792,0,1.434-0.711,1.434-1.588s-0.642-1.588-1.434-1.588h-6.396v-2.1
		h7.354c0.877,0,1.588-0.711,1.588-1.588s-0.711-1.588-1.588-1.588h-8.244H88.13h-0.698c-0.491,0-0.89,0.398-0.89,0.89v12.252
		c0,0.492,0.399,0.891,0.89,0.891h1.646c0.119,0,0.233-0.024,0.337-0.066h7.763c0.858,0,1.554-0.711,1.554-1.59
		C98.733,40.086,98.037,39.374,97.179,39.374z"/>
	<path fill="#EFEFEF" d="M110.263,28.585c-0.966,0-1.75,0.784-1.75,1.75v5.871l-5.433-6.762c-0.043-0.054-0.089-0.105-0.135-0.155
		c-0.313-0.474-0.85-0.788-1.461-0.788c-0.405,0-0.776,0.139-1.072,0.369c-0.008,0.006-0.016,0.011-0.023,0.017
		c-0.002,0.002-0.004,0.004-0.006,0.005c-0.396,0.321-0.648,0.81-0.648,1.359v10.703c0,0.966,0.784,1.75,1.75,1.75
		s1.75-0.784,1.75-1.75v-5.729l5.243,6.525c0.149,0.186,0.318,0.342,0.499,0.473c0.32,0.348,0.777,0.566,1.287,0.566
		c0.967,0,1.75-0.783,1.75-1.75V30.335C112.013,29.369,111.23,28.585,110.263,28.585z"/>
</g>
<polygon fill="#D4E1AD" points="71.365,89.127 71.365,61.623 103.216,89.127 "/>
<path fill="#D4E1AD" d="M100.734,97.379c0,1.75-1.418,3.168-3.167,3.168H75.259c-1.749,0-3.167-1.418-3.167-3.168l0,0
	c0-1.748,1.418-3.166,3.167-3.166h22.308C99.316,94.213,100.734,95.631,100.734,97.379L100.734,97.379z"/>
<g>
	
		<radialGradient id="SVGID_1_" cx="202.3994" cy="54.918" r="14.0251" gradientTransform="matrix(1 0 0 0.6088 0 21.485)" gradientUnits="userSpaceOnUse">
		<stop  offset="0" style="stop-color:#FFFFFF"/>
		<stop  offset="0.713" style="stop-color:#F7B52C"/>
	</radialGradient>
	<path fill="url(#SVGID_1_)" stroke="#030000" stroke-width="1.5" stroke-miterlimit="10" d="M221.066,54.918
		c0,3.703-3.001,6.704-6.705,6.704h-23.924c-3.703,0-6.705-3.001-6.705-6.704l0,0c0-3.703,3.002-6.705,6.705-6.705h23.924
		C218.065,48.213,221.066,51.215,221.066,54.918L221.066,54.918z"/>
	
		<radialGradient id="SVGID_2_" cx="192.8164" cy="67.1289" r="5.8882" gradientTransform="matrix(1 0 0 0.6088 0 26.2621)" gradientUnits="userSpaceOnUse">
		<stop  offset="0" style="stop-color:#FFFFFF"/>
		<stop  offset="0.713" style="stop-color:#DADF00"/>
	</radialGradient>
	<path fill="url(#SVGID_2_)" stroke="#030000" stroke-width="0.5" stroke-miterlimit="10" d="M200.9,67.129c0,1.105-0.896,2-2,2
		h-12.167c-1.104,0-2-0.895-2-2l0,0c0-1.104,0.896-2,2-2H198.9C200.004,65.129,200.9,66.025,200.9,67.129L200.9,67.129z"/>
	
		<radialGradient id="SVGID_3_" cx="211.8164" cy="67.1289" r="5.8882" gradientTransform="matrix(1 0 0 0.6088 0 26.2621)" gradientUnits="userSpaceOnUse">
		<stop  offset="0" style="stop-color:#FFFFFF"/>
		<stop  offset="0.713" style="stop-color:#B4B4B5"/>
	</radialGradient>
	<path fill="url(#SVGID_3_)" stroke="#030000" stroke-width="0.5" stroke-miterlimit="10" d="M219.9,67.129c0,1.105-0.896,2-2,2
		h-12.167c-1.104,0-2-0.895-2-2l0,0c0-1.104,0.896-2,2-2H217.9C219.004,65.129,219.9,66.025,219.9,67.129L219.9,67.129z"/>
	<text transform="matrix(1 0 0 1 200.3999 42.6299)" fill="#FFFFFF" font-family="'SimHei'" font-size="12">1</text>
</g>
<g>
	
		<radialGradient id="SVGID_4_" cx="252.8994" cy="55.0757" r="14.025" gradientTransform="matrix(1 0 0 0.6088 0 21.5467)" gradientUnits="userSpaceOnUse">
		<stop  offset="0" style="stop-color:#FFFFFF"/>
		<stop  offset="0.713" style="stop-color:#F7B52C"/>
	</radialGradient>
	<path fill="url(#SVGID_4_)" stroke="#030000" stroke-width="1.5" stroke-miterlimit="10" d="M271.566,55.077
		c0,3.702-3.001,6.703-6.705,6.703h-23.924c-3.703,0-6.705-3.001-6.705-6.703l0,0c0-3.703,3.002-6.705,6.705-6.705h23.924
		C268.565,48.372,271.566,51.374,271.566,55.077L271.566,55.077z"/>
	
		<radialGradient id="SVGID_5_" cx="243.3164" cy="67.2871" r="5.8882" gradientTransform="matrix(1 0 0 0.6088 0 26.324)" gradientUnits="userSpaceOnUse">
		<stop  offset="0" style="stop-color:#FFFFFF"/>
		<stop  offset="0.713" style="stop-color:#DADF00"/>
	</radialGradient>
	<path fill="url(#SVGID_5_)" stroke="#030000" stroke-width="0.5" stroke-miterlimit="10" d="M251.4,67.287c0,1.105-0.896,2-2,2
		h-12.167c-1.104,0-2-0.895-2-2l0,0c0-1.104,0.896-2,2-2H249.4C250.504,65.287,251.4,66.184,251.4,67.287L251.4,67.287z"/>
	
		<radialGradient id="SVGID_6_" cx="262.3164" cy="67.2871" r="5.8882" gradientTransform="matrix(1 0 0 0.6088 0 26.324)" gradientUnits="userSpaceOnUse">
		<stop  offset="0" style="stop-color:#FFFFFF"/>
		<stop  offset="0.713" style="stop-color:#B4B4B5"/>
	</radialGradient>
	<path fill="url(#SVGID_6_)" stroke="#030000" stroke-width="0.5" stroke-miterlimit="10" d="M270.4,67.287c0,1.105-0.896,2-2,2
		h-12.167c-1.104,0-2-0.895-2-2l0,0c0-1.104,0.896-2,2-2H268.4C269.504,65.287,270.4,66.184,270.4,67.287L270.4,67.287z"/>
	<text transform="matrix(1 0 0 1 250.8999 42.7876)" fill="#FFFFFF" font-family="'SimHei'" font-size="12">2</text>
</g>
<g>
	
		<radialGradient id="SVGID_7_" cx="303.3994" cy="55.2339" r="14.025" gradientTransform="matrix(1 0 0 0.6088 0 21.6085)" gradientUnits="userSpaceOnUse">
		<stop  offset="0" style="stop-color:#FFFFFF"/>
		<stop  offset="0.713" style="stop-color:#F7B52C"/>
	</radialGradient>
	<path fill="url(#SVGID_7_)" stroke="#030000" stroke-width="1.5" stroke-miterlimit="10" d="M322.066,55.235
		c0,3.701-3.001,6.703-6.705,6.703h-23.924c-3.703,0-6.705-3.002-6.705-6.703l0,0c0-3.703,3.002-6.705,6.705-6.705h23.924
		C319.065,48.53,322.066,51.532,322.066,55.235L322.066,55.235z"/>
	
		<radialGradient id="SVGID_8_" cx="293.8164" cy="67.4453" r="5.8882" gradientTransform="matrix(1 0 0 0.6088 0 26.3859)" gradientUnits="userSpaceOnUse">
		<stop  offset="0" style="stop-color:#FFFFFF"/>
		<stop  offset="0.713" style="stop-color:#DADF00"/>
	</radialGradient>
	<path fill="url(#SVGID_8_)" stroke="#030000" stroke-width="0.5" stroke-miterlimit="10" d="M301.9,67.445c0,1.105-0.896,2-2,2
		h-12.167c-1.104,0-2-0.895-2-2l0,0c0-1.104,0.896-2,2-2H299.9C301.004,65.445,301.9,66.342,301.9,67.445L301.9,67.445z"/>
	
		<radialGradient id="SVGID_9_" cx="312.8164" cy="67.4453" r="5.8882" gradientTransform="matrix(1 0 0 0.6088 0 26.3859)" gradientUnits="userSpaceOnUse">
		<stop  offset="0" style="stop-color:#FFFFFF"/>
		<stop  offset="0.713" style="stop-color:#B4B4B5"/>
	</radialGradient>
	<path fill="url(#SVGID_9_)" stroke="#030000" stroke-width="0.5" stroke-miterlimit="10" d="M320.9,67.445c0,1.105-0.896,2-2,2
		h-12.167c-1.104,0-2-0.895-2-2l0,0c0-1.104,0.896-2,2-2H318.9C320.004,65.445,320.9,66.342,320.9,67.445L320.9,67.445z"/>
	<text transform="matrix(1 0 0 1 301.3999 42.9458)" fill="#FFFFFF" font-family="'SimHei'" font-size="12">3</text>
</g>
<g>
	
		<radialGradient id="SVGID_10_" cx="353.8999" cy="55.3921" r="14.025" gradientTransform="matrix(1 0 0 0.6088 0 21.6704)" gradientUnits="userSpaceOnUse">
		<stop  offset="0" style="stop-color:#FFFFFF"/>
		<stop  offset="0.713" style="stop-color:#F7B52C"/>
	</radialGradient>
	<path fill="url(#SVGID_10_)" stroke="#030000" stroke-width="1.5" stroke-miterlimit="10" d="M372.567,55.392
		c0,3.702-3.002,6.704-6.705,6.704h-23.924c-3.703,0-6.705-3.002-6.705-6.704l0,0c0-3.703,3.002-6.704,6.705-6.704h23.924
		C369.565,48.688,372.567,51.689,372.567,55.392L372.567,55.392z"/>
	
		<radialGradient id="SVGID_11_" cx="344.3164" cy="67.6035" r="5.8882" gradientTransform="matrix(1 0 0 0.6088 0 26.4478)" gradientUnits="userSpaceOnUse">
		<stop  offset="0" style="stop-color:#FFFFFF"/>
		<stop  offset="0.713" style="stop-color:#DADF00"/>
	</radialGradient>
	<path fill="url(#SVGID_11_)" stroke="#030000" stroke-width="0.5" stroke-miterlimit="10" d="M352.4,67.604c0,1.104-0.896,2-2,2
		h-12.167c-1.104,0-2-0.896-2-2l0,0c0-1.105,0.896-2,2-2H350.4C351.504,65.604,352.4,66.498,352.4,67.604L352.4,67.604z"/>
	
		<radialGradient id="SVGID_12_" cx="363.3164" cy="67.6035" r="5.8882" gradientTransform="matrix(1 0 0 0.6088 0 26.4478)" gradientUnits="userSpaceOnUse">
		<stop  offset="0" style="stop-color:#FFFFFF"/>
		<stop  offset="0.713" style="stop-color:#B4B4B5"/>
	</radialGradient>
	<path fill="url(#SVGID_12_)" stroke="#030000" stroke-width="0.5" stroke-miterlimit="10" d="M371.4,67.604c0,1.104-0.896,2-2,2
		h-12.167c-1.104,0-2-0.896-2-2l0,0c0-1.105,0.896-2,2-2H369.4C370.504,65.604,371.4,66.498,371.4,67.604L371.4,67.604z"/>
	<text transform="matrix(1 0 0 1 351.8999 43.104)" fill="#FFFFFF" font-family="'SimHei'" font-size="12">4</text>
</g>
<g>
	
		<radialGradient id="SVGID_13_" cx="404.3999" cy="55.5498" r="14.0251" gradientTransform="matrix(1 0 0 0.6088 0 21.7321)" gradientUnits="userSpaceOnUse">
		<stop  offset="0" style="stop-color:#FFFFFF"/>
		<stop  offset="0.713" style="stop-color:#F7B52C"/>
	</radialGradient>
	<path fill="url(#SVGID_13_)" stroke="#030000" stroke-width="1.5" stroke-miterlimit="10" d="M423.067,55.549
		c0,3.703-3.002,6.705-6.705,6.705h-23.924c-3.703,0-6.705-3.002-6.705-6.705l0,0c0-3.702,3.002-6.704,6.705-6.704h23.924
		C420.065,48.845,423.067,51.847,423.067,55.549L423.067,55.549z"/>
	
		<radialGradient id="SVGID_14_" cx="394.8164" cy="67.7617" r="5.8882" gradientTransform="matrix(1 0 0 0.6088 0 26.5097)" gradientUnits="userSpaceOnUse">
		<stop  offset="0" style="stop-color:#FFFFFF"/>
		<stop  offset="0.713" style="stop-color:#DADF00"/>
	</radialGradient>
	<path fill="url(#SVGID_14_)" stroke="#030000" stroke-width="0.5" stroke-miterlimit="10" d="M402.9,67.762c0,1.104-0.896,2-2,2
		h-12.167c-1.104,0-2-0.896-2-2l0,0c0-1.105,0.896-2,2-2H400.9C402.004,65.762,402.9,66.656,402.9,67.762L402.9,67.762z"/>
	
		<radialGradient id="SVGID_15_" cx="413.8164" cy="67.7617" r="5.8882" gradientTransform="matrix(1 0 0 0.6088 0 26.5097)" gradientUnits="userSpaceOnUse">
		<stop  offset="0" style="stop-color:#FFFFFF"/>
		<stop  offset="0.713" style="stop-color:#B4B4B5"/>
	</radialGradient>
	<path fill="url(#SVGID_15_)" stroke="#030000" stroke-width="0.5" stroke-miterlimit="10" d="M421.9,67.762c0,1.104-0.896,2-2,2
		h-12.167c-1.104,0-2-0.896-2-2l0,0c0-1.105,0.896-2,2-2H419.9C421.004,65.762,421.9,66.656,421.9,67.762L421.9,67.762z"/>
	<text transform="matrix(1 0 0 1 402.3999 43.2617)" fill="#FFFFFF" font-family="'SimHei'" font-size="12">5</text>
</g>
<g>
	
		<radialGradient id="SVGID_16_" cx="454.8999" cy="55.7075" r="14.0252" gradientTransform="matrix(1 0 0 0.6088 0 21.7938)" gradientUnits="userSpaceOnUse">
		<stop  offset="0" style="stop-color:#FFFFFF"/>
		<stop  offset="0.713" style="stop-color:#F7B52C"/>
	</radialGradient>
	<path fill="url(#SVGID_16_)" stroke="#030000" stroke-width="1.5" stroke-miterlimit="10" d="M473.567,55.708
		c0,3.703-3.002,6.705-6.705,6.705h-23.924c-3.703,0-6.705-3.002-6.705-6.705l0,0c0-3.703,3.002-6.705,6.705-6.705h23.924
		C470.565,49.002,473.567,52.004,473.567,55.708L473.567,55.708z"/>
	
		<radialGradient id="SVGID_17_" cx="445.3164" cy="67.9199" r="5.8882" gradientTransform="matrix(1 0 0 0.6088 0 26.5716)" gradientUnits="userSpaceOnUse">
		<stop  offset="0" style="stop-color:#FFFFFF"/>
		<stop  offset="0.713" style="stop-color:#DADF00"/>
	</radialGradient>
	<path fill="url(#SVGID_17_)" stroke="#030000" stroke-width="0.5" stroke-miterlimit="10" d="M453.4,67.92c0,1.104-0.896,2-2,2
		h-12.167c-1.104,0-2-0.896-2-2l0,0c0-1.105,0.896-2,2-2H451.4C452.504,65.92,453.4,66.814,453.4,67.92L453.4,67.92z"/>
	
		<radialGradient id="SVGID_18_" cx="464.3164" cy="67.9199" r="5.8882" gradientTransform="matrix(1 0 0 0.6088 0 26.5716)" gradientUnits="userSpaceOnUse">
		<stop  offset="0" style="stop-color:#FFFFFF"/>
		<stop  offset="0.713" style="stop-color:#B4B4B5"/>
	</radialGradient>
	<path fill="url(#SVGID_18_)" stroke="#030000" stroke-width="0.5" stroke-miterlimit="10" d="M472.4,67.92c0,1.104-0.896,2-2,2
		h-12.167c-1.104,0-2-0.896-2-2l0,0c0-1.105,0.896-2,2-2H470.4C471.504,65.92,472.4,66.814,472.4,67.92L472.4,67.92z"/>
	<text transform="matrix(1 0 0 1 452.8999 43.4194)" fill="#FFFFFF" font-family="'SimHei'" font-size="12">6</text>
</g>
<g>
	
		<radialGradient id="SVGID_19_" cx="505.3999" cy="55.8657" r="14.0252" gradientTransform="matrix(1 0 0 0.6088 0 21.8557)" gradientUnits="userSpaceOnUse">
		<stop  offset="0" style="stop-color:#FFFFFF"/>
		<stop  offset="0.713" style="stop-color:#F7B52C"/>
	</radialGradient>
	<path fill="url(#SVGID_19_)" stroke="#030000" stroke-width="1.5" stroke-miterlimit="10" d="M524.067,55.866
		c0,3.703-3.002,6.705-6.705,6.705h-23.924c-3.703,0-6.705-3.002-6.705-6.705l0,0c0-3.703,3.002-6.705,6.705-6.705h23.924
		C521.065,49.161,524.067,52.163,524.067,55.866L524.067,55.866z"/>
	
		<radialGradient id="SVGID_20_" cx="495.8164" cy="68.0781" r="5.8882" gradientTransform="matrix(1 0 0 0.6088 0 26.6335)" gradientUnits="userSpaceOnUse">
		<stop  offset="0" style="stop-color:#FFFFFF"/>
		<stop  offset="0.713" style="stop-color:#DADF00"/>
	</radialGradient>
	<path fill="url(#SVGID_20_)" stroke="#030000" stroke-width="0.5" stroke-miterlimit="10" d="M503.9,68.078c0,1.104-0.896,2-2,2
		h-12.167c-1.104,0-2-0.896-2-2l0,0c0-1.105,0.896-2,2-2H501.9C503.004,66.078,503.9,66.973,503.9,68.078L503.9,68.078z"/>
	
		<radialGradient id="SVGID_21_" cx="514.8164" cy="68.0781" r="5.8882" gradientTransform="matrix(1 0 0 0.6088 0 26.6335)" gradientUnits="userSpaceOnUse">
		<stop  offset="0" style="stop-color:#FFFFFF"/>
		<stop  offset="0.713" style="stop-color:#B4B4B5"/>
	</radialGradient>
	<path fill="url(#SVGID_21_)" stroke="#030000" stroke-width="0.5" stroke-miterlimit="10" d="M522.9,68.078c0,1.104-0.896,2-2,2
		h-12.167c-1.104,0-2-0.896-2-2l0,0c0-1.105,0.896-2,2-2H520.9C522.004,66.078,522.9,66.973,522.9,68.078L522.9,68.078z"/>
	<text transform="matrix(1 0 0 1 503.3999 43.5776)" fill="#FFFFFF" font-family="'SimHei'" font-size="12">7</text>
</g>
<g>
	
		<radialGradient id="SVGID_22_" cx="555.8999" cy="56.0239" r="14.0252" gradientTransform="matrix(1 0 0 0.6088 0 21.9176)" gradientUnits="userSpaceOnUse">
		<stop  offset="0" style="stop-color:#FFFFFF"/>
		<stop  offset="0.713" style="stop-color:#F7B52C"/>
	</radialGradient>
	<path fill="url(#SVGID_22_)" stroke="#030000" stroke-width="1.5" stroke-miterlimit="10" d="M574.567,56.024
		c0,3.703-3.002,6.705-6.705,6.705h-23.924c-3.703,0-6.705-3.002-6.705-6.705l0,0c0-3.703,3.002-6.705,6.705-6.705h23.924
		C571.565,49.319,574.567,52.321,574.567,56.024L574.567,56.024z"/>
	
		<radialGradient id="SVGID_23_" cx="546.3164" cy="68.2344" r="5.8882" gradientTransform="matrix(1 0 0 0.6088 0 26.6946)" gradientUnits="userSpaceOnUse">
		<stop  offset="0" style="stop-color:#FFFFFF"/>
		<stop  offset="0.713" style="stop-color:#DADF00"/>
	</radialGradient>
	<path fill="url(#SVGID_23_)" stroke="#030000" stroke-width="0.5" stroke-miterlimit="10" d="M554.4,68.234c0,1.105-0.896,2-2,2
		h-12.167c-1.104,0-2-0.895-2-2l0,0c0-1.104,0.896-2,2-2H552.4C553.504,66.234,554.4,67.131,554.4,68.234L554.4,68.234z"/>
	
		<radialGradient id="SVGID_24_" cx="565.3164" cy="68.2344" r="5.8882" gradientTransform="matrix(1 0 0 0.6088 0 26.6946)" gradientUnits="userSpaceOnUse">
		<stop  offset="0" style="stop-color:#FFFFFF"/>
		<stop  offset="0.713" style="stop-color:#B4B4B5"/>
	</radialGradient>
	<path fill="url(#SVGID_24_)" stroke="#030000" stroke-width="0.5" stroke-miterlimit="10" d="M573.4,68.234c0,1.105-0.896,2-2,2
		h-12.167c-1.104,0-2-0.895-2-2l0,0c0-1.104,0.896-2,2-2H571.4C572.504,66.234,573.4,67.131,573.4,68.234L573.4,68.234z"/>
	<text transform="matrix(1 0 0 1 553.8999 43.7358)" fill="#FFFFFF" font-family="'SimHei'" font-size="12">8</text>
</g>
<radialGradient id="SVGID_25_" cx="635.4248" cy="95.4434" r="4.418" gradientUnits="userSpaceOnUse">
	<stop  offset="0" style="stop-color:#FFFFFF"/>
	<stop  offset="1" style="stop-color:#1F2020"/>
</radialGradient>
<circle fill="url(#SVGID_25_)" stroke="#030000" stroke-miterlimit="10" cx="635.425" cy="95.443" r="4.418"/>
<text transform="matrix(1 0 0 1 650.0664 99.3799)" fill="#F4F4F4" font-family="'SimHei'" font-size="12">RESET</text>
<g>
	<g>
		<path fill="#060001" d="M1105.407,95.211c0-3.34-2.705-6.045-6.043-6.045c-3.34,0-6.045,2.705-6.045,6.045
			c0,3.338,2.705,6.043,6.045,6.043C1102.702,101.254,1105.407,98.549,1105.407,95.211"/>
		<g>
			<defs>
				<path id="SVGID_26_" d="M1099.364,100.066c-2.684,0-4.857-2.174-4.857-4.855c0-2.684,2.174-4.857,4.857-4.857
					c2.68,0,4.855,2.174,4.855,4.857C1104.22,97.893,1102.044,100.066,1099.364,100.066"/>
			</defs>
			<clipPath id="SVGID_27_">
				<use xlink:href="#SVGID_26_"  overflow="visible"/>
			</clipPath>
			
				<radialGradient id="SVGID_28_" cx="-1842.9302" cy="-987.5347" r="0.8636" gradientTransform="matrix(0 -8.2859 -8.2859 0 -7081.5156 -15173.9414)" gradientUnits="userSpaceOnUse">
				<stop  offset="0" style="stop-color:#7CB861"/>
				<stop  offset="1" style="stop-color:#1E803B"/>
			</radialGradient>
			<rect x="1094.507" y="90.354" clip-path="url(#SVGID_27_)" fill="url(#SVGID_28_)" width="9.713" height="9.713"/>
		</g>
		<g opacity="0.5" enable-background="new    ">
			<g>
				<defs>
					<rect id="SVGID_29_" x="1100.55" y="95.857" width="1.619" height="1.619"/>
				</defs>
				<clipPath id="SVGID_30_">
					<use xlink:href="#SVGID_29_"  overflow="visible"/>
				</clipPath>
				<rect x="1100.55" y="95.857" clip-path="url(#SVGID_30_)" fill="#FFFFFF" width="1.619" height="1.619"/>
			</g>
		</g>
		<g opacity="0.5" enable-background="new    ">
			<g>
				<defs>
					<rect id="SVGID_31_" x="1100.55" y="96.668" width="1.619" height="0.809"/>
				</defs>
				<clipPath id="SVGID_32_">
					<use xlink:href="#SVGID_31_"  overflow="visible"/>
				</clipPath>
				<rect x="1100.55" y="96.668" clip-path="url(#SVGID_32_)" fill="#FFFFFF" width="1.619" height="0.809"/>
			</g>
		</g>
	</g>
	<text transform="matrix(1 0 0 1 1114.5566 97.4482)" fill="#FFFFFF" font-family="'SimHei'" font-size="12">power</text>
</g>
<g>
	<text transform="matrix(1 0 0 1 1028.8398 36.6938)" fill="#FFFFFF" font-family="'SimHei'" font-size="26.9115">master uiew</text>
	<text transform="matrix(1 0 0 1 1186.1738 36.6938)" fill="#FFFFFF" font-family="'SimHei'" font-size="12">max</text>
</g>
<rect x="1028.839" y="43.735" fill="#FFFFFF" width="173.535" height="2.479"/>
</svg>
