<?xml version="1.0" encoding="utf-8"?>
<!-- Generator: Adobe Illustrator 16.0.0, SVG Export Plug-In . SVG Version: 6.00 Build 0)  -->
<!DOCTYPE svg PUBLIC "-//W3C//DTD SVG 1.1//EN" "http://www.w3.org/Graphics/SVG/1.1/DTD/svg11.dtd">
<svg version="1.1" id="图层_1" xmlns="http://www.w3.org/2000/svg" xmlns:xlink="http://www.w3.org/1999/xlink" x="0px" y="0px"
	 width="22.677px" height="22.678px" viewBox="0 0 22.677 22.678" enable-background="new 0 0 22.677 22.678" xml:space="preserve">
<path d="M0,11.339C0,5.077,5.076,0,11.339,0c6.262,0,11.338,5.077,11.338,11.339s-5.076,11.339-11.338,11.339
	C5.076,22.678,0,17.601,0,11.339"/>
<path fill="#007345" d="M3.324,11.339c0-4.426,3.588-8.014,8.014-8.014s8.015,3.588,8.015,8.014s-3.589,8.014-8.015,8.014
	S3.324,15.765,3.324,11.339"/>
<circle fill="none" stroke="#C0C0C0" stroke-width="2" stroke-miterlimit="10" cx="11.338" cy="11.339" r="8.014"/>
<path d="M7.841,11.339c0-1.932,1.566-3.497,3.497-3.497c1.932,0,3.498,1.565,3.498,3.497s-1.566,3.497-3.498,3.497
	C9.407,14.836,7.841,13.271,7.841,11.339"/>
</svg>
