<?xml version="1.0" encoding="utf-8"?>
<!-- Generator: Adobe Illustrator 16.0.0, SVG Export Plug-In . SVG Version: 6.00 Build 0)  -->
<!DOCTYPE svg PUBLIC "-//W3C//DTD SVG 1.1//EN" "http://www.w3.org/Graphics/SVG/1.1/DTD/svg11.dtd">
<svg version="1.1" id="图层_1" xmlns="http://www.w3.org/2000/svg" xmlns:xlink="http://www.w3.org/1999/xlink" x="0px" y="0px"
	 width="1275.59px" height="126.14px" viewBox="0 0 1275.59 126.14" enable-background="new 0 0 1275.59 126.14"
	 xml:space="preserve">
<rect y="-0.001" fill="#2F302F" width="1275.59" height="126.142"/>
<g>
	<path fill="#AFAEAE" d="M19.577,10.583c0,3.654-3.13,6.617-6.991,6.617c-3.861,0-6.992-2.963-6.992-6.617s3.13-6.618,6.992-6.618
		C16.447,3.965,19.577,6.928,19.577,10.583"/>
	<ellipse fill="none" stroke="#929292" stroke-miterlimit="10" cx="12.586" cy="10.583" rx="6.991" ry="6.617"/>
	<path fill="#AFAEAE" d="M17.722,10.583c0,2.685-2.299,4.862-5.135,4.862c-2.837,0-5.137-2.177-5.137-4.862s2.3-4.863,5.137-4.863
		C15.423,5.72,17.722,7.897,17.722,10.583"/>
	<ellipse fill="none" stroke="#929292" stroke-miterlimit="10" cx="12.585" cy="10.583" rx="5.136" ry="4.862"/>
	<g>
		<g>
			<defs>
				<rect id="SVGID_1_" x="7.743" y="6" width="9.685" height="9.165"/>
			</defs>
			<clipPath id="SVGID_2_">
				<use xlink:href="#SVGID_1_"  overflow="visible"/>
			</clipPath>
			<path clip-path="url(#SVGID_2_)" fill="#BEBEBD" d="M17.427,10.583c0,2.531-2.167,4.582-4.84,4.582
				c-2.675,0-4.842-2.051-4.842-4.582S9.912,6,12.586,6C15.259,6,17.427,8.052,17.427,10.583"/>
			<path clip-path="url(#SVGID_2_)" fill="#C0C0C0" d="M17.313,10.583c0,2.47-2.117,4.474-4.727,4.474
				c-2.612,0-4.728-2.004-4.728-4.474c0-2.471,2.116-4.475,4.728-4.475C15.197,6.107,17.313,8.111,17.313,10.583"/>
			<path clip-path="url(#SVGID_2_)" fill="#C2C3C3" d="M17.2,10.583c0,2.412-2.066,4.367-4.613,4.367
				c-2.548,0-4.614-1.956-4.614-4.367s2.065-4.367,4.614-4.367C15.133,6.216,17.2,8.171,17.2,10.583"/>
			<path clip-path="url(#SVGID_2_)" fill="#C4C5C4" d="M17.084,10.583c0,2.352-2.013,4.259-4.498,4.259
				c-2.486,0-4.5-1.907-4.5-4.259c0-2.353,2.014-4.258,4.5-4.258C15.071,6.324,17.084,8.23,17.084,10.583"/>
			<path clip-path="url(#SVGID_2_)" fill="#C6C8C8" d="M16.972,10.583c0,2.292-1.964,4.152-4.385,4.152
				c-2.423,0-4.387-1.86-4.387-4.152c0-2.292,1.964-4.151,4.387-4.151C15.008,6.431,16.972,8.29,16.972,10.583"/>
			<path clip-path="url(#SVGID_2_)" fill="#C9CACB" d="M16.857,10.583c0,2.233-1.911,4.042-4.271,4.042s-4.272-1.81-4.272-4.042
				c0-2.233,1.912-4.044,4.272-4.044S16.857,8.349,16.857,10.583"/>
			<path clip-path="url(#SVGID_2_)" fill="#CBCDCD" d="M16.745,10.583c0,2.173-1.864,3.936-4.159,3.936
				c-2.297,0-4.159-1.763-4.159-3.936s1.862-3.937,4.159-3.937C14.881,6.646,16.745,8.409,16.745,10.583"/>
			<path clip-path="url(#SVGID_2_)" fill="#CCCFD0" d="M16.631,10.583c0,2.114-1.812,3.828-4.044,3.828
				c-2.234,0-4.045-1.714-4.045-3.828c0-2.114,1.811-3.828,4.045-3.828C14.819,6.755,16.631,8.468,16.631,10.583"/>
			<path clip-path="url(#SVGID_2_)" fill="#D0D2D2" d="M16.517,10.583c0,2.054-1.76,3.72-3.93,3.72c-2.171,0-3.931-1.667-3.931-3.72
				c0-2.055,1.76-3.721,3.931-3.721C14.757,6.862,16.517,8.528,16.517,10.583"/>
			<path clip-path="url(#SVGID_2_)" fill="#D2D4D5" d="M16.403,10.583c0,1.994-1.71,3.612-3.817,3.612
				c-2.109,0-3.817-1.618-3.817-3.612c0-1.996,1.708-3.612,3.817-3.612C14.693,6.971,16.403,8.587,16.403,10.583"/>
		</g>
	</g>
	<polygon fill="#605F5E" points="11.953,13.338 11.953,11.182 9.675,11.182 9.675,9.984 11.953,9.984 11.953,7.827 13.219,7.827 
		13.219,9.984 15.498,9.984 15.498,11.182 13.219,11.182 13.219,13.338 	"/>
	<path fill="#221714" d="M13.109,7.931v1.948v0.208h0.219h2.06v0.989h-2.06h-0.219v0.207v1.949h-1.046v-1.949v-0.207h-0.219h-2.06
		v-0.989h2.06h0.219V9.879V7.931H13.109z M13.328,7.724h-1.485v2.156H9.565v1.405h2.278v2.157h1.485v-2.157h2.278V9.879h-2.278
		V7.724z"/>
</g>
<g>
	<path fill="#AFAEAE" d="M19.577,113.039c0,3.654-3.13,6.617-6.991,6.617c-3.861,0-6.992-2.963-6.992-6.617s3.13-6.617,6.992-6.617
		C16.447,106.422,19.577,109.385,19.577,113.039"/>
	<ellipse fill="none" stroke="#929292" stroke-miterlimit="10" cx="12.586" cy="113.039" rx="6.991" ry="6.617"/>
	<path fill="#AFAEAE" d="M17.722,113.039c0,2.686-2.299,4.863-5.135,4.863c-2.837,0-5.137-2.178-5.137-4.863s2.3-4.863,5.137-4.863
		C15.423,108.176,17.722,110.354,17.722,113.039"/>
	<ellipse fill="none" stroke="#929292" stroke-miterlimit="10" cx="12.585" cy="113.039" rx="5.136" ry="4.863"/>
	<g>
		<g>
			<defs>
				<rect id="SVGID_3_" x="7.743" y="108.457" width="9.685" height="9.164"/>
			</defs>
			<clipPath id="SVGID_4_">
				<use xlink:href="#SVGID_3_"  overflow="visible"/>
			</clipPath>
			<path clip-path="url(#SVGID_4_)" fill="#BEBEBD" d="M17.427,113.039c0,2.531-2.167,4.582-4.84,4.582
				c-2.675,0-4.842-2.051-4.842-4.582s2.167-4.582,4.842-4.582C15.259,108.457,17.427,110.508,17.427,113.039"/>
			<path clip-path="url(#SVGID_4_)" fill="#C0C0C0" d="M17.313,113.039c0,2.471-2.117,4.475-4.727,4.475
				c-2.612,0-4.728-2.004-4.728-4.475s2.116-4.475,4.728-4.475C15.197,108.564,17.313,110.568,17.313,113.039"/>
			<path clip-path="url(#SVGID_4_)" fill="#C2C3C3" d="M17.2,113.039c0,2.412-2.066,4.367-4.613,4.367
				c-2.548,0-4.614-1.955-4.614-4.367s2.065-4.365,4.614-4.365C15.133,108.674,17.2,110.627,17.2,113.039"/>
			<path clip-path="url(#SVGID_4_)" fill="#C4C5C4" d="M17.084,113.039c0,2.352-2.013,4.26-4.498,4.26c-2.486,0-4.5-1.908-4.5-4.26
				s2.014-4.258,4.5-4.258C15.071,108.781,17.084,110.688,17.084,113.039"/>
			<path clip-path="url(#SVGID_4_)" fill="#C6C8C8" d="M16.972,113.039c0,2.293-1.964,4.152-4.385,4.152
				c-2.423,0-4.387-1.859-4.387-4.152s1.964-4.15,4.387-4.15C15.008,108.889,16.972,110.746,16.972,113.039"/>
			<path clip-path="url(#SVGID_4_)" fill="#C9CACB" d="M16.857,113.039c0,2.232-1.911,4.043-4.271,4.043s-4.272-1.811-4.272-4.043
				s1.912-4.043,4.272-4.043S16.857,110.807,16.857,113.039"/>
			<path clip-path="url(#SVGID_4_)" fill="#CBCDCD" d="M16.745,113.039c0,2.174-1.864,3.936-4.159,3.936
				c-2.297,0-4.159-1.762-4.159-3.936s1.862-3.936,4.159-3.936C14.881,109.104,16.745,110.865,16.745,113.039"/>
			<path clip-path="url(#SVGID_4_)" fill="#CCCFD0" d="M16.631,113.039c0,2.113-1.812,3.828-4.044,3.828
				c-2.234,0-4.045-1.715-4.045-3.828s1.811-3.828,4.045-3.828C14.819,109.211,16.631,110.926,16.631,113.039"/>
			<path clip-path="url(#SVGID_4_)" fill="#D0D2D2" d="M16.517,113.039c0,2.055-1.76,3.721-3.93,3.721
				c-2.171,0-3.931-1.666-3.931-3.721s1.76-3.721,3.931-3.721C14.757,109.318,16.517,110.984,16.517,113.039"/>
			<path clip-path="url(#SVGID_4_)" fill="#D2D4D5" d="M16.403,113.039c0,1.994-1.71,3.611-3.817,3.611
				c-2.109,0-3.817-1.617-3.817-3.611c0-1.996,1.708-3.611,3.817-3.611C14.693,109.428,16.403,111.043,16.403,113.039"/>
		</g>
	</g>
	<polygon fill="#605F5E" points="11.953,115.795 11.953,113.639 9.675,113.639 9.675,112.441 11.953,112.441 11.953,110.285 
		13.219,110.285 13.219,112.441 15.498,112.441 15.498,113.639 13.219,113.639 13.219,115.795 	"/>
	<path fill="#221714" d="M13.109,110.389v1.947v0.209h0.219h2.06v0.99h-2.06h-0.219v0.205v1.949h-1.046v-1.949v-0.205h-0.219h-2.06
		v-0.99h2.06h0.219v-0.209v-1.947H13.109z M13.328,110.18h-1.485v2.156H9.565v1.404h2.278v2.158h1.485v-2.158h2.278v-1.404h-2.278
		V110.18z"/>
</g>
<g>
	<path fill="#AFAEAE" d="M599.433,6.616c0,3.654-3.13,6.617-6.991,6.617s-6.993-2.963-6.993-6.617s3.132-6.617,6.993-6.617
		S599.433,2.962,599.433,6.616"/>
	<ellipse fill="none" stroke="#929292" stroke-miterlimit="10" cx="592.441" cy="6.616" rx="6.992" ry="6.617"/>
	<path fill="#AFAEAE" d="M597.578,6.616c0,2.686-2.299,4.862-5.136,4.862c-2.838,0-5.137-2.177-5.137-4.862
		c0-2.685,2.299-4.863,5.137-4.863C595.279,1.753,597.578,3.931,597.578,6.616"/>
	<ellipse fill="none" stroke="#929292" stroke-miterlimit="10" cx="592.442" cy="6.616" rx="5.136" ry="4.862"/>
	<g>
		<g>
			<defs>
				<rect id="SVGID_5_" x="587.599" y="2.034" width="9.685" height="9.164"/>
			</defs>
			<clipPath id="SVGID_6_">
				<use xlink:href="#SVGID_5_"  overflow="visible"/>
			</clipPath>
			<path clip-path="url(#SVGID_6_)" fill="#BEBEBD" d="M597.283,6.616c0,2.531-2.167,4.582-4.84,4.582
				c-2.675,0-4.842-2.051-4.842-4.582s2.167-4.582,4.842-4.582C595.116,2.034,597.283,4.085,597.283,6.616"/>
			<path clip-path="url(#SVGID_6_)" fill="#C0C0C0" d="M597.169,6.616c0,2.47-2.117,4.474-4.727,4.474
				c-2.612,0-4.728-2.004-4.728-4.474c0-2.471,2.116-4.475,4.728-4.475C595.053,2.141,597.169,4.146,597.169,6.616"/>
			<path clip-path="url(#SVGID_6_)" fill="#C2C3C3" d="M597.056,6.616c0,2.411-2.066,4.367-4.613,4.367
				c-2.548,0-4.614-1.956-4.614-4.367c0-2.412,2.065-4.367,4.614-4.367C594.989,2.25,597.056,4.205,597.056,6.616"/>
			<path clip-path="url(#SVGID_6_)" fill="#C4C5C4" d="M596.941,6.616c0,2.352-2.014,4.259-4.499,4.259
				c-2.486,0-4.501-1.907-4.501-4.259s2.015-4.258,4.501-4.258C594.927,2.358,596.941,4.264,596.941,6.616"/>
			<path clip-path="url(#SVGID_6_)" fill="#C6C8C8" d="M596.828,6.616c0,2.292-1.964,4.151-4.385,4.151
				c-2.423,0-4.387-1.859-4.387-4.151c0-2.292,1.964-4.151,4.387-4.151C594.863,2.465,596.828,4.324,596.828,6.616"/>
			<path clip-path="url(#SVGID_6_)" fill="#C9CACB" d="M596.713,6.616c0,2.233-1.911,4.043-4.271,4.043s-4.272-1.81-4.272-4.043
				s1.912-4.044,4.272-4.044S596.713,4.383,596.713,6.616"/>
			<path clip-path="url(#SVGID_6_)" fill="#CBCDCD" d="M596.602,6.616c0,2.173-1.864,3.936-4.159,3.936
				c-2.297,0-4.159-1.763-4.159-3.936c0-2.174,1.862-3.936,4.159-3.936C594.737,2.68,596.602,4.442,596.602,6.616"/>
			<path clip-path="url(#SVGID_6_)" fill="#CCCFD0" d="M596.487,6.616c0,2.114-1.812,3.828-4.044,3.828
				c-2.234,0-4.045-1.714-4.045-3.828c0-2.114,1.811-3.828,4.045-3.828C594.675,2.789,596.487,4.502,596.487,6.616"/>
			<path clip-path="url(#SVGID_6_)" fill="#D0D2D2" d="M596.372,6.616c0,2.054-1.759,3.72-3.93,3.72
				c-2.172,0-3.931-1.667-3.931-3.72c0-2.055,1.759-3.721,3.931-3.721C594.613,2.896,596.372,4.562,596.372,6.616"/>
			<path clip-path="url(#SVGID_6_)" fill="#D2D4D5" d="M596.259,6.616c0,1.994-1.71,3.612-3.817,3.612
				c-2.109,0-3.817-1.618-3.817-3.612c0-1.996,1.708-3.611,3.817-3.611C594.549,3.005,596.259,4.621,596.259,6.616"/>
		</g>
	</g>
	<polygon fill="#605F5E" points="591.81,9.372 591.81,7.215 589.531,7.215 589.531,6.018 591.81,6.018 591.81,3.861 593.075,3.861 
		593.075,6.018 595.354,6.018 595.354,7.215 593.075,7.215 593.075,9.372 	"/>
	<path fill="#221714" d="M592.965,3.965v1.948v0.208h0.219h2.06v0.989h-2.06h-0.219v0.207v1.949h-1.046V7.318V7.111H591.7h-2.06
		V6.122h2.06h0.219V5.913V3.965H592.965z M593.184,3.757H591.7v2.156h-2.279v1.405h2.279v2.157h1.484V7.318h2.278V5.913h-2.278
		V3.757z"/>
</g>
<g>
	<path fill="#AFAEAE" d="M583.259,65.979c0,3.654-3.13,6.617-6.99,6.617c-3.862,0-6.993-2.963-6.993-6.617
		c0-3.653,3.131-6.617,6.993-6.617C580.129,59.362,583.259,62.326,583.259,65.979"/>
	<ellipse fill="none" stroke="#929292" stroke-miterlimit="10" cx="576.268" cy="65.979" rx="6.991" ry="6.617"/>
	<path fill="#AFAEAE" d="M581.405,65.979c0,2.686-2.3,4.863-5.136,4.863c-2.838,0-5.138-2.178-5.138-4.863
		c0-2.684,2.3-4.862,5.138-4.862C579.105,61.117,581.405,63.294,581.405,65.979"/>
	<ellipse fill="none" stroke="#929292" stroke-miterlimit="10" cx="576.269" cy="65.979" rx="5.137" ry="4.863"/>
	<g>
		<g>
			<defs>
				<rect id="SVGID_7_" x="571.425" y="61.396" width="9.685" height="9.165"/>
			</defs>
			<clipPath id="SVGID_8_">
				<use xlink:href="#SVGID_7_"  overflow="visible"/>
			</clipPath>
			<path clip-path="url(#SVGID_8_)" fill="#BEBEBD" d="M581.109,65.979c0,2.531-2.167,4.582-4.839,4.582
				c-2.675,0-4.843-2.051-4.843-4.582c0-2.53,2.167-4.583,4.843-4.583C578.942,61.396,581.109,63.449,581.109,65.979"/>
			<path clip-path="url(#SVGID_8_)" fill="#C0C0C0" d="M580.996,65.979c0,2.471-2.117,4.475-4.727,4.475
				c-2.612,0-4.728-2.004-4.728-4.475c0-2.47,2.116-4.475,4.728-4.475C578.879,61.503,580.996,63.508,580.996,65.979"/>
			<path clip-path="url(#SVGID_8_)" fill="#C2C3C3" d="M580.883,65.979c0,2.412-2.066,4.367-4.613,4.367
				c-2.549,0-4.614-1.955-4.614-4.367c0-2.411,2.065-4.366,4.614-4.366C578.816,61.613,580.883,63.568,580.883,65.979"/>
			<path clip-path="url(#SVGID_8_)" fill="#C4C5C4" d="M580.768,65.979c0,2.354-2.014,4.26-4.498,4.26
				c-2.486,0-4.501-1.906-4.501-4.26c0-2.352,2.015-4.257,4.501-4.257C578.754,61.721,580.768,63.626,580.768,65.979"/>
			<path clip-path="url(#SVGID_8_)" fill="#C6C8C8" d="M580.654,65.979c0,2.293-1.964,4.152-4.385,4.152
				c-2.424,0-4.387-1.859-4.387-4.152c0-2.292,1.963-4.151,4.387-4.151C578.69,61.828,580.654,63.687,580.654,65.979"/>
			<path clip-path="url(#SVGID_8_)" fill="#C9CACB" d="M580.541,65.979c0,2.234-1.912,4.043-4.271,4.043
				c-2.36,0-4.272-1.809-4.272-4.043c0-2.233,1.912-4.043,4.272-4.043C578.629,61.935,580.541,63.746,580.541,65.979"/>
			<path clip-path="url(#SVGID_8_)" fill="#CBCDCD" d="M580.427,65.979c0,2.174-1.863,3.938-4.158,3.938
				c-2.298,0-4.159-1.764-4.159-3.938c0-2.173,1.861-3.936,4.159-3.936C578.564,62.042,580.427,63.805,580.427,65.979"/>
			<path clip-path="url(#SVGID_8_)" fill="#CCCFD0" d="M580.313,65.979c0,2.115-1.812,3.828-4.044,3.828
				c-2.234,0-4.045-1.713-4.045-3.828c0-2.114,1.811-3.827,4.045-3.827C578.501,62.152,580.313,63.865,580.313,65.979"/>
			<path clip-path="url(#SVGID_8_)" fill="#D0D2D2" d="M580.199,65.979c0,2.055-1.761,3.721-3.93,3.721
				c-2.172,0-3.931-1.666-3.931-3.721c0-2.053,1.759-3.72,3.931-3.72C578.438,62.258,580.199,63.925,580.199,65.979"/>
			<path clip-path="url(#SVGID_8_)" fill="#D2D4D5" d="M580.086,65.979c0,1.994-1.709,3.613-3.816,3.613
				c-2.11,0-3.818-1.619-3.818-3.613c0-1.995,1.708-3.612,3.818-3.612C578.376,62.367,580.086,63.984,580.086,65.979"/>
		</g>
	</g>
	<polygon fill="#605F5E" points="575.635,68.734 575.635,66.578 573.357,66.578 573.357,65.381 575.635,65.381 575.635,63.224 
		576.901,63.224 576.901,65.381 579.18,65.381 579.18,66.578 576.901,66.578 576.901,68.734 	"/>
	<path fill="#221714" d="M576.792,63.328v1.948v0.209h0.219h2.06v0.99h-2.06h-0.219v0.207v1.949h-1.046v-1.949v-0.207h-0.219h-2.06
		v-0.99h2.06h0.219v-0.209v-1.948H576.792z M577.011,63.121h-1.484v2.155h-2.279v1.406h2.279v2.156h1.484v-2.156h2.279v-1.406
		h-2.279V63.121z"/>
</g>
<g>
	<g>
		<path fill="#AFAEAE" d="M1265.137,10.583c0,3.654-3.131,6.617-6.992,6.617c-3.859,0-6.99-2.963-6.99-6.617s3.131-6.618,6.99-6.618
			C1262.006,3.965,1265.137,6.928,1265.137,10.583"/>
		<ellipse fill="none" stroke="#929292" stroke-miterlimit="10" cx="1258.146" cy="10.583" rx="6.991" ry="6.617"/>
		<path fill="#AFAEAE" d="M1263.281,10.583c0,2.685-2.299,4.862-5.137,4.862c-2.836,0-5.137-2.177-5.137-4.862
			s2.301-4.863,5.137-4.863C1260.982,5.72,1263.281,7.897,1263.281,10.583"/>
		<ellipse fill="none" stroke="#929292" stroke-miterlimit="10" cx="1258.145" cy="10.583" rx="5.137" ry="4.862"/>
		<g>
			<g>
				<defs>
					<rect id="SVGID_9_" x="1253.303" y="6" width="9.684" height="9.165"/>
				</defs>
				<clipPath id="SVGID_10_">
					<use xlink:href="#SVGID_9_"  overflow="visible"/>
				</clipPath>
				<path clip-path="url(#SVGID_10_)" fill="#BEBEBD" d="M1262.986,10.583c0,2.531-2.168,4.582-4.842,4.582
					s-4.842-2.051-4.842-4.582S1255.471,6,1258.145,6S1262.986,8.052,1262.986,10.583"/>
				<path clip-path="url(#SVGID_10_)" fill="#C0C0C0" d="M1262.873,10.583c0,2.47-2.117,4.474-4.729,4.474s-4.727-2.004-4.727-4.474
					c0-2.471,2.115-4.475,4.727-4.475S1262.873,8.111,1262.873,10.583"/>
				<path clip-path="url(#SVGID_10_)" fill="#C2C3C3" d="M1262.76,10.583c0,2.412-2.066,4.367-4.615,4.367
					c-2.547,0-4.613-1.956-4.613-4.367s2.066-4.367,4.613-4.367C1260.693,6.216,1262.76,8.171,1262.76,10.583"/>
				<path clip-path="url(#SVGID_10_)" fill="#C4C5C4" d="M1262.645,10.583c0,2.352-2.014,4.259-4.5,4.259s-4.5-1.907-4.5-4.259
					c0-2.353,2.014-4.258,4.5-4.258S1262.645,8.23,1262.645,10.583"/>
				<path clip-path="url(#SVGID_10_)" fill="#C6C8C8" d="M1262.531,10.583c0,2.292-1.965,4.152-4.387,4.152s-4.385-1.86-4.385-4.152
					c0-2.292,1.963-4.151,4.385-4.151S1262.531,8.29,1262.531,10.583"/>
				<path clip-path="url(#SVGID_10_)" fill="#C9CACB" d="M1262.416,10.583c0,2.233-1.91,4.042-4.271,4.042
					c-2.359,0-4.27-1.81-4.27-4.042c0-2.233,1.91-4.044,4.27-4.044C1260.506,6.539,1262.416,8.349,1262.416,10.583"/>
				<path clip-path="url(#SVGID_10_)" fill="#CBCDCD" d="M1262.305,10.583c0,2.173-1.863,3.936-4.16,3.936s-4.158-1.763-4.158-3.936
					s1.861-3.937,4.158-3.937S1262.305,8.409,1262.305,10.583"/>
				<path clip-path="url(#SVGID_10_)" fill="#CCCFD0" d="M1262.189,10.583c0,2.114-1.811,3.828-4.045,3.828
					c-2.232,0-4.043-1.714-4.043-3.828c0-2.114,1.811-3.828,4.043-3.828C1260.379,6.755,1262.189,8.468,1262.189,10.583"/>
				<path clip-path="url(#SVGID_10_)" fill="#D0D2D2" d="M1262.074,10.583c0,2.054-1.758,3.72-3.93,3.72
					c-2.17,0-3.93-1.667-3.93-3.72c0-2.055,1.76-3.721,3.93-3.721C1260.316,6.862,1262.074,8.528,1262.074,10.583"/>
				<path clip-path="url(#SVGID_10_)" fill="#D2D4D5" d="M1261.963,10.583c0,1.994-1.709,3.612-3.818,3.612
					c-2.107,0-3.816-1.618-3.816-3.612c0-1.996,1.709-3.612,3.816-3.612C1260.254,6.971,1261.963,8.587,1261.963,10.583"/>
			</g>
		</g>
		<polygon fill="#605F5E" points="1257.512,13.338 1257.512,11.182 1255.234,11.182 1255.234,9.984 1257.512,9.984 1257.512,7.827 
			1258.777,7.827 1258.777,9.984 1261.057,9.984 1261.057,11.182 1258.777,11.182 1258.777,13.338 		"/>
		<path fill="#221714" d="M1258.668,7.931v1.948v0.208h0.219h2.061v0.989h-2.061h-0.219v0.207v1.949h-1.047v-1.949v-0.207h-0.217
			h-2.061v-0.989h2.061h0.217V9.879V7.931H1258.668z M1258.887,7.724h-1.482v2.156h-2.279v1.405h2.279v2.157h1.482v-2.157h2.279
			V9.879h-2.279V7.724z"/>
	</g>
	<g>
		<path fill="#AFAEAE" d="M1265.137,113.039c0,3.654-3.131,6.617-6.992,6.617c-3.859,0-6.99-2.963-6.99-6.617
			s3.131-6.617,6.99-6.617C1262.006,106.422,1265.137,109.385,1265.137,113.039"/>
		<ellipse fill="none" stroke="#929292" stroke-miterlimit="10" cx="1258.146" cy="113.039" rx="6.991" ry="6.617"/>
		<path fill="#AFAEAE" d="M1263.281,113.039c0,2.686-2.299,4.863-5.137,4.863c-2.836,0-5.137-2.178-5.137-4.863
			s2.301-4.863,5.137-4.863C1260.982,108.176,1263.281,110.354,1263.281,113.039"/>
		<ellipse fill="none" stroke="#929292" stroke-miterlimit="10" cx="1258.145" cy="113.039" rx="5.137" ry="4.863"/>
		<g>
			<g>
				<defs>
					<rect id="SVGID_11_" x="1253.303" y="108.457" width="9.684" height="9.164"/>
				</defs>
				<clipPath id="SVGID_12_">
					<use xlink:href="#SVGID_11_"  overflow="visible"/>
				</clipPath>
				<path clip-path="url(#SVGID_12_)" fill="#BEBEBD" d="M1262.986,113.039c0,2.531-2.168,4.582-4.842,4.582
					s-4.842-2.051-4.842-4.582s2.168-4.582,4.842-4.582S1262.986,110.508,1262.986,113.039"/>
				<path clip-path="url(#SVGID_12_)" fill="#C0C0C0" d="M1262.873,113.039c0,2.471-2.117,4.475-4.729,4.475
					s-4.727-2.004-4.727-4.475s2.115-4.475,4.727-4.475S1262.873,110.568,1262.873,113.039"/>
				<path clip-path="url(#SVGID_12_)" fill="#C2C3C3" d="M1262.76,113.039c0,2.412-2.066,4.367-4.615,4.367
					c-2.547,0-4.613-1.955-4.613-4.367s2.066-4.365,4.613-4.365C1260.693,108.674,1262.76,110.627,1262.76,113.039"/>
				<path clip-path="url(#SVGID_12_)" fill="#C4C5C4" d="M1262.645,113.039c0,2.352-2.014,4.26-4.5,4.26s-4.5-1.908-4.5-4.26
					s2.014-4.258,4.5-4.258S1262.645,110.688,1262.645,113.039"/>
				<path clip-path="url(#SVGID_12_)" fill="#C6C8C8" d="M1262.531,113.039c0,2.293-1.965,4.152-4.387,4.152
					s-4.385-1.859-4.385-4.152s1.963-4.15,4.385-4.15S1262.531,110.746,1262.531,113.039"/>
				<path clip-path="url(#SVGID_12_)" fill="#C9CACB" d="M1262.416,113.039c0,2.232-1.91,4.043-4.271,4.043
					c-2.359,0-4.27-1.811-4.27-4.043s1.91-4.043,4.27-4.043C1260.506,108.996,1262.416,110.807,1262.416,113.039"/>
				<path clip-path="url(#SVGID_12_)" fill="#CBCDCD" d="M1262.305,113.039c0,2.174-1.863,3.936-4.16,3.936
					s-4.158-1.762-4.158-3.936s1.861-3.936,4.158-3.936S1262.305,110.865,1262.305,113.039"/>
				<path clip-path="url(#SVGID_12_)" fill="#CCCFD0" d="M1262.189,113.039c0,2.113-1.811,3.828-4.045,3.828
					c-2.232,0-4.043-1.715-4.043-3.828s1.811-3.828,4.043-3.828C1260.379,109.211,1262.189,110.926,1262.189,113.039"/>
				<path clip-path="url(#SVGID_12_)" fill="#D0D2D2" d="M1262.074,113.039c0,2.055-1.758,3.721-3.93,3.721
					c-2.17,0-3.93-1.666-3.93-3.721s1.76-3.721,3.93-3.721C1260.316,109.318,1262.074,110.984,1262.074,113.039"/>
				<path clip-path="url(#SVGID_12_)" fill="#D2D4D5" d="M1261.963,113.039c0,1.994-1.709,3.611-3.818,3.611
					c-2.107,0-3.816-1.617-3.816-3.611c0-1.996,1.709-3.611,3.816-3.611C1260.254,109.428,1261.963,111.043,1261.963,113.039"/>
			</g>
		</g>
		<polygon fill="#605F5E" points="1257.512,115.795 1257.512,113.639 1255.234,113.639 1255.234,112.441 1257.512,112.441 
			1257.512,110.285 1258.777,110.285 1258.777,112.441 1261.057,112.441 1261.057,113.639 1258.777,113.639 1258.777,115.795 		"/>
		<path fill="#221714" d="M1258.668,110.389v1.947v0.209h0.219h2.061v0.99h-2.061h-0.219v0.205v1.949h-1.047v-1.949v-0.205h-0.217
			h-2.061v-0.99h2.061h0.217v-0.209v-1.947H1258.668z M1258.887,110.18h-1.482v2.156h-2.279v1.404h2.279v2.158h1.482v-2.158h2.279
			v-1.404h-2.279V110.18z"/>
	</g>
</g>
<linearGradient id="SVGID_13_" gradientUnits="userSpaceOnUse" x1="872.7197" y1="63.0698" x2="877.2168" y2="63.0698">
	<stop  offset="0" style="stop-color:#515150"/>
	<stop  offset="0.2559" style="stop-color:#B1B4B5"/>
	<stop  offset="0.543" style="stop-color:#FFFFFF"/>
	<stop  offset="0.8724" style="stop-color:#AAA9A9"/>
	<stop  offset="1" style="stop-color:#515150"/>
</linearGradient>
<rect x="872.72" y="-0.001" fill="url(#SVGID_13_)" width="4.497" height="126.142"/>
<radialGradient id="SVGID_14_" cx="1074.4473" cy="248.6641" r="6.6064" gradientTransform="matrix(1 0 0 0.9414 0 -169.2007)" gradientUnits="userSpaceOnUse">
	<stop  offset="0" style="stop-color:#FFFFFF"/>
	<stop  offset="1" style="stop-color:#8DC21F"/>
</radialGradient>
<ellipse fill="url(#SVGID_14_)" stroke="#030000" stroke-width="0.5" stroke-miterlimit="10" cx="1074.448" cy="64.891" rx="6.606" ry="6.221"/>
<radialGradient id="SVGID_15_" cx="1107.6855" cy="249.2695" r="6.6064" gradientTransform="matrix(1 0 0 0.9414 0 -169.2007)" gradientUnits="userSpaceOnUse">
	<stop  offset="0" style="stop-color:#FFFFFF"/>
	<stop  offset="1" style="stop-color:#C30D23"/>
</radialGradient>
<ellipse fill="url(#SVGID_15_)" stroke="#030000" stroke-width="0.5" stroke-miterlimit="10" cx="1107.685" cy="65.461" rx="6.606" ry="6.221"/>
<text transform="matrix(1.0623 0 0 1 1061.3525 49.4536)" fill="#E0E0DF" font-family="'SimHei'" font-size="9.2878">AUDIO</text>
<text transform="matrix(1.0623 0 0 1 1094.3525 49.4536)" fill="#E0E0DF" font-family="'SimHei'" font-size="9.2878">POWER</text>
<text transform="matrix(1.0623 0 0 1 31.6855 25.7734)" fill="#FFFFFF" font-family="'SimHei'" font-size="15.4035">BHAA48</text>
<text transform="matrix(1.0623 0 0 1 73.314 42.7178)" fill="#FFFFFF" font-family="'SimHei'" font-size="15.4035">IN1</text>
<text transform="matrix(1.0623 0 0 1 128.9805 42.7178)" fill="#FFFFFF" font-family="'SimHei'" font-size="15.4035">IN2</text>
<text transform="matrix(1.0623 0 0 1 184.647 42.7178)" fill="#FFFFFF" font-family="'SimHei'" font-size="15.4035">IN3</text>
<text transform="matrix(1.0623 0 0 1 240.3135 42.7178)" fill="#FFFFFF" font-family="'SimHei'" font-size="15.4035">IN4</text>
<text transform="matrix(1.0623 0 0 1 295.98 42.7178)" fill="#FFFFFF" font-family="'SimHei'" font-size="15.4035">IN5</text>
<text transform="matrix(1.0623 0 0 1 600.1812 42.7178)" fill="#FFFFFF" font-family="'SimHei'" font-size="15.4035">IN1</text>
<text transform="matrix(1.0623 0 0 1 655.8477 42.7178)" fill="#FFFFFF" font-family="'SimHei'" font-size="15.4035">IN2</text>
<text transform="matrix(1.0623 0 0 1 711.5137 42.7178)" fill="#FFFFFF" font-family="'SimHei'" font-size="15.4035">IN3</text>
<text transform="matrix(1.0623 0 0 1 767.1807 42.7178)" fill="#FFFFFF" font-family="'SimHei'" font-size="15.4035">IN4</text>
<text transform="matrix(1.0623 0 0 1 822.8477 42.7178)" fill="#FFFFFF" font-family="'SimHei'" font-size="15.4035">IN5</text>
<text transform="matrix(1.0623 0 0 1 890.7852 42.7178)" fill="#FFFFFF" font-family="'SimHei'" font-size="15.4035">OUT1</text>
<text transform="matrix(1.0623 0 0 1 945.4648 42.7178)" fill="#FFFFFF" font-family="'SimHei'" font-size="15.4035">OUT2</text>
<text transform="matrix(1.0623 0 0 1 351.6465 42.7178)" fill="#FFFFFF" font-family="'SimHei'" font-size="15.4035">IN6</text>
<text transform="matrix(1.0623 0 0 1 407.313 42.7178)" fill="#FFFFFF" font-family="'SimHei'" font-size="15.4035">IN7</text>
<text transform="matrix(1.0623 0 0 1 462.9795 42.7178)" fill="#FFFFFF" font-family="'SimHei'" font-size="15.4035">IN8</text>
<text transform="matrix(1.0623 0 0 1 518.646 42.7178)" fill="#FFFFFF" font-family="'SimHei'" font-size="15.4035">IN9</text>
</svg>
