<?xml version="1.0" encoding="utf-8"?>
<!-- Generator: Adobe Illustrator 16.0.0, SVG Export Plug-In . SVG Version: 6.00 Build 0)  -->
<!DOCTYPE svg PUBLIC "-//W3C//DTD SVG 1.1//EN" "http://www.w3.org/Graphics/SVG/1.1/DTD/svg11.dtd">
<svg version="1.1" id="图层_1" xmlns="http://www.w3.org/2000/svg" xmlns:xlink="http://www.w3.org/1999/xlink" x="0px" y="0px"
	 width="27.339px" height="61.468px" viewBox="0 0 27.339 61.468" enable-background="new 0 0 27.339 61.468" xml:space="preserve">
<g>
	<path fill="#65645D" d="M27.339,56.779c0,2.59-2.099,4.688-4.687,4.688H4.687C2.098,61.468,0,59.369,0,56.779L0,4.688
		C0,2.1,2.098,0,4.687,0h17.966c2.588,0,4.687,2.099,4.687,4.688V56.779z"/>
	<path fill="#98968E" d="M26.837,56.186c0,2.494-2.021,4.516-4.515,4.516H5.016c-2.493,0-4.515-2.021-4.515-4.516V6.021
		c0-2.493,2.021-4.514,4.515-4.514h17.307c2.494,0,4.515,2.021,4.515,4.514V56.186z"/>
	<path fill="#323333" d="M23.169,49.526c0,0.846-0.697,1.53-1.558,1.53H6.042c-0.86,0-1.558-0.685-1.558-1.53V13.712
		c0-0.846,0.697-1.531,1.558-1.531h15.57c0.86,0,1.558,0.686,1.558,1.531V49.526L23.169,49.526z"/>
	<path fill="#EE7B2F" d="M22.857,49.216c0,0.83-0.674,1.505-1.505,1.505H6.303c-0.832,0-1.506-0.675-1.506-1.505V14.02
		c0-0.831,0.674-1.505,1.506-1.505h15.049c0.831,0,1.505,0.674,1.505,1.505V49.216z"/>
	<path fill="#CA5F24" d="M22.857,49.933c0,0.434-0.674,0.788-1.505,0.788H6.303c-0.832,0-1.506-0.354-1.506-0.788V31.521
		c0-0.435,0.674-0.787,1.506-0.787h15.049c0.831,0,1.505,0.353,1.505,0.787V49.933z"/>
	<text transform="matrix(1 0 0 1 8.3608 23.4058)" font-family="'ArialMT'" font-size="7.5246">ON</text>
	<text transform="matrix(1 0 0 1 6.772 42.1343)" font-family="'ArialMT'" font-size="7.5246">OFF</text>
</g>
</svg>
