<?xml version="1.0" encoding="utf-8"?>
<!-- Generator: Adobe Illustrator 16.0.0, SVG Export Plug-In . SVG Version: 6.00 Build 0)  -->
<!DOCTYPE svg PUBLIC "-//W3C//DTD SVG 1.1//EN" "http://www.w3.org/Graphics/SVG/1.1/DTD/svg11.dtd">
<svg version="1.1" id="图层_1" xmlns="http://www.w3.org/2000/svg" xmlns:xlink="http://www.w3.org/1999/xlink" x="0px" y="0px"
	 width="61.342px" height="32.291px" viewBox="0 0 61.342 32.291" enable-background="new 0 0 61.342 32.291" xml:space="preserve">
<g>
	<g>
		<g>
			<defs>
				<rect id="SVGID_1_" y="1.759" width="59.812" height="29.458"/>
			</defs>
			<clipPath id="SVGID_2_">
				<use xlink:href="#SVGID_1_"  overflow="visible"/>
			</clipPath>
			
				<linearGradient id="SVGID_3_" gradientUnits="userSpaceOnUse" x1="-820.6719" y1="-279.2241" x2="-819.6725" y2="-279.2241" gradientTransform="matrix(-79.8244 0 0 -79.8244 -65439.0313 -22272.3594)">
				<stop  offset="0" style="stop-color:#103580"/>
				<stop  offset="0.2581" style="stop-color:#0C1D4C"/>
				<stop  offset="1" style="stop-color:#000021"/>
			</linearGradient>
			<rect y="1.759" clip-path="url(#SVGID_2_)" fill="url(#SVGID_3_)" width="59.812" height="29.458"/>
		</g>
	</g>
	<g>
		<g>
			<defs>
				<path id="SVGID_4_" d="M1.462,31.291h58.421c0.283,0,0.451-0.115,0.459-0.073V1.135c-0.058-0.05-0.215-0.133-0.459-0.133H1.462
					C1.177,1.002,1.009,1.114,1,1.073L0.98,31.132C1.009,31.175,1.177,31.291,1.462,31.291"/>
			</defs>
			<clipPath id="SVGID_5_">
				<use xlink:href="#SVGID_4_"  overflow="visible"/>
			</clipPath>
			
				<linearGradient id="SVGID_6_" gradientUnits="userSpaceOnUse" x1="-804.0791" y1="-254.5024" x2="-803.0791" y2="-254.5024" gradientTransform="matrix(58.6222 0 0 58.6222 47138.4766 14935.6445)">
				<stop  offset="0" style="stop-color:#2E2624"/>
				<stop  offset="1" style="stop-color:#342E2C"/>
			</linearGradient>
			<rect x="0.98" y="1.002" clip-path="url(#SVGID_5_)" fill="url(#SVGID_6_)" width="59.362" height="30.289"/>
		</g>
	</g>
	<path d="M59.342,2v28.291H2V2H59.342z M0,1.073v30.145c0,0.59,0.654,1.073,1.462,1.073h58.421c0.808,0,1.459-0.483,1.459-1.073
		V1.073C61.342,0.48,60.69,0,59.883,0H1.462C0.654,0,0,0.48,0,1.073"/>
	<path fill="#030303" d="M51.547,5.48c0.578,0,1.043,0.317,1.043,0.709v19.912c0,0.392-0.465,0.709-1.043,0.709H9.798
		c-0.576,0-1.044-0.317-1.044-0.709V6.189c0-0.392,0.468-0.709,1.044-0.709H51.547z"/>
	<g>
		<g>
			<defs>
				<path id="SVGID_7_" d="M11.649,24.785c0,0.341,0.407,0.614,0.908,0.614h18.115V6.89H12.557c-0.501,0-0.908,0.276-0.908,0.615
					V24.785z"/>
			</defs>
			<clipPath id="SVGID_8_">
				<use xlink:href="#SVGID_7_"  overflow="visible"/>
			</clipPath>
			
				<linearGradient id="SVGID_9_" gradientUnits="userSpaceOnUse" x1="-788.8535" y1="-231.8203" x2="-787.8535" y2="-231.8203" gradientTransform="matrix(22.6221 0 0 22.6221 17865.2344 5260.4126)">
				<stop  offset="0" style="stop-color:#261C19"/>
				<stop  offset="1" style="stop-color:#514E4E"/>
			</linearGradient>
			<rect x="11.649" y="6.89" clip-path="url(#SVGID_8_)" fill="url(#SVGID_9_)" width="19.023" height="18.511"/>
		</g>
	</g>
	<path fill="#050505" d="M30.672,25.399h18.116c0.503,0,0.904-0.274,0.904-0.613V7.504c0-0.339-0.401-0.613-0.904-0.613H30.672
		V25.399z"/>
	<path fill="#121212" d="M30.672,25.399h18.116c0.503,0,0.904-0.274,0.904-0.613V7.504c0-0.339-0.401-0.613-0.904-0.613H30.672
		V25.399z"/>
	<rect x="30.672" y="6.89" fill="#030303" width="0.783" height="18.509"/>
	<rect x="16.597" y="15.477" fill="#DBDBDB" width="9.129" height="2.021"/>
	<circle fill="none" stroke="#DDDDDD" stroke-miterlimit="10" cx="40.229" cy="16.095" r="2.35"/>
</g>
</svg>
