<?xml version="1.0" encoding="utf-8"?>
<!-- Generator: Adobe Illustrator 16.0.0, SVG Export Plug-In . SVG Version: 6.00 Build 0)  -->
<!DOCTYPE svg PUBLIC "-//W3C//DTD SVG 1.1//EN" "http://www.w3.org/Graphics/SVG/1.1/DTD/svg11.dtd">
<svg version="1.1" id="图层_1" xmlns="http://www.w3.org/2000/svg" xmlns:xlink="http://www.w3.org/1999/xlink" x="0px" y="0px"
	 width="22.677px" height="22.678px" viewBox="0 0 22.677 22.678" enable-background="new 0 0 22.677 22.678" xml:space="preserve">
<g>
	<path fill="#AD3C3B" d="M22.588,18.049c0,2.507-2.031,4.54-4.537,4.54H4.629c-2.508,0-4.54-2.033-4.54-4.54V4.627
		c0-2.507,2.032-4.539,4.54-4.539h13.42c2.508,0,4.539,2.032,4.539,4.539V18.049z"/>
	<g>
		<path fill="#F4F4F4" d="M11.34,18.818c-3.674,0-6.664-2.989-6.664-6.662s2.99-6.662,6.664-6.662s6.662,2.988,6.662,6.662
			S15.014,18.818,11.34,18.818z M11.34,6.566c-3.084,0-5.592,2.508-5.592,5.59s2.508,5.591,5.592,5.591
			c3.082,0,5.59-2.508,5.59-5.591S14.422,6.566,11.34,6.566z"/>
	</g>
	<path fill="#EFEFEF" d="M12.086,8.531c0,0.367-0.336,0.664-0.746,0.664l0,0c-0.414,0-0.748-0.297-0.748-0.664V4.016
		c0-0.367,0.334-0.665,0.748-0.665l0,0c0.41,0,0.746,0.297,0.746,0.665V8.531z"/>
</g>
</svg>
