<?xml version="1.0" encoding="utf-8"?>
<!-- Generator: Adobe Illustrator 16.0.0, SVG Export Plug-In . SVG Version: 6.00 Build 0)  -->
<!DOCTYPE svg PUBLIC "-//W3C//DTD SVG 1.1//EN" "http://www.w3.org/Graphics/SVG/1.1/DTD/svg11.dtd">
<svg version="1.1" id="图层_1" xmlns="http://www.w3.org/2000/svg" xmlns:xlink="http://www.w3.org/1999/xlink" x="0px" y="0px"
	 width="22.677px" height="22.678px" viewBox="0 0 22.677 22.678" enable-background="new 0 0 22.677 22.678" xml:space="preserve">
<g>
	<g>
		<path fill="#9CB935" d="M11.338,22.589c-5.146,0-9.334-4.188-9.334-9.335c0-5.147,4.188-9.334,9.334-9.334
			s9.334,4.188,9.334,9.334C20.672,18.401,16.484,22.589,11.338,22.589z M11.338,6.634c-3.648,0-6.617,2.969-6.617,6.619
			c0,3.65,2.969,6.62,6.617,6.62c3.65,0,6.619-2.97,6.619-6.62C17.957,9.604,14.988,6.634,11.338,6.634z"/>
	</g>
	<path fill="#9CB935" d="M13.238,11.36c0,1.05-0.85,1.9-1.9,1.9l0,0c-1.049,0-1.9-0.851-1.9-1.9V1.989c0-1.05,0.852-1.9,1.9-1.9l0,0
		c1.051,0,1.9,0.85,1.9,1.9V11.36z"/>
</g>
</svg>
