<?xml version="1.0" encoding="utf-8"?>
<!-- Generator: Adobe Illustrator 16.0.0, SVG Export Plug-In . SVG Version: 6.00 Build 0)  -->
<!DOCTYPE svg PUBLIC "-//W3C//DTD SVG 1.1//EN" "http://www.w3.org/Graphics/SVG/1.1/DTD/svg11.dtd">
<svg version="1.1" id="图层_1" xmlns="http://www.w3.org/2000/svg" xmlns:xlink="http://www.w3.org/1999/xlink" x="0px" y="0px"
	 width="1275.59px" height="252.28px" viewBox="0 0 1275.59 252.28" enable-background="new 0 0 1275.59 252.28"
	 xml:space="preserve">
<rect fill="#E5E4E2" width="1275.59" height="252.284"/>
<rect y="216.086" fill="#403A71" width="1275.59" height="36.198"/>
<rect y="196.287" fill="#403A71" width="1275.59" height="7.7"/>
<g>
	<polygon fill="#D1816D" points="173.169,35.877 181.076,47.149 148.944,73.561 181.076,101.647 173.338,111.749 142.72,73.057 	"/>
	<polygon fill="#433E72" points="152.477,73.813 187.637,56.57 197.899,69.86 161.898,73.813 197.899,81.468 186.796,94.926 	"/>
</g>
<text transform="matrix(1 0 0 1 96.7451 147.9531)" fill="#433E72" font-family="'Corbel-Bold'" font-size="38.6565">C A S C O</text>
<g>
	<path fill="#433E72" d="M419.432,151.112c0,2.121-1.751,3.841-3.91,3.841h-62.565c-2.159,0-3.91-1.72-3.91-3.841V35.521
		c0-2.121,1.751-3.84,3.91-3.84h62.565c2.159,0,3.91,1.72,3.91,3.84V151.112z"/>
	<g>
		<circle fill="#FFFFFF" cx="384.238" cy="53.888" r="4.333"/>
		<text transform="matrix(1 0 0 1 370.2261 137.6191)" fill="#FFFFFF" font-family="'Corbel-Bold'" font-size="10.0009">COMA</text>
	</g>
</g>
<g>
	<path fill="#433E72" d="M510.099,151.112c0,2.121-1.751,3.841-3.91,3.841h-62.565c-2.159,0-3.91-1.72-3.91-3.841V35.521
		c0-2.121,1.751-3.84,3.91-3.84h62.565c2.159,0,3.91,1.72,3.91,3.84V151.112z"/>
	<g>
		<circle fill="#FFFFFF" cx="474.905" cy="53.888" r="4.333"/>
		<text transform="matrix(1 0 0 1 460.8931 137.6191)" fill="#FFFFFF" font-family="'Corbel-Bold'" font-size="10.0009">COMB</text>
	</g>
</g>
<g>
	<path fill="#433E72" d="M1203.063,151.112c0,2.121-1.751,3.841-3.91,3.841h-62.565c-2.159,0-3.91-1.72-3.91-3.841V35.521
		c0-2.121,1.751-3.84,3.91-3.84h62.565c2.159,0,3.91,1.72,3.91,3.84V151.112z"/>
	<g>
		<circle fill="#FFFFFF" cx="1167.87" cy="53.888" r="4.333"/>
		<text transform="matrix(1 0 0 1 1150.8574 137.6191)" fill="#FFFFFF" font-family="'Corbel-Bold'" font-size="10.0009">POWER</text>
	</g>
</g>
<g>
	<path fill="none" stroke="#8E8E8E" stroke-width="3" d="M853.037,102.147c0,2.761-2.238,5-5,5h-23.332c-2.762,0-5-2.239-5-5V45.48
		c0-2.761,2.238-5,5-5h23.332c2.762,0,5,2.239,5,5V102.147z"/>
	<text transform="matrix(1 0 0 1 833.084 59.7197)" fill="#8D8D8D" font-family="'Corbel-Bold'" font-size="10.0009">A</text>
</g>
<g>
	<path fill="none" stroke="#8E8E8E" stroke-width="3" d="M1042.304,102.147c0,2.761-2.238,5-5,5h-23.333c-2.762,0-5-2.239-5-5V45.48
		c0-2.761,2.238-5,5-5h23.333c2.762,0,5,2.239,5,5V102.147z"/>
	<text transform="matrix(1 0 0 1 1022.5215 61.3862)" fill="#8D8D8D" font-family="'Corbel-Bold'" font-size="10.0009">B</text>
</g>
<text transform="matrix(1 0 0 1 909.7168 90.0112)" font-family="'Corbel-Bold'" font-size="17.2042">AUTO</text>
<g>
	<circle fill="#585854" stroke="#101010" stroke-width="1.5" cx="929.586" cy="141.395" r="31.5"/>
	<circle fill="#FFFFFF" stroke="#101010" stroke-width="1.5" cx="929.586" cy="141.395" r="21.357"/>
</g>
<g>
	<text transform="matrix(1 0 0 1 876.8818 118.3491)" font-family="'Corbel-Bold'" font-size="17.5065">A</text>
	<text transform="matrix(1 0 0 1 971.3818 118.3491)" font-family="'Corbel-Bold'" font-size="17.5065">B</text>
</g>
<g>
	<g>
		<path fill="#433E72" d="M592.095,180.857c0.313-0.905,0.344-1.637,0.093-2.196c-0.251-0.56-0.699-1.016-1.341-1.371
			c-0.643-0.355-1.402-0.644-2.278-0.865c-0.876-0.223-1.803-0.439-2.78-0.652c-1.285-0.302-2.488-0.661-3.608-1.079
			c-1.122-0.417-2.037-0.994-2.746-1.73s-1.154-1.673-1.335-2.81c-0.182-1.136,0.02-2.556,0.604-4.261
			c0.645-1.881,1.536-3.519,2.674-4.912s2.432-2.548,3.881-3.462s3.015-1.598,4.7-2.051c1.684-0.452,3.482-0.679,5.396-0.679
			c1.913,0,3.77,0.187,5.572,0.56c1.801,0.373,3.297,0.852,4.488,1.438l-1.941,5.592c-1.605-0.728-3.203-1.256-4.794-1.584
			s-3.137-0.493-4.638-0.493c-2.161,0-3.961,0.391-5.4,1.172c-1.438,0.781-2.426,1.953-2.963,3.515
			c-0.311,0.905-0.376,1.651-0.194,2.237c0.182,0.586,0.537,1.069,1.065,1.451c0.527,0.382,1.18,0.688,1.956,0.919
			c0.776,0.23,1.612,0.443,2.507,0.639c1.404,0.319,2.726,0.688,3.962,1.105c1.236,0.417,2.26,0.998,3.071,1.744
			c0.81,0.745,1.319,1.717,1.526,2.915c0.207,1.198-0.014,2.729-0.662,4.594c-0.666,1.917-1.599,3.577-2.797,4.979
			c-1.198,1.402-2.608,2.561-4.23,3.475c-1.623,0.915-3.442,1.594-5.46,2.037s-4.136,0.666-6.355,0.666
			c-1.935,0-3.773-0.191-5.515-0.573c-1.742-0.381-3.117-0.918-4.122-1.61l1.889-5.512c1.499,0.763,3.023,1.317,4.575,1.664
			c1.551,0.346,3.216,0.519,4.993,0.519c1.03,0,2.072-0.084,3.125-0.253c1.054-0.168,2.046-0.456,2.979-0.865
			c0.932-0.408,1.76-0.963,2.482-1.664S591.738,181.888,592.095,180.857z"/>
		<path fill="#433E72" d="M628.314,191.083h-6.524l10.64-30.169h-11.572l1.913-5.459h29.711l-1.944,5.459h-11.545L628.314,191.083z"
			/>
		<path fill="#433E72" d="M691.422,164.935c-0.563,1.544-1.425,2.96-2.589,4.247s-2.702,2.356-4.616,3.209l-0.039,0.106
			c0.78,0.302,1.456,0.688,2.023,1.158c0.568,0.471,0.997,1.029,1.286,1.678c0.289,0.647,0.433,1.38,0.429,2.196
			s-0.189,1.73-0.559,2.743c-0.317,0.869-0.795,1.802-1.434,2.796s-1.473,1.957-2.506,2.889c-1.032,0.932-2.268,1.789-3.707,2.569
			c-1.438,0.781-3.12,1.403-5.046,1.864c-0.482,0.106-1.002,0.204-1.558,0.293c-0.557,0.089-1.165,0.164-1.827,0.227
			c-0.661,0.063-1.388,0.106-2.178,0.133c-0.791,0.026-1.675,0.04-2.651,0.04h-10.359l12.801-35.628h12.469
			c2.663,0,4.712,0.267,6.146,0.799c1.073,0.391,1.942,0.901,2.606,1.531c0.665,0.63,1.146,1.331,1.446,2.104
			c0.299,0.772,0.431,1.589,0.395,2.449C691.916,163.199,691.739,164.064,691.422,164.935z M676.081,170.127
			c1.783,0,3.175-0.178,4.178-0.532c1.128-0.408,2.032-0.973,2.712-1.691s1.186-1.531,1.514-2.437
			c0.342-0.94,0.405-1.779,0.19-2.517c-0.215-0.736-0.838-1.282-1.87-1.637c-0.43-0.143-0.956-0.244-1.576-0.307
			c-0.621-0.062-1.404-0.093-2.351-0.093h-5.384l-3.322,9.213H676.081z M668.204,175.586l-3.62,10.038h4.267
			c1.137,0,2.125-0.03,2.966-0.093c0.84-0.063,1.578-0.164,2.217-0.307c0.978-0.195,1.828-0.457,2.551-0.785
			c0.724-0.328,1.349-0.701,1.873-1.118s0.959-0.879,1.304-1.385c0.343-0.506,0.618-1.043,0.825-1.611
			c0.36-0.994,0.4-1.864,0.12-2.609c-0.282-0.745-0.941-1.305-1.981-1.678c-0.46-0.159-1.022-0.274-1.691-0.346
			c-0.668-0.071-1.546-0.106-2.633-0.106H668.204z"/>
		<path fill="#433E72" d="M721.906,170.793l15.229-15.338h7.293l-21.492,21.275l-5.327,14.353h-6.524l5.31-14.353l-5.726-21.275
			h7.294l3.863,15.338H721.906z"/>
	</g>
</g>
</svg>
