<?xml version="1.0" encoding="utf-8"?>
<!-- Generator: Adobe Illustrator 16.0.0, SVG Export Plug-In . SVG Version: 6.00 Build 0)  -->
<!DOCTYPE svg PUBLIC "-//W3C//DTD SVG 1.1//EN" "http://www.w3.org/Graphics/SVG/1.1/DTD/svg11.dtd">
<svg version="1.1" id="图层_1" xmlns="http://www.w3.org/2000/svg" xmlns:xlink="http://www.w3.org/1999/xlink" x="0px" y="0px"
	 width="1275.6px" height="126.1px" viewBox="0 0 1275.6 126.1" enable-background="new 0 0 1275.6 126.1" xml:space="preserve">
<rect y="-0.021" fill="#B7B7B7" width="1275.6" height="126.121"/>
<g>
	<path fill="#4F4F4F" d="M93.962,79.406c-3.615,4.032-9.82,4.37-13.861,0.75c-4.036-3.62-4.377-9.827-0.76-13.858
		c3.616-4.033,9.821-4.369,13.86-0.749C97.239,69.168,97.581,75.372,93.962,79.406"/>
	<path fill="#AFAFAF" d="M92.024,77.668c-2.658,2.963-7.217,3.211-10.186,0.551C78.872,75.56,78.62,71,81.282,68.037
		c2.654-2.964,7.217-3.21,10.182-0.55C94.431,70.145,94.681,74.706,92.024,77.668"/>
	<path fill="none" stroke="#939393" stroke-miterlimit="10" d="M92.024,77.668c-2.658,2.963-7.217,3.211-10.186,0.551
		C78.872,75.56,78.62,71,81.282,68.037c2.654-2.964,7.217-3.21,10.182-0.55C94.431,70.145,94.681,74.706,92.024,77.668z"/>
	<g>
		<g>
			<defs>
				
					<rect id="SVGID_1_" x="79.848" y="66.056" transform="matrix(-0.7445 -0.6676 0.6676 -0.7445 102.5288 184.9377)" width="13.605" height="13.589"/>
			</defs>
			<clipPath id="SVGID_2_">
				<use xlink:href="#SVGID_1_"  overflow="visible"/>
			</clipPath>
			<path clip-path="url(#SVGID_2_)" fill="#BEBFBF" d="M91.716,77.392c-2.504,2.792-6.805,3.024-9.6,0.519
				c-2.797-2.507-3.032-6.804-0.527-9.598c2.506-2.793,6.801-3.024,9.596-0.518C93.983,70.302,94.22,74.599,91.716,77.392"/>
			<path clip-path="url(#SVGID_2_)" fill="#C0C1C1" d="M91.595,77.285c-2.445,2.727-6.641,2.953-9.371,0.505
				c-2.73-2.447-2.961-6.643-0.516-9.37c2.449-2.728,6.641-2.954,9.371-0.506C93.812,70.361,94.042,74.556,91.595,77.285"/>
			<path clip-path="url(#SVGID_2_)" fill="#C3C4C4" d="M91.476,77.179c-2.387,2.661-6.482,2.882-9.145,0.493
				c-2.668-2.388-2.889-6.482-0.504-9.145c2.387-2.661,6.482-2.884,9.146-0.496C93.64,70.422,93.862,74.517,91.476,77.179"/>
			<path clip-path="url(#SVGID_2_)" fill="#C5C6C6" d="M91.358,77.07c-2.328,2.596-6.322,2.811-8.922,0.483
				c-2.598-2.332-2.82-6.325-0.49-8.919c2.328-2.597,6.32-2.813,8.92-0.484S93.687,74.476,91.358,77.07"/>
			<path clip-path="url(#SVGID_2_)" fill="#C7C9C9" d="M91.237,76.966c-2.268,2.528-6.162,2.739-8.695,0.468
				c-2.531-2.271-2.746-6.165-0.477-8.693c2.27-2.531,6.162-2.74,8.695-0.471C93.292,70.541,93.507,74.435,91.237,76.966"/>
			<path clip-path="url(#SVGID_2_)" fill="#CACBCB" d="M91.12,76.857c-2.211,2.463-6.002,2.67-8.471,0.457
				c-2.467-2.212-2.676-6.003-0.467-8.467c2.213-2.467,6.006-2.67,8.471-0.459C93.12,70.602,93.327,74.392,91.12,76.857"/>
			<path clip-path="url(#SVGID_2_)" fill="#CCCECE" d="M91.001,76.751c-2.152,2.397-5.844,2.597-8.244,0.445
				c-2.402-2.153-2.605-5.844-0.453-8.241c2.15-2.4,5.84-2.602,8.244-0.447C92.95,70.662,93.151,74.351,91.001,76.751"/>
			<path clip-path="url(#SVGID_2_)" fill="#CED0D0" d="M90.88,76.645c-2.09,2.333-5.682,2.528-8.016,0.432
				c-2.336-2.093-2.535-5.684-0.441-8.016c2.092-2.334,5.682-2.527,8.02-0.434C92.776,70.72,92.974,74.312,90.88,76.645"/>
			<path clip-path="url(#SVGID_2_)" fill="#D1D3D3" d="M90.761,76.538c-2.033,2.267-5.52,2.455-7.791,0.42s-2.461-5.522-0.43-7.79
				c2.035-2.267,5.523-2.457,7.793-0.422C92.604,70.781,92.796,74.271,90.761,76.538"/>
			<path clip-path="url(#SVGID_2_)" fill="#D3D5D5" d="M90.644,76.43c-1.975,2.201-5.363,2.385-7.566,0.408
				c-2.205-1.976-2.391-5.362-0.416-7.564c1.973-2.2,5.361-2.386,7.566-0.408C92.431,70.842,92.616,74.228,90.644,76.43"/>
		</g>
	</g>
	<polygon fill="#605F5E" points="83.265,75.3 85.397,72.919 83.013,70.783 84.202,69.461 86.583,71.6 88.718,69.219 90.038,70.404 
		87.909,72.784 90.29,74.919 89.103,76.242 86.722,74.104 84.587,76.486 	"/>
	<path fill="#231815" d="M89.825,70.416l-1.93,2.151l-0.209,0.229l0.232,0.205l2.154,1.929l-0.98,1.096l-2.154-1.934l-0.229-0.205
		l-0.205,0.229l-1.93,2.153l-1.094-0.981l1.928-2.15l0.207-0.23l-0.229-0.205l-2.152-1.931l0.979-1.092l2.152,1.93l0.229,0.207
		l0.205-0.229l1.928-2.152L89.825,70.416z M90.259,70.393l-1.555-1.391l-2.133,2.379l-2.385-2.137l-1.389,1.551l2.383,2.136
		l-2.133,2.381l1.549,1.393l2.137-2.381l2.381,2.134l1.393-1.548l-2.385-2.137L90.259,70.393z"/>
</g>
<g>
	<path fill="#4F4F4F" d="M635.294,79.406c-3.615,4.032-9.82,4.37-13.861,0.75c-4.035-3.62-4.377-9.827-0.76-13.858
		c3.615-4.033,9.821-4.369,13.859-0.749C638.571,69.168,638.913,75.372,635.294,79.406"/>
	<path fill="#AFAFAF" d="M633.356,77.668c-2.658,2.963-7.217,3.211-10.186,0.551c-2.967-2.659-3.218-7.219-0.557-10.182
		c2.654-2.964,7.217-3.21,10.182-0.55C635.763,70.145,636.013,74.706,633.356,77.668"/>
	<path fill="none" stroke="#939393" stroke-miterlimit="10" d="M633.356,77.668c-2.658,2.963-7.217,3.211-10.186,0.551
		c-2.967-2.659-3.218-7.219-0.557-10.182c2.654-2.964,7.217-3.21,10.182-0.55C635.763,70.145,636.013,74.706,633.356,77.668z"/>
	<g>
		<g>
			<defs>
				
					<rect id="SVGID_3_" x="621.181" y="66.056" transform="matrix(-0.7445 -0.6676 0.6676 -0.7445 1046.8799 546.3441)" width="13.605" height="13.589"/>
			</defs>
			<clipPath id="SVGID_4_">
				<use xlink:href="#SVGID_3_"  overflow="visible"/>
			</clipPath>
			<path clip-path="url(#SVGID_4_)" fill="#BEBFBF" d="M633.048,77.392c-2.504,2.792-6.804,3.024-9.6,0.519
				c-2.797-2.507-3.031-6.804-0.527-9.598c2.506-2.793,6.801-3.024,9.596-0.518C635.315,70.302,635.552,74.599,633.048,77.392"/>
			<path clip-path="url(#SVGID_4_)" fill="#C0C1C1" d="M632.927,77.285c-2.445,2.727-6.641,2.953-9.371,0.505
				c-2.73-2.447-2.961-6.643-0.516-9.37c2.449-2.728,6.641-2.954,9.372-0.506C635.144,70.361,635.374,74.556,632.927,77.285"/>
			<path clip-path="url(#SVGID_4_)" fill="#C3C4C4" d="M632.808,77.179c-2.387,2.661-6.482,2.882-9.145,0.493
				c-2.668-2.388-2.889-6.482-0.503-9.145c2.386-2.661,6.481-2.884,9.146-0.496C634.972,70.422,635.194,74.517,632.808,77.179"/>
			<path clip-path="url(#SVGID_4_)" fill="#C5C6C6" d="M632.69,77.07c-2.328,2.596-6.321,2.811-8.922,0.483
				c-2.598-2.332-2.82-6.325-0.49-8.919c2.328-2.597,6.32-2.813,8.92-0.484S635.019,74.476,632.69,77.07"/>
			<path clip-path="url(#SVGID_4_)" fill="#C7C9C9" d="M632.569,76.966c-2.268,2.528-6.162,2.739-8.695,0.468
				c-2.531-2.271-2.746-6.165-0.477-8.693c2.27-2.531,6.162-2.74,8.695-0.471C634.624,70.541,634.839,74.435,632.569,76.966"/>
			<path clip-path="url(#SVGID_4_)" fill="#CACBCB" d="M632.453,76.857c-2.212,2.463-6.003,2.67-8.472,0.457
				c-2.467-2.212-2.676-6.003-0.467-8.467c2.213-2.467,6.006-2.67,8.471-0.459C634.453,70.602,634.66,74.392,632.453,76.857"/>
			<path clip-path="url(#SVGID_4_)" fill="#CCCECE" d="M632.333,76.751c-2.152,2.397-5.844,2.597-8.244,0.445
				c-2.402-2.153-2.605-5.844-0.453-8.241c2.15-2.4,5.84-2.602,8.244-0.447C634.282,70.662,634.483,74.351,632.333,76.751"/>
			<path clip-path="url(#SVGID_4_)" fill="#CED0D0" d="M632.212,76.645c-2.09,2.333-5.682,2.528-8.016,0.432
				c-2.336-2.093-2.534-5.684-0.441-8.016c2.092-2.334,5.682-2.527,8.02-0.434C634.108,70.72,634.306,74.312,632.212,76.645"/>
			<path clip-path="url(#SVGID_4_)" fill="#D1D3D3" d="M632.093,76.538c-2.033,2.267-5.52,2.455-7.791,0.42s-2.461-5.522-0.43-7.79
				c2.035-2.267,5.523-2.457,7.793-0.422C633.937,70.781,634.128,74.271,632.093,76.538"/>
			<path clip-path="url(#SVGID_4_)" fill="#D3D5D5" d="M631.976,76.43c-1.975,2.201-5.363,2.385-7.565,0.408
				c-2.206-1.976-2.392-5.362-0.416-7.564c1.972-2.2,5.36-2.386,7.565-0.408C633.763,70.842,633.948,74.228,631.976,76.43"/>
		</g>
	</g>
	<polygon fill="#605F5E" points="624.597,75.3 626.729,72.919 624.345,70.783 625.535,69.461 627.915,71.6 630.05,69.219 
		631.37,70.404 629.241,72.784 631.622,74.919 630.435,76.242 628.054,74.104 625.919,76.486 	"/>
	<path fill="#231815" d="M631.157,70.416l-1.93,2.151l-0.209,0.229l0.232,0.205l2.154,1.929l-0.98,1.096l-2.154-1.934l-0.229-0.205
		l-0.205,0.229l-1.93,2.153l-1.094-0.981l1.928-2.15l0.207-0.23l-0.229-0.205l-2.152-1.931l0.979-1.092l2.152,1.93l0.229,0.207
		l0.205-0.229l1.928-2.152L631.157,70.416z M631.591,70.393l-1.555-1.391l-2.133,2.379l-2.385-2.137l-1.389,1.551l2.383,2.136
		l-2.133,2.381l1.549,1.393l2.137-2.381l2.381,2.134l1.393-1.548l-2.385-2.137L631.591,70.393z"/>
</g>
<g>
	<path fill="#4F4F4F" d="M1176.626,79.406c-3.615,4.032-9.82,4.37-13.861,0.75c-4.035-3.62-4.377-9.827-0.76-13.858
		c3.615-4.033,9.82-4.369,13.859-0.749C1179.903,69.168,1180.245,75.372,1176.626,79.406"/>
	<path fill="#AFAFAF" d="M1174.688,77.668c-2.658,2.963-7.217,3.211-10.186,0.551c-2.967-2.659-3.219-7.219-0.557-10.182
		c2.654-2.964,7.217-3.21,10.182-0.55C1177.095,70.145,1177.345,74.706,1174.688,77.668"/>
	<path fill="none" stroke="#939393" stroke-miterlimit="10" d="M1174.688,77.668c-2.658,2.963-7.217,3.211-10.186,0.551
		c-2.967-2.659-3.219-7.219-0.557-10.182c2.654-2.964,7.217-3.21,10.182-0.55C1177.095,70.145,1177.345,74.706,1174.688,77.668z"/>
	<g>
		<g>
			<defs>
				
					<rect id="SVGID_5_" x="1162.513" y="66.056" transform="matrix(-0.7445 -0.6676 0.6676 -0.7445 1991.2332 907.7499)" width="13.605" height="13.589"/>
			</defs>
			<clipPath id="SVGID_6_">
				<use xlink:href="#SVGID_5_"  overflow="visible"/>
			</clipPath>
			<path clip-path="url(#SVGID_6_)" fill="#BEBFBF" d="M1174.38,77.392c-2.504,2.792-6.805,3.024-9.6,0.519
				c-2.797-2.507-3.031-6.804-0.527-9.598c2.506-2.793,6.801-3.024,9.596-0.518C1176.647,70.302,1176.884,74.599,1174.38,77.392"/>
			<path clip-path="url(#SVGID_6_)" fill="#C0C1C1" d="M1174.259,77.285c-2.445,2.727-6.641,2.953-9.371,0.505
				c-2.73-2.447-2.961-6.643-0.516-9.37c2.449-2.728,6.641-2.954,9.371-0.506C1176.476,70.361,1176.706,74.556,1174.259,77.285"/>
			<path clip-path="url(#SVGID_6_)" fill="#C3C4C4" d="M1174.14,77.179c-2.387,2.661-6.482,2.882-9.145,0.493
				c-2.668-2.388-2.889-6.482-0.504-9.145c2.387-2.661,6.482-2.884,9.146-0.496C1176.304,70.422,1176.526,74.517,1174.14,77.179"/>
			<path clip-path="url(#SVGID_6_)" fill="#C5C6C6" d="M1174.022,77.07c-2.328,2.596-6.322,2.811-8.922,0.483
				c-2.598-2.332-2.82-6.325-0.49-8.919c2.328-2.597,6.32-2.813,8.92-0.484S1176.351,74.476,1174.022,77.07"/>
			<path clip-path="url(#SVGID_6_)" fill="#C7C9C9" d="M1173.901,76.966c-2.268,2.528-6.162,2.739-8.695,0.468
				c-2.531-2.271-2.746-6.165-0.477-8.693c2.27-2.531,6.162-2.74,8.695-0.471C1175.956,70.541,1176.171,74.435,1173.901,76.966"/>
			<path clip-path="url(#SVGID_6_)" fill="#CACBCB" d="M1173.784,76.857c-2.211,2.463-6.002,2.67-8.471,0.457
				c-2.467-2.212-2.676-6.003-0.467-8.467c2.213-2.467,6.006-2.67,8.471-0.459C1175.784,70.602,1175.991,74.392,1173.784,76.857"/>
			<path clip-path="url(#SVGID_6_)" fill="#CCCECE" d="M1173.665,76.751c-2.152,2.397-5.844,2.597-8.244,0.445
				c-2.402-2.153-2.605-5.844-0.453-8.241c2.15-2.4,5.84-2.602,8.244-0.447C1175.614,70.662,1175.815,74.351,1173.665,76.751"/>
			<path clip-path="url(#SVGID_6_)" fill="#CED0D0" d="M1173.544,76.645c-2.09,2.333-5.682,2.528-8.016,0.432
				c-2.336-2.093-2.535-5.684-0.441-8.016c2.092-2.334,5.682-2.527,8.02-0.434C1175.44,70.72,1175.638,74.312,1173.544,76.645"/>
			<path clip-path="url(#SVGID_6_)" fill="#D1D3D3" d="M1173.425,76.538c-2.033,2.267-5.52,2.455-7.791,0.42s-2.461-5.522-0.43-7.79
				c2.035-2.267,5.523-2.457,7.793-0.422C1175.269,70.781,1175.46,74.271,1173.425,76.538"/>
			<path clip-path="url(#SVGID_6_)" fill="#D3D5D5" d="M1173.308,76.43c-1.975,2.201-5.363,2.385-7.566,0.408
				c-2.205-1.976-2.391-5.362-0.416-7.564c1.973-2.2,5.361-2.386,7.566-0.408C1175.095,70.842,1175.28,74.228,1173.308,76.43"/>
		</g>
	</g>
	<polygon fill="#605F5E" points="1165.929,75.3 1168.062,72.919 1165.677,70.783 1166.866,69.461 1169.247,71.6 1171.382,69.219 
		1172.702,70.404 1170.573,72.784 1172.954,74.919 1171.767,76.242 1169.386,74.104 1167.251,76.486 	"/>
	<path fill="#231815" d="M1172.489,70.416l-1.93,2.151l-0.209,0.229l0.232,0.205l2.154,1.929l-0.98,1.096l-2.154-1.934l-0.229-0.205
		l-0.205,0.229l-1.93,2.153l-1.094-0.981l1.928-2.15l0.207-0.23l-0.229-0.205l-2.152-1.931l0.979-1.092l2.152,1.93l0.229,0.207
		l0.205-0.229l1.928-2.152L1172.489,70.416z M1172.923,70.393l-1.555-1.391l-2.133,2.379l-2.385-2.137l-1.389,1.551l2.383,2.136
		l-2.133,2.381l1.549,1.393l2.137-2.381l2.381,2.134l1.393-1.548l-2.385-2.137L1172.923,70.393z"/>
</g>
</svg>
