<?xml version="1.0" encoding="utf-8"?>
<!-- Generator: Adobe Illustrator 16.0.0, SVG Export Plug-In . SVG Version: 6.00 Build 0)  -->
<!DOCTYPE svg PUBLIC "-//W3C//DTD SVG 1.1//EN" "http://www.w3.org/Graphics/SVG/1.1/DTD/svg11.dtd">
<svg version="1.1" id="图层_1" xmlns="http://www.w3.org/2000/svg" xmlns:xlink="http://www.w3.org/1999/xlink" x="0px" y="0px"
	 width="1275.59px" height="126.14px" viewBox="0 0 1275.59 126.14" enable-background="new 0 0 1275.59 126.14"
	 xml:space="preserve">
<g>
	<linearGradient id="SVGID_1_" gradientUnits="userSpaceOnUse" x1="637.7954" y1="126.1406" x2="637.7954" y2="4.882813e-004">
		<stop  offset="0" style="stop-color:#717071"/>
		<stop  offset="0.0718" style="stop-color:#F7F7F7"/>
		<stop  offset="0.4839" style="stop-color:#C8C9CA"/>
		<stop  offset="0.928" style="stop-color:#EEEEEF"/>
		<stop  offset="1" style="stop-color:#717071"/>
	</linearGradient>
	<rect x="-0.001" fill="url(#SVGID_1_)" width="1275.592" height="126.141"/>
	<linearGradient id="SVGID_2_" gradientUnits="userSpaceOnUse" x1="-9.765625e-004" y1="63.0703" x2="60.1484" y2="63.0703">
		<stop  offset="0" style="stop-color:#343535"/>
		<stop  offset="0.7778" style="stop-color:#343535"/>
		<stop  offset="0.8835" style="stop-color:#636666"/>
		<stop  offset="1" style="stop-color:#030000"/>
	</linearGradient>
	<rect x="-0.001" fill="url(#SVGID_2_)" width="60.149" height="126.141"/>
	
		<linearGradient id="SVGID_3_" gradientUnits="userSpaceOnUse" x1="-7095.8525" y1="63.0703" x2="-7035.7031" y2="63.0703" gradientTransform="matrix(-1 0 0 1 -5820.2617 0)">
		<stop  offset="0" style="stop-color:#343535"/>
		<stop  offset="0.7778" style="stop-color:#343535"/>
		<stop  offset="0.8835" style="stop-color:#636666"/>
		<stop  offset="1" style="stop-color:#030000"/>
	</linearGradient>
	<rect x="1215.441" fill="url(#SVGID_3_)" width="60.149" height="126.141"/>
	<g>
		<g>
			<path fill="#B7B6B6" d="M35.128,15.368c0,3.931-3.386,7.119-7.563,7.119H11.25c-4.176,0-7.563-3.188-7.563-7.119l0,0
				c0-3.931,3.387-7.118,7.563-7.118h16.315C31.742,8.25,35.128,11.437,35.128,15.368L35.128,15.368z"/>
			<path fill="#0E0D0D" d="M34.233,15.166c0,3.82-3.288,6.916-7.347,6.916H11.035c-4.058,0-7.348-3.096-7.348-6.916l0,0
				c0-3.82,3.29-6.916,7.348-6.916h15.852C30.945,8.25,34.233,11.346,34.233,15.166L34.233,15.166z"/>
		</g>
		<g>
			<path fill="#B7B6B6" d="M35.128,110.772c0,3.931-3.386,7.118-7.563,7.118H11.25c-4.176,0-7.563-3.188-7.563-7.118l0,0
				c0-3.931,3.387-7.118,7.563-7.118h16.315C31.742,103.654,35.128,106.842,35.128,110.772L35.128,110.772z"/>
			<path fill="#0E0D0D" d="M34.233,110.57c0,3.82-3.288,6.916-7.347,6.916H11.035c-4.058,0-7.348-3.096-7.348-6.916l0,0
				c0-3.82,3.29-6.916,7.348-6.916h15.852C30.945,103.654,34.233,106.75,34.233,110.57L34.233,110.57z"/>
		</g>
	</g>
	<g>
		<g>
			<path fill="#B7B6B6" d="M1238.908,15.368c0,3.931,3.386,7.119,7.561,7.119h16.315c4.178,0,7.563-3.188,7.563-7.119l0,0
				c0-3.931-3.385-7.118-7.563-7.118h-16.315C1242.294,8.25,1238.908,11.437,1238.908,15.368L1238.908,15.368z"/>
			<path fill="#0E0D0D" d="M1239.802,15.166c0,3.82,3.289,6.916,7.346,6.916h15.852c4.058,0,7.348-3.096,7.348-6.916l0,0
				c0-3.82-3.29-6.916-7.348-6.916h-15.852C1243.091,8.25,1239.802,11.346,1239.802,15.166L1239.802,15.166z"/>
		</g>
		<g>
			<path fill="#B7B6B6" d="M1238.908,110.772c0,3.931,3.386,7.118,7.561,7.118h16.315c4.178,0,7.563-3.188,7.563-7.118l0,0
				c0-3.931-3.385-7.118-7.563-7.118h-16.315C1242.294,103.654,1238.908,106.842,1238.908,110.772L1238.908,110.772z"/>
			<path fill="#0E0D0D" d="M1239.802,110.57c0,3.82,3.289,6.916,7.346,6.916h15.852c4.058,0,7.348-3.096,7.348-6.916l0,0
				c0-3.82-3.29-6.916-7.348-6.916h-15.852C1243.091,103.654,1239.802,106.75,1239.802,110.57L1239.802,110.57z"/>
		</g>
	</g>
	<g>
		<path fill="#AFAEAE" d="M1264.893,15.369c0,5.366-4.594,9.716-10.265,9.716c-5.67,0-10.265-4.351-10.265-9.716
			c0-5.367,4.595-9.718,10.265-9.718C1260.299,5.651,1264.893,10.002,1264.893,15.369"/>
		<ellipse fill="none" stroke="#929292" stroke-miterlimit="10" cx="1254.628" cy="15.369" rx="10.265" ry="9.716"/>
		<path fill="#AFAEAE" d="M1262.171,15.369c0,3.942-3.38,7.14-7.543,7.14c-4.166,0-7.545-3.198-7.545-7.14
			c0-3.943,3.379-7.141,7.545-7.141C1258.791,8.228,1262.171,11.426,1262.171,15.369"/>
		<path fill="none" stroke="#929292" stroke-miterlimit="10" d="M1262.171,15.369c0,3.942-3.38,7.14-7.543,7.14
			c-4.166,0-7.545-3.198-7.545-7.14c0-3.943,3.379-7.141,7.545-7.141C1258.791,8.228,1262.171,11.426,1262.171,15.369z"/>
		<g>
			<g>
				<defs>
					<rect id="SVGID_4_" x="1247.517" y="8.639" width="14.221" height="13.458"/>
				</defs>
				<clipPath id="SVGID_5_">
					<use xlink:href="#SVGID_4_"  overflow="visible"/>
				</clipPath>
				<path clip-path="url(#SVGID_5_)" fill="#BEBEBD" d="M1261.737,15.369c0,3.715-3.185,6.727-7.109,6.727
					c-3.928,0-7.111-3.012-7.111-6.727c0-3.716,3.184-6.73,7.111-6.73C1258.553,8.639,1261.737,11.653,1261.737,15.369"/>
				<path clip-path="url(#SVGID_5_)" fill="#C0C0C0" d="M1261.569,15.369c0,3.627-3.11,6.569-6.941,6.569
					c-3.837,0-6.943-2.942-6.943-6.569c0-3.629,3.106-6.572,6.943-6.572C1258.459,8.797,1261.569,11.74,1261.569,15.369"/>
				<path clip-path="url(#SVGID_5_)" fill="#C2C3C3" d="M1261.402,15.369c0,3.54-3.034,6.413-6.774,6.413
					c-3.744,0-6.775-2.873-6.775-6.413c0-3.542,3.031-6.413,6.775-6.413C1258.368,8.956,1261.402,11.827,1261.402,15.369"/>
				<path clip-path="url(#SVGID_5_)" fill="#C4C5C4" d="M1261.233,15.369c0,3.453-2.956,6.253-6.605,6.253
					c-3.651,0-6.61-2.801-6.61-6.253c0-3.455,2.959-6.254,6.61-6.254C1258.277,9.115,1261.233,11.914,1261.233,15.369"/>
				<path clip-path="url(#SVGID_5_)" fill="#C6C8C8" d="M1261.067,15.369c0,3.364-2.885,6.095-6.439,6.095
					c-3.557,0-6.442-2.731-6.442-6.095c0-3.367,2.886-6.097,6.442-6.097C1258.183,9.272,1261.067,12.002,1261.067,15.369"/>
				<path clip-path="url(#SVGID_5_)" fill="#C9CACB" d="M1260.899,15.369c0,3.278-2.808,5.936-6.271,5.936
					c-3.465,0-6.274-2.657-6.274-5.936c0-3.28,2.81-5.939,6.274-5.939C1258.092,9.43,1260.899,12.089,1260.899,15.369"/>
				<path clip-path="url(#SVGID_5_)" fill="#CBCDCD" d="M1260.733,15.369c0,3.19-2.734,5.779-6.105,5.779
					c-3.373,0-6.106-2.588-6.106-5.779c0-3.192,2.733-5.782,6.106-5.782C1257.999,9.587,1260.733,12.177,1260.733,15.369"/>
				<path clip-path="url(#SVGID_5_)" fill="#CCCFD0" d="M1260.567,15.369c0,3.103-2.661,5.621-5.939,5.621
					c-3.279,0-5.939-2.518-5.939-5.621c0-3.105,2.66-5.622,5.939-5.622C1257.906,9.748,1260.567,12.264,1260.567,15.369"/>
				<path clip-path="url(#SVGID_5_)" fill="#D0D2D2" d="M1260.399,15.369c0,3.016-2.584,5.462-5.771,5.462s-5.771-2.446-5.771-5.462
					c0-3.018,2.584-5.464,5.771-5.464S1260.399,12.351,1260.399,15.369"/>
				<path clip-path="url(#SVGID_5_)" fill="#D2D4D5" d="M1260.231,15.369c0,2.928-2.511,5.303-5.604,5.303
					c-3.098,0-5.606-2.375-5.606-5.303c0-2.931,2.509-5.305,5.606-5.305C1257.721,10.064,1260.231,12.438,1260.231,15.369"/>
			</g>
		</g>
		<polygon fill="#605F5E" points="1253.698,19.415 1253.698,16.248 1250.353,16.248 1250.353,14.489 1253.698,14.489 
			1253.698,11.323 1255.557,11.323 1255.557,14.489 1258.901,14.489 1258.901,16.248 1255.557,16.248 1255.557,19.415 		"/>
		<path fill="#221714" d="M1255.396,11.475v2.861v0.306h0.32h3.025v1.453h-3.025h-0.32v0.304v2.862h-1.535v-2.862v-0.304h-0.322
			h-3.025v-1.453h3.025h0.322v-0.306v-2.861H1255.396z M1255.716,11.17h-2.178v3.166h-3.346v2.063h3.346v3.167h2.178v-3.167h3.346
			v-2.063h-3.346V11.17z"/>
	</g>
	<g>
		<path fill="#AFAEAE" d="M1264.893,110.773c0,5.365-4.594,9.716-10.265,9.716c-5.67,0-10.265-4.351-10.265-9.716
			c0-5.367,4.595-9.718,10.265-9.718C1260.299,101.056,1264.893,105.406,1264.893,110.773"/>
		<ellipse fill="none" stroke="#929292" stroke-miterlimit="10" cx="1254.628" cy="110.773" rx="10.265" ry="9.716"/>
		<path fill="#AFAEAE" d="M1262.171,110.773c0,3.942-3.38,7.139-7.543,7.139c-4.166,0-7.545-3.196-7.545-7.139
			c0-3.943,3.379-7.141,7.545-7.141C1258.791,103.633,1262.171,106.83,1262.171,110.773"/>
		<path fill="none" stroke="#929292" stroke-miterlimit="10" d="M1262.171,110.773c0,3.942-3.38,7.139-7.543,7.139
			c-4.166,0-7.545-3.196-7.545-7.139c0-3.943,3.379-7.141,7.545-7.141C1258.791,103.633,1262.171,106.83,1262.171,110.773z"/>
		<g>
			<g>
				<defs>
					<rect id="SVGID_6_" x="1247.517" y="104.043" width="14.221" height="13.459"/>
				</defs>
				<clipPath id="SVGID_7_">
					<use xlink:href="#SVGID_6_"  overflow="visible"/>
				</clipPath>
				<path clip-path="url(#SVGID_7_)" fill="#BEBEBD" d="M1261.737,110.773c0,3.715-3.185,6.729-7.109,6.729
					c-3.928,0-7.111-3.014-7.111-6.729c0-3.717,3.184-6.73,7.111-6.73C1258.553,104.043,1261.737,107.057,1261.737,110.773"/>
				<path clip-path="url(#SVGID_7_)" fill="#C0C0C0" d="M1261.569,110.773c0,3.627-3.11,6.569-6.941,6.569
					c-3.837,0-6.943-2.942-6.943-6.569c0-3.629,3.106-6.572,6.943-6.572C1258.459,104.201,1261.569,107.145,1261.569,110.773"/>
				<path clip-path="url(#SVGID_7_)" fill="#C2C3C3" d="M1261.402,110.773c0,3.54-3.034,6.412-6.774,6.412
					c-3.744,0-6.775-2.872-6.775-6.412c0-3.542,3.031-6.412,6.775-6.412C1258.368,104.361,1261.402,107.231,1261.402,110.773"/>
				<path clip-path="url(#SVGID_7_)" fill="#C4C5C4" d="M1261.233,110.773c0,3.453-2.956,6.253-6.605,6.253
					c-3.651,0-6.61-2.8-6.61-6.253c0-3.455,2.959-6.254,6.61-6.254C1258.277,104.52,1261.233,107.318,1261.233,110.773"/>
				<path clip-path="url(#SVGID_7_)" fill="#C6C8C8" d="M1261.067,110.773c0,3.364-2.885,6.095-6.439,6.095
					c-3.557,0-6.442-2.73-6.442-6.095c0-3.367,2.886-6.097,6.442-6.097C1258.183,104.677,1261.067,107.406,1261.067,110.773"/>
				<path clip-path="url(#SVGID_7_)" fill="#C9CACB" d="M1260.899,110.773c0,3.278-2.808,5.936-6.271,5.936
					c-3.465,0-6.274-2.657-6.274-5.936c0-3.28,2.81-5.938,6.274-5.938C1258.092,104.836,1260.899,107.493,1260.899,110.773"/>
				<path clip-path="url(#SVGID_7_)" fill="#CBCDCD" d="M1260.733,110.773c0,3.19-2.734,5.779-6.105,5.779
					c-3.373,0-6.106-2.589-6.106-5.779c0-3.192,2.733-5.781,6.106-5.781C1257.999,104.992,1260.733,107.581,1260.733,110.773"/>
				<path clip-path="url(#SVGID_7_)" fill="#CCCFD0" d="M1260.567,110.773c0,3.104-2.661,5.621-5.939,5.621
					c-3.279,0-5.939-2.518-5.939-5.621c0-3.105,2.66-5.621,5.939-5.621C1257.906,105.152,1260.567,107.668,1260.567,110.773"/>
				<path clip-path="url(#SVGID_7_)" fill="#D0D2D2" d="M1260.399,110.773c0,3.016-2.584,5.462-5.771,5.462
					s-5.771-2.446-5.771-5.462c0-3.018,2.584-5.465,5.771-5.465S1260.399,107.756,1260.399,110.773"/>
				<path clip-path="url(#SVGID_7_)" fill="#D2D4D5" d="M1260.231,110.773c0,2.928-2.511,5.303-5.604,5.303
					c-3.098,0-5.606-2.375-5.606-5.303c0-2.931,2.509-5.305,5.606-5.305C1257.721,105.469,1260.231,107.843,1260.231,110.773"/>
			</g>
		</g>
		<polygon fill="#605F5E" points="1253.698,114.819 1253.698,111.652 1250.353,111.652 1250.353,109.895 1253.698,109.895 
			1253.698,106.727 1255.557,106.727 1255.557,109.895 1258.901,109.895 1258.901,111.652 1255.557,111.652 1255.557,114.819 		"/>
		<path fill="#221714" d="M1255.396,106.879v2.861v0.307h0.32h3.025v1.452h-3.025h-0.32v0.304v2.862h-1.535v-2.862v-0.304h-0.322
			h-3.025v-1.452h3.025h0.322v-0.307v-2.861H1255.396z M1255.716,106.574h-2.178v3.166h-3.346v2.063h3.346v3.167h2.178v-3.167h3.346
			v-2.063h-3.346V106.574z"/>
	</g>
	<g>
		<g>
			<path fill="#252626" d="M25.362,62.858c0,4.89-4.21,8.851-9.403,8.851c-5.195,0-9.406-3.961-9.406-8.851
				c0-4.889,4.211-8.853,9.406-8.853C21.152,54.006,25.362,57.97,25.362,62.858"/>
			
				<ellipse fill="none" stroke="#121212" stroke-width="0.75" stroke-miterlimit="10" cx="15.958" cy="62.858" rx="9.405" ry="8.851"/>
			<polygon fill="#040000" points="14.796,67.879 14.796,63.952 10.623,63.952 10.623,61.763 14.796,61.763 14.796,57.839 
				17.121,57.839 17.121,61.763 21.291,61.763 21.291,63.952 17.121,63.952 17.121,67.879 			"/>
			<path fill="#221714" d="M16.925,58.022v3.557v0.369h0.391h3.78v1.818h-3.78h-0.391v0.369v3.558h-1.933v-3.558v-0.369H14.6H10.82
				v-1.818H14.6h0.393v-0.369v-3.557H16.925z M17.315,57.653H14.6v3.926h-4.172v2.557H14.6v3.927h2.716v-3.927h4.173v-2.557h-4.173
				V57.653z"/>
		</g>
		<rect x="14.6" y="57.654" fill="#606062" width="0.393" height="4.294"/>
		<rect x="10.428" y="61.579" fill="#606062" width="4.563" height="0.37"/>
	</g>
	<linearGradient id="SVGID_8_" gradientUnits="userSpaceOnUse" x1="637.77" y1="126.1406" x2="637.77" y2="-4.882813e-004">
		<stop  offset="0.0161" style="stop-color:#030000"/>
		<stop  offset="0.0322" style="stop-color:#343535"/>
		<stop  offset="0.0699" style="stop-color:#1F2020"/>
		<stop  offset="0.8118" style="stop-color:#515151"/>
		<stop  offset="0.9462" style="stop-color:#636666"/>
		<stop  offset="1" style="stop-color:#030000"/>
	</linearGradient>
	<rect x="60.148" y="-0.001" fill="url(#SVGID_8_)" width="1155.242" height="126.142"/>
	<g>
		<rect x="60.148" y="36.577" fill="#060001" width="70.018" height="51.536"/>
		
			<linearGradient id="SVGID_9_" gradientUnits="userSpaceOnUse" x1="-1653.4116" y1="-3816.3198" x2="-1653.4116" y2="-3823.7739" gradientTransform="matrix(0 -1 1 0 3887.6484 -1591.0664)">
			<stop  offset="0.0161" style="stop-color:#030000"/>
			<stop  offset="0.0322" style="stop-color:#343535"/>
			<stop  offset="0.0699" style="stop-color:#1F2020"/>
			<stop  offset="0.8118" style="stop-color:#515151"/>
			<stop  offset="0.9462" style="stop-color:#636666"/>
			<stop  offset="1" style="stop-color:#030000"/>
		</linearGradient>
		<rect x="63.875" y="36.577" fill="url(#SVGID_9_)" width="7.454" height="51.536"/>
	</g>
	<g>
		<rect x="1143.653" y="36.577" fill="#060001" width="70.018" height="51.536"/>
		
			<linearGradient id="SVGID_10_" gradientUnits="userSpaceOnUse" x1="3918.1797" y1="-679.9204" x2="3918.1797" y2="-687.3745" gradientTransform="matrix(0 1 -1 0 522.5703 -3855.835)">
			<stop  offset="0.0161" style="stop-color:#030000"/>
			<stop  offset="0.0322" style="stop-color:#343535"/>
			<stop  offset="0.0699" style="stop-color:#1F2020"/>
			<stop  offset="0.8118" style="stop-color:#515151"/>
			<stop  offset="0.9462" style="stop-color:#636666"/>
			<stop  offset="1" style="stop-color:#030000"/>
		</linearGradient>
		<rect x="1202.49" y="36.577" fill="url(#SVGID_10_)" width="7.454" height="51.536"/>
	</g>
	<rect x="176.216" y="45.572" fill="#070001" width="48.681" height="13.079"/>
	<rect x="176.216" y="66.951" fill="#070001" width="48.681" height="13.078"/>
	<rect x="176.216" y="88.33" fill="#070001" width="48.682" height="13.08"/>
	<rect x="230.908" y="45.572" fill="#070001" width="48.68" height="13.079"/>
	<rect x="230.908" y="66.951" fill="#070001" width="48.68" height="13.078"/>
	<rect x="230.909" y="88.33" fill="#070001" width="48.681" height="13.08"/>
	<g>
		<rect x="285.601" y="24.192" fill="#070001" width="48.681" height="13.08"/>
		<rect x="285.601" y="45.572" fill="#070001" width="48.681" height="13.079"/>
		<rect x="285.601" y="66.951" fill="#070001" width="48.681" height="13.078"/>
		<rect x="285.601" y="88.33" fill="#070001" width="48.682" height="13.08"/>
	</g>
	<g>
		<rect x="340.293" y="24.192" fill="#070001" width="48.68" height="13.08"/>
		<rect x="340.293" y="45.572" fill="#070001" width="48.68" height="13.079"/>
		<rect x="340.293" y="66.951" fill="#070001" width="48.68" height="13.078"/>
		<rect x="340.294" y="88.33" fill="#070001" width="48.681" height="13.08"/>
	</g>
	<g>
		<rect x="394.985" y="24.192" fill="#070001" width="48.681" height="13.08"/>
		<rect x="394.985" y="45.572" fill="#070001" width="48.681" height="13.079"/>
		<rect x="394.985" y="66.951" fill="#070001" width="48.681" height="13.078"/>
		<rect x="394.986" y="88.33" fill="#070001" width="48.681" height="13.08"/>
	</g>
	<g>
		<rect x="449.677" y="24.192" fill="#070001" width="48.681" height="13.08"/>
		<rect x="449.677" y="45.572" fill="#070001" width="48.681" height="13.079"/>
		<rect x="449.677" y="66.951" fill="#070001" width="48.681" height="13.078"/>
		<rect x="449.679" y="88.33" fill="#070001" width="48.681" height="13.08"/>
	</g>
	<g>
		<rect x="504.37" y="24.192" fill="#070001" width="48.681" height="13.08"/>
		<rect x="504.37" y="45.572" fill="#070001" width="48.681" height="13.079"/>
		<rect x="504.37" y="66.951" fill="#070001" width="48.681" height="13.078"/>
		<rect x="504.371" y="88.33" fill="#070001" width="48.681" height="13.08"/>
	</g>
	<g>
		<rect x="559.062" y="24.192" fill="#070001" width="48.681" height="13.08"/>
		<rect x="559.062" y="45.572" fill="#070001" width="48.681" height="13.079"/>
		<rect x="559.062" y="66.951" fill="#070001" width="48.681" height="13.078"/>
		<rect x="559.063" y="88.33" fill="#070001" width="48.681" height="13.08"/>
	</g>
	<g>
		<rect x="613.755" y="24.192" fill="#070001" width="48.681" height="13.08"/>
		<rect x="613.755" y="45.572" fill="#070001" width="48.681" height="13.079"/>
		<rect x="613.755" y="66.951" fill="#070001" width="48.681" height="13.078"/>
		<rect x="613.756" y="88.33" fill="#070001" width="48.681" height="13.08"/>
	</g>
	<g>
		<rect x="668.446" y="24.192" fill="#070001" width="48.682" height="13.08"/>
		<rect x="668.446" y="45.572" fill="#070001" width="48.682" height="13.079"/>
		<rect x="668.446" y="66.951" fill="#070001" width="48.682" height="13.078"/>
		<rect x="668.448" y="88.33" fill="#070001" width="48.68" height="13.08"/>
	</g>
	<g>
		<rect x="723.14" y="24.192" fill="#070001" width="48.681" height="13.08"/>
		<rect x="723.14" y="45.572" fill="#070001" width="48.681" height="13.079"/>
		<rect x="723.14" y="66.951" fill="#070001" width="48.681" height="13.078"/>
		<rect x="723.141" y="88.33" fill="#070001" width="48.681" height="13.08"/>
	</g>
	<g>
		<rect x="777.831" y="24.192" fill="#070001" width="48.682" height="13.08"/>
		<rect x="777.831" y="45.572" fill="#070001" width="48.682" height="13.079"/>
		<rect x="777.831" y="66.951" fill="#070001" width="48.682" height="13.078"/>
		<rect x="777.833" y="88.33" fill="#070001" width="48.68" height="13.08"/>
	</g>
	<g>
		<rect x="832.524" y="24.192" fill="#070001" width="48.681" height="13.08"/>
		<rect x="832.524" y="45.572" fill="#070001" width="48.681" height="13.079"/>
		<rect x="832.524" y="66.951" fill="#070001" width="48.681" height="13.078"/>
		<rect x="832.525" y="88.33" fill="#070001" width="48.681" height="13.08"/>
	</g>
	<g>
		<rect x="887.216" y="24.192" fill="#070001" width="48.682" height="13.08"/>
		<rect x="887.216" y="45.572" fill="#070001" width="48.682" height="13.079"/>
		<rect x="887.216" y="66.951" fill="#070001" width="48.682" height="13.078"/>
		<rect x="887.218" y="88.33" fill="#070001" width="48.68" height="13.08"/>
	</g>
	<g>
		<rect x="941.909" y="24.192" fill="#070001" width="48.682" height="13.08"/>
		<rect x="941.909" y="45.572" fill="#070001" width="48.682" height="13.079"/>
		<rect x="941.909" y="66.951" fill="#070001" width="48.682" height="13.078"/>
		<rect x="941.91" y="88.33" fill="#070001" width="48.681" height="13.08"/>
	</g>
	<rect x="996.601" y="45.572" fill="#070001" width="48.682" height="13.079"/>
	<rect x="996.601" y="66.951" fill="#070001" width="48.682" height="13.078"/>
	<rect x="996.602" y="88.33" fill="#070001" width="48.681" height="13.08"/>
	<rect x="1051.601" y="45.841" fill="#070001" width="48.681" height="13.079"/>
	<rect x="1051.601" y="67.221" fill="#070001" width="48.681" height="13.078"/>
	<rect x="1051.601" y="88.6" fill="#070001" width="48.682" height="13.08"/>
	<text transform="matrix(1 0 0 1 135.6299 19.8013)" fill="#C1C0C0" font-family="'SimHei'" font-size="13.8053">MOD SERIES</text>
	<text transform="matrix(0.9232 0 0 1 156.9639 30.9248)" fill="#C1C0C0" font-family="'SimHei'" font-size="9.6827">Signd procasaing srtan</text>
	<rect x="149.296" y="22.082" fill="#C1C0C0" width="101.199" height="1.055"/>
</g>
</svg>
