<?xml version="1.0" encoding="utf-8"?>
<!-- Generator: Adobe Illustrator 16.0.0, SVG Export Plug-In . SVG Version: 6.00 Build 0)  -->
<!DOCTYPE svg PUBLIC "-//W3C//DTD SVG 1.1//EN" "http://www.w3.org/Graphics/SVG/1.1/DTD/svg11.dtd">
<svg version="1.1" id="图层_1" xmlns="http://www.w3.org/2000/svg" xmlns:xlink="http://www.w3.org/1999/xlink" x="0px" y="0px"
	 width="1275.59px" height="126.14px" viewBox="0 0 1275.59 126.14" enable-background="new 0 0 1275.59 126.14"
	 xml:space="preserve">
<rect y="-0.001" fill="#D5D4D3" width="1275.59" height="126.142"/>
<rect x="1261.402" y="12.507" fill="#727272" width="2.301" height="104.763"/>
<g>
	<g>
		<linearGradient id="SVGID_1_" gradientUnits="userSpaceOnUse" x1="29.7734" y1="40.5747" x2="382.9766" y2="40.5747">
			<stop  offset="0" style="stop-color:#BEBDBE"/>
			<stop  offset="0.2151" style="stop-color:#E0E0DF"/>
			<stop  offset="0.5323" style="stop-color:#C1C0C0"/>
			<stop  offset="0.8065" style="stop-color:#E0E0DF"/>
			<stop  offset="0.9871" style="stop-color:#B1B4B5"/>
		</linearGradient>
		
			<rect x="29.773" y="16.046" fill="url(#SVGID_1_)" stroke="#626363" stroke-width="1.5" stroke-miterlimit="10" width="353.203" height="49.058"/>
		<g>
			<path fill="#AFAEAE" d="M50.45,38.078c0,4.345-3.721,7.866-8.311,7.866c-4.591,0-8.313-3.521-8.313-7.866
				s3.722-7.867,8.313-7.867C46.729,30.211,50.45,33.733,50.45,38.078"/>
			<ellipse fill="none" stroke="#929292" stroke-miterlimit="10" cx="42.139" cy="38.078" rx="8.312" ry="7.866"/>
			<path fill="#AFAEAE" d="M48.246,38.078c0,3.191-2.734,5.779-6.106,5.779s-6.109-2.588-6.109-5.779
				c0-3.192,2.737-5.781,6.109-5.781S48.246,34.886,48.246,38.078"/>
			<ellipse fill="none" stroke="#929292" stroke-miterlimit="10" cx="42.138" cy="38.078" rx="6.108" ry="5.779"/>
			<g>
				<g>
					<defs>
						<rect id="SVGID_2_" x="36.382" y="32.631" width="11.513" height="10.894"/>
					</defs>
					<clipPath id="SVGID_3_">
						<use xlink:href="#SVGID_2_"  overflow="visible"/>
					</clipPath>
					<path clip-path="url(#SVGID_3_)" fill="#BEBEBD" d="M47.895,38.078c0,3.008-2.577,5.446-5.755,5.446
						c-3.18,0-5.758-2.438-5.758-5.446c0-3.009,2.578-5.447,5.758-5.447C45.317,32.631,47.895,35.069,47.895,38.078"/>
					<path clip-path="url(#SVGID_3_)" fill="#C0C0C0" d="M47.758,38.078c0,2.937-2.516,5.318-5.618,5.318
						c-3.104,0-5.62-2.382-5.62-5.318c0-2.938,2.516-5.32,5.62-5.32C45.242,32.758,47.758,35.14,47.758,38.078"/>
					<path clip-path="url(#SVGID_3_)" fill="#C2C3C3" d="M47.624,38.078c0,2.866-2.456,5.191-5.484,5.191
						c-3.03,0-5.485-2.325-5.485-5.191c0-2.867,2.455-5.191,5.485-5.191C45.168,32.887,47.624,35.211,47.624,38.078"/>
					<path clip-path="url(#SVGID_3_)" fill="#C4C5C4" d="M47.486,38.078c0,2.795-2.394,5.063-5.347,5.063
						c-2.956,0-5.353-2.268-5.353-5.063c0-2.797,2.396-5.063,5.353-5.063C45.093,33.015,47.486,35.281,47.486,38.078"/>
					<path clip-path="url(#SVGID_3_)" fill="#C6C8C8" d="M47.353,38.078c0,2.724-2.335,4.935-5.213,4.935
						c-2.88,0-5.215-2.211-5.215-4.935c0-2.726,2.335-4.936,5.215-4.936C45.018,33.143,47.353,35.353,47.353,38.078"/>
					<path clip-path="url(#SVGID_3_)" fill="#C9CACB" d="M47.217,38.078c0,2.653-2.274,4.806-5.077,4.806
						c-2.806,0-5.079-2.152-5.079-4.806c0-2.655,2.273-4.808,5.079-4.808C44.942,33.271,47.217,35.423,47.217,38.078"/>
					<path clip-path="url(#SVGID_3_)" fill="#CBCDCD" d="M47.082,38.078c0,2.583-2.215,4.679-4.942,4.679
						c-2.731,0-4.944-2.096-4.944-4.679c0-2.584,2.213-4.68,4.944-4.68C44.867,33.398,47.082,35.494,47.082,38.078"/>
					<path clip-path="url(#SVGID_3_)" fill="#CCCFD0" d="M46.946,38.078c0,2.513-2.154,4.551-4.807,4.551
						c-2.655,0-4.809-2.038-4.809-4.551c0-2.514,2.153-4.551,4.809-4.551C44.792,33.527,46.946,35.564,46.946,38.078"/>
					<path clip-path="url(#SVGID_3_)" fill="#D0D2D2" d="M46.811,38.078c0,2.441-2.091,4.422-4.671,4.422
						c-2.581,0-4.673-1.98-4.673-4.422c0-2.443,2.092-4.423,4.673-4.423C44.72,33.655,46.811,35.635,46.811,38.078"/>
					<path clip-path="url(#SVGID_3_)" fill="#D2D4D5" d="M46.676,38.078c0,2.37-2.031,4.293-4.536,4.293
						c-2.508,0-4.538-1.923-4.538-4.293c0-2.372,2.03-4.294,4.538-4.294C44.645,33.784,46.676,35.706,46.676,38.078"/>
				</g>
			</g>
			<polygon fill="#605F5E" points="41.387,41.354 41.387,38.79 38.677,38.79 38.677,37.366 41.387,37.366 41.387,34.802 
				42.889,34.802 42.889,37.366 45.6,37.366 45.6,38.79 42.889,38.79 42.889,41.354 			"/>
			<path fill="#221714" d="M42.761,34.926v2.316v0.247h0.258h2.45v1.177h-2.45h-0.258v0.245v2.317h-1.243v-2.317v-0.245h-0.26
				h-2.449v-1.177h2.449h0.26v-0.247v-2.316H42.761z M43.019,34.679h-1.761v2.563h-2.709v1.669h2.709v2.564h1.761v-2.564h2.711
				v-1.669h-2.711V34.679z"/>
		</g>
		<g>
			<path fill="#AFAEAE" d="M379.954,38.078c0,4.345-3.721,7.866-8.311,7.866c-4.591,0-8.313-3.521-8.313-7.866
				s3.722-7.867,8.313-7.867C376.233,30.211,379.954,33.733,379.954,38.078"/>
			<ellipse fill="none" stroke="#929292" stroke-miterlimit="10" cx="371.643" cy="38.078" rx="8.312" ry="7.866"/>
			<path fill="#AFAEAE" d="M377.75,38.078c0,3.191-2.734,5.779-6.106,5.779s-6.108-2.588-6.108-5.779
				c0-3.192,2.736-5.781,6.108-5.781S377.75,34.886,377.75,38.078"/>
			<ellipse fill="none" stroke="#929292" stroke-miterlimit="10" cx="371.643" cy="38.078" rx="6.107" ry="5.779"/>
			<g>
				<g>
					<defs>
						<rect id="SVGID_4_" x="365.885" y="32.631" width="11.513" height="10.894"/>
					</defs>
					<clipPath id="SVGID_5_">
						<use xlink:href="#SVGID_4_"  overflow="visible"/>
					</clipPath>
					<path clip-path="url(#SVGID_5_)" fill="#BEBEBD" d="M377.397,38.078c0,3.008-2.576,5.446-5.754,5.446
						c-3.18,0-5.759-2.438-5.759-5.446c0-3.009,2.579-5.447,5.759-5.447C374.821,32.631,377.397,35.069,377.397,38.078"/>
					<path clip-path="url(#SVGID_5_)" fill="#C0C0C0" d="M377.261,38.078c0,2.937-2.515,5.318-5.617,5.318
						c-3.104,0-5.62-2.382-5.62-5.318c0-2.938,2.516-5.32,5.62-5.32C374.746,32.758,377.261,35.14,377.261,38.078"/>
					<path clip-path="url(#SVGID_5_)" fill="#C2C3C3" d="M377.128,38.078c0,2.866-2.456,5.191-5.484,5.191
						c-3.03,0-5.485-2.325-5.485-5.191c0-2.867,2.455-5.191,5.485-5.191C374.672,32.887,377.128,35.211,377.128,38.078"/>
					<path clip-path="url(#SVGID_5_)" fill="#C4C5C4" d="M376.99,38.078c0,2.795-2.394,5.063-5.347,5.063
						c-2.956,0-5.352-2.268-5.352-5.063c0-2.797,2.396-5.063,5.352-5.063C374.597,33.015,376.99,35.281,376.99,38.078"/>
					<path clip-path="url(#SVGID_5_)" fill="#C6C8C8" d="M376.856,38.078c0,2.724-2.335,4.935-5.213,4.935
						c-2.88,0-5.215-2.211-5.215-4.935c0-2.726,2.335-4.936,5.215-4.936C374.521,33.143,376.856,35.353,376.856,38.078"/>
					<path clip-path="url(#SVGID_5_)" fill="#C9CACB" d="M376.721,38.078c0,2.653-2.274,4.806-5.077,4.806
						c-2.806,0-5.079-2.152-5.079-4.806c0-2.655,2.273-4.808,5.079-4.808C374.446,33.271,376.721,35.423,376.721,38.078"/>
					<path clip-path="url(#SVGID_5_)" fill="#CBCDCD" d="M376.586,38.078c0,2.583-2.215,4.679-4.942,4.679
						c-2.732,0-4.944-2.096-4.944-4.679c0-2.584,2.212-4.68,4.944-4.68C374.371,33.398,376.586,35.494,376.586,38.078"/>
					<path clip-path="url(#SVGID_5_)" fill="#CCCFD0" d="M376.451,38.078c0,2.513-2.155,4.551-4.808,4.551
						c-2.655,0-4.809-2.038-4.809-4.551c0-2.514,2.153-4.551,4.809-4.551C374.296,33.527,376.451,35.564,376.451,38.078"/>
					<path clip-path="url(#SVGID_5_)" fill="#D0D2D2" d="M376.313,38.078c0,2.441-2.09,4.422-4.67,4.422
						c-2.582,0-4.673-1.98-4.673-4.422c0-2.443,2.091-4.423,4.673-4.423C374.224,33.655,376.313,35.635,376.313,38.078"/>
					<path clip-path="url(#SVGID_5_)" fill="#D2D4D5" d="M376.18,38.078c0,2.37-2.031,4.293-4.536,4.293
						c-2.508,0-4.538-1.923-4.538-4.293c0-2.372,2.03-4.294,4.538-4.294C374.148,33.784,376.18,35.706,376.18,38.078"/>
				</g>
			</g>
			<polygon fill="#605F5E" points="370.891,41.354 370.891,38.79 368.181,38.79 368.181,37.366 370.891,37.366 370.891,34.802 
				372.394,34.802 372.394,37.366 375.104,37.366 375.104,38.79 372.394,38.79 372.394,41.354 			"/>
			<path fill="#221714" d="M372.265,34.926v2.316v0.247h0.257h2.451v1.177h-2.451h-0.257v0.245v2.317h-1.243v-2.317v-0.245h-0.26
				h-2.449v-1.177h2.449h0.26v-0.247v-2.316H372.265z M372.521,34.679h-1.76v2.563h-2.709v1.669h2.709v2.564h1.76v-2.564h2.712
				v-1.669h-2.712V34.679z"/>
		</g>
	</g>
	<g>
		<linearGradient id="SVGID_6_" gradientUnits="userSpaceOnUse" x1="29.7734" y1="92.8066" x2="382.9766" y2="92.8066">
			<stop  offset="0" style="stop-color:#BEBDBE"/>
			<stop  offset="0.2151" style="stop-color:#E0E0DF"/>
			<stop  offset="0.5323" style="stop-color:#C1C0C0"/>
			<stop  offset="0.8065" style="stop-color:#E0E0DF"/>
			<stop  offset="0.9871" style="stop-color:#B1B4B5"/>
		</linearGradient>
		
			<rect x="29.773" y="68.277" fill="url(#SVGID_6_)" stroke="#626363" stroke-width="1.5" stroke-miterlimit="10" width="353.203" height="49.058"/>
		<g>
			<path fill="#AFAEAE" d="M50.45,90.31c0,4.345-3.721,7.865-8.311,7.865c-4.591,0-8.313-3.521-8.313-7.865s3.722-7.867,8.313-7.867
				C46.729,82.442,50.45,85.965,50.45,90.31"/>
			<ellipse fill="none" stroke="#929292" stroke-miterlimit="10" cx="42.139" cy="90.31" rx="8.312" ry="7.865"/>
			<path fill="#AFAEAE" d="M48.246,90.31c0,3.191-2.734,5.779-6.106,5.779s-6.109-2.588-6.109-5.779
				c0-3.192,2.737-5.781,6.109-5.781S48.246,87.117,48.246,90.31"/>
			<ellipse fill="none" stroke="#929292" stroke-miterlimit="10" cx="42.138" cy="90.31" rx="6.108" ry="5.779"/>
			<g>
				<g>
					<defs>
						<rect id="SVGID_7_" x="36.382" y="84.862" width="11.513" height="10.894"/>
					</defs>
					<clipPath id="SVGID_8_">
						<use xlink:href="#SVGID_7_"  overflow="visible"/>
					</clipPath>
					<path clip-path="url(#SVGID_8_)" fill="#BEBEBD" d="M47.895,90.31c0,3.008-2.577,5.446-5.755,5.446
						c-3.18,0-5.758-2.438-5.758-5.446c0-3.009,2.578-5.447,5.758-5.447C45.317,84.862,47.895,87.301,47.895,90.31"/>
					<path clip-path="url(#SVGID_8_)" fill="#C0C0C0" d="M47.758,90.31c0,2.937-2.516,5.318-5.618,5.318
						c-3.104,0-5.62-2.382-5.62-5.318c0-2.938,2.516-5.32,5.62-5.32C45.242,84.989,47.758,87.371,47.758,90.31"/>
					<path clip-path="url(#SVGID_8_)" fill="#C2C3C3" d="M47.624,90.31c0,2.865-2.456,5.191-5.484,5.191
						c-3.03,0-5.485-2.326-5.485-5.191c0-2.867,2.455-5.191,5.485-5.191C45.168,85.118,47.624,87.442,47.624,90.31"/>
					<path clip-path="url(#SVGID_8_)" fill="#C4C5C4" d="M47.486,90.31c0,2.795-2.394,5.063-5.347,5.063
						c-2.956,0-5.353-2.268-5.353-5.063c0-2.797,2.396-5.063,5.353-5.063C45.093,85.246,47.486,87.513,47.486,90.31"/>
					<path clip-path="url(#SVGID_8_)" fill="#C6C8C8" d="M47.353,90.31c0,2.724-2.335,4.935-5.213,4.935
						c-2.88,0-5.215-2.211-5.215-4.935c0-2.726,2.335-4.936,5.215-4.936C45.018,85.374,47.353,87.584,47.353,90.31"/>
					<path clip-path="url(#SVGID_8_)" fill="#C9CACB" d="M47.217,90.31c0,2.653-2.274,4.806-5.077,4.806
						c-2.806,0-5.079-2.152-5.079-4.806c0-2.655,2.273-4.808,5.079-4.808C44.942,85.502,47.217,87.654,47.217,90.31"/>
					<path clip-path="url(#SVGID_8_)" fill="#CBCDCD" d="M47.082,90.31c0,2.583-2.215,4.679-4.942,4.679
						c-2.731,0-4.944-2.096-4.944-4.679c0-2.584,2.213-4.68,4.944-4.68C44.867,85.63,47.082,87.726,47.082,90.31"/>
					<path clip-path="url(#SVGID_8_)" fill="#CCCFD0" d="M46.946,90.31c0,2.513-2.154,4.551-4.807,4.551
						c-2.655,0-4.809-2.038-4.809-4.551c0-2.514,2.153-4.551,4.809-4.551C44.792,85.759,46.946,87.796,46.946,90.31"/>
					<path clip-path="url(#SVGID_8_)" fill="#D0D2D2" d="M46.811,90.31c0,2.441-2.091,4.422-4.671,4.422
						c-2.581,0-4.673-1.98-4.673-4.422c0-2.443,2.092-4.424,4.673-4.424C44.72,85.886,46.811,87.866,46.811,90.31"/>
					<path clip-path="url(#SVGID_8_)" fill="#D2D4D5" d="M46.676,90.31c0,2.37-2.031,4.293-4.536,4.293
						c-2.508,0-4.538-1.923-4.538-4.293c0-2.372,2.03-4.294,4.538-4.294C44.645,86.016,46.676,87.938,46.676,90.31"/>
				</g>
			</g>
			<polygon fill="#605F5E" points="41.387,93.585 41.387,91.021 38.677,91.021 38.677,89.598 41.387,89.598 41.387,87.033 
				42.889,87.033 42.889,89.598 45.6,89.598 45.6,91.021 42.889,91.021 42.889,93.585 			"/>
			<path fill="#221714" d="M42.761,87.157v2.316v0.247h0.258h2.45v1.177h-2.45h-0.258v0.245v2.317h-1.243v-2.317v-0.245h-0.26
				h-2.449v-1.177h2.449h0.26v-0.247v-2.316H42.761z M43.019,86.91h-1.761v2.563h-2.709v1.669h2.709v2.564h1.761v-2.564h2.711
				v-1.669h-2.711V86.91z"/>
		</g>
		<g>
			<path fill="#AFAEAE" d="M379.954,90.31c0,4.345-3.721,7.865-8.311,7.865c-4.591,0-8.313-3.521-8.313-7.865
				s3.722-7.867,8.313-7.867C376.233,82.442,379.954,85.965,379.954,90.31"/>
			<ellipse fill="none" stroke="#929292" stroke-miterlimit="10" cx="371.643" cy="90.31" rx="8.312" ry="7.865"/>
			<path fill="#AFAEAE" d="M377.75,90.31c0,3.191-2.734,5.779-6.106,5.779s-6.108-2.588-6.108-5.779
				c0-3.192,2.736-5.781,6.108-5.781S377.75,87.117,377.75,90.31"/>
			<ellipse fill="none" stroke="#929292" stroke-miterlimit="10" cx="371.643" cy="90.31" rx="6.107" ry="5.779"/>
			<g>
				<g>
					<defs>
						<rect id="SVGID_9_" x="365.885" y="84.862" width="11.513" height="10.894"/>
					</defs>
					<clipPath id="SVGID_10_">
						<use xlink:href="#SVGID_9_"  overflow="visible"/>
					</clipPath>
					<path clip-path="url(#SVGID_10_)" fill="#BEBEBD" d="M377.397,90.31c0,3.008-2.576,5.446-5.754,5.446
						c-3.18,0-5.759-2.438-5.759-5.446c0-3.009,2.579-5.447,5.759-5.447C374.821,84.862,377.397,87.301,377.397,90.31"/>
					<path clip-path="url(#SVGID_10_)" fill="#C0C0C0" d="M377.261,90.31c0,2.937-2.515,5.318-5.617,5.318
						c-3.104,0-5.62-2.382-5.62-5.318c0-2.938,2.516-5.32,5.62-5.32C374.746,84.989,377.261,87.371,377.261,90.31"/>
					<path clip-path="url(#SVGID_10_)" fill="#C2C3C3" d="M377.128,90.31c0,2.865-2.456,5.191-5.484,5.191
						c-3.03,0-5.485-2.326-5.485-5.191c0-2.867,2.455-5.191,5.485-5.191C374.672,85.118,377.128,87.442,377.128,90.31"/>
					<path clip-path="url(#SVGID_10_)" fill="#C4C5C4" d="M376.99,90.31c0,2.795-2.394,5.063-5.347,5.063
						c-2.956,0-5.352-2.268-5.352-5.063c0-2.797,2.396-5.063,5.352-5.063C374.597,85.246,376.99,87.513,376.99,90.31"/>
					<path clip-path="url(#SVGID_10_)" fill="#C6C8C8" d="M376.856,90.31c0,2.724-2.335,4.935-5.213,4.935
						c-2.88,0-5.215-2.211-5.215-4.935c0-2.726,2.335-4.936,5.215-4.936C374.521,85.374,376.856,87.584,376.856,90.31"/>
					<path clip-path="url(#SVGID_10_)" fill="#C9CACB" d="M376.721,90.31c0,2.653-2.274,4.806-5.077,4.806
						c-2.806,0-5.079-2.152-5.079-4.806c0-2.655,2.273-4.808,5.079-4.808C374.446,85.502,376.721,87.654,376.721,90.31"/>
					<path clip-path="url(#SVGID_10_)" fill="#CBCDCD" d="M376.586,90.31c0,2.583-2.215,4.679-4.942,4.679
						c-2.732,0-4.944-2.096-4.944-4.679c0-2.584,2.212-4.68,4.944-4.68C374.371,85.63,376.586,87.726,376.586,90.31"/>
					<path clip-path="url(#SVGID_10_)" fill="#CCCFD0" d="M376.451,90.31c0,2.513-2.155,4.551-4.808,4.551
						c-2.655,0-4.809-2.038-4.809-4.551c0-2.514,2.153-4.551,4.809-4.551C374.296,85.759,376.451,87.796,376.451,90.31"/>
					<path clip-path="url(#SVGID_10_)" fill="#D0D2D2" d="M376.313,90.31c0,2.441-2.09,4.422-4.67,4.422
						c-2.582,0-4.673-1.98-4.673-4.422c0-2.443,2.091-4.424,4.673-4.424C374.224,85.886,376.313,87.866,376.313,90.31"/>
					<path clip-path="url(#SVGID_10_)" fill="#D2D4D5" d="M376.18,90.31c0,2.37-2.031,4.293-4.536,4.293
						c-2.508,0-4.538-1.923-4.538-4.293c0-2.372,2.03-4.294,4.538-4.294C374.148,86.016,376.18,87.938,376.18,90.31"/>
				</g>
			</g>
			<polygon fill="#605F5E" points="370.891,93.585 370.891,91.021 368.181,91.021 368.181,89.598 370.891,89.598 370.891,87.033 
				372.394,87.033 372.394,89.598 375.104,89.598 375.104,91.021 372.394,91.021 372.394,93.585 			"/>
			<path fill="#221714" d="M372.265,87.157v2.316v0.247h0.257h2.451v1.177h-2.451h-0.257v0.245v2.317h-1.243v-2.317v-0.245h-0.26
				h-2.449v-1.177h2.449h0.26v-0.247v-2.316H372.265z M372.521,86.91h-1.76v2.563h-2.709v1.669h2.709v2.564h1.76v-2.564h2.712
				v-1.669h-2.712V86.91z"/>
		</g>
	</g>
	<rect x="71.028" y="65.104" fill="#626363" width="275.281" height="3.174"/>
</g>
<linearGradient id="SVGID_11_" gradientUnits="userSpaceOnUse" x1="382.1611" y1="66.6904" x2="735.3643" y2="66.6904">
	<stop  offset="0" style="stop-color:#BEBDBE"/>
	<stop  offset="0.2151" style="stop-color:#E0E0DF"/>
	<stop  offset="0.5323" style="stop-color:#C1C0C0"/>
	<stop  offset="0.8065" style="stop-color:#E0E0DF"/>
	<stop  offset="0.9871" style="stop-color:#B1B4B5"/>
</linearGradient>
<rect x="382.161" y="16.046" fill="url(#SVGID_11_)" stroke="#626363" stroke-width="1.5" stroke-miterlimit="10" width="353.203" height="101.289"/>
<g>
	<g>
		<path fill="#AFAEAE" d="M402.838,38.078c0,4.345-3.721,7.866-8.312,7.866c-4.59,0-8.311-3.521-8.311-7.866
			s3.721-7.867,8.311-7.867C399.117,30.211,402.838,33.733,402.838,38.078"/>
		<ellipse fill="none" stroke="#929292" stroke-miterlimit="10" cx="394.527" cy="38.078" rx="8.311" ry="7.866"/>
		<path fill="#AFAEAE" d="M400.634,38.078c0,3.191-2.734,5.779-6.107,5.779c-3.372,0-6.107-2.588-6.107-5.779
			c0-3.192,2.735-5.781,6.107-5.781C397.899,32.297,400.634,34.886,400.634,38.078"/>
		<ellipse fill="none" stroke="#929292" stroke-miterlimit="10" cx="394.526" cy="38.078" rx="6.107" ry="5.779"/>
		<g>
			<g>
				<defs>
					<rect id="SVGID_12_" x="388.77" y="32.631" width="11.513" height="10.894"/>
				</defs>
				<clipPath id="SVGID_13_">
					<use xlink:href="#SVGID_12_"  overflow="visible"/>
				</clipPath>
				<path clip-path="url(#SVGID_13_)" fill="#BEBEBD" d="M400.282,38.078c0,3.008-2.577,5.446-5.756,5.446s-5.757-2.438-5.757-5.446
					c0-3.009,2.578-5.447,5.757-5.447S400.282,35.069,400.282,38.078"/>
				<path clip-path="url(#SVGID_13_)" fill="#C0C0C0" d="M400.146,38.078c0,2.937-2.516,5.318-5.619,5.318s-5.62-2.382-5.62-5.318
					c0-2.938,2.517-5.32,5.62-5.32S400.146,35.14,400.146,38.078"/>
				<path clip-path="url(#SVGID_13_)" fill="#C2C3C3" d="M400.013,38.078c0,2.866-2.457,5.191-5.486,5.191s-5.484-2.325-5.484-5.191
					c0-2.867,2.455-5.191,5.484-5.191S400.013,35.211,400.013,38.078"/>
				<path clip-path="url(#SVGID_13_)" fill="#C4C5C4" d="M399.874,38.078c0,2.795-2.393,5.063-5.348,5.063
					c-2.956,0-5.351-2.268-5.351-5.063c0-2.797,2.395-5.063,5.351-5.063C397.481,33.015,399.874,35.281,399.874,38.078"/>
				<path clip-path="url(#SVGID_13_)" fill="#C6C8C8" d="M399.74,38.078c0,2.724-2.335,4.935-5.214,4.935s-5.214-2.211-5.214-4.935
					c0-2.726,2.335-4.936,5.214-4.936S399.74,35.353,399.74,38.078"/>
				<path clip-path="url(#SVGID_13_)" fill="#C9CACB" d="M399.604,38.078c0,2.653-2.273,4.806-5.078,4.806
					c-2.806,0-5.078-2.152-5.078-4.806c0-2.655,2.272-4.808,5.078-4.808C397.331,33.271,399.604,35.423,399.604,38.078"/>
				<path clip-path="url(#SVGID_13_)" fill="#CBCDCD" d="M399.469,38.078c0,2.583-2.213,4.679-4.942,4.679
					c-2.73,0-4.943-2.096-4.943-4.679c0-2.584,2.213-4.68,4.943-4.68C397.256,33.398,399.469,35.494,399.469,38.078"/>
				<path clip-path="url(#SVGID_13_)" fill="#CCCFD0" d="M399.335,38.078c0,2.513-2.154,4.551-4.809,4.551
					c-2.655,0-4.808-2.038-4.808-4.551c0-2.514,2.152-4.551,4.808-4.551C397.181,33.527,399.335,35.564,399.335,38.078"/>
				<path clip-path="url(#SVGID_13_)" fill="#D0D2D2" d="M399.198,38.078c0,2.441-2.091,4.422-4.672,4.422
					c-2.58,0-4.673-1.98-4.673-4.422c0-2.443,2.093-4.423,4.673-4.423C397.107,33.655,399.198,35.635,399.198,38.078"/>
				<path clip-path="url(#SVGID_13_)" fill="#D2D4D5" d="M399.063,38.078c0,2.37-2.031,4.293-4.537,4.293
					c-2.507,0-4.537-1.923-4.537-4.293c0-2.372,2.03-4.294,4.537-4.294C397.032,33.784,399.063,35.706,399.063,38.078"/>
			</g>
		</g>
		<polygon fill="#605F5E" points="393.774,41.354 393.774,38.79 391.065,38.79 391.065,37.366 393.774,37.366 393.774,34.802 
			395.277,34.802 395.277,37.366 397.986,37.366 397.986,38.79 395.277,38.79 395.277,41.354 		"/>
		<path fill="#221714" d="M395.148,34.926v2.316v0.247h0.258h2.45v1.177h-2.45h-0.258v0.245v2.317h-1.243v-2.317v-0.245h-0.26
			h-2.449v-1.177h2.449h0.26v-0.247v-2.316H395.148z M395.406,34.679h-1.761v2.563h-2.709v1.669h2.709v2.564h1.761v-2.564h2.711
			v-1.669h-2.711V34.679z"/>
	</g>
	<g>
		<path fill="#AFAEAE" d="M732.34,38.078c0,4.345-3.719,7.866-8.31,7.866c-4.59,0-8.311-3.521-8.311-7.866s3.721-7.867,8.311-7.867
			C728.621,30.211,732.34,33.733,732.34,38.078"/>
		<ellipse fill="none" stroke="#929292" stroke-miterlimit="10" cx="724.03" cy="38.078" rx="8.31" ry="7.866"/>
		<path fill="#AFAEAE" d="M730.137,38.078c0,3.191-2.733,5.779-6.106,5.779c-3.371,0-6.107-2.588-6.107-5.779
			c0-3.192,2.736-5.781,6.107-5.781C727.403,32.297,730.137,34.886,730.137,38.078"/>
		<ellipse fill="none" stroke="#929292" stroke-miterlimit="10" cx="724.03" cy="38.078" rx="6.107" ry="5.779"/>
		<g>
			<g>
				<defs>
					<rect id="SVGID_14_" x="718.273" y="32.631" width="11.513" height="10.894"/>
				</defs>
				<clipPath id="SVGID_15_">
					<use xlink:href="#SVGID_14_"  overflow="visible"/>
				</clipPath>
				<path clip-path="url(#SVGID_15_)" fill="#BEBEBD" d="M729.786,38.078c0,3.008-2.578,5.446-5.756,5.446
					c-3.179,0-5.757-2.438-5.757-5.446c0-3.009,2.578-5.447,5.757-5.447C727.208,32.631,729.786,35.069,729.786,38.078"/>
				<path clip-path="url(#SVGID_15_)" fill="#C0C0C0" d="M729.649,38.078c0,2.937-2.517,5.318-5.619,5.318
					c-3.104,0-5.619-2.382-5.619-5.318c0-2.938,2.516-5.32,5.619-5.32C727.133,32.758,729.649,35.14,729.649,38.078"/>
				<path clip-path="url(#SVGID_15_)" fill="#C2C3C3" d="M729.517,38.078c0,2.866-2.457,5.191-5.486,5.191
					c-3.03,0-5.484-2.325-5.484-5.191c0-2.867,2.454-5.191,5.484-5.191C727.06,32.887,729.517,35.211,729.517,38.078"/>
				<path clip-path="url(#SVGID_15_)" fill="#C4C5C4" d="M729.378,38.078c0,2.795-2.393,5.063-5.348,5.063s-5.351-2.268-5.351-5.063
					c0-2.797,2.396-5.063,5.351-5.063S729.378,35.281,729.378,38.078"/>
				<path clip-path="url(#SVGID_15_)" fill="#C6C8C8" d="M729.243,38.078c0,2.724-2.334,4.935-5.213,4.935
					c-2.88,0-5.214-2.211-5.214-4.935c0-2.726,2.334-4.936,5.214-4.936C726.909,33.143,729.243,35.353,729.243,38.078"/>
				<path clip-path="url(#SVGID_15_)" fill="#C9CACB" d="M729.108,38.078c0,2.653-2.273,4.806-5.078,4.806s-5.078-2.152-5.078-4.806
					c0-2.655,2.273-4.808,5.078-4.808S729.108,35.423,729.108,38.078"/>
				<path clip-path="url(#SVGID_15_)" fill="#CBCDCD" d="M728.973,38.078c0,2.583-2.213,4.679-4.942,4.679
					c-2.73,0-4.943-2.096-4.943-4.679c0-2.584,2.213-4.68,4.943-4.68C726.76,33.398,728.973,35.494,728.973,38.078"/>
				<path clip-path="url(#SVGID_15_)" fill="#CCCFD0" d="M728.839,38.078c0,2.513-2.154,4.551-4.809,4.551s-4.808-2.038-4.808-4.551
					c0-2.514,2.153-4.551,4.808-4.551S728.839,35.564,728.839,38.078"/>
				<path clip-path="url(#SVGID_15_)" fill="#D0D2D2" d="M728.702,38.078c0,2.441-2.091,4.422-4.672,4.422
					c-2.58,0-4.672-1.98-4.672-4.422c0-2.443,2.092-4.423,4.672-4.423C726.611,33.655,728.702,35.635,728.702,38.078"/>
				<path clip-path="url(#SVGID_15_)" fill="#D2D4D5" d="M728.566,38.078c0,2.37-2.03,4.293-4.536,4.293
					c-2.507,0-4.537-1.923-4.537-4.293c0-2.372,2.03-4.294,4.537-4.294C726.536,33.784,728.566,35.706,728.566,38.078"/>
			</g>
		</g>
		<polygon fill="#605F5E" points="723.278,41.354 723.278,38.79 720.569,38.79 720.569,37.366 723.278,37.366 723.278,34.802 
			724.781,34.802 724.781,37.366 727.491,37.366 727.491,38.79 724.781,38.79 724.781,41.354 		"/>
		<path fill="#221714" d="M724.652,34.926v2.316v0.247h0.258h2.45v1.177h-2.45h-0.258v0.245v2.317h-1.243v-2.317v-0.245h-0.26
			h-2.451v-1.177h2.451h0.26v-0.247v-2.316H724.652z M724.91,34.679h-1.761v2.563h-2.709v1.669h2.709v2.564h1.761v-2.564h2.711
			v-1.669h-2.711V34.679z"/>
	</g>
</g>
<g>
	<g>
		<path fill="#AFAEAE" d="M402.321,90.311c0,4.345-3.721,7.865-8.311,7.865c-4.591,0-8.312-3.521-8.312-7.865
			s3.721-7.867,8.312-7.867C398.601,82.443,402.321,85.966,402.321,90.311"/>
		<ellipse fill="none" stroke="#929292" stroke-miterlimit="10" cx="394.01" cy="90.311" rx="8.311" ry="7.865"/>
		<path fill="#AFAEAE" d="M400.117,90.311c0,3.191-2.734,5.779-6.106,5.779s-6.108-2.588-6.108-5.779
			c0-3.193,2.736-5.781,6.108-5.781S400.117,87.117,400.117,90.311"/>
		<ellipse fill="none" stroke="#929292" stroke-miterlimit="10" cx="394.01" cy="90.311" rx="6.107" ry="5.779"/>
		<g>
			<g>
				<defs>
					<rect id="SVGID_16_" x="388.253" y="84.863" width="11.512" height="10.894"/>
				</defs>
				<clipPath id="SVGID_17_">
					<use xlink:href="#SVGID_16_"  overflow="visible"/>
				</clipPath>
				<path clip-path="url(#SVGID_17_)" fill="#BEBEBD" d="M399.765,90.311c0,3.008-2.576,5.446-5.754,5.446
					c-3.18,0-5.758-2.438-5.758-5.446c0-3.01,2.578-5.447,5.758-5.447C397.188,84.863,399.765,87.301,399.765,90.311"/>
				<path clip-path="url(#SVGID_17_)" fill="#C0C0C0" d="M399.628,90.311c0,2.936-2.515,5.317-5.617,5.317
					c-3.104,0-5.62-2.382-5.62-5.317c0-2.938,2.516-5.32,5.62-5.32C397.113,84.99,399.628,87.372,399.628,90.311"/>
				<path clip-path="url(#SVGID_17_)" fill="#C2C3C3" d="M399.495,90.311c0,2.865-2.456,5.191-5.484,5.191
					c-3.03,0-5.485-2.326-5.485-5.191c0-2.868,2.455-5.191,5.485-5.191C397.039,85.119,399.495,87.442,399.495,90.311"/>
				<path clip-path="url(#SVGID_17_)" fill="#C4C5C4" d="M399.357,90.311c0,2.795-2.394,5.062-5.347,5.062
					c-2.956,0-5.352-2.267-5.352-5.062c0-2.797,2.396-5.063,5.352-5.063C396.964,85.247,399.357,87.514,399.357,90.311"/>
				<path clip-path="url(#SVGID_17_)" fill="#C6C8C8" d="M399.224,90.311c0,2.724-2.335,4.934-5.213,4.934
					c-2.88,0-5.215-2.21-5.215-4.934c0-2.727,2.335-4.937,5.215-4.937C396.889,85.374,399.224,87.584,399.224,90.311"/>
				<path clip-path="url(#SVGID_17_)" fill="#C9CACB" d="M399.088,90.311c0,2.653-2.274,4.805-5.077,4.805
					c-2.806,0-5.079-2.151-5.079-4.805c0-2.655,2.273-4.808,5.079-4.808C396.813,85.503,399.088,87.655,399.088,90.311"/>
				<path clip-path="url(#SVGID_17_)" fill="#CBCDCD" d="M398.953,90.311c0,2.582-2.215,4.678-4.942,4.678
					c-2.732,0-4.944-2.096-4.944-4.678c0-2.585,2.212-4.681,4.944-4.681C396.738,85.63,398.953,87.726,398.953,90.311"/>
				<path clip-path="url(#SVGID_17_)" fill="#CCCFD0" d="M398.818,90.311c0,2.512-2.155,4.551-4.808,4.551
					c-2.655,0-4.809-2.039-4.809-4.551c0-2.515,2.153-4.552,4.809-4.552C396.663,85.759,398.818,87.796,398.818,90.311"/>
				<path clip-path="url(#SVGID_17_)" fill="#D0D2D2" d="M398.681,90.311c0,2.44-2.09,4.421-4.67,4.421
					c-2.582,0-4.673-1.98-4.673-4.421c0-2.443,2.091-4.424,4.673-4.424C396.591,85.887,398.681,87.867,398.681,90.311"/>
				<path clip-path="url(#SVGID_17_)" fill="#D2D4D5" d="M398.547,90.311c0,2.37-2.031,4.293-4.536,4.293
					c-2.508,0-4.538-1.923-4.538-4.293c0-2.373,2.03-4.295,4.538-4.295C396.516,86.016,398.547,87.938,398.547,90.311"/>
			</g>
		</g>
		<polygon fill="#605F5E" points="393.258,93.586 393.258,91.021 390.548,91.021 390.548,89.599 393.258,89.599 393.258,87.034 
			394.761,87.034 394.761,89.599 397.471,89.599 397.471,91.021 394.761,91.021 394.761,93.586 		"/>
		<path fill="#221714" d="M394.632,87.158v2.315v0.248h0.257h2.451v1.176h-2.451h-0.257v0.246v2.317h-1.243v-2.317v-0.246h-0.261
			h-2.448v-1.176h2.448h0.261v-0.248v-2.315H394.632z M394.889,86.911h-1.761v2.563h-2.708v1.67h2.708v2.563h1.761v-2.563h2.712
			v-1.67h-2.712V86.911z"/>
	</g>
	<g>
		<path fill="#AFAEAE" d="M731.825,90.311c0,4.345-3.721,7.865-8.311,7.865c-4.591,0-8.312-3.521-8.312-7.865
			s3.721-7.867,8.312-7.867C728.104,82.443,731.825,85.966,731.825,90.311"/>
		<ellipse fill="none" stroke="#929292" stroke-miterlimit="10" cx="723.514" cy="90.311" rx="8.311" ry="7.865"/>
		<path fill="#AFAEAE" d="M729.621,90.311c0,3.191-2.734,5.779-6.106,5.779s-6.108-2.588-6.108-5.779
			c0-3.193,2.736-5.781,6.108-5.781S729.621,87.117,729.621,90.311"/>
		<ellipse fill="none" stroke="#929292" stroke-miterlimit="10" cx="723.514" cy="90.311" rx="6.107" ry="5.779"/>
		<g>
			<g>
				<defs>
					<rect id="SVGID_18_" x="717.756" y="84.863" width="11.514" height="10.894"/>
				</defs>
				<clipPath id="SVGID_19_">
					<use xlink:href="#SVGID_18_"  overflow="visible"/>
				</clipPath>
				<path clip-path="url(#SVGID_19_)" fill="#BEBEBD" d="M729.27,90.311c0,3.008-2.577,5.446-5.755,5.446
					c-3.18,0-5.759-2.438-5.759-5.446c0-3.01,2.579-5.447,5.759-5.447C726.692,84.863,729.27,87.301,729.27,90.311"/>
				<path clip-path="url(#SVGID_19_)" fill="#C0C0C0" d="M729.133,90.311c0,2.936-2.516,5.317-5.618,5.317
					c-3.104,0-5.62-2.382-5.62-5.317c0-2.938,2.516-5.32,5.62-5.32C726.617,84.99,729.133,87.372,729.133,90.311"/>
				<path clip-path="url(#SVGID_19_)" fill="#C2C3C3" d="M729,90.311c0,2.865-2.457,5.191-5.485,5.191
					c-3.03,0-5.485-2.326-5.485-5.191c0-2.868,2.455-5.191,5.485-5.191C726.543,85.119,729,87.442,729,90.311"/>
				<path clip-path="url(#SVGID_19_)" fill="#C4C5C4" d="M728.861,90.311c0,2.795-2.393,5.062-5.347,5.062
					c-2.956,0-5.352-2.267-5.352-5.062c0-2.797,2.396-5.063,5.352-5.063C726.469,85.247,728.861,87.514,728.861,90.311"/>
				<path clip-path="url(#SVGID_19_)" fill="#C6C8C8" d="M728.728,90.311c0,2.724-2.335,4.934-5.213,4.934
					c-2.88,0-5.215-2.21-5.215-4.934c0-2.727,2.335-4.937,5.215-4.937C726.393,85.374,728.728,87.584,728.728,90.311"/>
				<path clip-path="url(#SVGID_19_)" fill="#C9CACB" d="M728.592,90.311c0,2.653-2.273,4.805-5.077,4.805
					c-2.806,0-5.079-2.151-5.079-4.805c0-2.655,2.273-4.808,5.079-4.808C726.318,85.503,728.592,87.655,728.592,90.311"/>
				<path clip-path="url(#SVGID_19_)" fill="#CBCDCD" d="M728.457,90.311c0,2.582-2.214,4.678-4.942,4.678
					c-2.731,0-4.944-2.096-4.944-4.678c0-2.585,2.213-4.681,4.944-4.681C726.243,85.63,728.457,87.726,728.457,90.311"/>
				<path clip-path="url(#SVGID_19_)" fill="#CCCFD0" d="M728.322,90.311c0,2.512-2.154,4.551-4.808,4.551
					c-2.655,0-4.809-2.039-4.809-4.551c0-2.515,2.153-4.552,4.809-4.552C726.168,85.759,728.322,87.796,728.322,90.311"/>
				<path clip-path="url(#SVGID_19_)" fill="#D0D2D2" d="M728.186,90.311c0,2.44-2.091,4.421-4.671,4.421
					c-2.581,0-4.673-1.98-4.673-4.421c0-2.443,2.092-4.424,4.673-4.424C726.095,85.887,728.186,87.867,728.186,90.311"/>
				<path clip-path="url(#SVGID_19_)" fill="#D2D4D5" d="M728.051,90.311c0,2.37-2.031,4.293-4.536,4.293
					c-2.508,0-4.538-1.923-4.538-4.293c0-2.373,2.03-4.295,4.538-4.295C726.02,86.016,728.051,87.938,728.051,90.311"/>
			</g>
		</g>
		<polygon fill="#605F5E" points="722.762,93.586 722.762,91.021 720.053,91.021 720.053,89.599 722.762,89.599 722.762,87.034 
			724.265,87.034 724.265,89.599 726.975,89.599 726.975,91.021 724.265,91.021 724.265,93.586 		"/>
		<path fill="#221714" d="M724.136,87.158v2.315v0.248h0.258h2.45v1.176h-2.45h-0.258v0.246v2.317h-1.243v-2.317v-0.246h-0.26
			h-2.449v-1.176h2.449h0.26v-0.248v-2.315H724.136z M724.394,86.911h-1.761v2.563h-2.709v1.67h2.709v2.563h1.761v-2.563h2.711
			v-1.67h-2.711V86.911z"/>
	</g>
</g>
<g>
	<g>
		<linearGradient id="SVGID_20_" gradientUnits="userSpaceOnUse" x1="734.5479" y1="40.5747" x2="1087.752" y2="40.5747">
			<stop  offset="0" style="stop-color:#BEBDBE"/>
			<stop  offset="0.2151" style="stop-color:#E0E0DF"/>
			<stop  offset="0.5323" style="stop-color:#C1C0C0"/>
			<stop  offset="0.8065" style="stop-color:#E0E0DF"/>
			<stop  offset="0.9871" style="stop-color:#B1B4B5"/>
		</linearGradient>
		
			<rect x="734.548" y="16.046" fill="url(#SVGID_20_)" stroke="#626363" stroke-width="1.5" stroke-miterlimit="10" width="353.204" height="49.058"/>
		<g>
			<path fill="#AFAEAE" d="M755.226,38.078c0,4.345-3.722,7.866-8.311,7.866c-4.591,0-8.311-3.521-8.311-7.866
				s3.72-7.867,8.311-7.867C751.504,30.211,755.226,33.733,755.226,38.078"/>
			<ellipse fill="none" stroke="#929292" stroke-miterlimit="10" cx="746.915" cy="38.078" rx="8.311" ry="7.866"/>
			<path fill="#AFAEAE" d="M753.021,38.078c0,3.191-2.734,5.779-6.106,5.779s-6.108-2.588-6.108-5.779
				c0-3.192,2.736-5.781,6.108-5.781S753.021,34.886,753.021,38.078"/>
			<ellipse fill="none" stroke="#929292" stroke-miterlimit="10" cx="746.914" cy="38.078" rx="6.107" ry="5.779"/>
			<g>
				<g>
					<defs>
						<rect id="SVGID_21_" x="741.157" y="32.631" width="11.513" height="10.894"/>
					</defs>
					<clipPath id="SVGID_22_">
						<use xlink:href="#SVGID_21_"  overflow="visible"/>
					</clipPath>
					<path clip-path="url(#SVGID_22_)" fill="#BEBEBD" d="M752.67,38.078c0,3.008-2.577,5.446-5.755,5.446
						c-3.181,0-5.758-2.438-5.758-5.446c0-3.009,2.577-5.447,5.758-5.447C750.093,32.631,752.67,35.069,752.67,38.078"/>
					<path clip-path="url(#SVGID_22_)" fill="#C0C0C0" d="M752.533,38.078c0,2.937-2.516,5.318-5.618,5.318
						c-3.104,0-5.62-2.382-5.62-5.318c0-2.938,2.516-5.32,5.62-5.32C750.018,32.758,752.533,35.14,752.533,38.078"/>
					<path clip-path="url(#SVGID_22_)" fill="#C2C3C3" d="M752.4,38.078c0,2.866-2.458,5.191-5.485,5.191
						c-3.03,0-5.486-2.325-5.486-5.191c0-2.867,2.456-5.191,5.486-5.191C749.942,32.887,752.4,35.211,752.4,38.078"/>
					<path clip-path="url(#SVGID_22_)" fill="#C4C5C4" d="M752.261,38.078c0,2.795-2.392,5.063-5.346,5.063
						c-2.956,0-5.352-2.268-5.352-5.063c0-2.797,2.396-5.063,5.352-5.063C749.869,33.015,752.261,35.281,752.261,38.078"/>
					<path clip-path="url(#SVGID_22_)" fill="#C6C8C8" d="M752.128,38.078c0,2.724-2.336,4.935-5.213,4.935
						c-2.88,0-5.217-2.211-5.217-4.935c0-2.726,2.337-4.936,5.217-4.936C749.792,33.143,752.128,35.353,752.128,38.078"/>
					<path clip-path="url(#SVGID_22_)" fill="#C9CACB" d="M751.992,38.078c0,2.653-2.273,4.806-5.077,4.806
						c-2.806,0-5.079-2.152-5.079-4.806c0-2.655,2.273-4.808,5.079-4.808C749.719,33.271,751.992,35.423,751.992,38.078"/>
					<path clip-path="url(#SVGID_22_)" fill="#CBCDCD" d="M751.857,38.078c0,2.583-2.214,4.679-4.942,4.679
						c-2.731,0-4.944-2.096-4.944-4.679c0-2.584,2.213-4.68,4.944-4.68C749.644,33.398,751.857,35.494,751.857,38.078"/>
					<path clip-path="url(#SVGID_22_)" fill="#CCCFD0" d="M751.723,38.078c0,2.513-2.154,4.551-4.808,4.551
						c-2.655,0-4.81-2.038-4.81-4.551c0-2.514,2.154-4.551,4.81-4.551C749.568,33.527,751.723,35.564,751.723,38.078"/>
					<path clip-path="url(#SVGID_22_)" fill="#D0D2D2" d="M751.586,38.078c0,2.441-2.091,4.422-4.671,4.422
						c-2.581,0-4.673-1.98-4.673-4.422c0-2.443,2.092-4.423,4.673-4.423C749.495,33.655,751.586,35.635,751.586,38.078"/>
					<path clip-path="url(#SVGID_22_)" fill="#D2D4D5" d="M751.451,38.078c0,2.37-2.031,4.293-4.536,4.293
						c-2.509,0-4.539-1.923-4.539-4.293c0-2.372,2.03-4.294,4.539-4.294C749.42,33.784,751.451,35.706,751.451,38.078"/>
				</g>
			</g>
			<polygon fill="#605F5E" points="746.162,41.354 746.162,38.79 743.453,38.79 743.453,37.366 746.162,37.366 746.162,34.802 
				747.665,34.802 747.665,37.366 750.375,37.366 750.375,38.79 747.665,38.79 747.665,41.354 			"/>
			<path fill="#221714" d="M747.536,34.926v2.316v0.247h0.258h2.449v1.177h-2.449h-0.258v0.245v2.317h-1.243v-2.317v-0.245h-0.26
				h-2.449v-1.177h2.449h0.26v-0.247v-2.316H747.536z M747.794,34.679h-1.761v2.563h-2.709v1.669h2.709v2.564h1.761v-2.564h2.71
				v-1.669h-2.71V34.679z"/>
		</g>
		<g>
			<path fill="#AFAEAE" d="M1084.729,38.078c0,4.345-3.721,7.866-8.311,7.866c-4.592,0-8.312-3.521-8.312-7.866
				s3.72-7.867,8.312-7.867C1081.009,30.211,1084.729,33.733,1084.729,38.078"/>
			<ellipse fill="none" stroke="#929292" stroke-miterlimit="10" cx="1076.418" cy="38.078" rx="8.311" ry="7.866"/>
			<path fill="#AFAEAE" d="M1082.525,38.078c0,3.191-2.734,5.779-6.106,5.779s-6.108-2.588-6.108-5.779
				c0-3.192,2.736-5.781,6.108-5.781S1082.525,34.886,1082.525,38.078"/>
			<ellipse fill="none" stroke="#929292" stroke-miterlimit="10" cx="1076.418" cy="38.078" rx="6.107" ry="5.779"/>
			<g>
				<g>
					<defs>
						<rect id="SVGID_23_" x="1070.661" y="32.631" width="11.513" height="10.894"/>
					</defs>
					<clipPath id="SVGID_24_">
						<use xlink:href="#SVGID_23_"  overflow="visible"/>
					</clipPath>
					<path clip-path="url(#SVGID_24_)" fill="#BEBEBD" d="M1082.174,38.078c0,3.008-2.577,5.446-5.755,5.446
						c-3.181,0-5.758-2.438-5.758-5.446c0-3.009,2.577-5.447,5.758-5.447C1079.597,32.631,1082.174,35.069,1082.174,38.078"/>
					<path clip-path="url(#SVGID_24_)" fill="#C0C0C0" d="M1082.037,38.078c0,2.937-2.516,5.318-5.618,5.318
						c-3.105,0-5.62-2.382-5.62-5.318c0-2.938,2.515-5.32,5.62-5.32C1079.521,32.758,1082.037,35.14,1082.037,38.078"/>
					<path clip-path="url(#SVGID_24_)" fill="#C2C3C3" d="M1081.904,38.078c0,2.866-2.458,5.191-5.485,5.191
						c-3.03,0-5.485-2.325-5.485-5.191c0-2.867,2.455-5.191,5.485-5.191C1079.446,32.887,1081.904,35.211,1081.904,38.078"/>
					<path clip-path="url(#SVGID_24_)" fill="#C4C5C4" d="M1081.765,38.078c0,2.795-2.392,5.063-5.346,5.063
						c-2.956,0-5.352-2.268-5.352-5.063c0-2.797,2.396-5.063,5.352-5.063C1079.373,33.015,1081.765,35.281,1081.765,38.078"/>
					<path clip-path="url(#SVGID_24_)" fill="#C6C8C8" d="M1081.632,38.078c0,2.724-2.336,4.935-5.213,4.935
						c-2.88,0-5.216-2.211-5.216-4.935c0-2.726,2.336-4.936,5.216-4.936C1079.296,33.143,1081.632,35.353,1081.632,38.078"/>
					<path clip-path="url(#SVGID_24_)" fill="#C9CACB" d="M1081.495,38.078c0,2.653-2.272,4.806-5.076,4.806
						c-2.806,0-5.079-2.152-5.079-4.806c0-2.655,2.273-4.808,5.079-4.808C1079.223,33.271,1081.495,35.423,1081.495,38.078"/>
					<path clip-path="url(#SVGID_24_)" fill="#CBCDCD" d="M1081.361,38.078c0,2.583-2.214,4.679-4.942,4.679
						c-2.731,0-4.944-2.096-4.944-4.679c0-2.584,2.213-4.68,4.944-4.68C1079.147,33.398,1081.361,35.494,1081.361,38.078"/>
					<path clip-path="url(#SVGID_24_)" fill="#CCCFD0" d="M1081.227,38.078c0,2.513-2.154,4.551-4.808,4.551
						c-2.655,0-4.809-2.038-4.809-4.551c0-2.514,2.153-4.551,4.809-4.551C1079.072,33.527,1081.227,35.564,1081.227,38.078"/>
					<path clip-path="url(#SVGID_24_)" fill="#D0D2D2" d="M1081.09,38.078c0,2.441-2.091,4.422-4.671,4.422
						c-2.581,0-4.673-1.98-4.673-4.422c0-2.443,2.092-4.423,4.673-4.423C1078.999,33.655,1081.09,35.635,1081.09,38.078"/>
					<path clip-path="url(#SVGID_24_)" fill="#D2D4D5" d="M1080.955,38.078c0,2.37-2.031,4.293-4.536,4.293
						c-2.508,0-4.539-1.923-4.539-4.293c0-2.372,2.031-4.294,4.539-4.294C1078.924,33.784,1080.955,35.706,1080.955,38.078"/>
				</g>
			</g>
			<polygon fill="#605F5E" points="1075.666,41.354 1075.666,38.79 1072.957,38.79 1072.957,37.366 1075.666,37.366 
				1075.666,34.802 1077.168,34.802 1077.168,37.366 1079.879,37.366 1079.879,38.79 1077.168,38.79 1077.168,41.354 			"/>
			<path fill="#221714" d="M1077.039,34.926v2.316v0.247h0.259h2.449v1.177h-2.449h-0.259v0.245v2.317h-1.243v-2.317v-0.245h-0.259
				h-2.449v-1.177h2.449h0.259v-0.247v-2.316H1077.039z M1077.298,34.679h-1.761v2.563h-2.71v1.669h2.71v2.564h1.761v-2.564h2.711
				v-1.669h-2.711V34.679z"/>
		</g>
	</g>
	<g>
		<linearGradient id="SVGID_25_" gradientUnits="userSpaceOnUse" x1="734.5479" y1="92.8066" x2="1087.752" y2="92.8066">
			<stop  offset="0" style="stop-color:#BEBDBE"/>
			<stop  offset="0.2151" style="stop-color:#E0E0DF"/>
			<stop  offset="0.5323" style="stop-color:#C1C0C0"/>
			<stop  offset="0.8065" style="stop-color:#E0E0DF"/>
			<stop  offset="0.9871" style="stop-color:#B1B4B5"/>
		</linearGradient>
		
			<rect x="734.548" y="68.277" fill="url(#SVGID_25_)" stroke="#626363" stroke-width="1.5" stroke-miterlimit="10" width="353.204" height="49.058"/>
		<g>
			<path fill="#AFAEAE" d="M755.226,90.31c0,4.345-3.722,7.865-8.311,7.865c-4.591,0-8.311-3.521-8.311-7.865
				s3.72-7.867,8.311-7.867C751.504,82.442,755.226,85.965,755.226,90.31"/>
			<ellipse fill="none" stroke="#929292" stroke-miterlimit="10" cx="746.915" cy="90.31" rx="8.311" ry="7.865"/>
			<path fill="#AFAEAE" d="M753.021,90.31c0,3.191-2.734,5.779-6.106,5.779s-6.108-2.588-6.108-5.779
				c0-3.192,2.736-5.781,6.108-5.781S753.021,87.117,753.021,90.31"/>
			<ellipse fill="none" stroke="#929292" stroke-miterlimit="10" cx="746.914" cy="90.31" rx="6.107" ry="5.779"/>
			<g>
				<g>
					<defs>
						<rect id="SVGID_26_" x="741.157" y="84.862" width="11.513" height="10.894"/>
					</defs>
					<clipPath id="SVGID_27_">
						<use xlink:href="#SVGID_26_"  overflow="visible"/>
					</clipPath>
					<path clip-path="url(#SVGID_27_)" fill="#BEBEBD" d="M752.67,90.31c0,3.008-2.577,5.446-5.755,5.446
						c-3.181,0-5.758-2.438-5.758-5.446c0-3.009,2.577-5.447,5.758-5.447C750.093,84.862,752.67,87.301,752.67,90.31"/>
					<path clip-path="url(#SVGID_27_)" fill="#C0C0C0" d="M752.533,90.31c0,2.937-2.516,5.318-5.618,5.318
						c-3.104,0-5.62-2.382-5.62-5.318c0-2.938,2.516-5.32,5.62-5.32C750.018,84.989,752.533,87.371,752.533,90.31"/>
					<path clip-path="url(#SVGID_27_)" fill="#C2C3C3" d="M752.4,90.31c0,2.865-2.458,5.191-5.485,5.191
						c-3.03,0-5.486-2.326-5.486-5.191c0-2.867,2.456-5.191,5.486-5.191C749.942,85.118,752.4,87.442,752.4,90.31"/>
					<path clip-path="url(#SVGID_27_)" fill="#C4C5C4" d="M752.261,90.31c0,2.795-2.392,5.063-5.346,5.063
						c-2.956,0-5.352-2.268-5.352-5.063c0-2.797,2.396-5.063,5.352-5.063C749.869,85.246,752.261,87.513,752.261,90.31"/>
					<path clip-path="url(#SVGID_27_)" fill="#C6C8C8" d="M752.128,90.31c0,2.724-2.336,4.935-5.213,4.935
						c-2.88,0-5.217-2.211-5.217-4.935c0-2.726,2.337-4.936,5.217-4.936C749.792,85.374,752.128,87.584,752.128,90.31"/>
					<path clip-path="url(#SVGID_27_)" fill="#C9CACB" d="M751.992,90.31c0,2.653-2.273,4.806-5.077,4.806
						c-2.806,0-5.079-2.152-5.079-4.806c0-2.655,2.273-4.808,5.079-4.808C749.719,85.502,751.992,87.654,751.992,90.31"/>
					<path clip-path="url(#SVGID_27_)" fill="#CBCDCD" d="M751.857,90.31c0,2.583-2.214,4.679-4.942,4.679
						c-2.731,0-4.944-2.096-4.944-4.679c0-2.584,2.213-4.68,4.944-4.68C749.644,85.63,751.857,87.726,751.857,90.31"/>
					<path clip-path="url(#SVGID_27_)" fill="#CCCFD0" d="M751.723,90.31c0,2.513-2.154,4.551-4.808,4.551
						c-2.655,0-4.81-2.038-4.81-4.551c0-2.514,2.154-4.551,4.81-4.551C749.568,85.759,751.723,87.796,751.723,90.31"/>
					<path clip-path="url(#SVGID_27_)" fill="#D0D2D2" d="M751.586,90.31c0,2.441-2.091,4.422-4.671,4.422
						c-2.581,0-4.673-1.98-4.673-4.422c0-2.443,2.092-4.424,4.673-4.424C749.495,85.886,751.586,87.866,751.586,90.31"/>
					<path clip-path="url(#SVGID_27_)" fill="#D2D4D5" d="M751.451,90.31c0,2.37-2.031,4.293-4.536,4.293
						c-2.509,0-4.539-1.923-4.539-4.293c0-2.372,2.03-4.294,4.539-4.294C749.42,86.016,751.451,87.938,751.451,90.31"/>
				</g>
			</g>
			<polygon fill="#605F5E" points="746.162,93.585 746.162,91.021 743.453,91.021 743.453,89.598 746.162,89.598 746.162,87.033 
				747.665,87.033 747.665,89.598 750.375,89.598 750.375,91.021 747.665,91.021 747.665,93.585 			"/>
			<path fill="#221714" d="M747.536,87.157v2.316v0.247h0.258h2.449v1.177h-2.449h-0.258v0.245v2.317h-1.243v-2.317v-0.245h-0.26
				h-2.449v-1.177h2.449h0.26v-0.247v-2.316H747.536z M747.794,86.91h-1.761v2.563h-2.709v1.669h2.709v2.564h1.761v-2.564h2.71
				v-1.669h-2.71V86.91z"/>
		</g>
		<g>
			<path fill="#AFAEAE" d="M1084.729,90.31c0,4.345-3.721,7.865-8.311,7.865c-4.592,0-8.312-3.521-8.312-7.865
				s3.72-7.867,8.312-7.867C1081.009,82.442,1084.729,85.965,1084.729,90.31"/>
			<ellipse fill="none" stroke="#929292" stroke-miterlimit="10" cx="1076.418" cy="90.31" rx="8.311" ry="7.865"/>
			<path fill="#AFAEAE" d="M1082.525,90.31c0,3.191-2.734,5.779-6.106,5.779s-6.108-2.588-6.108-5.779
				c0-3.192,2.736-5.781,6.108-5.781S1082.525,87.117,1082.525,90.31"/>
			<ellipse fill="none" stroke="#929292" stroke-miterlimit="10" cx="1076.418" cy="90.31" rx="6.107" ry="5.779"/>
			<g>
				<g>
					<defs>
						<rect id="SVGID_28_" x="1070.661" y="84.862" width="11.513" height="10.894"/>
					</defs>
					<clipPath id="SVGID_29_">
						<use xlink:href="#SVGID_28_"  overflow="visible"/>
					</clipPath>
					<path clip-path="url(#SVGID_29_)" fill="#BEBEBD" d="M1082.174,90.31c0,3.008-2.577,5.446-5.755,5.446
						c-3.181,0-5.758-2.438-5.758-5.446c0-3.009,2.577-5.447,5.758-5.447C1079.597,84.862,1082.174,87.301,1082.174,90.31"/>
					<path clip-path="url(#SVGID_29_)" fill="#C0C0C0" d="M1082.037,90.31c0,2.937-2.516,5.318-5.618,5.318
						c-3.105,0-5.62-2.382-5.62-5.318c0-2.938,2.515-5.32,5.62-5.32C1079.521,84.989,1082.037,87.371,1082.037,90.31"/>
					<path clip-path="url(#SVGID_29_)" fill="#C2C3C3" d="M1081.904,90.31c0,2.865-2.458,5.191-5.485,5.191
						c-3.03,0-5.485-2.326-5.485-5.191c0-2.867,2.455-5.191,5.485-5.191C1079.446,85.118,1081.904,87.442,1081.904,90.31"/>
					<path clip-path="url(#SVGID_29_)" fill="#C4C5C4" d="M1081.765,90.31c0,2.795-2.392,5.063-5.346,5.063
						c-2.956,0-5.352-2.268-5.352-5.063c0-2.797,2.396-5.063,5.352-5.063C1079.373,85.246,1081.765,87.513,1081.765,90.31"/>
					<path clip-path="url(#SVGID_29_)" fill="#C6C8C8" d="M1081.632,90.31c0,2.724-2.336,4.935-5.213,4.935
						c-2.88,0-5.216-2.211-5.216-4.935c0-2.726,2.336-4.936,5.216-4.936C1079.296,85.374,1081.632,87.584,1081.632,90.31"/>
					<path clip-path="url(#SVGID_29_)" fill="#C9CACB" d="M1081.495,90.31c0,2.653-2.272,4.806-5.076,4.806
						c-2.806,0-5.079-2.152-5.079-4.806c0-2.655,2.273-4.808,5.079-4.808C1079.223,85.502,1081.495,87.654,1081.495,90.31"/>
					<path clip-path="url(#SVGID_29_)" fill="#CBCDCD" d="M1081.361,90.31c0,2.583-2.214,4.679-4.942,4.679
						c-2.731,0-4.944-2.096-4.944-4.679c0-2.584,2.213-4.68,4.944-4.68C1079.147,85.63,1081.361,87.726,1081.361,90.31"/>
					<path clip-path="url(#SVGID_29_)" fill="#CCCFD0" d="M1081.227,90.31c0,2.513-2.154,4.551-4.808,4.551
						c-2.655,0-4.809-2.038-4.809-4.551c0-2.514,2.153-4.551,4.809-4.551C1079.072,85.759,1081.227,87.796,1081.227,90.31"/>
					<path clip-path="url(#SVGID_29_)" fill="#D0D2D2" d="M1081.09,90.31c0,2.441-2.091,4.422-4.671,4.422
						c-2.581,0-4.673-1.98-4.673-4.422c0-2.443,2.092-4.424,4.673-4.424C1078.999,85.886,1081.09,87.866,1081.09,90.31"/>
					<path clip-path="url(#SVGID_29_)" fill="#D2D4D5" d="M1080.955,90.31c0,2.37-2.031,4.293-4.536,4.293
						c-2.508,0-4.539-1.923-4.539-4.293c0-2.372,2.031-4.294,4.539-4.294C1078.924,86.016,1080.955,87.938,1080.955,90.31"/>
				</g>
			</g>
			<polygon fill="#605F5E" points="1075.666,93.585 1075.666,91.021 1072.957,91.021 1072.957,89.598 1075.666,89.598 
				1075.666,87.033 1077.168,87.033 1077.168,89.598 1079.879,89.598 1079.879,91.021 1077.168,91.021 1077.168,93.585 			"/>
			<path fill="#221714" d="M1077.039,87.157v2.316v0.247h0.259h2.449v1.177h-2.449h-0.259v0.245v2.317h-1.243v-2.317v-0.245h-0.259
				h-2.449v-1.177h2.449h0.259v-0.247v-2.316H1077.039z M1077.298,86.91h-1.761v2.563h-2.71v1.669h2.71v2.564h1.761v-2.564h2.711
				v-1.669h-2.711V86.91z"/>
		</g>
	</g>
	<rect x="775.804" y="65.104" fill="#626363" width="275.281" height="3.174"/>
</g>
<path fill="#25231C" d="M1192.819,24.891c-0.719,0-1.503,0-2.338,0c0,0-47.038,0-66.018,0c-0.834,0-1.619,0-2.337,0
	c-1.516,0-16.884,27.695-17.152,36.393c-0.322,10.417,15.637,40.09,17.152,40.09c0.718,0,1.503,0,2.337,0
	c18.979,0,66.018,0,66.018,0c0.835,0,1.619,0,2.338,0c1.516,0,16.883-29.695,17.152-38.393
	C1210.294,52.563,1194.335,24.891,1192.819,24.891z"/>
<g>
	<path fill="#AFAEAE" d="M1110.247,105.808c0,5.365-4.594,9.716-10.266,9.716c-5.669,0-10.265-4.351-10.265-9.716
		c0-5.367,4.596-9.718,10.265-9.718C1105.653,96.09,1110.247,100.44,1110.247,105.808"/>
	<ellipse fill="none" stroke="#929292" stroke-miterlimit="10" cx="1099.982" cy="105.808" rx="10.265" ry="9.716"/>
	<path fill="#AFAEAE" d="M1107.525,105.808c0,3.942-3.378,7.14-7.544,7.14c-4.165,0-7.544-3.197-7.544-7.14
		c0-3.943,3.379-7.142,7.544-7.142C1104.147,98.666,1107.525,101.864,1107.525,105.808"/>
	<ellipse fill="none" stroke="#929292" stroke-miterlimit="10" cx="1099.981" cy="105.808" rx="7.544" ry="7.14"/>
	<g>
		<g>
			<defs>
				<rect id="SVGID_30_" x="1092.871" y="99.077" width="14.221" height="13.458"/>
			</defs>
			<clipPath id="SVGID_31_">
				<use xlink:href="#SVGID_30_"  overflow="visible"/>
			</clipPath>
			<path clip-path="url(#SVGID_31_)" fill="#BEBEBD" d="M1107.092,105.808c0,3.715-3.186,6.728-7.11,6.728
				c-3.927,0-7.11-3.013-7.11-6.728c0-3.717,3.184-6.73,7.11-6.73C1103.906,99.077,1107.092,102.091,1107.092,105.808"/>
			<path clip-path="url(#SVGID_31_)" fill="#C0C0C0" d="M1106.924,105.808c0,3.627-3.11,6.569-6.942,6.569
				c-3.834,0-6.942-2.942-6.942-6.569c0-3.63,3.108-6.571,6.942-6.571C1103.813,99.236,1106.924,102.178,1106.924,105.808"/>
			<path clip-path="url(#SVGID_31_)" fill="#C2C3C3" d="M1106.756,105.808c0,3.54-3.033,6.412-6.774,6.412
				c-3.743,0-6.774-2.872-6.774-6.412c0-3.542,3.031-6.413,6.774-6.413C1103.723,99.395,1106.756,102.266,1106.756,105.808"/>
			<path clip-path="url(#SVGID_31_)" fill="#C4C5C4" d="M1106.588,105.808c0,3.452-2.956,6.253-6.606,6.253
				s-6.608-2.801-6.608-6.253c0-3.455,2.958-6.255,6.608-6.255S1106.588,102.353,1106.588,105.808"/>
			<path clip-path="url(#SVGID_31_)" fill="#C6C8C8" d="M1106.422,105.808c0,3.364-2.885,6.095-6.44,6.095
				c-3.557,0-6.44-2.73-6.44-6.095c0-3.367,2.884-6.098,6.44-6.098C1103.537,99.71,1106.422,102.44,1106.422,105.808"/>
			<path clip-path="url(#SVGID_31_)" fill="#C9CACB" d="M1106.254,105.808c0,3.277-2.808,5.936-6.272,5.936
				c-3.464,0-6.274-2.658-6.274-5.936c0-3.28,2.811-5.938,6.274-5.938C1103.446,99.869,1106.254,102.527,1106.254,105.808"/>
			<path clip-path="url(#SVGID_31_)" fill="#CBCDCD" d="M1106.088,105.808c0,3.19-2.733,5.778-6.106,5.778
				c-3.372,0-6.105-2.588-6.105-5.778c0-3.192,2.733-5.781,6.105-5.781C1103.354,100.026,1106.088,102.615,1106.088,105.808"/>
			<path clip-path="url(#SVGID_31_)" fill="#CCCFD0" d="M1105.922,105.808c0,3.104-2.661,5.62-5.94,5.62
				c-3.278,0-5.938-2.517-5.938-5.62c0-3.105,2.66-5.622,5.938-5.622C1103.261,100.186,1105.922,102.702,1105.922,105.808"/>
			<path clip-path="url(#SVGID_31_)" fill="#D0D2D2" d="M1105.754,105.808c0,3.015-2.584,5.462-5.772,5.462
				c-3.187,0-5.771-2.447-5.771-5.462c0-3.019,2.584-5.465,5.771-5.465C1103.17,100.343,1105.754,102.789,1105.754,105.808"/>
			<path clip-path="url(#SVGID_31_)" fill="#D2D4D5" d="M1105.586,105.808c0,2.928-2.511,5.304-5.604,5.304
				c-3.097,0-5.605-2.376-5.605-5.304c0-2.931,2.509-5.305,5.605-5.305C1103.075,100.503,1105.586,102.877,1105.586,105.808"/>
		</g>
	</g>
	<polygon fill="#605F5E" points="1099.053,109.854 1099.053,106.687 1095.707,106.687 1095.707,104.928 1099.053,104.928 
		1099.053,101.761 1100.911,101.761 1100.911,104.928 1104.256,104.928 1104.256,106.687 1100.911,106.687 1100.911,109.854 	"/>
	<path fill="#221714" d="M1100.75,101.913v2.861v0.306h0.32h3.025v1.453h-3.025h-0.32v0.304v2.862h-1.535v-2.862v-0.304h-0.322
		h-3.025v-1.453h3.025h0.322v-0.306v-2.861H1100.75z M1101.07,101.608h-2.178v3.166h-3.346v2.063h3.346v3.167h2.178v-3.167h3.345
		v-2.063h-3.345V101.608z"/>
</g>
</svg>
