<?xml version="1.0" encoding="utf-8"?>
<!-- Generator: Adobe Illustrator 16.0.0, SVG Export Plug-In . SVG Version: 6.00 Build 0)  -->
<!DOCTYPE svg PUBLIC "-//W3C//DTD SVG 1.1//EN" "http://www.w3.org/Graphics/SVG/1.1/DTD/svg11.dtd">
<svg version="1.1" id="图层_1" xmlns="http://www.w3.org/2000/svg" xmlns:xlink="http://www.w3.org/1999/xlink" x="0px" y="0px"
	 width="1417.32px" height="378.43px" viewBox="0 0 1417.32 378.43" enable-background="new 0 0 1417.32 378.43"
	 xml:space="preserve">
<g>
	<rect x="-0.001" y="0.002" fill="#44626D" width="1417.322" height="378.425"/>
	<rect x="85.198" y="61.152" fill="#333333" width="1244.938" height="301.475"/>
	<path fill="#232323" d="M1328.718,361.209H86.616V62.57h1242.102V361.209z M1331.554,59.736H83.781v304.309h1247.772V59.736z"/>
	<path fill="#F5F3A6" d="M1123.392,187.914c0,1.385-1.123,2.51-2.509,2.51h-34.665c-1.387,0-2.511-1.125-2.511-2.51v-34.666
		c0-1.385,1.124-2.51,2.511-2.51h34.665c1.386,0,2.509,1.125,2.509,2.51V187.914z"/>
	<polygon fill="#366B83" points="1246.315,229.627 1305.779,229.627 1305.779,252.459 1304.587,252.459 1304.587,251.033 
		1303.589,251.033 1303.589,252.459 1302.345,252.459 1302.345,250.748 1301.36,250.748 1301.36,252.459 1300.116,252.459 
		1300.116,249.982 1299.132,249.982 1299.132,252.459 1297.888,252.459 1297.888,248.324 1296.903,248.324 1296.903,252.459 
		1295.659,252.459 1295.659,245.953 1294.673,245.953 1294.673,252.459 1293.431,252.459 1293.431,241.938 1292.433,241.938 
		1292.433,252.459 1291.201,252.459 1291.201,237.26 1290.204,237.26 1290.204,252.459 1288.96,252.459 1288.96,241.938 
		1287.976,241.938 1287.976,252.459 1286.731,252.459 1286.731,245.953 1285.746,245.953 1285.746,252.459 1284.502,252.459 
		1284.502,248.324 1283.518,248.324 1283.518,252.459 1282.273,252.459 1282.273,249.982 1281.289,249.982 1281.289,252.459 
		1280.044,252.459 1280.044,250.748 1279.046,250.748 1279.046,252.459 1277.804,252.459 1277.804,251.033 1276.818,251.033 
		1276.818,252.459 1275.587,252.459 1275.587,251.033 1274.603,251.033 1274.603,252.459 1273.358,252.459 1273.358,250.748 
		1272.374,250.748 1272.374,252.459 1271.13,252.459 1271.13,249.982 1270.146,249.982 1270.146,252.459 1268.9,252.459 
		1268.9,248.324 1267.916,248.324 1267.916,252.459 1266.673,252.459 1266.673,245.953 1265.675,245.953 1265.675,252.459 
		1264.431,252.459 1264.431,241.938 1263.445,241.938 1263.445,252.459 1262.201,252.459 1262.201,237.26 1261.216,237.26 
		1261.216,252.459 1259.974,252.459 1259.974,241.938 1258.988,241.938 1258.988,252.459 1257.744,252.459 1257.744,245.953 
		1256.759,245.953 1256.759,252.459 1255.516,252.459 1255.516,248.324 1254.53,248.324 1254.53,252.459 1253.287,252.459 
		1253.287,249.982 1252.289,249.982 1252.289,252.459 1251.044,252.459 1251.044,250.748 1250.061,250.748 1250.061,252.459 
		1248.816,252.459 1248.816,251.033 1247.831,251.033 1247.831,252.459 1246.315,252.459 	"/>
	<rect x="83.781" y="1.066" fill="#191921" width="246.286" height="58.67"/>
	<rect x="330.849" y="1.066" fill="#191921" width="1000.705" height="58.67"/>
	<rect x="189.575" y="38.292" fill="#FFFFFF" width="3.183" height="12.611"/>
	<path fill="#FFFFFF" d="M218.429,41.908c-0.131-0.068-1.155-0.676-2.679-0.676c-2.057,0-3.487,1.436-3.487,3.365
		c0,1.875,1.368,3.367,3.487,3.367c1.496,0,2.538-0.594,2.679-0.666v3.383c-0.4,0.113-1.485,0.449-2.9,0.449
		c-3.581,0-6.725-2.469-6.725-6.533c0-3.764,2.846-6.531,6.725-6.531c1.492,0,2.599,0.365,2.9,0.455V41.908z"/>
	<path fill="#FFFFFF" d="M185.198,41.908c-0.129-0.068-1.15-0.676-2.674-0.676c-2.063,0-3.489,1.436-3.489,3.365
		c0,1.875,1.367,3.367,3.489,3.367c1.496,0,2.538-0.594,2.674-0.666v3.383c-0.396,0.113-1.479,0.449-2.904,0.449
		c-3.577,0-6.718-2.469-6.718-6.533c0-3.764,2.845-6.531,6.718-6.531c1.5,0,2.605,0.365,2.904,0.455V41.908z"/>
	<path fill="#FFFFFF" d="M235.11,44.597c0,3.607-2.788,6.533-6.668,6.533c-3.879,0-6.662-2.926-6.662-6.533
		c0-3.604,2.783-6.531,6.662-6.531C232.322,38.066,235.11,40.994,235.11,44.597 M228.442,41.279c-1.887,0-3.29,1.486-3.29,3.318
		c0,1.836,1.403,3.32,3.29,3.32c1.889,0,3.294-1.484,3.294-3.32C231.736,42.765,230.331,41.279,228.442,41.279"/>
	<path fill="#FFFFFF" d="M204.832,41.16c-0.048-0.016-1.388-0.387-2.488-0.387c-1.277,0-1.969,0.428-1.969,1.033
		c0,0.771,0.935,1.039,1.457,1.203l0.88,0.279c2.066,0.656,3.007,2.072,3.007,3.611c0,3.166-2.787,4.23-5.224,4.23
		c-1.692,0-3.278-0.313-3.435-0.342v-2.904c0.28,0.07,1.614,0.467,3.005,0.467c1.584,0,2.313-0.463,2.313-1.176
		c0-0.641-0.632-1.008-1.42-1.258c-0.194-0.061-0.483-0.154-0.681-0.217c-1.773-0.563-3.252-1.604-3.252-3.693
		c0-2.359,1.767-3.945,4.702-3.945c1.55,0,3.009,0.377,3.104,0.404V41.16z"/>
	<path fill="#FFFFFF" d="M172.2,24.734c0-0.871-0.709-1.576-1.578-1.576c-0.871,0-1.581,0.705-1.581,1.576v3.311
		c0,0.875,0.71,1.58,1.581,1.58c0.869,0,1.578-0.705,1.578-1.58V24.734z"/>
	<path fill="#FFFFFF" d="M180.883,20.386c0-0.867-0.709-1.578-1.581-1.578c-0.871,0-1.578,0.711-1.578,1.578v7.658
		c0,0.877,0.707,1.58,1.578,1.58c0.872,0,1.581-0.703,1.581-1.58V20.386z"/>
	<path fill="#FFFFFF" d="M189.564,14.437c0-0.867-0.71-1.57-1.581-1.57s-1.579,0.703-1.579,1.57v16.756
		c0,0.875,0.708,1.576,1.579,1.576s1.581-0.701,1.581-1.576V14.437z"/>
	<path fill="#FFFFFF" d="M198.247,20.386c0-0.867-0.712-1.578-1.582-1.578s-1.579,0.711-1.579,1.578v7.658
		c0,0.877,0.709,1.58,1.579,1.58s1.582-0.703,1.582-1.58V20.386z"/>
	<path fill="#FFFFFF" d="M206.917,24.734c0-0.871-0.705-1.576-1.568-1.576c-0.872,0-1.581,0.705-1.581,1.576v3.311
		c0,0.875,0.709,1.58,1.581,1.58c0.863,0,1.568-0.705,1.568-1.58V24.734z"/>
	<path fill="#FFFFFF" d="M215.604,20.386c0-0.867-0.705-1.578-1.575-1.578c-0.869,0-1.576,0.711-1.576,1.578v7.658
		c0,0.877,0.707,1.58,1.576,1.58c0.87,0,1.575-0.703,1.575-1.58V20.386z"/>
	<path fill="#FFFFFF" d="M224.292,14.437c0-0.867-0.705-1.57-1.577-1.57c-0.869,0-1.573,0.703-1.573,1.57v16.756
		c0,0.875,0.704,1.576,1.573,1.576c0.872,0,1.577-0.701,1.577-1.576V14.437z"/>
	<path fill="#FFFFFF" d="M232.978,20.386c0-0.867-0.705-1.578-1.596-1.578c-0.87,0-1.576,0.711-1.576,1.578v7.658
		c0,0.877,0.706,1.58,1.576,1.58c0.891,0,1.596-0.703,1.596-1.58V20.386z"/>
	<path fill="#FFFFFF" d="M241.646,24.734c0-0.871-0.708-1.576-1.576-1.576c-0.872,0-1.577,0.705-1.577,1.576v3.311
		c0,0.875,0.705,1.58,1.577,1.58c0.868,0,1.576-0.705,1.576-1.58V24.734z"/>
	<rect x="330.849" y="1.066" fill="#2B2B2B" width="1000.705" height="32.84"/>
	<path fill="#DAFF8A" d="M639.845,51.382h-9.617c-0.313,0-0.567-0.254-0.567-0.566v-6.035c0-0.311,0.255-0.566,0.567-0.566h9.617
		c0.313,0,0.567,0.256,0.567,0.566v6.035C640.412,51.128,640.157,51.382,639.845,51.382"/>
	<path fill="none" stroke="#BDBDBD" stroke-miterlimit="10" d="M639.845,51.382h-9.617c-0.313,0-0.567-0.254-0.567-0.566v-6.035
		c0-0.311,0.255-0.566,0.567-0.566h9.617c0.313,0,0.567,0.256,0.567,0.566v6.035C640.412,51.128,640.157,51.382,639.845,51.382z"/>
	<path fill="#DAFF8A" d="M669.212,51.382h-9.618c-0.312,0-0.567-0.254-0.567-0.566v-6.035c0-0.311,0.256-0.566,0.567-0.566h9.618
		c0.312,0,0.566,0.256,0.566,0.566v6.035C669.778,51.128,669.523,51.382,669.212,51.382"/>
	<path fill="none" stroke="#BDBDBD" stroke-miterlimit="10" d="M669.212,51.382h-9.618c-0.312,0-0.567-0.254-0.567-0.566v-6.035
		c0-0.311,0.256-0.566,0.567-0.566h9.618c0.312,0,0.566,0.256,0.566,0.566v6.035C669.778,51.128,669.523,51.382,669.212,51.382z"/>
	<path fill="#DAFF8A" d="M698.579,51.382h-9.619c-0.312,0-0.566-0.254-0.566-0.566v-6.035c0-0.311,0.255-0.566,0.566-0.566h9.619
		c0.312,0,0.566,0.256,0.566,0.566v6.035C699.146,51.128,698.891,51.382,698.579,51.382"/>
	<path fill="none" stroke="#BDBDBD" stroke-miterlimit="10" d="M698.579,51.382h-9.619c-0.312,0-0.566-0.254-0.566-0.566v-6.035
		c0-0.311,0.255-0.566,0.566-0.566h9.619c0.312,0,0.566,0.256,0.566,0.566v6.035C699.146,51.128,698.891,51.382,698.579,51.382z"/>
	<path fill="#DAFF8A" d="M727.945,51.382h-9.618c-0.313,0-0.567-0.254-0.567-0.566v-6.035c0-0.311,0.255-0.566,0.567-0.566h9.618
		c0.312,0,0.566,0.256,0.566,0.566v6.035C728.512,51.128,728.257,51.382,727.945,51.382"/>
	<path fill="none" stroke="#BDBDBD" stroke-miterlimit="10" d="M727.945,51.382h-9.618c-0.313,0-0.567-0.254-0.567-0.566v-6.035
		c0-0.311,0.255-0.566,0.567-0.566h9.618c0.312,0,0.566,0.256,0.566,0.566v6.035C728.512,51.128,728.257,51.382,727.945,51.382z"/>
	<path fill="#DAFF8A" d="M757.312,51.382h-9.618c-0.312,0-0.566-0.254-0.566-0.566v-6.035c0-0.311,0.255-0.566,0.566-0.566h9.618
		c0.313,0,0.567,0.256,0.567,0.566v6.035C757.879,51.128,757.624,51.382,757.312,51.382"/>
	<path fill="none" stroke="#BDBDBD" stroke-miterlimit="10" d="M757.312,51.382h-9.618c-0.312,0-0.566-0.254-0.566-0.566v-6.035
		c0-0.311,0.255-0.566,0.566-0.566h9.618c0.313,0,0.567,0.256,0.567,0.566v6.035C757.879,51.128,757.624,51.382,757.312,51.382z"/>
	<path fill="#DAFF8A" d="M786.679,51.382h-9.618c-0.313,0-0.567-0.254-0.567-0.566v-6.035c0-0.311,0.255-0.566,0.567-0.566h9.618
		c0.312,0,0.566,0.256,0.566,0.566v6.035C787.245,51.128,786.99,51.382,786.679,51.382"/>
	<path fill="none" stroke="#BDBDBD" stroke-miterlimit="10" d="M786.679,51.382h-9.618c-0.313,0-0.567-0.254-0.567-0.566v-6.035
		c0-0.311,0.255-0.566,0.567-0.566h9.618c0.312,0,0.566,0.256,0.566,0.566v6.035C787.245,51.128,786.99,51.382,786.679,51.382z"/>
	<text transform="matrix(1 0 0 1 1192.5059 51.3828)" fill="#FFFFFF" font-family="'Helvetica-Bold'" font-size="12">Cisco  3900  Series</text>
	<rect x="86.989" y="62.798" fill="#44626D" width="9.094" height="298.25"/>
	<rect x="1320.562" y="62.798" fill="#44626D" width="9.094" height="298.25"/>
	<path fill="#4A4A4A" d="M214.856,208.053v-0.063c-2.757,0.344-5.396,1.063-7.862,2.117l2.152,1.244L214.856,208.053z"/>
	<path fill="#4A4A4A" d="M225.146,211.35l3.273-1.889c-2.82-1.006-5.841-1.59-8.983-1.686v0.277L225.146,211.35z"/>
	<path fill="#4A4A4A" d="M201.146,224.934l5.71-3.297v-6.594l-4.366-2.52c-2.689,1.754-5.071,3.938-7.054,6.455v2.658
		L201.146,224.934z"/>
	<polygon fill="#4A4A4A" points="222.856,221.637 222.856,215.043 217.146,211.746 211.436,215.043 211.436,221.637 
		217.146,224.934 	"/>
	<path fill="#4A4A4A" d="M227.437,215.043v6.594l5.71,3.297l5.711-3.297v-5.719c-1.144-1.096-2.372-2.1-3.68-2.998l-2.031-1.174
		L227.437,215.043z"/>
	<path fill="#4A4A4A" d="M243.547,221.701c-0.036-0.059-0.074-0.115-0.11-0.172v0.107L243.547,221.701z"/>
	<path fill="#4A4A4A" d="M198.856,236.137v-6.594l-5.71-3.297l-2.432,1.404c-1.015,2.971-1.574,6.154-1.578,9.469l4.01,2.314
		L198.856,236.137z"/>
	<polygon fill="#4A4A4A" points="214.856,229.543 209.146,226.246 203.436,229.543 203.436,236.137 209.146,239.434 
		214.856,236.137 	"/>
	<polygon fill="#4A4A4A" points="230.856,229.543 225.146,226.246 219.436,229.543 219.436,236.137 225.146,239.434 
		230.856,236.137 	"/>
	<polygon fill="#4A4A4A" points="246.856,236.137 246.856,229.543 241.146,226.246 235.436,229.543 235.436,236.137 
		241.146,239.434 	"/>
	<path fill="#4A4A4A" d="M189.614,242.408c0.29,1.605,0.704,3.164,1.242,4.666v-3.947L189.614,242.408z"/>
	<polygon fill="#4A4A4A" points="195.437,243.127 195.437,249.721 201.146,253.018 206.857,249.721 206.857,243.127 201.146,239.83 
			"/>
	<polygon fill="#4A4A4A" points="211.437,243.127 211.437,249.721 217.146,253.018 222.857,249.721 222.857,243.127 217.146,239.83 
			"/>
	<polygon fill="#4A4A4A" points="238.856,243.127 233.146,239.83 227.436,243.127 227.436,249.721 233.146,253.018 238.856,249.721 
			"/>
	<path fill="#4A4A4A" d="M243.437,249.721l1.306,0.754c1.534-3.012,2.563-6.322,2.979-9.822l-4.285,2.475V249.721z"/>
	<path fill="#4A4A4A" d="M195.913,255.928c0.907,1.09,1.891,2.115,2.944,3.064v-1.365L195.913,255.928z"/>
	<path fill="#4A4A4A" d="M214.856,257.627l-5.71-3.297l-5.711,3.297v4.752c2.638,1.582,5.544,2.758,8.634,3.451l2.787-1.609V257.627
		z"/>
	<path fill="#4A4A4A" d="M225.146,254.33l-5.71,3.297v6.594l3.475,2.006c2.797-0.418,5.465-1.234,7.945-2.381v-6.219L225.146,254.33
		z"/>
	<path fill="#4A4A4A" d="M242.022,254.836l-0.876-0.506l-5.71,3.297v3.576C237.948,259.434,240.175,257.287,242.022,254.836"/>
	<path fill="#4A4A4A" d="M440.97,119.9v-0.063c-2.758,0.344-5.397,1.063-7.863,2.117l2.152,1.242L440.97,119.9z"/>
	<path fill="#4A4A4A" d="M451.259,123.197l3.273-1.891c-2.82-1.006-5.84-1.59-8.983-1.684v0.277L451.259,123.197z"/>
	<path fill="#4A4A4A" d="M427.259,136.781l5.71-3.297v-6.594l-4.366-2.521c-2.689,1.756-5.071,3.939-7.054,6.455v2.66
		L427.259,136.781z"/>
	<polygon fill="#4A4A4A" points="448.97,133.484 448.97,126.89 443.259,123.593 437.548,126.89 437.548,133.484 443.259,136.781 	
		"/>
	<path fill="#4A4A4A" d="M453.549,126.89v6.594l5.71,3.297l5.711-3.297v-5.719c-1.143-1.096-2.372-2.1-3.68-3l-2.031-1.172
		L453.549,126.89z"/>
	<path fill="#4A4A4A" d="M469.659,133.546c-0.036-0.057-0.074-0.113-0.11-0.172v0.109L469.659,133.546z"/>
	<path fill="#4A4A4A" d="M424.97,147.984v-6.594l-5.711-3.297l-2.432,1.402c-1.015,2.973-1.574,6.154-1.578,9.471l4.01,2.314
		L424.97,147.984z"/>
	<polygon fill="#4A4A4A" points="440.97,141.39 435.259,138.093 429.548,141.39 429.548,147.984 435.259,151.281 440.97,147.984 	
		"/>
	<polygon fill="#4A4A4A" points="456.97,141.39 451.259,138.093 445.548,141.39 445.548,147.984 451.259,151.281 456.97,147.984 	
		"/>
	<polygon fill="#4A4A4A" points="472.97,147.984 472.97,141.39 467.259,138.093 461.548,141.39 461.548,147.984 467.259,151.281 	
		"/>
	<path fill="#4A4A4A" d="M415.727,154.255c0.29,1.604,0.704,3.164,1.243,4.666v-3.947L415.727,154.255z"/>
	<polygon fill="#4A4A4A" points="421.549,154.974 421.549,161.568 427.259,164.865 432.97,161.568 432.97,154.974 427.259,151.675 	
		"/>
	<polygon fill="#4A4A4A" points="437.549,154.974 437.549,161.568 443.259,164.865 448.97,161.568 448.97,154.974 443.259,151.675 	
		"/>
	<polygon fill="#4A4A4A" points="464.97,154.974 459.259,151.675 453.548,154.974 453.548,161.568 459.259,164.865 464.97,161.568 	
		"/>
	<path fill="#4A4A4A" d="M469.549,161.566l1.306,0.756c1.534-3.014,2.563-6.322,2.979-9.822l-4.285,2.473V161.566z"/>
	<path fill="#4A4A4A" d="M422.025,167.773c0.906,1.092,1.892,2.115,2.944,3.066v-1.365L422.025,167.773z"/>
	<path fill="#4A4A4A" d="M440.97,169.474l-5.711-3.299l-5.711,3.299v4.752c2.638,1.582,5.545,2.758,8.634,3.449l2.788-1.607V169.474
		z"/>
	<path fill="#4A4A4A" d="M451.259,166.177l-5.71,3.297v6.594l3.476,2.006c2.797-0.418,5.463-1.234,7.944-2.381v-6.219
		L451.259,166.177z"/>
	<path fill="#4A4A4A" d="M468.135,166.681l-0.876-0.506l-5.71,3.297v3.576C464.061,171.281,466.287,169.132,468.135,166.681"/>
	<path fill="#4A4A4A" d="M665.241,208.053v-0.063c-2.758,0.344-5.397,1.063-7.863,2.117l2.152,1.244L665.241,208.053z"/>
	<path fill="#4A4A4A" d="M675.53,211.35l3.273-1.889c-2.821-1.006-5.84-1.59-8.983-1.686v0.277L675.53,211.35z"/>
	<path fill="#4A4A4A" d="M651.53,224.934l5.711-3.297v-6.594l-4.366-2.52c-2.69,1.754-5.072,3.938-7.055,6.455v2.658L651.53,224.934
		z"/>
	<polygon fill="#4A4A4A" points="673.241,221.637 673.241,215.043 667.53,211.746 661.821,215.043 661.821,221.637 667.53,224.934 	
		"/>
	<path fill="#4A4A4A" d="M677.82,215.043v6.594l5.71,3.297l5.71-3.297v-5.719c-1.143-1.096-2.371-2.1-3.679-2.998l-2.031-1.174
		L677.82,215.043z"/>
	<path fill="#4A4A4A" d="M693.931,221.701c-0.036-0.059-0.074-0.115-0.11-0.172v0.107L693.931,221.701z"/>
	<path fill="#4A4A4A" d="M649.241,236.137v-6.594l-5.711-3.297l-2.432,1.404c-1.015,2.971-1.574,6.154-1.578,9.469l4.01,2.314
		L649.241,236.137z"/>
	<polygon fill="#4A4A4A" points="665.241,229.543 659.53,226.246 653.821,229.543 653.821,236.137 659.53,239.434 665.241,236.137 	
		"/>
	<polygon fill="#4A4A4A" points="681.241,229.543 675.53,226.246 669.821,229.543 669.821,236.137 675.53,239.434 681.241,236.137 	
		"/>
	<polygon fill="#4A4A4A" points="697.241,236.137 697.241,229.543 691.53,226.246 685.821,229.543 685.821,236.137 691.53,239.434 	
		"/>
	<path fill="#4A4A4A" d="M639.998,242.408c0.29,1.605,0.705,3.164,1.243,4.666v-3.947L639.998,242.408z"/>
	<polygon fill="#4A4A4A" points="645.82,243.127 645.82,249.721 651.53,253.018 657.24,249.721 657.24,243.127 651.53,239.83 	"/>
	<polygon fill="#4A4A4A" points="661.82,243.127 661.82,249.721 667.53,253.018 673.24,249.721 673.24,243.127 667.53,239.83 	"/>
	<polygon fill="#4A4A4A" points="689.241,243.127 683.53,239.83 677.821,243.127 677.821,249.721 683.53,253.018 689.241,249.721 	
		"/>
	<path fill="#4A4A4A" d="M693.82,249.721l1.306,0.754c1.534-3.012,2.563-6.322,2.979-9.822l-4.285,2.475V249.721z"/>
	<path fill="#4A4A4A" d="M646.298,255.928c0.905,1.09,1.891,2.115,2.943,3.064v-1.365L646.298,255.928z"/>
	<path fill="#4A4A4A" d="M665.241,257.627l-5.711-3.297l-5.709,3.297v4.752c2.636,1.582,5.543,2.758,8.632,3.451l2.788-1.609
		V257.627z"/>
	<path fill="#4A4A4A" d="M675.53,254.33l-5.71,3.297v6.594l3.476,2.006c2.797-0.418,5.464-1.234,7.945-2.381v-6.219L675.53,254.33z"
		/>
	<path fill="#4A4A4A" d="M692.406,254.836l-0.876-0.506l-5.71,3.297v3.576C688.332,259.434,690.559,257.287,692.406,254.836"/>
	<path fill="#4A4A4A" d="M1188.934,208.053v-0.063c-2.757,0.344-5.397,1.063-7.862,2.117l2.152,1.244L1188.934,208.053z"/>
	<path fill="#4A4A4A" d="M1199.224,211.35l3.273-1.889c-2.821-1.006-5.841-1.59-8.983-1.686v0.277L1199.224,211.35z"/>
	<path fill="#4A4A4A" d="M1175.224,224.934l5.71-3.297v-6.594l-4.366-2.52c-2.689,1.754-5.072,3.938-7.054,6.455v2.658
		L1175.224,224.934z"/>
	<polygon fill="#4A4A4A" points="1196.934,221.637 1196.934,215.043 1191.224,211.746 1185.513,215.043 1185.513,221.637 
		1191.224,224.934 	"/>
	<path fill="#4A4A4A" d="M1201.513,215.043v6.594l5.711,3.297l5.711-3.297v-5.719c-1.144-1.096-2.373-2.1-3.681-2.998l-2.03-1.174
		L1201.513,215.043z"/>
	<path fill="#4A4A4A" d="M1217.623,221.701c-0.036-0.059-0.074-0.115-0.11-0.172v0.107L1217.623,221.701z"/>
	<path fill="#4A4A4A" d="M1172.934,236.137v-6.594l-5.71-3.297l-2.432,1.404c-1.016,2.971-1.574,6.154-1.578,9.469l4.01,2.314
		L1172.934,236.137z"/>
	<polygon fill="#4A4A4A" points="1188.934,229.543 1183.224,226.246 1177.513,229.543 1177.513,236.137 1183.224,239.434 
		1188.934,236.137 	"/>
	<polygon fill="#4A4A4A" points="1204.934,229.543 1199.224,226.246 1193.513,229.543 1193.513,236.137 1199.224,239.434 
		1204.934,236.137 	"/>
	<polygon fill="#4A4A4A" points="1220.934,236.137 1220.934,229.543 1215.224,226.246 1209.513,229.543 1209.513,236.137 
		1215.224,239.434 	"/>
	<path fill="#4A4A4A" d="M1163.69,242.408c0.29,1.605,0.704,3.164,1.243,4.666v-3.947L1163.69,242.408z"/>
	<polygon fill="#4A4A4A" points="1169.513,243.127 1169.513,249.721 1175.224,253.018 1180.935,249.721 1180.935,243.127 
		1175.224,239.83 	"/>
	<polygon fill="#4A4A4A" points="1185.513,243.127 1185.513,249.721 1191.224,253.018 1196.935,249.721 1196.935,243.127 
		1191.224,239.83 	"/>
	<polygon fill="#4A4A4A" points="1212.934,243.127 1207.224,239.83 1201.513,243.127 1201.513,249.721 1207.224,253.018 
		1212.934,249.721 	"/>
	<path fill="#4A4A4A" d="M1217.513,249.721l1.307,0.754c1.533-3.012,2.563-6.322,2.979-9.822l-4.285,2.475V249.721z"/>
	<path fill="#4A4A4A" d="M1169.99,255.928c0.907,1.09,1.891,2.115,2.943,3.064v-1.365L1169.99,255.928z"/>
	<path fill="#4A4A4A" d="M1188.934,257.627l-5.71-3.297l-5.711,3.297v4.752c2.637,1.582,5.544,2.758,8.633,3.451l2.788-1.609
		V257.627z"/>
	<path fill="#4A4A4A" d="M1199.224,254.33l-5.71,3.297v6.594l3.475,2.006c2.797-0.418,5.464-1.234,7.945-2.381v-6.219
		L1199.224,254.33z"/>
	<path fill="#4A4A4A" d="M1216.1,254.836l-0.876-0.506l-5.711,3.297v3.576C1212.025,259.434,1214.251,257.287,1216.1,254.836"/>
	<path fill="#4A4A4A" d="M891.354,119.9v-0.063c-2.757,0.344-5.397,1.063-7.863,2.117l2.153,1.242L891.354,119.9z"/>
	<path fill="#4A4A4A" d="M901.644,123.197l3.272-1.891c-2.821-1.006-5.84-1.59-8.983-1.684v0.277L901.644,123.197z"/>
	<path fill="#4A4A4A" d="M877.644,136.781l5.71-3.297v-6.594l-4.366-2.521c-2.69,1.756-5.072,3.939-7.055,6.455v2.66
		L877.644,136.781z"/>
	<polygon fill="#4A4A4A" points="899.354,133.484 899.354,126.89 893.644,123.593 887.934,126.89 887.934,133.484 893.644,136.781 	
		"/>
	<path fill="#4A4A4A" d="M903.933,126.89v6.594l5.711,3.297l5.709-3.297v-5.719c-1.143-1.096-2.371-2.1-3.679-3l-2.03-1.172
		L903.933,126.89z"/>
	<path fill="#4A4A4A" d="M920.043,133.546c-0.036-0.057-0.074-0.113-0.11-0.172v0.109L920.043,133.546z"/>
	<path fill="#4A4A4A" d="M875.354,147.984v-6.594l-5.71-3.297l-2.432,1.402c-1.016,2.973-1.574,6.154-1.578,9.471l4.01,2.314
		L875.354,147.984z"/>
	<polygon fill="#4A4A4A" points="891.354,141.39 885.644,138.093 879.934,141.39 879.934,147.984 885.644,151.281 891.354,147.984 	
		"/>
	<polygon fill="#4A4A4A" points="907.354,141.39 901.644,138.093 895.934,141.39 895.934,147.984 901.644,151.281 907.354,147.984 	
		"/>
	<polygon fill="#4A4A4A" points="923.354,147.984 923.354,141.39 917.644,138.093 911.934,141.39 911.934,147.984 917.644,151.281 	
		"/>
	<path fill="#4A4A4A" d="M866.11,154.255c0.29,1.604,0.704,3.164,1.243,4.666v-3.947L866.11,154.255z"/>
	<polygon fill="#4A4A4A" points="871.933,154.974 871.933,161.568 877.644,164.865 883.353,161.568 883.353,154.974 
		877.644,151.675 	"/>
	<polygon fill="#4A4A4A" points="887.933,154.974 887.933,161.568 893.644,164.865 899.353,161.568 899.353,154.974 
		893.644,151.675 	"/>
	<polygon fill="#4A4A4A" points="915.354,154.974 909.644,151.675 903.934,154.974 903.934,161.568 909.644,164.865 
		915.354,161.568 	"/>
	<path fill="#4A4A4A" d="M919.933,161.566l1.306,0.756c1.534-3.014,2.563-6.322,2.979-9.822l-4.285,2.473V161.566z"/>
	<path fill="#4A4A4A" d="M872.409,167.773c0.907,1.092,1.892,2.115,2.944,3.066v-1.365L872.409,167.773z"/>
	<path fill="#4A4A4A" d="M891.354,169.474l-5.71-3.299l-5.71,3.299v4.752c2.636,1.582,5.543,2.758,8.632,3.449l2.788-1.607V169.474z
		"/>
	<path fill="#4A4A4A" d="M901.644,166.177l-5.711,3.297v6.594l3.476,2.006c2.797-0.418,5.464-1.234,7.945-2.381v-6.219
		L901.644,166.177z"/>
	<path fill="#4A4A4A" d="M918.519,166.681l-0.876-0.506l-5.71,3.297v3.576C914.444,171.281,916.671,169.132,918.519,166.681"/>
	<polygon fill="#44626D" points="1295.81,362.053 1273.182,323.033 1295.173,286.172 1273.168,249.285 1295.149,212.992 
		1271.461,175.529 1295.149,138.617 1273.173,101.781 1295.824,63.861 1299.474,66.041 1278.124,101.781 1300.149,138.699 
		1276.502,175.546 1300.149,212.943 1278.129,249.301 1300.124,286.172 1278.116,323.064 1299.488,359.92 	"/>
	<polygon fill="none" stroke="#1C1C1C" stroke-width="0.709" stroke-miterlimit="10" points="1295.81,362.053 1273.182,323.033 
		1295.173,286.172 1273.168,249.285 1295.149,212.992 1271.461,175.529 1295.149,138.617 1273.173,101.781 1295.824,63.861 
		1299.474,66.041 1278.124,101.781 1300.149,138.699 1276.502,175.546 1300.149,212.943 1278.129,249.301 1300.124,286.172 
		1278.116,323.064 1299.488,359.92 	"/>
	<polygon fill="#44626D" points="127.885,362.053 105.257,323.033 127.248,286.172 105.243,249.285 127.224,212.992 
		103.536,175.529 127.224,138.617 105.248,101.781 127.898,63.861 131.549,66.041 110.198,101.781 132.224,138.699 108.577,175.546 
		132.224,212.943 110.204,249.301 132.198,286.172 110.19,323.064 131.563,359.92 	"/>
	<polygon fill="none" stroke="#1C1C1C" stroke-width="0.709" stroke-miterlimit="10" points="127.885,362.053 105.257,323.033 
		127.248,286.172 105.243,249.285 127.224,212.992 103.536,175.529 127.224,138.617 105.248,101.781 127.898,63.861 131.549,66.041 
		110.198,101.781 132.224,138.699 108.577,175.546 132.224,212.943 110.204,249.301 132.198,286.172 110.19,323.064 131.563,359.92 
			"/>
	<polygon fill="#44626D" points="167.981,361.018 164.329,358.84 185.68,323.051 163.68,286.172 185.68,249.293 163.68,212.414 
		185.68,175.537 163.68,138.66 185.68,101.781 164.331,66.041 167.98,63.861 190.631,101.779 168.631,138.66 190.631,175.537 
		168.631,212.414 190.631,249.293 168.631,286.172 190.631,323.051 	"/>
	<polygon fill="none" stroke="#1C1C1C" stroke-width="0.709" stroke-miterlimit="10" points="167.981,361.018 164.329,358.84 
		185.68,323.051 163.68,286.172 185.68,249.293 163.68,212.414 185.68,175.537 163.68,138.66 185.68,101.781 164.331,66.041 
		167.98,63.861 190.631,101.779 168.631,138.66 190.631,175.537 168.631,212.414 190.631,249.293 168.631,286.172 190.631,323.051 	
		"/>
	<polygon fill="#44626D" points="259.779,362.053 237.151,323.033 259.142,286.172 237.138,249.285 259.118,212.992 
		235.431,175.529 259.118,138.617 237.143,101.781 259.793,63.861 263.443,66.041 242.095,101.781 264.118,138.699 240.473,175.546 
		264.118,212.943 242.099,249.301 264.093,286.172 242.085,323.064 263.457,359.92 	"/>
	<polygon fill="none" stroke="#1C1C1C" stroke-width="0.709" stroke-miterlimit="10" points="259.779,362.053 237.151,323.033 
		259.142,286.172 237.138,249.285 259.118,212.992 235.431,175.529 259.118,138.617 237.143,101.781 259.793,63.861 263.443,66.041 
		242.095,101.781 264.118,138.699 240.473,175.546 264.118,212.943 242.099,249.301 264.093,286.172 242.085,323.064 
		263.457,359.92 	"/>
	<polygon fill="#44626D" points="299.876,361.018 296.224,358.84 317.574,323.051 295.574,286.172 317.574,249.293 295.574,212.414 
		317.574,175.537 295.574,138.66 317.574,101.781 296.226,66.041 299.875,63.861 322.525,101.779 300.525,138.66 322.525,175.537 
		300.525,212.414 322.525,249.293 300.525,286.172 322.525,323.051 	"/>
	<polygon fill="none" stroke="#1C1C1C" stroke-width="0.709" stroke-miterlimit="10" points="299.876,361.018 296.224,358.84 
		317.574,323.051 295.574,286.172 317.574,249.293 295.574,212.414 317.574,175.537 295.574,138.66 317.574,101.781 296.226,66.041 
		299.875,63.861 322.525,101.779 300.525,138.66 322.525,175.537 300.525,212.414 322.525,249.293 300.525,286.172 322.525,323.051 
			"/>
	<polygon fill="#44626D" points="391.674,362.053 369.046,323.033 391.037,286.172 369.032,249.285 391.013,212.992 
		367.325,175.529 391.013,138.617 369.037,101.781 391.688,63.861 395.338,66.041 373.988,101.781 396.013,138.699 372.366,175.546 
		396.013,212.943 373.993,249.301 395.988,286.172 373.979,323.064 395.353,359.92 	"/>
	<polygon fill="none" stroke="#1C1C1C" stroke-width="0.709" stroke-miterlimit="10" points="391.674,362.053 369.046,323.033 
		391.037,286.172 369.032,249.285 391.013,212.992 367.325,175.529 391.013,138.617 369.037,101.781 391.688,63.861 395.338,66.041 
		373.988,101.781 396.013,138.699 372.366,175.546 396.013,212.943 373.993,249.301 395.988,286.172 373.979,323.064 
		395.353,359.92 	"/>
	<polygon fill="#44626D" points="431.771,361.018 428.119,358.84 449.469,323.051 427.469,286.172 449.469,249.293 427.469,212.414 
		449.469,175.537 427.469,138.66 449.469,101.781 428.12,66.041 431.77,63.861 454.42,101.779 432.42,138.66 454.42,175.537 
		432.42,212.414 454.42,249.293 432.42,286.172 454.42,323.051 	"/>
	<polygon fill="none" stroke="#1C1C1C" stroke-width="0.709" stroke-miterlimit="10" points="431.771,361.018 428.119,358.84 
		449.469,323.051 427.469,286.172 449.469,249.293 427.469,212.414 449.469,175.537 427.469,138.66 449.469,101.781 428.12,66.041 
		431.77,63.861 454.42,101.779 432.42,138.66 454.42,175.537 432.42,212.414 454.42,249.293 432.42,286.172 454.42,323.051 	"/>
	<polygon fill="#44626D" points="523.568,362.053 500.94,323.033 522.932,286.172 500.927,249.285 522.907,212.992 499.22,175.529 
		522.907,138.617 500.932,101.781 523.583,63.861 527.232,66.041 505.883,101.781 527.907,138.699 504.261,175.546 527.907,212.943 
		505.888,249.301 527.883,286.172 505.874,323.064 527.247,359.92 	"/>
	<polygon fill="none" stroke="#1C1C1C" stroke-width="0.709" stroke-miterlimit="10" points="523.568,362.053 500.94,323.033 
		522.932,286.172 500.927,249.285 522.907,212.992 499.22,175.529 522.907,138.617 500.932,101.781 523.583,63.861 527.232,66.041 
		505.883,101.781 527.907,138.699 504.261,175.546 527.907,212.943 505.888,249.301 527.883,286.172 505.874,323.064 
		527.247,359.92 	"/>
	<polygon fill="#44626D" points="563.665,361.018 560.014,358.84 581.363,323.051 559.363,286.172 581.363,249.293 559.363,212.414 
		581.363,175.537 559.363,138.66 581.363,101.781 560.015,66.041 563.664,63.861 586.314,101.779 564.314,138.66 586.314,175.537 
		564.314,212.414 586.314,249.293 564.314,286.172 586.314,323.051 	"/>
	<polygon fill="none" stroke="#1C1C1C" stroke-width="0.709" stroke-miterlimit="10" points="563.665,361.018 560.014,358.84 
		581.363,323.051 559.363,286.172 581.363,249.293 559.363,212.414 581.363,175.537 559.363,138.66 581.363,101.781 560.015,66.041 
		563.664,63.861 586.314,101.779 564.314,138.66 586.314,175.537 564.314,212.414 586.314,249.293 564.314,286.172 586.314,323.051 
			"/>
	<polygon fill="#44626D" points="655.464,362.053 632.835,323.033 654.826,286.172 632.821,249.285 654.802,212.992 
		631.114,175.529 654.802,138.617 632.826,101.781 655.478,63.861 659.127,66.041 637.777,101.781 659.802,138.699 636.155,175.546 
		659.802,212.943 637.782,249.301 659.777,286.172 637.77,323.064 659.142,359.92 	"/>
	<polygon fill="none" stroke="#1C1C1C" stroke-width="0.709" stroke-miterlimit="10" points="655.464,362.053 632.835,323.033 
		654.826,286.172 632.821,249.285 654.802,212.992 631.114,175.529 654.802,138.617 632.826,101.781 655.478,63.861 659.127,66.041 
		637.777,101.781 659.802,138.699 636.155,175.546 659.802,212.943 637.782,249.301 659.777,286.172 637.77,323.064 659.142,359.92 
			"/>
	<polygon fill="#44626D" points="695.56,361.018 691.908,358.84 713.258,323.051 691.258,286.172 713.258,249.293 691.258,212.414 
		713.258,175.537 691.258,138.66 713.258,101.781 691.909,66.041 695.559,63.861 718.209,101.779 696.209,138.66 718.209,175.537 
		696.209,212.414 718.209,249.293 696.209,286.172 718.209,323.051 	"/>
	<polygon fill="none" stroke="#1C1C1C" stroke-width="0.709" stroke-miterlimit="10" points="695.56,361.018 691.908,358.84 
		713.258,323.051 691.258,286.172 713.258,249.293 691.258,212.414 713.258,175.537 691.258,138.66 713.258,101.781 691.909,66.041 
		695.559,63.861 718.209,101.779 696.209,138.66 718.209,175.537 696.209,212.414 718.209,249.293 696.209,286.172 718.209,323.051 
			"/>
	<polygon fill="#44626D" points="787.358,362.053 764.729,323.033 786.721,286.172 764.716,249.285 786.696,212.992 
		763.009,175.529 786.696,138.617 764.721,101.781 787.372,63.861 791.021,66.041 769.672,101.781 791.696,138.699 768.05,175.546 
		791.696,212.943 769.677,249.301 791.672,286.172 769.664,323.064 791.036,359.92 	"/>
	<polygon fill="none" stroke="#1C1C1C" stroke-width="0.709" stroke-miterlimit="10" points="787.358,362.053 764.729,323.033 
		786.721,286.172 764.716,249.285 786.696,212.992 763.009,175.529 786.696,138.617 764.721,101.781 787.372,63.861 791.021,66.041 
		769.672,101.781 791.696,138.699 768.05,175.546 791.696,212.943 769.677,249.301 791.672,286.172 769.664,323.064 791.036,359.92 
			"/>
	<polygon fill="#44626D" points="827.455,361.018 823.803,358.84 845.153,323.051 823.153,286.172 845.153,249.293 823.153,212.414 
		845.153,175.537 823.153,138.66 845.153,101.781 823.804,66.041 827.454,63.861 850.104,101.779 828.104,138.66 850.104,175.537 
		828.104,212.414 850.104,249.293 828.104,286.172 850.104,323.051 	"/>
	<polygon fill="none" stroke="#1C1C1C" stroke-width="0.709" stroke-miterlimit="10" points="827.455,361.018 823.803,358.84 
		845.153,323.051 823.153,286.172 845.153,249.293 823.153,212.414 845.153,175.537 823.153,138.66 845.153,101.781 823.804,66.041 
		827.454,63.861 850.104,101.779 828.104,138.66 850.104,175.537 828.104,212.414 850.104,249.293 828.104,286.172 850.104,323.051 
			"/>
	<polygon fill="#44626D" points="919.253,362.053 896.624,323.033 918.615,286.172 896.61,249.285 918.591,212.992 894.903,175.529 
		918.591,138.617 896.615,101.781 919.267,63.861 922.916,66.041 901.566,101.781 923.591,138.699 899.944,175.546 923.591,212.943 
		901.571,249.301 923.566,286.172 901.559,323.064 922.931,359.92 	"/>
	<polygon fill="none" stroke="#1C1C1C" stroke-width="0.709" stroke-miterlimit="10" points="919.253,362.053 896.624,323.033 
		918.615,286.172 896.61,249.285 918.591,212.992 894.903,175.529 918.591,138.617 896.615,101.781 919.267,63.861 922.916,66.041 
		901.566,101.781 923.591,138.699 899.944,175.546 923.591,212.943 901.571,249.301 923.566,286.172 901.559,323.064 
		922.931,359.92 	"/>
	<polygon fill="#44626D" points="959.35,361.018 955.697,358.84 977.048,323.051 955.048,286.172 977.048,249.293 955.048,212.414 
		977.048,175.537 955.048,138.66 977.048,101.781 955.698,66.041 959.349,63.861 981.998,101.779 959.998,138.66 981.998,175.537 
		959.998,212.414 981.998,249.293 959.998,286.172 981.998,323.051 	"/>
	<polygon fill="none" stroke="#1C1C1C" stroke-width="0.709" stroke-miterlimit="10" points="959.35,361.018 955.697,358.84 
		977.048,323.051 955.048,286.172 977.048,249.293 955.048,212.414 977.048,175.537 955.048,138.66 977.048,101.781 955.698,66.041 
		959.349,63.861 981.998,101.779 959.998,138.66 981.998,175.537 959.998,212.414 981.998,249.293 959.998,286.172 981.998,323.051 
			"/>
	<polygon fill="#44626D" points="1051.147,362.053 1028.519,323.033 1050.51,286.172 1028.505,249.285 1050.486,212.992 
		1026.798,175.529 1050.486,138.617 1028.51,101.781 1051.161,63.861 1054.812,66.041 1033.461,101.781 1055.486,138.699 
		1031.839,175.546 1055.486,212.943 1033.466,249.301 1055.461,286.172 1033.453,323.064 1054.825,359.92 	"/>
	<polygon fill="none" stroke="#1C1C1C" stroke-width="0.709" stroke-miterlimit="10" points="1051.147,362.053 1028.519,323.033 
		1050.51,286.172 1028.505,249.285 1050.486,212.992 1026.798,175.529 1050.486,138.617 1028.51,101.781 1051.161,63.861 
		1054.812,66.041 1033.461,101.781 1055.486,138.699 1031.839,175.546 1055.486,212.943 1033.466,249.301 1055.461,286.172 
		1033.453,323.064 1054.825,359.92 	"/>
	<polygon fill="#44626D" points="1091.244,361.018 1087.592,358.84 1108.942,323.051 1086.942,286.172 1108.942,249.293 
		1086.942,212.414 1108.942,175.537 1086.942,138.66 1108.942,101.781 1087.593,66.041 1091.243,63.861 1113.894,101.779 
		1091.894,138.66 1113.894,175.537 1091.894,212.414 1113.894,249.293 1091.894,286.172 1113.894,323.051 	"/>
	<polygon fill="none" stroke="#1C1C1C" stroke-width="0.709" stroke-miterlimit="10" points="1091.244,361.018 1087.592,358.84 
		1108.942,323.051 1086.942,286.172 1108.942,249.293 1086.942,212.414 1108.942,175.537 1086.942,138.66 1108.942,101.781 
		1087.593,66.041 1091.243,63.861 1113.894,101.779 1091.894,138.66 1113.894,175.537 1091.894,212.414 1113.894,249.293 
		1091.894,286.172 1113.894,323.051 	"/>
	<polygon fill="#44626D" points="1183.042,362.053 1160.413,323.033 1182.404,286.172 1160.399,249.285 1182.381,212.992 
		1158.692,175.529 1182.381,138.617 1160.404,101.781 1183.056,63.861 1186.706,66.041 1165.355,101.781 1187.381,138.699 
		1163.733,175.546 1187.381,212.943 1165.36,249.301 1187.355,286.172 1165.348,323.064 1186.72,359.92 	"/>
	<polygon fill="none" stroke="#1C1C1C" stroke-width="0.709" stroke-miterlimit="10" points="1183.042,362.053 1160.413,323.033 
		1182.404,286.172 1160.399,249.285 1182.381,212.992 1158.692,175.529 1182.381,138.617 1160.404,101.781 1183.056,63.861 
		1186.706,66.041 1165.355,101.781 1187.381,138.699 1163.733,175.546 1187.381,212.943 1165.36,249.301 1187.355,286.172 
		1165.348,323.064 1186.72,359.92 	"/>
	<polygon fill="#44626D" points="1223.139,361.018 1219.486,358.84 1240.837,323.051 1218.837,286.172 1240.837,249.293 
		1218.837,212.414 1240.837,175.537 1218.837,138.66 1240.837,101.781 1219.487,66.041 1223.138,63.861 1245.788,101.779 
		1223.788,138.66 1245.788,175.537 1223.788,212.414 1245.788,249.293 1223.788,286.172 1245.788,323.051 	"/>
	<polygon fill="none" stroke="#1C1C1C" stroke-width="0.709" stroke-miterlimit="10" points="1223.139,361.018 1219.486,358.84 
		1240.837,323.051 1218.837,286.172 1240.837,249.293 1218.837,212.414 1240.837,175.537 1218.837,138.66 1240.837,101.781 
		1219.487,66.041 1223.138,63.861 1245.788,101.779 1223.788,138.66 1245.788,175.537 1223.788,212.414 1245.788,249.293 
		1223.788,286.172 1245.788,323.051 	"/>
	<rect x="86.989" y="325.154" fill="#5F7983" width="1242.666" height="36.877"/>
	
		<rect x="86.989" y="325.154" fill="none" stroke="#1C1C1C" stroke-width="1.701" stroke-miterlimit="10" width="1242.666" height="36.877"/>
	<rect x="86.989" y="62.798" fill="#548896" width="1242.666" height="4.207"/>
	
		<rect x="86.989" y="62.798" fill="none" stroke="#1C1C1C" stroke-width="0.709" stroke-miterlimit="10" width="1242.666" height="4.207"/>
	<rect x="86.989" y="75.091" fill="#548896" width="1242.666" height="4.207"/>
	
		<rect x="86.989" y="75.091" fill="none" stroke="#1C1C1C" stroke-width="0.709" stroke-miterlimit="10" width="1242.666" height="4.207"/>
	<rect x="86.989" y="87.384" fill="#548896" width="1242.666" height="4.207"/>
	
		<rect x="86.989" y="87.384" fill="none" stroke="#1C1C1C" stroke-width="0.709" stroke-miterlimit="10" width="1242.666" height="4.207"/>
	<rect x="86.989" y="99.677" fill="#548896" width="1242.666" height="4.207"/>
	
		<rect x="86.989" y="99.677" fill="none" stroke="#1C1C1C" stroke-width="0.709" stroke-miterlimit="10" width="1242.666" height="4.207"/>
	<rect x="86.989" y="111.97" fill="#548896" width="1242.666" height="4.207"/>
	
		<rect x="86.989" y="111.97" fill="none" stroke="#1C1C1C" stroke-width="0.709" stroke-miterlimit="10" width="1242.666" height="4.207"/>
	<rect x="86.989" y="124.263" fill="#548896" width="1242.666" height="4.207"/>
	
		<rect x="86.989" y="124.263" fill="none" stroke="#1C1C1C" stroke-width="0.709" stroke-miterlimit="10" width="1242.666" height="4.207"/>
	<rect x="86.989" y="136.556" fill="#548896" width="1242.666" height="4.207"/>
	
		<rect x="86.989" y="136.556" fill="none" stroke="#1C1C1C" stroke-width="0.709" stroke-miterlimit="10" width="1242.666" height="4.207"/>
	<rect x="86.989" y="148.847" fill="#548896" width="1242.666" height="4.207"/>
	
		<rect x="86.989" y="148.847" fill="none" stroke="#1C1C1C" stroke-width="0.709" stroke-miterlimit="10" width="1242.666" height="4.207"/>
	<rect x="86.989" y="161.14" fill="#548896" width="1242.666" height="4.207"/>
	
		<rect x="86.989" y="161.14" fill="none" stroke="#1C1C1C" stroke-width="0.709" stroke-miterlimit="10" width="1242.666" height="4.207"/>
	<rect x="86.989" y="173.433" fill="#548896" width="1242.666" height="4.207"/>
	
		<rect x="86.989" y="173.433" fill="none" stroke="#1C1C1C" stroke-width="0.709" stroke-miterlimit="10" width="1242.666" height="4.207"/>
	<rect x="86.989" y="185.726" fill="#548896" width="1242.666" height="4.207"/>
	
		<rect x="86.989" y="185.726" fill="none" stroke="#1C1C1C" stroke-width="0.709" stroke-miterlimit="10" width="1242.666" height="4.207"/>
	<rect x="86.989" y="198.02" fill="#548896" width="1242.666" height="4.207"/>
	
		<rect x="86.989" y="198.02" fill="none" stroke="#1C1C1C" stroke-width="0.709" stroke-miterlimit="10" width="1242.666" height="4.207"/>
	<rect x="86.989" y="210.313" fill="#548896" width="1242.666" height="4.207"/>
	
		<rect x="86.989" y="210.313" fill="none" stroke="#1C1C1C" stroke-width="0.709" stroke-miterlimit="10" width="1242.666" height="4.207"/>
	<rect x="86.989" y="222.605" fill="#548896" width="1242.666" height="4.207"/>
	
		<rect x="86.989" y="222.605" fill="none" stroke="#1C1C1C" stroke-width="0.709" stroke-miterlimit="10" width="1242.666" height="4.207"/>
	<rect x="86.989" y="234.898" fill="#548896" width="1242.666" height="4.207"/>
	
		<rect x="86.989" y="234.898" fill="none" stroke="#1C1C1C" stroke-width="0.709" stroke-miterlimit="10" width="1242.666" height="4.207"/>
	<rect x="86.989" y="247.189" fill="#548896" width="1242.666" height="4.207"/>
	
		<rect x="86.989" y="247.189" fill="none" stroke="#1C1C1C" stroke-width="0.709" stroke-miterlimit="10" width="1242.666" height="4.207"/>
	<rect x="86.989" y="259.482" fill="#548896" width="1242.666" height="4.207"/>
	
		<rect x="86.989" y="259.482" fill="none" stroke="#1C1C1C" stroke-width="0.709" stroke-miterlimit="10" width="1242.666" height="4.207"/>
	<rect x="86.989" y="271.775" fill="#548896" width="1242.666" height="4.207"/>
	
		<rect x="86.989" y="271.775" fill="none" stroke="#1C1C1C" stroke-width="0.709" stroke-miterlimit="10" width="1242.666" height="4.207"/>
	<rect x="86.989" y="284.068" fill="#548896" width="1242.666" height="4.207"/>
	
		<rect x="86.989" y="284.068" fill="none" stroke="#1C1C1C" stroke-width="0.709" stroke-miterlimit="10" width="1242.666" height="4.207"/>
	<rect x="86.989" y="296.361" fill="#548896" width="1242.666" height="4.207"/>
	
		<rect x="86.989" y="296.361" fill="none" stroke="#1C1C1C" stroke-width="0.709" stroke-miterlimit="10" width="1242.666" height="4.207"/>
	<rect x="86.989" y="308.654" fill="#548896" width="1242.666" height="4.207"/>
	
		<rect x="86.989" y="308.654" fill="none" stroke="#1C1C1C" stroke-width="0.709" stroke-miterlimit="10" width="1242.666" height="4.207"/>
	<rect x="86.989" y="320.947" fill="#548896" width="1242.666" height="4.207"/>
	
		<rect x="86.989" y="320.947" fill="none" stroke="#1C1C1C" stroke-width="0.709" stroke-miterlimit="10" width="1242.666" height="4.207"/>
	<rect x="86.989" y="333.24" fill="#548896" width="1242.666" height="4.207"/>
	
		<rect x="86.989" y="333.24" fill="none" stroke="#1C1C1C" stroke-width="0.709" stroke-miterlimit="10" width="1242.666" height="4.207"/>
	<rect x="86.989" y="345.531" fill="#548896" width="1242.666" height="4.207"/>
	
		<rect x="86.989" y="345.531" fill="none" stroke="#1C1C1C" stroke-width="0.709" stroke-miterlimit="10" width="1242.666" height="4.207"/>
	<rect x="86.989" y="357.824" fill="#548896" width="1242.666" height="4.207"/>
	
		<rect x="86.989" y="357.824" fill="none" stroke="#1C1C1C" stroke-width="0.709" stroke-miterlimit="10" width="1242.666" height="4.207"/>
	<path fill="#44626D" d="M1090.536,375.512H907.353V266.016c0-4.697,3.809-8.504,8.504-8.504h166.176
		c4.697,0,8.504,3.807,8.504,8.504V375.512z"/>
	<path fill="none" stroke="#1C1C1C" stroke-miterlimit="10" d="M1090.536,375.512H907.353V266.016c0-4.697,3.809-8.504,8.504-8.504
		h166.176c4.697,0,8.504,3.807,8.504,8.504V375.512z"/>
	<path fill="#1C1C1C" d="M1082.235,375.512H915.654V274.059c0-4.695,3.807-8.504,8.504-8.504h149.573
		c4.697,0,8.504,3.809,8.504,8.504V375.512z"/>
	<path fill="none" stroke="#1C1C1C" stroke-miterlimit="10" d="M1082.235,375.512H915.654V274.059c0-4.695,3.807-8.504,8.504-8.504
		h149.573c4.697,0,8.504,3.809,8.504,8.504V375.512z"/>
	<path fill="#1C1C1C" d="M1071.029,359.771H966.113c-1.56,0-2.835-1.277-2.835-2.836v-62.902c0-1.559,1.275-2.834,2.835-2.834
		h104.916c1.559,0,2.834,1.275,2.834,2.834v62.902C1073.863,358.494,1072.588,359.771,1071.029,359.771"/>
	<path fill="none" stroke="#000000" stroke-width="2.835" stroke-miterlimit="10" d="M1071.029,359.771H966.113
		c-1.56,0-2.835-1.277-2.835-2.836v-62.902c0-1.559,1.275-2.834,2.835-2.834h104.916c1.559,0,2.834,1.275,2.834,2.834v62.902
		C1073.863,358.494,1072.588,359.771,1071.029,359.771z"/>
	<polygon fill="#161616" points="1063.876,300.979 1063.876,337.738 1046.694,349.99 989.929,349.99 973.266,337.176 
		973.266,300.979 	"/>
	<rect x="999.342" y="314.459" fill="#343842" width="4.146" height="13.947"/>
	<rect x="1001.415" y="314.459" fill="#8D919A" width="2.073" height="11.494"/>
	<rect x="1017.441" y="323.127" fill="#343842" width="4.146" height="13.951"/>
	<rect x="1019.515" y="323.129" fill="#8D919A" width="2.072" height="11.5"/>
	<rect x="1035.536" y="314.459" fill="#343842" width="4.146" height="13.947"/>
	<rect x="1037.609" y="314.459" fill="#8D919A" width="2.073" height="11.494"/>
	<path fill="#1C1C1C" d="M955.048,296.607v56.885c0,0.938-0.766,1.701-1.701,1.701h-24.682c-0.936,0-1.7-0.764-1.7-1.701v-56.885
		c0-0.936,0.765-1.701,1.7-1.701h24.682C954.282,294.906,955.048,295.672,955.048,296.607"/>
	<path fill="none" stroke="#000000" stroke-width="2.835" stroke-miterlimit="10" d="M955.048,296.607v56.885
		c0,0.938-0.766,1.701-1.701,1.701h-24.682c-0.936,0-1.7-0.764-1.7-1.701v-56.885c0-0.936,0.765-1.701,1.7-1.701h24.682
		C954.282,294.906,955.048,295.672,955.048,296.607z"/>
	<path d="M948.269,306.377v37.346c0,0.938-0.766,1.701-1.701,1.701h-11.123c-0.936,0-1.701-0.764-1.701-1.701v-37.346
		c0-0.936,0.766-1.701,1.701-1.701h11.123C947.503,304.676,948.269,305.441,948.269,306.377"/>
	<g>
		<defs>
			<path id="SVGID_1_" d="M936.38,305.389c-0.935,0-1.701,0.764-1.701,1.701v17.961h12.653V307.09c0-0.938-0.765-1.701-1.701-1.701
				H936.38z"/>
		</defs>
		<clipPath id="SVGID_2_">
			<use xlink:href="#SVGID_1_"  overflow="visible"/>
		</clipPath>
		
			<linearGradient id="SVGID_3_" gradientUnits="userSpaceOnUse" x1="-946.0801" y1="2356.168" x2="-945.0801" y2="2356.168" gradientTransform="matrix(0 -19.6625 -19.6625 0 47269.1719 -18277.2656)">
			<stop  offset="0" style="stop-color:#474747"/>
			<stop  offset="1" style="stop-color:#000000"/>
		</linearGradient>
		<rect x="934.679" y="305.389" clip-path="url(#SVGID_2_)" fill="url(#SVGID_3_)" width="12.653" height="19.662"/>
	</g>
	<path fill="#141414" d="M947.333,325.051v17.961c0,0.936-0.766,1.701-1.701,1.701h-9.252c-0.936,0-1.7-0.766-1.7-1.701v-17.961
		H947.333z"/>
	<rect x="940.304" y="311.721" fill="#B3B3B3" width="1.403" height="6.996"/>
	<circle fill="none" stroke="#B3B3B3" stroke-miterlimit="10" cx="941.006" cy="336.48" r="2.126"/>
	<path fill="#FEFF7F" d="M947.086,279.982c0,3.428-2.778,6.207-6.206,6.207c-3.427,0-6.205-2.779-6.205-6.207
		c0-3.426,2.778-6.205,6.205-6.205C944.308,273.777,947.086,276.557,947.086,279.982"/>
	<circle fill="none" stroke="#2E2E2E" stroke-miterlimit="10" cx="940.88" cy="279.982" r="6.206"/>
	<path fill="#44626D" d="M513.617,375.512H330.434V266.016c0-4.697,3.809-8.504,8.504-8.504h166.175
		c4.697,0,8.505,3.807,8.505,8.504V375.512z"/>
	<path fill="none" stroke="#1C1C1C" stroke-miterlimit="10" d="M513.617,375.512H330.434V266.016c0-4.697,3.809-8.504,8.504-8.504
		h166.175c4.697,0,8.505,3.807,8.505,8.504V375.512z"/>
	<path fill="#1C1C1C" d="M505.316,375.512H338.735V274.059c0-4.695,3.807-8.504,8.504-8.504h149.572
		c4.697,0,8.505,3.809,8.505,8.504V375.512z"/>
	<path fill="none" stroke="#1C1C1C" stroke-miterlimit="10" d="M505.316,375.512H338.735V274.059c0-4.695,3.807-8.504,8.504-8.504
		h149.572c4.697,0,8.505,3.809,8.505,8.504V375.512z"/>
	<path fill="#1C1C1C" d="M494.109,359.771H389.193c-1.559,0-2.835-1.277-2.835-2.836v-62.902c0-1.559,1.276-2.834,2.835-2.834
		h104.916c1.56,0,2.835,1.275,2.835,2.834v62.902C496.944,358.494,495.669,359.771,494.109,359.771"/>
	<path fill="none" stroke="#000000" stroke-width="2.835" stroke-miterlimit="10" d="M494.109,359.771H389.193
		c-1.559,0-2.835-1.277-2.835-2.836v-62.902c0-1.559,1.276-2.834,2.835-2.834h104.916c1.56,0,2.835,1.275,2.835,2.834v62.902
		C496.944,358.494,495.669,359.771,494.109,359.771z"/>
	<polygon fill="#161616" points="486.957,300.979 486.957,337.738 469.775,349.99 413.009,349.99 396.347,337.176 396.347,300.979 	
		"/>
	<rect x="422.423" y="314.459" fill="#343842" width="4.146" height="13.947"/>
	<rect x="424.496" y="314.459" fill="#8D919A" width="2.073" height="11.494"/>
	<rect x="440.522" y="323.127" fill="#343842" width="4.146" height="13.951"/>
	<rect x="442.595" y="323.129" fill="#8D919A" width="2.073" height="11.5"/>
	<rect x="458.617" y="314.459" fill="#343842" width="4.146" height="13.947"/>
	<rect x="460.69" y="314.459" fill="#8D919A" width="2.072" height="11.494"/>
	<path fill="#1C1C1C" d="M378.128,296.607v56.885c0,0.938-0.765,1.701-1.701,1.701h-24.682c-0.935,0-1.699-0.764-1.699-1.701
		v-56.885c0-0.936,0.765-1.701,1.699-1.701h24.682C377.363,294.906,378.128,295.672,378.128,296.607"/>
	<path fill="none" stroke="#000000" stroke-width="2.835" stroke-miterlimit="10" d="M378.128,296.607v56.885
		c0,0.938-0.765,1.701-1.701,1.701h-24.682c-0.935,0-1.699-0.764-1.699-1.701v-56.885c0-0.936,0.765-1.701,1.699-1.701h24.682
		C377.363,294.906,378.128,295.672,378.128,296.607z"/>
	<path d="M371.349,306.377v37.346c0,0.938-0.765,1.701-1.701,1.701h-11.123c-0.936,0-1.7-0.764-1.7-1.701v-37.346
		c0-0.936,0.765-1.701,1.7-1.701h11.123C370.584,304.676,371.349,305.441,371.349,306.377"/>
	<g>
		<defs>
			<path id="SVGID_4_" d="M359.46,305.389c-0.934,0-1.701,0.764-1.701,1.701v17.961h12.654V307.09c0-0.938-0.765-1.701-1.701-1.701
				H359.46z"/>
		</defs>
		<clipPath id="SVGID_5_">
			<use xlink:href="#SVGID_4_"  overflow="visible"/>
		</clipPath>
		
			<linearGradient id="SVGID_6_" gradientUnits="userSpaceOnUse" x1="-946.0801" y1="2356.168" x2="-945.0801" y2="2356.168" gradientTransform="matrix(0 -19.6625 -19.6625 0 46692.25 -18277.2656)">
			<stop  offset="0" style="stop-color:#474747"/>
			<stop  offset="1" style="stop-color:#000000"/>
		</linearGradient>
		<rect x="357.759" y="305.389" clip-path="url(#SVGID_5_)" fill="url(#SVGID_6_)" width="12.654" height="19.662"/>
	</g>
	<path fill="#141414" d="M370.413,325.051v17.961c0,0.936-0.765,1.701-1.701,1.701h-9.251c-0.936,0-1.7-0.766-1.7-1.701v-17.961
		H370.413z"/>
	<rect x="363.385" y="311.721" fill="#B3B3B3" width="1.403" height="6.996"/>
	<circle fill="none" stroke="#B3B3B3" stroke-miterlimit="10" cx="364.086" cy="336.48" r="2.125"/>
	<path fill="#FEFF7F" d="M370.167,279.982c0,3.428-2.778,6.207-6.206,6.207c-3.427,0-6.205-2.779-6.205-6.207
		c0-3.426,2.778-6.205,6.205-6.205C367.389,273.777,370.167,276.557,370.167,279.982"/>
	<circle fill="none" stroke="#2E2E2E" stroke-miterlimit="10" cx="363.961" cy="279.982" r="6.206"/>
	<g>
		<linearGradient id="SVGID_7_" gradientUnits="userSpaceOnUse" x1="-9.765625e-004" y1="189.2148" x2="70.8647" y2="189.2148">
			<stop  offset="0" style="stop-color:#44626D"/>
			<stop  offset="0.7778" style="stop-color:#44626D"/>
			<stop  offset="0.8835" style="stop-color:#77ADBC"/>
			<stop  offset="1" style="stop-color:#091216"/>
		</linearGradient>
		<rect x="-0.001" y="0.002" fill="url(#SVGID_7_)" width="70.866" height="378.425"/>
		<g>
			<g>
				<g>
					<path fill="#B7B6B6" d="M47.14,31.494c0,3.931-3.187,7.118-7.118,7.118H24.662c-3.932,0-7.118-3.188-7.118-7.118l0,0
						c0-3.932,3.187-7.119,7.118-7.119h15.359C43.953,24.375,47.14,27.562,47.14,31.494L47.14,31.494z"/>
					<path fill="#0E0D0D" d="M46.299,31.292c0,3.82-3.097,6.916-6.917,6.916H24.461c-3.82,0-6.917-3.096-6.917-6.916l0,0
						c0-3.82,3.097-6.917,6.917-6.917h14.921C43.202,24.375,46.299,27.471,46.299,31.292L46.299,31.292z"/>
				</g>
				<g>
					<path fill="#AFAEAE" d="M41.519,31.59c0,5.701-4.595,10.322-10.265,10.322c-5.671,0-10.268-4.621-10.268-10.322
						s4.597-10.322,10.268-10.322C36.924,21.268,41.519,25.889,41.519,31.59"/>
					<ellipse fill="none" stroke="#929292" stroke-miterlimit="10" cx="31.252" cy="31.59" rx="10.266" ry="10.322"/>
					<path fill="#AFAEAE" d="M38.797,31.59c0,4.188-3.379,7.584-7.543,7.584c-4.166,0-7.545-3.396-7.545-7.584
						c0-4.189,3.379-7.586,7.545-7.586C35.418,24.004,38.797,27.401,38.797,31.59"/>
					<ellipse fill="none" stroke="#929292" stroke-miterlimit="10" cx="31.253" cy="31.59" rx="7.544" ry="7.584"/>
					<g>
						<g>
							<defs>
								<rect id="SVGID_8_" x="24.141" y="24.442" width="14.222" height="14.295"/>
							</defs>
							<clipPath id="SVGID_9_">
								<use xlink:href="#SVGID_8_"  overflow="visible"/>
							</clipPath>
							<path clip-path="url(#SVGID_9_)" fill="#BEBEBD" d="M38.361,31.59c0,3.947-3.183,7.146-7.107,7.146
								c-3.929,0-7.111-3.199-7.111-7.146s3.183-7.148,7.111-7.148C35.179,24.442,38.361,27.643,38.361,31.59"/>
							<path clip-path="url(#SVGID_9_)" fill="#C0C0C0" d="M38.194,31.59c0,3.854-3.108,6.979-6.94,6.979
								c-3.836,0-6.943-3.125-6.943-6.979c0-3.855,3.107-6.98,6.943-6.98C35.086,24.61,38.194,27.735,38.194,31.59"/>
							<path clip-path="url(#SVGID_9_)" fill="#C2C3C3" d="M38.027,31.59c0,3.761-3.034,6.813-6.773,6.813
								c-3.743,0-6.776-3.052-6.776-6.813c0-3.762,3.033-6.813,6.776-6.813C34.993,24.778,38.027,27.829,38.027,31.59"/>
							<path clip-path="url(#SVGID_9_)" fill="#C4C5C4" d="M37.859,31.59c0,3.668-2.957,6.643-6.605,6.643
								c-3.65,0-6.609-2.975-6.609-6.643c0-3.669,2.959-6.644,6.609-6.644C34.902,24.947,37.859,27.921,37.859,31.59"/>
							<path clip-path="url(#SVGID_9_)" fill="#C6C8C8" d="M37.692,31.59c0,3.574-2.884,6.475-6.438,6.475
								c-3.559,0-6.441-2.9-6.441-6.475c0-3.576,2.883-6.477,6.441-6.477C34.809,25.114,37.692,28.014,37.692,31.59"/>
							<path clip-path="url(#SVGID_9_)" fill="#C9CACB" d="M37.525,31.59c0,3.482-2.808,6.307-6.271,6.307
								c-3.466,0-6.274-2.824-6.274-6.307c0-3.484,2.809-6.309,6.274-6.309C34.718,25.282,37.525,28.106,37.525,31.59"/>
							<path clip-path="url(#SVGID_9_)" fill="#CBCDCD" d="M37.359,31.59c0,3.39-2.735,6.14-6.105,6.14
								c-3.373,0-6.107-2.75-6.107-6.14c0-3.391,2.734-6.141,6.107-6.141C34.624,25.45,37.359,28.2,37.359,31.59"/>
							<path clip-path="url(#SVGID_9_)" fill="#CCCFD0" d="M37.192,31.59c0,3.297-2.661,5.971-5.938,5.971
								c-3.28,0-5.94-2.674-5.94-5.971c0-3.299,2.66-5.971,5.94-5.971C34.531,25.62,37.192,28.292,37.192,31.59"/>
							<path clip-path="url(#SVGID_9_)" fill="#D0D2D2" d="M37.024,31.59c0,3.204-2.584,5.803-5.771,5.803
								c-3.188,0-5.771-2.599-5.771-5.803c0-3.205,2.583-5.805,5.771-5.805C34.44,25.786,37.024,28.385,37.024,31.59"/>
							<path clip-path="url(#SVGID_9_)" fill="#D2D4D5" d="M36.857,31.59c0,3.111-2.51,5.635-5.604,5.635
								c-3.098,0-5.605-2.523-5.605-5.635c0-3.113,2.508-5.635,5.605-5.635C34.348,25.956,36.857,28.477,36.857,31.59"/>
						</g>
					</g>
					<polygon fill="#605F5E" points="30.323,35.889 30.323,32.524 26.978,32.524 26.978,30.657 30.323,30.657 30.323,27.292 
						32.182,27.292 32.182,30.657 35.527,30.657 35.527,32.524 32.182,32.524 32.182,35.889 					"/>
					<path fill="#221714" d="M32.021,27.454v3.039v0.326h0.321h3.024v1.543h-3.024h-0.321v0.322v3.041h-1.536v-3.041v-0.322h-0.321
						h-3.025v-1.543h3.025h0.321v-0.326v-3.039H32.021z M32.342,27.131h-2.179v3.361h-3.346v2.191h3.346v3.365h2.179v-3.365h3.346
						v-2.191h-3.346V27.131z"/>
				</g>
			</g>
			<g>
				<g>
					<path fill="#B7B6B6" d="M47.14,347.096c0,3.932-3.187,7.119-7.118,7.119H24.662c-3.932,0-7.118-3.188-7.118-7.119l0,0
						c0-3.932,3.187-7.119,7.118-7.119h15.359C43.953,339.977,47.14,343.164,47.14,347.096L47.14,347.096z"/>
					<path fill="#0E0D0D" d="M46.299,346.893c0,3.82-3.097,6.918-6.917,6.918H24.461c-3.82,0-6.917-3.098-6.917-6.918l0,0
						c0-3.82,3.097-6.916,6.917-6.916h14.921C43.202,339.977,46.299,343.072,46.299,346.893L46.299,346.893z"/>
				</g>
				<g>
					<path fill="#AFAEAE" d="M41.519,347.137c0,5.699-4.595,10.32-10.265,10.32c-5.671,0-10.268-4.621-10.268-10.32
						c0-5.701,4.597-10.324,10.268-10.324C36.924,336.813,41.519,341.436,41.519,347.137"/>
					<ellipse fill="none" stroke="#929292" stroke-miterlimit="10" cx="31.252" cy="347.137" rx="10.266" ry="10.32"/>
					<path fill="#AFAEAE" d="M38.797,347.137c0,4.188-3.379,7.584-7.543,7.584c-4.166,0-7.545-3.396-7.545-7.584
						c0-4.189,3.379-7.586,7.545-7.586C35.418,339.551,38.797,342.947,38.797,347.137"/>
					<ellipse fill="none" stroke="#929292" stroke-miterlimit="10" cx="31.253" cy="347.137" rx="7.544" ry="7.584"/>
					<g>
						<g>
							<defs>
								<rect id="SVGID_10_" x="24.141" y="339.986" width="14.222" height="14.297"/>
							</defs>
							<clipPath id="SVGID_11_">
								<use xlink:href="#SVGID_10_"  overflow="visible"/>
							</clipPath>
							<path clip-path="url(#SVGID_11_)" fill="#BEBEBD" d="M38.361,347.137c0,3.947-3.183,7.146-7.107,7.146
								c-3.929,0-7.111-3.199-7.111-7.146c0-3.949,3.183-7.15,7.111-7.15C35.179,339.986,38.361,343.188,38.361,347.137"/>
							<path clip-path="url(#SVGID_11_)" fill="#C0C0C0" d="M38.194,347.137c0,3.854-3.108,6.979-6.94,6.979
								c-3.836,0-6.943-3.125-6.943-6.979c0-3.855,3.107-6.98,6.943-6.98C35.086,340.156,38.194,343.281,38.194,347.137"/>
							<path clip-path="url(#SVGID_11_)" fill="#C2C3C3" d="M38.027,347.137c0,3.76-3.034,6.811-6.773,6.811
								c-3.743,0-6.776-3.051-6.776-6.811c0-3.764,3.033-6.813,6.776-6.813C34.993,340.324,38.027,343.373,38.027,347.137"/>
							<path clip-path="url(#SVGID_11_)" fill="#C4C5C4" d="M37.859,347.137c0,3.668-2.957,6.643-6.605,6.643
								c-3.65,0-6.609-2.975-6.609-6.643c0-3.67,2.959-6.645,6.609-6.645C34.902,340.492,37.859,343.467,37.859,347.137"/>
							<path clip-path="url(#SVGID_11_)" fill="#C6C8C8" d="M37.692,347.137c0,3.574-2.884,6.475-6.438,6.475
								c-3.559,0-6.441-2.9-6.441-6.475c0-3.576,2.883-6.477,6.441-6.477C34.809,340.66,37.692,343.561,37.692,347.137"/>
							<path clip-path="url(#SVGID_11_)" fill="#C9CACB" d="M37.525,347.137c0,3.482-2.808,6.305-6.271,6.305
								c-3.466,0-6.274-2.822-6.274-6.305c0-3.484,2.809-6.309,6.274-6.309C34.718,340.828,37.525,343.652,37.525,347.137"/>
							<path clip-path="url(#SVGID_11_)" fill="#CBCDCD" d="M37.359,347.137c0,3.389-2.735,6.139-6.105,6.139
								c-3.373,0-6.107-2.75-6.107-6.139c0-3.393,2.734-6.143,6.107-6.143C34.624,340.994,37.359,343.744,37.359,347.137"/>
							<path clip-path="url(#SVGID_11_)" fill="#CCCFD0" d="M37.192,347.137c0,3.297-2.661,5.971-5.938,5.971
								c-3.28,0-5.94-2.674-5.94-5.971c0-3.299,2.66-5.973,5.94-5.973C34.531,341.164,37.192,343.838,37.192,347.137"/>
							<path clip-path="url(#SVGID_11_)" fill="#D0D2D2" d="M37.024,347.137c0,3.203-2.584,5.803-5.771,5.803
								c-3.188,0-5.771-2.6-5.771-5.803c0-3.205,2.583-5.805,5.771-5.805C34.44,341.332,37.024,343.932,37.024,347.137"/>
							<path clip-path="url(#SVGID_11_)" fill="#D2D4D5" d="M36.857,347.137c0,3.109-2.51,5.633-5.604,5.633
								c-3.098,0-5.605-2.523-5.605-5.633c0-3.113,2.508-5.635,5.605-5.635C34.348,341.502,36.857,344.023,36.857,347.137"/>
						</g>
					</g>
					<polygon fill="#605F5E" points="30.323,351.434 30.323,348.07 26.978,348.07 26.978,346.201 30.323,346.201 30.323,342.838 
						32.182,342.838 32.182,346.201 35.527,346.201 35.527,348.07 32.182,348.07 32.182,351.434 					"/>
					<path fill="#221714" d="M32.021,343v3.039v0.324h0.321h3.024v1.543h-3.024h-0.321v0.324v3.041h-1.536v-3.041v-0.324h-0.321
						h-3.025v-1.543h3.025h0.321v-0.324V343H32.021z M32.342,342.676h-2.179v3.363h-3.346v2.191h3.346v3.363h2.179v-3.363h3.346
						v-2.191h-3.346V342.676z"/>
				</g>
			</g>
		</g>
	</g>
	<g>
		
			<linearGradient id="SVGID_12_" gradientUnits="userSpaceOnUse" x1="-9166.376" y1="189.2148" x2="-9095.5107" y2="189.2148" gradientTransform="matrix(-1 0 0 1 -7749.0547 0)">
			<stop  offset="0" style="stop-color:#44626D"/>
			<stop  offset="0.7778" style="stop-color:#44626D"/>
			<stop  offset="0.8835" style="stop-color:#77ADBC"/>
			<stop  offset="1" style="stop-color:#091216"/>
		</linearGradient>
		<rect x="1346.456" y="0.002" fill="url(#SVGID_12_)" width="70.865" height="378.425"/>
		<g>
			<g>
				<g>
					<path fill="#B7B6B6" d="M1370.181,31.494c0,3.931,3.188,7.118,7.119,7.118h15.358c3.932,0,7.118-3.188,7.118-7.118l0,0
						c0-3.932-3.187-7.119-7.118-7.119H1377.3C1373.368,24.375,1370.181,27.562,1370.181,31.494L1370.181,31.494z"/>
					<path fill="#0E0D0D" d="M1371.022,31.292c0,3.82,3.096,6.916,6.916,6.916h14.922c3.82,0,6.916-3.096,6.916-6.916l0,0
						c0-3.82-3.096-6.917-6.916-6.917h-14.922C1374.118,24.375,1371.022,27.471,1371.022,31.292L1371.022,31.292z"/>
				</g>
				<g>
					<path fill="#AFAEAE" d="M1375.802,31.59c0,5.701,4.596,10.322,10.266,10.322s10.267-4.621,10.267-10.322
						s-4.597-10.322-10.267-10.322S1375.802,25.889,1375.802,31.59"/>
					<ellipse fill="none" stroke="#929292" stroke-miterlimit="10" cx="1386.068" cy="31.59" rx="10.266" ry="10.322"/>
					<path fill="#AFAEAE" d="M1378.524,31.59c0,4.188,3.378,7.584,7.543,7.584c4.166,0,7.544-3.396,7.544-7.584
						c0-4.189-3.378-7.586-7.544-7.586C1381.902,24.004,1378.524,27.401,1378.524,31.59"/>
					<ellipse fill="none" stroke="#929292" stroke-miterlimit="10" cx="1386.068" cy="31.59" rx="7.543" ry="7.584"/>
					<g>
						<g>
							<defs>
								<rect id="SVGID_13_" x="1378.958" y="24.442" width="14.222" height="14.295"/>
							</defs>
							<clipPath id="SVGID_14_">
								<use xlink:href="#SVGID_13_"  overflow="visible"/>
							</clipPath>
							<path clip-path="url(#SVGID_14_)" fill="#BEBEBD" d="M1378.959,31.59c0,3.947,3.183,7.146,7.108,7.146
								c3.928,0,7.11-3.199,7.11-7.146s-3.183-7.148-7.11-7.148C1382.142,24.442,1378.959,27.643,1378.959,31.59"/>
							<path clip-path="url(#SVGID_14_)" fill="#C0C0C0" d="M1379.126,31.59c0,3.854,3.108,6.979,6.941,6.979
								c3.835,0,6.942-3.125,6.942-6.979c0-3.855-3.107-6.98-6.942-6.98C1382.234,24.61,1379.126,27.735,1379.126,31.59"/>
							<path clip-path="url(#SVGID_14_)" fill="#C2C3C3" d="M1379.293,31.59c0,3.761,3.034,6.813,6.774,6.813
								c3.742,0,6.775-3.052,6.775-6.813c0-3.762-3.033-6.813-6.775-6.813C1382.327,24.778,1379.293,27.829,1379.293,31.59"/>
							<path clip-path="url(#SVGID_14_)" fill="#C4C5C4" d="M1379.461,31.59c0,3.668,2.957,6.643,6.606,6.643
								c3.65,0,6.609-2.975,6.609-6.643c0-3.669-2.959-6.644-6.609-6.644C1382.418,24.947,1379.461,27.921,1379.461,31.59"/>
							<path clip-path="url(#SVGID_14_)" fill="#C6C8C8" d="M1379.628,31.59c0,3.574,2.885,6.475,6.439,6.475
								c3.558,0,6.44-2.9,6.44-6.475c0-3.576-2.883-6.477-6.44-6.477C1382.513,25.114,1379.628,28.014,1379.628,31.59"/>
							<path clip-path="url(#SVGID_14_)" fill="#C9CACB" d="M1379.796,31.59c0,3.482,2.807,6.307,6.271,6.307
								s6.273-2.824,6.273-6.307c0-3.484-2.809-6.309-6.273-6.309S1379.796,28.106,1379.796,31.59"/>
							<path clip-path="url(#SVGID_14_)" fill="#CBCDCD" d="M1379.961,31.59c0,3.39,2.735,6.14,6.106,6.14
								c3.373,0,6.106-2.75,6.106-6.14c0-3.391-2.733-6.141-6.106-6.141C1382.696,25.45,1379.961,28.2,1379.961,31.59"/>
							<path clip-path="url(#SVGID_14_)" fill="#CCCFD0" d="M1380.128,31.59c0,3.297,2.661,5.971,5.939,5.971
								c3.279,0,5.939-2.674,5.939-5.971c0-3.299-2.66-5.971-5.939-5.971C1382.789,25.62,1380.128,28.292,1380.128,31.59"/>
							<path clip-path="url(#SVGID_14_)" fill="#D0D2D2" d="M1380.296,31.59c0,3.204,2.584,5.803,5.771,5.803
								s5.771-2.599,5.771-5.803c0-3.205-2.584-5.805-5.771-5.805S1380.296,28.385,1380.296,31.59"/>
							<path clip-path="url(#SVGID_14_)" fill="#D2D4D5" d="M1380.463,31.59c0,3.111,2.51,5.635,5.604,5.635
								c3.097,0,5.605-2.523,5.605-5.635c0-3.113-2.509-5.635-5.605-5.635C1382.973,25.956,1380.463,28.477,1380.463,31.59"/>
						</g>
					</g>
					<polygon fill="#605F5E" points="1386.997,35.889 1386.997,32.524 1390.343,32.524 1390.343,30.657 1386.997,30.657 
						1386.997,27.292 1385.139,27.292 1385.139,30.657 1381.793,30.657 1381.793,32.524 1385.139,32.524 1385.139,35.889 					"/>
					<path fill="#221714" d="M1386.836,27.454v3.039v0.326h0.321h3.025v1.543h-3.025h-0.321v0.322v3.041h-1.536v-3.041v-0.322
						h-0.321h-3.024v-1.543h3.024h0.321v-0.326v-3.039H1386.836z M1384.979,30.493h-3.346v2.191h3.346v3.365h2.179v-3.365h3.346
						v-2.191h-3.346v-3.361h-2.179V30.493z"/>
				</g>
			</g>
			<g>
				<g>
					<path fill="#B7B6B6" d="M1370.181,347.096c0,3.932,3.188,7.119,7.119,7.119h15.358c3.932,0,7.118-3.188,7.118-7.119l0,0
						c0-3.932-3.187-7.119-7.118-7.119H1377.3C1373.368,339.977,1370.181,343.164,1370.181,347.096L1370.181,347.096z"/>
					<path fill="#0E0D0D" d="M1371.022,346.893c0,3.82,3.096,6.918,6.916,6.918h14.922c3.82,0,6.916-3.098,6.916-6.918l0,0
						c0-3.82-3.096-6.916-6.916-6.916h-14.922C1374.118,339.977,1371.022,343.072,1371.022,346.893L1371.022,346.893z"/>
				</g>
				<g>
					<path fill="#AFAEAE" d="M1375.802,347.137c0,5.699,4.596,10.32,10.266,10.32s10.267-4.621,10.267-10.32
						c0-5.701-4.597-10.324-10.267-10.324S1375.802,341.436,1375.802,347.137"/>
					<ellipse fill="none" stroke="#929292" stroke-miterlimit="10" cx="1386.068" cy="347.137" rx="10.266" ry="10.32"/>
					<path fill="#AFAEAE" d="M1378.524,347.137c0,4.188,3.378,7.584,7.543,7.584c4.166,0,7.544-3.396,7.544-7.584
						c0-4.189-3.378-7.586-7.544-7.586C1381.902,339.551,1378.524,342.947,1378.524,347.137"/>
					<ellipse fill="none" stroke="#929292" stroke-miterlimit="10" cx="1386.068" cy="347.137" rx="7.543" ry="7.584"/>
					<g>
						<g>
							<defs>
								<rect id="SVGID_15_" x="1378.958" y="339.986" width="14.222" height="14.297"/>
							</defs>
							<clipPath id="SVGID_16_">
								<use xlink:href="#SVGID_15_"  overflow="visible"/>
							</clipPath>
							<path clip-path="url(#SVGID_16_)" fill="#BEBEBD" d="M1378.959,347.137c0,3.947,3.183,7.146,7.108,7.146
								c3.928,0,7.11-3.199,7.11-7.146c0-3.949-3.183-7.15-7.11-7.15C1382.142,339.986,1378.959,343.188,1378.959,347.137"/>
							<path clip-path="url(#SVGID_16_)" fill="#C0C0C0" d="M1379.126,347.137c0,3.854,3.108,6.979,6.941,6.979
								c3.835,0,6.942-3.125,6.942-6.979c0-3.855-3.107-6.98-6.942-6.98C1382.234,340.156,1379.126,343.281,1379.126,347.137"/>
							<path clip-path="url(#SVGID_16_)" fill="#C2C3C3" d="M1379.293,347.137c0,3.76,3.034,6.811,6.774,6.811
								c3.742,0,6.775-3.051,6.775-6.811c0-3.764-3.033-6.813-6.775-6.813C1382.327,340.324,1379.293,343.373,1379.293,347.137"/>
							<path clip-path="url(#SVGID_16_)" fill="#C4C5C4" d="M1379.461,347.137c0,3.668,2.957,6.643,6.606,6.643
								c3.65,0,6.609-2.975,6.609-6.643c0-3.67-2.959-6.645-6.609-6.645C1382.418,340.492,1379.461,343.467,1379.461,347.137"/>
							<path clip-path="url(#SVGID_16_)" fill="#C6C8C8" d="M1379.628,347.137c0,3.574,2.885,6.475,6.439,6.475
								c3.558,0,6.44-2.9,6.44-6.475c0-3.576-2.883-6.477-6.44-6.477C1382.513,340.66,1379.628,343.561,1379.628,347.137"/>
							<path clip-path="url(#SVGID_16_)" fill="#C9CACB" d="M1379.796,347.137c0,3.482,2.807,6.305,6.271,6.305
								s6.273-2.822,6.273-6.305c0-3.484-2.809-6.309-6.273-6.309S1379.796,343.652,1379.796,347.137"/>
							<path clip-path="url(#SVGID_16_)" fill="#CBCDCD" d="M1379.961,347.137c0,3.389,2.735,6.139,6.106,6.139
								c3.373,0,6.106-2.75,6.106-6.139c0-3.393-2.733-6.143-6.106-6.143C1382.696,340.994,1379.961,343.744,1379.961,347.137"/>
							<path clip-path="url(#SVGID_16_)" fill="#CCCFD0" d="M1380.128,347.137c0,3.297,2.661,5.971,5.939,5.971
								c3.279,0,5.939-2.674,5.939-5.971c0-3.299-2.66-5.973-5.939-5.973C1382.789,341.164,1380.128,343.838,1380.128,347.137"/>
							<path clip-path="url(#SVGID_16_)" fill="#D0D2D2" d="M1380.296,347.137c0,3.203,2.584,5.803,5.771,5.803
								s5.771-2.6,5.771-5.803c0-3.205-2.584-5.805-5.771-5.805S1380.296,343.932,1380.296,347.137"/>
							<path clip-path="url(#SVGID_16_)" fill="#D2D4D5" d="M1380.463,347.137c0,3.109,2.51,5.633,5.604,5.633
								c3.097,0,5.605-2.523,5.605-5.633c0-3.113-2.509-5.635-5.605-5.635C1382.973,341.502,1380.463,344.023,1380.463,347.137"/>
						</g>
					</g>
					<polygon fill="#605F5E" points="1386.997,351.434 1386.997,348.07 1390.343,348.07 1390.343,346.201 1386.997,346.201 
						1386.997,342.838 1385.139,342.838 1385.139,346.201 1381.793,346.201 1381.793,348.07 1385.139,348.07 1385.139,351.434 					
						"/>
					<path fill="#221714" d="M1386.836,343v3.039v0.324h0.321h3.025v1.543h-3.025h-0.321v0.324v3.041h-1.536v-3.041v-0.324h-0.321
						h-3.024v-1.543h3.024h0.321v-0.324V343H1386.836z M1384.979,346.039h-3.346v2.191h3.346v3.363h2.179v-3.363h3.346v-2.191
						h-3.346v-3.363h-2.179V346.039z"/>
				</g>
			</g>
		</g>
	</g>
</g>
</svg>
