<?xml version="1.0" encoding="utf-8"?>
<!-- Generator: Adobe Illustrator 16.0.0, SVG Export Plug-In . SVG Version: 6.00 Build 0)  -->
<!DOCTYPE svg PUBLIC "-//W3C//DTD SVG 1.1//EN" "http://www.w3.org/Graphics/SVG/1.1/DTD/svg11.dtd">
<svg version="1.1" id="图层_1" xmlns="http://www.w3.org/2000/svg" xmlns:xlink="http://www.w3.org/1999/xlink" x="0px" y="0px"
	 width="1417.32px" height="126.14px" viewBox="0 0 1417.32 126.14" enable-background="new 0 0 1417.32 126.14"
	 xml:space="preserve">
<rect x="-0.001" y="-0.001" fill="#244B68" width="1417.322" height="126.142"/>
<g>
	<linearGradient id="SVGID_1_" gradientUnits="userSpaceOnUse" x1="-9.765625e-004" y1="63.0693" x2="70.8643" y2="63.0693">
		<stop  offset="0" style="stop-color:#244C69"/>
		<stop  offset="0.7778" style="stop-color:#244C69"/>
		<stop  offset="0.8673" style="stop-color:#3D81AA"/>
		<stop  offset="1" style="stop-color:#091216"/>
	</linearGradient>
	<rect x="-0.001" y="-0.001" fill="url(#SVGID_1_)" width="70.865" height="126.142"/>
	<g>
		<g>
			<path fill="#B7B6B6" d="M40.189,15.368c0,3.931-3.187,7.118-7.118,7.118H17.712c-3.932,0-7.118-3.188-7.118-7.118l0,0
				c0-3.932,3.187-7.119,7.118-7.119h15.359C37.003,8.249,40.189,11.436,40.189,15.368L40.189,15.368z"/>
			<path fill="#0E0D0D" d="M39.349,15.166c0,3.82-3.097,6.916-6.917,6.916H17.511c-3.821,0-6.917-3.096-6.917-6.916l0,0
				c0-3.82,3.096-6.917,6.917-6.917h14.921C36.252,8.249,39.349,11.345,39.349,15.166L39.349,15.166z"/>
		</g>
		<g>
			<path fill="#B7B6B6" d="M40.189,110.771c0,3.932-3.187,7.119-7.118,7.119H17.712c-3.932,0-7.118-3.188-7.118-7.119l0,0
				c0-3.932,3.187-7.119,7.118-7.119h15.359C37.003,103.652,40.189,106.84,40.189,110.771L40.189,110.771z"/>
			<path fill="#0E0D0D" d="M39.349,110.57c0,3.82-3.097,6.916-6.917,6.916H17.511c-3.821,0-6.917-3.096-6.917-6.916l0,0
				c0-3.82,3.096-6.918,6.917-6.918h14.921C36.252,103.652,39.349,106.75,39.349,110.57L39.349,110.57z"/>
		</g>
	</g>
	<g>
		<g>
			<path fill="#AFAEAE" d="M34.568,15.464c0,5.701-4.596,10.322-10.265,10.322c-5.671,0-10.267-4.621-10.267-10.322
				S18.633,5.142,24.304,5.142C29.973,5.142,34.568,9.763,34.568,15.464"/>
			<ellipse fill="none" stroke="#929292" stroke-miterlimit="10" cx="24.303" cy="15.464" rx="10.266" ry="10.322"/>
			<path fill="#AFAEAE" d="M31.847,15.464c0,4.188-3.379,7.584-7.543,7.584c-4.166,0-7.545-3.396-7.545-7.584
				c0-4.189,3.379-7.586,7.545-7.586C28.468,7.878,31.847,11.275,31.847,15.464"/>
			<ellipse fill="none" stroke="#929292" stroke-miterlimit="10" cx="24.303" cy="15.464" rx="7.544" ry="7.584"/>
			<g>
				<g>
					<defs>
						<rect id="SVGID_2_" x="17.19" y="8.316" width="14.222" height="14.295"/>
					</defs>
					<clipPath id="SVGID_3_">
						<use xlink:href="#SVGID_2_"  overflow="visible"/>
					</clipPath>
					<path clip-path="url(#SVGID_3_)" fill="#BEBEBD" d="M31.411,15.464c0,3.947-3.183,7.146-7.107,7.146
						c-3.929,0-7.111-3.199-7.111-7.146s3.183-7.148,7.111-7.148C28.229,8.316,31.411,11.517,31.411,15.464"/>
					<path clip-path="url(#SVGID_3_)" fill="#C0C0C0" d="M31.245,15.464c0,3.854-3.109,6.979-6.941,6.979
						c-3.836,0-6.943-3.125-6.943-6.979c0-3.855,3.107-6.98,6.943-6.98C28.136,8.484,31.245,11.609,31.245,15.464"/>
					<path clip-path="url(#SVGID_3_)" fill="#C2C3C3" d="M31.077,15.464c0,3.761-3.034,6.813-6.773,6.813
						c-3.743,0-6.776-3.052-6.776-6.813c0-3.762,3.033-6.813,6.776-6.813C28.043,8.652,31.077,11.703,31.077,15.464"/>
					<path clip-path="url(#SVGID_3_)" fill="#C4C5C4" d="M30.909,15.464c0,3.668-2.956,6.643-6.605,6.643
						c-3.65,0-6.609-2.975-6.609-6.643c0-3.669,2.959-6.644,6.609-6.644C27.953,8.821,30.909,11.795,30.909,15.464"/>
					<path clip-path="url(#SVGID_3_)" fill="#C6C8C8" d="M30.742,15.464c0,3.574-2.884,6.475-6.438,6.475
						c-3.559,0-6.441-2.9-6.441-6.475c0-3.576,2.883-6.477,6.441-6.477C27.858,8.988,30.742,11.888,30.742,15.464"/>
					<path clip-path="url(#SVGID_3_)" fill="#C9CACB" d="M30.575,15.464c0,3.482-2.808,6.307-6.271,6.307
						c-3.466,0-6.274-2.824-6.274-6.307c0-3.484,2.809-6.309,6.274-6.309C27.768,9.156,30.575,11.98,30.575,15.464"/>
					<path clip-path="url(#SVGID_3_)" fill="#CBCDCD" d="M30.409,15.464c0,3.39-2.735,6.14-6.105,6.14
						c-3.373,0-6.107-2.75-6.107-6.14c0-3.391,2.734-6.141,6.107-6.141C27.674,9.324,30.409,12.074,30.409,15.464"/>
					<path clip-path="url(#SVGID_3_)" fill="#CCCFD0" d="M30.242,15.464c0,3.297-2.661,5.971-5.938,5.971
						c-3.28,0-5.94-2.674-5.94-5.971c0-3.299,2.66-5.971,5.94-5.971C27.581,9.494,30.242,12.166,30.242,15.464"/>
					<path clip-path="url(#SVGID_3_)" fill="#D0D2D2" d="M30.074,15.464c0,3.204-2.584,5.803-5.771,5.803
						c-3.189,0-5.771-2.599-5.771-5.803c0-3.205,2.582-5.805,5.771-5.805C27.49,9.66,30.074,12.259,30.074,15.464"/>
					<path clip-path="url(#SVGID_3_)" fill="#D2D4D5" d="M29.907,15.464c0,3.111-2.51,5.635-5.604,5.635
						c-3.098,0-5.605-2.523-5.605-5.635c0-3.113,2.508-5.635,5.605-5.635C27.397,9.83,29.907,12.351,29.907,15.464"/>
				</g>
			</g>
			<polygon fill="#605F5E" points="23.373,19.763 23.373,16.398 20.027,16.398 20.027,14.531 23.373,14.531 23.373,11.166 
				25.231,11.166 25.231,14.531 28.577,14.531 28.577,16.398 25.231,16.398 25.231,19.763 			"/>
			<path fill="#221714" d="M25.07,11.328v3.039v0.326h0.321h3.024v1.543h-3.024H25.07v0.322v3.041h-1.536v-3.041v-0.322h-0.321
				h-3.025v-1.543h3.025h0.321v-0.326v-3.039H25.07z M25.392,11.005h-2.179v3.361h-3.346v2.191h3.346v3.365h2.179v-3.365h3.346
				v-2.191h-3.346V11.005z"/>
		</g>
		<g>
			<path fill="#AFAEAE" d="M34.568,110.813c0,5.701-4.596,10.322-10.265,10.322c-5.671,0-10.267-4.621-10.267-10.322
				s4.596-10.322,10.267-10.322C29.973,100.49,34.568,105.111,34.568,110.813"/>
			<ellipse fill="none" stroke="#929292" stroke-miterlimit="10" cx="24.303" cy="110.813" rx="10.266" ry="10.322"/>
			<path fill="#AFAEAE" d="M31.847,110.813c0,4.188-3.379,7.584-7.543,7.584c-4.166,0-7.545-3.396-7.545-7.584
				c0-4.189,3.379-7.586,7.545-7.586C28.468,103.227,31.847,106.623,31.847,110.813"/>
			<ellipse fill="none" stroke="#929292" stroke-miterlimit="10" cx="24.303" cy="110.813" rx="7.544" ry="7.584"/>
			<g>
				<g>
					<defs>
						<rect id="SVGID_4_" x="17.19" y="103.664" width="14.222" height="14.295"/>
					</defs>
					<clipPath id="SVGID_5_">
						<use xlink:href="#SVGID_4_"  overflow="visible"/>
					</clipPath>
					<path clip-path="url(#SVGID_5_)" fill="#BEBEBD" d="M31.411,110.813c0,3.947-3.183,7.146-7.107,7.146
						c-3.929,0-7.111-3.199-7.111-7.146s3.183-7.148,7.111-7.148C28.229,103.664,31.411,106.865,31.411,110.813"/>
					<path clip-path="url(#SVGID_5_)" fill="#C0C0C0" d="M31.245,110.813c0,3.854-3.109,6.979-6.941,6.979
						c-3.836,0-6.943-3.125-6.943-6.979c0-3.855,3.107-6.98,6.943-6.98C28.136,103.832,31.245,106.957,31.245,110.813"/>
					<path clip-path="url(#SVGID_5_)" fill="#C2C3C3" d="M31.077,110.813c0,3.76-3.034,6.813-6.773,6.813
						c-3.743,0-6.776-3.053-6.776-6.813c0-3.762,3.033-6.813,6.776-6.813C28.043,104,31.077,107.051,31.077,110.813"/>
					<path clip-path="url(#SVGID_5_)" fill="#C4C5C4" d="M30.909,110.813c0,3.668-2.956,6.643-6.605,6.643
						c-3.65,0-6.609-2.975-6.609-6.643c0-3.67,2.959-6.643,6.609-6.643C27.953,104.17,30.909,107.143,30.909,110.813"/>
					<path clip-path="url(#SVGID_5_)" fill="#C6C8C8" d="M30.742,110.813c0,3.574-2.884,6.475-6.438,6.475
						c-3.559,0-6.441-2.9-6.441-6.475c0-3.576,2.883-6.477,6.441-6.477C27.858,104.336,30.742,107.236,30.742,110.813"/>
					<path clip-path="url(#SVGID_5_)" fill="#C9CACB" d="M30.575,110.813c0,3.482-2.808,6.307-6.271,6.307
						c-3.466,0-6.274-2.824-6.274-6.307c0-3.484,2.809-6.309,6.274-6.309C27.768,104.504,30.575,107.328,30.575,110.813"/>
					<path clip-path="url(#SVGID_5_)" fill="#CBCDCD" d="M30.409,110.813c0,3.389-2.735,6.139-6.105,6.139
						c-3.373,0-6.107-2.75-6.107-6.139c0-3.391,2.734-6.141,6.107-6.141C27.674,104.672,30.409,107.422,30.409,110.813"/>
					<path clip-path="url(#SVGID_5_)" fill="#CCCFD0" d="M30.242,110.813c0,3.297-2.661,5.971-5.938,5.971
						c-3.28,0-5.94-2.674-5.94-5.971s2.66-5.971,5.94-5.971C27.581,104.842,30.242,107.516,30.242,110.813"/>
					<path clip-path="url(#SVGID_5_)" fill="#D0D2D2" d="M30.074,110.813c0,3.203-2.584,5.803-5.771,5.803
						c-3.189,0-5.771-2.6-5.771-5.803c0-3.205,2.582-5.805,5.771-5.805C27.49,105.008,30.074,107.607,30.074,110.813"/>
					<path clip-path="url(#SVGID_5_)" fill="#D2D4D5" d="M29.907,110.813c0,3.111-2.51,5.635-5.604,5.635
						c-3.098,0-5.605-2.523-5.605-5.635c0-3.113,2.508-5.635,5.605-5.635C27.397,105.178,29.907,107.699,29.907,110.813"/>
				</g>
			</g>
			<polygon fill="#605F5E" points="23.373,115.111 23.373,111.746 20.027,111.746 20.027,109.879 23.373,109.879 23.373,106.516 
				25.231,106.516 25.231,109.879 28.577,109.879 28.577,111.746 25.231,111.746 25.231,115.111 			"/>
			<path fill="#221714" d="M25.07,106.676v3.039v0.326h0.321h3.024v1.543h-3.024H25.07v0.322v3.041h-1.536v-3.041v-0.322h-0.321
				h-3.025v-1.543h3.025h0.321v-0.326v-3.039H25.07z M25.392,106.354h-2.179v3.361h-3.346v2.191h3.346v3.365h2.179v-3.365h3.346
				v-2.191h-3.346V106.354z"/>
		</g>
	</g>
</g>
<g>
	
		<linearGradient id="SVGID_6_" gradientUnits="userSpaceOnUse" x1="-9351.9844" y1="63.0693" x2="-9281.1182" y2="63.0693" gradientTransform="matrix(-1 0 0 1 -7934.6626 0)">
		<stop  offset="0" style="stop-color:#244C69"/>
		<stop  offset="0.7778" style="stop-color:#244C69"/>
		<stop  offset="0.8673" style="stop-color:#3D81AA"/>
		<stop  offset="1" style="stop-color:#091216"/>
	</linearGradient>
	<rect x="1346.455" y="-0.001" fill="url(#SVGID_6_)" width="70.866" height="126.142"/>
	<g>
		<g>
			<path fill="#B7B6B6" d="M1377.13,15.368c0,3.931,3.188,7.118,7.119,7.118h15.358c3.932,0,7.119-3.188,7.119-7.118l0,0
				c0-3.932-3.188-7.119-7.119-7.119h-15.358C1380.317,8.249,1377.13,11.436,1377.13,15.368L1377.13,15.368z"/>
			<path fill="#0E0D0D" d="M1377.972,15.166c0,3.82,3.097,6.916,6.917,6.916h14.921c3.82,0,6.917-3.096,6.917-6.916l0,0
				c0-3.82-3.097-6.917-6.917-6.917h-14.921C1381.068,8.249,1377.972,11.345,1377.972,15.166L1377.972,15.166z"/>
		</g>
		<g>
			<path fill="#B7B6B6" d="M1377.13,110.771c0,3.932,3.188,7.119,7.119,7.119h15.358c3.932,0,7.119-3.188,7.119-7.119l0,0
				c0-3.932-3.188-7.119-7.119-7.119h-15.358C1380.317,103.652,1377.13,106.84,1377.13,110.771L1377.13,110.771z"/>
			<path fill="#0E0D0D" d="M1377.972,110.57c0,3.82,3.097,6.916,6.917,6.916h14.921c3.82,0,6.917-3.096,6.917-6.916l0,0
				c0-3.82-3.097-6.918-6.917-6.918h-14.921C1381.068,103.652,1377.972,106.75,1377.972,110.57L1377.972,110.57z"/>
		</g>
	</g>
	<g>
		<g>
			<path fill="#AFAEAE" d="M1382.752,15.464c0,5.701,4.595,10.322,10.265,10.322c5.671,0,10.267-4.621,10.267-10.322
				s-4.596-10.322-10.267-10.322C1387.347,5.142,1382.752,9.763,1382.752,15.464"/>
			<ellipse fill="none" stroke="#929292" stroke-miterlimit="10" cx="1393.018" cy="15.464" rx="10.266" ry="10.322"/>
			<path fill="#AFAEAE" d="M1385.474,15.464c0,4.188,3.378,7.584,7.543,7.584c4.166,0,7.544-3.396,7.544-7.584
				c0-4.189-3.378-7.586-7.544-7.586C1388.852,7.878,1385.474,11.275,1385.474,15.464"/>
			<ellipse fill="none" stroke="#929292" stroke-miterlimit="10" cx="1393.017" cy="15.464" rx="7.543" ry="7.584"/>
			<g>
				<g>
					<defs>
						<rect id="SVGID_7_" x="1385.907" y="8.316" width="14.223" height="14.295"/>
					</defs>
					<clipPath id="SVGID_8_">
						<use xlink:href="#SVGID_7_"  overflow="visible"/>
					</clipPath>
					<path clip-path="url(#SVGID_8_)" fill="#BEBEBD" d="M1385.908,15.464c0,3.947,3.184,7.146,7.108,7.146
						c3.928,0,7.11-3.199,7.11-7.146s-3.183-7.148-7.11-7.148C1389.092,8.316,1385.908,11.517,1385.908,15.464"/>
					<path clip-path="url(#SVGID_8_)" fill="#C0C0C0" d="M1386.076,15.464c0,3.854,3.107,6.979,6.94,6.979
						c3.835,0,6.942-3.125,6.942-6.979c0-3.855-3.107-6.98-6.942-6.98C1389.184,8.484,1386.076,11.609,1386.076,15.464"/>
					<path clip-path="url(#SVGID_8_)" fill="#C2C3C3" d="M1386.242,15.464c0,3.761,3.034,6.813,6.774,6.813
						c3.743,0,6.775-3.052,6.775-6.813c0-3.762-3.032-6.813-6.775-6.813C1389.276,8.652,1386.242,11.703,1386.242,15.464"/>
					<path clip-path="url(#SVGID_8_)" fill="#C4C5C4" d="M1386.41,15.464c0,3.668,2.957,6.643,6.606,6.643
						c3.65,0,6.609-2.975,6.609-6.643c0-3.669-2.959-6.644-6.609-6.644C1389.367,8.821,1386.41,11.795,1386.41,15.464"/>
					<path clip-path="url(#SVGID_8_)" fill="#C6C8C8" d="M1386.577,15.464c0,3.574,2.884,6.475,6.439,6.475
						c3.558,0,6.44-2.9,6.44-6.475c0-3.576-2.883-6.477-6.44-6.477C1389.461,8.988,1386.577,11.888,1386.577,15.464"/>
					<path clip-path="url(#SVGID_8_)" fill="#C9CACB" d="M1386.745,15.464c0,3.482,2.808,6.307,6.271,6.307
						c3.466,0,6.274-2.824,6.274-6.307c0-3.484-2.809-6.309-6.274-6.309C1389.553,9.156,1386.745,11.98,1386.745,15.464"/>
					<path clip-path="url(#SVGID_8_)" fill="#CBCDCD" d="M1386.91,15.464c0,3.39,2.735,6.14,6.106,6.14
						c3.373,0,6.106-2.75,6.106-6.14c0-3.391-2.733-6.141-6.106-6.141C1389.646,9.324,1386.91,12.074,1386.91,15.464"/>
					<path clip-path="url(#SVGID_8_)" fill="#CCCFD0" d="M1387.077,15.464c0,3.297,2.661,5.971,5.939,5.971
						c3.28,0,5.939-2.674,5.939-5.971c0-3.299-2.659-5.971-5.939-5.971C1389.738,9.494,1387.077,12.166,1387.077,15.464"/>
					<path clip-path="url(#SVGID_8_)" fill="#D0D2D2" d="M1387.245,15.464c0,3.204,2.584,5.803,5.771,5.803
						c3.188,0,5.771-2.599,5.771-5.803c0-3.205-2.583-5.805-5.771-5.805C1389.829,9.66,1387.245,12.259,1387.245,15.464"/>
					<path clip-path="url(#SVGID_8_)" fill="#D2D4D5" d="M1387.412,15.464c0,3.111,2.51,5.635,5.604,5.635
						c3.097,0,5.605-2.523,5.605-5.635c0-3.113-2.509-5.635-5.605-5.635C1389.922,9.83,1387.412,12.351,1387.412,15.464"/>
				</g>
			</g>
			<polygon fill="#605F5E" points="1393.946,19.763 1393.946,16.398 1397.292,16.398 1397.292,14.531 1393.946,14.531 
				1393.946,11.166 1392.088,11.166 1392.088,14.531 1388.742,14.531 1388.742,16.398 1392.088,16.398 1392.088,19.763 			"/>
			<path fill="#221714" d="M1393.785,11.328v3.039v0.326h0.321h3.025v1.543h-3.025h-0.321v0.322v3.041h-1.535v-3.041v-0.322h-0.322
				h-3.023v-1.543h3.023h0.322v-0.326v-3.039H1393.785z M1391.928,14.367h-3.346v2.191h3.346v3.365h2.179v-3.365h3.347v-2.191
				h-3.347v-3.361h-2.179V14.367z"/>
		</g>
		<g>
			<path fill="#AFAEAE" d="M1382.752,110.813c0,5.701,4.595,10.322,10.265,10.322c5.671,0,10.267-4.621,10.267-10.322
				s-4.596-10.322-10.267-10.322C1387.347,100.49,1382.752,105.111,1382.752,110.813"/>
			<ellipse fill="none" stroke="#929292" stroke-miterlimit="10" cx="1393.018" cy="110.813" rx="10.266" ry="10.322"/>
			<path fill="#AFAEAE" d="M1385.474,110.813c0,4.188,3.378,7.584,7.543,7.584c4.166,0,7.544-3.396,7.544-7.584
				c0-4.189-3.378-7.586-7.544-7.586C1388.852,103.227,1385.474,106.623,1385.474,110.813"/>
			<ellipse fill="none" stroke="#929292" stroke-miterlimit="10" cx="1393.017" cy="110.813" rx="7.543" ry="7.584"/>
			<g>
				<g>
					<defs>
						<rect id="SVGID_9_" x="1385.907" y="103.664" width="14.223" height="14.295"/>
					</defs>
					<clipPath id="SVGID_10_">
						<use xlink:href="#SVGID_9_"  overflow="visible"/>
					</clipPath>
					<path clip-path="url(#SVGID_10_)" fill="#BEBEBD" d="M1385.908,110.813c0,3.947,3.184,7.146,7.108,7.146
						c3.928,0,7.11-3.199,7.11-7.146s-3.183-7.148-7.11-7.148C1389.092,103.664,1385.908,106.865,1385.908,110.813"/>
					<path clip-path="url(#SVGID_10_)" fill="#C0C0C0" d="M1386.076,110.813c0,3.854,3.107,6.979,6.94,6.979
						c3.835,0,6.942-3.125,6.942-6.979c0-3.855-3.107-6.98-6.942-6.98C1389.184,103.832,1386.076,106.957,1386.076,110.813"/>
					<path clip-path="url(#SVGID_10_)" fill="#C2C3C3" d="M1386.242,110.813c0,3.76,3.034,6.813,6.774,6.813
						c3.743,0,6.775-3.053,6.775-6.813c0-3.762-3.032-6.813-6.775-6.813C1389.276,104,1386.242,107.051,1386.242,110.813"/>
					<path clip-path="url(#SVGID_10_)" fill="#C4C5C4" d="M1386.41,110.813c0,3.668,2.957,6.643,6.606,6.643
						c3.65,0,6.609-2.975,6.609-6.643c0-3.67-2.959-6.643-6.609-6.643C1389.367,104.17,1386.41,107.143,1386.41,110.813"/>
					<path clip-path="url(#SVGID_10_)" fill="#C6C8C8" d="M1386.577,110.813c0,3.574,2.884,6.475,6.439,6.475
						c3.558,0,6.44-2.9,6.44-6.475c0-3.576-2.883-6.477-6.44-6.477C1389.461,104.336,1386.577,107.236,1386.577,110.813"/>
					<path clip-path="url(#SVGID_10_)" fill="#C9CACB" d="M1386.745,110.813c0,3.482,2.808,6.307,6.271,6.307
						c3.466,0,6.274-2.824,6.274-6.307c0-3.484-2.809-6.309-6.274-6.309C1389.553,104.504,1386.745,107.328,1386.745,110.813"/>
					<path clip-path="url(#SVGID_10_)" fill="#CBCDCD" d="M1386.91,110.813c0,3.389,2.735,6.139,6.106,6.139
						c3.373,0,6.106-2.75,6.106-6.139c0-3.391-2.733-6.141-6.106-6.141C1389.646,104.672,1386.91,107.422,1386.91,110.813"/>
					<path clip-path="url(#SVGID_10_)" fill="#CCCFD0" d="M1387.077,110.813c0,3.297,2.661,5.971,5.939,5.971
						c3.28,0,5.939-2.674,5.939-5.971s-2.659-5.971-5.939-5.971C1389.738,104.842,1387.077,107.516,1387.077,110.813"/>
					<path clip-path="url(#SVGID_10_)" fill="#D0D2D2" d="M1387.245,110.813c0,3.203,2.584,5.803,5.771,5.803
						c3.188,0,5.771-2.6,5.771-5.803c0-3.205-2.583-5.805-5.771-5.805C1389.829,105.008,1387.245,107.607,1387.245,110.813"/>
					<path clip-path="url(#SVGID_10_)" fill="#D2D4D5" d="M1387.412,110.813c0,3.111,2.51,5.635,5.604,5.635
						c3.097,0,5.605-2.523,5.605-5.635c0-3.113-2.509-5.635-5.605-5.635C1389.922,105.178,1387.412,107.699,1387.412,110.813"/>
				</g>
			</g>
			<polygon fill="#605F5E" points="1393.946,115.111 1393.946,111.746 1397.292,111.746 1397.292,109.879 1393.946,109.879 
				1393.946,106.516 1392.088,106.516 1392.088,109.879 1388.742,109.879 1388.742,111.746 1392.088,111.746 1392.088,115.111 			
				"/>
			<path fill="#221714" d="M1393.785,106.676v3.039v0.326h0.321h3.025v1.543h-3.025h-0.321v0.322v3.041h-1.535v-3.041v-0.322h-0.322
				h-3.023v-1.543h3.023h0.322v-0.326v-3.039H1393.785z M1391.928,109.715h-3.346v2.191h3.346v3.365h2.179v-3.365h3.347v-2.191
				h-3.347v-3.361h-2.179V109.715z"/>
		</g>
	</g>
</g>
<g>
	<g>
		<rect x="78.099" y="15.474" fill="#FFFFFF" width="68.909" height="26.256"/>
		<polygon fill="#376B83" points="78.099,15.474 147.008,15.474 147.008,41.73 145.626,41.73 145.626,40.091 144.47,40.091 
			144.47,41.73 143.029,41.73 143.029,39.765 141.888,39.765 141.888,41.73 140.445,41.73 140.445,38.884 139.305,38.884 
			139.305,41.73 137.864,41.73 137.864,36.977 136.723,36.977 136.723,41.73 135.28,41.73 135.28,34.25 134.138,34.25 
			134.138,41.73 132.697,41.73 132.697,29.63 131.541,29.63 131.541,41.73 130.114,41.73 130.114,24.25 128.959,24.25 
			128.959,41.73 127.517,41.73 127.517,29.63 126.375,29.63 126.375,41.73 124.935,41.73 124.935,34.25 123.794,34.25 
			123.794,41.73 122.352,41.73 122.352,36.977 121.21,36.977 121.21,41.73 119.769,41.73 119.769,38.884 118.627,38.884 
			118.627,41.73 117.185,41.73 117.185,39.765 116.03,39.765 116.03,41.73 114.588,41.73 114.588,40.091 113.446,40.091 
			113.446,41.73 112.021,41.73 112.021,40.091 110.879,40.091 110.879,41.73 109.437,41.73 109.437,39.765 108.295,39.765 
			108.295,41.73 106.855,41.73 106.855,38.884 105.713,38.884 105.713,41.73 104.271,41.73 104.271,36.977 103.13,36.977 
			103.13,41.73 101.689,41.73 101.689,34.25 100.532,34.25 100.532,41.73 99.091,41.73 99.091,29.63 97.95,29.63 97.95,41.73 
			96.508,41.73 96.508,24.25 95.366,24.25 95.366,41.73 93.925,41.73 93.925,29.63 92.785,29.63 92.785,41.73 91.343,41.73 
			91.343,34.25 90.201,34.25 90.201,41.73 88.761,41.73 88.761,36.977 87.618,36.977 87.618,41.73 86.178,41.73 86.178,38.884 
			85.021,38.884 85.021,41.73 83.579,41.73 83.579,39.765 82.439,39.765 82.439,41.73 80.997,41.73 80.997,40.091 79.855,40.091 
			79.855,41.73 78.099,41.73 		"/>
	</g>
	<g>
		<path fill="#FFFFFF" d="M82.696,7.89h-1.734v-1.77c0-0.514-0.015-0.838-0.045-0.971C80.873,5.018,80.798,4.96,80.68,4.96
			c-0.134,0-0.223,0.071-0.267,0.234c-0.031,0.147-0.045,0.486-0.045,1v4.739c0,0.501,0.014,0.825,0.045,0.974
			c0.044,0.146,0.118,0.219,0.252,0.219c0.133,0,0.208-0.073,0.237-0.219c0.045-0.148,0.06-0.517,0.06-1.076V9.552h1.734V9.95
			c0,1.058-0.059,1.81-0.147,2.25c-0.104,0.443-0.311,0.826-0.637,1.164c-0.343,0.324-0.743,0.501-1.232,0.501
			c-0.505,0-0.92-0.147-1.245-0.426c-0.313-0.281-0.536-0.665-0.639-1.164c-0.103-0.5-0.164-1.251-0.164-2.251V7.049
			c0-0.735,0.016-1.295,0.046-1.665c0.028-0.366,0.134-0.72,0.296-1.06c0.164-0.337,0.386-0.604,0.667-0.809
			c0.298-0.191,0.624-0.281,0.995-0.281c0.504,0,0.92,0.148,1.246,0.443c0.341,0.31,0.549,0.676,0.652,1.135
			c0.104,0.456,0.162,1.146,0.162,2.104V7.89z"/>
		<rect x="84.922" y="6.253" fill="#FFFFFF" width="1.587" height="7.61"/>
		<path fill="#FFFFFF" d="M91.775,8.388h-1.47V7.831c0-0.266-0.028-0.428-0.058-0.502c-0.03-0.073-0.105-0.103-0.179-0.103
			c-0.089,0-0.164,0.043-0.208,0.147c-0.043,0.087-0.073,0.235-0.073,0.428c0,0.264,0.03,0.456,0.089,0.572
			c0.045,0.134,0.206,0.295,0.443,0.472c0.699,0.53,1.129,0.955,1.308,1.296c0.177,0.323,0.282,0.866,0.282,1.618
			c0,0.545-0.062,0.942-0.165,1.192c-0.089,0.267-0.296,0.47-0.578,0.649c-0.297,0.176-0.624,0.264-1.009,0.264
			c-0.43,0-0.786-0.102-1.082-0.309c-0.298-0.192-0.49-0.457-0.593-0.766c-0.09-0.309-0.135-0.752-0.135-1.31v-0.502h1.47v0.929
			c0,0.279,0.028,0.456,0.059,0.545c0.045,0.071,0.118,0.117,0.223,0.117c0.104,0,0.178-0.046,0.221-0.147
			c0.062-0.104,0.075-0.266,0.075-0.47c0-0.443-0.045-0.738-0.133-0.87c-0.104-0.148-0.357-0.368-0.743-0.691
			c-0.399-0.322-0.651-0.575-0.771-0.722c-0.134-0.146-0.236-0.339-0.326-0.603c-0.074-0.267-0.119-0.591-0.119-1.002
			c0-0.575,0.06-1,0.18-1.281c0.118-0.264,0.311-0.47,0.577-0.631c0.252-0.148,0.579-0.223,0.95-0.223
			c0.415,0,0.756,0.088,1.054,0.25c0.281,0.162,0.472,0.368,0.563,0.633c0.103,0.252,0.147,0.677,0.147,1.28V8.388z"/>
		<path fill="#FFFFFF" d="M97.427,9.405h-1.438V8.079c0-0.382-0.015-0.618-0.045-0.722c-0.029-0.087-0.089-0.132-0.193-0.132
			c-0.118,0-0.178,0.059-0.223,0.162c-0.03,0.118-0.044,0.368-0.044,0.765v3.519c0,0.382,0.014,0.619,0.044,0.736
			c0.045,0.104,0.104,0.163,0.223,0.163c0.09,0,0.164-0.06,0.193-0.163c0.03-0.117,0.045-0.383,0.045-0.811v-0.955h1.438v0.309
			c0,0.78-0.045,1.34-0.117,1.678c-0.09,0.324-0.269,0.619-0.535,0.87c-0.281,0.235-0.608,0.366-1.01,0.366
			c-0.43,0-0.771-0.102-1.037-0.323c-0.281-0.206-0.46-0.499-0.549-0.868c-0.074-0.369-0.119-0.928-0.119-1.679V8.772
			c0-0.545,0-0.958,0.029-1.237c0.031-0.265,0.104-0.528,0.252-0.781c0.134-0.264,0.313-0.456,0.55-0.601
			c0.237-0.147,0.52-0.223,0.829-0.223c0.416,0,0.758,0.119,1.039,0.338c0.269,0.222,0.445,0.502,0.533,0.84
			c0.09,0.337,0.135,0.869,0.135,1.574V9.405z"/>
		<path fill="#FFFFFF" d="M101.477,11.539c0,0.456-0.016,0.736-0.045,0.854c-0.029,0.119-0.089,0.177-0.192,0.177
			c-0.105,0-0.164-0.046-0.192-0.147c-0.031-0.104-0.045-0.384-0.045-0.823V8.05c0-0.396,0.029-0.633,0.06-0.705
			c0.044-0.09,0.104-0.119,0.191-0.119c0.09,0,0.149,0.045,0.179,0.147c0.029,0.087,0.045,0.324,0.045,0.677V11.539z M103.078,9.243
			c0-0.779-0.015-1.326-0.045-1.649c-0.029-0.31-0.132-0.604-0.282-0.869c-0.163-0.263-0.37-0.456-0.637-0.587
			c-0.252-0.146-0.549-0.207-0.875-0.207c-0.342,0-0.638,0.074-0.904,0.207c-0.255,0.146-0.46,0.353-0.609,0.616
			c-0.147,0.252-0.238,0.546-0.267,0.87c-0.03,0.309-0.045,0.854-0.045,1.619v1.309c0,0.782,0.015,1.327,0.045,1.636
			c0.028,0.325,0.119,0.604,0.281,0.883c0.163,0.266,0.372,0.456,0.622,0.589c0.269,0.132,0.55,0.206,0.877,0.206
			c0.34,0,0.653-0.074,0.904-0.22c0.252-0.134,0.46-0.339,0.607-0.604c0.163-0.268,0.253-0.546,0.282-0.87
			c0.03-0.322,0.045-0.854,0.045-1.62V9.243z"/>
		<path fill="#FFFFFF" d="M113.344,6.535h-1.588V5.783c0-0.353-0.03-0.588-0.058-0.677c-0.047-0.104-0.105-0.147-0.194-0.147
			c-0.104,0-0.177,0.06-0.224,0.191c-0.059,0.133-0.088,0.324-0.088,0.589c0,0.353,0.029,0.604,0.088,0.78
			c0.074,0.161,0.224,0.367,0.49,0.618c0.757,0.707,1.216,1.28,1.41,1.725c0.205,0.454,0.296,1.176,0.296,2.177
			c0,0.721-0.045,1.265-0.163,1.604c-0.104,0.354-0.327,0.634-0.623,0.868c-0.313,0.237-0.683,0.353-1.098,0.353
			c-0.461,0-0.846-0.131-1.172-0.41c-0.326-0.266-0.534-0.604-0.639-1.017c-0.103-0.427-0.147-1.017-0.147-1.781V9.993h1.603v1.238
			c0,0.381,0.015,0.632,0.06,0.734c0.043,0.119,0.132,0.162,0.237,0.162c0.117,0,0.191-0.06,0.251-0.207
			c0.045-0.131,0.073-0.338,0.073-0.617c0-0.603-0.043-0.986-0.146-1.177c-0.119-0.177-0.385-0.486-0.816-0.928
			c-0.414-0.427-0.696-0.751-0.831-0.944c-0.148-0.205-0.251-0.469-0.34-0.822c-0.104-0.353-0.149-0.796-0.149-1.341
			c0-0.779,0.074-1.353,0.193-1.706c0.134-0.367,0.341-0.648,0.637-0.854c0.283-0.206,0.624-0.296,1.039-0.296
			c0.446,0,0.816,0.105,1.143,0.327c0.297,0.22,0.505,0.5,0.594,0.837c0.104,0.34,0.163,0.913,0.163,1.723V6.535z"/>
		<path fill="#FFFFFF" d="M118.921,6.252l-1.201,4.858v2.753h-1.529v-2.753l-1.156-4.858h1.498c0.252,1.489,0.387,2.49,0.416,3.005
			c0.104-0.81,0.251-1.813,0.458-3.005H118.921z"/>
		<path fill="#FFFFFF" d="M123.622,8.388h-1.364V7.831c0-0.266-0.015-0.428-0.045-0.502c-0.045-0.073-0.087-0.103-0.177-0.103
			c-0.075,0-0.147,0.043-0.179,0.147c-0.044,0.087-0.074,0.235-0.074,0.428c0,0.264,0.03,0.456,0.074,0.572
			c0.06,0.134,0.193,0.295,0.416,0.472c0.638,0.53,1.054,0.955,1.216,1.296c0.164,0.323,0.251,0.866,0.251,1.618
			c0,0.545-0.044,0.942-0.132,1.192c-0.104,0.267-0.281,0.47-0.549,0.649c-0.268,0.176-0.579,0.264-0.934,0.264
			c-0.401,0-0.729-0.102-1.011-0.309c-0.267-0.192-0.444-0.457-0.532-0.766c-0.09-0.309-0.136-0.752-0.136-1.31v-0.502h1.366v0.929
			c0,0.279,0.015,0.456,0.059,0.545c0.03,0.071,0.103,0.117,0.193,0.117c0.103,0,0.178-0.046,0.222-0.147
			c0.044-0.104,0.06-0.266,0.06-0.47c0-0.443-0.044-0.738-0.134-0.87c-0.087-0.148-0.311-0.368-0.681-0.691
			c-0.357-0.322-0.594-0.575-0.713-0.722c-0.118-0.146-0.224-0.339-0.297-0.603c-0.075-0.267-0.119-0.591-0.119-1.002
			c0-0.575,0.061-1,0.18-1.281c0.103-0.264,0.281-0.47,0.519-0.631c0.252-0.148,0.548-0.223,0.89-0.223
			c0.385,0,0.697,0.088,0.964,0.25c0.269,0.162,0.444,0.368,0.534,0.633c0.09,0.252,0.133,0.677,0.133,1.28V8.388z"/>
		<polygon fill="#FFFFFF" points="128.933,6.252 128.933,7.785 128.073,7.785 128.073,13.864 126.604,13.864 126.604,7.785 
			125.744,7.785 125.744,6.252 		"/>
		<polygon fill="#FFFFFF" points="131.382,6.252 134.036,6.252 134.036,7.785 132.982,7.785 132.982,9.212 133.978,9.212 
			133.978,10.671 132.982,10.671 132.982,12.334 134.139,12.334 134.139,13.864 131.382,13.864 		"/>
		<path fill="#FFFFFF" d="M141.245,6.252v7.611h-1.274l-0.016-5.138l-0.504,5.138h-0.905l-0.535-5.019v5.019h-1.29V6.252h1.899
			c0.06,0.458,0.118,1.003,0.178,1.62l0.208,1.93l0.327-3.55H141.245z"/>
		<path fill="#FFFFFF" d="M146.571,8.388h-1.364V7.831c0-0.266-0.016-0.428-0.045-0.502c-0.029-0.073-0.09-0.103-0.166-0.103
			c-0.087,0-0.146,0.043-0.189,0.147c-0.045,0.087-0.061,0.235-0.061,0.428c0,0.264,0.016,0.456,0.073,0.572
			c0.045,0.134,0.195,0.295,0.416,0.472c0.638,0.53,1.038,0.955,1.201,1.296c0.18,0.323,0.253,0.866,0.253,1.618
			c0,0.545-0.045,0.942-0.134,1.192c-0.09,0.267-0.282,0.47-0.548,0.649c-0.267,0.176-0.58,0.264-0.936,0.264
			c-0.385,0-0.727-0.102-0.993-0.309c-0.281-0.192-0.46-0.457-0.548-0.766c-0.09-0.309-0.12-0.752-0.12-1.31v-0.502h1.351v0.929
			c0,0.279,0.029,0.456,0.058,0.545c0.045,0.071,0.105,0.117,0.208,0.117c0.09,0,0.164-0.046,0.208-0.147
			c0.045-0.104,0.074-0.266,0.074-0.47c0-0.443-0.045-0.738-0.134-0.87c-0.104-0.148-0.325-0.368-0.683-0.691
			c-0.369-0.322-0.608-0.575-0.725-0.722c-0.121-0.146-0.21-0.339-0.282-0.603c-0.089-0.267-0.12-0.591-0.12-1.002
			c0-0.575,0.06-1,0.165-1.281c0.103-0.264,0.279-0.47,0.532-0.631c0.237-0.148,0.535-0.223,0.875-0.223
			c0.387,0,0.713,0.088,0.979,0.25s0.445,0.368,0.535,0.633c0.073,0.252,0.118,0.677,0.118,1.28V8.388z"/>
	</g>
</g>
<g>
	<g>
		<path fill="#3F3F40" stroke="#AAAAAA" stroke-miterlimit="10" d="M108.605,54.422c0,2.542-2.061,4.603-4.603,4.603h-4.57
			c-2.542,0-4.603-2.061-4.603-4.603l0,0c0-2.543,2.061-4.604,4.603-4.604h4.57C106.545,49.819,108.605,51.879,108.605,54.422
			L108.605,54.422z"/>
		<path fill="#3F3F40" stroke="#0F0F0F" stroke-miterlimit="10" d="M107.806,54.422c0,2.542-2.062,4.603-4.604,4.603h-4.569
			c-2.543,0-4.604-2.061-4.604-4.603l0,0c0-2.543,2.061-4.604,4.604-4.604h4.569C105.744,49.819,107.806,51.879,107.806,54.422
			L107.806,54.422z"/>
	</g>
	<g>
		<path fill="#3F3F40" stroke="#AAAAAA" stroke-miterlimit="10" d="M130.656,54.422c0,2.542-2.061,4.603-4.603,4.603h-4.569
			c-2.542,0-4.604-2.061-4.604-4.603l0,0c0-2.543,2.062-4.604,4.604-4.604h4.569C128.596,49.819,130.656,51.879,130.656,54.422
			L130.656,54.422z"/>
		<path fill="#3F3F40" stroke="#0F0F0F" stroke-miterlimit="10" d="M129.856,54.422c0,2.542-2.061,4.603-4.604,4.603h-4.569
			c-2.542,0-4.603-2.061-4.603-4.603l0,0c0-2.543,2.061-4.604,4.603-4.604h4.569C127.796,49.819,129.856,51.879,129.856,54.422
			L129.856,54.422z"/>
	</g>
</g>
<g>
	<path fill="#3F3F40" stroke="#AAAAAA" stroke-miterlimit="10" d="M91.126,73.23c0,2.543-2.061,4.604-4.603,4.604h-4.569
		c-2.542,0-4.604-2.061-4.604-4.604l0,0c0-2.541,2.062-4.602,4.604-4.602h4.569C89.065,68.629,91.126,70.689,91.126,73.23
		L91.126,73.23z"/>
	<path fill="#3F3F40" stroke="#0F0F0F" stroke-miterlimit="10" d="M90.326,73.23c0,2.543-2.062,4.604-4.604,4.604h-4.569
		c-2.542,0-4.604-2.061-4.604-4.604l0,0c0-2.541,2.062-4.602,4.604-4.602h4.569C88.265,68.629,90.326,70.689,90.326,73.23
		L90.326,73.23z"/>
</g>
<g>
	<path fill="#3F3F40" stroke="#AAAAAA" stroke-miterlimit="10" d="M111.971,73.23c0,2.543-2.061,4.604-4.604,4.604h-4.569
		c-2.542,0-4.603-2.061-4.603-4.604l0,0c0-2.541,2.061-4.602,4.603-4.602h4.569C109.91,68.629,111.971,70.689,111.971,73.23
		L111.971,73.23z"/>
	<path fill="#3F3F40" stroke="#0F0F0F" stroke-miterlimit="10" d="M111.17,73.23c0,2.543-2.061,4.604-4.603,4.604h-4.57
		c-2.542,0-4.603-2.061-4.603-4.604l0,0c0-2.541,2.061-4.602,4.603-4.602h4.57C109.109,68.629,111.17,70.689,111.17,73.23
		L111.17,73.23z"/>
</g>
<g>
	<path fill="#3F3F40" stroke="#AAAAAA" stroke-miterlimit="10" d="M132.814,73.23c0,2.543-2.061,4.604-4.603,4.604h-4.569
		c-2.543,0-4.604-2.061-4.604-4.604l0,0c0-2.541,2.061-4.602,4.604-4.602h4.569C130.754,68.629,132.814,70.689,132.814,73.23
		L132.814,73.23z"/>
	<path fill="#3F3F40" stroke="#0F0F0F" stroke-miterlimit="10" d="M132.014,73.23c0,2.543-2.061,4.604-4.603,4.604h-4.569
		c-2.542,0-4.604-2.061-4.604-4.604l0,0c0-2.541,2.062-4.602,4.604-4.602h4.569C129.953,68.629,132.014,70.689,132.014,73.23
		L132.014,73.23z"/>
</g>
<g>
	<path fill="#3F3F40" stroke="#AAAAAA" stroke-miterlimit="10" d="M153.659,73.23c0,2.543-2.061,4.604-4.604,4.604h-4.569
		c-2.542,0-4.603-2.061-4.603-4.604l0,0c0-2.541,2.061-4.602,4.603-4.602h4.569C151.599,68.629,153.659,70.689,153.659,73.23
		L153.659,73.23z"/>
	<path fill="#3F3F40" stroke="#0F0F0F" stroke-miterlimit="10" d="M152.858,73.23c0,2.543-2.061,4.604-4.603,4.604h-4.57
		c-2.542,0-4.603-2.061-4.603-4.604l0,0c0-2.541,2.061-4.602,4.603-4.602h4.57C150.798,68.629,152.858,70.689,152.858,73.23
		L152.858,73.23z"/>
</g>
<path fill="#FFFFFF" stroke="#000000" stroke-miterlimit="10" d="M135.104,101.193c0,6.768-5.487,12.254-12.255,12.254H104.87
	c-6.768,0-12.255-5.486-12.255-12.254l0,0c0-6.77,5.487-12.256,12.255-12.256h17.979C129.617,88.938,135.104,94.424,135.104,101.193
	L135.104,101.193z"/>
<linearGradient id="SVGID_11_" gradientUnits="userSpaceOnUse" x1="98.6279" y1="101.1924" x2="129.0918" y2="101.1924">
	<stop  offset="0" style="stop-color:#898989"/>
	<stop  offset="1" style="stop-color:#F7F8F8"/>
</linearGradient>
<path fill="url(#SVGID_11_)" d="M129.092,101.193c0,2.783-2.257,5.039-5.04,5.039h-20.384c-2.783,0-5.04-2.256-5.04-5.039l0,0
	c0-2.783,2.257-5.041,5.04-5.041h20.384C126.835,96.152,129.092,98.41,129.092,101.193L129.092,101.193z"/>
<path fill="#121A21" d="M167.658,122.141V42.006c0,0-1.64-33.309,39.719-32.137c0,0,675.038,0,913.026-0.03
	c14.797-0.002,27.845,14.016,57.314,14.017l136.308,0.415c0,0,24.095-1.138,24.625,17.735v80.134H167.658z"/>
<path fill="#425D7C" d="M167.658,126.141V46.006c0,0-1.64-33.309,39.719-32.137c0,0,675.038,0,913.026-0.03
	c14.797-0.002,27.845,14.016,57.314,14.017l136.308,0.415c0,0,24.095-1.138,24.625,17.735v80.134H167.658z"/>
<rect x="171.414" y="59.026" fill="#FFF57F" width="1055.455" height="54.421"/>
<rect x="176.388" y="63.07" fill="#C7C8C8" stroke="#1E1D10" stroke-width="2" stroke-miterlimit="10" width="343.617" height="47.5"/>
<rect x="527.592" y="63.07" fill="#C7C8C8" stroke="#1E1D10" stroke-width="2" stroke-miterlimit="10" width="343.617" height="47.5"/>
<rect x="878.796" y="63.07" fill="#C7C8C8" stroke="#1E1D10" stroke-width="2" stroke-miterlimit="10" width="343.616" height="47.5"/>
<rect x="1237.524" y="70.254" fill="#FFF57F" width="38.738" height="36.559"/>
<rect x="1286.024" y="70.254" fill="#FFF57F" width="38.738" height="36.559"/>
<g>
	<text transform="matrix(1 0 0 1 1221.0244 19.6748)" fill="#FFFFFF" font-family="'Latha'" font-size="14.6884">Colalyst 2950</text>
	<text transform="matrix(1 0 0 1 1309.8848 19.6758)" fill="#FFFFFF" font-family="'Helvetica'" font-size="8.2658">Series</text>
</g>
</svg>
