<?xml version="1.0" encoding="utf-8"?>
<!-- Generator: Adobe Illustrator 16.0.0, SVG Export Plug-In . SVG Version: 6.00 Build 0)  -->
<!DOCTYPE svg PUBLIC "-//W3C//DTD SVG 1.1//EN" "http://www.w3.org/Graphics/SVG/1.1/DTD/svg11.dtd">
<svg version="1.1" id="图层_1" xmlns="http://www.w3.org/2000/svg" xmlns:xlink="http://www.w3.org/1999/xlink" x="0px" y="0px"
	 width="52.36px" height="784.33px" viewBox="0 0 52.36 784.33" enable-background="new 0 0 52.36 784.33" xml:space="preserve">
<g>
	<g>
		<g>
			<path fill="#545454" d="M49.41,777.641c0,3.693-2.352,6.688-5.254,6.688H5.252c-2.9,0-5.252-2.994-5.252-6.688V6.687
				C0,2.994,2.352,0,5.252,0h38.904c2.902,0,5.254,2.994,5.254,6.687V777.641z"/>
			<path fill="#C4C3BF" d="M51.328,777.641c0,3.693-2.352,6.688-5.254,6.688H7.17c-2.9,0-5.252-2.994-5.252-6.688V6.687
				C1.918,2.994,4.27,0,7.17,0h38.904c2.902,0,5.254,2.994,5.254,6.687V777.641z"/>
			<g>
				<g>
					<path fill="#AFAFAF" d="M34.313,12.077c0,4.038-3.443,7.312-7.689,7.312s-7.689-3.274-7.689-7.312
						c0-4.039,3.443-7.313,7.689-7.313S34.313,8.038,34.313,12.077"/>
					<ellipse fill="none" stroke="#949394" stroke-miterlimit="10" cx="26.623" cy="12.077" rx="7.689" ry="7.312"/>
					<path fill="#AFAFAF" d="M32.271,12.077c0,2.966-2.529,5.373-5.648,5.373c-3.121,0-5.65-2.406-5.65-5.373
						c0-2.967,2.529-5.374,5.65-5.374C29.742,6.704,32.271,9.11,32.271,12.077"/>
					<ellipse fill="none" stroke="#949394" stroke-miterlimit="10" cx="26.622" cy="12.077" rx="5.649" ry="5.373"/>
					<g>
						<g>
							<defs>
								<rect id="SVGID_1_" x="21.295" y="7.013" width="10.654" height="10.128"/>
							</defs>
							<clipPath id="SVGID_2_">
								<use xlink:href="#SVGID_1_"  overflow="visible"/>
							</clipPath>
							<path clip-path="url(#SVGID_2_)" fill="#BFBFBF" d="M31.947,12.077c0,2.796-2.383,5.064-5.324,5.064
								s-5.326-2.268-5.326-5.064c0-2.797,2.385-5.064,5.326-5.064S31.947,9.28,31.947,12.077"/>
							<path clip-path="url(#SVGID_2_)" fill="#C1C1C1" d="M31.822,12.077c0,2.73-2.328,4.944-5.199,4.944s-5.199-2.214-5.199-4.944
								c0-2.731,2.328-4.945,5.199-4.945S31.822,9.346,31.822,12.077"/>
							<path clip-path="url(#SVGID_2_)" fill="#C3C4C4" d="M31.697,12.077c0,2.665-2.271,4.826-5.074,4.826
								s-5.074-2.161-5.074-4.826c0-2.665,2.271-4.826,5.074-4.826S31.697,9.412,31.697,12.077"/>
							<path clip-path="url(#SVGID_2_)" fill="#C5C6C6" d="M31.572,12.077c0,2.599-2.217,4.707-4.949,4.707
								s-4.949-2.108-4.949-4.707c0-2.6,2.217-4.707,4.949-4.707S31.572,9.477,31.572,12.077"/>
							<path clip-path="url(#SVGID_2_)" fill="#C7C9C9" d="M31.447,12.077c0,2.533-2.162,4.587-4.824,4.587
								c-2.664,0-4.824-2.055-4.824-4.587c0-2.534,2.16-4.588,4.824-4.588C29.285,7.489,31.447,9.543,31.447,12.077"/>
							<path clip-path="url(#SVGID_2_)" fill="#CACBCB" d="M31.32,12.077c0,2.467-2.104,4.468-4.697,4.468
								c-2.596,0-4.699-2.001-4.699-4.468c0-2.468,2.104-4.469,4.699-4.469C29.217,7.608,31.32,9.609,31.32,12.077"/>
							<path clip-path="url(#SVGID_2_)" fill="#CCCECE" d="M31.197,12.077c0,2.401-2.049,4.349-4.574,4.349
								c-2.527,0-4.574-1.948-4.574-4.349c0-2.402,2.047-4.349,4.574-4.349C29.148,7.728,31.197,9.675,31.197,12.077"/>
							<path clip-path="url(#SVGID_2_)" fill="#CED0D0" d="M31.072,12.077c0,2.335-1.992,4.23-4.449,4.23s-4.449-1.895-4.449-4.23
								c0-2.336,1.992-4.231,4.449-4.231S31.072,9.741,31.072,12.077"/>
							<path clip-path="url(#SVGID_2_)" fill="#D1D3D3" d="M30.945,12.077c0,2.27-1.936,4.111-4.322,4.111s-4.322-1.841-4.322-4.111
								c0-2.271,1.936-4.112,4.322-4.112S30.945,9.806,30.945,12.077"/>
							<path clip-path="url(#SVGID_2_)" fill="#D3D5D5" d="M30.82,12.077c0,2.205-1.881,3.992-4.197,3.992
								c-2.318,0-4.197-1.787-4.197-3.992c0-2.205,1.879-3.992,4.197-3.992C28.939,8.085,30.82,9.872,30.82,12.077"/>
						</g>
					</g>
					<polygon fill="#5F5F5E" points="25.928,15.122 25.928,12.739 23.422,12.739 23.422,11.415 25.928,11.415 25.928,9.032 
						27.318,9.032 27.318,11.415 29.824,11.415 29.824,12.739 27.318,12.739 27.318,15.122 					"/>
					<path fill="#231815" d="M27.199,9.146V11.3v0.23h0.238h2.266v1.094h-2.266h-0.238v0.229v2.154h-1.152v-2.154v-0.229h-0.24
						h-2.266V11.53h2.266h0.24V11.3V9.146H27.199z M27.438,8.917h-1.631V11.3h-2.506v1.553h2.506v2.383h1.631v-2.383h2.506V11.3
						h-2.506V8.917z"/>
				</g>
				<g>
					<path fill="#AFAFAF" d="M34.313,767.742c0,4.037-3.443,7.311-7.689,7.311s-7.689-3.273-7.689-7.311
						c0-4.039,3.443-7.314,7.689-7.314S34.313,763.703,34.313,767.742"/>
					<ellipse fill="none" stroke="#949394" stroke-miterlimit="10" cx="26.623" cy="767.742" rx="7.689" ry="7.311"/>
					<path fill="#AFAFAF" d="M32.271,767.742c0,2.965-2.529,5.371-5.648,5.371c-3.121,0-5.65-2.406-5.65-5.371
						c0-2.969,2.529-5.373,5.65-5.373C29.742,762.369,32.271,764.773,32.271,767.742"/>
					<ellipse fill="none" stroke="#949394" stroke-miterlimit="10" cx="26.622" cy="767.742" rx="5.649" ry="5.371"/>
					<g>
						<g>
							<defs>
								<rect id="SVGID_3_" x="21.295" y="762.678" width="10.654" height="10.127"/>
							</defs>
							<clipPath id="SVGID_4_">
								<use xlink:href="#SVGID_3_"  overflow="visible"/>
							</clipPath>
							<path clip-path="url(#SVGID_4_)" fill="#BFBFBF" d="M31.947,767.742c0,2.795-2.383,5.063-5.324,5.063
								s-5.326-2.268-5.326-5.063c0-2.797,2.385-5.064,5.326-5.064S31.947,764.945,31.947,767.742"/>
							<path clip-path="url(#SVGID_4_)" fill="#C1C1C1" d="M31.822,767.742c0,2.73-2.328,4.943-5.199,4.943
								s-5.199-2.213-5.199-4.943c0-2.732,2.328-4.945,5.199-4.945S31.822,765.01,31.822,767.742"/>
							<path clip-path="url(#SVGID_4_)" fill="#C3C4C4" d="M31.697,767.742c0,2.664-2.271,4.824-5.074,4.824
								s-5.074-2.16-5.074-4.824c0-2.666,2.271-4.826,5.074-4.826S31.697,765.076,31.697,767.742"/>
							<path clip-path="url(#SVGID_4_)" fill="#C5C6C6" d="M31.572,767.742c0,2.598-2.217,4.705-4.949,4.705
								s-4.949-2.107-4.949-4.705c0-2.602,2.217-4.707,4.949-4.707S31.572,765.141,31.572,767.742"/>
							<path clip-path="url(#SVGID_4_)" fill="#C7C9C9" d="M31.447,767.742c0,2.531-2.162,4.586-4.824,4.586
								c-2.664,0-4.824-2.055-4.824-4.586c0-2.535,2.16-4.588,4.824-4.588C29.285,763.154,31.447,765.207,31.447,767.742"/>
							<path clip-path="url(#SVGID_4_)" fill="#CACBCB" d="M31.32,767.742c0,2.467-2.104,4.467-4.697,4.467
								c-2.596,0-4.699-2-4.699-4.467c0-2.469,2.104-4.471,4.699-4.471C29.217,763.271,31.32,765.273,31.32,767.742"/>
							<path clip-path="url(#SVGID_4_)" fill="#CCCECE" d="M31.197,767.742c0,2.4-2.049,4.348-4.574,4.348
								c-2.527,0-4.574-1.947-4.574-4.348c0-2.402,2.047-4.35,4.574-4.35C29.148,763.393,31.197,765.34,31.197,767.742"/>
							<path clip-path="url(#SVGID_4_)" fill="#CED0D0" d="M31.072,767.742c0,2.334-1.992,4.23-4.449,4.23s-4.449-1.896-4.449-4.23
								c0-2.336,1.992-4.23,4.449-4.23S31.072,765.406,31.072,767.742"/>
							<path clip-path="url(#SVGID_4_)" fill="#D1D3D3" d="M30.945,767.742c0,2.27-1.936,4.111-4.322,4.111
								s-4.322-1.842-4.322-4.111c0-2.271,1.936-4.113,4.322-4.113S30.945,765.471,30.945,767.742"/>
							<path clip-path="url(#SVGID_4_)" fill="#D3D5D5" d="M30.82,767.742c0,2.203-1.881,3.99-4.197,3.99
								c-2.318,0-4.197-1.787-4.197-3.99c0-2.205,1.879-3.992,4.197-3.992C28.939,763.75,30.82,765.537,30.82,767.742"/>
						</g>
					</g>
					<polygon fill="#5F5F5E" points="25.928,770.785 25.928,768.402 23.422,768.402 23.422,767.08 25.928,767.08 25.928,764.695 
						27.318,764.695 27.318,767.08 29.824,767.08 29.824,768.402 27.318,768.402 27.318,770.785 					"/>
					<path fill="#231815" d="M27.199,764.811v2.154v0.229h0.238h2.266v1.094h-2.266h-0.238v0.23v2.154h-1.152v-2.154v-0.23h-0.24
						h-2.266v-1.094h2.266h0.24v-0.229v-2.154H27.199z M27.438,764.582h-1.631v2.383h-2.506v1.553h2.506v2.383h1.631v-2.383h2.506
						v-1.553h-2.506V764.582z"/>
				</g>
			</g>
		</g>
		<rect x="51.328" y="10.877" fill="#545454" width="1.037" height="773.451"/>
	</g>
	<g>
		<path fill="#070001" d="M39.535,693.498c2.809,0,5.086,2.277,5.086,5.086s-2.277,5.086-5.086,5.086
			c-2.811,0-5.088-2.277-5.088-5.086S36.725,693.498,39.535,693.498"/>
		<g>
			<defs>
				<path id="SVGID_5_" d="M35.447,698.584c0,2.258,1.83,4.088,4.088,4.088s4.088-1.83,4.088-4.088s-1.83-4.088-4.088-4.088
					S35.447,696.326,35.447,698.584"/>
			</defs>
			<clipPath id="SVGID_6_">
				<use xlink:href="#SVGID_5_"  overflow="visible"/>
			</clipPath>
			
				<radialGradient id="SVGID_7_" cx="-802.1353" cy="735.9316" r="0.7177" gradientTransform="matrix(8.3884 0 0 8.3884 6767.168 -5476.1641)" gradientUnits="userSpaceOnUse">
				<stop  offset="0" style="stop-color:#F5D04D"/>
				<stop  offset="1" style="stop-color:#22AC38"/>
			</radialGradient>
			<rect x="35.447" y="694.496" clip-path="url(#SVGID_6_)" fill="url(#SVGID_7_)" width="8.176" height="8.176"/>
		</g>
		<g opacity="0.5" enable-background="new    ">
			<g>
				<defs>
					<rect id="SVGID_8_" x="37.627" y="696.223" width="1.363" height="1.363"/>
				</defs>
				<clipPath id="SVGID_9_">
					<use xlink:href="#SVGID_8_"  overflow="visible"/>
				</clipPath>
				<rect x="37.627" y="696.223" clip-path="url(#SVGID_9_)" fill="#FFFFFF" width="1.363" height="1.361"/>
			</g>
		</g>
		<g opacity="0.5" enable-background="new    ">
			<g>
				<defs>
					<rect id="SVGID_10_" x="37.627" y="696.223" width="0.682" height="1.363"/>
				</defs>
				<clipPath id="SVGID_11_">
					<use xlink:href="#SVGID_10_"  overflow="visible"/>
				</clipPath>
				<rect x="37.627" y="696.223" clip-path="url(#SVGID_11_)" fill="#FFFFFF" width="0.682" height="1.361"/>
			</g>
		</g>
	</g>
	<rect x="1.918" y="380.076" fill="#424142" width="1.994" height="208.002"/>
	<linearGradient id="SVGID_12_" gradientUnits="userSpaceOnUse" x1="26.8755" y1="236.4214" x2="26.8755" y2="121.7095">
		<stop  offset="0" style="stop-color:#595757"/>
		<stop  offset="0.064" style="stop-color:#B5B5B6"/>
		<stop  offset="0.33" style="stop-color:#727171"/>
		<stop  offset="0.3793" style="stop-color:#B5B5B6"/>
		<stop  offset="0.601" style="stop-color:#B5B5B6"/>
		<stop  offset="0.6404" style="stop-color:#595757"/>
		<stop  offset="0.8325" style="stop-color:#727171"/>
		<stop  offset="0.9606" style="stop-color:#C9CACA"/>
		<stop  offset="1" style="stop-color:#595757"/>
	</linearGradient>
	<rect x="2.916" y="121.709" fill="url(#SVGID_12_)" width="47.918" height="114.712"/>
	<rect x="25.812" y="121.709" fill="#595757" width="1.86" height="112.885"/>
	<circle fill="#1B1B1B" cx="26.742" cy="179.152" r="13.096"/>
	<circle fill="#1B1B1B" cx="26.162" cy="217.581" r="7"/>
	<g>
		<circle fill="#1B1B1B" cx="26.162" cy="143.081" r="7"/>
		<radialGradient id="SVGID_13_" cx="26.1611" cy="143.0806" r="5.8333" gradientUnits="userSpaceOnUse">
			<stop  offset="0" style="stop-color:#595757"/>
			<stop  offset="0.064" style="stop-color:#B5B5B6"/>
			<stop  offset="0.33" style="stop-color:#727171"/>
			<stop  offset="0.3793" style="stop-color:#B5B5B6"/>
			<stop  offset="0.601" style="stop-color:#B5B5B6"/>
			<stop  offset="0.6404" style="stop-color:#595757"/>
			<stop  offset="0.8325" style="stop-color:#727171"/>
			<stop  offset="0.9606" style="stop-color:#C9CACA"/>
			<stop  offset="1" style="stop-color:#595757"/>
		</radialGradient>
		<circle fill="url(#SVGID_13_)" cx="26.161" cy="143.081" r="5.833"/>
	</g>
	<radialGradient id="SVGID_14_" cx="26.1611" cy="217.5806" r="5.8333" gradientUnits="userSpaceOnUse">
		<stop  offset="0" style="stop-color:#595757"/>
		<stop  offset="0.064" style="stop-color:#B5B5B6"/>
		<stop  offset="0.33" style="stop-color:#727171"/>
		<stop  offset="0.3793" style="stop-color:#B5B5B6"/>
		<stop  offset="0.601" style="stop-color:#B5B5B6"/>
		<stop  offset="0.6404" style="stop-color:#595757"/>
		<stop  offset="0.8325" style="stop-color:#727171"/>
		<stop  offset="0.9606" style="stop-color:#C9CACA"/>
		<stop  offset="1" style="stop-color:#595757"/>
	</radialGradient>
	<circle fill="url(#SVGID_14_)" cx="26.161" cy="217.581" r="5.833"/>
	<g>
		<linearGradient id="SVGID_15_" gradientUnits="userSpaceOnUse" x1="26.8755" y1="477.5684" x2="26.8755" y2="362.8574">
			<stop  offset="0" style="stop-color:#595757"/>
			<stop  offset="0.064" style="stop-color:#B5B5B6"/>
			<stop  offset="0.33" style="stop-color:#727171"/>
			<stop  offset="0.3793" style="stop-color:#B5B5B6"/>
			<stop  offset="0.601" style="stop-color:#B5B5B6"/>
			<stop  offset="0.6404" style="stop-color:#595757"/>
			<stop  offset="0.8325" style="stop-color:#727171"/>
			<stop  offset="0.9606" style="stop-color:#C9CACA"/>
			<stop  offset="1" style="stop-color:#595757"/>
		</linearGradient>
		<rect x="2.916" y="362.857" fill="url(#SVGID_15_)" width="47.918" height="114.711"/>
		<rect x="25.812" y="362.856" fill="#595757" width="1.86" height="112.886"/>
		<circle fill="#1B1B1B" cx="26.742" cy="420.299" r="13.096"/>
		<circle fill="#1B1B1B" cx="26.162" cy="384.228" r="7"/>
		<circle fill="#1B1B1B" cx="26.162" cy="458.729" r="7"/>
		<radialGradient id="SVGID_16_" cx="26.1611" cy="384.2285" r="5.8333" gradientUnits="userSpaceOnUse">
			<stop  offset="0" style="stop-color:#595757"/>
			<stop  offset="0.064" style="stop-color:#B5B5B6"/>
			<stop  offset="0.33" style="stop-color:#727171"/>
			<stop  offset="0.3793" style="stop-color:#B5B5B6"/>
			<stop  offset="0.601" style="stop-color:#B5B5B6"/>
			<stop  offset="0.6404" style="stop-color:#595757"/>
			<stop  offset="0.8325" style="stop-color:#727171"/>
			<stop  offset="0.9606" style="stop-color:#C9CACA"/>
			<stop  offset="1" style="stop-color:#595757"/>
		</radialGradient>
		<circle fill="url(#SVGID_16_)" cx="26.161" cy="384.228" r="5.833"/>
		<radialGradient id="SVGID_17_" cx="26.1611" cy="458.7285" r="5.8335" gradientUnits="userSpaceOnUse">
			<stop  offset="0" style="stop-color:#595757"/>
			<stop  offset="0.064" style="stop-color:#B5B5B6"/>
			<stop  offset="0.33" style="stop-color:#727171"/>
			<stop  offset="0.3793" style="stop-color:#B5B5B6"/>
			<stop  offset="0.601" style="stop-color:#B5B5B6"/>
			<stop  offset="0.6404" style="stop-color:#595757"/>
			<stop  offset="0.8325" style="stop-color:#727171"/>
			<stop  offset="0.9606" style="stop-color:#C9CACA"/>
			<stop  offset="1" style="stop-color:#595757"/>
		</radialGradient>
		<circle fill="url(#SVGID_17_)" cx="26.161" cy="458.729" r="5.833"/>
	</g>
	<linearGradient id="SVGID_18_" gradientUnits="userSpaceOnUse" x1="26.8755" y1="592.9492" x2="26.8755" y2="478.2363">
		<stop  offset="0" style="stop-color:#595757"/>
		<stop  offset="0.064" style="stop-color:#B5B5B6"/>
		<stop  offset="0.33" style="stop-color:#727171"/>
		<stop  offset="0.3793" style="stop-color:#B5B5B6"/>
		<stop  offset="0.601" style="stop-color:#B5B5B6"/>
		<stop  offset="0.6404" style="stop-color:#595757"/>
		<stop  offset="0.8325" style="stop-color:#727171"/>
		<stop  offset="0.9606" style="stop-color:#C9CACA"/>
		<stop  offset="1" style="stop-color:#595757"/>
	</linearGradient>
	<rect x="2.916" y="478.236" fill="url(#SVGID_18_)" width="47.918" height="114.713"/>
	<rect x="25.812" y="478.236" fill="#595757" width="1.86" height="112.885"/>
	<circle fill="#1B1B1B" cx="26.742" cy="535.678" r="13.096"/>
	<circle fill="#1B1B1B" cx="26.162" cy="499.607" r="7"/>
	<radialGradient id="SVGID_19_" cx="26.1611" cy="499.6074" r="5.8335" gradientUnits="userSpaceOnUse">
		<stop  offset="0" style="stop-color:#595757"/>
		<stop  offset="0.064" style="stop-color:#B5B5B6"/>
		<stop  offset="0.33" style="stop-color:#727171"/>
		<stop  offset="0.3793" style="stop-color:#B5B5B6"/>
		<stop  offset="0.601" style="stop-color:#B5B5B6"/>
		<stop  offset="0.6404" style="stop-color:#595757"/>
		<stop  offset="0.8325" style="stop-color:#727171"/>
		<stop  offset="0.9606" style="stop-color:#C9CACA"/>
		<stop  offset="1" style="stop-color:#595757"/>
	</radialGradient>
	<circle fill="url(#SVGID_19_)" cx="26.161" cy="499.607" r="5.833"/>
	<g>
		<circle fill="#1B1B1B" cx="26.162" cy="574.107" r="7"/>
		<radialGradient id="SVGID_20_" cx="26.1611" cy="574.1074" r="5.8335" gradientUnits="userSpaceOnUse">
			<stop  offset="0" style="stop-color:#595757"/>
			<stop  offset="0.064" style="stop-color:#B5B5B6"/>
			<stop  offset="0.33" style="stop-color:#727171"/>
			<stop  offset="0.3793" style="stop-color:#B5B5B6"/>
			<stop  offset="0.601" style="stop-color:#B5B5B6"/>
			<stop  offset="0.6404" style="stop-color:#595757"/>
			<stop  offset="0.8325" style="stop-color:#727171"/>
			<stop  offset="0.9606" style="stop-color:#C9CACA"/>
			<stop  offset="1" style="stop-color:#595757"/>
		</radialGradient>
		<circle fill="url(#SVGID_20_)" cx="26.161" cy="574.107" r="5.833"/>
	</g>
</g>
</svg>
