<?xml version="1.0" encoding="utf-8"?>
<!-- Generator: Adobe Illustrator 16.0.0, SVG Export Plug-In . SVG Version: 6.00 Build 0)  -->
<!DOCTYPE svg PUBLIC "-//W3C//DTD SVG 1.1//EN" "http://www.w3.org/Graphics/SVG/1.1/DTD/svg11.dtd">
<svg version="1.1" id="图层_1" xmlns="http://www.w3.org/2000/svg" xmlns:xlink="http://www.w3.org/1999/xlink" x="0px" y="0px"
	 width="1275.6px" height="126.1px" viewBox="0 0 1275.6 126.1" enable-background="new 0 0 1275.6 126.1" xml:space="preserve">
<g>
	<rect fill="#282828" width="1275.6" height="126.141"/>
	<rect x="8.979" y="7.926" fill="#070707" width="1257.81" height="110.384"/>
	<g>
		<rect x="8.979" y="63.07" fill="#3F3F3F" width="310.391" height="56.076"/>
		<path fill="#161616" d="M34.308,78.66c0,0.952-0.675,1.724-1.505,1.724H22.766c-0.832,0-1.505-0.771-1.505-1.724v-8.044
			c0-0.951,0.673-1.723,1.505-1.723h10.037c0.831,0,1.505,0.771,1.505,1.723V78.66z"/>
		<path fill="#161616" d="M51.5,78.66c0,0.952-0.674,1.724-1.506,1.724H39.957c-0.832,0-1.504-0.771-1.504-1.724v-8.044
			c0-0.951,0.673-1.723,1.504-1.723h10.038c0.832,0,1.506,0.771,1.506,1.723V78.66z"/>
		<path fill="#161616" d="M68.692,78.66c0,0.952-0.673,1.724-1.505,1.724H57.151c-0.832,0-1.506-0.771-1.506-1.724v-8.044
			c0-0.951,0.674-1.723,1.506-1.723h10.036c0.832,0,1.505,0.771,1.505,1.723V78.66z"/>
		<path fill="#161616" d="M85.886,78.66c0,0.952-0.674,1.724-1.505,1.724H74.344c-0.832,0-1.505-0.771-1.505-1.724v-8.044
			c0-0.951,0.673-1.723,1.505-1.723h10.037c0.831,0,1.505,0.771,1.505,1.723V78.66z"/>
		<path fill="#161616" d="M103.077,78.66c0,0.952-0.673,1.724-1.504,1.724H91.536c-0.831,0-1.506-0.771-1.506-1.724v-8.044
			c0-0.951,0.675-1.723,1.506-1.723h10.037c0.831,0,1.504,0.771,1.504,1.723V78.66z"/>
		<path fill="#161616" d="M120.271,78.66c0,0.952-0.674,1.724-1.506,1.724h-10.035c-0.832,0-1.506-0.771-1.506-1.724v-8.044
			c0-0.951,0.674-1.723,1.506-1.723h10.035c0.832,0,1.506,0.771,1.506,1.723V78.66z"/>
		<path fill="#161616" d="M137.463,78.66c0,0.952-0.673,1.724-1.505,1.724h-10.037c-0.83,0-1.506-0.771-1.506-1.724v-8.044
			c0-0.951,0.676-1.723,1.506-1.723h10.037c0.832,0,1.505,0.771,1.505,1.723V78.66z"/>
		<path fill="#161616" d="M154.658,78.66c0,0.952-0.676,1.724-1.508,1.724h-10.035c-0.832,0-1.505-0.771-1.505-1.724v-8.044
			c0-0.951,0.673-1.723,1.505-1.723h10.035c0.833,0,1.508,0.771,1.508,1.723V78.66z"/>
		<path fill="#161616" d="M171.849,78.66c0,0.952-0.673,1.724-1.505,1.724h-10.038c-0.83,0-1.505-0.771-1.505-1.724v-8.044
			c0-0.951,0.675-1.723,1.505-1.723h10.038c0.832,0,1.505,0.771,1.505,1.723V78.66z"/>
		<path fill="#161616" d="M189.042,78.66c0,0.952-0.675,1.724-1.506,1.724H177.5c-0.832,0-1.507-0.771-1.507-1.724v-8.044
			c0-0.951,0.675-1.723,1.507-1.723h10.036c0.831,0,1.506,0.771,1.506,1.723V78.66z"/>
		<path fill="#161616" d="M206.234,78.66c0,0.952-0.675,1.724-1.506,1.724h-10.037c-0.831,0-1.505-0.771-1.505-1.724v-8.044
			c0-0.951,0.674-1.723,1.505-1.723h10.037c0.831,0,1.506,0.771,1.506,1.723V78.66z"/>
		<path fill="#161616" d="M223.428,78.66c0,0.952-0.675,1.724-1.506,1.724h-10.037c-0.832,0-1.506-0.771-1.506-1.724v-8.044
			c0-0.951,0.674-1.723,1.506-1.723h10.037c0.831,0,1.506,0.771,1.506,1.723V78.66z"/>
		<path fill="#161616" d="M240.62,78.66c0,0.952-0.674,1.724-1.506,1.724h-10.037c-0.83,0-1.504-0.771-1.504-1.724v-8.044
			c0-0.951,0.674-1.723,1.504-1.723h10.037c0.832,0,1.506,0.771,1.506,1.723V78.66z"/>
		<path fill="#161616" d="M257.812,78.66c0,0.952-0.674,1.724-1.505,1.724H246.27c-0.832,0-1.506-0.771-1.506-1.724v-8.044
			c0-0.951,0.674-1.723,1.506-1.723h10.038c0.831,0,1.505,0.771,1.505,1.723V78.66z"/>
		<path fill="#161616" d="M275.004,78.66c0,0.952-0.674,1.724-1.505,1.724h-10.037c-0.831,0-1.505-0.771-1.505-1.724v-8.044
			c0-0.951,0.674-1.723,1.505-1.723H273.5c0.831,0,1.505,0.771,1.505,1.723V78.66z"/>
		<path fill="#161616" d="M292.198,78.66c0,0.952-0.673,1.724-1.505,1.724h-10.038c-0.832,0-1.506-0.771-1.506-1.724v-8.044
			c0-0.951,0.674-1.723,1.506-1.723h10.038c0.832,0,1.505,0.771,1.505,1.723V78.66z"/>
		<path fill="#161616" d="M34.308,96.738c0,0.953-0.675,1.725-1.505,1.725H22.766c-0.832,0-1.505-0.771-1.505-1.725v-8.042
			c0-0.953,0.673-1.725,1.505-1.725h10.037c0.831,0,1.505,0.771,1.505,1.725V96.738z"/>
		<path fill="#161616" d="M51.5,96.738c0,0.953-0.674,1.725-1.506,1.725H39.957c-0.832,0-1.504-0.771-1.504-1.725v-8.042
			c0-0.953,0.673-1.725,1.504-1.725h10.038c0.832,0,1.506,0.771,1.506,1.725V96.738z"/>
		<path fill="#161616" d="M68.692,96.738c0,0.953-0.673,1.725-1.505,1.725H57.151c-0.832,0-1.506-0.771-1.506-1.725v-8.042
			c0-0.953,0.674-1.725,1.506-1.725h10.036c0.832,0,1.505,0.771,1.505,1.725V96.738z"/>
		<path fill="#161616" d="M85.886,96.738c0,0.953-0.674,1.725-1.505,1.725H74.344c-0.832,0-1.505-0.771-1.505-1.725v-8.042
			c0-0.953,0.673-1.725,1.505-1.725h10.037c0.831,0,1.505,0.771,1.505,1.725V96.738z"/>
		<path fill="#161616" d="M103.077,96.738c0,0.953-0.673,1.725-1.504,1.725H91.536c-0.831,0-1.506-0.771-1.506-1.725v-8.042
			c0-0.953,0.675-1.725,1.506-1.725h10.037c0.831,0,1.504,0.771,1.504,1.725V96.738z"/>
		<path fill="#161616" d="M120.271,96.738c0,0.953-0.674,1.725-1.506,1.725h-10.035c-0.832,0-1.506-0.771-1.506-1.725v-8.042
			c0-0.953,0.674-1.725,1.506-1.725h10.035c0.832,0,1.506,0.771,1.506,1.725V96.738z"/>
		<path fill="#161616" d="M137.463,96.738c0,0.953-0.673,1.725-1.505,1.725h-10.037c-0.83,0-1.506-0.771-1.506-1.725v-8.042
			c0-0.953,0.676-1.725,1.506-1.725h10.037c0.832,0,1.505,0.771,1.505,1.725V96.738z"/>
		<path fill="#161616" d="M154.658,96.738c0,0.953-0.676,1.725-1.508,1.725h-10.035c-0.832,0-1.505-0.771-1.505-1.725v-8.042
			c0-0.953,0.673-1.725,1.505-1.725h10.035c0.833,0,1.508,0.771,1.508,1.725V96.738z"/>
		<path fill="#161616" d="M171.849,96.738c0,0.953-0.673,1.725-1.505,1.725h-10.038c-0.83,0-1.505-0.771-1.505-1.725v-8.042
			c0-0.953,0.675-1.725,1.505-1.725h10.038c0.832,0,1.505,0.771,1.505,1.725V96.738z"/>
		<path fill="#161616" d="M189.042,96.738c0,0.953-0.675,1.725-1.506,1.725H177.5c-0.832,0-1.507-0.771-1.507-1.725v-8.042
			c0-0.953,0.675-1.725,1.507-1.725h10.036c0.831,0,1.506,0.771,1.506,1.725V96.738z"/>
		<path fill="#161616" d="M206.234,96.738c0,0.953-0.675,1.725-1.506,1.725h-10.037c-0.831,0-1.505-0.771-1.505-1.725v-8.042
			c0-0.953,0.674-1.725,1.505-1.725h10.037c0.831,0,1.506,0.771,1.506,1.725V96.738z"/>
		<path fill="#161616" d="M223.428,96.738c0,0.953-0.675,1.725-1.506,1.725h-10.037c-0.832,0-1.506-0.771-1.506-1.725v-8.042
			c0-0.953,0.674-1.725,1.506-1.725h10.037c0.831,0,1.506,0.771,1.506,1.725V96.738z"/>
		<path fill="#161616" d="M240.62,96.738c0,0.953-0.674,1.725-1.506,1.725h-10.037c-0.83,0-1.504-0.771-1.504-1.725v-8.042
			c0-0.953,0.674-1.725,1.504-1.725h10.037c0.832,0,1.506,0.771,1.506,1.725V96.738z"/>
		<path fill="#161616" d="M257.812,96.738c0,0.953-0.674,1.725-1.505,1.725H246.27c-0.832,0-1.506-0.771-1.506-1.725v-8.042
			c0-0.953,0.674-1.725,1.506-1.725h10.038c0.831,0,1.505,0.771,1.505,1.725V96.738z"/>
		<path fill="#161616" d="M275.004,96.738c0,0.953-0.674,1.725-1.505,1.725h-10.037c-0.831,0-1.505-0.771-1.505-1.725v-8.042
			c0-0.953,0.674-1.725,1.505-1.725H273.5c0.831,0,1.505,0.771,1.505,1.725V96.738z"/>
		<path fill="#161616" d="M292.198,96.738c0,0.953-0.673,1.725-1.505,1.725h-10.038c-0.832,0-1.506-0.771-1.506-1.725v-8.042
			c0-0.953,0.674-1.725,1.506-1.725h10.038c0.832,0,1.505,0.771,1.505,1.725V96.738z"/>
		<rect x="8.979" y="100.761" fill="#070707" width="305.454" height="15.397"/>
		<rect x="34.308" y="102.293" fill="#3F3F3F" width="234.173" height="11.951"/>
		<rect x="41.523" y="103.748" fill="#333333" stroke="#232323" stroke-miterlimit="10" width="194.647" height="8.964"/>
		<rect x="268.481" y="102.293" fill="#7C534E" width="20.264" height="11.951"/>
		<ellipse fill="#5B5B5B" stroke="#000000" stroke-miterlimit="10" cx="304.941" cy="75.48" rx="3.837" ry="3.83"/>
		<ellipse fill="#5B5B5B" stroke="#000000" stroke-miterlimit="10" cx="304.941" cy="91.108" rx="3.837" ry="3.831"/>
	</g>
	<g>
		<rect x="325.683" y="63.07" fill="#3F3F3F" width="310.391" height="56.076"/>
		<path fill="#161616" d="M351.011,78.66c0,0.952-0.674,1.724-1.506,1.724h-10.038c-0.83,0-1.505-0.771-1.505-1.724v-8.044
			c0-0.951,0.675-1.723,1.505-1.723h10.038c0.832,0,1.506,0.771,1.506,1.723V78.66z"/>
		<path fill="#161616" d="M368.203,78.66c0,0.952-0.673,1.724-1.505,1.724h-10.036c-0.832,0-1.506-0.771-1.506-1.724v-8.044
			c0-0.951,0.674-1.723,1.506-1.723h10.036c0.832,0,1.505,0.771,1.505,1.723V78.66z"/>
		<path fill="#161616" d="M385.396,78.66c0,0.952-0.675,1.724-1.506,1.724h-10.037c-0.831,0-1.505-0.771-1.505-1.724v-8.044
			c0-0.951,0.674-1.723,1.505-1.723h10.037c0.831,0,1.506,0.771,1.506,1.723V78.66z"/>
		<path fill="#161616" d="M402.589,78.66c0,0.952-0.675,1.724-1.505,1.724h-10.038c-0.832,0-1.505-0.771-1.505-1.724v-8.044
			c0-0.951,0.673-1.723,1.505-1.723h10.038c0.831,0,1.505,0.771,1.505,1.723V78.66z"/>
		<path fill="#161616" d="M419.781,78.66c0,0.952-0.674,1.724-1.506,1.724h-10.038c-0.83,0-1.505-0.771-1.505-1.724v-8.044
			c0-0.951,0.676-1.723,1.505-1.723h10.038c0.832,0,1.506,0.771,1.506,1.723V78.66z"/>
		<path fill="#161616" d="M436.974,78.66c0,0.952-0.674,1.724-1.505,1.724h-10.037c-0.832,0-1.506-0.771-1.506-1.724v-8.044
			c0-0.951,0.674-1.723,1.506-1.723h10.037c0.831,0,1.505,0.771,1.505,1.723V78.66z"/>
		<path fill="#161616" d="M454.167,78.66c0,0.952-0.674,1.724-1.506,1.724h-10.036c-0.832,0-1.505-0.771-1.505-1.724v-8.044
			c0-0.951,0.674-1.723,1.505-1.723h10.036c0.832,0,1.506,0.771,1.506,1.723V78.66z"/>
		<path fill="#161616" d="M471.36,78.66c0,0.952-0.676,1.724-1.506,1.724h-10.037c-0.832,0-1.506-0.771-1.506-1.724v-8.044
			c0-0.951,0.674-1.723,1.506-1.723h10.037c0.83,0,1.506,0.771,1.506,1.723V78.66z"/>
		<path fill="#161616" d="M488.551,78.66c0,0.952-0.674,1.724-1.505,1.724H477.01c-0.832,0-1.506-0.771-1.506-1.724v-8.044
			c0-0.951,0.674-1.723,1.506-1.723h10.036c0.831,0,1.505,0.771,1.505,1.723V78.66z"/>
		<path fill="#161616" d="M505.745,78.66c0,0.952-0.675,1.724-1.506,1.724h-10.036c-0.833,0-1.507-0.771-1.507-1.724v-8.044
			c0-0.951,0.674-1.723,1.507-1.723h10.036c0.831,0,1.506,0.771,1.506,1.723V78.66z"/>
		<path fill="#161616" d="M522.937,78.66c0,0.952-0.674,1.724-1.505,1.724h-10.037c-0.832,0-1.505-0.771-1.505-1.724v-8.044
			c0-0.951,0.673-1.723,1.505-1.723h10.037c0.831,0,1.505,0.771,1.505,1.723V78.66z"/>
		<path fill="#161616" d="M540.13,78.66c0,0.952-0.674,1.724-1.506,1.724h-10.036c-0.832,0-1.507-0.771-1.507-1.724v-8.044
			c0-0.951,0.675-1.723,1.507-1.723h10.036c0.832,0,1.506,0.771,1.506,1.723V78.66z"/>
		<path fill="#161616" d="M557.321,78.66c0,0.952-0.673,1.724-1.505,1.724h-10.037c-0.831,0-1.504-0.771-1.504-1.724v-8.044
			c0-0.951,0.673-1.723,1.504-1.723h10.037c0.832,0,1.505,0.771,1.505,1.723V78.66z"/>
		<path fill="#161616" d="M574.515,78.66c0,0.952-0.673,1.724-1.505,1.724h-10.036c-0.831,0-1.506-0.771-1.506-1.724v-8.044
			c0-0.951,0.675-1.723,1.506-1.723h10.036c0.832,0,1.505,0.771,1.505,1.723V78.66z"/>
		<path fill="#161616" d="M591.708,78.66c0,0.952-0.673,1.724-1.505,1.724h-10.037c-0.831,0-1.504-0.771-1.504-1.724v-8.044
			c0-0.951,0.673-1.723,1.504-1.723h10.037c0.832,0,1.505,0.771,1.505,1.723V78.66z"/>
		<path fill="#161616" d="M608.9,78.66c0,0.952-0.673,1.724-1.506,1.724h-10.035c-0.832,0-1.507-0.771-1.507-1.724v-8.044
			c0-0.951,0.675-1.723,1.507-1.723h10.035c0.833,0,1.506,0.771,1.506,1.723V78.66z"/>
		<path fill="#161616" d="M351.011,96.738c0,0.953-0.674,1.725-1.506,1.725h-10.038c-0.83,0-1.505-0.771-1.505-1.725v-8.042
			c0-0.953,0.675-1.725,1.505-1.725h10.038c0.832,0,1.506,0.771,1.506,1.725V96.738z"/>
		<path fill="#161616" d="M368.203,96.738c0,0.953-0.673,1.725-1.505,1.725h-10.036c-0.832,0-1.506-0.771-1.506-1.725v-8.042
			c0-0.953,0.674-1.725,1.506-1.725h10.036c0.832,0,1.505,0.771,1.505,1.725V96.738z"/>
		<path fill="#161616" d="M385.396,96.738c0,0.953-0.675,1.725-1.506,1.725h-10.037c-0.831,0-1.505-0.771-1.505-1.725v-8.042
			c0-0.953,0.674-1.725,1.505-1.725h10.037c0.831,0,1.506,0.771,1.506,1.725V96.738z"/>
		<path fill="#161616" d="M402.589,96.738c0,0.953-0.675,1.725-1.505,1.725h-10.038c-0.832,0-1.505-0.771-1.505-1.725v-8.042
			c0-0.953,0.673-1.725,1.505-1.725h10.038c0.831,0,1.505,0.771,1.505,1.725V96.738z"/>
		<path fill="#161616" d="M419.781,96.738c0,0.953-0.674,1.725-1.506,1.725h-10.038c-0.83,0-1.505-0.771-1.505-1.725v-8.042
			c0-0.953,0.676-1.725,1.505-1.725h10.038c0.832,0,1.506,0.771,1.506,1.725V96.738z"/>
		<path fill="#161616" d="M436.974,96.738c0,0.953-0.674,1.725-1.505,1.725h-10.037c-0.832,0-1.506-0.771-1.506-1.725v-8.042
			c0-0.953,0.674-1.725,1.506-1.725h10.037c0.831,0,1.505,0.771,1.505,1.725V96.738z"/>
		<path fill="#161616" d="M454.167,96.738c0,0.953-0.674,1.725-1.506,1.725h-10.036c-0.832,0-1.505-0.771-1.505-1.725v-8.042
			c0-0.953,0.674-1.725,1.505-1.725h10.036c0.832,0,1.506,0.771,1.506,1.725V96.738z"/>
		<path fill="#161616" d="M471.36,96.738c0,0.953-0.676,1.725-1.506,1.725h-10.037c-0.832,0-1.506-0.771-1.506-1.725v-8.042
			c0-0.953,0.674-1.725,1.506-1.725h10.037c0.83,0,1.506,0.771,1.506,1.725V96.738z"/>
		<path fill="#161616" d="M488.551,96.738c0,0.953-0.674,1.725-1.505,1.725H477.01c-0.832,0-1.506-0.771-1.506-1.725v-8.042
			c0-0.953,0.674-1.725,1.506-1.725h10.036c0.831,0,1.505,0.771,1.505,1.725V96.738z"/>
		<path fill="#161616" d="M505.745,96.738c0,0.953-0.675,1.725-1.506,1.725h-10.036c-0.833,0-1.507-0.771-1.507-1.725v-8.042
			c0-0.953,0.674-1.725,1.507-1.725h10.036c0.831,0,1.506,0.771,1.506,1.725V96.738z"/>
		<path fill="#161616" d="M522.937,96.738c0,0.953-0.674,1.725-1.505,1.725h-10.037c-0.832,0-1.505-0.771-1.505-1.725v-8.042
			c0-0.953,0.673-1.725,1.505-1.725h10.037c0.831,0,1.505,0.771,1.505,1.725V96.738z"/>
		<path fill="#161616" d="M540.13,96.738c0,0.953-0.674,1.725-1.506,1.725h-10.036c-0.832,0-1.507-0.771-1.507-1.725v-8.042
			c0-0.953,0.675-1.725,1.507-1.725h10.036c0.832,0,1.506,0.771,1.506,1.725V96.738z"/>
		<path fill="#161616" d="M557.321,96.738c0,0.953-0.673,1.725-1.505,1.725h-10.037c-0.831,0-1.504-0.771-1.504-1.725v-8.042
			c0-0.953,0.673-1.725,1.504-1.725h10.037c0.832,0,1.505,0.771,1.505,1.725V96.738z"/>
		<path fill="#161616" d="M574.515,96.738c0,0.953-0.673,1.725-1.505,1.725h-10.036c-0.831,0-1.506-0.771-1.506-1.725v-8.042
			c0-0.953,0.675-1.725,1.506-1.725h10.036c0.832,0,1.505,0.771,1.505,1.725V96.738z"/>
		<path fill="#161616" d="M591.708,96.738c0,0.953-0.673,1.725-1.505,1.725h-10.037c-0.831,0-1.504-0.771-1.504-1.725v-8.042
			c0-0.953,0.673-1.725,1.504-1.725h10.037c0.832,0,1.505,0.771,1.505,1.725V96.738z"/>
		<path fill="#161616" d="M608.9,96.738c0,0.953-0.673,1.725-1.506,1.725h-10.035c-0.832,0-1.507-0.771-1.507-1.725v-8.042
			c0-0.953,0.675-1.725,1.507-1.725h10.035c0.833,0,1.506,0.771,1.506,1.725V96.738z"/>
		<rect x="325.683" y="100.761" fill="#070707" width="305.454" height="15.397"/>
		<rect x="351.011" y="102.293" fill="#3F3F3F" width="234.174" height="11.951"/>
		<rect x="358.226" y="103.748" fill="#333333" stroke="#232323" stroke-miterlimit="10" width="194.646" height="8.964"/>
		<rect x="585.185" y="102.293" fill="#7C534E" width="20.264" height="11.951"/>
		<ellipse fill="#5B5B5B" stroke="#000000" stroke-miterlimit="10" cx="621.644" cy="75.48" rx="3.837" ry="3.83"/>
		<ellipse fill="#5B5B5B" stroke="#000000" stroke-miterlimit="10" cx="621.644" cy="91.108" rx="3.837" ry="3.831"/>
	</g>
	<g>
		<rect x="639.695" y="63.07" fill="#3F3F3F" width="310.391" height="56.076"/>
		<path fill="#161616" d="M665.023,78.66c0,0.952-0.674,1.724-1.506,1.724H653.48c-0.831,0-1.506-0.771-1.506-1.724v-8.044
			c0-0.951,0.675-1.723,1.506-1.723h10.037c0.832,0,1.506,0.771,1.506,1.723V78.66z"/>
		<path fill="#161616" d="M682.216,78.66c0,0.952-0.675,1.724-1.505,1.724h-10.038c-0.83,0-1.505-0.771-1.505-1.724v-8.044
			c0-0.951,0.675-1.723,1.505-1.723h10.038c0.83,0,1.505,0.771,1.505,1.723V78.66z"/>
		<path fill="#161616" d="M699.408,78.66c0,0.952-0.674,1.724-1.506,1.724h-10.036c-0.831,0-1.507-0.771-1.507-1.724v-8.044
			c0-0.951,0.676-1.723,1.507-1.723h10.036c0.832,0,1.506,0.771,1.506,1.723V78.66z"/>
		<path fill="#161616" d="M716.602,78.66c0,0.952-0.676,1.724-1.505,1.724h-10.038c-0.831,0-1.505-0.771-1.505-1.724v-8.044
			c0-0.951,0.674-1.723,1.505-1.723h10.038c0.829,0,1.505,0.771,1.505,1.723V78.66z"/>
		<path fill="#161616" d="M733.793,78.66c0,0.952-0.673,1.724-1.505,1.724h-10.037c-0.831,0-1.506-0.771-1.506-1.724v-8.044
			c0-0.951,0.675-1.723,1.506-1.723h10.037c0.832,0,1.505,0.771,1.505,1.723V78.66z"/>
		<path fill="#161616" d="M750.986,78.66c0,0.952-0.675,1.724-1.506,1.724h-10.036c-0.832,0-1.506-0.771-1.506-1.724v-8.044
			c0-0.951,0.674-1.723,1.506-1.723h10.036c0.831,0,1.506,0.771,1.506,1.723V78.66z"/>
		<path fill="#161616" d="M768.18,78.66c0,0.952-0.675,1.724-1.507,1.724h-10.037c-0.83,0-1.505-0.771-1.505-1.724v-8.044
			c0-0.951,0.675-1.723,1.505-1.723h10.037c0.832,0,1.507,0.771,1.507,1.723V78.66z"/>
		<path fill="#161616" d="M785.372,78.66c0,0.952-0.675,1.724-1.507,1.724H773.83c-0.833,0-1.507-0.771-1.507-1.724v-8.044
			c0-0.951,0.674-1.723,1.507-1.723h10.035c0.832,0,1.507,0.771,1.507,1.723V78.66z"/>
		<path fill="#161616" d="M802.564,78.66c0,0.952-0.675,1.724-1.506,1.724h-10.037c-0.83,0-1.505-0.771-1.505-1.724v-8.044
			c0-0.951,0.675-1.723,1.505-1.723h10.037c0.831,0,1.506,0.771,1.506,1.723V78.66z"/>
		<path fill="#161616" d="M819.757,78.66c0,0.952-0.674,1.724-1.506,1.724h-10.035c-0.834,0-1.507-0.771-1.507-1.724v-8.044
			c0-0.951,0.673-1.723,1.507-1.723h10.035c0.832,0,1.506,0.771,1.506,1.723V78.66z"/>
		<path fill="#161616" d="M836.949,78.66c0,0.952-0.675,1.724-1.506,1.724h-10.037c-0.83,0-1.504-0.771-1.504-1.724v-8.044
			c0-0.951,0.674-1.723,1.504-1.723h10.037c0.831,0,1.506,0.771,1.506,1.723V78.66z"/>
		<path fill="#161616" d="M854.143,78.66c0,0.952-0.674,1.724-1.506,1.724H842.6c-0.832,0-1.506-0.771-1.506-1.724v-8.044
			c0-0.951,0.674-1.723,1.506-1.723h10.037c0.832,0,1.506,0.771,1.506,1.723V78.66z"/>
		<path fill="#161616" d="M871.334,78.66c0,0.952-0.673,1.724-1.506,1.724h-10.035c-0.832,0-1.506-0.771-1.506-1.724v-8.044
			c0-0.951,0.674-1.723,1.506-1.723h10.035c0.833,0,1.506,0.771,1.506,1.723V78.66z"/>
		<path fill="#161616" d="M888.528,78.66c0,0.952-0.675,1.724-1.506,1.724h-10.038c-0.829,0-1.505-0.771-1.505-1.724v-8.044
			c0-0.951,0.676-1.723,1.505-1.723h10.038c0.831,0,1.506,0.771,1.506,1.723V78.66z"/>
		<path fill="#161616" d="M905.719,78.66c0,0.952-0.672,1.724-1.504,1.724h-10.036c-0.832,0-1.506-0.771-1.506-1.724v-8.044
			c0-0.951,0.674-1.723,1.506-1.723h10.036c0.832,0,1.504,0.771,1.504,1.723V78.66z"/>
		<path fill="#161616" d="M922.913,78.66c0,0.952-0.675,1.724-1.506,1.724h-10.036c-0.832,0-1.507-0.771-1.507-1.724v-8.044
			c0-0.951,0.675-1.723,1.507-1.723h10.036c0.831,0,1.506,0.771,1.506,1.723V78.66z"/>
		<path fill="#161616" d="M665.023,96.738c0,0.953-0.674,1.725-1.506,1.725H653.48c-0.831,0-1.506-0.771-1.506-1.725v-8.042
			c0-0.953,0.675-1.725,1.506-1.725h10.037c0.832,0,1.506,0.771,1.506,1.725V96.738z"/>
		<path fill="#161616" d="M682.216,96.738c0,0.953-0.675,1.725-1.505,1.725h-10.038c-0.83,0-1.505-0.771-1.505-1.725v-8.042
			c0-0.953,0.675-1.725,1.505-1.725h10.038c0.83,0,1.505,0.771,1.505,1.725V96.738z"/>
		<path fill="#161616" d="M699.408,96.738c0,0.953-0.674,1.725-1.506,1.725h-10.036c-0.831,0-1.507-0.771-1.507-1.725v-8.042
			c0-0.953,0.676-1.725,1.507-1.725h10.036c0.832,0,1.506,0.771,1.506,1.725V96.738z"/>
		<path fill="#161616" d="M716.602,96.738c0,0.953-0.676,1.725-1.505,1.725h-10.038c-0.831,0-1.505-0.771-1.505-1.725v-8.042
			c0-0.953,0.674-1.725,1.505-1.725h10.038c0.829,0,1.505,0.771,1.505,1.725V96.738z"/>
		<path fill="#161616" d="M733.793,96.738c0,0.953-0.673,1.725-1.505,1.725h-10.037c-0.831,0-1.506-0.771-1.506-1.725v-8.042
			c0-0.953,0.675-1.725,1.506-1.725h10.037c0.832,0,1.505,0.771,1.505,1.725V96.738z"/>
		<path fill="#161616" d="M750.986,96.738c0,0.953-0.675,1.725-1.506,1.725h-10.036c-0.832,0-1.506-0.771-1.506-1.725v-8.042
			c0-0.953,0.674-1.725,1.506-1.725h10.036c0.831,0,1.506,0.771,1.506,1.725V96.738z"/>
		<path fill="#161616" d="M768.18,96.738c0,0.953-0.675,1.725-1.507,1.725h-10.037c-0.83,0-1.505-0.771-1.505-1.725v-8.042
			c0-0.953,0.675-1.725,1.505-1.725h10.037c0.832,0,1.507,0.771,1.507,1.725V96.738z"/>
		<path fill="#161616" d="M785.372,96.738c0,0.953-0.675,1.725-1.507,1.725H773.83c-0.833,0-1.507-0.771-1.507-1.725v-8.042
			c0-0.953,0.674-1.725,1.507-1.725h10.035c0.832,0,1.507,0.771,1.507,1.725V96.738z"/>
		<path fill="#161616" d="M802.564,96.738c0,0.953-0.675,1.725-1.506,1.725h-10.037c-0.83,0-1.505-0.771-1.505-1.725v-8.042
			c0-0.953,0.675-1.725,1.505-1.725h10.037c0.831,0,1.506,0.771,1.506,1.725V96.738z"/>
		<path fill="#161616" d="M819.757,96.738c0,0.953-0.674,1.725-1.506,1.725h-10.035c-0.834,0-1.507-0.771-1.507-1.725v-8.042
			c0-0.953,0.673-1.725,1.507-1.725h10.035c0.832,0,1.506,0.771,1.506,1.725V96.738z"/>
		<path fill="#161616" d="M836.949,96.738c0,0.953-0.675,1.725-1.506,1.725h-10.037c-0.83,0-1.504-0.771-1.504-1.725v-8.042
			c0-0.953,0.674-1.725,1.504-1.725h10.037c0.831,0,1.506,0.771,1.506,1.725V96.738z"/>
		<path fill="#161616" d="M854.143,96.738c0,0.953-0.674,1.725-1.506,1.725H842.6c-0.832,0-1.506-0.771-1.506-1.725v-8.042
			c0-0.953,0.674-1.725,1.506-1.725h10.037c0.832,0,1.506,0.771,1.506,1.725V96.738z"/>
		<path fill="#161616" d="M871.334,96.738c0,0.953-0.673,1.725-1.506,1.725h-10.035c-0.832,0-1.506-0.771-1.506-1.725v-8.042
			c0-0.953,0.674-1.725,1.506-1.725h10.035c0.833,0,1.506,0.771,1.506,1.725V96.738z"/>
		<path fill="#161616" d="M888.528,96.738c0,0.953-0.675,1.725-1.506,1.725h-10.038c-0.829,0-1.505-0.771-1.505-1.725v-8.042
			c0-0.953,0.676-1.725,1.505-1.725h10.038c0.831,0,1.506,0.771,1.506,1.725V96.738z"/>
		<path fill="#161616" d="M905.719,96.738c0,0.953-0.672,1.725-1.504,1.725h-10.036c-0.832,0-1.506-0.771-1.506-1.725v-8.042
			c0-0.953,0.674-1.725,1.506-1.725h10.036c0.832,0,1.504,0.771,1.504,1.725V96.738z"/>
		<path fill="#161616" d="M922.913,96.738c0,0.953-0.675,1.725-1.506,1.725h-10.036c-0.832,0-1.507-0.771-1.507-1.725v-8.042
			c0-0.953,0.675-1.725,1.507-1.725h10.036c0.831,0,1.506,0.771,1.506,1.725V96.738z"/>
		<rect x="639.695" y="100.761" fill="#070707" width="305.454" height="15.397"/>
		<rect x="665.023" y="102.293" fill="#3F3F3F" width="234.174" height="11.951"/>
		<rect x="672.238" y="103.748" fill="#333333" stroke="#232323" stroke-miterlimit="10" width="194.646" height="8.964"/>
		<rect x="899.197" y="102.293" fill="#7C534E" width="20.264" height="11.951"/>
		<ellipse fill="#5B5B5B" stroke="#000000" stroke-miterlimit="10" cx="935.657" cy="75.48" rx="3.837" ry="3.83"/>
		<ellipse fill="#5B5B5B" stroke="#000000" stroke-miterlimit="10" cx="935.657" cy="91.108" rx="3.837" ry="3.831"/>
	</g>
	<g>
		<rect x="955.059" y="63.07" fill="#3F3F3F" width="311.73" height="56.076"/>
		<path fill="#161616" d="M980.498,78.66c0,0.952-0.679,1.724-1.515,1.724h-10.079c-0.835,0-1.511-0.771-1.511-1.724v-8.044
			c0-0.951,0.676-1.723,1.511-1.723h10.079c0.836,0,1.515,0.771,1.515,1.723V78.66z"/>
		<path fill="#161616" d="M997.764,78.66c0,0.952-0.677,1.724-1.512,1.724h-10.081c-0.836,0-1.512-0.771-1.512-1.724v-8.044
			c0-0.951,0.676-1.723,1.512-1.723h10.081c0.835,0,1.512,0.771,1.512,1.723V78.66z"/>
		<path fill="#161616" d="M1015.03,78.66c0,0.952-0.677,1.724-1.514,1.724h-10.079c-0.835,0-1.51-0.771-1.51-1.724v-8.044
			c0-0.951,0.675-1.723,1.51-1.723h10.079c0.837,0,1.514,0.771,1.514,1.723V78.66z"/>
		<path fill="#161616" d="M1032.297,78.66c0,0.952-0.676,1.724-1.512,1.724h-10.08c-0.836,0-1.513-0.771-1.513-1.724v-8.044
			c0-0.951,0.677-1.723,1.513-1.723h10.08c0.836,0,1.512,0.771,1.512,1.723V78.66z"/>
		<path fill="#161616" d="M1049.563,78.66c0,0.952-0.677,1.724-1.514,1.724h-10.078c-0.836,0-1.512-0.771-1.512-1.724v-8.044
			c0-0.951,0.676-1.723,1.512-1.723h10.078c0.837,0,1.514,0.771,1.514,1.723V78.66z"/>
		<path fill="#161616" d="M1066.83,78.66c0,0.952-0.676,1.724-1.512,1.724h-10.078c-0.836,0-1.514-0.771-1.514-1.724v-8.044
			c0-0.951,0.678-1.723,1.514-1.723h10.078c0.836,0,1.512,0.771,1.512,1.723V78.66z"/>
		<path fill="#161616" d="M1084.096,78.66c0,0.952-0.676,1.724-1.51,1.724h-10.08c-0.834,0-1.513-0.771-1.513-1.724v-8.044
			c0-0.951,0.679-1.723,1.513-1.723h10.08c0.834,0,1.51,0.771,1.51,1.723V78.66z"/>
		<path fill="#161616" d="M1101.365,78.66c0,0.952-0.679,1.724-1.514,1.724h-10.08c-0.835,0-1.512-0.771-1.512-1.724v-8.044
			c0-0.951,0.677-1.723,1.512-1.723h10.08c0.835,0,1.514,0.771,1.514,1.723V78.66z"/>
		<path fill="#161616" d="M1118.632,78.66c0,0.952-0.679,1.724-1.512,1.724h-10.081c-0.833,0-1.513-0.771-1.513-1.724v-8.044
			c0-0.951,0.68-1.723,1.513-1.723h10.081c0.833,0,1.512,0.771,1.512,1.723V78.66z"/>
		<path fill="#161616" d="M1135.898,78.66c0,0.952-0.677,1.724-1.514,1.724h-10.077c-0.838,0-1.515-0.771-1.515-1.724v-8.044
			c0-0.951,0.677-1.723,1.515-1.723h10.077c0.837,0,1.514,0.771,1.514,1.723V78.66z"/>
		<path fill="#161616" d="M1153.165,78.66c0,0.952-0.679,1.724-1.512,1.724h-10.081c-0.835,0-1.512-0.771-1.512-1.724v-8.044
			c0-0.951,0.677-1.723,1.512-1.723h10.081c0.833,0,1.512,0.771,1.512,1.723V78.66z"/>
		<path fill="#161616" d="M1170.434,78.66c0,0.952-0.679,1.724-1.515,1.724h-10.078c-0.837,0-1.514-0.771-1.514-1.724v-8.044
			c0-0.951,0.677-1.723,1.514-1.723h10.078c0.836,0,1.515,0.771,1.515,1.723V78.66z"/>
		<path fill="#161616" d="M1187.698,78.66c0,0.952-0.676,1.724-1.512,1.724h-10.08c-0.834,0-1.512-0.771-1.512-1.724v-8.044
			c0-0.951,0.678-1.723,1.512-1.723h10.08c0.836,0,1.512,0.771,1.512,1.723V78.66z"/>
		<path fill="#161616" d="M1204.965,78.66c0,0.952-0.677,1.724-1.512,1.724h-10.079c-0.835,0-1.514-0.771-1.514-1.724v-8.044
			c0-0.951,0.679-1.723,1.514-1.723h10.079c0.835,0,1.512,0.771,1.512,1.723V78.66z"/>
		<path fill="#161616" d="M1222.231,78.66c0,0.952-0.676,1.724-1.512,1.724h-10.08c-0.834,0-1.512-0.771-1.512-1.724v-8.044
			c0-0.951,0.678-1.723,1.512-1.723h10.08c0.836,0,1.512,0.771,1.512,1.723V78.66z"/>
		<path fill="#161616" d="M1239.5,78.66c0,0.952-0.678,1.724-1.514,1.724h-10.08c-0.834,0-1.512-0.771-1.512-1.724v-8.044
			c0-0.951,0.678-1.723,1.512-1.723h10.08c0.836,0,1.514,0.771,1.514,1.723V78.66z"/>
		<path fill="#161616" d="M980.498,96.738c0,0.953-0.679,1.725-1.515,1.725h-10.079c-0.835,0-1.511-0.771-1.511-1.725v-8.042
			c0-0.953,0.676-1.725,1.511-1.725h10.079c0.836,0,1.515,0.771,1.515,1.725V96.738z"/>
		<path fill="#161616" d="M997.764,96.738c0,0.953-0.677,1.725-1.512,1.725h-10.081c-0.836,0-1.512-0.771-1.512-1.725v-8.042
			c0-0.953,0.676-1.725,1.512-1.725h10.081c0.835,0,1.512,0.771,1.512,1.725V96.738z"/>
		<path fill="#161616" d="M1015.03,96.738c0,0.953-0.677,1.725-1.514,1.725h-10.079c-0.835,0-1.51-0.771-1.51-1.725v-8.042
			c0-0.953,0.675-1.725,1.51-1.725h10.079c0.837,0,1.514,0.771,1.514,1.725V96.738z"/>
		<path fill="#161616" d="M1032.297,96.738c0,0.953-0.676,1.725-1.512,1.725h-10.08c-0.836,0-1.513-0.771-1.513-1.725v-8.042
			c0-0.953,0.677-1.725,1.513-1.725h10.08c0.836,0,1.512,0.771,1.512,1.725V96.738z"/>
		<path fill="#161616" d="M1049.563,96.738c0,0.953-0.677,1.725-1.514,1.725h-10.078c-0.836,0-1.512-0.771-1.512-1.725v-8.042
			c0-0.953,0.676-1.725,1.512-1.725h10.078c0.837,0,1.514,0.771,1.514,1.725V96.738z"/>
		<path fill="#161616" d="M1066.83,96.738c0,0.953-0.676,1.725-1.512,1.725h-10.078c-0.836,0-1.514-0.771-1.514-1.725v-8.042
			c0-0.953,0.678-1.725,1.514-1.725h10.078c0.836,0,1.512,0.771,1.512,1.725V96.738z"/>
		<path fill="#161616" d="M1084.096,96.738c0,0.953-0.676,1.725-1.51,1.725h-10.08c-0.834,0-1.513-0.771-1.513-1.725v-8.042
			c0-0.953,0.679-1.725,1.513-1.725h10.08c0.834,0,1.51,0.771,1.51,1.725V96.738z"/>
		<path fill="#161616" d="M1101.365,96.738c0,0.953-0.679,1.725-1.514,1.725h-10.08c-0.835,0-1.512-0.771-1.512-1.725v-8.042
			c0-0.953,0.677-1.725,1.512-1.725h10.08c0.835,0,1.514,0.771,1.514,1.725V96.738z"/>
		<path fill="#161616" d="M1118.632,96.738c0,0.953-0.679,1.725-1.512,1.725h-10.081c-0.833,0-1.513-0.771-1.513-1.725v-8.042
			c0-0.953,0.68-1.725,1.513-1.725h10.081c0.833,0,1.512,0.771,1.512,1.725V96.738z"/>
		<path fill="#161616" d="M1135.898,96.738c0,0.953-0.677,1.725-1.514,1.725h-10.077c-0.838,0-1.515-0.771-1.515-1.725v-8.042
			c0-0.953,0.677-1.725,1.515-1.725h10.077c0.837,0,1.514,0.771,1.514,1.725V96.738z"/>
		<path fill="#161616" d="M1153.165,96.738c0,0.953-0.679,1.725-1.512,1.725h-10.081c-0.835,0-1.512-0.771-1.512-1.725v-8.042
			c0-0.953,0.677-1.725,1.512-1.725h10.081c0.833,0,1.512,0.771,1.512,1.725V96.738z"/>
		<path fill="#161616" d="M1170.434,96.738c0,0.953-0.679,1.725-1.515,1.725h-10.078c-0.837,0-1.514-0.771-1.514-1.725v-8.042
			c0-0.953,0.677-1.725,1.514-1.725h10.078c0.836,0,1.515,0.771,1.515,1.725V96.738z"/>
		<path fill="#161616" d="M1187.698,96.738c0,0.953-0.676,1.725-1.512,1.725h-10.08c-0.834,0-1.512-0.771-1.512-1.725v-8.042
			c0-0.953,0.678-1.725,1.512-1.725h10.08c0.836,0,1.512,0.771,1.512,1.725V96.738z"/>
		<path fill="#161616" d="M1204.965,96.738c0,0.953-0.677,1.725-1.512,1.725h-10.079c-0.835,0-1.514-0.771-1.514-1.725v-8.042
			c0-0.953,0.679-1.725,1.514-1.725h10.079c0.835,0,1.512,0.771,1.512,1.725V96.738z"/>
		<path fill="#161616" d="M1222.231,96.738c0,0.953-0.676,1.725-1.512,1.725h-10.08c-0.834,0-1.512-0.771-1.512-1.725v-8.042
			c0-0.953,0.678-1.725,1.512-1.725h10.08c0.836,0,1.512,0.771,1.512,1.725V96.738z"/>
		<path fill="#161616" d="M1239.5,96.738c0,0.953-0.678,1.725-1.514,1.725h-10.08c-0.834,0-1.512-0.771-1.512-1.725v-8.042
			c0-0.953,0.678-1.725,1.512-1.725h10.08c0.836,0,1.514,0.771,1.514,1.725V96.738z"/>
		<rect x="955.059" y="100.761" fill="#070707" width="306.771" height="15.397"/>
		<rect x="980.498" y="102.293" fill="#3F3F3F" width="235.184" height="11.951"/>
		<rect x="987.743" y="103.748" fill="#333333" stroke="#232323" stroke-miterlimit="10" width="195.487" height="8.964"/>
		<rect x="1215.682" y="102.293" fill="#7C534E" width="20.351" height="11.951"/>
		<ellipse fill="#5B5B5B" stroke="#000000" stroke-miterlimit="10" cx="1252.298" cy="75.48" rx="3.854" ry="3.83"/>
		<ellipse fill="#5B5B5B" stroke="#000000" stroke-miterlimit="10" cx="1252.298" cy="91.108" rx="3.854" ry="3.831"/>
	</g>
	<rect x="11.238" y="10.978" fill="#3F3F3F" width="308.132" height="50.333"/>
	<path fill="#111111" d="M44.976,50.81c0,2.209-1.328,4-2.965,4H20.215c-1.638,0-2.965-1.791-2.965-4V21.477
		c0-2.208,1.328-4,2.965-4h21.796c1.637,0,2.965,1.792,2.965,4V50.81z"/>
	<path fill="#111111" d="M82.858,50.81c0,2.209-1.328,4-2.964,4H58.096c-1.637,0-2.965-1.791-2.965-4V21.477
		c0-2.208,1.328-4,2.965-4h21.797c1.637,0,2.964,1.792,2.964,4V50.81z"/>
	<path fill="#111111" d="M120.739,50.81c0,2.209-1.328,4-2.965,4H95.979c-1.638,0-2.965-1.791-2.965-4V21.477
		c0-2.208,1.327-4,2.965-4h21.796c1.637,0,2.965,1.792,2.965,4V50.81z"/>
	<path fill="#111111" d="M158.621,50.81c0,2.209-1.328,4-2.965,4h-21.795c-1.639,0-2.965-1.791-2.965-4V21.477
		c0-2.208,1.326-4,2.965-4h21.795c1.637,0,2.965,1.792,2.965,4V50.81z"/>
	<path fill="#111111" d="M196.502,50.81c0,2.209-1.329,4-2.965,4h-21.795c-1.639,0-2.965-1.791-2.965-4V21.477
		c0-2.208,1.326-4,2.965-4h21.795c1.637,0,2.965,1.792,2.965,4V50.81z"/>
	<path fill="#111111" d="M234.384,50.81c0,2.209-1.329,4-2.965,4h-21.796c-1.638,0-2.965-1.791-2.965-4V21.477
		c0-2.208,1.327-4,2.965-4h21.796c1.636,0,2.965,1.792,2.965,4V50.81z"/>
	<path fill="#111111" d="M272.266,50.81c0,2.209-1.328,4-2.965,4h-21.797c-1.636,0-2.965-1.791-2.965-4V21.477
		c0-2.208,1.329-4,2.965-4h21.797c1.637,0,2.965,1.792,2.965,4V50.81z"/>
	<path fill="#111111" d="M310.147,50.81c0,2.209-1.328,4-2.965,4h-21.796c-1.638,0-2.965-1.791-2.965-4V21.477
		c0-2.208,1.328-4,2.965-4h21.796c1.637,0,2.965,1.792,2.965,4V50.81z"/>
	<rect x="326.812" y="10.978" fill="#3F3F3F" width="308.133" height="50.333"/>
	<path fill="#111111" d="M360.55,50.81c0,2.209-1.328,4-2.964,4h-21.796c-1.638,0-2.964-1.791-2.964-4V21.477
		c0-2.208,1.326-4,2.964-4h21.796c1.637,0,2.964,1.792,2.964,4V50.81z"/>
	<path fill="#111111" d="M398.433,50.81c0,2.209-1.329,4-2.965,4H373.67c-1.637,0-2.965-1.791-2.965-4V21.477
		c0-2.208,1.328-4,2.965-4h21.797c1.637,0,2.965,1.792,2.965,4V50.81z"/>
	<path fill="#111111" d="M436.313,50.81c0,2.209-1.328,4-2.965,4h-21.796c-1.638,0-2.965-1.791-2.965-4V21.477
		c0-2.208,1.327-4,2.965-4h21.796c1.637,0,2.965,1.792,2.965,4V50.81z"/>
	<path fill="#111111" d="M474.195,50.81c0,2.209-1.328,4-2.965,4h-21.795c-1.639,0-2.965-1.791-2.965-4V21.477
		c0-2.208,1.326-4,2.965-4h21.795c1.637,0,2.965,1.792,2.965,4V50.81z"/>
	<path fill="#111111" d="M512.077,50.81c0,2.209-1.329,4-2.966,4h-21.795c-1.639,0-2.965-1.791-2.965-4V21.477
		c0-2.208,1.326-4,2.965-4h21.795c1.637,0,2.966,1.792,2.966,4V50.81z"/>
	<path fill="#111111" d="M549.958,50.81c0,2.209-1.328,4-2.965,4h-21.796c-1.638,0-2.965-1.791-2.965-4V21.477
		c0-2.208,1.328-4,2.965-4h21.796c1.637,0,2.965,1.792,2.965,4V50.81z"/>
	<path fill="#111111" d="M587.84,50.81c0,2.209-1.328,4-2.965,4h-21.797c-1.637,0-2.965-1.791-2.965-4V21.477
		c0-2.208,1.329-4,2.965-4h21.797c1.637,0,2.965,1.792,2.965,4V50.81z"/>
	<path fill="#111111" d="M625.722,50.81c0,2.209-1.328,4-2.965,4H600.96c-1.638,0-2.964-1.791-2.964-4V21.477
		c0-2.208,1.327-4,2.964-4h21.796c1.637,0,2.965,1.792,2.965,4V50.81z"/>
	<rect x="638.355" y="10.978" fill="#3F3F3F" width="311.73" height="50.333"/>
	<rect x="955.059" y="10.978" fill="#3F3F3F" width="123.299" height="50.333"/>
	<rect x="1081.666" y="10.978" fill="#3F3F3F" width="185.123" height="50.333"/>
	<path fill="#111111" d="M672.094,50.81c0,2.209-1.328,4-2.965,4h-21.796c-1.638,0-2.964-1.791-2.964-4V21.477
		c0-2.208,1.326-4,2.964-4h21.796c1.637,0,2.965,1.792,2.965,4V50.81z"/>
	<path fill="#111111" d="M709.976,50.81c0,2.209-1.328,4-2.964,4h-21.798c-1.636,0-2.964-1.791-2.964-4V21.477
		c0-2.208,1.328-4,2.964-4h21.798c1.636,0,2.964,1.792,2.964,4V50.81z"/>
	<path fill="#111111" d="M747.857,50.81c0,2.209-1.328,4-2.965,4h-21.797c-1.637,0-2.964-1.791-2.964-4V21.477
		c0-2.208,1.327-4,2.964-4h21.797c1.637,0,2.965,1.792,2.965,4V50.81z"/>
	<path fill="#111111" d="M785.738,50.81c0,2.209-1.326,4-2.964,4h-21.795c-1.639,0-2.966-1.791-2.966-4V21.477
		c0-2.208,1.327-4,2.966-4h21.795c1.638,0,2.964,1.792,2.964,4V50.81z"/>
	<path fill="#111111" d="M823.62,50.81c0,2.209-1.328,4-2.965,4H798.86c-1.639,0-2.965-1.791-2.965-4V21.477
		c0-2.208,1.326-4,2.965-4h21.795c1.637,0,2.965,1.792,2.965,4V50.81z"/>
	<path fill="#111111" d="M861.502,50.81c0,2.209-1.328,4-2.965,4h-21.796c-1.638,0-2.965-1.791-2.965-4V21.477
		c0-2.208,1.327-4,2.965-4h21.796c1.637,0,2.965,1.792,2.965,4V50.81z"/>
	<path fill="#111111" d="M899.385,50.81c0,2.209-1.328,4-2.966,4h-21.797c-1.637,0-2.965-1.791-2.965-4V21.477
		c0-2.208,1.328-4,2.965-4h21.797c1.638,0,2.966,1.792,2.966,4V50.81z"/>
	<path fill="#111111" d="M937.266,50.81c0,2.209-1.328,4-2.965,4h-21.796c-1.638,0-2.966-1.791-2.966-4V21.477
		c0-2.208,1.328-4,2.966-4h21.796c1.637,0,2.965,1.792,2.965,4V50.81z"/>
	<path fill="#111111" d="M992.092,50.81c0,2.209-1.328,4-2.965,4h-21.796c-1.638,0-2.965-1.791-2.965-4V21.477
		c0-2.208,1.327-4,2.965-4h21.796c1.637,0,2.965,1.792,2.965,4V50.81z"/>
	<path fill="#111111" d="M1029.974,50.81c0,2.209-1.327,4-2.964,4h-21.797c-1.637,0-2.965-1.791-2.965-4V21.477
		c0-2.208,1.328-4,2.965-4h21.797c1.637,0,2.964,1.792,2.964,4V50.81z"/>
	<path fill="#111111" d="M1067.855,50.81c0,2.209-1.328,4-2.965,4h-21.796c-1.638,0-2.965-1.791-2.965-4V21.477
		c0-2.208,1.327-4,2.965-4h21.796c1.637,0,2.965,1.792,2.965,4V50.81z"/>
	<circle fill="#EBFCA2" cx="1105.527" cy="50.644" r="6.187"/>
	<circle fill="#EBFCA2" cx="1126.777" cy="50.644" r="6.187"/>
	<circle fill="#EBFCA2" cx="1148.026" cy="50.644" r="6.187"/>
	<circle fill="#EBFCA2" cx="1169.277" cy="50.644" r="6.187"/>
	<circle fill="#EBFCA2" cx="1190.527" cy="50.644" r="6.187"/>
</g>
</svg>
