<?xml version="1.0" encoding="utf-8"?>
<!-- Generator: Adobe Illustrator 16.0.0, SVG Export Plug-In . SVG Version: 6.00 Build 0)  -->
<!DOCTYPE svg PUBLIC "-//W3C//DTD SVG 1.1//EN" "http://www.w3.org/Graphics/SVG/1.1/DTD/svg11.dtd">
<svg version="1.1" id="图层_1" xmlns="http://www.w3.org/2000/svg" xmlns:xlink="http://www.w3.org/1999/xlink" x="0px" y="0px"
	 width="1276px" height="379px" viewBox="0 0 1276 379" enable-background="new 0 0 1276 379" xml:space="preserve">
<polygon fill="#212121" points="0,0 0,126.333 0,252.667 0,379 1276,379 1276,252.667 1276,126.333 1276,0 "/>
<rect x="598.748" y="11.604" fill="#BFBFBF" width="638.466" height="355.793"/>
<rect x="598.748" y="11.604" fill="#9E9C94" width="638.466" height="47.615"/>
<path fill="#515151" d="M806.075,55.009c0,0.554-0.448,1.001-1.001,1.001h-40.513c-0.553,0-1.001-0.448-1.001-1.001V16.952
	c0-0.553,0.448-1.001,1.001-1.001h40.513c0.553,0,1.001,0.449,1.001,1.001V55.009z"/>
<path fill="#515151" d="M846.422,55.009c0,0.554-0.404,1.001-0.902,1.001h-36.547c-0.501,0-0.903-0.448-0.903-1.001V16.952
	c0-0.553,0.402-1.001,0.903-1.001h36.547c0.498,0,0.902,0.449,0.902,1.001V55.009z"/>
<path fill="#515151" d="M895.104,55.009c0,0.554-0.404,1.001-0.902,1.001h-36.547c-0.501,0-0.903-0.448-0.903-1.001V16.952
	c0-0.553,0.402-1.001,0.903-1.001h36.547c0.498,0,0.902,0.449,0.902,1.001V55.009z"/>
<path fill="#515151" d="M1027.813,55.009c0,0.554-1.273,1.001-2.847,1.001H909.669c-1.575,0-2.847-0.448-2.847-1.001V16.952
	c0-0.553,1.271-1.001,2.847-1.001h115.297c1.573,0,2.847,0.449,2.847,1.001V55.009z"/>
<rect x="3.056" y="11.604" fill="#BFBFBF" width="563.942" height="355.793"/>
<polygon fill="#2D2D2D" points="652.283,154.096 646.693,144.404 652.283,134.712 663.456,134.712 669.05,144.404 663.456,154.096 
	"/>
<polygon fill="#2D2D2D" points="652.283,178.53 646.693,168.839 652.283,159.146 663.456,159.146 669.05,168.839 663.456,178.53 "/>
<polygon fill="#2D2D2D" points="652.283,202.963 646.693,193.272 652.283,183.581 663.456,183.581 669.05,193.272 663.456,202.963 
	"/>
<polygon fill="#2D2D2D" points="652.283,227.396 646.693,217.704 652.283,208.014 663.456,208.014 669.05,217.704 663.456,227.396 
	"/>
<polygon fill="#2D2D2D" points="652.283,251.83 646.693,242.138 652.283,232.449 663.456,232.449 669.05,242.138 663.456,251.83 "/>
<polygon fill="#2D2D2D" points="652.283,276.266 646.693,266.575 652.283,256.883 663.456,256.883 669.05,266.575 663.456,276.266 
	"/>
<polygon fill="#2D2D2D" points="857.98,154.096 852.391,144.404 857.98,134.712 869.157,134.712 874.747,144.404 869.157,154.096 
	"/>
<polygon fill="#2D2D2D" points="857.98,178.53 852.391,168.839 857.98,159.146 869.157,159.146 874.747,168.839 869.157,178.53 "/>
<polygon fill="#2D2D2D" points="857.98,202.963 852.391,193.272 857.98,183.581 869.157,183.581 874.747,193.272 869.157,202.963 
	"/>
<polygon fill="#2D2D2D" points="857.98,227.396 852.391,217.704 857.98,208.014 869.157,208.014 874.747,217.704 869.157,227.396 
	"/>
<polygon fill="#2D2D2D" points="857.98,251.83 852.391,242.138 857.98,232.449 869.157,232.449 874.747,242.138 869.157,251.83 "/>
<polygon fill="#2D2D2D" points="857.98,276.266 852.391,266.575 857.98,256.883 869.157,256.883 874.747,266.575 869.157,276.266 
	"/>
<polygon fill="#2D2D2D" points="672.619,142.585 667.026,132.894 672.619,123.201 683.795,123.201 689.383,132.894 683.795,142.585 
	"/>
<polygon fill="#2D2D2D" points="672.619,167.018 667.026,157.327 672.619,147.637 683.795,147.637 689.383,157.327 683.795,167.018 
	"/>
<polygon fill="#2D2D2D" points="672.619,191.453 667.026,181.761 672.619,172.073 683.795,172.073 689.383,181.761 683.795,191.453 
	"/>
<polygon fill="#2D2D2D" points="672.619,215.885 667.026,206.196 672.619,196.504 683.795,196.504 689.383,206.196 683.795,215.885 
	"/>
<polygon fill="#2D2D2D" points="672.619,240.32 667.026,230.63 672.619,220.938 683.795,220.938 689.383,230.63 683.795,240.32 "/>
<polygon fill="#2D2D2D" points="672.619,264.754 667.026,255.063 672.619,245.371 683.795,245.371 689.383,255.063 683.795,264.754 
	"/>
<polygon fill="#2D2D2D" points="672.619,288.177 667.026,278.484 672.619,268.793 683.795,268.793 689.383,278.484 683.795,288.177 
	"/>
<polygon fill="#2D2D2D" points="693.218,154.957 687.628,145.265 693.218,135.572 704.394,135.572 709.983,145.265 704.394,154.957 
	"/>
<polygon fill="#2D2D2D" points="693.218,131.712 687.628,122.02 693.218,112.329 704.394,112.329 709.983,122.02 704.394,131.712 
	"/>
<polygon fill="#2D2D2D" points="693.218,179.391 687.628,169.698 693.218,160.007 704.394,160.007 709.983,169.698 704.394,179.391 
	"/>
<polygon fill="#2D2D2D" points="693.218,203.823 687.628,194.131 693.218,184.443 704.394,184.443 709.983,194.131 704.394,203.823 
	"/>
<polygon fill="#2D2D2D" points="693.218,228.257 687.628,218.564 693.218,208.874 704.394,208.874 709.983,218.564 704.394,228.257 
	"/>
<polygon fill="#2D2D2D" points="693.218,252.69 687.628,242.998 693.218,233.31 704.394,233.31 709.983,242.998 704.394,252.69 "/>
<polygon fill="#2D2D2D" points="693.218,277.126 687.628,267.434 693.218,257.743 704.394,257.743 709.983,267.434 704.394,277.126 
	"/>
<polygon fill="#2D2D2D" points="693.218,300.547 687.628,290.854 693.218,281.164 704.394,281.164 709.983,290.854 704.394,300.547 
	"/>
<polygon fill="#2D2D2D" points="713.91,166.402 708.318,156.711 713.91,147.02 725.084,147.02 730.674,156.711 725.084,166.402 "/>
<polygon fill="#2D2D2D" points="713.91,143.157 708.318,133.466 713.91,123.775 725.084,123.775 730.674,133.466 725.084,143.157 
	"/>
<polygon fill="#2D2D2D" points="713.91,119.868 708.318,110.175 713.91,100.485 725.084,100.485 730.674,110.175 725.084,119.868 
	"/>
<polygon fill="#2D2D2D" points="713.91,190.837 708.318,181.145 713.91,171.455 725.084,171.455 730.674,181.145 725.084,190.837 
	"/>
<polygon fill="#2D2D2D" points="713.91,215.271 708.318,205.578 713.91,195.888 725.084,195.888 730.674,205.578 725.084,215.271 
	"/>
<polygon fill="#2D2D2D" points="713.91,239.702 708.318,230.012 713.91,220.321 725.084,220.321 730.674,230.012 725.084,239.702 
	"/>
<polygon fill="#2D2D2D" points="713.91,264.138 708.318,254.445 713.91,244.755 725.084,244.755 730.674,254.445 725.084,264.138 
	"/>
<polygon fill="#2D2D2D" points="713.91,288.571 708.318,278.881 713.91,269.188 725.084,269.188 730.674,278.881 725.084,288.571 
	"/>
<polygon fill="#2D2D2D" points="713.91,311.992 708.318,302.302 713.91,292.609 725.084,292.609 730.674,302.302 725.084,311.992 
	"/>
<polygon fill="#2D2D2D" points="734.194,154.957 728.604,145.265 734.194,135.572 745.365,135.572 750.959,145.265 745.365,154.957 
	"/>
<polygon fill="#2D2D2D" points="734.194,131.712 728.604,122.02 734.194,112.329 745.365,112.329 750.959,122.02 745.365,131.712 
	"/>
<polygon fill="#2D2D2D" points="734.194,179.391 728.604,169.698 734.194,160.007 745.365,160.007 750.959,169.698 745.365,179.391 
	"/>
<polygon fill="#2D2D2D" points="734.194,252.69 728.604,242.998 734.194,233.31 745.365,233.31 750.959,242.998 745.365,252.69 "/>
<polygon fill="#2D2D2D" points="734.194,277.126 728.604,267.434 734.194,257.743 745.365,257.743 750.959,267.434 745.365,277.126 
	"/>
<polygon fill="#2D2D2D" points="734.194,300.547 728.604,290.854 734.194,281.164 745.365,281.164 750.959,290.854 745.365,300.547 
	"/>
<polygon fill="#2D2D2D" points="837.075,166.402 831.485,156.711 837.075,147.02 848.248,147.02 853.84,156.711 848.248,166.402 "/>
<polygon fill="#2D2D2D" points="837.075,143.157 831.485,133.466 837.075,123.775 848.248,123.775 853.84,133.466 848.248,143.157 
	"/>
<polygon fill="#2D2D2D" points="837.075,190.837 831.485,181.145 837.075,171.455 848.248,171.455 853.84,181.145 848.248,190.837 
	"/>
<polygon fill="#2D2D2D" points="837.075,215.271 831.485,205.578 837.075,195.888 848.248,195.888 853.84,205.578 848.248,215.271 
	"/>
<polygon fill="#2D2D2D" points="837.075,239.702 831.485,230.012 837.075,220.321 848.248,220.321 853.84,230.012 848.248,239.702 
	"/>
<polygon fill="#2D2D2D" points="837.075,264.138 831.485,254.445 837.075,244.755 848.248,244.755 853.84,254.445 848.248,264.138 
	"/>
<polygon fill="#2D2D2D" points="837.075,288.571 831.485,278.881 837.075,269.188 848.248,269.188 853.84,278.881 848.248,288.571 
	"/>
<polygon fill="#2D2D2D" points="754.887,166.402 749.295,156.711 754.887,147.02 766.06,147.02 771.649,156.711 766.06,166.402 "/>
<polygon fill="#2D2D2D" points="754.887,143.157 749.295,133.466 754.887,123.775 766.06,123.775 771.649,133.466 766.06,143.157 
	"/>
<polygon fill="#2D2D2D" points="754.887,119.868 749.295,110.175 754.887,100.485 766.06,100.485 771.649,110.175 766.06,119.868 
	"/>
<polygon fill="#2D2D2D" points="754.887,264.138 749.295,254.445 754.887,244.755 766.06,244.755 771.649,254.445 766.06,264.138 
	"/>
<polygon fill="#2D2D2D" points="754.887,288.571 749.295,278.881 754.887,269.188 766.06,269.188 771.649,278.881 766.06,288.571 
	"/>
<polygon fill="#2D2D2D" points="754.887,311.992 749.295,302.302 754.887,292.609 766.06,292.609 771.649,302.302 766.06,311.992 
	"/>
<polygon fill="#2D2D2D" points="775.956,154.957 770.362,145.265 775.956,135.572 787.129,135.572 792.719,145.265 787.129,154.957 
	"/>
<polygon fill="#2D2D2D" points="775.956,131.712 770.362,122.02 775.956,112.329 787.129,112.329 792.719,122.02 787.129,131.712 
	"/>
<polygon fill="#2D2D2D" points="775.956,179.391 770.362,169.698 775.956,160.007 787.129,160.007 792.719,169.698 787.129,179.391 
	"/>
<polygon fill="#2D2D2D" points="775.956,252.69 770.362,242.998 775.956,233.31 787.129,233.31 792.719,242.998 787.129,252.69 "/>
<polygon fill="#2D2D2D" points="775.956,277.126 770.362,267.434 775.956,257.743 787.129,257.743 792.719,267.434 787.129,277.126 
	"/>
<polygon fill="#2D2D2D" points="775.956,300.547 770.362,290.854 775.956,281.164 787.129,281.164 792.719,290.854 787.129,300.547 
	"/>
<polygon fill="#2D2D2D" points="816.943,154.957 811.352,145.265 816.943,135.572 828.115,135.572 833.709,145.265 828.115,154.957 
	"/>
<polygon fill="#2D2D2D" points="816.943,131.712 811.352,122.02 816.943,112.329 828.115,112.329 833.709,122.02 828.115,131.712 
	"/>
<polygon fill="#2D2D2D" points="816.943,179.391 811.352,169.698 816.943,160.007 828.115,160.007 833.709,169.698 828.115,179.391 
	"/>
<polygon fill="#2D2D2D" points="816.943,203.823 811.352,194.131 816.943,184.443 828.115,184.443 833.709,194.131 828.115,203.823 
	"/>
<polygon fill="#2D2D2D" points="816.943,228.257 811.352,218.564 816.943,208.874 828.115,208.874 833.709,218.564 828.115,228.257 
	"/>
<polygon fill="#2D2D2D" points="816.943,252.69 811.352,242.998 816.943,233.31 828.115,233.31 833.709,242.998 828.115,252.69 "/>
<polygon fill="#2D2D2D" points="816.943,277.126 811.352,267.434 816.943,257.743 828.115,257.743 833.709,267.434 828.115,277.126 
	"/>
<polygon fill="#2D2D2D" points="816.943,300.547 811.352,290.854 816.943,281.164 828.115,281.164 833.709,290.854 828.115,300.547 
	"/>
<polygon fill="#2D2D2D" points="796.647,166.402 791.055,156.711 796.647,147.02 807.819,147.02 813.411,156.711 807.819,166.402 
	"/>
<polygon fill="#2D2D2D" points="796.647,143.157 791.055,133.466 796.647,123.775 807.819,123.775 813.411,133.466 807.819,143.157 
	"/>
<polygon fill="#2D2D2D" points="796.647,119.868 791.055,110.175 796.647,100.485 807.819,100.485 813.411,110.175 807.819,119.868 
	"/>
<polygon fill="#2D2D2D" points="796.647,190.837 791.055,181.145 796.647,171.455 807.819,171.455 813.411,181.145 807.819,190.837 
	"/>
<polygon fill="#2D2D2D" points="796.647,215.271 791.055,205.578 796.647,195.888 807.819,195.888 813.411,205.578 807.819,215.271 
	"/>
<polygon fill="#2D2D2D" points="796.647,239.702 791.055,230.012 796.647,220.321 807.819,220.321 813.411,230.012 807.819,239.702 
	"/>
<polygon fill="#2D2D2D" points="796.647,264.138 791.055,254.445 796.647,244.755 807.819,244.755 813.411,254.445 807.819,264.138 
	"/>
<polygon fill="#2D2D2D" points="796.647,288.571 791.055,278.881 796.647,269.188 807.819,269.188 813.411,278.881 807.819,288.571 
	"/>
<polygon fill="#2D2D2D" points="796.647,311.992 791.055,302.302 796.647,292.609 807.819,292.609 813.411,302.302 807.819,311.992 
	"/>
<path fill="#2D2D2D" d="M645.803,110.175c0-6.027,4.882-10.911,10.899-10.911c6.02,0,10.904,4.884,10.904,10.911
	s-4.885,10.914-10.904,10.914C650.685,121.089,645.803,116.202,645.803,110.175z"/>
<ellipse fill="#2D2D2D" cx="863.57" cy="110.175" rx="10.9" ry="10.911"/>
<path fill="#2D2D2D" d="M645.803,300.547c0-6.027,4.882-10.913,10.899-10.913c6.02,0,10.904,4.886,10.904,10.913
	c0,6.026-4.885,10.911-10.904,10.911C650.685,311.458,645.803,306.573,645.803,300.547z"/>
<ellipse fill="#2D2D2D" cx="863.57" cy="300.547" rx="10.9" ry="10.913"/>
<polygon fill="#2D2D2D" points="981.38,154.096 975.79,144.404 981.38,134.712 992.553,134.712 998.146,144.404 992.553,154.096 "/>
<polygon fill="#2D2D2D" points="981.38,178.53 975.79,168.839 981.38,159.146 992.553,159.146 998.146,168.839 992.553,178.53 "/>
<polygon fill="#2D2D2D" points="981.38,202.963 975.79,193.272 981.38,183.581 992.553,183.581 998.146,193.272 992.553,202.963 "/>
<polygon fill="#2D2D2D" points="981.38,227.396 975.79,217.704 981.38,208.014 992.553,208.014 998.146,217.704 992.553,227.396 "/>
<polygon fill="#2D2D2D" points="981.38,251.83 975.79,242.138 981.38,232.449 992.553,232.449 998.146,242.138 992.553,251.83 "/>
<polygon fill="#2D2D2D" points="981.38,276.266 975.79,266.575 981.38,256.883 992.553,256.883 998.146,266.575 992.553,276.266 "/>
<polygon fill="#2D2D2D" points="1187.077,154.096 1181.487,144.404 1187.077,134.712 1198.254,134.712 1203.844,144.404 
	1198.254,154.096 "/>
<polygon fill="#2D2D2D" points="1187.077,178.53 1181.487,168.839 1187.077,159.146 1198.254,159.146 1203.844,168.839 
	1198.254,178.53 "/>
<polygon fill="#2D2D2D" points="1187.077,202.963 1181.487,193.272 1187.077,183.581 1198.254,183.581 1203.844,193.272 
	1198.254,202.963 "/>
<polygon fill="#2D2D2D" points="1187.077,227.396 1181.487,217.704 1187.077,208.014 1198.254,208.014 1203.844,217.704 
	1198.254,227.396 "/>
<polygon fill="#2D2D2D" points="1187.077,251.83 1181.487,242.138 1187.077,232.449 1198.254,232.449 1203.844,242.138 
	1198.254,251.83 "/>
<polygon fill="#2D2D2D" points="1187.077,276.266 1181.487,266.575 1187.077,256.883 1198.254,256.883 1203.844,266.575 
	1198.254,276.266 "/>
<polygon fill="#2D2D2D" points="1001.716,142.585 996.122,132.894 1001.716,123.201 1012.892,123.201 1018.479,132.894 
	1012.892,142.585 "/>
<polygon fill="#2D2D2D" points="1001.716,167.018 996.122,157.327 1001.716,147.637 1012.892,147.637 1018.479,157.327 
	1012.892,167.018 "/>
<polygon fill="#2D2D2D" points="1001.716,191.453 996.122,181.761 1001.716,172.073 1012.892,172.073 1018.479,181.761 
	1012.892,191.453 "/>
<polygon fill="#2D2D2D" points="1001.716,215.885 996.122,206.196 1001.716,196.504 1012.892,196.504 1018.479,206.196 
	1012.892,215.885 "/>
<polygon fill="#2D2D2D" points="1001.716,240.32 996.122,230.63 1001.716,220.938 1012.892,220.938 1018.479,230.63 
	1012.892,240.32 "/>
<polygon fill="#2D2D2D" points="1001.716,264.754 996.122,255.063 1001.716,245.371 1012.892,245.371 1018.479,255.063 
	1012.892,264.754 "/>
<polygon fill="#2D2D2D" points="1001.716,288.177 996.122,278.484 1001.716,268.793 1012.892,268.793 1018.479,278.484 
	1012.892,288.177 "/>
<polygon fill="#2D2D2D" points="1022.314,154.957 1016.725,145.265 1022.314,135.572 1033.49,135.572 1039.08,145.265 
	1033.49,154.957 "/>
<polygon fill="#2D2D2D" points="1022.314,131.712 1016.725,122.02 1022.314,112.329 1033.49,112.329 1039.08,122.02 
	1033.49,131.712 "/>
<polygon fill="#2D2D2D" points="1022.314,179.391 1016.725,169.698 1022.314,160.007 1033.49,160.007 1039.08,169.698 
	1033.49,179.391 "/>
<polygon fill="#2D2D2D" points="1022.314,203.823 1016.725,194.131 1022.314,184.443 1033.49,184.443 1039.08,194.131 
	1033.49,203.823 "/>
<polygon fill="#2D2D2D" points="1022.314,228.257 1016.725,218.564 1022.314,208.874 1033.49,208.874 1039.08,218.564 
	1033.49,228.257 "/>
<polygon fill="#2D2D2D" points="1022.314,252.69 1016.725,242.998 1022.314,233.31 1033.49,233.31 1039.08,242.998 1033.49,252.69 
	"/>
<polygon fill="#2D2D2D" points="1022.314,277.126 1016.725,267.434 1022.314,257.743 1033.49,257.743 1039.08,267.434 
	1033.49,277.126 "/>
<polygon fill="#2D2D2D" points="1022.314,300.547 1016.725,290.854 1022.314,281.164 1033.49,281.164 1039.08,290.854 
	1033.49,300.547 "/>
<polygon fill="#2D2D2D" points="1043.007,166.402 1037.415,156.711 1043.007,147.02 1054.181,147.02 1059.77,156.711 
	1054.181,166.402 "/>
<polygon fill="#2D2D2D" points="1043.007,143.157 1037.415,133.466 1043.007,123.775 1054.181,123.775 1059.77,133.466 
	1054.181,143.157 "/>
<polygon fill="#2D2D2D" points="1043.007,119.868 1037.415,110.175 1043.007,100.485 1054.181,100.485 1059.77,110.175 
	1054.181,119.868 "/>
<polygon fill="#2D2D2D" points="1043.007,190.837 1037.415,181.145 1043.007,171.455 1054.181,171.455 1059.77,181.145 
	1054.181,190.837 "/>
<polygon fill="#2D2D2D" points="1043.007,215.271 1037.415,205.578 1043.007,195.888 1054.181,195.888 1059.77,205.578 
	1054.181,215.271 "/>
<polygon fill="#2D2D2D" points="1043.007,239.702 1037.415,230.012 1043.007,220.321 1054.181,220.321 1059.77,230.012 
	1054.181,239.702 "/>
<polygon fill="#2D2D2D" points="1043.007,264.138 1037.415,254.445 1043.007,244.755 1054.181,244.755 1059.77,254.445 
	1054.181,264.138 "/>
<polygon fill="#2D2D2D" points="1043.007,288.571 1037.415,278.881 1043.007,269.188 1054.181,269.188 1059.77,278.881 
	1054.181,288.571 "/>
<polygon fill="#2D2D2D" points="1043.007,311.992 1037.415,302.302 1043.007,292.609 1054.181,292.609 1059.77,302.302 
	1054.181,311.992 "/>
<polygon fill="#2D2D2D" points="1063.291,154.957 1057.701,145.265 1063.291,135.572 1074.462,135.572 1080.056,145.265 
	1074.462,154.957 "/>
<polygon fill="#2D2D2D" points="1063.291,131.712 1057.701,122.02 1063.291,112.329 1074.462,112.329 1080.056,122.02 
	1074.462,131.712 "/>
<polygon fill="#2D2D2D" points="1063.291,179.391 1057.701,169.698 1063.291,160.007 1074.462,160.007 1080.056,169.698 
	1074.462,179.391 "/>
<polygon fill="#2D2D2D" points="1063.291,252.69 1057.701,242.998 1063.291,233.31 1074.462,233.31 1080.056,242.998 
	1074.462,252.69 "/>
<polygon fill="#2D2D2D" points="1063.291,277.126 1057.701,267.434 1063.291,257.743 1074.462,257.743 1080.056,267.434 
	1074.462,277.126 "/>
<polygon fill="#2D2D2D" points="1063.291,300.547 1057.701,290.854 1063.291,281.164 1074.462,281.164 1080.056,290.854 
	1074.462,300.547 "/>
<polygon fill="#2D2D2D" points="1166.172,166.402 1160.582,156.711 1166.172,147.02 1177.345,147.02 1182.937,156.711 
	1177.345,166.402 "/>
<polygon fill="#2D2D2D" points="1166.172,143.157 1160.582,133.466 1166.172,123.775 1177.345,123.775 1182.937,133.466 
	1177.345,143.157 "/>
<polygon fill="#2D2D2D" points="1166.172,190.837 1160.582,181.145 1166.172,171.455 1177.345,171.455 1182.937,181.145 
	1177.345,190.837 "/>
<polygon fill="#2D2D2D" points="1166.172,215.271 1160.582,205.578 1166.172,195.888 1177.345,195.888 1182.937,205.578 
	1177.345,215.271 "/>
<polygon fill="#2D2D2D" points="1166.172,239.702 1160.582,230.012 1166.172,220.321 1177.345,220.321 1182.937,230.012 
	1177.345,239.702 "/>
<polygon fill="#2D2D2D" points="1166.172,264.138 1160.582,254.445 1166.172,244.755 1177.345,244.755 1182.937,254.445 
	1177.345,264.138 "/>
<polygon fill="#2D2D2D" points="1166.172,288.571 1160.582,278.881 1166.172,269.188 1177.345,269.188 1182.937,278.881 
	1177.345,288.571 "/>
<polygon fill="#2D2D2D" points="1083.982,166.402 1078.392,156.711 1083.982,147.02 1095.156,147.02 1100.746,156.711 
	1095.156,166.402 "/>
<polygon fill="#2D2D2D" points="1083.982,143.157 1078.392,133.466 1083.982,123.775 1095.156,123.775 1100.746,133.466 
	1095.156,143.157 "/>
<polygon fill="#2D2D2D" points="1083.982,119.868 1078.392,110.175 1083.982,100.485 1095.156,100.485 1100.746,110.175 
	1095.156,119.868 "/>
<polygon fill="#2D2D2D" points="1083.982,264.138 1078.392,254.445 1083.982,244.755 1095.156,244.755 1100.746,254.445 
	1095.156,264.138 "/>
<polygon fill="#2D2D2D" points="1083.982,288.571 1078.392,278.881 1083.982,269.188 1095.156,269.188 1100.746,278.881 
	1095.156,288.571 "/>
<polygon fill="#2D2D2D" points="1083.982,311.992 1078.392,302.302 1083.982,292.609 1095.156,292.609 1100.746,302.302 
	1095.156,311.992 "/>
<polygon fill="#2D2D2D" points="1105.053,154.957 1099.459,145.265 1105.053,135.572 1116.226,135.572 1121.815,145.265 
	1116.226,154.957 "/>
<polygon fill="#2D2D2D" points="1105.053,131.712 1099.459,122.02 1105.053,112.329 1116.226,112.329 1121.815,122.02 
	1116.226,131.712 "/>
<polygon fill="#2D2D2D" points="1105.053,179.391 1099.459,169.698 1105.053,160.007 1116.226,160.007 1121.815,169.698 
	1116.226,179.391 "/>
<polygon fill="#2D2D2D" points="1105.053,252.69 1099.459,242.998 1105.053,233.31 1116.226,233.31 1121.815,242.998 
	1116.226,252.69 "/>
<polygon fill="#2D2D2D" points="1105.053,277.126 1099.459,267.434 1105.053,257.743 1116.226,257.743 1121.815,267.434 
	1116.226,277.126 "/>
<polygon fill="#2D2D2D" points="1105.053,300.547 1099.459,290.854 1105.053,281.164 1116.226,281.164 1121.815,290.854 
	1116.226,300.547 "/>
<polygon fill="#2D2D2D" points="1146.04,154.957 1140.448,145.265 1146.04,135.572 1157.212,135.572 1162.805,145.265 
	1157.212,154.957 "/>
<polygon fill="#2D2D2D" points="1146.04,131.712 1140.448,122.02 1146.04,112.329 1157.212,112.329 1162.805,122.02 
	1157.212,131.712 "/>
<polygon fill="#2D2D2D" points="1146.04,179.391 1140.448,169.698 1146.04,160.007 1157.212,160.007 1162.805,169.698 
	1157.212,179.391 "/>
<polygon fill="#2D2D2D" points="1146.04,203.823 1140.448,194.131 1146.04,184.443 1157.212,184.443 1162.805,194.131 
	1157.212,203.823 "/>
<polygon fill="#2D2D2D" points="1146.04,228.257 1140.448,218.564 1146.04,208.874 1157.212,208.874 1162.805,218.564 
	1157.212,228.257 "/>
<polygon fill="#2D2D2D" points="1146.04,252.69 1140.448,242.998 1146.04,233.31 1157.212,233.31 1162.805,242.998 1157.212,252.69 
	"/>
<polygon fill="#2D2D2D" points="1146.04,277.126 1140.448,267.434 1146.04,257.743 1157.212,257.743 1162.805,267.434 
	1157.212,277.126 "/>
<polygon fill="#2D2D2D" points="1146.04,300.547 1140.448,290.854 1146.04,281.164 1157.212,281.164 1162.805,290.854 
	1157.212,300.547 "/>
<polygon fill="#2D2D2D" points="1125.742,166.402 1120.15,156.711 1125.742,147.02 1136.916,147.02 1142.508,156.711 
	1136.916,166.402 "/>
<polygon fill="#2D2D2D" points="1125.742,143.157 1120.15,133.466 1125.742,123.775 1136.916,123.775 1142.508,133.466 
	1136.916,143.157 "/>
<polygon fill="#2D2D2D" points="1125.742,119.868 1120.15,110.175 1125.742,100.485 1136.916,100.485 1142.508,110.175 
	1136.916,119.868 "/>
<polygon fill="#2D2D2D" points="1125.742,190.837 1120.15,181.145 1125.742,171.455 1136.916,171.455 1142.508,181.145 
	1136.916,190.837 "/>
<polygon fill="#2D2D2D" points="1125.742,215.271 1120.15,205.578 1125.742,195.888 1136.916,195.888 1142.508,205.578 
	1136.916,215.271 "/>
<polygon fill="#2D2D2D" points="1125.742,239.702 1120.15,230.012 1125.742,220.321 1136.916,220.321 1142.508,230.012 
	1136.916,239.702 "/>
<polygon fill="#2D2D2D" points="1125.742,264.138 1120.15,254.445 1125.742,244.755 1136.916,244.755 1142.508,254.445 
	1136.916,264.138 "/>
<polygon fill="#2D2D2D" points="1125.742,288.571 1120.15,278.881 1125.742,269.188 1136.916,269.188 1142.508,278.881 
	1136.916,288.571 "/>
<polygon fill="#2D2D2D" points="1125.742,311.992 1120.15,302.302 1125.742,292.609 1136.916,292.609 1142.508,302.302 
	1136.916,311.992 "/>
<path fill="#2D2D2D" d="M974.898,110.175c0-6.027,4.883-10.911,10.9-10.911c6.02,0,10.904,4.884,10.904,10.911
	s-4.885,10.914-10.904,10.914C979.781,121.089,974.898,116.202,974.898,110.175z"/>
<ellipse fill="#2D2D2D" cx="1192.667" cy="110.175" rx="10.9" ry="10.911"/>
<path fill="#2D2D2D" d="M974.898,300.547c0-6.027,4.883-10.913,10.9-10.913c6.02,0,10.904,4.886,10.904,10.913
	c0,6.026-4.885,10.911-10.904,10.911C979.781,311.458,974.898,306.573,974.898,300.547z"/>
<ellipse fill="#2D2D2D" cx="1192.667" cy="300.547" rx="10.9" ry="10.913"/>
<rect x="811.203" y="19.788" fill="#CCCCCC" stroke="#030000" stroke-miterlimit="10" width="31.511" height="32.387"/>
<rect x="909.329" y="19.217" fill="#CCCCCC" stroke="#030000" stroke-miterlimit="10" width="115.91" height="32.387"/>
<rect x="54.572" y="110.177" width="460.483" height="249.935"/>
<g>
	<path fill="#4F4F4F" d="M39.265,167.487c-3.005,3.359-8.163,3.639-11.523,0.626c-3.354-3.014-3.638-8.181-0.631-11.54
		c3.005-3.356,8.164-3.636,11.521-0.622C41.99,158.964,42.273,164.129,39.265,167.487"/>
	<path fill="#AFAFAF" d="M37.655,166.042c-2.21,2.465-6,2.672-8.468,0.458c-2.466-2.214-2.676-6.009-0.463-8.476
		c2.207-2.469,6-2.672,8.464-0.458C39.655,159.778,39.862,163.575,37.655,166.042"/>
	<path fill="none" stroke="#939393" stroke-miterlimit="10" d="M37.655,166.042c-2.21,2.465-6,2.672-8.468,0.458
		c-2.466-2.214-2.676-6.009-0.463-8.476c2.207-2.469,6-2.672,8.464-0.458C39.655,159.778,39.862,163.575,37.655,166.042z"/>
	<g>
		<g>
			<defs>
				<polygon id="SVGID_1_" points="25.208,162.462 33.628,170.022 41.167,161.599 32.747,154.041 				"/>
			</defs>
			<clipPath id="SVGID_2_">
				<use xlink:href="#SVGID_1_"  overflow="visible"/>
			</clipPath>
			<path clip-path="url(#SVGID_2_)" fill="#BEBFBF" d="M37.398,165.811c-2.082,2.324-5.657,2.518-7.98,0.433
				c-2.325-2.087-2.52-5.666-0.438-7.991c2.084-2.324,5.653-2.518,7.978-0.431C39.283,159.909,39.479,163.485,37.398,165.811"/>
			<path clip-path="url(#SVGID_2_)" fill="#C0C1C1" d="M37.297,165.723c-2.033,2.269-5.521,2.457-7.791,0.418
				c-2.27-2.036-2.461-5.528-0.429-7.799c2.036-2.271,5.521-2.461,7.792-0.42C39.14,159.958,39.331,163.45,37.297,165.723"/>
			<path clip-path="url(#SVGID_2_)" fill="#C3C4C4" d="M37.198,165.633c-1.983,2.216-5.389,2.4-7.602,0.411
				c-2.218-1.987-2.401-5.397-0.418-7.612c1.984-2.216,5.389-2.402,7.604-0.415C38.997,160.009,39.183,163.417,37.198,165.633"/>
			<path clip-path="url(#SVGID_2_)" fill="#C5C6C6" d="M37.101,165.543c-1.936,2.162-5.257,2.34-7.417,0.403
				c-2.159-1.942-2.345-5.267-0.408-7.426c1.936-2.162,5.255-2.342,7.416-0.403C38.853,160.058,39.036,163.384,37.101,165.543"/>
			<path clip-path="url(#SVGID_2_)" fill="#C7C9C9" d="M37,165.457c-1.885,2.105-5.123,2.281-7.229,0.389
				c-2.104-1.892-2.283-5.133-0.397-7.238c1.888-2.107,5.123-2.281,7.229-0.391C38.708,160.106,38.888,163.348,37,165.457"/>
			<path clip-path="url(#SVGID_2_)" fill="#CACBCB" d="M36.902,165.367c-1.838,2.05-4.99,2.222-7.041,0.379
				c-2.052-1.841-2.226-4.997-0.389-7.048c1.841-2.054,4.994-2.222,7.042-0.383C38.565,160.158,38.737,163.313,36.902,165.367"/>
			<path clip-path="url(#SVGID_2_)" fill="#CCCECE" d="M36.804,165.277c-1.79,1.997-4.858,2.161-6.854,0.372
				c-1.998-1.792-2.166-4.865-0.377-6.861c1.789-1.999,4.855-2.165,6.854-0.374C38.424,160.208,38.592,163.279,36.804,165.277"/>
			<path clip-path="url(#SVGID_2_)" fill="#CED0D0" d="M36.703,165.189c-1.738,1.942-4.724,2.105-6.664,0.36
				c-1.942-1.743-2.107-4.732-0.367-6.674c1.74-1.942,4.724-2.103,6.668-0.36C38.28,160.257,38.444,163.246,36.703,165.189"/>
			<path clip-path="url(#SVGID_2_)" fill="#D1D3D3" d="M36.604,165.101c-1.69,1.886-4.588,2.042-6.477,0.348
				s-2.045-4.597-0.357-6.485c1.692-1.888,4.592-2.044,6.479-0.35C38.137,160.308,38.295,163.213,36.604,165.101"/>
			<path clip-path="url(#SVGID_2_)" fill="#D3D5D5" d="M36.506,165.011c-1.641,1.831-4.458,1.985-6.289,0.34
				c-1.833-1.645-1.988-4.466-0.346-6.299c1.639-1.833,4.457-1.987,6.289-0.34C37.993,160.357,38.147,163.176,36.506,165.011"/>
		</g>
	</g>
	<polygon fill="#605F5E" points="30.373,164.07 32.145,162.088 30.162,160.308 31.152,159.209 33.131,160.989 34.906,159.007 
		36.004,159.993 34.234,161.975 36.213,163.753 35.225,164.854 33.247,163.074 31.471,165.058 	"/>
	<path fill="#231815" d="M35.826,160.003l-1.604,1.792l-0.174,0.189l0.193,0.17l1.792,1.608l-0.816,0.912l-1.791-1.61l-0.19-0.17
		l-0.171,0.19l-1.604,1.794l-0.909-0.817l1.602-1.791l0.172-0.191l-0.189-0.172l-1.79-1.608l0.814-0.908l1.789,1.606l0.19,0.172
		l0.171-0.19l1.602-1.792L35.826,160.003z M36.187,159.983l-1.292-1.158l-1.772,1.982l-1.983-1.778l-1.155,1.289l1.981,1.78
		l-1.774,1.982l1.288,1.158l1.777-1.982l1.979,1.777l1.158-1.289l-1.982-1.779L36.187,159.983z"/>
</g>
<g>
	<path fill="#4F4F4F" d="M39.265,316.767c-3.005,3.358-8.163,3.639-11.523,0.626c-3.354-3.015-3.638-8.181-0.631-11.539
		c3.005-3.356,8.164-3.637,11.521-0.622C41.99,308.244,42.273,313.408,39.265,316.767"/>
	<path fill="#AFAFAF" d="M37.655,315.321c-2.21,2.465-6,2.672-8.468,0.458c-2.466-2.215-2.676-6.01-0.463-8.477
		c2.207-2.468,6-2.672,8.464-0.457C39.655,309.058,39.862,312.854,37.655,315.321"/>
	<path fill="none" stroke="#939393" stroke-miterlimit="10" d="M37.655,315.321c-2.21,2.465-6,2.672-8.468,0.458
		c-2.466-2.215-2.676-6.01-0.463-8.477c2.207-2.468,6-2.672,8.464-0.457C39.655,309.058,39.862,312.854,37.655,315.321z"/>
	<g>
		<g>
			<defs>
				<polygon id="SVGID_3_" points="25.208,311.741 33.628,319.302 41.167,310.879 32.747,303.32 				"/>
			</defs>
			<clipPath id="SVGID_4_">
				<use xlink:href="#SVGID_3_"  overflow="visible"/>
			</clipPath>
			<path clip-path="url(#SVGID_4_)" fill="#BEBFBF" d="M37.398,315.09c-2.082,2.324-5.657,2.518-7.98,0.433
				c-2.325-2.087-2.52-5.665-0.438-7.99c2.084-2.324,5.653-2.518,7.978-0.431C39.283,309.188,39.479,312.765,37.398,315.09"/>
			<path clip-path="url(#SVGID_4_)" fill="#C0C1C1" d="M37.297,315.002c-2.033,2.27-5.521,2.457-7.791,0.419
				c-2.27-2.036-2.461-5.528-0.429-7.799c2.036-2.271,5.521-2.461,7.792-0.421C39.14,309.237,39.331,312.729,37.297,315.002"/>
			<path clip-path="url(#SVGID_4_)" fill="#C3C4C4" d="M37.198,314.912c-1.983,2.217-5.389,2.4-7.602,0.411
				c-2.218-1.987-2.401-5.397-0.418-7.611c1.984-2.216,5.389-2.402,7.604-0.415C38.997,309.288,39.183,312.696,37.198,314.912"/>
			<path clip-path="url(#SVGID_4_)" fill="#C5C6C6" d="M37.101,314.822c-1.936,2.161-5.257,2.34-7.417,0.403
				c-2.159-1.942-2.345-5.266-0.408-7.426c1.936-2.161,5.255-2.341,7.416-0.402C38.853,309.338,39.036,312.663,37.101,314.822"/>
			<path clip-path="url(#SVGID_4_)" fill="#C7C9C9" d="M37,314.736c-1.885,2.104-5.123,2.281-7.229,0.39
				c-2.104-1.892-2.283-5.133-0.397-7.238c1.888-2.106,5.123-2.28,7.229-0.391C38.708,309.387,38.888,312.628,37,314.736"/>
			<path clip-path="url(#SVGID_4_)" fill="#CACBCB" d="M36.902,314.646c-1.838,2.05-4.99,2.222-7.041,0.379
				c-2.052-1.84-2.226-4.995-0.389-7.048c1.841-2.054,4.994-2.222,7.042-0.383C38.565,309.438,38.737,312.593,36.902,314.646"/>
			<path clip-path="url(#SVGID_4_)" fill="#CCCECE" d="M36.804,314.557c-1.79,1.997-4.858,2.161-6.854,0.371
				c-1.998-1.792-2.166-4.864-0.377-6.859c1.789-2,4.855-2.166,6.854-0.374C38.424,309.488,38.592,312.56,36.804,314.557"/>
			<path clip-path="url(#SVGID_4_)" fill="#CED0D0" d="M36.703,314.469c-1.738,1.942-4.724,2.104-6.664,0.359
				c-1.942-1.743-2.107-4.731-0.367-6.674c1.74-1.942,4.724-2.104,6.668-0.36C38.28,309.537,38.444,312.525,36.703,314.469"/>
			<path clip-path="url(#SVGID_4_)" fill="#D1D3D3" d="M36.604,314.38c-1.69,1.886-4.588,2.043-6.477,0.349
				s-2.045-4.597-0.357-6.484c1.692-1.888,4.592-2.044,6.479-0.351C38.137,309.588,38.295,312.492,36.604,314.38"/>
			<path clip-path="url(#SVGID_4_)" fill="#D3D5D5" d="M36.506,314.29c-1.641,1.831-4.458,1.985-6.289,0.341
				c-1.833-1.646-1.988-4.466-0.346-6.299c1.639-1.833,4.457-1.987,6.289-0.341C37.993,309.637,38.147,312.455,36.506,314.29"/>
		</g>
	</g>
	<polygon fill="#605F5E" points="30.373,313.35 32.145,311.368 30.162,309.588 31.152,308.488 33.131,310.269 34.906,308.287 
		36.004,309.272 34.234,311.255 36.213,313.032 35.225,314.134 33.247,312.354 31.471,314.337 	"/>
	<path fill="#231815" d="M35.826,309.282l-1.604,1.792l-0.174,0.19l0.193,0.17l1.792,1.607l-0.816,0.912l-1.791-1.61l-0.19-0.17
		l-0.171,0.189l-1.604,1.794l-0.909-0.817l1.602-1.79l0.172-0.191l-0.189-0.173l-1.79-1.607l0.814-0.908l1.789,1.606l0.19,0.172
		l0.171-0.189l1.602-1.792L35.826,309.282z M36.187,309.263l-1.292-1.157l-1.772,1.981l-1.983-1.778l-1.155,1.289l1.981,1.78
		l-1.774,1.981l1.288,1.158l1.777-1.981l1.979,1.775l1.158-1.289l-1.982-1.777L36.187,309.263z"/>
</g>
<g>
	<path fill="#4F4F4F" d="M550.002,167.487c-3.005,3.359-8.163,3.639-11.523,0.626c-3.354-3.014-3.638-8.181-0.631-11.54
		c3.005-3.356,8.165-3.636,11.521-0.622C552.728,158.964,553.011,164.129,550.002,167.487"/>
	<path fill="#AFAFAF" d="M548.393,166.042c-2.21,2.465-6,2.672-8.468,0.458c-2.466-2.214-2.677-6.009-0.463-8.476
		c2.208-2.469,6-2.672,8.463-0.458C550.393,159.778,550.6,163.575,548.393,166.042"/>
	<path fill="none" stroke="#939393" stroke-miterlimit="10" d="M548.393,166.042c-2.21,2.465-6,2.672-8.468,0.458
		c-2.466-2.214-2.677-6.009-0.463-8.476c2.208-2.469,6-2.672,8.463-0.458C550.393,159.778,550.6,163.575,548.393,166.042z"/>
	<g>
		<g>
			<defs>
				<polygon id="SVGID_5_" points="535.945,162.462 544.366,170.022 551.905,161.599 543.484,154.041 				"/>
			</defs>
			<clipPath id="SVGID_6_">
				<use xlink:href="#SVGID_5_"  overflow="visible"/>
			</clipPath>
			<path clip-path="url(#SVGID_6_)" fill="#BEBFBF" d="M548.137,165.811c-2.083,2.324-5.658,2.518-7.981,0.433
				c-2.325-2.087-2.52-5.666-0.438-7.991c2.083-2.324,5.652-2.518,7.977-0.431C550.022,159.909,550.217,163.485,548.137,165.811"/>
			<path clip-path="url(#SVGID_6_)" fill="#C0C1C1" d="M548.035,165.723c-2.032,2.269-5.52,2.457-7.79,0.418
				c-2.27-2.036-2.461-5.528-0.43-7.799c2.036-2.271,5.521-2.461,7.792-0.42C549.877,159.958,550.069,163.45,548.035,165.723"/>
			<path clip-path="url(#SVGID_6_)" fill="#C3C4C4" d="M547.935,165.633c-1.983,2.216-5.388,2.4-7.602,0.411
				c-2.217-1.987-2.401-5.397-0.418-7.612c1.985-2.216,5.389-2.402,7.604-0.415C549.735,160.009,549.92,163.417,547.935,165.633"/>
			<path clip-path="url(#SVGID_6_)" fill="#C5C6C6" d="M547.839,165.543c-1.936,2.162-5.257,2.34-7.418,0.403
				c-2.159-1.942-2.344-5.267-0.406-7.426c1.935-2.162,5.254-2.342,7.415-0.403C549.59,160.058,549.774,163.384,547.839,165.543"/>
			<path clip-path="url(#SVGID_6_)" fill="#C7C9C9" d="M547.738,165.457c-1.885,2.105-5.123,2.281-7.229,0.389
				c-2.104-1.892-2.282-5.133-0.396-7.238c1.888-2.107,5.123-2.281,7.229-0.391C549.445,160.106,549.625,163.348,547.738,165.457"/>
			<path clip-path="url(#SVGID_6_)" fill="#CACBCB" d="M547.64,165.367c-1.838,2.05-4.99,2.222-7.042,0.379
				c-2.051-1.841-2.225-4.997-0.389-7.048c1.841-2.054,4.994-2.222,7.043-0.383C549.303,160.158,549.475,163.313,547.64,165.367"/>
			<path clip-path="url(#SVGID_6_)" fill="#CCCECE" d="M547.542,165.277c-1.79,1.997-4.859,2.161-6.854,0.372
				c-1.999-1.792-2.167-4.865-0.377-6.861c1.788-1.999,4.855-2.165,6.854-0.374C549.162,160.208,549.33,163.279,547.542,165.277"/>
			<path clip-path="url(#SVGID_6_)" fill="#CED0D0" d="M547.441,165.189c-1.737,1.942-4.724,2.105-6.664,0.36
				c-1.942-1.743-2.106-4.732-0.368-6.674c1.741-1.942,4.725-2.103,6.668-0.36C549.018,160.257,549.182,163.246,547.441,165.189"/>
			<path clip-path="url(#SVGID_6_)" fill="#D1D3D3" d="M547.341,165.101c-1.69,1.886-4.587,2.042-6.477,0.348
				c-1.887-1.694-2.046-4.597-0.358-6.485c1.692-1.888,4.594-2.044,6.479-0.35C548.875,160.308,549.033,163.213,547.341,165.101"/>
			<path clip-path="url(#SVGID_6_)" fill="#D3D5D5" d="M547.244,165.011c-1.641,1.831-4.458,1.985-6.289,0.34
				c-1.833-1.645-1.987-4.466-0.346-6.299c1.639-1.833,4.458-1.987,6.289-0.34C548.73,160.357,548.885,163.176,547.244,165.011"/>
		</g>
	</g>
	<polygon fill="#605F5E" points="541.111,164.07 542.883,162.088 540.9,160.308 541.89,159.209 543.87,160.989 545.644,159.007 
		546.742,159.993 544.972,161.975 546.951,163.753 545.964,164.854 543.985,163.074 542.209,165.058 	"/>
	<path fill="#231815" d="M546.563,160.003l-1.604,1.792l-0.174,0.189l0.194,0.17l1.792,1.608l-0.815,0.912l-1.792-1.61l-0.189-0.17
		l-0.172,0.19l-1.604,1.794l-0.909-0.817l1.602-1.791l0.174-0.191l-0.191-0.172l-1.79-1.608l0.814-0.908l1.788,1.606l0.191,0.172
		l0.17-0.19l1.602-1.792L546.563,160.003z M546.925,159.983l-1.293-1.158l-1.772,1.982l-1.983-1.778l-1.154,1.289l1.981,1.78
		l-1.774,1.982l1.288,1.158l1.778-1.982l1.979,1.777l1.157-1.289l-1.981-1.779L546.925,159.983z"/>
</g>
<g>
	<path fill="#4F4F4F" d="M550.002,316.767c-3.005,3.358-8.163,3.639-11.523,0.626c-3.354-3.015-3.638-8.181-0.631-11.539
		c3.005-3.356,8.165-3.637,11.521-0.622C552.728,308.244,553.011,313.408,550.002,316.767"/>
	<path fill="#AFAFAF" d="M548.393,315.321c-2.21,2.465-6,2.672-8.468,0.458c-2.466-2.215-2.677-6.01-0.463-8.477
		c2.208-2.468,6-2.672,8.463-0.457C550.393,309.058,550.6,312.854,548.393,315.321"/>
	<path fill="none" stroke="#939393" stroke-miterlimit="10" d="M548.393,315.321c-2.21,2.465-6,2.672-8.468,0.458
		c-2.466-2.215-2.677-6.01-0.463-8.477c2.208-2.468,6-2.672,8.463-0.457C550.393,309.058,550.6,312.854,548.393,315.321z"/>
	<g>
		<g>
			<defs>
				<polygon id="SVGID_7_" points="535.945,311.741 544.366,319.302 551.905,310.879 543.484,303.32 				"/>
			</defs>
			<clipPath id="SVGID_8_">
				<use xlink:href="#SVGID_7_"  overflow="visible"/>
			</clipPath>
			<path clip-path="url(#SVGID_8_)" fill="#BEBFBF" d="M548.137,315.09c-2.083,2.324-5.658,2.518-7.981,0.433
				c-2.325-2.087-2.52-5.665-0.438-7.99c2.083-2.324,5.652-2.518,7.977-0.431C550.022,309.188,550.217,312.765,548.137,315.09"/>
			<path clip-path="url(#SVGID_8_)" fill="#C0C1C1" d="M548.035,315.002c-2.032,2.27-5.52,2.457-7.79,0.419
				c-2.27-2.036-2.461-5.528-0.43-7.799c2.036-2.271,5.521-2.461,7.792-0.421C549.877,309.237,550.069,312.729,548.035,315.002"/>
			<path clip-path="url(#SVGID_8_)" fill="#C3C4C4" d="M547.935,314.912c-1.983,2.217-5.388,2.4-7.602,0.411
				c-2.217-1.987-2.401-5.397-0.418-7.611c1.985-2.216,5.389-2.402,7.604-0.415C549.735,309.288,549.92,312.696,547.935,314.912"/>
			<path clip-path="url(#SVGID_8_)" fill="#C5C6C6" d="M547.839,314.822c-1.936,2.161-5.257,2.34-7.418,0.403
				c-2.159-1.942-2.344-5.266-0.406-7.426c1.935-2.161,5.254-2.341,7.415-0.402C549.59,309.338,549.774,312.663,547.839,314.822"/>
			<path clip-path="url(#SVGID_8_)" fill="#C7C9C9" d="M547.738,314.736c-1.885,2.104-5.123,2.281-7.229,0.39
				c-2.104-1.892-2.282-5.133-0.396-7.238c1.888-2.106,5.123-2.28,7.229-0.391C549.445,309.387,549.625,312.628,547.738,314.736"/>
			<path clip-path="url(#SVGID_8_)" fill="#CACBCB" d="M547.64,314.646c-1.838,2.05-4.99,2.222-7.042,0.379
				c-2.051-1.84-2.225-4.995-0.389-7.048c1.841-2.054,4.994-2.222,7.043-0.383C549.303,309.438,549.475,312.593,547.64,314.646"/>
			<path clip-path="url(#SVGID_8_)" fill="#CCCECE" d="M547.542,314.557c-1.79,1.997-4.859,2.161-6.854,0.371
				c-1.999-1.792-2.167-4.864-0.377-6.859c1.788-2,4.855-2.166,6.854-0.374C549.162,309.488,549.33,312.56,547.542,314.557"/>
			<path clip-path="url(#SVGID_8_)" fill="#CED0D0" d="M547.441,314.469c-1.737,1.942-4.724,2.104-6.664,0.359
				c-1.942-1.743-2.106-4.731-0.368-6.674c1.741-1.942,4.725-2.104,6.668-0.36C549.018,309.537,549.182,312.525,547.441,314.469"/>
			<path clip-path="url(#SVGID_8_)" fill="#D1D3D3" d="M547.341,314.38c-1.69,1.886-4.587,2.043-6.477,0.349
				c-1.887-1.694-2.046-4.597-0.358-6.484c1.692-1.888,4.594-2.044,6.479-0.351C548.875,309.588,549.033,312.492,547.341,314.38"/>
			<path clip-path="url(#SVGID_8_)" fill="#D3D5D5" d="M547.244,314.29c-1.641,1.831-4.458,1.985-6.289,0.341
				c-1.833-1.646-1.987-4.466-0.346-6.299c1.639-1.833,4.458-1.987,6.289-0.341C548.73,309.637,548.885,312.455,547.244,314.29"/>
		</g>
	</g>
	<polygon fill="#605F5E" points="541.111,313.35 542.883,311.368 540.9,309.588 541.89,308.488 543.87,310.269 545.644,308.287 
		546.742,309.272 544.972,311.255 546.951,313.032 545.964,314.134 543.985,312.354 542.209,314.337 	"/>
	<path fill="#231815" d="M546.563,309.282l-1.604,1.792l-0.174,0.19l0.194,0.17l1.792,1.607l-0.815,0.912l-1.792-1.61l-0.189-0.17
		l-0.172,0.189l-1.604,1.794l-0.909-0.817l1.602-1.79l0.174-0.191l-0.191-0.173l-1.79-1.607l0.814-0.908l1.788,1.606l0.191,0.172
		l0.17-0.189l1.602-1.792L546.563,309.282z M546.925,309.263l-1.293-1.157l-1.772,1.981l-1.983-1.778l-1.154,1.289l1.981,1.78
		l-1.774,1.981l1.288,1.158l1.778-1.981l1.979,1.775l1.157-1.289l-1.981-1.777L546.925,309.263z"/>
</g>
</svg>
