<?xml version="1.0" encoding="utf-8"?>
<!-- Generator: Adobe Illustrator 16.0.0, SVG Export Plug-In . SVG Version: 6.00 Build 0)  -->
<!DOCTYPE svg PUBLIC "-//W3C//DTD SVG 1.1//EN" "http://www.w3.org/Graphics/SVG/1.1/DTD/svg11.dtd">
<svg version="1.1" id="图层_1" xmlns="http://www.w3.org/2000/svg" xmlns:xlink="http://www.w3.org/1999/xlink" x="0px" y="0px"
	 width="1276px" height="379px" viewBox="0 0 1276 379" enable-background="new 0 0 1276 379" xml:space="preserve">
<polygon fill="#3F3F3F" points="0,0 0,126.333 0,252.667 0,379 1276,379 1276,252.667 1276,126.333 1276,0 "/>
<polygon fill="#161616" points="10.437,36.338 10.437,144.637 10.437,252.934 10.437,361.232 1265.563,361.232 1265.563,252.934 
	1265.563,144.637 1265.563,36.338 "/>
<rect x="14.265" y="4.34" fill="#282828" width="1251.297" height="28.159"/>
<text transform="matrix(0.9988 0 0 1 1212.9443 22.522)" fill="#595959" font-family="'MicrosoftYaHei-Bold'" font-size="12.9364">D-LIink</text>
<path fill="#FFFFA4" d="M172.11,29.912c0,0.553-0.447,1.001-1,1.001H19.334c-0.553,0-1-0.448-1-1.001V7.377
	c0-0.553,0.447-1.001,1-1.001H171.11c0.553,0,1,0.448,1,1.001V29.912z"/>
<text transform="matrix(0.9988 0 0 1 66.5762 22.522)" font-family="'MicrosoftYaHei-Bold'" font-size="10.0152">0TT源存储</text>
</svg>
