<?xml version="1.0" encoding="utf-8"?>
<!-- Generator: Adobe Illustrator 16.0.0, SVG Export Plug-In . SVG Version: 6.00 Build 0)  -->
<!DOCTYPE svg PUBLIC "-//W3C//DTD SVG 1.1//EN" "http://www.w3.org/Graphics/SVG/1.1/DTD/svg11.dtd">
<svg version="1.1" id="图层_1" xmlns="http://www.w3.org/2000/svg" xmlns:xlink="http://www.w3.org/1999/xlink" x="0px" y="0px"
	 width="1275.59px" height="252.28px" viewBox="0 0 1275.59 252.28" enable-background="new 0 0 1275.59 252.28"
	 xml:space="preserve">
<rect fill="#727272" width="1275.59" height="252.283"/>
<g>
	<g>
		<g>
			<path fill="#101010" d="M58.428,252.279H5.5c-3.033,0-5.5-2.459-5.5-5.48V5.48C0,2.458,2.467,0,5.5,0h52.928
				c3.032,0,5.5,2.458,5.5,5.48v241.318C63.928,249.82,61.46,252.279,58.428,252.279z M5.5,1C3.019,1,1,3.01,1,5.48v241.318
				c0,2.471,2.019,4.48,4.5,4.48h52.928c2.481,0,4.5-2.01,4.5-4.48V5.48c0-2.471-2.019-4.48-4.5-4.48H5.5z"/>
		</g>
		<path fill="#C5C5BC" d="M63.428,246.799c0,2.752-2.239,4.98-5,4.98H5.5c-2.762,0-5-2.229-5-4.98V5.48c0-2.75,2.238-4.98,5-4.98
			h52.928c2.761,0,5,2.23,5,4.98V246.799z"/>
		<path fill="#727272" d="M63.06,246.896c0,2.697-2.209,4.883-4.934,4.883H5.908c-2.725,0-4.933-2.186-4.933-4.883V10.314
			c0-2.696,2.208-4.883,4.933-4.883h52.218c2.725,0,4.934,2.187,4.934,4.883V246.896z"/>
		<path fill="#ADACA2" d="M63.06,244.453c0,2.68-2.209,4.854-4.934,4.854H5.908c-2.725,0-4.933-2.174-4.933-4.854V9.25
			c0-2.681,2.208-4.854,4.933-4.854h52.218c2.725,0,4.934,2.173,4.934,4.854V244.453z"/>
		<g>
			<circle fill="#2F302E" cx="31.964" cy="78.765" r="16.604"/>
			<circle fill="#FDFEFD" cx="31.963" cy="78.765" r="15.667"/>
			<ellipse fill="#616262" cx="31.963" cy="79.119" rx="15.667" ry="15.313"/>
			<ellipse fill="#A0A0A0" cx="31.963" cy="78.744" rx="15.667" ry="14.938"/>
			<circle fill="#DEDFE1" stroke="#616262" stroke-width="0.5" stroke-miterlimit="10" cx="31.963" cy="78.765" r="14.542"/>
			<path fill="none" stroke="#FFFFFF" stroke-miterlimit="10" d="M19.464,78.744"/>
			<path fill="none" stroke="#FFFFFF" stroke-miterlimit="10" d="M44.464,78.744c-0.001,3.238-1.231,6.188-3.251,8.408"/>
			<path fill="none" stroke="#FFFFFF" stroke-miterlimit="10" d="M19.464,78.744c0-6.902,5.597-12.5,12.5-12.5"/>
		</g>
		<g>
			<path fill="#434244" stroke="#151515" stroke-miterlimit="10" d="M55.563,193.773c0,1.709-1.486,3.096-3.318,3.096h-40.56
				c-1.833,0-3.319-1.387-3.319-3.096v-72.679c0-1.711,1.486-3.098,3.319-3.098h40.56c1.832,0,3.318,1.387,3.318,3.098V193.773z"/>
			<linearGradient id="SVGID_1_" gradientUnits="userSpaceOnUse" x1="31.9644" y1="194.6758" x2="31.9644" y2="120.1904">
				<stop  offset="0" style="stop-color:#000000"/>
				<stop  offset="0.064" style="stop-color:#23222A"/>
				<stop  offset="0.7586" style="stop-color:#191C20"/>
				<stop  offset="0.8177" style="stop-color:#5A5A6A"/>
				<stop  offset="0.8571" style="stop-color:#191C20"/>
				<stop  offset="0.9113" style="stop-color:#848594"/>
				<stop  offset="0.9557" style="stop-color:#23222A"/>
				<stop  offset="1" style="stop-color:#5A5A6A"/>
			</linearGradient>
			<path fill="url(#SVGID_1_)" d="M53.566,191.689c0,1.65-1.433,2.986-3.2,2.986H13.563c-1.768,0-3.2-1.336-3.2-2.986v-68.513
				c0-1.65,1.433-2.986,3.2-2.986h36.804c1.768,0,3.2,1.336,3.2,2.986V191.689z"/>
		</g>
	</g>
	<g>
		<g>
			<path fill="#101010" d="M122.355,252.279H69.428c-3.033,0-5.5-2.459-5.5-5.48V5.48c0-3.022,2.467-5.48,5.5-5.48h52.928
				c3.032,0,5.5,2.458,5.5,5.48v241.318C127.855,249.82,125.388,252.279,122.355,252.279z M69.428,1c-2.481,0-4.5,2.01-4.5,4.48
				v241.318c0,2.471,2.019,4.48,4.5,4.48h52.928c2.481,0,4.5-2.01,4.5-4.48V5.48c0-2.471-2.019-4.48-4.5-4.48H69.428z"/>
		</g>
		<path fill="#C5C5BC" d="M127.355,246.799c0,2.752-2.239,4.98-5,4.98H69.428c-2.762,0-5-2.229-5-4.98V5.48
			c0-2.75,2.238-4.98,5-4.98h52.928c2.761,0,5,2.23,5,4.98V246.799z"/>
		<path fill="#727272" d="M126.987,246.896c0,2.697-2.209,4.883-4.934,4.883H69.836c-2.725,0-4.933-2.186-4.933-4.883V10.314
			c0-2.696,2.208-4.883,4.933-4.883h52.218c2.725,0,4.934,2.187,4.934,4.883V246.896z"/>
		<path fill="#ADACA2" d="M126.987,244.453c0,2.68-2.209,4.854-4.934,4.854H69.836c-2.725,0-4.933-2.174-4.933-4.854V9.25
			c0-2.681,2.208-4.854,4.933-4.854h52.218c2.725,0,4.934,2.173,4.934,4.854V244.453z"/>
		<g>
			<circle fill="#2F302E" cx="95.892" cy="78.765" r="16.604"/>
			<circle fill="#FDFEFD" cx="95.891" cy="78.765" r="15.667"/>
			<ellipse fill="#616262" cx="95.891" cy="79.119" rx="15.667" ry="15.313"/>
			<ellipse fill="#A0A0A0" cx="95.891" cy="78.744" rx="15.667" ry="14.938"/>
			<circle fill="#DEDFE1" stroke="#616262" stroke-width="0.5" stroke-miterlimit="10" cx="95.891" cy="78.765" r="14.542"/>
			<path fill="none" stroke="#FFFFFF" stroke-miterlimit="10" d="M83.392,78.744"/>
			<path fill="none" stroke="#FFFFFF" stroke-miterlimit="10" d="M108.392,78.744c-0.001,3.238-1.231,6.188-3.251,8.408"/>
			<path fill="none" stroke="#FFFFFF" stroke-miterlimit="10" d="M83.392,78.744c0-6.902,5.597-12.5,12.5-12.5"/>
		</g>
		<g>
			<path fill="#434244" stroke="#151515" stroke-miterlimit="10" d="M119.49,193.773c0,1.709-1.486,3.096-3.318,3.096h-40.56
				c-1.833,0-3.319-1.387-3.319-3.096v-72.679c0-1.711,1.486-3.098,3.319-3.098h40.56c1.832,0,3.318,1.387,3.318,3.098V193.773z"/>
			<linearGradient id="SVGID_2_" gradientUnits="userSpaceOnUse" x1="95.8921" y1="194.6758" x2="95.8921" y2="120.1904">
				<stop  offset="0" style="stop-color:#000000"/>
				<stop  offset="0.064" style="stop-color:#23222A"/>
				<stop  offset="0.7586" style="stop-color:#191C20"/>
				<stop  offset="0.8177" style="stop-color:#5A5A6A"/>
				<stop  offset="0.8571" style="stop-color:#191C20"/>
				<stop  offset="0.9113" style="stop-color:#848594"/>
				<stop  offset="0.9557" style="stop-color:#23222A"/>
				<stop  offset="1" style="stop-color:#5A5A6A"/>
			</linearGradient>
			<path fill="url(#SVGID_2_)" d="M117.494,191.689c0,1.65-1.433,2.986-3.2,2.986H77.49c-1.768,0-3.2-1.336-3.2-2.986v-68.513
				c0-1.65,1.433-2.986,3.2-2.986h36.804c1.768,0,3.2,1.336,3.2,2.986V191.689z"/>
		</g>
	</g>
	<g>
		<g>
			<path fill="#101010" d="M186.283,252.279h-52.928c-3.033,0-5.5-2.459-5.5-5.48V5.48c0-3.022,2.467-5.48,5.5-5.48h52.928
				c3.032,0,5.5,2.458,5.5,5.48v241.318C191.783,249.82,189.315,252.279,186.283,252.279z M133.355,1c-2.481,0-4.5,2.01-4.5,4.48
				v241.318c0,2.471,2.019,4.48,4.5,4.48h52.928c2.481,0,4.5-2.01,4.5-4.48V5.48c0-2.471-2.019-4.48-4.5-4.48H133.355z"/>
		</g>
		<path fill="#C5C5BC" d="M191.283,246.799c0,2.752-2.239,4.98-5,4.98h-52.928c-2.762,0-5-2.229-5-4.98V5.48
			c0-2.75,2.238-4.98,5-4.98h52.928c2.761,0,5,2.23,5,4.98V246.799z"/>
		<path fill="#727272" d="M190.915,246.896c0,2.697-2.209,4.883-4.934,4.883h-52.218c-2.725,0-4.933-2.186-4.933-4.883V10.314
			c0-2.696,2.208-4.883,4.933-4.883h52.218c2.725,0,4.934,2.187,4.934,4.883V246.896z"/>
		<path fill="#ADACA2" d="M190.915,244.453c0,2.68-2.209,4.854-4.934,4.854h-52.218c-2.725,0-4.933-2.174-4.933-4.854V9.25
			c0-2.681,2.208-4.854,4.933-4.854h52.218c2.725,0,4.934,2.173,4.934,4.854V244.453z"/>
		<g>
			<circle fill="#2F302E" cx="159.819" cy="78.765" r="16.604"/>
			<circle fill="#FDFEFD" cx="159.819" cy="78.765" r="15.667"/>
			<ellipse fill="#616262" cx="159.819" cy="79.119" rx="15.667" ry="15.313"/>
			<ellipse fill="#A0A0A0" cx="159.819" cy="78.744" rx="15.667" ry="14.938"/>
			<circle fill="#DEDFE1" stroke="#616262" stroke-width="0.5" stroke-miterlimit="10" cx="159.819" cy="78.765" r="14.542"/>
			<path fill="none" stroke="#FFFFFF" stroke-miterlimit="10" d="M147.319,78.744"/>
			<path fill="none" stroke="#FFFFFF" stroke-miterlimit="10" d="M172.319,78.744c-0.001,3.238-1.231,6.188-3.251,8.408"/>
			<path fill="none" stroke="#FFFFFF" stroke-miterlimit="10" d="M147.319,78.744c0-6.902,5.597-12.5,12.5-12.5"/>
		</g>
		<g>
			<path fill="#434244" stroke="#151515" stroke-miterlimit="10" d="M183.418,193.773c0,1.709-1.486,3.096-3.318,3.096h-40.56
				c-1.833,0-3.319-1.387-3.319-3.096v-72.679c0-1.711,1.486-3.098,3.319-3.098h40.56c1.832,0,3.318,1.387,3.318,3.098V193.773z"/>
			<linearGradient id="SVGID_3_" gradientUnits="userSpaceOnUse" x1="159.8198" y1="194.6758" x2="159.8198" y2="120.1904">
				<stop  offset="0" style="stop-color:#000000"/>
				<stop  offset="0.064" style="stop-color:#23222A"/>
				<stop  offset="0.7586" style="stop-color:#191C20"/>
				<stop  offset="0.8177" style="stop-color:#5A5A6A"/>
				<stop  offset="0.8571" style="stop-color:#191C20"/>
				<stop  offset="0.9113" style="stop-color:#848594"/>
				<stop  offset="0.9557" style="stop-color:#23222A"/>
				<stop  offset="1" style="stop-color:#5A5A6A"/>
			</linearGradient>
			<path fill="url(#SVGID_3_)" d="M181.422,191.689c0,1.65-1.433,2.986-3.2,2.986h-36.804c-1.768,0-3.2-1.336-3.2-2.986v-68.513
				c0-1.65,1.433-2.986,3.2-2.986h36.804c1.768,0,3.2,1.336,3.2,2.986V191.689z"/>
		</g>
	</g>
	<g>
		<g>
			<path fill="#101010" d="M250.211,252.279h-52.928c-3.033,0-5.5-2.459-5.5-5.48V5.48c0-3.022,2.467-5.48,5.5-5.48h52.928
				c3.032,0,5.5,2.458,5.5,5.48v241.318C255.711,249.82,253.243,252.279,250.211,252.279z M197.283,1c-2.481,0-4.5,2.01-4.5,4.48
				v241.318c0,2.471,2.019,4.48,4.5,4.48h52.928c2.481,0,4.5-2.01,4.5-4.48V5.48c0-2.471-2.019-4.48-4.5-4.48H197.283z"/>
		</g>
		<path fill="#C5C5BC" d="M255.211,246.799c0,2.752-2.239,4.98-5,4.98h-52.928c-2.762,0-5-2.229-5-4.98V5.48
			c0-2.75,2.238-4.98,5-4.98h52.928c2.761,0,5,2.23,5,4.98V246.799z"/>
		<path fill="#727272" d="M254.843,246.896c0,2.697-2.209,4.883-4.934,4.883h-52.218c-2.725,0-4.933-2.186-4.933-4.883V10.314
			c0-2.696,2.208-4.883,4.933-4.883h52.218c2.725,0,4.934,2.187,4.934,4.883V246.896z"/>
		<path fill="#ADACA2" d="M254.843,244.453c0,2.68-2.209,4.854-4.934,4.854h-52.218c-2.725,0-4.933-2.174-4.933-4.854V9.25
			c0-2.681,2.208-4.854,4.933-4.854h52.218c2.725,0,4.934,2.173,4.934,4.854V244.453z"/>
		<g>
			<circle fill="#2F302E" cx="223.747" cy="78.765" r="16.604"/>
			<circle fill="#FDFEFD" cx="223.747" cy="78.765" r="15.667"/>
			<ellipse fill="#616262" cx="223.747" cy="79.119" rx="15.667" ry="15.313"/>
			<ellipse fill="#A0A0A0" cx="223.747" cy="78.744" rx="15.667" ry="14.938"/>
			<circle fill="#DEDFE1" stroke="#616262" stroke-width="0.5" stroke-miterlimit="10" cx="223.747" cy="78.765" r="14.542"/>
			<path fill="none" stroke="#FFFFFF" stroke-miterlimit="10" d="M211.247,78.744"/>
			<path fill="none" stroke="#FFFFFF" stroke-miterlimit="10" d="M236.247,78.744c-0.001,3.238-1.231,6.188-3.251,8.408"/>
			<path fill="none" stroke="#FFFFFF" stroke-miterlimit="10" d="M211.247,78.744c0-6.902,5.597-12.5,12.5-12.5"/>
		</g>
		<g>
			<path fill="#434244" stroke="#151515" stroke-miterlimit="10" d="M247.346,193.773c0,1.709-1.486,3.096-3.318,3.096h-40.56
				c-1.833,0-3.319-1.387-3.319-3.096v-72.679c0-1.711,1.486-3.098,3.319-3.098h40.56c1.832,0,3.318,1.387,3.318,3.098V193.773z"/>
			<linearGradient id="SVGID_4_" gradientUnits="userSpaceOnUse" x1="223.7476" y1="194.6758" x2="223.7476" y2="120.1904">
				<stop  offset="0" style="stop-color:#000000"/>
				<stop  offset="0.064" style="stop-color:#23222A"/>
				<stop  offset="0.7586" style="stop-color:#191C20"/>
				<stop  offset="0.8177" style="stop-color:#5A5A6A"/>
				<stop  offset="0.8571" style="stop-color:#191C20"/>
				<stop  offset="0.9113" style="stop-color:#848594"/>
				<stop  offset="0.9557" style="stop-color:#23222A"/>
				<stop  offset="1" style="stop-color:#5A5A6A"/>
			</linearGradient>
			<path fill="url(#SVGID_4_)" d="M245.35,191.689c0,1.65-1.433,2.986-3.2,2.986h-36.804c-1.768,0-3.2-1.336-3.2-2.986v-68.513
				c0-1.65,1.433-2.986,3.2-2.986h36.804c1.768,0,3.2,1.336,3.2,2.986V191.689z"/>
		</g>
	</g>
	<g>
		<g>
			<path fill="#101010" d="M314.139,252.279h-52.928c-3.033,0-5.5-2.459-5.5-5.48V5.48c0-3.022,2.467-5.48,5.5-5.48h52.928
				c3.032,0,5.5,2.458,5.5,5.48v241.318C319.639,249.82,317.171,252.279,314.139,252.279z M261.211,1c-2.481,0-4.5,2.01-4.5,4.48
				v241.318c0,2.471,2.019,4.48,4.5,4.48h52.928c2.481,0,4.5-2.01,4.5-4.48V5.48c0-2.471-2.019-4.48-4.5-4.48H261.211z"/>
		</g>
		<path fill="#C5C5BC" d="M319.139,246.799c0,2.752-2.239,4.98-5,4.98h-52.928c-2.762,0-5-2.229-5-4.98V5.48
			c0-2.75,2.238-4.98,5-4.98h52.928c2.761,0,5,2.23,5,4.98V246.799z"/>
		<path fill="#727272" d="M318.771,246.896c0,2.697-2.209,4.883-4.934,4.883h-52.218c-2.725,0-4.933-2.186-4.933-4.883V10.314
			c0-2.696,2.208-4.883,4.933-4.883h52.218c2.725,0,4.934,2.187,4.934,4.883V246.896z"/>
		<path fill="#ADACA2" d="M318.771,244.453c0,2.68-2.209,4.854-4.934,4.854h-52.218c-2.725,0-4.933-2.174-4.933-4.854V9.25
			c0-2.681,2.208-4.854,4.933-4.854h52.218c2.725,0,4.934,2.173,4.934,4.854V244.453z"/>
		<g>
			<circle fill="#2F302E" cx="287.675" cy="78.765" r="16.604"/>
			<circle fill="#FDFEFD" cx="287.674" cy="78.765" r="15.667"/>
			<ellipse fill="#616262" cx="287.674" cy="79.119" rx="15.667" ry="15.313"/>
			<ellipse fill="#A0A0A0" cx="287.674" cy="78.744" rx="15.667" ry="14.938"/>
			<circle fill="#DEDFE1" stroke="#616262" stroke-width="0.5" stroke-miterlimit="10" cx="287.674" cy="78.765" r="14.542"/>
			<path fill="none" stroke="#FFFFFF" stroke-miterlimit="10" d="M275.175,78.744"/>
			<path fill="none" stroke="#FFFFFF" stroke-miterlimit="10" d="M300.175,78.744c-0.001,3.238-1.231,6.188-3.251,8.408"/>
			<path fill="none" stroke="#FFFFFF" stroke-miterlimit="10" d="M275.175,78.744c0-6.902,5.597-12.5,12.5-12.5"/>
		</g>
		<g>
			<path fill="#434244" stroke="#151515" stroke-miterlimit="10" d="M311.273,193.773c0,1.709-1.486,3.096-3.318,3.096h-40.56
				c-1.833,0-3.319-1.387-3.319-3.096v-72.679c0-1.711,1.486-3.098,3.319-3.098h40.56c1.832,0,3.318,1.387,3.318,3.098V193.773z"/>
			<linearGradient id="SVGID_5_" gradientUnits="userSpaceOnUse" x1="287.6753" y1="194.6758" x2="287.6753" y2="120.1904">
				<stop  offset="0" style="stop-color:#000000"/>
				<stop  offset="0.064" style="stop-color:#23222A"/>
				<stop  offset="0.7586" style="stop-color:#191C20"/>
				<stop  offset="0.8177" style="stop-color:#5A5A6A"/>
				<stop  offset="0.8571" style="stop-color:#191C20"/>
				<stop  offset="0.9113" style="stop-color:#848594"/>
				<stop  offset="0.9557" style="stop-color:#23222A"/>
				<stop  offset="1" style="stop-color:#5A5A6A"/>
			</linearGradient>
			<path fill="url(#SVGID_5_)" d="M309.277,191.689c0,1.65-1.433,2.986-3.2,2.986h-36.804c-1.768,0-3.2-1.336-3.2-2.986v-68.513
				c0-1.65,1.433-2.986,3.2-2.986h36.804c1.768,0,3.2,1.336,3.2,2.986V191.689z"/>
		</g>
	</g>
	<g>
		<g>
			<path fill="#101010" d="M378.066,252.279h-52.928c-3.033,0-5.5-2.459-5.5-5.48V5.48c0-3.022,2.467-5.48,5.5-5.48h52.928
				c3.032,0,5.5,2.458,5.5,5.48v241.318C383.566,249.82,381.099,252.279,378.066,252.279z M325.139,1c-2.481,0-4.5,2.01-4.5,4.48
				v241.318c0,2.471,2.019,4.48,4.5,4.48h52.928c2.481,0,4.5-2.01,4.5-4.48V5.48c0-2.471-2.019-4.48-4.5-4.48H325.139z"/>
		</g>
		<path fill="#C5C5BC" d="M383.066,246.799c0,2.752-2.239,4.98-5,4.98h-52.928c-2.762,0-5-2.229-5-4.98V5.48
			c0-2.75,2.238-4.98,5-4.98h52.928c2.761,0,5,2.23,5,4.98V246.799z"/>
		<path fill="#727272" d="M382.698,246.896c0,2.697-2.209,4.883-4.934,4.883h-52.218c-2.725,0-4.933-2.186-4.933-4.883V10.314
			c0-2.696,2.208-4.883,4.933-4.883h52.218c2.725,0,4.934,2.187,4.934,4.883V246.896z"/>
		<path fill="#ADACA2" d="M382.698,244.453c0,2.68-2.209,4.854-4.934,4.854h-52.218c-2.725,0-4.933-2.174-4.933-4.854V9.25
			c0-2.681,2.208-4.854,4.933-4.854h52.218c2.725,0,4.934,2.173,4.934,4.854V244.453z"/>
		<g>
			<circle fill="#2F302E" cx="351.603" cy="78.765" r="16.604"/>
			<circle fill="#FDFEFD" cx="351.602" cy="78.765" r="15.667"/>
			<ellipse fill="#616262" cx="351.602" cy="79.119" rx="15.667" ry="15.313"/>
			<ellipse fill="#A0A0A0" cx="351.602" cy="78.744" rx="15.667" ry="14.938"/>
			<circle fill="#DEDFE1" stroke="#616262" stroke-width="0.5" stroke-miterlimit="10" cx="351.602" cy="78.765" r="14.542"/>
			<path fill="none" stroke="#FFFFFF" stroke-miterlimit="10" d="M339.103,78.744"/>
			<path fill="none" stroke="#FFFFFF" stroke-miterlimit="10" d="M364.103,78.744c-0.001,3.238-1.231,6.188-3.251,8.408"/>
			<path fill="none" stroke="#FFFFFF" stroke-miterlimit="10" d="M339.103,78.744c0-6.902,5.597-12.5,12.5-12.5"/>
		</g>
		<g>
			<path fill="#434244" stroke="#151515" stroke-miterlimit="10" d="M375.201,193.773c0,1.709-1.486,3.096-3.318,3.096h-40.56
				c-1.833,0-3.319-1.387-3.319-3.096v-72.679c0-1.711,1.486-3.098,3.319-3.098h40.56c1.832,0,3.318,1.387,3.318,3.098V193.773z"/>
			<linearGradient id="SVGID_6_" gradientUnits="userSpaceOnUse" x1="351.603" y1="194.6758" x2="351.603" y2="120.1904">
				<stop  offset="0" style="stop-color:#000000"/>
				<stop  offset="0.064" style="stop-color:#23222A"/>
				<stop  offset="0.7586" style="stop-color:#191C20"/>
				<stop  offset="0.8177" style="stop-color:#5A5A6A"/>
				<stop  offset="0.8571" style="stop-color:#191C20"/>
				<stop  offset="0.9113" style="stop-color:#848594"/>
				<stop  offset="0.9557" style="stop-color:#23222A"/>
				<stop  offset="1" style="stop-color:#5A5A6A"/>
			</linearGradient>
			<path fill="url(#SVGID_6_)" d="M373.205,191.689c0,1.65-1.433,2.986-3.2,2.986h-36.804c-1.768,0-3.2-1.336-3.2-2.986v-68.513
				c0-1.65,1.433-2.986,3.2-2.986h36.804c1.768,0,3.2,1.336,3.2,2.986V191.689z"/>
		</g>
	</g>
	<g>
		<g>
			<path fill="#101010" d="M441.994,252.279h-52.928c-3.033,0-5.5-2.459-5.5-5.48V5.48c0-3.022,2.467-5.48,5.5-5.48h52.928
				c3.032,0,5.5,2.458,5.5,5.48v241.318C447.494,249.82,445.026,252.279,441.994,252.279z M389.066,1c-2.481,0-4.5,2.01-4.5,4.48
				v241.318c0,2.471,2.019,4.48,4.5,4.48h52.928c2.481,0,4.5-2.01,4.5-4.48V5.48c0-2.471-2.019-4.48-4.5-4.48H389.066z"/>
		</g>
		<path fill="#C5C5BC" d="M446.994,246.799c0,2.752-2.239,4.98-5,4.98h-52.928c-2.762,0-5-2.229-5-4.98V5.48
			c0-2.75,2.238-4.98,5-4.98h52.928c2.761,0,5,2.23,5,4.98V246.799z"/>
		<path fill="#727272" d="M446.626,246.896c0,2.697-2.209,4.883-4.934,4.883h-52.218c-2.725,0-4.933-2.186-4.933-4.883V10.314
			c0-2.696,2.208-4.883,4.933-4.883h52.218c2.725,0,4.934,2.187,4.934,4.883V246.896z"/>
		<path fill="#ADACA2" d="M446.626,244.453c0,2.68-2.209,4.854-4.934,4.854h-52.218c-2.725,0-4.933-2.174-4.933-4.854V9.25
			c0-2.681,2.208-4.854,4.933-4.854h52.218c2.725,0,4.934,2.173,4.934,4.854V244.453z"/>
		<g>
			<circle fill="#2F302E" cx="415.53" cy="78.765" r="16.604"/>
			<circle fill="#FDFEFD" cx="415.53" cy="78.765" r="15.667"/>
			<ellipse fill="#616262" cx="415.53" cy="79.119" rx="15.667" ry="15.313"/>
			<ellipse fill="#A0A0A0" cx="415.53" cy="78.744" rx="15.667" ry="14.938"/>
			<circle fill="#DEDFE1" stroke="#616262" stroke-width="0.5" stroke-miterlimit="10" cx="415.53" cy="78.765" r="14.542"/>
			<path fill="none" stroke="#FFFFFF" stroke-miterlimit="10" d="M403.03,78.744"/>
			<path fill="none" stroke="#FFFFFF" stroke-miterlimit="10" d="M428.03,78.744c-0.001,3.238-1.231,6.188-3.251,8.408"/>
			<path fill="none" stroke="#FFFFFF" stroke-miterlimit="10" d="M403.03,78.744c0-6.902,5.597-12.5,12.5-12.5"/>
		</g>
		<g>
			<path fill="#434244" stroke="#151515" stroke-miterlimit="10" d="M439.129,193.773c0,1.709-1.486,3.096-3.318,3.096h-40.56
				c-1.833,0-3.319-1.387-3.319-3.096v-72.679c0-1.711,1.486-3.098,3.319-3.098h40.56c1.832,0,3.318,1.387,3.318,3.098V193.773z"/>
			<linearGradient id="SVGID_7_" gradientUnits="userSpaceOnUse" x1="415.5308" y1="194.6758" x2="415.5308" y2="120.1904">
				<stop  offset="0" style="stop-color:#000000"/>
				<stop  offset="0.064" style="stop-color:#23222A"/>
				<stop  offset="0.7586" style="stop-color:#191C20"/>
				<stop  offset="0.8177" style="stop-color:#5A5A6A"/>
				<stop  offset="0.8571" style="stop-color:#191C20"/>
				<stop  offset="0.9113" style="stop-color:#848594"/>
				<stop  offset="0.9557" style="stop-color:#23222A"/>
				<stop  offset="1" style="stop-color:#5A5A6A"/>
			</linearGradient>
			<path fill="url(#SVGID_7_)" d="M437.133,191.689c0,1.65-1.433,2.986-3.2,2.986h-36.804c-1.768,0-3.2-1.336-3.2-2.986v-68.513
				c0-1.65,1.433-2.986,3.2-2.986h36.804c1.768,0,3.2,1.336,3.2,2.986V191.689z"/>
		</g>
	</g>
	<g>
		<g>
			<path fill="#101010" d="M505.922,252.279h-52.928c-3.033,0-5.5-2.459-5.5-5.48V5.48c0-3.022,2.467-5.48,5.5-5.48h52.928
				c3.032,0,5.5,2.458,5.5,5.48v241.318C511.422,249.82,508.954,252.279,505.922,252.279z M452.994,1c-2.481,0-4.5,2.01-4.5,4.48
				v241.318c0,2.471,2.019,4.48,4.5,4.48h52.928c2.481,0,4.5-2.01,4.5-4.48V5.48c0-2.471-2.019-4.48-4.5-4.48H452.994z"/>
		</g>
		<path fill="#C5C5BC" d="M510.922,246.799c0,2.752-2.239,4.98-5,4.98h-52.928c-2.762,0-5-2.229-5-4.98V5.48
			c0-2.75,2.238-4.98,5-4.98h52.928c2.761,0,5,2.23,5,4.98V246.799z"/>
		<path fill="#727272" d="M510.554,246.896c0,2.697-2.209,4.883-4.934,4.883h-52.218c-2.725,0-4.933-2.186-4.933-4.883V10.314
			c0-2.696,2.208-4.883,4.933-4.883h52.218c2.725,0,4.934,2.187,4.934,4.883V246.896z"/>
		<path fill="#ADACA2" d="M510.554,244.453c0,2.68-2.209,4.854-4.934,4.854h-52.218c-2.725,0-4.933-2.174-4.933-4.854V9.25
			c0-2.681,2.208-4.854,4.933-4.854h52.218c2.725,0,4.934,2.173,4.934,4.854V244.453z"/>
		<g>
			<circle fill="#2F302E" cx="479.458" cy="78.765" r="16.604"/>
			<circle fill="#FDFEFD" cx="479.458" cy="78.765" r="15.667"/>
			<ellipse fill="#616262" cx="479.458" cy="79.119" rx="15.667" ry="15.313"/>
			<ellipse fill="#A0A0A0" cx="479.458" cy="78.744" rx="15.667" ry="14.938"/>
			<circle fill="#DEDFE1" stroke="#616262" stroke-width="0.5" stroke-miterlimit="10" cx="479.458" cy="78.765" r="14.542"/>
			<path fill="none" stroke="#FFFFFF" stroke-miterlimit="10" d="M466.958,78.744"/>
			<path fill="none" stroke="#FFFFFF" stroke-miterlimit="10" d="M491.958,78.744c-0.001,3.238-1.231,6.188-3.251,8.408"/>
			<path fill="none" stroke="#FFFFFF" stroke-miterlimit="10" d="M466.958,78.744c0-6.902,5.597-12.5,12.5-12.5"/>
		</g>
		<g>
			<path fill="#434244" stroke="#151515" stroke-miterlimit="10" d="M503.057,193.773c0,1.709-1.486,3.096-3.318,3.096h-40.56
				c-1.833,0-3.319-1.387-3.319-3.096v-72.679c0-1.711,1.486-3.098,3.319-3.098h40.56c1.832,0,3.318,1.387,3.318,3.098V193.773z"/>
			<linearGradient id="SVGID_8_" gradientUnits="userSpaceOnUse" x1="479.4585" y1="194.6758" x2="479.4585" y2="120.1904">
				<stop  offset="0" style="stop-color:#000000"/>
				<stop  offset="0.064" style="stop-color:#23222A"/>
				<stop  offset="0.7586" style="stop-color:#191C20"/>
				<stop  offset="0.8177" style="stop-color:#5A5A6A"/>
				<stop  offset="0.8571" style="stop-color:#191C20"/>
				<stop  offset="0.9113" style="stop-color:#848594"/>
				<stop  offset="0.9557" style="stop-color:#23222A"/>
				<stop  offset="1" style="stop-color:#5A5A6A"/>
			</linearGradient>
			<path fill="url(#SVGID_8_)" d="M501.061,191.689c0,1.65-1.433,2.986-3.2,2.986h-36.804c-1.768,0-3.2-1.336-3.2-2.986v-68.513
				c0-1.65,1.433-2.986,3.2-2.986h36.804c1.768,0,3.2,1.336,3.2,2.986V191.689z"/>
		</g>
	</g>
	<g>
		<g>
			<path fill="#101010" d="M569.849,252.279h-52.927c-3.033,0-5.5-2.459-5.5-5.48V5.48c0-3.022,2.467-5.48,5.5-5.48h52.927
				c3.033,0,5.5,2.458,5.5,5.48v241.318C575.349,249.82,572.882,252.279,569.849,252.279z M516.922,1c-2.481,0-4.5,2.01-4.5,4.48
				v241.318c0,2.471,2.019,4.48,4.5,4.48h52.927c2.482,0,4.5-2.01,4.5-4.48V5.48c0-2.471-2.018-4.48-4.5-4.48H516.922z"/>
		</g>
		<path fill="#C5C5BC" d="M574.849,246.799c0,2.752-2.238,4.98-5,4.98h-52.927c-2.762,0-5-2.229-5-4.98V5.48
			c0-2.75,2.238-4.98,5-4.98h52.927c2.762,0,5,2.23,5,4.98V246.799z"/>
		<path fill="#727272" d="M574.482,246.896c0,2.697-2.209,4.883-4.934,4.883H517.33c-2.725,0-4.933-2.186-4.933-4.883V10.314
			c0-2.696,2.208-4.883,4.933-4.883h52.218c2.725,0,4.934,2.187,4.934,4.883V246.896z"/>
		<path fill="#ADACA2" d="M574.482,244.453c0,2.68-2.209,4.854-4.934,4.854H517.33c-2.725,0-4.933-2.174-4.933-4.854V9.25
			c0-2.681,2.208-4.854,4.933-4.854h52.218c2.725,0,4.934,2.173,4.934,4.854V244.453z"/>
		<g>
			<circle fill="#2F302E" cx="543.385" cy="78.765" r="16.604"/>
			<circle fill="#FDFEFD" cx="543.385" cy="78.765" r="15.667"/>
			<ellipse fill="#616262" cx="543.385" cy="79.119" rx="15.667" ry="15.313"/>
			<ellipse fill="#A0A0A0" cx="543.385" cy="78.744" rx="15.667" ry="14.938"/>
			<circle fill="#DEDFE1" stroke="#616262" stroke-width="0.5" stroke-miterlimit="10" cx="543.385" cy="78.765" r="14.542"/>
			<path fill="none" stroke="#FFFFFF" stroke-miterlimit="10" d="M530.886,78.744"/>
			<path fill="none" stroke="#FFFFFF" stroke-miterlimit="10" d="M555.886,78.744c-0.002,3.238-1.232,6.188-3.252,8.408"/>
			<path fill="none" stroke="#FFFFFF" stroke-miterlimit="10" d="M530.886,78.744c0-6.902,5.597-12.5,12.5-12.5"/>
		</g>
		<g>
			<path fill="#434244" stroke="#151515" stroke-miterlimit="10" d="M566.984,193.773c0,1.709-1.486,3.096-3.318,3.096h-40.559
				c-1.833,0-3.319-1.387-3.319-3.096v-72.679c0-1.711,1.486-3.098,3.319-3.098h40.559c1.832,0,3.318,1.387,3.318,3.098V193.773z"/>
			<linearGradient id="SVGID_9_" gradientUnits="userSpaceOnUse" x1="543.3862" y1="194.6758" x2="543.3862" y2="120.1904">
				<stop  offset="0" style="stop-color:#000000"/>
				<stop  offset="0.064" style="stop-color:#23222A"/>
				<stop  offset="0.7586" style="stop-color:#191C20"/>
				<stop  offset="0.8177" style="stop-color:#5A5A6A"/>
				<stop  offset="0.8571" style="stop-color:#191C20"/>
				<stop  offset="0.9113" style="stop-color:#848594"/>
				<stop  offset="0.9557" style="stop-color:#23222A"/>
				<stop  offset="1" style="stop-color:#5A5A6A"/>
			</linearGradient>
			<path fill="url(#SVGID_9_)" d="M564.988,191.689c0,1.65-1.432,2.986-3.199,2.986h-36.804c-1.768,0-3.2-1.336-3.2-2.986v-68.513
				c0-1.65,1.433-2.986,3.2-2.986h36.804c1.768,0,3.199,1.336,3.199,2.986V191.689z"/>
		</g>
	</g>
	<g>
		<g>
			<path fill="#101010" d="M633.777,252.279h-52.928c-3.033,0-5.5-2.459-5.5-5.48V5.48c0-3.022,2.467-5.48,5.5-5.48h52.928
				c3.034,0,5.5,2.458,5.5,5.48v241.318C639.277,249.82,636.811,252.279,633.777,252.279z M580.849,1c-2.48,0-4.5,2.01-4.5,4.48
				v241.318c0,2.471,2.02,4.48,4.5,4.48h52.928c2.483,0,4.501-2.01,4.501-4.48V5.48c0-2.471-2.018-4.48-4.501-4.48H580.849z"/>
		</g>
		<path fill="#C5C5BC" d="M638.778,246.799c0,2.752-2.238,4.98-5.001,4.98h-52.928c-2.762,0-5-2.229-5-4.98V5.48
			c0-2.75,2.238-4.98,5-4.98h52.928c2.763,0,5.001,2.23,5.001,4.98V246.799z"/>
		<path fill="#727272" d="M638.411,246.896c0,2.697-2.209,4.883-4.935,4.883h-52.219c-2.725,0-4.932-2.186-4.932-4.883V10.314
			c0-2.696,2.207-4.883,4.932-4.883h52.219c2.726,0,4.935,2.187,4.935,4.883V246.896z"/>
		<path fill="#ADACA2" d="M638.411,244.453c0,2.68-2.209,4.854-4.935,4.854h-52.219c-2.725,0-4.932-2.174-4.932-4.854V9.25
			c0-2.681,2.207-4.854,4.932-4.854h52.219c2.726,0,4.935,2.173,4.935,4.854V244.453z"/>
		<g>
			<circle fill="#2F302E" cx="607.313" cy="78.765" r="16.604"/>
			<circle fill="#FDFEFD" cx="607.313" cy="78.765" r="15.667"/>
			<ellipse fill="#616262" cx="607.313" cy="79.119" rx="15.667" ry="15.313"/>
			<ellipse fill="#A0A0A0" cx="607.313" cy="78.744" rx="15.667" ry="14.938"/>
			<circle fill="#DEDFE1" stroke="#616262" stroke-width="0.5" stroke-miterlimit="10" cx="607.313" cy="78.765" r="14.542"/>
			<path fill="none" stroke="#FFFFFF" stroke-miterlimit="10" d="M594.814,78.744"/>
			<path fill="none" stroke="#FFFFFF" stroke-miterlimit="10" d="M619.814,78.744c-0.002,3.238-1.232,6.188-3.252,8.408"/>
			<path fill="none" stroke="#FFFFFF" stroke-miterlimit="10" d="M594.814,78.744c0-6.902,5.596-12.5,12.5-12.5"/>
		</g>
		<g>
			<path fill="#434244" stroke="#151515" stroke-miterlimit="10" d="M630.912,193.773c0,1.709-1.486,3.096-3.318,3.096h-40.559
				c-1.834,0-3.32-1.387-3.32-3.096v-72.679c0-1.711,1.486-3.098,3.32-3.098h40.559c1.832,0,3.318,1.387,3.318,3.098V193.773z"/>
			<linearGradient id="SVGID_10_" gradientUnits="userSpaceOnUse" x1="607.314" y1="194.6758" x2="607.314" y2="120.1904">
				<stop  offset="0" style="stop-color:#000000"/>
				<stop  offset="0.064" style="stop-color:#23222A"/>
				<stop  offset="0.7586" style="stop-color:#191C20"/>
				<stop  offset="0.8177" style="stop-color:#5A5A6A"/>
				<stop  offset="0.8571" style="stop-color:#191C20"/>
				<stop  offset="0.9113" style="stop-color:#848594"/>
				<stop  offset="0.9557" style="stop-color:#23222A"/>
				<stop  offset="1" style="stop-color:#5A5A6A"/>
			</linearGradient>
			<path fill="url(#SVGID_10_)" d="M628.916,191.689c0,1.65-1.432,2.986-3.199,2.986h-36.805c-1.768,0-3.199-1.336-3.199-2.986
				v-68.513c0-1.65,1.432-2.986,3.199-2.986h36.805c1.768,0,3.199,1.336,3.199,2.986V191.689z"/>
		</g>
	</g>
	<g>
		<g>
			<path fill="#101010" d="M697.705,252.279h-52.928c-3.033,0-5.5-2.459-5.5-5.48V5.48c0-3.022,2.467-5.48,5.5-5.48h52.928
				c3.033,0,5.5,2.458,5.5,5.48v241.318C703.205,249.82,700.738,252.279,697.705,252.279z M644.777,1c-2.48,0-4.5,2.01-4.5,4.48
				v241.318c0,2.471,2.02,4.48,4.5,4.48h52.928c2.482,0,4.5-2.01,4.5-4.48V5.48c0-2.471-2.018-4.48-4.5-4.48H644.777z"/>
		</g>
		<path fill="#C5C5BC" d="M702.705,246.799c0,2.752-2.238,4.98-5,4.98h-52.928c-2.762,0-5-2.229-5-4.98V5.48
			c0-2.75,2.238-4.98,5-4.98h52.928c2.762,0,5,2.23,5,4.98V246.799z"/>
		<path fill="#727272" d="M702.338,246.896c0,2.697-2.209,4.883-4.934,4.883h-52.219c-2.725,0-4.932-2.186-4.932-4.883V10.314
			c0-2.696,2.207-4.883,4.932-4.883h52.219c2.725,0,4.934,2.187,4.934,4.883V246.896z"/>
		<path fill="#ADACA2" d="M702.338,244.453c0,2.68-2.209,4.854-4.934,4.854h-52.219c-2.725,0-4.932-2.174-4.932-4.854V9.25
			c0-2.681,2.207-4.854,4.932-4.854h52.219c2.725,0,4.934,2.173,4.934,4.854V244.453z"/>
		<g>
			<circle fill="#2F302E" cx="671.241" cy="78.765" r="16.604"/>
			<circle fill="#FDFEFD" cx="671.241" cy="78.765" r="15.667"/>
			<ellipse fill="#616262" cx="671.241" cy="79.119" rx="15.667" ry="15.313"/>
			<ellipse fill="#A0A0A0" cx="671.241" cy="78.744" rx="15.667" ry="14.938"/>
			<circle fill="#DEDFE1" stroke="#616262" stroke-width="0.5" stroke-miterlimit="10" cx="671.241" cy="78.765" r="14.542"/>
			<path fill="none" stroke="#FFFFFF" stroke-miterlimit="10" d="M658.742,78.744"/>
			<path fill="none" stroke="#FFFFFF" stroke-miterlimit="10" d="M683.742,78.744c-0.002,3.238-1.232,6.188-3.252,8.408"/>
			<path fill="none" stroke="#FFFFFF" stroke-miterlimit="10" d="M658.742,78.744c0-6.902,5.596-12.5,12.5-12.5"/>
		</g>
		<g>
			<path fill="#434244" stroke="#151515" stroke-miterlimit="10" d="M694.84,193.773c0,1.709-1.486,3.096-3.318,3.096h-40.559
				c-1.834,0-3.32-1.387-3.32-3.096v-72.679c0-1.711,1.486-3.098,3.32-3.098h40.559c1.832,0,3.318,1.387,3.318,3.098V193.773z"/>
			<linearGradient id="SVGID_11_" gradientUnits="userSpaceOnUse" x1="671.2422" y1="194.6758" x2="671.2422" y2="120.1904">
				<stop  offset="0" style="stop-color:#000000"/>
				<stop  offset="0.064" style="stop-color:#23222A"/>
				<stop  offset="0.7586" style="stop-color:#191C20"/>
				<stop  offset="0.8177" style="stop-color:#5A5A6A"/>
				<stop  offset="0.8571" style="stop-color:#191C20"/>
				<stop  offset="0.9113" style="stop-color:#848594"/>
				<stop  offset="0.9557" style="stop-color:#23222A"/>
				<stop  offset="1" style="stop-color:#5A5A6A"/>
			</linearGradient>
			<path fill="url(#SVGID_11_)" d="M692.844,191.689c0,1.65-1.432,2.986-3.199,2.986H652.84c-1.768,0-3.199-1.336-3.199-2.986
				v-68.513c0-1.65,1.432-2.986,3.199-2.986h36.805c1.768,0,3.199,1.336,3.199,2.986V191.689z"/>
		</g>
	</g>
	<g>
		<g>
			<path fill="#101010" d="M761.633,252.279h-52.928c-3.033,0-5.5-2.459-5.5-5.48V5.48c0-3.022,2.467-5.48,5.5-5.48h52.928
				c3.033,0,5.5,2.458,5.5,5.48v241.318C767.133,249.82,764.666,252.279,761.633,252.279z M708.705,1c-2.48,0-4.5,2.01-4.5,4.48
				v241.318c0,2.471,2.02,4.48,4.5,4.48h52.928c2.482,0,4.5-2.01,4.5-4.48V5.48c0-2.471-2.018-4.48-4.5-4.48H708.705z"/>
		</g>
		<path fill="#C5C5BC" d="M766.633,246.799c0,2.752-2.238,4.98-5,4.98h-52.928c-2.762,0-5-2.229-5-4.98V5.48
			c0-2.75,2.238-4.98,5-4.98h52.928c2.762,0,5,2.23,5,4.98V246.799z"/>
		<path fill="#727272" d="M766.266,246.896c0,2.697-2.209,4.883-4.934,4.883h-52.219c-2.725,0-4.932-2.186-4.932-4.883V10.314
			c0-2.696,2.207-4.883,4.932-4.883h52.219c2.725,0,4.934,2.187,4.934,4.883V246.896z"/>
		<path fill="#ADACA2" d="M766.266,244.453c0,2.68-2.209,4.854-4.934,4.854h-52.219c-2.725,0-4.932-2.174-4.932-4.854V9.25
			c0-2.681,2.207-4.854,4.932-4.854h52.219c2.725,0,4.934,2.173,4.934,4.854V244.453z"/>
		<g>
			<circle fill="#2F302E" cx="735.169" cy="78.765" r="16.604"/>
			<circle fill="#FDFEFD" cx="735.169" cy="78.765" r="15.667"/>
			<ellipse fill="#616262" cx="735.169" cy="79.119" rx="15.667" ry="15.313"/>
			<ellipse fill="#A0A0A0" cx="735.169" cy="78.744" rx="15.667" ry="14.938"/>
			<circle fill="#DEDFE1" stroke="#616262" stroke-width="0.5" stroke-miterlimit="10" cx="735.169" cy="78.765" r="14.542"/>
			<path fill="none" stroke="#FFFFFF" stroke-miterlimit="10" d="M722.67,78.744"/>
			<path fill="none" stroke="#FFFFFF" stroke-miterlimit="10" d="M747.67,78.744c-0.002,3.238-1.232,6.188-3.252,8.408"/>
			<path fill="none" stroke="#FFFFFF" stroke-miterlimit="10" d="M722.67,78.744c0-6.902,5.596-12.5,12.5-12.5"/>
		</g>
		<g>
			<path fill="#434244" stroke="#151515" stroke-miterlimit="10" d="M758.768,193.773c0,1.709-1.486,3.096-3.318,3.096h-40.559
				c-1.834,0-3.32-1.387-3.32-3.096v-72.679c0-1.711,1.486-3.098,3.32-3.098h40.559c1.832,0,3.318,1.387,3.318,3.098V193.773z"/>
			<linearGradient id="SVGID_12_" gradientUnits="userSpaceOnUse" x1="735.1699" y1="194.6758" x2="735.1699" y2="120.1904">
				<stop  offset="0" style="stop-color:#000000"/>
				<stop  offset="0.064" style="stop-color:#23222A"/>
				<stop  offset="0.7586" style="stop-color:#191C20"/>
				<stop  offset="0.8177" style="stop-color:#5A5A6A"/>
				<stop  offset="0.8571" style="stop-color:#191C20"/>
				<stop  offset="0.9113" style="stop-color:#848594"/>
				<stop  offset="0.9557" style="stop-color:#23222A"/>
				<stop  offset="1" style="stop-color:#5A5A6A"/>
			</linearGradient>
			<path fill="url(#SVGID_12_)" d="M756.771,191.689c0,1.65-1.432,2.986-3.199,2.986h-36.805c-1.768,0-3.199-1.336-3.199-2.986
				v-68.513c0-1.65,1.432-2.986,3.199-2.986h36.805c1.768,0,3.199,1.336,3.199,2.986V191.689z"/>
		</g>
	</g>
	<g>
		<g>
			<path fill="#101010" d="M825.561,252.279h-52.928c-3.033,0-5.5-2.459-5.5-5.48V5.48c0-3.022,2.467-5.48,5.5-5.48h52.928
				c3.033,0,5.5,2.458,5.5,5.48v241.318C831.061,249.82,828.594,252.279,825.561,252.279z M772.633,1c-2.48,0-4.5,2.01-4.5,4.48
				v241.318c0,2.471,2.02,4.48,4.5,4.48h52.928c2.482,0,4.5-2.01,4.5-4.48V5.48c0-2.471-2.018-4.48-4.5-4.48H772.633z"/>
		</g>
		<path fill="#C5C5BC" d="M830.561,246.799c0,2.752-2.238,4.98-5,4.98h-52.928c-2.762,0-5-2.229-5-4.98V5.48
			c0-2.75,2.238-4.98,5-4.98h52.928c2.762,0,5,2.23,5,4.98V246.799z"/>
		<path fill="#727272" d="M830.193,246.896c0,2.697-2.209,4.883-4.934,4.883h-52.219c-2.725,0-4.932-2.186-4.932-4.883V10.314
			c0-2.696,2.207-4.883,4.932-4.883h52.219c2.725,0,4.934,2.187,4.934,4.883V246.896z"/>
		<path fill="#ADACA2" d="M830.193,244.453c0,2.68-2.209,4.854-4.934,4.854h-52.219c-2.725,0-4.932-2.174-4.932-4.854V9.25
			c0-2.681,2.207-4.854,4.932-4.854h52.219c2.725,0,4.934,2.173,4.934,4.854V244.453z"/>
		<g>
			<circle fill="#2F302E" cx="799.097" cy="78.765" r="16.604"/>
			<circle fill="#FDFEFD" cx="799.097" cy="78.765" r="15.667"/>
			<ellipse fill="#616262" cx="799.097" cy="79.119" rx="15.667" ry="15.313"/>
			<ellipse fill="#A0A0A0" cx="799.097" cy="78.744" rx="15.667" ry="14.938"/>
			<circle fill="#DEDFE1" stroke="#616262" stroke-width="0.5" stroke-miterlimit="10" cx="799.097" cy="78.765" r="14.542"/>
			<path fill="none" stroke="#FFFFFF" stroke-miterlimit="10" d="M786.598,78.744"/>
			<path fill="none" stroke="#FFFFFF" stroke-miterlimit="10" d="M811.598,78.744c-0.002,3.238-1.232,6.188-3.252,8.408"/>
			<path fill="none" stroke="#FFFFFF" stroke-miterlimit="10" d="M786.598,78.744c0-6.902,5.596-12.5,12.5-12.5"/>
		</g>
		<g>
			<path fill="#434244" stroke="#151515" stroke-miterlimit="10" d="M822.695,193.773c0,1.709-1.486,3.096-3.318,3.096h-40.559
				c-1.834,0-3.32-1.387-3.32-3.096v-72.679c0-1.711,1.486-3.098,3.32-3.098h40.559c1.832,0,3.318,1.387,3.318,3.098V193.773z"/>
			<linearGradient id="SVGID_13_" gradientUnits="userSpaceOnUse" x1="799.0977" y1="194.6758" x2="799.0977" y2="120.1904">
				<stop  offset="0" style="stop-color:#000000"/>
				<stop  offset="0.064" style="stop-color:#23222A"/>
				<stop  offset="0.7586" style="stop-color:#191C20"/>
				<stop  offset="0.8177" style="stop-color:#5A5A6A"/>
				<stop  offset="0.8571" style="stop-color:#191C20"/>
				<stop  offset="0.9113" style="stop-color:#848594"/>
				<stop  offset="0.9557" style="stop-color:#23222A"/>
				<stop  offset="1" style="stop-color:#5A5A6A"/>
			</linearGradient>
			<path fill="url(#SVGID_13_)" d="M820.699,191.689c0,1.65-1.432,2.986-3.199,2.986h-36.805c-1.768,0-3.199-1.336-3.199-2.986
				v-68.513c0-1.65,1.432-2.986,3.199-2.986H817.5c1.768,0,3.199,1.336,3.199,2.986V191.689z"/>
		</g>
	</g>
	<g>
		<g>
			<path fill="#101010" d="M889.488,252.279h-52.928c-3.033,0-5.5-2.459-5.5-5.48V5.48c0-3.022,2.467-5.48,5.5-5.48h52.928
				c3.033,0,5.5,2.458,5.5,5.48v241.318C894.988,249.82,892.521,252.279,889.488,252.279z M836.561,1c-2.48,0-4.5,2.01-4.5,4.48
				v241.318c0,2.471,2.02,4.48,4.5,4.48h52.928c2.482,0,4.5-2.01,4.5-4.48V5.48c0-2.471-2.018-4.48-4.5-4.48H836.561z"/>
		</g>
		<path fill="#C5C5BC" d="M894.488,246.799c0,2.752-2.238,4.98-5,4.98h-52.928c-2.762,0-5-2.229-5-4.98V5.48
			c0-2.75,2.238-4.98,5-4.98h52.928c2.762,0,5,2.23,5,4.98V246.799z"/>
		<path fill="#727272" d="M894.121,246.896c0,2.697-2.209,4.883-4.934,4.883h-52.219c-2.725,0-4.932-2.186-4.932-4.883V10.314
			c0-2.696,2.207-4.883,4.932-4.883h52.219c2.725,0,4.934,2.187,4.934,4.883V246.896z"/>
		<path fill="#ADACA2" d="M894.121,244.453c0,2.68-2.209,4.854-4.934,4.854h-52.219c-2.725,0-4.932-2.174-4.932-4.854V9.25
			c0-2.681,2.207-4.854,4.932-4.854h52.219c2.725,0,4.934,2.173,4.934,4.854V244.453z"/>
		<g>
			<circle fill="#2F302E" cx="863.024" cy="78.765" r="16.604"/>
			<circle fill="#FDFEFD" cx="863.024" cy="78.765" r="15.667"/>
			<ellipse fill="#616262" cx="863.024" cy="79.119" rx="15.667" ry="15.313"/>
			<ellipse fill="#A0A0A0" cx="863.024" cy="78.744" rx="15.667" ry="14.938"/>
			<circle fill="#DEDFE1" stroke="#616262" stroke-width="0.5" stroke-miterlimit="10" cx="863.024" cy="78.765" r="14.542"/>
			<path fill="none" stroke="#FFFFFF" stroke-miterlimit="10" d="M850.525,78.744"/>
			<path fill="none" stroke="#FFFFFF" stroke-miterlimit="10" d="M875.525,78.744c-0.002,3.238-1.232,6.188-3.252,8.408"/>
			<path fill="none" stroke="#FFFFFF" stroke-miterlimit="10" d="M850.525,78.744c0-6.902,5.596-12.5,12.5-12.5"/>
		</g>
		<g>
			<path fill="#434244" stroke="#151515" stroke-miterlimit="10" d="M886.623,193.773c0,1.709-1.486,3.096-3.318,3.096h-40.559
				c-1.834,0-3.32-1.387-3.32-3.096v-72.679c0-1.711,1.486-3.098,3.32-3.098h40.559c1.832,0,3.318,1.387,3.318,3.098V193.773z"/>
			<linearGradient id="SVGID_14_" gradientUnits="userSpaceOnUse" x1="863.0254" y1="194.6758" x2="863.0254" y2="120.1904">
				<stop  offset="0" style="stop-color:#000000"/>
				<stop  offset="0.064" style="stop-color:#23222A"/>
				<stop  offset="0.7586" style="stop-color:#191C20"/>
				<stop  offset="0.8177" style="stop-color:#5A5A6A"/>
				<stop  offset="0.8571" style="stop-color:#191C20"/>
				<stop  offset="0.9113" style="stop-color:#848594"/>
				<stop  offset="0.9557" style="stop-color:#23222A"/>
				<stop  offset="1" style="stop-color:#5A5A6A"/>
			</linearGradient>
			<path fill="url(#SVGID_14_)" d="M884.627,191.689c0,1.65-1.432,2.986-3.199,2.986h-36.805c-1.768,0-3.199-1.336-3.199-2.986
				v-68.513c0-1.65,1.432-2.986,3.199-2.986h36.805c1.768,0,3.199,1.336,3.199,2.986V191.689z"/>
		</g>
	</g>
	<g>
		<g>
			<path fill="#101010" d="M953.416,252.279h-52.928c-3.033,0-5.5-2.459-5.5-5.48V5.48c0-3.022,2.467-5.48,5.5-5.48h52.928
				c3.033,0,5.5,2.458,5.5,5.48v241.318C958.916,249.82,956.449,252.279,953.416,252.279z M900.488,1c-2.48,0-4.5,2.01-4.5,4.48
				v241.318c0,2.471,2.02,4.48,4.5,4.48h52.928c2.482,0,4.5-2.01,4.5-4.48V5.48c0-2.471-2.018-4.48-4.5-4.48H900.488z"/>
		</g>
		<path fill="#C5C5BC" d="M958.416,246.799c0,2.752-2.238,4.98-5,4.98h-52.928c-2.762,0-5-2.229-5-4.98V5.48
			c0-2.75,2.238-4.98,5-4.98h52.928c2.762,0,5,2.23,5,4.98V246.799z"/>
		<path fill="#727272" d="M958.049,246.896c0,2.697-2.209,4.883-4.934,4.883h-52.219c-2.725,0-4.932-2.186-4.932-4.883V10.314
			c0-2.696,2.207-4.883,4.932-4.883h52.219c2.725,0,4.934,2.187,4.934,4.883V246.896z"/>
		<path fill="#ADACA2" d="M958.049,244.453c0,2.68-2.209,4.854-4.934,4.854h-52.219c-2.725,0-4.932-2.174-4.932-4.854V9.25
			c0-2.681,2.207-4.854,4.932-4.854h52.219c2.725,0,4.934,2.173,4.934,4.854V244.453z"/>
		<g>
			<circle fill="#2F302E" cx="926.952" cy="78.765" r="16.604"/>
			<circle fill="#FDFEFD" cx="926.952" cy="78.765" r="15.667"/>
			<ellipse fill="#616262" cx="926.952" cy="79.119" rx="15.667" ry="15.313"/>
			<ellipse fill="#A0A0A0" cx="926.952" cy="78.744" rx="15.667" ry="14.938"/>
			<circle fill="#DEDFE1" stroke="#616262" stroke-width="0.5" stroke-miterlimit="10" cx="926.952" cy="78.765" r="14.542"/>
			<path fill="none" stroke="#FFFFFF" stroke-miterlimit="10" d="M914.453,78.744"/>
			<path fill="none" stroke="#FFFFFF" stroke-miterlimit="10" d="M939.453,78.744c-0.002,3.238-1.232,6.188-3.252,8.408"/>
			<path fill="none" stroke="#FFFFFF" stroke-miterlimit="10" d="M914.453,78.744c0-6.902,5.596-12.5,12.5-12.5"/>
		</g>
		<g>
			<path fill="#434244" stroke="#151515" stroke-miterlimit="10" d="M950.551,193.773c0,1.709-1.486,3.096-3.318,3.096h-40.559
				c-1.834,0-3.32-1.387-3.32-3.096v-72.679c0-1.711,1.486-3.098,3.32-3.098h40.559c1.832,0,3.318,1.387,3.318,3.098V193.773z"/>
			<linearGradient id="SVGID_15_" gradientUnits="userSpaceOnUse" x1="926.9531" y1="194.6758" x2="926.9531" y2="120.1904">
				<stop  offset="0" style="stop-color:#000000"/>
				<stop  offset="0.064" style="stop-color:#23222A"/>
				<stop  offset="0.7586" style="stop-color:#191C20"/>
				<stop  offset="0.8177" style="stop-color:#5A5A6A"/>
				<stop  offset="0.8571" style="stop-color:#191C20"/>
				<stop  offset="0.9113" style="stop-color:#848594"/>
				<stop  offset="0.9557" style="stop-color:#23222A"/>
				<stop  offset="1" style="stop-color:#5A5A6A"/>
			</linearGradient>
			<path fill="url(#SVGID_15_)" d="M948.555,191.689c0,1.65-1.432,2.986-3.199,2.986h-36.805c-1.768,0-3.199-1.336-3.199-2.986
				v-68.513c0-1.65,1.432-2.986,3.199-2.986h36.805c1.768,0,3.199,1.336,3.199,2.986V191.689z"/>
		</g>
	</g>
	<g>
		<g>
			<path fill="#101010" d="M1017.344,252.279h-52.928c-3.033,0-5.5-2.459-5.5-5.48V5.481c0-3.022,2.467-5.48,5.5-5.48h52.928
				c3.033,0,5.5,2.458,5.5,5.48v241.318C1022.844,249.82,1020.377,252.279,1017.344,252.279z M964.416,1c-2.48,0-4.5,2.01-4.5,4.48
				v241.318c0,2.471,2.02,4.48,4.5,4.48h52.928c2.482,0,4.5-2.01,4.5-4.48V5.481c0-2.471-2.018-4.48-4.5-4.48H964.416z"/>
		</g>
		<path fill="#C5C5BC" d="M1022.344,246.799c0,2.752-2.238,4.98-5,4.98h-52.928c-2.762,0-5-2.229-5-4.98V5.481
			c0-2.75,2.238-4.98,5-4.98h52.928c2.762,0,5,2.23,5,4.98V246.799z"/>
		<path fill="#727272" d="M1021.977,246.896c0,2.697-2.209,4.883-4.934,4.883h-52.219c-2.725,0-4.932-2.186-4.932-4.883V10.315
			c0-2.696,2.207-4.883,4.932-4.883h52.219c2.725,0,4.934,2.187,4.934,4.883V246.896z"/>
		<path fill="#ADACA2" d="M1021.977,244.453c0,2.68-2.209,4.854-4.934,4.854h-52.219c-2.725,0-4.932-2.174-4.932-4.854V9.25
			c0-2.681,2.207-4.854,4.932-4.854h52.219c2.725,0,4.934,2.173,4.934,4.854V244.453z"/>
		<g>
			<circle fill="#2F302E" cx="990.88" cy="78.765" r="16.604"/>
			<circle fill="#FDFEFD" cx="990.88" cy="78.765" r="15.667"/>
			<ellipse fill="#616262" cx="990.88" cy="79.12" rx="15.667" ry="15.313"/>
			<ellipse fill="#A0A0A0" cx="990.88" cy="78.745" rx="15.667" ry="14.938"/>
			<circle fill="#DEDFE1" stroke="#616262" stroke-width="0.5" stroke-miterlimit="10" cx="990.88" cy="78.765" r="14.542"/>
			<path fill="none" stroke="#FFFFFF" stroke-miterlimit="10" d="M978.381,78.745"/>
			<path fill="none" stroke="#FFFFFF" stroke-miterlimit="10" d="M1003.381,78.745c-0.002,3.237-1.232,6.187-3.252,8.407"/>
			<path fill="none" stroke="#FFFFFF" stroke-miterlimit="10" d="M978.381,78.745c0-6.903,5.596-12.5,12.5-12.5"/>
		</g>
		<g>
			<path fill="#434244" stroke="#151515" stroke-miterlimit="10" d="M1014.479,193.773c0,1.709-1.486,3.096-3.318,3.096h-40.559
				c-1.834,0-3.32-1.387-3.32-3.096v-72.679c0-1.711,1.486-3.098,3.32-3.098h40.559c1.832,0,3.318,1.387,3.318,3.098V193.773z"/>
			<linearGradient id="SVGID_16_" gradientUnits="userSpaceOnUse" x1="990.8809" y1="194.6758" x2="990.8809" y2="120.1904">
				<stop  offset="0" style="stop-color:#000000"/>
				<stop  offset="0.064" style="stop-color:#23222A"/>
				<stop  offset="0.7586" style="stop-color:#191C20"/>
				<stop  offset="0.8177" style="stop-color:#5A5A6A"/>
				<stop  offset="0.8571" style="stop-color:#191C20"/>
				<stop  offset="0.9113" style="stop-color:#848594"/>
				<stop  offset="0.9557" style="stop-color:#23222A"/>
				<stop  offset="1" style="stop-color:#5A5A6A"/>
			</linearGradient>
			<path fill="url(#SVGID_16_)" d="M1012.482,191.689c0,1.65-1.432,2.986-3.199,2.986h-36.805c-1.768,0-3.199-1.336-3.199-2.986
				v-68.513c0-1.65,1.432-2.986,3.199-2.986h36.805c1.768,0,3.199,1.336,3.199,2.986V191.689z"/>
		</g>
	</g>
	<g>
		<g>
			<g>
				<path fill="#101010" d="M1080.594,252.279h-52.313c-3,0-5.438-2.457-5.438-5.48V5.481c0-3.022,2.438-5.48,5.438-5.48h52.313
					c2.998,0,5.436,2.458,5.436,5.48v241.318C1086.029,249.822,1083.592,252.279,1080.594,252.279z M1028.281,1
					c-2.453,0-4.449,2.01-4.449,4.48v241.318c0,2.471,1.996,4.48,4.449,4.48h52.313c2.455,0,4.449-2.01,4.449-4.48V5.481
					c0-2.471-1.994-4.48-4.449-4.48H1028.281z"/>
			</g>
			<path fill="#C5C5BC" d="M1085.537,246.799c0,2.752-2.215,4.98-4.943,4.98h-52.313c-2.73,0-4.943-2.229-4.943-4.98V5.481
				c0-2.75,2.213-4.98,4.943-4.98h52.313c2.729,0,4.943,2.23,4.943,4.98V246.799z"/>
			<path fill="#727272" d="M1085.172,246.896c0,2.697-2.184,4.883-4.877,4.883h-51.611c-2.693,0-4.875-2.186-4.875-4.883V10.315
				c0-2.696,2.182-4.883,4.875-4.883h51.611c2.693,0,4.877,2.187,4.877,4.883V246.896z"/>
			<path fill="#ADACA2" d="M1085.172,244.453c0,2.682-2.184,4.854-4.877,4.854h-51.611c-2.693,0-4.875-2.172-4.875-4.854V9.25
				c0-2.681,2.182-4.854,4.875-4.854h51.611c2.693,0,4.877,2.173,4.877,4.854V244.453z"/>
			<g>
				<path fill="#434244" stroke="#151515" stroke-miterlimit="10" d="M1077.762,193.773c0,1.709-1.469,3.096-3.279,3.096h-40.088
					c-1.813,0-3.281-1.387-3.281-3.096v-72.679c0-1.711,1.469-3.098,3.281-3.098h40.088c1.811,0,3.279,1.387,3.279,3.098V193.773z"
					/>
				<linearGradient id="SVGID_17_" gradientUnits="userSpaceOnUse" x1="1054.4375" y1="194.6758" x2="1054.4375" y2="120.1904">
					<stop  offset="0" style="stop-color:#000000"/>
					<stop  offset="0.064" style="stop-color:#23222A"/>
					<stop  offset="0.7586" style="stop-color:#191C20"/>
					<stop  offset="0.8177" style="stop-color:#5A5A6A"/>
					<stop  offset="0.8571" style="stop-color:#191C20"/>
					<stop  offset="0.9113" style="stop-color:#848594"/>
					<stop  offset="0.9557" style="stop-color:#23222A"/>
					<stop  offset="1" style="stop-color:#5A5A6A"/>
				</linearGradient>
				<path fill="url(#SVGID_17_)" d="M1075.789,191.689c0,1.65-1.416,2.986-3.162,2.986h-36.379c-1.746,0-3.162-1.336-3.162-2.986
					v-68.513c0-1.65,1.416-2.986,3.162-2.986h36.379c1.746,0,3.162,1.336,3.162,2.986V191.689z"/>
			</g>
			<g>
				<ellipse fill="#4C4B47" cx="1054.438" cy="78.566" rx="16.215" ry="16.406"/>
				<g>
					<path fill="#BBB9B0" d="M1070.033,78.566c0,8.716-6.982,15.781-15.594,15.781c-8.617,0-15.6-7.065-15.6-15.781
						c0-8.715,6.982-15.78,15.6-15.78C1063.051,62.786,1070.033,69.851,1070.033,78.566z"/>
					<g>
						<g>
							<path fill="#DCDAD7" d="M1054.439,92.085c-7.371,0-13.365-6.064-13.365-13.52c0-7.453,5.994-13.518,13.365-13.518
								c7.365,0,13.359,6.065,13.359,13.518C1067.799,86.021,1061.805,92.085,1054.439,92.085z M1054.439,66.048
								c-6.824,0-12.375,5.616-12.375,12.518c0,6.903,5.551,12.52,12.375,12.52c6.822,0,12.371-5.616,12.371-12.52
								C1066.811,71.664,1061.262,66.048,1054.439,66.048z"/>
						</g>
						<g>
							<path fill="#FFFFFF" d="M1054.439,92.085v-1c6.822,0,12.371-5.616,12.371-12.52h0.988
								C1067.799,86.021,1061.805,92.085,1054.439,92.085z"/>
						</g>
						<g>
							<path fill="#FFFFFF" d="M1042.064,78.566h-0.99c0-7.453,5.994-13.518,13.365-13.518v1
								C1047.615,66.048,1042.064,71.664,1042.064,78.566z"/>
						</g>
						<ellipse fill="#3B2B24" cx="1054.438" cy="78.566" rx="10.896" ry="11.023"/>
					</g>
				</g>
			</g>
		</g>
		<g>
			<g>
				<path fill="#101010" d="M1143.781,252.279h-52.314c-2.998,0-5.438-2.457-5.438-5.48V5.481c0-3.022,2.439-5.48,5.438-5.48h52.314
					c2.998,0,5.436,2.458,5.436,5.48v241.318C1149.217,249.822,1146.779,252.279,1143.781,252.279z M1091.467,1
					c-2.453,0-4.447,2.01-4.447,4.48v241.318c0,2.471,1.994,4.48,4.447,4.48h52.314c2.451,0,4.447-2.01,4.447-4.48V5.481
					c0-2.471-1.996-4.48-4.447-4.48H1091.467z"/>
			</g>
			<path fill="#C5C5BC" d="M1148.723,246.799c0,2.752-2.213,4.98-4.941,4.98h-52.314c-2.729,0-4.941-2.229-4.941-4.98V5.481
				c0-2.75,2.213-4.98,4.941-4.98h52.314c2.729,0,4.941,2.23,4.941,4.98V246.799z"/>
			<path fill="#727272" d="M1148.359,246.896c0,2.697-2.184,4.883-4.877,4.883h-51.611c-2.693,0-4.875-2.186-4.875-4.883V10.315
				c0-2.696,2.182-4.883,4.875-4.883h51.611c2.693,0,4.877,2.187,4.877,4.883V246.896z"/>
			<path fill="#ADACA2" d="M1148.359,244.453c0,2.682-2.184,4.854-4.877,4.854h-51.611c-2.693,0-4.875-2.172-4.875-4.854V9.25
				c0-2.681,2.182-4.854,4.875-4.854h51.611c2.693,0,4.877,2.173,4.877,4.854V244.453z"/>
			<g>
				<path fill="#434244" stroke="#151515" stroke-miterlimit="10" d="M1140.949,193.773c0,1.709-1.469,3.096-3.281,3.096h-40.088
					c-1.813,0-3.281-1.387-3.281-3.096v-72.679c0-1.711,1.469-3.098,3.281-3.098h40.088c1.813,0,3.281,1.387,3.281,3.098V193.773z"
					/>
				<linearGradient id="SVGID_18_" gradientUnits="userSpaceOnUse" x1="1117.624" y1="194.6758" x2="1117.624" y2="120.1904">
					<stop  offset="0" style="stop-color:#000000"/>
					<stop  offset="0.064" style="stop-color:#23222A"/>
					<stop  offset="0.7586" style="stop-color:#191C20"/>
					<stop  offset="0.8177" style="stop-color:#5A5A6A"/>
					<stop  offset="0.8571" style="stop-color:#191C20"/>
					<stop  offset="0.9113" style="stop-color:#848594"/>
					<stop  offset="0.9557" style="stop-color:#23222A"/>
					<stop  offset="1" style="stop-color:#5A5A6A"/>
				</linearGradient>
				<path fill="url(#SVGID_18_)" d="M1138.975,191.689c0,1.65-1.414,2.986-3.162,2.986h-36.377c-1.746,0-3.162-1.336-3.162-2.986
					v-68.513c0-1.65,1.416-2.986,3.162-2.986h36.377c1.748,0,3.162,1.336,3.162,2.986V191.689z"/>
			</g>
			<g>
				<ellipse fill="#4C4B47" cx="1117.624" cy="78.566" rx="16.216" ry="16.406"/>
				<g>
					<ellipse fill="#BBB9B0" cx="1117.624" cy="78.566" rx="15.597" ry="15.781"/>
					<g>
						<g>
							<path fill="#DCDAD7" d="M1117.625,92.085c-7.369,0-13.363-6.064-13.363-13.52c0-7.453,5.994-13.518,13.363-13.518
								c7.365,0,13.359,6.065,13.359,13.518C1130.984,86.021,1124.99,92.085,1117.625,92.085z M1117.625,66.048
								c-6.824,0-12.375,5.616-12.375,12.518c0,6.903,5.551,12.52,12.375,12.52c6.822,0,12.373-5.616,12.373-12.52
								C1129.998,71.664,1124.447,66.048,1117.625,66.048z"/>
						</g>
						<g>
							<path fill="#FFFFFF" d="M1117.625,92.085v-1c6.822,0,12.373-5.616,12.373-12.52h0.986
								C1130.984,86.021,1124.99,92.085,1117.625,92.085z"/>
						</g>
						<g>
							<path fill="#FFFFFF" d="M1105.25,78.566h-0.988c0-7.453,5.994-13.518,13.363-13.518v1
								C1110.801,66.048,1105.25,71.664,1105.25,78.566z"/>
						</g>
						<ellipse fill="#3B2B24" cx="1117.625" cy="78.566" rx="10.896" ry="11.023"/>
					</g>
				</g>
			</g>
		</g>
		<g>
			<g>
				<path fill="#101010" d="M1206.967,252.279h-52.313c-2.998,0-5.438-2.457-5.438-5.48V5.481c0-3.022,2.439-5.48,5.438-5.48h52.313
					c2.998,0,5.438,2.458,5.438,5.48v241.318C1212.404,249.822,1209.965,252.279,1206.967,252.279z M1154.654,1
					c-2.453,0-4.447,2.01-4.447,4.48v241.318c0,2.471,1.994,4.48,4.447,4.48h52.313c2.453,0,4.449-2.01,4.449-4.48V5.481
					c0-2.471-1.996-4.48-4.449-4.48H1154.654z"/>
			</g>
			<path fill="#C5C5BC" d="M1211.91,246.799c0,2.752-2.213,4.98-4.943,4.98h-52.313c-2.73,0-4.943-2.229-4.943-4.98V5.481
				c0-2.75,2.213-4.98,4.943-4.98h52.313c2.73,0,4.943,2.23,4.943,4.98V246.799z"/>
			<path fill="#727272" d="M1211.547,246.896c0,2.697-2.184,4.883-4.877,4.883h-51.613c-2.693,0-4.875-2.186-4.875-4.883V10.315
				c0-2.696,2.182-4.883,4.875-4.883h51.613c2.693,0,4.877,2.187,4.877,4.883V246.896z"/>
			<path fill="#ADACA2" d="M1211.547,244.453c0,2.682-2.184,4.854-4.877,4.854h-51.613c-2.693,0-4.875-2.172-4.875-4.854V9.25
				c0-2.681,2.182-4.854,4.875-4.854h51.613c2.693,0,4.877,2.173,4.877,4.854V244.453z"/>
			<g>
				<path fill="#434244" stroke="#151515" stroke-miterlimit="10" d="M1204.135,193.773c0,1.709-1.469,3.096-3.279,3.096h-40.088
					c-1.814,0-3.283-1.387-3.283-3.096v-72.679c0-1.711,1.469-3.098,3.283-3.098h40.088c1.811,0,3.279,1.387,3.279,3.098V193.773z"
					/>
				<linearGradient id="SVGID_19_" gradientUnits="userSpaceOnUse" x1="1180.8105" y1="194.6758" x2="1180.8105" y2="120.1904">
					<stop  offset="0" style="stop-color:#000000"/>
					<stop  offset="0.064" style="stop-color:#23222A"/>
					<stop  offset="0.7586" style="stop-color:#191C20"/>
					<stop  offset="0.8177" style="stop-color:#5A5A6A"/>
					<stop  offset="0.8571" style="stop-color:#191C20"/>
					<stop  offset="0.9113" style="stop-color:#848594"/>
					<stop  offset="0.9557" style="stop-color:#23222A"/>
					<stop  offset="1" style="stop-color:#5A5A6A"/>
				</linearGradient>
				<path fill="url(#SVGID_19_)" d="M1202.162,191.689c0,1.65-1.414,2.986-3.162,2.986h-36.377c-1.748,0-3.164-1.336-3.164-2.986
					v-68.513c0-1.65,1.416-2.986,3.164-2.986H1199c1.748,0,3.162,1.336,3.162,2.986V191.689z"/>
			</g>
			<g>
				<ellipse fill="#4C4B47" cx="1180.811" cy="78.566" rx="16.215" ry="16.406"/>
				<g>
					<path fill="#BBB9B0" d="M1196.408,78.566c0,8.716-6.982,15.781-15.596,15.781c-8.617,0-15.6-7.065-15.6-15.781
						c0-8.715,6.982-15.78,15.6-15.78C1189.426,62.786,1196.408,69.851,1196.408,78.566z"/>
					<g>
						<g>
							<path fill="#DCDAD7" d="M1180.813,92.085c-7.369,0-13.363-6.064-13.363-13.52c0-7.453,5.994-13.518,13.363-13.518
								c7.365,0,13.359,6.065,13.359,13.518C1194.172,86.021,1188.178,92.085,1180.813,92.085z M1180.813,66.048
								c-6.824,0-12.375,5.616-12.375,12.518c0,6.903,5.551,12.52,12.375,12.52c6.822,0,12.371-5.616,12.371-12.52
								C1193.184,71.664,1187.635,66.048,1180.813,66.048z"/>
						</g>
						<g>
							<path fill="#FFFFFF" d="M1180.813,92.085v-1c6.822,0,12.371-5.616,12.371-12.52h0.988
								C1194.172,86.021,1188.178,92.085,1180.813,92.085z"/>
						</g>
						<g>
							<path fill="#FFFFFF" d="M1168.438,78.566h-0.988c0-7.453,5.994-13.518,13.363-13.518v1
								C1173.988,66.048,1168.438,71.664,1168.438,78.566z"/>
						</g>
						<ellipse fill="#3B2B24" cx="1180.812" cy="78.566" rx="10.896" ry="11.023"/>
					</g>
				</g>
			</g>
		</g>
		<g>
			<g>
				<path fill="#101010" d="M1270.154,252.279h-52.314c-2.998,0-5.436-2.457-5.436-5.48V5.481c0-3.022,2.438-5.48,5.436-5.48h52.314
					c2.998,0,5.436,2.458,5.436,5.48v241.318C1275.59,249.822,1273.152,252.279,1270.154,252.279z M1217.84,1
					c-2.453,0-4.447,2.01-4.447,4.48v241.318c0,2.471,1.994,4.48,4.447,4.48h52.314c2.453,0,4.447-2.01,4.447-4.48V5.481
					c0-2.471-1.994-4.48-4.447-4.48H1217.84z"/>
			</g>
			<path fill="#C5C5BC" d="M1275.096,246.799c0,2.752-2.213,4.98-4.941,4.98h-52.314c-2.729,0-4.943-2.229-4.943-4.98V5.481
				c0-2.75,2.215-4.98,4.943-4.98h52.314c2.729,0,4.941,2.23,4.941,4.98V246.799z"/>
			<path fill="#727272" d="M1274.732,246.896c0,2.697-2.184,4.883-4.875,4.883h-51.613c-2.693,0-4.875-2.186-4.875-4.883V10.315
				c0-2.696,2.182-4.883,4.875-4.883h51.613c2.691,0,4.875,2.187,4.875,4.883V246.896z"/>
			<path fill="#ADACA2" d="M1274.732,244.453c0,2.682-2.184,4.854-4.875,4.854h-51.613c-2.693,0-4.875-2.172-4.875-4.854V9.25
				c0-2.681,2.182-4.854,4.875-4.854h51.613c2.691,0,4.875,2.173,4.875,4.854V244.453z"/>
			<g>
				<path fill="#434244" stroke="#151515" stroke-miterlimit="10" d="M1267.322,193.773c0,1.709-1.469,3.096-3.279,3.096h-40.09
					c-1.813,0-3.281-1.387-3.281-3.096v-72.679c0-1.711,1.469-3.098,3.281-3.098h40.09c1.811,0,3.279,1.387,3.279,3.098V193.773z"/>
				<linearGradient id="SVGID_20_" gradientUnits="userSpaceOnUse" x1="1243.998" y1="194.6758" x2="1243.998" y2="120.1904">
					<stop  offset="0" style="stop-color:#000000"/>
					<stop  offset="0.064" style="stop-color:#23222A"/>
					<stop  offset="0.7586" style="stop-color:#191C20"/>
					<stop  offset="0.8177" style="stop-color:#5A5A6A"/>
					<stop  offset="0.8571" style="stop-color:#191C20"/>
					<stop  offset="0.9113" style="stop-color:#848594"/>
					<stop  offset="0.9557" style="stop-color:#23222A"/>
					<stop  offset="1" style="stop-color:#5A5A6A"/>
				</linearGradient>
				<path fill="url(#SVGID_20_)" d="M1265.35,191.689c0,1.65-1.416,2.986-3.164,2.986h-36.377c-1.746,0-3.162-1.336-3.162-2.986
					v-68.513c0-1.65,1.416-2.986,3.162-2.986h36.377c1.748,0,3.164,1.336,3.164,2.986V191.689z"/>
			</g>
			<g>
				<ellipse fill="#4C4B47" cx="1243.998" cy="78.566" rx="16.215" ry="16.406"/>
				<g>
					<ellipse fill="#BBB9B0" cx="1243.997" cy="78.566" rx="15.597" ry="15.781"/>
					<g>
						<g>
							<path fill="#DCDAD7" d="M1243.998,92.085c-7.369,0-13.361-6.064-13.361-13.52c0-7.453,5.992-13.518,13.361-13.518
								c7.367,0,13.361,6.065,13.361,13.518C1257.359,86.021,1251.365,92.085,1243.998,92.085z M1243.998,66.048
								c-6.824,0-12.375,5.616-12.375,12.518c0,6.903,5.551,12.52,12.375,12.52c6.822,0,12.373-5.616,12.373-12.52
								C1256.371,71.664,1250.82,66.048,1243.998,66.048z"/>
						</g>
						<g>
							<path fill="#FFFFFF" d="M1243.998,92.085v-1c6.822,0,12.373-5.616,12.373-12.52h0.988
								C1257.359,86.021,1251.365,92.085,1243.998,92.085z"/>
						</g>
						<g>
							<path fill="#FFFFFF" d="M1231.623,78.566h-0.986c0-7.453,5.992-13.518,13.361-13.518v1
								C1237.174,66.048,1231.623,71.664,1231.623,78.566z"/>
						</g>
						<ellipse fill="#3B2B24" cx="1243.999" cy="78.566" rx="10.896" ry="11.023"/>
					</g>
				</g>
			</g>
		</g>
	</g>
</g>
</svg>
