<?xml version="1.0" encoding="utf-8"?>
<!-- Generator: Adobe Illustrator 16.0.0, SVG Export Plug-In . SVG Version: 6.00 Build 0)  -->
<!DOCTYPE svg PUBLIC "-//W3C//DTD SVG 1.1//EN" "http://www.w3.org/Graphics/SVG/1.1/DTD/svg11.dtd">
<svg version="1.1" id="图层_1" xmlns="http://www.w3.org/2000/svg" xmlns:xlink="http://www.w3.org/1999/xlink" x="0px" y="0px"
	 width="335px" height="117px" viewBox="0 0 335 117" enable-background="new 0 0 335 117" xml:space="preserve">
<rect width="335" height="117"/>
<path fill="#777675" d="M333.364,114.674c0,0.275-0.227,0.498-0.505,0.498H3.514c-0.278,0-0.504-0.223-0.504-0.498V4.235
	c0-0.275,0.227-0.498,0.504-0.498h329.346c0.278,0,0.505,0.223,0.505,0.498V114.674z"/>
<g>
	<path fill="#333333" d="M24.167,63.44c0-26.219,21.48-47.475,47.975-47.475c26.491,0,47.969,21.256,47.969,47.475
		c0,26.22-21.479,47.475-47.969,47.475C45.647,110.915,24.167,89.66,24.167,63.44z"/>
	<path fill="#777675" d="M43.542,63.44c0-15.631,12.803-28.303,28.6-28.303c15.794,0,28.597,12.671,28.597,28.303
		c0,15.631-12.803,28.302-28.597,28.302C56.344,91.742,43.542,79.071,43.542,63.44z"/>
	<rect x="70.295" y="9.119" fill="#777675" width="3.689" height="36.292"/>
	<polygon fill="#777675" points="78.059,71.223 79.724,67.963 114.926,85.561 113.26,88.819 	"/>
	<polygon fill="#777675" points="65.042,71.223 63.378,67.963 28.175,85.561 29.839,88.819 	"/>
	<path fill="#CECECE" d="M53.917,63.44c0-9.958,8.158-18.03,18.224-18.03c10.062,0,18.217,8.073,18.217,18.03
		c0,9.957-8.155,18.032-18.217,18.032C62.075,81.473,53.917,73.397,53.917,63.44z"/>
</g>
<g>
	<ellipse fill="#333333" cx="188.732" cy="63.44" rx="47.972" ry="47.475"/>
	<ellipse fill="#777675" cx="188.732" cy="63.44" rx="28.599" ry="28.303"/>
	<rect x="186.887" y="9.119" fill="#777675" width="3.69" height="36.292"/>
	<polygon fill="#777675" points="194.653,71.223 196.313,67.963 231.518,85.561 229.854,88.819 	"/>
	<polygon fill="#777675" points="181.634,71.223 179.972,67.963 144.768,85.561 146.433,88.819 	"/>
	<ellipse fill="#CECECE" cx="188.732" cy="63.44" rx="18.22" ry="18.03"/>
</g>
<g>
	<path fill="#4F4F4F" d="M29.773,20.94c-2.771,3.062-7.528,3.316-10.627,0.569c-3.093-2.747-3.355-7.457-0.581-10.519
		c2.771-3.06,7.527-3.314,10.623-0.568C32.287,13.171,32.546,17.878,29.773,20.94"/>
	<path fill="#AFAFAF" d="M28.289,19.622c-2.038,2.246-5.534,2.437-7.81,0.417c-2.273-2.019-2.467-5.479-0.426-7.727
		c2.036-2.25,5.531-2.436,7.806-0.417C30.132,13.913,30.324,17.374,28.289,19.622"/>
	<path fill="none" stroke="#939393" stroke-miterlimit="10" d="M28.289,19.622c-2.038,2.246-5.534,2.437-7.81,0.417
		c-2.273-2.019-2.467-5.479-0.426-7.727c2.036-2.25,5.531-2.436,7.806-0.417C30.132,13.913,30.324,17.374,28.289,19.622z"/>
	<g>
		<g>
			<defs>
				<polygon id="SVGID_1_" points="16.809,16.358 24.576,23.25 31.528,15.572 23.762,8.682 				"/>
			</defs>
			<clipPath id="SVGID_2_">
				<use xlink:href="#SVGID_1_"  overflow="visible"/>
			</clipPath>
			<path clip-path="url(#SVGID_2_)" fill="#BEBFBF" d="M28.052,19.411c-1.92,2.118-5.217,2.295-7.362,0.395
				c-2.143-1.903-2.322-5.164-0.403-7.285c1.922-2.118,5.213-2.295,7.358-0.392C29.791,14.031,29.972,17.291,28.052,19.411"/>
			<path clip-path="url(#SVGID_2_)" fill="#C0C1C1" d="M27.958,19.331c-1.874,2.069-5.09,2.239-7.184,0.383
				c-2.092-1.857-2.27-5.041-0.397-7.111c1.877-2.069,5.092-2.243,7.188-0.383C29.657,14.076,29.835,17.259,27.958,19.331"/>
			<path clip-path="url(#SVGID_2_)" fill="#C3C4C4" d="M27.866,19.248c-1.829,2.022-4.969,2.189-7.009,0.375
				c-2.045-1.812-2.218-4.919-0.388-6.938c1.831-2.021,4.971-2.189,7.014-0.378C29.526,14.122,29.696,17.229,27.866,19.248"/>
			<path clip-path="url(#SVGID_2_)" fill="#C5C6C6" d="M27.778,19.167c-1.786,1.97-4.848,2.132-6.841,0.368
				c-1.991-1.772-2.161-4.801-0.376-6.769c1.784-1.971,4.846-2.136,6.84-0.368C29.393,14.167,29.561,17.199,27.778,19.167"/>
			<path clip-path="url(#SVGID_2_)" fill="#C7C9C9" d="M27.685,19.088c-1.739,1.919-4.725,2.079-6.666,0.355
				c-1.942-1.723-2.106-4.679-0.368-6.598c1.742-1.919,4.726-2.078,6.668-0.355C29.258,14.212,29.424,17.166,27.685,19.088"/>
			<path clip-path="url(#SVGID_2_)" fill="#CACBCB" d="M27.594,19.006c-1.695,1.869-4.601,2.026-6.493,0.346
				c-1.893-1.678-2.053-4.554-0.36-6.425c1.697-1.872,4.607-2.026,6.498-0.349C29.129,14.258,29.285,17.134,27.594,19.006"/>
			<path clip-path="url(#SVGID_2_)" fill="#CCCECE" d="M27.502,18.925c-1.65,1.82-4.48,1.969-6.319,0.339
				c-1.844-1.635-1.997-4.435-0.348-6.254c1.649-1.823,4.477-1.974,6.321-0.34C28.998,14.305,29.152,17.104,27.502,18.925"/>
			<path clip-path="url(#SVGID_2_)" fill="#CED0D0" d="M27.411,18.844c-1.604,1.771-4.355,1.919-6.145,0.329
				c-1.792-1.589-1.944-4.313-0.338-6.084c1.603-1.77,4.354-1.916,6.147-0.327C28.865,14.35,29.016,17.074,27.411,18.844"/>
			<path clip-path="url(#SVGID_2_)" fill="#D1D3D3" d="M27.319,18.764c-1.559,1.719-4.232,1.861-5.973,0.318
				c-1.741-1.544-1.887-4.19-0.329-5.911c1.56-1.721,4.235-1.864,5.974-0.321C28.732,14.396,28.879,17.042,27.319,18.764"/>
			<path clip-path="url(#SVGID_2_)" fill="#D3D5D5" d="M27.227,18.682c-1.512,1.669-4.111,1.81-5.797,0.311
				c-1.694-1.5-1.834-4.07-0.321-5.742c1.513-1.671,4.11-1.81,5.801-0.31C28.599,14.44,28.742,17.009,27.227,18.682"/>
		</g>
	</g>
	<polygon fill="#605F5E" points="21.572,17.824 23.208,16.019 21.379,14.396 22.292,13.393 24.116,15.016 25.754,13.21 
		26.765,14.108 25.135,15.915 26.959,17.535 26.047,18.539 24.224,16.917 22.585,18.726 	"/>
	<path fill="#231815" d="M26.601,14.117l-1.478,1.634l-0.163,0.172l0.18,0.155l1.651,1.466l-0.752,0.831l-1.65-1.468l-0.176-0.155
		l-0.158,0.173l-1.479,1.635l-0.839-0.745l1.478-1.632l0.158-0.173l-0.174-0.158l-1.65-1.466l0.749-0.827l1.651,1.463l0.174,0.158
		l0.158-0.173l1.478-1.633L26.601,14.117z M26.936,14.1l-1.193-1.057l-1.634,1.808l-1.829-1.622l-1.065,1.175l1.828,1.623
		l-1.636,1.806l1.187,1.055l1.641-1.806l1.824,1.619l1.068-1.175l-1.829-1.62L26.936,14.1z"/>
</g>
<g>
	<path fill="#4F4F4F" d="M125.715,20.94c-2.772,3.062-7.527,3.316-10.628,0.569c-3.093-2.747-3.353-7.457-0.581-10.519
		c2.77-3.06,7.529-3.314,10.626-0.568C128.229,13.171,128.49,17.878,125.715,20.94"/>
	<path fill="#AFAFAF" d="M124.229,19.622c-2.038,2.246-5.534,2.437-7.808,0.417c-2.276-2.019-2.47-5.479-0.428-7.727
		c2.036-2.25,5.534-2.436,7.805-0.417C126.075,13.913,126.266,17.374,124.229,19.622"/>
	<path fill="none" stroke="#939393" stroke-miterlimit="10" d="M124.229,19.622c-2.038,2.246-5.534,2.437-7.808,0.417
		c-2.276-2.019-2.47-5.479-0.428-7.727c2.036-2.25,5.534-2.436,7.805-0.417C126.075,13.913,126.266,17.374,124.229,19.622z"/>
	<g>
		<g>
			<defs>
				<polygon id="SVGID_3_" points="112.75,16.358 120.517,23.25 127.471,15.572 119.705,8.682 				"/>
			</defs>
			<clipPath id="SVGID_4_">
				<use xlink:href="#SVGID_3_"  overflow="visible"/>
			</clipPath>
			<path clip-path="url(#SVGID_4_)" fill="#BEBFBF" d="M123.993,19.411c-1.918,2.118-5.217,2.295-7.36,0.395
				c-2.143-1.903-2.325-5.164-0.405-7.285c1.922-2.118,5.215-2.295,7.357-0.392C125.73,14.031,125.912,17.291,123.993,19.411"/>
			<path clip-path="url(#SVGID_4_)" fill="#C0C1C1" d="M123.899,19.331c-1.874,2.069-5.09,2.239-7.184,0.383
				c-2.091-1.857-2.27-5.041-0.395-7.111c1.877-2.069,5.094-2.243,7.186-0.383C125.6,14.076,125.775,17.259,123.899,19.331"/>
			<path clip-path="url(#SVGID_4_)" fill="#C3C4C4" d="M123.809,19.248c-1.831,2.022-4.971,2.189-7.012,0.375
				c-2.044-1.812-2.212-4.919-0.385-6.938c1.831-2.021,4.971-2.189,7.012-0.378C125.467,14.122,125.639,17.229,123.809,19.248"/>
			<path clip-path="url(#SVGID_4_)" fill="#C5C6C6" d="M123.718,19.167c-1.783,1.97-4.849,2.132-6.839,0.368
				c-1.992-1.772-2.162-4.801-0.377-6.769c1.785-1.971,4.845-2.136,6.839-0.368C125.334,14.167,125.504,17.199,123.718,19.167"/>
			<path clip-path="url(#SVGID_4_)" fill="#C7C9C9" d="M123.626,19.088c-1.74,1.919-4.724,2.079-6.667,0.355
				c-1.939-1.723-2.105-4.679-0.365-6.598c1.741-1.919,4.724-2.078,6.667-0.355C125.201,14.212,125.367,17.166,123.626,19.088"/>
			<path clip-path="url(#SVGID_4_)" fill="#CACBCB" d="M123.537,19.006c-1.695,1.869-4.603,2.026-6.494,0.346
				c-1.892-1.678-2.052-4.554-0.359-6.425c1.698-1.872,4.607-2.026,6.493-0.349C125.07,14.258,125.228,17.134,123.537,19.006"/>
			<path clip-path="url(#SVGID_4_)" fill="#CCCECE" d="M123.445,18.925c-1.65,1.82-4.479,1.969-6.319,0.339
				c-1.843-1.635-1.998-4.435-0.348-6.254c1.649-1.823,4.476-1.974,6.321-0.34C124.939,14.305,125.093,17.104,123.445,18.925"/>
			<path clip-path="url(#SVGID_4_)" fill="#CED0D0" d="M123.353,18.844c-1.603,1.771-4.355,1.919-6.147,0.329
				c-1.791-1.589-1.941-4.313-0.338-6.084c1.606-1.77,4.359-1.916,6.151-0.327C124.806,14.35,124.958,17.074,123.353,18.844"/>
			<path clip-path="url(#SVGID_4_)" fill="#D1D3D3" d="M123.261,18.764c-1.558,1.719-4.232,1.861-5.973,0.318
				c-1.742-1.544-1.886-4.19-0.331-5.911c1.563-1.721,4.236-1.864,5.976-0.321C124.675,14.396,124.822,17.042,123.261,18.764"/>
			<path clip-path="url(#SVGID_4_)" fill="#D3D5D5" d="M123.171,18.682c-1.515,1.669-4.111,1.81-5.801,0.311
				c-1.691-1.5-1.832-4.07-0.319-5.742c1.512-1.671,4.111-1.81,5.8-0.31C124.542,14.44,124.683,17.009,123.171,18.682"/>
		</g>
	</g>
	<polygon fill="#605F5E" points="117.512,17.824 119.149,16.019 117.319,14.396 118.232,13.393 120.058,15.016 121.695,13.21 
		122.708,14.108 121.076,15.915 122.899,17.535 121.988,18.539 120.166,16.917 118.528,18.726 	"/>
	<path fill="#231815" d="M122.543,14.117l-1.479,1.634l-0.16,0.172l0.178,0.155l1.653,1.466l-0.754,0.831l-1.65-1.468l-0.174-0.155
		l-0.158,0.173l-1.478,1.635l-0.84-0.745l1.477-1.632l0.158-0.173l-0.174-0.158l-1.651-1.466l0.751-0.827l1.648,1.463l0.176,0.158
		l0.156-0.173l1.481-1.633L122.543,14.117z M122.876,14.1l-1.192-1.057l-1.633,1.808l-1.832-1.622l-1.062,1.175l1.827,1.623
		l-1.637,1.806l1.189,1.055l1.638-1.806l1.825,1.619l1.067-1.175l-1.828-1.62L122.876,14.1z"/>
</g>
<g>
	<path fill="#4F4F4F" d="M29.773,110.292c-2.771,3.061-7.528,3.318-10.627,0.569c-3.093-2.746-3.355-7.456-0.581-10.516
		c2.771-3.061,7.527-3.315,10.623-0.57C32.287,102.522,32.546,107.232,29.773,110.292"/>
	<path fill="#AFAFAF" d="M28.289,108.974c-2.038,2.249-5.534,2.437-7.81,0.417c-2.273-2.019-2.467-5.478-0.426-7.728
		c2.036-2.246,5.531-2.435,7.806-0.415C30.132,103.264,30.324,106.726,28.289,108.974"/>
	<path fill="none" stroke="#939393" stroke-miterlimit="10" d="M28.289,108.974c-2.038,2.249-5.534,2.437-7.81,0.417
		c-2.273-2.019-2.467-5.478-0.426-7.728c2.036-2.246,5.531-2.435,7.806-0.415C30.132,103.264,30.324,106.726,28.289,108.974z"/>
	<g>
		<g>
			<defs>
				<polygon id="SVGID_5_" points="16.809,105.711 24.576,112.602 31.528,104.927 23.762,98.033 				"/>
			</defs>
			<clipPath id="SVGID_6_">
				<use xlink:href="#SVGID_5_"  overflow="visible"/>
			</clipPath>
			<path clip-path="url(#SVGID_6_)" fill="#BEBFBF" d="M28.052,108.764c-1.92,2.118-5.217,2.292-7.362,0.394
				c-2.143-1.901-2.322-5.162-0.403-7.284c1.922-2.119,5.213-2.295,7.358-0.393C29.791,103.383,29.972,106.645,28.052,108.764"/>
			<path clip-path="url(#SVGID_6_)" fill="#C0C1C1" d="M27.958,108.684c-1.874,2.066-5.09,2.241-7.184,0.384
				c-2.092-1.858-2.27-5.043-0.397-7.113c1.877-2.068,5.092-2.241,7.188-0.382C29.657,103.428,29.835,106.609,27.958,108.684"/>
			<path clip-path="url(#SVGID_6_)" fill="#C3C4C4" d="M27.866,108.602c-1.829,2.021-4.969,2.188-7.009,0.376
				c-2.045-1.814-2.218-4.921-0.388-6.94c1.831-2.021,4.971-2.189,7.014-0.377C29.526,103.474,29.696,106.582,27.866,108.602"/>
			<path clip-path="url(#SVGID_6_)" fill="#C5C6C6" d="M27.778,108.521c-1.786,1.968-4.848,2.132-6.841,0.364
				c-1.991-1.77-2.161-4.799-0.376-6.769c1.784-1.971,4.846-2.135,6.84-0.366C29.393,103.519,29.561,106.552,27.778,108.521"/>
			<path clip-path="url(#SVGID_6_)" fill="#C7C9C9" d="M27.685,108.441c-1.739,1.918-4.725,2.077-6.666,0.355
				c-1.942-1.726-2.106-4.68-0.368-6.601c1.742-1.919,4.726-2.079,6.668-0.354C29.258,103.566,29.424,106.521,27.685,108.441"/>
			<path clip-path="url(#SVGID_6_)" fill="#CACBCB" d="M27.594,108.357c-1.695,1.869-4.601,2.027-6.493,0.35
				c-1.893-1.679-2.053-4.558-0.36-6.426c1.697-1.873,4.607-2.027,6.498-0.351C29.129,103.61,29.285,106.485,27.594,108.357"/>
			<path clip-path="url(#SVGID_6_)" fill="#CCCECE" d="M27.502,108.277c-1.65,1.82-4.48,1.97-6.319,0.338
				c-1.844-1.632-1.997-4.436-0.348-6.254c1.649-1.822,4.477-1.975,6.321-0.34C28.998,103.655,29.152,106.456,27.502,108.277"/>
			<path clip-path="url(#SVGID_6_)" fill="#CED0D0" d="M27.411,108.197c-1.604,1.77-4.355,1.918-6.145,0.328
				c-1.792-1.59-1.944-4.314-0.338-6.084c1.603-1.771,4.354-1.918,6.147-0.33C28.865,103.7,29.016,106.427,27.411,108.197"/>
			<path clip-path="url(#SVGID_6_)" fill="#D1D3D3" d="M27.319,108.115c-1.559,1.723-4.232,1.861-5.973,0.32
				c-1.741-1.545-1.887-4.193-0.329-5.913c1.56-1.722,4.235-1.865,5.974-0.32C28.732,103.747,28.879,106.395,27.319,108.115"/>
			<path clip-path="url(#SVGID_6_)" fill="#D3D5D5" d="M27.227,108.033c-1.512,1.672-4.111,1.811-5.797,0.311
				c-1.694-1.5-1.834-4.069-0.321-5.741c1.513-1.67,4.11-1.811,5.801-0.309C28.599,103.794,28.742,106.363,27.227,108.033"/>
		</g>
	</g>
	<polygon fill="#605F5E" points="21.572,107.177 23.208,105.37 21.379,103.749 22.292,102.743 24.116,104.367 25.754,102.562 
		26.765,103.46 25.135,105.269 26.959,106.889 26.047,107.891 24.224,106.269 22.585,108.076 	"/>
	<path fill="#231815" d="M26.601,103.469l-1.478,1.633l-0.163,0.175l0.18,0.157l1.651,1.463l-0.752,0.83l-1.65-1.466l-0.176-0.157
		l-0.158,0.173l-1.479,1.636l-0.839-0.745l1.478-1.632l0.158-0.175l-0.174-0.154l-1.65-1.467l0.749-0.828l1.651,1.464l0.174,0.157
		l0.158-0.174l1.478-1.633L26.601,103.469z M26.936,103.451l-1.193-1.055l-1.634,1.806l-1.829-1.62l-1.065,1.175l1.828,1.621
		l-1.636,1.807l1.187,1.056l1.641-1.806l1.824,1.62l1.068-1.174l-1.829-1.62L26.936,103.451z"/>
</g>
<g>
	<path fill="#4F4F4F" d="M125.715,110.292c-2.772,3.061-7.527,3.318-10.628,0.569c-3.093-2.746-3.353-7.456-0.581-10.516
		c2.77-3.061,7.529-3.315,10.626-0.57C128.229,102.522,128.49,107.232,125.715,110.292"/>
	<path fill="#AFAFAF" d="M124.229,108.974c-2.038,2.249-5.534,2.437-7.808,0.417c-2.276-2.019-2.47-5.478-0.428-7.728
		c2.036-2.246,5.534-2.435,7.805-0.415C126.075,103.264,126.266,106.726,124.229,108.974"/>
	<path fill="none" stroke="#939393" stroke-miterlimit="10" d="M124.229,108.974c-2.038,2.249-5.534,2.437-7.808,0.417
		c-2.276-2.019-2.47-5.478-0.428-7.728c2.036-2.246,5.534-2.435,7.805-0.415C126.075,103.264,126.266,106.726,124.229,108.974z"/>
	<g>
		<g>
			<defs>
				<polygon id="SVGID_7_" points="112.75,105.711 120.517,112.602 127.471,104.927 119.705,98.033 				"/>
			</defs>
			<clipPath id="SVGID_8_">
				<use xlink:href="#SVGID_7_"  overflow="visible"/>
			</clipPath>
			<path clip-path="url(#SVGID_8_)" fill="#BEBFBF" d="M123.993,108.764c-1.918,2.118-5.217,2.292-7.36,0.394
				c-2.143-1.901-2.325-5.162-0.405-7.284c1.922-2.119,5.215-2.295,7.357-0.393C125.73,103.383,125.912,106.645,123.993,108.764"/>
			<path clip-path="url(#SVGID_8_)" fill="#C0C1C1" d="M123.899,108.684c-1.874,2.066-5.09,2.241-7.184,0.384
				c-2.091-1.858-2.27-5.043-0.395-7.113c1.877-2.068,5.094-2.241,7.186-0.382C125.6,103.428,125.775,106.609,123.899,108.684"/>
			<path clip-path="url(#SVGID_8_)" fill="#C3C4C4" d="M123.809,108.602c-1.831,2.021-4.971,2.188-7.012,0.376
				c-2.044-1.814-2.212-4.921-0.385-6.94c1.831-2.021,4.971-2.189,7.012-0.377C125.467,103.474,125.639,106.582,123.809,108.602"/>
			<path clip-path="url(#SVGID_8_)" fill="#C5C6C6" d="M123.718,108.521c-1.783,1.968-4.849,2.132-6.839,0.364
				c-1.992-1.77-2.162-4.799-0.377-6.769c1.785-1.971,4.845-2.135,6.839-0.366C125.334,103.519,125.504,106.552,123.718,108.521"/>
			<path clip-path="url(#SVGID_8_)" fill="#C7C9C9" d="M123.626,108.441c-1.74,1.918-4.724,2.077-6.667,0.355
				c-1.939-1.726-2.105-4.68-0.365-6.601c1.741-1.919,4.724-2.079,6.667-0.354C125.201,103.566,125.367,106.521,123.626,108.441"/>
			<path clip-path="url(#SVGID_8_)" fill="#CACBCB" d="M123.537,108.357c-1.695,1.869-4.603,2.027-6.494,0.35
				c-1.892-1.679-2.052-4.558-0.359-6.426c1.698-1.873,4.607-2.027,6.493-0.351C125.07,103.61,125.228,106.485,123.537,108.357"/>
			<path clip-path="url(#SVGID_8_)" fill="#CCCECE" d="M123.445,108.277c-1.65,1.82-4.479,1.97-6.319,0.338
				c-1.843-1.632-1.998-4.436-0.348-6.254c1.649-1.822,4.476-1.975,6.321-0.34C124.939,103.655,125.093,106.456,123.445,108.277"/>
			<path clip-path="url(#SVGID_8_)" fill="#CED0D0" d="M123.353,108.197c-1.603,1.77-4.355,1.918-6.147,0.328
				c-1.791-1.59-1.941-4.314-0.338-6.084c1.606-1.771,4.359-1.918,6.151-0.33C124.806,103.7,124.958,106.427,123.353,108.197"/>
			<path clip-path="url(#SVGID_8_)" fill="#D1D3D3" d="M123.261,108.115c-1.558,1.723-4.232,1.861-5.973,0.32
				c-1.742-1.545-1.886-4.193-0.331-5.913c1.563-1.722,4.236-1.865,5.976-0.32C124.675,103.747,124.822,106.395,123.261,108.115"/>
			<path clip-path="url(#SVGID_8_)" fill="#D3D5D5" d="M123.171,108.033c-1.515,1.672-4.111,1.811-5.801,0.311
				c-1.691-1.5-1.832-4.069-0.319-5.741c1.512-1.67,4.111-1.811,5.8-0.309C124.542,103.794,124.683,106.363,123.171,108.033"/>
		</g>
	</g>
	<polygon fill="#605F5E" points="117.512,107.177 119.149,105.37 117.319,103.749 118.232,102.743 120.058,104.367 121.695,102.562 
		122.708,103.46 121.076,105.269 122.899,106.889 121.988,107.891 120.166,106.269 118.528,108.076 	"/>
	<path fill="#231815" d="M122.543,103.469l-1.479,1.633l-0.16,0.175l0.178,0.157l1.653,1.463l-0.754,0.83l-1.65-1.466l-0.174-0.157
		l-0.158,0.173l-1.478,1.636l-0.84-0.745l1.477-1.632l0.158-0.175l-0.174-0.154l-1.651-1.467l0.751-0.828l1.648,1.464l0.176,0.157
		l0.156-0.174l1.481-1.633L122.543,103.469z M122.876,103.451l-1.192-1.055l-1.633,1.806l-1.832-1.62l-1.062,1.175l1.827,1.621
		l-1.637,1.807l1.189,1.056l1.638-1.806l1.825,1.62l1.067-1.174l-1.828-1.62L122.876,103.451z"/>
</g>
<g>
	<path fill="#4F4F4F" d="M146.367,20.94c-2.773,3.062-7.529,3.316-10.629,0.569c-3.092-2.747-3.353-7.457-0.581-10.519
		c2.771-3.06,7.53-3.314,10.625-0.568C148.879,13.171,149.141,17.878,146.367,20.94"/>
	<path fill="#AFAFAF" d="M144.881,19.622c-2.038,2.246-5.531,2.437-7.81,0.417c-2.274-2.019-2.468-5.479-0.426-7.727
		c2.036-2.25,5.534-2.436,7.805-0.417C146.726,13.913,146.916,17.374,144.881,19.622"/>
	<path fill="none" stroke="#939393" stroke-miterlimit="10" d="M144.881,19.622c-2.038,2.246-5.531,2.437-7.81,0.417
		c-2.274-2.019-2.468-5.479-0.426-7.727c2.036-2.25,5.534-2.436,7.805-0.417C146.726,13.913,146.916,17.374,144.881,19.622z"/>
	<g>
		<g>
			<defs>
				<polygon id="SVGID_9_" points="133.401,16.358 141.169,23.25 148.121,15.572 140.356,8.682 				"/>
			</defs>
			<clipPath id="SVGID_10_">
				<use xlink:href="#SVGID_9_"  overflow="visible"/>
			</clipPath>
			<path clip-path="url(#SVGID_10_)" fill="#BEBFBF" d="M144.645,19.411c-1.92,2.118-5.217,2.295-7.36,0.395
				c-2.143-1.903-2.323-5.164-0.404-7.285c1.922-2.118,5.213-2.295,7.357-0.392C146.384,14.031,146.564,17.291,144.645,19.411"/>
			<path clip-path="url(#SVGID_10_)" fill="#C0C1C1" d="M144.552,19.331c-1.875,2.069-5.091,2.239-7.186,0.383
				c-2.092-1.857-2.268-5.041-0.395-7.111c1.877-2.069,5.092-2.243,7.185-0.383C146.251,14.076,146.427,17.259,144.552,19.331"/>
			<path clip-path="url(#SVGID_10_)" fill="#C3C4C4" d="M144.46,19.248c-1.83,2.022-4.97,2.189-7.011,0.375
				c-2.046-1.812-2.216-4.919-0.385-6.938c1.831-2.021,4.971-2.189,7.011-0.378C146.118,14.122,146.289,17.229,144.46,19.248"/>
			<path clip-path="url(#SVGID_10_)" fill="#C5C6C6" d="M144.37,19.167c-1.783,1.97-4.849,2.132-6.839,0.368
				c-1.991-1.772-2.163-4.801-0.377-6.769c1.786-1.971,4.846-2.136,6.839-0.368C145.985,14.167,146.155,17.199,144.37,19.167"/>
			<path clip-path="url(#SVGID_10_)" fill="#C7C9C9" d="M144.276,19.088c-1.735,1.919-4.721,2.079-6.665,0.355
				c-1.942-1.723-2.106-4.679-0.366-6.598c1.741-1.919,4.725-2.078,6.666-0.355C145.853,14.212,146.019,17.166,144.276,19.088"/>
			<path clip-path="url(#SVGID_10_)" fill="#CACBCB" d="M144.186,19.006c-1.694,1.869-4.6,2.026-6.493,0.346
				c-1.891-1.678-2.051-4.554-0.358-6.425c1.698-1.872,4.604-2.026,6.496-0.349C145.722,14.258,145.88,17.134,144.186,19.006"/>
			<path clip-path="url(#SVGID_10_)" fill="#CCCECE" d="M144.096,18.925c-1.649,1.82-4.479,1.969-6.321,0.339
				c-1.841-1.635-1.997-4.435-0.348-6.254c1.65-1.823,4.477-1.974,6.321-0.34C145.59,14.305,145.745,17.104,144.096,18.925"/>
			<path clip-path="url(#SVGID_10_)" fill="#CED0D0" d="M144.004,18.844c-1.603,1.771-4.358,1.919-6.146,0.329
				c-1.792-1.589-1.943-4.313-0.34-6.084c1.604-1.77,4.356-1.916,6.149-0.327C145.459,14.35,145.61,17.074,144.004,18.844"/>
			<path clip-path="url(#SVGID_10_)" fill="#D1D3D3" d="M143.911,18.764c-1.556,1.719-4.231,1.861-5.972,0.318
				c-1.741-1.544-1.886-4.19-0.33-5.911c1.563-1.721,4.235-1.864,5.975-0.321C145.327,14.396,145.473,17.042,143.911,18.764"/>
			<path clip-path="url(#SVGID_10_)" fill="#D3D5D5" d="M143.821,18.682c-1.511,1.669-4.112,1.81-5.797,0.311
				c-1.693-1.5-1.835-4.07-0.321-5.742c1.512-1.671,4.11-1.81,5.801-0.31C145.194,14.44,145.334,17.009,143.821,18.682"/>
		</g>
	</g>
	<polygon fill="#605F5E" points="138.166,17.824 139.799,16.019 137.97,14.396 138.884,13.393 140.708,15.016 142.347,13.21 
		143.357,14.108 141.724,15.915 143.551,17.535 142.642,18.539 140.815,16.917 139.179,18.726 	"/>
	<path fill="#231815" d="M143.195,14.117l-1.481,1.634l-0.16,0.172l0.178,0.155l1.653,1.466l-0.75,0.831l-1.653-1.468l-0.176-0.155
		l-0.158,0.173l-1.476,1.635l-0.839-0.745l1.477-1.632l0.159-0.173l-0.174-0.158l-1.652-1.466l0.753-0.827l1.65,1.463l0.174,0.158
		l0.156-0.173l1.48-1.633L143.195,14.117z M143.527,14.1l-1.19-1.057l-1.637,1.808l-1.828-1.622l-1.064,1.175l1.827,1.623
		l-1.637,1.806l1.187,1.055l1.638-1.806l1.827,1.619l1.067-1.175l-1.831-1.62L143.527,14.1z"/>
</g>
<g>
	<path fill="#4F4F4F" d="M242.31,20.94c-2.772,3.062-7.532,3.316-10.629,0.569c-3.094-2.747-3.355-7.457-0.583-10.519
		c2.771-3.06,7.529-3.314,10.625-0.568C244.819,13.171,245.082,17.878,242.31,20.94"/>
	<path fill="#AFAFAF" d="M240.823,19.622c-2.038,2.246-5.534,2.437-7.809,0.417c-2.276-2.019-2.468-5.479-0.428-7.727
		c2.034-2.25,5.532-2.436,7.804-0.417C242.667,13.913,242.858,17.374,240.823,19.622"/>
	<path fill="none" stroke="#939393" stroke-miterlimit="10" d="M240.823,19.622c-2.038,2.246-5.534,2.437-7.809,0.417
		c-2.276-2.019-2.468-5.479-0.428-7.727c2.034-2.25,5.532-2.436,7.804-0.417C242.667,13.913,242.858,17.374,240.823,19.622z"/>
	<g>
		<g>
			<defs>
				<polygon id="SVGID_11_" points="229.345,16.358 237.11,23.25 244.061,15.572 236.297,8.682 				"/>
			</defs>
			<clipPath id="SVGID_12_">
				<use xlink:href="#SVGID_11_"  overflow="visible"/>
			</clipPath>
			<path clip-path="url(#SVGID_12_)" fill="#BEBFBF" d="M240.587,19.411c-1.923,2.118-5.218,2.295-7.361,0.395
				c-2.144-1.903-2.323-5.164-0.403-7.285c1.92-2.118,5.215-2.295,7.355-0.392C242.323,14.031,242.505,17.291,240.587,19.411"/>
			<path clip-path="url(#SVGID_12_)" fill="#C0C1C1" d="M240.493,19.331c-1.874,2.069-5.091,2.239-7.184,0.383
				c-2.095-1.857-2.271-5.041-0.396-7.111c1.878-2.069,5.093-2.243,7.185-0.383C242.192,14.076,242.37,17.259,240.493,19.331"/>
			<path clip-path="url(#SVGID_12_)" fill="#C3C4C4" d="M240.4,19.248c-1.828,2.022-4.967,2.189-7.009,0.375
				c-2.046-1.812-2.218-4.919-0.385-6.938c1.827-2.021,4.968-2.189,7.011-0.378C242.062,14.122,242.231,17.229,240.4,19.248"/>
			<path clip-path="url(#SVGID_12_)" fill="#C5C6C6" d="M240.313,19.167c-1.785,1.97-4.848,2.132-6.841,0.368
				c-1.991-1.772-2.163-4.801-0.375-6.769c1.784-1.971,4.845-2.136,6.839-0.368C241.929,14.167,242.099,17.199,240.313,19.167"/>
			<path clip-path="url(#SVGID_12_)" fill="#C7C9C9" d="M240.219,19.088c-1.738,1.919-4.723,2.079-6.667,0.355
				c-1.939-1.723-2.104-4.679-0.365-6.598c1.741-1.919,4.726-2.078,6.669-0.355C241.796,14.212,241.96,17.166,240.219,19.088"/>
			<path clip-path="url(#SVGID_12_)" fill="#CACBCB" d="M240.129,19.006c-1.695,1.869-4.602,2.026-6.493,0.346
				c-1.893-1.678-2.054-4.554-0.357-6.425c1.694-1.872,4.602-2.026,6.493-0.349C241.662,14.258,241.821,17.134,240.129,19.006"/>
			<path clip-path="url(#SVGID_12_)" fill="#CCCECE" d="M240.037,18.925c-1.65,1.82-4.479,1.969-6.321,0.339
				c-1.84-1.635-1.994-4.435-0.346-6.254c1.647-1.823,4.477-1.974,6.319-0.34C241.533,14.305,241.688,17.104,240.037,18.925"/>
			<path clip-path="url(#SVGID_12_)" fill="#CED0D0" d="M239.945,18.844c-1.602,1.771-4.355,1.919-6.146,0.329
				c-1.791-1.589-1.943-4.313-0.338-6.084c1.603-1.77,4.355-1.916,6.149-0.327C241.399,14.35,241.551,17.074,239.945,18.844"/>
			<path clip-path="url(#SVGID_12_)" fill="#D1D3D3" d="M239.855,18.764c-1.561,1.719-4.232,1.861-5.976,0.318
				c-1.742-1.544-1.887-4.19-0.328-5.911c1.56-1.721,4.234-1.864,5.976-0.321C241.267,14.396,241.415,17.042,239.855,18.764"/>
			<path clip-path="url(#SVGID_12_)" fill="#D3D5D5" d="M239.764,18.682c-1.514,1.669-4.111,1.81-5.8,0.311
				c-1.691-1.5-1.834-4.07-0.32-5.742c1.513-1.671,4.109-1.81,5.802-0.31C241.134,14.44,241.276,17.009,239.764,18.682"/>
		</g>
	</g>
	<polygon fill="#605F5E" points="234.107,17.824 235.742,16.019 233.913,14.396 234.826,13.393 236.65,15.016 238.287,13.21 
		239.303,14.108 237.667,15.915 239.494,17.535 238.582,18.539 236.759,16.917 235.119,18.726 	"/>
	<path fill="#231815" d="M239.138,14.117l-1.48,1.634l-0.16,0.172l0.178,0.155l1.653,1.466l-0.754,0.831l-1.649-1.468l-0.176-0.155
		l-0.161,0.173l-1.477,1.635l-0.838-0.745l1.479-1.632l0.156-0.173l-0.172-0.158l-1.653-1.466l0.751-0.827l1.65,1.463l0.175,0.158
		l0.158-0.173l1.478-1.633L239.138,14.117z M239.469,14.1l-1.191-1.057l-1.635,1.808l-1.83-1.622l-1.063,1.175l1.827,1.623
		l-1.638,1.806l1.188,1.055l1.642-1.806l1.823,1.619l1.068-1.175l-1.829-1.62L239.469,14.1z"/>
</g>
<g>
	<path fill="#4F4F4F" d="M146.367,110.292c-2.773,3.061-7.529,3.318-10.629,0.569c-3.092-2.746-3.353-7.456-0.581-10.516
		c2.771-3.061,7.53-3.315,10.625-0.57C148.879,102.522,149.141,107.232,146.367,110.292"/>
	<path fill="#AFAFAF" d="M144.881,108.974c-2.038,2.249-5.531,2.437-7.81,0.417c-2.274-2.019-2.468-5.478-0.426-7.728
		c2.036-2.246,5.534-2.435,7.805-0.415C146.726,103.264,146.916,106.726,144.881,108.974"/>
	<path fill="none" stroke="#939393" stroke-miterlimit="10" d="M144.881,108.974c-2.038,2.249-5.531,2.437-7.81,0.417
		c-2.274-2.019-2.468-5.478-0.426-7.728c2.036-2.246,5.534-2.435,7.805-0.415C146.726,103.264,146.916,106.726,144.881,108.974z"/>
	<g>
		<g>
			<defs>
				<polygon id="SVGID_13_" points="133.401,105.711 141.169,112.602 148.121,104.927 140.356,98.033 				"/>
			</defs>
			<clipPath id="SVGID_14_">
				<use xlink:href="#SVGID_13_"  overflow="visible"/>
			</clipPath>
			<path clip-path="url(#SVGID_14_)" fill="#BEBFBF" d="M144.645,108.764c-1.92,2.118-5.217,2.292-7.36,0.394
				c-2.143-1.901-2.323-5.162-0.404-7.284c1.922-2.119,5.213-2.295,7.357-0.393C146.384,103.383,146.564,106.645,144.645,108.764"/>
			<path clip-path="url(#SVGID_14_)" fill="#C0C1C1" d="M144.552,108.684c-1.875,2.066-5.091,2.241-7.186,0.384
				c-2.092-1.858-2.268-5.043-0.395-7.113c1.877-2.068,5.092-2.241,7.185-0.382C146.251,103.428,146.427,106.609,144.552,108.684"/>
			<path clip-path="url(#SVGID_14_)" fill="#C3C4C4" d="M144.46,108.602c-1.83,2.021-4.97,2.188-7.011,0.376
				c-2.046-1.814-2.216-4.921-0.385-6.94c1.831-2.021,4.971-2.189,7.011-0.377C146.118,103.474,146.289,106.582,144.46,108.602"/>
			<path clip-path="url(#SVGID_14_)" fill="#C5C6C6" d="M144.37,108.521c-1.783,1.968-4.849,2.132-6.839,0.364
				c-1.991-1.77-2.163-4.799-0.377-6.769c1.786-1.971,4.846-2.135,6.839-0.366C145.985,103.519,146.155,106.552,144.37,108.521"/>
			<path clip-path="url(#SVGID_14_)" fill="#C7C9C9" d="M144.276,108.441c-1.735,1.918-4.721,2.077-6.665,0.355
				c-1.942-1.726-2.106-4.68-0.366-6.601c1.741-1.919,4.725-2.079,6.666-0.354C145.853,103.566,146.019,106.521,144.276,108.441"/>
			<path clip-path="url(#SVGID_14_)" fill="#CACBCB" d="M144.186,108.357c-1.694,1.869-4.6,2.027-6.493,0.35
				c-1.891-1.679-2.051-4.558-0.358-6.426c1.698-1.873,4.604-2.027,6.496-0.351C145.722,103.61,145.88,106.485,144.186,108.357"/>
			<path clip-path="url(#SVGID_14_)" fill="#CCCECE" d="M144.096,108.277c-1.649,1.82-4.479,1.97-6.321,0.338
				c-1.841-1.632-1.997-4.436-0.348-6.254c1.65-1.822,4.477-1.975,6.321-0.34C145.59,103.655,145.745,106.456,144.096,108.277"/>
			<path clip-path="url(#SVGID_14_)" fill="#CED0D0" d="M144.004,108.197c-1.603,1.77-4.358,1.918-6.146,0.328
				c-1.792-1.59-1.943-4.314-0.34-6.084c1.604-1.771,4.356-1.918,6.149-0.33C145.459,103.7,145.61,106.427,144.004,108.197"/>
			<path clip-path="url(#SVGID_14_)" fill="#D1D3D3" d="M143.911,108.115c-1.556,1.723-4.231,1.861-5.972,0.32
				c-1.741-1.545-1.886-4.193-0.33-5.913c1.563-1.722,4.235-1.865,5.975-0.32C145.327,103.747,145.473,106.395,143.911,108.115"/>
			<path clip-path="url(#SVGID_14_)" fill="#D3D5D5" d="M143.821,108.033c-1.511,1.672-4.112,1.811-5.797,0.311
				c-1.693-1.5-1.835-4.069-0.321-5.741c1.512-1.67,4.11-1.811,5.801-0.309C145.194,103.794,145.334,106.363,143.821,108.033"/>
		</g>
	</g>
	<polygon fill="#605F5E" points="138.166,107.177 139.799,105.37 137.97,103.749 138.884,102.743 140.708,104.367 142.347,102.562 
		143.357,103.46 141.724,105.269 143.551,106.889 142.642,107.891 140.815,106.269 139.179,108.076 	"/>
	<path fill="#231815" d="M143.195,103.469l-1.481,1.633l-0.16,0.175l0.178,0.157l1.653,1.463l-0.75,0.83l-1.653-1.466l-0.176-0.157
		l-0.158,0.173l-1.476,1.636l-0.839-0.745l1.477-1.632l0.159-0.175l-0.174-0.154l-1.652-1.467l0.753-0.828l1.65,1.464l0.174,0.157
		l0.156-0.174l1.48-1.633L143.195,103.469z M143.527,103.451l-1.19-1.055l-1.637,1.806l-1.828-1.62l-1.064,1.175l1.827,1.621
		l-1.637,1.807l1.187,1.056l1.638-1.806l1.827,1.62l1.067-1.174l-1.831-1.62L143.527,103.451z"/>
</g>
<g>
	<path fill="#4F4F4F" d="M242.31,110.292c-2.772,3.061-7.532,3.318-10.629,0.569c-3.094-2.746-3.355-7.456-0.583-10.516
		c2.771-3.061,7.529-3.315,10.625-0.57C244.819,102.522,245.082,107.232,242.31,110.292"/>
	<path fill="#AFAFAF" d="M240.823,108.974c-2.038,2.249-5.534,2.437-7.809,0.417c-2.276-2.019-2.468-5.478-0.428-7.728
		c2.034-2.246,5.532-2.435,7.804-0.415C242.667,103.264,242.858,106.726,240.823,108.974"/>
	<path fill="none" stroke="#939393" stroke-miterlimit="10" d="M240.823,108.974c-2.038,2.249-5.534,2.437-7.809,0.417
		c-2.276-2.019-2.468-5.478-0.428-7.728c2.034-2.246,5.532-2.435,7.804-0.415C242.667,103.264,242.858,106.726,240.823,108.974z"/>
	<g>
		<g>
			<defs>
				<polygon id="SVGID_15_" points="229.345,105.711 237.11,112.602 244.061,104.927 236.297,98.033 				"/>
			</defs>
			<clipPath id="SVGID_16_">
				<use xlink:href="#SVGID_15_"  overflow="visible"/>
			</clipPath>
			<path clip-path="url(#SVGID_16_)" fill="#BEBFBF" d="M240.587,108.764c-1.923,2.118-5.218,2.292-7.361,0.394
				c-2.144-1.901-2.323-5.162-0.403-7.284c1.92-2.119,5.215-2.295,7.355-0.393C242.323,103.383,242.505,106.645,240.587,108.764"/>
			<path clip-path="url(#SVGID_16_)" fill="#C0C1C1" d="M240.493,108.684c-1.874,2.066-5.091,2.241-7.184,0.384
				c-2.095-1.858-2.271-5.043-0.396-7.113c1.878-2.068,5.093-2.241,7.185-0.382C242.192,103.428,242.37,106.609,240.493,108.684"/>
			<path clip-path="url(#SVGID_16_)" fill="#C3C4C4" d="M240.4,108.602c-1.828,2.021-4.967,2.188-7.009,0.376
				c-2.046-1.814-2.218-4.921-0.385-6.94c1.827-2.021,4.968-2.189,7.011-0.377C242.062,103.474,242.231,106.582,240.4,108.602"/>
			<path clip-path="url(#SVGID_16_)" fill="#C5C6C6" d="M240.313,108.521c-1.785,1.968-4.848,2.132-6.841,0.364
				c-1.991-1.77-2.163-4.799-0.375-6.769c1.784-1.971,4.845-2.135,6.839-0.366C241.929,103.519,242.099,106.552,240.313,108.521"/>
			<path clip-path="url(#SVGID_16_)" fill="#C7C9C9" d="M240.219,108.441c-1.738,1.918-4.723,2.077-6.667,0.355
				c-1.939-1.726-2.104-4.68-0.365-6.601c1.741-1.919,4.726-2.079,6.669-0.354C241.796,103.566,241.96,106.521,240.219,108.441"/>
			<path clip-path="url(#SVGID_16_)" fill="#CACBCB" d="M240.129,108.357c-1.695,1.869-4.602,2.027-6.493,0.35
				c-1.893-1.679-2.054-4.558-0.357-6.426c1.694-1.873,4.602-2.027,6.493-0.351C241.662,103.61,241.821,106.485,240.129,108.357"/>
			<path clip-path="url(#SVGID_16_)" fill="#CCCECE" d="M240.037,108.277c-1.65,1.82-4.479,1.97-6.321,0.338
				c-1.84-1.632-1.994-4.436-0.346-6.254c1.647-1.822,4.477-1.975,6.319-0.34C241.533,103.655,241.688,106.456,240.037,108.277"/>
			<path clip-path="url(#SVGID_16_)" fill="#CED0D0" d="M239.945,108.197c-1.602,1.77-4.355,1.918-6.146,0.328
				c-1.791-1.59-1.943-4.314-0.338-6.084c1.603-1.771,4.355-1.918,6.149-0.33C241.399,103.7,241.551,106.427,239.945,108.197"/>
			<path clip-path="url(#SVGID_16_)" fill="#D1D3D3" d="M239.855,108.115c-1.561,1.723-4.232,1.861-5.976,0.32
				c-1.742-1.545-1.887-4.193-0.328-5.913c1.56-1.722,4.234-1.865,5.976-0.32C241.267,103.747,241.415,106.395,239.855,108.115"/>
			<path clip-path="url(#SVGID_16_)" fill="#D3D5D5" d="M239.764,108.033c-1.514,1.672-4.111,1.811-5.8,0.311
				c-1.691-1.5-1.834-4.069-0.32-5.741c1.513-1.67,4.109-1.811,5.802-0.309C241.134,103.794,241.276,106.363,239.764,108.033"/>
		</g>
	</g>
	<polygon fill="#605F5E" points="234.107,107.177 235.742,105.37 233.913,103.749 234.826,102.743 236.65,104.367 238.287,102.562 
		239.303,103.46 237.667,105.269 239.494,106.889 238.582,107.891 236.759,106.269 235.119,108.076 	"/>
	<path fill="#231815" d="M239.138,103.469l-1.48,1.633l-0.16,0.175l0.178,0.157l1.653,1.463l-0.754,0.83l-1.649-1.466l-0.176-0.157
		l-0.161,0.173l-1.477,1.636l-0.838-0.745l1.479-1.632l0.156-0.175l-0.172-0.154l-1.653-1.467l0.751-0.828l1.65,1.464l0.175,0.157
		l0.158-0.174l1.478-1.633L239.138,103.469z M239.469,103.451l-1.191-1.055l-1.635,1.806l-1.83-1.62l-1.063,1.175l1.827,1.621
		l-1.638,1.807l1.188,1.056l1.642-1.806l1.823,1.62l1.068-1.174l-1.829-1.62L239.469,103.451z"/>
</g>
<ellipse fill="#E4FF92" stroke="#4D700A" stroke-width="2" stroke-miterlimit="10" cx="269.953" cy="18.205" rx="5.217" ry="5.162"/>
</svg>
