<?xml version="1.0" encoding="utf-8"?>
<!-- Generator: Adobe Illustrator 16.0.0, SVG Export Plug-In . SVG Version: 6.00 Build 0)  -->
<!DOCTYPE svg PUBLIC "-//W3C//DTD SVG 1.1//EN" "http://www.w3.org/Graphics/SVG/1.1/DTD/svg11.dtd">
<svg version="1.1" id="图层_1" xmlns="http://www.w3.org/2000/svg" xmlns:xlink="http://www.w3.org/1999/xlink" x="0px" y="0px"
	 width="230.3px" height="101.8px" viewBox="0 0 230.3 101.8" enable-background="new 0 0 230.3 101.8" xml:space="preserve">
<g>
	<path fill="#8F8F8F" d="M223.838,0h-97.717v13.515c10.152,9.079,16.59,22.516,16.59,37.524c0,27.34-21.33,49.504-47.643,49.504
		c-16.905,0-31.742-9.158-40.199-22.951V24.485c3.04-4.961,6.907-9.313,11.396-12.864V0H6.489C2.903,0,0,2.047,0,4.573v92.683
		c0,2.523,2.903,4.572,6.489,4.572h217.349c3.582,0,6.486-2.049,6.486-4.572V4.573C230.324,2.047,227.42,0,223.838,0z"/>
	<linearGradient id="SVGID_1_" gradientUnits="userSpaceOnUse" x1="81.6025" y1="88.7275" x2="102.8922" y2="83.6659">
		<stop  offset="0" style="stop-color:#9F9FA0"/>
		<stop  offset="0.0788" style="stop-color:#474647"/>
		<stop  offset="0.5862" style="stop-color:#1B1D20"/>
	</linearGradient>
	<path fill="url(#SVGID_1_)" d="M82.695,72.928c0,0-2.787,17.451,2.936,24.898c5.721,7.451,18.331,0,18.331,0
		S91.71,101.314,87.57,74.711"/>
	<linearGradient id="SVGID_2_" gradientUnits="userSpaceOnUse" x1="113.7832" y1="81.6846" x2="133.9852" y2="60.9625">
		<stop  offset="0" style="stop-color:#9F9FA0"/>
		<stop  offset="0.0788" style="stop-color:#474647"/>
		<stop  offset="0.5862" style="stop-color:#1B1D20"/>
	</linearGradient>
	<path fill="url(#SVGID_2_)" d="M108.181,72.852c0,0,6.828,12.191,21.186,11.822l7.578-11.822c0,0-17.859,1.465-17.859-10.137
		C119.086,51.113,108.181,72.852,108.181,72.852z"/>
	<linearGradient id="SVGID_3_" gradientUnits="userSpaceOnUse" x1="58.2939" y1="68.043" x2="71.2562" y2="75.8106">
		<stop  offset="0" style="stop-color:#9F9FA0"/>
		<stop  offset="0.0788" style="stop-color:#474647"/>
		<stop  offset="0.5862" style="stop-color:#1B1D20"/>
	</linearGradient>
	<path fill="url(#SVGID_3_)" d="M70.366,57.955c0,0-11.404,5.119-14.323,16.672c-2.347,9.293,6.929,13.484,6.929,13.484
		s-1.999-15.434,7.394-27.555"/>
	<linearGradient id="SVGID_4_" gradientUnits="userSpaceOnUse" x1="54.7329" y1="28.584" x2="76.4829" y2="28.584">
		<stop  offset="0" style="stop-color:#1B1D20"/>
		<stop  offset="0.8571" style="stop-color:#474647"/>
		<stop  offset="1" style="stop-color:#9F9FA0"/>
	</linearGradient>
	<path fill="url(#SVGID_4_)" d="M76.483,32.406c0,0-3.074-12.889-21.75-7.327v8.403C54.733,33.482,60.135,25.938,76.483,32.406z"/>
	<linearGradient id="SVGID_5_" gradientUnits="userSpaceOnUse" x1="90.0327" y1="15.3564" x2="104.4258" y2="15.3564">
		<stop  offset="0" style="stop-color:#1B1D20"/>
		<stop  offset="0.8571" style="stop-color:#474647"/>
		<stop  offset="1" style="stop-color:#9F9FA0"/>
	</linearGradient>
	<path fill="url(#SVGID_5_)" d="M93.894,2.13c0,0,12.351,11.405,10.303,26.453c0,0,2.12-4.118-10.645-4.002
		c0,0,3.586-23.437-3.519-22.285"/>
	<linearGradient id="SVGID_6_" gradientUnits="userSpaceOnUse" x1="112.9277" y1="27.1943" x2="128.7186" y2="29.4159">
		<stop  offset="0" style="stop-color:#1B1D20"/>
		<stop  offset="0.8571" style="stop-color:#474647"/>
		<stop  offset="1" style="stop-color:#9F9FA0"/>
	</linearGradient>
	<path fill="url(#SVGID_6_)" d="M128.434,17.539c0,0,2.107,26.568-9.563,30.126c0,0-1.516-9.863-6.245-14.184
		c0,0,14.213-5.773,9.168-24.675"/>
	<g>
		<ellipse fill="#020202" cx="58.364" cy="8.233" rx="7.244" ry="7.525"/>
		<path fill="#C8C8C8" d="M58.363,2.356c3.072,0,5.566,2.631,5.566,5.879c0,3.245-2.494,5.873-5.566,5.873
			c-3.073,0-5.565-2.628-5.565-5.873C52.797,4.987,55.29,2.356,58.363,2.356"/>
		<rect x="55.472" y="7.164" fill="#040000" width="5.784" height="2.137"/>
		<rect x="57.35" y="5.181" fill="#040000" width="2.027" height="6.105"/>
	</g>
	<g>
		<path fill="#020202" d="M127.047,8.233c0-4.156,3.246-7.525,7.246-7.525c3.998,0,7.242,3.369,7.242,7.525
			c0,4.157-3.244,7.528-7.242,7.528C130.293,15.762,127.047,12.391,127.047,8.233z"/>
		<path fill="#C8C8C8" d="M134.291,2.356c3.074,0,5.566,2.631,5.566,5.879c0,3.245-2.492,5.873-5.566,5.873
			s-5.564-2.628-5.564-5.873C128.727,4.987,131.217,2.356,134.291,2.356"/>
		<rect x="131.4" y="7.164" fill="#040000" width="5.783" height="2.137"/>
		<rect x="133.277" y="5.181" fill="#040000" width="2.027" height="6.105"/>
	</g>
	<g>
		<path fill="#020202" d="M51.12,92.711c0-4.152,3.24-7.523,7.243-7.523c4,0,7.245,3.371,7.245,7.523
			c0,4.158-3.245,7.531-7.245,7.531C54.36,100.242,51.12,96.869,51.12,92.711z"/>
		<path fill="#C8C8C8" d="M58.363,86.838c3.072,0,5.566,2.631,5.566,5.875c0,3.248-2.494,5.877-5.566,5.877
			c-3.073,0-5.565-2.629-5.565-5.877C52.797,89.469,55.29,86.838,58.363,86.838"/>
		<rect x="55.472" y="91.646" fill="#040000" width="5.784" height="2.137"/>
		<rect x="57.35" y="89.66" fill="#040000" width="2.027" height="6.105"/>
	</g>
	<g>
		<path fill="#020202" d="M127.047,92.711c0-4.152,3.246-7.523,7.246-7.523c3.998,0,7.242,3.371,7.242,7.523
			c0,4.158-3.244,7.531-7.242,7.531C130.293,100.242,127.047,96.869,127.047,92.711z"/>
		<path fill="#C8C8C8" d="M134.291,86.838c3.074,0,5.566,2.631,5.566,5.875c0,3.248-2.492,5.877-5.566,5.877
			s-5.564-2.629-5.564-5.877C128.727,89.469,131.217,86.838,134.291,86.838"/>
		<rect x="131.4" y="91.646" fill="#040000" width="5.783" height="2.137"/>
		<rect x="133.277" y="89.66" fill="#040000" width="2.027" height="6.105"/>
	</g>
	<ellipse fill="#EAEAEA" stroke="#BABABA" stroke-miterlimit="10" cx="94.325" cy="53.027" rx="28.24" ry="29.342"/>
	<text transform="matrix(0.9624 0 0 1 80.1646 48.3223)" fill="#3D3D3D" font-family="'SimHei'" font-size="10.9755">1400W</text>
	<rect x="80.392" y="53.027" fill="#3D3D3D" width="2.991" height="3.699"/>
	<rect x="85.306" y="53.027" fill="#3D3D3D" width="2.989" height="3.699"/>
	<rect x="90.217" y="53.027" fill="#3D3D3D" width="2.989" height="3.699"/>
	<rect x="95.129" y="53.027" fill="#3D3D3D" width="2.989" height="3.699"/>
	<rect x="100.325" y="53.027" fill="#3D3D3D" width="5.34" height="3.699"/>
	<rect x="108.727" y="53.027" fill="#3D3D3D" width="5.339" height="3.699"/>
	<rect x="80.392" y="57.984" fill="#3D3D3D" width="2.991" height="3.697"/>
	<rect x="85.306" y="57.984" fill="#3D3D3D" width="2.989" height="3.697"/>
	<rect x="90.217" y="57.984" fill="#3D3D3D" width="2.989" height="3.697"/>
	<rect x="95.129" y="57.984" fill="#3D3D3D" width="2.989" height="3.697"/>
	<rect x="80.392" y="62.939" fill="#3D3D3D" width="2.991" height="3.699"/>
	<rect x="85.306" y="62.939" fill="#3D3D3D" width="2.989" height="3.699"/>
	<rect x="90.217" y="62.939" fill="#3D3D3D" width="2.989" height="3.699"/>
	<rect x="95.129" y="62.939" fill="#3D3D3D" width="2.989" height="3.699"/>
	<rect x="80.392" y="67.895" fill="#3D3D3D" width="2.991" height="3.699"/>
	<rect x="85.306" y="67.895" fill="#3D3D3D" width="2.989" height="3.699"/>
	<rect x="90.217" y="67.895" fill="#3D3D3D" width="2.989" height="3.699"/>
	<rect x="95.129" y="67.895" fill="#3D3D3D" width="2.989" height="3.699"/>
	<rect x="80.392" y="72.852" fill="#3D3D3D" width="2.991" height="3.697"/>
	<rect x="85.306" y="72.852" fill="#3D3D3D" width="2.989" height="3.697"/>
	<rect x="90.217" y="72.852" fill="#3D3D3D" width="2.989" height="3.697"/>
	<rect x="95.129" y="72.852" fill="#3D3D3D" width="2.989" height="3.697"/>
	<g>
		<path fill="#39393A" d="M206.162,14.074c1.328,0,2.406,1.167,2.406,2.604v60.203c0,1.436-1.078,2.604-2.406,2.604h-42.488
			c-1.328,0-2.41-1.168-2.41-2.604V16.678c0-1.437,1.082-2.604,2.41-2.604H206.162z"/>
		<polygon fill="#221714" points="200.527,69.363 177.113,69.363 169.309,60.801 169.309,32.503 177.471,24.197 200.527,24.197 		
			"/>
		<rect x="183.059" y="33.541" fill="#353741" width="8.883" height="2.855"/>
		<rect x="184.617" y="34.966" fill="#8B8F99" width="7.324" height="1.43"/>
		<rect x="177.531" y="46.003" fill="#353741" width="8.887" height="2.854"/>
		<rect x="179.094" y="47.429" fill="#8B8F99" width="7.324" height="1.428"/>
		<rect x="183.059" y="58.461" fill="#353741" width="8.883" height="2.852"/>
		<rect x="184.617" y="59.887" fill="#8B8F99" width="7.324" height="1.426"/>
	</g>
	
		<ellipse fill="#C2FF4D" stroke="#212121" stroke-width="0.5" stroke-miterlimit="10" cx="220.189" cy="91.646" rx="5.656" ry="5.877"/>
</g>
</svg>
