<?xml version="1.0" encoding="utf-8"?>
<!-- Generator: Adobe Illustrator 16.0.0, SVG Export Plug-In . SVG Version: 6.00 Build 0)  -->
<!DOCTYPE svg PUBLIC "-//W3C//DTD SVG 1.1//EN" "http://www.w3.org/Graphics/SVG/1.1/DTD/svg11.dtd">
<svg version="1.1" id="图层_1" xmlns="http://www.w3.org/2000/svg" xmlns:xlink="http://www.w3.org/1999/xlink" x="0px" y="0px"
	 width="1275.59px" height="252.28px" viewBox="0 0 1275.59 252.28" enable-background="new 0 0 1275.59 252.28"
	 xml:space="preserve">
<g>
	<rect x="0.001" y="0.278" fill="#34322F" width="1275.588" height="131.168"/>
	<rect x="0.001" y="0.278" fill="#2C2D2D" width="45.021" height="131.168"/>
	<rect x="41.27" y="0.278" fill="#0B0C0C" width="3.752" height="131.168"/>
	<rect x="41.212" y="0.278" fill="#767676" width="1.453" height="131.168"/>
	<rect x="1232.866" y="0.278" fill="#767676" width="1.455" height="131.168"/>
	<rect x="41.27" y="0.278" fill="#0B0C0C" width="3.752" height="131.168"/>
	<rect x="41.212" y="0.278" fill="#767676" width="1.453" height="131.168"/>
	<rect x="0.001" y="120.834" fill="#34322F" width="1275.588" height="131.168"/>
	<rect x="0.001" y="120.834" fill="#2C2D2D" width="45.021" height="131.168"/>
	<rect x="41.27" y="120.834" fill="#0B0C0C" width="3.752" height="131.168"/>
	<rect x="41.212" y="120.834" fill="#767676" width="1.453" height="131.168"/>
	<rect x="1232.866" y="120.834" fill="#767676" width="1.455" height="131.168"/>
	<rect x="41.27" y="120.834" fill="#0B0C0C" width="3.752" height="131.168"/>
	<rect x="41.212" y="120.834" fill="#767676" width="1.453" height="131.168"/>
	<linearGradient id="SVGID_1_" gradientUnits="userSpaceOnUse" x1="45.0215" y1="126.1401" x2="1230.5693" y2="126.1401">
		<stop  offset="0.1183" style="stop-color:#888888"/>
		<stop  offset="0.1452" style="stop-color:#B4B4B5"/>
		<stop  offset="0.1882" style="stop-color:#C8C9CA"/>
		<stop  offset="0.8548" style="stop-color:#C8C9CA"/>
		<stop  offset="0.8763" style="stop-color:#9E9E9F"/>
		<stop  offset="0.9032" style="stop-color:#888888"/>
	</linearGradient>
	<polygon fill="url(#SVGID_1_)" points="45.021,0.278 45.021,120.834 45.021,131.446 45.021,252.002 1230.569,252.002 
		1230.569,131.446 1230.569,120.834 1230.569,0.278 	"/>
	<path fill="#F4F4F4" d="M45.021,252.002l132.633-59.413c0,0,16.99-5.199,46.75-5.199h828.761c0,0,21.131,0,36.564,5.199
		l140.84,59.413"/>
	<path fill="#959494" d="M45.021,252.002l132.633-53.174c0,0,16.99-5.199,46.75-5.199h828.761c0,0,21.131,0,36.564,5.199
		l140.84,53.174"/>
	<g>
		<path fill="#252526" d="M104.541,251.988c0,0-6.145-10.763,3.294-15.392c21.151-10.371,69.819-24.759,69.819-24.759
			s25.594-9.295,46.75-6.159c3.284,0.486,9.839,2.168,10.095,8.007c0.726,16.642,0,38.32,0,38.32L104.541,251.988z"/>
		
			<linearGradient id="SVGID_2_" gradientUnits="userSpaceOnUse" x1="171.79" y1="-10522.3232" x2="171.79" y2="-10527.9111" gradientTransform="matrix(1 0 0 -1 0 -10275.9219)">
			<stop  offset="0.1452" style="stop-color:#FFFFFF"/>
			<stop  offset="0.2581" style="stop-color:#C8C9CA"/>
			<stop  offset="0.8548" style="stop-color:#C8C9CA"/>
			<stop  offset="0.8763" style="stop-color:#9E9E9F"/>
			<stop  offset="0.9032" style="stop-color:#888888"/>
		</linearGradient>
		<path fill="url(#SVGID_2_)" d="M116.799,251.988c-0.238-0.513-0.384-1.08-0.384-1.688c0-2.154,1.68-3.899,3.75-3.899h103.25
			c2.071,0,3.75,1.745,3.75,3.899c0,0.608-0.146,1.176-0.384,1.688H116.799z"/>
	</g>
	<g>
		<path fill="#252526" d="M1156.142,251.988c0,0,6.145-10.763-3.295-15.392c-21.152-10.371-69.82-24.759-69.82-24.759
			s-25.594-9.295-46.75-6.159c-3.283,0.486-9.84,2.168-10.094,8.007c-0.727,16.642,0,38.32,0,38.32L1156.142,251.988z"/>
		
			<linearGradient id="SVGID_3_" gradientUnits="userSpaceOnUse" x1="-8939.4502" y1="-10522.3223" x2="-8939.4502" y2="-10527.9102" gradientTransform="matrix(-1 0 0 -1 -7850.5576 -10275.9219)">
			<stop  offset="0.1452" style="stop-color:#FFFFFF"/>
			<stop  offset="0.2581" style="stop-color:#C8C9CA"/>
			<stop  offset="0.8548" style="stop-color:#C8C9CA"/>
			<stop  offset="0.8763" style="stop-color:#9E9E9F"/>
			<stop  offset="0.9032" style="stop-color:#888888"/>
		</linearGradient>
		<path fill="url(#SVGID_3_)" d="M1143.882,251.988c0.238-0.513,0.385-1.08,0.385-1.688c0-2.154-1.68-3.899-3.75-3.899h-103.25
			c-2.072,0-3.75,1.745-3.75,3.899c0,0.608,0.145,1.176,0.383,1.688H1143.882z"/>
	</g>
	<g>
		<path fill="#FFFFFF" d="M251.498,249.952v-38.118c0-3.929,4.152-7.114,9.276-7.114h218.959c5.125,0,9.277,3.186,9.277,7.114
			v38.118H251.498z"/>
		<path fill="#252526" d="M251.498,252.032v-38.119c0-3.929,4.152-7.114,9.276-7.114h218.959c5.125,0,9.277,3.186,9.277,7.114
			v38.119H251.498z"/>
	</g>
	<g>
		<path fill="#FFFFFF" d="M508.722,248.912v-38.118c0-3.929,4.152-7.114,9.275-7.114h218.961c5.123,0,9.275,3.186,9.275,7.114
			v38.118H508.722z"/>
		<path fill="#252526" d="M508.722,250.992v-38.118c0-3.93,4.152-7.114,9.275-7.114h218.961c5.123,0,9.275,3.185,9.275,7.114v38.118
			H508.722z"/>
	</g>
	<g>
		<path fill="#FFFFFF" d="M769.944,247.873v-38.119c0-3.929,4.152-7.114,9.275-7.114h218.961c5.123,0,9.277,3.186,9.277,7.114
			v38.119H769.944z"/>
		<path fill="#252526" d="M769.944,249.952v-38.118c0-3.929,4.152-7.114,9.275-7.114h218.961c5.123,0,9.277,3.186,9.277,7.114
			v38.118H769.944z"/>
	</g>
	<g>
		<path fill="#FFFFFF" d="M229.335,198.022c-34.415-0.001-46.182,3.033-46.689,3.168l-35.057,12.497L98.65,232.894
			c-8.85,4.138-3.656,17.77-3.431,18.349l1.391-0.586c-0.05-0.128-4.881-12.816,2.611-16.322l48.875-19.181l34.979-12.469
			c0.073-0.018,13.336-3.412,51.74-3.078l262.35-0.024h550.666c0.336,0.012,36.176,1.305,62.551,12.445
			c4.014,1.696,8.979,3.614,14.236,5.646c14.533,5.615,32.619,12.603,41.783,19.291c2.887,2.107,5.193,4.741,1.734,13.693
			l1.391,0.581c3.867-10.003,0.857-13.272-2.264-15.552c-9.32-6.803-27.508-13.83-42.121-19.476
			c-5.248-2.027-10.205-3.942-14.195-5.628c-26.627-11.248-62.73-12.55-63.092-12.562H497.165l-262.344,0.024
			C232.934,198.029,231.102,198.022,229.335,198.022z"/>
	</g>
	<g>
		<path fill="#3E3E3F" d="M229.335,199.063c-34.415-0.001-46.182,3.033-46.689,3.168l-35.057,12.496L98.65,233.934
			c-8.85,4.138-3.656,17.77-3.431,18.349l1.391-0.586c-0.05-0.128-4.881-12.816,2.611-16.323l48.875-19.18l34.979-12.469
			c0.073-0.018,13.336-3.412,51.74-3.078l262.35-0.024h550.666c0.336,0.011,36.176,1.305,62.551,12.445
			c4.014,1.696,8.979,3.614,14.236,5.646c14.533,5.615,32.619,12.603,41.783,19.291c2.887,2.107,5.193,4.741,1.734,13.693
			l1.391,0.581c3.867-10.003,0.857-13.272-2.264-15.553c-9.32-6.802-27.508-13.829-42.121-19.476
			c-5.248-2.026-10.205-3.941-14.195-5.627c-26.627-11.249-62.73-12.55-63.092-12.562H497.165l-262.344,0.024
			C232.934,199.069,231.102,199.063,229.335,199.063z"/>
	</g>
	<g>
		<ellipse fill="#252526" cx="634.148" cy="122.913" rx="41.917" ry="43.587"/>
		<ellipse fill="#726F6B" cx="634.147" cy="122.913" rx="41.002" ry="42.636"/>
		<ellipse fill="#C8C8C8" cx="634.148" cy="122.913" rx="40.671" ry="42.29"/>
		<ellipse fill="#EDEDEC" cx="634.148" cy="122.913" rx="39.837" ry="41.425"/>
		<ellipse fill="#C8C8C8" cx="634.148" cy="122.913" rx="38.671" ry="40.211"/>
		<ellipse fill="#252526" cx="634.149" cy="122.913" rx="37.504" ry="38.997"/>
		<g>
			<g>
				<linearGradient id="SVGID_4_" gradientUnits="userSpaceOnUse" x1="606.21" y1="122.0293" x2="651.5264" y2="122.0293">
					<stop  offset="0.1183" style="stop-color:#888888"/>
					<stop  offset="0.1452" style="stop-color:#B4B4B5"/>
					<stop  offset="0.1882" style="stop-color:#C8C9CA"/>
					<stop  offset="0.8548" style="stop-color:#C8C9CA"/>
					<stop  offset="0.8763" style="stop-color:#9E9E9F"/>
					<stop  offset="0.9032" style="stop-color:#888888"/>
				</linearGradient>
				<path fill="url(#SVGID_4_)" d="M606.21,114.019v16.58h7.318c0,0,6.311,0,8.021-5.201l8.225,5.586h1.477l8.863-6.075v5.796
					l11.412-0.035v-5.026l-5.639-0.071l-0.035-11.553h-5.672l0.033,5.725l-7.385,5.061l-1.242-1.012l7.15-4.991l-3.49-2.409
					l-7.252,5.025l-1.141-0.802l7.184-5.096l-3.391-2.444l-9.098,6.284c0,0-0.973-4.678-7.25-5.271L606.21,114.019z"/>
				<path fill="#252526" d="M611.849,119.15v6.667c0,0,3.291,0.104,3.861-1.537c0,0,1.477-3.176-1.141-4.746
					C614.569,119.534,613.661,118.836,611.849,119.15z"/>
			</g>
			<linearGradient id="SVGID_5_" gradientUnits="userSpaceOnUse" x1="652.8018" y1="122.3257" x2="664.2139" y2="122.3257">
				<stop  offset="0.1183" style="stop-color:#888888"/>
				<stop  offset="0.1452" style="stop-color:#B4B4B5"/>
				<stop  offset="0.1882" style="stop-color:#C8C9CA"/>
				<stop  offset="0.8548" style="stop-color:#C8C9CA"/>
				<stop  offset="0.8763" style="stop-color:#9E9E9F"/>
				<stop  offset="0.9032" style="stop-color:#888888"/>
			</linearGradient>
			<polygon fill="url(#SVGID_5_)" points="652.802,114.019 658.476,114.019 658.476,125.712 664.214,125.712 664.214,130.633 
				652.802,130.633 			"/>
		</g>
	</g>
	<g>
		<path fill="#F4F4F4" d="M45.021,0.278l132.633,59.413c0,0,16.99,5.199,46.75,5.199h828.761c0,0,21.131,0,36.564-5.199
			l140.84-59.413"/>
		<path fill="#959494" d="M45.021,0.278l132.633,53.174c0,0,16.99,5.199,46.75,5.199h828.761c0,0,21.131,0,36.564-5.199
			l140.84-53.174"/>
		<g>
			<path fill="#252526" d="M104.541,0.292c0,0-6.145,10.763,3.294,15.391c21.151,10.371,69.819,24.76,69.819,24.76
				s25.594,9.294,46.75,6.158c3.284-0.486,9.839-2.168,10.095-8.007c0.726-16.642,0-38.319,0-38.319L104.541,0.292z"/>
			<linearGradient id="SVGID_6_" gradientUnits="userSpaceOnUse" x1="171.79" y1="5.8799" x2="171.79" y2="0.292">
				<stop  offset="0.1452" style="stop-color:#FFFFFF"/>
				<stop  offset="0.2581" style="stop-color:#C8C9CA"/>
				<stop  offset="0.8548" style="stop-color:#C8C9CA"/>
				<stop  offset="0.8763" style="stop-color:#9E9E9F"/>
				<stop  offset="0.9032" style="stop-color:#888888"/>
			</linearGradient>
			<path fill="url(#SVGID_6_)" d="M116.799,0.292c-0.238,0.513-0.384,1.08-0.384,1.688c0,2.153,1.68,3.899,3.75,3.899h103.25
				c2.071,0,3.75-1.746,3.75-3.899c0-0.608-0.146-1.176-0.384-1.688H116.799z"/>
		</g>
		<g>
			<path fill="#252526" d="M1156.142,0.292c0,0,6.145,10.763-3.295,15.391c-21.152,10.371-69.82,24.76-69.82,24.76
				s-25.594,9.294-46.75,6.158c-3.283-0.486-9.84-2.168-10.094-8.007c-0.727-16.642,0-38.319,0-38.319L1156.142,0.292z"/>
			
				<linearGradient id="SVGID_7_" gradientUnits="userSpaceOnUse" x1="-8939.4492" y1="5.8799" x2="-8939.4492" y2="0.292" gradientTransform="matrix(-1 0 0 1 -7850.5576 0)">
				<stop  offset="0.1452" style="stop-color:#FFFFFF"/>
				<stop  offset="0.2581" style="stop-color:#C8C9CA"/>
				<stop  offset="0.8548" style="stop-color:#C8C9CA"/>
				<stop  offset="0.8763" style="stop-color:#9E9E9F"/>
				<stop  offset="0.9032" style="stop-color:#888888"/>
			</linearGradient>
			<path fill="url(#SVGID_7_)" d="M1143.882,0.292c0.238,0.513,0.385,1.08,0.385,1.688c0,2.153-1.68,3.899-3.75,3.899h-103.25
				c-2.072,0-3.75-1.746-3.75-3.899c0-0.608,0.145-1.176,0.383-1.688H1143.882z"/>
		</g>
		<g>
			<path fill="#FFFFFF" d="M251.498,2.328v38.118c0,3.929,4.152,7.114,9.276,7.114h218.959c5.125,0,9.277-3.186,9.277-7.114V2.328
				H251.498z"/>
			<path fill="#252526" d="M251.498,0.248v38.118c0,3.929,4.152,7.114,9.276,7.114h218.959c5.125,0,9.277-3.186,9.277-7.114V0.248
				H251.498z"/>
		</g>
		<g>
			<path fill="#FFFFFF" d="M508.722,3.367v38.119c0,3.929,4.152,7.114,9.275,7.114h218.961c5.123,0,9.275-3.186,9.275-7.114V3.367
				H508.722z"/>
			<path fill="#252526" d="M508.722,1.288v38.118c0,3.929,4.152,7.114,9.275,7.114h218.961c5.123,0,9.275-3.186,9.275-7.114V1.288
				H508.722z"/>
		</g>
		<g>
			<path fill="#FFFFFF" d="M769.944,4.407v38.119c0,3.929,4.152,7.114,9.275,7.114h218.961c5.123,0,9.277-3.186,9.277-7.114V4.407
				H769.944z"/>
			<path fill="#252526" d="M769.944,2.328v38.118c0,3.929,4.152,7.114,9.275,7.114h218.961c5.123,0,9.277-3.186,9.277-7.114V2.328
				H769.944z"/>
		</g>
		<g>
			<path fill="#FFFFFF" d="M229.335,54.258c-34.415,0.001-46.182-3.033-46.689-3.169l-35.057-12.496L98.65,19.387
				c-8.85-4.139-3.656-17.77-3.431-18.349l1.391,0.586c-0.05,0.128-4.881,12.816,2.611,16.322l48.875,19.181l34.979,12.469
				c0.073,0.018,13.336,3.412,51.74,3.078l262.35,0.024h550.666c0.336-0.012,36.176-1.306,62.551-12.446
				c4.014-1.695,8.979-3.613,14.236-5.646c14.533-5.615,32.619-12.604,41.783-19.291c2.887-2.108,5.193-4.741,1.734-13.693
				l1.391-0.581c3.867,10.002,0.857,13.272-2.264,15.552c-9.32,6.803-27.508,13.83-42.121,19.476
				c-5.248,2.027-10.205,3.942-14.195,5.628c-26.627,11.248-62.73,12.549-63.092,12.562H497.165l-262.344-0.024
				C232.934,54.25,231.102,54.258,229.335,54.258z"/>
		</g>
		<g>
			<path fill="#3E3E3F" d="M229.335,53.218c-34.415,0.001-46.182-3.033-46.689-3.168l-35.057-12.497L98.65,18.347
				c-8.85-4.138-3.656-17.77-3.431-18.349l1.391,0.586c-0.05,0.128-4.881,12.816,2.611,16.322l48.875,19.181l34.979,12.469
				c0.073,0.018,13.336,3.412,51.74,3.078l262.35,0.024h550.666c0.336-0.012,36.176-1.305,62.551-12.445
				c4.014-1.696,8.979-3.614,14.236-5.646c14.533-5.615,32.619-12.603,41.783-19.291c2.887-2.107,5.193-4.741,1.734-13.693
				l1.391-0.581c3.867,10.003,0.857,13.272-2.264,15.552c-9.32,6.803-27.508,13.83-42.121,19.476
				c-5.248,2.027-10.205,3.942-14.195,5.628c-26.627,11.248-62.73,12.549-63.092,12.562H497.165l-262.344-0.024
				C232.934,53.211,231.102,53.218,229.335,53.218z"/>
		</g>
	</g>
	<path fill="#C1C0C0" d="M107.048,158.724c-11.902,0-47.609,0-47.609,0c-2.073,0-3.754-1.747-3.754-3.903V85.396
		c0-2.154,1.681-3.903,3.754-3.903h47.609c2.073,0,40.354,19.643,40.354,37.221C147.401,136.294,109.121,158.724,107.048,158.724z"
		/>
	<path fill="#34322F" d="M107.048,159.764c-11.902,0-47.609,0-47.609,0c-2.073,0-3.754-1.747-3.754-3.903V86.437
		c0-2.154,1.681-3.903,3.754-3.903h47.609c2.073,0,40.354,19.643,40.354,37.221C147.401,137.334,109.121,159.764,107.048,159.764z"
		/>
	<g>
		<g>
			<path fill="#252626" d="M101.283,119.069c0,8.688,6.775,15.73,15.132,15.73c8.357,0,15.132-7.043,15.132-15.73
				c0-8.687-6.774-15.731-15.132-15.731C108.059,103.338,101.283,110.383,101.283,119.069"/>
			
				<ellipse fill="none" stroke="#121212" stroke-width="0.75" stroke-miterlimit="10" cx="116.415" cy="119.069" rx="15.132" ry="15.73"/>
			<polygon fill="#040000" points="118.285,127.991 118.285,121.013 124.997,121.013 124.997,117.124 118.285,117.124 
				118.285,110.147 114.544,110.147 114.544,117.124 107.834,117.124 107.834,121.013 114.544,121.013 114.544,127.991 			"/>
			<path fill="#221714" d="M117.969,110.476v6.32v0.656h0.632h6.08v3.232h-6.08h-0.632v0.655v6.323h-3.108v-6.323v-0.655h-0.63
				h-6.082v-3.232h6.082h0.63v-0.656v-6.32H117.969z M114.23,116.796h-6.713v4.544h6.713v6.978h4.37v-6.978h6.712v-4.544h-6.712
				v-6.978h-4.37V116.796z"/>
		</g>
		<rect x="117.969" y="109.821" fill="#606062" width="0.632" height="7.631"/>
		<rect x="117.973" y="116.795" fill="#606062" width="7.34" height="0.657"/>
	</g>
</g>
</svg>
