<?xml version="1.0" encoding="utf-8"?>
<!-- Generator: Adobe Illustrator 16.0.0, SVG Export Plug-In . SVG Version: 6.00 Build 0)  -->
<!DOCTYPE svg PUBLIC "-//W3C//DTD SVG 1.1//EN" "http://www.w3.org/Graphics/SVG/1.1/DTD/svg11.dtd">
<svg version="1.1" id="图层_1" xmlns="http://www.w3.org/2000/svg" xmlns:xlink="http://www.w3.org/1999/xlink" x="0px" y="0px"
	 width="1275.59px" height="126.14px" viewBox="0 0 1275.59 126.14" enable-background="new 0 0 1275.59 126.14"
	 xml:space="preserve">
<g>
	<rect y="0.28" fill="#34322F" width="1275.59" height="125.86"/>
	<rect y="0.28" fill="#2C2D2D" width="45.021" height="125.86"/>
	<rect x="41.269" y="0.28" fill="#0B0C0C" width="3.752" height="125.86"/>
	<rect x="41.211" y="0.28" fill="#767676" width="1.454" height="125.86"/>
	<rect x="1232.867" y="0.28" fill="#767676" width="1.454" height="125.86"/>
	<rect x="41.269" y="0.28" fill="#0B0C0C" width="3.752" height="125.86"/>
	<rect x="41.211" y="0.28" fill="#767676" width="1.454" height="125.86"/>
	<linearGradient id="SVGID_1_" gradientUnits="userSpaceOnUse" x1="45.021" y1="63.2104" x2="1230.5693" y2="63.2104">
		<stop  offset="0.1183" style="stop-color:#888888"/>
		<stop  offset="0.1452" style="stop-color:#B4B4B5"/>
		<stop  offset="0.1882" style="stop-color:#C8C9CA"/>
		<stop  offset="0.8548" style="stop-color:#C8C9CA"/>
		<stop  offset="0.8763" style="stop-color:#9E9E9F"/>
		<stop  offset="0.9032" style="stop-color:#888888"/>
	</linearGradient>
	<polygon fill="url(#SVGID_1_)" points="45.021,0.28 45.021,60.558 45.021,65.863 45.021,126.141 1230.569,126.141 1230.569,65.863 
		1230.569,60.558 1230.569,0.28 	"/>
	<g>
		<path fill="#F4F4F4" d="M45.021,0.28l132.633,59.564c0,0,16.99,5.212,46.75,5.212h828.76c0,0,21.131,0,36.566-5.212L1230.569,0.28
			"/>
		<path fill="#959494" d="M45.021,0.28l132.633,53.309c0,0,16.99,5.213,46.75,5.213h828.76c0,0,21.131,0,36.566-5.213L1230.569,0.28
			"/>
		<g>
			<path fill="#252526" d="M104.54,0.293c0,0-6.145,10.791,3.294,15.431c21.153,10.397,69.82,24.821,69.82,24.821
				s25.593,9.319,46.75,6.175c3.284-0.487,9.839-2.173,10.094-8.027c0.726-16.684,0-38.416,0-38.416L104.54,0.293z"/>
			<linearGradient id="SVGID_2_" gradientUnits="userSpaceOnUse" x1="171.7896" y1="5.8955" x2="171.7896" y2="0.293">
				<stop  offset="0.1452" style="stop-color:#FFFFFF"/>
				<stop  offset="0.2581" style="stop-color:#C8C9CA"/>
				<stop  offset="0.8548" style="stop-color:#C8C9CA"/>
				<stop  offset="0.8763" style="stop-color:#9E9E9F"/>
				<stop  offset="0.9032" style="stop-color:#888888"/>
			</linearGradient>
			<path fill="url(#SVGID_2_)" d="M116.798,0.293c-0.239,0.515-0.384,1.083-0.384,1.693c0,2.159,1.679,3.909,3.75,3.909h103.25
				c2.071,0,3.75-1.75,3.75-3.909c0-0.61-0.145-1.179-0.384-1.693H116.798z"/>
		</g>
		<g>
			<path fill="#252526" d="M1156.141,0.293c0,0,6.145,10.791-3.295,15.431c-21.152,10.397-69.82,24.821-69.82,24.821
				s-25.593,9.319-46.75,6.175c-3.283-0.487-9.838-2.173-10.093-8.027c-0.727-16.684,0-38.416,0-38.416L1156.141,0.293z"/>
			
				<linearGradient id="SVGID_3_" gradientUnits="userSpaceOnUse" x1="-8939.4482" y1="5.8955" x2="-8939.4482" y2="0.293" gradientTransform="matrix(-1 0 0 1 -7850.5576 0)">
				<stop  offset="0.1452" style="stop-color:#FFFFFF"/>
				<stop  offset="0.2581" style="stop-color:#C8C9CA"/>
				<stop  offset="0.8548" style="stop-color:#C8C9CA"/>
				<stop  offset="0.8763" style="stop-color:#9E9E9F"/>
				<stop  offset="0.9032" style="stop-color:#888888"/>
			</linearGradient>
			<path fill="url(#SVGID_3_)" d="M1143.882,0.293c0.238,0.515,0.384,1.083,0.384,1.693c0,2.159-1.679,3.909-3.75,3.909h-103.25
				c-2.07,0-3.75-1.75-3.75-3.909c0-0.61,0.146-1.179,0.384-1.693H1143.882z"/>
		</g>
		<g>
			<path fill="#FFFFFF" d="M251.498,2.334V40.55c0,3.939,4.153,7.133,9.276,7.133h218.961c5.124,0,9.276-3.193,9.276-7.133V2.334
				H251.498z"/>
			<path fill="#252526" d="M251.498,0.249v38.216c0,3.938,4.153,7.132,9.276,7.132h218.961c5.124,0,9.276-3.193,9.276-7.132V0.249
				H251.498z"/>
		</g>
		<g>
			<path fill="#FFFFFF" d="M508.721,3.377v38.216c0,3.938,4.153,7.133,9.276,7.133h218.961c5.123,0,9.276-3.194,9.276-7.133V3.377
				H508.721z"/>
			<path fill="#252526" d="M508.721,1.291v38.217c0,3.938,4.153,7.132,9.276,7.132h218.961c5.123,0,9.276-3.193,9.276-7.132V1.291
				H508.721z"/>
		</g>
		<g>
			<path fill="#FFFFFF" d="M769.943,4.419v38.216c0,3.939,4.153,7.133,9.276,7.133h218.962c5.122,0,9.275-3.193,9.275-7.133V4.419
				H769.943z"/>
			<path fill="#252526" d="M769.943,2.334V40.55c0,3.939,4.153,7.133,9.276,7.133h218.962c5.122,0,9.275-3.193,9.275-7.133V2.334
				H769.943z"/>
		</g>
		<g>
			<path fill="#FFFFFF" d="M229.334,54.396c-34.416,0.001-46.182-3.04-46.69-3.177l-35.057-12.527L98.649,19.437
				c-8.85-4.148-3.656-17.814-3.43-18.395l1.39,0.587c-0.049,0.128-4.88,12.849,2.613,16.364l48.874,19.229l34.978,12.5
				c0.073,0.018,13.336,3.421,51.74,3.086l262.35,0.023h550.667c0.335-0.011,36.176-1.308,62.55-12.477
				c4.013-1.7,8.979-3.623,14.237-5.66c14.532-5.63,32.619-12.636,41.781-19.34c2.889-2.114,5.194-4.754,1.734-13.729l1.392-0.583
				c3.866,10.028,0.858,13.306-2.265,15.592c-9.32,6.82-27.507,13.864-42.12,19.525c-5.248,2.032-10.203,3.952-14.194,5.643
				c-26.628,11.276-62.73,12.58-63.092,12.593H497.165L234.82,54.372C232.933,54.389,231.101,54.396,229.334,54.396z"/>
		</g>
		<g>
			<path fill="#3E3E3F" d="M229.334,53.354c-34.416,0.001-46.182-3.041-46.69-3.178l-35.057-12.527L98.649,18.395
				c-8.85-4.148-3.656-17.815-3.43-18.396l1.39,0.587c-0.049,0.129-4.88,12.85,2.613,16.364l48.874,19.229l34.978,12.501
				c0.073,0.017,13.336,3.42,51.74,3.086l262.35,0.024h550.667c0.335-0.012,36.176-1.309,62.55-12.479
				c4.013-1.699,8.979-3.623,14.237-5.66c14.532-5.629,32.619-12.636,41.781-19.34c2.889-2.114,5.194-4.753,1.734-13.729
				l1.392-0.582c3.866,10.028,0.858,13.306-2.265,15.591c-9.32,6.82-27.507,13.865-42.12,19.525
				c-5.248,2.033-10.203,3.953-14.194,5.643c-26.628,11.276-62.73,12.581-63.092,12.594H497.165L234.82,53.33
				C232.933,53.348,231.101,53.354,229.334,53.354z"/>
		</g>
	</g>
	<g>
		<path fill="#C1C0C0" d="M107.047,109.061c-11.902,0-47.61,0-47.61,0c-2.073,0-3.754-1.616-3.754-3.612V41.203
			c0-1.996,1.681-3.612,3.754-3.612h47.61c2.073,0,40.353,18.177,40.353,34.444C147.4,88.304,109.121,109.061,107.047,109.061z"/>
		<path fill="#34322F" d="M107.047,110.022c-11.902,0-47.61,0-47.61,0c-2.073,0-3.754-1.617-3.754-3.612V42.165
			c0-1.996,1.681-3.612,3.754-3.612h47.61c2.073,0,40.353,18.177,40.353,34.445C147.4,89.266,109.121,110.022,107.047,110.022z"/>
		<g>
			<g>
				<path fill="#252626" d="M101.283,72.364c0,8.039,6.776,14.556,15.131,14.556c8.357,0,15.132-6.517,15.132-14.556
					c0-8.04-6.774-14.559-15.132-14.559C108.059,57.806,101.283,64.324,101.283,72.364"/>
				
					<ellipse fill="none" stroke="#121212" stroke-width="0.75" stroke-miterlimit="10" cx="116.414" cy="72.364" rx="15.132" ry="14.556"/>
				<polygon fill="#040000" points="118.284,80.619 118.284,74.161 124.996,74.161 124.996,70.563 118.284,70.563 118.284,64.108 
					114.544,64.108 114.544,70.563 107.833,70.563 107.833,74.161 114.544,74.161 114.544,80.619 				"/>
				<path fill="#221714" d="M117.968,64.411v5.849v0.606h0.632h6.08v2.991h-6.08h-0.632v0.607v5.851h-3.108v-5.851v-0.607h-0.63
					h-6.082v-2.991h6.082h0.63V70.26v-5.849H117.968z M114.229,70.26h-6.712v4.205h6.712v6.456h4.371v-6.456h6.712V70.26H118.6
					v-6.456h-4.371V70.26z"/>
			</g>
			<rect x="117.968" y="63.805" fill="#606062" width="0.632" height="7.062"/>
			<rect x="117.972" y="70.259" fill="#606062" width="7.34" height="0.607"/>
		</g>
	</g>
	<g>
		<path fill="#C1C0C0" d="M1163.936,38.553c11.902,0,47.609,0,47.609,0c2.073,0,3.754,1.616,3.754,3.612v64.245
			c0,1.996-1.681,3.612-3.754,3.612h-47.609c-2.074,0-40.354-18.177-40.354-34.445C1123.582,59.31,1161.861,38.553,1163.936,38.553z
			"/>
		<path fill="#34322F" d="M1163.936,37.591c11.902,0,47.609,0,47.609,0c2.073,0,3.754,1.617,3.754,3.612v64.245
			c0,1.996-1.681,3.612-3.754,3.612h-47.609c-2.074,0-40.354-18.178-40.354-34.445S1161.861,37.591,1163.936,37.591z"/>
		<g>
			<g>
				<path fill="#252626" d="M1169.699,75.249c0-8.039-6.775-14.556-15.131-14.556c-8.357,0-15.132,6.517-15.132,14.556
					c0,8.04,6.774,14.559,15.132,14.559C1162.924,89.808,1169.699,83.289,1169.699,75.249"/>
				
					<ellipse fill="none" stroke="#121212" stroke-width="0.75" stroke-miterlimit="10" cx="1154.568" cy="75.249" rx="15.131" ry="14.556"/>
				<polygon fill="#040000" points="1152.698,66.994 1152.698,73.452 1145.986,73.452 1145.986,77.05 1152.698,77.05 
					1152.698,83.505 1156.438,83.505 1156.438,77.05 1163.149,77.05 1163.149,73.452 1156.438,73.452 1156.438,66.994 				"/>
				<path fill="#221714" d="M1153.015,83.201v-5.848v-0.606h-0.632h-6.08v-2.991h6.08h0.632v-0.607v-5.851h3.108v5.851v0.607h0.63
					h6.082v2.991h-6.082h-0.63v0.606v5.848H1153.015z M1156.753,77.354h6.712v-4.205h-6.712v-6.457h-4.37v6.457h-6.713v4.205h6.713
					v6.456h4.37V77.354z"/>
			</g>
			<rect x="1152.383" y="76.747" fill="#606062" width="0.632" height="7.062"/>
			<rect x="1145.67" y="76.747" fill="#606062" width="7.341" height="0.607"/>
		</g>
	</g>
	<g>
		<ellipse fill="#252526" cx="631.148" cy="63.074" rx="41.917" ry="43.698"/>
		<ellipse fill="#726F6B" cx="631.149" cy="63.074" rx="41.001" ry="42.744"/>
		<ellipse fill="#C8C8C8" cx="631.149" cy="63.074" rx="40.671" ry="42.397"/>
		<ellipse fill="#EDEDEC" cx="631.149" cy="63.074" rx="39.837" ry="41.529"/>
		<ellipse fill="#C8C8C8" cx="631.149" cy="63.074" rx="38.671" ry="40.313"/>
		<ellipse fill="#252526" cx="631.148" cy="63.074" rx="37.504" ry="39.097"/>
		<g>
			<g>
				<linearGradient id="SVGID_4_" gradientUnits="userSpaceOnUse" x1="603.209" y1="62.188" x2="648.5273" y2="62.188">
					<stop  offset="0.1183" style="stop-color:#888888"/>
					<stop  offset="0.1452" style="stop-color:#B4B4B5"/>
					<stop  offset="0.1882" style="stop-color:#C8C9CA"/>
					<stop  offset="0.8548" style="stop-color:#C8C9CA"/>
					<stop  offset="0.8763" style="stop-color:#9E9E9F"/>
					<stop  offset="0.9032" style="stop-color:#888888"/>
				</linearGradient>
				<path fill="url(#SVGID_4_)" d="M603.209,54.157v16.621h7.318c0,0,6.311,0,8.023-5.215l8.225,5.602h1.476l8.862-6.09v5.81
					l11.414-0.036v-5.038l-5.64-0.07l-0.034-11.583h-5.672l0.033,5.739l-7.386,5.073l-1.242-1.016l7.15-5.003l-3.491-2.415
					l-7.25,5.039l-1.141-0.805l7.183-5.108l-3.39-2.451l-9.097,6.301c0,0-0.973-4.69-7.25-5.285L603.209,54.157z"/>
				<path fill="#252526" d="M608.849,59.302v6.685c0,0,3.291,0.104,3.86-1.541c0,0,1.477-3.185-1.141-4.759
					C611.568,59.687,610.662,58.986,608.849,59.302z"/>
			</g>
			<linearGradient id="SVGID_5_" gradientUnits="userSpaceOnUse" x1="649.8027" y1="62.4854" x2="661.2148" y2="62.4854">
				<stop  offset="0.1183" style="stop-color:#888888"/>
				<stop  offset="0.1452" style="stop-color:#B4B4B5"/>
				<stop  offset="0.1882" style="stop-color:#C8C9CA"/>
				<stop  offset="0.8548" style="stop-color:#C8C9CA"/>
				<stop  offset="0.8763" style="stop-color:#9E9E9F"/>
				<stop  offset="0.9032" style="stop-color:#888888"/>
			</linearGradient>
			<polygon fill="url(#SVGID_5_)" points="649.803,54.157 655.475,54.157 655.475,65.88 661.215,65.88 661.215,70.813 
				649.803,70.813 			"/>
		</g>
	</g>
</g>
</svg>
