<?xml version="1.0" encoding="utf-8"?>
<!-- Generator: Adobe Illustrator 16.0.0, SVG Export Plug-In . SVG Version: 6.00 Build 0)  -->
<!DOCTYPE svg PUBLIC "-//W3C//DTD SVG 1.1//EN" "http://www.w3.org/Graphics/SVG/1.1/DTD/svg11.dtd">
<svg version="1.1" id="图层_1" xmlns="http://www.w3.org/2000/svg" xmlns:xlink="http://www.w3.org/1999/xlink" x="0px" y="0px"
	 width="1275.59px" height="126.14px" viewBox="0 0 1275.59 126.14" enable-background="new 0 0 1275.59 126.14"
	 xml:space="preserve">
<linearGradient id="SVGID_1_" gradientUnits="userSpaceOnUse" x1="637.7954" y1="126.1406" x2="637.7954" y2="-4.882813e-004">
	<stop  offset="0" style="stop-color:#919292"/>
	<stop  offset="0.0287" style="stop-color:#C9CACA"/>
	<stop  offset="0.9642" style="stop-color:#DCDDDD"/>
	<stop  offset="1" style="stop-color:#919292"/>
</linearGradient>
<rect y="-0.001" fill="url(#SVGID_1_)" width="1275.591" height="126.142"/>
<g>
	<linearGradient id="SVGID_2_" gradientUnits="userSpaceOnUse" x1="40.7715" y1="5.7354" x2="40.7715" y2="-9.765625e-004">
		<stop  offset="0.1344" style="stop-color:#919292"/>
		<stop  offset="0.2062" style="stop-color:#F7F7F7"/>
		<stop  offset="0.643" style="stop-color:#EEEEEF"/>
		<stop  offset="0.8387" style="stop-color:#919292"/>
	</linearGradient>
	<rect y="-0.001" fill="url(#SVGID_2_)" width="81.543" height="5.736"/>
</g>
<g>
	
		<linearGradient id="SVGID_3_" gradientUnits="userSpaceOnUse" x1="-775.8628" y1="-534.7524" x2="-775.8628" y2="-540.4888" gradientTransform="matrix(-4.371139e-008 1 -1 -4.371139e-008 -534.7524 806.0151)">
		<stop  offset="0.1344" style="stop-color:#919292"/>
		<stop  offset="0.2062" style="stop-color:#F7F7F7"/>
		<stop  offset="0.643" style="stop-color:#EEEEEF"/>
		<stop  offset="0.8387" style="stop-color:#919292"/>
	</linearGradient>
	<rect y="5.735" fill="url(#SVGID_3_)" width="5.736" height="48.834"/>
</g>
<g>
	<rect x="10.821" y="70.402" fill="#191C1B" width="66.673" height="45.17"/>
</g>
<rect x="23.821" y="5.735" fill="#191C1B" width="33" height="5.501"/>
<path fill="#191C1B" d="M46.821,23.903c0,1.657-1.343,3-3,3h-13c-1.656,0-3-1.343-3-3v-6c0-1.657,1.344-3,3-3h13
	c1.657,0,3,1.343,3,3V23.903z"/>
<path fill="#191C1B" d="M46.821,39.152c0,1.657-1.343,3-3,3h-13c-1.656,0-3-1.343-3-3v-6c0-1.657,1.344-3,3-3h13
	c1.657,0,3,1.343,3,3V39.152z"/>
<path fill="#191C1B" d="M46.821,54.401c0,1.657-1.343,3-3,3h-13c-1.656,0-3-1.343-3-3v-6c0-1.657,1.344-3,3-3h13
	c1.657,0,3,1.343,3,3V54.401z"/>
<g>
	<g>
		
			<linearGradient id="SVGID_4_" gradientUnits="userSpaceOnUse" x1="-1285.3677" y1="195.9248" x2="-1285.3677" y2="193.0566" gradientTransform="matrix(-1 0 0 -1 -1241.21 303.1133)">
			<stop  offset="0.1344" style="stop-color:#919292"/>
			<stop  offset="0.2062" style="stop-color:#F7F7F7"/>
			<stop  offset="0.643" style="stop-color:#EEEEEF"/>
			<stop  offset="0.8387" style="stop-color:#919292"/>
		</linearGradient>
		<rect x="10.821" y="107.188" fill="url(#SVGID_4_)" width="66.673" height="2.868"/>
	</g>
	<g>
		
			<linearGradient id="SVGID_5_" gradientUnits="userSpaceOnUse" x1="-1285.3677" y1="211.126" x2="-1285.3677" y2="208.2578" gradientTransform="matrix(-1 0 0 -1 -1241.21 303.1133)">
			<stop  offset="0.1344" style="stop-color:#919292"/>
			<stop  offset="0.2062" style="stop-color:#F7F7F7"/>
			<stop  offset="0.643" style="stop-color:#EEEEEF"/>
			<stop  offset="0.8387" style="stop-color:#919292"/>
		</linearGradient>
		<rect x="10.821" y="91.987" fill="url(#SVGID_5_)" width="66.673" height="2.868"/>
	</g>
	<g>
		
			<linearGradient id="SVGID_6_" gradientUnits="userSpaceOnUse" x1="-1285.3677" y1="226.3271" x2="-1285.3677" y2="223.459" gradientTransform="matrix(-1 0 0 -1 -1241.21 303.1133)">
			<stop  offset="0.1344" style="stop-color:#919292"/>
			<stop  offset="0.2062" style="stop-color:#F7F7F7"/>
			<stop  offset="0.643" style="stop-color:#EEEEEF"/>
			<stop  offset="0.8387" style="stop-color:#919292"/>
		</linearGradient>
		<rect x="10.821" y="76.786" fill="url(#SVGID_6_)" width="66.673" height="2.868"/>
	</g>
</g>
<g>
	<g>
		
			<linearGradient id="SVGID_7_" gradientUnits="userSpaceOnUse" x1="-441.7603" y1="774.2588" x2="-441.7603" y2="771.3906" gradientTransform="matrix(4.371139e-008 -1 1 4.371139e-008 -743.1772 -348.7729)">
			<stop  offset="0.1344" style="stop-color:#919292"/>
			<stop  offset="0.2062" style="stop-color:#F7F7F7"/>
			<stop  offset="0.643" style="stop-color:#EEEEEF"/>
			<stop  offset="0.8387" style="stop-color:#919292"/>
		</linearGradient>
		<rect x="28.213" y="70.402" fill="url(#SVGID_7_)" width="2.868" height="45.17"/>
	</g>
	<g>
		
			<linearGradient id="SVGID_8_" gradientUnits="userSpaceOnUse" x1="-441.7603" y1="759.7725" x2="-441.7603" y2="756.9043" gradientTransform="matrix(4.371139e-008 -1 1 4.371139e-008 -743.1772 -348.7729)">
			<stop  offset="0.1344" style="stop-color:#919292"/>
			<stop  offset="0.2062" style="stop-color:#F7F7F7"/>
			<stop  offset="0.643" style="stop-color:#EEEEEF"/>
			<stop  offset="0.8387" style="stop-color:#919292"/>
		</linearGradient>
		<rect x="13.727" y="70.402" fill="url(#SVGID_8_)" width="2.868" height="45.17"/>
	</g>
	<g>
		
			<linearGradient id="SVGID_9_" gradientUnits="userSpaceOnUse" x1="-441.7603" y1="788.7441" x2="-441.7603" y2="785.876" gradientTransform="matrix(4.371139e-008 -1 1 4.371139e-008 -743.1772 -348.7729)">
			<stop  offset="0.1344" style="stop-color:#919292"/>
			<stop  offset="0.2062" style="stop-color:#F7F7F7"/>
			<stop  offset="0.643" style="stop-color:#EEEEEF"/>
			<stop  offset="0.8387" style="stop-color:#919292"/>
		</linearGradient>
		<rect x="42.698" y="70.402" fill="url(#SVGID_9_)" width="2.868" height="45.17"/>
	</g>
	<g>
		
			<linearGradient id="SVGID_10_" gradientUnits="userSpaceOnUse" x1="-441.7603" y1="803.2305" x2="-441.7603" y2="800.3623" gradientTransform="matrix(4.371139e-008 -1 1 4.371139e-008 -743.1772 -348.7729)">
			<stop  offset="0.1344" style="stop-color:#919292"/>
			<stop  offset="0.2062" style="stop-color:#F7F7F7"/>
			<stop  offset="0.643" style="stop-color:#EEEEEF"/>
			<stop  offset="0.8387" style="stop-color:#919292"/>
		</linearGradient>
		<rect x="57.185" y="70.402" fill="url(#SVGID_10_)" width="2.868" height="45.17"/>
	</g>
	<g>
		
			<linearGradient id="SVGID_11_" gradientUnits="userSpaceOnUse" x1="-441.7603" y1="817.7168" x2="-441.7603" y2="814.8486" gradientTransform="matrix(4.371139e-008 -1 1 4.371139e-008 -743.1772 -348.7729)">
			<stop  offset="0.1344" style="stop-color:#919292"/>
			<stop  offset="0.2062" style="stop-color:#F7F7F7"/>
			<stop  offset="0.643" style="stop-color:#EEEEEF"/>
			<stop  offset="0.8387" style="stop-color:#919292"/>
		</linearGradient>
		<rect x="71.671" y="70.402" fill="url(#SVGID_11_)" width="2.868" height="45.17"/>
	</g>
</g>
<g>
	<rect x="484.636" y="19.069" fill="#111111" width="15" height="15"/>
	<rect x="484.636" y="38.235" fill="#111111" width="15" height="15"/>
</g>
<g>
	<rect x="81.543" y="-0.001" fill="#A8ADAB" width="311.611" height="57.402"/>
	<linearGradient id="SVGID_12_" gradientUnits="userSpaceOnUse" x1="233.7153" y1="14.9033" x2="233.7153" y2="-9.765625e-004">
		<stop  offset="0.0699" style="stop-color:#231815"/>
		<stop  offset="0.1201" style="stop-color:#F7F7F7"/>
		<stop  offset="0.643" style="stop-color:#EEEEEF"/>
		<stop  offset="0.8387" style="stop-color:#919292"/>
	</linearGradient>
	<rect x="81.543" y="-0.001" fill="url(#SVGID_12_)" width="304.345" height="14.904"/>
	<g>
		<rect x="91.267" y="17.735" fill="#111111" width="15" height="15"/>
		<rect x="91.267" y="36.901" fill="#111111" width="15" height="15"/>
	</g>
	<linearGradient id="SVGID_13_" gradientUnits="userSpaceOnUse" x1="250.021" y1="52.2354" x2="250.021" y2="17.9033">
		<stop  offset="0.0376" style="stop-color:#919292"/>
		<stop  offset="0.1201" style="stop-color:#F7F7F7"/>
		<stop  offset="0.8742" style="stop-color:#EEEEEF"/>
		<stop  offset="1" style="stop-color:#919292"/>
	</linearGradient>
	<path fill="url(#SVGID_13_)" d="M383.888,47.235c0,2.762-2.238,5-5,5H121.154c-2.761,0-5-2.238-5-5V22.903c0-2.762,2.239-5,5-5
		h257.733c2.762,0,5,2.238,5,5V47.235z"/>
	<path fill="#111111" d="M138.779,41.776c0,0.553-0.448,1-1,1H124.53c-0.553,0-1-0.447-1-1V28.527c0-0.552,0.447-1,1-1h13.249
		c0.552,0,1,0.448,1,1V41.776z"/>
	<path fill="#111111" d="M159.279,41.776c0,0.553-0.448,1-1,1H145.03c-0.553,0-1-0.447-1-1V28.527c0-0.552,0.447-1,1-1h13.249
		c0.552,0,1,0.448,1,1V41.776z"/>
	<path fill="#111111" d="M179.779,41.776c0,0.553-0.448,1-1,1H165.53c-0.553,0-1-0.447-1-1V28.527c0-0.552,0.447-1,1-1h13.249
		c0.552,0,1,0.448,1,1V41.776z"/>
	<path fill="#111111" d="M200.279,41.776c0,0.553-0.448,1-1,1H186.03c-0.553,0-1-0.447-1-1V28.527c0-0.552,0.447-1,1-1h13.249
		c0.552,0,1,0.448,1,1V41.776z"/>
	<path fill="#111111" d="M220.779,41.776c0,0.553-0.448,1-1,1H206.53c-0.553,0-1-0.447-1-1V28.527c0-0.552,0.447-1,1-1h13.249
		c0.552,0,1,0.448,1,1V41.776z"/>
	<path fill="#111111" d="M241.279,41.776c0,0.553-0.448,1-1,1H227.03c-0.553,0-1-0.447-1-1V28.527c0-0.552,0.447-1,1-1h13.249
		c0.552,0,1,0.448,1,1V41.776z"/>
	<path fill="#111111" d="M261.779,41.776c0,0.553-0.448,1-1,1H247.53c-0.553,0-1-0.447-1-1V28.527c0-0.552,0.447-1,1-1h13.249
		c0.552,0,1,0.448,1,1V41.776z"/>
	<path fill="#111111" d="M282.279,41.776c0,0.553-0.448,1-1,1H268.03c-0.553,0-1-0.447-1-1V28.527c0-0.552,0.447-1,1-1h13.249
		c0.552,0,1,0.448,1,1V41.776z"/>
	<path fill="#111111" d="M302.779,41.776c0,0.553-0.448,1-1,1H288.53c-0.553,0-1-0.447-1-1V28.527c0-0.552,0.447-1,1-1h13.249
		c0.552,0,1,0.448,1,1V41.776z"/>
	<path fill="#111111" d="M323.279,41.776c0,0.553-0.448,1-1,1H309.03c-0.553,0-1-0.447-1-1V28.527c0-0.552,0.447-1,1-1h13.249
		c0.552,0,1,0.448,1,1V41.776z"/>
	<path fill="#111111" d="M343.779,41.776c0,0.553-0.448,1-1,1H329.53c-0.553,0-1-0.447-1-1V28.527c0-0.552,0.447-1,1-1h13.249
		c0.552,0,1,0.448,1,1V41.776z"/>
	<path fill="#111111" d="M364.279,41.776c0,0.553-0.448,1-1,1H350.03c-0.553,0-1-0.447-1-1V28.527c0-0.552,0.447-1,1-1h13.249
		c0.552,0,1,0.448,1,1V41.776z"/>
	<linearGradient id="SVGID_14_" gradientUnits="userSpaceOnUse" x1="401.2144" y1="31.0342" x2="401.2144" y2="-9.765625e-004">
		<stop  offset="0" style="stop-color:#818483"/>
		<stop  offset="0.1452" style="stop-color:#EFEFEF"/>
		<stop  offset="0.9086" style="stop-color:#C0C4C2"/>
		<stop  offset="1" style="stop-color:#A8ADAB"/>
	</linearGradient>
	<path fill="url(#SVGID_14_)" d="M376.274-0.001v26.035c0,2.762,2.239,5,5,5h39.88c2.762,0,5-2.238,5-5V-0.001H376.274z"/>
	<path fill="#4C4C4C" d="M408.154,22.235c0,1.657-1.343,3-3,3h-9c-1.656,0-3-1.343-3-3V2.999c0-1.657,1.344-3,3-3h9
		c1.657,0,3,1.343,3,3V22.235z"/>
</g>
<g>
	<rect x="480.091" y="-0.001" fill="#A8ADAB" width="311.612" height="57.402"/>
	<linearGradient id="SVGID_15_" gradientUnits="userSpaceOnUse" x1="632.2642" y1="14.9033" x2="632.2642" y2="-9.765625e-004">
		<stop  offset="0.0699" style="stop-color:#231815"/>
		<stop  offset="0.1201" style="stop-color:#F7F7F7"/>
		<stop  offset="0.643" style="stop-color:#EEEEEF"/>
		<stop  offset="0.8387" style="stop-color:#919292"/>
	</linearGradient>
	<rect x="480.091" y="-0.001" fill="url(#SVGID_15_)" width="304.346" height="14.904"/>
	<g>
		<rect x="489.815" y="17.735" fill="#111111" width="15" height="15"/>
		<rect x="489.815" y="36.901" fill="#111111" width="15" height="15"/>
	</g>
	<linearGradient id="SVGID_16_" gradientUnits="userSpaceOnUse" x1="648.5693" y1="52.2354" x2="648.5693" y2="17.9033">
		<stop  offset="0.0376" style="stop-color:#919292"/>
		<stop  offset="0.1201" style="stop-color:#F7F7F7"/>
		<stop  offset="0.8742" style="stop-color:#EEEEEF"/>
		<stop  offset="1" style="stop-color:#919292"/>
	</linearGradient>
	<path fill="url(#SVGID_16_)" d="M782.437,47.235c0,2.762-2.239,5-5,5H519.703c-2.762,0-5-2.238-5-5V22.903c0-2.762,2.238-5,5-5
		h257.733c2.761,0,5,2.238,5,5V47.235z"/>
	<path fill="#111111" d="M537.327,41.776c0,0.553-0.447,1-1,1h-13.249c-0.552,0-1-0.447-1-1V28.527c0-0.552,0.448-1,1-1h13.249
		c0.553,0,1,0.448,1,1V41.776z"/>
	<path fill="#111111" d="M557.827,41.776c0,0.553-0.447,1-1,1h-13.249c-0.552,0-1-0.447-1-1V28.527c0-0.552,0.448-1,1-1h13.249
		c0.553,0,1,0.448,1,1V41.776z"/>
	<path fill="#111111" d="M578.327,41.776c0,0.553-0.447,1-1,1h-13.249c-0.552,0-1-0.447-1-1V28.527c0-0.552,0.448-1,1-1h13.249
		c0.553,0,1,0.448,1,1V41.776z"/>
	<path fill="#111111" d="M598.827,41.776c0,0.553-0.447,1-1,1h-13.249c-0.552,0-1-0.447-1-1V28.527c0-0.552,0.448-1,1-1h13.249
		c0.553,0,1,0.448,1,1V41.776z"/>
	<path fill="#111111" d="M619.327,41.776c0,0.553-0.447,1-1,1h-13.249c-0.552,0-1-0.447-1-1V28.527c0-0.552,0.448-1,1-1h13.249
		c0.553,0,1,0.448,1,1V41.776z"/>
	<path fill="#111111" d="M639.827,41.776c0,0.553-0.447,1-1,1h-13.249c-0.552,0-1-0.447-1-1V28.527c0-0.552,0.448-1,1-1h13.249
		c0.553,0,1,0.448,1,1V41.776z"/>
	<path fill="#111111" d="M660.327,41.776c0,0.553-0.447,1-1,1h-13.249c-0.552,0-1-0.447-1-1V28.527c0-0.552,0.448-1,1-1h13.249
		c0.553,0,1,0.448,1,1V41.776z"/>
	<path fill="#111111" d="M680.827,41.776c0,0.553-0.447,1-1,1h-13.249c-0.552,0-1-0.447-1-1V28.527c0-0.552,0.448-1,1-1h13.249
		c0.553,0,1,0.448,1,1V41.776z"/>
	<path fill="#111111" d="M701.327,41.776c0,0.553-0.447,1-1,1h-13.249c-0.552,0-1-0.447-1-1V28.527c0-0.552,0.448-1,1-1h13.249
		c0.553,0,1,0.448,1,1V41.776z"/>
	<path fill="#111111" d="M721.827,41.776c0,0.553-0.447,1-1,1h-13.249c-0.552,0-1-0.447-1-1V28.527c0-0.552,0.448-1,1-1h13.249
		c0.553,0,1,0.448,1,1V41.776z"/>
	<path fill="#111111" d="M742.327,41.776c0,0.553-0.447,1-1,1h-13.249c-0.552,0-1-0.447-1-1V28.527c0-0.552,0.448-1,1-1h13.249
		c0.553,0,1,0.448,1,1V41.776z"/>
	<path fill="#111111" d="M762.827,41.776c0,0.553-0.447,1-1,1h-13.249c-0.552,0-1-0.447-1-1V28.527c0-0.552,0.448-1,1-1h13.249
		c0.553,0,1,0.448,1,1V41.776z"/>
	<linearGradient id="SVGID_17_" gradientUnits="userSpaceOnUse" x1="799.7637" y1="31.0342" x2="799.7637" y2="-9.765625e-004">
		<stop  offset="0" style="stop-color:#818483"/>
		<stop  offset="0.1452" style="stop-color:#EFEFEF"/>
		<stop  offset="0.9086" style="stop-color:#C0C4C2"/>
		<stop  offset="1" style="stop-color:#A8ADAB"/>
	</linearGradient>
	<path fill="url(#SVGID_17_)" d="M774.823-0.001v26.035c0,2.762,2.238,5,5,5h39.88c2.761,0,5-2.238,5-5V-0.001H774.823z"/>
	<path fill="#4C4C4C" d="M806.703,22.235c0,1.657-1.344,3-3,3h-9c-1.657,0-3-1.343-3-3V2.999c0-1.657,1.343-3,3-3h9
		c1.656,0,3,1.343,3,3V22.235z"/>
</g>
<path fill="#3F3F3F" d="M179.779,117.526c0,1.772-1.344,3.209-3,3.209h-57.625c-1.656,0-3-1.437-3-3.209V79.995
	c0-1.772,1.344-3.209,3-3.209h57.625c1.656,0,3,1.437,3,3.209V117.526z"/>
<path fill="#B2B2B1" d="M185.03,75.786c0,0.553-0.448,1-1,1H86.154c-0.552,0-1-0.447-1-1V64.069c0-0.552,0.448-1,1-1h97.876
	c0.552,0,1,0.448,1,1V75.786z"/>
<rect x="91.267" y="66.735" fill="#191919" width="88.513" height="6.5"/>
<g>
	<rect x="120.654" y="81.678" width="15" height="15"/>
	<rect x="120.654" y="100.844" width="15" height="15"/>
</g>
<g>
	<rect x="140.654" y="81.678" width="15" height="15"/>
	<rect x="140.654" y="100.844" width="15" height="15"/>
</g>
<g>
	<rect x="160.654" y="81.678" width="15" height="15"/>
	<rect x="160.654" y="100.844" width="15" height="15"/>
</g>
<rect x="185.03" y="69.928" fill="#3F3F3F" width="42.454" height="50.808"/>
<rect x="227.484" y="91.987" fill="#2B707D" width="206.396" height="28.748"/>
<rect x="332.932" y="91.987" fill="#3073B9" width="99.948" height="28.748"/>
<rect x="433.257" y="111.259" fill="#474747" width="131.551" height="9.477"/>
<linearGradient id="SVGID_18_" gradientUnits="userSpaceOnUse" x1="426.1543" y1="34.9634" x2="470.8213" y2="34.9634">
	<stop  offset="0" style="stop-color:#818483"/>
	<stop  offset="0.1452" style="stop-color:#EFEFEF"/>
	<stop  offset="0.9086" style="stop-color:#C0C4C2"/>
	<stop  offset="1" style="stop-color:#A8ADAB"/>
</linearGradient>
<rect x="426.154" y="-0.001" fill="url(#SVGID_18_)" width="44.667" height="69.929"/>
<g>
	<rect x="432.988" y="4.319" fill="#191C1B" width="33" height="5.501"/>
	<path fill="#191C1B" d="M455.988,22.487c0,1.657-1.344,3-3,3h-13c-1.657,0-3-1.343-3-3v-6c0-1.657,1.343-3,3-3h13
		c1.656,0,3,1.343,3,3V22.487z"/>
	<path fill="#191C1B" d="M455.988,37.736c0,1.657-1.344,3-3,3h-13c-1.657,0-3-1.343-3-3v-6c0-1.657,1.343-3,3-3h13
		c1.656,0,3,1.343,3,3V37.736z"/>
	<path fill="#191C1B" d="M455.988,52.985c0,1.657-1.344,3-3,3h-13c-1.657,0-3-1.343-3-3v-6c0-1.657,1.343-3,3-3h13
		c1.656,0,3,1.343,3,3V52.985z"/>
</g>
<path fill="#FAFBFD" d="M512.22,116.001l-1.971-1.108v0.825h-8.813h-0.784h-0.708l2-1.884c0.182-0.171,0.432-0.269,0.688-0.269
	h1.768c0.16,0.344,0.525,0.584,0.951,0.584c0.572,0,1.037-0.435,1.037-0.978c0-0.538-0.465-0.976-1.037-0.976
	c-0.51,0-0.932,0.344-1.021,0.797h-1.697c-0.416,0-0.82,0.16-1.115,0.438l-2.151,2.025c-0.178,0.168-0.419,0.262-0.671,0.262h-0.264
	h-0.699c-0.144-0.736-0.827-1.296-1.65-1.296c-0.929,0-1.68,0.706-1.68,1.579c0,0.875,0.751,1.582,1.68,1.582
	c0.823,0,1.507-0.559,1.65-1.295h0.699h0.264h1.958h0.784c0.253,0,0.488,0.093,0.667,0.26l2.06,1.939
	c0.299,0.279,0.693,0.434,1.112,0.434h1.489v0.743h1.969v-1.854h-1.969v0.539h-1.489c-0.258,0-0.499-0.094-0.683-0.266l-1.907-1.795
	h7.563v0.824L512.22,116.001z"/>
<g>
	<linearGradient id="SVGID_19_" gradientUnits="userSpaceOnUse" x1="451.1504" y1="5.7354" x2="451.1504" y2="-9.765625e-004">
		<stop  offset="0.1344" style="stop-color:#919292"/>
		<stop  offset="0.2062" style="stop-color:#F7F7F7"/>
		<stop  offset="0.643" style="stop-color:#EEEEEF"/>
		<stop  offset="0.8387" style="stop-color:#919292"/>
	</linearGradient>
	<rect x="410.379" y="-0.001" fill="url(#SVGID_19_)" width="81.543" height="5.736"/>
</g>
<g>
	<linearGradient id="SVGID_20_" gradientUnits="userSpaceOnUse" x1="1050.1465" y1="5.7354" x2="1050.1465" y2="-9.765625e-004">
		<stop  offset="0.1344" style="stop-color:#919292"/>
		<stop  offset="0.2062" style="stop-color:#F7F7F7"/>
		<stop  offset="0.643" style="stop-color:#EEEEEF"/>
		<stop  offset="0.8387" style="stop-color:#919292"/>
	</linearGradient>
	<rect x="824.703" y="-0.001" fill="url(#SVGID_20_)" width="450.888" height="5.736"/>
</g>
<g>
	<linearGradient id="SVGID_21_" gradientUnits="userSpaceOnUse" x1="1050.1465" y1="126.1406" x2="1050.1465" y2="120.4043">
		<stop  offset="0.1344" style="stop-color:#919292"/>
		<stop  offset="0.2062" style="stop-color:#F7F7F7"/>
		<stop  offset="0.643" style="stop-color:#EEEEEF"/>
		<stop  offset="0.8387" style="stop-color:#919292"/>
	</linearGradient>
	<rect x="824.703" y="120.404" fill="url(#SVGID_21_)" width="450.888" height="5.736"/>
</g>
<rect x="576.343" y="57.401" fill="#111111" width="39.479" height="5.668"/>
<rect x="625.34" y="57.401" fill="#111111" width="39.478" height="5.668"/>
<rect x="674.336" y="57.401" fill="#111111" width="39.479" height="5.668"/>
<rect x="723.333" y="57.401" fill="#111111" width="39.478" height="5.668"/>
<circle fill="#111111" cx="781.822" cy="92.769" r="13.378"/>
<path fill="#50534E" d="M824.991,67.985c0,1.657-1.344,3-3,3h-43.168c-1.657,0-3-1.343-3-3V46.776c0-1.657,1.343-3,3-3h43.168
	c1.656,0,3,1.343,3,3V67.985z"/>
<linearGradient id="SVGID_22_" gradientUnits="userSpaceOnUse" x1="1050.1465" y1="9.2354" x2="1050.1465" y2="5.7354">
	<stop  offset="0.1344" style="stop-color:#919292"/>
	<stop  offset="0.2062" style="stop-color:#F7F7F7"/>
	<stop  offset="0.643" style="stop-color:#EEEEEF"/>
	<stop  offset="0.8387" style="stop-color:#919292"/>
</linearGradient>
<rect x="824.703" y="5.735" fill="url(#SVGID_22_)" width="450.888" height="3.5"/>
<g>
	<g>
		
			<linearGradient id="SVGID_23_" gradientUnits="userSpaceOnUse" x1="207.1182" y1="-533.4077" x2="207.1182" y2="-537.3628" gradientTransform="matrix(-4.371139e-008 1 -1 -4.371139e-008 514.5347 -142.2983)">
			<stop  offset="0.1344" style="stop-color:#919292"/>
			<stop  offset="0.2062" style="stop-color:#F7F7F7"/>
			<stop  offset="0.643" style="stop-color:#EEEEEF"/>
			<stop  offset="0.8387" style="stop-color:#919292"/>
		</linearGradient>
		<rect x="1047.942" y="9.235" fill="url(#SVGID_23_)" width="3.955" height="111.169"/>
	</g>
	
		<linearGradient id="SVGID_24_" gradientUnits="userSpaceOnUse" x1="207.1182" y1="-530.9937" x2="207.1182" y2="-533.4077" gradientTransform="matrix(-4.371139e-008 1 -1 -4.371139e-008 514.5347 -142.2983)">
		<stop  offset="0.1344" style="stop-color:#919292"/>
		<stop  offset="0.2062" style="stop-color:#F7F7F7"/>
		<stop  offset="0.643" style="stop-color:#EEEEEF"/>
		<stop  offset="0.8387" style="stop-color:#919292"/>
	</linearGradient>
	<rect x="1045.528" y="9.235" fill="url(#SVGID_24_)" width="2.414" height="111.169"/>
</g>
<linearGradient id="SVGID_25_" gradientUnits="userSpaceOnUse" x1="935.1797" y1="120.7354" x2="935.1797" y2="9.2358">
	<stop  offset="0" style="stop-color:#818483"/>
	<stop  offset="0.0376" style="stop-color:#EFEFEF"/>
	<stop  offset="0.957" style="stop-color:#C0C4C2"/>
	<stop  offset="1" style="stop-color:#A8ADAB"/>
</linearGradient>
<rect x="824.703" y="9.235" fill="url(#SVGID_25_)" width="220.952" height="111.5"/>
<rect x="824.343" y="9.235" fill="#515151" width="1.839" height="111.5"/>
<rect x="1051.43" y="9.235" fill="#515151" width="1.263" height="111.5"/>
<g>
	<rect x="835.154" y="14.733" fill="#050505" width="13.299" height="13.299"/>
	<rect x="853.854" y="14.733" fill="#050505" width="13.299" height="13.299"/>
	<rect x="872.553" y="14.733" fill="#050505" width="13.299" height="13.299"/>
	<rect x="891.252" y="14.733" fill="#050505" width="13.299" height="13.299"/>
	<rect x="909.951" y="14.733" fill="#050505" width="13.299" height="13.299"/>
	<rect x="928.65" y="14.733" fill="#050505" width="13.299" height="13.299"/>
	<rect x="947.35" y="14.733" fill="#050505" width="13.299" height="13.299"/>
	<rect x="966.049" y="14.733" fill="#050505" width="13.3" height="13.299"/>
	<rect x="984.749" y="14.733" fill="#050505" width="13.299" height="13.299"/>
	<rect x="1003.448" y="14.733" fill="#050505" width="13.299" height="13.299"/>
	<rect x="1022.147" y="14.733" fill="#050505" width="13.299" height="13.299"/>
</g>
<g>
	<rect x="835.154" y="31.584" fill="#050505" width="13.299" height="13.299"/>
	<rect x="853.854" y="31.584" fill="#050505" width="13.299" height="13.299"/>
	<rect x="872.553" y="31.584" fill="#050505" width="13.299" height="13.299"/>
	<rect x="891.252" y="31.584" fill="#050505" width="13.299" height="13.299"/>
	<rect x="909.951" y="31.584" fill="#050505" width="13.299" height="13.299"/>
	<rect x="928.65" y="31.584" fill="#050505" width="13.299" height="13.299"/>
	<rect x="947.35" y="31.584" fill="#050505" width="13.299" height="13.299"/>
	<rect x="966.049" y="31.584" fill="#050505" width="13.3" height="13.299"/>
	<rect x="984.749" y="31.584" fill="#050505" width="13.299" height="13.299"/>
	<rect x="1003.448" y="31.584" fill="#050505" width="13.299" height="13.299"/>
	<rect x="1022.147" y="31.584" fill="#050505" width="13.299" height="13.299"/>
</g>
<g>
	<rect x="835.154" y="48.435" fill="#050505" width="13.299" height="13.299"/>
	<rect x="853.854" y="48.435" fill="#050505" width="13.299" height="13.299"/>
	<rect x="872.553" y="48.435" fill="#050505" width="13.299" height="13.299"/>
	<rect x="891.252" y="48.435" fill="#050505" width="13.299" height="13.299"/>
	<rect x="909.951" y="48.435" fill="#050505" width="13.299" height="13.299"/>
	<rect x="928.65" y="48.435" fill="#050505" width="13.299" height="13.299"/>
	<rect x="947.35" y="48.435" fill="#050505" width="13.299" height="13.299"/>
	<rect x="966.049" y="48.435" fill="#050505" width="13.3" height="13.299"/>
	<rect x="984.749" y="48.435" fill="#050505" width="13.299" height="13.299"/>
	<rect x="1003.448" y="48.435" fill="#050505" width="13.299" height="13.299"/>
	<rect x="1022.147" y="48.435" fill="#050505" width="13.299" height="13.299"/>
</g>
<g>
	<rect x="835.154" y="65.285" fill="#050505" width="13.299" height="13.299"/>
	<rect x="853.854" y="65.285" fill="#050505" width="13.299" height="13.299"/>
	<rect x="872.553" y="65.285" fill="#050505" width="13.299" height="13.299"/>
	<rect x="891.252" y="65.285" fill="#050505" width="13.299" height="13.299"/>
	<rect x="909.951" y="65.285" fill="#050505" width="13.299" height="13.299"/>
	<rect x="928.65" y="65.285" fill="#050505" width="13.299" height="13.299"/>
	<rect x="947.35" y="65.285" fill="#050505" width="13.299" height="13.299"/>
	<rect x="966.049" y="65.285" fill="#050505" width="13.3" height="13.299"/>
	<rect x="984.749" y="65.285" fill="#050505" width="13.299" height="13.299"/>
	<rect x="1003.448" y="65.285" fill="#050505" width="13.299" height="13.299"/>
	<rect x="1022.147" y="65.285" fill="#050505" width="13.299" height="13.299"/>
</g>
<g>
	<rect x="835.154" y="82.136" fill="#050505" width="13.299" height="13.299"/>
	<rect x="853.854" y="82.136" fill="#050505" width="13.299" height="13.299"/>
	<rect x="872.553" y="82.136" fill="#050505" width="13.299" height="13.299"/>
	<rect x="891.252" y="82.136" fill="#050505" width="13.299" height="13.299"/>
	<rect x="909.951" y="82.136" fill="#050505" width="13.299" height="13.299"/>
	<rect x="928.65" y="82.136" fill="#050505" width="13.299" height="13.299"/>
	<rect x="947.35" y="82.136" fill="#050505" width="13.299" height="13.299"/>
	<rect x="966.049" y="82.136" fill="#050505" width="13.3" height="13.299"/>
	<rect x="984.749" y="82.136" fill="#050505" width="13.299" height="13.299"/>
	<rect x="1003.448" y="82.136" fill="#050505" width="13.299" height="13.299"/>
	<rect x="1022.147" y="82.136" fill="#050505" width="13.299" height="13.299"/>
</g>
<g>
	<rect x="835.154" y="98.986" fill="#050505" width="13.299" height="13.299"/>
	<rect x="853.854" y="98.986" fill="#050505" width="13.299" height="13.299"/>
	<rect x="872.553" y="98.986" fill="#050505" width="13.299" height="13.299"/>
	<rect x="891.252" y="98.986" fill="#050505" width="13.299" height="13.299"/>
	<rect x="909.951" y="98.986" fill="#050505" width="13.299" height="13.299"/>
	<rect x="928.65" y="98.986" fill="#050505" width="13.299" height="13.299"/>
	<rect x="947.35" y="98.986" fill="#050505" width="13.299" height="13.299"/>
	<rect x="966.049" y="98.986" fill="#050505" width="13.3" height="13.299"/>
	<rect x="984.749" y="98.986" fill="#050505" width="13.299" height="13.299"/>
	<rect x="1003.448" y="98.986" fill="#050505" width="13.299" height="13.299"/>
	<rect x="1022.147" y="98.986" fill="#050505" width="13.299" height="13.299"/>
</g>
<linearGradient id="SVGID_26_" gradientUnits="userSpaceOnUse" x1="824.9912" y1="66.9854" x2="831.6543" y2="66.9854">
	<stop  offset="0" style="stop-color:#818483"/>
	<stop  offset="0.1452" style="stop-color:#EFEFEF"/>
	<stop  offset="0.9086" style="stop-color:#C0C4C2"/>
	<stop  offset="1" style="stop-color:#A8ADAB"/>
</linearGradient>
<rect x="824.991" y="46.774" fill="url(#SVGID_26_)" width="6.663" height="40.422"/>
<linearGradient id="SVGID_27_" gradientUnits="userSpaceOnUse" x1="829.3242" y1="66.9854" x2="833.9883" y2="66.9854">
	<stop  offset="0" style="stop-color:#818483"/>
	<stop  offset="0.1452" style="stop-color:#C0C4C2"/>
	<stop  offset="0.5753" style="stop-color:#EFEFEF"/>
	<stop  offset="1" style="stop-color:#A8ADAB"/>
</linearGradient>
<rect x="829.324" y="46.774" fill="url(#SVGID_27_)" width="4.664" height="40.422"/>
<linearGradient id="SVGID_28_" gradientUnits="userSpaceOnUse" x1="832.8223" y1="66.9854" x2="837.4863" y2="66.9854">
	<stop  offset="0" style="stop-color:#818483"/>
	<stop  offset="0.1452" style="stop-color:#C0C4C2"/>
	<stop  offset="0.5753" style="stop-color:#EFEFEF"/>
	<stop  offset="1" style="stop-color:#A8ADAB"/>
</linearGradient>
<rect x="832.822" y="46.774" fill="url(#SVGID_28_)" width="4.664" height="40.422"/>
<rect x="835.154" y="46.774" fill="#CB703C" width="18.699" height="40.422"/>
<path fill="#3B3E3C" d="M919.821,109.285c0,1.657-1.343,3-3,3h-59.968c-1.656,0-3-1.343-3-3V17.733c0-1.657,1.344-3,3-3h59.968
	c1.657,0,3,1.343,3,3V109.285z"/>
<g>
	<rect x="982.642" y="22.265" fill="#1F2020" width="5.744" height="82.282"/>
	<g>
		<g>
			<defs>
				<path id="SVGID_29_" d="M1001.265,114.815l3.509-0.099l0.79-16.414l-12.996-2.24c-5.191-0.894-9.926,3.155-9.926,8.484v1.996
					c0,2.421,1.607,4.539,3.918,5.162l8.824,2.373c1.717,0.429,3.848,0.74,5.648,0.74
					C1001.109,114.818,1001.188,114.815,1001.265,114.815"/>
			</defs>
			
				<linearGradient id="SVGID_30_" gradientUnits="userSpaceOnUse" x1="-556.1108" y1="-17006.9453" x2="-537.1512" y2="-17006.9453" gradientTransform="matrix(-1 0 0 -1 449.582 -16901.5664)">
				<stop  offset="0" style="stop-color:#9E9E9F"/>
				<stop  offset="1" style="stop-color:#000000"/>
			</linearGradient>
			<use xlink:href="#SVGID_29_"  overflow="visible" fill="url(#SVGID_30_)"/>
			<clipPath id="SVGID_31_">
				<use xlink:href="#SVGID_29_"  overflow="visible"/>
			</clipPath>
			
				<linearGradient id="SVGID_32_" gradientUnits="userSpaceOnUse" x1="-438.3931" y1="1047.2998" x2="-437.3745" y2="1047.2998" gradientTransform="matrix(21.6019 -8.6407 8.6407 21.6019 1401.4063 -26301.3047)">
				<stop  offset="0" style="stop-color:#9E9E9F"/>
				<stop  offset="1" style="stop-color:#000000"/>
			</linearGradient>
			<polygon clip-path="url(#SVGID_31_)" fill="url(#SVGID_32_)" points="985.804,122.824 1012.252,112.107 1002.401,87.163 
				975.95,97.879 			"/>
		</g>
		<g>
			<defs>
				<path id="SVGID_33_" d="M990.724,31.792l14.84-2.879l-1.709-16.302c-3.155,0-6.299,0.419-9.349,1.243l-5.249,1.416
					c-3.902,1.055-6.615,4.634-6.615,8.725v1.029c0,3.877,3.121,6.893,6.787,6.893C989.854,31.917,990.287,31.877,990.724,31.792"/>
			</defs>
			
				<linearGradient id="SVGID_34_" gradientUnits="userSpaceOnUse" x1="-555.9814" y1="-16923.8301" x2="-533.0596" y2="-16923.8301" gradientTransform="matrix(-1 0 0 -1 449.582 -16901.5664)">
				<stop  offset="0" style="stop-color:#9E9E9F"/>
				<stop  offset="1" style="stop-color:#000000"/>
			</linearGradient>
			<use xlink:href="#SVGID_33_"  overflow="visible" fill="url(#SVGID_34_)"/>
			<clipPath id="SVGID_35_">
				<use xlink:href="#SVGID_33_"  overflow="visible"/>
			</clipPath>
			
				<linearGradient id="SVGID_36_" gradientUnits="userSpaceOnUse" x1="-153.4204" y1="1498.1191" x2="-152.4078" y2="1498.1191" gradientTransform="matrix(14.9609 0 0 14.9609 3275.5156 -22390.9531)">
				<stop  offset="0" style="stop-color:#9E9E9F"/>
				<stop  offset="1" style="stop-color:#000000"/>
			</linearGradient>
			<rect x="982.642" y="12.611" clip-path="url(#SVGID_35_)" fill="url(#SVGID_36_)" width="22.922" height="19.306"/>
		</g>
		<g>
			<defs>
				<path id="SVGID_37_" d="M1003.854,114.815c5.523,0,10-4.534,10-10.128V22.739c0-5.594-4.477-10.128-10-10.128
					c-5.52,0-9.998,4.534-9.998,10.128v81.948C993.856,110.281,998.335,114.815,1003.854,114.815L1003.854,114.815z"/>
			</defs>
			<clipPath id="SVGID_38_">
				<use xlink:href="#SVGID_37_"  overflow="visible"/>
			</clipPath>
			
				<linearGradient id="SVGID_39_" gradientUnits="userSpaceOnUse" x1="-210.6895" y1="-502.3076" x2="-209.6768" y2="-502.3076" gradientTransform="matrix(-19.747 0 0 -19.747 -3146.6406 -9855.3594)">
				<stop  offset="0" style="stop-color:#3E3A39"/>
				<stop  offset="0.4731" style="stop-color:#717071"/>
				<stop  offset="1" style="stop-color:#3E3A39"/>
			</linearGradient>
			<rect x="993.856" y="12.611" clip-path="url(#SVGID_38_)" fill="url(#SVGID_39_)" width="19.998" height="102.204"/>
		</g>
	</g>
</g>
<g>
	<rect x="1062.855" y="14.733" fill="#050505" width="13.299" height="13.299"/>
	<rect x="1081.555" y="14.733" fill="#050505" width="13.299" height="13.299"/>
	<rect x="1100.254" y="14.733" fill="#050505" width="13.299" height="13.299"/>
	<rect x="1118.953" y="14.733" fill="#050505" width="13.299" height="13.299"/>
	<rect x="1137.652" y="14.733" fill="#050505" width="13.299" height="13.299"/>
	<rect x="1156.352" y="14.733" fill="#050505" width="13.299" height="13.299"/>
	<rect x="1175.051" y="14.733" fill="#050505" width="13.299" height="13.299"/>
	<rect x="1193.75" y="14.733" fill="#050505" width="13.299" height="13.299"/>
	<rect x="1212.449" y="14.733" fill="#050505" width="13.299" height="13.299"/>
	<rect x="1231.148" y="14.733" fill="#050505" width="13.299" height="13.299"/>
	<rect x="1249.848" y="14.733" fill="#050505" width="13.299" height="13.299"/>
</g>
<g>
	<rect x="1062.855" y="31.584" fill="#050505" width="13.299" height="13.299"/>
	<rect x="1081.555" y="31.584" fill="#050505" width="13.299" height="13.299"/>
	<rect x="1100.254" y="31.584" fill="#050505" width="13.299" height="13.299"/>
	<rect x="1118.953" y="31.584" fill="#050505" width="13.299" height="13.299"/>
	<rect x="1137.652" y="31.584" fill="#050505" width="13.299" height="13.299"/>
	<rect x="1156.352" y="31.584" fill="#050505" width="13.299" height="13.299"/>
	<rect x="1175.051" y="31.584" fill="#050505" width="13.299" height="13.299"/>
	<rect x="1193.75" y="31.584" fill="#050505" width="13.299" height="13.299"/>
	<rect x="1212.449" y="31.584" fill="#050505" width="13.299" height="13.299"/>
	<rect x="1231.148" y="31.584" fill="#050505" width="13.299" height="13.299"/>
	<rect x="1249.848" y="31.584" fill="#050505" width="13.299" height="13.299"/>
</g>
<g>
	<rect x="1062.855" y="48.435" fill="#050505" width="13.299" height="13.299"/>
	<rect x="1081.555" y="48.435" fill="#050505" width="13.299" height="13.299"/>
	<rect x="1100.254" y="48.435" fill="#050505" width="13.299" height="13.299"/>
	<rect x="1118.953" y="48.435" fill="#050505" width="13.299" height="13.299"/>
	<rect x="1137.652" y="48.435" fill="#050505" width="13.299" height="13.299"/>
	<rect x="1156.352" y="48.435" fill="#050505" width="13.299" height="13.299"/>
	<rect x="1175.051" y="48.435" fill="#050505" width="13.299" height="13.299"/>
	<rect x="1193.75" y="48.435" fill="#050505" width="13.299" height="13.299"/>
	<rect x="1212.449" y="48.435" fill="#050505" width="13.299" height="13.299"/>
	<rect x="1231.148" y="48.435" fill="#050505" width="13.299" height="13.299"/>
	<rect x="1249.848" y="48.435" fill="#050505" width="13.299" height="13.299"/>
</g>
<g>
	<rect x="1062.855" y="65.285" fill="#050505" width="13.299" height="13.299"/>
	<rect x="1081.555" y="65.285" fill="#050505" width="13.299" height="13.299"/>
	<rect x="1100.254" y="65.285" fill="#050505" width="13.299" height="13.299"/>
	<rect x="1118.953" y="65.285" fill="#050505" width="13.299" height="13.299"/>
	<rect x="1137.652" y="65.285" fill="#050505" width="13.299" height="13.299"/>
	<rect x="1156.352" y="65.285" fill="#050505" width="13.299" height="13.299"/>
	<rect x="1175.051" y="65.285" fill="#050505" width="13.299" height="13.299"/>
	<rect x="1193.75" y="65.285" fill="#050505" width="13.299" height="13.299"/>
	<rect x="1212.449" y="65.285" fill="#050505" width="13.299" height="13.299"/>
	<rect x="1231.148" y="65.285" fill="#050505" width="13.299" height="13.299"/>
	<rect x="1249.848" y="65.285" fill="#050505" width="13.299" height="13.299"/>
</g>
<g>
	<rect x="1062.855" y="82.136" fill="#050505" width="13.299" height="13.299"/>
	<rect x="1081.555" y="82.136" fill="#050505" width="13.299" height="13.299"/>
	<rect x="1100.254" y="82.136" fill="#050505" width="13.299" height="13.299"/>
	<rect x="1118.953" y="82.136" fill="#050505" width="13.299" height="13.299"/>
	<rect x="1137.652" y="82.136" fill="#050505" width="13.299" height="13.299"/>
	<rect x="1156.352" y="82.136" fill="#050505" width="13.299" height="13.299"/>
	<rect x="1175.051" y="82.136" fill="#050505" width="13.299" height="13.299"/>
	<rect x="1193.75" y="82.136" fill="#050505" width="13.299" height="13.299"/>
	<rect x="1212.449" y="82.136" fill="#050505" width="13.299" height="13.299"/>
	<rect x="1231.148" y="82.136" fill="#050505" width="13.299" height="13.299"/>
	<rect x="1249.848" y="82.136" fill="#050505" width="13.299" height="13.299"/>
</g>
<g>
	<rect x="1062.855" y="98.986" fill="#050505" width="13.299" height="13.299"/>
	<rect x="1081.555" y="98.986" fill="#050505" width="13.299" height="13.299"/>
	<rect x="1100.254" y="98.986" fill="#050505" width="13.299" height="13.299"/>
	<rect x="1118.953" y="98.986" fill="#050505" width="13.299" height="13.299"/>
	<rect x="1137.652" y="98.986" fill="#050505" width="13.299" height="13.299"/>
	<rect x="1156.352" y="98.986" fill="#050505" width="13.299" height="13.299"/>
	<rect x="1175.051" y="98.986" fill="#050505" width="13.299" height="13.299"/>
	<rect x="1193.75" y="98.986" fill="#050505" width="13.299" height="13.299"/>
	<rect x="1212.449" y="98.986" fill="#050505" width="13.299" height="13.299"/>
	<rect x="1231.148" y="98.986" fill="#050505" width="13.299" height="13.299"/>
	<rect x="1249.848" y="98.986" fill="#050505" width="13.299" height="13.299"/>
</g>
<linearGradient id="SVGID_40_" gradientUnits="userSpaceOnUse" x1="1052.6924" y1="66.9854" x2="1059.3555" y2="66.9854">
	<stop  offset="0" style="stop-color:#818483"/>
	<stop  offset="0.1452" style="stop-color:#EFEFEF"/>
	<stop  offset="0.9086" style="stop-color:#C0C4C2"/>
	<stop  offset="1" style="stop-color:#A8ADAB"/>
</linearGradient>
<rect x="1052.692" y="46.774" fill="url(#SVGID_40_)" width="6.663" height="40.422"/>
<linearGradient id="SVGID_41_" gradientUnits="userSpaceOnUse" x1="1057.0244" y1="66.9854" x2="1061.6885" y2="66.9854">
	<stop  offset="0" style="stop-color:#818483"/>
	<stop  offset="0.1452" style="stop-color:#C0C4C2"/>
	<stop  offset="0.5753" style="stop-color:#EFEFEF"/>
	<stop  offset="1" style="stop-color:#A8ADAB"/>
</linearGradient>
<rect x="1057.024" y="46.774" fill="url(#SVGID_41_)" width="4.664" height="40.422"/>
<linearGradient id="SVGID_42_" gradientUnits="userSpaceOnUse" x1="1060.5234" y1="66.9854" x2="1065.1875" y2="66.9854">
	<stop  offset="0" style="stop-color:#818483"/>
	<stop  offset="0.1452" style="stop-color:#C0C4C2"/>
	<stop  offset="0.5753" style="stop-color:#EFEFEF"/>
	<stop  offset="1" style="stop-color:#A8ADAB"/>
</linearGradient>
<rect x="1060.523" y="46.774" fill="url(#SVGID_42_)" width="4.664" height="40.422"/>
<rect x="1062.855" y="46.774" fill="#CB703C" width="18.699" height="40.422"/>
<path fill="#3B3E3C" d="M1147.522,109.285c0,1.657-1.344,3-3,3h-59.968c-1.657,0-3-1.343-3-3V17.733c0-1.657,1.343-3,3-3h59.968
	c1.656,0,3,1.343,3,3V109.285z"/>
<g>
	<rect x="1210.342" y="22.265" fill="#1F2020" width="5.744" height="82.282"/>
	<g>
		<g>
			<defs>
				<path id="SVGID_43_" d="M1228.965,114.815l3.509-0.099l0.791-16.414l-12.997-2.24c-5.19-0.894-9.926,3.155-9.926,8.484v1.996
					c0,2.421,1.608,4.539,3.918,5.162l8.824,2.373c1.717,0.429,3.849,0.74,5.649,0.74
					C1228.81,114.818,1228.89,114.815,1228.965,114.815"/>
			</defs>
			
				<linearGradient id="SVGID_44_" gradientUnits="userSpaceOnUse" x1="-783.812" y1="-17006.9453" x2="-764.8516" y2="-17006.9453" gradientTransform="matrix(-1 0 0 -1 449.582 -16901.5664)">
				<stop  offset="0" style="stop-color:#9E9E9F"/>
				<stop  offset="1" style="stop-color:#000000"/>
			</linearGradient>
			<use xlink:href="#SVGID_43_"  overflow="visible" fill="url(#SVGID_44_)"/>
			<clipPath id="SVGID_45_">
				<use xlink:href="#SVGID_43_"  overflow="visible"/>
			</clipPath>
			
				<linearGradient id="SVGID_46_" gradientUnits="userSpaceOnUse" x1="-429.3062" y1="1050.9346" x2="-428.2876" y2="1050.9346" gradientTransform="matrix(21.6019 -8.6407 8.6407 21.6019 1401.4063 -26301.3047)">
				<stop  offset="0" style="stop-color:#9E9E9F"/>
				<stop  offset="1" style="stop-color:#000000"/>
			</linearGradient>
			<polygon clip-path="url(#SVGID_45_)" fill="url(#SVGID_46_)" points="1213.504,122.824 1239.952,112.107 1230.103,87.163 
				1203.651,97.879 			"/>
		</g>
		<g>
			<defs>
				<path id="SVGID_47_" d="M1218.424,31.792l14.841-2.879l-1.709-16.302c-3.156,0-6.299,0.419-9.35,1.243l-5.248,1.416
					c-3.902,1.055-6.616,4.634-6.616,8.725v1.029c0,3.877,3.122,6.893,6.787,6.893C1217.556,31.917,1217.987,31.877,1218.424,31.792
					"/>
			</defs>
			
				<linearGradient id="SVGID_48_" gradientUnits="userSpaceOnUse" x1="-783.6826" y1="-16923.8301" x2="-760.7598" y2="-16923.8301" gradientTransform="matrix(-1 0 0 -1 449.582 -16901.5664)">
				<stop  offset="0" style="stop-color:#9E9E9F"/>
				<stop  offset="1" style="stop-color:#000000"/>
			</linearGradient>
			<use xlink:href="#SVGID_47_"  overflow="visible" fill="url(#SVGID_48_)"/>
			<clipPath id="SVGID_49_">
				<use xlink:href="#SVGID_47_"  overflow="visible"/>
			</clipPath>
			
				<linearGradient id="SVGID_50_" gradientUnits="userSpaceOnUse" x1="-138.2007" y1="1498.1191" x2="-137.1881" y2="1498.1191" gradientTransform="matrix(14.9609 0 0 14.9609 3275.5156 -22390.9531)">
				<stop  offset="0" style="stop-color:#9E9E9F"/>
				<stop  offset="1" style="stop-color:#000000"/>
			</linearGradient>
			<rect x="1210.342" y="12.611" clip-path="url(#SVGID_49_)" fill="url(#SVGID_50_)" width="22.923" height="19.306"/>
		</g>
		<g>
			<defs>
				<path id="SVGID_51_" d="M1231.556,114.815c5.523,0,9.999-4.534,9.999-10.128V22.739c0-5.594-4.476-10.128-9.999-10.128
					c-5.521,0-9.998,4.534-9.998,10.128v81.948C1221.558,110.281,1226.035,114.815,1231.556,114.815L1231.556,114.815z"/>
			</defs>
			<clipPath id="SVGID_52_">
				<use xlink:href="#SVGID_51_"  overflow="visible"/>
			</clipPath>
			
				<linearGradient id="SVGID_53_" gradientUnits="userSpaceOnUse" x1="-222.2202" y1="-502.3076" x2="-221.208" y2="-502.3076" gradientTransform="matrix(-19.747 0 0 -19.747 -3146.6406 -9855.3594)">
				<stop  offset="0" style="stop-color:#3E3A39"/>
				<stop  offset="0.4731" style="stop-color:#717071"/>
				<stop  offset="1" style="stop-color:#3E3A39"/>
			</linearGradient>
			<rect x="1221.558" y="12.611" clip-path="url(#SVGID_52_)" fill="url(#SVGID_53_)" width="19.997" height="102.204"/>
		</g>
	</g>
</g>
</svg>
