<?xml version="1.0" encoding="utf-8"?>
<!-- Generator: Adobe Illustrator 16.0.0, SVG Export Plug-In . SVG Version: 6.00 Build 0)  -->
<!DOCTYPE svg PUBLIC "-//W3C//DTD SVG 1.1//EN" "http://www.w3.org/Graphics/SVG/1.1/DTD/svg11.dtd">
<svg version="1.1" id="图层_1" xmlns="http://www.w3.org/2000/svg" xmlns:xlink="http://www.w3.org/1999/xlink" x="0px" y="0px"
	 width="1275.59px" height="252.28px" viewBox="0 0 1275.59 252.28" enable-background="new 0 0 1275.59 252.28"
	 xml:space="preserve">
<g>
	<rect y="0.031" fill="#34322F" width="1275.591" height="131.167"/>
	<rect y="0.031" fill="#2C2D2D" width="45.021" height="131.167"/>
	<rect x="41.269" y="0.031" fill="#0B0C0C" width="3.752" height="131.167"/>
	<rect x="41.211" y="0.031" fill="#767676" width="1.453" height="131.167"/>
	<rect x="1232.869" y="0.031" fill="#767676" width="1.454" height="131.167"/>
	<rect x="41.269" y="0.031" fill="#0B0C0C" width="3.752" height="131.167"/>
	<rect x="41.211" y="0.031" fill="#767676" width="1.453" height="131.167"/>
	<rect y="120.586" fill="#34322F" width="1275.591" height="131.168"/>
	<rect y="120.586" fill="#2C2D2D" width="45.021" height="131.168"/>
	<rect x="41.269" y="120.586" fill="#0B0C0C" width="3.752" height="131.168"/>
	<rect x="41.211" y="120.586" fill="#767676" width="1.453" height="131.168"/>
	<rect x="1232.869" y="120.586" fill="#767676" width="1.454" height="131.168"/>
	<rect x="41.269" y="120.586" fill="#0B0C0C" width="3.752" height="131.168"/>
	<rect x="41.211" y="120.586" fill="#767676" width="1.453" height="131.168"/>
	<linearGradient id="SVGID_1_" gradientUnits="userSpaceOnUse" x1="45.0205" y1="125.8926" x2="1230.5713" y2="125.8926">
		<stop  offset="0.1183" style="stop-color:#888888"/>
		<stop  offset="0.1452" style="stop-color:#B4B4B5"/>
		<stop  offset="0.1882" style="stop-color:#C8C9CA"/>
		<stop  offset="0.8548" style="stop-color:#C8C9CA"/>
		<stop  offset="0.8763" style="stop-color:#9E9E9F"/>
		<stop  offset="0.9032" style="stop-color:#888888"/>
	</linearGradient>
	<polygon fill="url(#SVGID_1_)" points="45.021,0.031 45.021,120.586 45.021,131.197 45.021,251.754 1230.571,251.754 
		1230.571,131.197 1230.571,120.586 1230.571,0.031 	"/>
	<path fill="#F4F4F4" d="M45.021,251.754l132.634-59.414c0,0,16.99-5.199,46.75-5.199h828.761c0,0,21.132,0,36.566,5.199
		l140.84,59.414"/>
	<path fill="#959494" d="M45.021,251.754l132.634-53.174c0,0,16.99-5.199,46.75-5.199h828.761c0,0,21.132,0,36.566,5.199
		l140.84,53.174"/>
	<g>
		<path fill="#252526" d="M104.54,251.74c0,0-6.145-10.764,3.294-15.393c21.152-10.371,69.82-24.758,69.82-24.758
			s25.594-9.295,46.75-6.16c3.284,0.486,9.839,2.168,10.094,8.008c0.726,16.641,0,38.32,0,38.32L104.54,251.74z"/>
		
			<linearGradient id="SVGID_2_" gradientUnits="userSpaceOnUse" x1="171.7896" y1="-10522.0752" x2="171.7896" y2="-10527.6631" gradientTransform="matrix(1 0 0 -1 0 -10275.9219)">
			<stop  offset="0.1452" style="stop-color:#FFFFFF"/>
			<stop  offset="0.2581" style="stop-color:#C8C9CA"/>
			<stop  offset="0.8548" style="stop-color:#C8C9CA"/>
			<stop  offset="0.8763" style="stop-color:#9E9E9F"/>
			<stop  offset="0.9032" style="stop-color:#888888"/>
		</linearGradient>
		<path fill="url(#SVGID_2_)" d="M116.798,251.74c-0.238-0.514-0.384-1.08-0.384-1.689c0-2.154,1.68-3.898,3.75-3.898h103.25
			c2.071,0,3.75,1.744,3.75,3.898c0,0.609-0.145,1.176-0.384,1.689H116.798z"/>
	</g>
	<g>
		<path fill="#252526" d="M1156.143,251.74c0,0,6.145-10.764-3.295-15.393c-21.152-10.371-69.82-24.758-69.82-24.758
			s-25.593-9.295-46.751-6.16c-3.283,0.486-9.838,2.168-10.092,8.008c-0.727,16.641,0,38.32,0,38.32L1156.143,251.74z"/>
		
			<linearGradient id="SVGID_3_" gradientUnits="userSpaceOnUse" x1="-8939.4502" y1="-10522.0742" x2="-8939.4502" y2="-10527.6621" gradientTransform="matrix(-1 0 0 -1 -7850.5576 -10275.9219)">
			<stop  offset="0.1452" style="stop-color:#FFFFFF"/>
			<stop  offset="0.2581" style="stop-color:#C8C9CA"/>
			<stop  offset="0.8548" style="stop-color:#C8C9CA"/>
			<stop  offset="0.8763" style="stop-color:#9E9E9F"/>
			<stop  offset="0.9032" style="stop-color:#888888"/>
		</linearGradient>
		<path fill="url(#SVGID_3_)" d="M1143.884,251.74c0.238-0.514,0.384-1.08,0.384-1.689c0-2.154-1.679-3.898-3.75-3.898h-103.251
			c-2.07,0-3.75,1.744-3.75,3.898c0,0.609,0.146,1.176,0.385,1.689H1143.884z"/>
	</g>
	<g>
		<path fill="#FFFFFF" d="M251.498,249.703v-38.117c0-3.93,4.153-7.115,9.276-7.115h218.961c5.123,0,9.276,3.186,9.276,7.115v38.117
			H251.498z"/>
		<path fill="#252526" d="M251.498,251.783v-38.119c0-3.928,4.153-7.113,9.276-7.113h218.961c5.123,0,9.276,3.186,9.276,7.113
			v38.119H251.498z"/>
	</g>
	<g>
		<path fill="#FFFFFF" d="M508.722,248.664v-38.119c0-3.928,4.153-7.113,9.276-7.113h218.961c5.123,0,9.276,3.186,9.276,7.113
			v38.119H508.722z"/>
		<path fill="#252526" d="M508.722,250.744v-38.119c0-3.93,4.153-7.113,9.276-7.113h218.961c5.123,0,9.276,3.184,9.276,7.113v38.119
			H508.722z"/>
	</g>
	<g>
		<path fill="#FFFFFF" d="M769.944,247.625v-38.119c0-3.93,4.153-7.115,9.276-7.115h218.961c5.124,0,9.276,3.186,9.276,7.115v38.119
			H769.944z"/>
		<path fill="#252526" d="M769.944,249.703v-38.117c0-3.93,4.153-7.115,9.276-7.115h218.961c5.124,0,9.276,3.186,9.276,7.115v38.117
			H769.944z"/>
	</g>
	<g>
		<path fill="#FFFFFF" d="M229.334,197.773c-34.415,0-46.182,3.033-46.689,3.168l-35.057,12.498L98.65,232.645
			c-8.851,4.139-3.657,17.77-3.431,18.35l1.391-0.586c-0.05-0.129-4.881-12.816,2.613-16.324l48.874-19.18l34.979-12.469
			c0.073-0.018,13.336-3.412,51.74-3.078l262.35-0.023h550.668c0.336,0.012,36.176,1.305,62.551,12.445
			c4.013,1.695,8.979,3.613,14.236,5.646c14.533,5.615,32.619,12.602,41.782,19.291c2.888,2.107,5.194,4.74,1.734,13.693l1.392,0.58
			c3.866-10.002,0.857-13.271-2.265-15.551c-9.32-6.803-27.507-13.83-42.12-19.477c-5.248-2.027-10.204-3.941-14.195-5.627
			c-26.627-11.25-62.73-12.551-63.092-12.563H497.165l-262.344,0.025C232.933,197.781,231.102,197.773,229.334,197.773z"/>
	</g>
	<g>
		<path fill="#3E3E3F" d="M229.334,198.814c-34.415-0.002-46.182,3.033-46.689,3.168l-35.057,12.496L98.65,233.686
			c-8.851,4.137-3.657,17.77-3.431,18.348l1.391-0.586c-0.05-0.127-4.881-12.816,2.613-16.322l48.874-19.18l34.979-12.469
			c0.073-0.018,13.336-3.412,51.74-3.078l262.35-0.025h550.668c0.336,0.012,36.176,1.305,62.551,12.445
			c4.013,1.697,8.979,3.615,14.236,5.646c14.533,5.615,32.619,12.604,41.782,19.291c2.888,2.107,5.194,4.742,1.734,13.693
			l1.392,0.58c3.866-10.002,0.857-13.271-2.265-15.551c-9.32-6.803-27.507-13.83-42.12-19.477
			c-5.248-2.025-10.204-3.941-14.195-5.627c-26.627-11.248-62.73-12.549-63.092-12.561H497.165l-262.344,0.023
			C232.933,198.82,231.102,198.814,229.334,198.814z"/>
	</g>
	<g>
		<ellipse fill="#252526" cx="634.149" cy="122.666" rx="41.917" ry="43.586"/>
		<ellipse fill="#726F6B" cx="634.15" cy="122.666" rx="41.002" ry="42.635"/>
		<ellipse fill="#C8C8C8" cx="634.15" cy="122.666" rx="40.671" ry="42.29"/>
		<ellipse fill="#EDEDEC" cx="634.15" cy="122.666" rx="39.837" ry="41.422"/>
		<ellipse fill="#C8C8C8" cx="634.15" cy="122.666" rx="38.671" ry="40.209"/>
		<ellipse fill="#252526" cx="634.15" cy="122.666" rx="37.504" ry="38.997"/>
		<g>
			<g>
				<linearGradient id="SVGID_4_" gradientUnits="userSpaceOnUse" x1="606.21" y1="121.7813" x2="651.5273" y2="121.7813">
					<stop  offset="0.1183" style="stop-color:#888888"/>
					<stop  offset="0.1452" style="stop-color:#B4B4B5"/>
					<stop  offset="0.1882" style="stop-color:#C8C9CA"/>
					<stop  offset="0.8548" style="stop-color:#C8C9CA"/>
					<stop  offset="0.8763" style="stop-color:#9E9E9F"/>
					<stop  offset="0.9032" style="stop-color:#888888"/>
				</linearGradient>
				<path fill="url(#SVGID_4_)" d="M606.21,113.771v16.579h7.318c0,0,6.311,0,8.022-5.2l8.225,5.585h1.477l8.861-6.074v5.794
					l11.414-0.035v-5.025l-5.639-0.071l-0.035-11.553h-5.672l0.033,5.724l-7.385,5.061l-1.242-1.012l7.15-4.991l-3.491-2.409
					l-7.251,5.025l-1.141-0.802l7.183-5.096l-3.39-2.444l-9.097,6.284c0,0-0.973-4.677-7.25-5.271L606.21,113.771z"/>
				<path fill="#252526" d="M611.85,118.902v6.667c0,0,3.29,0.104,3.86-1.538c0,0,1.477-3.175-1.141-4.746
					C614.569,119.286,613.663,118.588,611.85,118.902z"/>
			</g>
			<linearGradient id="SVGID_5_" gradientUnits="userSpaceOnUse" x1="652.8027" y1="122.0781" x2="664.2148" y2="122.0781">
				<stop  offset="0.1183" style="stop-color:#888888"/>
				<stop  offset="0.1452" style="stop-color:#B4B4B5"/>
				<stop  offset="0.1882" style="stop-color:#C8C9CA"/>
				<stop  offset="0.8548" style="stop-color:#C8C9CA"/>
				<stop  offset="0.8763" style="stop-color:#9E9E9F"/>
				<stop  offset="0.9032" style="stop-color:#888888"/>
			</linearGradient>
			<polygon fill="url(#SVGID_5_)" points="652.803,113.771 658.476,113.771 658.476,125.464 664.215,125.464 664.215,130.385 
				652.803,130.385 			"/>
		</g>
	</g>
	<path fill="#F4F4F4" d="M45.021,0.031l132.634,59.413c0,0,16.99,5.199,46.75,5.199h828.761c0,0,21.132,0,36.566-5.199
		l140.84-59.413"/>
	<path fill="#959494" d="M45.021,0.031l132.634,53.174c0,0,16.99,5.199,46.75,5.199h828.761c0,0,21.132,0,36.566-5.199
		l140.84-53.174"/>
	<g>
		<path fill="#252526" d="M104.54,0.044c0,0-6.145,10.763,3.294,15.391c21.152,10.371,69.82,24.759,69.82,24.759
			s25.594,9.294,46.75,6.159c3.284-0.486,9.839-2.168,10.094-8.007c0.726-16.642,0-38.32,0-38.32L104.54,0.044z"/>
		<linearGradient id="SVGID_6_" gradientUnits="userSpaceOnUse" x1="171.7896" y1="5.6318" x2="171.7896" y2="0.0439">
			<stop  offset="0.1452" style="stop-color:#FFFFFF"/>
			<stop  offset="0.2581" style="stop-color:#C8C9CA"/>
			<stop  offset="0.8548" style="stop-color:#C8C9CA"/>
			<stop  offset="0.8763" style="stop-color:#9E9E9F"/>
			<stop  offset="0.9032" style="stop-color:#888888"/>
		</linearGradient>
		<path fill="url(#SVGID_6_)" d="M116.798,0.044c-0.238,0.513-0.384,1.081-0.384,1.688c0,2.154,1.68,3.899,3.75,3.899h103.25
			c2.071,0,3.75-1.746,3.75-3.899c0-0.608-0.145-1.176-0.384-1.688H116.798z"/>
	</g>
	<g>
		<path fill="#252526" d="M1156.143,0.044c0,0,6.145,10.763-3.295,15.391c-21.152,10.371-69.82,24.759-69.82,24.759
			s-25.593,9.294-46.751,6.159c-3.283-0.486-9.838-2.168-10.092-8.007c-0.727-16.642,0-38.32,0-38.32L1156.143,0.044z"/>
		
			<linearGradient id="SVGID_7_" gradientUnits="userSpaceOnUse" x1="-8939.4492" y1="5.6318" x2="-8939.4492" y2="0.0439" gradientTransform="matrix(-1 0 0 1 -7850.5576 0)">
			<stop  offset="0.1452" style="stop-color:#FFFFFF"/>
			<stop  offset="0.2581" style="stop-color:#C8C9CA"/>
			<stop  offset="0.8548" style="stop-color:#C8C9CA"/>
			<stop  offset="0.8763" style="stop-color:#9E9E9F"/>
			<stop  offset="0.9032" style="stop-color:#888888"/>
		</linearGradient>
		<path fill="url(#SVGID_7_)" d="M1143.884,0.044c0.238,0.513,0.384,1.081,0.384,1.688c0,2.154-1.679,3.899-3.75,3.899h-103.251
			c-2.07,0-3.75-1.746-3.75-3.899c0-0.608,0.146-1.176,0.385-1.688H1143.884z"/>
	</g>
	<g>
		<path fill="#FFFFFF" d="M251.498,2.08v38.118c0,3.929,4.153,7.115,9.276,7.115h218.961c5.123,0,9.276-3.186,9.276-7.115V2.08
			H251.498z"/>
		<path fill="#252526" d="M251.498,0v38.119c0,3.929,4.153,7.114,9.276,7.114h218.961c5.123,0,9.276-3.186,9.276-7.114V0H251.498z"
			/>
	</g>
	<g>
		<path fill="#FFFFFF" d="M508.722,3.12v38.119c0,3.929,4.153,7.114,9.276,7.114h218.961c5.123,0,9.276-3.186,9.276-7.114V3.12
			H508.722z"/>
		<path fill="#252526" d="M508.722,1.04v38.119c0,3.929,4.153,7.114,9.276,7.114h218.961c5.123,0,9.276-3.186,9.276-7.114V1.04
			H508.722z"/>
	</g>
	<g>
		<path fill="#FFFFFF" d="M769.944,4.16v38.119c0,3.929,4.153,7.114,9.276,7.114h218.961c5.124,0,9.276-3.186,9.276-7.114V4.16
			H769.944z"/>
		<path fill="#252526" d="M769.944,2.08v38.118c0,3.929,4.153,7.115,9.276,7.115h218.961c5.124,0,9.276-3.186,9.276-7.115V2.08
			H769.944z"/>
	</g>
	<g>
		<path fill="#FFFFFF" d="M229.334,54.01c-34.415,0.001-46.182-3.033-46.689-3.168l-35.057-12.496L98.65,19.139
			C89.799,15,95.066,0.605,95.292,0.026l1.318,0.31c-0.05,0.128-4.881,13.856,2.613,17.362l48.874,19.18l34.979,12.469
			c0.073,0.018,13.336,3.412,51.74,3.078l262.35,0.024h550.668c0.336-0.011,36.176-1.305,62.551-12.446
			c4.013-1.696,8.979-3.614,14.236-5.646c14.533-5.615,32.619-12.603,41.782-19.291c2.888-2.108,5.194-5.781,1.734-14.733
			l1.412-0.308c3.866,10.002,0.837,14.039-2.285,16.319c-9.32,6.803-27.507,13.83-42.12,19.476
			c-5.248,2.027-10.204,3.942-14.195,5.627c-26.627,11.249-62.73,12.549-63.092,12.562H497.165l-262.344-0.024
			C232.933,54.002,231.102,54.01,229.334,54.01z"/>
	</g>
	<g>
		<path fill="#3E3E3F" d="M229.334,52.97c-34.415,0.001-46.182-3.033-46.689-3.168l-35.057-12.497L98.65,18.099
			c-8.851-4.138-3.584-17.494-3.358-18.072l1.318,0.31c-0.05,0.128-4.881,12.816,2.613,16.322l48.874,19.18l34.979,12.469
			c0.073,0.017,13.336,3.412,51.74,3.078l262.35,0.024h550.668c0.336-0.011,36.176-1.305,62.551-12.445
			c4.013-1.696,8.979-3.614,14.236-5.646c14.533-5.616,32.619-12.603,41.782-19.291c2.888-2.108,5.194-4.741,1.734-13.693
			l1.412-0.308c3.866,10.002,0.837,12.999-2.285,15.279c-9.32,6.803-27.507,13.83-42.12,19.476
			c-5.248,2.027-10.204,3.942-14.195,5.628c-26.627,11.248-62.73,12.549-63.092,12.561H497.165l-262.344-0.024
			C232.933,52.963,231.102,52.97,229.334,52.97z"/>
	</g>
	<path fill="#C1C0C0" d="M107.047,158.475c-11.903,0-47.61,0-47.61,0c-2.073,0-3.753-1.746-3.753-3.902V85.149
		c0-2.155,1.681-3.903,3.753-3.903h47.61c2.073,0,40.353,19.642,40.353,37.221S109.121,158.475,107.047,158.475z"/>
	<path fill="#34322F" d="M107.047,159.516c-11.903,0-47.61,0-47.61,0c-2.073,0-3.753-1.748-3.753-3.904V86.189
		c0-2.155,1.681-3.903,3.753-3.903h47.61c2.073,0,40.353,19.642,40.353,37.221C147.4,137.086,109.121,159.516,107.047,159.516z"/>
	<g>
		<g>
			<path fill="#252626" d="M101.283,118.822c0,8.688,6.775,15.729,15.131,15.729c8.357,0,15.132-7.041,15.132-15.729
				c0-8.687-6.774-15.731-15.132-15.731C108.059,103.09,101.283,110.135,101.283,118.822"/>
			
				<ellipse fill="none" stroke="#121212" stroke-width="0.75" stroke-miterlimit="10" cx="116.415" cy="118.822" rx="15.132" ry="15.729"/>
			<polygon fill="#040000" points="118.285,127.742 118.285,120.765 124.997,120.765 124.997,116.876 118.285,116.876 
				118.285,109.9 114.544,109.9 114.544,116.876 107.833,116.876 107.833,120.765 114.544,120.765 114.544,127.742 			"/>
			<path fill="#221714" d="M117.968,110.228v6.32v0.656h0.633h6.08v3.232h-6.08h-0.633v0.656v6.322h-3.108v-6.322v-0.656h-0.63
				h-6.083v-3.232h6.083h0.63v-0.656v-6.32H117.968z M114.23,116.548h-6.712v4.544h6.712v6.978h4.371v-6.978h6.711v-4.544h-6.711
				v-6.978h-4.371V116.548z"/>
		</g>
		<rect x="117.968" y="109.573" fill="#606062" width="0.633" height="7.631"/>
		<rect x="117.972" y="116.547" fill="#606062" width="7.34" height="0.657"/>
	</g>
</g>
</svg>
