<?xml version="1.0" encoding="utf-8"?>
<!-- Generator: Adobe Illustrator 16.0.0, SVG Export Plug-In . SVG Version: 6.00 Build 0)  -->
<!DOCTYPE svg PUBLIC "-//W3C//DTD SVG 1.1//EN" "http://www.w3.org/Graphics/SVG/1.1/DTD/svg11.dtd">
<svg version="1.1" id="图层_1" xmlns="http://www.w3.org/2000/svg" xmlns:xlink="http://www.w3.org/1999/xlink" x="0px" y="0px"
	 width="1275.59px" height="126.14px" viewBox="0 0 1275.59 126.14" enable-background="new 0 0 1275.59 126.14"
	 xml:space="preserve">
<g>
	<linearGradient id="SVGID_1_" gradientUnits="userSpaceOnUse" x1="637.7949" y1="126.1406" x2="637.7949" y2="-4.882813e-004">
		<stop  offset="0" style="stop-color:#A3A3A4"/>
		<stop  offset="0.051" style="stop-color:#DBDCDC"/>
		<stop  offset="0.1429" style="stop-color:#C1C0C0"/>
		<stop  offset="0.8776" style="stop-color:#C1C0C0"/>
		<stop  offset="0.9592" style="stop-color:#EEEEEF"/>
		<stop  offset="1" style="stop-color:#A3A3A4"/>
	</linearGradient>
	<rect x="0" y="-0.001" fill="url(#SVGID_1_)" width="1275.59" height="126.142"/>
	<g>
		<g>
			<circle fill="#FFFFFF" cx="27.679" cy="19.573" r="8.03"/>
			<circle fill="#151515" cx="27.186" cy="18.83" r="8.03"/>
		</g>
		<g>
			<circle fill="#FFFFFF" cx="51.627" cy="19.573" r="8.03"/>
			<circle fill="#151515" cx="51.134" cy="18.83" r="8.03"/>
		</g>
		<g>
			<circle fill="#FFFFFF" cx="75.575" cy="19.573" r="8.03"/>
			<circle fill="#151515" cx="75.083" cy="18.83" r="8.03"/>
		</g>
	</g>
	<g>
		<g>
			<circle fill="#FFFFFF" cx="291.112" cy="19.573" r="8.03"/>
			<circle fill="#151515" cx="290.619" cy="18.83" r="8.03"/>
		</g>
		<g>
			<circle fill="#FFFFFF" cx="315.061" cy="19.573" r="8.03"/>
			<circle fill="#151515" cx="314.567" cy="18.83" r="8.03"/>
		</g>
		<g>
			<circle fill="#FFFFFF" cx="339.009" cy="19.573" r="8.03"/>
			<circle fill="#151515" cx="338.516" cy="18.83" r="8.03"/>
		</g>
		<g>
			<circle fill="#FFFFFF" cx="362.957" cy="19.573" r="8.03"/>
			<circle fill="#151515" cx="362.464" cy="18.83" r="8.03"/>
		</g>
		<g>
			<circle fill="#FFFFFF" cx="386.906" cy="19.573" r="8.03"/>
			<circle fill="#151515" cx="386.413" cy="18.83" r="8.03"/>
		</g>
		<g>
			<circle fill="#FFFFFF" cx="410.854" cy="19.573" r="8.03"/>
			<circle fill="#151515" cx="410.361" cy="18.83" r="8.03"/>
		</g>
		<g>
			<circle fill="#FFFFFF" cx="434.803" cy="19.573" r="8.03"/>
			<circle fill="#151515" cx="434.31" cy="18.83" r="8.03"/>
		</g>
		<g>
			<circle fill="#FFFFFF" cx="458.751" cy="19.573" r="8.03"/>
			<circle fill="#151515" cx="458.259" cy="18.83" r="8.03"/>
		</g>
		<g>
			<circle fill="#FFFFFF" cx="482.7" cy="19.573" r="8.03"/>
			<circle fill="#151515" cx="482.207" cy="18.83" r="8.03"/>
		</g>
		<g>
			<circle fill="#FFFFFF" cx="506.648" cy="19.573" r="8.03"/>
			<circle fill="#151515" cx="506.155" cy="18.83" r="8.03"/>
		</g>
		<g>
			<circle fill="#FFFFFF" cx="530.597" cy="19.573" r="8.03"/>
			<circle fill="#151515" cx="530.104" cy="18.83" r="8.03"/>
		</g>
		<g>
			<circle fill="#FFFFFF" cx="554.545" cy="19.573" r="8.03"/>
			<circle fill="#151515" cx="554.053" cy="18.83" r="8.03"/>
		</g>
		<g>
			<circle fill="#FFFFFF" cx="578.494" cy="19.573" r="8.03"/>
			<circle fill="#151515" cx="578.001" cy="18.83" r="8.03"/>
		</g>
	</g>
	<g>
		<g>
			<circle fill="#FFFFFF" cx="722.185" cy="19.573" r="8.03"/>
			<circle fill="#151515" cx="721.691" cy="18.83" r="8.029"/>
		</g>
		<g>
			<circle fill="#FFFFFF" cx="746.134" cy="19.573" r="8.03"/>
			<circle fill="#151515" cx="745.641" cy="18.83" r="8.029"/>
		</g>
		<g>
			<circle fill="#FFFFFF" cx="770.082" cy="19.573" r="8.029"/>
			<circle fill="#151515" cx="769.589" cy="18.83" r="8.03"/>
		</g>
		<g>
			<circle fill="#FFFFFF" cx="794.03" cy="19.573" r="8.03"/>
			<circle fill="#151515" cx="793.537" cy="18.83" r="8.029"/>
		</g>
		<g>
			<circle fill="#FFFFFF" cx="817.979" cy="19.573" r="8.029"/>
			<circle fill="#151515" cx="817.485" cy="18.83" r="8.03"/>
		</g>
		<g>
			<circle fill="#FFFFFF" cx="841.928" cy="19.573" r="8.029"/>
			<circle fill="#151515" cx="841.435" cy="18.83" r="8.03"/>
		</g>
		<g>
			<circle fill="#FFFFFF" cx="865.876" cy="19.573" r="8.03"/>
			<circle fill="#151515" cx="865.383" cy="18.83" r="8.029"/>
		</g>
		<g>
			<circle fill="#FFFFFF" cx="889.824" cy="19.573" r="8.029"/>
			<circle fill="#151515" cx="889.331" cy="18.83" r="8.03"/>
		</g>
		<g>
			<circle fill="#FFFFFF" cx="913.772" cy="19.573" r="8.03"/>
			<circle fill="#151515" cx="913.28" cy="18.83" r="8.03"/>
		</g>
		<g>
			<circle fill="#FFFFFF" cx="937.722" cy="19.573" r="8.03"/>
			<circle fill="#151515" cx="937.229" cy="18.83" r="8.029"/>
		</g>
		<g>
			<circle fill="#FFFFFF" cx="961.67" cy="19.573" r="8.029"/>
			<circle fill="#151515" cx="961.177" cy="18.83" r="8.03"/>
		</g>
		<g>
			<circle fill="#FFFFFF" cx="985.618" cy="19.573" r="8.03"/>
			<circle fill="#151515" cx="985.125" cy="18.83" r="8.029"/>
		</g>
		<g>
			<circle fill="#FFFFFF" cx="1009.566" cy="19.573" r="8.029"/>
			<circle fill="#151515" cx="1009.074" cy="18.83" r="8.029"/>
		</g>
		<g>
			<circle fill="#FFFFFF" cx="1033.515" cy="19.573" r="8.03"/>
			<circle fill="#151515" cx="1033.022" cy="18.83" r="8.03"/>
		</g>
		<g>
			<circle fill="#FFFFFF" cx="1057.464" cy="19.573" r="8.03"/>
			<circle fill="#151515" cx="1056.971" cy="18.83" r="8.029"/>
		</g>
		<g>
			<circle fill="#FFFFFF" cx="1081.412" cy="19.573" r="8.029"/>
			<circle fill="#151515" cx="1080.919" cy="18.83" r="8.03"/>
		</g>
		<g>
			<circle fill="#FFFFFF" cx="1105.36" cy="19.573" r="8.03"/>
			<circle fill="#151515" cx="1104.868" cy="18.83" r="8.03"/>
		</g>
		<g>
			<circle fill="#FFFFFF" cx="1129.309" cy="19.573" r="8.029"/>
			<circle fill="#151515" cx="1128.816" cy="18.83" r="8.029"/>
		</g>
		<g>
			<circle fill="#FFFFFF" cx="1153.258" cy="19.573" r="8.029"/>
			<circle fill="#151515" cx="1152.765" cy="18.83" r="8.03"/>
		</g>
		<g>
			<circle fill="#FFFFFF" cx="1177.206" cy="19.573" r="8.03"/>
			<circle fill="#151515" cx="1176.713" cy="18.83" r="8.029"/>
		</g>
		<g>
			<circle fill="#FFFFFF" cx="1201.154" cy="19.573" r="8.029"/>
			<circle fill="#151515" cx="1200.662" cy="18.83" r="8.029"/>
		</g>
		<g>
			<circle fill="#FFFFFF" cx="1225.103" cy="19.573" r="8.03"/>
			<circle fill="#151515" cx="1224.61" cy="18.83" r="8.03"/>
		</g>
		<g>
			<circle fill="#FFFFFF" cx="1249.051" cy="19.573" r="8.029"/>
			<circle fill="#151515" cx="1248.559" cy="18.83" r="8.029"/>
		</g>
	</g>
	<g>
		<g>
			<circle fill="#FFFFFF" cx="75.575" cy="42.012" r="8.03"/>
			<circle fill="#151515" cx="75.083" cy="41.27" r="8.03"/>
		</g>
		<g>
			<g>
				<circle fill="#FFFFFF" cx="291.112" cy="42.012" r="8.03"/>
				<circle fill="#151515" cx="290.619" cy="41.27" r="8.03"/>
			</g>
			<g>
				<circle fill="#FFFFFF" cx="315.061" cy="42.012" r="8.03"/>
				<circle fill="#151515" cx="314.567" cy="41.27" r="8.03"/>
			</g>
			<g>
				<circle fill="#FFFFFF" cx="339.009" cy="42.012" r="8.03"/>
				<circle fill="#151515" cx="338.516" cy="41.27" r="8.03"/>
			</g>
			<g>
				<circle fill="#FFFFFF" cx="362.957" cy="42.012" r="8.03"/>
				<circle fill="#151515" cx="362.464" cy="41.27" r="8.03"/>
			</g>
			<g>
				<circle fill="#FFFFFF" cx="386.906" cy="42.012" r="8.03"/>
				<circle fill="#151515" cx="386.413" cy="41.27" r="8.03"/>
			</g>
			<g>
				<circle fill="#FFFFFF" cx="410.854" cy="42.012" r="8.03"/>
				<circle fill="#151515" cx="410.361" cy="41.27" r="8.03"/>
			</g>
			<g>
				<circle fill="#FFFFFF" cx="434.803" cy="42.012" r="8.03"/>
				<circle fill="#151515" cx="434.31" cy="41.27" r="8.03"/>
			</g>
			<g>
				<circle fill="#FFFFFF" cx="458.751" cy="42.012" r="8.03"/>
				<circle fill="#151515" cx="458.259" cy="41.27" r="8.03"/>
			</g>
			<g>
				<circle fill="#FFFFFF" cx="482.7" cy="42.012" r="8.03"/>
				<circle fill="#151515" cx="482.207" cy="41.27" r="8.03"/>
			</g>
			<g>
				<circle fill="#FFFFFF" cx="506.648" cy="42.012" r="8.03"/>
				<circle fill="#151515" cx="506.155" cy="41.27" r="8.03"/>
			</g>
			<g>
				<circle fill="#FFFFFF" cx="530.597" cy="42.012" r="8.03"/>
				<circle fill="#151515" cx="530.104" cy="41.27" r="8.03"/>
			</g>
			<g>
				<circle fill="#FFFFFF" cx="554.545" cy="42.012" r="8.03"/>
				<circle fill="#151515" cx="554.053" cy="41.27" r="8.03"/>
			</g>
		</g>
		<g>
			<g>
				<circle fill="#FFFFFF" cx="746.134" cy="42.012" r="8.03"/>
				<circle fill="#151515" cx="745.641" cy="41.27" r="8.029"/>
			</g>
			<g>
				<circle fill="#FFFFFF" cx="770.082" cy="42.012" r="8.029"/>
				<circle fill="#151515" cx="769.589" cy="41.27" r="8.03"/>
			</g>
			<g>
				<circle fill="#FFFFFF" cx="794.03" cy="42.012" r="8.03"/>
				<circle fill="#151515" cx="793.537" cy="41.27" r="8.029"/>
			</g>
			<g>
				<circle fill="#FFFFFF" cx="817.979" cy="42.012" r="8.029"/>
				<circle fill="#151515" cx="817.485" cy="41.27" r="8.03"/>
			</g>
			<g>
				<circle fill="#FFFFFF" cx="841.928" cy="42.012" r="8.029"/>
				<circle fill="#151515" cx="841.435" cy="41.27" r="8.03"/>
			</g>
			<g>
				<circle fill="#FFFFFF" cx="865.876" cy="42.012" r="8.03"/>
				<circle fill="#151515" cx="865.383" cy="41.27" r="8.029"/>
			</g>
			<g>
				<circle fill="#FFFFFF" cx="889.824" cy="42.012" r="8.029"/>
				<circle fill="#151515" cx="889.331" cy="41.27" r="8.03"/>
			</g>
			<g>
				<circle fill="#FFFFFF" cx="913.772" cy="42.012" r="8.03"/>
				<circle fill="#151515" cx="913.28" cy="41.27" r="8.03"/>
			</g>
			<g>
				<circle fill="#FFFFFF" cx="937.722" cy="42.012" r="8.03"/>
				<circle fill="#151515" cx="937.229" cy="41.27" r="8.029"/>
			</g>
			<g>
				<circle fill="#FFFFFF" cx="961.67" cy="42.012" r="8.029"/>
				<circle fill="#151515" cx="961.177" cy="41.27" r="8.03"/>
			</g>
			<g>
				<circle fill="#FFFFFF" cx="985.618" cy="42.012" r="8.03"/>
				<circle fill="#151515" cx="985.125" cy="41.27" r="8.029"/>
			</g>
			<g>
				<circle fill="#FFFFFF" cx="1009.566" cy="42.012" r="8.029"/>
				<circle fill="#151515" cx="1009.074" cy="41.27" r="8.029"/>
			</g>
			<g>
				<circle fill="#FFFFFF" cx="1033.515" cy="42.012" r="8.03"/>
				<circle fill="#151515" cx="1033.022" cy="41.27" r="8.03"/>
			</g>
			<g>
				<circle fill="#FFFFFF" cx="1057.464" cy="42.012" r="8.03"/>
				<circle fill="#151515" cx="1056.971" cy="41.27" r="8.029"/>
			</g>
			<g>
				<circle fill="#FFFFFF" cx="1081.412" cy="42.012" r="8.029"/>
				<circle fill="#151515" cx="1080.919" cy="41.27" r="8.03"/>
			</g>
			<g>
				<circle fill="#FFFFFF" cx="1105.36" cy="42.012" r="8.03"/>
				<circle fill="#151515" cx="1104.868" cy="41.27" r="8.03"/>
			</g>
			<g>
				<circle fill="#FFFFFF" cx="1129.309" cy="42.012" r="8.029"/>
				<circle fill="#151515" cx="1128.816" cy="41.27" r="8.029"/>
			</g>
			<g>
				<circle fill="#FFFFFF" cx="1153.258" cy="42.012" r="8.029"/>
				<circle fill="#151515" cx="1152.765" cy="41.27" r="8.03"/>
			</g>
			<g>
				<circle fill="#FFFFFF" cx="1177.206" cy="42.012" r="8.03"/>
				<circle fill="#151515" cx="1176.713" cy="41.27" r="8.029"/>
			</g>
			<g>
				<circle fill="#FFFFFF" cx="1201.154" cy="42.012" r="8.029"/>
				<circle fill="#151515" cx="1200.662" cy="41.27" r="8.029"/>
			</g>
			<g>
				<circle fill="#FFFFFF" cx="1225.103" cy="42.012" r="8.03"/>
				<circle fill="#151515" cx="1224.61" cy="41.27" r="8.03"/>
			</g>
			<g>
				<circle fill="#FFFFFF" cx="1249.051" cy="42.012" r="8.029"/>
				<circle fill="#151515" cx="1248.559" cy="41.27" r="8.029"/>
			</g>
		</g>
	</g>
	<g>
		<circle fill="#FFFFFF" cx="75.575" cy="64.45" r="8.03"/>
		<circle fill="#151515" cx="75.083" cy="63.707" r="8.03"/>
	</g>
	<g>
		<g>
			<circle fill="#FFFFFF" cx="291.112" cy="64.45" r="8.03"/>
			<circle fill="#151515" cx="290.619" cy="63.707" r="8.03"/>
		</g>
		<g>
			<circle fill="#FFFFFF" cx="315.061" cy="64.45" r="8.03"/>
			<circle fill="#151515" cx="314.567" cy="63.707" r="8.03"/>
		</g>
	</g>
	<g>
		<circle fill="#FFFFFF" cx="985.618" cy="64.45" r="8.03"/>
		<circle fill="#151515" cx="985.125" cy="63.707" r="8.029"/>
	</g>
	<g>
		<circle fill="#FFFFFF" cx="1009.566" cy="64.45" r="8.029"/>
		<circle fill="#151515" cx="1009.074" cy="63.707" r="8.029"/>
	</g>
	<g>
		<circle fill="#FFFFFF" cx="1033.515" cy="64.45" r="8.03"/>
		<circle fill="#151515" cx="1033.022" cy="63.707" r="8.03"/>
	</g>
	<g>
		<circle fill="#FFFFFF" cx="1249.051" cy="64.45" r="8.029"/>
		<circle fill="#151515" cx="1248.559" cy="63.707" r="8.029"/>
	</g>
	<g>
		<g>
			<circle fill="#FFFFFF" cx="75.575" cy="108.786" r="8.03"/>
			<circle fill="#151515" cx="75.083" cy="108.043" r="8.03"/>
		</g>
		<g>
			<circle fill="#FFFFFF" cx="51.381" cy="108.786" r="8.03"/>
			<circle fill="#151515" cx="50.888" cy="108.043" r="8.03"/>
		</g>
		<g>
			<circle fill="#FFFFFF" cx="27.186" cy="108.786" r="8.03"/>
			<circle fill="#151515" cx="26.693" cy="108.043" r="8.03"/>
		</g>
		<g>
			<circle fill="#FFFFFF" cx="99.524" cy="108.786" r="8.03"/>
			<circle fill="#151515" cx="99.031" cy="108.043" r="8.03"/>
		</g>
		<g>
			<circle fill="#FFFFFF" cx="123.473" cy="108.786" r="8.03"/>
			<circle fill="#151515" cx="122.979" cy="108.043" r="8.03"/>
		</g>
		<g>
			<circle fill="#FFFFFF" cx="147.421" cy="108.786" r="8.03"/>
			<circle fill="#151515" cx="146.928" cy="108.043" r="8.03"/>
		</g>
		<g>
			<circle fill="#FFFFFF" cx="171.369" cy="108.786" r="8.03"/>
			<circle fill="#151515" cx="170.877" cy="108.043" r="8.03"/>
		</g>
		<g>
			<circle fill="#FFFFFF" cx="195.318" cy="108.786" r="8.03"/>
			<circle fill="#151515" cx="194.825" cy="108.043" r="8.03"/>
		</g>
		<g>
			<circle fill="#FFFFFF" cx="219.267" cy="108.786" r="8.03"/>
			<circle fill="#151515" cx="218.773" cy="108.043" r="8.03"/>
		</g>
		<g>
			<circle fill="#FFFFFF" cx="243.215" cy="108.786" r="8.03"/>
			<circle fill="#151515" cx="242.722" cy="108.043" r="8.03"/>
		</g>
		<g>
			<circle fill="#FFFFFF" cx="267.163" cy="108.786" r="8.03"/>
			<circle fill="#151515" cx="266.671" cy="108.043" r="8.03"/>
		</g>
		<g>
			<circle fill="#FFFFFF" cx="291.112" cy="108.786" r="8.03"/>
			<circle fill="#151515" cx="290.619" cy="108.043" r="8.03"/>
		</g>
		<g>
			<circle fill="#FFFFFF" cx="315.061" cy="108.786" r="8.03"/>
			<circle fill="#151515" cx="314.567" cy="108.043" r="8.03"/>
		</g>
		<g>
			<g>
				<circle fill="#FFFFFF" cx="339.009" cy="108.785" r="8.03"/>
				<circle fill="#151515" cx="338.516" cy="108.043" r="8.03"/>
			</g>
			<g>
				<circle fill="#FFFFFF" cx="362.957" cy="108.785" r="8.03"/>
				<circle fill="#151515" cx="362.464" cy="108.043" r="8.03"/>
			</g>
			<g>
				<circle fill="#FFFFFF" cx="386.906" cy="108.785" r="8.03"/>
				<circle fill="#151515" cx="386.413" cy="108.043" r="8.03"/>
			</g>
			<g>
				<circle fill="#FFFFFF" cx="410.854" cy="108.785" r="8.03"/>
				<circle fill="#151515" cx="410.361" cy="108.043" r="8.03"/>
			</g>
			<g>
				<circle fill="#FFFFFF" cx="434.803" cy="108.785" r="8.03"/>
				<circle fill="#151515" cx="434.31" cy="108.043" r="8.03"/>
			</g>
			<g>
				<circle fill="#FFFFFF" cx="458.751" cy="108.785" r="8.03"/>
				<circle fill="#151515" cx="458.259" cy="108.043" r="8.03"/>
			</g>
			<g>
				<circle fill="#FFFFFF" cx="482.7" cy="108.785" r="8.03"/>
				<circle fill="#151515" cx="482.207" cy="108.043" r="8.03"/>
			</g>
			<g>
				<circle fill="#FFFFFF" cx="506.648" cy="108.785" r="8.03"/>
				<circle fill="#151515" cx="506.155" cy="108.043" r="8.03"/>
			</g>
			<g>
				<circle fill="#FFFFFF" cx="530.597" cy="108.785" r="8.03"/>
				<circle fill="#151515" cx="530.104" cy="108.043" r="8.03"/>
			</g>
			<g>
				<circle fill="#FFFFFF" cx="554.545" cy="108.785" r="8.03"/>
				<circle fill="#151515" cx="554.053" cy="108.043" r="8.03"/>
			</g>
		</g>
	</g>
	<g>
		<circle fill="#FFFFFF" cx="722.432" cy="109.869" r="8.029"/>
		<circle fill="#151515" cx="721.938" cy="109.126" r="8.03"/>
	</g>
	<g>
		<circle fill="#FFFFFF" cx="985.618" cy="108.786" r="8.03"/>
		<circle fill="#151515" cx="985.125" cy="108.043" r="8.029"/>
	</g>
	<g>
		<circle fill="#FFFFFF" cx="1009.566" cy="108.786" r="8.029"/>
		<circle fill="#151515" cx="1009.074" cy="108.043" r="8.029"/>
	</g>
	<g>
		<circle fill="#FFFFFF" cx="1033.515" cy="108.786" r="8.03"/>
		<circle fill="#151515" cx="1033.022" cy="108.043" r="8.03"/>
	</g>
	<g>
		<circle fill="#FFFFFF" cx="1057.464" cy="108.786" r="8.03"/>
		<circle fill="#151515" cx="1056.971" cy="108.043" r="8.029"/>
	</g>
	<g>
		<circle fill="#FFFFFF" cx="1081.412" cy="108.786" r="8.029"/>
		<circle fill="#151515" cx="1080.919" cy="108.043" r="8.03"/>
	</g>
	<g>
		<circle fill="#FFFFFF" cx="1105.36" cy="108.786" r="8.03"/>
		<circle fill="#151515" cx="1104.868" cy="108.043" r="8.03"/>
	</g>
	<g>
		<circle fill="#FFFFFF" cx="1129.309" cy="108.786" r="8.029"/>
		<circle fill="#151515" cx="1128.816" cy="108.043" r="8.029"/>
	</g>
	<g>
		<circle fill="#FFFFFF" cx="1153.258" cy="108.786" r="8.029"/>
		<circle fill="#151515" cx="1152.765" cy="108.043" r="8.03"/>
	</g>
	<g>
		<circle fill="#FFFFFF" cx="1177.206" cy="108.786" r="8.03"/>
		<circle fill="#151515" cx="1176.713" cy="108.043" r="8.029"/>
	</g>
	<g>
		<circle fill="#FFFFFF" cx="1201.154" cy="108.786" r="8.029"/>
		<circle fill="#151515" cx="1200.662" cy="108.043" r="8.029"/>
	</g>
	<g>
		<circle fill="#FFFFFF" cx="1225.103" cy="108.786" r="8.03"/>
		<circle fill="#151515" cx="1224.61" cy="108.043" r="8.03"/>
	</g>
	<g>
		<circle fill="#FFFFFF" cx="1249.051" cy="108.786" r="8.029"/>
		<circle fill="#151515" cx="1248.559" cy="108.043" r="8.029"/>
	</g>
	<g>
		<g>
			<circle fill="#FFFFFF" cx="746.134" cy="109.867" r="8.03"/>
			<circle fill="#151515" cx="745.641" cy="109.125" r="8.029"/>
		</g>
		<g>
			<circle fill="#FFFFFF" cx="770.082" cy="109.867" r="8.029"/>
			<circle fill="#151515" cx="769.589" cy="109.125" r="8.03"/>
		</g>
		<g>
			<circle fill="#FFFFFF" cx="794.03" cy="109.867" r="8.03"/>
			<circle fill="#151515" cx="793.538" cy="109.125" r="8.03"/>
		</g>
		<g>
			<circle fill="#FFFFFF" cx="817.979" cy="109.867" r="8.029"/>
			<circle fill="#151515" cx="817.486" cy="109.125" r="8.029"/>
		</g>
		<g>
			<circle fill="#FFFFFF" cx="841.928" cy="109.867" r="8.029"/>
			<circle fill="#151515" cx="841.435" cy="109.125" r="8.03"/>
		</g>
		<g>
			<circle fill="#FFFFFF" cx="865.876" cy="109.867" r="8.03"/>
			<circle fill="#151515" cx="865.384" cy="109.125" r="8.03"/>
		</g>
		<g>
			<circle fill="#FFFFFF" cx="889.824" cy="109.867" r="8.029"/>
			<circle fill="#151515" cx="889.332" cy="109.125" r="8.029"/>
		</g>
		<g>
			<circle fill="#FFFFFF" cx="913.772" cy="109.867" r="8.03"/>
			<circle fill="#151515" cx="913.28" cy="109.125" r="8.03"/>
		</g>
		<g>
			<circle fill="#FFFFFF" cx="937.722" cy="109.867" r="8.03"/>
			<circle fill="#151515" cx="937.229" cy="109.125" r="8.029"/>
		</g>
		<g>
			<circle fill="#FFFFFF" cx="961.67" cy="109.867" r="8.029"/>
			<circle fill="#151515" cx="961.178" cy="109.125" r="8.029"/>
		</g>
	</g>
	<g>
		<circle fill="#FFFFFF" cx="75.575" cy="85.233" r="8.03"/>
		<circle fill="#151515" cx="75.083" cy="84.489" r="8.03"/>
	</g>
	<g>
		<circle fill="#FFFFFF" cx="578.494" cy="109.87" r="8.03"/>
		<circle fill="#151515" cx="578.001" cy="109.126" r="8.03"/>
	</g>
	<g>
		<circle fill="#FFFFFF" cx="291.112" cy="85.233" r="8.03"/>
		<circle fill="#151515" cx="290.619" cy="84.489" r="8.03"/>
	</g>
	<g>
		<circle fill="#FFFFFF" cx="315.061" cy="85.233" r="8.03"/>
		<circle fill="#151515" cx="314.567" cy="84.489" r="8.03"/>
	</g>
	<g>
		<g>
			<circle fill="#FFFFFF" cx="342.707" cy="85.232" r="8.03"/>
			<circle fill="#151515" cx="342.214" cy="84.49" r="8.03"/>
		</g>
		<g>
			<circle fill="#FFFFFF" cx="366.655" cy="85.232" r="8.03"/>
			<circle fill="#151515" cx="366.163" cy="84.49" r="8.03"/>
		</g>
		<g>
			<circle fill="#FFFFFF" cx="390.604" cy="85.232" r="8.03"/>
			<circle fill="#151515" cx="390.111" cy="84.49" r="8.03"/>
		</g>
		<g>
			<circle fill="#FFFFFF" cx="414.552" cy="85.232" r="8.03"/>
			<circle fill="#151515" cx="414.06" cy="84.49" r="8.03"/>
		</g>
		<g>
			<circle fill="#FFFFFF" cx="438.501" cy="85.232" r="8.03"/>
			<circle fill="#151515" cx="438.008" cy="84.49" r="8.03"/>
		</g>
		<g>
			<circle fill="#FFFFFF" cx="462.45" cy="85.232" r="8.03"/>
			<circle fill="#151515" cx="461.957" cy="84.49" r="8.03"/>
		</g>
		<g>
			<circle fill="#FFFFFF" cx="486.398" cy="85.232" r="8.03"/>
			<circle fill="#151515" cx="485.905" cy="84.49" r="8.03"/>
		</g>
		<g>
			<circle fill="#FFFFFF" cx="510.346" cy="85.232" r="8.03"/>
			<circle fill="#151515" cx="509.854" cy="84.49" r="8.03"/>
		</g>
		<g>
			<circle fill="#FFFFFF" cx="534.295" cy="85.232" r="8.03"/>
			<circle fill="#151515" cx="533.802" cy="84.49" r="8.03"/>
		</g>
		<g>
			<circle fill="#FFFFFF" cx="558.244" cy="85.232" r="8.03"/>
			<circle fill="#151515" cx="557.751" cy="84.49" r="8.03"/>
		</g>
	</g>
	<g>
		<circle fill="#FFFFFF" cx="985.618" cy="86.889" r="8.03"/>
		<circle fill="#151515" cx="985.125" cy="86.145" r="8.029"/>
	</g>
	<g>
		<circle fill="#FFFFFF" cx="1009.566" cy="86.889" r="8.029"/>
		<circle fill="#151515" cx="1009.074" cy="86.145" r="8.029"/>
	</g>
	<g>
		<circle fill="#FFFFFF" cx="1033.515" cy="86.889" r="8.03"/>
		<circle fill="#151515" cx="1033.022" cy="86.145" r="8.03"/>
	</g>
	<g>
		<g>
			<circle fill="#FFFFFF" cx="1057.464" cy="64.45" r="8.03"/>
			<circle fill="#151515" cx="1056.971" cy="63.707" r="8.029"/>
		</g>
		<g>
			<circle fill="#FFFFFF" cx="1057.464" cy="86.889" r="8.03"/>
			<circle fill="#151515" cx="1056.971" cy="86.145" r="8.029"/>
		</g>
	</g>
	<g>
		<circle fill="#FFFFFF" cx="1081.412" cy="64.45" r="8.029"/>
		<circle fill="#151515" cx="1080.919" cy="63.707" r="8.03"/>
	</g>
	<g>
		<circle fill="#FFFFFF" cx="1081.412" cy="86.889" r="8.029"/>
		<circle fill="#151515" cx="1080.919" cy="86.145" r="8.03"/>
	</g>
	<g>
		<circle fill="#FFFFFF" cx="1249.051" cy="86.889" r="8.029"/>
		<circle fill="#151515" cx="1248.559" cy="86.145" r="8.029"/>
	</g>
	<g>
		<g>
			<circle fill="#FFFFFF" cx="722.185" cy="86.889" r="8.03"/>
			<circle fill="#151515" cx="721.691" cy="86.146" r="8.029"/>
		</g>
		<g>
			<circle fill="#FFFFFF" cx="746.134" cy="86.889" r="8.03"/>
			<circle fill="#151515" cx="745.641" cy="86.146" r="8.029"/>
		</g>
		<g>
			<circle fill="#FFFFFF" cx="770.082" cy="86.889" r="8.029"/>
			<circle fill="#151515" cx="769.589" cy="86.146" r="8.03"/>
		</g>
		<g>
			<circle fill="#FFFFFF" cx="794.03" cy="86.889" r="8.03"/>
			<circle fill="#151515" cx="793.537" cy="86.146" r="8.029"/>
		</g>
		<g>
			<circle fill="#FFFFFF" cx="817.979" cy="86.889" r="8.029"/>
			<circle fill="#151515" cx="817.485" cy="86.146" r="8.03"/>
		</g>
		<g>
			<circle fill="#FFFFFF" cx="841.928" cy="86.889" r="8.029"/>
			<circle fill="#151515" cx="841.435" cy="86.146" r="8.03"/>
		</g>
		<g>
			<circle fill="#FFFFFF" cx="865.876" cy="86.889" r="8.03"/>
			<circle fill="#151515" cx="865.383" cy="86.146" r="8.029"/>
		</g>
		<g>
			<circle fill="#FFFFFF" cx="889.824" cy="86.889" r="8.029"/>
			<circle fill="#151515" cx="889.331" cy="86.146" r="8.03"/>
		</g>
		<g>
			<circle fill="#FFFFFF" cx="913.772" cy="86.889" r="8.03"/>
			<circle fill="#151515" cx="913.28" cy="86.146" r="8.03"/>
		</g>
		<g>
			<circle fill="#FFFFFF" cx="937.722" cy="86.889" r="8.03"/>
			<circle fill="#151515" cx="937.229" cy="86.146" r="8.029"/>
		</g>
		<g>
			<circle fill="#FFFFFF" cx="961.67" cy="86.889" r="8.029"/>
			<circle fill="#151515" cx="961.177" cy="86.146" r="8.03"/>
		</g>
	</g>
	<g>
		<path fill="#F1F1F1" d="M28.164,31.46H0v59.778h28.164c17.812,0,32.25-13.381,32.25-29.889
			C60.414,44.843,45.975,31.46,28.164,31.46z"/>
		<path fill="#2A2C2C" d="M27.581,31.46H0v58.542h27.581c17.443,0,31.583-13.105,31.583-29.271
			C59.164,44.565,45.024,31.46,27.581,31.46z"/>
		<path fill="#030000" d="M24.943,36.16H0v49.143h24.943c15.775,0,28.563-11.002,28.563-24.571
			C53.505,47.161,40.718,36.16,24.943,36.16z"/>
		<g>
			<path fill="#E1E0DE" stroke="#1E1F1F" stroke-width="1.7" stroke-miterlimit="10" d="M20.527,68.586"/>
			<ellipse fill="#525556" cx="21.881" cy="60.986" rx="15.943" ry="14.776"/>
			<ellipse fill="#9F9FA0" cx="20.677" cy="59.313" rx="15.943" ry="14.776"/>
			
				<ellipse fill="none" stroke="#535354" stroke-width="3" stroke-miterlimit="10" cx="20.677" cy="59.313" rx="12.935" ry="11.989"/>
			<ellipse fill="#D0D0D0" cx="20.677" cy="59.313" rx="5.64" ry="5.229"/>
			<path fill="#323333" d="M22.163,64.866h-3.272V54.318c0,0,1.227,0,1.636,0c0.409,0,1.636,0,1.636,0V64.866z"/>
		</g>
	</g>
	<g>
		<path fill="#030000" d="M102.031,0.354l-3,77.603c0,7.318,5.186,13.254,11.583,13.254h152.503c6.397,0,11.583-5.936,11.583-13.254
			l-3-77.603H102.031z"/>
		<linearGradient id="SVGID_2_" gradientUnits="userSpaceOnUse" x1="186.8657" y1="89.6299" x2="186.8657" y2="0.355">
			<stop  offset="0" style="stop-color:#A3A3A4"/>
			<stop  offset="0.1888" style="stop-color:#DBDCDC"/>
			<stop  offset="0.2653" style="stop-color:#C1C0C0"/>
			<stop  offset="0.8776" style="stop-color:#C1C0C0"/>
			<stop  offset="0.9592" style="stop-color:#EEEEEF"/>
			<stop  offset="1" style="stop-color:#A3A3A4"/>
		</linearGradient>
		<path fill="url(#SVGID_2_)" d="M103.505,0.354l-2.947,76.253c0,7.191,5.096,13.022,11.381,13.022h149.853
			c6.286,0,11.382-5.831,11.382-13.022l-2.948-76.253H103.505z"/>
		<linearGradient id="SVGID_3_" gradientUnits="userSpaceOnUse" x1="186.8657" y1="65.6484" x2="186.8657" y2="0.355">
			<stop  offset="0" style="stop-color:#A3A3A4"/>
			<stop  offset="0.0714" style="stop-color:#DBDCDC"/>
			<stop  offset="0.1224" style="stop-color:#717071"/>
			<stop  offset="0.8776" style="stop-color:#A3A3A4"/>
			<stop  offset="0.9592" style="stop-color:#EEEEEF"/>
			<stop  offset="1" style="stop-color:#A3A3A4"/>
		</linearGradient>
		<path fill="url(#SVGID_3_)" d="M124.347,0.354l-2.211,55.768c0,5.262,3.822,9.526,8.537,9.526H243.06
			c4.714,0,8.536-4.265,8.536-9.526l-2.211-55.768H124.347z"/>
		<linearGradient id="SVGID_4_" gradientUnits="userSpaceOnUse" x1="186.6479" y1="60.8818" x2="186.6479" y2="26.4492">
			<stop  offset="0" style="stop-color:#A3A3A4"/>
			<stop  offset="0.0714" style="stop-color:#DBDCDC"/>
			<stop  offset="0.1531" style="stop-color:#C1C0C0"/>
			<stop  offset="0.8776" style="stop-color:#C1C0C0"/>
			<stop  offset="0.9592" style="stop-color:#EEEEEF"/>
			<stop  offset="1" style="stop-color:#A3A3A4"/>
		</linearGradient>
		<path fill="url(#SVGID_4_)" d="M249.752,43.665c0,9.508-6.501,17.217-14.52,17.217h-97.168c-8.02,0-14.521-7.709-14.521-17.217
			l0,0c0-9.507,6.501-17.216,14.521-17.216h97.168C243.251,26.449,249.752,34.158,249.752,43.665L249.752,43.665z"/>
		<path fill="#030000" d="M247.215,44.022c0,8.005-6.167,14.493-13.776,14.493h-92.19c-7.608,0-13.776-6.488-13.776-14.493l0,0
			c0-8.005,6.168-14.495,13.776-14.495h92.19C241.047,29.527,247.215,36.018,247.215,44.022L247.215,44.022z"/>
	</g>
	<g>
		<path fill="#676868" d="M1227.373,74.46c0,11.306-12.383,20.469-27.658,20.469h-73.828c-15.275,0-27.658-9.163-27.658-20.469l0,0
			c0-11.304,12.383-20.468,27.658-20.468h73.828C1214.99,53.992,1227.373,63.156,1227.373,74.46L1227.373,74.46z"/>
		<linearGradient id="SVGID_5_" gradientUnits="userSpaceOnUse" x1="1162.8008" y1="93.9209" x2="1162.8008" y2="55.0005">
			<stop  offset="0" style="stop-color:#A3A3A4"/>
			<stop  offset="0.1429" style="stop-color:#9E9E9F"/>
			<stop  offset="0.8776" style="stop-color:#C1C0C0"/>
			<stop  offset="0.9592" style="stop-color:#EEEEEF"/>
			<stop  offset="1" style="stop-color:#A3A3A4"/>
		</linearGradient>
		<path fill="url(#SVGID_5_)" d="M1224.191,74.46c0,10.748-11.773,19.461-26.295,19.461h-70.191
			c-14.523,0-26.295-8.713-26.295-19.461l0,0c0-10.746,11.771-19.46,26.295-19.46h70.191
			C1212.418,55,1224.191,63.714,1224.191,74.46L1224.191,74.46z"/>
	</g>
	<g>
		<linearGradient id="SVGID_6_" gradientUnits="userSpaceOnUse" x1="651.9131" y1="71.5186" x2="651.9131" y2="55.0142">
			<stop  offset="0" style="stop-color:#A3A3A4"/>
			<stop  offset="0.1327" style="stop-color:#FFFFFF"/>
			<stop  offset="0.2806" style="stop-color:#717071"/>
			<stop  offset="0.8776" style="stop-color:#A3A3A4"/>
			<stop  offset="1" style="stop-color:#A3A3A4"/>
		</linearGradient>
		<path fill="url(#SVGID_6_)" d="M962.814,63.267c0,4.557-3.695,8.252-8.252,8.252H349.265c-4.558,0-8.252-3.695-8.252-8.252l0,0
			c0-4.559,3.695-8.253,8.252-8.253h605.297C959.119,55.014,962.814,58.708,962.814,63.267L962.814,63.267z"/>
		<circle fill="#DCDCDC" cx="642.783" cy="64.497" r="49.529"/>
		<linearGradient id="SVGID_7_" gradientUnits="userSpaceOnUse" x1="642.7832" y1="111.0254" x2="642.7832" y2="11.9683">
			<stop  offset="0" style="stop-color:#A3A3A4"/>
			<stop  offset="0.1224" style="stop-color:#717071"/>
			<stop  offset="0.8776" style="stop-color:#A3A3A4"/>
			<stop  offset="1" style="stop-color:#A3A3A4"/>
		</linearGradient>
		<circle fill="url(#SVGID_7_)" cx="642.783" cy="61.497" r="49.529"/>
		<g>
			<circle fill="#252526" cx="642.616" cy="63.497" r="38.353"/>
			<circle fill="#726F6B" cx="642.616" cy="63.497" r="37.515"/>
			<circle fill="#C8C8C8" cx="642.616" cy="63.497" r="37.212"/>
			<circle fill="#EDEDEC" cx="642.616" cy="63.497" r="36.45"/>
			<circle fill="#C8C8C8" cx="642.616" cy="63.497" r="35.382"/>
			<linearGradient id="SVGID_8_" gradientUnits="userSpaceOnUse" x1="642.6162" y1="97.8105" x2="642.6162" y2="29.1812">
				<stop  offset="0" style="stop-color:#A3A3A4"/>
				<stop  offset="0.1429" style="stop-color:#9E9E9F"/>
				<stop  offset="0.8776" style="stop-color:#C1C0C0"/>
				<stop  offset="0.9592" style="stop-color:#EEEEEF"/>
				<stop  offset="1" style="stop-color:#A3A3A4"/>
			</linearGradient>
			<circle fill="url(#SVGID_8_)" cx="642.616" cy="63.497" r="34.315"/>
			<g>
				<path fill="#6B6B6B" d="M617.052,55.671v14.588h6.696c0,0,5.774,0,7.34-4.576l7.525,4.915h1.351l8.108-5.345v5.099l10.442-0.03
					v-4.423l-5.159-0.063l-0.031-10.164h-5.19l0.031,5.036l-6.758,4.454l-1.137-0.892l6.543-4.392l-3.194-2.119l-6.635,4.422
					l-1.044-0.707l6.572-4.482l-3.102-2.15l-8.324,5.529c0,0-0.891-4.117-6.634-4.639L617.052,55.671z"/>
				<path fill="#C1C1C1" d="M622.212,60.185v5.867c0,0,3.01,0.092,3.532-1.352c0,0,1.352-2.795-1.044-4.178
					C624.7,60.522,623.871,59.909,622.212,60.185z"/>
			</g>
			<polygon fill="#6B6B6B" points="659.684,55.671 664.873,55.671 664.873,65.959 670.125,65.959 670.125,70.289 659.684,70.289 			
				"/>
		</g>
	</g>
	<text transform="matrix(1 0 0 1 1121.8438 74.6396)" font-family="'SimHei'" font-size="18.2911">PowerEdge</text>
	<text transform="matrix(1 0 0 1 1146.8447 88.7939)" font-family="'SimHei'" font-size="14">1950</text>
</g>
</svg>
