<?xml version="1.0" encoding="utf-8"?>
<!-- Generator: Adobe Illustrator 16.0.0, SVG Export Plug-In . SVG Version: 6.00 Build 0)  -->
<!DOCTYPE svg PUBLIC "-//W3C//DTD SVG 1.1//EN" "http://www.w3.org/Graphics/SVG/1.1/DTD/svg11.dtd">
<svg version="1.1" id="图层_1" xmlns="http://www.w3.org/2000/svg" xmlns:xlink="http://www.w3.org/1999/xlink" x="0px" y="0px"
	 width="497.18px" height="111.49px" viewBox="0 0 497.18 111.49" enable-background="new 0 0 497.18 111.49" xml:space="preserve">
<g>
	<linearGradient id="SVGID_1_" gradientUnits="userSpaceOnUse" x1="248.5913" y1="0" x2="248.5913" y2="111.4888">
		<stop  offset="0" style="stop-color:#262324"/>
		<stop  offset="0.0199" style="stop-color:#272425"/>
		<stop  offset="0.2623" style="stop-color:#2F2F30"/>
		<stop  offset="0.5269" style="stop-color:#323333"/>
		<stop  offset="0.7206" style="stop-color:#303131"/>
		<stop  offset="0.8241" style="stop-color:#282929"/>
		<stop  offset="0.9063" style="stop-color:#1B1B1B"/>
		<stop  offset="0.9769" style="stop-color:#080808"/>
		<stop  offset="1" style="stop-color:#000000"/>
	</linearGradient>
	<rect fill="url(#SVGID_1_)" width="497.184" height="111.488"/>
	<g>
		<polygon fill="#4B4949" points="147.537,26.943 143.467,19.893 147.537,12.842 155.678,12.842 159.748,19.893 155.678,26.943 		
			"/>
		<polygon fill="#4B4949" points="168.77,26.943 164.7,19.893 168.77,12.842 176.911,12.842 180.981,19.893 176.911,26.943 		"/>
		<polygon fill="#4B4949" points="190.004,26.943 185.934,19.893 190.004,12.842 198.145,12.842 202.215,19.893 198.145,26.943 		
			"/>
		<polygon fill="#4B4949" points="211.238,26.943 207.167,19.893 211.238,12.842 219.378,12.842 223.449,19.893 219.378,26.943 		
			"/>
		<polygon fill="#4B4949" points="232.472,26.943 228.4,19.893 232.472,12.842 240.611,12.842 244.682,19.893 240.611,26.943 		"/>
		<polygon fill="#4B4949" points="253.705,26.943 249.635,19.893 253.705,12.842 261.846,12.842 265.916,19.893 261.846,26.943 		
			"/>
		<polygon fill="#4B4949" points="274.938,26.943 270.868,19.893 274.938,12.842 283.079,12.842 287.149,19.893 283.079,26.943 		
			"/>
		<polygon fill="#4B4949" points="296.172,26.943 292.102,19.893 296.172,12.842 304.313,12.842 308.384,19.893 304.313,26.943 		
			"/>
		<polygon fill="#4B4949" points="317.406,26.943 313.336,19.893 317.406,12.842 325.547,12.842 329.617,19.893 325.547,26.943 		
			"/>
		<polygon fill="#4B4949" points="338.64,26.943 334.569,19.893 338.64,12.842 346.78,12.842 350.851,19.893 346.78,26.943 		"/>
		<polygon fill="#4B4949" points="359.874,26.943 355.804,19.893 359.874,12.842 368.015,12.842 372.085,19.893 368.015,26.943 		
			"/>
		<polygon fill="#4B4949" points="381.106,26.943 377.037,19.893 381.106,12.842 389.247,12.842 393.318,19.893 389.247,26.943 		
			"/>
		<polygon fill="#4B4949" points="402.341,26.943 398.271,19.893 402.341,12.842 410.481,12.842 414.552,19.893 410.481,26.943 		
			"/>
		<polygon fill="#4B4949" points="423.575,26.943 419.504,19.893 423.575,12.842 431.716,12.842 435.786,19.893 431.716,26.943 		
			"/>
		<polygon fill="#4B4949" points="444.808,26.943 440.737,19.893 444.808,12.842 452.949,12.842 457.019,19.893 452.949,26.943 		
			"/>
		<polygon fill="#4B4949" points="466.042,26.943 461.972,19.893 466.042,12.842 474.183,12.842 478.253,19.893 474.183,26.943 		
			"/>
		<polygon fill="#4B4949" points="158.345,45.262 154.275,38.211 158.345,31.16 166.486,31.16 170.557,38.211 166.486,45.262 		"/>
		<polygon fill="#4B4949" points="179.578,45.262 175.508,38.211 179.578,31.16 187.72,31.16 191.789,38.211 187.72,45.262 		"/>
		<polygon fill="#4B4949" points="200.813,45.262 196.742,38.211 200.813,31.16 208.953,31.16 213.023,38.211 208.953,45.262 		"/>
		<polygon fill="#4B4949" points="222.045,45.262 217.977,38.211 222.045,31.16 230.187,31.16 234.258,38.211 230.187,45.262 		"/>
		<polygon fill="#4B4949" points="243.279,45.262 239.209,38.211 243.279,31.16 251.42,31.16 255.49,38.211 251.42,45.262 		"/>
		<polygon fill="#4B4949" points="264.514,45.262 260.443,38.211 264.514,31.16 272.654,31.16 276.725,38.211 272.654,45.262 		"/>
		<polygon fill="#4B4949" points="285.747,45.262 281.677,38.211 285.747,31.16 293.888,31.16 297.958,38.211 293.888,45.262 		"/>
		<polygon fill="#4B4949" points="306.98,45.262 302.91,38.211 306.98,31.16 315.122,31.16 319.191,38.211 315.122,45.262 		"/>
		<polygon fill="#4B4949" points="328.215,45.262 324.145,38.211 328.215,31.16 336.354,31.16 340.426,38.211 336.354,45.262 		"/>
		<polygon fill="#4B4949" points="349.448,45.262 345.378,38.211 349.448,31.16 357.589,31.16 361.659,38.211 357.589,45.262 		"/>
		<polygon fill="#4B4949" points="370.683,45.262 366.611,38.211 370.683,31.16 378.823,31.16 382.894,38.211 378.823,45.262 		"/>
		<polygon fill="#4B4949" points="391.915,45.262 387.845,38.211 391.915,31.16 400.056,31.16 404.126,38.211 400.056,45.262 		"/>
		<polygon fill="#4B4949" points="413.149,45.262 409.079,38.211 413.149,31.16 421.29,31.16 425.36,38.211 421.29,45.262 		"/>
		<polygon fill="#4B4949" points="434.383,45.262 430.312,38.211 434.383,31.16 442.523,31.16 446.595,38.211 442.523,45.262 		"/>
		<polygon fill="#4B4949" points="455.616,45.262 451.546,38.211 455.616,31.16 463.757,31.16 467.827,38.211 463.757,45.262 		"/>
		<polygon fill="#4B4949" points="476.851,45.262 472.78,38.211 476.851,31.16 484.991,31.16 489.062,38.211 484.991,45.262 		"/>
		<polygon fill="#4B4949" points="147.537,63.582 143.467,56.531 147.537,49.481 155.678,49.481 159.748,56.531 155.678,63.582 		
			"/>
		<polygon fill="#4B4949" points="168.77,63.582 164.7,56.531 168.77,49.481 176.911,49.481 180.981,56.531 176.911,63.582 		"/>
		<polygon fill="#4B4949" points="190.004,63.582 185.934,56.531 190.004,49.481 198.145,49.481 202.215,56.531 198.145,63.582 		
			"/>
		<polygon fill="#4B4949" points="211.238,63.582 207.167,56.531 211.238,49.481 219.378,49.481 223.449,56.531 219.378,63.582 		
			"/>
		<polygon fill="#4B4949" points="232.472,63.582 228.4,56.531 232.472,49.481 240.611,49.481 244.682,56.531 240.611,63.582 		"/>
		<polygon fill="#4B4949" points="253.705,63.582 249.635,56.531 253.705,49.481 261.846,49.481 265.916,56.531 261.846,63.582 		
			"/>
		<polygon fill="#4B4949" points="274.938,63.582 270.868,56.531 274.938,49.481 283.079,49.481 287.149,56.531 283.079,63.582 		
			"/>
		<polygon fill="#4B4949" points="296.172,63.582 292.102,56.531 296.172,49.481 304.313,49.481 308.384,56.531 304.313,63.582 		
			"/>
		<polygon fill="#4B4949" points="317.406,63.582 313.336,56.531 317.406,49.481 325.547,49.481 329.617,56.531 325.547,63.582 		
			"/>
		<polygon fill="#4B4949" points="338.64,63.582 334.569,56.531 338.64,49.481 346.78,49.481 350.851,56.531 346.78,63.582 		"/>
		<polygon fill="#4B4949" points="359.874,63.582 355.804,56.531 359.874,49.481 368.015,49.481 372.085,56.531 368.015,63.582 		
			"/>
		<polygon fill="#4B4949" points="381.106,63.582 377.037,56.531 381.106,49.481 389.247,49.481 393.318,56.531 389.247,63.582 		
			"/>
		<polygon fill="#4B4949" points="402.341,63.582 398.271,56.531 402.341,49.481 410.481,49.481 414.552,56.531 410.481,63.582 		
			"/>
		<polygon fill="#4B4949" points="423.575,63.582 419.504,56.531 423.575,49.481 431.716,49.481 435.786,56.531 431.716,63.582 		
			"/>
		<polygon fill="#4B4949" points="444.808,63.582 440.737,56.531 444.808,49.481 452.949,49.481 457.019,56.531 452.949,63.582 		
			"/>
		<polygon fill="#4B4949" points="466.042,63.582 461.972,56.531 466.042,49.481 474.183,49.481 478.253,56.531 474.183,63.582 		
			"/>
		<polygon fill="#4B4949" points="158.345,81.898 154.275,74.85 158.345,67.799 166.486,67.799 170.557,74.85 166.486,81.898 		"/>
		<polygon fill="#4B4949" points="179.578,81.898 175.508,74.85 179.578,67.799 187.72,67.799 191.789,74.85 187.72,81.898 		"/>
		<polygon fill="#4B4949" points="200.813,81.898 196.742,74.85 200.813,67.799 208.953,67.799 213.023,74.85 208.953,81.898 		"/>
		<polygon fill="#4B4949" points="222.045,81.898 217.977,74.85 222.045,67.799 230.187,67.799 234.258,74.85 230.187,81.898 		"/>
		<polygon fill="#4B4949" points="243.279,81.898 239.209,74.85 243.279,67.799 251.42,67.799 255.49,74.85 251.42,81.898 		"/>
		<polygon fill="#4B4949" points="264.514,81.898 260.443,74.85 264.514,67.799 272.654,67.799 276.725,74.85 272.654,81.898 		"/>
		<polygon fill="#4B4949" points="285.747,81.898 281.677,74.85 285.747,67.799 293.888,67.799 297.958,74.85 293.888,81.898 		"/>
		<polygon fill="#4B4949" points="306.98,81.898 302.91,74.85 306.98,67.799 315.122,67.799 319.191,74.85 315.122,81.898 		"/>
		<polygon fill="#4B4949" points="328.215,81.898 324.145,74.85 328.215,67.799 336.354,67.799 340.426,74.85 336.354,81.898 		"/>
		<polygon fill="#4B4949" points="349.448,81.898 345.378,74.85 349.448,67.799 357.589,67.799 361.659,74.85 357.589,81.898 		"/>
		<polygon fill="#4B4949" points="370.683,81.898 366.611,74.85 370.683,67.799 378.823,67.799 382.894,74.85 378.823,81.898 		"/>
		<polygon fill="#4B4949" points="391.915,81.898 387.845,74.85 391.915,67.799 400.056,67.799 404.126,74.85 400.056,81.898 		"/>
		<polygon fill="#4B4949" points="413.149,81.898 409.079,74.85 413.149,67.799 421.29,67.799 425.36,74.85 421.29,81.898 		"/>
		<polygon fill="#4B4949" points="434.383,81.898 430.312,74.85 434.383,67.799 442.523,67.799 446.595,74.85 442.523,81.898 		"/>
		<polygon fill="#4B4949" points="455.616,81.898 451.546,74.85 455.616,67.799 463.757,67.799 467.827,74.85 463.757,81.898 		"/>
		<polygon fill="#4B4949" points="476.851,81.898 472.78,74.85 476.851,67.799 484.991,67.799 489.062,74.85 484.991,81.898 		"/>
		<polygon fill="#4B4949" points="147.537,100.22 143.467,93.17 147.537,86.119 155.678,86.119 159.748,93.17 155.678,100.22 		"/>
		<polygon fill="#4B4949" points="168.77,100.22 164.7,93.17 168.77,86.119 176.911,86.119 180.981,93.17 176.911,100.22 		"/>
		<polygon fill="#4B4949" points="190.004,100.22 185.934,93.17 190.004,86.119 198.145,86.119 202.215,93.17 198.145,100.22 		"/>
		<polygon fill="#4B4949" points="211.238,100.22 207.167,93.17 211.238,86.119 219.378,86.119 223.449,93.17 219.378,100.22 		"/>
		<polygon fill="#4B4949" points="232.472,100.22 228.4,93.17 232.472,86.119 240.611,86.119 244.682,93.17 240.611,100.22 		"/>
		<polygon fill="#4B4949" points="253.705,100.22 249.635,93.17 253.705,86.119 261.846,86.119 265.916,93.17 261.846,100.22 		"/>
		<polygon fill="#4B4949" points="274.938,100.22 270.868,93.17 274.938,86.119 283.079,86.119 287.149,93.17 283.079,100.22 		"/>
		<polygon fill="#4B4949" points="296.172,100.22 292.102,93.17 296.172,86.119 304.313,86.119 308.384,93.17 304.313,100.22 		"/>
		<polygon fill="#4B4949" points="317.406,100.22 313.336,93.17 317.406,86.119 325.547,86.119 329.617,93.17 325.547,100.22 		"/>
		<polygon fill="#4B4949" points="338.64,100.22 334.569,93.17 338.64,86.119 346.78,86.119 350.851,93.17 346.78,100.22 		"/>
		<polygon fill="#4B4949" points="359.874,100.22 355.804,93.17 359.874,86.119 368.015,86.119 372.085,93.17 368.015,100.22 		"/>
		<polygon fill="#4B4949" points="381.106,100.22 377.037,93.17 381.106,86.119 389.247,86.119 393.318,93.17 389.247,100.22 		"/>
		<polygon fill="#4B4949" points="402.341,100.22 398.271,93.17 402.341,86.119 410.481,86.119 414.552,93.17 410.481,100.22 		"/>
		<polygon fill="#4B4949" points="423.575,100.22 419.504,93.17 423.575,86.119 431.716,86.119 435.786,93.17 431.716,100.22 		"/>
		<polygon fill="#4B4949" points="444.808,100.22 440.737,93.17 444.808,86.119 452.949,86.119 457.019,93.17 452.949,100.22 		"/>
		<polygon fill="#4B4949" points="466.042,100.22 461.972,93.17 466.042,86.119 474.183,86.119 478.253,93.17 474.183,100.22 		"/>
		<polygon fill="#1A1617" points="148.537,27.943 144.467,20.893 148.537,13.843 156.678,13.843 160.748,20.893 156.678,27.943 		
			"/>
		<polygon fill="#1A1617" points="169.771,27.943 165.701,20.893 169.771,13.843 177.912,13.843 181.982,20.893 177.912,27.943 		
			"/>
		<polygon fill="#1A1617" points="191.004,27.943 186.934,20.893 191.004,13.843 199.145,13.843 203.216,20.893 199.145,27.943 		
			"/>
		<polygon fill="#1A1617" points="212.238,27.943 208.168,20.893 212.238,13.843 220.379,13.843 224.449,20.893 220.379,27.943 		
			"/>
		<polygon fill="#1A1617" points="233.473,27.943 229.401,20.893 233.473,13.843 241.612,13.843 245.683,20.893 241.612,27.943 		
			"/>
		<polygon fill="#1A1617" points="254.705,27.943 250.635,20.893 254.705,13.843 262.846,13.843 266.916,20.893 262.846,27.943 		
			"/>
		<polygon fill="#1A1617" points="275.939,27.943 271.869,20.893 275.939,13.843 284.08,13.843 288.15,20.893 284.08,27.943 		"/>
		<polygon fill="#1A1617" points="297.173,27.943 293.102,20.893 297.173,13.843 305.313,13.843 309.384,20.893 305.313,27.943 		
			"/>
		<polygon fill="#1A1617" points="318.407,27.943 314.337,20.893 318.407,13.843 326.548,13.843 330.618,20.893 326.548,27.943 		
			"/>
		<polygon fill="#1A1617" points="339.641,27.943 335.569,20.893 339.641,13.843 347.781,13.843 351.851,20.893 347.781,27.943 		
			"/>
		<polygon fill="#1A1617" points="360.874,27.943 356.804,20.893 360.874,13.843 369.015,13.843 373.085,20.893 369.015,27.943 		
			"/>
		<polygon fill="#1A1617" points="382.107,27.943 378.038,20.893 382.107,13.843 390.248,13.843 394.319,20.893 390.248,27.943 		
			"/>
		<polygon fill="#1A1617" points="403.341,27.943 399.271,20.893 403.341,13.843 411.481,13.843 415.552,20.893 411.481,27.943 		
			"/>
		<polygon fill="#1A1617" points="424.575,27.943 420.505,20.893 424.575,13.843 432.716,13.843 436.786,20.893 432.716,27.943 		
			"/>
		<polygon fill="#1A1617" points="445.809,27.943 441.738,20.893 445.809,13.843 453.95,13.843 458.02,20.893 453.95,27.943 		"/>
		<polygon fill="#1A1617" points="467.042,27.943 462.972,20.893 467.042,13.843 475.184,13.843 479.253,20.893 475.184,27.943 		
			"/>
		<polygon fill="#1A1617" points="159.346,46.262 155.275,39.211 159.346,32.16 167.486,32.16 171.557,39.211 167.486,46.262 		"/>
		<polygon fill="#1A1617" points="180.579,46.262 176.509,39.211 180.579,32.16 188.721,32.16 192.79,39.211 188.721,46.262 		"/>
		<polygon fill="#1A1617" points="201.813,46.262 197.742,39.211 201.813,32.16 209.953,32.16 214.023,39.211 209.953,46.262 		"/>
		<polygon fill="#1A1617" points="223.046,46.262 218.977,39.211 223.046,32.16 231.188,32.16 235.258,39.211 231.188,46.262 		"/>
		<polygon fill="#1A1617" points="244.28,46.262 240.209,39.211 244.28,32.16 252.421,32.16 256.491,39.211 252.421,46.262 		"/>
		<polygon fill="#1A1617" points="265.514,46.262 261.443,39.211 265.514,32.16 273.654,32.16 277.725,39.211 273.654,46.262 		"/>
		<polygon fill="#1A1617" points="286.748,46.262 282.678,39.211 286.748,32.16 294.889,32.16 298.959,39.211 294.889,46.262 		"/>
		<polygon fill="#1A1617" points="307.981,46.262 303.911,39.211 307.981,32.16 316.122,32.16 320.192,39.211 316.122,46.262 		"/>
		<polygon fill="#1A1617" points="329.216,46.262 325.146,39.211 329.216,32.16 337.355,32.16 341.427,39.211 337.355,46.262 		"/>
		<polygon fill="#1A1617" points="350.448,46.262 346.378,39.211 350.448,32.16 358.589,32.16 362.66,39.211 358.589,46.262 		"/>
		<polygon fill="#1A1617" points="371.683,46.262 367.612,39.211 371.683,32.16 379.823,32.16 383.894,39.211 379.823,46.262 		"/>
		<polygon fill="#1A1617" points="392.916,46.262 388.846,39.211 392.916,32.16 401.057,32.16 405.127,39.211 401.057,46.262 		"/>
		<polygon fill="#1A1617" points="414.149,46.262 410.079,39.211 414.149,32.16 422.29,32.16 426.36,39.211 422.29,46.262 		"/>
		<polygon fill="#1A1617" points="435.384,46.262 431.313,39.211 435.384,32.16 443.524,32.16 447.595,39.211 443.524,46.262 		"/>
		<polygon fill="#1A1617" points="456.617,46.262 452.546,39.211 456.617,32.16 464.758,32.16 468.828,39.211 464.758,46.262 		"/>
		<polygon fill="#1A1617" points="477.851,46.262 473.78,39.211 477.851,32.16 485.991,32.16 490.062,39.211 485.991,46.262 		"/>
		<polygon fill="#1A1617" points="148.537,64.582 144.467,57.531 148.537,50.482 156.678,50.482 160.748,57.531 156.678,64.582 		
			"/>
		<polygon fill="#1A1617" points="169.771,64.582 165.701,57.531 169.771,50.482 177.912,50.482 181.982,57.531 177.912,64.582 		
			"/>
		<polygon fill="#1A1617" points="191.004,64.582 186.934,57.531 191.004,50.482 199.145,50.482 203.216,57.531 199.145,64.582 		
			"/>
		<polygon fill="#1A1617" points="212.238,64.582 208.168,57.531 212.238,50.482 220.379,50.482 224.449,57.531 220.379,64.582 		
			"/>
		<polygon fill="#1A1617" points="233.473,64.582 229.401,57.531 233.473,50.482 241.612,50.482 245.683,57.531 241.612,64.582 		
			"/>
		<polygon fill="#1A1617" points="254.705,64.582 250.635,57.531 254.705,50.482 262.846,50.482 266.916,57.531 262.846,64.582 		
			"/>
		<polygon fill="#1A1617" points="275.939,64.582 271.869,57.531 275.939,50.482 284.08,50.482 288.15,57.531 284.08,64.582 		"/>
		<polygon fill="#1A1617" points="297.173,64.582 293.102,57.531 297.173,50.482 305.313,50.482 309.384,57.531 305.313,64.582 		
			"/>
		<polygon fill="#1A1617" points="318.407,64.582 314.337,57.531 318.407,50.482 326.548,50.482 330.618,57.531 326.548,64.582 		
			"/>
		<polygon fill="#1A1617" points="339.641,64.582 335.569,57.531 339.641,50.482 347.781,50.482 351.851,57.531 347.781,64.582 		
			"/>
		<polygon fill="#1A1617" points="360.874,64.582 356.804,57.531 360.874,50.482 369.015,50.482 373.085,57.531 369.015,64.582 		
			"/>
		<polygon fill="#1A1617" points="382.107,64.582 378.038,57.531 382.107,50.482 390.248,50.482 394.319,57.531 390.248,64.582 		
			"/>
		<polygon fill="#1A1617" points="403.341,64.582 399.271,57.531 403.341,50.482 411.481,50.482 415.552,57.531 411.481,64.582 		
			"/>
		<polygon fill="#1A1617" points="424.575,64.582 420.505,57.531 424.575,50.482 432.716,50.482 436.786,57.531 432.716,64.582 		
			"/>
		<polygon fill="#1A1617" points="445.809,64.582 441.738,57.531 445.809,50.482 453.95,50.482 458.02,57.531 453.95,64.582 		"/>
		<polygon fill="#1A1617" points="467.042,64.582 462.972,57.531 467.042,50.482 475.184,50.482 479.253,57.531 475.184,64.582 		
			"/>
		<polygon fill="#1A1617" points="159.346,82.899 155.275,75.85 159.346,68.8 167.486,68.8 171.557,75.85 167.486,82.899 		"/>
		<polygon fill="#1A1617" points="180.579,82.899 176.509,75.85 180.579,68.8 188.721,68.8 192.79,75.85 188.721,82.899 		"/>
		<polygon fill="#1A1617" points="201.813,82.899 197.742,75.85 201.813,68.8 209.953,68.8 214.023,75.85 209.953,82.899 		"/>
		<polygon fill="#1A1617" points="223.046,82.899 218.977,75.85 223.046,68.8 231.188,68.8 235.258,75.85 231.188,82.899 		"/>
		<polygon fill="#1A1617" points="244.28,82.899 240.209,75.85 244.28,68.8 252.421,68.8 256.491,75.85 252.421,82.899 		"/>
		<polygon fill="#1A1617" points="265.514,82.899 261.443,75.85 265.514,68.8 273.654,68.8 277.725,75.85 273.654,82.899 		"/>
		<polygon fill="#1A1617" points="286.748,82.899 282.678,75.85 286.748,68.8 294.889,68.8 298.959,75.85 294.889,82.899 		"/>
		<polygon fill="#1A1617" points="307.981,82.899 303.911,75.85 307.981,68.8 316.122,68.8 320.192,75.85 316.122,82.899 		"/>
		<polygon fill="#1A1617" points="329.216,82.899 325.146,75.85 329.216,68.8 337.355,68.8 341.427,75.85 337.355,82.899 		"/>
		<polygon fill="#1A1617" points="350.448,82.899 346.378,75.85 350.448,68.8 358.589,68.8 362.66,75.85 358.589,82.899 		"/>
		<polygon fill="#1A1617" points="371.683,82.899 367.612,75.85 371.683,68.8 379.823,68.8 383.894,75.85 379.823,82.899 		"/>
		<polygon fill="#1A1617" points="392.916,82.899 388.846,75.85 392.916,68.8 401.057,68.8 405.127,75.85 401.057,82.899 		"/>
		<polygon fill="#1A1617" points="414.149,82.899 410.079,75.85 414.149,68.8 422.29,68.8 426.36,75.85 422.29,82.899 		"/>
		<polygon fill="#1A1617" points="435.384,82.899 431.313,75.85 435.384,68.8 443.524,68.8 447.595,75.85 443.524,82.899 		"/>
		<polygon fill="#1A1617" points="456.617,82.899 452.546,75.85 456.617,68.8 464.758,68.8 468.828,75.85 464.758,82.899 		"/>
		<polygon fill="#1A1617" points="477.851,82.899 473.78,75.85 477.851,68.8 485.991,68.8 490.062,75.85 485.991,82.899 		"/>
		<polygon fill="#1A1617" points="148.537,101.221 144.467,94.17 148.537,87.119 156.678,87.119 160.748,94.17 156.678,101.221 		
			"/>
		<polygon fill="#1A1617" points="169.771,101.221 165.701,94.17 169.771,87.119 177.912,87.119 181.982,94.17 177.912,101.221 		
			"/>
		<polygon fill="#1A1617" points="191.004,101.221 186.934,94.17 191.004,87.119 199.145,87.119 203.216,94.17 199.145,101.221 		
			"/>
		<polygon fill="#1A1617" points="212.238,101.221 208.168,94.17 212.238,87.119 220.379,87.119 224.449,94.17 220.379,101.221 		
			"/>
		<polygon fill="#1A1617" points="233.473,101.221 229.401,94.17 233.473,87.119 241.612,87.119 245.683,94.17 241.612,101.221 		
			"/>
		<polygon fill="#4B4949" points="42.653,26.943 38.583,19.893 42.653,12.842 50.794,12.842 54.864,19.893 50.794,26.943 		"/>
		<polygon fill="#4B4949" points="63.886,26.943 59.816,19.893 63.886,12.842 72.027,12.842 76.098,19.893 72.027,26.943 		"/>
		<polygon fill="#4B4949" points="85.12,26.943 81.05,19.893 85.12,12.842 93.261,12.842 97.331,19.893 93.261,26.943 		"/>
		<polygon fill="#4B4949" points="106.354,26.943 102.283,19.893 106.354,12.842 114.494,12.842 118.565,19.893 114.494,26.943 		
			"/>
		<polygon fill="#4B4949" points="127.588,26.943 123.517,19.893 127.588,12.842 135.728,12.842 139.798,19.893 135.728,26.943 		
			"/>
		<polygon fill="#4B4949" points="53.461,45.262 49.392,38.211 53.461,31.16 61.603,31.16 65.673,38.211 61.603,45.262 		"/>
		<polygon fill="#4B4949" points="74.694,45.262 70.624,38.211 74.694,31.16 82.836,31.16 86.905,38.211 82.836,45.262 		"/>
		<polygon fill="#4B4949" points="95.929,45.262 91.858,38.211 95.929,31.16 104.069,31.16 108.14,38.211 104.069,45.262 		"/>
		<polygon fill="#4B4949" points="117.161,45.262 113.093,38.211 117.161,31.16 125.303,31.16 129.374,38.211 125.303,45.262 		"/>
		<polygon fill="#4B4949" points="138.396,45.262 134.325,38.211 138.396,31.16 146.536,31.16 150.606,38.211 146.536,45.262 		"/>
		<polygon fill="#4B4949" points="42.653,63.582 38.583,56.531 42.653,49.481 50.794,49.481 54.864,56.531 50.794,63.582 		"/>
		<polygon fill="#4B4949" points="63.886,63.582 59.816,56.531 63.886,49.481 72.027,49.481 76.098,56.531 72.027,63.582 		"/>
		<polygon fill="#4B4949" points="85.12,63.582 81.05,56.531 85.12,49.481 93.261,49.481 97.331,56.531 93.261,63.582 		"/>
		<polygon fill="#4B4949" points="106.354,63.582 102.283,56.531 106.354,49.481 114.494,49.481 118.565,56.531 114.494,63.582 		
			"/>
		<polygon fill="#4B4949" points="127.588,63.582 123.517,56.531 127.588,49.481 135.728,49.481 139.798,56.531 135.728,63.582 		
			"/>
		<polygon fill="#4B4949" points="53.461,81.898 49.392,74.85 53.461,67.799 61.603,67.799 65.673,74.85 61.603,81.898 		"/>
		<polygon fill="#4B4949" points="74.694,81.898 70.624,74.85 74.694,67.799 82.836,67.799 86.905,74.85 82.836,81.898 		"/>
		<polygon fill="#4B4949" points="95.929,81.898 91.858,74.85 95.929,67.799 104.069,67.799 108.14,74.85 104.069,81.898 		"/>
		<polygon fill="#4B4949" points="117.161,81.898 113.093,74.85 117.161,67.799 125.303,67.799 129.374,74.85 125.303,81.898 		"/>
		<polygon fill="#4B4949" points="138.396,81.898 134.325,74.85 138.396,67.799 146.536,67.799 150.606,74.85 146.536,81.898 		"/>
		<polygon fill="#4B4949" points="42.653,100.22 38.583,93.17 42.653,86.119 50.794,86.119 54.864,93.17 50.794,100.22 		"/>
		<polygon fill="#4B4949" points="63.886,100.22 59.816,93.17 63.886,86.119 72.027,86.119 76.098,93.17 72.027,100.22 		"/>
		<polygon fill="#4B4949" points="85.12,100.22 81.05,93.17 85.12,86.119 93.261,86.119 97.331,93.17 93.261,100.22 		"/>
		<polygon fill="#4B4949" points="106.354,100.22 102.283,93.17 106.354,86.119 114.494,86.119 118.565,93.17 114.494,100.22 		"/>
		<polygon fill="#4B4949" points="127.588,100.22 123.517,93.17 127.588,86.119 135.728,86.119 139.798,93.17 135.728,100.22 		"/>
		<polygon fill="#1A1617" points="43.653,27.943 39.583,20.893 43.653,13.843 51.794,13.843 55.864,20.893 51.794,27.943 		"/>
		<polygon fill="#1A1617" points="64.887,27.943 60.817,20.893 64.887,13.843 73.028,13.843 77.099,20.893 73.028,27.943 		"/>
		<polygon fill="#1A1617" points="86.12,27.943 82.05,20.893 86.12,13.843 94.261,13.843 98.332,20.893 94.261,27.943 		"/>
		<polygon fill="#1A1617" points="107.354,27.943 103.284,20.893 107.354,13.843 115.495,13.843 119.565,20.893 115.495,27.943 		
			"/>
		<polygon fill="#1A1617" points="128.589,27.943 124.518,20.893 128.589,13.843 136.729,13.843 140.799,20.893 136.729,27.943 		
			"/>
		<polygon fill="#1A1617" points="54.462,46.262 50.392,39.211 54.462,32.16 62.603,32.16 66.673,39.211 62.603,46.262 		"/>
		<polygon fill="#1A1617" points="75.695,46.262 71.625,39.211 75.695,32.16 83.837,32.16 87.906,39.211 83.837,46.262 		"/>
		<polygon fill="#1A1617" points="96.929,46.262 92.858,39.211 96.929,32.16 105.069,32.16 109.14,39.211 105.069,46.262 		"/>
		<polygon fill="#1A1617" points="118.162,46.262 114.093,39.211 118.162,32.16 126.304,32.16 130.374,39.211 126.304,46.262 		"/>
		<polygon fill="#1A1617" points="139.396,46.262 135.325,39.211 139.396,32.16 147.537,32.16 151.607,39.211 147.537,46.262 		"/>
		<polygon fill="#1A1617" points="43.653,64.582 39.583,57.531 43.653,50.482 51.794,50.482 55.864,57.531 51.794,64.582 		"/>
		<polygon fill="#1A1617" points="64.887,64.582 60.817,57.531 64.887,50.482 73.028,50.482 77.099,57.531 73.028,64.582 		"/>
		<polygon fill="#1A1617" points="86.12,64.582 82.05,57.531 86.12,50.482 94.261,50.482 98.332,57.531 94.261,64.582 		"/>
		<polygon fill="#1A1617" points="107.354,64.582 103.284,57.531 107.354,50.482 115.495,50.482 119.565,57.531 115.495,64.582 		
			"/>
		<polygon fill="#1A1617" points="128.589,64.582 124.518,57.531 128.589,50.482 136.729,50.482 140.799,57.531 136.729,64.582 		
			"/>
		<polygon fill="#1A1617" points="54.462,82.899 50.392,75.85 54.462,68.8 62.603,68.8 66.673,75.85 62.603,82.899 		"/>
		<polygon fill="#1A1617" points="75.695,82.899 71.625,75.85 75.695,68.8 83.837,68.8 87.906,75.85 83.837,82.899 		"/>
		<polygon fill="#1A1617" points="96.929,82.899 92.858,75.85 96.929,68.8 105.069,68.8 109.14,75.85 105.069,82.899 		"/>
		<polygon fill="#1A1617" points="118.162,82.899 114.093,75.85 118.162,68.8 126.304,68.8 130.374,75.85 126.304,82.899 		"/>
		<polygon fill="#1A1617" points="139.396,82.899 135.325,75.85 139.396,68.8 147.537,68.8 151.607,75.85 147.537,82.899 		"/>
		<polygon fill="#1A1617" points="43.653,101.221 39.583,94.17 43.653,87.119 51.794,87.119 55.864,94.17 51.794,101.221 		"/>
		<polygon fill="#1A1617" points="64.887,101.221 60.817,94.17 64.887,87.119 73.028,87.119 77.099,94.17 73.028,101.221 		"/>
		<polygon fill="#4B4949" points="22.635,26.943 18.565,19.893 22.635,12.842 30.776,12.842 34.847,19.893 30.776,26.943 		"/>
		<polygon fill="#4B4949" points="12.21,45.262 8.141,38.211 12.21,31.16 20.352,31.16 24.422,38.211 20.352,45.262 		"/>
		<polygon fill="#4B4949" points="33.443,45.262 29.373,38.211 33.443,31.16 41.585,31.16 45.654,38.211 41.585,45.262 		"/>
		<polygon fill="#4B4949" points="22.635,63.582 18.565,56.531 22.635,49.481 30.776,49.481 34.847,56.531 30.776,63.582 		"/>
		<polygon fill="#4B4949" points="12.21,81.898 8.141,74.85 12.21,67.799 20.352,67.799 24.422,74.85 20.352,81.898 		"/>
		<polygon fill="#4B4949" points="33.443,81.898 29.373,74.85 33.443,67.799 41.585,67.799 45.654,74.85 41.585,81.898 		"/>
		<polygon fill="#4B4949" points="22.635,100.22 18.565,93.17 22.635,86.119 30.776,86.119 34.847,93.17 30.776,100.22 		"/>
		<polygon fill="#1A1617" points="23.636,27.943 19.566,20.893 23.636,13.843 31.777,13.843 35.848,20.893 31.777,27.943 		"/>
		<polygon fill="#1A1617" points="13.211,46.262 9.141,39.211 13.211,32.16 21.352,32.16 25.422,39.211 21.352,46.262 		"/>
		<polygon fill="#1A1617" points="34.444,46.262 30.374,39.211 34.444,32.16 42.586,32.16 46.655,39.211 42.586,46.262 		"/>
		<polygon fill="#1A1617" points="23.636,64.582 19.566,57.531 23.636,50.482 31.777,50.482 35.848,57.531 31.777,64.582 		"/>
		<polygon fill="#1A1617" points="13.211,82.899 9.141,75.85 13.211,68.8 21.352,68.8 25.422,75.85 21.352,82.899 		"/>
		<polygon fill="#1A1617" points="34.444,82.899 30.374,75.85 34.444,68.8 42.586,68.8 46.655,75.85 42.586,82.899 		"/>
		<polygon fill="#1A1617" points="23.636,101.221 19.566,94.17 23.636,87.119 31.777,87.119 35.848,94.17 31.777,101.221 		"/>
		<polygon fill="#1A1617" points="86.12,101.221 82.05,94.17 86.12,87.119 94.261,87.119 98.332,94.17 94.261,101.221 		"/>
		<polygon fill="#1A1617" points="107.354,101.221 103.284,94.17 107.354,87.119 115.495,87.119 119.565,94.17 115.495,101.221 		
			"/>
		<polygon fill="#1A1617" points="128.589,101.221 124.518,94.17 128.589,87.119 136.729,87.119 140.799,94.17 136.729,101.221 		
			"/>
		<polygon fill="#1A1617" points="254.705,101.221 250.635,94.17 254.705,87.119 262.846,87.119 266.916,94.17 262.846,101.221 		
			"/>
		<polygon fill="#1A1617" points="275.939,101.221 271.869,94.17 275.939,87.119 284.08,87.119 288.15,94.17 284.08,101.221 		"/>
		<polygon fill="#1A1617" points="297.173,101.221 293.102,94.17 297.173,87.119 305.313,87.119 309.384,94.17 305.313,101.221 		
			"/>
		<polygon fill="#1A1617" points="318.407,101.221 314.337,94.17 318.407,87.119 326.548,87.119 330.618,94.17 326.548,101.221 		
			"/>
		<polygon fill="#1A1617" points="339.641,101.221 335.569,94.17 339.641,87.119 347.781,87.119 351.851,94.17 347.781,101.221 		
			"/>
		<polygon fill="#1A1617" points="360.874,101.221 356.804,94.17 360.874,87.119 369.015,87.119 373.085,94.17 369.015,101.221 		
			"/>
		<polygon fill="#1A1617" points="382.107,101.221 378.038,94.17 382.107,87.119 390.248,87.119 394.319,94.17 390.248,101.221 		
			"/>
		<polygon fill="#1A1617" points="403.341,101.221 399.271,94.17 403.341,87.119 411.481,87.119 415.552,94.17 411.481,101.221 		
			"/>
		<polygon fill="#1A1617" points="424.575,101.221 420.505,94.17 424.575,87.119 432.716,87.119 436.786,94.17 432.716,101.221 		
			"/>
		<polygon fill="#1A1617" points="445.809,101.221 441.738,94.17 445.809,87.119 453.95,87.119 458.02,94.17 453.95,101.221 		"/>
		<polygon fill="#1A1617" points="467.042,101.221 462.972,94.17 467.042,87.119 475.184,87.119 479.253,94.17 475.184,101.221 		
			"/>
	</g>
</g>
</svg>
