<?xml version="1.0" encoding="utf-8"?>
<!-- Generator: Adobe Illustrator 16.0.0, SVG Export Plug-In . SVG Version: 6.00 Build 0)  -->
<!DOCTYPE svg PUBLIC "-//W3C//DTD SVG 1.1//EN" "http://www.w3.org/Graphics/SVG/1.1/DTD/svg11.dtd">
<svg version="1.1" id="图层_1" xmlns="http://www.w3.org/2000/svg" xmlns:xlink="http://www.w3.org/1999/xlink" x="0px" y="0px"
	 width="77.36px" height="326px" viewBox="0 0 77.36 326" enable-background="new 0 0 77.36 326" xml:space="preserve">
<g>
	<g>
		<defs>
			<path id="SVGID_1_" d="M3.398,0.75c-1.039,0-1.887,0.783-1.887,1.742v321.14c0,0.959,0.848,1.743,1.887,1.743h71.238
				c1.037,0,1.887-0.784,1.887-1.743V2.492c0-0.959-0.85-1.742-1.887-1.742H3.398z"/>
		</defs>
		<clipPath id="SVGID_2_">
			<use xlink:href="#SVGID_1_"  overflow="visible"/>
		</clipPath>
		
			<linearGradient id="SVGID_3_" gradientUnits="userSpaceOnUse" x1="-968.5498" y1="1360.1689" x2="-967.0127" y2="1360.1689" gradientTransform="matrix(0 -211.2519 -211.2519 0 287377.1875 -204282.5469)">
			<stop  offset="0" style="stop-color:#232427"/>
			<stop  offset="0.1686" style="stop-color:#2C2D2F"/>
			<stop  offset="0.4421" style="stop-color:#444446"/>
			<stop  offset="0.5" style="stop-color:#4A4A4C"/>
			<stop  offset="0.5579" style="stop-color:#444446"/>
			<stop  offset="0.8314" style="stop-color:#2C2D2F"/>
			<stop  offset="1" style="stop-color:#232427"/>
		</linearGradient>
		<rect x="1.512" y="0.75" clip-path="url(#SVGID_2_)" fill="url(#SVGID_3_)" width="75.012" height="324.625"/>
	</g>
	<path fill="none" stroke="#202121" stroke-width="1.701" stroke-miterlimit="10" d="M1.512,323.632V2.496
		c0-0.961,0.848-1.744,1.883-1.744h71.244c1.035,0,1.885,0.783,1.885,1.744v321.136c0,0.959-0.85,1.743-1.885,1.743H3.395
		C2.359,325.375,1.512,324.591,1.512,323.632z"/>
	<rect x="12.719" y="36.781" fill="#171818" width="52.734" height="222.719"/>
	<path fill="#202121" d="M64.627,258.738H13.545V37.542h51.082V258.738z M66.277,36.016h-1.65H13.545h-1.652v1.526v221.196v1.524
		h1.652h51.082h1.65v-1.524V37.542V36.016z"/>
	<rect x="2.1" y="1.296" fill="#2C2E30" width="73.834" height="30.37"/>
	<path fill="#202121" d="M75.342,31.12H2.691V1.84h72.65V31.12z M76.523,0.75H1.51v31.46h75.014V0.75z"/>
	<polygon fill="#222427" points="55.291,186.106 64.627,186.106 64.627,185.421 60.602,183.273 	"/>
	<polygon fill="#222427" points="50.99,102.149 43.393,106.207 43.393,109.864 58.59,109.864 58.59,106.207 	"/>
	<g>
		<defs>
			<path id="SVGID_4_" d="M23.82,179.216v-8.111l7.596-4.055l7.6,4.055v8.111l-7.6,4.058L23.82,179.216z M43.393,179.216v-8.111
				l7.598-4.055l7.6,4.055v8.111l-7.6,4.058L43.393,179.216z M13.857,162.995v-8.114l7.599-4.056l7.598,4.056v8.114l-7.598,4.055
				L13.857,162.995z M33.431,162.995v-8.114l7.598-4.056l7.6,4.056v8.114l-7.6,4.055L33.431,162.995z M23.82,146.77v-8.115
				l7.596-4.056l7.6,4.056v8.115l-7.6,4.054L23.82,146.77z M43.393,146.77v-8.115l7.598-4.056l7.6,4.056v8.115l-7.6,4.054
				L43.393,146.77z M13.857,130.542v-8.109l7.599-4.058l7.598,4.058v8.109l-7.598,4.058L13.857,130.542z M33.431,130.542v-8.109
				l7.598-4.058l7.6,4.058v8.109l-7.6,4.058L33.431,130.542z M58.59,109.864v4.454l-7.6,4.057l-7.598-4.057v-4.454h-4.377v4.454
				l-7.6,4.057l-7.596-4.057v-4.454h-4.377v4.454l-6.039,3.222v17.894l6.039,3.222v8.115l-6.039,3.222v17.888l6.039,3.225v8.111
				l-6.039,3.226v3.665h2.744l5.308-2.833l5.309,2.833h8.955l5.309-2.833l5.313,2.833h8.949l5.311-2.833l4.025,2.147v-5.315
				l-1.662-0.89v-8.111l1.662-0.888v-5.317l-4.025,2.15l-7.6-4.055v-8.114l7.6-4.056l4.025,2.148v-5.315l-1.662-0.887v-8.115
				l1.662-0.887v-5.318l-4.025,2.148l-7.6-4.058v-8.109l7.6-4.058l4.025,2.148v-5.318l-1.662-0.887v-4.454H58.59z"/>
		</defs>
		<clipPath id="SVGID_5_">
			<use xlink:href="#SVGID_4_"  overflow="visible"/>
		</clipPath>
		
			<radialGradient id="SVGID_6_" cx="-999.0449" cy="1379.7061" r="1.5429" gradientTransform="matrix(0 20.5667 22.2447 0 -30652.1152 20695.0801)" gradientUnits="userSpaceOnUse">
			<stop  offset="0" style="stop-color:#A1A0A0"/>
			<stop  offset="1" style="stop-color:#262727"/>
		</radialGradient>
		<rect x="13.404" y="109.864" clip-path="url(#SVGID_5_)" fill="url(#SVGID_6_)" width="51.223" height="76.243"/>
	</g>
	<g>
		<defs>
			<path id="SVGID_7_" d="M13.857,98.094V89.98l7.599-4.056l7.598,4.056v8.114l-7.598,4.055L13.857,98.094z M33.431,98.094V89.98
				l7.598-4.056l7.6,4.056v8.114l-7.6,4.055L33.431,98.094z M23.82,81.868v-8.112l7.596-4.055l7.6,4.055v8.112l-7.6,4.057
				L23.82,81.868z M43.393,81.868v-8.112l7.598-4.055l7.6,4.055v8.112l-7.6,4.057L43.393,81.868z M13.857,65.645v-8.112l7.599-4.058
				l7.598,4.058v8.112l-7.598,4.056L13.857,65.645z M33.431,65.645v-8.112l7.598-4.058l7.6,4.058v8.112l-7.6,4.056L33.431,65.645z
				 M23.82,49.418v-8.109l7.596-4.059l7.6,4.059v8.109l-7.6,4.057L23.82,49.418z M43.393,49.418v-8.109l7.598-4.059l7.6,4.059v8.109
				l-7.6,4.057L43.393,49.418z M60.957,37.063l-0.355,0.187l-0.35-0.187H41.383l-0.354,0.187l-0.352-0.187H21.81l-0.354,0.187
				l-0.354-0.187h-7.181c-0.285,0-0.518,0.216-0.518,0.48v0.54l6.039,3.225v8.109l-6.039,3.225v17.889l6.039,3.224v8.112
				l-6.039,3.224v17.891l6.039,3.224v3.658h4.377v-3.658l7.596-4.057l7.6,4.057v3.658h4.377v-3.658l7.598-4.057l7.6,4.057v3.658
				h4.375v-3.658l1.662-0.889v-5.315l-4.025,2.147l-7.6-4.055V89.98l7.6-4.056l4.025,2.148v-5.316l-1.662-0.889v-8.112l1.662-0.886
				v-5.32l-4.025,2.151l-7.6-4.056v-8.112l7.6-4.058l4.025,2.147v-5.317l-1.662-0.887v-8.109l1.662-0.889v-2.876
				c0-0.264-0.232-0.48-0.52-0.48H60.957z"/>
		</defs>
		<clipPath id="SVGID_8_">
			<use xlink:href="#SVGID_7_"  overflow="visible"/>
		</clipPath>
		
			<radialGradient id="SVGID_9_" cx="-1001.3101" cy="1380.3203" r="1.5428" gradientTransform="matrix(0 19.9009 21.5245 0 -29671.6895 20000.3867)" gradientUnits="userSpaceOnUse">
			<stop  offset="0" style="stop-color:#A1A0A0"/>
			<stop  offset="1" style="stop-color:#262727"/>
		</radialGradient>
		<rect x="13.404" y="37.063" clip-path="url(#SVGID_8_)" fill="url(#SVGID_9_)" width="51.223" height="72.8"/>
	</g>
	<g>
		<defs>
			<path id="SVGID_10_" d="M23.82,244.117v-8.114l7.596-4.057l7.6,4.057v8.114l-7.6,4.057L23.82,244.117z M43.393,244.117v-8.114
				l7.598-4.057l7.6,4.057v8.114l-7.6,4.057L43.393,244.117z M13.857,227.892v-8.114l7.599-4.054l7.598,4.054v8.114l-7.598,4.055
				L13.857,227.892z M33.431,227.892v-8.114l7.598-4.054l7.6,4.054v8.114l-7.6,4.055L33.431,227.892z M23.82,211.667v-8.111
				l7.596-4.058l7.6,4.058v8.111l-7.6,4.057L23.82,211.667z M43.393,211.667v-8.111l7.598-4.058l7.6,4.058v8.111l-7.6,4.057
				L43.393,211.667z M46.342,186.106l2.287,1.224v8.111l-7.6,4.057l-7.598-4.057v-8.111l2.289-1.224h-8.955l2.289,1.224v8.111
				l-7.598,4.057l-7.599-4.057v-8.111l2.291-1.224h-2.744v14.224l6.039,3.226v8.111l-6.039,3.223v17.89l6.039,3.224v8.114
				l-6.039,3.223v11.09c0,0.122,0.061,0.223,0.137,0.307c0.082,0.077,0.195,0.132,0.316,0.147v-6.652l7.599-4.058l7.598,4.058v6.678
				h4.377v-6.678l7.598-4.058l7.6,4.058v6.678h4.373v-6.678l7.6-4.058l4.025,2.146v-5.313l-1.662-0.89v-8.114l1.662-0.885V229.8
				l-4.025,2.146l-7.6-4.055v-8.114l7.6-4.054l4.025,2.147v-5.316l-1.662-0.888v-8.111l1.662-0.89v-5.314l-4.025,2.146l-7.6-4.057
				v-8.111l2.289-1.224H46.342z"/>
		</defs>
		<clipPath id="SVGID_11_">
			<use xlink:href="#SVGID_10_"  overflow="visible"/>
		</clipPath>
		
			<radialGradient id="SVGID_12_" cx="-998.6729" cy="1385.1494" r="1.5429" gradientTransform="matrix(0 19.9009 17.2196 0 -23812.7012 20096.9648)" gradientUnits="userSpaceOnUse">
			<stop  offset="0" style="stop-color:#A1A0A0"/>
			<stop  offset="1" style="stop-color:#262727"/>
		</radialGradient>
		<rect x="13.404" y="186.106" clip-path="url(#SVGID_11_)" fill="url(#SVGID_12_)" width="51.223" height="72.803"/>
	</g>
	<g>
		<defs>
			<rect id="SVGID_13_" x="13.404" y="105.304" width="51.951" height="9.123"/>
		</defs>
		<clipPath id="SVGID_14_">
			<use xlink:href="#SVGID_13_"  overflow="visible"/>
		</clipPath>
		
			<linearGradient id="SVGID_15_" gradientUnits="userSpaceOnUse" x1="-965.6992" y1="1379.9531" x2="-964.0371" y2="1379.9531" gradientTransform="matrix(31.2569 0 0 -31.2569 30198.1777 43242.8984)">
			<stop  offset="0" style="stop-color:#040000"/>
			<stop  offset="0.0589" style="stop-color:#181515"/>
			<stop  offset="0.1353" style="stop-color:#2B292A"/>
			<stop  offset="0.2221" style="stop-color:#383738"/>
			<stop  offset="0.327" style="stop-color:#403F40"/>
			<stop  offset="0.5" style="stop-color:#424243"/>
			<stop  offset="0.673" style="stop-color:#403F40"/>
			<stop  offset="0.7779" style="stop-color:#383738"/>
			<stop  offset="0.8647" style="stop-color:#2B292A"/>
			<stop  offset="0.9411" style="stop-color:#181515"/>
			<stop  offset="1" style="stop-color:#040000"/>
		</linearGradient>
		<rect x="13.404" y="105.304" clip-path="url(#SVGID_14_)" fill="url(#SVGID_15_)" width="51.951" height="9.123"/>
	</g>
	<g>
		<defs>
			<rect id="SVGID_16_" x="13.404" y="181.549" width="51.951" height="9.121"/>
		</defs>
		<clipPath id="SVGID_17_">
			<use xlink:href="#SVGID_16_"  overflow="visible"/>
		</clipPath>
		
			<linearGradient id="SVGID_18_" gradientUnits="userSpaceOnUse" x1="-965.6992" y1="1379.0977" x2="-964.0371" y2="1379.0977" gradientTransform="matrix(31.2569 0 0 -31.2569 30198.1777 43292.4297)">
			<stop  offset="0" style="stop-color:#040000"/>
			<stop  offset="0.0589" style="stop-color:#181515"/>
			<stop  offset="0.1353" style="stop-color:#2B292A"/>
			<stop  offset="0.2221" style="stop-color:#383738"/>
			<stop  offset="0.327" style="stop-color:#403F40"/>
			<stop  offset="0.5" style="stop-color:#424243"/>
			<stop  offset="0.673" style="stop-color:#403F40"/>
			<stop  offset="0.7779" style="stop-color:#383738"/>
			<stop  offset="0.8647" style="stop-color:#2B292A"/>
			<stop  offset="0.9411" style="stop-color:#181515"/>
			<stop  offset="1" style="stop-color:#040000"/>
		</linearGradient>
		<rect x="13.404" y="181.549" clip-path="url(#SVGID_17_)" fill="url(#SVGID_18_)" width="51.951" height="9.121"/>
	</g>
	
		<rect x="13.404" y="181.547" fill="none" stroke="#202121" stroke-width="0.283" stroke-miterlimit="10" width="51.951" height="9.123"/>
</g>
<linearGradient id="SVGID_19_" gradientUnits="userSpaceOnUse" x1="39.0171" y1="284.9717" x2="39.0171" y2="323.9292">
	<stop  offset="0" style="stop-color:#58585B"/>
	<stop  offset="0.0246" style="stop-color:#66666A"/>
	<stop  offset="0.0347" style="stop-color:#636367"/>
	<stop  offset="0.1197" style="stop-color:#4E4E51"/>
	<stop  offset="0.2192" style="stop-color:#3D3D40"/>
	<stop  offset="0.3432" style="stop-color:#323235"/>
	<stop  offset="0.5171" style="stop-color:#2B2B2E"/>
	<stop  offset="1" style="stop-color:#29292C"/>
</linearGradient>
<rect x="0.672" y="282.923" fill="url(#SVGID_19_)" width="76.691" height="42.452"/>
<path fill="#BABABA" d="M73.932,322.361c0,0.851-0.746,1.537-1.662,1.537H4.816c-0.916,0-1.662-0.687-1.662-1.537v-20.998
	c0-0.848,0.746-1.538,1.662-1.538H72.27c0.916,0,1.662,0.69,1.662,1.538V322.361z"/>
<g>
	<path fill="#E4FF92" stroke="#2A5618" stroke-miterlimit="10" d="M8.932,294.469c0-1.933,1.697-3.5,3.787-3.5
		c2.096,0,3.787,1.567,3.787,3.5c0,1.936-1.691,3.504-3.787,3.504C10.629,297.973,8.932,296.404,8.932,294.469z"/>
	<rect x="7.314" y="304.548" fill="#515151" width="0.652" height="15.11"/>
	<rect x="9.076" y="304.548" fill="#515151" width="0.652" height="15.11"/>
	<rect x="10.432" y="304.548" fill="#515151" width="0.652" height="15.11"/>
	<rect x="11.574" y="304.548" fill="#515151" width="0.652" height="15.11"/>
	<rect x="16.974" y="304.548" fill="#515151" width="0.652" height="15.11"/>
	<rect x="22.789" y="304.548" fill="#515151" width="0.652" height="15.11"/>
	<rect x="24.107" y="304.548" fill="#515151" width="0.65" height="15.11"/>
	<rect x="25.421" y="304.548" fill="#515151" width="0.652" height="15.11"/>
	<rect x="26.74" y="304.548" fill="#515151" width="0.652" height="15.11"/>
	<rect x="21.47" y="304.548" fill="#515151" width="0.652" height="15.11"/>
	<rect x="29.748" y="304.548" fill="#515151" width="0.654" height="15.11"/>
	<rect x="31.064" y="304.548" fill="#515151" width="0.654" height="15.11"/>
	<rect x="32.382" y="304.548" fill="#515151" width="0.65" height="15.11"/>
	<rect x="33.699" y="304.548" fill="#515151" width="0.652" height="15.11"/>
	<rect x="28.431" y="304.548" fill="#515151" width="0.652" height="15.11"/>
	<rect x="35.669" y="304.548" fill="#515151" width="0.652" height="15.11"/>
	<rect x="38.302" y="304.548" fill="#515151" width="0.652" height="15.11"/>
	<rect x="39.621" y="304.548" fill="#515151" width="0.653" height="15.11"/>
	<rect x="34.351" y="304.548" fill="#515151" width="0.652" height="15.11"/>
	<rect x="48.432" y="304.548" fill="#515151" width="0.652" height="15.11"/>
	<rect x="49.75" y="304.548" fill="#515151" width="0.652" height="15.11"/>
	<rect x="51.064" y="304.548" fill="#515151" width="0.652" height="15.11"/>
	<rect x="52.383" y="304.548" fill="#515151" width="0.652" height="15.11"/>
	<rect x="62.4" y="304.548" fill="#515151" width="0.652" height="15.11"/>
	<rect x="58.215" y="304.548" fill="#515151" width="0.652" height="15.11"/>
	<rect x="65.098" y="304.548" fill="#515151" width="0.652" height="15.11"/>
	<rect x="66.316" y="304.548" fill="#515151" width="0.652" height="15.11"/>
	<rect x="67.701" y="304.548" fill="#515151" width="0.652" height="15.11"/>
	<rect x="47.113" y="304.548" fill="#515151" width="0.654" height="15.11"/>
	<rect x="42.838" y="304.548" fill="#515151" width="0.652" height="15.11"/>
	<rect x="45.471" y="304.548" fill="#515151" width="0.652" height="15.11"/>
	<rect x="46.787" y="304.548" fill="#515151" width="0.654" height="15.11"/>
	<rect x="41.52" y="304.548" fill="#515151" width="0.652" height="15.11"/>
	<rect x="14.201" y="304.548" fill="#515151" width="0.652" height="15.11"/>
	<linearGradient id="SVGID_20_" gradientUnits="userSpaceOnUse" x1="38.6812" y1="4.4014" x2="38.6811" y2="247.8347">
		<stop  offset="0" style="stop-color:#58585B"/>
		<stop  offset="0.0246" style="stop-color:#66666A"/>
		<stop  offset="0.0347" style="stop-color:#636367"/>
		<stop  offset="0.1197" style="stop-color:#4E4E51"/>
		<stop  offset="0.2192" style="stop-color:#3D3D40"/>
		<stop  offset="0.3432" style="stop-color:#323235"/>
		<stop  offset="0.5171" style="stop-color:#2B2B2E"/>
		<stop  offset="1" style="stop-color:#29292C"/>
	</linearGradient>
	<path fill="url(#SVGID_20_)" d="M0,246.708V1.296h77.363c0,0-2.018,203.587-20.855,245.235L0,246.708z"/>
	<path fill="#191919" d="M67.572,1.296c0,0-0.83,102.468-55.678,168.598h4.712C71.453,103.764,72.283,1.296,72.283,1.296H67.572z"/>
	<linearGradient id="SVGID_21_" gradientUnits="userSpaceOnUse" x1="35.3716" y1="3.4297" x2="35.3716" y2="170.6681">
		<stop  offset="0" style="stop-color:#58585B"/>
		<stop  offset="0.0837" style="stop-color:#66666A"/>
		<stop  offset="0.1258" style="stop-color:#5D5D60"/>
		<stop  offset="0.2246" style="stop-color:#4D4D4F"/>
		<stop  offset="0.3477" style="stop-color:#414144"/>
		<stop  offset="0.5205" style="stop-color:#3B3B3D"/>
		<stop  offset="1" style="stop-color:#39393B"/>
	</linearGradient>
	<path fill="url(#SVGID_21_)" d="M15.066,169.894C69.914,103.764,70.744,1.296,70.744,1.296H0v168.598H15.066z"/>
	<linearGradient id="SVGID_22_" gradientUnits="userSpaceOnUse" x1="37.2271" y1="10.5972" x2="37.2271" y2="24.5385">
		<stop  offset="0" style="stop-color:#58585B"/>
		<stop  offset="0.0246" style="stop-color:#66666A"/>
		<stop  offset="0.0347" style="stop-color:#636367"/>
		<stop  offset="0.1197" style="stop-color:#4E4E51"/>
		<stop  offset="0.2192" style="stop-color:#3D3D40"/>
		<stop  offset="0.3432" style="stop-color:#323235"/>
		<stop  offset="0.5171" style="stop-color:#2B2B2E"/>
		<stop  offset="1" style="stop-color:#29292C"/>
	</linearGradient>
	<path fill="url(#SVGID_22_)" d="M57.727,23.233c0,0.686-0.744,1.241-1.662,1.241H18.39c-0.916,0-1.662-0.555-1.662-1.241V11.659
		c0-0.685,0.746-1.24,1.662-1.24h37.674c0.918,0,1.662,0.555,1.662,1.24V23.233z"/>
	<rect y="36.016" width="76.684" height="1.047"/>
	<g>
		<path fill="#EEC369" stroke="#000000" stroke-miterlimit="10" d="M1.51,84.444h58.385c2.916-12.603,4.92-24.39,6.293-34.576H1.51
			V84.444z"/>
		<text transform="matrix(1.0347 0 0 1 12.3467 64.6128)" font-family="'MicrosoftYaHei-Bold'" font-size="15.3667">2 TB</text>
		<text transform="matrix(1.0347 0 0 1 12.3467 81.7725)" font-family="'MicrosoftYaHei-Bold'" font-size="15.3667">7.2K</text>
	</g>
</g>
</svg>
