<?xml version="1.0" encoding="utf-8"?>
<!-- Generator: Adobe Illustrator 16.0.0, SVG Export Plug-In . SVG Version: 6.00 Build 0)  -->
<!DOCTYPE svg PUBLIC "-//W3C//DTD SVG 1.1//EN" "http://www.w3.org/Graphics/SVG/1.1/DTD/svg11.dtd">
<svg version="1.1" id="图层_1" xmlns="http://www.w3.org/2000/svg" xmlns:xlink="http://www.w3.org/1999/xlink" x="0px" y="0px"
	 width="570.82px" height="72.7px" viewBox="0 0 570.82 72.7" enable-background="new 0 0 570.82 72.7" xml:space="preserve">
<g>
	<rect fill="#3F3F3F" width="570.82" height="72.7"/>
	<g>
		<path fill="#FAFBFD" d="M415.097,21.183l-1.351-0.808v0.601h-6.038h-0.538h-0.484l1.369-1.37c0.126-0.125,0.297-0.195,0.471-0.195
			h1.211c0.111,0.249,0.361,0.425,0.652,0.425c0.393,0,0.711-0.316,0.711-0.71c0-0.392-0.318-0.71-0.711-0.71
			c-0.348,0-0.636,0.25-0.699,0.58h-1.164c-0.283,0-0.561,0.116-0.764,0.317l-1.473,1.472c-0.123,0.123-0.287,0.191-0.46,0.191
			h-0.181h-0.479c-0.098-0.537-0.568-0.943-1.13-0.943c-0.638,0-1.153,0.513-1.153,1.149s0.516,1.149,1.153,1.149
			c0.562,0,1.032-0.407,1.13-0.943h0.479h0.181h1.341h0.538c0.174,0,0.335,0.068,0.456,0.189l1.413,1.412
			c0.204,0.203,0.475,0.314,0.761,0.314h1.021v0.541h1.349v-1.349h-1.349v0.392h-1.021c-0.175,0-0.342-0.068-0.466-0.193
			l-1.31-1.306h5.184v0.6L415.097,21.183z"/>
	</g>
	<g>
		<path fill="#FAFBFD" d="M475.216,21.183l-1.35-0.808v0.601h-6.04h-0.536h-0.484l1.369-1.37c0.125-0.125,0.297-0.195,0.471-0.195
			h1.211c0.109,0.249,0.361,0.425,0.652,0.425c0.393,0,0.711-0.316,0.711-0.71c0-0.392-0.318-0.71-0.711-0.71
			c-0.35,0-0.639,0.25-0.699,0.58h-1.164c-0.283,0-0.561,0.116-0.764,0.317l-1.473,1.472c-0.123,0.123-0.287,0.191-0.462,0.191
			h-0.179h-0.479c-0.098-0.537-0.568-0.943-1.131-0.943c-0.637,0-1.152,0.513-1.152,1.149s0.516,1.149,1.152,1.149
			c0.563,0,1.033-0.407,1.131-0.943h0.479h0.179h1.343h0.536c0.175,0,0.337,0.068,0.458,0.189l1.412,1.412
			c0.203,0.203,0.475,0.314,0.762,0.314h1.02v0.541h1.35v-1.349h-1.35v0.392h-1.02c-0.176,0-0.344-0.068-0.469-0.193l-1.307-1.306
			h5.184v0.6L475.216,21.183z"/>
	</g>
	<path fill="#303030" stroke="#161616" stroke-miterlimit="10" d="M375.016,55.109c0,0.662-0.537,1.2-1.203,1.2H33.523
		c-0.665,0-1.204-0.538-1.204-1.2v-36.88c0-0.664,0.539-1.203,1.204-1.203h340.29c0.666,0,1.203,0.539,1.203,1.203V55.109z"/>
	<g>
		<path fill="#565656" d="M202.098,22.092h-10.265l-0.336,1.767h2.421h0.486h4.426c0,0,0.297,5.018-2.675,5.646h-2.948l0.502-4.531
			h-2.44l-0.758,6.019h5.792C203.14,29.897,202.098,22.092,202.098,22.092z"/>
		<path fill="#565656" d="M223.645,22.092h-10.266l-0.338,1.767h2.421h0.488h4.423c0,0,0.298,5.018-2.672,5.646h-2.948l0.501-4.531
			h-2.44l-0.762,6.019h5.799C224.684,29.897,223.645,22.092,223.645,22.092z"/>
		<polygon fill="#565656" points="204.473,22.143 205.752,31.044 207.459,31.044 213.25,22.143 210.448,22.143 208.07,26.22 
			206.85,26.287 206.057,22.143 		"/>
		<rect x="200.631" y="22.143" fill="#565656" width="4.096" height="1.76"/>
	</g>
	<path fill="#565656" d="M205.874,34.485c-9.222,0-16.698,1.099-16.698,2.454c0,1.351,7.476,2.448,16.698,2.448
		c9.218,0,16.693-1.098,16.693-2.448C222.566,35.583,215.091,34.485,205.874,34.485z M206.344,37.344
		c-1.734,0-3.143-0.309-3.143-0.686c0-0.379,1.409-0.688,3.143-0.688c1.732,0,3.14,0.31,3.14,0.688
		C209.483,37.035,208.076,37.344,206.344,37.344z"/>
	<path fill="#565656" d="M189.229,39.813v7.186h33.285v-7.186H189.229z M196.945,45.901h-0.321h-0.323v-3.88h-0.004l-1.377,3.88
		h-0.319h-0.32l-1.382-3.868h-0.002v3.868h-0.321h-0.322v-4.587h0.476h0.477l1.398,3.901l1.387-3.901h0.475h0.478V45.901z
		 M204.095,44.219c0,0.565-0.17,1.008-0.51,1.327c-0.34,0.321-0.811,0.479-1.415,0.479c-0.627,0-1.108-0.154-1.436-0.458
		c-0.327-0.31-0.49-0.759-0.49-1.348v-2.904h0.328h0.334v2.856c0,0.427,0.107,0.752,0.323,0.974c0.214,0.22,0.529,0.331,0.941,0.331
		s0.725-0.111,0.94-0.331c0.212-0.222,0.322-0.547,0.322-0.974v-2.856h0.328h0.334V44.219z M210.164,45.626v0.275h-3.142v-4.587
		h0.331h0.332v4.036h2.48V45.626z M215.946,41.588v0.276h-1.653v4.037h-0.328h-0.334v-4.037h-1.654v-0.276v-0.273h3.969V41.588z
		 M219.487,45.901h-0.329h-0.334v-4.587h0.331h0.332V45.901z"/>
	<g>
		<path fill="#565656" d="M193.334,48.179h0.204h1.187c0.318,0,0.547,0.068,0.69,0.207c0.14,0.135,0.187,0.336,0.14,0.603
			c-0.046,0.262-0.168,0.465-0.367,0.611c-0.049,0.04-0.104,0.072-0.158,0.1l0.063,0.034c0.164,0.103,0.227,0.276,0.189,0.524
			l-0.08,0.545c-0.014,0.089-0.012,0.152,0,0.193c0.014,0.039,0.047,0.073,0.102,0.103l-0.012,0.063h-0.496
			c-0.008-0.024-0.008-0.09,0-0.191c0.006-0.104,0.02-0.216,0.035-0.344l0.033-0.236c0.027-0.186,0.006-0.317-0.066-0.395
			c-0.072-0.082-0.205-0.121-0.396-0.121h-0.96l-0.227,1.29h-0.201h-0.203L193.334,48.179z M193.502,49.526h1
			c0.188,0,0.332-0.041,0.432-0.123c0.102-0.082,0.168-0.213,0.199-0.39c0.032-0.174,0.006-0.299-0.07-0.379
			c-0.076-0.077-0.215-0.118-0.412-0.118h-0.971L193.502,49.526z"/>
		<path fill="#565656" d="M195.807,51.165l0.527-2.986h2.186l-0.032,0.178l-0.031,0.18h-1.78l-0.16,0.912h1.626l-0.031,0.178
			l-0.034,0.179h-1.626l-0.176,1.002h1.802l-0.032,0.181l-0.031,0.178H195.807z"/>
		<path fill="#565656" d="M201.256,50.064c-0.115,0.367-0.309,0.658-0.576,0.868c-0.268,0.208-0.578,0.312-0.931,0.312
			c-0.413,0-0.717-0.141-0.911-0.426c-0.195-0.282-0.25-0.663-0.164-1.146c0.084-0.481,0.279-0.862,0.584-1.149
			c0.304-0.282,0.669-0.424,1.097-0.424c0.338,0,0.598,0.085,0.785,0.258c0.186,0.174,0.273,0.413,0.266,0.716h-0.391
			c-0.004-0.196-0.068-0.351-0.195-0.458c-0.126-0.105-0.305-0.16-0.533-0.16c-0.299,0-0.559,0.109-0.773,0.329
			c-0.217,0.221-0.359,0.518-0.424,0.889c-0.07,0.395-0.041,0.697,0.088,0.907c0.127,0.205,0.35,0.31,0.66,0.31
			c0.234,0,0.438-0.072,0.617-0.214c0.178-0.146,0.314-0.349,0.412-0.61H201.256z"/>
		<path fill="#565656" d="M201.861,50.812c-0.219-0.289-0.285-0.668-0.203-1.14c0.084-0.472,0.285-0.853,0.606-1.14
			c0.319-0.292,0.696-0.434,1.131-0.434c0.434,0,0.761,0.142,0.978,0.434c0.217,0.287,0.283,0.668,0.201,1.14
			c-0.083,0.472-0.285,0.851-0.604,1.14c-0.318,0.29-0.695,0.433-1.131,0.433C202.402,51.244,202.079,51.102,201.861,50.812z
			 M203.714,50.554c0.231-0.226,0.379-0.517,0.442-0.882c0.064-0.364,0.021-0.658-0.13-0.882c-0.152-0.226-0.385-0.336-0.695-0.336
			s-0.582,0.11-0.813,0.336c-0.229,0.224-0.379,0.518-0.441,0.882c-0.065,0.365-0.022,0.656,0.13,0.882
			c0.15,0.222,0.384,0.335,0.694,0.335C203.214,50.889,203.483,50.775,203.714,50.554z"/>
		<path fill="#565656" d="M205.367,48.179h0.2h1.189c0.316,0,0.547,0.068,0.688,0.207c0.14,0.135,0.187,0.336,0.14,0.603
			c-0.044,0.262-0.168,0.465-0.365,0.611c-0.051,0.04-0.104,0.072-0.158,0.1l0.062,0.034c0.162,0.103,0.225,0.276,0.188,0.524
			l-0.078,0.545c-0.014,0.089-0.014,0.152,0,0.193c0.014,0.039,0.047,0.073,0.1,0.103l-0.012,0.063h-0.498
			c-0.006-0.024-0.006-0.09,0.004-0.191c0.006-0.104,0.018-0.216,0.036-0.344l0.031-0.236c0.027-0.186,0.006-0.317-0.064-0.395
			c-0.072-0.082-0.205-0.121-0.398-0.121h-0.958l-0.229,1.29h-0.199h-0.203L205.367,48.179z M205.532,49.526h1.001
			c0.186,0,0.331-0.041,0.432-0.123c0.102-0.082,0.168-0.213,0.199-0.39c0.03-0.174,0.006-0.299-0.072-0.379
			c-0.076-0.077-0.215-0.118-0.412-0.118h-0.971L205.532,49.526z"/>
		<path fill="#565656" d="M208.344,48.179h0.201h1.027c0.378,0,0.659,0.133,0.835,0.403c0.177,0.271,0.226,0.634,0.145,1.09
			c-0.081,0.458-0.258,0.816-0.538,1.088c-0.276,0.271-0.612,0.405-1,0.405h-0.995h-0.201L208.344,48.179z M208.282,50.818h0.741
			c0.291,0,0.531-0.1,0.724-0.299c0.191-0.198,0.323-0.482,0.385-0.848c0.068-0.364,0.04-0.649-0.076-0.849
			c-0.118-0.202-0.315-0.301-0.594-0.301h-0.773L208.282,50.818z"/>
		<path fill="#565656" d="M211.336,51.165l-0.256-2.986h0.219h0.218l0.116,2.361c0.004,0.039,0.006,0.073,0.006,0.11
			c-0.002,0.038-0.002,0.063-0.006,0.077l0,0c0.004-0.019,0.012-0.046,0.025-0.08c0.014-0.038,0.028-0.075,0.043-0.107l1.049-2.361
			h0.227h0.228l0.213,2.348c0.004,0.034,0.006,0.073,0.008,0.112c0,0.038-0.002,0.065-0.004,0.082c0-0.016,0.007-0.041,0.021-0.078
			c0.014-0.041,0.028-0.075,0.045-0.116l0.954-2.348h0.218h0.216l-1.309,2.986h-0.219h-0.216l-0.241-2.312
			c-0.004-0.041-0.005-0.08-0.007-0.116c-0.002-0.037,0-0.064,0.002-0.078l0,0c-0.004,0.017-0.012,0.044-0.026,0.083
			c-0.014,0.036-0.029,0.072-0.046,0.111l-1.042,2.312h-0.217H211.336z"/>
		<path fill="#565656" d="M215.31,48.179h0.201h1.19c0.317,0,0.545,0.068,0.688,0.207c0.141,0.135,0.188,0.336,0.141,0.603
			c-0.045,0.262-0.167,0.465-0.365,0.611c-0.051,0.04-0.104,0.072-0.158,0.1l0.061,0.034c0.166,0.103,0.228,0.276,0.189,0.524
			l-0.078,0.545c-0.014,0.089-0.014,0.152,0,0.193c0.013,0.039,0.047,0.073,0.1,0.103l-0.012,0.063h-0.498
			c-0.006-0.024-0.006-0.09,0.004-0.191c0.006-0.104,0.017-0.216,0.035-0.344l0.031-0.236c0.028-0.186,0.006-0.317-0.066-0.395
			c-0.071-0.082-0.203-0.121-0.396-0.121h-0.962l-0.226,1.29h-0.201h-0.204L215.31,48.179z M215.478,49.526h0.999
			c0.188,0,0.332-0.041,0.432-0.123c0.104-0.082,0.168-0.213,0.199-0.39c0.031-0.174,0.008-0.299-0.071-0.379
			c-0.076-0.077-0.214-0.118-0.412-0.118h-0.97L215.478,49.526z"/>
	</g>
	<path fill="#565656" d="M82.174,24.489H55.061c-0.938,0-1.696,0.756-1.696,1.693v16.223c0,0.933,0.758,1.692,1.696,1.692h27.113
		c0.936,0,1.696-0.76,1.696-1.692V26.182C83.87,25.245,83.109,24.489,82.174,24.489z M66.078,33.798c0,0-0.352,1.164-1.446,1.533
		l1.2,4.073h-1.766l-1.27-4.073h-1.642c0,0-0.176,0.072-0.354,0.3v3.772h-1.694v-3.772c0,0,0.141-1.164,1.182-1.744h3.849
		c0,0,0.758-1.763,0-2.963h-4.855V29.18h5.086c0,0,1.27,0.316,1.709,1.762V33.798z M78.127,37.996
		c-0.451,1.164-1.325,1.242-1.325,1.242h-2.409c-0.927-0.238-1.165-1.164-1.165-1.164c-0.531,1.059-1.35,1.164-1.35,1.164h-2.437
		c-0.98-0.371-1.245-1.588-1.245-1.588v-8.357h1.165v8.253h3.097v-8.253h1.325v8.253h3.045v-8.253h1.298V37.996z"/>
	<g>
		<path fill="#565656" d="M51.077,46.661h0.242h1.237c0.458,0,0.819,0.137,1.09,0.41c0.27,0.273,0.404,0.641,0.404,1.104
			c0,0.457-0.138,0.824-0.414,1.096c-0.277,0.273-0.65,0.41-1.12,0.41h-1.198h-0.242V46.661z M51.566,49.332h0.889
			c0.35,0,0.62-0.101,0.809-0.303c0.191-0.203,0.285-0.488,0.285-0.854c0-0.374-0.09-0.659-0.273-0.859
			c-0.184-0.203-0.442-0.305-0.78-0.305h-0.93V49.332z"/>
		<path fill="#565656" d="M54.391,46.661h0.27h0.273l1.03,2.582h0.002l1.027-2.582h0.27h0.27l-1.309,3.02h-0.262H55.7L54.391,46.661
			z"/>
		<path fill="#565656" d="M58.039,46.661h0.242h1.237c0.457,0,0.82,0.137,1.09,0.41c0.27,0.273,0.405,0.641,0.405,1.104
			c0,0.457-0.139,0.824-0.415,1.096c-0.278,0.273-0.651,0.41-1.12,0.41h-1.198h-0.242V46.661z M58.527,49.332h0.889
			c0.35,0,0.62-0.101,0.811-0.303c0.189-0.203,0.283-0.488,0.283-0.854c0-0.374-0.09-0.659-0.274-0.859
			c-0.184-0.203-0.441-0.305-0.777-0.305h-0.932V49.332z"/>
		<path fill="#565656" d="M62.532,48.776h-1.084v-0.311h1.084v-0.909h0.369v0.909h1.085v0.311h-1.085v0.909h-0.369V48.776z"/>
		<path fill="#565656" d="M64.621,46.661h0.24h1.432c0.381,0,0.672,0.07,0.871,0.209s0.297,0.344,0.297,0.611
			c0,0.266-0.102,0.472-0.309,0.62c-0.053,0.038-0.109,0.068-0.169,0.098l0.082,0.036c0.217,0.101,0.332,0.281,0.34,0.529l0.02,0.55
			c0.004,0.091,0.017,0.157,0.041,0.195c0.025,0.041,0.073,0.075,0.143,0.104v0.065h-0.6c-0.011-0.024-0.025-0.091-0.039-0.193
			c-0.014-0.104-0.023-0.219-0.029-0.349l-0.01-0.235c-0.008-0.189-0.061-0.324-0.165-0.403c-0.104-0.082-0.271-0.121-0.506-0.121
			h-1.154v1.304h-0.241h-0.244V46.661z M65.106,48.026h1.205c0.226,0,0.39-0.043,0.493-0.125c0.107-0.082,0.158-0.213,0.158-0.395
			c0-0.174-0.055-0.301-0.164-0.381c-0.111-0.08-0.286-0.121-0.524-0.121h-1.167V48.026z"/>
		<path fill="#565656" d="M69.19,49.74c-0.371,0-0.662-0.098-0.873-0.296c-0.213-0.196-0.319-0.472-0.319-0.818
			c0-0.365,0.114-0.662,0.338-0.879c0.223-0.221,0.524-0.33,0.902-0.33c0.342,0,0.62,0.107,0.831,0.32
			c0.209,0.213,0.315,0.496,0.315,0.843l-0.004,0.13h-1.913c0.017,0.221,0.076,0.386,0.177,0.502
			c0.125,0.141,0.321,0.209,0.586,0.209c0.17,0,0.317-0.039,0.442-0.12c0.125-0.078,0.201-0.179,0.231-0.302h0.434
			c-0.065,0.24-0.195,0.424-0.391,0.552C69.752,49.677,69.5,49.74,69.19,49.74z M69.925,48.413
			c-0.012-0.202-0.072-0.361-0.179-0.476c-0.12-0.124-0.295-0.19-0.524-0.19c-0.232,0-0.417,0.074-0.556,0.22
			c-0.107,0.114-0.174,0.263-0.197,0.446H69.925z"/>
		<path fill="#565656" d="M71.607,49.681l-0.94-3.02h0.26h0.266l0.641,2.387c0.011,0.038,0.019,0.077,0.029,0.113
			c0.006,0.037,0.01,0.062,0.01,0.078h-0.002c0-0.019,0.006-0.046,0.013-0.082c0.008-0.037,0.018-0.073,0.03-0.109l0.762-2.387
			h0.274h0.273l0.756,2.375c0.012,0.034,0.023,0.075,0.031,0.111c0.01,0.041,0.012,0.068,0.012,0.085l0,0
			c0-0.015,0.004-0.041,0.012-0.082c0.008-0.037,0.018-0.075,0.027-0.114l0.649-2.375h0.262h0.262l-0.939,3.02h-0.262H73.77
			l-0.781-2.334c-0.014-0.041-0.025-0.08-0.035-0.119c-0.01-0.035-0.014-0.065-0.014-0.079h-0.002c0,0.017-0.004,0.046-0.012,0.085
			c-0.007,0.036-0.017,0.074-0.031,0.113l-0.763,2.334H71.87H71.607z"/>
		<path fill="#565656" d="M75.703,47.483h0.207h0.211v0.377c0.037-0.061,0.078-0.113,0.119-0.16
			c0.168-0.189,0.374-0.283,0.616-0.283c0.041,0,0.082,0.005,0.125,0.021v0.375h-0.091c-0.238,0-0.42,0.058-0.551,0.178
			c-0.128,0.121-0.195,0.293-0.195,0.514v1.176h-0.22h-0.219V47.483z"/>
		<path fill="#565656" d="M77.318,46.661h0.451v0.419h-0.451V46.661z M77.326,47.483h0.219h0.22v2.197h-0.22h-0.219V47.483z"/>
		<path fill="#565656" d="M79.385,49.679c-0.15,0.019-0.259,0.029-0.328,0.029c-0.193,0-0.328-0.038-0.407-0.108
			c-0.08-0.071-0.121-0.192-0.121-0.367v-1.446h-0.362v-0.303h0.362v-0.617h0.442v0.617h0.414v0.303h-0.414v1.446
			c0,0.052,0.023,0.089,0.07,0.118c0.047,0.027,0.107,0.045,0.19,0.045h0.154V49.679z"/>
		<path fill="#565656" d="M80.505,49.74c-0.256,0-0.459-0.057-0.608-0.173c-0.15-0.114-0.225-0.27-0.225-0.468
			c0-0.196,0.068-0.354,0.21-0.47c0.141-0.116,0.346-0.189,0.618-0.217l0.6-0.063c0.049-0.005,0.094-0.014,0.139-0.022
			c0.057-0.012,0.102-0.034,0.132-0.073c0.032-0.034,0.047-0.082,0.047-0.139v-0.017c0-0.12-0.053-0.211-0.16-0.277
			c-0.105-0.066-0.252-0.101-0.442-0.101c-0.181,0-0.322,0.038-0.425,0.106c-0.102,0.069-0.163,0.178-0.184,0.315h-0.407
			c0.02-0.241,0.121-0.422,0.303-0.545c0.18-0.12,0.44-0.181,0.778-0.181c0.318,0,0.559,0.058,0.727,0.174
			c0.167,0.116,0.25,0.285,0.25,0.508v1.206c0,0.037,0.014,0.066,0.04,0.091c0.027,0.021,0.064,0.032,0.109,0.032
			c0.014,0,0.034-0.002,0.059-0.005c0.025-0.002,0.053-0.006,0.082-0.011v0.267c-0.043,0.014-0.088,0.022-0.135,0.032
			c-0.049,0.009-0.088,0.014-0.119,0.014c-0.168,0-0.289-0.039-0.364-0.116c-0.049-0.05-0.084-0.123-0.105-0.213
			c-0.031,0.03-0.068,0.064-0.114,0.096C81.093,49.656,80.823,49.74,80.505,49.74z M81.419,48.81v-0.238
			c-0.082,0.033-0.173,0.055-0.273,0.068l-0.402,0.048c-0.213,0.024-0.368,0.067-0.465,0.125s-0.146,0.137-0.146,0.237
			c0,0.123,0.04,0.221,0.12,0.282c0.08,0.071,0.193,0.103,0.34,0.103c0.232,0,0.427-0.053,0.586-0.159
			c0.109-0.073,0.183-0.155,0.219-0.251c0.008-0.016,0.012-0.045,0.015-0.084C81.415,48.901,81.419,48.858,81.419,48.81z"/>
		<path fill="#565656" d="M82.568,46.661h0.221h0.221v1.107c0.192-0.236,0.442-0.354,0.745-0.352c0.344,0,0.615,0.099,0.814,0.299
			c0.202,0.196,0.301,0.465,0.301,0.801c0,0.381-0.102,0.682-0.303,0.897c-0.201,0.217-0.48,0.326-0.838,0.326
			c-0.297,0-0.529-0.096-0.705-0.287l-0.041-0.044v0.271h-0.414V46.661z M83.708,49.419c0.228,0,0.402-0.07,0.523-0.217
			c0.12-0.147,0.178-0.359,0.178-0.639c0-0.275-0.057-0.479-0.17-0.61c-0.116-0.132-0.291-0.198-0.529-0.198
			c-0.242,0-0.42,0.073-0.533,0.224c-0.11,0.149-0.167,0.383-0.167,0.708c0,0.233,0.059,0.413,0.182,0.541
			C83.311,49.355,83.482,49.419,83.708,49.419z"/>
		<path fill="#565656" d="M85.399,46.661h0.221h0.221v3.02H85.62h-0.221V46.661z"/>
		<path fill="#565656" d="M87.57,49.74c-0.369,0-0.662-0.098-0.874-0.296c-0.212-0.196-0.318-0.472-0.318-0.818
			c0-0.365,0.113-0.662,0.338-0.879c0.222-0.221,0.525-0.33,0.904-0.33c0.34,0,0.618,0.107,0.829,0.32
			c0.209,0.213,0.316,0.496,0.316,0.843l-0.005,0.13h-1.913c0.018,0.221,0.078,0.386,0.178,0.502
			c0.125,0.141,0.32,0.209,0.588,0.209c0.168,0,0.314-0.039,0.44-0.12c0.125-0.078,0.201-0.179,0.23-0.302h0.436
			c-0.066,0.24-0.195,0.424-0.391,0.552C88.131,49.677,87.878,49.74,87.57,49.74z M88.305,48.413
			c-0.012-0.202-0.072-0.361-0.18-0.476c-0.119-0.124-0.292-0.19-0.523-0.19c-0.232,0-0.418,0.074-0.555,0.22
			c-0.11,0.114-0.176,0.263-0.199,0.446H88.305z"/>
	</g>
	<path fill="#565656" stroke="#000000" stroke-miterlimit="10" d="M285.244,44.103c0,0.762-0.617,1.382-1.381,1.382h-29.354
		c-0.764,0-1.381-0.62-1.381-1.382v-9.429c0-0.762,0.618-1.379,1.381-1.379h29.354c0.764,0,1.381,0.617,1.381,1.379V44.103z"/>
</g>
</svg>
