<?xml version="1.0" encoding="utf-8"?>
<!-- Generator: Adobe Illustrator 16.0.0, SVG Export Plug-In . SVG Version: 6.00 Build 0)  -->
<!DOCTYPE svg PUBLIC "-//W3C//DTD SVG 1.1//EN" "http://www.w3.org/Graphics/SVG/1.1/DTD/svg11.dtd">
<svg version="1.1" id="图层_1" xmlns="http://www.w3.org/2000/svg" xmlns:xlink="http://www.w3.org/1999/xlink" x="0px" y="0px"
	 width="1276px" height="126.14px" viewBox="0 0 1276 126.14" enable-background="new 0 0 1276 126.14" xml:space="preserve">
<rect y="-0.001" fill="#7B7C7C" width="1275.588" height="126.142"/>
<g>
	<path fill="#4F4F4F" d="M548.214,44.378c-3.004,3.353-8.16,3.633-11.52,0.624c-3.354-3.01-3.637-8.168-0.631-11.521
		c3.004-3.352,8.162-3.631,11.518-0.622C550.939,35.868,551.222,41.025,548.214,44.378"/>
	<path fill="#AFAFAF" d="M546.605,42.934c-2.209,2.462-5.998,2.668-8.465,0.457c-2.465-2.211-2.676-6-0.463-8.463
		c2.207-2.464,5.998-2.668,8.461-0.457C548.605,36.68,548.812,40.471,546.605,42.934"/>
	<path fill="none" stroke="#939393" stroke-miterlimit="10" d="M546.605,42.934c-2.209,2.462-5.998,2.668-8.465,0.457
		c-2.465-2.211-2.676-6-0.463-8.463c2.207-2.464,5.998-2.668,8.461-0.457C548.605,36.68,548.812,40.471,546.605,42.934z"/>
	<g>
		<g>
			<defs>
				
					<rect id="SVGID_1_" x="536.486" y="33.283" transform="matrix(-0.7445 -0.6676 0.6676 -0.7445 919.7688 429.8597)" width="11.307" height="11.293"/>
			</defs>
			<clipPath id="SVGID_2_">
				<use xlink:href="#SVGID_1_"  overflow="visible"/>
			</clipPath>
			<path clip-path="url(#SVGID_2_)" fill="#BEBFBF" d="M546.349,42.704c-2.082,2.32-5.656,2.514-7.979,0.432
				c-2.324-2.084-2.52-5.655-0.438-7.979c2.082-2.32,5.65-2.514,7.975-0.43C548.234,36.811,548.429,40.382,546.349,42.704"/>
			<path clip-path="url(#SVGID_2_)" fill="#C0C1C1" d="M546.248,42.616c-2.031,2.266-5.518,2.454-7.787,0.419
				c-2.27-2.034-2.461-5.521-0.43-7.788c2.035-2.268,5.52-2.456,7.789-0.42C548.089,36.86,548.281,40.346,546.248,42.616"/>
			<path clip-path="url(#SVGID_2_)" fill="#C3C4C4" d="M546.148,42.526c-1.982,2.213-5.387,2.396-7.6,0.411
				c-2.217-1.985-2.4-5.389-0.418-7.601c1.984-2.213,5.387-2.398,7.602-0.413C547.947,36.911,548.132,40.314,546.148,42.526"/>
			<path clip-path="url(#SVGID_2_)" fill="#C5C6C6" d="M546.052,42.437c-1.936,2.157-5.256,2.336-7.416,0.401
				c-2.158-1.938-2.344-5.258-0.406-7.414c1.934-2.158,5.252-2.338,7.412-0.402C547.802,36.959,547.986,40.28,546.052,42.437"/>
			<path clip-path="url(#SVGID_2_)" fill="#C7C9C9" d="M545.951,42.35c-1.885,2.102-5.121,2.277-7.227,0.389
				c-2.104-1.888-2.281-5.124-0.396-7.227c1.887-2.104,5.121-2.277,7.227-0.391C547.658,37.009,547.837,40.246,545.951,42.35"/>
			<path clip-path="url(#SVGID_2_)" fill="#CACBCB" d="M545.853,42.26c-1.838,2.047-4.988,2.219-7.039,0.38
				s-2.225-4.989-0.389-7.038c1.84-2.051,4.992-2.219,7.041-0.382C547.515,37.059,547.687,40.209,545.853,42.26"/>
			<path clip-path="url(#SVGID_2_)" fill="#CCCECE" d="M545.755,42.17c-1.789,1.994-4.857,2.159-6.852,0.371
				c-1.998-1.789-2.166-4.857-0.377-6.85c1.787-1.996,4.854-2.162,6.852-0.373C547.375,37.11,547.542,40.176,545.755,42.17"/>
			<path clip-path="url(#SVGID_2_)" fill="#CED0D0" d="M545.654,42.083c-1.736,1.938-4.723,2.101-6.662,0.358
				c-1.941-1.74-2.105-4.725-0.367-6.663c1.74-1.939,4.723-2.101,6.666-0.36C547.23,37.159,547.394,40.143,545.654,42.083"/>
			<path clip-path="url(#SVGID_2_)" fill="#D1D3D3" d="M545.554,41.995c-1.689,1.884-4.586,2.039-6.475,0.349
				c-1.887-1.691-2.045-4.591-0.357-6.476c1.691-1.885,4.592-2.041,6.477-0.35C547.087,37.209,547.246,40.11,545.554,41.995"/>
			<path clip-path="url(#SVGID_2_)" fill="#D3D5D5" d="M545.457,41.905c-1.641,1.829-4.457,1.982-6.287,0.34
				c-1.832-1.643-1.986-4.458-0.346-6.289c1.639-1.829,4.455-1.983,6.287-0.339C546.943,37.259,547.097,40.074,545.457,41.905"/>
		</g>
	</g>
	<polygon fill="#605F5E" points="539.326,40.965 541.097,38.987 539.115,37.21 540.105,36.112 542.083,37.889 543.857,35.911 
		544.955,36.895 543.185,38.875 545.164,40.649 544.177,41.749 542.199,39.971 540.423,41.952 	"/>
	<path fill="#231815" d="M544.777,36.905l-1.604,1.789L543,38.883l0.193,0.171l1.791,1.604l-0.814,0.91l-1.789-1.607l-0.191-0.17
		l-0.172,0.189l-1.604,1.791l-0.908-0.816l1.602-1.787l0.172-0.191l-0.189-0.171l-1.789-1.605l0.814-0.907l1.787,1.604l0.191,0.172
		l0.17-0.189l1.602-1.789L544.777,36.905z M545.138,36.885l-1.293-1.155l-1.771,1.978l-1.982-1.775l-1.154,1.288l1.98,1.776
		l-1.773,1.979l1.287,1.156l1.777-1.979l1.979,1.774l1.156-1.287l-1.98-1.775L545.138,36.885z"/>
</g>
<g>
	<path fill="#4F4F4F" d="M548.214,88.131c-3.004,3.352-8.16,3.633-11.52,0.623c-3.354-3.01-3.637-8.168-0.631-11.52
		c3.004-3.352,8.162-3.631,11.518-0.623C550.939,79.619,551.222,84.777,548.214,88.131"/>
	<path fill="#AFAFAF" d="M546.605,86.686c-2.209,2.463-5.998,2.668-8.465,0.457c-2.465-2.211-2.676-6-0.463-8.463
		c2.207-2.463,5.998-2.668,8.461-0.457C548.605,80.432,548.812,84.223,546.605,86.686"/>
	<path fill="none" stroke="#939393" stroke-miterlimit="10" d="M546.605,86.686c-2.209,2.463-5.998,2.668-8.465,0.457
		c-2.465-2.211-2.676-6-0.463-8.463c2.207-2.463,5.998-2.668,8.461-0.457C548.605,80.432,548.812,84.223,546.605,86.686z"/>
	<g>
		<g>
			<defs>
				
					<rect id="SVGID_3_" x="536.486" y="77.036" transform="matrix(-0.7445 -0.6676 0.6676 -0.7445 890.5587 506.1848)" width="11.307" height="11.292"/>
			</defs>
			<clipPath id="SVGID_4_">
				<use xlink:href="#SVGID_3_"  overflow="visible"/>
			</clipPath>
			<path clip-path="url(#SVGID_4_)" fill="#BEBFBF" d="M546.349,86.455c-2.082,2.32-5.656,2.514-7.979,0.432
				c-2.324-2.084-2.52-5.654-0.438-7.979c2.082-2.32,5.65-2.514,7.975-0.43C548.234,80.563,548.429,84.135,546.349,86.455"/>
			<path clip-path="url(#SVGID_4_)" fill="#C0C1C1" d="M546.248,86.367c-2.031,2.266-5.518,2.455-7.787,0.42
				s-2.461-5.521-0.43-7.789c2.035-2.268,5.52-2.455,7.789-0.42C548.089,80.611,548.281,84.098,546.248,86.367"/>
			<path clip-path="url(#SVGID_4_)" fill="#C3C4C4" d="M546.148,86.277c-1.982,2.213-5.387,2.396-7.6,0.412
				c-2.217-1.986-2.4-5.389-0.418-7.602c1.984-2.213,5.387-2.398,7.602-0.412S548.132,84.066,546.148,86.277"/>
			<path clip-path="url(#SVGID_4_)" fill="#C5C6C6" d="M546.052,86.189c-1.936,2.156-5.256,2.336-7.416,0.4
				c-2.158-1.938-2.344-5.258-0.406-7.414c1.934-2.158,5.252-2.338,7.412-0.402C547.802,80.711,547.986,84.031,546.052,86.189"/>
			<path clip-path="url(#SVGID_4_)" fill="#C7C9C9" d="M545.951,86.102c-1.885,2.102-5.121,2.277-7.227,0.389
				c-2.104-1.887-2.281-5.123-0.396-7.227c1.887-2.104,5.121-2.277,7.227-0.391C547.658,80.762,547.837,83.998,545.951,86.102"/>
			<path clip-path="url(#SVGID_4_)" fill="#CACBCB" d="M545.853,86.012c-1.838,2.047-4.988,2.219-7.039,0.381
				c-2.051-1.84-2.225-4.99-0.389-7.039c1.84-2.051,4.992-2.219,7.041-0.381S547.687,83.961,545.853,86.012"/>
			<path clip-path="url(#SVGID_4_)" fill="#CCCECE" d="M545.755,85.922c-1.789,1.994-4.857,2.16-6.852,0.371
				c-1.998-1.789-2.166-4.857-0.377-6.85c1.787-1.996,4.854-2.162,6.852-0.373C547.375,80.861,547.542,83.928,545.755,85.922"/>
			<path clip-path="url(#SVGID_4_)" fill="#CED0D0" d="M545.654,85.836c-1.736,1.938-4.723,2.1-6.662,0.357
				c-1.941-1.74-2.105-4.725-0.367-6.662c1.74-1.939,4.723-2.102,6.666-0.361C547.23,80.91,547.394,83.895,545.654,85.836"/>
			<path clip-path="url(#SVGID_4_)" fill="#D1D3D3" d="M545.554,85.746c-1.689,1.885-4.586,2.039-6.475,0.35
				c-1.887-1.691-2.045-4.592-0.357-6.477c1.691-1.885,4.592-2.041,6.477-0.35C547.087,80.961,547.246,83.861,545.554,85.746"/>
			<path clip-path="url(#SVGID_4_)" fill="#D3D5D5" d="M545.457,85.656c-1.641,1.83-4.457,1.982-6.287,0.34
				c-1.832-1.643-1.986-4.457-0.346-6.289c1.639-1.828,4.455-1.982,6.287-0.338C546.943,81.012,547.097,83.826,545.457,85.656"/>
		</g>
	</g>
	<polygon fill="#605F5E" points="539.326,84.717 541.097,82.738 539.115,80.963 540.105,79.863 542.083,81.641 543.857,79.662 
		544.955,80.646 543.185,82.627 545.164,84.4 544.177,85.5 542.199,83.723 540.423,85.703 	"/>
	<path fill="#231815" d="M544.777,80.656l-1.604,1.789L543,82.635l0.193,0.172l1.791,1.604l-0.814,0.91l-1.789-1.607l-0.191-0.17
		l-0.172,0.189l-1.604,1.791l-0.908-0.816l1.602-1.787l0.172-0.191l-0.189-0.17l-1.789-1.605l0.814-0.908l1.787,1.604l0.191,0.172
		l0.17-0.189l1.602-1.789L544.777,80.656z M545.138,80.637l-1.293-1.154l-1.771,1.977l-1.982-1.775l-1.154,1.289l1.98,1.775
		l-1.773,1.979l1.287,1.156l1.777-1.979l1.979,1.775l1.156-1.287l-1.98-1.775L545.138,80.637z"/>
</g>
<g>
	<path fill="#4F4F4F" d="M585.564,44.378c-3.004,3.353-8.16,3.633-11.52,0.624c-3.354-3.01-3.637-8.168-0.631-11.521
		c3.004-3.352,8.162-3.631,11.518-0.622C588.289,35.868,588.572,41.025,585.564,44.378"/>
	<path fill="#AFAFAF" d="M583.955,42.934c-2.209,2.462-5.998,2.668-8.465,0.457c-2.465-2.211-2.676-6-0.463-8.463
		c2.207-2.464,5.998-2.668,8.461-0.457C585.955,36.68,586.162,40.471,583.955,42.934"/>
	<path fill="none" stroke="#939393" stroke-miterlimit="10" d="M583.955,42.934c-2.209,2.462-5.998,2.668-8.465,0.457
		c-2.465-2.211-2.676-6-0.463-8.463c2.207-2.464,5.998-2.668,8.461-0.457C585.955,36.68,586.162,40.471,583.955,42.934z"/>
	<g>
		<g>
			<defs>
				
					<rect id="SVGID_5_" x="573.835" y="33.283" transform="matrix(-0.7445 -0.6676 0.6676 -0.7445 984.925 454.7953)" width="11.307" height="11.293"/>
			</defs>
			<clipPath id="SVGID_6_">
				<use xlink:href="#SVGID_5_"  overflow="visible"/>
			</clipPath>
			<path clip-path="url(#SVGID_6_)" fill="#BEBFBF" d="M583.699,42.704c-2.082,2.32-5.656,2.514-7.979,0.432
				c-2.324-2.084-2.52-5.655-0.438-7.979c2.082-2.32,5.65-2.514,7.975-0.43C585.583,36.811,585.779,40.382,583.699,42.704"/>
			<path clip-path="url(#SVGID_6_)" fill="#C0C1C1" d="M583.597,42.616c-2.031,2.266-5.518,2.454-7.787,0.419
				c-2.27-2.034-2.461-5.521-0.43-7.788c2.035-2.268,5.52-2.456,7.789-0.42C585.439,36.86,585.63,40.346,583.597,42.616"/>
			<path clip-path="url(#SVGID_6_)" fill="#C3C4C4" d="M583.498,42.526c-1.982,2.213-5.387,2.396-7.6,0.411
				c-2.217-1.985-2.4-5.389-0.418-7.601c1.984-2.213,5.387-2.398,7.602-0.413C585.296,36.911,585.482,40.314,583.498,42.526"/>
			<path clip-path="url(#SVGID_6_)" fill="#C5C6C6" d="M583.402,42.437c-1.936,2.157-5.256,2.336-7.416,0.401
				c-2.158-1.938-2.344-5.258-0.406-7.414c1.934-2.158,5.252-2.338,7.412-0.402C585.152,36.959,585.335,40.28,583.402,42.437"/>
			<path clip-path="url(#SVGID_6_)" fill="#C7C9C9" d="M583.3,42.35c-1.885,2.102-5.121,2.277-7.227,0.389
				c-2.104-1.888-2.281-5.124-0.396-7.227c1.887-2.104,5.121-2.277,7.227-0.391C585.007,37.009,585.187,40.246,583.3,42.35"/>
			<path clip-path="url(#SVGID_6_)" fill="#CACBCB" d="M583.203,42.26c-1.838,2.047-4.988,2.219-7.039,0.38
				s-2.225-4.989-0.389-7.038c1.84-2.051,4.992-2.219,7.041-0.382C584.865,37.059,585.037,40.209,583.203,42.26"/>
			<path clip-path="url(#SVGID_6_)" fill="#CCCECE" d="M583.105,42.17c-1.789,1.994-4.857,2.159-6.852,0.371
				c-1.998-1.789-2.166-4.857-0.377-6.85c1.787-1.996,4.854-2.162,6.852-0.373C584.724,37.11,584.892,40.176,583.105,42.17"/>
			<path clip-path="url(#SVGID_6_)" fill="#CED0D0" d="M583.003,42.083c-1.736,1.938-4.723,2.101-6.662,0.358
				c-1.941-1.74-2.105-4.725-0.367-6.663c1.74-1.939,4.723-2.101,6.666-0.36C584.58,37.159,584.744,40.143,583.003,42.083"/>
			<path clip-path="url(#SVGID_6_)" fill="#D1D3D3" d="M582.904,41.995c-1.689,1.884-4.586,2.039-6.475,0.349
				c-1.887-1.691-2.045-4.591-0.357-6.476c1.691-1.885,4.592-2.041,6.477-0.35C584.437,37.209,584.595,40.11,582.904,41.995"/>
			<path clip-path="url(#SVGID_6_)" fill="#D3D5D5" d="M582.806,41.905c-1.641,1.829-4.457,1.982-6.287,0.34
				c-1.832-1.643-1.986-4.458-0.346-6.289c1.639-1.829,4.457-1.983,6.287-0.339C584.292,37.259,584.447,40.074,582.806,41.905"/>
		</g>
	</g>
	<polygon fill="#605F5E" points="576.675,40.965 578.447,38.987 576.464,37.21 577.455,36.112 579.433,37.889 581.207,35.911 
		582.304,36.895 580.535,38.875 582.513,40.649 581.527,41.749 579.548,39.971 577.773,41.952 	"/>
	<path fill="#231815" d="M582.126,36.905l-1.604,1.789l-0.174,0.189l0.193,0.171l1.791,1.604l-0.814,0.91l-1.791-1.607l-0.189-0.17
		l-0.172,0.189l-1.604,1.791l-0.908-0.816l1.602-1.787l0.174-0.191l-0.191-0.171l-1.789-1.605l0.814-0.907l1.787,1.604l0.191,0.172
		l0.17-0.189l1.602-1.789L582.126,36.905z M582.488,36.885l-1.293-1.155l-1.771,1.978l-1.982-1.775l-1.154,1.288l1.98,1.776
		l-1.773,1.979l1.287,1.156l1.777-1.979l1.979,1.774l1.156-1.287l-1.98-1.775L582.488,36.885z"/>
</g>
<g>
	<path fill="#4F4F4F" d="M585.564,88.131c-3.004,3.352-8.16,3.633-11.52,0.623c-3.354-3.01-3.637-8.168-0.631-11.52
		c3.004-3.352,8.162-3.631,11.518-0.623C588.289,79.619,588.572,84.777,585.564,88.131"/>
	<path fill="#AFAFAF" d="M583.955,86.686c-2.209,2.463-5.998,2.668-8.465,0.457c-2.465-2.211-2.676-6-0.463-8.463
		c2.207-2.463,5.998-2.668,8.461-0.457C585.955,80.432,586.162,84.223,583.955,86.686"/>
	<path fill="none" stroke="#939393" stroke-miterlimit="10" d="M583.955,86.686c-2.209,2.463-5.998,2.668-8.465,0.457
		c-2.465-2.211-2.676-6-0.463-8.463c2.207-2.463,5.998-2.668,8.461-0.457C585.955,80.432,586.162,84.223,583.955,86.686z"/>
	<g>
		<g>
			<defs>
				
					<rect id="SVGID_7_" x="573.835" y="77.036" transform="matrix(-0.7445 -0.6676 0.6676 -0.7445 955.715 531.1204)" width="11.307" height="11.292"/>
			</defs>
			<clipPath id="SVGID_8_">
				<use xlink:href="#SVGID_7_"  overflow="visible"/>
			</clipPath>
			<path clip-path="url(#SVGID_8_)" fill="#BEBFBF" d="M583.699,86.455c-2.082,2.32-5.656,2.514-7.979,0.432
				c-2.324-2.084-2.52-5.654-0.438-7.979c2.082-2.32,5.65-2.514,7.975-0.43C585.583,80.563,585.779,84.135,583.699,86.455"/>
			<path clip-path="url(#SVGID_8_)" fill="#C0C1C1" d="M583.597,86.367c-2.031,2.266-5.518,2.455-7.787,0.42
				s-2.461-5.521-0.43-7.789c2.035-2.268,5.52-2.455,7.789-0.42C585.439,80.611,585.63,84.098,583.597,86.367"/>
			<path clip-path="url(#SVGID_8_)" fill="#C3C4C4" d="M583.498,86.277c-1.982,2.213-5.387,2.396-7.6,0.412
				c-2.217-1.986-2.4-5.389-0.418-7.602c1.984-2.213,5.387-2.398,7.602-0.412S585.482,84.066,583.498,86.277"/>
			<path clip-path="url(#SVGID_8_)" fill="#C5C6C6" d="M583.402,86.189c-1.936,2.156-5.256,2.336-7.416,0.4
				c-2.158-1.938-2.344-5.258-0.406-7.414c1.934-2.158,5.252-2.338,7.412-0.402C585.152,80.711,585.335,84.031,583.402,86.189"/>
			<path clip-path="url(#SVGID_8_)" fill="#C7C9C9" d="M583.3,86.102c-1.885,2.102-5.121,2.277-7.227,0.389
				c-2.104-1.887-2.281-5.123-0.396-7.227c1.887-2.104,5.121-2.277,7.227-0.391C585.007,80.762,585.187,83.998,583.3,86.102"/>
			<path clip-path="url(#SVGID_8_)" fill="#CACBCB" d="M583.203,86.012c-1.838,2.047-4.988,2.219-7.039,0.381
				c-2.051-1.84-2.225-4.99-0.389-7.039c1.84-2.051,4.992-2.219,7.041-0.381S585.037,83.961,583.203,86.012"/>
			<path clip-path="url(#SVGID_8_)" fill="#CCCECE" d="M583.105,85.922c-1.789,1.994-4.857,2.16-6.852,0.371
				c-1.998-1.789-2.166-4.857-0.377-6.85c1.787-1.996,4.854-2.162,6.852-0.373C584.724,80.861,584.892,83.928,583.105,85.922"/>
			<path clip-path="url(#SVGID_8_)" fill="#CED0D0" d="M583.003,85.836c-1.736,1.938-4.723,2.1-6.662,0.357
				c-1.941-1.74-2.105-4.725-0.367-6.662c1.74-1.939,4.723-2.102,6.666-0.361C584.58,80.91,584.744,83.895,583.003,85.836"/>
			<path clip-path="url(#SVGID_8_)" fill="#D1D3D3" d="M582.904,85.746c-1.689,1.885-4.586,2.039-6.475,0.35
				c-1.887-1.691-2.045-4.592-0.357-6.477c1.691-1.885,4.592-2.041,6.477-0.35C584.437,80.961,584.595,83.861,582.904,85.746"/>
			<path clip-path="url(#SVGID_8_)" fill="#D3D5D5" d="M582.806,85.656c-1.641,1.83-4.457,1.982-6.287,0.34
				c-1.832-1.643-1.986-4.457-0.346-6.289c1.639-1.828,4.457-1.982,6.287-0.338C584.292,81.012,584.447,83.826,582.806,85.656"/>
		</g>
	</g>
	<polygon fill="#605F5E" points="576.675,84.717 578.447,82.738 576.464,80.963 577.455,79.863 579.433,81.641 581.207,79.662 
		582.304,80.646 580.535,82.627 582.513,84.4 581.527,85.5 579.548,83.723 577.773,85.703 	"/>
	<path fill="#231815" d="M582.126,80.656l-1.604,1.789l-0.174,0.189l0.193,0.172l1.791,1.604l-0.814,0.91l-1.791-1.607l-0.189-0.17
		l-0.172,0.189l-1.604,1.791l-0.908-0.816l1.602-1.787l0.174-0.191l-0.191-0.17l-1.789-1.605l0.814-0.908l1.787,1.604l0.191,0.172
		l0.17-0.189l1.602-1.789L582.126,80.656z M582.488,80.637l-1.293-1.154l-1.771,1.977l-1.982-1.775l-1.154,1.289l1.98,1.775
		l-1.773,1.979l1.287,1.156l1.777-1.979l1.979,1.775l1.156-1.287l-1.98-1.775L582.488,80.637z"/>
</g>
<circle fill="#E4FF92" stroke="#4D700A" stroke-miterlimit="10" cx="1200.889" cy="35.994" r="7.184"/>
<circle fill="#C67F38" stroke="#70450E" stroke-miterlimit="10" cx="1200.889" cy="59.22" r="4.434"/>
<circle fill="#C67F38" stroke="#70450E" stroke-miterlimit="10" cx="1200.889" cy="74.168" r="4.434"/>
<circle fill="#C67F38" stroke="#70450E" stroke-miterlimit="10" cx="1200.889" cy="89.117" r="4.434"/>
</svg>
