<?xml version="1.0" encoding="utf-8"?>
<!-- Generator: Adobe Illustrator 16.0.0, SVG Export Plug-In . SVG Version: 6.00 Build 0)  -->
<!DOCTYPE svg PUBLIC "-//W3C//DTD SVG 1.1//EN" "http://www.w3.org/Graphics/SVG/1.1/DTD/svg11.dtd">
<svg version="1.1" id="图层_1" xmlns="http://www.w3.org/2000/svg" xmlns:xlink="http://www.w3.org/1999/xlink" x="0px" y="0px"
	 width="1275.6px" height="378.5px" viewBox="0 0 1275.6 378.5" enable-background="new 0 0 1275.6 378.5" xml:space="preserve">
<polygon fill="#C9C9C9" points="0,0.038 0,126.178 0,252.32 0,378.461 1275.588,378.461 1275.588,252.32 1275.588,126.178 
	1275.588,0.038 "/>
<rect x="7.966" y="7.93" width="1255.438" height="364.482"/>
<path fill="#C9C9C9" d="M1260.07,118.786c0,3.217-2.268,5.826-5.066,5.826H14.365c-2.797,0-5.066-2.609-5.066-5.826V15.09
	c0-3.219,2.27-5.826,5.066-5.826h1240.639c2.799,0,5.066,2.607,5.066,5.826V118.786z"/>
<g>
	<path fill="#4F4F4F" d="M557.701,45.875c-3.004,3.906-8.16,4.234-11.52,0.727c-3.354-3.508-3.637-9.518-0.631-13.422
		c3.004-3.906,8.161-4.23,11.518-0.725C560.426,35.959,560.709,41.969,557.701,45.875"/>
	<path fill="#AFAFAF" d="M556.092,44.192c-2.209,2.869-5.998,3.109-8.465,0.533c-2.466-2.576-2.676-6.992-0.463-9.861
		c2.206-2.869,5.998-3.109,8.461-0.533C558.092,36.905,558.299,41.323,556.092,44.192"/>
	<path fill="none" stroke="#939393" stroke-miterlimit="10" d="M556.092,44.192c-2.209,2.869-5.998,3.109-8.465,0.533
		c-2.466-2.576-2.676-6.992-0.463-9.861c2.206-2.869,5.998-3.109,8.461-0.533C558.092,36.905,558.299,41.323,556.092,44.192z"/>
	<g>
		<g>
			<defs>
				<polygon id="SVGID_1_" points="543.648,40.028 552.066,48.825 559.604,39.026 551.186,30.231 				"/>
			</defs>
			<clipPath id="SVGID_2_">
				<use xlink:href="#SVGID_1_"  overflow="visible"/>
			</clipPath>
			<path clip-path="url(#SVGID_2_)" fill="#BEBFBF" d="M555.835,43.924c-2.081,2.703-5.655,2.93-7.978,0.502
				c-2.324-2.428-2.52-6.588-0.438-9.295c2.083-2.705,5.651-2.93,7.975-0.502C557.72,37.057,557.916,41.219,555.835,43.924"/>
			<path clip-path="url(#SVGID_2_)" fill="#C0C1C1" d="M555.734,43.821c-2.032,2.641-5.519,2.861-7.788,0.49
				c-2.269-2.371-2.46-6.434-0.429-9.076c2.035-2.643,5.52-2.861,7.789-0.49C557.576,37.114,557.768,41.178,555.734,43.821"/>
			<path clip-path="url(#SVGID_2_)" fill="#C3C4C4" d="M555.635,43.717c-1.982,2.578-5.387,2.791-7.6,0.479
				c-2.217-2.313-2.4-6.277-0.418-8.857c1.983-2.578,5.387-2.793,7.602-0.479S557.619,41.141,555.635,43.717"/>
			<path clip-path="url(#SVGID_2_)" fill="#C5C6C6" d="M555.538,43.614c-1.935,2.512-5.255,2.723-7.415,0.467
				c-2.158-2.258-2.344-6.127-0.407-8.639c1.935-2.516,5.253-2.725,7.413-0.469C557.289,37.231,557.473,41.1,555.538,43.614"/>
			<path clip-path="url(#SVGID_2_)" fill="#C7C9C9" d="M555.438,43.512c-1.885,2.447-5.121,2.652-7.227,0.453
				c-2.104-2.199-2.282-5.971-0.396-8.42c1.887-2.451,5.121-2.654,7.227-0.457C557.145,37.29,557.324,41.061,555.438,43.512"/>
			<path clip-path="url(#SVGID_2_)" fill="#CACBCB" d="M555.34,43.407c-1.838,2.385-4.988,2.586-7.039,0.443
				s-2.225-5.814-0.389-8.201c1.84-2.389,4.992-2.586,7.04-0.443C557.002,37.348,557.174,41.018,555.34,43.407"/>
			<path clip-path="url(#SVGID_2_)" fill="#CCCECE" d="M555.242,43.303c-1.79,2.322-4.857,2.516-6.853,0.432
				c-1.997-2.084-2.165-5.658-0.377-7.98c1.788-2.326,4.854-2.52,6.852-0.434C556.861,37.405,557.028,40.979,555.242,43.303"/>
			<path clip-path="url(#SVGID_2_)" fill="#CED0D0" d="M555.141,43.202c-1.737,2.258-4.723,2.447-6.662,0.416
				c-1.941-2.025-2.106-5.504-0.367-7.762c1.739-2.26,4.723-2.449,6.666-0.422C556.717,37.463,556.881,40.942,555.141,43.202"/>
			<path clip-path="url(#SVGID_2_)" fill="#D1D3D3" d="M555.041,43.098c-1.689,2.195-4.587,2.377-6.475,0.406
				s-2.045-5.35-0.357-7.545c1.691-2.195,4.591-2.379,6.477-0.408C556.574,37.522,556.732,40.901,555.041,43.098"/>
			<path clip-path="url(#SVGID_2_)" fill="#D3D5D5" d="M554.943,42.993c-1.641,2.133-4.457,2.311-6.287,0.396
				c-1.833-1.914-1.987-5.193-0.346-7.328c1.639-2.131,4.455-2.311,6.287-0.395C556.43,37.581,556.584,40.86,554.943,42.993"/>
		</g>
	</g>
	<polygon fill="#605F5E" points="548.812,41.899 550.584,39.592 548.602,37.524 549.591,36.243 551.569,38.313 553.344,36.008 
		554.441,37.157 552.672,39.463 554.65,41.53 553.663,42.811 551.685,40.741 549.91,43.047 	"/>
	<path fill="#231815" d="M554.264,37.168l-1.604,2.082l-0.174,0.223l0.193,0.199l1.791,1.869l-0.815,1.061l-1.79-1.873l-0.19-0.199
		l-0.171,0.223l-1.604,2.086l-0.908-0.951l1.602-2.082l0.172-0.225l-0.189-0.197l-1.789-1.871l0.813-1.059l1.788,1.869l0.19,0.201
		l0.171-0.221l1.602-2.086L554.264,37.168z M554.624,37.145l-1.292-1.346l-1.772,2.303l-1.981-2.068l-1.154,1.502l1.98,2.068
		l-1.773,2.305l1.287,1.35l1.776-2.307l1.979,2.068l1.157-1.5l-1.981-2.068L554.624,37.145z"/>
</g>
<g>
	<g>
		<defs>
			<path id="SVGID_3_" d="M271.669,10.387l-3.465,0.111l-0.779,18.648l12.834,2.547c5.125,1.016,9.802-3.584,9.802-9.639v-2.27
				c0-2.75-1.589-5.156-3.87-5.863l-8.713-2.695c-1.695-0.488-3.802-0.842-5.578-0.842
				C271.821,10.385,271.745,10.387,271.669,10.387"/>
		</defs>
		<clipPath id="SVGID_4_">
			<use xlink:href="#SVGID_3_"  overflow="visible"/>
		</clipPath>
		
			<linearGradient id="SVGID_5_" gradientUnits="userSpaceOnUse" x1="-201.479" y1="485.6426" x2="-200.4031" y2="485.6426" gradientTransform="matrix(-21.6019 8.6407 -8.6407 -21.6019 136.9095 12247.5791)">
			<stop  offset="0" style="stop-color:#E1E0DF"/>
			<stop  offset="1" style="stop-color:#666666"/>
		</linearGradient>
		<polygon clip-path="url(#SVGID_4_)" fill="url(#SVGID_5_)" points="286.938,1.292 260.818,13.465 270.547,41.803 296.667,29.629 
					"/>
	</g>
	<g>
		<defs>
			<path id="SVGID_6_" d="M282.079,104.708l-14.654,3.271l1.686,18.52c3.117,0,6.221-0.475,9.232-1.41l5.184-1.609
				c3.854-1.199,6.534-5.266,6.533-9.912v-1.17c0-4.404-3.082-7.832-6.703-7.832C282.937,104.565,282.509,104.612,282.079,104.708"
				/>
		</defs>
		<clipPath id="SVGID_7_">
			<use xlink:href="#SVGID_6_"  overflow="visible"/>
		</clipPath>
		
			<linearGradient id="SVGID_8_" gradientUnits="userSpaceOnUse" x1="-208.4375" y1="493.6152" x2="-207.4375" y2="493.6152" gradientTransform="matrix(-14.9609 0 0 -14.9609 -2825.9463 7500.4614)">
			<stop  offset="0" style="stop-color:#E1E0DF"/>
			<stop  offset="1" style="stop-color:#666666"/>
		</linearGradient>
		<rect x="267.425" y="104.565" clip-path="url(#SVGID_7_)" fill="url(#SVGID_8_)" width="22.636" height="21.934"/>
	</g>
	<g>
		<defs>
			<path id="SVGID_9_" d="M269.11,10.391c-5.453,0-9.873,5.148-9.873,11.504v93.098c0,6.355,4.42,11.506,9.873,11.506
				c5.451,0,9.873-5.15,9.873-11.506V21.895C278.983,15.54,274.562,10.391,269.11,10.391L269.11,10.391z"/>
		</defs>
		<clipPath id="SVGID_10_">
			<use xlink:href="#SVGID_9_"  overflow="visible"/>
		</clipPath>
		
			<linearGradient id="SVGID_11_" gradientUnits="userSpaceOnUse" x1="-168.9863" y1="479.9102" x2="-167.9863" y2="479.9102" gradientTransform="matrix(19.747 0 0 19.747 3596.2129 -9408.3213)">
			<stop  offset="0" style="stop-color:#CCCDCD"/>
			<stop  offset="0.4731" style="stop-color:#E1E0DF"/>
			<stop  offset="1" style="stop-color:#666666"/>
		</linearGradient>
		<rect x="259.237" y="10.391" clip-path="url(#SVGID_10_)" fill="url(#SVGID_11_)" width="19.746" height="116.107"/>
	</g>
</g>
<polygon fill="#3D3D3D" points="908.906,34.934 905.238,27.532 908.906,20.131 916.242,20.131 919.91,27.532 916.242,34.934 "/>
<polygon fill="#3D3D3D" points="908.906,56.506 905.238,49.106 908.906,41.702 916.242,41.702 919.91,49.106 916.242,56.506 "/>
<polygon fill="#3D3D3D" points="908.906,78.081 905.238,70.68 908.906,63.276 916.242,63.276 919.91,70.68 916.242,78.081 "/>
<polygon fill="#3D3D3D" points="908.906,99.653 905.238,92.25 908.906,84.848 916.242,84.848 919.91,92.25 916.242,99.653 "/>
<polygon fill="#3D3D3D" points="908.906,121.227 905.238,113.825 908.906,106.422 916.242,106.422 919.91,113.825 916.242,121.227 
	"/>
<polygon fill="#3D3D3D" points="924.869,24.147 921.2,16.745 924.869,9.342 932.205,9.342 935.873,16.745 932.205,24.147 "/>
<polygon fill="#3D3D3D" points="924.869,45.719 921.2,38.319 924.869,30.915 932.205,30.915 935.873,38.319 932.205,45.719 "/>
<polygon fill="#3D3D3D" points="924.869,67.293 921.2,59.891 924.869,52.489 932.205,52.489 935.873,59.891 932.205,67.293 "/>
<polygon fill="#3D3D3D" points="924.869,88.866 921.2,81.465 924.869,74.063 932.205,74.063 935.873,81.465 932.205,88.866 "/>
<polygon fill="#3D3D3D" points="924.869,110.44 921.2,103.038 924.869,95.635 932.205,95.635 935.873,103.038 932.205,110.44 "/>
<polygon fill="#3D3D3D" points="939.913,34.934 936.245,27.532 939.913,20.131 947.25,20.131 950.918,27.532 947.25,34.934 "/>
<polygon fill="#3D3D3D" points="939.913,56.506 936.245,49.106 939.913,41.702 947.25,41.702 950.918,49.106 947.25,56.506 "/>
<polygon fill="#3D3D3D" points="939.913,78.081 936.245,70.68 939.913,63.276 947.25,63.276 950.918,70.68 947.25,78.081 "/>
<polygon fill="#3D3D3D" points="939.913,99.653 936.245,92.25 939.913,84.848 947.25,84.848 950.918,92.25 947.25,99.653 "/>
<polygon fill="#3D3D3D" points="939.913,121.227 936.245,113.825 939.913,106.422 947.25,106.422 950.918,113.825 947.25,121.227 
	"/>
<polygon fill="#3D3D3D" points="932.205,117.209 924.869,117.209 921.2,124.612 935.873,124.612 "/>
<polygon fill="#3D3D3D" points="954.586,24.147 950.918,16.745 954.586,9.342 961.922,9.342 965.59,16.745 961.922,24.147 "/>
<polygon fill="#3D3D3D" points="954.586,45.719 950.918,38.319 954.586,30.915 961.922,30.915 965.59,38.319 961.922,45.719 "/>
<polygon fill="#3D3D3D" points="954.586,67.293 950.918,59.891 954.586,52.489 961.922,52.489 965.59,59.891 961.922,67.293 "/>
<polygon fill="#3D3D3D" points="954.586,88.866 950.918,81.465 954.586,74.063 961.922,74.063 965.59,81.465 961.922,88.866 "/>
<polygon fill="#3D3D3D" points="954.586,110.44 950.918,103.038 954.586,95.635 961.922,95.635 965.59,103.038 961.922,110.44 "/>
<polygon fill="#3D3D3D" points="969.631,34.934 965.963,27.532 969.631,20.131 976.967,20.131 980.635,27.532 976.967,34.934 "/>
<polygon fill="#3D3D3D" points="969.631,56.506 965.963,49.106 969.631,41.702 976.967,41.702 980.635,49.106 976.967,56.506 "/>
<polygon fill="#3D3D3D" points="969.631,78.081 965.963,70.68 969.631,63.276 976.967,63.276 980.635,70.68 976.967,78.081 "/>
<polygon fill="#3D3D3D" points="969.631,99.653 965.963,92.25 969.631,84.848 976.967,84.848 980.635,92.25 976.967,99.653 "/>
<polygon fill="#3D3D3D" points="961.922,117.209 954.586,117.209 950.918,124.612 965.59,124.612 "/>
<polygon fill="#3D3D3D" points="1000.638,34.934 996.97,27.532 1000.638,20.131 1007.974,20.131 1011.642,27.532 1007.974,34.934 
	"/>
<polygon fill="#3D3D3D" points="1000.638,56.506 996.97,49.106 1000.638,41.702 1007.974,41.702 1011.642,49.106 1007.974,56.506 
	"/>
<polygon fill="#3D3D3D" points="1000.638,78.081 996.97,70.68 1000.638,63.276 1007.974,63.276 1011.642,70.68 1007.974,78.081 "/>
<polygon fill="#3D3D3D" points="1000.638,99.653 996.97,92.25 1000.638,84.848 1007.974,84.848 1011.642,92.25 1007.974,99.653 "/>
<polygon fill="#3D3D3D" points="992.929,117.209 985.593,117.209 981.925,124.612 996.597,124.612 "/>
<polygon fill="#3D3D3D" points="1015.31,24.147 1011.642,16.745 1015.31,9.342 1022.646,9.342 1026.314,16.745 1022.646,24.147 "/>
<polygon fill="#3D3D3D" points="1015.31,45.719 1011.642,38.319 1015.31,30.915 1022.646,30.915 1026.314,38.319 1022.646,45.719 
	"/>
<polygon fill="#3D3D3D" points="1015.31,67.293 1011.642,59.891 1015.31,52.489 1022.646,52.489 1026.314,59.891 1022.646,67.293 
	"/>
<polygon fill="#3D3D3D" points="1015.31,88.866 1011.642,81.465 1015.31,74.063 1022.646,74.063 1026.314,81.465 1022.646,88.866 
	"/>
<polygon fill="#3D3D3D" points="1015.31,110.44 1011.642,103.038 1015.31,95.635 1022.646,95.635 1026.314,103.038 1022.646,110.44 
	"/>
<polygon fill="#3D3D3D" points="1030.354,34.934 1026.687,27.532 1030.354,20.131 1037.691,20.131 1041.359,27.532 1037.691,34.934 
	"/>
<polygon fill="#3D3D3D" points="1030.354,56.506 1026.687,49.106 1030.354,41.702 1037.691,41.702 1041.359,49.106 1037.691,56.506 
	"/>
<polygon fill="#3D3D3D" points="1030.354,78.081 1026.687,70.68 1030.354,63.276 1037.691,63.276 1041.359,70.68 1037.691,78.081 
	"/>
<polygon fill="#3D3D3D" points="1030.354,99.653 1026.687,92.25 1030.354,84.848 1037.691,84.848 1041.359,92.25 1037.691,99.653 
	"/>
<polygon fill="#3D3D3D" points="1030.354,121.227 1026.687,113.825 1030.354,106.422 1037.691,106.422 1041.359,113.825 
	1037.691,121.227 "/>
<polygon fill="#3D3D3D" points="1022.646,117.209 1015.31,117.209 1011.642,124.612 1026.314,124.612 "/>
<polygon fill="#3D3D3D" points="1046.316,24.147 1042.648,16.745 1046.316,9.342 1053.652,9.342 1057.321,16.745 1053.652,24.147 
	"/>
<polygon fill="#3D3D3D" points="1046.316,45.719 1042.648,38.319 1046.316,30.915 1053.652,30.915 1057.321,38.319 1053.652,45.719 
	"/>
<polygon fill="#3D3D3D" points="1046.316,67.293 1042.648,59.891 1046.316,52.489 1053.652,52.489 1057.321,59.891 1053.652,67.293 
	"/>
<polygon fill="#3D3D3D" points="1046.316,88.866 1042.648,81.465 1046.316,74.063 1053.652,74.063 1057.321,81.465 1053.652,88.866 
	"/>
<polygon fill="#3D3D3D" points="1046.316,110.44 1042.648,103.038 1046.316,95.635 1053.652,95.635 1057.321,103.038 
	1053.652,110.44 "/>
<polygon fill="#3D3D3D" points="1061.361,34.934 1057.693,27.532 1061.361,20.131 1068.697,20.131 1072.365,27.532 1068.697,34.934 
	"/>
<polygon fill="#3D3D3D" points="1061.361,56.506 1057.693,49.106 1061.361,41.702 1068.697,41.702 1072.365,49.106 1068.697,56.506 
	"/>
<polygon fill="#3D3D3D" points="1061.361,78.081 1057.693,70.68 1061.361,63.276 1068.697,63.276 1072.365,70.68 1068.697,78.081 
	"/>
<polygon fill="#3D3D3D" points="1061.361,99.653 1057.693,92.25 1061.361,84.848 1068.697,84.848 1072.365,92.25 1068.697,99.653 
	"/>
<polygon fill="#3D3D3D" points="1061.361,121.227 1057.693,113.825 1061.361,106.422 1068.697,106.422 1072.365,113.825 
	1068.697,121.227 "/>
<polygon fill="#3D3D3D" points="1053.652,117.209 1046.316,117.209 1042.648,124.612 1057.321,124.612 "/>
<polygon fill="#3D3D3D" points="1076.034,24.147 1072.365,16.745 1076.034,9.342 1083.37,9.342 1087.038,16.745 1083.37,24.147 "/>
<polygon fill="#3D3D3D" points="1076.034,45.719 1072.365,38.319 1076.034,30.915 1083.37,30.915 1087.038,38.319 1083.37,45.719 
	"/>
<polygon fill="#3D3D3D" points="1076.034,67.293 1072.365,59.891 1076.034,52.489 1083.37,52.489 1087.038,59.891 1083.37,67.293 
	"/>
<polygon fill="#3D3D3D" points="1076.034,88.866 1072.365,81.465 1076.034,74.063 1083.37,74.063 1087.038,81.465 1083.37,88.866 
	"/>
<polygon fill="#3D3D3D" points="1076.034,110.44 1072.365,103.038 1076.034,95.635 1083.37,95.635 1087.038,103.038 1083.37,110.44 
	"/>
<polygon fill="#3D3D3D" points="1091.079,34.934 1087.41,27.532 1091.079,20.131 1098.415,20.131 1102.083,27.532 1098.415,34.934 
	"/>
<polygon fill="#3D3D3D" points="1091.079,56.506 1087.41,49.106 1091.079,41.702 1098.415,41.702 1102.083,49.106 1098.415,56.506 
	"/>
<polygon fill="#3D3D3D" points="1091.079,78.081 1087.41,70.68 1091.079,63.276 1098.415,63.276 1102.083,70.68 1098.415,78.081 "/>
<polygon fill="#3D3D3D" points="1091.079,99.653 1087.41,92.25 1091.079,84.848 1098.415,84.848 1102.083,92.25 1098.415,99.653 "/>
<polygon fill="#3D3D3D" points="1091.079,121.227 1087.41,113.825 1091.079,106.422 1098.415,106.422 1102.083,113.825 
	1098.415,121.227 "/>
<polygon fill="#3D3D3D" points="1083.37,117.209 1076.034,117.209 1072.365,124.612 1087.038,124.612 "/>
<polygon fill="#3D3D3D" points="1107.041,24.147 1103.373,16.745 1107.041,9.342 1114.377,9.342 1118.045,16.745 1114.377,24.147 
	"/>
<polygon fill="#3D3D3D" points="1107.041,45.719 1103.373,38.319 1107.041,30.915 1114.377,30.915 1118.045,38.319 1114.377,45.719 
	"/>
<polygon fill="#3D3D3D" points="1107.041,67.293 1103.373,59.891 1107.041,52.489 1114.377,52.489 1118.045,59.891 1114.377,67.293 
	"/>
<polygon fill="#3D3D3D" points="1107.041,88.866 1103.373,81.465 1107.041,74.063 1114.377,74.063 1118.045,81.465 1114.377,88.866 
	"/>
<polygon fill="#3D3D3D" points="1107.041,110.44 1103.373,103.038 1107.041,95.635 1114.377,95.635 1118.045,103.038 
	1114.377,110.44 "/>
<polygon fill="#3D3D3D" points="1122.086,34.934 1118.418,27.532 1122.086,20.131 1129.422,20.131 1133.09,27.532 1129.422,34.934 
	"/>
<polygon fill="#3D3D3D" points="1122.086,56.506 1118.418,49.106 1122.086,41.702 1129.422,41.702 1133.09,49.106 1129.422,56.506 
	"/>
<polygon fill="#3D3D3D" points="1122.086,78.081 1118.418,70.68 1122.086,63.276 1129.422,63.276 1133.09,70.68 1129.422,78.081 "/>
<polygon fill="#3D3D3D" points="1122.086,99.653 1118.418,92.25 1122.086,84.848 1129.422,84.848 1133.09,92.25 1129.422,99.653 "/>
<polygon fill="#3D3D3D" points="1122.086,121.227 1118.418,113.825 1122.086,106.422 1129.422,106.422 1133.09,113.825 
	1129.422,121.227 "/>
<polygon fill="#3D3D3D" points="1114.377,117.209 1107.041,117.209 1103.373,124.612 1118.045,124.612 "/>
<polygon fill="#3D3D3D" points="1136.758,24.147 1133.09,16.745 1136.758,9.342 1144.094,9.342 1147.762,16.745 1144.094,24.147 "/>
<polygon fill="#3D3D3D" points="1136.758,45.719 1133.09,38.319 1136.758,30.915 1144.094,30.915 1147.762,38.319 1144.094,45.719 
	"/>
<polygon fill="#3D3D3D" points="1136.758,67.293 1133.09,59.891 1136.758,52.489 1144.094,52.489 1147.762,59.891 1144.094,67.293 
	"/>
<polygon fill="#3D3D3D" points="1136.758,88.866 1133.09,81.465 1136.758,74.063 1144.094,74.063 1147.762,81.465 1144.094,88.866 
	"/>
<polygon fill="#3D3D3D" points="1136.758,110.44 1133.09,103.038 1136.758,95.635 1144.094,95.635 1147.762,103.038 
	1144.094,110.44 "/>
<polygon fill="#3D3D3D" points="1151.803,34.934 1148.135,27.532 1151.803,20.131 1159.139,20.131 1162.807,27.532 1159.139,34.934 
	"/>
<polygon fill="#3D3D3D" points="1151.803,56.506 1148.135,49.106 1151.803,41.702 1159.139,41.702 1162.807,49.106 1159.139,56.506 
	"/>
<polygon fill="#3D3D3D" points="1151.803,78.081 1148.135,70.68 1151.803,63.276 1159.139,63.276 1162.807,70.68 1159.139,78.081 
	"/>
<polygon fill="#3D3D3D" points="1151.803,99.653 1148.135,92.25 1151.803,84.848 1159.139,84.848 1162.807,92.25 1159.139,99.653 
	"/>
<polygon fill="#3D3D3D" points="1151.803,121.227 1148.135,113.825 1151.803,106.422 1159.139,106.422 1162.807,113.825 
	1159.139,121.227 "/>
<polygon fill="#3D3D3D" points="1144.094,117.209 1136.758,117.209 1133.09,124.612 1147.762,124.612 "/>
<polygon fill="#3D3D3D" points="1167.766,24.147 1164.098,16.745 1167.766,9.342 1175.102,9.342 1178.77,16.745 1175.102,24.147 "/>
<polygon fill="#3D3D3D" points="1167.766,45.719 1164.098,38.319 1167.766,30.915 1175.102,30.915 1178.77,38.319 1175.102,45.719 
	"/>
<polygon fill="#3D3D3D" points="1167.766,67.293 1164.098,59.891 1167.766,52.489 1175.102,52.489 1178.77,59.891 1175.102,67.293 
	"/>
<polygon fill="#3D3D3D" points="1167.766,88.866 1164.098,81.465 1167.766,74.063 1175.102,74.063 1178.77,81.465 1175.102,88.866 
	"/>
<polygon fill="#3D3D3D" points="1167.766,110.44 1164.098,103.038 1167.766,95.635 1175.102,95.635 1178.77,103.038 
	1175.102,110.44 "/>
<polygon fill="#3D3D3D" points="1182.811,34.934 1179.143,27.532 1182.811,20.131 1190.146,20.131 1193.814,27.532 1190.146,34.934 
	"/>
<polygon fill="#3D3D3D" points="1182.811,56.506 1179.143,49.106 1182.811,41.702 1190.146,41.702 1193.814,49.106 1190.146,56.506 
	"/>
<polygon fill="#3D3D3D" points="1182.811,78.081 1179.143,70.68 1182.811,63.276 1190.146,63.276 1193.814,70.68 1190.146,78.081 
	"/>
<polygon fill="#3D3D3D" points="1182.811,99.653 1179.143,92.25 1182.811,84.848 1190.146,84.848 1193.814,92.25 1190.146,99.653 
	"/>
<polygon fill="#3D3D3D" points="1182.811,121.227 1179.143,113.825 1182.811,106.422 1190.146,106.422 1193.814,113.825 
	1190.146,121.227 "/>
<polygon fill="#3D3D3D" points="1175.102,117.209 1167.766,117.209 1164.098,124.612 1178.77,124.612 "/>
<polygon fill="#3D3D3D" points="1197.482,24.147 1193.814,16.745 1197.482,9.342 1204.818,9.342 1208.486,16.745 1204.818,24.147 
	"/>
<polygon fill="#3D3D3D" points="1197.482,45.719 1193.814,38.319 1197.482,30.915 1204.818,30.915 1208.486,38.319 1204.818,45.719 
	"/>
<polygon fill="#3D3D3D" points="1197.482,67.293 1193.814,59.891 1197.482,52.489 1204.818,52.489 1208.486,59.891 1204.818,67.293 
	"/>
<polygon fill="#3D3D3D" points="1197.482,88.866 1193.814,81.465 1197.482,74.063 1204.818,74.063 1208.486,81.465 1204.818,88.866 
	"/>
<polygon fill="#3D3D3D" points="1197.482,110.44 1193.814,103.038 1197.482,95.635 1204.818,95.635 1208.486,103.038 
	1204.818,110.44 "/>
<polygon fill="#3D3D3D" points="1212.527,34.934 1208.859,27.532 1212.527,20.131 1219.863,20.131 1223.531,27.532 1219.863,34.934 
	"/>
<polygon fill="#3D3D3D" points="1212.527,56.506 1208.859,49.106 1212.527,41.702 1219.863,41.702 1223.531,49.106 1219.863,56.506 
	"/>
<polygon fill="#3D3D3D" points="1212.527,78.081 1208.859,70.68 1212.527,63.276 1219.863,63.276 1223.531,70.68 1219.863,78.081 
	"/>
<polygon fill="#3D3D3D" points="1212.527,99.653 1208.859,92.25 1212.527,84.848 1219.863,84.848 1223.531,92.25 1219.863,99.653 
	"/>
<polygon fill="#3D3D3D" points="1212.527,121.227 1208.859,113.825 1212.527,106.422 1219.863,106.422 1223.531,113.825 
	1219.863,121.227 "/>
<polygon fill="#3D3D3D" points="1204.818,117.209 1197.482,117.209 1193.814,124.612 1208.486,124.612 "/>
<polygon fill="#3D3D3D" points="1228.49,24.147 1224.822,16.745 1228.49,9.342 1235.826,9.342 1239.494,16.745 1235.826,24.147 "/>
<polygon fill="#3D3D3D" points="1228.49,45.719 1224.822,38.319 1228.49,30.915 1235.826,30.915 1239.494,38.319 1235.826,45.719 
	"/>
<polygon fill="#3D3D3D" points="1228.49,67.293 1224.822,59.891 1228.49,52.489 1235.826,52.489 1239.494,59.891 1235.826,67.293 
	"/>
<polygon fill="#3D3D3D" points="1228.49,88.866 1224.822,81.465 1228.49,74.063 1235.826,74.063 1239.494,81.465 1235.826,88.866 
	"/>
<polygon fill="#3D3D3D" points="1228.49,110.44 1224.822,103.038 1228.49,95.635 1235.826,95.635 1239.494,103.038 1235.826,110.44 
	"/>
<polygon fill="#3D3D3D" points="1243.535,34.934 1239.867,27.532 1243.535,20.131 1250.871,20.131 1254.539,27.532 1250.871,34.934 
	"/>
<polygon fill="#3D3D3D" points="1243.535,56.506 1239.867,49.106 1243.535,41.702 1250.871,41.702 1254.539,49.106 1250.871,56.506 
	"/>
<polygon fill="#3D3D3D" points="1243.535,78.081 1239.867,70.68 1243.535,63.276 1250.871,63.276 1254.539,70.68 1250.871,78.081 
	"/>
<polygon fill="#3D3D3D" points="1243.535,99.653 1239.867,92.25 1243.535,84.848 1250.871,84.848 1254.539,92.25 1250.871,99.653 
	"/>
<polygon fill="#3D3D3D" points="1243.535,121.227 1239.867,113.825 1243.535,106.422 1250.871,106.422 1254.539,113.825 
	1250.871,121.227 "/>
<polygon fill="#3D3D3D" points="1235.826,117.209 1228.49,117.209 1224.822,124.612 1239.494,124.612 "/>
<polygon fill="#3D3D3D" points="727.93,34.934 724.262,27.532 727.93,20.131 735.266,20.131 738.934,27.532 735.266,34.934 "/>
<polygon fill="#3D3D3D" points="727.93,56.506 724.262,49.106 727.93,41.702 735.266,41.702 738.934,49.106 735.266,56.506 "/>
<polygon fill="#3D3D3D" points="727.93,78.081 724.262,70.68 727.93,63.276 735.266,63.276 738.934,70.68 735.266,78.081 "/>
<polygon fill="#3D3D3D" points="727.93,99.653 724.262,92.25 727.93,84.848 735.266,84.848 738.934,92.25 735.266,99.653 "/>
<polygon fill="#3D3D3D" points="727.93,121.227 724.262,113.825 727.93,106.422 735.266,106.422 738.934,113.825 735.266,121.227 
	"/>
<polygon fill="#3D3D3D" points="742.603,24.147 738.934,16.745 742.603,9.342 749.938,9.342 753.606,16.745 749.938,24.147 "/>
<polygon fill="#3D3D3D" points="742.603,45.719 738.934,38.319 742.603,30.915 749.938,30.915 753.606,38.319 749.938,45.719 "/>
<polygon fill="#3D3D3D" points="742.603,67.293 738.934,59.891 742.603,52.489 749.938,52.489 753.606,59.891 749.938,67.293 "/>
<polygon fill="#3D3D3D" points="742.603,88.866 738.934,81.465 742.603,74.063 749.938,74.063 753.606,81.465 749.938,88.866 "/>
<polygon fill="#3D3D3D" points="742.603,110.44 738.934,103.038 742.603,95.635 749.938,95.635 753.606,103.038 749.938,110.44 "/>
<polygon fill="#3D3D3D" points="757.647,34.934 753.979,27.532 757.647,20.131 764.983,20.131 768.651,27.532 764.983,34.934 "/>
<polygon fill="#3D3D3D" points="757.647,56.506 753.979,49.106 757.647,41.702 764.983,41.702 768.651,49.106 764.983,56.506 "/>
<polygon fill="#3D3D3D" points="757.647,78.081 753.979,70.68 757.647,63.276 764.983,63.276 768.651,70.68 764.983,78.081 "/>
<polygon fill="#3D3D3D" points="757.647,99.653 753.979,92.25 757.647,84.848 764.983,84.848 768.651,92.25 764.983,99.653 "/>
<polygon fill="#3D3D3D" points="757.647,121.227 753.979,113.825 757.647,106.422 764.983,106.422 768.651,113.825 764.983,121.227 
	"/>
<polygon fill="#3D3D3D" points="749.938,117.209 742.603,117.209 738.934,124.612 753.606,124.612 "/>
<polygon fill="#3D3D3D" points="773.609,24.147 769.941,16.745 773.609,9.342 780.945,9.342 784.613,16.745 780.945,24.147 "/>
<polygon fill="#3D3D3D" points="773.609,45.719 769.941,38.319 773.609,30.915 780.945,30.915 784.613,38.319 780.945,45.719 "/>
<polygon fill="#3D3D3D" points="773.609,67.293 769.941,59.891 773.609,52.489 780.945,52.489 784.613,59.891 780.945,67.293 "/>
<polygon fill="#3D3D3D" points="773.609,88.866 769.941,81.465 773.609,74.063 780.945,74.063 784.613,81.465 780.945,88.866 "/>
<polygon fill="#3D3D3D" points="773.609,110.44 769.941,103.038 773.609,95.635 780.945,95.635 784.613,103.038 780.945,110.44 "/>
<polygon fill="#3D3D3D" points="788.654,34.934 784.986,27.532 788.654,20.131 795.99,20.131 799.658,27.532 795.99,34.934 "/>
<polygon fill="#3D3D3D" points="788.654,56.506 784.986,49.106 788.654,41.702 795.99,41.702 799.658,49.106 795.99,56.506 "/>
<polygon fill="#3D3D3D" points="788.654,78.081 784.986,70.68 788.654,63.276 795.99,63.276 799.658,70.68 795.99,78.081 "/>
<polygon fill="#3D3D3D" points="788.654,99.653 784.986,92.25 788.654,84.848 795.99,84.848 799.658,92.25 795.99,99.653 "/>
<polygon fill="#3D3D3D" points="788.654,121.227 784.986,113.825 788.654,106.422 795.99,106.422 799.658,113.825 795.99,121.227 
	"/>
<polygon fill="#3D3D3D" points="780.945,117.209 773.609,117.209 769.941,124.612 784.613,124.612 "/>
<polygon fill="#3D3D3D" points="803.326,24.147 799.658,16.745 803.326,9.342 810.662,9.342 814.33,16.745 810.662,24.147 "/>
<polygon fill="#3D3D3D" points="803.326,45.719 799.658,38.319 803.326,30.915 810.662,30.915 814.33,38.319 810.662,45.719 "/>
<polygon fill="#3D3D3D" points="803.326,67.293 799.658,59.891 803.326,52.489 810.662,52.489 814.33,59.891 810.662,67.293 "/>
<polygon fill="#3D3D3D" points="803.326,88.866 799.658,81.465 803.326,74.063 810.662,74.063 814.33,81.465 810.662,88.866 "/>
<polygon fill="#3D3D3D" points="803.326,110.44 799.658,103.038 803.326,95.635 810.662,95.635 814.33,103.038 810.662,110.44 "/>
<polygon fill="#3D3D3D" points="818.371,34.934 814.703,27.532 818.371,20.131 825.707,20.131 829.375,27.532 825.707,34.934 "/>
<polygon fill="#3D3D3D" points="818.371,56.506 814.703,49.106 818.371,41.702 825.707,41.702 829.375,49.106 825.707,56.506 "/>
<polygon fill="#3D3D3D" points="818.371,78.081 814.703,70.68 818.371,63.276 825.707,63.276 829.375,70.68 825.707,78.081 "/>
<polygon fill="#3D3D3D" points="818.371,99.653 814.703,92.25 818.371,84.848 825.707,84.848 829.375,92.25 825.707,99.653 "/>
<polygon fill="#3D3D3D" points="818.371,121.227 814.703,113.825 818.371,106.422 825.707,106.422 829.375,113.825 825.707,121.227 
	"/>
<polygon fill="#3D3D3D" points="810.662,117.209 803.326,117.209 799.658,124.612 814.33,124.612 "/>
<polygon fill="#3D3D3D" points="834.334,24.147 830.666,16.745 834.334,9.342 841.67,9.342 845.338,16.745 841.67,24.147 "/>
<polygon fill="#3D3D3D" points="834.334,45.719 830.666,38.319 834.334,30.915 841.67,30.915 845.338,38.319 841.67,45.719 "/>
<polygon fill="#3D3D3D" points="834.334,67.293 830.666,59.891 834.334,52.489 841.67,52.489 845.338,59.891 841.67,67.293 "/>
<polygon fill="#3D3D3D" points="834.334,88.866 830.666,81.465 834.334,74.063 841.67,74.063 845.338,81.465 841.67,88.866 "/>
<polygon fill="#3D3D3D" points="834.334,110.44 830.666,103.038 834.334,95.635 841.67,95.635 845.338,103.038 841.67,110.44 "/>
<polygon fill="#3D3D3D" points="849.379,34.934 845.711,27.532 849.379,20.131 856.715,20.131 860.383,27.532 856.715,34.934 "/>
<polygon fill="#3D3D3D" points="849.379,56.506 845.711,49.106 849.379,41.702 856.715,41.702 860.383,49.106 856.715,56.506 "/>
<polygon fill="#3D3D3D" points="849.379,78.081 845.711,70.68 849.379,63.276 856.715,63.276 860.383,70.68 856.715,78.081 "/>
<polygon fill="#3D3D3D" points="849.379,99.653 845.711,92.25 849.379,84.848 856.715,84.848 860.383,92.25 856.715,99.653 "/>
<polygon fill="#3D3D3D" points="849.379,121.227 845.711,113.825 849.379,106.422 856.715,106.422 860.383,113.825 856.715,121.227 
	"/>
<polygon fill="#3D3D3D" points="841.67,117.209 834.334,117.209 830.666,124.612 845.338,124.612 "/>
<polygon fill="#3D3D3D" points="864.051,24.147 860.383,16.745 864.051,9.342 871.387,9.342 875.055,16.745 871.387,24.147 "/>
<polygon fill="#3D3D3D" points="864.051,45.719 860.383,38.319 864.051,30.915 871.387,30.915 875.055,38.319 871.387,45.719 "/>
<polygon fill="#3D3D3D" points="864.051,67.293 860.383,59.891 864.051,52.489 871.387,52.489 875.055,59.891 871.387,67.293 "/>
<polygon fill="#3D3D3D" points="864.051,88.866 860.383,81.465 864.051,74.063 871.387,74.063 875.055,81.465 871.387,88.866 "/>
<polygon fill="#3D3D3D" points="864.051,110.44 860.383,103.038 864.051,95.635 871.387,95.635 875.055,103.038 871.387,110.44 "/>
<polygon fill="#3D3D3D" points="879.096,34.934 875.428,27.532 879.096,20.131 886.432,20.131 890.1,27.532 886.432,34.934 "/>
<polygon fill="#3D3D3D" points="879.096,56.506 875.428,49.106 879.096,41.702 886.432,41.702 890.1,49.106 886.432,56.506 "/>
<polygon fill="#3D3D3D" points="879.096,78.081 875.428,70.68 879.096,63.276 886.432,63.276 890.1,70.68 886.432,78.081 "/>
<polygon fill="#3D3D3D" points="879.096,99.653 875.428,92.25 879.096,84.848 886.432,84.848 890.1,92.25 886.432,99.653 "/>
<polygon fill="#3D3D3D" points="879.096,121.227 875.428,113.825 879.096,106.422 886.432,106.422 890.1,113.825 886.432,121.227 
	"/>
<polygon fill="#3D3D3D" points="871.387,117.209 864.051,117.209 860.383,124.612 875.055,124.612 "/>
<polygon fill="#3D3D3D" points="895.059,24.147 891.391,16.745 895.059,9.342 902.395,9.342 906.063,16.745 902.395,24.147 "/>
<polygon fill="#3D3D3D" points="895.059,45.719 891.391,38.319 895.059,30.915 902.395,30.915 906.063,38.319 902.395,45.719 "/>
<polygon fill="#3D3D3D" points="895.059,67.293 891.391,59.891 895.059,52.489 902.395,52.489 906.063,59.891 902.395,67.293 "/>
<polygon fill="#3D3D3D" points="895.059,88.866 891.391,81.465 895.059,74.063 902.395,74.063 906.063,81.465 902.395,88.866 "/>
<polygon fill="#3D3D3D" points="895.059,110.44 891.391,103.038 895.059,95.635 902.395,95.635 906.063,103.038 902.395,110.44 "/>
<polygon fill="#3D3D3D" points="902.395,117.209 895.059,117.209 891.391,124.612 906.063,124.612 "/>
<g>
	<g>
		<defs>
			<path id="SVGID_12_" d="M990.692,10.387l3.465,0.111l0.779,18.648l-12.834,2.547c-5.125,1.016-9.802-3.584-9.802-9.639v-2.27
				c0-2.75,1.589-5.156,3.87-5.863l8.713-2.695c1.695-0.488,3.802-0.842,5.578-0.842C990.54,10.385,990.616,10.387,990.692,10.387"
				/>
		</defs>
		<clipPath id="SVGID_13_">
			<use xlink:href="#SVGID_12_"  overflow="visible"/>
		</clipPath>
		
			<linearGradient id="SVGID_14_" gradientUnits="userSpaceOnUse" x1="-590.4111" y1="330.0703" x2="-589.3352" y2="330.0703" gradientTransform="matrix(21.6019 8.6407 8.6407 -21.6019 10871.3721 12247.5791)">
			<stop  offset="0" style="stop-color:#E1E0DF"/>
			<stop  offset="1" style="stop-color:#666666"/>
		</linearGradient>
		<polygon clip-path="url(#SVGID_13_)" fill="url(#SVGID_14_)" points="975.423,1.292 1001.543,13.465 991.814,41.803 
			965.694,29.629 		"/>
	</g>
	<g>
		<defs>
			<path id="SVGID_15_" d="M980.282,104.708l14.654,3.271l-1.686,18.52c-3.117,0-6.221-0.475-9.232-1.41l-5.184-1.609
				c-3.854-1.199-6.534-5.266-6.533-9.912v-1.17c0-4.404,3.082-7.832,6.703-7.832C979.425,104.565,979.853,104.612,980.282,104.708"
				/>
		</defs>
		<clipPath id="SVGID_16_">
			<use xlink:href="#SVGID_15_"  overflow="visible"/>
		</clipPath>
		
			<linearGradient id="SVGID_17_" gradientUnits="userSpaceOnUse" x1="-859.8633" y1="493.6152" x2="-858.8636" y2="493.6152" gradientTransform="matrix(14.9609 0 0 -14.9609 13834.2275 7500.4614)">
			<stop  offset="0" style="stop-color:#E1E0DF"/>
			<stop  offset="1" style="stop-color:#666666"/>
		</linearGradient>
		<rect x="972.301" y="104.565" clip-path="url(#SVGID_16_)" fill="url(#SVGID_17_)" width="22.636" height="21.934"/>
	</g>
	<g>
		<defs>
			<path id="SVGID_18_" d="M993.251,10.391c5.453,0,9.873,5.148,9.873,11.504v93.098c0,6.355-4.42,11.506-9.873,11.506
				c-5.451,0-9.873-5.15-9.873-11.506V21.895C983.378,15.54,987.8,10.391,993.251,10.391L993.251,10.391z"/>
		</defs>
		<clipPath id="SVGID_19_">
			<use xlink:href="#SVGID_18_"  overflow="visible"/>
		</clipPath>
		
			<linearGradient id="SVGID_20_" gradientUnits="userSpaceOnUse" x1="324.5537" y1="479.9102" x2="325.5537" y2="479.9102" gradientTransform="matrix(-19.747 0 0 19.747 7412.0684 -9408.3213)">
			<stop  offset="0" style="stop-color:#CCCDCD"/>
			<stop  offset="0.4731" style="stop-color:#E1E0DF"/>
			<stop  offset="1" style="stop-color:#666666"/>
		</linearGradient>
		<rect x="983.378" y="10.391" clip-path="url(#SVGID_19_)" fill="url(#SVGID_20_)" width="19.746" height="116.107"/>
	</g>
</g>
<polygon fill="#3D3D3D" points="932.205,364.715 924.869,364.715 921.2,371.066 935.873,371.066 "/>
<polygon fill="#3D3D3D" points="961.922,364.715 954.586,364.715 950.918,371.066 965.59,371.066 "/>
<polygon fill="#3D3D3D" points="992.929,364.715 985.593,364.715 981.925,371.066 996.597,371.066 "/>
<polygon fill="#3D3D3D" points="1022.646,364.715 1015.31,364.715 1011.642,371.066 1026.314,371.066 "/>
<polygon fill="#3D3D3D" points="1053.652,364.715 1046.316,364.715 1042.648,371.066 1057.321,371.066 "/>
<polygon fill="#3D3D3D" points="1083.37,364.715 1076.034,364.715 1072.365,371.066 1087.038,371.066 "/>
<polygon fill="#3D3D3D" points="1114.377,364.715 1107.041,364.715 1103.373,371.066 1118.045,371.066 "/>
<polygon fill="#3D3D3D" points="1144.094,364.715 1136.758,364.715 1133.09,371.066 1147.762,371.066 "/>
<polygon fill="#3D3D3D" points="1175.102,364.715 1167.766,364.715 1164.098,371.066 1178.77,371.066 "/>
<polygon fill="#3D3D3D" points="1204.818,364.715 1197.482,364.715 1193.814,371.066 1208.486,371.066 "/>
<polygon fill="#3D3D3D" points="1235.826,364.715 1228.49,364.715 1224.822,371.066 1239.494,371.066 "/>
<polygon fill="#3D3D3D" points="749.938,364.715 742.603,364.715 738.934,371.066 753.606,371.066 "/>
<polygon fill="#3D3D3D" points="780.945,364.715 773.609,364.715 769.941,371.066 784.613,371.066 "/>
<polygon fill="#3D3D3D" points="810.662,364.715 803.326,364.715 799.658,371.066 814.33,371.066 "/>
<polygon fill="#3D3D3D" points="841.67,364.715 834.334,364.715 830.666,371.066 845.338,371.066 "/>
<polygon fill="#3D3D3D" points="871.387,364.715 864.051,364.715 860.383,371.066 875.055,371.066 "/>
<polygon fill="#3D3D3D" points="902.395,364.715 895.059,364.715 891.391,371.066 906.063,371.066 "/>
<path fill="#C9C9C9" d="M9.299,365.066c0,3.18,2.268,5.756,5.066,5.756h1240.639c2.797,0,5.066-2.576,5.066-5.756V262.633
	c0-3.178-2.27-5.754-5.066-5.754H14.365c-2.799,0-5.066,2.576-5.066,5.754V365.066z"/>
<g>
	<path fill="#4F4F4F" d="M711.668,293.045c3.004,3.857,8.16,4.182,11.52,0.717c3.354-3.463,3.637-9.4,0.631-13.258
		c-3.004-3.857-8.161-4.18-11.518-0.717C708.943,283.25,708.66,289.186,711.668,293.045"/>
	<path fill="#AFAFAF" d="M713.277,291.381c2.209,2.836,5.998,3.072,8.465,0.527c2.466-2.545,2.676-6.906,0.463-9.742
		c-2.206-2.834-5.998-3.07-8.461-0.525C711.277,284.184,711.07,288.549,713.277,291.381"/>
	<path fill="none" stroke="#939393" stroke-miterlimit="10" d="M713.277,291.381c2.209,2.836,5.998,3.072,8.465,0.527
		c2.466-2.545,2.676-6.906,0.463-9.742c-2.206-2.834-5.998-3.07-8.461-0.525C711.277,284.184,711.07,288.549,713.277,291.381z"/>
	<g>
		<g>
			<defs>
				<polygon id="SVGID_21_" points="725.721,287.268 717.303,295.957 709.766,286.279 718.184,277.59 				"/>
			</defs>
			<clipPath id="SVGID_22_">
				<use xlink:href="#SVGID_21_"  overflow="visible"/>
			</clipPath>
			<path clip-path="url(#SVGID_22_)" fill="#BEBFBF" d="M713.534,291.117c2.081,2.672,5.655,2.895,7.978,0.496
				c2.324-2.398,2.52-6.508,0.438-9.182c-2.083-2.672-5.651-2.895-7.975-0.496C711.649,284.334,711.453,288.445,713.534,291.117"/>
			<path clip-path="url(#SVGID_22_)" fill="#C0C1C1" d="M713.635,291.016c2.032,2.609,5.519,2.826,7.788,0.482
				c2.269-2.342,2.46-6.355,0.429-8.965c-2.035-2.609-5.52-2.826-7.789-0.482C711.793,284.391,711.602,288.404,713.635,291.016"/>
			<path clip-path="url(#SVGID_22_)" fill="#C3C4C4" d="M713.734,290.912c1.982,2.547,5.387,2.758,7.6,0.475
				c2.217-2.285,2.4-6.203,0.418-8.75c-1.983-2.547-5.387-2.76-7.602-0.475C711.936,284.449,711.75,288.367,713.734,290.912"/>
			<path clip-path="url(#SVGID_22_)" fill="#C5C6C6" d="M713.831,290.811c1.935,2.482,5.255,2.689,7.415,0.461
				c2.158-2.23,2.344-6.051,0.407-8.533c-1.935-2.484-5.253-2.691-7.413-0.463C712.08,284.506,711.896,288.326,713.831,290.811"/>
			<path clip-path="url(#SVGID_22_)" fill="#C7C9C9" d="M713.932,290.709c1.885,2.42,5.121,2.621,7.227,0.449
				c2.104-2.174,2.282-5.898,0.396-8.318c-1.887-2.42-5.121-2.621-7.227-0.451C712.225,284.563,712.045,288.289,713.932,290.709"/>
			<path clip-path="url(#SVGID_22_)" fill="#CACBCB" d="M714.029,290.605c1.838,2.357,4.988,2.555,7.039,0.439
				c2.051-2.117,2.225-5.744,0.389-8.102c-1.84-2.359-4.992-2.555-7.04-0.439C712.367,284.621,712.195,288.246,714.029,290.605"/>
			<path clip-path="url(#SVGID_22_)" fill="#CCCECE" d="M714.127,290.504c1.79,2.295,4.857,2.484,6.853,0.426
				c1.997-2.059,2.165-5.59,0.377-7.883c-1.788-2.297-4.854-2.49-6.852-0.43S712.341,288.207,714.127,290.504"/>
			<path clip-path="url(#SVGID_22_)" fill="#CED0D0" d="M714.229,290.404c1.737,2.23,4.723,2.416,6.662,0.41
				c1.941-2.002,2.106-5.438,0.367-7.668c-1.739-2.232-4.723-2.418-6.666-0.416C712.652,284.734,712.488,288.17,714.229,290.404"/>
			<path clip-path="url(#SVGID_22_)" fill="#D1D3D3" d="M714.328,290.301c1.689,2.17,4.587,2.348,6.475,0.402
				c1.888-1.947,2.045-5.285,0.357-7.453c-1.691-2.17-4.591-2.352-6.477-0.404C712.795,284.793,712.637,288.131,714.328,290.301"/>
			<path clip-path="url(#SVGID_22_)" fill="#D3D5D5" d="M714.426,290.197c1.641,2.105,4.457,2.281,6.287,0.391
				c1.833-1.891,1.987-5.129,0.346-7.238c-1.639-2.104-4.455-2.281-6.287-0.389C712.939,284.852,712.785,288.09,714.426,290.197"/>
		</g>
	</g>
	<polygon fill="#605F5E" points="720.558,289.115 718.785,286.838 720.768,284.795 719.778,283.529 717.8,285.574 716.025,283.297 
		714.928,284.432 716.697,286.711 714.719,288.752 715.706,290.018 717.685,287.973 719.459,290.25 	"/>
	<path fill="#231815" d="M716.018,283.504l1.602,2.061l0.171,0.219l0.19-0.199l1.788-1.846l0.813,1.045l-1.789,1.848l-0.189,0.195
		l0.172,0.221l1.602,2.057l-0.908,0.941l-1.604-2.061l-0.171-0.221l-0.19,0.197l-1.79,1.85l-0.815-1.047l1.791-1.846l0.193-0.197
		l-0.174-0.219l-1.604-2.059L716.018,283.504z M716.521,286.699l-1.981,2.043l1.157,1.482l1.979-2.043l1.776,2.277l1.287-1.332
		l-1.773-2.277l1.98-2.043l-1.154-1.484l-1.981,2.043l-1.772-2.273l-1.292,1.328L716.521,286.699z"/>
</g>
<g>
	<g>
		<defs>
			<path id="SVGID_23_" d="M997.7,257.988l3.465,0.111l0.779,18.42l-12.834,2.516c-5.125,1.002-9.802-3.541-9.802-9.521v-2.242
				c0-2.717,1.589-5.094,3.87-5.791l8.713-2.662c1.695-0.482,3.802-0.832,5.578-0.832
				C997.548,257.986,997.624,257.988,997.7,257.988"/>
		</defs>
		<clipPath id="SVGID_24_">
			<use xlink:href="#SVGID_23_"  overflow="visible"/>
		</clipPath>
		
			<linearGradient id="SVGID_25_" gradientUnits="userSpaceOnUse" x1="-558.001" y1="331.5781" x2="-556.9315" y2="331.5781" gradientTransform="matrix(21.6019 8.6407 8.6407 -21.6019 10165.3252 12247.5791)">
			<stop  offset="0" style="stop-color:#E1E0DF"/>
			<stop  offset="1" style="stop-color:#666666"/>
		</linearGradient>
		<polygon clip-path="url(#SVGID_24_)" fill="url(#SVGID_25_)" points="982.431,249.004 1008.551,261.029 998.822,289.021 
			972.702,276.996 		"/>
	</g>
	<g>
		<defs>
			<path id="SVGID_26_" d="M987.29,351.16l14.654,3.232l-1.686,18.295c-3.117,0-6.221-0.469-9.232-1.395l-5.184-1.59
				c-3.854-1.184-6.534-5.199-6.533-9.791v-1.156c0-4.35,3.082-7.736,6.703-7.736C986.433,351.02,986.86,351.066,987.29,351.16"/>
		</defs>
		<clipPath id="SVGID_27_">
			<use xlink:href="#SVGID_26_"  overflow="visible"/>
		</clipPath>
		
			<linearGradient id="SVGID_28_" gradientUnits="userSpaceOnUse" x1="-812.2017" y1="477.1504" x2="-811.2017" y2="477.1504" gradientTransform="matrix(14.9609 0 0 -14.9609 13128.1729 7500.4614)">
			<stop  offset="0" style="stop-color:#E1E0DF"/>
			<stop  offset="1" style="stop-color:#666666"/>
		</linearGradient>
		<rect x="979.309" y="351.02" clip-path="url(#SVGID_27_)" fill="url(#SVGID_28_)" width="22.636" height="21.668"/>
	</g>
	<g>
		<defs>
			<path id="SVGID_29_" d="M1000.259,257.992c5.453,0,9.873,5.086,9.873,11.363v91.965c0,6.279-4.42,11.367-9.873,11.367
				c-5.451,0-9.873-5.088-9.873-11.367v-91.965C990.386,263.078,994.808,257.992,1000.259,257.992L1000.259,257.992z"/>
		</defs>
		<clipPath id="SVGID_30_">
			<use xlink:href="#SVGID_29_"  overflow="visible"/>
		</clipPath>
		
			<linearGradient id="SVGID_31_" gradientUnits="userSpaceOnUse" x1="288.4438" y1="492.4121" x2="289.4438" y2="492.4121" gradientTransform="matrix(-19.747 0 0 19.747 6706.0215 -9408.3213)">
			<stop  offset="0" style="stop-color:#CCCDCD"/>
			<stop  offset="0.4731" style="stop-color:#E1E0DF"/>
			<stop  offset="1" style="stop-color:#666666"/>
		</linearGradient>
		<rect x="990.386" y="257.992" clip-path="url(#SVGID_30_)" fill="url(#SVGID_31_)" width="19.746" height="114.695"/>
	</g>
</g>
<polygon fill="#3D3D3D" points="360.463,282.236 364.131,274.924 360.463,267.613 353.127,267.613 349.459,274.924 353.127,282.236 
	"/>
<polygon fill="#3D3D3D" points="360.463,303.547 364.131,296.234 360.463,288.922 353.127,288.922 349.459,296.234 353.127,303.547 
	"/>
<polygon fill="#3D3D3D" points="360.463,324.857 364.131,317.547 360.463,310.234 353.127,310.234 349.459,317.547 353.127,324.857 
	"/>
<polygon fill="#3D3D3D" points="360.463,346.168 364.131,338.855 360.463,331.543 353.127,331.543 349.459,338.855 353.127,346.168 
	"/>
<polygon fill="#3D3D3D" points="360.463,367.479 364.131,360.168 360.463,352.855 353.127,352.855 349.459,360.168 353.127,367.479 
	"/>
<polygon fill="#3D3D3D" points="344.5,271.58 348.169,264.27 344.5,256.957 337.164,256.957 333.496,264.27 337.164,271.58 "/>
<polygon fill="#3D3D3D" points="344.5,292.891 348.169,285.58 344.5,278.266 337.164,278.266 333.496,285.58 337.164,292.891 "/>
<polygon fill="#3D3D3D" points="344.5,314.201 348.169,306.891 344.5,299.578 337.164,299.578 333.496,306.891 337.164,314.201 "/>
<polygon fill="#3D3D3D" points="344.5,335.512 348.169,328.201 344.5,320.889 337.164,320.889 333.496,328.201 337.164,335.512 "/>
<polygon fill="#3D3D3D" points="344.5,356.824 348.169,349.512 344.5,342.199 337.164,342.199 333.496,349.512 337.164,356.824 "/>
<polygon fill="#3D3D3D" points="329.456,282.236 333.124,274.924 329.456,267.613 322.119,267.613 318.451,274.924 322.119,282.236 
	"/>
<polygon fill="#3D3D3D" points="329.456,303.547 333.124,296.234 329.456,288.922 322.119,288.922 318.451,296.234 322.119,303.547 
	"/>
<polygon fill="#3D3D3D" points="329.456,324.857 333.124,317.547 329.456,310.234 322.119,310.234 318.451,317.547 322.119,324.857 
	"/>
<polygon fill="#3D3D3D" points="329.456,346.168 333.124,338.855 329.456,331.543 322.119,331.543 318.451,338.855 322.119,346.168 
	"/>
<polygon fill="#3D3D3D" points="329.456,367.479 333.124,360.168 329.456,352.855 322.119,352.855 318.451,360.168 322.119,367.479 
	"/>
<polygon fill="#3D3D3D" points="314.783,271.58 318.451,264.27 314.783,256.957 307.447,256.957 303.779,264.27 307.447,271.58 "/>
<polygon fill="#3D3D3D" points="314.783,292.891 318.451,285.58 314.783,278.266 307.447,278.266 303.779,285.58 307.447,292.891 
	"/>
<polygon fill="#3D3D3D" points="314.783,314.201 318.451,306.891 314.783,299.578 307.447,299.578 303.779,306.891 307.447,314.201 
	"/>
<polygon fill="#3D3D3D" points="314.783,335.512 318.451,328.201 314.783,320.889 307.447,320.889 303.779,328.201 307.447,335.512 
	"/>
<polygon fill="#3D3D3D" points="314.783,356.824 318.451,349.512 314.783,342.199 307.447,342.199 303.779,349.512 307.447,356.824 
	"/>
<polygon fill="#3D3D3D" points="299.738,282.236 303.406,274.924 299.738,267.613 292.402,267.613 288.734,274.924 292.402,282.236 
	"/>
<polygon fill="#3D3D3D" points="299.738,303.547 303.406,296.234 299.738,288.922 292.402,288.922 288.734,296.234 292.402,303.547 
	"/>
<polygon fill="#3D3D3D" points="299.738,324.857 303.406,317.547 299.738,310.234 292.402,310.234 288.734,317.547 292.402,324.857 
	"/>
<polygon fill="#3D3D3D" points="299.738,346.168 303.406,338.855 299.738,331.543 292.402,331.543 288.734,338.855 292.402,346.168 
	"/>
<polygon fill="#3D3D3D" points="268.731,282.236 272.399,274.924 268.731,267.613 261.396,267.613 257.728,274.924 261.396,282.236 
	"/>
<polygon fill="#3D3D3D" points="268.731,303.547 272.399,296.234 268.731,288.922 261.396,288.922 257.728,296.234 261.396,303.547 
	"/>
<polygon fill="#3D3D3D" points="268.731,324.857 272.399,317.547 268.731,310.234 261.396,310.234 257.728,317.547 261.396,324.857 
	"/>
<polygon fill="#3D3D3D" points="268.731,346.168 272.399,338.855 268.731,331.543 261.396,331.543 257.728,338.855 261.396,346.168 
	"/>
<polygon fill="#3D3D3D" points="254.06,271.58 257.728,264.27 254.06,256.957 246.723,256.957 243.055,264.27 246.723,271.58 "/>
<polygon fill="#3D3D3D" points="254.06,292.891 257.728,285.58 254.06,278.266 246.723,278.266 243.055,285.58 246.723,292.891 "/>
<polygon fill="#3D3D3D" points="254.06,314.201 257.728,306.891 254.06,299.578 246.723,299.578 243.055,306.891 246.723,314.201 
	"/>
<polygon fill="#3D3D3D" points="254.06,335.512 257.728,328.201 254.06,320.889 246.723,320.889 243.055,328.201 246.723,335.512 
	"/>
<polygon fill="#3D3D3D" points="254.06,356.824 257.728,349.512 254.06,342.199 246.723,342.199 243.055,349.512 246.723,356.824 
	"/>
<polygon fill="#3D3D3D" points="239.015,282.236 242.683,274.924 239.015,267.613 231.678,267.613 228.01,274.924 231.678,282.236 
	"/>
<polygon fill="#3D3D3D" points="239.015,303.547 242.683,296.234 239.015,288.922 231.678,288.922 228.01,296.234 231.678,303.547 
	"/>
<polygon fill="#3D3D3D" points="239.015,324.857 242.683,317.547 239.015,310.234 231.678,310.234 228.01,317.547 231.678,324.857 
	"/>
<polygon fill="#3D3D3D" points="239.015,346.168 242.683,338.855 239.015,331.543 231.678,331.543 228.01,338.855 231.678,346.168 
	"/>
<polygon fill="#3D3D3D" points="239.015,367.479 242.683,360.168 239.015,352.855 231.678,352.855 228.01,360.168 231.678,367.479 
	"/>
<polygon fill="#3D3D3D" points="223.053,271.58 226.721,264.27 223.053,256.957 215.717,256.957 212.048,264.27 215.717,271.58 "/>
<polygon fill="#3D3D3D" points="223.053,292.891 226.721,285.58 223.053,278.266 215.717,278.266 212.048,285.58 215.717,292.891 
	"/>
<polygon fill="#3D3D3D" points="223.053,314.201 226.721,306.891 223.053,299.578 215.717,299.578 212.048,306.891 215.717,314.201 
	"/>
<polygon fill="#3D3D3D" points="223.053,335.512 226.721,328.201 223.053,320.889 215.717,320.889 212.048,328.201 215.717,335.512 
	"/>
<polygon fill="#3D3D3D" points="223.053,356.824 226.721,349.512 223.053,342.199 215.717,342.199 212.048,349.512 215.717,356.824 
	"/>
<polygon fill="#3D3D3D" points="208.008,282.236 211.676,274.924 208.008,267.613 200.672,267.613 197.004,274.924 200.672,282.236 
	"/>
<polygon fill="#3D3D3D" points="208.008,303.547 211.676,296.234 208.008,288.922 200.672,288.922 197.004,296.234 200.672,303.547 
	"/>
<polygon fill="#3D3D3D" points="208.008,324.857 211.676,317.547 208.008,310.234 200.672,310.234 197.004,317.547 200.672,324.857 
	"/>
<polygon fill="#3D3D3D" points="208.008,346.168 211.676,338.855 208.008,331.543 200.672,331.543 197.004,338.855 200.672,346.168 
	"/>
<polygon fill="#3D3D3D" points="208.008,367.479 211.676,360.168 208.008,352.855 200.672,352.855 197.004,360.168 200.672,367.479 
	"/>
<polygon fill="#3D3D3D" points="193.335,271.58 197.004,264.27 193.335,256.957 185.999,256.957 182.331,264.27 185.999,271.58 "/>
<polygon fill="#3D3D3D" points="193.335,292.891 197.004,285.58 193.335,278.266 185.999,278.266 182.331,285.58 185.999,292.891 
	"/>
<polygon fill="#3D3D3D" points="193.335,314.201 197.004,306.891 193.335,299.578 185.999,299.578 182.331,306.891 185.999,314.201 
	"/>
<polygon fill="#3D3D3D" points="193.335,335.512 197.004,328.201 193.335,320.889 185.999,320.889 182.331,328.201 185.999,335.512 
	"/>
<polygon fill="#3D3D3D" points="193.335,356.824 197.004,349.512 193.335,342.199 185.999,342.199 182.331,349.512 185.999,356.824 
	"/>
<polygon fill="#3D3D3D" points="178.29,282.236 181.959,274.924 178.29,267.613 170.954,267.613 167.286,274.924 170.954,282.236 
	"/>
<polygon fill="#3D3D3D" points="178.29,303.547 181.959,296.234 178.29,288.922 170.954,288.922 167.286,296.234 170.954,303.547 
	"/>
<polygon fill="#3D3D3D" points="178.29,324.857 181.959,317.547 178.29,310.234 170.954,310.234 167.286,317.547 170.954,324.857 
	"/>
<polygon fill="#3D3D3D" points="178.29,346.168 181.959,338.855 178.29,331.543 170.954,331.543 167.286,338.855 170.954,346.168 
	"/>
<polygon fill="#3D3D3D" points="178.29,367.479 181.959,360.168 178.29,352.855 170.954,352.855 167.286,360.168 170.954,367.479 
	"/>
<polygon fill="#3D3D3D" points="162.328,271.58 165.996,264.27 162.328,256.957 154.992,256.957 151.324,264.27 154.992,271.58 "/>
<polygon fill="#3D3D3D" points="162.328,292.891 165.996,285.58 162.328,278.266 154.992,278.266 151.324,285.58 154.992,292.891 
	"/>
<polygon fill="#3D3D3D" points="162.328,314.201 165.996,306.891 162.328,299.578 154.992,299.578 151.324,306.891 154.992,314.201 
	"/>
<polygon fill="#3D3D3D" points="162.328,335.512 165.996,328.201 162.328,320.889 154.992,320.889 151.324,328.201 154.992,335.512 
	"/>
<polygon fill="#3D3D3D" points="162.328,356.824 165.996,349.512 162.328,342.199 154.992,342.199 151.324,349.512 154.992,356.824 
	"/>
<polygon fill="#3D3D3D" points="147.283,282.236 150.951,274.924 147.283,267.613 139.947,267.613 136.279,274.924 139.947,282.236 
	"/>
<polygon fill="#3D3D3D" points="147.283,303.547 150.951,296.234 147.283,288.922 139.947,288.922 136.279,296.234 139.947,303.547 
	"/>
<polygon fill="#3D3D3D" points="147.283,324.857 150.951,317.547 147.283,310.234 139.947,310.234 136.279,317.547 139.947,324.857 
	"/>
<polygon fill="#3D3D3D" points="147.283,346.168 150.951,338.855 147.283,331.543 139.947,331.543 136.279,338.855 139.947,346.168 
	"/>
<polygon fill="#3D3D3D" points="147.283,367.479 150.951,360.168 147.283,352.855 139.947,352.855 136.279,360.168 139.947,367.479 
	"/>
<polygon fill="#3D3D3D" points="132.611,271.58 136.279,264.27 132.611,256.957 125.275,256.957 121.607,264.27 125.275,271.58 "/>
<polygon fill="#3D3D3D" points="132.611,292.891 136.279,285.58 132.611,278.266 125.275,278.266 121.607,285.58 125.275,292.891 
	"/>
<polygon fill="#3D3D3D" points="132.611,314.201 136.279,306.891 132.611,299.578 125.275,299.578 121.607,306.891 125.275,314.201 
	"/>
<polygon fill="#3D3D3D" points="132.611,335.512 136.279,328.201 132.611,320.889 125.275,320.889 121.607,328.201 125.275,335.512 
	"/>
<polygon fill="#3D3D3D" points="132.611,356.824 136.279,349.512 132.611,342.199 125.275,342.199 121.607,349.512 125.275,356.824 
	"/>
<polygon fill="#3D3D3D" points="117.566,282.236 121.234,274.924 117.566,267.613 110.23,267.613 106.563,274.924 110.23,282.236 
	"/>
<polygon fill="#3D3D3D" points="117.566,303.547 121.234,296.234 117.566,288.922 110.23,288.922 106.563,296.234 110.23,303.547 
	"/>
<polygon fill="#3D3D3D" points="117.566,324.857 121.234,317.547 117.566,310.234 110.23,310.234 106.563,317.547 110.23,324.857 
	"/>
<polygon fill="#3D3D3D" points="117.566,346.168 121.234,338.855 117.566,331.543 110.23,331.543 106.563,338.855 110.23,346.168 
	"/>
<polygon fill="#3D3D3D" points="117.566,367.479 121.234,360.168 117.566,352.855 110.23,352.855 106.563,360.168 110.23,367.479 
	"/>
<polygon fill="#3D3D3D" points="101.604,271.58 105.271,264.27 101.604,256.957 94.268,256.957 90.6,264.27 94.268,271.58 "/>
<polygon fill="#3D3D3D" points="101.604,292.891 105.271,285.58 101.604,278.266 94.268,278.266 90.6,285.58 94.268,292.891 "/>
<polygon fill="#3D3D3D" points="101.604,314.201 105.271,306.891 101.604,299.578 94.268,299.578 90.6,306.891 94.268,314.201 "/>
<polygon fill="#3D3D3D" points="101.604,335.512 105.271,328.201 101.604,320.889 94.268,320.889 90.6,328.201 94.268,335.512 "/>
<polygon fill="#3D3D3D" points="101.604,356.824 105.271,349.512 101.604,342.199 94.268,342.199 90.6,349.512 94.268,356.824 "/>
<polygon fill="#3D3D3D" points="86.559,282.236 90.227,274.924 86.559,267.613 79.223,267.613 75.555,274.924 79.223,282.236 "/>
<polygon fill="#3D3D3D" points="86.559,303.547 90.227,296.234 86.559,288.922 79.223,288.922 75.555,296.234 79.223,303.547 "/>
<polygon fill="#3D3D3D" points="86.559,324.857 90.227,317.547 86.559,310.234 79.223,310.234 75.555,317.547 79.223,324.857 "/>
<polygon fill="#3D3D3D" points="86.559,346.168 90.227,338.855 86.559,331.543 79.223,331.543 75.555,338.855 79.223,346.168 "/>
<polygon fill="#3D3D3D" points="86.559,367.479 90.227,360.168 86.559,352.855 79.223,352.855 75.555,360.168 79.223,367.479 "/>
<polygon fill="#3D3D3D" points="71.887,271.58 75.555,264.27 71.887,256.957 64.551,256.957 60.883,264.27 64.551,271.58 "/>
<polygon fill="#3D3D3D" points="71.887,292.891 75.555,285.58 71.887,278.266 64.551,278.266 60.883,285.58 64.551,292.891 "/>
<polygon fill="#3D3D3D" points="71.887,314.201 75.555,306.891 71.887,299.578 64.551,299.578 60.883,306.891 64.551,314.201 "/>
<polygon fill="#3D3D3D" points="71.887,335.512 75.555,328.201 71.887,320.889 64.551,320.889 60.883,328.201 64.551,335.512 "/>
<polygon fill="#3D3D3D" points="71.887,356.824 75.555,349.512 71.887,342.199 64.551,342.199 60.883,349.512 64.551,356.824 "/>
<polygon fill="#3D3D3D" points="56.842,282.236 60.51,274.924 56.842,267.613 49.506,267.613 45.838,274.924 49.506,282.236 "/>
<polygon fill="#3D3D3D" points="56.842,303.547 60.51,296.234 56.842,288.922 49.506,288.922 45.838,296.234 49.506,303.547 "/>
<polygon fill="#3D3D3D" points="56.842,324.857 60.51,317.547 56.842,310.234 49.506,310.234 45.838,317.547 49.506,324.857 "/>
<polygon fill="#3D3D3D" points="56.842,346.168 60.51,338.855 56.842,331.543 49.506,331.543 45.838,338.855 49.506,346.168 "/>
<polygon fill="#3D3D3D" points="56.842,367.479 60.51,360.168 56.842,352.855 49.506,352.855 45.838,360.168 49.506,367.479 "/>
<polygon fill="#3D3D3D" points="40.879,271.58 44.547,264.27 40.879,256.957 33.543,256.957 29.875,264.27 33.543,271.58 "/>
<polygon fill="#3D3D3D" points="40.879,292.891 44.547,285.58 40.879,278.266 33.543,278.266 29.875,285.58 33.543,292.891 "/>
<polygon fill="#3D3D3D" points="40.879,314.201 44.547,306.891 40.879,299.578 33.543,299.578 29.875,306.891 33.543,314.201 "/>
<polygon fill="#3D3D3D" points="40.879,335.512 44.547,328.201 40.879,320.889 33.543,320.889 29.875,328.201 33.543,335.512 "/>
<polygon fill="#3D3D3D" points="40.879,356.824 44.547,349.512 40.879,342.199 33.543,342.199 29.875,349.512 33.543,356.824 "/>
<polygon fill="#3D3D3D" points="25.834,282.236 29.502,274.924 25.834,267.613 18.498,267.613 14.83,274.924 18.498,282.236 "/>
<polygon fill="#3D3D3D" points="25.834,303.547 29.502,296.234 25.834,288.922 18.498,288.922 14.83,296.234 18.498,303.547 "/>
<polygon fill="#3D3D3D" points="25.834,324.857 29.502,317.547 25.834,310.234 18.498,310.234 14.83,317.547 18.498,324.857 "/>
<polygon fill="#3D3D3D" points="25.834,346.168 29.502,338.855 25.834,331.543 18.498,331.543 14.83,338.855 18.498,346.168 "/>
<polygon fill="#3D3D3D" points="25.834,367.479 29.502,360.168 25.834,352.855 18.498,352.855 14.83,360.168 18.498,367.479 "/>
<polygon fill="#3D3D3D" points="541.439,282.236 545.107,274.924 541.439,267.613 534.104,267.613 530.436,274.924 534.104,282.236 
	"/>
<polygon fill="#3D3D3D" points="541.439,303.547 545.107,296.234 541.439,288.922 534.104,288.922 530.436,296.234 534.104,303.547 
	"/>
<polygon fill="#3D3D3D" points="541.439,324.857 545.107,317.547 541.439,310.234 534.104,310.234 530.436,317.547 534.104,324.857 
	"/>
<polygon fill="#3D3D3D" points="541.439,346.168 545.107,338.855 541.439,331.543 534.104,331.543 530.436,338.855 534.104,346.168 
	"/>
<polygon fill="#3D3D3D" points="541.439,367.479 545.107,360.168 541.439,352.855 534.104,352.855 530.436,360.168 534.104,367.479 
	"/>
<polygon fill="#3D3D3D" points="526.767,271.58 530.436,264.27 526.767,256.957 519.431,256.957 515.763,264.27 519.431,271.58 "/>
<polygon fill="#3D3D3D" points="526.767,292.891 530.436,285.58 526.767,278.266 519.431,278.266 515.763,285.58 519.431,292.891 
	"/>
<polygon fill="#3D3D3D" points="526.767,314.201 530.436,306.891 526.767,299.578 519.431,299.578 515.763,306.891 519.431,314.201 
	"/>
<polygon fill="#3D3D3D" points="526.767,335.512 530.436,328.201 526.767,320.889 519.431,320.889 515.763,328.201 519.431,335.512 
	"/>
<polygon fill="#3D3D3D" points="526.767,356.824 530.436,349.512 526.767,342.199 519.431,342.199 515.763,349.512 519.431,356.824 
	"/>
<polygon fill="#3D3D3D" points="511.722,282.236 515.391,274.924 511.722,267.613 504.386,267.613 500.718,274.924 504.386,282.236 
	"/>
<polygon fill="#3D3D3D" points="511.722,303.547 515.391,296.234 511.722,288.922 504.386,288.922 500.718,296.234 504.386,303.547 
	"/>
<polygon fill="#3D3D3D" points="511.722,324.857 515.391,317.547 511.722,310.234 504.386,310.234 500.718,317.547 504.386,324.857 
	"/>
<polygon fill="#3D3D3D" points="511.722,346.168 515.391,338.855 511.722,331.543 504.386,331.543 500.718,338.855 504.386,346.168 
	"/>
<polygon fill="#3D3D3D" points="511.722,367.479 515.391,360.168 511.722,352.855 504.386,352.855 500.718,360.168 504.386,367.479 
	"/>
<polygon fill="#3D3D3D" points="495.76,271.58 499.428,264.27 495.76,256.957 488.424,256.957 484.756,264.27 488.424,271.58 "/>
<polygon fill="#3D3D3D" points="495.76,292.891 499.428,285.58 495.76,278.266 488.424,278.266 484.756,285.58 488.424,292.891 "/>
<polygon fill="#3D3D3D" points="495.76,314.201 499.428,306.891 495.76,299.578 488.424,299.578 484.756,306.891 488.424,314.201 
	"/>
<polygon fill="#3D3D3D" points="495.76,335.512 499.428,328.201 495.76,320.889 488.424,320.889 484.756,328.201 488.424,335.512 
	"/>
<polygon fill="#3D3D3D" points="495.76,356.824 499.428,349.512 495.76,342.199 488.424,342.199 484.756,349.512 488.424,356.824 
	"/>
<polygon fill="#3D3D3D" points="480.715,282.236 484.383,274.924 480.715,267.613 473.379,267.613 469.711,274.924 473.379,282.236 
	"/>
<polygon fill="#3D3D3D" points="480.715,303.547 484.383,296.234 480.715,288.922 473.379,288.922 469.711,296.234 473.379,303.547 
	"/>
<polygon fill="#3D3D3D" points="480.715,324.857 484.383,317.547 480.715,310.234 473.379,310.234 469.711,317.547 473.379,324.857 
	"/>
<polygon fill="#3D3D3D" points="480.715,346.168 484.383,338.855 480.715,331.543 473.379,331.543 469.711,338.855 473.379,346.168 
	"/>
<polygon fill="#3D3D3D" points="480.715,367.479 484.383,360.168 480.715,352.855 473.379,352.855 469.711,360.168 473.379,367.479 
	"/>
<polygon fill="#3D3D3D" points="466.043,271.58 469.711,264.27 466.043,256.957 458.707,256.957 455.039,264.27 458.707,271.58 "/>
<polygon fill="#3D3D3D" points="466.043,292.891 469.711,285.58 466.043,278.266 458.707,278.266 455.039,285.58 458.707,292.891 
	"/>
<polygon fill="#3D3D3D" points="466.043,314.201 469.711,306.891 466.043,299.578 458.707,299.578 455.039,306.891 458.707,314.201 
	"/>
<polygon fill="#3D3D3D" points="466.043,335.512 469.711,328.201 466.043,320.889 458.707,320.889 455.039,328.201 458.707,335.512 
	"/>
<polygon fill="#3D3D3D" points="466.043,356.824 469.711,349.512 466.043,342.199 458.707,342.199 455.039,349.512 458.707,356.824 
	"/>
<polygon fill="#3D3D3D" points="450.998,282.236 454.666,274.924 450.998,267.613 443.662,267.613 439.994,274.924 443.662,282.236 
	"/>
<polygon fill="#3D3D3D" points="450.998,303.547 454.666,296.234 450.998,288.922 443.662,288.922 439.994,296.234 443.662,303.547 
	"/>
<polygon fill="#3D3D3D" points="450.998,324.857 454.666,317.547 450.998,310.234 443.662,310.234 439.994,317.547 443.662,324.857 
	"/>
<polygon fill="#3D3D3D" points="450.998,346.168 454.666,338.855 450.998,331.543 443.662,331.543 439.994,338.855 443.662,346.168 
	"/>
<polygon fill="#3D3D3D" points="450.998,367.479 454.666,360.168 450.998,352.855 443.662,352.855 439.994,360.168 443.662,367.479 
	"/>
<polygon fill="#3D3D3D" points="435.035,271.58 438.703,264.27 435.035,256.957 427.699,256.957 424.031,264.27 427.699,271.58 "/>
<polygon fill="#3D3D3D" points="435.035,292.891 438.703,285.58 435.035,278.266 427.699,278.266 424.031,285.58 427.699,292.891 
	"/>
<polygon fill="#3D3D3D" points="435.035,314.201 438.703,306.891 435.035,299.578 427.699,299.578 424.031,306.891 427.699,314.201 
	"/>
<polygon fill="#3D3D3D" points="435.035,335.512 438.703,328.201 435.035,320.889 427.699,320.889 424.031,328.201 427.699,335.512 
	"/>
<polygon fill="#3D3D3D" points="435.035,356.824 438.703,349.512 435.035,342.199 427.699,342.199 424.031,349.512 427.699,356.824 
	"/>
<polygon fill="#3D3D3D" points="419.99,282.236 423.658,274.924 419.99,267.613 412.654,267.613 408.986,274.924 412.654,282.236 
	"/>
<polygon fill="#3D3D3D" points="419.99,303.547 423.658,296.234 419.99,288.922 412.654,288.922 408.986,296.234 412.654,303.547 
	"/>
<polygon fill="#3D3D3D" points="419.99,324.857 423.658,317.547 419.99,310.234 412.654,310.234 408.986,317.547 412.654,324.857 
	"/>
<polygon fill="#3D3D3D" points="419.99,346.168 423.658,338.855 419.99,331.543 412.654,331.543 408.986,338.855 412.654,346.168 
	"/>
<polygon fill="#3D3D3D" points="419.99,367.479 423.658,360.168 419.99,352.855 412.654,352.855 408.986,360.168 412.654,367.479 
	"/>
<polygon fill="#3D3D3D" points="405.318,271.58 408.986,264.27 405.318,256.957 397.982,256.957 394.314,264.27 397.982,271.58 "/>
<polygon fill="#3D3D3D" points="405.318,292.891 408.986,285.58 405.318,278.266 397.982,278.266 394.314,285.58 397.982,292.891 
	"/>
<polygon fill="#3D3D3D" points="405.318,314.201 408.986,306.891 405.318,299.578 397.982,299.578 394.314,306.891 397.982,314.201 
	"/>
<polygon fill="#3D3D3D" points="405.318,335.512 408.986,328.201 405.318,320.889 397.982,320.889 394.314,328.201 397.982,335.512 
	"/>
<polygon fill="#3D3D3D" points="405.318,356.824 408.986,349.512 405.318,342.199 397.982,342.199 394.314,349.512 397.982,356.824 
	"/>
<polygon fill="#3D3D3D" points="390.273,282.236 393.941,274.924 390.273,267.613 382.938,267.613 379.27,274.924 382.938,282.236 
	"/>
<polygon fill="#3D3D3D" points="390.273,303.547 393.941,296.234 390.273,288.922 382.938,288.922 379.27,296.234 382.938,303.547 
	"/>
<polygon fill="#3D3D3D" points="390.273,324.857 393.941,317.547 390.273,310.234 382.938,310.234 379.27,317.547 382.938,324.857 
	"/>
<polygon fill="#3D3D3D" points="390.273,346.168 393.941,338.855 390.273,331.543 382.938,331.543 379.27,338.855 382.938,346.168 
	"/>
<polygon fill="#3D3D3D" points="390.273,367.479 393.941,360.168 390.273,352.855 382.938,352.855 379.27,360.168 382.938,367.479 
	"/>
<polygon fill="#3D3D3D" points="374.311,271.58 377.979,264.27 374.311,256.957 366.975,256.957 363.307,264.27 366.975,271.58 "/>
<polygon fill="#3D3D3D" points="374.311,292.891 377.979,285.58 374.311,278.266 366.975,278.266 363.307,285.58 366.975,292.891 
	"/>
<polygon fill="#3D3D3D" points="374.311,314.201 377.979,306.891 374.311,299.578 366.975,299.578 363.307,306.891 366.975,314.201 
	"/>
<polygon fill="#3D3D3D" points="374.311,335.512 377.979,328.201 374.311,320.889 366.975,320.889 363.307,328.201 366.975,335.512 
	"/>
<polygon fill="#3D3D3D" points="374.311,356.824 377.979,349.512 374.311,342.199 366.975,342.199 363.307,349.512 366.975,356.824 
	"/>
<g>
	<g>
		<defs>
			<path id="SVGID_32_" d="M278.677,257.988l-3.465,0.111l-0.779,18.42l12.834,2.516c5.125,1.002,9.802-3.541,9.802-9.521v-2.242
				c0-2.717-1.589-5.094-3.87-5.791l-8.713-2.662c-1.695-0.482-3.802-0.832-5.578-0.832
				C278.829,257.986,278.753,257.988,278.677,257.988"/>
		</defs>
		<clipPath id="SVGID_33_">
			<use xlink:href="#SVGID_32_"  overflow="visible"/>
		</clipPath>
		
			<linearGradient id="SVGID_34_" gradientUnits="userSpaceOnUse" x1="-225.9761" y1="464.3867" x2="-224.907" y2="464.3867" gradientTransform="matrix(-21.6019 8.6407 -8.6407 -21.6019 -569.028 12247.5791)">
			<stop  offset="0" style="stop-color:#E1E0DF"/>
			<stop  offset="1" style="stop-color:#666666"/>
		</linearGradient>
		<polygon clip-path="url(#SVGID_33_)" fill="url(#SVGID_34_)" points="293.946,249.004 267.826,261.029 277.555,289.021 
			303.675,276.996 		"/>
	</g>
	<g>
		<defs>
			<path id="SVGID_35_" d="M289.087,351.16l-14.654,3.232l1.686,18.295c3.117,0,6.221-0.469,9.232-1.395l5.184-1.59
				c3.854-1.184,6.534-5.199,6.533-9.791v-1.156c0-4.35-3.082-7.736-6.703-7.736C289.944,351.02,289.517,351.066,289.087,351.16"/>
		</defs>
		<clipPath id="SVGID_36_">
			<use xlink:href="#SVGID_35_"  overflow="visible"/>
		</clipPath>
		
			<linearGradient id="SVGID_37_" gradientUnits="userSpaceOnUse" x1="-256.0991" y1="477.1504" x2="-255.0994" y2="477.1504" gradientTransform="matrix(-14.9609 0 0 -14.9609 -3532.001 7500.4614)">
			<stop  offset="0" style="stop-color:#E1E0DF"/>
			<stop  offset="1" style="stop-color:#666666"/>
		</linearGradient>
		<rect x="274.433" y="351.02" clip-path="url(#SVGID_36_)" fill="url(#SVGID_37_)" width="22.636" height="21.668"/>
	</g>
	<g>
		<defs>
			<path id="SVGID_38_" d="M276.118,257.992c-5.453,0-9.873,5.086-9.873,11.363v91.965c0,6.279,4.42,11.367,9.873,11.367
				c5.451,0,9.873-5.088,9.873-11.367v-91.965C285.991,263.078,281.569,257.992,276.118,257.992L276.118,257.992z"/>
		</defs>
		<clipPath id="SVGID_39_">
			<use xlink:href="#SVGID_38_"  overflow="visible"/>
		</clipPath>
		
			<linearGradient id="SVGID_40_" gradientUnits="userSpaceOnUse" x1="-132.8765" y1="492.4121" x2="-131.8765" y2="492.4121" gradientTransform="matrix(19.747 0 0 19.747 2890.166 -9408.3213)">
			<stop  offset="0" style="stop-color:#CCCDCD"/>
			<stop  offset="0.4731" style="stop-color:#E1E0DF"/>
			<stop  offset="1" style="stop-color:#666666"/>
		</linearGradient>
		<rect x="266.245" y="257.992" clip-path="url(#SVGID_39_)" fill="url(#SVGID_40_)" width="19.746" height="114.695"/>
	</g>
</g>
<path fill="#C9C9C9" d="M1260.07,186.711c0,2.762-2.238,5-5,5H14.299c-2.762,0-5-2.238-5-5v-54c0-2.762,2.238-5,5-5H1255.07
	c2.762,0,5,2.238,5,5V186.711z"/>
<path fill="#C9C9C9" d="M1260.07,248.623c0,2.535-2.238,4.59-5,4.59H14.299c-2.762,0-5-2.055-5-4.59v-49.57
	c0-2.535,2.238-4.59,5-4.59H1255.07c2.762,0,5,2.055,5,4.59V248.623z"/>
<g>
	<g>
		<defs>
			<path id="SVGID_41_" d="M1006.975,156.733l0.111-3.465l18.648-0.779l2.547,12.834c1.016,5.125-3.584,9.801-9.639,9.801h-2.27
				c-2.75,0-5.156-1.588-5.863-3.869l-2.695-8.713c-0.488-1.695-0.842-3.803-0.842-5.578
				C1006.973,156.885,1006.975,156.809,1006.975,156.733"/>
		</defs>
		<clipPath id="SVGID_42_">
			<use xlink:href="#SVGID_41_"  overflow="visible"/>
		</clipPath>
		
			<linearGradient id="SVGID_43_" gradientUnits="userSpaceOnUse" x1="-423.2793" y1="555.0957" x2="-422.2034" y2="555.0957" gradientTransform="matrix(8.6407 -21.6019 -21.6019 -8.6407 16661.002 -4169.2153)">
			<stop  offset="0" style="stop-color:#E1E0DF"/>
			<stop  offset="1" style="stop-color:#666666"/>
		</linearGradient>
		<polygon clip-path="url(#SVGID_42_)" fill="url(#SVGID_43_)" points="997.879,172.002 1010.053,145.881 1038.391,155.61 
			1026.217,181.731 		"/>
	</g>
	<g>
		<defs>
			<path id="SVGID_44_" d="M1101.295,167.143l3.271-14.654l18.52,1.686c0,3.117-0.475,6.221-1.41,9.232l-1.609,5.184
				c-1.199,3.854-5.266,6.533-9.912,6.533h-1.17c-4.404,0-7.832-3.082-7.832-6.703C1101.152,168,1101.199,167.573,1101.295,167.143"
				/>
		</defs>
		<clipPath id="SVGID_45_">
			<use xlink:href="#SVGID_44_"  overflow="visible"/>
		</clipPath>
		
			<linearGradient id="SVGID_46_" gradientUnits="userSpaceOnUse" x1="-488.5801" y1="722" x2="-487.5801" y2="722" gradientTransform="matrix(0 -14.9609 -14.9609 0 11913.8838 -7132.0713)">
			<stop  offset="0" style="stop-color:#E1E0DF"/>
			<stop  offset="1" style="stop-color:#666666"/>
		</linearGradient>
		<rect x="1101.152" y="152.489" clip-path="url(#SVGID_45_)" fill="url(#SVGID_46_)" width="21.934" height="22.635"/>
	</g>
	<g>
		<defs>
			<path id="SVGID_47_" d="M1006.979,154.174c0-5.453,5.148-9.873,11.504-9.873h93.098c6.355,0,11.506,4.42,11.506,9.873
				c0,5.451-5.15,9.873-11.506,9.873h-93.098C1012.127,164.047,1006.979,159.625,1006.979,154.174L1006.979,154.174z"/>
		</defs>
		<clipPath id="SVGID_48_">
			<use xlink:href="#SVGID_47_"  overflow="visible"/>
		</clipPath>
		
			<linearGradient id="SVGID_49_" gradientUnits="userSpaceOnUse" x1="43.2573" y1="306.8799" x2="44.2573" y2="306.8799" gradientTransform="matrix(0 19.747 19.747 0 -4994.9146 -709.8965)">
			<stop  offset="0" style="stop-color:#CCCDCD"/>
			<stop  offset="0.4731" style="stop-color:#E1E0DF"/>
			<stop  offset="1" style="stop-color:#666666"/>
		</linearGradient>
		<rect x="1006.979" y="144.301" clip-path="url(#SVGID_48_)" fill="url(#SVGID_49_)" width="116.107" height="19.746"/>
	</g>
</g>
<g>
	<g>
		<defs>
			<path id="SVGID_50_" d="M1104.752,220.857l0.111-3.465l18.648-0.779l2.547,12.834c1.016,5.125-3.584,9.803-9.639,9.803h-2.27
				c-2.75,0-5.156-1.59-5.863-3.871l-2.695-8.713c-0.488-1.695-0.842-3.801-0.842-5.578
				C1104.75,221.01,1104.752,220.934,1104.752,220.857"/>
		</defs>
		<clipPath id="SVGID_51_">
			<use xlink:href="#SVGID_50_"  overflow="visible"/>
		</clipPath>
		
			<linearGradient id="SVGID_52_" gradientUnits="userSpaceOnUse" x1="-424.2778" y1="550.1699" x2="-423.2019" y2="550.1699" gradientTransform="matrix(8.6407 -21.6019 -21.6019 -8.6407 16661.002 -4169.2153)">
			<stop  offset="0" style="stop-color:#E1E0DF"/>
			<stop  offset="1" style="stop-color:#666666"/>
		</linearGradient>
		<polygon clip-path="url(#SVGID_51_)" fill="url(#SVGID_52_)" points="1095.656,236.127 1107.83,210.008 1136.168,219.736 
			1123.994,245.855 		"/>
	</g>
	<g>
		<defs>
			<path id="SVGID_53_" d="M1199.072,231.268l3.271-14.654l18.52,1.686c0,3.117-0.475,6.221-1.41,9.232l-1.609,5.184
				c-1.199,3.854-5.266,6.535-9.912,6.533h-1.17c-4.404,0-7.832-3.082-7.832-6.703
				C1198.93,232.125,1198.977,231.697,1199.072,231.268"/>
		</defs>
		<clipPath id="SVGID_54_">
			<use xlink:href="#SVGID_53_"  overflow="visible"/>
		</clipPath>
		
			<linearGradient id="SVGID_55_" gradientUnits="userSpaceOnUse" x1="-492.8662" y1="715.4648" x2="-491.8662" y2="715.4648" gradientTransform="matrix(0 -14.9609 -14.9609 0 11913.8838 -7132.0713)">
			<stop  offset="0" style="stop-color:#E1E0DF"/>
			<stop  offset="1" style="stop-color:#666666"/>
		</linearGradient>
		<rect x="1198.93" y="216.613" clip-path="url(#SVGID_54_)" fill="url(#SVGID_55_)" width="21.934" height="22.637"/>
	</g>
	<g>
		<defs>
			<path id="SVGID_56_" d="M1104.756,218.299c0-5.453,5.148-9.873,11.504-9.873h93.098c6.355,0,11.506,4.42,11.506,9.873
				c0,5.451-5.15,9.873-11.506,9.873h-93.098C1109.904,228.172,1104.756,223.75,1104.756,218.299L1104.756,218.299z"/>
		</defs>
		<clipPath id="SVGID_57_">
			<use xlink:href="#SVGID_56_"  overflow="visible"/>
		</clipPath>
		
			<linearGradient id="SVGID_58_" gradientUnits="userSpaceOnUse" x1="46.5044" y1="311.832" x2="47.5044" y2="311.832" gradientTransform="matrix(0 19.747 19.747 0 -4994.9146 -709.8965)">
			<stop  offset="0" style="stop-color:#CCCDCD"/>
			<stop  offset="0.4731" style="stop-color:#E1E0DF"/>
			<stop  offset="1" style="stop-color:#666666"/>
		</linearGradient>
		<rect x="1104.756" y="208.426" clip-path="url(#SVGID_57_)" fill="url(#SVGID_58_)" width="116.107" height="19.746"/>
	</g>
</g>
<g>
	<g>
		<defs>
			<path id="SVGID_59_" d="M77.188,156.733l0.111-3.465l18.648-0.779l2.547,12.834c1.016,5.125-3.584,9.801-9.639,9.801h-2.27
				c-2.75,0-5.156-1.588-5.863-3.869l-2.695-8.713c-0.488-1.695-0.842-3.803-0.842-5.578
				C77.186,156.885,77.188,156.809,77.188,156.733"/>
		</defs>
		<clipPath id="SVGID_60_">
			<use xlink:href="#SVGID_59_"  overflow="visible"/>
		</clipPath>
		
			<linearGradient id="SVGID_61_" gradientUnits="userSpaceOnUse" x1="-438.1216" y1="592.2012" x2="-437.0453" y2="592.2012" gradientTransform="matrix(8.6407 -21.6019 -21.6019 -8.6407 16661.002 -4169.2153)">
			<stop  offset="0" style="stop-color:#E1E0DF"/>
			<stop  offset="1" style="stop-color:#666666"/>
		</linearGradient>
		<polygon clip-path="url(#SVGID_60_)" fill="url(#SVGID_61_)" points="68.092,172.002 80.266,145.881 108.604,155.61 
			96.43,181.731 		"/>
	</g>
	<g>
		<defs>
			<path id="SVGID_62_" d="M171.508,167.143l3.271-14.654l18.52,1.686c0,3.117-0.475,6.221-1.41,9.232l-1.609,5.184
				c-1.199,3.854-5.266,6.533-9.912,6.533h-1.17c-4.404,0-7.832-3.082-7.832-6.703C171.365,168,171.412,167.573,171.508,167.143"/>
		</defs>
		<clipPath id="SVGID_63_">
			<use xlink:href="#SVGID_62_"  overflow="visible"/>
		</clipPath>
		
			<linearGradient id="SVGID_64_" gradientUnits="userSpaceOnUse" x1="-488.5801" y1="784.1484" x2="-487.5801" y2="784.1484" gradientTransform="matrix(0 -14.9609 -14.9609 0 11913.8838 -7132.0713)">
			<stop  offset="0" style="stop-color:#E1E0DF"/>
			<stop  offset="1" style="stop-color:#666666"/>
		</linearGradient>
		<rect x="171.365" y="152.489" clip-path="url(#SVGID_63_)" fill="url(#SVGID_64_)" width="21.934" height="22.635"/>
	</g>
	<g>
		<defs>
			<path id="SVGID_65_" d="M77.191,154.174c0-5.453,5.148-9.873,11.504-9.873h93.098c6.355,0,11.506,4.42,11.506,9.873
				c0,5.451-5.15,9.873-11.506,9.873H88.695C82.34,164.047,77.191,159.625,77.191,154.174L77.191,154.174z"/>
		</defs>
		<clipPath id="SVGID_66_">
			<use xlink:href="#SVGID_65_"  overflow="visible"/>
		</clipPath>
		
			<linearGradient id="SVGID_67_" gradientUnits="userSpaceOnUse" x1="43.2573" y1="259.7949" x2="44.2573" y2="259.7949" gradientTransform="matrix(0 19.747 19.747 0 -4994.9146 -709.8965)">
			<stop  offset="0" style="stop-color:#CCCDCD"/>
			<stop  offset="0.4731" style="stop-color:#E1E0DF"/>
			<stop  offset="1" style="stop-color:#666666"/>
		</linearGradient>
		<rect x="77.191" y="144.301" clip-path="url(#SVGID_66_)" fill="url(#SVGID_67_)" width="116.107" height="19.746"/>
	</g>
</g>
<g>
	<g>
		<defs>
			<path id="SVGID_68_" d="M180.996,220.857l0.111-3.465l18.648-0.779l2.547,12.834c1.016,5.125-3.584,9.803-9.639,9.803h-2.27
				c-2.75,0-5.156-1.59-5.863-3.871l-2.695-8.713c-0.488-1.695-0.842-3.801-0.842-5.578
				C180.994,221.01,180.996,220.934,180.996,220.857"/>
		</defs>
		<clipPath id="SVGID_69_">
			<use xlink:href="#SVGID_68_"  overflow="visible"/>
		</clipPath>
		
			<linearGradient id="SVGID_70_" gradientUnits="userSpaceOnUse" x1="-439.0234" y1="587.0352" x2="-437.9475" y2="587.0352" gradientTransform="matrix(8.6407 -21.6019 -21.6019 -8.6407 16661.002 -4169.2153)">
			<stop  offset="0" style="stop-color:#E1E0DF"/>
			<stop  offset="1" style="stop-color:#666666"/>
		</linearGradient>
		<polygon clip-path="url(#SVGID_69_)" fill="url(#SVGID_70_)" points="171.9,236.127 184.074,210.008 212.412,219.736 
			200.238,245.855 		"/>
	</g>
	<g>
		<defs>
			<path id="SVGID_71_" d="M275.316,231.268l3.271-14.654l18.52,1.686c0,3.117-0.475,6.221-1.41,9.232l-1.609,5.184
				c-1.199,3.854-5.266,6.535-9.912,6.533h-1.17c-4.404,0-7.832-3.082-7.832-6.703C275.174,232.125,275.221,231.697,275.316,231.268
				"/>
		</defs>
		<clipPath id="SVGID_72_">
			<use xlink:href="#SVGID_71_"  overflow="visible"/>
		</clipPath>
		
			<linearGradient id="SVGID_73_" gradientUnits="userSpaceOnUse" x1="-492.8662" y1="777.209" x2="-491.8662" y2="777.209" gradientTransform="matrix(0 -14.9609 -14.9609 0 11913.8838 -7132.0713)">
			<stop  offset="0" style="stop-color:#E1E0DF"/>
			<stop  offset="1" style="stop-color:#666666"/>
		</linearGradient>
		<rect x="275.174" y="216.613" clip-path="url(#SVGID_72_)" fill="url(#SVGID_73_)" width="21.934" height="22.637"/>
	</g>
	<g>
		<defs>
			<path id="SVGID_74_" d="M181,218.299c0-5.453,5.148-9.873,11.504-9.873h93.098c6.355,0,11.506,4.42,11.506,9.873
				c0,5.451-5.15,9.873-11.506,9.873h-93.098C186.148,228.172,181,223.75,181,218.299L181,218.299z"/>
		</defs>
		<clipPath id="SVGID_75_">
			<use xlink:href="#SVGID_74_"  overflow="visible"/>
		</clipPath>
		
			<linearGradient id="SVGID_76_" gradientUnits="userSpaceOnUse" x1="46.5044" y1="265.0518" x2="47.5044" y2="265.0518" gradientTransform="matrix(0 19.747 19.747 0 -4994.9146 -709.8965)">
			<stop  offset="0" style="stop-color:#CCCDCD"/>
			<stop  offset="0.4731" style="stop-color:#E1E0DF"/>
			<stop  offset="1" style="stop-color:#666666"/>
		</linearGradient>
		<rect x="181" y="208.426" clip-path="url(#SVGID_75_)" fill="url(#SVGID_76_)" width="116.107" height="19.746"/>
	</g>
</g>
<g>
	<path fill="#4F4F4F" d="M1245.568,180.852c-3.004,3.352-8.16,3.633-11.52,0.623c-3.354-3.01-3.637-8.168-0.631-11.52
		c3.004-3.352,8.161-3.631,11.518-0.623C1248.293,172.34,1248.576,177.499,1245.568,180.852"/>
	<path fill="#AFAFAF" d="M1243.959,179.407c-2.209,2.463-5.998,2.668-8.465,0.457c-2.466-2.211-2.676-6-0.463-8.463
		c2.206-2.463,5.998-2.668,8.461-0.457C1245.959,173.153,1246.166,176.944,1243.959,179.407"/>
	<path fill="none" stroke="#939393" stroke-miterlimit="10" d="M1243.959,179.407c-2.209,2.463-5.998,2.668-8.465,0.457
		c-2.466-2.211-2.676-6-0.463-8.463c2.206-2.463,5.998-2.668,8.461-0.457C1245.959,173.153,1246.166,176.944,1243.959,179.407z"/>
	<g>
		<g>
			<defs>
				
					<rect id="SVGID_77_" x="1233.84" y="169.757" transform="matrix(-0.7445 -0.6676 0.6676 -0.7445 2045.1864 1133.5092)" width="11.307" height="11.292"/>
			</defs>
			<clipPath id="SVGID_78_">
				<use xlink:href="#SVGID_77_"  overflow="visible"/>
			</clipPath>
			<path clip-path="url(#SVGID_78_)" fill="#BEBFBF" d="M1243.702,179.176c-2.081,2.32-5.655,2.514-7.978,0.432
				c-2.324-2.084-2.52-5.654-0.438-7.979c2.083-2.32,5.651-2.514,7.976-0.43C1245.587,173.284,1245.783,176.856,1243.702,179.176"/>
			<path clip-path="url(#SVGID_78_)" fill="#C0C1C1" d="M1243.602,179.088c-2.032,2.266-5.519,2.455-7.788,0.42
				c-2.269-2.035-2.46-5.521-0.429-7.789c2.035-2.268,5.52-2.455,7.789-0.42C1245.443,173.333,1245.635,176.819,1243.602,179.088"/>
			<path clip-path="url(#SVGID_78_)" fill="#C3C4C4" d="M1243.502,178.999c-1.982,2.213-5.387,2.396-7.6,0.412
				c-2.217-1.986-2.4-5.389-0.418-7.602c1.983-2.213,5.387-2.398,7.602-0.412S1245.486,176.788,1243.502,178.999"/>
			<path clip-path="url(#SVGID_78_)" fill="#C5C6C6" d="M1243.405,178.911c-1.935,2.156-5.255,2.336-7.415,0.4
				c-2.158-1.938-2.344-5.258-0.407-7.414c1.935-2.158,5.253-2.338,7.413-0.402C1245.156,173.432,1245.34,176.752,1243.405,178.911"
				/>
			<path clip-path="url(#SVGID_78_)" fill="#C7C9C9" d="M1243.305,178.823c-1.885,2.102-5.121,2.277-7.227,0.389
				c-2.104-1.887-2.282-5.123-0.396-7.227c1.887-2.104,5.121-2.277,7.227-0.391C1245.012,173.483,1245.191,176.719,1243.305,178.823
				"/>
			<path clip-path="url(#SVGID_78_)" fill="#CACBCB" d="M1243.207,178.733c-1.838,2.047-4.988,2.219-7.039,0.381
				c-2.051-1.84-2.225-4.99-0.389-7.039c1.84-2.051,4.992-2.219,7.04-0.381C1244.869,173.532,1245.041,176.682,1243.207,178.733"/>
			<path clip-path="url(#SVGID_78_)" fill="#CCCECE" d="M1243.108,178.643c-1.789,1.994-4.856,2.16-6.852,0.371
				c-1.997-1.789-2.165-4.857-0.377-6.85c1.788-1.996,4.854-2.162,6.852-0.373C1244.729,173.583,1244.896,176.649,1243.108,178.643"
				/>
			<path clip-path="url(#SVGID_78_)" fill="#CED0D0" d="M1243.008,178.557c-1.737,1.938-4.723,2.1-6.662,0.357
				c-1.941-1.74-2.106-4.725-0.367-6.662c1.739-1.939,4.723-2.102,6.666-0.361C1244.584,173.631,1244.748,176.616,1243.008,178.557"
				/>
			<path clip-path="url(#SVGID_78_)" fill="#D1D3D3" d="M1242.908,178.467c-1.689,1.885-4.587,2.039-6.475,0.35
				c-1.888-1.691-2.045-4.592-0.357-6.477c1.691-1.885,4.591-2.041,6.477-0.35C1244.441,173.682,1244.6,176.583,1242.908,178.467"/>
			<path clip-path="url(#SVGID_78_)" fill="#D3D5D5" d="M1242.811,178.377c-1.641,1.83-4.457,1.982-6.287,0.34
				c-1.833-1.643-1.987-4.457-0.346-6.289c1.639-1.828,4.455-1.982,6.287-0.338C1244.297,173.733,1244.451,176.547,1242.811,178.377
				"/>
		</g>
	</g>
	<polygon fill="#605F5E" points="1236.68,177.438 1238.451,175.459 1236.469,173.684 1237.458,172.584 1239.437,174.362 
		1241.211,172.383 1242.309,173.368 1240.539,175.348 1242.518,177.122 1241.53,178.221 1239.553,176.444 1237.777,178.424 	"/>
	<path fill="#231815" d="M1242.131,173.377l-1.604,1.789l-0.174,0.189l0.193,0.172l1.791,1.604l-0.815,0.91l-1.79-1.607l-0.19-0.17
		l-0.171,0.189l-1.604,1.791l-0.908-0.816l1.602-1.787l0.172-0.191l-0.189-0.17l-1.789-1.605l0.813-0.908l1.788,1.604l0.19,0.172
		l0.171-0.189l1.602-1.789L1242.131,173.377z M1242.491,173.358l-1.292-1.154l-1.771,1.977l-1.982-1.775l-1.154,1.289l1.98,1.775
		l-1.773,1.979l1.287,1.156l1.776-1.979l1.979,1.775l1.157-1.287l-1.981-1.775L1242.491,173.358z"/>
</g>
<g>
	<path fill="#4F4F4F" d="M1245.568,244.697c-3.004,3.352-8.16,3.633-11.52,0.623c-3.354-3.01-3.637-8.168-0.631-11.52
		c3.004-3.352,8.161-3.631,11.518-0.623C1248.293,236.186,1248.576,241.344,1245.568,244.697"/>
	<path fill="#AFAFAF" d="M1243.959,243.252c-2.209,2.463-5.998,2.668-8.465,0.457c-2.466-2.211-2.676-6-0.463-8.463
		c2.206-2.463,5.998-2.668,8.461-0.457C1245.959,236.998,1246.166,240.789,1243.959,243.252"/>
	<path fill="none" stroke="#939393" stroke-miterlimit="10" d="M1243.959,243.252c-2.209,2.463-5.998,2.668-8.465,0.457
		c-2.466-2.211-2.676-6-0.463-8.463c2.206-2.463,5.998-2.668,8.461-0.457C1245.959,236.998,1246.166,240.789,1243.959,243.252z"/>
	<g>
		<g>
			<defs>
				
					<rect id="SVGID_79_" x="1233.84" y="233.602" transform="matrix(-0.7445 -0.6676 0.6676 -0.7445 2002.5615 1244.8868)" width="11.307" height="11.292"/>
			</defs>
			<clipPath id="SVGID_80_">
				<use xlink:href="#SVGID_79_"  overflow="visible"/>
			</clipPath>
			<path clip-path="url(#SVGID_80_)" fill="#BEBFBF" d="M1243.702,243.021c-2.081,2.32-5.655,2.514-7.978,0.432
				c-2.324-2.084-2.52-5.654-0.438-7.979c2.083-2.32,5.651-2.514,7.976-0.43C1245.587,237.129,1245.783,240.701,1243.702,243.021"/>
			<path clip-path="url(#SVGID_80_)" fill="#C0C1C1" d="M1243.602,242.934c-2.032,2.266-5.519,2.455-7.788,0.42
				c-2.269-2.035-2.46-5.521-0.429-7.789c2.035-2.268,5.52-2.455,7.789-0.42C1245.443,237.178,1245.635,240.664,1243.602,242.934"/>
			<path clip-path="url(#SVGID_80_)" fill="#C3C4C4" d="M1243.502,242.844c-1.982,2.213-5.387,2.396-7.6,0.412
				c-2.217-1.986-2.4-5.389-0.418-7.602c1.983-2.213,5.387-2.398,7.602-0.412S1245.486,240.633,1243.502,242.844"/>
			<path clip-path="url(#SVGID_80_)" fill="#C5C6C6" d="M1243.405,242.756c-1.935,2.156-5.255,2.336-7.415,0.4
				c-2.158-1.938-2.344-5.258-0.407-7.414c1.935-2.158,5.253-2.338,7.413-0.402C1245.156,237.277,1245.34,240.598,1243.405,242.756"
				/>
			<path clip-path="url(#SVGID_80_)" fill="#C7C9C9" d="M1243.305,242.668c-1.885,2.102-5.121,2.277-7.227,0.389
				c-2.104-1.887-2.282-5.123-0.396-7.227c1.887-2.104,5.121-2.277,7.227-0.391C1245.012,237.328,1245.191,240.564,1243.305,242.668
				"/>
			<path clip-path="url(#SVGID_80_)" fill="#CACBCB" d="M1243.207,242.578c-1.838,2.047-4.988,2.219-7.039,0.381
				c-2.051-1.84-2.225-4.99-0.389-7.039c1.84-2.051,4.992-2.219,7.04-0.381C1244.869,237.377,1245.041,240.527,1243.207,242.578"/>
			<path clip-path="url(#SVGID_80_)" fill="#CCCECE" d="M1243.108,242.488c-1.789,1.994-4.856,2.16-6.852,0.371
				c-1.997-1.789-2.165-4.857-0.377-6.85c1.788-1.996,4.854-2.162,6.852-0.373C1244.729,237.428,1244.896,240.494,1243.108,242.488"
				/>
			<path clip-path="url(#SVGID_80_)" fill="#CED0D0" d="M1243.008,242.402c-1.737,1.938-4.723,2.1-6.662,0.357
				c-1.941-1.74-2.106-4.725-0.367-6.662c1.739-1.939,4.723-2.102,6.666-0.361C1244.584,237.477,1244.748,240.461,1243.008,242.402"
				/>
			<path clip-path="url(#SVGID_80_)" fill="#D1D3D3" d="M1242.908,242.313c-1.689,1.885-4.587,2.039-6.475,0.35
				c-1.888-1.691-2.045-4.592-0.357-6.477c1.691-1.885,4.591-2.041,6.477-0.35C1244.441,237.527,1244.6,240.428,1242.908,242.313"/>
			<path clip-path="url(#SVGID_80_)" fill="#D3D5D5" d="M1242.811,242.223c-1.641,1.83-4.457,1.982-6.287,0.34
				c-1.833-1.643-1.987-4.457-0.346-6.289c1.639-1.828,4.455-1.982,6.287-0.338C1244.297,237.578,1244.451,240.393,1242.811,242.223
				"/>
		</g>
	</g>
	<polygon fill="#605F5E" points="1236.68,241.283 1238.451,239.305 1236.469,237.529 1237.458,236.43 1239.437,238.207 
		1241.211,236.229 1242.309,237.213 1240.539,239.193 1242.518,240.967 1241.53,242.066 1239.553,240.289 1237.777,242.27 	"/>
	<path fill="#231815" d="M1242.131,237.223l-1.604,1.789l-0.174,0.189l0.193,0.172l1.791,1.604l-0.815,0.91l-1.79-1.607l-0.19-0.17
		l-0.171,0.189l-1.604,1.791l-0.908-0.816l1.602-1.787l0.172-0.191l-0.189-0.17l-1.789-1.605l0.813-0.908l1.788,1.604l0.19,0.172
		l0.171-0.189l1.602-1.789L1242.131,237.223z M1242.491,237.203l-1.292-1.154l-1.771,1.977l-1.982-1.775l-1.154,1.289l1.98,1.775
		l-1.773,1.979l1.287,1.156l1.776-1.979l1.979,1.775l1.157-1.287l-1.981-1.775L1242.491,237.203z"/>
</g>
<g>
	<path fill="#4F4F4F" d="M28.241,180.852c-3.004,3.352-8.16,3.633-11.52,0.623c-3.354-3.01-3.637-8.168-0.631-11.52
		c3.004-3.352,8.161-3.631,11.518-0.623C30.966,172.34,31.249,177.499,28.241,180.852"/>
	<path fill="#AFAFAF" d="M26.632,179.407c-2.209,2.463-5.998,2.668-8.465,0.457c-2.466-2.211-2.676-6-0.463-8.463
		c2.206-2.463,5.998-2.668,8.461-0.457C28.632,173.153,28.839,176.944,26.632,179.407"/>
	<path fill="none" stroke="#939393" stroke-miterlimit="10" d="M26.632,179.407c-2.209,2.463-5.998,2.668-8.465,0.457
		c-2.466-2.211-2.676-6-0.463-8.463c2.206-2.463,5.998-2.668,8.461-0.457C28.632,173.153,28.839,176.944,26.632,179.407z"/>
	<g>
		<g>
			<defs>
				
					<rect id="SVGID_81_" x="16.513" y="169.757" transform="matrix(-0.7445 -0.6676 0.6676 -0.7445 -78.4352 320.7881)" width="11.307" height="11.292"/>
			</defs>
			<clipPath id="SVGID_82_">
				<use xlink:href="#SVGID_81_"  overflow="visible"/>
			</clipPath>
			<path clip-path="url(#SVGID_82_)" fill="#BEBFBF" d="M26.375,179.176c-2.081,2.32-5.655,2.514-7.978,0.432
				c-2.324-2.084-2.52-5.654-0.438-7.979c2.083-2.32,5.651-2.514,7.976-0.43C28.26,173.284,28.456,176.856,26.375,179.176"/>
			<path clip-path="url(#SVGID_82_)" fill="#C0C1C1" d="M26.274,179.088c-2.032,2.266-5.519,2.455-7.788,0.42
				c-2.269-2.035-2.46-5.521-0.429-7.789c2.035-2.268,5.52-2.455,7.789-0.42C28.116,173.333,28.308,176.819,26.274,179.088"/>
			<path clip-path="url(#SVGID_82_)" fill="#C3C4C4" d="M26.175,178.999c-1.982,2.213-5.387,2.396-7.6,0.412
				c-2.217-1.986-2.4-5.389-0.418-7.602c1.983-2.213,5.387-2.398,7.602-0.412S28.159,176.788,26.175,178.999"/>
			<path clip-path="url(#SVGID_82_)" fill="#C5C6C6" d="M26.078,178.911c-1.935,2.156-5.255,2.336-7.415,0.4
				c-2.158-1.938-2.344-5.258-0.407-7.414c1.935-2.158,5.253-2.338,7.413-0.402C27.829,173.432,28.013,176.752,26.078,178.911"/>
			<path clip-path="url(#SVGID_82_)" fill="#C7C9C9" d="M25.978,178.823c-1.885,2.102-5.121,2.277-7.227,0.389
				c-2.104-1.887-2.282-5.123-0.396-7.227c1.887-2.104,5.121-2.277,7.227-0.391C27.685,173.483,27.864,176.719,25.978,178.823"/>
			<path clip-path="url(#SVGID_82_)" fill="#CACBCB" d="M25.88,178.733c-1.838,2.047-4.988,2.219-7.039,0.381
				c-2.051-1.84-2.225-4.99-0.389-7.039c1.84-2.051,4.992-2.219,7.04-0.381C27.542,173.532,27.714,176.682,25.88,178.733"/>
			<path clip-path="url(#SVGID_82_)" fill="#CCCECE" d="M25.781,178.643c-1.789,1.994-4.856,2.16-6.852,0.371
				c-1.997-1.789-2.165-4.857-0.377-6.85c1.788-1.996,4.854-2.162,6.852-0.373C27.401,173.583,27.568,176.649,25.781,178.643"/>
			<path clip-path="url(#SVGID_82_)" fill="#CED0D0" d="M25.681,178.557c-1.737,1.938-4.723,2.1-6.662,0.357
				c-1.941-1.74-2.106-4.725-0.367-6.662c1.739-1.939,4.723-2.102,6.666-0.361C27.257,173.631,27.421,176.616,25.681,178.557"/>
			<path clip-path="url(#SVGID_82_)" fill="#D1D3D3" d="M25.581,178.467c-1.689,1.885-4.587,2.039-6.475,0.35
				c-1.888-1.691-2.045-4.592-0.357-6.477c1.691-1.885,4.591-2.041,6.477-0.35C27.114,173.682,27.272,176.583,25.581,178.467"/>
			<path clip-path="url(#SVGID_82_)" fill="#D3D5D5" d="M25.483,178.377c-1.641,1.83-4.457,1.982-6.287,0.34
				c-1.833-1.643-1.987-4.457-0.346-6.289c1.639-1.828,4.455-1.982,6.287-0.338C26.97,173.733,27.124,176.547,25.483,178.377"/>
		</g>
	</g>
	<polygon fill="#605F5E" points="19.353,177.438 21.124,175.459 19.142,173.684 20.131,172.584 22.109,174.362 23.884,172.383 
		24.981,173.368 23.212,175.348 25.19,177.122 24.203,178.221 22.226,176.444 20.45,178.424 	"/>
	<path fill="#231815" d="M24.804,173.377l-1.604,1.789l-0.174,0.189l0.193,0.172l1.791,1.604l-0.815,0.91l-1.79-1.607l-0.19-0.17
		l-0.171,0.189l-1.604,1.791l-0.908-0.816l1.602-1.787l0.172-0.191l-0.189-0.17l-1.789-1.605l0.813-0.908l1.788,1.604l0.19,0.172
		l0.171-0.189l1.602-1.789L24.804,173.377z M25.164,173.358l-1.292-1.154l-1.771,1.977l-1.982-1.775l-1.154,1.289l1.98,1.775
		l-1.773,1.979l1.287,1.156l1.776-1.979l1.979,1.775l1.157-1.287l-1.981-1.775L25.164,173.358z"/>
</g>
<g>
	<path fill="#4F4F4F" d="M28.241,244.697c-3.004,3.352-8.16,3.633-11.52,0.623c-3.354-3.01-3.637-8.168-0.631-11.52
		c3.004-3.352,8.161-3.631,11.518-0.623C30.966,236.186,31.249,241.344,28.241,244.697"/>
	<path fill="#AFAFAF" d="M26.632,243.252c-2.209,2.463-5.998,2.668-8.465,0.457c-2.466-2.211-2.676-6-0.463-8.463
		c2.206-2.463,5.998-2.668,8.461-0.457C28.632,236.998,28.839,240.789,26.632,243.252"/>
	<path fill="none" stroke="#939393" stroke-miterlimit="10" d="M26.632,243.252c-2.209,2.463-5.998,2.668-8.465,0.457
		c-2.466-2.211-2.676-6-0.463-8.463c2.206-2.463,5.998-2.668,8.461-0.457C28.632,236.998,28.839,240.789,26.632,243.252z"/>
	<g>
		<g>
			<defs>
				
					<rect id="SVGID_83_" x="16.513" y="233.602" transform="matrix(-0.7445 -0.6676 0.6676 -0.7445 -121.0601 432.1658)" width="11.307" height="11.292"/>
			</defs>
			<clipPath id="SVGID_84_">
				<use xlink:href="#SVGID_83_"  overflow="visible"/>
			</clipPath>
			<path clip-path="url(#SVGID_84_)" fill="#BEBFBF" d="M26.375,243.021c-2.081,2.32-5.655,2.514-7.978,0.432
				c-2.324-2.084-2.52-5.654-0.438-7.979c2.083-2.32,5.651-2.514,7.976-0.43C28.26,237.129,28.456,240.701,26.375,243.021"/>
			<path clip-path="url(#SVGID_84_)" fill="#C0C1C1" d="M26.274,242.934c-2.032,2.266-5.519,2.455-7.788,0.42
				c-2.269-2.035-2.46-5.521-0.429-7.789c2.035-2.268,5.52-2.455,7.789-0.42C28.116,237.178,28.308,240.664,26.274,242.934"/>
			<path clip-path="url(#SVGID_84_)" fill="#C3C4C4" d="M26.175,242.844c-1.982,2.213-5.387,2.396-7.6,0.412
				c-2.217-1.986-2.4-5.389-0.418-7.602c1.983-2.213,5.387-2.398,7.602-0.412S28.159,240.633,26.175,242.844"/>
			<path clip-path="url(#SVGID_84_)" fill="#C5C6C6" d="M26.078,242.756c-1.935,2.156-5.255,2.336-7.415,0.4
				c-2.158-1.938-2.344-5.258-0.407-7.414c1.935-2.158,5.253-2.338,7.413-0.402C27.829,237.277,28.013,240.598,26.078,242.756"/>
			<path clip-path="url(#SVGID_84_)" fill="#C7C9C9" d="M25.978,242.668c-1.885,2.102-5.121,2.277-7.227,0.389
				c-2.104-1.887-2.282-5.123-0.396-7.227c1.887-2.104,5.121-2.277,7.227-0.391C27.685,237.328,27.864,240.564,25.978,242.668"/>
			<path clip-path="url(#SVGID_84_)" fill="#CACBCB" d="M25.88,242.578c-1.838,2.047-4.988,2.219-7.039,0.381
				c-2.051-1.84-2.225-4.99-0.389-7.039c1.84-2.051,4.992-2.219,7.04-0.381C27.542,237.377,27.714,240.527,25.88,242.578"/>
			<path clip-path="url(#SVGID_84_)" fill="#CCCECE" d="M25.781,242.488c-1.789,1.994-4.856,2.16-6.852,0.371
				c-1.997-1.789-2.165-4.857-0.377-6.85c1.788-1.996,4.854-2.162,6.852-0.373C27.401,237.428,27.568,240.494,25.781,242.488"/>
			<path clip-path="url(#SVGID_84_)" fill="#CED0D0" d="M25.681,242.402c-1.737,1.938-4.723,2.1-6.662,0.357
				c-1.941-1.74-2.106-4.725-0.367-6.662c1.739-1.939,4.723-2.102,6.666-0.361C27.257,237.477,27.421,240.461,25.681,242.402"/>
			<path clip-path="url(#SVGID_84_)" fill="#D1D3D3" d="M25.581,242.313c-1.689,1.885-4.587,2.039-6.475,0.35
				c-1.888-1.691-2.045-4.592-0.357-6.477c1.691-1.885,4.591-2.041,6.477-0.35C27.114,237.527,27.272,240.428,25.581,242.313"/>
			<path clip-path="url(#SVGID_84_)" fill="#D3D5D5" d="M25.483,242.223c-1.641,1.83-4.457,1.982-6.287,0.34
				c-1.833-1.643-1.987-4.457-0.346-6.289c1.639-1.828,4.455-1.982,6.287-0.338C26.97,237.578,27.124,240.393,25.483,242.223"/>
		</g>
	</g>
	<polygon fill="#605F5E" points="19.353,241.283 21.124,239.305 19.142,237.529 20.131,236.43 22.109,238.207 23.884,236.229 
		24.981,237.213 23.212,239.193 25.19,240.967 24.203,242.066 22.226,240.289 20.45,242.27 	"/>
	<path fill="#231815" d="M24.804,237.223l-1.604,1.789l-0.174,0.189l0.193,0.172l1.791,1.604l-0.815,0.91l-1.79-1.607l-0.19-0.17
		l-0.171,0.189l-1.604,1.791l-0.908-0.816l1.602-1.787l0.172-0.191l-0.189-0.17l-1.789-1.605l0.813-0.908l1.788,1.604l0.19,0.172
		l0.171-0.189l1.602-1.789L24.804,237.223z M25.164,237.203l-1.292-1.154l-1.771,1.977l-1.982-1.775l-1.154,1.289l1.98,1.775
		l-1.773,1.979l1.287,1.156l1.776-1.979l1.979,1.775l1.157-1.287l-1.981-1.775L25.164,237.203z"/>
</g>
<rect x="216.175" y="137.879" fill="#575364" width="83.105" height="45.504"/>
<rect x="968.579" y="205.18" fill="#575364" width="83.105" height="45.504"/>
</svg>
