<?xml version="1.0" encoding="utf-8"?>
<!-- Generator: Adobe Illustrator 16.0.0, SVG Export Plug-In . SVG Version: 6.00 Build 0)  -->
<!DOCTYPE svg PUBLIC "-//W3C//DTD SVG 1.1//EN" "http://www.w3.org/Graphics/SVG/1.1/DTD/svg11.dtd">
<svg version="1.1" id="图层_1" xmlns="http://www.w3.org/2000/svg" xmlns:xlink="http://www.w3.org/1999/xlink" x="0px" y="0px"
	 width="1276px" height="126.14px" viewBox="0 0 1276 126.14" enable-background="new 0 0 1276 126.14" xml:space="preserve">
<rect width="1276" height="126.14"/>
<rect x="4.023" y="3.786" fill="#A3A198" width="1268.41" height="118.569"/>
<g>
	<path fill="#4F4F4F" d="M29.714,63.782c-3.005,3.353-8.163,3.632-11.523,0.625c-3.354-3.01-3.638-8.168-0.631-11.521
		c3.005-3.351,8.164-3.63,11.521-0.622C32.439,55.271,32.723,60.429,29.714,63.782"/>
	<path fill="#AFAFAF" d="M28.104,62.338c-2.21,2.461-6,2.668-8.468,0.457c-2.467-2.211-2.677-6-0.463-8.463
		c2.207-2.463,6-2.667,8.463-0.457C30.104,56.084,30.312,59.875,28.104,62.338"/>
	<path fill="none" stroke="#939393" stroke-miterlimit="10" d="M28.104,62.338c-2.21,2.461-6,2.668-8.468,0.457
		c-2.467-2.211-2.677-6-0.463-8.463c2.207-2.463,6-2.667,8.463-0.457C30.104,56.084,30.312,59.875,28.104,62.338z"/>
	<g>
		<g>
			<defs>
				
					<rect id="SVGID_1_" x="17.982" y="52.686" transform="matrix(-0.7446 -0.6675 0.6675 -0.7446 2.2989 117.5466)" width="11.309" height="11.294"/>
			</defs>
			<clipPath id="SVGID_2_">
				<use xlink:href="#SVGID_1_"  overflow="visible"/>
			</clipPath>
			<path clip-path="url(#SVGID_2_)" fill="#BEBFBF" d="M27.847,62.107c-2.082,2.32-5.657,2.514-7.98,0.432
				c-2.325-2.084-2.521-5.655-0.438-7.979c2.083-2.32,5.653-2.513,7.978-0.43C29.732,56.215,29.929,59.786,27.847,62.107"/>
			<path clip-path="url(#SVGID_2_)" fill="#C0C1C1" d="M27.746,62.02c-2.033,2.266-5.52,2.453-7.791,0.419
				c-2.269-2.034-2.46-5.521-0.429-7.788c2.036-2.267,5.521-2.456,7.792-0.42C29.589,56.264,29.78,59.75,27.746,62.02"/>
			<path clip-path="url(#SVGID_2_)" fill="#C3C4C4" d="M27.646,61.93c-1.983,2.213-5.388,2.396-7.602,0.411
				c-2.217-1.985-2.401-5.389-0.418-7.601c1.984-2.213,5.389-2.398,7.604-0.413C29.446,56.314,29.632,59.718,27.646,61.93"/>
			<path clip-path="url(#SVGID_2_)" fill="#C5C6C6" d="M27.55,61.841c-1.935,2.158-5.256,2.335-7.417,0.401
				c-2.159-1.938-2.344-5.258-0.407-7.414c1.935-2.158,5.255-2.338,7.416-0.402C29.301,56.363,29.485,59.684,27.55,61.841"/>
			<path clip-path="url(#SVGID_2_)" fill="#C7C9C9" d="M27.449,61.754c-1.885,2.102-5.123,2.277-7.229,0.389
				c-2.104-1.888-2.283-5.124-0.396-7.227c1.887-2.104,5.123-2.277,7.229-0.391C29.157,56.413,29.336,59.649,27.449,61.754"/>
			<path clip-path="url(#SVGID_2_)" fill="#CACBCB" d="M27.352,61.664c-1.838,2.047-4.99,2.219-7.042,0.38
				c-2.051-1.839-2.225-4.989-0.389-7.038c1.84-2.051,4.994-2.219,7.042-0.382C29.014,56.463,29.186,59.613,27.352,61.664"/>
			<path clip-path="url(#SVGID_2_)" fill="#CCCECE" d="M27.253,61.574c-1.79,1.994-4.858,2.159-6.854,0.371
				c-1.998-1.789-2.166-4.857-0.377-6.85c1.789-1.996,4.855-2.162,6.854-0.373C28.874,56.514,29.041,59.58,27.253,61.574"/>
			<path clip-path="url(#SVGID_2_)" fill="#CED0D0" d="M27.152,61.487c-1.738,1.938-4.724,2.101-6.664,0.358
				c-1.942-1.74-2.107-4.725-0.368-6.663c1.74-1.939,4.724-2.101,6.668-0.36C28.729,56.563,28.893,59.547,27.152,61.487"/>
			<path clip-path="url(#SVGID_2_)" fill="#D1D3D3" d="M27.053,61.398c-1.69,1.884-4.588,2.039-6.477,0.349
				c-1.889-1.691-2.046-4.591-0.358-6.476c1.692-1.885,4.592-2.041,6.479-0.35C28.586,56.613,28.745,59.514,27.053,61.398"/>
			<path clip-path="url(#SVGID_2_)" fill="#D3D5D5" d="M26.955,61.309c-1.641,1.829-4.458,1.982-6.289,0.34
				c-1.834-1.643-1.988-4.458-0.346-6.289c1.64-1.829,4.457-1.983,6.29-0.339C28.442,56.663,28.596,59.478,26.955,61.309"/>
		</g>
	</g>
	<polygon fill="#605F5E" points="20.822,60.369 22.594,58.391 20.611,56.614 21.601,55.516 23.58,57.293 25.355,55.314 
		26.453,56.299 24.683,58.278 26.662,60.053 25.674,61.152 23.696,59.375 21.92,61.355 	"/>
	<path fill="#231815" d="M26.275,56.309l-1.604,1.789l-0.174,0.189l0.193,0.171l1.792,1.604l-0.816,0.91l-1.791-1.607l-0.19-0.17
		l-0.171,0.189l-1.604,1.791l-0.908-0.816l1.602-1.787l0.172-0.191l-0.189-0.171l-1.79-1.605l0.813-0.907l1.789,1.604l0.191,0.172
		l0.171-0.189l1.602-1.789L26.275,56.309z M26.636,56.289l-1.292-1.155l-1.772,1.978l-1.983-1.775l-1.154,1.288l1.981,1.776
		l-1.774,1.979l1.288,1.156l1.777-1.979l1.979,1.774l1.158-1.287l-1.982-1.775L26.636,56.289z"/>
</g>
<g>
	<path fill="#4F4F4F" d="M104.744,47.469c-3.005,3.353-8.163,3.633-11.523,0.624c-3.355-3.01-3.638-8.168-0.631-11.521
		c3.005-3.352,8.164-3.631,11.521-0.622C107.469,38.958,107.752,44.115,104.744,47.469"/>
	<path fill="#AFAFAF" d="M103.134,46.024c-2.209,2.462-6,2.668-8.467,0.457c-2.467-2.211-2.677-6-0.463-8.463
		c2.207-2.464,6-2.668,8.464-0.457C105.135,39.771,105.342,43.562,103.134,46.024"/>
	<path fill="none" stroke="#939393" stroke-miterlimit="10" d="M103.134,46.024c-2.209,2.462-6,2.668-8.467,0.457
		c-2.467-2.211-2.677-6-0.463-8.463c2.207-2.464,6-2.668,8.464-0.457C105.135,39.771,105.342,43.562,103.134,46.024z"/>
	<g>
		<g>
			<defs>
				
					<rect id="SVGID_3_" x="93.012" y="36.373" transform="matrix(-0.7446 -0.6675 0.6675 -0.7446 144.0868 139.1685)" width="11.309" height="11.294"/>
			</defs>
			<clipPath id="SVGID_4_">
				<use xlink:href="#SVGID_3_"  overflow="visible"/>
			</clipPath>
			<path clip-path="url(#SVGID_4_)" fill="#BEBFBF" d="M102.877,45.794c-2.082,2.32-5.657,2.514-7.98,0.432
				c-2.325-2.084-2.521-5.655-0.439-7.979c2.084-2.32,5.653-2.514,7.979-0.43C104.762,39.901,104.958,43.473,102.877,45.794"/>
			<path clip-path="url(#SVGID_4_)" fill="#C0C1C1" d="M102.776,45.706c-2.033,2.266-5.521,2.454-7.791,0.419
				c-2.27-2.034-2.461-5.521-0.429-7.788c2.036-2.268,5.521-2.456,7.792-0.42C104.619,39.95,104.81,43.437,102.776,45.706"/>
			<path clip-path="url(#SVGID_4_)" fill="#C3C4C4" d="M102.677,45.616c-1.983,2.213-5.389,2.396-7.602,0.411
				c-2.218-1.985-2.401-5.389-0.418-7.601c1.984-2.213,5.388-2.398,7.604-0.413C104.476,40.001,104.662,43.404,102.677,45.616"/>
			<path clip-path="url(#SVGID_4_)" fill="#C5C6C6" d="M102.58,45.527c-1.935,2.157-5.257,2.336-7.417,0.401
				c-2.159-1.938-2.345-5.258-0.407-7.414c1.935-2.158,5.254-2.338,7.416-0.402C104.332,40.05,104.515,43.37,102.58,45.527"/>
			<path clip-path="url(#SVGID_4_)" fill="#C7C9C9" d="M102.479,45.44c-1.885,2.102-5.123,2.277-7.229,0.389
				c-2.104-1.888-2.283-5.124-0.396-7.227c1.887-2.104,5.123-2.277,7.229-0.391C104.187,40.1,104.367,43.336,102.479,45.44"/>
			<path clip-path="url(#SVGID_4_)" fill="#CACBCB" d="M102.382,45.351c-1.839,2.047-4.99,2.219-7.042,0.38
				s-2.225-4.989-0.389-7.038c1.84-2.051,4.994-2.219,7.042-0.382C104.044,40.149,104.216,43.3,102.382,45.351"/>
			<path clip-path="url(#SVGID_4_)" fill="#CCCECE" d="M102.283,45.261c-1.79,1.994-4.858,2.159-6.854,0.371
				c-1.998-1.789-2.166-4.857-0.377-6.85c1.789-1.996,4.855-2.162,6.854-0.373C103.904,40.2,104.071,43.267,102.283,45.261"/>
			<path clip-path="url(#SVGID_4_)" fill="#CED0D0" d="M102.183,45.174c-1.738,1.938-4.725,2.101-6.665,0.358
				c-1.942-1.74-2.107-4.725-0.367-6.663c1.74-1.939,4.724-2.101,6.668-0.36C103.759,40.249,103.923,43.233,102.183,45.174"/>
			<path clip-path="url(#SVGID_4_)" fill="#D1D3D3" d="M102.083,45.085c-1.69,1.884-4.589,2.039-6.477,0.349
				c-1.888-1.691-2.045-4.591-0.357-6.476c1.692-1.885,4.592-2.041,6.479-0.35C103.617,40.3,103.775,43.2,102.083,45.085"/>
			<path clip-path="url(#SVGID_4_)" fill="#D3D5D5" d="M101.985,44.995c-1.641,1.829-4.458,1.982-6.289,0.34
				c-1.833-1.643-1.988-4.458-0.346-6.289c1.639-1.829,4.457-1.983,6.289-0.339C103.472,40.35,103.626,43.164,101.985,44.995"/>
		</g>
	</g>
	<polygon fill="#605F5E" points="95.852,44.056 97.625,42.077 95.641,40.301 96.631,39.202 98.61,40.979 100.385,39.001 
		101.483,39.985 99.713,41.965 101.692,43.739 100.705,44.839 98.726,43.062 96.95,45.042 	"/>
	<path fill="#231815" d="M101.305,39.995l-1.604,1.789l-0.174,0.189l0.193,0.171l1.792,1.604l-0.815,0.91l-1.791-1.607l-0.19-0.17
		l-0.171,0.189l-1.604,1.791l-0.908-0.816l1.602-1.787l0.172-0.191l-0.189-0.171l-1.79-1.605l0.814-0.907l1.789,1.604l0.19,0.172
		l0.171-0.189l1.602-1.789L101.305,39.995z M101.666,39.976l-1.292-1.155l-1.772,1.978l-1.983-1.775l-1.155,1.288l1.981,1.776
		l-1.774,1.979l1.288,1.156l1.777-1.979l1.979,1.774l1.157-1.287l-1.982-1.775L101.666,39.976z"/>
</g>
<g>
	<path fill="#4F4F4F" d="M695.818,47.469c-3.005,3.353-8.163,3.633-11.523,0.624c-3.354-3.01-3.638-8.168-0.631-11.521
		c3.005-3.352,8.163-3.631,11.521-0.622C698.544,38.958,698.827,44.115,695.818,47.469"/>
	<path fill="#AFAFAF" d="M694.209,46.024c-2.21,2.462-6,2.668-8.468,0.457s-2.677-6-0.463-8.463c2.205-2.464,6-2.668,8.463-0.457
		C696.209,39.771,696.416,43.562,694.209,46.024"/>
	<path fill="none" stroke="#939393" stroke-miterlimit="10" d="M694.209,46.024c-2.21,2.462-6,2.668-8.468,0.457
		s-2.677-6-0.463-8.463c2.205-2.464,6-2.668,8.463-0.457C696.209,39.771,696.416,43.562,694.209,46.024z"/>
	<g>
		<g>
			<defs>
				
					<rect id="SVGID_5_" x="684.087" y="36.373" transform="matrix(-0.7446 -0.6675 0.6675 -0.7446 1175.2817 533.71)" width="11.309" height="11.295"/>
			</defs>
			<clipPath id="SVGID_6_">
				<use xlink:href="#SVGID_5_"  overflow="visible"/>
			</clipPath>
			<path clip-path="url(#SVGID_6_)" fill="#BEBFBF" d="M693.951,45.794c-2.081,2.32-5.656,2.514-7.979,0.432
				c-2.325-2.084-2.521-5.655-0.439-7.979c2.084-2.32,5.654-2.514,7.979-0.43C695.836,39.901,696.033,43.473,693.951,45.794"/>
			<path clip-path="url(#SVGID_6_)" fill="#C0C1C1" d="M693.851,45.706c-2.033,2.266-5.521,2.454-7.791,0.419
				c-2.269-2.034-2.46-5.521-0.428-7.788c2.035-2.268,5.521-2.456,7.791-0.42C695.693,39.95,695.885,43.437,693.851,45.706"/>
			<path clip-path="url(#SVGID_6_)" fill="#C3C4C4" d="M693.751,45.616c-1.982,2.213-5.388,2.396-7.602,0.411
				c-2.218-1.985-2.401-5.389-0.418-7.601c1.982-2.213,5.389-2.398,7.604-0.413C695.551,40.001,695.736,43.404,693.751,45.616"/>
			<path clip-path="url(#SVGID_6_)" fill="#C5C6C6" d="M693.653,45.527c-1.934,2.157-5.255,2.336-7.416,0.401
				c-2.159-1.938-2.345-5.258-0.408-7.414c1.936-2.158,5.256-2.338,7.416-0.402C695.406,40.05,695.59,43.37,693.653,45.527"/>
			<path clip-path="url(#SVGID_6_)" fill="#C7C9C9" d="M693.554,45.44c-1.885,2.102-5.122,2.277-7.229,0.389
				c-2.104-1.888-2.284-5.124-0.396-7.227c1.887-2.104,5.123-2.277,7.229-0.391C695.262,40.1,695.441,43.336,693.554,45.44"/>
			<path clip-path="url(#SVGID_6_)" fill="#CACBCB" d="M693.456,45.351c-1.838,2.047-4.989,2.219-7.041,0.38
				s-2.226-4.989-0.389-7.038c1.841-2.051,4.993-2.219,7.041-0.382C695.119,40.149,695.291,43.3,693.456,45.351"/>
			<path clip-path="url(#SVGID_6_)" fill="#CCCECE" d="M693.356,45.261c-1.789,1.994-4.856,2.159-6.854,0.371
				c-1.997-1.789-2.165-4.857-0.377-6.85c1.79-1.996,4.854-2.162,6.854-0.373C694.979,40.2,695.145,43.267,693.356,45.261"/>
			<path clip-path="url(#SVGID_6_)" fill="#CED0D0" d="M693.257,45.174c-1.738,1.938-4.724,2.101-6.664,0.358
				c-1.942-1.74-2.108-4.725-0.367-6.663c1.739-1.939,4.724-2.101,6.668-0.36C694.834,40.249,694.998,43.233,693.257,45.174"/>
			<path clip-path="url(#SVGID_6_)" fill="#D1D3D3" d="M693.157,45.085c-1.689,1.884-4.589,2.039-6.477,0.349
				c-1.89-1.691-2.046-4.591-0.357-6.476c1.692-1.885,4.591-2.041,6.479-0.35C694.691,40.3,694.85,43.2,693.157,45.085"/>
			<path clip-path="url(#SVGID_6_)" fill="#D3D5D5" d="M693.06,44.995c-1.641,1.829-4.458,1.982-6.289,0.34
				c-1.835-1.643-1.989-4.458-0.346-6.289c1.64-1.829,4.456-1.983,6.289-0.339C694.547,40.35,694.701,43.164,693.06,44.995"/>
		</g>
	</g>
	<polygon fill="#605F5E" points="686.927,44.056 688.699,42.077 686.716,40.301 687.704,39.202 689.684,40.979 691.46,39.001 
		692.558,39.985 690.787,41.965 692.767,43.739 691.778,44.839 689.801,43.062 688.025,45.042 	"/>
	<path fill="#231815" d="M692.38,39.995l-1.604,1.789l-0.174,0.189l0.193,0.171l1.792,1.604l-0.816,0.91l-1.79-1.607l-0.191-0.17
		l-0.17,0.189l-1.604,1.791l-0.909-0.816l1.603-1.787l0.172-0.191l-0.189-0.171l-1.79-1.605l0.813-0.907l1.79,1.604l0.189,0.172
		l0.172-0.189l1.603-1.789L692.38,39.995z M692.739,39.976l-1.291-1.155l-1.772,1.978l-1.983-1.775l-1.154,1.288l1.981,1.776
		l-1.774,1.979l1.288,1.156l1.775-1.979l1.979,1.774l1.158-1.287l-1.983-1.775L692.739,39.976z"/>
</g>
<g>
	<path fill="#4F4F4F" d="M1242.767,47.469c-3.005,3.353-8.163,3.633-11.523,0.624c-3.354-3.01-3.638-8.168-0.631-11.521
		c3.005-3.352,8.163-3.631,11.521-0.622C1245.492,38.958,1245.775,44.115,1242.767,47.469"/>
	<path fill="#AFAFAF" d="M1241.156,46.024c-2.209,2.462-6,2.668-8.467,0.457c-2.468-2.211-2.677-6-0.463-8.463
		c2.205-2.464,6-2.668,8.463-0.457C1243.157,39.771,1243.364,43.562,1241.156,46.024"/>
	<path fill="none" stroke="#939393" stroke-miterlimit="10" d="M1241.156,46.024c-2.209,2.462-6,2.668-8.467,0.457
		c-2.468-2.211-2.677-6-0.463-8.463c2.205-2.464,6-2.668,8.463-0.457C1243.157,39.771,1243.364,43.562,1241.156,46.024z"/>
	<g>
		<g>
			<defs>
				
					<rect id="SVGID_7_" x="1231.035" y="36.373" transform="matrix(-0.7446 -0.6675 0.6675 -0.7446 2129.4937 898.7974)" width="11.309" height="11.295"/>
			</defs>
			<clipPath id="SVGID_8_">
				<use xlink:href="#SVGID_7_"  overflow="visible"/>
			</clipPath>
			<path clip-path="url(#SVGID_8_)" fill="#BEBFBF" d="M1240.898,45.794c-2.08,2.32-5.656,2.514-7.979,0.432
				c-2.325-2.084-2.521-5.655-0.439-7.979c2.084-2.32,5.654-2.514,7.979-0.43C1242.784,39.901,1242.981,43.473,1240.898,45.794"/>
			<path clip-path="url(#SVGID_8_)" fill="#C0C1C1" d="M1240.799,45.706c-2.033,2.266-5.521,2.454-7.791,0.419
				c-2.269-2.034-2.46-5.521-0.428-7.788c2.035-2.268,5.521-2.456,7.791-0.42C1242.642,39.95,1242.833,43.437,1240.799,45.706"/>
			<path clip-path="url(#SVGID_8_)" fill="#C3C4C4" d="M1240.699,45.616c-1.982,2.213-5.389,2.396-7.602,0.411
				c-2.218-1.985-2.401-5.389-0.418-7.601c1.982-2.213,5.388-2.398,7.604-0.413C1242.499,40.001,1242.685,43.404,1240.699,45.616"/>
			<path clip-path="url(#SVGID_8_)" fill="#C5C6C6" d="M1240.602,45.527c-1.934,2.157-5.256,2.336-7.416,0.401
				c-2.159-1.938-2.345-5.258-0.408-7.414c1.936-2.158,5.255-2.338,7.416-0.402C1242.354,40.05,1242.538,43.37,1240.602,45.527"/>
			<path clip-path="url(#SVGID_8_)" fill="#C7C9C9" d="M1240.502,45.44c-1.885,2.102-5.123,2.277-7.229,0.389
				c-2.104-1.888-2.284-5.124-0.396-7.227c1.887-2.104,5.122-2.277,7.229-0.391C1242.21,40.1,1242.39,43.336,1240.502,45.44"/>
			<path clip-path="url(#SVGID_8_)" fill="#CACBCB" d="M1240.404,45.351c-1.838,2.047-4.99,2.219-7.041,0.38
				c-2.052-1.839-2.226-4.989-0.389-7.038c1.84-2.051,4.993-2.219,7.041-0.382C1242.067,40.149,1242.239,43.3,1240.404,45.351"/>
			<path clip-path="url(#SVGID_8_)" fill="#CCCECE" d="M1240.305,45.261c-1.789,1.994-4.856,2.159-6.854,0.371
				c-1.997-1.789-2.165-4.857-0.377-6.85c1.789-1.996,4.854-2.162,6.854-0.373C1241.927,40.2,1242.093,43.267,1240.305,45.261"/>
			<path clip-path="url(#SVGID_8_)" fill="#CED0D0" d="M1240.205,45.174c-1.738,1.938-4.724,2.101-6.664,0.358
				c-1.942-1.74-2.108-4.725-0.367-6.663c1.738-1.939,4.724-2.101,6.668-0.36C1241.782,40.249,1241.946,43.233,1240.205,45.174"/>
			<path clip-path="url(#SVGID_8_)" fill="#D1D3D3" d="M1240.105,45.085c-1.689,1.884-4.589,2.039-6.477,0.349
				c-1.89-1.691-2.046-4.591-0.357-6.476c1.691-1.885,4.591-2.041,6.479-0.35C1241.64,40.3,1241.798,43.2,1240.105,45.085"/>
			<path clip-path="url(#SVGID_8_)" fill="#D3D5D5" d="M1240.008,44.995c-1.641,1.829-4.458,1.982-6.289,0.34
				c-1.835-1.643-1.989-4.458-0.346-6.289c1.639-1.829,4.456-1.983,6.289-0.339C1241.495,40.35,1241.649,43.164,1240.008,44.995"/>
		</g>
	</g>
	<polygon fill="#605F5E" points="1233.875,44.056 1235.647,42.077 1233.664,40.301 1234.652,39.202 1236.632,40.979 
		1238.408,39.001 1239.506,39.985 1237.735,41.965 1239.715,43.739 1238.727,44.839 1236.749,43.062 1234.973,45.042 	"/>
	<path fill="#231815" d="M1239.328,39.995l-1.604,1.789l-0.174,0.189l0.193,0.171l1.792,1.604l-0.816,0.91l-1.79-1.607l-0.191-0.17
		l-0.17,0.189l-1.604,1.791l-0.908-0.816l1.603-1.787l0.172-0.191l-0.189-0.171l-1.79-1.605l0.813-0.907l1.79,1.604l0.189,0.172
		l0.172-0.189l1.603-1.789L1239.328,39.995z M1239.688,39.976l-1.291-1.155l-1.772,1.978l-1.983-1.775l-1.154,1.288l1.981,1.776
		l-1.774,1.979l1.287,1.156l1.776-1.979l1.979,1.774l1.158-1.287l-1.983-1.775L1239.688,39.976z"/>
</g>
<g>
	<path fill="#4F4F4F" d="M624.762,47.469c-3.005,3.353-8.163,3.633-11.523,0.624c-3.355-3.01-3.638-8.168-0.631-11.521
		c3.005-3.352,8.164-3.631,11.521-0.622C627.488,38.958,627.771,44.115,624.762,47.469"/>
	<path fill="#AFAFAF" d="M623.152,46.024c-2.209,2.462-6,2.668-8.468,0.457c-2.466-2.211-2.676-6-0.463-8.463
		c2.207-2.464,6-2.668,8.464-0.457C625.153,39.771,625.36,43.562,623.152,46.024"/>
	<path fill="none" stroke="#939393" stroke-miterlimit="10" d="M623.152,46.024c-2.209,2.462-6,2.668-8.468,0.457
		c-2.466-2.211-2.676-6-0.463-8.463c2.207-2.464,6-2.668,8.464-0.457C625.153,39.771,625.36,43.562,623.152,46.024z"/>
	<g>
		<g>
			<defs>
				
					<rect id="SVGID_9_" x="613.031" y="36.373" transform="matrix(-0.7446 -0.6675 0.6675 -0.7446 1051.3164 486.2801)" width="11.309" height="11.294"/>
			</defs>
			<clipPath id="SVGID_10_">
				<use xlink:href="#SVGID_9_"  overflow="visible"/>
			</clipPath>
			<path clip-path="url(#SVGID_10_)" fill="#BEBFBF" d="M622.896,45.794c-2.082,2.32-5.657,2.514-7.98,0.432
				c-2.325-2.084-2.521-5.655-0.439-7.979c2.084-2.32,5.653-2.514,7.979-0.43C624.781,39.901,624.977,43.473,622.896,45.794"/>
			<path clip-path="url(#SVGID_10_)" fill="#C0C1C1" d="M622.795,45.706c-2.033,2.266-5.521,2.454-7.791,0.419
				c-2.27-2.034-2.461-5.521-0.429-7.788c2.036-2.268,5.521-2.456,7.792-0.42C624.637,39.95,624.829,43.437,622.795,45.706"/>
			<path clip-path="url(#SVGID_10_)" fill="#C3C4C4" d="M622.695,45.616c-1.983,2.213-5.389,2.396-7.602,0.411
				c-2.218-1.985-2.401-5.389-0.418-7.601c1.984-2.213,5.389-2.398,7.604-0.413C624.495,40.001,624.68,43.404,622.695,45.616"/>
			<path clip-path="url(#SVGID_10_)" fill="#C5C6C6" d="M622.599,45.527c-1.936,2.157-5.257,2.336-7.417,0.401
				c-2.159-1.938-2.345-5.258-0.407-7.414c1.935-2.158,5.254-2.338,7.416-0.402C624.35,40.05,624.534,43.37,622.599,45.527"/>
			<path clip-path="url(#SVGID_10_)" fill="#C7C9C9" d="M622.498,45.44c-1.886,2.102-5.123,2.277-7.229,0.389
				c-2.104-1.888-2.283-5.124-0.396-7.227c1.887-2.104,5.123-2.277,7.229-0.391C624.206,40.1,624.385,43.336,622.498,45.44"/>
			<path clip-path="url(#SVGID_10_)" fill="#CACBCB" d="M622.4,45.351c-1.839,2.047-4.99,2.219-7.042,0.38s-2.225-4.989-0.389-7.038
				c1.84-2.051,4.994-2.219,7.042-0.382C624.063,40.149,624.235,43.3,622.4,45.351"/>
			<path clip-path="url(#SVGID_10_)" fill="#CCCECE" d="M622.302,45.261c-1.79,1.994-4.858,2.159-6.854,0.371
				c-1.998-1.789-2.166-4.857-0.377-6.85c1.789-1.996,4.855-2.162,6.854-0.373C623.922,40.2,624.089,43.267,622.302,45.261"/>
			<path clip-path="url(#SVGID_10_)" fill="#CED0D0" d="M622.201,45.174c-1.738,1.938-4.725,2.101-6.665,0.358
				c-1.942-1.74-2.107-4.725-0.367-6.663c1.74-1.939,4.724-2.101,6.668-0.36C623.778,40.249,623.942,43.233,622.201,45.174"/>
			<path clip-path="url(#SVGID_10_)" fill="#D1D3D3" d="M622.102,45.085c-1.69,1.884-4.589,2.039-6.477,0.349
				c-1.888-1.691-2.045-4.591-0.357-6.476c1.692-1.885,4.592-2.041,6.479-0.35C623.635,40.3,623.793,43.2,622.102,45.085"/>
			<path clip-path="url(#SVGID_10_)" fill="#D3D5D5" d="M622.003,44.995c-1.641,1.829-4.458,1.982-6.289,0.34
				c-1.833-1.643-1.988-4.458-0.346-6.289c1.639-1.829,4.457-1.983,6.289-0.339C623.49,40.35,623.645,43.164,622.003,44.995"/>
		</g>
	</g>
	<polygon fill="#605F5E" points="615.871,44.056 617.643,42.077 615.66,40.301 616.649,39.202 618.628,40.979 620.403,39.001 
		621.501,39.985 619.731,41.965 621.71,43.739 620.723,44.839 618.745,43.062 616.969,45.042 	"/>
	<path fill="#231815" d="M621.324,39.995l-1.604,1.789l-0.174,0.189l0.193,0.171l1.792,1.604l-0.816,0.91l-1.791-1.607l-0.19-0.17
		l-0.171,0.189l-1.604,1.791l-0.908-0.816l1.602-1.787l0.172-0.191l-0.19-0.171l-1.79-1.605l0.814-0.907l1.789,1.604l0.19,0.172
		l0.171-0.189l1.602-1.789L621.324,39.995z M621.684,39.976l-1.292-1.155l-1.772,1.978l-1.983-1.775l-1.155,1.288l1.981,1.776
		l-1.774,1.979l1.288,1.156l1.777-1.979l1.979,1.774l1.158-1.287l-1.982-1.775L621.684,39.976z"/>
</g>
</svg>
