<?xml version="1.0" encoding="utf-8"?>
<!-- Generator: Adobe Illustrator 16.0.0, SVG Export Plug-In . SVG Version: 6.00 Build 0)  -->
<!DOCTYPE svg PUBLIC "-//W3C//DTD SVG 1.1//EN" "http://www.w3.org/Graphics/SVG/1.1/DTD/svg11.dtd">
<svg version="1.1" id="图层_1" xmlns="http://www.w3.org/2000/svg" xmlns:xlink="http://www.w3.org/1999/xlink" x="0px" y="0px"
	 width="1276px" height="378.5px" viewBox="0 0 1276 378.5" enable-background="new 0 0 1276 378.5" xml:space="preserve">
<polygon fill="#C9C9C9" points="0,0 0,126.178 0,252.356 0,378.534 1276,378.534 1276,252.356 1276,126.178 1276,0 "/>
<rect x="7.968" y="7.895" width="1255.842" height="364.587"/>
<path fill="#C9C9C9" d="M1260.478,118.782c0,3.219-2.269,5.828-5.068,5.828H14.37c-2.798,0-5.068-2.609-5.068-5.828V15.057
	c0-3.219,2.271-5.828,5.068-5.828h1241.039c2.8,0,5.068,2.609,5.068,5.828V118.782z"/>
<g>
	<path fill="#4F4F4F" d="M557.881,45.852c-3.005,3.906-8.163,4.235-11.523,0.726c-3.354-3.508-3.638-9.52-0.631-13.426
		c3.005-3.907,8.164-4.232,11.521-0.725C560.607,35.932,560.89,41.944,557.881,45.852"/>
	<path fill="#AFAFAF" d="M556.271,44.167c-2.21,2.871-6,3.111-8.468,0.534c-2.466-2.577-2.677-6.994-0.463-9.865
		c2.207-2.87,6-3.109,8.464-0.533C558.272,36.879,558.479,41.298,556.271,44.167"/>
	<path fill="none" stroke="#939393" stroke-miterlimit="10" d="M556.271,44.167c-2.21,2.871-6,3.111-8.468,0.534
		c-2.466-2.577-2.677-6.994-0.463-9.865c2.207-2.87,6-3.109,8.464-0.533C558.272,36.879,558.479,41.298,556.271,44.167z"/>
	<g>
		<g>
			<defs>
				<polygon id="SVGID_1_" points="543.824,40.002 552.245,48.801 559.784,39 551.364,30.202 				"/>
			</defs>
			<clipPath id="SVGID_2_">
				<use xlink:href="#SVGID_1_"  overflow="visible"/>
			</clipPath>
			<path clip-path="url(#SVGID_2_)" fill="#BEBFBF" d="M556.015,43.899c-2.082,2.705-5.657,2.931-7.98,0.503
				c-2.325-2.429-2.52-6.591-0.438-9.298c2.084-2.706,5.653-2.931,7.978-0.502C557.9,37.031,558.096,41.194,556.015,43.899"/>
			<path clip-path="url(#SVGID_2_)" fill="#C0C1C1" d="M555.914,43.797c-2.033,2.641-5.521,2.861-7.791,0.489
				c-2.269-2.372-2.46-6.436-0.429-9.079c2.036-2.643,5.521-2.861,7.792-0.489C557.756,37.088,557.948,41.152,555.914,43.797"/>
			<path clip-path="url(#SVGID_2_)" fill="#C3C4C4" d="M555.814,43.693c-1.983,2.578-5.389,2.792-7.602,0.479
				c-2.218-2.314-2.401-6.28-0.418-8.86c1.984-2.579,5.389-2.794,7.604-0.479C557.614,37.147,557.799,41.115,555.814,43.693"/>
			<path clip-path="url(#SVGID_2_)" fill="#C5C6C6" d="M555.718,43.59c-1.936,2.512-5.257,2.722-7.417,0.466
				c-2.159-2.257-2.345-6.128-0.408-8.64c1.936-2.517,5.255-2.726,7.416-0.469C557.469,37.204,557.653,41.074,555.718,43.59"/>
			<path clip-path="url(#SVGID_2_)" fill="#C7C9C9" d="M555.617,43.487c-1.886,2.449-5.123,2.654-7.229,0.454
				c-2.104-2.201-2.283-5.973-0.397-8.423c1.888-2.452,5.123-2.654,7.229-0.456C557.325,37.263,557.504,41.035,555.617,43.487"/>
			<path clip-path="url(#SVGID_2_)" fill="#CACBCB" d="M555.519,43.383c-1.838,2.385-4.99,2.585-7.041,0.443
				c-2.052-2.144-2.226-5.816-0.389-8.205c1.841-2.388,4.994-2.585,7.042-0.443C557.182,37.321,557.354,40.993,555.519,43.383"/>
			<path clip-path="url(#SVGID_2_)" fill="#CCCECE" d="M555.421,43.278c-1.791,2.324-4.859,2.517-6.854,0.432
				c-1.998-2.084-2.166-5.66-0.377-7.983c1.789-2.326,4.856-2.52,6.854-0.434C557.041,37.379,557.208,40.953,555.421,43.278"/>
			<path clip-path="url(#SVGID_2_)" fill="#CED0D0" d="M555.32,43.178c-1.738,2.257-4.724,2.447-6.664,0.416
				c-1.942-2.027-2.107-5.506-0.367-7.765c1.74-2.26,4.724-2.449,6.668-0.421C556.896,37.437,557.061,40.916,555.32,43.178"/>
			<path clip-path="url(#SVGID_2_)" fill="#D1D3D3" d="M555.22,43.073c-1.69,2.196-4.588,2.378-6.477,0.408
				c-1.888-1.971-2.045-5.352-0.357-7.548c1.692-2.196,4.592-2.379,6.479-0.408C556.754,37.495,556.912,40.876,555.22,43.073"/>
			<path clip-path="url(#SVGID_2_)" fill="#D3D5D5" d="M555.123,42.967c-1.641,2.134-4.458,2.312-6.289,0.397
				c-1.833-1.915-1.988-5.195-0.346-7.331c1.639-2.13,4.457-2.31,6.289-0.394C556.609,37.555,556.764,40.835,555.123,42.967"/>
		</g>
	</g>
	<polygon fill="#605F5E" points="548.989,41.874 550.762,39.567 548.779,37.497 549.769,36.215 551.748,38.288 553.522,35.981 
		554.621,37.13 552.851,39.437 554.83,41.504 553.842,42.787 551.863,40.715 550.088,43.022 	"/>
	<path fill="#231815" d="M554.443,37.142l-1.604,2.083l-0.174,0.222l0.193,0.199l1.792,1.87l-0.816,1.061l-1.791-1.873l-0.19-0.199
		l-0.171,0.222l-1.604,2.086l-0.909-0.951l1.602-2.083l0.172-0.224l-0.189-0.198l-1.79-1.871l0.814-1.059l1.789,1.869l0.19,0.202
		l0.171-0.222l1.602-2.086L554.443,37.142z M554.803,37.118l-1.292-1.346l-1.773,2.304l-1.982-2.069l-1.155,1.502l1.981,2.069
		l-1.774,2.307l1.288,1.349l1.777-2.307l1.979,2.068l1.158-1.499l-1.982-2.07L554.803,37.118z"/>
</g>
<g>
	<g>
		<defs>
			<path id="SVGID_3_" d="M271.757,10.354l-3.466,0.111l-0.779,18.653l12.838,2.548c5.127,1.016,9.805-3.585,9.805-9.642v-2.27
				c0-2.751-1.589-5.158-3.872-5.865l-8.715-2.696c-1.696-0.489-3.803-0.841-5.58-0.841
				C271.909,10.352,271.833,10.354,271.757,10.354"/>
		</defs>
		<clipPath id="SVGID_4_">
			<use xlink:href="#SVGID_3_"  overflow="visible"/>
		</clipPath>
		
			<linearGradient id="SVGID_5_" gradientUnits="userSpaceOnUse" x1="-201.4834" y1="485.6416" x2="-200.4071" y2="485.6416" gradientTransform="matrix(-21.6019 8.6407 -8.6407 -21.6019 136.9095 12247.5791)">
			<stop  offset="0" style="stop-color:#E1E0DF"/>
			<stop  offset="1" style="stop-color:#666666"/>
		</linearGradient>
		<polygon clip-path="url(#SVGID_4_)" fill="url(#SVGID_5_)" points="287.031,1.255 260.903,13.432 270.634,41.779 296.763,29.601 
					"/>
	</g>
	<g>
		<defs>
			<path id="SVGID_6_" d="M282.17,104.701l-14.659,3.271l1.686,18.526c3.118,0,6.223-0.475,9.235-1.412l5.186-1.61
				c3.854-1.2,6.536-5.266,6.535-9.915v-1.17c0-4.406-3.083-7.833-6.705-7.833C283.028,104.559,282.6,104.605,282.17,104.701"/>
		</defs>
		<clipPath id="SVGID_7_">
			<use xlink:href="#SVGID_6_"  overflow="visible"/>
		</clipPath>
		
			<linearGradient id="SVGID_8_" gradientUnits="userSpaceOnUse" x1="-208.4438" y1="493.6152" x2="-207.4435" y2="493.6152" gradientTransform="matrix(-14.9609 0 0 -14.9609 -2825.9463 7500.4614)">
			<stop  offset="0" style="stop-color:#E1E0DF"/>
			<stop  offset="1" style="stop-color:#666666"/>
		</linearGradient>
		<rect x="267.511" y="104.559" clip-path="url(#SVGID_7_)" fill="url(#SVGID_8_)" width="22.643" height="21.94"/>
	</g>
	<g>
		<defs>
			<path id="SVGID_9_" d="M269.197,10.356c-5.455,0-9.876,5.151-9.876,11.507v93.125c0,6.356,4.421,11.509,9.876,11.509
				c5.453,0,9.876-5.153,9.876-11.509V21.864C279.074,15.507,274.65,10.356,269.197,10.356L269.197,10.356z"/>
		</defs>
		<clipPath id="SVGID_10_">
			<use xlink:href="#SVGID_9_"  overflow="visible"/>
		</clipPath>
		
			<linearGradient id="SVGID_11_" gradientUnits="userSpaceOnUse" x1="-168.9819" y1="479.9082" x2="-167.9814" y2="479.9082" gradientTransform="matrix(19.747 0 0 19.747 3596.2129 -9408.3213)">
			<stop  offset="0" style="stop-color:#CCCDCD"/>
			<stop  offset="0.4731" style="stop-color:#E1E0DF"/>
			<stop  offset="1" style="stop-color:#666666"/>
		</linearGradient>
		<rect x="259.321" y="10.356" clip-path="url(#SVGID_10_)" fill="url(#SVGID_11_)" width="19.752" height="116.142"/>
	</g>
</g>
<polygon fill="#3D3D3D" points="909.2,34.908 905.53,27.503 909.2,20.1 916.538,20.1 920.207,27.503 916.538,34.908 "/>
<polygon fill="#3D3D3D" points="909.2,56.486 905.53,49.083 909.2,41.677 916.538,41.677 920.207,49.083 916.538,56.486 "/>
<polygon fill="#3D3D3D" points="909.2,78.065 905.53,70.663 909.2,63.257 916.538,63.257 920.207,70.663 916.538,78.065 "/>
<polygon fill="#3D3D3D" points="909.2,99.645 905.53,92.241 909.2,84.836 916.538,84.836 920.207,92.241 916.538,99.645 "/>
<polygon fill="#3D3D3D" points="909.2,121.225 905.53,113.821 909.2,106.416 916.538,106.416 920.207,113.821 916.538,121.225 "/>
<polygon fill="#3D3D3D" points="925.168,24.117 921.497,16.713 925.168,9.308 932.506,9.308 936.176,16.713 932.506,24.117 "/>
<polygon fill="#3D3D3D" points="925.168,45.696 921.497,38.292 925.168,30.887 932.506,30.887 936.176,38.292 932.506,45.696 "/>
<polygon fill="#3D3D3D" points="925.168,67.275 921.497,59.872 925.168,52.467 932.506,52.467 936.176,59.872 932.506,67.275 "/>
<polygon fill="#3D3D3D" points="925.168,88.855 921.497,81.451 925.168,74.047 932.506,74.047 936.176,81.451 932.506,88.855 "/>
<polygon fill="#3D3D3D" points="925.168,110.435 921.497,103.031 925.168,95.625 932.506,95.625 936.176,103.031 932.506,110.435 
	"/>
<polygon fill="#3D3D3D" points="940.216,34.908 936.547,27.503 940.216,20.1 947.556,20.1 951.226,27.503 947.556,34.908 "/>
<polygon fill="#3D3D3D" points="940.216,56.486 936.547,49.083 940.216,41.677 947.556,41.677 951.226,49.083 947.556,56.486 "/>
<polygon fill="#3D3D3D" points="940.216,78.065 936.547,70.663 940.216,63.257 947.556,63.257 951.226,70.663 947.556,78.065 "/>
<polygon fill="#3D3D3D" points="940.216,99.645 936.547,92.241 940.216,84.836 947.556,84.836 951.226,92.241 947.556,99.645 "/>
<polygon fill="#3D3D3D" points="940.216,121.225 936.547,113.821 940.216,106.416 947.556,106.416 951.226,113.821 947.556,121.225 
	"/>
<polygon fill="#3D3D3D" points="932.506,117.206 925.168,117.206 921.497,124.61 936.176,124.61 "/>
<polygon fill="#3D3D3D" points="954.895,24.117 951.226,16.713 954.895,9.308 962.232,9.308 965.901,16.713 962.232,24.117 "/>
<polygon fill="#3D3D3D" points="954.895,45.696 951.226,38.292 954.895,30.887 962.232,30.887 965.901,38.292 962.232,45.696 "/>
<polygon fill="#3D3D3D" points="954.895,67.275 951.226,59.872 954.895,52.467 962.232,52.467 965.901,59.872 962.232,67.275 "/>
<polygon fill="#3D3D3D" points="954.895,88.855 951.226,81.451 954.895,74.047 962.232,74.047 965.901,81.451 962.232,88.855 "/>
<polygon fill="#3D3D3D" points="954.895,110.435 951.226,103.031 954.895,95.625 962.232,95.625 965.901,103.031 962.232,110.435 
	"/>
<polygon fill="#3D3D3D" points="969.944,34.908 966.275,27.503 969.944,20.1 977.282,20.1 980.951,27.503 977.282,34.908 "/>
<polygon fill="#3D3D3D" points="969.944,56.486 966.275,49.083 969.944,41.677 977.282,41.677 980.951,49.083 977.282,56.486 "/>
<polygon fill="#3D3D3D" points="969.944,78.065 966.275,70.663 969.944,63.257 977.282,63.257 980.951,70.663 977.282,78.065 "/>
<polygon fill="#3D3D3D" points="969.944,99.645 966.275,92.241 969.944,84.836 977.282,84.836 980.951,92.241 977.282,99.645 "/>
<polygon fill="#3D3D3D" points="962.232,117.206 954.895,117.206 951.226,124.61 965.901,124.61 "/>
<polygon fill="#3D3D3D" points="1000.96,34.908 997.291,27.503 1000.96,20.1 1008.298,20.1 1011.968,27.503 1008.298,34.908 "/>
<polygon fill="#3D3D3D" points="1000.96,56.486 997.291,49.083 1000.96,41.677 1008.298,41.677 1011.968,49.083 1008.298,56.486 "/>
<polygon fill="#3D3D3D" points="1000.96,78.065 997.291,70.663 1000.96,63.257 1008.298,63.257 1011.968,70.663 1008.298,78.065 "/>
<polygon fill="#3D3D3D" points="1000.96,99.645 997.291,92.241 1000.96,84.836 1008.298,84.836 1011.968,92.241 1008.298,99.645 "/>
<polygon fill="#3D3D3D" points="993.248,117.206 985.91,117.206 982.241,124.61 996.918,124.61 "/>
<polygon fill="#3D3D3D" points="1015.637,24.117 1011.968,16.713 1015.637,9.308 1022.977,9.308 1026.646,16.713 1022.977,24.117 
	"/>
<polygon fill="#3D3D3D" points="1015.637,45.696 1011.968,38.292 1015.637,30.887 1022.977,30.887 1026.646,38.292 1022.977,45.696 
	"/>
<polygon fill="#3D3D3D" points="1015.637,67.275 1011.968,59.872 1015.637,52.467 1022.977,52.467 1026.646,59.872 1022.977,67.275 
	"/>
<polygon fill="#3D3D3D" points="1015.637,88.855 1011.968,81.451 1015.637,74.047 1022.977,74.047 1026.646,81.451 1022.977,88.855 
	"/>
<polygon fill="#3D3D3D" points="1015.637,110.435 1011.968,103.031 1015.637,95.625 1022.977,95.625 1026.646,103.031 
	1022.977,110.435 "/>
<polygon fill="#3D3D3D" points="1030.687,34.908 1027.018,27.503 1030.687,20.1 1038.026,20.1 1041.695,27.503 1038.026,34.908 "/>
<polygon fill="#3D3D3D" points="1030.687,56.486 1027.018,49.083 1030.687,41.677 1038.026,41.677 1041.695,49.083 1038.026,56.486 
	"/>
<polygon fill="#3D3D3D" points="1030.687,78.065 1027.018,70.663 1030.687,63.257 1038.026,63.257 1041.695,70.663 1038.026,78.065 
	"/>
<polygon fill="#3D3D3D" points="1030.687,99.645 1027.018,92.241 1030.687,84.836 1038.026,84.836 1041.695,92.241 1038.026,99.645 
	"/>
<polygon fill="#3D3D3D" points="1030.687,121.225 1027.018,113.821 1030.687,106.416 1038.026,106.416 1041.695,113.821 
	1038.026,121.225 "/>
<polygon fill="#3D3D3D" points="1022.977,117.206 1015.637,117.206 1011.968,124.61 1026.646,124.61 "/>
<polygon fill="#3D3D3D" points="1046.654,24.117 1042.985,16.713 1046.654,9.308 1053.992,9.308 1057.662,16.713 1053.992,24.117 
	"/>
<polygon fill="#3D3D3D" points="1046.654,45.696 1042.985,38.292 1046.654,30.887 1053.992,30.887 1057.662,38.292 1053.992,45.696 
	"/>
<polygon fill="#3D3D3D" points="1046.654,67.275 1042.985,59.872 1046.654,52.467 1053.992,52.467 1057.662,59.872 1053.992,67.275 
	"/>
<polygon fill="#3D3D3D" points="1046.654,88.855 1042.985,81.451 1046.654,74.047 1053.992,74.047 1057.662,81.451 1053.992,88.855 
	"/>
<polygon fill="#3D3D3D" points="1046.654,110.435 1042.985,103.031 1046.654,95.625 1053.992,95.625 1057.662,103.031 
	1053.992,110.435 "/>
<polygon fill="#3D3D3D" points="1061.704,34.908 1058.035,27.503 1061.704,20.1 1069.043,20.1 1072.712,27.503 1069.043,34.908 "/>
<polygon fill="#3D3D3D" points="1061.704,56.486 1058.035,49.083 1061.704,41.677 1069.043,41.677 1072.712,49.083 1069.043,56.486 
	"/>
<polygon fill="#3D3D3D" points="1061.704,78.065 1058.035,70.663 1061.704,63.257 1069.043,63.257 1072.712,70.663 1069.043,78.065 
	"/>
<polygon fill="#3D3D3D" points="1061.704,99.645 1058.035,92.241 1061.704,84.836 1069.043,84.836 1072.712,92.241 1069.043,99.645 
	"/>
<polygon fill="#3D3D3D" points="1061.704,121.225 1058.035,113.821 1061.704,106.416 1069.043,106.416 1072.712,113.821 
	1069.043,121.225 "/>
<polygon fill="#3D3D3D" points="1053.992,117.206 1046.654,117.206 1042.985,124.61 1057.662,124.61 "/>
<polygon fill="#3D3D3D" points="1076.381,24.117 1072.712,16.713 1076.381,9.308 1083.719,9.308 1087.389,16.713 1083.719,24.117 
	"/>
<polygon fill="#3D3D3D" points="1076.381,45.696 1072.712,38.292 1076.381,30.887 1083.719,30.887 1087.389,38.292 1083.719,45.696 
	"/>
<polygon fill="#3D3D3D" points="1076.381,67.275 1072.712,59.872 1076.381,52.467 1083.719,52.467 1087.389,59.872 1083.719,67.275 
	"/>
<polygon fill="#3D3D3D" points="1076.381,88.855 1072.712,81.451 1076.381,74.047 1083.719,74.047 1087.389,81.451 1083.719,88.855 
	"/>
<polygon fill="#3D3D3D" points="1076.381,110.435 1072.712,103.031 1076.381,95.625 1083.719,95.625 1087.389,103.031 
	1083.719,110.435 "/>
<polygon fill="#3D3D3D" points="1091.431,34.908 1087.762,27.503 1091.431,20.1 1098.769,20.1 1102.438,27.503 1098.769,34.908 "/>
<polygon fill="#3D3D3D" points="1091.431,56.486 1087.762,49.083 1091.431,41.677 1098.769,41.677 1102.438,49.083 1098.769,56.486 
	"/>
<polygon fill="#3D3D3D" points="1091.431,78.065 1087.762,70.663 1091.431,63.257 1098.769,63.257 1102.438,70.663 1098.769,78.065 
	"/>
<polygon fill="#3D3D3D" points="1091.431,99.645 1087.762,92.241 1091.431,84.836 1098.769,84.836 1102.438,92.241 1098.769,99.645 
	"/>
<polygon fill="#3D3D3D" points="1091.431,121.225 1087.762,113.821 1091.431,106.416 1098.769,106.416 1102.438,113.821 
	1098.769,121.225 "/>
<polygon fill="#3D3D3D" points="1083.719,117.206 1076.381,117.206 1072.712,124.61 1087.389,124.61 "/>
<polygon fill="#3D3D3D" points="1107.398,24.117 1103.729,16.713 1107.398,9.308 1114.737,9.308 1118.406,16.713 1114.737,24.117 
	"/>
<polygon fill="#3D3D3D" points="1107.398,45.696 1103.729,38.292 1107.398,30.887 1114.737,30.887 1118.406,38.292 1114.737,45.696 
	"/>
<polygon fill="#3D3D3D" points="1107.398,67.275 1103.729,59.872 1107.398,52.467 1114.737,52.467 1118.406,59.872 1114.737,67.275 
	"/>
<polygon fill="#3D3D3D" points="1107.398,88.855 1103.729,81.451 1107.398,74.047 1114.737,74.047 1118.406,81.451 1114.737,88.855 
	"/>
<polygon fill="#3D3D3D" points="1107.398,110.435 1103.729,103.031 1107.398,95.625 1114.737,95.625 1118.406,103.031 
	1114.737,110.435 "/>
<polygon fill="#3D3D3D" points="1122.448,34.908 1118.779,27.503 1122.448,20.1 1129.787,20.1 1133.456,27.503 1129.787,34.908 "/>
<polygon fill="#3D3D3D" points="1122.448,56.486 1118.779,49.083 1122.448,41.677 1129.787,41.677 1133.456,49.083 1129.787,56.486 
	"/>
<polygon fill="#3D3D3D" points="1122.448,78.065 1118.779,70.663 1122.448,63.257 1129.787,63.257 1133.456,70.663 1129.787,78.065 
	"/>
<polygon fill="#3D3D3D" points="1122.448,99.645 1118.779,92.241 1122.448,84.836 1129.787,84.836 1133.456,92.241 1129.787,99.645 
	"/>
<polygon fill="#3D3D3D" points="1122.448,121.225 1118.779,113.821 1122.448,106.416 1129.787,106.416 1133.456,113.821 
	1129.787,121.225 "/>
<polygon fill="#3D3D3D" points="1114.737,117.206 1107.398,117.206 1103.729,124.61 1118.406,124.61 "/>
<polygon fill="#3D3D3D" points="1137.125,24.117 1133.456,16.713 1137.125,9.308 1144.463,9.308 1148.133,16.713 1144.463,24.117 
	"/>
<polygon fill="#3D3D3D" points="1137.125,45.696 1133.456,38.292 1137.125,30.887 1144.463,30.887 1148.133,38.292 1144.463,45.696 
	"/>
<polygon fill="#3D3D3D" points="1137.125,67.275 1133.456,59.872 1137.125,52.467 1144.463,52.467 1148.133,59.872 1144.463,67.275 
	"/>
<polygon fill="#3D3D3D" points="1137.125,88.855 1133.456,81.451 1137.125,74.047 1144.463,74.047 1148.133,81.451 1144.463,88.855 
	"/>
<polygon fill="#3D3D3D" points="1137.125,110.435 1133.456,103.031 1137.125,95.625 1144.463,95.625 1148.133,103.031 
	1144.463,110.435 "/>
<polygon fill="#3D3D3D" points="1152.175,34.908 1148.506,27.503 1152.175,20.1 1159.514,20.1 1163.183,27.503 1159.514,34.908 "/>
<polygon fill="#3D3D3D" points="1152.175,56.486 1148.506,49.083 1152.175,41.677 1159.514,41.677 1163.183,49.083 1159.514,56.486 
	"/>
<polygon fill="#3D3D3D" points="1152.175,78.065 1148.506,70.663 1152.175,63.257 1159.514,63.257 1163.183,70.663 1159.514,78.065 
	"/>
<polygon fill="#3D3D3D" points="1152.175,99.645 1148.506,92.241 1152.175,84.836 1159.514,84.836 1163.183,92.241 1159.514,99.645 
	"/>
<polygon fill="#3D3D3D" points="1152.175,121.225 1148.506,113.821 1152.175,106.416 1159.514,106.416 1163.183,113.821 
	1159.514,121.225 "/>
<polygon fill="#3D3D3D" points="1144.463,117.206 1137.125,117.206 1133.456,124.61 1148.133,124.61 "/>
<polygon fill="#3D3D3D" points="1168.143,24.117 1164.474,16.713 1168.143,9.308 1175.481,9.308 1179.15,16.713 1175.481,24.117 "/>
<polygon fill="#3D3D3D" points="1168.143,45.696 1164.474,38.292 1168.143,30.887 1175.481,30.887 1179.15,38.292 1175.481,45.696 
	"/>
<polygon fill="#3D3D3D" points="1168.143,67.275 1164.474,59.872 1168.143,52.467 1175.481,52.467 1179.15,59.872 1175.481,67.275 
	"/>
<polygon fill="#3D3D3D" points="1168.143,88.855 1164.474,81.451 1168.143,74.047 1175.481,74.047 1179.15,81.451 1175.481,88.855 
	"/>
<polygon fill="#3D3D3D" points="1168.143,110.435 1164.474,103.031 1168.143,95.625 1175.481,95.625 1179.15,103.031 
	1175.481,110.435 "/>
<polygon fill="#3D3D3D" points="1183.192,34.908 1179.523,27.503 1183.192,20.1 1190.531,20.1 1194.2,27.503 1190.531,34.908 "/>
<polygon fill="#3D3D3D" points="1183.192,56.486 1179.523,49.083 1183.192,41.677 1190.531,41.677 1194.2,49.083 1190.531,56.486 
	"/>
<polygon fill="#3D3D3D" points="1183.192,78.065 1179.523,70.663 1183.192,63.257 1190.531,63.257 1194.2,70.663 1190.531,78.065 
	"/>
<polygon fill="#3D3D3D" points="1183.192,99.645 1179.523,92.241 1183.192,84.836 1190.531,84.836 1194.2,92.241 1190.531,99.645 
	"/>
<polygon fill="#3D3D3D" points="1183.192,121.225 1179.523,113.821 1183.192,106.416 1190.531,106.416 1194.2,113.821 
	1190.531,121.225 "/>
<polygon fill="#3D3D3D" points="1175.481,117.206 1168.143,117.206 1164.474,124.61 1179.15,124.61 "/>
<polygon fill="#3D3D3D" points="1197.869,24.117 1194.2,16.713 1197.869,9.308 1205.208,9.308 1208.877,16.713 1205.208,24.117 "/>
<polygon fill="#3D3D3D" points="1197.869,45.696 1194.2,38.292 1197.869,30.887 1205.208,30.887 1208.877,38.292 1205.208,45.696 
	"/>
<polygon fill="#3D3D3D" points="1197.869,67.275 1194.2,59.872 1197.869,52.467 1205.208,52.467 1208.877,59.872 1205.208,67.275 
	"/>
<polygon fill="#3D3D3D" points="1197.869,88.855 1194.2,81.451 1197.869,74.047 1205.208,74.047 1208.877,81.451 1205.208,88.855 
	"/>
<polygon fill="#3D3D3D" points="1197.869,110.435 1194.2,103.031 1197.869,95.625 1205.208,95.625 1208.877,103.031 
	1205.208,110.435 "/>
<polygon fill="#3D3D3D" points="1212.919,34.908 1209.25,27.503 1212.919,20.1 1220.258,20.1 1223.927,27.503 1220.258,34.908 "/>
<polygon fill="#3D3D3D" points="1212.919,56.486 1209.25,49.083 1212.919,41.677 1220.258,41.677 1223.927,49.083 1220.258,56.486 
	"/>
<polygon fill="#3D3D3D" points="1212.919,78.065 1209.25,70.663 1212.919,63.257 1220.258,63.257 1223.927,70.663 1220.258,78.065 
	"/>
<polygon fill="#3D3D3D" points="1212.919,99.645 1209.25,92.241 1212.919,84.836 1220.258,84.836 1223.927,92.241 1220.258,99.645 
	"/>
<polygon fill="#3D3D3D" points="1212.919,121.225 1209.25,113.821 1212.919,106.416 1220.258,106.416 1223.927,113.821 
	1220.258,121.225 "/>
<polygon fill="#3D3D3D" points="1205.208,117.206 1197.869,117.206 1194.2,124.61 1208.877,124.61 "/>
<polygon fill="#3D3D3D" points="1228.887,24.117 1225.218,16.713 1228.887,9.308 1236.226,9.308 1239.895,16.713 1236.226,24.117 
	"/>
<polygon fill="#3D3D3D" points="1228.887,45.696 1225.218,38.292 1228.887,30.887 1236.226,30.887 1239.895,38.292 1236.226,45.696 
	"/>
<polygon fill="#3D3D3D" points="1228.887,67.275 1225.218,59.872 1228.887,52.467 1236.226,52.467 1239.895,59.872 1236.226,67.275 
	"/>
<polygon fill="#3D3D3D" points="1228.887,88.855 1225.218,81.451 1228.887,74.047 1236.226,74.047 1239.895,81.451 1236.226,88.855 
	"/>
<polygon fill="#3D3D3D" points="1228.887,110.435 1225.218,103.031 1228.887,95.625 1236.226,95.625 1239.895,103.031 
	1236.226,110.435 "/>
<polygon fill="#3D3D3D" points="1243.937,34.908 1240.268,27.503 1243.937,20.1 1251.275,20.1 1254.944,27.503 1251.275,34.908 "/>
<polygon fill="#3D3D3D" points="1243.937,56.486 1240.268,49.083 1243.937,41.677 1251.275,41.677 1254.944,49.083 1251.275,56.486 
	"/>
<polygon fill="#3D3D3D" points="1243.937,78.065 1240.268,70.663 1243.937,63.257 1251.275,63.257 1254.944,70.663 1251.275,78.065 
	"/>
<polygon fill="#3D3D3D" points="1243.937,99.645 1240.268,92.241 1243.937,84.836 1251.275,84.836 1254.944,92.241 1251.275,99.645 
	"/>
<polygon fill="#3D3D3D" points="1243.937,121.225 1240.268,113.821 1243.937,106.416 1251.275,106.416 1254.944,113.821 
	1251.275,121.225 "/>
<polygon fill="#3D3D3D" points="1236.226,117.206 1228.887,117.206 1225.218,124.61 1239.895,124.61 "/>
<polygon fill="#3D3D3D" points="728.165,34.908 724.496,27.503 728.165,20.1 735.503,20.1 739.172,27.503 735.503,34.908 "/>
<polygon fill="#3D3D3D" points="728.165,56.486 724.496,49.083 728.165,41.677 735.503,41.677 739.172,49.083 735.503,56.486 "/>
<polygon fill="#3D3D3D" points="728.165,78.065 724.496,70.663 728.165,63.257 735.503,63.257 739.172,70.663 735.503,78.065 "/>
<polygon fill="#3D3D3D" points="728.165,99.645 724.496,92.241 728.165,84.836 735.503,84.836 739.172,92.241 735.503,99.645 "/>
<polygon fill="#3D3D3D" points="728.165,121.225 724.496,113.821 728.165,106.416 735.503,106.416 739.172,113.821 735.503,121.225 
	"/>
<polygon fill="#3D3D3D" points="742.842,24.117 739.172,16.713 742.842,9.308 750.18,9.308 753.851,16.713 750.18,24.117 "/>
<polygon fill="#3D3D3D" points="742.842,45.696 739.172,38.292 742.842,30.887 750.18,30.887 753.851,38.292 750.18,45.696 "/>
<polygon fill="#3D3D3D" points="742.842,67.275 739.172,59.872 742.842,52.467 750.18,52.467 753.851,59.872 750.18,67.275 "/>
<polygon fill="#3D3D3D" points="742.842,88.855 739.172,81.451 742.842,74.047 750.18,74.047 753.851,81.451 750.18,88.855 "/>
<polygon fill="#3D3D3D" points="742.842,110.435 739.172,103.031 742.842,95.625 750.18,95.625 753.851,103.031 750.18,110.435 "/>
<polygon fill="#3D3D3D" points="757.892,34.908 754.222,27.503 757.892,20.1 765.229,20.1 768.898,27.503 765.229,34.908 "/>
<polygon fill="#3D3D3D" points="757.892,56.486 754.222,49.083 757.892,41.677 765.229,41.677 768.898,49.083 765.229,56.486 "/>
<polygon fill="#3D3D3D" points="757.892,78.065 754.222,70.663 757.892,63.257 765.229,63.257 768.898,70.663 765.229,78.065 "/>
<polygon fill="#3D3D3D" points="757.892,99.645 754.222,92.241 757.892,84.836 765.229,84.836 768.898,92.241 765.229,99.645 "/>
<polygon fill="#3D3D3D" points="757.892,121.225 754.222,113.821 757.892,106.416 765.229,106.416 768.898,113.821 765.229,121.225 
	"/>
<polygon fill="#3D3D3D" points="750.18,117.206 742.842,117.206 739.172,124.61 753.851,124.61 "/>
<polygon fill="#3D3D3D" points="773.859,24.117 770.19,16.713 773.859,9.308 781.197,9.308 784.867,16.713 781.197,24.117 "/>
<polygon fill="#3D3D3D" points="773.859,45.696 770.19,38.292 773.859,30.887 781.197,30.887 784.867,38.292 781.197,45.696 "/>
<polygon fill="#3D3D3D" points="773.859,67.275 770.19,59.872 773.859,52.467 781.197,52.467 784.867,59.872 781.197,67.275 "/>
<polygon fill="#3D3D3D" points="773.859,88.855 770.19,81.451 773.859,74.047 781.197,74.047 784.867,81.451 781.197,88.855 "/>
<polygon fill="#3D3D3D" points="773.859,110.435 770.19,103.031 773.859,95.625 781.197,95.625 784.867,103.031 781.197,110.435 "/>
<polygon fill="#3D3D3D" points="788.909,34.908 785.24,27.503 788.909,20.1 796.247,20.1 799.917,27.503 796.247,34.908 "/>
<polygon fill="#3D3D3D" points="788.909,56.486 785.24,49.083 788.909,41.677 796.247,41.677 799.917,49.083 796.247,56.486 "/>
<polygon fill="#3D3D3D" points="788.909,78.065 785.24,70.663 788.909,63.257 796.247,63.257 799.917,70.663 796.247,78.065 "/>
<polygon fill="#3D3D3D" points="788.909,99.645 785.24,92.241 788.909,84.836 796.247,84.836 799.917,92.241 796.247,99.645 "/>
<polygon fill="#3D3D3D" points="788.909,121.225 785.24,113.821 788.909,106.416 796.247,106.416 799.917,113.821 796.247,121.225 
	"/>
<polygon fill="#3D3D3D" points="781.197,117.206 773.859,117.206 770.19,124.61 784.867,124.61 "/>
<polygon fill="#3D3D3D" points="803.586,24.117 799.917,16.713 803.586,9.308 810.924,9.308 814.593,16.713 810.924,24.117 "/>
<polygon fill="#3D3D3D" points="803.586,45.696 799.917,38.292 803.586,30.887 810.924,30.887 814.593,38.292 810.924,45.696 "/>
<polygon fill="#3D3D3D" points="803.586,67.275 799.917,59.872 803.586,52.467 810.924,52.467 814.593,59.872 810.924,67.275 "/>
<polygon fill="#3D3D3D" points="803.586,88.855 799.917,81.451 803.586,74.047 810.924,74.047 814.593,81.451 810.924,88.855 "/>
<polygon fill="#3D3D3D" points="803.586,110.435 799.917,103.031 803.586,95.625 810.924,95.625 814.593,103.031 810.924,110.435 
	"/>
<polygon fill="#3D3D3D" points="818.636,34.908 814.967,27.503 818.636,20.1 825.974,20.1 829.643,27.503 825.974,34.908 "/>
<polygon fill="#3D3D3D" points="818.636,56.486 814.967,49.083 818.636,41.677 825.974,41.677 829.643,49.083 825.974,56.486 "/>
<polygon fill="#3D3D3D" points="818.636,78.065 814.967,70.663 818.636,63.257 825.974,63.257 829.643,70.663 825.974,78.065 "/>
<polygon fill="#3D3D3D" points="818.636,99.645 814.967,92.241 818.636,84.836 825.974,84.836 829.643,92.241 825.974,99.645 "/>
<polygon fill="#3D3D3D" points="818.636,121.225 814.967,113.821 818.636,106.416 825.974,106.416 829.643,113.821 825.974,121.225 
	"/>
<polygon fill="#3D3D3D" points="810.924,117.206 803.586,117.206 799.917,124.61 814.593,124.61 "/>
<polygon fill="#3D3D3D" points="834.604,24.117 830.935,16.713 834.604,9.308 841.941,9.308 845.611,16.713 841.941,24.117 "/>
<polygon fill="#3D3D3D" points="834.604,45.696 830.935,38.292 834.604,30.887 841.941,30.887 845.611,38.292 841.941,45.696 "/>
<polygon fill="#3D3D3D" points="834.604,67.275 830.935,59.872 834.604,52.467 841.941,52.467 845.611,59.872 841.941,67.275 "/>
<polygon fill="#3D3D3D" points="834.604,88.855 830.935,81.451 834.604,74.047 841.941,74.047 845.611,81.451 841.941,88.855 "/>
<polygon fill="#3D3D3D" points="834.604,110.435 830.935,103.031 834.604,95.625 841.941,95.625 845.611,103.031 841.941,110.435 
	"/>
<polygon fill="#3D3D3D" points="849.653,34.908 845.984,27.503 849.653,20.1 856.991,20.1 860.661,27.503 856.991,34.908 "/>
<polygon fill="#3D3D3D" points="849.653,56.486 845.984,49.083 849.653,41.677 856.991,41.677 860.661,49.083 856.991,56.486 "/>
<polygon fill="#3D3D3D" points="849.653,78.065 845.984,70.663 849.653,63.257 856.991,63.257 860.661,70.663 856.991,78.065 "/>
<polygon fill="#3D3D3D" points="849.653,99.645 845.984,92.241 849.653,84.836 856.991,84.836 860.661,92.241 856.991,99.645 "/>
<polygon fill="#3D3D3D" points="849.653,121.225 845.984,113.821 849.653,106.416 856.991,106.416 860.661,113.821 856.991,121.225 
	"/>
<polygon fill="#3D3D3D" points="841.941,117.206 834.604,117.206 830.935,124.61 845.611,124.61 "/>
<polygon fill="#3D3D3D" points="864.33,24.117 860.661,16.713 864.33,9.308 871.668,9.308 875.338,16.713 871.668,24.117 "/>
<polygon fill="#3D3D3D" points="864.33,45.696 860.661,38.292 864.33,30.887 871.668,30.887 875.338,38.292 871.668,45.696 "/>
<polygon fill="#3D3D3D" points="864.33,67.275 860.661,59.872 864.33,52.467 871.668,52.467 875.338,59.872 871.668,67.275 "/>
<polygon fill="#3D3D3D" points="864.33,88.855 860.661,81.451 864.33,74.047 871.668,74.047 875.338,81.451 871.668,88.855 "/>
<polygon fill="#3D3D3D" points="864.33,110.435 860.661,103.031 864.33,95.625 871.668,95.625 875.338,103.031 871.668,110.435 "/>
<polygon fill="#3D3D3D" points="879.38,34.908 875.711,27.503 879.38,20.1 886.718,20.1 890.387,27.503 886.718,34.908 "/>
<polygon fill="#3D3D3D" points="879.38,56.486 875.711,49.083 879.38,41.677 886.718,41.677 890.387,49.083 886.718,56.486 "/>
<polygon fill="#3D3D3D" points="879.38,78.065 875.711,70.663 879.38,63.257 886.718,63.257 890.387,70.663 886.718,78.065 "/>
<polygon fill="#3D3D3D" points="879.38,99.645 875.711,92.241 879.38,84.836 886.718,84.836 890.387,92.241 886.718,99.645 "/>
<polygon fill="#3D3D3D" points="879.38,121.225 875.711,113.821 879.38,106.416 886.718,106.416 890.387,113.821 886.718,121.225 
	"/>
<polygon fill="#3D3D3D" points="871.668,117.206 864.33,117.206 860.661,124.61 875.338,124.61 "/>
<polygon fill="#3D3D3D" points="895.348,24.117 891.679,16.713 895.348,9.308 902.686,9.308 906.355,16.713 902.686,24.117 "/>
<polygon fill="#3D3D3D" points="895.348,45.696 891.679,38.292 895.348,30.887 902.686,30.887 906.355,38.292 902.686,45.696 "/>
<polygon fill="#3D3D3D" points="895.348,67.275 891.679,59.872 895.348,52.467 902.686,52.467 906.355,59.872 902.686,67.275 "/>
<polygon fill="#3D3D3D" points="895.348,88.855 891.679,81.451 895.348,74.047 902.686,74.047 906.355,81.451 902.686,88.855 "/>
<polygon fill="#3D3D3D" points="895.348,110.435 891.679,103.031 895.348,95.625 902.686,95.625 906.355,103.031 902.686,110.435 
	"/>
<polygon fill="#3D3D3D" points="902.686,117.206 895.348,117.206 891.679,124.61 906.355,124.61 "/>
<g>
	<g>
		<defs>
			<path id="SVGID_12_" d="M991.012,10.354l3.466,0.111l0.779,18.653l-12.838,2.548c-5.127,1.016-9.804-3.585-9.804-9.642v-2.27
				c0-2.751,1.588-5.158,3.87-5.865l8.716-2.696c1.695-0.489,3.804-0.841,5.58-0.841C990.859,10.352,990.936,10.354,991.012,10.354"
				/>
		</defs>
		<clipPath id="SVGID_13_">
			<use xlink:href="#SVGID_12_"  overflow="visible"/>
		</clipPath>
		
			<linearGradient id="SVGID_14_" gradientUnits="userSpaceOnUse" x1="-590.3989" y1="330.0771" x2="-589.3226" y2="330.0771" gradientTransform="matrix(21.6019 8.6407 8.6407 -21.6019 10871.3721 12247.5791)">
			<stop  offset="0" style="stop-color:#E1E0DF"/>
			<stop  offset="1" style="stop-color:#666666"/>
		</linearGradient>
		<polygon clip-path="url(#SVGID_13_)" fill="url(#SVGID_14_)" points="975.737,1.255 1001.866,13.432 992.135,41.779 
			966.005,29.601 		"/>
	</g>
	<g>
		<defs>
			<path id="SVGID_15_" d="M980.598,104.701l14.659,3.271l-1.686,18.526c-3.118,0-6.224-0.475-9.235-1.412l-5.186-1.61
				c-3.854-1.2-6.535-5.266-6.535-9.915v-1.17c0-4.406,3.083-7.833,6.705-7.833C979.74,104.559,980.168,104.605,980.598,104.701"/>
		</defs>
		<clipPath id="SVGID_16_">
			<use xlink:href="#SVGID_15_"  overflow="visible"/>
		</clipPath>
		
			<linearGradient id="SVGID_17_" gradientUnits="userSpaceOnUse" x1="-859.8423" y1="493.6152" x2="-858.8423" y2="493.6152" gradientTransform="matrix(14.9609 0 0 -14.9609 13834.2275 7500.4614)">
			<stop  offset="0" style="stop-color:#E1E0DF"/>
			<stop  offset="1" style="stop-color:#666666"/>
		</linearGradient>
		<rect x="972.615" y="104.559" clip-path="url(#SVGID_16_)" fill="url(#SVGID_17_)" width="22.642" height="21.94"/>
	</g>
	<g>
		<defs>
			<path id="SVGID_18_" d="M993.571,10.356c5.454,0,9.876,5.151,9.876,11.507v93.125c0,6.356-4.422,11.509-9.876,11.509
				c-5.453,0-9.877-5.153-9.877-11.509V21.864C983.694,15.507,988.118,10.356,993.571,10.356L993.571,10.356z"/>
		</defs>
		<clipPath id="SVGID_19_">
			<use xlink:href="#SVGID_18_"  overflow="visible"/>
		</clipPath>
		
			<linearGradient id="SVGID_20_" gradientUnits="userSpaceOnUse" x1="324.5371" y1="479.9082" x2="325.5376" y2="479.9082" gradientTransform="matrix(-19.747 0 0 19.747 7412.0684 -9408.3213)">
			<stop  offset="0" style="stop-color:#CCCDCD"/>
			<stop  offset="0.4731" style="stop-color:#E1E0DF"/>
			<stop  offset="1" style="stop-color:#666666"/>
		</linearGradient>
		<rect x="983.694" y="10.356" clip-path="url(#SVGID_19_)" fill="url(#SVGID_20_)" width="19.753" height="116.142"/>
	</g>
</g>
<polygon fill="#3D3D3D" points="932.506,364.783 925.168,364.783 921.497,371.138 936.176,371.138 "/>
<polygon fill="#3D3D3D" points="962.232,364.783 954.895,364.783 951.226,371.138 965.901,371.138 "/>
<polygon fill="#3D3D3D" points="993.248,364.783 985.91,364.783 982.241,371.138 996.918,371.138 "/>
<polygon fill="#3D3D3D" points="1022.977,364.783 1015.637,364.783 1011.968,371.138 1026.646,371.138 "/>
<polygon fill="#3D3D3D" points="1053.992,364.783 1046.654,364.783 1042.985,371.138 1057.662,371.138 "/>
<polygon fill="#3D3D3D" points="1083.719,364.783 1076.381,364.783 1072.712,371.138 1087.389,371.138 "/>
<polygon fill="#3D3D3D" points="1114.737,364.783 1107.398,364.783 1103.729,371.138 1118.406,371.138 "/>
<polygon fill="#3D3D3D" points="1144.463,364.783 1137.125,364.783 1133.456,371.138 1148.133,371.138 "/>
<polygon fill="#3D3D3D" points="1175.481,364.783 1168.143,364.783 1164.474,371.138 1179.15,371.138 "/>
<polygon fill="#3D3D3D" points="1205.208,364.783 1197.869,364.783 1194.2,371.138 1208.877,371.138 "/>
<polygon fill="#3D3D3D" points="1236.226,364.783 1228.887,364.783 1225.218,371.138 1239.895,371.138 "/>
<polygon fill="#3D3D3D" points="750.18,364.783 742.842,364.783 739.172,371.138 753.851,371.138 "/>
<polygon fill="#3D3D3D" points="781.197,364.783 773.859,364.783 770.19,371.138 784.867,371.138 "/>
<polygon fill="#3D3D3D" points="810.924,364.783 803.586,364.783 799.917,371.138 814.593,371.138 "/>
<polygon fill="#3D3D3D" points="841.941,364.783 834.604,364.783 830.935,371.138 845.611,371.138 "/>
<polygon fill="#3D3D3D" points="871.668,364.783 864.33,364.783 860.661,371.138 875.338,371.138 "/>
<polygon fill="#3D3D3D" points="902.686,364.783 895.348,364.783 891.679,371.138 906.355,371.138 "/>
<path fill="#C9C9C9" d="M9.302,365.136c0,3.18,2.269,5.757,5.068,5.757h1241.039c2.798,0,5.068-2.577,5.068-5.757V262.673
	c0-3.18-2.271-5.757-5.068-5.757H14.37c-2.8,0-5.068,2.577-5.068,5.757V365.136z"/>
<g>
	<path fill="#4F4F4F" d="M711.897,293.094c3.005,3.858,8.163,4.182,11.523,0.717c3.354-3.465,3.638-9.404,0.631-13.263
		c-3.005-3.858-8.164-4.181-11.521-0.716C709.172,283.295,708.889,289.232,711.897,293.094"/>
	<path fill="#AFAFAF" d="M713.508,291.429c2.21,2.836,6,3.073,8.468,0.527c2.466-2.545,2.677-6.909,0.463-9.744
		c-2.208-2.836-6-3.071-8.464-0.526C711.507,284.229,711.3,288.595,713.508,291.429"/>
	<path fill="none" stroke="#939393" stroke-miterlimit="10" d="M713.508,291.429c2.21,2.836,6,3.073,8.468,0.527
		c2.466-2.545,2.677-6.909,0.463-9.744c-2.208-2.836-6-3.071-8.464-0.526C711.507,284.229,711.3,288.595,713.508,291.429z"/>
	<g>
		<g>
			<defs>
				<polygon id="SVGID_21_" points="725.955,287.314 717.534,296.007 709.995,286.325 718.416,277.633 				"/>
			</defs>
			<clipPath id="SVGID_22_">
				<use xlink:href="#SVGID_21_"  overflow="visible"/>
			</clipPath>
			<path clip-path="url(#SVGID_22_)" fill="#BEBFBF" d="M713.764,291.164c2.083,2.673,5.658,2.896,7.981,0.496
				c2.324-2.398,2.521-6.51,0.438-9.184c-2.083-2.673-5.652-2.896-7.978-0.497C711.878,284.379,711.683,288.492,713.764,291.164"/>
			<path clip-path="url(#SVGID_22_)" fill="#C0C1C1" d="M713.865,291.063c2.032,2.61,5.52,2.827,7.79,0.483
				c2.27-2.343,2.461-6.357,0.43-8.967c-2.036-2.611-5.521-2.827-7.792-0.484C712.022,284.436,711.831,288.45,713.865,291.063"/>
			<path clip-path="url(#SVGID_22_)" fill="#C3C4C4" d="M713.965,290.96c1.983,2.547,5.389,2.759,7.603,0.474
				c2.217-2.285,2.4-6.204,0.418-8.752c-1.985-2.548-5.389-2.76-7.604-0.475C712.166,284.494,711.979,288.413,713.965,290.96"/>
			<path clip-path="url(#SVGID_22_)" fill="#C5C6C6" d="M714.061,290.858c1.937,2.482,5.258,2.689,7.419,0.46
				c2.158-2.229,2.344-6.053,0.406-8.534c-1.935-2.486-5.254-2.693-7.415-0.463C712.311,284.551,712.127,288.373,714.061,290.858"/>
			<path clip-path="url(#SVGID_22_)" fill="#C7C9C9" d="M714.162,290.757c1.886,2.42,5.123,2.622,7.229,0.448
				c2.104-2.173,2.281-5.899,0.396-8.319c-1.888-2.422-5.123-2.622-7.229-0.451C712.455,284.608,712.275,288.335,714.162,290.757"/>
			<path clip-path="url(#SVGID_22_)" fill="#CACBCB" d="M714.26,290.653c1.839,2.357,4.99,2.555,7.042,0.438
				c2.051-2.117,2.225-5.746,0.389-8.104c-1.841-2.36-4.994-2.556-7.044-0.438C712.598,284.666,712.426,288.293,714.26,290.653"/>
			<path clip-path="url(#SVGID_22_)" fill="#CCCECE" d="M714.357,290.551c1.79,2.296,4.859,2.486,6.854,0.427
				c1.999-2.06,2.167-5.592,0.38-7.886c-1.79-2.298-4.857-2.49-6.856-0.429C712.738,284.724,712.57,288.254,714.357,290.551"/>
			<path clip-path="url(#SVGID_22_)" fill="#CED0D0" d="M714.459,290.451c1.737,2.231,4.725,2.418,6.664,0.411
				c1.942-2.003,2.106-5.439,0.368-7.67c-1.741-2.233-4.725-2.42-6.669-0.416C712.883,284.779,712.719,288.217,714.459,290.451"/>
			<path clip-path="url(#SVGID_22_)" fill="#D1D3D3" d="M714.559,290.348c1.69,2.171,4.588,2.349,6.477,0.402
				c1.888-1.948,2.046-5.287,0.358-7.455c-1.692-2.171-4.594-2.352-6.479-0.404C713.025,284.838,712.867,288.178,714.559,290.348"/>
			<path clip-path="url(#SVGID_22_)" fill="#D3D5D5" d="M714.656,290.244c1.642,2.107,4.459,2.283,6.289,0.392
				c1.833-1.892,1.987-5.132,0.347-7.241c-1.64-2.104-4.457-2.282-6.29-0.389C713.17,284.896,713.016,288.137,714.656,290.244"/>
		</g>
	</g>
	<polygon fill="#605F5E" points="720.789,289.163 719.018,286.885 721,284.84 720.01,283.574 718.03,285.621 716.257,283.343 
		715.158,284.478 716.929,286.757 714.949,288.798 715.937,290.065 717.915,288.019 719.691,290.298 	"/>
	<path fill="#231815" d="M716.249,283.55l1.602,2.061l0.17,0.219l0.192-0.199l1.787-1.847l0.814,1.046l-1.789,1.849l-0.189,0.195
		l0.172,0.221l1.602,2.058l-0.908,0.94l-1.604-2.062l-0.173-0.22l-0.189,0.197l-1.791,1.85l-0.815-1.048l1.792-1.846l0.193-0.197
		l-0.174-0.219l-1.604-2.06L716.249,283.55z M716.751,286.745l-1.981,2.044l1.157,1.482l1.979-2.044l1.778,2.278l1.287-1.332
		l-1.773-2.278l1.98-2.044l-1.154-1.483l-1.983,2.043l-1.771-2.274l-1.294,1.329L716.751,286.745z"/>
</g>
<g>
	<g>
		<defs>
			<path id="SVGID_23_" d="M998.021,258.026l3.466,0.11l0.779,18.427l-12.838,2.517c-5.126,1.002-9.804-3.542-9.804-9.525v-2.242
				c0-2.718,1.59-5.095,3.87-5.794l8.716-2.662c1.696-0.483,3.804-0.832,5.58-0.832
				C997.869,258.024,997.945,258.026,998.021,258.026"/>
		</defs>
		<clipPath id="SVGID_24_">
			<use xlink:href="#SVGID_23_"  overflow="visible"/>
		</clipPath>
		
			<linearGradient id="SVGID_25_" gradientUnits="userSpaceOnUse" x1="-557.9878" y1="331.5811" x2="-556.9179" y2="331.5811" gradientTransform="matrix(21.6019 8.6407 8.6407 -21.6019 10165.3252 12247.5791)">
			<stop  offset="0" style="stop-color:#E1E0DF"/>
			<stop  offset="1" style="stop-color:#666666"/>
		</linearGradient>
		<polygon clip-path="url(#SVGID_24_)" fill="url(#SVGID_25_)" points="982.747,249.039 1008.877,261.067 999.145,289.069 
			973.016,277.04 		"/>
	</g>
	<g>
		<defs>
			<path id="SVGID_26_" d="M987.608,351.226l14.658,3.232l-1.686,18.3c-3.118,0-6.223-0.469-9.235-1.394l-5.186-1.592
				c-3.854-1.184-6.535-5.2-6.535-9.793v-1.157c0-4.351,3.083-7.737,6.705-7.737C986.75,351.085,987.178,351.131,987.608,351.226"/>
		</defs>
		<clipPath id="SVGID_27_">
			<use xlink:href="#SVGID_26_"  overflow="visible"/>
		</clipPath>
		
			<linearGradient id="SVGID_28_" gradientUnits="userSpaceOnUse" x1="-812.1807" y1="477.1465" x2="-811.1804" y2="477.1465" gradientTransform="matrix(14.9609 0 0 -14.9609 13128.1729 7500.4614)">
			<stop  offset="0" style="stop-color:#E1E0DF"/>
			<stop  offset="1" style="stop-color:#666666"/>
		</linearGradient>
		<rect x="979.625" y="351.085" clip-path="url(#SVGID_27_)" fill="url(#SVGID_28_)" width="22.642" height="21.673"/>
	</g>
	<g>
		<defs>
			<path id="SVGID_29_" d="M1000.581,258.029c5.455,0,9.876,5.089,9.876,11.367v91.992c0,6.28-4.421,11.369-9.876,11.369
				c-5.453,0-9.876-5.089-9.876-11.369v-91.992C990.705,263.118,995.128,258.029,1000.581,258.029L1000.581,258.029z"/>
		</defs>
		<clipPath id="SVGID_30_">
			<use xlink:href="#SVGID_29_"  overflow="visible"/>
		</clipPath>
		
			<linearGradient id="SVGID_31_" gradientUnits="userSpaceOnUse" x1="288.4272" y1="492.415" x2="289.4277" y2="492.415" gradientTransform="matrix(-19.747 0 0 19.747 6706.0215 -9408.3213)">
			<stop  offset="0" style="stop-color:#CCCDCD"/>
			<stop  offset="0.4731" style="stop-color:#E1E0DF"/>
			<stop  offset="1" style="stop-color:#666666"/>
		</linearGradient>
		<rect x="990.705" y="258.029" clip-path="url(#SVGID_30_)" fill="url(#SVGID_31_)" width="19.752" height="114.729"/>
	</g>
</g>
<polygon fill="#3D3D3D" points="360.579,282.282 364.249,274.967 360.579,267.653 353.241,267.653 349.572,274.967 353.241,282.282 
	"/>
<polygon fill="#3D3D3D" points="360.579,303.599 364.249,296.284 360.579,288.97 353.241,288.97 349.572,296.284 353.241,303.599 
	"/>
<polygon fill="#3D3D3D" points="360.579,324.914 364.249,317.602 360.579,310.287 353.241,310.287 349.572,317.602 353.241,324.914 
	"/>
<polygon fill="#3D3D3D" points="360.579,346.23 364.249,338.917 360.579,331.603 353.241,331.603 349.572,338.917 353.241,346.23 
	"/>
<polygon fill="#3D3D3D" points="360.579,367.548 364.249,360.235 360.579,352.92 353.241,352.92 349.572,360.235 353.241,367.548 
	"/>
<polygon fill="#3D3D3D" points="344.611,271.622 348.281,264.309 344.611,256.994 337.273,256.994 333.604,264.309 337.273,271.622 
	"/>
<polygon fill="#3D3D3D" points="344.611,292.939 348.281,285.626 344.611,278.31 337.273,278.31 333.604,285.626 337.273,292.939 
	"/>
<polygon fill="#3D3D3D" points="344.611,314.256 348.281,306.942 344.611,299.628 337.273,299.628 333.604,306.942 337.273,314.256 
	"/>
<polygon fill="#3D3D3D" points="344.611,335.572 348.281,328.26 344.611,320.944 337.273,320.944 333.604,328.26 337.273,335.572 
	"/>
<polygon fill="#3D3D3D" points="344.611,356.891 348.281,349.576 344.611,342.261 337.273,342.261 333.604,349.576 337.273,356.891 
	"/>
<polygon fill="#3D3D3D" points="329.563,282.282 333.231,274.967 329.563,267.653 322.223,267.653 318.554,274.967 322.223,282.282 
	"/>
<polygon fill="#3D3D3D" points="329.563,303.599 333.231,296.284 329.563,288.97 322.223,288.97 318.554,296.284 322.223,303.599 
	"/>
<polygon fill="#3D3D3D" points="329.563,324.914 333.231,317.602 329.563,310.287 322.223,310.287 318.554,317.602 322.223,324.914 
	"/>
<polygon fill="#3D3D3D" points="329.563,346.23 333.231,338.917 329.563,331.603 322.223,331.603 318.554,338.917 322.223,346.23 
	"/>
<polygon fill="#3D3D3D" points="329.563,367.548 333.231,360.235 329.563,352.92 322.223,352.92 318.554,360.235 322.223,367.548 
	"/>
<polygon fill="#3D3D3D" points="314.885,271.622 318.554,264.309 314.885,256.994 307.546,256.994 303.877,264.309 307.546,271.622 
	"/>
<polygon fill="#3D3D3D" points="314.885,292.939 318.554,285.626 314.885,278.31 307.546,278.31 303.877,285.626 307.546,292.939 
	"/>
<polygon fill="#3D3D3D" points="314.885,314.256 318.554,306.942 314.885,299.628 307.546,299.628 303.877,306.942 307.546,314.256 
	"/>
<polygon fill="#3D3D3D" points="314.885,335.572 318.554,328.26 314.885,320.944 307.546,320.944 303.877,328.26 307.546,335.572 
	"/>
<polygon fill="#3D3D3D" points="314.885,356.891 318.554,349.576 314.885,342.261 307.546,342.261 303.877,349.576 307.546,356.891 
	"/>
<polygon fill="#3D3D3D" points="299.835,282.282 303.504,274.967 299.835,267.653 292.497,267.653 288.828,274.967 292.497,282.282 
	"/>
<polygon fill="#3D3D3D" points="299.835,303.599 303.504,296.284 299.835,288.97 292.497,288.97 288.828,296.284 292.497,303.599 
	"/>
<polygon fill="#3D3D3D" points="299.835,324.914 303.504,317.602 299.835,310.287 292.497,310.287 288.828,317.602 292.497,324.914 
	"/>
<polygon fill="#3D3D3D" points="299.835,346.23 303.504,338.917 299.835,331.603 292.497,331.603 288.828,338.917 292.497,346.23 
	"/>
<polygon fill="#3D3D3D" points="268.818,282.282 272.487,274.967 268.818,267.653 261.48,267.653 257.811,274.967 261.48,282.282 
	"/>
<polygon fill="#3D3D3D" points="268.818,303.599 272.487,296.284 268.818,288.97 261.48,288.97 257.811,296.284 261.48,303.599 "/>
<polygon fill="#3D3D3D" points="268.818,324.914 272.487,317.602 268.818,310.287 261.48,310.287 257.811,317.602 261.48,324.914 
	"/>
<polygon fill="#3D3D3D" points="268.818,346.23 272.487,338.917 268.818,331.603 261.48,331.603 257.811,338.917 261.48,346.23 "/>
<polygon fill="#3D3D3D" points="254.142,271.622 257.811,264.309 254.142,256.994 246.802,256.994 243.133,264.309 246.802,271.622 
	"/>
<polygon fill="#3D3D3D" points="254.142,292.939 257.811,285.626 254.142,278.31 246.802,278.31 243.133,285.626 246.802,292.939 
	"/>
<polygon fill="#3D3D3D" points="254.142,314.256 257.811,306.942 254.142,299.628 246.802,299.628 243.133,306.942 246.802,314.256 
	"/>
<polygon fill="#3D3D3D" points="254.142,335.572 257.811,328.26 254.142,320.944 246.802,320.944 243.133,328.26 246.802,335.572 
	"/>
<polygon fill="#3D3D3D" points="254.142,356.891 257.811,349.576 254.142,342.261 246.802,342.261 243.133,349.576 246.802,356.891 
	"/>
<polygon fill="#3D3D3D" points="239.092,282.282 242.761,274.967 239.092,267.653 231.752,267.653 228.083,274.967 231.752,282.282 
	"/>
<polygon fill="#3D3D3D" points="239.092,303.599 242.761,296.284 239.092,288.97 231.752,288.97 228.083,296.284 231.752,303.599 
	"/>
<polygon fill="#3D3D3D" points="239.092,324.914 242.761,317.602 239.092,310.287 231.752,310.287 228.083,317.602 231.752,324.914 
	"/>
<polygon fill="#3D3D3D" points="239.092,346.23 242.761,338.917 239.092,331.603 231.752,331.603 228.083,338.917 231.752,346.23 
	"/>
<polygon fill="#3D3D3D" points="239.092,367.548 242.761,360.235 239.092,352.92 231.752,352.92 228.083,360.235 231.752,367.548 
	"/>
<polygon fill="#3D3D3D" points="223.125,271.622 226.794,264.309 223.125,256.994 215.787,256.994 212.116,264.309 215.787,271.622 
	"/>
<polygon fill="#3D3D3D" points="223.125,292.939 226.794,285.626 223.125,278.31 215.787,278.31 212.116,285.626 215.787,292.939 
	"/>
<polygon fill="#3D3D3D" points="223.125,314.256 226.794,306.942 223.125,299.628 215.787,299.628 212.116,306.942 215.787,314.256 
	"/>
<polygon fill="#3D3D3D" points="223.125,335.572 226.794,328.26 223.125,320.944 215.787,320.944 212.116,328.26 215.787,335.572 
	"/>
<polygon fill="#3D3D3D" points="223.125,356.891 226.794,349.576 223.125,342.261 215.787,342.261 212.116,349.576 215.787,356.891 
	"/>
<polygon fill="#3D3D3D" points="208.075,282.282 211.744,274.967 208.075,267.653 200.737,267.653 197.067,274.967 200.737,282.282 
	"/>
<polygon fill="#3D3D3D" points="208.075,303.599 211.744,296.284 208.075,288.97 200.737,288.97 197.067,296.284 200.737,303.599 
	"/>
<polygon fill="#3D3D3D" points="208.075,324.914 211.744,317.602 208.075,310.287 200.737,310.287 197.067,317.602 200.737,324.914 
	"/>
<polygon fill="#3D3D3D" points="208.075,346.23 211.744,338.917 208.075,331.603 200.737,331.603 197.067,338.917 200.737,346.23 
	"/>
<polygon fill="#3D3D3D" points="208.075,367.548 211.744,360.235 208.075,352.92 200.737,352.92 197.067,360.235 200.737,367.548 
	"/>
<polygon fill="#3D3D3D" points="193.397,271.622 197.067,264.309 193.397,256.994 186.059,256.994 182.39,264.309 186.059,271.622 
	"/>
<polygon fill="#3D3D3D" points="193.397,292.939 197.067,285.626 193.397,278.31 186.059,278.31 182.39,285.626 186.059,292.939 "/>
<polygon fill="#3D3D3D" points="193.397,314.256 197.067,306.942 193.397,299.628 186.059,299.628 182.39,306.942 186.059,314.256 
	"/>
<polygon fill="#3D3D3D" points="193.397,335.572 197.067,328.26 193.397,320.944 186.059,320.944 182.39,328.26 186.059,335.572 "/>
<polygon fill="#3D3D3D" points="193.397,356.891 197.067,349.576 193.397,342.261 186.059,342.261 182.39,349.576 186.059,356.891 
	"/>
<polygon fill="#3D3D3D" points="178.348,282.282 182.018,274.967 178.348,267.653 171.009,267.653 167.34,274.967 171.009,282.282 
	"/>
<polygon fill="#3D3D3D" points="178.348,303.599 182.018,296.284 178.348,288.97 171.009,288.97 167.34,296.284 171.009,303.599 "/>
<polygon fill="#3D3D3D" points="178.348,324.914 182.018,317.602 178.348,310.287 171.009,310.287 167.34,317.602 171.009,324.914 
	"/>
<polygon fill="#3D3D3D" points="178.348,346.23 182.018,338.917 178.348,331.603 171.009,331.603 167.34,338.917 171.009,346.23 "/>
<polygon fill="#3D3D3D" points="178.348,367.548 182.018,360.235 178.348,352.92 171.009,352.92 167.34,360.235 171.009,367.548 "/>
<polygon fill="#3D3D3D" points="162.38,271.622 166.05,264.309 162.38,256.994 155.042,256.994 151.373,264.309 155.042,271.622 "/>
<polygon fill="#3D3D3D" points="162.38,292.939 166.05,285.626 162.38,278.31 155.042,278.31 151.373,285.626 155.042,292.939 "/>
<polygon fill="#3D3D3D" points="162.38,314.256 166.05,306.942 162.38,299.628 155.042,299.628 151.373,306.942 155.042,314.256 "/>
<polygon fill="#3D3D3D" points="162.38,335.572 166.05,328.26 162.38,320.944 155.042,320.944 151.373,328.26 155.042,335.572 "/>
<polygon fill="#3D3D3D" points="162.38,356.891 166.05,349.576 162.38,342.261 155.042,342.261 151.373,349.576 155.042,356.891 "/>
<polygon fill="#3D3D3D" points="147.331,282.282 151,274.967 147.331,267.653 139.993,267.653 136.323,274.967 139.993,282.282 "/>
<polygon fill="#3D3D3D" points="147.331,303.599 151,296.284 147.331,288.97 139.993,288.97 136.323,296.284 139.993,303.599 "/>
<polygon fill="#3D3D3D" points="147.331,324.914 151,317.602 147.331,310.287 139.993,310.287 136.323,317.602 139.993,324.914 "/>
<polygon fill="#3D3D3D" points="147.331,346.23 151,338.917 147.331,331.603 139.993,331.603 136.323,338.917 139.993,346.23 "/>
<polygon fill="#3D3D3D" points="147.331,367.548 151,360.235 147.331,352.92 139.993,352.92 136.323,360.235 139.993,367.548 "/>
<polygon fill="#3D3D3D" points="132.654,271.622 136.323,264.309 132.654,256.994 125.316,256.994 121.646,264.309 125.316,271.622 
	"/>
<polygon fill="#3D3D3D" points="132.654,292.939 136.323,285.626 132.654,278.31 125.316,278.31 121.646,285.626 125.316,292.939 
	"/>
<polygon fill="#3D3D3D" points="132.654,314.256 136.323,306.942 132.654,299.628 125.316,299.628 121.646,306.942 125.316,314.256 
	"/>
<polygon fill="#3D3D3D" points="132.654,335.572 136.323,328.26 132.654,320.944 125.316,320.944 121.646,328.26 125.316,335.572 
	"/>
<polygon fill="#3D3D3D" points="132.654,356.891 136.323,349.576 132.654,342.261 125.316,342.261 121.646,349.576 125.316,356.891 
	"/>
<polygon fill="#3D3D3D" points="117.604,282.282 121.273,274.967 117.604,267.653 110.266,267.653 106.597,274.967 110.266,282.282 
	"/>
<polygon fill="#3D3D3D" points="117.604,303.599 121.273,296.284 117.604,288.97 110.266,288.97 106.597,296.284 110.266,303.599 
	"/>
<polygon fill="#3D3D3D" points="117.604,324.914 121.273,317.602 117.604,310.287 110.266,310.287 106.597,317.602 110.266,324.914 
	"/>
<polygon fill="#3D3D3D" points="117.604,346.23 121.273,338.917 117.604,331.603 110.266,331.603 106.597,338.917 110.266,346.23 
	"/>
<polygon fill="#3D3D3D" points="117.604,367.548 121.273,360.235 117.604,352.92 110.266,352.92 106.597,360.235 110.266,367.548 
	"/>
<polygon fill="#3D3D3D" points="101.636,271.622 105.306,264.309 101.636,256.994 94.298,256.994 90.629,264.309 94.298,271.622 "/>
<polygon fill="#3D3D3D" points="101.636,292.939 105.306,285.626 101.636,278.31 94.298,278.31 90.629,285.626 94.298,292.939 "/>
<polygon fill="#3D3D3D" points="101.636,314.256 105.306,306.942 101.636,299.628 94.298,299.628 90.629,306.942 94.298,314.256 "/>
<polygon fill="#3D3D3D" points="101.636,335.572 105.306,328.26 101.636,320.944 94.298,320.944 90.629,328.26 94.298,335.572 "/>
<polygon fill="#3D3D3D" points="101.636,356.891 105.306,349.576 101.636,342.261 94.298,342.261 90.629,349.576 94.298,356.891 "/>
<polygon fill="#3D3D3D" points="86.586,282.282 90.256,274.967 86.586,267.653 79.248,267.653 75.579,274.967 79.248,282.282 "/>
<polygon fill="#3D3D3D" points="86.586,303.599 90.256,296.284 86.586,288.97 79.248,288.97 75.579,296.284 79.248,303.599 "/>
<polygon fill="#3D3D3D" points="86.586,324.914 90.256,317.602 86.586,310.287 79.248,310.287 75.579,317.602 79.248,324.914 "/>
<polygon fill="#3D3D3D" points="86.586,346.23 90.256,338.917 86.586,331.603 79.248,331.603 75.579,338.917 79.248,346.23 "/>
<polygon fill="#3D3D3D" points="86.586,367.548 90.256,360.235 86.586,352.92 79.248,352.92 75.579,360.235 79.248,367.548 "/>
<polygon fill="#3D3D3D" points="71.91,271.622 75.579,264.309 71.91,256.994 64.572,256.994 60.902,264.309 64.572,271.622 "/>
<polygon fill="#3D3D3D" points="71.91,292.939 75.579,285.626 71.91,278.31 64.572,278.31 60.902,285.626 64.572,292.939 "/>
<polygon fill="#3D3D3D" points="71.91,314.256 75.579,306.942 71.91,299.628 64.572,299.628 60.902,306.942 64.572,314.256 "/>
<polygon fill="#3D3D3D" points="71.91,335.572 75.579,328.26 71.91,320.944 64.572,320.944 60.902,328.26 64.572,335.572 "/>
<polygon fill="#3D3D3D" points="71.91,356.891 75.579,349.576 71.91,342.261 64.572,342.261 60.902,349.576 64.572,356.891 "/>
<polygon fill="#3D3D3D" points="56.86,282.282 60.529,274.967 56.86,267.653 49.522,267.653 45.853,274.967 49.522,282.282 "/>
<polygon fill="#3D3D3D" points="56.86,303.599 60.529,296.284 56.86,288.97 49.522,288.97 45.853,296.284 49.522,303.599 "/>
<polygon fill="#3D3D3D" points="56.86,324.914 60.529,317.602 56.86,310.287 49.522,310.287 45.853,317.602 49.522,324.914 "/>
<polygon fill="#3D3D3D" points="56.86,346.23 60.529,338.917 56.86,331.603 49.522,331.603 45.853,338.917 49.522,346.23 "/>
<polygon fill="#3D3D3D" points="56.86,367.548 60.529,360.235 56.86,352.92 49.522,352.92 45.853,360.235 49.522,367.548 "/>
<polygon fill="#3D3D3D" points="40.892,271.622 44.561,264.309 40.892,256.994 33.554,256.994 29.885,264.309 33.554,271.622 "/>
<polygon fill="#3D3D3D" points="40.892,292.939 44.561,285.626 40.892,278.31 33.554,278.31 29.885,285.626 33.554,292.939 "/>
<polygon fill="#3D3D3D" points="40.892,314.256 44.561,306.942 40.892,299.628 33.554,299.628 29.885,306.942 33.554,314.256 "/>
<polygon fill="#3D3D3D" points="40.892,335.572 44.561,328.26 40.892,320.944 33.554,320.944 29.885,328.26 33.554,335.572 "/>
<polygon fill="#3D3D3D" points="40.892,356.891 44.561,349.576 40.892,342.261 33.554,342.261 29.885,349.576 33.554,356.891 "/>
<polygon fill="#3D3D3D" points="25.842,282.282 29.512,274.967 25.842,267.653 18.504,267.653 14.835,274.967 18.504,282.282 "/>
<polygon fill="#3D3D3D" points="25.842,303.599 29.512,296.284 25.842,288.97 18.504,288.97 14.835,296.284 18.504,303.599 "/>
<polygon fill="#3D3D3D" points="25.842,324.914 29.512,317.602 25.842,310.287 18.504,310.287 14.835,317.602 18.504,324.914 "/>
<polygon fill="#3D3D3D" points="25.842,346.23 29.512,338.917 25.842,331.603 18.504,331.603 14.835,338.917 18.504,346.23 "/>
<polygon fill="#3D3D3D" points="25.842,367.548 29.512,360.235 25.842,352.92 18.504,352.92 14.835,360.235 18.504,367.548 "/>
<polygon fill="#3D3D3D" points="541.614,282.282 545.284,274.967 541.614,267.653 534.276,267.653 530.607,274.967 534.276,282.282 
	"/>
<polygon fill="#3D3D3D" points="541.614,303.599 545.284,296.284 541.614,288.97 534.276,288.97 530.607,296.284 534.276,303.599 
	"/>
<polygon fill="#3D3D3D" points="541.614,324.914 545.284,317.602 541.614,310.287 534.276,310.287 530.607,317.602 534.276,324.914 
	"/>
<polygon fill="#3D3D3D" points="541.614,346.23 545.284,338.917 541.614,331.603 534.276,331.603 530.607,338.917 534.276,346.23 
	"/>
<polygon fill="#3D3D3D" points="541.614,367.548 545.284,360.235 541.614,352.92 534.276,352.92 530.607,360.235 534.276,367.548 
	"/>
<polygon fill="#3D3D3D" points="526.937,271.622 530.607,264.309 526.937,256.994 519.599,256.994 515.929,264.309 519.599,271.622 
	"/>
<polygon fill="#3D3D3D" points="526.937,292.939 530.607,285.626 526.937,278.31 519.599,278.31 515.929,285.626 519.599,292.939 
	"/>
<polygon fill="#3D3D3D" points="526.937,314.256 530.607,306.942 526.937,299.628 519.599,299.628 515.929,306.942 519.599,314.256 
	"/>
<polygon fill="#3D3D3D" points="526.937,335.572 530.607,328.26 526.937,320.944 519.599,320.944 515.929,328.26 519.599,335.572 
	"/>
<polygon fill="#3D3D3D" points="526.937,356.891 530.607,349.576 526.937,342.261 519.599,342.261 515.929,349.576 519.599,356.891 
	"/>
<polygon fill="#3D3D3D" points="511.887,282.282 515.557,274.967 511.887,267.653 504.549,267.653 500.879,274.967 504.549,282.282 
	"/>
<polygon fill="#3D3D3D" points="511.887,303.599 515.557,296.284 511.887,288.97 504.549,288.97 500.879,296.284 504.549,303.599 
	"/>
<polygon fill="#3D3D3D" points="511.887,324.914 515.557,317.602 511.887,310.287 504.549,310.287 500.879,317.602 504.549,324.914 
	"/>
<polygon fill="#3D3D3D" points="511.887,346.23 515.557,338.917 511.887,331.603 504.549,331.603 500.879,338.917 504.549,346.23 
	"/>
<polygon fill="#3D3D3D" points="511.887,367.548 515.557,360.235 511.887,352.92 504.549,352.92 500.879,360.235 504.549,367.548 
	"/>
<polygon fill="#3D3D3D" points="495.92,271.622 499.589,264.309 495.92,256.994 488.582,256.994 484.913,264.309 488.582,271.622 
	"/>
<polygon fill="#3D3D3D" points="495.92,292.939 499.589,285.626 495.92,278.31 488.582,278.31 484.913,285.626 488.582,292.939 "/>
<polygon fill="#3D3D3D" points="495.92,314.256 499.589,306.942 495.92,299.628 488.582,299.628 484.913,306.942 488.582,314.256 
	"/>
<polygon fill="#3D3D3D" points="495.92,335.572 499.589,328.26 495.92,320.944 488.582,320.944 484.913,328.26 488.582,335.572 "/>
<polygon fill="#3D3D3D" points="495.92,356.891 499.589,349.576 495.92,342.261 488.582,342.261 484.913,349.576 488.582,356.891 
	"/>
<polygon fill="#3D3D3D" points="480.87,282.282 484.539,274.967 480.87,267.653 473.532,267.653 469.863,274.967 473.532,282.282 
	"/>
<polygon fill="#3D3D3D" points="480.87,303.599 484.539,296.284 480.87,288.97 473.532,288.97 469.863,296.284 473.532,303.599 "/>
<polygon fill="#3D3D3D" points="480.87,324.914 484.539,317.602 480.87,310.287 473.532,310.287 469.863,317.602 473.532,324.914 
	"/>
<polygon fill="#3D3D3D" points="480.87,346.23 484.539,338.917 480.87,331.603 473.532,331.603 469.863,338.917 473.532,346.23 "/>
<polygon fill="#3D3D3D" points="480.87,367.548 484.539,360.235 480.87,352.92 473.532,352.92 469.863,360.235 473.532,367.548 "/>
<polygon fill="#3D3D3D" points="466.193,271.622 469.863,264.309 466.193,256.994 458.855,256.994 455.186,264.309 458.855,271.622 
	"/>
<polygon fill="#3D3D3D" points="466.193,292.939 469.863,285.626 466.193,278.31 458.855,278.31 455.186,285.626 458.855,292.939 
	"/>
<polygon fill="#3D3D3D" points="466.193,314.256 469.863,306.942 466.193,299.628 458.855,299.628 455.186,306.942 458.855,314.256 
	"/>
<polygon fill="#3D3D3D" points="466.193,335.572 469.863,328.26 466.193,320.944 458.855,320.944 455.186,328.26 458.855,335.572 
	"/>
<polygon fill="#3D3D3D" points="466.193,356.891 469.863,349.576 466.193,342.261 458.855,342.261 455.186,349.576 458.855,356.891 
	"/>
<polygon fill="#3D3D3D" points="451.144,282.282 454.813,274.967 451.144,267.653 443.806,267.653 440.136,274.967 443.806,282.282 
	"/>
<polygon fill="#3D3D3D" points="451.144,303.599 454.813,296.284 451.144,288.97 443.806,288.97 440.136,296.284 443.806,303.599 
	"/>
<polygon fill="#3D3D3D" points="451.144,324.914 454.813,317.602 451.144,310.287 443.806,310.287 440.136,317.602 443.806,324.914 
	"/>
<polygon fill="#3D3D3D" points="451.144,346.23 454.813,338.917 451.144,331.603 443.806,331.603 440.136,338.917 443.806,346.23 
	"/>
<polygon fill="#3D3D3D" points="451.144,367.548 454.813,360.235 451.144,352.92 443.806,352.92 440.136,360.235 443.806,367.548 
	"/>
<polygon fill="#3D3D3D" points="435.176,271.622 438.845,264.309 435.176,256.994 427.837,256.994 424.168,264.309 427.837,271.622 
	"/>
<polygon fill="#3D3D3D" points="435.176,292.939 438.845,285.626 435.176,278.31 427.837,278.31 424.168,285.626 427.837,292.939 
	"/>
<polygon fill="#3D3D3D" points="435.176,314.256 438.845,306.942 435.176,299.628 427.837,299.628 424.168,306.942 427.837,314.256 
	"/>
<polygon fill="#3D3D3D" points="435.176,335.572 438.845,328.26 435.176,320.944 427.837,320.944 424.168,328.26 427.837,335.572 
	"/>
<polygon fill="#3D3D3D" points="435.176,356.891 438.845,349.576 435.176,342.261 427.837,342.261 424.168,349.576 427.837,356.891 
	"/>
<polygon fill="#3D3D3D" points="420.126,282.282 423.795,274.967 420.126,267.653 412.788,267.653 409.119,274.967 412.788,282.282 
	"/>
<polygon fill="#3D3D3D" points="420.126,303.599 423.795,296.284 420.126,288.97 412.788,288.97 409.119,296.284 412.788,303.599 
	"/>
<polygon fill="#3D3D3D" points="420.126,324.914 423.795,317.602 420.126,310.287 412.788,310.287 409.119,317.602 412.788,324.914 
	"/>
<polygon fill="#3D3D3D" points="420.126,346.23 423.795,338.917 420.126,331.603 412.788,331.603 409.119,338.917 412.788,346.23 
	"/>
<polygon fill="#3D3D3D" points="420.126,367.548 423.795,360.235 420.126,352.92 412.788,352.92 409.119,360.235 412.788,367.548 
	"/>
<polygon fill="#3D3D3D" points="405.449,271.622 409.119,264.309 405.449,256.994 398.111,256.994 394.442,264.309 398.111,271.622 
	"/>
<polygon fill="#3D3D3D" points="405.449,292.939 409.119,285.626 405.449,278.31 398.111,278.31 394.442,285.626 398.111,292.939 
	"/>
<polygon fill="#3D3D3D" points="405.449,314.256 409.119,306.942 405.449,299.628 398.111,299.628 394.442,306.942 398.111,314.256 
	"/>
<polygon fill="#3D3D3D" points="405.449,335.572 409.119,328.26 405.449,320.944 398.111,320.944 394.442,328.26 398.111,335.572 
	"/>
<polygon fill="#3D3D3D" points="405.449,356.891 409.119,349.576 405.449,342.261 398.111,342.261 394.442,349.576 398.111,356.891 
	"/>
<polygon fill="#3D3D3D" points="390.399,282.282 394.069,274.967 390.399,267.653 383.061,267.653 379.392,274.967 383.061,282.282 
	"/>
<polygon fill="#3D3D3D" points="390.399,303.599 394.069,296.284 390.399,288.97 383.061,288.97 379.392,296.284 383.061,303.599 
	"/>
<polygon fill="#3D3D3D" points="390.399,324.914 394.069,317.602 390.399,310.287 383.061,310.287 379.392,317.602 383.061,324.914 
	"/>
<polygon fill="#3D3D3D" points="390.399,346.23 394.069,338.917 390.399,331.603 383.061,331.603 379.392,338.917 383.061,346.23 
	"/>
<polygon fill="#3D3D3D" points="390.399,367.548 394.069,360.235 390.399,352.92 383.061,352.92 379.392,360.235 383.061,367.548 
	"/>
<polygon fill="#3D3D3D" points="374.432,271.622 378.101,264.309 374.432,256.994 367.093,256.994 363.424,264.309 367.093,271.622 
	"/>
<polygon fill="#3D3D3D" points="374.432,292.939 378.101,285.626 374.432,278.31 367.093,278.31 363.424,285.626 367.093,292.939 
	"/>
<polygon fill="#3D3D3D" points="374.432,314.256 378.101,306.942 374.432,299.628 367.093,299.628 363.424,306.942 367.093,314.256 
	"/>
<polygon fill="#3D3D3D" points="374.432,335.572 378.101,328.26 374.432,320.944 367.093,320.944 363.424,328.26 367.093,335.572 
	"/>
<polygon fill="#3D3D3D" points="374.432,356.891 378.101,349.576 374.432,342.261 367.093,342.261 363.424,349.576 367.093,356.891 
	"/>
<g>
	<g>
		<defs>
			<path id="SVGID_32_" d="M278.767,258.026l-3.466,0.11l-0.779,18.427l12.838,2.517c5.126,1.002,9.805-3.542,9.805-9.525v-2.242
				c0-2.718-1.589-5.095-3.872-5.794l-8.716-2.662c-1.696-0.483-3.803-0.832-5.58-0.832
				C278.919,258.024,278.843,258.026,278.767,258.026"/>
		</defs>
		<clipPath id="SVGID_33_">
			<use xlink:href="#SVGID_32_"  overflow="visible"/>
		</clipPath>
		
			<linearGradient id="SVGID_34_" gradientUnits="userSpaceOnUse" x1="-225.9795" y1="464.3828" x2="-224.9096" y2="464.3828" gradientTransform="matrix(-21.6019 8.6407 -8.6407 -21.6019 -569.028 12247.5791)">
			<stop  offset="0" style="stop-color:#E1E0DF"/>
			<stop  offset="1" style="stop-color:#666666"/>
		</linearGradient>
		<polygon clip-path="url(#SVGID_33_)" fill="url(#SVGID_34_)" points="294.041,249.039 267.913,261.067 277.645,289.069 
			303.773,277.04 		"/>
	</g>
	<g>
		<defs>
			<path id="SVGID_35_" d="M289.18,351.226l-14.659,3.232l1.686,18.3c3.118,0,6.223-0.469,9.235-1.394l5.185-1.592
				c3.855-1.184,6.537-5.2,6.536-9.793v-1.157c0-4.351-3.083-7.737-6.706-7.737C290.038,351.085,289.61,351.131,289.18,351.226"/>
		</defs>
		<clipPath id="SVGID_36_">
			<use xlink:href="#SVGID_35_"  overflow="visible"/>
		</clipPath>
		
			<linearGradient id="SVGID_37_" gradientUnits="userSpaceOnUse" x1="-256.1055" y1="477.1465" x2="-255.1055" y2="477.1465" gradientTransform="matrix(-14.9609 0 0 -14.9609 -3532.001 7500.4614)">
			<stop  offset="0" style="stop-color:#E1E0DF"/>
			<stop  offset="1" style="stop-color:#666666"/>
		</linearGradient>
		<rect x="274.521" y="351.085" clip-path="url(#SVGID_36_)" fill="url(#SVGID_37_)" width="22.643" height="21.673"/>
	</g>
	<g>
		<defs>
			<path id="SVGID_38_" d="M276.208,258.029c-5.455,0-9.876,5.089-9.876,11.367v91.992c0,6.28,4.421,11.369,9.876,11.369
				c5.453,0,9.876-5.089,9.876-11.369v-91.992C286.083,263.118,281.66,258.029,276.208,258.029L276.208,258.029z"/>
		</defs>
		<clipPath id="SVGID_39_">
			<use xlink:href="#SVGID_38_"  overflow="visible"/>
		</clipPath>
		
			<linearGradient id="SVGID_40_" gradientUnits="userSpaceOnUse" x1="-132.8721" y1="492.415" x2="-131.8716" y2="492.415" gradientTransform="matrix(19.747 0 0 19.747 2890.166 -9408.3213)">
			<stop  offset="0" style="stop-color:#CCCDCD"/>
			<stop  offset="0.4731" style="stop-color:#E1E0DF"/>
			<stop  offset="1" style="stop-color:#666666"/>
		</linearGradient>
		<rect x="266.331" y="258.029" clip-path="url(#SVGID_39_)" fill="url(#SVGID_40_)" width="19.752" height="114.729"/>
	</g>
</g>
<path fill="#C9C9C9" d="M1260.478,186.729c0,2.762-2.239,5.001-5.002,5.001H14.303c-2.762,0-5.001-2.239-5.001-5.001v-54.016
	c0-2.763,2.239-5.001,5.001-5.001h1241.172c2.763,0,5.002,2.239,5.002,5.001V186.729z"/>
<path fill="#C9C9C9" d="M1260.478,248.658c0,2.535-2.239,4.591-5.002,4.591H14.303c-2.762,0-5.001-2.056-5.001-4.591v-49.585
	c0-2.536,2.239-4.591,5.001-4.591h1241.172c2.763,0,5.002,2.055,5.002,4.591V248.658z"/>
<g>
	<g>
		<defs>
			<path id="SVGID_41_" d="M1007.3,156.741l0.111-3.466l18.654-0.78l2.548,12.838c1.016,5.126-3.585,9.805-9.642,9.805h-2.271
				c-2.751,0-5.158-1.589-5.865-3.872l-2.696-8.715c-0.488-1.696-0.842-3.803-0.842-5.58
				C1007.298,156.893,1007.3,156.817,1007.3,156.741"/>
		</defs>
		<clipPath id="SVGID_42_">
			<use xlink:href="#SVGID_41_"  overflow="visible"/>
		</clipPath>
		
			<linearGradient id="SVGID_43_" gradientUnits="userSpaceOnUse" x1="-423.2749" y1="555.082" x2="-422.1986" y2="555.082" gradientTransform="matrix(8.6407 -21.6019 -21.6019 -8.6407 16661.002 -4169.2153)">
			<stop  offset="0" style="stop-color:#E1E0DF"/>
			<stop  offset="1" style="stop-color:#666666"/>
		</linearGradient>
		<polygon clip-path="url(#SVGID_42_)" fill="url(#SVGID_43_)" points="998.201,172.015 1010.379,145.887 1038.727,155.618 
			1026.549,181.746 		"/>
	</g>
	<g>
		<defs>
			<path id="SVGID_44_" d="M1101.65,167.154l3.272-14.659l18.526,1.686c0,3.118-0.476,6.223-1.411,9.235l-1.61,5.185
				c-1.199,3.854-5.267,6.536-9.915,6.535h-1.17c-4.406,0-7.835-3.083-7.835-6.705
				C1101.508,168.011,1101.555,167.583,1101.65,167.154"/>
		</defs>
		<clipPath id="SVGID_45_">
			<use xlink:href="#SVGID_44_"  overflow="visible"/>
		</clipPath>
		
			<linearGradient id="SVGID_46_" gradientUnits="userSpaceOnUse" x1="-488.5811" y1="721.9766" x2="-487.5807" y2="721.9766" gradientTransform="matrix(0 -14.9609 -14.9609 0 11913.8838 -7132.0713)">
			<stop  offset="0" style="stop-color:#E1E0DF"/>
			<stop  offset="1" style="stop-color:#666666"/>
		</linearGradient>
		<rect x="1101.508" y="152.495" clip-path="url(#SVGID_45_)" fill="url(#SVGID_46_)" width="21.941" height="22.643"/>
	</g>
	<g>
		<defs>
			<path id="SVGID_47_" d="M1007.304,154.181c0-5.455,5.15-9.876,11.508-9.876h93.128c6.357,0,11.51,4.421,11.51,9.876
				c0,5.453-5.152,9.876-11.51,9.876h-93.128C1012.454,164.057,1007.304,159.634,1007.304,154.181L1007.304,154.181z"/>
		</defs>
		<clipPath id="SVGID_48_">
			<use xlink:href="#SVGID_47_"  overflow="visible"/>
		</clipPath>
		
			<linearGradient id="SVGID_49_" gradientUnits="userSpaceOnUse" x1="43.2573" y1="306.8965" x2="44.2578" y2="306.8965" gradientTransform="matrix(0 19.747 19.747 0 -4994.9146 -709.8965)">
			<stop  offset="0" style="stop-color:#CCCDCD"/>
			<stop  offset="0.4731" style="stop-color:#E1E0DF"/>
			<stop  offset="1" style="stop-color:#666666"/>
		</linearGradient>
		<rect x="1007.304" y="144.305" clip-path="url(#SVGID_48_)" fill="url(#SVGID_49_)" width="116.146" height="19.752"/>
	</g>
</g>
<g>
	<g>
		<defs>
			<path id="SVGID_50_" d="M1105.109,220.885l0.111-3.466l18.654-0.779l2.547,12.838c1.017,5.126-3.585,9.805-9.642,9.805h-2.27
				c-2.751,0-5.158-1.59-5.865-3.871l-2.696-8.716c-0.488-1.695-0.842-3.803-0.842-5.58
				C1105.107,221.037,1105.109,220.961,1105.109,220.885"/>
		</defs>
		<clipPath id="SVGID_51_">
			<use xlink:href="#SVGID_50_"  overflow="visible"/>
		</clipPath>
		
			<linearGradient id="SVGID_52_" gradientUnits="userSpaceOnUse" x1="-424.2734" y1="550.1553" x2="-423.1971" y2="550.1553" gradientTransform="matrix(8.6407 -21.6019 -21.6019 -8.6407 16661.002 -4169.2153)">
			<stop  offset="0" style="stop-color:#E1E0DF"/>
			<stop  offset="1" style="stop-color:#666666"/>
		</linearGradient>
		<polygon clip-path="url(#SVGID_51_)" fill="url(#SVGID_52_)" points="1096.01,236.159 1108.188,210.031 1136.535,219.763 
			1124.357,245.891 		"/>
	</g>
	<g>
		<defs>
			<path id="SVGID_53_" d="M1199.46,231.298l3.272-14.658l18.525,1.687c0,3.118-0.475,6.222-1.411,9.234l-1.609,5.186
				c-1.2,3.854-5.268,6.536-9.915,6.535h-1.171c-4.405,0-7.834-3.083-7.834-6.705
				C1199.317,232.156,1199.364,231.729,1199.46,231.298"/>
		</defs>
		<clipPath id="SVGID_54_">
			<use xlink:href="#SVGID_53_"  overflow="visible"/>
		</clipPath>
		
			<linearGradient id="SVGID_55_" gradientUnits="userSpaceOnUse" x1="-492.8687" y1="715.4385" x2="-491.8683" y2="715.4385" gradientTransform="matrix(0 -14.9609 -14.9609 0 11913.8838 -7132.0713)">
			<stop  offset="0" style="stop-color:#E1E0DF"/>
			<stop  offset="1" style="stop-color:#666666"/>
		</linearGradient>
		<rect x="1199.317" y="216.64" clip-path="url(#SVGID_54_)" fill="url(#SVGID_55_)" width="21.94" height="22.643"/>
	</g>
	<g>
		<defs>
			<path id="SVGID_56_" d="M1105.113,218.326c0-5.455,5.149-9.876,11.507-9.876h93.128c6.357,0,11.51,4.421,11.51,9.876
				c0,5.452-5.152,9.876-11.51,9.876h-93.128C1110.263,228.202,1105.113,223.778,1105.113,218.326L1105.113,218.326z"/>
		</defs>
		<clipPath id="SVGID_57_">
			<use xlink:href="#SVGID_56_"  overflow="visible"/>
		</clipPath>
		
			<linearGradient id="SVGID_58_" gradientUnits="userSpaceOnUse" x1="46.5059" y1="311.8496" x2="47.5059" y2="311.8496" gradientTransform="matrix(0 19.747 19.747 0 -4994.9146 -709.8965)">
			<stop  offset="0" style="stop-color:#CCCDCD"/>
			<stop  offset="0.4731" style="stop-color:#E1E0DF"/>
			<stop  offset="1" style="stop-color:#666666"/>
		</linearGradient>
		<rect x="1105.113" y="208.45" clip-path="url(#SVGID_57_)" fill="url(#SVGID_58_)" width="116.145" height="19.752"/>
	</g>
</g>
<g>
	<g>
		<defs>
			<path id="SVGID_59_" d="M77.212,156.741l0.111-3.466l18.654-0.78l2.548,12.838c1.016,5.126-3.585,9.805-9.642,9.805h-2.271
				c-2.751,0-5.158-1.589-5.865-3.872l-2.696-8.715c-0.489-1.696-0.842-3.803-0.842-5.58
				C77.21,156.893,77.212,156.817,77.212,156.741"/>
		</defs>
		<clipPath id="SVGID_60_">
			<use xlink:href="#SVGID_59_"  overflow="visible"/>
		</clipPath>
		
			<linearGradient id="SVGID_61_" gradientUnits="userSpaceOnUse" x1="-438.1216" y1="592.1992" x2="-437.0453" y2="592.1992" gradientTransform="matrix(8.6407 -21.6019 -21.6019 -8.6407 16661.002 -4169.2153)">
			<stop  offset="0" style="stop-color:#E1E0DF"/>
			<stop  offset="1" style="stop-color:#666666"/>
		</linearGradient>
		<polygon clip-path="url(#SVGID_60_)" fill="url(#SVGID_61_)" points="68.114,172.015 80.292,145.887 108.639,155.618 
			96.461,181.746 		"/>
	</g>
	<g>
		<defs>
			<path id="SVGID_62_" d="M171.563,167.154l3.273-14.659l18.525,1.686c0,3.118-0.475,6.223-1.411,9.235l-1.61,5.185
				c-1.2,3.854-5.268,6.536-9.916,6.535h-1.17c-4.406,0-7.835-3.083-7.835-6.705C171.42,168.011,171.467,167.583,171.563,167.154"/>
		</defs>
		<clipPath id="SVGID_63_">
			<use xlink:href="#SVGID_62_"  overflow="visible"/>
		</clipPath>
		
			<linearGradient id="SVGID_64_" gradientUnits="userSpaceOnUse" x1="-488.5811" y1="784.1445" x2="-487.5807" y2="784.1445" gradientTransform="matrix(0 -14.9609 -14.9609 0 11913.8838 -7132.0713)">
			<stop  offset="0" style="stop-color:#E1E0DF"/>
			<stop  offset="1" style="stop-color:#666666"/>
		</linearGradient>
		<rect x="171.42" y="152.495" clip-path="url(#SVGID_63_)" fill="url(#SVGID_64_)" width="21.941" height="22.643"/>
	</g>
	<g>
		<defs>
			<path id="SVGID_65_" d="M77.216,154.181c0-5.455,5.15-9.876,11.508-9.876h93.127c6.357,0,11.51,4.421,11.51,9.876
				c0,5.453-5.152,9.876-11.51,9.876H88.724C82.366,164.057,77.216,159.634,77.216,154.181L77.216,154.181z"/>
		</defs>
		<clipPath id="SVGID_66_">
			<use xlink:href="#SVGID_65_"  overflow="visible"/>
		</clipPath>
		
			<linearGradient id="SVGID_67_" gradientUnits="userSpaceOnUse" x1="43.2573" y1="259.7969" x2="44.2578" y2="259.7969" gradientTransform="matrix(0 19.747 19.747 0 -4994.9146 -709.8965)">
			<stop  offset="0" style="stop-color:#CCCDCD"/>
			<stop  offset="0.4731" style="stop-color:#E1E0DF"/>
			<stop  offset="1" style="stop-color:#666666"/>
		</linearGradient>
		<rect x="77.216" y="144.305" clip-path="url(#SVGID_66_)" fill="url(#SVGID_67_)" width="116.145" height="19.752"/>
	</g>
</g>
<g>
	<g>
		<defs>
			<path id="SVGID_68_" d="M181.055,220.885l0.111-3.466l18.654-0.779l2.548,12.838c1.016,5.126-3.585,9.805-9.642,9.805h-2.27
				c-2.751,0-5.158-1.59-5.865-3.871l-2.696-8.716c-0.488-1.695-0.842-3.803-0.842-5.58
				C181.053,221.037,181.055,220.961,181.055,220.885"/>
		</defs>
		<clipPath id="SVGID_69_">
			<use xlink:href="#SVGID_68_"  overflow="visible"/>
		</clipPath>
		
			<linearGradient id="SVGID_70_" gradientUnits="userSpaceOnUse" x1="-439.0239" y1="587.0313" x2="-437.9476" y2="587.0313" gradientTransform="matrix(8.6407 -21.6019 -21.6019 -8.6407 16661.002 -4169.2153)">
			<stop  offset="0" style="stop-color:#E1E0DF"/>
			<stop  offset="1" style="stop-color:#666666"/>
		</linearGradient>
		<polygon clip-path="url(#SVGID_69_)" fill="url(#SVGID_70_)" points="171.956,236.159 184.134,210.031 212.481,219.763 
			200.303,245.891 		"/>
	</g>
	<g>
		<defs>
			<path id="SVGID_71_" d="M275.405,231.298l3.272-14.658l18.526,1.687c0,3.118-0.475,6.222-1.411,9.234l-1.61,5.186
				c-1.2,3.854-5.268,6.536-9.916,6.535h-1.17c-4.406,0-7.834-3.083-7.834-6.705C275.263,232.156,275.31,231.729,275.405,231.298"/>
		</defs>
		<clipPath id="SVGID_72_">
			<use xlink:href="#SVGID_71_"  overflow="visible"/>
		</clipPath>
		
			<linearGradient id="SVGID_73_" gradientUnits="userSpaceOnUse" x1="-492.8687" y1="777.2031" x2="-491.8683" y2="777.2031" gradientTransform="matrix(0 -14.9609 -14.9609 0 11913.8838 -7132.0713)">
			<stop  offset="0" style="stop-color:#E1E0DF"/>
			<stop  offset="1" style="stop-color:#666666"/>
		</linearGradient>
		<rect x="275.263" y="216.64" clip-path="url(#SVGID_72_)" fill="url(#SVGID_73_)" width="21.941" height="22.643"/>
	</g>
	<g>
		<defs>
			<path id="SVGID_74_" d="M181.059,218.326c0-5.455,5.15-9.876,11.507-9.876h93.128c6.357,0,11.51,4.421,11.51,9.876
				c0,5.452-5.152,9.876-11.51,9.876h-93.128C186.208,228.202,181.059,223.778,181.059,218.326L181.059,218.326z"/>
		</defs>
		<clipPath id="SVGID_75_">
			<use xlink:href="#SVGID_74_"  overflow="visible"/>
		</clipPath>
		
			<linearGradient id="SVGID_76_" gradientUnits="userSpaceOnUse" x1="46.5059" y1="265.0557" x2="47.5059" y2="265.0557" gradientTransform="matrix(0 19.747 19.747 0 -4994.9146 -709.8965)">
			<stop  offset="0" style="stop-color:#CCCDCD"/>
			<stop  offset="0.4731" style="stop-color:#E1E0DF"/>
			<stop  offset="1" style="stop-color:#666666"/>
		</linearGradient>
		<rect x="181.059" y="208.45" clip-path="url(#SVGID_75_)" fill="url(#SVGID_76_)" width="116.145" height="19.752"/>
	</g>
</g>
<g>
	<path fill="#4F4F4F" d="M1245.971,180.867c-3.005,3.354-8.163,3.634-11.523,0.624c-3.354-3.01-3.638-8.17-0.631-11.523
		c3.005-3.353,8.163-3.632,11.521-0.623C1248.696,172.354,1248.979,177.512,1245.971,180.867"/>
	<path fill="#AFAFAF" d="M1244.361,179.422c-2.21,2.463-6,2.669-8.468,0.457c-2.468-2.211-2.677-6.001-0.464-8.465
		c2.206-2.464,6-2.668,8.464-0.457C1246.361,173.166,1246.568,176.958,1244.361,179.422"/>
	<path fill="none" stroke="#939393" stroke-miterlimit="10" d="M1244.361,179.422c-2.21,2.463-6,2.669-8.468,0.457
		c-2.468-2.211-2.677-6.001-0.464-8.465c2.206-2.464,6-2.668,8.464-0.457C1246.361,173.166,1246.568,176.958,1244.361,179.422z"/>
	<g>
		<g>
			<defs>
				
					<rect id="SVGID_77_" x="1234.238" y="169.768" transform="matrix(-0.7445 -0.6676 0.6676 -0.7445 2045.8875 1133.7905)" width="11.311" height="11.296"/>
			</defs>
			<clipPath id="SVGID_78_">
				<use xlink:href="#SVGID_77_"  overflow="visible"/>
			</clipPath>
			<path clip-path="url(#SVGID_78_)" fill="#BEBFBF" d="M1244.103,179.191c-2.08,2.321-5.655,2.515-7.979,0.432
				c-2.325-2.084-2.521-5.657-0.439-7.98c2.084-2.321,5.653-2.515,7.979-0.43C1245.988,173.297,1246.186,176.87,1244.103,179.191"/>
			<path clip-path="url(#SVGID_78_)" fill="#C0C1C1" d="M1244.003,179.104c-2.033,2.266-5.521,2.455-7.789,0.419
				c-2.271-2.035-2.462-5.522-0.43-7.79c2.035-2.269,5.521-2.457,7.791-0.42C1245.846,173.346,1246.037,176.833,1244.003,179.104"/>
			<path clip-path="url(#SVGID_78_)" fill="#C3C4C4" d="M1243.903,179.014c-1.982,2.213-5.388,2.397-7.602,0.411
				c-2.218-1.986-2.401-5.39-0.418-7.603c1.982-2.214,5.388-2.399,7.604-0.414C1245.703,173.397,1245.889,176.801,1243.903,179.014"
				/>
			<path clip-path="url(#SVGID_78_)" fill="#C5C6C6" d="M1243.806,178.925c-1.934,2.158-5.255,2.336-7.416,0.401
				c-2.159-1.939-2.345-5.259-0.408-7.416c1.936-2.159,5.255-2.339,7.416-0.402C1245.559,173.446,1245.742,176.767,1243.806,178.925
				"/>
			<path clip-path="url(#SVGID_78_)" fill="#C7C9C9" d="M1243.706,178.838c-1.885,2.102-5.122,2.278-7.229,0.389
				c-2.104-1.888-2.284-5.125-0.396-7.229c1.887-2.104,5.122-2.278,7.229-0.391C1245.414,173.496,1245.594,176.733,1243.706,178.838
				"/>
			<path clip-path="url(#SVGID_78_)" fill="#CACBCB" d="M1243.608,178.748c-1.838,2.047-4.989,2.219-7.041,0.38
				s-2.226-4.991-0.389-7.04c1.84-2.051,4.993-2.219,7.041-0.382C1245.271,173.545,1245.443,176.697,1243.608,178.748"/>
			<path clip-path="url(#SVGID_78_)" fill="#CCCECE" d="M1243.509,178.658c-1.789,1.995-4.856,2.16-6.854,0.371
				c-1.997-1.79-2.165-4.859-0.377-6.852c1.789-1.997,4.854-2.163,6.854-0.373C1245.131,173.596,1245.297,176.664,1243.509,178.658"
				/>
			<path clip-path="url(#SVGID_78_)" fill="#CED0D0" d="M1243.409,178.571c-1.738,1.939-4.724,2.101-6.664,0.358
				c-1.942-1.741-2.108-4.726-0.367-6.665c1.739-1.94,4.724-2.101,6.668-0.36C1244.986,173.645,1245.15,176.63,1243.409,178.571"/>
			<path clip-path="url(#SVGID_78_)" fill="#D1D3D3" d="M1243.31,178.482c-1.689,1.884-4.589,2.04-6.477,0.349
				c-1.89-1.692-2.046-4.592-0.357-6.478c1.692-1.885,4.591-2.042,6.479-0.35C1244.844,173.696,1245.002,176.597,1243.31,178.482"/>
			<path clip-path="url(#SVGID_78_)" fill="#D3D5D5" d="M1243.212,178.393c-1.641,1.83-4.458,1.983-6.289,0.34
				c-1.835-1.643-1.989-4.459-0.346-6.291c1.64-1.83,4.456-1.984,6.289-0.339C1244.699,173.746,1244.854,176.561,1243.212,178.393"
				/>
		</g>
	</g>
	<polygon fill="#605F5E" points="1237.079,177.453 1238.852,175.474 1236.868,173.697 1237.856,172.598 1239.836,174.375 
		1241.612,172.396 1242.71,173.381 1240.939,175.361 1242.919,177.136 1241.931,178.236 1239.953,176.458 1238.178,178.439 	"/>
	<path fill="#231815" d="M1242.532,173.391l-1.604,1.79l-0.174,0.189l0.193,0.171l1.792,1.605l-0.814,0.91l-1.792-1.608l-0.191-0.17
		l-0.17,0.189l-1.604,1.792l-0.909-0.817l1.603-1.788l0.172-0.191l-0.189-0.171l-1.79-1.606l0.813-0.908l1.79,1.604l0.189,0.172
		l0.172-0.189l1.603-1.79L1242.532,173.391z M1242.892,173.372l-1.291-1.156l-1.772,1.978l-1.983-1.776l-1.154,1.289l1.981,1.777
		l-1.774,1.979l1.288,1.157l1.775-1.979l1.979,1.775l1.158-1.288l-1.983-1.776L1242.892,173.372z"/>
</g>
<g>
	<path fill="#4F4F4F" d="M1245.971,244.73c-3.005,3.354-8.163,3.635-11.523,0.625c-3.354-3.011-3.638-8.171-0.631-11.524
		c3.005-3.353,8.163-3.632,11.521-0.622C1248.696,236.218,1248.979,241.376,1245.971,244.73"/>
	<path fill="#AFAFAF" d="M1244.361,243.286c-2.21,2.463-6,2.669-8.468,0.457s-2.677-6.002-0.464-8.465
		c2.206-2.465,6-2.669,8.464-0.458C1246.361,237.03,1246.568,240.822,1244.361,243.286"/>
	<path fill="none" stroke="#939393" stroke-miterlimit="10" d="M1244.361,243.286c-2.21,2.463-6,2.669-8.468,0.457
		s-2.677-6.002-0.464-8.465c2.206-2.465,6-2.669,8.464-0.458C1246.361,237.03,1246.568,240.822,1244.361,243.286z"/>
	<g>
		<g>
			<defs>
				
					<rect id="SVGID_79_" x="1234.238" y="233.633" transform="matrix(-0.7445 -0.6676 0.6676 -0.7445 2003.283 1245.1774)" width="11.31" height="11.296"/>
			</defs>
			<clipPath id="SVGID_80_">
				<use xlink:href="#SVGID_79_"  overflow="visible"/>
			</clipPath>
			<path clip-path="url(#SVGID_80_)" fill="#BEBFBF" d="M1244.103,243.056c-2.08,2.321-5.655,2.515-7.979,0.432
				c-2.325-2.085-2.521-5.657-0.439-7.98c2.084-2.321,5.653-2.515,7.979-0.43C1245.988,237.161,1246.186,240.733,1244.103,243.056"
				/>
			<path clip-path="url(#SVGID_80_)" fill="#C0C1C1" d="M1244.003,242.968c-2.033,2.267-5.521,2.455-7.789,0.419
				c-2.271-2.035-2.462-5.522-0.43-7.79c2.035-2.269,5.521-2.457,7.791-0.42C1245.846,237.21,1246.037,240.697,1244.003,242.968"/>
			<path clip-path="url(#SVGID_80_)" fill="#C3C4C4" d="M1243.903,242.878c-1.982,2.214-5.388,2.397-7.602,0.411
				c-2.218-1.986-2.401-5.391-0.418-7.603c1.982-2.214,5.388-2.399,7.604-0.413C1245.703,237.261,1245.889,240.665,1243.903,242.878
				"/>
			<path clip-path="url(#SVGID_80_)" fill="#C5C6C6" d="M1243.806,242.789c-1.934,2.157-5.255,2.337-7.416,0.401
				c-2.159-1.939-2.345-5.26-0.408-7.416c1.936-2.159,5.255-2.339,7.416-0.402C1245.559,237.31,1245.742,240.631,1243.806,242.789"
				/>
			<path clip-path="url(#SVGID_80_)" fill="#C7C9C9" d="M1243.706,242.702c-1.885,2.102-5.122,2.278-7.229,0.389
				c-2.104-1.889-2.284-5.126-0.396-7.229c1.887-2.104,5.122-2.278,7.229-0.391C1245.414,237.359,1245.594,240.597,1243.706,242.702
				"/>
			<path clip-path="url(#SVGID_80_)" fill="#CACBCB" d="M1243.608,242.612c-1.838,2.047-4.989,2.219-7.041,0.38
				c-2.052-1.84-2.226-4.991-0.389-7.04c1.84-2.052,4.993-2.22,7.041-0.382C1245.271,237.409,1245.443,240.561,1243.608,242.612"/>
			<path clip-path="url(#SVGID_80_)" fill="#CCCECE" d="M1243.509,242.522c-1.789,1.994-4.856,2.159-6.854,0.371
				c-1.997-1.79-2.165-4.859-0.377-6.852c1.789-1.997,4.854-2.163,6.854-0.373C1245.131,237.46,1245.297,240.527,1243.509,242.522"
				/>
			<path clip-path="url(#SVGID_80_)" fill="#CED0D0" d="M1243.409,242.436c-1.738,1.938-4.724,2.101-6.664,0.358
				c-1.942-1.741-2.108-4.727-0.367-6.665c1.739-1.94,4.724-2.102,6.668-0.36C1244.986,237.509,1245.15,240.494,1243.409,242.436"/>
			<path clip-path="url(#SVGID_80_)" fill="#D1D3D3" d="M1243.31,242.347c-1.689,1.884-4.589,2.039-6.477,0.349
				c-1.89-1.692-2.046-4.593-0.357-6.478c1.692-1.886,4.591-2.042,6.479-0.35C1244.844,237.56,1245.002,240.461,1243.31,242.347"/>
			<path clip-path="url(#SVGID_80_)" fill="#D3D5D5" d="M1243.212,242.257c-1.641,1.829-4.458,1.982-6.289,0.34
				c-1.835-1.644-1.989-4.46-0.346-6.291c1.64-1.83,4.456-1.984,6.289-0.339C1244.699,237.609,1244.854,240.425,1243.212,242.257"/>
		</g>
	</g>
	<polygon fill="#605F5E" points="1237.079,241.316 1238.852,239.338 1236.868,237.561 1237.856,236.462 1239.836,238.24 
		1241.612,236.261 1242.71,237.245 1240.939,239.226 1242.919,241 1241.931,242.101 1239.953,240.322 1238.178,242.304 	"/>
	<path fill="#231815" d="M1242.532,237.255l-1.604,1.79l-0.174,0.189l0.193,0.171l1.792,1.604l-0.814,0.911l-1.792-1.608
		l-0.191-0.17l-0.17,0.189l-1.604,1.792l-0.909-0.817l1.603-1.787l0.172-0.191l-0.189-0.171l-1.79-1.606l0.813-0.907l1.79,1.604
		l0.189,0.172l0.172-0.189l1.603-1.79L1242.532,237.255z M1242.892,237.235l-1.291-1.155l-1.772,1.978l-1.983-1.775l-1.154,1.288
		l1.981,1.777l-1.774,1.979l1.288,1.157l1.775-1.979l1.979,1.775l1.158-1.288l-1.983-1.775L1242.892,237.235z"/>
</g>
<g>
	<path fill="#4F4F4F" d="M28.25,180.867c-3.005,3.354-8.163,3.634-11.523,0.624c-3.354-3.01-3.638-8.17-0.631-11.523
		c3.005-3.353,8.164-3.632,11.521-0.623C30.976,172.354,31.259,177.512,28.25,180.867"/>
	<path fill="#AFAFAF" d="M26.641,179.422c-2.21,2.463-6,2.669-8.468,0.457c-2.467-2.211-2.677-6.001-0.463-8.465
		c2.207-2.464,6-2.668,8.463-0.457C28.641,173.166,28.848,176.958,26.641,179.422"/>
	<path fill="none" stroke="#939393" stroke-miterlimit="10" d="M26.641,179.422c-2.21,2.463-6,2.669-8.468,0.457
		c-2.467-2.211-2.677-6.001-0.463-8.465c2.207-2.464,6-2.668,8.463-0.457C28.641,173.166,28.848,176.958,26.641,179.422z"/>
	<g>
		<g>
			<defs>
				
					<rect id="SVGID_81_" x="16.518" y="169.768" transform="matrix(-0.7445 -0.6676 0.6676 -0.7445 -78.4303 320.8179)" width="11.311" height="11.296"/>
			</defs>
			<clipPath id="SVGID_82_">
				<use xlink:href="#SVGID_81_"  overflow="visible"/>
			</clipPath>
			<path clip-path="url(#SVGID_82_)" fill="#BEBFBF" d="M26.383,179.191c-2.082,2.321-5.657,2.515-7.98,0.432
				c-2.325-2.084-2.52-5.657-0.438-7.98c2.083-2.321,5.653-2.515,7.978-0.43C28.269,173.297,28.465,176.87,26.383,179.191"/>
			<path clip-path="url(#SVGID_82_)" fill="#C0C1C1" d="M26.283,179.104c-2.033,2.266-5.52,2.455-7.791,0.419
				c-2.269-2.035-2.46-5.522-0.429-7.79c2.036-2.269,5.521-2.457,7.792-0.42C28.125,173.346,28.317,176.833,26.283,179.104"/>
			<path clip-path="url(#SVGID_82_)" fill="#C3C4C4" d="M26.183,179.014c-1.983,2.213-5.388,2.397-7.602,0.411
				c-2.217-1.986-2.401-5.39-0.418-7.603c1.984-2.214,5.389-2.399,7.604-0.414C27.983,173.397,28.168,176.801,26.183,179.014"/>
			<path clip-path="url(#SVGID_82_)" fill="#C5C6C6" d="M26.086,178.925c-1.935,2.158-5.256,2.336-7.417,0.401
				c-2.159-1.939-2.344-5.259-0.407-7.416c1.935-2.159,5.255-2.339,7.416-0.402C27.838,173.446,28.022,176.767,26.086,178.925"/>
			<path clip-path="url(#SVGID_82_)" fill="#C7C9C9" d="M25.986,178.838c-1.885,2.102-5.123,2.278-7.229,0.389
				c-2.104-1.888-2.283-5.125-0.396-7.229c1.887-2.104,5.123-2.278,7.229-0.391C27.693,173.496,27.873,176.733,25.986,178.838"/>
			<path clip-path="url(#SVGID_82_)" fill="#CACBCB" d="M25.888,178.748c-1.838,2.047-4.99,2.219-7.042,0.38
				c-2.051-1.839-2.225-4.991-0.389-7.04c1.84-2.051,4.994-2.219,7.042-0.382C27.551,173.545,27.723,176.697,25.888,178.748"/>
			<path clip-path="url(#SVGID_82_)" fill="#CCCECE" d="M25.79,178.658c-1.79,1.995-4.858,2.16-6.854,0.371
				c-1.998-1.79-2.166-4.859-0.377-6.852c1.789-1.997,4.855-2.163,6.854-0.373C27.41,173.596,27.577,176.664,25.79,178.658"/>
			<path clip-path="url(#SVGID_82_)" fill="#CED0D0" d="M25.689,178.571c-1.738,1.939-4.724,2.101-6.664,0.358
				c-1.942-1.741-2.107-4.726-0.368-6.665c1.74-1.94,4.724-2.101,6.668-0.36C27.266,173.645,27.43,176.63,25.689,178.571"/>
			<path clip-path="url(#SVGID_82_)" fill="#D1D3D3" d="M25.589,178.482c-1.69,1.884-4.588,2.04-6.477,0.349
				c-1.889-1.692-2.046-4.592-0.358-6.478c1.692-1.885,4.592-2.042,6.479-0.35C27.123,173.696,27.281,176.597,25.589,178.482"/>
			<path clip-path="url(#SVGID_82_)" fill="#D3D5D5" d="M25.492,178.393c-1.641,1.83-4.458,1.983-6.289,0.34
				c-1.834-1.643-1.988-4.459-0.346-6.291c1.64-1.83,4.457-1.984,6.29-0.339C26.979,173.746,27.133,176.561,25.492,178.393"/>
		</g>
	</g>
	<polygon fill="#605F5E" points="19.359,177.453 21.131,175.474 19.148,173.697 20.137,172.598 22.117,174.375 23.892,172.396 
		24.99,173.381 23.219,175.361 25.199,177.136 24.211,178.236 22.233,176.458 20.457,178.439 	"/>
	<path fill="#231815" d="M24.812,173.391l-1.604,1.79l-0.174,0.189l0.193,0.171l1.792,1.605l-0.816,0.91l-1.791-1.608l-0.19-0.17
		l-0.171,0.189l-1.604,1.792l-0.909-0.817l1.602-1.788l0.172-0.191l-0.189-0.171l-1.79-1.606l0.813-0.908l1.789,1.604l0.19,0.172
		l0.171-0.189l1.602-1.79L24.812,173.391z M25.172,173.372l-1.292-1.156l-1.772,1.978l-1.983-1.776l-1.154,1.289l1.981,1.777
		l-1.774,1.979l1.288,1.157l1.777-1.979l1.979,1.775l1.158-1.288l-1.982-1.776L25.172,173.372z"/>
</g>
<g>
	<path fill="#4F4F4F" d="M28.25,244.73c-3.005,3.354-8.163,3.635-11.523,0.625c-3.354-3.011-3.638-8.171-0.631-11.524
		c3.005-3.353,8.164-3.632,11.521-0.622C30.976,236.218,31.259,241.376,28.25,244.73"/>
	<path fill="#AFAFAF" d="M26.641,243.286c-2.21,2.463-6,2.669-8.468,0.457c-2.467-2.212-2.677-6.002-0.463-8.465
		c2.207-2.465,6-2.669,8.463-0.458C28.641,237.03,28.848,240.822,26.641,243.286"/>
	<path fill="none" stroke="#939393" stroke-miterlimit="10" d="M26.641,243.286c-2.21,2.463-6,2.669-8.468,0.457
		c-2.467-2.212-2.677-6.002-0.463-8.465c2.207-2.465,6-2.669,8.463-0.458C28.641,237.03,28.848,240.822,26.641,243.286z"/>
	<g>
		<g>
			<defs>
				
					<rect id="SVGID_83_" x="16.518" y="233.633" transform="matrix(-0.7445 -0.6676 0.6676 -0.7445 -121.061 432.2339)" width="11.31" height="11.296"/>
			</defs>
			<clipPath id="SVGID_84_">
				<use xlink:href="#SVGID_83_"  overflow="visible"/>
			</clipPath>
			<path clip-path="url(#SVGID_84_)" fill="#BEBFBF" d="M26.383,243.056c-2.082,2.321-5.657,2.515-7.98,0.432
				c-2.325-2.085-2.52-5.657-0.438-7.98c2.083-2.321,5.653-2.515,7.978-0.43C28.269,237.161,28.465,240.733,26.383,243.056"/>
			<path clip-path="url(#SVGID_84_)" fill="#C0C1C1" d="M26.283,242.968c-2.033,2.267-5.52,2.455-7.791,0.419
				c-2.269-2.035-2.46-5.522-0.429-7.79c2.036-2.269,5.521-2.457,7.792-0.42C28.125,237.21,28.317,240.697,26.283,242.968"/>
			<path clip-path="url(#SVGID_84_)" fill="#C3C4C4" d="M26.183,242.878c-1.983,2.214-5.388,2.397-7.602,0.411
				c-2.217-1.986-2.401-5.391-0.418-7.603c1.984-2.214,5.389-2.399,7.604-0.413C27.983,237.261,28.168,240.665,26.183,242.878"/>
			<path clip-path="url(#SVGID_84_)" fill="#C5C6C6" d="M26.086,242.789c-1.935,2.157-5.256,2.337-7.417,0.401
				c-2.159-1.939-2.344-5.26-0.407-7.416c1.935-2.159,5.255-2.339,7.416-0.402C27.838,237.31,28.022,240.631,26.086,242.789"/>
			<path clip-path="url(#SVGID_84_)" fill="#C7C9C9" d="M25.986,242.702c-1.885,2.102-5.123,2.278-7.229,0.389
				c-2.104-1.889-2.283-5.126-0.396-7.229c1.887-2.104,5.123-2.278,7.229-0.391C27.693,237.359,27.873,240.597,25.986,242.702"/>
			<path clip-path="url(#SVGID_84_)" fill="#CACBCB" d="M25.888,242.612c-1.838,2.047-4.99,2.219-7.042,0.38
				c-2.051-1.84-2.225-4.991-0.389-7.04c1.84-2.052,4.994-2.22,7.042-0.382C27.551,237.409,27.723,240.561,25.888,242.612"/>
			<path clip-path="url(#SVGID_84_)" fill="#CCCECE" d="M25.79,242.522c-1.79,1.994-4.858,2.159-6.854,0.371
				c-1.998-1.79-2.166-4.859-0.377-6.852c1.789-1.997,4.855-2.163,6.854-0.373C27.41,237.46,27.577,240.527,25.79,242.522"/>
			<path clip-path="url(#SVGID_84_)" fill="#CED0D0" d="M25.689,242.436c-1.738,1.938-4.724,2.101-6.664,0.358
				c-1.942-1.741-2.107-4.727-0.368-6.665c1.74-1.94,4.724-2.102,6.668-0.36C27.266,237.509,27.43,240.494,25.689,242.436"/>
			<path clip-path="url(#SVGID_84_)" fill="#D1D3D3" d="M25.589,242.347c-1.69,1.884-4.588,2.039-6.477,0.349
				c-1.889-1.692-2.046-4.593-0.358-6.478c1.692-1.886,4.592-2.042,6.479-0.35C27.123,237.56,27.281,240.461,25.589,242.347"/>
			<path clip-path="url(#SVGID_84_)" fill="#D3D5D5" d="M25.492,242.257c-1.641,1.829-4.458,1.982-6.289,0.34
				c-1.834-1.644-1.988-4.46-0.346-6.291c1.64-1.83,4.457-1.984,6.29-0.339C26.979,237.609,27.133,240.425,25.492,242.257"/>
		</g>
	</g>
	<polygon fill="#605F5E" points="19.359,241.316 21.131,239.338 19.148,237.561 20.137,236.462 22.117,238.24 23.892,236.261 
		24.99,237.245 23.219,239.226 25.199,241 24.211,242.101 22.233,240.322 20.457,242.304 	"/>
	<path fill="#231815" d="M24.812,237.255l-1.604,1.79l-0.174,0.189l0.193,0.171l1.792,1.604l-0.816,0.911l-1.791-1.608l-0.19-0.17
		l-0.171,0.189l-1.604,1.792l-0.909-0.817l1.602-1.787l0.172-0.191l-0.189-0.171l-1.79-1.606l0.813-0.907l1.789,1.604l0.19,0.172
		l0.171-0.189l1.602-1.79L24.812,237.255z M25.172,237.235l-1.292-1.155l-1.772,1.978l-1.983-1.775l-1.154,1.288l1.981,1.777
		l-1.774,1.979l1.288,1.157l1.777-1.979l1.979,1.775l1.158-1.288l-1.982-1.775L25.172,237.235z"/>
</g>
<rect x="216.245" y="137.882" fill="#575364" width="83.132" height="45.517"/>
<rect x="968.891" y="205.202" fill="#575364" width="83.133" height="45.517"/>
</svg>
