<?xml version="1.0" encoding="utf-8"?>
<!-- Generator: Adobe Illustrator 21.0.0, SVG Export Plug-In . SVG Version: 6.00 Build 0)  -->
<svg version="1.1" id="图层_1" xmlns="http://www.w3.org/2000/svg" xmlns:xlink="http://www.w3.org/1999/xlink" x="0px" y="0px"
	 width="1275.6px" height="1135.3px" viewBox="0 0 1275.6 1135.3" enable-background="new 0 0 1275.6 1135.3" xml:space="preserve">
<g>
	<rect y="0" fill="#ACAEAF" width="1275.6" height="1135.3"/>
	<g>
		<rect fill="#343537" width="1275.6" height="80.2"/>
		<rect y="80.2" fill="#C6C6C6" width="1275.6" height="4.4"/>
		<rect x="60" fill="#5F6060" width="38.8" height="80.2"/>
		<rect x="134.5" fill="#5F6060" width="38.8" height="80.2"/>
		<rect x="209.1" fill="#5F6060" width="38.8" height="80.2"/>
		<rect x="283.6" fill="#5F6060" width="38.8" height="80.2"/>
		<rect x="358.2" fill="#5F6060" width="38.8" height="80.2"/>
		<rect x="432.7" fill="#5F6060" width="38.8" height="80.2"/>
		<rect x="507.3" fill="#5F6060" width="38.8" height="80.2"/>
		<rect x="581.9" fill="#5F6060" width="38.8" height="80.2"/>
		<rect x="656.4" fill="#5F6060" width="38.8" height="80.2"/>
		<rect x="731" fill="#5F6060" width="38.8" height="80.2"/>
		<rect x="805.5" fill="#5F6060" width="38.8" height="80.2"/>
		<rect x="880.1" fill="#5F6060" width="38.8" height="80.2"/>
		<rect x="954.6" fill="#5F6060" width="38.8" height="80.2"/>
		<rect x="1029.2" fill="#5F6060" width="38.8" height="80.2"/>
		<rect x="1103.7" fill="#5F6060" width="38.8" height="80.2"/>
		<rect x="1178.3" fill="#5F6060" width="38.8" height="80.2"/>
	</g>
	<rect x="83.6" y="1083.5" fill="#343537" width="1108.4" height="51.8"/>
	<rect x="83.6" y="1080.9" fill="#151616" width="1108.4" height="2.6"/>
	<rect x="121.8" y="1083.5" fill="#5F6060" width="39.8" height="51.8"/>
	<rect x="198.2" y="1083.5" fill="#5F6060" width="39.8" height="51.8"/>
	<rect x="274.6" y="1083.5" fill="#5F6060" width="39.8" height="51.8"/>
	<rect x="351.1" y="1083.5" fill="#5F6060" width="39.8" height="51.8"/>
	<rect x="427.5" y="1083.5" fill="#5F6060" width="39.8" height="51.8"/>
	<rect x="504" y="1083.5" fill="#5F6060" width="39.8" height="51.8"/>
	<rect x="580.4" y="1083.5" fill="#5F6060" width="39.8" height="51.8"/>
	<rect x="656.9" y="1083.5" fill="#5F6060" width="39.8" height="51.8"/>
	<rect x="733.3" y="1083.5" fill="#5F6060" width="39.8" height="51.8"/>
	<rect x="809.8" y="1083.5" fill="#5F6060" width="39.8" height="51.8"/>
	<rect x="886.2" y="1083.5" fill="#5F6060" width="39.8" height="51.8"/>
	<rect x="962.7" y="1083.5" fill="#5F6060" width="39.8" height="51.8"/>
	<rect x="1039.1" y="1083.5" fill="#5F6060" width="39.8" height="51.8"/>
	<rect x="1115.6" y="1083.5" fill="#5F6060" width="39.8" height="51.8"/>
	<g>
		<rect x="126.8" y="118.7" fill="#343537" width="426" height="125.3"/>
		<rect x="151.9" y="139" fill="none" stroke="#1A1A1A" stroke-width="3" stroke-miterlimit="10" width="375.7" height="56.1"/>
		<rect x="471.3" y="155.5" fill="#3F3F3F" width="41.8" height="21.5"/>
		<rect x="468.3" y="210.5" fill="#3F3F3F" stroke="#000000" stroke-miterlimit="10" width="59.3" height="21.5"/>
		<path fill="#3F3F3F" stroke="#000000" stroke-miterlimit="10" d="M336.4,221.5L336.4,221.5c-1.8,0-3.3-1.5-3.3-3.2v0
			c0-1.8,1.5-3.3,3.3-3.3h0c1.8,0,3.2,1.5,3.2,3.3v0C339.6,220,338.1,221.5,336.4,221.5z"/>
	</g>
	<g>
		<rect x="126.8" y="254.1" fill="#343537" width="426" height="125.3"/>
		<rect x="151.9" y="274.4" fill="none" stroke="#1A1A1A" stroke-width="3" stroke-miterlimit="10" width="375.7" height="56.1"/>
		<rect x="471.3" y="290.8" fill="#3F3F3F" width="41.8" height="21.5"/>
		<rect x="468.3" y="345.8" fill="#3F3F3F" stroke="#000000" stroke-miterlimit="10" width="59.3" height="21.5"/>
		<path fill="#3F3F3F" stroke="#000000" stroke-miterlimit="10" d="M336.4,356.8L336.4,356.8c-1.8,0-3.3-1.5-3.3-3.3l0,0
			c0-1.8,1.5-3.3,3.3-3.3h0c1.8,0,3.2,1.5,3.2,3.3l0,0C339.6,355.4,338.1,356.8,336.4,356.8z"/>
	</g>
	<rect x="126.8" y="244.1" width="426" height="10"/>
	<path fill-rule="evenodd" clip-rule="evenodd" fill="#E8E8E8" d="M614.7,30.6c0,1.7,0,18,0,21.7c0,2.7,1,4,3.4,4
		c1.6,0,10.2,0,14.6,0l0.6-2c-6.1-2-9.2-7.4-9.2-12.6c0-5.8,3.8-10.2,8.5-12.2l0.6-1.7c-4.8,0-14.2,0-15.6,0
		C616.4,27.9,614.7,29.3,614.7,30.6L614.7,30.6z M660.9,30.6c0-1.4-1.4-2.8-2.8-2.8c-1.6,0-14.2,0-18.6,0l-0.7,1.7
		c8.2,0.4,12.6,6.4,12.6,12.2c0,5.1-3.8,12.2-11.6,12.6l-1,2c4.8,0,17,0,19,0c2.1,0,3.1-1.4,3.1-4C660.9,48.6,660.9,32.4,660.9,30.6
		L660.9,30.6z M638.6,38.1c0.2-0.9-0.8-1.7-1.8-1.7c-0.6,0-2,0-2,0l3-8.5h-3l-6.8,19.4l2.8,0l3.2-9.2h1.7l-3.4,9.2h3
		C635.4,47.2,638.5,38.5,638.6,38.1L638.6,38.1z M641.1,36.4l-6.8,20h3l2.7-8.8c0.6,0,2,0,3.4,0c1.4,0,1.7-0.9,2.1-2
		c0.3-0.7,2.5-7.2,2.6-7.6c0.2-0.8-0.4-1.6-1.6-1.6C645.5,36.4,641.1,36.4,641.1,36.4L641.1,36.4z M640.8,46.2l2.7-8.2l1.7,0
		l-2.8,8.2H640.8L640.8,46.2z"/>
	
		<radialGradient id="SVGID_38_" cx="2847.5244" cy="678.4375" r="14.1214" gradientTransform="matrix(0.7255 0 0 0.85 -1322.7261 -427.8652)" gradientUnits="userSpaceOnUse">
		<stop  offset="0" style="stop-color:#EFFFE2"/>
		<stop  offset="1" style="stop-color:#E9EC3C"/>
	</radialGradient>
	<rect x="729.3" y="143.9" fill-rule="evenodd" clip-rule="evenodd" fill="url(#SVGID_38_)" width="27.8" height="9.8"/>
	
		<radialGradient id="SVGID_39_" cx="2847.5244" cy="703.6041" r="14.1214" gradientTransform="matrix(0.7255 0 0 0.85 -1322.7261 -427.8652)" gradientUnits="userSpaceOnUse">
		<stop  offset="0" style="stop-color:#EFFFE2"/>
		<stop  offset="1" style="stop-color:#E9EC3C"/>
	</radialGradient>
	<rect x="729.3" y="165.3" fill-rule="evenodd" clip-rule="evenodd" fill="url(#SVGID_39_)" width="27.8" height="9.8"/>
	
		<radialGradient id="SVGID_41_" cx="2963.6528" cy="678.4375" r="14.1214" gradientTransform="matrix(0.7255 0 0 0.85 -1322.7261 -427.8652)" gradientUnits="userSpaceOnUse">
		<stop  offset="0" style="stop-color:#EFFFE2"/>
		<stop  offset="1" style="stop-color:#E9EC3C"/>
	</radialGradient>
	<rect x="813.5" y="143.9" fill-rule="evenodd" clip-rule="evenodd" fill="url(#SVGID_41_)" width="27.8" height="9.8"/>
	
		<radialGradient id="SVGID_44_" cx="2963.6528" cy="703.6041" r="14.1214" gradientTransform="matrix(0.7255 0 0 0.85 -1322.7261 -427.8652)" gradientUnits="userSpaceOnUse">
		<stop  offset="0" style="stop-color:#EFFFE2"/>
		<stop  offset="1" style="stop-color:#E9EC3C"/>
	</radialGradient>
	<rect x="813.5" y="165.3" fill-rule="evenodd" clip-rule="evenodd" fill="url(#SVGID_44_)" width="27.8" height="9.8"/>
	<rect x="655.5" y="150.8" fill-rule="evenodd" clip-rule="evenodd" fill="#191919" width="27.8" height="11.5"/>
	<rect x="655.5" y="162.3" fill-rule="evenodd" clip-rule="evenodd" fill="#FDFEFF" width="27.8" height="1.4"/>
	<path fill-rule="evenodd" clip-rule="evenodd" fill="#444444" d="M1186.7,188.4h-91.2v-60.5h91.2c2.7,0,4.8,2.2,4.8,4.8v50.9
		C1191.5,186.3,1189.3,188.4,1186.7,188.4z"/>
	<path fill-rule="evenodd" clip-rule="evenodd" fill="#232323" d="M1182.1,185.5h-81.9v-54.7h81.9c2.7,0,4.8,2.2,4.8,4.8v45.1
		C1186.9,183.4,1184.7,185.5,1182.1,185.5z"/>
	<g>
		<path fill-rule="evenodd" clip-rule="evenodd" fill="#FDFEFF" d="M1100.7,184.5H619c-5.2,0-9.4-4.2-9.4-9.4v-37.1
			c0-5.2,4.2-9.4,9.4-9.4h481.8c5.2,0,9.4,4.2,9.4,9.4v37.1C1110.2,180.3,1105.9,184.5,1100.7,184.5z"/>
		<path fill-rule="evenodd" clip-rule="evenodd" fill="#444444" d="M1100.7,188.4H619c-5.2,0-9.4-4.2-9.4-9.4v-37.1
			c0-5.2,4.2-9.4,9.4-9.4h481.8c5.2,0,9.4,4.2,9.4,9.4V179C1110.2,184.2,1105.9,188.4,1100.7,188.4z"/>
		<linearGradient id="SVGID_46_" gradientUnits="userSpaceOnUse" x1="723.4417" y1="294.8196" x2="996.2427" y2="22.0187">
			<stop  offset="0" style="stop-color:#717071"/>
			<stop  offset="2.103041e-02" style="stop-color:#908F90"/>
			<stop  offset="5.263596e-02" style="stop-color:#B7B7B7"/>
			<stop  offset="8.374418e-02" style="stop-color:#D7D6D7"/>
			<stop  offset="0.1138" style="stop-color:#EDEDED"/>
			<stop  offset="0.1424" style="stop-color:#FAFAFA"/>
			<stop  offset="0.1678" style="stop-color:#FFFFFF"/>
			<stop  offset="0.3173" style="stop-color:#DCDDDE"/>
			<stop  offset="0.4641" style="stop-color:#C1C3C4"/>
			<stop  offset="0.5942" style="stop-color:#B1B4B4"/>
			<stop  offset="0.694" style="stop-color:#ABAEAF"/>
			<stop  offset="0.99" style="stop-color:#FFFFFF"/>
		</linearGradient>
		<path fill-rule="evenodd" clip-rule="evenodd" fill="url(#SVGID_46_)" d="M1100.7,186.4H619c-5.2,0-9.4-4.2-9.4-9.4v-37.1
			c0-5.2,4.2-9.4,9.4-9.4h481.8c5.2,0,9.4,4.2,9.4,9.4V177C1110.2,182.2,1105.9,186.4,1100.7,186.4z"/>
	</g>
	<linearGradient id="SVGID_48_" gradientUnits="userSpaceOnUse" x1="1121.6957" y1="184.7857" x2="1174.9287" y2="131.5527">
		<stop  offset="0" style="stop-color:#717071"/>
		<stop  offset="2.103041e-02" style="stop-color:#908F90"/>
		<stop  offset="5.263596e-02" style="stop-color:#B7B7B7"/>
		<stop  offset="8.374418e-02" style="stop-color:#D7D6D7"/>
		<stop  offset="0.1138" style="stop-color:#EDEDED"/>
		<stop  offset="0.1424" style="stop-color:#FAFAFA"/>
		<stop  offset="0.1678" style="stop-color:#FFFFFF"/>
		<stop  offset="0.3173" style="stop-color:#DCDDDE"/>
		<stop  offset="0.4641" style="stop-color:#C1C3C4"/>
		<stop  offset="0.5942" style="stop-color:#B1B4B4"/>
		<stop  offset="0.694" style="stop-color:#ABAEAF"/>
		<stop  offset="0.99" style="stop-color:#FFFFFF"/>
	</linearGradient>
	<path fill-rule="evenodd" clip-rule="evenodd" fill="url(#SVGID_48_)" d="M1175.7,182.1H1121c-2.6,0-4.6-2.1-4.6-4.6v-38.7
		c0-2.6,2.1-4.6,4.6-4.6h54.7c2.6,0,4.6,2.1,4.6,4.6v38.7C1180.3,180.1,1178.2,182.1,1175.7,182.1z"/>
	<rect x="602.9" y="220.3" fill-rule="evenodd" clip-rule="evenodd" fill="#1B1C1C" width="592.5" height="153.5"/>
	<g>
		<g>
			<rect x="609.7" y="226.4" fill-rule="evenodd" clip-rule="evenodd" fill="#343537" width="283.6" height="67.1"/>
			<linearGradient id="SVGID_49_" gradientUnits="userSpaceOnUse" x1="609.7008" y1="260.0119" x2="872.395" y2="260.0119">
				<stop  offset="0.3828" style="stop-color:#343537"/>
				<stop  offset="0.6544" style="stop-color:#343537"/>
				<stop  offset="0.7848" style="stop-color:#2E2E30"/>
				<stop  offset="0.9302" style="stop-color:#212121"/>
				<stop  offset="0.9713" style="stop-color:#4B4C4F"/>
				<stop  offset="0.9841" style="stop-color:#444548"/>
				<stop  offset="1" style="stop-color:#343537"/>
			</linearGradient>
			<rect x="609.7" y="226.4" fill-rule="evenodd" clip-rule="evenodd" fill="url(#SVGID_49_)" width="262.7" height="67.1"/>
			<rect x="620.1" y="235" fill-rule="evenodd" clip-rule="evenodd" fill="#1B1C1C" width="7" height="49.9"/>
			<rect x="631.3" y="235" fill-rule="evenodd" clip-rule="evenodd" fill="#1B1C1C" width="7" height="49.9"/>
			<rect x="642.4" y="235" fill-rule="evenodd" clip-rule="evenodd" fill="#1B1C1C" width="7" height="49.9"/>
			<rect x="653.6" y="235" fill-rule="evenodd" clip-rule="evenodd" fill="#1B1C1C" width="7" height="49.9"/>
			<path fill-rule="evenodd" clip-rule="evenodd" fill="#1B1C1C" d="M730.5,284.9h-29.4c-13.8,0-24.9-11.2-24.9-24.9v0
				c0-13.8,11.2-24.9,24.9-24.9h29.4c2.8,0,5.1,2.3,5.1,5.1v39.5C735.6,282.6,733.3,284.9,730.5,284.9z"/>
			<linearGradient id="SVGID_52_" gradientUnits="userSpaceOnUse" x1="718.7026" y1="260.0119" x2="725.6789" y2="260.0119">
				<stop  offset="0" style="stop-color:#680D4A"/>
				<stop  offset="6.350595e-02" style="stop-color:#6D1450"/>
				<stop  offset="0.1592" style="stop-color:#7A2960"/>
				<stop  offset="0.2751" style="stop-color:#904B79"/>
				<stop  offset="0.4059" style="stop-color:#AF7A9D"/>
				<stop  offset="0.4225" style="stop-color:#B380A2"/>
				<stop  offset="0.62" style="stop-color:#AD7F9C"/>
				<stop  offset="0.6316" style="stop-color:#A97997"/>
				<stop  offset="0.6973" style="stop-color:#965981"/>
				<stop  offset="0.7656" style="stop-color:#88406F"/>
				<stop  offset="0.8367" style="stop-color:#7D2E63"/>
				<stop  offset="0.9123" style="stop-color:#77235B"/>
				<stop  offset="1" style="stop-color:#752059"/>
			</linearGradient>
			<rect x="718.7" y="243" fill-rule="evenodd" clip-rule="evenodd" fill="url(#SVGID_52_)" width="7" height="34"/>
			<g>
				<path fill-rule="evenodd" clip-rule="evenodd" fill="#BA6D38" d="M822.8,284.9h-47.6c-13.8,0-24.9-11.2-24.9-24.9v0
					c0-13.8,11.2-24.9,24.9-24.9h47.6c13.8,0,24.9,11.2,24.9,24.9v0C847.8,273.8,836.6,284.9,822.8,284.9z"/>
				<g>
					<path fill="none" d="M836.4,281.1v-5.5l4.4-2.7l2.6,1.6c0.2-0.3,0.4-0.6,0.6-0.9l-2.7-1.7v-5.5l4.4-2.7l1.6,1
						c0.1-0.4,0.1-0.9,0.2-1.3l-1.1-0.7v-5.5l1.1-0.7c-0.1-0.4-0.1-0.8-0.2-1.2l-1.4,0.9l-4.4-2.7v-5.5l2.5-1.6
						c-0.2-0.3-0.4-0.6-0.6-0.9l-2.4,1.5l-4.4-2.7v-5.5l0.1-0.1c-2.1-1.4-4.5-2.5-7-3.1l-3.5,2.2l-4.4-2.7v-0.1h-1.3v0.1l-4.4,2.7
						l-4.4-2.7v-0.1h-1v0.1l-4.4,2.7l-4.4-2.7v-0.1h-1v0.1l-4.4,2.7l-4.4-2.7v-0.1h-1v0.1l-4.4,2.7l-4.4-2.7v-0.1h-1v0.1l-4.4,2.7
						l-4.4-2.7v-0.1c-0.3,0-0.7,0-1,0.1l-4.4,2.7l-1.9-1.2c-0.4,0.2-0.8,0.4-1.2,0.5l2.6,1.6v5.5l-4.4,2.7l-4.4-2.7v-2.7
						c-0.3,0.3-0.7,0.7-1,1.1v1.6l-2.3,1.5c-0.4,0.7-0.8,1.3-1.2,2l4-2.5l4.4,2.7v5.5l-4.4,2.7l-4.4-2.7v-4.9
						c-0.4,0.8-0.7,1.6-1,2.4v2.5l-0.9,0.6c-0.1,0.5-0.2,1-0.3,1.5l1.7-1l4.4,2.7v5.5l-4.4,2.7l-1.7-1c0.1,0.6,0.2,1.1,0.3,1.7
						l0.6,0.4v1.8c0.3,0.9,0.6,1.8,1,2.6v-4.4l4.4-2.7l4.4,2.7v5.5l-4.4,2.7l-3.7-2.3c0.4,0.7,0.8,1.4,1.2,2.1l1.9,1.2v1.3
						c0.3,0.4,0.7,0.7,1,1.1v-2.4l4.4-2.7l4.4,2.7v5.5l-2.5,1.6c0.4,0.2,0.8,0.4,1.2,0.5l1.8-1.1l4.4,2.7c0.4,0,0.7,0.1,1.1,0.1
						v-0.1l4.4-2.7l4.4,2.7v0.1h1v-0.1l4.4-2.7l4.4,2.7v0.1h1v-0.1l4.4-2.7l4.4,2.7v0.1h1v-0.1l4.4-2.7l4.4,2.7v0.1h1v-0.1l4.4-2.7
						l4.4,2.7v0.1h1.3v-0.1l4.4-2.7l3.6,2.2c2.5-0.6,4.9-1.6,7-3L836.4,281.1z M845.4,257.3v5.5l-4.4,2.7l-4.4-2.7v-5.5l4.4-2.7
						L845.4,257.3z M840.5,248.1v5.5l-4.4,2.7l-4.4-2.7v-5.5l4.4-2.7L840.5,248.1z M835.6,257.3v5.5l-4.4,2.7l-4.4-2.7v-5.5l4.4-2.7
						L835.6,257.3z M826.8,238.9l4.4-2.7l4.4,2.7v5.5l-4.4,2.7l-4.4-2.7V238.9z M830.7,248.1v5.5l-4.4,2.7l-4.4-2.7v-5.5l4.4-2.7
						L830.7,248.1z M825.8,257.3v5.5l-4.4,2.7l-4.4-2.7v-5.5l4.4-2.7L825.8,257.3z M817,238.9l4.4-2.7l4.4,2.7v5.5l-4.4,2.7
						l-4.4-2.7V238.9z M820.6,248.1v5.5l-4.4,2.7l-4.4-2.7v-5.5l4.4-2.7L820.6,248.1z M815.7,257.3v5.5l-4.4,2.7l-4.4-2.7v-5.5
						l4.4-2.7L815.7,257.3z M806.9,238.9l4.4-2.7l4.4,2.7v5.5l-4.4,2.7l-4.4-2.7V238.9z M810.8,248.1v5.5l-4.4,2.7l-4.4-2.7v-5.5
						l4.4-2.7L810.8,248.1z M805.9,257.3v5.5l-4.4,2.7l-4.4-2.7v-5.5l4.4-2.7L805.9,257.3z M797.1,238.9l4.4-2.7l4.4,2.7v5.5
						l-4.4,2.7l-4.4-2.7V238.9z M801,248.1v5.5l-4.4,2.7l-4.4-2.7v-5.5l4.4-2.7L801,248.1z M796.1,257.3v5.5l-4.4,2.7l-4.4-2.7v-5.5
						l4.4-2.7L796.1,257.3z M787.3,238.9l4.4-2.7l4.4,2.7v5.5l-4.4,2.7l-4.4-2.7V238.9z M791.2,248.1v5.5l-4.4,2.7l-4.4-2.7v-5.5
						l4.4-2.7L791.2,248.1z M786.2,257.3v5.5l-4.4,2.7l-4.4-2.7v-5.5l4.4-2.7L786.2,257.3z M777.4,238.9l4.4-2.7l4.4,2.7v5.5
						l-4.4,2.7l-4.4-2.7V238.9z M781.3,248.1v5.5l-4.4,2.7l-4.4-2.7v-5.5l4.4-2.7L781.3,248.1z M776.4,257.3v5.5l-4.4,2.7l-4.4-2.7
						v-5.5l4.4-2.7L776.4,257.3z M767.6,238.9l4.4-2.7l4.4,2.7v5.5l-4.4,2.7l-4.4-2.7V238.9z M762.7,248.1l4.4-2.7l4.4,2.7v5.5
						l-4.4,2.7l-4.4-2.7V248.1z M757.8,262.7v-5.5l4.4-2.7l4.4,2.7v5.5l-4.4,2.7L757.8,262.7z M762.4,271.9v-5.5l4.4-2.7l4.4,2.7
						v5.5l-4.4,2.7L762.4,271.9z M776.2,281.1l-4.4,2.7l-4.4-2.7v-5.5l4.4-2.7l4.4,2.7V281.1z M772.3,271.9v-5.5l4.4-2.7l4.4,2.7
						v5.5l-4.4,2.7L772.3,271.9z M786,281.1l-4.4,2.7l-4.4-2.7v-5.5l4.4-2.7l4.4,2.7V281.1z M782.1,271.9v-5.5l4.4-2.7l4.4,2.7v5.5
						l-4.4,2.7L782.1,271.9z M795.8,281.1l-4.4,2.7l-4.4-2.7v-5.5l4.4-2.7l4.4,2.7V281.1z M791.9,271.9v-5.5l4.4-2.7l4.4,2.7v5.5
						l-4.4,2.7L791.9,271.9z M805.6,281.1l-4.4,2.7l-4.4-2.7v-5.5l4.4-2.7l4.4,2.7V281.1z M801.7,271.9v-5.5l4.4-2.7l4.4,2.7v5.5
						l-4.4,2.7L801.7,271.9z M815.5,281.1l-4.4,2.7l-4.4-2.7v-5.5l4.4-2.7l4.4,2.7V281.1z M811.6,271.9v-5.5l4.4-2.7l4.4,2.7v5.5
						l-4.4,2.7L811.6,271.9z M825.5,281.1l-4.4,2.7l-4.4-2.7v-5.5l4.4-2.7l4.4,2.7V281.1z M821.6,271.9v-5.5l4.4-2.7l4.4,2.7v5.5
						l-4.4,2.7L821.6,271.9z M835.4,281.1l-4.4,2.7l-4.4-2.7v-5.5l4.4-2.7l4.4,2.7V281.1z M831.5,271.9v-5.5l4.4-2.7l4.4,2.7v5.5
						l-4.4,2.7L831.5,271.9z"/>
					<path fill="#1B1C1C" d="M751,266.1c0.2,0.7,0.4,1.5,0.6,2.2v-1.8L751,266.1z"/>
					<path fill="#1B1C1C" d="M761.4,271.9v-5.5l-4.4-2.7l-4.4,2.7v4.4c0.2,0.5,0.5,1,0.7,1.5l3.7,2.3L761.4,271.9z"/>
					<polygon fill="#1B1C1C" points="771.3,266.5 766.9,263.7 762.4,266.5 762.4,271.9 766.9,274.7 771.3,271.9 					"/>
					<polygon fill="#1B1C1C" points="781.1,266.5 776.7,263.7 772.3,266.5 772.3,271.9 776.7,274.7 781.1,271.9 					"/>
					<polygon fill="#1B1C1C" points="790.9,266.5 786.5,263.7 782.1,266.5 782.1,271.9 786.5,274.7 790.9,271.9 					"/>
					<polygon fill="#1B1C1C" points="800.7,266.5 796.3,263.7 791.9,266.5 791.9,271.9 796.3,274.7 800.7,271.9 					"/>
					<polygon fill="#1B1C1C" points="810.6,266.5 806.1,263.7 801.7,266.5 801.7,271.9 806.1,274.7 810.6,271.9 					"/>
					<polygon fill="#1B1C1C" points="820.4,266.5 816,263.7 811.6,266.5 811.6,271.9 816,274.7 820.4,271.9 					"/>
					<path fill="#1B1C1C" d="M754.6,274.5c0.6,0.9,1.2,1.7,1.9,2.5v-1.3L754.6,274.5z"/>
					<path fill="#1B1C1C" d="M766.3,275.6l-4.4-2.7l-4.4,2.7v2.4c1.8,1.9,4,3.4,6.3,4.6l2.5-1.6V275.6z"/>
					<polygon fill="#1B1C1C" points="767.4,275.6 767.4,281.1 771.8,283.8 776.2,281.1 776.2,275.6 771.8,272.9 					"/>
					<polygon fill="#1B1C1C" points="777.2,275.6 777.2,281.1 781.6,283.8 786,281.1 786,275.6 781.6,272.9 					"/>
					<polygon fill="#1B1C1C" points="787,275.6 787,281.1 791.4,283.8 795.8,281.1 795.8,275.6 791.4,272.9 					"/>
					<polygon fill="#1B1C1C" points="796.8,275.6 796.8,281.1 801.2,283.8 805.6,281.1 805.6,275.6 801.2,272.9 					"/>
					<polygon fill="#1B1C1C" points="806.7,275.6 806.7,281.1 811.1,283.8 815.5,281.1 815.5,275.6 811.1,272.9 					"/>
					<path fill="#1B1C1C" d="M765,283.2c1.9,0.8,4,1.4,6.2,1.6l-4.4-2.7L765,283.2z"/>
					<path fill="#1B1C1C" d="M776.7,282.1l-4.4,2.7v0.1c0.4,0,0.8,0,1.2,0h7.6v-0.1L776.7,282.1z"/>
					<polygon fill="#1B1C1C" points="786.5,282.1 782.1,284.8 782.1,284.9 790.9,284.9 790.9,284.8 					"/>
					<polygon fill="#1B1C1C" points="796.3,282.1 791.9,284.8 791.9,284.9 800.7,284.9 800.7,284.8 					"/>
					<polygon fill="#1B1C1C" points="806.1,282.1 801.7,284.8 801.7,284.9 810.6,284.9 810.6,284.8 					"/>
					<polygon fill="#1B1C1C" points="816,282.1 811.6,284.8 811.6,284.9 820.4,284.9 820.4,284.8 					"/>
					<path fill="#1B1C1C" d="M771.5,235.2c-2.2,0.2-4.3,0.7-6.3,1.5l1.9,1.2L771.5,235.2z"/>
					<path fill="#1B1C1C" d="M776.9,237.9l4.4-2.7v-0.1h-7.9c-0.3,0-0.6,0-1,0v0.1L776.9,237.9z"/>
					<polygon fill="#1B1C1C" points="786.7,237.9 791.2,235.2 791.2,235.1 782.3,235.1 782.3,235.2 					"/>
					<polygon fill="#1B1C1C" points="796.6,237.9 801,235.2 801,235.1 792.2,235.1 792.2,235.2 					"/>
					<polygon fill="#1B1C1C" points="806.4,237.9 810.8,235.2 810.8,235.1 802,235.1 802,235.2 					"/>
					<polygon fill="#1B1C1C" points="816.2,237.9 820.6,235.2 820.6,235.1 811.8,235.1 811.8,235.2 					"/>
					<path fill="#1B1C1C" d="M756.8,242.8c-0.9,1-1.6,2-2.3,3.1l2.3-1.5V242.8z"/>
					<path fill="#1B1C1C" d="M762.2,247.1l4.4-2.7v-5.5l-2.6-1.6c-2.3,1.1-4.4,2.6-6.2,4.4v2.7L762.2,247.1z"/>
					<polygon fill="#1B1C1C" points="776.4,244.4 776.4,238.9 772,236.2 767.6,238.9 767.6,244.4 772,247.1 					"/>
					<polygon fill="#1B1C1C" points="786.2,244.4 786.2,238.9 781.8,236.2 777.4,238.9 777.4,244.4 781.8,247.1 					"/>
					<polygon fill="#1B1C1C" points="796.1,244.4 796.1,238.9 791.7,236.2 787.3,238.9 787.3,244.4 791.7,247.1 					"/>
					<polygon fill="#1B1C1C" points="805.9,244.4 805.9,238.9 801.5,236.2 797.1,238.9 797.1,244.4 801.5,247.1 					"/>
					<polygon fill="#1B1C1C" points="815.7,244.4 815.7,238.9 811.3,236.2 806.9,238.9 806.9,244.4 811.3,247.1 					"/>
					<path fill="#1B1C1C" d="M751.9,251c-0.4,1-0.7,2-0.9,3.1l0.9-0.6V251z"/>
					<path fill="#1B1C1C" d="M757.3,256.3l4.4-2.7v-5.5l-4.4-2.7l-4,2.5c-0.1,0.3-0.3,0.5-0.4,0.8v4.9L757.3,256.3z"/>
					<polygon fill="#1B1C1C" points="771.5,253.6 771.5,248.1 767.1,245.4 762.7,248.1 762.7,253.6 767.1,256.3 					"/>
					<polygon fill="#1B1C1C" points="772.5,253.6 776.9,256.3 781.3,253.6 781.3,248.1 776.9,245.4 772.5,248.1 					"/>
					<polygon fill="#1B1C1C" points="782.3,253.6 786.7,256.3 791.2,253.6 791.2,248.1 786.7,245.4 782.3,248.1 					"/>
					<polygon fill="#1B1C1C" points="792.2,253.6 796.6,256.3 801,253.6 801,248.1 796.6,245.4 792.2,248.1 					"/>
					<polygon fill="#1B1C1C" points="802,253.6 806.4,256.3 810.8,253.6 810.8,248.1 806.4,245.4 802,248.1 					"/>
					<polygon fill="#1B1C1C" points="811.8,253.6 816.2,256.3 820.6,253.6 820.6,248.1 816.2,245.4 811.8,248.1 					"/>
					<path fill="#1B1C1C" d="M756.8,262.7v-5.5l-4.4-2.7l-1.7,1c-0.2,1.4-0.4,2.9-0.4,4.4c0,1.5,0.1,3,0.4,4.4l1.7,1L756.8,262.7z"
						/>
					<polygon fill="#1B1C1C" points="766.6,257.3 762.2,254.5 757.8,257.3 757.8,262.7 762.2,265.5 766.6,262.7 					"/>
					<polygon fill="#1B1C1C" points="767.6,257.3 767.6,262.7 772,265.5 776.4,262.7 776.4,257.3 772,254.5 					"/>
					<polygon fill="#1B1C1C" points="777.4,257.3 777.4,262.7 781.8,265.5 786.2,262.7 786.2,257.3 781.8,254.5 					"/>
					<polygon fill="#1B1C1C" points="787.3,257.3 787.3,262.7 791.7,265.5 796.1,262.7 796.1,257.3 791.7,254.5 					"/>
					<polygon fill="#1B1C1C" points="797.1,257.3 797.1,262.7 801.5,265.5 805.9,262.7 805.9,257.3 801.5,254.5 					"/>
					<polygon fill="#1B1C1C" points="806.9,257.3 806.9,262.7 811.3,265.5 815.7,262.7 815.7,257.3 811.3,254.5 					"/>
					<polygon fill="#1B1C1C" points="830.4,266.5 826,263.7 821.6,266.5 821.6,271.9 826,274.7 830.4,271.9 					"/>
					<polygon fill="#1B1C1C" points="840.3,266.5 835.9,263.7 831.5,266.5 831.5,271.9 835.9,274.7 840.3,271.9 					"/>
					<path fill="#1B1C1C" d="M841.3,266.5v5.5l2.7,1.7c1.6-2.6,2.8-5.6,3.3-8.9l-1.6-1L841.3,266.5z"/>
					<polygon fill="#1B1C1C" points="816.7,275.6 816.7,281.1 821.1,283.8 825.5,281.1 825.5,275.6 821.1,272.9 					"/>
					<polygon fill="#1B1C1C" points="826.6,275.6 826.6,281.1 831,283.8 835.4,281.1 835.4,275.6 831,272.9 					"/>
					<path fill="#1B1C1C" d="M836.4,275.6v5.5l0.3,0.2c2.7-1.7,4.9-4,6.8-6.7l-2.6-1.6L836.4,275.6z"/>
					<path fill="#1B1C1C" d="M821.6,284.8L821.6,284.8l2.9,0.1c1.7,0,3.4-0.2,5-0.6l-3.6-2.2L821.6,284.8z"/>
					<path fill="#1B1C1C" d="M826.3,237.9l3.5-2.2c-1.7-0.4-3.4-0.6-5.2-0.6h-2.7v0.1L826.3,237.9z"/>
					<polygon fill="#1B1C1C" points="825.8,244.4 825.8,238.9 821.4,236.2 817,238.9 817,244.4 821.4,247.1 					"/>
					<polygon fill="#1B1C1C" points="835.6,244.4 835.6,238.9 831.2,236.2 826.8,238.9 826.8,244.4 831.2,247.1 					"/>
					<path fill="#1B1C1C" d="M836.6,244.4l4.4,2.7l2.4-1.5c-1.8-2.7-4.1-5-6.7-6.8l-0.1,0.1V244.4z"/>
					<polygon fill="#1B1C1C" points="821.9,253.6 826.3,256.3 830.7,253.6 830.7,248.1 826.3,245.4 821.9,248.1 					"/>
					<polygon fill="#1B1C1C" points="831.7,253.6 836.1,256.3 840.5,253.6 840.5,248.1 836.1,245.4 831.7,248.1 					"/>
					<path fill="#1B1C1C" d="M841.5,253.6l4.4,2.7l1.4-0.9c-0.6-3.2-1.7-6.2-3.3-8.9l-2.5,1.6V253.6z"/>
					<polygon fill="#1B1C1C" points="817,257.3 817,262.7 821.4,265.5 825.8,262.7 825.8,257.3 821.4,254.5 					"/>
					<polygon fill="#1B1C1C" points="826.8,257.3 826.8,262.7 831.2,265.5 835.6,262.7 835.6,257.3 831.2,254.5 					"/>
					<polygon fill="#1B1C1C" points="836.6,262.7 841,265.5 845.4,262.7 845.4,257.3 841,254.5 836.6,257.3 					"/>
					<path fill="#1B1C1C" d="M846.4,262.7l1.1,0.7c0.1-1.1,0.2-2.3,0.2-3.4s-0.1-2.3-0.2-3.4l-1.1,0.7V262.7z"/>
				</g>
			</g>
			<path fill-rule="evenodd" clip-rule="evenodd" fill="#343537" d="M778.7,226.4c-17.2,0-31.2,15-31.2,33.6s14,33.6,31.2,33.6
				s31.2-15,31.2-33.6S795.9,226.4,778.7,226.4z M778.7,287.9c-14.3,0-25.9-12.5-25.9-27.9s11.6-27.9,25.9-27.9
				c14.3,0,25.9,12.5,25.9,27.9S793,287.9,778.7,287.9z"/>
		</g>
		<g>
			<rect x="609.7" y="300.5" fill-rule="evenodd" clip-rule="evenodd" fill="#343537" width="283.6" height="67.1"/>
			<linearGradient id="SVGID_53_" gradientUnits="userSpaceOnUse" x1="609.7008" y1="334.0502" x2="872.395" y2="334.0502">
				<stop  offset="0.3828" style="stop-color:#343537"/>
				<stop  offset="0.6544" style="stop-color:#343537"/>
				<stop  offset="0.7848" style="stop-color:#2E2E30"/>
				<stop  offset="0.9302" style="stop-color:#212121"/>
				<stop  offset="0.9713" style="stop-color:#4B4C4F"/>
				<stop  offset="0.9841" style="stop-color:#444548"/>
				<stop  offset="1" style="stop-color:#343537"/>
			</linearGradient>
			<rect x="609.7" y="300.5" fill-rule="evenodd" clip-rule="evenodd" fill="url(#SVGID_53_)" width="262.7" height="67.1"/>
			<rect x="620.1" y="309.1" fill-rule="evenodd" clip-rule="evenodd" fill="#1B1C1C" width="7" height="49.9"/>
			<rect x="631.3" y="309.1" fill-rule="evenodd" clip-rule="evenodd" fill="#1B1C1C" width="7" height="49.9"/>
			<rect x="642.4" y="309.1" fill-rule="evenodd" clip-rule="evenodd" fill="#1B1C1C" width="7" height="49.9"/>
			<rect x="653.6" y="309.1" fill-rule="evenodd" clip-rule="evenodd" fill="#1B1C1C" width="7" height="49.9"/>
			<path fill-rule="evenodd" clip-rule="evenodd" fill="#1B1C1C" d="M730.5,358.9h-29.4c-13.8,0-24.9-11.2-24.9-24.9v0
				c0-13.8,11.2-24.9,24.9-24.9h29.4c2.8,0,5.1,2.3,5.1,5.1v39.5C735.6,356.6,733.3,358.9,730.5,358.9z"/>
			<linearGradient id="SVGID_55_" gradientUnits="userSpaceOnUse" x1="718.7026" y1="334.0502" x2="725.6789" y2="334.0502">
				<stop  offset="0" style="stop-color:#680D4A"/>
				<stop  offset="6.350595e-02" style="stop-color:#6D1450"/>
				<stop  offset="0.1592" style="stop-color:#7A2960"/>
				<stop  offset="0.2751" style="stop-color:#904B79"/>
				<stop  offset="0.4059" style="stop-color:#AF7A9D"/>
				<stop  offset="0.4225" style="stop-color:#B380A2"/>
				<stop  offset="0.62" style="stop-color:#AD7F9C"/>
				<stop  offset="0.6316" style="stop-color:#A97997"/>
				<stop  offset="0.6973" style="stop-color:#965981"/>
				<stop  offset="0.7656" style="stop-color:#88406F"/>
				<stop  offset="0.8367" style="stop-color:#7D2E63"/>
				<stop  offset="0.9123" style="stop-color:#77235B"/>
				<stop  offset="1" style="stop-color:#752059"/>
			</linearGradient>
			<rect x="718.7" y="317.1" fill-rule="evenodd" clip-rule="evenodd" fill="url(#SVGID_55_)" width="7" height="34"/>
			<g>
				<path fill-rule="evenodd" clip-rule="evenodd" fill="#BA6D38" d="M822.8,359h-47.6c-13.8,0-24.9-11.2-24.9-24.9v0
					c0-13.8,11.2-24.9,24.9-24.9h47.6c13.8,0,24.9,11.2,24.9,24.9v0C847.8,347.8,836.6,359,822.8,359z"/>
				<g>
					<path fill="none" d="M836.4,355.2v-5.5l4.4-2.7l2.6,1.6c0.2-0.3,0.4-0.6,0.6-0.9l-2.7-1.7v-5.5l4.4-2.7l1.6,1
						c0.1-0.4,0.1-0.9,0.2-1.3l-1.1-0.7v-5.5l1.1-0.7c-0.1-0.4-0.1-0.8-0.2-1.2l-1.4,0.9l-4.4-2.7v-5.5l2.5-1.6
						c-0.2-0.3-0.4-0.6-0.6-0.9l-2.4,1.5l-4.4-2.7v-5.5l0.1-0.1c-2.1-1.4-4.5-2.5-7-3.1l-3.5,2.2l-4.4-2.7v-0.1h-1.3v0.1l-4.4,2.7
						l-4.4-2.7v-0.1h-1v0.1l-4.4,2.7l-4.4-2.7v-0.1h-1v0.1l-4.4,2.7l-4.4-2.7v-0.1h-1v0.1l-4.4,2.7l-4.4-2.7v-0.1h-1v0.1l-4.4,2.7
						l-4.4-2.7v-0.1c-0.3,0-0.7,0-1,0.1l-4.4,2.7l-1.9-1.2c-0.4,0.2-0.8,0.4-1.2,0.5l2.6,1.6v5.5l-4.4,2.7l-4.4-2.7v-2.7
						c-0.3,0.3-0.7,0.7-1,1.1v1.6l-2.3,1.5c-0.4,0.7-0.8,1.3-1.2,2l4-2.5l4.4,2.7v5.5l-4.4,2.7l-4.4-2.7v-4.9
						c-0.4,0.8-0.7,1.6-1,2.4v2.5l-0.9,0.6c-0.1,0.5-0.2,1-0.3,1.5l1.7-1l4.4,2.7v5.5l-4.4,2.7l-1.7-1c0.1,0.6,0.2,1.1,0.3,1.7
						l0.6,0.4v1.8c0.3,0.9,0.6,1.8,1,2.6v-4.4l4.4-2.7l4.4,2.7v5.5l-4.4,2.7l-3.7-2.3c0.4,0.7,0.8,1.4,1.2,2.1l1.9,1.2v1.3
						c0.3,0.4,0.7,0.7,1,1.1v-2.4l4.4-2.7l4.4,2.7v5.5l-2.5,1.6c0.4,0.2,0.8,0.4,1.2,0.5l1.8-1.1l4.4,2.7c0.4,0,0.7,0.1,1.1,0.1
						v-0.1l4.4-2.7l4.4,2.7v0.1h1v-0.1l4.4-2.7l4.4,2.7v0.1h1v-0.1l4.4-2.7l4.4,2.7v0.1h1v-0.1l4.4-2.7l4.4,2.7v0.1h1v-0.1l4.4-2.7
						l4.4,2.7v0.1h1.3v-0.1l4.4-2.7l3.6,2.2c2.5-0.6,4.9-1.6,7-3L836.4,355.2z M845.4,331.3v5.5l-4.4,2.7l-4.4-2.7v-5.5l4.4-2.7
						L845.4,331.3z M840.5,322.1v5.5l-4.4,2.7l-4.4-2.7v-5.5l4.4-2.7L840.5,322.1z M835.6,331.3v5.5l-4.4,2.7l-4.4-2.7v-5.5l4.4-2.7
						L835.6,331.3z M826.8,312.9l4.4-2.7l4.4,2.7v5.5l-4.4,2.7l-4.4-2.7V312.9z M830.7,322.1v5.5l-4.4,2.7l-4.4-2.7v-5.5l4.4-2.7
						L830.7,322.1z M825.8,331.3v5.5l-4.4,2.7l-4.4-2.7v-5.5l4.4-2.7L825.8,331.3z M817,312.9l4.4-2.7l4.4,2.7v5.5l-4.4,2.7
						l-4.4-2.7V312.9z M820.6,322.1v5.5l-4.4,2.7l-4.4-2.7v-5.5l4.4-2.7L820.6,322.1z M815.7,331.3v5.5l-4.4,2.7l-4.4-2.7v-5.5
						l4.4-2.7L815.7,331.3z M806.9,312.9l4.4-2.7l4.4,2.7v5.5l-4.4,2.7l-4.4-2.7V312.9z M810.8,322.1v5.5l-4.4,2.7l-4.4-2.7v-5.5
						l4.4-2.7L810.8,322.1z M805.9,331.3v5.5l-4.4,2.7l-4.4-2.7v-5.5l4.4-2.7L805.9,331.3z M797.1,312.9l4.4-2.7l4.4,2.7v5.5
						l-4.4,2.7l-4.4-2.7V312.9z M801,322.1v5.5l-4.4,2.7l-4.4-2.7v-5.5l4.4-2.7L801,322.1z M796.1,331.3v5.5l-4.4,2.7l-4.4-2.7v-5.5
						l4.4-2.7L796.1,331.3z M787.3,312.9l4.4-2.7l4.4,2.7v5.5l-4.4,2.7l-4.4-2.7V312.9z M791.2,322.1v5.5l-4.4,2.7l-4.4-2.7v-5.5
						l4.4-2.7L791.2,322.1z M786.2,331.3v5.5l-4.4,2.7l-4.4-2.7v-5.5l4.4-2.7L786.2,331.3z M777.4,312.9l4.4-2.7l4.4,2.7v5.5
						l-4.4,2.7l-4.4-2.7V312.9z M781.3,322.1v5.5l-4.4,2.7l-4.4-2.7v-5.5l4.4-2.7L781.3,322.1z M776.4,331.3v5.5l-4.4,2.7l-4.4-2.7
						v-5.5l4.4-2.7L776.4,331.3z M767.6,312.9l4.4-2.7l4.4,2.7v5.5l-4.4,2.7l-4.4-2.7V312.9z M762.7,322.1l4.4-2.7l4.4,2.7v5.5
						l-4.4,2.7l-4.4-2.7V322.1z M757.8,336.8v-5.5l4.4-2.7l4.4,2.7v5.5l-4.4,2.7L757.8,336.8z M762.4,346v-5.5l4.4-2.7l4.4,2.7v5.5
						l-4.4,2.7L762.4,346z M776.2,355.2l-4.4,2.7l-4.4-2.7v-5.5l4.4-2.7l4.4,2.7V355.2z M772.3,346v-5.5l4.4-2.7l4.4,2.7v5.5
						l-4.4,2.7L772.3,346z M786,355.2l-4.4,2.7l-4.4-2.7v-5.5l4.4-2.7l4.4,2.7V355.2z M782.1,346v-5.5l4.4-2.7l4.4,2.7v5.5l-4.4,2.7
						L782.1,346z M795.8,355.2l-4.4,2.7l-4.4-2.7v-5.5l4.4-2.7l4.4,2.7V355.2z M791.9,346v-5.5l4.4-2.7l4.4,2.7v5.5l-4.4,2.7
						L791.9,346z M805.6,355.2l-4.4,2.7l-4.4-2.7v-5.5l4.4-2.7l4.4,2.7V355.2z M801.7,346v-5.5l4.4-2.7l4.4,2.7v5.5l-4.4,2.7
						L801.7,346z M815.5,355.2l-4.4,2.7l-4.4-2.7v-5.5l4.4-2.7l4.4,2.7V355.2z M811.6,346v-5.5l4.4-2.7l4.4,2.7v5.5l-4.4,2.7
						L811.6,346z M825.5,355.2l-4.4,2.7l-4.4-2.7v-5.5l4.4-2.7l4.4,2.7V355.2z M821.6,346v-5.5l4.4-2.7l4.4,2.7v5.5l-4.4,2.7
						L821.6,346z M835.4,355.2l-4.4,2.7l-4.4-2.7v-5.5l4.4-2.7l4.4,2.7V355.2z M831.5,346v-5.5l4.4-2.7l4.4,2.7v5.5l-4.4,2.7
						L831.5,346z"/>
					<path fill="#1B1C1C" d="M751,340.1c0.2,0.7,0.4,1.5,0.6,2.2v-1.8L751,340.1z"/>
					<path fill="#1B1C1C" d="M761.4,346v-5.5l-4.4-2.7l-4.4,2.7v4.4c0.2,0.5,0.5,1,0.7,1.5l3.7,2.3L761.4,346z"/>
					<polygon fill="#1B1C1C" points="771.3,340.5 766.9,337.8 762.4,340.5 762.4,346 766.9,348.7 771.3,346 					"/>
					<polygon fill="#1B1C1C" points="781.1,340.5 776.7,337.8 772.3,340.5 772.3,346 776.7,348.7 781.1,346 					"/>
					<polygon fill="#1B1C1C" points="790.9,340.5 786.5,337.8 782.1,340.5 782.1,346 786.5,348.7 790.9,346 					"/>
					<polygon fill="#1B1C1C" points="800.7,340.5 796.3,337.8 791.9,340.5 791.9,346 796.3,348.7 800.7,346 					"/>
					<polygon fill="#1B1C1C" points="810.6,340.5 806.1,337.8 801.7,340.5 801.7,346 806.1,348.7 810.6,346 					"/>
					<polygon fill="#1B1C1C" points="820.4,340.5 816,337.8 811.6,340.5 811.6,346 816,348.7 820.4,346 					"/>
					<path fill="#1B1C1C" d="M754.6,348.5c0.6,0.9,1.2,1.7,1.9,2.5v-1.3L754.6,348.5z"/>
					<path fill="#1B1C1C" d="M766.3,349.7l-4.4-2.7l-4.4,2.7v2.4c1.8,1.9,4,3.4,6.3,4.6l2.5-1.6V349.7z"/>
					<polygon fill="#1B1C1C" points="767.4,349.7 767.4,355.2 771.8,357.9 776.2,355.2 776.2,349.7 771.8,346.9 					"/>
					<polygon fill="#1B1C1C" points="777.2,349.7 777.2,355.2 781.6,357.9 786,355.2 786,349.7 781.6,346.9 					"/>
					<polygon fill="#1B1C1C" points="787,349.7 787,355.2 791.4,357.9 795.8,355.2 795.8,349.7 791.4,346.9 					"/>
					<polygon fill="#1B1C1C" points="796.8,349.7 796.8,355.2 801.2,357.9 805.6,355.2 805.6,349.7 801.2,346.9 					"/>
					<polygon fill="#1B1C1C" points="806.7,349.7 806.7,355.2 811.1,357.9 815.5,355.2 815.5,349.7 811.1,346.9 					"/>
					<path fill="#1B1C1C" d="M765,357.3c1.9,0.8,4,1.4,6.2,1.6l-4.4-2.7L765,357.3z"/>
					<path fill="#1B1C1C" d="M776.7,356.1l-4.4,2.7v0.1c0.4,0,0.8,0,1.2,0h7.6v-0.1L776.7,356.1z"/>
					<polygon fill="#1B1C1C" points="786.5,356.1 782.1,358.9 782.1,359 790.9,359 790.9,358.9 					"/>
					<polygon fill="#1B1C1C" points="796.3,356.1 791.9,358.9 791.9,359 800.7,359 800.7,358.9 					"/>
					<polygon fill="#1B1C1C" points="806.1,356.1 801.7,358.9 801.7,359 810.6,359 810.6,358.9 					"/>
					<polygon fill="#1B1C1C" points="816,356.1 811.6,358.9 811.6,359 820.4,359 820.4,358.9 					"/>
					<path fill="#1B1C1C" d="M771.5,309.2c-2.2,0.2-4.3,0.7-6.3,1.5l1.9,1.2L771.5,309.2z"/>
					<path fill="#1B1C1C" d="M776.9,312l4.4-2.7v-0.1h-7.9c-0.3,0-0.6,0-1,0v0.1L776.9,312z"/>
					<polygon fill="#1B1C1C" points="786.7,312 791.2,309.2 791.2,309.1 782.3,309.1 782.3,309.2 					"/>
					<polygon fill="#1B1C1C" points="796.6,312 801,309.2 801,309.1 792.2,309.1 792.2,309.2 					"/>
					<polygon fill="#1B1C1C" points="806.4,312 810.8,309.2 810.8,309.1 802,309.1 802,309.2 					"/>
					<polygon fill="#1B1C1C" points="816.2,312 820.6,309.2 820.6,309.1 811.8,309.1 811.8,309.2 					"/>
					<path fill="#1B1C1C" d="M756.8,316.8c-0.9,1-1.6,2-2.3,3.1l2.3-1.5V316.8z"/>
					<path fill="#1B1C1C" d="M762.2,321.2l4.4-2.7v-5.5l-2.6-1.6c-2.3,1.1-4.4,2.6-6.2,4.4v2.7L762.2,321.2z"/>
					<polygon fill="#1B1C1C" points="776.4,318.4 776.4,312.9 772,310.2 767.6,312.9 767.6,318.4 772,321.2 					"/>
					<polygon fill="#1B1C1C" points="786.2,318.4 786.2,312.9 781.8,310.2 777.4,312.9 777.4,318.4 781.8,321.2 					"/>
					<polygon fill="#1B1C1C" points="796.1,318.4 796.1,312.9 791.7,310.2 787.3,312.9 787.3,318.4 791.7,321.2 					"/>
					<polygon fill="#1B1C1C" points="805.9,318.4 805.9,312.9 801.5,310.2 797.1,312.9 797.1,318.4 801.5,321.2 					"/>
					<polygon fill="#1B1C1C" points="815.7,318.4 815.7,312.9 811.3,310.2 806.9,312.9 806.9,318.4 811.3,321.2 					"/>
					<path fill="#1B1C1C" d="M751.9,325.1c-0.4,1-0.7,2-0.9,3.1l0.9-0.6V325.1z"/>
					<path fill="#1B1C1C" d="M757.3,330.3l4.4-2.7v-5.5l-4.4-2.7l-4,2.5c-0.1,0.3-0.3,0.5-0.4,0.8v4.9L757.3,330.3z"/>
					<polygon fill="#1B1C1C" points="771.5,327.6 771.5,322.1 767.1,319.4 762.7,322.1 762.7,327.6 767.1,330.3 					"/>
					<polygon fill="#1B1C1C" points="772.5,327.6 776.9,330.3 781.3,327.6 781.3,322.1 776.9,319.4 772.5,322.1 					"/>
					<polygon fill="#1B1C1C" points="782.3,327.6 786.7,330.3 791.2,327.6 791.2,322.1 786.7,319.4 782.3,322.1 					"/>
					<polygon fill="#1B1C1C" points="792.2,327.6 796.6,330.3 801,327.6 801,322.1 796.6,319.4 792.2,322.1 					"/>
					<polygon fill="#1B1C1C" points="802,327.6 806.4,330.3 810.8,327.6 810.8,322.1 806.4,319.4 802,322.1 					"/>
					<polygon fill="#1B1C1C" points="811.8,327.6 816.2,330.3 820.6,327.6 820.6,322.1 816.2,319.4 811.8,322.1 					"/>
					<path fill="#1B1C1C" d="M756.8,336.8v-5.5l-4.4-2.7l-1.7,1c-0.2,1.4-0.4,2.9-0.4,4.4c0,1.5,0.1,3,0.4,4.4l1.7,1L756.8,336.8z"
						/>
					<polygon fill="#1B1C1C" points="766.6,331.3 762.2,328.6 757.8,331.3 757.8,336.8 762.2,339.5 766.6,336.8 					"/>
					<polygon fill="#1B1C1C" points="767.6,331.3 767.6,336.8 772,339.5 776.4,336.8 776.4,331.3 772,328.6 					"/>
					<polygon fill="#1B1C1C" points="777.4,331.3 777.4,336.8 781.8,339.5 786.2,336.8 786.2,331.3 781.8,328.6 					"/>
					<polygon fill="#1B1C1C" points="787.3,331.3 787.3,336.8 791.7,339.5 796.1,336.8 796.1,331.3 791.7,328.6 					"/>
					<polygon fill="#1B1C1C" points="797.1,331.3 797.1,336.8 801.5,339.5 805.9,336.8 805.9,331.3 801.5,328.6 					"/>
					<polygon fill="#1B1C1C" points="806.9,331.3 806.9,336.8 811.3,339.5 815.7,336.8 815.7,331.3 811.3,328.6 					"/>
					<polygon fill="#1B1C1C" points="830.4,340.5 826,337.8 821.6,340.5 821.6,346 826,348.7 830.4,346 					"/>
					<polygon fill="#1B1C1C" points="840.3,340.5 835.9,337.8 831.5,340.5 831.5,346 835.9,348.7 840.3,346 					"/>
					<path fill="#1B1C1C" d="M841.3,340.5v5.5l2.7,1.7c1.6-2.6,2.8-5.6,3.3-8.9l-1.6-1L841.3,340.5z"/>
					<polygon fill="#1B1C1C" points="816.7,349.7 816.7,355.2 821.1,357.9 825.5,355.2 825.5,349.7 821.1,346.9 					"/>
					<polygon fill="#1B1C1C" points="826.6,349.7 826.6,355.2 831,357.9 835.4,355.2 835.4,349.7 831,346.9 					"/>
					<path fill="#1B1C1C" d="M836.4,349.7v5.5l0.3,0.2c2.7-1.7,4.9-4,6.8-6.7l-2.6-1.6L836.4,349.7z"/>
					<path fill="#1B1C1C" d="M821.6,358.9L821.6,358.9l2.9,0.1c1.7,0,3.4-0.2,5-0.6l-3.6-2.2L821.6,358.9z"/>
					<path fill="#1B1C1C" d="M826.3,312l3.5-2.2c-1.7-0.4-3.4-0.6-5.2-0.6h-2.7v0.1L826.3,312z"/>
					<polygon fill="#1B1C1C" points="825.8,318.4 825.8,312.9 821.4,310.2 817,312.9 817,318.4 821.4,321.2 					"/>
					<polygon fill="#1B1C1C" points="835.6,318.4 835.6,312.9 831.2,310.2 826.8,312.9 826.8,318.4 831.2,321.2 					"/>
					<path fill="#1B1C1C" d="M836.6,318.4l4.4,2.7l2.4-1.5c-1.8-2.7-4.1-5-6.7-6.8l-0.1,0.1V318.4z"/>
					<polygon fill="#1B1C1C" points="821.9,327.6 826.3,330.3 830.7,327.6 830.7,322.1 826.3,319.4 821.9,322.1 					"/>
					<polygon fill="#1B1C1C" points="831.7,327.6 836.1,330.3 840.5,327.6 840.5,322.1 836.1,319.4 831.7,322.1 					"/>
					<path fill="#1B1C1C" d="M841.5,327.6l4.4,2.7l1.4-0.9c-0.6-3.2-1.7-6.2-3.3-8.9l-2.5,1.6V327.6z"/>
					<polygon fill="#1B1C1C" points="817,331.3 817,336.8 821.4,339.5 825.8,336.8 825.8,331.3 821.4,328.6 					"/>
					<polygon fill="#1B1C1C" points="826.8,331.3 826.8,336.8 831.2,339.5 835.6,336.8 835.6,331.3 831.2,328.6 					"/>
					<polygon fill="#1B1C1C" points="836.6,336.8 841,339.5 845.4,336.8 845.4,331.3 841,328.6 836.6,331.3 					"/>
					<path fill="#1B1C1C" d="M846.4,336.8l1.1,0.7c0.1-1.1,0.2-2.3,0.2-3.4s-0.1-2.3-0.2-3.4l-1.1,0.7V336.8z"/>
				</g>
			</g>
			<path fill-rule="evenodd" clip-rule="evenodd" fill="#343537" d="M778.7,300.5c-17.2,0-31.2,15-31.2,33.6s14,33.6,31.2,33.6
				s31.2-15,31.2-33.6S795.9,300.5,778.7,300.5z M778.7,361.9c-14.3,0-25.9-12.5-25.9-27.9s11.6-27.9,25.9-27.9
				c14.3,0,25.9,12.5,25.9,27.9S793,361.9,778.7,361.9z"/>
		</g>
		<g>
			<rect x="905" y="226.4" fill-rule="evenodd" clip-rule="evenodd" fill="#343537" width="283.6" height="67.1"/>
			<linearGradient id="SVGID_57_" gradientUnits="userSpaceOnUse" x1="904.9897" y1="260.0119" x2="1167.684" y2="260.0119">
				<stop  offset="0.3828" style="stop-color:#343537"/>
				<stop  offset="0.6544" style="stop-color:#343537"/>
				<stop  offset="0.7848" style="stop-color:#2E2E30"/>
				<stop  offset="0.9302" style="stop-color:#212121"/>
				<stop  offset="0.9713" style="stop-color:#4B4C4F"/>
				<stop  offset="0.9841" style="stop-color:#444548"/>
				<stop  offset="1" style="stop-color:#343537"/>
			</linearGradient>
			<rect x="905" y="226.4" fill-rule="evenodd" clip-rule="evenodd" fill="url(#SVGID_57_)" width="262.7" height="67.1"/>
			<rect x="915.4" y="235" fill-rule="evenodd" clip-rule="evenodd" fill="#1B1C1C" width="7" height="49.9"/>
			<rect x="926.6" y="235" fill-rule="evenodd" clip-rule="evenodd" fill="#1B1C1C" width="7" height="49.9"/>
			<rect x="937.7" y="235" fill-rule="evenodd" clip-rule="evenodd" fill="#1B1C1C" width="7" height="49.9"/>
			<rect x="948.9" y="235" fill-rule="evenodd" clip-rule="evenodd" fill="#1B1C1C" width="7" height="49.9"/>
			<path fill-rule="evenodd" clip-rule="evenodd" fill="#1B1C1C" d="M1025.8,284.9h-29.4c-13.8,0-24.9-11.2-24.9-24.9v0
				c0-13.8,11.2-24.9,24.9-24.9h29.4c2.8,0,5.1,2.3,5.1,5.1v39.5C1030.9,282.6,1028.6,284.9,1025.8,284.9z"/>
			<linearGradient id="SVGID_60_" gradientUnits="userSpaceOnUse" x1="1013.9915" y1="260.0119" x2="1020.9678" y2="260.0119">
				<stop  offset="0" style="stop-color:#680D4A"/>
				<stop  offset="6.350595e-02" style="stop-color:#6D1450"/>
				<stop  offset="0.1592" style="stop-color:#7A2960"/>
				<stop  offset="0.2751" style="stop-color:#904B79"/>
				<stop  offset="0.4059" style="stop-color:#AF7A9D"/>
				<stop  offset="0.4225" style="stop-color:#B380A2"/>
				<stop  offset="0.62" style="stop-color:#AD7F9C"/>
				<stop  offset="0.6316" style="stop-color:#A97997"/>
				<stop  offset="0.6973" style="stop-color:#965981"/>
				<stop  offset="0.7656" style="stop-color:#88406F"/>
				<stop  offset="0.8367" style="stop-color:#7D2E63"/>
				<stop  offset="0.9123" style="stop-color:#77235B"/>
				<stop  offset="1" style="stop-color:#752059"/>
			</linearGradient>
			<rect x="1014" y="243" fill-rule="evenodd" clip-rule="evenodd" fill="url(#SVGID_60_)" width="7" height="34"/>
			<g>
				<path fill-rule="evenodd" clip-rule="evenodd" fill="#BA6D38" d="M1118.1,284.9h-47.6c-13.8,0-24.9-11.2-24.9-24.9v0
					c0-13.8,11.2-24.9,24.9-24.9h47.6c13.8,0,24.9,11.2,24.9,24.9v0C1143,273.8,1131.9,284.9,1118.1,284.9z"/>
				<g>
					<path fill="none" d="M1131.7,281.1v-5.5l4.4-2.7l2.6,1.6c0.2-0.3,0.4-0.6,0.6-0.9l-2.7-1.7v-5.5l4.4-2.7l1.6,1
						c0.1-0.4,0.1-0.9,0.2-1.3l-1.1-0.7v-5.5l1.1-0.7c-0.1-0.4-0.1-0.8-0.2-1.2l-1.4,0.9l-4.4-2.7v-5.5l2.5-1.6
						c-0.2-0.3-0.4-0.6-0.6-0.9l-2.4,1.5l-4.4-2.7v-5.5l0.1-0.1c-2.1-1.4-4.5-2.5-7-3.1l-3.5,2.2l-4.4-2.7v-0.1h-1.3v0.1l-4.4,2.7
						l-4.4-2.7v-0.1h-1v0.1l-4.4,2.7l-4.4-2.7v-0.1h-1v0.1l-4.4,2.7l-4.4-2.7v-0.1h-1v0.1l-4.4,2.7l-4.4-2.7v-0.1h-1v0.1l-4.4,2.7
						l-4.4-2.7v-0.1c-0.3,0-0.7,0-1,0.1l-4.4,2.7l-1.9-1.2c-0.4,0.2-0.8,0.4-1.2,0.5l2.6,1.6v5.5l-4.4,2.7l-4.4-2.7v-2.7
						c-0.3,0.3-0.7,0.7-1,1.1v1.6l-2.3,1.5c-0.4,0.7-0.8,1.3-1.2,2l4-2.5l4.4,2.7v5.5l-4.4,2.7l-4.4-2.7v-4.9
						c-0.4,0.8-0.7,1.6-1,2.4v2.5l-0.9,0.6c-0.1,0.5-0.2,1-0.3,1.5l1.7-1l4.4,2.7v5.5l-4.4,2.7l-1.7-1c0.1,0.6,0.2,1.1,0.3,1.7
						l0.6,0.4v1.8c0.3,0.9,0.6,1.8,1,2.6v-4.4l4.4-2.7l4.4,2.7v5.5l-4.4,2.7l-3.7-2.3c0.4,0.7,0.8,1.4,1.2,2.1l1.9,1.2v1.3
						c0.3,0.4,0.7,0.7,1,1.1v-2.4l4.4-2.7l4.4,2.7v5.5l-2.5,1.6c0.4,0.2,0.8,0.4,1.2,0.5l1.8-1.1l4.4,2.7c0.4,0,0.7,0.1,1.1,0.1
						v-0.1l4.4-2.7l4.4,2.7v0.1h1v-0.1l4.4-2.7l4.4,2.7v0.1h1v-0.1l4.4-2.7l4.4,2.7v0.1h1v-0.1l4.4-2.7l4.4,2.7v0.1h1v-0.1l4.4-2.7
						l4.4,2.7v0.1h1.3v-0.1l4.4-2.7l3.6,2.2c2.5-0.6,4.9-1.6,7-3L1131.7,281.1z M1140.7,257.3v5.5l-4.4,2.7l-4.4-2.7v-5.5l4.4-2.7
						L1140.7,257.3z M1135.8,248.1v5.5l-4.4,2.7l-4.4-2.7v-5.5l4.4-2.7L1135.8,248.1z M1130.9,257.3v5.5l-4.4,2.7l-4.4-2.7v-5.5
						l4.4-2.7L1130.9,257.3z M1122.1,238.9l4.4-2.7l4.4,2.7v5.5l-4.4,2.7l-4.4-2.7V238.9z M1126,248.1v5.5l-4.4,2.7l-4.4-2.7v-5.5
						l4.4-2.7L1126,248.1z M1121.1,257.3v5.5l-4.4,2.7l-4.4-2.7v-5.5l4.4-2.7L1121.1,257.3z M1112.3,238.9l4.4-2.7l4.4,2.7v5.5
						l-4.4,2.7l-4.4-2.7V238.9z M1115.9,248.1v5.5l-4.4,2.7l-4.4-2.7v-5.5l4.4-2.7L1115.9,248.1z M1111,257.3v5.5l-4.4,2.7l-4.4-2.7
						v-5.5l4.4-2.7L1111,257.3z M1102.2,238.9l4.4-2.7l4.4,2.7v5.5l-4.4,2.7l-4.4-2.7V238.9z M1106.1,248.1v5.5l-4.4,2.7l-4.4-2.7
						v-5.5l4.4-2.7L1106.1,248.1z M1101.2,257.3v5.5l-4.4,2.7l-4.4-2.7v-5.5l4.4-2.7L1101.2,257.3z M1092.4,238.9l4.4-2.7l4.4,2.7
						v5.5l-4.4,2.7l-4.4-2.7V238.9z M1096.3,248.1v5.5l-4.4,2.7l-4.4-2.7v-5.5l4.4-2.7L1096.3,248.1z M1091.4,257.3v5.5l-4.4,2.7
						l-4.4-2.7v-5.5l4.4-2.7L1091.4,257.3z M1082.5,238.9l4.4-2.7l4.4,2.7v5.5l-4.4,2.7l-4.4-2.7V238.9z M1086.4,248.1v5.5l-4.4,2.7
						l-4.4-2.7v-5.5l4.4-2.7L1086.4,248.1z M1081.5,257.3v5.5l-4.4,2.7l-4.4-2.7v-5.5l4.4-2.7L1081.5,257.3z M1072.7,238.9l4.4-2.7
						l4.4,2.7v5.5l-4.4,2.7l-4.4-2.7V238.9z M1076.6,248.1v5.5l-4.4,2.7l-4.4-2.7v-5.5l4.4-2.7L1076.6,248.1z M1071.7,257.3v5.5
						l-4.4,2.7l-4.4-2.7v-5.5l4.4-2.7L1071.7,257.3z M1062.9,238.9l4.4-2.7l4.4,2.7v5.5l-4.4,2.7l-4.4-2.7V238.9z M1058,248.1
						l4.4-2.7l4.4,2.7v5.5l-4.4,2.7l-4.4-2.7V248.1z M1053.1,262.7v-5.5l4.4-2.7l4.4,2.7v5.5l-4.4,2.7L1053.1,262.7z M1057.7,271.9
						v-5.5l4.4-2.7l4.4,2.7v5.5l-4.4,2.7L1057.7,271.9z M1071.5,281.1l-4.4,2.7l-4.4-2.7v-5.5l4.4-2.7l4.4,2.7V281.1z M1067.6,271.9
						v-5.5l4.4-2.7l4.4,2.7v5.5l-4.4,2.7L1067.6,271.9z M1081.3,281.1l-4.4,2.7l-4.4-2.7v-5.5l4.4-2.7l4.4,2.7V281.1z M1077.4,271.9
						v-5.5l4.4-2.7l4.4,2.7v5.5l-4.4,2.7L1077.4,271.9z M1091.1,281.1l-4.4,2.7l-4.4-2.7v-5.5l4.4-2.7l4.4,2.7V281.1z M1087.2,271.9
						v-5.5l4.4-2.7l4.4,2.7v5.5l-4.4,2.7L1087.2,271.9z M1100.9,281.1l-4.4,2.7l-4.4-2.7v-5.5l4.4-2.7l4.4,2.7V281.1z M1097,271.9
						v-5.5l4.4-2.7l4.4,2.7v5.5l-4.4,2.7L1097,271.9z M1110.8,281.1l-4.4,2.7l-4.4-2.7v-5.5l4.4-2.7l4.4,2.7V281.1z M1106.9,271.9
						v-5.5l4.4-2.7l4.4,2.7v5.5l-4.4,2.7L1106.9,271.9z M1120.8,281.1l-4.4,2.7l-4.4-2.7v-5.5l4.4-2.7l4.4,2.7V281.1z M1116.9,271.9
						v-5.5l4.4-2.7l4.4,2.7v5.5l-4.4,2.7L1116.9,271.9z M1130.7,281.1l-4.4,2.7l-4.4-2.7v-5.5l4.4-2.7l4.4,2.7V281.1z M1126.8,271.9
						v-5.5l4.4-2.7l4.4,2.7v5.5l-4.4,2.7L1126.8,271.9z"/>
					<path fill="#1B1C1C" d="M1046.3,266.1c0.2,0.7,0.4,1.5,0.6,2.2v-1.8L1046.3,266.1z"/>
					<path fill="#1B1C1C" d="M1056.7,271.9v-5.5l-4.4-2.7l-4.4,2.7v4.4c0.2,0.5,0.5,1,0.7,1.5l3.7,2.3L1056.7,271.9z"/>
					<polygon fill="#1B1C1C" points="1066.5,266.5 1062.1,263.7 1057.7,266.5 1057.7,271.9 1062.1,274.7 1066.5,271.9 					"/>
					<polygon fill="#1B1C1C" points="1076.4,266.5 1072,263.7 1067.6,266.5 1067.6,271.9 1072,274.7 1076.4,271.9 					"/>
					<polygon fill="#1B1C1C" points="1086.2,266.5 1081.8,263.7 1077.4,266.5 1077.4,271.9 1081.8,274.7 1086.2,271.9 					"/>
					<polygon fill="#1B1C1C" points="1096,266.5 1091.6,263.7 1087.2,266.5 1087.2,271.9 1091.6,274.7 1096,271.9 					"/>
					<polygon fill="#1B1C1C" points="1105.8,266.5 1101.4,263.7 1097,266.5 1097,271.9 1101.4,274.7 1105.8,271.9 					"/>
					<polygon fill="#1B1C1C" points="1115.7,266.5 1111.3,263.7 1106.9,266.5 1106.9,271.9 1111.3,274.7 1115.7,271.9 					"/>
					<path fill="#1B1C1C" d="M1049.9,274.5c0.6,0.9,1.2,1.7,1.9,2.5v-1.3L1049.9,274.5z"/>
					<path fill="#1B1C1C" d="M1061.6,275.6l-4.4-2.7l-4.4,2.7v2.4c1.8,1.9,4,3.4,6.3,4.6l2.5-1.6V275.6z"/>
					<polygon fill="#1B1C1C" points="1062.6,275.6 1062.6,281.1 1067.1,283.8 1071.5,281.1 1071.5,275.6 1067.1,272.9 					"/>
					<polygon fill="#1B1C1C" points="1072.5,275.6 1072.5,281.1 1076.9,283.8 1081.3,281.1 1081.3,275.6 1076.9,272.9 					"/>
					<polygon fill="#1B1C1C" points="1082.3,275.6 1082.3,281.1 1086.7,283.8 1091.1,281.1 1091.1,275.6 1086.7,272.9 					"/>
					<polygon fill="#1B1C1C" points="1092.1,275.6 1092.1,281.1 1096.5,283.8 1100.9,281.1 1100.9,275.6 1096.5,272.9 					"/>
					<polygon fill="#1B1C1C" points="1101.9,275.6 1101.9,281.1 1106.4,283.8 1110.8,281.1 1110.8,275.6 1106.4,272.9 					"/>
					<path fill="#1B1C1C" d="M1060.3,283.2c1.9,0.8,4,1.4,6.2,1.6l-4.4-2.7L1060.3,283.2z"/>
					<path fill="#1B1C1C" d="M1072,282.1l-4.4,2.7v0.1c0.4,0,0.8,0,1.2,0h7.6v-0.1L1072,282.1z"/>
					<polygon fill="#1B1C1C" points="1081.8,282.1 1077.4,284.8 1077.4,284.9 1086.2,284.9 1086.2,284.8 					"/>
					<polygon fill="#1B1C1C" points="1091.6,282.1 1087.2,284.8 1087.2,284.9 1096,284.9 1096,284.8 					"/>
					<polygon fill="#1B1C1C" points="1101.4,282.1 1097,284.8 1097,284.9 1105.8,284.9 1105.8,284.8 					"/>
					<polygon fill="#1B1C1C" points="1111.3,282.1 1106.9,284.8 1106.9,284.9 1115.7,284.9 1115.7,284.8 					"/>
					<path fill="#1B1C1C" d="M1066.8,235.2c-2.2,0.2-4.3,0.7-6.3,1.5l1.9,1.2L1066.8,235.2z"/>
					<path fill="#1B1C1C" d="M1072.2,237.9l4.4-2.7v-0.1h-7.9c-0.3,0-0.6,0-1,0v0.1L1072.2,237.9z"/>
					<polygon fill="#1B1C1C" points="1082,237.9 1086.4,235.2 1086.4,235.1 1077.6,235.1 1077.6,235.2 					"/>
					<polygon fill="#1B1C1C" points="1091.9,237.9 1096.3,235.2 1096.3,235.1 1087.5,235.1 1087.5,235.2 					"/>
					<polygon fill="#1B1C1C" points="1101.7,237.9 1106.1,235.2 1106.1,235.1 1097.3,235.1 1097.3,235.2 					"/>
					<polygon fill="#1B1C1C" points="1111.5,237.9 1115.9,235.2 1115.9,235.1 1107.1,235.1 1107.1,235.2 					"/>
					<path fill="#1B1C1C" d="M1052.1,242.8c-0.9,1-1.6,2-2.3,3.1l2.3-1.5V242.8z"/>
					<path fill="#1B1C1C" d="M1057.5,247.1l4.4-2.7v-5.5l-2.6-1.6c-2.3,1.1-4.4,2.6-6.2,4.4v2.7L1057.5,247.1z"/>
					<polygon fill="#1B1C1C" points="1071.7,244.4 1071.7,238.9 1067.3,236.2 1062.9,238.9 1062.9,244.4 1067.3,247.1 					"/>
					<polygon fill="#1B1C1C" points="1081.5,244.4 1081.5,238.9 1077.1,236.2 1072.7,238.9 1072.7,244.4 1077.1,247.1 					"/>
					<polygon fill="#1B1C1C" points="1091.4,244.4 1091.4,238.9 1086.9,236.2 1082.5,238.9 1082.5,244.4 1086.9,247.1 					"/>
					<polygon fill="#1B1C1C" points="1101.2,244.4 1101.2,238.9 1096.8,236.2 1092.4,238.9 1092.4,244.4 1096.8,247.1 					"/>
					<polygon fill="#1B1C1C" points="1111,244.4 1111,238.9 1106.6,236.2 1102.2,238.9 1102.2,244.4 1106.6,247.1 					"/>
					<path fill="#1B1C1C" d="M1047.1,251c-0.4,1-0.7,2-0.9,3.1l0.9-0.6V251z"/>
					<path fill="#1B1C1C" d="M1052.6,256.3l4.4-2.7v-5.5l-4.4-2.7l-4,2.5c-0.1,0.3-0.3,0.5-0.4,0.8v4.9L1052.6,256.3z"/>
					<polygon fill="#1B1C1C" points="1066.8,253.6 1066.8,248.1 1062.4,245.4 1058,248.1 1058,253.6 1062.4,256.3 					"/>
					<polygon fill="#1B1C1C" points="1067.8,253.6 1072.2,256.3 1076.6,253.6 1076.6,248.1 1072.2,245.4 1067.8,248.1 					"/>
					<polygon fill="#1B1C1C" points="1077.6,253.6 1082,256.3 1086.4,253.6 1086.4,248.1 1082,245.4 1077.6,248.1 					"/>
					<polygon fill="#1B1C1C" points="1087.5,253.6 1091.9,256.3 1096.3,253.6 1096.3,248.1 1091.9,245.4 1087.5,248.1 					"/>
					<polygon fill="#1B1C1C" points="1097.3,253.6 1101.7,256.3 1106.1,253.6 1106.1,248.1 1101.7,245.4 1097.3,248.1 					"/>
					<polygon fill="#1B1C1C" points="1107.1,253.6 1111.5,256.3 1115.9,253.6 1115.9,248.1 1111.5,245.4 1107.1,248.1 					"/>
					<path fill="#1B1C1C" d="M1052.1,262.7v-5.5l-4.4-2.7l-1.7,1c-0.2,1.4-0.4,2.9-0.4,4.4c0,1.5,0.1,3,0.4,4.4l1.7,1L1052.1,262.7z
						"/>
					<polygon fill="#1B1C1C" points="1061.9,257.3 1057.5,254.5 1053.1,257.3 1053.1,262.7 1057.5,265.5 1061.9,262.7 					"/>
					<polygon fill="#1B1C1C" points="1062.9,257.3 1062.9,262.7 1067.3,265.5 1071.7,262.7 1071.7,257.3 1067.3,254.5 					"/>
					<polygon fill="#1B1C1C" points="1072.7,257.3 1072.7,262.7 1077.1,265.5 1081.5,262.7 1081.5,257.3 1077.1,254.5 					"/>
					<polygon fill="#1B1C1C" points="1082.5,257.3 1082.5,262.7 1086.9,265.5 1091.4,262.7 1091.4,257.3 1086.9,254.5 					"/>
					<polygon fill="#1B1C1C" points="1092.4,257.3 1092.4,262.7 1096.8,265.5 1101.2,262.7 1101.2,257.3 1096.8,254.5 					"/>
					<polygon fill="#1B1C1C" points="1102.2,257.3 1102.2,262.7 1106.6,265.5 1111,262.7 1111,257.3 1106.6,254.5 					"/>
					<polygon fill="#1B1C1C" points="1125.7,266.5 1121.3,263.7 1116.9,266.5 1116.9,271.9 1121.3,274.7 1125.7,271.9 					"/>
					<polygon fill="#1B1C1C" points="1135.6,266.5 1131.2,263.7 1126.8,266.5 1126.8,271.9 1131.2,274.7 1135.6,271.9 					"/>
					<path fill="#1B1C1C" d="M1136.6,266.5v5.5l2.7,1.7c1.6-2.6,2.8-5.6,3.3-8.9l-1.6-1L1136.6,266.5z"/>
					<polygon fill="#1B1C1C" points="1112,275.6 1112,281.1 1116.4,283.8 1120.8,281.1 1120.8,275.6 1116.4,272.9 					"/>
					<polygon fill="#1B1C1C" points="1121.8,275.6 1121.8,281.1 1126.2,283.8 1130.7,281.1 1130.7,275.6 1126.2,272.9 					"/>
					<path fill="#1B1C1C" d="M1131.7,275.6v5.5l0.3,0.2c2.7-1.7,4.9-4,6.8-6.7l-2.6-1.6L1131.7,275.6z"/>
					<path fill="#1B1C1C" d="M1116.9,284.8L1116.9,284.8l2.9,0.1c1.7,0,3.4-0.2,5-0.6l-3.6-2.2L1116.9,284.8z"/>
					<path fill="#1B1C1C" d="M1121.6,237.9l3.5-2.2c-1.7-0.4-3.4-0.6-5.2-0.6h-2.7v0.1L1121.6,237.9z"/>
					<polygon fill="#1B1C1C" points="1121.1,244.4 1121.1,238.9 1116.7,236.2 1112.3,238.9 1112.3,244.4 1116.7,247.1 					"/>
					<polygon fill="#1B1C1C" points="1130.9,244.4 1130.9,238.9 1126.5,236.2 1122.1,238.9 1122.1,244.4 1126.5,247.1 					"/>
					<path fill="#1B1C1C" d="M1131.9,244.4l4.4,2.7l2.4-1.5c-1.8-2.7-4.1-5-6.7-6.8l-0.1,0.1V244.4z"/>
					<polygon fill="#1B1C1C" points="1117.2,253.6 1121.6,256.3 1126,253.6 1126,248.1 1121.6,245.4 1117.2,248.1 					"/>
					<polygon fill="#1B1C1C" points="1127,253.6 1131.4,256.3 1135.8,253.6 1135.8,248.1 1131.4,245.4 1127,248.1 					"/>
					<path fill="#1B1C1C" d="M1136.8,253.6l4.4,2.7l1.4-0.9c-0.6-3.2-1.7-6.2-3.3-8.9l-2.5,1.6V253.6z"/>
					<polygon fill="#1B1C1C" points="1112.3,257.3 1112.3,262.7 1116.7,265.5 1121.1,262.7 1121.1,257.3 1116.7,254.5 					"/>
					<polygon fill="#1B1C1C" points="1122.1,257.3 1122.1,262.7 1126.5,265.5 1130.9,262.7 1130.9,257.3 1126.5,254.5 					"/>
					<polygon fill="#1B1C1C" points="1131.9,262.7 1136.3,265.5 1140.7,262.7 1140.7,257.3 1136.3,254.5 1131.9,257.3 					"/>
					<path fill="#1B1C1C" d="M1141.7,262.7l1.1,0.7c0.1-1.1,0.2-2.3,0.2-3.4s-0.1-2.3-0.2-3.4l-1.1,0.7V262.7z"/>
				</g>
			</g>
			<path fill-rule="evenodd" clip-rule="evenodd" fill="#343537" d="M1073.9,226.4c-17.2,0-31.2,15-31.2,33.6s14,33.6,31.2,33.6
				s31.2-15,31.2-33.6S1091.2,226.4,1073.9,226.4z M1073.9,287.9c-14.3,0-25.9-12.5-25.9-27.9s11.6-27.9,25.9-27.9
				s25.9,12.5,25.9,27.9S1088.3,287.9,1073.9,287.9z"/>
		</g>
		<g>
			<rect x="905" y="300.5" fill-rule="evenodd" clip-rule="evenodd" fill="#343537" width="283.6" height="67.1"/>
			<linearGradient id="SVGID_62_" gradientUnits="userSpaceOnUse" x1="904.9897" y1="334.0502" x2="1167.684" y2="334.0502">
				<stop  offset="0.3828" style="stop-color:#343537"/>
				<stop  offset="0.6544" style="stop-color:#343537"/>
				<stop  offset="0.7848" style="stop-color:#2E2E30"/>
				<stop  offset="0.9302" style="stop-color:#212121"/>
				<stop  offset="0.9713" style="stop-color:#4B4C4F"/>
				<stop  offset="0.9841" style="stop-color:#444548"/>
				<stop  offset="1" style="stop-color:#343537"/>
			</linearGradient>
			<rect x="905" y="300.5" fill-rule="evenodd" clip-rule="evenodd" fill="url(#SVGID_62_)" width="262.7" height="67.1"/>
			<rect x="915.4" y="309.1" fill-rule="evenodd" clip-rule="evenodd" fill="#1B1C1C" width="7" height="49.9"/>
			<rect x="926.6" y="309.1" fill-rule="evenodd" clip-rule="evenodd" fill="#1B1C1C" width="7" height="49.9"/>
			<rect x="937.7" y="309.1" fill-rule="evenodd" clip-rule="evenodd" fill="#1B1C1C" width="7" height="49.9"/>
			<rect x="948.9" y="309.1" fill-rule="evenodd" clip-rule="evenodd" fill="#1B1C1C" width="7" height="49.9"/>
			<path fill-rule="evenodd" clip-rule="evenodd" fill="#1B1C1C" d="M1025.8,358.9h-29.4c-13.8,0-24.9-11.2-24.9-24.9v0
				c0-13.8,11.2-24.9,24.9-24.9h29.4c2.8,0,5.1,2.3,5.1,5.1v39.5C1030.9,356.6,1028.6,358.9,1025.8,358.9z"/>
			<linearGradient id="SVGID_64_" gradientUnits="userSpaceOnUse" x1="1013.9915" y1="334.0502" x2="1020.9678" y2="334.0502">
				<stop  offset="0" style="stop-color:#680D4A"/>
				<stop  offset="6.350595e-02" style="stop-color:#6D1450"/>
				<stop  offset="0.1592" style="stop-color:#7A2960"/>
				<stop  offset="0.2751" style="stop-color:#904B79"/>
				<stop  offset="0.4059" style="stop-color:#AF7A9D"/>
				<stop  offset="0.4225" style="stop-color:#B380A2"/>
				<stop  offset="0.62" style="stop-color:#AD7F9C"/>
				<stop  offset="0.6316" style="stop-color:#A97997"/>
				<stop  offset="0.6973" style="stop-color:#965981"/>
				<stop  offset="0.7656" style="stop-color:#88406F"/>
				<stop  offset="0.8367" style="stop-color:#7D2E63"/>
				<stop  offset="0.9123" style="stop-color:#77235B"/>
				<stop  offset="1" style="stop-color:#752059"/>
			</linearGradient>
			<rect x="1014" y="317.1" fill-rule="evenodd" clip-rule="evenodd" fill="url(#SVGID_64_)" width="7" height="34"/>
			<g>
				<path fill-rule="evenodd" clip-rule="evenodd" fill="#BA6D38" d="M1118.1,359h-47.6c-13.8,0-24.9-11.2-24.9-24.9v0
					c0-13.8,11.2-24.9,24.9-24.9h47.6c13.8,0,24.9,11.2,24.9,24.9v0C1143,347.8,1131.9,359,1118.1,359z"/>
				<g>
					<path fill="none" d="M1131.7,355.2v-5.5l4.4-2.7l2.6,1.6c0.2-0.3,0.4-0.6,0.6-0.9l-2.7-1.7v-5.5l4.4-2.7l1.6,1
						c0.1-0.4,0.1-0.9,0.2-1.3l-1.1-0.7v-5.5l1.1-0.7c-0.1-0.4-0.1-0.8-0.2-1.2l-1.4,0.9l-4.4-2.7v-5.5l2.5-1.6
						c-0.2-0.3-0.4-0.6-0.6-0.9l-2.4,1.5l-4.4-2.7v-5.5l0.1-0.1c-2.1-1.4-4.5-2.5-7-3.1l-3.5,2.2l-4.4-2.7v-0.1h-1.3v0.1l-4.4,2.7
						l-4.4-2.7v-0.1h-1v0.1l-4.4,2.7l-4.4-2.7v-0.1h-1v0.1l-4.4,2.7l-4.4-2.7v-0.1h-1v0.1l-4.4,2.7l-4.4-2.7v-0.1h-1v0.1l-4.4,2.7
						l-4.4-2.7v-0.1c-0.3,0-0.7,0-1,0.1l-4.4,2.7l-1.9-1.2c-0.4,0.2-0.8,0.4-1.2,0.5l2.6,1.6v5.5l-4.4,2.7l-4.4-2.7v-2.7
						c-0.3,0.3-0.7,0.7-1,1.1v1.6l-2.3,1.5c-0.4,0.7-0.8,1.3-1.2,2l4-2.5l4.4,2.7v5.5l-4.4,2.7l-4.4-2.7v-4.9
						c-0.4,0.8-0.7,1.6-1,2.4v2.5l-0.9,0.6c-0.1,0.5-0.2,1-0.3,1.5l1.7-1l4.4,2.7v5.5l-4.4,2.7l-1.7-1c0.1,0.6,0.2,1.1,0.3,1.7
						l0.6,0.4v1.8c0.3,0.9,0.6,1.8,1,2.6v-4.4l4.4-2.7l4.4,2.7v5.5l-4.4,2.7l-3.7-2.3c0.4,0.7,0.8,1.4,1.2,2.1l1.9,1.2v1.3
						c0.3,0.4,0.7,0.7,1,1.1v-2.4l4.4-2.7l4.4,2.7v5.5l-2.5,1.6c0.4,0.2,0.8,0.4,1.2,0.5l1.8-1.1l4.4,2.7c0.4,0,0.7,0.1,1.1,0.1
						v-0.1l4.4-2.7l4.4,2.7v0.1h1v-0.1l4.4-2.7l4.4,2.7v0.1h1v-0.1l4.4-2.7l4.4,2.7v0.1h1v-0.1l4.4-2.7l4.4,2.7v0.1h1v-0.1l4.4-2.7
						l4.4,2.7v0.1h1.3v-0.1l4.4-2.7l3.6,2.2c2.5-0.6,4.9-1.6,7-3L1131.7,355.2z M1140.7,331.3v5.5l-4.4,2.7l-4.4-2.7v-5.5l4.4-2.7
						L1140.7,331.3z M1135.8,322.1v5.5l-4.4,2.7l-4.4-2.7v-5.5l4.4-2.7L1135.8,322.1z M1130.9,331.3v5.5l-4.4,2.7l-4.4-2.7v-5.5
						l4.4-2.7L1130.9,331.3z M1122.1,312.9l4.4-2.7l4.4,2.7v5.5l-4.4,2.7l-4.4-2.7V312.9z M1126,322.1v5.5l-4.4,2.7l-4.4-2.7v-5.5
						l4.4-2.7L1126,322.1z M1121.1,331.3v5.5l-4.4,2.7l-4.4-2.7v-5.5l4.4-2.7L1121.1,331.3z M1112.3,312.9l4.4-2.7l4.4,2.7v5.5
						l-4.4,2.7l-4.4-2.7V312.9z M1115.9,322.1v5.5l-4.4,2.7l-4.4-2.7v-5.5l4.4-2.7L1115.9,322.1z M1111,331.3v5.5l-4.4,2.7l-4.4-2.7
						v-5.5l4.4-2.7L1111,331.3z M1102.2,312.9l4.4-2.7l4.4,2.7v5.5l-4.4,2.7l-4.4-2.7V312.9z M1106.1,322.1v5.5l-4.4,2.7l-4.4-2.7
						v-5.5l4.4-2.7L1106.1,322.1z M1101.2,331.3v5.5l-4.4,2.7l-4.4-2.7v-5.5l4.4-2.7L1101.2,331.3z M1092.4,312.9l4.4-2.7l4.4,2.7
						v5.5l-4.4,2.7l-4.4-2.7V312.9z M1096.3,322.1v5.5l-4.4,2.7l-4.4-2.7v-5.5l4.4-2.7L1096.3,322.1z M1091.4,331.3v5.5l-4.4,2.7
						l-4.4-2.7v-5.5l4.4-2.7L1091.4,331.3z M1082.5,312.9l4.4-2.7l4.4,2.7v5.5l-4.4,2.7l-4.4-2.7V312.9z M1086.4,322.1v5.5l-4.4,2.7
						l-4.4-2.7v-5.5l4.4-2.7L1086.4,322.1z M1081.5,331.3v5.5l-4.4,2.7l-4.4-2.7v-5.5l4.4-2.7L1081.5,331.3z M1072.7,312.9l4.4-2.7
						l4.4,2.7v5.5l-4.4,2.7l-4.4-2.7V312.9z M1076.6,322.1v5.5l-4.4,2.7l-4.4-2.7v-5.5l4.4-2.7L1076.6,322.1z M1071.7,331.3v5.5
						l-4.4,2.7l-4.4-2.7v-5.5l4.4-2.7L1071.7,331.3z M1062.9,312.9l4.4-2.7l4.4,2.7v5.5l-4.4,2.7l-4.4-2.7V312.9z M1058,322.1
						l4.4-2.7l4.4,2.7v5.5l-4.4,2.7l-4.4-2.7V322.1z M1053.1,336.8v-5.5l4.4-2.7l4.4,2.7v5.5l-4.4,2.7L1053.1,336.8z M1057.7,346
						v-5.5l4.4-2.7l4.4,2.7v5.5l-4.4,2.7L1057.7,346z M1071.5,355.2l-4.4,2.7l-4.4-2.7v-5.5l4.4-2.7l4.4,2.7V355.2z M1067.6,346
						v-5.5l4.4-2.7l4.4,2.7v5.5l-4.4,2.7L1067.6,346z M1081.3,355.2l-4.4,2.7l-4.4-2.7v-5.5l4.4-2.7l4.4,2.7V355.2z M1077.4,346
						v-5.5l4.4-2.7l4.4,2.7v5.5l-4.4,2.7L1077.4,346z M1091.1,355.2l-4.4,2.7l-4.4-2.7v-5.5l4.4-2.7l4.4,2.7V355.2z M1087.2,346
						v-5.5l4.4-2.7l4.4,2.7v5.5l-4.4,2.7L1087.2,346z M1100.9,355.2l-4.4,2.7l-4.4-2.7v-5.5l4.4-2.7l4.4,2.7V355.2z M1097,346v-5.5
						l4.4-2.7l4.4,2.7v5.5l-4.4,2.7L1097,346z M1110.8,355.2l-4.4,2.7l-4.4-2.7v-5.5l4.4-2.7l4.4,2.7V355.2z M1106.9,346v-5.5
						l4.4-2.7l4.4,2.7v5.5l-4.4,2.7L1106.9,346z M1120.8,355.2l-4.4,2.7l-4.4-2.7v-5.5l4.4-2.7l4.4,2.7V355.2z M1116.9,346v-5.5
						l4.4-2.7l4.4,2.7v5.5l-4.4,2.7L1116.9,346z M1130.7,355.2l-4.4,2.7l-4.4-2.7v-5.5l4.4-2.7l4.4,2.7V355.2z M1126.8,346v-5.5
						l4.4-2.7l4.4,2.7v5.5l-4.4,2.7L1126.8,346z"/>
					<path fill="#1B1C1C" d="M1046.3,340.1c0.2,0.7,0.4,1.5,0.6,2.2v-1.8L1046.3,340.1z"/>
					<path fill="#1B1C1C" d="M1056.7,346v-5.5l-4.4-2.7l-4.4,2.7v4.4c0.2,0.5,0.5,1,0.7,1.5l3.7,2.3L1056.7,346z"/>
					<polygon fill="#1B1C1C" points="1066.5,340.5 1062.1,337.8 1057.7,340.5 1057.7,346 1062.1,348.7 1066.5,346 					"/>
					<polygon fill="#1B1C1C" points="1076.4,340.5 1072,337.8 1067.6,340.5 1067.6,346 1072,348.7 1076.4,346 					"/>
					<polygon fill="#1B1C1C" points="1086.2,340.5 1081.8,337.8 1077.4,340.5 1077.4,346 1081.8,348.7 1086.2,346 					"/>
					<polygon fill="#1B1C1C" points="1096,340.5 1091.6,337.8 1087.2,340.5 1087.2,346 1091.6,348.7 1096,346 					"/>
					<polygon fill="#1B1C1C" points="1105.8,340.5 1101.4,337.8 1097,340.5 1097,346 1101.4,348.7 1105.8,346 					"/>
					<polygon fill="#1B1C1C" points="1115.7,340.5 1111.3,337.8 1106.9,340.5 1106.9,346 1111.3,348.7 1115.7,346 					"/>
					<path fill="#1B1C1C" d="M1049.9,348.5c0.6,0.9,1.2,1.7,1.9,2.5v-1.3L1049.9,348.5z"/>
					<path fill="#1B1C1C" d="M1061.6,349.7l-4.4-2.7l-4.4,2.7v2.4c1.8,1.9,4,3.4,6.3,4.6l2.5-1.6V349.7z"/>
					<polygon fill="#1B1C1C" points="1062.6,349.7 1062.6,355.2 1067.1,357.9 1071.5,355.2 1071.5,349.7 1067.1,346.9 					"/>
					<polygon fill="#1B1C1C" points="1072.5,349.7 1072.5,355.2 1076.9,357.9 1081.3,355.2 1081.3,349.7 1076.9,346.9 					"/>
					<polygon fill="#1B1C1C" points="1082.3,349.7 1082.3,355.2 1086.7,357.9 1091.1,355.2 1091.1,349.7 1086.7,346.9 					"/>
					<polygon fill="#1B1C1C" points="1092.1,349.7 1092.1,355.2 1096.5,357.9 1100.9,355.2 1100.9,349.7 1096.5,346.9 					"/>
					<polygon fill="#1B1C1C" points="1101.9,349.7 1101.9,355.2 1106.4,357.9 1110.8,355.2 1110.8,349.7 1106.4,346.9 					"/>
					<path fill="#1B1C1C" d="M1060.3,357.3c1.9,0.8,4,1.4,6.2,1.6l-4.4-2.7L1060.3,357.3z"/>
					<path fill="#1B1C1C" d="M1072,356.1l-4.4,2.7v0.1c0.4,0,0.8,0,1.2,0h7.6v-0.1L1072,356.1z"/>
					<polygon fill="#1B1C1C" points="1081.8,356.1 1077.4,358.9 1077.4,359 1086.2,359 1086.2,358.9 					"/>
					<polygon fill="#1B1C1C" points="1091.6,356.1 1087.2,358.9 1087.2,359 1096,359 1096,358.9 					"/>
					<polygon fill="#1B1C1C" points="1101.4,356.1 1097,358.9 1097,359 1105.8,359 1105.8,358.9 					"/>
					<polygon fill="#1B1C1C" points="1111.3,356.1 1106.9,358.9 1106.9,359 1115.7,359 1115.7,358.9 					"/>
					<path fill="#1B1C1C" d="M1066.8,309.2c-2.2,0.2-4.3,0.7-6.3,1.5l1.9,1.2L1066.8,309.2z"/>
					<path fill="#1B1C1C" d="M1072.2,312l4.4-2.7v-0.1h-7.9c-0.3,0-0.6,0-1,0v0.1L1072.2,312z"/>
					<polygon fill="#1B1C1C" points="1082,312 1086.4,309.2 1086.4,309.1 1077.6,309.1 1077.6,309.2 					"/>
					<polygon fill="#1B1C1C" points="1091.9,312 1096.3,309.2 1096.3,309.1 1087.5,309.1 1087.5,309.2 					"/>
					<polygon fill="#1B1C1C" points="1101.7,312 1106.1,309.2 1106.1,309.1 1097.3,309.1 1097.3,309.2 					"/>
					<polygon fill="#1B1C1C" points="1111.5,312 1115.9,309.2 1115.9,309.1 1107.1,309.1 1107.1,309.2 					"/>
					<path fill="#1B1C1C" d="M1052.1,316.8c-0.9,1-1.6,2-2.3,3.1l2.3-1.5V316.8z"/>
					<path fill="#1B1C1C" d="M1057.5,321.2l4.4-2.7v-5.5l-2.6-1.6c-2.3,1.1-4.4,2.6-6.2,4.4v2.7L1057.5,321.2z"/>
					<polygon fill="#1B1C1C" points="1071.7,318.4 1071.7,312.9 1067.3,310.2 1062.9,312.9 1062.9,318.4 1067.3,321.2 					"/>
					<polygon fill="#1B1C1C" points="1081.5,318.4 1081.5,312.9 1077.1,310.2 1072.7,312.9 1072.7,318.4 1077.1,321.2 					"/>
					<polygon fill="#1B1C1C" points="1091.4,318.4 1091.4,312.9 1086.9,310.2 1082.5,312.9 1082.5,318.4 1086.9,321.2 					"/>
					<polygon fill="#1B1C1C" points="1101.2,318.4 1101.2,312.9 1096.8,310.2 1092.4,312.9 1092.4,318.4 1096.8,321.2 					"/>
					<polygon fill="#1B1C1C" points="1111,318.4 1111,312.9 1106.6,310.2 1102.2,312.9 1102.2,318.4 1106.6,321.2 					"/>
					<path fill="#1B1C1C" d="M1047.1,325.1c-0.4,1-0.7,2-0.9,3.1l0.9-0.6V325.1z"/>
					<path fill="#1B1C1C" d="M1052.6,330.3l4.4-2.7v-5.5l-4.4-2.7l-4,2.5c-0.1,0.3-0.3,0.5-0.4,0.8v4.9L1052.6,330.3z"/>
					<polygon fill="#1B1C1C" points="1066.8,327.6 1066.8,322.1 1062.4,319.4 1058,322.1 1058,327.6 1062.4,330.3 					"/>
					<polygon fill="#1B1C1C" points="1067.8,327.6 1072.2,330.3 1076.6,327.6 1076.6,322.1 1072.2,319.4 1067.8,322.1 					"/>
					<polygon fill="#1B1C1C" points="1077.6,327.6 1082,330.3 1086.4,327.6 1086.4,322.1 1082,319.4 1077.6,322.1 					"/>
					<polygon fill="#1B1C1C" points="1087.5,327.6 1091.9,330.3 1096.3,327.6 1096.3,322.1 1091.9,319.4 1087.5,322.1 					"/>
					<polygon fill="#1B1C1C" points="1097.3,327.6 1101.7,330.3 1106.1,327.6 1106.1,322.1 1101.7,319.4 1097.3,322.1 					"/>
					<polygon fill="#1B1C1C" points="1107.1,327.6 1111.5,330.3 1115.9,327.6 1115.9,322.1 1111.5,319.4 1107.1,322.1 					"/>
					<path fill="#1B1C1C" d="M1052.1,336.8v-5.5l-4.4-2.7l-1.7,1c-0.2,1.4-0.4,2.9-0.4,4.4c0,1.5,0.1,3,0.4,4.4l1.7,1L1052.1,336.8z
						"/>
					<polygon fill="#1B1C1C" points="1061.9,331.3 1057.5,328.6 1053.1,331.3 1053.1,336.8 1057.5,339.5 1061.9,336.8 					"/>
					<polygon fill="#1B1C1C" points="1062.9,331.3 1062.9,336.8 1067.3,339.5 1071.7,336.8 1071.7,331.3 1067.3,328.6 					"/>
					<polygon fill="#1B1C1C" points="1072.7,331.3 1072.7,336.8 1077.1,339.5 1081.5,336.8 1081.5,331.3 1077.1,328.6 					"/>
					<polygon fill="#1B1C1C" points="1082.5,331.3 1082.5,336.8 1086.9,339.5 1091.4,336.8 1091.4,331.3 1086.9,328.6 					"/>
					<polygon fill="#1B1C1C" points="1092.4,331.3 1092.4,336.8 1096.8,339.5 1101.2,336.8 1101.2,331.3 1096.8,328.6 					"/>
					<polygon fill="#1B1C1C" points="1102.2,331.3 1102.2,336.8 1106.6,339.5 1111,336.8 1111,331.3 1106.6,328.6 					"/>
					<polygon fill="#1B1C1C" points="1125.7,340.5 1121.3,337.8 1116.9,340.5 1116.9,346 1121.3,348.7 1125.7,346 					"/>
					<polygon fill="#1B1C1C" points="1135.6,340.5 1131.2,337.8 1126.8,340.5 1126.8,346 1131.2,348.7 1135.6,346 					"/>
					<path fill="#1B1C1C" d="M1136.6,340.5v5.5l2.7,1.7c1.6-2.6,2.8-5.6,3.3-8.9l-1.6-1L1136.6,340.5z"/>
					<polygon fill="#1B1C1C" points="1112,349.7 1112,355.2 1116.4,357.9 1120.8,355.2 1120.8,349.7 1116.4,346.9 					"/>
					<polygon fill="#1B1C1C" points="1121.8,349.7 1121.8,355.2 1126.2,357.9 1130.7,355.2 1130.7,349.7 1126.2,346.9 					"/>
					<path fill="#1B1C1C" d="M1131.7,349.7v5.5l0.3,0.2c2.7-1.7,4.9-4,6.8-6.7l-2.6-1.6L1131.7,349.7z"/>
					<path fill="#1B1C1C" d="M1116.9,358.9L1116.9,358.9l2.9,0.1c1.7,0,3.4-0.2,5-0.6l-3.6-2.2L1116.9,358.9z"/>
					<path fill="#1B1C1C" d="M1121.6,312l3.5-2.2c-1.7-0.4-3.4-0.6-5.2-0.6h-2.7v0.1L1121.6,312z"/>
					<polygon fill="#1B1C1C" points="1121.1,318.4 1121.1,312.9 1116.7,310.2 1112.3,312.9 1112.3,318.4 1116.7,321.2 					"/>
					<polygon fill="#1B1C1C" points="1130.9,318.4 1130.9,312.9 1126.5,310.2 1122.1,312.9 1122.1,318.4 1126.5,321.2 					"/>
					<path fill="#1B1C1C" d="M1131.9,318.4l4.4,2.7l2.4-1.5c-1.8-2.7-4.1-5-6.7-6.8l-0.1,0.1V318.4z"/>
					<polygon fill="#1B1C1C" points="1117.2,327.6 1121.6,330.3 1126,327.6 1126,322.1 1121.6,319.4 1117.2,322.1 					"/>
					<polygon fill="#1B1C1C" points="1127,327.6 1131.4,330.3 1135.8,327.6 1135.8,322.1 1131.4,319.4 1127,322.1 					"/>
					<path fill="#1B1C1C" d="M1136.8,327.6l4.4,2.7l1.4-0.9c-0.6-3.2-1.7-6.2-3.3-8.9l-2.5,1.6V327.6z"/>
					<polygon fill="#1B1C1C" points="1112.3,331.3 1112.3,336.8 1116.7,339.5 1121.1,336.8 1121.1,331.3 1116.7,328.6 					"/>
					<polygon fill="#1B1C1C" points="1122.1,331.3 1122.1,336.8 1126.5,339.5 1130.9,336.8 1130.9,331.3 1126.5,328.6 					"/>
					<polygon fill="#1B1C1C" points="1131.9,336.8 1136.3,339.5 1140.7,336.8 1140.7,331.3 1136.3,328.6 1131.9,331.3 					"/>
					<path fill="#1B1C1C" d="M1141.7,336.8l1.1,0.7c0.1-1.1,0.2-2.3,0.2-3.4s-0.1-2.3-0.2-3.4l-1.1,0.7V336.8z"/>
				</g>
			</g>
			<path fill-rule="evenodd" clip-rule="evenodd" fill="#343537" d="M1073.9,300.5c-17.2,0-31.2,15-31.2,33.6s14,33.6,31.2,33.6
				s31.2-15,31.2-33.6S1091.2,300.5,1073.9,300.5z M1073.9,361.9c-14.3,0-25.9-12.5-25.9-27.9s11.6-27.9,25.9-27.9
				s25.9,12.5,25.9,27.9S1088.3,361.9,1073.9,361.9z"/>
		</g>
		<rect x="897.2" y="226.4" fill-rule="evenodd" clip-rule="evenodd" fill="#343537" width="4.3" height="141.2"/>
	</g>
	<g>
		<text transform="matrix(0.9032 0 0 1 377.7398 415.3098)" font-family="'HYb0gf'" font-size="13.6873px"> </text>
		<rect x="67.1" y="419.3" fill-rule="evenodd" clip-rule="evenodd" fill="#ACAEAF" width="1157.9" height="34.4"/>
		<rect x="67.1" y="454.5" fill-rule="evenodd" clip-rule="evenodd" fill="#C6C6C6" width="1157.9" height="29.4"/>
		<polygon fill-rule="evenodd" clip-rule="evenodd" fill="#3F3F3F" points="1180.4,474.5 100.7,474.5 67.1,453.7 1225,453.7 		"/>
		<rect x="67.1" y="413" fill-rule="evenodd" clip-rule="evenodd" fill="#DDDDDD" width="1157.9" height="11.4"/>
	</g>
	<g>
		<text transform="matrix(0.9032 0 0 1 377.7398 494.8491)" font-family="'HYb0gf'" font-size="13.6873px"> </text>
		<rect x="67.1" y="498.9" fill-rule="evenodd" clip-rule="evenodd" fill="#ACAEAF" width="1157.9" height="34.4"/>
		<rect x="67.1" y="534.1" fill-rule="evenodd" clip-rule="evenodd" fill="#C6C6C6" width="1157.9" height="29.4"/>
		<polygon fill-rule="evenodd" clip-rule="evenodd" fill="#3F3F3F" points="1180.4,554 100.7,554 67.1,533.3 1225,533.3 		"/>
		<rect x="67.1" y="492.5" fill-rule="evenodd" clip-rule="evenodd" fill="#DDDDDD" width="1157.9" height="11.4"/>
	</g>
	<g>
		<text transform="matrix(0.9032 0 0 1 377.7398 574.3884)" font-family="'HYb0gf'" font-size="13.6873px"> </text>
		<rect x="67.1" y="578.4" fill-rule="evenodd" clip-rule="evenodd" fill="#ACAEAF" width="1157.9" height="34.4"/>
		<rect x="67.1" y="613.6" fill-rule="evenodd" clip-rule="evenodd" fill="#C6C6C6" width="1157.9" height="29.4"/>
		<polygon fill-rule="evenodd" clip-rule="evenodd" fill="#3F3F3F" points="1180.4,633.6 100.7,633.6 67.1,612.8 1225,612.8 		"/>
		<rect x="67.1" y="572.1" fill-rule="evenodd" clip-rule="evenodd" fill="#DDDDDD" width="1157.9" height="11.4"/>
	</g>
	<g>
		<text transform="matrix(0.9032 0 0 1 377.7398 653.9277)" font-family="'HYb0gf'" font-size="13.6873px"> </text>
		<rect x="67.1" y="657.9" fill-rule="evenodd" clip-rule="evenodd" fill="#ACAEAF" width="1157.9" height="34.4"/>
		<rect x="67.1" y="693.2" fill-rule="evenodd" clip-rule="evenodd" fill="#C6C6C6" width="1157.9" height="29.4"/>
		<polygon fill-rule="evenodd" clip-rule="evenodd" fill="#3F3F3F" points="1180.4,713.1 100.7,713.1 67.1,692.4 1225,692.4 		"/>
		<rect x="67.1" y="651.6" fill-rule="evenodd" clip-rule="evenodd" fill="#DDDDDD" width="1157.9" height="11.4"/>
	</g>
	<g>
		<text transform="matrix(0.9032 0 0 1 377.7398 733.467)" font-family="'HYb0gf'" font-size="13.6873px"> </text>
		<rect x="67.1" y="737.5" fill-rule="evenodd" clip-rule="evenodd" fill="#ACAEAF" width="1157.9" height="34.4"/>
		<rect x="67.1" y="772.7" fill-rule="evenodd" clip-rule="evenodd" fill="#C6C6C6" width="1157.9" height="29.4"/>
		<polygon fill-rule="evenodd" clip-rule="evenodd" fill="#3F3F3F" points="1180.4,792.7 100.7,792.7 67.1,771.9 1225,771.9 		"/>
		<rect x="67.1" y="731.2" fill-rule="evenodd" clip-rule="evenodd" fill="#DDDDDD" width="1157.9" height="11.4"/>
	</g>
	<g>
		<text transform="matrix(0.9032 0 0 1 377.7398 813.0063)" font-family="'HYb0gf'" font-size="13.6873px"> </text>
		<rect x="67.1" y="817" fill-rule="evenodd" clip-rule="evenodd" fill="#ACAEAF" width="1157.9" height="34.4"/>
		<rect x="67.1" y="852.2" fill-rule="evenodd" clip-rule="evenodd" fill="#C6C6C6" width="1157.9" height="29.4"/>
		<polygon fill-rule="evenodd" clip-rule="evenodd" fill="#3F3F3F" points="1180.4,872.2 100.7,872.2 67.1,851.4 1225,851.4 		"/>
		<rect x="67.1" y="810.7" fill-rule="evenodd" clip-rule="evenodd" fill="#DDDDDD" width="1157.9" height="11.4"/>
	</g>
	<g>
		<text transform="matrix(0.9032 0 0 1 377.7398 892.5456)" font-family="'HYb0gf'" font-size="13.6873px"> </text>
		<rect x="67.1" y="896.6" fill-rule="evenodd" clip-rule="evenodd" fill="#ACAEAF" width="1157.9" height="34.4"/>
		<rect x="67.1" y="931.8" fill-rule="evenodd" clip-rule="evenodd" fill="#C6C6C6" width="1157.9" height="29.4"/>
		<polygon fill-rule="evenodd" clip-rule="evenodd" fill="#3F3F3F" points="1180.4,951.7 100.7,951.7 67.1,931 1225,931 		"/>
		<rect x="67.1" y="890.2" fill-rule="evenodd" clip-rule="evenodd" fill="#DDDDDD" width="1157.9" height="11.4"/>
	</g>
	<g>
		<text transform="matrix(0.9032 0 0 1 377.7398 972.0849)" font-family="'HYb0gf'" font-size="13.6873px"> </text>
		<rect x="67.1" y="976.1" fill-rule="evenodd" clip-rule="evenodd" fill="#ACAEAF" width="1157.9" height="34.4"/>
		<rect x="67.1" y="1011.3" fill-rule="evenodd" clip-rule="evenodd" fill="#C6C6C6" width="1157.9" height="29.4"/>
		<polygon fill-rule="evenodd" clip-rule="evenodd" fill="#3F3F3F" points="1180.4,1031.3 100.7,1031.3 67.1,1010.5 1225,1010.5 		
			"/>
		<rect x="67.1" y="969.8" fill-rule="evenodd" clip-rule="evenodd" fill="#DDDDDD" width="1157.9" height="11.4"/>
	</g>
</g>
</svg>
