<?xml version="1.0" encoding="utf-8"?>
<!-- Generator: Adobe Illustrator 21.0.0, SVG Export Plug-In . SVG Version: 6.00 Build 0)  -->
<svg version="1.1" id="图层_1" xmlns="http://www.w3.org/2000/svg" xmlns:xlink="http://www.w3.org/1999/xlink" x="0px" y="0px"
	 width="1275.6px" height="756.9px" viewBox="0 0 1275.6 756.9" enable-background="new 0 0 1275.6 756.9" xml:space="preserve">
<g>
	<rect fill="#214272" width="1275.6" height="756.9"/>
	<g>
		<path fill="#7598C7" d="M1234.4,32.9H41.2c-2.7,0-5-2.2-5-5v0c0-2.7,2.2-5,5-5h1193.3c2.7,0,5,2.2,5,5v0
			C1239.4,30.7,1237.2,32.9,1234.4,32.9z"/>
		<path fill="#161C29" d="M1234.4,31.4H41.2c-2.7,0-5-2.2-5-5v0c0-2.7,2.2-5,5-5h1193.3c2.7,0,5,2.2,5,5v0
			C1239.4,29.2,1237.2,31.4,1234.4,31.4z"/>
	</g>
	<g>
		<path fill="#7598C7" d="M1234.4,562.9H41.2c-2.7,0-5-2.2-5-5v0c0-2.7,2.2-5,5-5h1193.3c2.7,0,5,2.2,5,5v0
			C1239.4,560.7,1237.2,562.9,1234.4,562.9z"/>
		<path fill="#161C29" d="M1234.4,561.4H41.2c-2.7,0-5-2.2-5-5v0c0-2.7,2.2-5,5-5h1193.3c2.7,0,5,2.2,5,5v0
			C1239.4,559.2,1237.2,561.4,1234.4,561.4z"/>
	</g>
	<g>
		<path fill="#7598C7" d="M1234.4,585.4H41.2c-2.7,0-5-2.2-5-5l0,0c0-2.7,2.2-5,5-5h1193.3c2.7,0,5,2.2,5,5l0,0
			C1239.4,583.2,1237.2,585.4,1234.4,585.4z"/>
		<path fill="#161C29" d="M1234.4,583.9H41.2c-2.7,0-5-2.2-5-5l0,0c0-2.7,2.2-5,5-5h1193.3c2.7,0,5,2.2,5,5l0,0
			C1239.4,581.7,1237.2,583.9,1234.4,583.9z"/>
	</g>
	<g>
		<path fill="#7598C7" d="M1234.4,607.9H41.2c-2.7,0-5-2.2-5-5l0,0c0-2.7,2.2-5,5-5h1193.3c2.7,0,5,2.2,5,5l0,0
			C1239.4,605.7,1237.2,607.9,1234.4,607.9z"/>
		<path fill="#161C29" d="M1234.4,606.4H41.2c-2.7,0-5-2.2-5-5l0,0c0-2.7,2.2-5,5-5h1193.3c2.7,0,5,2.2,5,5l0,0
			C1239.4,604.2,1237.2,606.4,1234.4,606.4z"/>
	</g>
	<g>
		<path fill="#7598C7" d="M1234.4,630.4H41.2c-2.7,0-5-2.2-5-5l0,0c0-2.7,2.2-5,5-5h1193.3c2.7,0,5,2.2,5,5l0,0
			C1239.4,628.2,1237.2,630.4,1234.4,630.4z"/>
		<path fill="#161C29" d="M1234.4,628.9H41.2c-2.7,0-5-2.2-5-5l0,0c0-2.7,2.2-5,5-5h1193.3c2.7,0,5,2.2,5,5l0,0
			C1239.4,626.7,1237.2,628.9,1234.4,628.9z"/>
	</g>
	<g>
		<path fill="#7598C7" d="M1234.4,652.9H41.2c-2.7,0-5-2.2-5-5l0,0c0-2.7,2.2-5,5-5h1193.3c2.7,0,5,2.2,5,5l0,0
			C1239.4,650.7,1237.2,652.9,1234.4,652.9z"/>
		<path fill="#161C29" d="M1234.4,651.4H41.2c-2.7,0-5-2.2-5-5l0,0c0-2.7,2.2-5,5-5h1193.3c2.7,0,5,2.2,5,5l0,0
			C1239.4,649.2,1237.2,651.4,1234.4,651.4z"/>
	</g>
	<g>
		<path fill="#7598C7" d="M1234.4,675.4H41.2c-2.7,0-5-2.2-5-5l0,0c0-2.7,2.2-5,5-5h1193.3c2.7,0,5,2.2,5,5l0,0
			C1239.4,673.2,1237.2,675.4,1234.4,675.4z"/>
		<path fill="#161C29" d="M1234.4,673.9H41.2c-2.7,0-5-2.2-5-5l0,0c0-2.7,2.2-5,5-5h1193.3c2.7,0,5,2.2,5,5l0,0
			C1239.4,671.7,1237.2,673.9,1234.4,673.9z"/>
	</g>
	<g>
		<path fill="#7598C7" d="M1234.4,697.9H41.2c-2.7,0-5-2.2-5-5l0,0c0-2.7,2.2-5,5-5h1193.3c2.7,0,5,2.2,5,5l0,0
			C1239.4,695.7,1237.2,697.9,1234.4,697.9z"/>
		<path fill="#161C29" d="M1234.4,696.4H41.2c-2.7,0-5-2.2-5-5l0,0c0-2.7,2.2-5,5-5h1193.3c2.7,0,5,2.2,5,5l0,0
			C1239.4,694.2,1237.2,696.4,1234.4,696.4z"/>
	</g>
	<g>
		<path fill="#7598C7" d="M1234.4,720.4H41.2c-2.7,0-5-2.2-5-5l0,0c0-2.7,2.2-5,5-5h1193.3c2.7,0,5,2.2,5,5l0,0
			C1239.4,718.2,1237.2,720.4,1234.4,720.4z"/>
		<path fill="#161C29" d="M1234.4,718.9H41.2c-2.7,0-5-2.2-5-5l0,0c0-2.7,2.2-5,5-5h1193.3c2.7,0,5,2.2,5,5l0,0
			C1239.4,716.7,1237.2,718.9,1234.4,718.9z"/>
	</g>
	<g>
		<path fill="#7598C7" d="M1234.4,54.4H41.2c-2.7,0-5-2.2-5-5v0c0-2.7,2.2-5,5-5h1193.3c2.7,0,5,2.2,5,5v0
			C1239.4,52.2,1237.2,54.4,1234.4,54.4z"/>
		<path fill="#161C29" d="M1234.4,52.9H41.2c-2.7,0-5-2.2-5-5v0c0-2.7,2.2-5,5-5h1193.3c2.7,0,5,2.2,5,5v0
			C1239.4,50.7,1237.2,52.9,1234.4,52.9z"/>
	</g>
	<g>
		<path fill="#7598C7" d="M1234.4,75.9H41.2c-2.7,0-5-2.2-5-5v0c0-2.7,2.2-5,5-5h1193.3c2.7,0,5,2.2,5,5v0
			C1239.4,73.7,1237.2,75.9,1234.4,75.9z"/>
		<path fill="#161C29" d="M1234.4,74.4H41.2c-2.7,0-5-2.2-5-5v0c0-2.7,2.2-5,5-5h1193.3c2.7,0,5,2.2,5,5v0
			C1239.4,72.2,1237.2,74.4,1234.4,74.4z"/>
	</g>
	<g>
		<path fill="#7598C7" d="M1234.4,97.4H41.2c-2.7,0-5-2.2-5-5v0c0-2.7,2.2-5,5-5h1193.3c2.7,0,5,2.2,5,5v0
			C1239.4,95.2,1237.2,97.4,1234.4,97.4z"/>
		<path fill="#161C29" d="M1234.4,95.9H41.2c-2.7,0-5-2.2-5-5v0c0-2.7,2.2-5,5-5h1193.3c2.7,0,5,2.2,5,5v0
			C1239.4,93.7,1237.2,95.9,1234.4,95.9z"/>
	</g>
	<g>
		<path fill="#7598C7" d="M1221.4,118.9H54.2c-2.7,0-5-2.2-5-5v0c0-2.7,2.2-5,5-5h1167.2c2.7,0,5,2.2,5,5v0
			C1226.4,116.7,1224.2,118.9,1221.4,118.9z"/>
		<path fill="#161C29" d="M1221.4,117.4H54.2c-2.7,0-5-2.2-5-5v0c0-2.7,2.2-5,5-5h1167.2c2.7,0,5,2.2,5,5v0
			C1226.4,115.2,1224.2,117.4,1221.4,117.4z"/>
	</g>
	<g>
		<path fill="#7598C7" d="M1210.4,140.4H65.2c-2.7,0-5-2.2-5-5v0c0-2.7,2.2-5,5-5h1145.2c2.7,0,5,2.2,5,5v0
			C1215.4,138.2,1213.2,140.4,1210.4,140.4z"/>
		<path fill="#161C29" d="M1210.4,138.9H65.2c-2.7,0-5-2.2-5-5v0c0-2.7,2.2-5,5-5h1145.2c2.7,0,5,2.2,5,5v0
			C1215.4,136.7,1213.2,138.9,1210.4,138.9z"/>
	</g>
	<g>
		<path fill="#7598C7" d="M1198.1,161.9H77.5c-2.7,0-5-2.2-5-5v0c0-2.7,2.2-5,5-5h1120.6c2.7,0,5,2.2,5,5v0
			C1203.1,159.7,1200.8,161.9,1198.1,161.9z"/>
		<path fill="#161C29" d="M1198.1,160.4H77.5c-2.7,0-5-2.2-5-5v0c0-2.7,2.2-5,5-5h1120.6c2.7,0,5,2.2,5,5v0
			C1203.1,158.2,1200.8,160.4,1198.1,160.4z"/>
	</g>
	<g>
		<path fill="#7598C7" d="M1187.8,183.4H87.8c-2.7,0-5-2.2-5-5v0c0-2.7,2.2-5,5-5h1099.9c2.7,0,5,2.2,5,5v0
			C1192.7,181.2,1190.5,183.4,1187.8,183.4z"/>
		<path fill="#161C29" d="M1187.8,181.9H87.8c-2.7,0-5-2.2-5-5v0c0-2.7,2.2-5,5-5h1099.9c2.7,0,5,2.2,5,5v0
			C1192.7,179.7,1190.5,181.9,1187.8,181.9z"/>
	</g>
	<rect x="924" y="52.9" fill="#214272" width="207.8" height="54.6"/>
	<g>
		<path fill="#D5D5D5" d="M996.3,78.1h8.8v-7.3h4v18.1h-4v-7.6h-8.8v7.6h-4V70.8h4V78.1z"/>
		<path fill="#D5D5D5" d="M1016.2,81.6c0,3.2,1,4.5,4.2,4.5c3.3,0,4.2-1.3,4.2-4.5V70.8h4v10.9c0,2.3-0.3,3.9-1.1,4.9
			c-1.5,1.8-3.8,2.5-7.1,2.5c-3.3,0-5.6-0.7-7.1-2.5c-0.9-1-1.1-2.6-1.1-4.9V70.8h3.9V81.6z"/>
		<path fill="#D5D5D5" d="M1041.6,70.8l8,18.1h-4.4l-1.7-4.3h-8.2l-1.7,4.3h-4.2l8-18.1H1041.6z M1036.6,81.3h5.6l-2.8-7
			L1036.6,81.3z"/>
		<path fill="#D5D5D5" d="M1051.4,70.8l4.3,13.9l3.7-13.9h4.7l4.2,13.9l4.1-13.9h4.1l-5.8,18.1h-4.8l-4-13.5l-3.5,13.5h-4.8
			l-6.3-18.1H1051.4z"/>
		<path fill="#D5D5D5" d="M1081.7,78.1h10.9v3.1h-11c0,3.3,1.4,4.4,4.5,4.4h6.5v3.2h-6.7c-2.3,0-4-0.2-5.9-1.6
			c-1.9-1.5-2.9-3.9-2.9-7.1c0-6.4,2.8-9.4,8.8-9.4h6.6v3.2h-6.5C1083.3,73.9,1081.9,75.3,1081.7,78.1z"/>
		<path fill="#D5D5D5" d="M1096.2,88.9V70.8h4.1v18.1H1096.2z"/>
	</g>
	<g>
		<path fill="#D5D5D5" d="M966.3,87.1c0,0,0.1,0,0-0.1l0,0c-4-9.2-9.5-16.1-9.5-16.1s-3,3-2.8,5.9c0.1,2.2,1.7,3.6,1.7,3.6
			c2.6,2.7,8.9,6,10.4,6.8C966.1,87.2,966.2,87.2,966.3,87.1z"/>
		<path fill="#D5D5D5" d="M965.3,89.4c0-0.1-0.1-0.1-0.1-0.1v0l-10.5,0.4c1.1,2.1,3.1,3.8,5.1,3.3c1.4-0.4,4.5-2.6,5.5-3.4l0,0
			C965.3,89.5,965.3,89.4,965.3,89.4z"/>
		<path fill="#D5D5D5" d="M965.4,88.4c0.1-0.1,0-0.2,0-0.2v0c-4.6-3.3-13.6-8.2-13.6-8.2c-0.8,2.6,0.3,4.7,0.3,4.7
			c1.1,2.5,3.3,3.3,3.3,3.3c1,0.4,2,0.5,2,0.5c0.2,0,6.3,0,7.9,0C965.4,88.5,965.4,88.4,965.4,88.4z"/>
		<path fill="#D5D5D5" d="M966.1,66.1c-0.5,0-1.7,0.3-1.7,0.3c-2.8,0.7-3.4,3.4-3.4,3.4c-0.5,1.7,0,3.5,0,3.5
			c0.9,4.3,5.5,11.4,6.5,12.9c0.1,0.1,0.1,0,0.1,0c0.1,0,0.1-0.1,0.1-0.1v0C969.2,70.3,966.1,66.1,966.1,66.1z"/>
		<path fill="#D5D5D5" d="M969.6,86.3c0.1,0,0.2-0.1,0.2-0.1l0,0c1-1.5,5.6-8.6,6.5-12.9c0,0,0.5-2.1,0-3.5c0,0-0.7-2.7-3.5-3.4
			c0,0-0.8-0.2-1.7-0.3c0,0-3.1,4.2-1.6,20l0,0C969.5,86.2,969.6,86.3,969.6,86.3z"/>
		<path fill="#D5D5D5" d="M972.1,89.3c0,0-0.1,0-0.1,0.1c0,0,0,0.1,0,0.1h0c1,0.8,4.1,3,5.5,3.4c0,0,2.7,1,5.1-3.3L972.1,89.3
			L972.1,89.3z"/>
		<path fill="#D5D5D5" d="M985.5,80c0,0-9,5-13.6,8.3v0c0,0-0.1,0.1-0.1,0.2c0,0,0,0.1,0.1,0.1l0,0c1.7,0,7.9,0,8.1,0
			c0,0,0.8,0,1.8-0.4c0,0,2.2-0.7,3.4-3.4C985.2,84.7,986.3,82.5,985.5,80z"/>
		<path fill="#D5D5D5" d="M971,87.1c0,0,0.1,0.1,0.1,0v0c1.5-0.8,7.8-4.1,10.4-6.8c0,0,1.6-1.4,1.7-3.6c0.2-3.1-2.8-5.9-2.8-5.9
			S975,77.8,971,87l0,0C971,87,971,87.1,971,87.1z"/>
	</g>
	<rect x="108.1" y="32.9" fill="#214272" width="264.5" height="74.6"/>
	<rect x="108.1" y="123.9" fill="#214272" width="264.5" height="58.1"/>
	<linearGradient id="SVGID_2_" gradientUnits="userSpaceOnUse" x1="167.5026" y1="143.8197" x2="313.2711" y2="-1.9488">
		<stop  offset="0" style="stop-color:#A8A8A8"/>
		<stop  offset="0.305" style="stop-color:#FFFFFF"/>
		<stop  offset="0.635" style="stop-color:#F4F4F4"/>
		<stop  offset="1" style="stop-color:#A3A3A3"/>
	</linearGradient>
	<path fill="url(#SVGID_2_)" d="M351.8,102.7H128.9c-3.4,0-6.1-2.7-6.1-6.1V45.2c0-3.4,2.7-6.1,6.1-6.1h222.9c3.4,0,6.1,2.7,6.1,6.1
		v51.4C357.9,100,355.2,102.7,351.8,102.7z"/>
	<path fill="#214272" d="M348.4,84h-216c-3.4,0-6.1-2.7-6.1-6.1V48.1c0-3.4,2.7-6.1,6.1-6.1h216c3.4,0,6.1,2.7,6.1,6.1v29.8
		C354.5,81.3,351.8,84,348.4,84z"/>
	<path fill="#E2EA37" stroke="#333333" stroke-miterlimit="10" d="M166.5,158.8h-32.3c-2.1,0-3.8-1.7-3.8-3.8v-13
		c0-2.1,1.7-3.8,3.8-3.8h32.3c2.1,0,3.8,1.7,3.8,3.8v13C170.3,157.1,168.6,158.8,166.5,158.8z"/>
	<path fill="#333333" stroke="#333333" stroke-miterlimit="10" d="M252.5,158.8h-32.3c-2.1,0-3.8-1.7-3.8-3.8v-13
		c0-2.1,1.7-3.8,3.8-3.8h32.3c2.1,0,3.8,1.7,3.8,3.8v13C256.4,157.1,254.6,158.8,252.5,158.8z"/>
	<path fill="#333333" stroke="#333333" stroke-miterlimit="10" d="M338.5,158.8h-32.3c-2.1,0-3.8-1.7-3.8-3.8v-13
		c0-2.1,1.7-3.8,3.8-3.8h32.3c2.1,0,3.8,1.7,3.8,3.8v13C342.4,157.1,340.7,158.8,338.5,158.8z"/>
	<path fill="#7598C7" d="M1198.5,210.2H75.8c-8.2,0-15.1-5.9-16.6-13.7c-0.2,1-0.3,2.1-0.3,3.2v0c0,9.3,7.6,16.9,16.9,16.9h1122.7
		c9.3,0,16.9-7.6,16.9-16.9v0c0-1.1-0.1-2.2-0.3-3.2C1213.6,204.3,1206.7,210.2,1198.5,210.2z"/>
	<path fill="#061C33" d="M1198.5,514.8H75.8c-8.2,0-15.1-5.9-16.6-13.7c-0.2,1-0.3,2.1-0.3,3.2v0c0,9.3,7.6,16.9,16.9,16.9h1122.7
		c9.3,0,16.9-7.6,16.9-16.9v0c0-1.1-0.1-2.2-0.3-3.2C1213.6,509,1206.7,514.8,1198.5,514.8z"/>
	<g>
		<path fill="#061C33" d="M1125.9,286.3H143.1c-6.6,0-12-5.4-12-12v0c0-6.6,5.4-12,12-12h982.8c6.6,0,12,5.4,12,12v0
			C1137.9,280.9,1132.5,286.3,1125.9,286.3z"/>
		<path fill="#7598C7" d="M1125.9,293.3H143.1c-6.6,0-12-5.4-12-12v0c0-6.6,5.4-12,12-12h982.8c6.6,0,12,5.4,12,12v0
			C1137.9,287.9,1132.5,293.3,1125.9,293.3z"/>
		<path fill="#13345B" d="M1125.9,289.6H143.1c-6.6,0-12-5.4-12-12l0,0c0-6.6,5.4-12,12-12h982.8c6.6,0,12,5.4,12,12l0,0
			C1137.9,284.2,1132.5,289.6,1125.9,289.6z"/>
	</g>
	<g>
		<path fill="#061C33" d="M1125.9,370.6H143.1c-6.6,0-12-5.4-12-12l0,0c0-6.6,5.4-12,12-12h982.8c6.6,0,12,5.4,12,12l0,0
			C1137.9,365.3,1132.5,370.6,1125.9,370.6z"/>
		<path fill="#7598C7" d="M1125.9,377.6H143.1c-6.6,0-12-5.4-12-12l0,0c0-6.6,5.4-12,12-12h982.8c6.6,0,12,5.4,12,12l0,0
			C1137.9,372.3,1132.5,377.6,1125.9,377.6z"/>
		<path fill="#13345B" d="M1125.9,374H143.1c-6.6,0-12-5.4-12-12v0c0-6.6,5.4-12,12-12h982.8c6.6,0,12,5.4,12,12v0
			C1137.9,368.6,1132.5,374,1125.9,374z"/>
	</g>
	<g>
		<path fill="#061C33" d="M1125.9,455H143.1c-6.6,0-12-5.4-12-12v0c0-6.6,5.4-12,12-12h982.8c6.6,0,12,5.4,12,12v0
			C1137.9,449.6,1132.5,455,1125.9,455z"/>
		<path fill="#7598C7" d="M1125.9,462H143.1c-6.6,0-12-5.4-12-12v0c0-6.6,5.4-12,12-12h982.8c6.6,0,12,5.4,12,12v0
			C1137.9,456.6,1132.5,462,1125.9,462z"/>
		<path fill="#13345B" d="M1125.9,458.3H143.1c-6.6,0-12-5.4-12-12v0c0-6.6,5.4-12,12-12h982.8c6.6,0,12,5.4,12,12v0
			C1137.9,453,1132.5,458.3,1125.9,458.3z"/>
	</g>
</g>
</svg>
