<?xml version="1.0" encoding="utf-8"?>
<!-- Generator: Adobe Illustrator 16.0.0, SVG Export Plug-In . SVG Version: 6.00 Build 0)  -->
<!DOCTYPE svg PUBLIC "-//W3C//DTD SVG 1.1//EN" "http://www.w3.org/Graphics/SVG/1.1/DTD/svg11.dtd">
<svg version="1.1" id="图层_1" xmlns="http://www.w3.org/2000/svg" xmlns:xlink="http://www.w3.org/1999/xlink" x="0px" y="0px"
	 width="1275.6px" height="126.14px" viewBox="0 0 1275.6 126.14" enable-background="new 0 0 1275.6 126.14" xml:space="preserve">
<rect y="0" fill="#6D6D6D" width="1275.588" height="126.141"/>
<rect x="10.482" y="6.28" fill="none" stroke="#282828" stroke-miterlimit="10" width="1255.668" height="113.333"/>
<g>
	<path fill="#4F4F4F" d="M939.188,32.148c-4.203,4.691-11.418,5.083-16.119,0.873c-4.691-4.211-5.088-11.43-0.881-16.119
		c4.203-4.689,11.418-5.082,16.113-0.871C943,20.24,943.396,27.455,939.188,32.148"/>
	<path fill="#AFAFAF" d="M936.936,30.126c-3.09,3.445-8.393,3.734-11.844,0.64c-3.451-3.093-3.744-8.396-0.648-11.842
		c3.088-3.447,8.393-3.732,11.84-0.64C939.734,21.376,940.023,26.681,936.936,30.126"/>
	<path fill="none" stroke="#939393" stroke-miterlimit="10" d="M936.936,30.126c-3.09,3.445-8.393,3.734-11.844,0.64
		c-3.451-3.093-3.744-8.396-0.648-11.842c3.088-3.447,8.393-3.732,11.84-0.64C939.734,21.376,940.023,26.681,936.936,30.126z"/>
	<g>
		<g>
			<defs>
				
					<rect id="SVGID_1_" x="922.777" y="16.624" transform="matrix(-0.7445 -0.6676 0.6676 -0.7445 1607.2549 664.0842)" width="15.821" height="15.8"/>
			</defs>
			<clipPath id="SVGID_2_">
				<use xlink:href="#SVGID_1_"  overflow="visible"/>
			</clipPath>
			<path clip-path="url(#SVGID_2_)" fill="#BEBFBF" d="M936.576,29.805c-2.912,3.246-7.912,3.517-11.162,0.604
				c-3.252-2.917-3.525-7.914-0.613-11.165c2.916-3.245,7.908-3.518,11.16-0.601C939.215,21.559,939.488,26.556,936.576,29.805"/>
			<path clip-path="url(#SVGID_2_)" fill="#C0C1C1" d="M936.436,29.681c-2.844,3.17-7.721,3.434-10.896,0.586
				c-3.176-2.846-3.443-7.723-0.602-10.896c2.85-3.172,7.725-3.438,10.898-0.588C939.012,21.628,939.279,26.506,936.436,29.681"/>
			<path clip-path="url(#SVGID_2_)" fill="#C3C4C4" d="M936.297,29.556c-2.775,3.096-7.537,3.354-10.635,0.574
				c-3.102-2.777-3.357-7.539-0.584-10.635c2.775-3.096,7.537-3.355,10.637-0.577C938.813,21.7,939.072,26.46,936.297,29.556"/>
			<path clip-path="url(#SVGID_2_)" fill="#C5C6C6" d="M936.16,29.431c-2.707,3.02-7.352,3.269-10.375,0.563
				c-3.02-2.713-3.279-7.358-0.568-10.375c2.705-3.02,7.35-3.271,10.371-0.563C938.611,21.767,938.867,26.414,936.16,29.431"/>
			<path clip-path="url(#SVGID_2_)" fill="#C7C9C9" d="M936.02,29.31c-2.637,2.941-7.164,3.186-10.111,0.544
				c-2.943-2.642-3.191-7.171-0.555-10.111c2.641-2.944,7.166-3.187,10.111-0.548C938.408,21.837,938.66,26.365,936.02,29.31"/>
			<path clip-path="url(#SVGID_2_)" fill="#CACBCB" d="M935.885,29.183c-2.572,2.864-6.98,3.105-9.85,0.531
				c-2.869-2.572-3.113-6.979-0.545-9.847c2.574-2.868,6.986-3.104,9.852-0.534C938.209,21.906,938.449,26.314,935.885,29.183"/>
			<path clip-path="url(#SVGID_2_)" fill="#CCCECE" d="M935.746,29.058c-2.504,2.79-6.795,3.023-9.586,0.52
				c-2.797-2.504-3.029-6.797-0.529-9.584c2.502-2.793,6.791-3.025,9.588-0.521C938.012,21.977,938.246,26.269,935.746,29.058"/>
			<path clip-path="url(#SVGID_2_)" fill="#CED0D0" d="M935.605,28.937c-2.432,2.713-6.607,2.938-9.322,0.501
				c-2.715-2.435-2.947-6.61-0.514-9.322c2.434-2.714,6.607-2.94,9.326-0.505C937.811,22.046,938.039,26.221,935.605,28.937"/>
			<path clip-path="url(#SVGID_2_)" fill="#D1D3D3" d="M935.465,28.813c-2.363,2.636-6.418,2.853-9.059,0.487
				c-2.641-2.367-2.861-6.424-0.5-9.061c2.367-2.637,6.424-2.855,9.063-0.49C937.611,22.117,937.832,26.175,935.465,28.813"/>
			<path clip-path="url(#SVGID_2_)" fill="#D3D5D5" d="M935.328,28.687c-2.295,2.559-6.236,2.773-8.795,0.475
				c-2.566-2.297-2.781-6.237-0.486-8.799c2.295-2.561,6.234-2.776,8.799-0.475C937.408,22.187,937.625,26.125,935.328,28.687"/>
		</g>
	</g>
	<polygon fill="#605F5E" points="926.752,27.373 929.229,24.603 926.455,22.119 927.84,20.582 930.607,23.068 933.09,20.298 
		934.627,21.677 932.15,24.447 934.92,26.929 933.537,28.468 930.771,25.981 928.287,28.752 	"/>
	<path fill="#231815" d="M934.377,21.691l-2.242,2.502l-0.244,0.266l0.271,0.24l2.504,2.244l-1.141,1.273l-2.504-2.248l-0.266-0.238
		l-0.24,0.265l-2.242,2.507l-1.271-1.143l2.242-2.501l0.24-0.268l-0.266-0.239l-2.504-2.246l1.139-1.27l2.502,2.244l0.266,0.239
		l0.24-0.265l2.24-2.503L934.377,21.691z M934.881,21.664l-1.807-1.617l-2.479,2.768l-2.773-2.484l-1.615,1.803l2.771,2.484
		l-2.482,2.77l1.801,1.617l2.486-2.768l2.768,2.482l1.619-1.801l-2.771-2.484L934.881,21.664z"/>
</g>
<g>
	<path fill="#4F4F4F" d="M939.188,73.199c-4.203,4.691-11.418,5.084-16.119,0.873c-4.691-4.211-5.088-11.429-0.881-16.119
		c4.203-4.689,11.418-5.081,16.113-0.871C943,61.292,943.396,68.506,939.188,73.199"/>
	<path fill="#AFAFAF" d="M936.936,71.178c-3.09,3.445-8.393,3.736-11.844,0.641c-3.451-3.094-3.744-8.396-0.648-11.842
		c3.088-3.447,8.393-3.732,11.84-0.64C939.734,62.428,940.023,67.732,936.936,71.178"/>
	<path fill="none" stroke="#939393" stroke-miterlimit="10" d="M936.936,71.178c-3.09,3.445-8.393,3.736-11.844,0.641
		c-3.451-3.094-3.744-8.396-0.648-11.842c3.088-3.447,8.393-3.732,11.84-0.64C939.734,62.428,940.023,67.732,936.936,71.178z"/>
	<g>
		<g>
			<defs>
				
					<rect id="SVGID_3_" x="922.777" y="57.675" transform="matrix(-0.7445 -0.6676 0.6676 -0.7445 1579.8193 735.7297)" width="15.821" height="15.801"/>
			</defs>
			<clipPath id="SVGID_4_">
				<use xlink:href="#SVGID_3_"  overflow="visible"/>
			</clipPath>
			<path clip-path="url(#SVGID_4_)" fill="#BEBFBF" d="M936.576,70.857c-2.912,3.246-7.912,3.516-11.162,0.604
				c-3.252-2.916-3.525-7.914-0.613-11.165c2.916-3.246,7.908-3.518,11.16-0.601C939.215,62.611,939.488,67.607,936.576,70.857"/>
			<path clip-path="url(#SVGID_4_)" fill="#C0C1C1" d="M936.436,70.732c-2.844,3.17-7.721,3.434-10.896,0.586
				c-3.176-2.846-3.443-7.722-0.602-10.896c2.85-3.172,7.725-3.438,10.898-0.588C939.012,62.68,939.279,67.559,936.436,70.732"/>
			<path clip-path="url(#SVGID_4_)" fill="#C3C4C4" d="M936.297,70.607c-2.775,3.096-7.537,3.354-10.635,0.574
				c-3.102-2.777-3.357-7.539-0.584-10.634c2.775-3.096,7.537-3.355,10.637-0.577C938.813,62.751,939.072,67.512,936.297,70.607"/>
			<path clip-path="url(#SVGID_4_)" fill="#C5C6C6" d="M936.16,70.482c-2.707,3.02-7.352,3.27-10.375,0.563
				c-3.02-2.713-3.279-7.358-0.568-10.375c2.705-3.02,7.35-3.271,10.371-0.563C938.611,62.819,938.867,67.465,936.16,70.482"/>
			<path clip-path="url(#SVGID_4_)" fill="#C7C9C9" d="M936.02,70.361c-2.637,2.941-7.164,3.186-10.111,0.545
				c-2.943-2.643-3.191-7.171-0.555-10.112c2.641-2.944,7.166-3.187,10.111-0.547C938.408,62.889,938.66,67.416,936.02,70.361"/>
			<path clip-path="url(#SVGID_4_)" fill="#CACBCB" d="M935.885,70.234c-2.572,2.865-6.98,3.105-9.85,0.531
				c-2.869-2.572-3.113-6.979-0.545-9.846c2.574-2.869,6.986-3.104,9.852-0.534C938.209,62.958,938.449,67.365,935.885,70.234"/>
			<path clip-path="url(#SVGID_4_)" fill="#CCCECE" d="M935.746,70.109c-2.504,2.791-6.795,3.023-9.586,0.52
				c-2.797-2.504-3.029-6.796-0.529-9.583c2.502-2.793,6.791-3.025,9.588-0.521C938.012,63.029,938.246,67.32,935.746,70.109"/>
			<path clip-path="url(#SVGID_4_)" fill="#CED0D0" d="M935.605,69.988c-2.432,2.713-6.607,2.939-9.322,0.502
				c-2.715-2.436-2.947-6.611-0.514-9.323c2.434-2.714,6.607-2.94,9.326-0.504C937.811,63.098,938.039,67.273,935.605,69.988"/>
			<path clip-path="url(#SVGID_4_)" fill="#D1D3D3" d="M935.465,69.865c-2.363,2.635-6.418,2.852-9.059,0.486
				c-2.641-2.367-2.861-6.423-0.5-9.06c2.367-2.637,6.424-2.855,9.063-0.49C937.611,63.168,937.832,67.227,935.465,69.865"/>
			<path clip-path="url(#SVGID_4_)" fill="#D3D5D5" d="M935.328,69.738c-2.295,2.559-6.236,2.773-8.795,0.475
				c-2.566-2.297-2.781-6.237-0.486-8.797c2.295-2.562,6.234-2.777,8.799-0.476C937.408,63.239,937.625,67.176,935.328,69.738"/>
		</g>
	</g>
	<polygon fill="#605F5E" points="926.752,68.424 929.229,65.654 926.455,63.17 927.84,61.632 930.607,64.119 933.09,61.35 
		934.627,62.729 932.15,65.5 934.92,67.98 933.537,69.52 930.771,67.033 928.287,69.805 	"/>
	<path fill="#231815" d="M934.377,62.743l-2.242,2.501l-0.244,0.266l0.271,0.24l2.504,2.244l-1.141,1.273l-2.504-2.248l-0.266-0.238
		l-0.24,0.266l-2.242,2.506l-1.271-1.143l2.242-2.5l0.24-0.268l-0.266-0.24l-2.504-2.246l1.139-1.27l2.502,2.244l0.266,0.24
		l0.24-0.266l2.24-2.502L934.377,62.743z M934.881,62.715l-1.807-1.617l-2.479,2.768l-2.773-2.484l-1.615,1.803l2.771,2.484
		l-2.482,2.77l1.801,1.617l2.486-2.766l2.768,2.48l1.619-1.801l-2.771-2.484L934.881,62.715z"/>
</g>
<g>
	<path fill="#4F4F4F" d="M939.188,114.252c-4.203,4.691-11.418,5.082-16.119,0.873c-4.691-4.211-5.088-11.43-0.881-16.119
		c4.203-4.689,11.418-5.082,16.113-0.871C943,102.344,943.396,109.559,939.188,114.252"/>
	<path fill="#AFAFAF" d="M936.936,112.23c-3.09,3.445-8.393,3.734-11.844,0.639c-3.451-3.092-3.744-8.395-0.648-11.842
		c3.088-3.445,8.393-3.732,11.84-0.639C939.734,103.48,940.023,108.785,936.936,112.23"/>
	<path fill="none" stroke="#939393" stroke-miterlimit="10" d="M936.936,112.23c-3.09,3.445-8.393,3.734-11.844,0.639
		c-3.451-3.092-3.744-8.395-0.648-11.842c3.088-3.445,8.393-3.732,11.84-0.639C939.734,103.48,940.023,108.785,936.936,112.23z"/>
	<g>
		<g>
			<defs>
				
					<rect id="SVGID_5_" x="922.777" y="98.728" transform="matrix(-0.7446 -0.6675 0.6675 -0.7446 1552.4768 807.2897)" width="15.82" height="15.8"/>
			</defs>
			<clipPath id="SVGID_6_">
				<use xlink:href="#SVGID_5_"  overflow="visible"/>
			</clipPath>
			<path clip-path="url(#SVGID_6_)" fill="#BEBFBF" d="M936.576,111.908c-2.912,3.246-7.912,3.518-11.162,0.605
				c-3.252-2.918-3.525-7.914-0.613-11.166c2.916-3.246,7.908-3.516,11.16-0.6C939.215,103.664,939.488,108.66,936.576,111.908"/>
			<path clip-path="url(#SVGID_6_)" fill="#C0C1C1" d="M936.436,111.785c-2.844,3.17-7.721,3.434-10.896,0.586
				c-3.176-2.846-3.443-7.723-0.602-10.896c2.85-3.172,7.725-3.438,10.898-0.588C939.012,103.732,939.279,108.609,936.436,111.785"
				/>
			<path clip-path="url(#SVGID_6_)" fill="#C3C4C4" d="M936.297,111.66c-2.775,3.096-7.537,3.354-10.635,0.574
				c-3.102-2.777-3.357-7.539-0.584-10.635c2.775-3.096,7.537-3.355,10.637-0.578C938.813,103.803,939.072,108.564,936.297,111.66"
				/>
			<path clip-path="url(#SVGID_6_)" fill="#C5C6C6" d="M936.16,111.535c-2.707,3.02-7.352,3.268-10.375,0.563
				c-3.02-2.713-3.279-7.359-0.568-10.375c2.705-3.02,7.35-3.271,10.371-0.563C938.611,103.871,938.867,108.518,936.16,111.535"/>
			<path clip-path="url(#SVGID_6_)" fill="#C7C9C9" d="M936.02,111.414c-2.637,2.941-7.164,3.186-10.111,0.543
				c-2.943-2.641-3.191-7.17-0.555-10.111c2.641-2.943,7.166-3.186,10.111-0.547C938.408,103.941,938.66,108.469,936.02,111.414"/>
			<path clip-path="url(#SVGID_6_)" fill="#CACBCB" d="M935.885,111.287c-2.572,2.863-6.98,3.105-9.85,0.531
				c-2.869-2.572-3.113-6.98-0.545-9.848c2.574-2.869,6.986-3.104,9.852-0.533C938.209,104.01,938.449,108.418,935.885,111.287"/>
			<path clip-path="url(#SVGID_6_)" fill="#CCCECE" d="M935.746,111.162c-2.504,2.789-6.795,3.021-9.586,0.52
				c-2.797-2.504-3.029-6.797-0.529-9.584c2.502-2.793,6.791-3.025,9.588-0.521C938.012,104.082,938.246,108.373,935.746,111.162"/>
			<path clip-path="url(#SVGID_6_)" fill="#CED0D0" d="M935.605,111.041c-2.432,2.713-6.607,2.938-9.322,0.5
				c-2.715-2.434-2.947-6.609-0.514-9.322s6.607-2.939,9.326-0.504C937.811,104.15,938.039,108.324,935.605,111.041"/>
			<path clip-path="url(#SVGID_6_)" fill="#D1D3D3" d="M935.465,110.916c-2.363,2.637-6.418,2.854-9.059,0.488
				c-2.641-2.367-2.861-6.424-0.5-9.061c2.367-2.637,6.424-2.855,9.063-0.49C937.611,104.221,937.832,108.279,935.465,110.916"/>
			<path clip-path="url(#SVGID_6_)" fill="#D3D5D5" d="M935.328,110.791c-2.295,2.559-6.236,2.773-8.795,0.475
				c-2.566-2.297-2.781-6.238-0.486-8.799s6.234-2.777,8.799-0.475C937.408,104.291,937.625,108.229,935.328,110.791"/>
		</g>
	</g>
	<polygon fill="#605F5E" points="926.752,109.477 929.229,106.707 926.455,104.223 927.84,102.684 930.607,105.172 933.09,102.402 
		934.627,103.781 932.15,106.551 934.92,109.033 933.537,110.572 930.771,108.084 928.287,110.855 	"/>
	<path fill="#231815" d="M934.377,103.795l-2.242,2.502l-0.244,0.266l0.271,0.24l2.504,2.244l-1.141,1.273l-2.504-2.248
		l-0.266-0.238l-0.24,0.264l-2.242,2.508l-1.271-1.143l2.242-2.502l0.24-0.268l-0.266-0.238l-2.504-2.246l1.139-1.27l2.502,2.244
		l0.266,0.238l0.24-0.264l2.24-2.504L934.377,103.795z M934.881,103.768l-1.807-1.617l-2.479,2.768l-2.773-2.484l-1.615,1.803
		l2.771,2.484l-2.482,2.77l1.801,1.617l2.486-2.768l2.768,2.482l1.619-1.801l-2.771-2.484L934.881,103.768z"/>
</g>
<g>
	<path fill="#4F4F4F" d="M616.337,32.148c-4.203,4.691-11.418,5.083-16.119,0.873c-4.691-4.211-5.088-11.43-0.881-16.119
		c4.203-4.689,11.418-5.082,16.113-0.871C620.15,20.24,620.546,27.455,616.337,32.148"/>
	<path fill="#AFAFAF" d="M614.085,30.126c-3.09,3.445-8.393,3.734-11.844,0.64c-3.451-3.093-3.744-8.396-0.648-11.842
		c3.088-3.447,8.393-3.732,11.84-0.64C616.884,21.376,617.173,26.681,614.085,30.126"/>
	<path fill="none" stroke="#939393" stroke-miterlimit="10" d="M614.085,30.126c-3.09,3.445-8.393,3.734-11.844,0.64
		c-3.451-3.093-3.744-8.396-0.648-11.842c3.088-3.447,8.393-3.732,11.84-0.64C616.884,21.376,617.173,26.681,614.085,30.126z"/>
	<g>
		<g>
			<defs>
				
					<rect id="SVGID_7_" x="599.927" y="16.624" transform="matrix(-0.7445 -0.6676 0.6676 -0.7445 1044.0283 448.5584)" width="15.821" height="15.8"/>
			</defs>
			<clipPath id="SVGID_8_">
				<use xlink:href="#SVGID_7_"  overflow="visible"/>
			</clipPath>
			<path clip-path="url(#SVGID_8_)" fill="#BEBFBF" d="M613.726,29.805c-2.912,3.246-7.912,3.517-11.162,0.604
				c-3.252-2.917-3.525-7.914-0.613-11.165c2.916-3.245,7.908-3.518,11.16-0.601C616.365,21.559,616.638,26.556,613.726,29.805"/>
			<path clip-path="url(#SVGID_8_)" fill="#C0C1C1" d="M613.585,29.681c-2.844,3.17-7.721,3.434-10.896,0.586
				c-3.176-2.846-3.443-7.723-0.602-10.896c2.85-3.172,7.725-3.438,10.898-0.588C616.162,21.628,616.429,26.506,613.585,29.681"/>
			<path clip-path="url(#SVGID_8_)" fill="#C3C4C4" d="M613.447,29.556c-2.775,3.096-7.537,3.354-10.635,0.574
				c-3.102-2.777-3.357-7.539-0.584-10.635c2.775-3.096,7.537-3.355,10.637-0.577C615.962,21.7,616.222,26.46,613.447,29.556"/>
			<path clip-path="url(#SVGID_8_)" fill="#C5C6C6" d="M613.31,29.431c-2.707,3.02-7.352,3.269-10.375,0.563
				c-3.02-2.713-3.279-7.358-0.568-10.375c2.705-3.02,7.35-3.271,10.371-0.563C615.761,21.767,616.017,26.414,613.31,29.431"/>
			<path clip-path="url(#SVGID_8_)" fill="#C7C9C9" d="M613.169,29.31c-2.637,2.941-7.164,3.186-10.111,0.544
				c-2.943-2.642-3.191-7.171-0.555-10.111c2.641-2.944,7.166-3.187,10.111-0.548C615.558,21.837,615.81,26.365,613.169,29.31"/>
			<path clip-path="url(#SVGID_8_)" fill="#CACBCB" d="M613.035,29.183c-2.572,2.864-6.98,3.105-9.85,0.531
				c-2.869-2.572-3.113-6.979-0.545-9.847c2.574-2.868,6.986-3.104,9.852-0.534C615.359,21.906,615.599,26.314,613.035,29.183"/>
			<path clip-path="url(#SVGID_8_)" fill="#CCCECE" d="M612.896,29.058c-2.504,2.79-6.795,3.023-9.586,0.52
				c-2.797-2.504-3.029-6.797-0.529-9.584c2.502-2.793,6.791-3.025,9.588-0.521C615.162,21.977,615.396,26.269,612.896,29.058"/>
			<path clip-path="url(#SVGID_8_)" fill="#CED0D0" d="M612.755,28.937c-2.432,2.713-6.607,2.938-9.322,0.501
				c-2.715-2.435-2.947-6.61-0.514-9.322c2.434-2.714,6.607-2.94,9.326-0.505C614.96,22.046,615.189,26.221,612.755,28.937"/>
			<path clip-path="url(#SVGID_8_)" fill="#D1D3D3" d="M612.615,28.813c-2.363,2.636-6.418,2.853-9.059,0.487
				c-2.641-2.367-2.861-6.424-0.5-9.061c2.367-2.637,6.424-2.855,9.063-0.49C614.761,22.117,614.982,26.175,612.615,28.813"/>
			<path clip-path="url(#SVGID_8_)" fill="#D3D5D5" d="M612.478,28.687c-2.295,2.559-6.236,2.773-8.795,0.475
				c-2.566-2.297-2.781-6.237-0.486-8.799c2.295-2.561,6.234-2.776,8.799-0.475C614.558,22.187,614.775,26.125,612.478,28.687"/>
		</g>
	</g>
	<polygon fill="#605F5E" points="603.902,27.373 606.378,24.603 603.605,22.119 604.99,20.582 607.757,23.068 610.24,20.298 
		611.777,21.677 609.3,24.447 612.07,26.929 610.687,28.468 607.921,25.981 605.437,28.752 	"/>
	<path fill="#231815" d="M611.527,21.691l-2.242,2.502l-0.244,0.266l0.271,0.24l2.504,2.244l-1.141,1.273l-2.504-2.248l-0.266-0.238
		l-0.24,0.265l-2.242,2.507l-1.271-1.143l2.242-2.501l0.24-0.268l-0.266-0.239l-2.504-2.246l1.139-1.27l2.502,2.244l0.266,0.239
		l0.24-0.265l2.24-2.503L611.527,21.691z M612.031,21.664l-1.807-1.617l-2.479,2.768l-2.773-2.484l-1.615,1.803l2.771,2.484
		l-2.482,2.77l1.801,1.617l2.486-2.768l2.768,2.482l1.619-1.801l-2.771-2.484L612.031,21.664z"/>
</g>
<g>
	<path fill="#4F4F4F" d="M616.337,73.199c-4.203,4.691-11.418,5.084-16.119,0.873c-4.691-4.211-5.088-11.429-0.881-16.119
		c4.203-4.689,11.418-5.081,16.113-0.871C620.15,61.292,620.546,68.506,616.337,73.199"/>
	<path fill="#AFAFAF" d="M614.085,71.178c-3.09,3.445-8.393,3.736-11.844,0.641c-3.451-3.094-3.744-8.396-0.648-11.842
		c3.088-3.447,8.393-3.732,11.84-0.64C616.884,62.428,617.173,67.732,614.085,71.178"/>
	<path fill="none" stroke="#939393" stroke-miterlimit="10" d="M614.085,71.178c-3.09,3.445-8.393,3.736-11.844,0.641
		c-3.451-3.094-3.744-8.396-0.648-11.842c3.088-3.447,8.393-3.732,11.84-0.64C616.884,62.428,617.173,67.732,614.085,71.178z"/>
	<g>
		<g>
			<defs>
				
					<rect id="SVGID_9_" x="599.927" y="57.675" transform="matrix(-0.7445 -0.6676 0.6676 -0.7445 1016.6027 520.193)" width="15.821" height="15.801"/>
			</defs>
			<clipPath id="SVGID_10_">
				<use xlink:href="#SVGID_9_"  overflow="visible"/>
			</clipPath>
			<path clip-path="url(#SVGID_10_)" fill="#BEBFBF" d="M613.726,70.857c-2.912,3.246-7.912,3.516-11.162,0.604
				c-3.252-2.916-3.525-7.914-0.613-11.165c2.916-3.246,7.908-3.518,11.16-0.601C616.365,62.611,616.638,67.607,613.726,70.857"/>
			<path clip-path="url(#SVGID_10_)" fill="#C0C1C1" d="M613.585,70.732c-2.844,3.17-7.721,3.434-10.896,0.586
				c-3.176-2.846-3.443-7.722-0.602-10.896c2.85-3.172,7.725-3.438,10.898-0.588C616.162,62.68,616.429,67.559,613.585,70.732"/>
			<path clip-path="url(#SVGID_10_)" fill="#C3C4C4" d="M613.447,70.607c-2.775,3.096-7.537,3.354-10.635,0.574
				c-3.102-2.777-3.357-7.539-0.584-10.634c2.775-3.096,7.537-3.355,10.637-0.577C615.962,62.751,616.222,67.512,613.447,70.607"/>
			<path clip-path="url(#SVGID_10_)" fill="#C5C6C6" d="M613.31,70.482c-2.707,3.02-7.352,3.27-10.375,0.563
				c-3.02-2.713-3.279-7.358-0.568-10.375c2.705-3.02,7.35-3.271,10.371-0.563C615.761,62.819,616.017,67.465,613.31,70.482"/>
			<path clip-path="url(#SVGID_10_)" fill="#C7C9C9" d="M613.169,70.361c-2.637,2.941-7.164,3.186-10.111,0.545
				c-2.943-2.643-3.191-7.171-0.555-10.112c2.641-2.944,7.166-3.187,10.111-0.547C615.558,62.889,615.81,67.416,613.169,70.361"/>
			<path clip-path="url(#SVGID_10_)" fill="#CACBCB" d="M613.035,70.234c-2.572,2.865-6.98,3.105-9.85,0.531
				c-2.869-2.572-3.113-6.979-0.545-9.846c2.574-2.869,6.986-3.104,9.852-0.534C615.359,62.958,615.599,67.365,613.035,70.234"/>
			<path clip-path="url(#SVGID_10_)" fill="#CCCECE" d="M612.896,70.109c-2.504,2.791-6.795,3.023-9.586,0.52
				c-2.797-2.504-3.029-6.796-0.529-9.583c2.502-2.793,6.791-3.025,9.588-0.521C615.162,63.029,615.396,67.32,612.896,70.109"/>
			<path clip-path="url(#SVGID_10_)" fill="#CED0D0" d="M612.755,69.988c-2.432,2.713-6.607,2.939-9.322,0.502
				c-2.715-2.436-2.947-6.611-0.514-9.323c2.434-2.714,6.607-2.94,9.326-0.504C614.96,63.098,615.189,67.273,612.755,69.988"/>
			<path clip-path="url(#SVGID_10_)" fill="#D1D3D3" d="M612.615,69.865c-2.363,2.635-6.418,2.852-9.059,0.486
				c-2.641-2.367-2.861-6.423-0.5-9.06c2.367-2.637,6.424-2.855,9.063-0.49C614.761,63.168,614.982,67.227,612.615,69.865"/>
			<path clip-path="url(#SVGID_10_)" fill="#D3D5D5" d="M612.478,69.738c-2.295,2.559-6.236,2.773-8.795,0.475
				c-2.566-2.297-2.781-6.237-0.486-8.797c2.295-2.562,6.234-2.777,8.799-0.476C614.558,63.239,614.775,67.176,612.478,69.738"/>
		</g>
	</g>
	<polygon fill="#605F5E" points="603.902,68.424 606.378,65.654 603.605,63.17 604.99,61.632 607.757,64.119 610.24,61.35 
		611.777,62.729 609.3,65.5 612.07,67.98 610.687,69.52 607.921,67.033 605.437,69.805 	"/>
	<path fill="#231815" d="M611.527,62.743l-2.242,2.501l-0.244,0.266l0.271,0.24l2.504,2.244l-1.141,1.273l-2.504-2.248l-0.266-0.238
		l-0.24,0.266l-2.242,2.506l-1.271-1.143l2.242-2.5l0.24-0.268l-0.266-0.24l-2.504-2.246l1.139-1.27l2.502,2.244l0.266,0.24
		l0.24-0.266l2.24-2.502L611.527,62.743z M612.031,62.715l-1.807-1.617l-2.479,2.768l-2.773-2.484l-1.615,1.803l2.771,2.484
		l-2.482,2.77l1.801,1.617l2.486-2.766l2.768,2.48l1.619-1.801l-2.771-2.484L612.031,62.715z"/>
</g>
<g>
	<path fill="#4F4F4F" d="M616.337,114.252c-4.203,4.691-11.418,5.082-16.119,0.873c-4.691-4.211-5.088-11.43-0.881-16.119
		c4.203-4.689,11.418-5.082,16.113-0.871C620.15,102.344,620.546,109.559,616.337,114.252"/>
	<path fill="#AFAFAF" d="M614.085,112.23c-3.09,3.445-8.393,3.734-11.844,0.639c-3.451-3.092-3.744-8.395-0.648-11.842
		c3.088-3.445,8.393-3.732,11.84-0.639C616.884,103.48,617.173,108.785,614.085,112.23"/>
	<path fill="none" stroke="#939393" stroke-miterlimit="10" d="M614.085,112.23c-3.09,3.445-8.393,3.734-11.844,0.639
		c-3.451-3.092-3.744-8.395-0.648-11.842c3.088-3.445,8.393-3.732,11.84-0.639C616.884,103.48,617.173,108.785,614.085,112.23z"/>
	<g>
		<g>
			<defs>
				
					<rect id="SVGID_11_" x="599.927" y="98.728" transform="matrix(-0.7446 -0.6675 0.6675 -0.7446 989.2402 591.775)" width="15.82" height="15.8"/>
			</defs>
			<clipPath id="SVGID_12_">
				<use xlink:href="#SVGID_11_"  overflow="visible"/>
			</clipPath>
			<path clip-path="url(#SVGID_12_)" fill="#BEBFBF" d="M613.726,111.908c-2.912,3.246-7.912,3.518-11.162,0.605
				c-3.252-2.918-3.525-7.914-0.613-11.166c2.916-3.246,7.908-3.516,11.16-0.6C616.365,103.664,616.638,108.66,613.726,111.908"/>
			<path clip-path="url(#SVGID_12_)" fill="#C0C1C1" d="M613.585,111.785c-2.844,3.17-7.721,3.434-10.896,0.586
				c-3.176-2.846-3.443-7.723-0.602-10.896c2.85-3.172,7.725-3.438,10.898-0.588C616.162,103.732,616.429,108.609,613.585,111.785"
				/>
			<path clip-path="url(#SVGID_12_)" fill="#C3C4C4" d="M613.447,111.66c-2.775,3.096-7.537,3.354-10.635,0.574
				c-3.102-2.777-3.357-7.539-0.584-10.635c2.775-3.096,7.537-3.355,10.637-0.578C615.962,103.803,616.222,108.564,613.447,111.66"
				/>
			<path clip-path="url(#SVGID_12_)" fill="#C5C6C6" d="M613.31,111.535c-2.707,3.02-7.352,3.268-10.375,0.563
				c-3.02-2.713-3.279-7.359-0.568-10.375c2.705-3.02,7.35-3.271,10.371-0.563C615.761,103.871,616.017,108.518,613.31,111.535"/>
			<path clip-path="url(#SVGID_12_)" fill="#C7C9C9" d="M613.169,111.414c-2.637,2.941-7.164,3.186-10.111,0.543
				c-2.943-2.641-3.191-7.17-0.555-10.111c2.641-2.943,7.166-3.186,10.111-0.547C615.558,103.941,615.81,108.469,613.169,111.414"/>
			<path clip-path="url(#SVGID_12_)" fill="#CACBCB" d="M613.035,111.287c-2.572,2.863-6.98,3.105-9.85,0.531
				c-2.869-2.572-3.113-6.98-0.545-9.848c2.574-2.869,6.986-3.104,9.852-0.533C615.359,104.01,615.599,108.418,613.035,111.287"/>
			<path clip-path="url(#SVGID_12_)" fill="#CCCECE" d="M612.896,111.162c-2.504,2.789-6.795,3.021-9.586,0.52
				c-2.797-2.504-3.029-6.797-0.529-9.584c2.502-2.793,6.791-3.025,9.588-0.521C615.162,104.082,615.396,108.373,612.896,111.162"/>
			<path clip-path="url(#SVGID_12_)" fill="#CED0D0" d="M612.755,111.041c-2.432,2.713-6.607,2.938-9.322,0.5
				c-2.715-2.434-2.947-6.609-0.514-9.322s6.607-2.939,9.326-0.504C614.96,104.15,615.189,108.324,612.755,111.041"/>
			<path clip-path="url(#SVGID_12_)" fill="#D1D3D3" d="M612.615,110.916c-2.363,2.637-6.418,2.854-9.059,0.488
				c-2.641-2.367-2.861-6.424-0.5-9.061c2.367-2.637,6.424-2.855,9.063-0.49C614.761,104.221,614.982,108.279,612.615,110.916"/>
			<path clip-path="url(#SVGID_12_)" fill="#D3D5D5" d="M612.478,110.791c-2.295,2.559-6.236,2.773-8.795,0.475
				c-2.566-2.297-2.781-6.238-0.486-8.799s6.234-2.777,8.799-0.475C614.558,104.291,614.775,108.229,612.478,110.791"/>
		</g>
	</g>
	<polygon fill="#605F5E" points="603.902,109.477 606.378,106.707 603.605,104.223 604.99,102.684 607.757,105.172 610.24,102.402 
		611.777,103.781 609.3,106.551 612.07,109.033 610.687,110.572 607.921,108.084 605.437,110.855 	"/>
	<path fill="#231815" d="M611.527,103.795l-2.242,2.502l-0.244,0.266l0.271,0.24l2.504,2.244l-1.141,1.273l-2.504-2.248
		l-0.266-0.238l-0.24,0.264l-2.242,2.508l-1.271-1.143l2.242-2.502l0.24-0.268l-0.266-0.238l-2.504-2.246l1.139-1.27l2.502,2.244
		l0.266,0.238l0.24-0.264l2.24-2.504L611.527,103.795z M612.031,103.768l-1.807-1.617l-2.479,2.768l-2.773-2.484l-1.615,1.803
		l2.771,2.484l-2.482,2.77l1.801,1.617l2.486-2.768l2.768,2.482l1.619-1.801l-2.771-2.484L612.031,103.768z"/>
</g>
<g>
	<path fill="#4F4F4F" d="M260.153,32.148c-4.203,4.691-11.419,5.083-16.119,0.873c-4.691-4.211-5.089-11.43-0.882-16.119
		c4.203-4.689,11.418-5.082,16.114-0.871C263.965,20.24,264.361,27.455,260.153,32.148"/>
	<path fill="#AFAFAF" d="M257.9,30.126c-3.09,3.445-8.393,3.734-11.844,0.64c-3.451-3.093-3.744-8.396-0.648-11.842
		c3.088-3.447,8.394-3.732,11.84-0.64C260.699,21.376,260.988,26.681,257.9,30.126"/>
	<path fill="none" stroke="#939393" stroke-miterlimit="10" d="M257.9,30.126c-3.09,3.445-8.393,3.734-11.844,0.64
		c-3.451-3.093-3.744-8.396-0.648-11.842c3.088-3.447,8.394-3.732,11.84-0.64C260.699,21.376,260.988,26.681,257.9,30.126z"/>
	<g>
		<g>
			<defs>
				
					<rect id="SVGID_13_" x="243.742" y="16.624" transform="matrix(-0.7445 -0.6676 0.6676 -0.7445 422.6474 210.7792)" width="15.821" height="15.8"/>
			</defs>
			<clipPath id="SVGID_14_">
				<use xlink:href="#SVGID_13_"  overflow="visible"/>
			</clipPath>
			<path clip-path="url(#SVGID_14_)" fill="#BEBFBF" d="M257.542,29.805c-2.912,3.246-7.913,3.517-11.162,0.604
				c-3.253-2.917-3.526-7.914-0.614-11.165c2.916-3.245,7.908-3.518,11.16-0.601C260.18,21.559,260.453,26.556,257.542,29.805"/>
			<path clip-path="url(#SVGID_14_)" fill="#C0C1C1" d="M257.4,29.681c-2.844,3.17-7.721,3.434-10.896,0.586
				c-3.175-2.846-3.442-7.723-0.601-10.896c2.849-3.172,7.724-3.438,10.898-0.588C259.978,21.628,260.245,26.506,257.4,29.681"/>
			<path clip-path="url(#SVGID_14_)" fill="#C3C4C4" d="M257.262,29.556c-2.774,3.096-7.537,3.354-10.635,0.574
				c-3.102-2.777-3.357-7.539-0.584-10.635c2.775-3.096,7.537-3.355,10.637-0.577C259.777,21.7,260.038,26.46,257.262,29.556"/>
			<path clip-path="url(#SVGID_14_)" fill="#C5C6C6" d="M257.126,29.431c-2.708,3.02-7.352,3.269-10.376,0.563
				c-3.019-2.713-3.278-7.358-0.568-10.375c2.705-3.02,7.35-3.271,10.371-0.563C259.576,21.767,259.833,26.414,257.126,29.431"/>
			<path clip-path="url(#SVGID_14_)" fill="#C7C9C9" d="M256.985,29.31c-2.638,2.941-7.165,3.186-10.112,0.544
				c-2.943-2.642-3.191-7.171-0.555-10.111c2.641-2.944,7.167-3.187,10.111-0.548C259.373,21.837,259.626,26.365,256.985,29.31"/>
			<path clip-path="url(#SVGID_14_)" fill="#CACBCB" d="M256.85,29.183c-2.572,2.864-6.98,3.105-9.85,0.531
				c-2.869-2.572-3.113-6.979-0.544-9.847c2.573-2.868,6.985-3.104,9.851-0.534C259.174,21.906,259.415,26.314,256.85,29.183"/>
			<path clip-path="url(#SVGID_14_)" fill="#CCCECE" d="M256.711,29.058c-2.504,2.79-6.795,3.023-9.586,0.52
				c-2.796-2.504-3.029-6.797-0.528-9.584c2.501-2.793,6.79-3.025,9.587-0.521C258.978,21.977,259.211,26.269,256.711,29.058"/>
			<path clip-path="url(#SVGID_14_)" fill="#CED0D0" d="M256.57,28.937c-2.431,2.713-6.607,2.938-9.322,0.501
				c-2.715-2.435-2.947-6.61-0.514-9.322c2.434-2.714,6.608-2.94,9.327-0.505C258.775,22.046,259.004,26.221,256.57,28.937"/>
			<path clip-path="url(#SVGID_14_)" fill="#D1D3D3" d="M256.43,28.813c-2.363,2.636-6.417,2.853-9.058,0.487
				c-2.642-2.367-2.862-6.424-0.501-9.061c2.367-2.637,6.424-2.855,9.063-0.49C258.576,22.117,258.797,26.175,256.43,28.813"/>
			<path clip-path="url(#SVGID_14_)" fill="#D3D5D5" d="M256.294,28.687c-2.295,2.559-6.237,2.773-8.796,0.475
				c-2.566-2.297-2.781-6.237-0.485-8.799c2.294-2.561,6.233-2.776,8.798-0.475C258.373,22.187,258.59,26.125,256.294,28.687"/>
		</g>
	</g>
	<polygon fill="#605F5E" points="247.717,27.373 250.193,24.603 247.421,22.119 248.805,20.582 251.573,23.068 254.056,20.298 
		255.592,21.677 253.115,24.447 255.885,26.929 254.503,28.468 251.736,25.981 249.252,28.752 	"/>
	<path fill="#231815" d="M255.343,21.691l-2.243,2.502l-0.244,0.266l0.271,0.24l2.505,2.244l-1.141,1.273l-2.505-2.248l-0.266-0.238
		l-0.24,0.265l-2.242,2.507l-1.271-1.143l2.242-2.501l0.24-0.268l-0.266-0.239l-2.504-2.246l1.139-1.27l2.502,2.244l0.266,0.239
		l0.24-0.265l2.24-2.503L255.343,21.691z M255.847,21.664l-1.807-1.617l-2.479,2.768l-2.773-2.484l-1.615,1.803l2.771,2.484
		l-2.482,2.77l1.802,1.617l2.485-2.768l2.768,2.482l1.619-1.801l-2.771-2.484L255.847,21.664z"/>
</g>
<g>
	<path fill="#4F4F4F" d="M260.153,68.973c-4.203,4.693-11.419,5.084-16.119,0.873c-4.691-4.211-5.089-11.429-0.882-16.119
		c4.203-4.688,11.418-5.082,16.114-0.871C263.965,57.065,264.361,64.279,260.153,68.973"/>
	<path fill="#AFAFAF" d="M257.9,66.951c-3.09,3.445-8.393,3.734-11.844,0.641c-3.451-3.092-3.744-8.396-0.648-11.842
		c3.088-3.447,8.394-3.732,11.84-0.64C260.699,58.202,260.988,63.506,257.9,66.951"/>
	<path fill="none" stroke="#939393" stroke-miterlimit="10" d="M257.9,66.951c-3.09,3.445-8.393,3.734-11.844,0.641
		c-3.451-3.092-3.744-8.396-0.648-11.842c3.088-3.447,8.394-3.732,11.84-0.64C260.699,58.202,260.988,63.506,257.9,66.951z"/>
	<g>
		<g>
			<defs>
				<polygon id="SVGID_15_" points="240.49,61.952 252.27,72.514 262.814,60.748 251.035,50.186 				"/>
			</defs>
			<clipPath id="SVGID_16_">
				<use xlink:href="#SVGID_15_"  overflow="visible"/>
			</clipPath>
			<path clip-path="url(#SVGID_16_)" fill="#BEBFBF" d="M257.542,66.631c-2.912,3.246-7.913,3.516-11.162,0.604
				c-3.253-2.916-3.526-7.914-0.614-11.165c2.916-3.246,7.908-3.518,11.16-0.601C260.18,58.384,260.453,63.381,257.542,66.631"/>
			<path clip-path="url(#SVGID_16_)" fill="#C0C1C1" d="M257.4,66.506c-2.844,3.17-7.721,3.434-10.896,0.586
				c-3.175-2.844-3.442-7.722-0.601-10.896c2.849-3.172,7.724-3.438,10.898-0.588C259.978,58.454,260.245,63.332,257.4,66.506"/>
			<path clip-path="url(#SVGID_16_)" fill="#C3C4C4" d="M257.262,66.381c-2.774,3.096-7.537,3.354-10.635,0.576
				c-3.102-2.779-3.357-7.541-0.584-10.636c2.775-3.096,7.537-3.355,10.637-0.577C259.777,58.525,260.038,63.286,257.262,66.381"/>
			<path clip-path="url(#SVGID_16_)" fill="#C5C6C6" d="M257.126,66.256c-2.708,3.02-7.352,3.27-10.376,0.563
				c-3.019-2.713-3.278-7.358-0.568-10.375c2.705-3.02,7.35-3.271,10.371-0.563C259.576,58.592,259.833,63.239,257.126,66.256"/>
			<path clip-path="url(#SVGID_16_)" fill="#C7C9C9" d="M256.985,66.135c-2.638,2.941-7.165,3.186-10.112,0.545
				c-2.943-2.641-3.191-7.171-0.555-10.112c2.641-2.944,7.167-3.187,10.111-0.548C259.373,58.664,259.626,63.19,256.985,66.135"/>
			<path clip-path="url(#SVGID_16_)" fill="#CACBCB" d="M256.85,66.008c-2.572,2.865-6.98,3.105-9.85,0.533
				c-2.869-2.574-3.113-6.981-0.544-9.848c2.573-2.869,6.985-3.104,9.851-0.534C259.174,58.731,259.415,63.139,256.85,66.008"/>
			<path clip-path="url(#SVGID_16_)" fill="#CCCECE" d="M256.711,65.883c-2.504,2.791-6.795,3.023-9.586,0.52
				c-2.796-2.503-3.029-6.796-0.528-9.583c2.501-2.793,6.79-3.025,9.587-0.521C258.978,58.802,259.211,63.094,256.711,65.883"/>
			<path clip-path="url(#SVGID_16_)" fill="#CED0D0" d="M256.57,65.762c-2.431,2.713-6.607,2.939-9.322,0.502
				c-2.715-2.434-2.947-6.611-0.514-9.323c2.434-2.714,6.608-2.94,9.327-0.505C258.775,58.873,259.004,63.046,256.57,65.762"/>
			<path clip-path="url(#SVGID_16_)" fill="#D1D3D3" d="M256.43,65.639c-2.363,2.635-6.417,2.852-9.058,0.486
				c-2.642-2.367-2.862-6.423-0.501-9.06c2.367-2.637,6.424-2.855,9.063-0.49C258.576,58.942,258.797,63,256.43,65.639"/>
			<path clip-path="url(#SVGID_16_)" fill="#D3D5D5" d="M256.294,65.512c-2.295,2.559-6.237,2.773-8.796,0.475
				c-2.566-2.296-2.781-6.237-0.485-8.798c2.294-2.561,6.233-2.776,8.798-0.475C258.373,59.012,258.59,62.95,256.294,65.512"/>
		</g>
	</g>
	<polygon fill="#605F5E" points="247.717,64.197 250.193,61.428 247.421,58.944 248.805,57.406 251.573,59.893 254.056,57.124 
		255.592,58.502 253.115,61.272 255.885,63.754 254.503,65.293 251.736,62.806 249.252,65.578 	"/>
	<path fill="#231815" d="M255.343,58.516l-2.243,2.502l-0.244,0.266l0.271,0.24l2.505,2.244l-1.141,1.273l-2.505-2.248l-0.266-0.238
		l-0.24,0.265l-2.242,2.506l-1.271-1.143l2.242-2.5l0.24-0.268l-0.266-0.239l-2.504-2.246l1.139-1.27l2.502,2.244l0.266,0.239
		l0.24-0.265l2.24-2.503L255.343,58.516z M255.847,58.489l-1.807-1.616l-2.479,2.767l-2.773-2.484l-1.615,1.803l2.771,2.484
		l-2.482,2.769l1.802,1.619l2.485-2.769l2.768,2.482l1.619-1.8l-2.771-2.484L255.847,58.489z"/>
</g>
<g>
	<path fill="#4F4F4F" d="M260.153,114.252c-4.203,4.691-11.419,5.082-16.119,0.873c-4.691-4.211-5.089-11.43-0.882-16.119
		c4.203-4.689,11.418-5.082,16.114-0.871C263.965,102.344,264.361,109.559,260.153,114.252"/>
	<path fill="#AFAFAF" d="M257.9,112.23c-3.09,3.445-8.393,3.734-11.844,0.639c-3.451-3.092-3.744-8.395-0.648-11.842
		c3.088-3.445,8.394-3.732,11.84-0.639C260.699,103.48,260.988,108.785,257.9,112.23"/>
	<path fill="none" stroke="#939393" stroke-miterlimit="10" d="M257.9,112.23c-3.09,3.445-8.393,3.734-11.844,0.639
		c-3.451-3.092-3.744-8.395-0.648-11.842c3.088-3.445,8.394-3.732,11.84-0.639C260.699,103.48,260.988,108.785,257.9,112.23z"/>
	<g>
		<g>
			<defs>
				
					<rect id="SVGID_17_" x="243.742" y="98.728" transform="matrix(-0.7446 -0.6675 0.6675 -0.7446 367.8484 354.008)" width="15.82" height="15.8"/>
			</defs>
			<clipPath id="SVGID_18_">
				<use xlink:href="#SVGID_17_"  overflow="visible"/>
			</clipPath>
			<path clip-path="url(#SVGID_18_)" fill="#BEBFBF" d="M257.542,111.908c-2.912,3.246-7.913,3.518-11.162,0.605
				c-3.253-2.918-3.526-7.914-0.614-11.166c2.916-3.246,7.908-3.516,11.16-0.6C260.18,103.664,260.453,108.66,257.542,111.908"/>
			<path clip-path="url(#SVGID_18_)" fill="#C0C1C1" d="M257.4,111.785c-2.844,3.17-7.721,3.434-10.896,0.586
				c-3.175-2.846-3.442-7.723-0.601-10.896c2.849-3.172,7.724-3.438,10.898-0.588C259.978,103.732,260.245,108.609,257.4,111.785"/>
			<path clip-path="url(#SVGID_18_)" fill="#C3C4C4" d="M257.262,111.66c-2.774,3.096-7.537,3.354-10.635,0.574
				c-3.102-2.777-3.357-7.539-0.584-10.635c2.775-3.096,7.537-3.355,10.637-0.578C259.777,103.803,260.038,108.564,257.262,111.66"
				/>
			<path clip-path="url(#SVGID_18_)" fill="#C5C6C6" d="M257.126,111.535c-2.708,3.02-7.352,3.268-10.376,0.563
				c-3.019-2.713-3.278-7.359-0.568-10.375c2.705-3.02,7.35-3.271,10.371-0.563C259.576,103.871,259.833,108.518,257.126,111.535"/>
			<path clip-path="url(#SVGID_18_)" fill="#C7C9C9" d="M256.985,111.414c-2.638,2.941-7.165,3.186-10.112,0.543
				c-2.943-2.641-3.191-7.17-0.555-10.111c2.641-2.943,7.167-3.186,10.111-0.547C259.373,103.941,259.626,108.469,256.985,111.414"
				/>
			<path clip-path="url(#SVGID_18_)" fill="#CACBCB" d="M256.85,111.287c-2.572,2.863-6.98,3.105-9.85,0.531
				c-2.869-2.572-3.113-6.98-0.544-9.848c2.573-2.869,6.985-3.104,9.851-0.533C259.174,104.01,259.415,108.418,256.85,111.287"/>
			<path clip-path="url(#SVGID_18_)" fill="#CCCECE" d="M256.711,111.162c-2.504,2.789-6.795,3.021-9.586,0.52
				c-2.796-2.504-3.029-6.797-0.528-9.584c2.501-2.793,6.79-3.025,9.587-0.521C258.978,104.082,259.211,108.373,256.711,111.162"/>
			<path clip-path="url(#SVGID_18_)" fill="#CED0D0" d="M256.57,111.041c-2.431,2.713-6.607,2.938-9.322,0.5
				c-2.715-2.434-2.947-6.609-0.514-9.322s6.608-2.939,9.327-0.504C258.775,104.15,259.004,108.324,256.57,111.041"/>
			<path clip-path="url(#SVGID_18_)" fill="#D1D3D3" d="M256.43,110.916c-2.363,2.637-6.417,2.854-9.058,0.488
				c-2.642-2.367-2.862-6.424-0.501-9.061c2.367-2.637,6.424-2.855,9.063-0.49C258.576,104.221,258.797,108.279,256.43,110.916"/>
			<path clip-path="url(#SVGID_18_)" fill="#D3D5D5" d="M256.294,110.791c-2.295,2.559-6.237,2.773-8.796,0.475
				c-2.566-2.297-2.781-6.238-0.485-8.799c2.294-2.561,6.233-2.777,8.798-0.475C258.373,104.291,258.59,108.229,256.294,110.791"/>
		</g>
	</g>
	<polygon fill="#605F5E" points="247.717,109.477 250.193,106.707 247.421,104.223 248.805,102.684 251.573,105.172 
		254.056,102.402 255.592,103.781 253.115,106.551 255.885,109.033 254.503,110.572 251.736,108.084 249.252,110.855 	"/>
	<path fill="#231815" d="M255.343,103.795l-2.243,2.502l-0.244,0.266l0.271,0.24l2.505,2.244l-1.141,1.273l-2.505-2.248
		l-0.266-0.238l-0.24,0.264l-2.242,2.508l-1.271-1.143l2.242-2.502l0.24-0.268l-0.266-0.238l-2.504-2.246l1.139-1.27l2.502,2.244
		l0.266,0.238l0.24-0.264l2.24-2.504L255.343,103.795z M255.847,103.768l-1.807-1.617l-2.479,2.768l-2.773-2.484l-1.615,1.803
		l2.771,2.484l-2.482,2.77l1.802,1.617l2.485-2.768l2.768,2.482l1.619-1.801l-2.771-2.484L255.847,103.768z"/>
</g>
<g>
	<circle fill="#111111" cx="422.49" cy="63.069" r="46.188"/>
	<polygon fill="#6D6D6D" points="461.722,86.889 439.632,86.773 453.065,63.505 453.056,63.488 465.305,41.891 462.753,38.664 
		450.876,59.711 437.442,36.443 436.964,36.443 444.66,22.238 441.33,20.433 432.657,36.443 406.195,36.443 406.173,36.482 
		382.76,36.75 380.299,40.811 403.97,40.297 390.572,63.501 379.478,82.018 381.353,84.637 392.754,67.283 406.195,90.564 
		406.525,90.564 414.866,109.008 419.737,109.176 410.779,90.564 437.442,90.564 437.452,90.547 461.702,90.67 	"/>
</g>
<g>
	<circle fill="#111111" cx="804.143" cy="63.069" r="46.188"/>
	<polygon fill="#6D6D6D" points="843.373,86.889 821.283,86.773 834.717,63.505 834.707,63.488 846.957,41.891 844.404,38.664 
		832.527,59.711 819.094,36.443 818.615,36.443 826.313,22.238 822.982,20.433 814.309,36.443 787.848,36.443 787.824,36.482 
		764.412,36.75 761.951,40.811 785.621,40.297 772.225,63.501 761.129,82.018 763.004,84.637 774.406,67.283 787.848,90.564 
		788.178,90.564 796.518,109.008 801.389,109.176 792.432,90.564 819.094,90.564 819.104,90.547 843.354,90.67 	"/>
</g>
<g>
	<circle fill="#111111" cx="1139.143" cy="63.069" r="46.188"/>
	<polygon fill="#6D6D6D" points="1178.373,86.889 1156.283,86.773 1169.717,63.505 1169.707,63.488 1181.957,41.891 
		1179.404,38.664 1167.527,59.711 1154.094,36.443 1153.615,36.443 1161.313,22.238 1157.982,20.433 1149.309,36.443 
		1122.848,36.443 1122.824,36.482 1099.412,36.75 1096.951,40.811 1120.621,40.297 1107.225,63.501 1096.129,82.018 
		1098.004,84.637 1109.406,67.283 1122.848,90.564 1123.178,90.564 1131.518,109.008 1136.389,109.176 1127.432,90.564 
		1154.094,90.564 1154.104,90.547 1178.354,90.67 	"/>
</g>
<path fill="#959999" d="M228.592,75.521c-0.553,0-1-0.428-1-0.959V47.109c0-0.527,0.447-0.959,1-0.959h14.673V8.793
	c0-0.529-0.448-0.958-1-0.958H14.257c-0.552,0-1,0.429-1,0.958V113.91c0,0.529,0.448,0.957,1,0.957h228.008c0.552,0,1-0.428,1-0.957
	V75.521H228.592z"/>
</svg>
