<?xml version="1.0" encoding="utf-8"?>
<!-- Generator: Adobe Illustrator 16.0.0, SVG Export Plug-In . SVG Version: 6.00 Build 0)  -->
<!DOCTYPE svg PUBLIC "-//W3C//DTD SVG 1.1//EN" "http://www.w3.org/Graphics/SVG/1.1/DTD/svg11.dtd">
<svg version="1.1" id="图层_1" xmlns="http://www.w3.org/2000/svg" xmlns:xlink="http://www.w3.org/1999/xlink" x="0px" y="0px"
	 width="1417.32px" height="252.28px" viewBox="0 0 1417.32 252.28" enable-background="new 0 0 1417.32 252.28"
	 xml:space="preserve">
<rect x="-0.001" y="-0.001" fill="#3B3C3F" width="1417.323" height="252.283"/>
<linearGradient id="SVGID_1_" gradientUnits="userSpaceOnUse" x1="4085.3574" y1="126.1396" x2="4156.2236" y2="126.1396" gradientTransform="matrix(1 0 0 1 -4085.3594 0)">
	<stop  offset="0" style="stop-color:#343535"/>
	<stop  offset="0.7778" style="stop-color:#343535"/>
	<stop  offset="0.8835" style="stop-color:#636666"/>
	<stop  offset="1" style="stop-color:#030000"/>
</linearGradient>
<rect x="-0.001" y="-0.001" fill="url(#SVGID_1_)" width="70.866" height="252.283"/>
<g>
	<g>
		<g>
			<path fill="#B7B6B6" d="M45.286,213.129c0,3.932-3.385,7.119-7.562,7.119H21.41c-4.177,0-7.563-3.188-7.563-7.119l0,0
				c0-3.932,3.386-7.119,7.563-7.119h16.314C41.9,206.01,45.286,209.197,45.286,213.129L45.286,213.129z"/>
			<path fill="#0E0D0D" d="M44.392,212.926c0,3.82-3.29,6.916-7.346,6.916H21.195c-4.059,0-7.348-3.096-7.348-6.916l0,0
				c0-3.82,3.29-6.916,7.348-6.916h15.851C41.102,206.01,44.392,209.105,44.392,212.926L44.392,212.926z"/>
		</g>
		<g>
			<path fill="#AFAEAE" d="M19.301,213.129c0,5.367,4.596,9.717,10.266,9.717c5.67,0,10.266-4.35,10.266-9.717
				c0-5.365-4.596-9.717-10.266-9.717C23.897,203.412,19.301,207.764,19.301,213.129"/>
			<ellipse fill="none" stroke="#929292" stroke-miterlimit="10" cx="29.567" cy="213.129" rx="10.266" ry="9.717"/>
			<path fill="#AFAEAE" d="M22.023,213.129c0,3.943,3.377,7.141,7.543,7.141c4.166,0,7.545-3.197,7.545-7.141
				s-3.379-7.141-7.545-7.141C25.401,205.988,22.023,209.186,22.023,213.129"/>
			<ellipse fill="none" stroke="#929292" stroke-miterlimit="10" cx="29.567" cy="213.129" rx="7.544" ry="7.141"/>
			<g>
				<g>
					<defs>
						<rect id="SVGID_2_" x="22.458" y="206.4" width="14.22" height="13.457"/>
					</defs>
					<clipPath id="SVGID_3_">
						<use xlink:href="#SVGID_2_"  overflow="visible"/>
					</clipPath>
					<path clip-path="url(#SVGID_3_)" fill="#BEBEBD" d="M22.458,213.129c0,3.717,3.183,6.729,7.109,6.729
						c3.927,0,7.111-3.012,7.111-6.729s-3.184-6.729-7.111-6.729C25.641,206.4,22.458,209.412,22.458,213.129"/>
					<path clip-path="url(#SVGID_3_)" fill="#C0C0C0" d="M22.625,213.129c0,3.627,3.109,6.57,6.941,6.57
						c3.834,0,6.942-2.943,6.942-6.57c0-3.629-3.108-6.57-6.942-6.57C25.734,206.559,22.625,209.5,22.625,213.129"/>
					<path clip-path="url(#SVGID_3_)" fill="#C2C3C3" d="M22.792,213.129c0,3.541,3.034,6.414,6.774,6.414
						c3.744,0,6.776-2.873,6.776-6.414s-3.032-6.412-6.776-6.412C25.826,206.717,22.792,209.588,22.792,213.129"/>
					<path clip-path="url(#SVGID_3_)" fill="#C4C5C4" d="M22.96,213.129c0,3.453,2.957,6.254,6.606,6.254
						c3.65,0,6.609-2.801,6.609-6.254s-2.958-6.254-6.609-6.254C25.917,206.875,22.96,209.676,22.96,213.129"/>
					<path clip-path="url(#SVGID_3_)" fill="#C6C8C8" d="M23.126,213.129c0,3.365,2.885,6.096,6.44,6.096
						c3.558,0,6.441-2.73,6.441-6.096c0-3.367-2.883-6.096-6.441-6.096C26.012,207.033,23.126,209.762,23.126,213.129"/>
					<path clip-path="url(#SVGID_3_)" fill="#C9CACB" d="M23.294,213.129c0,3.279,2.808,5.938,6.272,5.938
						c3.465,0,6.274-2.658,6.274-5.938s-2.81-5.938-6.274-5.938C26.102,207.191,23.294,209.85,23.294,213.129"/>
					<path clip-path="url(#SVGID_3_)" fill="#CBCDCD" d="M23.46,213.129c0,3.191,2.735,5.779,6.106,5.779
						c3.373,0,6.106-2.588,6.106-5.779s-2.733-5.781-6.106-5.781C26.195,207.348,23.46,209.938,23.46,213.129"/>
					<path clip-path="url(#SVGID_3_)" fill="#CCCFD0" d="M23.626,213.129c0,3.105,2.662,5.621,5.94,5.621
						c3.279,0,5.939-2.516,5.939-5.621c0-3.104-2.66-5.621-5.939-5.621C26.288,207.508,23.626,210.025,23.626,213.129"/>
					<path clip-path="url(#SVGID_3_)" fill="#D0D2D2" d="M23.795,213.129c0,3.016,2.584,5.463,5.771,5.463
						c3.188,0,5.772-2.447,5.772-5.463c0-3.018-2.584-5.463-5.772-5.463C26.379,207.666,23.795,210.111,23.795,213.129"/>
					<path clip-path="url(#SVGID_3_)" fill="#D2D4D5" d="M23.962,213.129c0,2.928,2.51,5.305,5.604,5.305
						c3.098,0,5.604-2.377,5.604-5.305c0-2.93-2.507-5.305-5.604-5.305C26.472,207.824,23.962,210.199,23.962,213.129"/>
				</g>
			</g>
			<polygon fill="#605F5E" points="30.496,217.176 30.496,214.008 33.841,214.008 33.841,212.25 30.496,212.25 30.496,209.082 
				28.638,209.082 28.638,212.25 25.292,212.25 25.292,214.008 28.638,214.008 28.638,217.176 			"/>
			<path fill="#221714" d="M30.334,209.236v2.859v0.307h0.322h3.025v1.453h-3.025h-0.322v0.303v2.863h-1.536v-2.863v-0.303h-0.32
				h-3.025v-1.453h3.025h0.32v-0.307v-2.859H30.334z M28.479,212.096h-3.348v2.063h3.348v3.168h2.178v-3.168h3.346v-2.063h-3.346
				v-3.164h-2.178V212.096z"/>
		</g>
	</g>
	<g>
		<g>
			<path fill="#B7B6B6" d="M45.286,37.128c0,3.932-3.385,7.119-7.562,7.119H21.41c-4.177,0-7.563-3.188-7.563-7.119l0,0
				c0-3.931,3.386-7.117,7.563-7.117h16.314C41.9,30.011,45.286,33.197,45.286,37.128L45.286,37.128z"/>
			<path fill="#0E0D0D" d="M44.392,36.926c0,3.819-3.29,6.916-7.346,6.916H21.195c-4.059,0-7.348-3.097-7.348-6.916l0,0
				c0-3.82,3.29-6.915,7.348-6.915h15.851C41.102,30.011,44.392,33.106,44.392,36.926L44.392,36.926z"/>
		</g>
		<path fill="#AFAEAE" d="M19.301,37.129c0,5.366,4.596,9.716,10.266,9.716c5.67,0,10.266-4.35,10.266-9.716
			c0-5.367-4.596-9.718-10.266-9.718C23.897,27.412,19.301,31.762,19.301,37.129"/>
		<ellipse fill="none" stroke="#929292" stroke-miterlimit="10" cx="29.567" cy="37.129" rx="10.266" ry="9.716"/>
		<path fill="#AFAEAE" d="M22.023,37.129c0,3.943,3.377,7.14,7.543,7.14c4.166,0,7.545-3.197,7.545-7.14
			c0-3.943-3.379-7.141-7.545-7.141C25.401,29.988,22.023,33.186,22.023,37.129"/>
		<ellipse fill="none" stroke="#929292" stroke-miterlimit="10" cx="29.567" cy="37.129" rx="7.544" ry="7.14"/>
		<g>
			<g>
				<defs>
					<rect id="SVGID_4_" x="22.458" y="30.399" width="14.22" height="13.458"/>
				</defs>
				<clipPath id="SVGID_5_">
					<use xlink:href="#SVGID_4_"  overflow="visible"/>
				</clipPath>
				<path clip-path="url(#SVGID_5_)" fill="#BEBEBD" d="M22.458,37.129c0,3.716,3.183,6.728,7.109,6.728
					c3.927,0,7.111-3.012,7.111-6.728c0-3.717-3.184-6.73-7.111-6.73C25.641,30.399,22.458,33.413,22.458,37.129"/>
				<path clip-path="url(#SVGID_5_)" fill="#C0C0C0" d="M22.625,37.129c0,3.627,3.109,6.569,6.941,6.569
					c3.834,0,6.942-2.942,6.942-6.569c0-3.629-3.108-6.571-6.942-6.571C25.734,30.558,22.625,33.5,22.625,37.129"/>
				<path clip-path="url(#SVGID_5_)" fill="#C2C3C3" d="M22.792,37.129c0,3.54,3.034,6.412,6.774,6.412
					c3.744,0,6.776-2.872,6.776-6.412c0-3.542-3.032-6.413-6.776-6.413C25.826,30.716,22.792,33.587,22.792,37.129"/>
				<path clip-path="url(#SVGID_5_)" fill="#C4C5C4" d="M22.96,37.129c0,3.452,2.957,6.253,6.606,6.253
					c3.65,0,6.609-2.801,6.609-6.253c0-3.455-2.958-6.255-6.609-6.255C25.917,30.875,22.96,33.674,22.96,37.129"/>
				<path clip-path="url(#SVGID_5_)" fill="#C6C8C8" d="M23.126,37.129c0,3.364,2.885,6.095,6.44,6.095
					c3.558,0,6.441-2.73,6.441-6.095c0-3.367-2.883-6.097-6.441-6.097C26.012,31.033,23.126,33.762,23.126,37.129"/>
				<path clip-path="url(#SVGID_5_)" fill="#C9CACB" d="M23.294,37.129c0,3.278,2.808,5.936,6.272,5.936
					c3.465,0,6.274-2.657,6.274-5.936c0-3.28-2.81-5.938-6.274-5.938C26.102,31.191,23.294,33.849,23.294,37.129"/>
				<path clip-path="url(#SVGID_5_)" fill="#CBCDCD" d="M23.46,37.129c0,3.191,2.735,5.779,6.106,5.779
					c3.373,0,6.106-2.588,6.106-5.779c0-3.192-2.733-5.782-6.106-5.782C26.195,31.347,23.46,33.937,23.46,37.129"/>
				<path clip-path="url(#SVGID_5_)" fill="#CCCFD0" d="M23.626,37.129c0,3.103,2.662,5.62,5.94,5.62c3.279,0,5.94-2.518,5.94-5.62
					c0-3.105-2.661-5.622-5.94-5.622C26.288,31.507,23.626,34.024,23.626,37.129"/>
				<path clip-path="url(#SVGID_5_)" fill="#D0D2D2" d="M23.795,37.129c0,3.015,2.584,5.462,5.771,5.462
					c3.188,0,5.772-2.447,5.772-5.462c0-3.019-2.584-5.464-5.772-5.464C26.379,31.666,23.795,34.111,23.795,37.129"/>
				<path clip-path="url(#SVGID_5_)" fill="#D2D4D5" d="M23.962,37.129c0,2.928,2.51,5.304,5.604,5.304
					c3.098,0,5.604-2.376,5.604-5.304c0-2.931-2.507-5.305-5.604-5.305C26.472,31.825,23.962,34.199,23.962,37.129"/>
			</g>
		</g>
		<polygon fill="#605F5E" points="30.496,41.175 30.496,38.009 33.841,38.009 33.841,36.25 30.496,36.25 30.496,33.083 
			28.638,33.083 28.638,36.25 25.292,36.25 25.292,38.009 28.638,38.009 28.638,41.175 		"/>
		<path fill="#221714" d="M30.334,33.236v2.861v0.305h0.322h3.025v1.453h-3.025h-0.322v0.304v2.862h-1.536v-2.862v-0.304h-0.32
			h-3.025v-1.453h3.025h0.32v-0.305v-2.861H30.334z M28.479,36.097h-3.348v2.062h3.348v3.167h2.178v-3.167h3.346v-2.062h-3.346
			v-3.166h-2.178V36.097z"/>
	</g>
</g>
<g>
	
		<linearGradient id="SVGID_6_" gradientUnits="userSpaceOnUse" x1="-7772.1309" y1="126.1396" x2="-7701.2656" y2="126.1396" gradientTransform="matrix(-1 0 0 1 -6354.8096 0)">
		<stop  offset="0" style="stop-color:#343535"/>
		<stop  offset="0.7778" style="stop-color:#343535"/>
		<stop  offset="0.8835" style="stop-color:#636666"/>
		<stop  offset="1" style="stop-color:#030000"/>
	</linearGradient>
	<rect x="1346.456" y="-0.001" fill="url(#SVGID_6_)" width="70.865" height="252.283"/>
	<g>
		<g>
			<g>
				<path fill="#B7B6B6" d="M1372.034,213.129c0,3.932,3.386,7.119,7.563,7.119h16.314c4.176,0,7.563-3.188,7.563-7.119l0,0
					c0-3.932-3.387-7.119-7.563-7.119h-16.314C1375.42,206.01,1372.034,209.197,1372.034,213.129L1372.034,213.129z"/>
				<path fill="#0E0D0D" d="M1372.929,212.926c0,3.82,3.289,6.916,7.344,6.916h15.853c4.06,0,7.349-3.096,7.349-6.916l0,0
					c0-3.82-3.289-6.916-7.349-6.916h-15.853C1376.218,206.01,1372.929,209.105,1372.929,212.926L1372.929,212.926z"/>
			</g>
			<g>
				<path fill="#AFAEAE" d="M1398.02,213.129c0,5.367-4.597,9.717-10.266,9.717c-5.67,0-10.267-4.35-10.267-9.717
					c0-5.365,4.597-9.717,10.267-9.717C1393.423,203.412,1398.02,207.764,1398.02,213.129"/>
				<ellipse fill="none" stroke="#929292" stroke-miterlimit="10" cx="1387.753" cy="213.129" rx="10.266" ry="9.717"/>
				<path fill="#AFAEAE" d="M1395.297,213.129c0,3.943-3.378,7.141-7.543,7.141c-4.166,0-7.545-3.197-7.545-7.141
					s3.379-7.141,7.545-7.141C1391.919,205.988,1395.297,209.186,1395.297,213.129"/>
				<ellipse fill="none" stroke="#929292" stroke-miterlimit="10" cx="1387.753" cy="213.129" rx="7.544" ry="7.141"/>
				<g>
					<g>
						<defs>
							<rect id="SVGID_7_" x="1380.643" y="206.4" width="14.22" height="13.457"/>
						</defs>
						<clipPath id="SVGID_8_">
							<use xlink:href="#SVGID_7_"  overflow="visible"/>
						</clipPath>
						<path clip-path="url(#SVGID_8_)" fill="#BEBEBD" d="M1394.862,213.129c0,3.717-3.183,6.729-7.108,6.729
							c-3.929,0-7.111-3.012-7.111-6.729s3.183-6.729,7.111-6.729C1391.68,206.4,1394.862,209.412,1394.862,213.129"/>
						<path clip-path="url(#SVGID_8_)" fill="#C0C0C0" d="M1394.694,213.129c0,3.627-3.108,6.57-6.94,6.57
							c-3.835,0-6.942-2.943-6.942-6.57c0-3.629,3.107-6.57,6.942-6.57C1391.586,206.559,1394.694,209.5,1394.694,213.129"/>
						<path clip-path="url(#SVGID_8_)" fill="#C2C3C3" d="M1394.528,213.129c0,3.541-3.034,6.414-6.774,6.414
							c-3.743,0-6.776-2.873-6.776-6.414s3.033-6.412,6.776-6.412C1391.494,206.717,1394.528,209.588,1394.528,213.129"/>
						<path clip-path="url(#SVGID_8_)" fill="#C4C5C4" d="M1394.359,213.129c0,3.453-2.956,6.254-6.605,6.254
							c-3.65,0-6.608-2.801-6.608-6.254s2.958-6.254,6.608-6.254C1391.403,206.875,1394.359,209.676,1394.359,213.129"/>
						<path clip-path="url(#SVGID_8_)" fill="#C6C8C8" d="M1394.192,213.129c0,3.365-2.883,6.096-6.438,6.096
							c-3.558,0-6.44-2.73-6.44-6.096c0-3.367,2.883-6.096,6.44-6.096C1391.31,207.033,1394.192,209.762,1394.192,213.129"/>
						<path clip-path="url(#SVGID_8_)" fill="#C9CACB" d="M1394.024,213.129c0,3.279-2.807,5.938-6.271,5.938
							c-3.465,0-6.274-2.658-6.274-5.938s2.81-5.938,6.274-5.938C1391.218,207.191,1394.024,209.85,1394.024,213.129"/>
						<path clip-path="url(#SVGID_8_)" fill="#CBCDCD" d="M1393.859,213.129c0,3.191-2.734,5.779-6.105,5.779
							c-3.373,0-6.106-2.588-6.106-5.779s2.733-5.781,6.106-5.781C1391.125,207.348,1393.859,209.938,1393.859,213.129"/>
						<path clip-path="url(#SVGID_8_)" fill="#CCCFD0" d="M1393.692,213.129c0,3.105-2.66,5.621-5.938,5.621
							s-5.939-2.516-5.939-5.621c0-3.104,2.661-5.621,5.939-5.621S1393.692,210.025,1393.692,213.129"/>
						<path clip-path="url(#SVGID_8_)" fill="#D0D2D2" d="M1393.524,213.129c0,3.016-2.584,5.463-5.771,5.463
							c-3.189,0-5.773-2.447-5.773-5.463c0-3.018,2.584-5.463,5.773-5.463C1390.94,207.666,1393.524,210.111,1393.524,213.129"/>
						<path clip-path="url(#SVGID_8_)" fill="#D2D4D5" d="M1393.356,213.129c0,2.928-2.509,5.305-5.603,5.305
							c-3.098,0-5.605-2.377-5.605-5.305c0-2.93,2.508-5.305,5.605-5.305C1390.848,207.824,1393.356,210.199,1393.356,213.129"/>
					</g>
				</g>
				<polygon fill="#605F5E" points="1386.824,217.176 1386.824,214.008 1383.478,214.008 1383.478,212.25 1386.824,212.25 
					1386.824,209.082 1388.683,209.082 1388.683,212.25 1392.026,212.25 1392.026,214.008 1388.683,214.008 1388.683,217.176 				
					"/>
				<path fill="#221714" d="M1388.521,209.236v2.859v0.307h0.32h3.023v1.453h-3.023h-0.32v0.303v2.863h-1.536v-2.863v-0.303h-0.321
					h-3.025v-1.453h3.025h0.321v-0.307v-2.859H1388.521z M1388.842,208.932h-2.178v3.164h-3.347v2.063h3.347v3.168h2.178v-3.168
					h3.347v-2.063h-3.347V208.932z"/>
			</g>
		</g>
		<g>
			<g>
				<path fill="#B7B6B6" d="M1372.034,37.128c0,3.932,3.386,7.119,7.562,7.119h16.315c4.176,0,7.563-3.188,7.563-7.119l0,0
					c0-3.931-3.387-7.117-7.563-7.117h-16.315C1375.42,30.011,1372.034,33.197,1372.034,37.128L1372.034,37.128z"/>
				<path fill="#0E0D0D" d="M1372.929,36.926c0,3.819,3.288,6.916,7.344,6.916h15.853c4.06,0,7.349-3.097,7.349-6.916l0,0
					c0-3.82-3.289-6.915-7.349-6.915h-15.853C1376.217,30.011,1372.929,33.106,1372.929,36.926L1372.929,36.926z"/>
			</g>
			<path fill="#AFAEAE" d="M1398.02,37.129c0,5.366-4.597,9.716-10.266,9.716c-5.67,0-10.267-4.35-10.267-9.716
				c0-5.367,4.597-9.718,10.267-9.718C1393.423,27.412,1398.02,31.762,1398.02,37.129"/>
			<ellipse fill="none" stroke="#929292" stroke-miterlimit="10" cx="1387.753" cy="37.129" rx="10.266" ry="9.716"/>
			<path fill="#AFAEAE" d="M1395.297,37.129c0,3.943-3.378,7.14-7.543,7.14c-4.166,0-7.546-3.197-7.546-7.14
				c0-3.943,3.38-7.141,7.546-7.141C1391.919,29.988,1395.297,33.186,1395.297,37.129"/>
			<ellipse fill="none" stroke="#929292" stroke-miterlimit="10" cx="1387.752" cy="37.129" rx="7.544" ry="7.14"/>
			<g>
				<g>
					<defs>
						<rect id="SVGID_9_" x="1380.642" y="30.399" width="14.221" height="13.458"/>
					</defs>
					<clipPath id="SVGID_10_">
						<use xlink:href="#SVGID_9_"  overflow="visible"/>
					</clipPath>
					<path clip-path="url(#SVGID_10_)" fill="#BEBEBD" d="M1394.862,37.129c0,3.716-3.183,6.728-7.108,6.728
						c-3.929,0-7.112-3.012-7.112-6.728c0-3.717,3.184-6.73,7.112-6.73C1391.68,30.399,1394.862,33.413,1394.862,37.129"/>
					<path clip-path="url(#SVGID_10_)" fill="#C0C0C0" d="M1394.694,37.129c0,3.627-3.108,6.569-6.94,6.569
						c-3.835,0-6.942-2.942-6.942-6.569c0-3.629,3.107-6.571,6.942-6.571C1391.586,30.558,1394.694,33.5,1394.694,37.129"/>
					<path clip-path="url(#SVGID_10_)" fill="#C2C3C3" d="M1394.528,37.129c0,3.54-3.034,6.412-6.774,6.412
						c-3.743,0-6.776-2.872-6.776-6.412c0-3.542,3.033-6.413,6.776-6.413C1391.494,30.716,1394.528,33.587,1394.528,37.129"/>
					<path clip-path="url(#SVGID_10_)" fill="#C4C5C4" d="M1394.359,37.129c0,3.452-2.956,6.253-6.605,6.253
						c-3.65,0-6.608-2.801-6.608-6.253c0-3.455,2.958-6.255,6.608-6.255C1391.403,30.875,1394.359,33.674,1394.359,37.129"/>
					<path clip-path="url(#SVGID_10_)" fill="#C6C8C8" d="M1394.192,37.129c0,3.364-2.883,6.095-6.438,6.095
						c-3.558,0-6.441-2.73-6.441-6.095c0-3.367,2.884-6.097,6.441-6.097C1391.31,31.033,1394.192,33.762,1394.192,37.129"/>
					<path clip-path="url(#SVGID_10_)" fill="#C9CACB" d="M1394.024,37.129c0,3.278-2.807,5.936-6.271,5.936
						c-3.465,0-6.274-2.657-6.274-5.936c0-3.28,2.81-5.938,6.274-5.938C1391.218,31.191,1394.024,33.849,1394.024,37.129"/>
					<path clip-path="url(#SVGID_10_)" fill="#CBCDCD" d="M1393.859,37.129c0,3.191-2.734,5.779-6.105,5.779
						c-3.373,0-6.106-2.588-6.106-5.779c0-3.192,2.733-5.782,6.106-5.782C1391.125,31.347,1393.859,33.937,1393.859,37.129"/>
					<path clip-path="url(#SVGID_10_)" fill="#CCCFD0" d="M1393.692,37.129c0,3.103-2.66,5.62-5.938,5.62s-5.939-2.518-5.939-5.62
						c0-3.105,2.661-5.622,5.939-5.622S1393.692,34.024,1393.692,37.129"/>
					<path clip-path="url(#SVGID_10_)" fill="#D0D2D2" d="M1393.524,37.129c0,3.015-2.584,5.462-5.771,5.462
						c-3.189,0-5.773-2.447-5.773-5.462c0-3.019,2.584-5.464,5.773-5.464C1390.94,31.666,1393.524,34.111,1393.524,37.129"/>
					<path clip-path="url(#SVGID_10_)" fill="#D2D4D5" d="M1393.356,37.129c0,2.928-2.509,5.304-5.603,5.304
						c-3.098,0-5.605-2.376-5.605-5.304c0-2.931,2.508-5.305,5.605-5.305C1390.848,31.825,1393.356,34.199,1393.356,37.129"/>
				</g>
			</g>
			<polygon fill="#605F5E" points="1386.824,41.175 1386.824,38.009 1383.478,38.009 1383.478,36.25 1386.824,36.25 
				1386.824,33.083 1388.683,33.083 1388.683,36.25 1392.026,36.25 1392.026,38.009 1388.683,38.009 1388.683,41.175 			"/>
			<path fill="#221714" d="M1388.521,33.236v2.861v0.305h0.32h3.023v1.453h-3.023h-0.32v0.304v2.862h-1.536v-2.862v-0.304h-0.321
				h-3.025v-1.453h3.025h0.321v-0.305v-2.861H1388.521z M1388.842,32.931h-2.178v3.166h-3.347v2.062h3.347v3.167h2.178v-3.167h3.347
				v-2.062h-3.347V32.931z"/>
		</g>
	</g>
</g>
<rect x="70.864" y="-0.001" fill="#E5E5E5" width="1275.592" height="252.283"/>
<rect x="79.257" y="8.321" fill="#3B3C3F" width="1260.54" height="233.638"/>
<path fill="none" stroke="#F2F2F2" stroke-width="2.8347" stroke-miterlimit="10" d="M858.308,57.321h59c2.761,0,5,1.844,5,4.119
	v164.761c0,2.275-2.239,4.119-5,4.119H672.706c-2.761,0-5-1.844-5-4.119V61.44c0-2.275,2.239-4.119,5-4.119h57.601"/>
<path fill="none" stroke="#F2F2F2" stroke-width="2.8347" stroke-miterlimit="10" d="M1136.506,57.321h59
	c2.762,0,5.001,1.844,5.001,4.119v164.761c0,2.275-2.239,4.119-5.001,4.119H950.904c-2.761,0-5-1.844-5-4.119V61.44
	c0-2.275,2.239-4.119,5-4.119h57.602"/>
<path fill="#282828" stroke="#0F0F0F" stroke-width="2.8347" stroke-miterlimit="10" d="M902.896,215.32c0,2.762-2.434,5-5.434,5
	h-202.37c-3,0-5.433-2.238-5.433-5V76.547c0-2.761,2.433-5,5.433-5h202.37c3,0,5.434,2.239,5.434,5V215.32z"/>
<path fill="#536068" d="M897.463,211.785c0,2.62-2.309,4.745-5.156,4.745H700.25c-2.848,0-5.157-2.125-5.157-4.745V80.083
	c0-2.621,2.309-4.745,5.157-4.745h192.057c2.848,0,5.156,2.125,5.156,4.745V211.785z"/>
<text transform="matrix(1 0 0 1 757.3262 60.0049)" fill="#FFFFFF" font-family="'NotoSansHans-Regular-GBpc-EUC-H'" font-size="15.7588">信息显示区</text>
<text transform="matrix(1 0 0 1 1035.79 60.0049)" fill="#FFFFFF" font-family="'NotoSansHans-Regular-GBpc-EUC-H'" font-size="15.7588">管理控制区</text>
<text transform="matrix(1 0 0 1 958.1592 90.3037)" fill="#FFFFFF" font-family="'NotoSansHans-Regular-GBpc-EUC-H'" font-size="12">IC卡</text>
<text transform="matrix(1 0 0 1 1139.1592 134.8906)" fill="#FFFFFF" font-family="'NotoSansHans-Regular-GBpc-EUC-H'" font-size="12">Alarm</text>
<text transform="matrix(1 0 0 1 1088.1592 122.8906)" fill="#FFFFFF" font-family="'NotoSansHans-Regular-GBpc-EUC-H'" font-size="12">usb2</text>
<text transform="matrix(1 0 0 1 1059.2754 122.8906)" fill="#FFFFFF" font-family="'NotoSansHans-Regular-GBpc-EUC-H'" font-size="12">usb1</text>
<text transform="matrix(1 0 0 1 1006.5254 122.8906)" fill="#FFFFFF" font-family="'NotoSansHans-Regular-GBpc-EUC-H'" font-size="12">Manage</text>
<text transform="matrix(1 0 0 1 1057.6592 90.3037)" fill="#FFFFFF" font-family="'NotoSansHans-Regular-GBpc-EUC-H'" font-size="12">IC卡芯片朝上</text>
<radialGradient id="SVGID_11_" cx="533.8369" cy="-261.0078" r="6.1343" gradientTransform="matrix(1 0 0 1 436.9473 363.4463)" gradientUnits="userSpaceOnUse">
	<stop  offset="0" style="stop-color:#FFFFFF"/>
	<stop  offset="1" style="stop-color:#C30D23"/>
</radialGradient>
<circle fill="url(#SVGID_11_)" stroke="#030000" stroke-width="0.5" stroke-miterlimit="10" cx="970.784" cy="102.438" r="6.134"/>
<path fill="#333333" stroke="#020202" stroke-width="1.9842" stroke-miterlimit="10" d="M1180.308,102.438c0,2.761-2.239,5-5,5
	h-170.119c-2.761,0-5-2.239-5-5v-2.136c0-2.761,2.239-5,5-5h170.119c2.761,0,5,2.239,5,5V102.438z"/>
<path d="M1176.308,102.008c0,1.647-2.146,2.982-4.792,2.982h-163.081c-2.647,0-4.794-1.335-4.794-2.982v-1.275
	c0-1.647,2.146-2.982,4.794-2.982h163.081c2.646,0,4.792,1.335,4.792,2.982V102.008z"/>
<polygon fill="#FFFFFF" points="1040.79,89.303 1045.553,81.053 1050.316,89.303 "/>
<path fill="none" stroke="#000000" stroke-miterlimit="10" d="M1122.308,168.609c0,3.154-2.239,5.711-5,5.711h-112.119
	c-2.761,0-5-2.557-5-5.711v-36.758c0-3.154,2.239-5.711,5-5.711h112.119c2.761,0,5,2.557,5,5.711V168.609z"/>
<rect x="1004.823" y="130.941" fill="#030000" width="47.758" height="38.574"/>
<linearGradient id="SVGID_12_" gradientUnits="userSpaceOnUse" x1="9.6777" y1="-710.167" x2="54.2246" y2="-710.167" gradientTransform="matrix(1 0 0 1 996.2822 860.4346)">
	<stop  offset="0" style="stop-color:#FFFFFF"/>
	<stop  offset="0.1688" style="stop-color:#B1B4B5"/>
	<stop  offset="0.4086" style="stop-color:#E0E0DF"/>
	<stop  offset="0.7581" style="stop-color:#B1B4B5"/>
	<stop  offset="1" style="stop-color:#C2C2C2"/>
</linearGradient>
<rect x="1005.96" y="131.688" fill="url(#SVGID_12_)" width="44.547" height="37.16"/>
<radialGradient id="SVGID_13_" cx="716.9902" cy="-207.2842" r="8.7314" gradientTransform="matrix(1 0 0 1 436.9473 363.4463)" gradientUnits="userSpaceOnUse">
	<stop  offset="0" style="stop-color:#FFFFFF"/>
	<stop  offset="1" style="stop-color:#282828"/>
</radialGradient>
<circle fill="url(#SVGID_13_)" stroke="#030000" stroke-width="0.5" stroke-miterlimit="10" cx="1153.937" cy="156.162" r="8.731"/>
<radialGradient id="SVGID_14_" cx="535.8369" cy="-152.5205" r="6.1343" gradientTransform="matrix(1 0 0 1 436.9473 363.4463)" gradientUnits="userSpaceOnUse">
	<stop  offset="0" style="stop-color:#FFFFFF"/>
	<stop  offset="1" style="stop-color:#8DC21F"/>
</radialGradient>
<circle fill="url(#SVGID_14_)" stroke="#030000" stroke-width="0.5" stroke-miterlimit="10" cx="972.784" cy="210.926" r="6.134"/>
<radialGradient id="SVGID_15_" cx="551.1787" cy="-152.5205" r="6.1343" gradientTransform="matrix(1 0 0 1 436.9473 363.4463)" gradientUnits="userSpaceOnUse">
	<stop  offset="0" style="stop-color:#FFFFFF"/>
	<stop  offset="1" style="stop-color:#8DC21F"/>
</radialGradient>
<circle fill="url(#SVGID_15_)" stroke="#030000" stroke-width="0.5" stroke-miterlimit="10" cx="988.126" cy="210.926" r="6.134"/>
<radialGradient id="SVGID_16_" cx="566.5205" cy="-152.5205" r="6.1343" gradientTransform="matrix(1 0 0 1 436.9473 363.4463)" gradientUnits="userSpaceOnUse">
	<stop  offset="0" style="stop-color:#FFFFFF"/>
	<stop  offset="1" style="stop-color:#514D45"/>
</radialGradient>
<circle fill="url(#SVGID_16_)" stroke="#030000" stroke-width="0.5" stroke-miterlimit="10" cx="1003.468" cy="210.926" r="6.134"/>
<radialGradient id="SVGID_17_" cx="581.8623" cy="-152.5205" r="6.1343" gradientTransform="matrix(1 0 0 1 436.9473 363.4463)" gradientUnits="userSpaceOnUse">
	<stop  offset="0" style="stop-color:#FFFFFF"/>
	<stop  offset="1" style="stop-color:#8DC21F"/>
</radialGradient>
<circle fill="url(#SVGID_17_)" stroke="#030000" stroke-width="0.5" stroke-miterlimit="10" cx="1018.81" cy="210.926" r="6.134"/>
<radialGradient id="SVGID_18_" cx="597.2041" cy="-152.5205" r="6.1343" gradientTransform="matrix(1 0 0 1 436.9473 363.4463)" gradientUnits="userSpaceOnUse">
	<stop  offset="0" style="stop-color:#FFFFFF"/>
	<stop  offset="1" style="stop-color:#8DC21F"/>
</radialGradient>
<circle fill="url(#SVGID_18_)" stroke="#030000" stroke-width="0.5" stroke-miterlimit="10" cx="1034.151" cy="210.926" r="6.134"/>
<radialGradient id="SVGID_19_" cx="612.5459" cy="-152.5205" r="6.1343" gradientTransform="matrix(1 0 0 1 436.9473 363.4463)" gradientUnits="userSpaceOnUse">
	<stop  offset="0" style="stop-color:#FFFFFF"/>
	<stop  offset="1" style="stop-color:#514D45"/>
</radialGradient>
<circle fill="url(#SVGID_19_)" stroke="#030000" stroke-width="0.5" stroke-miterlimit="10" cx="1049.493" cy="210.926" r="6.134"/>
<radialGradient id="SVGID_20_" cx="627.8877" cy="-152.5205" r="6.1343" gradientTransform="matrix(1 0 0 1 436.9473 363.4463)" gradientUnits="userSpaceOnUse">
	<stop  offset="0" style="stop-color:#FFFFFF"/>
	<stop  offset="1" style="stop-color:#514D45"/>
</radialGradient>
<circle fill="url(#SVGID_20_)" stroke="#030000" stroke-width="0.5" stroke-miterlimit="10" cx="1064.835" cy="210.926" r="6.134"/>
<radialGradient id="SVGID_21_" cx="643.2295" cy="-152.5205" r="6.1343" gradientTransform="matrix(1 0 0 1 436.9473 363.4463)" gradientUnits="userSpaceOnUse">
	<stop  offset="0" style="stop-color:#FFFFFF"/>
	<stop  offset="1" style="stop-color:#514D45"/>
</radialGradient>
<circle fill="url(#SVGID_21_)" stroke="#030000" stroke-width="0.5" stroke-miterlimit="10" cx="1080.177" cy="210.926" r="6.134"/>
<radialGradient id="SVGID_22_" cx="658.5713" cy="-152.5205" r="6.1343" gradientTransform="matrix(1 0 0 1 436.9473 363.4463)" gradientUnits="userSpaceOnUse">
	<stop  offset="0" style="stop-color:#FFFFFF"/>
	<stop  offset="1" style="stop-color:#514D45"/>
</radialGradient>
<circle fill="url(#SVGID_22_)" stroke="#030000" stroke-width="0.5" stroke-miterlimit="10" cx="1095.519" cy="210.926" r="6.134"/>
<radialGradient id="SVGID_23_" cx="673.9136" cy="-152.5205" r="6.1345" gradientTransform="matrix(1 0 0 1 436.9473 363.4463)" gradientUnits="userSpaceOnUse">
	<stop  offset="0" style="stop-color:#FFFFFF"/>
	<stop  offset="1" style="stop-color:#514D45"/>
</radialGradient>
<circle fill="url(#SVGID_23_)" stroke="#030000" stroke-width="0.5" stroke-miterlimit="10" cx="1110.861" cy="210.926" r="6.134"/>
<radialGradient id="SVGID_24_" cx="689.2549" cy="-152.5205" r="6.1343" gradientTransform="matrix(1 0 0 1 436.9473 363.4463)" gradientUnits="userSpaceOnUse">
	<stop  offset="0" style="stop-color:#FFFFFF"/>
	<stop  offset="1" style="stop-color:#514D45"/>
</radialGradient>
<circle fill="url(#SVGID_24_)" stroke="#030000" stroke-width="0.5" stroke-miterlimit="10" cx="1126.202" cy="210.926" r="6.134"/>
<radialGradient id="SVGID_25_" cx="704.5972" cy="-152.5205" r="6.134" gradientTransform="matrix(1 0 0 1 436.9473 363.4463)" gradientUnits="userSpaceOnUse">
	<stop  offset="0" style="stop-color:#FFFFFF"/>
	<stop  offset="1" style="stop-color:#514D45"/>
</radialGradient>
<circle fill="url(#SVGID_25_)" stroke="#030000" stroke-width="0.5" stroke-miterlimit="10" cx="1141.544" cy="210.926" r="6.133"/>
<radialGradient id="SVGID_26_" cx="719.9385" cy="-152.5205" r="6.1343" gradientTransform="matrix(1 0 0 1 436.9473 363.4463)" gradientUnits="userSpaceOnUse">
	<stop  offset="0" style="stop-color:#FFFFFF"/>
	<stop  offset="1" style="stop-color:#514D45"/>
</radialGradient>
<circle fill="url(#SVGID_26_)" stroke="#030000" stroke-width="0.5" stroke-miterlimit="10" cx="1156.886" cy="210.926" r="6.134"/>
<text transform="matrix(1 0 0 1 969.7852 225.6543)" fill="#F9F9F9" font-family="'NotoSansHans-Regular-GBpc-EUC-H'" font-size="8">H</text>
<text transform="matrix(1 0 0 1 982.7852 225.6543)" fill="#F9F9F9" font-family="'NotoSansHans-Regular-GBpc-EUC-H'" font-size="8">W1</text>
<text transform="matrix(1 0 0 1 998.5352 225.6543)" fill="#F9F9F9" font-family="'NotoSansHans-Regular-GBpc-EUC-H'" font-size="8">W2</text>
<text transform="matrix(1 0 0 1 1014.0352 225.6543)" fill="#F9F9F9" font-family="'NotoSansHans-Regular-GBpc-EUC-H'" font-size="8">L1</text>
<text transform="matrix(1 0 0 1 1029.5352 225.6543)" fill="#F9F9F9" font-family="'NotoSansHans-Regular-GBpc-EUC-H'" font-size="8">L2</text>
<text transform="matrix(1 0 0 1 1045.0352 225.6543)" fill="#F9F9F9" font-family="'NotoSansHans-Regular-GBpc-EUC-H'" font-size="8">L3</text>
<text transform="matrix(1 0 0 1 1060.5352 225.6543)" fill="#F9F9F9" font-family="'NotoSansHans-Regular-GBpc-EUC-H'" font-size="8">L4</text>
<text transform="matrix(1 0 0 1 1076.0352 225.6543)" fill="#F9F9F9" font-family="'NotoSansHans-Regular-GBpc-EUC-H'" font-size="8">L5</text>
<text transform="matrix(1 0 0 1 1091.5352 225.6543)" fill="#F9F9F9" font-family="'NotoSansHans-Regular-GBpc-EUC-H'" font-size="8">L6</text>
<text transform="matrix(1 0 0 1 1107.0352 225.6543)" fill="#F9F9F9" font-family="'NotoSansHans-Regular-GBpc-EUC-H'" font-size="8">L7</text>
<text transform="matrix(1 0 0 1 1122.5352 225.6543)" fill="#F9F9F9" font-family="'NotoSansHans-Regular-GBpc-EUC-H'" font-size="8">L8</text>
<text transform="matrix(1 0 0 1 1138.0352 225.6543)" fill="#F9F9F9" font-family="'NotoSansHans-Regular-GBpc-EUC-H'" font-size="8">L9</text>
<text transform="matrix(1 0 0 1 1151.5352 225.6543)" fill="#F9F9F9" font-family="'NotoSansHans-Regular-GBpc-EUC-H'" font-size="8">L10</text>
<linearGradient id="SVGID_27_" gradientUnits="userSpaceOnUse" x1="30.8179" y1="189.6406" x2="30.8179" y2="56.5479">
	<stop  offset="0" style="stop-color:#727171"/>
	<stop  offset="0.0824" style="stop-color:#EFEFEF"/>
	<stop  offset="0.9157" style="stop-color:#DCDDDD"/>
	<stop  offset="1" style="stop-color:#727171"/>
</linearGradient>
<rect x="16.916" y="56.547" fill="url(#SVGID_27_)" width="27.804" height="133.093"/>
<linearGradient id="SVGID_28_" gradientUnits="userSpaceOnUse" x1="1388.2012" y1="192.6865" x2="1388.2012" y2="59.5942">
	<stop  offset="0" style="stop-color:#727171"/>
	<stop  offset="0.0824" style="stop-color:#EFEFEF"/>
	<stop  offset="0.9157" style="stop-color:#DCDDDD"/>
	<stop  offset="1" style="stop-color:#727171"/>
</linearGradient>
<rect x="1374.299" y="59.594" fill="url(#SVGID_28_)" width="27.804" height="133.093"/>
</svg>
