<?xml version="1.0" encoding="utf-8"?>
<!-- Generator: Adobe Illustrator 21.0.0, SVG Export Plug-In . SVG Version: 6.00 Build 0)  -->
<svg version="1.1" id="图层_1" xmlns="http://www.w3.org/2000/svg" xmlns:xlink="http://www.w3.org/1999/xlink" x="0px" y="0px"
	 width="1275.6px" height="504.6px" viewBox="0 0 1275.6 504.6" enable-background="new 0 0 1275.6 504.6" xml:space="preserve">
<g>
	<rect fill="#434444" width="1275.6" height="504.6"/>
</g>
<g>
	<g>
		<path fill="#A2A1A1" d="M33.3,65.4c0,5.5-4.4,9.9-9.9,9.9c-5.5,0-9.9-4.4-9.9-9.9c0-5.5,4.4-9.9,9.9-9.9
			C28.8,55.5,33.3,59.9,33.3,65.4"/>
		<ellipse fill="none" stroke="#858585" stroke-miterlimit="10" cx="23.4" cy="65.4" rx="9.9" ry="9.9"/>
		<path fill="#A2A1A1" d="M30.7,65.4c0,4-3.3,7.3-7.3,7.3s-7.3-3.3-7.3-7.3c0-4,3.3-7.3,7.3-7.3S30.7,61.4,30.7,65.4"/>
		<ellipse fill="none" stroke="#858585" stroke-miterlimit="10" cx="23.4" cy="65.4" rx="7.3" ry="7.3"/>
		<g>
			<g>
				<defs>
					<rect id="SVGID_1_" x="16.5" y="58.5" width="13.7" height="13.8"/>
				</defs>
				<clipPath id="SVGID_2_">
					<use xlink:href="#SVGID_1_"  overflow="visible"/>
				</clipPath>
				<path clip-path="url(#SVGID_2_)" fill="#B1B1B0" d="M30.2,65.4c0,3.8-3.1,6.9-6.9,6.9s-6.9-3.1-6.9-6.9c0-3.8,3.1-6.9,6.9-6.9
					S30.2,61.6,30.2,65.4"/>
				<path clip-path="url(#SVGID_2_)" fill="#B3B3B3" d="M30.1,65.4c0,3.7-3,6.7-6.7,6.7s-6.7-3-6.7-6.7c0-3.7,3-6.7,6.7-6.7
					S30.1,61.7,30.1,65.4"/>
				<path clip-path="url(#SVGID_2_)" fill="#B5B6B6" d="M29.9,65.4c0,3.6-2.9,6.6-6.5,6.6c-3.6,0-6.5-2.9-6.5-6.6
					c0-3.6,2.9-6.6,6.5-6.6C27,58.8,29.9,61.8,29.9,65.4"/>
				<path clip-path="url(#SVGID_2_)" fill="#B7B8B7" d="M29.8,65.4c0,3.5-2.9,6.4-6.4,6.4S17,68.9,17,65.4c0-3.5,2.9-6.4,6.4-6.4
					S29.8,61.9,29.8,65.4"/>
				<path clip-path="url(#SVGID_2_)" fill="#B9BBBB" d="M29.6,65.4c0,3.4-2.8,6.2-6.2,6.2s-6.2-2.8-6.2-6.2c0-3.4,2.8-6.2,6.2-6.2
					S29.6,61.9,29.6,65.4"/>
				<path clip-path="url(#SVGID_2_)" fill="#BCBDBE" d="M29.4,65.4c0,3.3-2.7,6.1-6.1,6.1s-6.1-2.7-6.1-6.1c0-3.4,2.7-6.1,6.1-6.1
					S29.4,62,29.4,65.4"/>
				<path clip-path="url(#SVGID_2_)" fill="#BEC0C0" d="M29.3,65.4c0,3.3-2.6,5.9-5.9,5.9s-5.9-2.6-5.9-5.9c0-3.3,2.6-5.9,5.9-5.9
					S29.3,62.1,29.3,65.4"/>
				<path clip-path="url(#SVGID_2_)" fill="#BFC2C3" d="M29.1,65.4c0,3.2-2.6,5.7-5.7,5.7c-3.2,0-5.7-2.6-5.7-5.7
					c0-3.2,2.6-5.7,5.7-5.7C26.5,59.6,29.1,62.2,29.1,65.4"/>
				<path clip-path="url(#SVGID_2_)" fill="#C3C5C5" d="M28.9,65.4c0,3.1-2.5,5.6-5.6,5.6c-3.1,0-5.6-2.5-5.6-5.6
					c0-3.1,2.5-5.6,5.6-5.6C26.4,59.8,28.9,62.3,28.9,65.4"/>
				<path clip-path="url(#SVGID_2_)" fill="#C5C7C8" d="M28.8,65.4c0,3-2.4,5.4-5.4,5.4c-3,0-5.4-2.4-5.4-5.4c0-3,2.4-5.4,5.4-5.4
					C26.4,60,28.8,62.4,28.8,65.4"/>
			</g>
		</g>
		<polygon fill="#605F5E" points="22.5,69.5 22.5,66.3 19.2,66.3 19.2,64.5 22.5,64.5 22.5,61.3 24.3,61.3 24.3,64.5 27.5,64.5 
			27.5,66.3 24.3,66.3 24.3,69.5 		"/>
		<path fill="#221714" d="M24.1,61.4v2.9v0.3h0.3h2.9v1.5h-2.9h-0.3v0.3v2.9h-1.5v-2.9v-0.3h-0.3h-2.9v-1.5h2.9h0.3v-0.3v-2.9H24.1z
			 M24.4,61.1h-2.1v3.2h-3.2v2.1h3.2v3.2h2.1v-3.2h3.2v-2.1h-3.2V61.1z"/>
	</g>
	<g>
		<path fill="#A2A1A1" d="M33.3,439.2c0,5.5-4.4,9.9-9.9,9.9c-5.5,0-9.9-4.4-9.9-9.9c0-5.5,4.4-9.9,9.9-9.9
			C28.8,429.3,33.3,433.7,33.3,439.2"/>
		<ellipse fill="none" stroke="#858585" stroke-miterlimit="10" cx="23.4" cy="439.2" rx="9.9" ry="9.9"/>
		<path fill="#A2A1A1" d="M30.7,439.2c0,4-3.3,7.3-7.3,7.3s-7.3-3.3-7.3-7.3c0-4,3.3-7.3,7.3-7.3S30.7,435.2,30.7,439.2"/>
		<ellipse fill="none" stroke="#858585" stroke-miterlimit="10" cx="23.4" cy="439.2" rx="7.3" ry="7.3"/>
		<g>
			<g>
				<defs>
					<rect id="SVGID_3_" x="16.5" y="432.3" width="13.7" height="13.8"/>
				</defs>
				<clipPath id="SVGID_4_">
					<use xlink:href="#SVGID_3_"  overflow="visible"/>
				</clipPath>
				<path clip-path="url(#SVGID_4_)" fill="#B1B1B0" d="M30.2,439.2c0,3.8-3.1,6.9-6.9,6.9s-6.9-3.1-6.9-6.9c0-3.8,3.1-6.9,6.9-6.9
					S30.2,435.4,30.2,439.2"/>
				<path clip-path="url(#SVGID_4_)" fill="#B3B3B3" d="M30.1,439.2c0,3.7-3,6.7-6.7,6.7s-6.7-3-6.7-6.7c0-3.7,3-6.7,6.7-6.7
					S30.1,435.5,30.1,439.2"/>
				<path clip-path="url(#SVGID_4_)" fill="#B5B6B6" d="M29.9,439.2c0,3.6-2.9,6.6-6.5,6.6c-3.6,0-6.5-2.9-6.5-6.6
					c0-3.6,2.9-6.6,6.5-6.6C27,432.6,29.9,435.6,29.9,439.2"/>
				<path clip-path="url(#SVGID_4_)" fill="#B7B8B7" d="M29.8,439.2c0,3.5-2.9,6.4-6.4,6.4s-6.4-2.9-6.4-6.4c0-3.5,2.9-6.4,6.4-6.4
					S29.8,435.7,29.8,439.2"/>
				<path clip-path="url(#SVGID_4_)" fill="#B9BBBB" d="M29.6,439.2c0,3.4-2.8,6.2-6.2,6.2s-6.2-2.8-6.2-6.2c0-3.4,2.8-6.2,6.2-6.2
					S29.6,435.7,29.6,439.2"/>
				<path clip-path="url(#SVGID_4_)" fill="#BCBDBE" d="M29.4,439.2c0,3.4-2.7,6.1-6.1,6.1s-6.1-2.7-6.1-6.1c0-3.4,2.7-6.1,6.1-6.1
					S29.4,435.8,29.4,439.2"/>
				<path clip-path="url(#SVGID_4_)" fill="#BEC0C0" d="M29.3,439.2c0,3.3-2.6,5.9-5.9,5.9s-5.9-2.6-5.9-5.9c0-3.3,2.6-5.9,5.9-5.9
					S29.3,435.9,29.3,439.2"/>
				<path clip-path="url(#SVGID_4_)" fill="#BFC2C3" d="M29.1,439.2c0,3.2-2.6,5.7-5.7,5.7c-3.2,0-5.7-2.6-5.7-5.7
					c0-3.2,2.6-5.7,5.7-5.7C26.5,433.4,29.1,436,29.1,439.2"/>
				<path clip-path="url(#SVGID_4_)" fill="#C3C5C5" d="M28.9,439.2c0,3.1-2.5,5.6-5.6,5.6c-3.1,0-5.6-2.5-5.6-5.6
					c0-3.1,2.5-5.6,5.6-5.6C26.4,433.6,28.9,436.1,28.9,439.2"/>
				<path clip-path="url(#SVGID_4_)" fill="#C5C7C8" d="M28.8,439.2c0,3-2.4,5.4-5.4,5.4c-3,0-5.4-2.4-5.4-5.4c0-3,2.4-5.4,5.4-5.4
					C26.4,433.8,28.8,436.2,28.8,439.2"/>
			</g>
		</g>
		<polygon fill="#605F5E" points="22.5,443.3 22.5,440.1 19.2,440.1 19.2,438.3 22.5,438.3 22.5,435 24.3,435 24.3,438.3 
			27.5,438.3 27.5,440.1 24.3,440.1 24.3,443.3 		"/>
		<path fill="#221714" d="M24.1,435.2v2.9v0.3h0.3h2.9v1.5h-2.9h-0.3v0.3v2.9h-1.5v-2.9v-0.3h-0.3h-2.9v-1.5h2.9h0.3v-0.3v-2.9H24.1
			z M24.4,434.9h-2.1v3.2h-3.2v2.1h3.2v3.2h2.1v-3.2h3.2v-2.1h-3.2V434.9z"/>
	</g>
</g>
<g>
	<g>
		<path fill="#A2A1A1" d="M1260.3,65.4c0,5.5-4.4,9.9-9.9,9.9c-5.5,0-9.9-4.4-9.9-9.9c0-5.5,4.4-9.9,9.9-9.9
			C1255.8,55.5,1260.3,59.9,1260.3,65.4"/>
		<ellipse fill="none" stroke="#858585" stroke-miterlimit="10" cx="1250.4" cy="65.4" rx="9.9" ry="9.9"/>
		<path fill="#A2A1A1" d="M1257.6,65.4c0,4-3.3,7.3-7.3,7.3s-7.3-3.3-7.3-7.3c0-4,3.3-7.3,7.3-7.3S1257.6,61.4,1257.6,65.4"/>
		<ellipse fill="none" stroke="#858585" stroke-miterlimit="10" cx="1250.4" cy="65.4" rx="7.3" ry="7.3"/>
		<g>
			<g>
				<defs>
					<rect id="SVGID_5_" x="1243.5" y="58.5" width="13.7" height="13.8"/>
				</defs>
				<clipPath id="SVGID_6_">
					<use xlink:href="#SVGID_5_"  overflow="visible"/>
				</clipPath>
				<path clip-path="url(#SVGID_6_)" fill="#B1B1B0" d="M1257.2,65.4c0,3.8-3.1,6.9-6.9,6.9s-6.9-3.1-6.9-6.9c0-3.8,3.1-6.9,6.9-6.9
					S1257.2,61.6,1257.2,65.4"/>
				<path clip-path="url(#SVGID_6_)" fill="#B3B3B3" d="M1257.1,65.4c0,3.7-3,6.7-6.7,6.7s-6.7-3-6.7-6.7c0-3.7,3-6.7,6.7-6.7
					S1257.1,61.7,1257.1,65.4"/>
				<path clip-path="url(#SVGID_6_)" fill="#B5B6B6" d="M1256.9,65.4c0,3.6-2.9,6.6-6.5,6.6c-3.6,0-6.5-2.9-6.5-6.6
					c0-3.6,2.9-6.6,6.5-6.6C1254,58.8,1256.9,61.8,1256.9,65.4"/>
				<path clip-path="url(#SVGID_6_)" fill="#B7B8B7" d="M1256.7,65.4c0,3.5-2.9,6.4-6.4,6.4c-3.5,0-6.4-2.9-6.4-6.4
					c0-3.5,2.9-6.4,6.4-6.4C1253.9,59,1256.7,61.9,1256.7,65.4"/>
				<path clip-path="url(#SVGID_6_)" fill="#B9BBBB" d="M1256.6,65.4c0,3.4-2.8,6.2-6.2,6.2s-6.2-2.8-6.2-6.2c0-3.4,2.8-6.2,6.2-6.2
					S1256.6,61.9,1256.6,65.4"/>
				<path clip-path="url(#SVGID_6_)" fill="#BCBDBE" d="M1256.4,65.4c0,3.3-2.7,6.1-6.1,6.1c-3.3,0-6.1-2.7-6.1-6.1
					c0-3.4,2.7-6.1,6.1-6.1C1253.7,59.3,1256.4,62,1256.4,65.4"/>
				<path clip-path="url(#SVGID_6_)" fill="#BEC0C0" d="M1256.3,65.4c0,3.3-2.6,5.9-5.9,5.9s-5.9-2.6-5.9-5.9c0-3.3,2.6-5.9,5.9-5.9
					S1256.3,62.1,1256.3,65.4"/>
				<path clip-path="url(#SVGID_6_)" fill="#BFC2C3" d="M1256.1,65.4c0,3.2-2.6,5.7-5.7,5.7c-3.2,0-5.7-2.6-5.7-5.7
					c0-3.2,2.6-5.7,5.7-5.7C1253.5,59.6,1256.1,62.2,1256.1,65.4"/>
				<path clip-path="url(#SVGID_6_)" fill="#C3C5C5" d="M1255.9,65.4c0,3.1-2.5,5.6-5.6,5.6c-3.1,0-5.6-2.5-5.6-5.6
					c0-3.1,2.5-5.6,5.6-5.6C1253.4,59.8,1255.9,62.3,1255.9,65.4"/>
				<path clip-path="url(#SVGID_6_)" fill="#C5C7C8" d="M1255.8,65.4c0,3-2.4,5.4-5.4,5.4c-3,0-5.4-2.4-5.4-5.4c0-3,2.4-5.4,5.4-5.4
					C1253.3,60,1255.8,62.4,1255.8,65.4"/>
			</g>
		</g>
		<polygon fill="#605F5E" points="1249.5,69.5 1249.5,66.3 1246.2,66.3 1246.2,64.5 1249.5,64.5 1249.5,61.3 1251.3,61.3 
			1251.3,64.5 1254.5,64.5 1254.5,66.3 1251.3,66.3 1251.3,69.5 		"/>
		<path fill="#221714" d="M1251.1,61.4v2.9v0.3h0.3h2.9v1.5h-2.9h-0.3v0.3v2.9h-1.5v-2.9v-0.3h-0.3h-2.9v-1.5h2.9h0.3v-0.3v-2.9
			H1251.1z M1251.4,61.1h-2.1v3.2h-3.2v2.1h3.2v3.2h2.1v-3.2h3.2v-2.1h-3.2V61.1z"/>
	</g>
	<g>
		<path fill="#A2A1A1" d="M1260.3,439.2c0,5.5-4.4,9.9-9.9,9.9c-5.5,0-9.9-4.4-9.9-9.9c0-5.5,4.4-9.9,9.9-9.9
			C1255.8,429.3,1260.3,433.7,1260.3,439.2"/>
		<ellipse fill="none" stroke="#858585" stroke-miterlimit="10" cx="1250.4" cy="439.2" rx="9.9" ry="9.9"/>
		<path fill="#A2A1A1" d="M1257.6,439.2c0,4-3.3,7.3-7.3,7.3s-7.3-3.3-7.3-7.3c0-4,3.3-7.3,7.3-7.3S1257.6,435.2,1257.6,439.2"/>
		<ellipse fill="none" stroke="#858585" stroke-miterlimit="10" cx="1250.4" cy="439.2" rx="7.3" ry="7.3"/>
		<g>
			<g>
				<defs>
					<rect id="SVGID_7_" x="1243.5" y="432.3" width="13.7" height="13.8"/>
				</defs>
				<clipPath id="SVGID_8_">
					<use xlink:href="#SVGID_7_"  overflow="visible"/>
				</clipPath>
				<path clip-path="url(#SVGID_8_)" fill="#B1B1B0" d="M1257.2,439.2c0,3.8-3.1,6.9-6.9,6.9s-6.9-3.1-6.9-6.9
					c0-3.8,3.1-6.9,6.9-6.9S1257.2,435.4,1257.2,439.2"/>
				<path clip-path="url(#SVGID_8_)" fill="#B3B3B3" d="M1257.1,439.2c0,3.7-3,6.7-6.7,6.7s-6.7-3-6.7-6.7c0-3.7,3-6.7,6.7-6.7
					S1257.1,435.5,1257.1,439.2"/>
				<path clip-path="url(#SVGID_8_)" fill="#B5B6B6" d="M1256.9,439.2c0,3.6-2.9,6.6-6.5,6.6c-3.6,0-6.5-2.9-6.5-6.6
					c0-3.6,2.9-6.6,6.5-6.6C1254,432.6,1256.9,435.6,1256.9,439.2"/>
				<path clip-path="url(#SVGID_8_)" fill="#B7B8B7" d="M1256.7,439.2c0,3.5-2.9,6.4-6.4,6.4c-3.5,0-6.4-2.9-6.4-6.4
					c0-3.5,2.9-6.4,6.4-6.4C1253.9,432.8,1256.7,435.7,1256.7,439.2"/>
				<path clip-path="url(#SVGID_8_)" fill="#B9BBBB" d="M1256.6,439.2c0,3.4-2.8,6.2-6.2,6.2s-6.2-2.8-6.2-6.2
					c0-3.4,2.8-6.2,6.2-6.2S1256.6,435.7,1256.6,439.2"/>
				<path clip-path="url(#SVGID_8_)" fill="#BCBDBE" d="M1256.4,439.2c0,3.4-2.7,6.1-6.1,6.1c-3.3,0-6.1-2.7-6.1-6.1
					c0-3.4,2.7-6.1,6.1-6.1C1253.7,433.1,1256.4,435.8,1256.4,439.2"/>
				<path clip-path="url(#SVGID_8_)" fill="#BEC0C0" d="M1256.3,439.2c0,3.3-2.6,5.9-5.9,5.9s-5.9-2.6-5.9-5.9
					c0-3.3,2.6-5.9,5.9-5.9S1256.3,435.9,1256.3,439.2"/>
				<path clip-path="url(#SVGID_8_)" fill="#BFC2C3" d="M1256.1,439.2c0,3.2-2.6,5.7-5.7,5.7c-3.2,0-5.7-2.6-5.7-5.7
					c0-3.2,2.6-5.7,5.7-5.7C1253.5,433.4,1256.1,436,1256.1,439.2"/>
				<path clip-path="url(#SVGID_8_)" fill="#C3C5C5" d="M1255.9,439.2c0,3.1-2.5,5.6-5.6,5.6c-3.1,0-5.6-2.5-5.6-5.6
					c0-3.1,2.5-5.6,5.6-5.6C1253.4,433.6,1255.9,436.1,1255.9,439.2"/>
				<path clip-path="url(#SVGID_8_)" fill="#C5C7C8" d="M1255.8,439.2c0,3-2.4,5.4-5.4,5.4c-3,0-5.4-2.4-5.4-5.4
					c0-3,2.4-5.4,5.4-5.4C1253.3,433.8,1255.8,436.2,1255.8,439.2"/>
			</g>
		</g>
		<polygon fill="#605F5E" points="1249.5,443.3 1249.5,440.1 1246.2,440.1 1246.2,438.3 1249.5,438.3 1249.5,435 1251.3,435 
			1251.3,438.3 1254.5,438.3 1254.5,440.1 1251.3,440.1 1251.3,443.3 		"/>
		<path fill="#221714" d="M1251.1,435.2v2.9v0.3h0.3h2.9v1.5h-2.9h-0.3v0.3v2.9h-1.5v-2.9v-0.3h-0.3h-2.9v-1.5h2.9h0.3v-0.3v-2.9
			H1251.1z M1251.4,434.9h-2.1v3.2h-3.2v2.1h3.2v3.2h2.1v-3.2h3.2v-2.1h-3.2V434.9z"/>
	</g>
</g>
<rect x="48.1" y="0.5" fill="#060404" width="5.3" height="504"/>
<rect x="1219.8" y="0.5" fill="#060404" width="5.3" height="504"/>
<g>
	<g>
		<path fill="#0963B1" d="M153.7,120.5l-12,17.5h-18.7l61.6-85.1h19.9l-3.2,85.1h-18.2l1-17.5H153.7z M187.3,72.1l-23.2,33.7h20.9
			l2.5-33.7H187.3z"/>
	</g>
	<g>
		<path fill="#3DB780" d="M215.9,103.7h-11.8l-2.9,11.9h14l-3.6,9.5h-26.9L197.4,75h26.5l-2.5,9.5h-12.3l-2.6,9.7h11.8L215.9,103.7z
			"/>
		<path fill="#3DB780" d="M232.3,84.5h-7.4l2.5-9.5h29l-2.5,9.5h-7.5L236,125.1h-14.1L232.3,84.5z"/>
		<path fill="#3DB780" d="M259.9,75H274l-4.9,19.2h4.3l4.9-19.2h14.3l-12.8,50.1h-14.3l5.4-21.4h-4.3l-5.4,21.4h-14.2L259.9,75z"/>
		<path fill="#3DB780" d="M317,103.7h-11.8l-2.9,11.9h14l-3.6,9.5h-26.9L298.6,75h26.5l-2.5,9.5h-12.3l-2.6,9.7h11.8L317,103.7z"/>
		<path fill="#3DB780" d="M337.4,104l-5.4,21.2h-14.1L330.7,75h16.8c10.9,0,14.8,4.8,12.6,13.2l-0.9,3.5c-1.3,4.9-4,7.4-7.4,8.3
			c3.4,1.7,4.1,4.4,2.1,11.7c-1.6,5.9-3.1,11.5-3.3,13.5h-13.7c-0.5-0.9,0.3-4.4,3.2-15.8c1.3-5,0.5-5.3-1.9-5.3H337.4z M339.7,95.5
			h1.1c2.7,0,3.4-0.8,4.3-4l1-4.2c0.7-2.9,0.2-3.8-2.5-3.8h-0.8L339.7,95.5z"/>
	</g>
</g>
<g>
	<path fill="#FFFFFF" d="M831,141.8h-32.2V80.5h30.8v6.2h-24.1v20.9h22.3v6.2h-22.3v21.9H831V141.8z"/>
	<path fill="#FFFFFF" d="M898.2,141.8v-41.4c0-3.1,0.2-7.1,0.6-11.8h-0.2c-0.7,2.9-1.3,4.8-1.8,5.8l-21.4,47.5h-3l-21.3-47.1
		c-0.6-1.2-1.1-3.3-1.8-6.1h-0.2c0.2,2.2,0.4,6.1,0.4,11.7v41.5h-6.6V80.5h8.8l19.2,43.2c1.5,3.4,2.5,5.8,2.9,7.2h0.3
		c0.8-2.1,1.8-4.6,3-7.4l19.6-43h8.3v61.3H898.2z"/>
	<path fill="#FFFFFF" d="M953.4,141.8h-32.2V80.5H952v6.2h-24.1v20.9h22.3v6.2h-22.3v21.9h25.5V141.8z"/>
	<path fill="#FFFFFF" d="M1001.2,125.4h-7.9v16.5h-6.6v-16.5h-29V121l27.4-40.5h8.2v39.4h7.9V125.4z M986.7,119.9v-27
		c0-1.9,0.1-4,0.2-6.4h-0.2c-0.2,0.6-1,2.2-2.3,4.7l-19.3,28.7H986.7z"/>
	<path fill="#FFFFFF" d="M1045,141.8h-36.7v-6l17.9-18c5.9-6,9.5-10.3,10.9-13c1.4-2.7,2-5.5,2-8.5c0-3.6-1-6.4-3.1-8.4
		c-2-2-5-2.9-8.8-2.9c-5.5,0-10.7,2.4-15.8,7.1v-7c4.7-3.8,10.3-5.7,16.6-5.7c5.3,0,9.5,1.5,12.7,4.4c3.2,2.9,4.8,6.9,4.8,11.9
		c0,3.9-1,7.6-3.1,11.4c-2.1,3.7-6.1,8.5-11.9,14.4l-14.3,14.1v0.2h28.8V141.8z"/>
	<path fill="#FFFFFF" d="M1068.9,109.5c-7.4-3.5-11.1-8.5-11.1-15c0-4.5,1.7-8.1,5.1-10.9c3.4-2.8,7.7-4.2,12.7-4.2
		c4.5,0,8.4,1.3,11.5,3.9c3.1,2.6,4.7,6,4.7,10.2c0,6.8-3.8,12.1-11.4,15.9v0.2c8.9,3.4,13.4,8.9,13.4,16.6c0,5.2-1.9,9.3-5.6,12.2
		c-3.7,2.9-8.7,4.4-14.9,4.4c-5.1,0-9.3-1.5-12.8-4.4c-3.4-2.9-5.1-6.8-5.1-11.5c0-7.9,4.4-13.6,13.3-17.2V109.5z M1074.2,112.9
		c-7.9,3.2-11.9,7.7-11.9,13.7c0,3.3,1.2,5.9,3.6,7.8c2.4,1.9,5.4,2.8,9.1,2.8c3.5,0,6.5-0.9,8.7-2.8c2.3-1.9,3.4-4.4,3.4-7.5
		C1087.1,120.6,1082.8,116,1074.2,112.9z M1085,94.5c0-2.9-0.9-5.2-2.8-6.8c-1.8-1.6-4.3-2.5-7.3-2.5c-2.8,0-5.2,0.9-7.3,2.6
		c-2.1,1.7-3.1,3.9-3.1,6.6c0,5.4,3.4,9.5,10.1,12.3C1081.6,103.7,1085,99.7,1085,94.5z"/>
	<path fill="#FFFFFF" d="M1101.9,112.4c0-10.8,1.8-19,5.3-24.6c3.5-5.6,8.6-8.4,15.3-8.4c12.7,0,19.1,10.5,19.1,31.4
		c0,10.2-1.7,18.1-5.2,23.6s-8.6,8.3-15.3,8.3c-6.2,0-11-2.7-14.3-8C1103.5,129.5,1101.9,122,1101.9,112.4z M1108.6,112.1
		c0,16.8,4.4,25.2,13.1,25.2c8.7,0,13-8.5,13-25.5c0-17.7-4.2-26.6-12.7-26.6C1113.1,85.1,1108.6,94.1,1108.6,112.1z"/>
</g>
<linearGradient id="SVGID_10_" gradientUnits="userSpaceOnUse" x1="292.6733" y1="288.4948" x2="292.6733" y2="195.4948">
	<stop  offset="0" style="stop-color:#717071"/>
	<stop  offset="3.763440e-02" style="stop-color:#FFFFFF"/>
	<stop  offset="6.451650e-02" style="stop-color:#A3A6A7"/>
	<stop  offset="0.9768" style="stop-color:#FFFFFF"/>
	<stop  offset="1" style="stop-color:#A3A6A7"/>
</linearGradient>
<path fill="url(#SVGID_10_)" d="M456.7,288.5H128.6c-5.5,0-10-4.5-10-10v-73.1c0-5.5,4.5-10,10-10h328.1c5.5,0,10,4.5,10,10v73.1
	C466.7,284,462.2,288.5,456.7,288.5z"/>
<rect x="138.7" y="217.5" fill="#80A002" width="212" height="48"/>
<rect x="138.7" y="216.5" fill="#FFFFFF" width="212" height="2"/>
<rect x="138.7" y="263.5" fill="#3D490A" width="212" height="2"/>
<g>
	<circle fill="#282827" cx="418.7" cy="220.4" r="9.6"/>
	<polygon fill="#EFEDEA" points="418.7,213.9 412.4,224.8 425,224.8 	"/>
	<circle fill="#282827" cx="418.7" cy="262.6" r="9.6"/>
	<polygon fill="#EFEDEA" points="418.7,269.1 425,258.2 412.4,258.2 	"/>
	<circle fill="#282827" cx="397.9" cy="240.2" r="9.6"/>
	<polygon fill="#EFEDEA" points="403.4,235.6 395.6,243.5 392.3,240.2 391.3,241.2 395.7,245.6 404.5,236.7 	"/>
	<circle fill="#282827" cx="439.3" cy="240.2" r="9.6"/>
	<g>
		
			<rect x="438.4" y="234" transform="matrix(0.7071 0.7071 -0.7071 0.7071 298.5538 -240.2759)" fill="#EFEDEA" width="1.8" height="12.6"/>
		
			<rect x="438.4" y="234" transform="matrix(-0.7071 0.7071 -0.7071 -0.7071 919.8397 99.4866)" fill="#EFEDEA" width="1.8" height="12.6"/>
	</g>
</g>
<g>
	<path fill="#FFFFFF" d="M115,398.7c0,0.8-0.2,1.3-0.7,1.8c-0.4,0.4-1,0.7-1.8,0.7h-1.4v3.1h-1.1v-8h2.4c0.8,0,1.4,0.2,1.8,0.7
		C114.8,397.3,115,397.9,115,398.7z M113.9,398.7c0-0.6-0.1-1-0.4-1.2c-0.3-0.2-0.7-0.3-1.3-0.3h-1.1v3.1h1.1c0.6,0,1-0.1,1.3-0.3
		C113.8,399.7,113.9,399.3,113.9,398.7z"/>
	<path fill="#FFFFFF" d="M121,400.2c0,1.5-0.2,2.5-0.7,3.2c-0.5,0.6-1.1,1-1.9,1c-0.8,0-1.5-0.3-1.9-1c-0.5-0.6-0.7-1.7-0.7-3.2
		c0-1.5,0.2-2.5,0.7-3.1c0.5-0.6,1.1-0.9,1.9-0.9c0.8,0,1.4,0.3,1.9,0.9C120.8,397.7,121,398.8,121,400.2z M119.9,400.2
		c0-1.3-0.1-2.2-0.4-2.6c-0.3-0.4-0.6-0.6-1-0.6c-0.4,0-0.8,0.2-1.1,0.6c-0.3,0.4-0.4,1.3-0.4,2.6s0.1,2.2,0.4,2.6
		c0.3,0.4,0.6,0.6,1.1,0.6c0.4,0,0.8-0.2,1-0.6S119.9,401.5,119.9,400.2z"/>
	<path fill="#FFFFFF" d="M127.2,396.2l-1,8.1h-0.9l-0.8-6h-0.1l-0.8,6h-0.9l-1-8.1h1l0.5,5.1h0.1l0.7-5.1h1l0.7,5.1h0.1l0.5-5.1
		H127.2z"/>
	<path fill="#FFFFFF" d="M132.9,404.3h-4.8v-8h4.5v0.9h-3.5v2.5h3.2v0.9h-3.2v2.9h3.7V404.3z"/>
	<path fill="#FFFFFF" d="M139.1,404.3H138l-1.7-3.5h-1.2v3.5H134v-8h2.3c0.8,0,1.4,0.2,1.8,0.5c0.5,0.4,0.7,0.9,0.7,1.8
		c0,0.6-0.2,1.1-0.5,1.5c-0.3,0.3-0.7,0.6-1.1,0.7L139.1,404.3z M137.8,398.5c0-0.4-0.1-0.8-0.4-1c-0.3-0.2-0.7-0.4-1.3-0.4h-1v2.8
		h1.3c0.4,0,0.7-0.1,1-0.3C137.6,399.4,137.8,399,137.8,398.5z"/>
</g>
<g>
	<path fill="#FFFFFF" d="M183.6,404.3h-1.1v-3.8h-2.7v3.8h-1.1v-8h1.1v3.4h2.7v-3.4h1.1V404.3z"/>
	<path fill="#FFFFFF" d="M189.7,400.3c0,1.4-0.3,2.5-0.9,3.1s-1.4,0.9-2.5,0.9h-1.6v-8h1.6c1.2,0,2,0.3,2.6,0.9
		C189.4,397.8,189.7,398.8,189.7,400.3z M188.6,400.3c0-1.2-0.2-2-0.6-2.4s-0.9-0.7-1.7-0.7h-0.5v6.2h0.5c0.8,0,1.3-0.2,1.7-0.7
		C188.4,402.2,188.6,401.4,188.6,400.3z"/>
	<path fill="#FFFFFF" d="M195.7,400.3c0,1.4-0.3,2.5-0.9,3.1s-1.4,0.9-2.5,0.9h-1.6v-8h1.6c1.2,0,2,0.3,2.6,0.9
		C195.4,397.8,195.7,398.8,195.7,400.3z M194.6,400.3c0-1.2-0.2-2-0.6-2.4s-0.9-0.7-1.7-0.7h-0.5v6.2h0.5c0.8,0,1.3-0.2,1.7-0.7
		C194.4,402.2,194.6,401.4,194.6,400.3z"/>
</g>
<g>
	<path fill="#FFFFFF" d="M528.3,355.4c0,1.2-0.3,2-0.8,2.5c-0.5,0.5-1,0.8-1.7,0.8c-0.8,0-1.4-0.3-1.9-0.9c-0.5-0.6-0.8-1.6-0.8-2.9
		c0-1.5,0.3-2.6,0.8-3.3c0.5-0.7,1.2-1.1,2-1.1c0.7,0,1.3,0.3,1.7,0.8c0.5,0.5,0.7,1.2,0.6,2.2h-1c0-0.7-0.1-1.2-0.3-1.5
		c-0.2-0.3-0.5-0.5-1-0.5c-0.5,0-0.9,0.3-1.2,0.8c-0.3,0.5-0.4,1.4-0.4,2.6c0,1.1,0.1,1.9,0.4,2.4c0.3,0.5,0.7,0.7,1.1,0.7
		c0.3,0,0.7-0.2,0.9-0.5s0.4-1,0.4-1.9H528.3z"/>
	<path fill="#FFFFFF" d="M534.3,354.6c0,1.5-0.2,2.5-0.7,3.2c-0.5,0.6-1.1,1-1.9,1c-0.8,0-1.5-0.3-1.9-1c-0.5-0.6-0.7-1.7-0.7-3.2
		c0-1.5,0.2-2.5,0.7-3.1c0.5-0.6,1.1-0.9,1.9-0.9c0.8,0,1.4,0.3,1.9,0.9C534,352.1,534.3,353.1,534.3,354.6z M533.1,354.6
		c0-1.3-0.1-2.2-0.4-2.6c-0.3-0.4-0.6-0.6-1-0.6c-0.4,0-0.8,0.2-1.1,0.6c-0.3,0.4-0.4,1.3-0.4,2.6s0.1,2.2,0.4,2.6
		c0.3,0.4,0.6,0.6,1.1,0.6c0.4,0,0.8-0.2,1-0.6S533.1,355.9,533.1,354.6z"/>
	<path fill="#FFFFFF" d="M540.2,358.6h-0.9v-5.7h-0.1l-1.1,5.7h-0.8l-1.1-5.7h-0.1v5.7h-0.9v-8h1.5l1,5.3h0.1l1-5.3h1.5V358.6z"/>
	<path fill="#FFFFFF" d="M541.3,358.4c0-0.5,0.3-0.9,0.7-1.3c0.4-0.4,0.9-1,1.5-1.8c0.6-0.8,1-1.4,1.2-1.9c0.2-0.4,0.3-0.8,0.2-1.1
		c0-0.3-0.2-0.6-0.4-0.8c-0.3-0.2-0.5-0.3-0.9-0.3c-0.3,0-0.6,0.2-0.9,0.4c-0.3,0.2-0.5,0.5-0.7,1l-0.9-0.1c0.3-0.7,0.6-1.2,1-1.6
		c0.4-0.3,0.9-0.5,1.4-0.5c0.3,0,0.6,0,0.8,0c0.3,0,0.5,0.2,0.8,0.3c0.3,0.2,0.5,0.4,0.7,0.8c0.2,0.3,0.2,0.8,0.2,1.2
		c0,0.5-0.3,1.1-0.7,1.7c-0.4,0.7-1.3,1.7-2.5,3.2h3.4v0.8h-4.7V358.4z"/>
</g>
<g>
	<path fill="#FFFFFF" d="M528.3,418.8c0,1.2-0.3,2-0.8,2.5c-0.5,0.5-1,0.8-1.7,0.8c-0.8,0-1.4-0.3-1.9-0.9c-0.5-0.6-0.8-1.6-0.8-2.9
		c0-1.5,0.3-2.6,0.8-3.3c0.5-0.7,1.2-1.1,2-1.1c0.7,0,1.3,0.3,1.7,0.8c0.5,0.5,0.7,1.2,0.6,2.2h-1c0-0.7-0.1-1.2-0.3-1.5
		c-0.2-0.3-0.5-0.5-1-0.5c-0.5,0-0.9,0.3-1.2,0.8c-0.3,0.5-0.4,1.4-0.4,2.6c0,1.1,0.1,1.9,0.4,2.4c0.3,0.5,0.7,0.7,1.1,0.7
		c0.3,0,0.7-0.2,0.9-0.5s0.4-1,0.4-1.9H528.3z"/>
	<path fill="#FFFFFF" d="M534.3,418c0,1.5-0.2,2.5-0.7,3.2c-0.5,0.6-1.1,1-1.9,1c-0.8,0-1.5-0.3-1.9-1c-0.5-0.6-0.7-1.7-0.7-3.2
		c0-1.5,0.2-2.5,0.7-3.1c0.5-0.6,1.1-0.9,1.9-0.9c0.8,0,1.4,0.3,1.9,0.9C534,415.5,534.3,416.5,534.3,418z M533.1,418
		c0-1.3-0.1-2.2-0.4-2.6c-0.3-0.4-0.6-0.6-1-0.6c-0.4,0-0.8,0.2-1.1,0.6c-0.3,0.4-0.4,1.3-0.4,2.6s0.1,2.2,0.4,2.6
		c0.3,0.4,0.6,0.6,1.1,0.6c0.4,0,0.8-0.2,1-0.6S533.1,419.3,533.1,418z"/>
	<path fill="#FFFFFF" d="M540.2,422h-0.9v-5.7h-0.1L538,422h-0.8l-1.1-5.7h-0.1v5.7h-0.9v-8h1.5l1,5.3h0.1l1-5.3h1.5V422z"/>
	<path fill="#FFFFFF" d="M543.3,415.5c-0.4,0.4-0.9,0.8-1.5,1.2v-0.9c0.8-0.5,1.4-1.2,1.9-1.9h0.6v8.1h-0.9V415.5z"/>
</g>
<g>
	<path fill="#FFFFFF" d="M621.8,399.7c0,0.8-0.2,1.3-0.6,1.8c-0.4,0.4-1,0.7-1.9,0.7s-1.5-0.2-1.9-0.7c-0.4-0.4-0.6-1-0.6-1.8V394
		h1.1v5.7c0,0.5,0.1,0.9,0.4,1.2c0.3,0.3,0.6,0.4,1,0.4c0.4,0,0.7-0.1,1-0.4c0.3-0.2,0.4-0.6,0.4-1.2V394h1.1V399.7z"/>
	<path fill="#FFFFFF" d="M627.8,399.8c0,0.7-0.2,1.3-0.7,1.7c-0.5,0.4-1.1,0.6-1.9,0.6c-0.8,0-1.4-0.2-1.8-0.7
		c-0.4-0.4-0.7-1-0.7-1.6v-0.3h1.1v0.3c0,0.5,0.1,0.8,0.4,1.1c0.3,0.3,0.6,0.4,1,0.4c0.5,0,0.9-0.1,1.1-0.4c0.2-0.3,0.4-0.6,0.4-1
		c0-0.3-0.1-0.6-0.4-0.9c-0.3-0.3-0.7-0.5-1.2-0.7c-0.8-0.3-1.3-0.6-1.6-0.9c-0.3-0.3-0.5-0.8-0.5-1.2c0-0.7,0.2-1.2,0.7-1.6
		c0.5-0.4,1-0.6,1.6-0.6c0.8,0,1.4,0.2,1.8,0.7c0.4,0.5,0.5,1,0.5,1.6h-1.1c0-0.3-0.1-0.7-0.3-0.9c-0.2-0.3-0.5-0.4-0.9-0.4
		c-0.4,0-0.7,0.1-0.9,0.3c-0.2,0.2-0.3,0.5-0.3,0.8c0,0.3,0.1,0.5,0.3,0.7c0.2,0.2,0.6,0.4,1.3,0.7c0.7,0.3,1.2,0.6,1.6,1
		C627.6,398.8,627.8,399.3,627.8,399.8z"/>
	<path fill="#FFFFFF" d="M633.9,399.6c0,0.9-0.3,1.5-0.8,1.9c-0.5,0.3-1.1,0.5-1.9,0.5h-2.3v-8h2.4c0.8,0,1.4,0.2,1.8,0.6
		c0.4,0.4,0.6,0.9,0.6,1.5s-0.1,1-0.4,1.2c-0.3,0.3-0.5,0.4-0.8,0.5c0.4,0.1,0.7,0.3,1,0.6C633.8,398.7,633.9,399.1,633.9,399.6z
		 M632.6,396.1c0-0.4-0.1-0.7-0.4-0.9s-0.5-0.3-0.9-0.3H630v2.5h1.4c0.3,0,0.6-0.1,0.9-0.3C632.5,396.9,632.6,396.5,632.6,396.1z
		 M632.8,399.6c0-0.5-0.2-0.9-0.5-1.1c-0.3-0.2-0.7-0.3-1.1-0.3H630v2.9h1.1c0.6,0,1-0.1,1.3-0.3
		C632.6,400.6,632.8,400.2,632.8,399.6z"/>
</g>
<g>
	<path fill="#FFFFFF" d="M226.4,397.1h-3.8v2.6h2.9v0.9h-2.9v3.6h-1.1v-8h4.9V397.1z"/>
	<path fill="#FFFFFF" d="M227.4,399.7c0-0.8,0.1-1.5,0.4-2c0.2-0.5,0.5-0.9,0.9-1.2c0.4-0.3,0.8-0.5,1.4-0.5c0.5,0,1,0.2,1.4,0.7
		c0.4,0.5,0.7,1,0.8,1.7c0.1,0.7,0.2,1.5,0.1,2.4s-0.2,1.6-0.5,2.2c-0.3,0.6-0.7,1-1.2,1.2c-0.5,0.2-1.1,0.2-1.6-0.1
		c-0.5-0.3-0.9-0.6-1.1-1.1c-0.2-0.4-0.4-0.9-0.5-1.4C227.4,401.2,227.3,400.6,227.4,399.7z M228.3,399.5c-0.1,0.9-0.1,1.6,0.1,2.3
		c0.2,0.7,0.4,1.1,0.8,1.4c0.4,0.3,0.7,0.3,1.1,0.2c0.4-0.2,0.6-0.5,0.8-1c0.2-0.5,0.3-1.1,0.3-1.7s0-1.2-0.1-1.7
		c0-0.5-0.2-1-0.4-1.4c-0.2-0.4-0.5-0.6-0.9-0.6c-0.4,0-0.7,0.2-1,0.6C228.6,398,228.4,398.6,228.3,399.5z"/>
</g>
<g>
	<path fill="#FFFFFF" d="M251.8,397.1h-3.8v2.6h2.9v0.9h-2.9v3.6h-1.1v-8h4.9V397.1z"/>
	<path fill="#FFFFFF" d="M254.9,397.7c-0.4,0.4-0.9,0.8-1.5,1.2V398c0.8-0.5,1.4-1.2,1.9-1.9h0.6v8.1h-0.9V397.7z"/>
</g>
<g>
	<path fill="#FFFFFF" d="M277.1,397.1h-3.8v2.6h2.9v0.9h-2.9v3.6h-1.1v-8h4.9V397.1z"/>
	<path fill="#FFFFFF" d="M278.2,404c0-0.5,0.3-0.9,0.7-1.3c0.4-0.4,0.9-1,1.5-1.8c0.6-0.8,1-1.4,1.2-1.9c0.2-0.4,0.3-0.8,0.2-1.1
		c0-0.3-0.2-0.6-0.4-0.8c-0.3-0.2-0.5-0.3-0.9-0.3c-0.3,0-0.6,0.2-0.9,0.4c-0.3,0.2-0.5,0.5-0.7,1l-0.9-0.1c0.3-0.7,0.6-1.2,1-1.6
		c0.4-0.3,0.9-0.5,1.4-0.5c0.3,0,0.6,0,0.8,0c0.3,0,0.5,0.2,0.8,0.3c0.3,0.2,0.5,0.4,0.7,0.8c0.2,0.3,0.2,0.8,0.2,1.2
		c0,0.5-0.3,1.1-0.7,1.7c-0.4,0.7-1.3,1.7-2.5,3.2h3.4v0.8h-4.7V404z"/>
</g>
<g>
	<path fill="#FFFFFF" d="M301.9,397.1H298v2.6h2.9v0.9H298v3.6h-1.1v-8h4.9V397.1z"/>
	<path fill="#FFFFFF" d="M302.8,402.2l0.8-0.1c0.1,0.4,0.3,0.7,0.6,1c0.3,0.3,0.6,0.4,1.1,0.4c0.4,0,0.8-0.2,1-0.5
		c0.3-0.3,0.4-0.7,0.3-1.1c0-0.4-0.2-0.8-0.5-1c-0.3-0.2-0.8-0.4-1.4-0.5v-0.6c0.7-0.1,1.1-0.2,1.4-0.5c0.3-0.3,0.4-0.6,0.4-1.1
		c0-0.5-0.2-0.8-0.6-1c-0.4-0.2-0.8-0.2-1.2-0.1c-0.4,0.2-0.8,0.6-1,1.3l-0.8-0.1c0.2-0.6,0.4-1,0.8-1.4s0.8-0.6,1.3-0.7
		c0.6-0.1,1.1,0,1.5,0.2c0.4,0.2,0.7,0.5,0.9,0.9c0.2,0.4,0.2,0.9,0.1,1.4c-0.1,0.5-0.5,0.9-1.1,1.3c0.4,0.2,0.8,0.5,1,0.8
		s0.3,0.9,0.2,1.5c-0.1,0.6-0.4,1.1-0.8,1.5s-1,0.6-1.6,0.5c-0.6,0-1.1-0.2-1.5-0.6C303.3,403.4,303,402.9,302.8,402.2z"/>
</g>
<g>
	<path fill="#FFFFFF" d="M720.6,404.9h-3.8v2.6h2.9v0.9h-2.9v3.6h-1.1v-8h4.9V404.9z"/>
	<path fill="#FFFFFF" d="M721.6,407.5c0-0.8,0.1-1.5,0.4-2c0.2-0.5,0.5-0.9,0.9-1.2c0.4-0.3,0.8-0.5,1.4-0.5c0.5,0,1,0.2,1.4,0.7
		c0.4,0.5,0.7,1,0.8,1.7c0.1,0.7,0.2,1.5,0.1,2.4s-0.2,1.6-0.5,2.2c-0.3,0.6-0.7,1-1.2,1.2c-0.5,0.2-1.1,0.2-1.6-0.1
		c-0.5-0.3-0.9-0.6-1.1-1.1c-0.2-0.4-0.4-0.9-0.5-1.4C721.6,409,721.5,408.3,721.6,407.5z M722.6,407.2c-0.1,0.9-0.1,1.6,0.1,2.3
		c0.2,0.7,0.4,1.1,0.8,1.4c0.4,0.3,0.7,0.3,1.1,0.2c0.4-0.2,0.6-0.5,0.8-1c0.2-0.5,0.3-1.1,0.3-1.7s0-1.2-0.1-1.7
		c0-0.5-0.2-1-0.4-1.4c-0.2-0.4-0.5-0.6-0.9-0.6c-0.4,0-0.7,0.2-1,0.6C722.8,405.7,722.7,406.3,722.6,407.2z"/>
</g>
<g>
	<path fill="#FFFFFF" d="M771.5,404.9h-3.8v2.6h2.9v0.9h-2.9v3.6h-1.1v-8h4.9V404.9z"/>
	<path fill="#FFFFFF" d="M774.6,405.5c-0.4,0.4-0.9,0.8-1.5,1.2v-0.9c0.8-0.5,1.4-1.2,1.9-1.9h0.6v8.1h-0.9V405.5z"/>
</g>
<g>
	<path fill="#FFFFFF" d="M822.3,404.9h-3.8v2.6h2.9v0.9h-2.9v3.6h-1.1v-8h4.9V404.9z"/>
	<path fill="#FFFFFF" d="M823.4,411.8c0-0.5,0.3-0.9,0.7-1.3c0.4-0.4,0.9-1,1.5-1.8c0.6-0.8,1-1.4,1.2-1.9c0.2-0.4,0.3-0.8,0.2-1.1
		c0-0.3-0.2-0.6-0.4-0.8c-0.3-0.2-0.5-0.3-0.9-0.3c-0.3,0-0.6,0.2-0.9,0.4c-0.3,0.2-0.5,0.5-0.7,1l-0.9-0.1c0.3-0.7,0.6-1.2,1-1.6
		c0.4-0.3,0.9-0.5,1.4-0.5c0.3,0,0.6,0,0.8,0c0.3,0,0.5,0.2,0.8,0.3c0.3,0.2,0.5,0.4,0.7,0.8c0.2,0.3,0.2,0.8,0.2,1.2
		c0,0.5-0.3,1.1-0.7,1.7c-0.4,0.7-1.3,1.7-2.5,3.2h3.4v0.8h-4.7V411.8z"/>
</g>
<g>
	<path fill="#FFFFFF" d="M873.2,404.9h-3.8v2.6h2.9v0.9h-2.9v3.6h-1.1v-8h4.9V404.9z"/>
	<path fill="#FFFFFF" d="M874.2,409.9l0.8-0.1c0.1,0.4,0.3,0.7,0.6,1c0.3,0.3,0.6,0.4,1.1,0.4c0.4,0,0.8-0.2,1-0.5
		c0.3-0.3,0.4-0.7,0.3-1.1c0-0.4-0.2-0.8-0.5-1c-0.3-0.2-0.8-0.4-1.4-0.5v-0.6c0.7-0.1,1.1-0.2,1.4-0.5c0.3-0.3,0.4-0.6,0.4-1.1
		c0-0.5-0.2-0.8-0.6-1c-0.4-0.2-0.8-0.2-1.2-0.1c-0.4,0.2-0.8,0.6-1,1.3l-0.8-0.1c0.2-0.6,0.4-1,0.8-1.4s0.8-0.6,1.3-0.7
		c0.6-0.1,1.1,0,1.5,0.2c0.4,0.2,0.7,0.5,0.9,0.9c0.2,0.4,0.2,0.9,0.1,1.4c-0.1,0.5-0.5,0.9-1.1,1.3c0.4,0.2,0.8,0.5,1,0.8
		s0.3,0.9,0.2,1.5c-0.1,0.6-0.4,1.1-0.8,1.5s-1,0.6-1.6,0.5c-0.6,0-1.1-0.2-1.5-0.6C874.6,411.1,874.3,410.6,874.2,409.9z"/>
</g>
<g>
	<path fill="#FFFFFF" d="M973.2,412h-4.8v-8h4.5v0.9h-3.5v2.5h3.2v0.9h-3.2v2.9h3.7V412z"/>
	<path fill="#FFFFFF" d="M974.2,407.5c0-0.8,0.1-1.5,0.4-2c0.2-0.5,0.5-0.9,0.9-1.2c0.4-0.3,0.8-0.5,1.4-0.5c0.5,0,1,0.2,1.4,0.7
		c0.4,0.5,0.7,1,0.8,1.7c0.1,0.7,0.2,1.5,0.1,2.4s-0.2,1.6-0.5,2.2c-0.3,0.6-0.7,1-1.2,1.2c-0.5,0.2-1.1,0.2-1.6-0.1
		c-0.5-0.3-0.9-0.6-1.1-1.1c-0.2-0.4-0.4-0.9-0.5-1.4C974.2,409,974.1,408.3,974.2,407.5z M975.1,407.2c-0.1,0.9-0.1,1.6,0.1,2.3
		c0.2,0.7,0.4,1.1,0.8,1.4c0.4,0.3,0.7,0.3,1.1,0.2c0.4-0.2,0.6-0.5,0.8-1c0.2-0.5,0.3-1.1,0.3-1.7s0-1.2-0.1-1.7
		c0-0.5-0.2-1-0.4-1.4c-0.2-0.4-0.5-0.6-0.9-0.6c-0.4,0-0.7,0.2-1,0.6C975.4,405.7,975.2,406.3,975.1,407.2z"/>
</g>
<g>
	<path fill="#FFFFFF" d="M1022.4,412h-4.8v-8h4.5v0.9h-3.5v2.5h3.2v0.9h-3.2v2.9h3.7V412z"/>
	<path fill="#FFFFFF" d="M1025.6,405.5c-0.4,0.4-0.9,0.8-1.5,1.2v-0.9c0.8-0.5,1.4-1.2,1.9-1.9h0.6v8.1h-0.9V405.5z"/>
</g>
<g>
	<path fill="#FFFFFF" d="M1072.3,412h-4.8v-8h4.5v0.9h-3.5v2.5h3.2v0.9h-3.2v2.9h3.7V412z"/>
	<path fill="#FFFFFF" d="M1073.5,411.8c0-0.5,0.3-0.9,0.7-1.3c0.4-0.4,0.9-1,1.5-1.8c0.6-0.8,1-1.4,1.2-1.9c0.2-0.4,0.3-0.8,0.2-1.1
		c0-0.3-0.2-0.6-0.4-0.8c-0.3-0.2-0.5-0.3-0.9-0.3c-0.3,0-0.6,0.2-0.9,0.4c-0.3,0.2-0.5,0.5-0.7,1l-0.9-0.1c0.3-0.7,0.6-1.2,1-1.6
		c0.4-0.3,0.9-0.5,1.4-0.5c0.3,0,0.6,0,0.8,0c0.3,0,0.5,0.2,0.8,0.3c0.3,0.2,0.5,0.4,0.7,0.8c0.2,0.3,0.2,0.8,0.2,1.2
		c0,0.5-0.3,1.1-0.7,1.7c-0.4,0.7-1.3,1.7-2.5,3.2h3.4v0.8h-4.7V411.8z"/>
</g>
<g>
	<path fill="#FFFFFF" d="M1121,412h-4.8v-8h4.5v0.9h-3.5v2.5h3.2v0.9h-3.2v2.9h3.7V412z"/>
	<path fill="#FFFFFF" d="M1122,409.9l0.8-0.1c0.1,0.4,0.3,0.7,0.6,1c0.3,0.3,0.6,0.4,1.1,0.4c0.4,0,0.8-0.2,1-0.5
		c0.3-0.3,0.4-0.7,0.3-1.1c0-0.4-0.2-0.8-0.5-1c-0.3-0.2-0.8-0.4-1.4-0.5v-0.6c0.7-0.1,1.1-0.2,1.4-0.5c0.3-0.3,0.4-0.6,0.4-1.1
		c0-0.5-0.2-0.8-0.6-1c-0.4-0.2-0.8-0.2-1.2-0.1c-0.4,0.2-0.8,0.6-1,1.3l-0.8-0.1c0.2-0.6,0.4-1,0.8-1.4s0.8-0.6,1.3-0.7
		c0.6-0.1,1.1,0,1.5,0.2c0.4,0.2,0.7,0.5,0.9,0.9c0.2,0.4,0.2,0.9,0.1,1.4c-0.1,0.5-0.5,0.9-1.1,1.3c0.4,0.2,0.8,0.5,1,0.8
		s0.3,0.9,0.2,1.5c-0.1,0.6-0.4,1.1-0.8,1.5s-1,0.6-1.6,0.5c-0.6,0-1.1-0.2-1.5-0.6C1122.4,411.1,1122.2,410.6,1122,409.9z"/>
</g>
<g>
	<path fill="#040000" d="M131.7,415.3c3.9,0,7,3.1,7,7c0,3.9-3.1,7-7,7c-3.9,0-7-3.1-7-7C124.7,418.4,127.8,415.3,131.7,415.3"/>
	<g>
		<defs>
			<path id="SVGID_14_" d="M126,422.3c0,3.1,2.5,5.6,5.6,5.6c3.1,0,5.6-2.5,5.6-5.6c0-3.1-2.5-5.6-5.6-5.6
				C128.6,416.6,126,419.1,126,422.3"/>
		</defs>
		<clipPath id="SVGID_12_">
			<use xlink:href="#SVGID_14_"  overflow="visible"/>
		</clipPath>
		
			<radialGradient id="SVGID_13_" cx="4159.7866" cy="6328.0713" r="0.6789" gradientTransform="matrix(8.2859 0 0 8.2859 -34335.9023 -52011.5156)" gradientUnits="userSpaceOnUse">
			<stop  offset="0" style="stop-color:#F0FFE3"/>
			<stop  offset="1" style="stop-color:#EAED3C"/>
		</radialGradient>
		<rect x="126" y="416.6" clip-path="url(#SVGID_12_)" fill="url(#SVGID_13_)" width="11.3" height="11.3"/>
	</g>
	<g opacity="0.5" enable-background="new    ">
		<g>
			<defs>
				<rect id="SVGID_11_" x="129" y="419" width="1.9" height="1.9"/>
			</defs>
			<clipPath id="SVGID_15_">
				<use xlink:href="#SVGID_11_"  overflow="visible"/>
			</clipPath>
			<rect x="129" y="419" clip-path="url(#SVGID_15_)" fill="#FFFFFF" width="1.9" height="1.9"/>
		</g>
	</g>
	<g opacity="0.5" enable-background="new    ">
		<g>
			<defs>
				<rect id="SVGID_9_" x="129" y="419" width="0.9" height="1.9"/>
			</defs>
			<clipPath id="SVGID_16_">
				<use xlink:href="#SVGID_9_"  overflow="visible"/>
			</clipPath>
			<rect x="129" y="419" clip-path="url(#SVGID_16_)" fill="#FFFFFF" width="0.9" height="1.9"/>
		</g>
	</g>
</g>
<g>
	<path fill="#040000" d="M190.3,415.3c3.9,0,7,3.1,7,7c0,3.9-3.1,7-7,7c-3.9,0-7-3.1-7-7C183.3,418.4,186.4,415.3,190.3,415.3"/>
	<g>
		<defs>
			<path id="SVGID_25_" d="M184.7,422.3c0,3.1,2.5,5.6,5.6,5.6c3.1,0,5.6-2.5,5.6-5.6c0-3.1-2.5-5.6-5.6-5.6
				C187.2,416.6,184.7,419.1,184.7,422.3"/>
		</defs>
		<clipPath id="SVGID_17_">
			<use xlink:href="#SVGID_25_"  overflow="visible"/>
		</clipPath>
		
			<radialGradient id="SVGID_18_" cx="4169.3047" cy="6327.8301" r="1.0002" gradientTransform="matrix(8.2859 0 0 8.2859 -34357.5 -52011.5156)" gradientUnits="userSpaceOnUse">
			<stop  offset="0" style="stop-color:#636262"/>
			<stop  offset="1" style="stop-color:#000000"/>
		</radialGradient>
		<rect x="184.7" y="416.6" clip-path="url(#SVGID_17_)" fill="url(#SVGID_18_)" width="11.3" height="11.3"/>
	</g>
	<g opacity="0.5" enable-background="new    ">
		<g>
			<defs>
				<rect id="SVGID_23_" x="187.7" y="419" width="1.9" height="1.9"/>
			</defs>
			<clipPath id="SVGID_19_">
				<use xlink:href="#SVGID_23_"  overflow="visible"/>
			</clipPath>
			<rect x="187.7" y="419" clip-path="url(#SVGID_19_)" fill="#FFFFFF" width="1.9" height="1.9"/>
		</g>
	</g>
	<g opacity="0.5" enable-background="new    ">
		<g>
			<defs>
				<rect id="SVGID_22_" x="187.7" y="419" width="0.9" height="1.9"/>
			</defs>
			<clipPath id="SVGID_20_">
				<use xlink:href="#SVGID_22_"  overflow="visible"/>
			</clipPath>
			<rect x="187.7" y="419" clip-path="url(#SVGID_20_)" fill="#FFFFFF" width="0.9" height="1.9"/>
		</g>
	</g>
</g>
<g>
	<path fill="#040000" d="M227.9,415.3c3.9,0,7,3.1,7,7c0,3.9-3.1,7-7,7c-3.9,0-7-3.1-7-7C220.9,418.4,224.1,415.3,227.9,415.3"/>
	<g>
		<defs>
			<path id="SVGID_28_" d="M222.3,422.3c0,3.1,2.5,5.6,5.6,5.6c3.1,0,5.6-2.5,5.6-5.6c0-3.1-2.5-5.6-5.6-5.6
				C224.8,416.6,222.3,419.1,222.3,422.3"/>
		</defs>
		<clipPath id="SVGID_21_">
			<use xlink:href="#SVGID_28_"  overflow="visible"/>
		</clipPath>
		
			<radialGradient id="SVGID_24_" cx="4173.8457" cy="6327.8301" r="1.0002" gradientTransform="matrix(8.2859 0 0 8.2859 -34357.5 -52011.5156)" gradientUnits="userSpaceOnUse">
			<stop  offset="0" style="stop-color:#636262"/>
			<stop  offset="1" style="stop-color:#000000"/>
		</radialGradient>
		<rect x="222.3" y="416.6" clip-path="url(#SVGID_21_)" fill="url(#SVGID_24_)" width="11.3" height="11.3"/>
	</g>
	<g opacity="0.5" enable-background="new    ">
		<g>
			<defs>
				<rect id="SVGID_27_" x="225.3" y="419" width="1.9" height="1.9"/>
			</defs>
			<clipPath id="SVGID_29_">
				<use xlink:href="#SVGID_27_"  overflow="visible"/>
			</clipPath>
			<rect x="225.3" y="419" clip-path="url(#SVGID_29_)" fill="#FFFFFF" width="1.9" height="1.9"/>
		</g>
	</g>
	<g opacity="0.5" enable-background="new    ">
		<g>
			<defs>
				<rect id="SVGID_26_" x="225.3" y="419" width="0.9" height="1.9"/>
			</defs>
			<clipPath id="SVGID_32_">
				<use xlink:href="#SVGID_26_"  overflow="visible"/>
			</clipPath>
			<rect x="225.3" y="419" clip-path="url(#SVGID_32_)" fill="#FFFFFF" width="0.9" height="1.9"/>
		</g>
	</g>
</g>
<g>
	<path fill="#040000" d="M253.3,415.3c3.9,0,7,3.1,7,7c0,3.9-3.1,7-7,7c-3.9,0-7-3.1-7-7C246.3,418.4,249.4,415.3,253.3,415.3"/>
	<g>
		<defs>
			<path id="SVGID_33_" d="M247.7,422.3c0,3.1,2.5,5.6,5.6,5.6c3.1,0,5.6-2.5,5.6-5.6c0-3.1-2.5-5.6-5.6-5.6
				C250.2,416.6,247.7,419.1,247.7,422.3"/>
		</defs>
		<clipPath id="SVGID_35_">
			<use xlink:href="#SVGID_33_"  overflow="visible"/>
		</clipPath>
		
			<radialGradient id="SVGID_38_" cx="4176.9038" cy="6327.8301" r="1.0002" gradientTransform="matrix(8.2859 0 0 8.2859 -34357.5 -52011.5156)" gradientUnits="userSpaceOnUse">
			<stop  offset="0" style="stop-color:#636262"/>
			<stop  offset="1" style="stop-color:#000000"/>
		</radialGradient>
		<rect x="247.7" y="416.6" clip-path="url(#SVGID_35_)" fill="url(#SVGID_38_)" width="11.3" height="11.3"/>
	</g>
	<g opacity="0.5" enable-background="new    ">
		<g>
			<defs>
				<rect id="SVGID_31_" x="250.7" y="419" width="1.9" height="1.9"/>
			</defs>
			<clipPath id="SVGID_39_">
				<use xlink:href="#SVGID_31_"  overflow="visible"/>
			</clipPath>
			<rect x="250.7" y="419" clip-path="url(#SVGID_39_)" fill="#FFFFFF" width="1.9" height="1.9"/>
		</g>
	</g>
	<g opacity="0.5" enable-background="new    ">
		<g>
			<defs>
				<rect id="SVGID_30_" x="250.7" y="419" width="0.9" height="1.9"/>
			</defs>
			<clipPath id="SVGID_41_">
				<use xlink:href="#SVGID_30_"  overflow="visible"/>
			</clipPath>
			<rect x="250.7" y="419" clip-path="url(#SVGID_41_)" fill="#FFFFFF" width="0.9" height="1.9"/>
		</g>
	</g>
</g>
<g>
	<path fill="#040000" d="M278.6,415.3c3.9,0,7,3.1,7,7c0,3.9-3.1,7-7,7c-3.9,0-7-3.1-7-7C271.6,418.4,274.8,415.3,278.6,415.3"/>
	<g>
		<defs>
			<path id="SVGID_37_" d="M273,422.3c0,3.1,2.5,5.6,5.6,5.6c3.1,0,5.6-2.5,5.6-5.6c0-3.1-2.5-5.6-5.6-5.6
				C275.5,416.6,273,419.1,273,422.3"/>
		</defs>
		<clipPath id="SVGID_44_">
			<use xlink:href="#SVGID_37_"  overflow="visible"/>
		</clipPath>
		
			<radialGradient id="SVGID_46_" cx="4179.9624" cy="6327.8301" r="1.0002" gradientTransform="matrix(8.2859 0 0 8.2859 -34357.5 -52011.5156)" gradientUnits="userSpaceOnUse">
			<stop  offset="0" style="stop-color:#636262"/>
			<stop  offset="1" style="stop-color:#000000"/>
		</radialGradient>
		<rect x="273" y="416.6" clip-path="url(#SVGID_44_)" fill="url(#SVGID_46_)" width="11.3" height="11.3"/>
	</g>
	<g opacity="0.5" enable-background="new    ">
		<g>
			<defs>
				<rect id="SVGID_36_" x="276" y="419" width="1.9" height="1.9"/>
			</defs>
			<clipPath id="SVGID_48_">
				<use xlink:href="#SVGID_36_"  overflow="visible"/>
			</clipPath>
			<rect x="276" y="419" clip-path="url(#SVGID_48_)" fill="#FFFFFF" width="1.9" height="1.9"/>
		</g>
	</g>
	<g opacity="0.5" enable-background="new    ">
		<g>
			<defs>
				<rect id="SVGID_34_" x="276" y="419" width="0.9" height="1.9"/>
			</defs>
			<clipPath id="SVGID_49_">
				<use xlink:href="#SVGID_34_"  overflow="visible"/>
			</clipPath>
			<rect x="276" y="419" clip-path="url(#SVGID_49_)" fill="#FFFFFF" width="0.9" height="1.9"/>
		</g>
	</g>
</g>
<g>
	<path fill="#040000" d="M304,415.3c3.9,0,7,3.1,7,7c0,3.9-3.1,7-7,7c-3.9,0-7-3.1-7-7C297,418.4,300.1,415.3,304,415.3"/>
	<g>
		<defs>
			<path id="SVGID_43_" d="M298.3,422.3c0,3.1,2.5,5.6,5.6,5.6c3.1,0,5.6-2.5,5.6-5.6c0-3.1-2.5-5.6-5.6-5.6
				C300.9,416.6,298.3,419.1,298.3,422.3"/>
		</defs>
		<clipPath id="SVGID_52_">
			<use xlink:href="#SVGID_43_"  overflow="visible"/>
		</clipPath>
		
			<radialGradient id="SVGID_53_" cx="4183.021" cy="6327.8301" r="1.0002" gradientTransform="matrix(8.2859 0 0 8.2859 -34357.5 -52011.5156)" gradientUnits="userSpaceOnUse">
			<stop  offset="0" style="stop-color:#636262"/>
			<stop  offset="1" style="stop-color:#000000"/>
		</radialGradient>
		<rect x="298.3" y="416.6" clip-path="url(#SVGID_52_)" fill="url(#SVGID_53_)" width="11.3" height="11.3"/>
	</g>
	<g opacity="0.5" enable-background="new    ">
		<g>
			<defs>
				<rect id="SVGID_42_" x="301.3" y="419" width="1.9" height="1.9"/>
			</defs>
			<clipPath id="SVGID_55_">
				<use xlink:href="#SVGID_42_"  overflow="visible"/>
			</clipPath>
			<rect x="301.3" y="419" clip-path="url(#SVGID_55_)" fill="#FFFFFF" width="1.9" height="1.9"/>
		</g>
	</g>
	<g opacity="0.5" enable-background="new    ">
		<g>
			<defs>
				<rect id="SVGID_40_" x="301.3" y="419" width="0.9" height="1.9"/>
			</defs>
			<clipPath id="SVGID_57_">
				<use xlink:href="#SVGID_40_"  overflow="visible"/>
			</clipPath>
			<rect x="301.3" y="419" clip-path="url(#SVGID_57_)" fill="#FFFFFF" width="0.9" height="1.9"/>
		</g>
	</g>
</g>
</svg>
