<?xml version="1.0" encoding="utf-8"?>
<!-- Generator: Adobe Illustrator 21.0.0, SVG Export Plug-In . SVG Version: 6.00 Build 0)  -->
<svg version="1.1" id="图层_1" xmlns="http://www.w3.org/2000/svg" xmlns:xlink="http://www.w3.org/1999/xlink" x="0px" y="0px"
	 width="1417.3px" height="126.1px" viewBox="0 0 1417.3 126.1" enable-background="new 0 0 1417.3 126.1" xml:space="preserve">
<g id="XMLID_6344_">
	<rect id="XMLID_601_" x="4.3" y="4.3" fill="#282828" width="1408.8" height="117.6"/>
	<path id="XMLID_598_" fill="#141414" d="M1408.8,8.5v109.1H8.5V8.5H1408.8 M1417.3,0H0v126.1h1417.3V0L1417.3,0z"/>
</g>
<rect id="XMLID_6337_" x="0" y="0" fill="#141414" width="63.8" height="126.1"/>
<rect id="XMLID_6333_" x="1353.5" y="0" fill="#141414" width="63.8" height="126.1"/>
<g id="XMLID_6154_">
	<g id="XMLID_6159_">
		<radialGradient id="XMLID_178_" cx="31.8899" cy="19.8555" r="12.7683" gradientUnits="userSpaceOnUse">
			<stop  offset="0.6774" style="stop-color:#2B2B2B"/>
			<stop  offset="0.8441" style="stop-color:#595757"/>
			<stop  offset="1" style="stop-color:#000000"/>
		</radialGradient>
		<path id="XMLID_6332_" fill="url(#XMLID_178_)" d="M44.7,19.9c0,7-5.7,12.8-12.8,12.8c-7.1,0-12.8-5.7-12.8-12.8
			c0-7.1,5.7-12.8,12.8-12.8C38.9,7.1,44.7,12.8,44.7,19.9"/>
		
			<ellipse id="XMLID_6331_" fill="none" stroke="#131313" stroke-width="0.75" stroke-miterlimit="10" cx="31.9" cy="19.9" rx="12.8" ry="12.8"/>
		<polygon id="XMLID_6317_" fill="#0A0A0A" points="30.3,27.1 30.3,21.4 24.6,21.4 24.6,18.3 30.3,18.3 30.3,12.6 33.5,12.6 
			33.5,18.3 39.1,18.3 39.1,21.4 33.5,21.4 33.5,27.1 		"/>
		<path id="XMLID_6160_" fill="#231815" d="M33.2,12.9V18v0.5h0.5h5.1v2.6h-5.1h-0.5v0.5v5.1h-2.6v-5.1v-0.5H30h-5.1v-2.6H30h0.5V18
			v-5.1H33.2z M33.7,12.3H30V18h-5.7v3.7H30v5.7h3.7v-5.7h5.7V18h-5.7V12.3z"/>
	</g>
	<rect id="XMLID_6158_" x="30" y="12.3" fill="#606060" width="0.5" height="6.2"/>
	<rect id="XMLID_6157_" x="24.4" y="18" fill="#606060" width="6.2" height="0.5"/>
	<rect id="XMLID_6156_" x="30" y="12.3" fill="#494949" width="3.7" height="0.5"/>
	<rect id="XMLID_6155_" x="24.4" y="18" fill="#545454" width="0.5" height="3.7"/>
</g>
<g id="XMLID_6132_">
	<g id="XMLID_6147_">
		<radialGradient id="XMLID_180_" cx="31.8899" cy="105.4867" r="12.7683" gradientUnits="userSpaceOnUse">
			<stop  offset="0.6774" style="stop-color:#2B2B2B"/>
			<stop  offset="0.8441" style="stop-color:#595757"/>
			<stop  offset="1" style="stop-color:#000000"/>
		</radialGradient>
		<path id="XMLID_6153_" fill="url(#XMLID_180_)" d="M44.7,105.5c0,7-5.7,12.8-12.8,12.8c-7.1,0-12.8-5.7-12.8-12.8
			c0-7.1,5.7-12.8,12.8-12.8C38.9,92.7,44.7,98.4,44.7,105.5"/>
		
			<ellipse id="XMLID_6152_" fill="none" stroke="#131313" stroke-width="0.75" stroke-miterlimit="10" cx="31.9" cy="105.5" rx="12.8" ry="12.8"/>
		<polygon id="XMLID_6151_" fill="#0A0A0A" points="30.3,112.7 30.3,107.1 24.6,107.1 24.6,103.9 30.3,103.9 30.3,98.2 33.5,98.2 
			33.5,103.9 39.1,103.9 39.1,107.1 33.5,107.1 33.5,112.7 		"/>
		<path id="XMLID_6148_" fill="#231815" d="M33.2,98.5v5.1v0.5h0.5h5.1v2.6h-5.1h-0.5v0.5v5.1h-2.6v-5.1v-0.5H30h-5.1v-2.6H30h0.5
			v-0.5v-5.1H33.2z M33.7,98H30v5.7h-5.7v3.7H30v5.7h3.7v-5.7h5.7v-3.7h-5.7V98z"/>
	</g>
	<rect id="XMLID_6146_" x="30" y="98" fill="#606060" width="0.5" height="6.2"/>
	<rect id="XMLID_6145_" x="24.4" y="103.6" fill="#606060" width="6.2" height="0.5"/>
	<rect id="XMLID_6144_" x="30" y="98" fill="#494949" width="3.7" height="0.5"/>
	<rect id="XMLID_6142_" x="24.4" y="103.6" fill="#545454" width="0.5" height="3.7"/>
</g>
<g id="XMLID_6032_">
	<g id="XMLID_6037_">
		<radialGradient id="XMLID_182_" cx="1386.7064" cy="19.8555" r="12.7683" gradientUnits="userSpaceOnUse">
			<stop  offset="0.6774" style="stop-color:#2B2B2B"/>
			<stop  offset="0.8441" style="stop-color:#595757"/>
			<stop  offset="1" style="stop-color:#000000"/>
		</radialGradient>
		<path id="XMLID_6043_" fill="url(#XMLID_182_)" d="M1399.5,19.9c0,7-5.7,12.8-12.8,12.8c-7.1,0-12.8-5.7-12.8-12.8
			c0-7.1,5.7-12.8,12.8-12.8C1393.8,7.1,1399.5,12.8,1399.5,19.9"/>
		
			<ellipse id="XMLID_6042_" fill="none" stroke="#131313" stroke-width="0.75" stroke-miterlimit="10" cx="1386.7" cy="19.9" rx="12.8" ry="12.8"/>
		<polygon id="XMLID_6041_" fill="#0A0A0A" points="1385.1,27.1 1385.1,21.4 1379.5,21.4 1379.5,18.3 1385.1,18.3 1385.1,12.6 
			1388.3,12.6 1388.3,18.3 1393.9,18.3 1393.9,21.4 1388.3,21.4 1388.3,27.1 		"/>
		<path id="XMLID_6038_" fill="#231815" d="M1388,12.9V18v0.5h0.5h5.1v2.6h-5.1h-0.5v0.5v5.1h-2.6v-5.1v-0.5h-0.5h-5.1v-2.6h5.1h0.5
			V18v-5.1H1388z M1388.6,12.3h-3.7V18h-5.7v3.7h5.7v5.7h3.7v-5.7h5.7V18h-5.7V12.3z"/>
	</g>
	<rect id="XMLID_6036_" x="1384.9" y="12.3" fill="#606060" width="0.5" height="6.2"/>
	<rect id="XMLID_6035_" x="1379.2" y="18" fill="#606060" width="6.2" height="0.5"/>
	<rect id="XMLID_6034_" x="1384.9" y="12.3" fill="#494949" width="3.7" height="0.5"/>
	<rect id="XMLID_6033_" x="1379.2" y="18" fill="#545454" width="0.5" height="3.7"/>
</g>
<g id="XMLID_6020_">
	<g id="XMLID_6025_">
		<radialGradient id="XMLID_231_" cx="1386.7064" cy="105.4867" r="12.7683" gradientUnits="userSpaceOnUse">
			<stop  offset="0.6774" style="stop-color:#2B2B2B"/>
			<stop  offset="0.8441" style="stop-color:#595757"/>
			<stop  offset="1" style="stop-color:#000000"/>
		</radialGradient>
		<path id="XMLID_6031_" fill="url(#XMLID_231_)" d="M1399.5,105.5c0,7-5.7,12.8-12.8,12.8c-7.1,0-12.8-5.7-12.8-12.8
			c0-7.1,5.7-12.8,12.8-12.8C1393.8,92.7,1399.5,98.4,1399.5,105.5"/>
		
			<ellipse id="XMLID_6030_" fill="none" stroke="#131313" stroke-width="0.75" stroke-miterlimit="10" cx="1386.7" cy="105.5" rx="12.8" ry="12.8"/>
		<polygon id="XMLID_6029_" fill="#0A0A0A" points="1385.1,112.7 1385.1,107.1 1379.5,107.1 1379.5,103.9 1385.1,103.9 1385.1,98.2 
			1388.3,98.2 1388.3,103.9 1393.9,103.9 1393.9,107.1 1388.3,107.1 1388.3,112.7 		"/>
		<path id="XMLID_6026_" fill="#231815" d="M1388,98.5v5.1v0.5h0.5h5.1v2.6h-5.1h-0.5v0.5v5.1h-2.6v-5.1v-0.5h-0.5h-5.1v-2.6h5.1
			h0.5v-0.5v-5.1H1388z M1388.6,98h-3.7v5.7h-5.7v3.7h5.7v5.7h3.7v-5.7h5.7v-3.7h-5.7V98z"/>
	</g>
	<rect id="XMLID_6024_" x="1384.9" y="98" fill="#606060" width="0.5" height="6.2"/>
	<rect id="XMLID_6023_" x="1379.2" y="103.6" fill="#606060" width="6.2" height="0.5"/>
	<rect id="XMLID_6022_" x="1384.9" y="98" fill="#494949" width="3.7" height="0.5"/>
	<rect id="XMLID_6021_" x="1379.2" y="103.6" fill="#545454" width="0.5" height="3.7"/>
</g>
<g id="XMLID_553_">
	<path id="XMLID_562_" fill="#040000" d="M504.2,63.1c1.8,0,3.3,1.5,3.3,3.3c0,1.8-1.5,3.3-3.3,3.3s-3.3-1.5-3.3-3.3
		C501,64.5,502.4,63.1,504.2,63.1"/>
	<g id="XMLID_560_">
		<defs>
			<path id="SVGID_64_" d="M501.6,66.3c0,1.5,1.2,2.6,2.6,2.6c1.5,0,2.6-1.2,2.6-2.6c0-1.5-1.2-2.6-2.6-2.6
				C502.8,63.7,501.6,64.9,501.6,66.3"/>
		</defs>
		<clipPath id="SVGID_314_">
			<use xlink:href="#SVGID_64_"  overflow="visible"/>
		</clipPath>
		
			<radialGradient id="XMLID_233_" cx="2625.991" cy="-2915.5964" r="0.4672" gradientTransform="matrix(8.2859 0 0 8.2859 -21255.1113 24223.748)" gradientUnits="userSpaceOnUse">
			<stop  offset="0" style="stop-color:#80C161"/>
			<stop  offset="1" style="stop-color:#13853B"/>
		</radialGradient>
		<rect id="XMLID_561_" x="501.6" y="63.7" clip-path="url(#SVGID_314_)" fill="url(#XMLID_233_)" width="5.3" height="5.3"/>
	</g>
	<g id="XMLID_557_" opacity="0.5" enable-background="new    ">
		<g id="XMLID_558_">
			<defs>
				<rect id="SVGID_63_" x="503" y="64.8" width="0.9" height="0.9"/>
			</defs>
			<clipPath id="SVGID_315_">
				<use xlink:href="#SVGID_63_"  overflow="visible"/>
			</clipPath>
			<rect id="XMLID_559_" x="503" y="64.8" clip-path="url(#SVGID_315_)" fill="#FFFFFF" width="0.9" height="0.9"/>
		</g>
	</g>
	<g id="XMLID_554_" opacity="0.5" enable-background="new    ">
		<g id="XMLID_555_">
			<defs>
				<rect id="SVGID_62_" x="503" y="64.8" width="0.4" height="0.9"/>
			</defs>
			<clipPath id="SVGID_316_">
				<use xlink:href="#SVGID_62_"  overflow="visible"/>
			</clipPath>
			<rect id="XMLID_556_" x="503" y="64.8" clip-path="url(#SVGID_316_)" fill="#FFFFFF" width="0.4" height="0.9"/>
		</g>
	</g>
</g>
<g id="XMLID_268_">
	<path id="XMLID_378_" fill="#040000" d="M504.2,74.4c1.8,0,3.3,1.5,3.3,3.3c0,1.8-1.5,3.3-3.3,3.3s-3.3-1.5-3.3-3.3
		C501,75.9,502.4,74.4,504.2,74.4"/>
	<g id="XMLID_275_">
		<defs>
			<path id="SVGID_18_" d="M501.6,77.7c0,1.5,1.2,2.6,2.6,2.6c1.5,0,2.6-1.2,2.6-2.6c0-1.5-1.2-2.6-2.6-2.6
				C502.8,75.1,501.6,76.2,501.6,77.7"/>
		</defs>
		<clipPath id="SVGID_317_">
			<use xlink:href="#SVGID_18_"  overflow="visible"/>
		</clipPath>
		
			<radialGradient id="XMLID_237_" cx="2625.991" cy="-2914.2283" r="0.4672" gradientTransform="matrix(8.2859 0 0 8.2859 -21255.1113 24223.748)" gradientUnits="userSpaceOnUse">
			<stop  offset="0" style="stop-color:#80C161"/>
			<stop  offset="1" style="stop-color:#13853B"/>
		</radialGradient>
		<rect id="XMLID_276_" x="501.6" y="75.1" clip-path="url(#SVGID_317_)" fill="url(#XMLID_237_)" width="5.3" height="5.3"/>
	</g>
	<g id="XMLID_272_" opacity="0.5" enable-background="new    ">
		<g id="XMLID_273_">
			<defs>
				<rect id="SVGID_17_" x="503" y="76.2" width="0.9" height="0.9"/>
			</defs>
			<clipPath id="SVGID_318_">
				<use xlink:href="#SVGID_17_"  overflow="visible"/>
			</clipPath>
			<rect id="XMLID_274_" x="503" y="76.2" clip-path="url(#SVGID_318_)" fill="#FFFFFF" width="0.9" height="0.9"/>
		</g>
	</g>
	<g id="XMLID_269_" opacity="0.5" enable-background="new    ">
		<g id="XMLID_270_">
			<defs>
				<rect id="SVGID_16_" x="503" y="76.2" width="0.4" height="0.9"/>
			</defs>
			<clipPath id="SVGID_319_">
				<use xlink:href="#SVGID_16_"  overflow="visible"/>
			</clipPath>
			<rect id="XMLID_271_" x="503" y="76.2" clip-path="url(#SVGID_319_)" fill="#FFFFFF" width="0.4" height="0.9"/>
		</g>
	</g>
</g>
<g id="XMLID_244_">
	<rect id="XMLID_246_" x="447.3" y="60" fill="#030000" width="43.1" height="35.4"/>
	<linearGradient id="XMLID_238_" gradientUnits="userSpaceOnUse" x1="447.8519" y1="77.7146" x2="489.8607" y2="77.7146">
		<stop  offset="0" style="stop-color:#FFFFFF"/>
		<stop  offset="0.1688" style="stop-color:#B1B4B5"/>
		<stop  offset="0.4086" style="stop-color:#E0E0DF"/>
		<stop  offset="0.7581" style="stop-color:#B1B4B5"/>
		<stop  offset="1" style="stop-color:#C2C2C2"/>
	</linearGradient>
	<rect id="XMLID_245_" x="447.9" y="60.7" fill="url(#XMLID_238_)" width="42" height="34.1"/>
</g>
<g id="XMLID_260_">
	<rect id="XMLID_262_" x="583.3" y="60" fill="#030000" width="43.1" height="35.4"/>
	<linearGradient id="XMLID_239_" gradientUnits="userSpaceOnUse" x1="583.8209" y1="77.7146" x2="625.8297" y2="77.7146">
		<stop  offset="0" style="stop-color:#FFFFFF"/>
		<stop  offset="0.1688" style="stop-color:#B1B4B5"/>
		<stop  offset="0.4086" style="stop-color:#E0E0DF"/>
		<stop  offset="0.7581" style="stop-color:#B1B4B5"/>
		<stop  offset="1" style="stop-color:#C2C2C2"/>
	</linearGradient>
	<rect id="XMLID_261_" x="583.8" y="60.7" fill="url(#XMLID_239_)" width="42" height="34.1"/>
</g>
<g id="XMLID_410_">
	<rect id="XMLID_417_" x="531.4" y="55.1" fill="#1B1D20" width="35.6" height="18.1"/>
	<rect id="XMLID_416_" x="535.3" y="55.1" fill="#ABABAE" width="7.5" height="2.1"/>
	<rect id="XMLID_415_" x="555.5" y="55.1" fill="#ABABAE" width="7.5" height="2.1"/>
	<rect id="XMLID_414_" x="535.5" y="59.8" fill="#5A5B55" width="27.3" height="3"/>
	<rect id="XMLID_413_" x="531.4" y="60.5" fill="#ABABAE" width="1.4" height="7.3"/>
	<rect id="XMLID_412_" x="565.5" y="60.5" fill="#ABABAE" width="1.4" height="7.3"/>
	<rect id="XMLID_411_" x="534.9" y="70.9" fill="#ABABAE" width="28.4" height="2.3"/>
</g>
<g id="XMLID_247_">
	<rect id="XMLID_380_" x="531.4" y="80.9" fill="#1B1D20" width="35.6" height="18.1"/>
	<rect id="XMLID_379_" x="535.3" y="80.9" fill="#ABABAE" width="7.5" height="2.1"/>
	<rect id="XMLID_267_" x="555.5" y="80.9" fill="#ABABAE" width="7.5" height="2.1"/>
	<rect id="XMLID_266_" x="535.5" y="85.7" fill="#5A5B55" width="27.3" height="3"/>
	<rect id="XMLID_265_" x="531.4" y="86.3" fill="#ABABAE" width="1.4" height="7.3"/>
	<rect id="XMLID_264_" x="565.5" y="86.3" fill="#ABABAE" width="1.4" height="7.3"/>
	<rect id="XMLID_263_" x="534.9" y="96.7" fill="#ABABAE" width="28.4" height="2.3"/>
</g>
<text id="XMLID_418_" transform="matrix(1 0 0 1 449.4271 49.6855)" fill="#C9CACA" font-family="'MicrosoftYaHei'" font-size="8px">CONSOLE</text>
<text id="XMLID_420_" transform="matrix(1 0 0 1 541.2649 49.6855)" fill="#C9CACA" font-family="'MicrosoftYaHei'" font-size="8px">USB</text>
<text id="XMLID_421_" transform="matrix(1 0 0 1 595.9979 49.6855)" fill="#C9CACA" font-family="'MicrosoftYaHei'" font-size="8px">FE1</text>
<g id="XMLID_435_">
	<rect id="XMLID_542_" x="639.1" y="60" fill="#030000" width="43.1" height="35.4"/>
	<linearGradient id="XMLID_240_" gradientUnits="userSpaceOnUse" x1="639.6271" y1="77.7146" x2="681.6359" y2="77.7146">
		<stop  offset="0" style="stop-color:#FFFFFF"/>
		<stop  offset="0.1688" style="stop-color:#B1B4B5"/>
		<stop  offset="0.4086" style="stop-color:#E0E0DF"/>
		<stop  offset="0.7581" style="stop-color:#B1B4B5"/>
		<stop  offset="1" style="stop-color:#C2C2C2"/>
	</linearGradient>
	<rect id="XMLID_541_" x="639.6" y="60.7" fill="url(#XMLID_240_)" width="42" height="34.1"/>
</g>
<text id="XMLID_422_" transform="matrix(1 0 0 1 651.8041 49.6855)" fill="#C9CACA" font-family="'MicrosoftYaHei'" font-size="8px">FE2</text>
<g id="XMLID_566_">
	<rect id="XMLID_568_" x="694.9" y="60" fill="#030000" width="43.1" height="35.4"/>
	<linearGradient id="XMLID_241_" gradientUnits="userSpaceOnUse" x1="695.4332" y1="77.7146" x2="737.442" y2="77.7146">
		<stop  offset="0" style="stop-color:#FFFFFF"/>
		<stop  offset="0.1688" style="stop-color:#B1B4B5"/>
		<stop  offset="0.4086" style="stop-color:#E0E0DF"/>
		<stop  offset="0.7581" style="stop-color:#B1B4B5"/>
		<stop  offset="1" style="stop-color:#C2C2C2"/>
	</linearGradient>
	<rect id="XMLID_567_" x="695.4" y="60.7" fill="url(#XMLID_241_)" width="42" height="34.1"/>
</g>
<text id="XMLID_543_" transform="matrix(1 0 0 1 707.6102 49.6855)" fill="#C9CACA" font-family="'MicrosoftYaHei'" font-size="8px">FE3</text>
<g id="XMLID_582_">
	<rect id="XMLID_584_" x="750.7" y="60" fill="#030000" width="43.1" height="35.4"/>
	<linearGradient id="XMLID_242_" gradientUnits="userSpaceOnUse" x1="751.2393" y1="77.7146" x2="793.2482" y2="77.7146">
		<stop  offset="0" style="stop-color:#FFFFFF"/>
		<stop  offset="0.1688" style="stop-color:#B1B4B5"/>
		<stop  offset="0.4086" style="stop-color:#E0E0DF"/>
		<stop  offset="0.7581" style="stop-color:#B1B4B5"/>
		<stop  offset="1" style="stop-color:#C2C2C2"/>
	</linearGradient>
	<rect id="XMLID_583_" x="751.2" y="60.7" fill="url(#XMLID_242_)" width="42" height="34.1"/>
</g>
<text id="XMLID_569_" transform="matrix(1 0 0 1 763.4164 49.6855)" fill="#C9CACA" font-family="'MicrosoftYaHei'" font-size="8px">FE4</text>
<text id="XMLID_419_" transform="matrix(1 0 0 1 81.5979 41.9935)" fill="#EFEFEF" font-family="'MicrosoftYaHei-Bold'" font-size="25.4407px">Lenovo</text>
<text id="XMLID_586_" transform="matrix(1 0 0 1 92.4306 98.9884)" fill="#EFEFEF" font-family="'MicrosoftYaHei-Bold'" font-size="27.1409px">联想网御</text>
</svg>
