<?xml version="1.0" encoding="utf-8"?>
<!-- Generator: Adobe Illustrator 21.0.0, SVG Export Plug-In . SVG Version: 6.00 Build 0)  -->
<svg version="1.1" id="图层_1" xmlns="http://www.w3.org/2000/svg" xmlns:xlink="http://www.w3.org/1999/xlink" x="0px" y="0px"
	 width="1417.3px" height="126.1px" viewBox="0 0 1417.3 126.1" enable-background="new 0 0 1417.3 126.1" xml:space="preserve">
<g id="XMLID_20076_">
	<rect id="XMLID_20326_" x="0" fill="#50719A" width="1417.3" height="126.1"/>
</g>
<rect id="XMLID_20073_" x="0" y="0" fill="#262626" width="63.8" height="126.1"/>
<rect id="XMLID_20072_" x="61.3" y="0" fill="#070707" width="2.5" height="126.1"/>
<linearGradient id="XMLID_4_" gradientUnits="userSpaceOnUse" x1="16.6627" y1="23.2315" x2="44.5694" y2="23.2315">
	<stop  offset="0" style="stop-color:#FFFFFF"/>
	<stop  offset="5.656110e-02" style="stop-color:#A3A3A4"/>
	<stop  offset="0.3372" style="stop-color:#919292"/>
	<stop  offset="0.3831" style="stop-color:#E0E0DF"/>
	<stop  offset="0.4519" style="stop-color:#C1C0C0"/>
	<stop  offset="0.9264" style="stop-color:#E0E0DF"/>
	<stop  offset="0.9745" style="stop-color:#C1C0C0"/>
</linearGradient>
<path id="XMLID_20071_" fill="url(#XMLID_4_)" d="M16.7,23.2c0,7.7,6.2,13.9,14,13.9c7.7,0,14-6.2,14-13.9c0-7.7-6.2-13.9-14-13.9
	C22.9,9.4,16.7,15.6,16.7,23.2"/>
<ellipse id="XMLID_20070_" fill="none" stroke="#121212" stroke-width="0.75" stroke-miterlimit="10" cx="30.6" cy="23.2" rx="14" ry="13.9"/>
<polygon id="XMLID_20069_" fill="#040000" points="32.3,31.1 32.3,24.9 38.5,24.9 38.5,21.5 32.3,21.5 32.3,15.4 28.9,15.4 
	28.9,21.5 22.7,21.5 22.7,24.9 28.9,24.9 28.9,31.1 "/>
<path id="XMLID_20066_" fill="#221714" d="M32,15.7v5.6v0.6h0.6h5.6v2.8h-5.6H32v0.6v5.6h-2.9v-5.6v-0.6h-0.6H23v-2.8h5.6h0.6v-0.6
	v-5.6H32z M28.6,21.2h-6.2v4h6.2v6.1h4v-6.1h6.2v-4h-6.2v-6.1h-4V21.2z"/>
<rect id="XMLID_20065_" x="32" y="15.1" fill="#606062" width="0.6" height="6.7"/>
<rect id="XMLID_20064_" x="32.1" y="21.2" fill="#606062" width="6.8" height="0.6"/>
<linearGradient id="XMLID_5_" gradientUnits="userSpaceOnUse" x1="16.6627" y1="102.5115" x2="44.5694" y2="102.5115">
	<stop  offset="0" style="stop-color:#FFFFFF"/>
	<stop  offset="5.656110e-02" style="stop-color:#A3A3A4"/>
	<stop  offset="0.3372" style="stop-color:#919292"/>
	<stop  offset="0.3831" style="stop-color:#E0E0DF"/>
	<stop  offset="0.4519" style="stop-color:#C1C0C0"/>
	<stop  offset="0.9264" style="stop-color:#E0E0DF"/>
	<stop  offset="0.9745" style="stop-color:#C1C0C0"/>
</linearGradient>
<path id="XMLID_20063_" fill="url(#XMLID_5_)" d="M16.7,102.5c0,7.7,6.2,13.9,14,13.9c7.7,0,14-6.2,14-13.9c0-7.7-6.2-13.9-14-13.9
	C22.9,88.7,16.7,94.9,16.7,102.5"/>
<ellipse id="XMLID_20062_" fill="none" stroke="#121212" stroke-width="0.75" stroke-miterlimit="10" cx="30.6" cy="102.5" rx="14" ry="13.9"/>
<polygon id="XMLID_20061_" fill="#040000" points="32.3,110.4 32.3,104.2 38.5,104.2 38.5,100.8 32.3,100.8 32.3,94.7 28.9,94.7 
	28.9,100.8 22.7,100.8 22.7,104.2 28.9,104.2 28.9,110.4 "/>
<path id="XMLID_20058_" fill="#221714" d="M32,94.9v5.6v0.6h0.6h5.6v2.8h-5.6H32v0.6v5.6h-2.9v-5.6v-0.6h-0.6H23v-2.8h5.6h0.6v-0.6
	v-5.6H32z M28.6,100.5h-6.2v4h6.2v6.1h4v-6.1h6.2v-4h-6.2v-6.1h-4V100.5z"/>
<rect id="XMLID_20057_" x="32" y="94.4" fill="#606062" width="0.6" height="6.7"/>
<rect id="XMLID_20056_" x="32.1" y="100.5" fill="#606062" width="6.8" height="0.6"/>
<rect id="XMLID_20053_" x="1353.5" y="0" fill="#262626" width="63.8" height="126.1"/>
<rect id="XMLID_20078_" x="1351.8" y="0" fill="#020202" width="1.7" height="126.1"/>
<linearGradient id="XMLID_6_" gradientUnits="userSpaceOnUse" x1="-3347.0378" y1="-5013.5132" x2="-3319.1311" y2="-5013.5132" gradientTransform="matrix(-1 0 0 -1 -1946.3777 -4910.603)">
	<stop  offset="0" style="stop-color:#FFFFFF"/>
	<stop  offset="5.656110e-02" style="stop-color:#A3A3A4"/>
	<stop  offset="0.3372" style="stop-color:#919292"/>
	<stop  offset="0.3831" style="stop-color:#E0E0DF"/>
	<stop  offset="0.4519" style="stop-color:#C1C0C0"/>
	<stop  offset="0.9264" style="stop-color:#E0E0DF"/>
	<stop  offset="0.9745" style="stop-color:#C1C0C0"/>
</linearGradient>
<path id="XMLID_20052_" fill="url(#XMLID_6_)" d="M1400.7,102.9c0-7.7-6.2-13.9-14-13.9c-7.7,0-14,6.2-14,13.9
	c0,7.7,6.2,13.9,14,13.9C1394.4,116.8,1400.7,110.6,1400.7,102.9"/>
<ellipse id="XMLID_20051_" fill="none" stroke="#121212" stroke-width="0.75" stroke-miterlimit="10" cx="1386.7" cy="102.9" rx="14" ry="13.9"/>
<polygon id="XMLID_20050_" fill="#040000" points="1385,95.1 1385,101.2 1378.8,101.2 1378.8,104.6 1385,104.6 1385,110.8 
	1388.4,110.8 1388.4,104.6 1394.6,104.6 1394.6,101.2 1388.4,101.2 1388.4,95.1 "/>
<path id="XMLID_20047_" fill="#221714" d="M1385.3,110.5v-5.6v-0.6h-0.6h-5.6v-2.8h5.6h0.6v-0.6v-5.6h2.9v5.6v0.6h0.6h5.6v2.8h-5.6
	h-0.6v0.6v5.6H1385.3z M1388.7,104.9h6.2v-4h-6.2v-6.1h-4v6.1h-6.2v4h6.2v6.1h4V104.9z"/>
<rect id="XMLID_20046_" x="1384.7" y="104.3" fill="#606062" width="0.6" height="6.7"/>
<rect id="XMLID_20045_" x="1378.5" y="104.3" fill="#606062" width="6.8" height="0.6"/>
<linearGradient id="XMLID_8_" gradientUnits="userSpaceOnUse" x1="-3347.0378" y1="-4934.2334" x2="-3319.1311" y2="-4934.2334" gradientTransform="matrix(-1 0 0 -1 -1946.3777 -4910.603)">
	<stop  offset="0" style="stop-color:#FFFFFF"/>
	<stop  offset="5.656110e-02" style="stop-color:#A3A3A4"/>
	<stop  offset="0.3372" style="stop-color:#919292"/>
	<stop  offset="0.3831" style="stop-color:#E0E0DF"/>
	<stop  offset="0.4519" style="stop-color:#C1C0C0"/>
	<stop  offset="0.9264" style="stop-color:#E0E0DF"/>
	<stop  offset="0.9745" style="stop-color:#C1C0C0"/>
</linearGradient>
<path id="XMLID_20044_" fill="url(#XMLID_8_)" d="M1400.7,23.6c0-7.7-6.2-13.9-14-13.9c-7.7,0-14,6.2-14,13.9
	c0,7.7,6.2,13.9,14,13.9C1394.4,37.5,1400.7,31.3,1400.7,23.6"/>
<ellipse id="XMLID_20043_" fill="none" stroke="#121212" stroke-width="0.75" stroke-miterlimit="10" cx="1386.7" cy="23.6" rx="14" ry="13.9"/>
<polygon id="XMLID_20042_" fill="#040000" points="1385,15.8 1385,21.9 1378.8,21.9 1378.8,25.3 1385,25.3 1385,31.5 1388.4,31.5 
	1388.4,25.3 1394.6,25.3 1394.6,21.9 1388.4,21.9 1388.4,15.8 "/>
<path id="XMLID_20033_" fill="#221714" d="M1385.3,31.2v-5.6v-0.6h-0.6h-5.6v-2.8h5.6h0.6v-0.6v-5.6h2.9v5.6v0.6h0.6h5.6v2.8h-5.6
	h-0.6v0.6v5.6H1385.3z M1388.7,25.6h6.2v-4h-6.2v-6.1h-4v6.1h-6.2v4h6.2v6.1h4V25.6z"/>
<rect id="XMLID_20032_" x="1384.7" y="25.1" fill="#606062" width="0.6" height="6.7"/>
<rect id="XMLID_20031_" x="1378.5" y="25.1" fill="#606062" width="6.8" height="0.6"/>
<polygon id="XMLID_4986_" fill="#0F0F0F" points="334.6,126.1 380.2,38.7 1351.8,38.7 1351.8,126.1 "/>
<polygon id="XMLID_20085_" fill="#323234" points="336.6,126.1 380.2,48.7 1351.8,48.7 1351.8,126.1 "/>
<g id="XMLID_20439_">
	<rect id="XMLID_20631_" x="513.7" y="67.5" fill="#030000" width="43.1" height="36.6"/>
	<linearGradient id="XMLID_9_" gradientUnits="userSpaceOnUse" x1="514.2184" y1="85.8122" x2="556.2272" y2="85.8122">
		<stop  offset="0" style="stop-color:#FFFFFF"/>
		<stop  offset="0.1688" style="stop-color:#B1B4B5"/>
		<stop  offset="0.4086" style="stop-color:#E0E0DF"/>
		<stop  offset="0.7581" style="stop-color:#B1B4B5"/>
		<stop  offset="1" style="stop-color:#C2C2C2"/>
	</linearGradient>
	<rect id="XMLID_20630_" x="514.2" y="68.2" fill="url(#XMLID_9_)" width="42" height="35.3"/>
</g>
<g id="XMLID_20336_">
	
		<rect id="XMLID_20422_" x="456.2" y="89.6" fill="#1C1D20" stroke="#CCCCCC" stroke-width="0.5" stroke-miterlimit="10" width="35.6" height="14.6"/>
	<rect id="XMLID_20374_" x="470.2" y="103.5" fill="#ACACAF" width="7.5" height="0.7"/>
	<rect id="XMLID_20339_" x="460.3" y="96.9" fill="#5A5B55" width="27.3" height="4"/>
	<rect id="XMLID_20338_" x="489.5" y="102.7" fill="#ACACAF" width="2.3" height="1.5"/>
	<rect id="XMLID_20337_" x="456.2" y="102.7" fill="#ACACAF" width="2.3" height="1.5"/>
</g>
<g id="XMLID_20330_">
	
		<rect id="XMLID_20335_" x="456.2" y="67.4" fill="#1C1D20" stroke="#CCCCCC" stroke-width="0.5" stroke-miterlimit="10" width="35.6" height="14.6"/>
	<rect id="XMLID_20334_" x="470.2" y="81.3" fill="#ACACAF" width="7.5" height="0.7"/>
	<rect id="XMLID_20333_" x="460.3" y="74.7" fill="#5A5B55" width="27.3" height="4"/>
	<rect id="XMLID_20332_" x="489.5" y="80.5" fill="#ACACAF" width="2.3" height="1.5"/>
	<rect id="XMLID_20331_" x="456.2" y="80.5" fill="#ACACAF" width="2.3" height="1.5"/>
</g>
<text id="XMLID_20329_" transform="matrix(1 0 0 1 517.7933 116.6655)" fill="#E2E1E0" font-family="'MicrosoftYaHei'" font-size="7px">CONSOLE</text>
<text id="XMLID_20328_" transform="matrix(1 0 0 1 466.3239 116.6655)" fill="#E2E1E0" font-family="'MicrosoftYaHei'" font-size="7px">USB</text>
<g id="XMLID_20759_">
	<rect id="XMLID_20761_" x="684.1" y="69.1" fill="#030000" width="43.1" height="36.6"/>
	
		<linearGradient id="XMLID_10_" gradientUnits="userSpaceOnUse" x1="-2841.8494" y1="25026.8984" x2="-2799.8406" y2="25026.8984" gradientTransform="matrix(-1 0 0 -1 -2115.26 25114.2363)">
		<stop  offset="0" style="stop-color:#FFFFFF"/>
		<stop  offset="0.1688" style="stop-color:#B1B4B5"/>
		<stop  offset="0.4086" style="stop-color:#E0E0DF"/>
		<stop  offset="0.7581" style="stop-color:#B1B4B5"/>
		<stop  offset="1" style="stop-color:#C2C2C2"/>
	</linearGradient>
	<rect id="XMLID_20760_" x="684.6" y="69.7" fill="url(#XMLID_10_)" width="42" height="35.3"/>
</g>
<g id="XMLID_20724_">
	<rect id="XMLID_20727_" x="729.6" y="69.1" fill="#030000" width="43.1" height="36.6"/>
	
		<linearGradient id="XMLID_11_" gradientUnits="userSpaceOnUse" x1="-2887.3604" y1="25026.8984" x2="-2845.3516" y2="25026.8984" gradientTransform="matrix(-1 0 0 -1 -2115.26 25114.2363)">
		<stop  offset="0" style="stop-color:#FFFFFF"/>
		<stop  offset="0.1688" style="stop-color:#B1B4B5"/>
		<stop  offset="0.4086" style="stop-color:#E0E0DF"/>
		<stop  offset="0.7581" style="stop-color:#B1B4B5"/>
		<stop  offset="1" style="stop-color:#C2C2C2"/>
	</linearGradient>
	<rect id="XMLID_20726_" x="730.1" y="69.7" fill="url(#XMLID_11_)" width="42" height="35.3"/>
</g>
<text id="XMLID_20710_" transform="matrix(1 0 0 1 692.6263 115.8313)" fill="#EFEFEF" font-family="'MicrosoftYaHei'" font-size="10px">ETH5</text>
<text id="XMLID_20709_" transform="matrix(1 0 0 1 737.6263 115.8313)" fill="#EFEFEF" font-family="'MicrosoftYaHei'" font-size="10px">ETH4</text>
<g id="XMLID_20706_">
	<rect id="XMLID_20708_" x="775.5" y="69.1" fill="#030000" width="43.1" height="36.6"/>
	
		<linearGradient id="XMLID_12_" gradientUnits="userSpaceOnUse" x1="-2933.3123" y1="25026.8984" x2="-2891.3035" y2="25026.8984" gradientTransform="matrix(-1 0 0 -1 -2115.26 25114.2363)">
		<stop  offset="0" style="stop-color:#FFFFFF"/>
		<stop  offset="0.1688" style="stop-color:#B1B4B5"/>
		<stop  offset="0.4086" style="stop-color:#E0E0DF"/>
		<stop  offset="0.7581" style="stop-color:#B1B4B5"/>
		<stop  offset="1" style="stop-color:#C2C2C2"/>
	</linearGradient>
	<rect id="XMLID_20707_" x="776" y="69.7" fill="url(#XMLID_12_)" width="42" height="35.3"/>
</g>
<g id="XMLID_20690_">
	<rect id="XMLID_20692_" x="821" y="69.1" fill="#030000" width="43.1" height="36.6"/>
	
		<linearGradient id="XMLID_13_" gradientUnits="userSpaceOnUse" x1="-2978.8235" y1="25026.8984" x2="-2936.8147" y2="25026.8984" gradientTransform="matrix(-1 0 0 -1 -2115.26 25114.2363)">
		<stop  offset="0" style="stop-color:#FFFFFF"/>
		<stop  offset="0.1688" style="stop-color:#B1B4B5"/>
		<stop  offset="0.4086" style="stop-color:#E0E0DF"/>
		<stop  offset="0.7581" style="stop-color:#B1B4B5"/>
		<stop  offset="1" style="stop-color:#C2C2C2"/>
	</linearGradient>
	<rect id="XMLID_20691_" x="821.6" y="69.7" fill="url(#XMLID_13_)" width="42" height="35.3"/>
</g>
<g id="XMLID_20674_">
	<rect id="XMLID_20676_" x="1218.4" y="69.1" fill="#030000" width="43.1" height="36.6"/>
	
		<linearGradient id="XMLID_14_" gradientUnits="userSpaceOnUse" x1="-3376.2332" y1="25026.8984" x2="-3334.2244" y2="25026.8984" gradientTransform="matrix(-1 0 0 -1 -2115.26 25114.2363)">
		<stop  offset="0" style="stop-color:#FFFFFF"/>
		<stop  offset="0.1688" style="stop-color:#B1B4B5"/>
		<stop  offset="0.4086" style="stop-color:#E0E0DF"/>
		<stop  offset="0.7581" style="stop-color:#B1B4B5"/>
		<stop  offset="1" style="stop-color:#C2C2C2"/>
	</linearGradient>
	<rect id="XMLID_20675_" x="1219" y="69.7" fill="url(#XMLID_14_)" width="42" height="35.3"/>
</g>
<g id="XMLID_20658_">
	<rect id="XMLID_20660_" x="1264" y="69.1" fill="#030000" width="43.1" height="36.6"/>
	
		<linearGradient id="XMLID_15_" gradientUnits="userSpaceOnUse" x1="-3421.7444" y1="25026.8984" x2="-3379.7356" y2="25026.8984" gradientTransform="matrix(-1 0 0 -1 -2115.26 25114.2363)">
		<stop  offset="0" style="stop-color:#FFFFFF"/>
		<stop  offset="0.1688" style="stop-color:#B1B4B5"/>
		<stop  offset="0.4086" style="stop-color:#E0E0DF"/>
		<stop  offset="0.7581" style="stop-color:#B1B4B5"/>
		<stop  offset="1" style="stop-color:#C2C2C2"/>
	</linearGradient>
	<rect id="XMLID_20659_" x="1264.5" y="69.7" fill="url(#XMLID_15_)" width="42" height="35.3"/>
</g>
<text id="XMLID_20635_" transform="matrix(1 0 0 1 785.1116 115.8313)" fill="#EFEFEF" font-family="'MicrosoftYaHei'" font-size="10px">ETH3</text>
<text id="XMLID_20634_" transform="matrix(1 0 0 1 830.1116 115.8313)" fill="#EFEFEF" font-family="'MicrosoftYaHei'" font-size="10px">ETH2</text>
<text id="XMLID_20633_" transform="matrix(1 0 0 1 1228.01 116.8313)" fill="#EFEFEF" font-family="'MicrosoftYaHei'" font-size="10px">ETH1</text>
<text id="XMLID_20632_" transform="matrix(1 0 0 1 1273.01 116.8313)" fill="#EFEFEF" font-family="'MicrosoftYaHei'" font-size="10px">ETH0</text>
<text id="XMLID_20795_" transform="matrix(1 0 0 1 1260.7996 35.7248)" fill="#EFEFEF" font-family="'MicrosoftYaHei'" font-size="10px">Power</text>
<text id="XMLID_20794_" transform="matrix(1 0 0 1 1232.2595 35.7248)" fill="#EFEFEF" font-family="'MicrosoftYaHei'" font-size="10px">SYP</text>
<text id="XMLID_20793_" transform="matrix(1 0 0 1 1199.0779 35.7248)" fill="#EFEFEF" font-family="'MicrosoftYaHei'" font-size="10px">HA</text>
<rect id="XMLID_20792_" x="269" y="15.3" fill="#303030" width="1082.8" height="9.5"/>
<rect id="XMLID_20791_" x="269" y="14.7" fill="#0C0C0C" width="1082.8" height="0.6"/>
<radialGradient id="XMLID_16_" cx="-4813.4004" cy="12569.9521" r="4.7995" gradientTransform="matrix(-1 0 0 -1 -3607.5627 12590.0605)" gradientUnits="userSpaceOnUse">
	<stop  offset="0.6774" style="stop-color:#2B2B2B"/>
	<stop  offset="0.8441" style="stop-color:#595757"/>
	<stop  offset="1" style="stop-color:#000000"/>
</radialGradient>
<path id="XMLID_20790_" fill="url(#XMLID_16_)" d="M1201,20.1c0-2.6,2.1-4.8,4.8-4.8s4.8,2.1,4.8,4.8c0,2.7-2.1,4.8-4.8,4.8
	S1201,22.8,1201,20.1"/>
<circle id="XMLID_20789_" fill="none" stroke="#131313" stroke-width="0.75" stroke-miterlimit="10" cx="1205.8" cy="20.1" r="4.8"/>
<circle id="XMLID_20786_" fill="#B5ED2E" cx="1205.9" cy="20.1" r="3.7"/>
<radialGradient id="XMLID_20_" cx="-4847.9873" cy="12569.9521" r="4.7995" gradientTransform="matrix(-1 0 0 -1 -3607.5627 12590.0605)" gradientUnits="userSpaceOnUse">
	<stop  offset="0.6774" style="stop-color:#2B2B2B"/>
	<stop  offset="0.8441" style="stop-color:#595757"/>
	<stop  offset="1" style="stop-color:#000000"/>
</radialGradient>
<path id="XMLID_20785_" fill="url(#XMLID_20_)" d="M1235.6,20.1c0-2.6,2.1-4.8,4.8-4.8s4.8,2.1,4.8,4.8c0,2.7-2.1,4.8-4.8,4.8
	S1235.6,22.8,1235.6,20.1"/>
<circle id="XMLID_20784_" fill="none" stroke="#131313" stroke-width="0.75" stroke-miterlimit="10" cx="1240.4" cy="20.1" r="4.8"/>
<circle id="XMLID_20781_" fill="#B5ED2E" cx="1240.4" cy="20.1" r="3.7"/>
<radialGradient id="XMLID_21_" cx="-4882.5742" cy="12569.9521" r="4.7995" gradientTransform="matrix(-1 0 0 -1 -3607.5627 12590.0605)" gradientUnits="userSpaceOnUse">
	<stop  offset="0.6774" style="stop-color:#2B2B2B"/>
	<stop  offset="0.8441" style="stop-color:#595757"/>
	<stop  offset="1" style="stop-color:#000000"/>
</radialGradient>
<path id="XMLID_20780_" fill="url(#XMLID_21_)" d="M1270.2,20.1c0-2.6,2.1-4.8,4.8-4.8c2.7,0,4.8,2.1,4.8,4.8c0,2.7-2.1,4.8-4.8,4.8
	C1272.4,24.9,1270.2,22.8,1270.2,20.1"/>
<circle id="XMLID_20779_" fill="none" stroke="#131313" stroke-width="0.75" stroke-miterlimit="10" cx="1275" cy="20.1" r="4.8"/>
<circle id="XMLID_20776_" fill="#B5ED2E" cx="1275" cy="20.1" r="3.7"/>
<circle id="XMLID_20773_" fill="#3D4260" cx="129.5" cy="54.8" r="30.2"/>
<linearGradient id="XMLID_22_" gradientUnits="userSpaceOnUse" x1="129.4721" y1="30.6969" x2="129.4721" y2="78.8635">
	<stop  offset="0" style="stop-color:#BEBDBE"/>
	<stop  offset="0.9871" style="stop-color:#161A28"/>
</linearGradient>
<circle id="XMLID_20770_" fill="url(#XMLID_22_)" cx="129.5" cy="54.8" r="24.1"/>
<circle id="XMLID_20767_" fill="#53AEF9" cx="129.5" cy="54.8" r="19.7"/>
<text id="XMLID_20766_" transform="matrix(1 0 0 1 168.3552 60.2468)" fill="#E2E1E0" font-family="'MicrosoftYaHei'" font-size="18px">SANGFOR</text>
<path id="XMLID_20765_" fill="none" stroke="#E2E1E0" stroke-miterlimit="10" d="M109.8,54.8c0,0,17.8-11.7,39.4,0"/>
<path id="XMLID_20764_" fill="none" stroke="#E2E1E0" stroke-miterlimit="10" d="M149.2,56.9c0,0-17.8,11.7-39.4,0"/>
<path id="XMLID_20763_" fill="none" stroke="#E2E1E0" stroke-miterlimit="10" d="M109.8,54.8c0,0,18-30.1,39.4,0"/>
<path id="XMLID_20762_" fill="none" stroke="#E2E1E0" stroke-miterlimit="10" d="M149.2,56.9c0,0-18,30.1-39.4,0"/>
</svg>
