<?xml version="1.0" encoding="utf-8"?>
<!-- Generator: Adobe Illustrator 21.0.0, SVG Export Plug-In . SVG Version: 6.00 Build 0)  -->
<svg version="1.1" id="图层_1" xmlns="http://www.w3.org/2000/svg" xmlns:xlink="http://www.w3.org/1999/xlink" x="0px" y="0px"
	 width="1275.6px" height="378.5px" viewBox="0 0 1275.6 378.5" enable-background="new 0 0 1275.6 378.5" xml:space="preserve">
<g>
	<rect y="0.1" fill-rule="evenodd" clip-rule="evenodd" fill="#ACAEAF" width="1275.6" height="378.4"/>
	<g>
		<path fill="#AFAEAE" d="M156.7,361.7c-2.7,0-4.9-2.2-4.9-4.9c0-2.7,2.2-4.9,4.9-4.9c2.7,0,4.9,2.2,4.9,4.9
			C161.6,359.5,159.4,361.7,156.7,361.7"/>
		<ellipse fill="none" stroke="#929292" stroke-miterlimit="10" cx="156.7" cy="356.7" rx="4.9" ry="4.9"/>
		<path fill="#AFAEAE" d="M156.7,360.4c-2,0-3.6-1.6-3.6-3.6c0-2,1.6-3.6,3.6-3.6c2,0,3.6,1.6,3.6,3.6
			C160.3,358.7,158.7,360.4,156.7,360.4"/>
		<ellipse fill="none" stroke="#929292" stroke-miterlimit="10" cx="156.7" cy="356.7" rx="3.6" ry="3.6"/>
		<g>
			<g>
				<defs>
					<rect id="SVGID_1569_" x="153.3" y="353.3" width="6.8" height="6.8"/>
				</defs>
				<clipPath id="SVGID_38_">
					<use xlink:href="#SVGID_1569_"  overflow="visible"/>
				</clipPath>
				<path clip-path="url(#SVGID_38_)" fill="#BEBEBD" d="M156.7,360.1c-1.9,0-3.4-1.5-3.4-3.4c0-1.9,1.5-3.4,3.4-3.4
					c1.9,0,3.4,1.5,3.4,3.4C160.1,358.6,158.6,360.1,156.7,360.1"/>
				<path clip-path="url(#SVGID_38_)" fill="#C0C0C0" d="M156.7,360.1c-1.8,0-3.3-1.5-3.3-3.3c0-1.8,1.5-3.3,3.3-3.3
					c1.8,0,3.3,1.5,3.3,3.3C160,358.6,158.5,360.1,156.7,360.1"/>
				<path clip-path="url(#SVGID_38_)" fill="#C2C3C3" d="M156.7,360c-1.8,0-3.3-1.5-3.3-3.3c0-1.8,1.5-3.3,3.3-3.3
					c1.8,0,3.3,1.5,3.3,3.3C159.9,358.5,158.5,360,156.7,360"/>
				<path clip-path="url(#SVGID_38_)" fill="#C4C5C4" d="M156.7,359.9c-1.8,0-3.2-1.4-3.2-3.2c0-1.8,1.4-3.2,3.2-3.2
					c1.8,0,3.2,1.4,3.2,3.2C159.8,358.5,158.4,359.9,156.7,359.9"/>
				<path clip-path="url(#SVGID_38_)" fill="#C6C8C8" d="M156.7,359.8c-1.7,0-3.1-1.4-3.1-3.1c0-1.7,1.4-3.1,3.1-3.1
					c1.7,0,3.1,1.4,3.1,3.1C159.8,358.4,158.4,359.8,156.7,359.8"/>
				<path clip-path="url(#SVGID_38_)" fill="#C9CACB" d="M156.7,359.7c-1.7,0-3-1.4-3-3c0-1.7,1.4-3,3-3c1.7,0,3,1.4,3,3
					C159.7,358.4,158.3,359.7,156.7,359.7"/>
				<path clip-path="url(#SVGID_38_)" fill="#CBCDCD" d="M156.7,359.7c-1.6,0-2.9-1.3-2.9-2.9c0-1.6,1.3-2.9,2.9-2.9
					c1.6,0,2.9,1.3,2.9,2.9C159.6,358.3,158.3,359.7,156.7,359.7"/>
				<path clip-path="url(#SVGID_38_)" fill="#CCCFD0" d="M156.7,359.6c-1.6,0-2.9-1.3-2.9-2.9c0-1.6,1.3-2.9,2.9-2.9
					c1.6,0,2.9,1.3,2.9,2.9C159.5,358.3,158.2,359.6,156.7,359.6"/>
				<path clip-path="url(#SVGID_38_)" fill="#D0D2D2" d="M156.7,359.5c-1.5,0-2.8-1.2-2.8-2.8c0-1.5,1.2-2.8,2.8-2.8
					c1.5,0,2.8,1.2,2.8,2.8C159.4,358.3,158.2,359.5,156.7,359.5"/>
				<path clip-path="url(#SVGID_38_)" fill="#D2D4D5" d="M156.7,359.4c-1.5,0-2.7-1.2-2.7-2.7c0-1.5,1.2-2.7,2.7-2.7
					c1.5,0,2.7,1.2,2.7,2.7C159.4,358.2,158.2,359.4,156.7,359.4"/>
			</g>
		</g>
		<polygon fill="#605F5E" points="154.6,356.3 156.2,356.3 156.2,354.7 157.1,354.7 157.1,356.3 158.7,356.3 158.7,357.2 
			157.1,357.2 157.1,358.8 156.2,358.8 156.2,357.2 154.6,357.2 		"/>
		<path fill="#221714" d="M158.6,357.1h-1.5H157v0.2v1.5h-0.7v-1.5v-0.2h-0.2h-1.5v-0.7h1.5h0.2v-0.2v-1.5h0.7v1.5v0.2h0.2h1.5
			V357.1z M158.8,357.2v-1h-1.6v-1.6h-1v1.6h-1.6v1h1.6v1.6h1v-1.6H158.8z"/>
	</g>
	<g>
		<path fill="#AFAEAE" d="M231.9,361.7c-2.7,0-4.9-2.2-4.9-4.9c0-2.7,2.2-4.9,4.9-4.9c2.7,0,4.9,2.2,4.9,4.9
			C236.9,359.5,234.7,361.7,231.9,361.7"/>
		<ellipse fill="none" stroke="#929292" stroke-miterlimit="10" cx="231.9" cy="356.7" rx="4.9" ry="4.9"/>
		<path fill="#AFAEAE" d="M231.9,360.4c-2,0-3.6-1.6-3.6-3.6c0-2,1.6-3.6,3.6-3.6c2,0,3.6,1.6,3.6,3.6
			C235.6,358.7,233.9,360.4,231.9,360.4"/>
		<ellipse fill="none" stroke="#929292" stroke-miterlimit="10" cx="231.9" cy="356.7" rx="3.6" ry="3.6"/>
		<g>
			<g>
				<defs>
					<rect id="SVGID_1571_" x="228.5" y="353.3" width="6.8" height="6.8"/>
				</defs>
				<clipPath id="SVGID_39_">
					<use xlink:href="#SVGID_1571_"  overflow="visible"/>
				</clipPath>
				<path clip-path="url(#SVGID_39_)" fill="#BEBEBD" d="M231.9,360.1c-1.9,0-3.4-1.5-3.4-3.4c0-1.9,1.5-3.4,3.4-3.4
					c1.9,0,3.4,1.5,3.4,3.4C235.4,358.6,233.8,360.1,231.9,360.1"/>
				<path clip-path="url(#SVGID_39_)" fill="#C0C0C0" d="M231.9,360.1c-1.8,0-3.3-1.5-3.3-3.3c0-1.8,1.5-3.3,3.3-3.3
					c1.8,0,3.3,1.5,3.3,3.3C235.3,358.6,233.8,360.1,231.9,360.1"/>
				<path clip-path="url(#SVGID_39_)" fill="#C2C3C3" d="M231.9,360c-1.8,0-3.3-1.5-3.3-3.3c0-1.8,1.5-3.3,3.3-3.3
					c1.8,0,3.3,1.5,3.3,3.3C235.2,358.5,233.7,360,231.9,360"/>
				<path clip-path="url(#SVGID_39_)" fill="#C4C5C4" d="M231.9,359.9c-1.8,0-3.2-1.4-3.2-3.2c0-1.8,1.4-3.2,3.2-3.2
					c1.8,0,3.2,1.4,3.2,3.2C235.1,358.5,233.7,359.9,231.9,359.9"/>
				<path clip-path="url(#SVGID_39_)" fill="#C6C8C8" d="M231.9,359.8c-1.7,0-3.1-1.4-3.1-3.1c0-1.7,1.4-3.1,3.1-3.1
					c1.7,0,3.1,1.4,3.1,3.1C235,358.4,233.7,359.8,231.9,359.8"/>
				<path clip-path="url(#SVGID_39_)" fill="#C9CACB" d="M231.9,359.7c-1.7,0-3-1.4-3-3c0-1.7,1.4-3,3-3c1.7,0,3,1.4,3,3
					C235,358.4,233.6,359.7,231.9,359.7"/>
				<path clip-path="url(#SVGID_39_)" fill="#CBCDCD" d="M231.9,359.7c-1.6,0-2.9-1.3-2.9-2.9c0-1.6,1.3-2.9,2.9-2.9
					c1.6,0,2.9,1.3,2.9,2.9C234.9,358.3,233.6,359.7,231.9,359.7"/>
				<path clip-path="url(#SVGID_39_)" fill="#CCCFD0" d="M231.9,359.6c-1.6,0-2.9-1.3-2.9-2.9c0-1.6,1.3-2.9,2.9-2.9
					c1.6,0,2.9,1.3,2.9,2.9C234.8,358.3,233.5,359.6,231.9,359.6"/>
				<path clip-path="url(#SVGID_39_)" fill="#D0D2D2" d="M231.9,359.5c-1.5,0-2.8-1.2-2.8-2.8c0-1.5,1.2-2.8,2.8-2.8
					c1.5,0,2.8,1.2,2.8,2.8C234.7,358.3,233.5,359.5,231.9,359.5"/>
				<path clip-path="url(#SVGID_39_)" fill="#D2D4D5" d="M231.9,359.4c-1.5,0-2.7-1.2-2.7-2.7c0-1.5,1.2-2.7,2.7-2.7
					c1.5,0,2.7,1.2,2.7,2.7C234.6,358.2,233.4,359.4,231.9,359.4"/>
			</g>
		</g>
		<polygon fill="#605F5E" points="229.9,356.3 231.5,356.3 231.5,354.7 232.4,354.7 232.4,356.3 234,356.3 234,357.2 232.4,357.2 
			232.4,358.8 231.5,358.8 231.5,357.2 229.9,357.2 		"/>
		<path fill="#221714" d="M233.9,357.1h-1.5h-0.2v0.2v1.5h-0.7v-1.5v-0.2h-0.2H230v-0.7h1.5h0.2v-0.2v-1.5h0.7v1.5v0.2h0.2h1.5
			V357.1z M234.1,357.2v-1h-1.6v-1.6h-1v1.6h-1.6v1h1.6v1.6h1v-1.6H234.1z"/>
	</g>
	<g>
		
			<linearGradient id="SVGID_41_" gradientUnits="userSpaceOnUse" x1="2177.478" y1="30414.7031" x2="2177.478" y2="30314.6133" gradientTransform="matrix(1 0 0 1 -2037.9438 -30048.8809)">
			<stop  offset="0" style="stop-color:#717071"/>
			<stop  offset="2.050001e-02" style="stop-color:#FFFFFF"/>
			<stop  offset="8.806157e-02" style="stop-color:#ABAEAF"/>
			<stop  offset="0.8828" style="stop-color:#ABAEAF"/>
			<stop  offset="0.9662" style="stop-color:#FFFFFF"/>
			<stop  offset="1" style="stop-color:#717071"/>
		</linearGradient>
		<path fill="url(#SVGID_41_)" stroke="#333333" stroke-miterlimit="10" d="M9.7,265.7h259.6v18.4h-0.5c-3.4,0-6.2,2.8-6.2,6.2v0
			c0,3.4,2.8,6.2,6.2,6.2h0.5v69.2H9.7V265.7z"/>
		<g>
			<path fill="#3D3A39" d="M35.8,350.4c-1.3,0-2.4-1.2-2.4-2.8v-63.7c0-1.5,1.1-2.8,2.4-2.8h42.5c1.3,0,2.4,1.2,2.4,2.8v63.7
				c0,1.5-1.1,2.8-2.4,2.8H35.8z"/>
			<path fill="none" stroke="#000000" stroke-width="2" stroke-miterlimit="10" d="M35.8,350.4c-1.3,0-2.4-1.2-2.4-2.8v-63.7
				c0-1.5,1.1-2.8,2.4-2.8h42.5c1.3,0,2.4,1.2,2.4,2.8v63.7c0,1.5-1.1,2.8-2.4,2.8H35.8z"/>
			<polygon fill="#221714" points="41.5,291.9 64.9,291.9 72.7,300.9 72.7,330.9 64.5,339.7 41.5,339.7 			"/>
			<rect x="50" y="326.8" fill="#353741" width="8.9" height="3"/>
			<rect x="50" y="326.8" fill="#8B8F99" width="7.3" height="1.5"/>
			<rect x="55.6" y="313.6" fill="#353741" width="8.9" height="3"/>
			<rect x="55.6" y="313.6" fill="#8B8F99" width="7.3" height="1.5"/>
			<rect x="50" y="300.4" fill="#353741" width="8.9" height="3"/>
			<rect x="50" y="300.4" fill="#8B8F99" width="7.3" height="1.5"/>
		</g>
		<g>
			
				<ellipse transform="matrix(0.5334 -0.8459 0.8459 0.5334 -187.7499 293.326)" fill="#0B0909" cx="172" cy="316.8" rx="36" ry="36"/>
			<path fill="#ACAEAF" d="M177.9,352.9l-1.4-18c4.5-1.1,8.5-3.9,11.2-8.1c2.7-4.3,3.4-9.2,2.4-13.8l16.1-8.5l-3.3-6.3l-15.6,8.2
				c-1.4-2-3.2-3.8-5.4-5.2c-8.3-5.2-19-3.1-24.8,4.6l-15.5-9.8l-3.8,6.1l16.1,10.2c-2,7.6,1.1,16,8.1,20.4c2.3,1.4,4.8,2.3,7.3,2.7
				l1.4,18.2L177.9,352.9z"/>
		</g>
		<g>
			<path fill="#AFAEAE" d="M136,291.8c-2.7,0-4.9-2.2-4.9-4.9s2.2-4.9,4.9-4.9c2.7,0,4.9,2.2,4.9,4.9S138.7,291.8,136,291.8"/>
			<ellipse fill="none" stroke="#929292" stroke-miterlimit="10" cx="136" cy="286.8" rx="4.9" ry="4.9"/>
			<path fill="#AFAEAE" d="M136,290.5c-2,0-3.6-1.6-3.6-3.6c0-2,1.6-3.6,3.6-3.6c2,0,3.6,1.6,3.6,3.6
				C139.6,288.8,138,290.5,136,290.5"/>
			<ellipse fill="none" stroke="#929292" stroke-miterlimit="10" cx="136" cy="286.8" rx="3.6" ry="3.6"/>
			<g>
				<g>
					<defs>
						<rect id="SVGID_1574_" x="132.5" y="283.4" width="6.8" height="6.8"/>
					</defs>
					<clipPath id="SVGID_44_">
						<use xlink:href="#SVGID_1574_"  overflow="visible"/>
					</clipPath>
					<path clip-path="url(#SVGID_44_)" fill="#BEBEBD" d="M136,290.2c-1.9,0-3.4-1.5-3.4-3.4c0-1.9,1.5-3.4,3.4-3.4
						c1.9,0,3.4,1.5,3.4,3.4C139.4,288.7,137.8,290.2,136,290.2"/>
					<path clip-path="url(#SVGID_44_)" fill="#C0C0C0" d="M136,290.2c-1.8,0-3.3-1.5-3.3-3.3c0-1.8,1.5-3.3,3.3-3.3
						c1.8,0,3.3,1.5,3.3,3.3C139.3,288.7,137.8,290.2,136,290.2"/>
					<path clip-path="url(#SVGID_44_)" fill="#C2C3C3" d="M136,290.1c-1.8,0-3.3-1.5-3.3-3.3c0-1.8,1.5-3.3,3.3-3.3
						c1.8,0,3.3,1.5,3.3,3.3C139.2,288.6,137.8,290.1,136,290.1"/>
					<path clip-path="url(#SVGID_44_)" fill="#C4C5C4" d="M136,290c-1.8,0-3.2-1.4-3.2-3.2s1.4-3.2,3.2-3.2c1.8,0,3.2,1.4,3.2,3.2
						S137.7,290,136,290"/>
					<path clip-path="url(#SVGID_44_)" fill="#C6C8C8" d="M136,289.9c-1.7,0-3.1-1.4-3.1-3.1s1.4-3.1,3.1-3.1c1.7,0,3.1,1.4,3.1,3.1
						S137.7,289.9,136,289.9"/>
					<path clip-path="url(#SVGID_44_)" fill="#C9CACB" d="M136,289.8c-1.7,0-3-1.4-3-3c0-1.7,1.4-3,3-3c1.7,0,3,1.4,3,3
						C139,288.5,137.6,289.8,136,289.8"/>
					<path clip-path="url(#SVGID_44_)" fill="#CBCDCD" d="M136,289.8c-1.6,0-2.9-1.3-2.9-2.9c0-1.6,1.3-2.9,2.9-2.9
						c1.6,0,2.9,1.3,2.9,2.9C138.9,288.4,137.6,289.8,136,289.8"/>
					<path clip-path="url(#SVGID_44_)" fill="#CCCFD0" d="M136,289.7c-1.6,0-2.9-1.3-2.9-2.9c0-1.6,1.3-2.9,2.9-2.9
						c1.6,0,2.9,1.3,2.9,2.9C138.8,288.4,137.5,289.7,136,289.7"/>
					<path clip-path="url(#SVGID_44_)" fill="#D0D2D2" d="M136,289.6c-1.5,0-2.8-1.2-2.8-2.8c0-1.5,1.2-2.8,2.8-2.8
						c1.5,0,2.8,1.2,2.8,2.8C138.7,288.4,137.5,289.6,136,289.6"/>
					<path clip-path="url(#SVGID_44_)" fill="#D2D4D5" d="M136,289.5c-1.5,0-2.7-1.2-2.7-2.7s1.2-2.7,2.7-2.7c1.5,0,2.7,1.2,2.7,2.7
						S137.4,289.5,136,289.5"/>
				</g>
			</g>
			<polygon fill="#605F5E" points="133.9,286.4 135.5,286.4 135.5,284.8 136.4,284.8 136.4,286.4 138,286.4 138,287.3 136.4,287.3 
				136.4,288.9 135.5,288.9 135.5,287.3 133.9,287.3 			"/>
			<path fill="#221714" d="M137.9,287.2h-1.5h-0.2v0.2v1.5h-0.7v-1.5v-0.2h-0.2H134v-0.7h1.5h0.2v-0.2v-1.5h0.7v1.5v0.2h0.2h1.5
				V287.2z M138.1,287.3v-1h-1.6v-1.6h-1v1.6h-1.6v1h1.6v1.6h1v-1.6H138.1z"/>
		</g>
		<g>
			<path fill="#AFAEAE" d="M211.2,291.8c-2.7,0-4.9-2.2-4.9-4.9s2.2-4.9,4.9-4.9c2.7,0,4.9,2.2,4.9,4.9S214,291.8,211.2,291.8"/>
			<ellipse fill="none" stroke="#929292" stroke-miterlimit="10" cx="211.2" cy="286.8" rx="4.9" ry="4.9"/>
			<path fill="#AFAEAE" d="M211.2,290.5c-2,0-3.6-1.6-3.6-3.6c0-2,1.6-3.6,3.6-3.6c2,0,3.6,1.6,3.6,3.6
				C214.9,288.8,213.2,290.5,211.2,290.5"/>
			<ellipse fill="none" stroke="#929292" stroke-miterlimit="10" cx="211.2" cy="286.8" rx="3.6" ry="3.6"/>
			<g>
				<g>
					<defs>
						<rect id="SVGID_1576_" x="207.8" y="283.4" width="6.8" height="6.8"/>
					</defs>
					<clipPath id="SVGID_46_">
						<use xlink:href="#SVGID_1576_"  overflow="visible"/>
					</clipPath>
					<path clip-path="url(#SVGID_46_)" fill="#BEBEBD" d="M211.2,290.2c-1.9,0-3.4-1.5-3.4-3.4c0-1.9,1.5-3.4,3.4-3.4
						c1.9,0,3.4,1.5,3.4,3.4C214.6,288.7,213.1,290.2,211.2,290.2"/>
					<path clip-path="url(#SVGID_46_)" fill="#C0C0C0" d="M211.2,290.2c-1.8,0-3.3-1.5-3.3-3.3c0-1.8,1.5-3.3,3.3-3.3
						c1.8,0,3.3,1.5,3.3,3.3C214.6,288.7,213.1,290.2,211.2,290.2"/>
					<path clip-path="url(#SVGID_46_)" fill="#C2C3C3" d="M211.2,290.1c-1.8,0-3.3-1.5-3.3-3.3c0-1.8,1.5-3.3,3.3-3.3
						c1.8,0,3.3,1.5,3.3,3.3C214.5,288.6,213,290.1,211.2,290.1"/>
					<path clip-path="url(#SVGID_46_)" fill="#C4C5C4" d="M211.2,290c-1.8,0-3.2-1.4-3.2-3.2s1.4-3.2,3.2-3.2c1.8,0,3.2,1.4,3.2,3.2
						S213,290,211.2,290"/>
					<path clip-path="url(#SVGID_46_)" fill="#C6C8C8" d="M211.2,289.9c-1.7,0-3.1-1.4-3.1-3.1s1.4-3.1,3.1-3.1
						c1.7,0,3.1,1.4,3.1,3.1S212.9,289.9,211.2,289.9"/>
					<path clip-path="url(#SVGID_46_)" fill="#C9CACB" d="M211.2,289.8c-1.7,0-3-1.4-3-3c0-1.7,1.4-3,3-3c1.7,0,3,1.4,3,3
						C214.2,288.5,212.9,289.8,211.2,289.8"/>
					<path clip-path="url(#SVGID_46_)" fill="#CBCDCD" d="M211.2,289.8c-1.6,0-2.9-1.3-2.9-2.9c0-1.6,1.3-2.9,2.9-2.9
						c1.6,0,2.9,1.3,2.9,2.9C214.2,288.4,212.9,289.8,211.2,289.8"/>
					<path clip-path="url(#SVGID_46_)" fill="#CCCFD0" d="M211.2,289.7c-1.6,0-2.9-1.3-2.9-2.9c0-1.6,1.3-2.9,2.9-2.9
						c1.6,0,2.9,1.3,2.9,2.9C214.1,288.4,212.8,289.7,211.2,289.7"/>
					<path clip-path="url(#SVGID_46_)" fill="#D0D2D2" d="M211.2,289.6c-1.5,0-2.8-1.2-2.8-2.8c0-1.5,1.2-2.8,2.8-2.8
						c1.5,0,2.8,1.2,2.8,2.8C214,288.4,212.8,289.6,211.2,289.6"/>
					<path clip-path="url(#SVGID_46_)" fill="#D2D4D5" d="M211.2,289.5c-1.5,0-2.7-1.2-2.7-2.7s1.2-2.7,2.7-2.7
						c1.5,0,2.7,1.2,2.7,2.7S212.7,289.5,211.2,289.5"/>
				</g>
			</g>
			<polygon fill="#605F5E" points="209.2,286.4 210.8,286.4 210.8,284.8 211.7,284.8 211.7,286.4 213.3,286.4 213.3,287.3 
				211.7,287.3 211.7,288.9 210.8,288.9 210.8,287.3 209.2,287.3 			"/>
			<path fill="#221714" d="M213.2,287.2h-1.5h-0.2v0.2v1.5h-0.7v-1.5v-0.2h-0.2h-1.5v-0.7h1.5h0.2v-0.2v-1.5h0.7v1.5v0.2h0.2h1.5
				V287.2z M213.4,287.3v-1h-1.6v-1.6h-1v1.6h-1.6v1h1.6v1.6h1v-1.6H213.4z"/>
		</g>
		<ellipse id="XMLID_451_" fill="#FDFF7F" stroke="#2E2E2E" stroke-miterlimit="10" cx="251.9" cy="323.1" rx="7.6" ry="7.3"/>
		<linearGradient id="SVGID_48_" gradientUnits="userSpaceOnUse" x1="232.6893" y1="353.4447" x2="232.6893" y2="280.8056">
			<stop  offset="0" style="stop-color:#717071"/>
			<stop  offset="2.050001e-02" style="stop-color:#FFFFFF"/>
			<stop  offset="8.806157e-02" style="stop-color:#ABAEAF"/>
			<stop  offset="0.8828" style="stop-color:#ABAEAF"/>
			<stop  offset="0.9662" style="stop-color:#FFFFFF"/>
			<stop  offset="1" style="stop-color:#717071"/>
		</linearGradient>
		
			<rect x="226.5" y="280.8" fill="url(#SVGID_48_)" stroke="#333333" stroke-width="0.4" stroke-miterlimit="10" width="12.5" height="72.6"/>
		<linearGradient id="SVGID_49_" gradientUnits="userSpaceOnUse" x1="151.8684" y1="259.5527" x2="151.8684" y2="12.8461">
			<stop  offset="0" style="stop-color:#717071"/>
			<stop  offset="2.050001e-02" style="stop-color:#FFFFFF"/>
			<stop  offset="8.806157e-02" style="stop-color:#ABAEAF"/>
			<stop  offset="0.8828" style="stop-color:#ABAEAF"/>
			<stop  offset="0.9662" style="stop-color:#FFFFFF"/>
			<stop  offset="1" style="stop-color:#717071"/>
		</linearGradient>
		<rect x="10" y="12.8" fill="url(#SVGID_49_)" stroke="#333333" stroke-miterlimit="10" width="283.7" height="246.7"/>
		<g>
			<g>
				<path fill="#AFAEAE" d="M266,50.9c-7.1,0-12.8-5.8-12.8-12.9s5.7-12.8,12.8-12.8c7.1,0,12.8,5.8,12.8,12.8S273.1,50.9,266,50.9"
					/>
				<ellipse fill="none" stroke="#929292" stroke-miterlimit="10" cx="266" cy="38" rx="12.8" ry="12.9"/>
				<path fill="#AFAEAE" d="M266,47.5c-5.2,0-9.4-4.2-9.4-9.4c0-5.2,4.2-9.4,9.4-9.4c5.2,0,9.4,4.2,9.4,9.4
					C275.4,43.2,271.2,47.5,266,47.5"/>
				<ellipse fill="none" stroke="#929292" stroke-miterlimit="10" cx="266" cy="38" rx="9.4" ry="9.4"/>
				<g>
					<g>
						<defs>
							<rect id="SVGID_1581_" x="257.1" y="29.1" width="17.8" height="17.8"/>
						</defs>
						<clipPath id="SVGID_52_">
							<use xlink:href="#SVGID_1581_"  overflow="visible"/>
						</clipPath>
						<path clip-path="url(#SVGID_52_)" fill="#BEBEBD" d="M266,46.9c-4.9,0-8.9-4-8.9-8.9c0-4.9,4-8.9,8.9-8.9c4.9,0,8.9,4,8.9,8.9
							C274.9,42.9,270.9,46.9,266,46.9"/>
						<path clip-path="url(#SVGID_52_)" fill="#C0C0C0" d="M266,46.7c-4.8,0-8.7-3.9-8.7-8.7c0-4.8,3.9-8.7,8.7-8.7
							c4.8,0,8.7,3.9,8.7,8.7C274.6,42.8,270.8,46.7,266,46.7"/>
						<path clip-path="url(#SVGID_52_)" fill="#C2C3C3" d="M266,46.5c-4.7,0-8.5-3.8-8.5-8.5c0-4.7,3.8-8.5,8.5-8.5
							c4.7,0,8.5,3.8,8.5,8.5C274.4,42.7,270.6,46.5,266,46.5"/>
						<path clip-path="url(#SVGID_52_)" fill="#C4C5C4" d="M266,46.3c-4.6,0-8.3-3.7-8.3-8.3s3.7-8.3,8.3-8.3c4.6,0,8.3,3.7,8.3,8.3
							S270.5,46.3,266,46.3"/>
						<path clip-path="url(#SVGID_52_)" fill="#C6C8C8" d="M266,46.1c-4.4,0-8.1-3.6-8.1-8.1s3.6-8.1,8.1-8.1c4.4,0,8.1,3.6,8.1,8.1
							S270.4,46.1,266,46.1"/>
						<path clip-path="url(#SVGID_52_)" fill="#C9CACB" d="M266,45.9c-4.3,0-7.8-3.5-7.8-7.9c0-4.3,3.5-7.9,7.8-7.9
							c4.3,0,7.8,3.5,7.8,7.9C273.8,42.3,270.3,45.9,266,45.9"/>
						<path clip-path="url(#SVGID_52_)" fill="#CBCDCD" d="M266,45.7c-4.2,0-7.6-3.4-7.6-7.6c0-4.2,3.4-7.6,7.6-7.6
							c4.2,0,7.6,3.4,7.6,7.6C273.6,42.2,270.2,45.7,266,45.7"/>
						<path clip-path="url(#SVGID_52_)" fill="#CCCFD0" d="M266,45.4c-4.1,0-7.4-3.3-7.4-7.4c0-4.1,3.3-7.4,7.4-7.4
							c4.1,0,7.4,3.3,7.4,7.4C273.4,42.1,270.1,45.4,266,45.4"/>
						<path clip-path="url(#SVGID_52_)" fill="#D0D2D2" d="M266,45.2c-4,0-7.2-3.2-7.2-7.2c0-4,3.2-7.2,7.2-7.2c4,0,7.2,3.2,7.2,7.2
							C273.2,42,270,45.2,266,45.2"/>
						<path clip-path="url(#SVGID_52_)" fill="#D2D4D5" d="M266,45c-3.9,0-7-3.1-7-7s3.1-7,7-7c3.9,0,7,3.1,7,7S269.8,45,266,45"/>
					</g>
				</g>
				<polygon fill="#605F5E" points="260.6,36.8 264.8,36.8 264.8,32.7 267.1,32.7 267.1,36.8 271.3,36.8 271.3,39.2 267.1,39.2 
					267.1,43.4 264.8,43.4 264.8,39.2 260.6,39.2 				"/>
				<path fill="#221714" d="M271.1,39h-3.8h-0.4v0.4v3.8H265v-3.8V39h-0.4h-3.8V37h3.8h0.4v-0.4v-3.8h1.9v3.8V37h0.4h3.8V39z
					 M271.5,39.4v-2.7h-4.2v-4.2h-2.7v4.2h-4.2v2.7h4.2v4.2h2.7v-4.2H271.5z"/>
			</g>
			<g>
				<path fill="#AFAEAE" d="M266,247.2c-7.1,0-12.8-5.8-12.8-12.9s5.7-12.8,12.8-12.8c7.1,0,12.8,5.8,12.8,12.8
					S273.1,247.2,266,247.2"/>
				<ellipse fill="none" stroke="#929292" stroke-miterlimit="10" cx="266" cy="234.4" rx="12.8" ry="12.9"/>
				<path fill="#AFAEAE" d="M266,243.8c-5.2,0-9.4-4.2-9.4-9.4c0-5.2,4.2-9.4,9.4-9.4c5.2,0,9.4,4.2,9.4,9.4
					C275.4,239.6,271.2,243.8,266,243.8"/>
				<ellipse fill="none" stroke="#929292" stroke-miterlimit="10" cx="266" cy="234.4" rx="9.4" ry="9.4"/>
				<g>
					<g>
						<defs>
							<rect id="SVGID_1583_" x="257.1" y="225.5" width="17.8" height="17.8"/>
						</defs>
						<clipPath id="SVGID_53_">
							<use xlink:href="#SVGID_1583_"  overflow="visible"/>
						</clipPath>
						<path clip-path="url(#SVGID_53_)" fill="#BEBEBD" d="M266,243.3c-4.9,0-8.9-4-8.9-8.9c0-4.9,4-8.9,8.9-8.9
							c4.9,0,8.9,4,8.9,8.9C274.9,239.3,270.9,243.3,266,243.3"/>
						<path clip-path="url(#SVGID_53_)" fill="#C0C0C0" d="M266,243.1c-4.8,0-8.7-3.9-8.7-8.7c0-4.8,3.9-8.7,8.7-8.7
							c4.8,0,8.7,3.9,8.7,8.7C274.6,239.2,270.8,243.1,266,243.1"/>
						<path clip-path="url(#SVGID_53_)" fill="#C2C3C3" d="M266,242.9c-4.7,0-8.5-3.8-8.5-8.5c0-4.7,3.8-8.5,8.5-8.5
							c4.7,0,8.5,3.8,8.5,8.5C274.4,239.1,270.6,242.9,266,242.9"/>
						<path clip-path="url(#SVGID_53_)" fill="#C4C5C4" d="M266,242.7c-4.6,0-8.3-3.7-8.3-8.3s3.7-8.3,8.3-8.3
							c4.6,0,8.3,3.7,8.3,8.3S270.5,242.7,266,242.7"/>
						<path clip-path="url(#SVGID_53_)" fill="#C6C8C8" d="M266,242.4c-4.4,0-8.1-3.6-8.1-8.1s3.6-8.1,8.1-8.1
							c4.4,0,8.1,3.6,8.1,8.1S270.4,242.4,266,242.4"/>
						<path clip-path="url(#SVGID_53_)" fill="#C9CACB" d="M266,242.2c-4.3,0-7.8-3.5-7.8-7.9c0-4.3,3.5-7.9,7.8-7.9
							c4.3,0,7.8,3.5,7.8,7.9C273.8,238.7,270.3,242.2,266,242.2"/>
						<path clip-path="url(#SVGID_53_)" fill="#CBCDCD" d="M266,242c-4.2,0-7.6-3.4-7.6-7.6c0-4.2,3.4-7.6,7.6-7.6
							c4.2,0,7.6,3.4,7.6,7.6C273.6,238.6,270.2,242,266,242"/>
						<path clip-path="url(#SVGID_53_)" fill="#CCCFD0" d="M266,241.8c-4.1,0-7.4-3.3-7.4-7.4c0-4.1,3.3-7.4,7.4-7.4
							c4.1,0,7.4,3.3,7.4,7.4C273.4,238.5,270.1,241.8,266,241.8"/>
						<path clip-path="url(#SVGID_53_)" fill="#D0D2D2" d="M266,241.6c-4,0-7.2-3.2-7.2-7.2c0-4,3.2-7.2,7.2-7.2
							c4,0,7.2,3.2,7.2,7.2C273.2,238.4,270,241.6,266,241.6"/>
						<path clip-path="url(#SVGID_53_)" fill="#D2D4D5" d="M266,241.4c-3.9,0-7-3.1-7-7s3.1-7,7-7c3.9,0,7,3.1,7,7
							S269.8,241.4,266,241.4"/>
					</g>
				</g>
				<polygon fill="#605F5E" points="260.6,233.2 264.8,233.2 264.8,229 267.1,229 267.1,233.2 271.3,233.2 271.3,235.6 267.1,235.6 
					267.1,239.7 264.8,239.7 264.8,235.6 260.6,235.6 				"/>
				<path fill="#221714" d="M271.1,235.3h-3.8h-0.4v0.4v3.8H265v-3.8v-0.4h-0.4h-3.8v-1.9h3.8h0.4V233v-3.8h1.9v3.8v0.4h0.4h3.8
					V235.3z M271.5,235.7V233h-4.2v-4.2h-2.7v4.2h-4.2v2.7h4.2v4.2h2.7v-4.2H271.5z"/>
			</g>
			<g>
				<g>
					<radialGradient id="SVGID_55_" cx="229.3762" cy="48.4525" r="12.3796" gradientUnits="userSpaceOnUse">
						<stop  offset="0.6774" style="stop-color:#2B2B2B"/>
						<stop  offset="0.8441" style="stop-color:#595757"/>
						<stop  offset="1" style="stop-color:#000000"/>
					</radialGradient>
					<path fill="url(#SVGID_55_)" d="M241.8,48.5c0,6.8-5.5,12.4-12.4,12.4c-6.8,0-12.4-5.5-12.4-12.4c0-6.8,5.5-12.4,12.4-12.4
						C236.2,36.1,241.8,41.6,241.8,48.5"/>
					<ellipse fill="none" stroke="#131313" stroke-width="0.75" stroke-miterlimit="10" cx="229.4" cy="48.5" rx="12.4" ry="12.4"/>
					<polygon fill="#0A0A0A" points="227.8,55.5 227.8,50 222.4,50 222.4,46.9 227.8,46.9 227.8,41.4 230.9,41.4 230.9,46.9 
						236.4,46.9 236.4,50 230.9,50 230.9,55.5 					"/>
					<path fill="#231815" d="M230.6,41.7v5v0.5h0.5h5v2.5h-5h-0.5v0.5v5h-2.5v-5v-0.5h-0.5h-5v-2.5h5h0.5v-0.5v-5H230.6z
						 M231.2,41.2h-3.6v5.5h-5.5v3.6h5.5v5.5h3.6v-5.5h5.5v-3.6h-5.5V41.2z"/>
				</g>
				<rect x="227.6" y="41.2" fill="#606060" width="0.5" height="6"/>
				<rect x="222.1" y="46.7" fill="#606060" width="6" height="0.5"/>
				<rect x="227.6" y="41.2" fill="#494949" width="3.6" height="0.5"/>
				<rect x="222.1" y="46.7" fill="#545454" width="0.5" height="3.6"/>
			</g>
			<g>
				<g>
					<radialGradient id="SVGID_57_" cx="229.3762" cy="232.047" r="12.3796" gradientUnits="userSpaceOnUse">
						<stop  offset="0.6774" style="stop-color:#2B2B2B"/>
						<stop  offset="0.8441" style="stop-color:#595757"/>
						<stop  offset="1" style="stop-color:#000000"/>
					</radialGradient>
					<path fill="url(#SVGID_57_)" d="M241.8,232c0,6.8-5.5,12.4-12.4,12.4c-6.8,0-12.4-5.5-12.4-12.4c0-6.8,5.5-12.4,12.4-12.4
						C236.2,219.7,241.8,225.2,241.8,232"/>
					<ellipse fill="none" stroke="#131313" stroke-width="0.75" stroke-miterlimit="10" cx="229.4" cy="232" rx="12.4" ry="12.4"/>
					<polygon fill="#0A0A0A" points="227.8,239.1 227.8,233.6 222.4,233.6 222.4,230.5 227.8,230.5 227.8,225 230.9,225 
						230.9,230.5 236.4,230.5 236.4,233.6 230.9,233.6 230.9,239.1 					"/>
					<path fill="#231815" d="M230.6,225.3v5v0.5h0.5h5v2.5h-5h-0.5v0.5v5h-2.5v-5v-0.5h-0.5h-5v-2.5h5h0.5v-0.5v-5H230.6z
						 M231.2,224.8h-3.6v5.5h-5.5v3.6h5.5v5.5h3.6v-5.5h5.5v-3.6h-5.5V224.8z"/>
				</g>
				<rect x="227.6" y="224.8" fill="#606060" width="0.5" height="6"/>
				<rect x="222.1" y="230.3" fill="#606060" width="6" height="0.5"/>
				<rect x="227.6" y="224.8" fill="#494949" width="3.6" height="0.5"/>
				<rect x="222.1" y="230.3" fill="#545454" width="0.5" height="3.6"/>
			</g>
			<g>
				<g>
					<radialGradient id="SVGID_60_" cx="48.8639" cy="48.4525" r="12.3796" gradientUnits="userSpaceOnUse">
						<stop  offset="0.6774" style="stop-color:#2B2B2B"/>
						<stop  offset="0.8441" style="stop-color:#595757"/>
						<stop  offset="1" style="stop-color:#000000"/>
					</radialGradient>
					<path fill="url(#SVGID_60_)" d="M61.2,48.5c0,6.8-5.5,12.4-12.4,12.4c-6.8,0-12.4-5.5-12.4-12.4c0-6.8,5.5-12.4,12.4-12.4
						C55.7,36.1,61.2,41.6,61.2,48.5"/>
					<ellipse fill="none" stroke="#131313" stroke-width="0.75" stroke-miterlimit="10" cx="48.9" cy="48.5" rx="12.4" ry="12.4"/>
					<polygon fill="#0A0A0A" points="47.3,55.5 47.3,50 41.8,50 41.8,46.9 47.3,46.9 47.3,41.4 50.4,41.4 50.4,46.9 55.9,46.9 
						55.9,50 50.4,50 50.4,55.5 					"/>
					<path fill="#231815" d="M50.1,41.7v5v0.5h0.5h5v2.5h-5h-0.5v0.5v5h-2.5v-5v-0.5h-0.5h-5v-2.5h5h0.5v-0.5v-5H50.1z M50.7,41.2
						h-3.6v5.5h-5.5v3.6h5.5v5.5h3.6v-5.5h5.5v-3.6h-5.5V41.2z"/>
				</g>
				<rect x="47.1" y="41.2" fill="#606060" width="0.5" height="6"/>
				<rect x="41.6" y="46.7" fill="#606060" width="6" height="0.5"/>
				<rect x="47.1" y="41.2" fill="#494949" width="3.6" height="0.5"/>
				<rect x="41.6" y="46.7" fill="#545454" width="0.5" height="3.6"/>
			</g>
			<g>
				<g>
					<radialGradient id="SVGID_62_" cx="48.8639" cy="232.047" r="12.3796" gradientUnits="userSpaceOnUse">
						<stop  offset="0.6774" style="stop-color:#2B2B2B"/>
						<stop  offset="0.8441" style="stop-color:#595757"/>
						<stop  offset="1" style="stop-color:#000000"/>
					</radialGradient>
					<path fill="url(#SVGID_62_)" d="M61.2,232c0,6.8-5.5,12.4-12.4,12.4c-6.8,0-12.4-5.5-12.4-12.4c0-6.8,5.5-12.4,12.4-12.4
						C55.7,219.7,61.2,225.2,61.2,232"/>
					<ellipse fill="none" stroke="#131313" stroke-width="0.75" stroke-miterlimit="10" cx="48.9" cy="232" rx="12.4" ry="12.4"/>
					<polygon fill="#0A0A0A" points="47.3,239.1 47.3,233.6 41.8,233.6 41.8,230.5 47.3,230.5 47.3,225 50.4,225 50.4,230.5 
						55.9,230.5 55.9,233.6 50.4,233.6 50.4,239.1 					"/>
					<path fill="#231815" d="M50.1,225.3v5v0.5h0.5h5v2.5h-5h-0.5v0.5v5h-2.5v-5v-0.5h-0.5h-5v-2.5h5h0.5v-0.5v-5H50.1z M50.7,224.8
						h-3.6v5.5h-5.5v3.6h5.5v5.5h3.6v-5.5h5.5v-3.6h-5.5V224.8z"/>
				</g>
				<rect x="47.1" y="224.8" fill="#606060" width="0.5" height="6"/>
				<rect x="41.6" y="230.3" fill="#606060" width="6" height="0.5"/>
				<rect x="47.1" y="224.8" fill="#494949" width="3.6" height="0.5"/>
				<rect x="41.6" y="230.3" fill="#545454" width="0.5" height="3.6"/>
			</g>
			<path fill="#0B0909" d="M198,234.7H78.4c-13.3-13.3-20.7-20.7-34-34V81.1c13.3-13.3,20.7-20.7,34-34H198
				c13.3,13.3,20.7,20.7,34,34v119.6C218.7,214,211.3,221.4,198,234.7z"/>
			<g>
				<ellipse fill="#0B0909" cx="138.2" cy="140.9" rx="86.9" ry="86.9"/>
				<circle fill="#BBBBBB" cx="138.2" cy="140.9" r="48.2"/>
				<g>
					
						<linearGradient id="SVGID_64_" gradientUnits="userSpaceOnUse" x1="541.8856" y1="-7080.1763" x2="675.9755" y2="-7080.1763" gradientTransform="matrix(0 1 -1 0 -6941.9629 -468.0434)">
						<stop  offset="0" style="stop-color:#FFFFFF"/>
						<stop  offset="0.1989" style="stop-color:#3E3A39"/>
						<stop  offset="0.4086" style="stop-color:#838383"/>
						<stop  offset="0.7581" style="stop-color:#717071"/>
						<stop  offset="1" style="stop-color:#C2C2C2"/>
					</linearGradient>
					<path fill="url(#SVGID_64_)" d="M71.2,140.9c0-37,30.1-67,67-67c37,0,67,30.1,67,67c0,37-30.1,67-67,67
						C101.2,207.9,71.2,177.9,71.2,140.9z M200.1,140.9c0-34.1-27.8-61.9-61.9-61.9c-34.1,0-61.9,27.8-61.9,61.9
						c0,34.1,27.8,61.9,61.9,61.9C172.3,202.8,200.1,175,200.1,140.9z"/>
				</g>
				<g>
					
						<linearGradient id="SVGID_65_" gradientUnits="userSpaceOnUse" x1="517.7707" y1="-7080.1777" x2="700.0905" y2="-7080.1777" gradientTransform="matrix(0 1 -1 0 -6941.9629 -468.0434)">
						<stop  offset="0" style="stop-color:#FFFFFF"/>
						<stop  offset="0.1989" style="stop-color:#3E3A39"/>
						<stop  offset="0.4086" style="stop-color:#838383"/>
						<stop  offset="0.7581" style="stop-color:#717071"/>
						<stop  offset="1" style="stop-color:#C2C2C2"/>
					</linearGradient>
					<path fill="url(#SVGID_65_)" d="M47.1,140.9c0-50.3,40.9-91.2,91.2-91.2c50.3,0,91.2,40.9,91.2,91.2
						c0,50.3-40.9,91.2-91.2,91.2C87.9,232,47.1,191.2,47.1,140.9z M222.3,140.9c0-46.4-37.7-84.1-84.1-84.1
						c-46.4,0-84.1,37.7-84.1,84.1c0,46.4,37.7,84.1,84.1,84.1C184.6,225,222.3,187.3,222.3,140.9z"/>
				</g>
				<g>
					<path fill="#474747" d="M95.5,140.9c0-23.6,19.2-42.7,42.7-42.7c23.6,0,42.7,19.2,42.7,42.7c0,23.6-19.2,42.7-42.7,42.7
						C114.7,183.6,95.5,164.4,95.5,140.9z M176,140.9c0-20.8-17-37.8-37.8-37.8s-37.8,16.9-37.8,37.8c0,20.8,16.9,37.8,37.8,37.8
						S176,161.7,176,140.9z"/>
				</g>
				<g>
					
						<linearGradient id="SVGID_66_" gradientUnits="userSpaceOnUse" x1="564.2793" y1="-7080.1768" x2="653.5842" y2="-7080.1768" gradientTransform="matrix(0 1 -1 0 -6941.9629 -468.0434)">
						<stop  offset="0" style="stop-color:#FFFFFF"/>
						<stop  offset="0.1989" style="stop-color:#3E3A39"/>
						<stop  offset="0.4086" style="stop-color:#838383"/>
						<stop  offset="0.7581" style="stop-color:#717071"/>
						<stop  offset="1" style="stop-color:#C2C2C2"/>
					</linearGradient>
					<path fill="url(#SVGID_66_)" d="M93.6,140.9c0-24.6,20-44.7,44.6-44.7c24.6,0,44.7,20,44.7,44.7c0,24.6-20,44.7-44.7,44.7
						C113.6,185.5,93.6,165.5,93.6,140.9z M177.7,140.9c0-21.8-17.7-39.5-39.5-39.5c-21.8,0-39.5,17.7-39.5,39.5
						c0,21.8,17.7,39.5,39.5,39.5C160,180.4,177.7,162.7,177.7,140.9z"/>
				</g>
				<g>
					<path fill="#474747" d="M71.6,90.6l4.4-2.7c17.6,28.3,37.1,42.8,58,43.2c36.7,0.6,66.3-42.8,66.6-43.2l4.3,2.9
						c-1.3,1.9-31.4,46.2-71,45.5C111.1,135.8,90.1,120.4,71.6,90.6z"/>
				</g>
				<g>
					
						<linearGradient id="SVGID_68_" gradientUnits="userSpaceOnUse" x1="557.5414" y1="-7080.1523" x2="605.966" y2="-7080.1523" gradientTransform="matrix(0 1 -1 0 -6941.9629 -468.0434)">
						<stop  offset="0" style="stop-color:#FFFFFF"/>
						<stop  offset="0.1989" style="stop-color:#3E3A39"/>
						<stop  offset="0.4086" style="stop-color:#838383"/>
						<stop  offset="0.7581" style="stop-color:#717071"/>
						<stop  offset="1" style="stop-color:#C2C2C2"/>
					</linearGradient>
					<path fill="url(#SVGID_68_)" d="M71.6,92.3l4.4-2.7c17.6,28.3,37.1,42.8,58,43.2c36.7,0.6,66.3-42.8,66.6-43.2l4.3,2.9
						c-1.3,1.9-31.4,46.2-71,45.5C111.1,137.5,90.1,122.2,71.6,92.3z"/>
				</g>
				<g>
					<path fill="#474747" d="M71.6,192.7c18.5-29.9,39.5-45.2,62.3-45.6c39.6-0.7,69.7,43.7,71,45.5l-4.3,2.9
						c-0.3-0.4-29.9-43.9-66.6-43.3c-20.9,0.4-40.4,14.9-58,43.2L71.6,192.7z"/>
				</g>
				<g>
					
						<linearGradient id="SVGID_69_" gradientUnits="userSpaceOnUse" x1="-7076.252" y1="-7080.1523" x2="-7027.8257" y2="-7080.1523" gradientTransform="matrix(0 -1 -1 0 -6941.9629 -6882.5205)">
						<stop  offset="0" style="stop-color:#FFFFFF"/>
						<stop  offset="0.1989" style="stop-color:#3E3A39"/>
						<stop  offset="0.4086" style="stop-color:#838383"/>
						<stop  offset="0.7581" style="stop-color:#717071"/>
						<stop  offset="1" style="stop-color:#C2C2C2"/>
					</linearGradient>
					<path fill="url(#SVGID_69_)" d="M71.6,190.9c18.5-29.9,39.5-45.2,62.3-45.6c39.6-0.7,69.7,43.7,71,45.5l-4.3,2.9
						c-0.3-0.4-29.9-43.9-66.6-43.3c-20.9,0.4-40.4,14.9-58,43.2L71.6,190.9z"/>
				</g>
				<circle fill="#D2D2D2" cx="138.2" cy="140.9" r="17.5"/>
			</g>
		</g>
	</g>
	<g>
		
			<linearGradient id="SVGID_71_" gradientUnits="userSpaceOnUse" x1="3141.2971" y1="30414.7031" x2="3141.2971" y2="30314.6133" gradientTransform="matrix(1 0 0 1 -2037.9438 -30048.8809)">
			<stop  offset="0" style="stop-color:#717071"/>
			<stop  offset="2.050001e-02" style="stop-color:#FFFFFF"/>
			<stop  offset="8.806157e-02" style="stop-color:#ABAEAF"/>
			<stop  offset="0.8828" style="stop-color:#ABAEAF"/>
			<stop  offset="0.9662" style="stop-color:#FFFFFF"/>
			<stop  offset="1" style="stop-color:#717071"/>
		</linearGradient>
		<path fill="url(#SVGID_71_)" stroke="#333333" stroke-miterlimit="10" d="M973.6,265.7h259.6v18.4h-0.5c-3.4,0-6.2,2.8-6.2,6.2v0
			c0,3.4,2.8,6.2,6.2,6.2h0.5v69.2H973.6V265.7z"/>
		<g>
			<path fill="#3D3A39" d="M999.6,350.4c-1.3,0-2.4-1.2-2.4-2.8v-63.7c0-1.5,1.1-2.8,2.4-2.8h42.5c1.3,0,2.4,1.2,2.4,2.8v63.7
				c0,1.5-1.1,2.8-2.4,2.8H999.6z"/>
			<path fill="none" stroke="#000000" stroke-width="2" stroke-miterlimit="10" d="M999.6,350.4c-1.3,0-2.4-1.2-2.4-2.8v-63.7
				c0-1.5,1.1-2.8,2.4-2.8h42.5c1.3,0,2.4,1.2,2.4,2.8v63.7c0,1.5-1.1,2.8-2.4,2.8H999.6z"/>
			<polygon fill="#221714" points="1005.3,291.9 1028.7,291.9 1036.5,300.9 1036.5,330.9 1028.3,339.7 1005.3,339.7 			"/>
			<rect x="1013.9" y="326.8" fill="#353741" width="8.9" height="3"/>
			<rect x="1013.9" y="326.8" fill="#8B8F99" width="7.3" height="1.5"/>
			<rect x="1019.4" y="313.6" fill="#353741" width="8.9" height="3"/>
			<rect x="1019.4" y="313.6" fill="#8B8F99" width="7.3" height="1.5"/>
			<rect x="1013.9" y="300.4" fill="#353741" width="8.9" height="3"/>
			<rect x="1013.9" y="300.4" fill="#8B8F99" width="7.3" height="1.5"/>
		</g>
		<g>
			
				<ellipse transform="matrix(0.5334 -0.8459 0.8459 0.5334 261.9857 1108.5961)" fill="#0B0909" cx="1135.8" cy="316.8" rx="36" ry="36"/>
			<path fill="#ACAEAF" d="M1141.7,352.9l-1.4-18c4.5-1.1,8.5-3.9,11.2-8.1c2.7-4.3,3.4-9.2,2.4-13.8l16.1-8.5l-3.3-6.3l-15.6,8.2
				c-1.4-2-3.2-3.8-5.4-5.2c-8.3-5.2-19-3.1-24.8,4.6l-15.5-9.8l-3.8,6.1l16.1,10.2c-2,7.6,1.1,16,8.1,20.4c2.3,1.4,4.8,2.3,7.3,2.7
				l1.4,18.2L1141.7,352.9z"/>
		</g>
		<g>
			<path fill="#AFAEAE" d="M1099.8,291.8c-2.7,0-4.9-2.2-4.9-4.9s2.2-4.9,4.9-4.9c2.7,0,4.9,2.2,4.9,4.9S1102.5,291.8,1099.8,291.8"
				/>
			<ellipse fill="none" stroke="#929292" stroke-miterlimit="10" cx="1099.8" cy="286.8" rx="4.9" ry="4.9"/>
			<path fill="#AFAEAE" d="M1099.8,290.5c-2,0-3.6-1.6-3.6-3.6c0-2,1.6-3.6,3.6-3.6c2,0,3.6,1.6,3.6,3.6
				C1103.4,288.8,1101.8,290.5,1099.8,290.5"/>
			<ellipse fill="none" stroke="#929292" stroke-miterlimit="10" cx="1099.8" cy="286.8" rx="3.6" ry="3.6"/>
			<g>
				<g>
					<defs>
						<rect id="SVGID_1595_" x="1096.4" y="283.4" width="6.8" height="6.8"/>
					</defs>
					<clipPath id="SVGID_74_">
						<use xlink:href="#SVGID_1595_"  overflow="visible"/>
					</clipPath>
					<path clip-path="url(#SVGID_74_)" fill="#BEBEBD" d="M1099.8,290.2c-1.9,0-3.4-1.5-3.4-3.4c0-1.9,1.5-3.4,3.4-3.4
						c1.9,0,3.4,1.5,3.4,3.4C1103.2,288.7,1101.7,290.2,1099.8,290.2"/>
					<path clip-path="url(#SVGID_74_)" fill="#C0C0C0" d="M1099.8,290.2c-1.8,0-3.3-1.5-3.3-3.3c0-1.8,1.5-3.3,3.3-3.3
						c1.8,0,3.3,1.5,3.3,3.3C1103.1,288.7,1101.6,290.2,1099.8,290.2"/>
					<path clip-path="url(#SVGID_74_)" fill="#C2C3C3" d="M1099.8,290.1c-1.8,0-3.3-1.5-3.3-3.3c0-1.8,1.5-3.3,3.3-3.3
						c1.8,0,3.3,1.5,3.3,3.3C1103,288.6,1101.6,290.1,1099.8,290.1"/>
					<path clip-path="url(#SVGID_74_)" fill="#C4C5C4" d="M1099.8,290c-1.8,0-3.2-1.4-3.2-3.2s1.4-3.2,3.2-3.2
						c1.8,0,3.2,1.4,3.2,3.2S1101.5,290,1099.8,290"/>
					<path clip-path="url(#SVGID_74_)" fill="#C6C8C8" d="M1099.8,289.9c-1.7,0-3.1-1.4-3.1-3.1s1.4-3.1,3.1-3.1
						c1.7,0,3.1,1.4,3.1,3.1S1101.5,289.9,1099.8,289.9"/>
					<path clip-path="url(#SVGID_74_)" fill="#C9CACB" d="M1099.8,289.8c-1.7,0-3-1.4-3-3c0-1.7,1.4-3,3-3c1.7,0,3,1.4,3,3
						C1102.8,288.5,1101.4,289.8,1099.8,289.8"/>
					<path clip-path="url(#SVGID_74_)" fill="#CBCDCD" d="M1099.8,289.8c-1.6,0-2.9-1.3-2.9-2.9c0-1.6,1.3-2.9,2.9-2.9
						c1.6,0,2.9,1.3,2.9,2.9C1102.7,288.4,1101.4,289.8,1099.8,289.8"/>
					<path clip-path="url(#SVGID_74_)" fill="#CCCFD0" d="M1099.8,289.7c-1.6,0-2.9-1.3-2.9-2.9c0-1.6,1.3-2.9,2.9-2.9
						c1.6,0,2.9,1.3,2.9,2.9C1102.6,288.4,1101.4,289.7,1099.8,289.7"/>
					<path clip-path="url(#SVGID_74_)" fill="#D0D2D2" d="M1099.8,289.6c-1.5,0-2.8-1.2-2.8-2.8c0-1.5,1.2-2.8,2.8-2.8
						c1.5,0,2.8,1.2,2.8,2.8C1102.6,288.4,1101.3,289.6,1099.8,289.6"/>
					<path clip-path="url(#SVGID_74_)" fill="#D2D4D5" d="M1099.8,289.5c-1.5,0-2.7-1.2-2.7-2.7s1.2-2.7,2.7-2.7
						c1.5,0,2.7,1.2,2.7,2.7S1101.3,289.5,1099.8,289.5"/>
				</g>
			</g>
			<polygon fill="#605F5E" points="1097.7,286.4 1099.3,286.4 1099.3,284.8 1100.2,284.8 1100.2,286.4 1101.8,286.4 1101.8,287.3 
				1100.2,287.3 1100.2,288.9 1099.3,288.9 1099.3,287.3 1097.7,287.3 			"/>
			<path fill="#221714" d="M1101.8,287.2h-1.5h-0.2v0.2v1.5h-0.7v-1.5v-0.2h-0.2h-1.5v-0.7h1.5h0.2v-0.2v-1.5h0.7v1.5v0.2h0.2h1.5
				V287.2z M1101.9,287.3v-1h-1.6v-1.6h-1v1.6h-1.6v1h1.6v1.6h1v-1.6H1101.9z"/>
		</g>
		<g>
			<path fill="#AFAEAE" d="M1175.1,291.8c-2.7,0-4.9-2.2-4.9-4.9s2.2-4.9,4.9-4.9c2.7,0,4.9,2.2,4.9,4.9S1177.8,291.8,1175.1,291.8"
				/>
			<ellipse fill="none" stroke="#929292" stroke-miterlimit="10" cx="1175.1" cy="286.8" rx="4.9" ry="4.9"/>
			<path fill="#AFAEAE" d="M1175.1,290.5c-2,0-3.6-1.6-3.6-3.6c0-2,1.6-3.6,3.6-3.6c2,0,3.6,1.6,3.6,3.6
				C1178.7,288.8,1177.1,290.5,1175.1,290.5"/>
			<ellipse fill="none" stroke="#929292" stroke-miterlimit="10" cx="1175.1" cy="286.8" rx="3.6" ry="3.6"/>
			<g>
				<g>
					<defs>
						<rect id="SVGID_1597_" x="1171.6" y="283.4" width="6.8" height="6.8"/>
					</defs>
					<clipPath id="SVGID_293_">
						<use xlink:href="#SVGID_1597_"  overflow="visible"/>
					</clipPath>
					<path clip-path="url(#SVGID_293_)" fill="#BEBEBD" d="M1175.1,290.2c-1.9,0-3.4-1.5-3.4-3.4c0-1.9,1.5-3.4,3.4-3.4
						c1.9,0,3.4,1.5,3.4,3.4C1178.5,288.7,1176.9,290.2,1175.1,290.2"/>
					<path clip-path="url(#SVGID_293_)" fill="#C0C0C0" d="M1175.1,290.2c-1.8,0-3.3-1.5-3.3-3.3c0-1.8,1.5-3.3,3.3-3.3
						c1.8,0,3.3,1.5,3.3,3.3C1178.4,288.7,1176.9,290.2,1175.1,290.2"/>
					<path clip-path="url(#SVGID_293_)" fill="#C2C3C3" d="M1175.1,290.1c-1.8,0-3.3-1.5-3.3-3.3c0-1.8,1.5-3.3,3.3-3.3
						c1.8,0,3.3,1.5,3.3,3.3C1178.3,288.6,1176.8,290.1,1175.1,290.1"/>
					<path clip-path="url(#SVGID_293_)" fill="#C4C5C4" d="M1175.1,290c-1.8,0-3.2-1.4-3.2-3.2s1.4-3.2,3.2-3.2
						c1.8,0,3.2,1.4,3.2,3.2S1176.8,290,1175.1,290"/>
					<path clip-path="url(#SVGID_293_)" fill="#C6C8C8" d="M1175.1,289.9c-1.7,0-3.1-1.4-3.1-3.1s1.4-3.1,3.1-3.1
						c1.7,0,3.1,1.4,3.1,3.1S1176.8,289.9,1175.1,289.9"/>
					<path clip-path="url(#SVGID_293_)" fill="#C9CACB" d="M1175.1,289.8c-1.7,0-3-1.4-3-3c0-1.7,1.4-3,3-3c1.7,0,3,1.4,3,3
						C1178.1,288.5,1176.7,289.8,1175.1,289.8"/>
					<path clip-path="url(#SVGID_293_)" fill="#CBCDCD" d="M1175.1,289.8c-1.6,0-2.9-1.3-2.9-2.9c0-1.6,1.3-2.9,2.9-2.9
						c1.6,0,2.9,1.3,2.9,2.9C1178,288.4,1176.7,289.8,1175.1,289.8"/>
					<path clip-path="url(#SVGID_293_)" fill="#CCCFD0" d="M1175.1,289.7c-1.6,0-2.9-1.3-2.9-2.9c0-1.6,1.3-2.9,2.9-2.9
						c1.6,0,2.9,1.3,2.9,2.9C1177.9,288.4,1176.6,289.7,1175.1,289.7"/>
					<path clip-path="url(#SVGID_293_)" fill="#D0D2D2" d="M1175.1,289.6c-1.5,0-2.8-1.2-2.8-2.8c0-1.5,1.2-2.8,2.8-2.8
						c1.5,0,2.8,1.2,2.8,2.8C1177.8,288.4,1176.6,289.6,1175.1,289.6"/>
					<path clip-path="url(#SVGID_293_)" fill="#D2D4D5" d="M1175.1,289.5c-1.5,0-2.7-1.2-2.7-2.7s1.2-2.7,2.7-2.7
						c1.5,0,2.7,1.2,2.7,2.7S1176.5,289.5,1175.1,289.5"/>
				</g>
			</g>
			<polygon fill="#605F5E" points="1173,286.4 1174.6,286.4 1174.6,284.8 1175.5,284.8 1175.5,286.4 1177.1,286.4 1177.1,287.3 
				1175.5,287.3 1175.5,288.9 1174.6,288.9 1174.6,287.3 1173,287.3 			"/>
			<path fill="#221714" d="M1177,287.2h-1.5h-0.2v0.2v1.5h-0.7v-1.5v-0.2h-0.2h-1.5v-0.7h1.5h0.2v-0.2v-1.5h0.7v1.5v0.2h0.2h1.5
				V287.2z M1177.2,287.3v-1h-1.6v-1.6h-1v1.6h-1.6v1h1.6v1.6h1v-1.6H1177.2z"/>
		</g>
		<ellipse id="XMLID_452_" fill="#FDFF7F" stroke="#2E2E2E" stroke-miterlimit="10" cx="1215.7" cy="323.1" rx="7.6" ry="7.3"/>
		<linearGradient id="SVGID_294_" gradientUnits="userSpaceOnUse" x1="1196.5083" y1="353.4447" x2="1196.5083" y2="280.8056">
			<stop  offset="0" style="stop-color:#717071"/>
			<stop  offset="2.050001e-02" style="stop-color:#FFFFFF"/>
			<stop  offset="8.806157e-02" style="stop-color:#ABAEAF"/>
			<stop  offset="0.8828" style="stop-color:#ABAEAF"/>
			<stop  offset="0.9662" style="stop-color:#FFFFFF"/>
			<stop  offset="1" style="stop-color:#717071"/>
		</linearGradient>
		
			<rect x="1190.3" y="280.8" fill="url(#SVGID_294_)" stroke="#333333" stroke-width="0.4" stroke-miterlimit="10" width="12.5" height="72.6"/>
		<linearGradient id="SVGID_295_" gradientUnits="userSpaceOnUse" x1="1115.6874" y1="259.5527" x2="1115.6874" y2="12.8461">
			<stop  offset="0" style="stop-color:#717071"/>
			<stop  offset="2.050001e-02" style="stop-color:#FFFFFF"/>
			<stop  offset="8.806157e-02" style="stop-color:#ABAEAF"/>
			<stop  offset="0.8828" style="stop-color:#ABAEAF"/>
			<stop  offset="0.9662" style="stop-color:#FFFFFF"/>
			<stop  offset="1" style="stop-color:#717071"/>
		</linearGradient>
		<rect x="973.8" y="12.8" fill="url(#SVGID_295_)" stroke="#333333" stroke-miterlimit="10" width="283.7" height="246.7"/>
		<g>
			<g>
				<path fill="#AFAEAE" d="M1229.8,50.9c-7.1,0-12.8-5.8-12.8-12.9s5.7-12.8,12.8-12.8c7.1,0,12.8,5.8,12.8,12.8
					S1236.9,50.9,1229.8,50.9"/>
				<ellipse fill="none" stroke="#929292" stroke-miterlimit="10" cx="1229.8" cy="38" rx="12.8" ry="12.9"/>
				<path fill="#AFAEAE" d="M1229.8,47.5c-5.2,0-9.4-4.2-9.4-9.4c0-5.2,4.2-9.4,9.4-9.4c5.2,0,9.4,4.2,9.4,9.4
					C1239.2,43.2,1235,47.5,1229.8,47.5"/>
				<ellipse fill="none" stroke="#929292" stroke-miterlimit="10" cx="1229.8" cy="38" rx="9.4" ry="9.4"/>
				<g>
					<g>
						<defs>
							<rect id="SVGID_1602_" x="1220.9" y="29.1" width="17.8" height="17.8"/>
						</defs>
						<clipPath id="SVGID_296_">
							<use xlink:href="#SVGID_1602_"  overflow="visible"/>
						</clipPath>
						<path clip-path="url(#SVGID_296_)" fill="#BEBEBD" d="M1229.8,46.9c-4.9,0-8.9-4-8.9-8.9c0-4.9,4-8.9,8.9-8.9
							c4.9,0,8.9,4,8.9,8.9C1238.7,42.9,1234.7,46.9,1229.8,46.9"/>
						<path clip-path="url(#SVGID_296_)" fill="#C0C0C0" d="M1229.8,46.7c-4.8,0-8.7-3.9-8.7-8.7c0-4.8,3.9-8.7,8.7-8.7
							c4.8,0,8.7,3.9,8.7,8.7C1238.5,42.8,1234.6,46.7,1229.8,46.7"/>
						<path clip-path="url(#SVGID_296_)" fill="#C2C3C3" d="M1229.8,46.5c-4.7,0-8.5-3.8-8.5-8.5c0-4.7,3.8-8.5,8.5-8.5
							c4.7,0,8.5,3.8,8.5,8.5C1238.3,42.7,1234.5,46.5,1229.8,46.5"/>
						<path clip-path="url(#SVGID_296_)" fill="#C4C5C4" d="M1229.8,46.3c-4.6,0-8.3-3.7-8.3-8.3s3.7-8.3,8.3-8.3
							c4.6,0,8.3,3.7,8.3,8.3S1234.3,46.3,1229.8,46.3"/>
						<path clip-path="url(#SVGID_296_)" fill="#C6C8C8" d="M1229.8,46.1c-4.4,0-8.1-3.6-8.1-8.1s3.6-8.1,8.1-8.1
							c4.4,0,8.1,3.6,8.1,8.1S1234.2,46.1,1229.8,46.1"/>
						<path clip-path="url(#SVGID_296_)" fill="#C9CACB" d="M1229.8,45.9c-4.3,0-7.8-3.5-7.8-7.9c0-4.3,3.5-7.9,7.8-7.9
							c4.3,0,7.8,3.5,7.8,7.9C1237.6,42.3,1234.1,45.9,1229.8,45.9"/>
						<path clip-path="url(#SVGID_296_)" fill="#CBCDCD" d="M1229.8,45.7c-4.2,0-7.6-3.4-7.6-7.6c0-4.2,3.4-7.6,7.6-7.6
							c4.2,0,7.6,3.4,7.6,7.6C1237.4,42.2,1234,45.7,1229.8,45.7"/>
						<path clip-path="url(#SVGID_296_)" fill="#CCCFD0" d="M1229.8,45.4c-4.1,0-7.4-3.3-7.4-7.4c0-4.1,3.3-7.4,7.4-7.4
							c4.1,0,7.4,3.3,7.4,7.4C1237.2,42.1,1233.9,45.4,1229.8,45.4"/>
						<path clip-path="url(#SVGID_296_)" fill="#D0D2D2" d="M1229.8,45.2c-4,0-7.2-3.2-7.2-7.2c0-4,3.2-7.2,7.2-7.2
							c4,0,7.2,3.2,7.2,7.2C1237,42,1233.8,45.2,1229.8,45.2"/>
						<path clip-path="url(#SVGID_296_)" fill="#D2D4D5" d="M1229.8,45c-3.9,0-7-3.1-7-7s3.1-7,7-7c3.9,0,7,3.1,7,7
							S1233.7,45,1229.8,45"/>
					</g>
				</g>
				<polygon fill="#605F5E" points="1224.4,36.8 1228.6,36.8 1228.6,32.7 1230.9,32.7 1230.9,36.8 1235.1,36.8 1235.1,39.2 
					1230.9,39.2 1230.9,43.4 1228.6,43.4 1228.6,39.2 1224.4,39.2 				"/>
				<path fill="#221714" d="M1234.9,39h-3.8h-0.4v0.4v3.8h-1.9v-3.8V39h-0.4h-3.8V37h3.8h0.4v-0.4v-3.8h1.9v3.8V37h0.4h3.8V39z
					 M1235.3,39.4v-2.7h-4.2v-4.2h-2.7v4.2h-4.2v2.7h4.2v4.2h2.7v-4.2H1235.3z"/>
			</g>
			<g>
				<path fill="#AFAEAE" d="M1229.8,247.2c-7.1,0-12.8-5.8-12.8-12.9s5.7-12.8,12.8-12.8c7.1,0,12.8,5.8,12.8,12.8
					S1236.9,247.2,1229.8,247.2"/>
				<ellipse fill="none" stroke="#929292" stroke-miterlimit="10" cx="1229.8" cy="234.4" rx="12.8" ry="12.9"/>
				<path fill="#AFAEAE" d="M1229.8,243.8c-5.2,0-9.4-4.2-9.4-9.4c0-5.2,4.2-9.4,9.4-9.4c5.2,0,9.4,4.2,9.4,9.4
					C1239.2,239.6,1235,243.8,1229.8,243.8"/>
				<ellipse fill="none" stroke="#929292" stroke-miterlimit="10" cx="1229.8" cy="234.4" rx="9.4" ry="9.4"/>
				<g>
					<g>
						<defs>
							<rect id="SVGID_1604_" x="1220.9" y="225.5" width="17.8" height="17.8"/>
						</defs>
						<clipPath id="SVGID_297_">
							<use xlink:href="#SVGID_1604_"  overflow="visible"/>
						</clipPath>
						<path clip-path="url(#SVGID_297_)" fill="#BEBEBD" d="M1229.8,243.3c-4.9,0-8.9-4-8.9-8.9c0-4.9,4-8.9,8.9-8.9
							c4.9,0,8.9,4,8.9,8.9C1238.7,239.3,1234.7,243.3,1229.8,243.3"/>
						<path clip-path="url(#SVGID_297_)" fill="#C0C0C0" d="M1229.8,243.1c-4.8,0-8.7-3.9-8.7-8.7c0-4.8,3.9-8.7,8.7-8.7
							c4.8,0,8.7,3.9,8.7,8.7C1238.5,239.2,1234.6,243.1,1229.8,243.1"/>
						<path clip-path="url(#SVGID_297_)" fill="#C2C3C3" d="M1229.8,242.9c-4.7,0-8.5-3.8-8.5-8.5c0-4.7,3.8-8.5,8.5-8.5
							c4.7,0,8.5,3.8,8.5,8.5C1238.3,239.1,1234.5,242.9,1229.8,242.9"/>
						<path clip-path="url(#SVGID_297_)" fill="#C4C5C4" d="M1229.8,242.7c-4.6,0-8.3-3.7-8.3-8.3s3.7-8.3,8.3-8.3
							c4.6,0,8.3,3.7,8.3,8.3S1234.3,242.7,1229.8,242.7"/>
						<path clip-path="url(#SVGID_297_)" fill="#C6C8C8" d="M1229.8,242.4c-4.4,0-8.1-3.6-8.1-8.1s3.6-8.1,8.1-8.1
							c4.4,0,8.1,3.6,8.1,8.1S1234.2,242.4,1229.8,242.4"/>
						<path clip-path="url(#SVGID_297_)" fill="#C9CACB" d="M1229.8,242.2c-4.3,0-7.8-3.5-7.8-7.9c0-4.3,3.5-7.9,7.8-7.9
							c4.3,0,7.8,3.5,7.8,7.9C1237.6,238.7,1234.1,242.2,1229.8,242.2"/>
						<path clip-path="url(#SVGID_297_)" fill="#CBCDCD" d="M1229.8,242c-4.2,0-7.6-3.4-7.6-7.6c0-4.2,3.4-7.6,7.6-7.6
							c4.2,0,7.6,3.4,7.6,7.6C1237.4,238.6,1234,242,1229.8,242"/>
						<path clip-path="url(#SVGID_297_)" fill="#CCCFD0" d="M1229.8,241.8c-4.1,0-7.4-3.3-7.4-7.4c0-4.1,3.3-7.4,7.4-7.4
							c4.1,0,7.4,3.3,7.4,7.4C1237.2,238.5,1233.9,241.8,1229.8,241.8"/>
						<path clip-path="url(#SVGID_297_)" fill="#D0D2D2" d="M1229.8,241.6c-4,0-7.2-3.2-7.2-7.2c0-4,3.2-7.2,7.2-7.2
							c4,0,7.2,3.2,7.2,7.2C1237,238.4,1233.8,241.6,1229.8,241.6"/>
						<path clip-path="url(#SVGID_297_)" fill="#D2D4D5" d="M1229.8,241.4c-3.9,0-7-3.1-7-7s3.1-7,7-7c3.9,0,7,3.1,7,7
							S1233.7,241.4,1229.8,241.4"/>
					</g>
				</g>
				<polygon fill="#605F5E" points="1224.4,233.2 1228.6,233.2 1228.6,229 1230.9,229 1230.9,233.2 1235.1,233.2 1235.1,235.6 
					1230.9,235.6 1230.9,239.7 1228.6,239.7 1228.6,235.6 1224.4,235.6 				"/>
				<path fill="#221714" d="M1234.9,235.3h-3.8h-0.4v0.4v3.8h-1.9v-3.8v-0.4h-0.4h-3.8v-1.9h3.8h0.4V233v-3.8h1.9v3.8v0.4h0.4h3.8
					V235.3z M1235.3,235.7V233h-4.2v-4.2h-2.7v4.2h-4.2v2.7h4.2v4.2h2.7v-4.2H1235.3z"/>
			</g>
			<g>
				<g>
					<radialGradient id="SVGID_298_" cx="1193.1952" cy="48.4525" r="12.3796" gradientUnits="userSpaceOnUse">
						<stop  offset="0.6774" style="stop-color:#2B2B2B"/>
						<stop  offset="0.8441" style="stop-color:#595757"/>
						<stop  offset="1" style="stop-color:#000000"/>
					</radialGradient>
					<path fill="url(#SVGID_298_)" d="M1205.6,48.5c0,6.8-5.5,12.4-12.4,12.4c-6.8,0-12.4-5.5-12.4-12.4c0-6.8,5.5-12.4,12.4-12.4
						C1200,36.1,1205.6,41.6,1205.6,48.5"/>
					
						<ellipse fill="none" stroke="#131313" stroke-width="0.75" stroke-miterlimit="10" cx="1193.2" cy="48.5" rx="12.4" ry="12.4"/>
					<polygon fill="#0A0A0A" points="1191.7,55.5 1191.7,50 1186.2,50 1186.2,46.9 1191.7,46.9 1191.7,41.4 1194.7,41.4 
						1194.7,46.9 1200.2,46.9 1200.2,50 1194.7,50 1194.7,55.5 					"/>
					<path fill="#231815" d="M1194.5,41.7v5v0.5h0.5h5v2.5h-5h-0.5v0.5v5h-2.5v-5v-0.5h-0.5h-5v-2.5h5h0.5v-0.5v-5H1194.5z
						 M1195,41.2h-3.6v5.5h-5.5v3.6h5.5v5.5h3.6v-5.5h5.5v-3.6h-5.5V41.2z"/>
				</g>
				<rect x="1191.4" y="41.2" fill="#606060" width="0.5" height="6"/>
				<rect x="1185.9" y="46.7" fill="#606060" width="6" height="0.5"/>
				<rect x="1191.4" y="41.2" fill="#494949" width="3.6" height="0.5"/>
				<rect x="1185.9" y="46.7" fill="#545454" width="0.5" height="3.6"/>
			</g>
			<g>
				<g>
					<radialGradient id="SVGID_299_" cx="1193.1952" cy="232.047" r="12.3796" gradientUnits="userSpaceOnUse">
						<stop  offset="0.6774" style="stop-color:#2B2B2B"/>
						<stop  offset="0.8441" style="stop-color:#595757"/>
						<stop  offset="1" style="stop-color:#000000"/>
					</radialGradient>
					<path fill="url(#SVGID_299_)" d="M1205.6,232c0,6.8-5.5,12.4-12.4,12.4c-6.8,0-12.4-5.5-12.4-12.4c0-6.8,5.5-12.4,12.4-12.4
						C1200,219.7,1205.6,225.2,1205.6,232"/>
					<ellipse fill="none" stroke="#131313" stroke-width="0.75" stroke-miterlimit="10" cx="1193.2" cy="232" rx="12.4" ry="12.4"/>
					<polygon fill="#0A0A0A" points="1191.7,239.1 1191.7,233.6 1186.2,233.6 1186.2,230.5 1191.7,230.5 1191.7,225 1194.7,225 
						1194.7,230.5 1200.2,230.5 1200.2,233.6 1194.7,233.6 1194.7,239.1 					"/>
					<path fill="#231815" d="M1194.5,225.3v5v0.5h0.5h5v2.5h-5h-0.5v0.5v5h-2.5v-5v-0.5h-0.5h-5v-2.5h5h0.5v-0.5v-5H1194.5z
						 M1195,224.8h-3.6v5.5h-5.5v3.6h5.5v5.5h3.6v-5.5h5.5v-3.6h-5.5V224.8z"/>
				</g>
				<rect x="1191.4" y="224.8" fill="#606060" width="0.5" height="6"/>
				<rect x="1185.9" y="230.3" fill="#606060" width="6" height="0.5"/>
				<rect x="1191.4" y="224.8" fill="#494949" width="3.6" height="0.5"/>
				<rect x="1185.9" y="230.3" fill="#545454" width="0.5" height="3.6"/>
			</g>
			<g>
				<g>
					<radialGradient id="SVGID_300_" cx="1012.6829" cy="48.4525" r="12.3796" gradientUnits="userSpaceOnUse">
						<stop  offset="0.6774" style="stop-color:#2B2B2B"/>
						<stop  offset="0.8441" style="stop-color:#595757"/>
						<stop  offset="1" style="stop-color:#000000"/>
					</radialGradient>
					<path fill="url(#SVGID_300_)" d="M1025.1,48.5c0,6.8-5.5,12.4-12.4,12.4c-6.8,0-12.4-5.5-12.4-12.4c0-6.8,5.5-12.4,12.4-12.4
						C1019.5,36.1,1025.1,41.6,1025.1,48.5"/>
					
						<ellipse fill="none" stroke="#131313" stroke-width="0.75" stroke-miterlimit="10" cx="1012.7" cy="48.5" rx="12.4" ry="12.4"/>
					<polygon fill="#0A0A0A" points="1011.2,55.5 1011.2,50 1005.7,50 1005.7,46.9 1011.2,46.9 1011.2,41.4 1014.2,41.4 
						1014.2,46.9 1019.7,46.9 1019.7,50 1014.2,50 1014.2,55.5 					"/>
					<path fill="#231815" d="M1014,41.7v5v0.5h0.5h5v2.5h-5h-0.5v0.5v5h-2.5v-5v-0.5h-0.5h-5v-2.5h5h0.5v-0.5v-5H1014z M1014.5,41.2
						h-3.6v5.5h-5.5v3.6h5.5v5.5h3.6v-5.5h5.5v-3.6h-5.5V41.2z"/>
				</g>
				<rect x="1010.9" y="41.2" fill="#606060" width="0.5" height="6"/>
				<rect x="1005.4" y="46.7" fill="#606060" width="6" height="0.5"/>
				<rect x="1010.9" y="41.2" fill="#494949" width="3.6" height="0.5"/>
				<rect x="1005.4" y="46.7" fill="#545454" width="0.5" height="3.6"/>
			</g>
			<g>
				<g>
					<radialGradient id="SVGID_301_" cx="1012.6829" cy="232.047" r="12.3796" gradientUnits="userSpaceOnUse">
						<stop  offset="0.6774" style="stop-color:#2B2B2B"/>
						<stop  offset="0.8441" style="stop-color:#595757"/>
						<stop  offset="1" style="stop-color:#000000"/>
					</radialGradient>
					<path fill="url(#SVGID_301_)" d="M1025.1,232c0,6.8-5.5,12.4-12.4,12.4c-6.8,0-12.4-5.5-12.4-12.4c0-6.8,5.5-12.4,12.4-12.4
						C1019.5,219.7,1025.1,225.2,1025.1,232"/>
					<ellipse fill="none" stroke="#131313" stroke-width="0.75" stroke-miterlimit="10" cx="1012.7" cy="232" rx="12.4" ry="12.4"/>
					<polygon fill="#0A0A0A" points="1011.2,239.1 1011.2,233.6 1005.7,233.6 1005.7,230.5 1011.2,230.5 1011.2,225 1014.2,225 
						1014.2,230.5 1019.7,230.5 1019.7,233.6 1014.2,233.6 1014.2,239.1 					"/>
					<path fill="#231815" d="M1014,225.3v5v0.5h0.5h5v2.5h-5h-0.5v0.5v5h-2.5v-5v-0.5h-0.5h-5v-2.5h5h0.5v-0.5v-5H1014z
						 M1014.5,224.8h-3.6v5.5h-5.5v3.6h5.5v5.5h3.6v-5.5h5.5v-3.6h-5.5V224.8z"/>
				</g>
				<rect x="1010.9" y="224.8" fill="#606060" width="0.5" height="6"/>
				<rect x="1005.4" y="230.3" fill="#606060" width="6" height="0.5"/>
				<rect x="1010.9" y="224.8" fill="#494949" width="3.6" height="0.5"/>
				<rect x="1005.4" y="230.3" fill="#545454" width="0.5" height="3.6"/>
			</g>
			<path fill="#0B0909" d="M1161.8,234.7h-119.6c-13.3-13.3-20.7-20.7-34-34V81.1c13.3-13.3,20.7-20.7,34-34h119.6
				c13.3,13.3,20.7,20.7,34,34v119.6C1182.5,214,1175.1,221.4,1161.8,234.7z"/>
			<g>
				<ellipse fill="#0B0909" cx="1102" cy="140.9" rx="86.9" ry="86.9"/>
				<circle fill="#BBBBBB" cx="1102" cy="140.9" r="48.2"/>
				<g>
					
						<linearGradient id="SVGID_302_" gradientUnits="userSpaceOnUse" x1="541.8856" y1="-8043.9951" x2="675.9755" y2="-8043.9951" gradientTransform="matrix(0 1 -1 0 -6941.9629 -468.0434)">
						<stop  offset="0" style="stop-color:#FFFFFF"/>
						<stop  offset="0.1989" style="stop-color:#3E3A39"/>
						<stop  offset="0.4086" style="stop-color:#838383"/>
						<stop  offset="0.7581" style="stop-color:#717071"/>
						<stop  offset="1" style="stop-color:#C2C2C2"/>
					</linearGradient>
					<path fill="url(#SVGID_302_)" d="M1035,140.9c0-37,30.1-67,67-67c37,0,67,30.1,67,67c0,37-30.1,67-67,67
						C1065.1,207.9,1035,177.9,1035,140.9z M1163.9,140.9c0-34.1-27.8-61.9-61.9-61.9c-34.1,0-61.9,27.8-61.9,61.9
						c0,34.1,27.8,61.9,61.9,61.9C1136.2,202.8,1163.9,175,1163.9,140.9z"/>
				</g>
				<g>
					
						<linearGradient id="SVGID_303_" gradientUnits="userSpaceOnUse" x1="517.7707" y1="-8043.9971" x2="700.0905" y2="-8043.9971" gradientTransform="matrix(0 1 -1 0 -6941.9629 -468.0434)">
						<stop  offset="0" style="stop-color:#FFFFFF"/>
						<stop  offset="0.1989" style="stop-color:#3E3A39"/>
						<stop  offset="0.4086" style="stop-color:#838383"/>
						<stop  offset="0.7581" style="stop-color:#717071"/>
						<stop  offset="1" style="stop-color:#C2C2C2"/>
					</linearGradient>
					<path fill="url(#SVGID_303_)" d="M1010.9,140.9c0-50.3,40.9-91.2,91.2-91.2c50.3,0,91.2,40.9,91.2,91.2
						c0,50.3-40.9,91.2-91.2,91.2C1051.8,232,1010.9,191.2,1010.9,140.9z M1186.2,140.9c0-46.4-37.7-84.1-84.1-84.1
						c-46.4,0-84.1,37.7-84.1,84.1c0,46.4,37.7,84.1,84.1,84.1C1148.4,225,1186.2,187.3,1186.2,140.9z"/>
				</g>
				<g>
					<path fill="#474747" d="M1059.3,140.9c0-23.6,19.2-42.7,42.7-42.7c23.6,0,42.7,19.2,42.7,42.7c0,23.6-19.2,42.7-42.7,42.7
						C1078.5,183.6,1059.3,164.4,1059.3,140.9z M1139.8,140.9c0-20.8-17-37.8-37.8-37.8s-37.8,16.9-37.8,37.8
						c0,20.8,16.9,37.8,37.8,37.8S1139.8,161.7,1139.8,140.9z"/>
				</g>
				<g>
					
						<linearGradient id="SVGID_304_" gradientUnits="userSpaceOnUse" x1="564.2793" y1="-8043.9961" x2="653.5842" y2="-8043.9961" gradientTransform="matrix(0 1 -1 0 -6941.9629 -468.0434)">
						<stop  offset="0" style="stop-color:#FFFFFF"/>
						<stop  offset="0.1989" style="stop-color:#3E3A39"/>
						<stop  offset="0.4086" style="stop-color:#838383"/>
						<stop  offset="0.7581" style="stop-color:#717071"/>
						<stop  offset="1" style="stop-color:#C2C2C2"/>
					</linearGradient>
					<path fill="url(#SVGID_304_)" d="M1057.4,140.9c0-24.6,20-44.7,44.6-44.7c24.6,0,44.7,20,44.7,44.7c0,24.6-20,44.7-44.7,44.7
						C1077.4,185.5,1057.4,165.5,1057.4,140.9z M1141.5,140.9c0-21.8-17.7-39.5-39.5-39.5c-21.8,0-39.5,17.7-39.5,39.5
						c0,21.8,17.7,39.5,39.5,39.5C1123.8,180.4,1141.5,162.7,1141.5,140.9z"/>
				</g>
				<g>
					<path fill="#474747" d="M1035.4,90.6l4.4-2.7c17.6,28.3,37.1,42.8,58,43.2c36.7,0.6,66.3-42.8,66.6-43.2l4.3,2.9
						c-1.3,1.9-31.4,46.2-71,45.5C1074.9,135.8,1053.9,120.4,1035.4,90.6z"/>
				</g>
				<g>
					
						<linearGradient id="SVGID_305_" gradientUnits="userSpaceOnUse" x1="557.5414" y1="-8043.9712" x2="605.966" y2="-8043.9712" gradientTransform="matrix(0 1 -1 0 -6941.9629 -468.0434)">
						<stop  offset="0" style="stop-color:#FFFFFF"/>
						<stop  offset="0.1989" style="stop-color:#3E3A39"/>
						<stop  offset="0.4086" style="stop-color:#838383"/>
						<stop  offset="0.7581" style="stop-color:#717071"/>
						<stop  offset="1" style="stop-color:#C2C2C2"/>
					</linearGradient>
					<path fill="url(#SVGID_305_)" d="M1035.4,92.3l4.4-2.7c17.6,28.3,37.1,42.8,58,43.2c36.7,0.6,66.3-42.8,66.6-43.2l4.3,2.9
						c-1.3,1.9-31.4,46.2-71,45.5C1074.9,137.5,1053.9,122.2,1035.4,92.3z"/>
				</g>
				<g>
					<path fill="#474747" d="M1035.4,192.7c18.5-29.9,39.5-45.2,62.3-45.6c39.6-0.7,69.7,43.7,71,45.5l-4.3,2.9
						c-0.3-0.4-29.9-43.9-66.6-43.3c-20.9,0.4-40.4,14.9-58,43.2L1035.4,192.7z"/>
				</g>
				<g>
					
						<linearGradient id="SVGID_306_" gradientUnits="userSpaceOnUse" x1="-7076.252" y1="-8043.9712" x2="-7027.8257" y2="-8043.9712" gradientTransform="matrix(0 -1 -1 0 -6941.9629 -6882.5205)">
						<stop  offset="0" style="stop-color:#FFFFFF"/>
						<stop  offset="0.1989" style="stop-color:#3E3A39"/>
						<stop  offset="0.4086" style="stop-color:#838383"/>
						<stop  offset="0.7581" style="stop-color:#717071"/>
						<stop  offset="1" style="stop-color:#C2C2C2"/>
					</linearGradient>
					<path fill="url(#SVGID_306_)" d="M1035.4,190.9c18.5-29.9,39.5-45.2,62.3-45.6c39.6-0.7,69.7,43.7,71,45.5l-4.3,2.9
						c-0.3-0.4-29.9-43.9-66.6-43.3c-20.9,0.4-40.4,14.9-58,43.2L1035.4,190.9z"/>
				</g>
				<circle fill="#D2D2D2" cx="1102" cy="140.9" r="17.5"/>
			</g>
		</g>
	</g>
	<path fill="#231815" d="M926.3,58.2H333.8c-11.7,0-21.3-9.5-21.3-21.3V4.3h635V37C947.6,48.7,938,58.2,926.3,58.2z"/>
	<linearGradient id="SVGID_307_" gradientUnits="userSpaceOnUse" x1="630.0587" y1="53.912" x2="630.0587" y2="0">
		<stop  offset="0" style="stop-color:#717071"/>
		<stop  offset="5.944465e-02" style="stop-color:#6B6B6B"/>
		<stop  offset="0.1154" style="stop-color:#FFFFFF"/>
		<stop  offset="0.2469" style="stop-color:#ABAEAF"/>
		<stop  offset="0.8828" style="stop-color:#ABAEAF"/>
		<stop  offset="0.9662" style="stop-color:#FFFFFF"/>
		<stop  offset="1" style="stop-color:#717071"/>
	</linearGradient>
	<path fill="url(#SVGID_307_)" d="M926.3,53.9H333.8c-11.7,0-21.3-9.5-21.3-21.3V0h635v32.7C947.6,44.4,938,53.9,926.3,53.9z"/>
	<g>
		<g>
			<rect x="478.4" y="108.2" fill="#7E7770" width="37.1" height="47"/>
			<rect x="484.9" y="108.2" fill="#A39F9B" width="23.9" height="47"/>
			<rect x="487.9" y="110.8" fill="#302E2B" stroke="#CBCBCB" stroke-miterlimit="10" width="17.2" height="10.1"/>
			<rect x="487.9" y="142.6" fill="#302E2B" stroke="#CBCBCB" stroke-miterlimit="10" width="17.2" height="10.1"/>
			<polygon fill="#605851" points="501.2,127.6 491.8,127.6 490.7,123.7 502.3,123.7 			"/>
			<polygon fill="#6B6565" points="491.8,127.6 491.8,136.2 490.7,139.1 490.7,123.7 			"/>
			<polygon fill="#6B6565" points="501.2,136.2 501.2,127.6 502.3,123.7 502.3,139.1 			"/>
			<polygon fill="#C9C7C5" points="491.8,134.9 501.2,134.9 502.3,139.1 490.7,139.1 			"/>
			<rect x="491.8" y="127.6" fill="#302E2B" width="9.4" height="7.2"/>
		</g>
		<path fill="none" stroke="#302E2B" stroke-width="2" stroke-miterlimit="10" d="M513.9,181.3H334.5c-8.9,0-16.1-7.2-16.1-16.1
			V98.1c0-8.9,7.2-16.1,16.1-16.1h179.5c8.9,0,16.1,7.2,16.1,16.1v67.1C530,174.1,522.8,181.3,513.9,181.3z"/>
	</g>
	<g>
		<g>
			<rect x="884.8" y="108.2" fill="#7E7770" width="37.1" height="47"/>
			<rect x="891.3" y="108.2" fill="#A39F9B" width="23.9" height="47"/>
			<rect x="894.3" y="110.8" fill="#302E2B" stroke="#CBCBCB" stroke-miterlimit="10" width="17.2" height="10.1"/>
			<rect x="894.3" y="142.6" fill="#302E2B" stroke="#CBCBCB" stroke-miterlimit="10" width="17.2" height="10.1"/>
			<polygon fill="#605851" points="907.6,127.6 898.2,127.6 897.1,123.7 908.6,123.7 			"/>
			<polygon fill="#6B6565" points="898.2,127.6 898.2,136.2 897.1,139.1 897.1,123.7 			"/>
			<polygon fill="#6B6565" points="907.6,136.2 907.6,127.6 908.6,123.7 908.6,139.1 			"/>
			<polygon fill="#C9C7C5" points="898.2,134.9 907.6,134.9 908.6,139.1 897.1,139.1 			"/>
			<rect x="898.2" y="127.6" fill="#302E2B" width="9.4" height="7.2"/>
		</g>
		<path fill="none" stroke="#302E2B" stroke-width="2" stroke-miterlimit="10" d="M920.3,181.3H740.9c-8.9,0-16.1-7.2-16.1-16.1
			V98.1c0-8.9,7.2-16.1,16.1-16.1h179.5c8.9,0,16.1,7.2,16.1,16.1v67.1C936.4,174.1,929.2,181.3,920.3,181.3z"/>
	</g>
	<g>
		<g>
			<rect x="478.4" y="228.9" fill="#7E7770" width="37.1" height="47"/>
			<rect x="484.9" y="228.9" fill="#A39F9B" width="23.9" height="47"/>
			<rect x="487.9" y="231.4" fill="#302E2B" stroke="#CBCBCB" stroke-miterlimit="10" width="17.2" height="10.1"/>
			<rect x="487.9" y="263.2" fill="#302E2B" stroke="#CBCBCB" stroke-miterlimit="10" width="17.2" height="10.1"/>
			<polygon fill="#605851" points="501.2,248.2 491.8,248.2 490.7,244.3 502.3,244.3 			"/>
			<polygon fill="#6B6565" points="491.8,248.2 491.8,256.8 490.7,259.7 490.7,244.3 			"/>
			<polygon fill="#6B6565" points="501.2,256.8 501.2,248.2 502.3,244.3 502.3,259.7 			"/>
			<polygon fill="#C9C7C5" points="491.8,255.5 501.2,255.5 502.3,259.7 490.7,259.7 			"/>
			<rect x="491.8" y="248.2" fill="#302E2B" width="9.4" height="7.2"/>
		</g>
		<path fill="none" stroke="#302E2B" stroke-width="2" stroke-miterlimit="10" d="M513.9,301.9H334.5c-8.9,0-16.1-7.2-16.1-16.1
			v-67.1c0-8.9,7.2-16.1,16.1-16.1h179.5c8.9,0,16.1,7.2,16.1,16.1v67.1C530,294.7,522.8,301.9,513.9,301.9z"/>
	</g>
	<g>
		<g>
			<rect x="884.8" y="228.9" fill="#7E7770" width="37.1" height="47"/>
			<rect x="891.3" y="228.9" fill="#A39F9B" width="23.9" height="47"/>
			<rect x="894.3" y="231.4" fill="#302E2B" stroke="#CBCBCB" stroke-miterlimit="10" width="17.2" height="10.1"/>
			<rect x="894.3" y="263.2" fill="#302E2B" stroke="#CBCBCB" stroke-miterlimit="10" width="17.2" height="10.1"/>
			<polygon fill="#605851" points="907.6,248.2 898.2,248.2 897.1,244.3 908.6,244.3 			"/>
			<polygon fill="#6B6565" points="898.2,248.2 898.2,256.8 897.1,259.7 897.1,244.3 			"/>
			<polygon fill="#6B6565" points="907.6,256.8 907.6,248.2 908.6,244.3 908.6,259.7 			"/>
			<polygon fill="#C9C7C5" points="898.2,255.5 907.6,255.5 908.6,259.7 897.1,259.7 			"/>
			<rect x="898.2" y="248.2" fill="#302E2B" width="9.4" height="7.2"/>
		</g>
		<path fill="none" stroke="#302E2B" stroke-width="2" stroke-miterlimit="10" d="M920.3,301.9H740.9c-8.9,0-16.1-7.2-16.1-16.1
			v-67.1c0-8.9,7.2-16.1,16.1-16.1h179.5c8.9,0,16.1,7.2,16.1,16.1v67.1C936.4,294.7,929.2,301.9,920.3,301.9z"/>
	</g>
	<path fill="#D2D2D2" d="M683.8,301.9H564.3c-7.1,0-12.9-5.8-12.9-12.9V94.9c0-7.1,5.8-12.9,12.9-12.9h119.5
		c7.1,0,12.9,5.8,12.9,12.9V289C696.7,296.1,690.9,301.9,683.8,301.9z"/>
</g>
</svg>
