<?xml version="1.0" encoding="utf-8"?>
<!-- Generator: Adobe Illustrator 21.0.0, SVG Export Plug-In . SVG Version: 6.00 Build 0)  -->
<svg version="1.1" id="图层_1" xmlns="http://www.w3.org/2000/svg" xmlns:xlink="http://www.w3.org/1999/xlink" x="0px" y="0px"
	 width="1275.6px" height="126.1px" viewBox="0 0 1275.6 126.1" enable-background="new 0 0 1275.6 126.1" xml:space="preserve">
<g id="XMLID_18509_">
	<rect id="XMLID_28078_" x="1" y="1" fill="#2D2D2B" width="1273.6" height="124.1"/>
	<g id="XMLID_28074_">
		<path id="XMLID_28075_" d="M1273.6,2v122.1H2V2H1273.6 M1275.6,0H0v126.1h1275.6V0L1275.6,0z"/>
	</g>
</g>
<g id="XMLID_18477_">
	<g id="XMLID_18482_">
		<radialGradient id="XMLID_1003_" cx="337.1394" cy="12.7329" r="5.0477" gradientUnits="userSpaceOnUse">
			<stop  offset="0.6774" style="stop-color:#2B2B2B"/>
			<stop  offset="0.8441" style="stop-color:#595757"/>
			<stop  offset="1" style="stop-color:#000000"/>
		</radialGradient>
		<path id="XMLID_18488_" fill="url(#XMLID_1003_)" d="M342.2,12.7c0,2.8-2.3,5-5,5c-2.8,0-5-2.3-5-5c0-2.8,2.3-5,5-5
			C339.9,7.7,342.2,9.9,342.2,12.7"/>
		<circle id="XMLID_18487_" fill="none" stroke="#131313" stroke-width="0.75" stroke-miterlimit="10" cx="337.1" cy="12.7" r="5"/>
		<polygon id="XMLID_18486_" fill="#0A0A0A" points="336.5,15.6 336.5,13.4 334.3,13.4 334.3,12.1 336.5,12.1 336.5,9.9 337.8,9.9 
			337.8,12.1 340,12.1 340,13.4 337.8,13.4 337.8,15.6 		"/>
		<path id="XMLID_18483_" fill="#231815" d="M337.7,10v2v0.2h0.2h2v1h-2h-0.2v0.2v2h-1v-2v-0.2h-0.2h-2v-1h2h0.2V12v-2H337.7z
			 M337.9,9.8h-1.5V12h-2.2v1.5h2.2v2.2h1.5v-2.2h2.2V12h-2.2V9.8z"/>
	</g>
	<rect id="XMLID_18481_" x="336.4" y="9.8" fill="#606060" width="0.2" height="2.4"/>
	<rect id="XMLID_18480_" x="334.2" y="12" fill="#606060" width="2.4" height="0.2"/>
	<rect id="XMLID_18479_" x="336.4" y="9.8" fill="#494949" width="1.5" height="0.2"/>
	<rect id="XMLID_18478_" x="334.2" y="12" fill="#545454" width="0.2" height="1.5"/>
</g>
<g id="XMLID_18465_">
	<g id="XMLID_18470_">
		<radialGradient id="XMLID_1005_" cx="1003.3542" cy="13.5306" r="5.0477" gradientUnits="userSpaceOnUse">
			<stop  offset="0.6774" style="stop-color:#2B2B2B"/>
			<stop  offset="0.8441" style="stop-color:#595757"/>
			<stop  offset="1" style="stop-color:#000000"/>
		</radialGradient>
		<path id="XMLID_18476_" fill="url(#XMLID_1005_)" d="M1008.4,13.5c0,2.8-2.3,5-5,5c-2.8,0-5-2.3-5-5c0-2.8,2.3-5,5-5
			C1006.1,8.5,1008.4,10.7,1008.4,13.5"/>
		
			<circle id="XMLID_18475_" fill="none" stroke="#131313" stroke-width="0.75" stroke-miterlimit="10" cx="1003.4" cy="13.5" r="5"/>
		<polygon id="XMLID_18474_" fill="#0A0A0A" points="1002.7,16.4 1002.7,14.2 1000.5,14.2 1000.5,12.9 1002.7,12.9 1002.7,10.7 
			1004,10.7 1004,12.9 1006.2,12.9 1006.2,14.2 1004,14.2 1004,16.4 		"/>
		<path id="XMLID_18471_" fill="#231815" d="M1003.9,10.8v2V13h0.2h2v1h-2h-0.2v0.2v2h-1v-2V14h-0.2h-2v-1h2h0.2v-0.2v-2H1003.9z
			 M1004.1,10.6h-1.5v2.2h-2.2v1.5h2.2v2.2h1.5v-2.2h2.2v-1.5h-2.2V10.6z"/>
	</g>
	<rect id="XMLID_18469_" x="1002.6" y="10.6" fill="#606060" width="0.2" height="2.4"/>
	<rect id="XMLID_18468_" x="1000.4" y="12.8" fill="#606060" width="2.4" height="0.2"/>
	<rect id="XMLID_18467_" x="1002.6" y="10.6" fill="#494949" width="1.5" height="0.2"/>
	<rect id="XMLID_18466_" x="1000.4" y="12.8" fill="#545454" width="0.2" height="1.5"/>
</g>
<g id="XMLID_17265_">
	<g id="XMLID_17270_">
		<radialGradient id="XMLID_1006_" cx="1025.9388" cy="21.0718" r="5.0477" gradientUnits="userSpaceOnUse">
			<stop  offset="0.6774" style="stop-color:#2B2B2B"/>
			<stop  offset="0.8441" style="stop-color:#595757"/>
			<stop  offset="1" style="stop-color:#000000"/>
		</radialGradient>
		<path id="XMLID_17276_" fill="url(#XMLID_1006_)" d="M1031,21.1c0,2.8-2.3,5-5,5c-2.8,0-5-2.3-5-5c0-2.8,2.3-5,5-5
			C1028.7,16,1031,18.3,1031,21.1"/>
		
			<circle id="XMLID_17275_" fill="none" stroke="#131313" stroke-width="0.75" stroke-miterlimit="10" cx="1025.9" cy="21.1" r="5"/>
		<polygon id="XMLID_17274_" fill="#0A0A0A" points="1025.3,23.9 1025.3,21.7 1023.1,21.7 1023.1,20.4 1025.3,20.4 1025.3,18.2 
			1026.6,18.2 1026.6,20.4 1028.8,20.4 1028.8,21.7 1026.6,21.7 1026.6,23.9 		"/>
		<path id="XMLID_17271_" fill="#231815" d="M1026.5,18.3v2v0.2h0.2h2v1h-2h-0.2v0.2v2h-1v-2v-0.2h-0.2h-2v-1h2h0.2v-0.2v-2H1026.5z
			 M1026.7,18.1h-1.5v2.2h-2.2v1.5h2.2V24h1.5v-2.2h2.2v-1.5h-2.2V18.1z"/>
	</g>
	<rect id="XMLID_17269_" x="1025.2" y="18.1" fill="#606060" width="0.2" height="2.4"/>
	<rect id="XMLID_17268_" x="1023" y="20.3" fill="#606060" width="2.4" height="0.2"/>
	<rect id="XMLID_17267_" x="1025.2" y="18.1" fill="#494949" width="1.5" height="0.2"/>
	<rect id="XMLID_17266_" x="1023" y="20.3" fill="#545454" width="0.2" height="1.5"/>
</g>
<g id="XMLID_18393_">
	<g id="XMLID_18398_">
		<radialGradient id="XMLID_1008_" cx="18.8481" cy="68.3028" r="12.7683" gradientUnits="userSpaceOnUse">
			<stop  offset="0.6774" style="stop-color:#2B2B2B"/>
			<stop  offset="0.8441" style="stop-color:#595757"/>
			<stop  offset="1" style="stop-color:#000000"/>
		</radialGradient>
		<path id="XMLID_18404_" fill="url(#XMLID_1008_)" d="M31.6,68.3c0,7-5.7,12.8-12.8,12.8c-7.1,0-12.8-5.7-12.8-12.8
			c0-7.1,5.7-12.8,12.8-12.8C25.9,55.5,31.6,61.3,31.6,68.3"/>
		
			<ellipse id="XMLID_18403_" fill="none" stroke="#131313" stroke-width="0.75" stroke-miterlimit="10" cx="18.8" cy="68.3" rx="12.8" ry="12.8"/>
		<polygon id="XMLID_18402_" fill="#0A0A0A" points="17.3,75.5 17.3,69.9 11.6,69.9 11.6,66.7 17.3,66.7 17.3,61.1 20.4,61.1 
			20.4,66.7 26.1,66.7 26.1,69.9 20.4,69.9 20.4,75.5 		"/>
		<path id="XMLID_18399_" fill="#231815" d="M20.2,61.3v5.1V67h0.5h5.1v2.6h-5.1h-0.5v0.5v5.1h-2.6v-5.1v-0.5H17h-5.1V67H17h0.5
			v-0.5v-5.1H20.2z M20.7,60.8H17v5.7h-5.7v3.7H17v5.7h3.7v-5.7h5.7v-3.7h-5.7V60.8z"/>
	</g>
	<rect id="XMLID_18397_" x="17" y="60.8" fill="#606060" width="0.5" height="6.2"/>
	<rect id="XMLID_18396_" x="11.3" y="66.5" fill="#606060" width="6.2" height="0.5"/>
	<rect id="XMLID_18395_" x="17" y="60.8" fill="#494949" width="3.7" height="0.5"/>
	<rect id="XMLID_18394_" x="11.3" y="66.5" fill="#545454" width="0.5" height="3.7"/>
</g>
<path id="XMLID_18392_" fill="none" stroke="#070707" stroke-miterlimit="10" d="M0,12h324.7c1.3,0,2.3,1,2.3,2.3V19
	c0,1.3,1,2.3,2.3,2.3h15.4c1.3,0,2.3-1,2.3-2.3v-4.7c0-1.3,1-2.3,2.3-2.3h641.4c1.3,0,2.3,1,2.3,2.3V19c0,1.3,1,2.3,2.3,2.3h15.7
	c1.3,0,2.3-1,2.3-2.3v-4.7c0-1.3,1-2.3,2.3-2.3h260"/>
<g id="XMLID_2080_">
	<g id="XMLID_18453_">
		<g id="XMLID_18458_">
			<radialGradient id="XMLID_1009_" cx="587.2717" cy="26.7492" r="9.181" gradientUnits="userSpaceOnUse">
				<stop  offset="0.6774" style="stop-color:#2B2B2B"/>
				<stop  offset="0.8441" style="stop-color:#595757"/>
				<stop  offset="1" style="stop-color:#000000"/>
			</radialGradient>
			<path id="XMLID_18464_" fill="url(#XMLID_1009_)" d="M596.5,26.7c0,5.1-4.1,9.2-9.2,9.2c-5.1,0-9.2-4.1-9.2-9.2
				c0-5.1,4.1-9.2,9.2-9.2C592.3,17.6,596.5,21.7,596.5,26.7"/>
			
				<ellipse id="XMLID_18463_" fill="none" stroke="#131313" stroke-width="0.75" stroke-miterlimit="10" cx="587.3" cy="26.7" rx="9.2" ry="9.2"/>
			<polygon id="XMLID_18462_" fill="#0A0A0A" points="586.1,32 586.1,27.9 582.1,27.9 582.1,25.6 586.1,25.6 586.1,21.5 588.4,21.5 
				588.4,25.6 592.5,25.6 592.5,27.9 588.4,27.9 588.4,32 			"/>
			<path id="XMLID_18459_" fill="#231815" d="M588.2,21.7v3.7v0.4h0.4h3.7v1.9h-3.7h-0.4v0.4v3.7h-1.9v-3.7v-0.4h-0.4h-3.7v-1.9h3.7
				h0.4v-0.4v-3.7H588.2z M588.6,21.4h-2.7v4.1h-4.1v2.7h4.1v4.1h2.7v-4.1h4.1v-2.7h-4.1V21.4z"/>
		</g>
		<rect id="XMLID_18457_" x="585.9" y="21.4" fill="#606060" width="0.4" height="4.5"/>
		<rect id="XMLID_18456_" x="581.9" y="25.4" fill="#606060" width="4.5" height="0.4"/>
		<rect id="XMLID_18455_" x="585.9" y="21.4" fill="#494949" width="2.7" height="0.4"/>
		<rect id="XMLID_18454_" x="581.9" y="25.4" fill="#545454" width="0.4" height="2.7"/>
	</g>
	<g id="XMLID_18441_">
		<g id="XMLID_18446_">
			<radialGradient id="XMLID_1010_" cx="705.5303" cy="26.7492" r="9.181" gradientUnits="userSpaceOnUse">
				<stop  offset="0.6774" style="stop-color:#2B2B2B"/>
				<stop  offset="0.8441" style="stop-color:#595757"/>
				<stop  offset="1" style="stop-color:#000000"/>
			</radialGradient>
			<path id="XMLID_18452_" fill="url(#XMLID_1010_)" d="M714.7,26.7c0,5.1-4.1,9.2-9.2,9.2s-9.2-4.1-9.2-9.2c0-5.1,4.1-9.2,9.2-9.2
				S714.7,21.7,714.7,26.7"/>
			
				<ellipse id="XMLID_18451_" fill="none" stroke="#131313" stroke-width="0.75" stroke-miterlimit="10" cx="705.5" cy="26.7" rx="9.2" ry="9.2"/>
			<polygon id="XMLID_18450_" fill="#0A0A0A" points="704.4,32 704.4,27.9 700.3,27.9 700.3,25.6 704.4,25.6 704.4,21.5 706.7,21.5 
				706.7,25.6 710.7,25.6 710.7,27.9 706.7,27.9 706.7,32 			"/>
			<path id="XMLID_18447_" fill="#231815" d="M706.5,21.7v3.7v0.4h0.4h3.7v1.9h-3.7h-0.4v0.4v3.7h-1.9v-3.7v-0.4h-0.4h-3.7v-1.9h3.7
				h0.4v-0.4v-3.7H706.5z M706.9,21.4h-2.7v4.1h-4.1v2.7h4.1v4.1h2.7v-4.1h4.1v-2.7h-4.1V21.4z"/>
		</g>
		<rect id="XMLID_18445_" x="704.2" y="21.4" fill="#606060" width="0.4" height="4.5"/>
		<rect id="XMLID_18444_" x="700.1" y="25.4" fill="#606060" width="4.5" height="0.4"/>
		<rect id="XMLID_18443_" x="704.2" y="21.4" fill="#494949" width="2.7" height="0.4"/>
		<rect id="XMLID_18442_" x="700.1" y="25.4" fill="#545454" width="0.4" height="2.7"/>
	</g>
	<g id="XMLID_18429_">
		<g id="XMLID_18434_">
			<radialGradient id="XMLID_1011_" cx="587.2717" cy="108.6024" r="9.181" gradientUnits="userSpaceOnUse">
				<stop  offset="0.6774" style="stop-color:#2B2B2B"/>
				<stop  offset="0.8441" style="stop-color:#595757"/>
				<stop  offset="1" style="stop-color:#000000"/>
			</radialGradient>
			<path id="XMLID_18440_" fill="url(#XMLID_1011_)" d="M596.5,108.6c0,5.1-4.1,9.2-9.2,9.2c-5.1,0-9.2-4.1-9.2-9.2
				c0-5.1,4.1-9.2,9.2-9.2C592.3,99.4,596.5,103.5,596.5,108.6"/>
			
				<ellipse id="XMLID_18439_" fill="none" stroke="#131313" stroke-width="0.75" stroke-miterlimit="10" cx="587.3" cy="108.6" rx="9.2" ry="9.2"/>
			<polygon id="XMLID_18438_" fill="#0A0A0A" points="586.1,113.8 586.1,109.7 582.1,109.7 582.1,107.5 586.1,107.5 586.1,103.4 
				588.4,103.4 588.4,107.5 592.5,107.5 592.5,109.7 588.4,109.7 588.4,113.8 			"/>
			<path id="XMLID_18435_" fill="#231815" d="M588.2,103.6v3.7v0.4h0.4h3.7v1.9h-3.7h-0.4v0.4v3.7h-1.9v-3.7v-0.4h-0.4h-3.7v-1.9
				h3.7h0.4v-0.4v-3.7H588.2z M588.6,103.2h-2.7v4.1h-4.1v2.7h4.1v4.1h2.7v-4.1h4.1v-2.7h-4.1V103.2z"/>
		</g>
		<rect id="XMLID_18433_" x="585.9" y="103.2" fill="#606060" width="0.4" height="4.5"/>
		<rect id="XMLID_18432_" x="581.9" y="107.3" fill="#606060" width="4.5" height="0.4"/>
		<rect id="XMLID_18431_" x="585.9" y="103.2" fill="#494949" width="2.7" height="0.4"/>
		<rect id="XMLID_18430_" x="581.9" y="107.3" fill="#545454" width="0.4" height="2.7"/>
	</g>
	<g id="XMLID_18417_">
		<g id="XMLID_18422_">
			<radialGradient id="XMLID_1099_" cx="705.5303" cy="108.6024" r="9.181" gradientUnits="userSpaceOnUse">
				<stop  offset="0.6774" style="stop-color:#2B2B2B"/>
				<stop  offset="0.8441" style="stop-color:#595757"/>
				<stop  offset="1" style="stop-color:#000000"/>
			</radialGradient>
			<path id="XMLID_18428_" fill="url(#XMLID_1099_)" d="M714.7,108.6c0,5.1-4.1,9.2-9.2,9.2s-9.2-4.1-9.2-9.2c0-5.1,4.1-9.2,9.2-9.2
				S714.7,103.5,714.7,108.6"/>
			
				<ellipse id="XMLID_18427_" fill="none" stroke="#131313" stroke-width="0.75" stroke-miterlimit="10" cx="705.5" cy="108.6" rx="9.2" ry="9.2"/>
			<polygon id="XMLID_18426_" fill="#0A0A0A" points="704.4,113.8 704.4,109.7 700.3,109.7 700.3,107.5 704.4,107.5 704.4,103.4 
				706.7,103.4 706.7,107.5 710.7,107.5 710.7,109.7 706.7,109.7 706.7,113.8 			"/>
			<path id="XMLID_18423_" fill="#231815" d="M706.5,103.6v3.7v0.4h0.4h3.7v1.9h-3.7h-0.4v0.4v3.7h-1.9v-3.7v-0.4h-0.4h-3.7v-1.9
				h3.7h0.4v-0.4v-3.7H706.5z M706.9,103.2h-2.7v4.1h-4.1v2.7h4.1v4.1h2.7v-4.1h4.1v-2.7h-4.1V103.2z"/>
		</g>
		<rect id="XMLID_18421_" x="704.2" y="103.2" fill="#606060" width="0.4" height="4.5"/>
		<rect id="XMLID_18420_" x="700.1" y="107.3" fill="#606060" width="4.5" height="0.4"/>
		<rect id="XMLID_18419_" x="704.2" y="103.2" fill="#494949" width="2.7" height="0.4"/>
		<rect id="XMLID_18418_" x="700.1" y="107.3" fill="#545454" width="0.4" height="2.7"/>
	</g>
	<g id="XMLID_18387_">
		<circle id="XMLID_18391_" fill="#2B2B2B" cx="645.7" cy="68.6" r="35.5"/>
		<circle id="XMLID_18388_" fill="#ACABA6" cx="645.7" cy="68.6" r="28.9"/>
	</g>
	<g id="XMLID_18349_">
		<polygon id="XMLID_18386_" fill="#050001" points="617.2,24.7 623.5,21.1 629.7,24.7 629.7,31.9 623.5,35.5 617.2,31.9 		"/>
		<polygon id="XMLID_18385_" fill="#050001" points="633.9,24.7 640.1,21.1 646.3,24.7 646.3,31.9 640.1,35.5 633.9,31.9 		"/>
		<polygon id="XMLID_18384_" fill="#050001" points="608.9,38.2 615.2,34.6 621.4,38.2 621.4,45.4 615.2,49 608.9,45.4 		"/>
		<polygon id="XMLID_18383_" fill="#050001" points="625.5,38.2 631.8,34.6 638,38.2 638,45.4 631.8,49 625.5,45.4 		"/>
		<polygon id="XMLID_18382_" fill="#050001" points="642.2,38.2 648.4,34.6 654.6,38.2 654.6,45.4 648.4,49 642.2,45.4 		"/>
		<polygon id="XMLID_18381_" fill="#050001" points="600.6,51.4 606.9,47.8 613.1,51.4 613.1,58.7 606.9,62.3 600.6,58.7 		"/>
		<polygon id="XMLID_18380_" fill="#050001" points="617.2,51.4 623.5,47.8 629.7,51.4 629.7,58.7 623.5,62.3 617.2,58.7 		"/>
		<polygon id="XMLID_18379_" fill="#050001" points="633.9,51.4 640.1,47.8 646.3,51.4 646.3,58.7 640.1,62.3 633.9,58.7 		"/>
		<polygon id="XMLID_18378_" fill="#050001" points="592.3,65 598.6,61.4 604.8,65 604.8,72.2 598.6,75.8 592.3,72.2 		"/>
		<polygon id="XMLID_18377_" fill="#050001" points="608.9,65 615.2,61.4 621.4,65 621.4,72.2 615.2,75.8 608.9,72.2 		"/>
		<polygon id="XMLID_18376_" fill="#050001" points="625.5,65 631.8,61.4 638,65 638,72.2 631.8,75.8 625.5,72.2 		"/>
		<polygon id="XMLID_18375_" fill="#050001" points="642.2,65 648.4,61.4 654.6,65 654.6,72.2 648.4,75.8 642.2,72.2 		"/>
		<polygon id="XMLID_18374_" fill="#050001" points="600.6,78.2 606.9,74.6 613.1,78.2 613.1,85.4 606.9,89 600.6,85.4 		"/>
		<polygon id="XMLID_18373_" fill="#050001" points="617.2,78.2 623.5,74.6 629.7,78.2 629.7,85.4 623.5,89 617.2,85.4 		"/>
		<polygon id="XMLID_18372_" fill="#050001" points="633.9,78.2 640.1,74.6 646.3,78.2 646.3,85.4 640.1,89 633.9,85.4 		"/>
		<polygon id="XMLID_18371_" fill="#050001" points="608.9,91.8 615.2,88.2 621.4,91.8 621.4,99 615.2,102.6 608.9,99 		"/>
		<polygon id="XMLID_18370_" fill="#050001" points="625.5,91.8 631.8,88.2 638,91.8 638,99 631.8,102.6 625.5,99 		"/>
		<polygon id="XMLID_18369_" fill="#050001" points="642.2,91.8 648.4,88.2 654.6,91.8 654.6,99 648.4,102.6 642.2,99 		"/>
		<polygon id="XMLID_18368_" fill="#050001" points="617.2,105 623.5,101.4 629.7,105 629.7,112.2 623.5,115.8 617.2,112.2 		"/>
		<polygon id="XMLID_18367_" fill="#050001" points="633.9,105 640.1,101.4 646.3,105 646.3,112.2 640.1,115.8 633.9,112.2 		"/>
		<polygon id="XMLID_18366_" fill="#050001" points="650.5,24.7 656.8,21.1 663,24.7 663,31.9 656.8,35.5 650.5,31.9 		"/>
		<polygon id="XMLID_18365_" fill="#050001" points="658.8,38.2 665.1,34.6 671.3,38.2 671.3,45.4 665.1,49 658.8,45.4 		"/>
		<polygon id="XMLID_18364_" fill="#050001" points="650.5,51.4 656.8,47.8 663,51.4 663,58.7 656.8,62.3 650.5,58.7 		"/>
		<polygon id="XMLID_18363_" fill="#050001" points="658.8,65 665.1,61.4 671.3,65 671.3,72.2 665.1,75.8 658.8,72.2 		"/>
		<polygon id="XMLID_18362_" fill="#050001" points="650.5,78.2 656.8,74.6 663,78.2 663,85.4 656.8,89 650.5,85.4 		"/>
		<polygon id="XMLID_18361_" fill="#050001" points="658.8,91.8 665.1,88.2 671.3,91.8 671.3,99 665.1,102.6 658.8,99 		"/>
		<polygon id="XMLID_18360_" fill="#050001" points="650.5,105 656.8,101.4 663,105 663,112.2 656.8,115.8 650.5,112.2 		"/>
		<polygon id="XMLID_18359_" fill="#050001" points="667.2,24.7 673.4,21.1 679.7,24.7 679.7,31.9 673.4,35.5 667.2,31.9 		"/>
		<polygon id="XMLID_18358_" fill="#050001" points="675.5,38.2 681.7,34.6 688,38.2 688,45.4 681.7,49 675.5,45.4 		"/>
		<polygon id="XMLID_18357_" fill="#050001" points="667.2,51.4 673.4,47.8 679.7,51.4 679.7,58.7 673.4,62.3 667.2,58.7 		"/>
		<polygon id="XMLID_18356_" fill="#050001" points="675.5,65 681.7,61.4 688,65 688,72.2 681.7,75.8 675.5,72.2 		"/>
		<polygon id="XMLID_18355_" fill="#050001" points="667.2,78.2 673.4,74.6 679.7,78.2 679.7,85.4 673.4,89 667.2,85.4 		"/>
		<polygon id="XMLID_18354_" fill="#050001" points="675.5,91.8 681.7,88.2 688,91.8 688,99 681.7,102.6 675.5,99 		"/>
		<polygon id="XMLID_18353_" fill="#050001" points="667.2,105 673.4,101.4 679.7,105 679.7,112.2 673.4,115.8 667.2,112.2 		"/>
		<polygon id="XMLID_18352_" fill="#050001" points="683.9,51.4 690.1,47.8 696.3,51.4 696.3,58.7 690.1,62.3 683.9,58.7 		"/>
		<polygon id="XMLID_18351_" fill="#050001" points="692.2,65 698.4,61.4 704.7,65 704.7,72.2 698.4,75.8 692.2,72.2 		"/>
		<polygon id="XMLID_18350_" fill="#050001" points="683.9,78.2 690.1,74.6 696.3,78.2 696.3,85.4 690.1,89 683.9,85.4 		"/>
	</g>
</g>
<g id="XMLID_17136_">
	<g id="XMLID_17250_">
		<g id="XMLID_17255_">
			<radialGradient id="XMLID_1101_" cx="861.6844" cy="26.7492" r="9.181" gradientUnits="userSpaceOnUse">
				<stop  offset="0.6774" style="stop-color:#2B2B2B"/>
				<stop  offset="0.8441" style="stop-color:#595757"/>
				<stop  offset="1" style="stop-color:#000000"/>
			</radialGradient>
			<path id="XMLID_17261_" fill="url(#XMLID_1101_)" d="M870.9,26.7c0,5.1-4.1,9.2-9.2,9.2c-5.1,0-9.2-4.1-9.2-9.2
				c0-5.1,4.1-9.2,9.2-9.2C866.8,17.6,870.9,21.7,870.9,26.7"/>
			
				<ellipse id="XMLID_17260_" fill="none" stroke="#131313" stroke-width="0.75" stroke-miterlimit="10" cx="861.7" cy="26.7" rx="9.2" ry="9.2"/>
			<polygon id="XMLID_17259_" fill="#0A0A0A" points="860.5,32 860.5,27.9 856.5,27.9 856.5,25.6 860.5,25.6 860.5,21.5 862.8,21.5 
				862.8,25.6 866.9,25.6 866.9,27.9 862.8,27.9 862.8,32 			"/>
			<path id="XMLID_17256_" fill="#231815" d="M862.6,21.7v3.7v0.4h0.4h3.7v1.9H863h-0.4v0.4v3.7h-1.9v-3.7v-0.4h-0.4h-3.7v-1.9h3.7
				h0.4v-0.4v-3.7H862.6z M863,21.4h-2.7v4.1h-4.1v2.7h4.1v4.1h2.7v-4.1h4.1v-2.7H863V21.4z"/>
		</g>
		<rect id="XMLID_17254_" x="860.4" y="21.4" fill="#606060" width="0.4" height="4.5"/>
		<rect id="XMLID_17253_" x="856.3" y="25.4" fill="#606060" width="4.5" height="0.4"/>
		<rect id="XMLID_17252_" x="860.4" y="21.4" fill="#494949" width="2.7" height="0.4"/>
		<rect id="XMLID_17251_" x="856.3" y="25.4" fill="#545454" width="0.4" height="2.7"/>
	</g>
	<g id="XMLID_17238_">
		<g id="XMLID_17243_">
			<radialGradient id="XMLID_1102_" cx="979.943" cy="26.7492" r="9.181" gradientUnits="userSpaceOnUse">
				<stop  offset="0.6774" style="stop-color:#2B2B2B"/>
				<stop  offset="0.8441" style="stop-color:#595757"/>
				<stop  offset="1" style="stop-color:#000000"/>
			</radialGradient>
			<path id="XMLID_17249_" fill="url(#XMLID_1102_)" d="M989.1,26.7c0,5.1-4.1,9.2-9.2,9.2c-5.1,0-9.2-4.1-9.2-9.2
				c0-5.1,4.1-9.2,9.2-9.2C985,17.6,989.1,21.7,989.1,26.7"/>
			
				<ellipse id="XMLID_17248_" fill="none" stroke="#131313" stroke-width="0.75" stroke-miterlimit="10" cx="979.9" cy="26.7" rx="9.2" ry="9.2"/>
			<polygon id="XMLID_17247_" fill="#0A0A0A" points="978.8,32 978.8,27.9 974.7,27.9 974.7,25.6 978.8,25.6 978.8,21.5 981.1,21.5 
				981.1,25.6 985.2,25.6 985.2,27.9 981.1,27.9 981.1,32 			"/>
			<path id="XMLID_17244_" fill="#231815" d="M980.9,21.7v3.7v0.4h0.4h3.7v1.9h-3.7h-0.4v0.4v3.7H979v-3.7v-0.4h-0.4h-3.7v-1.9h3.7
				h0.4v-0.4v-3.7H980.9z M981.3,21.4h-2.7v4.1h-4.1v2.7h4.1v4.1h2.7v-4.1h4.1v-2.7h-4.1V21.4z"/>
		</g>
		<rect id="XMLID_17242_" x="978.6" y="21.4" fill="#606060" width="0.4" height="4.5"/>
		<rect id="XMLID_17241_" x="974.5" y="25.4" fill="#606060" width="4.5" height="0.4"/>
		<rect id="XMLID_17240_" x="978.6" y="21.4" fill="#494949" width="2.7" height="0.4"/>
		<rect id="XMLID_17239_" x="974.5" y="25.4" fill="#545454" width="0.4" height="2.7"/>
	</g>
	<g id="XMLID_17226_">
		<g id="XMLID_17231_">
			<radialGradient id="XMLID_1104_" cx="861.6844" cy="108.6024" r="9.181" gradientUnits="userSpaceOnUse">
				<stop  offset="0.6774" style="stop-color:#2B2B2B"/>
				<stop  offset="0.8441" style="stop-color:#595757"/>
				<stop  offset="1" style="stop-color:#000000"/>
			</radialGradient>
			<path id="XMLID_17237_" fill="url(#XMLID_1104_)" d="M870.9,108.6c0,5.1-4.1,9.2-9.2,9.2c-5.1,0-9.2-4.1-9.2-9.2
				c0-5.1,4.1-9.2,9.2-9.2C866.8,99.4,870.9,103.5,870.9,108.6"/>
			
				<ellipse id="XMLID_17236_" fill="none" stroke="#131313" stroke-width="0.75" stroke-miterlimit="10" cx="861.7" cy="108.6" rx="9.2" ry="9.2"/>
			<polygon id="XMLID_17235_" fill="#0A0A0A" points="860.5,113.8 860.5,109.7 856.5,109.7 856.5,107.5 860.5,107.5 860.5,103.4 
				862.8,103.4 862.8,107.5 866.9,107.5 866.9,109.7 862.8,109.7 862.8,113.8 			"/>
			<path id="XMLID_17232_" fill="#231815" d="M862.6,103.6v3.7v0.4h0.4h3.7v1.9H863h-0.4v0.4v3.7h-1.9v-3.7v-0.4h-0.4h-3.7v-1.9h3.7
				h0.4v-0.4v-3.7H862.6z M863,103.2h-2.7v4.1h-4.1v2.7h4.1v4.1h2.7v-4.1h4.1v-2.7H863V103.2z"/>
		</g>
		<rect id="XMLID_17230_" x="860.4" y="103.2" fill="#606060" width="0.4" height="4.5"/>
		<rect id="XMLID_17229_" x="856.3" y="107.3" fill="#606060" width="4.5" height="0.4"/>
		<rect id="XMLID_17228_" x="860.4" y="103.2" fill="#494949" width="2.7" height="0.4"/>
		<rect id="XMLID_17227_" x="856.3" y="107.3" fill="#545454" width="0.4" height="2.7"/>
	</g>
	<g id="XMLID_17214_">
		<g id="XMLID_17219_">
			<radialGradient id="XMLID_1105_" cx="979.943" cy="108.6024" r="9.181" gradientUnits="userSpaceOnUse">
				<stop  offset="0.6774" style="stop-color:#2B2B2B"/>
				<stop  offset="0.8441" style="stop-color:#595757"/>
				<stop  offset="1" style="stop-color:#000000"/>
			</radialGradient>
			<path id="XMLID_17225_" fill="url(#XMLID_1105_)" d="M989.1,108.6c0,5.1-4.1,9.2-9.2,9.2c-5.1,0-9.2-4.1-9.2-9.2
				c0-5.1,4.1-9.2,9.2-9.2C985,99.4,989.1,103.5,989.1,108.6"/>
			
				<ellipse id="XMLID_17224_" fill="none" stroke="#131313" stroke-width="0.75" stroke-miterlimit="10" cx="979.9" cy="108.6" rx="9.2" ry="9.2"/>
			<polygon id="XMLID_17223_" fill="#0A0A0A" points="978.8,113.8 978.8,109.7 974.7,109.7 974.7,107.5 978.8,107.5 978.8,103.4 
				981.1,103.4 981.1,107.5 985.2,107.5 985.2,109.7 981.1,109.7 981.1,113.8 			"/>
			<path id="XMLID_17220_" fill="#231815" d="M980.9,103.6v3.7v0.4h0.4h3.7v1.9h-3.7h-0.4v0.4v3.7H979v-3.7v-0.4h-0.4h-3.7v-1.9h3.7
				h0.4v-0.4v-3.7H980.9z M981.3,103.2h-2.7v4.1h-4.1v2.7h4.1v4.1h2.7v-4.1h4.1v-2.7h-4.1V103.2z"/>
		</g>
		<rect id="XMLID_17218_" x="978.6" y="103.2" fill="#606060" width="0.4" height="4.5"/>
		<rect id="XMLID_17217_" x="974.5" y="107.3" fill="#606060" width="4.5" height="0.4"/>
		<rect id="XMLID_17216_" x="978.6" y="103.2" fill="#494949" width="2.7" height="0.4"/>
		<rect id="XMLID_17215_" x="974.5" y="107.3" fill="#545454" width="0.4" height="2.7"/>
	</g>
	<g id="XMLID_17209_">
		<circle id="XMLID_17213_" fill="#2B2B2B" cx="920.1" cy="68.6" r="35.5"/>
		<circle id="XMLID_17210_" fill="#ACABA6" cx="920.1" cy="68.6" r="28.9"/>
	</g>
	<g id="XMLID_17139_">
		<polygon id="XMLID_17208_" fill="#050001" points="891.7,24.7 897.9,21.1 904.1,24.7 904.1,31.9 897.9,35.5 891.7,31.9 		"/>
		<polygon id="XMLID_17207_" fill="#050001" points="908.3,24.7 914.5,21.1 920.7,24.7 920.7,31.9 914.5,35.5 908.3,31.9 		"/>
		<polygon id="XMLID_17206_" fill="#050001" points="883.3,38.2 889.6,34.6 895.8,38.2 895.8,45.4 889.6,49 883.3,45.4 		"/>
		<polygon id="XMLID_17205_" fill="#050001" points="900,38.2 906.2,34.6 912.4,38.2 912.4,45.4 906.2,49 900,45.4 		"/>
		<polygon id="XMLID_17204_" fill="#050001" points="916.6,38.2 922.8,34.6 929.1,38.2 929.1,45.4 922.8,49 916.6,45.4 		"/>
		<polygon id="XMLID_17203_" fill="#050001" points="875,51.4 881.3,47.8 887.5,51.4 887.5,58.7 881.3,62.3 875,58.7 		"/>
		<polygon id="XMLID_17202_" fill="#050001" points="891.7,51.4 897.9,47.8 904.1,51.4 904.1,58.7 897.9,62.3 891.7,58.7 		"/>
		<polygon id="XMLID_17201_" fill="#050001" points="908.3,51.4 914.5,47.8 920.7,51.4 920.7,58.7 914.5,62.3 908.3,58.7 		"/>
		<polygon id="XMLID_17200_" fill="#050001" points="866.7,65 873,61.4 879.2,65 879.2,72.2 873,75.8 866.7,72.2 		"/>
		<polygon id="XMLID_17199_" fill="#050001" points="883.3,65 889.6,61.4 895.8,65 895.8,72.2 889.6,75.8 883.3,72.2 		"/>
		<polygon id="XMLID_17198_" fill="#050001" points="900,65 906.2,61.4 912.4,65 912.4,72.2 906.2,75.8 900,72.2 		"/>
		<polygon id="XMLID_17197_" fill="#050001" points="916.6,65 922.8,61.4 929.1,65 929.1,72.2 922.8,75.8 916.6,72.2 		"/>
		<polygon id="XMLID_17196_" fill="#050001" points="875,78.2 881.3,74.6 887.5,78.2 887.5,85.4 881.3,89 875,85.4 		"/>
		<polygon id="XMLID_17195_" fill="#050001" points="891.7,78.2 897.9,74.6 904.1,78.2 904.1,85.4 897.9,89 891.7,85.4 		"/>
		<polygon id="XMLID_17194_" fill="#050001" points="908.3,78.2 914.5,74.6 920.7,78.2 920.7,85.4 914.5,89 908.3,85.4 		"/>
		<polygon id="XMLID_17193_" fill="#050001" points="883.3,91.8 889.6,88.2 895.8,91.8 895.8,99 889.6,102.6 883.3,99 		"/>
		<polygon id="XMLID_17192_" fill="#050001" points="900,91.8 906.2,88.2 912.4,91.8 912.4,99 906.2,102.6 900,99 		"/>
		<polygon id="XMLID_17191_" fill="#050001" points="916.6,91.8 922.8,88.2 929.1,91.8 929.1,99 922.8,102.6 916.6,99 		"/>
		<polygon id="XMLID_17190_" fill="#050001" points="891.7,105 897.9,101.4 904.1,105 904.1,112.2 897.9,115.8 891.7,112.2 		"/>
		<polygon id="XMLID_17189_" fill="#050001" points="908.3,105 914.5,101.4 920.7,105 920.7,112.2 914.5,115.8 908.3,112.2 		"/>
		<polygon id="XMLID_17188_" fill="#050001" points="924.9,24.7 931.2,21.1 937.4,24.7 937.4,31.9 931.2,35.5 924.9,31.9 		"/>
		<polygon id="XMLID_17187_" fill="#050001" points="933.2,38.2 939.5,34.6 945.7,38.2 945.7,45.4 939.5,49 933.2,45.4 		"/>
		<polygon id="XMLID_17186_" fill="#050001" points="924.9,51.4 931.2,47.8 937.4,51.4 937.4,58.7 931.2,62.3 924.9,58.7 		"/>
		<polygon id="XMLID_17185_" fill="#050001" points="933.2,65 939.5,61.4 945.7,65 945.7,72.2 939.5,75.8 933.2,72.2 		"/>
		<polygon id="XMLID_17184_" fill="#050001" points="924.9,78.2 931.2,74.6 937.4,78.2 937.4,85.4 931.2,89 924.9,85.4 		"/>
		<polygon id="XMLID_17183_" fill="#050001" points="933.2,91.8 939.5,88.2 945.7,91.8 945.7,99 939.5,102.6 933.2,99 		"/>
		<polygon id="XMLID_17182_" fill="#050001" points="924.9,105 931.2,101.4 937.4,105 937.4,112.2 931.2,115.8 924.9,112.2 		"/>
		<polygon id="XMLID_17181_" fill="#050001" points="941.6,24.7 947.9,21.1 954.1,24.7 954.1,31.9 947.9,35.5 941.6,31.9 		"/>
		<polygon id="XMLID_17180_" fill="#050001" points="949.9,38.2 956.2,34.6 962.4,38.2 962.4,45.4 956.2,49 949.9,45.4 		"/>
		<polygon id="XMLID_17179_" fill="#050001" points="941.6,51.4 947.9,47.8 954.1,51.4 954.1,58.7 947.9,62.3 941.6,58.7 		"/>
		<polygon id="XMLID_17178_" fill="#050001" points="949.9,65 956.2,61.4 962.4,65 962.4,72.2 956.2,75.8 949.9,72.2 		"/>
		<polygon id="XMLID_17177_" fill="#050001" points="941.6,78.2 947.9,74.6 954.1,78.2 954.1,85.4 947.9,89 941.6,85.4 		"/>
		<polygon id="XMLID_17176_" fill="#050001" points="949.9,91.8 956.2,88.2 962.4,91.8 962.4,99 956.2,102.6 949.9,99 		"/>
		<polygon id="XMLID_17175_" fill="#050001" points="941.6,105 947.9,101.4 954.1,105 954.1,112.2 947.9,115.8 941.6,112.2 		"/>
		<polygon id="XMLID_17174_" fill="#050001" points="958.3,51.4 964.5,47.8 970.8,51.4 970.8,58.7 964.5,62.3 958.3,58.7 		"/>
		<polygon id="XMLID_17173_" fill="#050001" points="966.6,65 972.8,61.4 979.1,65 979.1,72.2 972.8,75.8 966.6,72.2 		"/>
		<polygon id="XMLID_17172_" fill="#050001" points="958.3,78.2 964.5,74.6 970.8,78.2 970.8,85.4 964.5,89 958.3,85.4 		"/>
	</g>
</g>
<g id="XMLID_2084_">
	<path id="XMLID_2912_" fill="#3D3A39" d="M1086.2,32.8c1.4,0,2.5,1.3,2.5,2.8v65.6c0,1.6-1.1,2.8-2.5,2.8h-43.7
		c-1.4,0-2.5-1.3-2.5-2.8V35.7c0-1.6,1.1-2.8,2.5-2.8H1086.2z"/>
	<path id="XMLID_2910_" fill="none" stroke="#000000" stroke-width="2" stroke-miterlimit="10" d="M1086.2,32.8
		c1.4,0,2.5,1.3,2.5,2.8v65.6c0,1.6-1.1,2.8-2.5,2.8h-43.7c-1.4,0-2.5-1.3-2.5-2.8V35.7c0-1.6,1.1-2.8,2.5-2.8H1086.2z"/>
	<polygon id="XMLID_2095_" fill="#221714" points="1080.4,93 1056.3,93 1048.3,83.7 1048.3,52.9 1056.7,43.9 1080.4,43.9 	"/>
	<rect id="XMLID_2093_" x="1062.5" y="54" fill="#353741" width="9.1" height="3.1"/>
	<rect id="XMLID_2092_" x="1064.1" y="55.6" fill="#8B8F99" width="7.5" height="1.6"/>
	<rect id="XMLID_2090_" x="1056.8" y="67.6" fill="#353741" width="9.1" height="3.1"/>
	<rect id="XMLID_2089_" x="1058.4" y="69.2" fill="#8B8F99" width="7.5" height="1.6"/>
	<rect id="XMLID_2087_" x="1062.5" y="81.2" fill="#353741" width="9.1" height="3.1"/>
	<rect id="XMLID_2086_" x="1064.1" y="82.7" fill="#8B8F99" width="7.5" height="1.6"/>
</g>
<path id="XMLID_17128_" fill="none" stroke="#050505" stroke-miterlimit="10" d="M838.7,104.6H727.8c-4.4,0-7.9-3.5-7.9-7.9V35.2
	c0-4.4,3.5-7.9,7.9-7.9h110.9c4.4,0,7.9,3.5,7.9,7.9v61.5C846.7,101,843.1,104.6,838.7,104.6z"/>
<circle id="XMLID_17262_" fill="#050505" cx="738.7" cy="66" r="4.3"/>
<circle id="XMLID_17264_" fill="#050505" cx="825.1" cy="66" r="4.3"/>
<circle id="XMLID_17638_" fill="#1E1E1E" cx="112.2" cy="70.3" r="4.3"/>
<circle id="XMLID_17637_" fill="#1E1E1E" cx="299.1" cy="70.3" r="4.3"/>
<rect id="XMLID_17277_" x="1093.6" y="13.4" fill="#9AA89B" width="162.5" height="110.2"/>
<g id="XMLID_17321_">
	<defs>
		<circle id="XMLID_17322_" cx="1192.5" cy="68.5" r="46.4"/>
	</defs>
	<clipPath id="XMLID_1106_">
		<use xlink:href="#XMLID_17322_"  overflow="visible"/>
	</clipPath>
	<g id="XMLID_17323_" clip-path="url(#XMLID_1106_)">
		<polygon id="XMLID_18082_" fill="#161616" points="1161.4,24.5 1167.6,20.9 1173.8,24.5 1173.8,31.7 1167.6,35.3 1161.4,31.7 		
			"/>
		<polygon id="XMLID_18081_" fill="#161616" points="1178,24.5 1184.2,20.9 1190.5,24.5 1190.5,31.7 1184.2,35.3 1178,31.7 		"/>
		<polygon id="XMLID_18080_" fill="#161616" points="1153.1,38.1 1159.3,34.5 1165.5,38.1 1165.5,45.3 1159.3,48.9 1153.1,45.3 		
			"/>
		<polygon id="XMLID_18079_" fill="#161616" points="1169.7,38.1 1175.9,34.5 1182.2,38.1 1182.2,45.3 1175.9,48.9 1169.7,45.3 		
			"/>
		<polygon id="XMLID_18078_" fill="#161616" points="1186.3,38.1 1192.5,34.5 1198.8,38.1 1198.8,45.3 1192.5,48.9 1186.3,45.3 		
			"/>
		<polygon id="XMLID_18077_" fill="#161616" points="1144.8,51.3 1151,47.7 1157.2,51.3 1157.2,58.5 1151,62.1 1144.8,58.5 		"/>
		<polygon id="XMLID_18076_" fill="#161616" points="1161.4,51.3 1167.6,47.7 1173.8,51.3 1173.8,58.5 1167.6,62.1 1161.4,58.5 		
			"/>
		<polygon id="XMLID_18075_" fill="#161616" points="1178,51.3 1184.2,47.7 1190.5,51.3 1190.5,58.5 1184.2,62.1 1178,58.5 		"/>
		<polygon id="XMLID_18074_" fill="#161616" points="1136.4,64.9 1142.7,61.3 1148.9,64.9 1148.9,72.1 1142.7,75.7 1136.4,72.1 		
			"/>
		<polygon id="XMLID_18073_" fill="#161616" points="1153.1,64.9 1159.3,61.3 1165.5,64.9 1165.5,72.1 1159.3,75.7 1153.1,72.1 		
			"/>
		<polygon id="XMLID_18072_" fill="#161616" points="1169.7,64.9 1175.9,61.3 1182.2,64.9 1182.2,72.1 1175.9,75.7 1169.7,72.1 		
			"/>
		<polygon id="XMLID_18071_" fill="#161616" points="1186.3,64.9 1192.5,61.3 1198.8,64.9 1198.8,72.1 1192.5,75.7 1186.3,72.1 		
			"/>
		<polygon id="XMLID_18070_" fill="#161616" points="1144.8,78.1 1151,74.5 1157.2,78.1 1157.2,85.3 1151,88.9 1144.8,85.3 		"/>
		<polygon id="XMLID_18069_" fill="#161616" points="1161.4,78.1 1167.6,74.5 1173.8,78.1 1173.8,85.3 1167.6,88.9 1161.4,85.3 		
			"/>
		<polygon id="XMLID_18068_" fill="#161616" points="1178,78.1 1184.2,74.5 1190.5,78.1 1190.5,85.3 1184.2,88.9 1178,85.3 		"/>
		<polygon id="XMLID_18067_" fill="#161616" points="1153.1,91.6 1159.3,88 1165.5,91.6 1165.5,98.8 1159.3,102.4 1153.1,98.8 		"/>
		<polygon id="XMLID_18066_" fill="#161616" points="1169.7,91.6 1175.9,88 1182.2,91.6 1182.2,98.8 1175.9,102.4 1169.7,98.8 		"/>
		<polygon id="XMLID_18065_" fill="#161616" points="1186.3,91.6 1192.5,88 1198.8,91.6 1198.8,98.8 1192.5,102.4 1186.3,98.8 		"/>
		<polygon id="XMLID_18064_" fill="#161616" points="1161.4,104.9 1167.6,101.3 1173.8,104.9 1173.8,112.1 1167.6,115.7 
			1161.4,112.1 		"/>
		<polygon id="XMLID_18063_" fill="#161616" points="1178,104.9 1184.2,101.3 1190.5,104.9 1190.5,112.1 1184.2,115.7 1178,112.1 		
			"/>
		<polygon id="XMLID_18062_" fill="#161616" points="1194.7,24.5 1200.9,20.9 1207.1,24.5 1207.1,31.7 1200.9,35.3 1194.7,31.7 		
			"/>
		<polygon id="XMLID_18061_" fill="#161616" points="1203,38.1 1209.2,34.5 1215.4,38.1 1215.4,45.3 1209.2,48.9 1203,45.3 		"/>
		<polygon id="XMLID_18060_" fill="#161616" points="1194.7,51.3 1200.9,47.7 1207.1,51.3 1207.1,58.5 1200.9,62.1 1194.7,58.5 		
			"/>
		<polygon id="XMLID_18059_" fill="#161616" points="1203,64.9 1209.2,61.3 1215.4,64.9 1215.4,72.1 1209.2,75.7 1203,72.1 		"/>
		<polygon id="XMLID_18058_" fill="#161616" points="1194.7,78.1 1200.9,74.5 1207.1,78.1 1207.1,85.3 1200.9,88.9 1194.7,85.3 		
			"/>
		<polygon id="XMLID_18057_" fill="#161616" points="1203,91.6 1209.2,88 1215.4,91.6 1215.4,98.8 1209.2,102.4 1203,98.8 		"/>
		<polygon id="XMLID_18056_" fill="#161616" points="1194.7,104.9 1200.9,101.3 1207.1,104.9 1207.1,112.1 1200.9,115.7 
			1194.7,112.1 		"/>
		<polygon id="XMLID_18055_" fill="#161616" points="1211.3,24.5 1217.6,20.9 1223.8,24.5 1223.8,31.7 1217.6,35.3 1211.3,31.7 		
			"/>
		<polygon id="XMLID_18054_" fill="#161616" points="1219.6,38.1 1225.9,34.5 1232.1,38.1 1232.1,45.3 1225.9,48.9 1219.6,45.3 		
			"/>
		<polygon id="XMLID_18053_" fill="#161616" points="1211.3,51.3 1217.6,47.7 1223.8,51.3 1223.8,58.5 1217.6,62.1 1211.3,58.5 		
			"/>
		<polygon id="XMLID_18052_" fill="#161616" points="1219.6,64.9 1225.9,61.3 1232.1,64.9 1232.1,72.1 1225.9,75.7 1219.6,72.1 		
			"/>
		<polygon id="XMLID_18051_" fill="#161616" points="1211.3,78.1 1217.6,74.5 1223.8,78.1 1223.8,85.3 1217.6,88.9 1211.3,85.3 		
			"/>
		<polygon id="XMLID_18050_" fill="#161616" points="1219.6,91.6 1225.9,88 1232.1,91.6 1232.1,98.8 1225.9,102.4 1219.6,98.8 		"/>
		<polygon id="XMLID_18049_" fill="#161616" points="1211.3,104.9 1217.6,101.3 1223.8,104.9 1223.8,112.1 1217.6,115.7 
			1211.3,112.1 		"/>
		<polygon id="XMLID_18048_" fill="#161616" points="1228,51.3 1234.2,47.7 1240.5,51.3 1240.5,58.5 1234.2,62.1 1228,58.5 		"/>
		<polygon id="XMLID_18047_" fill="#161616" points="1236.3,64.9 1242.5,61.3 1248.8,64.9 1248.8,72.1 1242.5,75.7 1236.3,72.1 		
			"/>
		<polygon id="XMLID_18046_" fill="#161616" points="1228,78.1 1234.2,74.5 1240.5,78.1 1240.5,85.3 1234.2,88.9 1228,85.3 		"/>
	</g>
</g>
<g id="XMLID_17278_">
	<g id="XMLID_17283_">
		<radialGradient id="XMLID_1109_" cx="1149.3196" cy="24.038" r="5.0477" gradientUnits="userSpaceOnUse">
			<stop  offset="0.6774" style="stop-color:#2B2B2B"/>
			<stop  offset="0.8441" style="stop-color:#595757"/>
			<stop  offset="1" style="stop-color:#000000"/>
		</radialGradient>
		<path id="XMLID_17289_" fill="url(#XMLID_1109_)" d="M1154.4,24c0,2.8-2.3,5-5,5s-5-2.3-5-5c0-2.8,2.3-5,5-5
			S1154.4,21.3,1154.4,24"/>
		<circle id="XMLID_17288_" fill="none" stroke="#131313" stroke-width="0.75" stroke-miterlimit="10" cx="1149.3" cy="24" r="5"/>
		<polygon id="XMLID_17287_" fill="#0A0A0A" points="1148.7,26.9 1148.7,24.7 1146.5,24.7 1146.5,23.4 1148.7,23.4 1148.7,21.2 
			1149.9,21.2 1149.9,23.4 1152.2,23.4 1152.2,24.7 1149.9,24.7 1149.9,26.9 		"/>
		<path id="XMLID_17284_" fill="#231815" d="M1149.8,21.3v2v0.2h0.2h2v1h-2h-0.2v0.2v2h-1v-2v-0.2h-0.2h-2v-1h2h0.2v-0.2v-2H1149.8z
			 M1150,21.1h-1.5v2.2h-2.2v1.5h2.2V27h1.5v-2.2h2.2v-1.5h-2.2V21.1z"/>
	</g>
	<rect id="XMLID_17282_" x="1148.6" y="21.1" fill="#606060" width="0.2" height="2.4"/>
	<rect id="XMLID_17281_" x="1146.4" y="23.3" fill="#606060" width="2.4" height="0.2"/>
	<rect id="XMLID_17280_" x="1148.6" y="21.1" fill="#494949" width="1.5" height="0.2"/>
	<rect id="XMLID_17279_" x="1146.4" y="23.3" fill="#545454" width="0.2" height="1.5"/>
</g>
<g id="XMLID_17290_">
	<g id="XMLID_17295_">
		<radialGradient id="XMLID_1112_" cx="1235.1541" cy="24.038" r="5.0477" gradientUnits="userSpaceOnUse">
			<stop  offset="0.6774" style="stop-color:#2B2B2B"/>
			<stop  offset="0.8441" style="stop-color:#595757"/>
			<stop  offset="1" style="stop-color:#000000"/>
		</radialGradient>
		<path id="XMLID_17301_" fill="url(#XMLID_1112_)" d="M1240.2,24c0,2.8-2.3,5-5,5s-5-2.3-5-5c0-2.8,2.3-5,5-5
			S1240.2,21.3,1240.2,24"/>
		<circle id="XMLID_17300_" fill="none" stroke="#131313" stroke-width="0.75" stroke-miterlimit="10" cx="1235.2" cy="24" r="5"/>
		<polygon id="XMLID_17299_" fill="#0A0A0A" points="1234.5,26.9 1234.5,24.7 1232.3,24.7 1232.3,23.4 1234.5,23.4 1234.5,21.2 
			1235.8,21.2 1235.8,23.4 1238,23.4 1238,24.7 1235.8,24.7 1235.8,26.9 		"/>
		<path id="XMLID_17296_" fill="#231815" d="M1235.7,21.3v2v0.2h0.2h2v1h-2h-0.2v0.2v2h-1v-2v-0.2h-0.2h-2v-1h2h0.2v-0.2v-2H1235.7z
			 M1235.9,21.1h-1.5v2.2h-2.2v1.5h2.2V27h1.5v-2.2h2.2v-1.5h-2.2V21.1z"/>
	</g>
	<rect id="XMLID_17294_" x="1234.4" y="21.1" fill="#606060" width="0.2" height="2.4"/>
	<rect id="XMLID_17293_" x="1232.2" y="23.3" fill="#606060" width="2.4" height="0.2"/>
	<rect id="XMLID_17292_" x="1234.4" y="21.1" fill="#494949" width="1.5" height="0.2"/>
	<rect id="XMLID_17291_" x="1232.2" y="23.3" fill="#545454" width="0.2" height="1.5"/>
</g>
<g id="XMLID_17314_">
	<g id="XMLID_17628_">
		<radialGradient id="XMLID_1165_" cx="1149.3196" cy="109.1026" r="5.0477" gradientUnits="userSpaceOnUse">
			<stop  offset="0.6774" style="stop-color:#2B2B2B"/>
			<stop  offset="0.8441" style="stop-color:#595757"/>
			<stop  offset="1" style="stop-color:#000000"/>
		</radialGradient>
		<path id="XMLID_17634_" fill="url(#XMLID_1165_)" d="M1154.4,109.1c0,2.8-2.3,5-5,5s-5-2.3-5-5c0-2.8,2.3-5,5-5
			S1154.4,106.3,1154.4,109.1"/>
		
			<circle id="XMLID_17633_" fill="none" stroke="#131313" stroke-width="0.75" stroke-miterlimit="10" cx="1149.3" cy="109.1" r="5"/>
		<polygon id="XMLID_17632_" fill="#0A0A0A" points="1148.7,112 1148.7,109.7 1146.5,109.7 1146.5,108.5 1148.7,108.5 1148.7,106.2 
			1149.9,106.2 1149.9,108.5 1152.2,108.5 1152.2,109.7 1149.9,109.7 1149.9,112 		"/>
		<path id="XMLID_17629_" fill="#231815" d="M1149.8,106.3v2v0.2h0.2h2v1h-2h-0.2v0.2v2h-1v-2v-0.2h-0.2h-2v-1h2h0.2v-0.2v-2H1149.8
			z M1150,106.1h-1.5v2.2h-2.2v1.5h2.2v2.2h1.5v-2.2h2.2v-1.5h-2.2V106.1z"/>
	</g>
	<rect id="XMLID_17326_" x="1148.6" y="106.1" fill="#606060" width="0.2" height="2.4"/>
	<rect id="XMLID_17325_" x="1146.4" y="108.4" fill="#606060" width="2.4" height="0.2"/>
	<rect id="XMLID_17324_" x="1148.6" y="106.1" fill="#494949" width="1.5" height="0.2"/>
	<rect id="XMLID_17315_" x="1146.4" y="108.4" fill="#545454" width="0.2" height="1.5"/>
</g>
<g id="XMLID_17302_">
	<g id="XMLID_17307_">
		<radialGradient id="XMLID_1224_" cx="1235.1541" cy="109.1026" r="5.0477" gradientUnits="userSpaceOnUse">
			<stop  offset="0.6774" style="stop-color:#2B2B2B"/>
			<stop  offset="0.8441" style="stop-color:#595757"/>
			<stop  offset="1" style="stop-color:#000000"/>
		</radialGradient>
		<path id="XMLID_17313_" fill="url(#XMLID_1224_)" d="M1240.2,109.1c0,2.8-2.3,5-5,5s-5-2.3-5-5c0-2.8,2.3-5,5-5
			S1240.2,106.3,1240.2,109.1"/>
		
			<circle id="XMLID_17312_" fill="none" stroke="#131313" stroke-width="0.75" stroke-miterlimit="10" cx="1235.2" cy="109.1" r="5"/>
		<polygon id="XMLID_17311_" fill="#0A0A0A" points="1234.5,112 1234.5,109.7 1232.3,109.7 1232.3,108.5 1234.5,108.5 1234.5,106.2 
			1235.8,106.2 1235.8,108.5 1238,108.5 1238,109.7 1235.8,109.7 1235.8,112 		"/>
		<path id="XMLID_17308_" fill="#231815" d="M1235.7,106.3v2v0.2h0.2h2v1h-2h-0.2v0.2v2h-1v-2v-0.2h-0.2h-2v-1h2h0.2v-0.2v-2H1235.7
			z M1235.9,106.1h-1.5v2.2h-2.2v1.5h2.2v2.2h1.5v-2.2h2.2v-1.5h-2.2V106.1z"/>
	</g>
	<rect id="XMLID_17306_" x="1234.4" y="106.1" fill="#606060" width="0.2" height="2.4"/>
	<rect id="XMLID_17305_" x="1232.2" y="108.4" fill="#606060" width="2.4" height="0.2"/>
	<rect id="XMLID_17304_" x="1234.4" y="106.1" fill="#494949" width="1.5" height="0.2"/>
	<rect id="XMLID_17303_" x="1232.2" y="108.4" fill="#545454" width="0.2" height="1.5"/>
</g>
<rect id="XMLID_17263_" x="3.2" y="17.8" fill="none" stroke="#161616" stroke-miterlimit="10" width="319" height="104.6"/>
<line id="XMLID_17636_" fill="none" stroke="#161616" stroke-miterlimit="10" x1="93.2" y1="17.8" x2="93.2" y2="122.4"/>
<text id="XMLID_18155_" transform="matrix(1 0 0 1 464.3549 115.8064)" fill="#CCCECC" font-family="'MicrosoftYaHei'" font-size="7px">USB</text>
<text id="XMLID_18160_" transform="matrix(1 0 0 1 464.3549 57.2253)" fill="#CCCECC" font-family="'MicrosoftYaHei'" font-size="7px">USB</text>
<text id="XMLID_18191_" transform="matrix(1 0 0 1 519.0219 81.8269)" fill="#CCCECC" font-family="'MicrosoftYaHei'" font-size="7px">PWR</text>
<text id="XMLID_18161_" transform="matrix(1 0 0 1 382.2314 62.2556)" fill="#CCCECC" font-family="'MicrosoftYaHei'" font-size="7px">COM2</text>
<text id="XMLID_18162_" transform="matrix(1 0 0 1 386.2316 113.6169)" fill="#CCCECC" font-family="'MicrosoftYaHei'" font-size="7px">VGA</text>
<g id="XMLID_18188_">
	<defs>
		<rect id="SVGID_51_" x="510.5" y="21.7" width="30.3" height="48.5"/>
	</defs>
	<clipPath id="SVGID_111_">
		<use xlink:href="#SVGID_51_"  overflow="visible"/>
	</clipPath>
	
		<linearGradient id="XMLID_1225_" gradientUnits="userSpaceOnUse" x1="2915.9009" y1="4937.9941" x2="2916.7122" y2="4937.9941" gradientTransform="matrix(0 -79.8244 -79.8244 0 394698.0625 232839.0156)">
		<stop  offset="0" style="stop-color:#103580"/>
		<stop  offset="0.2581" style="stop-color:#0C1D4C"/>
		<stop  offset="1" style="stop-color:#000021"/>
	</linearGradient>
	<rect id="XMLID_18189_" x="510.5" y="21.7" clip-path="url(#SVGID_111_)" fill="url(#XMLID_1225_)" width="30.3" height="48.5"/>
</g>
<g id="XMLID_18186_">
	<defs>
		<path id="SVGID_50_" d="M510.4,22.9v47.4c0,0.2,0.1,0.4,0.1,0.4h30.9c0.1,0,0.1-0.2,0.1-0.4V22.9c0-0.2-0.1-0.4-0.1-0.4l-30.9,0
			C510.5,22.5,510.4,22.7,510.4,22.9"/>
	</defs>
	<clipPath id="SVGID_112_">
		<use xlink:href="#SVGID_50_"  overflow="visible"/>
	</clipPath>
	
		<linearGradient id="XMLID_1226_" gradientUnits="userSpaceOnUse" x1="2787.5432" y1="4827.1704" x2="2788.3547" y2="4827.1704" gradientTransform="matrix(0 58.6222 58.6222 0 -282453.375 -163388.9063)">
		<stop  offset="0" style="stop-color:#2E2624"/>
		<stop  offset="1" style="stop-color:#342E2C"/>
	</linearGradient>
	<rect id="XMLID_18187_" x="510.4" y="22.5" clip-path="url(#SVGID_112_)" fill="url(#XMLID_1226_)" width="31.2" height="48.2"/>
</g>
<path id="XMLID_18183_" d="M540.5,69.9h-29.1V23.3h29.1V69.9z M541.5,21.7h-31c-0.6,0-1.1,0.5-1.1,1.2v47.4c0,0.7,0.5,1.2,1.1,1.2
	h31c0.6,0,1.1-0.5,1.1-1.2V22.9C542.6,22.2,542.1,21.7,541.5,21.7"/>
<path id="XMLID_18182_" fill="#030303" d="M536.9,63.5c0,0.5-0.3,0.8-0.7,0.8h-20.5c-0.4,0-0.7-0.4-0.7-0.8V29.7
	c0-0.5,0.3-0.8,0.7-0.8h20.5c0.4,0,0.7,0.4,0.7,0.8V63.5z"/>
<g id="XMLID_18180_">
	<defs>
		<path id="SVGID_49_" d="M517.1,31.2c-0.4,0-0.6,0.3-0.6,0.7v4.7h19v-4.7c0-0.4-0.3-0.7-0.6-0.7H517.1z"/>
	</defs>
	<clipPath id="SVGID_113_">
		<use xlink:href="#SVGID_49_"  overflow="visible"/>
	</clipPath>
	
		<linearGradient id="XMLID_1287_" gradientUnits="userSpaceOnUse" x1="2669.5813" y1="4725.4858" x2="2669.8672" y2="4725.4858" gradientTransform="matrix(0 22.6221 22.6221 0 -106374.4375 -60358.0664)">
		<stop  offset="0" style="stop-color:#261C19"/>
		<stop  offset="1" style="stop-color:#514E4E"/>
	</linearGradient>
	<rect id="XMLID_18181_" x="516.5" y="31.2" clip-path="url(#SVGID_113_)" fill="url(#XMLID_1287_)" width="19" height="5.4"/>
</g>
<path id="XMLID_18179_" fill="#050505" d="M516.5,36.6v24.7c0,0.4,0.3,0.7,0.6,0.7h17.8c0.3,0,0.6-0.3,0.6-0.7V36.6H516.5z"/>
<path id="XMLID_18178_" fill="#121212" d="M516.5,36.6v24.7c0,0.4,0.3,0.7,0.6,0.7h17.8c0.3,0,0.6-0.3,0.6-0.7V36.6H516.5z"/>
<rect id="XMLID_18177_" x="516.5" y="36.6" fill="#030303" width="19" height="0.6"/>
<path id="XMLID_18141_" fill="#D6D6D6" d="M526,58.9c-2.1,0-3.8-1.7-3.8-3.8c0-2.1,1.7-3.8,3.8-3.8c2.1,0,3.8,1.7,3.8,3.8
	C529.8,57.2,528.1,58.9,526,58.9z M526,53c-1.2,0-2.2,1-2.2,2.2c0,1.2,1,2.2,2.2,2.2c1.2,0,2.2-1,2.2-2.2C528.1,54,527.2,53,526,53z
	"/>
<path id="XMLID_18190_" fill="none" stroke="#000000" stroke-miterlimit="10" d="M543.1,119.7H358.6c-3.3,0-6-2.7-6-6V23.6
	c0-3.3,2.7-6,6-6h184.5c3.3,0,6,2.7,6,6v90.1C549.1,117,546.4,119.7,543.1,119.7z"/>
<rect id="XMLID_18192_" x="1243.5" y="12" fill="#2D2D2B" stroke="#000000" stroke-miterlimit="10" width="30" height="17.1"/>
</svg>
