<?xml version="1.0" encoding="utf-8"?>
<!-- Generator: Adobe Illustrator 16.0.0, SVG Export Plug-In . SVG Version: 6.00 Build 0)  -->
<!DOCTYPE svg PUBLIC "-//W3C//DTD SVG 1.1//EN" "http://www.w3.org/Graphics/SVG/1.1/DTD/svg11.dtd">
<svg version="1.1" id="图层_1" xmlns="http://www.w3.org/2000/svg" xmlns:xlink="http://www.w3.org/1999/xlink" x="0px" y="0px"
	 width="1417.32px" height="504.57px" viewBox="0 0 1417.32 504.57" enable-background="new 0 0 1417.32 504.57"
	 xml:space="preserve">
<g>
	<g>
		<rect x="-0.001" y="0.002" fill="#353535" width="1417.322" height="504.566"/>
		<g>
			
				<linearGradient id="SVGID_1_" gradientUnits="userSpaceOnUse" x1="-4226.584" y1="-724.6621" x2="-4226.584" y2="-778.4785" gradientTransform="matrix(0 1 -1 0 -724.6631 4478.8691)">
				<stop  offset="0" style="stop-color:#343535"/>
				<stop  offset="0.7778" style="stop-color:#343535"/>
				<stop  offset="0.8835" style="stop-color:#636666"/>
				<stop  offset="1" style="stop-color:#030000"/>
			</linearGradient>
			<rect x="-0.001" y="0.002" fill="url(#SVGID_1_)" width="53.816" height="504.566"/>
			<rect x="53.815" y="0.002" width="2.834" height="504.566"/>
		</g>
		<g>
			
				<linearGradient id="SVGID_2_" gradientUnits="userSpaceOnUse" x1="-4226.5835" y1="3424.3047" x2="-4226.5835" y2="3370.4873" gradientTransform="matrix(0 1 1 0 -2006.9834 4478.8691)">
				<stop  offset="0" style="stop-color:#343535"/>
				<stop  offset="0.7778" style="stop-color:#343535"/>
				<stop  offset="0.8835" style="stop-color:#636666"/>
				<stop  offset="1" style="stop-color:#030000"/>
			</linearGradient>
			<rect x="1363.504" y="0.002" fill="url(#SVGID_2_)" width="53.816" height="504.566"/>
			<rect x="1360.67" y="0.002" width="2.834" height="504.566"/>
		</g>
	</g>
	<g>
		<polygon fill="#0C0C0C" points="944.08,153.168 1018.891,78.574 1215.064,78.574 1289.869,153.168 1289.869,348.777 
			1215.064,423.369 1018.891,423.369 944.08,348.777 		"/>
		
			<radialGradient id="SVGID_3_" cx="-5795.1846" cy="2797.2148" r="100.9017" gradientTransform="matrix(0 1 -1.0219 0 3975.4487 6046.1572)" gradientUnits="userSpaceOnUse">
			<stop  offset="0" style="stop-color:#898989"/>
			<stop  offset="0.4247" style="stop-color:#F7F8F8"/>
			<stop  offset="1" style="stop-color:#B5B5B6"/>
		</radialGradient>
		
			<ellipse fill="none" stroke="url(#SVGID_3_)" stroke-width="5.6693" stroke-miterlimit="10" cx="1116.975" cy="250.973" rx="100.215" ry="98.066"/>
		
			<radialGradient id="SVGID_4_" cx="-5795.1855" cy="2797.2148" r="137.1966" gradientTransform="matrix(0 1 -1.0219 0 3975.4487 6046.1572)" gradientUnits="userSpaceOnUse">
			<stop  offset="0" style="stop-color:#898989"/>
			<stop  offset="0.4247" style="stop-color:#F7F8F8"/>
			<stop  offset="1" style="stop-color:#B5B5B6"/>
		</radialGradient>
		<path fill="none" stroke="url(#SVGID_4_)" stroke-width="5.6693" stroke-miterlimit="10" d="M1116.975,385.332
			c-75.836,0-137.306-60.152-137.306-134.359s61.47-134.361,137.306-134.361c75.833,0,137.305,60.154,137.305,134.361
			S1192.808,385.332,1116.975,385.332z"/>
		
			<radialGradient id="SVGID_5_" cx="-5795.1846" cy="2797.2158" r="176.2269" gradientTransform="matrix(0 1 -1.0219 0 3975.4487 6046.1572)" gradientUnits="userSpaceOnUse">
			<stop  offset="0" style="stop-color:#898989"/>
			<stop  offset="0.4247" style="stop-color:#F7F8F8"/>
			<stop  offset="1" style="stop-color:#B5B5B6"/>
		</radialGradient>
		<path fill="none" stroke="url(#SVGID_5_)" stroke-width="5.6693" stroke-miterlimit="10" d="M1116.975,424.363
			c-97.863,0-177.191-77.631-177.191-173.391c0-95.762,79.328-173.391,177.191-173.391c97.861,0,177.189,77.629,177.189,173.391
			C1294.164,346.732,1214.836,424.363,1116.975,424.363z"/>
		
			<radialGradient id="SVGID_6_" cx="-5795.1846" cy="2797.2168" r="52.9891" gradientTransform="matrix(0 1 -1.0219 0 3975.4487 6046.1572)" gradientUnits="userSpaceOnUse">
			<stop  offset="0" style="stop-color:#898989"/>
			<stop  offset="0.4247" style="stop-color:#F7F8F8"/>
			<stop  offset="1" style="stop-color:#B5B5B6"/>
		</radialGradient>
		
			<ellipse fill="none" stroke="url(#SVGID_6_)" stroke-width="5.6693" stroke-miterlimit="10" cx="1116.975" cy="250.973" rx="51.255" ry="50.154"/>
		
			<radialGradient id="SVGID_7_" cx="-5629.6553" cy="2628.0234" r="0" gradientTransform="matrix(0 1 -1.0219 0 3975.4487 6046.1572)" gradientUnits="userSpaceOnUse">
			<stop  offset="0" style="stop-color:#898989"/>
			<stop  offset="0.4247" style="stop-color:#F7F8F8"/>
			<stop  offset="1" style="stop-color:#B5B5B6"/>
		</radialGradient>
		<path fill="none" stroke="url(#SVGID_7_)" stroke-width="5.6693" stroke-miterlimit="10" d="M1289.871,416.502"/>
		
			<radialGradient id="SVGID_8_" cx="-5967.583" cy="2623.8203" r="0" gradientTransform="matrix(0 1 -1.0219 0 3975.4487 6046.1572)" gradientUnits="userSpaceOnUse">
			<stop  offset="0" style="stop-color:#898989"/>
			<stop  offset="0.4247" style="stop-color:#F7F8F8"/>
			<stop  offset="1" style="stop-color:#B5B5B6"/>
		</radialGradient>
		<path fill="none" stroke="url(#SVGID_8_)" stroke-width="5.6693" stroke-miterlimit="10" d="M1294.166,78.574"/>
		<g>
			<g>
				
					<radialGradient id="SVGID_9_" cx="-5795.166" cy="2707.585" r="136.1487" gradientTransform="matrix(0 1 -1.0219 0 3975.4487 6046.1572)" gradientUnits="userSpaceOnUse">
					<stop  offset="0" style="stop-color:#898989"/>
					<stop  offset="0.4247" style="stop-color:#F7F8F8"/>
					<stop  offset="1" style="stop-color:#B5B5B6"/>
				</radialGradient>
				<path fill="none" stroke="url(#SVGID_9_)" stroke-width="5.6693" stroke-miterlimit="10" d="M1289.871,78.574l-149.979,149.045
					c0,0-26.541,23.609,0,52.533l149.303,143.221"/>
				<g>
					<path fill="#AFAEAE" d="M1299.594,421.602c0,9.461-8.385,17.131-18.727,17.131c-10.345,0-18.73-7.67-18.73-17.131
						c0-9.463,8.386-17.135,18.73-17.135C1291.209,404.467,1299.594,412.139,1299.594,421.602"/>
					<path fill="none" stroke="#929292" stroke-miterlimit="10" d="M1299.594,421.602c0,9.461-8.385,17.131-18.727,17.131
						c-10.345,0-18.73-7.67-18.73-17.131c0-9.463,8.386-17.135,18.73-17.135C1291.209,404.467,1299.594,412.139,1299.594,421.602z"
						/>
					<path fill="#AFAEAE" d="M1294.626,421.602c0,6.951-6.161,12.586-13.759,12.586c-7.604,0-13.765-5.635-13.765-12.586
						c0-6.953,6.161-12.59,13.765-12.59C1288.465,409.012,1294.626,414.648,1294.626,421.602"/>
					<path fill="none" stroke="#929292" stroke-miterlimit="10" d="M1294.626,421.602c0,6.951-6.161,12.586-13.759,12.586
						c-7.604,0-13.765-5.635-13.765-12.586c0-6.953,6.161-12.59,13.765-12.59C1288.465,409.012,1294.626,414.648,1294.626,421.602z"
						/>
					<g>
						<g>
							<defs>
								<rect id="SVGID_10_" x="1267.894" y="409.736" width="25.943" height="23.725"/>
							</defs>
							<clipPath id="SVGID_11_">
								<use xlink:href="#SVGID_10_"  overflow="visible"/>
							</clipPath>
							<path clip-path="url(#SVGID_11_)" fill="#BEBEBD" d="M1293.837,421.602c0,6.551-5.81,11.859-12.97,11.859
								c-7.166,0-12.974-5.309-12.974-11.859c0-6.553,5.808-11.865,12.974-11.865
								C1288.027,409.736,1293.837,415.049,1293.837,421.602"/>
							<path clip-path="url(#SVGID_11_)" fill="#C0C0C0" d="M1293.531,421.602c0,6.395-5.676,11.582-12.664,11.582
								c-6.997,0-12.664-5.188-12.664-11.582c0-6.398,5.667-11.588,12.664-11.588
								C1287.855,410.014,1293.531,415.203,1293.531,421.602"/>
							<path clip-path="url(#SVGID_11_)" fill="#C2C3C3" d="M1293.225,421.602c0,6.24-5.537,11.305-12.357,11.305
								c-6.828,0-12.361-5.064-12.361-11.305c0-6.246,5.533-11.309,12.361-11.309
								C1287.688,410.293,1293.225,415.355,1293.225,421.602"/>
							<path clip-path="url(#SVGID_11_)" fill="#C4C5C4" d="M1292.916,421.602c0,6.088-5.393,11.025-12.049,11.025
								c-6.659,0-12.059-4.938-12.059-11.025c0-6.092,5.399-11.027,12.059-11.027
								C1287.523,410.574,1292.916,415.51,1292.916,421.602"/>
							<path clip-path="url(#SVGID_11_)" fill="#C6C8C8" d="M1292.611,421.602c0,5.932-5.262,10.746-11.744,10.746
								c-6.49,0-11.752-4.814-11.752-10.746c0-5.936,5.262-10.75,11.752-10.75C1287.35,410.852,1292.611,415.666,1292.611,421.602"
								/>
							<path clip-path="url(#SVGID_11_)" fill="#C9CACB" d="M1292.31,421.602c0,5.779-5.123,10.465-11.442,10.465
								c-6.322,0-11.446-4.686-11.446-10.465c0-5.783,5.124-10.471,11.446-10.471C1287.187,411.131,1292.31,415.818,1292.31,421.602
								"/>
							<path clip-path="url(#SVGID_11_)" fill="#CBCDCD" d="M1292.003,421.602c0,5.623-4.987,10.191-11.136,10.191
								c-6.154,0-11.142-4.568-11.142-10.191c0-5.629,4.987-10.193,11.142-10.193
								C1287.016,411.408,1292.003,415.973,1292.003,421.602"/>
							<path clip-path="url(#SVGID_11_)" fill="#CCCFD0" d="M1291.699,421.602c0,5.471-4.854,9.91-10.832,9.91
								c-5.986,0-10.838-4.439-10.838-9.91c0-5.475,4.852-9.912,10.838-9.912C1286.846,411.689,1291.699,416.127,1291.699,421.602"
								/>
							<path clip-path="url(#SVGID_11_)" fill="#D0D2D2" d="M1291.394,421.602c0,5.316-4.716,9.629-10.526,9.629
								c-5.818,0-10.532-4.313-10.532-9.629c0-5.322,4.714-9.635,10.532-9.635C1286.678,411.967,1291.394,416.279,1291.394,421.602"
								/>
							<path clip-path="url(#SVGID_11_)" fill="#D2D4D5" d="M1291.09,421.602c0,5.162-4.58,9.35-10.223,9.35
								c-5.652,0-10.225-4.188-10.225-9.35c0-5.168,4.572-9.352,10.225-9.352C1286.51,412.25,1291.09,416.434,1291.09,421.602"/>
						</g>
					</g>
					<polygon fill="#605F5E" points="1279.171,428.732 1279.171,423.152 1273.066,423.152 1273.066,420.049 1279.171,420.049 
						1279.171,414.467 1282.561,414.467 1282.561,420.049 1288.662,420.049 1288.662,423.152 1282.561,423.152 1282.561,428.732 
											"/>
					<path fill="#221714" d="M1282.266,414.734v5.047v0.539h0.586h5.518v2.559h-5.518h-0.586v0.537v5.045h-2.801v-5.045v-0.537
						h-0.586h-5.521v-2.559h5.521h0.586v-0.539v-5.047H1282.266z M1282.852,414.197h-3.973v5.584h-6.106v3.635h6.106v5.582h3.973
						v-5.582h6.105v-3.635h-6.105V414.197z"/>
				</g>
			</g>
			<g>
				<path fill="#AFAEAE" d="M1299.594,82.055c0,9.459-8.389,17.129-18.73,17.129c-10.341,0-18.727-7.67-18.727-17.129
					c0-9.463,8.386-17.135,18.727-17.135C1291.205,64.92,1299.594,72.592,1299.594,82.055"/>
				<path fill="none" stroke="#929292" stroke-miterlimit="10" d="M1299.594,82.055c0,9.459-8.389,17.129-18.73,17.129
					c-10.341,0-18.727-7.67-18.727-17.129c0-9.463,8.386-17.135,18.727-17.135C1291.205,64.92,1299.594,72.592,1299.594,82.055z"/>
				<path fill="#AFAEAE" d="M1294.624,82.055c0,6.949-6.161,12.586-13.761,12.586s-13.766-5.637-13.766-12.586
					c0-6.953,6.166-12.592,13.766-12.592S1294.624,75.102,1294.624,82.055"/>
				<path fill="none" stroke="#929292" stroke-miterlimit="10" d="M1294.624,82.055c0,6.949-6.161,12.586-13.761,12.586
					s-13.766-5.637-13.766-12.586c0-6.953,6.166-12.592,13.766-12.592S1294.624,75.102,1294.624,82.055z"/>
				<g>
					<g>
						<defs>
							<rect id="SVGID_12_" x="1267.891" y="70.188" width="25.943" height="23.727"/>
						</defs>
						<clipPath id="SVGID_13_">
							<use xlink:href="#SVGID_12_"  overflow="visible"/>
						</clipPath>
						<path clip-path="url(#SVGID_13_)" fill="#BEBEBD" d="M1293.834,82.055c0,6.551-5.809,11.859-12.971,11.859
							c-7.164,0-12.973-5.309-12.973-11.859c0-6.553,5.809-11.867,12.973-11.867C1288.025,70.188,1293.834,75.502,1293.834,82.055"
							/>
						<path clip-path="url(#SVGID_13_)" fill="#C0C0C0" d="M1293.527,82.055c0,6.395-5.674,11.58-12.664,11.58
							c-6.994,0-12.664-5.186-12.664-11.58c0-6.4,5.67-11.588,12.664-11.588C1287.854,70.467,1293.527,75.654,1293.527,82.055"/>
						<path clip-path="url(#SVGID_13_)" fill="#C2C3C3" d="M1293.223,82.055c0,6.238-5.535,11.305-12.359,11.305
							c-6.827,0-12.363-5.066-12.363-11.305c0-6.246,5.536-11.309,12.363-11.309C1287.688,70.746,1293.223,75.809,1293.223,82.055"
							/>
						<path clip-path="url(#SVGID_13_)" fill="#C4C5C4" d="M1292.914,82.055c0,6.086-5.393,11.025-12.051,11.025
							c-6.657,0-12.055-4.939-12.055-11.025c0-6.092,5.397-11.029,12.055-11.029C1287.521,71.025,1292.914,75.963,1292.914,82.055"
							/>
						<path clip-path="url(#SVGID_13_)" fill="#C6C8C8" d="M1292.611,82.055c0,5.93-5.262,10.746-11.748,10.746
							c-6.489,0-11.748-4.816-11.748-10.746c0-5.938,5.259-10.752,11.748-10.752C1287.35,71.303,1292.611,76.117,1292.611,82.055"/>
						<path clip-path="url(#SVGID_13_)" fill="#C9CACB" d="M1292.306,82.055c0,5.777-5.123,10.465-11.442,10.465
							c-6.32,0-11.447-4.688-11.447-10.465c0-5.783,5.127-10.473,11.447-10.473C1287.183,71.582,1292.306,76.271,1292.306,82.055"/>
						<path clip-path="url(#SVGID_13_)" fill="#CBCDCD" d="M1292.002,82.055c0,5.623-4.988,10.189-11.139,10.189
							c-6.154,0-11.141-4.566-11.141-10.189c0-5.631,4.986-10.195,11.141-10.195C1287.014,71.859,1292.002,76.424,1292.002,82.055"
							/>
						<path clip-path="url(#SVGID_13_)" fill="#CCCFD0" d="M1291.699,82.055c0,5.471-4.856,9.908-10.836,9.908
							c-5.982,0-10.836-4.438-10.836-9.908c0-5.475,4.854-9.912,10.836-9.912C1286.843,72.143,1291.699,76.58,1291.699,82.055"/>
						<path clip-path="url(#SVGID_13_)" fill="#D0D2D2" d="M1291.394,82.055c0,5.314-4.716,9.629-10.53,9.629
							s-10.529-4.314-10.529-9.629c0-5.322,4.715-9.635,10.529-9.635S1291.394,76.732,1291.394,82.055"/>
						<path clip-path="url(#SVGID_13_)" fill="#D2D4D5" d="M1291.087,82.055c0,5.162-4.577,9.35-10.224,9.35
							c-5.65,0-10.224-4.188-10.224-9.35c0-5.17,4.573-9.354,10.224-9.354C1286.51,72.701,1291.087,76.885,1291.087,82.055"/>
					</g>
				</g>
				<polygon fill="#605F5E" points="1279.169,89.188 1279.169,83.604 1273.064,83.604 1273.064,80.502 1279.169,80.502 
					1279.169,74.92 1282.558,74.92 1282.558,80.502 1288.66,80.502 1288.66,83.604 1282.558,83.604 1282.558,89.188 				"/>
				<path fill="#221714" d="M1282.264,75.188v5.045v0.539h0.584h5.521v2.561h-5.521h-0.584v0.537v5.043h-2.801v-5.043v-0.537h-0.59
					h-5.516v-2.561h5.516h0.59v-0.539v-5.045H1282.264z M1282.848,74.65h-3.975v5.582h-6.101v3.637h6.101v5.582h3.975v-5.582h6.104
					v-3.637h-6.104V74.65z"/>
			</g>
		</g>
		<g>
			<g>
				
					<radialGradient id="SVGID_14_" cx="230.9561" cy="-5886.4277" r="136.148" gradientTransform="matrix(0 -1 1.0219 0 7038.4253 484.5342)" gradientUnits="userSpaceOnUse">
					<stop  offset="0" style="stop-color:#898989"/>
					<stop  offset="0.4247" style="stop-color:#F7F8F8"/>
					<stop  offset="1" style="stop-color:#B5B5B6"/>
				</radialGradient>
				<path fill="none" stroke="url(#SVGID_14_)" stroke-width="5.6693" stroke-miterlimit="10" d="M941.781,425.994l149.979-149.043
					c0,0,26.541-23.611,0-52.533L942.455,81.197"/>
				<g>
					<path fill="#AFAEAE" d="M932.056,82.969c0-9.461,8.388-17.131,18.729-17.131c10.343,0,18.729,7.67,18.729,17.131
						s-8.386,17.135-18.729,17.135C940.443,100.104,932.056,92.43,932.056,82.969"/>
					<ellipse fill="none" stroke="#929292" stroke-miterlimit="10" cx="950.785" cy="82.969" rx="18.729" ry="17.131"/>
					<path fill="#AFAEAE" d="M937.023,82.969c0-6.951,6.164-12.588,13.762-12.588c7.601,0,13.764,5.637,13.764,12.588
						s-6.163,12.59-13.764,12.59C943.188,95.559,937.023,89.92,937.023,82.969"/>
					<path fill="none" stroke="#929292" stroke-miterlimit="10" d="M937.023,82.969c0-6.951,6.164-12.588,13.762-12.588
						c7.601,0,13.764,5.637,13.764,12.588s-6.163,12.59-13.764,12.59C943.188,95.559,937.023,89.92,937.023,82.969z"/>
					<g>
						<g>
							<defs>
								<rect id="SVGID_15_" x="937.816" y="71.109" width="25.941" height="23.725"/>
							</defs>
							<clipPath id="SVGID_16_">
								<use xlink:href="#SVGID_15_"  overflow="visible"/>
							</clipPath>
							<path clip-path="url(#SVGID_16_)" fill="#BEBEBD" d="M937.816,82.969c0-6.551,5.807-11.859,12.969-11.859
								c7.165,0,12.973,5.309,12.973,11.859c0,6.553-5.808,11.865-12.973,11.865C943.623,94.834,937.816,89.521,937.816,82.969"/>
							<path clip-path="url(#SVGID_16_)" fill="#C0C0C0" d="M938.121,82.969c0-6.396,5.67-11.582,12.664-11.582
								s12.664,5.186,12.664,11.582c0,6.398-5.67,11.588-12.664,11.588S938.121,89.367,938.121,82.969"/>
							<path clip-path="url(#SVGID_16_)" fill="#C2C3C3" d="M938.426,82.969c0-6.24,5.537-11.307,12.359-11.307
								c6.828,0,12.361,5.066,12.361,11.307c0,6.246-5.533,11.309-12.361,11.309C943.963,94.277,938.426,89.215,938.426,82.969"/>
							<path clip-path="url(#SVGID_16_)" fill="#C4C5C4" d="M938.734,82.969c0-6.088,5.395-11.025,12.051-11.025
								c6.657,0,12.056,4.938,12.056,11.025c0,6.09-5.398,11.027-12.056,11.027C944.129,93.996,938.734,89.059,938.734,82.969"/>
							<path clip-path="url(#SVGID_16_)" fill="#C6C8C8" d="M939.039,82.969c0-5.932,5.26-10.748,11.746-10.748
								c6.488,0,11.75,4.816,11.75,10.748c0,5.936-5.262,10.75-11.75,10.75C944.299,93.719,939.039,88.904,939.039,82.969"/>
							<path clip-path="url(#SVGID_16_)" fill="#C9CACB" d="M939.345,82.969c0-5.779,5.119-10.467,11.44-10.467
								c6.322,0,11.447,4.688,11.447,10.467c0,5.783-5.125,10.471-11.447,10.471C944.464,93.439,939.345,88.752,939.345,82.969"/>
							<path clip-path="url(#SVGID_16_)" fill="#CBCDCD" d="M939.646,82.969c0-5.625,4.988-10.189,11.139-10.189
								c6.153,0,11.143,4.564,11.143,10.189c0,5.629-4.989,10.193-11.143,10.193C944.635,93.162,939.646,88.598,939.646,82.969"/>
							<path clip-path="url(#SVGID_16_)" fill="#CCCFD0" d="M939.951,82.969c0-5.473,4.852-9.91,10.834-9.91
								c5.983,0,10.836,4.438,10.836,9.91s-4.853,9.912-10.836,9.912C944.803,92.881,939.951,88.441,939.951,82.969"/>
							<path clip-path="url(#SVGID_16_)" fill="#D0D2D2" d="M940.258,82.969c0-5.316,4.714-9.629,10.527-9.629
								c5.816,0,10.527,4.313,10.527,9.629c0,5.32-4.711,9.635-10.527,9.635C944.972,92.604,940.258,88.289,940.258,82.969"/>
							<path clip-path="url(#SVGID_16_)" fill="#D2D4D5" d="M940.563,82.969c0-5.164,4.578-9.352,10.223-9.352
								c5.651,0,10.225,4.188,10.225,9.352c0,5.168-4.573,9.352-10.225,9.352C945.141,92.32,940.563,88.137,940.563,82.969"/>
						</g>
					</g>
					<polygon fill="#605F5E" points="952.48,75.836 952.48,81.418 958.582,81.418 958.582,84.521 952.48,84.521 952.48,90.104 
						949.088,90.104 949.088,84.521 942.986,84.521 942.986,81.418 949.088,81.418 949.088,75.836 					"/>
					<path fill="#221714" d="M949.386,89.834v-5.045V84.25h-0.587h-5.518v-2.561h5.518h0.587v-0.537v-5.043h2.8v5.043v0.537h0.588
						h5.52v2.561h-5.52h-0.588v0.539v5.045H949.386z M948.799,90.371h3.975v-5.582h6.103v-3.637h-6.103v-5.58h-3.975v5.58h-6.104
						v3.637h6.104V90.371z"/>
				</g>
			</g>
			<g>
				<path fill="#AFAEAE" d="M932.058,422.516c0-9.459,8.388-17.131,18.728-17.131c10.346,0,18.73,7.672,18.73,17.131
					c0,9.463-8.385,17.135-18.73,17.135C940.445,439.65,932.058,431.979,932.058,422.516"/>
				<path fill="none" stroke="#929292" stroke-miterlimit="10" d="M932.058,422.516c0-9.459,8.388-17.131,18.728-17.131
					c10.346,0,18.73,7.672,18.73,17.131c0,9.463-8.385,17.135-18.73,17.135C940.445,439.65,932.058,431.979,932.058,422.516z"/>
				<path fill="#AFAEAE" d="M937.026,422.516c0-6.949,6.161-12.586,13.759-12.586c7.604,0,13.764,5.637,13.764,12.586
					c0,6.953-6.16,12.592-13.764,12.592C943.188,435.107,937.026,429.469,937.026,422.516"/>
				<path fill="none" stroke="#929292" stroke-miterlimit="10" d="M937.026,422.516c0-6.949,6.161-12.586,13.759-12.586
					c7.604,0,13.764,5.637,13.764,12.586c0,6.953-6.16,12.592-13.764,12.592C943.188,435.107,937.026,429.469,937.026,422.516z"/>
				<g>
					<g>
						<defs>
							<rect id="SVGID_17_" x="937.816" y="410.656" width="25.945" height="23.727"/>
						</defs>
						<clipPath id="SVGID_18_">
							<use xlink:href="#SVGID_17_"  overflow="visible"/>
						</clipPath>
						<path clip-path="url(#SVGID_18_)" fill="#BEBEBD" d="M937.816,422.516c0-6.551,5.807-11.859,12.969-11.859
							c7.165,0,12.977,5.309,12.977,11.859c0,6.553-5.812,11.867-12.977,11.867C943.623,434.383,937.816,429.068,937.816,422.516"/>
						<path clip-path="url(#SVGID_18_)" fill="#C0C0C0" d="M938.121,422.516c0-6.395,5.674-11.58,12.664-11.58
							c6.994,0,12.666,5.186,12.666,11.58c0,6.398-5.672,11.588-12.666,11.588C943.795,434.104,938.121,428.914,938.121,422.516"/>
						<path clip-path="url(#SVGID_18_)" fill="#C2C3C3" d="M938.428,422.516c0-6.24,5.535-11.307,12.357-11.307
							c6.83,0,12.361,5.066,12.361,11.307c0,6.246-5.531,11.309-12.361,11.309C943.963,433.824,938.428,428.762,938.428,422.516"/>
						<path clip-path="url(#SVGID_18_)" fill="#C4C5C4" d="M938.734,422.516c0-6.086,5.395-11.025,12.051-11.025
							c6.662,0,12.056,4.939,12.056,11.025c0,6.092-5.394,11.027-12.056,11.027C944.129,433.543,938.734,428.607,938.734,422.516"/>
						<path clip-path="url(#SVGID_18_)" fill="#C6C8C8" d="M939.041,422.516c0-5.932,5.261-10.746,11.744-10.746
							c6.493,0,11.752,4.814,11.752,10.746c0,5.936-5.259,10.752-11.752,10.752C944.302,433.268,939.041,428.451,939.041,422.516"/>
						<path clip-path="url(#SVGID_18_)" fill="#C9CACB" d="M939.345,422.516c0-5.779,5.12-10.465,11.44-10.465
							c6.324,0,11.447,4.686,11.447,10.465c0,5.783-5.123,10.473-11.447,10.473C944.465,432.988,939.345,428.299,939.345,422.516"/>
						<path clip-path="url(#SVGID_18_)" fill="#CBCDCD" d="M939.646,422.516c0-5.623,4.99-10.189,11.139-10.189
							c6.153,0,11.143,4.566,11.143,10.189c0,5.629-4.989,10.193-11.143,10.193C944.637,432.709,939.646,428.145,939.646,422.516"/>
						<path clip-path="url(#SVGID_18_)" fill="#CCCFD0" d="M939.953,422.516c0-5.471,4.853-9.91,10.832-9.91
							c5.983,0,10.838,4.439,10.838,9.91c0,5.475-4.854,9.912-10.838,9.912C944.806,432.428,939.953,427.99,939.953,422.516"/>
						<path clip-path="url(#SVGID_18_)" fill="#D0D2D2" d="M940.26,422.516c0-5.316,4.712-9.629,10.525-9.629
							c5.816,0,10.529,4.313,10.529,9.629c0,5.322-4.713,9.635-10.529,9.635C944.972,432.15,940.26,427.838,940.26,422.516"/>
						<path clip-path="url(#SVGID_18_)" fill="#D2D4D5" d="M940.563,422.516c0-5.164,4.581-9.352,10.223-9.352
							c5.651,0,10.225,4.188,10.225,9.352c0,5.168-4.573,9.354-10.225,9.354C945.144,431.869,940.563,427.684,940.563,422.516"/>
					</g>
				</g>
				<polygon fill="#605F5E" points="952.48,415.383 952.48,420.965 958.586,420.965 958.586,424.068 952.48,424.068 952.48,429.652 
					949.094,429.652 949.094,424.068 942.99,424.068 942.99,420.965 949.094,420.965 949.094,415.383 				"/>
				<path fill="#221714" d="M949.389,429.383v-5.047v-0.537h-0.586h-5.52v-2.561h5.52h0.586v-0.537v-5.045h2.801v5.045v0.537h0.584
					h5.521v2.561h-5.521h-0.584v0.537v5.047H949.389z M948.803,429.918h3.971v-5.582h6.104v-3.635h-6.104v-5.582h-3.971v5.582
					h-6.107v3.635h6.107V429.918z"/>
			</g>
		</g>
	</g>
</g>
<linearGradient id="SVGID_19_" gradientUnits="userSpaceOnUse" x1="335.168" y1="433.4609" x2="335.168" y2="331.04">
	<stop  offset="0" style="stop-color:#030000"/>
	<stop  offset="0.0286" style="stop-color:#898989"/>
	<stop  offset="0.163" style="stop-color:#898989"/>
	<stop  offset="0.5215" style="stop-color:#727171"/>
	<stop  offset="0.9677" style="stop-color:#727171"/>
	<stop  offset="1" style="stop-color:#030000"/>
</linearGradient>
<rect x="307.908" y="331.04" fill="url(#SVGID_19_)" stroke="#070707" stroke-width="2.8347" stroke-miterlimit="10" width="54.52" height="102.421"/>
<linearGradient id="SVGID_20_" gradientUnits="userSpaceOnUse" x1="406.5601" y1="433.4609" x2="406.5601" y2="331.04">
	<stop  offset="0" style="stop-color:#030000"/>
	<stop  offset="0.0286" style="stop-color:#898989"/>
	<stop  offset="0.163" style="stop-color:#898989"/>
	<stop  offset="0.5215" style="stop-color:#727171"/>
	<stop  offset="0.9677" style="stop-color:#727171"/>
	<stop  offset="1" style="stop-color:#030000"/>
</linearGradient>
<rect x="379.3" y="331.04" fill="url(#SVGID_20_)" stroke="#070707" stroke-width="2.8347" stroke-miterlimit="10" width="54.521" height="102.421"/>
<linearGradient id="SVGID_21_" gradientUnits="userSpaceOnUse" x1="549.3306" y1="433.4609" x2="549.3306" y2="331.04">
	<stop  offset="0" style="stop-color:#030000"/>
	<stop  offset="0.0286" style="stop-color:#898989"/>
	<stop  offset="0.163" style="stop-color:#898989"/>
	<stop  offset="0.5215" style="stop-color:#727171"/>
	<stop  offset="0.9677" style="stop-color:#727171"/>
	<stop  offset="1" style="stop-color:#030000"/>
</linearGradient>
<rect x="522.07" y="331.04" fill="url(#SVGID_21_)" stroke="#070707" stroke-width="2.8347" stroke-miterlimit="10" width="54.521" height="102.421"/>
<linearGradient id="SVGID_22_" gradientUnits="userSpaceOnUse" x1="677.313" y1="433.4609" x2="677.313" y2="331.04">
	<stop  offset="0" style="stop-color:#030000"/>
	<stop  offset="0.0286" style="stop-color:#898989"/>
	<stop  offset="0.163" style="stop-color:#898989"/>
	<stop  offset="0.5215" style="stop-color:#727171"/>
	<stop  offset="0.9677" style="stop-color:#727171"/>
	<stop  offset="1" style="stop-color:#030000"/>
</linearGradient>
<rect x="646.57" y="331.04" fill="url(#SVGID_22_)" stroke="#070707" stroke-width="2.8347" stroke-miterlimit="10" width="61.485" height="102.421"/>
<g>
	<path d="M679.561,411.28c0-6.262,5.076-11.339,11.339-11.339c6.262,0,11.338,5.077,11.338,11.339c0,6.263-5.076,11.34-11.338,11.34
		C684.637,422.62,679.561,417.543,679.561,411.28"/>
	<path fill="#B92800" d="M682.885,411.28c0-4.426,3.588-8.014,8.014-8.014c4.428,0,8.017,3.588,8.017,8.014
		c0,4.427-3.589,8.015-8.017,8.015C686.473,419.295,682.885,415.707,682.885,411.28"/>
	<circle fill="none" stroke="#C0C0C0" stroke-width="2" stroke-miterlimit="10" cx="690.9" cy="411.28" r="8.015"/>
	<path d="M687.401,411.28c0-1.932,1.566-3.497,3.497-3.497c1.934,0,3.498,1.565,3.498,3.497c0,1.933-1.564,3.497-3.498,3.497
		C688.968,414.777,687.401,413.213,687.401,411.28"/>
</g>
<g>
	<path d="M650.158,382.955c0-6.262,5.076-11.339,11.34-11.339c6.262,0,11.337,5.077,11.337,11.339c0,6.263-5.075,11.34-11.337,11.34
		C655.234,394.295,650.158,389.218,650.158,382.955"/>
	<path fill="#007345" d="M653.482,382.955c0-4.426,3.588-8.014,8.016-8.014c4.425,0,8.014,3.588,8.014,8.014
		c0,4.427-3.589,8.015-8.014,8.015C657.07,390.97,653.482,387.382,653.482,382.955"/>
	<circle fill="none" stroke="#C0C0C0" stroke-width="2" stroke-miterlimit="10" cx="661.497" cy="382.955" r="8.015"/>
	<path d="M658,382.955c0-1.932,1.565-3.496,3.498-3.496c1.931,0,3.497,1.564,3.497,3.496c0,1.933-1.566,3.497-3.497,3.497
		C659.565,386.452,658,384.888,658,382.955"/>
</g>
<g>
	<path d="M650.159,410.655c0-6.262,5.076-11.339,11.34-11.339c6.262,0,11.337,5.077,11.337,11.339c0,6.263-5.075,11.34-11.337,11.34
		C655.235,421.995,650.159,416.918,650.159,410.655"/>
	<path fill="#007345" d="M653.483,410.655c0-4.426,3.588-8.014,8.016-8.014c4.425,0,8.014,3.588,8.014,8.014
		c0,4.427-3.589,8.015-8.014,8.015C657.071,418.67,653.483,415.082,653.483,410.655"/>
	<circle fill="none" stroke="#C0C0C0" stroke-width="2" stroke-miterlimit="10" cx="661.498" cy="410.655" r="8.015"/>
	<path d="M658.001,410.655c0-1.932,1.565-3.496,3.498-3.496c1.931,0,3.497,1.564,3.497,3.496c0,1.933-1.566,3.497-3.497,3.497
		C659.566,414.152,658.001,412.588,658.001,410.655"/>
</g>
<path d="M679.561,382.955c0-6.262,5.077-11.339,11.34-11.339c6.262,0,11.338,5.077,11.338,11.339c0,6.263-5.076,11.34-11.338,11.34
	C684.638,394.295,679.561,389.218,679.561,382.955"/>
<path fill="#5B5B5B" d="M682.886,382.955c0-4.426,3.588-8.014,8.015-8.014c4.426,0,8.015,3.588,8.015,8.014
	c0,4.427-3.589,8.015-8.015,8.015C686.474,390.97,682.886,387.382,682.886,382.955"/>
<circle fill="none" stroke="#C0C0C0" stroke-width="2" stroke-miterlimit="10" cx="690.9" cy="382.955" r="8.015"/>
<path d="M687.403,382.955c0-1.932,1.564-3.496,3.497-3.496c1.931,0,3.498,1.564,3.498,3.496c0,1.933-1.567,3.497-3.498,3.497
	C688.968,386.452,687.403,384.888,687.403,382.955"/>
<g>
	<path d="M680.56,348.111c0-6.262,5.076-11.339,11.34-11.339c6.262,0,11.338,5.077,11.338,11.339c0,6.263-5.076,11.34-11.338,11.34
		C685.636,359.451,680.56,354.374,680.56,348.111"/>
	<path fill="#004F9B" d="M683.885,348.111c0-4.426,3.588-8.014,8.014-8.014s8.016,3.588,8.016,8.014c0,4.427-3.59,8.015-8.016,8.015
		S683.885,352.538,683.885,348.111"/>
	<circle fill="none" stroke="#C0C0C0" stroke-width="2" stroke-miterlimit="10" cx="691.899" cy="348.111" r="8.015"/>
	<path d="M688.401,348.111c0-1.932,1.565-3.496,3.497-3.496c1.933,0,3.498,1.564,3.498,3.496c0,1.933-1.565,3.497-3.498,3.497
		C689.967,351.608,688.401,350.044,688.401,348.111"/>
</g>
<g>
	<path d="M651.158,348.111c0-6.262,5.075-11.339,11.339-11.339c6.262,0,11.338,5.077,11.338,11.339
		c0,6.263-5.076,11.34-11.338,11.34C656.233,359.451,651.158,354.374,651.158,348.111"/>
	<path fill="#B92800" d="M654.481,348.111c0-4.426,3.588-8.014,8.015-8.014c4.428,0,8.016,3.588,8.016,8.014
		c0,4.427-3.588,8.015-8.016,8.015C658.069,356.126,654.481,352.538,654.481,348.111"/>
	<circle fill="none" stroke="#C0C0C0" stroke-width="2" stroke-miterlimit="10" cx="662.497" cy="348.111" r="8.015"/>
	<path d="M658.999,348.111c0-1.932,1.566-3.496,3.497-3.496c1.932,0,3.498,1.564,3.498,3.496c0,1.933-1.566,3.497-3.498,3.497
		C660.565,351.608,658.999,350.044,658.999,348.111"/>
</g>
<g>
	<path fill="#231815" d="M350.29,356.884c0,7.828-6.345,14.173-14.171,14.173c-7.827,0-14.175-6.345-14.175-14.173
		c0-7.827,6.348-14.174,14.175-14.174C343.945,342.71,350.29,349.057,350.29,356.884"/>
	<path fill="#898989" d="M349.033,356.884c0,7.134-5.782,12.915-12.914,12.915c-7.133,0-12.918-5.781-12.918-12.915
		c0-7.133,5.785-12.916,12.918-12.916C343.251,343.968,349.033,349.751,349.033,356.884"/>
	<path fill="#231815" d="M348.473,356.884c0,6.824-5.531,12.355-12.353,12.355c-6.824,0-12.358-5.531-12.358-12.355
		c0-6.823,5.534-12.355,12.358-12.355C342.941,344.528,348.473,350.061,348.473,356.884"/>
	<path fill="#745B94" d="M346.801,360.924c0.477-1.258,0.748-2.615,0.748-4.04c0-5.477-3.854-10.05-8.995-11.166v2.966h-4.873
		v-2.965c-5.141,1.118-8.996,5.689-8.996,11.165c0,1.425,0.272,2.782,0.748,4.04h2.515v3.948c2.076,2.123,4.969,3.443,8.172,3.443
		c3.202,0,6.093-1.32,8.168-3.441v-3.95H346.801z"/>
	<path fill="#231815" d="M332.587,351.256c0,1.048-0.85,1.897-1.898,1.897c-1.048,0-1.897-0.85-1.897-1.897
		c0-1.049,0.85-1.898,1.897-1.898C331.737,349.357,332.587,350.207,332.587,351.256"/>
	<path fill="#231815" d="M330.717,357.104c0,1.049-0.85,1.898-1.897,1.898c-1.049,0-1.898-0.85-1.898-1.898
		c0-1.048,0.85-1.897,1.898-1.897C329.867,355.207,330.717,356.057,330.717,357.104"/>
	<path fill="#231815" d="M343.138,351.256c0,1.048-0.849,1.897-1.897,1.897c-1.048,0-1.898-0.85-1.898-1.897
		c0-1.049,0.851-1.898,1.898-1.898C342.289,349.357,343.138,350.207,343.138,351.256"/>
	<path fill="#231815" d="M334.423,363.282c0,1.048-0.851,1.898-1.898,1.898s-1.897-0.851-1.897-1.898s0.85-1.897,1.897-1.897
		S334.423,362.234,334.423,363.282"/>
	<path fill="#231815" d="M341.302,363.282c0,1.048-0.85,1.898-1.897,1.898s-1.898-0.851-1.898-1.898s0.851-1.897,1.898-1.897
		S341.302,362.234,341.302,363.282"/>
	<path fill="#231815" d="M345.313,357.104c0,1.049-0.851,1.898-1.898,1.898s-1.897-0.85-1.897-1.898c0-1.048,0.85-1.897,1.897-1.897
		S345.313,356.057,345.313,357.104"/>
	<rect x="334.12" y="350.474" fill="#231815" width="3.994" height="6.096"/>
</g>
<linearGradient id="SVGID_23_" gradientUnits="userSpaceOnUse" x1="478.6909" y1="433.4609" x2="478.6909" y2="331.04">
	<stop  offset="0" style="stop-color:#030000"/>
	<stop  offset="0.0286" style="stop-color:#898989"/>
	<stop  offset="0.163" style="stop-color:#898989"/>
	<stop  offset="0.5215" style="stop-color:#727171"/>
	<stop  offset="0.9677" style="stop-color:#727171"/>
	<stop  offset="1" style="stop-color:#030000"/>
</linearGradient>
<rect x="451.431" y="331.04" fill="url(#SVGID_23_)" stroke="#070707" stroke-width="2.8347" stroke-miterlimit="10" width="54.521" height="102.421"/>
<rect x="881.459" y="0.002" width="5.387" height="504.566"/>
<rect x="881.58" y="0.002" fill="#707070" width="1.758" height="504.566"/>
</svg>
