<?xml version="1.0" encoding="utf-8"?>
<!-- Generator: Adobe Illustrator 16.0.0, SVG Export Plug-In . SVG Version: 6.00 Build 0)  -->
<!DOCTYPE svg PUBLIC "-//W3C//DTD SVG 1.1//EN" "http://www.w3.org/Graphics/SVG/1.1/DTD/svg11.dtd">
<svg version="1.1" id="图层_1" xmlns="http://www.w3.org/2000/svg" xmlns:xlink="http://www.w3.org/1999/xlink" x="0px" y="0px"
	 width="1275.6px" height="378.5px" viewBox="0 0 1275.6 378.5" enable-background="new 0 0 1275.6 378.5" xml:space="preserve">
<polygon fill="#727272" points="0.006,0 0.006,126.142 0.006,252.283 0.006,378.425 1275.594,378.425 1275.594,252.283 
	1275.594,126.142 1275.594,0 "/>
<g>
	<circle cx="33.694" cy="31.34" r="7.285"/>
	<path fill="#2A2C2D" stroke="#000000" stroke-width="0.5" stroke-miterlimit="10" d="M38.263,35.755
		c-2.438,2.523-6.459,2.594-8.984,0.156c-2.523-2.438-2.594-6.459-0.156-8.984c2.438-2.523,6.461-2.593,8.984-0.156
		C40.63,29.208,40.703,33.23,38.263,35.755"/>
	<rect x="30.029" y="30.428" transform="matrix(0.7193 0.6947 -0.6947 0.7193 31.2283 -14.609)" width="7.328" height="1.825"/>
	<rect x="30.029" y="30.428" transform="matrix(-0.6947 0.7193 -0.7193 -0.6947 79.6445 28.88)" width="7.329" height="1.825"/>
</g>
<g>
	<circle cx="33.694" cy="214.331" r="7.285"/>
	<path fill="#2A2C2D" stroke="#000000" stroke-width="0.5" stroke-miterlimit="10" d="M38.263,218.746
		c-2.438,2.523-6.459,2.594-8.984,0.156c-2.523-2.438-2.594-6.459-0.156-8.984c2.438-2.523,6.461-2.594,8.984-0.156
		S40.703,216.222,38.263,218.746"/>
	<rect x="30.029" y="213.419" transform="matrix(0.7193 0.6947 -0.6947 0.7193 158.3474 36.752)" width="7.328" height="1.825"/>
	<rect x="30.029" y="213.42" transform="matrix(-0.6947 0.7193 -0.7193 -0.6947 211.2626 339.0029)" width="7.329" height="1.825"/>
</g>
<g>
	<circle cx="1248.192" cy="31.34" r="7.285"/>
	<path fill="#2A2C2D" stroke="#000000" stroke-width="0.5" stroke-miterlimit="10" d="M1252.762,35.755
		c-2.438,2.523-6.459,2.594-8.984,0.156c-2.523-2.438-2.594-6.459-0.156-8.984c2.438-2.523,6.461-2.593,8.984-0.156
		C1255.129,29.208,1255.201,33.23,1252.762,35.755"/>
	
		<rect x="1244.527" y="30.428" transform="matrix(0.7193 0.6947 -0.6947 0.7193 372.1069 -858.2883)" width="7.328" height="1.825"/>
	
		<rect x="1244.528" y="30.428" transform="matrix(-0.6947 0.7193 -0.7193 -0.6947 2137.9063 -844.6591)" width="7.329" height="1.825"/>
</g>
<g>
	<circle cx="1248.192" cy="214.331" r="7.285"/>
	<path fill="#2A2C2D" stroke="#000000" stroke-width="0.5" stroke-miterlimit="10" d="M1252.762,218.746
		c-2.438,2.523-6.459,2.594-8.984,0.156c-2.523-2.438-2.594-6.459-0.156-8.984c2.438-2.523,6.461-2.594,8.984-0.156
		S1255.201,216.222,1252.762,218.746"/>
	
		<rect x="1244.527" y="213.419" transform="matrix(0.7193 0.6947 -0.6947 0.7193 499.226 -806.9274)" width="7.328" height="1.825"/>
	
		<rect x="1244.528" y="213.42" transform="matrix(-0.6947 0.7193 -0.7193 -0.6947 2269.5244 -534.5362)" width="7.329" height="1.825"/>
</g>
<rect x="0.006" y="277.713" fill="#444444" width="1275.587" height="8.068"/>
</svg>
