<?xml version="1.0" encoding="utf-8"?>
<!-- Generator: Adobe Illustrator 21.0.0, SVG Export Plug-In . SVG Version: 6.00 Build 0)  -->
<svg version="1.1" id="图层_1" xmlns="http://www.w3.org/2000/svg" xmlns:xlink="http://www.w3.org/1999/xlink" x="0px" y="0px"
	 width="1417.3px" height="252.3px" viewBox="0 0 1417.3 252.3" enable-background="new 0 0 1417.3 252.3" xml:space="preserve">
<g id="XMLID_24172_">
	<polygon id="XMLID_24192_" fill="#B23820" points="0,0 0,126.1 0,126.1 0,252.3 1417.3,252.3 1417.3,126.1 1417.3,126.1 1417.3,0 	
		"/>
</g>
<rect id="XMLID_24171_" x="0" y="0" fill="#D1D1D1" width="63.8" height="252.3"/>
<rect id="XMLID_24170_" x="61.3" y="0" fill="#070707" width="2.5" height="252.3"/>
<rect id="XMLID_24153_" x="1353.5" y="0" fill="#D1D1D1" width="63.8" height="252.3"/>
<rect id="XMLID_24152_" x="1353.5" y="0" transform="matrix(-1 1.794350e-10 -1.794350e-10 -1 2709.5903 252.2832)" fill="#070707" width="2.5" height="252.3"/>
<text id="XMLID_23965_" transform="matrix(1 0 0 1 1150.8524 234.8553)" font-family="'MicrosoftYaHei'" font-size="10px">Fault</text>
<path id="XMLID_24186_" fill="#D1D1D1" d="M62.5,135.6h314.6c13.3,0,24-10.7,24-24V39.5c0-16.6,13.5-30.1,30.1-30.1h917.9
	c2.5,0,4.5,2,4.5,4.5v121.8H672.2c-16.6,0-30.1,13.5-30.1,30.1v47.8c0,16.6-13.5,30.1-30.1,30.1H486.3v-91.2c0-3.2-2.6-5.8-5.8-5.8
	H217.9c-3.2,0-5.8,2.6-5.8,5.8v91.2H62.5V135.6z"/>
<g id="XMLID_24367_">
	<rect id="XMLID_24369_" x="222.1" y="166.1" fill="#030000" width="43.1" height="77.5"/>
	<linearGradient id="XMLID_1003_" gradientUnits="userSpaceOnUse" x1="222.6172" y1="204.922" x2="264.626" y2="204.922">
		<stop  offset="0" style="stop-color:#FFFFFF"/>
		<stop  offset="0.1688" style="stop-color:#B1B4B5"/>
		<stop  offset="0.4086" style="stop-color:#E0E0DF"/>
		<stop  offset="0.7581" style="stop-color:#B1B4B5"/>
		<stop  offset="1" style="stop-color:#C2C2C2"/>
	</linearGradient>
	<rect id="XMLID_24368_" x="222.6" y="167.6" fill="url(#XMLID_1003_)" width="42" height="74.7"/>
</g>
<g id="XMLID_24339_">
	<rect id="XMLID_24341_" x="265.1" y="166.1" fill="#030000" width="43.1" height="77.5"/>
	<linearGradient id="XMLID_1005_" gradientUnits="userSpaceOnUse" x1="265.6711" y1="204.922" x2="307.6799" y2="204.922">
		<stop  offset="0" style="stop-color:#FFFFFF"/>
		<stop  offset="0.1688" style="stop-color:#B1B4B5"/>
		<stop  offset="0.4086" style="stop-color:#E0E0DF"/>
		<stop  offset="0.7581" style="stop-color:#B1B4B5"/>
		<stop  offset="1" style="stop-color:#C2C2C2"/>
	</linearGradient>
	<rect id="XMLID_24340_" x="265.7" y="167.6" fill="url(#XMLID_1005_)" width="42" height="74.7"/>
</g>
<g id="XMLID_24311_">
	<rect id="XMLID_24313_" x="308.2" y="166.1" fill="#030000" width="43.1" height="77.5"/>
	<linearGradient id="XMLID_1006_" gradientUnits="userSpaceOnUse" x1="308.725" y1="204.922" x2="350.7338" y2="204.922">
		<stop  offset="0" style="stop-color:#FFFFFF"/>
		<stop  offset="0.1688" style="stop-color:#B1B4B5"/>
		<stop  offset="0.4086" style="stop-color:#E0E0DF"/>
		<stop  offset="0.7581" style="stop-color:#B1B4B5"/>
		<stop  offset="1" style="stop-color:#C2C2C2"/>
	</linearGradient>
	<rect id="XMLID_24312_" x="308.7" y="167.6" fill="url(#XMLID_1006_)" width="42" height="74.7"/>
</g>
<g id="XMLID_24283_">
	<rect id="XMLID_24285_" x="351.3" y="166.1" fill="#030000" width="43.1" height="77.5"/>
	<linearGradient id="XMLID_1008_" gradientUnits="userSpaceOnUse" x1="351.7789" y1="204.922" x2="393.7877" y2="204.922">
		<stop  offset="0" style="stop-color:#FFFFFF"/>
		<stop  offset="0.1688" style="stop-color:#B1B4B5"/>
		<stop  offset="0.4086" style="stop-color:#E0E0DF"/>
		<stop  offset="0.7581" style="stop-color:#B1B4B5"/>
		<stop  offset="1" style="stop-color:#C2C2C2"/>
	</linearGradient>
	<rect id="XMLID_24284_" x="351.8" y="167.6" fill="url(#XMLID_1008_)" width="42" height="74.7"/>
</g>
<g id="XMLID_24255_">
	<rect id="XMLID_24257_" x="394.3" y="166.1" fill="#030000" width="43.1" height="77.5"/>
	<linearGradient id="XMLID_1009_" gradientUnits="userSpaceOnUse" x1="394.8328" y1="204.922" x2="436.8416" y2="204.922">
		<stop  offset="0" style="stop-color:#FFFFFF"/>
		<stop  offset="0.1688" style="stop-color:#B1B4B5"/>
		<stop  offset="0.4086" style="stop-color:#E0E0DF"/>
		<stop  offset="0.7581" style="stop-color:#B1B4B5"/>
		<stop  offset="1" style="stop-color:#C2C2C2"/>
	</linearGradient>
	<rect id="XMLID_24256_" x="394.8" y="167.6" fill="url(#XMLID_1009_)" width="42" height="74.7"/>
</g>
<g id="XMLID_24227_">
	<rect id="XMLID_24229_" x="437.4" y="166.1" fill="#030000" width="43.1" height="77.5"/>
	<linearGradient id="XMLID_1010_" gradientUnits="userSpaceOnUse" x1="437.8867" y1="204.922" x2="479.8955" y2="204.922">
		<stop  offset="0" style="stop-color:#FFFFFF"/>
		<stop  offset="0.1688" style="stop-color:#B1B4B5"/>
		<stop  offset="0.4086" style="stop-color:#E0E0DF"/>
		<stop  offset="0.7581" style="stop-color:#B1B4B5"/>
		<stop  offset="1" style="stop-color:#C2C2C2"/>
	</linearGradient>
	<rect id="XMLID_24228_" x="437.9" y="167.6" fill="url(#XMLID_1010_)" width="42" height="74.7"/>
</g>
<rect id="XMLID_24382_" x="221.5" y="153.9" fill-rule="evenodd" clip-rule="evenodd" fill="#D1D1D1" width="257.8" height="7.9"/>
<radialGradient id="XMLID_1011_" cx="-204.9526" cy="-205.6453" r="2.531" gradientTransform="matrix(1 0 0 1 436.9473 363.4464)" gradientUnits="userSpaceOnUse">
	<stop  offset="0" style="stop-color:#FFFFFF"/>
	<stop  offset="1" style="stop-color:#8DC21F"/>
</radialGradient>
<circle id="XMLID_24381_" fill="url(#XMLID_1011_)" stroke="#030000" stroke-width="0.5" stroke-miterlimit="10" cx="232" cy="157.8" r="2.5"/>
<radialGradient id="XMLID_1099_" cx="-184.1405" cy="-205.6453" r="2.531" gradientTransform="matrix(1 0 0 1 436.9473 363.4464)" gradientUnits="userSpaceOnUse">
	<stop  offset="0" style="stop-color:#FFFFFF"/>
	<stop  offset="1" style="stop-color:#8DC21F"/>
</radialGradient>
<circle id="XMLID_24380_" fill="url(#XMLID_1099_)" stroke="#030000" stroke-width="0.5" stroke-miterlimit="10" cx="252.8" cy="157.8" r="2.5"/>
<radialGradient id="XMLID_1101_" cx="-161.7222" cy="-205.6453" r="2.531" gradientTransform="matrix(1 0 0 1 436.9473 363.4464)" gradientUnits="userSpaceOnUse">
	<stop  offset="0" style="stop-color:#FFFFFF"/>
	<stop  offset="1" style="stop-color:#8DC21F"/>
</radialGradient>
<circle id="XMLID_24379_" fill="url(#XMLID_1101_)" stroke="#030000" stroke-width="0.5" stroke-miterlimit="10" cx="275.2" cy="157.8" r="2.5"/>
<radialGradient id="XMLID_1102_" cx="-140.9101" cy="-205.6453" r="2.531" gradientTransform="matrix(1 0 0 1 436.9473 363.4464)" gradientUnits="userSpaceOnUse">
	<stop  offset="0" style="stop-color:#FFFFFF"/>
	<stop  offset="1" style="stop-color:#8DC21F"/>
</radialGradient>
<circle id="XMLID_24378_" fill="url(#XMLID_1102_)" stroke="#030000" stroke-width="0.5" stroke-miterlimit="10" cx="296" cy="157.8" r="2.5"/>
<radialGradient id="XMLID_1104_" cx="-118.4918" cy="-205.6453" r="2.531" gradientTransform="matrix(1 0 0 1 436.9473 363.4464)" gradientUnits="userSpaceOnUse">
	<stop  offset="0" style="stop-color:#FFFFFF"/>
	<stop  offset="1" style="stop-color:#8DC21F"/>
</radialGradient>
<circle id="XMLID_24377_" fill="url(#XMLID_1104_)" stroke="#030000" stroke-width="0.5" stroke-miterlimit="10" cx="318.5" cy="157.8" r="2.5"/>
<radialGradient id="XMLID_1105_" cx="-97.6797" cy="-205.6453" r="2.531" gradientTransform="matrix(1 0 0 1 436.9473 363.4464)" gradientUnits="userSpaceOnUse">
	<stop  offset="0" style="stop-color:#FFFFFF"/>
	<stop  offset="1" style="stop-color:#8DC21F"/>
</radialGradient>
<circle id="XMLID_24376_" fill="url(#XMLID_1105_)" stroke="#030000" stroke-width="0.5" stroke-miterlimit="10" cx="339.3" cy="157.8" r="2.5"/>
<radialGradient id="XMLID_1106_" cx="-75.2614" cy="-205.6453" r="2.531" gradientTransform="matrix(1 0 0 1 436.9473 363.4464)" gradientUnits="userSpaceOnUse">
	<stop  offset="0" style="stop-color:#FFFFFF"/>
	<stop  offset="1" style="stop-color:#8DC21F"/>
</radialGradient>
<circle id="XMLID_24375_" fill="url(#XMLID_1106_)" stroke="#030000" stroke-width="0.5" stroke-miterlimit="10" cx="361.7" cy="157.8" r="2.5"/>
<radialGradient id="XMLID_1109_" cx="-54.4493" cy="-205.6453" r="2.531" gradientTransform="matrix(1 0 0 1 436.9473 363.4464)" gradientUnits="userSpaceOnUse">
	<stop  offset="0" style="stop-color:#FFFFFF"/>
	<stop  offset="1" style="stop-color:#8DC21F"/>
</radialGradient>
<circle id="XMLID_24374_" fill="url(#XMLID_1109_)" stroke="#030000" stroke-width="0.5" stroke-miterlimit="10" cx="382.5" cy="157.8" r="2.5"/>
<radialGradient id="XMLID_1112_" cx="-32.031" cy="-205.6453" r="2.531" gradientTransform="matrix(1 0 0 1 436.9473 363.4464)" gradientUnits="userSpaceOnUse">
	<stop  offset="0" style="stop-color:#FFFFFF"/>
	<stop  offset="1" style="stop-color:#8DC21F"/>
</radialGradient>
<circle id="XMLID_24373_" fill="url(#XMLID_1112_)" stroke="#030000" stroke-width="0.5" stroke-miterlimit="10" cx="404.9" cy="157.8" r="2.5"/>
<radialGradient id="XMLID_1165_" cx="-11.2189" cy="-205.6453" r="2.531" gradientTransform="matrix(1 0 0 1 436.9473 363.4464)" gradientUnits="userSpaceOnUse">
	<stop  offset="0" style="stop-color:#FFFFFF"/>
	<stop  offset="1" style="stop-color:#8DC21F"/>
</radialGradient>
<circle id="XMLID_24372_" fill="url(#XMLID_1165_)" stroke="#030000" stroke-width="0.5" stroke-miterlimit="10" cx="425.7" cy="157.8" r="2.5"/>
<radialGradient id="XMLID_1224_" cx="11.1994" cy="-205.6453" r="2.531" gradientTransform="matrix(1 0 0 1 436.9473 363.4464)" gradientUnits="userSpaceOnUse">
	<stop  offset="0" style="stop-color:#FFFFFF"/>
	<stop  offset="1" style="stop-color:#8DC21F"/>
</radialGradient>
<circle id="XMLID_24371_" fill="url(#XMLID_1224_)" stroke="#030000" stroke-width="0.5" stroke-miterlimit="10" cx="448.1" cy="157.8" r="2.5"/>
<radialGradient id="XMLID_1225_" cx="32.0115" cy="-205.6453" r="2.531" gradientTransform="matrix(1 0 0 1 436.9473 363.4464)" gradientUnits="userSpaceOnUse">
	<stop  offset="0" style="stop-color:#FFFFFF"/>
	<stop  offset="1" style="stop-color:#8DC21F"/>
</radialGradient>
<circle id="XMLID_24370_" fill="url(#XMLID_1225_)" stroke="#030000" stroke-width="0.5" stroke-miterlimit="10" cx="469" cy="157.8" r="2.5"/>
<path id="XMLID_24383_" fill-rule="evenodd" clip-rule="evenodd" fill="#4C100A" d="M937.2,240.3h-178c-6.8,0-12.2-5.5-12.2-12.2
	v-66.9c0-6.8,5.5-12.2,12.2-12.2h178c6.8,0,12.2,5.5,12.2,12.2V228C949.4,234.8,943.9,240.3,937.2,240.3z"/>
<path id="XMLID_24384_" fill-rule="evenodd" clip-rule="evenodd" fill="#992C1D" d="M937.2,245.6h-178c-6.8,0-12.2-5.5-12.2-12.2
	v-66.9c0-6.8,5.5-12.2,12.2-12.2h178c6.8,0,12.2,5.5,12.2,12.2v66.9C949.4,240.1,943.9,245.6,937.2,245.6z"/>
<text id="XMLID_24387_" transform="matrix(1 0 0 1 792.7371 174.6063)" font-family="'MicrosoftYaHei'" font-size="8px">CONSOLE</text>
<text id="XMLID_24412_" transform="matrix(1 0 0 1 770.8903 208.1112)" font-family="'MicrosoftYaHei'" font-size="10px">21</text>
<text id="XMLID_24413_" transform="matrix(1 0 0 1 813.4249 208.1112)" font-family="'MicrosoftYaHei'" font-size="10px">22</text>
<text id="XMLID_24424_" transform="matrix(1 0 0 1 855.9595 208.1112)" font-family="'MicrosoftYaHei'" font-size="10px">23</text>
<text id="XMLID_24435_" transform="matrix(1 0 0 1 898.4941 208.1112)" font-family="'MicrosoftYaHei'" font-size="10px">24</text>
<linearGradient id="XMLID_1226_" gradientUnits="userSpaceOnUse" x1="-4897.2012" y1="-4027.8318" x2="-4889.3525" y2="-4027.8318" gradientTransform="matrix(4.489700e-11 -1 1 4.489700e-11 4962.1929 -4697.5923)">
	<stop  offset="0" style="stop-color:#FFFFFF"/>
	<stop  offset="1" style="stop-color:#7F7F7F"/>
</linearGradient>
<circle id="XMLID_24456_" fill="url(#XMLID_1226_)" cx="934.4" cy="195.7" r="3.9"/>
<g id="XMLID_24453_">
	<defs>
		<path id="XMLID_24454_" d="M930.8,195.7c0,2,1.6,3.5,3.5,3.5c2,0,3.5-1.6,3.5-3.5c0-2-1.6-3.5-3.5-3.5
			C932.4,192.1,930.8,193.7,930.8,195.7"/>
	</defs>
	<clipPath id="XMLID_1287_">
		<use xlink:href="#XMLID_24454_"  overflow="visible"/>
	</clipPath>
	
		<radialGradient id="XMLID_1288_" cx="2552.123" cy="2522.9163" r="0.3337" gradientTransform="matrix(8.2859 0 0 8.2859 -20213.1406 -20710.2051)" gradientUnits="userSpaceOnUse">
		<stop  offset="0" style="stop-color:#FFFFFF"/>
		<stop  offset="1" style="stop-color:#8DC21F"/>
	</radialGradient>
	<rect id="XMLID_24455_" x="930.8" y="192.1" clip-path="url(#XMLID_1287_)" fill="url(#XMLID_1288_)" width="7.1" height="7.1"/>
</g>
<linearGradient id="XMLID_1289_" gradientUnits="userSpaceOnUse" x1="-4909.6279" y1="-4027.8318" x2="-4901.7793" y2="-4027.8318" gradientTransform="matrix(4.489700e-11 -1 1 4.489700e-11 4962.1929 -4697.5923)">
	<stop  offset="0" style="stop-color:#FFFFFF"/>
	<stop  offset="1" style="stop-color:#7F7F7F"/>
</linearGradient>
<circle id="XMLID_24475_" fill="url(#XMLID_1289_)" cx="934.4" cy="208.1" r="3.9"/>
<g id="XMLID_24458_">
	<defs>
		<path id="XMLID_24459_" d="M930.8,208.1c0,2,1.6,3.5,3.5,3.5c2,0,3.5-1.6,3.5-3.5c0-2-1.6-3.5-3.5-3.5
			C932.4,204.6,930.8,206.2,930.8,208.1"/>
	</defs>
	<clipPath id="XMLID_1290_">
		<use xlink:href="#XMLID_24459_"  overflow="visible"/>
	</clipPath>
	
		<radialGradient id="XMLID_1291_" cx="2552.123" cy="2524.416" r="0.3337" gradientTransform="matrix(8.2859 0 0 8.2859 -20213.1406 -20710.2051)" gradientUnits="userSpaceOnUse">
		<stop  offset="0" style="stop-color:#FFFFFF"/>
		<stop  offset="1" style="stop-color:#8DC21F"/>
	</radialGradient>
	<rect id="XMLID_24474_" x="930.8" y="204.6" clip-path="url(#XMLID_1290_)" fill="url(#XMLID_1291_)" width="7.1" height="7.1"/>
</g>
<linearGradient id="XMLID_1292_" gradientUnits="userSpaceOnUse" x1="-4922.0547" y1="-4027.8318" x2="-4914.2061" y2="-4027.8318" gradientTransform="matrix(4.489700e-11 -1 1 4.489700e-11 4962.1929 -4697.5923)">
	<stop  offset="0" style="stop-color:#FFFFFF"/>
	<stop  offset="1" style="stop-color:#7F7F7F"/>
</linearGradient>
<circle id="XMLID_24483_" fill="url(#XMLID_1292_)" cx="934.4" cy="220.5" r="3.9"/>
<g id="XMLID_24478_">
	<defs>
		<path id="XMLID_24480_" d="M930.8,220.5c0,2,1.6,3.5,3.5,3.5c2,0,3.5-1.6,3.5-3.5c0-2-1.6-3.5-3.5-3.5
			C932.4,217,930.8,218.6,930.8,220.5"/>
	</defs>
	<clipPath id="XMLID_1293_">
		<use xlink:href="#XMLID_24480_"  overflow="visible"/>
	</clipPath>
	
		<radialGradient id="XMLID_1294_" cx="2552.123" cy="2525.9158" r="0.3337" gradientTransform="matrix(8.2859 0 0 8.2859 -20213.1406 -20710.2051)" gradientUnits="userSpaceOnUse">
		<stop  offset="0" style="stop-color:#FFFFFF"/>
		<stop  offset="1" style="stop-color:#8DC21F"/>
	</radialGradient>
	<rect id="XMLID_24482_" x="930.8" y="217" clip-path="url(#XMLID_1293_)" fill="url(#XMLID_1294_)" width="7.1" height="7.1"/>
</g>
<linearGradient id="XMLID_1295_" gradientUnits="userSpaceOnUse" x1="-4934.4814" y1="-4027.8318" x2="-4926.6328" y2="-4027.8318" gradientTransform="matrix(4.489700e-11 -1 1 4.489700e-11 4962.1929 -4697.5923)">
	<stop  offset="0" style="stop-color:#FFFFFF"/>
	<stop  offset="1" style="stop-color:#7F7F7F"/>
</linearGradient>
<circle id="XMLID_24489_" fill="url(#XMLID_1295_)" cx="934.4" cy="233" r="3.9"/>
<g id="XMLID_24486_">
	<defs>
		<path id="XMLID_24487_" d="M930.8,233c0,2,1.6,3.5,3.5,3.5c2,0,3.5-1.6,3.5-3.5c0-2-1.6-3.5-3.5-3.5
			C932.4,229.4,930.8,231,930.8,233"/>
	</defs>
	<clipPath id="XMLID_1296_">
		<use xlink:href="#XMLID_24487_"  overflow="visible"/>
	</clipPath>
	
		<radialGradient id="XMLID_1297_" cx="2552.123" cy="2527.4155" r="0.3337" gradientTransform="matrix(8.2859 0 0 8.2859 -20213.1406 -20710.2051)" gradientUnits="userSpaceOnUse">
		<stop  offset="0" style="stop-color:#FFFFFF"/>
		<stop  offset="1" style="stop-color:#8DC21F"/>
	</radialGradient>
	<rect id="XMLID_24488_" x="930.8" y="229.4" clip-path="url(#XMLID_1296_)" fill="url(#XMLID_1297_)" width="7.1" height="7.1"/>
</g>
<linearGradient id="XMLID_1298_" gradientUnits="userSpaceOnUse" x1="-4909.1729" y1="-3799.6648" x2="-4890.3105" y2="-3799.6648" gradientTransform="matrix(4.489700e-11 -1 1 4.489700e-11 4962.1929 -4697.5923)">
	<stop  offset="0" style="stop-color:#FFFFFF"/>
	<stop  offset="1" style="stop-color:#7F7F7F"/>
</linearGradient>
<circle id="XMLID_24471_" fill="url(#XMLID_1298_)" cx="1162.5" cy="202.1" r="9.4"/>
<g id="XMLID_24468_">
	<defs>
		<path id="XMLID_24469_" d="M1154,202.1c0,4.7,3.8,8.5,8.5,8.5c4.7,0,8.5-3.8,8.5-8.5c0-4.7-3.8-8.5-8.5-8.5
			C1157.8,193.6,1154,197.4,1154,202.1"/>
	</defs>
	<clipPath id="XMLID_1299_">
		<use xlink:href="#XMLID_24469_"  overflow="visible"/>
	</clipPath>
	<radialGradient id="XMLID_1300_" cx="1162.5282" cy="202.1494" r="8.5168" gradientUnits="userSpaceOnUse">
		<stop  offset="0" style="stop-color:#FFFFFF"/>
		<stop  offset="1" style="stop-color:#1F62B2"/>
	</radialGradient>
	<rect id="XMLID_24470_" x="1154" y="193.6" clip-path="url(#XMLID_1299_)" fill="url(#XMLID_1300_)" width="17" height="17"/>
</g>
<g id="XMLID_24464_" opacity="0.5" enable-background="new    ">
	<g id="XMLID_24465_">
		<defs>
			<rect id="XMLID_24466_" x="1158.7" y="198.2" width="2.8" height="2.8"/>
		</defs>
		<clipPath id="XMLID_1301_">
			<use xlink:href="#XMLID_24466_"  overflow="visible"/>
		</clipPath>
		<rect id="XMLID_24467_" x="1158.7" y="198.2" clip-path="url(#XMLID_1301_)" fill="#FFFFFF" width="2.8" height="2.8"/>
	</g>
</g>
<g id="XMLID_24460_" opacity="0.5" enable-background="new    ">
	<g id="XMLID_24461_">
		<defs>
			<rect id="XMLID_24462_" x="1158.7" y="198.2" width="1.4" height="2.8"/>
		</defs>
		<clipPath id="XMLID_1302_">
			<use xlink:href="#XMLID_24462_"  overflow="visible"/>
		</clipPath>
		<rect id="XMLID_24463_" x="1158.7" y="198.2" clip-path="url(#XMLID_1302_)" fill="#FFFFFF" width="1.4" height="2.8"/>
	</g>
</g>
<text id="XMLID_24506_" transform="matrix(1 0 0 1 1204.4537 234.8553)" font-family="'MicrosoftYaHei'" font-size="10px">Run</text>
<linearGradient id="XMLID_1303_" gradientUnits="userSpaceOnUse" x1="-4909.1729" y1="-3748.3315" x2="-4890.3105" y2="-3748.3315" gradientTransform="matrix(4.489700e-11 -1 1 4.489700e-11 4962.1929 -4697.5923)">
	<stop  offset="0" style="stop-color:#FFFFFF"/>
	<stop  offset="1" style="stop-color:#7F7F7F"/>
</linearGradient>
<circle id="XMLID_24503_" fill="url(#XMLID_1303_)" cx="1213.9" cy="202.1" r="9.4"/>
<g id="XMLID_24500_">
	<defs>
		<path id="XMLID_24501_" d="M1205.3,202.1c0,4.7,3.8,8.5,8.5,8.5c4.7,0,8.5-3.8,8.5-8.5c0-4.7-3.8-8.5-8.5-8.5
			C1209.2,193.6,1205.3,197.4,1205.3,202.1"/>
	</defs>
	<clipPath id="XMLID_1304_">
		<use xlink:href="#XMLID_24501_"  overflow="visible"/>
	</clipPath>
	<radialGradient id="XMLID_1305_" cx="1213.8615" cy="202.1494" r="8.5168" gradientUnits="userSpaceOnUse">
		<stop  offset="0" style="stop-color:#FFFFFF"/>
		<stop  offset="1" style="stop-color:#1F62B2"/>
	</radialGradient>
	<rect id="XMLID_24502_" x="1205.3" y="193.6" clip-path="url(#XMLID_1304_)" fill="url(#XMLID_1305_)" width="17" height="17"/>
</g>
<g id="XMLID_24494_" opacity="0.5" enable-background="new    ">
	<g id="XMLID_24495_">
		<defs>
			<rect id="XMLID_24496_" x="1210" y="198.2" width="2.8" height="2.8"/>
		</defs>
		<clipPath id="XMLID_1306_">
			<use xlink:href="#XMLID_24496_"  overflow="visible"/>
		</clipPath>
		<rect id="XMLID_24498_" x="1210" y="198.2" clip-path="url(#XMLID_1306_)" fill="#FFFFFF" width="2.8" height="2.8"/>
	</g>
</g>
<g id="XMLID_24472_" opacity="0.5" enable-background="new    ">
	<g id="XMLID_24473_">
		<defs>
			<rect id="XMLID_24492_" x="1210" y="198.2" width="1.4" height="2.8"/>
		</defs>
		<clipPath id="XMLID_1307_">
			<use xlink:href="#XMLID_24492_"  overflow="visible"/>
		</clipPath>
		<rect id="XMLID_24493_" x="1210" y="198.2" clip-path="url(#XMLID_1307_)" fill="#FFFFFF" width="1.4" height="2.8"/>
	</g>
</g>
<text id="XMLID_24521_" transform="matrix(1 0 0 1 1250.2817 234.8553)" font-family="'MicrosoftYaHei'" font-size="10px">Power</text>
<linearGradient id="XMLID_1308_" gradientUnits="userSpaceOnUse" x1="-4909.1729" y1="-3696.9983" x2="-4890.3105" y2="-3696.9983" gradientTransform="matrix(4.489700e-11 -1 1 4.489700e-11 4962.1929 -4697.5923)">
	<stop  offset="0" style="stop-color:#FFFFFF"/>
	<stop  offset="1" style="stop-color:#7F7F7F"/>
</linearGradient>
<circle id="XMLID_24518_" fill="url(#XMLID_1308_)" cx="1265.2" cy="202.1" r="9.4"/>
<g id="XMLID_24515_">
	<defs>
		<path id="XMLID_24516_" d="M1256.7,202.1c0,4.7,3.8,8.5,8.5,8.5c4.7,0,8.5-3.8,8.5-8.5c0-4.7-3.8-8.5-8.5-8.5
			C1260.5,193.6,1256.7,197.4,1256.7,202.1"/>
	</defs>
	<clipPath id="XMLID_1309_">
		<use xlink:href="#XMLID_24516_"  overflow="visible"/>
	</clipPath>
	<radialGradient id="XMLID_1310_" cx="1265.1948" cy="202.1494" r="8.5168" gradientUnits="userSpaceOnUse">
		<stop  offset="0" style="stop-color:#FFFFFF"/>
		<stop  offset="1" style="stop-color:#1F62B2"/>
	</radialGradient>
	<rect id="XMLID_24517_" x="1256.7" y="193.6" clip-path="url(#XMLID_1309_)" fill="url(#XMLID_1310_)" width="17" height="17"/>
</g>
<g id="XMLID_24511_" opacity="0.5" enable-background="new    ">
	<g id="XMLID_24512_">
		<defs>
			<rect id="XMLID_24513_" x="1261.4" y="198.2" width="2.8" height="2.8"/>
		</defs>
		<clipPath id="XMLID_1311_">
			<use xlink:href="#XMLID_24513_"  overflow="visible"/>
		</clipPath>
		<rect id="XMLID_24514_" x="1261.4" y="198.2" clip-path="url(#XMLID_1311_)" fill="#FFFFFF" width="2.8" height="2.8"/>
	</g>
</g>
<g id="XMLID_24507_" opacity="0.5" enable-background="new    ">
	<g id="XMLID_24508_">
		<defs>
			<rect id="XMLID_24509_" x="1261.4" y="198.2" width="1.4" height="2.8"/>
		</defs>
		<clipPath id="XMLID_1315_">
			<use xlink:href="#XMLID_24509_"  overflow="visible"/>
		</clipPath>
		<rect id="XMLID_24510_" x="1261.4" y="198.2" clip-path="url(#XMLID_1315_)" fill="#FFFFFF" width="1.4" height="2.8"/>
	</g>
</g>
<linearGradient id="XMLID_1317_" gradientUnits="userSpaceOnUse" x1="-4909.1729" y1="-3645.6648" x2="-4890.3105" y2="-3645.6648" gradientTransform="matrix(4.489700e-11 -1 1 4.489700e-11 4962.1929 -4697.5923)">
	<stop  offset="0" style="stop-color:#FFFFFF"/>
	<stop  offset="1" style="stop-color:#7F7F7F"/>
</linearGradient>
<circle id="XMLID_24533_" fill="url(#XMLID_1317_)" cx="1316.5" cy="202.1" r="9.4"/>
<g id="XMLID_24530_">
	<defs>
		<path id="XMLID_24531_" d="M1308,202.1c0,4.7,3.8,8.5,8.5,8.5c4.7,0,8.5-3.8,8.5-8.5c0-4.7-3.8-8.5-8.5-8.5
			C1311.8,193.6,1308,197.4,1308,202.1"/>
	</defs>
	<clipPath id="XMLID_1318_">
		<use xlink:href="#XMLID_24531_"  overflow="visible"/>
	</clipPath>
	<radialGradient id="XMLID_1319_" cx="1316.5282" cy="202.1494" r="8.5168" gradientUnits="userSpaceOnUse">
		<stop  offset="0" style="stop-color:#FFFFFF"/>
		<stop  offset="1" style="stop-color:#1F62B2"/>
	</radialGradient>
	<rect id="XMLID_24532_" x="1308" y="193.6" clip-path="url(#XMLID_1318_)" fill="url(#XMLID_1319_)" width="17" height="17"/>
</g>
<g id="XMLID_24526_" opacity="0.5" enable-background="new    ">
	<g id="XMLID_24527_">
		<defs>
			<rect id="XMLID_24528_" x="1312.7" y="198.2" width="2.8" height="2.8"/>
		</defs>
		<clipPath id="XMLID_1320_">
			<use xlink:href="#XMLID_24528_"  overflow="visible"/>
		</clipPath>
		<rect id="XMLID_24529_" x="1312.7" y="198.2" clip-path="url(#XMLID_1320_)" fill="#FFFFFF" width="2.8" height="2.8"/>
	</g>
</g>
<g id="XMLID_24522_" opacity="0.5" enable-background="new    ">
	<g id="XMLID_24523_">
		<defs>
			<rect id="XMLID_24524_" x="1312.7" y="198.2" width="1.4" height="2.8"/>
		</defs>
		<clipPath id="XMLID_1321_">
			<use xlink:href="#XMLID_24524_"  overflow="visible"/>
		</clipPath>
		<rect id="XMLID_24525_" x="1312.7" y="198.2" clip-path="url(#XMLID_1321_)" fill="#FFFFFF" width="1.4" height="2.8"/>
	</g>
</g>
<g id="XMLID_24538_">
	<defs>
		<path id="SVGID_58_" d="M1319.2,224.3c2.7,1.1,4.7,3.8,4.7,6.9c0,4.1-3.3,7.5-7.5,7.5c-4.2,0-7.4-3.3-7.4-7.5
			c0-3.1,1.9-5.8,4.7-6.9v-2.2c-3.9,1.2-6.8,4.8-6.8,9.1c0,5.3,4.3,9.6,9.6,9.6s9.6-4.3,9.6-9.6c-0.1-4.3-3-7.9-6.9-9.1V224.3z"/>
	</defs>
	<use xlink:href="#SVGID_58_"  overflow="visible" fill="#040000"/>
	<clipPath id="SVGID_111_">
		<use xlink:href="#SVGID_58_"  overflow="visible"/>
	</clipPath>
	<rect id="XMLID_24539_" x="1306.9" y="222.1" clip-path="url(#SVGID_111_)" fill="#040000" width="19.2" height="18.7"/>
</g>
<g id="XMLID_24536_">
	<defs>
		<rect id="SVGID_74_" x="1314.9" y="218.3" width="3.1" height="8.8"/>
	</defs>
	<use xlink:href="#SVGID_74_"  overflow="visible" fill="#040000"/>
	<clipPath id="SVGID_112_">
		<use xlink:href="#SVGID_74_"  overflow="visible"/>
	</clipPath>
	<rect id="XMLID_24537_" x="1314.9" y="218.3" clip-path="url(#SVGID_112_)" fill="#040000" width="3.1" height="8.8"/>
</g>
<path id="XMLID_24457_" fill="#4C100A" d="M319.5,118h-62c-6.1,0-11.1,5.1-11.1-1.1V55.5c0-6.1,4.9-11.1,11.1-11.1h62
	c6.1,0,11.1,4.9,11.1,11.1v61.4C330.5,123,325.6,118,319.5,118z"/>
<path id="XMLID_24540_" fill="#992C1D" d="M319.5,121.9h-62c-6.1,0-11.1-4.9-11.1-11.1V59.4c0-6.1,4.9-11.1,11.1-11.1h62
	c6.1,0,11.1,4.9,11.1,11.1v51.4C330.5,116.9,325.6,121.9,319.5,121.9z"/>
<g id="XMLID_24571_">
	<rect id="XMLID_24573_" x="250.3" y="51.4" fill="#030000" width="76.5" height="67.5"/>
	<linearGradient id="XMLID_1322_" gradientUnits="userSpaceOnUse" x1="251.2383" y1="85.2236" x2="325.9255" y2="85.2236">
		<stop  offset="0" style="stop-color:#FFFFFF"/>
		<stop  offset="0.1688" style="stop-color:#B1B4B5"/>
		<stop  offset="0.4086" style="stop-color:#E0E0DF"/>
		<stop  offset="0.7581" style="stop-color:#B1B4B5"/>
		<stop  offset="1" style="stop-color:#C2C2C2"/>
	</linearGradient>
	<rect id="XMLID_24572_" x="251.2" y="52.9" fill="url(#XMLID_1322_)" width="74.7" height="64.7"/>
</g>
<g id="XMLID_24543_">
	<path id="XMLID_24583_" fill="#314B9D" d="M302.1,79.3h-27c-3.7,0-7-2.6-7.7-6.3l-1.8-9.1c-0.6-3.1,2-6,5.3-6h35.3
		c3.3,0,5.9,2.8,5.3,6l-1.8,9.1C309,76.7,305.8,79.3,302.1,79.3"/>
	<path id="XMLID_24582_" fill="none" stroke="#0B0C0C" stroke-miterlimit="10" d="M302.1,79.3h-27c-3.7,0-7-2.6-7.7-6.3l-1.8-9.1
		c-0.6-3.1,2-6,5.3-6h35.3c3.3,0,5.9,2.8,5.3,6l-1.8,9.1C309,76.7,305.8,79.3,302.1,79.3z"/>
	<path id="XMLID_24581_" fill="#040000" d="M276,62.8c0,1.2-1,2.2-2.2,2.2c-1.2,0-2.2-1-2.2-2.2c0-1.2,1-2.2,2.2-2.2
		C275,60.6,276,61.6,276,62.8"/>
	<path id="XMLID_24580_" fill="#040000" d="M282.7,62.8c0,1.2-1,2.2-2.2,2.2c-1.2,0-2.2-1-2.2-2.2c0-1.2,1-2.2,2.2-2.2
		C281.7,60.6,282.7,61.6,282.7,62.8"/>
	<path id="XMLID_24579_" fill="#040000" d="M289.3,62.8c0,1.2-1,2.2-2.2,2.2c-1.2,0-2.2-1-2.2-2.2c0-1.2,1-2.2,2.2-2.2
		C288.4,60.6,289.3,61.6,289.3,62.8"/>
	<path id="XMLID_24578_" fill="#040000" d="M296,62.8c0,1.2-1,2.2-2.2,2.2c-1.2,0-2.2-1-2.2-2.2c0-1.2,1-2.2,2.2-2.2
		C295,60.6,296,61.6,296,62.8"/>
	<path id="XMLID_24577_" fill="#040000" d="M302.7,62.8c0,1.2-1,2.2-2.2,2.2c-1.2,0-2.2-1-2.2-2.2c0-1.2,1-2.2,2.2-2.2
		C301.7,60.6,302.7,61.6,302.7,62.8"/>
	<path id="XMLID_24576_" fill="#040000" d="M279.6,68.6c0,1.2-1,2.2-2.2,2.2c-1.2,0-2.2-1-2.2-2.2c0-1.2,1-2.2,2.2-2.2
		C278.6,66.4,279.6,67.4,279.6,68.6"/>
	<path id="XMLID_24575_" fill="#040000" d="M286.2,68.6c0,1.2-1,2.2-2.2,2.2c-1.2,0-2.2-1-2.2-2.2c0-1.2,1-2.2,2.2-2.2
		C285.3,66.4,286.2,67.4,286.2,68.6"/>
	<path id="XMLID_24574_" fill="#040000" d="M292.9,68.6c0,1.2-1,2.2-2.2,2.2c-1.2,0-2.2-1-2.2-2.2c0-1.2,1-2.2,2.2-2.2
		C291.9,66.4,292.9,67.4,292.9,68.6"/>
	<path id="XMLID_24570_" fill="#040000" d="M299.6,68.6c0,1.2-1,2.2-2.2,2.2c-1.2,0-2.2-1-2.2-2.2c0-1.2,1-2.2,2.2-2.2
		C298.6,66.4,299.6,67.4,299.6,68.6"/>
	<path id="XMLID_24569_" fill="#040000" d="M306.2,68.6c0,1.2-1,2.2-2.2,2.2c-1.2,0-2.2-1-2.2-2.2c0-1.2,1-2.2,2.2-2.2
		C305.2,66.4,306.2,67.4,306.2,68.6"/>
	<path id="XMLID_24568_" fill="#040000" d="M275.3,74.5c0,1.2-1,2.2-2.2,2.2c-1.2,0-2.2-1-2.2-2.2c0-1.2,1-2.2,2.2-2.2
		C274.4,72.3,275.3,73.3,275.3,74.5"/>
	<path id="XMLID_24567_" fill="#040000" d="M282,74.5c0,1.2-1,2.2-2.2,2.2c-1.2,0-2.2-1-2.2-2.2c0-1.2,1-2.2,2.2-2.2
		C281,72.3,282,73.3,282,74.5"/>
	<path id="XMLID_24566_" fill="#040000" d="M288.7,74.5c0,1.2-1,2.2-2.2,2.2c-1.2,0-2.2-1-2.2-2.2c0-1.2,1-2.2,2.2-2.2
		C287.7,72.3,288.7,73.3,288.7,74.5"/>
	<path id="XMLID_24565_" fill="#040000" d="M295.3,74.5c0,1.2-1,2.2-2.2,2.2c-1.2,0-2.2-1-2.2-2.2c0-1.2,1-2.2,2.2-2.2
		C294.3,72.3,295.3,73.3,295.3,74.5"/>
	<path id="XMLID_24564_" fill="#040000" d="M302,74.5c0,1.2-1,2.2-2.2,2.2c-1.2,0-2.2-1-2.2-2.2c0-1.2,1-2.2,2.2-2.2
		C301,72.3,302,73.3,302,74.5"/>
	<path id="XMLID_24563_" fill="#BDBCBD" d="M257.2,72.8c-0.5,0-0.9-0.3-1.1-0.7l-1.8-3.1c-0.2-0.4-0.2-0.9,0-1.3l1.8-3.1
		c0.2-0.4,0.7-0.7,1.1-0.7h3.6c0.5,0,0.9,0.3,1.1,0.7l1.8,3.1c0.2,0.4,0.2,0.9,0,1.3l-1.8,3.1c-0.2,0.4-0.7,0.7-1.1,0.7H257.2z"/>
	<path id="XMLID_24560_" fill="#8F8E8E" stroke="#222222" stroke-miterlimit="10" d="M260.8,64.3c0.3,0,0.7,0.2,0.8,0.5l1.8,3.1
		c0.2,0.3,0.2,0.7,0,1l-1.8,3.1c-0.2,0.3-0.5,0.5-0.8,0.5h-3.6c-0.3,0-0.7-0.2-0.8-0.5l-1.8-3.1c-0.2-0.3-0.2-0.7,0-1l1.8-3.1
		c0.2-0.3,0.5-0.5,0.8-0.5H260.8 M260.8,63.5h-3.6c-0.6,0-1.2,0.3-1.5,0.9l-1.8,3.1c-0.3,0.5-0.3,1.2,0,1.7l1.8,3.1
		c0.3,0.5,0.9,0.9,1.5,0.9h3.6c0.6,0,1.2-0.3,1.5-0.9l1.8-3.1c0.3-0.5,0.3-1.2,0-1.7l-1.8-3.1C262,63.8,261.4,63.5,260.8,63.5"/>
	<path id="XMLID_24559_" fill="#CCCDCD" d="M262.6,68.4c0,2-1.6,3.6-3.6,3.6c-2,0-3.6-1.6-3.6-3.6s1.6-3.6,3.6-3.6
		C261,64.7,262.6,66.4,262.6,68.4"/>
	
		<ellipse id="XMLID_24558_" fill="none" stroke="#8F8E8E" stroke-width="0.25" stroke-miterlimit="10" cx="259" cy="68.4" rx="3.6" ry="3.6"/>
	<path id="XMLID_24557_" fill="#414244" d="M261.2,68.4c0,1.2-1,2.2-2.2,2.2c-1.2,0-2.2-1-2.2-2.2c0-1.2,1-2.2,2.2-2.2
		C260.2,66.1,261.2,67.1,261.2,68.4"/>
	
		<ellipse id="XMLID_24556_" fill="none" stroke="#040000" stroke-width="0.25" stroke-miterlimit="10" cx="259" cy="68.4" rx="2.2" ry="2.2"/>
	<path id="XMLID_24555_" fill="#8F8E8E" d="M259.7,68.4c0,0.4-0.3,0.7-0.7,0.7c-0.4,0-0.7-0.3-0.7-0.7c0-0.4,0.3-0.7,0.7-0.7
		C259.4,67.7,259.7,68,259.7,68.4"/>
	<path id="XMLID_24554_" fill="#BDBCBD" d="M316.4,72.8c-0.5,0-0.9-0.3-1.2-0.7l-1.8-3.1c-0.2-0.4-0.2-0.9,0-1.3l1.8-3.1
		c0.2-0.4,0.7-0.7,1.2-0.7h3.6c0.5,0,0.9,0.3,1.1,0.7l1.8,3.1c0.2,0.4,0.2,0.9,0,1.3l-1.8,3.1c-0.2,0.4-0.7,0.7-1.1,0.7H316.4z"/>
	<path id="XMLID_24549_" fill="#8F8E8E" stroke="#222222" stroke-miterlimit="10" d="M320,64.3c0.3,0,0.7,0.2,0.8,0.5l1.8,3.1
		c0.2,0.3,0.2,0.7,0,1l-1.8,3.1c-0.2,0.3-0.5,0.5-0.8,0.5h-3.6c-0.3,0-0.7-0.2-0.8-0.5l-1.8-3.1c-0.2-0.3-0.2-0.7,0-1l1.8-3.1
		c0.2-0.3,0.5-0.5,0.8-0.5H320 M320,63.5h-3.6c-0.6,0-1.2,0.3-1.5,0.9l-1.8,3.1c-0.3,0.5-0.3,1.2,0,1.7l1.8,3.1
		c0.3,0.5,0.9,0.9,1.5,0.9h3.6c0.6,0,1.2-0.3,1.5-0.9l1.8-3.1c0.3-0.5,0.3-1.2,0-1.7l-1.8-3.1C321.1,63.8,320.6,63.5,320,63.5"/>
	<path id="XMLID_24548_" fill="#CCCDCD" d="M321.8,68.4c0,2-1.6,3.6-3.6,3.6c-2,0-3.6-1.6-3.6-3.6s1.6-3.6,3.6-3.6
		C320.2,64.7,321.8,66.4,321.8,68.4"/>
	
		<ellipse id="XMLID_24547_" fill="none" stroke="#8F8E8E" stroke-width="0.25" stroke-miterlimit="10" cx="318.2" cy="68.4" rx="3.6" ry="3.6"/>
	<path id="XMLID_24546_" fill="#414244" d="M320.4,68.4c0,1.2-1,2.2-2.2,2.2c-1.2,0-2.2-1-2.2-2.2c0-1.2,1-2.2,2.2-2.2
		C319.4,66.1,320.4,67.1,320.4,68.4"/>
	
		<ellipse id="XMLID_24545_" fill="none" stroke="#040000" stroke-width="0.25" stroke-miterlimit="10" cx="318.2" cy="68.4" rx="2.2" ry="2.2"/>
	<path id="XMLID_24544_" fill="#8F8E8E" d="M318.9,68.4c0,0.4-0.3,0.7-0.7,0.7c-0.4,0-0.7-0.3-0.7-0.7c0-0.4,0.3-0.7,0.7-0.7
		C318.6,67.7,318.9,68,318.9,68.4"/>
</g>
<g id="XMLID_24585_">
	<path id="XMLID_24620_" fill="#314B9D" d="M302.1,109.4h-27c-3.7,0-7-2.6-7.7-6.3l-1.8-9.1c-0.6-3.1,2-6,5.3-6h35.3
		c3.3,0,5.9,2.8,5.3,6l-1.8,9.1C309,106.8,305.8,109.4,302.1,109.4"/>
	<path id="XMLID_24619_" fill="none" stroke="#0B0C0C" stroke-miterlimit="10" d="M302.1,109.4h-27c-3.7,0-7-2.6-7.7-6.3l-1.8-9.1
		c-0.6-3.1,2-6,5.3-6h35.3c3.3,0,5.9,2.8,5.3,6l-1.8,9.1C309,106.8,305.8,109.4,302.1,109.4z"/>
	<path id="XMLID_24618_" fill="#040000" d="M276,92.9c0,1.2-1,2.2-2.2,2.2c-1.2,0-2.2-1-2.2-2.2c0-1.2,1-2.2,2.2-2.2
		C275,90.6,276,91.6,276,92.9"/>
	<path id="XMLID_24617_" fill="#040000" d="M282.7,92.9c0,1.2-1,2.2-2.2,2.2c-1.2,0-2.2-1-2.2-2.2c0-1.2,1-2.2,2.2-2.2
		C281.7,90.6,282.7,91.6,282.7,92.9"/>
	<path id="XMLID_24616_" fill="#040000" d="M289.3,92.9c0,1.2-1,2.2-2.2,2.2c-1.2,0-2.2-1-2.2-2.2c0-1.2,1-2.2,2.2-2.2
		C288.4,90.6,289.3,91.6,289.3,92.9"/>
	<path id="XMLID_24615_" fill="#040000" d="M296,92.9c0,1.2-1,2.2-2.2,2.2c-1.2,0-2.2-1-2.2-2.2c0-1.2,1-2.2,2.2-2.2
		C295,90.6,296,91.6,296,92.9"/>
	<path id="XMLID_24614_" fill="#040000" d="M302.7,92.9c0,1.2-1,2.2-2.2,2.2c-1.2,0-2.2-1-2.2-2.2c0-1.2,1-2.2,2.2-2.2
		C301.7,90.6,302.7,91.6,302.7,92.9"/>
	<path id="XMLID_24613_" fill="#040000" d="M279.6,98.7c0,1.2-1,2.2-2.2,2.2c-1.2,0-2.2-1-2.2-2.2c0-1.2,1-2.2,2.2-2.2
		C278.6,96.5,279.6,97.5,279.6,98.7"/>
	<path id="XMLID_24612_" fill="#040000" d="M286.2,98.7c0,1.2-1,2.2-2.2,2.2c-1.2,0-2.2-1-2.2-2.2c0-1.2,1-2.2,2.2-2.2
		C285.3,96.5,286.2,97.5,286.2,98.7"/>
	<path id="XMLID_24611_" fill="#040000" d="M292.9,98.7c0,1.2-1,2.2-2.2,2.2c-1.2,0-2.2-1-2.2-2.2c0-1.2,1-2.2,2.2-2.2
		C291.9,96.5,292.9,97.5,292.9,98.7"/>
	<path id="XMLID_24610_" fill="#040000" d="M299.6,98.7c0,1.2-1,2.2-2.2,2.2c-1.2,0-2.2-1-2.2-2.2c0-1.2,1-2.2,2.2-2.2
		C298.6,96.5,299.6,97.5,299.6,98.7"/>
	<path id="XMLID_24609_" fill="#040000" d="M306.2,98.7c0,1.2-1,2.2-2.2,2.2c-1.2,0-2.2-1-2.2-2.2c0-1.2,1-2.2,2.2-2.2
		C305.2,96.5,306.2,97.5,306.2,98.7"/>
	<path id="XMLID_24608_" fill="#040000" d="M275.3,104.5c0,1.2-1,2.2-2.2,2.2c-1.2,0-2.2-1-2.2-2.2c0-1.2,1-2.2,2.2-2.2
		C274.4,102.3,275.3,103.3,275.3,104.5"/>
	<path id="XMLID_24607_" fill="#040000" d="M282,104.5c0,1.2-1,2.2-2.2,2.2c-1.2,0-2.2-1-2.2-2.2c0-1.2,1-2.2,2.2-2.2
		C281,102.3,282,103.3,282,104.5"/>
	<path id="XMLID_24606_" fill="#040000" d="M288.7,104.5c0,1.2-1,2.2-2.2,2.2c-1.2,0-2.2-1-2.2-2.2c0-1.2,1-2.2,2.2-2.2
		C287.7,102.3,288.7,103.3,288.7,104.5"/>
	<path id="XMLID_24605_" fill="#040000" d="M295.3,104.5c0,1.2-1,2.2-2.2,2.2c-1.2,0-2.2-1-2.2-2.2c0-1.2,1-2.2,2.2-2.2
		C294.3,102.3,295.3,103.3,295.3,104.5"/>
	<path id="XMLID_24604_" fill="#040000" d="M302,104.5c0,1.2-1,2.2-2.2,2.2c-1.2,0-2.2-1-2.2-2.2c0-1.2,1-2.2,2.2-2.2
		C301,102.3,302,103.3,302,104.5"/>
	<path id="XMLID_24603_" fill="#BDBCBD" d="M257.2,102.8c-0.5,0-0.9-0.3-1.1-0.7l-1.8-3.1c-0.2-0.4-0.2-0.9,0-1.3l1.8-3.1
		c0.2-0.4,0.7-0.7,1.1-0.7h3.6c0.5,0,0.9,0.3,1.1,0.7l1.8,3.1c0.2,0.4,0.2,0.9,0,1.3l-1.8,3.1c-0.2,0.4-0.7,0.7-1.1,0.7H257.2z"/>
	<path id="XMLID_24600_" fill="#8F8E8E" stroke="#222222" stroke-miterlimit="10" d="M260.8,94.3c0.3,0,0.7,0.2,0.8,0.5l1.8,3.1
		c0.2,0.3,0.2,0.7,0,1l-1.8,3.1c-0.2,0.3-0.5,0.5-0.8,0.5h-3.6c-0.3,0-0.7-0.2-0.8-0.5l-1.8-3.1c-0.2-0.3-0.2-0.7,0-1l1.8-3.1
		c0.2-0.3,0.5-0.5,0.8-0.5H260.8 M260.8,93.6h-3.6c-0.6,0-1.2,0.3-1.5,0.9l-1.8,3.1c-0.3,0.5-0.3,1.2,0,1.7l1.8,3.1
		c0.3,0.5,0.9,0.9,1.5,0.9h3.6c0.6,0,1.2-0.3,1.5-0.9l1.8-3.1c0.3-0.5,0.3-1.2,0-1.7l-1.8-3.1C262,93.9,261.4,93.6,260.8,93.6"/>
	<path id="XMLID_24599_" fill="#CCCDCD" d="M262.6,98.4c0,2-1.6,3.6-3.6,3.6c-2,0-3.6-1.6-3.6-3.6s1.6-3.6,3.6-3.6
		C261,94.8,262.6,96.4,262.6,98.4"/>
	
		<ellipse id="XMLID_24598_" fill="none" stroke="#8F8E8E" stroke-width="0.25" stroke-miterlimit="10" cx="259" cy="98.4" rx="3.6" ry="3.6"/>
	<path id="XMLID_24597_" fill="#414244" d="M261.2,98.4c0,1.2-1,2.2-2.2,2.2c-1.2,0-2.2-1-2.2-2.2c0-1.2,1-2.2,2.2-2.2
		C260.2,96.2,261.2,97.2,261.2,98.4"/>
	
		<ellipse id="XMLID_24596_" fill="none" stroke="#040000" stroke-width="0.25" stroke-miterlimit="10" cx="259" cy="98.4" rx="2.2" ry="2.2"/>
	<path id="XMLID_24595_" fill="#8F8E8E" d="M259.7,98.4c0,0.4-0.3,0.7-0.7,0.7c-0.4,0-0.7-0.3-0.7-0.7c0-0.4,0.3-0.7,0.7-0.7
		C259.4,97.7,259.7,98,259.7,98.4"/>
	<path id="XMLID_24594_" fill="#BDBCBD" d="M316.4,102.8c-0.5,0-0.9-0.3-1.2-0.7l-1.8-3.1c-0.2-0.4-0.2-0.9,0-1.3l1.8-3.1
		c0.2-0.4,0.7-0.7,1.2-0.7h3.6c0.5,0,0.9,0.3,1.1,0.7l1.8,3.1c0.2,0.4,0.2,0.9,0,1.3l-1.8,3.1c-0.2,0.4-0.7,0.7-1.1,0.7H316.4z"/>
	<path id="XMLID_24591_" fill="#8F8E8E" stroke="#222222" stroke-miterlimit="10" d="M320,94.3c0.3,0,0.7,0.2,0.8,0.5l1.8,3.1
		c0.2,0.3,0.2,0.7,0,1l-1.8,3.1c-0.2,0.3-0.5,0.5-0.8,0.5h-3.6c-0.3,0-0.7-0.2-0.8-0.5l-1.8-3.1c-0.2-0.3-0.2-0.7,0-1l1.8-3.1
		c0.2-0.3,0.5-0.5,0.8-0.5H320 M320,93.6h-3.6c-0.6,0-1.2,0.3-1.5,0.9l-1.8,3.1c-0.3,0.5-0.3,1.2,0,1.7l1.8,3.1
		c0.3,0.5,0.9,0.9,1.5,0.9h3.6c0.6,0,1.2-0.3,1.5-0.9l1.8-3.1c0.3-0.5,0.3-1.2,0-1.7l-1.8-3.1C321.1,93.9,320.6,93.6,320,93.6"/>
	<path id="XMLID_24590_" fill="#CCCDCD" d="M321.8,98.4c0,2-1.6,3.6-3.6,3.6c-2,0-3.6-1.6-3.6-3.6s1.6-3.6,3.6-3.6
		C320.2,94.8,321.8,96.4,321.8,98.4"/>
	
		<ellipse id="XMLID_24589_" fill="none" stroke="#8F8E8E" stroke-width="0.25" stroke-miterlimit="10" cx="318.2" cy="98.4" rx="3.6" ry="3.6"/>
	<path id="XMLID_24588_" fill="#414244" d="M320.4,98.4c0,1.2-1,2.2-2.2,2.2c-1.2,0-2.2-1-2.2-2.2c0-1.2,1-2.2,2.2-2.2
		C319.4,96.2,320.4,97.2,320.4,98.4"/>
	
		<ellipse id="XMLID_24587_" fill="none" stroke="#040000" stroke-width="0.25" stroke-miterlimit="10" cx="318.2" cy="98.4" rx="2.2" ry="2.2"/>
	<path id="XMLID_24586_" fill="#8F8E8E" d="M318.9,98.4c0,0.4-0.3,0.7-0.7,0.7c-0.4,0-0.7-0.3-0.7-0.7c0-0.4,0.3-0.7,0.7-0.7
		C318.6,97.7,318.9,98,318.9,98.4"/>
</g>
<text id="XMLID_24541_" transform="matrix(1 0 0 1 186.5528 70.3959)" font-family="'MicrosoftYaHei'" font-size="11.6134px">Fallover</text>
<text id="XMLID_24551_" transform="matrix(1 0 0 1 185.9317 102.4405)" font-family="'MicrosoftYaHei'" font-size="11.6134px">Console</text>
<text id="XMLID_24584_" transform="matrix(1 0 0 1 1243.9197 69.2294)" font-family="'MicrosoftYaHei'" font-size="6px" letter-spacing="3">NETWORKS</text>
<path id="XMLID_24542_" fill="#6D2016" d="M1324.8,109.9h-113.7c-3.7,0-6.7-3-6.7-6.7v-14c0-3.7,3-6.7,6.7-6.7h113.7
	c3.7,0,6.7,3,6.7,6.7v14C1331.4,106.9,1328.4,109.9,1324.8,109.9z"/>
<path id="XMLID_24621_" fill="#B23820" d="M1324.7,109.3h-113.6c-3.3,0-6-2.7-6-6V89.2c0-3.3,2.7-6,6-6h113.6c3.3,0,6,2.7,6,6v14.1
	C1330.7,106.6,1328,109.3,1324.7,109.3z"/>
<text id="XMLID_24553_" transform="matrix(1 0 0 1 1241.7531 60.6924)" font-family="'MicrosoftYaHei-Bold'" font-size="27.0548px" letter-spacing="2">Array</text>
<text id="XMLID_24622_" transform="matrix(1 0 0 1 1221.0031 102.4407)" fill="#D1D1D1" font-family="'MicrosoftYaHei'" font-size="18px" letter-spacing="1">APV 3520</text>
<g id="XMLID_24623_">
	<path id="XMLID_24625_" fill="#B23820" d="M1208.7,70.4h28.1V49.9C1236.8,49.9,1216.2,47.9,1208.7,70.4z"/>
	<path id="XMLID_24629_" fill="none" stroke="#B23820" stroke-miterlimit="10" d="M1228.6,51.8c0,0-13.5,0-20.6,5.5"/>
	<path id="XMLID_24630_" fill="none" stroke="#B23820" stroke-miterlimit="10" d="M1229.6,55.4c0,0-10.3-3.9-24.3,7.8"/>
	<path id="XMLID_24631_" fill="none" stroke="#B23820" stroke-miterlimit="10" d="M1228.6,59c0,0-11-1.1-20.6,7.1"/>
</g>
<g id="XMLID_24632_">
	<path id="XMLID_24654_" fill="#B23820" d="M1227.7,33.8h-28.1v20.5C1199.6,54.3,1220.2,56.3,1227.7,33.8z"/>
	<path id="XMLID_24650_" fill="none" stroke="#B23820" stroke-miterlimit="10" d="M1207.8,52.4c0,0,13.5,0,20.6-5.5"/>
	<path id="XMLID_24640_" fill="none" stroke="#B23820" stroke-miterlimit="10" d="M1206.8,48.8c0,0,10.3,3.9,24.3-7.8"/>
	<path id="XMLID_24633_" fill="none" stroke="#B23820" stroke-miterlimit="10" d="M1207.8,45.2c0,0,11,1.1,20.6-7.1"/>
</g>
<path id="XMLID_24634_" opacity="0.5" fill="#D1D1D1" d="M1269.8,83.5l-58.9,1.6c-0.5,0-0.8-0.4-0.8-0.8l0,0c0-0.5,0.4-0.8,0.8-0.8
	L1269.8,83.5C1270.2,83.5,1269.7,83,1269.8,83.5L1269.8,83.5C1269.8,83.9,1270.2,83.5,1269.8,83.5z"/>
<linearGradient id="XMLID_1323_" gradientUnits="userSpaceOnUse" x1="1387.8385" y1="245.6165" x2="1387.8385" y2="9.3751">
	<stop  offset="0" style="stop-color:#9B9B9B"/>
	<stop  offset="6.624606e-02" style="stop-color:#D8D6D6"/>
	<stop  offset="0.8864" style="stop-color:#DBDBDB"/>
	<stop  offset="1" style="stop-color:#919191"/>
</linearGradient>
<rect id="XMLID_2113_" x="1370.1" y="9.4" fill="url(#XMLID_1323_)" width="35.5" height="236.2"/>
<linearGradient id="XMLID_1324_" gradientUnits="userSpaceOnUse" x1="31.8897" y1="245.6165" x2="31.8897" y2="9.3751">
	<stop  offset="0" style="stop-color:#9B9B9B"/>
	<stop  offset="6.624606e-02" style="stop-color:#D8D6D6"/>
	<stop  offset="0.8864" style="stop-color:#DBDBDB"/>
	<stop  offset="1" style="stop-color:#919191"/>
</linearGradient>
<rect id="XMLID_23911_" x="14.1" y="9.4" fill="url(#XMLID_1324_)" width="35.5" height="236.2"/>
</svg>
