<?xml version="1.0" encoding="utf-8"?>
<!-- Generator: Adobe Illustrator 16.0.0, SVG Export Plug-In . SVG Version: 6.00 Build 0)  -->
<!DOCTYPE svg PUBLIC "-//W3C//DTD SVG 1.1//EN" "http://www.w3.org/Graphics/SVG/1.1/DTD/svg11.dtd">
<svg version="1.1" id="图层_1" xmlns="http://www.w3.org/2000/svg" xmlns:xlink="http://www.w3.org/1999/xlink" x="0px" y="0px"
	 width="1275.59px" height="252.28px" viewBox="0 0 1275.59 252.28" enable-background="new 0 0 1275.59 252.28"
	 xml:space="preserve">
<rect x="0" y="-0.001" fill="#563433" width="1275.59" height="252.283"/>
<rect x="45.452" y="13.226" fill="#020202" width="210.498" height="232"/>
<linearGradient id="SVGID_1_" gradientUnits="userSpaceOnUse" x1="-12924.4453" y1="-388.5259" x2="-12804.7266" y2="-388.5259" gradientTransform="matrix(0 1 -1 0 -291.5254 12967.6982)">
	<stop  offset="0" style="stop-color:#FFFFFF"/>
	<stop  offset="0.1989" style="stop-color:#717071"/>
	<stop  offset="0.4086" style="stop-color:#838383"/>
	<stop  offset="0.7581" style="stop-color:#717071"/>
	<stop  offset="1" style="stop-color:#C2C2C2"/>
</linearGradient>
<path fill="url(#SVGID_1_)" stroke="#151515" stroke-width="3" stroke-miterlimit="10" d="M49.655,162.973
	c-2.32,0-4.203-1.787-4.203-3.992V47.244c0-2.204,1.883-3.99,4.203-3.99h94.691c2.32,0,4.202,1.786,4.202,3.99V158.98
	c0,2.205-1.882,3.992-4.202,3.992H49.655z"/>
<linearGradient id="SVGID_2_" gradientUnits="userSpaceOnUse" x1="-12804.4717" y1="-388.5273" x2="-12722.4717" y2="-388.5273" gradientTransform="matrix(0 1 -1 0 -291.5254 12967.6982)">
	<stop  offset="0" style="stop-color:#FFFFFF"/>
	<stop  offset="0.1989" style="stop-color:#717071"/>
	<stop  offset="0.4086" style="stop-color:#838383"/>
	<stop  offset="0.7581" style="stop-color:#717071"/>
	<stop  offset="1" style="stop-color:#C2C2C2"/>
</linearGradient>
<path fill="url(#SVGID_2_)" stroke="#151515" stroke-width="3" stroke-miterlimit="10" d="M49.657,245.227
	c-2.32,0-4.203-1.225-4.203-2.734v-76.533c0-1.51,1.883-2.732,4.203-2.732h94.691c2.32,0,4.202,1.223,4.202,2.732v76.533
	c0,1.51-1.882,2.734-4.202,2.734H49.657z"/>
<linearGradient id="SVGID_3_" gradientUnits="userSpaceOnUse" x1="-12804.4717" y1="-494.5" x2="-12722.4717" y2="-494.5" gradientTransform="matrix(0 1 -1 0 -291.5254 12967.6982)">
	<stop  offset="0" style="stop-color:#FFFFFF"/>
	<stop  offset="0.1989" style="stop-color:#717071"/>
	<stop  offset="0.4086" style="stop-color:#838383"/>
	<stop  offset="0.7581" style="stop-color:#717071"/>
	<stop  offset="1" style="stop-color:#C2C2C2"/>
</linearGradient>
<path fill="url(#SVGID_3_)" stroke="#151515" stroke-width="3" stroke-miterlimit="10" d="M155.629,245.227
	c-2.32,0-4.203-1.225-4.203-2.734v-76.533c0-1.51,1.883-2.732,4.203-2.732h94.691c2.32,0,4.202,1.223,4.202,2.732v76.533
	c0,1.51-1.882,2.734-4.202,2.734H155.629z"/>
<g>
	<g>
		<g>
			<polygon fill="#050001" points="52.255,83.319 78.319,58.572 115.179,58.572 141.243,83.319 141.243,118.317 115.179,143.064 
				78.319,143.064 52.255,118.317 			"/>
		</g>
		<g>
			<path fill="#929292" d="M56.67,101.191c0-20.775,17.802-37.68,39.685-37.68s39.684,16.904,39.684,37.68
				c0,20.778-17.801,37.682-39.684,37.682S56.67,121.969,56.67,101.191z M133.677,101.191c0-19.537-16.742-35.436-37.322-35.436
				c-20.578,0-37.321,15.898-37.321,35.436c0,19.541,16.743,35.438,37.321,35.438C116.935,136.629,133.677,120.732,133.677,101.191z
				"/>
		</g>
		<g>
			<ellipse fill="#D6D6C9" cx="98.088" cy="100.818" rx="17.174" ry="16.306"/>
		</g>
		<g>
			<path fill="#929292" d="M79.732,101.191c0-9.608,8.235-17.428,18.355-17.428c10.122,0,18.356,7.819,18.356,17.428
				c0,9.611-8.234,17.431-18.356,17.431C87.968,118.622,79.732,110.802,79.732,101.191z M114.08,101.191
				c0-8.371-7.174-15.183-15.992-15.183c-8.816,0-15.991,6.812-15.991,15.183c0,8.374,7.175,15.186,15.991,15.186
				C106.906,116.376,114.08,109.565,114.08,101.191z"/>
		</g>
		<g>
			<path fill="#CBC588" d="M97.693,94.956c3.626,0,6.567,2.793,6.567,6.235c0,3.444-2.941,6.236-6.567,6.236
				c-3.624,0-6.565-2.792-6.565-6.236C91.128,97.749,94.069,94.956,97.693,94.956z"/>
			<path fill="#444126" d="M90.733,101.191c0-3.644,3.123-6.608,6.96-6.608c3.838,0,6.96,2.965,6.96,6.608
				c0,3.646-3.122,6.608-6.96,6.608C93.856,107.799,90.733,104.836,90.733,101.191z M103.866,101.191
				c0-3.229-2.77-5.859-6.173-5.859c-3.402,0-6.173,2.63-6.173,5.859c0,3.232,2.771,5.862,6.173,5.862
				C101.097,107.053,103.866,104.423,103.866,101.191z"/>
		</g>
		<g>
			<path fill="#323023" d="M84.296,101.191c0-7.013,6.011-12.72,13.397-12.72c7.389,0,13.398,5.707,13.398,12.72
				c0,7.016-6.01,12.723-13.398,12.723C90.307,113.914,84.296,108.207,84.296,101.191z M110.305,101.191
				c0-6.601-5.657-11.972-12.611-11.972c-6.952,0-12.609,5.371-12.609,11.972c0,6.604,5.657,11.975,12.609,11.975
				C104.647,113.166,110.305,107.794,110.305,101.191z"/>
		</g>
		<g>
			<path fill="#A8A79F" d="M63.076,131.959l26.418-25.083c4.876-4.97,11.607-3.005,14.487-1.269l0.109,0.065l30.758,29.205
				l-1.672,1.586l-30.565-29.021c-0.888-0.499-6.915-3.609-11.399,0.975l-0.031,0.031l-26.435,25.097L63.076,131.959z"/>
		</g>
		<g>
			<path fill="#A8A79F" d="M63.076,70.104l1.67-1.588l26.466,25.129c4.504,4.606,10.507,1.483,11.398,0.977l30.566-29.023
				l1.672,1.588L104.091,96.39l-0.109,0.067c-2.88,1.735-9.611,3.7-14.487-1.269L63.076,70.104z"/>
		</g>
		<g>
			<g>
				<ellipse fill="#E8E8E8" cx="135.271" cy="136.057" rx="4.738" ry="4.5"/>
			</g>
			<g>
				<g>
					<path fill="#AFAEAE" d="M132.806,138.664c-1.515-1.291-1.641-3.504-0.281-4.945c1.36-1.441,3.692-1.561,5.209-0.271
						c1.516,1.289,1.641,3.504,0.281,4.945C136.653,139.832,134.321,139.955,132.806,138.664"/>
				</g>
				<g>
					<path fill="#929292" d="M131.385,136.057c0-0.91,0.353-1.783,0.993-2.463c1.432-1.514,3.893-1.643,5.486-0.285
						c0.82,0.697,1.29,1.697,1.29,2.744c0,0.912-0.353,1.785-0.993,2.465c-1.432,1.514-3.891,1.645-5.486,0.285
						C131.854,138.105,131.385,137.105,131.385,136.057z M138.761,136.053c0-0.939-0.424-1.84-1.158-2.467
						c-1.434-1.219-3.645-1.105-4.932,0.256c-0.575,0.611-0.893,1.398-0.893,2.215c0,0.941,0.423,1.84,1.159,2.469
						c1.433,1.219,3.646,1.104,4.931-0.258C138.444,137.658,138.761,136.871,138.761,136.053z"/>
				</g>
				<g>
					<g>
						<defs>
							<polygon id="SVGID_4_" points="135.005,131.393 130.36,136.313 135.534,140.719 140.179,135.799 							"/>
						</defs>
						<clipPath id="SVGID_5_">
							<use xlink:href="#SVGID_4_"  overflow="visible"/>
						</clipPath>
						<g clip-path="url(#SVGID_5_)">
							<path fill="#BEBEBD" d="M132.946,138.514c-1.426-1.215-1.546-3.303-0.264-4.66s3.48-1.475,4.909-0.258
								c1.427,1.217,1.547,3.303,0.265,4.662C136.575,139.615,134.376,139.73,132.946,138.514"/>
						</g>
						<g clip-path="url(#SVGID_5_)">
							<path fill="#C0C0C0" d="M133.003,138.457c-1.395-1.188-1.511-3.225-0.259-4.553c1.251-1.324,3.398-1.436,4.792-0.25
								c1.396,1.189,1.512,3.225,0.26,4.553C136.544,139.531,134.397,139.645,133.003,138.457"/>
						</g>
						<g clip-path="url(#SVGID_5_)">
							<path fill="#C2C3C3" d="M133.058,138.398c-1.361-1.158-1.475-3.148-0.253-4.441c1.222-1.295,3.315-1.404,4.677-0.244
								c1.362,1.16,1.476,3.146,0.254,4.441C136.513,139.449,134.419,139.557,133.058,138.398"/>
						</g>
						<g clip-path="url(#SVGID_5_)">
							<path fill="#C4C5C4" d="M133.112,138.34c-1.328-1.129-1.439-3.068-0.246-4.33c1.19-1.264,3.232-1.369,4.561-0.24
								c1.33,1.131,1.439,3.07,0.248,4.334C136.482,139.365,134.44,139.473,133.112,138.34"/>
						</g>
						<g clip-path="url(#SVGID_5_)">
							<path fill="#C6C8C8" d="M133.165,138.281c-1.293-1.1-1.402-2.99-0.238-4.221c1.161-1.23,3.153-1.334,4.447-0.232
								c1.293,1.102,1.401,2.992,0.238,4.223C136.452,139.281,134.46,139.385,133.165,138.281"/>
						</g>
						<g clip-path="url(#SVGID_5_)">
							<path fill="#C9CACB" d="M133.221,138.225c-1.259-1.072-1.364-2.912-0.233-4.113c1.132-1.197,3.072-1.299,4.33-0.225
								c1.262,1.072,1.367,2.914,0.236,4.111C136.421,139.197,134.482,139.299,133.221,138.225"/>
						</g>
						<g clip-path="url(#SVGID_5_)">
							<path fill="#CBCDCD" d="M133.275,138.168c-1.228-1.045-1.329-2.838-0.228-4.006c1.103-1.166,2.99-1.264,4.217-0.219
								s1.33,2.838,0.227,4.004C136.392,139.115,134.503,139.211,133.275,138.168"/>
						</g>
						<g clip-path="url(#SVGID_5_)">
							<path fill="#CCCFD0" d="M133.33,138.109c-1.192-1.014-1.292-2.76-0.222-3.895c1.07-1.133,2.907-1.229,4.1-0.215
								c1.195,1.018,1.294,2.762,0.224,3.896C136.36,139.029,134.522,139.125,133.33,138.109"/>
						</g>
						<g clip-path="url(#SVGID_5_)">
							<path fill="#D0D2D2" d="M133.384,138.051c-1.158-0.986-1.256-2.68-0.214-3.783c1.04-1.104,2.825-1.195,3.985-0.209
								c1.16,0.988,1.257,2.684,0.215,3.785C136.329,138.945,134.544,139.041,133.384,138.051"/>
						</g>
						<g clip-path="url(#SVGID_5_)">
							<path fill="#D2D4D5" d="M133.439,137.994c-1.127-0.959-1.22-2.605-0.209-3.674c1.012-1.072,2.743-1.162,3.87-0.203
								c1.126,0.959,1.221,2.605,0.209,3.676C136.298,138.861,134.566,138.953,133.439,137.994"/>
						</g>
					</g>
				</g>
				<g>
					<polygon fill="#605F5E" points="134.019,134.41 135.235,135.445 136.328,134.289 137.004,134.865 135.91,136.023 
						137.129,137.059 136.522,137.701 135.305,136.664 134.212,137.822 133.534,137.246 134.63,136.09 133.411,135.053 					"/>
				</g>
				<g>
					<path fill="#221714" d="M136.517,137.596l-1.101-0.936l-0.117-0.102l-0.104,0.113l-0.988,1.045l-0.559-0.477l0.988-1.045
						l0.104-0.113l-0.117-0.098l-1.1-0.938l0.501-0.531l1.101,0.938l0.117,0.1l0.105-0.111l0.988-1.045l0.559,0.475l-0.988,1.045
						l-0.106,0.111l0.118,0.1l1.1,0.938L136.517,137.596z M136.528,137.807l0.711-0.754l-1.219-1.035l1.095-1.158l-0.794-0.674
						l-1.093,1.156l-1.218-1.037l-0.71,0.754l1.217,1.037l-1.093,1.156l0.793,0.674l1.092-1.156L136.528,137.807z"/>
				</g>
			</g>
		</g>
		<g>
			<g>
				<ellipse fill="#E8E8E8" cx="60.705" cy="135.885" rx="4.739" ry="4.5"/>
			</g>
			<g>
				<g>
					<path fill="#AFAEAE" d="M58.242,138.494c-1.515-1.291-1.642-3.506-0.282-4.947c1.361-1.439,3.693-1.561,5.209-0.27
						c1.517,1.289,1.643,3.504,0.281,4.945C62.09,139.662,59.759,139.785,58.242,138.494"/>
				</g>
				<g>
					<path fill="#929292" d="M56.821,135.887c0-0.91,0.352-1.785,0.992-2.465c1.432-1.514,3.893-1.643,5.486-0.285
						c0.821,0.699,1.291,1.699,1.291,2.746c0,0.91-0.354,1.785-0.992,2.463c-1.433,1.516-3.893,1.645-5.488,0.287
						C57.29,137.934,56.821,136.934,56.821,135.887z M64.196,135.883c0-0.941-0.422-1.84-1.158-2.467
						c-1.434-1.221-3.645-1.105-4.932,0.256c-0.574,0.611-0.893,1.396-0.893,2.215c0,0.941,0.422,1.842,1.16,2.467
						c1.432,1.221,3.645,1.105,4.932-0.256C63.88,137.488,64.196,136.701,64.196,135.883z"/>
				</g>
				<g>
					<g>
						<defs>
							<polygon id="SVGID_6_" points="60.44,131.223 55.796,136.141 60.971,140.547 65.616,135.629 							"/>
						</defs>
						<clipPath id="SVGID_7_">
							<use xlink:href="#SVGID_6_"  overflow="visible"/>
						</clipPath>
						<g clip-path="url(#SVGID_7_)">
							<path fill="#BEBEBD" d="M58.383,138.344c-1.427-1.217-1.546-3.303-0.264-4.662c1.281-1.357,3.479-1.473,4.909-0.256
								c1.428,1.217,1.546,3.303,0.265,4.662C62.011,139.445,59.812,139.561,58.383,138.344"/>
						</g>
						<g clip-path="url(#SVGID_7_)">
							<path fill="#C0C0C0" d="M58.438,138.285c-1.395-1.188-1.51-3.225-0.258-4.551c1.25-1.326,3.397-1.438,4.791-0.25
								c1.396,1.188,1.513,3.225,0.261,4.553C61.979,139.361,59.834,139.473,58.438,138.285"/>
						</g>
						<g clip-path="url(#SVGID_7_)">
							<path fill="#C2C3C3" d="M58.493,138.227c-1.36-1.158-1.475-3.146-0.252-4.441c1.221-1.293,3.314-1.402,4.676-0.244
								c1.363,1.16,1.477,3.148,0.255,4.441C61.949,139.277,59.854,139.389,58.493,138.227"/>
						</g>
						<g clip-path="url(#SVGID_7_)">
							<path fill="#C4C5C4" d="M58.548,138.17c-1.328-1.131-1.438-3.07-0.246-4.332c1.191-1.262,3.234-1.369,4.563-0.24
								c1.328,1.133,1.438,3.072,0.246,4.334C61.918,139.193,59.876,139.301,58.548,138.17"/>
						</g>
						<g clip-path="url(#SVGID_7_)">
							<path fill="#C6C8C8" d="M58.601,138.113c-1.293-1.102-1.4-2.994-0.238-4.223c1.162-1.23,3.152-1.336,4.447-0.232
								c1.294,1.1,1.401,2.992,0.24,4.221C61.889,139.109,59.896,139.215,58.601,138.113"/>
						</g>
						<g clip-path="url(#SVGID_7_)">
							<path fill="#C9CACB" d="M58.657,138.055c-1.261-1.074-1.365-2.914-0.234-4.113c1.132-1.197,3.071-1.299,4.331-0.227
								c1.261,1.072,1.367,2.916,0.235,4.113C61.857,139.027,59.919,139.129,58.657,138.055"/>
						</g>
						<g clip-path="url(#SVGID_7_)">
							<path fill="#CBCDCD" d="M58.712,137.996c-1.229-1.043-1.33-2.836-0.228-4.004c1.102-1.166,2.989-1.264,4.216-0.219
								c1.226,1.045,1.33,2.836,0.229,4.002C61.827,138.943,59.938,139.041,58.712,137.996"/>
						</g>
						<g clip-path="url(#SVGID_7_)">
							<path fill="#CCCFD0" d="M58.767,137.939c-1.193-1.016-1.293-2.76-0.222-3.895c1.071-1.133,2.907-1.23,4.1-0.215
								c1.194,1.018,1.294,2.76,0.223,3.895C61.797,138.859,59.959,138.955,58.767,137.939"/>
						</g>
						<g clip-path="url(#SVGID_7_)">
							<path fill="#D0D2D2" d="M58.821,137.881c-1.16-0.988-1.257-2.682-0.215-3.785c1.039-1.102,2.824-1.195,3.984-0.207
								s1.258,2.684,0.215,3.785C61.766,138.775,59.981,138.869,58.821,137.881"/>
						</g>
						<g clip-path="url(#SVGID_7_)">
							<path fill="#D2D4D5" d="M58.876,137.822c-1.127-0.957-1.22-2.604-0.209-3.674c1.01-1.068,2.743-1.16,3.869-0.201
								c1.127,0.959,1.221,2.604,0.209,3.674C61.734,138.691,60.003,138.781,58.876,137.822"/>
						</g>
					</g>
				</g>
				<g>
					<polygon fill="#605F5E" points="59.452,134.24 60.671,135.275 61.764,134.119 62.44,134.693 61.347,135.852 62.565,136.889 
						61.958,137.529 60.74,136.494 59.648,137.65 58.972,137.076 60.066,135.918 58.848,134.881 					"/>
				</g>
				<g>
					<path fill="#221714" d="M61.952,137.426l-1.1-0.938l-0.119-0.1L60.63,136.5l-0.987,1.047l-0.56-0.477l0.988-1.047l0.104-0.111
						l-0.117-0.1l-1.103-0.938l0.504-0.529l1.101,0.936l0.117,0.1l0.104-0.111l0.988-1.045l0.559,0.475l-0.987,1.047l-0.106,0.111
						l0.117,0.1l1.102,0.938L61.952,137.426z M61.964,137.637l0.712-0.754l-1.218-1.037l1.093-1.156l-0.793-0.676l-1.093,1.158
						l-1.218-1.037l-0.711,0.754l1.218,1.037l-1.093,1.156l0.792,0.674l1.093-1.154L61.964,137.637z"/>
				</g>
			</g>
		</g>
		<g>
			<g>
				<ellipse fill="#E8E8E8" cx="135.271" cy="65.216" rx="4.738" ry="4.501"/>
			</g>
			<g>
				<g>
					<path fill="#AFAEAE" d="M132.806,67.824c-1.515-1.29-1.641-3.504-0.281-4.945c1.36-1.441,3.692-1.562,5.209-0.27
						c1.516,1.288,1.641,3.503,0.281,4.944C136.653,68.995,134.321,69.116,132.806,67.824"/>
				</g>
				<g>
					<path fill="#929292" d="M131.385,65.218c0-0.91,0.353-1.786,0.993-2.464c1.432-1.515,3.893-1.643,5.486-0.286
						c0.82,0.697,1.29,1.698,1.29,2.745c0,0.91-0.353,1.785-0.993,2.464c-1.432,1.516-3.891,1.645-5.486,0.286
						C131.854,67.266,131.385,66.265,131.385,65.218z M138.761,65.213c0-0.941-0.424-1.84-1.158-2.467
						c-1.434-1.219-3.645-1.104-4.932,0.257c-0.575,0.61-0.893,1.396-0.893,2.215c0,0.94,0.423,1.841,1.159,2.467
						c1.433,1.22,3.646,1.105,4.931-0.257C138.444,66.818,138.761,66.032,138.761,65.213z"/>
				</g>
				<g>
					<g>
						<defs>
							<polygon id="SVGID_8_" points="135.005,60.553 130.36,65.473 135.534,69.878 140.179,64.96 							"/>
						</defs>
						<clipPath id="SVGID_9_">
							<use xlink:href="#SVGID_8_"  overflow="visible"/>
						</clipPath>
						<g clip-path="url(#SVGID_9_)">
							<path fill="#BEBEBD" d="M132.946,67.675c-1.426-1.217-1.546-3.303-0.264-4.662c1.282-1.356,3.48-1.473,4.909-0.257
								c1.427,1.218,1.547,3.305,0.265,4.662C136.575,68.777,134.376,68.89,132.946,67.675"/>
						</g>
						<g clip-path="url(#SVGID_9_)">
							<path fill="#C0C0C0" d="M133.003,67.618c-1.395-1.189-1.511-3.228-0.259-4.553c1.251-1.326,3.398-1.438,4.792-0.249
								c1.396,1.188,1.512,3.224,0.26,4.551C136.544,68.693,134.397,68.804,133.003,67.618"/>
						</g>
						<g clip-path="url(#SVGID_9_)">
							<path fill="#C2C3C3" d="M133.058,67.558c-1.361-1.157-1.475-3.147-0.253-4.44c1.222-1.295,3.315-1.404,4.677-0.245
								c1.362,1.159,1.476,3.148,0.254,4.441C136.513,68.611,134.419,68.718,133.058,67.558"/>
						</g>
						<g clip-path="url(#SVGID_9_)">
							<path fill="#C4C5C4" d="M133.112,67.5c-1.328-1.129-1.439-3.069-0.246-4.331c1.19-1.264,3.232-1.369,4.561-0.239
								c1.33,1.13,1.439,3.071,0.248,4.333C136.482,68.525,134.44,68.631,133.112,67.5"/>
						</g>
						<g clip-path="url(#SVGID_9_)">
							<path fill="#C6C8C8" d="M133.165,67.443c-1.293-1.1-1.402-2.991-0.238-4.223c1.161-1.229,3.153-1.334,4.447-0.232
								c1.293,1.104,1.401,2.994,0.238,4.224C136.452,68.442,134.46,68.545,133.165,67.443"/>
						</g>
						<g clip-path="url(#SVGID_9_)">
							<path fill="#C9CACB" d="M133.221,67.385c-1.259-1.072-1.364-2.913-0.233-4.112c1.132-1.197,3.072-1.299,4.33-0.226
								c1.262,1.072,1.367,2.914,0.236,4.112C136.421,68.358,134.482,68.459,133.221,67.385"/>
						</g>
						<g clip-path="url(#SVGID_9_)">
							<path fill="#CBCDCD" d="M133.275,67.329c-1.228-1.045-1.329-2.838-0.228-4.005c1.103-1.166,2.99-1.264,4.217-0.22
								c1.227,1.045,1.33,2.838,0.227,4.005C136.392,68.275,134.503,68.373,133.275,67.329"/>
						</g>
						<g clip-path="url(#SVGID_9_)">
							<path fill="#CCCFD0" d="M133.33,67.27c-1.192-1.016-1.292-2.76-0.222-3.894s2.907-1.229,4.1-0.215
								c1.195,1.016,1.294,2.76,0.224,3.895C136.36,68.19,134.522,68.286,133.33,67.27"/>
						</g>
						<g clip-path="url(#SVGID_9_)">
							<path fill="#D0D2D2" d="M133.384,67.212c-1.158-0.987-1.256-2.681-0.214-3.784c1.04-1.103,2.825-1.195,3.985-0.209
								c1.16,0.987,1.257,2.684,0.215,3.784C136.329,68.107,134.544,68.2,133.384,67.212"/>
						</g>
						<g clip-path="url(#SVGID_9_)">
							<path fill="#D2D4D5" d="M133.439,67.154c-1.127-0.958-1.22-2.604-0.209-3.674c1.012-1.07,2.743-1.161,3.87-0.202
								c1.126,0.959,1.221,2.604,0.209,3.673C136.298,68.022,134.566,68.114,133.439,67.154"/>
						</g>
					</g>
				</g>
				<g>
					<polygon fill="#605F5E" points="134.019,63.572 135.235,64.607 136.328,63.45 137.004,64.025 135.91,65.183 137.129,66.219 
						136.522,66.862 135.305,65.826 134.212,66.981 133.534,66.408 134.63,65.249 133.411,64.213 					"/>
				</g>
				<g>
					<path fill="#221714" d="M136.517,66.756l-1.101-0.937l-0.117-0.1l-0.104,0.111l-0.988,1.046l-0.559-0.477l0.988-1.047
						l0.104-0.11l-0.117-0.099l-1.1-0.938l0.501-0.53l1.101,0.936l0.117,0.1l0.105-0.11l0.988-1.046l0.559,0.476l-0.988,1.048
						l-0.106,0.109l0.118,0.1l1.1,0.938L136.517,66.756z M136.528,66.968l0.711-0.754l-1.219-1.037l1.095-1.157l-0.794-0.674
						l-1.093,1.156l-1.218-1.037l-0.71,0.753l1.217,1.037l-1.093,1.156l0.793,0.676l1.092-1.155L136.528,66.968z"/>
				</g>
			</g>
		</g>
		<g>
			<g>
				<ellipse fill="#E8E8E8" cx="60.705" cy="66.392" rx="4.739" ry="4.5"/>
			</g>
			<g>
				<g>
					<path fill="#AFAEAE" d="M58.242,69c-1.515-1.29-1.642-3.505-0.282-4.945c1.361-1.441,3.693-1.562,5.209-0.271
						c1.517,1.29,1.643,3.505,0.281,4.945C62.09,70.169,59.759,70.292,58.242,69"/>
				</g>
				<g>
					<path fill="#929292" d="M56.821,66.394c0-0.911,0.352-1.784,0.992-2.464c1.432-1.515,3.893-1.645,5.486-0.285
						c0.821,0.696,1.291,1.697,1.291,2.745c0,0.909-0.354,1.785-0.992,2.463c-1.433,1.516-3.893,1.645-5.488,0.287
						C57.29,68.44,56.821,67.44,56.821,66.394z M64.196,66.39c0-0.942-0.422-1.841-1.158-2.467
						c-1.434-1.221-3.645-1.105-4.932,0.256c-0.574,0.61-0.893,1.396-0.893,2.215c0,0.94,0.422,1.84,1.16,2.468
						c1.432,1.219,3.645,1.104,4.932-0.258C63.88,67.995,64.196,67.208,64.196,66.39z"/>
				</g>
				<g>
					<g>
						<defs>
							<polygon id="SVGID_10_" points="60.44,61.73 55.796,66.649 60.971,71.054 65.616,66.134 							"/>
						</defs>
						<clipPath id="SVGID_11_">
							<use xlink:href="#SVGID_10_"  overflow="visible"/>
						</clipPath>
						<g clip-path="url(#SVGID_11_)">
							<path fill="#BEBEBD" d="M58.383,68.851c-1.427-1.216-1.546-3.304-0.264-4.662c1.281-1.357,3.479-1.473,4.909-0.257
								c1.428,1.219,1.546,3.304,0.265,4.662C62.011,69.953,59.812,70.067,58.383,68.851"/>
						</g>
						<g clip-path="url(#SVGID_11_)">
							<path fill="#C0C0C0" d="M58.438,68.793c-1.395-1.188-1.51-3.228-0.258-4.551c1.25-1.328,3.397-1.439,4.791-0.253
								c1.396,1.19,1.513,3.228,0.261,4.555C61.979,69.869,59.834,69.98,58.438,68.793"/>
						</g>
						<g clip-path="url(#SVGID_11_)">
							<path fill="#C2C3C3" d="M58.493,68.735c-1.36-1.159-1.475-3.147-0.252-4.441c1.221-1.295,3.314-1.403,4.676-0.244
								c1.363,1.158,1.477,3.147,0.255,4.44C61.949,69.785,59.854,69.895,58.493,68.735"/>
						</g>
						<g clip-path="url(#SVGID_11_)">
							<path fill="#C4C5C4" d="M58.548,68.676c-1.328-1.129-1.438-3.069-0.246-4.332c1.191-1.262,3.234-1.368,4.563-0.239
								c1.328,1.133,1.438,3.072,0.246,4.334C61.918,69.702,59.876,69.807,58.548,68.676"/>
						</g>
						<g clip-path="url(#SVGID_11_)">
							<path fill="#C6C8C8" d="M58.601,68.62c-1.293-1.101-1.4-2.993-0.238-4.223s3.152-1.333,4.447-0.233
								c1.294,1.103,1.401,2.994,0.24,4.225C61.889,69.618,59.896,69.72,58.601,68.62"/>
						</g>
						<g clip-path="url(#SVGID_11_)">
							<path fill="#C9CACB" d="M58.657,68.56c-1.261-1.072-1.365-2.914-0.234-4.112c1.132-1.196,3.071-1.299,4.331-0.226
								c1.261,1.073,1.367,2.915,0.235,4.114C61.857,69.534,59.919,69.634,58.657,68.56"/>
						</g>
						<g clip-path="url(#SVGID_11_)">
							<path fill="#CBCDCD" d="M58.712,68.502c-1.229-1.043-1.33-2.836-0.228-4.003c1.102-1.167,2.989-1.264,4.216-0.22
								c1.226,1.046,1.33,2.836,0.229,4.003C61.827,69.452,59.938,69.549,58.712,68.502"/>
						</g>
						<g clip-path="url(#SVGID_11_)">
							<path fill="#CCCFD0" d="M58.767,68.446c-1.193-1.016-1.293-2.759-0.222-3.894s2.907-1.229,4.1-0.215
								c1.194,1.016,1.294,2.76,0.223,3.894C61.797,69.366,59.959,69.462,58.767,68.446"/>
						</g>
						<g clip-path="url(#SVGID_11_)">
							<path fill="#D0D2D2" d="M58.821,68.388c-1.16-0.989-1.257-2.682-0.215-3.784c1.039-1.102,2.824-1.196,3.984-0.208
								s1.258,2.683,0.215,3.784C61.766,69.282,59.981,69.375,58.821,68.388"/>
						</g>
						<g clip-path="url(#SVGID_11_)">
							<path fill="#D2D4D5" d="M58.876,68.33c-1.127-0.958-1.22-2.604-0.209-3.674c1.01-1.07,2.743-1.161,3.869-0.201
								c1.127,0.957,1.221,2.603,0.209,3.674C61.734,69.198,60.003,69.29,58.876,68.33"/>
						</g>
					</g>
				</g>
				<g>
					<polygon fill="#605F5E" points="59.452,64.748 60.671,65.782 61.764,64.626 62.44,65.202 61.347,66.36 62.565,67.396 
						61.958,68.038 60.74,67.001 59.648,68.158 58.972,67.584 60.066,66.425 58.848,65.389 					"/>
				</g>
				<g>
					<path fill="#221714" d="M61.952,67.932l-1.1-0.937l-0.119-0.1l-0.104,0.111l-0.987,1.047l-0.56-0.477l0.988-1.048l0.104-0.11
						l-0.117-0.099l-1.103-0.938l0.504-0.529l1.101,0.937l0.117,0.099l0.104-0.111l0.988-1.045l0.559,0.476l-0.987,1.045
						l-0.106,0.112l0.117,0.099l1.102,0.938L61.952,67.932z M61.964,68.143l0.712-0.752l-1.218-1.038l1.093-1.156l-0.793-0.676
						l-1.093,1.157l-1.218-1.037l-0.711,0.754l1.218,1.036l-1.093,1.157l0.792,0.676l1.093-1.157L61.964,68.143z"/>
				</g>
			</g>
		</g>
	</g>
	<g>
		<rect x="112.829" y="58.572" fill="#B2B1B1" width="2.35" height="84.493"/>
		<rect x="95.573" y="58.572" fill="#B2B1B1" width="2.35" height="84.493"/>
		<rect x="78.318" y="58.572" fill="#B2B1B1" width="2.35" height="84.493"/>
	</g>
	<g>
		<rect x="52.255" y="116.087" fill="#B2B1B1" width="88.988" height="2.229"/>
		<rect x="52.255" y="99.703" fill="#B2B1B1" width="88.988" height="2.23"/>
		<rect x="52.255" y="83.319" fill="#B2B1B1" width="88.988" height="2.23"/>
	</g>
</g>
<linearGradient id="SVGID_12_" gradientUnits="userSpaceOnUse" x1="-12924.4453" y1="-494.9272" x2="-12804.7266" y2="-494.9272" gradientTransform="matrix(0 1 -1 0 -291.5254 12967.6982)">
	<stop  offset="0" style="stop-color:#FFFFFF"/>
	<stop  offset="0.1989" style="stop-color:#717071"/>
	<stop  offset="0.4086" style="stop-color:#838383"/>
	<stop  offset="0.7581" style="stop-color:#717071"/>
	<stop  offset="1" style="stop-color:#C2C2C2"/>
</linearGradient>
<path fill="url(#SVGID_12_)" stroke="#151515" stroke-width="3" stroke-miterlimit="10" d="M156.057,162.973
	c-2.32,0-4.203-1.787-4.203-3.992V47.244c0-2.204,1.883-3.99,4.203-3.99h94.691c2.32,0,4.202,1.786,4.202,3.99V158.98
	c0,2.205-1.882,3.992-4.202,3.992H156.057z"/>
<g>
	<g>
		<g>
			<polygon fill="#050001" points="158.656,83.319 184.721,58.572 221.58,58.572 247.645,83.319 247.645,118.317 221.58,143.064 
				184.721,143.064 158.656,118.317 			"/>
		</g>
		<g>
			<path fill="#929292" d="M163.071,101.191c0-20.775,17.802-37.68,39.685-37.68s39.684,16.904,39.684,37.68
				c0,20.778-17.801,37.682-39.684,37.682S163.071,121.969,163.071,101.191z M240.078,101.191c0-19.537-16.742-35.436-37.322-35.436
				c-20.578,0-37.321,15.898-37.321,35.436c0,19.541,16.743,35.438,37.321,35.438C223.336,136.629,240.078,120.732,240.078,101.191z
				"/>
		</g>
		<g>
			<ellipse fill="#D6D6C9" cx="204.489" cy="100.818" rx="17.174" ry="16.306"/>
		</g>
		<g>
			<path fill="#929292" d="M186.134,101.191c0-9.608,8.235-17.428,18.355-17.428c10.122,0,18.356,7.819,18.356,17.428
				c0,9.611-8.234,17.431-18.356,17.431C194.369,118.622,186.134,110.802,186.134,101.191z M220.481,101.191
				c0-8.371-7.174-15.183-15.992-15.183c-8.816,0-15.991,6.812-15.991,15.183c0,8.374,7.175,15.186,15.991,15.186
				C213.308,116.376,220.481,109.565,220.481,101.191z"/>
		</g>
		<g>
			<path fill="#CBC588" d="M204.095,94.956c3.626,0,6.567,2.793,6.567,6.235c0,3.444-2.941,6.236-6.567,6.236
				c-3.624,0-6.565-2.792-6.565-6.236C197.529,97.749,200.471,94.956,204.095,94.956z"/>
			<path fill="#444126" d="M197.135,101.191c0-3.644,3.123-6.608,6.96-6.608c3.838,0,6.96,2.965,6.96,6.608
				c0,3.646-3.122,6.608-6.96,6.608C200.258,107.799,197.135,104.836,197.135,101.191z M210.268,101.191
				c0-3.229-2.77-5.859-6.173-5.859c-3.402,0-6.173,2.63-6.173,5.859c0,3.232,2.771,5.862,6.173,5.862
				C207.498,107.053,210.268,104.423,210.268,101.191z"/>
		</g>
		<g>
			<path fill="#323023" d="M190.697,101.191c0-7.013,6.011-12.72,13.397-12.72c7.389,0,13.398,5.707,13.398,12.72
				c0,7.016-6.01,12.723-13.398,12.723C196.708,113.914,190.697,108.207,190.697,101.191z M216.706,101.191
				c0-6.601-5.657-11.972-12.611-11.972c-6.952,0-12.609,5.371-12.609,11.972c0,6.604,5.657,11.975,12.609,11.975
				C211.049,113.166,216.706,107.794,216.706,101.191z"/>
		</g>
		<g>
			<path fill="#A8A79F" d="M169.478,131.959l26.418-25.083c4.876-4.97,11.607-3.005,14.487-1.269l0.109,0.065l30.758,29.205
				l-1.672,1.586l-30.565-29.021c-0.888-0.499-6.915-3.609-11.399,0.975l-0.031,0.031l-26.435,25.097L169.478,131.959z"/>
		</g>
		<g>
			<path fill="#A8A79F" d="M169.478,70.104l1.67-1.588l26.466,25.129c4.504,4.606,10.507,1.483,11.398,0.977l30.566-29.023
				l1.672,1.588L210.492,96.39l-0.109,0.067c-2.88,1.735-9.611,3.7-14.487-1.269L169.478,70.104z"/>
		</g>
		<g>
			<g>
				<ellipse fill="#E8E8E8" cx="241.672" cy="136.057" rx="4.738" ry="4.5"/>
			</g>
			<g>
				<g>
					<path fill="#AFAEAE" d="M239.207,138.664c-1.515-1.291-1.64-3.504-0.281-4.945c1.36-1.441,3.692-1.561,5.209-0.271
						c1.516,1.289,1.641,3.504,0.281,4.945C243.055,139.832,240.723,139.955,239.207,138.664"/>
				</g>
				<g>
					<path fill="#929292" d="M237.786,136.057c0-0.91,0.353-1.783,0.993-2.463c1.432-1.514,3.893-1.643,5.486-0.285
						c0.82,0.697,1.29,1.697,1.29,2.744c0,0.912-0.353,1.785-0.993,2.465c-1.432,1.514-3.891,1.645-5.486,0.285
						C238.256,138.105,237.786,137.105,237.786,136.057z M245.162,136.053c0-0.939-0.424-1.84-1.158-2.467
						c-1.434-1.219-3.645-1.105-4.932,0.256c-0.575,0.611-0.893,1.398-0.893,2.215c0,0.941,0.423,1.84,1.159,2.469
						c1.433,1.219,3.646,1.104,4.931-0.258C244.846,137.658,245.162,136.871,245.162,136.053z"/>
				</g>
				<g>
					<g>
						<defs>
							<polygon id="SVGID_13_" points="241.406,131.393 236.762,136.313 241.936,140.719 246.58,135.799 							"/>
						</defs>
						<clipPath id="SVGID_14_">
							<use xlink:href="#SVGID_13_"  overflow="visible"/>
						</clipPath>
						<g clip-path="url(#SVGID_14_)">
							<path fill="#BEBEBD" d="M239.348,138.514c-1.426-1.215-1.546-3.303-0.264-4.66s3.48-1.475,4.909-0.258
								c1.427,1.217,1.547,3.303,0.265,4.662C242.977,139.615,240.777,139.73,239.348,138.514"/>
						</g>
						<g clip-path="url(#SVGID_14_)">
							<path fill="#C0C0C0" d="M239.404,138.457c-1.395-1.188-1.511-3.225-0.259-4.553c1.251-1.324,3.398-1.436,4.792-0.25
								c1.396,1.189,1.512,3.225,0.26,4.553C242.945,139.531,240.799,139.645,239.404,138.457"/>
						</g>
						<g clip-path="url(#SVGID_14_)">
							<path fill="#C2C3C3" d="M239.459,138.398c-1.361-1.158-1.475-3.148-0.253-4.441c1.222-1.295,3.315-1.404,4.677-0.244
								c1.362,1.16,1.476,3.146,0.254,4.441C242.914,139.449,240.82,139.557,239.459,138.398"/>
						</g>
						<g clip-path="url(#SVGID_14_)">
							<path fill="#C4C5C4" d="M239.514,138.34c-1.328-1.129-1.439-3.068-0.246-4.33c1.19-1.264,3.232-1.369,4.561-0.24
								c1.33,1.131,1.439,3.07,0.248,4.334C242.884,139.365,240.842,139.473,239.514,138.34"/>
						</g>
						<g clip-path="url(#SVGID_14_)">
							<path fill="#C6C8C8" d="M239.567,138.281c-1.293-1.1-1.403-2.99-0.239-4.221c1.161-1.23,3.153-1.334,4.447-0.232
								c1.293,1.102,1.401,2.992,0.238,4.223C242.854,139.281,240.861,139.385,239.567,138.281"/>
						</g>
						<g clip-path="url(#SVGID_14_)">
							<path fill="#C9CACB" d="M239.622,138.225c-1.259-1.072-1.364-2.912-0.233-4.113c1.132-1.197,3.072-1.299,4.33-0.225
								c1.262,1.072,1.367,2.914,0.236,4.111C242.822,139.197,240.884,139.299,239.622,138.225"/>
						</g>
						<g clip-path="url(#SVGID_14_)">
							<path fill="#CBCDCD" d="M239.677,138.168c-1.228-1.045-1.329-2.838-0.228-4.006c1.103-1.166,2.99-1.264,4.217-0.219
								s1.33,2.838,0.227,4.004C242.793,139.115,240.904,139.211,239.677,138.168"/>
						</g>
						<g clip-path="url(#SVGID_14_)">
							<path fill="#CCCFD0" d="M239.731,138.109c-1.192-1.014-1.292-2.76-0.222-3.895c1.07-1.133,2.907-1.229,4.1-0.215
								c1.195,1.018,1.294,2.762,0.224,3.896C242.762,139.029,240.924,139.125,239.731,138.109"/>
						</g>
						<g clip-path="url(#SVGID_14_)">
							<path fill="#D0D2D2" d="M239.785,138.051c-1.158-0.986-1.256-2.68-0.214-3.783c1.04-1.104,2.825-1.195,3.985-0.209
								c1.16,0.988,1.257,2.684,0.215,3.785C242.73,138.945,240.945,139.041,239.785,138.051"/>
						</g>
						<g clip-path="url(#SVGID_14_)">
							<path fill="#D2D4D5" d="M239.841,137.994c-1.127-0.959-1.22-2.605-0.209-3.674c1.012-1.072,2.743-1.162,3.87-0.203
								c1.126,0.959,1.221,2.605,0.209,3.676C242.699,138.861,240.968,138.953,239.841,137.994"/>
						</g>
					</g>
				</g>
				<g>
					<polygon fill="#605F5E" points="240.42,134.41 241.637,135.445 242.729,134.289 243.405,134.865 242.312,136.023 
						243.53,137.059 242.924,137.701 241.706,136.664 240.613,137.822 239.936,137.246 241.031,136.09 239.813,135.053 					"/>
				</g>
				<g>
					<path fill="#221714" d="M242.918,137.596l-1.101-0.936l-0.117-0.102l-0.104,0.113l-0.988,1.045l-0.559-0.477l0.988-1.045
						l0.104-0.113l-0.117-0.098l-1.1-0.938l0.501-0.531l1.101,0.938l0.117,0.1l0.105-0.111l0.988-1.045l0.559,0.475l-0.988,1.045
						l-0.106,0.111l0.118,0.1l1.1,0.938L242.918,137.596z M242.93,137.807l0.711-0.754l-1.219-1.035l1.095-1.158l-0.794-0.674
						l-1.093,1.156l-1.218-1.037l-0.71,0.754l1.217,1.037l-1.093,1.156l0.793,0.674l1.092-1.156L242.93,137.807z"/>
				</g>
			</g>
		</g>
		<g>
			<g>
				<ellipse fill="#E8E8E8" cx="167.106" cy="135.885" rx="4.739" ry="4.5"/>
			</g>
			<g>
				<g>
					<path fill="#AFAEAE" d="M164.644,138.494c-1.515-1.291-1.642-3.506-0.282-4.947c1.361-1.439,3.693-1.561,5.209-0.27
						c1.517,1.289,1.643,3.504,0.281,4.945C168.491,139.662,166.16,139.785,164.644,138.494"/>
				</g>
				<g>
					<path fill="#929292" d="M163.223,135.887c0-0.91,0.352-1.785,0.992-2.465c1.432-1.514,3.893-1.643,5.486-0.285
						c0.821,0.699,1.291,1.699,1.291,2.746c0,0.91-0.354,1.785-0.992,2.463c-1.433,1.516-3.893,1.645-5.488,0.287
						C163.692,137.934,163.223,136.934,163.223,135.887z M170.598,135.883c0-0.941-0.422-1.84-1.158-2.467
						c-1.434-1.221-3.645-1.105-4.932,0.256c-0.574,0.611-0.893,1.396-0.893,2.215c0,0.941,0.422,1.842,1.16,2.467
						c1.432,1.221,3.645,1.105,4.932-0.256C170.281,137.488,170.598,136.701,170.598,135.883z"/>
				</g>
				<g>
					<g>
						<defs>
							<polygon id="SVGID_15_" points="166.842,131.223 162.197,136.141 167.372,140.547 172.018,135.629 							"/>
						</defs>
						<clipPath id="SVGID_16_">
							<use xlink:href="#SVGID_15_"  overflow="visible"/>
						</clipPath>
						<g clip-path="url(#SVGID_16_)">
							<path fill="#BEBEBD" d="M164.784,138.344c-1.427-1.217-1.546-3.303-0.264-4.662c1.281-1.357,3.479-1.473,4.909-0.256
								c1.428,1.217,1.546,3.303,0.265,4.662C168.412,139.445,166.213,139.561,164.784,138.344"/>
						</g>
						<g clip-path="url(#SVGID_16_)">
							<path fill="#C0C0C0" d="M164.84,138.285c-1.395-1.188-1.51-3.225-0.258-4.551c1.25-1.326,3.397-1.438,4.791-0.25
								c1.396,1.188,1.513,3.225,0.261,4.553C168.381,139.361,166.235,139.473,164.84,138.285"/>
						</g>
						<g clip-path="url(#SVGID_16_)">
							<path fill="#C2C3C3" d="M164.895,138.227c-1.36-1.158-1.475-3.146-0.252-4.441c1.221-1.293,3.314-1.402,4.676-0.244
								c1.363,1.16,1.477,3.148,0.255,4.441C168.351,139.277,166.256,139.389,164.895,138.227"/>
						</g>
						<g clip-path="url(#SVGID_16_)">
							<path fill="#C4C5C4" d="M164.949,138.17c-1.328-1.131-1.438-3.07-0.246-4.332c1.191-1.262,3.234-1.369,4.563-0.24
								c1.328,1.133,1.438,3.072,0.246,4.334C168.319,139.193,166.277,139.301,164.949,138.17"/>
						</g>
						<g clip-path="url(#SVGID_16_)">
							<path fill="#C6C8C8" d="M165.002,138.113c-1.293-1.102-1.4-2.994-0.238-4.223c1.162-1.23,3.152-1.336,4.447-0.232
								c1.294,1.1,1.401,2.992,0.24,4.221C168.29,139.109,166.298,139.215,165.002,138.113"/>
						</g>
						<g clip-path="url(#SVGID_16_)">
							<path fill="#C9CACB" d="M165.059,138.055c-1.261-1.074-1.365-2.914-0.234-4.113c1.132-1.197,3.071-1.299,4.331-0.227
								c1.261,1.072,1.367,2.916,0.235,4.113C168.259,139.027,166.32,139.129,165.059,138.055"/>
						</g>
						<g clip-path="url(#SVGID_16_)">
							<path fill="#CBCDCD" d="M165.113,137.996c-1.229-1.043-1.33-2.836-0.228-4.004c1.102-1.166,2.989-1.264,4.216-0.219
								c1.226,1.045,1.33,2.836,0.229,4.002C168.229,138.943,166.34,139.041,165.113,137.996"/>
						</g>
						<g clip-path="url(#SVGID_16_)">
							<path fill="#CCCFD0" d="M165.168,137.939c-1.193-1.016-1.293-2.76-0.222-3.895c1.071-1.133,2.907-1.23,4.1-0.215
								c1.194,1.018,1.294,2.76,0.223,3.895C168.198,138.859,166.36,138.955,165.168,137.939"/>
						</g>
						<g clip-path="url(#SVGID_16_)">
							<path fill="#D0D2D2" d="M165.223,137.881c-1.16-0.988-1.257-2.682-0.215-3.785c1.039-1.102,2.824-1.195,3.984-0.207
								s1.258,2.684,0.215,3.785C168.167,138.775,166.383,138.869,165.223,137.881"/>
						</g>
						<g clip-path="url(#SVGID_16_)">
							<path fill="#D2D4D5" d="M165.277,137.822c-1.127-0.957-1.22-2.604-0.209-3.674c1.01-1.068,2.743-1.16,3.869-0.201
								c1.127,0.959,1.221,2.604,0.209,3.674C168.136,138.691,166.404,138.781,165.277,137.822"/>
						</g>
					</g>
				</g>
				<g>
					<polygon fill="#605F5E" points="165.854,134.24 167.072,135.275 168.165,134.119 168.842,134.693 167.748,135.852 
						168.967,136.889 168.359,137.529 167.142,136.494 166.05,137.65 165.373,137.076 166.468,135.918 165.249,134.881 					"/>
				</g>
				<g>
					<path fill="#221714" d="M168.354,137.426l-1.1-0.938l-0.119-0.1l-0.104,0.111l-0.987,1.047l-0.56-0.477l0.988-1.047
						l0.104-0.111l-0.117-0.1l-1.103-0.938l0.504-0.529l1.101,0.936l0.117,0.1l0.104-0.111l0.988-1.045l0.559,0.475l-0.987,1.047
						l-0.106,0.111l0.117,0.1l1.102,0.938L168.354,137.426z M168.365,137.637l0.712-0.754l-1.218-1.037l1.093-1.156l-0.793-0.676
						l-1.092,1.158l-1.218-1.037l-0.711,0.754l1.218,1.037l-1.093,1.156l0.792,0.674l1.093-1.154L168.365,137.637z"/>
				</g>
			</g>
		</g>
		<g>
			<g>
				<ellipse fill="#E8E8E8" cx="241.672" cy="65.216" rx="4.738" ry="4.501"/>
			</g>
			<g>
				<g>
					<path fill="#AFAEAE" d="M239.207,67.824c-1.515-1.29-1.64-3.504-0.281-4.945c1.36-1.441,3.692-1.562,5.209-0.27
						c1.516,1.288,1.641,3.503,0.281,4.944C243.055,68.995,240.723,69.116,239.207,67.824"/>
				</g>
				<g>
					<path fill="#929292" d="M237.786,65.218c0-0.91,0.353-1.786,0.993-2.464c1.432-1.515,3.893-1.643,5.486-0.286
						c0.82,0.697,1.29,1.698,1.29,2.745c0,0.91-0.353,1.785-0.993,2.464c-1.432,1.516-3.891,1.645-5.486,0.286
						C238.256,67.266,237.786,66.265,237.786,65.218z M245.162,65.213c0-0.941-0.424-1.84-1.158-2.467
						c-1.434-1.219-3.645-1.104-4.932,0.257c-0.575,0.61-0.893,1.396-0.893,2.215c0,0.94,0.423,1.841,1.159,2.467
						c1.433,1.22,3.646,1.105,4.931-0.257C244.846,66.818,245.162,66.032,245.162,65.213z"/>
				</g>
				<g>
					<g>
						<defs>
							<polygon id="SVGID_17_" points="241.406,60.553 236.762,65.473 241.936,69.878 246.58,64.96 							"/>
						</defs>
						<clipPath id="SVGID_18_">
							<use xlink:href="#SVGID_17_"  overflow="visible"/>
						</clipPath>
						<g clip-path="url(#SVGID_18_)">
							<path fill="#BEBEBD" d="M239.348,67.675c-1.426-1.217-1.546-3.303-0.264-4.662c1.282-1.356,3.48-1.473,4.909-0.257
								c1.427,1.218,1.547,3.305,0.265,4.662C242.977,68.777,240.777,68.89,239.348,67.675"/>
						</g>
						<g clip-path="url(#SVGID_18_)">
							<path fill="#C0C0C0" d="M239.404,67.618c-1.395-1.189-1.511-3.228-0.259-4.553c1.251-1.326,3.398-1.438,4.792-0.249
								c1.396,1.188,1.512,3.224,0.26,4.551C242.945,68.693,240.799,68.804,239.404,67.618"/>
						</g>
						<g clip-path="url(#SVGID_18_)">
							<path fill="#C2C3C3" d="M239.459,67.558c-1.361-1.157-1.475-3.147-0.253-4.44c1.222-1.295,3.315-1.404,4.677-0.245
								c1.362,1.159,1.476,3.148,0.254,4.441C242.914,68.611,240.82,68.718,239.459,67.558"/>
						</g>
						<g clip-path="url(#SVGID_18_)">
							<path fill="#C4C5C4" d="M239.514,67.5c-1.328-1.129-1.439-3.069-0.246-4.331c1.19-1.264,3.232-1.369,4.561-0.239
								c1.33,1.13,1.439,3.071,0.248,4.333C242.884,68.525,240.842,68.631,239.514,67.5"/>
						</g>
						<g clip-path="url(#SVGID_18_)">
							<path fill="#C6C8C8" d="M239.567,67.443c-1.293-1.1-1.403-2.991-0.239-4.223c1.161-1.229,3.153-1.334,4.447-0.232
								c1.293,1.104,1.401,2.994,0.238,4.224C242.854,68.442,240.861,68.545,239.567,67.443"/>
						</g>
						<g clip-path="url(#SVGID_18_)">
							<path fill="#C9CACB" d="M239.622,67.385c-1.259-1.072-1.364-2.913-0.233-4.112c1.132-1.197,3.072-1.299,4.33-0.226
								c1.262,1.072,1.367,2.914,0.236,4.112C242.822,68.358,240.884,68.459,239.622,67.385"/>
						</g>
						<g clip-path="url(#SVGID_18_)">
							<path fill="#CBCDCD" d="M239.677,67.329c-1.228-1.045-1.329-2.838-0.228-4.005c1.103-1.166,2.99-1.264,4.217-0.22
								c1.227,1.045,1.33,2.838,0.227,4.005C242.793,68.275,240.904,68.373,239.677,67.329"/>
						</g>
						<g clip-path="url(#SVGID_18_)">
							<path fill="#CCCFD0" d="M239.731,67.27c-1.192-1.016-1.292-2.76-0.222-3.894s2.907-1.229,4.1-0.215
								c1.195,1.016,1.294,2.76,0.224,3.895C242.762,68.19,240.924,68.286,239.731,67.27"/>
						</g>
						<g clip-path="url(#SVGID_18_)">
							<path fill="#D0D2D2" d="M239.785,67.212c-1.158-0.987-1.256-2.681-0.214-3.784c1.04-1.103,2.825-1.195,3.985-0.209
								c1.16,0.987,1.257,2.684,0.215,3.784C242.73,68.107,240.945,68.2,239.785,67.212"/>
						</g>
						<g clip-path="url(#SVGID_18_)">
							<path fill="#D2D4D5" d="M239.841,67.154c-1.127-0.958-1.22-2.604-0.209-3.674c1.012-1.07,2.743-1.161,3.87-0.202
								c1.126,0.959,1.221,2.604,0.209,3.673C242.699,68.022,240.968,68.114,239.841,67.154"/>
						</g>
					</g>
				</g>
				<g>
					<polygon fill="#605F5E" points="240.42,63.572 241.637,64.607 242.729,63.45 243.405,64.025 242.312,65.183 243.53,66.219 
						242.924,66.862 241.706,65.826 240.613,66.981 239.936,66.408 241.031,65.249 239.813,64.213 					"/>
				</g>
				<g>
					<path fill="#221714" d="M242.918,66.756l-1.101-0.937l-0.117-0.1l-0.104,0.111l-0.988,1.046l-0.559-0.477l0.988-1.047
						l0.104-0.11l-0.117-0.099l-1.1-0.938l0.501-0.53l1.101,0.936l0.117,0.1l0.105-0.11l0.988-1.046l0.559,0.476l-0.988,1.048
						l-0.106,0.109l0.118,0.1l1.1,0.938L242.918,66.756z M242.93,66.968l0.711-0.754l-1.219-1.037l1.095-1.157l-0.794-0.674
						l-1.093,1.156l-1.218-1.037l-0.71,0.753l1.217,1.037l-1.093,1.156l0.793,0.676l1.092-1.155L242.93,66.968z"/>
				</g>
			</g>
		</g>
		<g>
			<g>
				<ellipse fill="#E8E8E8" cx="167.106" cy="66.392" rx="4.739" ry="4.5"/>
			</g>
			<g>
				<g>
					<path fill="#AFAEAE" d="M164.644,69c-1.515-1.29-1.642-3.505-0.282-4.945c1.361-1.441,3.693-1.562,5.209-0.271
						c1.517,1.29,1.643,3.505,0.281,4.945C168.491,70.169,166.16,70.292,164.644,69"/>
				</g>
				<g>
					<path fill="#929292" d="M163.223,66.394c0-0.911,0.352-1.784,0.992-2.464c1.432-1.515,3.893-1.645,5.486-0.285
						c0.821,0.696,1.291,1.697,1.291,2.745c0,0.909-0.354,1.785-0.992,2.463c-1.433,1.516-3.893,1.645-5.488,0.287
						C163.692,68.44,163.223,67.44,163.223,66.394z M170.598,66.39c0-0.942-0.422-1.841-1.158-2.467
						c-1.434-1.221-3.645-1.105-4.932,0.256c-0.574,0.61-0.893,1.396-0.893,2.215c0,0.94,0.422,1.84,1.16,2.468
						c1.432,1.219,3.645,1.104,4.932-0.258C170.281,67.995,170.598,67.208,170.598,66.39z"/>
				</g>
				<g>
					<g>
						<defs>
							<polygon id="SVGID_19_" points="166.842,61.73 162.197,66.649 167.372,71.054 172.018,66.134 							"/>
						</defs>
						<clipPath id="SVGID_20_">
							<use xlink:href="#SVGID_19_"  overflow="visible"/>
						</clipPath>
						<g clip-path="url(#SVGID_20_)">
							<path fill="#BEBEBD" d="M164.784,68.851c-1.427-1.216-1.546-3.304-0.264-4.662c1.281-1.357,3.479-1.473,4.909-0.257
								c1.428,1.219,1.546,3.304,0.265,4.662C168.412,69.953,166.213,70.067,164.784,68.851"/>
						</g>
						<g clip-path="url(#SVGID_20_)">
							<path fill="#C0C0C0" d="M164.84,68.793c-1.395-1.188-1.51-3.228-0.258-4.551c1.25-1.328,3.397-1.439,4.791-0.253
								c1.396,1.19,1.513,3.228,0.261,4.555C168.381,69.869,166.235,69.98,164.84,68.793"/>
						</g>
						<g clip-path="url(#SVGID_20_)">
							<path fill="#C2C3C3" d="M164.895,68.735c-1.36-1.159-1.475-3.147-0.252-4.441c1.221-1.295,3.314-1.403,4.676-0.244
								c1.363,1.158,1.477,3.147,0.255,4.44C168.351,69.785,166.256,69.895,164.895,68.735"/>
						</g>
						<g clip-path="url(#SVGID_20_)">
							<path fill="#C4C5C4" d="M164.949,68.676c-1.328-1.129-1.438-3.069-0.246-4.332c1.191-1.262,3.234-1.368,4.563-0.239
								c1.328,1.133,1.438,3.072,0.246,4.334C168.319,69.702,166.277,69.807,164.949,68.676"/>
						</g>
						<g clip-path="url(#SVGID_20_)">
							<path fill="#C6C8C8" d="M165.002,68.62c-1.293-1.101-1.4-2.993-0.238-4.223s3.152-1.333,4.447-0.233
								c1.294,1.103,1.401,2.994,0.24,4.225C168.29,69.618,166.298,69.72,165.002,68.62"/>
						</g>
						<g clip-path="url(#SVGID_20_)">
							<path fill="#C9CACB" d="M165.059,68.56c-1.261-1.072-1.365-2.914-0.234-4.112c1.132-1.196,3.071-1.299,4.331-0.226
								c1.261,1.073,1.367,2.915,0.235,4.114C168.259,69.534,166.32,69.634,165.059,68.56"/>
						</g>
						<g clip-path="url(#SVGID_20_)">
							<path fill="#CBCDCD" d="M165.113,68.502c-1.229-1.043-1.33-2.836-0.228-4.003c1.102-1.167,2.989-1.264,4.216-0.22
								c1.226,1.046,1.33,2.836,0.229,4.003C168.229,69.452,166.34,69.549,165.113,68.502"/>
						</g>
						<g clip-path="url(#SVGID_20_)">
							<path fill="#CCCFD0" d="M165.168,68.446c-1.193-1.016-1.293-2.759-0.222-3.894s2.907-1.229,4.1-0.215
								c1.194,1.016,1.294,2.76,0.223,3.894C168.198,69.366,166.36,69.462,165.168,68.446"/>
						</g>
						<g clip-path="url(#SVGID_20_)">
							<path fill="#D0D2D2" d="M165.223,68.388c-1.16-0.989-1.257-2.682-0.215-3.784c1.039-1.102,2.824-1.196,3.984-0.208
								s1.258,2.683,0.215,3.784C168.167,69.282,166.383,69.375,165.223,68.388"/>
						</g>
						<g clip-path="url(#SVGID_20_)">
							<path fill="#D2D4D5" d="M165.277,68.33c-1.127-0.958-1.22-2.604-0.209-3.674c1.01-1.07,2.743-1.161,3.869-0.201
								c1.127,0.957,1.221,2.603,0.209,3.674C168.136,69.198,166.404,69.29,165.277,68.33"/>
						</g>
					</g>
				</g>
				<g>
					<polygon fill="#605F5E" points="165.854,64.748 167.072,65.782 168.165,64.626 168.842,65.202 167.748,66.36 168.967,67.396 
						168.359,68.038 167.142,67.001 166.05,68.158 165.373,67.584 166.468,66.425 165.249,65.389 					"/>
				</g>
				<g>
					<path fill="#221714" d="M168.354,67.932l-1.1-0.937l-0.119-0.1l-0.104,0.111l-0.987,1.047l-0.56-0.477l0.988-1.048l0.104-0.11
						l-0.117-0.099l-1.103-0.938l0.504-0.529l1.101,0.937l0.117,0.099l0.104-0.111l0.988-1.045l0.559,0.476l-0.987,1.045
						l-0.106,0.112l0.117,0.099l1.102,0.938L168.354,67.932z M168.365,68.143l0.712-0.752l-1.218-1.038l1.093-1.156l-0.793-0.676
						l-1.092,1.157l-1.218-1.037l-0.711,0.754l1.218,1.036l-1.093,1.157l0.792,0.676l1.093-1.157L168.365,68.143z"/>
				</g>
			</g>
		</g>
	</g>
	<g>
		<rect x="219.23" y="58.572" fill="#B2B1B1" width="2.35" height="84.493"/>
		<rect x="201.975" y="58.572" fill="#B2B1B1" width="2.35" height="84.493"/>
		<rect x="184.72" y="58.572" fill="#B2B1B1" width="2.35" height="84.493"/>
	</g>
	<g>
		<rect x="158.656" y="116.087" fill="#B2B1B1" width="88.988" height="2.229"/>
		<rect x="158.656" y="99.703" fill="#B2B1B1" width="88.988" height="2.23"/>
		<rect x="158.656" y="83.319" fill="#B2B1B1" width="88.988" height="2.23"/>
	</g>
</g>
<linearGradient id="SVGID_21_" gradientUnits="userSpaceOnUse" x1="97.0015" y1="13.2261" x2="97.0015" y2="41.2437">
	<stop  offset="0" style="stop-color:#FFFFFF"/>
	<stop  offset="0.1989" style="stop-color:#717071"/>
	<stop  offset="0.4086" style="stop-color:#838383"/>
	<stop  offset="0.7581" style="stop-color:#717071"/>
	<stop  offset="1" style="stop-color:#C2C2C2"/>
</linearGradient>
<rect x="45.452" y="13.226" fill="url(#SVGID_21_)" width="103.098" height="28.018"/>
<linearGradient id="SVGID_22_" gradientUnits="userSpaceOnUse" x1="202.9751" y1="13.2261" x2="202.9751" y2="41.2437">
	<stop  offset="0" style="stop-color:#FFFFFF"/>
	<stop  offset="0.1989" style="stop-color:#717071"/>
	<stop  offset="0.4086" style="stop-color:#838383"/>
	<stop  offset="0.7581" style="stop-color:#717071"/>
	<stop  offset="1" style="stop-color:#C2C2C2"/>
</linearGradient>
<rect x="151.426" y="13.226" fill="url(#SVGID_22_)" width="103.098" height="28.018"/>
<rect x="73.318" y="13.226" fill="#0A0A0A" stroke="#151515" stroke-width="3" stroke-miterlimit="10" width="46.22" height="28.018"/>
<rect x="176.881" y="13.226" fill="#0A0A0A" stroke="#151515" stroke-width="3" stroke-miterlimit="10" width="46.221" height="28.018"/>
<g>
	<path fill="#060001" d="M140.421,27.235c0,3.871-3.139,7.01-7.01,7.01s-7.01-3.139-7.01-7.01s3.139-7.01,7.01-7.01
		S140.421,23.364,140.421,27.235"/>
	<g>
		<defs>
			<path id="SVGID_23_" d="M133.411,21.603c-3.111,0-5.634,2.523-5.634,5.633c0,3.111,2.522,5.633,5.634,5.633
				c3.109,0,5.633-2.521,5.633-5.633C139.044,24.126,136.521,21.603,133.411,21.603"/>
		</defs>
		<clipPath id="SVGID_24_">
			<use xlink:href="#SVGID_23_"  overflow="visible"/>
		</clipPath>
		
			<radialGradient id="SVGID_25_" cx="-1798.8477" cy="378.4883" r="0.5305" gradientTransform="matrix(0 8.2859 -8.2859 0 3271.5313 14930.9258)" gradientUnits="userSpaceOnUse">
			<stop  offset="0" style="stop-color:#FFFFFF"/>
			<stop  offset="1" style="stop-color:#595757"/>
		</radialGradient>
		<rect x="127.777" y="21.603" clip-path="url(#SVGID_24_)" fill="url(#SVGID_25_)" width="11.267" height="11.266"/>
	</g>
	<g opacity="0.5" enable-background="new    ">
		<g>
			<defs>
				<rect id="SVGID_26_" x="134.788" y="24.607" width="1.877" height="1.877"/>
			</defs>
			<clipPath id="SVGID_27_">
				<use xlink:href="#SVGID_26_"  overflow="visible"/>
			</clipPath>
			<rect x="134.788" y="24.607" clip-path="url(#SVGID_27_)" fill="#FFFFFF" width="1.877" height="1.877"/>
		</g>
	</g>
	<g opacity="0.5" enable-background="new    ">
		<g>
			<defs>
				<rect id="SVGID_28_" x="134.788" y="24.607" width="1.877" height="0.938"/>
			</defs>
			<clipPath id="SVGID_29_">
				<use xlink:href="#SVGID_28_"  overflow="visible"/>
			</clipPath>
			<rect x="134.788" y="24.607" clip-path="url(#SVGID_29_)" fill="#FFFFFF" width="1.877" height="0.938"/>
		</g>
	</g>
</g>
<g>
	<path fill="#060001" d="M245.589,27.236c0,3.871-3.139,7.01-7.01,7.01s-7.01-3.139-7.01-7.01s3.139-7.01,7.01-7.01
		S245.589,23.365,245.589,27.236"/>
	<g>
		<defs>
			<path id="SVGID_30_" d="M238.579,21.604c-3.111,0-5.634,2.523-5.634,5.633c0,3.111,2.522,5.633,5.634,5.633
				c3.109,0,5.633-2.521,5.633-5.633C244.212,24.127,241.688,21.604,238.579,21.604"/>
		</defs>
		<clipPath id="SVGID_31_">
			<use xlink:href="#SVGID_30_"  overflow="visible"/>
		</clipPath>
		
			<radialGradient id="SVGID_32_" cx="-1798.8477" cy="365.7959" r="0.5305" gradientTransform="matrix(0 8.2859 -8.2859 0 3271.5313 14930.9258)" gradientUnits="userSpaceOnUse">
			<stop  offset="0" style="stop-color:#FFFFFF"/>
			<stop  offset="1" style="stop-color:#595757"/>
		</radialGradient>
		<rect x="232.945" y="21.604" clip-path="url(#SVGID_31_)" fill="url(#SVGID_32_)" width="11.267" height="11.266"/>
	</g>
	<g opacity="0.5" enable-background="new    ">
		<g>
			<defs>
				<rect id="SVGID_33_" x="239.956" y="24.608" width="1.877" height="1.877"/>
			</defs>
			<clipPath id="SVGID_34_">
				<use xlink:href="#SVGID_33_"  overflow="visible"/>
			</clipPath>
			<rect x="239.956" y="24.608" clip-path="url(#SVGID_34_)" fill="#FFFFFF" width="1.877" height="1.877"/>
		</g>
	</g>
	<g opacity="0.5" enable-background="new    ">
		<g>
			<defs>
				<rect id="SVGID_35_" x="239.956" y="24.608" width="1.877" height="0.938"/>
			</defs>
			<clipPath id="SVGID_36_">
				<use xlink:href="#SVGID_35_"  overflow="visible"/>
			</clipPath>
			<rect x="239.956" y="24.608" clip-path="url(#SVGID_36_)" fill="#FFFFFF" width="1.877" height="0.938"/>
		</g>
	</g>
</g>
<g>
	<path fill="#AFAEAE" d="M261.843,28.238c0,3.986,3.415,7.218,7.626,7.218c4.212,0,7.626-3.231,7.626-7.218
		s-3.414-7.219-7.626-7.219C265.257,21.019,261.843,24.251,261.843,28.238"/>
	<ellipse fill="none" stroke="#929292" stroke-miterlimit="10" cx="269.469" cy="28.238" rx="7.626" ry="7.218"/>
	<path fill="#AFAEAE" d="M263.866,28.238c0,2.929,2.509,5.304,5.603,5.304c3.095,0,5.605-2.375,5.605-5.304
		c0-2.93-2.51-5.306-5.605-5.306C266.375,22.932,263.866,25.308,263.866,28.238"/>
	<ellipse fill="none" stroke="#929292" stroke-miterlimit="10" cx="269.47" cy="28.238" rx="5.604" ry="5.304"/>
	<g>
		<g>
			<defs>
				<rect id="SVGID_37_" x="264.188" y="23.239" width="10.564" height="9.997"/>
			</defs>
			<clipPath id="SVGID_38_">
				<use xlink:href="#SVGID_37_"  overflow="visible"/>
			</clipPath>
			<path clip-path="url(#SVGID_38_)" fill="#BEBEBD" d="M264.188,28.238c0,2.761,2.365,4.998,5.281,4.998
				c2.918,0,5.283-2.237,5.283-4.998s-2.365-4.999-5.283-4.999C266.553,23.239,264.188,25.477,264.188,28.238"/>
			<path clip-path="url(#SVGID_38_)" fill="#C0C0C0" d="M264.313,28.238c0,2.694,2.31,4.88,5.156,4.88
				c2.849,0,5.157-2.186,5.157-4.88c0-2.696-2.309-4.882-5.157-4.882C266.622,23.356,264.313,25.542,264.313,28.238"/>
			<path clip-path="url(#SVGID_38_)" fill="#C2C3C3" d="M264.437,28.238c0,2.63,2.254,4.764,5.032,4.764
				c2.781,0,5.034-2.134,5.034-4.764c0-2.631-2.253-4.764-5.034-4.764C266.69,23.474,264.437,25.607,264.437,28.238"/>
			<path clip-path="url(#SVGID_38_)" fill="#C4C5C4" d="M264.562,28.238c0,2.564,2.196,4.646,4.907,4.646
				c2.712,0,4.91-2.081,4.91-4.646c0-2.566-2.198-4.646-4.91-4.646C266.758,23.591,264.562,25.671,264.562,28.238"/>
			<path clip-path="url(#SVGID_38_)" fill="#C6C8C8" d="M264.685,28.238c0,2.499,2.143,4.527,4.784,4.527
				c2.643,0,4.785-2.028,4.785-4.527c0-2.501-2.142-4.529-4.785-4.529C266.828,23.708,264.685,25.737,264.685,28.238"/>
			<path clip-path="url(#SVGID_38_)" fill="#C9CACB" d="M264.81,28.238c0,2.436,2.086,4.41,4.659,4.41
				c2.574,0,4.661-1.975,4.661-4.41c0-2.437-2.087-4.411-4.661-4.411C266.896,23.827,264.81,25.801,264.81,28.238"/>
			<path clip-path="url(#SVGID_38_)" fill="#CBCDCD" d="M264.933,28.238c0,2.37,2.031,4.293,4.536,4.293
				c2.506,0,4.537-1.923,4.537-4.293c0-2.371-2.03-4.295-4.537-4.295C266.964,23.943,264.933,25.867,264.933,28.238"/>
			<path clip-path="url(#SVGID_38_)" fill="#CCCFD0" d="M265.057,28.238c0,2.307,1.977,4.175,4.412,4.175
				c2.436,0,4.413-1.868,4.413-4.175s-1.977-4.177-4.413-4.177C267.034,24.061,265.057,25.931,265.057,28.238"/>
			<path clip-path="url(#SVGID_38_)" fill="#D0D2D2" d="M265.181,28.238c0,2.239,1.92,4.058,4.288,4.058
				c2.369,0,4.288-1.818,4.288-4.058c0-2.242-1.919-4.059-4.288-4.059C267.102,24.179,265.181,25.996,265.181,28.238"/>
			<path clip-path="url(#SVGID_38_)" fill="#D2D4D5" d="M265.306,28.238c0,2.175,1.865,3.94,4.163,3.94
				c2.301,0,4.164-1.766,4.164-3.94c0-2.177-1.862-3.94-4.164-3.94C267.17,24.297,265.306,26.061,265.306,28.238"/>
		</g>
	</g>
	<polygon fill="#605F5E" points="270.16,31.244 270.16,28.891 272.645,28.891 272.645,27.584 270.16,27.584 270.16,25.232 
		268.779,25.232 268.779,27.584 266.294,27.584 266.294,28.891 268.779,28.891 268.779,31.244 	"/>
	<path fill="#221714" d="M270.04,25.345v2.125v0.228h0.239h2.247v1.079h-2.247h-0.239v0.226v2.126h-1.141v-2.126v-0.226h-0.238
		h-2.247v-1.079h2.247h0.238V27.47v-2.125H270.04z M268.661,27.47h-2.486v1.532h2.486v2.353h1.618v-2.353h2.486V27.47h-2.486v-2.352
		h-1.618V27.47z"/>
</g>
<g>
	<path fill="#AFAEAE" d="M261.843,224.223c0,3.986,3.415,7.219,7.626,7.219c4.212,0,7.626-3.232,7.626-7.219
		s-3.414-7.219-7.626-7.219C265.257,217.004,261.843,220.236,261.843,224.223"/>
	<ellipse fill="none" stroke="#929292" stroke-miterlimit="10" cx="269.469" cy="224.223" rx="7.626" ry="7.219"/>
	<path fill="#AFAEAE" d="M263.866,224.223c0,2.93,2.509,5.305,5.603,5.305c3.095,0,5.605-2.375,5.605-5.305s-2.51-5.305-5.605-5.305
		C266.375,218.918,263.866,221.293,263.866,224.223"/>
	<ellipse fill="none" stroke="#929292" stroke-miterlimit="10" cx="269.47" cy="224.223" rx="5.604" ry="5.305"/>
	<g>
		<g>
			<defs>
				<rect id="SVGID_39_" x="264.188" y="219.225" width="10.564" height="9.996"/>
			</defs>
			<clipPath id="SVGID_40_">
				<use xlink:href="#SVGID_39_"  overflow="visible"/>
			</clipPath>
			<path clip-path="url(#SVGID_40_)" fill="#BEBEBD" d="M264.188,224.223c0,2.762,2.365,4.998,5.281,4.998
				c2.918,0,5.283-2.236,5.283-4.998c0-2.76-2.365-4.998-5.283-4.998C266.553,219.225,264.188,221.463,264.188,224.223"/>
			<path clip-path="url(#SVGID_40_)" fill="#C0C0C0" d="M264.313,224.223c0,2.695,2.31,4.881,5.156,4.881
				c2.849,0,5.157-2.186,5.157-4.881s-2.309-4.881-5.157-4.881C266.622,219.342,264.313,221.527,264.313,224.223"/>
			<path clip-path="url(#SVGID_40_)" fill="#C2C3C3" d="M264.437,224.223c0,2.631,2.254,4.764,5.032,4.764
				c2.781,0,5.034-2.133,5.034-4.764s-2.253-4.764-5.034-4.764C266.69,219.459,264.437,221.592,264.437,224.223"/>
			<path clip-path="url(#SVGID_40_)" fill="#C4C5C4" d="M264.562,224.223c0,2.564,2.196,4.646,4.907,4.646
				c2.712,0,4.91-2.082,4.91-4.646c0-2.566-2.198-4.646-4.91-4.646C266.758,219.576,264.562,221.656,264.562,224.223"/>
			<path clip-path="url(#SVGID_40_)" fill="#C6C8C8" d="M264.685,224.223c0,2.5,2.143,4.527,4.784,4.527
				c2.643,0,4.785-2.027,4.785-4.527s-2.142-4.529-4.785-4.529C266.828,219.693,264.685,221.723,264.685,224.223"/>
			<path clip-path="url(#SVGID_40_)" fill="#C9CACB" d="M264.81,224.223c0,2.436,2.086,4.41,4.659,4.41
				c2.574,0,4.661-1.975,4.661-4.41s-2.087-4.41-4.661-4.41C266.896,219.813,264.81,221.787,264.81,224.223"/>
			<path clip-path="url(#SVGID_40_)" fill="#CBCDCD" d="M264.933,224.223c0,2.371,2.031,4.293,4.536,4.293
				c2.506,0,4.537-1.922,4.537-4.293s-2.03-4.295-4.537-4.295C266.964,219.928,264.933,221.852,264.933,224.223"/>
			<path clip-path="url(#SVGID_40_)" fill="#CCCFD0" d="M265.057,224.223c0,2.307,1.977,4.176,4.412,4.176
				c2.436,0,4.413-1.869,4.413-4.176s-1.977-4.176-4.413-4.176C267.034,220.047,265.057,221.916,265.057,224.223"/>
			<path clip-path="url(#SVGID_40_)" fill="#D0D2D2" d="M265.181,224.223c0,2.24,1.92,4.059,4.288,4.059
				c2.369,0,4.288-1.818,4.288-4.059c0-2.242-1.919-4.059-4.288-4.059C267.102,220.164,265.181,221.98,265.181,224.223"/>
			<path clip-path="url(#SVGID_40_)" fill="#D2D4D5" d="M265.306,224.223c0,2.176,1.865,3.941,4.163,3.941
				c2.301,0,4.164-1.766,4.164-3.941s-1.862-3.939-4.164-3.939C267.17,220.283,265.306,222.047,265.306,224.223"/>
		</g>
	</g>
	<polygon fill="#605F5E" points="270.16,227.229 270.16,224.877 272.645,224.877 272.645,223.57 270.16,223.57 270.16,221.217 
		268.779,221.217 268.779,223.57 266.294,223.57 266.294,224.877 268.779,224.877 268.779,227.229 	"/>
	<path fill="#221714" d="M270.04,221.33v2.125v0.229h0.239h2.247v1.078h-2.247h-0.239v0.227v2.125h-1.141v-2.125v-0.227h-0.238
		h-2.247v-1.078h2.247h0.238v-0.229v-2.125H270.04z M268.661,223.455h-2.486v1.533h2.486v2.352h1.618v-2.352h2.486v-1.533h-2.486
		v-2.352h-1.618V223.455z"/>
</g>
<g>
	<path fill="#AFAEAE" d="M296.079,71.055c0,3.986,3.415,7.218,7.626,7.218c4.212,0,7.626-3.231,7.626-7.218
		s-3.414-7.219-7.626-7.219C299.493,63.836,296.079,67.069,296.079,71.055"/>
	<ellipse fill="none" stroke="#929292" stroke-miterlimit="10" cx="303.705" cy="71.055" rx="7.626" ry="7.218"/>
	<path fill="#AFAEAE" d="M298.101,71.055c0,2.929,2.51,5.304,5.604,5.304c3.095,0,5.605-2.375,5.605-5.304
		c0-2.93-2.51-5.306-5.605-5.306C300.611,65.75,298.101,68.125,298.101,71.055"/>
	<ellipse fill="none" stroke="#929292" stroke-miterlimit="10" cx="303.705" cy="71.055" rx="5.604" ry="5.304"/>
	<g>
		<g>
			<defs>
				<rect id="SVGID_41_" x="298.423" y="66.056" width="10.564" height="9.997"/>
			</defs>
			<clipPath id="SVGID_42_">
				<use xlink:href="#SVGID_41_"  overflow="visible"/>
			</clipPath>
			<path clip-path="url(#SVGID_42_)" fill="#BEBEBD" d="M298.423,71.055c0,2.761,2.365,4.998,5.281,4.998
				c2.917,0,5.283-2.237,5.283-4.998s-2.366-4.999-5.283-4.999C300.789,66.056,298.423,68.294,298.423,71.055"/>
			<path clip-path="url(#SVGID_42_)" fill="#C0C0C0" d="M298.548,71.055c0,2.694,2.31,4.88,5.156,4.88
				c2.849,0,5.157-2.186,5.157-4.88c0-2.696-2.309-4.882-5.157-4.882C300.858,66.173,298.548,68.359,298.548,71.055"/>
			<path clip-path="url(#SVGID_42_)" fill="#C2C3C3" d="M298.672,71.055c0,2.63,2.254,4.764,5.033,4.764
				c2.781,0,5.034-2.134,5.034-4.764c0-2.631-2.253-4.764-5.034-4.764C300.926,66.292,298.672,68.424,298.672,71.055"/>
			<path clip-path="url(#SVGID_42_)" fill="#C4C5C4" d="M298.797,71.055c0,2.564,2.196,4.646,4.907,4.646
				c2.712,0,4.91-2.081,4.91-4.646c0-2.566-2.198-4.646-4.91-4.646C300.994,66.409,298.797,68.489,298.797,71.055"/>
			<path clip-path="url(#SVGID_42_)" fill="#C6C8C8" d="M298.921,71.055c0,2.499,2.143,4.527,4.784,4.527
				c2.643,0,4.785-2.028,4.785-4.527c0-2.501-2.143-4.529-4.785-4.529C301.064,66.526,298.921,68.554,298.921,71.055"/>
			<path clip-path="url(#SVGID_42_)" fill="#C9CACB" d="M299.045,71.055c0,2.436,2.086,4.41,4.659,4.41
				c2.574,0,4.661-1.975,4.661-4.41c0-2.437-2.087-4.411-4.661-4.411C301.131,66.644,299.045,68.619,299.045,71.055"/>
			<path clip-path="url(#SVGID_42_)" fill="#CBCDCD" d="M299.168,71.055c0,2.37,2.032,4.293,4.536,4.293
				c2.506,0,4.536-1.923,4.536-4.293c0-2.371-2.03-4.295-4.536-4.295C301.201,66.76,299.168,68.684,299.168,71.055"/>
			<path clip-path="url(#SVGID_42_)" fill="#CCCFD0" d="M299.292,71.055c0,2.307,1.977,4.175,4.412,4.175
				c2.436,0,4.413-1.868,4.413-4.175s-1.977-4.177-4.413-4.177C301.269,66.878,299.292,68.749,299.292,71.055"/>
			<path clip-path="url(#SVGID_42_)" fill="#D0D2D2" d="M299.417,71.055c0,2.239,1.92,4.058,4.287,4.058
				c2.368,0,4.288-1.818,4.288-4.058c0-2.242-1.92-4.059-4.288-4.059C301.337,66.997,299.417,68.813,299.417,71.055"/>
			<path clip-path="url(#SVGID_42_)" fill="#D2D4D5" d="M299.542,71.055c0,2.175,1.864,3.94,4.163,3.94
				c2.301,0,4.164-1.766,4.164-3.94c0-2.177-1.862-3.94-4.164-3.94C301.406,67.115,299.542,68.878,299.542,71.055"/>
		</g>
	</g>
	<polygon fill="#605F5E" points="304.395,74.061 304.395,71.708 306.88,71.708 306.88,70.402 304.395,70.402 304.395,68.049 
		303.015,68.049 303.015,70.402 300.53,70.402 300.53,71.708 303.015,71.708 303.015,74.061 	"/>
	<path fill="#221714" d="M304.275,68.163v2.125v0.228h0.239h2.247v1.079h-2.247h-0.239v0.226v2.126h-1.141V71.82v-0.226h-0.238
		h-2.247v-1.079h2.247h0.238v-0.228v-2.125H304.275z M302.896,70.288h-2.486v1.532h2.486v2.353h1.618V71.82H307v-1.532h-2.486
		v-2.352h-1.618V70.288z"/>
</g>
<g>
	<path fill="#AFAEAE" d="M296.079,183.818c0,3.986,3.415,7.217,7.626,7.217c4.212,0,7.626-3.23,7.626-7.217
		s-3.414-7.219-7.626-7.219C299.493,176.6,296.079,179.832,296.079,183.818"/>
	<ellipse fill="none" stroke="#929292" stroke-miterlimit="10" cx="303.705" cy="183.818" rx="7.626" ry="7.217"/>
	<path fill="#AFAEAE" d="M298.101,183.818c0,2.928,2.51,5.303,5.604,5.303c3.095,0,5.605-2.375,5.605-5.303
		c0-2.93-2.51-5.307-5.605-5.307C300.611,178.512,298.101,180.889,298.101,183.818"/>
	<ellipse fill="none" stroke="#929292" stroke-miterlimit="10" cx="303.705" cy="183.818" rx="5.604" ry="5.303"/>
	<g>
		<g>
			<defs>
				<rect id="SVGID_43_" x="298.423" y="178.818" width="10.564" height="9.998"/>
			</defs>
			<clipPath id="SVGID_44_">
				<use xlink:href="#SVGID_43_"  overflow="visible"/>
			</clipPath>
			<path clip-path="url(#SVGID_44_)" fill="#BEBEBD" d="M298.423,183.818c0,2.76,2.365,4.998,5.281,4.998
				c2.917,0,5.283-2.238,5.283-4.998c0-2.762-2.366-5-5.283-5C300.789,178.818,298.423,181.057,298.423,183.818"/>
			<path clip-path="url(#SVGID_44_)" fill="#C0C0C0" d="M298.548,183.818c0,2.693,2.31,4.879,5.156,4.879
				c2.849,0,5.157-2.186,5.157-4.879c0-2.697-2.309-4.883-5.157-4.883C300.858,178.936,298.548,181.121,298.548,183.818"/>
			<path clip-path="url(#SVGID_44_)" fill="#C2C3C3" d="M298.672,183.818c0,2.629,2.254,4.764,5.033,4.764
				c2.781,0,5.034-2.135,5.034-4.764c0-2.631-2.253-4.764-5.034-4.764C300.926,179.055,298.672,181.188,298.672,183.818"/>
			<path clip-path="url(#SVGID_44_)" fill="#C4C5C4" d="M298.797,183.818c0,2.564,2.196,4.645,4.907,4.645
				c2.712,0,4.91-2.08,4.91-4.645c0-2.566-2.198-4.646-4.91-4.646C300.994,179.172,298.797,181.252,298.797,183.818"/>
			<path clip-path="url(#SVGID_44_)" fill="#C6C8C8" d="M298.921,183.818c0,2.498,2.143,4.527,4.784,4.527
				c2.643,0,4.785-2.029,4.785-4.527c0-2.502-2.143-4.529-4.785-4.529C301.064,179.289,298.921,181.316,298.921,183.818"/>
			<path clip-path="url(#SVGID_44_)" fill="#C9CACB" d="M299.045,183.818c0,2.436,2.086,4.41,4.659,4.41
				c2.574,0,4.661-1.975,4.661-4.41c0-2.438-2.087-4.412-4.661-4.412C301.131,179.406,299.045,181.381,299.045,183.818"/>
			<path clip-path="url(#SVGID_44_)" fill="#CBCDCD" d="M299.168,183.818c0,2.369,2.032,4.293,4.536,4.293
				c2.506,0,4.536-1.924,4.536-4.293c0-2.371-2.03-4.295-4.536-4.295C301.201,179.523,299.168,181.447,299.168,183.818"/>
			<path clip-path="url(#SVGID_44_)" fill="#CCCFD0" d="M299.292,183.818c0,2.307,1.977,4.174,4.412,4.174
				c2.436,0,4.413-1.867,4.413-4.174s-1.977-4.178-4.413-4.178C301.269,179.641,299.292,181.512,299.292,183.818"/>
			<path clip-path="url(#SVGID_44_)" fill="#D0D2D2" d="M299.417,183.818c0,2.238,1.92,4.057,4.287,4.057
				c2.368,0,4.288-1.818,4.288-4.057c0-2.242-1.92-4.059-4.288-4.059C301.337,179.76,299.417,181.576,299.417,183.818"/>
			<path clip-path="url(#SVGID_44_)" fill="#D2D4D5" d="M299.542,183.818c0,2.174,1.864,3.939,4.163,3.939
				c2.301,0,4.164-1.766,4.164-3.939c0-2.178-1.862-3.941-4.164-3.941C301.406,179.877,299.542,181.641,299.542,183.818"/>
		</g>
	</g>
	<polygon fill="#605F5E" points="304.395,186.824 304.395,184.471 306.88,184.471 306.88,183.164 304.395,183.164 304.395,180.813 
		303.015,180.813 303.015,183.164 300.53,183.164 300.53,184.471 303.015,184.471 303.015,186.824 	"/>
	<path fill="#221714" d="M304.275,180.926v2.125v0.227h0.239h2.247v1.08h-2.247h-0.239v0.225v2.127h-1.141v-2.127v-0.225h-0.238
		h-2.247v-1.08h2.247h0.238v-0.227v-2.125H304.275z M302.896,183.051h-2.486v1.531h2.486v2.354h1.618v-2.354H307v-1.531h-2.486
		v-2.352h-1.618V183.051z"/>
</g>
<g>
	<g>
		<path fill="#AFAEAE" d="M1251.372,65.055c0,3.986,3.414,7.218,7.625,7.218c4.213,0,7.627-3.231,7.627-7.218
			s-3.414-7.219-7.627-7.219C1254.786,57.836,1251.372,61.069,1251.372,65.055"/>
		<ellipse fill="none" stroke="#929292" stroke-miterlimit="10" cx="1258.998" cy="65.055" rx="7.626" ry="7.218"/>
		<path fill="#AFAEAE" d="M1253.395,65.055c0,2.929,2.509,5.304,5.603,5.304c3.096,0,5.605-2.375,5.605-5.304
			c0-2.93-2.51-5.306-5.605-5.306C1255.903,59.75,1253.395,62.125,1253.395,65.055"/>
		<ellipse fill="none" stroke="#929292" stroke-miterlimit="10" cx="1258.999" cy="65.055" rx="5.604" ry="5.304"/>
		<g>
			<g>
				<defs>
					<rect id="SVGID_45_" x="1253.717" y="60.056" width="10.563" height="9.997"/>
				</defs>
				<clipPath id="SVGID_46_">
					<use xlink:href="#SVGID_45_"  overflow="visible"/>
				</clipPath>
				<path clip-path="url(#SVGID_46_)" fill="#BEBEBD" d="M1253.717,65.055c0,2.761,2.364,4.998,5.28,4.998
					c2.918,0,5.283-2.237,5.283-4.998s-2.365-4.999-5.283-4.999C1256.081,60.056,1253.717,62.294,1253.717,65.055"/>
				<path clip-path="url(#SVGID_46_)" fill="#C0C0C0" d="M1253.841,65.055c0,2.694,2.311,4.88,5.156,4.88
					c2.849,0,5.158-2.186,5.158-4.88c0-2.696-2.31-4.882-5.158-4.882C1256.151,60.173,1253.841,62.359,1253.841,65.055"/>
				<path clip-path="url(#SVGID_46_)" fill="#C2C3C3" d="M1253.966,65.055c0,2.63,2.254,4.764,5.031,4.764
					c2.781,0,5.034-2.134,5.034-4.764c0-2.631-2.253-4.764-5.034-4.764C1256.22,60.292,1253.966,62.424,1253.966,65.055"/>
				<path clip-path="url(#SVGID_46_)" fill="#C4C5C4" d="M1254.091,65.055c0,2.564,2.195,4.646,4.906,4.646
					c2.713,0,4.91-2.081,4.91-4.646c0-2.566-2.197-4.646-4.91-4.646C1256.286,60.409,1254.091,62.489,1254.091,65.055"/>
				<path clip-path="url(#SVGID_46_)" fill="#C6C8C8" d="M1254.214,65.055c0,2.499,2.143,4.527,4.783,4.527
					c2.644,0,4.785-2.028,4.785-4.527c0-2.501-2.142-4.529-4.785-4.529C1256.356,60.526,1254.214,62.554,1254.214,65.055"/>
				<path clip-path="url(#SVGID_46_)" fill="#C9CACB" d="M1254.339,65.055c0,2.436,2.086,4.41,4.658,4.41
					c2.574,0,4.662-1.975,4.662-4.41c0-2.437-2.088-4.411-4.662-4.411C1256.425,60.644,1254.339,62.619,1254.339,65.055"/>
				<path clip-path="url(#SVGID_46_)" fill="#CBCDCD" d="M1254.462,65.055c0,2.37,2.031,4.293,4.535,4.293
					c2.507,0,4.537-1.923,4.537-4.293c0-2.371-2.03-4.295-4.537-4.295C1256.493,60.76,1254.462,62.684,1254.462,65.055"/>
				<path clip-path="url(#SVGID_46_)" fill="#CCCFD0" d="M1254.585,65.055c0,2.307,1.978,4.175,4.412,4.175
					c2.437,0,4.413-1.868,4.413-4.175s-1.977-4.177-4.413-4.177C1256.563,60.878,1254.585,62.749,1254.585,65.055"/>
				<path clip-path="url(#SVGID_46_)" fill="#D0D2D2" d="M1254.71,65.055c0,2.239,1.92,4.058,4.287,4.058
					c2.369,0,4.289-1.818,4.289-4.058c0-2.242-1.92-4.059-4.289-4.059C1256.63,60.997,1254.71,62.813,1254.71,65.055"/>
				<path clip-path="url(#SVGID_46_)" fill="#D2D4D5" d="M1254.835,65.055c0,2.175,1.864,3.94,4.162,3.94
					c2.302,0,4.164-1.766,4.164-3.94c0-2.177-1.862-3.94-4.164-3.94C1256.699,61.115,1254.835,62.878,1254.835,65.055"/>
			</g>
		</g>
		<polygon fill="#605F5E" points="1259.688,68.061 1259.688,65.708 1262.174,65.708 1262.174,64.402 1259.688,64.402 
			1259.688,62.049 1258.308,62.049 1258.308,64.402 1255.823,64.402 1255.823,65.708 1258.308,65.708 1258.308,68.061 		"/>
		<path fill="#221714" d="M1259.568,62.163v2.125v0.228h0.239h2.247v1.079h-2.247h-0.239v0.226v2.126h-1.141V65.82v-0.226h-0.238
			h-2.247v-1.079h2.247h0.238v-0.228v-2.125H1259.568z M1258.189,64.288h-2.485v1.532h2.485v2.353h1.618V65.82h2.486v-1.532h-2.486
			v-2.352h-1.618V64.288z"/>
	</g>
	<g>
		<path fill="#AFAEAE" d="M1251.372,177.818c0,3.986,3.414,7.217,7.625,7.217c4.213,0,7.627-3.23,7.627-7.217
			s-3.414-7.219-7.627-7.219C1254.786,170.6,1251.372,173.832,1251.372,177.818"/>
		<ellipse fill="none" stroke="#929292" stroke-miterlimit="10" cx="1258.998" cy="177.818" rx="7.626" ry="7.217"/>
		<path fill="#AFAEAE" d="M1253.395,177.818c0,2.928,2.509,5.303,5.603,5.303c3.096,0,5.605-2.375,5.605-5.303
			c0-2.93-2.51-5.307-5.605-5.307C1255.903,172.512,1253.395,174.889,1253.395,177.818"/>
		<ellipse fill="none" stroke="#929292" stroke-miterlimit="10" cx="1258.999" cy="177.818" rx="5.604" ry="5.303"/>
		<g>
			<g>
				<defs>
					<rect id="SVGID_47_" x="1253.717" y="172.818" width="10.563" height="9.998"/>
				</defs>
				<clipPath id="SVGID_48_">
					<use xlink:href="#SVGID_47_"  overflow="visible"/>
				</clipPath>
				<path clip-path="url(#SVGID_48_)" fill="#BEBEBD" d="M1253.717,177.818c0,2.76,2.364,4.998,5.28,4.998
					c2.918,0,5.283-2.238,5.283-4.998c0-2.762-2.365-5-5.283-5C1256.081,172.818,1253.717,175.057,1253.717,177.818"/>
				<path clip-path="url(#SVGID_48_)" fill="#C0C0C0" d="M1253.841,177.818c0,2.693,2.311,4.879,5.156,4.879
					c2.849,0,5.158-2.186,5.158-4.879c0-2.697-2.31-4.883-5.158-4.883C1256.151,172.936,1253.841,175.121,1253.841,177.818"/>
				<path clip-path="url(#SVGID_48_)" fill="#C2C3C3" d="M1253.966,177.818c0,2.629,2.254,4.764,5.031,4.764
					c2.781,0,5.034-2.135,5.034-4.764c0-2.631-2.253-4.764-5.034-4.764C1256.22,173.055,1253.966,175.188,1253.966,177.818"/>
				<path clip-path="url(#SVGID_48_)" fill="#C4C5C4" d="M1254.091,177.818c0,2.564,2.195,4.645,4.906,4.645
					c2.713,0,4.91-2.08,4.91-4.645c0-2.566-2.197-4.646-4.91-4.646C1256.286,173.172,1254.091,175.252,1254.091,177.818"/>
				<path clip-path="url(#SVGID_48_)" fill="#C6C8C8" d="M1254.214,177.818c0,2.498,2.143,4.527,4.783,4.527
					c2.644,0,4.785-2.029,4.785-4.527c0-2.502-2.142-4.529-4.785-4.529C1256.356,173.289,1254.214,175.316,1254.214,177.818"/>
				<path clip-path="url(#SVGID_48_)" fill="#C9CACB" d="M1254.339,177.818c0,2.436,2.086,4.41,4.658,4.41
					c2.574,0,4.662-1.975,4.662-4.41c0-2.438-2.088-4.412-4.662-4.412C1256.425,173.406,1254.339,175.381,1254.339,177.818"/>
				<path clip-path="url(#SVGID_48_)" fill="#CBCDCD" d="M1254.462,177.818c0,2.369,2.031,4.293,4.535,4.293
					c2.507,0,4.537-1.924,4.537-4.293c0-2.371-2.03-4.295-4.537-4.295C1256.493,173.523,1254.462,175.447,1254.462,177.818"/>
				<path clip-path="url(#SVGID_48_)" fill="#CCCFD0" d="M1254.585,177.818c0,2.307,1.978,4.174,4.412,4.174
					c2.437,0,4.413-1.867,4.413-4.174s-1.977-4.178-4.413-4.178C1256.563,173.641,1254.585,175.512,1254.585,177.818"/>
				<path clip-path="url(#SVGID_48_)" fill="#D0D2D2" d="M1254.71,177.818c0,2.238,1.92,4.057,4.287,4.057
					c2.369,0,4.289-1.818,4.289-4.057c0-2.242-1.92-4.059-4.289-4.059C1256.63,173.76,1254.71,175.576,1254.71,177.818"/>
				<path clip-path="url(#SVGID_48_)" fill="#D2D4D5" d="M1254.835,177.818c0,2.174,1.864,3.939,4.162,3.939
					c2.302,0,4.164-1.766,4.164-3.939c0-2.178-1.862-3.941-4.164-3.941C1256.699,173.877,1254.835,175.641,1254.835,177.818"/>
			</g>
		</g>
		<polygon fill="#605F5E" points="1259.688,180.824 1259.688,178.471 1262.174,178.471 1262.174,177.164 1259.688,177.164 
			1259.688,174.813 1258.308,174.813 1258.308,177.164 1255.823,177.164 1255.823,178.471 1258.308,178.471 1258.308,180.824 		"/>
		<path fill="#221714" d="M1259.568,174.926v2.125v0.227h0.239h2.247v1.08h-2.247h-0.239v0.225v2.127h-1.141v-2.127v-0.225h-0.238
			h-2.247v-1.08h2.247h0.238v-0.227v-2.125H1259.568z M1258.189,177.051h-2.485v1.531h2.485v2.354h1.618v-2.354h2.486v-1.531h-2.486
			v-2.352h-1.618V177.051z"/>
	</g>
</g>
<linearGradient id="SVGID_49_" gradientUnits="userSpaceOnUse" x1="254.5239" y1="140.7031" x2="277.687" y2="140.7031">
	<stop  offset="0" style="stop-color:#919292"/>
	<stop  offset="0.1148" style="stop-color:#F7F7F7"/>
	<stop  offset="0.9011" style="stop-color:#EEEEEF"/>
	<stop  offset="1" style="stop-color:#919292"/>
</linearGradient>
<rect x="254.524" y="94.582" fill="url(#SVGID_49_)" width="23.163" height="92.243"/>
<g>
	<path fill="#AFAEAE" d="M258.667,155.754c0,3.986,3.415,7.219,7.626,7.219c4.212,0,7.627-3.232,7.627-7.219
		s-3.415-7.219-7.627-7.219C262.082,148.535,258.667,151.768,258.667,155.754"/>
	<ellipse fill="none" stroke="#929292" stroke-miterlimit="10" cx="266.294" cy="155.754" rx="7.626" ry="7.219"/>
	<path fill="#AFAEAE" d="M260.69,155.754c0,2.93,2.509,5.305,5.603,5.305c3.095,0,5.605-2.375,5.605-5.305s-2.51-5.305-5.605-5.305
		C263.2,150.449,260.69,152.824,260.69,155.754"/>
	<ellipse fill="none" stroke="#929292" stroke-miterlimit="10" cx="266.295" cy="155.754" rx="5.604" ry="5.305"/>
	<g>
		<g>
			<defs>
				<rect id="SVGID_50_" x="261.013" y="150.756" width="10.564" height="9.996"/>
			</defs>
			<clipPath id="SVGID_51_">
				<use xlink:href="#SVGID_50_"  overflow="visible"/>
			</clipPath>
			<path clip-path="url(#SVGID_51_)" fill="#BEBEBD" d="M261.013,155.754c0,2.762,2.365,4.998,5.281,4.998
				c2.918,0,5.283-2.236,5.283-4.998c0-2.76-2.365-4.998-5.283-4.998C263.377,150.756,261.013,152.994,261.013,155.754"/>
			<path clip-path="url(#SVGID_51_)" fill="#C0C0C0" d="M261.137,155.754c0,2.695,2.31,4.881,5.156,4.881
				c2.849,0,5.158-2.186,5.158-4.881s-2.309-4.881-5.158-4.881C263.447,150.873,261.137,153.059,261.137,155.754"/>
			<path clip-path="url(#SVGID_51_)" fill="#C2C3C3" d="M261.261,155.754c0,2.631,2.254,4.764,5.032,4.764
				c2.781,0,5.034-2.133,5.034-4.764s-2.253-4.764-5.034-4.764C263.515,150.99,261.261,153.123,261.261,155.754"/>
			<path clip-path="url(#SVGID_51_)" fill="#C4C5C4" d="M261.386,155.754c0,2.564,2.196,4.646,4.907,4.646
				c2.712,0,4.91-2.082,4.91-4.646c0-2.566-2.198-4.646-4.91-4.646C263.583,151.107,261.386,153.188,261.386,155.754"/>
			<path clip-path="url(#SVGID_51_)" fill="#C6C8C8" d="M261.51,155.754c0,2.5,2.143,4.527,4.783,4.527
				c2.643,0,4.785-2.027,4.785-4.527s-2.142-4.529-4.785-4.529C263.653,151.225,261.51,153.254,261.51,155.754"/>
			<path clip-path="url(#SVGID_51_)" fill="#C9CACB" d="M261.635,155.754c0,2.436,2.086,4.41,4.659,4.41
				c2.574,0,4.661-1.975,4.661-4.41s-2.087-4.41-4.661-4.41C263.721,151.344,261.635,153.318,261.635,155.754"/>
			<path clip-path="url(#SVGID_51_)" fill="#CBCDCD" d="M261.758,155.754c0,2.371,2.032,4.293,4.536,4.293
				c2.506,0,4.537-1.922,4.537-4.293s-2.03-4.295-4.537-4.295C263.79,151.459,261.758,153.383,261.758,155.754"/>
			<path clip-path="url(#SVGID_51_)" fill="#CCCFD0" d="M261.881,155.754c0,2.307,1.977,4.176,4.412,4.176
				c2.437,0,4.413-1.869,4.413-4.176s-1.977-4.176-4.413-4.176C263.858,151.578,261.881,153.447,261.881,155.754"/>
			<path clip-path="url(#SVGID_51_)" fill="#D0D2D2" d="M262.006,155.754c0,2.24,1.92,4.059,4.287,4.059
				c2.369,0,4.288-1.818,4.288-4.059c0-2.242-1.919-4.059-4.288-4.059C263.926,151.695,262.006,153.512,262.006,155.754"/>
			<path clip-path="url(#SVGID_51_)" fill="#D2D4D5" d="M262.131,155.754c0,2.176,1.864,3.941,4.163,3.941
				c2.301,0,4.164-1.766,4.164-3.941s-1.863-3.939-4.164-3.939C263.995,151.814,262.131,153.578,262.131,155.754"/>
		</g>
	</g>
	<polygon fill="#605F5E" points="266.984,158.76 266.984,156.408 269.47,156.408 269.47,155.102 266.984,155.102 266.984,152.748 
		265.604,152.748 265.604,155.102 263.119,155.102 263.119,156.408 265.604,156.408 265.604,158.76 	"/>
	<path fill="#221714" d="M266.864,152.861v2.125v0.229h0.239h2.247v1.078h-2.247h-0.239v0.227v2.125h-1.141v-2.125v-0.227h-0.238
		h-2.247v-1.078h2.247h0.238v-0.229v-2.125H266.864z M265.485,154.986H263v1.533h2.486v2.352h1.618v-2.352h2.486v-1.533h-2.486
		v-2.352h-1.618V154.986z"/>
</g>
<rect x="337.039" y="21.019" fill="#4C2E2E" width="905" height="211.483"/>
<rect x="337.039" y="21.019" fill="#563433" width="314.816" height="211.483"/>
<rect x="337.039" y="20.25" fill="#2D1C1C" width="905" height="7.461"/>
<rect x="654.42" y="26.236" fill="#2D1C1C" width="3.33" height="204.266"/>
<rect x="335.621" y="26.236" fill="#2D1C1C" width="2.835" height="204.266"/>
<rect x="335.621" y="224.223" fill="#3D2A2A" width="906.417" height="6.279"/>
<g>
	<path fill="#AFAEAE" d="M474.114,81.973c0,13.938,11.939,25.238,26.666,25.238c14.729,0,26.667-11.301,26.667-25.238
		s-11.938-25.242-26.667-25.242C486.054,56.731,474.114,68.036,474.114,81.973"/>
	<radialGradient id="SVGID_52_" cx="500.7803" cy="81.9712" r="25.9629" gradientUnits="userSpaceOnUse">
		<stop  offset="0" style="stop-color:#919292"/>
		<stop  offset="0.1148" style="stop-color:#F7F7F7"/>
		<stop  offset="0.9011" style="stop-color:#EEEEEF"/>
		<stop  offset="1" style="stop-color:#919292"/>
	</radialGradient>
	<ellipse fill="url(#SVGID_52_)" stroke="#191919" stroke-miterlimit="10" cx="500.78" cy="81.973" rx="26.666" ry="25.238"/>
	<path fill="none" d="M481.188,81.973c0,10.242,8.774,18.547,19.592,18.547c10.822,0,19.599-8.305,19.599-18.547
		s-8.776-18.551-19.599-18.551C489.961,63.422,481.188,71.731,481.188,81.973"/>
	<path fill="none" stroke="#494949" stroke-miterlimit="10" d="M481.188,81.973c0,10.242,8.774,18.547,19.592,18.547
		c10.822,0,19.599-8.305,19.599-18.547s-8.776-18.551-19.599-18.551C489.961,63.422,481.188,71.731,481.188,81.973z"/>
	<rect x="497.799" y="71.47" fill="#111111" stroke="#191919" stroke-miterlimit="10" width="5.333" height="19.834"/>
	<circle fill="#111111" stroke="#191919" stroke-miterlimit="10" cx="500.466" cy="81.971" r="5.167"/>
</g>
<rect x="769.111" y="42.601" fill="#4C2E2E" stroke="#232222" stroke-width="5.6693" stroke-miterlimit="10" width="31.941" height="31.941"/>
<rect x="815.858" y="42.601" fill="#4C2E2E" stroke="#232222" stroke-width="5.6693" stroke-miterlimit="10" width="31.941" height="31.941"/>
<g>
	<g>
		<ellipse fill="#070707" cx="674.684" cy="103.673" rx="3.823" ry="3.446"/>
		<ellipse fill="#070707" cx="674.684" cy="115.219" rx="3.823" ry="3.446"/>
		<ellipse fill="#070707" cx="674.684" cy="126.765" rx="3.823" ry="3.446"/>
		<ellipse fill="#070707" cx="674.684" cy="138.311" rx="3.823" ry="3.447"/>
		<ellipse fill="#070707" cx="674.684" cy="149.857" rx="3.823" ry="3.445"/>
		<ellipse fill="#070707" cx="674.684" cy="161.402" rx="3.823" ry="3.447"/>
		<ellipse fill="#070707" cx="674.684" cy="172.949" rx="3.823" ry="3.445"/>
	</g>
	<g>
		<ellipse fill="#070707" cx="687.385" cy="103.673" rx="3.823" ry="3.446"/>
		<ellipse fill="#070707" cx="687.385" cy="115.219" rx="3.823" ry="3.446"/>
		<ellipse fill="#070707" cx="687.385" cy="126.765" rx="3.823" ry="3.446"/>
		<ellipse fill="#070707" cx="687.385" cy="138.311" rx="3.823" ry="3.447"/>
		<ellipse fill="#070707" cx="687.385" cy="149.857" rx="3.823" ry="3.445"/>
		<ellipse fill="#070707" cx="687.385" cy="161.402" rx="3.823" ry="3.447"/>
		<ellipse fill="#070707" cx="687.385" cy="172.949" rx="3.823" ry="3.445"/>
	</g>
	<g>
		<ellipse fill="#070707" cx="700.085" cy="103.673" rx="3.823" ry="3.446"/>
		<ellipse fill="#070707" cx="700.085" cy="115.219" rx="3.823" ry="3.446"/>
		<ellipse fill="#070707" cx="700.085" cy="126.765" rx="3.823" ry="3.446"/>
		<ellipse fill="#070707" cx="700.085" cy="138.311" rx="3.823" ry="3.447"/>
		<ellipse fill="#070707" cx="700.085" cy="149.857" rx="3.823" ry="3.445"/>
		<ellipse fill="#070707" cx="700.085" cy="161.402" rx="3.823" ry="3.447"/>
		<ellipse fill="#070707" cx="700.085" cy="172.949" rx="3.823" ry="3.445"/>
	</g>
	<g>
		<ellipse fill="#070707" cx="712.786" cy="103.673" rx="3.823" ry="3.446"/>
		<ellipse fill="#070707" cx="712.786" cy="115.219" rx="3.823" ry="3.446"/>
		<ellipse fill="#070707" cx="712.786" cy="126.765" rx="3.823" ry="3.446"/>
		<ellipse fill="#070707" cx="712.786" cy="138.311" rx="3.823" ry="3.447"/>
		<ellipse fill="#070707" cx="712.786" cy="149.857" rx="3.823" ry="3.445"/>
		<ellipse fill="#070707" cx="712.786" cy="161.402" rx="3.823" ry="3.447"/>
		<ellipse fill="#070707" cx="712.786" cy="172.949" rx="3.823" ry="3.445"/>
	</g>
	<g>
		<ellipse fill="#070707" cx="725.487" cy="103.673" rx="3.823" ry="3.446"/>
		<ellipse fill="#070707" cx="725.487" cy="115.219" rx="3.823" ry="3.446"/>
		<ellipse fill="#070707" cx="725.487" cy="126.765" rx="3.823" ry="3.446"/>
		<ellipse fill="#070707" cx="725.487" cy="138.311" rx="3.823" ry="3.447"/>
		<ellipse fill="#070707" cx="725.487" cy="149.857" rx="3.823" ry="3.445"/>
		<ellipse fill="#070707" cx="725.487" cy="161.402" rx="3.823" ry="3.447"/>
		<ellipse fill="#070707" cx="725.487" cy="172.949" rx="3.823" ry="3.445"/>
	</g>
	<g>
		<ellipse fill="#070707" cx="738.188" cy="103.673" rx="3.823" ry="3.446"/>
		<ellipse fill="#070707" cx="738.188" cy="115.219" rx="3.823" ry="3.446"/>
		<ellipse fill="#070707" cx="738.188" cy="126.765" rx="3.823" ry="3.446"/>
		<ellipse fill="#070707" cx="738.188" cy="138.311" rx="3.823" ry="3.447"/>
		<ellipse fill="#070707" cx="738.188" cy="149.857" rx="3.823" ry="3.445"/>
		<ellipse fill="#070707" cx="738.188" cy="161.402" rx="3.823" ry="3.447"/>
		<ellipse fill="#070707" cx="738.188" cy="172.949" rx="3.823" ry="3.445"/>
	</g>
	<g>
		<ellipse fill="#070707" cx="750.888" cy="103.673" rx="3.823" ry="3.446"/>
		<ellipse fill="#070707" cx="750.888" cy="115.219" rx="3.823" ry="3.446"/>
		<ellipse fill="#070707" cx="750.888" cy="126.765" rx="3.823" ry="3.446"/>
		<ellipse fill="#070707" cx="750.888" cy="138.311" rx="3.823" ry="3.447"/>
		<ellipse fill="#070707" cx="750.888" cy="149.857" rx="3.823" ry="3.445"/>
		<ellipse fill="#070707" cx="750.888" cy="161.402" rx="3.823" ry="3.447"/>
		<ellipse fill="#070707" cx="750.888" cy="172.949" rx="3.823" ry="3.445"/>
	</g>
	<g>
		<ellipse fill="#070707" cx="763.589" cy="103.673" rx="3.823" ry="3.446"/>
		<ellipse fill="#070707" cx="763.589" cy="115.219" rx="3.823" ry="3.446"/>
		<ellipse fill="#070707" cx="763.589" cy="126.765" rx="3.823" ry="3.446"/>
		<ellipse fill="#070707" cx="763.589" cy="138.311" rx="3.823" ry="3.447"/>
		<ellipse fill="#070707" cx="763.589" cy="149.857" rx="3.823" ry="3.445"/>
		<ellipse fill="#070707" cx="763.589" cy="161.402" rx="3.823" ry="3.447"/>
		<ellipse fill="#070707" cx="763.589" cy="172.949" rx="3.823" ry="3.445"/>
	</g>
	<g>
		<ellipse fill="#070707" cx="776.29" cy="103.673" rx="3.823" ry="3.446"/>
		<ellipse fill="#070707" cx="776.29" cy="115.219" rx="3.823" ry="3.446"/>
		<ellipse fill="#070707" cx="776.29" cy="126.765" rx="3.823" ry="3.446"/>
		<ellipse fill="#070707" cx="776.29" cy="138.311" rx="3.823" ry="3.447"/>
		<ellipse fill="#070707" cx="776.29" cy="149.857" rx="3.823" ry="3.445"/>
		<ellipse fill="#070707" cx="776.29" cy="161.402" rx="3.823" ry="3.447"/>
		<ellipse fill="#070707" cx="776.29" cy="172.949" rx="3.823" ry="3.445"/>
	</g>
	<g>
		<ellipse fill="#070707" cx="788.99" cy="103.673" rx="3.823" ry="3.446"/>
		<ellipse fill="#070707" cx="788.99" cy="115.219" rx="3.823" ry="3.446"/>
		<ellipse fill="#070707" cx="788.99" cy="126.765" rx="3.823" ry="3.446"/>
		<ellipse fill="#070707" cx="788.99" cy="138.311" rx="3.823" ry="3.447"/>
		<ellipse fill="#070707" cx="788.99" cy="149.857" rx="3.823" ry="3.445"/>
		<ellipse fill="#070707" cx="788.99" cy="161.402" rx="3.823" ry="3.447"/>
		<ellipse fill="#070707" cx="788.99" cy="172.949" rx="3.823" ry="3.445"/>
	</g>
	<g>
		<ellipse fill="#070707" cx="801.691" cy="103.673" rx="3.823" ry="3.446"/>
		<ellipse fill="#070707" cx="801.691" cy="115.219" rx="3.823" ry="3.446"/>
		<ellipse fill="#070707" cx="801.691" cy="126.765" rx="3.823" ry="3.446"/>
		<ellipse fill="#070707" cx="801.691" cy="138.311" rx="3.823" ry="3.447"/>
		<ellipse fill="#070707" cx="801.691" cy="149.857" rx="3.823" ry="3.445"/>
		<ellipse fill="#070707" cx="801.691" cy="161.402" rx="3.823" ry="3.447"/>
		<ellipse fill="#070707" cx="801.691" cy="172.949" rx="3.823" ry="3.445"/>
	</g>
	<g>
		<ellipse fill="#070707" cx="814.392" cy="103.673" rx="3.823" ry="3.446"/>
		<ellipse fill="#070707" cx="814.392" cy="115.219" rx="3.823" ry="3.446"/>
		<ellipse fill="#070707" cx="814.392" cy="126.765" rx="3.823" ry="3.446"/>
		<ellipse fill="#070707" cx="814.392" cy="138.311" rx="3.823" ry="3.447"/>
		<ellipse fill="#070707" cx="814.392" cy="149.857" rx="3.823" ry="3.445"/>
		<ellipse fill="#070707" cx="814.392" cy="161.402" rx="3.823" ry="3.447"/>
		<ellipse fill="#070707" cx="814.392" cy="172.949" rx="3.823" ry="3.445"/>
	</g>
	<g>
		<ellipse fill="#070707" cx="827.092" cy="103.673" rx="3.823" ry="3.446"/>
		<ellipse fill="#070707" cx="827.092" cy="115.219" rx="3.823" ry="3.446"/>
		<ellipse fill="#070707" cx="827.092" cy="126.765" rx="3.823" ry="3.446"/>
		<ellipse fill="#070707" cx="827.092" cy="138.311" rx="3.823" ry="3.447"/>
		<ellipse fill="#070707" cx="827.092" cy="149.857" rx="3.823" ry="3.445"/>
		<ellipse fill="#070707" cx="827.092" cy="161.402" rx="3.823" ry="3.447"/>
		<ellipse fill="#070707" cx="827.092" cy="172.949" rx="3.823" ry="3.445"/>
	</g>
	<g>
		<ellipse fill="#070707" cx="839.793" cy="103.673" rx="3.823" ry="3.446"/>
		<ellipse fill="#070707" cx="839.793" cy="115.219" rx="3.823" ry="3.446"/>
		<ellipse fill="#070707" cx="839.793" cy="126.765" rx="3.823" ry="3.446"/>
		<ellipse fill="#070707" cx="839.793" cy="138.311" rx="3.823" ry="3.447"/>
		<ellipse fill="#070707" cx="839.793" cy="149.857" rx="3.823" ry="3.445"/>
		<ellipse fill="#070707" cx="839.793" cy="161.402" rx="3.823" ry="3.447"/>
		<ellipse fill="#070707" cx="839.793" cy="172.949" rx="3.823" ry="3.445"/>
	</g>
</g>
<linearGradient id="SVGID_53_" gradientUnits="userSpaceOnUse" x1="878.8926" y1="119.752" x2="915.998" y2="119.752">
	<stop  offset="0" style="stop-color:#919292"/>
	<stop  offset="0.1148" style="stop-color:#F7F7F7"/>
	<stop  offset="0.9011" style="stop-color:#EEEEEF"/>
	<stop  offset="1" style="stop-color:#919292"/>
</linearGradient>
<rect x="878.893" y="25.349" fill="url(#SVGID_53_)" width="37.105" height="188.805"/>
<g>
	<path fill="#060001" d="M902.581,62.89c0,3.871-3.139,7.01-7.01,7.01c-3.872,0-7.01-3.139-7.01-7.01s3.138-7.01,7.01-7.01
		C899.442,55.88,902.581,59.019,902.581,62.89"/>
	<g>
		<defs>
			<path id="SVGID_54_" d="M895.571,57.258c-3.111,0-5.634,2.523-5.634,5.633c0,3.111,2.522,5.633,5.634,5.633
				c3.109,0,5.633-2.521,5.633-5.633C901.204,59.782,898.681,57.258,895.571,57.258"/>
		</defs>
		<clipPath id="SVGID_55_">
			<use xlink:href="#SVGID_54_"  overflow="visible"/>
		</clipPath>
		
			<radialGradient id="SVGID_56_" cx="-1794.5439" cy="286.5049" r="0.5306" gradientTransform="matrix(0 8.2859 -8.2859 0 3271.5313 14930.9258)" gradientUnits="userSpaceOnUse">
			<stop  offset="0" style="stop-color:#FFFFFF"/>
			<stop  offset="1" style="stop-color:#8DC21F"/>
		</radialGradient>
		<rect x="889.938" y="57.258" clip-path="url(#SVGID_55_)" fill="url(#SVGID_56_)" width="11.267" height="11.266"/>
	</g>
	<g opacity="0.5" enable-background="new    ">
		<g>
			<defs>
				<rect id="SVGID_57_" x="896.948" y="60.262" width="1.877" height="1.877"/>
			</defs>
			<clipPath id="SVGID_58_">
				<use xlink:href="#SVGID_57_"  overflow="visible"/>
			</clipPath>
			<rect x="896.948" y="60.262" clip-path="url(#SVGID_58_)" fill="#FFFFFF" width="1.877" height="1.877"/>
		</g>
	</g>
	<g opacity="0.5" enable-background="new    ">
		<g>
			<defs>
				<rect id="SVGID_59_" x="896.948" y="60.262" width="1.877" height="0.938"/>
			</defs>
			<clipPath id="SVGID_60_">
				<use xlink:href="#SVGID_59_"  overflow="visible"/>
			</clipPath>
			<rect x="896.948" y="60.262" clip-path="url(#SVGID_60_)" fill="#FFFFFF" width="1.877" height="0.938"/>
		</g>
	</g>
</g>
<linearGradient id="SVGID_61_" gradientUnits="userSpaceOnUse" x1="944.0557" y1="119.752" x2="981.1621" y2="119.752">
	<stop  offset="0" style="stop-color:#919292"/>
	<stop  offset="0.1148" style="stop-color:#F7F7F7"/>
	<stop  offset="0.9011" style="stop-color:#EEEEEF"/>
	<stop  offset="1" style="stop-color:#919292"/>
</linearGradient>
<rect x="944.056" y="25.349" fill="url(#SVGID_61_)" width="37.106" height="188.805"/>
<g>
	<path fill="#060001" d="M967.744,62.89c0,3.871-3.139,7.01-7.01,7.01s-7.01-3.139-7.01-7.01s3.139-7.01,7.01-7.01
		S967.744,59.019,967.744,62.89"/>
	<g>
		<defs>
			<path id="SVGID_62_" d="M960.734,57.258c-3.111,0-5.634,2.523-5.634,5.633c0,3.111,2.522,5.633,5.634,5.633
				c3.109,0,5.633-2.521,5.633-5.633C966.367,59.782,963.844,57.258,960.734,57.258"/>
		</defs>
		<clipPath id="SVGID_63_">
			<use xlink:href="#SVGID_62_"  overflow="visible"/>
		</clipPath>
		
			<radialGradient id="SVGID_64_" cx="-1794.5439" cy="278.6416" r="0.5303" gradientTransform="matrix(0 8.2859 -8.2859 0 3271.5313 14930.9258)" gradientUnits="userSpaceOnUse">
			<stop  offset="0" style="stop-color:#FFFFFF"/>
			<stop  offset="1" style="stop-color:#8DC21F"/>
		</radialGradient>
		<rect x="955.101" y="57.258" clip-path="url(#SVGID_63_)" fill="url(#SVGID_64_)" width="11.267" height="11.266"/>
	</g>
	<g opacity="0.5" enable-background="new    ">
		<g>
			<defs>
				<rect id="SVGID_65_" x="962.111" y="60.262" width="1.877" height="1.877"/>
			</defs>
			<clipPath id="SVGID_66_">
				<use xlink:href="#SVGID_65_"  overflow="visible"/>
			</clipPath>
			<rect x="962.111" y="60.262" clip-path="url(#SVGID_66_)" fill="#FFFFFF" width="1.877" height="1.877"/>
		</g>
	</g>
	<g opacity="0.5" enable-background="new    ">
		<g>
			<defs>
				<rect id="SVGID_67_" x="962.111" y="60.262" width="1.877" height="0.938"/>
			</defs>
			<clipPath id="SVGID_68_">
				<use xlink:href="#SVGID_67_"  overflow="visible"/>
			</clipPath>
			<rect x="962.111" y="60.262" clip-path="url(#SVGID_68_)" fill="#FFFFFF" width="1.877" height="0.938"/>
		</g>
	</g>
</g>
<linearGradient id="SVGID_69_" gradientUnits="userSpaceOnUse" x1="1009.2197" y1="119.752" x2="1046.3252" y2="119.752">
	<stop  offset="0" style="stop-color:#919292"/>
	<stop  offset="0.1148" style="stop-color:#F7F7F7"/>
	<stop  offset="0.9011" style="stop-color:#EEEEEF"/>
	<stop  offset="1" style="stop-color:#919292"/>
</linearGradient>
<rect x="1009.22" y="25.349" fill="url(#SVGID_69_)" width="37.105" height="188.805"/>
<g>
	<path fill="#060001" d="M1032.908,62.89c0,3.871-3.139,7.01-7.01,7.01s-7.01-3.139-7.01-7.01s3.139-7.01,7.01-7.01
		S1032.908,59.019,1032.908,62.89"/>
	<g>
		<defs>
			<path id="SVGID_70_" d="M1025.898,57.258c-3.111,0-5.634,2.523-5.634,5.633c0,3.111,2.522,5.633,5.634,5.633
				c3.109,0,5.633-2.521,5.633-5.633C1031.531,59.782,1029.008,57.258,1025.898,57.258"/>
		</defs>
		<clipPath id="SVGID_71_">
			<use xlink:href="#SVGID_70_"  overflow="visible"/>
		</clipPath>
		
			<radialGradient id="SVGID_72_" cx="-1794.5439" cy="270.7764" r="0.5306" gradientTransform="matrix(0 8.2859 -8.2859 0 3271.5313 14930.9258)" gradientUnits="userSpaceOnUse">
			<stop  offset="0" style="stop-color:#FFFFFF"/>
			<stop  offset="1" style="stop-color:#8DC21F"/>
		</radialGradient>
		<rect x="1020.265" y="57.258" clip-path="url(#SVGID_71_)" fill="url(#SVGID_72_)" width="11.267" height="11.266"/>
	</g>
	<g opacity="0.5" enable-background="new    ">
		<g>
			<defs>
				<rect id="SVGID_73_" x="1027.275" y="60.262" width="1.877" height="1.877"/>
			</defs>
			<clipPath id="SVGID_74_">
				<use xlink:href="#SVGID_73_"  overflow="visible"/>
			</clipPath>
			<rect x="1027.275" y="60.262" clip-path="url(#SVGID_74_)" fill="#FFFFFF" width="1.877" height="1.877"/>
		</g>
	</g>
	<g opacity="0.5" enable-background="new    ">
		<g>
			<defs>
				<rect id="SVGID_75_" x="1027.275" y="60.262" width="1.877" height="0.938"/>
			</defs>
			<clipPath id="SVGID_76_">
				<use xlink:href="#SVGID_75_"  overflow="visible"/>
			</clipPath>
			<rect x="1027.275" y="60.262" clip-path="url(#SVGID_76_)" fill="#FFFFFF" width="1.877" height="0.938"/>
		</g>
	</g>
</g>
<linearGradient id="SVGID_77_" gradientUnits="userSpaceOnUse" x1="1074.3828" y1="119.752" x2="1111.4893" y2="119.752">
	<stop  offset="0" style="stop-color:#919292"/>
	<stop  offset="0.1148" style="stop-color:#F7F7F7"/>
	<stop  offset="0.9011" style="stop-color:#EEEEEF"/>
	<stop  offset="1" style="stop-color:#919292"/>
</linearGradient>
<rect x="1074.383" y="25.349" fill="url(#SVGID_77_)" width="37.106" height="188.805"/>
<linearGradient id="SVGID_78_" gradientUnits="userSpaceOnUse" x1="1139.5469" y1="119.752" x2="1176.6533" y2="119.752">
	<stop  offset="0" style="stop-color:#919292"/>
	<stop  offset="0.1148" style="stop-color:#F7F7F7"/>
	<stop  offset="0.9011" style="stop-color:#EEEEEF"/>
	<stop  offset="1" style="stop-color:#919292"/>
</linearGradient>
<rect x="1139.547" y="25.349" fill="url(#SVGID_78_)" width="37.106" height="188.805"/>
<rect x="878.545" y="180.936" fill="#686868" width="33.326" height="14.756"/>
<text transform="matrix(1 0 0 1 887.7061 193.6289)" fill="#FFFFFF" font-family="'NotoSansHans-Bold-GBpc-EUC-H'" font-size="12.3235">E0</text>
<rect x="944.071" y="180.809" fill="#686868" width="33.326" height="14.756"/>
<text transform="matrix(1 0 0 1 953.2324 193.501)" fill="#FFFFFF" font-family="'NotoSansHans-Bold-GBpc-EUC-H'" font-size="12.3235">E1</text>
<rect x="1009.598" y="180.68" fill="#686868" width="33.326" height="14.756"/>
<text transform="matrix(1 0 0 1 1018.7588 193.373)" fill="#FFFFFF" font-family="'NotoSansHans-Bold-GBpc-EUC-H'" font-size="12.3235">E2</text>
</svg>
