<?xml version="1.0" encoding="utf-8"?>
<!-- Generator: Adobe Illustrator 21.0.0, SVG Export Plug-In . SVG Version: 6.00 Build 0)  -->
<svg version="1.1" id="图层_1" xmlns="http://www.w3.org/2000/svg" xmlns:xlink="http://www.w3.org/1999/xlink" x="0px" y="0px"
	 width="1275.6px" height="505px" viewBox="0 0 1275.6 505" enable-background="new 0 0 1275.6 505" xml:space="preserve">
<g>
	<linearGradient id="SVGID_38_" gradientUnits="userSpaceOnUse" x1="192.7559" y1="697.7596" x2="1082.8346" y2="-192.3192">
		<stop  offset="0" style="stop-color:#717071"/>
		<stop  offset="2.103041e-02" style="stop-color:#908F90"/>
		<stop  offset="5.263596e-02" style="stop-color:#B7B7B7"/>
		<stop  offset="8.374418e-02" style="stop-color:#D7D6D7"/>
		<stop  offset="0.1138" style="stop-color:#EDEDED"/>
		<stop  offset="0.1424" style="stop-color:#FAFAFA"/>
		<stop  offset="0.1678" style="stop-color:#FFFFFF"/>
		<stop  offset="0.3173" style="stop-color:#DCDDDE"/>
		<stop  offset="0.4641" style="stop-color:#C1C3C4"/>
		<stop  offset="0.5942" style="stop-color:#B1B4B4"/>
		<stop  offset="0.694" style="stop-color:#ABAEAF"/>
		<stop  offset="0.99" style="stop-color:#FFFFFF"/>
	</linearGradient>
	<rect y="0.4" fill="url(#SVGID_38_)" width="1275.6" height="504.6"/>
	<g>
		<rect x="21" y="363.5" fill="#070002" width="15.9" height="15.9"/>
		<rect x="21" y="385.9" fill="#070002" width="15.9" height="15.9"/>
		<rect x="21" y="408.2" fill="#070002" width="15.9" height="15.9"/>
		<rect x="21" y="430.6" fill="#070002" width="15.9" height="15.9"/>
		<rect x="21" y="452.9" fill="#070002" width="15.9" height="15.9"/>
		<rect x="21" y="475.3" fill="#070002" width="15.9" height="15.9"/>
	</g>
	<g>
		<rect x="47" y="363.5" fill="#070002" width="15.9" height="15.9"/>
		<rect x="47" y="385.9" fill="#070002" width="15.9" height="15.9"/>
		<rect x="47" y="408.2" fill="#070002" width="15.9" height="15.9"/>
		<rect x="47" y="430.6" fill="#070002" width="15.9" height="15.9"/>
		<rect x="47" y="452.9" fill="#070002" width="15.9" height="15.9"/>
		<rect x="47" y="475.3" fill="#070002" width="15.9" height="15.9"/>
	</g>
	<g>
		<rect x="72.9" y="363.5" fill="#070002" width="15.9" height="15.9"/>
		<rect x="72.9" y="385.9" fill="#070002" width="15.9" height="15.9"/>
		<rect x="72.9" y="408.2" fill="#070002" width="15.9" height="15.9"/>
		<rect x="72.9" y="430.6" fill="#070002" width="15.9" height="15.9"/>
		<rect x="72.9" y="452.9" fill="#070002" width="15.9" height="15.9"/>
		<rect x="72.9" y="475.3" fill="#070002" width="15.9" height="15.9"/>
	</g>
	<g>
		<rect x="98.9" y="363.5" fill="#070002" width="15.9" height="15.9"/>
		<rect x="98.9" y="385.9" fill="#070002" width="15.9" height="15.9"/>
		<rect x="98.9" y="408.2" fill="#070002" width="15.9" height="15.9"/>
		<rect x="98.9" y="430.6" fill="#070002" width="15.9" height="15.9"/>
		<rect x="98.9" y="452.9" fill="#070002" width="15.9" height="15.9"/>
		<rect x="98.9" y="475.3" fill="#070002" width="15.9" height="15.9"/>
	</g>
	<g>
		<rect x="124.8" y="363.5" fill="#070002" width="15.9" height="15.9"/>
		<rect x="124.8" y="385.9" fill="#070002" width="15.9" height="15.9"/>
		<rect x="124.8" y="408.2" fill="#070002" width="15.9" height="15.9"/>
		<rect x="124.8" y="430.6" fill="#070002" width="15.9" height="15.9"/>
		<rect x="124.8" y="452.9" fill="#070002" width="15.9" height="15.9"/>
		<rect x="124.8" y="475.3" fill="#070002" width="15.9" height="15.9"/>
	</g>
	<g>
		<rect x="150.8" y="363.5" fill="#070002" width="15.9" height="15.9"/>
		<rect x="150.8" y="385.9" fill="#070002" width="15.9" height="15.9"/>
		<rect x="150.8" y="408.2" fill="#070002" width="15.9" height="15.9"/>
		<rect x="150.8" y="430.6" fill="#070002" width="15.9" height="15.9"/>
		<rect x="150.8" y="452.9" fill="#070002" width="15.9" height="15.9"/>
		<rect x="150.8" y="475.3" fill="#070002" width="15.9" height="15.9"/>
	</g>
	<g>
		<rect x="176.8" y="363.5" fill="#070002" width="15.9" height="15.9"/>
		<rect x="176.8" y="385.9" fill="#070002" width="15.9" height="15.9"/>
		<rect x="176.8" y="408.2" fill="#070002" width="15.9" height="15.9"/>
		<rect x="176.8" y="430.6" fill="#070002" width="15.9" height="15.9"/>
		<rect x="176.8" y="452.9" fill="#070002" width="15.9" height="15.9"/>
		<rect x="176.8" y="475.3" fill="#070002" width="15.9" height="15.9"/>
	</g>
	<g>
		<rect x="202.7" y="363.5" fill="#070002" width="15.9" height="15.9"/>
		<rect x="202.7" y="385.9" fill="#070002" width="15.9" height="15.9"/>
		<rect x="202.7" y="408.2" fill="#070002" width="15.9" height="15.9"/>
		<rect x="202.7" y="430.6" fill="#070002" width="15.9" height="15.9"/>
		<rect x="202.7" y="452.9" fill="#070002" width="15.9" height="15.9"/>
		<rect x="202.7" y="475.3" fill="#070002" width="15.9" height="15.9"/>
	</g>
	<g>
		<rect x="228.7" y="363.5" fill="#070002" width="15.9" height="15.9"/>
		<rect x="228.7" y="385.9" fill="#070002" width="15.9" height="15.9"/>
		<rect x="228.7" y="408.2" fill="#070002" width="15.9" height="15.9"/>
		<rect x="228.7" y="430.6" fill="#070002" width="15.9" height="15.9"/>
		<rect x="228.7" y="452.9" fill="#070002" width="15.9" height="15.9"/>
		<rect x="228.7" y="475.3" fill="#070002" width="15.9" height="15.9"/>
	</g>
	<g>
		<rect x="254.7" y="363.5" fill="#070002" width="15.9" height="15.9"/>
		<rect x="254.7" y="385.9" fill="#070002" width="15.9" height="15.9"/>
		<rect x="254.7" y="408.2" fill="#070002" width="15.9" height="15.9"/>
		<rect x="254.7" y="430.6" fill="#070002" width="15.9" height="15.9"/>
		<rect x="254.7" y="452.9" fill="#070002" width="15.9" height="15.9"/>
		<rect x="254.7" y="475.3" fill="#070002" width="15.9" height="15.9"/>
	</g>
	<rect x="874.6" fill="#070002" width="15.9" height="8"/>
	<rect x="874.6" y="14.4" fill="#070002" width="15.9" height="15.9"/>
	<rect x="874.6" y="36.8" fill="#070002" width="15.9" height="15.9"/>
	<rect x="900.6" fill="#070002" width="15.9" height="8"/>
	<rect x="900.6" y="14.4" fill="#070002" width="15.9" height="15.9"/>
	<rect x="900.6" y="36.8" fill="#070002" width="15.9" height="15.9"/>
	<rect x="926.5" fill="#070002" width="15.9" height="8"/>
	<rect x="926.5" y="14.4" fill="#070002" width="15.9" height="15.9"/>
	<rect x="926.5" y="36.8" fill="#070002" width="15.9" height="15.9"/>
	<rect x="952.5" fill="#070002" width="15.9" height="8"/>
	<rect x="952.5" y="14.4" fill="#070002" width="15.9" height="15.9"/>
	<rect x="952.5" y="36.8" fill="#070002" width="15.9" height="15.9"/>
	<rect x="978.5" fill="#070002" width="15.9" height="8"/>
	<rect x="978.5" y="14.4" fill="#070002" width="15.9" height="15.9"/>
	<rect x="1004.4" fill="#070002" width="15.9" height="8"/>
	<rect x="1004.4" y="14.4" fill="#070002" width="15.9" height="15.9"/>
	<rect x="1030.4" fill="#070002" width="15.9" height="8"/>
	<rect x="1030.4" y="14.4" fill="#070002" width="15.9" height="15.9"/>
	<rect x="1030.4" y="36.8" fill="#070002" width="15.9" height="15.9"/>
	<rect x="1056.3" fill="#070002" width="15.9" height="8"/>
	<rect x="1056.3" y="14.4" fill="#070002" width="15.9" height="15.9"/>
	<rect x="1056.3" y="36.8" fill="#070002" width="15.9" height="15.9"/>
	<rect x="1082.3" fill="#070002" width="15.9" height="8"/>
	<rect x="1082.3" y="14.4" fill="#070002" width="15.9" height="15.9"/>
	<rect x="1082.3" y="36.8" fill="#070002" width="15.9" height="15.9"/>
	<rect x="1108.3" fill="#070002" width="15.9" height="8"/>
	<rect x="1108.3" y="14.4" fill="#070002" width="15.9" height="15.9"/>
	<rect x="1108.3" y="36.8" fill="#070002" width="15.9" height="15.9"/>
	<rect x="1135.1" fill="#070002" width="15.9" height="8"/>
	<rect x="1135.1" y="14.4" fill="#070002" width="15.9" height="15.9"/>
	<rect x="1135.1" y="36.8" fill="#070002" width="15.9" height="15.9"/>
	<rect x="1161" fill="#070002" width="15.9" height="8"/>
	<rect x="1161" y="14.4" fill="#070002" width="15.9" height="15.9"/>
	<rect x="1187" fill="#070002" width="15.9" height="8"/>
	<rect x="1187" y="14.4" fill="#070002" width="15.9" height="15.9"/>
	<rect x="1213" fill="#070002" width="15.9" height="8"/>
	<rect x="1213" y="14.4" fill="#070002" width="15.9" height="15.9"/>
	<rect x="1213" y="36.8" fill="#070002" width="15.9" height="15.9"/>
	<rect x="1238.9" fill="#070002" width="15.9" height="8"/>
	<rect x="1238.9" y="14.4" fill="#070002" width="15.9" height="15.9"/>
	<rect x="1238.9" y="36.8" fill="#070002" width="15.9" height="15.9"/>
	<rect y="0.4" fill="#070002" width="845.4" height="352.6"/>
	<g>
		<rect x="8.4" y="62.3" fill="#606060" width="274.1" height="282.5"/>
		<g>
			<g>
				<ellipse fill="#070002" cx="145.5" cy="208" rx="109.5" ry="110.4"/>
				<g>
					<g>
						
							<linearGradient id="SVGID_39_" gradientUnits="userSpaceOnUse" x1="-1379.0459" y1="7753.5977" x2="-1279.7072" y2="7753.5977" gradientTransform="matrix(0.7071 -0.7071 0.7071 0.7071 -4441.4507 -6169.9214)">
							<stop  offset="0" style="stop-color:#AEB0B1"/>
							<stop  offset="8.064520e-02" style="stop-color:#AEB0B1"/>
							<stop  offset="0.129" style="stop-color:#D2D2D2"/>
							<stop  offset="0.2204" style="stop-color:#AEB0B1"/>
							<stop  offset="0.3118" style="stop-color:#717071"/>
							<stop  offset="0.5323" style="stop-color:#717071"/>
							<stop  offset="0.6882" style="stop-color:#AEB0B1"/>
							<stop  offset="0.8817" style="stop-color:#717071"/>
							<stop  offset="1" style="stop-color:#AEB0B1"/>
						</linearGradient>
						<path fill="url(#SVGID_39_)" d="M81.4,296.9l-8.5-2.3c8.8-33.6,26.4-64.5,51.1-89.4l6.2,6.3
							C106.6,235.3,89.8,264.8,81.4,296.9z"/>
					</g>
					<g>
						
							<linearGradient id="SVGID_41_" gradientUnits="userSpaceOnUse" x1="-2844.1956" y1="-13546.6641" x2="-2744.855" y2="-13546.6641" gradientTransform="matrix(-0.7071 0.7071 -0.7071 -0.7071 -11365.0527 -7439.585)">
							<stop  offset="0" style="stop-color:#AEB0B1"/>
							<stop  offset="8.064520e-02" style="stop-color:#AEB0B1"/>
							<stop  offset="0.129" style="stop-color:#D2D2D2"/>
							<stop  offset="0.2204" style="stop-color:#AEB0B1"/>
							<stop  offset="0.3118" style="stop-color:#717071"/>
							<stop  offset="0.5323" style="stop-color:#717071"/>
							<stop  offset="0.6882" style="stop-color:#AEB0B1"/>
							<stop  offset="0.8817" style="stop-color:#717071"/>
							<stop  offset="1" style="stop-color:#AEB0B1"/>
						</linearGradient>
						<path fill="url(#SVGID_41_)" d="M209.6,119l8.5,2.3c-8.8,33.6-26.4,64.6-51.1,89.4l-6.2-6.3
							C184.3,180.6,201.2,151.1,209.6,119z"/>
					</g>
				</g>
				<g>
					<g>
						
							<linearGradient id="SVGID_44_" gradientUnits="userSpaceOnUse" x1="8565.1865" y1="-3603.0159" x2="8664.3389" y2="-3603.0159" gradientTransform="matrix(0.7071 0.7071 -0.7071 0.7071 -8538.0859 -3380.5679)">
							<stop  offset="0" style="stop-color:#AEB0B1"/>
							<stop  offset="8.064520e-02" style="stop-color:#AEB0B1"/>
							<stop  offset="0.129" style="stop-color:#D2D2D2"/>
							<stop  offset="0.2204" style="stop-color:#AEB0B1"/>
							<stop  offset="0.3118" style="stop-color:#717071"/>
							<stop  offset="0.5323" style="stop-color:#717071"/>
							<stop  offset="0.6882" style="stop-color:#AEB0B1"/>
							<stop  offset="0.8817" style="stop-color:#717071"/>
							<stop  offset="1" style="stop-color:#AEB0B1"/>
						</linearGradient>
						<path fill="url(#SVGID_44_)" d="M57.2,143.3l2.2-8.6c33.4,8.9,64,26.7,88.7,51.5l-6.2,6.3C118.4,168.8,89.1,151.8,57.2,143.3z
							"/>
					</g>
					<g>
						
							<linearGradient id="SVGID_46_" gradientUnits="userSpaceOnUse" x1="-12788.2695" y1="-2191.0635" x2="-12689.1152" y2="-2191.0635" gradientTransform="matrix(-0.7071 -0.7071 0.7071 -0.7071 -7268.4204 -10304.1738)">
							<stop  offset="0" style="stop-color:#AEB0B1"/>
							<stop  offset="8.064520e-02" style="stop-color:#AEB0B1"/>
							<stop  offset="0.129" style="stop-color:#D2D2D2"/>
							<stop  offset="0.2204" style="stop-color:#AEB0B1"/>
							<stop  offset="0.3118" style="stop-color:#717071"/>
							<stop  offset="0.5323" style="stop-color:#717071"/>
							<stop  offset="0.6882" style="stop-color:#AEB0B1"/>
							<stop  offset="0.8817" style="stop-color:#717071"/>
							<stop  offset="1" style="stop-color:#AEB0B1"/>
						</linearGradient>
						<path fill="url(#SVGID_46_)" d="M233.7,272.6l-2.2,8.5c-33.4-8.9-64-26.7-88.7-51.5l6.2-6.3
							C172.6,247.1,201.8,264.1,233.7,272.6z"/>
					</g>
				</g>
				<ellipse fill="#BEBDBC" cx="144.6" cy="207.9" rx="51.6" ry="52"/>
				<g>
					<g>
						<path fill="#ACABAA" d="M227.4,93.2c0-8.4,6.8-15.2,15.1-15.2c8.3,0,15.1,6.8,15.1,15.2c0,8.4-6.8,15.2-15.1,15.2
							C234.2,108.4,227.4,101.6,227.4,93.2"/>
						<ellipse fill="none" stroke="#8F8F8F" stroke-miterlimit="10" cx="242.5" cy="93.2" rx="15.1" ry="15.2"/>
						<path fill="#ACABAA" d="M231.4,93.2c0-6.2,5-11.2,11.1-11.2c6.1,0,11.1,5,11.1,11.2c0,6.2-5,11.2-11.1,11.2
							C236.4,104.3,231.4,99.3,231.4,93.2"/>
						<ellipse fill="none" stroke="#8F8F8F" stroke-miterlimit="10" cx="242.5" cy="93.2" rx="11.1" ry="11.2"/>
						<g>
							<g>
								<defs>
									<rect id="SVGID_371_" x="232.1" y="82.7" width="20.9" height="21"/>
								</defs>
								<clipPath id="SVGID_48_">
									<use xlink:href="#SVGID_371_"  overflow="visible"/>
								</clipPath>
								<path clip-path="url(#SVGID_48_)" fill="#BCBBBA" d="M232.1,93.2c0-5.8,4.7-10.5,10.4-10.5c5.8,0,10.4,4.7,10.4,10.5
									c0,5.8-4.7,10.5-10.4,10.5C236.7,103.7,232.1,99,232.1,93.2"/>
								<path clip-path="url(#SVGID_48_)" fill="#BFBDBB" d="M232.3,93.2c0-5.7,4.6-10.3,10.2-10.3c5.6,0,10.2,4.6,10.2,10.3
									c0,5.7-4.6,10.3-10.2,10.3C236.9,103.4,232.3,98.8,232.3,93.2"/>
								<path clip-path="url(#SVGID_48_)" fill="#C0C0C0" d="M232.6,93.2c0-5.5,4.5-10,9.9-10c5.5,0,9.9,4.5,9.9,10
									c0,5.5-4.5,10-9.9,10C237,103.2,232.6,98.7,232.6,93.2"/>
								<path clip-path="url(#SVGID_48_)" fill="#C1C2C0" d="M232.8,93.2c0-5.4,4.3-9.8,9.7-9.8c5.4,0,9.7,4.4,9.7,9.8
									c0,5.4-4.3,9.8-9.7,9.8C237.1,102.9,232.8,98.6,232.8,93.2"/>
								<path clip-path="url(#SVGID_48_)" fill="#C3C5C5" d="M233.1,93.2c0-5.3,4.2-9.5,9.5-9.5c5.2,0,9.5,4.3,9.5,9.5
									c0,5.3-4.2,9.5-9.5,9.5C237.3,102.7,233.1,98.4,233.1,93.2"/>
								<path clip-path="url(#SVGID_48_)" fill="#C5C7C8" d="M233.3,93.2c0-5.1,4.1-9.3,9.2-9.3c5.1,0,9.2,4.2,9.2,9.3
									c0,5.1-4.1,9.3-9.2,9.3C237.4,102.5,233.3,98.3,233.3,93.2"/>
								<path clip-path="url(#SVGID_48_)" fill="#C7C9C9" d="M233.5,93.2c0-5,4-9,9-9s9,4,9,9c0,5-4,9-9,9S233.5,98.2,233.5,93.2"/>
								<path clip-path="url(#SVGID_48_)" fill="#C9CBCC" d="M233.8,93.2c0-4.8,3.9-8.8,8.7-8.8c4.8,0,8.7,3.9,8.7,8.8
									c0,4.8-3.9,8.8-8.7,8.8C237.7,102,233.8,98,233.8,93.2"/>
								<path clip-path="url(#SVGID_48_)" fill="#CCCFCE" d="M234,93.2c0-4.7,3.8-8.5,8.5-8.5c4.7,0,8.5,3.8,8.5,8.5
									c0,4.7-3.8,8.5-8.5,8.5C237.8,101.7,234,97.9,234,93.2"/>
								<path clip-path="url(#SVGID_48_)" fill="#CFD0D1" d="M234.3,93.2c0-4.6,3.7-8.3,8.2-8.3c4.5,0,8.2,3.7,8.2,8.3
									c0,4.6-3.7,8.3-8.2,8.3C238,101.5,234.3,97.8,234.3,93.2"/>
							</g>
						</g>
						<polygon fill="#5E5E5E" points="243.9,86.9 243.9,91.8 248.8,91.8 248.8,94.6 243.9,94.6 243.9,99.5 241.1,99.5 241.1,94.6 
							236.2,94.6 236.2,91.8 241.1,91.8 241.1,86.9 						"/>
						<path fill="#201512" d="M241.4,99.3v-4.5v-0.5h-0.5h-4.4V92h4.4h0.5v-0.5v-4.5h2.3v4.5V92h0.5h4.4v2.3h-4.4h-0.5v0.5v4.5
							H241.4z M240.9,99.7h3.2v-4.9h4.9v-3.2h-4.9v-4.9h-3.2v4.9H236v3.2h4.9V99.7z"/>
					</g>
					<g>
						<path fill="#ACABAA" d="M33.3,93.2c0-8.4,6.8-15.2,15.1-15.2c8.3,0,15.1,6.8,15.1,15.2c0,8.4-6.7,15.2-15.1,15.2
							C40.1,108.4,33.3,101.6,33.3,93.2"/>
						<ellipse fill="none" stroke="#8F8F8F" stroke-miterlimit="10" cx="48.4" cy="93.2" rx="15.1" ry="15.2"/>
						<path fill="#ACABAA" d="M37.3,93.2c0-6.2,5-11.2,11.1-11.2c6.1,0,11.1,5,11.1,11.2c0,6.2-5,11.2-11.1,11.2
							C42.3,104.3,37.3,99.3,37.3,93.2"/>
						<ellipse fill="none" stroke="#8F8F8F" stroke-miterlimit="10" cx="48.4" cy="93.2" rx="11.1" ry="11.2"/>
						<g>
							<g>
								<defs>
									<rect id="SVGID_370_" x="38" y="82.7" width="20.9" height="21"/>
								</defs>
								<clipPath id="SVGID_49_">
									<use xlink:href="#SVGID_370_"  overflow="visible"/>
								</clipPath>
								<path clip-path="url(#SVGID_49_)" fill="#BCBBBA" d="M38,93.2c0-5.8,4.7-10.5,10.4-10.5c5.8,0,10.4,4.7,10.4,10.5
									c0,5.8-4.7,10.5-10.4,10.5C42.6,103.7,38,99,38,93.2"/>
								<path clip-path="url(#SVGID_49_)" fill="#BFBDBB" d="M38.2,93.2c0-5.7,4.6-10.3,10.2-10.3c5.6,0,10.2,4.6,10.2,10.3
									c0,5.7-4.6,10.3-10.2,10.3C42.8,103.4,38.2,98.8,38.2,93.2"/>
								<path clip-path="url(#SVGID_49_)" fill="#C0C0C0" d="M38.5,93.2c0-5.5,4.5-10,9.9-10c5.5,0,9.9,4.5,9.9,10
									c0,5.5-4.5,10-9.9,10C42.9,103.2,38.5,98.7,38.5,93.2"/>
								<path clip-path="url(#SVGID_49_)" fill="#C1C2C0" d="M38.7,93.2c0-5.4,4.3-9.8,9.7-9.8c5.4,0,9.7,4.4,9.7,9.8
									c0,5.4-4.3,9.8-9.7,9.8C43.1,102.9,38.7,98.6,38.7,93.2"/>
								<path clip-path="url(#SVGID_49_)" fill="#C3C5C5" d="M39,93.2c0-5.3,4.2-9.5,9.5-9.5c5.2,0,9.5,4.3,9.5,9.5
									c0,5.3-4.2,9.5-9.5,9.5C43.2,102.7,39,98.4,39,93.2"/>
								<path clip-path="url(#SVGID_49_)" fill="#C5C7C8" d="M39.2,93.2c0-5.1,4.1-9.3,9.2-9.3c5.1,0,9.2,4.2,9.2,9.3
									c0,5.1-4.1,9.3-9.2,9.3C43.3,102.5,39.2,98.3,39.2,93.2"/>
								<path clip-path="url(#SVGID_49_)" fill="#C7C9C9" d="M39.4,93.2c0-5,4-9,9-9c4.9,0,9,4,9,9c0,5-4,9-9,9
									C43.5,102.2,39.4,98.2,39.4,93.2"/>
								<path clip-path="url(#SVGID_49_)" fill="#C9CBCC" d="M39.7,93.2c0-4.8,3.9-8.8,8.7-8.8c4.8,0,8.7,3.9,8.7,8.8
									c0,4.8-3.9,8.8-8.7,8.8C43.6,102,39.7,98,39.7,93.2"/>
								<path clip-path="url(#SVGID_49_)" fill="#CCCFCE" d="M39.9,93.2c0-4.7,3.8-8.5,8.5-8.5c4.7,0,8.5,3.8,8.5,8.5
									c0,4.7-3.8,8.5-8.5,8.5C43.7,101.7,39.9,97.9,39.9,93.2"/>
								<path clip-path="url(#SVGID_49_)" fill="#CFD0D1" d="M40.2,93.2c0-4.6,3.7-8.3,8.2-8.3c4.5,0,8.2,3.7,8.2,8.3
									c0,4.6-3.7,8.3-8.2,8.3C43.9,101.5,40.2,97.8,40.2,93.2"/>
							</g>
						</g>
						<polygon fill="#5E5E5E" points="49.8,86.9 49.8,91.8 54.7,91.8 54.7,94.6 49.8,94.6 49.8,99.5 47,99.5 47,94.6 42.1,94.6 
							42.1,91.8 47,91.8 47,86.9 						"/>
						<path fill="#201512" d="M47.3,99.3v-4.5v-0.5h-0.5h-4.4V92h4.4h0.5v-0.5v-4.5h2.3v4.5V92H50h4.4v2.3H50h-0.5v0.5v4.5H47.3z
							 M46.8,99.7H50v-4.9h4.9v-3.2H50v-4.9h-3.2v4.9h-4.9v3.2h4.9V99.7z"/>
					</g>
				</g>
				<g>
					<g>
						<path fill="#ACABAA" d="M227.4,311c0-8.4,6.8-15.2,15.1-15.2c8.3,0,15.1,6.8,15.1,15.2c0,8.4-6.8,15.2-15.1,15.2
							C234.2,326.2,227.4,319.4,227.4,311"/>
						<path fill="none" stroke="#8F8F8F" stroke-miterlimit="10" d="M227.4,311c0-8.4,6.8-15.2,15.1-15.2c8.3,0,15.1,6.8,15.1,15.2
							c0,8.4-6.8,15.2-15.1,15.2C234.2,326.2,227.4,319.4,227.4,311z"/>
						<path fill="#ACABAA" d="M231.4,311c0-6.2,5-11.2,11.1-11.2c6.1,0,11.1,5,11.1,11.2c0,6.2-5,11.2-11.1,11.2
							C236.4,322.1,231.4,317.1,231.4,311"/>
						<ellipse fill="none" stroke="#8F8F8F" stroke-miterlimit="10" cx="242.5" cy="311" rx="11.1" ry="11.2"/>
						<g>
							<g>
								<defs>
									<rect id="SVGID_369_" x="232.1" y="300.5" width="20.9" height="21"/>
								</defs>
								<clipPath id="SVGID_52_">
									<use xlink:href="#SVGID_369_"  overflow="visible"/>
								</clipPath>
								<path clip-path="url(#SVGID_52_)" fill="#BCBBBA" d="M232.1,311c0-5.8,4.7-10.5,10.4-10.5c5.8,0,10.4,4.7,10.4,10.5
									c0,5.8-4.7,10.5-10.4,10.5C236.7,321.5,232.1,316.8,232.1,311"/>
								<path clip-path="url(#SVGID_52_)" fill="#BFBDBB" d="M232.3,311c0-5.7,4.6-10.3,10.2-10.3c5.6,0,10.2,4.6,10.2,10.3
									c0,5.7-4.6,10.3-10.2,10.3C236.9,321.3,232.3,316.7,232.3,311"/>
								<path clip-path="url(#SVGID_52_)" fill="#C0C0C0" d="M232.6,311c0-5.5,4.5-10,9.9-10c5.5,0,9.9,4.5,9.9,10
									c0,5.5-4.5,10-9.9,10C237,321,232.6,316.5,232.6,311"/>
								<path clip-path="url(#SVGID_52_)" fill="#C1C2C0" d="M232.8,311c0-5.4,4.3-9.8,9.7-9.8c5.4,0,9.7,4.4,9.7,9.8
									c0,5.4-4.3,9.8-9.7,9.8C237.1,320.8,232.8,316.4,232.8,311"/>
								<path clip-path="url(#SVGID_52_)" fill="#C3C5C5" d="M233.1,311c0-5.3,4.2-9.5,9.5-9.5c5.2,0,9.5,4.3,9.5,9.5
									c0,5.3-4.2,9.5-9.5,9.5C237.3,320.5,233.1,316.2,233.1,311"/>
								<path clip-path="url(#SVGID_52_)" fill="#C5C7C8" d="M233.3,311c0-5.1,4.1-9.3,9.2-9.3c5.1,0,9.2,4.2,9.2,9.3
									c0,5.1-4.1,9.3-9.2,9.3C237.4,320.3,233.3,316.1,233.3,311"/>
								<path clip-path="url(#SVGID_52_)" fill="#C7C9C9" d="M233.5,311c0-5,4-9,9-9s9,4,9,9c0,5-4,9-9,9S233.5,316,233.5,311"/>
								<path clip-path="url(#SVGID_52_)" fill="#C9CBCC" d="M233.8,311c0-4.8,3.9-8.8,8.7-8.8c4.8,0,8.7,3.9,8.7,8.8
									c0,4.8-3.9,8.8-8.7,8.8C237.7,319.8,233.8,315.8,233.8,311"/>
								<path clip-path="url(#SVGID_52_)" fill="#CCCFCE" d="M234,311c0-4.7,3.8-8.5,8.5-8.5c4.7,0,8.5,3.8,8.5,8.5
									c0,4.7-3.8,8.5-8.5,8.5C237.8,319.5,234,315.7,234,311"/>
								<path clip-path="url(#SVGID_52_)" fill="#CFD0D1" d="M234.3,311c0-4.6,3.7-8.3,8.2-8.3c4.5,0,8.2,3.7,8.2,8.3
									c0,4.6-3.7,8.3-8.2,8.3C238,319.3,234.3,315.6,234.3,311"/>
							</g>
						</g>
						<polygon fill="#5E5E5E" points="243.9,304.7 243.9,309.6 248.8,309.6 248.8,312.4 243.9,312.4 243.9,317.3 241.1,317.3 
							241.1,312.4 236.2,312.4 236.2,309.6 241.1,309.6 241.1,304.7 						"/>
						<path fill="#201512" d="M241.4,317.1v-4.5v-0.5h-0.5h-4.4v-2.3h4.4h0.5v-0.5v-4.5h2.3v4.5v0.5h0.5h4.4v2.3h-4.4h-0.5v0.5v4.5
							H241.4z M240.9,317.5h3.2v-4.9h4.9v-3.2h-4.9v-4.9h-3.2v4.9H236v3.2h4.9V317.5z"/>
					</g>
					<g>
						<path fill="#ACABAA" d="M33.3,311c0-8.4,6.8-15.2,15.1-15.2c8.3,0,15.1,6.8,15.1,15.2c0,8.4-6.7,15.2-15.1,15.2
							C40.1,326.2,33.3,319.4,33.3,311"/>
						<path fill="none" stroke="#8F8F8F" stroke-miterlimit="10" d="M33.3,311c0-8.4,6.8-15.2,15.1-15.2c8.3,0,15.1,6.8,15.1,15.2
							c0,8.4-6.7,15.2-15.1,15.2C40.1,326.2,33.3,319.4,33.3,311z"/>
						<path fill="#ACABAA" d="M37.3,311c0-6.2,5-11.2,11.1-11.2c6.1,0,11.1,5,11.1,11.2c0,6.2-5,11.2-11.1,11.2
							C42.3,322.1,37.3,317.1,37.3,311"/>
						<ellipse fill="none" stroke="#8F8F8F" stroke-miterlimit="10" cx="48.4" cy="311" rx="11.1" ry="11.2"/>
						<g>
							<g>
								<defs>
									<rect id="SVGID_368_" x="38" y="300.5" width="20.9" height="21"/>
								</defs>
								<clipPath id="SVGID_53_">
									<use xlink:href="#SVGID_368_"  overflow="visible"/>
								</clipPath>
								<path clip-path="url(#SVGID_53_)" fill="#BCBBBA" d="M38,311c0-5.8,4.7-10.5,10.4-10.5c5.8,0,10.4,4.7,10.4,10.5
									c0,5.8-4.7,10.5-10.4,10.5C42.6,321.5,38,316.8,38,311"/>
								<path clip-path="url(#SVGID_53_)" fill="#BFBDBB" d="M38.2,311c0-5.7,4.6-10.3,10.2-10.3c5.6,0,10.2,4.6,10.2,10.3
									c0,5.7-4.6,10.3-10.2,10.3C42.8,321.3,38.2,316.7,38.2,311"/>
								<path clip-path="url(#SVGID_53_)" fill="#C0C0C0" d="M38.5,311c0-5.5,4.5-10,9.9-10c5.5,0,9.9,4.5,9.9,10
									c0,5.5-4.5,10-9.9,10C42.9,321,38.5,316.5,38.5,311"/>
								<path clip-path="url(#SVGID_53_)" fill="#C1C2C0" d="M38.7,311c0-5.4,4.3-9.8,9.7-9.8c5.4,0,9.7,4.4,9.7,9.8
									c0,5.4-4.3,9.8-9.7,9.8C43.1,320.8,38.7,316.4,38.7,311"/>
								<path clip-path="url(#SVGID_53_)" fill="#C3C5C5" d="M39,311c0-5.3,4.2-9.5,9.5-9.5c5.2,0,9.5,4.3,9.5,9.5
									c0,5.3-4.2,9.5-9.5,9.5C43.2,320.5,39,316.2,39,311"/>
								<path clip-path="url(#SVGID_53_)" fill="#C5C7C8" d="M39.2,311c0-5.1,4.1-9.3,9.2-9.3c5.1,0,9.2,4.2,9.2,9.3
									c0,5.1-4.1,9.3-9.2,9.3C43.3,320.3,39.2,316.1,39.2,311"/>
								<path clip-path="url(#SVGID_53_)" fill="#C7C9C9" d="M39.4,311c0-5,4-9,9-9c4.9,0,9,4,9,9c0,5-4,9-9,9
									C43.5,320,39.4,316,39.4,311"/>
								<path clip-path="url(#SVGID_53_)" fill="#C9CBCC" d="M39.7,311c0-4.8,3.9-8.8,8.7-8.8c4.8,0,8.7,3.9,8.7,8.8
									c0,4.8-3.9,8.8-8.7,8.8C43.6,319.8,39.7,315.8,39.7,311"/>
								<path clip-path="url(#SVGID_53_)" fill="#CCCFCE" d="M39.9,311c0-4.7,3.8-8.5,8.5-8.5c4.7,0,8.5,3.8,8.5,8.5
									c0,4.7-3.8,8.5-8.5,8.5C43.7,319.5,39.9,315.7,39.9,311"/>
								<path clip-path="url(#SVGID_53_)" fill="#CFD0D1" d="M40.2,311c0-4.6,3.7-8.3,8.2-8.3c4.5,0,8.2,3.7,8.2,8.3
									c0,4.6-3.7,8.3-8.2,8.3C43.9,319.3,40.2,315.6,40.2,311"/>
							</g>
						</g>
						<polygon fill="#5E5E5E" points="49.8,304.7 49.8,309.6 54.7,309.6 54.7,312.4 49.8,312.4 49.8,317.3 47,317.3 47,312.4 
							42.1,312.4 42.1,309.6 47,309.6 47,304.7 						"/>
						<path fill="#201512" d="M47.3,317.1v-4.5v-0.5h-0.5h-4.4v-2.3h4.4h0.5v-0.5v-4.5h2.3v4.5v0.5H50h4.4v2.3H50h-0.5v0.5v4.5H47.3
							z M46.8,317.5H50v-4.9h4.9v-3.2H50v-4.9h-3.2v4.9h-4.9v3.2h4.9V317.5z"/>
					</g>
				</g>
			</g>
			<path fill="#F7FC29" d="M175,221.1h-62.1c-1,0-1.8-0.8-1.8-1.8v-22.8c0-1,0.8-1.8,1.8-1.8H175c1,0,1.8,0.8,1.8,1.8v22.8
				C176.8,220.3,176,221.1,175,221.1z"/>
		</g>
	</g>
	<g>
		<rect x="286" y="62.3" fill="#606060" width="274.1" height="282.5"/>
		<g>
			<g>
				<ellipse fill="#070002" cx="423" cy="208" rx="109.5" ry="110.4"/>
				<g>
					<g>
						
							<linearGradient id="SVGID_55_" gradientUnits="userSpaceOnUse" x1="-1182.7681" y1="7949.8755" x2="-1083.4293" y2="7949.8755" gradientTransform="matrix(0.7071 -0.7071 0.7071 0.7071 -4441.4507 -6169.9214)">
							<stop  offset="0" style="stop-color:#AEB0B1"/>
							<stop  offset="8.064520e-02" style="stop-color:#AEB0B1"/>
							<stop  offset="0.129" style="stop-color:#D2D2D2"/>
							<stop  offset="0.2204" style="stop-color:#AEB0B1"/>
							<stop  offset="0.3118" style="stop-color:#717071"/>
							<stop  offset="0.5323" style="stop-color:#717071"/>
							<stop  offset="0.6882" style="stop-color:#AEB0B1"/>
							<stop  offset="0.8817" style="stop-color:#717071"/>
							<stop  offset="1" style="stop-color:#AEB0B1"/>
						</linearGradient>
						<path fill="url(#SVGID_55_)" d="M358.9,296.9l-8.5-2.3c8.8-33.6,26.4-64.5,51.1-89.4l6.2,6.3
							C384.2,235.3,367.3,264.8,358.9,296.9z"/>
					</g>
					<g>
						
							<linearGradient id="SVGID_57_" gradientUnits="userSpaceOnUse" x1="-3040.4734" y1="-13742.9414" x2="-2941.1328" y2="-13742.9414" gradientTransform="matrix(-0.7071 0.7071 -0.7071 -0.7071 -11365.0527 -7439.585)">
							<stop  offset="0" style="stop-color:#AEB0B1"/>
							<stop  offset="8.064520e-02" style="stop-color:#AEB0B1"/>
							<stop  offset="0.129" style="stop-color:#D2D2D2"/>
							<stop  offset="0.2204" style="stop-color:#AEB0B1"/>
							<stop  offset="0.3118" style="stop-color:#717071"/>
							<stop  offset="0.5323" style="stop-color:#717071"/>
							<stop  offset="0.6882" style="stop-color:#AEB0B1"/>
							<stop  offset="0.8817" style="stop-color:#717071"/>
							<stop  offset="1" style="stop-color:#AEB0B1"/>
						</linearGradient>
						<path fill="url(#SVGID_57_)" d="M487.1,119l8.5,2.3c-8.8,33.6-26.4,64.6-51.1,89.4l-6.2-6.3
							C461.9,180.6,478.7,151.1,487.1,119z"/>
					</g>
				</g>
				<g>
					<g>
						
							<linearGradient id="SVGID_60_" gradientUnits="userSpaceOnUse" x1="8761.4639" y1="-3799.2937" x2="8860.6172" y2="-3799.2937" gradientTransform="matrix(0.7071 0.7071 -0.7071 0.7071 -8538.0859 -3380.5679)">
							<stop  offset="0" style="stop-color:#AEB0B1"/>
							<stop  offset="8.064520e-02" style="stop-color:#AEB0B1"/>
							<stop  offset="0.129" style="stop-color:#D2D2D2"/>
							<stop  offset="0.2204" style="stop-color:#AEB0B1"/>
							<stop  offset="0.3118" style="stop-color:#717071"/>
							<stop  offset="0.5323" style="stop-color:#717071"/>
							<stop  offset="0.6882" style="stop-color:#AEB0B1"/>
							<stop  offset="0.8817" style="stop-color:#717071"/>
							<stop  offset="1" style="stop-color:#AEB0B1"/>
						</linearGradient>
						<path fill="url(#SVGID_60_)" d="M334.8,143.3l2.2-8.6c33.4,8.9,64,26.7,88.7,51.5l-6.2,6.3
							C395.9,168.8,366.7,151.8,334.8,143.3z"/>
					</g>
					<g>
						
							<linearGradient id="SVGID_62_" gradientUnits="userSpaceOnUse" x1="-12984.5469" y1="-1994.7858" x2="-12885.3926" y2="-1994.7858" gradientTransform="matrix(-0.7071 -0.7071 0.7071 -0.7071 -7268.4204 -10304.1738)">
							<stop  offset="0" style="stop-color:#AEB0B1"/>
							<stop  offset="8.064520e-02" style="stop-color:#AEB0B1"/>
							<stop  offset="0.129" style="stop-color:#D2D2D2"/>
							<stop  offset="0.2204" style="stop-color:#AEB0B1"/>
							<stop  offset="0.3118" style="stop-color:#717071"/>
							<stop  offset="0.5323" style="stop-color:#717071"/>
							<stop  offset="0.6882" style="stop-color:#AEB0B1"/>
							<stop  offset="0.8817" style="stop-color:#717071"/>
							<stop  offset="1" style="stop-color:#AEB0B1"/>
						</linearGradient>
						<path fill="url(#SVGID_62_)" d="M511.3,272.6l-2.2,8.5c-33.4-8.9-64-26.7-88.7-51.5l6.2-6.3
							C450.1,247.1,479.4,264.1,511.3,272.6z"/>
					</g>
				</g>
				<ellipse fill="#BEBDBC" cx="422.2" cy="207.9" rx="51.6" ry="52"/>
				<g>
					<g>
						<path fill="#ACABAA" d="M505,93.2c0-8.4,6.8-15.2,15.1-15.2c8.3,0,15.1,6.8,15.1,15.2c0,8.4-6.8,15.2-15.1,15.2
							C511.8,108.4,505,101.6,505,93.2"/>
						<ellipse fill="none" stroke="#8F8F8F" stroke-miterlimit="10" cx="520.1" cy="93.2" rx="15.1" ry="15.2"/>
						<path fill="#ACABAA" d="M509,93.2c0-6.2,5-11.2,11.1-11.2c6.1,0,11.1,5,11.1,11.2c0,6.2-5,11.2-11.1,11.2
							C514,104.3,509,99.3,509,93.2"/>
						<ellipse fill="none" stroke="#8F8F8F" stroke-miterlimit="10" cx="520.1" cy="93.2" rx="11.1" ry="11.2"/>
						<g>
							<g>
								<defs>
									<rect id="SVGID_374_" x="509.6" y="82.7" width="20.9" height="21"/>
								</defs>
								<clipPath id="SVGID_64_">
									<use xlink:href="#SVGID_374_"  overflow="visible"/>
								</clipPath>
								<path clip-path="url(#SVGID_64_)" fill="#BCBBBA" d="M509.6,93.2c0-5.8,4.7-10.5,10.4-10.5c5.8,0,10.4,4.7,10.4,10.5
									c0,5.8-4.7,10.5-10.4,10.5C514.3,103.7,509.6,99,509.6,93.2"/>
								<path clip-path="url(#SVGID_64_)" fill="#BFBDBB" d="M509.9,93.2c0-5.7,4.6-10.3,10.2-10.3c5.6,0,10.2,4.6,10.2,10.3
									c0,5.7-4.6,10.3-10.2,10.3C514.5,103.4,509.9,98.8,509.9,93.2"/>
								<path clip-path="url(#SVGID_64_)" fill="#C0C0C0" d="M510.1,93.2c0-5.5,4.5-10,9.9-10c5.5,0,9.9,4.5,9.9,10
									c0,5.5-4.5,10-9.9,10C514.6,103.2,510.1,98.7,510.1,93.2"/>
								<path clip-path="url(#SVGID_64_)" fill="#C1C2C0" d="M510.4,93.2c0-5.4,4.3-9.8,9.7-9.8c5.4,0,9.7,4.4,9.7,9.8
									c0,5.4-4.3,9.8-9.7,9.8C514.7,102.9,510.4,98.6,510.4,93.2"/>
								<path clip-path="url(#SVGID_64_)" fill="#C3C5C5" d="M510.6,93.2c0-5.3,4.2-9.5,9.5-9.5c5.2,0,9.5,4.3,9.5,9.5
									c0,5.3-4.2,9.5-9.5,9.5C514.9,102.7,510.6,98.4,510.6,93.2"/>
								<path clip-path="url(#SVGID_64_)" fill="#C5C7C8" d="M510.9,93.2c0-5.1,4.1-9.3,9.2-9.3c5.1,0,9.2,4.2,9.2,9.3
									c0,5.1-4.1,9.3-9.2,9.3C515,102.5,510.9,98.3,510.9,93.2"/>
								<path clip-path="url(#SVGID_64_)" fill="#C7C9C9" d="M511.1,93.2c0-5,4-9,9-9s9,4,9,9c0,5-4,9-9,9S511.1,98.2,511.1,93.2"/>
								<path clip-path="url(#SVGID_64_)" fill="#C9CBCC" d="M511.4,93.2c0-4.8,3.9-8.8,8.7-8.8c4.8,0,8.7,3.9,8.7,8.8
									c0,4.8-3.9,8.8-8.7,8.8C515.3,102,511.4,98,511.4,93.2"/>
								<path clip-path="url(#SVGID_64_)" fill="#CCCFCE" d="M511.6,93.2c0-4.7,3.8-8.5,8.5-8.5c4.7,0,8.5,3.8,8.5,8.5
									c0,4.7-3.8,8.5-8.5,8.5C515.4,101.7,511.6,97.9,511.6,93.2"/>
								<path clip-path="url(#SVGID_64_)" fill="#CFD0D1" d="M511.9,93.2c0-4.6,3.7-8.3,8.2-8.3c4.5,0,8.2,3.7,8.2,8.3
									c0,4.6-3.7,8.3-8.2,8.3C515.5,101.5,511.9,97.8,511.9,93.2"/>
							</g>
						</g>
						<polygon fill="#5E5E5E" points="521.4,86.9 521.4,91.8 526.4,91.8 526.4,94.6 521.4,94.6 521.4,99.5 518.7,99.5 518.7,94.6 
							513.8,94.6 513.8,91.8 518.7,91.8 518.7,86.9 						"/>
						<path fill="#201512" d="M519,99.3v-4.5v-0.5h-0.5H514V92h4.4h0.5v-0.5v-4.5h2.3v4.5V92h0.5h4.4v2.3h-4.4h-0.5v0.5v4.5H519z
							 M518.5,99.7h3.2v-4.9h4.9v-3.2h-4.9v-4.9h-3.2v4.9h-4.9v3.2h4.9V99.7z"/>
					</g>
					<g>
						<path fill="#ACABAA" d="M310.9,93.2c0-8.4,6.8-15.2,15.1-15.2c8.3,0,15.1,6.8,15.1,15.2c0,8.4-6.7,15.2-15.1,15.2
							C317.7,108.4,310.9,101.6,310.9,93.2"/>
						<ellipse fill="none" stroke="#8F8F8F" stroke-miterlimit="10" cx="326" cy="93.2" rx="15.1" ry="15.2"/>
						<path fill="#ACABAA" d="M314.9,93.2c0-6.2,5-11.2,11.1-11.2c6.1,0,11.1,5,11.1,11.2c0,6.2-5,11.2-11.1,11.2
							C319.9,104.3,314.9,99.3,314.9,93.2"/>
						<ellipse fill="none" stroke="#8F8F8F" stroke-miterlimit="10" cx="326" cy="93.2" rx="11.1" ry="11.2"/>
						<g>
							<g>
								<defs>
									<rect id="SVGID_373_" x="315.5" y="82.7" width="20.9" height="21"/>
								</defs>
								<clipPath id="SVGID_65_">
									<use xlink:href="#SVGID_373_"  overflow="visible"/>
								</clipPath>
								<path clip-path="url(#SVGID_65_)" fill="#BCBBBA" d="M315.5,93.2c0-5.8,4.7-10.5,10.4-10.5c5.8,0,10.4,4.7,10.4,10.5
									c0,5.8-4.7,10.5-10.4,10.5C320.2,103.7,315.5,99,315.5,93.2"/>
								<path clip-path="url(#SVGID_65_)" fill="#BFBDBB" d="M315.8,93.2c0-5.7,4.6-10.3,10.2-10.3c5.6,0,10.2,4.6,10.2,10.3
									c0,5.7-4.6,10.3-10.2,10.3C320.4,103.4,315.8,98.8,315.8,93.2"/>
								<path clip-path="url(#SVGID_65_)" fill="#C0C0C0" d="M316,93.2c0-5.5,4.5-10,9.9-10c5.5,0,9.9,4.5,9.9,10
									c0,5.5-4.5,10-9.9,10C320.5,103.2,316,98.7,316,93.2"/>
								<path clip-path="url(#SVGID_65_)" fill="#C1C2C0" d="M316.3,93.2c0-5.4,4.3-9.8,9.7-9.8c5.4,0,9.7,4.4,9.7,9.8
									c0,5.4-4.3,9.8-9.7,9.8C320.6,102.9,316.3,98.6,316.3,93.2"/>
								<path clip-path="url(#SVGID_65_)" fill="#C3C5C5" d="M316.5,93.2c0-5.3,4.2-9.5,9.5-9.5c5.2,0,9.5,4.3,9.5,9.5
									c0,5.3-4.2,9.5-9.5,9.5C320.8,102.7,316.5,98.4,316.5,93.2"/>
								<path clip-path="url(#SVGID_65_)" fill="#C5C7C8" d="M316.8,93.2c0-5.1,4.1-9.3,9.2-9.3c5.1,0,9.2,4.2,9.2,9.3
									c0,5.1-4.1,9.3-9.2,9.3C320.9,102.5,316.8,98.3,316.8,93.2"/>
								<path clip-path="url(#SVGID_65_)" fill="#C7C9C9" d="M317,93.2c0-5,4-9,9-9c4.9,0,9,4,9,9c0,5-4,9-9,9
									C321,102.2,317,98.2,317,93.2"/>
								<path clip-path="url(#SVGID_65_)" fill="#C9CBCC" d="M317.3,93.2c0-4.8,3.9-8.8,8.7-8.8c4.8,0,8.7,3.9,8.7,8.8
									c0,4.8-3.9,8.8-8.7,8.8C321.2,102,317.3,98,317.3,93.2"/>
								<path clip-path="url(#SVGID_65_)" fill="#CCCFCE" d="M317.5,93.2c0-4.7,3.8-8.5,8.5-8.5c4.7,0,8.5,3.8,8.5,8.5
									c0,4.7-3.8,8.5-8.5,8.5C321.3,101.7,317.5,97.9,317.5,93.2"/>
								<path clip-path="url(#SVGID_65_)" fill="#CFD0D1" d="M317.8,93.2c0-4.6,3.7-8.3,8.2-8.3c4.5,0,8.2,3.7,8.2,8.3
									c0,4.6-3.7,8.3-8.2,8.3C321.4,101.5,317.8,97.8,317.8,93.2"/>
							</g>
						</g>
						<polygon fill="#5E5E5E" points="327.4,86.9 327.4,91.8 332.3,91.8 332.3,94.6 327.4,94.6 327.4,99.5 324.6,99.5 324.6,94.6 
							319.7,94.6 319.7,91.8 324.6,91.8 324.6,86.9 						"/>
						<path fill="#201512" d="M324.9,99.3v-4.5v-0.5h-0.5h-4.4V92h4.4h0.5v-0.5v-4.5h2.3v4.5V92h0.5h4.4v2.3h-4.4h-0.5v0.5v4.5
							H324.9z M324.4,99.7h3.2v-4.9h4.9v-3.2h-4.9v-4.9h-3.2v4.9h-4.9v3.2h4.9V99.7z"/>
					</g>
				</g>
				<g>
					<g>
						<path fill="#ACABAA" d="M505,311c0-8.4,6.8-15.2,15.1-15.2c8.3,0,15.1,6.8,15.1,15.2c0,8.4-6.8,15.2-15.1,15.2
							C511.8,326.2,505,319.4,505,311"/>
						<path fill="none" stroke="#8F8F8F" stroke-miterlimit="10" d="M505,311c0-8.4,6.8-15.2,15.1-15.2c8.3,0,15.1,6.8,15.1,15.2
							c0,8.4-6.8,15.2-15.1,15.2C511.8,326.2,505,319.4,505,311z"/>
						<path fill="#ACABAA" d="M509,311c0-6.2,5-11.2,11.1-11.2c6.1,0,11.1,5,11.1,11.2c0,6.2-5,11.2-11.1,11.2
							C514,322.1,509,317.1,509,311"/>
						<ellipse fill="none" stroke="#8F8F8F" stroke-miterlimit="10" cx="520.1" cy="311" rx="11.1" ry="11.2"/>
						<g>
							<g>
								<defs>
									<rect id="SVGID_372_" x="509.6" y="300.5" width="20.9" height="21"/>
								</defs>
								<clipPath id="SVGID_66_">
									<use xlink:href="#SVGID_372_"  overflow="visible"/>
								</clipPath>
								<path clip-path="url(#SVGID_66_)" fill="#BCBBBA" d="M509.6,311c0-5.8,4.7-10.5,10.4-10.5c5.8,0,10.4,4.7,10.4,10.5
									c0,5.8-4.7,10.5-10.4,10.5C514.3,321.5,509.6,316.8,509.6,311"/>
								<path clip-path="url(#SVGID_66_)" fill="#BFBDBB" d="M509.9,311c0-5.7,4.6-10.3,10.2-10.3c5.6,0,10.2,4.6,10.2,10.3
									c0,5.7-4.6,10.3-10.2,10.3C514.5,321.3,509.9,316.7,509.9,311"/>
								<path clip-path="url(#SVGID_66_)" fill="#C0C0C0" d="M510.1,311c0-5.5,4.5-10,9.9-10c5.5,0,9.9,4.5,9.9,10
									c0,5.5-4.5,10-9.9,10C514.6,321,510.1,316.5,510.1,311"/>
								<path clip-path="url(#SVGID_66_)" fill="#C1C2C0" d="M510.4,311c0-5.4,4.3-9.8,9.7-9.8c5.4,0,9.7,4.4,9.7,9.8
									c0,5.4-4.3,9.8-9.7,9.8C514.7,320.8,510.4,316.4,510.4,311"/>
								<path clip-path="url(#SVGID_66_)" fill="#C3C5C5" d="M510.6,311c0-5.3,4.2-9.5,9.5-9.5c5.2,0,9.5,4.3,9.5,9.5
									c0,5.3-4.2,9.5-9.5,9.5C514.9,320.5,510.6,316.2,510.6,311"/>
								<path clip-path="url(#SVGID_66_)" fill="#C5C7C8" d="M510.9,311c0-5.1,4.1-9.3,9.2-9.3c5.1,0,9.2,4.2,9.2,9.3
									c0,5.1-4.1,9.3-9.2,9.3C515,320.3,510.9,316.1,510.9,311"/>
								<path clip-path="url(#SVGID_66_)" fill="#C7C9C9" d="M511.1,311c0-5,4-9,9-9s9,4,9,9c0,5-4,9-9,9S511.1,316,511.1,311"/>
								<path clip-path="url(#SVGID_66_)" fill="#C9CBCC" d="M511.4,311c0-4.8,3.9-8.8,8.7-8.8c4.8,0,8.7,3.9,8.7,8.8
									c0,4.8-3.9,8.8-8.7,8.8C515.3,319.8,511.4,315.8,511.4,311"/>
								<path clip-path="url(#SVGID_66_)" fill="#CCCFCE" d="M511.6,311c0-4.7,3.8-8.5,8.5-8.5c4.7,0,8.5,3.8,8.5,8.5
									c0,4.7-3.8,8.5-8.5,8.5C515.4,319.5,511.6,315.7,511.6,311"/>
								<path clip-path="url(#SVGID_66_)" fill="#CFD0D1" d="M511.9,311c0-4.6,3.7-8.3,8.2-8.3c4.5,0,8.2,3.7,8.2,8.3
									c0,4.6-3.7,8.3-8.2,8.3C515.5,319.3,511.9,315.6,511.9,311"/>
							</g>
						</g>
						<polygon fill="#5E5E5E" points="521.4,304.7 521.4,309.6 526.4,309.6 526.4,312.4 521.4,312.4 521.4,317.3 518.7,317.3 
							518.7,312.4 513.8,312.4 513.8,309.6 518.7,309.6 518.7,304.7 						"/>
						<path fill="#201512" d="M519,317.1v-4.5v-0.5h-0.5H514v-2.3h4.4h0.5v-0.5v-4.5h2.3v4.5v0.5h0.5h4.4v2.3h-4.4h-0.5v0.5v4.5H519
							z M518.5,317.5h3.2v-4.9h4.9v-3.2h-4.9v-4.9h-3.2v4.9h-4.9v3.2h4.9V317.5z"/>
					</g>
					<g>
						<path fill="#ACABAA" d="M310.9,311c0-8.4,6.8-15.2,15.1-15.2c8.3,0,15.1,6.8,15.1,15.2c0,8.4-6.7,15.2-15.1,15.2
							C317.7,326.2,310.9,319.4,310.9,311"/>
						<path fill="none" stroke="#8F8F8F" stroke-miterlimit="10" d="M310.9,311c0-8.4,6.8-15.2,15.1-15.2c8.3,0,15.1,6.8,15.1,15.2
							c0,8.4-6.7,15.2-15.1,15.2C317.7,326.2,310.9,319.4,310.9,311z"/>
						<path fill="#ACABAA" d="M314.9,311c0-6.2,5-11.2,11.1-11.2c6.1,0,11.1,5,11.1,11.2c0,6.2-5,11.2-11.1,11.2
							C319.9,322.1,314.9,317.1,314.9,311"/>
						<ellipse fill="none" stroke="#8F8F8F" stroke-miterlimit="10" cx="326" cy="311" rx="11.1" ry="11.2"/>
						<g>
							<g>
								<defs>
									<rect id="SVGID_367_" x="315.5" y="300.5" width="20.9" height="21"/>
								</defs>
								<clipPath id="SVGID_68_">
									<use xlink:href="#SVGID_367_"  overflow="visible"/>
								</clipPath>
								<path clip-path="url(#SVGID_68_)" fill="#BCBBBA" d="M315.5,311c0-5.8,4.7-10.5,10.4-10.5c5.8,0,10.4,4.7,10.4,10.5
									c0,5.8-4.7,10.5-10.4,10.5C320.2,321.5,315.5,316.8,315.5,311"/>
								<path clip-path="url(#SVGID_68_)" fill="#BFBDBB" d="M315.8,311c0-5.7,4.6-10.3,10.2-10.3c5.6,0,10.2,4.6,10.2,10.3
									c0,5.7-4.6,10.3-10.2,10.3C320.4,321.3,315.8,316.7,315.8,311"/>
								<path clip-path="url(#SVGID_68_)" fill="#C0C0C0" d="M316,311c0-5.5,4.5-10,9.9-10c5.5,0,9.9,4.5,9.9,10
									c0,5.5-4.5,10-9.9,10C320.5,321,316,316.5,316,311"/>
								<path clip-path="url(#SVGID_68_)" fill="#C1C2C0" d="M316.3,311c0-5.4,4.3-9.8,9.7-9.8c5.4,0,9.7,4.4,9.7,9.8
									c0,5.4-4.3,9.8-9.7,9.8C320.6,320.8,316.3,316.4,316.3,311"/>
								<path clip-path="url(#SVGID_68_)" fill="#C3C5C5" d="M316.5,311c0-5.3,4.2-9.5,9.5-9.5c5.2,0,9.5,4.3,9.5,9.5
									c0,5.3-4.2,9.5-9.5,9.5C320.8,320.5,316.5,316.2,316.5,311"/>
								<path clip-path="url(#SVGID_68_)" fill="#C5C7C8" d="M316.8,311c0-5.1,4.1-9.3,9.2-9.3c5.1,0,9.2,4.2,9.2,9.3
									c0,5.1-4.1,9.3-9.2,9.3C320.9,320.3,316.8,316.1,316.8,311"/>
								<path clip-path="url(#SVGID_68_)" fill="#C7C9C9" d="M317,311c0-5,4-9,9-9c4.9,0,9,4,9,9c0,5-4,9-9,9
									C321,320,317,316,317,311"/>
								<path clip-path="url(#SVGID_68_)" fill="#C9CBCC" d="M317.3,311c0-4.8,3.9-8.8,8.7-8.8c4.8,0,8.7,3.9,8.7,8.8
									c0,4.8-3.9,8.8-8.7,8.8C321.2,319.8,317.3,315.8,317.3,311"/>
								<path clip-path="url(#SVGID_68_)" fill="#CCCFCE" d="M317.5,311c0-4.7,3.8-8.5,8.5-8.5c4.7,0,8.5,3.8,8.5,8.5
									c0,4.7-3.8,8.5-8.5,8.5C321.3,319.5,317.5,315.7,317.5,311"/>
								<path clip-path="url(#SVGID_68_)" fill="#CFD0D1" d="M317.8,311c0-4.6,3.7-8.3,8.2-8.3c4.5,0,8.2,3.7,8.2,8.3
									c0,4.6-3.7,8.3-8.2,8.3C321.4,319.3,317.8,315.6,317.8,311"/>
							</g>
						</g>
						<polygon fill="#5E5E5E" points="327.4,304.7 327.4,309.6 332.3,309.6 332.3,312.4 327.4,312.4 327.4,317.3 324.6,317.3 
							324.6,312.4 319.7,312.4 319.7,309.6 324.6,309.6 324.6,304.7 						"/>
						<path fill="#201512" d="M324.9,317.1v-4.5v-0.5h-0.5h-4.4v-2.3h4.4h0.5v-0.5v-4.5h2.3v4.5v0.5h0.5h4.4v2.3h-4.4h-0.5v0.5v4.5
							H324.9z M324.4,317.5h3.2v-4.9h4.9v-3.2h-4.9v-4.9h-3.2v4.9h-4.9v3.2h4.9V317.5z"/>
					</g>
				</g>
			</g>
			<path fill="#F7FC29" d="M452.5,221.1h-62.1c-1,0-1.8-0.8-1.8-1.8v-22.8c0-1,0.8-1.8,1.8-1.8h62.1c1,0,1.8,0.8,1.8,1.8v22.8
				C454.4,220.3,453.5,221.1,452.5,221.1z"/>
		</g>
	</g>
	<g>
		<rect x="563.6" y="62.3" fill="#606060" width="274.1" height="282.5"/>
		<g>
			<g>
				<ellipse fill="#070002" cx="700.6" cy="208" rx="109.5" ry="110.4"/>
				<g>
					<g>
						
							<linearGradient id="SVGID_69_" gradientUnits="userSpaceOnUse" x1="-986.4902" y1="8146.1533" x2="-887.1515" y2="8146.1533" gradientTransform="matrix(0.7071 -0.7071 0.7071 0.7071 -4441.4507 -6169.9214)">
							<stop  offset="0" style="stop-color:#AEB0B1"/>
							<stop  offset="8.064520e-02" style="stop-color:#AEB0B1"/>
							<stop  offset="0.129" style="stop-color:#D2D2D2"/>
							<stop  offset="0.2204" style="stop-color:#AEB0B1"/>
							<stop  offset="0.3118" style="stop-color:#717071"/>
							<stop  offset="0.5323" style="stop-color:#717071"/>
							<stop  offset="0.6882" style="stop-color:#AEB0B1"/>
							<stop  offset="0.8817" style="stop-color:#717071"/>
							<stop  offset="1" style="stop-color:#AEB0B1"/>
						</linearGradient>
						<path fill="url(#SVGID_69_)" d="M636.5,296.9l-8.5-2.3c8.8-33.6,26.4-64.5,51.1-89.4l6.2,6.3
							C661.8,235.3,644.9,264.8,636.5,296.9z"/>
					</g>
					<g>
						
							<linearGradient id="SVGID_71_" gradientUnits="userSpaceOnUse" x1="-3236.7512" y1="-13939.2197" x2="-3137.4106" y2="-13939.2197" gradientTransform="matrix(-0.7071 0.7071 -0.7071 -0.7071 -11365.0527 -7439.585)">
							<stop  offset="0" style="stop-color:#AEB0B1"/>
							<stop  offset="8.064520e-02" style="stop-color:#AEB0B1"/>
							<stop  offset="0.129" style="stop-color:#D2D2D2"/>
							<stop  offset="0.2204" style="stop-color:#AEB0B1"/>
							<stop  offset="0.3118" style="stop-color:#717071"/>
							<stop  offset="0.5323" style="stop-color:#717071"/>
							<stop  offset="0.6882" style="stop-color:#AEB0B1"/>
							<stop  offset="0.8817" style="stop-color:#717071"/>
							<stop  offset="1" style="stop-color:#AEB0B1"/>
						</linearGradient>
						<path fill="url(#SVGID_71_)" d="M764.7,119l8.5,2.3c-8.8,33.6-26.4,64.6-51.1,89.4l-6.2-6.3
							C739.4,180.6,756.3,151.1,764.7,119z"/>
					</g>
				</g>
				<g>
					<g>
						
							<linearGradient id="SVGID_74_" gradientUnits="userSpaceOnUse" x1="8957.7422" y1="-3995.5715" x2="9056.8945" y2="-3995.5715" gradientTransform="matrix(0.7071 0.7071 -0.7071 0.7071 -8538.0859 -3380.5679)">
							<stop  offset="0" style="stop-color:#AEB0B1"/>
							<stop  offset="8.064520e-02" style="stop-color:#AEB0B1"/>
							<stop  offset="0.129" style="stop-color:#D2D2D2"/>
							<stop  offset="0.2204" style="stop-color:#AEB0B1"/>
							<stop  offset="0.3118" style="stop-color:#717071"/>
							<stop  offset="0.5323" style="stop-color:#717071"/>
							<stop  offset="0.6882" style="stop-color:#AEB0B1"/>
							<stop  offset="0.8817" style="stop-color:#717071"/>
							<stop  offset="1" style="stop-color:#AEB0B1"/>
						</linearGradient>
						<path fill="url(#SVGID_74_)" d="M612.4,143.3l2.2-8.6c33.4,8.9,64,26.7,88.7,51.5l-6.2,6.3
							C673.5,168.8,644.2,151.8,612.4,143.3z"/>
					</g>
					<g>
						
							<linearGradient id="SVGID_293_" gradientUnits="userSpaceOnUse" x1="-13180.8252" y1="-1798.5079" x2="-13081.6709" y2="-1798.5079" gradientTransform="matrix(-0.7071 -0.7071 0.7071 -0.7071 -7268.4204 -10304.1738)">
							<stop  offset="0" style="stop-color:#AEB0B1"/>
							<stop  offset="8.064520e-02" style="stop-color:#AEB0B1"/>
							<stop  offset="0.129" style="stop-color:#D2D2D2"/>
							<stop  offset="0.2204" style="stop-color:#AEB0B1"/>
							<stop  offset="0.3118" style="stop-color:#717071"/>
							<stop  offset="0.5323" style="stop-color:#717071"/>
							<stop  offset="0.6882" style="stop-color:#AEB0B1"/>
							<stop  offset="0.8817" style="stop-color:#717071"/>
							<stop  offset="1" style="stop-color:#AEB0B1"/>
						</linearGradient>
						<path fill="url(#SVGID_293_)" d="M788.8,272.6l-2.2,8.5c-33.4-8.9-64-26.7-88.7-51.5l6.2-6.3
							C727.7,247.1,757,264.1,788.8,272.6z"/>
					</g>
				</g>
				<ellipse fill="#BEBDBC" cx="699.8" cy="207.9" rx="51.6" ry="52"/>
				<g>
					<g>
						<path fill="#ACABAA" d="M782.6,93.2c0-8.4,6.8-15.2,15.1-15.2c8.3,0,15.1,6.8,15.1,15.2c0,8.4-6.8,15.2-15.1,15.2
							C789.3,108.4,782.6,101.6,782.6,93.2"/>
						<ellipse fill="none" stroke="#8F8F8F" stroke-miterlimit="10" cx="797.7" cy="93.2" rx="15.1" ry="15.2"/>
						<path fill="#ACABAA" d="M786.6,93.2c0-6.2,5-11.2,11.1-11.2c6.1,0,11.1,5,11.1,11.2c0,6.2-5,11.2-11.1,11.2
							C791.5,104.3,786.6,99.3,786.6,93.2"/>
						<ellipse fill="none" stroke="#8F8F8F" stroke-miterlimit="10" cx="797.7" cy="93.2" rx="11.1" ry="11.2"/>
						<g>
							<g>
								<defs>
									<rect id="SVGID_378_" x="787.2" y="82.7" width="20.9" height="21"/>
								</defs>
								<clipPath id="SVGID_294_">
									<use xlink:href="#SVGID_378_"  overflow="visible"/>
								</clipPath>
								<path clip-path="url(#SVGID_294_)" fill="#BCBBBA" d="M787.2,93.2c0-5.8,4.7-10.5,10.4-10.5c5.8,0,10.4,4.7,10.4,10.5
									c0,5.8-4.7,10.5-10.4,10.5C791.9,103.7,787.2,99,787.2,93.2"/>
								<path clip-path="url(#SVGID_294_)" fill="#BFBDBB" d="M787.5,93.2c0-5.7,4.6-10.3,10.2-10.3c5.6,0,10.2,4.6,10.2,10.3
									c0,5.7-4.6,10.3-10.2,10.3C792,103.4,787.5,98.8,787.5,93.2"/>
								<path clip-path="url(#SVGID_294_)" fill="#C0C0C0" d="M787.7,93.2c0-5.5,4.5-10,9.9-10c5.5,0,9.9,4.5,9.9,10
									c0,5.5-4.5,10-9.9,10C792.2,103.2,787.7,98.7,787.7,93.2"/>
								<path clip-path="url(#SVGID_294_)" fill="#C1C2C0" d="M788,93.2c0-5.4,4.3-9.8,9.7-9.8c5.4,0,9.7,4.4,9.7,9.8
									c0,5.4-4.3,9.8-9.7,9.8C792.3,102.9,788,98.6,788,93.2"/>
								<path clip-path="url(#SVGID_294_)" fill="#C3C5C5" d="M788.2,93.2c0-5.3,4.2-9.5,9.5-9.5c5.2,0,9.5,4.3,9.5,9.5
									c0,5.3-4.2,9.5-9.5,9.5C792.4,102.7,788.2,98.4,788.2,93.2"/>
								<path clip-path="url(#SVGID_294_)" fill="#C5C7C8" d="M788.4,93.2c0-5.1,4.1-9.3,9.2-9.3c5.1,0,9.2,4.2,9.2,9.3
									c0,5.1-4.1,9.3-9.2,9.3C792.6,102.5,788.4,98.3,788.4,93.2"/>
								<path clip-path="url(#SVGID_294_)" fill="#C7C9C9" d="M788.7,93.2c0-5,4-9,9-9s9,4,9,9c0,5-4,9-9,9S788.7,98.2,788.7,93.2"
									/>
								<path clip-path="url(#SVGID_294_)" fill="#C9CBCC" d="M788.9,93.2c0-4.8,3.9-8.8,8.7-8.8c4.8,0,8.7,3.9,8.7,8.8
									c0,4.8-3.9,8.8-8.7,8.8C792.8,102,788.9,98,788.9,93.2"/>
								<path clip-path="url(#SVGID_294_)" fill="#CCCFCE" d="M789.2,93.2c0-4.7,3.8-8.5,8.5-8.5c4.7,0,8.5,3.8,8.5,8.5
									c0,4.7-3.8,8.5-8.5,8.5C793,101.7,789.2,97.9,789.2,93.2"/>
								<path clip-path="url(#SVGID_294_)" fill="#CFD0D1" d="M789.4,93.2c0-4.6,3.7-8.3,8.2-8.3c4.5,0,8.2,3.7,8.2,8.3
									c0,4.6-3.7,8.3-8.2,8.3C793.1,101.5,789.4,97.8,789.4,93.2"/>
							</g>
						</g>
						<polygon fill="#5E5E5E" points="799,86.9 799,91.8 803.9,91.8 803.9,94.6 799,94.6 799,99.5 796.3,99.5 796.3,94.6 
							791.4,94.6 791.4,91.8 796.3,91.8 796.3,86.9 						"/>
						<path fill="#201512" d="M796.5,99.3v-4.5v-0.5h-0.5h-4.4V92h4.4h0.5v-0.5v-4.5h2.3v4.5V92h0.5h4.4v2.3h-4.4h-0.5v0.5v4.5
							H796.5z M796.1,99.7h3.2v-4.9h4.9v-3.2h-4.9v-4.9h-3.2v4.9h-4.9v3.2h4.9V99.7z"/>
					</g>
					<g>
						<path fill="#ACABAA" d="M588.5,93.2c0-8.4,6.8-15.2,15.1-15.2c8.3,0,15.1,6.8,15.1,15.2c0,8.4-6.7,15.2-15.1,15.2
							C595.2,108.4,588.5,101.6,588.5,93.2"/>
						<ellipse fill="none" stroke="#8F8F8F" stroke-miterlimit="10" cx="603.6" cy="93.2" rx="15.1" ry="15.2"/>
						<path fill="#ACABAA" d="M592.5,93.2c0-6.2,5-11.2,11.1-11.2c6.1,0,11.1,5,11.1,11.2c0,6.2-5,11.2-11.1,11.2
							C597.4,104.3,592.5,99.3,592.5,93.2"/>
						<ellipse fill="none" stroke="#8F8F8F" stroke-miterlimit="10" cx="603.6" cy="93.2" rx="11.1" ry="11.2"/>
						<g>
							<g>
								<defs>
									<rect id="SVGID_377_" x="593.1" y="82.7" width="20.9" height="21"/>
								</defs>
								<clipPath id="SVGID_295_">
									<use xlink:href="#SVGID_377_"  overflow="visible"/>
								</clipPath>
								<path clip-path="url(#SVGID_295_)" fill="#BCBBBA" d="M593.1,93.2c0-5.8,4.7-10.5,10.4-10.5c5.8,0,10.4,4.7,10.4,10.5
									c0,5.8-4.7,10.5-10.4,10.5C597.8,103.7,593.1,99,593.1,93.2"/>
								<path clip-path="url(#SVGID_295_)" fill="#BFBDBB" d="M593.4,93.2c0-5.7,4.6-10.3,10.2-10.3c5.6,0,10.2,4.6,10.2,10.3
									c0,5.7-4.6,10.3-10.2,10.3C597.9,103.4,593.4,98.8,593.4,93.2"/>
								<path clip-path="url(#SVGID_295_)" fill="#C0C0C0" d="M593.6,93.2c0-5.5,4.5-10,9.9-10c5.5,0,9.9,4.5,9.9,10
									c0,5.5-4.5,10-9.9,10C598.1,103.2,593.6,98.7,593.6,93.2"/>
								<path clip-path="url(#SVGID_295_)" fill="#C1C2C0" d="M593.9,93.2c0-5.4,4.3-9.8,9.7-9.8c5.4,0,9.7,4.4,9.7,9.8
									c0,5.4-4.3,9.8-9.7,9.8C598.2,102.9,593.9,98.6,593.9,93.2"/>
								<path clip-path="url(#SVGID_295_)" fill="#C3C5C5" d="M594.1,93.2c0-5.3,4.2-9.5,9.5-9.5c5.2,0,9.5,4.3,9.5,9.5
									c0,5.3-4.2,9.5-9.5,9.5C598.3,102.7,594.1,98.4,594.1,93.2"/>
								<path clip-path="url(#SVGID_295_)" fill="#C5C7C8" d="M594.4,93.2c0-5.1,4.1-9.3,9.2-9.3c5.1,0,9.2,4.2,9.2,9.3
									c0,5.1-4.1,9.3-9.2,9.3C598.5,102.5,594.4,98.3,594.4,93.2"/>
								<path clip-path="url(#SVGID_295_)" fill="#C7C9C9" d="M594.6,93.2c0-5,4-9,9-9c4.9,0,9,4,9,9c0,5-4,9-9,9
									C598.6,102.2,594.6,98.2,594.6,93.2"/>
								<path clip-path="url(#SVGID_295_)" fill="#C9CBCC" d="M594.8,93.2c0-4.8,3.9-8.8,8.7-8.8c4.8,0,8.7,3.9,8.7,8.8
									c0,4.8-3.9,8.8-8.7,8.8C598.7,102,594.8,98,594.8,93.2"/>
								<path clip-path="url(#SVGID_295_)" fill="#CCCFCE" d="M595.1,93.2c0-4.7,3.8-8.5,8.5-8.5c4.7,0,8.5,3.8,8.5,8.5
									c0,4.7-3.8,8.5-8.5,8.5C598.9,101.7,595.1,97.9,595.1,93.2"/>
								<path clip-path="url(#SVGID_295_)" fill="#CFD0D1" d="M595.3,93.2c0-4.6,3.7-8.3,8.2-8.3c4.5,0,8.2,3.7,8.2,8.3
									c0,4.6-3.7,8.3-8.2,8.3C599,101.5,595.3,97.8,595.3,93.2"/>
							</g>
						</g>
						<polygon fill="#5E5E5E" points="604.9,86.9 604.9,91.8 609.8,91.8 609.8,94.6 604.9,94.6 604.9,99.5 602.2,99.5 602.2,94.6 
							597.3,94.6 597.3,91.8 602.2,91.8 602.2,86.9 						"/>
						<path fill="#201512" d="M602.4,99.3v-4.5v-0.5H602h-4.4V92h4.4h0.5v-0.5v-4.5h2.3v4.5V92h0.5h4.4v2.3h-4.4h-0.5v0.5v4.5H602.4
							z M602,99.7h3.2v-4.9h4.9v-3.2h-4.9v-4.9H602v4.9h-4.9v3.2h4.9V99.7z"/>
					</g>
				</g>
				<g>
					<g>
						<path fill="#ACABAA" d="M782.6,311c0-8.4,6.8-15.2,15.1-15.2c8.3,0,15.1,6.8,15.1,15.2c0,8.4-6.8,15.2-15.1,15.2
							C789.3,326.2,782.6,319.4,782.6,311"/>
						<path fill="none" stroke="#8F8F8F" stroke-miterlimit="10" d="M782.6,311c0-8.4,6.8-15.2,15.1-15.2c8.3,0,15.1,6.8,15.1,15.2
							c0,8.4-6.8,15.2-15.1,15.2C789.3,326.2,782.6,319.4,782.6,311z"/>
						<path fill="#ACABAA" d="M786.6,311c0-6.2,5-11.2,11.1-11.2c6.1,0,11.1,5,11.1,11.2c0,6.2-5,11.2-11.1,11.2
							C791.5,322.1,786.6,317.1,786.6,311"/>
						<ellipse fill="none" stroke="#8F8F8F" stroke-miterlimit="10" cx="797.7" cy="311" rx="11.1" ry="11.2"/>
						<g>
							<g>
								<defs>
									<rect id="SVGID_376_" x="787.2" y="300.5" width="20.9" height="21"/>
								</defs>
								<clipPath id="SVGID_296_">
									<use xlink:href="#SVGID_376_"  overflow="visible"/>
								</clipPath>
								<path clip-path="url(#SVGID_296_)" fill="#BCBBBA" d="M787.2,311c0-5.8,4.7-10.5,10.4-10.5c5.8,0,10.4,4.7,10.4,10.5
									c0,5.8-4.7,10.5-10.4,10.5C791.9,321.5,787.2,316.8,787.2,311"/>
								<path clip-path="url(#SVGID_296_)" fill="#BFBDBB" d="M787.5,311c0-5.7,4.6-10.3,10.2-10.3c5.6,0,10.2,4.6,10.2,10.3
									c0,5.7-4.6,10.3-10.2,10.3C792,321.3,787.5,316.7,787.5,311"/>
								<path clip-path="url(#SVGID_296_)" fill="#C0C0C0" d="M787.7,311c0-5.5,4.5-10,9.9-10c5.5,0,9.9,4.5,9.9,10
									c0,5.5-4.5,10-9.9,10C792.2,321,787.7,316.5,787.7,311"/>
								<path clip-path="url(#SVGID_296_)" fill="#C1C2C0" d="M788,311c0-5.4,4.3-9.8,9.7-9.8c5.4,0,9.7,4.4,9.7,9.8
									c0,5.4-4.3,9.8-9.7,9.8C792.3,320.8,788,316.4,788,311"/>
								<path clip-path="url(#SVGID_296_)" fill="#C3C5C5" d="M788.2,311c0-5.3,4.2-9.5,9.5-9.5c5.2,0,9.5,4.3,9.5,9.5
									c0,5.3-4.2,9.5-9.5,9.5C792.4,320.5,788.2,316.2,788.2,311"/>
								<path clip-path="url(#SVGID_296_)" fill="#C5C7C8" d="M788.4,311c0-5.1,4.1-9.3,9.2-9.3c5.1,0,9.2,4.2,9.2,9.3
									c0,5.1-4.1,9.3-9.2,9.3C792.6,320.3,788.4,316.1,788.4,311"/>
								<path clip-path="url(#SVGID_296_)" fill="#C7C9C9" d="M788.7,311c0-5,4-9,9-9s9,4,9,9c0,5-4,9-9,9S788.7,316,788.7,311"/>
								<path clip-path="url(#SVGID_296_)" fill="#C9CBCC" d="M788.9,311c0-4.8,3.9-8.8,8.7-8.8c4.8,0,8.7,3.9,8.7,8.8
									c0,4.8-3.9,8.8-8.7,8.8C792.8,319.8,788.9,315.8,788.9,311"/>
								<path clip-path="url(#SVGID_296_)" fill="#CCCFCE" d="M789.2,311c0-4.7,3.8-8.5,8.5-8.5c4.7,0,8.5,3.8,8.5,8.5
									c0,4.7-3.8,8.5-8.5,8.5C793,319.5,789.2,315.7,789.2,311"/>
								<path clip-path="url(#SVGID_296_)" fill="#CFD0D1" d="M789.4,311c0-4.6,3.7-8.3,8.2-8.3c4.5,0,8.2,3.7,8.2,8.3
									c0,4.6-3.7,8.3-8.2,8.3C793.1,319.3,789.4,315.6,789.4,311"/>
							</g>
						</g>
						<polygon fill="#5E5E5E" points="799,304.7 799,309.6 803.9,309.6 803.9,312.4 799,312.4 799,317.3 796.3,317.3 796.3,312.4 
							791.4,312.4 791.4,309.6 796.3,309.6 796.3,304.7 						"/>
						<path fill="#201512" d="M796.5,317.1v-4.5v-0.5h-0.5h-4.4v-2.3h4.4h0.5v-0.5v-4.5h2.3v4.5v0.5h0.5h4.4v2.3h-4.4h-0.5v0.5v4.5
							H796.5z M796.1,317.5h3.2v-4.9h4.9v-3.2h-4.9v-4.9h-3.2v4.9h-4.9v3.2h4.9V317.5z"/>
					</g>
					<g>
						<path fill="#ACABAA" d="M588.5,311c0-8.4,6.8-15.2,15.1-15.2c8.3,0,15.1,6.8,15.1,15.2c0,8.4-6.7,15.2-15.1,15.2
							C595.2,326.2,588.5,319.4,588.5,311"/>
						<path fill="none" stroke="#8F8F8F" stroke-miterlimit="10" d="M588.5,311c0-8.4,6.8-15.2,15.1-15.2c8.3,0,15.1,6.8,15.1,15.2
							c0,8.4-6.7,15.2-15.1,15.2C595.2,326.2,588.5,319.4,588.5,311z"/>
						<path fill="#ACABAA" d="M592.5,311c0-6.2,5-11.2,11.1-11.2c6.1,0,11.1,5,11.1,11.2c0,6.2-5,11.2-11.1,11.2
							C597.4,322.1,592.5,317.1,592.5,311"/>
						<ellipse fill="none" stroke="#8F8F8F" stroke-miterlimit="10" cx="603.6" cy="311" rx="11.1" ry="11.2"/>
						<g>
							<g>
								<defs>
									<rect id="SVGID_375_" x="593.1" y="300.5" width="20.9" height="21"/>
								</defs>
								<clipPath id="SVGID_297_">
									<use xlink:href="#SVGID_375_"  overflow="visible"/>
								</clipPath>
								<path clip-path="url(#SVGID_297_)" fill="#BCBBBA" d="M593.1,311c0-5.8,4.7-10.5,10.4-10.5c5.8,0,10.4,4.7,10.4,10.5
									c0,5.8-4.7,10.5-10.4,10.5C597.8,321.5,593.1,316.8,593.1,311"/>
								<path clip-path="url(#SVGID_297_)" fill="#BFBDBB" d="M593.4,311c0-5.7,4.6-10.3,10.2-10.3c5.6,0,10.2,4.6,10.2,10.3
									c0,5.7-4.6,10.3-10.2,10.3C597.9,321.3,593.4,316.7,593.4,311"/>
								<path clip-path="url(#SVGID_297_)" fill="#C0C0C0" d="M593.6,311c0-5.5,4.5-10,9.9-10c5.5,0,9.9,4.5,9.9,10
									c0,5.5-4.5,10-9.9,10C598.1,321,593.6,316.5,593.6,311"/>
								<path clip-path="url(#SVGID_297_)" fill="#C1C2C0" d="M593.9,311c0-5.4,4.3-9.8,9.7-9.8c5.4,0,9.7,4.4,9.7,9.8
									c0,5.4-4.3,9.8-9.7,9.8C598.2,320.8,593.9,316.4,593.9,311"/>
								<path clip-path="url(#SVGID_297_)" fill="#C3C5C5" d="M594.1,311c0-5.3,4.2-9.5,9.5-9.5c5.2,0,9.5,4.3,9.5,9.5
									c0,5.3-4.2,9.5-9.5,9.5C598.3,320.5,594.1,316.2,594.1,311"/>
								<path clip-path="url(#SVGID_297_)" fill="#C5C7C8" d="M594.4,311c0-5.1,4.1-9.3,9.2-9.3c5.1,0,9.2,4.2,9.2,9.3
									c0,5.1-4.1,9.3-9.2,9.3C598.5,320.3,594.4,316.1,594.4,311"/>
								<path clip-path="url(#SVGID_297_)" fill="#C7C9C9" d="M594.6,311c0-5,4-9,9-9c4.9,0,9,4,9,9c0,5-4,9-9,9
									C598.6,320,594.6,316,594.6,311"/>
								<path clip-path="url(#SVGID_297_)" fill="#C9CBCC" d="M594.8,311c0-4.8,3.9-8.8,8.7-8.8c4.8,0,8.7,3.9,8.7,8.8
									c0,4.8-3.9,8.8-8.7,8.8C598.7,319.8,594.8,315.8,594.8,311"/>
								<path clip-path="url(#SVGID_297_)" fill="#CCCFCE" d="M595.1,311c0-4.7,3.8-8.5,8.5-8.5c4.7,0,8.5,3.8,8.5,8.5
									c0,4.7-3.8,8.5-8.5,8.5C598.9,319.5,595.1,315.7,595.1,311"/>
								<path clip-path="url(#SVGID_297_)" fill="#CFD0D1" d="M595.3,311c0-4.6,3.7-8.3,8.2-8.3c4.5,0,8.2,3.7,8.2,8.3
									c0,4.6-3.7,8.3-8.2,8.3C599,319.3,595.3,315.6,595.3,311"/>
							</g>
						</g>
						<polygon fill="#5E5E5E" points="604.9,304.7 604.9,309.6 609.8,309.6 609.8,312.4 604.9,312.4 604.9,317.3 602.2,317.3 
							602.2,312.4 597.3,312.4 597.3,309.6 602.2,309.6 602.2,304.7 						"/>
						<path fill="#201512" d="M602.4,317.1v-4.5v-0.5H602h-4.4v-2.3h4.4h0.5v-0.5v-4.5h2.3v4.5v0.5h0.5h4.4v2.3h-4.4h-0.5v0.5v4.5
							H602.4z M602,317.5h3.2v-4.9h4.9v-3.2h-4.9v-4.9H602v4.9h-4.9v3.2h4.9V317.5z"/>
					</g>
				</g>
			</g>
			<path fill="#F7FC29" d="M730.1,221.1H668c-1,0-1.8-0.8-1.8-1.8v-22.8c0-1,0.8-1.8,1.8-1.8h62.1c1,0,1.8,0.8,1.8,1.8v22.8
				C731.9,220.3,731.1,221.1,730.1,221.1z"/>
		</g>
	</g>
	<linearGradient id="SVGID_298_" gradientUnits="userSpaceOnUse" x1="145.4598" y1="11.2224" x2="145.4598" y2="62.2781">
		<stop  offset="0" style="stop-color:#4D4D4D"/>
		<stop  offset="0.9105" style="stop-color:#333333"/>
		<stop  offset="0.9456" style="stop-color:#808080"/>
		<stop  offset="1" style="stop-color:#000000"/>
	</linearGradient>
	<path fill="url(#SVGID_298_)" d="M231.4,24.7v9.9c0,5.9-4.8,10.7-10.7,10.7H70.2c-5.9,0-10.7-4.8-10.7-10.7v-9.9
		c0-7.5-6-13.5-13.5-13.5H21.9c-7.5,0-13.5,6-13.5,13.5v37.6h274.1V24.7c0-7.5-6-13.5-13.5-13.5h-24.1
		C237.5,11.2,231.4,17.3,231.4,24.7z"/>
	<linearGradient id="SVGID_299_" gradientUnits="userSpaceOnUse" x1="423.0359" y1="11.2224" x2="423.0359" y2="62.2781">
		<stop  offset="0" style="stop-color:#4D4D4D"/>
		<stop  offset="0.9105" style="stop-color:#333333"/>
		<stop  offset="0.9456" style="stop-color:#808080"/>
		<stop  offset="1" style="stop-color:#000000"/>
	</linearGradient>
	<path fill="url(#SVGID_299_)" d="M509,24.7v9.9c0,5.9-4.8,10.7-10.7,10.7H347.8c-5.9,0-10.7-4.8-10.7-10.7v-9.9
		c0-7.5-6-13.5-13.5-13.5h-24.1c-7.5,0-13.5,6-13.5,13.5v37.6h274.1V24.7c0-7.5-6-13.5-13.5-13.5h-24.1
		C515.1,11.2,509,17.3,509,24.7z"/>
	<linearGradient id="SVGID_300_" gradientUnits="userSpaceOnUse" x1="700.6119" y1="11.2224" x2="700.6119" y2="62.2781">
		<stop  offset="0" style="stop-color:#4D4D4D"/>
		<stop  offset="0.9105" style="stop-color:#333333"/>
		<stop  offset="0.9456" style="stop-color:#808080"/>
		<stop  offset="1" style="stop-color:#000000"/>
	</linearGradient>
	<path fill="url(#SVGID_300_)" d="M786.6,24.7v9.9c0,5.9-4.8,10.7-10.7,10.7H625.3c-5.9,0-10.7-4.8-10.7-10.7v-9.9
		c0-7.5-6-13.5-13.5-13.5h-24.1c-7.5,0-13.5,6-13.5,13.5v37.6h274.1V24.7c0-7.5-6-13.5-13.5-13.5h-24.1
		C792.6,11.2,786.6,17.3,786.6,24.7z"/>
	<linearGradient id="SVGID_301_" gradientUnits="userSpaceOnUse" x1="1028.1426" y1="133.7356" x2="1028.1426" y2="62.2781">
		<stop  offset="0" style="stop-color:#717071"/>
		<stop  offset="5.422436e-02" style="stop-color:#FFFFFF"/>
		<stop  offset="0.1201" style="stop-color:#ABAEAF"/>
		<stop  offset="0.8813" style="stop-color:#ABAEAF"/>
		<stop  offset="0.9384" style="stop-color:#FFFFFF"/>
		<stop  offset="1" style="stop-color:#717071"/>
	</linearGradient>
	<rect x="845.4" y="62.3" fill="url(#SVGID_301_)" width="365.4" height="71.5"/>
	<rect x="854.9" y="74.7" fill="#070002" width="14.5" height="14.5"/>
	<rect x="878.5" y="74.7" fill="#070002" width="14.5" height="14.5"/>
	<rect x="902.1" y="74.7" fill="#070002" width="14.5" height="14.5"/>
	<rect x="925.7" y="74.7" fill="#070002" width="14.5" height="14.5"/>
	<rect x="949.3" y="74.7" fill="#070002" width="14.5" height="14.5"/>
	<rect x="972.9" y="74.7" fill="#070002" width="14.5" height="14.5"/>
	<rect x="996.5" y="74.7" fill="#070002" width="14.5" height="14.5"/>
	<rect x="1020.1" y="74.7" fill="#070002" width="14.5" height="14.5"/>
	<rect x="1043.7" y="74.7" fill="#070002" width="14.5" height="14.5"/>
	<rect x="1067.3" y="74.7" fill="#070002" width="14.5" height="14.5"/>
	<rect x="1089.3" y="74.7" fill="#070002" width="14.5" height="14.5"/>
	<rect x="1112.9" y="74.7" fill="#070002" width="14.5" height="14.5"/>
	<rect x="1136.5" y="74.7" fill="#070002" width="14.5" height="14.5"/>
	<rect x="1160.1" y="74.7" fill="#070002" width="14.5" height="14.5"/>
	<rect x="1183.7" y="74.7" fill="#070002" width="14.5" height="14.5"/>
	<g>
		<path fill="#070002" d="M886.2,125.5h-31.5v-18.2c0-3.9,3.1-7,7-7h17.5c3.9,0,7,3.1,7,7V125.5z"/>
		<path fill="#9FCFFF" d="M878.8,94.1H878c-1.1,0-2,0.9-2,2v0c0,1.1-0.9,2-2,2h-7c-1.1,0-2-0.9-2-2v0c0-1.1-0.9-2-2-2h-0.9
			c-2.5,0-4.6,2.1-4.6,4.6v20.6h25.9V98.7C883.4,96.1,881.4,94.1,878.8,94.1z"/>
		<path fill="#3D689B" d="M878.8,94.7H878c-1.1,0-2,0.9-2,2l0,0c0,1.1-0.9,2-2,2h-7c-1.1,0-2-0.9-2-2l0,0c0-1.1-0.9-2-2-2h-0.9
			c-2.5,0-4.6,2.1-4.6,4.6V120h25.9V99.3C883.4,96.8,881.4,94.7,878.8,94.7z"/>
		<path fill="#282F45" d="M881,120h-21v-15.7c0-1.5,1.2-2.7,2.7-2.7h15.6c1.5,0,2.7,1.2,2.7,2.7V120z"/>
	</g>
	<g>
		<path fill="#070002" d="M938.1,125.5h-31.5v-18.2c0-3.9,3.1-7,7-7h17.5c3.9,0,7,3.1,7,7V125.5z"/>
		<path fill="#9FCFFF" d="M930.7,94.1h-0.9c-1.1,0-2,0.9-2,2v0c0,1.1-0.9,2-2,2h-7c-1.1,0-2-0.9-2-2v0c0-1.1-0.9-2-2-2H914
			c-2.5,0-4.6,2.1-4.6,4.6v20.6h25.9V98.7C935.3,96.1,933.3,94.1,930.7,94.1z"/>
		<path fill="#3D689B" d="M930.7,94.7h-0.9c-1.1,0-2,0.9-2,2l0,0c0,1.1-0.9,2-2,2h-7c-1.1,0-2-0.9-2-2l0,0c0-1.1-0.9-2-2-2H914
			c-2.5,0-4.6,2.1-4.6,4.6V120h25.9V99.3C935.3,96.8,933.3,94.7,930.7,94.7z"/>
		<path fill="#282F45" d="M932.9,120h-21v-15.7c0-1.5,1.2-2.7,2.7-2.7h15.6c1.5,0,2.7,1.2,2.7,2.7V120z"/>
	</g>
	<g>
		<path fill="#070002" d="M990,125.5h-31.5v-18.2c0-3.9,3.1-7,7-7H983c3.9,0,7,3.1,7,7V125.5z"/>
		<path fill="#9FCFFF" d="M982.6,94.1h-0.9c-1.1,0-2,0.9-2,2v0c0,1.1-0.9,2-2,2h-7c-1.1,0-2-0.9-2-2v0c0-1.1-0.9-2-2-2h-0.9
			c-2.5,0-4.6,2.1-4.6,4.6v20.6h25.9V98.7C987.2,96.1,985.2,94.1,982.6,94.1z"/>
		<path fill="#3D689B" d="M982.6,94.7h-0.9c-1.1,0-2,0.9-2,2l0,0c0,1.1-0.9,2-2,2h-7c-1.1,0-2-0.9-2-2l0,0c0-1.1-0.9-2-2-2h-0.9
			c-2.5,0-4.6,2.1-4.6,4.6V120h25.9V99.3C987.2,96.8,985.2,94.7,982.6,94.7z"/>
		<path fill="#282F45" d="M984.8,120h-21v-15.7c0-1.5,1.2-2.7,2.7-2.7h15.6c1.5,0,2.7,1.2,2.7,2.7V120z"/>
	</g>
	<g>
		<path fill="#070002" d="M1041.9,125.5h-31.5v-18.2c0-3.9,3.1-7,7-7h17.5c3.9,0,7,3.1,7,7V125.5z"/>
		<path fill="#9FCFFF" d="M1034.5,94.1h-0.9c-1.1,0-2,0.9-2,2v0c0,1.1-0.9,2-2,2h-7c-1.1,0-2-0.9-2-2v0c0-1.1-0.9-2-2-2h-0.9
			c-2.5,0-4.6,2.1-4.6,4.6v20.6h25.9V98.7C1039.1,96.1,1037,94.1,1034.5,94.1z"/>
		<path fill="#3D689B" d="M1034.5,94.7h-0.9c-1.1,0-2,0.9-2,2l0,0c0,1.1-0.9,2-2,2h-7c-1.1,0-2-0.9-2-2l0,0c0-1.1-0.9-2-2-2h-0.9
			c-2.5,0-4.6,2.1-4.6,4.6V120h25.9V99.3C1039.1,96.8,1037,94.7,1034.5,94.7z"/>
		<path fill="#282F45" d="M1036.7,120h-21v-15.7c0-1.5,1.2-2.7,2.7-2.7h15.6c1.5,0,2.7,1.2,2.7,2.7V120z"/>
	</g>
	<g>
		<path fill="#070002" d="M1093.8,125.5h-31.5v-18.2c0-3.9,3.1-7,7-7h17.5c3.9,0,7,3.1,7,7V125.5z"/>
		<path fill="#9FCFFF" d="M1086.4,94.1h-0.9c-1.1,0-2,0.9-2,2v0c0,1.1-0.9,2-2,2h-7c-1.1,0-2-0.9-2-2v0c0-1.1-0.9-2-2-2h-0.9
			c-2.5,0-4.6,2.1-4.6,4.6v20.6h25.9V98.7C1091,96.1,1088.9,94.1,1086.4,94.1z"/>
		<path fill="#3D689B" d="M1086.4,94.7h-0.9c-1.1,0-2,0.9-2,2l0,0c0,1.1-0.9,2-2,2h-7c-1.1,0-2-0.9-2-2l0,0c0-1.1-0.9-2-2-2h-0.9
			c-2.5,0-4.6,2.1-4.6,4.6V120h25.9V99.3C1091,96.8,1088.9,94.7,1086.4,94.7z"/>
		<path fill="#282F45" d="M1088.5,120h-21v-15.7c0-1.5,1.2-2.7,2.7-2.7h15.6c1.5,0,2.7,1.2,2.7,2.7V120z"/>
	</g>
	<g>
		<path fill="#070002" d="M1145.7,125.5h-31.5v-18.2c0-3.9,3.1-7,7-7h17.5c3.9,0,7,3.1,7,7V125.5z"/>
		<path fill="#9FCFFF" d="M1138.3,94.1h-0.9c-1.1,0-2,0.9-2,2v0c0,1.1-0.9,2-2,2h-7c-1.1,0-2-0.9-2-2v0c0-1.1-0.9-2-2-2h-0.9
			c-2.5,0-4.6,2.1-4.6,4.6v20.6h25.9V98.7C1142.9,96.1,1140.8,94.1,1138.3,94.1z"/>
		<path fill="#3D689B" d="M1138.3,94.7h-0.9c-1.1,0-2,0.9-2,2l0,0c0,1.1-0.9,2-2,2h-7c-1.1,0-2-0.9-2-2l0,0c0-1.1-0.9-2-2-2h-0.9
			c-2.5,0-4.6,2.1-4.6,4.6V120h25.9V99.3C1142.9,96.8,1140.8,94.7,1138.3,94.7z"/>
		<path fill="#282F45" d="M1140.4,120h-21v-15.7c0-1.5,1.2-2.7,2.7-2.7h15.6c1.5,0,2.7,1.2,2.7,2.7V120z"/>
	</g>
	<g>
		<path fill="#070002" d="M1197.6,125.5h-31.5v-18.2c0-3.9,3.1-7,7-7h17.5c3.9,0,7,3.1,7,7V125.5z"/>
		<path fill="#9FCFFF" d="M1190.2,94.1h-0.9c-1.1,0-2,0.9-2,2v0c0,1.1-0.9,2-2,2h-7c-1.1,0-2-0.9-2-2v0c0-1.1-0.9-2-2-2h-0.9
			c-2.5,0-4.6,2.1-4.6,4.6v20.6h25.9V98.7C1194.8,96.1,1192.7,94.1,1190.2,94.1z"/>
		<path fill="#3D689B" d="M1190.2,94.7h-0.9c-1.1,0-2,0.9-2,2l0,0c0,1.1-0.9,2-2,2h-7c-1.1,0-2-0.9-2-2l0,0c0-1.1-0.9-2-2-2h-0.9
			c-2.5,0-4.6,2.1-4.6,4.6V120h25.9V99.3C1194.8,96.8,1192.7,94.7,1190.2,94.7z"/>
		<path fill="#282F45" d="M1192.3,120h-21v-15.7c0-1.5,1.2-2.7,2.7-2.7h15.6c1.5,0,2.7,1.2,2.7,2.7V120z"/>
	</g>
	<g>
		<path fill="#CDCECD" stroke="#7E7E7F" stroke-miterlimit="10" d="M895.5,480.2h-24c-5.9,0-10.7-4.8-10.7-10.7V157.7
			c0-5.9,4.8-10.7,10.7-10.7h24c5.9,0,10.7,4.8,10.7,10.7v311.8C906.2,475.4,901.4,480.2,895.5,480.2z"/>
		<g>
			<rect x="867.4" y="160.8" fill="#070002" width="13.8" height="16.6"/>
			<rect x="885.8" y="160.8" fill="#070002" width="13.8" height="16.6"/>
		</g>
		<g>
			<rect x="867.4" y="183.3" fill="#070002" width="13.8" height="16.6"/>
			<rect x="885.8" y="183.3" fill="#070002" width="13.8" height="16.6"/>
		</g>
		<g>
			<rect x="867.4" y="205.8" fill="#070002" width="13.8" height="16.6"/>
			<rect x="885.8" y="205.8" fill="#070002" width="13.8" height="16.6"/>
		</g>
		<g>
			<rect x="867.4" y="228.4" fill="#070002" width="13.8" height="16.6"/>
			<rect x="885.8" y="228.4" fill="#070002" width="13.8" height="16.6"/>
		</g>
		<g>
			<rect x="867.4" y="250.9" fill="#070002" width="13.8" height="16.6"/>
			<rect x="885.8" y="250.9" fill="#070002" width="13.8" height="16.6"/>
		</g>
		<g>
			<rect x="867.4" y="273.4" fill="#070002" width="13.8" height="16.6"/>
			<rect x="885.8" y="273.4" fill="#070002" width="13.8" height="16.6"/>
		</g>
		<g>
			<rect x="867.4" y="296" fill="#070002" width="13.8" height="16.6"/>
			<rect x="885.8" y="296" fill="#070002" width="13.8" height="16.6"/>
		</g>
		<g>
			<rect x="867.4" y="318.5" fill="#070002" width="13.8" height="16.6"/>
			<rect x="885.8" y="318.5" fill="#070002" width="13.8" height="16.6"/>
		</g>
		<g>
			<rect x="867.4" y="341" fill="#070002" width="13.8" height="16.6"/>
			<rect x="885.8" y="341" fill="#070002" width="13.8" height="16.6"/>
		</g>
		<g>
			<rect x="867.4" y="363.5" fill="#070002" width="13.8" height="16.6"/>
			<rect x="885.8" y="363.5" fill="#070002" width="13.8" height="16.6"/>
		</g>
		<g>
			<rect x="867.4" y="386.1" fill="#070002" width="13.8" height="16.6"/>
			<rect x="885.8" y="386.1" fill="#070002" width="13.8" height="16.6"/>
		</g>
		<g>
			<rect x="867.4" y="408.6" fill="#070002" width="13.8" height="16.6"/>
			<rect x="885.8" y="408.6" fill="#070002" width="13.8" height="16.6"/>
		</g>
		<g>
			<rect x="867.4" y="431.1" fill="#070002" width="13.8" height="16.6"/>
			<rect x="885.8" y="431.1" fill="#070002" width="13.8" height="16.6"/>
		</g>
		<g>
			<rect x="867.4" y="453.7" fill="#070002" width="13.8" height="16.6"/>
			<rect x="885.8" y="453.7" fill="#070002" width="13.8" height="16.6"/>
		</g>
	</g>
	<g>
		<path fill="#CDCECD" stroke="#7E7E7F" stroke-miterlimit="10" d="M946.3,480.2h-24c-5.9,0-10.7-4.8-10.7-10.7V157.7
			c0-5.9,4.8-10.7,10.7-10.7h24c5.9,0,10.7,4.8,10.7,10.7v311.8C957,475.4,952.2,480.2,946.3,480.2z"/>
		<g>
			<rect x="918.2" y="160.8" fill="#070002" width="13.8" height="16.6"/>
			<rect x="936.5" y="160.8" fill="#070002" width="13.8" height="16.6"/>
		</g>
		<g>
			<rect x="918.2" y="183.3" fill="#070002" width="13.8" height="16.6"/>
			<rect x="936.5" y="183.3" fill="#070002" width="13.8" height="16.6"/>
		</g>
		<g>
			<rect x="918.2" y="205.8" fill="#070002" width="13.8" height="16.6"/>
			<rect x="936.5" y="205.8" fill="#070002" width="13.8" height="16.6"/>
		</g>
		<g>
			<rect x="918.2" y="228.4" fill="#070002" width="13.8" height="16.6"/>
			<rect x="936.5" y="228.4" fill="#070002" width="13.8" height="16.6"/>
		</g>
		<g>
			<rect x="918.2" y="250.9" fill="#070002" width="13.8" height="16.6"/>
			<rect x="936.5" y="250.9" fill="#070002" width="13.8" height="16.6"/>
		</g>
		<g>
			<rect x="918.2" y="273.4" fill="#070002" width="13.8" height="16.6"/>
			<rect x="936.5" y="273.4" fill="#070002" width="13.8" height="16.6"/>
		</g>
		<g>
			<rect x="918.2" y="296" fill="#070002" width="13.8" height="16.6"/>
			<rect x="936.5" y="296" fill="#070002" width="13.8" height="16.6"/>
		</g>
		<g>
			<rect x="918.2" y="318.5" fill="#070002" width="13.8" height="16.6"/>
			<rect x="936.5" y="318.5" fill="#070002" width="13.8" height="16.6"/>
		</g>
		<g>
			<rect x="918.2" y="341" fill="#070002" width="13.8" height="16.6"/>
			<rect x="936.5" y="341" fill="#070002" width="13.8" height="16.6"/>
		</g>
		<g>
			<rect x="918.2" y="363.5" fill="#070002" width="13.8" height="16.6"/>
			<rect x="936.5" y="363.5" fill="#070002" width="13.8" height="16.6"/>
		</g>
		<g>
			<rect x="918.2" y="386.1" fill="#070002" width="13.8" height="16.6"/>
			<rect x="936.5" y="386.1" fill="#070002" width="13.8" height="16.6"/>
		</g>
		<g>
			<rect x="918.2" y="408.6" fill="#070002" width="13.8" height="16.6"/>
			<rect x="936.5" y="408.6" fill="#070002" width="13.8" height="16.6"/>
		</g>
		<g>
			<rect x="918.2" y="431.1" fill="#070002" width="13.8" height="16.6"/>
			<rect x="936.5" y="431.1" fill="#070002" width="13.8" height="16.6"/>
		</g>
		<g>
			<rect x="918.2" y="453.7" fill="#070002" width="13.8" height="16.6"/>
			<rect x="936.5" y="453.7" fill="#070002" width="13.8" height="16.6"/>
		</g>
	</g>
	<g>
		<path fill="#CDCECD" stroke="#7E7E7F" stroke-miterlimit="10" d="M997.1,480.2h-24c-5.9,0-10.7-4.8-10.7-10.7V157.7
			c0-5.9,4.8-10.7,10.7-10.7h24c5.9,0,10.7,4.8,10.7,10.7v311.8C1007.7,475.4,1003,480.2,997.1,480.2z"/>
		<g>
			<rect x="969" y="160.8" fill="#070002" width="13.8" height="16.6"/>
			<rect x="987.3" y="160.8" fill="#070002" width="13.8" height="16.6"/>
		</g>
		<g>
			<rect x="969" y="183.3" fill="#070002" width="13.8" height="16.6"/>
			<rect x="987.3" y="183.3" fill="#070002" width="13.8" height="16.6"/>
		</g>
		<g>
			<rect x="969" y="205.8" fill="#070002" width="13.8" height="16.6"/>
			<rect x="987.3" y="205.8" fill="#070002" width="13.8" height="16.6"/>
		</g>
		<g>
			<rect x="969" y="228.4" fill="#070002" width="13.8" height="16.6"/>
			<rect x="987.3" y="228.4" fill="#070002" width="13.8" height="16.6"/>
		</g>
		<g>
			<rect x="969" y="250.9" fill="#070002" width="13.8" height="16.6"/>
			<rect x="987.3" y="250.9" fill="#070002" width="13.8" height="16.6"/>
		</g>
		<g>
			<rect x="969" y="273.4" fill="#070002" width="13.8" height="16.6"/>
			<rect x="987.3" y="273.4" fill="#070002" width="13.8" height="16.6"/>
		</g>
		<g>
			<rect x="969" y="296" fill="#070002" width="13.8" height="16.6"/>
			<rect x="987.3" y="296" fill="#070002" width="13.8" height="16.6"/>
		</g>
		<g>
			<rect x="969" y="318.5" fill="#070002" width="13.8" height="16.6"/>
			<rect x="987.3" y="318.5" fill="#070002" width="13.8" height="16.6"/>
		</g>
		<g>
			<rect x="969" y="341" fill="#070002" width="13.8" height="16.6"/>
			<rect x="987.3" y="341" fill="#070002" width="13.8" height="16.6"/>
		</g>
		<g>
			<rect x="969" y="363.5" fill="#070002" width="13.8" height="16.6"/>
			<rect x="987.3" y="363.5" fill="#070002" width="13.8" height="16.6"/>
		</g>
		<g>
			<rect x="969" y="386.1" fill="#070002" width="13.8" height="16.6"/>
			<rect x="987.3" y="386.1" fill="#070002" width="13.8" height="16.6"/>
		</g>
		<g>
			<rect x="969" y="408.6" fill="#070002" width="13.8" height="16.6"/>
			<rect x="987.3" y="408.6" fill="#070002" width="13.8" height="16.6"/>
		</g>
		<g>
			<rect x="969" y="431.1" fill="#070002" width="13.8" height="16.6"/>
			<rect x="987.3" y="431.1" fill="#070002" width="13.8" height="16.6"/>
		</g>
		<g>
			<rect x="969" y="453.7" fill="#070002" width="13.8" height="16.6"/>
			<rect x="987.3" y="453.7" fill="#070002" width="13.8" height="16.6"/>
		</g>
	</g>
	<g>
		<path fill="#CDCECD" stroke="#7E7E7F" stroke-miterlimit="10" d="M1047.9,480.2h-24c-5.9,0-10.7-4.8-10.7-10.7V157.7
			c0-5.9,4.8-10.7,10.7-10.7h24c5.9,0,10.7,4.8,10.7,10.7v311.8C1058.5,475.4,1053.7,480.2,1047.9,480.2z"/>
		<g>
			<rect x="1019.8" y="160.8" fill="#070002" width="13.8" height="16.6"/>
			<rect x="1038.1" y="160.8" fill="#070002" width="13.8" height="16.6"/>
		</g>
		<g>
			<rect x="1019.8" y="183.3" fill="#070002" width="13.8" height="16.6"/>
			<rect x="1038.1" y="183.3" fill="#070002" width="13.8" height="16.6"/>
		</g>
		<g>
			<rect x="1019.8" y="205.8" fill="#070002" width="13.8" height="16.6"/>
			<rect x="1038.1" y="205.8" fill="#070002" width="13.8" height="16.6"/>
		</g>
		<g>
			<rect x="1019.8" y="228.4" fill="#070002" width="13.8" height="16.6"/>
			<rect x="1038.1" y="228.4" fill="#070002" width="13.8" height="16.6"/>
		</g>
		<g>
			<rect x="1019.8" y="250.9" fill="#070002" width="13.8" height="16.6"/>
			<rect x="1038.1" y="250.9" fill="#070002" width="13.8" height="16.6"/>
		</g>
		<g>
			<rect x="1019.8" y="273.4" fill="#070002" width="13.8" height="16.6"/>
			<rect x="1038.1" y="273.4" fill="#070002" width="13.8" height="16.6"/>
		</g>
		<g>
			<rect x="1019.8" y="296" fill="#070002" width="13.8" height="16.6"/>
			<rect x="1038.1" y="296" fill="#070002" width="13.8" height="16.6"/>
		</g>
		<g>
			<rect x="1019.8" y="318.5" fill="#070002" width="13.8" height="16.6"/>
			<rect x="1038.1" y="318.5" fill="#070002" width="13.8" height="16.6"/>
		</g>
		<g>
			<rect x="1019.8" y="341" fill="#070002" width="13.8" height="16.6"/>
			<rect x="1038.1" y="341" fill="#070002" width="13.8" height="16.6"/>
		</g>
		<g>
			<rect x="1019.8" y="363.5" fill="#070002" width="13.8" height="16.6"/>
			<rect x="1038.1" y="363.5" fill="#070002" width="13.8" height="16.6"/>
		</g>
		<g>
			<rect x="1019.8" y="386.1" fill="#070002" width="13.8" height="16.6"/>
			<rect x="1038.1" y="386.1" fill="#070002" width="13.8" height="16.6"/>
		</g>
		<g>
			<rect x="1019.8" y="408.6" fill="#070002" width="13.8" height="16.6"/>
			<rect x="1038.1" y="408.6" fill="#070002" width="13.8" height="16.6"/>
		</g>
		<g>
			<rect x="1019.8" y="431.1" fill="#070002" width="13.8" height="16.6"/>
			<rect x="1038.1" y="431.1" fill="#070002" width="13.8" height="16.6"/>
		</g>
		<g>
			<rect x="1019.8" y="453.7" fill="#070002" width="13.8" height="16.6"/>
			<rect x="1038.1" y="453.7" fill="#070002" width="13.8" height="16.6"/>
		</g>
	</g>
	<g>
		<linearGradient id="SVGID_302_" gradientUnits="userSpaceOnUse" x1="1063.9308" y1="313.6128" x2="1109.2894" y2="313.6128">
			<stop  offset="0" style="stop-color:#717071"/>
			<stop  offset="5.422436e-02" style="stop-color:#FFFFFF"/>
			<stop  offset="0.1201" style="stop-color:#ABAEAF"/>
			<stop  offset="0.8813" style="stop-color:#ABAEAF"/>
			<stop  offset="0.9384" style="stop-color:#FFFFFF"/>
			<stop  offset="1" style="stop-color:#717071"/>
		</linearGradient>
		<path fill="url(#SVGID_302_)" stroke="#808080" stroke-miterlimit="10" d="M1098.6,480.2h-24c-5.9,0-10.7-4.8-10.7-10.7V157.7
			c0-5.9,4.8-10.7,10.7-10.7h24c5.9,0,10.7,4.8,10.7,10.7v311.8C1109.3,475.4,1104.5,480.2,1098.6,480.2z"/>
	</g>
	<g>
		<linearGradient id="SVGID_303_" gradientUnits="userSpaceOnUse" x1="1116.8738" y1="313.6128" x2="1162.2323" y2="313.6128">
			<stop  offset="0" style="stop-color:#717071"/>
			<stop  offset="5.422436e-02" style="stop-color:#FFFFFF"/>
			<stop  offset="0.1201" style="stop-color:#ABAEAF"/>
			<stop  offset="0.8813" style="stop-color:#ABAEAF"/>
			<stop  offset="0.9384" style="stop-color:#FFFFFF"/>
			<stop  offset="1" style="stop-color:#717071"/>
		</linearGradient>
		<path fill="url(#SVGID_303_)" stroke="#808080" stroke-miterlimit="10" d="M1151.6,480.2h-24c-5.9,0-10.7-4.8-10.7-10.7V157.7
			c0-5.9,4.8-10.7,10.7-10.7h24c5.9,0,10.7,4.8,10.7,10.7v311.8C1162.2,475.4,1157.5,480.2,1151.6,480.2z"/>
	</g>
	<g>
		<linearGradient id="SVGID_304_" gradientUnits="userSpaceOnUse" x1="1169.8167" y1="313.6128" x2="1215.1752" y2="313.6128">
			<stop  offset="0" style="stop-color:#717071"/>
			<stop  offset="5.422436e-02" style="stop-color:#FFFFFF"/>
			<stop  offset="0.1201" style="stop-color:#ABAEAF"/>
			<stop  offset="0.8813" style="stop-color:#ABAEAF"/>
			<stop  offset="0.9384" style="stop-color:#FFFFFF"/>
			<stop  offset="1" style="stop-color:#717071"/>
		</linearGradient>
		<path fill="url(#SVGID_304_)" stroke="#808080" stroke-miterlimit="10" d="M1204.5,480.2h-24c-5.9,0-10.7-4.8-10.7-10.7V157.7
			c0-5.9,4.8-10.7,10.7-10.7h24c5.9,0,10.7,4.8,10.7,10.7v311.8C1215.2,475.4,1210.4,480.2,1204.5,480.2z"/>
	</g>
	<g>
		<path fill="#3D3A39" d="M1265.1,214.8c1.3,0,2.4,1.1,2.4,2.4v55.7c0,1.3-1.1,2.4-2.4,2.4H1223c-1.3,0-2.4-1.1-2.4-2.4v-55.7
			c0-1.3,1.1-2.4,2.4-2.4H1265.1z"/>
		<path fill="none" stroke="#000000" stroke-width="2" stroke-miterlimit="10" d="M1265.1,214.8c1.3,0,2.4,1.1,2.4,2.4v55.7
			c0,1.3-1.1,2.4-2.4,2.4H1223c-1.3,0-2.4-1.1-2.4-2.4v-55.7c0-1.3,1.1-2.4,2.4-2.4H1265.1z"/>
		<polygon fill="#221714" points="1259.5,265.9 1236.3,265.9 1228.6,258 1228.6,231.8 1236.7,224.1 1259.5,224.1 		"/>
		<rect x="1242.2" y="232.8" fill="#353741" width="8.8" height="2.6"/>
		<rect x="1243.7" y="234.1" fill="#8B8F99" width="7.3" height="1.3"/>
		<rect x="1236.7" y="244.3" fill="#353741" width="8.8" height="2.6"/>
		<rect x="1238.3" y="245.6" fill="#8B8F99" width="7.3" height="1.3"/>
		<rect x="1242.2" y="255.8" fill="#353741" width="8.8" height="2.6"/>
		<rect x="1243.7" y="257.1" fill="#8B8F99" width="7.3" height="1.3"/>
	</g>
</g>
</svg>
