<?xml version="1.0" encoding="utf-8"?>
<!-- Generator: Adobe Illustrator 21.0.0, SVG Export Plug-In . SVG Version: 6.00 Build 0)  -->
<svg version="1.1" id="图层_1" xmlns="http://www.w3.org/2000/svg" xmlns:xlink="http://www.w3.org/1999/xlink" x="0px" y="0px"
	 width="1417.3px" height="252.3px" viewBox="0 0 1417.3 252.3" enable-background="new 0 0 1417.3 252.3" xml:space="preserve">
<g id="XMLID_26866_">
	<polygon id="XMLID_26885_" fill="#191919" points="0,0 0,126.1 0,126.1 0,252.3 1417.3,252.3 1417.3,126.1 1417.3,126.1 1417.3,0 	
		"/>
</g>
<g id="XMLID_26865_">
	<rect id="XMLID_25976_" x="1" y="1" fill="#191919" width="61.8" height="250.3"/>
	<path id="XMLID_25456_" d="M61.8,2v248.3H2V2H61.8 M63.8,0H0v252.3h63.8V0L63.8,0z"/>
</g>
<g id="XMLID_26864_">
	<rect id="XMLID_25454_" x="1354.5" y="1" fill="#191919" width="61.8" height="250.3"/>
	<path id="XMLID_25451_" d="M1415.3,2v248.3h-59.8V2H1415.3 M1417.3,0h-63.8v252.3h63.8V0L1417.3,0z"/>
</g>
<image overflow="visible" width="604" height="477" id="XMLID_20026_" xlink:href="A913415F.png"  transform="matrix(8.730254e-02 0 0 8.730254e-02 115.2453 20.845)">
</image>
<path id="XMLID_20024_" fill="#286D9A" d="M313.2,62.5H171.8c-2.1,0-3.8-1.7-3.8-3.8v-34c0-2.1,1.7-3.8,3.8-3.8h141.4
	c2.1,0,3.8,1.7,3.8,3.8v34C317.1,60.8,315.3,62.5,313.2,62.5z"/>
<rect id="XMLID_20092_" x="168.6" y="28.4" fill="#EFEFEF" width="148.5" height="27.3"/>
<rect id="XMLID_20287_" x="188.4" y="20.8" fill="#EFEFEF" width="14.2" height="41.6"/>
<rect id="XMLID_20315_" x="208.5" y="20.8" fill="#EFEFEF" width="14.2" height="41.6"/>
<rect id="XMLID_20316_" x="228.6" y="20.8" fill="#EFEFEF" width="14.2" height="41.6"/>
<text id="XMLID_20314_" transform="matrix(1 0 0 1 189.5579 39.9005)" font-family="'MicrosoftYaHei-Bold'" font-size="12px">SmartSign</text>
<g id="XMLID_25982_">
	<linearGradient id="XMLID_4_" gradientUnits="userSpaceOnUse" x1="1129.2515" y1="209.4233" x2="1146.498" y2="209.4233">
		<stop  offset="0" style="stop-color:#BEBDBE"/>
		<stop  offset="0.2151" style="stop-color:#E0E0DF"/>
		<stop  offset="0.5323" style="stop-color:#C1C0C0"/>
		<stop  offset="0.8065" style="stop-color:#E0E0DF"/>
		<stop  offset="0.9871" style="stop-color:#B1B4B5"/>
	</linearGradient>
	<path id="XMLID_26308_" fill="url(#XMLID_4_)" d="M1129.4,215.7c2,1.7,4.4,2.5,7,2.5c1.5,0,2.6-0.3,3.3-0.8c0.7-0.5,1.1-1.2,1.1-2
		c0-0.7-0.3-1.3-0.9-2c-0.6-0.6-2.2-1.4-4.7-2.5c-4-1.7-6-4.1-6-7.4c0-2.4,0.9-4.2,2.7-5.5c1.8-1.3,4.2-2,7.2-2c2.5,0,4.6,0.3,6.3,1
		v5.1c-1.7-1.2-3.7-1.7-6-1.7c-1.3,0-2.4,0.2-3.2,0.7c-0.8,0.5-1.2,1.1-1.2,2c0,0.7,0.3,1.3,0.8,1.8c0.5,0.6,1.9,1.3,4.1,2.2
		c2.5,1.1,4.3,2.2,5.2,3.4c0.9,1.2,1.4,2.6,1.4,4.3c0,2.4-0.9,4.3-2.6,5.6c-1.7,1.3-4.2,1.9-7.4,1.9c-2.9,0-5.3-0.5-7.2-1.4V215.7z"
		/>
	<linearGradient id="XMLID_5_" gradientUnits="userSpaceOnUse" x1="1150.2467" y1="212.835" x2="1178.7719" y2="212.835">
		<stop  offset="0" style="stop-color:#BEBDBE"/>
		<stop  offset="0.2151" style="stop-color:#E0E0DF"/>
		<stop  offset="0.5323" style="stop-color:#C1C0C0"/>
		<stop  offset="0.8065" style="stop-color:#E0E0DF"/>
		<stop  offset="0.9871" style="stop-color:#B1B4B5"/>
	</linearGradient>
	<path id="XMLID_26310_" fill="url(#XMLID_5_)" d="M1178.8,222.1h-5.3v-10.4c0-2.8-1-4.2-3-4.2c-0.9,0-1.7,0.4-2.4,1.3
		c-0.6,0.8-0.9,1.9-0.9,3.1v10.2h-5.3v-10.5c0-2.7-1-4-3-4c-1,0-1.8,0.4-2.4,1.2c-0.6,0.8-0.9,1.9-0.9,3.2v10.1h-5.3V204h5.3v2.8
		h0.1c0.6-1,1.5-1.8,2.5-2.4c1.1-0.6,2.2-0.9,3.3-0.9c2.6,0,4.3,1.1,5.2,3.4c1.4-2.3,3.4-3.4,6.1-3.4c4,0,5.9,2.4,5.9,7.3V222.1z"/>
	<linearGradient id="XMLID_6_" gradientUnits="userSpaceOnUse" x1="1181.9615" y1="213.0567" x2="1198.2052" y2="213.0567">
		<stop  offset="0" style="stop-color:#BEBDBE"/>
		<stop  offset="0.2151" style="stop-color:#E0E0DF"/>
		<stop  offset="0.5323" style="stop-color:#C1C0C0"/>
		<stop  offset="0.8065" style="stop-color:#E0E0DF"/>
		<stop  offset="0.9871" style="stop-color:#B1B4B5"/>
	</linearGradient>
	<path id="XMLID_26312_" fill="url(#XMLID_6_)" d="M1183.8,205.1c0.8-0.5,1.9-0.8,3.3-1.1c1.4-0.3,2.6-0.4,3.5-0.4
		c5.1,0,7.6,2.5,7.6,7.6v11h-5v-2.6h-0.1c-1.2,2.1-3.1,3.1-5.4,3.1c-1.7,0-3.1-0.5-4.1-1.5c-1-1-1.6-2.3-1.6-4
		c0-3.5,2.1-5.5,6.2-6.1l5-0.7c0-2.1-1.1-3.2-3.3-3.2c-2.2,0-4.2,0.7-6.1,2V205.1z M1189.8,213.9c-1.9,0.3-2.9,1.1-2.9,2.6
		c0,0.7,0.2,1.2,0.7,1.6c0.5,0.4,1.1,0.6,1.9,0.6c1.1,0,2-0.4,2.7-1.2c0.7-0.8,1.1-1.7,1.1-2.9v-1.3L1189.8,213.9z"/>
	<linearGradient id="XMLID_8_" gradientUnits="userSpaceOnUse" x1="1202.7593" y1="212.9008" x2="1214.3502" y2="212.9008">
		<stop  offset="0" style="stop-color:#BEBDBE"/>
		<stop  offset="0.2151" style="stop-color:#E0E0DF"/>
		<stop  offset="0.5323" style="stop-color:#C1C0C0"/>
		<stop  offset="0.8065" style="stop-color:#E0E0DF"/>
		<stop  offset="0.9871" style="stop-color:#B1B4B5"/>
	</linearGradient>
	<path id="XMLID_26315_" fill="url(#XMLID_8_)" d="M1214.4,208.8c-0.6-0.4-1.4-0.6-2.4-0.6c-1.2,0-2.2,0.5-2.9,1.4
		c-0.7,0.9-1.1,2.2-1.1,3.8v8.7h-5.3V204h5.3v3.4h0.1c0.9-2.5,2.5-3.7,4.8-3.7c0.6,0,1.1,0.1,1.4,0.2V208.8z"/>
	<linearGradient id="XMLID_9_" gradientUnits="userSpaceOnUse" x1="1216.3561" y1="210.5253" x2="1228.769" y2="210.5253">
		<stop  offset="0" style="stop-color:#BEBDBE"/>
		<stop  offset="0.2151" style="stop-color:#E0E0DF"/>
		<stop  offset="0.5323" style="stop-color:#C1C0C0"/>
		<stop  offset="0.8065" style="stop-color:#E0E0DF"/>
		<stop  offset="0.9871" style="stop-color:#B1B4B5"/>
	</linearGradient>
	<path id="XMLID_26317_" fill="url(#XMLID_9_)" d="M1228.8,221.9c-0.8,0.4-2,0.7-3.6,0.7c-3.9,0-5.8-2-5.8-6.1v-8.6h-3v-4h3v-4
		l5.3-1.5v5.5h4.1v4h-4.1v7.7c0,1.9,0.8,2.9,2.3,2.9c0.6,0,1.2-0.2,1.8-0.5V221.9z"/>
	<linearGradient id="XMLID_10_" gradientUnits="userSpaceOnUse" x1="1231.2682" y1="209.4233" x2="1248.5149" y2="209.4233">
		<stop  offset="0" style="stop-color:#BEBDBE"/>
		<stop  offset="0.2151" style="stop-color:#E0E0DF"/>
		<stop  offset="0.5323" style="stop-color:#C1C0C0"/>
		<stop  offset="0.8065" style="stop-color:#E0E0DF"/>
		<stop  offset="0.9871" style="stop-color:#B1B4B5"/>
	</linearGradient>
	<path id="XMLID_26319_" fill="url(#XMLID_10_)" d="M1231.4,215.7c2,1.7,4.4,2.5,7,2.5c1.5,0,2.6-0.3,3.3-0.8c0.7-0.5,1.1-1.2,1.1-2
		c0-0.7-0.3-1.3-0.9-2c-0.6-0.6-2.2-1.4-4.7-2.5c-4-1.7-6-4.1-6-7.4c0-2.4,0.9-4.2,2.7-5.5c1.8-1.3,4.2-2,7.2-2c2.5,0,4.6,0.3,6.3,1
		v5.1c-1.7-1.2-3.7-1.7-6-1.7c-1.3,0-2.4,0.2-3.2,0.7c-0.8,0.5-1.2,1.1-1.2,2c0,0.7,0.3,1.3,0.8,1.8c0.5,0.6,1.9,1.3,4.1,2.2
		c2.5,1.1,4.3,2.2,5.2,3.4c0.9,1.2,1.4,2.6,1.4,4.3c0,2.4-0.9,4.3-2.6,5.6c-1.7,1.3-4.2,1.9-7.4,1.9c-2.9,0-5.3-0.5-7.2-1.4V215.7z"
		/>
	<linearGradient id="XMLID_11_" gradientUnits="userSpaceOnUse" x1="1251.7864" y1="208.7496" x2="1257.9518" y2="208.7496">
		<stop  offset="0" style="stop-color:#BEBDBE"/>
		<stop  offset="0.2151" style="stop-color:#E0E0DF"/>
		<stop  offset="0.5323" style="stop-color:#C1C0C0"/>
		<stop  offset="0.8065" style="stop-color:#E0E0DF"/>
		<stop  offset="0.9871" style="stop-color:#B1B4B5"/>
	</linearGradient>
	<path id="XMLID_26321_" fill="url(#XMLID_11_)" d="M1251.8,198.1c0-0.8,0.3-1.5,0.9-2c0.6-0.5,1.3-0.8,2.2-0.8
		c0.9,0,1.7,0.3,2.2,0.8c0.6,0.5,0.9,1.2,0.9,2c0,0.8-0.3,1.5-0.9,2c-0.6,0.5-1.3,0.8-2.2,0.8c-0.9,0-1.6-0.3-2.2-0.8
		C1252.1,199.5,1251.8,198.9,1251.8,198.1z M1252.2,222.1V204h5.3v18.2H1252.2z"/>
	<linearGradient id="XMLID_12_" gradientUnits="userSpaceOnUse" x1="1261.1415" y1="217.1014" x2="1279.802" y2="217.1014">
		<stop  offset="0" style="stop-color:#BEBDBE"/>
		<stop  offset="0.2151" style="stop-color:#E0E0DF"/>
		<stop  offset="0.5323" style="stop-color:#C1C0C0"/>
		<stop  offset="0.8065" style="stop-color:#E0E0DF"/>
		<stop  offset="0.9871" style="stop-color:#B1B4B5"/>
	</linearGradient>
	<path id="XMLID_26324_" fill="url(#XMLID_12_)" d="M1279.8,220.1c0,3.4-1,6-2.9,7.8c-1.9,1.8-4.7,2.7-8.3,2.7
		c-2.5,0-4.4-0.4-5.9-1.1v-4.5c1.9,1.1,3.8,1.6,5.7,1.6c1.9,0,3.4-0.5,4.4-1.5c1.1-1,1.6-2.4,1.6-4.2v-1.5h-0.1
		c-1.3,2.1-3.2,3.1-5.7,3.1c-2.3,0-4.1-0.8-5.5-2.4c-1.4-1.6-2.1-3.8-2.1-6.6c0-3.1,0.8-5.5,2.3-7.3c1.5-1.8,3.5-2.7,6-2.7
		c2.2,0,3.9,0.9,5,2.6h0.1V204h5.3V220.1z M1274.6,211.9c0-1.2-0.4-2.2-1.1-3c-0.7-0.8-1.6-1.2-2.8-1.2c-1.3,0-2.3,0.5-3.1,1.5
		c-0.8,1-1.1,2.4-1.1,4.3c0,1.6,0.4,2.8,1.1,3.8c0.7,0.9,1.7,1.4,2.9,1.4c1.2,0,2.2-0.5,2.9-1.4c0.8-0.9,1.1-2.1,1.1-3.6V211.9z"/>
	<linearGradient id="XMLID_13_" gradientUnits="userSpaceOnUse" x1="1284.603" y1="212.835" x2="1301.8826" y2="212.835">
		<stop  offset="0" style="stop-color:#BEBDBE"/>
		<stop  offset="0.2151" style="stop-color:#E0E0DF"/>
		<stop  offset="0.5323" style="stop-color:#C1C0C0"/>
		<stop  offset="0.8065" style="stop-color:#E0E0DF"/>
		<stop  offset="0.9871" style="stop-color:#B1B4B5"/>
	</linearGradient>
	<path id="XMLID_26327_" fill="url(#XMLID_13_)" d="M1301.9,222.1h-5.3V212c0-2.9-1.1-4.4-3.2-4.4c-1,0-1.8,0.4-2.5,1.2
		c-0.7,0.8-1,1.8-1,3v10.4h-5.3V204h5.3v2.9h0.1c1.3-2.2,3.3-3.3,5.9-3.3c4,0,6.1,2.5,6.1,7.5V222.1z"/>
</g>
<text id="XMLID_26863_" transform="matrix(1 0 0 1 237.4232 53.1926)" font-family="'SimHei'" font-size="8px">中铁信签名服务器</text>
<g id="XMLID_25084_">
	<g id="XMLID_25978_">
		<defs>
			<path id="SVGID_139_" d="M1375.5,203.4v1c0,3.9,2.6,7.2,6.3,8.2l5,1.3c2.9,0.8,5.9,1.2,8.9,1.2l1.6-15.4l-14.2-2.7
				c-0.4-0.1-0.8-0.1-1.2-0.1C1378.5,196.9,1375.5,199.8,1375.5,203.4"/>
		</defs>
		<linearGradient id="SVGID_1_" gradientUnits="userSpaceOnUse" x1="1375.4934" y1="206.026" x2="1397.3741" y2="206.026">
			<stop  offset="0" style="stop-color:#353535"/>
			<stop  offset="0.4731" style="stop-color:#4F4F4F"/>
			<stop  offset="1" style="stop-color:#232323"/>
		</linearGradient>
		<use xlink:href="#SVGID_139_"  overflow="visible" fill="url(#SVGID_1_)"/>
		<clipPath id="SVGID_2_">
			<use xlink:href="#SVGID_139_"  overflow="visible"/>
		</clipPath>
		
			<linearGradient id="XMLID_14_" gradientUnits="userSpaceOnUse" x1="4522.9683" y1="-949.0411" x2="4523.9346" y2="-949.0411" gradientTransform="matrix(14.9609 0 0 -14.9609 -66294.5156 -13992.4834)">
			<stop  offset="0" style="stop-color:#353535"/>
			<stop  offset="0.4731" style="stop-color:#4F4F4F"/>
			<stop  offset="1" style="stop-color:#232323"/>
		</linearGradient>
		<rect id="XMLID_25979_" x="1375.5" y="196.9" clip-path="url(#SVGID_2_)" fill="url(#XMLID_14_)" width="21.9" height="18.2"/>
	</g>
	<g id="XMLID_25455_">
		<defs>
			<path id="SVGID_138_" d="M1375.5,43.7v1c0,3.9,2.6,7.2,6.3,8.2l5,1.3c2.9,0.8,5.9,1.2,8.9,1.2l1.6-15.4l-14.2-2.7
				c-0.4-0.1-0.8-0.1-1.2-0.1C1378.5,37.2,1375.5,40,1375.5,43.7"/>
		</defs>
		<linearGradient id="SVGID_3_" gradientUnits="userSpaceOnUse" x1="1375.4934" y1="46.2572" x2="1397.3741" y2="46.2572">
			<stop  offset="0" style="stop-color:#353535"/>
			<stop  offset="0.4731" style="stop-color:#4F4F4F"/>
			<stop  offset="1" style="stop-color:#232323"/>
		</linearGradient>
		<use xlink:href="#SVGID_138_"  overflow="visible" fill="url(#SVGID_3_)"/>
		<clipPath id="SVGID_4_">
			<use xlink:href="#SVGID_138_"  overflow="visible"/>
		</clipPath>
		
			<linearGradient id="XMLID_15_" gradientUnits="userSpaceOnUse" x1="4522.9683" y1="-938.3621" x2="4523.9346" y2="-938.3621" gradientTransform="matrix(14.9609 0 0 -14.9609 -66294.5156 -13992.4834)">
			<stop  offset="0" style="stop-color:#353535"/>
			<stop  offset="0.4731" style="stop-color:#4F4F4F"/>
			<stop  offset="1" style="stop-color:#232323"/>
		</linearGradient>
		<rect id="XMLID_25977_" x="1375.5" y="37.2" clip-path="url(#SVGID_4_)" fill="url(#XMLID_15_)" width="21.9" height="18.2"/>
	</g>
	<g id="XMLID_25449_">
		<defs>
			<path id="SVGID_137_" d="M1393.3,38.8c-5.3,0-9.5,4.3-9.5,9.5v157.2c0,5.3,4.3,9.5,9.5,9.5c5.3,0,9.5-4.3,9.5-9.5V48.3
				C1402.8,43.1,1398.6,38.8,1393.3,38.8L1393.3,38.8z"/>
		</defs>
		<clipPath id="SVGID_5_">
			<use xlink:href="#SVGID_137_"  overflow="visible"/>
		</clipPath>
		<linearGradient id="XMLID_16_" gradientUnits="userSpaceOnUse" x1="1383.7515" y1="126.9575" x2="1402.8407" y2="126.9575">
			<stop  offset="0" style="stop-color:#353535"/>
			<stop  offset="0.4731" style="stop-color:#4F4F4F"/>
			<stop  offset="1" style="stop-color:#232323"/>
		</linearGradient>
		<rect id="XMLID_25450_" x="1383.8" y="38.8" clip-path="url(#SVGID_5_)" fill="url(#XMLID_16_)" width="19.1" height="176.3"/>
	</g>
</g>
<g id="XMLID_20317_">
	<g id="XMLID_24497_">
		<defs>
			<path id="SVGID_136_" d="M20.7,203.4v1c0,3.9,2.6,7.2,6.3,8.2l5,1.3c2.9,0.8,5.9,1.2,8.9,1.2l1.6-15.4L28.4,197
				c-0.4-0.1-0.8-0.1-1.2-0.1C23.7,196.9,20.7,199.8,20.7,203.4"/>
		</defs>
		<linearGradient id="SVGID_6_" gradientUnits="userSpaceOnUse" x1="20.7076" y1="206.026" x2="42.5883" y2="206.026">
			<stop  offset="0" style="stop-color:#353535"/>
			<stop  offset="0.4731" style="stop-color:#4F4F4F"/>
			<stop  offset="1" style="stop-color:#232323"/>
		</linearGradient>
		<use xlink:href="#SVGID_136_"  overflow="visible" fill="url(#SVGID_6_)"/>
		<clipPath id="SVGID_7_">
			<use xlink:href="#SVGID_136_"  overflow="visible"/>
		</clipPath>
		
			<linearGradient id="XMLID_20_" gradientUnits="userSpaceOnUse" x1="4432.4131" y1="-949.0411" x2="4433.3794" y2="-949.0411" gradientTransform="matrix(14.9609 0 0 -14.9609 -66294.5156 -13992.4834)">
			<stop  offset="0" style="stop-color:#353535"/>
			<stop  offset="0.4731" style="stop-color:#4F4F4F"/>
			<stop  offset="1" style="stop-color:#232323"/>
		</linearGradient>
		<rect id="XMLID_24526_" x="20.7" y="196.9" clip-path="url(#SVGID_7_)" fill="url(#XMLID_20_)" width="21.9" height="18.2"/>
	</g>
	<g id="XMLID_24323_">
		<defs>
			<path id="SVGID_135_" d="M20.7,43.7v1c0,3.9,2.6,7.2,6.3,8.2l5,1.3c2.9,0.8,5.9,1.2,8.9,1.2L42.6,40l-14.2-2.7
				c-0.4-0.1-0.8-0.1-1.2-0.1C23.7,37.2,20.7,40,20.7,43.7"/>
		</defs>
		<linearGradient id="SVGID_8_" gradientUnits="userSpaceOnUse" x1="20.7076" y1="46.2572" x2="42.5883" y2="46.2572">
			<stop  offset="0" style="stop-color:#353535"/>
			<stop  offset="0.4731" style="stop-color:#4F4F4F"/>
			<stop  offset="1" style="stop-color:#232323"/>
		</linearGradient>
		<use xlink:href="#SVGID_135_"  overflow="visible" fill="url(#SVGID_8_)"/>
		<clipPath id="SVGID_9_">
			<use xlink:href="#SVGID_135_"  overflow="visible"/>
		</clipPath>
		
			<linearGradient id="XMLID_21_" gradientUnits="userSpaceOnUse" x1="4432.4131" y1="-938.3621" x2="4433.3794" y2="-938.3621" gradientTransform="matrix(14.9609 0 0 -14.9609 -66294.5156 -13992.4834)">
			<stop  offset="0" style="stop-color:#353535"/>
			<stop  offset="0.4731" style="stop-color:#4F4F4F"/>
			<stop  offset="1" style="stop-color:#232323"/>
		</linearGradient>
		<rect id="XMLID_24488_" x="20.7" y="37.2" clip-path="url(#SVGID_9_)" fill="url(#XMLID_21_)" width="21.9" height="18.2"/>
	</g>
	<g id="XMLID_20318_">
		<defs>
			<path id="SVGID_134_" d="M38.5,38.8c-5.3,0-9.5,4.3-9.5,9.5v157.2c0,5.3,4.3,9.5,9.5,9.5c5.3,0,9.5-4.3,9.5-9.5V48.3
				C48.1,43.1,43.8,38.8,38.5,38.8L38.5,38.8z"/>
		</defs>
		<clipPath id="SVGID_10_">
			<use xlink:href="#SVGID_134_"  overflow="visible"/>
		</clipPath>
		<linearGradient id="XMLID_22_" gradientUnits="userSpaceOnUse" x1="28.9657" y1="126.9575" x2="48.055" y2="126.9575">
			<stop  offset="0" style="stop-color:#353535"/>
			<stop  offset="0.4731" style="stop-color:#4F4F4F"/>
			<stop  offset="1" style="stop-color:#232323"/>
		</linearGradient>
		<rect id="XMLID_20320_" x="29" y="38.8" clip-path="url(#SVGID_10_)" fill="url(#XMLID_22_)" width="19.1" height="176.3"/>
	</g>
</g>
<path id="XMLID_25980_" fill="#AFAFAF" d="M738.4,114.4H63.8V105h674.6c2.6,0,4.7,2.1,4.7,4.7v0C743.1,112.3,741,114.4,738.4,114.4z
	"/>
<path id="XMLID_25981_" fill="#0C0C0C" d="M738.4,113.3H63.8v-9.4h674.6c2.6,0,4.7,2.1,4.7,4.7v0C743.1,111.2,741,113.3,738.4,113.3
	z"/>
<path id="XMLID_25984_" fill="#AFAFAF" d="M738.4,136.6H63.8v-9.4h674.6c2.6,0,4.7,2.1,4.7,4.7l0,0
	C743.1,134.5,741,136.6,738.4,136.6z"/>
<path id="XMLID_25983_" fill="#0C0C0C" d="M738.4,135.6H63.8v-9.4h674.6c2.6,0,4.7,2.1,4.7,4.7l0,0
	C743.1,133.4,741,135.6,738.4,135.6z"/>
<path id="XMLID_26041_" fill="#AFAFAF" d="M738.4,158.9H63.8v-9.4h674.6c2.6,0,4.7,2.1,4.7,4.7v0C743.1,156.8,741,158.9,738.4,158.9
	z"/>
<path id="XMLID_25985_" fill="#0C0C0C" d="M738.4,157.8H63.8v-9.4h674.6c2.6,0,4.7,2.1,4.7,4.7v0C743.1,155.7,741,157.8,738.4,157.8
	z"/>
<path id="XMLID_26304_" fill="#AFAFAF" d="M738.4,181.1H63.8v-9.4h674.6c2.6,0,4.7,2.1,4.7,4.7v0C743.1,179,741,181.1,738.4,181.1z"
	/>
<path id="XMLID_26303_" fill="#0C0C0C" d="M738.4,180H63.8v-9.4h674.6c2.6,0,4.7,2.1,4.7,4.7l0,0C743.1,177.9,741,180,738.4,180z"/>
<path id="XMLID_26306_" fill="#AFAFAF" d="M738.4,203.4H63.8V194h674.6c2.6,0,4.7,2.1,4.7,4.7l0,0
	C743.1,201.3,741,203.4,738.4,203.4z"/>
<path id="XMLID_26305_" fill="#0C0C0C" d="M738.4,202.3H63.8v-9.4h674.6c2.6,0,4.7,2.1,4.7,4.7v0C743.1,200.2,741,202.3,738.4,202.3
	z"/>
<g id="XMLID_26330_">
	
		<rect id="XMLID_26335_" x="982.5" y="205" fill="#1C1D20" stroke="#CCCCCC" stroke-width="0.5" stroke-miterlimit="10" width="35.6" height="18.1"/>
	<rect id="XMLID_26334_" x="996.6" y="205" fill="#ACACAF" width="7.5" height="0.9"/>
	<rect id="XMLID_26333_" x="986.7" y="209.2" fill="#5A5B55" width="27.3" height="4.9"/>
	<rect id="XMLID_26332_" x="982.5" y="205" fill="#ACACAF" width="2.3" height="1.8"/>
	<rect id="XMLID_26331_" x="1015.8" y="205" fill="#ACACAF" width="2.3" height="1.8"/>
</g>
<path id="XMLID_26329_" fill="#C7C7C7" d="M1011.3,232.6l-2.2-1.3v1h-9.6h-0.9h-0.8l2.2-2.2c0.2-0.2,0.5-0.3,0.8-0.3h1.9
	c0.2,0.4,0.6,0.7,1,0.7c0.6,0,1.1-0.5,1.1-1.1c0-0.6-0.5-1.1-1.1-1.1c-0.6,0-1,0.4-1.1,0.9h-1.9c-0.5,0-0.9,0.2-1.2,0.5l-2.4,2.4
	c-0.2,0.2-0.5,0.3-0.7,0.3h-0.3h-0.8c-0.2-0.9-0.9-1.5-1.8-1.5c-1,0-1.8,0.8-1.8,1.8c0,1,0.8,1.8,1.8,1.8c0.9,0,1.6-0.6,1.8-1.5h0.8
	h0.3h2.1h0.9c0.3,0,0.5,0.1,0.7,0.3l2.3,2.3c0.3,0.3,0.8,0.5,1.2,0.5h1.6v0.9h2.2v-2.2h-2.2v0.6h-1.6c-0.3,0-0.5-0.1-0.7-0.3
	l-2.1-2.1h8.3v1L1011.3,232.6z"/>
<g id="XMLID_26337_">
	
		<rect id="XMLID_26342_" x="1033.9" y="205" fill="#1C1D20" stroke="#CCCCCC" stroke-width="0.5" stroke-miterlimit="10" width="35.6" height="18.1"/>
	<rect id="XMLID_26341_" x="1047.9" y="205" fill="#ACACAF" width="7.5" height="0.9"/>
	<rect id="XMLID_26340_" x="1038" y="209.2" fill="#5A5B55" width="27.3" height="4.9"/>
	<rect id="XMLID_26339_" x="1033.9" y="205" fill="#ACACAF" width="2.3" height="1.8"/>
	<rect id="XMLID_26338_" x="1067.2" y="205" fill="#ACACAF" width="2.3" height="1.8"/>
</g>
<path id="XMLID_26336_" fill="#C7C7C7" d="M1062.7,232.6l-2.2-1.3v1h-9.6h-0.9h-0.8l2.2-2.2c0.2-0.2,0.5-0.3,0.8-0.3h1.9
	c0.2,0.4,0.6,0.7,1,0.7c0.6,0,1.1-0.5,1.1-1.1c0-0.6-0.5-1.1-1.1-1.1c-0.6,0-1,0.4-1.1,0.9h-1.9c-0.5,0-0.9,0.2-1.2,0.5l-2.4,2.4
	c-0.2,0.2-0.5,0.3-0.7,0.3h-0.3h-0.8c-0.2-0.9-0.9-1.5-1.8-1.5c-1,0-1.8,0.8-1.8,1.8c0,1,0.8,1.8,1.8,1.8c0.9,0,1.6-0.6,1.8-1.5h0.8
	h0.3h2.1h0.9c0.3,0,0.5,0.1,0.7,0.3l2.3,2.3c0.3,0.3,0.8,0.5,1.2,0.5h1.6v0.9h2.2v-2.2h-2.2v0.6h-1.6c-0.3,0-0.5-0.1-0.7-0.3
	l-2.1-2.1h8.3v1L1062.7,232.6z"/>
<radialGradient id="XMLID_23_" cx="-4703.1064" cy="-204.8085" r="4.7995" gradientTransform="matrix(-1 0 0 -1 -3553.0691 -134.5685)" gradientUnits="userSpaceOnUse">
	<stop  offset="0.6774" style="stop-color:#2B2B2B"/>
	<stop  offset="0.8441" style="stop-color:#595757"/>
	<stop  offset="1" style="stop-color:#000000"/>
</radialGradient>
<path id="XMLID_26391_" fill="url(#XMLID_23_)" d="M1145.2,70.2c0-2.6,2.1-4.8,4.8-4.8s4.8,2.1,4.8,4.8c0,2.7-2.1,4.8-4.8,4.8
	S1145.2,72.9,1145.2,70.2"/>
<circle id="XMLID_26390_" fill="none" stroke="#131313" stroke-width="0.75" stroke-miterlimit="10" cx="1150" cy="70.2" r="4.8"/>
<circle id="XMLID_26387_" fill="#E81346" cx="1150.1" cy="70.2" r="3.7"/>
<radialGradient id="XMLID_24_" cx="-4714.4395" cy="-204.8085" r="4.7995" gradientTransform="matrix(-1 0 0 -1 -3553.0691 -134.5685)" gradientUnits="userSpaceOnUse">
	<stop  offset="0.6774" style="stop-color:#2B2B2B"/>
	<stop  offset="0.8441" style="stop-color:#595757"/>
	<stop  offset="1" style="stop-color:#000000"/>
</radialGradient>
<path id="XMLID_26386_" fill="url(#XMLID_24_)" d="M1156.6,70.2c0-2.6,2.1-4.8,4.8-4.8s4.8,2.1,4.8,4.8c0,2.7-2.1,4.8-4.8,4.8
	S1156.6,72.9,1156.6,70.2"/>
<circle id="XMLID_26385_" fill="none" stroke="#131313" stroke-width="0.75" stroke-miterlimit="10" cx="1161.4" cy="70.2" r="4.8"/>
<circle id="XMLID_26382_" fill="#E81346" cx="1161.4" cy="70.2" r="3.7"/>
<radialGradient id="XMLID_25_" cx="-4725.7729" cy="-204.8085" r="4.7995" gradientTransform="matrix(-1 0 0 -1 -3553.0691 -134.5685)" gradientUnits="userSpaceOnUse">
	<stop  offset="0.6774" style="stop-color:#2B2B2B"/>
	<stop  offset="0.8441" style="stop-color:#595757"/>
	<stop  offset="1" style="stop-color:#000000"/>
</radialGradient>
<path id="XMLID_26381_" fill="url(#XMLID_25_)" d="M1167.9,70.2c0-2.6,2.1-4.8,4.8-4.8s4.8,2.1,4.8,4.8c0,2.7-2.1,4.8-4.8,4.8
	S1167.9,72.9,1167.9,70.2"/>
<circle id="XMLID_26380_" fill="none" stroke="#131313" stroke-width="0.75" stroke-miterlimit="10" cx="1172.7" cy="70.2" r="4.8"/>
<circle id="XMLID_26377_" fill="#B5ED2E" cx="1172.7" cy="70.2" r="3.7"/>
<radialGradient id="XMLID_26_" cx="-4737.1064" cy="-204.8085" r="4.7995" gradientTransform="matrix(-1 0 0 -1 -3553.0691 -134.5685)" gradientUnits="userSpaceOnUse">
	<stop  offset="0.6774" style="stop-color:#2B2B2B"/>
	<stop  offset="0.8441" style="stop-color:#595757"/>
	<stop  offset="1" style="stop-color:#000000"/>
</radialGradient>
<path id="XMLID_26376_" fill="url(#XMLID_26_)" d="M1179.2,70.2c0-2.6,2.1-4.8,4.8-4.8s4.8,2.1,4.8,4.8c0,2.7-2.1,4.8-4.8,4.8
	S1179.2,72.9,1179.2,70.2"/>
<circle id="XMLID_26375_" fill="none" stroke="#131313" stroke-width="0.75" stroke-miterlimit="10" cx="1184" cy="70.2" r="4.8"/>
<circle id="XMLID_26372_" fill="#B5ED2E" cx="1184.1" cy="70.2" r="3.7"/>
<radialGradient id="XMLID_27_" cx="-4748.4395" cy="-204.8085" r="4.7995" gradientTransform="matrix(-1 0 0 -1 -3553.0691 -134.5685)" gradientUnits="userSpaceOnUse">
	<stop  offset="0.6774" style="stop-color:#2B2B2B"/>
	<stop  offset="0.8441" style="stop-color:#595757"/>
	<stop  offset="1" style="stop-color:#000000"/>
</radialGradient>
<path id="XMLID_26371_" fill="url(#XMLID_27_)" d="M1190.6,70.2c0-2.6,2.1-4.8,4.8-4.8s4.8,2.1,4.8,4.8c0,2.7-2.1,4.8-4.8,4.8
	S1190.6,72.9,1190.6,70.2"/>
<circle id="XMLID_26370_" fill="none" stroke="#131313" stroke-width="0.75" stroke-miterlimit="10" cx="1195.4" cy="70.2" r="4.8"/>
<circle id="XMLID_26367_" fill="#B5ED2E" cx="1195.4" cy="70.2" r="3.7"/>
<radialGradient id="XMLID_28_" cx="-4759.7729" cy="-204.8085" r="4.7995" gradientTransform="matrix(-1 0 0 -1 -3553.0691 -134.5685)" gradientUnits="userSpaceOnUse">
	<stop  offset="0.6774" style="stop-color:#2B2B2B"/>
	<stop  offset="0.8441" style="stop-color:#595757"/>
	<stop  offset="1" style="stop-color:#000000"/>
</radialGradient>
<path id="XMLID_26366_" fill="url(#XMLID_28_)" d="M1201.9,70.2c0-2.6,2.1-4.8,4.8-4.8s4.8,2.1,4.8,4.8c0,2.7-2.1,4.8-4.8,4.8
	S1201.9,72.9,1201.9,70.2"/>
<circle id="XMLID_26365_" fill="none" stroke="#131313" stroke-width="0.75" stroke-miterlimit="10" cx="1206.7" cy="70.2" r="4.8"/>
<circle id="XMLID_26362_" fill="#2FEA52" cx="1206.7" cy="70.2" r="3.7"/>
<radialGradient id="XMLID_29_" cx="-4771.1064" cy="-204.8085" r="4.7995" gradientTransform="matrix(-1 0 0 -1 -3553.0691 -134.5685)" gradientUnits="userSpaceOnUse">
	<stop  offset="0.6774" style="stop-color:#2B2B2B"/>
	<stop  offset="0.8441" style="stop-color:#595757"/>
	<stop  offset="1" style="stop-color:#000000"/>
</radialGradient>
<path id="XMLID_26361_" fill="url(#XMLID_29_)" d="M1213.2,70.2c0-2.6,2.1-4.8,4.8-4.8s4.8,2.1,4.8,4.8c0,2.7-2.1,4.8-4.8,4.8
	S1213.2,72.9,1213.2,70.2"/>
<circle id="XMLID_26360_" fill="none" stroke="#131313" stroke-width="0.75" stroke-miterlimit="10" cx="1218" cy="70.2" r="4.8"/>
<circle id="XMLID_26357_" fill="#2FEA52" cx="1218.1" cy="70.2" r="3.7"/>
<radialGradient id="XMLID_30_" cx="-4782.4395" cy="-204.8085" r="4.7995" gradientTransform="matrix(-1 0 0 -1 -3553.0691 -134.5685)" gradientUnits="userSpaceOnUse">
	<stop  offset="0.6774" style="stop-color:#2B2B2B"/>
	<stop  offset="0.8441" style="stop-color:#595757"/>
	<stop  offset="1" style="stop-color:#000000"/>
</radialGradient>
<path id="XMLID_26356_" fill="url(#XMLID_30_)" d="M1224.6,70.2c0-2.6,2.1-4.8,4.8-4.8s4.8,2.1,4.8,4.8c0,2.7-2.1,4.8-4.8,4.8
	S1224.6,72.9,1224.6,70.2"/>
<circle id="XMLID_26355_" fill="none" stroke="#131313" stroke-width="0.75" stroke-miterlimit="10" cx="1229.4" cy="70.2" r="4.8"/>
<circle id="XMLID_26352_" fill="#2FEA52" cx="1229.4" cy="70.2" r="3.7"/>
<radialGradient id="XMLID_31_" cx="-4801.4395" cy="-200.0096" r="8.8464" gradientTransform="matrix(-1 0 0 -1 -3553.0691 -134.5685)" gradientUnits="userSpaceOnUse">
	<stop  offset="0.6774" style="stop-color:#2B2B2B"/>
	<stop  offset="0.8441" style="stop-color:#595757"/>
	<stop  offset="1" style="stop-color:#000000"/>
</radialGradient>
<path id="XMLID_26351_" fill="url(#XMLID_31_)" d="M1239.5,65.4c0-4.9,4-8.8,8.8-8.8s8.8,4,8.8,8.8c0,4.9-4,8.8-8.8,8.8
	S1239.5,70.3,1239.5,65.4"/>
<ellipse id="XMLID_26350_" fill="none" stroke="#131313" stroke-width="0.75" stroke-miterlimit="10" cx="1248.4" cy="65.4" rx="8.8" ry="8.8"/>
<circle id="XMLID_26347_" fill="#353535" cx="1248.4" cy="65.4" r="6.8"/>
<radialGradient id="XMLID_32_" cx="-4832.334" cy="-196.3722" r="15.5486" gradientTransform="matrix(-1 0 0 -1 -3553.0691 -134.5685)" gradientUnits="userSpaceOnUse">
	<stop  offset="0.6774" style="stop-color:#2B2B2B"/>
	<stop  offset="0.8441" style="stop-color:#595757"/>
	<stop  offset="1" style="stop-color:#000000"/>
</radialGradient>
<path id="XMLID_26346_" fill="url(#XMLID_32_)" d="M1263.7,61.8c0-8.6,7-15.5,15.6-15.5c8.6,0,15.6,7,15.6,15.5
	c0,8.6-7,15.5-15.6,15.5C1270.7,77.4,1263.7,70.4,1263.7,61.8"/>
<ellipse id="XMLID_26345_" fill="none" stroke="#131313" stroke-width="0.75" stroke-miterlimit="10" cx="1279.3" cy="61.8" rx="15.6" ry="15.5"/>
<circle id="XMLID_26307_" fill="#353535" cx="1279.3" cy="61.8" r="11.9"/>
</svg>
