<?xml version="1.0" encoding="utf-8"?>
<!-- Generator: Adobe Illustrator 21.0.0, SVG Export Plug-In . SVG Version: 6.00 Build 0)  -->
<svg version="1.1" id="图层_1" xmlns="http://www.w3.org/2000/svg" xmlns:xlink="http://www.w3.org/1999/xlink" x="0px" y="0px"
	 width="1417.3px" height="252.3px" viewBox="0 0 1417.3 252.3" enable-background="new 0 0 1417.3 252.3" xml:space="preserve">
<g id="XMLID_30000_">
	<rect id="XMLID_30002_" x="1" y="1" fill="#3C3D38" width="1415.3" height="250.3"/>
	<g id="XMLID_29995_">
		<path id="XMLID_29996_" fill="#070707" d="M1415.3,2v124.1v124.1H2V126.1V2H1415.3 M1417.3,0H0v126.1v126.1h1417.3V126.1V0
			L1417.3,0z"/>
	</g>
</g>
<rect id="XMLID_29999_" x="1.9" y="3.3" fill="#1C1C1C" width="63.8" height="249"/>
<rect id="XMLID_29998_" x="63.2" y="3.3" fill="#070707" width="2.5" height="249"/>
<rect id="XMLID_29981_" x="1355.4" y="3.3" fill="#1C1C1C" width="63.8" height="249"/>
<rect id="XMLID_29980_" x="1355.4" y="3.3" transform="matrix(-1 1.758028e-10 -1.758028e-10 -1 2713.3594 255.5782)" fill="#070707" width="2.5" height="249"/>
<g id="XMLID_29389_">
	<g id="XMLID_29967_">
		<defs>
			<path id="SVGID_86_" d="M24.2,220v1c0,3.9,2.6,7.2,6.3,8.2l5,1.3c2.9,0.8,5.9,1.2,8.9,1.2l1.6-15.4l-14.2-2.7
				c-0.4-0.1-0.8-0.1-1.2-0.1C27.2,213.5,24.2,216.3,24.2,220"/>
		</defs>
		<clipPath id="SVGID_111_">
			<use xlink:href="#SVGID_86_"  overflow="visible"/>
		</clipPath>
		
			<linearGradient id="XMLID_1003_" gradientUnits="userSpaceOnUse" x1="2598.3347" y1="-150.7036" x2="2599.3015" y2="-150.7036" gradientTransform="matrix(14.9609 0 0 -14.9609 -38851.5313 -2032.0957)">
			<stop  offset="0" style="stop-color:#E1E0DF"/>
			<stop  offset="1" style="stop-color:#666666"/>
		</linearGradient>
		<rect id="XMLID_29968_" x="24.2" y="213.5" clip-path="url(#SVGID_111_)" fill="url(#XMLID_1003_)" width="21.9" height="18.2"/>
	</g>
	<g id="XMLID_29965_">
		<defs>
			<path id="SVGID_85_" d="M24.2,40.2v1c0,3.9,2.6,7.2,6.3,8.2l5,1.3c2.9,0.8,5.9,1.2,8.9,1.2l1.6-15.4l-14.2-2.7
				c-0.4-0.1-0.8-0.1-1.2-0.1C27.2,33.7,24.2,36.5,24.2,40.2"/>
		</defs>
		<clipPath id="SVGID_112_">
			<use xlink:href="#SVGID_85_"  overflow="visible"/>
		</clipPath>
		
			<linearGradient id="XMLID_1005_" gradientUnits="userSpaceOnUse" x1="2598.3347" y1="-138.6877" x2="2599.3015" y2="-138.6877" gradientTransform="matrix(14.9609 0 0 -14.9609 -38851.5313 -2032.0957)">
			<stop  offset="0" style="stop-color:#E1E0DF"/>
			<stop  offset="1" style="stop-color:#666666"/>
		</linearGradient>
		<rect id="XMLID_29966_" x="24.2" y="33.7" clip-path="url(#SVGID_112_)" fill="url(#XMLID_1005_)" width="21.9" height="18.2"/>
	</g>
	<g id="XMLID_29390_">
		<defs>
			<path id="SVGID_84_" d="M42,35.3c-5.3,0-9.5,4.3-9.5,9.5v177.2c0,5.3,4.3,9.5,9.5,9.5c5.3,0,9.5-4.3,9.5-9.5V44.9
				C51.6,39.6,47.3,35.3,42,35.3L42,35.3z"/>
		</defs>
		<clipPath id="SVGID_113_">
			<use xlink:href="#SVGID_84_"  overflow="visible"/>
		</clipPath>
		
			<linearGradient id="XMLID_1006_" gradientUnits="userSpaceOnUse" x1="3106.5066" y1="-83.809" x2="3107.4734" y2="-83.809" gradientTransform="matrix(-19.7471 0 0 19.7471 61396.0742 1788.4812)">
			<stop  offset="0" style="stop-color:#CCCDCD"/>
			<stop  offset="0.4731" style="stop-color:#E1E0DF"/>
			<stop  offset="1" style="stop-color:#666666"/>
		</linearGradient>
		<rect id="XMLID_29964_" x="32.5" y="35.3" clip-path="url(#SVGID_113_)" fill="url(#XMLID_1006_)" width="19.1" height="196.3"/>
	</g>
</g>
<g id="XMLID_29970_">
	<g id="XMLID_29975_">
		<defs>
			<path id="SVGID_89_" d="M1373.6,220v1c0,3.9,2.6,7.2,6.3,8.2l5,1.3c2.9,0.8,5.9,1.2,8.9,1.2l1.6-15.4l-14.2-2.7
				c-0.4-0.1-0.8-0.1-1.2-0.1C1376.6,213.5,1373.6,216.3,1373.6,220"/>
		</defs>
		<clipPath id="SVGID_114_">
			<use xlink:href="#SVGID_89_"  overflow="visible"/>
		</clipPath>
		
			<linearGradient id="XMLID_1008_" gradientUnits="userSpaceOnUse" x1="2688.5308" y1="-150.7036" x2="2689.4976" y2="-150.7036" gradientTransform="matrix(14.9609 0 0 -14.9609 -38851.5313 -2032.0957)">
			<stop  offset="0" style="stop-color:#E1E0DF"/>
			<stop  offset="1" style="stop-color:#666666"/>
		</linearGradient>
		
			<rect id="XMLID_29976_" x="1373.6" y="213.5" clip-path="url(#SVGID_114_)" fill="url(#XMLID_1008_)" width="21.9" height="18.2"/>
	</g>
	<g id="XMLID_29973_">
		<defs>
			<path id="SVGID_88_" d="M1373.6,40.2v1c0,3.9,2.6,7.2,6.3,8.2l5,1.3c2.9,0.8,5.9,1.2,8.9,1.2l1.6-15.4l-14.2-2.7
				c-0.4-0.1-0.8-0.1-1.2-0.1C1376.6,33.7,1373.6,36.5,1373.6,40.2"/>
		</defs>
		<clipPath id="SVGID_115_">
			<use xlink:href="#SVGID_88_"  overflow="visible"/>
		</clipPath>
		
			<linearGradient id="XMLID_1009_" gradientUnits="userSpaceOnUse" x1="2688.5308" y1="-138.6877" x2="2689.4976" y2="-138.6877" gradientTransform="matrix(14.9609 0 0 -14.9609 -38851.5313 -2032.0957)">
			<stop  offset="0" style="stop-color:#E1E0DF"/>
			<stop  offset="1" style="stop-color:#666666"/>
		</linearGradient>
		<rect id="XMLID_29974_" x="1373.6" y="33.7" clip-path="url(#SVGID_115_)" fill="url(#XMLID_1009_)" width="21.9" height="18.2"/>
	</g>
	<g id="XMLID_29971_">
		<defs>
			<path id="SVGID_87_" d="M1391.4,35.3c-5.3,0-9.5,4.3-9.5,9.5v177.2c0,5.3,4.3,9.5,9.5,9.5c5.3,0,9.5-4.3,9.5-9.5V44.9
				C1401,39.6,1396.7,35.3,1391.4,35.3L1391.4,35.3z"/>
		</defs>
		<clipPath id="SVGID_116_">
			<use xlink:href="#SVGID_87_"  overflow="visible"/>
		</clipPath>
		
			<linearGradient id="XMLID_1010_" gradientUnits="userSpaceOnUse" x1="3038.1719" y1="-83.809" x2="3039.1387" y2="-83.809" gradientTransform="matrix(-19.7471 0 0 19.7471 61396.0742 1788.4812)">
			<stop  offset="0" style="stop-color:#CCCDCD"/>
			<stop  offset="0.4731" style="stop-color:#E1E0DF"/>
			<stop  offset="1" style="stop-color:#666666"/>
		</linearGradient>
		
			<rect id="XMLID_29972_" x="1381.9" y="35.3" clip-path="url(#SVGID_116_)" fill="url(#XMLID_1010_)" width="19.1" height="196.3"/>
	</g>
</g>
<path id="XMLID_29978_" fill="#070707" d="M115.2,3.3l8,32c3,11.9,13.3,20.5,25.6,21.2c64.3,3.8,275.1,14.6,573.8,14.6
	c293.6,0,476.4-10.5,534.8-14.4c12.1-0.8,22.4-9.4,25.3-21.2l8.1-32.2"/>
<path id="XMLID_29977_" fill="#343633" d="M114.2,0l8,32c3,11.9,13.3,20.5,25.6,21.2c64.3,3.8,275.1,14.6,573.8,14.6
	c293.6,0,476.4-10.5,534.8-14.4c12.1-0.8,22.4-9.4,25.3-21.2l8.1-32.2"/>
<path id="XMLID_29983_" fill="#070707" d="M1289.9,245.7l-8-32c-3-11.9-13.3-20.5-25.6-21.2c-64.3-3.8-275.1-14.6-573.8-14.6
	c-293.6,0-476.4,10.5-534.8,14.4c-12.1,0.8-22.4,9.4-25.3,21.2l-8.1,32.2"/>
<path id="XMLID_29969_" fill="#343633" d="M1290.9,249l-8-32c-3-11.9-13.3-20.5-25.6-21.2c-64.3-3.8-275.1-14.6-573.8-14.6
	c-293.6,0-476.4,10.5-534.8,14.4c-12.1,0.8-22.4,9.4-25.3,21.2l-8.1,32.2"/>
<path id="XMLID_29979_" fill="#1C1C1C" d="M641.1,148.7h-7.9c-2.3,0-4.1-1.8-4.1-4.1v-43.8c0-2.3,1.8-4.1,4.1-4.1h7.9
	c2.3,0,4.1,1.8,4.1,4.1v43.8C645.2,146.9,643.4,148.7,641.1,148.7z"/>
<path id="XMLID_29982_" fill="#343633" d="M641.1,150.7h-7.9c-2.3,0-4.1-1.8-4.1-4.1v-43.8c0-2.3,1.8-4.1,4.1-4.1h7.9
	c2.3,0,4.1,1.8,4.1,4.1v43.8C645.2,148.9,643.4,150.7,641.1,150.7z"/>
<path id="XMLID_30055_" fill="#1C1C1C" d="M330,148.7h-0.5c-1.3,0-2.3-1-2.3-2.3V99c0-1.3,1-2.3,2.3-2.3h0.5c1.3,0,2.3,1,2.3,2.3
	v47.3C332.4,147.7,331.3,148.7,330,148.7z"/>
<path id="XMLID_30054_" fill="#343633" d="M330,150.7h-0.5c-1.3,0-2.3-1-2.3-2.3V101c0-1.3,1-2.3,2.3-2.3h0.5c1.3,0,2.3,1,2.3,2.3
	v47.3C332.4,149.7,331.3,150.7,330,150.7z"/>
<path id="XMLID_30057_" fill="#1C1C1C" d="M338.9,148.7h-0.5c-1.3,0-2.3-1-2.3-2.3V99c0-1.3,1-2.3,2.3-2.3h0.5c1.3,0,2.3,1,2.3,2.3
	v47.3C341.2,147.7,340.1,148.7,338.9,148.7z"/>
<path id="XMLID_30056_" fill="#343633" d="M338.9,150.7h-0.5c-1.3,0-2.3-1-2.3-2.3V101c0-1.3,1-2.3,2.3-2.3h0.5c1.3,0,2.3,1,2.3,2.3
	v47.3C341.2,149.7,340.1,150.7,338.9,150.7z"/>
<path id="XMLID_30059_" fill="#1C1C1C" d="M347.7,148.7h-0.5c-1.3,0-2.3-1-2.3-2.3V99c0-1.3,1-2.3,2.3-2.3h0.5c1.3,0,2.3,1,2.3,2.3
	v47.3C350,147.7,349,148.7,347.7,148.7z"/>
<path id="XMLID_30058_" fill="#343633" d="M347.7,150.7h-0.5c-1.3,0-2.3-1-2.3-2.3V101c0-1.3,1-2.3,2.3-2.3h0.5c1.3,0,2.3,1,2.3,2.3
	v47.3C350,149.7,349,150.7,347.7,150.7z"/>
<path id="XMLID_30062_" fill="#1C1C1C" d="M356.5,148.7H356c-1.3,0-2.3-1-2.3-2.3V99c0-1.3,1-2.3,2.3-2.3h0.5c1.3,0,2.3,1,2.3,2.3
	v47.3C358.9,147.7,357.8,148.7,356.5,148.7z"/>
<path id="XMLID_30060_" fill="#343633" d="M356.5,150.7H356c-1.3,0-2.3-1-2.3-2.3V101c0-1.3,1-2.3,2.3-2.3h0.5c1.3,0,2.3,1,2.3,2.3
	v47.3C358.9,149.7,357.8,150.7,356.5,150.7z"/>
<path id="XMLID_29986_" fill="#1C1C1C" d="M664.3,149.7h-7.9c-2.3,0-4.1-1.8-4.1-4.1V99.8c0-2.3,1.8-4.1,4.1-4.1h7.9
	c2.3,0,4.1,1.8,4.1,4.1v45.8C668.4,147.9,666.6,149.7,664.3,149.7z"/>
<path id="XMLID_29985_" fill="#343633" d="M664.3,151.7h-7.9c-2.3,0-4.1-1.8-4.1-4.1v-45.8c0-2.3,1.8-4.1,4.1-4.1h7.9
	c2.3,0,4.1,1.8,4.1,4.1v45.8C668.4,149.9,666.6,151.7,664.3,151.7z"/>
<path id="XMLID_29989_" fill="#1C1C1C" d="M687.5,150.7h-7.9c-2.3,0-4.1-1.8-4.1-4.1V98.8c0-2.3,1.8-4.1,4.1-4.1h7.9
	c2.3,0,4.1,1.8,4.1,4.1v47.8C691.6,148.9,689.7,150.7,687.5,150.7z"/>
<path id="XMLID_29987_" fill="#343633" d="M687.5,152.7h-7.9c-2.3,0-4.1-1.8-4.1-4.1v-47.8c0-2.3,1.8-4.1,4.1-4.1h7.9
	c2.3,0,4.1,1.8,4.1,4.1v47.8C691.6,150.9,689.7,152.7,687.5,152.7z"/>
<path id="XMLID_29993_" fill="#1C1C1C" d="M710.6,151.7h-7.9c-2.3,0-4.1-1.8-4.1-4.1V97.8c0-2.3,1.8-4.1,4.1-4.1h7.9
	c2.3,0,4.1,1.8,4.1,4.1v49.8C714.7,149.9,712.9,151.7,710.6,151.7z"/>
<path id="XMLID_29991_" fill="#343633" d="M710.6,153.7h-7.9c-2.3,0-4.1-1.8-4.1-4.1V99.8c0-2.3,1.8-4.1,4.1-4.1h7.9
	c2.3,0,4.1,1.8,4.1,4.1v49.8C714.7,151.9,712.9,153.7,710.6,153.7z"/>
<path id="XMLID_30005_" fill="#1C1C1C" d="M733.8,152.7H726c-2.3,0-4.1-1.8-4.1-4.1V96.8c0-2.3,1.8-4.1,4.1-4.1h7.9
	c2.3,0,4.1,1.8,4.1,4.1v51.8C737.9,150.9,736.1,152.7,733.8,152.7z"/>
<path id="XMLID_30004_" fill="#343633" d="M733.8,154.7H726c-2.3,0-4.1-1.8-4.1-4.1V98.8c0-2.3,1.8-4.1,4.1-4.1h7.9
	c2.3,0,4.1,1.8,4.1,4.1v51.8C737.9,152.9,736.1,154.7,733.8,154.7z"/>
<path id="XMLID_30008_" fill="#1C1C1C" d="M757,153.7h-7.9c-2.3,0-4.1-1.8-4.1-4.1V95.8c0-2.3,1.8-4.1,4.1-4.1h7.9
	c2.3,0,4.1,1.8,4.1,4.1v53.8C761.1,151.9,759.3,153.7,757,153.7z"/>
<path id="XMLID_30006_" fill="#343633" d="M757,155.7h-7.9c-2.3,0-4.1-1.8-4.1-4.1V97.8c0-2.3,1.8-4.1,4.1-4.1h7.9
	c2.3,0,4.1,1.8,4.1,4.1v53.8C761.1,153.9,759.3,155.7,757,155.7z"/>
<path id="XMLID_30011_" fill="#1C1C1C" d="M780.2,154.7h-7.9c-2.3,0-4.1-1.8-4.1-4.1V94.8c0-2.3,1.8-4.1,4.1-4.1h7.9
	c2.3,0,4.1,1.8,4.1,4.1v55.8C784.3,152.9,782.4,154.7,780.2,154.7z"/>
<path id="XMLID_30009_" fill="#343633" d="M780.2,156.7h-7.9c-2.3,0-4.1-1.8-4.1-4.1V96.8c0-2.3,1.8-4.1,4.1-4.1h7.9
	c2.3,0,4.1,1.8,4.1,4.1v55.8C784.3,154.9,782.4,156.7,780.2,156.7z"/>
<path id="XMLID_30013_" fill="#1C1C1C" d="M803.4,155.7h-7.9c-2.3,0-4.1-1.8-4.1-4.1V93.8c0-2.3,1.8-4.1,4.1-4.1h7.9
	c2.3,0,4.1,1.8,4.1,4.1v57.8C807.5,153.9,805.6,155.7,803.4,155.7z"/>
<path id="XMLID_30012_" fill="#343633" d="M803.4,157.7h-7.9c-2.3,0-4.1-1.8-4.1-4.1V95.8c0-2.3,1.8-4.1,4.1-4.1h7.9
	c2.3,0,4.1,1.8,4.1,4.1v57.8C807.5,155.9,805.6,157.7,803.4,157.7z"/>
<path id="XMLID_30015_" fill="#1C1C1C" d="M826.5,157.7h-7.9c-2.3,0-4.1-1.8-4.1-4.1V91.8c0-2.3,1.8-4.1,4.1-4.1h7.9
	c2.3,0,4.1,1.8,4.1,4.1v61.8C830.6,155.9,828.8,157.7,826.5,157.7z"/>
<path id="XMLID_30014_" fill="#343633" d="M826.5,159.7h-7.9c-2.3,0-4.1-1.8-4.1-4.1V93.8c0-2.3,1.8-4.1,4.1-4.1h7.9
	c2.3,0,4.1,1.8,4.1,4.1v61.8C830.6,157.9,828.8,159.7,826.5,159.7z"/>
<path id="XMLID_30023_" fill="#1C1C1C" d="M849.7,158.7h-7.9c-2.3,0-4.1-1.8-4.1-4.1V90.8c0-2.3,1.8-4.1,4.1-4.1h7.9
	c2.3,0,4.1,1.8,4.1,4.1v63.8C853.8,156.9,852,158.7,849.7,158.7z"/>
<path id="XMLID_30016_" fill="#343633" d="M849.7,160.7h-7.9c-2.3,0-4.1-1.8-4.1-4.1V92.8c0-2.3,1.8-4.1,4.1-4.1h7.9
	c2.3,0,4.1,1.8,4.1,4.1v63.8C853.8,158.9,852,160.7,849.7,160.7z"/>
<path id="XMLID_30025_" fill="#1C1C1C" d="M872.9,159.7H865c-2.3,0-4.1-1.8-4.1-4.1V89.8c0-2.3,1.8-4.1,4.1-4.1h7.9
	c2.3,0,4.1,1.8,4.1,4.1v65.8C877,157.9,875.2,159.7,872.9,159.7z"/>
<path id="XMLID_30024_" fill="#343633" d="M872.9,161.7H865c-2.3,0-4.1-1.8-4.1-4.1V91.8c0-2.3,1.8-4.1,4.1-4.1h7.9
	c2.3,0,4.1,1.8,4.1,4.1v65.8C877,159.9,875.2,161.7,872.9,161.7z"/>
<path id="XMLID_30027_" fill="#1C1C1C" d="M896.1,160.7h-7.9c-2.3,0-4.1-1.8-4.1-4.1V88.8c0-2.3,1.8-4.1,4.1-4.1h7.9
	c2.3,0,4.1,1.8,4.1,4.1v67.8C900.2,158.9,898.3,160.7,896.1,160.7z"/>
<path id="XMLID_30026_" fill="#343633" d="M896.1,162.7h-7.9c-2.3,0-4.1-1.8-4.1-4.1V90.8c0-2.3,1.8-4.1,4.1-4.1h7.9
	c2.3,0,4.1,1.8,4.1,4.1v67.8C900.2,160.9,898.3,162.7,896.1,162.7z"/>
<path id="XMLID_30029_" fill="#1C1C1C" d="M919.2,161.7h-7.9c-2.3,0-4.1-1.8-4.1-4.1V87.8c0-2.3,1.8-4.1,4.1-4.1h7.9
	c2.3,0,4.1,1.8,4.1,4.1v69.8C923.3,159.9,921.5,161.7,919.2,161.7z"/>
<path id="XMLID_30028_" fill="#343633" d="M919.2,163.7h-7.9c-2.3,0-4.1-1.8-4.1-4.1V89.8c0-2.3,1.8-4.1,4.1-4.1h7.9
	c2.3,0,4.1,1.8,4.1,4.1v69.8C923.3,161.9,921.5,163.7,919.2,163.7z"/>
<path id="XMLID_30031_" fill="#1C1C1C" d="M942.4,162.7h-7.9c-2.3,0-4.1-1.8-4.1-4.1V86.8c0-2.3,1.8-4.1,4.1-4.1h7.9
	c2.3,0,4.1,1.8,4.1,4.1v71.8C946.5,160.9,944.7,162.7,942.4,162.7z"/>
<path id="XMLID_30030_" fill="#343633" d="M942.4,164.7h-7.9c-2.3,0-4.1-1.8-4.1-4.1V88.8c0-2.3,1.8-4.1,4.1-4.1h7.9
	c2.3,0,4.1,1.8,4.1,4.1v71.8C946.5,162.9,944.7,164.7,942.4,164.7z"/>
<path id="XMLID_30033_" fill="#1C1C1C" d="M965.6,168.7h-7.9c-2.3,0-4.1-1.8-4.1-4.1V80.8c0-2.3,1.8-4.1,4.1-4.1h7.9
	c2.3,0,4.1,1.8,4.1,4.1v83.8C969.7,166.9,967.9,168.7,965.6,168.7z"/>
<path id="XMLID_30032_" fill="#343633" d="M965.6,170.7h-7.9c-2.3,0-4.1-1.8-4.1-4.1V82.8c0-2.3,1.8-4.1,4.1-4.1h7.9
	c2.3,0,4.1,1.8,4.1,4.1v83.8C969.7,168.9,967.9,170.7,965.6,170.7z"/>
<path id="XMLID_30035_" fill="#1C1C1C" d="M988.8,169.7h-7.9c-2.3,0-4.1-1.8-4.1-4.1V79.8c0-2.3,1.8-4.1,4.1-4.1h7.9
	c2.3,0,4.1,1.8,4.1,4.1v85.8C992.9,167.9,991,169.7,988.8,169.7z"/>
<path id="XMLID_30034_" fill="#343633" d="M988.8,171.7h-7.9c-2.3,0-4.1-1.8-4.1-4.1V81.8c0-2.3,1.8-4.1,4.1-4.1h7.9
	c2.3,0,4.1,1.8,4.1,4.1v85.8C992.9,169.9,991,171.7,988.8,171.7z"/>
<path id="XMLID_30037_" fill="#1C1C1C" d="M1012,169.7h-7.9c-2.3,0-4.1-1.8-4.1-4.1V79.8c0-2.3,1.8-4.1,4.1-4.1h7.9
	c2.3,0,4.1,1.8,4.1,4.1v85.8C1016.1,167.9,1014.2,169.7,1012,169.7z"/>
<path id="XMLID_30036_" fill="#343633" d="M1012,171.7h-7.9c-2.3,0-4.1-1.8-4.1-4.1V81.8c0-2.3,1.8-4.1,4.1-4.1h7.9
	c2.3,0,4.1,1.8,4.1,4.1v85.8C1016.1,169.9,1014.2,171.7,1012,171.7z"/>
<path id="XMLID_30039_" fill="#1C1C1C" d="M1035.1,169.7h-7.9c-2.3,0-4.1-1.8-4.1-4.1V79.8c0-2.3,1.8-4.1,4.1-4.1h7.9
	c2.3,0,4.1,1.8,4.1,4.1v85.8C1039.2,167.9,1037.4,169.7,1035.1,169.7z"/>
<path id="XMLID_30038_" fill="#343633" d="M1035.1,171.7h-7.9c-2.3,0-4.1-1.8-4.1-4.1V81.8c0-2.3,1.8-4.1,4.1-4.1h7.9
	c2.3,0,4.1,1.8,4.1,4.1v85.8C1039.2,169.9,1037.4,171.7,1035.1,171.7z"/>
<path id="XMLID_30041_" fill="#1C1C1C" d="M1058.3,169.7h-7.9c-2.3,0-4.1-1.8-4.1-4.1V79.8c0-2.3,1.8-4.1,4.1-4.1h7.9
	c2.3,0,4.1,1.8,4.1,4.1v85.8C1062.4,167.9,1060.6,169.7,1058.3,169.7z"/>
<path id="XMLID_30040_" fill="#343633" d="M1058.3,171.7h-7.9c-2.3,0-4.1-1.8-4.1-4.1V81.8c0-2.3,1.8-4.1,4.1-4.1h7.9
	c2.3,0,4.1,1.8,4.1,4.1v85.8C1062.4,169.9,1060.6,171.7,1058.3,171.7z"/>
<path id="XMLID_30043_" fill="#1C1C1C" d="M1081.5,169.7h-7.9c-2.3,0-4.1-1.8-4.1-4.1V79.8c0-2.3,1.8-4.1,4.1-4.1h7.9
	c2.3,0,4.1,1.8,4.1,4.1v85.8C1085.6,167.9,1083.8,169.7,1081.5,169.7z"/>
<path id="XMLID_30042_" fill="#343633" d="M1081.5,171.7h-7.9c-2.3,0-4.1-1.8-4.1-4.1V81.8c0-2.3,1.8-4.1,4.1-4.1h7.9
	c2.3,0,4.1,1.8,4.1,4.1v85.8C1085.6,169.9,1083.8,171.7,1081.5,171.7z"/>
<path id="XMLID_30045_" fill="#1C1C1C" d="M1104.7,169.7h-7.9c-2.3,0-4.1-1.8-4.1-4.1V79.8c0-2.3,1.8-4.1,4.1-4.1h7.9
	c2.3,0,4.1,1.8,4.1,4.1v85.8C1108.8,167.9,1106.9,169.7,1104.7,169.7z"/>
<path id="XMLID_30044_" fill="#343633" d="M1104.7,171.7h-7.9c-2.3,0-4.1-1.8-4.1-4.1V81.8c0-2.3,1.8-4.1,4.1-4.1h7.9
	c2.3,0,4.1,1.8,4.1,4.1v85.8C1108.8,169.9,1106.9,171.7,1104.7,171.7z"/>
<path id="XMLID_30047_" fill="#1C1C1C" d="M1127.8,169.7h-7.9c-2.3,0-4.1-1.8-4.1-4.1V79.8c0-2.3,1.8-4.1,4.1-4.1h7.9
	c2.3,0,4.1,1.8,4.1,4.1v85.8C1132,167.9,1130.1,169.7,1127.8,169.7z"/>
<path id="XMLID_30046_" fill="#343633" d="M1127.8,171.7h-7.9c-2.3,0-4.1-1.8-4.1-4.1V81.8c0-2.3,1.8-4.1,4.1-4.1h7.9
	c2.3,0,4.1,1.8,4.1,4.1v85.8C1132,169.9,1130.1,171.7,1127.8,171.7z"/>
<path id="XMLID_30049_" fill="#1C1C1C" d="M1151,169.7h-7.9c-2.3,0-4.1-1.8-4.1-4.1V79.8c0-2.3,1.8-4.1,4.1-4.1h7.9
	c2.3,0,4.1,1.8,4.1,4.1v85.8C1155.1,167.9,1153.3,169.7,1151,169.7z"/>
<path id="XMLID_30048_" fill="#343633" d="M1151,171.7h-7.9c-2.3,0-4.1-1.8-4.1-4.1V81.8c0-2.3,1.8-4.1,4.1-4.1h7.9
	c2.3,0,4.1,1.8,4.1,4.1v85.8C1155.1,169.9,1153.3,171.7,1151,171.7z"/>
<text id="XMLID_29984_" transform="matrix(1 0 0 1 368.5518 142.7563)" fill="#B7B7B7" font-family="'MicrosoftYaHei-Bold'" font-size="60px">CITRIX</text>
<text id="XMLID_30050_" transform="matrix(1 0 0 1 368.5518 142.7563)" fill="none" stroke="#000000" stroke-miterlimit="10" font-family="'MicrosoftYaHei-Bold'" font-size="60px">CITRIX</text>
<rect id="XMLID_30051_" x="131" y="101.4" fill="#1B1B1C" width="190.7" height="47.3"/>
<rect id="XMLID_30052_" x="132" y="103.2" fill="#3B4356" width="189.7" height="45.5"/>
<g id="XMLID_30090_">
	<rect id="XMLID_30092_" x="630.8" y="202.7" fill="#030000" width="43.1" height="35.4"/>
	<linearGradient id="XMLID_1011_" gradientUnits="userSpaceOnUse" x1="631.3206" y1="220.414" x2="673.3294" y2="220.414">
		<stop  offset="0" style="stop-color:#FFFFFF"/>
		<stop  offset="0.1688" style="stop-color:#B1B4B5"/>
		<stop  offset="0.4086" style="stop-color:#E0E0DF"/>
		<stop  offset="0.7581" style="stop-color:#B1B4B5"/>
		<stop  offset="1" style="stop-color:#C2C2C2"/>
	</linearGradient>
	<rect id="XMLID_30091_" x="631.3" y="203.4" fill="url(#XMLID_1011_)" width="42" height="34.1"/>
</g>
<g id="XMLID_30093_">
	<rect id="XMLID_30095_" x="706.5" y="202.7" fill="#030000" width="43.1" height="35.4"/>
	<linearGradient id="XMLID_1099_" gradientUnits="userSpaceOnUse" x1="707.0132" y1="220.414" x2="749.022" y2="220.414">
		<stop  offset="0" style="stop-color:#FFFFFF"/>
		<stop  offset="0.1688" style="stop-color:#B1B4B5"/>
		<stop  offset="0.4086" style="stop-color:#E0E0DF"/>
		<stop  offset="0.7581" style="stop-color:#B1B4B5"/>
		<stop  offset="1" style="stop-color:#C2C2C2"/>
	</linearGradient>
	<rect id="XMLID_30094_" x="707" y="203.4" fill="url(#XMLID_1099_)" width="42" height="34.1"/>
</g>
<g id="XMLID_30108_">
	<rect id="XMLID_30110_" x="782.2" y="202.7" fill="#030000" width="43.1" height="35.4"/>
	<linearGradient id="XMLID_1101_" gradientUnits="userSpaceOnUse" x1="782.7059" y1="220.414" x2="824.7147" y2="220.414">
		<stop  offset="0" style="stop-color:#FFFFFF"/>
		<stop  offset="0.1688" style="stop-color:#B1B4B5"/>
		<stop  offset="0.4086" style="stop-color:#E0E0DF"/>
		<stop  offset="0.7581" style="stop-color:#B1B4B5"/>
		<stop  offset="1" style="stop-color:#C2C2C2"/>
	</linearGradient>
	<rect id="XMLID_30109_" x="782.7" y="203.4" fill="url(#XMLID_1101_)" width="42" height="34.1"/>
</g>
<g id="XMLID_30123_">
	<rect id="XMLID_30125_" x="857.9" y="202.7" fill="#030000" width="43.1" height="35.4"/>
	<linearGradient id="XMLID_1102_" gradientUnits="userSpaceOnUse" x1="858.3986" y1="220.414" x2="900.4073" y2="220.414">
		<stop  offset="0" style="stop-color:#FFFFFF"/>
		<stop  offset="0.1688" style="stop-color:#B1B4B5"/>
		<stop  offset="0.4086" style="stop-color:#E0E0DF"/>
		<stop  offset="0.7581" style="stop-color:#B1B4B5"/>
		<stop  offset="1" style="stop-color:#C2C2C2"/>
	</linearGradient>
	<rect id="XMLID_30124_" x="858.4" y="203.4" fill="url(#XMLID_1102_)" width="42" height="34.1"/>
</g>
</svg>
