<?xml version="1.0" encoding="utf-8"?>
<!-- Generator: Adobe Illustrator 16.0.0, SVG Export Plug-In . SVG Version: 6.00 Build 0)  -->
<!DOCTYPE svg PUBLIC "-//W3C//DTD SVG 1.1//EN" "http://www.w3.org/Graphics/SVG/1.1/DTD/svg11.dtd">
<svg version="1.1" id="图层_1" xmlns="http://www.w3.org/2000/svg" xmlns:xlink="http://www.w3.org/1999/xlink" x="0px" y="0px"
	 width="1275.59px" height="252.28px" viewBox="0 0 1275.59 252.28" enable-background="new 0 0 1275.59 252.28"
	 xml:space="preserve">
<polygon fill="#3B3C3D" points="0.001,-0.002 0.001,126.14 0.001,252.283 1275.589,252.283 1275.589,126.14 1275.589,-0.002 "/>
<rect x="26.763" y="86.286" fill="#050505" width="1222.065" height="155.992"/>
<g>
	<rect x="28.32" y="87.078" fill="#3B3C3D" width="302.704" height="74.137"/>
	<rect x="263.322" y="91.507" fill="#111111" width="57.611" height="62.817"/>
	<path fill="#9794A9" d="M263.322,105.422h10.985c0,0,6.347,16.103,0,34.787h-10.985V105.422z"/>
	<path d="M89.756,101.646c0,0.806-0.438,1.457-0.977,1.457H36.051c-0.539,0-0.977-0.651-0.977-1.457v-1.458
		c0-0.805,0.438-1.458,0.977-1.458h52.729c0.539,0,0.977,0.653,0.977,1.458V101.646z"/>
	<path d="M89.756,114.136c0,0.805-0.438,1.458-0.977,1.458H36.051c-0.539,0-0.977-0.653-0.977-1.458v-1.458
		c0-0.806,0.438-1.458,0.977-1.458h52.729c0.539,0,0.977,0.652,0.977,1.458V114.136z"/>
	<path d="M89.756,126.625c0,0.806-0.438,1.458-0.977,1.458H36.051c-0.539,0-0.977-0.652-0.977-1.458v-1.457
		c0-0.806,0.438-1.458,0.977-1.458h52.729c0.539,0,0.977,0.652,0.977,1.458V126.625z"/>
	<path d="M89.756,139.115c0,0.807-0.438,1.459-0.977,1.459H36.051c-0.539,0-0.977-0.652-0.977-1.459v-1.457
		c0-0.805,0.438-1.457,0.977-1.457h52.729c0.539,0,0.977,0.652,0.977,1.457V139.115z"/>
	<path d="M89.756,151.607c0,0.805-0.438,1.457-0.977,1.457H36.051c-0.539,0-0.977-0.652-0.977-1.457v-1.459
		c0-0.805,0.438-1.457,0.977-1.457h52.729c0.539,0,0.977,0.652,0.977,1.457V151.607z"/>
	<path d="M150.541,101.646c0,0.806-0.438,1.457-0.977,1.457H96.836c-0.54,0-0.977-0.651-0.977-1.457v-1.458
		c0-0.805,0.437-1.458,0.977-1.458h52.729c0.539,0,0.977,0.653,0.977,1.458V101.646z"/>
	<path d="M150.541,114.136c0,0.805-0.438,1.458-0.977,1.458H96.836c-0.54,0-0.977-0.653-0.977-1.458v-1.458
		c0-0.806,0.437-1.458,0.977-1.458h52.729c0.539,0,0.977,0.652,0.977,1.458V114.136z"/>
	<path d="M150.541,126.625c0,0.806-0.438,1.458-0.977,1.458H96.836c-0.54,0-0.977-0.652-0.977-1.458v-1.457
		c0-0.806,0.437-1.458,0.977-1.458h52.729c0.539,0,0.977,0.652,0.977,1.458V126.625z"/>
	<path d="M150.541,139.115c0,0.807-0.438,1.459-0.977,1.459H96.836c-0.54,0-0.977-0.652-0.977-1.459v-1.457
		c0-0.805,0.437-1.457,0.977-1.457h52.729c0.539,0,0.977,0.652,0.977,1.457V139.115z"/>
	<path d="M150.541,151.607c0,0.805-0.438,1.457-0.977,1.457H96.836c-0.54,0-0.977-0.652-0.977-1.457v-1.459
		c0-0.805,0.437-1.457,0.977-1.457h52.729c0.539,0,0.977,0.652,0.977,1.457V151.607z"/>
	<path d="M211.326,101.646c0,0.806-0.438,1.457-0.977,1.457H157.62c-0.539,0-0.977-0.651-0.977-1.457v-1.458
		c0-0.805,0.438-1.458,0.977-1.458h52.729c0.539,0,0.977,0.653,0.977,1.458V101.646z"/>
	<path d="M211.326,114.136c0,0.805-0.438,1.458-0.977,1.458H157.62c-0.539,0-0.977-0.653-0.977-1.458v-1.458
		c0-0.806,0.438-1.458,0.977-1.458h52.729c0.539,0,0.977,0.652,0.977,1.458V114.136z"/>
	<path d="M211.326,126.625c0,0.806-0.438,1.458-0.977,1.458H157.62c-0.539,0-0.977-0.652-0.977-1.458v-1.457
		c0-0.806,0.438-1.458,0.977-1.458h52.729c0.539,0,0.977,0.652,0.977,1.458V126.625z"/>
	<path d="M211.326,139.115c0,0.807-0.438,1.459-0.977,1.459H157.62c-0.539,0-0.977-0.652-0.977-1.459v-1.457
		c0-0.805,0.438-1.457,0.977-1.457h52.729c0.539,0,0.977,0.652,0.977,1.457V139.115z"/>
	<path d="M211.326,151.607c0,0.805-0.438,1.457-0.977,1.457H157.62c-0.539,0-0.977-0.652-0.977-1.457v-1.459
		c0-0.805,0.438-1.457,0.977-1.457h52.729c0.539,0,0.977,0.652,0.977,1.457V151.607z"/>
</g>
<g>
	<rect x="333.628" y="87.078" fill="#3B3C3D" width="302.703" height="74.137"/>
	<rect x="568.63" y="91.507" fill="#111111" width="57.611" height="62.817"/>
	<path fill="#9794A9" d="M568.63,105.422h10.985c0,0,6.347,16.103,0,34.787H568.63V105.422z"/>
	<path d="M395.063,101.646c0,0.806-0.437,1.457-0.977,1.457h-52.729c-0.54,0-0.977-0.651-0.977-1.457v-1.458
		c0-0.805,0.437-1.458,0.977-1.458h52.729c0.54,0,0.977,0.653,0.977,1.458V101.646z"/>
	<path d="M395.063,114.136c0,0.805-0.437,1.458-0.977,1.458h-52.729c-0.54,0-0.977-0.653-0.977-1.458v-1.458
		c0-0.806,0.437-1.458,0.977-1.458h52.729c0.54,0,0.977,0.652,0.977,1.458V114.136z"/>
	<path d="M395.063,126.625c0,0.806-0.437,1.458-0.977,1.458h-52.729c-0.54,0-0.977-0.652-0.977-1.458v-1.457
		c0-0.806,0.437-1.458,0.977-1.458h52.729c0.54,0,0.977,0.652,0.977,1.458V126.625z"/>
	<path d="M395.063,139.115c0,0.807-0.437,1.459-0.977,1.459h-52.729c-0.54,0-0.977-0.652-0.977-1.459v-1.457
		c0-0.805,0.437-1.457,0.977-1.457h52.729c0.54,0,0.977,0.652,0.977,1.457V139.115z"/>
	<path d="M395.063,151.607c0,0.805-0.437,1.457-0.977,1.457h-52.729c-0.54,0-0.977-0.652-0.977-1.457v-1.459
		c0-0.805,0.437-1.457,0.977-1.457h52.729c0.54,0,0.977,0.652,0.977,1.457V151.607z"/>
	<path d="M455.849,101.646c0,0.806-0.438,1.457-0.977,1.457h-52.729c-0.539,0-0.976-0.651-0.976-1.457v-1.458
		c0-0.805,0.437-1.458,0.976-1.458h52.729c0.539,0,0.977,0.653,0.977,1.458V101.646z"/>
	<path d="M455.849,114.136c0,0.805-0.438,1.458-0.977,1.458h-52.729c-0.539,0-0.976-0.653-0.976-1.458v-1.458
		c0-0.806,0.437-1.458,0.976-1.458h52.729c0.539,0,0.977,0.652,0.977,1.458V114.136z"/>
	<path d="M455.849,126.625c0,0.806-0.438,1.458-0.977,1.458h-52.729c-0.539,0-0.976-0.652-0.976-1.458v-1.457
		c0-0.806,0.437-1.458,0.976-1.458h52.729c0.539,0,0.977,0.652,0.977,1.458V126.625z"/>
	<path d="M455.849,139.115c0,0.807-0.438,1.459-0.977,1.459h-52.729c-0.539,0-0.976-0.652-0.976-1.459v-1.457
		c0-0.805,0.437-1.457,0.976-1.457h52.729c0.539,0,0.977,0.652,0.977,1.457V139.115z"/>
	<path d="M455.849,151.607c0,0.805-0.438,1.457-0.977,1.457h-52.729c-0.539,0-0.976-0.652-0.976-1.457v-1.459
		c0-0.805,0.437-1.457,0.976-1.457h52.729c0.539,0,0.977,0.652,0.977,1.457V151.607z"/>
	<path d="M516.633,101.646c0,0.806-0.438,1.457-0.977,1.457h-52.729c-0.539,0-0.977-0.651-0.977-1.457v-1.458
		c0-0.805,0.438-1.458,0.977-1.458h52.729c0.539,0,0.977,0.653,0.977,1.458V101.646z"/>
	<path d="M516.633,114.136c0,0.805-0.438,1.458-0.977,1.458h-52.729c-0.539,0-0.977-0.653-0.977-1.458v-1.458
		c0-0.806,0.438-1.458,0.977-1.458h52.729c0.539,0,0.977,0.652,0.977,1.458V114.136z"/>
	<path d="M516.633,126.625c0,0.806-0.438,1.458-0.977,1.458h-52.729c-0.539,0-0.977-0.652-0.977-1.458v-1.457
		c0-0.806,0.438-1.458,0.977-1.458h52.729c0.539,0,0.977,0.652,0.977,1.458V126.625z"/>
	<path d="M516.633,139.115c0,0.807-0.438,1.459-0.977,1.459h-52.729c-0.539,0-0.977-0.652-0.977-1.459v-1.457
		c0-0.805,0.438-1.457,0.977-1.457h52.729c0.539,0,0.977,0.652,0.977,1.457V139.115z"/>
	<path d="M516.633,151.607c0,0.805-0.438,1.457-0.977,1.457h-52.729c-0.539,0-0.977-0.652-0.977-1.457v-1.459
		c0-0.805,0.438-1.457,0.977-1.457h52.729c0.539,0,0.977,0.652,0.977,1.457V151.607z"/>
</g>
<g>
	<rect x="638.936" y="87.078" fill="#3B3C3D" width="302.704" height="74.137"/>
	<rect x="873.938" y="91.507" fill="#111111" width="57.61" height="62.817"/>
	<path fill="#9794A9" d="M873.938,105.422h10.985c0,0,6.347,16.103,0,34.787h-10.985V105.422z"/>
	<path d="M700.371,101.646c0,0.806-0.438,1.457-0.977,1.457h-52.729c-0.54,0-0.977-0.651-0.977-1.457v-1.458
		c0-0.805,0.437-1.458,0.977-1.458h52.729c0.539,0,0.977,0.653,0.977,1.458V101.646z"/>
	<path d="M700.371,114.136c0,0.805-0.438,1.458-0.977,1.458h-52.729c-0.54,0-0.977-0.653-0.977-1.458v-1.458
		c0-0.806,0.437-1.458,0.977-1.458h52.729c0.539,0,0.977,0.652,0.977,1.458V114.136z"/>
	<path d="M700.371,126.625c0,0.806-0.438,1.458-0.977,1.458h-52.729c-0.54,0-0.977-0.652-0.977-1.458v-1.457
		c0-0.806,0.437-1.458,0.977-1.458h52.729c0.539,0,0.977,0.652,0.977,1.458V126.625z"/>
	<path d="M700.371,139.115c0,0.807-0.438,1.459-0.977,1.459h-52.729c-0.54,0-0.977-0.652-0.977-1.459v-1.457
		c0-0.805,0.437-1.457,0.977-1.457h52.729c0.539,0,0.977,0.652,0.977,1.457V139.115z"/>
	<path d="M700.371,151.607c0,0.805-0.438,1.457-0.977,1.457h-52.729c-0.54,0-0.977-0.652-0.977-1.457v-1.459
		c0-0.805,0.437-1.457,0.977-1.457h52.729c0.539,0,0.977,0.652,0.977,1.457V151.607z"/>
	<path d="M761.155,101.646c0,0.806-0.437,1.457-0.977,1.457H707.45c-0.539,0-0.977-0.651-0.977-1.457v-1.458
		c0-0.805,0.438-1.458,0.977-1.458h52.729c0.54,0,0.977,0.653,0.977,1.458V101.646z"/>
	<path d="M761.155,114.136c0,0.805-0.437,1.458-0.977,1.458H707.45c-0.539,0-0.977-0.653-0.977-1.458v-1.458
		c0-0.806,0.438-1.458,0.977-1.458h52.729c0.54,0,0.977,0.652,0.977,1.458V114.136z"/>
	<path d="M761.155,126.625c0,0.806-0.437,1.458-0.977,1.458H707.45c-0.539,0-0.977-0.652-0.977-1.458v-1.457
		c0-0.806,0.438-1.458,0.977-1.458h52.729c0.54,0,0.977,0.652,0.977,1.458V126.625z"/>
	<path d="M761.155,139.115c0,0.807-0.437,1.459-0.977,1.459H707.45c-0.539,0-0.977-0.652-0.977-1.459v-1.457
		c0-0.805,0.438-1.457,0.977-1.457h52.729c0.54,0,0.977,0.652,0.977,1.457V139.115z"/>
	<path d="M761.155,151.607c0,0.805-0.437,1.457-0.977,1.457H707.45c-0.539,0-0.977-0.652-0.977-1.457v-1.459
		c0-0.805,0.438-1.457,0.977-1.457h52.729c0.54,0,0.977,0.652,0.977,1.457V151.607z"/>
	<path d="M821.94,101.646c0,0.806-0.438,1.457-0.977,1.457h-52.729c-0.539,0-0.976-0.651-0.976-1.457v-1.458
		c0-0.805,0.437-1.458,0.976-1.458h52.729c0.539,0,0.977,0.653,0.977,1.458V101.646z"/>
	<path d="M821.94,114.136c0,0.805-0.438,1.458-0.977,1.458h-52.729c-0.539,0-0.976-0.653-0.976-1.458v-1.458
		c0-0.806,0.437-1.458,0.976-1.458h52.729c0.539,0,0.977,0.652,0.977,1.458V114.136z"/>
	<path d="M821.94,126.625c0,0.806-0.438,1.458-0.977,1.458h-52.729c-0.539,0-0.976-0.652-0.976-1.458v-1.457
		c0-0.806,0.437-1.458,0.976-1.458h52.729c0.539,0,0.977,0.652,0.977,1.458V126.625z"/>
	<path d="M821.94,139.115c0,0.807-0.438,1.459-0.977,1.459h-52.729c-0.539,0-0.976-0.652-0.976-1.459v-1.457
		c0-0.805,0.437-1.457,0.976-1.457h52.729c0.539,0,0.977,0.652,0.977,1.457V139.115z"/>
	<path d="M821.94,151.607c0,0.805-0.438,1.457-0.977,1.457h-52.729c-0.539,0-0.976-0.652-0.976-1.457v-1.459
		c0-0.805,0.437-1.457,0.976-1.457h52.729c0.539,0,0.977,0.652,0.977,1.457V151.607z"/>
</g>
<g>
	<rect x="944.243" y="87.078" fill="#3B3C3D" width="302.703" height="74.137"/>
	<rect x="1179.245" y="91.507" fill="#111111" width="57.611" height="62.817"/>
	<path fill="#9794A9" d="M1179.245,105.422h10.984c0,0,6.348,16.103,0,34.787h-10.984V105.422z"/>
	<path d="M1005.679,101.646c0,0.806-0.438,1.457-0.977,1.457h-52.729c-0.539,0-0.976-0.651-0.976-1.457v-1.458
		c0-0.805,0.437-1.458,0.976-1.458h52.729c0.539,0,0.977,0.653,0.977,1.458V101.646z"/>
	<path d="M1005.679,114.136c0,0.805-0.438,1.458-0.977,1.458h-52.729c-0.539,0-0.976-0.653-0.976-1.458v-1.458
		c0-0.806,0.437-1.458,0.976-1.458h52.729c0.539,0,0.977,0.652,0.977,1.458V114.136z"/>
	<path d="M1005.679,126.625c0,0.806-0.438,1.458-0.977,1.458h-52.729c-0.539,0-0.976-0.652-0.976-1.458v-1.457
		c0-0.806,0.437-1.458,0.976-1.458h52.729c0.539,0,0.977,0.652,0.977,1.458V126.625z"/>
	<path d="M1005.679,139.115c0,0.807-0.438,1.459-0.977,1.459h-52.729c-0.539,0-0.976-0.652-0.976-1.459v-1.457
		c0-0.805,0.437-1.457,0.976-1.457h52.729c0.539,0,0.977,0.652,0.977,1.457V139.115z"/>
	<path d="M1005.679,151.607c0,0.805-0.438,1.457-0.977,1.457h-52.729c-0.539,0-0.976-0.652-0.976-1.457v-1.459
		c0-0.805,0.437-1.457,0.976-1.457h52.729c0.539,0,0.977,0.652,0.977,1.457V151.607z"/>
	<path d="M1066.464,101.646c0,0.806-0.438,1.457-0.977,1.457h-52.729c-0.539,0-0.977-0.651-0.977-1.457v-1.458
		c0-0.805,0.438-1.458,0.977-1.458h52.729c0.539,0,0.977,0.653,0.977,1.458V101.646z"/>
	<path d="M1066.464,114.136c0,0.805-0.438,1.458-0.977,1.458h-52.729c-0.539,0-0.977-0.653-0.977-1.458v-1.458
		c0-0.806,0.438-1.458,0.977-1.458h52.729c0.539,0,0.977,0.652,0.977,1.458V114.136z"/>
	<path d="M1066.464,126.625c0,0.806-0.438,1.458-0.977,1.458h-52.729c-0.539,0-0.977-0.652-0.977-1.458v-1.457
		c0-0.806,0.438-1.458,0.977-1.458h52.729c0.539,0,0.977,0.652,0.977,1.458V126.625z"/>
	<path d="M1066.464,139.115c0,0.807-0.438,1.459-0.977,1.459h-52.729c-0.539,0-0.977-0.652-0.977-1.459v-1.457
		c0-0.805,0.438-1.457,0.977-1.457h52.729c0.539,0,0.977,0.652,0.977,1.457V139.115z"/>
	<path d="M1066.464,151.607c0,0.805-0.438,1.457-0.977,1.457h-52.729c-0.539,0-0.977-0.652-0.977-1.457v-1.459
		c0-0.805,0.438-1.457,0.977-1.457h52.729c0.539,0,0.977,0.652,0.977,1.457V151.607z"/>
	<path d="M1127.247,101.646c0,0.806-0.437,1.457-0.976,1.457h-52.729c-0.539,0-0.976-0.651-0.976-1.457v-1.458
		c0-0.805,0.437-1.458,0.976-1.458h52.729c0.539,0,0.976,0.653,0.976,1.458V101.646z"/>
	<path d="M1127.247,114.136c0,0.805-0.437,1.458-0.976,1.458h-52.729c-0.539,0-0.976-0.653-0.976-1.458v-1.458
		c0-0.806,0.437-1.458,0.976-1.458h52.729c0.539,0,0.976,0.652,0.976,1.458V114.136z"/>
	<path d="M1127.247,126.625c0,0.806-0.437,1.458-0.976,1.458h-52.729c-0.539,0-0.976-0.652-0.976-1.458v-1.457
		c0-0.806,0.437-1.458,0.976-1.458h52.729c0.539,0,0.976,0.652,0.976,1.458V126.625z"/>
	<path d="M1127.247,139.115c0,0.807-0.437,1.459-0.976,1.459h-52.729c-0.539,0-0.976-0.652-0.976-1.459v-1.457
		c0-0.805,0.437-1.457,0.976-1.457h52.729c0.539,0,0.976,0.652,0.976,1.457V139.115z"/>
	<path d="M1127.247,151.607c0,0.805-0.437,1.457-0.976,1.457h-52.729c-0.539,0-0.976-0.652-0.976-1.457v-1.459
		c0-0.805,0.437-1.457,0.976-1.457h52.729c0.539,0,0.976,0.652,0.976,1.457V151.607z"/>
</g>
<g>
	<rect x="28.32" y="164.281" fill="#3B3C3D" width="302.704" height="74.137"/>
	<rect x="263.322" y="168.711" fill="#111111" width="57.611" height="62.816"/>
	<path fill="#9794A9" d="M263.322,182.627h10.985c0,0,6.347,16.102,0,34.787h-10.985V182.627z"/>
	<path d="M89.756,178.85c0,0.807-0.438,1.457-0.977,1.457H36.051c-0.539,0-0.977-0.65-0.977-1.457v-1.457
		c0-0.805,0.438-1.459,0.977-1.459h52.729c0.539,0,0.977,0.654,0.977,1.459V178.85z"/>
	<path d="M89.756,191.34c0,0.805-0.438,1.459-0.977,1.459H36.051c-0.539,0-0.977-0.654-0.977-1.459v-1.457
		c0-0.807,0.438-1.459,0.977-1.459h52.729c0.539,0,0.977,0.652,0.977,1.459V191.34z"/>
	<path d="M89.756,203.83c0,0.805-0.438,1.459-0.977,1.459H36.051c-0.539,0-0.977-0.654-0.977-1.459v-1.457
		c0-0.807,0.438-1.459,0.977-1.459h52.729c0.539,0,0.977,0.652,0.977,1.459V203.83z"/>
	<path d="M89.756,216.32c0,0.805-0.438,1.457-0.977,1.457H36.051c-0.539,0-0.977-0.652-0.977-1.457v-1.457
		c0-0.807,0.438-1.459,0.977-1.459h52.729c0.539,0,0.977,0.652,0.977,1.459V216.32z"/>
	<path d="M89.756,228.811c0,0.805-0.438,1.457-0.977,1.457H36.051c-0.539,0-0.977-0.652-0.977-1.457v-1.457
		c0-0.807,0.438-1.457,0.977-1.457h52.729c0.539,0,0.977,0.65,0.977,1.457V228.811z"/>
	<path d="M150.541,178.85c0,0.807-0.438,1.457-0.977,1.457H96.836c-0.54,0-0.977-0.65-0.977-1.457v-1.457
		c0-0.805,0.437-1.459,0.977-1.459h52.729c0.539,0,0.977,0.654,0.977,1.459V178.85z"/>
	<path d="M150.541,191.34c0,0.805-0.438,1.459-0.977,1.459H96.836c-0.54,0-0.977-0.654-0.977-1.459v-1.457
		c0-0.807,0.437-1.459,0.977-1.459h52.729c0.539,0,0.977,0.652,0.977,1.459V191.34z"/>
	<path d="M150.541,203.83c0,0.805-0.438,1.459-0.977,1.459H96.836c-0.54,0-0.977-0.654-0.977-1.459v-1.457
		c0-0.807,0.437-1.459,0.977-1.459h52.729c0.539,0,0.977,0.652,0.977,1.459V203.83z"/>
	<path d="M150.541,216.32c0,0.805-0.438,1.457-0.977,1.457H96.836c-0.54,0-0.977-0.652-0.977-1.457v-1.457
		c0-0.807,0.437-1.459,0.977-1.459h52.729c0.539,0,0.977,0.652,0.977,1.459V216.32z"/>
	<path d="M150.541,228.811c0,0.805-0.438,1.457-0.977,1.457H96.836c-0.54,0-0.977-0.652-0.977-1.457v-1.457
		c0-0.807,0.437-1.457,0.977-1.457h52.729c0.539,0,0.977,0.65,0.977,1.457V228.811z"/>
	<path d="M211.326,178.85c0,0.807-0.438,1.457-0.977,1.457H157.62c-0.539,0-0.977-0.65-0.977-1.457v-1.457
		c0-0.805,0.438-1.459,0.977-1.459h52.729c0.539,0,0.977,0.654,0.977,1.459V178.85z"/>
	<path d="M211.326,191.34c0,0.805-0.438,1.459-0.977,1.459H157.62c-0.539,0-0.977-0.654-0.977-1.459v-1.457
		c0-0.807,0.438-1.459,0.977-1.459h52.729c0.539,0,0.977,0.652,0.977,1.459V191.34z"/>
	<path d="M211.326,203.83c0,0.805-0.438,1.459-0.977,1.459H157.62c-0.539,0-0.977-0.654-0.977-1.459v-1.457
		c0-0.807,0.438-1.459,0.977-1.459h52.729c0.539,0,0.977,0.652,0.977,1.459V203.83z"/>
	<path d="M211.326,216.32c0,0.805-0.438,1.457-0.977,1.457H157.62c-0.539,0-0.977-0.652-0.977-1.457v-1.457
		c0-0.807,0.438-1.459,0.977-1.459h52.729c0.539,0,0.977,0.652,0.977,1.459V216.32z"/>
	<path d="M211.326,228.811c0,0.805-0.438,1.457-0.977,1.457H157.62c-0.539,0-0.977-0.652-0.977-1.457v-1.457
		c0-0.807,0.438-1.457,0.977-1.457h52.729c0.539,0,0.977,0.65,0.977,1.457V228.811z"/>
</g>
<g>
	<rect x="333.628" y="164.281" fill="#3B3C3D" width="302.703" height="74.137"/>
	<rect x="568.63" y="168.711" fill="#111111" width="57.611" height="62.816"/>
	<path fill="#9794A9" d="M568.63,182.627h10.985c0,0,6.347,16.102,0,34.787H568.63V182.627z"/>
	<path d="M395.063,178.85c0,0.807-0.437,1.457-0.977,1.457h-52.729c-0.54,0-0.977-0.65-0.977-1.457v-1.457
		c0-0.805,0.437-1.459,0.977-1.459h52.729c0.54,0,0.977,0.654,0.977,1.459V178.85z"/>
	<path d="M395.063,191.34c0,0.805-0.437,1.459-0.977,1.459h-52.729c-0.54,0-0.977-0.654-0.977-1.459v-1.457
		c0-0.807,0.437-1.459,0.977-1.459h52.729c0.54,0,0.977,0.652,0.977,1.459V191.34z"/>
	<path d="M395.063,203.83c0,0.805-0.437,1.459-0.977,1.459h-52.729c-0.54,0-0.977-0.654-0.977-1.459v-1.457
		c0-0.807,0.437-1.459,0.977-1.459h52.729c0.54,0,0.977,0.652,0.977,1.459V203.83z"/>
	<path d="M395.063,216.32c0,0.805-0.437,1.457-0.977,1.457h-52.729c-0.54,0-0.977-0.652-0.977-1.457v-1.457
		c0-0.807,0.437-1.459,0.977-1.459h52.729c0.54,0,0.977,0.652,0.977,1.459V216.32z"/>
	<path d="M395.063,228.811c0,0.805-0.437,1.457-0.977,1.457h-52.729c-0.54,0-0.977-0.652-0.977-1.457v-1.457
		c0-0.807,0.437-1.457,0.977-1.457h52.729c0.54,0,0.977,0.65,0.977,1.457V228.811z"/>
	<path d="M455.849,178.85c0,0.807-0.438,1.457-0.977,1.457h-52.729c-0.539,0-0.976-0.65-0.976-1.457v-1.457
		c0-0.805,0.437-1.459,0.976-1.459h52.729c0.539,0,0.977,0.654,0.977,1.459V178.85z"/>
	<path d="M455.849,191.34c0,0.805-0.438,1.459-0.977,1.459h-52.729c-0.539,0-0.976-0.654-0.976-1.459v-1.457
		c0-0.807,0.437-1.459,0.976-1.459h52.729c0.539,0,0.977,0.652,0.977,1.459V191.34z"/>
	<path d="M455.849,203.83c0,0.805-0.438,1.459-0.977,1.459h-52.729c-0.539,0-0.976-0.654-0.976-1.459v-1.457
		c0-0.807,0.437-1.459,0.976-1.459h52.729c0.539,0,0.977,0.652,0.977,1.459V203.83z"/>
	<path d="M455.849,216.32c0,0.805-0.438,1.457-0.977,1.457h-52.729c-0.539,0-0.976-0.652-0.976-1.457v-1.457
		c0-0.807,0.437-1.459,0.976-1.459h52.729c0.539,0,0.977,0.652,0.977,1.459V216.32z"/>
	<path d="M455.849,228.811c0,0.805-0.438,1.457-0.977,1.457h-52.729c-0.539,0-0.976-0.652-0.976-1.457v-1.457
		c0-0.807,0.437-1.457,0.976-1.457h52.729c0.539,0,0.977,0.65,0.977,1.457V228.811z"/>
	<path d="M516.633,178.85c0,0.807-0.438,1.457-0.977,1.457h-52.729c-0.539,0-0.977-0.65-0.977-1.457v-1.457
		c0-0.805,0.438-1.459,0.977-1.459h52.729c0.539,0,0.977,0.654,0.977,1.459V178.85z"/>
	<path d="M516.633,191.34c0,0.805-0.438,1.459-0.977,1.459h-52.729c-0.539,0-0.977-0.654-0.977-1.459v-1.457
		c0-0.807,0.438-1.459,0.977-1.459h52.729c0.539,0,0.977,0.652,0.977,1.459V191.34z"/>
	<path d="M516.633,203.83c0,0.805-0.438,1.459-0.977,1.459h-52.729c-0.539,0-0.977-0.654-0.977-1.459v-1.457
		c0-0.807,0.438-1.459,0.977-1.459h52.729c0.539,0,0.977,0.652,0.977,1.459V203.83z"/>
	<path d="M516.633,216.32c0,0.805-0.438,1.457-0.977,1.457h-52.729c-0.539,0-0.977-0.652-0.977-1.457v-1.457
		c0-0.807,0.438-1.459,0.977-1.459h52.729c0.539,0,0.977,0.652,0.977,1.459V216.32z"/>
	<path d="M516.633,228.811c0,0.805-0.438,1.457-0.977,1.457h-52.729c-0.539,0-0.977-0.652-0.977-1.457v-1.457
		c0-0.807,0.438-1.457,0.977-1.457h52.729c0.539,0,0.977,0.65,0.977,1.457V228.811z"/>
</g>
<g>
	<rect x="638.936" y="164.281" fill="#3B3C3D" width="302.704" height="74.137"/>
	<rect x="873.938" y="168.711" fill="#111111" width="57.61" height="62.816"/>
	<path fill="#9794A9" d="M873.938,182.627h10.985c0,0,6.347,16.102,0,34.787h-10.985V182.627z"/>
	<path d="M700.371,178.85c0,0.807-0.438,1.457-0.977,1.457h-52.729c-0.54,0-0.977-0.65-0.977-1.457v-1.457
		c0-0.805,0.437-1.459,0.977-1.459h52.729c0.539,0,0.977,0.654,0.977,1.459V178.85z"/>
	<path d="M700.371,191.34c0,0.805-0.438,1.459-0.977,1.459h-52.729c-0.54,0-0.977-0.654-0.977-1.459v-1.457
		c0-0.807,0.437-1.459,0.977-1.459h52.729c0.539,0,0.977,0.652,0.977,1.459V191.34z"/>
	<path d="M700.371,203.83c0,0.805-0.438,1.459-0.977,1.459h-52.729c-0.54,0-0.977-0.654-0.977-1.459v-1.457
		c0-0.807,0.437-1.459,0.977-1.459h52.729c0.539,0,0.977,0.652,0.977,1.459V203.83z"/>
	<path d="M700.371,216.32c0,0.805-0.438,1.457-0.977,1.457h-52.729c-0.54,0-0.977-0.652-0.977-1.457v-1.457
		c0-0.807,0.437-1.459,0.977-1.459h52.729c0.539,0,0.977,0.652,0.977,1.459V216.32z"/>
	<path d="M700.371,228.811c0,0.805-0.438,1.457-0.977,1.457h-52.729c-0.54,0-0.977-0.652-0.977-1.457v-1.457
		c0-0.807,0.437-1.457,0.977-1.457h52.729c0.539,0,0.977,0.65,0.977,1.457V228.811z"/>
	<path d="M761.155,178.85c0,0.807-0.437,1.457-0.977,1.457H707.45c-0.539,0-0.977-0.65-0.977-1.457v-1.457
		c0-0.805,0.438-1.459,0.977-1.459h52.729c0.54,0,0.977,0.654,0.977,1.459V178.85z"/>
	<path d="M761.155,191.34c0,0.805-0.437,1.459-0.977,1.459H707.45c-0.539,0-0.977-0.654-0.977-1.459v-1.457
		c0-0.807,0.438-1.459,0.977-1.459h52.729c0.54,0,0.977,0.652,0.977,1.459V191.34z"/>
	<path d="M761.155,203.83c0,0.805-0.437,1.459-0.977,1.459H707.45c-0.539,0-0.977-0.654-0.977-1.459v-1.457
		c0-0.807,0.438-1.459,0.977-1.459h52.729c0.54,0,0.977,0.652,0.977,1.459V203.83z"/>
	<path d="M761.155,216.32c0,0.805-0.437,1.457-0.977,1.457H707.45c-0.539,0-0.977-0.652-0.977-1.457v-1.457
		c0-0.807,0.438-1.459,0.977-1.459h52.729c0.54,0,0.977,0.652,0.977,1.459V216.32z"/>
	<path d="M761.155,228.811c0,0.805-0.437,1.457-0.977,1.457H707.45c-0.539,0-0.977-0.652-0.977-1.457v-1.457
		c0-0.807,0.438-1.457,0.977-1.457h52.729c0.54,0,0.977,0.65,0.977,1.457V228.811z"/>
	<path d="M821.94,178.85c0,0.807-0.438,1.457-0.977,1.457h-52.729c-0.539,0-0.976-0.65-0.976-1.457v-1.457
		c0-0.805,0.437-1.459,0.976-1.459h52.729c0.539,0,0.977,0.654,0.977,1.459V178.85z"/>
	<path d="M821.94,191.34c0,0.805-0.438,1.459-0.977,1.459h-52.729c-0.539,0-0.976-0.654-0.976-1.459v-1.457
		c0-0.807,0.437-1.459,0.976-1.459h52.729c0.539,0,0.977,0.652,0.977,1.459V191.34z"/>
	<path d="M821.94,203.83c0,0.805-0.438,1.459-0.977,1.459h-52.729c-0.539,0-0.976-0.654-0.976-1.459v-1.457
		c0-0.807,0.437-1.459,0.976-1.459h52.729c0.539,0,0.977,0.652,0.977,1.459V203.83z"/>
	<path d="M821.94,216.32c0,0.805-0.438,1.457-0.977,1.457h-52.729c-0.539,0-0.976-0.652-0.976-1.457v-1.457
		c0-0.807,0.437-1.459,0.976-1.459h52.729c0.539,0,0.977,0.652,0.977,1.459V216.32z"/>
	<path d="M821.94,228.811c0,0.805-0.438,1.457-0.977,1.457h-52.729c-0.539,0-0.976-0.652-0.976-1.457v-1.457
		c0-0.807,0.437-1.457,0.976-1.457h52.729c0.539,0,0.977,0.65,0.977,1.457V228.811z"/>
</g>
<g>
	<rect x="944.243" y="164.281" fill="#3B3C3D" width="302.703" height="74.137"/>
	<rect x="1179.245" y="168.711" fill="#111111" width="57.611" height="62.816"/>
	<path fill="#9794A9" d="M1179.245,182.627h10.984c0,0,6.348,16.102,0,34.787h-10.984V182.627z"/>
	<path d="M1005.679,178.85c0,0.807-0.438,1.457-0.977,1.457h-52.729c-0.539,0-0.976-0.65-0.976-1.457v-1.457
		c0-0.805,0.437-1.459,0.976-1.459h52.729c0.539,0,0.977,0.654,0.977,1.459V178.85z"/>
	<path d="M1005.679,191.34c0,0.805-0.438,1.459-0.977,1.459h-52.729c-0.539,0-0.976-0.654-0.976-1.459v-1.457
		c0-0.807,0.437-1.459,0.976-1.459h52.729c0.539,0,0.977,0.652,0.977,1.459V191.34z"/>
	<path d="M1005.679,203.83c0,0.805-0.438,1.459-0.977,1.459h-52.729c-0.539,0-0.976-0.654-0.976-1.459v-1.457
		c0-0.807,0.437-1.459,0.976-1.459h52.729c0.539,0,0.977,0.652,0.977,1.459V203.83z"/>
	<path d="M1005.679,216.32c0,0.805-0.438,1.457-0.977,1.457h-52.729c-0.539,0-0.976-0.652-0.976-1.457v-1.457
		c0-0.807,0.437-1.459,0.976-1.459h52.729c0.539,0,0.977,0.652,0.977,1.459V216.32z"/>
	<path d="M1005.679,228.811c0,0.805-0.438,1.457-0.977,1.457h-52.729c-0.539,0-0.976-0.652-0.976-1.457v-1.457
		c0-0.807,0.437-1.457,0.976-1.457h52.729c0.539,0,0.977,0.65,0.977,1.457V228.811z"/>
	<path d="M1066.464,178.85c0,0.807-0.438,1.457-0.977,1.457h-52.729c-0.539,0-0.977-0.65-0.977-1.457v-1.457
		c0-0.805,0.438-1.459,0.977-1.459h52.729c0.539,0,0.977,0.654,0.977,1.459V178.85z"/>
	<path d="M1066.464,191.34c0,0.805-0.438,1.459-0.977,1.459h-52.729c-0.539,0-0.977-0.654-0.977-1.459v-1.457
		c0-0.807,0.438-1.459,0.977-1.459h52.729c0.539,0,0.977,0.652,0.977,1.459V191.34z"/>
	<path d="M1066.464,203.83c0,0.805-0.438,1.459-0.977,1.459h-52.729c-0.539,0-0.977-0.654-0.977-1.459v-1.457
		c0-0.807,0.438-1.459,0.977-1.459h52.729c0.539,0,0.977,0.652,0.977,1.459V203.83z"/>
	<path d="M1066.464,216.32c0,0.805-0.438,1.457-0.977,1.457h-52.729c-0.539,0-0.977-0.652-0.977-1.457v-1.457
		c0-0.807,0.438-1.459,0.977-1.459h52.729c0.539,0,0.977,0.652,0.977,1.459V216.32z"/>
	<path d="M1066.464,228.811c0,0.805-0.438,1.457-0.977,1.457h-52.729c-0.539,0-0.977-0.652-0.977-1.457v-1.457
		c0-0.807,0.438-1.457,0.977-1.457h52.729c0.539,0,0.977,0.65,0.977,1.457V228.811z"/>
	<path d="M1127.247,178.85c0,0.807-0.437,1.457-0.976,1.457h-52.729c-0.539,0-0.976-0.65-0.976-1.457v-1.457
		c0-0.805,0.437-1.459,0.976-1.459h52.729c0.539,0,0.976,0.654,0.976,1.459V178.85z"/>
	<path d="M1127.247,191.34c0,0.805-0.437,1.459-0.976,1.459h-52.729c-0.539,0-0.976-0.654-0.976-1.459v-1.457
		c0-0.807,0.437-1.459,0.976-1.459h52.729c0.539,0,0.976,0.652,0.976,1.459V191.34z"/>
	<path d="M1127.247,203.83c0,0.805-0.437,1.459-0.976,1.459h-52.729c-0.539,0-0.976-0.654-0.976-1.459v-1.457
		c0-0.807,0.437-1.459,0.976-1.459h52.729c0.539,0,0.976,0.652,0.976,1.459V203.83z"/>
	<path d="M1127.247,216.32c0,0.805-0.437,1.457-0.976,1.457h-52.729c-0.539,0-0.976-0.652-0.976-1.457v-1.457
		c0-0.807,0.437-1.459,0.976-1.459h52.729c0.539,0,0.976,0.652,0.976,1.459V216.32z"/>
	<path d="M1127.247,228.811c0,0.805-0.437,1.457-0.976,1.457h-52.729c-0.539,0-0.976-0.652-0.976-1.457v-1.457
		c0-0.807,0.437-1.457,0.976-1.457h52.729c0.539,0,0.976,0.65,0.976,1.457V228.811z"/>
</g>
<path fill="none" stroke="#000000" stroke-miterlimit="10" d="M418.112,75.214c0,1.104-0.896,2-2,2h-364c-1.104,0-2-0.896-2-2v-36
	c0-1.104,0.896-2,2-2h364c1.104,0,2,0.896,2,2V75.214z"/>
<path fill="#4B4B4C" stroke="#050505" stroke-miterlimit="10" d="M798.112,76.603c0,2.209-1.792,4-4,4H441.445c-2.209,0-4-1.791-4-4
	V43.936c0-2.209,1.791-4,4-4h352.667c2.208,0,4,1.791,4,4V76.603z"/>
<path fill="#444444" stroke="#EDEDED" stroke-miterlimit="10" d="M477.112,68.686c0,1.104-0.896,2-2,2h-22c-1.104,0-2-0.896-2-2v-20
	c0-1.104,0.896-2,2-2h22c1.104,0,2,0.896,2,2V68.686z"/>
<path fill="none" stroke="#E8E8E8" stroke-width="2" stroke-miterlimit="10" d="M467.669,53.341
	c2.326,1.265,3.906,3.729,3.906,6.563c0,4.123-3.342,7.462-7.463,7.462s-7.463-3.339-7.463-7.462c0-2.968,1.73-5.53,4.237-6.731"/>
<rect x="463.146" y="50.005" fill="#E8E8E8" width="2" height="7.103"/>
<path fill="#444444" stroke="#EDEDED" stroke-miterlimit="10" d="M512.093,68.686c0,1.104-0.896,2-2,2h-22c-1.105,0-2-0.896-2-2v-20
	c0-1.104,0.895-2,2-2h22c1.104,0,2,0.896,2,2V68.686z"/>
<path fill="none" stroke="#E8E8E8" stroke-width="2" stroke-miterlimit="10" d="M502.649,53.341
	c2.326,1.265,3.906,3.729,3.906,6.563c0,4.123-3.342,7.462-7.463,7.462s-7.463-3.339-7.463-7.462c0-2.968,1.729-5.53,4.237-6.731"/>
<path fill="#444444" stroke="#EDEDED" stroke-miterlimit="10" d="M650.795,68.686c0,1.104-0.896,2-2,2h-22c-1.104,0-2-0.896-2-2v-20
	c0-1.104,0.896-2,2-2h22c1.104,0,2,0.896,2,2V68.686z"/>
<path fill="#E8E8E8" d="M637.328,49.832l-5.159,10.917l-2.568,2.329l4.565,5.037l2.572-2.332l11.532-3.882L637.328,49.832z
	 M646.736,61.835l-10.02,2.998l-3.604-3.976l4.145-9.48L646.736,61.835z M634.426,66.776l-3.468-3.825l1.415-1.282l3.468,3.824
	L634.426,66.776z"/>
<g>
	<path fill="#FFFFFF" d="M715.147,49.965l-1.205,2.009h0.896v9.001v0.8v0.723l-2.044-2.041c-0.187-0.187-0.291-0.442-0.291-0.702
		V57.95c0.373-0.163,0.635-0.539,0.635-0.973c0-0.586-0.472-1.061-1.06-1.061c-0.586,0-1.061,0.475-1.061,1.061
		c0,0.521,0.373,0.952,0.865,1.042v1.735c0,0.422,0.175,0.836,0.475,1.139l2.195,2.195c0.183,0.184,0.285,0.428,0.285,0.685v0.271
		v0.714c-0.801,0.146-1.406,0.844-1.406,1.683c0,0.949,0.766,1.718,1.715,1.718s1.715-0.769,1.715-1.718
		c0-0.839-0.608-1.537-1.406-1.683v-0.714v-0.271v-1.998v-0.8c0-0.26,0.103-0.501,0.282-0.682l2.105-2.105
		c0.303-0.303,0.469-0.705,0.469-1.133v-1.52h0.807v-2.013h-2.012v2.013h0.585v1.52c0,0.262-0.102,0.51-0.289,0.696l-1.947,1.948
		v-7.726h0.895L715.147,49.965z"/>
</g>
<g>
	<path fill="#FFFFFF" d="M774.868,49.965l-1.205,2.009h0.896v9.001v0.8v0.723l-2.044-2.041c-0.187-0.187-0.291-0.442-0.291-0.702
		V57.95c0.373-0.163,0.635-0.539,0.635-0.973c0-0.586-0.472-1.061-1.06-1.061c-0.586,0-1.061,0.475-1.061,1.061
		c0,0.521,0.373,0.952,0.865,1.042v1.735c0,0.422,0.174,0.836,0.475,1.139l2.195,2.195c0.184,0.184,0.285,0.428,0.285,0.685v0.271
		v0.714c-0.801,0.146-1.406,0.844-1.406,1.683c0,0.949,0.766,1.718,1.715,1.718s1.715-0.769,1.715-1.718
		c0-0.839-0.608-1.537-1.406-1.683v-0.714v-0.271v-1.998v-0.8c0-0.26,0.102-0.501,0.282-0.682l2.105-2.105
		c0.303-0.303,0.469-0.705,0.469-1.133v-1.52h0.807v-2.013h-2.012v2.013h0.585v1.52c0,0.262-0.102,0.51-0.288,0.696l-1.948,1.948
		v-7.726h0.894L774.868,49.965z"/>
</g>
<ellipse fill="#E1F3AC" stroke="#050505" stroke-miterlimit="10" cx="528.778" cy="56.067" rx="6.333" ry="6.459"/>
<ellipse fill="#939393" stroke="#050505" stroke-miterlimit="10" cx="550.778" cy="56.067" rx="4.576" ry="4.667"/>
<ellipse fill="#939393" stroke="#050505" stroke-miterlimit="10" cx="570.957" cy="56.067" rx="4.576" ry="4.667"/>
<ellipse fill="#939393" stroke="#050505" stroke-miterlimit="10" cx="612.112" cy="56.067" rx="4.576" ry="4.667"/>
<ellipse fill="#EBD598" stroke="#050505" stroke-miterlimit="10" cx="593.195" cy="56.067" rx="6.333" ry="6.459"/>
<g>
	<path fill="#F7F7F7" d="M3.423,37.162V17.478c0,0,0.194-1.624,2.272-1.818h10.2c0,0,4.677,1.818,4.547,6.042
		c-0.13,4.223-1.624-2.274-5.132-1.56H8.879c0,0-0.844,0.39-0.844,1.56v15.46C8.035,37.162,5.631,40.021,3.423,37.162z"/>
	<path fill="#F7F7F7" d="M17.649,23.195c0,0-0.293,2.469-2.177,2.437s-4.84-0.163-5.1,2.988c-0.26,3.15,0.683,4.319,2.469,1.331
		s3.021,1.917,6.366-2.663C19.208,27.288,20.507,21.636,17.649,23.195z"/>
	<path fill="#F7F7F7" d="M9.789,32.615c0,0,1.147-0.107,1.753,0.975c0.607,1.082,2.188,2.057,5.501,1.191
		c3.313-0.866,3.941,1.472,3.227,3.421c0,0-0.91,2.014-7.298,0.585C12.972,38.787,6.931,35.496,9.789,32.615z"/>
	<path fill="#F7F7F7" d="M22.564,22.922c0,0,1.646-2.155,4.288,0v11.901c0,0,0.395,1.754,2.1,2.955c0,0,1.023,1.786-2.258,1.056
		c-3.279-0.73-4.352-5.749-4.352-6.643L22.564,22.922z"/>
	<path fill="#F7F7F7" d="M37.332,22.922c0,0-3.118-0.139-4.244,3.022c-1.125,3.162,1.43,7.622-2.425,9.831
		c0,0-3.098-1.862-1.56,0.704s6.995,1.233,7.547-0.812c0.552-2.047-0.324-10.167,1.949-10.102
		C40.873,25.631,41.848,22.553,37.332,22.922z"/>
	<path fill="#F7F7F7" d="M41.273,22.264c0,0-0.606,1.125,1.3,2.426c0,0,1.169,0.563,0.606,3.983c0,0-0.823,10.453,1.342,10.337
		c0,0,2.901,1.443,3.161-4.144c0,0,0.347-7.448-0.216-8.488C47.467,26.378,45.562,19.925,41.273,22.264z"/>
</g>
</svg>
