<?xml version="1.0" encoding="utf-8"?>
<!-- Generator: Adobe Illustrator 21.0.0, SVG Export Plug-In . SVG Version: 6.00 Build 0)  -->
<svg version="1.1" id="图层_1" xmlns="http://www.w3.org/2000/svg" xmlns:xlink="http://www.w3.org/1999/xlink" x="0px" y="0px"
	 width="1275.6px" height="126.1px" viewBox="0 0 1275.6 126.1" enable-background="new 0 0 1275.6 126.1" xml:space="preserve">
<g>
	<linearGradient id="SVGID_338_" gradientUnits="userSpaceOnUse" x1="0" y1="63.0709" x2="1275.5918" y2="63.0709">
		<stop  offset="0" style="stop-color:#FFFFFF"/>
		<stop  offset="1" style="stop-color:#B3B3B3"/>
	</linearGradient>
	<rect x="0" y="0" fill="url(#SVGID_338_)" width="1275.6" height="126.1"/>
	
		<text transform="matrix(1 0 0 1 14.456 18.7554)" fill="#1A1A1A" font-family="'FZLTXIHJW--GB1-0'" font-size="10.4312px" letter-spacing="1">OceanStor SNS2224</text>
	<g>
		<g>
			<path fill="#1A1A1A" d="M14.3,46.8h1.9v-1.6h0.9v4h-0.9v-1.7h-1.9v1.7h-0.9v-4h0.9V46.8z"/>
			<path fill="#1A1A1A" d="M18.7,47.6c0,0.7,0.2,1,0.9,1c0.7,0,0.9-0.3,0.9-1v-2.4h0.9v2.4c0,0.5-0.1,0.9-0.2,1.1
				c-0.3,0.4-0.8,0.5-1.6,0.5c-0.7,0-1.2-0.2-1.6-0.5c-0.2-0.2-0.2-0.6-0.2-1.1v-2.4h0.9V47.6z"/>
			<path fill="#1A1A1A" d="M24.2,45.2l1.8,4h-1l-0.4-0.9h-1.8l-0.4,0.9h-0.9l1.7-4H24.2z M23.1,47.5h1.2L23.8,46L23.1,47.5z"/>
			<path fill="#1A1A1A" d="M26.4,45.2l1,3.1l0.8-3.1h1l0.9,3.1l0.9-3.1h0.9l-1.3,4h-1.1l-0.9-3l-0.8,3h-1.1l-1.4-4H26.4z"/>
			<path fill="#1A1A1A" d="M33.1,46.8h2.4v0.7h-2.4c0,0.7,0.3,1,1,1h1.4v0.7H34c-0.5,0-0.9,0-1.3-0.3c-0.4-0.3-0.6-0.8-0.6-1.6
				c0-1.4,0.6-2.1,1.9-2.1h1.4v0.7H34C33.4,45.9,33.1,46.2,33.1,46.8z"/>
			<path fill="#1A1A1A" d="M36.2,49.2v-4h0.9v4H36.2z"/>
		</g>
		<g>
			<path fill="#1A1A1A" d="M23.7,38.4C23.7,38.4,23.8,38.3,23.7,38.4L23.7,38.4c-2.6-6.1-6.2-10.6-6.2-10.6s-2,1.9-1.8,3.9
				c0.1,1.5,1.1,2.3,1.1,2.3C18.5,35.7,22.7,37.9,23.7,38.4C23.7,38.4,23.7,38.4,23.7,38.4z"/>
			<path fill="#1A1A1A" d="M23.1,39.8C23.1,39.8,23,39.8,23.1,39.8L23.1,39.8l-7,0.2c0.7,1.4,2,2.5,3.3,2.1
				C20.3,41.9,22.4,40.4,23.1,39.8L23.1,39.8C23.1,39.9,23.1,39.8,23.1,39.8z"/>
			<path fill="#1A1A1A" d="M23.2,39.2c0-0.1,0-0.1,0-0.1v0c-3-2.1-8.9-5.4-8.9-5.4c-0.5,1.7,0.2,3.1,0.2,3.1
				c0.7,1.6,2.2,2.1,2.2,2.1c0.7,0.3,1.3,0.3,1.3,0.3C18.1,39.3,22.1,39.2,23.2,39.2C23.2,39.2,23.2,39.2,23.2,39.2z"/>
			<path fill="#1A1A1A" d="M23.7,24.6c-0.3,0-1.1,0.2-1.1,0.2c-1.8,0.5-2.3,2.2-2.3,2.2c-0.3,1.1,0,2.3,0,2.3
				c0.6,2.8,3.6,7.4,4.2,8.4c0,0,0.1,0,0.1,0c0.1,0,0.1-0.1,0.1-0.1v0C25.7,27.4,23.7,24.6,23.7,24.6z"/>
			<path fill="#1A1A1A" d="M25.9,37.8C26,37.8,26,37.7,25.9,37.8L25.9,37.8c0.8-1,3.7-5.6,4.3-8.4c0,0,0.3-1.4,0-2.3
				c0,0-0.5-1.7-2.3-2.2c0,0-0.5-0.1-1.1-0.2C26.9,24.6,24.9,27.4,25.9,37.8L25.9,37.8C25.9,37.8,25.9,37.8,25.9,37.8z"/>
			<path fill="#1A1A1A" d="M27.6,39.8C27.6,39.8,27.5,39.8,27.6,39.8c-0.1,0.1-0.1,0.1-0.1,0.2l0,0c0.7,0.5,2.7,1.9,3.6,2.2
				c0,0,1.8,0.6,3.3-2.1L27.6,39.8L27.6,39.8z"/>
			<path fill="#1A1A1A" d="M36.3,33.7c0,0-5.8,3.3-8.9,5.4v0c0,0-0.1,0,0,0.1c0,0,0,0.1,0.1,0.1l0,0c1.1,0,5.2,0,5.3,0
				c0,0,0.5,0,1.2-0.3c0,0,1.5-0.5,2.2-2.2C36.1,36.7,36.8,35.3,36.3,33.7z"/>
			<path fill="#1A1A1A" d="M26.9,38.4C26.9,38.4,26.9,38.4,26.9,38.4L26.9,38.4c1.1-0.5,5.2-2.7,6.9-4.4c0,0,1.1-0.9,1.1-2.3
				c0.1-2-1.8-3.9-1.8-3.9s-3.6,4.5-6.2,10.5l0,0C26.8,38.2,26.8,38.3,26.9,38.4z"/>
		</g>
	</g>
	<g>
		<path fill="#808080" d="M40.8,119.4L40.8,119.4c0-4.8-3.9-8.7-8.7-8.7c-4.8,0-8.7,3.9-8.7,8.7l0,0l0,0v6.8h17.4L40.8,119.4
			L40.8,119.4z"/>
		<g>
			<g>
				
					<radialGradient id="SVGID_339_" cx="-103.6833" cy="121.5057" r="5.9795" gradientTransform="matrix(1.1054 0 0 1.106 146.696 -15.3968)" gradientUnits="userSpaceOnUse">
					<stop  offset="0.6774" style="stop-color:#2B2B2B"/>
					<stop  offset="0.8441" style="stop-color:#595757"/>
					<stop  offset="1" style="stop-color:#000000"/>
				</radialGradient>
				<path fill="url(#SVGID_339_)" d="M38.7,119c0,3.7-3,6.6-6.6,6.6c-3.7,0-6.6-3-6.6-6.6c0-3.7,3-6.6,6.6-6.6
					C35.7,112.4,38.7,115.3,38.7,119"/>
				<circle fill="none" stroke="#131313" stroke-width="0.75" stroke-miterlimit="10" cx="32.1" cy="119" r="6.6"/>
				<polygon fill="#0A0A0A" points="31.3,122.7 31.3,119.8 28.3,119.8 28.3,118.2 31.3,118.2 31.3,115.2 32.9,115.2 32.9,118.2 
					35.8,118.2 35.8,119.8 32.9,119.8 32.9,122.7 				"/>
				<path fill="#231815" d="M32.8,115.4v2.7v0.3H33h2.7v1.4H33h-0.3v0.3v2.7h-1.4v-2.7v-0.3h-0.3h-2.7v-1.4h2.7h0.3V118v-2.7H32.8z
					 M33,115.1h-1.9v2.9h-2.9v1.9h2.9v2.9H33v-2.9H36V118H33V115.1z"/>
			</g>
			<rect x="31.1" y="115.1" fill="#606060" width="0.3" height="3.2"/>
			<rect x="28.2" y="118" fill="#606060" width="3.2" height="0.3"/>
			<rect x="31.1" y="115.1" fill="#494949" width="1.9" height="0.3"/>
			<rect x="28.2" y="118" fill="#545454" width="0.3" height="1.9"/>
		</g>
	</g>
	<g>
		<text transform="matrix(1 0 0 1 29.4306 64.5293)" font-family="'FZLTXIHJW--GB1-0'" font-size="11.305px">！</text>
		<g>
			<ellipse fill="none" stroke="#1A1A1A" stroke-width="2" stroke-miterlimit="10" cx="32.6" cy="77.3" rx="4.2" ry="4.1"/>
			<path fill="#1A1A1A" stroke="#E6E6E6" stroke-width="2" stroke-miterlimit="10" d="M33,77.4h-0.9c-0.3,0-0.6-0.2-0.6-0.6v-5.7
				c0-0.3,0.3-0.6,0.6-0.6H33c0.3,0,0.6,0.2,0.6,0.6v5.7C33.7,77.2,33.4,77.4,33,77.4z"/>
		</g>
		<g>
			<g>
				
					<radialGradient id="SVGID_340_" cx="-86.7698" cy="68.5599" r="4.5264" gradientTransform="matrix(1.1054 0 0 1.106 146.696 -15.3968)" gradientUnits="userSpaceOnUse">
					<stop  offset="0.6774" style="stop-color:#2B2B2B"/>
					<stop  offset="0.8441" style="stop-color:#595757"/>
					<stop  offset="1" style="stop-color:#000000"/>
				</radialGradient>
				<path fill="url(#SVGID_340_)" d="M55.8,60.4c0,2.8-2.2,5-5,5c-2.8,0-5-2.2-5-5c0-2.8,2.2-5,5-5C53.5,55.4,55.8,57.7,55.8,60.4"
					/>
				<circle fill="none" stroke="#131313" stroke-width="0.75" stroke-miterlimit="10" cx="50.8" cy="60.4" r="5"/>
				<polygon fill="#0A0A0A" points="50.2,63.3 50.2,61 47.9,61 47.9,59.8 50.2,59.8 50.2,57.6 51.4,57.6 51.4,59.8 53.6,59.8 
					53.6,61 51.4,61 51.4,63.3 				"/>
				<path fill="#231815" d="M51.3,57.7v2v0.2h0.2h2v1h-2h-0.2v0.2v2h-1v-2v-0.2h-0.2h-2v-1h2h0.2v-0.2v-2H51.3z M51.5,57.5h-1.4v2.2
					h-2.2v1.4h2.2v2.2h1.4v-2.2h2.2v-1.4h-2.2V57.5z"/>
			</g>
			<rect x="50.1" y="57.5" fill="#606060" width="0.2" height="2.4"/>
			<rect x="47.8" y="59.7" fill="#606060" width="2.4" height="0.2"/>
			<rect x="50.1" y="57.5" fill="#494949" width="1.4" height="0.2"/>
			<rect x="47.8" y="59.7" fill="#545454" width="0.2" height="1.4"/>
		</g>
		<g>
			<g>
				
					<radialGradient id="SVGID_341_" cx="-86.7698" cy="83.8849" r="4.5264" gradientTransform="matrix(1.1054 0 0 1.106 146.696 -15.3968)" gradientUnits="userSpaceOnUse">
					<stop  offset="0.6774" style="stop-color:#2B2B2B"/>
					<stop  offset="0.8441" style="stop-color:#595757"/>
					<stop  offset="1" style="stop-color:#000000"/>
				</radialGradient>
				<path fill="url(#SVGID_341_)" d="M55.8,77.4c0,2.8-2.2,5-5,5c-2.8,0-5-2.2-5-5c0-2.8,2.2-5,5-5C53.5,72.4,55.8,74.6,55.8,77.4"
					/>
				<circle fill="none" stroke="#131313" stroke-width="0.75" stroke-miterlimit="10" cx="50.8" cy="77.4" r="5"/>
				<polygon fill="#0A0A0A" points="50.2,80.2 50.2,78 47.9,78 47.9,76.8 50.2,76.8 50.2,74.5 51.4,74.5 51.4,76.8 53.6,76.8 
					53.6,78 51.4,78 51.4,80.2 				"/>
				<path fill="#231815" d="M51.3,74.6v2v0.2h0.2h2v1h-2h-0.2v0.2v2h-1v-2v-0.2h-0.2h-2v-1h2h0.2v-0.2v-2H51.3z M51.5,74.4h-1.4v2.2
					h-2.2v1.4h2.2v2.2h1.4v-2.2h2.2v-1.4h-2.2V74.4z"/>
			</g>
			<rect x="50.1" y="74.4" fill="#606060" width="0.2" height="2.4"/>
			<rect x="47.8" y="76.7" fill="#606060" width="2.4" height="0.2"/>
			<rect x="50.1" y="74.4" fill="#494949" width="1.4" height="0.2"/>
			<rect x="47.8" y="76.7" fill="#545454" width="0.2" height="1.4"/>
		</g>
	</g>
	<g>
		<rect x="130.7" y="37" fill="#B7B7B7" width="21.2" height="33.6"/>
		<g>
			<g>
				<rect x="132.8" y="38.8" fill="#1A1D20" width="16.9" height="30.1"/>
			</g>
			<g>
				<rect x="132.8" y="59.2" fill="#ABAAAD" width="1.9" height="6.4"/>
			</g>
			<g>
				<rect x="132.8" y="42.1" fill="#ABAAAD" width="1.9" height="6.4"/>
			</g>
			<g>
				<rect x="137.3" y="42.3" fill="#5A5B55" width="2.8" height="23.1"/>
			</g>
			<g>
				<rect x="137.8" y="67.7" fill="#ABAAAD" width="6.8" height="1.2"/>
			</g>
			<g>
				<rect x="137.8" y="38.8" fill="#ABAAAD" width="6.8" height="1.2"/>
			</g>
			<g>
				<rect x="147.6" y="41.8" fill="#ABAAAD" width="2.2" height="24"/>
			</g>
		</g>
	</g>
	<text transform="matrix(1 0 0 1 130.5742 86.9491)" font-family="'FZLTXIHJW--GB1-0'" font-size="12px">IOIO</text>
	<path fill="#666666" d="M156.1,52.7L159,51v1.3h12.8h1.1h1l-2.9-2.9c-0.3-0.3-0.6-0.4-1-0.4h-2.6c-0.2,0.5-0.8,0.9-1.4,0.9
		c-0.8,0-1.5-0.7-1.5-1.5c0-0.8,0.7-1.5,1.5-1.5c0.7,0,1.4,0.5,1.5,1.2h2.5c0.6,0,1.2,0.2,1.6,0.7l3.1,3.1c0.3,0.3,0.6,0.4,1,0.4
		h0.4h1c0.2-1.1,1.2-2,2.4-2c1.4,0,2.4,1.1,2.4,2.4c0,1.4-1.1,2.4-2.4,2.4c-1.2,0-2.2-0.9-2.4-2h-1h-0.4H173h-1.1
		c-0.4,0-0.7,0.1-1,0.4l-3,3c-0.4,0.4-1,0.7-1.6,0.7h-2.2v1.2h-2.9v-2.9h2.9v0.8h2.2c0.4,0,0.7-0.1,1-0.4l2.8-2.8h-11v1.3
		L156.1,52.7z"/>
	<g>
		<g>
			<g>
				
					<radialGradient id="SVGID_342_" cx="355.1672" cy="68.7942" r="6.5064" gradientTransform="matrix(1.1054 0 0 1.106 146.696 -15.3968)" gradientUnits="userSpaceOnUse">
					<stop  offset="0.6774" style="stop-color:#2B2B2B"/>
					<stop  offset="0.8441" style="stop-color:#595757"/>
					<stop  offset="1" style="stop-color:#000000"/>
				</radialGradient>
				<path fill="url(#SVGID_342_)" d="M546.5,60.7c0,4-3.2,7.2-7.2,7.2c-4,0-7.2-3.2-7.2-7.2c0-4,3.2-7.2,7.2-7.2
					C543.3,53.5,546.5,56.7,546.5,60.7"/>
				<circle fill="none" stroke="#131313" stroke-width="0.75" stroke-miterlimit="10" cx="539.3" cy="60.7" r="7.2"/>
				<polygon fill="#0A0A0A" points="538.4,64.8 538.4,61.6 535.2,61.6 535.2,59.8 538.4,59.8 538.4,56.6 540.2,56.6 540.2,59.8 
					543.4,59.8 543.4,61.6 540.2,61.6 540.2,64.8 				"/>
				<path fill="#231815" d="M540,56.8v2.9V60h0.3h2.9v1.5h-2.9H540v0.3v2.9h-1.5v-2.9v-0.3h-0.3h-2.9V60h2.9h0.3v-0.3v-2.9H540z
					 M540.3,56.5h-2.1v3.2h-3.2v2.1h3.2v3.2h2.1v-3.2h3.2v-2.1h-3.2V56.5z"/>
			</g>
			<rect x="538.3" y="56.5" fill="#606060" width="0.3" height="3.5"/>
			<rect x="535.1" y="59.6" fill="#606060" width="3.5" height="0.3"/>
			<rect x="538.3" y="56.5" fill="#494949" width="2.1" height="0.3"/>
			<rect x="535.1" y="59.7" fill="#545454" width="0.3" height="2.1"/>
		</g>
		<g>
			<g>
				
					<radialGradient id="SVGID_343_" cx="355.1672" cy="101.6138" r="6.5064" gradientTransform="matrix(1.1054 0 0 1.106 146.696 -15.3968)" gradientUnits="userSpaceOnUse">
					<stop  offset="0.6774" style="stop-color:#2B2B2B"/>
					<stop  offset="0.8441" style="stop-color:#595757"/>
					<stop  offset="1" style="stop-color:#000000"/>
				</radialGradient>
				<path fill="url(#SVGID_343_)" d="M546.5,97c0,4-3.2,7.2-7.2,7.2c-4,0-7.2-3.2-7.2-7.2c0-4,3.2-7.2,7.2-7.2
					C543.3,89.8,546.5,93,546.5,97"/>
				<circle fill="none" stroke="#131313" stroke-width="0.75" stroke-miterlimit="10" cx="539.3" cy="97" r="7.2"/>
				<polygon fill="#0A0A0A" points="538.4,101.1 538.4,97.9 535.2,97.9 535.2,96.1 538.4,96.1 538.4,92.9 540.2,92.9 540.2,96.1 
					543.4,96.1 543.4,97.9 540.2,97.9 540.2,101.1 				"/>
				<path fill="#231815" d="M540,93.1v2.9v0.3h0.3h2.9v1.5h-2.9H540V98v2.9h-1.5V98v-0.3h-0.3h-2.9v-1.5h2.9h0.3v-0.3v-2.9H540z
					 M540.3,92.8h-2.1v3.2h-3.2V98h3.2v3.2h2.1V98h3.2v-2.1h-3.2V92.8z"/>
			</g>
			<rect x="538.3" y="92.8" fill="#606060" width="0.3" height="3.5"/>
			<rect x="535.1" y="95.9" fill="#606060" width="3.5" height="0.3"/>
			<rect x="538.3" y="92.8" fill="#494949" width="2.1" height="0.3"/>
			<rect x="535.1" y="95.9" fill="#545454" width="0.3" height="2.1"/>
		</g>
	</g>
	<g>
		<g>
			<g>
				
					<radialGradient id="SVGID_344_" cx="682.3558" cy="68.7942" r="6.5066" gradientTransform="matrix(1.1054 0 0 1.106 146.696 -15.3968)" gradientUnits="userSpaceOnUse">
					<stop  offset="0.6774" style="stop-color:#2B2B2B"/>
					<stop  offset="0.8441" style="stop-color:#595757"/>
					<stop  offset="1" style="stop-color:#000000"/>
				</radialGradient>
				<path fill="url(#SVGID_344_)" d="M908.2,60.7c0,4-3.2,7.2-7.2,7.2c-4,0-7.2-3.2-7.2-7.2c0-4,3.2-7.2,7.2-7.2
					C904.9,53.5,908.2,56.7,908.2,60.7"/>
				<circle fill="none" stroke="#131313" stroke-width="0.75" stroke-miterlimit="10" cx="901" cy="60.7" r="7.2"/>
				<polygon fill="#0A0A0A" points="900.1,64.8 900.1,61.6 896.9,61.6 896.9,59.8 900.1,59.8 900.1,56.6 901.9,56.6 901.9,59.8 
					905.1,59.8 905.1,61.6 901.9,61.6 901.9,64.8 				"/>
				<path fill="#231815" d="M901.7,56.8v2.9V60h0.3h2.9v1.5H902h-0.3v0.3v2.9h-1.5v-2.9v-0.3h-0.3H897V60h2.9h0.3v-0.3v-2.9H901.7z
					 M902,56.5h-2.1v3.2h-3.2v2.1h3.2v3.2h2.1v-3.2h3.2v-2.1H902V56.5z"/>
			</g>
			<rect x="899.9" y="56.5" fill="#606060" width="0.3" height="3.5"/>
			<rect x="896.7" y="59.6" fill="#606060" width="3.5" height="0.3"/>
			<rect x="899.9" y="56.5" fill="#494949" width="2.1" height="0.3"/>
			<rect x="896.7" y="59.7" fill="#545454" width="0.3" height="2.1"/>
		</g>
		<g>
			<g>
				
					<radialGradient id="SVGID_345_" cx="682.3558" cy="101.6138" r="6.5066" gradientTransform="matrix(1.1054 0 0 1.106 146.696 -15.3968)" gradientUnits="userSpaceOnUse">
					<stop  offset="0.6774" style="stop-color:#2B2B2B"/>
					<stop  offset="0.8441" style="stop-color:#595757"/>
					<stop  offset="1" style="stop-color:#000000"/>
				</radialGradient>
				<path fill="url(#SVGID_345_)" d="M908.2,97c0,4-3.2,7.2-7.2,7.2c-4,0-7.2-3.2-7.2-7.2c0-4,3.2-7.2,7.2-7.2
					C904.9,89.8,908.2,93,908.2,97"/>
				<circle fill="none" stroke="#131313" stroke-width="0.75" stroke-miterlimit="10" cx="901" cy="97" r="7.2"/>
				<polygon fill="#0A0A0A" points="900.1,101.1 900.1,97.9 896.9,97.9 896.9,96.1 900.1,96.1 900.1,92.9 901.9,92.9 901.9,96.1 
					905.1,96.1 905.1,97.9 901.9,97.9 901.9,101.1 				"/>
				<path fill="#231815" d="M901.7,93.1v2.9v0.3h0.3h2.9v1.5H902h-0.3V98v2.9h-1.5V98v-0.3h-0.3H897v-1.5h2.9h0.3v-0.3v-2.9H901.7z
					 M902,92.8h-2.1v3.2h-3.2V98h3.2v3.2h2.1V98h3.2v-2.1H902V92.8z"/>
			</g>
			<rect x="899.9" y="92.8" fill="#606060" width="0.3" height="3.5"/>
			<rect x="896.7" y="95.9" fill="#606060" width="3.5" height="0.3"/>
			<rect x="899.9" y="92.8" fill="#494949" width="2.1" height="0.3"/>
			<rect x="896.7" y="95.9" fill="#545454" width="0.3" height="2.1"/>
		</g>
		<g>
			<g>
				
					<radialGradient id="SVGID_346_" cx="991.7372" cy="101.6138" r="6.5066" gradientTransform="matrix(1.1054 0 0 1.106 146.696 -15.3968)" gradientUnits="userSpaceOnUse">
					<stop  offset="0.6774" style="stop-color:#2B2B2B"/>
					<stop  offset="0.8441" style="stop-color:#595757"/>
					<stop  offset="1" style="stop-color:#000000"/>
				</radialGradient>
				<path fill="url(#SVGID_346_)" d="M1250.2,97c0,4-3.2,7.2-7.2,7.2c-4,0-7.2-3.2-7.2-7.2c0-4,3.2-7.2,7.2-7.2
					C1246.9,89.8,1250.2,93,1250.2,97"/>
				<circle fill="none" stroke="#131313" stroke-width="0.75" stroke-miterlimit="10" cx="1243" cy="97" r="7.2"/>
				<polygon fill="#0A0A0A" points="1242.1,101.1 1242.1,97.9 1238.9,97.9 1238.9,96.1 1242.1,96.1 1242.1,92.9 1243.9,92.9 
					1243.9,96.1 1247,96.1 1247,97.9 1243.9,97.9 1243.9,101.1 				"/>
				<path fill="#231815" d="M1243.7,93.1v2.9v0.3h0.3h2.9v1.5h-2.9h-0.3V98v2.9h-1.5V98v-0.3h-0.3h-2.9v-1.5h2.9h0.3v-0.3v-2.9
					H1243.7z M1244,92.8h-2.1v3.2h-3.2V98h3.2v3.2h2.1V98h3.2v-2.1h-3.2V92.8z"/>
			</g>
			<rect x="1241.9" y="92.8" fill="#606060" width="0.3" height="3.5"/>
			<rect x="1238.7" y="95.9" fill="#606060" width="3.5" height="0.3"/>
			<rect x="1241.9" y="92.8" fill="#494949" width="2.1" height="0.3"/>
			<rect x="1238.7" y="95.9" fill="#545454" width="0.3" height="2.1"/>
		</g>
	</g>
	<g>
		<defs>
			<rect id="SVGID_1345_" x="176" y="4" width="1076" height="28"/>
		</defs>
		<clipPath id="SVGID_347_">
			<use xlink:href="#SVGID_1345_"  overflow="visible"/>
		</clipPath>
		<g clip-path="url(#SVGID_347_)">
			<g>
				<g>
					<g>
						<g>
							<g>
								<g>
									<g>
										<polygon fill="#999999" points="176.3,5.2 170.5,8.1 164.7,5.2 164.7,-0.6 170.5,-3.4 176.3,-0.6 										"/>
										<polygon fill="#999999" points="191.3,5.2 185.5,8.1 179.6,5.2 179.6,-0.6 185.5,-3.4 191.3,-0.6 										"/>
										<polygon fill="#999999" points="206.2,5.4 200.4,8.3 194.6,5.4 194.6,-0.4 200.4,-3.2 206.2,-0.4 										"/>
										<polygon fill="#999999" points="221.2,5.2 215.4,8.1 209.5,5.2 209.5,-0.6 215.4,-3.4 221.2,-0.6 										"/>
										<polygon fill="#999999" points="236.1,5.2 230.3,8.1 224.5,5.2 224.5,-0.6 230.3,-3.4 236.1,-0.6 										"/>
										<polygon fill="#999999" points="251.1,5.4 245.3,8.3 239.4,5.4 239.4,-0.4 245.3,-3.2 251.1,-0.4 										"/>
									</g>
								</g>
								<g>
									<g>
										<polygon points="178.3,5.2 172.4,8.1 166.6,5.2 166.6,-0.6 172.4,-3.4 178.3,-0.6 										"/>
										<polygon points="193.2,5.2 187.4,8.1 181.6,5.2 181.6,-0.6 187.4,-3.4 193.2,-0.6 										"/>
										<polygon points="208.2,5.4 202.3,8.3 196.5,5.4 196.5,-0.4 202.3,-3.2 208.2,-0.4 										"/>
										<polygon points="223.1,5.2 217.3,8.1 211.5,5.2 211.5,-0.6 217.3,-3.4 223.1,-0.6 										"/>
										<polygon points="238.1,5.2 232.2,8.1 226.4,5.2 226.4,-0.6 232.2,-3.4 238.1,-0.6 										"/>
										<polygon points="253,5.4 247.2,8.3 241.4,5.4 241.4,-0.4 247.2,-3.2 253,-0.4 										"/>
									</g>
								</g>
							</g>
							<g>
								<g>
									<g>
										<polygon fill="#999999" points="267.2,5.2 261.4,8.1 255.6,5.2 255.6,-0.6 261.4,-3.4 267.2,-0.6 										"/>
										<polygon fill="#999999" points="282.2,5.2 276.3,8.1 270.5,5.2 270.5,-0.6 276.3,-3.4 282.2,-0.6 										"/>
										<polygon fill="#999999" points="297.1,5.4 291.3,8.3 285.5,5.4 285.5,-0.4 291.3,-3.2 297.1,-0.4 										"/>
										<polygon fill="#999999" points="312.1,5.2 306.2,8.1 300.4,5.2 300.4,-0.6 306.2,-3.4 312.1,-0.6 										"/>
										<polygon fill="#999999" points="327,5.2 321.2,8.1 315.4,5.2 315.4,-0.6 321.2,-3.4 327,-0.6 										"/>
										<polygon fill="#999999" points="342,5.4 336.1,8.3 330.3,5.4 330.3,-0.4 336.1,-3.2 342,-0.4 										"/>
									</g>
								</g>
								<g>
									<g>
										<polygon points="269.1,5.2 263.3,8.1 257.5,5.2 257.5,-0.6 263.3,-3.4 269.1,-0.6 										"/>
										<polygon points="284.1,5.2 278.3,8.1 272.5,5.2 272.5,-0.6 278.3,-3.4 284.1,-0.6 										"/>
										<polygon points="299,5.4 293.2,8.3 287.4,5.4 287.4,-0.4 293.2,-3.2 299,-0.4 										"/>
										<polygon points="314,5.2 308.2,8.1 302.3,5.2 302.3,-0.6 308.2,-3.4 314,-0.6 										"/>
										<polygon points="328.9,5.2 323.1,8.1 317.3,5.2 317.3,-0.6 323.1,-3.4 328.9,-0.6 										"/>
										<polygon points="343.9,5.4 338.1,8.3 332.2,5.4 332.2,-0.4 338.1,-3.2 343.9,-0.4 										"/>
									</g>
								</g>
							</g>
							<g>
								<g>
									<g>
										<polygon fill="#999999" points="358.1,5.2 352.3,8.1 346.4,5.2 346.4,-0.6 352.3,-3.4 358.1,-0.6 										"/>
										<polygon fill="#999999" points="373,5.2 367.2,8.1 361.4,5.2 361.4,-0.6 367.2,-3.4 373,-0.6 										"/>
										<polygon fill="#999999" points="388,5.4 382.2,8.3 376.3,5.4 376.3,-0.4 382.2,-3.2 388,-0.4 										"/>
										<polygon fill="#999999" points="402.9,5.2 397.1,8.1 391.3,5.2 391.3,-0.6 397.1,-3.4 402.9,-0.6 										"/>
										<polygon fill="#999999" points="417.9,5.2 412.1,8.1 406.2,5.2 406.2,-0.6 412.1,-3.4 417.9,-0.6 										"/>
										<polygon fill="#999999" points="432.8,5.4 427,8.3 421.2,5.4 421.2,-0.4 427,-3.2 432.8,-0.4 										"/>
									</g>
								</g>
								<g>
									<g>
										<polygon points="360,5.2 354.2,8.1 348.4,5.2 348.4,-0.6 354.2,-3.4 360,-0.6 										"/>
										<polygon points="375,5.2 369.1,8.1 363.3,5.2 363.3,-0.6 369.1,-3.4 375,-0.6 										"/>
										<polygon points="389.9,5.4 384.1,8.3 378.3,5.4 378.3,-0.4 384.1,-3.2 389.9,-0.4 										"/>
										<polygon points="404.9,5.2 399,8.1 393.2,5.2 393.2,-0.6 399,-3.4 404.9,-0.6 										"/>
										<polygon points="419.8,5.2 414,8.1 408.2,5.2 408.2,-0.6 414,-3.4 419.8,-0.6 										"/>
										<polygon points="434.8,5.4 428.9,8.3 423.1,5.4 423.1,-0.4 428.9,-3.2 434.8,-0.4 										"/>
									</g>
								</g>
							</g>
							<g>
								<g>
									<g>
										<polygon fill="#999999" points="449,5.2 443.1,8.1 437.3,5.2 437.3,-0.6 443.1,-3.4 449,-0.6 										"/>
										<polygon fill="#999999" points="463.9,5.2 458.1,8.1 452.3,5.2 452.3,-0.6 458.1,-3.4 463.9,-0.6 										"/>
										<polygon fill="#999999" points="478.9,5.4 473,8.3 467.2,5.4 467.2,-0.4 473,-3.2 478.9,-0.4 										"/>
										<polygon fill="#999999" points="493.8,5.2 488,8.1 482.2,5.2 482.2,-0.6 488,-3.4 493.8,-0.6 										"/>
										<polygon fill="#999999" points="508.8,5.2 502.9,8.1 497.1,5.2 497.1,-0.6 502.9,-3.4 508.8,-0.6 										"/>
										<polygon fill="#999999" points="523.7,5.4 517.9,8.3 512.1,5.4 512.1,-0.4 517.9,-3.2 523.7,-0.4 										"/>
									</g>
								</g>
								<g>
									<g>
										<polygon points="450.9,5.2 445.1,8.1 439.3,5.2 439.3,-0.6 445.1,-3.4 450.9,-0.6 										"/>
										<polygon points="465.8,5.2 460,8.1 454.2,5.2 454.2,-0.6 460,-3.4 465.8,-0.6 										"/>
										<polygon points="480.8,5.4 475,8.3 469.1,5.4 469.1,-0.4 475,-3.2 480.8,-0.4 										"/>
										<polygon points="495.7,5.2 489.9,8.1 484.1,5.2 484.1,-0.6 489.9,-3.4 495.7,-0.6 										"/>
										<polygon points="510.7,5.2 504.9,8.1 499,5.2 499,-0.6 504.9,-3.4 510.7,-0.6 										"/>
										<polygon points="525.6,5.4 519.8,8.3 514,5.4 514,-0.4 519.8,-3.2 525.6,-0.4 										"/>
									</g>
								</g>
							</g>
							<g>
								<g>
									<g>
										<polygon fill="#999999" points="539.8,5.2 534,8.1 528.2,5.2 528.2,-0.6 534,-3.4 539.8,-0.6 										"/>
										<polygon fill="#999999" points="554.8,5.2 549,8.1 543.1,5.2 543.1,-0.6 549,-3.4 554.8,-0.6 										"/>
										<polygon fill="#999999" points="569.7,5.4 563.9,8.3 558.1,5.4 558.1,-0.4 563.9,-3.2 569.7,-0.4 										"/>
										<polygon fill="#999999" points="584.7,5.2 578.9,8.1 573,5.2 573,-0.6 578.9,-3.4 584.7,-0.6 										"/>
										<polygon fill="#999999" points="599.6,5.2 593.8,8.1 588,5.2 588,-0.6 593.8,-3.4 599.6,-0.6 										"/>
										<polygon fill="#999999" points="614.6,5.4 608.8,8.3 602.9,5.4 602.9,-0.4 608.8,-3.2 614.6,-0.4 										"/>
									</g>
								</g>
								<g>
									<g>
										<polygon points="541.8,5.2 535.9,8.1 530.1,5.2 530.1,-0.6 535.9,-3.4 541.8,-0.6 										"/>
										<polygon points="556.7,5.2 550.9,8.1 545.1,5.2 545.1,-0.6 550.9,-3.4 556.7,-0.6 										"/>
										<polygon points="571.7,5.4 565.8,8.3 560,5.4 560,-0.4 565.8,-3.2 571.7,-0.4 										"/>
										<polygon points="586.6,5.2 580.8,8.1 575,5.2 575,-0.6 580.8,-3.4 586.6,-0.6 										"/>
										<polygon points="601.6,5.2 595.7,8.1 589.9,5.2 589.9,-0.6 595.7,-3.4 601.6,-0.6 										"/>
										<polygon points="616.5,5.4 610.7,8.3 604.9,5.4 604.9,-0.4 610.7,-3.2 616.5,-0.4 										"/>
									</g>
								</g>
							</g>
							<g>
								<g>
									<g>
										<polygon fill="#999999" points="630.7,5.2 624.9,8.1 619.1,5.2 619.1,-0.6 624.9,-3.4 630.7,-0.6 										"/>
										<polygon fill="#999999" points="645.7,5.2 639.8,8.1 634,5.2 634,-0.6 639.8,-3.4 645.7,-0.6 										"/>
										<polygon fill="#999999" points="660.6,5.4 654.8,8.3 649,5.4 649,-0.4 654.8,-3.2 660.6,-0.4 										"/>
										<polygon fill="#999999" points="675.5,5.2 669.7,8.1 663.9,5.2 663.9,-0.6 669.7,-3.4 675.5,-0.6 										"/>
										<polygon fill="#999999" points="690.5,5.2 684.7,8.1 678.9,5.2 678.9,-0.6 684.7,-3.4 690.5,-0.6 										"/>
										<polygon fill="#999999" points="705.4,5.4 699.6,8.3 693.8,5.4 693.8,-0.4 699.6,-3.2 705.4,-0.4 										"/>
									</g>
								</g>
								<g>
									<g>
										<polygon points="632.6,5.2 626.8,8.1 621,5.2 621,-0.6 626.8,-3.4 632.6,-0.6 										"/>
										<polygon points="647.6,5.2 641.8,8.1 635.9,5.2 635.9,-0.6 641.8,-3.4 647.6,-0.6 										"/>
										<polygon points="662.5,5.4 656.7,8.3 650.9,5.4 650.9,-0.4 656.7,-3.2 662.5,-0.4 										"/>
										<polygon points="677.5,5.2 671.7,8.1 665.8,5.2 665.8,-0.6 671.7,-3.4 677.5,-0.6 										"/>
										<polygon points="692.4,5.2 686.6,8.1 680.8,5.2 680.8,-0.6 686.6,-3.4 692.4,-0.6 										"/>
										<polygon points="707.4,5.4 701.6,8.3 695.7,5.4 695.7,-0.4 701.6,-3.2 707.4,-0.4 										"/>
									</g>
								</g>
							</g>
						</g>
					</g>
					<g>
						<g>
							<g>
								<g>
									<g>
										<polygon fill="#999999" points="722.1,5.2 716.3,8.1 710.4,5.2 710.4,-0.6 716.3,-3.4 722.1,-0.6 										"/>
										<polygon fill="#999999" points="737,5.2 731.2,8.1 725.4,5.2 725.4,-0.6 731.2,-3.4 737,-0.6 										"/>
										<polygon fill="#999999" points="752,5.4 746.2,8.3 740.3,5.4 740.3,-0.4 746.2,-3.2 752,-0.4 										"/>
										<polygon fill="#999999" points="766.9,5.2 761.1,8.1 755.3,5.2 755.3,-0.6 761.1,-3.4 766.9,-0.6 										"/>
										<polygon fill="#999999" points="781.9,5.2 776.1,8.1 770.2,5.2 770.2,-0.6 776.1,-3.4 781.9,-0.6 										"/>
										<polygon fill="#999999" points="796.8,5.4 791,8.3 785.2,5.4 785.2,-0.4 791,-3.2 796.8,-0.4 										"/>
									</g>
								</g>
								<g>
									<g>
										<polygon points="724,5.2 718.2,8.1 712.4,5.2 712.4,-0.6 718.2,-3.4 724,-0.6 										"/>
										<polygon points="739,5.2 733.1,8.1 727.3,5.2 727.3,-0.6 733.1,-3.4 739,-0.6 										"/>
										<polygon points="753.9,5.4 748.1,8.3 742.3,5.4 742.3,-0.4 748.1,-3.2 753.9,-0.4 										"/>
										<polygon points="768.9,5.2 763,8.1 757.2,5.2 757.2,-0.6 763,-3.4 768.9,-0.6 										"/>
										<polygon points="783.8,5.2 778,8.1 772.2,5.2 772.2,-0.6 778,-3.4 783.8,-0.6 										"/>
										<polygon points="798.8,5.4 792.9,8.3 787.1,5.4 787.1,-0.4 792.9,-3.2 798.8,-0.4 										"/>
									</g>
								</g>
							</g>
							<g>
								<g>
									<g>
										<polygon fill="#999999" points="813,5.2 807.1,8.1 801.3,5.2 801.3,-0.6 807.1,-3.4 813,-0.6 										"/>
										<polygon fill="#999999" points="827.9,5.2 822.1,8.1 816.3,5.2 816.3,-0.6 822.1,-3.4 827.9,-0.6 										"/>
										<polygon fill="#999999" points="842.9,5.4 837,8.3 831.2,5.4 831.2,-0.4 837,-3.2 842.9,-0.4 										"/>
										<polygon fill="#999999" points="857.8,5.2 852,8.1 846.2,5.2 846.2,-0.6 852,-3.4 857.8,-0.6 										"/>
										<polygon fill="#999999" points="872.8,5.2 866.9,8.1 861.1,5.2 861.1,-0.6 866.9,-3.4 872.8,-0.6 										"/>
										<polygon fill="#999999" points="887.7,5.4 881.9,8.3 876.1,5.4 876.1,-0.4 881.9,-3.2 887.7,-0.4 										"/>
									</g>
								</g>
								<g>
									<g>
										<polygon points="814.9,5.2 809.1,8.1 803.3,5.2 803.3,-0.6 809.1,-3.4 814.9,-0.6 										"/>
										<polygon points="829.8,5.2 824,8.1 818.2,5.2 818.2,-0.6 824,-3.4 829.8,-0.6 										"/>
										<polygon points="844.8,5.4 839,8.3 833.2,5.4 833.2,-0.4 839,-3.2 844.8,-0.4 										"/>
										<polygon points="859.7,5.2 853.9,8.1 848.1,5.2 848.1,-0.6 853.9,-3.4 859.7,-0.6 										"/>
										<polygon points="874.7,5.2 868.9,8.1 863.1,5.2 863.1,-0.6 868.9,-3.4 874.7,-0.6 										"/>
										<polygon points="889.6,5.4 883.8,8.3 878,5.4 878,-0.4 883.8,-3.2 889.6,-0.4 										"/>
									</g>
								</g>
							</g>
							<g>
								<g>
									<g>
										<polygon fill="#999999" points="903.8,5.2 898,8.1 892.2,5.2 892.2,-0.6 898,-3.4 903.8,-0.6 										"/>
										<polygon fill="#999999" points="918.8,5.2 913,8.1 907.1,5.2 907.1,-0.6 913,-3.4 918.8,-0.6 										"/>
										<polygon fill="#999999" points="933.7,5.4 927.9,8.3 922.1,5.4 922.1,-0.4 927.9,-3.2 933.7,-0.4 										"/>
										<polygon fill="#999999" points="948.7,5.2 942.9,8.1 937,5.2 937,-0.6 942.9,-3.4 948.7,-0.6 										"/>
										<polygon fill="#999999" points="963.6,5.2 957.8,8.1 952,5.2 952,-0.6 957.8,-3.4 963.6,-0.6 										"/>
										<polygon fill="#999999" points="978.6,5.4 972.8,8.3 966.9,5.4 966.9,-0.4 972.8,-3.2 978.6,-0.4 										"/>
									</g>
								</g>
								<g>
									<g>
										<polygon points="905.8,5.2 899.9,8.1 894.1,5.2 894.1,-0.6 899.9,-3.4 905.8,-0.6 										"/>
										<polygon points="920.7,5.2 914.9,8.1 909.1,5.2 909.1,-0.6 914.9,-3.4 920.7,-0.6 										"/>
										<polygon points="935.7,5.4 929.8,8.3 924,5.4 924,-0.4 929.8,-3.2 935.7,-0.4 										"/>
										<polygon points="950.6,5.2 944.8,8.1 939,5.2 939,-0.6 944.8,-3.4 950.6,-0.6 										"/>
										<polygon points="965.6,5.2 959.7,8.1 953.9,5.2 953.9,-0.6 959.7,-3.4 965.6,-0.6 										"/>
										<polygon points="980.5,5.4 974.7,8.3 968.9,5.4 968.9,-0.4 974.7,-3.2 980.5,-0.4 										"/>
									</g>
								</g>
							</g>
							<g>
								<g>
									<g>
										<polygon fill="#999999" points="994.7,5.2 988.9,8.1 983.1,5.2 983.1,-0.6 988.9,-3.4 994.7,-0.6 										"/>
										<polygon fill="#999999" points="1009.7,5.2 1003.8,8.1 998,5.2 998,-0.6 1003.8,-3.4 1009.7,-0.6 										"/>
										<polygon fill="#999999" points="1024.6,5.4 1018.8,8.3 1013,5.4 1013,-0.4 1018.8,-3.2 1024.6,-0.4 										"/>
										<polygon fill="#999999" points="1039.6,5.2 1033.7,8.1 1027.9,5.2 1027.9,-0.6 1033.7,-3.4 1039.6,-0.6 										"/>
										<polygon fill="#999999" points="1054.5,5.2 1048.7,8.1 1042.9,5.2 1042.9,-0.6 1048.7,-3.4 1054.5,-0.6 										"/>
										<polygon fill="#999999" points="1069.5,5.4 1063.6,8.3 1057.8,5.4 1057.8,-0.4 1063.6,-3.2 1069.5,-0.4 										"/>
									</g>
								</g>
								<g>
									<g>
										<polygon points="996.6,5.2 990.8,8.1 985,5.2 985,-0.6 990.8,-3.4 996.6,-0.6 										"/>
										<polygon points="1011.6,5.2 1005.8,8.1 1000,5.2 1000,-0.6 1005.8,-3.4 1011.6,-0.6 										"/>
										<polygon points="1026.5,5.4 1020.7,8.3 1014.9,5.4 1014.9,-0.4 1020.7,-3.2 1026.5,-0.4 										"/>
										<polygon points="1041.5,5.2 1035.7,8.1 1029.8,5.2 1029.8,-0.6 1035.7,-3.4 1041.5,-0.6 										"/>
										<polygon points="1056.4,5.2 1050.6,8.1 1044.8,5.2 1044.8,-0.6 1050.6,-3.4 1056.4,-0.6 										"/>
										<polygon points="1071.4,5.4 1065.6,8.3 1059.8,5.4 1059.8,-0.4 1065.6,-3.2 1071.4,-0.4 										"/>
									</g>
								</g>
							</g>
							<g>
								<g>
									<g>
										<polygon fill="#999999" points="1085.6,5.2 1079.8,8.1 1073.9,5.2 1073.9,-0.6 1079.8,-3.4 1085.6,-0.6 										"/>
										<polygon fill="#999999" points="1100.5,5.2 1094.7,8.1 1088.9,5.2 1088.9,-0.6 1094.7,-3.4 1100.5,-0.6 										"/>
										<polygon fill="#999999" points="1115.5,5.4 1109.7,8.3 1103.8,5.4 1103.8,-0.4 1109.7,-3.2 1115.5,-0.4 										"/>
										<polygon fill="#999999" points="1130.4,5.2 1124.6,8.1 1118.8,5.2 1118.8,-0.6 1124.6,-3.4 1130.4,-0.6 										"/>
										<polygon fill="#999999" points="1145.4,5.2 1139.6,8.1 1133.7,5.2 1133.7,-0.6 1139.6,-3.4 1145.4,-0.6 										"/>
										<polygon fill="#999999" points="1160.3,5.4 1154.5,8.3 1148.7,5.4 1148.7,-0.4 1154.5,-3.2 1160.3,-0.4 										"/>
									</g>
								</g>
								<g>
									<g>
										<polygon points="1087.5,5.2 1081.7,8.1 1075.9,5.2 1075.9,-0.6 1081.7,-3.4 1087.5,-0.6 										"/>
										<polygon points="1102.5,5.2 1096.6,8.1 1090.8,5.2 1090.8,-0.6 1096.6,-3.4 1102.5,-0.6 										"/>
										<polygon points="1117.4,5.4 1111.6,8.3 1105.8,5.4 1105.8,-0.4 1111.6,-3.2 1117.4,-0.4 										"/>
										<polygon points="1132.4,5.2 1126.5,8.1 1120.7,5.2 1120.7,-0.6 1126.5,-3.4 1132.4,-0.6 										"/>
										<polygon points="1147.3,5.2 1141.5,8.1 1135.7,5.2 1135.7,-0.6 1141.5,-3.4 1147.3,-0.6 										"/>
										<polygon points="1162.3,5.4 1156.4,8.3 1150.6,5.4 1150.6,-0.4 1156.4,-3.2 1162.3,-0.4 										"/>
									</g>
								</g>
							</g>
							<g>
								<g>
									<g>
										<polygon fill="#999999" points="1176.5,5.2 1170.6,8.1 1164.8,5.2 1164.8,-0.6 1170.6,-3.4 1176.5,-0.6 										"/>
										<polygon fill="#999999" points="1191.4,5.2 1185.6,8.1 1179.8,5.2 1179.8,-0.6 1185.6,-3.4 1191.4,-0.6 										"/>
										<polygon fill="#999999" points="1206.4,5.4 1200.5,8.3 1194.7,5.4 1194.7,-0.4 1200.5,-3.2 1206.4,-0.4 										"/>
										<polygon fill="#999999" points="1221.3,5.2 1215.5,8.1 1209.7,5.2 1209.7,-0.6 1215.5,-3.4 1221.3,-0.6 										"/>
										<polygon fill="#999999" points="1236.3,5.2 1230.4,8.1 1224.6,5.2 1224.6,-0.6 1230.4,-3.4 1236.3,-0.6 										"/>
										<polygon fill="#999999" points="1251.2,5.4 1245.4,8.3 1239.6,5.4 1239.6,-0.4 1245.4,-3.2 1251.2,-0.4 										"/>
									</g>
								</g>
								<g>
									<g>
										<polygon points="1178.4,5.2 1172.6,8.1 1166.8,5.2 1166.8,-0.6 1172.6,-3.4 1178.4,-0.6 										"/>
										<polygon points="1193.3,5.2 1187.5,8.1 1181.7,5.2 1181.7,-0.6 1187.5,-3.4 1193.3,-0.6 										"/>
										<polygon points="1208.3,5.4 1202.5,8.3 1196.7,5.4 1196.7,-0.4 1202.5,-3.2 1208.3,-0.4 										"/>
										<polygon points="1223.2,5.2 1217.4,8.1 1211.6,5.2 1211.6,-0.6 1217.4,-3.4 1223.2,-0.6 										"/>
										<polygon points="1238.2,5.2 1232.4,8.1 1226.5,5.2 1226.5,-0.6 1232.4,-3.4 1238.2,-0.6 										"/>
										<polygon points="1253.1,5.4 1247.3,8.3 1241.5,5.4 1241.5,-0.4 1247.3,-3.2 1253.1,-0.4 										"/>
									</g>
								</g>
							</g>
						</g>
					</g>
				</g>
				<g>
					<g>
						<g>
							<g>
								<g>
									<g>
										<polygon fill="#999999" points="168.6,16 162.7,18.8 156.9,16 156.9,10.2 162.7,7.3 168.6,10.2 										"/>
										<polygon fill="#999999" points="183.5,16 177.7,18.8 171.9,16 171.9,10.2 177.7,7.3 183.5,10.2 										"/>
										<polygon fill="#999999" points="198.5,16.2 192.6,19 186.8,16.2 186.8,10.4 192.6,7.5 198.5,10.4 										"/>
										<polygon fill="#999999" points="213.4,16 207.6,18.8 201.8,16 201.8,10.2 207.6,7.3 213.4,10.2 										"/>
										<polygon fill="#999999" points="228.4,16 222.5,18.8 216.7,16 216.7,10.2 222.5,7.3 228.4,10.2 										"/>
										<polygon fill="#999999" points="243.3,16.2 237.5,19 231.7,16.2 231.7,10.4 237.5,7.5 243.3,10.4 										"/>
									</g>
								</g>
								<g>
									<g>
										<polygon points="170.5,16 164.7,18.8 158.9,16 158.9,10.2 164.7,7.3 170.5,10.2 										"/>
										<polygon points="185.4,16 179.6,18.8 173.8,16 173.8,10.2 179.6,7.3 185.4,10.2 										"/>
										<polygon points="200.4,16.2 194.6,19 188.8,16.2 188.8,10.4 194.6,7.5 200.4,10.4 										"/>
										<polygon points="215.3,16 209.5,18.8 203.7,16 203.7,10.2 209.5,7.3 215.3,10.2 										"/>
										<polygon points="230.3,16 224.5,18.8 218.7,16 218.7,10.2 224.5,7.3 230.3,10.2 										"/>
										<polygon points="245.2,16.2 239.4,19 233.6,16.2 233.6,10.4 239.4,7.5 245.2,10.4 										"/>
									</g>
								</g>
							</g>
							<g>
								<g>
									<g>
										<polygon fill="#999999" points="259.4,16 253.6,18.8 247.8,16 247.8,10.2 253.6,7.3 259.4,10.2 										"/>
										<polygon fill="#999999" points="274.4,16 268.6,18.8 262.7,16 262.7,10.2 268.6,7.3 274.4,10.2 										"/>
										<polygon fill="#999999" points="289.3,16.2 283.5,19 277.7,16.2 277.7,10.4 283.5,7.5 289.3,10.4 										"/>
										<polygon fill="#999999" points="304.3,16 298.5,18.8 292.6,16 292.6,10.2 298.5,7.3 304.3,10.2 										"/>
										<polygon fill="#999999" points="319.2,16 313.4,18.8 307.6,16 307.6,10.2 313.4,7.3 319.2,10.2 										"/>
										<polygon fill="#999999" points="334.2,16.2 328.4,19 322.5,16.2 322.5,10.4 328.4,7.5 334.2,10.4 										"/>
									</g>
								</g>
								<g>
									<g>
										<polygon points="261.4,16 255.5,18.8 249.7,16 249.7,10.2 255.5,7.3 261.4,10.2 										"/>
										<polygon points="276.3,16 270.5,18.8 264.7,16 264.7,10.2 270.5,7.3 276.3,10.2 										"/>
										<polygon points="291.3,16.2 285.4,19 279.6,16.2 279.6,10.4 285.4,7.5 291.3,10.4 										"/>
										<polygon points="306.2,16 300.4,18.8 294.6,16 294.6,10.2 300.4,7.3 306.2,10.2 										"/>
										<polygon points="321.2,16 315.3,18.8 309.5,16 309.5,10.2 315.3,7.3 321.2,10.2 										"/>
										<polygon points="336.1,16.2 330.3,19 324.5,16.2 324.5,10.4 330.3,7.5 336.1,10.4 										"/>
									</g>
								</g>
							</g>
							<g>
								<g>
									<g>
										<polygon fill="#999999" points="350.3,16 344.5,18.8 338.7,16 338.7,10.2 344.5,7.3 350.3,10.2 										"/>
										<polygon fill="#999999" points="365.3,16 359.4,18.8 353.6,16 353.6,10.2 359.4,7.3 365.3,10.2 										"/>
										<polygon fill="#999999" points="380.2,16.2 374.4,19 368.6,16.2 368.6,10.4 374.4,7.5 380.2,10.4 										"/>
										<polygon fill="#999999" points="395.2,16 389.3,18.8 383.5,16 383.5,10.2 389.3,7.3 395.2,10.2 										"/>
										<polygon fill="#999999" points="410.1,16 404.3,18.8 398.5,16 398.5,10.2 404.3,7.3 410.1,10.2 										"/>
										<polygon fill="#999999" points="425.1,16.2 419.2,19 413.4,16.2 413.4,10.4 419.2,7.5 425.1,10.4 										"/>
									</g>
								</g>
								<g>
									<g>
										<polygon points="352.2,16 346.4,18.8 340.6,16 340.6,10.2 346.4,7.3 352.2,10.2 										"/>
										<polygon points="367.2,16 361.4,18.8 355.6,16 355.6,10.2 361.4,7.3 367.2,10.2 										"/>
										<polygon points="382.1,16.2 376.3,19 370.5,16.2 370.5,10.4 376.3,7.5 382.1,10.4 										"/>
										<polygon points="397.1,16 391.3,18.8 385.5,16 385.5,10.2 391.3,7.3 397.1,10.2 										"/>
										<polygon points="412,16 406.2,18.8 400.4,16 400.4,10.2 406.2,7.3 412,10.2 										"/>
										<polygon points="427,16.2 421.2,19 415.4,16.2 415.4,10.4 421.2,7.5 427,10.4 										"/>
									</g>
								</g>
							</g>
							<g>
								<g>
									<g>
										<polygon fill="#999999" points="441.2,16 435.4,18.8 429.5,16 429.5,10.2 435.4,7.3 441.2,10.2 										"/>
										<polygon fill="#999999" points="456.1,16 450.3,18.8 444.5,16 444.5,10.2 450.3,7.3 456.1,10.2 										"/>
										<polygon fill="#999999" points="471.1,16.2 465.3,19 459.4,16.2 459.4,10.4 465.3,7.5 471.1,10.4 										"/>
										<polygon fill="#999999" points="486,16 480.2,18.8 474.4,16 474.4,10.2 480.2,7.3 486,10.2 										"/>
										<polygon fill="#999999" points="501,16 495.2,18.8 489.3,16 489.3,10.2 495.2,7.3 501,10.2 										"/>
										<polygon fill="#999999" points="515.9,16.2 510.1,19 504.3,16.2 504.3,10.4 510.1,7.5 515.9,10.4 										"/>
									</g>
								</g>
								<g>
									<g>
										<polygon points="443.1,16 437.3,18.8 431.5,16 431.5,10.2 437.3,7.3 443.1,10.2 										"/>
										<polygon points="458.1,16 452.2,18.8 446.4,16 446.4,10.2 452.2,7.3 458.1,10.2 										"/>
										<polygon points="473,16.2 467.2,19 461.4,16.2 461.4,10.4 467.2,7.5 473,10.4 										"/>
										<polygon points="488,16 482.1,18.8 476.3,16 476.3,10.2 482.1,7.3 488,10.2 										"/>
										<polygon points="502.9,16 497.1,18.8 491.3,16 491.3,10.2 497.1,7.3 502.9,10.2 										"/>
										<polygon points="517.9,16.2 512,19 506.2,16.2 506.2,10.4 512,7.5 517.9,10.4 										"/>
									</g>
								</g>
							</g>
							<g>
								<g>
									<g>
										<polygon fill="#999999" points="532.1,16 526.2,18.8 520.4,16 520.4,10.2 526.2,7.3 532.1,10.2 										"/>
										<polygon fill="#999999" points="547,16 541.2,18.8 535.4,16 535.4,10.2 541.2,7.3 547,10.2 										"/>
										<polygon fill="#999999" points="562,16.2 556.1,19 550.3,16.2 550.3,10.4 556.1,7.5 562,10.4 										"/>
										<polygon fill="#999999" points="576.9,16 571.1,18.8 565.3,16 565.3,10.2 571.1,7.3 576.9,10.2 										"/>
										<polygon fill="#999999" points="591.9,16 586,18.8 580.2,16 580.2,10.2 586,7.3 591.9,10.2 										"/>
										<polygon fill="#999999" points="606.8,16.2 601,19 595.2,16.2 595.2,10.4 601,7.5 606.8,10.4 										"/>
									</g>
								</g>
								<g>
									<g>
										<polygon points="534,16 528.2,18.8 522.4,16 522.4,10.2 528.2,7.3 534,10.2 										"/>
										<polygon points="548.9,16 543.1,18.8 537.3,16 537.3,10.2 543.1,7.3 548.9,10.2 										"/>
										<polygon points="563.9,16.2 558.1,19 552.3,16.2 552.3,10.4 558.1,7.5 563.9,10.4 										"/>
										<polygon points="578.8,16 573,18.8 567.2,16 567.2,10.2 573,7.3 578.8,10.2 										"/>
										<polygon points="593.8,16 588,18.8 582.2,16 582.2,10.2 588,7.3 593.8,10.2 										"/>
										<polygon points="608.7,16.2 602.9,19 597.1,16.2 597.1,10.4 602.9,7.5 608.7,10.4 										"/>
									</g>
								</g>
							</g>
							<g>
								<g>
									<g>
										<polygon fill="#999999" points="622.9,16 617.1,18.8 611.3,16 611.3,10.2 617.1,7.3 622.9,10.2 										"/>
										<polygon fill="#999999" points="637.9,16 632.1,18.8 626.2,16 626.2,10.2 632.1,7.3 637.9,10.2 										"/>
										<polygon fill="#999999" points="652.8,16.2 647,19 641.2,16.2 641.2,10.4 647,7.5 652.8,10.4 										"/>
										<polygon fill="#999999" points="667.8,16 662,18.8 656.1,16 656.1,10.2 662,7.3 667.8,10.2 										"/>
										<polygon fill="#999999" points="682.7,16 676.9,18.8 671.1,16 671.1,10.2 676.9,7.3 682.7,10.2 										"/>
										<polygon fill="#999999" points="697.7,16.2 691.9,19 686,16.2 686,10.4 691.9,7.5 697.7,10.4 										"/>
									</g>
								</g>
								<g>
									<g>
										<polygon points="624.9,16 619,18.8 613.2,16 613.2,10.2 619,7.3 624.9,10.2 										"/>
										<polygon points="639.8,16 634,18.8 628.2,16 628.2,10.2 634,7.3 639.8,10.2 										"/>
										<polygon points="654.8,16.2 648.9,19 643.1,16.2 643.1,10.4 648.9,7.5 654.8,10.4 										"/>
										<polygon points="669.7,16 663.9,18.8 658.1,16 658.1,10.2 663.9,7.3 669.7,10.2 										"/>
										<polygon points="684.7,16 678.8,18.8 673,16 673,10.2 678.8,7.3 684.7,10.2 										"/>
										<polygon points="699.6,16.2 693.8,19 688,16.2 688,10.4 693.8,7.5 699.6,10.4 										"/>
									</g>
								</g>
							</g>
						</g>
						<g>
							<g>
								<g>
									<g>
										<polygon fill="#999999" points="176.3,27.7 170.5,30.5 164.7,27.7 164.7,21.9 170.5,19 176.3,21.9 										"/>
										<polygon fill="#999999" points="191.3,27.7 185.5,30.5 179.6,27.7 179.6,21.9 185.5,19 191.3,21.9 										"/>
										<polygon fill="#999999" points="206.2,27.9 200.4,30.7 194.6,27.9 194.6,22.1 200.4,19.2 206.2,22.1 										"/>
										<polygon fill="#999999" points="221.2,27.7 215.4,30.5 209.5,27.7 209.5,21.9 215.4,19 221.2,21.9 										"/>
										<polygon fill="#999999" points="236.1,27.7 230.3,30.5 224.5,27.7 224.5,21.9 230.3,19 236.1,21.9 										"/>
										<polygon fill="#999999" points="251.1,27.9 245.3,30.7 239.4,27.9 239.4,22.1 245.3,19.2 251.1,22.1 										"/>
									</g>
								</g>
								<g>
									<g>
										<polygon points="178.3,27.7 172.4,30.5 166.6,27.7 166.6,21.9 172.4,19 178.3,21.9 										"/>
										<polygon points="193.2,27.7 187.4,30.5 181.6,27.7 181.6,21.9 187.4,19 193.2,21.9 										"/>
										<polygon points="208.2,27.9 202.3,30.7 196.5,27.9 196.5,22.1 202.3,19.2 208.2,22.1 										"/>
										<polygon points="223.1,27.7 217.3,30.5 211.5,27.7 211.5,21.9 217.3,19 223.1,21.9 										"/>
										<polygon points="238.1,27.7 232.2,30.5 226.4,27.7 226.4,21.9 232.2,19 238.1,21.9 										"/>
										<polygon points="253,27.9 247.2,30.7 241.4,27.9 241.4,22.1 247.2,19.2 253,22.1 										"/>
									</g>
								</g>
							</g>
							<g>
								<g>
									<g>
										<polygon fill="#999999" points="267.2,27.7 261.4,30.5 255.6,27.7 255.6,21.9 261.4,19 267.2,21.9 										"/>
										<polygon fill="#999999" points="282.2,27.7 276.3,30.5 270.5,27.7 270.5,21.9 276.3,19 282.2,21.9 										"/>
										<polygon fill="#999999" points="297.1,27.9 291.3,30.7 285.5,27.9 285.5,22.1 291.3,19.2 297.1,22.1 										"/>
										<polygon fill="#999999" points="312.1,27.7 306.2,30.5 300.4,27.7 300.4,21.9 306.2,19 312.1,21.9 										"/>
										<polygon fill="#999999" points="327,27.7 321.2,30.5 315.4,27.7 315.4,21.9 321.2,19 327,21.9 										"/>
										<polygon fill="#999999" points="342,27.9 336.1,30.7 330.3,27.9 330.3,22.1 336.1,19.2 342,22.1 										"/>
									</g>
								</g>
								<g>
									<g>
										<polygon points="269.1,27.7 263.3,30.5 257.5,27.7 257.5,21.9 263.3,19 269.1,21.9 										"/>
										<polygon points="284.1,27.7 278.3,30.5 272.5,27.7 272.5,21.9 278.3,19 284.1,21.9 										"/>
										<polygon points="299,27.9 293.2,30.7 287.4,27.9 287.4,22.1 293.2,19.2 299,22.1 										"/>
										<polygon points="314,27.7 308.2,30.5 302.3,27.7 302.3,21.9 308.2,19 314,21.9 										"/>
										<polygon points="328.9,27.7 323.1,30.5 317.3,27.7 317.3,21.9 323.1,19 328.9,21.9 										"/>
										<polygon points="343.9,27.9 338.1,30.7 332.2,27.9 332.2,22.1 338.1,19.2 343.9,22.1 										"/>
									</g>
								</g>
							</g>
							<g>
								<g>
									<g>
										<polygon fill="#999999" points="358.1,27.7 352.3,30.5 346.4,27.7 346.4,21.9 352.3,19 358.1,21.9 										"/>
										<polygon fill="#999999" points="373,27.7 367.2,30.5 361.4,27.7 361.4,21.9 367.2,19 373,21.9 										"/>
										<polygon fill="#999999" points="388,27.9 382.2,30.7 376.3,27.9 376.3,22.1 382.2,19.2 388,22.1 										"/>
										<polygon fill="#999999" points="402.9,27.7 397.1,30.5 391.3,27.7 391.3,21.9 397.1,19 402.9,21.9 										"/>
										<polygon fill="#999999" points="417.9,27.7 412.1,30.5 406.2,27.7 406.2,21.9 412.1,19 417.9,21.9 										"/>
										<polygon fill="#999999" points="432.8,27.9 427,30.7 421.2,27.9 421.2,22.1 427,19.2 432.8,22.1 										"/>
									</g>
								</g>
								<g>
									<g>
										<polygon points="360,27.7 354.2,30.5 348.4,27.7 348.4,21.9 354.2,19 360,21.9 										"/>
										<polygon points="375,27.7 369.1,30.5 363.3,27.7 363.3,21.9 369.1,19 375,21.9 										"/>
										<polygon points="389.9,27.9 384.1,30.7 378.3,27.9 378.3,22.1 384.1,19.2 389.9,22.1 										"/>
										<polygon points="404.9,27.7 399,30.5 393.2,27.7 393.2,21.9 399,19 404.9,21.9 										"/>
										<polygon points="419.8,27.7 414,30.5 408.2,27.7 408.2,21.9 414,19 419.8,21.9 										"/>
										<polygon points="434.8,27.9 428.9,30.7 423.1,27.9 423.1,22.1 428.9,19.2 434.8,22.1 										"/>
									</g>
								</g>
							</g>
							<g>
								<g>
									<g>
										<polygon fill="#999999" points="449,27.7 443.1,30.5 437.3,27.7 437.3,21.9 443.1,19 449,21.9 										"/>
										<polygon fill="#999999" points="463.9,27.7 458.1,30.5 452.3,27.7 452.3,21.9 458.1,19 463.9,21.9 										"/>
										<polygon fill="#999999" points="478.9,27.9 473,30.7 467.2,27.9 467.2,22.1 473,19.2 478.9,22.1 										"/>
										<polygon fill="#999999" points="493.8,27.7 488,30.5 482.2,27.7 482.2,21.9 488,19 493.8,21.9 										"/>
										<polygon fill="#999999" points="508.8,27.7 502.9,30.5 497.1,27.7 497.1,21.9 502.9,19 508.8,21.9 										"/>
										<polygon fill="#999999" points="523.7,27.9 517.9,30.7 512.1,27.9 512.1,22.1 517.9,19.2 523.7,22.1 										"/>
									</g>
								</g>
								<g>
									<g>
										<polygon points="450.9,27.7 445.1,30.5 439.3,27.7 439.3,21.9 445.1,19 450.9,21.9 										"/>
										<polygon points="465.8,27.7 460,30.5 454.2,27.7 454.2,21.9 460,19 465.8,21.9 										"/>
										<polygon points="480.8,27.9 475,30.7 469.1,27.9 469.1,22.1 475,19.2 480.8,22.1 										"/>
										<polygon points="495.7,27.7 489.9,30.5 484.1,27.7 484.1,21.9 489.9,19 495.7,21.9 										"/>
										<polygon points="510.7,27.7 504.9,30.5 499,27.7 499,21.9 504.9,19 510.7,21.9 										"/>
										<polygon points="525.6,27.9 519.8,30.7 514,27.9 514,22.1 519.8,19.2 525.6,22.1 										"/>
									</g>
								</g>
							</g>
							<g>
								<g>
									<g>
										<polygon fill="#999999" points="539.8,27.7 534,30.5 528.2,27.7 528.2,21.9 534,19 539.8,21.9 										"/>
										<polygon fill="#999999" points="554.8,27.7 549,30.5 543.1,27.7 543.1,21.9 549,19 554.8,21.9 										"/>
										<polygon fill="#999999" points="569.7,27.9 563.9,30.7 558.1,27.9 558.1,22.1 563.9,19.2 569.7,22.1 										"/>
										<polygon fill="#999999" points="584.7,27.7 578.9,30.5 573,27.7 573,21.9 578.9,19 584.7,21.9 										"/>
										<polygon fill="#999999" points="599.6,27.7 593.8,30.5 588,27.7 588,21.9 593.8,19 599.6,21.9 										"/>
										<polygon fill="#999999" points="614.6,27.9 608.8,30.7 602.9,27.9 602.9,22.1 608.8,19.2 614.6,22.1 										"/>
									</g>
								</g>
								<g>
									<g>
										<polygon points="541.8,27.7 535.9,30.5 530.1,27.7 530.1,21.9 535.9,19 541.8,21.9 										"/>
										<polygon points="556.7,27.7 550.9,30.5 545.1,27.7 545.1,21.9 550.9,19 556.7,21.9 										"/>
										<polygon points="571.7,27.9 565.8,30.7 560,27.9 560,22.1 565.8,19.2 571.7,22.1 										"/>
										<polygon points="586.6,27.7 580.8,30.5 575,27.7 575,21.9 580.8,19 586.6,21.9 										"/>
										<polygon points="601.6,27.7 595.7,30.5 589.9,27.7 589.9,21.9 595.7,19 601.6,21.9 										"/>
										<polygon points="616.5,27.9 610.7,30.7 604.9,27.9 604.9,22.1 610.7,19.2 616.5,22.1 										"/>
									</g>
								</g>
							</g>
							<g>
								<g>
									<g>
										<polygon fill="#999999" points="630.7,27.7 624.9,30.5 619.1,27.7 619.1,21.9 624.9,19 630.7,21.9 										"/>
										<polygon fill="#999999" points="645.7,27.7 639.8,30.5 634,27.7 634,21.9 639.8,19 645.7,21.9 										"/>
										<polygon fill="#999999" points="660.6,27.9 654.8,30.7 649,27.9 649,22.1 654.8,19.2 660.6,22.1 										"/>
										<polygon fill="#999999" points="675.5,27.7 669.7,30.5 663.9,27.7 663.9,21.9 669.7,19 675.5,21.9 										"/>
										<polygon fill="#999999" points="690.5,27.7 684.7,30.5 678.9,27.7 678.9,21.9 684.7,19 690.5,21.9 										"/>
										<polygon fill="#999999" points="705.4,27.9 699.6,30.7 693.8,27.9 693.8,22.1 699.6,19.2 705.4,22.1 										"/>
									</g>
								</g>
								<g>
									<g>
										<polygon points="632.6,27.7 626.8,30.5 621,27.7 621,21.9 626.8,19 632.6,21.9 										"/>
										<polygon points="647.6,27.7 641.8,30.5 635.9,27.7 635.9,21.9 641.8,19 647.6,21.9 										"/>
										<polygon points="662.5,27.9 656.7,30.7 650.9,27.9 650.9,22.1 656.7,19.2 662.5,22.1 										"/>
										<polygon points="677.5,27.7 671.7,30.5 665.8,27.7 665.8,21.9 671.7,19 677.5,21.9 										"/>
										<polygon points="692.4,27.7 686.6,30.5 680.8,27.7 680.8,21.9 686.6,19 692.4,21.9 										"/>
										<polygon points="707.4,27.9 701.6,30.7 695.7,27.9 695.7,22.1 701.6,19.2 707.4,22.1 										"/>
									</g>
								</g>
							</g>
						</g>
					</g>
					<g>
						<g>
							<g>
								<g>
									<g>
										<polygon fill="#999999" points="714.3,16 708.5,18.8 702.7,16 702.7,10.2 708.5,7.3 714.3,10.2 										"/>
										<polygon fill="#999999" points="729.3,16 723.4,18.8 717.6,16 717.6,10.2 723.4,7.3 729.3,10.2 										"/>
										<polygon fill="#999999" points="744.2,16.2 738.4,19 732.6,16.2 732.6,10.4 738.4,7.5 744.2,10.4 										"/>
										<polygon fill="#999999" points="759.2,16 753.3,18.8 747.5,16 747.5,10.2 753.3,7.3 759.2,10.2 										"/>
										<polygon fill="#999999" points="774.1,16 768.3,18.8 762.5,16 762.5,10.2 768.3,7.3 774.1,10.2 										"/>
										<polygon fill="#999999" points="789.1,16.2 783.2,19 777.4,16.2 777.4,10.4 783.2,7.5 789.1,10.4 										"/>
									</g>
								</g>
								<g>
									<g>
										<polygon points="716.2,16 710.4,18.8 704.6,16 704.6,10.2 710.4,7.3 716.2,10.2 										"/>
										<polygon points="731.2,16 725.4,18.8 719.6,16 719.6,10.2 725.4,7.3 731.2,10.2 										"/>
										<polygon points="746.1,16.2 740.3,19 734.5,16.2 734.5,10.4 740.3,7.5 746.1,10.4 										"/>
										<polygon points="761.1,16 755.3,18.8 749.5,16 749.5,10.2 755.3,7.3 761.1,10.2 										"/>
										<polygon points="776,16 770.2,18.8 764.4,16 764.4,10.2 770.2,7.3 776,10.2 										"/>
										<polygon points="791,16.2 785.2,19 779.4,16.2 779.4,10.4 785.2,7.5 791,10.4 										"/>
									</g>
								</g>
							</g>
							<g>
								<g>
									<g>
										<polygon fill="#999999" points="805.2,16 799.4,18.8 793.6,16 793.6,10.2 799.4,7.3 805.2,10.2 										"/>
										<polygon fill="#999999" points="820.1,16 814.3,18.8 808.5,16 808.5,10.2 814.3,7.3 820.1,10.2 										"/>
										<polygon fill="#999999" points="835.1,16.2 829.3,19 823.4,16.2 823.4,10.4 829.3,7.5 835.1,10.4 										"/>
										<polygon fill="#999999" points="850,16 844.2,18.8 838.4,16 838.4,10.2 844.2,7.3 850,10.2 										"/>
										<polygon fill="#999999" points="865,16 859.2,18.8 853.3,16 853.3,10.2 859.2,7.3 865,10.2 										"/>
										<polygon fill="#999999" points="879.9,16.2 874.1,19 868.3,16.2 868.3,10.4 874.1,7.5 879.9,10.4 										"/>
									</g>
								</g>
								<g>
									<g>
										<polygon points="807.1,16 801.3,18.8 795.5,16 795.5,10.2 801.3,7.3 807.1,10.2 										"/>
										<polygon points="822.1,16 816.3,18.8 810.4,16 810.4,10.2 816.3,7.3 822.1,10.2 										"/>
										<polygon points="837,16.2 831.2,19 825.4,16.2 825.4,10.4 831.2,7.5 837,10.4 										"/>
										<polygon points="852,16 846.1,18.8 840.3,16 840.3,10.2 846.1,7.3 852,10.2 										"/>
										<polygon points="866.9,16 861.1,18.8 855.3,16 855.3,10.2 861.1,7.3 866.9,10.2 										"/>
										<polygon points="881.9,16.2 876,19 870.2,16.2 870.2,10.4 876,7.5 881.9,10.4 										"/>
									</g>
								</g>
							</g>
							<g>
								<g>
									<g>
										<polygon fill="#999999" points="896.1,16 890.2,18.8 884.4,16 884.4,10.2 890.2,7.3 896.1,10.2 										"/>
										<polygon fill="#999999" points="911,16 905.2,18.8 899.4,16 899.4,10.2 905.2,7.3 911,10.2 										"/>
										<polygon fill="#999999" points="926,16.2 920.1,19 914.3,16.2 914.3,10.4 920.1,7.5 926,10.4 										"/>
										<polygon fill="#999999" points="940.9,16 935.1,18.8 929.3,16 929.3,10.2 935.1,7.3 940.9,10.2 										"/>
										<polygon fill="#999999" points="955.9,16 950,18.8 944.2,16 944.2,10.2 950,7.3 955.9,10.2 										"/>
										<polygon fill="#999999" points="970.8,16.2 965,19 959.2,16.2 959.2,10.4 965,7.5 970.8,10.4 										"/>
									</g>
								</g>
								<g>
									<g>
										<polygon points="898,16 892.2,18.8 886.4,16 886.4,10.2 892.2,7.3 898,10.2 										"/>
										<polygon points="912.9,16 907.1,18.8 901.3,16 901.3,10.2 907.1,7.3 912.9,10.2 										"/>
										<polygon points="927.9,16.2 922.1,19 916.3,16.2 916.3,10.4 922.1,7.5 927.9,10.4 										"/>
										<polygon points="942.8,16 937,18.8 931.2,16 931.2,10.2 937,7.3 942.8,10.2 										"/>
										<polygon points="957.8,16 952,18.8 946.2,16 946.2,10.2 952,7.3 957.8,10.2 										"/>
										<polygon points="972.7,16.2 966.9,19 961.1,16.2 961.1,10.4 966.9,7.5 972.7,10.4 										"/>
									</g>
								</g>
							</g>
							<g>
								<g>
									<g>
										<polygon fill="#999999" points="986.9,16 981.1,18.8 975.3,16 975.3,10.2 981.1,7.3 986.9,10.2 										"/>
										<polygon fill="#999999" points="1001.9,16 996.1,18.8 990.2,16 990.2,10.2 996.1,7.3 1001.9,10.2 										"/>
										<polygon fill="#999999" points="1016.8,16.2 1011,19 1005.2,16.2 1005.2,10.4 1011,7.5 1016.8,10.4 										"/>
										<polygon fill="#999999" points="1031.8,16 1026,18.8 1020.1,16 1020.1,10.2 1026,7.3 1031.8,10.2 										"/>
										<polygon fill="#999999" points="1046.7,16 1040.9,18.8 1035.1,16 1035.1,10.2 1040.9,7.3 1046.7,10.2 										"/>
										<polygon fill="#999999" points="1061.7,16.2 1055.9,19 1050,16.2 1050,10.4 1055.9,7.5 1061.7,10.4 										"/>
									</g>
								</g>
								<g>
									<g>
										<polygon points="988.9,16 983,18.8 977.2,16 977.2,10.2 983,7.3 988.9,10.2 										"/>
										<polygon points="1003.8,16 998,18.8 992.2,16 992.2,10.2 998,7.3 1003.8,10.2 										"/>
										<polygon points="1018.8,16.2 1012.9,19 1007.1,16.2 1007.1,10.4 1012.9,7.5 1018.8,10.4 										"/>
										<polygon points="1033.7,16 1027.9,18.8 1022.1,16 1022.1,10.2 1027.9,7.3 1033.7,10.2 										"/>
										<polygon points="1048.7,16 1042.8,18.8 1037,16 1037,10.2 1042.8,7.3 1048.7,10.2 										"/>
										<polygon points="1063.6,16.2 1057.8,19 1052,16.2 1052,10.4 1057.8,7.5 1063.6,10.4 										"/>
									</g>
								</g>
							</g>
							<g>
								<g>
									<g>
										<polygon fill="#999999" points="1077.8,16 1072,18.8 1066.2,16 1066.2,10.2 1072,7.3 1077.8,10.2 										"/>
										<polygon fill="#999999" points="1092.8,16 1086.9,18.8 1081.1,16 1081.1,10.2 1086.9,7.3 1092.8,10.2 										"/>
										<polygon fill="#999999" points="1107.7,16.2 1101.9,19 1096.1,16.2 1096.1,10.4 1101.9,7.5 1107.7,10.4 										"/>
										<polygon fill="#999999" points="1122.7,16 1116.8,18.8 1111,16 1111,10.2 1116.8,7.3 1122.7,10.2 										"/>
										<polygon fill="#999999" points="1137.6,16 1131.8,18.8 1126,16 1126,10.2 1131.8,7.3 1137.6,10.2 										"/>
										<polygon fill="#999999" points="1152.6,16.2 1146.7,19 1140.9,16.2 1140.9,10.4 1146.7,7.5 1152.6,10.4 										"/>
									</g>
								</g>
								<g>
									<g>
										<polygon points="1079.7,16 1073.9,18.8 1068.1,16 1068.1,10.2 1073.9,7.3 1079.7,10.2 										"/>
										<polygon points="1094.7,16 1088.9,18.8 1083.1,16 1083.1,10.2 1088.9,7.3 1094.7,10.2 										"/>
										<polygon points="1109.6,16.2 1103.8,19 1098,16.2 1098,10.4 1103.8,7.5 1109.6,10.4 										"/>
										<polygon points="1124.6,16 1118.8,18.8 1113,16 1113,10.2 1118.8,7.3 1124.6,10.2 										"/>
										<polygon points="1139.5,16 1133.7,18.8 1127.9,16 1127.9,10.2 1133.7,7.3 1139.5,10.2 										"/>
										<polygon points="1154.5,16.2 1148.7,19 1142.9,16.2 1142.9,10.4 1148.7,7.5 1154.5,10.4 										"/>
									</g>
								</g>
							</g>
							<g>
								<g>
									<g>
										<polygon fill="#999999" points="1168.7,16 1162.9,18.8 1157,16 1157,10.2 1162.9,7.3 1168.7,10.2 										"/>
										<polygon fill="#999999" points="1183.6,16 1177.8,18.8 1172,16 1172,10.2 1177.8,7.3 1183.6,10.2 										"/>
										<polygon fill="#999999" points="1198.6,16.2 1192.8,19 1186.9,16.2 1186.9,10.4 1192.8,7.5 1198.6,10.4 										"/>
										<polygon fill="#999999" points="1213.5,16 1207.7,18.8 1201.9,16 1201.9,10.2 1207.7,7.3 1213.5,10.2 										"/>
										<polygon fill="#999999" points="1228.5,16 1222.7,18.8 1216.8,16 1216.8,10.2 1222.7,7.3 1228.5,10.2 										"/>
										<polygon fill="#999999" points="1243.4,16.2 1237.6,19 1231.8,16.2 1231.8,10.4 1237.6,7.5 1243.4,10.4 										"/>
									</g>
								</g>
								<g>
									<g>
										<polygon points="1170.6,16 1164.8,18.8 1159,16 1159,10.2 1164.8,7.3 1170.6,10.2 										"/>
										<polygon points="1185.6,16 1179.7,18.8 1173.9,16 1173.9,10.2 1179.7,7.3 1185.6,10.2 										"/>
										<polygon points="1200.5,16.2 1194.7,19 1188.9,16.2 1188.9,10.4 1194.7,7.5 1200.5,10.4 										"/>
										<polygon points="1215.5,16 1209.6,18.8 1203.8,16 1203.8,10.2 1209.6,7.3 1215.5,10.2 										"/>
										<polygon points="1230.4,16 1224.6,18.8 1218.8,16 1218.8,10.2 1224.6,7.3 1230.4,10.2 										"/>
										<polygon points="1245.4,16.2 1239.5,19 1233.7,16.2 1233.7,10.4 1239.5,7.5 1245.4,10.4 										"/>
									</g>
								</g>
							</g>
						</g>
						<g>
							<g>
								<g>
									<g>
										<polygon fill="#999999" points="722.1,27.7 716.3,30.5 710.4,27.7 710.4,21.9 716.3,19 722.1,21.9 										"/>
										<polygon fill="#999999" points="737,27.7 731.2,30.5 725.4,27.7 725.4,21.9 731.2,19 737,21.9 										"/>
										<polygon fill="#999999" points="752,27.9 746.2,30.7 740.3,27.9 740.3,22.1 746.2,19.2 752,22.1 										"/>
										<polygon fill="#999999" points="766.9,27.7 761.1,30.5 755.3,27.7 755.3,21.9 761.1,19 766.9,21.9 										"/>
										<polygon fill="#999999" points="781.9,27.7 776.1,30.5 770.2,27.7 770.2,21.9 776.1,19 781.9,21.9 										"/>
										<polygon fill="#999999" points="796.8,27.9 791,30.7 785.2,27.9 785.2,22.1 791,19.2 796.8,22.1 										"/>
									</g>
								</g>
								<g>
									<g>
										<polygon points="724,27.7 718.2,30.5 712.4,27.7 712.4,21.9 718.2,19 724,21.9 										"/>
										<polygon points="739,27.7 733.1,30.5 727.3,27.7 727.3,21.9 733.1,19 739,21.9 										"/>
										<polygon points="753.9,27.9 748.1,30.7 742.3,27.9 742.3,22.1 748.1,19.2 753.9,22.1 										"/>
										<polygon points="768.9,27.7 763,30.5 757.2,27.7 757.2,21.9 763,19 768.9,21.9 										"/>
										<polygon points="783.8,27.7 778,30.5 772.2,27.7 772.2,21.9 778,19 783.8,21.9 										"/>
										<polygon points="798.8,27.9 792.9,30.7 787.1,27.9 787.1,22.1 792.9,19.2 798.8,22.1 										"/>
									</g>
								</g>
							</g>
							<g>
								<g>
									<g>
										<polygon fill="#999999" points="813,27.7 807.1,30.5 801.3,27.7 801.3,21.9 807.1,19 813,21.9 										"/>
										<polygon fill="#999999" points="827.9,27.7 822.1,30.5 816.3,27.7 816.3,21.9 822.1,19 827.9,21.9 										"/>
										<polygon fill="#999999" points="842.9,27.9 837,30.7 831.2,27.9 831.2,22.1 837,19.2 842.9,22.1 										"/>
										<polygon fill="#999999" points="857.8,27.7 852,30.5 846.2,27.7 846.2,21.9 852,19 857.8,21.9 										"/>
										<polygon fill="#999999" points="872.8,27.7 866.9,30.5 861.1,27.7 861.1,21.9 866.9,19 872.8,21.9 										"/>
										<polygon fill="#999999" points="887.7,27.9 881.9,30.7 876.1,27.9 876.1,22.1 881.9,19.2 887.7,22.1 										"/>
									</g>
								</g>
								<g>
									<g>
										<polygon points="814.9,27.7 809.1,30.5 803.3,27.7 803.3,21.9 809.1,19 814.9,21.9 										"/>
										<polygon points="829.8,27.7 824,30.5 818.2,27.7 818.2,21.9 824,19 829.8,21.9 										"/>
										<polygon points="844.8,27.9 839,30.7 833.2,27.9 833.2,22.1 839,19.2 844.8,22.1 										"/>
										<polygon points="859.7,27.7 853.9,30.5 848.1,27.7 848.1,21.9 853.9,19 859.7,21.9 										"/>
										<polygon points="874.7,27.7 868.9,30.5 863.1,27.7 863.1,21.9 868.9,19 874.7,21.9 										"/>
										<polygon points="889.6,27.9 883.8,30.7 878,27.9 878,22.1 883.8,19.2 889.6,22.1 										"/>
									</g>
								</g>
							</g>
							<g>
								<g>
									<g>
										<polygon fill="#999999" points="903.8,27.7 898,30.5 892.2,27.7 892.2,21.9 898,19 903.8,21.9 										"/>
										<polygon fill="#999999" points="918.8,27.7 913,30.5 907.1,27.7 907.1,21.9 913,19 918.8,21.9 										"/>
										<polygon fill="#999999" points="933.7,27.9 927.9,30.7 922.1,27.9 922.1,22.1 927.9,19.2 933.7,22.1 										"/>
										<polygon fill="#999999" points="948.7,27.7 942.9,30.5 937,27.7 937,21.9 942.9,19 948.7,21.9 										"/>
										<polygon fill="#999999" points="963.6,27.7 957.8,30.5 952,27.7 952,21.9 957.8,19 963.6,21.9 										"/>
										<polygon fill="#999999" points="978.6,27.9 972.8,30.7 966.9,27.9 966.9,22.1 972.8,19.2 978.6,22.1 										"/>
									</g>
								</g>
								<g>
									<g>
										<polygon points="905.8,27.7 899.9,30.5 894.1,27.7 894.1,21.9 899.9,19 905.8,21.9 										"/>
										<polygon points="920.7,27.7 914.9,30.5 909.1,27.7 909.1,21.9 914.9,19 920.7,21.9 										"/>
										<polygon points="935.7,27.9 929.8,30.7 924,27.9 924,22.1 929.8,19.2 935.7,22.1 										"/>
										<polygon points="950.6,27.7 944.8,30.5 939,27.7 939,21.9 944.8,19 950.6,21.9 										"/>
										<polygon points="965.6,27.7 959.7,30.5 953.9,27.7 953.9,21.9 959.7,19 965.6,21.9 										"/>
										<polygon points="980.5,27.9 974.7,30.7 968.9,27.9 968.9,22.1 974.7,19.2 980.5,22.1 										"/>
									</g>
								</g>
							</g>
							<g>
								<g>
									<g>
										<polygon fill="#999999" points="994.7,27.7 988.9,30.5 983.1,27.7 983.1,21.9 988.9,19 994.7,21.9 										"/>
										<polygon fill="#999999" points="1009.7,27.7 1003.8,30.5 998,27.7 998,21.9 1003.8,19 1009.7,21.9 										"/>
										<polygon fill="#999999" points="1024.6,27.9 1018.8,30.7 1013,27.9 1013,22.1 1018.8,19.2 1024.6,22.1 										"/>
										<polygon fill="#999999" points="1039.6,27.7 1033.7,30.5 1027.9,27.7 1027.9,21.9 1033.7,19 1039.6,21.9 										"/>
										<polygon fill="#999999" points="1054.5,27.7 1048.7,30.5 1042.9,27.7 1042.9,21.9 1048.7,19 1054.5,21.9 										"/>
										<polygon fill="#999999" points="1069.5,27.9 1063.6,30.7 1057.8,27.9 1057.8,22.1 1063.6,19.2 1069.5,22.1 										"/>
									</g>
								</g>
								<g>
									<g>
										<polygon points="996.6,27.7 990.8,30.5 985,27.7 985,21.9 990.8,19 996.6,21.9 										"/>
										<polygon points="1011.6,27.7 1005.8,30.5 1000,27.7 1000,21.9 1005.8,19 1011.6,21.9 										"/>
										<polygon points="1026.5,27.9 1020.7,30.7 1014.9,27.9 1014.9,22.1 1020.7,19.2 1026.5,22.1 										"/>
										<polygon points="1041.5,27.7 1035.7,30.5 1029.8,27.7 1029.8,21.9 1035.7,19 1041.5,21.9 										"/>
										<polygon points="1056.4,27.7 1050.6,30.5 1044.8,27.7 1044.8,21.9 1050.6,19 1056.4,21.9 										"/>
										<polygon points="1071.4,27.9 1065.6,30.7 1059.8,27.9 1059.8,22.1 1065.6,19.2 1071.4,22.1 										"/>
									</g>
								</g>
							</g>
							<g>
								<g>
									<g>
										<polygon fill="#999999" points="1085.6,27.7 1079.8,30.5 1073.9,27.7 1073.9,21.9 1079.8,19 1085.6,21.9 										"/>
										<polygon fill="#999999" points="1100.5,27.7 1094.7,30.5 1088.9,27.7 1088.9,21.9 1094.7,19 1100.5,21.9 										"/>
										<polygon fill="#999999" points="1115.5,27.9 1109.7,30.7 1103.8,27.9 1103.8,22.1 1109.7,19.2 1115.5,22.1 										"/>
										<polygon fill="#999999" points="1130.4,27.7 1124.6,30.5 1118.8,27.7 1118.8,21.9 1124.6,19 1130.4,21.9 										"/>
										<polygon fill="#999999" points="1145.4,27.7 1139.6,30.5 1133.7,27.7 1133.7,21.9 1139.6,19 1145.4,21.9 										"/>
										<polygon fill="#999999" points="1160.3,27.9 1154.5,30.7 1148.7,27.9 1148.7,22.1 1154.5,19.2 1160.3,22.1 										"/>
									</g>
								</g>
								<g>
									<g>
										<polygon points="1087.5,27.7 1081.7,30.5 1075.9,27.7 1075.9,21.9 1081.7,19 1087.5,21.9 										"/>
										<polygon points="1102.5,27.7 1096.6,30.5 1090.8,27.7 1090.8,21.9 1096.6,19 1102.5,21.9 										"/>
										<polygon points="1117.4,27.9 1111.6,30.7 1105.8,27.9 1105.8,22.1 1111.6,19.2 1117.4,22.1 										"/>
										<polygon points="1132.4,27.7 1126.5,30.5 1120.7,27.7 1120.7,21.9 1126.5,19 1132.4,21.9 										"/>
										<polygon points="1147.3,27.7 1141.5,30.5 1135.7,27.7 1135.7,21.9 1141.5,19 1147.3,21.9 										"/>
										<polygon points="1162.3,27.9 1156.4,30.7 1150.6,27.9 1150.6,22.1 1156.4,19.2 1162.3,22.1 										"/>
									</g>
								</g>
							</g>
							<g>
								<g>
									<g>
										<polygon fill="#999999" points="1176.5,27.7 1170.6,30.5 1164.8,27.7 1164.8,21.9 1170.6,19 1176.5,21.9 										"/>
										<polygon fill="#999999" points="1191.4,27.7 1185.6,30.5 1179.8,27.7 1179.8,21.9 1185.6,19 1191.4,21.9 										"/>
										<polygon fill="#999999" points="1206.4,27.9 1200.5,30.7 1194.7,27.9 1194.7,22.1 1200.5,19.2 1206.4,22.1 										"/>
										<polygon fill="#999999" points="1221.3,27.7 1215.5,30.5 1209.7,27.7 1209.7,21.9 1215.5,19 1221.3,21.9 										"/>
										<polygon fill="#999999" points="1236.3,27.7 1230.4,30.5 1224.6,27.7 1224.6,21.9 1230.4,19 1236.3,21.9 										"/>
										<polygon fill="#999999" points="1251.2,27.9 1245.4,30.7 1239.6,27.9 1239.6,22.1 1245.4,19.2 1251.2,22.1 										"/>
									</g>
								</g>
								<g>
									<g>
										<polygon points="1178.4,27.7 1172.6,30.5 1166.8,27.7 1166.8,21.9 1172.6,19 1178.4,21.9 										"/>
										<polygon points="1193.3,27.7 1187.5,30.5 1181.7,27.7 1181.7,21.9 1187.5,19 1193.3,21.9 										"/>
										<polygon points="1208.3,27.9 1202.5,30.7 1196.7,27.9 1196.7,22.1 1202.5,19.2 1208.3,22.1 										"/>
										<polygon points="1223.2,27.7 1217.4,30.5 1211.6,27.7 1211.6,21.9 1217.4,19 1223.2,21.9 										"/>
										<polygon points="1238.2,27.7 1232.4,30.5 1226.5,27.7 1226.5,21.9 1232.4,19 1238.2,21.9 										"/>
										<polygon points="1253.1,27.9 1247.3,30.7 1241.5,27.9 1241.5,22.1 1247.3,19.2 1253.1,22.1 										"/>
									</g>
								</g>
							</g>
						</g>
					</g>
				</g>
			</g>
		</g>
	</g>
	<g>
		<g>
			<g>
				<path fill="#1A1A1A" d="M212.1,37.3c0,1.9-1.5,3.4-3.4,3.4h-8.3c-1.9,0-3.4-1.5-3.4-3.4l0,0c0-1.9,1.5-3.4,3.4-3.4h8.3
					C210.6,33.9,212.1,35.4,212.1,37.3L212.1,37.3z"/>
				<circle fill="#1A1A1A" stroke="#E6E6E6" stroke-miterlimit="10" cx="208.2" cy="37.2" r="2.3"/>
				<text transform="matrix(1 0 0 1 199.6972 39.3878)" fill="#FFFFFF" font-family="'FZLTXIHJW--GB1-0'" font-size="5.6719px">0</text>
			</g>
			<g>
				<path fill="none" stroke="#1A1A1A" stroke-miterlimit="10" d="M231,37.3c0,1.9-1.5,3.4-3.4,3.4h-8.3c-1.9,0-3.4-1.5-3.4-3.4l0,0
					c0-1.9,1.5-3.4,3.4-3.4h8.3C229.5,33.9,231,35.4,231,37.3L231,37.3z"/>
				<circle fill="#4D4D4D" stroke="#E6E6E6" stroke-miterlimit="10" cx="227.1" cy="37.2" r="2.3"/>
				<text transform="matrix(1 0 0 1 218.6035 39.3878)" fill="#1A1A1A" font-family="'FZLTXIHJW--GB1-0'" font-size="5.6719px">4</text>
			</g>
		</g>
		<g>
			<g>
				<path fill="#1A1A1A" d="M253.5,37.3c0,1.9-1.5,3.4-3.4,3.4h-8.3c-1.9,0-3.4-1.5-3.4-3.4l0,0c0-1.9,1.5-3.4,3.4-3.4h8.3
					C252,33.9,253.5,35.4,253.5,37.3L253.5,37.3z"/>
				<circle fill="#1A1A1A" stroke="#E6E6E6" stroke-miterlimit="10" cx="249.5" cy="37.2" r="2.3"/>
				<text transform="matrix(1 0 0 1 241.0618 39.3878)" fill="#FFFFFF" font-family="'FZLTXIHJW--GB1-0'" font-size="5.6719px">1</text>
			</g>
			<g>
				<path fill="none" stroke="#1A1A1A" stroke-miterlimit="10" d="M272.4,37.3c0,1.9-1.5,3.4-3.4,3.4h-8.3c-1.9,0-3.4-1.5-3.4-3.4
					l0,0c0-1.9,1.5-3.4,3.4-3.4h8.3C270.9,33.9,272.4,35.4,272.4,37.3L272.4,37.3z"/>
				<circle fill="#4D4D4D" stroke="#E6E6E6" stroke-miterlimit="10" cx="268.4" cy="37.2" r="2.3"/>
				<text transform="matrix(1 0 0 1 259.9677 39.3878)" fill="#1A1A1A" font-family="'FZLTXIHJW--GB1-0'" font-size="5.6719px">5</text>
			</g>
		</g>
		<g>
			<g>
				<path fill="#1A1A1A" d="M294.9,37.3c0,1.9-1.5,3.4-3.4,3.4h-8.3c-1.9,0-3.4-1.5-3.4-3.4l0,0c0-1.9,1.5-3.4,3.4-3.4h8.3
					C293.3,33.9,294.9,35.4,294.9,37.3L294.9,37.3z"/>
				<circle fill="#1A1A1A" stroke="#E6E6E6" stroke-miterlimit="10" cx="290.9" cy="37.2" r="2.3"/>
				<text transform="matrix(1 0 0 1 282.4267 39.3878)" fill="#FFFFFF" font-family="'FZLTXIHJW--GB1-0'" font-size="5.6719px">2</text>
			</g>
			<g>
				<path fill="none" stroke="#1A1A1A" stroke-miterlimit="10" d="M313.8,37.3c0,1.9-1.5,3.4-3.4,3.4h-8.3c-1.9,0-3.4-1.5-3.4-3.4
					l0,0c0-1.9,1.5-3.4,3.4-3.4h8.3C312.2,33.9,313.8,35.4,313.8,37.3L313.8,37.3z"/>
				<circle fill="#4D4D4D" stroke="#E6E6E6" stroke-miterlimit="10" cx="309.8" cy="37.2" r="2.3"/>
				<text transform="matrix(1 0 0 1 301.333 39.3878)" fill="#1A1A1A" font-family="'FZLTXIHJW--GB1-0'" font-size="5.6719px">6</text>
			</g>
		</g>
		<g>
			<g>
				<path fill="#1A1A1A" d="M336.2,37.3c0,1.9-1.5,3.4-3.4,3.4h-8.3c-1.9,0-3.4-1.5-3.4-3.4l0,0c0-1.9,1.5-3.4,3.4-3.4h8.3
					C334.7,33.9,336.2,35.4,336.2,37.3L336.2,37.3z"/>
				<circle fill="#1A1A1A" stroke="#E6E6E6" stroke-miterlimit="10" cx="332.3" cy="37.2" r="2.3"/>
				<text transform="matrix(1 0 0 1 323.791 39.3878)" fill="#FFFFFF" font-family="'FZLTXIHJW--GB1-0'" font-size="5.6719px">3</text>
			</g>
			<g>
				<path fill="none" stroke="#1A1A1A" stroke-miterlimit="10" d="M355.1,37.3c0,1.9-1.5,3.4-3.4,3.4h-8.3c-1.9,0-3.4-1.5-3.4-3.4
					l0,0c0-1.9,1.5-3.4,3.4-3.4h8.3C353.6,33.9,355.1,35.4,355.1,37.3L355.1,37.3z"/>
				<circle fill="#4D4D4D" stroke="#E6E6E6" stroke-miterlimit="10" cx="351.2" cy="37.2" r="2.3"/>
				<text transform="matrix(1 0 0 1 342.6972 39.3878)" fill="#1A1A1A" font-family="'FZLTXIHJW--GB1-0'" font-size="5.6719px">7</text>
			</g>
		</g>
	</g>
	<g>
		<g>
			<g>
				<path fill="#1A1A1A" d="M380.1,37.3c0,1.9-1.5,3.4-3.4,3.4h-8.3c-1.9,0-3.4-1.5-3.4-3.4l0,0c0-1.9,1.5-3.4,3.4-3.4h8.3
					C378.6,33.9,380.1,35.4,380.1,37.3L380.1,37.3z"/>
				<circle fill="#1A1A1A" stroke="#E6E6E6" stroke-miterlimit="10" cx="376.2" cy="37.2" r="2.3"/>
				<text transform="matrix(1 0 0 1 367.708 39.3878)" fill="#FFFFFF" font-family="'FZLTXIHJW--GB1-0'" font-size="5.6719px">8</text>
			</g>
			<g>
				<path fill="none" stroke="#1A1A1A" stroke-miterlimit="10" d="M399,37.3c0,1.9-1.5,3.4-3.4,3.4h-8.3c-1.9,0-3.4-1.5-3.4-3.4l0,0
					c0-1.9,1.5-3.4,3.4-3.4h8.3C397.5,33.9,399,35.4,399,37.3L399,37.3z"/>
				<circle fill="#4D4D4D" stroke="#E6E6E6" stroke-miterlimit="10" cx="395.1" cy="37.2" r="2.3"/>
				<text transform="matrix(1 0 0 1 385.6142 39.3878)" fill="#1A1A1A" font-family="'FZLTXIHJW--GB1-0'" font-size="5.6719px">12</text>
			</g>
		</g>
		<g>
			<g>
				<path fill="#1A1A1A" d="M421.5,37.3c0,1.9-1.5,3.4-3.4,3.4h-8.3c-1.9,0-3.4-1.5-3.4-3.4l0,0c0-1.9,1.5-3.4,3.4-3.4h8.3
					C420,33.9,421.5,35.4,421.5,37.3L421.5,37.3z"/>
				<circle fill="#1A1A1A" stroke="#E6E6E6" stroke-miterlimit="10" cx="417.5" cy="37.2" r="2.3"/>
				<text transform="matrix(1 0 0 1 409.0725 39.3878)" fill="#FFFFFF" font-family="'FZLTXIHJW--GB1-0'" font-size="5.6719px">9</text>
			</g>
			<g>
				<path fill="none" stroke="#1A1A1A" stroke-miterlimit="10" d="M440.4,37.3c0,1.9-1.5,3.4-3.4,3.4h-8.3c-1.9,0-3.4-1.5-3.4-3.4
					l0,0c0-1.9,1.5-3.4,3.4-3.4h8.3C438.9,33.9,440.4,35.4,440.4,37.3L440.4,37.3z"/>
				<circle fill="#4D4D4D" stroke="#E6E6E6" stroke-miterlimit="10" cx="436.5" cy="37.2" r="2.3"/>
				<text transform="matrix(1 0 0 1 426.9785 39.3878)" fill="#1A1A1A" font-family="'FZLTXIHJW--GB1-0'" font-size="5.6719px">13</text>
			</g>
		</g>
		<g>
			<g>
				<path fill="#1A1A1A" d="M462.9,37.3c0,1.9-1.5,3.4-3.4,3.4h-8.3c-1.9,0-3.4-1.5-3.4-3.4l0,0c0-1.9,1.5-3.4,3.4-3.4h8.3
					C461.3,33.9,462.9,35.4,462.9,37.3L462.9,37.3z"/>
				<circle fill="#1A1A1A" stroke="#E6E6E6" stroke-miterlimit="10" cx="458.9" cy="37.2" r="2.3"/>
				<text transform="matrix(1 0 0 1 449.4375 39.3878)" fill="#FFFFFF" font-family="'FZLTXIHJW--GB1-0'" font-size="5.6719px">10</text>
			</g>
			<g>
				<path fill="none" stroke="#1A1A1A" stroke-miterlimit="10" d="M481.8,37.3c0,1.9-1.5,3.4-3.4,3.4h-8.3c-1.9,0-3.4-1.5-3.4-3.4
					l0,0c0-1.9,1.5-3.4,3.4-3.4h8.3C480.2,33.9,481.8,35.4,481.8,37.3L481.8,37.3z"/>
				<circle fill="#4D4D4D" stroke="#E6E6E6" stroke-miterlimit="10" cx="477.8" cy="37.2" r="2.3"/>
				<text transform="matrix(1 0 0 1 468.3437 39.3878)" fill="#1A1A1A" font-family="'FZLTXIHJW--GB1-0'" font-size="5.6719px">14</text>
			</g>
		</g>
		<g>
			<g>
				<path fill="#1A1A1A" d="M504.2,37.3c0,1.9-1.5,3.4-3.4,3.4h-8.3c-1.9,0-3.4-1.5-3.4-3.4l0,0c0-1.9,1.5-3.4,3.4-3.4h8.3
					C502.7,33.9,504.2,35.4,504.2,37.3L504.2,37.3z"/>
				<circle fill="#1A1A1A" stroke="#E6E6E6" stroke-miterlimit="10" cx="500.3" cy="37.2" r="2.3"/>
				<text transform="matrix(1 0 0 1 490.8017 39.3878)" fill="#FFFFFF" font-family="'FZLTXIHJW--GB1-0'" font-size="5.6719px">11</text>
			</g>
			<g>
				<path fill="none" stroke="#1A1A1A" stroke-miterlimit="10" d="M523.1,37.3c0,1.9-1.5,3.4-3.4,3.4h-8.3c-1.9,0-3.4-1.5-3.4-3.4
					l0,0c0-1.9,1.5-3.4,3.4-3.4h8.3C521.6,33.9,523.1,35.4,523.1,37.3L523.1,37.3z"/>
				<circle fill="#4D4D4D" stroke="#E6E6E6" stroke-miterlimit="10" cx="519.2" cy="37.2" r="2.3"/>
				<text transform="matrix(1 0 0 1 509.708 39.3878)" fill="#1A1A1A" font-family="'FZLTXIHJW--GB1-0'" font-size="5.6719px">15</text>
			</g>
		</g>
	</g>
	<g>
		<g>
			<g>
				<path fill="#1A1A1A" d="M568.2,37.3c0,1.9-1.5,3.4-3.4,3.4h-8.3c-1.9,0-3.4-1.5-3.4-3.4l0,0c0-1.9,1.5-3.4,3.4-3.4h8.3
					C566.6,33.9,568.2,35.4,568.2,37.3L568.2,37.3z"/>
				<circle fill="#1A1A1A" stroke="#E6E6E6" stroke-miterlimit="10" cx="564.2" cy="37.2" r="2.3"/>
				<text transform="matrix(1 0 0 1 554.7383 39.3878)" fill="#FFFFFF" font-family="'FZLTXIHJW--GB1-0'" font-size="5.6719px">16</text>
			</g>
			<g>
				<path fill="none" stroke="#1A1A1A" stroke-miterlimit="10" d="M587.1,37.3c0,1.9-1.5,3.4-3.4,3.4h-8.3c-1.9,0-3.4-1.5-3.4-3.4
					l0,0c0-1.9,1.5-3.4,3.4-3.4h8.3C585.5,33.9,587.1,35.4,587.1,37.3L587.1,37.3z"/>
				<circle fill="#4D4D4D" stroke="#E6E6E6" stroke-miterlimit="10" cx="583.1" cy="37.2" r="2.3"/>
				<text transform="matrix(1 0 0 1 573.6445 39.3878)" fill="#1A1A1A" font-family="'FZLTXIHJW--GB1-0'" font-size="5.6719px">12</text>
			</g>
		</g>
		<g>
			<g>
				<path fill="#1A1A1A" d="M609.5,37.3c0,1.9-1.5,3.4-3.4,3.4h-8.3c-1.9,0-3.4-1.5-3.4-3.4l0,0c0-1.9,1.5-3.4,3.4-3.4h8.3
					C608,33.9,609.5,35.4,609.5,37.3L609.5,37.3z"/>
				<circle fill="#1A1A1A" stroke="#E6E6E6" stroke-miterlimit="10" cx="605.6" cy="37.2" r="2.3"/>
				<text transform="matrix(1 0 0 1 596.1028 39.3878)" fill="#FFFFFF" font-family="'FZLTXIHJW--GB1-0'" font-size="5.6719px">17</text>
			</g>
			<g>
				<path fill="none" stroke="#1A1A1A" stroke-miterlimit="10" d="M628.4,37.3c0,1.9-1.5,3.4-3.4,3.4h-8.3c-1.9,0-3.4-1.5-3.4-3.4
					l0,0c0-1.9,1.5-3.4,3.4-3.4h8.3C626.9,33.9,628.4,35.4,628.4,37.3L628.4,37.3z"/>
				<circle fill="#4D4D4D" stroke="#E6E6E6" stroke-miterlimit="10" cx="624.5" cy="37.2" r="2.3"/>
				<text transform="matrix(1 0 0 1 615.0088 39.3878)" fill="#1A1A1A" font-family="'FZLTXIHJW--GB1-0'" font-size="5.6719px">13</text>
			</g>
		</g>
		<g>
			<g>
				<path fill="#1A1A1A" d="M650.9,37.3c0,1.9-1.5,3.4-3.4,3.4h-8.3c-1.9,0-3.4-1.5-3.4-3.4l0,0c0-1.9,1.5-3.4,3.4-3.4h8.3
					C649.4,33.9,650.9,35.4,650.9,37.3L650.9,37.3z"/>
				<circle fill="#1A1A1A" stroke="#E6E6E6" stroke-miterlimit="10" cx="646.9" cy="37.2" r="2.3"/>
				<text transform="matrix(1 0 0 1 637.4678 39.3878)" fill="#FFFFFF" font-family="'FZLTXIHJW--GB1-0'" font-size="5.6719px">18</text>
			</g>
			<g>
				<path fill="none" stroke="#1A1A1A" stroke-miterlimit="10" d="M669.8,37.3c0,1.9-1.5,3.4-3.4,3.4h-8.3c-1.9,0-3.4-1.5-3.4-3.4
					l0,0c0-1.9,1.5-3.4,3.4-3.4h8.3C668.3,33.9,669.8,35.4,669.8,37.3L669.8,37.3z"/>
				<circle fill="#4D4D4D" stroke="#E6E6E6" stroke-miterlimit="10" cx="665.8" cy="37.2" r="2.3"/>
				<text transform="matrix(1 0 0 1 656.374 39.3878)" fill="#1A1A1A" font-family="'FZLTXIHJW--GB1-0'" font-size="5.6719px">14</text>
			</g>
		</g>
		<g>
			<g>
				<path fill="#1A1A1A" d="M692.3,37.3c0,1.9-1.5,3.4-3.4,3.4h-8.3c-1.9,0-3.4-1.5-3.4-3.4l0,0c0-1.9,1.5-3.4,3.4-3.4h8.3
					C690.7,33.9,692.3,35.4,692.3,37.3L692.3,37.3z"/>
				<circle fill="#1A1A1A" stroke="#E6E6E6" stroke-miterlimit="10" cx="688.3" cy="37.2" r="2.3"/>
				<text transform="matrix(1 0 0 1 678.832 39.3878)" fill="#FFFFFF" font-family="'FZLTXIHJW--GB1-0'" font-size="5.6719px">19</text>
			</g>
			<g>
				<path fill="none" stroke="#1A1A1A" stroke-miterlimit="10" d="M711.2,37.3c0,1.9-1.5,3.4-3.4,3.4h-8.3c-1.9,0-3.4-1.5-3.4-3.4
					l0,0c0-1.9,1.5-3.4,3.4-3.4h8.3C709.6,33.9,711.2,35.4,711.2,37.3L711.2,37.3z"/>
				<circle fill="#4D4D4D" stroke="#E6E6E6" stroke-miterlimit="10" cx="707.2" cy="37.2" r="2.3"/>
				<text transform="matrix(1 0 0 1 697.7383 39.3878)" fill="#1A1A1A" font-family="'FZLTXIHJW--GB1-0'" font-size="5.6719px">15</text>
			</g>
		</g>
	</g>
	<path fill="#B3B3B3" d="M356.2,112.3c0,1.7-1.2,3.1-2.6,3.1H196.2c-1.4,0-2.6-1.4-2.6-3.1V49.8c0-1.7,1.2-3.1,2.6-3.1h157.5
		c1.4,0,2.6,1.4,2.6,3.1V112.3z"/>
	<path fill="#B3B3B3" d="M526.4,112.3c0,1.7-1.2,3.1-2.6,3.1H366.4c-1.4,0-2.6-1.4-2.6-3.1V49.8c0-1.7,1.2-3.1,2.6-3.1h157.5
		c1.4,0,2.6,1.4,2.6,3.1V112.3z"/>
	<path fill="#B3B3B3" d="M717,112.3c0,1.7-1.2,3.1-2.6,3.1H557c-1.4,0-2.6-1.4-2.6-3.1V49.8c0-1.7,1.2-3.1,2.6-3.1h157.5
		c1.4,0,2.6,1.4,2.6,3.1V112.3z"/>
	<rect x="0" y="0" fill="none" width="1275.6" height="126.1"/>
</g>
</svg>
