<?xml version="1.0" encoding="utf-8"?>
<!-- Generator: Adobe Illustrator 21.0.0, SVG Export Plug-In . SVG Version: 6.00 Build 0)  -->
<svg version="1.1" id="图层_1" xmlns="http://www.w3.org/2000/svg" xmlns:xlink="http://www.w3.org/1999/xlink" x="0px" y="0px"
	 width="1417.3px" height="504.6px" viewBox="0 0 1417.3 504.6" enable-background="new 0 0 1417.3 504.6" xml:space="preserve">
<g>
	<rect fill="#333333" width="1417.3" height="504.6"/>
	<linearGradient id="SVGID_2_" gradientUnits="userSpaceOnUse" x1="708.6614" y1="431.5591" x2="708.6614" y2="73.0078">
		<stop  offset="0" style="stop-color:#030000"/>
		<stop  offset="4.601368e-04" style="stop-color:#050202"/>
		<stop  offset="8.342130e-03" style="stop-color:#272626"/>
		<stop  offset="1.629299e-02" style="stop-color:#414242"/>
		<stop  offset="2.424824e-02" style="stop-color:#545656"/>
		<stop  offset="3.221244e-02" style="stop-color:#5F6262"/>
		<stop  offset="4.021009e-02" style="stop-color:#636666"/>
		<stop  offset="5.100247e-02" style="stop-color:#616464"/>
		<stop  offset="5.489007e-02" style="stop-color:#5B5D5D"/>
		<stop  offset="5.766072e-02" style="stop-color:#4F5252"/>
		<stop  offset="5.988484e-02" style="stop-color:#3F4141"/>
		<stop  offset="6.100406e-02" style="stop-color:#343535"/>
		<stop  offset="0.1264" style="stop-color:#2A2C2C"/>
		<stop  offset="0.2273" style="stop-color:#232626"/>
		<stop  offset="0.508" style="stop-color:#212424"/>
		<stop  offset="0.7261" style="stop-color:#242626"/>
		<stop  offset="0.8609" style="stop-color:#2C2E2E"/>
		<stop  offset="0.9298" style="stop-color:#343535"/>
		<stop  offset="0.9525" style="stop-color:#636666"/>
		<stop  offset="1" style="stop-color:#030000"/>
	</linearGradient>
	<path fill="url(#SVGID_2_)" d="M1304.9,431.6H112.4c-13,0-23.6-10.6-23.6-23.6V96.6c0-13,10.6-23.6,23.6-23.6h1192.4
		c13,0,23.6,10.6,23.6,23.6V408C1328.5,421,1317.9,431.6,1304.9,431.6z"/>
	<g>
		<path fill="#2D4B55" d="M910.3,180.5H507.1c-5.8,0-10.5-4.7-10.5-10.5v-39.2c0-5.8,4.7-10.5,10.5-10.5h403.2
			c5.8,0,10.5,4.7,10.5,10.5v39.2C920.8,175.8,916.1,180.5,910.3,180.5z"/>
		<g>
			<path fill="#FCFFFF" d="M564.1,154.7c0,1.8-0.6,3.2-1.7,4.3c-1.1,1.1-2.7,1.6-4.7,1.6c-2,0-3.5-0.5-4.6-1.6
				c-1.1-1.1-1.6-2.5-1.6-4.1V154h2.7v0.7c0,1.2,0.4,2.1,1.1,2.7c0.7,0.6,1.5,0.9,2.5,0.9c1.3,0,2.2-0.3,2.8-1
				c0.6-0.7,0.9-1.5,0.9-2.4c0-0.8-0.4-1.5-1.1-2.2c-0.7-0.7-1.7-1.3-3.1-1.8c-1.9-0.7-3.2-1.5-4.1-2.4c-0.8-0.9-1.2-1.9-1.2-3.1
				c0-1.6,0.6-3,1.7-4c1.1-1,2.5-1.5,4.1-1.5c2,0,3.5,0.6,4.4,1.8c0.9,1.2,1.4,2.5,1.4,3.9h-2.7c0.1-0.9-0.2-1.6-0.7-2.4
				c-0.5-0.7-1.3-1.1-2.4-1.1c-0.9,0-1.7,0.3-2.2,0.8c-0.6,0.5-0.8,1.2-0.8,2.1c0,0.7,0.2,1.3,0.6,1.8c0.4,0.5,1.5,1.1,3.4,1.8
				c1.7,0.7,3.1,1.6,4,2.5C563.6,152.4,564.1,153.5,564.1,154.7z"/>
			<path fill="#FCFFFF" d="M578.7,153.7c0,2.4-0.5,4.2-1.6,5.3c-1.1,1.1-2.5,1.6-4.3,1.6c-1.6,0-3-0.5-4.1-1.6
				c-1.1-1.1-1.6-2.8-1.6-5.1v-1.3h2.7v1.6c0,1.4,0.3,2.4,0.9,3c0.6,0.6,1.3,0.9,2.1,0.9c1.1,0,1.9-0.3,2.5-0.9
				c0.5-0.6,0.8-1.8,0.8-3.4v-13.5h2.7V153.7z"/>
			<path fill="#FCFFFF" d="M594.8,140.3l-5.5,11.1v9.1h-2.7v-9.1l-5.5-11.1h2.7l4.1,8.6h0.1l4.1-8.6H594.8z"/>
			<path fill="#FCFFFF" d="M602.2,144c-1,1-2.3,2-3.9,2.9v-2.2c2-1.3,3.6-2.9,4.8-4.7h1.4v20.3h-2.4V144z"/>
			<path fill="#FCFFFF" d="M613.3,154.7c0.5,2.1,1.5,3.3,2.8,3.5c1.3,0.2,2.4,0.1,3.2-0.4c0.8-0.5,1.4-1.2,1.8-2
				c0.4-0.8,0.5-1.7,0.5-2.8c0-1-0.3-1.9-0.8-2.6c-0.5-0.7-1.2-1.2-1.9-1.4c-0.8-0.2-1.7-0.2-2.6,0c-1,0.2-1.8,0.8-2.4,1.6l-2-0.2
				c0.2-0.5,0.9-3.8,2.2-10.1h9.3v2.1h-7.5c-0.4,2.1-0.8,3.8-1.2,5.1c1.2-0.5,2.3-0.8,3.3-0.8c1,0,2,0.3,2.9,0.7
				c0.9,0.4,1.6,1,2.1,1.8c0.4,0.7,0.7,1.5,0.9,2.2c0.2,0.7,0.3,1.6,0.2,2.4c0,0.9-0.2,1.7-0.5,2.6c-0.3,0.9-0.8,1.6-1.4,2.2
				s-1.4,1.1-2.3,1.4c-0.9,0.4-1.9,0.5-3.1,0.4c-1.2-0.1-2.3-0.5-3.4-1.3c-1.1-0.8-1.8-2.1-2.2-4L613.3,154.7z"/>
			<path fill="#FCFFFF" d="M639.8,151h-13.4v-1.9h13.4V151z"/>
			<path fill="#FCFFFF" d="M654.8,152.4c-0.1,3-0.7,5.1-1.9,6.4c-1.2,1.3-2.6,1.9-4.2,1.9c-1.9,0-3.5-0.8-4.8-2.3
				c-1.3-1.5-2-4-2-7.4c0-3.7,0.6-6.4,1.9-8.2c1.3-1.8,3-2.7,5-2.7c1.7,0,3.2,0.6,4.3,1.9c1.1,1.3,1.7,3.1,1.6,5.5h-2.6
				c0-1.7-0.3-3-0.8-3.9c-0.6-0.9-1.4-1.3-2.5-1.3c-1.3,0-2.3,0.6-3,1.9c-0.7,1.3-1.1,3.5-1.1,6.5c0,2.8,0.4,4.8,1.1,5.9
				c0.7,1.1,1.7,1.7,2.9,1.7c0.9,0,1.6-0.4,2.4-1.2c0.7-0.8,1.1-2.4,1.1-4.8H654.8z"/>
			<path fill="#FCFFFF" d="M698.5,142.1v17.4c0,1.6-0.4,2.6-1.1,3c-0.7,0.4-1.7,0.7-2.9,1c-0.3-1.2-0.7-2.1-1.2-2.8
				c1.1,0,1.9,0,2.4-0.1c0.5-0.1,0.7-0.7,0.7-1.8V153h-4.6c-0.2,2-0.4,3.8-0.8,5.4c-0.4,1.6-0.9,3.3-1.6,4.8c-0.6-0.5-1.4-1-2.2-1.4
				c0.9-1.7,1.6-3.4,1.9-4.9c0.4-1.5,0.6-3.1,0.7-4.7c0.1-1.6,0.2-4,0.2-7.4c0-3.4,0-5.7-0.1-7.1h8.8
				C698.6,138.4,698.5,139.9,698.5,142.1z M696.4,151v-4.7h-4.4l-0.1,4.7H696.4z M696.4,144.3v-4.5h-4.4v4.5H696.4z M703.5,163.7
				h-2.2c0.1-1.9,0.1-3.7,0.1-5.3V142c0-1.3,0-2.8-0.1-4.4h11c-0.1,1.1-0.2,2.3-0.2,3.6c-0.1,1.3-0.2,2.3-0.4,2.9
				c-0.2,0.7-0.6,1.2-1.4,1.5c-0.8,0.3-1.8,0.6-3.1,0.7c-0.2-0.9-0.6-1.7-1.1-2.4c2,0,3.1-0.2,3.3-0.6c0.2-0.4,0.4-1.7,0.4-3.7h-6.2
				v7.9h9.8c-0.3,2-0.7,3.9-1.2,5.5c-0.5,1.6-1.1,3.2-1.9,4.8c1.3,1.6,2.9,2.7,4.6,3.5c-0.6,0.5-1.1,1.1-1.6,2
				c-1.5-1-2.9-2.3-4.2-3.8c-0.9,1.3-2.2,2.7-3.9,4.2c-0.4-0.7-0.8-1.3-1.3-1.9c1.1-0.8,2.3-2.1,3.7-4c-1-1.3-2-4.1-3.1-8.4h-0.8
				V163.7z M708.7,156c0.9-1.8,1.6-4,2-6.5h-4.2C707.1,152.5,707.8,154.7,708.7,156z"/>
			<path fill="#FCFFFF" d="M728,139.6H741c-0.7,1.2-1.6,2.4-2.8,3.8c-1.1,1.3-2.6,2.6-4.3,3.8c1.1,0.7,2.6,1.2,4.5,1.6
				c1.9,0.4,4.1,0.6,6.7,0.6c-0.6,0.7-1.1,1.5-1.3,2.5c-2.2-0.2-4.4-0.5-6.5-1.2c-2.1-0.6-3.9-1.4-5.3-2.2c-2.5,1.2-4.8,2-6.8,2.6
				c-2,0.6-4,1-6,1.3c-0.3-0.9-0.8-1.8-1.4-2.5c1.7,0,3.7-0.2,5.9-0.7c2.2-0.5,4.4-1.1,6.5-2c-1.6-1.6-3.1-3.2-4.2-4.8
				c-1.3,1.6-2.7,3-4.1,4.1c-0.6-0.6-1.3-1.1-2.1-1.4c2.2-1.6,3.8-3.1,4.8-4.5c1-1.5,1.8-2.8,2.2-4.1c1,0.6,2,1,2.8,1.3
				C729,138.2,728.4,138.8,728,139.6z M729.4,153.2c0.2-0.9,0.2-2,0.2-3.3c0.9,0.2,1.9,0.3,2.8,0.4c-0.2,0.5-0.5,1.5-0.7,2.9h9.5
				c-0.1,0.9-0.2,2-0.2,3.2c-0.1,1.2-0.2,2.5-0.4,3.9c-0.2,1.4-0.8,2.2-1.7,2.5c-0.9,0.2-2.4,0.5-4.5,0.7c-0.2-1-0.5-1.9-1.2-2.6
				c2.3,0,3.7-0.1,4.1-0.2c0.5-0.2,0.8-0.6,0.9-1.3l0.4-4.5h-7.2c-1.1,3.4-2.7,5.6-4.7,6.6c-2,1-4.1,1.9-6.4,2.7
				c-0.2-0.7-0.8-1.5-1.6-2.5c1.9-0.2,3.8-0.7,5.9-1.8c2-1,3.5-2.7,4.4-5.1h-2.7c-2.4,0-4.1,0.1-5.2,0.2v-2.1
				c1.2,0.1,2.9,0.1,5.3,0.1H729.4z M736.8,141.3H728c1.5,2,2.9,3.5,4.2,4.5C733.8,144.9,735.3,143.4,736.8,141.3z"/>
			<path fill="#FCFFFF" d="M752.1,151.6c1.4-0.2,2.6-0.5,3.7-0.9c1.1-0.4,2.1-1.1,3-2h-5.2c-0.9,0-2.4,0-4.6,0.1v-2
				c2.2,0.1,3.7,0.1,4.6,0.1h5.8c0.2-0.7,0.3-1.6,0.2-2.6c1,0.2,2.1,0.3,3.2,0.5c-0.5,0.5-0.7,1.2-0.8,2.1h5.3
				c-0.6-0.5-1.1-1-1.6-1.4l1.6-1.2c0.6,0.5,1.2,1,1.8,1.6c-0.5,0.2-0.9,0.5-1.4,0.9h1.8c1.7,0,3.3,0,4.7-0.1v2
				c-1.3-0.1-2.9-0.1-4.7-0.1h-5.9c1.5,1.3,3.4,2.1,5.7,2.4c2.3,0.4,4.3,0.5,5.9,0.3c-0.6,0.8-1,1.6-1.2,2.6c-2-0.2-3.6-0.4-5-0.6
				c-1.4-0.3-2.6-0.7-3.8-1.2c-1.1-0.5-2.5-1.6-3.9-3.2c-1.4,1.8-3.3,3.1-5.5,3.8c-2.3,0.7-4.6,1.3-6.8,1.6
				c-0.2-0.9-0.6-1.7-1.2-2.4C749.2,151.9,750.7,151.8,752.1,151.6z M759.5,140.6c0,1.1,0,2.2,0.1,3.3h-9.2c0.1-1.1,0.1-2.2,0.1-3.3
				c0-1.2,0-2.3-0.1-3.3h9.2C759.6,138.3,759.5,139.4,759.5,140.6z M757.6,163.6v-2.1h-5.1v2.2h-2.1c0.1-1.3,0.1-3,0.1-4.9
				c0-2,0-3.5-0.1-4.5h9.2c-0.1,1.3-0.1,2.8-0.1,4.7c0,1.8,0,3.3,0.1,4.6H757.6z M757.6,142.3V139h-5.1v3.3H757.6z M757.6,159.8V156
				h-5.1v3.8H757.6z M772,140.5c0,1.1,0,2.2,0.1,3.4h-9.9c0.1-1.2,0.1-2.3,0.1-3.4c0-1.2,0-2.2-0.1-3.2h9.9
				C772.1,138.3,772,139.4,772,140.5z M770,163.7v-2.2h-5.7v2.1h-2c0.1-1.7,0.1-3.3,0.1-4.8c0-1.6,0-3.1-0.1-4.5h9.8
				c-0.1,0.9-0.1,2.6-0.1,4.8c0,2.2,0,3.7,0.1,4.6H770z M770,142.3V139h-5.7v3.3H770z M770,159.8V156h-5.7v3.8H770z"/>
			<path fill="#FCFFFF" d="M795.2,148c-1.6,1.2-3.5,2.3-5.6,3.4h5.9c1.6,0,2.5-0.9,2.5-2.7c0.8,0.5,1.7,0.9,2.8,1.3
				c-0.8,1.7-1.5,2.7-2.1,3c-0.6,0.3-1.4,0.4-2.4,0.4H790c-2,0.1-3.1,0-3.3-0.4c-3.3,1.1-5.8,1.9-7.5,2.4c-0.3-0.8-0.8-1.6-1.5-2.4
				c1.9-0.2,3.5-0.4,4.8-0.8c1.3-0.4,2.5-0.8,3.5-1.2V148c0-0.8,0-1.8-0.1-3.1h2.7c-0.1,1.2-0.1,2.2-0.1,2.9v2
				c1.2-0.5,2.6-1.4,4.2-2.5c1.6-1.1,3.1-2.5,4.2-4.2c0.5,0.5,1.3,1.1,2.4,2C798.1,145.9,796.8,146.9,795.2,148z M801.8,144.1v-2.7
				h-19.9v2.8h-2.6c0.1-0.5,0.1-1.2,0.1-2.1c0-0.9,0-1.8-0.1-2.7h11.2c-0.2-0.7-0.5-1.5-0.9-2.2c0.7-0.2,1.6-0.5,2.6-0.8
				c0.3,0.5,0.7,1.5,1.2,3.1h11.1c-0.1,1-0.1,1.9-0.1,2.6c0,0.6,0,1.3,0.1,2.1H801.8z M782.3,150.4c-1-0.3-1.9-0.5-2.6-0.7
				c0.9-1.3,1.5-2.8,2-4.7c0.8,0.2,1.6,0.4,2.6,0.6C783.8,146.9,783.1,148.5,782.3,150.4z M782.3,158.4c0-0.9,0-1.8-0.1-2.7h2.6
				c-0.1,1.1-0.1,2-0.1,2.8v2.5h6.4v-3.3c0-0.8-0.1-1.8-0.2-3.2h2.7c-0.1,0.9-0.1,2-0.1,3.3v3.2h6.6V158c0-0.8,0-1.7-0.1-2.7h2.6
				c-0.1,0.9-0.1,1.9-0.1,2.8v3.9c0,0.6,0,1.4,0.1,2.2h-2.5v-1.4h-17.8c0.1-0.8,0.1-1.5,0.1-2.2V158.4z M788.6,143
				c0.6-0.4,1.3-0.9,1.9-1.4c0.6,0.5,1.7,1.5,3.2,3.1c-0.6,0.5-1.3,1.1-2,1.5C790.6,144.7,789.6,143.7,788.6,143z M805.2,149.4
				c-0.9,0.3-1.6,0.7-2.2,1.2c-0.9-1.5-1.8-2.8-2.9-4c0.6-0.4,1.3-0.8,2.1-1.3C803.2,146.6,804.2,148,805.2,149.4z"/>
			<path fill="#FCFFFF" d="M815.9,138.6c1.1,0,2.3,0,3.5-0.1v2c-1.3-0.1-2.3-0.1-2.9-0.1h-1.8c-0.3,1.9-0.8,4-1.5,6.2h5.7
				c-0.1,1.3-0.1,2.5-0.1,3.5v5.7c0,1,0,2.5,0.1,4.5h-2.1v-2.1h-3.5v3.4H811c0.1-2,0.1-3.5,0.1-4.7v-5.5c-0.6,1-1.2,2.2-1.9,3.4
				c-0.5-0.6-1-1.2-1.6-1.6c1.4-1.9,2.6-4.1,3.4-6.5c0.9-2.5,1.4-4.5,1.5-6.2c-1.4,0-2.8,0-4.2,0.1v-2c1.4,0.1,2.6,0.1,3.7,0.1
				H815.9z M816.8,156.3v-7.8h-3.5v7.8H816.8z M827,154.7c0.9,0,2.4,0,4.5-0.1v2.1c-2.1-0.1-3.9-0.1-5.3-0.1h-3.1
				c-0.9,0-1.9,0-3.2,0.1v-2.1c0.9,0.1,1.9,0.1,3.2,0.1H827z M828.9,149.6l1.2-9.8h-5.4c-1.3,0-2.7,0-4.1,0.1v-2.1
				c1.4,0.2,2.8,0.2,4.1,0.2h7.9c-0.4,2.1-0.9,6-1.5,11.5h3.8c-0.2,0.9-0.3,2.3-0.4,4.4c-0.1,2-0.3,3.9-0.6,5.7
				c-0.3,1.7-0.8,2.8-1.6,3.4c-0.7,0.5-2.2,0.8-4.4,1c-0.1-0.9-0.4-1.7-0.9-2.6c2,0.1,3.3,0,3.9-0.2c0.5-0.2,0.9-1.4,1.2-3.5
				c0.2-2.1,0.4-4.1,0.5-6.2h-11c0.2-1.7,0.5-3.4,0.6-5.1c0.2-1.7,0.3-3.3,0.4-4.9l2.6,0.5c-0.3,0.8-0.6,1.9-0.8,3.2
				c-0.2,1.4-0.4,2.8-0.5,4.4H828.9z"/>
			<path fill="#FCFFFF" d="M849.7,152.2c-0.6,0.5-1.2,1-2,1.5c-0.5-1-1.3-2.4-2.5-4.1v8.6c0,1.6,0,3.3,0.1,5.3h-2.6
				c0.1-2,0.1-3.7,0.1-5.3v-7.5c-0.4,1.2-0.8,2.3-1.3,3.4c-0.5,1.1-1.1,2.3-2,3.6c-0.7-0.8-1.3-1.4-1.9-1.9c0.6-0.7,1.5-2.1,2.5-4.1
				c1-2,1.8-4.3,2.4-6.8h-0.7c-1.1,0-2.2,0.1-3.3,0.2v-2.2c1.1,0.1,2.2,0.1,3.2,0.1h1.2v-2.4c0-1.3,0-2.4-0.1-3.5h2.7
				c-0.2,0.8-0.2,2-0.2,3.5v2.4h1.3c0.9,0,1.8,0,2.9-0.1v2.1c-1.7-0.1-3.1-0.1-4.2-0.1v4.7c0.5-0.4,1-0.8,1.6-1.3
				C848.2,149.9,849.1,151.2,849.7,152.2z M860.7,144.1v15.3c0,1,0.2,1.6,0.7,1.6c0.5,0.1,0.9,0.1,1.2,0.1c0.3,0,0.5-0.3,0.6-0.8
				c0.1-0.5,0.2-1.3,0.2-2.3c0.7,0.4,1.5,0.7,2.5,0.9c-0.3,1.6-0.6,2.7-0.9,3.3c-0.3,0.5-0.8,0.8-1.5,0.8h-2.5
				c-0.9,0-1.6-0.2-2.1-0.6c-0.4-0.4-0.6-1.3-0.5-2.6v-19.3h-4.5c0,4.5-0.1,7.9-0.2,10.4c-0.1,2.5-0.5,4.7-1.1,6.7
				c-0.6,2-1.7,4-3.5,6.1c-0.4-0.5-1.1-1.1-2.1-1.9c1.1-0.9,2-1.9,2.6-3.2c0.7-1.3,1.1-2.5,1.4-3.9c0.2-1.3,0.4-2.7,0.5-4.2
				c0.1-1.5,0.1-3.4,0.1-5.7c0-2.4,0-4.5-0.1-6.4h9.3C860.7,140.7,860.7,142.6,860.7,144.1z"/>
		</g>
	</g>
	<path fill="#ABB498" d="M442.1,331.5H149.6c-2.9,0-5.3-2.4-5.3-5.3v-83.5c0-2.9,2.4-5.3,5.3-5.3h292.5c2.9,0,5.3,2.4,5.3,5.3v83.5
		C447.4,329.1,445,331.5,442.1,331.5z"/>
	<path fill="#526331" d="M442.1,327.1H149.6c-2.9,0-5.3-2.4-5.3-5.3v-83.5c0-2.9,2.4-5.3,5.3-5.3h292.5c2.9,0,5.3,2.4,5.3,5.3v83.5
		C447.4,324.8,445,327.1,442.1,327.1z"/>
	<circle fill="#7DF67D" cx="157.8" cy="381.6" r="7.7"/>
	<circle fill="#7DF67D" cx="295.9" cy="381.6" r="7.7"/>
	<circle fill="#F6215E" cx="434" cy="381.6" r="7.7"/>
	<path fill="none" stroke="#FFFCFD" stroke-width="2" stroke-miterlimit="10" d="M1226.6,369.7H859.5c-7.6,0-13.8-6.2-13.8-13.8
		V232.4c0-7.6,6.2-13.8,13.8-13.8h367.1c7.6,0,13.8,6.2,13.8,13.8v123.5C1240.4,363.5,1234.2,369.7,1226.6,369.7z"/>
	<g>
		<path fill="#63AC6F" stroke="#FFFFFF" stroke-miterlimit="10" d="M908.4,270h-24.7c-2.2,0-4-1.8-4-4v-24.7c0-2.2,1.8-4,4-4h24.7
			c2.2,0,4,1.8,4,4V266C912.4,268.2,910.6,270,908.4,270z"/>
		<path fill="#D76096" stroke="#FFFFFF" stroke-miterlimit="10" d="M908.4,310.5h-24.7c-2.2,0-4-1.8-4-4v-24.7c0-2.2,1.8-4,4-4h24.7
			c2.2,0,4,1.8,4,4v24.7C912.4,308.7,910.6,310.5,908.4,310.5z"/>
		<path fill="#528CC5" stroke="#FFFFFF" stroke-miterlimit="10" d="M908.4,350.9h-24.7c-2.2,0-4-1.8-4-4v-24.7c0-2.2,1.8-4,4-4h24.7
			c2.2,0,4,1.8,4,4V347C912.4,349.2,910.6,350.9,908.4,350.9z"/>
		<path fill="#528CC5" stroke="#FFFFFF" stroke-miterlimit="10" d="M950.4,270h-24.7c-2.2,0-4-1.8-4-4v-24.7c0-2.2,1.8-4,4-4h24.7
			c2.2,0,4,1.8,4,4V266C954.4,268.2,952.6,270,950.4,270z"/>
		<path fill="#528CC5" stroke="#FFFFFF" stroke-miterlimit="10" d="M950.4,310.5h-24.7c-2.2,0-4-1.8-4-4v-24.7c0-2.2,1.8-4,4-4h24.7
			c2.2,0,4,1.8,4,4v24.7C954.4,308.7,952.6,310.5,950.4,310.5z"/>
		<path fill="#528CC5" stroke="#FFFFFF" stroke-miterlimit="10" d="M950.4,350.9h-24.7c-2.2,0-4-1.8-4-4v-24.7c0-2.2,1.8-4,4-4h24.7
			c2.2,0,4,1.8,4,4V347C954.4,349.2,952.6,350.9,950.4,350.9z"/>
		<path fill="#528CC5" stroke="#FFFFFF" stroke-miterlimit="10" d="M992.4,270h-24.7c-2.2,0-4-1.8-4-4v-24.7c0-2.2,1.8-4,4-4h24.7
			c2.2,0,4,1.8,4,4V266C996.4,268.2,994.6,270,992.4,270z"/>
		<path fill="#528CC5" stroke="#FFFFFF" stroke-miterlimit="10" d="M992.4,310.5h-24.7c-2.2,0-4-1.8-4-4v-24.7c0-2.2,1.8-4,4-4h24.7
			c2.2,0,4,1.8,4,4v24.7C996.4,308.7,994.6,310.5,992.4,310.5z"/>
		<path fill="#528CC5" stroke="#FFFFFF" stroke-miterlimit="10" d="M992.4,350.9h-24.7c-2.2,0-4-1.8-4-4v-24.7c0-2.2,1.8-4,4-4h24.7
			c2.2,0,4,1.8,4,4V347C996.4,349.2,994.6,350.9,992.4,350.9z"/>
		<path fill="#528CC5" stroke="#FFFFFF" stroke-miterlimit="10" d="M1034.4,270h-24.7c-2.2,0-4-1.8-4-4v-24.7c0-2.2,1.8-4,4-4h24.7
			c2.2,0,4,1.8,4,4V266C1038.4,268.2,1036.6,270,1034.4,270z"/>
		<path fill="#528CC5" stroke="#FFFFFF" stroke-miterlimit="10" d="M1034.4,310.5h-24.7c-2.2,0-4-1.8-4-4v-24.7c0-2.2,1.8-4,4-4
			h24.7c2.2,0,4,1.8,4,4v24.7C1038.4,308.7,1036.6,310.5,1034.4,310.5z"/>
		<path fill="#528CC5" stroke="#FFFFFF" stroke-miterlimit="10" d="M1034.4,350.9h-24.7c-2.2,0-4-1.8-4-4v-24.7c0-2.2,1.8-4,4-4
			h24.7c2.2,0,4,1.8,4,4V347C1038.4,349.2,1036.6,350.9,1034.4,350.9z"/>
		<path fill="#528CC5" stroke="#FFFFFF" stroke-miterlimit="10" d="M1076.4,270h-24.7c-2.2,0-4-1.8-4-4v-24.7c0-2.2,1.8-4,4-4h24.7
			c2.2,0,4,1.8,4,4V266C1080.3,268.2,1078.6,270,1076.4,270z"/>
		<path fill="#528CC5" stroke="#FFFFFF" stroke-miterlimit="10" d="M1076.4,310.5h-24.7c-2.2,0-4-1.8-4-4v-24.7c0-2.2,1.8-4,4-4
			h24.7c2.2,0,4,1.8,4,4v24.7C1080.3,308.7,1078.6,310.5,1076.4,310.5z"/>
		<path fill="#528CC5" stroke="#FFFFFF" stroke-miterlimit="10" d="M1076.4,350.9h-24.7c-2.2,0-4-1.8-4-4v-24.7c0-2.2,1.8-4,4-4
			h24.7c2.2,0,4,1.8,4,4V347C1080.3,349.2,1078.6,350.9,1076.4,350.9z"/>
		<path fill="#63AC6F" stroke="#FFFFFF" stroke-miterlimit="10" d="M1118.4,270h-24.7c-2.2,0-4-1.8-4-4v-24.7c0-2.2,1.8-4,4-4h24.7
			c2.2,0,4,1.8,4,4V266C1122.3,268.2,1120.6,270,1118.4,270z"/>
		<path fill="#63AC6F" stroke="#FFFFFF" stroke-miterlimit="10" d="M1118.4,310.5h-24.7c-2.2,0-4-1.8-4-4v-24.7c0-2.2,1.8-4,4-4
			h24.7c2.2,0,4,1.8,4,4v24.7C1122.3,308.7,1120.6,310.5,1118.4,310.5z"/>
		<path fill="#63AC6F" stroke="#FFFFFF" stroke-miterlimit="10" d="M1118.4,350.9h-24.7c-2.2,0-4-1.8-4-4v-24.7c0-2.2,1.8-4,4-4
			h24.7c2.2,0,4,1.8,4,4V347C1122.3,349.2,1120.6,350.9,1118.4,350.9z"/>
		<path fill="#63AC6F" stroke="#FFFFFF" stroke-miterlimit="10" d="M1160.4,270h-24.7c-2.2,0-4-1.8-4-4v-24.7c0-2.2,1.8-4,4-4h24.7
			c2.2,0,4,1.8,4,4V266C1164.3,268.2,1162.5,270,1160.4,270z"/>
		<path fill="#63AC6F" stroke="#FFFFFF" stroke-miterlimit="10" d="M1160.4,310.5h-24.7c-2.2,0-4-1.8-4-4v-24.7c0-2.2,1.8-4,4-4
			h24.7c2.2,0,4,1.8,4,4v24.7C1164.3,308.7,1162.5,310.5,1160.4,310.5z"/>
		<path fill="#63AC6F" stroke="#FFFFFF" stroke-miterlimit="10" d="M1160.4,350.9h-24.7c-2.2,0-4-1.8-4-4v-24.7c0-2.2,1.8-4,4-4
			h24.7c2.2,0,4,1.8,4,4V347C1164.3,349.2,1162.5,350.9,1160.4,350.9z"/>
		<path fill="#63AC6F" stroke="#FFFFFF" stroke-miterlimit="10" d="M1202.3,270h-24.7c-2.2,0-4-1.8-4-4v-24.7c0-2.2,1.8-4,4-4h24.7
			c2.2,0,4,1.8,4,4V266C1206.3,268.2,1204.5,270,1202.3,270z"/>
		<path fill="#63AC6F" stroke="#FFFFFF" stroke-miterlimit="10" d="M1202.3,310.5h-24.7c-2.2,0-4-1.8-4-4v-24.7c0-2.2,1.8-4,4-4
			h24.7c2.2,0,4,1.8,4,4v24.7C1206.3,308.7,1204.5,310.5,1202.3,310.5z"/>
		<path fill="#63AC6F" stroke="#FFFFFF" stroke-miterlimit="10" d="M1202.3,350.9h-24.7c-2.2,0-4-1.8-4-4v-24.7c0-2.2,1.8-4,4-4
			h24.7c2.2,0,4,1.8,4,4V347C1206.3,349.2,1204.5,350.9,1202.3,350.9z"/>
	</g>
	<g>
		<linearGradient id="SVGID_4_" gradientUnits="userSpaceOnUse" x1="53.2022" y1="441.9187" x2="53.2022" y2="65.438">
			<stop  offset="0" style="stop-color:#000000"/>
			<stop  offset="8.318706e-02" style="stop-color:#93969E"/>
			<stop  offset="9.174727e-02" style="stop-color:#898C93"/>
			<stop  offset="0.1235" style="stop-color:#6A6C72"/>
			<stop  offset="0.1588" style="stop-color:#4F5154"/>
			<stop  offset="0.1978" style="stop-color:#393A3D"/>
			<stop  offset="0.242" style="stop-color:#29292A"/>
			<stop  offset="0.2945" style="stop-color:#1D1D1E"/>
			<stop  offset="0.3635" style="stop-color:#161616"/>
			<stop  offset="0.5127" style="stop-color:#141414"/>
			<stop  offset="0.6233" style="stop-color:#161616"/>
			<stop  offset="0.6854" style="stop-color:#1E1E1F"/>
			<stop  offset="0.7356" style="stop-color:#2A2B2C"/>
			<stop  offset="0.7794" style="stop-color:#3C3D40"/>
			<stop  offset="0.8189" style="stop-color:#54555A"/>
			<stop  offset="0.855" style="stop-color:#707278"/>
			<stop  offset="0.8846" style="stop-color:#8D9098"/>
			<stop  offset="1" style="stop-color:#000000"/>
		</linearGradient>
		<rect x="34.5" y="65.4" fill="url(#SVGID_4_)" width="37.4" height="376.5"/>
		<rect x="34.5" y="66.8" fill="#0C0C0C" width="1.3" height="375.1"/>
		<rect x="70.6" y="66.8" fill="#0C0C0C" width="1.3" height="375.1"/>
	</g>
	<g>
		<linearGradient id="SVGID_6_" gradientUnits="userSpaceOnUse" x1="1365.6366" y1="441.9187" x2="1365.6366" y2="65.438">
			<stop  offset="0" style="stop-color:#000000"/>
			<stop  offset="8.318706e-02" style="stop-color:#93969E"/>
			<stop  offset="9.174727e-02" style="stop-color:#898C93"/>
			<stop  offset="0.1235" style="stop-color:#6A6C72"/>
			<stop  offset="0.1588" style="stop-color:#4F5154"/>
			<stop  offset="0.1978" style="stop-color:#393A3D"/>
			<stop  offset="0.242" style="stop-color:#29292A"/>
			<stop  offset="0.2945" style="stop-color:#1D1D1E"/>
			<stop  offset="0.3635" style="stop-color:#161616"/>
			<stop  offset="0.5127" style="stop-color:#141414"/>
			<stop  offset="0.6233" style="stop-color:#161616"/>
			<stop  offset="0.6854" style="stop-color:#1E1E1F"/>
			<stop  offset="0.7356" style="stop-color:#2A2B2C"/>
			<stop  offset="0.7794" style="stop-color:#3C3D40"/>
			<stop  offset="0.8189" style="stop-color:#54555A"/>
			<stop  offset="0.855" style="stop-color:#707278"/>
			<stop  offset="0.8846" style="stop-color:#8D9098"/>
			<stop  offset="1" style="stop-color:#000000"/>
		</linearGradient>
		<rect x="1346.9" y="65.4" fill="url(#SVGID_6_)" width="37.4" height="376.5"/>
		<rect x="1347" y="66.8" fill="#0C0C0C" width="1.3" height="375.1"/>
		<rect x="1383.1" y="66.8" fill="#0C0C0C" width="1.3" height="375.1"/>
	</g>
	<g>
		<radialGradient id="SVGID_8_" cx="53.8515" cy="30.6864" r="15.411" gradientUnits="userSpaceOnUse">
			<stop  offset="0.6774" style="stop-color:#2B2B2B"/>
			<stop  offset="0.8441" style="stop-color:#595757"/>
			<stop  offset="1" style="stop-color:#000000"/>
		</radialGradient>
		<path fill="url(#SVGID_8_)" d="M69.3,30.7c0,8.5-6.9,15.4-15.4,15.4c-8.5,0-15.4-6.9-15.4-15.4c0-8.5,6.9-15.4,15.4-15.4
			C62.4,15.3,69.3,22.2,69.3,30.7"/>
		<ellipse fill="none" stroke="#131313" stroke-width="0.75" stroke-miterlimit="10" cx="53.9" cy="30.7" rx="15.4" ry="15.4"/>
		<polygon fill="#0A0A0A" points="51.9,39.4 51.9,32.6 45.1,32.6 45.1,28.8 51.9,28.8 51.9,21.9 55.8,21.9 55.8,28.8 62.6,28.8 
			62.6,32.6 55.8,32.6 55.8,39.4 		"/>
		<path fill="#231815" d="M55.4,22.3v6.2v0.6h0.6h6.2v3.2h-6.2h-0.6v0.6v6.2h-3.2v-6.2v-0.6h-0.6h-6.2v-3.2h6.2h0.6v-0.6v-6.2H55.4z
			 M56.1,21.6h-4.5v6.8h-6.8v4.5h6.8v6.8h4.5v-6.8h6.8v-4.5h-6.8V21.6z"/>
	</g>
	<g>
		<radialGradient id="SVGID_10_" cx="53.8515" cy="470.2364" r="15.411" gradientUnits="userSpaceOnUse">
			<stop  offset="0.6774" style="stop-color:#2B2B2B"/>
			<stop  offset="0.8441" style="stop-color:#595757"/>
			<stop  offset="1" style="stop-color:#000000"/>
		</radialGradient>
		<path fill="url(#SVGID_10_)" d="M69.3,470.2c0,8.5-6.9,15.4-15.4,15.4c-8.5,0-15.4-6.9-15.4-15.4c0-8.5,6.9-15.4,15.4-15.4
			C62.4,454.8,69.3,461.7,69.3,470.2"/>
		<ellipse fill="none" stroke="#131313" stroke-width="0.75" stroke-miterlimit="10" cx="53.9" cy="470.2" rx="15.4" ry="15.4"/>
		<polygon fill="#0A0A0A" points="51.9,479 51.9,472.1 45.1,472.1 45.1,468.3 51.9,468.3 51.9,461.5 55.8,461.5 55.8,468.3 
			62.6,468.3 62.6,472.1 55.8,472.1 55.8,479 		"/>
		<path fill="#231815" d="M55.4,461.8v6.2v0.6h0.6h6.2v3.2h-6.2h-0.6v0.6v6.2h-3.2v-6.2v-0.6h-0.6h-6.2v-3.2h6.2h0.6V468v-6.2H55.4z
			 M56.1,461.2h-4.5v6.8h-6.8v4.5h6.8v6.8h4.5v-6.8h6.8V468h-6.8V461.2z"/>
	</g>
	<g>
		<radialGradient id="SVGID_12_" cx="1365.6366" cy="30.6864" r="15.411" gradientUnits="userSpaceOnUse">
			<stop  offset="0.6774" style="stop-color:#2B2B2B"/>
			<stop  offset="0.8441" style="stop-color:#595757"/>
			<stop  offset="1" style="stop-color:#000000"/>
		</radialGradient>
		<path fill="url(#SVGID_12_)" d="M1381,30.7c0,8.5-6.9,15.4-15.4,15.4c-8.5,0-15.4-6.9-15.4-15.4c0-8.5,6.9-15.4,15.4-15.4
			C1374.1,15.3,1381,22.2,1381,30.7"/>
		<ellipse fill="none" stroke="#131313" stroke-width="0.75" stroke-miterlimit="10" cx="1365.6" cy="30.7" rx="15.4" ry="15.4"/>
		<polygon fill="#0A0A0A" points="1363.7,39.4 1363.7,32.6 1356.9,32.6 1356.9,28.8 1363.7,28.8 1363.7,21.9 1367.5,21.9 
			1367.5,28.8 1374.4,28.8 1374.4,32.6 1367.5,32.6 1367.5,39.4 		"/>
		<path fill="#231815" d="M1367.2,22.3v6.2v0.6h0.6h6.2v3.2h-6.2h-0.6v0.6v6.2h-3.2v-6.2v-0.6h-0.6h-6.2v-3.2h6.2h0.6v-0.6v-6.2
			H1367.2z M1367.9,21.6h-4.5v6.8h-6.8v4.5h6.8v6.8h4.5v-6.8h6.8v-4.5h-6.8V21.6z"/>
	</g>
	<g>
		<radialGradient id="SVGID_13_" cx="1365.6366" cy="470.2364" r="15.411" gradientUnits="userSpaceOnUse">
			<stop  offset="0.6774" style="stop-color:#2B2B2B"/>
			<stop  offset="0.8441" style="stop-color:#595757"/>
			<stop  offset="1" style="stop-color:#000000"/>
		</radialGradient>
		<path fill="url(#SVGID_13_)" d="M1381,470.2c0,8.5-6.9,15.4-15.4,15.4c-8.5,0-15.4-6.9-15.4-15.4c0-8.5,6.9-15.4,15.4-15.4
			C1374.1,454.8,1381,461.7,1381,470.2"/>
		<ellipse fill="none" stroke="#131313" stroke-width="0.75" stroke-miterlimit="10" cx="1365.6" cy="470.2" rx="15.4" ry="15.4"/>
		<polygon fill="#0A0A0A" points="1363.7,479 1363.7,472.1 1356.9,472.1 1356.9,468.3 1363.7,468.3 1363.7,461.5 1367.5,461.5 
			1367.5,468.3 1374.4,468.3 1374.4,472.1 1367.5,472.1 1367.5,479 		"/>
		<path fill="#231815" d="M1367.2,461.8v6.2v0.6h0.6h6.2v3.2h-6.2h-0.6v0.6v6.2h-3.2v-6.2v-0.6h-0.6h-6.2v-3.2h6.2h0.6V468v-6.2
			H1367.2z M1367.9,461.2h-4.5v6.8h-6.8v4.5h6.8v6.8h4.5v-6.8h6.8V468h-6.8V461.2z"/>
	</g>
</g>
</svg>
