<?xml version="1.0" encoding="utf-8"?>
<!-- Generator: Adobe Illustrator 21.0.0, SVG Export Plug-In . SVG Version: 6.00 Build 0)  -->
<svg version="1.1" id="图层_1" xmlns="http://www.w3.org/2000/svg" xmlns:xlink="http://www.w3.org/1999/xlink" x="0px" y="0px"
	 width="1417.3px" height="126.1px" viewBox="0 0 1417.3 126.1" enable-background="new 0 0 1417.3 126.1" xml:space="preserve">
<g id="XMLID_8047_">
	<rect id="XMLID_8067_" x="0" y="0" fill="#2D2D2D" width="1417.3" height="126.1"/>
</g>
<rect id="XMLID_8046_" x="0" y="0" fill="#2D2D2D" width="63.8" height="126.1"/>
<rect id="XMLID_8045_" x="61.3" y="0" fill="#070707" width="2.5" height="126.1"/>
<rect id="XMLID_8044_" x="1353.5" y="0" fill="#2D2D2D" width="63.8" height="126.1"/>
<rect id="XMLID_8043_" x="1353.5" y="0" transform="matrix(-1 8.790112e-11 -8.790112e-11 -1 2709.5906 126.1417)" fill="#070707" width="2.5" height="126.1"/>
<g id="XMLID_17_">
	
		<linearGradient id="XMLID_1003_" gradientUnits="userSpaceOnUse" x1="-9577.7959" y1="-3694.2749" x2="-9555.8594" y2="-3694.2749" gradientTransform="matrix(-1 0 0 -1 -9534.9375 -3676.1667)">
		<stop  offset="0" style="stop-color:#FFFFFF"/>
		<stop  offset="5.656110e-02" style="stop-color:#A3A3A4"/>
		<stop  offset="0.3372" style="stop-color:#919292"/>
		<stop  offset="0.3831" style="stop-color:#E0E0DF"/>
		<stop  offset="0.4519" style="stop-color:#C1C0C0"/>
		<stop  offset="0.9264" style="stop-color:#E0E0DF"/>
		<stop  offset="0.9745" style="stop-color:#C1C0C0"/>
	</linearGradient>
	<path id="XMLID_3771_" fill="url(#XMLID_1003_)" d="M42.9,18.1c0-6-4.9-10.9-11-10.9c-6.1,0-11,4.9-11,10.9c0,6,4.9,10.9,11,10.9
		C37.9,29,42.9,24.1,42.9,18.1"/>
	
		<ellipse id="XMLID_3770_" fill="none" stroke="#121212" stroke-width="0.75" stroke-miterlimit="10" cx="31.9" cy="18.1" rx="11" ry="10.9"/>
	<polygon id="XMLID_3754_" fill="#040000" points="30.5,11.9 30.5,16.8 25.7,16.8 25.7,19.5 30.5,19.5 30.5,24.3 33.2,24.3 
		33.2,19.5 38.1,19.5 38.1,16.8 33.2,16.8 33.2,11.9 	"/>
	<path id="XMLID_3750_" fill="#221714" d="M30.8,24.1v-4.4v-0.5h-0.5h-4.4V17h4.4h0.5v-0.5v-4.4H33v4.4V17h0.5h4.4v2.2h-4.4H33v0.5
		v4.4H30.8z M33.5,19.7h4.9v-3.1h-4.9v-4.8h-3.2v4.8h-4.9v3.1h4.9v4.8h3.2V19.7z"/>
	<rect id="XMLID_3748_" x="30.3" y="19.2" fill="#606062" width="0.5" height="5.3"/>
	<rect id="XMLID_3747_" x="25.4" y="19.2" fill="#606062" width="5.3" height="0.5"/>
</g>
<g id="XMLID_7816_">
	
		<linearGradient id="XMLID_1005_" gradientUnits="userSpaceOnUse" x1="-9577.7959" y1="-3785.9387" x2="-9555.8594" y2="-3785.9387" gradientTransform="matrix(-1 0 0 -1 -9534.9375 -3676.1667)">
		<stop  offset="0" style="stop-color:#FFFFFF"/>
		<stop  offset="5.656110e-02" style="stop-color:#A3A3A4"/>
		<stop  offset="0.3372" style="stop-color:#919292"/>
		<stop  offset="0.3831" style="stop-color:#E0E0DF"/>
		<stop  offset="0.4519" style="stop-color:#C1C0C0"/>
		<stop  offset="0.9264" style="stop-color:#E0E0DF"/>
		<stop  offset="0.9745" style="stop-color:#C1C0C0"/>
	</linearGradient>
	<path id="XMLID_8001_" fill="url(#XMLID_1005_)" d="M42.9,109.8c0-6-4.9-10.9-11-10.9c-6.1,0-11,4.9-11,10.9c0,6,4.9,10.9,11,10.9
		C37.9,120.7,42.9,115.8,42.9,109.8"/>
	
		<ellipse id="XMLID_8000_" fill="none" stroke="#121212" stroke-width="0.75" stroke-miterlimit="10" cx="31.9" cy="109.8" rx="11" ry="10.9"/>
	<polygon id="XMLID_7999_" fill="#040000" points="30.5,103.6 30.5,108.4 25.7,108.4 25.7,111.1 30.5,111.1 30.5,115.9 33.2,115.9 
		33.2,111.1 38.1,111.1 38.1,108.4 33.2,108.4 33.2,103.6 	"/>
	<path id="XMLID_7996_" fill="#221714" d="M30.8,115.7v-4.4v-0.5h-0.5h-4.4v-2.2h4.4h0.5v-0.5v-4.4H33v4.4v0.5h0.5h4.4v2.2h-4.4H33
		v0.5v4.4H30.8z M33.5,111.3h4.9v-3.1h-4.9v-4.8h-3.2v4.8h-4.9v3.1h4.9v4.8h3.2V111.3z"/>
	<rect id="XMLID_7995_" x="30.3" y="110.9" fill="#606062" width="0.5" height="5.3"/>
	<rect id="XMLID_7819_" x="25.4" y="110.9" fill="#606062" width="5.3" height="0.5"/>
</g>
<g id="XMLID_8011_">
	
		<linearGradient id="XMLID_1006_" gradientUnits="userSpaceOnUse" x1="-10931.3389" y1="-3694.2749" x2="-10909.4033" y2="-3694.2749" gradientTransform="matrix(-1 0 0 -1 -9534.9375 -3676.1667)">
		<stop  offset="0" style="stop-color:#FFFFFF"/>
		<stop  offset="5.656110e-02" style="stop-color:#A3A3A4"/>
		<stop  offset="0.3372" style="stop-color:#919292"/>
		<stop  offset="0.3831" style="stop-color:#E0E0DF"/>
		<stop  offset="0.4519" style="stop-color:#C1C0C0"/>
		<stop  offset="0.9264" style="stop-color:#E0E0DF"/>
		<stop  offset="0.9745" style="stop-color:#C1C0C0"/>
	</linearGradient>
	<path id="XMLID_8019_" fill="url(#XMLID_1006_)" d="M1396.4,18.1c0-6-4.9-10.9-11-10.9c-6.1,0-11,4.9-11,10.9c0,6,4.9,10.9,11,10.9
		C1391.5,29,1396.4,24.1,1396.4,18.1"/>
	
		<ellipse id="XMLID_8018_" fill="none" stroke="#121212" stroke-width="0.75" stroke-miterlimit="10" cx="1385.4" cy="18.1" rx="11" ry="10.9"/>
	<polygon id="XMLID_8017_" fill="#040000" points="1384.1,11.9 1384.1,16.8 1379.2,16.8 1379.2,19.5 1384.1,19.5 1384.1,24.3 
		1386.8,24.3 1386.8,19.5 1391.7,19.5 1391.7,16.8 1386.8,16.8 1386.8,11.9 	"/>
	<path id="XMLID_8014_" fill="#221714" d="M1384.3,24.1v-4.4v-0.5h-0.5h-4.4V17h4.4h0.5v-0.5v-4.4h2.3v4.4V17h0.5h4.4v2.2h-4.4h-0.5
		v0.5v4.4H1384.3z M1387,19.7h4.9v-3.1h-4.9v-4.8h-3.2v4.8h-4.9v3.1h4.9v4.8h3.2V19.7z"/>
	<rect id="XMLID_8013_" x="1383.8" y="19.2" fill="#606062" width="0.5" height="5.3"/>
	<rect id="XMLID_8012_" x="1379" y="19.2" fill="#606062" width="5.3" height="0.5"/>
</g>
<g id="XMLID_8002_">
	
		<linearGradient id="XMLID_1008_" gradientUnits="userSpaceOnUse" x1="-10931.3389" y1="-3785.9387" x2="-10909.4033" y2="-3785.9387" gradientTransform="matrix(-1 0 0 -1 -9534.9375 -3676.1667)">
		<stop  offset="0" style="stop-color:#FFFFFF"/>
		<stop  offset="5.656110e-02" style="stop-color:#A3A3A4"/>
		<stop  offset="0.3372" style="stop-color:#919292"/>
		<stop  offset="0.3831" style="stop-color:#E0E0DF"/>
		<stop  offset="0.4519" style="stop-color:#C1C0C0"/>
		<stop  offset="0.9264" style="stop-color:#E0E0DF"/>
		<stop  offset="0.9745" style="stop-color:#C1C0C0"/>
	</linearGradient>
	<path id="XMLID_8010_" fill="url(#XMLID_1008_)" d="M1396.4,109.8c0-6-4.9-10.9-11-10.9c-6.1,0-11,4.9-11,10.9
		c0,6,4.9,10.9,11,10.9C1391.5,120.7,1396.4,115.8,1396.4,109.8"/>
	
		<ellipse id="XMLID_8009_" fill="none" stroke="#121212" stroke-width="0.75" stroke-miterlimit="10" cx="1385.4" cy="109.8" rx="11" ry="10.9"/>
	<polygon id="XMLID_8008_" fill="#040000" points="1384.1,103.6 1384.1,108.4 1379.2,108.4 1379.2,111.1 1384.1,111.1 1384.1,115.9 
		1386.8,115.9 1386.8,111.1 1391.7,111.1 1391.7,108.4 1386.8,108.4 1386.8,103.6 	"/>
	<path id="XMLID_8005_" fill="#221714" d="M1384.3,115.7v-4.4v-0.5h-0.5h-4.4v-2.2h4.4h0.5v-0.5v-4.4h2.3v4.4v0.5h0.5h4.4v2.2h-4.4
		h-0.5v0.5v4.4H1384.3z M1387,111.3h4.9v-3.1h-4.9v-4.8h-3.2v4.8h-4.9v3.1h4.9v4.8h3.2V111.3z"/>
	<rect id="XMLID_8004_" x="1383.8" y="110.9" fill="#606062" width="0.5" height="5.3"/>
	<rect id="XMLID_8003_" x="1379" y="110.9" fill="#606062" width="5.3" height="0.5"/>
</g>
<path id="XMLID_13_" fill="#D8D6D2" d="M1340.5,119.7H76.2c-2.7,0-5-2.2-5-5V12.2c0-2.7,2.2-5,5-5h1264.4c2.7,0,5,2.2,5,5v102.5
	C1345.5,117.4,1343.3,119.7,1340.5,119.7z"/>
<g id="XMLID_14_">
	<polygon id="XMLID_20_" fill="#37373A" points="1258.5,15.5 1258.5,22.5 1248.4,22.5 1248.4,15.5 1242.6,15.5 1242.6,32.8 
		1248.4,32.8 1248.4,25.7 1258.5,25.7 1258.5,32.8 1264.3,32.8 1264.3,15.5 	"/>
	<path id="XMLID_19_" fill="#37373A" d="M1283.6,24.1c2.1-0.9,3.4-2.2,3.4-3.7c0-2.8-4.5-4.9-10.2-4.9h-9.2V18h9.2
		c1.8,0,3.4,1.1,3.4,2.4c0,1.3-1.5,2.4-3.3,2.4h0h-7.5v2.5h7.5c1.8,0,3.4,1.2,3.4,2.5c0,1.3-1.5,2.4-3.4,2.4h-9.2v2.5h9.2
		c5.7,0,10.2-2.2,10.2-4.9C1287,26.3,1285.7,25,1283.6,24.1"/>
	<path id="XMLID_18_" fill="#37373A" d="M1303.5,18.3h8.4v-2.9h-12.2v0c-5.7,0-10.4,3.9-10.4,8.6c0,4.7,4.7,8.6,10.4,8.6v0h12.2
		v-2.9h-7.7v0c-4.2,0-7.7-2.6-7.7-5.8C1296.5,21,1299.6,18.5,1303.5,18.3"/>
</g>
<text id="XMLID_21_" transform="matrix(1 0 0 1 1238.8522 47)" font-family="'MicrosoftYaHei'" font-size="8px">H3C  SecPath A2020</text>
<path id="XMLID_22_" fill="#37373A" d="M906,7.2c0,0,87.4,17,120.8,28.8c37.7,13.3,152.4,57.3,318.7,60V79.3
	c0,0-60.6,5.7-148.1-10.8c-87.1-16.4-106.2-31.2-123-55.8c0,0-3.8-5.5,2.9-5.5H906z"/>
<g id="XMLID_7852_">
	<rect id="XMLID_7854_" x="402.1" y="73.1" fill="#030000" width="43.1" height="35.8"/>
	<linearGradient id="XMLID_1009_" gradientUnits="userSpaceOnUse" x1="402.613" y1="91.0356" x2="444.6219" y2="91.0356">
		<stop  offset="0" style="stop-color:#FFFFFF"/>
		<stop  offset="0.1688" style="stop-color:#B1B4B5"/>
		<stop  offset="0.4086" style="stop-color:#E0E0DF"/>
		<stop  offset="0.7581" style="stop-color:#B1B4B5"/>
		<stop  offset="1" style="stop-color:#C2C2C2"/>
	</linearGradient>
	<rect id="XMLID_7853_" x="402.6" y="73.8" fill="url(#XMLID_1009_)" width="42" height="34.5"/>
</g>
<g id="XMLID_3749_">
	<rect id="XMLID_3755_" x="453.5" y="73.1" fill="#030000" width="43.1" height="35.8"/>
	<linearGradient id="XMLID_1010_" gradientUnits="userSpaceOnUse" x1="454.0243" y1="91.0356" x2="496.0331" y2="91.0356">
		<stop  offset="0" style="stop-color:#FFFFFF"/>
		<stop  offset="0.1688" style="stop-color:#B1B4B5"/>
		<stop  offset="0.4086" style="stop-color:#E0E0DF"/>
		<stop  offset="0.7581" style="stop-color:#B1B4B5"/>
		<stop  offset="1" style="stop-color:#C2C2C2"/>
	</linearGradient>
	<rect id="XMLID_3752_" x="454" y="73.8" fill="url(#XMLID_1010_)" width="42" height="34.5"/>
</g>
<g id="XMLID_3773_">
	<rect id="XMLID_3775_" x="504.9" y="73.1" fill="#030000" width="43.1" height="35.8"/>
	<linearGradient id="XMLID_1011_" gradientUnits="userSpaceOnUse" x1="505.4356" y1="91.0356" x2="547.4444" y2="91.0356">
		<stop  offset="0" style="stop-color:#FFFFFF"/>
		<stop  offset="0.1688" style="stop-color:#B1B4B5"/>
		<stop  offset="0.4086" style="stop-color:#E0E0DF"/>
		<stop  offset="0.7581" style="stop-color:#B1B4B5"/>
		<stop  offset="1" style="stop-color:#C2C2C2"/>
	</linearGradient>
	<rect id="XMLID_3774_" x="505.4" y="73.8" fill="url(#XMLID_1011_)" width="42" height="34.5"/>
</g>
<g id="XMLID_3789_">
	<rect id="XMLID_3791_" x="556.3" y="73.1" fill="#030000" width="43.1" height="35.8"/>
	<linearGradient id="XMLID_1099_" gradientUnits="userSpaceOnUse" x1="556.8469" y1="91.0356" x2="598.8557" y2="91.0356">
		<stop  offset="0" style="stop-color:#FFFFFF"/>
		<stop  offset="0.1688" style="stop-color:#B1B4B5"/>
		<stop  offset="0.4086" style="stop-color:#E0E0DF"/>
		<stop  offset="0.7581" style="stop-color:#B1B4B5"/>
		<stop  offset="1" style="stop-color:#C2C2C2"/>
	</linearGradient>
	<rect id="XMLID_3790_" x="556.8" y="73.8" fill="url(#XMLID_1099_)" width="42" height="34.5"/>
</g>
<g id="XMLID_3805_">
	<rect id="XMLID_3807_" x="607.7" y="73.1" fill="#030000" width="43.1" height="35.8"/>
	<linearGradient id="XMLID_1101_" gradientUnits="userSpaceOnUse" x1="608.2582" y1="91.0356" x2="650.267" y2="91.0356">
		<stop  offset="0" style="stop-color:#FFFFFF"/>
		<stop  offset="0.1688" style="stop-color:#B1B4B5"/>
		<stop  offset="0.4086" style="stop-color:#E0E0DF"/>
		<stop  offset="0.7581" style="stop-color:#B1B4B5"/>
		<stop  offset="1" style="stop-color:#C2C2C2"/>
	</linearGradient>
	<rect id="XMLID_3806_" x="608.3" y="73.8" fill="url(#XMLID_1101_)" width="42" height="34.5"/>
</g>
<g id="XMLID_3821_">
	<rect id="XMLID_3823_" x="659.1" y="73.1" fill="#030000" width="43.1" height="35.8"/>
	<linearGradient id="XMLID_1102_" gradientUnits="userSpaceOnUse" x1="659.6694" y1="91.0356" x2="701.6782" y2="91.0356">
		<stop  offset="0" style="stop-color:#FFFFFF"/>
		<stop  offset="0.1688" style="stop-color:#B1B4B5"/>
		<stop  offset="0.4086" style="stop-color:#E0E0DF"/>
		<stop  offset="0.7581" style="stop-color:#B1B4B5"/>
		<stop  offset="1" style="stop-color:#C2C2C2"/>
	</linearGradient>
	<rect id="XMLID_3822_" x="659.7" y="73.8" fill="url(#XMLID_1102_)" width="42" height="34.5"/>
</g>
<g id="XMLID_3837_">
	<rect id="XMLID_3839_" x="756.3" y="73.1" fill="#030000" width="43.1" height="35.8"/>
	<linearGradient id="XMLID_1104_" gradientUnits="userSpaceOnUse" x1="756.8096" y1="91.0356" x2="798.8184" y2="91.0356">
		<stop  offset="0" style="stop-color:#FFFFFF"/>
		<stop  offset="0.1688" style="stop-color:#B1B4B5"/>
		<stop  offset="0.4086" style="stop-color:#E0E0DF"/>
		<stop  offset="0.7581" style="stop-color:#B1B4B5"/>
		<stop  offset="1" style="stop-color:#C2C2C2"/>
	</linearGradient>
	<rect id="XMLID_3838_" x="756.8" y="73.8" fill="url(#XMLID_1104_)" width="42" height="34.5"/>
</g>
<text id="XMLID_139_" transform="matrix(1 0 0 1 759.3848 68.0557)" font-family="'MicrosoftYaHei'" font-size="7px">CONSOLE</text>
<g id="XMLID_3852_">
	<rect id="XMLID_3854_" x="818.2" y="67.6" fill="#030000" width="38.1" height="39.8"/>
	<linearGradient id="XMLID_1105_" gradientUnits="userSpaceOnUse" x1="818.6617" y1="87.4906" x2="855.868" y2="87.4906">
		<stop  offset="0" style="stop-color:#FFFFFF"/>
		<stop  offset="0.1688" style="stop-color:#B1B4B5"/>
		<stop  offset="0.4086" style="stop-color:#E0E0DF"/>
		<stop  offset="0.7581" style="stop-color:#B1B4B5"/>
		<stop  offset="1" style="stop-color:#C2C2C2"/>
	</linearGradient>
	<rect id="XMLID_3853_" x="818.7" y="68.3" fill="url(#XMLID_1105_)" width="37.2" height="38.3"/>
</g>
<linearGradient id="XMLID_1106_" gradientUnits="userSpaceOnUse" x1="-3303.5913" y1="1116.0392" x2="-3292.2776" y2="1116.0392" gradientTransform="matrix(4.489700e-11 -1 1 4.489700e-11 -220.4022 -3221.5356)">
	<stop  offset="0" style="stop-color:#FFFFFF"/>
	<stop  offset="1" style="stop-color:#7F7F7F"/>
</linearGradient>
<circle id="XMLID_3867_" fill="url(#XMLID_1106_)" cx="895.6" cy="76.4" r="5.7"/>
<g id="XMLID_3864_">
	<defs>
		<path id="XMLID_3865_" d="M890.5,76.4c0,2.8,2.3,5.1,5.1,5.1c2.8,0,5.1-2.3,5.1-5.1c0-2.8-2.3-5.1-5.1-5.1
			C892.8,71.3,890.5,73.6,890.5,76.4"/>
	</defs>
	<clipPath id="XMLID_1109_">
		<use xlink:href="#XMLID_3865_"  overflow="visible"/>
	</clipPath>
	
		<radialGradient id="XMLID_1112_" cx="917.7997" cy="5435.9727" r="0.481" gradientTransform="matrix(8.2859 0 0 8.2859 -6710.4067 -44967.3398)" gradientUnits="userSpaceOnUse">
		<stop  offset="0" style="stop-color:#FFFFFF"/>
		<stop  offset="1" style="stop-color:#8DC21F"/>
	</radialGradient>
	<rect id="XMLID_3866_" x="890.5" y="71.3" clip-path="url(#XMLID_1109_)" fill="url(#XMLID_1112_)" width="10.2" height="10.2"/>
</g>
<text id="XMLID_3855_" transform="matrix(1 0 0 1 908.765 79.1885)" font-family="'MicrosoftYaHei'" font-size="7.1488px">PWR</text>
<linearGradient id="XMLID_1165_" gradientUnits="userSpaceOnUse" x1="-3322.7239" y1="1116.0392" x2="-3311.4102" y2="1116.0392" gradientTransform="matrix(4.489700e-11 -1 1 4.489700e-11 -220.4022 -3221.5356)">
	<stop  offset="0" style="stop-color:#FFFFFF"/>
	<stop  offset="1" style="stop-color:#7F7F7F"/>
</linearGradient>
<circle id="XMLID_3883_" fill="url(#XMLID_1165_)" cx="895.6" cy="95.5" r="5.7"/>
<g id="XMLID_3880_">
	<defs>
		<path id="XMLID_3881_" d="M890.5,95.5c0,2.8,2.3,5.1,5.1,5.1c2.8,0,5.1-2.3,5.1-5.1c0-2.8-2.3-5.1-5.1-5.1
			C892.8,90.4,890.5,92.7,890.5,95.5"/>
	</defs>
	<clipPath id="XMLID_1224_">
		<use xlink:href="#XMLID_3881_"  overflow="visible"/>
	</clipPath>
	
		<radialGradient id="XMLID_1225_" cx="917.7997" cy="5438.2817" r="0.481" gradientTransform="matrix(8.2859 0 0 8.2859 -6710.4067 -44967.3398)" gradientUnits="userSpaceOnUse">
		<stop  offset="0" style="stop-color:#FFFFFF"/>
		<stop  offset="1" style="stop-color:#8DC21F"/>
	</radialGradient>
	<rect id="XMLID_3882_" x="890.5" y="90.4" clip-path="url(#XMLID_1224_)" fill="url(#XMLID_1225_)" width="10.2" height="10.2"/>
</g>
<text id="XMLID_3871_" transform="matrix(1 0 0 1 908.7127 98.3211)" font-family="'MicrosoftYaHei'" font-size="7.1488px">HDD</text>
<path id="XMLID_3857_" fill="#2D2D2D" d="M850.3,57l-2.6-1.6v1.2h-11.8h-1.1h-0.9l2.7-2.7c0.2-0.2,0.6-0.4,0.9-0.4h2.4
	c0.2,0.5,0.7,0.8,1.3,0.8c0.8,0,1.4-0.6,1.4-1.4c0-0.8-0.6-1.4-1.4-1.4c-0.7,0-1.2,0.5-1.4,1.1h-2.3c-0.6,0-1.1,0.2-1.5,0.6
	l-2.9,2.9c-0.2,0.2-0.6,0.4-0.9,0.4h-0.4h-0.9c-0.2-1-1.1-1.8-2.2-1.8c-1.2,0-2.3,1-2.3,2.3c0,1.2,1,2.3,2.3,2.3
	c1.1,0,2-0.8,2.2-1.8h0.9h0.4h2.6h1.1c0.3,0,0.7,0.1,0.9,0.4l2.8,2.8c0.4,0.4,0.9,0.6,1.5,0.6h2v1.1h2.6v-2.6H843v0.8h-2
	c-0.3,0-0.7-0.1-0.9-0.4l-2.6-2.6h10.1v1.2L850.3,57z"/>
</svg>
