<?xml version="1.0" encoding="utf-8"?>
<!-- Generator: Adobe Illustrator 21.0.0, SVG Export Plug-In . SVG Version: 6.00 Build 0)  -->
<svg version="1.1" id="图层_1" xmlns="http://www.w3.org/2000/svg" xmlns:xlink="http://www.w3.org/1999/xlink" x="0px" y="0px"
	 width="1275.6px" height="126.1px" viewBox="0 0 1275.6 126.1" enable-background="new 0 0 1275.6 126.1" xml:space="preserve">
<g id="XMLID_1282_">
	<rect id="XMLID_2118_" x="1" y="1" fill="#3A3A3A" width="1273.6" height="124.1"/>
	<g id="XMLID_2106_">
		<path id="XMLID_2109_" fill="#050505" d="M1273.6,2v122.1H2V2H1273.6 M1275.6,0H0v126.1h1275.6V0L1275.6,0z"/>
	</g>
</g>
<g id="XMLID_1276_">
	<path id="XMLID_1281_" fill="#191919" d="M158.3,14.8l18.1,35c1.5,2.1,4.5,2.5,6.5,0.8l5.9-7.9c1.2-2.7,0.6-4.5-0.9-7.4
		c-8.6-16.1-28.8-21.6-28.8-21.6C158.5,13.5,157.9,14.2,158.3,14.8z"/>
	<path id="XMLID_1280_" fill="#191919" d="M193.1,54.8l-28.7,27.1c-1.7,2-1.2,5,1,6.5l9.2,3.5c2.9,0.4,4.5-0.7,6.8-2.9
		c13.1-12.7,12.8-33.7,12.8-33.7C194.4,54.7,193.6,54.3,193.1,54.8z"/>
	<path id="XMLID_1279_" fill="#191919" d="M164.2,99.4l-33.9-20.1c-2.4-1-5.2,0.2-6,2.7l-0.8,9.8c0.4,2.9,1.9,4.1,4.7,5.8
		c15.8,9.1,35.9,3.1,35.9,3.1C164.7,100.5,164.8,99.6,164.2,99.4z"/>
	<path id="XMLID_1278_" fill="#191919" d="M115.8,86.8l6.7-38.9c0.1-2.6-2.1-4.8-4.7-4.6l-9.5,2.7c-2.5,1.4-3.2,3.2-3.7,6.4
		c-2.8,18,10,34.6,10,34.6C114.9,87.7,115.8,87.5,115.8,86.8z"/>
	<path id="XMLID_1277_" fill="#191919" d="M111.6,34.8l39.1-5.3c2.5-0.7,3.9-3.4,3-5.8l-5.4-8.2c-2.1-2-4-2.1-7.2-1.6
		c-18.1,2.7-30,19.9-30,19.9C110.5,34.2,111,35,111.6,34.8z"/>
</g>
<g id="XMLID_1266_">
	<path id="XMLID_1275_" fill="#3E3A39" d="M250.5,100c-1.6,0-2.8-1.3-2.8-2.8V31.7c0-1.6,1.3-2.8,2.8-2.8h50c1.6,0,2.8,1.3,2.8,2.8
		v65.5c0,1.6-1.3,2.8-2.8,2.8H250.5z"/>
	<path id="XMLID_1274_" fill="none" stroke="#000000" stroke-width="2" stroke-miterlimit="10" d="M250.5,100
		c-1.6,0-2.8-1.3-2.8-2.8V31.7c0-1.6,1.3-2.8,2.8-2.8h50c1.6,0,2.8,1.3,2.8,2.8v65.5c0,1.6-1.3,2.8-2.8,2.8H250.5z"/>
	<polygon id="XMLID_1273_" fill="#231815" points="257.1,39.9 284.7,39.9 293.8,49.2 293.8,80 284.2,89 257.1,89 	"/>
	<rect id="XMLID_1272_" x="267.2" y="75.7" fill="#343842" width="10.4" height="3.1"/>
	<rect id="XMLID_1271_" x="267.2" y="75.7" fill="#8D919A" width="8.6" height="1.6"/>
	<rect id="XMLID_1270_" x="273.7" y="62.2" fill="#343842" width="10.4" height="3.1"/>
	<rect id="XMLID_1269_" x="273.7" y="62.2" fill="#8D919A" width="8.6" height="1.6"/>
	<rect id="XMLID_1268_" x="267.2" y="48.6" fill="#343842" width="10.4" height="3.1"/>
	<rect id="XMLID_1267_" x="267.2" y="48.6" fill="#8D919A" width="8.6" height="1.6"/>
</g>
<g id="XMLID_1254_">
	<g id="XMLID_1259_">
		<radialGradient id="XMLID_1003_" cx="100.4331" cy="96.2623" r="5.5537" gradientUnits="userSpaceOnUse">
			<stop  offset="0.6774" style="stop-color:#2B2B2B"/>
			<stop  offset="0.8441" style="stop-color:#595757"/>
			<stop  offset="1" style="stop-color:#000000"/>
		</radialGradient>
		<path id="XMLID_1265_" fill="url(#XMLID_1003_)" d="M106,96.3c0,3.1-2.5,5.6-5.6,5.6c-3.1,0-5.6-2.5-5.6-5.6
			c0-3.1,2.5-5.6,5.6-5.6C103.5,90.7,106,93.2,106,96.3"/>
		
			<circle id="XMLID_1264_" fill="none" stroke="#131313" stroke-width="0.75" stroke-miterlimit="10" cx="100.4" cy="96.3" r="5.6"/>
		<polygon id="XMLID_1263_" fill="#0A0A0A" points="99.7,99.4 99.7,96.9 97.3,96.9 97.3,95.6 99.7,95.6 99.7,93.1 101.1,93.1 
			101.1,95.6 103.6,95.6 103.6,96.9 101.1,96.9 101.1,99.4 		"/>
		<path id="XMLID_1260_" fill="#231815" d="M101,93.2v2.2v0.2h0.2h2.2v1.1h-2.2H101v0.2v2.2h-1.1v-2.2v-0.2h-0.2h-2.2v-1.1h2.2h0.2
			v-0.2v-2.2H101z M101.2,93h-1.6v2.5h-2.5v1.6h2.5v2.5h1.6v-2.5h2.5v-1.6h-2.5V93z"/>
	</g>
	<rect id="XMLID_1258_" x="99.6" y="93" fill="#606060" width="0.2" height="2.7"/>
	<rect id="XMLID_1257_" x="97.2" y="95.5" fill="#606060" width="2.7" height="0.2"/>
	<rect id="XMLID_1256_" x="99.6" y="93" fill="#494949" width="1.6" height="0.2"/>
	<rect id="XMLID_1255_" x="97.2" y="95.5" fill="#545454" width="0.2" height="1.6"/>
</g>
<g id="XMLID_1242_">
	<g id="XMLID_1247_">
		<radialGradient id="XMLID_1005_" cx="199.7585" cy="23.0158" r="5.5537" gradientUnits="userSpaceOnUse">
			<stop  offset="0.6774" style="stop-color:#2B2B2B"/>
			<stop  offset="0.8441" style="stop-color:#595757"/>
			<stop  offset="1" style="stop-color:#000000"/>
		</radialGradient>
		<path id="XMLID_1253_" fill="url(#XMLID_1005_)" d="M205.3,23c0,3.1-2.5,5.6-5.6,5.6c-3.1,0-5.6-2.5-5.6-5.6
			c0-3.1,2.5-5.6,5.6-5.6C202.8,17.5,205.3,19.9,205.3,23"/>
		<circle id="XMLID_1252_" fill="none" stroke="#131313" stroke-width="0.75" stroke-miterlimit="10" cx="199.8" cy="23" r="5.6"/>
		<polygon id="XMLID_1251_" fill="#0A0A0A" points="199.1,26.2 199.1,23.7 196.6,23.7 196.6,22.3 199.1,22.3 199.1,19.9 200.4,19.9 
			200.4,22.3 202.9,22.3 202.9,23.7 200.4,23.7 200.4,26.2 		"/>
		<path id="XMLID_1248_" fill="#231815" d="M200.3,20v2.2v0.2h0.2h2.2v1.1h-2.2h-0.2v0.2V26h-1.1v-2.2v-0.2H199h-2.2v-1.1h2.2h0.2
			v-0.2V20H200.3z M200.6,19.8H199v2.5h-2.5v1.6h2.5v2.5h1.6v-2.5h2.5v-1.6h-2.5V19.8z"/>
	</g>
	<rect id="XMLID_1246_" x="199" y="19.8" fill="#606060" width="0.2" height="2.7"/>
	<rect id="XMLID_1245_" x="196.5" y="22.2" fill="#606060" width="2.7" height="0.2"/>
	<rect id="XMLID_1244_" x="199" y="19.8" fill="#494949" width="1.6" height="0.2"/>
	<rect id="XMLID_1243_" x="196.5" y="22.2" fill="#545454" width="0.2" height="1.6"/>
</g>
<g id="XMLID_2100_">
	<g id="XMLID_2131_">
		<radialGradient id="XMLID_1006_" cx="22.6717" cy="54.6108" r="5.5537" gradientUnits="userSpaceOnUse">
			<stop  offset="0.6774" style="stop-color:#2B2B2B"/>
			<stop  offset="0.8441" style="stop-color:#595757"/>
			<stop  offset="1" style="stop-color:#000000"/>
		</radialGradient>
		<path id="XMLID_2145_" fill="url(#XMLID_1006_)" d="M28.2,54.6c0,3.1-2.5,5.6-5.6,5.6c-3.1,0-5.6-2.5-5.6-5.6
			c0-3.1,2.5-5.6,5.6-5.6C25.7,49.1,28.2,51.5,28.2,54.6"/>
		<circle id="XMLID_2142_" fill="none" stroke="#131313" stroke-width="0.75" stroke-miterlimit="10" cx="22.7" cy="54.6" r="5.6"/>
		<polygon id="XMLID_2139_" fill="#0A0A0A" points="22,57.8 22,55.3 19.5,55.3 19.5,53.9 22,53.9 22,51.5 23.4,51.5 23.4,53.9 
			25.8,53.9 25.8,55.3 23.4,55.3 23.4,57.8 		"/>
		<path id="XMLID_2132_" fill="#231815" d="M23.2,51.6v2.2V54h0.2h2.2v1.1h-2.2h-0.2v0.2v2.2h-1.1v-2.2v-0.2h-0.2h-2.2V54h2.2h0.2
			v-0.2v-2.2H23.2z M23.5,51.3h-1.6v2.5h-2.5v1.6h2.5v2.5h1.6v-2.5h2.5v-1.6h-2.5V51.3z"/>
	</g>
	<rect id="XMLID_2130_" x="21.9" y="51.3" fill="#606060" width="0.2" height="2.7"/>
	<rect id="XMLID_2127_" x="19.4" y="53.8" fill="#606060" width="2.7" height="0.2"/>
	<rect id="XMLID_2124_" x="21.9" y="51.3" fill="#494949" width="1.6" height="0.2"/>
	<rect id="XMLID_2121_" x="19.4" y="53.8" fill="#545454" width="0.2" height="1.6"/>
</g>
<g id="XMLID_29_">
	<path id="XMLID_1241_" fill="#AFAFAF" d="M1256.6,68.3c0,5.7-4.6,10.2-10.3,10.2c-5.7,0-10.3-4.6-10.3-10.2
		c0-5.7,4.6-10.2,10.3-10.2C1252.1,58.1,1256.6,62.7,1256.6,68.3"/>
	<ellipse id="XMLID_1240_" fill="none" stroke="#939393" stroke-miterlimit="10" cx="1246.4" cy="68.3" rx="10.3" ry="10.2"/>
	<path id="XMLID_1239_" fill="#AFAFAF" d="M1253.9,68.3c0,4.2-3.4,7.5-7.5,7.5s-7.5-3.4-7.5-7.5c0-4.2,3.4-7.5,7.5-7.5
		S1253.9,64.2,1253.9,68.3"/>
	<ellipse id="XMLID_1238_" fill="none" stroke="#939393" stroke-miterlimit="10" cx="1246.4" cy="68.3" rx="7.5" ry="7.5"/>
	<g id="XMLID_1007_">
		<g id="XMLID_1227_">
			<defs>
				<rect id="SVGID_172_" x="1239.3" y="61.2" width="14.2" height="14.2"/>
			</defs>
			<clipPath id="SVGID_111_">
				<use xlink:href="#SVGID_172_"  overflow="visible"/>
			</clipPath>
			<path id="XMLID_1237_" clip-path="url(#SVGID_111_)" fill="#BEBFBF" d="M1253.5,68.3c0,3.9-3.2,7.1-7.1,7.1
				c-3.9,0-7.1-3.2-7.1-7.1c0-3.9,3.2-7.1,7.1-7.1C1250.3,61.2,1253.5,64.4,1253.5,68.3"/>
			<path id="XMLID_1236_" clip-path="url(#SVGID_111_)" fill="#C0C1C1" d="M1253.3,68.3c0,3.8-3.1,6.9-6.9,6.9
				c-3.8,0-6.9-3.1-6.9-6.9c0-3.8,3.1-6.9,6.9-6.9C1250.2,61.4,1253.3,64.5,1253.3,68.3"/>
			<path id="XMLID_1235_" clip-path="url(#SVGID_111_)" fill="#C3C4C4" d="M1253.2,68.3c0,3.7-3,6.8-6.8,6.8c-3.7,0-6.8-3-6.8-6.8
				c0-3.7,3-6.8,6.8-6.8C1250.1,61.6,1253.2,64.6,1253.2,68.3"/>
			<path id="XMLID_1234_" clip-path="url(#SVGID_111_)" fill="#C5C6C6" d="M1253,68.3c0,3.6-3,6.6-6.6,6.6c-3.6,0-6.6-3-6.6-6.6
				c0-3.6,3-6.6,6.6-6.6C1250,61.7,1253,64.7,1253,68.3"/>
			<path id="XMLID_1233_" clip-path="url(#SVGID_111_)" fill="#C7C9C9" d="M1252.8,68.3c0,3.5-2.9,6.4-6.4,6.4s-6.4-2.9-6.4-6.4
				c0-3.6,2.9-6.4,6.4-6.4S1252.8,64.8,1252.8,68.3"/>
			<path id="XMLID_1232_" clip-path="url(#SVGID_111_)" fill="#CACBCB" d="M1252.7,68.3c0,3.5-2.8,6.3-6.3,6.3
				c-3.5,0-6.3-2.8-6.3-6.3c0-3.5,2.8-6.3,6.3-6.3C1249.9,62.1,1252.7,64.9,1252.7,68.3"/>
			<path id="XMLID_1231_" clip-path="url(#SVGID_111_)" fill="#CCCECE" d="M1252.5,68.3c0,3.4-2.7,6.1-6.1,6.1
				c-3.4,0-6.1-2.7-6.1-6.1c0-3.4,2.7-6.1,6.1-6.1C1249.8,62.2,1252.5,65,1252.5,68.3"/>
			<path id="XMLID_1230_" clip-path="url(#SVGID_111_)" fill="#CED0D0" d="M1252.3,68.3c0,3.3-2.7,5.9-5.9,5.9
				c-3.3,0-5.9-2.7-5.9-5.9c0-3.3,2.7-5.9,5.9-5.9C1249.7,62.4,1252.3,65.1,1252.3,68.3"/>
			<path id="XMLID_1229_" clip-path="url(#SVGID_111_)" fill="#D1D3D3" d="M1252.2,68.3c0,3.2-2.6,5.8-5.8,5.8
				c-3.2,0-5.8-2.6-5.8-5.8c0-3.2,2.6-5.8,5.8-5.8C1249.6,62.6,1252.2,65.2,1252.2,68.3"/>
			<path id="XMLID_1228_" clip-path="url(#SVGID_111_)" fill="#D3D5D5" d="M1252,68.3c0,3.1-2.5,5.6-5.6,5.6c-3.1,0-5.6-2.5-5.6-5.6
				c0-3.1,2.5-5.6,5.6-5.6C1249.5,62.7,1252,65.3,1252,68.3"/>
		</g>
	</g>
	<polygon id="XMLID_877_" fill="#605F5E" points="1245.5,72.6 1245.5,69.3 1242.1,69.3 1242.1,67.4 1245.5,67.4 1245.5,64.1 
		1247.3,64.1 1247.3,67.4 1250.7,67.4 1250.7,69.3 1247.3,69.3 1247.3,72.6 	"/>
	<path id="XMLID_32_" fill="#231815" d="M1247.2,64.2v3v0.3h0.3h3v1.5h-3h-0.3v0.3v3h-1.5v-3v-0.3h-0.3h-3v-1.5h3h0.3v-0.3v-3
		H1247.2z M1247.5,63.9h-2.2v3.3h-3.3v2.2h3.3v3.3h2.2v-3.3h3.3v-2.2h-3.3V63.9z"/>
</g>
<linearGradient id="XMLID_1008_" gradientUnits="userSpaceOnUse" x1="1239.177" y1="92.9152" x2="1253.636" y2="92.9152">
	<stop  offset="0" style="stop-color:#FFFFFF"/>
	<stop  offset="5.656110e-02" style="stop-color:#A3A3A4"/>
	<stop  offset="0.3831" style="stop-color:#E0E0DF"/>
	<stop  offset="0.6991" style="stop-color:#C1C0C0"/>
	<stop  offset="0.9264" style="stop-color:#E0E0DF"/>
	<stop  offset="0.9745" style="stop-color:#C1C0C0"/>
</linearGradient>
<circle id="XMLID_28_" fill="none" stroke="url(#XMLID_1008_)" stroke-miterlimit="10" cx="1246.4" cy="92.9" r="6.7"/>
<linearGradient id="XMLID_1009_" gradientUnits="userSpaceOnUse" x1="1242.3317" y1="94.3247" x2="1251.0922" y2="94.3247">
	<stop  offset="0" style="stop-color:#FFFFFF"/>
	<stop  offset="5.656110e-02" style="stop-color:#A3A3A4"/>
	<stop  offset="0.3831" style="stop-color:#E0E0DF"/>
	<stop  offset="0.6991" style="stop-color:#C1C0C0"/>
	<stop  offset="0.9264" style="stop-color:#E0E0DF"/>
	<stop  offset="0.9745" style="stop-color:#C1C0C0"/>
</linearGradient>
<rect id="XMLID_27_" x="1242.3" y="93.9" fill="url(#XMLID_1009_)" width="8.8" height="0.9"/>
<linearGradient id="XMLID_1010_" gradientUnits="userSpaceOnUse" x1="1243.3169" y1="95.4728" x2="1250.1373" y2="95.4728">
	<stop  offset="0" style="stop-color:#FFFFFF"/>
	<stop  offset="5.656110e-02" style="stop-color:#A3A3A4"/>
	<stop  offset="0.3831" style="stop-color:#E0E0DF"/>
	<stop  offset="0.6991" style="stop-color:#C1C0C0"/>
	<stop  offset="0.9264" style="stop-color:#E0E0DF"/>
	<stop  offset="0.9745" style="stop-color:#C1C0C0"/>
</linearGradient>
<rect id="XMLID_26_" x="1243.3" y="95.1" fill="url(#XMLID_1010_)" width="6.8" height="0.7"/>
<linearGradient id="XMLID_1011_" gradientUnits="userSpaceOnUse" x1="1243.908" y1="96.6817" x2="1249.2279" y2="96.6817">
	<stop  offset="0" style="stop-color:#FFFFFF"/>
	<stop  offset="5.656110e-02" style="stop-color:#A3A3A4"/>
	<stop  offset="0.3831" style="stop-color:#E0E0DF"/>
	<stop  offset="0.6991" style="stop-color:#C1C0C0"/>
	<stop  offset="0.9264" style="stop-color:#E0E0DF"/>
	<stop  offset="0.9745" style="stop-color:#C1C0C0"/>
</linearGradient>
<rect id="XMLID_25_" x="1243.9" y="96.3" fill="url(#XMLID_1011_)" width="5.3" height="0.8"/>
<linearGradient id="XMLID_1099_" gradientUnits="userSpaceOnUse" x1="1245.9541" y1="90.528" x2="1247.0681" y2="90.528">
	<stop  offset="0" style="stop-color:#FFFFFF"/>
	<stop  offset="5.656110e-02" style="stop-color:#A3A3A4"/>
	<stop  offset="0.3831" style="stop-color:#E0E0DF"/>
	<stop  offset="0.6991" style="stop-color:#C1C0C0"/>
	<stop  offset="0.9264" style="stop-color:#E0E0DF"/>
	<stop  offset="0.9745" style="stop-color:#C1C0C0"/>
</linearGradient>
<rect id="XMLID_15_" x="1246" y="87.6" fill="url(#XMLID_1099_)" width="1.1" height="5.8"/>
<g id="XMLID_1283_">
	<g id="XMLID_1643_">
		<path id="XMLID_1646_" fill="#050505" d="M183,121.1h-76.9c-18.8,0-34.1-13.7-34.1-21.9v-40h10.2v40c0,5.7,10.7,10.4,23.9,10.4
			H183c13.2,0,23.9-4.7,23.9-10.4v-40H217v40C217,107.5,201.7,121.1,183,121.1z"/>
	</g>
	<g id="XMLID_1339_">
		<path id="XMLID_1340_" fill="#595959" d="M181.7,118.9h-74.3c-18,0-32.7-13.5-32.7-21.5V58.2h9.8v39.2c0,5.6,10.3,10.2,22.9,10.2
			h74.3c12.6,0,22.9-4.6,22.9-10.2V58.2h9.8v39.2C214.4,105.4,199.7,118.9,181.7,118.9z"/>
	</g>
	<g id="XMLID_1335_">
		<path id="XMLID_1338_" fill="#D1D1D1" d="M183,120h-76.9C87.3,120,72,106.4,72,98.2v-40h10.2v40c0,5.7,10.7,10.4,23.9,10.4H183
			c13.2,0,23.9-4.7,23.9-10.4v-40H217v40C217,106.4,201.7,120,183,120z"/>
	</g>
	<g id="XMLID_1328_">
		<circle id="XMLID_1332_" fill="#6D6D6D" cx="77" cy="58.1" r="9"/>
		<circle id="XMLID_1329_" fill="#F2F2F2" cx="78" cy="57.1" r="9"/>
	</g>
	<g id="XMLID_1284_">
		<circle id="XMLID_1286_" fill="#6D6D6D" cx="210" cy="58.1" r="9"/>
		<circle id="XMLID_1285_" fill="#F2F2F2" cx="211" cy="57.1" r="9"/>
	</g>
</g>
<g id="XMLID_3929_">
	<path id="XMLID_3934_" fill="#191919" d="M454.4,14.8l18.1,35c1.5,2.1,4.5,2.5,6.5,0.8l5.9-7.9c1.2-2.7,0.6-4.5-0.9-7.4
		c-8.6-16.1-28.8-21.6-28.8-21.6C454.6,13.5,454.1,14.2,454.4,14.8z"/>
	<path id="XMLID_3933_" fill="#191919" d="M489.3,54.8l-28.7,27.1c-1.7,2-1.2,5,1,6.5l9.2,3.5c2.9,0.4,4.5-0.7,6.8-2.9
		c13.1-12.7,12.8-33.7,12.8-33.7C490.5,54.7,489.7,54.3,489.3,54.8z"/>
	<path id="XMLID_3932_" fill="#191919" d="M460.3,99.4l-33.9-20.1c-2.4-1-5.2,0.2-6,2.7l-0.8,9.8c0.4,2.9,1.9,4.1,4.7,5.8
		c15.8,9.1,35.9,3.1,35.9,3.1C460.8,100.5,460.9,99.6,460.3,99.4z"/>
	<path id="XMLID_3931_" fill="#191919" d="M412,86.8l6.7-38.9c0.1-2.6-2.1-4.8-4.7-4.6l-9.5,2.7c-2.5,1.4-3.2,3.2-3.7,6.4
		c-2.8,18,10,34.6,10,34.6C411.1,87.7,411.9,87.5,412,86.8z"/>
	<path id="XMLID_3930_" fill="#191919" d="M407.7,34.8l39.1-5.3c2.5-0.7,3.9-3.4,3-5.8l-5.4-8.2c-2.1-2-4-2.1-7.2-1.6
		c-18.1,2.7-30,19.9-30,19.9C406.6,34.2,407.1,35,407.7,34.8z"/>
</g>
<g id="XMLID_3919_">
	<path id="XMLID_3928_" fill="#3E3A39" d="M546.6,100c-1.6,0-2.8-1.3-2.8-2.8V31.7c0-1.6,1.3-2.8,2.8-2.8h50c1.6,0,2.8,1.3,2.8,2.8
		v65.5c0,1.6-1.3,2.8-2.8,2.8H546.6z"/>
	<path id="XMLID_3927_" fill="none" stroke="#000000" stroke-width="2" stroke-miterlimit="10" d="M546.6,100
		c-1.6,0-2.8-1.3-2.8-2.8V31.7c0-1.6,1.3-2.8,2.8-2.8h50c1.6,0,2.8,1.3,2.8,2.8v65.5c0,1.6-1.3,2.8-2.8,2.8H546.6z"/>
	<polygon id="XMLID_3926_" fill="#231815" points="553.3,39.9 580.8,39.9 590,49.2 590,80 580.4,89 553.3,89 	"/>
	<rect id="XMLID_3925_" x="563.4" y="75.7" fill="#343842" width="10.4" height="3.1"/>
	<rect id="XMLID_3924_" x="563.4" y="75.7" fill="#8D919A" width="8.6" height="1.6"/>
	<rect id="XMLID_3923_" x="569.9" y="62.2" fill="#343842" width="10.4" height="3.1"/>
	<rect id="XMLID_3922_" x="569.9" y="62.2" fill="#8D919A" width="8.6" height="1.6"/>
	<rect id="XMLID_3921_" x="563.4" y="48.6" fill="#343842" width="10.4" height="3.1"/>
	<rect id="XMLID_3920_" x="563.4" y="48.6" fill="#8D919A" width="8.6" height="1.6"/>
</g>
<g id="XMLID_3907_">
	<g id="XMLID_3912_">
		<radialGradient id="XMLID_1101_" cx="396.5645" cy="96.2623" r="5.5537" gradientUnits="userSpaceOnUse">
			<stop  offset="0.6774" style="stop-color:#2B2B2B"/>
			<stop  offset="0.8441" style="stop-color:#595757"/>
			<stop  offset="1" style="stop-color:#000000"/>
		</radialGradient>
		<path id="XMLID_3918_" fill="url(#XMLID_1101_)" d="M402.1,96.3c0,3.1-2.5,5.6-5.6,5.6c-3.1,0-5.6-2.5-5.6-5.6
			c0-3.1,2.5-5.6,5.6-5.6C399.6,90.7,402.1,93.2,402.1,96.3"/>
		
			<circle id="XMLID_3917_" fill="none" stroke="#131313" stroke-width="0.75" stroke-miterlimit="10" cx="396.6" cy="96.3" r="5.6"/>
		<polygon id="XMLID_3916_" fill="#0A0A0A" points="395.9,99.4 395.9,96.9 393.4,96.9 393.4,95.6 395.9,95.6 395.9,93.1 397.3,93.1 
			397.3,95.6 399.7,95.6 399.7,96.9 397.3,96.9 397.3,99.4 		"/>
		<path id="XMLID_3913_" fill="#231815" d="M397.1,93.2v2.2v0.2h0.2h2.2v1.1h-2.2h-0.2v0.2v2.2H396v-2.2v-0.2h-0.2h-2.2v-1.1h2.2
			h0.2v-0.2v-2.2H397.1z M397.4,93h-1.6v2.5h-2.5v1.6h2.5v2.5h1.6v-2.5h2.5v-1.6h-2.5V93z"/>
	</g>
	<rect id="XMLID_3911_" x="395.8" y="93" fill="#606060" width="0.2" height="2.7"/>
	<rect id="XMLID_3910_" x="393.3" y="95.5" fill="#606060" width="2.7" height="0.2"/>
	<rect id="XMLID_3909_" x="395.8" y="93" fill="#494949" width="1.6" height="0.2"/>
	<rect id="XMLID_3908_" x="393.3" y="95.5" fill="#545454" width="0.2" height="1.6"/>
</g>
<g id="XMLID_3895_">
	<g id="XMLID_3900_">
		<radialGradient id="XMLID_1102_" cx="495.8899" cy="23.0158" r="5.5537" gradientUnits="userSpaceOnUse">
			<stop  offset="0.6774" style="stop-color:#2B2B2B"/>
			<stop  offset="0.8441" style="stop-color:#595757"/>
			<stop  offset="1" style="stop-color:#000000"/>
		</radialGradient>
		<path id="XMLID_3906_" fill="url(#XMLID_1102_)" d="M501.4,23c0,3.1-2.5,5.6-5.6,5.6c-3.1,0-5.6-2.5-5.6-5.6
			c0-3.1,2.5-5.6,5.6-5.6C499,17.5,501.4,19.9,501.4,23"/>
		<circle id="XMLID_3905_" fill="none" stroke="#131313" stroke-width="0.75" stroke-miterlimit="10" cx="495.9" cy="23" r="5.6"/>
		<polygon id="XMLID_3904_" fill="#0A0A0A" points="495.2,26.2 495.2,23.7 492.7,23.7 492.7,22.3 495.2,22.3 495.2,19.9 496.6,19.9 
			496.6,22.3 499,22.3 499,23.7 496.6,23.7 496.6,26.2 		"/>
		<path id="XMLID_3901_" fill="#231815" d="M496.5,20v2.2v0.2h0.2h2.2v1.1h-2.2h-0.2v0.2V26h-1.1v-2.2v-0.2h-0.2h-2.2v-1.1h2.2h0.2
			v-0.2V20H496.5z M496.7,19.8h-1.6v2.5h-2.5v1.6h2.5v2.5h1.6v-2.5h2.5v-1.6h-2.5V19.8z"/>
	</g>
	<rect id="XMLID_3899_" x="495.1" y="19.8" fill="#606060" width="0.2" height="2.7"/>
	<rect id="XMLID_3898_" x="492.6" y="22.2" fill="#606060" width="2.7" height="0.2"/>
	<rect id="XMLID_3897_" x="495.1" y="19.8" fill="#494949" width="1.6" height="0.2"/>
	<rect id="XMLID_3896_" x="492.6" y="22.2" fill="#545454" width="0.2" height="1.6"/>
</g>
<g id="XMLID_3935_">
	<g id="XMLID_3940_">
		<radialGradient id="XMLID_1104_" cx="634.0297" cy="105.3686" r="5.5537" gradientUnits="userSpaceOnUse">
			<stop  offset="0.6774" style="stop-color:#2B2B2B"/>
			<stop  offset="0.8441" style="stop-color:#595757"/>
			<stop  offset="1" style="stop-color:#000000"/>
		</radialGradient>
		<path id="XMLID_3946_" fill="url(#XMLID_1104_)" d="M639.6,105.4c0,3.1-2.5,5.6-5.6,5.6c-3.1,0-5.6-2.5-5.6-5.6
			c0-3.1,2.5-5.6,5.6-5.6C637.1,99.8,639.6,102.3,639.6,105.4"/>
		<circle id="XMLID_3945_" fill="none" stroke="#131313" stroke-width="0.75" stroke-miterlimit="10" cx="634" cy="105.4" r="5.6"/>
		<polygon id="XMLID_3944_" fill="#0A0A0A" points="633.3,108.5 633.3,106.1 630.9,106.1 630.9,104.7 633.3,104.7 633.3,102.2 
			634.7,102.2 634.7,104.7 637.2,104.7 637.2,106.1 634.7,106.1 634.7,108.5 		"/>
		<path id="XMLID_3941_" fill="#231815" d="M634.6,102.3v2.2v0.2h0.2h2.2v1.1h-2.2h-0.2v0.2v2.2h-1.1v-2.2v-0.2h-0.2H631v-1.1h2.2
			h0.2v-0.2v-2.2H634.6z M634.8,102.1h-1.6v2.5h-2.5v1.6h2.5v2.5h1.6v-2.5h2.5v-1.6h-2.5V102.1z"/>
	</g>
	<rect id="XMLID_3939_" x="633.2" y="102.1" fill="#606060" width="0.2" height="2.7"/>
	<rect id="XMLID_3938_" x="630.8" y="104.6" fill="#606060" width="2.7" height="0.2"/>
	<rect id="XMLID_3937_" x="633.2" y="102.1" fill="#494949" width="1.6" height="0.2"/>
	<rect id="XMLID_3936_" x="630.8" y="104.6" fill="#545454" width="0.2" height="1.6"/>
</g>
<g id="XMLID_3948_">
	<g id="XMLID_3953_">
		<radialGradient id="XMLID_1105_" cx="1161.2534" cy="59.253" r="5.5537" gradientUnits="userSpaceOnUse">
			<stop  offset="0.6774" style="stop-color:#2B2B2B"/>
			<stop  offset="0.8441" style="stop-color:#595757"/>
			<stop  offset="1" style="stop-color:#000000"/>
		</radialGradient>
		<path id="XMLID_3959_" fill="url(#XMLID_1105_)" d="M1166.8,59.3c0,3.1-2.5,5.6-5.6,5.6c-3.1,0-5.6-2.5-5.6-5.6
			c0-3.1,2.5-5.6,5.6-5.6C1164.3,53.7,1166.8,56.2,1166.8,59.3"/>
		
			<circle id="XMLID_3958_" fill="none" stroke="#131313" stroke-width="0.75" stroke-miterlimit="10" cx="1161.3" cy="59.3" r="5.6"/>
		<polygon id="XMLID_3957_" fill="#0A0A0A" points="1160.6,62.4 1160.6,59.9 1158.1,59.9 1158.1,58.6 1160.6,58.6 1160.6,56.1 
			1161.9,56.1 1161.9,58.6 1164.4,58.6 1164.4,59.9 1161.9,59.9 1161.9,62.4 		"/>
		<path id="XMLID_3954_" fill="#231815" d="M1161.8,56.2v2.2v0.2h0.2h2.2v1.1h-2.2h-0.2v0.2v2.2h-1.1v-2.2v-0.2h-0.2h-2.2v-1.1h2.2
			h0.2v-0.2v-2.2H1161.8z M1162.1,56h-1.6v2.5h-2.5v1.6h2.5v2.5h1.6v-2.5h2.5v-1.6h-2.5V56z"/>
	</g>
	<rect id="XMLID_3952_" x="1160.5" y="56" fill="#606060" width="0.2" height="2.7"/>
	<rect id="XMLID_3951_" x="1158" y="58.5" fill="#606060" width="2.7" height="0.2"/>
	<rect id="XMLID_3950_" x="1160.5" y="56" fill="#494949" width="1.6" height="0.2"/>
	<rect id="XMLID_3949_" x="1158" y="58.5" fill="#545454" width="0.2" height="1.6"/>
</g>
<g id="XMLID_3960_">
	<g id="XMLID_3965_">
		<radialGradient id="XMLID_1106_" cx="1161.2534" cy="17.463" r="5.5537" gradientUnits="userSpaceOnUse">
			<stop  offset="0.6774" style="stop-color:#2B2B2B"/>
			<stop  offset="0.8441" style="stop-color:#595757"/>
			<stop  offset="1" style="stop-color:#000000"/>
		</radialGradient>
		<path id="XMLID_3971_" fill="url(#XMLID_1106_)" d="M1166.8,17.5c0,3.1-2.5,5.6-5.6,5.6c-3.1,0-5.6-2.5-5.6-5.6
			c0-3.1,2.5-5.6,5.6-5.6C1164.3,11.9,1166.8,14.4,1166.8,17.5"/>
		
			<circle id="XMLID_3970_" fill="none" stroke="#131313" stroke-width="0.75" stroke-miterlimit="10" cx="1161.3" cy="17.5" r="5.6"/>
		<polygon id="XMLID_3969_" fill="#0A0A0A" points="1160.6,20.6 1160.6,18.1 1158.1,18.1 1158.1,16.8 1160.6,16.8 1160.6,14.3 
			1161.9,14.3 1161.9,16.8 1164.4,16.8 1164.4,18.1 1161.9,18.1 1161.9,20.6 		"/>
		<path id="XMLID_3966_" fill="#231815" d="M1161.8,14.4v2.2v0.2h0.2h2.2V18h-2.2h-0.2v0.2v2.2h-1.1v-2.2V18h-0.2h-2.2v-1.1h2.2h0.2
			v-0.2v-2.2H1161.8z M1162.1,14.2h-1.6v2.5h-2.5v1.6h2.5v2.5h1.6v-2.5h2.5v-1.6h-2.5V14.2z"/>
	</g>
	<rect id="XMLID_3964_" x="1160.5" y="14.2" fill="#606060" width="0.2" height="2.7"/>
	<rect id="XMLID_3963_" x="1158" y="16.7" fill="#606060" width="2.7" height="0.2"/>
	<rect id="XMLID_3962_" x="1160.5" y="14.2" fill="#494949" width="1.6" height="0.2"/>
	<rect id="XMLID_3961_" x="1158" y="16.7" fill="#545454" width="0.2" height="1.6"/>
</g>
<g id="XMLID_3984_">
	<g id="XMLID_3989_">
		<radialGradient id="XMLID_1109_" cx="878.057" cy="59.253" r="5.5537" gradientUnits="userSpaceOnUse">
			<stop  offset="0.6774" style="stop-color:#2B2B2B"/>
			<stop  offset="0.8441" style="stop-color:#595757"/>
			<stop  offset="1" style="stop-color:#000000"/>
		</radialGradient>
		<path id="XMLID_3995_" fill="url(#XMLID_1109_)" d="M883.6,59.3c0,3.1-2.5,5.6-5.6,5.6s-5.6-2.5-5.6-5.6c0-3.1,2.5-5.6,5.6-5.6
			S883.6,56.2,883.6,59.3"/>
		
			<circle id="XMLID_3994_" fill="none" stroke="#131313" stroke-width="0.75" stroke-miterlimit="10" cx="878.1" cy="59.3" r="5.6"/>
		<polygon id="XMLID_3993_" fill="#0A0A0A" points="877.4,62.4 877.4,59.9 874.9,59.9 874.9,58.6 877.4,58.6 877.4,56.1 878.7,56.1 
			878.7,58.6 881.2,58.6 881.2,59.9 878.7,59.9 878.7,62.4 		"/>
		<path id="XMLID_3990_" fill="#231815" d="M878.6,56.2v2.2v0.2h0.2h2.2v1.1h-2.2h-0.2v0.2v2.2h-1.1v-2.2v-0.2h-0.2H875v-1.1h2.2
			h0.2v-0.2v-2.2H878.6z M878.9,56h-1.6v2.5h-2.5v1.6h2.5v2.5h1.6v-2.5h2.5v-1.6h-2.5V56z"/>
	</g>
	<rect id="XMLID_3988_" x="877.3" y="56" fill="#606060" width="0.2" height="2.7"/>
	<rect id="XMLID_3987_" x="874.8" y="58.5" fill="#606060" width="2.7" height="0.2"/>
	<rect id="XMLID_3986_" x="877.3" y="56" fill="#494949" width="1.6" height="0.2"/>
	<rect id="XMLID_3985_" x="874.8" y="58.5" fill="#545454" width="0.2" height="1.6"/>
</g>
<g id="XMLID_3972_">
	<g id="XMLID_3977_">
		<radialGradient id="XMLID_1112_" cx="878.057" cy="17.463" r="5.5537" gradientUnits="userSpaceOnUse">
			<stop  offset="0.6774" style="stop-color:#2B2B2B"/>
			<stop  offset="0.8441" style="stop-color:#595757"/>
			<stop  offset="1" style="stop-color:#000000"/>
		</radialGradient>
		<path id="XMLID_3983_" fill="url(#XMLID_1112_)" d="M883.6,17.5c0,3.1-2.5,5.6-5.6,5.6s-5.6-2.5-5.6-5.6c0-3.1,2.5-5.6,5.6-5.6
			S883.6,14.4,883.6,17.5"/>
		
			<circle id="XMLID_3982_" fill="none" stroke="#131313" stroke-width="0.75" stroke-miterlimit="10" cx="878.1" cy="17.5" r="5.6"/>
		<polygon id="XMLID_3981_" fill="#0A0A0A" points="877.4,20.6 877.4,18.1 874.9,18.1 874.9,16.8 877.4,16.8 877.4,14.3 878.7,14.3 
			878.7,16.8 881.2,16.8 881.2,18.1 878.7,18.1 878.7,20.6 		"/>
		<path id="XMLID_3978_" fill="#231815" d="M878.6,14.4v2.2v0.2h0.2h2.2V18h-2.2h-0.2v0.2v2.2h-1.1v-2.2V18h-0.2H875v-1.1h2.2h0.2
			v-0.2v-2.2H878.6z M878.9,14.2h-1.6v2.5h-2.5v1.6h2.5v2.5h1.6v-2.5h2.5v-1.6h-2.5V14.2z"/>
	</g>
	<rect id="XMLID_3976_" x="877.3" y="14.2" fill="#606060" width="0.2" height="2.7"/>
	<rect id="XMLID_3975_" x="874.8" y="16.7" fill="#606060" width="2.7" height="0.2"/>
	<rect id="XMLID_3974_" x="877.3" y="14.2" fill="#494949" width="1.6" height="0.2"/>
	<rect id="XMLID_3973_" x="874.8" y="16.7" fill="#545454" width="0.2" height="1.6"/>
</g>
<g id="XMLID_3876_">
	<g id="XMLID_3893_">
		<path id="XMLID_3894_" fill="#050505" d="M479.1,121.1h-76.9c-18.8,0-34.1-13.7-34.1-21.9v-40h10.2v40c0,5.7,10.7,10.4,23.9,10.4
			h76.9c13.2,0,23.9-4.7,23.9-10.4v-40h10.2v40C513.2,107.5,497.9,121.1,479.1,121.1z"/>
	</g>
	<g id="XMLID_3891_">
		<path id="XMLID_3892_" fill="#595959" d="M477.8,118.9h-74.3c-18,0-32.7-13.5-32.7-21.5V58.2h9.8v39.2c0,5.6,10.3,10.2,22.9,10.2
			h74.3c12.6,0,22.9-4.6,22.9-10.2V58.2h9.8v39.2C510.5,105.4,495.8,118.9,477.8,118.9z"/>
	</g>
	<g id="XMLID_3889_">
		<path id="XMLID_3890_" fill="#D1D1D1" d="M479.1,120h-76.9c-18.8,0-34.1-13.7-34.1-21.9v-40h10.2v40c0,5.7,10.7,10.4,23.9,10.4
			h76.9c13.2,0,23.9-4.7,23.9-10.4v-40h10.2v40C513.2,106.4,497.9,120,479.1,120z"/>
	</g>
	<g id="XMLID_3886_">
		<circle id="XMLID_3888_" fill="#6D6D6D" cx="373.2" cy="58.1" r="9"/>
		<circle id="XMLID_3887_" fill="#F2F2F2" cx="374.2" cy="57.1" r="9"/>
	</g>
	<g id="XMLID_3877_">
		<circle id="XMLID_3879_" fill="#6D6D6D" cx="506.2" cy="58.1" r="9"/>
		<circle id="XMLID_3878_" fill="#F2F2F2" cx="507.2" cy="57.1" r="9"/>
	</g>
</g>
<polyline id="XMLID_2097_" fill="none" stroke="#141414" stroke-width="2" stroke-miterlimit="10" points="40.1,0 40.1,69.2 
	16.4,69.2 16.4,126.1 "/>
<text id="XMLID_1958_" transform="matrix(1 0 0 1 10.5433 19.9821)" fill="#DCDDDD" font-family="'MicrosoftYaHei'" font-size="7.1488px">PWR1</text>
<g id="XMLID_2148_">
	
		<linearGradient id="XMLID_1165_" gradientUnits="userSpaceOnUse" x1="-9596.8281" y1="-4486.3506" x2="-9579.3867" y2="-4486.3506" gradientTransform="matrix(-1 0 0 -1 -9559.8818 -4380.9819)">
		<stop  offset="0" style="stop-color:#FFFFFF"/>
		<stop  offset="5.656110e-02" style="stop-color:#A3A3A4"/>
		<stop  offset="0.3372" style="stop-color:#919292"/>
		<stop  offset="0.3831" style="stop-color:#E0E0DF"/>
		<stop  offset="0.4519" style="stop-color:#C1C0C0"/>
		<stop  offset="0.9264" style="stop-color:#E0E0DF"/>
		<stop  offset="0.9745" style="stop-color:#C1C0C0"/>
	</linearGradient>
	<path id="XMLID_2302_" fill="url(#XMLID_1165_)" d="M36.9,105.4c0-4.8-3.9-8.7-8.7-8.7c-4.8,0-8.7,3.9-8.7,8.7
		c0,4.8,3.9,8.7,8.7,8.7C33,114,36.9,110.2,36.9,105.4"/>
	
		<ellipse id="XMLID_2299_" fill="none" stroke="#121212" stroke-width="0.75" stroke-miterlimit="10" cx="28.2" cy="105.4" rx="8.7" ry="8.7"/>
	<polygon id="XMLID_2295_" fill="#040000" points="27.1,100.5 27.1,104.3 23.3,104.3 23.3,106.4 27.1,106.4 27.1,110.3 29.3,110.3 
		29.3,106.4 33.2,106.4 33.2,104.3 29.3,104.3 29.3,100.5 	"/>
	<path id="XMLID_2288_" fill="#221714" d="M27.3,110.1v-3.5v-0.4H27h-3.5v-1.8H27h0.4v-0.4v-3.5h1.8v3.5v0.4h0.4H33v1.8h-3.5h-0.4
		v0.4v3.5H27.3z M29.5,106.6h3.9v-2.5h-3.9v-3.8H27v3.8h-3.9v2.5H27v3.8h2.5V106.6z"/>
	<rect id="XMLID_2287_" x="27" y="106.3" fill="#606062" width="0.4" height="4.2"/>
	<rect id="XMLID_2252_" x="23.1" y="106.3" fill="#606062" width="4.2" height="0.4"/>
</g>
<g id="XMLID_3860_">
	
		<linearGradient id="XMLID_1224_" gradientUnits="userSpaceOnUse" x1="-9912.4023" y1="-4486.3506" x2="-9894.9609" y2="-4486.3506" gradientTransform="matrix(-1 0 0 -1 -9559.8818 -4380.9819)">
		<stop  offset="0" style="stop-color:#FFFFFF"/>
		<stop  offset="5.656110e-02" style="stop-color:#A3A3A4"/>
		<stop  offset="0.3372" style="stop-color:#919292"/>
		<stop  offset="0.3831" style="stop-color:#E0E0DF"/>
		<stop  offset="0.4519" style="stop-color:#C1C0C0"/>
		<stop  offset="0.9264" style="stop-color:#E0E0DF"/>
		<stop  offset="0.9745" style="stop-color:#C1C0C0"/>
	</linearGradient>
	<path id="XMLID_3875_" fill="url(#XMLID_1224_)" d="M352.5,105.4c0-4.8-3.9-8.7-8.7-8.7c-4.8,0-8.7,3.9-8.7,8.7
		c0,4.8,3.9,8.7,8.7,8.7C348.6,114,352.5,110.2,352.5,105.4"/>
	
		<ellipse id="XMLID_3874_" fill="none" stroke="#121212" stroke-width="0.75" stroke-miterlimit="10" cx="343.8" cy="105.4" rx="8.7" ry="8.7"/>
	<polygon id="XMLID_3873_" fill="#040000" points="342.7,100.5 342.7,104.3 338.9,104.3 338.9,106.4 342.7,106.4 342.7,110.3 
		344.9,110.3 344.9,106.4 348.7,106.4 348.7,104.3 344.9,104.3 344.9,100.5 	"/>
	<path id="XMLID_3863_" fill="#221714" d="M342.9,110.1v-3.5v-0.4h-0.4H339v-1.8h3.5h0.4v-0.4v-3.5h1.8v3.5v0.4h0.4h3.5v1.8h-3.5
		h-0.4v0.4v3.5H342.9z M345.1,106.6h3.9v-2.5h-3.9v-3.8h-2.5v3.8h-3.9v2.5h3.9v3.8h2.5V106.6z"/>
	<rect id="XMLID_3862_" x="342.5" y="106.3" fill="#606062" width="0.4" height="4.2"/>
	<rect id="XMLID_3861_" x="338.7" y="106.3" fill="#606062" width="4.2" height="0.4"/>
</g>
<line id="XMLID_3641_" fill="none" stroke="#141414" stroke-width="2" stroke-miterlimit="10" x1="329.6" y1="0" x2="329.6" y2="126.1"/>
<line id="XMLID_3947_" fill="none" stroke="#141414" stroke-width="2" stroke-miterlimit="10" x1="621.6" y1="0" x2="621.6" y2="126.1"/>
<path id="XMLID_3640_" fill="none" stroke="#141414" stroke-miterlimit="10" d="M621.6,43.3h554.1c8,0,14.4-6.4,14.4-14.4V0"/>
</svg>
