<?xml version="1.0" encoding="utf-8"?>
<!-- Generator: Adobe Illustrator 16.0.0, SVG Export Plug-In . SVG Version: 6.00 Build 0)  -->
<!DOCTYPE svg PUBLIC "-//W3C//DTD SVG 1.1//EN" "http://www.w3.org/Graphics/SVG/1.1/DTD/svg11.dtd">
<svg version="1.1" id="图层_1" xmlns="http://www.w3.org/2000/svg" xmlns:xlink="http://www.w3.org/1999/xlink" x="0px" y="0px"
	 width="1275.59px" height="378.43px" viewBox="0 0 1275.59 378.43" enable-background="new 0 0 1275.59 378.43"
	 xml:space="preserve">
<rect x="2.706" y="0.002" fill="#464647" width="1271.981" height="378.426"/>
<g>
	<linearGradient id="SVGID_1_" gradientUnits="userSpaceOnUse" x1="0.9023" y1="189.7148" x2="44.208" y2="189.7148">
		<stop  offset="0" style="stop-color:#343535"/>
		<stop  offset="0.7778" style="stop-color:#343535"/>
		<stop  offset="0.8835" style="stop-color:#636666"/>
		<stop  offset="1" style="stop-color:#030000"/>
	</linearGradient>
	<rect x="0.902" y="1.002" fill="url(#SVGID_1_)" width="43.306" height="377.426"/>
	<g>
		<path fill="#B7B6B6" d="M36.031,24.328c0,4.176-3.386,7.563-7.562,7.563H12.152c-4.176,0-7.562-3.387-7.562-7.563l0,0
			c0-4.176,3.386-7.563,7.562-7.563H28.47C32.646,16.766,36.031,20.152,36.031,24.328L36.031,24.328z"/>
		<path fill="#0E0D0D" d="M35.137,24.113c0,4.059-3.289,7.348-7.347,7.348H11.938c-4.058,0-7.348-3.289-7.348-7.348l0,0
			c0-4.059,3.29-7.348,7.348-7.348H27.79C31.848,16.766,35.137,20.055,35.137,24.113L35.137,24.113z"/>
	</g>
	<g>
		<path fill="#AFAEAE" d="M29.576,23.328c0,5.701-4.595,10.322-10.265,10.322S9.045,29.029,9.045,23.328s4.597-10.322,10.267-10.322
			S29.576,17.627,29.576,23.328"/>
		<ellipse fill="none" stroke="#929292" stroke-miterlimit="10" cx="19.311" cy="23.328" rx="10.266" ry="10.322"/>
		<path fill="#AFAEAE" d="M26.854,23.328c0,4.188-3.379,7.584-7.543,7.584c-4.166,0-7.545-3.396-7.545-7.584
			c0-4.189,3.379-7.586,7.545-7.586C23.476,15.742,26.854,19.139,26.854,23.328"/>
		<ellipse fill="none" stroke="#929292" stroke-miterlimit="10" cx="19.311" cy="23.328" rx="7.544" ry="7.584"/>
		<g>
			<g>
				<defs>
					<rect id="SVGID_2_" x="12.199" y="16.18" width="14.222" height="14.295"/>
				</defs>
				<clipPath id="SVGID_3_">
					<use xlink:href="#SVGID_2_"  overflow="visible"/>
				</clipPath>
				<path clip-path="url(#SVGID_3_)" fill="#BEBEBD" d="M26.42,23.328c0,3.947-3.183,7.146-7.108,7.146
					c-3.929,0-7.111-3.199-7.111-7.146s3.183-7.148,7.111-7.148C23.237,16.18,26.42,19.381,26.42,23.328"/>
				<path clip-path="url(#SVGID_3_)" fill="#C0C0C0" d="M26.253,23.328c0,3.854-3.109,6.979-6.941,6.979
					c-3.836,0-6.943-3.125-6.943-6.979c0-3.855,3.107-6.98,6.943-6.98C23.144,16.348,26.253,19.473,26.253,23.328"/>
				<path clip-path="url(#SVGID_3_)" fill="#C2C3C3" d="M26.085,23.328c0,3.761-3.033,6.813-6.773,6.813
					c-3.743,0-6.775-3.052-6.775-6.813c0-3.762,3.032-6.813,6.775-6.813C23.052,16.516,26.085,19.566,26.085,23.328"/>
				<path clip-path="url(#SVGID_3_)" fill="#C4C5C4" d="M25.917,23.328c0,3.668-2.956,6.643-6.605,6.643
					c-3.65,0-6.61-2.975-6.61-6.643c0-3.669,2.96-6.644,6.61-6.644C22.961,16.685,25.917,19.659,25.917,23.328"/>
				<path clip-path="url(#SVGID_3_)" fill="#C6C8C8" d="M25.751,23.328c0,3.574-2.885,6.475-6.439,6.475
					c-3.559,0-6.442-2.9-6.442-6.475c0-3.576,2.884-6.477,6.442-6.477C22.866,16.852,25.751,19.752,25.751,23.328"/>
				<path clip-path="url(#SVGID_3_)" fill="#C9CACB" d="M25.583,23.328c0,3.482-2.808,6.307-6.271,6.307
					c-3.465,0-6.274-2.824-6.274-6.307c0-3.484,2.81-6.309,6.274-6.309C22.775,17.02,25.583,19.844,25.583,23.328"/>
				<path clip-path="url(#SVGID_3_)" fill="#CBCDCD" d="M25.417,23.328c0,3.39-2.734,6.14-6.105,6.14
					c-3.373,0-6.107-2.75-6.107-6.14c0-3.391,2.734-6.141,6.107-6.141C22.683,17.188,25.417,19.938,25.417,23.328"/>
				<path clip-path="url(#SVGID_3_)" fill="#CCCFD0" d="M25.251,23.328c0,3.297-2.661,5.971-5.939,5.971
					c-3.279,0-5.939-2.674-5.939-5.971c0-3.299,2.66-5.971,5.939-5.971C22.59,17.357,25.251,20.029,25.251,23.328"/>
				<path clip-path="url(#SVGID_3_)" fill="#D0D2D2" d="M25.083,23.328c0,3.204-2.584,5.803-5.771,5.803
					c-3.188,0-5.771-2.599-5.771-5.803c0-3.205,2.583-5.805,5.771-5.805C22.499,17.523,25.083,20.123,25.083,23.328"/>
				<path clip-path="url(#SVGID_3_)" fill="#D2D4D5" d="M24.916,23.328c0,3.111-2.51,5.635-5.604,5.635
					c-3.097,0-5.605-2.523-5.605-5.635c0-3.113,2.509-5.635,5.605-5.635C22.406,17.693,24.916,20.215,24.916,23.328"/>
			</g>
		</g>
		<polygon fill="#605F5E" points="18.382,27.627 18.382,24.262 15.036,24.262 15.036,22.395 18.382,22.395 18.382,19.029 
			20.24,19.029 20.24,22.395 23.585,22.395 23.585,24.262 20.24,24.262 20.24,27.627 		"/>
		<path fill="#221714" d="M20.079,19.191v3.039v0.326h0.32h3.025V24.1h-3.025h-0.32v0.322v3.041h-1.536v-3.041V24.1h-0.321h-3.024
			v-1.543h3.024h0.321V22.23v-3.039H20.079z M20.399,18.869h-2.178v3.361h-3.346v2.191h3.346v3.365h2.178v-3.365h3.346V22.23h-3.346
			V18.869z"/>
	</g>
	<g>
		<g>
			<path fill="#B7B6B6" d="M36.031,354.722c0,4.177-3.386,7.563-7.562,7.563H12.152c-4.176,0-7.562-3.386-7.562-7.563l0,0
				c0-4.176,3.386-7.562,7.562-7.562H28.47C32.646,347.16,36.031,350.546,36.031,354.722L36.031,354.722z"/>
			<path fill="#0E0D0D" d="M35.137,354.507c0,4.059-3.289,7.348-7.347,7.348H11.938c-4.058,0-7.348-3.289-7.348-7.348l0,0
				c0-4.058,3.29-7.347,7.348-7.347H27.79C31.848,347.16,35.137,350.449,35.137,354.507L35.137,354.507z"/>
		</g>
		<path fill="#AFAEAE" d="M29.576,353.723c0,5.7-4.595,10.321-10.265,10.321s-10.267-4.621-10.267-10.321
			c0-5.701,4.597-10.323,10.267-10.323S29.576,348.021,29.576,353.723"/>
		<ellipse fill="none" stroke="#929292" stroke-miterlimit="10" cx="19.311" cy="353.723" rx="10.266" ry="10.321"/>
		<path fill="#AFAEAE" d="M26.854,353.723c0,4.188-3.379,7.585-7.543,7.585c-4.166,0-7.545-3.397-7.545-7.585
			c0-4.189,3.379-7.586,7.545-7.586C23.476,346.137,26.854,349.533,26.854,353.723"/>
		<ellipse fill="none" stroke="#929292" stroke-miterlimit="10" cx="19.311" cy="353.723" rx="7.544" ry="7.585"/>
		<g>
			<g>
				<defs>
					<rect id="SVGID_4_" x="12.199" y="346.573" width="14.222" height="14.296"/>
				</defs>
				<clipPath id="SVGID_5_">
					<use xlink:href="#SVGID_4_"  overflow="visible"/>
				</clipPath>
				<path clip-path="url(#SVGID_5_)" fill="#BEBEBD" d="M26.42,353.723c0,3.946-3.183,7.146-7.108,7.146
					c-3.929,0-7.111-3.2-7.111-7.146c0-3.948,3.183-7.149,7.111-7.149C23.237,346.573,26.42,349.774,26.42,353.723"/>
				<path clip-path="url(#SVGID_5_)" fill="#C0C0C0" d="M26.253,353.723c0,3.853-3.109,6.979-6.941,6.979
					c-3.836,0-6.943-3.126-6.943-6.979c0-3.855,3.107-6.981,6.943-6.981C23.144,346.741,26.253,349.867,26.253,353.723"/>
				<path clip-path="url(#SVGID_5_)" fill="#C2C3C3" d="M26.085,353.723c0,3.761-3.033,6.812-6.773,6.812
					c-3.743,0-6.775-3.051-6.775-6.812c0-3.763,3.032-6.813,6.775-6.813C23.052,346.91,26.085,349.96,26.085,353.723"/>
				<path clip-path="url(#SVGID_5_)" fill="#C4C5C4" d="M25.917,353.723c0,3.669-2.956,6.643-6.605,6.643
					c-3.65,0-6.61-2.974-6.61-6.643c0-3.67,2.96-6.644,6.61-6.644C22.961,347.079,25.917,350.053,25.917,353.723"/>
				<path clip-path="url(#SVGID_5_)" fill="#C6C8C8" d="M25.751,353.723c0,3.574-2.885,6.475-6.439,6.475
					c-3.559,0-6.442-2.9-6.442-6.475c0-3.577,2.884-6.477,6.442-6.477C22.866,347.246,25.751,350.146,25.751,353.723"/>
				<path clip-path="url(#SVGID_5_)" fill="#C9CACB" d="M25.583,353.723c0,3.482-2.808,6.306-6.271,6.306
					c-3.465,0-6.274-2.823-6.274-6.306c0-3.484,2.81-6.309,6.274-6.309C22.775,347.414,25.583,350.238,25.583,353.723"/>
				<path clip-path="url(#SVGID_5_)" fill="#CBCDCD" d="M25.417,353.723c0,3.39-2.734,6.14-6.105,6.14
					c-3.373,0-6.107-2.75-6.107-6.14c0-3.392,2.734-6.142,6.107-6.142C22.683,347.581,25.417,350.331,25.417,353.723"/>
				<path clip-path="url(#SVGID_5_)" fill="#CCCFD0" d="M25.251,353.723c0,3.296-2.661,5.971-5.939,5.971
					c-3.279,0-5.939-2.675-5.939-5.971c0-3.299,2.66-5.972,5.939-5.972C22.59,347.751,25.251,350.424,25.251,353.723"/>
				<path clip-path="url(#SVGID_5_)" fill="#D0D2D2" d="M25.083,353.723c0,3.203-2.584,5.803-5.771,5.803
					c-3.188,0-5.771-2.6-5.771-5.803c0-3.206,2.583-5.805,5.771-5.805C22.499,347.918,25.083,350.517,25.083,353.723"/>
				<path clip-path="url(#SVGID_5_)" fill="#D2D4D5" d="M24.916,353.723c0,3.11-2.51,5.634-5.604,5.634
					c-3.097,0-5.605-2.523-5.605-5.634c0-3.113,2.509-5.636,5.605-5.636C22.406,348.087,24.916,350.609,24.916,353.723"/>
			</g>
		</g>
		<polygon fill="#605F5E" points="18.382,358.021 18.382,354.656 15.036,354.656 15.036,352.788 18.382,352.788 18.382,349.424 
			20.24,349.424 20.24,352.788 23.585,352.788 23.585,354.656 20.24,354.656 20.24,358.021 		"/>
		<path fill="#221714" d="M20.079,349.586v3.039v0.325h0.32h3.025v1.543h-3.025h-0.32v0.323v3.04h-1.536v-3.04v-0.323h-0.321h-3.024
			v-1.543h3.024h0.321v-0.325v-3.039H20.079z M20.399,349.263h-2.178v3.362h-3.346v2.191h3.346v3.364h2.178v-3.364h3.346v-2.191
			h-3.346V349.263z"/>
	</g>
</g>
<g>
	
		<linearGradient id="SVGID_6_" gradientUnits="userSpaceOnUse" x1="3518.7266" y1="188.7148" x2="3562.0322" y2="188.7148" gradientTransform="matrix(-1 0 0 1 4792.7891 0)">
		<stop  offset="0" style="stop-color:#343535"/>
		<stop  offset="0.7778" style="stop-color:#343535"/>
		<stop  offset="0.8835" style="stop-color:#636666"/>
		<stop  offset="1" style="stop-color:#030000"/>
	</linearGradient>
	<rect x="1230.757" y="0.002" fill="url(#SVGID_6_)" width="43.306" height="377.426"/>
	<g>
		<path fill="#B7B6B6" d="M1238.934,23.328c0,4.176,3.387,7.563,7.562,7.563h16.316c4.177,0,7.563-3.387,7.563-7.563l0,0
			c0-4.176-3.386-7.563-7.563-7.563h-16.316C1242.32,15.766,1238.934,19.152,1238.934,23.328L1238.934,23.328z"/>
		<path fill="#0E0D0D" d="M1239.828,23.113c0,4.059,3.289,7.348,7.347,7.348h15.853c4.059,0,7.347-3.289,7.347-7.348l0,0
			c0-4.059-3.288-7.348-7.347-7.348h-15.853C1243.117,15.766,1239.828,19.055,1239.828,23.113L1239.828,23.113z"/>
	</g>
	<g>
		<path fill="#AFAEAE" d="M1245.389,22.328c0,5.701,4.595,10.322,10.265,10.322s10.267-4.621,10.267-10.322
			s-4.597-10.322-10.267-10.322S1245.389,16.627,1245.389,22.328"/>
		<ellipse fill="none" stroke="#929292" stroke-miterlimit="10" cx="1255.654" cy="22.328" rx="10.266" ry="10.322"/>
		<path fill="#AFAEAE" d="M1248.111,22.328c0,4.188,3.377,7.584,7.542,7.584c4.167,0,7.544-3.396,7.544-7.584
			c0-4.189-3.377-7.586-7.544-7.586C1251.488,14.742,1248.111,18.139,1248.111,22.328"/>
		<ellipse fill="none" stroke="#929292" stroke-miterlimit="10" cx="1255.654" cy="22.328" rx="7.543" ry="7.584"/>
		<g>
			<g>
				<defs>
					<rect id="SVGID_7_" x="1248.544" y="15.18" width="14.222" height="14.295"/>
				</defs>
				<clipPath id="SVGID_8_">
					<use xlink:href="#SVGID_7_"  overflow="visible"/>
				</clipPath>
				<path clip-path="url(#SVGID_8_)" fill="#BEBEBD" d="M1248.545,22.328c0,3.947,3.183,7.146,7.108,7.146
					c3.928,0,7.109-3.199,7.109-7.146s-3.182-7.148-7.109-7.148C1251.728,15.18,1248.545,18.381,1248.545,22.328"/>
				<path clip-path="url(#SVGID_8_)" fill="#C0C0C0" d="M1248.712,22.328c0,3.854,3.109,6.979,6.941,6.979
					c3.835,0,6.943-3.125,6.943-6.979c0-3.855-3.108-6.98-6.943-6.98C1251.821,15.348,1248.712,18.473,1248.712,22.328"/>
				<path clip-path="url(#SVGID_8_)" fill="#C2C3C3" d="M1248.88,22.328c0,3.761,3.033,6.813,6.773,6.813
					c3.742,0,6.775-3.052,6.775-6.813c0-3.762-3.033-6.813-6.775-6.813C1251.913,15.516,1248.88,18.566,1248.88,22.328"/>
				<path clip-path="url(#SVGID_8_)" fill="#C4C5C4" d="M1249.046,22.328c0,3.668,2.958,6.643,6.607,6.643s6.609-2.975,6.609-6.643
					c0-3.669-2.96-6.644-6.609-6.644S1249.046,18.659,1249.046,22.328"/>
				<path clip-path="url(#SVGID_8_)" fill="#C6C8C8" d="M1249.214,22.328c0,3.574,2.885,6.475,6.439,6.475
					c3.559,0,6.441-2.9,6.441-6.475c0-3.576-2.883-6.477-6.441-6.477C1252.099,15.852,1249.214,18.752,1249.214,22.328"/>
				<path clip-path="url(#SVGID_8_)" fill="#C9CACB" d="M1249.382,22.328c0,3.482,2.808,6.307,6.271,6.307s6.273-2.824,6.273-6.307
					c0-3.484-2.81-6.309-6.273-6.309S1249.382,18.844,1249.382,22.328"/>
				<path clip-path="url(#SVGID_8_)" fill="#CBCDCD" d="M1249.548,22.328c0,3.39,2.734,6.14,6.105,6.14
					c3.374,0,6.107-2.75,6.107-6.14c0-3.391-2.733-6.141-6.107-6.141C1252.282,16.188,1249.548,18.938,1249.548,22.328"/>
				<path clip-path="url(#SVGID_8_)" fill="#CCCFD0" d="M1249.714,22.328c0,3.297,2.661,5.971,5.939,5.971s5.939-2.674,5.939-5.971
					c0-3.299-2.661-5.971-5.939-5.971S1249.714,19.029,1249.714,22.328"/>
				<path clip-path="url(#SVGID_8_)" fill="#D0D2D2" d="M1249.882,22.328c0,3.204,2.584,5.803,5.771,5.803
					c3.188,0,5.771-2.599,5.771-5.803c0-3.205-2.583-5.805-5.771-5.805C1252.466,16.523,1249.882,19.123,1249.882,22.328"/>
				<path clip-path="url(#SVGID_8_)" fill="#D2D4D5" d="M1250.049,22.328c0,3.111,2.51,5.635,5.604,5.635
					c3.097,0,5.605-2.523,5.605-5.635c0-3.113-2.509-5.635-5.605-5.635C1252.559,16.693,1250.049,19.215,1250.049,22.328"/>
			</g>
		</g>
		<polygon fill="#605F5E" points="1256.583,26.627 1256.583,23.262 1259.929,23.262 1259.929,21.395 1256.583,21.395 
			1256.583,18.029 1254.724,18.029 1254.724,21.395 1251.38,21.395 1251.38,23.262 1254.724,23.262 1254.724,26.627 		"/>
		<path fill="#221714" d="M1256.422,18.191v3.039v0.326h0.321h3.024V23.1h-3.024h-0.321v0.322v3.041h-1.536v-3.041V23.1h-0.32
			h-3.025v-1.543h3.025h0.32V21.23v-3.039H1256.422z M1254.565,21.23h-3.347v2.191h3.347v3.365h2.178v-3.365h3.346V21.23h-3.346
			v-3.361h-2.178V21.23z"/>
	</g>
	<g>
		<g>
			<path fill="#B7B6B6" d="M1238.934,353.722c0,4.177,3.387,7.563,7.562,7.563h16.316c4.177,0,7.563-3.386,7.563-7.563l0,0
				c0-4.176-3.386-7.562-7.563-7.562h-16.316C1242.32,346.16,1238.934,349.546,1238.934,353.722L1238.934,353.722z"/>
			<path fill="#0E0D0D" d="M1239.828,353.507c0,4.059,3.289,7.348,7.347,7.348h15.853c4.059,0,7.347-3.289,7.347-7.348l0,0
				c0-4.058-3.288-7.347-7.347-7.347h-15.853C1243.117,346.16,1239.828,349.449,1239.828,353.507L1239.828,353.507z"/>
		</g>
		<path fill="#AFAEAE" d="M1245.389,352.723c0,5.7,4.595,10.321,10.265,10.321s10.267-4.621,10.267-10.321
			c0-5.701-4.597-10.323-10.267-10.323S1245.389,347.021,1245.389,352.723"/>
		<ellipse fill="none" stroke="#929292" stroke-miterlimit="10" cx="1255.654" cy="352.723" rx="10.266" ry="10.321"/>
		<path fill="#AFAEAE" d="M1248.111,352.723c0,4.188,3.377,7.585,7.542,7.585c4.167,0,7.544-3.397,7.544-7.585
			c0-4.189-3.377-7.586-7.544-7.586C1251.488,345.137,1248.111,348.533,1248.111,352.723"/>
		<ellipse fill="none" stroke="#929292" stroke-miterlimit="10" cx="1255.654" cy="352.723" rx="7.543" ry="7.585"/>
		<g>
			<g>
				<defs>
					<rect id="SVGID_9_" x="1248.544" y="345.573" width="14.222" height="14.296"/>
				</defs>
				<clipPath id="SVGID_10_">
					<use xlink:href="#SVGID_9_"  overflow="visible"/>
				</clipPath>
				<path clip-path="url(#SVGID_10_)" fill="#BEBEBD" d="M1248.545,352.723c0,3.946,3.183,7.146,7.108,7.146
					c3.928,0,7.109-3.2,7.109-7.146c0-3.948-3.182-7.149-7.109-7.149C1251.728,345.573,1248.545,348.774,1248.545,352.723"/>
				<path clip-path="url(#SVGID_10_)" fill="#C0C0C0" d="M1248.712,352.723c0,3.853,3.109,6.979,6.941,6.979
					c3.835,0,6.943-3.126,6.943-6.979c0-3.855-3.108-6.981-6.943-6.981C1251.821,345.741,1248.712,348.867,1248.712,352.723"/>
				<path clip-path="url(#SVGID_10_)" fill="#C2C3C3" d="M1248.88,352.723c0,3.761,3.033,6.812,6.773,6.812
					c3.742,0,6.775-3.051,6.775-6.812c0-3.763-3.033-6.813-6.775-6.813C1251.913,345.91,1248.88,348.96,1248.88,352.723"/>
				<path clip-path="url(#SVGID_10_)" fill="#C4C5C4" d="M1249.046,352.723c0,3.669,2.958,6.643,6.607,6.643
					s6.609-2.974,6.609-6.643c0-3.67-2.96-6.644-6.609-6.644S1249.046,349.053,1249.046,352.723"/>
				<path clip-path="url(#SVGID_10_)" fill="#C6C8C8" d="M1249.214,352.723c0,3.574,2.885,6.475,6.439,6.475
					c3.559,0,6.441-2.9,6.441-6.475c0-3.577-2.883-6.477-6.441-6.477C1252.099,346.246,1249.214,349.146,1249.214,352.723"/>
				<path clip-path="url(#SVGID_10_)" fill="#C9CACB" d="M1249.382,352.723c0,3.482,2.808,6.306,6.271,6.306
					s6.273-2.823,6.273-6.306c0-3.484-2.81-6.309-6.273-6.309S1249.382,349.238,1249.382,352.723"/>
				<path clip-path="url(#SVGID_10_)" fill="#CBCDCD" d="M1249.548,352.723c0,3.39,2.734,6.14,6.105,6.14
					c3.374,0,6.107-2.75,6.107-6.14c0-3.392-2.733-6.142-6.107-6.142C1252.282,346.581,1249.548,349.331,1249.548,352.723"/>
				<path clip-path="url(#SVGID_10_)" fill="#CCCFD0" d="M1249.714,352.723c0,3.296,2.661,5.971,5.939,5.971
					s5.939-2.675,5.939-5.971c0-3.299-2.661-5.972-5.939-5.972S1249.714,349.424,1249.714,352.723"/>
				<path clip-path="url(#SVGID_10_)" fill="#D0D2D2" d="M1249.882,352.723c0,3.203,2.584,5.803,5.771,5.803
					c3.188,0,5.771-2.6,5.771-5.803c0-3.206-2.583-5.805-5.771-5.805C1252.466,346.918,1249.882,349.517,1249.882,352.723"/>
				<path clip-path="url(#SVGID_10_)" fill="#D2D4D5" d="M1250.049,352.723c0,3.11,2.51,5.634,5.604,5.634
					c3.097,0,5.605-2.523,5.605-5.634c0-3.113-2.509-5.636-5.605-5.636C1252.559,347.087,1250.049,349.609,1250.049,352.723"/>
			</g>
		</g>
		<polygon fill="#605F5E" points="1256.583,357.021 1256.583,353.656 1259.929,353.656 1259.929,351.788 1256.583,351.788 
			1256.583,348.424 1254.724,348.424 1254.724,351.788 1251.38,351.788 1251.38,353.656 1254.724,353.656 1254.724,357.021 		"/>
		<path fill="#221714" d="M1256.422,348.586v3.039v0.325h0.321h3.024v1.543h-3.024h-0.321v0.323v3.04h-1.536v-3.04v-0.323h-0.32
			h-3.025v-1.543h3.025h0.32v-0.325v-3.039H1256.422z M1254.565,351.625h-3.347v2.191h3.347v3.364h2.178v-3.364h3.346v-2.191h-3.346
			v-3.362h-2.178V351.625z"/>
	</g>
</g>
<rect x="501.833" y="128.481" fill="#2A2B2B" width="726.801" height="2.834"/>
<rect x="863.816" y="0.004" fill="#2A2B2B" width="2.834" height="377.425"/>
<rect x="501.833" y="250.727" fill="#2A2B2B" width="726.801" height="2.834"/>
<g>
	<circle fill="#030000" cx="1127.492" cy="62.979" r="49.001"/>
	<circle fill="#464647" cx="1127.492" cy="62.979" r="37.493"/>
	<circle fill="#030000" cx="1127.492" cy="62.979" r="32.357"/>
	<circle fill="#464647" cx="1127.492" cy="62.979" r="24.43"/>
	<path fill="#464647" d="M1161.29,96.088c0.657,0.657,0.663,1.716,0.013,2.365l0,0c-0.649,0.649-1.708,0.643-2.364-0.014
		l-67.742-67.744c-0.659-0.657-0.665-1.716-0.018-2.366l0,0c0.65-0.65,1.708-0.644,2.367,0.014L1161.29,96.088z"/>
	<path fill="#464647" d="M1093.546,97.612c-0.657,0.657-1.717,0.664-2.367,0.014l0,0c-0.647-0.65-0.642-1.708,0.017-2.365
		l67.743-67.742c0.656-0.658,1.715-0.665,2.364-0.015l0,0c0.65,0.649,0.645,1.708-0.013,2.366L1093.546,97.612z"/>
</g>
<g>
	<circle fill="#030000" cx="984.4" cy="62.979" r="49"/>
	<circle fill="#464647" cx="984.4" cy="62.979" r="37.493"/>
	<circle fill="#030000" cx="984.4" cy="62.979" r="32.356"/>
	<circle fill="#464647" cx="984.4" cy="62.979" r="24.429"/>
	<path fill="#464647" d="M1018.197,96.088c0.658,0.657,0.666,1.716,0.015,2.365l0,0c-0.65,0.649-1.708,0.643-2.365-0.014
		l-67.743-67.744c-0.658-0.657-0.665-1.716-0.016-2.366l0,0c0.649-0.65,1.708-0.644,2.365,0.014L1018.197,96.088z"/>
	<path fill="#464647" d="M950.453,97.612c-0.656,0.657-1.716,0.664-2.365,0.014l0,0c-0.649-0.65-0.643-1.708,0.015-2.365
		l67.744-67.742c0.657-0.658,1.715-0.665,2.365-0.015l0,0c0.651,0.649,0.644,1.708-0.015,2.366L950.453,97.612z"/>
</g>
<g>
	<g>
		<defs>
			<path id="SVGID_11_" d="M1198.218,22.485l-0.116-4.7l-19.275-1.058l-2.634,17.409c-1.049,6.95,3.706,13.295,9.965,13.295h2.345
				c2.845,0,5.33-2.156,6.061-5.248l2.788-11.82c0.504-2.298,0.87-5.155,0.87-7.564C1198.221,22.694,1198.218,22.59,1198.218,22.485
				"/>
		</defs>
		<linearGradient id="SVGID_12_" gradientUnits="userSpaceOnUse" x1="1175.9219" y1="32.0796" x2="1194.2627" y2="32.0796">
			<stop  offset="0" style="stop-color:#343535"/>
			<stop  offset="0.4552" style="stop-color:#343535"/>
			<stop  offset="0.6523" style="stop-color:#636666"/>
			<stop  offset="1" style="stop-color:#030000"/>
		</linearGradient>
		<use xlink:href="#SVGID_11_"  overflow="visible" fill="url(#SVGID_12_)"/>
		<clipPath id="SVGID_13_">
			<use xlink:href="#SVGID_11_"  overflow="visible"/>
		</clipPath>
		
			<linearGradient id="SVGID_14_" gradientUnits="userSpaceOnUse" x1="-210.998" y1="499.3145" x2="-211.5509" y2="500.6967" gradientTransform="matrix(-8.6407 -21.6019 21.6019 -8.6407 -11443.7969 -211.4688)">
			<stop  offset="0" style="stop-color:#343535"/>
			<stop  offset="0.4552" style="stop-color:#343535"/>
			<stop  offset="0.6523" style="stop-color:#636666"/>
			<stop  offset="1" style="stop-color:#030000"/>
		</linearGradient>
		<polygon clip-path="url(#SVGID_13_)" fill="url(#SVGID_14_)" points="1207.62,43.197 1195.037,7.771 1165.741,20.966 
			1178.327,56.392 		"/>
	</g>
	<g>
		<defs>
			<path id="SVGID_15_" d="M934.445,36.606l-3.384-19.875l-19.145,2.289c0,4.226,0.491,8.434,1.458,12.52l1.665,7.032
				c1.24,5.226,5.439,8.861,10.245,8.857h1.211c4.55,0,8.095-4.178,8.095-9.09C934.591,37.77,934.542,37.188,934.445,36.606"/>
		</defs>
		<linearGradient id="SVGID_16_" gradientUnits="userSpaceOnUse" x1="909.5098" y1="32.0806" x2="924.494" y2="32.0806">
			<stop  offset="0" style="stop-color:#343535"/>
			<stop  offset="0.4552" style="stop-color:#343535"/>
			<stop  offset="0.6523" style="stop-color:#636666"/>
			<stop  offset="1" style="stop-color:#030000"/>
		</linearGradient>
		<use xlink:href="#SVGID_15_"  overflow="visible" fill="url(#SVGID_16_)"/>
		<clipPath id="SVGID_17_">
			<use xlink:href="#SVGID_15_"  overflow="visible"/>
		</clipPath>
		
			<linearGradient id="SVGID_18_" gradientUnits="userSpaceOnUse" x1="-214.3291" y1="508.4043" x2="-214.3291" y2="509.4059" gradientTransform="matrix(0 -14.9609 14.9609 0 -6696.6797 -3174.4688)">
			<stop  offset="0" style="stop-color:#343535"/>
			<stop  offset="0.4552" style="stop-color:#343535"/>
			<stop  offset="0.6523" style="stop-color:#636666"/>
			<stop  offset="1" style="stop-color:#030000"/>
		</linearGradient>
		<rect x="911.917" y="16.731" clip-path="url(#SVGID_17_)" fill="url(#SVGID_18_)" width="22.674" height="30.702"/>
	</g>
	
		<linearGradient id="SVGID_19_" gradientUnits="userSpaceOnUse" x1="-3368.543" y1="-4179.0742" x2="-3368.543" y2="-4159.6816" gradientTransform="matrix(1 0 0 -1 4424.0957 -4151.3311)">
		<stop  offset="0" style="stop-color:#343535"/>
		<stop  offset="0.4552" style="stop-color:#343535"/>
		<stop  offset="0.6523" style="stop-color:#636666"/>
		<stop  offset="1" style="stop-color:#030000"/>
	</linearGradient>
	<path fill="url(#SVGID_19_)" d="M1199.188,18.049c0-5.358-2.829-9.696-6.321-9.696L918.24,8.351c-3.492,0-6.323,4.34-6.323,9.696
		l0,0c0,5.354,2.831,9.695,6.323,9.695l274.626,0.001C1196.358,27.743,1199.188,23.401,1199.188,18.049L1199.188,18.049z"/>
</g>
<g>
	<path fill="#AFAEAE" d="M1222.815,70.36c0,5.344-4.307,9.674-9.62,9.674s-9.622-4.33-9.622-9.674s4.309-9.674,9.622-9.674
		S1222.815,65.017,1222.815,70.36"/>
	<ellipse fill="none" stroke="#929292" stroke-miterlimit="10" cx="1213.194" cy="70.36" rx="9.621" ry="9.674"/>
	<path fill="#AFAEAE" d="M1220.265,70.36c0,3.925-3.166,7.107-7.069,7.107c-3.904,0-7.071-3.183-7.071-7.107
		c0-3.926,3.167-7.109,7.071-7.109C1217.099,63.251,1220.265,66.435,1220.265,70.36"/>
	<ellipse fill="none" stroke="#929292" stroke-miterlimit="10" cx="1213.194" cy="70.36" rx="7.07" ry="7.107"/>
	<g>
		<g>
			<defs>
				<rect id="SVGID_20_" x="1206.528" y="63.661" width="13.33" height="13.396"/>
			</defs>
			<clipPath id="SVGID_21_">
				<use xlink:href="#SVGID_20_"  overflow="visible"/>
			</clipPath>
			<path clip-path="url(#SVGID_21_)" fill="#BEBEBD" d="M1219.856,70.36c0,3.699-2.982,6.697-6.661,6.697
				c-3.682,0-6.664-2.998-6.664-6.697s2.982-6.699,6.664-6.699C1216.874,63.661,1219.856,66.661,1219.856,70.36"/>
			<path clip-path="url(#SVGID_21_)" fill="#C0C0C0" d="M1219.7,70.36c0,3.611-2.912,6.54-6.505,6.54
				c-3.595,0-6.508-2.929-6.508-6.54c0-3.613,2.913-6.542,6.508-6.542C1216.788,63.818,1219.7,66.747,1219.7,70.36"/>
			<path clip-path="url(#SVGID_21_)" fill="#C2C3C3" d="M1219.543,70.36c0,3.524-2.843,6.385-6.348,6.385
				c-3.508,0-6.351-2.86-6.351-6.385c0-3.525,2.843-6.385,6.351-6.385C1216.7,63.976,1219.543,66.835,1219.543,70.36"/>
			<path clip-path="url(#SVGID_21_)" fill="#C4C5C4" d="M1219.386,70.36c0,3.438-2.771,6.226-6.19,6.226
				c-3.421,0-6.193-2.788-6.193-6.226c0-3.439,2.772-6.227,6.193-6.227C1216.615,64.134,1219.386,66.921,1219.386,70.36"/>
			<path clip-path="url(#SVGID_21_)" fill="#C6C8C8" d="M1219.23,70.36c0,3.35-2.703,6.068-6.035,6.068
				c-3.334,0-6.038-2.719-6.038-6.068c0-3.352,2.704-6.07,6.038-6.07C1216.527,64.29,1219.23,67.009,1219.23,70.36"/>
			<path clip-path="url(#SVGID_21_)" fill="#C9CACB" d="M1219.073,70.36c0,3.264-2.631,5.91-5.878,5.91s-5.88-2.646-5.88-5.91
				c0-3.266,2.633-5.912,5.88-5.912S1219.073,67.095,1219.073,70.36"/>
			<path clip-path="url(#SVGID_21_)" fill="#CBCDCD" d="M1218.917,70.36c0,3.177-2.563,5.754-5.722,5.754
				c-3.161,0-5.725-2.577-5.725-5.754c0-3.178,2.563-5.756,5.725-5.756C1216.354,64.604,1218.917,67.183,1218.917,70.36"/>
			<path clip-path="url(#SVGID_21_)" fill="#CCCFD0" d="M1218.762,70.36c0,3.09-2.494,5.596-5.566,5.596
				c-3.074,0-5.566-2.506-5.566-5.596c0-3.092,2.492-5.596,5.566-5.596C1216.268,64.765,1218.762,67.269,1218.762,70.36"/>
			<path clip-path="url(#SVGID_21_)" fill="#D0D2D2" d="M1218.604,70.36c0,3.004-2.421,5.438-5.408,5.438
				c-2.988,0-5.41-2.435-5.41-5.438s2.422-5.44,5.41-5.44C1216.183,64.92,1218.604,67.356,1218.604,70.36"/>
			<path clip-path="url(#SVGID_21_)" fill="#D2D4D5" d="M1218.448,70.36c0,2.916-2.354,5.281-5.253,5.281
				c-2.902,0-5.254-2.365-5.254-5.281c0-2.918,2.352-5.281,5.254-5.281C1216.095,65.079,1218.448,67.442,1218.448,70.36"/>
		</g>
	</g>
	<polygon fill="#605F5E" points="1212.323,74.39 1212.323,71.235 1209.188,71.235 1209.188,69.485 1212.323,69.485 1212.323,66.331 
		1214.063,66.331 1214.063,69.485 1217.2,69.485 1217.2,71.235 1214.063,71.235 1214.063,74.39 	"/>
	<path fill="#221714" d="M1213.915,66.483v2.849v0.306h0.299h2.836v1.445h-2.836h-0.299v0.303v2.85h-1.439v-2.85v-0.303h-0.301
		h-2.837v-1.445h2.837h0.301v-0.306v-2.849H1213.915z M1214.214,66.182h-2.039v3.15h-3.138v2.054h3.138v3.153h2.039v-3.153h3.138
		v-2.054h-3.138V66.182z"/>
</g>
<radialGradient id="SVGID_22_" cx="901.6543" cy="47.4292" r="7.3064" gradientUnits="userSpaceOnUse">
	<stop  offset="0" style="stop-color:#FFFFFF"/>
	<stop  offset="1" style="stop-color:#1EAA39"/>
</radialGradient>
<circle fill="url(#SVGID_22_)" stroke="#0E0E0E" stroke-miterlimit="10" cx="901.654" cy="47.43" r="7.307"/>
<radialGradient id="SVGID_23_" cx="901.6523" cy="71.5396" r="7.3064" gradientUnits="userSpaceOnUse">
	<stop  offset="0" style="stop-color:#FFFFFF"/>
	<stop  offset="1" style="stop-color:#FAED00"/>
</radialGradient>
<circle fill="url(#SVGID_23_)" stroke="#0E0E0E" stroke-miterlimit="10" cx="901.653" cy="71.54" r="7.306"/>
<radialGradient id="SVGID_24_" cx="901.6543" cy="94.4722" r="7.3064" gradientUnits="userSpaceOnUse">
	<stop  offset="0" style="stop-color:#FFFFFF"/>
	<stop  offset="1" style="stop-color:#C30D23"/>
</radialGradient>
<circle fill="url(#SVGID_24_)" stroke="#0E0E0E" stroke-miterlimit="10" cx="901.654" cy="94.473" r="7.307"/>
<text transform="matrix(1 0 0 1 874.834 49.8848)" fill="#DADADA" font-family="'SimHei'" font-size="8">RUN</text>
<text transform="matrix(1 0 0 1 871.834 74.7354)" fill="#DADADA" font-family="'SimHei'" font-size="8">ALARM</text>
<text transform="matrix(1 0 0 1 871.834 98.1094)" fill="#DADADA" font-family="'SimHei'" font-size="8">FAULT</text>
<g>
	<circle fill="#030000" cx="1127.492" cy="191.528" r="49.001"/>
	<circle fill="#464647" cx="1127.492" cy="191.528" r="37.493"/>
	<circle fill="#030000" cx="1127.492" cy="191.528" r="32.357"/>
	<circle fill="#464647" cx="1127.492" cy="191.528" r="24.43"/>
	<path fill="#464647" d="M1161.29,224.638c0.657,0.657,0.663,1.716,0.013,2.365l0,0c-0.649,0.649-1.708,0.643-2.364-0.014
		l-67.742-67.744c-0.659-0.657-0.665-1.716-0.018-2.366l0,0c0.65-0.65,1.708-0.644,2.367,0.014L1161.29,224.638z"/>
	<path fill="#464647" d="M1093.546,226.162c-0.657,0.657-1.717,0.664-2.367,0.014l0,0c-0.647-0.65-0.642-1.708,0.017-2.365
		l67.743-67.742c0.656-0.658,1.715-0.665,2.364-0.015l0,0c0.65,0.649,0.645,1.708-0.013,2.366L1093.546,226.162z"/>
</g>
<g>
	<circle fill="#030000" cx="984.4" cy="191.528" r="49"/>
	<circle fill="#464647" cx="984.4" cy="191.528" r="37.493"/>
	<circle fill="#030000" cx="984.4" cy="191.528" r="32.356"/>
	<circle fill="#464647" cx="984.4" cy="191.528" r="24.429"/>
	<path fill="#464647" d="M1018.197,224.638c0.658,0.657,0.666,1.716,0.015,2.365l0,0c-0.65,0.649-1.708,0.643-2.365-0.014
		l-67.743-67.744c-0.658-0.657-0.665-1.716-0.016-2.366l0,0c0.649-0.65,1.708-0.644,2.365,0.014L1018.197,224.638z"/>
	<path fill="#464647" d="M950.453,226.162c-0.656,0.657-1.716,0.664-2.365,0.014l0,0c-0.649-0.65-0.643-1.708,0.015-2.365
		l67.744-67.742c0.657-0.658,1.715-0.665,2.365-0.015l0,0c0.651,0.649,0.644,1.708-0.015,2.366L950.453,226.162z"/>
</g>
<g>
	<g>
		<defs>
			<path id="SVGID_25_" d="M1198.218,151.035l-0.116-4.7l-19.275-1.058l-2.634,17.409c-1.049,6.95,3.706,13.295,9.965,13.295h2.345
				c2.845,0,5.33-2.156,6.061-5.248l2.788-11.82c0.504-2.298,0.87-5.155,0.87-7.564
				C1198.221,151.244,1198.218,151.14,1198.218,151.035"/>
		</defs>
		<linearGradient id="SVGID_26_" gradientUnits="userSpaceOnUse" x1="1175.9219" y1="160.6294" x2="1194.2627" y2="160.6294">
			<stop  offset="0" style="stop-color:#343535"/>
			<stop  offset="0.4552" style="stop-color:#343535"/>
			<stop  offset="0.6523" style="stop-color:#636666"/>
			<stop  offset="1" style="stop-color:#030000"/>
		</linearGradient>
		<use xlink:href="#SVGID_25_"  overflow="visible" fill="url(#SVGID_26_)"/>
		<clipPath id="SVGID_27_">
			<use xlink:href="#SVGID_25_"  overflow="visible"/>
		</clipPath>
		
			<linearGradient id="SVGID_28_" gradientUnits="userSpaceOnUse" x1="-216.1279" y1="497.2617" x2="-216.6808" y2="498.6439" gradientTransform="matrix(-8.6407 -21.6019 21.6019 -8.6407 -11443.7969 -211.4688)">
			<stop  offset="0" style="stop-color:#343535"/>
			<stop  offset="0.4552" style="stop-color:#343535"/>
			<stop  offset="0.6523" style="stop-color:#636666"/>
			<stop  offset="1" style="stop-color:#030000"/>
		</linearGradient>
		<polygon clip-path="url(#SVGID_27_)" fill="url(#SVGID_28_)" points="1207.62,171.747 1195.037,136.321 1165.741,149.516 
			1178.327,184.941 		"/>
	</g>
	<g>
		<defs>
			<path id="SVGID_29_" d="M934.445,165.156l-3.384-19.875l-19.145,2.289c0,4.226,0.491,8.434,1.458,12.52l1.665,7.032
				c1.24,5.226,5.439,8.861,10.245,8.857h1.211c4.55,0,8.095-4.178,8.095-9.09C934.591,166.319,934.542,165.738,934.445,165.156"/>
		</defs>
		<linearGradient id="SVGID_30_" gradientUnits="userSpaceOnUse" x1="909.5098" y1="160.6304" x2="924.494" y2="160.6304">
			<stop  offset="0" style="stop-color:#343535"/>
			<stop  offset="0.4552" style="stop-color:#343535"/>
			<stop  offset="0.6523" style="stop-color:#636666"/>
			<stop  offset="1" style="stop-color:#030000"/>
		</linearGradient>
		<use xlink:href="#SVGID_29_"  overflow="visible" fill="url(#SVGID_30_)"/>
		<clipPath id="SVGID_31_">
			<use xlink:href="#SVGID_29_"  overflow="visible"/>
		</clipPath>
		
			<linearGradient id="SVGID_32_" gradientUnits="userSpaceOnUse" x1="-222.9214" y1="508.4043" x2="-222.9214" y2="509.4059" gradientTransform="matrix(0 -14.9609 14.9609 0 -6696.6797 -3174.4688)">
			<stop  offset="0" style="stop-color:#343535"/>
			<stop  offset="0.4552" style="stop-color:#343535"/>
			<stop  offset="0.6523" style="stop-color:#636666"/>
			<stop  offset="1" style="stop-color:#030000"/>
		</linearGradient>
		<rect x="911.917" y="145.281" clip-path="url(#SVGID_31_)" fill="url(#SVGID_32_)" width="22.674" height="30.702"/>
	</g>
	
		<linearGradient id="SVGID_33_" gradientUnits="userSpaceOnUse" x1="-3368.543" y1="-4307.624" x2="-3368.543" y2="-4288.2314" gradientTransform="matrix(1 0 0 -1 4424.0957 -4151.3311)">
		<stop  offset="0" style="stop-color:#343535"/>
		<stop  offset="0.4552" style="stop-color:#343535"/>
		<stop  offset="0.6523" style="stop-color:#636666"/>
		<stop  offset="1" style="stop-color:#030000"/>
	</linearGradient>
	<path fill="url(#SVGID_33_)" d="M1199.188,146.599c0-5.358-2.829-9.696-6.321-9.696L918.24,136.9c-3.492,0-6.323,4.34-6.323,9.696
		l0,0c0,5.354,2.831,9.695,6.323,9.695l274.626,0.001C1196.358,156.293,1199.188,151.951,1199.188,146.599L1199.188,146.599z"/>
</g>
<g>
	<path fill="#AFAEAE" d="M1222.815,198.91c0,5.344-4.307,9.674-9.62,9.674s-9.622-4.33-9.622-9.674s4.309-9.674,9.622-9.674
		S1222.815,193.566,1222.815,198.91"/>
	<ellipse fill="none" stroke="#929292" stroke-miterlimit="10" cx="1213.194" cy="198.91" rx="9.621" ry="9.674"/>
	<path fill="#AFAEAE" d="M1220.265,198.91c0,3.925-3.166,7.107-7.069,7.107c-3.904,0-7.071-3.183-7.071-7.107
		c0-3.926,3.167-7.109,7.071-7.109C1217.099,191.801,1220.265,194.984,1220.265,198.91"/>
	<ellipse fill="none" stroke="#929292" stroke-miterlimit="10" cx="1213.194" cy="198.91" rx="7.07" ry="7.107"/>
	<g>
		<g>
			<defs>
				<rect id="SVGID_34_" x="1206.528" y="192.211" width="13.33" height="13.396"/>
			</defs>
			<clipPath id="SVGID_35_">
				<use xlink:href="#SVGID_34_"  overflow="visible"/>
			</clipPath>
			<path clip-path="url(#SVGID_35_)" fill="#BEBEBD" d="M1219.856,198.91c0,3.699-2.982,6.697-6.661,6.697
				c-3.682,0-6.664-2.998-6.664-6.697s2.982-6.699,6.664-6.699C1216.874,192.211,1219.856,195.211,1219.856,198.91"/>
			<path clip-path="url(#SVGID_35_)" fill="#C0C0C0" d="M1219.7,198.91c0,3.611-2.912,6.54-6.505,6.54
				c-3.595,0-6.508-2.929-6.508-6.54c0-3.613,2.913-6.542,6.508-6.542C1216.788,192.368,1219.7,195.297,1219.7,198.91"/>
			<path clip-path="url(#SVGID_35_)" fill="#C2C3C3" d="M1219.543,198.91c0,3.524-2.843,6.385-6.348,6.385
				c-3.508,0-6.351-2.86-6.351-6.385c0-3.525,2.843-6.385,6.351-6.385C1216.7,192.525,1219.543,195.385,1219.543,198.91"/>
			<path clip-path="url(#SVGID_35_)" fill="#C4C5C4" d="M1219.386,198.91c0,3.438-2.771,6.226-6.19,6.226
				c-3.421,0-6.193-2.788-6.193-6.226c0-3.439,2.772-6.227,6.193-6.227C1216.615,192.684,1219.386,195.471,1219.386,198.91"/>
			<path clip-path="url(#SVGID_35_)" fill="#C6C8C8" d="M1219.23,198.91c0,3.35-2.703,6.068-6.035,6.068
				c-3.334,0-6.038-2.719-6.038-6.068c0-3.352,2.704-6.07,6.038-6.07C1216.527,192.84,1219.23,195.559,1219.23,198.91"/>
			<path clip-path="url(#SVGID_35_)" fill="#C9CACB" d="M1219.073,198.91c0,3.264-2.631,5.91-5.878,5.91s-5.88-2.646-5.88-5.91
				c0-3.266,2.633-5.912,5.88-5.912S1219.073,195.645,1219.073,198.91"/>
			<path clip-path="url(#SVGID_35_)" fill="#CBCDCD" d="M1218.917,198.91c0,3.177-2.563,5.754-5.722,5.754
				c-3.161,0-5.725-2.577-5.725-5.754c0-3.178,2.563-5.756,5.725-5.756C1216.354,193.154,1218.917,195.732,1218.917,198.91"/>
			<path clip-path="url(#SVGID_35_)" fill="#CCCFD0" d="M1218.762,198.91c0,3.09-2.494,5.596-5.566,5.596
				c-3.074,0-5.566-2.506-5.566-5.596c0-3.092,2.492-5.596,5.566-5.596C1216.268,193.314,1218.762,195.818,1218.762,198.91"/>
			<path clip-path="url(#SVGID_35_)" fill="#D0D2D2" d="M1218.604,198.91c0,3.004-2.421,5.438-5.408,5.438
				c-2.988,0-5.41-2.435-5.41-5.438s2.422-5.44,5.41-5.44C1216.183,193.47,1218.604,195.906,1218.604,198.91"/>
			<path clip-path="url(#SVGID_35_)" fill="#D2D4D5" d="M1218.448,198.91c0,2.916-2.354,5.281-5.253,5.281
				c-2.902,0-5.254-2.365-5.254-5.281c0-2.918,2.352-5.281,5.254-5.281C1216.095,193.629,1218.448,195.992,1218.448,198.91"/>
		</g>
	</g>
	<polygon fill="#605F5E" points="1212.323,202.939 1212.323,199.785 1209.188,199.785 1209.188,198.035 1212.323,198.035 
		1212.323,194.881 1214.063,194.881 1214.063,198.035 1217.2,198.035 1217.2,199.785 1214.063,199.785 1214.063,202.939 	"/>
	<path fill="#221714" d="M1213.915,195.033v2.849v0.306h0.299h2.836v1.445h-2.836h-0.299v0.303v2.85h-1.439v-2.85v-0.303h-0.301
		h-2.837v-1.445h2.837h0.301v-0.306v-2.849H1213.915z M1214.214,194.731h-2.039v3.15h-3.138v2.054h3.138v3.153h2.039v-3.153h3.138
		v-2.054h-3.138V194.731z"/>
</g>
<radialGradient id="SVGID_36_" cx="901.6543" cy="175.979" r="7.3064" gradientUnits="userSpaceOnUse">
	<stop  offset="0" style="stop-color:#FFFFFF"/>
	<stop  offset="1" style="stop-color:#1EAA39"/>
</radialGradient>
<circle fill="url(#SVGID_36_)" stroke="#0E0E0E" stroke-miterlimit="10" cx="901.654" cy="175.979" r="7.307"/>
<radialGradient id="SVGID_37_" cx="901.6523" cy="200.0898" r="7.3062" gradientUnits="userSpaceOnUse">
	<stop  offset="0" style="stop-color:#FFFFFF"/>
	<stop  offset="1" style="stop-color:#FAED00"/>
</radialGradient>
<circle fill="url(#SVGID_37_)" stroke="#0E0E0E" stroke-miterlimit="10" cx="901.653" cy="200.09" r="7.306"/>
<radialGradient id="SVGID_38_" cx="901.6543" cy="223.0215" r="7.3066" gradientUnits="userSpaceOnUse">
	<stop  offset="0" style="stop-color:#FFFFFF"/>
	<stop  offset="1" style="stop-color:#C30D23"/>
</radialGradient>
<circle fill="url(#SVGID_38_)" stroke="#0E0E0E" stroke-miterlimit="10" cx="901.654" cy="223.022" r="7.307"/>
<text transform="matrix(1 0 0 1 874.834 178.4346)" fill="#DADADA" font-family="'SimHei'" font-size="8">RUN</text>
<text transform="matrix(1 0 0 1 871.834 203.2852)" fill="#DADADA" font-family="'SimHei'" font-size="8">ALARM</text>
<text transform="matrix(1 0 0 1 871.834 226.6592)" fill="#DADADA" font-family="'SimHei'" font-size="8">FAULT</text>
<g>
	<circle fill="#030000" cx="761.874" cy="62.979" r="49.001"/>
	<circle fill="#464647" cx="761.874" cy="62.979" r="37.493"/>
	<circle fill="#030000" cx="761.874" cy="62.979" r="32.356"/>
	<circle fill="#464647" cx="761.874" cy="62.979" r="24.429"/>
	<path fill="#464647" d="M795.672,96.088c0.657,0.657,0.664,1.716,0.014,2.365l0,0c-0.65,0.649-1.708,0.643-2.364-0.014
		l-67.744-67.744c-0.659-0.657-0.665-1.716-0.016-2.366l0,0c0.649-0.65,1.708-0.644,2.365,0.014L795.672,96.088z"/>
	<path fill="#464647" d="M727.927,97.612c-0.656,0.657-1.716,0.664-2.365,0.014l0,0c-0.649-0.65-0.644-1.708,0.015-2.365
		l67.745-67.742c0.656-0.658,1.714-0.665,2.364-0.015l0,0c0.65,0.649,0.644,1.708-0.014,2.366L727.927,97.612z"/>
</g>
<g>
	<circle fill="#030000" cx="618.782" cy="62.979" r="49.001"/>
	<circle fill="#464647" cx="618.782" cy="62.979" r="37.493"/>
	<circle fill="#030000" cx="618.782" cy="62.979" r="32.356"/>
	<circle fill="#464647" cx="618.782" cy="62.979" r="24.43"/>
	<path fill="#464647" d="M652.58,96.088c0.657,0.657,0.664,1.716,0.014,2.365l0,0c-0.649,0.649-1.708,0.643-2.366-0.014
		l-67.743-67.744c-0.657-0.657-0.663-1.716-0.015-2.366l0,0c0.649-0.65,1.708-0.644,2.366,0.014L652.58,96.088z"/>
	<path fill="#464647" d="M584.836,97.612c-0.657,0.657-1.717,0.664-2.366,0.014l0,0c-0.648-0.65-0.643-1.708,0.015-2.365
		l67.743-67.742c0.658-0.658,1.717-0.665,2.366-0.015l0,0c0.65,0.649,0.644,1.708-0.014,2.366L584.836,97.612z"/>
</g>
<g>
	<g>
		<defs>
			<path id="SVGID_39_" d="M832.6,22.485l-0.116-4.7l-19.275-1.058l-2.635,17.409c-1.046,6.95,3.708,13.295,9.966,13.295h2.345
				c2.844,0,5.33-2.156,6.062-5.248l2.787-11.82c0.505-2.298,0.87-5.155,0.87-7.564C832.603,22.694,832.6,22.59,832.6,22.485"/>
		</defs>
		<linearGradient id="SVGID_40_" gradientUnits="userSpaceOnUse" x1="810.3037" y1="32.0796" x2="828.6446" y2="32.0796">
			<stop  offset="0" style="stop-color:#343535"/>
			<stop  offset="0.4552" style="stop-color:#343535"/>
			<stop  offset="0.6523" style="stop-color:#636666"/>
			<stop  offset="1" style="stop-color:#030000"/>
		</linearGradient>
		<use xlink:href="#SVGID_39_"  overflow="visible" fill="url(#SVGID_40_)"/>
		<clipPath id="SVGID_41_">
			<use xlink:href="#SVGID_39_"  overflow="visible"/>
		</clipPath>
		
			<linearGradient id="SVGID_42_" gradientUnits="userSpaceOnUse" x1="-205.1616" y1="484.7236" x2="-205.7145" y2="486.1058" gradientTransform="matrix(-8.6407 -21.6019 21.6019 -8.6407 -11443.7969 -211.4688)">
			<stop  offset="0" style="stop-color:#343535"/>
			<stop  offset="0.4552" style="stop-color:#343535"/>
			<stop  offset="0.6523" style="stop-color:#636666"/>
			<stop  offset="1" style="stop-color:#030000"/>
		</linearGradient>
		<polygon clip-path="url(#SVGID_41_)" fill="url(#SVGID_42_)" points="842.002,43.197 829.419,7.771 800.124,20.966 
			812.709,56.392 		"/>
	</g>
	<g>
		<defs>
			<path id="SVGID_43_" d="M568.826,36.606l-3.382-19.875l-19.146,2.289c0,4.226,0.491,8.434,1.458,12.52l1.665,7.032
				c1.239,5.226,5.442,8.861,10.246,8.857h1.21c4.552,0,8.096-4.178,8.096-9.09C568.974,37.77,568.924,37.188,568.826,36.606"/>
		</defs>
		<linearGradient id="SVGID_44_" gradientUnits="userSpaceOnUse" x1="543.8916" y1="32.0806" x2="558.8764" y2="32.0806">
			<stop  offset="0" style="stop-color:#343535"/>
			<stop  offset="0.4552" style="stop-color:#343535"/>
			<stop  offset="0.6523" style="stop-color:#636666"/>
			<stop  offset="1" style="stop-color:#030000"/>
		</linearGradient>
		<use xlink:href="#SVGID_43_"  overflow="visible" fill="url(#SVGID_44_)"/>
		<clipPath id="SVGID_45_">
			<use xlink:href="#SVGID_43_"  overflow="visible"/>
		</clipPath>
		
			<linearGradient id="SVGID_46_" gradientUnits="userSpaceOnUse" x1="-214.3291" y1="483.9658" x2="-214.3291" y2="484.9674" gradientTransform="matrix(0 -14.9609 14.9609 0 -6696.6797 -3174.4688)">
			<stop  offset="0" style="stop-color:#343535"/>
			<stop  offset="0.4552" style="stop-color:#343535"/>
			<stop  offset="0.6523" style="stop-color:#636666"/>
			<stop  offset="1" style="stop-color:#030000"/>
		</linearGradient>
		<rect x="546.299" y="16.731" clip-path="url(#SVGID_45_)" fill="url(#SVGID_46_)" width="22.675" height="30.702"/>
	</g>
	
		<linearGradient id="SVGID_47_" gradientUnits="userSpaceOnUse" x1="-3734.1621" y1="-4179.0742" x2="-3734.1621" y2="-4159.6816" gradientTransform="matrix(1 0 0 -1 4424.0957 -4151.3311)">
		<stop  offset="0" style="stop-color:#343535"/>
		<stop  offset="0.4552" style="stop-color:#343535"/>
		<stop  offset="0.6523" style="stop-color:#636666"/>
		<stop  offset="1" style="stop-color:#030000"/>
	</linearGradient>
	<path fill="url(#SVGID_47_)" d="M833.568,18.049c0-5.358-2.828-9.696-6.32-9.696L552.621,8.351c-3.491,0-6.322,4.34-6.322,9.696
		l0,0c0,5.354,2.831,9.695,6.322,9.695l274.627,0.001C830.74,27.743,833.568,23.401,833.568,18.049L833.568,18.049z"/>
</g>
<g>
	<path fill="#AFAEAE" d="M857.197,70.36c0,5.344-4.307,9.674-9.621,9.674c-5.313,0-9.621-4.33-9.621-9.674s4.308-9.674,9.621-9.674
		C852.891,60.687,857.197,65.017,857.197,70.36"/>
	<ellipse fill="none" stroke="#929292" stroke-miterlimit="10" cx="847.576" cy="70.36" rx="9.621" ry="9.674"/>
	<path fill="#AFAEAE" d="M854.646,70.36c0,3.925-3.167,7.107-7.07,7.107s-7.07-3.183-7.07-7.107c0-3.926,3.167-7.109,7.07-7.109
		S854.646,66.435,854.646,70.36"/>
	<ellipse fill="none" stroke="#929292" stroke-miterlimit="10" cx="847.576" cy="70.36" rx="7.07" ry="7.107"/>
	<g>
		<g>
			<defs>
				<rect id="SVGID_48_" x="840.911" y="63.661" width="13.329" height="13.396"/>
			</defs>
			<clipPath id="SVGID_49_">
				<use xlink:href="#SVGID_48_"  overflow="visible"/>
			</clipPath>
			<path clip-path="url(#SVGID_49_)" fill="#BEBEBD" d="M854.239,70.36c0,3.699-2.983,6.697-6.663,6.697
				c-3.681,0-6.664-2.998-6.664-6.697s2.983-6.699,6.664-6.699C851.256,63.661,854.239,66.661,854.239,70.36"/>
			<path clip-path="url(#SVGID_49_)" fill="#C0C0C0" d="M854.082,70.36c0,3.611-2.912,6.54-6.506,6.54s-6.505-2.929-6.505-6.54
				c0-3.613,2.911-6.542,6.505-6.542S854.082,66.747,854.082,70.36"/>
			<path clip-path="url(#SVGID_49_)" fill="#C2C3C3" d="M853.925,70.36c0,3.524-2.843,6.385-6.349,6.385
				c-3.505,0-6.35-2.86-6.35-6.385c0-3.525,2.845-6.385,6.35-6.385C851.082,63.976,853.925,66.835,853.925,70.36"/>
			<path clip-path="url(#SVGID_49_)" fill="#C4C5C4" d="M853.768,70.36c0,3.438-2.771,6.226-6.191,6.226
				c-3.42,0-6.193-2.788-6.193-6.226c0-3.439,2.773-6.227,6.193-6.227C850.997,64.134,853.768,66.921,853.768,70.36"/>
			<path clip-path="url(#SVGID_49_)" fill="#C6C8C8" d="M853.613,70.36c0,3.35-2.705,6.068-6.037,6.068
				c-3.334,0-6.036-2.719-6.036-6.068c0-3.352,2.702-6.07,6.036-6.07C850.908,64.29,853.613,67.009,853.613,70.36"/>
			<path clip-path="url(#SVGID_49_)" fill="#C9CACB" d="M853.455,70.36c0,3.264-2.631,5.91-5.879,5.91
				c-3.247,0-5.879-2.646-5.879-5.91c0-3.266,2.632-5.912,5.879-5.912C850.824,64.448,853.455,67.095,853.455,70.36"/>
			<path clip-path="url(#SVGID_49_)" fill="#CBCDCD" d="M853.299,70.36c0,3.177-2.562,5.754-5.723,5.754
				c-3.16,0-5.723-2.577-5.723-5.754c0-3.178,2.563-5.756,5.723-5.756C850.737,64.604,853.299,67.183,853.299,70.36"/>
			<path clip-path="url(#SVGID_49_)" fill="#CCCFD0" d="M853.144,70.36c0,3.09-2.493,5.596-5.567,5.596
				c-3.072,0-5.565-2.506-5.565-5.596c0-3.092,2.493-5.596,5.565-5.596C850.65,64.765,853.144,67.269,853.144,70.36"/>
			<path clip-path="url(#SVGID_49_)" fill="#D0D2D2" d="M852.987,70.36c0,3.004-2.423,5.438-5.411,5.438
				c-2.987,0-5.407-2.435-5.407-5.438s2.42-5.44,5.407-5.44C850.564,64.92,852.987,67.356,852.987,70.36"/>
			<path clip-path="url(#SVGID_49_)" fill="#D2D4D5" d="M852.829,70.36c0,2.916-2.354,5.281-5.253,5.281
				c-2.901,0-5.253-2.365-5.253-5.281c0-2.918,2.352-5.281,5.253-5.281C850.476,65.079,852.829,67.442,852.829,70.36"/>
		</g>
	</g>
	<polygon fill="#605F5E" points="846.705,74.39 846.705,71.235 843.571,71.235 843.571,69.485 846.705,69.485 846.705,66.331 
		848.447,66.331 848.447,69.485 851.582,69.485 851.582,71.235 848.447,71.235 848.447,74.39 	"/>
	<path fill="#221714" d="M848.297,66.483v2.849v0.306h0.298h2.837v1.445h-2.837h-0.298v0.303v2.85h-1.44v-2.85v-0.303h-0.302h-2.834
		v-1.445h2.834h0.302v-0.306v-2.849H848.297z M848.595,66.182h-2.04v3.15h-3.135v2.054h3.135v3.153h2.04v-3.153h3.139v-2.054h-3.139
		V66.182z"/>
</g>
<radialGradient id="SVGID_50_" cx="536.0356" cy="47.4292" r="7.3062" gradientUnits="userSpaceOnUse">
	<stop  offset="0" style="stop-color:#FFFFFF"/>
	<stop  offset="1" style="stop-color:#1EAA39"/>
</radialGradient>
<circle fill="url(#SVGID_50_)" stroke="#0E0E0E" stroke-miterlimit="10" cx="536.036" cy="47.43" r="7.306"/>
<radialGradient id="SVGID_51_" cx="536.0342" cy="71.5396" r="7.3064" gradientUnits="userSpaceOnUse">
	<stop  offset="0" style="stop-color:#FFFFFF"/>
	<stop  offset="1" style="stop-color:#FAED00"/>
</radialGradient>
<circle fill="url(#SVGID_51_)" stroke="#0E0E0E" stroke-miterlimit="10" cx="536.034" cy="71.54" r="7.307"/>
<radialGradient id="SVGID_52_" cx="536.0356" cy="94.4722" r="7.3062" gradientUnits="userSpaceOnUse">
	<stop  offset="0" style="stop-color:#FFFFFF"/>
	<stop  offset="1" style="stop-color:#C30D23"/>
</radialGradient>
<circle fill="url(#SVGID_52_)" stroke="#0E0E0E" stroke-miterlimit="10" cx="536.036" cy="94.473" r="7.306"/>
<text transform="matrix(1 0 0 1 509.2158 49.8848)" fill="#DADADA" font-family="'SimHei'" font-size="8">RUN</text>
<text transform="matrix(1 0 0 1 506.2158 74.7354)" fill="#DADADA" font-family="'SimHei'" font-size="8">ALARM</text>
<text transform="matrix(1 0 0 1 506.2158 98.1094)" fill="#DADADA" font-family="'SimHei'" font-size="8">FAULT</text>
<g>
	<circle fill="#030000" cx="761.874" cy="191.528" r="49.001"/>
	<circle fill="#464647" cx="761.874" cy="191.528" r="37.493"/>
	<circle fill="#030000" cx="761.874" cy="191.528" r="32.356"/>
	<circle fill="#464647" cx="761.874" cy="191.528" r="24.429"/>
	<path fill="#464647" d="M795.672,224.638c0.657,0.657,0.664,1.716,0.014,2.365l0,0c-0.65,0.649-1.708,0.643-2.364-0.014
		l-67.744-67.744c-0.659-0.657-0.665-1.716-0.016-2.366l0,0c0.649-0.65,1.708-0.644,2.365,0.014L795.672,224.638z"/>
	<path fill="#464647" d="M727.927,226.162c-0.656,0.657-1.716,0.664-2.365,0.014l0,0c-0.649-0.65-0.644-1.708,0.015-2.365
		l67.745-67.742c0.656-0.658,1.714-0.665,2.364-0.015l0,0c0.65,0.649,0.644,1.708-0.014,2.366L727.927,226.162z"/>
</g>
<g>
	<circle fill="#030000" cx="618.782" cy="191.528" r="49.001"/>
	<circle fill="#464647" cx="618.782" cy="191.528" r="37.493"/>
	<circle fill="#030000" cx="618.782" cy="191.528" r="32.356"/>
	<circle fill="#464647" cx="618.782" cy="191.528" r="24.43"/>
	<path fill="#464647" d="M652.58,224.638c0.657,0.657,0.664,1.716,0.014,2.365l0,0c-0.649,0.649-1.708,0.643-2.366-0.014
		l-67.743-67.744c-0.657-0.657-0.663-1.716-0.015-2.366l0,0c0.649-0.65,1.708-0.644,2.366,0.014L652.58,224.638z"/>
	<path fill="#464647" d="M584.836,226.162c-0.657,0.657-1.717,0.664-2.366,0.014l0,0c-0.648-0.65-0.643-1.708,0.015-2.365
		l67.743-67.742c0.658-0.658,1.717-0.665,2.366-0.015l0,0c0.65,0.649,0.644,1.708-0.014,2.366L584.836,226.162z"/>
</g>
<g>
	<g>
		<defs>
			<path id="SVGID_53_" d="M832.6,151.035l-0.116-4.7l-19.275-1.058l-2.635,17.409c-1.046,6.95,3.708,13.295,9.966,13.295h2.345
				c2.844,0,5.33-2.156,6.062-5.248l2.787-11.82c0.505-2.298,0.87-5.155,0.87-7.564C832.603,151.244,832.6,151.14,832.6,151.035"/>
		</defs>
		<linearGradient id="SVGID_54_" gradientUnits="userSpaceOnUse" x1="810.3037" y1="160.6294" x2="828.6446" y2="160.6294">
			<stop  offset="0" style="stop-color:#343535"/>
			<stop  offset="0.4552" style="stop-color:#343535"/>
			<stop  offset="0.6523" style="stop-color:#636666"/>
			<stop  offset="1" style="stop-color:#030000"/>
		</linearGradient>
		<use xlink:href="#SVGID_53_"  overflow="visible" fill="url(#SVGID_54_)"/>
		<clipPath id="SVGID_55_">
			<use xlink:href="#SVGID_53_"  overflow="visible"/>
		</clipPath>
		
			<linearGradient id="SVGID_56_" gradientUnits="userSpaceOnUse" x1="-210.2915" y1="482.6719" x2="-210.8444" y2="484.0541" gradientTransform="matrix(-8.6407 -21.6019 21.6019 -8.6407 -11443.7969 -211.4688)">
			<stop  offset="0" style="stop-color:#343535"/>
			<stop  offset="0.4552" style="stop-color:#343535"/>
			<stop  offset="0.6523" style="stop-color:#636666"/>
			<stop  offset="1" style="stop-color:#030000"/>
		</linearGradient>
		<polygon clip-path="url(#SVGID_55_)" fill="url(#SVGID_56_)" points="842.002,171.747 829.419,136.321 800.124,149.516 
			812.709,184.941 		"/>
	</g>
	<g>
		<defs>
			<path id="SVGID_57_" d="M568.826,165.156l-3.382-19.875l-19.146,2.289c0,4.226,0.491,8.434,1.458,12.52l1.665,7.032
				c1.239,5.226,5.442,8.861,10.246,8.857h1.21c4.552,0,8.096-4.178,8.096-9.09C568.974,166.319,568.924,165.738,568.826,165.156"/>
		</defs>
		<linearGradient id="SVGID_58_" gradientUnits="userSpaceOnUse" x1="543.8916" y1="160.6304" x2="558.8764" y2="160.6304">
			<stop  offset="0" style="stop-color:#343535"/>
			<stop  offset="0.4552" style="stop-color:#343535"/>
			<stop  offset="0.6523" style="stop-color:#636666"/>
			<stop  offset="1" style="stop-color:#030000"/>
		</linearGradient>
		<use xlink:href="#SVGID_57_"  overflow="visible" fill="url(#SVGID_58_)"/>
		<clipPath id="SVGID_59_">
			<use xlink:href="#SVGID_57_"  overflow="visible"/>
		</clipPath>
		
			<linearGradient id="SVGID_60_" gradientUnits="userSpaceOnUse" x1="-222.9214" y1="483.9658" x2="-222.9214" y2="484.9674" gradientTransform="matrix(0 -14.9609 14.9609 0 -6696.6797 -3174.4688)">
			<stop  offset="0" style="stop-color:#343535"/>
			<stop  offset="0.4552" style="stop-color:#343535"/>
			<stop  offset="0.6523" style="stop-color:#636666"/>
			<stop  offset="1" style="stop-color:#030000"/>
		</linearGradient>
		<rect x="546.299" y="145.281" clip-path="url(#SVGID_59_)" fill="url(#SVGID_60_)" width="22.675" height="30.702"/>
	</g>
	
		<linearGradient id="SVGID_61_" gradientUnits="userSpaceOnUse" x1="-3734.1621" y1="-4307.624" x2="-3734.1621" y2="-4288.2314" gradientTransform="matrix(1 0 0 -1 4424.0957 -4151.3311)">
		<stop  offset="0" style="stop-color:#343535"/>
		<stop  offset="0.4552" style="stop-color:#343535"/>
		<stop  offset="0.6523" style="stop-color:#636666"/>
		<stop  offset="1" style="stop-color:#030000"/>
	</linearGradient>
	<path fill="url(#SVGID_61_)" d="M833.568,146.599c0-5.358-2.828-9.696-6.32-9.696L552.621,136.9c-3.491,0-6.322,4.34-6.322,9.696
		l0,0c0,5.354,2.831,9.695,6.322,9.695l274.627,0.001C830.74,156.293,833.568,151.951,833.568,146.599L833.568,146.599z"/>
</g>
<g>
	<path fill="#AFAEAE" d="M857.197,198.91c0,5.344-4.307,9.674-9.621,9.674c-5.313,0-9.621-4.33-9.621-9.674s4.308-9.674,9.621-9.674
		C852.891,189.236,857.197,193.566,857.197,198.91"/>
	<ellipse fill="none" stroke="#929292" stroke-miterlimit="10" cx="847.576" cy="198.91" rx="9.621" ry="9.674"/>
	<path fill="#AFAEAE" d="M854.646,198.91c0,3.925-3.167,7.107-7.07,7.107s-7.07-3.183-7.07-7.107c0-3.926,3.167-7.109,7.07-7.109
		S854.646,194.984,854.646,198.91"/>
	<ellipse fill="none" stroke="#929292" stroke-miterlimit="10" cx="847.576" cy="198.91" rx="7.07" ry="7.107"/>
	<g>
		<g>
			<defs>
				<rect id="SVGID_62_" x="840.911" y="192.211" width="13.329" height="13.396"/>
			</defs>
			<clipPath id="SVGID_63_">
				<use xlink:href="#SVGID_62_"  overflow="visible"/>
			</clipPath>
			<path clip-path="url(#SVGID_63_)" fill="#BEBEBD" d="M854.239,198.91c0,3.699-2.983,6.697-6.663,6.697
				c-3.681,0-6.664-2.998-6.664-6.697s2.983-6.699,6.664-6.699C851.256,192.211,854.239,195.211,854.239,198.91"/>
			<path clip-path="url(#SVGID_63_)" fill="#C0C0C0" d="M854.082,198.91c0,3.611-2.912,6.54-6.506,6.54s-6.505-2.929-6.505-6.54
				c0-3.613,2.911-6.542,6.505-6.542S854.082,195.297,854.082,198.91"/>
			<path clip-path="url(#SVGID_63_)" fill="#C2C3C3" d="M853.925,198.91c0,3.524-2.843,6.385-6.349,6.385
				c-3.505,0-6.35-2.86-6.35-6.385c0-3.525,2.845-6.385,6.35-6.385C851.082,192.525,853.925,195.385,853.925,198.91"/>
			<path clip-path="url(#SVGID_63_)" fill="#C4C5C4" d="M853.768,198.91c0,3.438-2.771,6.226-6.191,6.226
				c-3.42,0-6.193-2.788-6.193-6.226c0-3.439,2.773-6.227,6.193-6.227C850.997,192.684,853.768,195.471,853.768,198.91"/>
			<path clip-path="url(#SVGID_63_)" fill="#C6C8C8" d="M853.613,198.91c0,3.35-2.705,6.068-6.037,6.068
				c-3.334,0-6.036-2.719-6.036-6.068c0-3.352,2.702-6.07,6.036-6.07C850.908,192.84,853.613,195.559,853.613,198.91"/>
			<path clip-path="url(#SVGID_63_)" fill="#C9CACB" d="M853.455,198.91c0,3.264-2.631,5.91-5.879,5.91
				c-3.247,0-5.879-2.646-5.879-5.91c0-3.266,2.632-5.912,5.879-5.912C850.824,192.998,853.455,195.645,853.455,198.91"/>
			<path clip-path="url(#SVGID_63_)" fill="#CBCDCD" d="M853.299,198.91c0,3.177-2.562,5.754-5.723,5.754
				c-3.16,0-5.723-2.577-5.723-5.754c0-3.178,2.563-5.756,5.723-5.756C850.737,193.154,853.299,195.732,853.299,198.91"/>
			<path clip-path="url(#SVGID_63_)" fill="#CCCFD0" d="M853.144,198.91c0,3.09-2.493,5.596-5.567,5.596
				c-3.072,0-5.565-2.506-5.565-5.596c0-3.092,2.493-5.596,5.565-5.596C850.65,193.314,853.144,195.818,853.144,198.91"/>
			<path clip-path="url(#SVGID_63_)" fill="#D0D2D2" d="M852.987,198.91c0,3.004-2.423,5.438-5.411,5.438
				c-2.987,0-5.407-2.435-5.407-5.438s2.42-5.44,5.407-5.44C850.564,193.47,852.987,195.906,852.987,198.91"/>
			<path clip-path="url(#SVGID_63_)" fill="#D2D4D5" d="M852.829,198.91c0,2.916-2.354,5.281-5.253,5.281
				c-2.901,0-5.253-2.365-5.253-5.281c0-2.918,2.352-5.281,5.253-5.281C850.476,193.629,852.829,195.992,852.829,198.91"/>
		</g>
	</g>
	<polygon fill="#605F5E" points="846.705,202.939 846.705,199.785 843.571,199.785 843.571,198.035 846.705,198.035 
		846.705,194.881 848.447,194.881 848.447,198.035 851.582,198.035 851.582,199.785 848.447,199.785 848.447,202.939 	"/>
	<path fill="#221714" d="M848.297,195.033v2.849v0.306h0.298h2.837v1.445h-2.837h-0.298v0.303v2.85h-1.44v-2.85v-0.303h-0.302
		h-2.834v-1.445h2.834h0.302v-0.306v-2.849H848.297z M848.595,194.731h-2.04v3.15h-3.135v2.054h3.135v3.153h2.04v-3.153h3.139
		v-2.054h-3.139V194.731z"/>
</g>
<g>
	<path fill="#AFAEAE" d="M857.197,319.665c0,5.344-4.306,9.674-9.62,9.674c-5.313,0-9.621-4.33-9.621-9.674s4.309-9.674,9.621-9.674
		C852.892,309.991,857.197,314.321,857.197,319.665"/>
	<ellipse fill="none" stroke="#929292" stroke-miterlimit="10" cx="847.577" cy="319.665" rx="9.621" ry="9.674"/>
	<path fill="#AFAEAE" d="M854.647,319.665c0,3.925-3.168,7.107-7.07,7.107c-3.903,0-7.07-3.183-7.07-7.107
		c0-3.926,3.167-7.109,7.07-7.109C851.479,312.556,854.647,315.739,854.647,319.665"/>
	<ellipse fill="none" stroke="#929292" stroke-miterlimit="10" cx="847.577" cy="319.665" rx="7.07" ry="7.107"/>
	<g>
		<g>
			<defs>
				<rect id="SVGID_64_" x="840.912" y="312.966" width="13.329" height="13.396"/>
			</defs>
			<clipPath id="SVGID_65_">
				<use xlink:href="#SVGID_64_"  overflow="visible"/>
			</clipPath>
			<path clip-path="url(#SVGID_65_)" fill="#BEBEBD" d="M854.24,319.665c0,3.699-2.983,6.697-6.663,6.697
				c-3.682,0-6.664-2.998-6.664-6.697s2.982-6.699,6.664-6.699C851.257,312.966,854.24,315.966,854.24,319.665"/>
			<path clip-path="url(#SVGID_65_)" fill="#C0C0C0" d="M854.083,319.665c0,3.611-2.913,6.54-6.506,6.54
				c-3.594,0-6.505-2.929-6.505-6.54c0-3.613,2.911-6.542,6.505-6.542C851.17,313.123,854.083,316.052,854.083,319.665"/>
			<path clip-path="url(#SVGID_65_)" fill="#C2C3C3" d="M853.926,319.665c0,3.524-2.843,6.385-6.349,6.385
				c-3.505,0-6.35-2.86-6.35-6.385c0-3.525,2.845-6.385,6.35-6.385C851.083,313.28,853.926,316.14,853.926,319.665"/>
			<path clip-path="url(#SVGID_65_)" fill="#C4C5C4" d="M853.768,319.665c0,3.438-2.77,6.226-6.19,6.226
				c-3.42,0-6.194-2.788-6.194-6.226c0-3.439,2.774-6.227,6.194-6.227C850.998,313.438,853.768,316.226,853.768,319.665"/>
			<path clip-path="url(#SVGID_65_)" fill="#C6C8C8" d="M853.613,319.665c0,3.35-2.704,6.068-6.036,6.068
				c-3.334,0-6.036-2.719-6.036-6.068c0-3.352,2.702-6.07,6.036-6.07C850.909,313.595,853.613,316.313,853.613,319.665"/>
			<path clip-path="url(#SVGID_65_)" fill="#C9CACB" d="M853.456,319.665c0,3.264-2.631,5.91-5.879,5.91
				c-3.246,0-5.879-2.646-5.879-5.91c0-3.266,2.633-5.912,5.879-5.912C850.825,313.753,853.456,316.399,853.456,319.665"/>
			<path clip-path="url(#SVGID_65_)" fill="#CBCDCD" d="M853.3,319.665c0,3.177-2.563,5.754-5.723,5.754s-5.723-2.577-5.723-5.754
				c0-3.178,2.563-5.756,5.723-5.756S853.3,316.487,853.3,319.665"/>
			<path clip-path="url(#SVGID_65_)" fill="#CCCFD0" d="M853.144,319.665c0,3.09-2.491,5.596-5.566,5.596
				c-3.072,0-5.566-2.506-5.566-5.596c0-3.092,2.494-5.596,5.566-5.596C850.652,314.069,853.144,316.573,853.144,319.665"/>
			<path clip-path="url(#SVGID_65_)" fill="#D0D2D2" d="M852.988,319.665c0,3.004-2.423,5.438-5.411,5.438
				c-2.987,0-5.408-2.435-5.408-5.438s2.421-5.44,5.408-5.44C850.565,314.225,852.988,316.661,852.988,319.665"/>
			<path clip-path="url(#SVGID_65_)" fill="#D2D4D5" d="M852.831,319.665c0,2.916-2.354,5.281-5.254,5.281
				c-2.901,0-5.253-2.365-5.253-5.281c0-2.918,2.352-5.281,5.253-5.281C850.478,314.384,852.831,316.747,852.831,319.665"/>
		</g>
	</g>
	<polygon fill="#605F5E" points="846.706,323.694 846.706,320.54 843.572,320.54 843.572,318.79 846.706,318.79 846.706,315.636 
		848.448,315.636 848.448,318.79 851.583,318.79 851.583,320.54 848.448,320.54 848.448,323.694 	"/>
	<path fill="#221714" d="M848.298,315.788v2.849v0.306h0.299h2.836v1.445h-2.836h-0.299v0.303v2.85h-1.439v-2.85v-0.303h-0.301
		h-2.836v-1.445h2.836h0.301v-0.306v-2.849H848.298z M848.597,315.486h-2.039v3.15h-3.137v2.054h3.137v3.153h2.039v-3.153h3.138
		v-2.054h-3.138V315.486z"/>
</g>
<radialGradient id="SVGID_66_" cx="536.0356" cy="175.979" r="7.3062" gradientUnits="userSpaceOnUse">
	<stop  offset="0" style="stop-color:#FFFFFF"/>
	<stop  offset="1" style="stop-color:#1EAA39"/>
</radialGradient>
<circle fill="url(#SVGID_66_)" stroke="#0E0E0E" stroke-miterlimit="10" cx="536.036" cy="175.979" r="7.306"/>
<radialGradient id="SVGID_67_" cx="668.2188" cy="352.7207" r="7.3066" gradientUnits="userSpaceOnUse">
	<stop  offset="0" style="stop-color:#FFFFFF"/>
	<stop  offset="1" style="stop-color:#1EAA39"/>
</radialGradient>
<circle fill="url(#SVGID_67_)" stroke="#0E0E0E" stroke-miterlimit="10" cx="668.219" cy="352.722" r="7.306"/>
<circle fill="#232525" stroke="#0E0E0E" stroke-miterlimit="10" cx="643.899" cy="352.722" r="7.306"/>
<circle fill="#232525" stroke="#0E0E0E" stroke-miterlimit="10" cx="619.579" cy="352.722" r="7.306"/>
<circle fill="#232525" stroke="#0E0E0E" stroke-miterlimit="10" cx="595.259" cy="352.722" r="7.306"/>
<radialGradient id="SVGID_68_" cx="536.0342" cy="200.0898" r="7.3062" gradientUnits="userSpaceOnUse">
	<stop  offset="0" style="stop-color:#FFFFFF"/>
	<stop  offset="1" style="stop-color:#FAED00"/>
</radialGradient>
<circle fill="url(#SVGID_68_)" stroke="#0E0E0E" stroke-miterlimit="10" cx="536.034" cy="200.09" r="7.307"/>
<radialGradient id="SVGID_69_" cx="536.0356" cy="223.0215" r="7.3064" gradientUnits="userSpaceOnUse">
	<stop  offset="0" style="stop-color:#FFFFFF"/>
	<stop  offset="1" style="stop-color:#C30D23"/>
</radialGradient>
<circle fill="url(#SVGID_69_)" stroke="#0E0E0E" stroke-miterlimit="10" cx="536.036" cy="223.022" r="7.306"/>
<radialGradient id="SVGID_70_" cx="692.541" cy="352.7207" r="7.3062" gradientUnits="userSpaceOnUse">
	<stop  offset="0" style="stop-color:#FFFFFF"/>
	<stop  offset="1" style="stop-color:#C30D23"/>
</radialGradient>
<circle fill="url(#SVGID_70_)" stroke="#0E0E0E" stroke-miterlimit="10" cx="692.541" cy="352.722" r="7.306"/>
<text transform="matrix(1 0 0 1 509.2158 178.4346)" fill="#DADADA" font-family="'SimHei'" font-size="8">RUN</text>
<text transform="matrix(1 0 0 1 506.2158 203.2852)" fill="#DADADA" font-family="'SimHei'" font-size="8">ALARM</text>
<text transform="matrix(1 0 0 1 506.2158 226.6592)" fill="#DADADA" font-family="'SimHei'" font-size="8">FAULT</text>
<g>
	<circle fill="#030000" cx="1127.492" cy="320.078" r="49.001"/>
	<circle fill="#464647" cx="1127.492" cy="320.078" r="37.493"/>
	<circle fill="#030000" cx="1127.492" cy="320.078" r="32.357"/>
	<circle fill="#464647" cx="1127.492" cy="320.078" r="24.43"/>
	<path fill="#464647" d="M1161.29,353.188c0.657,0.657,0.663,1.716,0.013,2.365l0,0c-0.649,0.649-1.708,0.643-2.364-0.014
		l-67.742-67.744c-0.659-0.657-0.665-1.716-0.018-2.366l0,0c0.65-0.65,1.708-0.644,2.367,0.014L1161.29,353.188z"/>
	<path fill="#464647" d="M1093.546,354.712c-0.657,0.657-1.717,0.664-2.367,0.014l0,0c-0.647-0.65-0.642-1.708,0.017-2.365
		l67.743-67.742c0.656-0.658,1.715-0.665,2.364-0.015l0,0c0.65,0.649,0.645,1.708-0.013,2.366L1093.546,354.712z"/>
</g>
<g>
	<circle fill="#030000" cx="984.4" cy="320.078" r="49"/>
	<circle fill="#464647" cx="984.4" cy="320.078" r="37.493"/>
	<circle fill="#030000" cx="984.4" cy="320.078" r="32.356"/>
	<circle fill="#464647" cx="984.4" cy="320.078" r="24.429"/>
	<path fill="#464647" d="M1018.197,353.188c0.658,0.657,0.666,1.716,0.015,2.365l0,0c-0.65,0.649-1.708,0.643-2.365-0.014
		l-67.743-67.744c-0.658-0.657-0.665-1.716-0.016-2.366l0,0c0.649-0.65,1.708-0.644,2.365,0.014L1018.197,353.188z"/>
	<path fill="#464647" d="M950.453,354.712c-0.656,0.657-1.716,0.664-2.365,0.014l0,0c-0.649-0.65-0.643-1.708,0.015-2.365
		l67.744-67.742c0.657-0.658,1.715-0.665,2.365-0.015l0,0c0.651,0.649,0.644,1.708-0.015,2.366L950.453,354.712z"/>
</g>
<g>
	<g>
		<defs>
			<path id="SVGID_71_" d="M1198.218,279.585l-0.116-4.7l-19.275-1.058l-2.634,17.409c-1.049,6.95,3.706,13.295,9.965,13.295h2.345
				c2.845,0,5.33-2.156,6.061-5.248l2.788-11.82c0.504-2.298,0.87-5.155,0.87-7.564
				C1198.221,279.794,1198.218,279.689,1198.218,279.585"/>
		</defs>
		<linearGradient id="SVGID_72_" gradientUnits="userSpaceOnUse" x1="1175.9219" y1="289.1797" x2="1194.2627" y2="289.1797">
			<stop  offset="0" style="stop-color:#343535"/>
			<stop  offset="0.4552" style="stop-color:#343535"/>
			<stop  offset="0.6523" style="stop-color:#636666"/>
			<stop  offset="1" style="stop-color:#030000"/>
		</linearGradient>
		<use xlink:href="#SVGID_71_"  overflow="visible" fill="url(#SVGID_72_)"/>
		<clipPath id="SVGID_73_">
			<use xlink:href="#SVGID_71_"  overflow="visible"/>
		</clipPath>
		
			<linearGradient id="SVGID_74_" gradientUnits="userSpaceOnUse" x1="-221.2578" y1="495.21" x2="-221.8107" y2="496.5922" gradientTransform="matrix(-8.6407 -21.6019 21.6019 -8.6407 -11443.7969 -211.4688)">
			<stop  offset="0" style="stop-color:#343535"/>
			<stop  offset="0.4552" style="stop-color:#343535"/>
			<stop  offset="0.6523" style="stop-color:#636666"/>
			<stop  offset="1" style="stop-color:#030000"/>
		</linearGradient>
		<polygon clip-path="url(#SVGID_73_)" fill="url(#SVGID_74_)" points="1207.62,300.297 1195.037,264.871 1165.741,278.065 
			1178.327,313.491 		"/>
	</g>
	<g>
		<defs>
			<path id="SVGID_75_" d="M934.445,293.706l-3.384-19.875l-19.145,2.289c0,4.226,0.491,8.434,1.458,12.52l1.665,7.032
				c1.24,5.226,5.439,8.861,10.245,8.857h1.211c4.55,0,8.095-4.178,8.095-9.09C934.591,294.869,934.542,294.288,934.445,293.706"/>
		</defs>
		<linearGradient id="SVGID_76_" gradientUnits="userSpaceOnUse" x1="909.5098" y1="289.1797" x2="924.494" y2="289.1797">
			<stop  offset="0" style="stop-color:#343535"/>
			<stop  offset="0.4552" style="stop-color:#343535"/>
			<stop  offset="0.6523" style="stop-color:#636666"/>
			<stop  offset="1" style="stop-color:#030000"/>
		</linearGradient>
		<use xlink:href="#SVGID_75_"  overflow="visible" fill="url(#SVGID_76_)"/>
		<clipPath id="SVGID_77_">
			<use xlink:href="#SVGID_75_"  overflow="visible"/>
		</clipPath>
		
			<linearGradient id="SVGID_78_" gradientUnits="userSpaceOnUse" x1="-231.5142" y1="508.4043" x2="-231.5142" y2="509.4059" gradientTransform="matrix(0 -14.9609 14.9609 0 -6696.6797 -3174.4688)">
			<stop  offset="0" style="stop-color:#343535"/>
			<stop  offset="0.4552" style="stop-color:#343535"/>
			<stop  offset="0.6523" style="stop-color:#636666"/>
			<stop  offset="1" style="stop-color:#030000"/>
		</linearGradient>
		<rect x="911.917" y="273.831" clip-path="url(#SVGID_77_)" fill="url(#SVGID_78_)" width="22.674" height="30.702"/>
	</g>
	
		<linearGradient id="SVGID_79_" gradientUnits="userSpaceOnUse" x1="-3368.543" y1="-4436.1738" x2="-3368.543" y2="-4416.7813" gradientTransform="matrix(1 0 0 -1 4424.0957 -4151.3311)">
		<stop  offset="0" style="stop-color:#343535"/>
		<stop  offset="0.4552" style="stop-color:#343535"/>
		<stop  offset="0.6523" style="stop-color:#636666"/>
		<stop  offset="1" style="stop-color:#030000"/>
	</linearGradient>
	<path fill="url(#SVGID_79_)" d="M1199.188,275.148c0-5.358-2.829-9.696-6.321-9.696L918.24,265.45c-3.492,0-6.323,4.34-6.323,9.696
		l0,0c0,5.354,2.831,9.695,6.323,9.695l274.626,0.001C1196.358,284.843,1199.188,280.501,1199.188,275.148L1199.188,275.148z"/>
</g>
<g>
	<path fill="#AFAEAE" d="M1222.815,327.46c0,5.344-4.307,9.674-9.62,9.674s-9.622-4.33-9.622-9.674s4.309-9.674,9.622-9.674
		S1222.815,322.116,1222.815,327.46"/>
	<ellipse fill="none" stroke="#929292" stroke-miterlimit="10" cx="1213.194" cy="327.46" rx="9.621" ry="9.674"/>
	<path fill="#AFAEAE" d="M1220.265,327.46c0,3.925-3.166,7.107-7.069,7.107c-3.904,0-7.071-3.183-7.071-7.107
		c0-3.926,3.167-7.109,7.071-7.109C1217.099,320.351,1220.265,323.534,1220.265,327.46"/>
	<ellipse fill="none" stroke="#929292" stroke-miterlimit="10" cx="1213.194" cy="327.46" rx="7.07" ry="7.107"/>
	<g>
		<g>
			<defs>
				<rect id="SVGID_80_" x="1206.528" y="320.761" width="13.33" height="13.396"/>
			</defs>
			<clipPath id="SVGID_81_">
				<use xlink:href="#SVGID_80_"  overflow="visible"/>
			</clipPath>
			<path clip-path="url(#SVGID_81_)" fill="#BEBEBD" d="M1219.856,327.46c0,3.699-2.982,6.697-6.661,6.697
				c-3.682,0-6.664-2.998-6.664-6.697s2.982-6.699,6.664-6.699C1216.874,320.761,1219.856,323.761,1219.856,327.46"/>
			<path clip-path="url(#SVGID_81_)" fill="#C0C0C0" d="M1219.7,327.46c0,3.611-2.912,6.54-6.505,6.54
				c-3.595,0-6.508-2.929-6.508-6.54c0-3.613,2.913-6.542,6.508-6.542C1216.788,320.918,1219.7,323.847,1219.7,327.46"/>
			<path clip-path="url(#SVGID_81_)" fill="#C2C3C3" d="M1219.543,327.46c0,3.524-2.843,6.385-6.348,6.385
				c-3.508,0-6.351-2.86-6.351-6.385c0-3.525,2.843-6.385,6.351-6.385C1216.7,321.075,1219.543,323.935,1219.543,327.46"/>
			<path clip-path="url(#SVGID_81_)" fill="#C4C5C4" d="M1219.386,327.46c0,3.438-2.771,6.226-6.19,6.226
				c-3.421,0-6.193-2.788-6.193-6.226c0-3.439,2.772-6.227,6.193-6.227C1216.615,321.233,1219.386,324.021,1219.386,327.46"/>
			<path clip-path="url(#SVGID_81_)" fill="#C6C8C8" d="M1219.23,327.46c0,3.35-2.703,6.068-6.035,6.068
				c-3.334,0-6.038-2.719-6.038-6.068c0-3.352,2.704-6.07,6.038-6.07C1216.527,321.39,1219.23,324.108,1219.23,327.46"/>
			<path clip-path="url(#SVGID_81_)" fill="#C9CACB" d="M1219.073,327.46c0,3.264-2.631,5.91-5.878,5.91s-5.88-2.646-5.88-5.91
				c0-3.266,2.633-5.912,5.88-5.912S1219.073,324.194,1219.073,327.46"/>
			<path clip-path="url(#SVGID_81_)" fill="#CBCDCD" d="M1218.917,327.46c0,3.177-2.563,5.754-5.722,5.754
				c-3.161,0-5.725-2.577-5.725-5.754c0-3.178,2.563-5.756,5.725-5.756C1216.354,321.704,1218.917,324.282,1218.917,327.46"/>
			<path clip-path="url(#SVGID_81_)" fill="#CCCFD0" d="M1218.762,327.46c0,3.09-2.494,5.596-5.566,5.596
				c-3.074,0-5.566-2.506-5.566-5.596c0-3.092,2.492-5.596,5.566-5.596C1216.268,321.864,1218.762,324.368,1218.762,327.46"/>
			<path clip-path="url(#SVGID_81_)" fill="#D0D2D2" d="M1218.604,327.46c0,3.004-2.421,5.438-5.408,5.438
				c-2.988,0-5.41-2.435-5.41-5.438s2.422-5.44,5.41-5.44C1216.183,322.02,1218.604,324.456,1218.604,327.46"/>
			<path clip-path="url(#SVGID_81_)" fill="#D2D4D5" d="M1218.448,327.46c0,2.916-2.354,5.281-5.253,5.281
				c-2.902,0-5.254-2.365-5.254-5.281c0-2.918,2.352-5.281,5.254-5.281C1216.095,322.179,1218.448,324.542,1218.448,327.46"/>
		</g>
	</g>
	<polygon fill="#605F5E" points="1212.323,331.489 1212.323,328.335 1209.188,328.335 1209.188,326.585 1212.323,326.585 
		1212.323,323.431 1214.063,323.431 1214.063,326.585 1217.2,326.585 1217.2,328.335 1214.063,328.335 1214.063,331.489 	"/>
	<path fill="#221714" d="M1213.915,323.583v2.849v0.306h0.299h2.836v1.445h-2.836h-0.299v0.303v2.85h-1.439v-2.85v-0.303h-0.301
		h-2.837v-1.445h2.837h0.301v-0.306v-2.849H1213.915z M1214.214,323.281h-2.039v3.15h-3.138v2.054h3.138v3.153h2.039v-3.153h3.138
		v-2.054h-3.138V323.281z"/>
</g>
<radialGradient id="SVGID_82_" cx="901.6543" cy="304.5293" r="7.3062" gradientUnits="userSpaceOnUse">
	<stop  offset="0" style="stop-color:#FFFFFF"/>
	<stop  offset="1" style="stop-color:#1EAA39"/>
</radialGradient>
<circle fill="url(#SVGID_82_)" stroke="#0E0E0E" stroke-miterlimit="10" cx="901.654" cy="304.529" r="7.307"/>
<radialGradient id="SVGID_83_" cx="901.6523" cy="328.6387" r="7.3066" gradientUnits="userSpaceOnUse">
	<stop  offset="0" style="stop-color:#FFFFFF"/>
	<stop  offset="1" style="stop-color:#FAED00"/>
</radialGradient>
<circle fill="url(#SVGID_83_)" stroke="#0E0E0E" stroke-miterlimit="10" cx="901.653" cy="328.64" r="7.306"/>
<radialGradient id="SVGID_84_" cx="901.6543" cy="351.5723" r="7.3062" gradientUnits="userSpaceOnUse">
	<stop  offset="0" style="stop-color:#FFFFFF"/>
	<stop  offset="1" style="stop-color:#C30D23"/>
</radialGradient>
<circle fill="url(#SVGID_84_)" stroke="#0E0E0E" stroke-miterlimit="10" cx="901.654" cy="351.572" r="7.307"/>
<text transform="matrix(1 0 0 1 874.834 306.9844)" fill="#DADADA" font-family="'SimHei'" font-size="8">RUN</text>
<text transform="matrix(1 0 0 1 871.834 331.835)" fill="#DADADA" font-family="'SimHei'" font-size="8">ALARM</text>
<text transform="matrix(1 0 0 1 871.834 355.209)" fill="#DADADA" font-family="'SimHei'" font-size="8">FAULT</text>
<rect x="534.816" y="275.146" fill="#4F7434" stroke="#101010" stroke-width="3" stroke-miterlimit="10" width="167.017" height="48.285"/>
<g>
	<g>
		<defs>
			<path id="SVGID_85_" d="M583.965,356.49l-0.048-1.934l-7.935-0.436l-1.084,7.166c-0.431,2.86,1.526,5.473,4.103,5.473h0.965
				c1.171,0,2.194-0.888,2.495-2.16l1.147-4.865c0.207-0.946,0.358-2.123,0.358-3.114
				C583.967,356.576,583.965,356.534,583.965,356.49"/>
		</defs>
		<linearGradient id="SVGID_86_" gradientUnits="userSpaceOnUse" x1="574.7871" y1="360.4404" x2="582.3372" y2="360.4404">
			<stop  offset="0" style="stop-color:#343535"/>
			<stop  offset="0.4552" style="stop-color:#343535"/>
			<stop  offset="0.6523" style="stop-color:#636666"/>
			<stop  offset="1" style="stop-color:#030000"/>
		</linearGradient>
		<use xlink:href="#SVGID_85_"  overflow="visible" fill="url(#SVGID_86_)"/>
		<clipPath id="SVGID_87_">
			<use xlink:href="#SVGID_85_"  overflow="visible"/>
		</clipPath>
		
			<linearGradient id="SVGID_88_" gradientUnits="userSpaceOnUse" x1="-214.6035" y1="470.3281" x2="-214.8311" y2="470.897" gradientTransform="matrix(-8.6407 -21.6019 21.6019 -8.6407 -11443.7969 -211.4688)">
			<stop  offset="0" style="stop-color:#343535"/>
			<stop  offset="0.4552" style="stop-color:#343535"/>
			<stop  offset="0.6523" style="stop-color:#636666"/>
			<stop  offset="1" style="stop-color:#030000"/>
		</linearGradient>
		<polygon clip-path="url(#SVGID_87_)" fill="url(#SVGID_88_)" points="587.836,365.017 582.656,350.434 570.598,355.865 
			575.777,370.448 		"/>
	</g>
	<g>
		<defs>
			<path id="SVGID_89_" d="M514.385,362.306l-1.393-8.182l-7.88,0.942c0,1.739,0.201,3.471,0.6,5.152l0.686,2.896
				c0.51,2.15,2.239,3.647,4.217,3.645h0.499c1.874,0,3.332-1.719,3.332-3.741C514.445,362.783,514.426,362.545,514.385,362.306"/>
		</defs>
		<linearGradient id="SVGID_90_" gradientUnits="userSpaceOnUse" x1="504.1216" y1="360.4414" x2="510.2894" y2="360.4414">
			<stop  offset="0" style="stop-color:#343535"/>
			<stop  offset="0.4552" style="stop-color:#343535"/>
			<stop  offset="0.6523" style="stop-color:#636666"/>
			<stop  offset="1" style="stop-color:#030000"/>
		</linearGradient>
		<use xlink:href="#SVGID_89_"  overflow="visible" fill="url(#SVGID_90_)"/>
		<clipPath id="SVGID_91_">
			<use xlink:href="#SVGID_89_"  overflow="visible"/>
		</clipPath>
		
			<linearGradient id="SVGID_92_" gradientUnits="userSpaceOnUse" x1="-236.2769" y1="481.3076" x2="-236.2769" y2="481.72" gradientTransform="matrix(0 -14.9609 14.9609 0 -6696.6797 -3174.4688)">
			<stop  offset="0" style="stop-color:#343535"/>
			<stop  offset="0.4552" style="stop-color:#343535"/>
			<stop  offset="0.6523" style="stop-color:#636666"/>
			<stop  offset="1" style="stop-color:#030000"/>
		</linearGradient>
		<rect x="505.112" y="354.124" clip-path="url(#SVGID_91_)" fill="url(#SVGID_92_)" width="9.333" height="12.639"/>
	</g>
	
		<linearGradient id="SVGID_93_" gradientUnits="userSpaceOnUse" x1="-3879.2092" y1="-4509.9834" x2="-3879.2092" y2="-4496.9229" gradientTransform="matrix(1 0 0 -1 4424.0957 -4151.3311)">
		<stop  offset="0" style="stop-color:#343535"/>
		<stop  offset="0.4552" style="stop-color:#343535"/>
		<stop  offset="0.6523" style="stop-color:#636666"/>
		<stop  offset="1" style="stop-color:#030000"/>
	</linearGradient>
	<path fill="url(#SVGID_93_)" d="M584.665,352.121c0-3.607-0.784-6.527-1.75-6.527l-76.054-0.002c-0.97,0-1.753,2.922-1.753,6.529
		l0,0c0,3.605,0.783,6.531,1.753,6.531h76.054C583.881,358.652,584.665,355.727,584.665,352.121L584.665,352.121z"/>
</g>
<circle fill="#232525" stroke="#0E0E0E" stroke-miterlimit="10" cx="66.501" cy="32.651" r="7.306"/>
<circle fill="#232525" stroke="#0E0E0E" stroke-miterlimit="10" cx="66.499" cy="175.979" r="7.307"/>
<circle fill="#232525" stroke="#0E0E0E" stroke-miterlimit="10" cx="66.499" cy="319.308" r="7.306"/>
<rect x="87.833" y="8.352" fill="#3E3E3F" width="414" height="358.408"/>
<rect x="496.833" y="8.353" fill="#626363" stroke="#2F302F" stroke-miterlimit="10" width="5" height="360.727"/>
<rect x="89.532" y="8.352" fill="#626363" stroke="#2F302F" stroke-miterlimit="10" width="5" height="360.727"/>
</svg>
