<?xml version="1.0" encoding="utf-8"?>
<!-- Generator: Adobe Illustrator 21.0.0, SVG Export Plug-In . SVG Version: 6.00 Build 0)  -->
<svg version="1.1" id="图层_1" xmlns="http://www.w3.org/2000/svg" xmlns:xlink="http://www.w3.org/1999/xlink" x="0px" y="0px"
	 width="1417.3px" height="126.1px" viewBox="0 0 1417.3 126.1" enable-background="new 0 0 1417.3 126.1" xml:space="preserve">
<g id="XMLID_13819_">
	<rect id="XMLID_13835_" x="2" y="2" fill="#D1D1D1" width="1413.3" height="122.1"/>
	<path id="XMLID_13832_" fill="#2D2D2D" d="M1413.3,4v118.1H4V4H1413.3 M1417.3,0H0v126.1h1417.3V0L1417.3,0z"/>
</g>
<g id="XMLID_13800_">
	<rect id="XMLID_13818_" x="0" y="0" fill="#1C1C1C" width="63.8" height="126.1"/>
	<rect id="XMLID_13817_" x="61.3" y="0" fill="#070707" width="2.5" height="126.1"/>
	<linearGradient id="XMLID_1003_" gradientUnits="userSpaceOnUse" x1="16.6627" y1="23.2317" x2="44.5694" y2="23.2317">
		<stop  offset="0" style="stop-color:#FFFFFF"/>
		<stop  offset="5.656110e-02" style="stop-color:#A3A3A4"/>
		<stop  offset="0.3372" style="stop-color:#919292"/>
		<stop  offset="0.3831" style="stop-color:#E0E0DF"/>
		<stop  offset="0.4519" style="stop-color:#C1C0C0"/>
		<stop  offset="0.9264" style="stop-color:#E0E0DF"/>
		<stop  offset="0.9745" style="stop-color:#C1C0C0"/>
	</linearGradient>
	<path id="XMLID_13816_" fill="url(#XMLID_1003_)" d="M16.7,23.2c0,7.7,6.2,13.9,14,13.9c7.7,0,14-6.2,14-13.9
		c0-7.7-6.2-13.9-14-13.9C22.9,9.4,16.7,15.6,16.7,23.2"/>
	
		<ellipse id="XMLID_13815_" fill="none" stroke="#121212" stroke-width="0.75" stroke-miterlimit="10" cx="30.6" cy="23.2" rx="14" ry="13.9"/>
	<polygon id="XMLID_13814_" fill="#040000" points="32.3,31.1 32.3,24.9 38.5,24.9 38.5,21.5 32.3,21.5 32.3,15.4 28.9,15.4 
		28.9,21.5 22.7,21.5 22.7,24.9 28.9,24.9 28.9,31.1 	"/>
	<path id="XMLID_13811_" fill="#221714" d="M32,15.7v5.6v0.6h0.6h5.6v2.8h-5.6H32v0.6v5.6h-2.9v-5.6v-0.6h-0.6H23v-2.8h5.6h0.6v-0.6
		v-5.6H32z M28.6,21.2h-6.2v4h6.2v6.1h4v-6.1h6.2v-4h-6.2v-6.1h-4V21.2z"/>
	<rect id="XMLID_13810_" x="32" y="15.1" fill="#606062" width="0.6" height="6.7"/>
	<rect id="XMLID_13809_" x="32.1" y="21.2" fill="#606062" width="6.8" height="0.6"/>
	<linearGradient id="XMLID_1005_" gradientUnits="userSpaceOnUse" x1="16.6627" y1="102.5117" x2="44.5694" y2="102.5117">
		<stop  offset="0" style="stop-color:#FFFFFF"/>
		<stop  offset="5.656110e-02" style="stop-color:#A3A3A4"/>
		<stop  offset="0.3372" style="stop-color:#919292"/>
		<stop  offset="0.3831" style="stop-color:#E0E0DF"/>
		<stop  offset="0.4519" style="stop-color:#C1C0C0"/>
		<stop  offset="0.9264" style="stop-color:#E0E0DF"/>
		<stop  offset="0.9745" style="stop-color:#C1C0C0"/>
	</linearGradient>
	<path id="XMLID_13808_" fill="url(#XMLID_1005_)" d="M16.7,102.5c0,7.7,6.2,13.9,14,13.9c7.7,0,14-6.2,14-13.9
		c0-7.7-6.2-13.9-14-13.9C22.9,88.7,16.7,94.9,16.7,102.5"/>
	
		<ellipse id="XMLID_13807_" fill="none" stroke="#121212" stroke-width="0.75" stroke-miterlimit="10" cx="30.6" cy="102.5" rx="14" ry="13.9"/>
	<polygon id="XMLID_13806_" fill="#040000" points="32.3,110.4 32.3,104.2 38.5,104.2 38.5,100.8 32.3,100.8 32.3,94.7 28.9,94.7 
		28.9,100.8 22.7,100.8 22.7,104.2 28.9,104.2 28.9,110.4 	"/>
	<path id="XMLID_13803_" fill="#221714" d="M32,94.9v5.6v0.6h0.6h5.6v2.8h-5.6H32v0.6v5.6h-2.9v-5.6v-0.6h-0.6H23v-2.8h5.6h0.6v-0.6
		v-5.6H32z M28.6,100.5h-6.2v4h6.2v6.1h4v-6.1h6.2v-4h-6.2v-6.1h-4V100.5z"/>
	<rect id="XMLID_13802_" x="32" y="94.4" fill="#606062" width="0.6" height="6.7"/>
	<rect id="XMLID_13801_" x="32.1" y="100.5" fill="#606062" width="6.8" height="0.6"/>
</g>
<g id="XMLID_13781_">
	<rect id="XMLID_13799_" x="1353.5" y="0" fill="#1C1C1C" width="63.8" height="126.1"/>
	
		<rect id="XMLID_13798_" x="1353.5" y="0" transform="matrix(-1 8.790112e-11 -8.790112e-11 -1 2709.5903 126.1422)" fill="#070707" width="2.5" height="126.1"/>
	
		<linearGradient id="XMLID_1006_" gradientUnits="userSpaceOnUse" x1="-7210.4243" y1="421.3494" x2="-7182.5176" y2="421.3494" gradientTransform="matrix(-1 0 0 -1 -5809.7642 524.2599)">
		<stop  offset="0" style="stop-color:#FFFFFF"/>
		<stop  offset="5.656110e-02" style="stop-color:#A3A3A4"/>
		<stop  offset="0.3372" style="stop-color:#919292"/>
		<stop  offset="0.3831" style="stop-color:#E0E0DF"/>
		<stop  offset="0.4519" style="stop-color:#C1C0C0"/>
		<stop  offset="0.9264" style="stop-color:#E0E0DF"/>
		<stop  offset="0.9745" style="stop-color:#C1C0C0"/>
	</linearGradient>
	<path id="XMLID_13797_" fill="url(#XMLID_1006_)" d="M1400.7,102.9c0-7.7-6.2-13.9-14-13.9c-7.7,0-14,6.2-14,13.9
		c0,7.7,6.2,13.9,14,13.9C1394.4,116.8,1400.7,110.6,1400.7,102.9"/>
	
		<ellipse id="XMLID_13796_" fill="none" stroke="#121212" stroke-width="0.75" stroke-miterlimit="10" cx="1386.7" cy="102.9" rx="14" ry="13.9"/>
	<polygon id="XMLID_13795_" fill="#040000" points="1385,95.1 1385,101.2 1378.8,101.2 1378.8,104.6 1385,104.6 1385,110.8 
		1388.4,110.8 1388.4,104.6 1394.6,104.6 1394.6,101.2 1388.4,101.2 1388.4,95.1 	"/>
	<path id="XMLID_13792_" fill="#221714" d="M1385.3,110.5v-5.6v-0.6h-0.6h-5.6v-2.8h5.6h0.6v-0.6v-5.6h2.9v5.6v0.6h0.6h5.6v2.8h-5.6
		h-0.6v0.6v5.6H1385.3z M1388.7,104.9h6.2v-4h-6.2v-6.1h-4v6.1h-6.2v4h6.2v6.1h4V104.9z"/>
	<rect id="XMLID_13791_" x="1384.7" y="104.3" fill="#606062" width="0.6" height="6.7"/>
	<rect id="XMLID_13790_" x="1378.5" y="104.3" fill="#606062" width="6.8" height="0.6"/>
	
		<linearGradient id="XMLID_1008_" gradientUnits="userSpaceOnUse" x1="-7210.4243" y1="500.6293" x2="-7182.5176" y2="500.6293" gradientTransform="matrix(-1 0 0 -1 -5809.7642 524.2599)">
		<stop  offset="0" style="stop-color:#FFFFFF"/>
		<stop  offset="5.656110e-02" style="stop-color:#A3A3A4"/>
		<stop  offset="0.3372" style="stop-color:#919292"/>
		<stop  offset="0.3831" style="stop-color:#E0E0DF"/>
		<stop  offset="0.4519" style="stop-color:#C1C0C0"/>
		<stop  offset="0.9264" style="stop-color:#E0E0DF"/>
		<stop  offset="0.9745" style="stop-color:#C1C0C0"/>
	</linearGradient>
	<path id="XMLID_13789_" fill="url(#XMLID_1008_)" d="M1400.7,23.6c0-7.7-6.2-13.9-14-13.9c-7.7,0-14,6.2-14,13.9
		c0,7.7,6.2,13.9,14,13.9C1394.4,37.5,1400.7,31.3,1400.7,23.6"/>
	
		<ellipse id="XMLID_13788_" fill="none" stroke="#121212" stroke-width="0.75" stroke-miterlimit="10" cx="1386.7" cy="23.6" rx="14" ry="13.9"/>
	<polygon id="XMLID_13787_" fill="#040000" points="1385,15.8 1385,21.9 1378.8,21.9 1378.8,25.3 1385,25.3 1385,31.5 1388.4,31.5 
		1388.4,25.3 1394.6,25.3 1394.6,21.9 1388.4,21.9 1388.4,15.8 	"/>
	<path id="XMLID_13784_" fill="#221714" d="M1385.3,31.2v-5.6v-0.6h-0.6h-5.6v-2.8h5.6h0.6v-0.6v-5.6h2.9v5.6v0.6h0.6h5.6v2.8h-5.6
		h-0.6v0.6v5.6H1385.3z M1388.7,25.6h6.2v-4h-6.2v-6.1h-4v6.1h-6.2v4h6.2v6.1h4V25.6z"/>
	<rect id="XMLID_13783_" x="1384.7" y="25.1" fill="#606062" width="0.6" height="6.7"/>
	<rect id="XMLID_13782_" x="1378.5" y="25.1" fill="#606062" width="6.8" height="0.6"/>
</g>
<polygon id="XMLID_13353_" fill="#050001" points="381,26.9 384.5,24.8 388,26.9 388,30.9 384.5,32.9 381,30.9 "/>
<polygon id="XMLID_1964_" fill="#050001" points="394.1,26.9 397.6,24.8 401.1,26.9 401.1,30.9 397.6,32.9 394.1,30.9 "/>
<polygon id="XMLID_1963_" fill="#050001" points="407,26.9 410.5,24.8 414,26.9 414,30.9 410.5,32.9 407,30.9 "/>
<polygon id="XMLID_1962_" fill="#050001" points="419.8,26.9 423.3,24.8 426.8,26.9 426.8,30.9 423.3,32.9 419.8,30.9 "/>
<polygon id="XMLID_1960_" fill="#050001" points="432.7,26.9 436.2,24.8 439.7,26.9 439.7,30.9 436.2,32.9 432.7,30.9 "/>
<polygon id="XMLID_1959_" fill="#050001" points="445.6,26.9 449.1,24.8 452.6,26.9 452.6,30.9 449.1,32.9 445.6,30.9 "/>
<polygon id="XMLID_13693_" fill="#050001" points="381,39.9 384.5,37.8 388,39.9 388,43.9 384.5,45.9 381,43.9 "/>
<polygon id="XMLID_13692_" fill="#050001" points="394.1,39.9 397.6,37.8 401.1,39.9 401.1,43.9 397.6,45.9 394.1,43.9 "/>
<polygon id="XMLID_13691_" fill="#050001" points="407,39.9 410.5,37.8 414,39.9 414,43.9 410.5,45.9 407,43.9 "/>
<polygon id="XMLID_13371_" fill="#050001" points="419.8,39.9 423.3,37.8 426.8,39.9 426.8,43.9 423.3,45.9 419.8,43.9 "/>
<polygon id="XMLID_534_" fill="#050001" points="432.7,39.9 436.2,37.8 439.7,39.9 439.7,43.9 436.2,45.9 432.7,43.9 "/>
<polygon id="XMLID_533_" fill="#050001" points="445.6,39.9 449.1,37.8 452.6,39.9 452.6,43.9 449.1,45.9 445.6,43.9 "/>
<polygon id="XMLID_13705_" fill="#050001" points="505.5,26.9 509,24.8 512.5,26.9 512.5,30.9 509,32.9 505.5,30.9 "/>
<polygon id="XMLID_13704_" fill="#050001" points="518.6,26.9 522.1,24.8 525.6,26.9 525.6,30.9 522.1,32.9 518.6,30.9 "/>
<polygon id="XMLID_13703_" fill="#050001" points="531.5,26.9 535,24.8 538.5,26.9 538.5,30.9 535,32.9 531.5,30.9 "/>
<polygon id="XMLID_13702_" fill="#050001" points="544.3,26.9 547.8,24.8 551.3,26.9 551.3,30.9 547.8,32.9 544.3,30.9 "/>
<polygon id="XMLID_13701_" fill="#050001" points="557.2,26.9 560.7,24.8 564.2,26.9 564.2,30.9 560.7,32.9 557.2,30.9 "/>
<polygon id="XMLID_13700_" fill="#050001" points="570.1,26.9 573.6,24.8 577.1,26.9 577.1,30.9 573.6,32.9 570.1,30.9 "/>
<polygon id="XMLID_13699_" fill="#050001" points="505.5,39.9 509,37.8 512.5,39.9 512.5,43.9 509,45.9 505.5,43.9 "/>
<polygon id="XMLID_13698_" fill="#050001" points="518.6,39.9 522.1,37.8 525.6,39.9 525.6,43.9 522.1,45.9 518.6,43.9 "/>
<polygon id="XMLID_13697_" fill="#050001" points="531.5,39.9 535,37.8 538.5,39.9 538.5,43.9 535,45.9 531.5,43.9 "/>
<polygon id="XMLID_13696_" fill="#050001" points="544.3,39.9 547.8,37.8 551.3,39.9 551.3,43.9 547.8,45.9 544.3,43.9 "/>
<polygon id="XMLID_13695_" fill="#050001" points="557.2,39.9 560.7,37.8 564.2,39.9 564.2,43.9 560.7,45.9 557.2,43.9 "/>
<polygon id="XMLID_13694_" fill="#050001" points="570.1,39.9 573.6,37.8 577.1,39.9 577.1,43.9 573.6,45.9 570.1,43.9 "/>
<polygon id="XMLID_13717_" fill="#050001" points="630,26.9 633.5,24.8 637,26.9 637,30.9 633.5,32.9 630,30.9 "/>
<polygon id="XMLID_13716_" fill="#050001" points="643.1,26.9 646.6,24.8 650.1,26.9 650.1,30.9 646.6,32.9 643.1,30.9 "/>
<polygon id="XMLID_13715_" fill="#050001" points="656,26.9 659.5,24.8 663,26.9 663,30.9 659.5,32.9 656,30.9 "/>
<polygon id="XMLID_13714_" fill="#050001" points="668.8,26.9 672.3,24.8 675.8,26.9 675.8,30.9 672.3,32.9 668.8,30.9 "/>
<polygon id="XMLID_13713_" fill="#050001" points="681.7,26.9 685.2,24.8 688.7,26.9 688.7,30.9 685.2,32.9 681.7,30.9 "/>
<polygon id="XMLID_13712_" fill="#050001" points="694.6,26.9 698.1,24.8 701.6,26.9 701.6,30.9 698.1,32.9 694.6,30.9 "/>
<polygon id="XMLID_13711_" fill="#050001" points="630,39.9 633.5,37.8 637,39.9 637,43.9 633.5,45.9 630,43.9 "/>
<polygon id="XMLID_13710_" fill="#050001" points="643.1,39.9 646.6,37.8 650.1,39.9 650.1,43.9 646.6,45.9 643.1,43.9 "/>
<polygon id="XMLID_13709_" fill="#050001" points="656,39.9 659.5,37.8 663,39.9 663,43.9 659.5,45.9 656,43.9 "/>
<polygon id="XMLID_13708_" fill="#050001" points="668.8,39.9 672.3,37.8 675.8,39.9 675.8,43.9 672.3,45.9 668.8,43.9 "/>
<polygon id="XMLID_13707_" fill="#050001" points="681.7,39.9 685.2,37.8 688.7,39.9 688.7,43.9 685.2,45.9 681.7,43.9 "/>
<polygon id="XMLID_13706_" fill="#050001" points="694.6,39.9 698.1,37.8 701.6,39.9 701.6,43.9 698.1,45.9 694.6,43.9 "/>
<polygon id="XMLID_13729_" fill="#050001" points="754.5,26.9 758,24.8 761.5,26.9 761.5,30.9 758,32.9 754.5,30.9 "/>
<polygon id="XMLID_13728_" fill="#050001" points="767.6,26.9 771.1,24.8 774.6,26.9 774.6,30.9 771.1,32.9 767.6,30.9 "/>
<polygon id="XMLID_13727_" fill="#050001" points="780.5,26.9 784,24.8 787.5,26.9 787.5,30.9 784,32.9 780.5,30.9 "/>
<polygon id="XMLID_13726_" fill="#050001" points="793.4,26.9 796.9,24.8 800.4,26.9 800.4,30.9 796.9,32.9 793.4,30.9 "/>
<polygon id="XMLID_13725_" fill="#050001" points="806.2,26.9 809.7,24.8 813.2,26.9 813.2,30.9 809.7,32.9 806.2,30.9 "/>
<polygon id="XMLID_13724_" fill="#050001" points="819.1,26.9 822.6,24.8 826.1,26.9 826.1,30.9 822.6,32.9 819.1,30.9 "/>
<polygon id="XMLID_13723_" fill="#050001" points="754.5,39.9 758,37.8 761.5,39.9 761.5,43.9 758,45.9 754.5,43.9 "/>
<polygon id="XMLID_13722_" fill="#050001" points="767.6,39.9 771.1,37.8 774.6,39.9 774.6,43.9 771.1,45.9 767.6,43.9 "/>
<polygon id="XMLID_13721_" fill="#050001" points="780.5,39.9 784,37.8 787.5,39.9 787.5,43.9 784,45.9 780.5,43.9 "/>
<polygon id="XMLID_13720_" fill="#050001" points="793.4,39.9 796.9,37.8 800.4,39.9 800.4,43.9 796.9,45.9 793.4,43.9 "/>
<polygon id="XMLID_13719_" fill="#050001" points="806.2,39.9 809.7,37.8 813.2,39.9 813.2,43.9 809.7,45.9 806.2,43.9 "/>
<polygon id="XMLID_13718_" fill="#050001" points="819.1,39.9 822.6,37.8 826.1,39.9 826.1,43.9 822.6,45.9 819.1,43.9 "/>
<polygon id="XMLID_13741_" fill="#050001" points="879,26.9 882.5,24.8 886,26.9 886,30.9 882.5,32.9 879,30.9 "/>
<polygon id="XMLID_13740_" fill="#050001" points="892.1,26.9 895.6,24.8 899.1,26.9 899.1,30.9 895.6,32.9 892.1,30.9 "/>
<polygon id="XMLID_13739_" fill="#050001" points="905,26.9 908.5,24.8 912,26.9 912,30.9 908.5,32.9 905,30.9 "/>
<polygon id="XMLID_13738_" fill="#050001" points="917.9,26.9 921.4,24.8 924.9,26.9 924.9,30.9 921.4,32.9 917.9,30.9 "/>
<polygon id="XMLID_13737_" fill="#050001" points="930.7,26.9 934.2,24.8 937.7,26.9 937.7,30.9 934.2,32.9 930.7,30.9 "/>
<polygon id="XMLID_13736_" fill="#050001" points="943.6,26.9 947.1,24.8 950.6,26.9 950.6,30.9 947.1,32.9 943.6,30.9 "/>
<polygon id="XMLID_13735_" fill="#050001" points="879,39.9 882.5,37.8 886,39.9 886,43.9 882.5,45.9 879,43.9 "/>
<polygon id="XMLID_13734_" fill="#050001" points="892.1,39.9 895.6,37.8 899.1,39.9 899.1,43.9 895.6,45.9 892.1,43.9 "/>
<polygon id="XMLID_13733_" fill="#050001" points="905,39.9 908.5,37.8 912,39.9 912,43.9 908.5,45.9 905,43.9 "/>
<polygon id="XMLID_13732_" fill="#050001" points="917.9,39.9 921.4,37.8 924.9,39.9 924.9,43.9 921.4,45.9 917.9,43.9 "/>
<polygon id="XMLID_13731_" fill="#050001" points="930.7,39.9 934.2,37.8 937.7,39.9 937.7,43.9 934.2,45.9 930.7,43.9 "/>
<polygon id="XMLID_13730_" fill="#050001" points="943.6,39.9 947.1,37.8 950.6,39.9 950.6,43.9 947.1,45.9 943.6,43.9 "/>
<polygon id="XMLID_98_" fill="#050001" points="1038.6,26.9 1042.1,24.8 1045.6,26.9 1045.6,30.9 1042.1,32.9 1038.6,30.9 "/>
<polygon id="XMLID_97_" fill="#050001" points="1051.7,26.9 1055.2,24.8 1058.7,26.9 1058.7,30.9 1055.2,32.9 1051.7,30.9 "/>
<polygon id="XMLID_96_" fill="#050001" points="1064.6,26.9 1068.1,24.8 1071.6,26.9 1071.6,30.9 1068.1,32.9 1064.6,30.9 "/>
<polygon id="XMLID_95_" fill="#050001" points="1077.5,26.9 1081,24.8 1084.5,26.9 1084.5,30.9 1081,32.9 1077.5,30.9 "/>
<polygon id="XMLID_94_" fill="#050001" points="1090.4,26.9 1093.9,24.8 1097.4,26.9 1097.4,30.9 1093.9,32.9 1090.4,30.9 "/>
<polygon id="XMLID_93_" fill="#050001" points="1103.3,26.9 1106.8,24.8 1110.3,26.9 1110.3,30.9 1106.8,32.9 1103.3,30.9 "/>
<polygon id="XMLID_92_" fill="#050001" points="1038.6,39.9 1042.1,37.8 1045.6,39.9 1045.6,43.9 1042.1,45.9 1038.6,43.9 "/>
<polygon id="XMLID_91_" fill="#050001" points="1051.7,39.9 1055.2,37.8 1058.7,39.9 1058.7,43.9 1055.2,45.9 1051.7,43.9 "/>
<polygon id="XMLID_90_" fill="#050001" points="1064.6,39.9 1068.1,37.8 1071.6,39.9 1071.6,43.9 1068.1,45.9 1064.6,43.9 "/>
<polygon id="XMLID_89_" fill="#050001" points="1077.5,39.9 1081,37.8 1084.5,39.9 1084.5,43.9 1081,45.9 1077.5,43.9 "/>
<polygon id="XMLID_88_" fill="#050001" points="1090.4,39.9 1093.9,37.8 1097.4,39.9 1097.4,43.9 1093.9,45.9 1090.4,43.9 "/>
<polygon id="XMLID_3_" fill="#050001" points="1103.3,39.9 1106.8,37.8 1110.3,39.9 1110.3,43.9 1106.8,45.9 1103.3,43.9 "/>
<text id="XMLID_1965_" transform="matrix(1 0 0 1 134.4552 69.4138)" font-family="'MicrosoftYaHei'" font-size="10px">GE0</text>
<text id="XMLID_13372_" transform="matrix(1 0 0 1 189.4552 78.6507)" font-family="'MicrosoftYaHei'" font-size="10px">GF0</text>
<text id="XMLID_13374_" transform="matrix(1 0 0 1 259.8187 69.4138)" font-family="'MicrosoftYaHei'" font-size="10px">GE1</text>
<text id="XMLID_13373_" transform="matrix(1 0 0 1 314.8187 78.6507)" font-family="'MicrosoftYaHei'" font-size="10px">GF1</text>
<text id="XMLID_13427_" transform="matrix(1 0 0 1 385.1822 69.4138)" font-family="'MicrosoftYaHei'" font-size="10px">GE2</text>
<text id="XMLID_13426_" transform="matrix(1 0 0 1 440.1822 78.6507)" font-family="'MicrosoftYaHei'" font-size="10px">GF2 </text>
<text id="XMLID_13480_" transform="matrix(1 0 0 1 510.5458 69.4138)" font-family="'MicrosoftYaHei'" font-size="10px">GE3</text>
<text id="XMLID_13479_" transform="matrix(1 0 0 1 565.5457 78.6507)" font-family="'MicrosoftYaHei'" font-size="10px">GF3</text>
<text id="XMLID_13533_" transform="matrix(1 0 0 1 635.9093 69.4138)" font-family="'MicrosoftYaHei'" font-size="10px">GE4</text>
<text id="XMLID_13532_" transform="matrix(1 0 0 1 690.9093 78.6507)" font-family="'MicrosoftYaHei'" font-size="10px">GF4</text>
<text id="XMLID_13586_" transform="matrix(1 0 0 1 761.2728 69.4138)" font-family="'MicrosoftYaHei'" font-size="10px">GE5</text>
<text id="XMLID_13585_" transform="matrix(1 0 0 1 816.2728 69.4138)" font-family="'MicrosoftYaHei'" font-size="10px">GF5</text>
<text id="XMLID_13639_" transform="matrix(1 0 0 1 886.6364 69.4138)" font-family="'MicrosoftYaHei'" font-size="10px">GE6</text>
<text id="XMLID_13638_" transform="matrix(1 0 0 1 941.6364 69.4138)" font-family="'MicrosoftYaHei'" font-size="10px">GF6</text>
<g id="XMLID_13868_">
	
		<text id="XMLID_532_" transform="matrix(1 0 0 1 1236.1946 52.6177)" fill="#286B36" font-family="'MicrosoftYaHei-Bold'" font-size="18.3106px">ETHER</text>
	<path id="XMLID_13873_" fill="#243159" d="M1229.3,33.6l-17.1,18.2l-0.8,0.8h7.8l3.6-3.9h7.3l-1.1,3.9h7.6l3.6-19H1229.3z
		 M1232.2,44.1h-5.4l6.2-7.2h1.1L1232.2,44.1z"/>
</g>
</svg>
