<?xml version="1.0" encoding="utf-8"?>
<!-- Generator: Adobe Illustrator 21.0.0, SVG Export Plug-In . SVG Version: 6.00 Build 0)  -->
<svg version="1.1" id="图层_1" xmlns="http://www.w3.org/2000/svg" xmlns:xlink="http://www.w3.org/1999/xlink" x="0px" y="0px"
	 width="1417.3px" height="252.3px" viewBox="0 0 1417.3 252.3" enable-background="new 0 0 1417.3 252.3" xml:space="preserve">
<g id="XMLID_18265_">
	<polygon id="XMLID_18267_" fill="#3D4260" points="0,0 0,126.1 0,126.1 0,252.3 1417.3,252.3 1417.3,126.1 1417.3,126.1 1417.3,0 	
		"/>
</g>
<rect id="XMLID_18264_" x="0" y="0" fill="#1C1C1C" width="63.8" height="252.3"/>
<linearGradient id="XMLID_4_" gradientUnits="userSpaceOnUse" x1="16.6626" y1="23.2314" x2="44.5693" y2="23.2314">
	<stop  offset="0" style="stop-color:#FFFFFF"/>
	<stop  offset="5.656110e-02" style="stop-color:#A3A3A4"/>
	<stop  offset="0.3372" style="stop-color:#919292"/>
	<stop  offset="0.3831" style="stop-color:#E0E0DF"/>
	<stop  offset="0.4519" style="stop-color:#C1C0C0"/>
	<stop  offset="0.9264" style="stop-color:#E0E0DF"/>
	<stop  offset="0.9745" style="stop-color:#C1C0C0"/>
</linearGradient>
<path id="XMLID_18263_" fill="url(#XMLID_4_)" d="M16.7,23.2c0,7.7,6.2,13.9,14,13.9c7.7,0,14-6.2,14-13.9c0-7.7-6.2-13.9-14-13.9
	C22.9,9.4,16.7,15.6,16.7,23.2"/>
<ellipse id="XMLID_18262_" fill="none" stroke="#121212" stroke-width="0.75" stroke-miterlimit="10" cx="30.6" cy="23.2" rx="14" ry="13.9"/>
<polygon id="XMLID_18261_" fill="#040000" points="32.3,31.1 32.3,24.9 38.5,24.9 38.5,21.5 32.3,21.5 32.3,15.4 28.9,15.4 
	28.9,21.5 22.7,21.5 22.7,24.9 28.9,24.9 28.9,31.1 "/>
<path id="XMLID_18258_" fill="#221714" d="M32,15.7v5.6v0.6h0.6h5.6v2.8h-5.6H32v0.6v5.6h-2.9v-5.6v-0.6h-0.6H23v-2.8h5.6h0.6v-0.6
	v-5.6H32z M28.6,21.2h-6.2v4h6.2v6.1h4v-6.1h6.2v-4h-6.2v-6.1h-4V21.2z"/>
<rect id="XMLID_18257_" x="32" y="15.1" fill="#606062" width="0.6" height="6.7"/>
<rect id="XMLID_18256_" x="32.1" y="21.2" fill="#606062" width="6.8" height="0.6"/>
<linearGradient id="XMLID_5_" gradientUnits="userSpaceOnUse" x1="16.6626" y1="222.8681" x2="44.5693" y2="222.8681">
	<stop  offset="0" style="stop-color:#FFFFFF"/>
	<stop  offset="5.656110e-02" style="stop-color:#A3A3A4"/>
	<stop  offset="0.3372" style="stop-color:#919292"/>
	<stop  offset="0.3831" style="stop-color:#E0E0DF"/>
	<stop  offset="0.4519" style="stop-color:#C1C0C0"/>
	<stop  offset="0.9264" style="stop-color:#E0E0DF"/>
	<stop  offset="0.9745" style="stop-color:#C1C0C0"/>
</linearGradient>
<path id="XMLID_18255_" fill="url(#XMLID_5_)" d="M16.7,222.9c0,7.7,6.2,13.9,14,13.9c7.7,0,14-6.2,14-13.9c0-7.7-6.2-13.9-14-13.9
	C22.9,209,16.7,215.2,16.7,222.9"/>
<ellipse id="XMLID_18254_" fill="none" stroke="#121212" stroke-width="0.75" stroke-miterlimit="10" cx="30.6" cy="222.9" rx="14" ry="13.9"/>
<polygon id="XMLID_18253_" fill="#040000" points="32.3,230.7 32.3,224.6 38.5,224.6 38.5,221.2 32.3,221.2 32.3,215 28.9,215 
	28.9,221.2 22.7,221.2 22.7,224.6 28.9,224.6 28.9,230.7 "/>
<path id="XMLID_18250_" fill="#221714" d="M32,215.3v5.6v0.6h0.6h5.6v2.8h-5.6H32v0.6v5.6h-2.9v-5.6v-0.6h-0.6H23v-2.8h5.6h0.6v-0.6
	v-5.6H32z M28.6,220.9h-6.2v4h6.2v6.1h4v-6.1h6.2v-4h-6.2v-6.1h-4V220.9z"/>
<rect id="XMLID_18249_" x="32" y="214.7" fill="#606062" width="0.6" height="6.7"/>
<rect id="XMLID_18248_" x="32.1" y="220.9" fill="#606062" width="6.8" height="0.6"/>
<rect id="XMLID_18247_" x="1353.5" y="0" fill="#1C1C1C" width="63.8" height="252.3"/>
<linearGradient id="XMLID_6_" gradientUnits="userSpaceOnUse" x1="-3349.3494" y1="-1886.5118" x2="-3321.4426" y2="-1886.5118" gradientTransform="matrix(-1 0 0 -1 -1948.6893 -1663.245)">
	<stop  offset="0" style="stop-color:#FFFFFF"/>
	<stop  offset="5.656110e-02" style="stop-color:#A3A3A4"/>
	<stop  offset="0.3372" style="stop-color:#919292"/>
	<stop  offset="0.3831" style="stop-color:#E0E0DF"/>
	<stop  offset="0.4519" style="stop-color:#C1C0C0"/>
	<stop  offset="0.9264" style="stop-color:#E0E0DF"/>
	<stop  offset="0.9745" style="stop-color:#C1C0C0"/>
</linearGradient>
<path id="XMLID_18246_" fill="url(#XMLID_6_)" d="M1400.7,223.3c0-7.7-6.2-13.9-14-13.9c-7.7,0-14,6.2-14,13.9
	c0,7.7,6.2,13.9,14,13.9C1394.4,237.1,1400.7,230.9,1400.7,223.3"/>
<ellipse id="XMLID_18245_" fill="none" stroke="#121212" stroke-width="0.75" stroke-miterlimit="10" cx="1386.7" cy="223.3" rx="14" ry="13.9"/>
<polygon id="XMLID_18244_" fill="#040000" points="1385,215.4 1385,221.6 1378.8,221.6 1378.8,225 1385,225 1385,231.1 
	1388.4,231.1 1388.4,225 1394.6,225 1394.6,221.6 1388.4,221.6 1388.4,215.4 "/>
<path id="XMLID_18241_" fill="#221714" d="M1385.3,230.8v-5.6v-0.6h-0.6h-5.6v-2.8h5.6h0.6v-0.6v-5.6h2.9v5.6v0.6h0.6h5.6v2.8h-5.6
	h-0.6v0.6v5.6H1385.3z M1388.7,225.3h6.2v-4h-6.2v-6.1h-4v6.1h-6.2v4h6.2v6.1h4V225.3z"/>
<rect id="XMLID_18240_" x="1384.7" y="224.7" fill="#606062" width="0.6" height="6.7"/>
<rect id="XMLID_18239_" x="1378.5" y="224.7" fill="#606062" width="6.8" height="0.6"/>
<linearGradient id="XMLID_8_" gradientUnits="userSpaceOnUse" x1="-3349.3494" y1="-1686.8752" x2="-3321.4426" y2="-1686.8752" gradientTransform="matrix(-1 0 0 -1 -1948.6893 -1663.245)">
	<stop  offset="0" style="stop-color:#FFFFFF"/>
	<stop  offset="5.656110e-02" style="stop-color:#A3A3A4"/>
	<stop  offset="0.3372" style="stop-color:#919292"/>
	<stop  offset="0.3831" style="stop-color:#E0E0DF"/>
	<stop  offset="0.4519" style="stop-color:#C1C0C0"/>
	<stop  offset="0.9264" style="stop-color:#E0E0DF"/>
	<stop  offset="0.9745" style="stop-color:#C1C0C0"/>
</linearGradient>
<path id="XMLID_18238_" fill="url(#XMLID_8_)" d="M1400.7,23.6c0-7.7-6.2-13.9-14-13.9c-7.7,0-14,6.2-14,13.9
	c0,7.7,6.2,13.9,14,13.9C1394.4,37.5,1400.7,31.3,1400.7,23.6"/>
<ellipse id="XMLID_18237_" fill="none" stroke="#121212" stroke-width="0.75" stroke-miterlimit="10" cx="1386.7" cy="23.6" rx="14" ry="13.9"/>
<polygon id="XMLID_18236_" fill="#040000" points="1385,15.8 1385,21.9 1378.8,21.9 1378.8,25.3 1385,25.3 1385,31.5 1388.4,31.5 
	1388.4,25.3 1394.6,25.3 1394.6,21.9 1388.4,21.9 1388.4,15.8 "/>
<path id="XMLID_18233_" fill="#221714" d="M1385.3,31.2v-5.6v-0.6h-0.6h-5.6v-2.8h5.6h0.6v-0.6v-5.6h2.9v5.6v0.6h0.6h5.6v2.8h-5.6
	h-0.6v0.6v5.6H1385.3z M1388.7,25.6h6.2v-4h-6.2v-6.1h-4v6.1h-6.2v4h6.2v6.1h4V25.6z"/>
<rect id="XMLID_18232_" x="1384.7" y="25.1" fill="#606062" width="0.6" height="6.7"/>
<rect id="XMLID_18231_" x="1378.5" y="25.1" fill="#606062" width="6.8" height="0.6"/>
<polygon id="XMLID_18228_" fill="#0E1016" points="1353.5,118.2 373.1,118.2 323.1,252.3 1353.5,252.3 "/>
<polygon id="XMLID_18227_" fill="#333333" points="1353.5,128.2 389.2,128.2 327.4,252.3 1353.5,252.3 "/>
<linearGradient id="XMLID_9_" gradientUnits="userSpaceOnUse" x1="708.6613" y1="18.1624" x2="708.6613" y2="16.1719">
	<stop  offset="0" style="stop-color:#BEBDBE"/>
	<stop  offset="0.2151" style="stop-color:#E0E0DF"/>
	<stop  offset="0.5323" style="stop-color:#C1C0C0"/>
	<stop  offset="0.8065" style="stop-color:#E0E0DF"/>
	<stop  offset="0.9871" style="stop-color:#B1B4B5"/>
</linearGradient>
<rect id="XMLID_18226_" x="63.8" y="16.2" opacity="0.5" fill="url(#XMLID_9_)" width="1289.8" height="2"/>
<linearGradient id="XMLID_10_" gradientUnits="userSpaceOnUse" x1="708.6613" y1="13.0052" x2="708.6613" y2="12.0052">
	<stop  offset="0" style="stop-color:#BEBDBE"/>
	<stop  offset="0.2151" style="stop-color:#E0E0DF"/>
	<stop  offset="0.5323" style="stop-color:#C1C0C0"/>
	<stop  offset="0.8065" style="stop-color:#E0E0DF"/>
	<stop  offset="0.9871" style="stop-color:#B1B4B5"/>
</linearGradient>
<rect id="XMLID_18225_" x="63.8" y="12" opacity="0.5" fill="url(#XMLID_10_)" width="1289.8" height="1"/>
<g id="XMLID_18222_">
	<rect id="XMLID_18224_" x="414.3" y="199.7" fill="#030000" width="43.1" height="36.6"/>
	
		<linearGradient id="XMLID_11_" gradientUnits="userSpaceOnUse" x1="-2574.407" y1="28143.6602" x2="-2532.3982" y2="28143.6602" gradientTransform="matrix(-1 0 0 -1 -2117.5715 28361.5938)">
		<stop  offset="0" style="stop-color:#FFFFFF"/>
		<stop  offset="0.1688" style="stop-color:#B1B4B5"/>
		<stop  offset="0.4086" style="stop-color:#E0E0DF"/>
		<stop  offset="0.7581" style="stop-color:#B1B4B5"/>
		<stop  offset="1" style="stop-color:#C2C2C2"/>
	</linearGradient>
	<rect id="XMLID_18223_" x="414.8" y="200.3" fill="url(#XMLID_11_)" width="42" height="35.3"/>
</g>
<g id="XMLID_18206_">
	<rect id="XMLID_18208_" x="459.8" y="199.7" fill="#030000" width="43.1" height="36.6"/>
	
		<linearGradient id="XMLID_12_" gradientUnits="userSpaceOnUse" x1="-2619.918" y1="28143.6602" x2="-2577.9092" y2="28143.6602" gradientTransform="matrix(-1 0 0 -1 -2117.5715 28361.5938)">
		<stop  offset="0" style="stop-color:#FFFFFF"/>
		<stop  offset="0.1688" style="stop-color:#B1B4B5"/>
		<stop  offset="0.4086" style="stop-color:#E0E0DF"/>
		<stop  offset="0.7581" style="stop-color:#B1B4B5"/>
		<stop  offset="1" style="stop-color:#C2C2C2"/>
	</linearGradient>
	<rect id="XMLID_18207_" x="460.3" y="200.3" fill="url(#XMLID_12_)" width="42" height="35.3"/>
</g>
<g id="XMLID_18190_">
	<rect id="XMLID_18192_" x="581.8" y="199.7" fill="#030000" width="43.1" height="36.6"/>
	
		<linearGradient id="XMLID_13_" gradientUnits="userSpaceOnUse" x1="-2741.8894" y1="28143.6602" x2="-2699.8804" y2="28143.6602" gradientTransform="matrix(-1 0 0 -1 -2117.5715 28361.5938)">
		<stop  offset="0" style="stop-color:#FFFFFF"/>
		<stop  offset="0.1688" style="stop-color:#B1B4B5"/>
		<stop  offset="0.4086" style="stop-color:#E0E0DF"/>
		<stop  offset="0.7581" style="stop-color:#B1B4B5"/>
		<stop  offset="1" style="stop-color:#C2C2C2"/>
	</linearGradient>
	<rect id="XMLID_18191_" x="582.3" y="200.3" fill="url(#XMLID_13_)" width="42" height="35.3"/>
</g>
<g id="XMLID_18174_">
	<rect id="XMLID_18176_" x="627.3" y="199.7" fill="#030000" width="43.1" height="36.6"/>
	
		<linearGradient id="XMLID_14_" gradientUnits="userSpaceOnUse" x1="-2787.4004" y1="28143.6602" x2="-2745.3916" y2="28143.6602" gradientTransform="matrix(-1 0 0 -1 -2117.5715 28361.5938)">
		<stop  offset="0" style="stop-color:#FFFFFF"/>
		<stop  offset="0.1688" style="stop-color:#B1B4B5"/>
		<stop  offset="0.4086" style="stop-color:#E0E0DF"/>
		<stop  offset="0.7581" style="stop-color:#B1B4B5"/>
		<stop  offset="1" style="stop-color:#C2C2C2"/>
	</linearGradient>
	<rect id="XMLID_18175_" x="627.8" y="200.3" fill="url(#XMLID_14_)" width="42" height="35.3"/>
</g>
<text id="XMLID_18160_" transform="matrix(1 0 0 1 1259.3129 193.3575)" fill="#E2E1E0" font-family="'MicrosoftYaHei'" font-size="7px">ETH13</text>
<text id="XMLID_18159_" transform="matrix(1 0 0 1 1201.5934 193.3575)" fill="#E2E1E0" font-family="'MicrosoftYaHei'" font-size="7px">ETH12</text>
<text id="XMLID_18153_" transform="matrix(1 0 0 1 467.8945 189.7623)" fill="#EFEFEF" font-family="'MicrosoftYaHei'" font-size="10px">ETH6</text>
<text id="XMLID_18150_" transform="matrix(1 0 0 1 589.3546 189.7623)" fill="#EFEFEF" font-family="'MicrosoftYaHei'" font-size="10px">ETH5</text>
<text id="XMLID_18147_" transform="matrix(1 0 0 1 634.3546 189.7623)" fill="#EFEFEF" font-family="'MicrosoftYaHei'" font-size="10px">ETH4</text>
<text id="XMLID_18146_" transform="matrix(1 0 0 1 1191.917 85.0953)" fill="#EFEFEF" font-family="'MicrosoftYaHei'" font-size="10px">Power</text>
<text id="XMLID_18145_" transform="matrix(1 0 0 1 1144.9077 85.0953)" fill="#EFEFEF" font-family="'MicrosoftYaHei'" font-size="10px">Power</text>
<text id="XMLID_18144_" transform="matrix(1 0 0 1 1097.8987 85.0953)" fill="#EFEFEF" font-family="'MicrosoftYaHei'" font-size="10px">Power</text>
<text id="XMLID_18143_" transform="matrix(1 0 0 1 1056.8589 85.0953)" fill="#EFEFEF" font-family="'MicrosoftYaHei'" font-size="10px">SYP</text>
<text id="XMLID_18142_" transform="matrix(1 0 0 1 1011.4269 85.0953)" fill="#EFEFEF" font-family="'MicrosoftYaHei'" font-size="10px">HA</text>
<g id="XMLID_18139_">
	<rect id="XMLID_18141_" x="673.2" y="199.7" fill="#030000" width="43.1" height="36.6"/>
	
		<linearGradient id="XMLID_15_" gradientUnits="userSpaceOnUse" x1="-2833.3523" y1="28143.6602" x2="-2791.3435" y2="28143.6602" gradientTransform="matrix(-1 0 0 -1 -2117.5715 28361.5938)">
		<stop  offset="0" style="stop-color:#FFFFFF"/>
		<stop  offset="0.1688" style="stop-color:#B1B4B5"/>
		<stop  offset="0.4086" style="stop-color:#E0E0DF"/>
		<stop  offset="0.7581" style="stop-color:#B1B4B5"/>
		<stop  offset="1" style="stop-color:#C2C2C2"/>
	</linearGradient>
	<rect id="XMLID_18140_" x="673.8" y="200.3" fill="url(#XMLID_15_)" width="42" height="35.3"/>
</g>
<g id="XMLID_18123_">
	<rect id="XMLID_18125_" x="718.8" y="199.7" fill="#030000" width="43.1" height="36.6"/>
	
		<linearGradient id="XMLID_16_" gradientUnits="userSpaceOnUse" x1="-2878.8635" y1="28143.6602" x2="-2836.8547" y2="28143.6602" gradientTransform="matrix(-1 0 0 -1 -2117.5715 28361.5938)">
		<stop  offset="0" style="stop-color:#FFFFFF"/>
		<stop  offset="0.1688" style="stop-color:#B1B4B5"/>
		<stop  offset="0.4086" style="stop-color:#E0E0DF"/>
		<stop  offset="0.7581" style="stop-color:#B1B4B5"/>
		<stop  offset="1" style="stop-color:#C2C2C2"/>
	</linearGradient>
	<rect id="XMLID_18124_" x="719.3" y="200.3" fill="url(#XMLID_16_)" width="42" height="35.3"/>
</g>
<g id="XMLID_18107_">
	<rect id="XMLID_18109_" x="764.3" y="199.7" fill="#030000" width="43.1" height="36.6"/>
	
		<linearGradient id="XMLID_20_" gradientUnits="userSpaceOnUse" x1="-2924.3748" y1="28143.6602" x2="-2882.366" y2="28143.6602" gradientTransform="matrix(-1 0 0 -1 -2117.5715 28361.5938)">
		<stop  offset="0" style="stop-color:#FFFFFF"/>
		<stop  offset="0.1688" style="stop-color:#B1B4B5"/>
		<stop  offset="0.4086" style="stop-color:#E0E0DF"/>
		<stop  offset="0.7581" style="stop-color:#B1B4B5"/>
		<stop  offset="1" style="stop-color:#C2C2C2"/>
	</linearGradient>
	<rect id="XMLID_18108_" x="764.8" y="200.3" fill="url(#XMLID_20_)" width="42" height="35.3"/>
</g>
<g id="XMLID_18091_">
	<rect id="XMLID_18093_" x="809.8" y="199.7" fill="#030000" width="43.1" height="36.6"/>
	
		<linearGradient id="XMLID_21_" gradientUnits="userSpaceOnUse" x1="-2969.8857" y1="28143.6602" x2="-2927.877" y2="28143.6602" gradientTransform="matrix(-1 0 0 -1 -2117.5715 28361.5938)">
		<stop  offset="0" style="stop-color:#FFFFFF"/>
		<stop  offset="0.1688" style="stop-color:#B1B4B5"/>
		<stop  offset="0.4086" style="stop-color:#E0E0DF"/>
		<stop  offset="0.7581" style="stop-color:#B1B4B5"/>
		<stop  offset="1" style="stop-color:#C2C2C2"/>
	</linearGradient>
	<rect id="XMLID_18092_" x="810.3" y="200.3" fill="url(#XMLID_21_)" width="42" height="35.3"/>
</g>
<text id="XMLID_18075_" transform="matrix(1 0 0 1 681.8398 189.7623)" fill="#EFEFEF" font-family="'MicrosoftYaHei'" font-size="10px">ETH3</text>
<text id="XMLID_18072_" transform="matrix(1 0 0 1 726.8398 189.7623)" fill="#EFEFEF" font-family="'MicrosoftYaHei'" font-size="10px">ETH2</text>
<text id="XMLID_18069_" transform="matrix(1 0 0 1 771.8398 189.7623)" fill="#EFEFEF" font-family="'MicrosoftYaHei'" font-size="10px">ETH1</text>
<text id="XMLID_18066_" transform="matrix(1 0 0 1 816.8398 189.7623)" fill="#EFEFEF" font-family="'MicrosoftYaHei'" font-size="10px">ETH0</text>
<rect id="XMLID_18059_" x="63.8" y="37.5" fill="#303030" width="1289.8" height="30.2"/>
<rect id="XMLID_18058_" x="63.8" y="35.5" fill="#0C0C0C" width="1289.8" height="2"/>
<radialGradient id="XMLID_22_" cx="-4627.4902" cy="15782.3652" r="6.5786" gradientTransform="matrix(-1 0 0 -1 -3609.8743 15837.4189)" gradientUnits="userSpaceOnUse">
	<stop  offset="0.6774" style="stop-color:#2B2B2B"/>
	<stop  offset="0.8441" style="stop-color:#595757"/>
	<stop  offset="1" style="stop-color:#000000"/>
</radialGradient>
<path id="XMLID_18057_" fill="url(#XMLID_22_)" d="M1011,55.1c0-3.6,2.9-6.6,6.6-6.6c3.6,0,6.6,2.9,6.6,6.6c0,3.6-2.9,6.6-6.6,6.6
	C1014,61.6,1011,58.7,1011,55.1"/>
<circle id="XMLID_18056_" fill="none" stroke="#131313" stroke-width="0.75" stroke-miterlimit="10" cx="1017.6" cy="55.1" r="6.6"/>
<circle id="XMLID_18053_" fill="#B5ED2E" cx="1017.6" cy="55.1" r="5"/>
<radialGradient id="XMLID_23_" cx="-4674.8979" cy="15782.3652" r="6.5786" gradientTransform="matrix(-1 0 0 -1 -3609.8743 15837.4189)" gradientUnits="userSpaceOnUse">
	<stop  offset="0.6774" style="stop-color:#2B2B2B"/>
	<stop  offset="0.8441" style="stop-color:#595757"/>
	<stop  offset="1" style="stop-color:#000000"/>
</radialGradient>
<path id="XMLID_18052_" fill="url(#XMLID_23_)" d="M1058.4,55.1c0-3.6,2.9-6.6,6.6-6.6s6.6,2.9,6.6,6.6c0,3.6-2.9,6.6-6.6,6.6
	S1058.4,58.7,1058.4,55.1"/>
<circle id="XMLID_18051_" fill="none" stroke="#131313" stroke-width="0.75" stroke-miterlimit="10" cx="1065" cy="55.1" r="6.6"/>
<circle id="XMLID_18048_" fill="#B5ED2E" cx="1065" cy="55.1" r="5"/>
<radialGradient id="XMLID_24_" cx="-4722.3057" cy="15782.3652" r="6.5786" gradientTransform="matrix(-1 0 0 -1 -3609.8743 15837.4189)" gradientUnits="userSpaceOnUse">
	<stop  offset="0.6774" style="stop-color:#2B2B2B"/>
	<stop  offset="0.8441" style="stop-color:#595757"/>
	<stop  offset="1" style="stop-color:#000000"/>
</radialGradient>
<path id="XMLID_18047_" fill="url(#XMLID_24_)" d="M1105.9,55.1c0-3.6,2.9-6.6,6.6-6.6c3.6,0,6.6,2.9,6.6,6.6c0,3.6-2.9,6.6-6.6,6.6
	C1108.8,61.6,1105.9,58.7,1105.9,55.1"/>
<circle id="XMLID_18046_" fill="none" stroke="#131313" stroke-width="0.75" stroke-miterlimit="10" cx="1112.4" cy="55.1" r="6.6"/>
<circle id="XMLID_18043_" fill="#B5ED2E" cx="1112.5" cy="55.1" r="5"/>
<radialGradient id="XMLID_25_" cx="-4769.7139" cy="15782.3652" r="6.5786" gradientTransform="matrix(-1 0 0 -1 -3609.8743 15837.4189)" gradientUnits="userSpaceOnUse">
	<stop  offset="0.6774" style="stop-color:#2B2B2B"/>
	<stop  offset="0.8441" style="stop-color:#595757"/>
	<stop  offset="1" style="stop-color:#000000"/>
</radialGradient>
<path id="XMLID_18042_" fill="url(#XMLID_25_)" d="M1153.3,55.1c0-3.6,2.9-6.6,6.6-6.6s6.6,2.9,6.6,6.6c0,3.6-2.9,6.6-6.6,6.6
	S1153.3,58.7,1153.3,55.1"/>
<circle id="XMLID_18041_" fill="none" stroke="#131313" stroke-width="0.75" stroke-miterlimit="10" cx="1159.8" cy="55.1" r="6.6"/>
<circle id="XMLID_18038_" fill="#B5ED2E" cx="1159.9" cy="55.1" r="5"/>
<radialGradient id="XMLID_26_" cx="-4817.1216" cy="15782.3652" r="6.5786" gradientTransform="matrix(-1 0 0 -1 -3609.8743 15837.4189)" gradientUnits="userSpaceOnUse">
	<stop  offset="0.6774" style="stop-color:#2B2B2B"/>
	<stop  offset="0.8441" style="stop-color:#595757"/>
	<stop  offset="1" style="stop-color:#000000"/>
</radialGradient>
<path id="XMLID_18037_" fill="url(#XMLID_26_)" d="M1200.7,55.1c0-3.6,2.9-6.6,6.6-6.6s6.6,2.9,6.6,6.6c0,3.6-2.9,6.6-6.6,6.6
	S1200.7,58.7,1200.7,55.1"/>
<circle id="XMLID_18036_" fill="none" stroke="#131313" stroke-width="0.75" stroke-miterlimit="10" cx="1207.2" cy="55.1" r="6.6"/>
<circle id="XMLID_18033_" fill="#B5ED2E" cx="1207.3" cy="55.1" r="5"/>
<circle id="XMLID_18030_" fill="#3D4260" cx="176.8" cy="52.8" r="30.2"/>
<linearGradient id="XMLID_27_" gradientUnits="userSpaceOnUse" x1="176.8332" y1="28.7258" x2="176.8332" y2="76.8925">
	<stop  offset="0" style="stop-color:#BEBDBE"/>
	<stop  offset="0.9871" style="stop-color:#161A28"/>
</linearGradient>
<circle id="XMLID_18027_" fill="url(#XMLID_27_)" cx="176.8" cy="52.8" r="24.1"/>
<circle id="XMLID_18022_" fill="#53AEF9" cx="176.8" cy="52.8" r="19.7"/>
<text id="XMLID_18021_" transform="matrix(1 0 0 1 215.7163 58.2756)" fill="#E2E1E0" font-family="'MicrosoftYaHei'" font-size="18px">SANGFOR</text>
<path id="XMLID_18018_" fill="none" stroke="#E2E1E0" stroke-miterlimit="10" d="M157.1,52.8c0,0,17.8-11.7,39.4,0"/>
<path id="XMLID_18017_" fill="none" stroke="#E2E1E0" stroke-miterlimit="10" d="M196.5,54.9c0,0-17.8,11.7-39.4,0"/>
<path id="XMLID_18016_" fill="none" stroke="#E2E1E0" stroke-miterlimit="10" d="M157.1,52.8c0,0,18-30.1,39.4,0"/>
<path id="XMLID_18015_" fill="none" stroke="#E2E1E0" stroke-miterlimit="10" d="M196.5,54.9c0,0-18,30.1-39.4,0"/>
<g id="XMLID_314_">
	<text transform="matrix(1 0 0 1 411.8833 189.7622)" fill="#EFEFEF" font-family="'MicrosoftYaHei'" font-size="10px">CONSOLE</text>
</g>
</svg>
