<?xml version="1.0" encoding="utf-8"?>
<!-- Generator: Adobe Illustrator 21.0.0, SVG Export Plug-In . SVG Version: 6.00 Build 0)  -->
<svg version="1.1" id="图层_1" xmlns="http://www.w3.org/2000/svg" xmlns:xlink="http://www.w3.org/1999/xlink" x="0px" y="0px"
	 width="1275.6px" height="126.1px" viewBox="0 0 1275.6 126.1" enable-background="new 0 0 1275.6 126.1" xml:space="preserve">
<g id="XMLID_3523_">
	<rect id="XMLID_3651_" fill="#2D2D2D" width="1275.6" height="126.1"/>
</g>
<g id="XMLID_3502_">
	<path id="XMLID_3522_" fill="#AFAFAF" d="M21.8,95.5c0,4.4-3.5,7.9-7.9,7.9S6,99.8,6,95.5c0-4.4,3.5-7.9,7.9-7.9
		S21.8,91.1,21.8,95.5"/>
	<ellipse id="XMLID_3521_" fill="none" stroke="#939393" stroke-miterlimit="10" cx="13.9" cy="95.5" rx="7.9" ry="7.9"/>
	<path id="XMLID_3520_" fill="#AFAFAF" d="M19.7,95.5c0,3.2-2.6,5.8-5.8,5.8c-3.2,0-5.8-2.6-5.8-5.8c0-3.2,2.6-5.8,5.8-5.8
		C17.1,89.7,19.7,92.3,19.7,95.5"/>
	<ellipse id="XMLID_3519_" fill="none" stroke="#939393" stroke-miterlimit="10" cx="13.9" cy="95.5" rx="5.8" ry="5.8"/>
	<g id="XMLID_3507_">
		<g id="XMLID_3508_">
			<defs>
				<rect id="SVGID_37_" x="8.4" y="90" width="11" height="10.9"/>
			</defs>
			<clipPath id="SVGID_111_">
				<use xlink:href="#SVGID_37_"  overflow="visible"/>
			</clipPath>
			<path id="XMLID_3518_" clip-path="url(#SVGID_111_)" fill="#BEBFBF" d="M19.4,95.5c0,3-2.5,5.5-5.5,5.5s-5.5-2.5-5.5-5.5
				c0-3,2.5-5.5,5.5-5.5S19.4,92.5,19.4,95.5"/>
			<path id="XMLID_3517_" clip-path="url(#SVGID_111_)" fill="#C0C1C1" d="M19.3,95.5c0,3-2.4,5.3-5.4,5.3c-3,0-5.4-2.4-5.4-5.3
				c0-3,2.4-5.3,5.4-5.3C16.9,90.1,19.3,92.5,19.3,95.5"/>
			<path id="XMLID_3516_" clip-path="url(#SVGID_111_)" fill="#C3C4C4" d="M19.1,95.5c0,2.9-2.3,5.2-5.2,5.2s-5.2-2.3-5.2-5.2
				c0-2.9,2.3-5.2,5.2-5.2S19.1,92.6,19.1,95.5"/>
			<path id="XMLID_3515_" clip-path="url(#SVGID_111_)" fill="#C5C6C6" d="M19,95.5c0,2.8-2.3,5.1-5.1,5.1s-5.1-2.3-5.1-5.1
				c0-2.8,2.3-5.1,5.1-5.1S19,92.7,19,95.5"/>
			<path id="XMLID_3514_" clip-path="url(#SVGID_111_)" fill="#C7C9C9" d="M18.9,95.5c0,2.7-2.2,5-5,5c-2.7,0-5-2.2-5-5
				c0-2.7,2.2-5,5-5C16.6,90.5,18.9,92.7,18.9,95.5"/>
			<path id="XMLID_3513_" clip-path="url(#SVGID_111_)" fill="#CACBCB" d="M18.7,95.5c0,2.7-2.2,4.8-4.8,4.8s-4.8-2.2-4.8-4.8
				c0-2.7,2.2-4.8,4.8-4.8S18.7,92.8,18.7,95.5"/>
			<path id="XMLID_3512_" clip-path="url(#SVGID_111_)" fill="#CCCECE" d="M18.6,95.5c0,2.6-2.1,4.7-4.7,4.7c-2.6,0-4.7-2.1-4.7-4.7
				c0-2.6,2.1-4.7,4.7-4.7C16.5,90.8,18.6,92.9,18.6,95.5"/>
			<path id="XMLID_3511_" clip-path="url(#SVGID_111_)" fill="#CED0D0" d="M18.5,95.5c0,2.5-2,4.6-4.6,4.6c-2.5,0-4.6-2-4.6-4.6
				c0-2.5,2-4.6,4.6-4.6C16.4,90.9,18.5,93,18.5,95.5"/>
			<path id="XMLID_3510_" clip-path="url(#SVGID_111_)" fill="#D1D3D3" d="M18.4,95.5c0,2.5-2,4.4-4.4,4.4c-2.5,0-4.4-2-4.4-4.4
				c0-2.5,2-4.4,4.4-4.4C16.4,91,18.4,93,18.4,95.5"/>
			<path id="XMLID_3509_" clip-path="url(#SVGID_111_)" fill="#D3D5D5" d="M18.2,95.5c0,2.4-1.9,4.3-4.3,4.3c-2.4,0-4.3-1.9-4.3-4.3
				c0-2.4,1.9-4.3,4.3-4.3C16.3,91.2,18.2,93.1,18.2,95.5"/>
		</g>
	</g>
	<polygon id="XMLID_3506_" fill="#605F5E" points="13.2,98.8 13.2,96.2 10.6,96.2 10.6,94.8 13.2,94.8 13.2,92.2 14.6,92.2 
		14.6,94.8 17.2,94.8 17.2,96.2 14.6,96.2 14.6,98.8 	"/>
	<path id="XMLID_3503_" fill="#231815" d="M14.5,92.3v2.3v0.2h0.2h2.3v1.2h-2.3h-0.2v0.2v2.3h-1.2v-2.3v-0.2h-0.2h-2.3v-1.2h2.3h0.2
		v-0.2v-2.3H14.5z M14.7,92.1h-1.7v2.6h-2.6v1.7h2.6v2.6h1.7v-2.6h2.6v-1.7h-2.6V92.1z"/>
</g>
<polyline id="XMLID_3501_" fill="none" stroke="#DCDDDD" stroke-miterlimit="10" points="0,0 27.8,32 27.8,126.1 "/>
<g id="XMLID_3480_">
	<path id="XMLID_3500_" fill="#AFAFAF" d="M1253.8,95.5c0,4.4,3.5,7.9,7.9,7.9s7.9-3.5,7.9-7.9c0-4.4-3.5-7.9-7.9-7.9
		S1253.8,91.1,1253.8,95.5"/>
	<ellipse id="XMLID_3499_" fill="none" stroke="#939393" stroke-miterlimit="10" cx="1261.7" cy="95.5" rx="7.9" ry="7.9"/>
	<path id="XMLID_3498_" fill="#AFAFAF" d="M1255.9,95.5c0,3.2,2.6,5.8,5.8,5.8s5.8-2.6,5.8-5.8c0-3.2-2.6-5.8-5.8-5.8
		S1255.9,92.3,1255.9,95.5"/>
	<ellipse id="XMLID_3497_" fill="none" stroke="#939393" stroke-miterlimit="10" cx="1261.7" cy="95.5" rx="5.8" ry="5.8"/>
	<g id="XMLID_3485_">
		<g id="XMLID_3486_">
			<defs>
				<rect id="SVGID_36_" x="1256.2" y="90" width="11" height="10.9"/>
			</defs>
			<clipPath id="SVGID_112_">
				<use xlink:href="#SVGID_36_"  overflow="visible"/>
			</clipPath>
			<path id="XMLID_3496_" clip-path="url(#SVGID_112_)" fill="#BEBFBF" d="M1256.2,95.5c0,3,2.5,5.5,5.5,5.5s5.5-2.5,5.5-5.5
				c0-3-2.5-5.5-5.5-5.5S1256.2,92.5,1256.2,95.5"/>
			<path id="XMLID_3495_" clip-path="url(#SVGID_112_)" fill="#C0C1C1" d="M1256.3,95.5c0,3,2.4,5.3,5.4,5.3c3,0,5.4-2.4,5.4-5.3
				c0-3-2.4-5.3-5.4-5.3C1258.7,90.1,1256.3,92.5,1256.3,95.5"/>
			<path id="XMLID_3494_" clip-path="url(#SVGID_112_)" fill="#C3C4C4" d="M1256.5,95.5c0,2.9,2.3,5.2,5.2,5.2s5.2-2.3,5.2-5.2
				c0-2.9-2.3-5.2-5.2-5.2S1256.5,92.6,1256.5,95.5"/>
			<path id="XMLID_3493_" clip-path="url(#SVGID_112_)" fill="#C5C6C6" d="M1256.6,95.5c0,2.8,2.3,5.1,5.1,5.1
				c2.8,0,5.1-2.3,5.1-5.1c0-2.8-2.3-5.1-5.1-5.1C1258.9,90.4,1256.6,92.7,1256.6,95.5"/>
			<path id="XMLID_3492_" clip-path="url(#SVGID_112_)" fill="#C7C9C9" d="M1256.7,95.5c0,2.7,2.2,5,5,5c2.7,0,5-2.2,5-5
				c0-2.7-2.2-5-5-5C1258.9,90.5,1256.7,92.7,1256.7,95.5"/>
			<path id="XMLID_3491_" clip-path="url(#SVGID_112_)" fill="#CACBCB" d="M1256.9,95.5c0,2.7,2.2,4.8,4.8,4.8
				c2.7,0,4.8-2.2,4.8-4.8c0-2.7-2.2-4.8-4.8-4.8C1259,90.6,1256.9,92.8,1256.9,95.5"/>
			<path id="XMLID_3490_" clip-path="url(#SVGID_112_)" fill="#CCCECE" d="M1257,95.5c0,2.6,2.1,4.7,4.7,4.7c2.6,0,4.7-2.1,4.7-4.7
				c0-2.6-2.1-4.7-4.7-4.7C1259.1,90.8,1257,92.9,1257,95.5"/>
			<path id="XMLID_3489_" clip-path="url(#SVGID_112_)" fill="#CED0D0" d="M1257.1,95.5c0,2.5,2,4.6,4.6,4.6s4.6-2,4.6-4.6
				c0-2.5-2-4.6-4.6-4.6S1257.1,93,1257.1,95.5"/>
			<path id="XMLID_3488_" clip-path="url(#SVGID_112_)" fill="#D1D3D3" d="M1257.2,95.5c0,2.5,2,4.4,4.4,4.4c2.5,0,4.4-2,4.4-4.4
				c0-2.5-2-4.4-4.4-4.4C1259.2,91,1257.2,93,1257.2,95.5"/>
			<path id="XMLID_3487_" clip-path="url(#SVGID_112_)" fill="#D3D5D5" d="M1257.4,95.5c0,2.4,1.9,4.3,4.3,4.3
				c2.4,0,4.3-1.9,4.3-4.3c0-2.4-1.9-4.3-4.3-4.3C1259.3,91.2,1257.4,93.1,1257.4,95.5"/>
		</g>
	</g>
	<polygon id="XMLID_3484_" fill="#605F5E" points="1262.4,98.8 1262.4,96.2 1265,96.2 1265,94.8 1262.4,94.8 1262.4,92.2 1261,92.2 
		1261,94.8 1258.4,94.8 1258.4,96.2 1261,96.2 1261,98.8 	"/>
	<path id="XMLID_3481_" fill="#231815" d="M1262.3,92.3v2.3v0.2h0.2h2.3v1.2h-2.3h-0.2v0.2v2.3h-1.2v-2.3v-0.2h-0.2h-2.3v-1.2h2.3
		h0.2v-0.2v-2.3H1262.3z M1260.8,94.6h-2.6v1.7h2.6v2.6h1.7v-2.6h2.6v-1.7h-2.6v-2.6h-1.7V94.6z"/>
</g>
<polyline id="XMLID_3479_" fill="none" stroke="#DCDDDD" stroke-miterlimit="10" points="1275.6,0 1247.8,32 1247.8,126.1 "/>
<g id="XMLID_3469_">
	<path id="XMLID_3478_" fill="#3E3A39" d="M1201.5,82.6c0,1.6-1.3,2.8-2.8,2.8h-65.5c-1.6,0-2.8-1.3-2.8-2.8v-50
		c0-1.6,1.3-2.8,2.8-2.8h65.5c1.6,0,2.8,1.3,2.8,2.8V82.6z"/>
	<path id="XMLID_3477_" fill="none" stroke="#000000" stroke-width="2" stroke-miterlimit="10" d="M1201.5,82.6
		c0,1.6-1.3,2.8-2.8,2.8h-65.5c-1.6,0-2.8-1.3-2.8-2.8v-50c0-1.6,1.3-2.8,2.8-2.8h65.5c1.6,0,2.8,1.3,2.8,2.8V82.6z"/>
	<polygon id="XMLID_3476_" fill="#231815" points="1141.4,76 1141.4,48.4 1150.7,39.3 1181.5,39.3 1190.5,48.9 1190.5,76 	"/>
	<rect id="XMLID_3475_" x="1177.3" y="55.4" fill="#343842" width="3.1" height="10.4"/>
	<rect id="XMLID_3474_" x="1177.3" y="57.3" fill="#8D919A" width="1.6" height="8.6"/>
	<rect id="XMLID_3473_" x="1163.7" y="48.9" fill="#343842" width="3.1" height="10.4"/>
	<rect id="XMLID_3472_" x="1163.7" y="50.8" fill="#8D919A" width="1.6" height="8.6"/>
	<rect id="XMLID_3471_" x="1150.2" y="55.4" fill="#343842" width="3.1" height="10.4"/>
	<rect id="XMLID_3470_" x="1150.2" y="57.3" fill="#8D919A" width="1.6" height="8.6"/>
</g>
<g id="XMLID_3454_">
	<text transform="matrix(1 0 0 1 401.0419 50.0365)" fill="#FFFFFF" font-family="'MicrosoftYaHei'" font-size="8px">CONSOLE</text>
</g>
<g id="XMLID_3387_">
	<defs>
		<rect id="XMLID_3388_" x="471.8" y="24" width="154.5" height="96.1"/>
	</defs>
	<clipPath id="XMLID_1003_">
		<use xlink:href="#XMLID_3388_"  overflow="visible"/>
	</clipPath>
	<g id="XMLID_3389_" clip-path="url(#XMLID_1003_)">
		<polygon id="XMLID_3453_" fill="#A3A3A3" points="478.9,34.4 472.6,23.5 478.9,12.6 491.5,12.6 497.8,23.5 491.5,34.4 		"/>
		<polygon id="XMLID_3452_" fill="#050505" points="479.7,35.2 473.4,24.3 479.7,13.3 492.3,13.3 498.6,24.3 492.3,35.2 		"/>
		<polygon id="XMLID_3451_" fill="#A3A3A3" points="525.3,34.4 519,23.5 525.3,12.6 537.9,12.6 544.2,23.5 537.9,34.4 		"/>
		<polygon id="XMLID_3450_" fill="#050505" points="526.1,35.2 519.8,24.3 526.1,13.3 538.7,13.3 545,24.3 538.7,35.2 		"/>
		<polygon id="XMLID_3449_" fill="#A3A3A3" points="571.7,34.4 565.4,23.5 571.7,12.6 584.3,12.6 590.6,23.5 584.3,34.4 		"/>
		<polygon id="XMLID_3448_" fill="#050505" points="572.5,35.2 566.2,24.3 572.5,13.3 585.1,13.3 591.4,24.3 585.1,35.2 		"/>
		<polygon id="XMLID_3447_" fill="#A3A3A3" points="455.7,49.1 449.4,38.2 455.7,27.3 468.3,27.3 474.6,38.2 468.3,49.1 		"/>
		<polygon id="XMLID_3446_" fill="#050505" points="456.5,49.9 450.2,39 456.5,28 469.1,28 475.4,39 469.1,49.9 		"/>
		<polygon id="XMLID_3445_" fill="#A3A3A3" points="478.9,63.7 472.6,52.8 478.9,41.8 491.5,41.8 497.8,52.8 491.5,63.7 		"/>
		<polygon id="XMLID_3444_" fill="#050505" points="479.7,64.5 473.4,53.5 479.7,42.6 492.3,42.6 498.6,53.5 492.3,64.5 		"/>
		<polygon id="XMLID_3443_" fill="#A3A3A3" points="502.1,49.1 495.8,38.2 502.1,27.3 514.7,27.3 521,38.2 514.7,49.1 		"/>
		<polygon id="XMLID_3442_" fill="#050505" points="502.9,49.9 496.6,39 502.9,28 515.5,28 521.8,39 515.5,49.9 		"/>
		<polygon id="XMLID_3441_" fill="#A3A3A3" points="525.3,63.7 519,52.8 525.3,41.8 537.9,41.8 544.2,52.8 537.9,63.7 		"/>
		<polygon id="XMLID_3440_" fill="#050505" points="526.1,64.5 519.8,53.5 526.1,42.6 538.7,42.6 545,53.5 538.7,64.5 		"/>
		<polygon id="XMLID_3439_" fill="#A3A3A3" points="548.5,49.1 542.2,38.2 548.5,27.3 561.1,27.3 567.4,38.2 561.1,49.1 		"/>
		<polygon id="XMLID_3438_" fill="#050505" points="549.3,49.9 543,39 549.3,28 561.9,28 568.2,39 561.9,49.9 		"/>
		<polygon id="XMLID_3437_" fill="#A3A3A3" points="571.7,63.7 565.4,52.8 571.7,41.8 584.3,41.8 590.6,52.8 584.3,63.7 		"/>
		<polygon id="XMLID_3436_" fill="#050505" points="572.5,64.5 566.2,53.5 572.5,42.6 585.1,42.6 591.4,53.5 585.1,64.5 		"/>
		<polygon id="XMLID_3435_" fill="#A3A3A3" points="618,34.4 611.7,23.5 618,12.6 630.6,12.6 636.9,23.5 630.6,34.4 		"/>
		<polygon id="XMLID_3434_" fill="#050505" points="618.8,35.2 612.4,24.3 618.8,13.3 631.4,13.3 637.7,24.3 631.4,35.2 		"/>
		<polygon id="XMLID_3433_" fill="#A3A3A3" points="594.8,49.1 588.5,38.2 594.8,27.3 607.4,27.3 613.7,38.2 607.4,49.1 		"/>
		<polygon id="XMLID_3432_" fill="#050505" points="595.6,49.9 589.2,39 595.6,28 608.2,28 614.5,39 608.2,49.9 		"/>
		<polygon id="XMLID_3431_" fill="#A3A3A3" points="618,63.7 611.7,52.8 618,41.8 630.6,41.8 636.9,52.8 630.6,63.7 		"/>
		<polygon id="XMLID_3430_" fill="#050505" points="618.8,64.5 612.4,53.5 618.8,42.6 631.4,42.6 637.7,53.5 631.4,64.5 		"/>
		<polygon id="XMLID_3429_" fill="#A3A3A3" points="455.7,79.3 449.4,68.4 455.7,57.4 468.3,57.4 474.6,68.4 468.3,79.3 		"/>
		<polygon id="XMLID_3428_" fill="#050505" points="456.5,80.1 450.2,69.1 456.5,58.2 469.1,58.2 475.4,69.1 469.1,80.1 		"/>
		<polygon id="XMLID_3427_" fill="#A3A3A3" points="478.9,93.9 472.6,83 478.9,72 491.5,72 497.8,83 491.5,93.9 		"/>
		<polygon id="XMLID_3426_" fill="#050505" points="479.7,94.6 473.4,83.7 479.7,72.8 492.3,72.8 498.6,83.7 492.3,94.6 		"/>
		<polygon id="XMLID_3425_" fill="#A3A3A3" points="502.1,79.3 495.8,68.4 502.1,57.4 514.7,57.4 521,68.4 514.7,79.3 		"/>
		<polygon id="XMLID_3424_" fill="#050505" points="502.9,80.1 496.6,69.1 502.9,58.2 515.5,58.2 521.8,69.1 515.5,80.1 		"/>
		<polygon id="XMLID_3423_" fill="#A3A3A3" points="525.3,93.9 519,83 525.3,72 537.9,72 544.2,83 537.9,93.9 		"/>
		<polygon id="XMLID_3422_" fill="#050505" points="526.1,94.6 519.8,83.7 526.1,72.8 538.7,72.8 545,83.7 538.7,94.6 		"/>
		<polygon id="XMLID_3421_" fill="#A3A3A3" points="548.5,79.3 542.2,68.4 548.5,57.4 561.1,57.4 567.4,68.4 561.1,79.3 		"/>
		<polygon id="XMLID_3420_" fill="#050505" points="549.3,80.1 543,69.1 549.3,58.2 561.9,58.2 568.2,69.1 561.9,80.1 		"/>
		<polygon id="XMLID_3419_" fill="#A3A3A3" points="571.7,93.9 565.4,83 571.7,72 584.3,72 590.6,83 584.3,93.9 		"/>
		<polygon id="XMLID_3418_" fill="#050505" points="572.5,94.6 566.2,83.7 572.5,72.8 585.1,72.8 591.4,83.7 585.1,94.6 		"/>
		<polygon id="XMLID_3417_" fill="#A3A3A3" points="594.8,79.3 588.5,68.4 594.8,57.4 607.4,57.4 613.7,68.4 607.4,79.3 		"/>
		<polygon id="XMLID_3416_" fill="#050505" points="595.6,80.1 589.2,69.1 595.6,58.2 608.2,58.2 614.5,69.1 608.2,80.1 		"/>
		<polygon id="XMLID_3415_" fill="#A3A3A3" points="618,93.9 611.7,83 618,72 630.6,72 636.9,83 630.6,93.9 		"/>
		<polygon id="XMLID_3414_" fill="#050505" points="618.8,94.6 612.4,83.7 618.8,72.8 631.4,72.8 637.7,83.7 631.4,94.6 		"/>
		<polygon id="XMLID_3413_" fill="#A3A3A3" points="455.7,109.5 449.4,98.5 455.7,87.6 468.3,87.6 474.6,98.5 468.3,109.5 		"/>
		<polygon id="XMLID_3412_" fill="#050505" points="456.5,110.2 450.2,99.3 456.5,88.4 469.1,88.4 475.4,99.3 469.1,110.2 		"/>
		<polygon id="XMLID_3411_" fill="#A3A3A3" points="478.9,124.1 472.6,113.1 478.9,102.2 491.5,102.2 497.8,113.1 491.5,124.1 		"/>
		<polygon id="XMLID_3410_" fill="#050505" points="479.7,124.8 473.4,113.9 479.7,103 492.3,103 498.6,113.9 492.3,124.8 		"/>
		<polygon id="XMLID_3409_" fill="#A3A3A3" points="502.1,109.5 495.8,98.5 502.1,87.6 514.7,87.6 521,98.5 514.7,109.5 		"/>
		<polygon id="XMLID_3408_" fill="#050505" points="502.9,110.2 496.6,99.3 502.9,88.4 515.5,88.4 521.8,99.3 515.5,110.2 		"/>
		<polygon id="XMLID_3407_" fill="#A3A3A3" points="525.3,124.1 519,113.1 525.3,102.2 537.9,102.2 544.2,113.1 537.9,124.1 		"/>
		<polygon id="XMLID_3406_" fill="#050505" points="526.1,124.8 519.8,113.9 526.1,103 538.7,103 545,113.9 538.7,124.8 		"/>
		<polygon id="XMLID_3405_" fill="#A3A3A3" points="548.5,109.5 542.2,98.5 548.5,87.6 561.1,87.6 567.4,98.5 561.1,109.5 		"/>
		<polygon id="XMLID_3404_" fill="#050505" points="549.3,110.2 543,99.3 549.3,88.4 561.9,88.4 568.2,99.3 561.9,110.2 		"/>
		<polygon id="XMLID_3403_" fill="#A3A3A3" points="571.7,124.1 565.4,113.1 571.7,102.2 584.3,102.2 590.6,113.1 584.3,124.1 		"/>
		<polygon id="XMLID_3402_" fill="#050505" points="572.5,124.8 566.2,113.9 572.5,103 585.1,103 591.4,113.9 585.1,124.8 		"/>
		<polygon id="XMLID_3401_" fill="#A3A3A3" points="594.8,109.5 588.5,98.5 594.8,87.6 607.4,87.6 613.7,98.5 607.4,109.5 		"/>
		<polygon id="XMLID_3400_" fill="#050505" points="595.6,110.2 589.2,99.3 595.6,88.4 608.2,88.4 614.5,99.3 608.2,110.2 		"/>
		<polygon id="XMLID_3399_" fill="#A3A3A3" points="618,124.1 611.7,113.1 618,102.2 630.6,102.2 636.9,113.1 630.6,124.1 		"/>
		<polygon id="XMLID_3398_" fill="#050505" points="618.8,124.8 612.4,113.9 618.8,103 631.4,103 637.7,113.9 631.4,124.8 		"/>
		<polygon id="XMLID_3397_" fill="#A3A3A3" points="455.7,139.7 449.4,128.7 455.7,117.8 468.3,117.8 474.6,128.7 468.3,139.7 		"/>
		<polygon id="XMLID_3396_" fill="#050505" points="456.5,140.4 450.2,129.5 456.5,118.6 469.1,118.6 475.4,129.5 469.1,140.4 		"/>
		<polygon id="XMLID_3395_" fill="#A3A3A3" points="502.1,139.7 495.8,128.7 502.1,117.8 514.7,117.8 521,128.7 514.7,139.7 		"/>
		<polygon id="XMLID_3394_" fill="#050505" points="502.9,140.4 496.6,129.5 502.9,118.6 515.5,118.6 521.8,129.5 515.5,140.4 		"/>
		<polygon id="XMLID_3393_" fill="#A3A3A3" points="548.5,139.7 542.2,128.7 548.5,117.8 561.1,117.8 567.4,128.7 561.1,139.7 		"/>
		<polygon id="XMLID_3392_" fill="#050505" points="549.3,140.4 543,129.5 549.3,118.6 561.9,118.6 568.2,129.5 561.9,140.4 		"/>
		<polygon id="XMLID_3391_" fill="#A3A3A3" points="594.8,139.7 588.5,128.7 594.8,117.8 607.4,117.8 613.7,128.7 607.4,139.7 		"/>
		<polygon id="XMLID_3390_" fill="#050505" points="595.6,140.4 589.2,129.5 595.6,118.6 608.2,118.6 614.5,129.5 608.2,140.4 		"/>
	</g>
</g>
<linearGradient id="XMLID_1005_" gradientUnits="userSpaceOnUse" x1="771.6283" y1="86.0118" x2="902.79" y2="86.0118">
	<stop  offset="0" style="stop-color:#FFFFFF"/>
	<stop  offset="0.1688" style="stop-color:#B1B4B5"/>
	<stop  offset="0.4086" style="stop-color:#E0E0DF"/>
	<stop  offset="0.7581" style="stop-color:#B1B4B5"/>
	<stop  offset="1" style="stop-color:#C2C2C2"/>
</linearGradient>
<rect id="XMLID_3386_" x="771.6" y="55.4" fill="url(#XMLID_1005_)" width="131.2" height="61.2"/>
<g id="XMLID_3365_">
	<path id="XMLID_3385_" fill="#AFAFAF" d="M463.8,82.1c0,4.4-3.5,7.9-7.9,7.9s-7.9-3.5-7.9-7.9c0-4.4,3.5-7.9,7.9-7.9
		S463.8,77.7,463.8,82.1"/>
	<ellipse id="XMLID_3384_" fill="none" stroke="#939393" stroke-miterlimit="10" cx="455.8" cy="82.1" rx="7.9" ry="7.9"/>
	<path id="XMLID_3383_" fill="#AFAFAF" d="M461.7,82.1c0,3.2-2.6,5.8-5.8,5.8c-3.2,0-5.8-2.6-5.8-5.8c0-3.2,2.6-5.8,5.8-5.8
		C459,76.3,461.7,78.9,461.7,82.1"/>
	<ellipse id="XMLID_3382_" fill="none" stroke="#939393" stroke-miterlimit="10" cx="455.8" cy="82.1" rx="5.8" ry="5.8"/>
	<g id="XMLID_3370_">
		<g id="XMLID_3371_">
			<defs>
				<rect id="SVGID_35_" x="450.4" y="76.6" width="11" height="10.9"/>
			</defs>
			<clipPath id="SVGID_113_">
				<use xlink:href="#SVGID_35_"  overflow="visible"/>
			</clipPath>
			<path id="XMLID_3381_" clip-path="url(#SVGID_113_)" fill="#BEBFBF" d="M461.3,82.1c0,3-2.5,5.5-5.5,5.5c-3,0-5.5-2.5-5.5-5.5
				c0-3,2.5-5.5,5.5-5.5C458.9,76.6,461.3,79.1,461.3,82.1"/>
			<path id="XMLID_3380_" clip-path="url(#SVGID_113_)" fill="#C0C1C1" d="M461.2,82.1c0,3-2.4,5.3-5.4,5.3c-3,0-5.4-2.4-5.4-5.3
				c0-3,2.4-5.3,5.4-5.3C458.8,76.8,461.2,79.1,461.2,82.1"/>
			<path id="XMLID_3379_" clip-path="url(#SVGID_113_)" fill="#C3C4C4" d="M461.1,82.1c0,2.9-2.3,5.2-5.2,5.2s-5.2-2.3-5.2-5.2
				c0-2.9,2.3-5.2,5.2-5.2S461.1,79.2,461.1,82.1"/>
			<path id="XMLID_3378_" clip-path="url(#SVGID_113_)" fill="#C5C6C6" d="M460.9,82.1c0,2.8-2.3,5.1-5.1,5.1s-5.1-2.3-5.1-5.1
				c0-2.8,2.3-5.1,5.1-5.1S460.9,79.3,460.9,82.1"/>
			<path id="XMLID_3377_" clip-path="url(#SVGID_113_)" fill="#C7C9C9" d="M460.8,82.1c0,2.7-2.2,5-5,5c-2.7,0-5-2.2-5-5
				c0-2.7,2.2-5,5-5C458.6,77.1,460.8,79.4,460.8,82.1"/>
			<path id="XMLID_3376_" clip-path="url(#SVGID_113_)" fill="#CACBCB" d="M460.7,82.1c0,2.7-2.2,4.8-4.8,4.8s-4.8-2.2-4.8-4.8
				c0-2.7,2.2-4.8,4.8-4.8S460.7,79.4,460.7,82.1"/>
			<path id="XMLID_3375_" clip-path="url(#SVGID_113_)" fill="#CCCECE" d="M460.5,82.1c0,2.6-2.1,4.7-4.7,4.7
				c-2.6,0-4.7-2.1-4.7-4.7c0-2.6,2.1-4.7,4.7-4.7C458.4,77.4,460.5,79.5,460.5,82.1"/>
			<path id="XMLID_3374_" clip-path="url(#SVGID_113_)" fill="#CED0D0" d="M460.4,82.1c0,2.5-2,4.6-4.6,4.6c-2.5,0-4.6-2-4.6-4.6
				c0-2.5,2-4.6,4.6-4.6C458.4,77.5,460.4,79.6,460.4,82.1"/>
			<path id="XMLID_3373_" clip-path="url(#SVGID_113_)" fill="#D1D3D3" d="M460.3,82.1c0,2.5-2,4.4-4.4,4.4c-2.5,0-4.4-2-4.4-4.4
				c0-2.5,2-4.4,4.4-4.4C458.3,77.7,460.3,79.6,460.3,82.1"/>
			<path id="XMLID_3372_" clip-path="url(#SVGID_113_)" fill="#D3D5D5" d="M460.2,82.1c0,2.4-1.9,4.3-4.3,4.3
				c-2.4,0-4.3-1.9-4.3-4.3c0-2.4,1.9-4.3,4.3-4.3C458.2,77.8,460.2,79.7,460.2,82.1"/>
		</g>
	</g>
	<polygon id="XMLID_3369_" fill="#605F5E" points="455.1,85.4 455.1,82.8 452.5,82.8 452.5,81.4 455.1,81.4 455.1,78.8 456.6,78.8 
		456.6,81.4 459.1,81.4 459.1,82.8 456.6,82.8 456.6,85.4 	"/>
	<path id="XMLID_3366_" fill="#231815" d="M456.4,78.9v2.3v0.2h0.2h2.3v1.2h-2.3h-0.2v0.2v2.3h-1.2v-2.3v-0.2H455h-2.3v-1.2h2.3h0.2
		v-0.2v-2.3H456.4z M456.7,78.7H455v2.6h-2.6v1.7h2.6v2.6h1.7v-2.6h2.6v-1.7h-2.6V78.7z"/>
</g>
<g id="XMLID_3344_">
	<path id="XMLID_3364_" fill="#AFAFAF" d="M755.6,90c0,4.4-3.5,7.9-7.9,7.9c-4.4,0-7.9-3.5-7.9-7.9c0-4.4,3.5-7.9,7.9-7.9
		C752.1,82.1,755.6,85.6,755.6,90"/>
	<ellipse id="XMLID_3363_" fill="none" stroke="#939393" stroke-miterlimit="10" cx="747.7" cy="90" rx="7.9" ry="7.9"/>
	<path id="XMLID_3362_" fill="#AFAFAF" d="M753.6,90c0,3.2-2.6,5.8-5.8,5.8c-3.2,0-5.8-2.6-5.8-5.8c0-3.2,2.6-5.8,5.8-5.8
		C750.9,84.2,753.6,86.8,753.6,90"/>
	<ellipse id="XMLID_3361_" fill="none" stroke="#939393" stroke-miterlimit="10" cx="747.7" cy="90" rx="5.8" ry="5.8"/>
	<g id="XMLID_3349_">
		<g id="XMLID_3350_">
			<defs>
				<rect id="SVGID_34_" x="742.3" y="84.5" width="11" height="10.9"/>
			</defs>
			<clipPath id="SVGID_114_">
				<use xlink:href="#SVGID_34_"  overflow="visible"/>
			</clipPath>
			<path id="XMLID_3360_" clip-path="url(#SVGID_114_)" fill="#BEBFBF" d="M753.2,90c0,3-2.5,5.5-5.5,5.5s-5.5-2.5-5.5-5.5
				c0-3,2.5-5.5,5.5-5.5S753.2,87,753.2,90"/>
			<path id="XMLID_3359_" clip-path="url(#SVGID_114_)" fill="#C0C1C1" d="M753.1,90c0,3-2.4,5.3-5.4,5.3c-3,0-5.4-2.4-5.4-5.3
				c0-3,2.4-5.3,5.4-5.3C750.7,84.7,753.1,87.1,753.1,90"/>
			<path id="XMLID_3358_" clip-path="url(#SVGID_114_)" fill="#C3C4C4" d="M753,90c0,2.9-2.3,5.2-5.2,5.2c-2.9,0-5.2-2.3-5.2-5.2
				c0-2.9,2.3-5.2,5.2-5.2C750.6,84.8,753,87.1,753,90"/>
			<path id="XMLID_3357_" clip-path="url(#SVGID_114_)" fill="#C5C6C6" d="M752.8,90c0,2.8-2.3,5.1-5.1,5.1s-5.1-2.3-5.1-5.1
				c0-2.8,2.3-5.1,5.1-5.1S752.8,87.2,752.8,90"/>
			<path id="XMLID_3356_" clip-path="url(#SVGID_114_)" fill="#C7C9C9" d="M752.7,90c0,2.7-2.2,5-5,5c-2.7,0-5-2.2-5-5
				c0-2.7,2.2-5,5-5C750.5,85,752.7,87.3,752.7,90"/>
			<path id="XMLID_3355_" clip-path="url(#SVGID_114_)" fill="#CACBCB" d="M752.6,90c0,2.7-2.2,4.8-4.8,4.8s-4.8-2.2-4.8-4.8
				c0-2.7,2.2-4.8,4.8-4.8S752.6,87.3,752.6,90"/>
			<path id="XMLID_3354_" clip-path="url(#SVGID_114_)" fill="#CCCECE" d="M752.4,90c0,2.6-2.1,4.7-4.7,4.7c-2.6,0-4.7-2.1-4.7-4.7
				c0-2.6,2.1-4.7,4.7-4.7C750.3,85.3,752.4,87.4,752.4,90"/>
			<path id="XMLID_3353_" clip-path="url(#SVGID_114_)" fill="#CED0D0" d="M752.3,90c0,2.5-2,4.6-4.6,4.6c-2.5,0-4.6-2-4.6-4.6
				c0-2.5,2-4.6,4.6-4.6C750.3,85.4,752.3,87.5,752.3,90"/>
			<path id="XMLID_3352_" clip-path="url(#SVGID_114_)" fill="#D1D3D3" d="M752.2,90c0,2.5-2,4.4-4.4,4.4c-2.5,0-4.4-2-4.4-4.4
				c0-2.5,2-4.4,4.4-4.4C750.2,85.6,752.2,87.6,752.2,90"/>
			<path id="XMLID_3351_" clip-path="url(#SVGID_114_)" fill="#D3D5D5" d="M752.1,90c0,2.4-1.9,4.3-4.3,4.3c-2.4,0-4.3-1.9-4.3-4.3
				c0-2.4,1.9-4.3,4.3-4.3C750.1,85.7,752.1,87.6,752.1,90"/>
		</g>
	</g>
	<polygon id="XMLID_3348_" fill="#605F5E" points="747,93.3 747,90.7 744.4,90.7 744.4,89.3 747,89.3 747,86.7 748.5,86.7 
		748.5,89.3 751,89.3 751,90.7 748.5,90.7 748.5,93.3 	"/>
	<path id="XMLID_3345_" fill="#231815" d="M748.3,86.8v2.3v0.2h0.2h2.3v1.2h-2.3h-0.2v0.2v2.3h-1.2v-2.3v-0.2h-0.2h-2.3v-1.2h2.3
		h0.2v-0.2v-2.3H748.3z M748.6,86.6h-1.7v2.6h-2.6v1.7h2.6v2.6h1.7v-2.6h2.6v-1.7h-2.6V86.6z"/>
</g>
<g id="XMLID_3323_">
	<path id="XMLID_3343_" fill="#AFAFAF" d="M785.2,90c0,1.6-1.3,2.9-2.9,2.9c-1.6,0-2.9-1.3-2.9-2.9c0-1.6,1.3-2.9,2.9-2.9
		C783.9,87.1,785.2,88.4,785.2,90"/>
	<ellipse id="XMLID_3342_" fill="none" stroke="#939393" stroke-miterlimit="10" cx="782.3" cy="90" rx="2.9" ry="2.9"/>
	<path id="XMLID_3341_" fill="#AFAFAF" d="M784.4,90c0,1.2-1,2.1-2.2,2.1c-1.2,0-2.2-1-2.2-2.1c0-1.2,1-2.1,2.2-2.1
		C783.5,87.9,784.4,88.8,784.4,90"/>
	<circle id="XMLID_3340_" fill="none" stroke="#939393" stroke-miterlimit="10" cx="782.3" cy="90" r="2.1"/>
	<g id="XMLID_3328_">
		<g id="XMLID_3329_">
			<defs>
				<rect id="SVGID_33_" x="780.3" y="88" width="4.1" height="4"/>
			</defs>
			<clipPath id="SVGID_115_">
				<use xlink:href="#SVGID_33_"  overflow="visible"/>
			</clipPath>
			<path id="XMLID_3339_" clip-path="url(#SVGID_115_)" fill="#BEBFBF" d="M784.3,90c0,1.1-0.9,2-2,2c-1.1,0-2-0.9-2-2
				c0-1.1,0.9-2,2-2C783.4,88,784.3,88.9,784.3,90"/>
			<path id="XMLID_3338_" clip-path="url(#SVGID_115_)" fill="#C0C1C1" d="M784.3,90c0,1.1-0.9,2-2,2c-1.1,0-2-0.9-2-2
				c0-1.1,0.9-2,2-2C783.4,88,784.3,88.9,784.3,90"/>
			<path id="XMLID_3337_" clip-path="url(#SVGID_115_)" fill="#C3C4C4" d="M784.2,90c0,1.1-0.9,1.9-1.9,1.9s-1.9-0.9-1.9-1.9
				c0-1.1,0.9-1.9,1.9-1.9S784.2,88.9,784.2,90"/>
			<path id="XMLID_3336_" clip-path="url(#SVGID_115_)" fill="#C5C6C6" d="M784.2,90c0,1-0.8,1.9-1.9,1.9s-1.9-0.8-1.9-1.9
				c0-1,0.8-1.9,1.9-1.9S784.2,89,784.2,90"/>
			<path id="XMLID_3335_" clip-path="url(#SVGID_115_)" fill="#C7C9C9" d="M784.1,90c0,1-0.8,1.8-1.8,1.8c-1,0-1.8-0.8-1.8-1.8
				c0-1,0.8-1.8,1.8-1.8C783.3,88.2,784.1,89,784.1,90"/>
			<path id="XMLID_3334_" clip-path="url(#SVGID_115_)" fill="#CACBCB" d="M784.1,90c0,1-0.8,1.8-1.8,1.8c-1,0-1.8-0.8-1.8-1.8
				c0-1,0.8-1.8,1.8-1.8C783.3,88.2,784.1,89,784.1,90"/>
			<path id="XMLID_3333_" clip-path="url(#SVGID_115_)" fill="#CCCECE" d="M784,90c0,1-0.8,1.7-1.7,1.7c-1,0-1.7-0.8-1.7-1.7
				c0-1,0.8-1.7,1.7-1.7C783.3,88.3,784,89,784,90"/>
			<path id="XMLID_3332_" clip-path="url(#SVGID_115_)" fill="#CED0D0" d="M784,90c0,0.9-0.8,1.7-1.7,1.7c-0.9,0-1.7-0.8-1.7-1.7
				c0-0.9,0.8-1.7,1.7-1.7C783.2,88.3,784,89.1,784,90"/>
			<path id="XMLID_3331_" clip-path="url(#SVGID_115_)" fill="#D1D3D3" d="M783.9,90c0,0.9-0.7,1.6-1.6,1.6c-0.9,0-1.6-0.7-1.6-1.6
				c0-0.9,0.7-1.6,1.6-1.6C783.2,88.4,783.9,89.1,783.9,90"/>
			<path id="XMLID_3330_" clip-path="url(#SVGID_115_)" fill="#D3D5D5" d="M783.9,90c0,0.9-0.7,1.6-1.6,1.6c-0.9,0-1.6-0.7-1.6-1.6
				c0-0.9,0.7-1.6,1.6-1.6C783.2,88.4,783.9,89.1,783.9,90"/>
		</g>
	</g>
	<polygon id="XMLID_3327_" fill="#605F5E" points="782,91.2 782,90.3 781.1,90.3 781.1,89.7 782,89.7 782,88.8 782.6,88.8 
		782.6,89.7 783.5,89.7 783.5,90.3 782.6,90.3 782.6,91.2 	"/>
	<path id="XMLID_3324_" fill="#231815" d="M782.5,88.8v0.9v0.1h0.1h0.9v0.4h-0.9h-0.1v0.1v0.9h-0.4v-0.9v-0.1H782h-0.9v-0.4h0.9h0.1
		v-0.1v-0.9H782.5z M782.6,88.7H782v1h-1v0.6h1v1h0.6v-1h1v-0.6h-1V88.7z"/>
</g>
<g id="XMLID_3302_">
	<path id="XMLID_3322_" fill="#AFAFAF" d="M896.9,90c0,1.6-1.3,2.9-2.9,2.9c-1.6,0-2.9-1.3-2.9-2.9c0-1.6,1.3-2.9,2.9-2.9
		C895.6,87.1,896.9,88.4,896.9,90"/>
	<ellipse id="XMLID_3321_" fill="none" stroke="#939393" stroke-miterlimit="10" cx="894" cy="90" rx="2.9" ry="2.9"/>
	<path id="XMLID_3320_" fill="#AFAFAF" d="M896.2,90c0,1.2-1,2.1-2.2,2.1s-2.2-1-2.2-2.1c0-1.2,1-2.1,2.2-2.1S896.2,88.8,896.2,90"
		/>
	<circle id="XMLID_3319_" fill="none" stroke="#939393" stroke-miterlimit="10" cx="894" cy="90" r="2.1"/>
	<g id="XMLID_3307_">
		<g id="XMLID_3308_">
			<defs>
				<rect id="SVGID_32_" x="892" y="88" width="4.1" height="4"/>
			</defs>
			<clipPath id="SVGID_116_">
				<use xlink:href="#SVGID_32_"  overflow="visible"/>
			</clipPath>
			<path id="XMLID_3318_" clip-path="url(#SVGID_116_)" fill="#BEBFBF" d="M896,90c0,1.1-0.9,2-2,2c-1.1,0-2-0.9-2-2
				c0-1.1,0.9-2,2-2C895.1,88,896,88.9,896,90"/>
			<path id="XMLID_3317_" clip-path="url(#SVGID_116_)" fill="#C0C1C1" d="M896,90c0,1.1-0.9,2-2,2c-1.1,0-2-0.9-2-2
				c0-1.1,0.9-2,2-2C895.1,88,896,88.9,896,90"/>
			<path id="XMLID_3316_" clip-path="url(#SVGID_116_)" fill="#C3C4C4" d="M896,90c0,1.1-0.9,1.9-1.9,1.9s-1.9-0.9-1.9-1.9
				c0-1.1,0.9-1.9,1.9-1.9S896,88.9,896,90"/>
			<path id="XMLID_3315_" clip-path="url(#SVGID_116_)" fill="#C5C6C6" d="M895.9,90c0,1-0.8,1.9-1.9,1.9s-1.9-0.8-1.9-1.9
				c0-1,0.8-1.9,1.9-1.9S895.9,89,895.9,90"/>
			<path id="XMLID_3314_" clip-path="url(#SVGID_116_)" fill="#C7C9C9" d="M895.9,90c0,1-0.8,1.8-1.8,1.8s-1.8-0.8-1.8-1.8
				c0-1,0.8-1.8,1.8-1.8S895.9,89,895.9,90"/>
			<path id="XMLID_3313_" clip-path="url(#SVGID_116_)" fill="#CACBCB" d="M895.8,90c0,1-0.8,1.8-1.8,1.8c-1,0-1.8-0.8-1.8-1.8
				c0-1,0.8-1.8,1.8-1.8C895,88.2,895.8,89,895.8,90"/>
			<path id="XMLID_3312_" clip-path="url(#SVGID_116_)" fill="#CCCECE" d="M895.8,90c0,1-0.8,1.7-1.7,1.7c-1,0-1.7-0.8-1.7-1.7
				c0-1,0.8-1.7,1.7-1.7C895,88.3,895.8,89,895.8,90"/>
			<path id="XMLID_3311_" clip-path="url(#SVGID_116_)" fill="#CED0D0" d="M895.7,90c0,0.9-0.8,1.7-1.7,1.7c-0.9,0-1.7-0.8-1.7-1.7
				c0-0.9,0.8-1.7,1.7-1.7C895,88.3,895.7,89.1,895.7,90"/>
			<path id="XMLID_3310_" clip-path="url(#SVGID_116_)" fill="#D1D3D3" d="M895.7,90c0,0.9-0.7,1.6-1.6,1.6c-0.9,0-1.6-0.7-1.6-1.6
				c0-0.9,0.7-1.6,1.6-1.6C894.9,88.4,895.7,89.1,895.7,90"/>
			<path id="XMLID_3309_" clip-path="url(#SVGID_116_)" fill="#D3D5D5" d="M895.6,90c0,0.9-0.7,1.6-1.6,1.6c-0.9,0-1.6-0.7-1.6-1.6
				c0-0.9,0.7-1.6,1.6-1.6C894.9,88.4,895.6,89.1,895.6,90"/>
		</g>
	</g>
	<polygon id="XMLID_3306_" fill="#605F5E" points="893.8,91.2 893.8,90.3 892.8,90.3 892.8,89.7 893.8,89.7 893.8,88.8 894.3,88.8 
		894.3,89.7 895.2,89.7 895.2,90.3 894.3,90.3 894.3,91.2 	"/>
	<path id="XMLID_3303_" fill="#231815" d="M894.2,88.8v0.9v0.1h0.1h0.9v0.4h-0.9h-0.1v0.1v0.9h-0.4v-0.9v-0.1h-0.1h-0.9v-0.4h0.9
		h0.1v-0.1v-0.9H894.2z M894.3,88.7h-0.6v1h-1v0.6h1v1h0.6v-1h1v-0.6h-1V88.7z"/>
</g>
<g id="XMLID_3299_">
	<text transform="matrix(1 0 0 1 799.6948 25.7645)" fill="#FFFFFF" font-family="'MicrosoftYaHei'" font-size="5.8379px">DC SUOUTS FOR AEMOTE</text>
</g>
<g id="XMLID_3296_">
	<text transform="matrix(1 0 0 1 814.2153 36.5145)" fill="#FFFFFF" font-family="'MicrosoftYaHei'" font-size="5.8379px">POMER SUPPLY</text>
</g>
<g id="XMLID_3293_">
	<text transform="matrix(1 0 0 1 803.5444 47.0145)" fill="#FFFFFF" font-family="'MicrosoftYaHei'" font-size="5.8379px">SPECWWD IN MAMJAL</text>
</g>
<rect id="XMLID_3292_" x="771.6" y="55.4" fill="#939393" width="131.2" height="7.6"/>
<rect id="XMLID_3289_" x="791.6" y="69.3" fill="#6B635C" width="93.1" height="33"/>
<rect id="XMLID_3286_" x="793.3" y="70.7" fill="#C1BEA6" width="89.6" height="30.3"/>
<g id="XMLID_3259_">
	<rect id="XMLID_3285_" x="794.8" y="71.8" fill="#343537" width="86.7" height="13.7"/>
	<path id="XMLID_3282_" d="M881.1,85h-85.8V72.3h85.8V85z M881.9,71.3h-0.9h-85.8h-0.9v1V85v1h0.9h85.8h0.9v-1V72.3V71.3z"/>
	<rect id="XMLID_3281_" x="795.2" y="74.1" fill="#9E9E9E" width="2.3" height="9.5"/>
	<rect id="XMLID_3280_" x="795.2" y="74.6" fill="#343537" width="2" height="8.4"/>
	<rect id="XMLID_3279_" x="878.7" y="74" fill="#9E9E9E" width="2.3" height="9.5"/>
	<polygon id="XMLID_3278_" fill="#B2B1B1" points="803.4,76 803.4,73.9 800.1,73.9 800.1,76 801.4,76 801.4,81.3 800.1,81.3 
		800.1,83.4 803.4,83.4 803.4,81.3 802.1,81.3 802.1,76 	"/>
	<polygon id="XMLID_3277_" fill="#B2B1B1" points="808,76 808,73.9 804.6,73.9 804.6,76 805.9,76 805.9,81.3 804.6,81.3 804.6,83.4 
		808,83.4 808,81.3 806.7,81.3 806.7,76 	"/>
	<polygon id="XMLID_3276_" fill="#B2B1B1" points="812.5,76 812.5,73.9 809.2,73.9 809.2,76 810.5,76 810.5,81.3 809.2,81.3 
		809.2,83.4 812.5,83.4 812.5,81.3 811.2,81.3 811.2,76 	"/>
	<polygon id="XMLID_3275_" fill="#B2B1B1" points="817.1,76 817.1,73.9 813.7,73.9 813.7,76 815,76 815,81.3 813.7,81.3 813.7,83.4 
		817.1,83.4 817.1,81.3 815.8,81.3 815.8,76 	"/>
	<polygon id="XMLID_3274_" fill="#B2B1B1" points="821.6,76 821.6,73.9 818.3,73.9 818.3,76 819.6,76 819.6,81.3 818.3,81.3 
		818.3,83.4 821.6,83.4 821.6,81.3 820.3,81.3 820.3,76 	"/>
	<polygon id="XMLID_3273_" fill="#B2B1B1" points="826.1,76 826.1,73.9 822.8,73.9 822.8,76 824.1,76 824.1,81.3 822.8,81.3 
		822.8,83.4 826.1,83.4 826.1,81.3 824.9,81.3 824.9,76 	"/>
	<polygon id="XMLID_3272_" fill="#B2B1B1" points="830.7,76 830.7,73.9 827.4,73.9 827.4,76 828.7,76 828.7,81.3 827.4,81.3 
		827.4,83.4 830.7,83.4 830.7,81.3 829.4,81.3 829.4,76 	"/>
	<polygon id="XMLID_3271_" fill="#B2B1B1" points="835.2,76 835.2,73.9 831.9,73.9 831.9,76 833.2,76 833.2,81.3 831.9,81.3 
		831.9,83.4 835.2,83.4 835.2,81.3 833.9,81.3 833.9,76 	"/>
	<polygon id="XMLID_3270_" fill="#B2B1B1" points="839.8,76 839.8,73.9 836.5,73.9 836.5,76 837.8,76 837.8,81.3 836.5,81.3 
		836.5,83.4 839.8,83.4 839.8,81.3 838.5,81.3 838.5,76 	"/>
	<polygon id="XMLID_3269_" fill="#B2B1B1" points="844.3,76 844.3,73.9 841,73.9 841,76 842.3,76 842.3,81.3 841,81.3 841,83.4 
		844.3,83.4 844.3,81.3 843,81.3 843,76 	"/>
	<polygon id="XMLID_3268_" fill="#B2B1B1" points="848.9,76 848.9,73.9 845.6,73.9 845.6,76 846.9,76 846.9,81.3 845.6,81.3 
		845.6,83.4 848.9,83.4 848.9,81.3 847.6,81.3 847.6,76 	"/>
	<polygon id="XMLID_3267_" fill="#B2B1B1" points="853.4,76 853.4,73.9 850.1,73.9 850.1,76 851.4,76 851.4,81.3 850.1,81.3 
		850.1,83.4 853.4,83.4 853.4,81.3 852.1,81.3 852.1,76 	"/>
	<polygon id="XMLID_3266_" fill="#B2B1B1" points="858,76 858,73.9 854.7,73.9 854.7,76 855.9,76 855.9,81.3 854.7,81.3 854.7,83.4 
		858,83.4 858,81.3 856.7,81.3 856.7,76 	"/>
	<polygon id="XMLID_3265_" fill="#B2B1B1" points="862.5,76 862.5,73.9 859.2,73.9 859.2,76 860.5,76 860.5,81.3 859.2,81.3 
		859.2,83.4 862.5,83.4 862.5,81.3 861.2,81.3 861.2,76 	"/>
	<polygon id="XMLID_3264_" fill="#B2B1B1" points="867.1,76 867.1,73.9 863.7,73.9 863.7,76 865,76 865,81.3 863.7,81.3 863.7,83.4 
		867.1,83.4 867.1,81.3 865.8,81.3 865.8,76 	"/>
	<polygon id="XMLID_3263_" fill="#B2B1B1" points="871.6,76 871.6,73.9 868.3,73.9 868.3,76 869.6,76 869.6,81.3 868.3,81.3 
		868.3,83.4 871.6,83.4 871.6,81.3 870.3,81.3 870.3,76 	"/>
	<polygon id="XMLID_3262_" fill="#B2B1B1" points="876.2,76 876.2,73.9 872.8,73.9 872.8,76 874.1,76 874.1,81.3 872.8,81.3 
		872.8,83.4 876.2,83.4 876.2,81.3 874.9,81.3 874.9,76 	"/>
	<rect id="XMLID_3261_" x="798.5" y="78.2" fill="#B2B1B1" width="79.3" height="0.9"/>
	<rect id="XMLID_3260_" x="879.1" y="74.6" fill="#343537" width="2" height="8.4"/>
</g>
<g id="XMLID_3232_">
	<rect id="XMLID_3258_" x="794.8" y="86.5" fill="#343537" width="86.7" height="13.7"/>
	<path id="XMLID_3255_" d="M881.1,99.8h-85.8V87h85.8V99.8z M881.9,86h-0.9h-85.8h-0.9v1v12.7v1h0.9h85.8h0.9v-1V87V86z"/>
	<rect id="XMLID_3254_" x="795.2" y="88.8" fill="#9E9E9E" width="2.3" height="9.5"/>
	<rect id="XMLID_3253_" x="795.2" y="89.3" fill="#343537" width="2" height="8.4"/>
	<rect id="XMLID_3252_" x="878.7" y="88.8" fill="#9E9E9E" width="2.3" height="9.5"/>
	<polygon id="XMLID_3251_" fill="#B2B1B1" points="803.4,90.7 803.4,88.7 800.1,88.7 800.1,90.7 801.4,90.7 801.4,96.1 800.1,96.1 
		800.1,98.1 803.4,98.1 803.4,96.1 802.1,96.1 802.1,90.7 	"/>
	<polygon id="XMLID_3250_" fill="#B2B1B1" points="808,90.7 808,88.7 804.6,88.7 804.6,90.7 805.9,90.7 805.9,96.1 804.6,96.1 
		804.6,98.1 808,98.1 808,96.1 806.7,96.1 806.7,90.7 	"/>
	<polygon id="XMLID_3249_" fill="#B2B1B1" points="812.5,90.7 812.5,88.7 809.2,88.7 809.2,90.7 810.5,90.7 810.5,96.1 809.2,96.1 
		809.2,98.1 812.5,98.1 812.5,96.1 811.2,96.1 811.2,90.7 	"/>
	<polygon id="XMLID_3248_" fill="#B2B1B1" points="817.1,90.7 817.1,88.7 813.7,88.7 813.7,90.7 815,90.7 815,96.1 813.7,96.1 
		813.7,98.1 817.1,98.1 817.1,96.1 815.8,96.1 815.8,90.7 	"/>
	<polygon id="XMLID_3247_" fill="#B2B1B1" points="821.6,90.7 821.6,88.7 818.3,88.7 818.3,90.7 819.6,90.7 819.6,96.1 818.3,96.1 
		818.3,98.1 821.6,98.1 821.6,96.1 820.3,96.1 820.3,90.7 	"/>
	<polygon id="XMLID_3246_" fill="#B2B1B1" points="826.1,90.7 826.1,88.7 822.8,88.7 822.8,90.7 824.1,90.7 824.1,96.1 822.8,96.1 
		822.8,98.1 826.1,98.1 826.1,96.1 824.9,96.1 824.9,90.7 	"/>
	<polygon id="XMLID_3245_" fill="#B2B1B1" points="830.7,90.7 830.7,88.7 827.4,88.7 827.4,90.7 828.7,90.7 828.7,96.1 827.4,96.1 
		827.4,98.1 830.7,98.1 830.7,96.1 829.4,96.1 829.4,90.7 	"/>
	<polygon id="XMLID_3244_" fill="#B2B1B1" points="835.2,90.7 835.2,88.7 831.9,88.7 831.9,90.7 833.2,90.7 833.2,96.1 831.9,96.1 
		831.9,98.1 835.2,98.1 835.2,96.1 833.9,96.1 833.9,90.7 	"/>
	<polygon id="XMLID_3243_" fill="#B2B1B1" points="839.8,90.7 839.8,88.7 836.5,88.7 836.5,90.7 837.8,90.7 837.8,96.1 836.5,96.1 
		836.5,98.1 839.8,98.1 839.8,96.1 838.5,96.1 838.5,90.7 	"/>
	<polygon id="XMLID_3242_" fill="#B2B1B1" points="844.3,90.7 844.3,88.7 841,88.7 841,90.7 842.3,90.7 842.3,96.1 841,96.1 
		841,98.1 844.3,98.1 844.3,96.1 843,96.1 843,90.7 	"/>
	<polygon id="XMLID_3241_" fill="#B2B1B1" points="848.9,90.7 848.9,88.7 845.6,88.7 845.6,90.7 846.9,90.7 846.9,96.1 845.6,96.1 
		845.6,98.1 848.9,98.1 848.9,96.1 847.6,96.1 847.6,90.7 	"/>
	<polygon id="XMLID_3240_" fill="#B2B1B1" points="853.4,90.7 853.4,88.7 850.1,88.7 850.1,90.7 851.4,90.7 851.4,96.1 850.1,96.1 
		850.1,98.1 853.4,98.1 853.4,96.1 852.1,96.1 852.1,90.7 	"/>
	<polygon id="XMLID_3239_" fill="#B2B1B1" points="858,90.7 858,88.7 854.7,88.7 854.7,90.7 855.9,90.7 855.9,96.1 854.7,96.1 
		854.7,98.1 858,98.1 858,96.1 856.7,96.1 856.7,90.7 	"/>
	<polygon id="XMLID_3238_" fill="#B2B1B1" points="862.5,90.7 862.5,88.7 859.2,88.7 859.2,90.7 860.5,90.7 860.5,96.1 859.2,96.1 
		859.2,98.1 862.5,98.1 862.5,96.1 861.2,96.1 861.2,90.7 	"/>
	<polygon id="XMLID_3237_" fill="#B2B1B1" points="867.1,90.7 867.1,88.7 863.7,88.7 863.7,90.7 865,90.7 865,96.1 863.7,96.1 
		863.7,98.1 867.1,98.1 867.1,96.1 865.8,96.1 865.8,90.7 	"/>
	<polygon id="XMLID_3236_" fill="#B2B1B1" points="871.6,90.7 871.6,88.7 868.3,88.7 868.3,90.7 869.6,90.7 869.6,96.1 868.3,96.1 
		868.3,98.1 871.6,98.1 871.6,96.1 870.3,96.1 870.3,90.7 	"/>
	<polygon id="XMLID_3235_" fill="#B2B1B1" points="876.2,90.7 876.2,88.7 872.8,88.7 872.8,90.7 874.1,90.7 874.1,96.1 872.8,96.1 
		872.8,98.1 876.2,98.1 876.2,96.1 874.9,96.1 874.9,90.7 	"/>
	<rect id="XMLID_3234_" x="798.5" y="92.9" fill="#B2B1B1" width="79.3" height="0.9"/>
	<rect id="XMLID_3233_" x="879.1" y="89.3" fill="#343537" width="2" height="8.4"/>
</g>
</svg>
