<?xml version="1.0" encoding="utf-8"?>
<!-- Generator: Adobe Illustrator 16.0.0, SVG Export Plug-In . SVG Version: 6.00 Build 0)  -->
<!DOCTYPE svg PUBLIC "-//W3C//DTD SVG 1.1//EN" "http://www.w3.org/Graphics/SVG/1.1/DTD/svg11.dtd">
<svg version="1.1" id="图层_1" xmlns="http://www.w3.org/2000/svg" xmlns:xlink="http://www.w3.org/1999/xlink" x="0px" y="0px"
	 width="1417.32px" height="126.14px" viewBox="0 0 1417.32 126.14" enable-background="new 0 0 1417.32 126.14"
	 xml:space="preserve">
<g>
	<rect x="70.865" y="-0.338" fill="#353535" width="1275.59" height="126.142"/>
	<g>
		<g>
			
				<linearGradient id="SVGID_1_" gradientUnits="userSpaceOnUse" x1="4085.3574" y1="62.7324" x2="4156.2246" y2="62.7324" gradientTransform="matrix(1 0 0 1 -4085.3594 0)">
				<stop  offset="0" style="stop-color:#343535"/>
				<stop  offset="0.7778" style="stop-color:#343535"/>
				<stop  offset="0.8835" style="stop-color:#636666"/>
				<stop  offset="1" style="stop-color:#030000"/>
			</linearGradient>
			<rect x="-0.001" y="-0.338" fill="url(#SVGID_1_)" width="70.866" height="126.141"/>
			<g>
				<g>
					<path fill="#B7B6B6" d="M37,15.03c0,3.931-3.385,7.118-7.562,7.118H13.125c-4.177,0-7.563-3.188-7.563-7.118l0,0
						c0-3.931,3.386-7.118,7.563-7.118h16.314C33.615,7.912,37,11.1,37,15.03L37,15.03z"/>
					<path fill="#0E0D0D" d="M36.107,14.828c0,3.82-3.289,6.916-7.346,6.916H12.91c-4.059,0-7.348-3.096-7.348-6.916l0,0
						c0-3.82,3.289-6.916,7.348-6.916h15.851C32.818,7.912,36.107,11.008,36.107,14.828L36.107,14.828z"/>
				</g>
				<g>
					<path fill="#B7B6B6" d="M37,110.435c0,3.931-3.385,7.118-7.562,7.118H13.125c-4.177,0-7.563-3.188-7.563-7.118l0,0
						c0-3.931,3.386-7.118,7.563-7.118h16.314C33.615,103.316,37,106.504,37,110.435L37,110.435z"/>
					<path fill="#0E0D0D" d="M36.107,110.232c0,3.82-3.289,6.916-7.346,6.916H12.91c-4.059,0-7.348-3.096-7.348-6.916l0,0
						c0-3.82,3.289-6.916,7.348-6.916h15.851C32.818,103.316,36.107,106.412,36.107,110.232L36.107,110.232z"/>
				</g>
			</g>
			<g>
				<g>
					<path fill="#AFAEAE" d="M11.016,15.031c0,5.365,4.597,9.716,10.266,9.716c5.67,0,10.266-4.351,10.266-9.716
						c0-5.367-4.596-9.718-10.266-9.718C15.612,5.313,11.016,9.664,11.016,15.031"/>
					<ellipse fill="none" stroke="#929292" stroke-miterlimit="10" cx="21.281" cy="15.031" rx="10.266" ry="9.716"/>
					<path fill="#AFAEAE" d="M13.739,15.031c0,3.941,3.378,7.139,7.542,7.139c4.167,0,7.545-3.197,7.545-7.139
						c0-3.943-3.378-7.141-7.545-7.141C17.117,7.891,13.739,11.088,13.739,15.031"/>
					<ellipse fill="none" stroke="#929292" stroke-miterlimit="10" cx="21.282" cy="15.031" rx="7.544" ry="7.139"/>
					<g>
						<g>
							<defs>
								<rect id="SVGID_2_" x="14.172" y="8.301" width="14.22" height="13.457"/>
							</defs>
							<clipPath id="SVGID_3_">
								<use xlink:href="#SVGID_2_"  overflow="visible"/>
							</clipPath>
							<path clip-path="url(#SVGID_3_)" fill="#BEBEBD" d="M14.172,15.031c0,3.715,3.184,6.727,7.109,6.727
								c3.928,0,7.111-3.012,7.111-6.727c0-3.717-3.184-6.73-7.111-6.73C17.356,8.301,14.172,11.314,14.172,15.031"/>
							<path clip-path="url(#SVGID_3_)" fill="#C0C0C0" d="M14.34,15.031c0,3.627,3.108,6.569,6.941,6.569
								c3.834,0,6.942-2.942,6.942-6.569c0-3.629-3.108-6.572-6.942-6.572C17.449,8.459,14.34,11.402,14.34,15.031"/>
							<path clip-path="url(#SVGID_3_)" fill="#C2C3C3" d="M14.507,15.031c0,3.539,3.034,6.412,6.774,6.412
								c3.743,0,6.776-2.873,6.776-6.412c0-3.542-3.033-6.413-6.776-6.413C17.542,8.618,14.507,11.489,14.507,15.031"/>
							<path clip-path="url(#SVGID_3_)" fill="#C4C5C4" d="M14.675,15.031c0,3.453,2.957,6.254,6.606,6.254
								c3.65,0,6.609-2.801,6.609-6.254c0-3.455-2.958-6.254-6.609-6.254C17.632,8.777,14.675,11.576,14.675,15.031"/>
							<path clip-path="url(#SVGID_3_)" fill="#C6C8C8" d="M14.842,15.031c0,3.364,2.884,6.096,6.439,6.096
								c3.558,0,6.441-2.731,6.441-6.096c0-3.367-2.883-6.097-6.441-6.097C17.727,8.935,14.842,11.664,14.842,15.031"/>
							<path clip-path="url(#SVGID_3_)" fill="#C9CACB" d="M15.009,15.031c0,3.278,2.809,5.936,6.272,5.936
								c3.465,0,6.274-2.657,6.274-5.936c0-3.279-2.81-5.939-6.274-5.939C17.818,9.092,15.009,11.752,15.009,15.031"/>
							<path clip-path="url(#SVGID_3_)" fill="#CBCDCD" d="M15.175,15.031c0,3.19,2.735,5.779,6.106,5.779
								c3.374,0,6.106-2.589,6.106-5.779c0-3.193-2.733-5.781-6.106-5.781C17.91,9.25,15.175,11.838,15.175,15.031"/>
							<path clip-path="url(#SVGID_3_)" fill="#CCCFD0" d="M15.342,15.031c0,3.104,2.661,5.621,5.939,5.621
								c3.279,0,5.94-2.518,5.94-5.621c0-3.105-2.661-5.621-5.94-5.621C18.003,9.41,15.342,11.926,15.342,15.031"/>
							<path clip-path="url(#SVGID_3_)" fill="#D0D2D2" d="M15.51,15.031c0,3.016,2.584,5.462,5.771,5.462
								c3.188,0,5.772-2.446,5.772-5.462c0-3.018-2.584-5.465-5.772-5.465C18.094,9.566,15.51,12.014,15.51,15.031"/>
							<path clip-path="url(#SVGID_3_)" fill="#D2D4D5" d="M15.677,15.031c0,2.928,2.51,5.303,5.604,5.303
								c3.098,0,5.604-2.375,5.604-5.303c0-2.931-2.507-5.305-5.604-5.305C18.187,9.727,15.677,12.101,15.677,15.031"/>
						</g>
					</g>
					<polygon fill="#605F5E" points="22.211,19.077 22.211,15.91 25.556,15.91 25.556,14.151 22.211,14.151 22.211,10.984 
						20.353,10.984 20.353,14.151 17.007,14.151 17.007,15.91 20.353,15.91 20.353,19.077 					"/>
					<path fill="#221714" d="M22.049,11.137v2.861v0.307h0.322h3.025v1.452h-3.025h-0.322v0.304v2.862h-1.535v-2.862v-0.304h-0.321
						h-3.025v-1.452h3.025h0.321v-0.307v-2.861H22.049z M20.193,13.998h-3.346v2.063h3.346v3.167h2.178v-3.167h3.346v-2.063h-3.346
						v-3.166h-2.178V13.998z"/>
				</g>
				<g>
					<path fill="#AFAEAE" d="M11.016,110.436c0,5.365,4.597,9.716,10.266,9.716c5.67,0,10.266-4.351,10.266-9.716
						c0-5.367-4.596-9.718-10.266-9.718C15.612,100.718,11.016,105.068,11.016,110.436"/>
					<ellipse fill="none" stroke="#929292" stroke-miterlimit="10" cx="21.281" cy="110.436" rx="10.266" ry="9.716"/>
					<path fill="#AFAEAE" d="M13.739,110.436c0,3.942,3.378,7.139,7.542,7.139c4.167,0,7.545-3.196,7.545-7.139
						c0-3.943-3.378-7.141-7.545-7.141C17.117,103.295,13.739,106.492,13.739,110.436"/>
					<ellipse fill="none" stroke="#929292" stroke-miterlimit="10" cx="21.282" cy="110.436" rx="7.544" ry="7.139"/>
					<g>
						<g>
							<defs>
								<rect id="SVGID_4_" x="14.172" y="103.705" width="14.22" height="13.458"/>
							</defs>
							<clipPath id="SVGID_5_">
								<use xlink:href="#SVGID_4_"  overflow="visible"/>
							</clipPath>
							<path clip-path="url(#SVGID_5_)" fill="#BEBEBD" d="M14.172,110.436c0,3.715,3.184,6.728,7.109,6.728
								c3.928,0,7.111-3.013,7.111-6.728c0-3.717-3.184-6.73-7.111-6.73C17.356,103.705,14.172,106.719,14.172,110.436"/>
							<path clip-path="url(#SVGID_5_)" fill="#C0C0C0" d="M14.34,110.436c0,3.627,3.108,6.569,6.941,6.569
								c3.834,0,6.942-2.942,6.942-6.569c0-3.629-3.108-6.572-6.942-6.572C17.449,103.863,14.34,106.807,14.34,110.436"/>
							<path clip-path="url(#SVGID_5_)" fill="#C2C3C3" d="M14.507,110.436c0,3.54,3.034,6.412,6.774,6.412
								c3.743,0,6.776-2.872,6.776-6.412c0-3.542-3.033-6.412-6.776-6.412C17.542,104.023,14.507,106.894,14.507,110.436"/>
							<path clip-path="url(#SVGID_5_)" fill="#C4C5C4" d="M14.675,110.436c0,3.453,2.957,6.253,6.606,6.253
								c3.65,0,6.609-2.8,6.609-6.253c0-3.455-2.958-6.254-6.609-6.254C17.632,104.182,14.675,106.98,14.675,110.436"/>
							<path clip-path="url(#SVGID_5_)" fill="#C6C8C8" d="M14.842,110.436c0,3.364,2.884,6.095,6.439,6.095
								c3.558,0,6.441-2.73,6.441-6.095c0-3.367-2.883-6.098-6.441-6.098C17.727,104.338,14.842,107.068,14.842,110.436"/>
							<path clip-path="url(#SVGID_5_)" fill="#C9CACB" d="M15.009,110.436c0,3.277,2.809,5.936,6.272,5.936
								c3.465,0,6.274-2.658,6.274-5.936c0-3.28-2.81-5.938-6.274-5.938C17.818,104.497,15.009,107.155,15.009,110.436"/>
							<path clip-path="url(#SVGID_5_)" fill="#CBCDCD" d="M15.175,110.436c0,3.19,2.735,5.779,6.106,5.779
								c3.374,0,6.106-2.589,6.106-5.779c0-3.192-2.733-5.781-6.106-5.781C17.91,104.654,15.175,107.243,15.175,110.436"/>
							<path clip-path="url(#SVGID_5_)" fill="#CCCFD0" d="M15.342,110.436c0,3.104,2.661,5.621,5.939,5.621
								c3.279,0,5.94-2.518,5.94-5.621c0-3.105-2.661-5.621-5.94-5.621C18.003,104.814,15.342,107.33,15.342,110.436"/>
							<path clip-path="url(#SVGID_5_)" fill="#D0D2D2" d="M15.51,110.436c0,3.016,2.584,5.462,5.771,5.462
								c3.188,0,5.772-2.446,5.772-5.462c0-3.018-2.584-5.465-5.772-5.465C18.094,104.971,15.51,107.418,15.51,110.436"/>
							<path clip-path="url(#SVGID_5_)" fill="#D2D4D5" d="M15.677,110.436c0,2.928,2.51,5.303,5.604,5.303
								c3.098,0,5.604-2.375,5.604-5.303c0-2.931-2.507-5.305-5.604-5.305C18.187,105.131,15.677,107.505,15.677,110.436"/>
						</g>
					</g>
					<polygon fill="#605F5E" points="22.211,114.481 22.211,111.314 25.556,111.314 25.556,109.557 22.211,109.557 22.211,106.389 
						20.353,106.389 20.353,109.557 17.007,109.557 17.007,111.314 20.353,111.314 20.353,114.481 					"/>
					<path fill="#221714" d="M22.049,106.541v2.861v0.307h0.322h3.025v1.452h-3.025h-0.322v0.304v2.862h-1.535v-2.862v-0.304h-0.321
						h-3.025v-1.452h3.025h0.321v-0.307v-2.861H22.049z M20.193,109.402h-3.346v2.063h3.346v3.167h2.178v-3.167h3.346v-2.063h-3.346
						v-3.166h-2.178V109.402z"/>
				</g>
			</g>
		</g>
		<g>
			
				<linearGradient id="SVGID_6_" gradientUnits="userSpaceOnUse" x1="-5128.0117" y1="62.7324" x2="-5057.1465" y2="62.7324" gradientTransform="matrix(-1 0 0 1 -3710.6895 0)">
				<stop  offset="0" style="stop-color:#343535"/>
				<stop  offset="0.7778" style="stop-color:#343535"/>
				<stop  offset="0.8835" style="stop-color:#636666"/>
				<stop  offset="1" style="stop-color:#030000"/>
			</linearGradient>
			<rect x="1346.457" y="-0.338" fill="url(#SVGID_6_)" width="70.865" height="126.141"/>
			<g>
				<g>
					<path fill="#B7B6B6" d="M1380.32,15.03c0,3.931,3.385,7.118,7.561,7.118h16.316c4.176,0,7.561-3.188,7.561-7.118l0,0
						c0-3.931-3.385-7.118-7.561-7.118h-16.316C1383.705,7.912,1380.32,11.1,1380.32,15.03L1380.32,15.03z"/>
					<path fill="#0E0D0D" d="M1381.213,14.828c0,3.82,3.291,6.916,7.346,6.916h15.852c4.059,0,7.348-3.096,7.348-6.916l0,0
						c0-3.82-3.289-6.916-7.348-6.916h-15.852C1384.504,7.912,1381.213,11.008,1381.213,14.828L1381.213,14.828z"/>
				</g>
				<g>
					<path fill="#B7B6B6" d="M1380.32,110.435c0,3.931,3.385,7.118,7.561,7.118h16.316c4.176,0,7.561-3.188,7.561-7.118l0,0
						c0-3.931-3.385-7.118-7.561-7.118h-16.316C1383.705,103.316,1380.32,106.504,1380.32,110.435L1380.32,110.435z"/>
					<path fill="#0E0D0D" d="M1381.213,110.232c0,3.82,3.291,6.916,7.346,6.916h15.852c4.059,0,7.348-3.096,7.348-6.916l0,0
						c0-3.82-3.289-6.916-7.348-6.916h-15.852C1384.504,103.316,1381.213,106.412,1381.213,110.232L1381.213,110.232z"/>
				</g>
			</g>
			<g>
				<g>
					<path fill="#AFAEAE" d="M1406.305,15.031c0,5.365-4.596,9.716-10.266,9.716s-10.266-4.351-10.266-9.716
						c0-5.367,4.596-9.718,10.266-9.718S1406.305,9.664,1406.305,15.031"/>
					<ellipse fill="none" stroke="#929292" stroke-miterlimit="10" cx="1396.039" cy="15.031" rx="10.266" ry="9.716"/>
					<path fill="#AFAEAE" d="M1403.582,15.031c0,3.941-3.377,7.139-7.543,7.139s-7.545-3.197-7.545-7.139
						c0-3.943,3.379-7.141,7.545-7.141S1403.582,11.088,1403.582,15.031"/>
					<ellipse fill="none" stroke="#929292" stroke-miterlimit="10" cx="1396.038" cy="15.031" rx="7.544" ry="7.139"/>
					<g>
						<g>
							<defs>
								<rect id="SVGID_7_" x="1388.928" y="8.301" width="14.221" height="13.457"/>
							</defs>
							<clipPath id="SVGID_8_">
								<use xlink:href="#SVGID_7_"  overflow="visible"/>
							</clipPath>
							<path clip-path="url(#SVGID_8_)" fill="#BEBEBD" d="M1403.148,15.031c0,3.715-3.184,6.727-7.109,6.727
								c-3.928,0-7.111-3.012-7.111-6.727c0-3.717,3.184-6.73,7.111-6.73C1399.965,8.301,1403.148,11.314,1403.148,15.031"/>
							<path clip-path="url(#SVGID_8_)" fill="#C0C0C0" d="M1402.98,15.031c0,3.627-3.109,6.569-6.941,6.569
								c-3.834,0-6.941-2.942-6.941-6.569c0-3.629,3.107-6.572,6.941-6.572C1399.871,8.459,1402.98,11.402,1402.98,15.031"/>
							<path clip-path="url(#SVGID_8_)" fill="#C2C3C3" d="M1402.814,15.031c0,3.539-3.035,6.412-6.775,6.412
								c-3.742,0-6.775-2.873-6.775-6.412c0-3.542,3.033-6.413,6.775-6.413C1399.779,8.618,1402.814,11.489,1402.814,15.031"/>
							<path clip-path="url(#SVGID_8_)" fill="#C4C5C4" d="M1402.645,15.031c0,3.453-2.957,6.254-6.605,6.254
								c-3.65,0-6.607-2.801-6.607-6.254c0-3.455,2.957-6.254,6.607-6.254C1399.688,8.777,1402.645,11.576,1402.645,15.031"/>
							<path clip-path="url(#SVGID_8_)" fill="#C6C8C8" d="M1402.479,15.031c0,3.364-2.885,6.096-6.439,6.096
								c-3.557,0-6.441-2.731-6.441-6.096c0-3.367,2.885-6.097,6.441-6.097C1399.594,8.935,1402.479,11.664,1402.479,15.031"/>
							<path clip-path="url(#SVGID_8_)" fill="#C9CACB" d="M1402.311,15.031c0,3.278-2.807,5.936-6.271,5.936
								s-6.273-2.657-6.273-5.936c0-3.279,2.809-5.939,6.273-5.939S1402.311,11.752,1402.311,15.031"/>
							<path clip-path="url(#SVGID_8_)" fill="#CBCDCD" d="M1402.145,15.031c0,3.19-2.734,5.779-6.105,5.779
								c-3.373,0-6.105-2.589-6.105-5.779c0-3.193,2.732-5.781,6.105-5.781C1399.41,9.25,1402.145,11.838,1402.145,15.031"/>
							<path clip-path="url(#SVGID_8_)" fill="#CCCFD0" d="M1401.979,15.031c0,3.104-2.66,5.621-5.939,5.621
								s-5.939-2.518-5.939-5.621c0-3.105,2.66-5.621,5.939-5.621S1401.979,11.926,1401.979,15.031"/>
							<path clip-path="url(#SVGID_8_)" fill="#D0D2D2" d="M1401.811,15.031c0,3.016-2.584,5.462-5.771,5.462
								s-5.771-2.446-5.771-5.462c0-3.018,2.584-5.465,5.771-5.465S1401.811,12.014,1401.811,15.031"/>
							<path clip-path="url(#SVGID_8_)" fill="#D2D4D5" d="M1401.643,15.031c0,2.928-2.51,5.303-5.604,5.303
								c-3.098,0-5.604-2.375-5.604-5.303c0-2.931,2.506-5.305,5.604-5.305C1399.133,9.727,1401.643,12.101,1401.643,15.031"/>
						</g>
					</g>
					<polygon fill="#605F5E" points="1395.109,19.077 1395.109,15.91 1391.764,15.91 1391.764,14.151 1395.109,14.151 
						1395.109,10.984 1396.969,10.984 1396.969,14.151 1400.313,14.151 1400.313,15.91 1396.969,15.91 1396.969,19.077 					"/>
					<path fill="#221714" d="M1396.807,11.137v2.861v0.307h0.32h3.025v1.452h-3.025h-0.32v0.304v2.862h-1.535v-2.862v-0.304h-0.322
						h-3.025v-1.452h3.025h0.322v-0.307v-2.861H1396.807z M1397.127,10.832h-2.178v3.166h-3.346v2.063h3.346v3.167h2.178v-3.167
						h3.348v-2.063h-3.348V10.832z"/>
				</g>
				<g>
					<path fill="#AFAEAE" d="M1406.305,110.436c0,5.365-4.596,9.716-10.266,9.716s-10.266-4.351-10.266-9.716
						c0-5.367,4.596-9.718,10.266-9.718S1406.305,105.068,1406.305,110.436"/>
					<ellipse fill="none" stroke="#929292" stroke-miterlimit="10" cx="1396.039" cy="110.436" rx="10.266" ry="9.716"/>
					<path fill="#AFAEAE" d="M1403.582,110.436c0,3.942-3.377,7.139-7.543,7.139s-7.545-3.196-7.545-7.139
						c0-3.943,3.379-7.141,7.545-7.141S1403.582,106.492,1403.582,110.436"/>
					<ellipse fill="none" stroke="#929292" stroke-miterlimit="10" cx="1396.038" cy="110.436" rx="7.544" ry="7.139"/>
					<g>
						<g>
							<defs>
								<rect id="SVGID_9_" x="1388.928" y="103.705" width="14.221" height="13.458"/>
							</defs>
							<clipPath id="SVGID_10_">
								<use xlink:href="#SVGID_9_"  overflow="visible"/>
							</clipPath>
							<path clip-path="url(#SVGID_10_)" fill="#BEBEBD" d="M1403.148,110.436c0,3.715-3.184,6.728-7.109,6.728
								c-3.928,0-7.111-3.013-7.111-6.728c0-3.717,3.184-6.73,7.111-6.73C1399.965,103.705,1403.148,106.719,1403.148,110.436"/>
							<path clip-path="url(#SVGID_10_)" fill="#C0C0C0" d="M1402.98,110.436c0,3.627-3.109,6.569-6.941,6.569
								c-3.834,0-6.941-2.942-6.941-6.569c0-3.629,3.107-6.572,6.941-6.572C1399.871,103.863,1402.98,106.807,1402.98,110.436"/>
							<path clip-path="url(#SVGID_10_)" fill="#C2C3C3" d="M1402.814,110.436c0,3.54-3.035,6.412-6.775,6.412
								c-3.742,0-6.775-2.872-6.775-6.412c0-3.542,3.033-6.412,6.775-6.412C1399.779,104.023,1402.814,106.894,1402.814,110.436"/>
							<path clip-path="url(#SVGID_10_)" fill="#C4C5C4" d="M1402.645,110.436c0,3.453-2.957,6.253-6.605,6.253
								c-3.65,0-6.607-2.8-6.607-6.253c0-3.455,2.957-6.254,6.607-6.254C1399.688,104.182,1402.645,106.98,1402.645,110.436"/>
							<path clip-path="url(#SVGID_10_)" fill="#C6C8C8" d="M1402.479,110.436c0,3.364-2.885,6.095-6.439,6.095
								c-3.557,0-6.441-2.73-6.441-6.095c0-3.367,2.885-6.098,6.441-6.098C1399.594,104.338,1402.479,107.068,1402.479,110.436"/>
							<path clip-path="url(#SVGID_10_)" fill="#C9CACB" d="M1402.311,110.436c0,3.277-2.807,5.936-6.271,5.936
								s-6.273-2.658-6.273-5.936c0-3.28,2.809-5.938,6.273-5.938S1402.311,107.155,1402.311,110.436"/>
							<path clip-path="url(#SVGID_10_)" fill="#CBCDCD" d="M1402.145,110.436c0,3.19-2.734,5.779-6.105,5.779
								c-3.373,0-6.105-2.589-6.105-5.779c0-3.192,2.732-5.781,6.105-5.781C1399.41,104.654,1402.145,107.243,1402.145,110.436"/>
							<path clip-path="url(#SVGID_10_)" fill="#CCCFD0" d="M1401.979,110.436c0,3.104-2.66,5.621-5.939,5.621
								s-5.939-2.518-5.939-5.621c0-3.105,2.66-5.621,5.939-5.621S1401.979,107.33,1401.979,110.436"/>
							<path clip-path="url(#SVGID_10_)" fill="#D0D2D2" d="M1401.811,110.436c0,3.016-2.584,5.462-5.771,5.462
								s-5.771-2.446-5.771-5.462c0-3.018,2.584-5.465,5.771-5.465S1401.811,107.418,1401.811,110.436"/>
							<path clip-path="url(#SVGID_10_)" fill="#D2D4D5" d="M1401.643,110.436c0,2.928-2.51,5.303-5.604,5.303
								c-3.098,0-5.604-2.375-5.604-5.303c0-2.931,2.506-5.305,5.604-5.305C1399.133,105.131,1401.643,107.505,1401.643,110.436"/>
						</g>
					</g>
					<polygon fill="#605F5E" points="1395.109,114.481 1395.109,111.314 1391.764,111.314 1391.764,109.557 1395.109,109.557 
						1395.109,106.389 1396.969,106.389 1396.969,109.557 1400.313,109.557 1400.313,111.314 1396.969,111.314 1396.969,114.481 
											"/>
					<path fill="#221714" d="M1396.807,106.541v2.861v0.307h0.32h3.025v1.452h-3.025h-0.32v0.304v2.862h-1.535v-2.862v-0.304h-0.322
						h-3.025v-1.452h3.025h0.322v-0.307v-2.861H1396.807z M1397.127,106.236h-2.178v3.166h-3.346v2.063h3.346v3.167h2.178v-3.167
						h3.348v-2.063h-3.348V106.236z"/>
				</g>
			</g>
		</g>
		<g>
			<path fill="#335872" stroke="#141414" stroke-miterlimit="10" d="M1136.764,87.995c0,8.65-7.012,15.662-15.662,15.662l0,0
				c-8.649,0-15.662-7.012-15.662-15.662V37.47c0-8.648,7.013-15.662,15.662-15.662l0,0c8.65,0,15.662,7.014,15.662,15.662V87.995z"
				/>
			<rect x="1105.439" y="40.47" fill="#39627A" width="31.324" height="44.397"/>
			<rect x="1105.439" y="84.867" fill="#253F4C" width="31.324" height="0.889"/>
			<rect x="1108.412" y="43.256" fill="#253F4C" width="24.666" height="19.412"/>
			<rect x="1108.412" y="64.343" fill="#253F4C" width="24.666" height="19.412"/>
			<g>
				<circle fill="#CAD8DD" cx="1120.745" cy="52.962" r="9.706"/>
				<circle fill="#212121" cx="1120.745" cy="52.962" r="6.456"/>
			</g>
			<g>
				<circle fill="#CAD8DD" cx="1120.745" cy="74.049" r="9.706"/>
				<circle fill="#212121" cx="1120.745" cy="74.049" r="6.456"/>
			</g>
		</g>
		<g>
			<path fill="#335872" stroke="#141414" stroke-miterlimit="10" d="M1072.047,87.995c0,8.65-7.014,15.662-15.662,15.662l0,0
				c-8.65,0-15.663-7.012-15.663-15.662V37.47c0-8.648,7.013-15.662,15.663-15.662l0,0c8.648,0,15.662,7.014,15.662,15.662V87.995z"
				/>
			<rect x="1040.722" y="40.47" fill="#39627A" width="31.325" height="44.397"/>
			<rect x="1040.722" y="84.867" fill="#253F4C" width="31.325" height="0.889"/>
			<rect x="1043.693" y="43.256" fill="#253F4C" width="24.668" height="19.412"/>
			<rect x="1043.693" y="64.343" fill="#253F4C" width="24.668" height="19.412"/>
			<g>
				<circle fill="#CAD8DD" cx="1056.026" cy="52.962" r="9.706"/>
				<circle fill="#212121" cx="1056.026" cy="52.962" r="6.456"/>
			</g>
			<g>
				<circle fill="#CAD8DD" cx="1056.026" cy="74.049" r="9.706"/>
				<circle fill="#212121" cx="1056.026" cy="74.049" r="6.456"/>
			</g>
		</g>
		<g>
			<path fill="#335872" stroke="#141414" stroke-miterlimit="10" d="M1007.328,87.995c0,8.65-7.013,15.662-15.662,15.662l0,0
				c-8.65,0-15.662-7.012-15.662-15.662V37.47c0-8.648,7.012-15.662,15.662-15.662l0,0c8.649,0,15.662,7.014,15.662,15.662V87.995z"
				/>
			<rect x="976.004" y="40.47" fill="#39627A" width="31.324" height="44.397"/>
			<rect x="976.004" y="84.867" fill="#253F4C" width="31.324" height="0.889"/>
			<rect x="978.975" y="43.256" fill="#253F4C" width="24.668" height="19.412"/>
			<rect x="978.975" y="64.343" fill="#253F4C" width="24.668" height="19.412"/>
			<g>
				<circle fill="#CAD8DD" cx="991.309" cy="52.962" r="9.706"/>
				<circle fill="#212121" cx="991.31" cy="52.962" r="6.456"/>
			</g>
			<g>
				<circle fill="#CAD8DD" cx="991.309" cy="74.049" r="9.706"/>
				<circle fill="#212121" cx="991.31" cy="74.049" r="6.456"/>
			</g>
		</g>
		<g>
			<path fill="#335872" stroke="#141414" stroke-miterlimit="10" d="M942.609,87.995c0,8.65-7.012,15.662-15.662,15.662l0,0
				c-8.648,0-15.662-7.012-15.662-15.662V37.47c0-8.648,7.014-15.662,15.662-15.662l0,0c8.65,0,15.662,7.014,15.662,15.662V87.995z"
				/>
			<rect x="911.285" y="40.47" fill="#39627A" width="31.324" height="44.397"/>
			<rect x="911.285" y="84.867" fill="#253F4C" width="31.324" height="0.889"/>
			<rect x="914.258" y="43.256" fill="#253F4C" width="24.666" height="19.412"/>
			<rect x="914.258" y="64.343" fill="#253F4C" width="24.666" height="19.412"/>
			<g>
				<circle fill="#CAD8DD" cx="926.591" cy="52.962" r="9.706"/>
				<circle fill="#212121" cx="926.591" cy="52.962" r="6.456"/>
			</g>
			<g>
				<circle fill="#CAD8DD" cx="926.591" cy="74.049" r="9.706"/>
				<circle fill="#212121" cx="926.591" cy="74.049" r="6.456"/>
			</g>
		</g>
		<g>
			<path fill="#335872" stroke="#141414" stroke-miterlimit="10" d="M326.241,87.995c0,8.65-7.012,15.662-15.662,15.662l0,0
				c-8.65,0-15.662-7.012-15.662-15.662V37.47c0-8.648,7.012-15.662,15.662-15.662l0,0c8.65,0,15.662,7.014,15.662,15.662V87.995z"
				/>
			<rect x="294.917" y="40.47" fill="#39627A" width="31.324" height="44.397"/>
			<rect x="294.917" y="84.867" fill="#253F4C" width="31.324" height="0.889"/>
			<rect x="297.888" y="43.256" fill="#253F4C" width="24.667" height="19.412"/>
			<rect x="297.888" y="64.343" fill="#253F4C" width="24.667" height="19.412"/>
			<g>
				<circle fill="#CAD8DD" cx="310.222" cy="52.962" r="9.706"/>
				<circle fill="#212121" cx="310.222" cy="52.962" r="6.456"/>
			</g>
			<g>
				<circle fill="#CAD8DD" cx="310.222" cy="74.049" r="9.706"/>
				<circle fill="#212121" cx="310.222" cy="74.049" r="6.456"/>
			</g>
		</g>
		
			<text transform="matrix(0.9861 0 0 1 337.3613 74.0488)" fill="#FFFFFF" font-family="'NotoSansHans-Light-GBpc-EUC-H'" font-size="34.9326">IOEG   DWDM   8C   DEMUX   MODULF</text>
		
			<text transform="matrix(0.9861 0 0 1 914.1797 17.0767)" fill="#FFFFFF" font-family="'NotoSansHans-Light-GBpc-EUC-H'" font-size="11.4366">CH21  </text>
		
			<text transform="matrix(0.9861 0 0 1 978.7168 17.0767)" fill="#FFFFFF" font-family="'NotoSansHans-Light-GBpc-EUC-H'" font-size="11.4366">CH22  </text>
		
			<text transform="matrix(0.9861 0 0 1 1043.2529 17.0767)" fill="#FFFFFF" font-family="'NotoSansHans-Light-GBpc-EUC-H'" font-size="11.4366">CH23  </text>
		
			<text transform="matrix(0.9861 0 0 1 1107.7891 17.0767)" fill="#FFFFFF" font-family="'NotoSansHans-Light-GBpc-EUC-H'" font-size="11.4366">CH24  </text>
		
			<text transform="matrix(0.9861 0 0 1 913.5703 114.4805)" fill="#FFFFFF" font-family="'NotoSansHans-Light-GBpc-EUC-H'" font-size="11.4366">CH25  </text>
		
			<text transform="matrix(0.9861 0 0 1 978.1064 114.4805)" fill="#FFFFFF" font-family="'NotoSansHans-Light-GBpc-EUC-H'" font-size="11.4366">CH26  </text>
		
			<text transform="matrix(0.9861 0 0 1 1042.6436 114.4805)" fill="#FFFFFF" font-family="'NotoSansHans-Light-GBpc-EUC-H'" font-size="11.4366">CH27  </text>
		
			<text transform="matrix(0.9861 0 0 1 1107.1797 114.4805)" fill="#FFFFFF" font-family="'NotoSansHans-Light-GBpc-EUC-H'" font-size="11.4366">CH28 </text>
	</g>
</g>
</svg>
