<?xml version="1.0" encoding="utf-8"?>
<!-- Generator: Adobe Illustrator 21.0.0, SVG Export Plug-In . SVG Version: 6.00 Build 0)  -->
<svg version="1.1" id="图层_1" xmlns="http://www.w3.org/2000/svg" xmlns:xlink="http://www.w3.org/1999/xlink" x="0px" y="0px"
	 width="1275px" height="252.1px" viewBox="0 0 1275 252.1" enable-background="new 0 0 1275 252.1" xml:space="preserve">
<linearGradient id="SVGID_1_" gradientUnits="userSpaceOnUse" x1="255.6135" y1="507.8329" x2="1019.3472" y2="-255.9008">
	<stop  offset="1.799470e-02" style="stop-color:#F6F6F6"/>
	<stop  offset="0.2183" style="stop-color:#EDEDEE"/>
	<stop  offset="0.4839" style="stop-color:#C7C8C9"/>
	<stop  offset="0.7022" style="stop-color:#EDEDEE"/>
	<stop  offset="0.8333" style="stop-color:#C7C8C9"/>
	<stop  offset="0.9817" style="stop-color:#EDEDEE"/>
</linearGradient>
<rect x="-0.1" y="-0.2" fill="url(#SVGID_1_)" width="1275.2" height="252.3"/>
<linearGradient id="SVGID_2_" gradientUnits="userSpaceOnUse" x1="-369.8177" y1="14.3242" x2="-369.8177" y2="1.537046e-09" gradientTransform="matrix(-1 0 0 1 267.6722 0)">
	<stop  offset="0" style="stop-color:#343535"/>
	<stop  offset="0.1847" style="stop-color:#F6F6F6"/>
	<stop  offset="0.4839" style="stop-color:#C7C8C9"/>
	<stop  offset="0.8419" style="stop-color:#EDEDEE"/>
</linearGradient>
<rect x="0" y="0" fill="url(#SVGID_2_)" width="1275" height="14.3"/>
<linearGradient id="SVGID_3_" gradientUnits="userSpaceOnUse" x1="2033.2094" y1="13369.7549" x2="2033.2094" y2="13359.9248" gradientTransform="matrix(-1 0 0 -1 2671.0967 13612.042)">
	<stop  offset="0" style="stop-color:#717071"/>
	<stop  offset="6.826586e-02" style="stop-color:#FFFFFF"/>
	<stop  offset="0.1072" style="stop-color:#F7F7F7"/>
	<stop  offset="0.1681" style="stop-color:#E1E2E2"/>
	<stop  offset="0.2428" style="stop-color:#BDBFC0"/>
	<stop  offset="0.2767" style="stop-color:#AAADAE"/>
	<stop  offset="0.7149" style="stop-color:#AAADAE"/>
	<stop  offset="0.9306" style="stop-color:#FFFFFF"/>
	<stop  offset="1" style="stop-color:#717071"/>
</linearGradient>
<rect x="0.3" y="242.3" fill="url(#SVGID_3_)" width="1275.2" height="9.8"/>
<linearGradient id="SVGID_4_" gradientUnits="userSpaceOnUse" x1="0.3883" y1="128.3243" x2="10.3851" y2="128.3243">
	<stop  offset="0" style="stop-color:#343535"/>
	<stop  offset="0.1847" style="stop-color:#F6F6F6"/>
	<stop  offset="0.4839" style="stop-color:#C7C8C9"/>
	<stop  offset="0.8419" style="stop-color:#EDEDEE"/>
</linearGradient>
<rect x="0.4" y="14.3" fill="url(#SVGID_4_)" width="10" height="228"/>
<linearGradient id="SVGID_5_" gradientUnits="userSpaceOnUse" x1="12804.873" y1="797.4484" x2="12814.8701" y2="797.4484" gradientTransform="matrix(-1 0 0 -1 14079.8555 925.7728)">
	<stop  offset="0" style="stop-color:#343535"/>
	<stop  offset="0.1847" style="stop-color:#F6F6F6"/>
	<stop  offset="0.4839" style="stop-color:#C7C8C9"/>
	<stop  offset="0.8419" style="stop-color:#EDEDEE"/>
</linearGradient>
<polygon fill="url(#SVGID_5_)" points="1265,14.3 1275,14.3 1275,242.3 1265,242.3 "/>
<linearGradient id="SVGID_6_" gradientUnits="userSpaceOnUse" x1="15157.9697" y1="20437.4199" x2="15157.9697" y2="20209.3379" gradientTransform="matrix(1 0 0 1 -14782.5303 -20195.0137)">
	<stop  offset="0" style="stop-color:#717071"/>
	<stop  offset="3.763440e-02" style="stop-color:#FFFFFF"/>
	<stop  offset="6.451650e-02" style="stop-color:#B0B3B4"/>
	<stop  offset="0.8817" style="stop-color:#D4D4D4"/>
	<stop  offset="0.9462" style="stop-color:#FFFFFF"/>
	<stop  offset="0.957" style="stop-color:#B0B3B4"/>
	<stop  offset="0.9892" style="stop-color:#717071"/>
</linearGradient>
<rect x="113.7" y="14.3" fill="url(#SVGID_6_)" stroke="#0F0F0F" stroke-width="2" stroke-miterlimit="10" width="523.5" height="228.1"/>
<g>
	<g>
		
			<linearGradient id="SVGID_7_" gradientUnits="userSpaceOnUse" x1="14844.0674" y1="20437.4199" x2="14844.0674" y2="20209.3379" gradientTransform="matrix(1 0 0 1 -14782.5303 -20195.0137)">
			<stop  offset="0" style="stop-color:#717071"/>
			<stop  offset="3.763440e-02" style="stop-color:#FFFFFF"/>
			<stop  offset="6.451650e-02" style="stop-color:#B0B3B4"/>
			<stop  offset="0.8817" style="stop-color:#D4D4D4"/>
			<stop  offset="0.9462" style="stop-color:#FFFFFF"/>
			<stop  offset="0.957" style="stop-color:#B0B3B4"/>
			<stop  offset="0.9892" style="stop-color:#717071"/>
		</linearGradient>
		
			<rect x="9.4" y="14.3" fill="url(#SVGID_7_)" stroke="#0F0F0F" stroke-width="2" stroke-miterlimit="10" width="104.3" height="228.1"/>
		<g>
			<path fill="#3D3A39" d="M29.3,40.6c0-1.3,1.2-2.3,2.6-2.3h60.3c1.4,0,2.6,1,2.6,2.3v40.7c0,1.3-1.2,2.3-2.6,2.3H31.9
				c-1.4,0-2.6-1-2.6-2.3V40.6z"/>
			<path fill="none" stroke="#000000" stroke-width="2" stroke-miterlimit="10" d="M29.3,40.6c0-1.3,1.2-2.3,2.6-2.3h60.3
				c1.4,0,2.6,1,2.6,2.3v40.7c0,1.3-1.2,2.3-2.6,2.3H31.9c-1.4,0-2.6-1-2.6-2.3V40.6z"/>
			<polygon fill="#221714" points="84.6,46 84.6,68.4 76.1,75.9 47.7,75.9 39.4,68.1 39.4,46 			"/>
			<rect x="48.8" y="54.2" fill="#353741" width="2.9" height="8.5"/>
			<rect x="50.2" y="54.2" fill="#8A8E98" width="1.4" height="7"/>
			<rect x="61.2" y="59.5" fill="#353741" width="2.9" height="8.5"/>
			<rect x="62.7" y="59.5" fill="#8A8E98" width="1.4" height="7"/>
			<rect x="73.7" y="54.2" fill="#353741" width="2.9" height="8.5"/>
			<rect x="75.1" y="54.2" fill="#8A8E98" width="1.4" height="7"/>
		</g>
		
			<radialGradient id="SVGID_8_" cx="10589.9756" cy="-137.9081" r="5.9333" gradientTransform="matrix(0 0.9627 -1.1537 0 -105.8183 -10099.3848)" gradientUnits="userSpaceOnUse">
			<stop  offset="0" style="stop-color:#FFFFFF"/>
			<stop  offset="1" style="stop-color:#2EED00"/>
		</radialGradient>
		<ellipse fill="url(#SVGID_8_)" stroke="#030000" stroke-miterlimit="10" cx="53.3" cy="95.9" rx="5.9" ry="5.7"/>
		
			<radialGradient id="SVGID_10_" cx="10589.9756" cy="-156.729" r="5.9333" gradientTransform="matrix(0 0.9627 -1.1537 0 -108.9168 -10099.3848)" gradientUnits="userSpaceOnUse">
			<stop  offset="0" style="stop-color:#FFFFFF"/>
			<stop  offset="1" style="stop-color:#02DEFB"/>
		</radialGradient>
		<ellipse fill="url(#SVGID_10_)" stroke="#030000" stroke-miterlimit="10" cx="71.9" cy="95.9" rx="5.9" ry="5.7"/>
	</g>
	<rect x="34.6" y="19.9" fill="#EA8000" width="55.1" height="13.9"/>
	<rect x="34.6" y="19.9" fill="#F4B037" width="55.1" height="4.2"/>
	<rect x="34.6" y="30.2" fill="#F4B037" width="55.1" height="4.2"/>
	<g>
		<polygon fill="#080808" points="16.5,127.8 16.5,134.8 22.8,138.2 29.1,134.8 29.1,127.8 22.8,124.4 		"/>
		<polygon fill="#080808" points="31.4,127.8 31.4,134.8 37.7,138.2 44,134.8 44,127.8 37.7,124.4 		"/>
		<polygon fill="#080808" points="46.4,127.8 46.4,134.8 52.7,138.2 59,134.8 59,127.8 52.7,124.4 		"/>
		<polygon fill="#080808" points="24,114.6 24,121.6 30.3,125 36.5,121.6 36.5,114.6 30.3,111.2 		"/>
		<polygon fill="#080808" points="38.9,114.6 38.9,121.6 45.2,125 51.5,121.6 51.5,114.6 45.2,111.2 		"/>
		<polygon fill="#080808" points="53.6,114.6 53.6,121.6 59.9,125 66.2,121.6 66.2,114.6 59.9,111.2 		"/>
	</g>
	<g>
		<polygon fill="#080808" points="61.5,127.8 61.5,134.8 67.8,138.2 74,134.8 74,127.8 67.8,124.4 		"/>
		<polygon fill="#080808" points="76.4,127.8 76.4,134.8 82.7,138.2 89,134.8 89,127.8 82.7,124.4 		"/>
		<polygon fill="#080808" points="91.4,127.8 91.4,134.8 97.6,138.2 103.9,134.8 103.9,127.8 97.6,124.4 		"/>
		<polygon fill="#080808" points="69,114.6 69,121.6 75.2,125 81.5,121.6 81.5,114.6 75.2,111.2 		"/>
		<polygon fill="#080808" points="83.9,114.6 83.9,121.6 90.2,125 96.5,121.6 96.5,114.6 90.2,111.2 		"/>
	</g>
	<g>
		<polygon fill="#080808" points="16.5,154.8 16.5,161.7 22.8,165.1 29.1,161.7 29.1,154.8 22.8,151.3 		"/>
		<polygon fill="#080808" points="31.4,154.8 31.4,161.7 37.7,165.1 44,161.7 44,154.8 37.7,151.3 		"/>
		<polygon fill="#080808" points="46.4,154.8 46.4,161.7 52.7,165.1 59,161.7 59,154.8 52.7,151.3 		"/>
		<polygon fill="#080808" points="24,141.6 24,148.5 30.3,151.9 36.5,148.5 36.5,141.6 30.3,138.1 		"/>
		<polygon fill="#080808" points="38.9,141.6 38.9,148.5 45.2,151.9 51.5,148.5 51.5,141.6 45.2,138.1 		"/>
		<polygon fill="#080808" points="53.6,141.6 53.6,148.5 59.9,151.9 66.2,148.5 66.2,141.6 59.9,138.1 		"/>
	</g>
	<g>
		<polygon fill="#080808" points="61.5,154.8 61.5,161.7 67.8,165.1 74,161.7 74,154.8 67.8,151.3 		"/>
		<polygon fill="#080808" points="76.4,154.8 76.4,161.7 82.7,165.1 89,161.7 89,154.8 82.7,151.3 		"/>
		<polygon fill="#080808" points="91.4,154.8 91.4,161.7 97.6,165.1 103.9,161.7 103.9,154.8 97.6,151.3 		"/>
		<polygon fill="#080808" points="69,141.6 69,148.5 75.2,151.9 81.5,148.5 81.5,141.6 75.2,138.1 		"/>
		<polygon fill="#080808" points="83.9,141.6 83.9,148.5 90.2,151.9 96.5,148.5 96.5,141.6 90.2,138.1 		"/>
	</g>
	<g>
		<polygon fill="#080808" points="16.5,181.7 16.5,188.6 22.8,192.1 29.1,188.6 29.1,181.7 22.8,178.2 		"/>
		<polygon fill="#080808" points="31.4,181.7 31.4,188.6 37.7,192.1 44,188.6 44,181.7 37.7,178.2 		"/>
		<polygon fill="#080808" points="46.4,181.7 46.4,188.6 52.7,192.1 59,188.6 59,181.7 52.7,178.2 		"/>
		<polygon fill="#080808" points="24,168.5 24,175.4 30.3,178.9 36.5,175.4 36.5,168.5 30.3,165 		"/>
		<polygon fill="#080808" points="38.9,168.5 38.9,175.4 45.2,178.9 51.5,175.4 51.5,168.5 45.2,165 		"/>
		<polygon fill="#080808" points="53.6,168.5 53.6,175.4 59.9,178.9 66.2,175.4 66.2,168.5 59.9,165 		"/>
	</g>
	<g>
		<polygon fill="#080808" points="61.5,181.7 61.5,188.6 67.8,192.1 74,188.6 74,181.7 67.8,178.2 		"/>
		<polygon fill="#080808" points="76.4,181.7 76.4,188.6 82.7,192.1 89,188.6 89,181.7 82.7,178.2 		"/>
		<polygon fill="#080808" points="91.4,181.7 91.4,188.6 97.6,192.1 103.9,188.6 103.9,181.7 97.6,178.2 		"/>
		<polygon fill="#080808" points="69,168.5 69,175.4 75.2,178.9 81.5,175.4 81.5,168.5 75.2,165 		"/>
		<polygon fill="#080808" points="83.9,168.5 83.9,175.4 90.2,178.9 96.5,175.4 96.5,168.5 90.2,165 		"/>
	</g>
	<g>
		<polygon fill="#080808" points="16.5,208.6 16.5,215.5 22.8,219 29.1,215.5 29.1,208.6 22.8,205.2 		"/>
		<polygon fill="#080808" points="31.4,208.6 31.4,215.5 37.7,219 44,215.5 44,208.6 37.7,205.2 		"/>
		<polygon fill="#080808" points="46.4,208.6 46.4,215.5 52.7,219 59,215.5 59,208.6 52.7,205.2 		"/>
		<polygon fill="#080808" points="24,195.4 24,202.3 30.3,205.8 36.5,202.3 36.5,195.4 30.3,192 		"/>
		<polygon fill="#080808" points="38.9,195.4 38.9,202.3 45.2,205.8 51.5,202.3 51.5,195.4 45.2,192 		"/>
		<polygon fill="#080808" points="53.6,195.4 53.6,202.3 59.9,205.8 66.2,202.3 66.2,195.4 59.9,192 		"/>
	</g>
	<g>
		<polygon fill="#080808" points="61.5,208.6 61.5,215.5 67.8,219 74,215.5 74,208.6 67.8,205.2 		"/>
		<polygon fill="#080808" points="76.4,208.6 76.4,215.5 82.7,219 89,215.5 89,208.6 82.7,205.2 		"/>
		<polygon fill="#080808" points="91.4,208.6 91.4,215.5 97.6,219 103.9,215.5 103.9,208.6 97.6,205.2 		"/>
		<polygon fill="#080808" points="69,195.4 69,202.3 75.2,205.8 81.5,202.3 81.5,195.4 75.2,192 		"/>
		<polygon fill="#080808" points="83.9,195.4 83.9,202.3 90.2,205.8 96.5,202.3 96.5,195.4 90.2,192 		"/>
	</g>
</g>
<g>
	
		<linearGradient id="SVGID_12_" gradientUnits="userSpaceOnUse" x1="5219.5811" y1="4063.2742" x2="5311.5811" y2="4063.2742" gradientTransform="matrix(0 1 1 0 -3908.0122 -5187.2568)">
		<stop  offset="0" style="stop-color:#717071"/>
		<stop  offset="1.633622e-02" style="stop-color:#FFFFFF"/>
		<stop  offset="3.310859e-02" style="stop-color:#A1A4A5"/>
		<stop  offset="0.9527" style="stop-color:#C5C5C5"/>
		<stop  offset="0.9655" style="stop-color:#C5C5C5"/>
		<stop  offset="0.9903" style="stop-color:#FFFFFF"/>
		<stop  offset="1" style="stop-color:#717071"/>
	</linearGradient>
	<rect x="133" y="32.3" fill="url(#SVGID_12_)" width="44.4" height="92"/>
</g>
<g>
	
		<linearGradient id="SVGID_13_" gradientUnits="userSpaceOnUse" x1="5219.5811" y1="4120.9917" x2="5311.5811" y2="4120.9917" gradientTransform="matrix(0 1 1 0 -3908.0122 -5187.2568)">
		<stop  offset="0" style="stop-color:#717071"/>
		<stop  offset="1.633622e-02" style="stop-color:#FFFFFF"/>
		<stop  offset="3.310859e-02" style="stop-color:#A1A4A5"/>
		<stop  offset="0.9527" style="stop-color:#C5C5C5"/>
		<stop  offset="0.9655" style="stop-color:#C5C5C5"/>
		<stop  offset="0.9903" style="stop-color:#FFFFFF"/>
		<stop  offset="1" style="stop-color:#717071"/>
	</linearGradient>
	<rect x="190.8" y="32.3" fill="url(#SVGID_13_)" width="44.4" height="92"/>
</g>
<rect x="250.4" y="34.3" fill="#383838" width="189.4" height="90"/>
<g>
	<g>
		
			<linearGradient id="SVGID_15_" gradientUnits="userSpaceOnUse" x1="12499.2598" y1="8256.2637" x2="12514.7227" y2="8256.2637" gradientTransform="matrix(0 1 1 0 -7877.0122 -12432.2568)">
			<stop  offset="0" style="stop-color:#717071"/>
			<stop  offset="1.633622e-02" style="stop-color:#FFFFFF"/>
			<stop  offset="4.017573e-02" style="stop-color:#A1A4A5"/>
			<stop  offset="0.9527" style="stop-color:#C5C5C5"/>
			<stop  offset="0.9797" style="stop-color:#FFFFFF"/>
			<stop  offset="1" style="stop-color:#717071"/>
		</linearGradient>
		<rect x="360.4" y="67" fill="url(#SVGID_15_)" width="37.6" height="15.5"/>
	</g>
	<g>
		<rect x="363.1" y="70.2" fill="#1C1D20" width="32.1" height="9.5"/>
		<rect x="375.7" y="70.2" fill="#AAAAAD" width="6.8" height="0.5"/>
		<rect x="366.8" y="72.3" fill="#5A5B55" width="24.6" height="2.6"/>
		<rect x="363.1" y="70.2" fill="#AAAAAD" width="2.1" height="1"/>
		<rect x="393.1" y="70.2" fill="#AAAAAD" width="2.1" height="1"/>
	</g>
</g>
<g>
	<g>
		
			<linearGradient id="SVGID_16_" gradientUnits="userSpaceOnUse" x1="12479.2598" y1="8256.2637" x2="12494.7227" y2="8256.2637" gradientTransform="matrix(0 1 1 0 -7877.0122 -12432.2568)">
			<stop  offset="0" style="stop-color:#717071"/>
			<stop  offset="1.633622e-02" style="stop-color:#FFFFFF"/>
			<stop  offset="4.017573e-02" style="stop-color:#A1A4A5"/>
			<stop  offset="0.9527" style="stop-color:#C5C5C5"/>
			<stop  offset="0.9797" style="stop-color:#FFFFFF"/>
			<stop  offset="1" style="stop-color:#717071"/>
		</linearGradient>
		<rect x="360.4" y="47" fill="url(#SVGID_16_)" width="37.6" height="15.5"/>
	</g>
	<g>
		<rect x="363.1" y="50.2" fill="#1C1D20" width="32.1" height="9.5"/>
		<rect x="375.7" y="50.2" fill="#AAAAAD" width="6.8" height="0.5"/>
		<rect x="366.8" y="52.3" fill="#5A5B55" width="24.6" height="2.6"/>
		<rect x="363.1" y="50.2" fill="#AAAAAD" width="2.1" height="1"/>
		<rect x="393.1" y="50.2" fill="#AAAAAD" width="2.1" height="1"/>
	</g>
</g>
<g>
	<g>
		<polygon fill="#080808" points="141.6,137.4 134.6,137.4 131.1,143.3 134.6,149.2 141.6,149.2 145.1,143.3 		"/>
		<polygon fill="#080808" points="141.6,151.5 134.6,151.5 131.1,157.4 134.6,163.3 141.6,163.3 145.1,157.4 		"/>
		<polygon fill="#080808" points="141.6,165.5 134.6,165.5 131.1,171.4 134.6,177.3 141.6,177.3 145.1,171.4 		"/>
		<polygon fill="#080808" points="141.6,179.4 134.6,179.4 131.1,185.3 134.6,191.2 141.6,191.2 145.1,185.3 		"/>
		<polygon fill="#080808" points="141.6,193.5 134.6,193.5 131.1,199.4 134.6,205.3 141.6,205.3 145.1,199.4 		"/>
		<polygon fill="#080808" points="141.6,207.5 134.6,207.5 131.1,213.4 134.6,219.3 141.6,219.3 145.1,213.4 		"/>
	</g>
	<g>
		<polygon fill="#080808" points="154.7,130.4 147.8,130.4 144.3,136.3 147.8,142.2 154.7,142.2 158.2,136.3 		"/>
		<polygon fill="#080808" points="154.7,144.5 147.8,144.5 144.3,150.4 147.8,156.3 154.7,156.3 158.2,150.4 		"/>
		<polygon fill="#080808" points="154.7,158.5 147.8,158.5 144.3,164.4 147.8,170.3 154.7,170.3 158.2,164.4 		"/>
		<polygon fill="#080808" points="154.7,172.4 147.8,172.4 144.3,178.3 147.8,184.2 154.7,184.2 158.2,178.3 		"/>
		<polygon fill="#080808" points="154.7,186.5 147.8,186.5 144.3,192.4 147.8,198.3 154.7,198.3 158.2,192.4 		"/>
		<polygon fill="#080808" points="154.7,200.5 147.8,200.5 144.3,206.4 147.8,212.3 154.7,212.3 158.2,206.4 		"/>
		<polygon fill="#080808" points="154.7,214.5 147.8,214.5 144.3,220.4 147.8,226.3 154.7,226.3 158.2,220.4 		"/>
	</g>
</g>
<g>
	<g>
		<polygon fill="#080808" points="167.9,137.4 160.9,137.4 157.5,143.3 160.9,149.2 167.9,149.2 171.4,143.3 		"/>
		<polygon fill="#080808" points="167.9,151.5 160.9,151.5 157.5,157.4 160.9,163.3 167.9,163.3 171.4,157.4 		"/>
		<polygon fill="#080808" points="167.9,165.5 160.9,165.5 157.5,171.4 160.9,177.3 167.9,177.3 171.4,171.4 		"/>
		<polygon fill="#080808" points="167.9,179.4 160.9,179.4 157.5,185.3 160.9,191.2 167.9,191.2 171.4,185.3 		"/>
		<polygon fill="#080808" points="167.9,193.5 160.9,193.5 157.5,199.4 160.9,205.3 167.9,205.3 171.4,199.4 		"/>
		<polygon fill="#080808" points="167.9,207.5 160.9,207.5 157.5,213.4 160.9,219.3 167.9,219.3 171.4,213.4 		"/>
	</g>
	<g>
		<polygon fill="#080808" points="181.1,130.4 174.1,130.4 170.6,136.3 174.1,142.2 181.1,142.2 184.6,136.3 		"/>
		<polygon fill="#080808" points="181.1,144.5 174.1,144.5 170.6,150.4 174.1,156.3 181.1,156.3 184.6,150.4 		"/>
		<polygon fill="#080808" points="181.1,158.5 174.1,158.5 170.6,164.4 174.1,170.3 181.1,170.3 184.6,164.4 		"/>
		<polygon fill="#080808" points="181.1,172.4 174.1,172.4 170.6,178.3 174.1,184.2 181.1,184.2 184.6,178.3 		"/>
		<polygon fill="#080808" points="181.1,186.5 174.1,186.5 170.6,192.4 174.1,198.3 181.1,198.3 184.6,192.4 		"/>
		<polygon fill="#080808" points="181.1,200.5 174.1,200.5 170.6,206.4 174.1,212.3 181.1,212.3 184.6,206.4 		"/>
		<polygon fill="#080808" points="181.1,214.5 174.1,214.5 170.6,220.4 174.1,226.3 181.1,226.3 184.6,220.4 		"/>
	</g>
</g>
<g>
	<g>
		<polygon fill="#080808" points="194.2,137.4 187.3,137.4 183.8,143.3 187.3,149.2 194.2,149.2 197.7,143.3 		"/>
		<polygon fill="#080808" points="194.2,151.5 187.3,151.5 183.8,157.4 187.3,163.3 194.2,163.3 197.7,157.4 		"/>
		<polygon fill="#080808" points="194.2,165.5 187.3,165.5 183.8,171.4 187.3,177.3 194.2,177.3 197.7,171.4 		"/>
		<polygon fill="#080808" points="194.2,179.4 187.3,179.4 183.8,185.3 187.3,191.2 194.2,191.2 197.7,185.3 		"/>
		<polygon fill="#080808" points="194.2,193.5 187.3,193.5 183.8,199.4 187.3,205.3 194.2,205.3 197.7,199.4 		"/>
		<polygon fill="#080808" points="194.2,207.5 187.3,207.5 183.8,213.4 187.3,219.3 194.2,219.3 197.7,213.4 		"/>
	</g>
	<g>
		<polygon fill="#080808" points="207.4,130.4 200.4,130.4 196.9,136.3 200.4,142.2 207.4,142.2 210.9,136.3 		"/>
		<polygon fill="#080808" points="207.4,144.5 200.4,144.5 196.9,150.4 200.4,156.3 207.4,156.3 210.9,150.4 		"/>
		<polygon fill="#080808" points="207.4,158.5 200.4,158.5 196.9,164.4 200.4,170.3 207.4,170.3 210.9,164.4 		"/>
		<polygon fill="#080808" points="207.4,172.4 200.4,172.4 196.9,178.3 200.4,184.2 207.4,184.2 210.9,178.3 		"/>
		<polygon fill="#080808" points="207.4,186.5 200.4,186.5 196.9,192.4 200.4,198.3 207.4,198.3 210.9,192.4 		"/>
		<polygon fill="#080808" points="207.4,200.5 200.4,200.5 196.9,206.4 200.4,212.3 207.4,212.3 210.9,206.4 		"/>
		<polygon fill="#080808" points="207.4,214.5 200.4,214.5 196.9,220.4 200.4,226.3 207.4,226.3 210.9,220.4 		"/>
	</g>
</g>
<g>
	<g>
		<polygon fill="#080808" points="220.6,137.4 213.6,137.4 210.1,143.3 213.6,149.2 220.6,149.2 224.1,143.3 		"/>
		<polygon fill="#080808" points="220.6,151.5 213.6,151.5 210.1,157.4 213.6,163.3 220.6,163.3 224.1,157.4 		"/>
		<polygon fill="#080808" points="220.6,165.5 213.6,165.5 210.1,171.4 213.6,177.3 220.6,177.3 224.1,171.4 		"/>
		<polygon fill="#080808" points="220.6,179.4 213.6,179.4 210.1,185.3 213.6,191.2 220.6,191.2 224.1,185.3 		"/>
		<polygon fill="#080808" points="220.6,193.5 213.6,193.5 210.1,199.4 213.6,205.3 220.6,205.3 224.1,199.4 		"/>
		<polygon fill="#080808" points="220.6,207.5 213.6,207.5 210.1,213.4 213.6,219.3 220.6,219.3 224.1,213.4 		"/>
	</g>
	<g>
		<polygon fill="#080808" points="233.7,130.4 226.8,130.4 223.3,136.3 226.8,142.2 233.7,142.2 237.2,136.3 		"/>
		<polygon fill="#080808" points="233.7,144.5 226.8,144.5 223.3,150.4 226.8,156.3 233.7,156.3 237.2,150.4 		"/>
		<polygon fill="#080808" points="233.7,158.5 226.8,158.5 223.3,164.4 226.8,170.3 233.7,170.3 237.2,164.4 		"/>
		<polygon fill="#080808" points="233.7,172.4 226.8,172.4 223.3,178.3 226.8,184.2 233.7,184.2 237.2,178.3 		"/>
		<polygon fill="#080808" points="233.7,186.5 226.8,186.5 223.3,192.4 226.8,198.3 233.7,198.3 237.2,192.4 		"/>
		<polygon fill="#080808" points="233.7,200.5 226.8,200.5 223.3,206.4 226.8,212.3 233.7,212.3 237.2,206.4 		"/>
		<polygon fill="#080808" points="233.7,214.5 226.8,214.5 223.3,220.4 226.8,226.3 233.7,226.3 237.2,220.4 		"/>
	</g>
</g>
<g>
	<g>
		<polygon fill="#080808" points="246.9,137.4 239.9,137.4 236.4,143.3 239.9,149.2 246.9,149.2 250.4,143.3 		"/>
		<polygon fill="#080808" points="246.9,151.5 239.9,151.5 236.4,157.4 239.9,163.3 246.9,163.3 250.4,157.4 		"/>
		<polygon fill="#080808" points="246.9,165.5 239.9,165.5 236.4,171.4 239.9,177.3 246.9,177.3 250.4,171.4 		"/>
		<polygon fill="#080808" points="246.9,179.4 239.9,179.4 236.4,185.3 239.9,191.2 246.9,191.2 250.4,185.3 		"/>
		<polygon fill="#080808" points="246.9,193.5 239.9,193.5 236.4,199.4 239.9,205.3 246.9,205.3 250.4,199.4 		"/>
		<polygon fill="#080808" points="246.9,207.5 239.9,207.5 236.4,213.4 239.9,219.3 246.9,219.3 250.4,213.4 		"/>
	</g>
	<g>
		<polygon fill="#080808" points="260.1,130.4 253.1,130.4 249.6,136.3 253.1,142.2 260.1,142.2 263.5,136.3 		"/>
		<polygon fill="#080808" points="260.1,144.5 253.1,144.5 249.6,150.4 253.1,156.3 260.1,156.3 263.5,150.4 		"/>
		<polygon fill="#080808" points="260.1,158.5 253.1,158.5 249.6,164.4 253.1,170.3 260.1,170.3 263.5,164.4 		"/>
		<polygon fill="#080808" points="260.1,172.4 253.1,172.4 249.6,178.3 253.1,184.2 260.1,184.2 263.5,178.3 		"/>
		<polygon fill="#080808" points="260.1,186.5 253.1,186.5 249.6,192.4 253.1,198.3 260.1,198.3 263.5,192.4 		"/>
		<polygon fill="#080808" points="260.1,200.5 253.1,200.5 249.6,206.4 253.1,212.3 260.1,212.3 263.5,206.4 		"/>
		<polygon fill="#080808" points="260.1,214.5 253.1,214.5 249.6,220.4 253.1,226.3 260.1,226.3 263.5,220.4 		"/>
	</g>
</g>
<g>
	<g>
		<polygon fill="#080808" points="273.2,137.4 266.2,137.4 262.8,143.3 266.2,149.2 273.2,149.2 276.7,143.3 		"/>
		<polygon fill="#080808" points="273.2,151.5 266.2,151.5 262.8,157.4 266.2,163.3 273.2,163.3 276.7,157.4 		"/>
		<polygon fill="#080808" points="273.2,165.5 266.2,165.5 262.8,171.4 266.2,177.3 273.2,177.3 276.7,171.4 		"/>
		<polygon fill="#080808" points="273.2,179.4 266.2,179.4 262.8,185.3 266.2,191.2 273.2,191.2 276.7,185.3 		"/>
		<polygon fill="#080808" points="273.2,193.5 266.2,193.5 262.8,199.4 266.2,205.3 273.2,205.3 276.7,199.4 		"/>
		<polygon fill="#080808" points="273.2,207.5 266.2,207.5 262.8,213.4 266.2,219.3 273.2,219.3 276.7,213.4 		"/>
	</g>
	<g>
		<polygon fill="#080808" points="286.4,130.4 279.4,130.4 275.9,136.3 279.4,142.2 286.4,142.2 289.9,136.3 		"/>
		<polygon fill="#080808" points="286.4,144.5 279.4,144.5 275.9,150.4 279.4,156.3 286.4,156.3 289.9,150.4 		"/>
		<polygon fill="#080808" points="286.4,158.5 279.4,158.5 275.9,164.4 279.4,170.3 286.4,170.3 289.9,164.4 		"/>
		<polygon fill="#080808" points="286.4,172.4 279.4,172.4 275.9,178.3 279.4,184.2 286.4,184.2 289.9,178.3 		"/>
		<polygon fill="#080808" points="286.4,186.5 279.4,186.5 275.9,192.4 279.4,198.3 286.4,198.3 289.9,192.4 		"/>
		<polygon fill="#080808" points="286.4,200.5 279.4,200.5 275.9,206.4 279.4,212.3 286.4,212.3 289.9,206.4 		"/>
		<polygon fill="#080808" points="286.4,214.5 279.4,214.5 275.9,220.4 279.4,226.3 286.4,226.3 289.9,220.4 		"/>
	</g>
</g>
<g>
	<g>
		<polygon fill="#080808" points="299.5,137.4 292.6,137.4 289.1,143.3 292.6,149.2 299.5,149.2 303,143.3 		"/>
		<polygon fill="#080808" points="299.5,151.5 292.6,151.5 289.1,157.4 292.6,163.3 299.5,163.3 303,157.4 		"/>
		<polygon fill="#080808" points="299.5,165.5 292.6,165.5 289.1,171.4 292.6,177.3 299.5,177.3 303,171.4 		"/>
		<polygon fill="#080808" points="299.5,179.4 292.6,179.4 289.1,185.3 292.6,191.2 299.5,191.2 303,185.3 		"/>
		<polygon fill="#080808" points="299.5,193.5 292.6,193.5 289.1,199.4 292.6,205.3 299.5,205.3 303,199.4 		"/>
		<polygon fill="#080808" points="299.5,207.5 292.6,207.5 289.1,213.4 292.6,219.3 299.5,219.3 303,213.4 		"/>
	</g>
	<g>
		<polygon fill="#080808" points="312.7,130.4 305.7,130.4 302.3,136.3 305.7,142.2 312.7,142.2 316.2,136.3 		"/>
		<polygon fill="#080808" points="312.7,144.5 305.7,144.5 302.3,150.4 305.7,156.3 312.7,156.3 316.2,150.4 		"/>
		<polygon fill="#080808" points="312.7,158.5 305.7,158.5 302.3,164.4 305.7,170.3 312.7,170.3 316.2,164.4 		"/>
		<polygon fill="#080808" points="312.7,172.4 305.7,172.4 302.3,178.3 305.7,184.2 312.7,184.2 316.2,178.3 		"/>
		<polygon fill="#080808" points="312.7,186.5 305.7,186.5 302.3,192.4 305.7,198.3 312.7,198.3 316.2,192.4 		"/>
		<polygon fill="#080808" points="312.7,200.5 305.7,200.5 302.3,206.4 305.7,212.3 312.7,212.3 316.2,206.4 		"/>
		<polygon fill="#080808" points="312.7,214.5 305.7,214.5 302.3,220.4 305.7,226.3 312.7,226.3 316.2,220.4 		"/>
	</g>
</g>
<g>
	<g>
		<polygon fill="#080808" points="325.9,137.4 318.9,137.4 315.4,143.3 318.9,149.2 325.9,149.2 329.4,143.3 		"/>
		<polygon fill="#080808" points="325.9,151.5 318.9,151.5 315.4,157.4 318.9,163.3 325.9,163.3 329.4,157.4 		"/>
		<polygon fill="#080808" points="325.9,165.5 318.9,165.5 315.4,171.4 318.9,177.3 325.9,177.3 329.4,171.4 		"/>
		<polygon fill="#080808" points="325.9,179.4 318.9,179.4 315.4,185.3 318.9,191.2 325.9,191.2 329.4,185.3 		"/>
		<polygon fill="#080808" points="325.9,193.5 318.9,193.5 315.4,199.4 318.9,205.3 325.9,205.3 329.4,199.4 		"/>
		<polygon fill="#080808" points="325.9,207.5 318.9,207.5 315.4,213.4 318.9,219.3 325.9,219.3 329.4,213.4 		"/>
	</g>
	<g>
		<polygon fill="#080808" points="339,130.4 332.1,130.4 328.6,136.3 332.1,142.2 339,142.2 342.5,136.3 		"/>
		<polygon fill="#080808" points="339,144.5 332.1,144.5 328.6,150.4 332.1,156.3 339,156.3 342.5,150.4 		"/>
		<polygon fill="#080808" points="339,158.5 332.1,158.5 328.6,164.4 332.1,170.3 339,170.3 342.5,164.4 		"/>
		<polygon fill="#080808" points="339,172.4 332.1,172.4 328.6,178.3 332.1,184.2 339,184.2 342.5,178.3 		"/>
		<polygon fill="#080808" points="339,186.5 332.1,186.5 328.6,192.4 332.1,198.3 339,198.3 342.5,192.4 		"/>
		<polygon fill="#080808" points="339,200.5 332.1,200.5 328.6,206.4 332.1,212.3 339,212.3 342.5,206.4 		"/>
		<polygon fill="#080808" points="339,214.5 332.1,214.5 328.6,220.4 332.1,226.3 339,226.3 342.5,220.4 		"/>
	</g>
</g>
<g>
	<g>
		<polygon fill="#080808" points="352.2,137.4 345.2,137.4 341.7,143.3 345.2,149.2 352.2,149.2 355.7,143.3 		"/>
		<polygon fill="#080808" points="352.2,151.5 345.2,151.5 341.7,157.4 345.2,163.3 352.2,163.3 355.7,157.4 		"/>
		<polygon fill="#080808" points="352.2,165.5 345.2,165.5 341.7,171.4 345.2,177.3 352.2,177.3 355.7,171.4 		"/>
		<polygon fill="#080808" points="352.2,179.4 345.2,179.4 341.7,185.3 345.2,191.2 352.2,191.2 355.7,185.3 		"/>
		<polygon fill="#080808" points="352.2,193.5 345.2,193.5 341.7,199.4 345.2,205.3 352.2,205.3 355.7,199.4 		"/>
		<polygon fill="#080808" points="352.2,207.5 345.2,207.5 341.7,213.4 345.2,219.3 352.2,219.3 355.7,213.4 		"/>
	</g>
	<g>
		<polygon fill="#080808" points="365.4,130.4 358.4,130.4 354.9,136.3 358.4,142.2 365.4,142.2 368.9,136.3 		"/>
		<polygon fill="#080808" points="365.4,144.5 358.4,144.5 354.9,150.4 358.4,156.3 365.4,156.3 368.9,150.4 		"/>
		<polygon fill="#080808" points="365.4,158.5 358.4,158.5 354.9,164.4 358.4,170.3 365.4,170.3 368.9,164.4 		"/>
		<polygon fill="#080808" points="365.4,172.4 358.4,172.4 354.9,178.3 358.4,184.2 365.4,184.2 368.9,178.3 		"/>
		<polygon fill="#080808" points="365.4,186.5 358.4,186.5 354.9,192.4 358.4,198.3 365.4,198.3 368.9,192.4 		"/>
		<polygon fill="#080808" points="365.4,200.5 358.4,200.5 354.9,206.4 358.4,212.3 365.4,212.3 368.9,206.4 		"/>
		<polygon fill="#080808" points="365.4,214.5 358.4,214.5 354.9,220.4 358.4,226.3 365.4,226.3 368.9,220.4 		"/>
	</g>
</g>
<g>
	<g>
		<polygon fill="#080808" points="378.5,137.4 371.6,137.4 368.1,143.3 371.6,149.2 378.5,149.2 382,143.3 		"/>
		<polygon fill="#080808" points="378.5,151.5 371.6,151.5 368.1,157.4 371.6,163.3 378.5,163.3 382,157.4 		"/>
		<polygon fill="#080808" points="378.5,165.5 371.6,165.5 368.1,171.4 371.6,177.3 378.5,177.3 382,171.4 		"/>
		<polygon fill="#080808" points="378.5,179.4 371.6,179.4 368.1,185.3 371.6,191.2 378.5,191.2 382,185.3 		"/>
		<polygon fill="#080808" points="378.5,193.5 371.6,193.5 368.1,199.4 371.6,205.3 378.5,205.3 382,199.4 		"/>
		<polygon fill="#080808" points="378.5,207.5 371.6,207.5 368.1,213.4 371.6,219.3 378.5,219.3 382,213.4 		"/>
	</g>
	<g>
		<polygon fill="#080808" points="391.7,130.4 384.7,130.4 381.2,136.3 384.7,142.2 391.7,142.2 395.2,136.3 		"/>
		<polygon fill="#080808" points="391.7,144.5 384.7,144.5 381.2,150.4 384.7,156.3 391.7,156.3 395.2,150.4 		"/>
		<polygon fill="#080808" points="391.7,158.5 384.7,158.5 381.2,164.4 384.7,170.3 391.7,170.3 395.2,164.4 		"/>
		<polygon fill="#080808" points="391.7,172.4 384.7,172.4 381.2,178.3 384.7,184.2 391.7,184.2 395.2,178.3 		"/>
		<polygon fill="#080808" points="391.7,186.5 384.7,186.5 381.2,192.4 384.7,198.3 391.7,198.3 395.2,192.4 		"/>
		<polygon fill="#080808" points="391.7,200.5 384.7,200.5 381.2,206.4 384.7,212.3 391.7,212.3 395.2,206.4 		"/>
		<polygon fill="#080808" points="391.7,214.5 384.7,214.5 381.2,220.4 384.7,226.3 391.7,226.3 395.2,220.4 		"/>
	</g>
</g>
<g>
	<g>
		<polygon fill="#080808" points="404.9,137.4 397.9,137.4 394.4,143.3 397.9,149.2 404.9,149.2 408.3,143.3 		"/>
		<polygon fill="#080808" points="404.9,151.5 397.9,151.5 394.4,157.4 397.9,163.3 404.9,163.3 408.3,157.4 		"/>
		<polygon fill="#080808" points="404.9,165.5 397.9,165.5 394.4,171.4 397.9,177.3 404.9,177.3 408.3,171.4 		"/>
		<polygon fill="#080808" points="404.9,179.4 397.9,179.4 394.4,185.3 397.9,191.2 404.9,191.2 408.3,185.3 		"/>
		<polygon fill="#080808" points="404.9,193.5 397.9,193.5 394.4,199.4 397.9,205.3 404.9,205.3 408.3,199.4 		"/>
		<polygon fill="#080808" points="404.9,207.5 397.9,207.5 394.4,213.4 397.9,219.3 404.9,219.3 408.3,213.4 		"/>
	</g>
	<g>
		<polygon fill="#080808" points="418,130.4 411,130.4 407.6,136.3 411,142.2 418,142.2 421.5,136.3 		"/>
		<polygon fill="#080808" points="418,144.5 411,144.5 407.6,150.4 411,156.3 418,156.3 421.5,150.4 		"/>
		<polygon fill="#080808" points="418,158.5 411,158.5 407.6,164.4 411,170.3 418,170.3 421.5,164.4 		"/>
		<polygon fill="#080808" points="418,172.4 411,172.4 407.6,178.3 411,184.2 418,184.2 421.5,178.3 		"/>
		<polygon fill="#080808" points="418,186.5 411,186.5 407.6,192.4 411,198.3 418,198.3 421.5,192.4 		"/>
		<polygon fill="#080808" points="418,200.5 411,200.5 407.6,206.4 411,212.3 418,212.3 421.5,206.4 		"/>
		<polygon fill="#080808" points="418,214.5 411,214.5 407.6,220.4 411,226.3 418,226.3 421.5,220.4 		"/>
	</g>
</g>
<g>
	<g>
		<polygon fill="#080808" points="431.2,137.4 424.2,137.4 420.7,143.3 424.2,149.2 431.2,149.2 434.7,143.3 		"/>
		<polygon fill="#080808" points="431.2,151.5 424.2,151.5 420.7,157.4 424.2,163.3 431.2,163.3 434.7,157.4 		"/>
		<polygon fill="#080808" points="431.2,165.5 424.2,165.5 420.7,171.4 424.2,177.3 431.2,177.3 434.7,171.4 		"/>
		<polygon fill="#080808" points="431.2,179.4 424.2,179.4 420.7,185.3 424.2,191.2 431.2,191.2 434.7,185.3 		"/>
		<polygon fill="#080808" points="431.2,193.5 424.2,193.5 420.7,199.4 424.2,205.3 431.2,205.3 434.7,199.4 		"/>
		<polygon fill="#080808" points="431.2,207.5 424.2,207.5 420.7,213.4 424.2,219.3 431.2,219.3 434.7,213.4 		"/>
	</g>
</g>
<radialGradient id="SVGID_17_" cx="322.1901" cy="1562.2885" r="7.5" gradientTransform="matrix(1.0126 0 0 0.6333 3.6236 -881.875)" gradientUnits="userSpaceOnUse">
	<stop  offset="0" style="stop-color:#FFFFFF"/>
	<stop  offset="1" style="stop-color:#2EED00"/>
</radialGradient>
<rect x="322.3" y="102.8" fill="url(#SVGID_17_)" stroke="#030000" stroke-miterlimit="10" width="15.2" height="9.5"/>
<radialGradient id="SVGID_18_" cx="344.1901" cy="1562.2885" r="7.5" gradientTransform="matrix(1.0126 0 0 0.6333 3.6236 -881.875)" gradientUnits="userSpaceOnUse">
	<stop  offset="0" style="stop-color:#FFFFFF"/>
	<stop  offset="1" style="stop-color:#2EED00"/>
</radialGradient>
<rect x="344.6" y="102.8" fill="url(#SVGID_18_)" stroke="#030000" stroke-miterlimit="10" width="15.2" height="9.5"/>
<radialGradient id="SVGID_19_" cx="366.1901" cy="1562.2885" r="7.5" gradientTransform="matrix(1.0126 0 0 0.6333 3.6236 -881.875)" gradientUnits="userSpaceOnUse">
	<stop  offset="0" style="stop-color:#FFFFFF"/>
	<stop  offset="1" style="stop-color:#2EED00"/>
</radialGradient>
<rect x="366.8" y="102.8" fill="url(#SVGID_19_)" stroke="#030000" stroke-miterlimit="10" width="15.2" height="9.5"/>
<radialGradient id="SVGID_20_" cx="388.1901" cy="1562.2885" r="7.5" gradientTransform="matrix(1.0126 0 0 0.6333 3.6236 -881.875)" gradientUnits="userSpaceOnUse">
	<stop  offset="0" style="stop-color:#FFFFFF"/>
	<stop  offset="1" style="stop-color:#2EED00"/>
</radialGradient>
<rect x="389.1" y="102.8" fill="url(#SVGID_20_)" stroke="#030000" stroke-miterlimit="10" width="15.2" height="9.5"/>
<ellipse fill="#1C1D20" cx="423" cy="52.8" rx="8.6" ry="8.5"/>
<ellipse fill="#1C1D20" stroke="#666666" stroke-miterlimit="10" cx="423" cy="52.8" rx="6.1" ry="6"/>
<g>
	<rect x="447.3" y="33.8" fill="none" stroke="#1C1D20" stroke-miterlimit="10" width="53.7" height="192"/>
	<g>
		<rect x="451.4" y="63.7" fill="#1C1D20" width="8.1" height="6.9"/>
		<rect x="451.4" y="74.5" fill="#1C1D20" width="8.1" height="6.9"/>
		<rect x="451.4" y="85.2" fill="#1C1D20" width="8.1" height="6.9"/>
		<rect x="451.4" y="96" fill="#1C1D20" width="8.1" height="6.9"/>
		<rect x="451.4" y="106.7" fill="#1C1D20" width="8.1" height="6.9"/>
		<rect x="451.4" y="117.5" fill="#1C1D20" width="8.1" height="6.9"/>
		<rect x="451.4" y="128.2" fill="#1C1D20" width="8.1" height="6.9"/>
		<rect x="451.4" y="139" fill="#1C1D20" width="8.1" height="6.9"/>
		<rect x="451.4" y="149.8" fill="#1C1D20" width="8.1" height="6.9"/>
		<rect x="451.4" y="160.5" fill="#1C1D20" width="8.1" height="6.9"/>
		<rect x="451.4" y="171.3" fill="#1C1D20" width="8.1" height="6.9"/>
		<rect x="451.4" y="182" fill="#1C1D20" width="8.1" height="6.9"/>
		<rect x="451.4" y="192.8" fill="#1C1D20" width="8.1" height="6.9"/>
		<rect x="451.4" y="203.5" fill="#1C1D20" width="8.1" height="6.9"/>
		<rect x="451.4" y="214.3" fill="#1C1D20" width="8.1" height="6.9"/>
	</g>
	<g>
		<rect x="463.5" y="63.7" fill="#1C1D20" width="8.1" height="6.9"/>
		<rect x="463.5" y="74.5" fill="#1C1D20" width="8.1" height="6.9"/>
		<rect x="463.5" y="85.2" fill="#1C1D20" width="8.1" height="6.9"/>
		<rect x="463.5" y="96" fill="#1C1D20" width="8.1" height="6.9"/>
		<rect x="463.5" y="106.7" fill="#1C1D20" width="8.1" height="6.9"/>
		<rect x="463.5" y="117.5" fill="#1C1D20" width="8.1" height="6.9"/>
		<rect x="463.5" y="128.2" fill="#1C1D20" width="8.1" height="6.9"/>
		<rect x="463.5" y="139" fill="#1C1D20" width="8.1" height="6.9"/>
		<rect x="463.5" y="149.8" fill="#1C1D20" width="8.1" height="6.9"/>
		<rect x="463.5" y="160.5" fill="#1C1D20" width="8.1" height="6.9"/>
		<rect x="463.5" y="171.3" fill="#1C1D20" width="8.1" height="6.9"/>
		<rect x="463.5" y="182" fill="#1C1D20" width="8.1" height="6.9"/>
		<rect x="463.5" y="192.8" fill="#1C1D20" width="8.1" height="6.9"/>
		<rect x="463.5" y="203.5" fill="#1C1D20" width="8.1" height="6.9"/>
		<rect x="463.5" y="214.3" fill="#1C1D20" width="8.1" height="6.9"/>
	</g>
	<g>
		<rect x="475.7" y="63.7" fill="#1C1D20" width="8.1" height="6.9"/>
		<rect x="475.7" y="74.5" fill="#1C1D20" width="8.1" height="6.9"/>
		<rect x="475.7" y="85.2" fill="#1C1D20" width="8.1" height="6.9"/>
		<rect x="475.7" y="96" fill="#1C1D20" width="8.1" height="6.9"/>
		<rect x="475.7" y="106.7" fill="#1C1D20" width="8.1" height="6.9"/>
		<rect x="475.7" y="117.5" fill="#1C1D20" width="8.1" height="6.9"/>
		<rect x="475.7" y="128.2" fill="#1C1D20" width="8.1" height="6.9"/>
		<rect x="475.7" y="139" fill="#1C1D20" width="8.1" height="6.9"/>
		<rect x="475.7" y="149.8" fill="#1C1D20" width="8.1" height="6.9"/>
		<rect x="475.7" y="160.5" fill="#1C1D20" width="8.1" height="6.9"/>
		<rect x="475.7" y="171.3" fill="#1C1D20" width="8.1" height="6.9"/>
		<rect x="475.7" y="182" fill="#1C1D20" width="8.1" height="6.9"/>
		<rect x="475.7" y="192.8" fill="#1C1D20" width="8.1" height="6.9"/>
		<rect x="475.7" y="203.5" fill="#1C1D20" width="8.1" height="6.9"/>
		<rect x="475.7" y="214.3" fill="#1C1D20" width="8.1" height="6.9"/>
	</g>
	<g>
		<rect x="487.8" y="63.7" fill="#1C1D20" width="8.1" height="6.9"/>
		<rect x="487.8" y="74.5" fill="#1C1D20" width="8.1" height="6.9"/>
		<rect x="487.8" y="85.2" fill="#1C1D20" width="8.1" height="6.9"/>
		<rect x="487.8" y="96" fill="#1C1D20" width="8.1" height="6.9"/>
		<rect x="487.8" y="106.7" fill="#1C1D20" width="8.1" height="6.9"/>
		<rect x="487.8" y="117.5" fill="#1C1D20" width="8.1" height="6.9"/>
		<rect x="487.8" y="128.2" fill="#1C1D20" width="8.1" height="6.9"/>
		<rect x="487.8" y="139" fill="#1C1D20" width="8.1" height="6.9"/>
		<rect x="487.8" y="149.8" fill="#1C1D20" width="8.1" height="6.9"/>
		<rect x="487.8" y="160.5" fill="#1C1D20" width="8.1" height="6.9"/>
		<rect x="487.8" y="171.3" fill="#1C1D20" width="8.1" height="6.9"/>
		<rect x="487.8" y="182" fill="#1C1D20" width="8.1" height="6.9"/>
		<rect x="487.8" y="192.8" fill="#1C1D20" width="8.1" height="6.9"/>
		<rect x="487.8" y="203.5" fill="#1C1D20" width="8.1" height="6.9"/>
		<rect x="487.8" y="214.3" fill="#1C1D20" width="8.1" height="6.9"/>
	</g>
	<linearGradient id="SVGID_21_" gradientUnits="userSpaceOnUse" x1="494.2543" y1="222.366" x2="494.2543" y2="42.6993">
		<stop  offset="0" style="stop-color:#292829"/>
		<stop  offset="3.746109e-02" style="stop-color:#FFFFFF"/>
		<stop  offset="8.106001e-02" style="stop-color:#A1A4A5"/>
		<stop  offset="0.944" style="stop-color:#C5C5C5"/>
		<stop  offset="0.9678" style="stop-color:#FFFFFF"/>
		<stop  offset="1" style="stop-color:#292829"/>
	</linearGradient>
	<path fill="url(#SVGID_21_)" d="M494.6,222.4h-0.6c-1.7,0-3-1.3-3-3V45.7c0-1.7,1.3-3,3-3h0.6c1.7,0,3,1.3,3,3v173.7
		C497.6,221,496.2,222.4,494.6,222.4z"/>
</g>
<g>
	<rect x="509.1" y="33.8" fill="none" stroke="#1C1D20" stroke-miterlimit="10" width="53.7" height="192"/>
	<linearGradient id="SVGID_24_" gradientUnits="userSpaceOnUse" x1="556.022" y1="222.366" x2="556.022" y2="42.6993">
		<stop  offset="0" style="stop-color:#292829"/>
		<stop  offset="3.746109e-02" style="stop-color:#FFFFFF"/>
		<stop  offset="8.106001e-02" style="stop-color:#A1A4A5"/>
		<stop  offset="0.944" style="stop-color:#C5C5C5"/>
		<stop  offset="0.9678" style="stop-color:#FFFFFF"/>
		<stop  offset="1" style="stop-color:#292829"/>
	</linearGradient>
	<path fill="url(#SVGID_24_)" d="M556.3,222.4h-0.6c-1.7,0-3-1.3-3-3V45.7c0-1.7,1.3-3,3-3h0.6c1.7,0,3,1.3,3,3v173.7
		C559.3,221,558,222.4,556.3,222.4z"/>
</g>
<g>
	<rect x="570.9" y="33.8" fill="none" stroke="#1C1D20" stroke-miterlimit="10" width="53.7" height="192"/>
	<g>
		<rect x="574.9" y="63.7" fill="#1C1D20" width="8.1" height="6.9"/>
		<rect x="574.9" y="74.5" fill="#1C1D20" width="8.1" height="6.9"/>
		<rect x="574.9" y="85.2" fill="#1C1D20" width="8.1" height="6.9"/>
		<rect x="574.9" y="96" fill="#1C1D20" width="8.1" height="6.9"/>
		<rect x="574.9" y="106.7" fill="#1C1D20" width="8.1" height="6.9"/>
		<rect x="574.9" y="117.5" fill="#1C1D20" width="8.1" height="6.9"/>
		<rect x="574.9" y="128.2" fill="#1C1D20" width="8.1" height="6.9"/>
		<rect x="574.9" y="139" fill="#1C1D20" width="8.1" height="6.9"/>
		<rect x="574.9" y="149.8" fill="#1C1D20" width="8.1" height="6.9"/>
		<rect x="574.9" y="160.5" fill="#1C1D20" width="8.1" height="6.9"/>
		<rect x="574.9" y="171.3" fill="#1C1D20" width="8.1" height="6.9"/>
		<rect x="574.9" y="182" fill="#1C1D20" width="8.1" height="6.9"/>
		<rect x="574.9" y="192.8" fill="#1C1D20" width="8.1" height="6.9"/>
		<rect x="574.9" y="203.5" fill="#1C1D20" width="8.1" height="6.9"/>
		<rect x="574.9" y="214.3" fill="#1C1D20" width="8.1" height="6.9"/>
	</g>
	<g>
		<rect x="587.1" y="63.7" fill="#1C1D20" width="8.1" height="6.9"/>
		<rect x="587.1" y="74.5" fill="#1C1D20" width="8.1" height="6.9"/>
		<rect x="587.1" y="85.2" fill="#1C1D20" width="8.1" height="6.9"/>
		<rect x="587.1" y="96" fill="#1C1D20" width="8.1" height="6.9"/>
		<rect x="587.1" y="106.7" fill="#1C1D20" width="8.1" height="6.9"/>
		<rect x="587.1" y="117.5" fill="#1C1D20" width="8.1" height="6.9"/>
		<rect x="587.1" y="128.2" fill="#1C1D20" width="8.1" height="6.9"/>
		<rect x="587.1" y="139" fill="#1C1D20" width="8.1" height="6.9"/>
		<rect x="587.1" y="149.8" fill="#1C1D20" width="8.1" height="6.9"/>
		<rect x="587.1" y="160.5" fill="#1C1D20" width="8.1" height="6.9"/>
		<rect x="587.1" y="171.3" fill="#1C1D20" width="8.1" height="6.9"/>
		<rect x="587.1" y="182" fill="#1C1D20" width="8.1" height="6.9"/>
		<rect x="587.1" y="192.8" fill="#1C1D20" width="8.1" height="6.9"/>
		<rect x="587.1" y="203.5" fill="#1C1D20" width="8.1" height="6.9"/>
		<rect x="587.1" y="214.3" fill="#1C1D20" width="8.1" height="6.9"/>
	</g>
	<g>
		<rect x="599.2" y="63.7" fill="#1C1D20" width="8.1" height="6.9"/>
		<rect x="599.2" y="74.5" fill="#1C1D20" width="8.1" height="6.9"/>
		<rect x="599.2" y="85.2" fill="#1C1D20" width="8.1" height="6.9"/>
		<rect x="599.2" y="96" fill="#1C1D20" width="8.1" height="6.9"/>
		<rect x="599.2" y="106.7" fill="#1C1D20" width="8.1" height="6.9"/>
		<rect x="599.2" y="117.5" fill="#1C1D20" width="8.1" height="6.9"/>
		<rect x="599.2" y="128.2" fill="#1C1D20" width="8.1" height="6.9"/>
		<rect x="599.2" y="139" fill="#1C1D20" width="8.1" height="6.9"/>
		<rect x="599.2" y="149.8" fill="#1C1D20" width="8.1" height="6.9"/>
		<rect x="599.2" y="160.5" fill="#1C1D20" width="8.1" height="6.9"/>
		<rect x="599.2" y="171.3" fill="#1C1D20" width="8.1" height="6.9"/>
		<rect x="599.2" y="182" fill="#1C1D20" width="8.1" height="6.9"/>
		<rect x="599.2" y="192.8" fill="#1C1D20" width="8.1" height="6.9"/>
		<rect x="599.2" y="203.5" fill="#1C1D20" width="8.1" height="6.9"/>
		<rect x="599.2" y="214.3" fill="#1C1D20" width="8.1" height="6.9"/>
	</g>
	<g>
		<rect x="611.4" y="63.7" fill="#1C1D20" width="8.1" height="6.9"/>
		<rect x="611.4" y="74.5" fill="#1C1D20" width="8.1" height="6.9"/>
		<rect x="611.4" y="85.2" fill="#1C1D20" width="8.1" height="6.9"/>
		<rect x="611.4" y="96" fill="#1C1D20" width="8.1" height="6.9"/>
		<rect x="611.4" y="106.7" fill="#1C1D20" width="8.1" height="6.9"/>
		<rect x="611.4" y="117.5" fill="#1C1D20" width="8.1" height="6.9"/>
		<rect x="611.4" y="128.2" fill="#1C1D20" width="8.1" height="6.9"/>
		<rect x="611.4" y="139" fill="#1C1D20" width="8.1" height="6.9"/>
		<rect x="611.4" y="149.8" fill="#1C1D20" width="8.1" height="6.9"/>
		<rect x="611.4" y="160.5" fill="#1C1D20" width="8.1" height="6.9"/>
		<rect x="611.4" y="171.3" fill="#1C1D20" width="8.1" height="6.9"/>
		<rect x="611.4" y="182" fill="#1C1D20" width="8.1" height="6.9"/>
		<rect x="611.4" y="192.8" fill="#1C1D20" width="8.1" height="6.9"/>
		<rect x="611.4" y="203.5" fill="#1C1D20" width="8.1" height="6.9"/>
		<rect x="611.4" y="214.3" fill="#1C1D20" width="8.1" height="6.9"/>
	</g>
	<linearGradient id="SVGID_29_" gradientUnits="userSpaceOnUse" x1="617.7898" y1="222.366" x2="617.7898" y2="42.6993">
		<stop  offset="0" style="stop-color:#292829"/>
		<stop  offset="3.746109e-02" style="stop-color:#FFFFFF"/>
		<stop  offset="8.106001e-02" style="stop-color:#A1A4A5"/>
		<stop  offset="0.944" style="stop-color:#C5C5C5"/>
		<stop  offset="0.9678" style="stop-color:#FFFFFF"/>
		<stop  offset="1" style="stop-color:#292829"/>
	</linearGradient>
	<path fill="url(#SVGID_29_)" d="M618.1,222.4h-0.6c-1.7,0-3-1.3-3-3V45.7c0-1.7,1.3-3,3-3h0.6c1.7,0,3,1.3,3,3v173.7
		C621.1,221,619.8,222.4,618.1,222.4z"/>
</g>
<g>
	<path fill="#0F0F0F" d="M21.9,89.8h0.7c2.2,0,3.9,1.7,3.9,3.9v7.1c0,1.6,1.3,2.8,2.9,2.8h65.3c1.6,0,2.9-1.3,2.9-2.8v-7.1
		c0-2.1,1.8-3.9,3.9-3.9h0.7c2.2,0,3.9,1.7,3.9,3.9v7.1c0,6.2-5.1,11.3-11.4,11.3H29.4c-6.3,0-11.4-5-11.4-11.3v-7.1
		C18,91.5,19.7,89.8,21.9,89.8z"/>
</g>
<g>
	<path fill="#0F0F0F" d="M128.1,146.8h0.8c2.6,0,4.6,2.1,4.6,4.6v8.4c0,1.8,1.5,3.3,3.4,3.3h292.9c1.9,0,3.4-1.5,3.4-3.3v-8.4
		c0-2.5,2.1-4.6,4.6-4.6h0.8c2.6,0,4.6,2.1,4.6,4.6v8.4c0,7.4-6,13.3-13.5,13.3H136.9c-7.5,0-13.5-6-13.5-13.3v-8.4
		C123.4,148.9,125.5,146.8,128.1,146.8z"/>
</g>
<linearGradient id="SVGID_32_" gradientUnits="userSpaceOnUse" x1="15196.4404" y1="20437.4199" x2="15196.4404" y2="20209.3379" gradientTransform="matrix(-1 0 0 1 16095.3789 -20195.0137)">
	<stop  offset="0" style="stop-color:#717071"/>
	<stop  offset="3.763440e-02" style="stop-color:#FFFFFF"/>
	<stop  offset="6.451650e-02" style="stop-color:#B0B3B4"/>
	<stop  offset="0.8817" style="stop-color:#D4D4D4"/>
	<stop  offset="0.9462" style="stop-color:#FFFFFF"/>
	<stop  offset="0.957" style="stop-color:#B0B3B4"/>
	<stop  offset="0.9892" style="stop-color:#717071"/>
</linearGradient>
<rect x="637.2" y="14.3" fill="url(#SVGID_32_)" stroke="#0F0F0F" stroke-width="2" stroke-miterlimit="10" width="523.5" height="228.1"/>
<g>
	<g>
		
			<linearGradient id="SVGID_35_" gradientUnits="userSpaceOnUse" x1="14882.5391" y1="20437.4199" x2="14882.5391" y2="20209.3379" gradientTransform="matrix(-1 0 0 1 16095.3789 -20195.0137)">
			<stop  offset="0" style="stop-color:#717071"/>
			<stop  offset="3.763440e-02" style="stop-color:#FFFFFF"/>
			<stop  offset="6.451650e-02" style="stop-color:#B0B3B4"/>
			<stop  offset="0.8817" style="stop-color:#D4D4D4"/>
			<stop  offset="0.9462" style="stop-color:#FFFFFF"/>
			<stop  offset="0.957" style="stop-color:#B0B3B4"/>
			<stop  offset="0.9892" style="stop-color:#717071"/>
		</linearGradient>
		
			<rect x="1160.7" y="14.3" fill="url(#SVGID_35_)" stroke="#0F0F0F" stroke-width="2" stroke-miterlimit="10" width="104.3" height="228.1"/>
		<g>
			<path fill="#3D3A39" d="M1245.1,40.6c0-1.3-1.2-2.3-2.6-2.3h-60.3c-1.4,0-2.6,1-2.6,2.3v40.7c0,1.3,1.2,2.3,2.6,2.3h60.3
				c1.4,0,2.6-1,2.6-2.3V40.6z"/>
			<path fill="none" stroke="#000000" stroke-width="2" stroke-miterlimit="10" d="M1245.1,40.6c0-1.3-1.2-2.3-2.6-2.3h-60.3
				c-1.4,0-2.6,1-2.6,2.3v40.7c0,1.3,1.2,2.3,2.6,2.3h60.3c1.4,0,2.6-1,2.6-2.3V40.6z"/>
			<polygon fill="#221714" points="1189.7,46 1189.7,68.4 1198.3,75.9 1226.7,75.9 1235,68.1 1235,46 			"/>
			<rect x="1222.8" y="54.2" fill="#353741" width="2.9" height="8.5"/>
			<rect x="1222.8" y="54.2" fill="#8A8E98" width="1.4" height="7"/>
			<rect x="1210.3" y="59.5" fill="#353741" width="2.9" height="8.5"/>
			<rect x="1210.3" y="59.5" fill="#8A8E98" width="1.4" height="7"/>
			<rect x="1197.8" y="54.2" fill="#353741" width="2.9" height="8.5"/>
			<rect x="1197.8" y="54.2" fill="#8A8E98" width="1.4" height="7"/>
		</g>
		
			<radialGradient id="SVGID_38_" cx="10589.9756" cy="-200.8395" r="5.9333" gradientTransform="matrix(-4.376700e-11 0.9627 1.1537 5.115277e-11 1452.7979 -10099.3848)" gradientUnits="userSpaceOnUse">
			<stop  offset="0" style="stop-color:#FFFFFF"/>
			<stop  offset="1" style="stop-color:#2EED00"/>
		</radialGradient>
		<ellipse fill="url(#SVGID_38_)" stroke="#030000" stroke-miterlimit="10" cx="1221.1" cy="95.9" rx="5.9" ry="5.7"/>
		
			<radialGradient id="SVGID_39_" cx="10589.9756" cy="-219.6604" r="5.9333" gradientTransform="matrix(-4.376700e-11 0.9627 1.1537 5.115277e-11 1455.8965 -10099.3848)" gradientUnits="userSpaceOnUse">
			<stop  offset="0" style="stop-color:#FFFFFF"/>
			<stop  offset="1" style="stop-color:#02DEFB"/>
		</radialGradient>
		<ellipse fill="url(#SVGID_39_)" stroke="#030000" stroke-miterlimit="10" cx="1202.5" cy="95.9" rx="5.9" ry="5.7"/>
	</g>
	
		<rect x="1184.7" y="19.9" transform="matrix(-1 -4.448853e-11 4.448853e-11 -1 2424.4229 53.8104)" fill="#EA8000" width="55.1" height="13.9"/>
	
		<rect x="1184.7" y="19.9" transform="matrix(-1 -4.430690e-11 4.430690e-11 -1 2424.4229 44.0605)" fill="#F4B037" width="55.1" height="4.2"/>
	
		<rect x="1184.7" y="30.2" transform="matrix(-1 -4.448853e-11 4.448853e-11 -1 2424.4229 64.4888)" fill="#F4B037" width="55.1" height="4.2"/>
	<g>
		<polygon fill="#080808" points="1257.9,127.8 1257.9,134.8 1251.6,138.2 1245.3,134.8 1245.3,127.8 1251.6,124.4 		"/>
		<polygon fill="#080808" points="1242.9,127.8 1242.9,134.8 1236.6,138.2 1230.4,134.8 1230.4,127.8 1236.6,124.4 		"/>
		<polygon fill="#080808" points="1228,127.8 1228,134.8 1221.7,138.2 1215.4,134.8 1215.4,127.8 1221.7,124.4 		"/>
		<polygon fill="#080808" points="1250.4,114.6 1250.4,121.6 1244.1,125 1237.8,121.6 1237.8,114.6 1244.1,111.2 		"/>
		<polygon fill="#080808" points="1235.5,114.6 1235.5,121.6 1229.2,125 1222.9,121.6 1222.9,114.6 1229.2,111.2 		"/>
		<polygon fill="#080808" points="1220.8,114.6 1220.8,121.6 1214.5,125 1208.2,121.6 1208.2,114.6 1214.5,111.2 		"/>
	</g>
	<g>
		<polygon fill="#080808" points="1212.9,127.8 1212.9,134.8 1206.6,138.2 1200.3,134.8 1200.3,127.8 1206.6,124.4 		"/>
		<polygon fill="#080808" points="1198,127.8 1198,134.8 1191.7,138.2 1185.4,134.8 1185.4,127.8 1191.7,124.4 		"/>
		<polygon fill="#080808" points="1183,127.8 1183,134.8 1176.7,138.2 1170.4,134.8 1170.4,127.8 1176.7,124.4 		"/>
		<polygon fill="#080808" points="1205.4,114.6 1205.4,121.6 1199.1,125 1192.9,121.6 1192.9,114.6 1199.1,111.2 		"/>
		<polygon fill="#080808" points="1190.5,114.6 1190.5,121.6 1184.2,125 1177.9,121.6 1177.9,114.6 1184.2,111.2 		"/>
	</g>
	<g>
		<polygon fill="#080808" points="1257.9,154.8 1257.9,161.7 1251.6,165.1 1245.3,161.7 1245.3,154.8 1251.6,151.3 		"/>
		<polygon fill="#080808" points="1242.9,154.8 1242.9,161.7 1236.6,165.1 1230.4,161.7 1230.4,154.8 1236.6,151.3 		"/>
		<polygon fill="#080808" points="1228,154.8 1228,161.7 1221.7,165.1 1215.4,161.7 1215.4,154.8 1221.7,151.3 		"/>
		<polygon fill="#080808" points="1250.4,141.6 1250.4,148.5 1244.1,151.9 1237.8,148.5 1237.8,141.6 1244.1,138.1 		"/>
		<polygon fill="#080808" points="1235.5,141.6 1235.5,148.5 1229.2,151.9 1222.9,148.5 1222.9,141.6 1229.2,138.1 		"/>
		<polygon fill="#080808" points="1220.8,141.6 1220.8,148.5 1214.5,151.9 1208.2,148.5 1208.2,141.6 1214.5,138.1 		"/>
	</g>
	<g>
		<polygon fill="#080808" points="1212.9,154.8 1212.9,161.7 1206.6,165.1 1200.3,161.7 1200.3,154.8 1206.6,151.3 		"/>
		<polygon fill="#080808" points="1198,154.8 1198,161.7 1191.7,165.1 1185.4,161.7 1185.4,154.8 1191.7,151.3 		"/>
		<polygon fill="#080808" points="1183,154.8 1183,161.7 1176.7,165.1 1170.4,161.7 1170.4,154.8 1176.7,151.3 		"/>
		<polygon fill="#080808" points="1205.4,141.6 1205.4,148.5 1199.1,151.9 1192.9,148.5 1192.9,141.6 1199.1,138.1 		"/>
		<polygon fill="#080808" points="1190.5,141.6 1190.5,148.5 1184.2,151.9 1177.9,148.5 1177.9,141.6 1184.2,138.1 		"/>
	</g>
	<g>
		<polygon fill="#080808" points="1257.9,181.7 1257.9,188.6 1251.6,192.1 1245.3,188.6 1245.3,181.7 1251.6,178.2 		"/>
		<polygon fill="#080808" points="1242.9,181.7 1242.9,188.6 1236.6,192.1 1230.4,188.6 1230.4,181.7 1236.6,178.2 		"/>
		<polygon fill="#080808" points="1228,181.7 1228,188.6 1221.7,192.1 1215.4,188.6 1215.4,181.7 1221.7,178.2 		"/>
		<polygon fill="#080808" points="1250.4,168.5 1250.4,175.4 1244.1,178.9 1237.8,175.4 1237.8,168.5 1244.1,165 		"/>
		<polygon fill="#080808" points="1235.5,168.5 1235.5,175.4 1229.2,178.9 1222.9,175.4 1222.9,168.5 1229.2,165 		"/>
		<polygon fill="#080808" points="1220.8,168.5 1220.8,175.4 1214.5,178.9 1208.2,175.4 1208.2,168.5 1214.5,165 		"/>
	</g>
	<g>
		<polygon fill="#080808" points="1212.9,181.7 1212.9,188.6 1206.6,192.1 1200.3,188.6 1200.3,181.7 1206.6,178.2 		"/>
		<polygon fill="#080808" points="1198,181.7 1198,188.6 1191.7,192.1 1185.4,188.6 1185.4,181.7 1191.7,178.2 		"/>
		<polygon fill="#080808" points="1183,181.7 1183,188.6 1176.7,192.1 1170.4,188.6 1170.4,181.7 1176.7,178.2 		"/>
		<polygon fill="#080808" points="1205.4,168.5 1205.4,175.4 1199.1,178.9 1192.9,175.4 1192.9,168.5 1199.1,165 		"/>
		<polygon fill="#080808" points="1190.5,168.5 1190.5,175.4 1184.2,178.9 1177.9,175.4 1177.9,168.5 1184.2,165 		"/>
	</g>
	<g>
		<polygon fill="#080808" points="1257.9,208.6 1257.9,215.5 1251.6,219 1245.3,215.5 1245.3,208.6 1251.6,205.2 		"/>
		<polygon fill="#080808" points="1242.9,208.6 1242.9,215.5 1236.6,219 1230.4,215.5 1230.4,208.6 1236.6,205.2 		"/>
		<polygon fill="#080808" points="1228,208.6 1228,215.5 1221.7,219 1215.4,215.5 1215.4,208.6 1221.7,205.2 		"/>
		<polygon fill="#080808" points="1250.4,195.4 1250.4,202.3 1244.1,205.8 1237.8,202.3 1237.8,195.4 1244.1,192 		"/>
		<polygon fill="#080808" points="1235.5,195.4 1235.5,202.3 1229.2,205.8 1222.9,202.3 1222.9,195.4 1229.2,192 		"/>
		<polygon fill="#080808" points="1220.8,195.4 1220.8,202.3 1214.5,205.8 1208.2,202.3 1208.2,195.4 1214.5,192 		"/>
	</g>
	<g>
		<polygon fill="#080808" points="1212.9,208.6 1212.9,215.5 1206.6,219 1200.3,215.5 1200.3,208.6 1206.6,205.2 		"/>
		<polygon fill="#080808" points="1198,208.6 1198,215.5 1191.7,219 1185.4,215.5 1185.4,208.6 1191.7,205.2 		"/>
		<polygon fill="#080808" points="1183,208.6 1183,215.5 1176.7,219 1170.4,215.5 1170.4,208.6 1176.7,205.2 		"/>
		<polygon fill="#080808" points="1205.4,195.4 1205.4,202.3 1199.1,205.8 1192.9,202.3 1192.9,195.4 1199.1,192 		"/>
		<polygon fill="#080808" points="1190.5,195.4 1190.5,202.3 1184.2,205.8 1177.9,202.3 1177.9,195.4 1184.2,192 		"/>
	</g>
</g>
<g>
	
		<linearGradient id="SVGID_41_" gradientUnits="userSpaceOnUse" x1="5219.5811" y1="4101.7451" x2="5311.5811" y2="4101.7451" gradientTransform="matrix(-4.489700e-11 1 -1 -4.489700e-11 5220.8604 -5187.2568)">
		<stop  offset="0" style="stop-color:#717071"/>
		<stop  offset="1.633622e-02" style="stop-color:#FFFFFF"/>
		<stop  offset="3.310859e-02" style="stop-color:#A1A4A5"/>
		<stop  offset="0.9527" style="stop-color:#C5C5C5"/>
		<stop  offset="0.9655" style="stop-color:#C5C5C5"/>
		<stop  offset="0.9903" style="stop-color:#FFFFFF"/>
		<stop  offset="1" style="stop-color:#717071"/>
	</linearGradient>
	<rect x="1096.9" y="32.3" fill="url(#SVGID_41_)" width="44.4" height="92"/>
</g>
<g>
	
		<linearGradient id="SVGID_44_" gradientUnits="userSpaceOnUse" x1="5219.5811" y1="4159.4629" x2="5311.5811" y2="4159.4629" gradientTransform="matrix(-4.489700e-11 1 -1 -4.489700e-11 5220.8604 -5187.2568)">
		<stop  offset="0" style="stop-color:#717071"/>
		<stop  offset="1.633622e-02" style="stop-color:#FFFFFF"/>
		<stop  offset="3.310859e-02" style="stop-color:#A1A4A5"/>
		<stop  offset="0.9527" style="stop-color:#C5C5C5"/>
		<stop  offset="0.9655" style="stop-color:#C5C5C5"/>
		<stop  offset="0.9903" style="stop-color:#FFFFFF"/>
		<stop  offset="1" style="stop-color:#717071"/>
	</linearGradient>
	<rect x="1039.2" y="32.3" fill="url(#SVGID_44_)" width="44.4" height="92"/>
</g>
<rect x="834.6" y="34.3" transform="matrix(-1 -4.435708e-11 4.435708e-11 -1 1858.6388 158.6487)" fill="#383838" width="189.4" height="90"/>
<g>
	<g>
		
			<linearGradient id="SVGID_46_" gradientUnits="userSpaceOnUse" x1="12499.2598" y1="8294.7344" x2="12514.7227" y2="8294.7344" gradientTransform="matrix(-4.489700e-11 1 -1 -4.489700e-11 9189.8604 -12432.2568)">
			<stop  offset="0" style="stop-color:#717071"/>
			<stop  offset="1.633622e-02" style="stop-color:#FFFFFF"/>
			<stop  offset="4.017573e-02" style="stop-color:#A1A4A5"/>
			<stop  offset="0.9527" style="stop-color:#C5C5C5"/>
			<stop  offset="0.9797" style="stop-color:#FFFFFF"/>
			<stop  offset="1" style="stop-color:#717071"/>
		</linearGradient>
		<rect x="876.3" y="67" fill="url(#SVGID_46_)" width="37.6" height="15.5"/>
	</g>
	<g>
		<rect x="879.2" y="70.2" fill="#1C1D20" width="32.1" height="9.5"/>
		<rect x="891.9" y="70.2" fill="#AAAAAD" width="6.8" height="0.5"/>
		<rect x="882.9" y="72.3" fill="#5A5B55" width="24.6" height="2.6"/>
		<rect x="909.2" y="70.2" fill="#AAAAAD" width="2.1" height="1"/>
		<rect x="879.2" y="70.2" fill="#AAAAAD" width="2.1" height="1"/>
	</g>
</g>
<g>
	<g>
		
			<linearGradient id="SVGID_48_" gradientUnits="userSpaceOnUse" x1="12479.2598" y1="8294.7344" x2="12494.7227" y2="8294.7344" gradientTransform="matrix(-4.489700e-11 1 -1 -4.489700e-11 9189.8604 -12432.2568)">
			<stop  offset="0" style="stop-color:#717071"/>
			<stop  offset="1.633622e-02" style="stop-color:#FFFFFF"/>
			<stop  offset="4.017573e-02" style="stop-color:#A1A4A5"/>
			<stop  offset="0.9527" style="stop-color:#C5C5C5"/>
			<stop  offset="0.9797" style="stop-color:#FFFFFF"/>
			<stop  offset="1" style="stop-color:#717071"/>
		</linearGradient>
		<rect x="876.3" y="47" fill="url(#SVGID_48_)" width="37.6" height="15.5"/>
	</g>
	<g>
		<rect x="879.2" y="50.2" fill="#1C1D20" width="32.1" height="9.5"/>
		<rect x="891.9" y="50.2" fill="#AAAAAD" width="6.8" height="0.5"/>
		<rect x="882.9" y="52.3" fill="#5A5B55" width="24.6" height="2.6"/>
		<rect x="909.2" y="50.2" fill="#AAAAAD" width="2.1" height="1"/>
		<rect x="879.2" y="50.2" fill="#AAAAAD" width="2.1" height="1"/>
	</g>
</g>
<g>
	<g>
		<polygon fill="#080808" points="1132.8,137.4 1139.8,137.4 1143.3,143.3 1139.8,149.2 1132.8,149.2 1129.3,143.3 		"/>
		<polygon fill="#080808" points="1132.8,151.5 1139.8,151.5 1143.3,157.4 1139.8,163.3 1132.8,163.3 1129.3,157.4 		"/>
		<polygon fill="#080808" points="1132.8,165.5 1139.8,165.5 1143.3,171.4 1139.8,177.3 1132.8,177.3 1129.3,171.4 		"/>
		<polygon fill="#080808" points="1132.8,179.4 1139.8,179.4 1143.3,185.3 1139.8,191.2 1132.8,191.2 1129.3,185.3 		"/>
		<polygon fill="#080808" points="1132.8,193.5 1139.8,193.5 1143.3,199.4 1139.8,205.3 1132.8,205.3 1129.3,199.4 		"/>
		<polygon fill="#080808" points="1132.8,207.5 1139.8,207.5 1143.3,213.4 1139.8,219.3 1132.8,219.3 1129.3,213.4 		"/>
	</g>
	<g>
		<polygon fill="#080808" points="1119.6,130.4 1126.6,130.4 1130.1,136.3 1126.6,142.2 1119.6,142.2 1116.1,136.3 		"/>
		<polygon fill="#080808" points="1119.6,144.5 1126.6,144.5 1130.1,150.4 1126.6,156.3 1119.6,156.3 1116.1,150.4 		"/>
		<polygon fill="#080808" points="1119.6,158.5 1126.6,158.5 1130.1,164.4 1126.6,170.3 1119.6,170.3 1116.1,164.4 		"/>
		<polygon fill="#080808" points="1119.6,172.4 1126.6,172.4 1130.1,178.3 1126.6,184.2 1119.6,184.2 1116.1,178.3 		"/>
		<polygon fill="#080808" points="1119.6,186.5 1126.6,186.5 1130.1,192.4 1126.6,198.3 1119.6,198.3 1116.1,192.4 		"/>
		<polygon fill="#080808" points="1119.6,200.5 1126.6,200.5 1130.1,206.4 1126.6,212.3 1119.6,212.3 1116.1,206.4 		"/>
		<polygon fill="#080808" points="1119.6,214.5 1126.6,214.5 1130.1,220.4 1126.6,226.3 1119.6,226.3 1116.1,220.4 		"/>
	</g>
</g>
<g>
	<g>
		<polygon fill="#080808" points="1106.5,137.4 1113.4,137.4 1116.9,143.3 1113.4,149.2 1106.5,149.2 1103,143.3 		"/>
		<polygon fill="#080808" points="1106.5,151.5 1113.4,151.5 1116.9,157.4 1113.4,163.3 1106.5,163.3 1103,157.4 		"/>
		<polygon fill="#080808" points="1106.5,165.5 1113.4,165.5 1116.9,171.4 1113.4,177.3 1106.5,177.3 1103,171.4 		"/>
		<polygon fill="#080808" points="1106.5,179.4 1113.4,179.4 1116.9,185.3 1113.4,191.2 1106.5,191.2 1103,185.3 		"/>
		<polygon fill="#080808" points="1106.5,193.5 1113.4,193.5 1116.9,199.4 1113.4,205.3 1106.5,205.3 1103,199.4 		"/>
		<polygon fill="#080808" points="1106.5,207.5 1113.4,207.5 1116.9,213.4 1113.4,219.3 1106.5,219.3 1103,213.4 		"/>
	</g>
	<g>
		<polygon fill="#080808" points="1093.3,130.4 1100.3,130.4 1103.8,136.3 1100.3,142.2 1093.3,142.2 1089.8,136.3 		"/>
		<polygon fill="#080808" points="1093.3,144.5 1100.3,144.5 1103.8,150.4 1100.3,156.3 1093.3,156.3 1089.8,150.4 		"/>
		<polygon fill="#080808" points="1093.3,158.5 1100.3,158.5 1103.8,164.4 1100.3,170.3 1093.3,170.3 1089.8,164.4 		"/>
		<polygon fill="#080808" points="1093.3,172.4 1100.3,172.4 1103.8,178.3 1100.3,184.2 1093.3,184.2 1089.8,178.3 		"/>
		<polygon fill="#080808" points="1093.3,186.5 1100.3,186.5 1103.8,192.4 1100.3,198.3 1093.3,198.3 1089.8,192.4 		"/>
		<polygon fill="#080808" points="1093.3,200.5 1100.3,200.5 1103.8,206.4 1100.3,212.3 1093.3,212.3 1089.8,206.4 		"/>
		<polygon fill="#080808" points="1093.3,214.5 1100.3,214.5 1103.8,220.4 1100.3,226.3 1093.3,226.3 1089.8,220.4 		"/>
	</g>
</g>
<g>
	<g>
		<polygon fill="#080808" points="1080.1,137.4 1087.1,137.4 1090.6,143.3 1087.1,149.2 1080.1,149.2 1076.7,143.3 		"/>
		<polygon fill="#080808" points="1080.1,151.5 1087.1,151.5 1090.6,157.4 1087.1,163.3 1080.1,163.3 1076.7,157.4 		"/>
		<polygon fill="#080808" points="1080.1,165.5 1087.1,165.5 1090.6,171.4 1087.1,177.3 1080.1,177.3 1076.7,171.4 		"/>
		<polygon fill="#080808" points="1080.1,179.4 1087.1,179.4 1090.6,185.3 1087.1,191.2 1080.1,191.2 1076.7,185.3 		"/>
		<polygon fill="#080808" points="1080.1,193.5 1087.1,193.5 1090.6,199.4 1087.1,205.3 1080.1,205.3 1076.7,199.4 		"/>
		<polygon fill="#080808" points="1080.1,207.5 1087.1,207.5 1090.6,213.4 1087.1,219.3 1080.1,219.3 1076.7,213.4 		"/>
	</g>
	<g>
		<polygon fill="#080808" points="1067,130.4 1073.9,130.4 1077.4,136.3 1073.9,142.2 1067,142.2 1063.5,136.3 		"/>
		<polygon fill="#080808" points="1067,144.5 1073.9,144.5 1077.4,150.4 1073.9,156.3 1067,156.3 1063.5,150.4 		"/>
		<polygon fill="#080808" points="1067,158.5 1073.9,158.5 1077.4,164.4 1073.9,170.3 1067,170.3 1063.5,164.4 		"/>
		<polygon fill="#080808" points="1067,172.4 1073.9,172.4 1077.4,178.3 1073.9,184.2 1067,184.2 1063.5,178.3 		"/>
		<polygon fill="#080808" points="1067,186.5 1073.9,186.5 1077.4,192.4 1073.9,198.3 1067,198.3 1063.5,192.4 		"/>
		<polygon fill="#080808" points="1067,200.5 1073.9,200.5 1077.4,206.4 1073.9,212.3 1067,212.3 1063.5,206.4 		"/>
		<polygon fill="#080808" points="1067,214.5 1073.9,214.5 1077.4,220.4 1073.9,226.3 1067,226.3 1063.5,220.4 		"/>
	</g>
</g>
<g>
	<g>
		<polygon fill="#080808" points="1053.8,137.4 1060.8,137.4 1064.3,143.3 1060.8,149.2 1053.8,149.2 1050.3,143.3 		"/>
		<polygon fill="#080808" points="1053.8,151.5 1060.8,151.5 1064.3,157.4 1060.8,163.3 1053.8,163.3 1050.3,157.4 		"/>
		<polygon fill="#080808" points="1053.8,165.5 1060.8,165.5 1064.3,171.4 1060.8,177.3 1053.8,177.3 1050.3,171.4 		"/>
		<polygon fill="#080808" points="1053.8,179.4 1060.8,179.4 1064.3,185.3 1060.8,191.2 1053.8,191.2 1050.3,185.3 		"/>
		<polygon fill="#080808" points="1053.8,193.5 1060.8,193.5 1064.3,199.4 1060.8,205.3 1053.8,205.3 1050.3,199.4 		"/>
		<polygon fill="#080808" points="1053.8,207.5 1060.8,207.5 1064.3,213.4 1060.8,219.3 1053.8,219.3 1050.3,213.4 		"/>
	</g>
	<g>
		<polygon fill="#080808" points="1040.6,130.4 1047.6,130.4 1051.1,136.3 1047.6,142.2 1040.6,142.2 1037.2,136.3 		"/>
		<polygon fill="#080808" points="1040.6,144.5 1047.6,144.5 1051.1,150.4 1047.6,156.3 1040.6,156.3 1037.2,150.4 		"/>
		<polygon fill="#080808" points="1040.6,158.5 1047.6,158.5 1051.1,164.4 1047.6,170.3 1040.6,170.3 1037.2,164.4 		"/>
		<polygon fill="#080808" points="1040.6,172.4 1047.6,172.4 1051.1,178.3 1047.6,184.2 1040.6,184.2 1037.2,178.3 		"/>
		<polygon fill="#080808" points="1040.6,186.5 1047.6,186.5 1051.1,192.4 1047.6,198.3 1040.6,198.3 1037.2,192.4 		"/>
		<polygon fill="#080808" points="1040.6,200.5 1047.6,200.5 1051.1,206.4 1047.6,212.3 1040.6,212.3 1037.2,206.4 		"/>
		<polygon fill="#080808" points="1040.6,214.5 1047.6,214.5 1051.1,220.4 1047.6,226.3 1040.6,226.3 1037.2,220.4 		"/>
	</g>
</g>
<g>
	<g>
		<polygon fill="#080808" points="1027.5,137.4 1034.5,137.4 1037.9,143.3 1034.5,149.2 1027.5,149.2 1024,143.3 		"/>
		<polygon fill="#080808" points="1027.5,151.5 1034.5,151.5 1037.9,157.4 1034.5,163.3 1027.5,163.3 1024,157.4 		"/>
		<polygon fill="#080808" points="1027.5,165.5 1034.5,165.5 1037.9,171.4 1034.5,177.3 1027.5,177.3 1024,171.4 		"/>
		<polygon fill="#080808" points="1027.5,179.4 1034.5,179.4 1037.9,185.3 1034.5,191.2 1027.5,191.2 1024,185.3 		"/>
		<polygon fill="#080808" points="1027.5,193.5 1034.5,193.5 1037.9,199.4 1034.5,205.3 1027.5,205.3 1024,199.4 		"/>
		<polygon fill="#080808" points="1027.5,207.5 1034.5,207.5 1037.9,213.4 1034.5,219.3 1027.5,219.3 1024,213.4 		"/>
	</g>
	<g>
		<polygon fill="#080808" points="1014.3,130.4 1021.3,130.4 1024.8,136.3 1021.3,142.2 1014.3,142.2 1010.8,136.3 		"/>
		<polygon fill="#080808" points="1014.3,144.5 1021.3,144.5 1024.8,150.4 1021.3,156.3 1014.3,156.3 1010.8,150.4 		"/>
		<polygon fill="#080808" points="1014.3,158.5 1021.3,158.5 1024.8,164.4 1021.3,170.3 1014.3,170.3 1010.8,164.4 		"/>
		<polygon fill="#080808" points="1014.3,172.4 1021.3,172.4 1024.8,178.3 1021.3,184.2 1014.3,184.2 1010.8,178.3 		"/>
		<polygon fill="#080808" points="1014.3,186.5 1021.3,186.5 1024.8,192.4 1021.3,198.3 1014.3,198.3 1010.8,192.4 		"/>
		<polygon fill="#080808" points="1014.3,200.5 1021.3,200.5 1024.8,206.4 1021.3,212.3 1014.3,212.3 1010.8,206.4 		"/>
		<polygon fill="#080808" points="1014.3,214.5 1021.3,214.5 1024.8,220.4 1021.3,226.3 1014.3,226.3 1010.8,220.4 		"/>
	</g>
</g>
<g>
	<g>
		<polygon fill="#080808" points="1001.2,137.4 1008.1,137.4 1011.6,143.3 1008.1,149.2 1001.2,149.2 997.7,143.3 		"/>
		<polygon fill="#080808" points="1001.2,151.5 1008.1,151.5 1011.6,157.4 1008.1,163.3 1001.2,163.3 997.7,157.4 		"/>
		<polygon fill="#080808" points="1001.2,165.5 1008.1,165.5 1011.6,171.4 1008.1,177.3 1001.2,177.3 997.7,171.4 		"/>
		<polygon fill="#080808" points="1001.2,179.4 1008.1,179.4 1011.6,185.3 1008.1,191.2 1001.2,191.2 997.7,185.3 		"/>
		<polygon fill="#080808" points="1001.2,193.5 1008.1,193.5 1011.6,199.4 1008.1,205.3 1001.2,205.3 997.7,199.4 		"/>
		<polygon fill="#080808" points="1001.2,207.5 1008.1,207.5 1011.6,213.4 1008.1,219.3 1001.2,219.3 997.7,213.4 		"/>
	</g>
	<g>
		<polygon fill="#080808" points="988,130.4 995,130.4 998.5,136.3 995,142.2 988,142.2 984.5,136.3 		"/>
		<polygon fill="#080808" points="988,144.5 995,144.5 998.5,150.4 995,156.3 988,156.3 984.5,150.4 		"/>
		<polygon fill="#080808" points="988,158.5 995,158.5 998.5,164.4 995,170.3 988,170.3 984.5,164.4 		"/>
		<polygon fill="#080808" points="988,172.4 995,172.4 998.5,178.3 995,184.2 988,184.2 984.5,178.3 		"/>
		<polygon fill="#080808" points="988,186.5 995,186.5 998.5,192.4 995,198.3 988,198.3 984.5,192.4 		"/>
		<polygon fill="#080808" points="988,200.5 995,200.5 998.5,206.4 995,212.3 988,212.3 984.5,206.4 		"/>
		<polygon fill="#080808" points="988,214.5 995,214.5 998.5,220.4 995,226.3 988,226.3 984.5,220.4 		"/>
	</g>
</g>
<g>
	<g>
		<polygon fill="#080808" points="974.8,137.4 981.8,137.4 985.3,143.3 981.8,149.2 974.8,149.2 971.3,143.3 		"/>
		<polygon fill="#080808" points="974.8,151.5 981.8,151.5 985.3,157.4 981.8,163.3 974.8,163.3 971.3,157.4 		"/>
		<polygon fill="#080808" points="974.8,165.5 981.8,165.5 985.3,171.4 981.8,177.3 974.8,177.3 971.3,171.4 		"/>
		<polygon fill="#080808" points="974.8,179.4 981.8,179.4 985.3,185.3 981.8,191.2 974.8,191.2 971.3,185.3 		"/>
		<polygon fill="#080808" points="974.8,193.5 981.8,193.5 985.3,199.4 981.8,205.3 974.8,205.3 971.3,199.4 		"/>
		<polygon fill="#080808" points="974.8,207.5 981.8,207.5 985.3,213.4 981.8,219.3 974.8,219.3 971.3,213.4 		"/>
	</g>
	<g>
		<polygon fill="#080808" points="961.7,130.4 968.6,130.4 972.1,136.3 968.6,142.2 961.7,142.2 958.2,136.3 		"/>
		<polygon fill="#080808" points="961.7,144.5 968.6,144.5 972.1,150.4 968.6,156.3 961.7,156.3 958.2,150.4 		"/>
		<polygon fill="#080808" points="961.7,158.5 968.6,158.5 972.1,164.4 968.6,170.3 961.7,170.3 958.2,164.4 		"/>
		<polygon fill="#080808" points="961.7,172.4 968.6,172.4 972.1,178.3 968.6,184.2 961.7,184.2 958.2,178.3 		"/>
		<polygon fill="#080808" points="961.7,186.5 968.6,186.5 972.1,192.4 968.6,198.3 961.7,198.3 958.2,192.4 		"/>
		<polygon fill="#080808" points="961.7,200.5 968.6,200.5 972.1,206.4 968.6,212.3 961.7,212.3 958.2,206.4 		"/>
		<polygon fill="#080808" points="961.7,214.5 968.6,214.5 972.1,220.4 968.6,226.3 961.7,226.3 958.2,220.4 		"/>
	</g>
</g>
<g>
	<g>
		<polygon fill="#080808" points="948.5,137.4 955.5,137.4 959,143.3 955.5,149.2 948.5,149.2 945,143.3 		"/>
		<polygon fill="#080808" points="948.5,151.5 955.5,151.5 959,157.4 955.5,163.3 948.5,163.3 945,157.4 		"/>
		<polygon fill="#080808" points="948.5,165.5 955.5,165.5 959,171.4 955.5,177.3 948.5,177.3 945,171.4 		"/>
		<polygon fill="#080808" points="948.5,179.4 955.5,179.4 959,185.3 955.5,191.2 948.5,191.2 945,185.3 		"/>
		<polygon fill="#080808" points="948.5,193.5 955.5,193.5 959,199.4 955.5,205.3 948.5,205.3 945,199.4 		"/>
		<polygon fill="#080808" points="948.5,207.5 955.5,207.5 959,213.4 955.5,219.3 948.5,219.3 945,213.4 		"/>
	</g>
	<g>
		<polygon fill="#080808" points="935.3,130.4 942.3,130.4 945.8,136.3 942.3,142.2 935.3,142.2 931.9,136.3 		"/>
		<polygon fill="#080808" points="935.3,144.5 942.3,144.5 945.8,150.4 942.3,156.3 935.3,156.3 931.9,150.4 		"/>
		<polygon fill="#080808" points="935.3,158.5 942.3,158.5 945.8,164.4 942.3,170.3 935.3,170.3 931.9,164.4 		"/>
		<polygon fill="#080808" points="935.3,172.4 942.3,172.4 945.8,178.3 942.3,184.2 935.3,184.2 931.9,178.3 		"/>
		<polygon fill="#080808" points="935.3,186.5 942.3,186.5 945.8,192.4 942.3,198.3 935.3,198.3 931.9,192.4 		"/>
		<polygon fill="#080808" points="935.3,200.5 942.3,200.5 945.8,206.4 942.3,212.3 935.3,212.3 931.9,206.4 		"/>
		<polygon fill="#080808" points="935.3,214.5 942.3,214.5 945.8,220.4 942.3,226.3 935.3,226.3 931.9,220.4 		"/>
	</g>
</g>
<g>
	<g>
		<polygon fill="#080808" points="922.2,137.4 929.1,137.4 932.6,143.3 929.1,149.2 922.2,149.2 918.7,143.3 		"/>
		<polygon fill="#080808" points="922.2,151.5 929.1,151.5 932.6,157.4 929.1,163.3 922.2,163.3 918.7,157.4 		"/>
		<polygon fill="#080808" points="922.2,165.5 929.1,165.5 932.6,171.4 929.1,177.3 922.2,177.3 918.7,171.4 		"/>
		<polygon fill="#080808" points="922.2,179.4 929.1,179.4 932.6,185.3 929.1,191.2 922.2,191.2 918.7,185.3 		"/>
		<polygon fill="#080808" points="922.2,193.5 929.1,193.5 932.6,199.4 929.1,205.3 922.2,205.3 918.7,199.4 		"/>
		<polygon fill="#080808" points="922.2,207.5 929.1,207.5 932.6,213.4 929.1,219.3 922.2,219.3 918.7,213.4 		"/>
	</g>
	<g>
		<polygon fill="#080808" points="909,130.4 916,130.4 919.5,136.3 916,142.2 909,142.2 905.5,136.3 		"/>
		<polygon fill="#080808" points="909,144.5 916,144.5 919.5,150.4 916,156.3 909,156.3 905.5,150.4 		"/>
		<polygon fill="#080808" points="909,158.5 916,158.5 919.5,164.4 916,170.3 909,170.3 905.5,164.4 		"/>
		<polygon fill="#080808" points="909,172.4 916,172.4 919.5,178.3 916,184.2 909,184.2 905.5,178.3 		"/>
		<polygon fill="#080808" points="909,186.5 916,186.5 919.5,192.4 916,198.3 909,198.3 905.5,192.4 		"/>
		<polygon fill="#080808" points="909,200.5 916,200.5 919.5,206.4 916,212.3 909,212.3 905.5,206.4 		"/>
		<polygon fill="#080808" points="909,214.5 916,214.5 919.5,220.4 916,226.3 909,226.3 905.5,220.4 		"/>
	</g>
</g>
<g>
	<g>
		<polygon fill="#080808" points="895.8,137.4 902.8,137.4 906.3,143.3 902.8,149.2 895.8,149.2 892.4,143.3 		"/>
		<polygon fill="#080808" points="895.8,151.5 902.8,151.5 906.3,157.4 902.8,163.3 895.8,163.3 892.4,157.4 		"/>
		<polygon fill="#080808" points="895.8,165.5 902.8,165.5 906.3,171.4 902.8,177.3 895.8,177.3 892.4,171.4 		"/>
		<polygon fill="#080808" points="895.8,179.4 902.8,179.4 906.3,185.3 902.8,191.2 895.8,191.2 892.4,185.3 		"/>
		<polygon fill="#080808" points="895.8,193.5 902.8,193.5 906.3,199.4 902.8,205.3 895.8,205.3 892.4,199.4 		"/>
		<polygon fill="#080808" points="895.8,207.5 902.8,207.5 906.3,213.4 902.8,219.3 895.8,219.3 892.4,213.4 		"/>
	</g>
	<g>
		<polygon fill="#080808" points="882.7,130.4 889.7,130.4 893.1,136.3 889.7,142.2 882.7,142.2 879.2,136.3 		"/>
		<polygon fill="#080808" points="882.7,144.5 889.7,144.5 893.1,150.4 889.7,156.3 882.7,156.3 879.2,150.4 		"/>
		<polygon fill="#080808" points="882.7,158.5 889.7,158.5 893.1,164.4 889.7,170.3 882.7,170.3 879.2,164.4 		"/>
		<polygon fill="#080808" points="882.7,172.4 889.7,172.4 893.1,178.3 889.7,184.2 882.7,184.2 879.2,178.3 		"/>
		<polygon fill="#080808" points="882.7,186.5 889.7,186.5 893.1,192.4 889.7,198.3 882.7,198.3 879.2,192.4 		"/>
		<polygon fill="#080808" points="882.7,200.5 889.7,200.5 893.1,206.4 889.7,212.3 882.7,212.3 879.2,206.4 		"/>
		<polygon fill="#080808" points="882.7,214.5 889.7,214.5 893.1,220.4 889.7,226.3 882.7,226.3 879.2,220.4 		"/>
	</g>
</g>
<g>
	<g>
		<polygon fill="#080808" points="869.5,137.4 876.5,137.4 880,143.3 876.5,149.2 869.5,149.2 866,143.3 		"/>
		<polygon fill="#080808" points="869.5,151.5 876.5,151.5 880,157.4 876.5,163.3 869.5,163.3 866,157.4 		"/>
		<polygon fill="#080808" points="869.5,165.5 876.5,165.5 880,171.4 876.5,177.3 869.5,177.3 866,171.4 		"/>
		<polygon fill="#080808" points="869.5,179.4 876.5,179.4 880,185.3 876.5,191.2 869.5,191.2 866,185.3 		"/>
		<polygon fill="#080808" points="869.5,193.5 876.5,193.5 880,199.4 876.5,205.3 869.5,205.3 866,199.4 		"/>
		<polygon fill="#080808" points="869.5,207.5 876.5,207.5 880,213.4 876.5,219.3 869.5,219.3 866,213.4 		"/>
	</g>
	<g>
		<polygon fill="#080808" points="856.4,130.4 863.3,130.4 866.8,136.3 863.3,142.2 856.4,142.2 852.9,136.3 		"/>
		<polygon fill="#080808" points="856.4,144.5 863.3,144.5 866.8,150.4 863.3,156.3 856.4,156.3 852.9,150.4 		"/>
		<polygon fill="#080808" points="856.4,158.5 863.3,158.5 866.8,164.4 863.3,170.3 856.4,170.3 852.9,164.4 		"/>
		<polygon fill="#080808" points="856.4,172.4 863.3,172.4 866.8,178.3 863.3,184.2 856.4,184.2 852.9,178.3 		"/>
		<polygon fill="#080808" points="856.4,186.5 863.3,186.5 866.8,192.4 863.3,198.3 856.4,198.3 852.9,192.4 		"/>
		<polygon fill="#080808" points="856.4,200.5 863.3,200.5 866.8,206.4 863.3,212.3 856.4,212.3 852.9,206.4 		"/>
		<polygon fill="#080808" points="856.4,214.5 863.3,214.5 866.8,220.4 863.3,226.3 856.4,226.3 852.9,220.4 		"/>
	</g>
</g>
<g>
	<g>
		<polygon fill="#080808" points="843.2,137.4 850.2,137.4 853.7,143.3 850.2,149.2 843.2,149.2 839.7,143.3 		"/>
		<polygon fill="#080808" points="843.2,151.5 850.2,151.5 853.7,157.4 850.2,163.3 843.2,163.3 839.7,157.4 		"/>
		<polygon fill="#080808" points="843.2,165.5 850.2,165.5 853.7,171.4 850.2,177.3 843.2,177.3 839.7,171.4 		"/>
		<polygon fill="#080808" points="843.2,179.4 850.2,179.4 853.7,185.3 850.2,191.2 843.2,191.2 839.7,185.3 		"/>
		<polygon fill="#080808" points="843.2,193.5 850.2,193.5 853.7,199.4 850.2,205.3 843.2,205.3 839.7,199.4 		"/>
		<polygon fill="#080808" points="843.2,207.5 850.2,207.5 853.7,213.4 850.2,219.3 843.2,219.3 839.7,213.4 		"/>
	</g>
</g>
<radialGradient id="SVGID_49_" cx="383.6583" cy="1562.2885" r="7.5" gradientTransform="matrix(-1.0126 0 0 0.6333 1332.9952 -881.875)" gradientUnits="userSpaceOnUse">
	<stop  offset="0" style="stop-color:#FFFFFF"/>
	<stop  offset="1" style="stop-color:#2EED00"/>
</radialGradient>
<polygon fill="url(#SVGID_49_)" stroke="#030000" stroke-miterlimit="10" points="936.9,112.3 952.1,112.3 952.1,102.8 936.9,102.8 
	"/>
<radialGradient id="SVGID_52_" cx="405.6583" cy="1562.2885" r="7.5" gradientTransform="matrix(-1.0126 0 0 0.6333 1332.9952 -881.875)" gradientUnits="userSpaceOnUse">
	<stop  offset="0" style="stop-color:#FFFFFF"/>
	<stop  offset="1" style="stop-color:#2EED00"/>
</radialGradient>
<polygon fill="url(#SVGID_52_)" stroke="#030000" stroke-miterlimit="10" points="914.6,112.3 929.8,112.3 929.8,102.8 914.6,102.8 
	"/>
<radialGradient id="SVGID_53_" cx="427.6583" cy="1562.2885" r="7.5" gradientTransform="matrix(-1.0126 0 0 0.6333 1332.9952 -881.875)" gradientUnits="userSpaceOnUse">
	<stop  offset="0" style="stop-color:#FFFFFF"/>
	<stop  offset="1" style="stop-color:#2EED00"/>
</radialGradient>
<polygon fill="url(#SVGID_53_)" stroke="#030000" stroke-miterlimit="10" points="892.4,112.3 907.5,112.3 907.5,102.8 892.4,102.8 
	"/>
<radialGradient id="SVGID_55_" cx="449.6583" cy="1562.2885" r="7.5" gradientTransform="matrix(-1.0126 0 0 0.6333 1332.9952 -881.875)" gradientUnits="userSpaceOnUse">
	<stop  offset="0" style="stop-color:#FFFFFF"/>
	<stop  offset="1" style="stop-color:#2EED00"/>
</radialGradient>
<polygon fill="url(#SVGID_55_)" stroke="#030000" stroke-miterlimit="10" points="870.1,112.3 885.3,112.3 885.3,102.8 870.1,102.8 
	"/>
<ellipse fill="#1C1D20" cx="851.4" cy="52.8" rx="8.6" ry="8.5"/>
<ellipse fill="#1C1D20" stroke="#666666" stroke-miterlimit="10" cx="851.4" cy="52.8" rx="6.1" ry="6"/>
<g>
	
		<rect x="773.4" y="33.8" transform="matrix(-1 -4.435042e-11 4.435042e-11 -1 1600.4294 259.6487)" fill="none" stroke="#1C1D20" stroke-miterlimit="10" width="53.7" height="192"/>
	<g>
		
			<rect x="814.9" y="63.7" transform="matrix(-1 -4.446056e-11 4.446056e-11 -1 1637.8951 134.372)" fill="#1C1D20" width="8.1" height="6.9"/>
		
			<rect x="814.9" y="74.5" transform="matrix(-1 -4.569557e-11 4.569557e-11 -1 1637.8951 155.8778)" fill="#1C1D20" width="8.1" height="6.9"/>
		
			<rect x="814.9" y="85.2" transform="matrix(-1 -4.446056e-11 4.446056e-11 -1 1637.8951 177.3837)" fill="#1C1D20" width="8.1" height="6.9"/>
		
			<rect x="814.9" y="96" transform="matrix(-1 -4.434820e-11 4.434820e-11 -1 1637.8951 198.8895)" fill="#1C1D20" width="8.1" height="6.9"/>
		
			<rect x="814.9" y="106.7" transform="matrix(-1 -4.322554e-11 4.322554e-11 -1 1637.8951 220.3954)" fill="#1C1D20" width="8.1" height="6.9"/>
		
			<rect x="814.9" y="117.5" transform="matrix(-1 -4.322554e-11 4.322554e-11 -1 1637.8951 241.9012)" fill="#1C1D20" width="8.1" height="6.9"/>
		
			<rect x="814.9" y="128.2" transform="matrix(-1 -4.446056e-11 4.446056e-11 -1 1637.8951 263.407)" fill="#1C1D20" width="8.1" height="6.9"/>
		
			<rect x="814.9" y="139" transform="matrix(-1 -4.569557e-11 4.569557e-11 -1 1637.8951 284.9129)" fill="#1C1D20" width="8.1" height="6.9"/>
		
			<rect x="814.9" y="149.8" transform="matrix(-1 -4.440460e-11 4.440460e-11 -1 1637.8951 306.4187)" fill="#1C1D20" width="8.1" height="6.9"/>
		
			<rect x="814.9" y="160.5" transform="matrix(-1 -4.446056e-11 4.446056e-11 -1 1637.8951 327.9246)" fill="#1C1D20" width="8.1" height="6.9"/>
		
			<rect x="814.9" y="171.3" transform="matrix(-1 -4.199053e-11 4.199053e-11 -1 1637.8951 349.4304)" fill="#1C1D20" width="8.1" height="6.9"/>
		
			<rect x="814.9" y="182" transform="matrix(-1 -4.440460e-11 4.440460e-11 -1 1637.8951 370.9362)" fill="#1C1D20" width="8.1" height="6.9"/>
		
			<rect x="814.9" y="192.8" transform="matrix(-1 -4.446056e-11 4.446056e-11 -1 1637.8951 392.4421)" fill="#1C1D20" width="8.1" height="6.9"/>
		
			<rect x="814.9" y="203.5" transform="matrix(-1 -4.569557e-11 4.569557e-11 -1 1637.8951 413.9479)" fill="#1C1D20" width="8.1" height="6.9"/>
		
			<rect x="814.9" y="214.3" transform="matrix(-1 -4.440460e-11 4.440460e-11 -1 1637.8951 435.4537)" fill="#1C1D20" width="8.1" height="6.9"/>
	</g>
	<g>
		
			<rect x="802.7" y="63.7" transform="matrix(-1 -4.569557e-11 4.569557e-11 -1 1613.593 134.372)" fill="#1C1D20" width="8.1" height="6.9"/>
		
			<rect x="802.7" y="74.5" transform="matrix(-1 -4.446056e-11 4.446056e-11 -1 1613.593 155.8778)" fill="#1C1D20" width="8.1" height="6.9"/>
		
			<rect x="802.7" y="85.2" transform="matrix(-1 -4.434820e-11 4.434820e-11 -1 1613.593 177.3837)" fill="#1C1D20" width="8.1" height="6.9"/>
		
			<rect x="802.7" y="96" transform="matrix(-1 -4.322554e-11 4.322554e-11 -1 1613.593 198.8895)" fill="#1C1D20" width="8.1" height="6.9"/>
		
			<rect x="802.7" y="106.7" transform="matrix(-1 -4.446056e-11 4.446056e-11 -1 1613.593 220.3954)" fill="#1C1D20" width="8.1" height="6.9"/>
		
			<rect x="802.7" y="117.5" transform="matrix(-1 -4.446056e-11 4.446056e-11 -1 1613.593 241.9012)" fill="#1C1D20" width="8.1" height="6.9"/>
		
			<rect x="802.7" y="128.2" transform="matrix(-1 -4.563961e-11 4.563961e-11 -1 1613.593 263.407)" fill="#1C1D20" width="8.1" height="6.9"/>
		
			<rect x="802.7" y="139" transform="matrix(-1 -4.446056e-11 4.446056e-11 -1 1613.593 284.9129)" fill="#1C1D20" width="8.1" height="6.9"/>
		
			<rect x="802.7" y="149.8" transform="matrix(-1 -4.446056e-11 4.446056e-11 -1 1613.593 306.4187)" fill="#1C1D20" width="8.1" height="6.9"/>
		
			<rect x="802.7" y="160.5" transform="matrix(-1 -4.316959e-11 4.316959e-11 -1 1613.593 327.9246)" fill="#1C1D20" width="8.1" height="6.9"/>
		
			<rect x="802.7" y="171.3" transform="matrix(-1 -4.446056e-11 4.446056e-11 -1 1613.593 349.4304)" fill="#1C1D20" width="8.1" height="6.9"/>
		
			<rect x="802.7" y="182" transform="matrix(-1 -4.446056e-11 4.446056e-11 -1 1613.593 370.9362)" fill="#1C1D20" width="8.1" height="6.9"/>
		
			<rect x="802.7" y="192.8" transform="matrix(-1 -4.563961e-11 4.563961e-11 -1 1613.593 392.4421)" fill="#1C1D20" width="8.1" height="6.9"/>
		
			<rect x="802.7" y="203.5" transform="matrix(-1 -4.446056e-11 4.446056e-11 -1 1613.593 413.9479)" fill="#1C1D20" width="8.1" height="6.9"/>
		
			<rect x="802.7" y="214.3" transform="matrix(-1 -4.446056e-11 4.446056e-11 -1 1613.593 435.4537)" fill="#1C1D20" width="8.1" height="6.9"/>
	</g>
	<g>
		
			<rect x="790.6" y="63.7" transform="matrix(-1 -4.434820e-11 4.434820e-11 -1 1589.291 134.372)" fill="#1C1D20" width="8.1" height="6.9"/>
		
			<rect x="790.6" y="74.5" transform="matrix(-1 -4.322554e-11 4.322554e-11 -1 1589.291 155.8778)" fill="#1C1D20" width="8.1" height="6.9"/>
		
			<rect x="790.6" y="85.2" transform="matrix(-1 -4.322554e-11 4.322554e-11 -1 1589.291 177.3837)" fill="#1C1D20" width="8.1" height="6.9"/>
		
			<rect x="790.6" y="96" transform="matrix(-1 -4.446056e-11 4.446056e-11 -1 1589.291 198.8895)" fill="#1C1D20" width="8.1" height="6.9"/>
		
			<rect x="790.6" y="106.7" transform="matrix(-1 -4.569557e-11 4.569557e-11 -1 1589.291 220.3954)" fill="#1C1D20" width="8.1" height="6.9"/>
		
			<rect x="790.6" y="117.5" transform="matrix(-1 -4.446056e-11 4.446056e-11 -1 1589.291 241.9012)" fill="#1C1D20" width="8.1" height="6.9"/>
		
			<rect x="790.6" y="128.2" transform="matrix(-1 -4.446056e-11 4.446056e-11 -1 1589.291 263.407)" fill="#1C1D20" width="8.1" height="6.9"/>
		
			<rect x="790.6" y="139" transform="matrix(-1 -4.322554e-11 4.322554e-11 -1 1589.291 284.9129)" fill="#1C1D20" width="8.1" height="6.9"/>
		
			<rect x="790.6" y="149.8" transform="matrix(-1 -4.440460e-11 4.440460e-11 -1 1589.291 306.4187)" fill="#1C1D20" width="8.1" height="6.9"/>
		
			<rect x="790.6" y="160.5" transform="matrix(-1 -4.446056e-11 4.446056e-11 -1 1589.291 327.9246)" fill="#1C1D20" width="8.1" height="6.9"/>
		
			<rect x="790.6" y="171.3" transform="matrix(-1 -4.569557e-11 4.569557e-11 -1 1589.291 349.4304)" fill="#1C1D20" width="8.1" height="6.9"/>
		
			<rect x="790.6" y="182" transform="matrix(-1 -4.316959e-11 4.316959e-11 -1 1589.291 370.9362)" fill="#1C1D20" width="8.1" height="6.9"/>
		
			<rect x="790.6" y="192.8" transform="matrix(-1 -4.446056e-11 4.446056e-11 -1 1589.291 392.4421)" fill="#1C1D20" width="8.1" height="6.9"/>
		
			<rect x="790.6" y="203.5" transform="matrix(-1 -4.322554e-11 4.322554e-11 -1 1589.291 413.9479)" fill="#1C1D20" width="8.1" height="6.9"/>
		
			<rect x="790.6" y="214.3" transform="matrix(-1 -4.440460e-11 4.440460e-11 -1 1589.291 435.4537)" fill="#1C1D20" width="8.1" height="6.9"/>
	</g>
	<g>
		
			<rect x="778.4" y="63.7" transform="matrix(-1 -4.322554e-11 4.322554e-11 -1 1564.9889 134.372)" fill="#1C1D20" width="8.1" height="6.9"/>
		
			<rect x="778.4" y="74.5" transform="matrix(-1 -4.446056e-11 4.446056e-11 -1 1564.9889 155.8778)" fill="#1C1D20" width="8.1" height="6.9"/>
		
			<rect x="778.4" y="85.2" transform="matrix(-1 -4.446056e-11 4.446056e-11 -1 1564.9889 177.3837)" fill="#1C1D20" width="8.1" height="6.9"/>
		
			<rect x="778.4" y="96" transform="matrix(-1 -4.569557e-11 4.569557e-11 -1 1564.9889 198.8895)" fill="#1C1D20" width="8.1" height="6.9"/>
		
			<rect x="778.4" y="106.7" transform="matrix(-1 -4.446056e-11 4.446056e-11 -1 1564.9889 220.3954)" fill="#1C1D20" width="8.1" height="6.9"/>
		
			<rect x="778.4" y="117.5" transform="matrix(-1 -4.434820e-11 4.434820e-11 -1 1564.9889 241.9012)" fill="#1C1D20" width="8.1" height="6.9"/>
		
			<rect x="778.4" y="128.2" transform="matrix(-1 -4.316959e-11 4.316959e-11 -1 1564.9889 263.407)" fill="#1C1D20" width="8.1" height="6.9"/>
		
			<rect x="778.4" y="139" transform="matrix(-1 -4.569557e-11 4.569557e-11 -1 1564.9889 284.9129)" fill="#1C1D20" width="8.1" height="6.9"/>
		
			<rect x="778.4" y="149.8" transform="matrix(-1 -4.446056e-11 4.446056e-11 -1 1564.9889 306.4187)" fill="#1C1D20" width="8.1" height="6.9"/>
		
			<rect x="778.4" y="160.5" transform="matrix(-1 -4.563961e-11 4.563961e-11 -1 1564.9889 327.9246)" fill="#1C1D20" width="8.1" height="6.9"/>
		
			<rect x="778.4" y="171.3" transform="matrix(-1 -4.446056e-11 4.446056e-11 -1 1564.9889 349.4304)" fill="#1C1D20" width="8.1" height="6.9"/>
		
			<rect x="778.4" y="182" transform="matrix(-1 -4.322554e-11 4.322554e-11 -1 1564.9889 370.9362)" fill="#1C1D20" width="8.1" height="6.9"/>
		
			<rect x="778.4" y="192.8" transform="matrix(-1 -4.193458e-11 4.193458e-11 -1 1564.9889 392.4421)" fill="#1C1D20" width="8.1" height="6.9"/>
		
			<rect x="778.4" y="203.5" transform="matrix(-1 -4.446056e-11 4.446056e-11 -1 1564.9889 413.9479)" fill="#1C1D20" width="8.1" height="6.9"/>
		
			<rect x="778.4" y="214.3" transform="matrix(-1 -4.569557e-11 4.569557e-11 -1 1564.9889 435.4537)" fill="#1C1D20" width="8.1" height="6.9"/>
	</g>
	
		<linearGradient id="SVGID_57_" gradientUnits="userSpaceOnUse" x1="532.7255" y1="222.366" x2="532.7255" y2="42.6993" gradientTransform="matrix(-1 0 0 1 1312.8481 0)">
		<stop  offset="0" style="stop-color:#292829"/>
		<stop  offset="3.746109e-02" style="stop-color:#FFFFFF"/>
		<stop  offset="8.106001e-02" style="stop-color:#A1A4A5"/>
		<stop  offset="0.944" style="stop-color:#C5C5C5"/>
		<stop  offset="0.9678" style="stop-color:#FFFFFF"/>
		<stop  offset="1" style="stop-color:#292829"/>
	</linearGradient>
	<path fill="url(#SVGID_57_)" d="M779.8,222.4h0.6c1.7,0,3-1.3,3-3V45.7c0-1.7-1.3-3-3-3h-0.6c-1.7,0-3,1.3-3,3v173.7
		C776.8,221,778.1,222.4,779.8,222.4z"/>
</g>
<g>
	
		<rect x="711.6" y="33.8" transform="matrix(-1 -4.452850e-11 4.452850e-11 -1 1476.8939 259.6487)" fill="none" stroke="#1C1D20" stroke-miterlimit="10" width="53.7" height="192"/>
	
		<linearGradient id="SVGID_60_" gradientUnits="userSpaceOnUse" x1="594.4932" y1="222.366" x2="594.4932" y2="42.6993" gradientTransform="matrix(-1 0 0 1 1312.8481 0)">
		<stop  offset="0" style="stop-color:#292829"/>
		<stop  offset="3.746109e-02" style="stop-color:#FFFFFF"/>
		<stop  offset="8.106001e-02" style="stop-color:#A1A4A5"/>
		<stop  offset="0.944" style="stop-color:#C5C5C5"/>
		<stop  offset="0.9678" style="stop-color:#FFFFFF"/>
		<stop  offset="1" style="stop-color:#292829"/>
	</linearGradient>
	<path fill="url(#SVGID_60_)" d="M718,222.4h0.6c1.7,0,3-1.3,3-3V45.7c0-1.7-1.3-3-3-3H718c-1.7,0-3,1.3-3,3v173.7
		C715,221,716.4,222.4,718,222.4z"/>
</g>
<g>
	
		<rect x="649.8" y="33.8" transform="matrix(-1 -4.435042e-11 4.435042e-11 -1 1353.3584 259.6487)" fill="none" stroke="#1C1D20" stroke-miterlimit="10" width="53.7" height="192"/>
	<g>
		
			<rect x="691.4" y="63.7" transform="matrix(-1 -4.322554e-11 4.322554e-11 -1 1390.8241 134.372)" fill="#1C1D20" width="8.1" height="6.9"/>
		
			<rect x="691.4" y="74.5" transform="matrix(-1 -4.446056e-11 4.446056e-11 -1 1390.8241 155.8778)" fill="#1C1D20" width="8.1" height="6.9"/>
		
			<rect x="691.4" y="85.2" transform="matrix(-1 -4.446056e-11 4.446056e-11 -1 1390.8241 177.3837)" fill="#1C1D20" width="8.1" height="6.9"/>
		
			<rect x="691.4" y="96" transform="matrix(-1 -4.569557e-11 4.569557e-11 -1 1390.8241 198.8895)" fill="#1C1D20" width="8.1" height="6.9"/>
		
			<rect x="691.4" y="106.7" transform="matrix(-1 -4.446056e-11 4.446056e-11 -1 1390.8241 220.3954)" fill="#1C1D20" width="8.1" height="6.9"/>
		
			<rect x="691.4" y="117.5" transform="matrix(-1 -4.434820e-11 4.434820e-11 -1 1390.8241 241.9012)" fill="#1C1D20" width="8.1" height="6.9"/>
		
			<rect x="691.4" y="128.2" transform="matrix(-1 -4.322554e-11 4.322554e-11 -1 1390.8241 263.407)" fill="#1C1D20" width="8.1" height="6.9"/>
		
			<rect x="691.4" y="139" transform="matrix(-1 -4.440460e-11 4.440460e-11 -1 1390.8241 284.9129)" fill="#1C1D20" width="8.1" height="6.9"/>
		
			<rect x="691.4" y="149.8" transform="matrix(-1 -4.446056e-11 4.446056e-11 -1 1390.8241 306.4187)" fill="#1C1D20" width="8.1" height="6.9"/>
		
			<rect x="691.4" y="160.5" transform="matrix(-1 -4.569557e-11 4.569557e-11 -1 1390.8241 327.9246)" fill="#1C1D20" width="8.1" height="6.9"/>
		
			<rect x="691.4" y="171.3" transform="matrix(-1 -4.440460e-11 4.440460e-11 -1 1390.8241 349.4304)" fill="#1C1D20" width="8.1" height="6.9"/>
		
			<rect x="691.4" y="182" transform="matrix(-1 -4.322554e-11 4.322554e-11 -1 1390.8241 370.9362)" fill="#1C1D20" width="8.1" height="6.9"/>
		
			<rect x="691.4" y="192.8" transform="matrix(-1 -4.322554e-11 4.322554e-11 -1 1390.8241 392.4421)" fill="#1C1D20" width="8.1" height="6.9"/>
		
			<rect x="691.4" y="203.5" transform="matrix(-1 -4.440460e-11 4.440460e-11 -1 1390.8241 413.9479)" fill="#1C1D20" width="8.1" height="6.9"/>
		
			<rect x="691.4" y="214.3" transform="matrix(-1 -4.446056e-11 4.446056e-11 -1 1390.8241 435.4537)" fill="#1C1D20" width="8.1" height="6.9"/>
	</g>
	<g>
		
			<rect x="679.2" y="63.7" transform="matrix(-1 -4.446056e-11 4.446056e-11 -1 1366.5221 134.372)" fill="#1C1D20" width="8.1" height="6.9"/>
		
			<rect x="679.2" y="74.5" transform="matrix(-1 -4.446056e-11 4.446056e-11 -1 1366.5221 155.8778)" fill="#1C1D20" width="8.1" height="6.9"/>
		
			<rect x="679.2" y="85.2" transform="matrix(-1 -4.446056e-11 4.446056e-11 -1 1366.5221 177.3837)" fill="#1C1D20" width="8.1" height="6.9"/>
		
			<rect x="679.2" y="96" transform="matrix(-1 -4.446056e-11 4.446056e-11 -1 1366.5221 198.8895)" fill="#1C1D20" width="8.1" height="6.9"/>
		
			<rect x="679.2" y="106.7" transform="matrix(-1 -4.434820e-11 4.434820e-11 -1 1366.5221 220.3954)" fill="#1C1D20" width="8.1" height="6.9"/>
		
			<rect x="679.2" y="117.5" transform="matrix(-1 -4.322554e-11 4.322554e-11 -1 1366.5221 241.9012)" fill="#1C1D20" width="8.1" height="6.9"/>
		
			<rect x="679.2" y="128.2" transform="matrix(-1 -4.446056e-11 4.446056e-11 -1 1366.5221 263.407)" fill="#1C1D20" width="8.1" height="6.9"/>
		
			<rect x="679.2" y="139" transform="matrix(-1 -4.569557e-11 4.569557e-11 -1 1366.5221 284.9129)" fill="#1C1D20" width="8.1" height="6.9"/>
		
			<rect x="679.2" y="149.8" transform="matrix(-1 -4.563961e-11 4.563961e-11 -1 1366.5221 306.4187)" fill="#1C1D20" width="8.1" height="6.9"/>
		
			<rect x="679.2" y="160.5" transform="matrix(-1 -4.446056e-11 4.446056e-11 -1 1366.5221 327.9246)" fill="#1C1D20" width="8.1" height="6.9"/>
		
			<rect x="679.2" y="171.3" transform="matrix(-1 -4.446056e-11 4.446056e-11 -1 1366.5221 349.4304)" fill="#1C1D20" width="8.1" height="6.9"/>
		
			<rect x="679.2" y="182" transform="matrix(-1 -4.316959e-11 4.316959e-11 -1 1366.5221 370.9362)" fill="#1C1D20" width="8.1" height="6.9"/>
		
			<rect x="679.2" y="192.8" transform="matrix(-1 -4.446056e-11 4.446056e-11 -1 1366.5221 392.4421)" fill="#1C1D20" width="8.1" height="6.9"/>
		
			<rect x="679.2" y="203.5" transform="matrix(-1 -4.446056e-11 4.446056e-11 -1 1366.5221 413.9479)" fill="#1C1D20" width="8.1" height="6.9"/>
		
			<rect x="679.2" y="214.3" transform="matrix(-1 -4.563961e-11 4.563961e-11 -1 1366.5221 435.4537)" fill="#1C1D20" width="8.1" height="6.9"/>
	</g>
	<g>
		
			<rect x="667.1" y="63.7" transform="matrix(-1 -4.569557e-11 4.569557e-11 -1 1342.22 134.372)" fill="#1C1D20" width="8.1" height="6.9"/>
		
			<rect x="667.1" y="74.5" transform="matrix(-1 -4.446056e-11 4.446056e-11 -1 1342.22 155.8778)" fill="#1C1D20" width="8.1" height="6.9"/>
		
			<rect x="667.1" y="85.2" transform="matrix(-1 -4.434820e-11 4.434820e-11 -1 1342.22 177.3837)" fill="#1C1D20" width="8.1" height="6.9"/>
		
			<rect x="667.1" y="96" transform="matrix(-1 -4.322554e-11 4.322554e-11 -1 1342.22 198.8895)" fill="#1C1D20" width="8.1" height="6.9"/>
		
			<rect x="667.1" y="106.7" transform="matrix(-1 -4.446056e-11 4.446056e-11 -1 1342.22 220.3954)" fill="#1C1D20" width="8.1" height="6.9"/>
		
			<rect x="667.1" y="117.5" transform="matrix(-1 -4.446056e-11 4.446056e-11 -1 1342.22 241.9012)" fill="#1C1D20" width="8.1" height="6.9"/>
		
			<rect x="667.1" y="128.2" transform="matrix(-1 -4.569557e-11 4.569557e-11 -1 1342.22 263.407)" fill="#1C1D20" width="8.1" height="6.9"/>
		
			<rect x="667.1" y="139" transform="matrix(-1 -4.440460e-11 4.440460e-11 -1 1342.22 284.9129)" fill="#1C1D20" width="8.1" height="6.9"/>
		
			<rect x="667.1" y="149.8" transform="matrix(-1 -4.446056e-11 4.446056e-11 -1 1342.22 306.4187)" fill="#1C1D20" width="8.1" height="6.9"/>
		
			<rect x="667.1" y="160.5" transform="matrix(-1 -4.322554e-11 4.322554e-11 -1 1342.22 327.9246)" fill="#1C1D20" width="8.1" height="6.9"/>
		
			<rect x="667.1" y="171.3" transform="matrix(-1 -4.440460e-11 4.440460e-11 -1 1342.22 349.4304)" fill="#1C1D20" width="8.1" height="6.9"/>
		
			<rect x="667.1" y="182" transform="matrix(-1 -4.446056e-11 4.446056e-11 -1 1342.22 370.9362)" fill="#1C1D20" width="8.1" height="6.9"/>
		
			<rect x="667.1" y="192.8" transform="matrix(-1 -4.446056e-11 4.446056e-11 -1 1342.22 392.4421)" fill="#1C1D20" width="8.1" height="6.9"/>
		
			<rect x="667.1" y="203.5" transform="matrix(-1 -4.440460e-11 4.440460e-11 -1 1342.22 413.9479)" fill="#1C1D20" width="8.1" height="6.9"/>
		
			<rect x="667.1" y="214.3" transform="matrix(-1 -4.446056e-11 4.446056e-11 -1 1342.22 435.4537)" fill="#1C1D20" width="8.1" height="6.9"/>
	</g>
	<g>
		
			<rect x="654.9" y="63.7" transform="matrix(-1 -4.446056e-11 4.446056e-11 -1 1317.918 134.372)" fill="#1C1D20" width="8.1" height="6.9"/>
		
			<rect x="654.9" y="74.5" transform="matrix(-1 -4.434820e-11 4.434820e-11 -1 1317.918 155.8778)" fill="#1C1D20" width="8.1" height="6.9"/>
		
			<rect x="654.9" y="85.2" transform="matrix(-1 -4.322554e-11 4.322554e-11 -1 1317.918 177.3837)" fill="#1C1D20" width="8.1" height="6.9"/>
		
			<rect x="654.9" y="96" transform="matrix(-1 -4.446056e-11 4.446056e-11 -1 1317.918 198.8895)" fill="#1C1D20" width="8.1" height="6.9"/>
		
			<rect x="654.9" y="106.7" transform="matrix(-1 -4.446056e-11 4.446056e-11 -1 1317.918 220.3954)" fill="#1C1D20" width="8.1" height="6.9"/>
		
			<rect x="654.9" y="117.5" transform="matrix(-1 -4.569557e-11 4.569557e-11 -1 1317.918 241.9012)" fill="#1C1D20" width="8.1" height="6.9"/>
		
			<rect x="654.9" y="128.2" transform="matrix(-1 -4.446056e-11 4.446056e-11 -1 1317.918 263.407)" fill="#1C1D20" width="8.1" height="6.9"/>
		
			<rect x="654.9" y="139" transform="matrix(-1 -4.446056e-11 4.446056e-11 -1 1317.918 284.9129)" fill="#1C1D20" width="8.1" height="6.9"/>
		
			<rect x="654.9" y="149.8" transform="matrix(-1 -4.316959e-11 4.316959e-11 -1 1317.918 306.4187)" fill="#1C1D20" width="8.1" height="6.9"/>
		
			<rect x="654.9" y="160.5" transform="matrix(-1 -4.446056e-11 4.446056e-11 -1 1317.918 327.9246)" fill="#1C1D20" width="8.1" height="6.9"/>
		
			<rect x="654.9" y="171.3" transform="matrix(-1 -4.569557e-11 4.569557e-11 -1 1317.918 349.4304)" fill="#1C1D20" width="8.1" height="6.9"/>
		
			<rect x="654.9" y="182" transform="matrix(-1 -4.440460e-11 4.440460e-11 -1 1317.918 370.9362)" fill="#1C1D20" width="8.1" height="6.9"/>
		
			<rect x="654.9" y="192.8" transform="matrix(-1 -4.446056e-11 4.446056e-11 -1 1317.918 392.4421)" fill="#1C1D20" width="8.1" height="6.9"/>
		
			<rect x="654.9" y="203.5" transform="matrix(-1 -4.199053e-11 4.199053e-11 -1 1317.918 413.9479)" fill="#1C1D20" width="8.1" height="6.9"/>
		
			<rect x="654.9" y="214.3" transform="matrix(-1 -4.440460e-11 4.440460e-11 -1 1317.918 435.4537)" fill="#1C1D20" width="8.1" height="6.9"/>
	</g>
	
		<linearGradient id="SVGID_62_" gradientUnits="userSpaceOnUse" x1="656.2609" y1="222.366" x2="656.2609" y2="42.6993" gradientTransform="matrix(-1 0 0 1 1312.8481 0)">
		<stop  offset="0" style="stop-color:#292829"/>
		<stop  offset="3.746109e-02" style="stop-color:#FFFFFF"/>
		<stop  offset="8.106001e-02" style="stop-color:#A1A4A5"/>
		<stop  offset="0.944" style="stop-color:#C5C5C5"/>
		<stop  offset="0.9678" style="stop-color:#FFFFFF"/>
		<stop  offset="1" style="stop-color:#292829"/>
	</linearGradient>
	<path fill="url(#SVGID_62_)" d="M656.3,222.4h0.6c1.7,0,3-1.3,3-3V45.7c0-1.7-1.3-3-3-3h-0.6c-1.7,0-3,1.3-3,3v173.7
		C653.3,221,654.6,222.4,656.3,222.4z"/>
</g>
<g>
	<path fill="#0F0F0F" d="M1252.5,89.8h-0.7c-2.2,0-3.9,1.7-3.9,3.9v7.1c0,1.6-1.3,2.8-2.9,2.8h-65.3c-1.6,0-2.9-1.3-2.9-2.8v-7.1
		c0-2.1-1.8-3.9-3.9-3.9h-0.7c-2.2,0-3.9,1.7-3.9,3.9v7.1c0,6.2,5.1,11.3,11.4,11.3h65.3c6.3,0,11.4-5,11.4-11.3v-7.1
		C1256.4,91.5,1254.6,89.8,1252.5,89.8z"/>
</g>
<g>
	<path fill="#0F0F0F" d="M1146.3,146.8h-0.8c-2.6,0-4.6,2.1-4.6,4.6v8.4c0,1.8-1.5,3.3-3.4,3.3H844.6c-1.9,0-3.4-1.5-3.4-3.3v-8.4
		c0-2.5-2.1-4.6-4.6-4.6h-0.8c-2.6,0-4.6,2.1-4.6,4.6v8.4c0,7.4,6,13.3,13.5,13.3h292.9c7.5,0,13.5-6,13.5-13.3v-8.4
		C1151,148.9,1148.9,146.8,1146.3,146.8z"/>
</g>
</svg>
