<?xml version="1.0" encoding="utf-8"?>
<!-- Generator: Adobe Illustrator 21.0.0, SVG Export Plug-In . SVG Version: 6.00 Build 0)  -->
<svg version="1.1" id="图层_1" xmlns="http://www.w3.org/2000/svg" xmlns:xlink="http://www.w3.org/1999/xlink" x="0px" y="0px"
	 width="1275.6px" height="252.3px" viewBox="0 0 1275.6 252.3" enable-background="new 0 0 1275.6 252.3" xml:space="preserve">
<g id="XMLID_23789_">
	<rect id="XMLID_16200_" x="0.5" y="0.5" fill="#AFADA3" width="1274.6" height="251.3"/>
	<g id="XMLID_16196_">
		<path id="XMLID_16197_" fill="#EFEFEF" d="M1274.6,1v125.1v125.1H1V126.1V1H1274.6 M1275.6,0H0v126.1v126.1h1275.6V126.1V0
			L1275.6,0z"/>
	</g>
</g>
<path id="XMLID_23909_" fill="#9B9B9B" stroke="#111111" stroke-miterlimit="10" d="M1267,114.7c0,3.2-2.7,5.9-6.1,5.9H973.3
	c-3.3,0-6.1-2.6-6.1-5.9V10.8c0-3.2,2.7-5.9,6.1-5.9H1261c3.3,0,6.1,2.6,6.1,5.9V114.7z"/>
<g id="XMLID_23808_">
	<polygon id="XMLID_23908_" fill="#0F0F0F" points="1064.2,108.9 1043.6,88.3 1043.6,37.2 1064.2,16.6 1115.3,16.6 1135.9,37.2 
		1135.9,88.3 1115.3,108.9 	"/>
	
		<circle id="XMLID_23907_" fill="none" stroke="#C1C1C1" stroke-width="2.8347" stroke-miterlimit="10" cx="1089.8" cy="62.7" r="38.6"/>
	
		<circle id="XMLID_23906_" fill="none" stroke="#C1C1C1" stroke-width="2.8347" stroke-miterlimit="10" cx="1089.8" cy="62.7" r="31.9"/>
	
		<circle id="XMLID_23905_" fill="none" stroke="#C1C1C1" stroke-width="2.8347" stroke-miterlimit="10" cx="1089.8" cy="62.7" r="25.7"/>
	
		<circle id="XMLID_23904_" fill="#C1C1C1" stroke="#C1C1C1" stroke-width="2.8347" stroke-miterlimit="10" cx="1089.8" cy="62.7" r="18.2"/>
	<circle id="XMLID_23903_" fill="#EDEDED" cx="1089.8" cy="62.7" r="17"/>
	<circle id="XMLID_23902_" fill="none" stroke="#2D2D2D" stroke-miterlimit="10" cx="1089.8" cy="62.7" r="14.3"/>
	<circle id="XMLID_23901_" fill="#FCF988" stroke="#2D2D2D" stroke-miterlimit="10" cx="1089.8" cy="62.7" r="8.9"/>
	<path id="XMLID_23900_" fill="none" stroke="#C1C1C1" stroke-width="2.8347" stroke-miterlimit="10" d="M1055,25.8l30.4,30.4
		c0,0,6,8,0,14L1055,99.6"/>
	<path id="XMLID_23899_" fill="none" stroke="#C1C1C1" stroke-width="2.8347" stroke-miterlimit="10" d="M1124.5,25.8l-30.4,30.4
		c0,0-6,8,0,14l30.4,29.4"/>
	<g id="XMLID_23854_">
		<g id="XMLID_23877_">
			<path id="XMLID_23898_" fill="#AFAEAE" d="M1045.8,24.2c0,3.6,3.1,6.6,7,6.6c3.9,0,7-2.9,7-6.6c0-3.6-3.1-6.6-7-6.6
				C1049,17.6,1045.8,20.5,1045.8,24.2"/>
			<ellipse id="XMLID_23897_" fill="none" stroke="#929292" stroke-miterlimit="10" cx="1052.8" cy="24.2" rx="7" ry="6.6"/>
			<path id="XMLID_23896_" fill="#AFAEAE" d="M1047.7,24.2c0,2.7,2.3,4.8,5.1,4.8c2.8,0,5.1-2.2,5.1-4.8c0-2.7-2.3-4.8-5.1-4.8
				C1050,19.3,1047.7,21.5,1047.7,24.2"/>
			<ellipse id="XMLID_23895_" fill="none" stroke="#929292" stroke-miterlimit="10" cx="1052.8" cy="24.2" rx="5.1" ry="4.8"/>
			<g id="XMLID_23882_">
				<g id="XMLID_23883_">
					<defs>
						<rect id="XMLID_23884_" x="1048" y="19.6" width="9.7" height="9.1"/>
					</defs>
					<clipPath id="XMLID_815_">
						<use xlink:href="#XMLID_23884_"  overflow="visible"/>
					</clipPath>
					<path id="XMLID_23894_" clip-path="url(#XMLID_815_)" fill="#BEBEBD" d="M1048,24.2c0,2.5,2.2,4.6,4.8,4.6c2.7,0,4.8-2,4.8-4.6
						c0-2.5-2.2-4.6-4.8-4.6C1050.1,19.6,1048,21.6,1048,24.2"/>
					<path id="XMLID_23893_" clip-path="url(#XMLID_815_)" fill="#C0C0C0" d="M1048.1,24.2c0,2.5,2.1,4.4,4.7,4.4
						c2.6,0,4.7-2,4.7-4.4c0-2.5-2.1-4.5-4.7-4.5C1050.2,19.7,1048.1,21.7,1048.1,24.2"/>
					<path id="XMLID_23892_" clip-path="url(#XMLID_815_)" fill="#C2C3C3" d="M1048.2,24.2c0,2.4,2.1,4.3,4.6,4.3
						c2.6,0,4.6-1.9,4.6-4.3c0-2.4-2.1-4.3-4.6-4.3C1050.3,19.8,1048.2,21.8,1048.2,24.2"/>
					<path id="XMLID_23891_" clip-path="url(#XMLID_815_)" fill="#C4C5C4" d="M1048.3,24.2c0,2.3,2,4.2,4.5,4.2
						c2.5,0,4.5-1.9,4.5-4.2c0-2.3-2-4.2-4.5-4.2C1050.3,19.9,1048.3,21.8,1048.3,24.2"/>
					<path id="XMLID_23890_" clip-path="url(#XMLID_815_)" fill="#C6C8C8" d="M1048.4,24.2c0,2.3,2,4.1,4.4,4.1
						c2.4,0,4.4-1.8,4.4-4.1c0-2.3-2-4.1-4.4-4.1C1050.4,20,1048.4,21.9,1048.4,24.2"/>
					<path id="XMLID_23889_" clip-path="url(#XMLID_815_)" fill="#C9CACB" d="M1048.5,24.2c0,2.2,1.9,4,4.3,4c2.4,0,4.3-1.8,4.3-4
						c0-2.2-1.9-4-4.3-4C1050.5,20.1,1048.5,21.9,1048.5,24.2"/>
					<path id="XMLID_23888_" clip-path="url(#XMLID_815_)" fill="#CBCDCD" d="M1048.7,24.2c0,2.2,1.9,3.9,4.2,3.9
						c2.3,0,4.2-1.8,4.2-3.9c0-2.2-1.9-3.9-4.2-3.9C1050.5,20.2,1048.7,22,1048.7,24.2"/>
					<path id="XMLID_23887_" clip-path="url(#XMLID_815_)" fill="#CCCFD0" d="M1048.8,24.2c0,2.1,1.8,3.8,4,3.8c2.2,0,4-1.7,4-3.8
						c0-2.1-1.8-3.8-4-3.8C1050.6,20.4,1048.8,22.1,1048.8,24.2"/>
					<path id="XMLID_23886_" clip-path="url(#XMLID_815_)" fill="#D0D2D2" d="M1048.9,24.2c0,2,1.8,3.7,3.9,3.7
						c2.2,0,3.9-1.7,3.9-3.7c0-2-1.8-3.7-3.9-3.7C1050.6,20.5,1048.9,22.1,1048.9,24.2"/>
					<path id="XMLID_23885_" clip-path="url(#XMLID_815_)" fill="#D2D4D5" d="M1049,24.2c0,2,1.7,3.6,3.8,3.6c2.1,0,3.8-1.6,3.8-3.6
						c0-2-1.7-3.6-3.8-3.6C1050.7,20.6,1049,22.2,1049,24.2"/>
				</g>
			</g>
			<polygon id="XMLID_23881_" fill="#605F5E" points="1053.5,26.9 1053.5,24.8 1055.7,24.8 1055.7,23.6 1053.5,23.6 1053.5,21.4 
				1052.2,21.4 1052.2,23.6 1049.9,23.6 1049.9,24.8 1052.2,24.8 1052.2,26.9 			"/>
			<path id="XMLID_23878_" fill="#221714" d="M1053.3,21.5v1.9v0.2h0.2h2.1v1h-2.1h-0.2v0.2v1.9h-1v-1.9v-0.2h-0.2h-2.1v-1h2.1h0.2
				v-0.2v-1.9H1053.3z M1052.1,23.5h-2.3v1.4h2.3V27h1.5v-2.1h2.3v-1.4h-2.3v-2.1h-1.5V23.5z"/>
		</g>
		<g id="XMLID_23855_">
			<path id="XMLID_23876_" fill="#AFAEAE" d="M1119.7,24.2c0,3.6,3.1,6.6,7,6.6c3.9,0,7-2.9,7-6.6c0-3.6-3.1-6.6-7-6.6
				C1122.8,17.6,1119.7,20.5,1119.7,24.2"/>
			<ellipse id="XMLID_23875_" fill="none" stroke="#929292" stroke-miterlimit="10" cx="1126.7" cy="24.2" rx="7" ry="6.6"/>
			<path id="XMLID_23874_" fill="#AFAEAE" d="M1121.5,24.2c0,2.7,2.3,4.8,5.1,4.8c2.8,0,5.1-2.2,5.1-4.8c0-2.7-2.3-4.8-5.1-4.8
				C1123.8,19.3,1121.5,21.5,1121.5,24.2"/>
			<ellipse id="XMLID_23873_" fill="none" stroke="#929292" stroke-miterlimit="10" cx="1126.7" cy="24.2" rx="5.1" ry="4.8"/>
			<g id="XMLID_23860_">
				<g id="XMLID_23861_">
					<defs>
						<rect id="XMLID_23862_" x="1121.8" y="19.6" width="9.7" height="9.1"/>
					</defs>
					<clipPath id="XMLID_816_">
						<use xlink:href="#XMLID_23862_"  overflow="visible"/>
					</clipPath>
					<path id="XMLID_23872_" clip-path="url(#XMLID_816_)" fill="#BEBEBD" d="M1121.8,24.2c0,2.5,2.2,4.6,4.8,4.6
						c2.7,0,4.8-2,4.8-4.6c0-2.5-2.2-4.6-4.8-4.6C1124,19.6,1121.8,21.6,1121.8,24.2"/>
					<path id="XMLID_23871_" clip-path="url(#XMLID_816_)" fill="#C0C0C0" d="M1121.9,24.2c0,2.5,2.1,4.4,4.7,4.4
						c2.6,0,4.7-2,4.7-4.4c0-2.5-2.1-4.5-4.7-4.5C1124,19.7,1121.9,21.7,1121.9,24.2"/>
					<path id="XMLID_23870_" clip-path="url(#XMLID_816_)" fill="#C2C3C3" d="M1122,24.2c0,2.4,2.1,4.3,4.6,4.3
						c2.6,0,4.6-1.9,4.6-4.3c0-2.4-2.1-4.3-4.6-4.3C1124.1,19.8,1122,21.8,1122,24.2"/>
					<path id="XMLID_23869_" clip-path="url(#XMLID_816_)" fill="#C4C5C4" d="M1122.2,24.2c0,2.3,2,4.2,4.5,4.2
						c2.5,0,4.5-1.9,4.5-4.2c0-2.3-2-4.2-4.5-4.2C1124.2,19.9,1122.2,21.8,1122.2,24.2"/>
					<path id="XMLID_23868_" clip-path="url(#XMLID_816_)" fill="#C6C8C8" d="M1122.3,24.2c0,2.3,2,4.1,4.4,4.1
						c2.4,0,4.4-1.8,4.4-4.1c0-2.3-2-4.1-4.4-4.1C1124.2,20,1122.3,21.9,1122.3,24.2"/>
					<path id="XMLID_23867_" clip-path="url(#XMLID_816_)" fill="#C9CACB" d="M1122.4,24.2c0,2.2,1.9,4,4.3,4s4.3-1.8,4.3-4
						c0-2.2-1.9-4-4.3-4S1122.4,21.9,1122.4,24.2"/>
					<path id="XMLID_23866_" clip-path="url(#XMLID_816_)" fill="#CBCDCD" d="M1122.5,24.2c0,2.2,1.9,3.9,4.2,3.9
						c2.3,0,4.2-1.8,4.2-3.9c0-2.2-1.9-3.9-4.2-3.9C1124.4,20.2,1122.5,22,1122.5,24.2"/>
					<path id="XMLID_23865_" clip-path="url(#XMLID_816_)" fill="#CCCFD0" d="M1122.6,24.2c0,2.1,1.8,3.8,4,3.8c2.2,0,4-1.7,4-3.8
						c0-2.1-1.8-3.8-4-3.8C1124.4,20.4,1122.6,22.1,1122.6,24.2"/>
					<path id="XMLID_23864_" clip-path="url(#XMLID_816_)" fill="#D0D2D2" d="M1122.7,24.2c0,2,1.8,3.7,3.9,3.7
						c2.2,0,3.9-1.7,3.9-3.7c0-2-1.8-3.7-3.9-3.7C1124.5,20.5,1122.7,22.1,1122.7,24.2"/>
					<path id="XMLID_23863_" clip-path="url(#XMLID_816_)" fill="#D2D4D5" d="M1122.8,24.2c0,2,1.7,3.6,3.8,3.6
						c2.1,0,3.8-1.6,3.8-3.6c0-2-1.7-3.6-3.8-3.6C1124.5,20.6,1122.8,22.2,1122.8,24.2"/>
				</g>
			</g>
			<polygon id="XMLID_23859_" fill="#605F5E" points="1127.3,26.9 1127.3,24.8 1129.6,24.8 1129.6,23.6 1127.3,23.6 1127.3,21.4 
				1126,21.4 1126,23.6 1123.7,23.6 1123.7,24.8 1126,24.8 1126,26.9 			"/>
			<path id="XMLID_23856_" fill="#221714" d="M1127.2,21.5v1.9v0.2h0.2h2.1v1h-2.1h-0.2v0.2v1.9h-1v-1.9v-0.2h-0.2h-2.1v-1h2.1h0.2
				v-0.2v-1.9H1127.2z M1125.9,23.5h-2.3v1.4h2.3V27h1.5v-2.1h2.3v-1.4h-2.3v-2.1h-1.5V23.5z"/>
		</g>
	</g>
	<g id="XMLID_23809_">
		<g id="XMLID_23832_">
			<path id="XMLID_23853_" fill="#AFAEAE" d="M1045.8,101.3c0,3.6,3.1,6.6,7,6.6c3.9,0,7-2.9,7-6.6s-3.1-6.6-7-6.6
				C1049,94.7,1045.8,97.7,1045.8,101.3"/>
			<ellipse id="XMLID_23852_" fill="none" stroke="#929292" stroke-miterlimit="10" cx="1052.8" cy="101.3" rx="7" ry="6.6"/>
			<path id="XMLID_23851_" fill="#AFAEAE" d="M1047.7,101.3c0,2.7,2.3,4.8,5.1,4.8c2.8,0,5.1-2.2,5.1-4.8c0-2.7-2.3-4.8-5.1-4.8
				C1050,96.5,1047.7,98.6,1047.7,101.3"/>
			<ellipse id="XMLID_23850_" fill="none" stroke="#929292" stroke-miterlimit="10" cx="1052.8" cy="101.3" rx="5.1" ry="4.8"/>
			<g id="XMLID_23837_">
				<g id="XMLID_23838_">
					<defs>
						<rect id="XMLID_23839_" x="1048" y="96.7" width="9.7" height="9.1"/>
					</defs>
					<clipPath id="XMLID_817_">
						<use xlink:href="#XMLID_23839_"  overflow="visible"/>
					</clipPath>
					<path id="XMLID_23849_" clip-path="url(#XMLID_817_)" fill="#BEBEBD" d="M1048,101.3c0,2.5,2.2,4.6,4.8,4.6
						c2.7,0,4.8-2,4.8-4.6c0-2.5-2.2-4.6-4.8-4.6C1050.1,96.7,1048,98.8,1048,101.3"/>
					<path id="XMLID_23848_" clip-path="url(#XMLID_817_)" fill="#C0C0C0" d="M1048.1,101.3c0,2.5,2.1,4.4,4.7,4.4
						c2.6,0,4.7-2,4.7-4.4c0-2.5-2.1-4.5-4.7-4.5C1050.2,96.8,1048.1,98.8,1048.1,101.3"/>
					<path id="XMLID_23847_" clip-path="url(#XMLID_817_)" fill="#C2C3C3" d="M1048.2,101.3c0,2.4,2.1,4.3,4.6,4.3
						c2.6,0,4.6-1.9,4.6-4.3c0-2.4-2.1-4.3-4.6-4.3C1050.3,96.9,1048.2,98.9,1048.2,101.3"/>
					<path id="XMLID_23846_" clip-path="url(#XMLID_817_)" fill="#C4C5C4" d="M1048.3,101.3c0,2.3,2,4.2,4.5,4.2
						c2.5,0,4.5-1.9,4.5-4.2c0-2.3-2-4.2-4.5-4.2C1050.3,97.1,1048.3,98.9,1048.3,101.3"/>
					<path id="XMLID_23845_" clip-path="url(#XMLID_817_)" fill="#C6C8C8" d="M1048.4,101.3c0,2.3,2,4.1,4.4,4.1
						c2.4,0,4.4-1.8,4.4-4.1c0-2.3-2-4.1-4.4-4.1C1050.4,97.2,1048.4,99,1048.4,101.3"/>
					<path id="XMLID_23844_" clip-path="url(#XMLID_817_)" fill="#C9CACB" d="M1048.5,101.3c0,2.2,1.9,4,4.3,4c2.4,0,4.3-1.8,4.3-4
						c0-2.2-1.9-4-4.3-4C1050.5,97.3,1048.5,99.1,1048.5,101.3"/>
					<path id="XMLID_23843_" clip-path="url(#XMLID_817_)" fill="#CBCDCD" d="M1048.7,101.3c0,2.2,1.9,3.9,4.2,3.9
						c2.3,0,4.2-1.8,4.2-3.9c0-2.2-1.9-3.9-4.2-3.9C1050.5,97.4,1048.7,99.1,1048.7,101.3"/>
					<path id="XMLID_23842_" clip-path="url(#XMLID_817_)" fill="#CCCFD0" d="M1048.8,101.3c0,2.1,1.8,3.8,4,3.8c2.2,0,4-1.7,4-3.8
						c0-2.1-1.8-3.8-4-3.8C1050.6,97.5,1048.8,99.2,1048.8,101.3"/>
					<path id="XMLID_23841_" clip-path="url(#XMLID_817_)" fill="#D0D2D2" d="M1048.9,101.3c0,2,1.8,3.7,3.9,3.7
						c2.2,0,3.9-1.7,3.9-3.7c0-2-1.8-3.7-3.9-3.7C1050.6,97.6,1048.9,99.2,1048.9,101.3"/>
					<path id="XMLID_23840_" clip-path="url(#XMLID_817_)" fill="#D2D4D5" d="M1049,101.3c0,2,1.7,3.6,3.8,3.6
						c2.1,0,3.8-1.6,3.8-3.6c0-2-1.7-3.6-3.8-3.6C1050.7,97.7,1049,99.3,1049,101.3"/>
				</g>
			</g>
			<polygon id="XMLID_23836_" fill="#605F5E" points="1053.5,104 1053.5,101.9 1055.7,101.9 1055.7,100.7 1053.5,100.7 1053.5,98.5 
				1052.2,98.5 1052.2,100.7 1049.9,100.7 1049.9,101.9 1052.2,101.9 1052.2,104 			"/>
			<path id="XMLID_23833_" fill="#221714" d="M1053.3,98.7v1.9v0.2h0.2h2.1v1h-2.1h-0.2v0.2v1.9h-1V102v-0.2h-0.2h-2.1v-1h2.1h0.2
				v-0.2v-1.9H1053.3z M1052.1,100.6h-2.3v1.4h2.3v2.1h1.5V102h2.3v-1.4h-2.3v-2.1h-1.5V100.6z"/>
		</g>
		<g id="XMLID_23810_">
			<path id="XMLID_23831_" fill="#AFAEAE" d="M1119.7,101.3c0,3.6,3.1,6.6,7,6.6c3.9,0,7-2.9,7-6.6s-3.1-6.6-7-6.6
				C1122.8,94.7,1119.7,97.7,1119.7,101.3"/>
			<ellipse id="XMLID_23830_" fill="none" stroke="#929292" stroke-miterlimit="10" cx="1126.7" cy="101.3" rx="7" ry="6.6"/>
			<path id="XMLID_23829_" fill="#AFAEAE" d="M1121.5,101.3c0,2.7,2.3,4.8,5.1,4.8c2.8,0,5.1-2.2,5.1-4.8c0-2.7-2.3-4.8-5.1-4.8
				C1123.8,96.5,1121.5,98.6,1121.5,101.3"/>
			<ellipse id="XMLID_23828_" fill="none" stroke="#929292" stroke-miterlimit="10" cx="1126.7" cy="101.3" rx="5.1" ry="4.8"/>
			<g id="XMLID_23815_">
				<g id="XMLID_23816_">
					<defs>
						<rect id="XMLID_23817_" x="1121.8" y="96.7" width="9.7" height="9.1"/>
					</defs>
					<clipPath id="XMLID_818_">
						<use xlink:href="#XMLID_23817_"  overflow="visible"/>
					</clipPath>
					<path id="XMLID_23827_" clip-path="url(#XMLID_818_)" fill="#BEBEBD" d="M1121.8,101.3c0,2.5,2.2,4.6,4.8,4.6
						c2.7,0,4.8-2,4.8-4.6c0-2.5-2.2-4.6-4.8-4.6C1124,96.7,1121.8,98.8,1121.8,101.3"/>
					<path id="XMLID_23826_" clip-path="url(#XMLID_818_)" fill="#C0C0C0" d="M1121.9,101.3c0,2.5,2.1,4.4,4.7,4.4
						c2.6,0,4.7-2,4.7-4.4c0-2.5-2.1-4.5-4.7-4.5C1124,96.8,1121.9,98.8,1121.9,101.3"/>
					<path id="XMLID_23825_" clip-path="url(#XMLID_818_)" fill="#C2C3C3" d="M1122,101.3c0,2.4,2.1,4.3,4.6,4.3
						c2.6,0,4.6-1.9,4.6-4.3c0-2.4-2.1-4.3-4.6-4.3C1124.1,96.9,1122,98.9,1122,101.3"/>
					<path id="XMLID_23824_" clip-path="url(#XMLID_818_)" fill="#C4C5C4" d="M1122.2,101.3c0,2.3,2,4.2,4.5,4.2
						c2.5,0,4.5-1.9,4.5-4.2c0-2.3-2-4.2-4.5-4.2C1124.2,97.1,1122.2,98.9,1122.2,101.3"/>
					<path id="XMLID_23823_" clip-path="url(#XMLID_818_)" fill="#C6C8C8" d="M1122.3,101.3c0,2.3,2,4.1,4.4,4.1
						c2.4,0,4.4-1.8,4.4-4.1c0-2.3-2-4.1-4.4-4.1C1124.2,97.2,1122.3,99,1122.3,101.3"/>
					<path id="XMLID_23822_" clip-path="url(#XMLID_818_)" fill="#C9CACB" d="M1122.4,101.3c0,2.2,1.9,4,4.3,4s4.3-1.8,4.3-4
						c0-2.2-1.9-4-4.3-4S1122.4,99.1,1122.4,101.3"/>
					<path id="XMLID_23821_" clip-path="url(#XMLID_818_)" fill="#CBCDCD" d="M1122.5,101.3c0,2.2,1.9,3.9,4.2,3.9
						c2.3,0,4.2-1.8,4.2-3.9c0-2.2-1.9-3.9-4.2-3.9C1124.4,97.4,1122.5,99.1,1122.5,101.3"/>
					<path id="XMLID_23820_" clip-path="url(#XMLID_818_)" fill="#CCCFD0" d="M1122.6,101.3c0,2.1,1.8,3.8,4,3.8c2.2,0,4-1.7,4-3.8
						c0-2.1-1.8-3.8-4-3.8C1124.4,97.5,1122.6,99.2,1122.6,101.3"/>
					<path id="XMLID_23819_" clip-path="url(#XMLID_818_)" fill="#D0D2D2" d="M1122.7,101.3c0,2,1.8,3.7,3.9,3.7
						c2.2,0,3.9-1.7,3.9-3.7c0-2-1.8-3.7-3.9-3.7C1124.5,97.6,1122.7,99.2,1122.7,101.3"/>
					<path id="XMLID_23818_" clip-path="url(#XMLID_818_)" fill="#D2D4D5" d="M1122.8,101.3c0,2,1.7,3.6,3.8,3.6
						c2.1,0,3.8-1.6,3.8-3.6c0-2-1.7-3.6-3.8-3.6C1124.5,97.7,1122.8,99.3,1122.8,101.3"/>
				</g>
			</g>
			<polygon id="XMLID_23814_" fill="#605F5E" points="1127.3,104 1127.3,101.9 1129.6,101.9 1129.6,100.7 1127.3,100.7 1127.3,98.5 
				1126,98.5 1126,100.7 1123.7,100.7 1123.7,101.9 1126,101.9 1126,104 			"/>
			<path id="XMLID_23811_" fill="#221714" d="M1127.2,98.7v1.9v0.2h0.2h2.1v1h-2.1h-0.2v0.2v1.9h-1V102v-0.2h-0.2h-2.1v-1h2.1h0.2
				v-0.2v-1.9H1127.2z M1125.9,100.6h-2.3v1.4h2.3v2.1h1.5V102h2.3v-1.4h-2.3v-2.1h-1.5V100.6z"/>
		</g>
	</g>
</g>
<g id="XMLID_23798_">
	<path id="XMLID_23807_" fill="#3D3A39" d="M981.8,108.1c-1.6,0-2.8-1.4-2.8-3.2V30.2c0-1.8,1.3-3.2,2.8-3.2h49.8
		c1.6,0,2.8,1.4,2.8,3.2v74.6c0,1.8-1.3,3.2-2.8,3.2H981.8z"/>
	<path id="XMLID_23806_" fill="none" stroke="#000000" stroke-width="2" stroke-miterlimit="10" d="M981.8,108.1
		c-1.6,0-2.8-1.4-2.8-3.2V30.2c0-1.8,1.3-3.2,2.8-3.2h49.8c1.6,0,2.8,1.4,2.8,3.2v74.6c0,1.8-1.3,3.2-2.8,3.2H981.8z"/>
	<polygon id="XMLID_23805_" fill="#221714" points="988.4,39.6 1015.8,39.6 1024.9,50.2 1024.9,85.2 1015.4,95.5 988.4,95.5 	"/>
	<rect id="XMLID_23804_" x="998.4" y="80.4" fill="#353741" width="10.4" height="3.5"/>
	<rect id="XMLID_23803_" x="998.4" y="80.4" fill="#8B8F99" width="8.6" height="1.8"/>
	<rect id="XMLID_23802_" x="1004.9" y="65" fill="#353741" width="10.4" height="3.5"/>
	<rect id="XMLID_23801_" x="1004.9" y="65" fill="#8B8F99" width="8.6" height="1.8"/>
	<rect id="XMLID_23800_" x="998.4" y="49.5" fill="#353741" width="10.4" height="3.5"/>
	<rect id="XMLID_23799_" x="998.4" y="49.5" fill="#8B8F99" width="8.6" height="1.8"/>
</g>
<circle id="XMLID_23796_" fill="#BFBFBF" cx="1089.8" cy="62.7" r="31.1"/>
<g id="XMLID_23276_">
	<polygon id="XMLID_24137_" fill="#0F0F0F" points="1168.7,108.9 1148.1,88.3 1148.1,37.2 1168.7,16.6 1219.7,16.6 1240.3,37.2 
		1240.3,88.3 1219.7,108.9 	"/>
	
		<circle id="XMLID_24136_" fill="none" stroke="#C1C1C1" stroke-width="2.8347" stroke-miterlimit="10" cx="1194.2" cy="62.7" r="38.6"/>
	
		<circle id="XMLID_24135_" fill="none" stroke="#C1C1C1" stroke-width="2.8347" stroke-miterlimit="10" cx="1194.2" cy="62.7" r="31.9"/>
	
		<circle id="XMLID_24134_" fill="none" stroke="#C1C1C1" stroke-width="2.8347" stroke-miterlimit="10" cx="1194.2" cy="62.7" r="25.7"/>
	
		<circle id="XMLID_24133_" fill="#C1C1C1" stroke="#C1C1C1" stroke-width="2.8347" stroke-miterlimit="10" cx="1194.2" cy="62.7" r="18.2"/>
	<circle id="XMLID_24132_" fill="#EDEDED" cx="1194.2" cy="62.7" r="17"/>
	<circle id="XMLID_24131_" fill="none" stroke="#2D2D2D" stroke-miterlimit="10" cx="1194.2" cy="62.7" r="14.3"/>
	<circle id="XMLID_24130_" fill="#FCF988" stroke="#2D2D2D" stroke-miterlimit="10" cx="1194.2" cy="62.7" r="8.9"/>
	<path id="XMLID_24129_" fill="none" stroke="#C1C1C1" stroke-width="2.8347" stroke-miterlimit="10" d="M1159.5,25.8l30.4,30.4
		c0,0,6,8,0,14l-30.4,29.4"/>
	<path id="XMLID_24128_" fill="none" stroke="#C1C1C1" stroke-width="2.8347" stroke-miterlimit="10" d="M1228.9,25.8l-30.4,30.4
		c0,0-6,8,0,14l30.4,29.4"/>
	<g id="XMLID_24083_">
		<g id="XMLID_24106_">
			<path id="XMLID_24127_" fill="#AFAEAE" d="M1150.3,24.2c0,3.6,3.1,6.6,7,6.6c3.9,0,7-2.9,7-6.6c0-3.6-3.1-6.6-7-6.6
				C1153.4,17.6,1150.3,20.5,1150.3,24.2"/>
			<ellipse id="XMLID_24126_" fill="none" stroke="#929292" stroke-miterlimit="10" cx="1157.3" cy="24.2" rx="7" ry="6.6"/>
			<path id="XMLID_24125_" fill="#AFAEAE" d="M1152.1,24.2c0,2.7,2.3,4.8,5.1,4.8c2.8,0,5.1-2.2,5.1-4.8c0-2.7-2.3-4.8-5.1-4.8
				C1154.4,19.3,1152.1,21.5,1152.1,24.2"/>
			<ellipse id="XMLID_24124_" fill="none" stroke="#929292" stroke-miterlimit="10" cx="1157.3" cy="24.2" rx="5.1" ry="4.8"/>
			<g id="XMLID_24111_">
				<g id="XMLID_24112_">
					<defs>
						<rect id="XMLID_24113_" x="1152.4" y="19.6" width="9.7" height="9.1"/>
					</defs>
					<clipPath id="XMLID_819_">
						<use xlink:href="#XMLID_24113_"  overflow="visible"/>
					</clipPath>
					<path id="XMLID_24123_" clip-path="url(#XMLID_819_)" fill="#BEBEBD" d="M1152.4,24.2c0,2.5,2.2,4.6,4.8,4.6
						c2.7,0,4.8-2,4.8-4.6c0-2.5-2.2-4.6-4.8-4.6C1154.6,19.6,1152.4,21.6,1152.4,24.2"/>
					<path id="XMLID_24122_" clip-path="url(#XMLID_819_)" fill="#C0C0C0" d="M1152.5,24.2c0,2.5,2.1,4.4,4.7,4.4
						c2.6,0,4.7-2,4.7-4.4c0-2.5-2.1-4.5-4.7-4.5C1154.7,19.7,1152.5,21.7,1152.5,24.2"/>
					<path id="XMLID_24121_" clip-path="url(#XMLID_819_)" fill="#C2C3C3" d="M1152.7,24.2c0,2.4,2.1,4.3,4.6,4.3
						c2.6,0,4.6-1.9,4.6-4.3c0-2.4-2.1-4.3-4.6-4.3C1154.7,19.8,1152.7,21.8,1152.7,24.2"/>
					<path id="XMLID_24120_" clip-path="url(#XMLID_819_)" fill="#C4C5C4" d="M1152.8,24.2c0,2.3,2,4.2,4.5,4.2
						c2.5,0,4.5-1.9,4.5-4.2c0-2.3-2-4.2-4.5-4.2C1154.8,19.9,1152.8,21.8,1152.8,24.2"/>
					<path id="XMLID_24119_" clip-path="url(#XMLID_819_)" fill="#C6C8C8" d="M1152.9,24.2c0,2.3,2,4.1,4.4,4.1
						c2.4,0,4.4-1.8,4.4-4.1c0-2.3-2-4.1-4.4-4.1C1154.8,20,1152.9,21.9,1152.9,24.2"/>
					<path id="XMLID_24118_" clip-path="url(#XMLID_819_)" fill="#C9CACB" d="M1153,24.2c0,2.2,1.9,4,4.3,4c2.4,0,4.3-1.8,4.3-4
						c0-2.2-1.9-4-4.3-4C1154.9,20.1,1153,21.9,1153,24.2"/>
					<path id="XMLID_24117_" clip-path="url(#XMLID_819_)" fill="#CBCDCD" d="M1153.1,24.2c0,2.2,1.9,3.9,4.2,3.9
						c2.3,0,4.2-1.8,4.2-3.9c0-2.2-1.9-3.9-4.2-3.9C1155,20.2,1153.1,22,1153.1,24.2"/>
					<path id="XMLID_24116_" clip-path="url(#XMLID_819_)" fill="#CCCFD0" d="M1153.2,24.2c0,2.1,1.8,3.8,4,3.8c2.2,0,4-1.7,4-3.8
						c0-2.1-1.8-3.8-4-3.8C1155,20.4,1153.2,22.1,1153.2,24.2"/>
					<path id="XMLID_24115_" clip-path="url(#XMLID_819_)" fill="#D0D2D2" d="M1153.3,24.2c0,2,1.8,3.7,3.9,3.7
						c2.2,0,3.9-1.7,3.9-3.7c0-2-1.8-3.7-3.9-3.7C1155.1,20.5,1153.3,22.1,1153.3,24.2"/>
					<path id="XMLID_24114_" clip-path="url(#XMLID_819_)" fill="#D2D4D5" d="M1153.4,24.2c0,2,1.7,3.6,3.8,3.6
						c2.1,0,3.8-1.6,3.8-3.6c0-2-1.7-3.6-3.8-3.6C1155.2,20.6,1153.4,22.2,1153.4,24.2"/>
				</g>
			</g>
			<polygon id="XMLID_24110_" fill="#605F5E" points="1157.9,26.9 1157.9,24.8 1160.2,24.8 1160.2,23.6 1157.9,23.6 1157.9,21.4 
				1156.6,21.4 1156.6,23.6 1154.4,23.6 1154.4,24.8 1156.6,24.8 1156.6,26.9 			"/>
			<path id="XMLID_24107_" fill="#221714" d="M1157.8,21.5v1.9v0.2h0.2h2.1v1h-2.1h-0.2v0.2v1.9h-1v-1.9v-0.2h-0.2h-2.1v-1h2.1h0.2
				v-0.2v-1.9H1157.8z M1156.5,23.5h-2.3v1.4h2.3V27h1.5v-2.1h2.3v-1.4h-2.3v-2.1h-1.5V23.5z"/>
		</g>
		<g id="XMLID_24084_">
			<path id="XMLID_24105_" fill="#AFAEAE" d="M1224.1,24.2c0,3.6,3.1,6.6,7,6.6c3.9,0,7-2.9,7-6.6c0-3.6-3.1-6.6-7-6.6
				C1227.2,17.6,1224.1,20.5,1224.1,24.2"/>
			<ellipse id="XMLID_24104_" fill="none" stroke="#929292" stroke-miterlimit="10" cx="1231.1" cy="24.2" rx="7" ry="6.6"/>
			<path id="XMLID_24103_" fill="#AFAEAE" d="M1226,24.2c0,2.7,2.3,4.8,5.1,4.8c2.8,0,5.1-2.2,5.1-4.8c0-2.7-2.3-4.8-5.1-4.8
				C1228.3,19.3,1226,21.5,1226,24.2"/>
			<ellipse id="XMLID_24102_" fill="none" stroke="#929292" stroke-miterlimit="10" cx="1231.1" cy="24.2" rx="5.1" ry="4.8"/>
			<g id="XMLID_24089_">
				<g id="XMLID_24090_">
					<defs>
						<rect id="XMLID_24091_" x="1226.3" y="19.6" width="9.7" height="9.1"/>
					</defs>
					<clipPath id="XMLID_823_">
						<use xlink:href="#XMLID_24091_"  overflow="visible"/>
					</clipPath>
					<path id="XMLID_24101_" clip-path="url(#XMLID_823_)" fill="#BEBEBD" d="M1226.3,24.2c0,2.5,2.2,4.6,4.8,4.6
						c2.7,0,4.8-2,4.8-4.6c0-2.5-2.2-4.6-4.8-4.6C1228.4,19.6,1226.3,21.6,1226.3,24.2"/>
					<path id="XMLID_24100_" clip-path="url(#XMLID_823_)" fill="#C0C0C0" d="M1226.4,24.2c0,2.5,2.1,4.4,4.7,4.4
						c2.6,0,4.7-2,4.7-4.4c0-2.5-2.1-4.5-4.7-4.5C1228.5,19.7,1226.4,21.7,1226.4,24.2"/>
					<path id="XMLID_24099_" clip-path="url(#XMLID_823_)" fill="#C2C3C3" d="M1226.5,24.2c0,2.4,2.1,4.3,4.6,4.3
						c2.6,0,4.6-1.9,4.6-4.3c0-2.4-2.1-4.3-4.6-4.3C1228.6,19.8,1226.5,21.8,1226.5,24.2"/>
					<path id="XMLID_24098_" clip-path="url(#XMLID_823_)" fill="#C4C5C4" d="M1226.6,24.2c0,2.3,2,4.2,4.5,4.2
						c2.5,0,4.5-1.9,4.5-4.2c0-2.3-2-4.2-4.5-4.2C1228.6,19.9,1226.6,21.8,1226.6,24.2"/>
					<path id="XMLID_24097_" clip-path="url(#XMLID_823_)" fill="#C6C8C8" d="M1226.7,24.2c0,2.3,2,4.1,4.4,4.1
						c2.4,0,4.4-1.8,4.4-4.1c0-2.3-2-4.1-4.4-4.1C1228.7,20,1226.7,21.9,1226.7,24.2"/>
					<path id="XMLID_24096_" clip-path="url(#XMLID_823_)" fill="#C9CACB" d="M1226.8,24.2c0,2.2,1.9,4,4.3,4c2.4,0,4.3-1.8,4.3-4
						c0-2.2-1.9-4-4.3-4C1228.7,20.1,1226.8,21.9,1226.8,24.2"/>
					<path id="XMLID_24095_" clip-path="url(#XMLID_823_)" fill="#CBCDCD" d="M1226.9,24.2c0,2.2,1.9,3.9,4.2,3.9
						c2.3,0,4.2-1.8,4.2-3.9c0-2.2-1.9-3.9-4.2-3.9C1228.8,20.2,1226.9,22,1226.9,24.2"/>
					<path id="XMLID_24094_" clip-path="url(#XMLID_823_)" fill="#CCCFD0" d="M1227.1,24.2c0,2.1,1.8,3.8,4,3.8c2.2,0,4-1.7,4-3.8
						c0-2.1-1.8-3.8-4-3.8C1228.9,20.4,1227.1,22.1,1227.1,24.2"/>
					<path id="XMLID_24093_" clip-path="url(#XMLID_823_)" fill="#D0D2D2" d="M1227.2,24.2c0,2,1.8,3.7,3.9,3.7
						c2.2,0,3.9-1.7,3.9-3.7c0-2-1.8-3.7-3.9-3.7C1228.9,20.5,1227.2,22.1,1227.2,24.2"/>
					<path id="XMLID_24092_" clip-path="url(#XMLID_823_)" fill="#D2D4D5" d="M1227.3,24.2c0,2,1.7,3.6,3.8,3.6
						c2.1,0,3.8-1.6,3.8-3.6c0-2-1.7-3.6-3.8-3.6C1229,20.6,1227.3,22.2,1227.3,24.2"/>
				</g>
			</g>
			<polygon id="XMLID_24088_" fill="#605F5E" points="1231.7,26.9 1231.7,24.8 1234,24.8 1234,23.6 1231.7,23.6 1231.7,21.4 
				1230.5,21.4 1230.5,23.6 1228.2,23.6 1228.2,24.8 1230.5,24.8 1230.5,26.9 			"/>
			<path id="XMLID_24085_" fill="#221714" d="M1231.6,21.5v1.9v0.2h0.2h2.1v1h-2.1h-0.2v0.2v1.9h-1v-1.9v-0.2h-0.2h-2.1v-1h2.1h0.2
				v-0.2v-1.9H1231.6z M1230.4,23.5h-2.3v1.4h2.3V27h1.5v-2.1h2.3v-1.4h-2.3v-2.1h-1.5V23.5z"/>
		</g>
	</g>
	<g id="XMLID_23277_">
		<g id="XMLID_24061_">
			<path id="XMLID_24082_" fill="#AFAEAE" d="M1150.3,101.3c0,3.6,3.1,6.6,7,6.6c3.9,0,7-2.9,7-6.6s-3.1-6.6-7-6.6
				C1153.4,94.7,1150.3,97.7,1150.3,101.3"/>
			<ellipse id="XMLID_24081_" fill="none" stroke="#929292" stroke-miterlimit="10" cx="1157.3" cy="101.3" rx="7" ry="6.6"/>
			<path id="XMLID_24080_" fill="#AFAEAE" d="M1152.1,101.3c0,2.7,2.3,4.8,5.1,4.8c2.8,0,5.1-2.2,5.1-4.8c0-2.7-2.3-4.8-5.1-4.8
				C1154.4,96.5,1152.1,98.6,1152.1,101.3"/>
			<ellipse id="XMLID_24079_" fill="none" stroke="#929292" stroke-miterlimit="10" cx="1157.3" cy="101.3" rx="5.1" ry="4.8"/>
			<g id="XMLID_24066_">
				<g id="XMLID_24067_">
					<defs>
						<rect id="XMLID_24068_" x="1152.4" y="96.7" width="9.7" height="9.1"/>
					</defs>
					<clipPath id="XMLID_824_">
						<use xlink:href="#XMLID_24068_"  overflow="visible"/>
					</clipPath>
					<path id="XMLID_24078_" clip-path="url(#XMLID_824_)" fill="#BEBEBD" d="M1152.4,101.3c0,2.5,2.2,4.6,4.8,4.6
						c2.7,0,4.8-2,4.8-4.6c0-2.5-2.2-4.6-4.8-4.6C1154.6,96.7,1152.4,98.8,1152.4,101.3"/>
					<path id="XMLID_24077_" clip-path="url(#XMLID_824_)" fill="#C0C0C0" d="M1152.5,101.3c0,2.5,2.1,4.4,4.7,4.4
						c2.6,0,4.7-2,4.7-4.4c0-2.5-2.1-4.5-4.7-4.5C1154.7,96.8,1152.5,98.8,1152.5,101.3"/>
					<path id="XMLID_24076_" clip-path="url(#XMLID_824_)" fill="#C2C3C3" d="M1152.7,101.3c0,2.4,2.1,4.3,4.6,4.3
						c2.6,0,4.6-1.9,4.6-4.3c0-2.4-2.1-4.3-4.6-4.3C1154.7,96.9,1152.7,98.9,1152.7,101.3"/>
					<path id="XMLID_24075_" clip-path="url(#XMLID_824_)" fill="#C4C5C4" d="M1152.8,101.3c0,2.3,2,4.2,4.5,4.2
						c2.5,0,4.5-1.9,4.5-4.2c0-2.3-2-4.2-4.5-4.2C1154.8,97.1,1152.8,98.9,1152.8,101.3"/>
					<path id="XMLID_24074_" clip-path="url(#XMLID_824_)" fill="#C6C8C8" d="M1152.9,101.3c0,2.3,2,4.1,4.4,4.1
						c2.4,0,4.4-1.8,4.4-4.1c0-2.3-2-4.1-4.4-4.1C1154.8,97.2,1152.9,99,1152.9,101.3"/>
					<path id="XMLID_24073_" clip-path="url(#XMLID_824_)" fill="#C9CACB" d="M1153,101.3c0,2.2,1.9,4,4.3,4c2.4,0,4.3-1.8,4.3-4
						c0-2.2-1.9-4-4.3-4C1154.9,97.3,1153,99.1,1153,101.3"/>
					<path id="XMLID_24072_" clip-path="url(#XMLID_824_)" fill="#CBCDCD" d="M1153.1,101.3c0,2.2,1.9,3.9,4.2,3.9
						c2.3,0,4.2-1.8,4.2-3.9c0-2.2-1.9-3.9-4.2-3.9C1155,97.4,1153.1,99.1,1153.1,101.3"/>
					<path id="XMLID_24071_" clip-path="url(#XMLID_824_)" fill="#CCCFD0" d="M1153.2,101.3c0,2.1,1.8,3.8,4,3.8c2.2,0,4-1.7,4-3.8
						c0-2.1-1.8-3.8-4-3.8C1155,97.5,1153.2,99.2,1153.2,101.3"/>
					<path id="XMLID_24070_" clip-path="url(#XMLID_824_)" fill="#D0D2D2" d="M1153.3,101.3c0,2,1.8,3.7,3.9,3.7
						c2.2,0,3.9-1.7,3.9-3.7c0-2-1.8-3.7-3.9-3.7C1155.1,97.6,1153.3,99.2,1153.3,101.3"/>
					<path id="XMLID_24069_" clip-path="url(#XMLID_824_)" fill="#D2D4D5" d="M1153.4,101.3c0,2,1.7,3.6,3.8,3.6
						c2.1,0,3.8-1.6,3.8-3.6c0-2-1.7-3.6-3.8-3.6C1155.2,97.7,1153.4,99.3,1153.4,101.3"/>
				</g>
			</g>
			<polygon id="XMLID_24065_" fill="#605F5E" points="1157.9,104 1157.9,101.9 1160.2,101.9 1160.2,100.7 1157.9,100.7 1157.9,98.5 
				1156.6,98.5 1156.6,100.7 1154.4,100.7 1154.4,101.9 1156.6,101.9 1156.6,104 			"/>
			<path id="XMLID_24062_" fill="#221714" d="M1157.8,98.7v1.9v0.2h0.2h2.1v1h-2.1h-0.2v0.2v1.9h-1V102v-0.2h-0.2h-2.1v-1h2.1h0.2
				v-0.2v-1.9H1157.8z M1156.5,100.6h-2.3v1.4h2.3v2.1h1.5V102h2.3v-1.4h-2.3v-2.1h-1.5V100.6z"/>
		</g>
		<g id="XMLID_16167_">
			<path id="XMLID_24060_" fill="#AFAEAE" d="M1224.1,101.3c0,3.6,3.1,6.6,7,6.6c3.9,0,7-2.9,7-6.6s-3.1-6.6-7-6.6
				C1227.2,94.7,1224.1,97.7,1224.1,101.3"/>
			<ellipse id="XMLID_24059_" fill="none" stroke="#929292" stroke-miterlimit="10" cx="1231.1" cy="101.3" rx="7" ry="6.6"/>
			<path id="XMLID_24058_" fill="#AFAEAE" d="M1226,101.3c0,2.7,2.3,4.8,5.1,4.8c2.8,0,5.1-2.2,5.1-4.8c0-2.7-2.3-4.8-5.1-4.8
				C1228.3,96.5,1226,98.6,1226,101.3"/>
			<ellipse id="XMLID_24057_" fill="none" stroke="#929292" stroke-miterlimit="10" cx="1231.1" cy="101.3" rx="5.1" ry="4.8"/>
			<g id="XMLID_24043_">
				<g id="XMLID_24045_">
					<defs>
						<rect id="XMLID_24046_" x="1226.3" y="96.7" width="9.7" height="9.1"/>
					</defs>
					<clipPath id="XMLID_825_">
						<use xlink:href="#XMLID_24046_"  overflow="visible"/>
					</clipPath>
					<path id="XMLID_24056_" clip-path="url(#XMLID_825_)" fill="#BEBEBD" d="M1226.3,101.3c0,2.5,2.2,4.6,4.8,4.6
						c2.7,0,4.8-2,4.8-4.6c0-2.5-2.2-4.6-4.8-4.6C1228.4,96.7,1226.3,98.8,1226.3,101.3"/>
					<path id="XMLID_24055_" clip-path="url(#XMLID_825_)" fill="#C0C0C0" d="M1226.4,101.3c0,2.5,2.1,4.4,4.7,4.4
						c2.6,0,4.7-2,4.7-4.4c0-2.5-2.1-4.5-4.7-4.5C1228.5,96.8,1226.4,98.8,1226.4,101.3"/>
					<path id="XMLID_24054_" clip-path="url(#XMLID_825_)" fill="#C2C3C3" d="M1226.5,101.3c0,2.4,2.1,4.3,4.6,4.3
						c2.6,0,4.6-1.9,4.6-4.3c0-2.4-2.1-4.3-4.6-4.3C1228.6,96.9,1226.5,98.9,1226.5,101.3"/>
					<path id="XMLID_24053_" clip-path="url(#XMLID_825_)" fill="#C4C5C4" d="M1226.6,101.3c0,2.3,2,4.2,4.5,4.2
						c2.5,0,4.5-1.9,4.5-4.2c0-2.3-2-4.2-4.5-4.2C1228.6,97.1,1226.6,98.9,1226.6,101.3"/>
					<path id="XMLID_24052_" clip-path="url(#XMLID_825_)" fill="#C6C8C8" d="M1226.7,101.3c0,2.3,2,4.1,4.4,4.1
						c2.4,0,4.4-1.8,4.4-4.1c0-2.3-2-4.1-4.4-4.1C1228.7,97.2,1226.7,99,1226.7,101.3"/>
					<path id="XMLID_24051_" clip-path="url(#XMLID_825_)" fill="#C9CACB" d="M1226.8,101.3c0,2.2,1.9,4,4.3,4c2.4,0,4.3-1.8,4.3-4
						c0-2.2-1.9-4-4.3-4C1228.7,97.3,1226.8,99.1,1226.8,101.3"/>
					<path id="XMLID_24050_" clip-path="url(#XMLID_825_)" fill="#CBCDCD" d="M1226.9,101.3c0,2.2,1.9,3.9,4.2,3.9
						c2.3,0,4.2-1.8,4.2-3.9c0-2.2-1.9-3.9-4.2-3.9C1228.8,97.4,1226.9,99.1,1226.9,101.3"/>
					<path id="XMLID_24049_" clip-path="url(#XMLID_825_)" fill="#CCCFD0" d="M1227.1,101.3c0,2.1,1.8,3.8,4,3.8c2.2,0,4-1.7,4-3.8
						c0-2.1-1.8-3.8-4-3.8C1228.9,97.5,1227.1,99.2,1227.1,101.3"/>
					<path id="XMLID_24048_" clip-path="url(#XMLID_825_)" fill="#D0D2D2" d="M1227.2,101.3c0,2,1.8,3.7,3.9,3.7
						c2.2,0,3.9-1.7,3.9-3.7c0-2-1.8-3.7-3.9-3.7C1228.9,97.6,1227.2,99.2,1227.2,101.3"/>
					<path id="XMLID_24047_" clip-path="url(#XMLID_825_)" fill="#D2D4D5" d="M1227.3,101.3c0,2,1.7,3.6,3.8,3.6
						c2.1,0,3.8-1.6,3.8-3.6c0-2-1.7-3.6-3.8-3.6C1229,97.7,1227.3,99.3,1227.3,101.3"/>
				</g>
			</g>
			<polygon id="XMLID_24037_" fill="#605F5E" points="1231.7,104 1231.7,101.9 1234,101.9 1234,100.7 1231.7,100.7 1231.7,98.5 
				1230.5,98.5 1230.5,100.7 1228.2,100.7 1228.2,101.9 1230.5,101.9 1230.5,104 			"/>
			<path id="XMLID_16168_" fill="#221714" d="M1231.6,98.7v1.9v0.2h0.2h2.1v1h-2.1h-0.2v0.2v1.9h-1V102v-0.2h-0.2h-2.1v-1h2.1h0.2
				v-0.2v-1.9H1231.6z M1230.4,100.6h-2.3v1.4h2.3v2.1h1.5V102h2.3v-1.4h-2.3v-2.1h-1.5V100.6z"/>
		</g>
	</g>
</g>
<circle id="XMLID_22999_" fill="#BFBFBF" cx="1194.2" cy="62.7" r="31.1"/>
<linearGradient id="XMLID_826_" gradientUnits="userSpaceOnUse" x1="-8531.9316" y1="-15076.7695" x2="-8522.998" y2="-15076.7695" gradientTransform="matrix(4.489700e-11 -1 1 4.489700e-11 16334.7969 -8511.7412)">
	<stop  offset="0" style="stop-color:#FFFFFF"/>
	<stop  offset="1" style="stop-color:#7F7F7F"/>
</linearGradient>
<circle id="XMLID_24139_" fill="url(#XMLID_826_)" cx="1258" cy="15.7" r="4.5"/>
<g id="XMLID_6927_">
	<defs>
		<path id="XMLID_23797_" d="M1254,15.7c0,2.2,1.8,4,4,4c2.2,0,4-1.8,4-4c0-2.2-1.8-4-4-4C1255.8,11.7,1254,13.5,1254,15.7"/>
	</defs>
	<clipPath id="XMLID_827_">
		<use xlink:href="#XMLID_23797_"  overflow="visible"/>
	</clipPath>
	
		<radialGradient id="XMLID_828_" cx="5914.2949" cy="-4175.7783" r="0.3798" gradientTransform="matrix(8.2859 0 0 8.2859 -47748.2148 34614.375)" gradientUnits="userSpaceOnUse">
		<stop  offset="0" style="stop-color:#FFFFFF"/>
		<stop  offset="1" style="stop-color:#8DC21F"/>
	</radialGradient>
	<rect id="XMLID_24138_" x="1254" y="11.7" clip-path="url(#XMLID_827_)" fill="url(#XMLID_828_)" width="8.1" height="8.1"/>
</g>
<path id="XMLID_24832_" fill="#9B9B9B" stroke="#111111" stroke-miterlimit="10" d="M1267,241.1c0,3.2-2.7,5.9-6.1,5.9H973.3
	c-3.3,0-6.1-2.6-6.1-5.9V137.2c0-3.2,2.7-5.9,6.1-5.9H1261c3.3,0,6.1,2.6,6.1,5.9V241.1z"/>
<g id="XMLID_24731_">
	<polygon id="XMLID_24831_" fill="#0F0F0F" points="1064.2,235.3 1043.6,214.7 1043.6,163.6 1064.2,143 1115.3,143 1135.9,163.6 
		1135.9,214.7 1115.3,235.3 	"/>
	
		<circle id="XMLID_24830_" fill="none" stroke="#C1C1C1" stroke-width="2.8347" stroke-miterlimit="10" cx="1089.8" cy="189.2" r="38.6"/>
	
		<circle id="XMLID_24829_" fill="none" stroke="#C1C1C1" stroke-width="2.8347" stroke-miterlimit="10" cx="1089.8" cy="189.2" r="31.9"/>
	
		<circle id="XMLID_24828_" fill="none" stroke="#C1C1C1" stroke-width="2.8347" stroke-miterlimit="10" cx="1089.8" cy="189.2" r="25.7"/>
	
		<circle id="XMLID_24827_" fill="#C1C1C1" stroke="#C1C1C1" stroke-width="2.8347" stroke-miterlimit="10" cx="1089.8" cy="189.2" r="18.2"/>
	<circle id="XMLID_24826_" fill="#EDEDED" cx="1089.8" cy="189.2" r="17"/>
	<circle id="XMLID_24825_" fill="none" stroke="#2D2D2D" stroke-miterlimit="10" cx="1089.8" cy="189.2" r="14.3"/>
	<circle id="XMLID_24824_" fill="#FCF988" stroke="#2D2D2D" stroke-miterlimit="10" cx="1089.8" cy="189.2" r="8.9"/>
	<path id="XMLID_24823_" fill="none" stroke="#C1C1C1" stroke-width="2.8347" stroke-miterlimit="10" d="M1055,152.3l30.4,30.4
		c0,0,6,8,0,14l-30.4,29.4"/>
	<path id="XMLID_24822_" fill="none" stroke="#C1C1C1" stroke-width="2.8347" stroke-miterlimit="10" d="M1124.5,152.3l-30.4,30.4
		c0,0-6,8,0,14l30.4,29.4"/>
	<g id="XMLID_24777_">
		<g id="XMLID_24800_">
			<path id="XMLID_24821_" fill="#AFAEAE" d="M1045.8,150.6c0,3.6,3.1,6.6,7,6.6c3.9,0,7-2.9,7-6.6c0-3.6-3.1-6.6-7-6.6
				C1049,144,1045.8,147,1045.8,150.6"/>
			<ellipse id="XMLID_24820_" fill="none" stroke="#929292" stroke-miterlimit="10" cx="1052.8" cy="150.6" rx="7" ry="6.6"/>
			<path id="XMLID_24819_" fill="#AFAEAE" d="M1047.7,150.6c0,2.7,2.3,4.8,5.1,4.8c2.8,0,5.1-2.2,5.1-4.8c0-2.7-2.3-4.8-5.1-4.8
				C1050,145.8,1047.7,147.9,1047.7,150.6"/>
			<ellipse id="XMLID_24818_" fill="none" stroke="#929292" stroke-miterlimit="10" cx="1052.8" cy="150.6" rx="5.1" ry="4.8"/>
			<g id="XMLID_24805_">
				<g id="XMLID_24806_">
					<defs>
						<rect id="XMLID_24807_" x="1048" y="146.1" width="9.7" height="9.1"/>
					</defs>
					<clipPath id="XMLID_829_">
						<use xlink:href="#XMLID_24807_"  overflow="visible"/>
					</clipPath>
					<path id="XMLID_24817_" clip-path="url(#XMLID_829_)" fill="#BEBEBD" d="M1048,150.6c0,2.5,2.2,4.6,4.8,4.6
						c2.7,0,4.8-2,4.8-4.6c0-2.5-2.2-4.6-4.8-4.6C1050.1,146.1,1048,148.1,1048,150.6"/>
					<path id="XMLID_24816_" clip-path="url(#XMLID_829_)" fill="#C0C0C0" d="M1048.1,150.6c0,2.5,2.1,4.4,4.7,4.4
						c2.6,0,4.7-2,4.7-4.4c0-2.5-2.1-4.5-4.7-4.5C1050.2,146.2,1048.1,148.2,1048.1,150.6"/>
					<path id="XMLID_24815_" clip-path="url(#XMLID_829_)" fill="#C2C3C3" d="M1048.2,150.6c0,2.4,2.1,4.3,4.6,4.3
						c2.6,0,4.6-1.9,4.6-4.3c0-2.4-2.1-4.3-4.6-4.3C1050.3,146.3,1048.2,148.2,1048.2,150.6"/>
					<path id="XMLID_24814_" clip-path="url(#XMLID_829_)" fill="#C4C5C4" d="M1048.3,150.6c0,2.3,2,4.2,4.5,4.2
						c2.5,0,4.5-1.9,4.5-4.2c0-2.3-2-4.2-4.5-4.2C1050.3,146.4,1048.3,148.3,1048.3,150.6"/>
					<path id="XMLID_24813_" clip-path="url(#XMLID_829_)" fill="#C6C8C8" d="M1048.4,150.6c0,2.3,2,4.1,4.4,4.1
						c2.4,0,4.4-1.8,4.4-4.1c0-2.3-2-4.1-4.4-4.1C1050.4,146.5,1048.4,148.3,1048.4,150.6"/>
					<path id="XMLID_24812_" clip-path="url(#XMLID_829_)" fill="#C9CACB" d="M1048.5,150.6c0,2.2,1.9,4,4.3,4c2.4,0,4.3-1.8,4.3-4
						c0-2.2-1.9-4-4.3-4C1050.5,146.6,1048.5,148.4,1048.5,150.6"/>
					<path id="XMLID_24811_" clip-path="url(#XMLID_829_)" fill="#CBCDCD" d="M1048.7,150.6c0,2.2,1.9,3.9,4.2,3.9
						c2.3,0,4.2-1.8,4.2-3.9c0-2.2-1.9-3.9-4.2-3.9C1050.5,146.7,1048.7,148.5,1048.7,150.6"/>
					<path id="XMLID_24810_" clip-path="url(#XMLID_829_)" fill="#CCCFD0" d="M1048.8,150.6c0,2.1,1.8,3.8,4,3.8c2.2,0,4-1.7,4-3.8
						c0-2.1-1.8-3.8-4-3.8C1050.6,146.8,1048.8,148.5,1048.8,150.6"/>
					<path id="XMLID_24809_" clip-path="url(#XMLID_829_)" fill="#D0D2D2" d="M1048.9,150.6c0,2,1.8,3.7,3.9,3.7
						c2.2,0,3.9-1.7,3.9-3.7c0-2-1.8-3.7-3.9-3.7C1050.6,146.9,1048.9,148.6,1048.9,150.6"/>
					<path id="XMLID_24808_" clip-path="url(#XMLID_829_)" fill="#D2D4D5" d="M1049,150.6c0,2,1.7,3.6,3.8,3.6
						c2.1,0,3.8-1.6,3.8-3.6c0-2-1.7-3.6-3.8-3.6C1050.7,147,1049,148.6,1049,150.6"/>
				</g>
			</g>
			<polygon id="XMLID_24804_" fill="#605F5E" points="1053.5,153.4 1053.5,151.2 1055.7,151.2 1055.7,150 1053.5,150 1053.5,147.9 
				1052.2,147.9 1052.2,150 1049.9,150 1049.9,151.2 1052.2,151.2 1052.2,153.4 			"/>
			<path id="XMLID_24801_" fill="#221714" d="M1053.3,148v1.9v0.2h0.2h2.1v1h-2.1h-0.2v0.2v1.9h-1v-1.9v-0.2h-0.2h-2.1v-1h2.1h0.2
				v-0.2V148H1053.3z M1052.1,149.9h-2.3v1.4h2.3v2.1h1.5v-2.1h2.3v-1.4h-2.3v-2.1h-1.5V149.9z"/>
		</g>
		<g id="XMLID_24778_">
			<path id="XMLID_24799_" fill="#AFAEAE" d="M1119.7,150.6c0,3.6,3.1,6.6,7,6.6c3.9,0,7-2.9,7-6.6c0-3.6-3.1-6.6-7-6.6
				C1122.8,144,1119.7,147,1119.7,150.6"/>
			<ellipse id="XMLID_24798_" fill="none" stroke="#929292" stroke-miterlimit="10" cx="1126.7" cy="150.6" rx="7" ry="6.6"/>
			<path id="XMLID_24797_" fill="#AFAEAE" d="M1121.5,150.6c0,2.7,2.3,4.8,5.1,4.8c2.8,0,5.1-2.2,5.1-4.8c0-2.7-2.3-4.8-5.1-4.8
				C1123.8,145.8,1121.5,147.9,1121.5,150.6"/>
			<ellipse id="XMLID_24796_" fill="none" stroke="#929292" stroke-miterlimit="10" cx="1126.7" cy="150.6" rx="5.1" ry="4.8"/>
			<g id="XMLID_24783_">
				<g id="XMLID_24784_">
					<defs>
						<rect id="XMLID_24785_" x="1121.8" y="146.1" width="9.7" height="9.1"/>
					</defs>
					<clipPath id="XMLID_830_">
						<use xlink:href="#XMLID_24785_"  overflow="visible"/>
					</clipPath>
					<path id="XMLID_24795_" clip-path="url(#XMLID_830_)" fill="#BEBEBD" d="M1121.8,150.6c0,2.5,2.2,4.6,4.8,4.6
						c2.7,0,4.8-2,4.8-4.6c0-2.5-2.2-4.6-4.8-4.6C1124,146.1,1121.8,148.1,1121.8,150.6"/>
					<path id="XMLID_24794_" clip-path="url(#XMLID_830_)" fill="#C0C0C0" d="M1121.9,150.6c0,2.5,2.1,4.4,4.7,4.4
						c2.6,0,4.7-2,4.7-4.4c0-2.5-2.1-4.5-4.7-4.5C1124,146.2,1121.9,148.2,1121.9,150.6"/>
					<path id="XMLID_24793_" clip-path="url(#XMLID_830_)" fill="#C2C3C3" d="M1122,150.6c0,2.4,2.1,4.3,4.6,4.3
						c2.6,0,4.6-1.9,4.6-4.3c0-2.4-2.1-4.3-4.6-4.3C1124.1,146.3,1122,148.2,1122,150.6"/>
					<path id="XMLID_24792_" clip-path="url(#XMLID_830_)" fill="#C4C5C4" d="M1122.2,150.6c0,2.3,2,4.2,4.5,4.2
						c2.5,0,4.5-1.9,4.5-4.2c0-2.3-2-4.2-4.5-4.2C1124.2,146.4,1122.2,148.3,1122.2,150.6"/>
					<path id="XMLID_24791_" clip-path="url(#XMLID_830_)" fill="#C6C8C8" d="M1122.3,150.6c0,2.3,2,4.1,4.4,4.1
						c2.4,0,4.4-1.8,4.4-4.1c0-2.3-2-4.1-4.4-4.1C1124.2,146.5,1122.3,148.3,1122.3,150.6"/>
					<path id="XMLID_24790_" clip-path="url(#XMLID_830_)" fill="#C9CACB" d="M1122.4,150.6c0,2.2,1.9,4,4.3,4s4.3-1.8,4.3-4
						c0-2.2-1.9-4-4.3-4S1122.4,148.4,1122.4,150.6"/>
					<path id="XMLID_24789_" clip-path="url(#XMLID_830_)" fill="#CBCDCD" d="M1122.5,150.6c0,2.2,1.9,3.9,4.2,3.9
						c2.3,0,4.2-1.8,4.2-3.9c0-2.2-1.9-3.9-4.2-3.9C1124.4,146.7,1122.5,148.5,1122.5,150.6"/>
					<path id="XMLID_24788_" clip-path="url(#XMLID_830_)" fill="#CCCFD0" d="M1122.6,150.6c0,2.1,1.8,3.8,4,3.8c2.2,0,4-1.7,4-3.8
						c0-2.1-1.8-3.8-4-3.8C1124.4,146.8,1122.6,148.5,1122.6,150.6"/>
					<path id="XMLID_24787_" clip-path="url(#XMLID_830_)" fill="#D0D2D2" d="M1122.7,150.6c0,2,1.8,3.7,3.9,3.7
						c2.2,0,3.9-1.7,3.9-3.7c0-2-1.8-3.7-3.9-3.7C1124.5,146.9,1122.7,148.6,1122.7,150.6"/>
					<path id="XMLID_24786_" clip-path="url(#XMLID_830_)" fill="#D2D4D5" d="M1122.8,150.6c0,2,1.7,3.6,3.8,3.6
						c2.1,0,3.8-1.6,3.8-3.6c0-2-1.7-3.6-3.8-3.6C1124.5,147,1122.8,148.6,1122.8,150.6"/>
				</g>
			</g>
			<polygon id="XMLID_24782_" fill="#605F5E" points="1127.3,153.4 1127.3,151.2 1129.6,151.2 1129.6,150 1127.3,150 1127.3,147.9 
				1126,147.9 1126,150 1123.7,150 1123.7,151.2 1126,151.2 1126,153.4 			"/>
			<path id="XMLID_24779_" fill="#221714" d="M1127.2,148v1.9v0.2h0.2h2.1v1h-2.1h-0.2v0.2v1.9h-1v-1.9v-0.2h-0.2h-2.1v-1h2.1h0.2
				v-0.2V148H1127.2z M1125.9,149.9h-2.3v1.4h2.3v2.1h1.5v-2.1h2.3v-1.4h-2.3v-2.1h-1.5V149.9z"/>
		</g>
	</g>
	<g id="XMLID_24732_">
		<g id="XMLID_24755_">
			<path id="XMLID_24776_" fill="#AFAEAE" d="M1045.8,227.7c0,3.6,3.1,6.6,7,6.6c3.9,0,7-2.9,7-6.6s-3.1-6.6-7-6.6
				C1049,221.2,1045.8,224.1,1045.8,227.7"/>
			<ellipse id="XMLID_24775_" fill="none" stroke="#929292" stroke-miterlimit="10" cx="1052.8" cy="227.7" rx="7" ry="6.6"/>
			<path id="XMLID_24774_" fill="#AFAEAE" d="M1047.7,227.7c0,2.7,2.3,4.8,5.1,4.8c2.8,0,5.1-2.2,5.1-4.8c0-2.7-2.3-4.8-5.1-4.8
				C1050,222.9,1047.7,225.1,1047.7,227.7"/>
			<ellipse id="XMLID_24773_" fill="none" stroke="#929292" stroke-miterlimit="10" cx="1052.8" cy="227.7" rx="5.1" ry="4.8"/>
			<g id="XMLID_24760_">
				<g id="XMLID_24761_">
					<defs>
						<rect id="XMLID_24762_" x="1048" y="223.2" width="9.7" height="9.1"/>
					</defs>
					<clipPath id="XMLID_831_">
						<use xlink:href="#XMLID_24762_"  overflow="visible"/>
					</clipPath>
					<path id="XMLID_24772_" clip-path="url(#XMLID_831_)" fill="#BEBEBD" d="M1048,227.7c0,2.5,2.2,4.6,4.8,4.6
						c2.7,0,4.8-2,4.8-4.6c0-2.5-2.2-4.6-4.8-4.6C1050.1,223.2,1048,225.2,1048,227.7"/>
					<path id="XMLID_24771_" clip-path="url(#XMLID_831_)" fill="#C0C0C0" d="M1048.1,227.7c0,2.5,2.1,4.4,4.7,4.4
						c2.6,0,4.7-2,4.7-4.4c0-2.5-2.1-4.5-4.7-4.5C1050.2,223.3,1048.1,225.3,1048.1,227.7"/>
					<path id="XMLID_24770_" clip-path="url(#XMLID_831_)" fill="#C2C3C3" d="M1048.2,227.7c0,2.4,2.1,4.3,4.6,4.3
						c2.6,0,4.6-1.9,4.6-4.3c0-2.4-2.1-4.3-4.6-4.3C1050.3,223.4,1048.2,225.3,1048.2,227.7"/>
					<path id="XMLID_24769_" clip-path="url(#XMLID_831_)" fill="#C4C5C4" d="M1048.3,227.7c0,2.3,2,4.2,4.5,4.2
						c2.5,0,4.5-1.9,4.5-4.2c0-2.3-2-4.2-4.5-4.2C1050.3,223.5,1048.3,225.4,1048.3,227.7"/>
					<path id="XMLID_24768_" clip-path="url(#XMLID_831_)" fill="#C6C8C8" d="M1048.4,227.7c0,2.3,2,4.1,4.4,4.1
						c2.4,0,4.4-1.8,4.4-4.1c0-2.3-2-4.1-4.4-4.1C1050.4,223.6,1048.4,225.5,1048.4,227.7"/>
					<path id="XMLID_24767_" clip-path="url(#XMLID_831_)" fill="#C9CACB" d="M1048.5,227.7c0,2.2,1.9,4,4.3,4c2.4,0,4.3-1.8,4.3-4
						c0-2.2-1.9-4-4.3-4C1050.5,223.7,1048.5,225.5,1048.5,227.7"/>
					<path id="XMLID_24766_" clip-path="url(#XMLID_831_)" fill="#CBCDCD" d="M1048.7,227.7c0,2.2,1.9,3.9,4.2,3.9
						c2.3,0,4.2-1.8,4.2-3.9c0-2.2-1.9-3.9-4.2-3.9C1050.5,223.8,1048.7,225.6,1048.7,227.7"/>
					<path id="XMLID_24765_" clip-path="url(#XMLID_831_)" fill="#CCCFD0" d="M1048.8,227.7c0,2.1,1.8,3.8,4,3.8c2.2,0,4-1.7,4-3.8
						c0-2.1-1.8-3.8-4-3.8C1050.6,223.9,1048.8,225.6,1048.8,227.7"/>
					<path id="XMLID_24764_" clip-path="url(#XMLID_831_)" fill="#D0D2D2" d="M1048.9,227.7c0,2,1.8,3.7,3.9,3.7
						c2.2,0,3.9-1.7,3.9-3.7c0-2-1.8-3.7-3.9-3.7C1050.6,224,1048.9,225.7,1048.9,227.7"/>
					<path id="XMLID_24763_" clip-path="url(#XMLID_831_)" fill="#D2D4D5" d="M1049,227.7c0,2,1.7,3.6,3.8,3.6
						c2.1,0,3.8-1.6,3.8-3.6c0-2-1.7-3.6-3.8-3.6C1050.7,224.1,1049,225.8,1049,227.7"/>
				</g>
			</g>
			<polygon id="XMLID_24759_" fill="#605F5E" points="1053.5,230.5 1053.5,228.3 1055.7,228.3 1055.7,227.1 1053.5,227.1 
				1053.5,225 1052.2,225 1052.2,227.1 1049.9,227.1 1049.9,228.3 1052.2,228.3 1052.2,230.5 			"/>
			<path id="XMLID_24756_" fill="#221714" d="M1053.3,225.1v1.9v0.2h0.2h2.1v1h-2.1h-0.2v0.2v1.9h-1v-1.9v-0.2h-0.2h-2.1v-1h2.1h0.2
				V227v-1.9H1053.3z M1052.1,227h-2.3v1.4h2.3v2.1h1.5v-2.1h2.3V227h-2.3v-2.1h-1.5V227z"/>
		</g>
		<g id="XMLID_24733_">
			<path id="XMLID_24754_" fill="#AFAEAE" d="M1119.7,227.7c0,3.6,3.1,6.6,7,6.6c3.9,0,7-2.9,7-6.6s-3.1-6.6-7-6.6
				C1122.8,221.2,1119.7,224.1,1119.7,227.7"/>
			<ellipse id="XMLID_24753_" fill="none" stroke="#929292" stroke-miterlimit="10" cx="1126.7" cy="227.7" rx="7" ry="6.6"/>
			<path id="XMLID_24752_" fill="#AFAEAE" d="M1121.5,227.7c0,2.7,2.3,4.8,5.1,4.8c2.8,0,5.1-2.2,5.1-4.8c0-2.7-2.3-4.8-5.1-4.8
				C1123.8,222.9,1121.5,225.1,1121.5,227.7"/>
			<ellipse id="XMLID_24751_" fill="none" stroke="#929292" stroke-miterlimit="10" cx="1126.7" cy="227.7" rx="5.1" ry="4.8"/>
			<g id="XMLID_24738_">
				<g id="XMLID_24739_">
					<defs>
						<rect id="XMLID_24740_" x="1121.8" y="223.2" width="9.7" height="9.1"/>
					</defs>
					<clipPath id="XMLID_832_">
						<use xlink:href="#XMLID_24740_"  overflow="visible"/>
					</clipPath>
					<path id="XMLID_24750_" clip-path="url(#XMLID_832_)" fill="#BEBEBD" d="M1121.8,227.7c0,2.5,2.2,4.6,4.8,4.6
						c2.7,0,4.8-2,4.8-4.6c0-2.5-2.2-4.6-4.8-4.6C1124,223.2,1121.8,225.2,1121.8,227.7"/>
					<path id="XMLID_24749_" clip-path="url(#XMLID_832_)" fill="#C0C0C0" d="M1121.9,227.7c0,2.5,2.1,4.4,4.7,4.4
						c2.6,0,4.7-2,4.7-4.4c0-2.5-2.1-4.5-4.7-4.5C1124,223.3,1121.9,225.3,1121.9,227.7"/>
					<path id="XMLID_24748_" clip-path="url(#XMLID_832_)" fill="#C2C3C3" d="M1122,227.7c0,2.4,2.1,4.3,4.6,4.3
						c2.6,0,4.6-1.9,4.6-4.3c0-2.4-2.1-4.3-4.6-4.3C1124.1,223.4,1122,225.3,1122,227.7"/>
					<path id="XMLID_24747_" clip-path="url(#XMLID_832_)" fill="#C4C5C4" d="M1122.2,227.7c0,2.3,2,4.2,4.5,4.2
						c2.5,0,4.5-1.9,4.5-4.2c0-2.3-2-4.2-4.5-4.2C1124.2,223.5,1122.2,225.4,1122.2,227.7"/>
					<path id="XMLID_24746_" clip-path="url(#XMLID_832_)" fill="#C6C8C8" d="M1122.3,227.7c0,2.3,2,4.1,4.4,4.1
						c2.4,0,4.4-1.8,4.4-4.1c0-2.3-2-4.1-4.4-4.1C1124.2,223.6,1122.3,225.5,1122.3,227.7"/>
					<path id="XMLID_24745_" clip-path="url(#XMLID_832_)" fill="#C9CACB" d="M1122.4,227.7c0,2.2,1.9,4,4.3,4s4.3-1.8,4.3-4
						c0-2.2-1.9-4-4.3-4S1122.4,225.5,1122.4,227.7"/>
					<path id="XMLID_24744_" clip-path="url(#XMLID_832_)" fill="#CBCDCD" d="M1122.5,227.7c0,2.2,1.9,3.9,4.2,3.9
						c2.3,0,4.2-1.8,4.2-3.9c0-2.2-1.9-3.9-4.2-3.9C1124.4,223.8,1122.5,225.6,1122.5,227.7"/>
					<path id="XMLID_24743_" clip-path="url(#XMLID_832_)" fill="#CCCFD0" d="M1122.6,227.7c0,2.1,1.8,3.8,4,3.8c2.2,0,4-1.7,4-3.8
						c0-2.1-1.8-3.8-4-3.8C1124.4,223.9,1122.6,225.6,1122.6,227.7"/>
					<path id="XMLID_24742_" clip-path="url(#XMLID_832_)" fill="#D0D2D2" d="M1122.7,227.7c0,2,1.8,3.7,3.9,3.7
						c2.2,0,3.9-1.7,3.9-3.7c0-2-1.8-3.7-3.9-3.7C1124.5,224,1122.7,225.7,1122.7,227.7"/>
					<path id="XMLID_24741_" clip-path="url(#XMLID_832_)" fill="#D2D4D5" d="M1122.8,227.7c0,2,1.7,3.6,3.8,3.6
						c2.1,0,3.8-1.6,3.8-3.6c0-2-1.7-3.6-3.8-3.6C1124.5,224.1,1122.8,225.8,1122.8,227.7"/>
				</g>
			</g>
			<polygon id="XMLID_24737_" fill="#605F5E" points="1127.3,230.5 1127.3,228.3 1129.6,228.3 1129.6,227.1 1127.3,227.1 
				1127.3,225 1126,225 1126,227.1 1123.7,227.1 1123.7,228.3 1126,228.3 1126,230.5 			"/>
			<path id="XMLID_24734_" fill="#221714" d="M1127.2,225.1v1.9v0.2h0.2h2.1v1h-2.1h-0.2v0.2v1.9h-1v-1.9v-0.2h-0.2h-2.1v-1h2.1h0.2
				V227v-1.9H1127.2z M1125.9,227h-2.3v1.4h2.3v2.1h1.5v-2.1h2.3V227h-2.3v-2.1h-1.5V227z"/>
		</g>
	</g>
</g>
<g id="XMLID_24721_">
	<path id="XMLID_24730_" fill="#3D3A39" d="M981.8,234.5c-1.6,0-2.8-1.4-2.8-3.2v-74.6c0-1.8,1.3-3.2,2.8-3.2h49.8
		c1.6,0,2.8,1.4,2.8,3.2v74.6c0,1.8-1.3,3.2-2.8,3.2H981.8z"/>
	<path id="XMLID_24729_" fill="none" stroke="#000000" stroke-width="2" stroke-miterlimit="10" d="M981.8,234.5
		c-1.6,0-2.8-1.4-2.8-3.2v-74.6c0-1.8,1.3-3.2,2.8-3.2h49.8c1.6,0,2.8,1.4,2.8,3.2v74.6c0,1.8-1.3,3.2-2.8,3.2H981.8z"/>
	<polygon id="XMLID_24728_" fill="#221714" points="988.4,166 1015.8,166 1024.9,176.6 1024.9,211.7 1015.4,222 988.4,222 	"/>
	<rect id="XMLID_24727_" x="998.4" y="206.9" fill="#353741" width="10.4" height="3.5"/>
	<rect id="XMLID_24726_" x="998.4" y="206.9" fill="#8B8F99" width="8.6" height="1.8"/>
	<rect id="XMLID_24725_" x="1004.9" y="191.4" fill="#353741" width="10.4" height="3.5"/>
	<rect id="XMLID_24724_" x="1004.9" y="191.4" fill="#8B8F99" width="8.6" height="1.8"/>
	<rect id="XMLID_24723_" x="998.4" y="176" fill="#353741" width="10.4" height="3.5"/>
	<rect id="XMLID_24722_" x="998.4" y="176" fill="#8B8F99" width="8.6" height="1.8"/>
</g>
<circle id="XMLID_24720_" fill="#BFBFBF" cx="1089.8" cy="189.2" r="31.1"/>
<g id="XMLID_24150_">
	<polygon id="XMLID_24719_" fill="#0F0F0F" points="1168.7,235.3 1148.1,214.7 1148.1,163.6 1168.7,143 1219.7,143 1240.3,163.6 
		1240.3,214.7 1219.7,235.3 	"/>
	
		<circle id="XMLID_24718_" fill="none" stroke="#C1C1C1" stroke-width="2.8347" stroke-miterlimit="10" cx="1194.2" cy="189.2" r="38.6"/>
	
		<circle id="XMLID_24717_" fill="none" stroke="#C1C1C1" stroke-width="2.8347" stroke-miterlimit="10" cx="1194.2" cy="189.2" r="31.9"/>
	
		<circle id="XMLID_24716_" fill="none" stroke="#C1C1C1" stroke-width="2.8347" stroke-miterlimit="10" cx="1194.2" cy="189.2" r="25.7"/>
	
		<circle id="XMLID_24715_" fill="#C1C1C1" stroke="#C1C1C1" stroke-width="2.8347" stroke-miterlimit="10" cx="1194.2" cy="189.2" r="18.2"/>
	<circle id="XMLID_24714_" fill="#EDEDED" cx="1194.2" cy="189.2" r="17"/>
	<circle id="XMLID_24713_" fill="none" stroke="#2D2D2D" stroke-miterlimit="10" cx="1194.2" cy="189.2" r="14.3"/>
	<circle id="XMLID_24712_" fill="#FCF988" stroke="#2D2D2D" stroke-miterlimit="10" cx="1194.2" cy="189.2" r="8.9"/>
	<path id="XMLID_24711_" fill="none" stroke="#C1C1C1" stroke-width="2.8347" stroke-miterlimit="10" d="M1159.5,152.3l30.4,30.4
		c0,0,6,8,0,14l-30.4,29.4"/>
	<path id="XMLID_24710_" fill="none" stroke="#C1C1C1" stroke-width="2.8347" stroke-miterlimit="10" d="M1228.9,152.3l-30.4,30.4
		c0,0-6,8,0,14l30.4,29.4"/>
	<g id="XMLID_24658_">
		<g id="XMLID_24688_">
			<path id="XMLID_24709_" fill="#AFAEAE" d="M1150.3,150.6c0,3.6,3.1,6.6,7,6.6c3.9,0,7-2.9,7-6.6c0-3.6-3.1-6.6-7-6.6
				C1153.4,144,1150.3,147,1150.3,150.6"/>
			<ellipse id="XMLID_24708_" fill="none" stroke="#929292" stroke-miterlimit="10" cx="1157.3" cy="150.6" rx="7" ry="6.6"/>
			<path id="XMLID_24707_" fill="#AFAEAE" d="M1152.1,150.6c0,2.7,2.3,4.8,5.1,4.8c2.8,0,5.1-2.2,5.1-4.8c0-2.7-2.3-4.8-5.1-4.8
				C1154.4,145.8,1152.1,147.9,1152.1,150.6"/>
			<ellipse id="XMLID_24706_" fill="none" stroke="#929292" stroke-miterlimit="10" cx="1157.3" cy="150.6" rx="5.1" ry="4.8"/>
			<g id="XMLID_24693_">
				<g id="XMLID_24694_">
					<defs>
						<rect id="XMLID_24695_" x="1152.4" y="146.1" width="9.7" height="9.1"/>
					</defs>
					<clipPath id="XMLID_833_">
						<use xlink:href="#XMLID_24695_"  overflow="visible"/>
					</clipPath>
					<path id="XMLID_24705_" clip-path="url(#XMLID_833_)" fill="#BEBEBD" d="M1152.4,150.6c0,2.5,2.2,4.6,4.8,4.6
						c2.7,0,4.8-2,4.8-4.6c0-2.5-2.2-4.6-4.8-4.6C1154.6,146.1,1152.4,148.1,1152.4,150.6"/>
					<path id="XMLID_24704_" clip-path="url(#XMLID_833_)" fill="#C0C0C0" d="M1152.5,150.6c0,2.5,2.1,4.4,4.7,4.4
						c2.6,0,4.7-2,4.7-4.4c0-2.5-2.1-4.5-4.7-4.5C1154.7,146.2,1152.5,148.2,1152.5,150.6"/>
					<path id="XMLID_24703_" clip-path="url(#XMLID_833_)" fill="#C2C3C3" d="M1152.7,150.6c0,2.4,2.1,4.3,4.6,4.3
						c2.6,0,4.6-1.9,4.6-4.3c0-2.4-2.1-4.3-4.6-4.3C1154.7,146.3,1152.7,148.2,1152.7,150.6"/>
					<path id="XMLID_24702_" clip-path="url(#XMLID_833_)" fill="#C4C5C4" d="M1152.8,150.6c0,2.3,2,4.2,4.5,4.2
						c2.5,0,4.5-1.9,4.5-4.2c0-2.3-2-4.2-4.5-4.2C1154.8,146.4,1152.8,148.3,1152.8,150.6"/>
					<path id="XMLID_24701_" clip-path="url(#XMLID_833_)" fill="#C6C8C8" d="M1152.9,150.6c0,2.3,2,4.1,4.4,4.1
						c2.4,0,4.4-1.8,4.4-4.1c0-2.3-2-4.1-4.4-4.1C1154.8,146.5,1152.9,148.3,1152.9,150.6"/>
					<path id="XMLID_24700_" clip-path="url(#XMLID_833_)" fill="#C9CACB" d="M1153,150.6c0,2.2,1.9,4,4.3,4c2.4,0,4.3-1.8,4.3-4
						c0-2.2-1.9-4-4.3-4C1154.9,146.6,1153,148.4,1153,150.6"/>
					<path id="XMLID_24699_" clip-path="url(#XMLID_833_)" fill="#CBCDCD" d="M1153.1,150.6c0,2.2,1.9,3.9,4.2,3.9
						c2.3,0,4.2-1.8,4.2-3.9c0-2.2-1.9-3.9-4.2-3.9C1155,146.7,1153.1,148.5,1153.1,150.6"/>
					<path id="XMLID_24698_" clip-path="url(#XMLID_833_)" fill="#CCCFD0" d="M1153.2,150.6c0,2.1,1.8,3.8,4,3.8c2.2,0,4-1.7,4-3.8
						c0-2.1-1.8-3.8-4-3.8C1155,146.8,1153.2,148.5,1153.2,150.6"/>
					<path id="XMLID_24697_" clip-path="url(#XMLID_833_)" fill="#D0D2D2" d="M1153.3,150.6c0,2,1.8,3.7,3.9,3.7
						c2.2,0,3.9-1.7,3.9-3.7c0-2-1.8-3.7-3.9-3.7C1155.1,146.9,1153.3,148.6,1153.3,150.6"/>
					<path id="XMLID_24696_" clip-path="url(#XMLID_833_)" fill="#D2D4D5" d="M1153.4,150.6c0,2,1.7,3.6,3.8,3.6
						c2.1,0,3.8-1.6,3.8-3.6c0-2-1.7-3.6-3.8-3.6C1155.2,147,1153.4,148.6,1153.4,150.6"/>
				</g>
			</g>
			<polygon id="XMLID_24692_" fill="#605F5E" points="1157.9,153.4 1157.9,151.2 1160.2,151.2 1160.2,150 1157.9,150 1157.9,147.9 
				1156.6,147.9 1156.6,150 1154.4,150 1154.4,151.2 1156.6,151.2 1156.6,153.4 			"/>
			<path id="XMLID_24689_" fill="#221714" d="M1157.8,148v1.9v0.2h0.2h2.1v1h-2.1h-0.2v0.2v1.9h-1v-1.9v-0.2h-0.2h-2.1v-1h2.1h0.2
				v-0.2V148H1157.8z M1156.5,149.9h-2.3v1.4h2.3v2.1h1.5v-2.1h2.3v-1.4h-2.3v-2.1h-1.5V149.9z"/>
		</g>
		<g id="XMLID_24666_">
			<path id="XMLID_24687_" fill="#AFAEAE" d="M1224.1,150.6c0,3.6,3.1,6.6,7,6.6c3.9,0,7-2.9,7-6.6c0-3.6-3.1-6.6-7-6.6
				C1227.2,144,1224.1,147,1224.1,150.6"/>
			<ellipse id="XMLID_24686_" fill="none" stroke="#929292" stroke-miterlimit="10" cx="1231.1" cy="150.6" rx="7" ry="6.6"/>
			<path id="XMLID_24685_" fill="#AFAEAE" d="M1226,150.6c0,2.7,2.3,4.8,5.1,4.8c2.8,0,5.1-2.2,5.1-4.8c0-2.7-2.3-4.8-5.1-4.8
				C1228.3,145.8,1226,147.9,1226,150.6"/>
			<ellipse id="XMLID_24684_" fill="none" stroke="#929292" stroke-miterlimit="10" cx="1231.1" cy="150.6" rx="5.1" ry="4.8"/>
			<g id="XMLID_24671_">
				<g id="XMLID_24672_">
					<defs>
						<rect id="XMLID_24673_" x="1226.3" y="146.1" width="9.7" height="9.1"/>
					</defs>
					<clipPath id="XMLID_834_">
						<use xlink:href="#XMLID_24673_"  overflow="visible"/>
					</clipPath>
					<path id="XMLID_24683_" clip-path="url(#XMLID_834_)" fill="#BEBEBD" d="M1226.3,150.6c0,2.5,2.2,4.6,4.8,4.6
						c2.7,0,4.8-2,4.8-4.6c0-2.5-2.2-4.6-4.8-4.6C1228.4,146.1,1226.3,148.1,1226.3,150.6"/>
					<path id="XMLID_24682_" clip-path="url(#XMLID_834_)" fill="#C0C0C0" d="M1226.4,150.6c0,2.5,2.1,4.4,4.7,4.4
						c2.6,0,4.7-2,4.7-4.4c0-2.5-2.1-4.5-4.7-4.5C1228.5,146.2,1226.4,148.2,1226.4,150.6"/>
					<path id="XMLID_24681_" clip-path="url(#XMLID_834_)" fill="#C2C3C3" d="M1226.5,150.6c0,2.4,2.1,4.3,4.6,4.3
						c2.6,0,4.6-1.9,4.6-4.3c0-2.4-2.1-4.3-4.6-4.3C1228.6,146.3,1226.5,148.2,1226.5,150.6"/>
					<path id="XMLID_24680_" clip-path="url(#XMLID_834_)" fill="#C4C5C4" d="M1226.6,150.6c0,2.3,2,4.2,4.5,4.2
						c2.5,0,4.5-1.9,4.5-4.2c0-2.3-2-4.2-4.5-4.2C1228.6,146.4,1226.6,148.3,1226.6,150.6"/>
					<path id="XMLID_24679_" clip-path="url(#XMLID_834_)" fill="#C6C8C8" d="M1226.7,150.6c0,2.3,2,4.1,4.4,4.1
						c2.4,0,4.4-1.8,4.4-4.1c0-2.3-2-4.1-4.4-4.1C1228.7,146.5,1226.7,148.3,1226.7,150.6"/>
					<path id="XMLID_24678_" clip-path="url(#XMLID_834_)" fill="#C9CACB" d="M1226.8,150.6c0,2.2,1.9,4,4.3,4c2.4,0,4.3-1.8,4.3-4
						c0-2.2-1.9-4-4.3-4C1228.7,146.6,1226.8,148.4,1226.8,150.6"/>
					<path id="XMLID_24677_" clip-path="url(#XMLID_834_)" fill="#CBCDCD" d="M1226.9,150.6c0,2.2,1.9,3.9,4.2,3.9
						c2.3,0,4.2-1.8,4.2-3.9c0-2.2-1.9-3.9-4.2-3.9C1228.8,146.7,1226.9,148.5,1226.9,150.6"/>
					<path id="XMLID_24676_" clip-path="url(#XMLID_834_)" fill="#CCCFD0" d="M1227.1,150.6c0,2.1,1.8,3.8,4,3.8c2.2,0,4-1.7,4-3.8
						c0-2.1-1.8-3.8-4-3.8C1228.9,146.8,1227.1,148.5,1227.1,150.6"/>
					<path id="XMLID_24675_" clip-path="url(#XMLID_834_)" fill="#D0D2D2" d="M1227.2,150.6c0,2,1.8,3.7,3.9,3.7
						c2.2,0,3.9-1.7,3.9-3.7c0-2-1.8-3.7-3.9-3.7C1228.9,146.9,1227.2,148.6,1227.2,150.6"/>
					<path id="XMLID_24674_" clip-path="url(#XMLID_834_)" fill="#D2D4D5" d="M1227.3,150.6c0,2,1.7,3.6,3.8,3.6
						c2.1,0,3.8-1.6,3.8-3.6c0-2-1.7-3.6-3.8-3.6C1229,147,1227.3,148.6,1227.3,150.6"/>
				</g>
			</g>
			<polygon id="XMLID_24670_" fill="#605F5E" points="1231.7,153.4 1231.7,151.2 1234,151.2 1234,150 1231.7,150 1231.7,147.9 
				1230.5,147.9 1230.5,150 1228.2,150 1228.2,151.2 1230.5,151.2 1230.5,153.4 			"/>
			<path id="XMLID_24667_" fill="#221714" d="M1231.6,148v1.9v0.2h0.2h2.1v1h-2.1h-0.2v0.2v1.9h-1v-1.9v-0.2h-0.2h-2.1v-1h2.1h0.2
				v-0.2V148H1231.6z M1230.4,149.9h-2.3v1.4h2.3v2.1h1.5v-2.1h2.3v-1.4h-2.3v-2.1h-1.5V149.9z"/>
		</g>
	</g>
	<g id="XMLID_24151_">
		<g id="XMLID_24179_">
			<path id="XMLID_24656_" fill="#AFAEAE" d="M1150.3,227.7c0,3.6,3.1,6.6,7,6.6c3.9,0,7-2.9,7-6.6s-3.1-6.6-7-6.6
				C1153.4,221.2,1150.3,224.1,1150.3,227.7"/>
			<ellipse id="XMLID_24655_" fill="none" stroke="#929292" stroke-miterlimit="10" cx="1157.3" cy="227.7" rx="7" ry="6.6"/>
			<path id="XMLID_24653_" fill="#AFAEAE" d="M1152.1,227.7c0,2.7,2.3,4.8,5.1,4.8c2.8,0,5.1-2.2,5.1-4.8c0-2.7-2.3-4.8-5.1-4.8
				C1154.4,222.9,1152.1,225.1,1152.1,227.7"/>
			<ellipse id="XMLID_24652_" fill="none" stroke="#929292" stroke-miterlimit="10" cx="1157.3" cy="227.7" rx="5.1" ry="4.8"/>
			<g id="XMLID_24184_">
				<g id="XMLID_24185_">
					<defs>
						<rect id="XMLID_24411_" x="1152.4" y="223.2" width="9.7" height="9.1"/>
					</defs>
					<clipPath id="XMLID_835_">
						<use xlink:href="#XMLID_24411_"  overflow="visible"/>
					</clipPath>
					<path id="XMLID_24642_" clip-path="url(#XMLID_835_)" fill="#BEBEBD" d="M1152.4,227.7c0,2.5,2.2,4.6,4.8,4.6
						c2.7,0,4.8-2,4.8-4.6c0-2.5-2.2-4.6-4.8-4.6C1154.6,223.2,1152.4,225.2,1152.4,227.7"/>
					<path id="XMLID_24641_" clip-path="url(#XMLID_835_)" fill="#C0C0C0" d="M1152.5,227.7c0,2.5,2.1,4.4,4.7,4.4
						c2.6,0,4.7-2,4.7-4.4c0-2.5-2.1-4.5-4.7-4.5C1154.7,223.3,1152.5,225.3,1152.5,227.7"/>
					<path id="XMLID_24636_" clip-path="url(#XMLID_835_)" fill="#C2C3C3" d="M1152.7,227.7c0,2.4,2.1,4.3,4.6,4.3
						c2.6,0,4.6-1.9,4.6-4.3c0-2.4-2.1-4.3-4.6-4.3C1154.7,223.4,1152.7,225.3,1152.7,227.7"/>
					<path id="XMLID_24452_" clip-path="url(#XMLID_835_)" fill="#C4C5C4" d="M1152.8,227.7c0,2.3,2,4.2,4.5,4.2
						c2.5,0,4.5-1.9,4.5-4.2c0-2.3-2-4.2-4.5-4.2C1154.8,223.5,1152.8,225.4,1152.8,227.7"/>
					<path id="XMLID_24451_" clip-path="url(#XMLID_835_)" fill="#C6C8C8" d="M1152.9,227.7c0,2.3,2,4.1,4.4,4.1
						c2.4,0,4.4-1.8,4.4-4.1c0-2.3-2-4.1-4.4-4.1C1154.8,223.6,1152.9,225.5,1152.9,227.7"/>
					<path id="XMLID_24450_" clip-path="url(#XMLID_835_)" fill="#C9CACB" d="M1153,227.7c0,2.2,1.9,4,4.3,4c2.4,0,4.3-1.8,4.3-4
						c0-2.2-1.9-4-4.3-4C1154.9,223.7,1153,225.5,1153,227.7"/>
					<path id="XMLID_24449_" clip-path="url(#XMLID_835_)" fill="#CBCDCD" d="M1153.1,227.7c0,2.2,1.9,3.9,4.2,3.9
						c2.3,0,4.2-1.8,4.2-3.9c0-2.2-1.9-3.9-4.2-3.9C1155,223.8,1153.1,225.6,1153.1,227.7"/>
					<path id="XMLID_24448_" clip-path="url(#XMLID_835_)" fill="#CCCFD0" d="M1153.2,227.7c0,2.1,1.8,3.8,4,3.8c2.2,0,4-1.7,4-3.8
						c0-2.1-1.8-3.8-4-3.8C1155,223.9,1153.2,225.6,1153.2,227.7"/>
					<path id="XMLID_24447_" clip-path="url(#XMLID_835_)" fill="#D0D2D2" d="M1153.3,227.7c0,2,1.8,3.7,3.9,3.7
						c2.2,0,3.9-1.7,3.9-3.7c0-2-1.8-3.7-3.9-3.7C1155.1,224,1153.3,225.7,1153.3,227.7"/>
					<path id="XMLID_24446_" clip-path="url(#XMLID_835_)" fill="#D2D4D5" d="M1153.4,227.7c0,2,1.7,3.6,3.8,3.6
						c2.1,0,3.8-1.6,3.8-3.6c0-2-1.7-3.6-3.8-3.6C1155.2,224.1,1153.4,225.8,1153.4,227.7"/>
				</g>
			</g>
			<polygon id="XMLID_24183_" fill="#605F5E" points="1157.9,230.5 1157.9,228.3 1160.2,228.3 1160.2,227.1 1157.9,227.1 
				1157.9,225 1156.6,225 1156.6,227.1 1154.4,227.1 1154.4,228.3 1156.6,228.3 1156.6,230.5 			"/>
			<path id="XMLID_24180_" fill="#221714" d="M1157.8,225.1v1.9v0.2h0.2h2.1v1h-2.1h-0.2v0.2v1.9h-1v-1.9v-0.2h-0.2h-2.1v-1h2.1h0.2
				V227v-1.9H1157.8z M1156.5,227h-2.3v1.4h2.3v2.1h1.5v-2.1h2.3V227h-2.3v-2.1h-1.5V227z"/>
		</g>
		<g id="XMLID_24154_">
			<path id="XMLID_24178_" fill="#AFAEAE" d="M1224.1,227.7c0,3.6,3.1,6.6,7,6.6c3.9,0,7-2.9,7-6.6s-3.1-6.6-7-6.6
				C1227.2,221.2,1224.1,224.1,1224.1,227.7"/>
			<ellipse id="XMLID_24177_" fill="none" stroke="#929292" stroke-miterlimit="10" cx="1231.1" cy="227.7" rx="7" ry="6.6"/>
			<path id="XMLID_24176_" fill="#AFAEAE" d="M1226,227.7c0,2.7,2.3,4.8,5.1,4.8c2.8,0,5.1-2.2,5.1-4.8c0-2.7-2.3-4.8-5.1-4.8
				C1228.3,222.9,1226,225.1,1226,227.7"/>
			<ellipse id="XMLID_24175_" fill="none" stroke="#929292" stroke-miterlimit="10" cx="1231.1" cy="227.7" rx="5.1" ry="4.8"/>
			<g id="XMLID_24159_">
				<g id="XMLID_24160_">
					<defs>
						<rect id="XMLID_24161_" x="1226.3" y="223.2" width="9.7" height="9.1"/>
					</defs>
					<clipPath id="XMLID_839_">
						<use xlink:href="#XMLID_24161_"  overflow="visible"/>
					</clipPath>
					<path id="XMLID_24174_" clip-path="url(#XMLID_839_)" fill="#BEBEBD" d="M1226.3,227.7c0,2.5,2.2,4.6,4.8,4.6
						c2.7,0,4.8-2,4.8-4.6c0-2.5-2.2-4.6-4.8-4.6C1228.4,223.2,1226.3,225.2,1226.3,227.7"/>
					<path id="XMLID_24173_" clip-path="url(#XMLID_839_)" fill="#C0C0C0" d="M1226.4,227.7c0,2.5,2.1,4.4,4.7,4.4
						c2.6,0,4.7-2,4.7-4.4c0-2.5-2.1-4.5-4.7-4.5C1228.5,223.3,1226.4,225.3,1226.4,227.7"/>
					<path id="XMLID_24169_" clip-path="url(#XMLID_839_)" fill="#C2C3C3" d="M1226.5,227.7c0,2.4,2.1,4.3,4.6,4.3
						c2.6,0,4.6-1.9,4.6-4.3c0-2.4-2.1-4.3-4.6-4.3C1228.6,223.4,1226.5,225.3,1226.5,227.7"/>
					<path id="XMLID_24168_" clip-path="url(#XMLID_839_)" fill="#C4C5C4" d="M1226.6,227.7c0,2.3,2,4.2,4.5,4.2
						c2.5,0,4.5-1.9,4.5-4.2c0-2.3-2-4.2-4.5-4.2C1228.6,223.5,1226.6,225.4,1226.6,227.7"/>
					<path id="XMLID_24167_" clip-path="url(#XMLID_839_)" fill="#C6C8C8" d="M1226.7,227.7c0,2.3,2,4.1,4.4,4.1
						c2.4,0,4.4-1.8,4.4-4.1c0-2.3-2-4.1-4.4-4.1C1228.7,223.6,1226.7,225.5,1226.7,227.7"/>
					<path id="XMLID_24166_" clip-path="url(#XMLID_839_)" fill="#C9CACB" d="M1226.8,227.7c0,2.2,1.9,4,4.3,4c2.4,0,4.3-1.8,4.3-4
						c0-2.2-1.9-4-4.3-4C1228.7,223.7,1226.8,225.5,1226.8,227.7"/>
					<path id="XMLID_24165_" clip-path="url(#XMLID_839_)" fill="#CBCDCD" d="M1226.9,227.7c0,2.2,1.9,3.9,4.2,3.9
						c2.3,0,4.2-1.8,4.2-3.9c0-2.2-1.9-3.9-4.2-3.9C1228.8,223.8,1226.9,225.6,1226.9,227.7"/>
					<path id="XMLID_24164_" clip-path="url(#XMLID_839_)" fill="#CCCFD0" d="M1227.1,227.7c0,2.1,1.8,3.8,4,3.8c2.2,0,4-1.7,4-3.8
						c0-2.1-1.8-3.8-4-3.8C1228.9,223.9,1227.1,225.6,1227.1,227.7"/>
					<path id="XMLID_24163_" clip-path="url(#XMLID_839_)" fill="#D0D2D2" d="M1227.2,227.7c0,2,1.8,3.7,3.9,3.7
						c2.2,0,3.9-1.7,3.9-3.7c0-2-1.8-3.7-3.9-3.7C1228.9,224,1227.2,225.7,1227.2,227.7"/>
					<path id="XMLID_24162_" clip-path="url(#XMLID_839_)" fill="#D2D4D5" d="M1227.3,227.7c0,2,1.7,3.6,3.8,3.6
						c2.1,0,3.8-1.6,3.8-3.6c0-2-1.7-3.6-3.8-3.6C1229,224.1,1227.3,225.8,1227.3,227.7"/>
				</g>
			</g>
			<polygon id="XMLID_24158_" fill="#605F5E" points="1231.7,230.5 1231.7,228.3 1234,228.3 1234,227.1 1231.7,227.1 1231.7,225 
				1230.5,225 1230.5,227.1 1228.2,227.1 1228.2,228.3 1230.5,228.3 1230.5,230.5 			"/>
			<path id="XMLID_24155_" fill="#221714" d="M1231.6,225.1v1.9v0.2h0.2h2.1v1h-2.1h-0.2v0.2v1.9h-1v-1.9v-0.2h-0.2h-2.1v-1h2.1h0.2
				V227v-1.9H1231.6z M1230.4,227h-2.3v1.4h2.3v2.1h1.5v-2.1h2.3V227h-2.3v-2.1h-1.5V227z"/>
		</g>
	</g>
</g>
<circle id="XMLID_24149_" fill="#BFBFBF" cx="1194.2" cy="189.2" r="31.1"/>
<linearGradient id="XMLID_840_" gradientUnits="userSpaceOnUse" x1="-8659.2402" y1="-15076.7695" x2="-8650.3066" y2="-15076.7695" gradientTransform="matrix(4.489700e-11 -1 1 4.489700e-11 16334.7969 -8511.7412)">
	<stop  offset="0" style="stop-color:#FFFFFF"/>
	<stop  offset="1" style="stop-color:#7F7F7F"/>
</linearGradient>
<circle id="XMLID_24146_" fill="url(#XMLID_840_)" cx="1258" cy="143" r="4.5"/>
<g id="XMLID_24143_">
	<defs>
		<path id="XMLID_24144_" d="M1254,143c0,2.2,1.8,4,4,4c2.2,0,4-1.8,4-4c0-2.2-1.8-4-4-4C1255.8,139,1254,140.8,1254,143"/>
	</defs>
	<clipPath id="XMLID_841_">
		<use xlink:href="#XMLID_24144_"  overflow="visible"/>
	</clipPath>
	
		<radialGradient id="XMLID_842_" cx="5914.2949" cy="-4160.4141" r="0.3798" gradientTransform="matrix(8.2859 0 0 8.2859 -47748.2148 34614.375)" gradientUnits="userSpaceOnUse">
		<stop  offset="0" style="stop-color:#FFFFFF"/>
		<stop  offset="1" style="stop-color:#8DC21F"/>
	</radialGradient>
	<rect id="XMLID_24145_" x="1254" y="139" clip-path="url(#XMLID_841_)" fill="url(#XMLID_842_)" width="8.1" height="8.1"/>
</g>
<g id="XMLID_24859_">
	<g id="XMLID_24872_">
		<path id="XMLID_24858_" fill="#050505" d="M1206.8,251.5h-135.1c-21.4,0-38.8-15.6-38.8-24.9v-77.4h11.6v77.4
			c0,6.5,12.2,11.8,27.2,11.8h135.1c15,0,27.2-5.3,27.2-11.8v-77.4h11.6v77.4C1245.6,236,1228.2,251.5,1206.8,251.5z"/>
	</g>
	<g id="XMLID_24870_">
		<path id="XMLID_24857_" fill="#595959" d="M1205.4,249h-132.3c-20.5,0-37.2-15.4-37.2-24.5v-76.5h11.2v76.5
			c0,6.4,11.7,11.6,26,11.6h132.3c14.4,0,26-5.2,26-11.6v-76.5h11.2v76.5C1242.5,233.6,1225.9,249,1205.4,249z"/>
	</g>
	<g id="XMLID_24868_">
		<path id="XMLID_24856_" fill="#D1D1D1" d="M1206.8,250.3h-135.1c-21.4,0-38.8-15.6-38.8-24.9v-77.4h11.6v77.4
			c0,6.5,12.2,11.8,27.2,11.8h135.1c15,0,27.2-5.3,27.2-11.8v-77.4h11.6v77.4C1245.6,234.7,1228.2,250.3,1206.8,250.3z"/>
	</g>
	<g id="XMLID_24864_">
		<circle id="XMLID_24855_" fill="#6D6D6D" cx="1038.6" cy="147.9" r="10.2"/>
		<circle id="XMLID_24854_" fill="#F2F2F2" cx="1039.7" cy="146.8" r="10.2"/>
	</g>
	<g id="XMLID_24861_">
		<circle id="XMLID_24853_" fill="#6D6D6D" cx="1237.6" cy="147.9" r="10.2"/>
		<circle id="XMLID_24852_" fill="#F2F2F2" cx="1238.7" cy="146.8" r="10.2"/>
	</g>
</g>
<g id="XMLID_16171_">
	<g id="XMLID_16201_">
		<path id="XMLID_16202_" fill="#050505" d="M1206.8,120.2h-135.1c-21.4,0-38.8-15.6-38.8-24.9V17.9h11.6v77.4
			c0,6.5,12.2,11.8,27.2,11.8h135.1c15,0,27.2-5.3,27.2-11.8V17.9h11.6v77.4C1245.6,104.7,1228.2,120.2,1206.8,120.2z"/>
	</g>
	<g id="XMLID_16193_">
		<path id="XMLID_16194_" fill="#595959" d="M1205.4,117.7h-132.3c-20.5,0-37.2-15.4-37.2-24.5V16.7h11.2v76.5
			c0,6.4,11.7,11.6,26,11.6h132.3c14.4,0,26-5.2,26-11.6V16.7h11.2v76.5C1242.5,102.3,1225.9,117.7,1205.4,117.7z"/>
	</g>
	<g id="XMLID_16190_">
		<path id="XMLID_16192_" fill="#D1D1D1" d="M1206.8,118.9h-135.1c-21.4,0-38.8-15.6-38.8-24.9V16.6h11.6v77.4
			c0,6.5,12.2,11.8,27.2,11.8h135.1c15,0,27.2-5.3,27.2-11.8V16.6h11.6v77.4C1245.6,103.4,1228.2,118.9,1206.8,118.9z"/>
	</g>
	<g id="XMLID_16180_">
		<circle id="XMLID_16186_" fill="#6D6D6D" cx="1038.6" cy="16.6" r="10.2"/>
		<circle id="XMLID_16182_" fill="#F2F2F2" cx="1039.7" cy="15.5" r="10.2"/>
	</g>
	<g id="XMLID_16173_">
		<circle id="XMLID_16177_" fill="#6D6D6D" cx="1237.6" cy="16.6" r="10.2"/>
		<circle id="XMLID_16174_" fill="#F2F2F2" cx="1238.7" cy="15.5" r="10.2"/>
	</g>
</g>
<path id="XMLID_24860_" fill="#9B9B9B" stroke="#111111" stroke-miterlimit="10" d="M959.9,4.5h7.3v244.1h-7.3
	c-3.9,0-7.1-3.2-7.1-7.1V11.7C952.8,7.7,956,4.5,959.9,4.5z"/>
<g id="XMLID_24862_">
	
		<linearGradient id="XMLID_843_" gradientUnits="userSpaceOnUse" x1="1118.3674" y1="-25518.7266" x2="1130.9978" y2="-25518.7266" gradientTransform="matrix(1 0 0 1 -165.5726 25755.3516)">
		<stop  offset="0" style="stop-color:#FFFFFF"/>
		<stop  offset="5.656110e-02" style="stop-color:#A3A3A4"/>
		<stop  offset="0.3372" style="stop-color:#919292"/>
		<stop  offset="0.3831" style="stop-color:#E0E0DF"/>
		<stop  offset="0.4519" style="stop-color:#C1C0C0"/>
		<stop  offset="0.9264" style="stop-color:#E0E0DF"/>
		<stop  offset="0.9745" style="stop-color:#C1C0C0"/>
	</linearGradient>
	<path id="XMLID_24874_" fill="url(#XMLID_843_)" d="M952.8,236.6c0,3.5,2.8,6.3,6.3,6.3c3.5,0,6.3-2.8,6.3-6.3
		c0-3.5-2.8-6.3-6.3-6.3C955.6,230.4,952.8,233.2,952.8,236.6"/>
	
		<ellipse id="XMLID_24873_" fill="none" stroke="#121212" stroke-width="0.75" stroke-miterlimit="10" cx="959.1" cy="236.6" rx="6.3" ry="6.3"/>
	<polygon id="XMLID_24871_" fill="#040000" points="959.9,240.2 959.9,237.4 962.7,237.4 962.7,235.8 959.9,235.8 959.9,233.1 
		958.3,233.1 958.3,235.8 955.5,235.8 955.5,237.4 958.3,237.4 958.3,240.2 	"/>
	<path id="XMLID_24866_" fill="#221714" d="M959.8,233.2v2.5v0.3h0.3h2.5v1.3H960h-0.3v0.3v2.5h-1.3v-2.5v-0.3h-0.3h-2.5V236h2.5
		h0.3v-0.3v-2.5H959.8z M958.2,235.7h-2.8v1.8h2.8v2.8h1.8v-2.8h2.8v-1.8H960v-2.8h-1.8V235.7z"/>
	<rect id="XMLID_24865_" x="959.8" y="232.9" fill="#606062" width="0.3" height="3"/>
	<rect id="XMLID_24863_" x="959.8" y="235.7" fill="#606062" width="3.1" height="0.3"/>
</g>
<g id="XMLID_24885_">
	
		<linearGradient id="XMLID_844_" gradientUnits="userSpaceOnUse" x1="1118.3674" y1="-25568.5313" x2="1130.9978" y2="-25568.5313" gradientTransform="matrix(1 0 0 1 -165.5726 25755.3516)">
		<stop  offset="0" style="stop-color:#FFFFFF"/>
		<stop  offset="5.656110e-02" style="stop-color:#A3A3A4"/>
		<stop  offset="0.3372" style="stop-color:#919292"/>
		<stop  offset="0.3831" style="stop-color:#E0E0DF"/>
		<stop  offset="0.4519" style="stop-color:#C1C0C0"/>
		<stop  offset="0.9264" style="stop-color:#E0E0DF"/>
		<stop  offset="0.9745" style="stop-color:#C1C0C0"/>
	</linearGradient>
	<path id="XMLID_24893_" fill="url(#XMLID_844_)" d="M952.8,186.8c0,3.5,2.8,6.3,6.3,6.3c3.5,0,6.3-2.8,6.3-6.3
		c0-3.5-2.8-6.3-6.3-6.3C955.6,180.5,952.8,183.4,952.8,186.8"/>
	
		<ellipse id="XMLID_24892_" fill="none" stroke="#121212" stroke-width="0.75" stroke-miterlimit="10" cx="959.1" cy="186.8" rx="6.3" ry="6.3"/>
	<polygon id="XMLID_24891_" fill="#040000" points="959.9,190.4 959.9,187.6 962.7,187.6 962.7,186 959.9,186 959.9,183.3 
		958.3,183.3 958.3,186 955.5,186 955.5,187.6 958.3,187.6 958.3,190.4 	"/>
	<path id="XMLID_24888_" fill="#221714" d="M959.8,183.4v2.5v0.3h0.3h2.5v1.3H960h-0.3v0.3v2.5h-1.3v-2.5v-0.3h-0.3h-2.5v-1.3h2.5
		h0.3v-0.3v-2.5H959.8z M958.2,185.9h-2.8v1.8h2.8v2.8h1.8v-2.8h2.8v-1.8H960v-2.8h-1.8V185.9z"/>
	<rect id="XMLID_24887_" x="959.8" y="183.1" fill="#606062" width="0.3" height="3"/>
	<rect id="XMLID_24886_" x="959.8" y="185.9" fill="#606062" width="3.1" height="0.3"/>
</g>
<g id="XMLID_24894_">
	
		<linearGradient id="XMLID_845_" gradientUnits="userSpaceOnUse" x1="1118.3674" y1="-25684.3145" x2="1130.9978" y2="-25684.3145" gradientTransform="matrix(1 0 0 1 -165.5726 25755.3516)">
		<stop  offset="0" style="stop-color:#FFFFFF"/>
		<stop  offset="5.656110e-02" style="stop-color:#A3A3A4"/>
		<stop  offset="0.3372" style="stop-color:#919292"/>
		<stop  offset="0.3831" style="stop-color:#E0E0DF"/>
		<stop  offset="0.4519" style="stop-color:#C1C0C0"/>
		<stop  offset="0.9264" style="stop-color:#E0E0DF"/>
		<stop  offset="0.9745" style="stop-color:#C1C0C0"/>
	</linearGradient>
	<path id="XMLID_24902_" fill="url(#XMLID_845_)" d="M952.8,71c0,3.5,2.8,6.3,6.3,6.3c3.5,0,6.3-2.8,6.3-6.3c0-3.5-2.8-6.3-6.3-6.3
		C955.6,64.8,952.8,67.6,952.8,71"/>
	
		<ellipse id="XMLID_24901_" fill="none" stroke="#121212" stroke-width="0.75" stroke-miterlimit="10" cx="959.1" cy="71" rx="6.3" ry="6.3"/>
	<polygon id="XMLID_24900_" fill="#040000" points="959.9,74.6 959.9,71.8 962.7,71.8 962.7,70.3 959.9,70.3 959.9,67.5 958.3,67.5 
		958.3,70.3 955.5,70.3 955.5,71.8 958.3,71.8 958.3,74.6 	"/>
	<path id="XMLID_24897_" fill="#221714" d="M959.8,67.6v2.5v0.3h0.3h2.5v1.3H960h-0.3v0.3v2.5h-1.3v-2.5v-0.3h-0.3h-2.5v-1.3h2.5
		h0.3v-0.3v-2.5H959.8z M958.2,70.1h-2.8v1.8h2.8v2.8h1.8v-2.8h2.8v-1.8H960v-2.8h-1.8V70.1z"/>
	<rect id="XMLID_24896_" x="959.8" y="67.3" fill="#606062" width="0.3" height="3"/>
	<rect id="XMLID_24895_" x="959.8" y="70.1" fill="#606062" width="3.1" height="0.3"/>
</g>
<g id="XMLID_16212_">
	
		<linearGradient id="XMLID_846_" gradientUnits="userSpaceOnUse" x1="1043.3652" y1="-25568.5313" x2="1055.9956" y2="-25568.5313" gradientTransform="matrix(1 0 0 1 -165.5726 25755.3516)">
		<stop  offset="0" style="stop-color:#FFFFFF"/>
		<stop  offset="5.656110e-02" style="stop-color:#A3A3A4"/>
		<stop  offset="0.3372" style="stop-color:#919292"/>
		<stop  offset="0.3831" style="stop-color:#E0E0DF"/>
		<stop  offset="0.4519" style="stop-color:#C1C0C0"/>
		<stop  offset="0.9264" style="stop-color:#E0E0DF"/>
		<stop  offset="0.9745" style="stop-color:#C1C0C0"/>
	</linearGradient>
	<path id="XMLID_16220_" fill="url(#XMLID_846_)" d="M877.8,186.8c0,3.5,2.8,6.3,6.3,6.3c3.5,0,6.3-2.8,6.3-6.3
		c0-3.5-2.8-6.3-6.3-6.3C880.6,180.5,877.8,183.4,877.8,186.8"/>
	
		<ellipse id="XMLID_16219_" fill="none" stroke="#121212" stroke-width="0.75" stroke-miterlimit="10" cx="884.1" cy="186.8" rx="6.3" ry="6.3"/>
	<polygon id="XMLID_16218_" fill="#040000" points="884.9,190.4 884.9,187.6 887.7,187.6 887.7,186 884.9,186 884.9,183.3 
		883.3,183.3 883.3,186 880.5,186 880.5,187.6 883.3,187.6 883.3,190.4 	"/>
	<path id="XMLID_16215_" fill="#221714" d="M884.8,183.4v2.5v0.3h0.3h2.5v1.3H885h-0.3v0.3v2.5h-1.3v-2.5v-0.3h-0.3h-2.5v-1.3h2.5
		h0.3v-0.3v-2.5H884.8z M883.2,185.9h-2.8v1.8h2.8v2.8h1.8v-2.8h2.8v-1.8H885v-2.8h-1.8V185.9z"/>
	<rect id="XMLID_16214_" x="884.8" y="183.1" fill="#606062" width="0.3" height="3"/>
	<rect id="XMLID_16213_" x="884.8" y="185.9" fill="#606062" width="3.1" height="0.3"/>
</g>
<g id="XMLID_16187_">
	
		<linearGradient id="XMLID_847_" gradientUnits="userSpaceOnUse" x1="1043.3652" y1="-25684.3145" x2="1055.9956" y2="-25684.3145" gradientTransform="matrix(1 0 0 1 -165.5726 25755.3516)">
		<stop  offset="0" style="stop-color:#FFFFFF"/>
		<stop  offset="5.656110e-02" style="stop-color:#A3A3A4"/>
		<stop  offset="0.3372" style="stop-color:#919292"/>
		<stop  offset="0.3831" style="stop-color:#E0E0DF"/>
		<stop  offset="0.4519" style="stop-color:#C1C0C0"/>
		<stop  offset="0.9264" style="stop-color:#E0E0DF"/>
		<stop  offset="0.9745" style="stop-color:#C1C0C0"/>
	</linearGradient>
	<path id="XMLID_16211_" fill="url(#XMLID_847_)" d="M877.8,71c0,3.5,2.8,6.3,6.3,6.3c3.5,0,6.3-2.8,6.3-6.3c0-3.5-2.8-6.3-6.3-6.3
		C880.6,64.8,877.8,67.6,877.8,71"/>
	
		<ellipse id="XMLID_16207_" fill="none" stroke="#121212" stroke-width="0.75" stroke-miterlimit="10" cx="884.1" cy="71" rx="6.3" ry="6.3"/>
	<polygon id="XMLID_16205_" fill="#040000" points="884.9,74.6 884.9,71.8 887.7,71.8 887.7,70.3 884.9,70.3 884.9,67.5 883.3,67.5 
		883.3,70.3 880.5,70.3 880.5,71.8 883.3,71.8 883.3,74.6 	"/>
	<path id="XMLID_16191_" fill="#221714" d="M884.8,67.6v2.5v0.3h0.3h2.5v1.3H885h-0.3v0.3v2.5h-1.3v-2.5v-0.3h-0.3h-2.5v-1.3h2.5
		h0.3v-0.3v-2.5H884.8z M883.2,70.1h-2.8v1.8h2.8v2.8h1.8v-2.8h2.8v-1.8H885v-2.8h-1.8V70.1z"/>
	<rect id="XMLID_16189_" x="884.8" y="67.3" fill="#606062" width="0.3" height="3"/>
	<rect id="XMLID_16188_" x="884.8" y="70.1" fill="#606062" width="3.1" height="0.3"/>
</g>
<g id="XMLID_24876_">
	
		<linearGradient id="XMLID_848_" gradientUnits="userSpaceOnUse" x1="1118.3674" y1="-25738.7207" x2="1130.9978" y2="-25738.7207" gradientTransform="matrix(1 0 0 1 -165.5726 25755.3516)">
		<stop  offset="0" style="stop-color:#FFFFFF"/>
		<stop  offset="5.656110e-02" style="stop-color:#A3A3A4"/>
		<stop  offset="0.3372" style="stop-color:#919292"/>
		<stop  offset="0.3831" style="stop-color:#E0E0DF"/>
		<stop  offset="0.4519" style="stop-color:#C1C0C0"/>
		<stop  offset="0.9264" style="stop-color:#E0E0DF"/>
		<stop  offset="0.9745" style="stop-color:#C1C0C0"/>
	</linearGradient>
	<path id="XMLID_24884_" fill="url(#XMLID_848_)" d="M952.8,16.6c0,3.5,2.8,6.3,6.3,6.3c3.5,0,6.3-2.8,6.3-6.3
		c0-3.5-2.8-6.3-6.3-6.3C955.6,10.4,952.8,13.2,952.8,16.6"/>
	
		<ellipse id="XMLID_24883_" fill="none" stroke="#121212" stroke-width="0.75" stroke-miterlimit="10" cx="959.1" cy="16.6" rx="6.3" ry="6.3"/>
	<polygon id="XMLID_24882_" fill="#040000" points="959.9,20.2 959.9,17.4 962.7,17.4 962.7,15.9 959.9,15.9 959.9,13.1 958.3,13.1 
		958.3,15.9 955.5,15.9 955.5,17.4 958.3,17.4 958.3,20.2 	"/>
	<path id="XMLID_24879_" fill="#221714" d="M959.8,13.2v2.5V16h0.3h2.5v1.3H960h-0.3v0.3v2.5h-1.3v-2.5v-0.3h-0.3h-2.5V16h2.5h0.3
		v-0.3v-2.5H959.8z M958.2,15.7h-2.8v1.8h2.8v2.8h1.8v-2.8h2.8v-1.8H960v-2.8h-1.8V15.7z"/>
	<rect id="XMLID_24878_" x="959.8" y="12.9" fill="#606062" width="0.3" height="3"/>
	<rect id="XMLID_24877_" x="959.8" y="15.7" fill="#606062" width="3.1" height="0.3"/>
</g>
<circle id="XMLID_16240_" fill="#E2E2E2" stroke="#232322" stroke-miterlimit="10" cx="290.8" cy="194.4" r="13.2"/>
<g id="XMLID_16231_">
	
		<linearGradient id="XMLID_849_" gradientUnits="userSpaceOnUse" x1="16904.5547" y1="-19754.2656" x2="16917.9883" y2="-19754.2656" gradientTransform="matrix(-1 0 0 -1 17202.0605 -19560.0176)">
		<stop  offset="0" style="stop-color:#FFFFFF"/>
		<stop  offset="5.656110e-02" style="stop-color:#A3A3A4"/>
		<stop  offset="0.3372" style="stop-color:#919292"/>
		<stop  offset="0.3831" style="stop-color:#E0E0DF"/>
		<stop  offset="0.4519" style="stop-color:#C1C0C0"/>
		<stop  offset="0.9264" style="stop-color:#E0E0DF"/>
		<stop  offset="0.9745" style="stop-color:#C1C0C0"/>
	</linearGradient>
	<path id="XMLID_16239_" fill="url(#XMLID_849_)" d="M297.5,194.2c0-3.7-3-6.7-6.7-6.7c-3.7,0-6.7,3-6.7,6.7c0,3.7,3,6.7,6.7,6.7
		C294.5,200.9,297.5,197.9,297.5,194.2"/>
	
		<ellipse id="XMLID_16238_" fill="none" stroke="#121212" stroke-width="0.75" stroke-miterlimit="10" cx="290.8" cy="194.2" rx="6.7" ry="6.7"/>
	<polygon id="XMLID_16237_" fill="#040000" points="290,190.5 290,193.4 287,193.4 287,195.1 290,195.1 290,198 291.6,198 
		291.6,195.1 294.6,195.1 294.6,193.4 291.6,193.4 291.6,190.5 	"/>
	<path id="XMLID_16234_" fill="#221714" d="M290.1,197.9v-2.7v-0.3h-0.3h-2.7v-1.4h2.7h0.3v-0.3v-2.7h1.4v2.7v0.3h0.3h2.7v1.4h-2.7
		h-0.3v0.3v2.7H290.1z M291.8,195.2h3v-1.9h-3v-3h-1.9v3h-3v1.9h3v3h1.9V195.2z"/>
	<rect id="XMLID_16233_" x="289.8" y="194.9" fill="#606062" width="0.3" height="3.2"/>
	<rect id="XMLID_16232_" x="286.8" y="194.9" fill="#606062" width="3.3" height="0.3"/>
</g>
<circle id="XMLID_16230_" fill="#E2E2E2" stroke="#232322" stroke-miterlimit="10" cx="568.2" cy="194.4" r="13.2"/>
<g id="XMLID_16221_">
	
		<linearGradient id="XMLID_850_" gradientUnits="userSpaceOnUse" x1="16627.168" y1="-19754.2656" x2="16640.5996" y2="-19754.2656" gradientTransform="matrix(-1 0 0 -1 17202.0605 -19560.0176)">
		<stop  offset="0" style="stop-color:#FFFFFF"/>
		<stop  offset="5.656110e-02" style="stop-color:#A3A3A4"/>
		<stop  offset="0.3372" style="stop-color:#919292"/>
		<stop  offset="0.3831" style="stop-color:#E0E0DF"/>
		<stop  offset="0.4519" style="stop-color:#C1C0C0"/>
		<stop  offset="0.9264" style="stop-color:#E0E0DF"/>
		<stop  offset="0.9745" style="stop-color:#C1C0C0"/>
	</linearGradient>
	<path id="XMLID_16229_" fill="url(#XMLID_850_)" d="M574.9,194.2c0-3.7-3-6.7-6.7-6.7c-3.7,0-6.7,3-6.7,6.7c0,3.7,3,6.7,6.7,6.7
		C571.9,200.9,574.9,197.9,574.9,194.2"/>
	
		<ellipse id="XMLID_16228_" fill="none" stroke="#121212" stroke-width="0.75" stroke-miterlimit="10" cx="568.2" cy="194.2" rx="6.7" ry="6.7"/>
	<polygon id="XMLID_16227_" fill="#040000" points="567.3,190.5 567.3,193.4 564.4,193.4 564.4,195.1 567.3,195.1 567.3,198 
		569,198 569,195.1 572,195.1 572,193.4 569,193.4 569,190.5 	"/>
	<path id="XMLID_16224_" fill="#221714" d="M567.5,197.9v-2.7v-0.3h-0.3h-2.7v-1.4h2.7h0.3v-0.3v-2.7h1.4v2.7v0.3h0.3h2.7v1.4h-2.7
		h-0.3v0.3v2.7H567.5z M569.1,195.2h3v-1.9h-3v-3h-1.9v3h-3v1.9h3v3h1.9V195.2z"/>
	<rect id="XMLID_16223_" x="567.2" y="194.9" fill="#606062" width="0.3" height="3.2"/>
	<rect id="XMLID_16222_" x="564.2" y="194.9" fill="#606062" width="3.3" height="0.3"/>
</g>
<path id="XMLID_16169_" fill="none" stroke="#000000" stroke-width="0.5" stroke-miterlimit="10" d="M575.5,224.5H285.3
	c-4.3,0-7.8-3.5-7.8-7.8v-45.4c0-4.3,3.5-7.8,7.8-7.8h290.2c4.3,0,7.8,3.5,7.8,7.8v45.4C583.3,221,579.8,224.5,575.5,224.5z"/>
<path id="XMLID_16241_" fill="none" stroke="#000000" stroke-width="0.5" stroke-miterlimit="10" d="M932.2,16.7H0V0h940.8v8.1
	C940.8,12.9,936.9,16.7,932.2,16.7z"/>
</svg>
