<?xml version="1.0" encoding="utf-8"?>
<!-- Generator: Adobe Illustrator 21.0.0, SVG Export Plug-In . SVG Version: 6.00 Build 0)  -->
<svg version="1.1" id="图层_1" xmlns="http://www.w3.org/2000/svg" xmlns:xlink="http://www.w3.org/1999/xlink" x="0px" y="0px"
	 width="1275.6px" height="883px" viewBox="0 0 1275.6 883" enable-background="new 0 0 1275.6 883" xml:space="preserve">
<g>
	<rect y="0" fill="#465D65" width="1275.6" height="883"/>
	<linearGradient id="SVGID_2_" gradientUnits="userSpaceOnUse" x1="1259.5585" y1="441.4967" x2="1275.5906" y2="441.4967">
		<stop  offset="0" style="stop-color:#717071"/>
		<stop  offset="0.5108" style="stop-color:#C5C5C7"/>
		<stop  offset="1" style="stop-color:#717071"/>
	</linearGradient>
	<rect x="1259.6" y="0" fill="url(#SVGID_2_)" width="16" height="883"/>
	<linearGradient id="SVGID_4_" gradientUnits="userSpaceOnUse" x1="0" y1="441.4967" x2="16.0321" y2="441.4967">
		<stop  offset="0" style="stop-color:#717071"/>
		<stop  offset="0.5108" style="stop-color:#C5C5C7"/>
		<stop  offset="1" style="stop-color:#717071"/>
	</linearGradient>
	<rect x="0" y="0" fill="url(#SVGID_4_)" width="16" height="883"/>
	
		<linearGradient id="SVGID_6_" gradientUnits="userSpaceOnUse" x1="899.9777" y1="-309.1305" x2="916.0098" y2="-309.1305" gradientTransform="matrix(0 1 -1 0 328.6648 -899.9777)">
		<stop  offset="0" style="stop-color:#717071"/>
		<stop  offset="0.5108" style="stop-color:#C5C5C7"/>
		<stop  offset="1" style="stop-color:#717071"/>
	</linearGradient>
	<rect x="16" fill="url(#SVGID_6_)" width="1243.5" height="16"/>
	
		<linearGradient id="SVGID_8_" gradientUnits="userSpaceOnUse" x1="1766.9384" y1="-309.1305" x2="1782.9705" y2="-309.1305" gradientTransform="matrix(0 1 -1 0 328.6648 -899.9777)">
		<stop  offset="0" style="stop-color:#717071"/>
		<stop  offset="0.5108" style="stop-color:#C5C5C7"/>
		<stop  offset="1" style="stop-color:#717071"/>
	</linearGradient>
	<rect x="16" y="867" fill="url(#SVGID_8_)" width="1243.5" height="16"/>
	<g>
		<g>
			
				<linearGradient id="SVGID_10_" gradientUnits="userSpaceOnUse" x1="6.9572" y1="-1099.3801" x2="91.7527" y2="-1099.3801" gradientTransform="matrix(0 -1 1 0 1347.4906 190.674)">
				<stop  offset="0" style="stop-color:#585757"/>
				<stop  offset="8.228400e-03" style="stop-color:#5D5C5C"/>
				<stop  offset="1.809095e-02" style="stop-color:#6C6B6B"/>
				<stop  offset="2.879125e-02" style="stop-color:#848383"/>
				<stop  offset="4.008858e-02" style="stop-color:#A5A5A5"/>
				<stop  offset="5.172245e-02" style="stop-color:#D0D0D0"/>
				<stop  offset="6.267241e-02" style="stop-color:#FFFFFF"/>
				<stop  offset="8.052514e-02" style="stop-color:#F4F3F3"/>
				<stop  offset="0.1243" style="stop-color:#DDDDDD"/>
				<stop  offset="0.1753" style="stop-color:#CCCBCB"/>
				<stop  offset="0.2371" style="stop-color:#C0BFBF"/>
				<stop  offset="0.321" style="stop-color:#B9B8B8"/>
				<stop  offset="0.5258" style="stop-color:#B7B6B6"/>
				<stop  offset="0.6432" style="stop-color:#BAB9B9"/>
				<stop  offset="0.731" style="stop-color:#C3C3C3"/>
				<stop  offset="0.8091" style="stop-color:#D3D3D3"/>
				<stop  offset="0.8812" style="stop-color:#EAE9E9"/>
				<stop  offset="0.9338" style="stop-color:#FFFFFF"/>
				<stop  offset="0.9339" style="stop-color:#FEFEFE"/>
				<stop  offset="0.9403" style="stop-color:#D9D9D9"/>
				<stop  offset="0.947" style="stop-color:#BAB9B9"/>
				<stop  offset="0.9544" style="stop-color:#9F9F9E"/>
				<stop  offset="0.9624" style="stop-color:#8B8A8A"/>
				<stop  offset="0.9714" style="stop-color:#7D7C7B"/>
				<stop  offset="0.9823" style="stop-color:#757473"/>
				<stop  offset="1" style="stop-color:#727170"/>
			</linearGradient>
			<polygon fill="url(#SVGID_10_)" points="301.3,98.9 301.3,183.7 194.9,183.7 194.9,98.9 			"/>
			<g>
				<g>
					<defs>
						<rect id="SVGID_76_" x="200.9" y="114" width="91.8" height="57.3"/>
					</defs>
					<clipPath id="SVGID_12_">
						<use xlink:href="#SVGID_76_"  overflow="visible"/>
					</clipPath>
					
						<linearGradient id="SVGID_13_" gradientUnits="userSpaceOnUse" x1="6977.2656" y1="2348.6982" x2="6978.8003" y2="2348.6982" gradientTransform="matrix(-79.8244 0 0 79.8244 557265.3125 -187340.7656)">
						<stop  offset="0" style="stop-color:#103580"/>
						<stop  offset="0.2581" style="stop-color:#0C1D4C"/>
						<stop  offset="1" style="stop-color:#000021"/>
					</linearGradient>
					<rect x="200.9" y="114" clip-path="url(#SVGID_12_)" fill="url(#SVGID_13_)" width="91.8" height="57.3"/>
				</g>
				<g>
					<defs>
						<path id="SVGID_75_" d="M203.2,171.5h89.7c0.4,0,0.7-0.2,0.7-0.1v-58.5c-0.1-0.1-0.3-0.3-0.7-0.3h-89.7
							c-0.4,0-0.7,0.2-0.7,0.1l0,58.5C202.5,171.2,202.8,171.5,203.2,171.5"/>
					</defs>
					<clipPath id="SVGID_15_">
						<use xlink:href="#SVGID_75_"  overflow="visible"/>
					</clipPath>
					
						<linearGradient id="SVGID_16_" gradientUnits="userSpaceOnUse" x1="6881.7783" y1="2112.8296" x2="6883.3135" y2="2112.8296" gradientTransform="matrix(58.6222 0 0 -58.6222 -403221.5625 124000.7266)">
						<stop  offset="0" style="stop-color:#2E2624"/>
						<stop  offset="1" style="stop-color:#342E2C"/>
					</linearGradient>
					<rect x="202.5" y="112.5" clip-path="url(#SVGID_15_)" fill="url(#SVGID_16_)" width="91.1" height="58.9"/>
				</g>
				<path d="M292.1,114.5v55h-88v-55H292.1z M200.9,112.7v58.6c0,1.1,1,2.1,2.2,2.1h89.7c1.2,0,2.2-0.9,2.2-2.1v-58.6
					c0-1.2-1-2.1-2.2-2.1h-89.7C202,110.6,200.9,111.5,200.9,112.7"/>
				<path fill="#030303" d="M280.1,121.3c0.9,0,1.6,0.6,1.6,1.4v38.7c0,0.8-0.7,1.4-1.6,1.4H216c-0.9,0-1.6-0.6-1.6-1.4v-38.7
					c0-0.8,0.7-1.4,1.6-1.4H280.1z"/>
				<g>
					<defs>
						<path id="SVGID_73_" d="M218.8,158.8c0,0.7,0.6,1.2,1.4,1.2H248v-36h-27.8c-0.8,0-1.4,0.5-1.4,1.2V158.8z"/>
					</defs>
					<clipPath id="SVGID_17_">
						<use xlink:href="#SVGID_73_"  overflow="visible"/>
					</clipPath>
					
						<linearGradient id="SVGID_18_" gradientUnits="userSpaceOnUse" x1="6794.1689" y1="1896.4155" x2="6795.7041" y2="1896.4155" gradientTransform="matrix(22.6221 0 0 -22.6221 -153467.1563 43042.9023)">
						<stop  offset="0" style="stop-color:#261C19"/>
						<stop  offset="1" style="stop-color:#514E4E"/>
					</linearGradient>
					<rect x="218.8" y="124" clip-path="url(#SVGID_17_)" fill="url(#SVGID_18_)" width="29.2" height="36"/>
				</g>
				<path fill="#050505" d="M248,160h27.8c0.8,0,1.4-0.5,1.4-1.2v-33.6c0-0.7-0.6-1.2-1.4-1.2H248V160z"/>
				<path fill="#121212" d="M248,160h27.8c0.8,0,1.4-0.5,1.4-1.2v-33.6c0-0.7-0.6-1.2-1.4-1.2H248V160z"/>
				<rect x="248" y="124" fill="#030303" width="1.2" height="36"/>
				<rect x="226.4" y="140.7" fill="#4D4D4D" width="14" height="3.9"/>
				<ellipse fill="none" stroke="#4D4D4D" stroke-width="0.783" stroke-miterlimit="10" cx="262.7" cy="141.9" rx="2.5" ry="3.1"/>
			</g>
		</g>
		<g>
			<path fill="#3E3A39" stroke="#000000" stroke-width="2" stroke-miterlimit="10" d="M295,284h-93.7c-3.5,0-6.3-2.8-6.3-6.3v-64
				c0-3.5,2.8-6.3,6.3-6.3H295c3.5,0,6.3,2.8,6.3,6.3v64C301.3,281.2,298.5,284,295,284z"/>
			<g>
				
					<linearGradient id="SVGID_19_" gradientUnits="userSpaceOnUse" x1="-86.1857" y1="-1098.7401" x2="-26.5248" y2="-1098.7401" gradientTransform="matrix(0 -1 1 0 1347.4906 190.674)">
					<stop  offset="0" style="stop-color:#585757"/>
					<stop  offset="3.160704e-03" style="stop-color:#5D5C5C"/>
					<stop  offset="6.949120e-03" style="stop-color:#6C6B6B"/>
					<stop  offset="1.105933e-02" style="stop-color:#848383"/>
					<stop  offset="1.539888e-02" style="stop-color:#A5A5A5"/>
					<stop  offset="1.986770e-02" style="stop-color:#D0D0D0"/>
					<stop  offset="2.407381e-02" style="stop-color:#FFFFFF"/>
					<stop  offset="4.341454e-02" style="stop-color:#F4F3F3"/>
					<stop  offset="9.083977e-02" style="stop-color:#DDDDDD"/>
					<stop  offset="0.1461" style="stop-color:#CCCBCB"/>
					<stop  offset="0.213" style="stop-color:#C0BFBF"/>
					<stop  offset="0.304" style="stop-color:#B9B8B8"/>
					<stop  offset="0.5258" style="stop-color:#B7B6B6"/>
					<stop  offset="0.6563" style="stop-color:#BAB9B9"/>
					<stop  offset="0.7538" style="stop-color:#C3C3C3"/>
					<stop  offset="0.8405" style="stop-color:#D3D3D3"/>
					<stop  offset="0.9206" style="stop-color:#EAE9E9"/>
					<stop  offset="0.9791" style="stop-color:#FFFFFF"/>
					<stop  offset="0.9791" style="stop-color:#FEFEFE"/>
					<stop  offset="0.9812" style="stop-color:#D9D9D9"/>
					<stop  offset="0.9833" style="stop-color:#BAB9B9"/>
					<stop  offset="0.9856" style="stop-color:#9F9F9E"/>
					<stop  offset="0.9881" style="stop-color:#8B8A8A"/>
					<stop  offset="0.991" style="stop-color:#7D7C7B"/>
					<stop  offset="0.9944" style="stop-color:#757473"/>
					<stop  offset="1" style="stop-color:#727170"/>
				</linearGradient>
				<path fill="url(#SVGID_19_)" d="M284.7,219.9v54.2c0,1.5-1.2,2.7-2.7,2.7h-66.3c-1.5,0-2.7-1.2-2.7-2.7v-54.2
					c0-1.5,1.2-2.7,2.7-2.7h66.3C283.4,217.2,284.7,218.4,284.7,219.9z"/>
				<g>
					<path fill="#3E3A39" d="M281.4,270.4c0,1.5-1.2,2.7-2.6,2.7h-60.3c-1.4,0-2.6-1.2-2.6-2.7v-47.1c0-1.5,1.2-2.7,2.6-2.7h60.3
						c1.4,0,2.6,1.2,2.6,2.7V270.4z"/>
					<path fill="none" stroke="#000000" stroke-width="2" stroke-miterlimit="10" d="M281.4,270.4c0,1.5-1.2,2.7-2.6,2.7h-60.3
						c-1.4,0-2.6-1.2-2.6-2.7v-47.1c0-1.5,1.2-2.7,2.6-2.7h60.3c1.4,0,2.6,1.2,2.6,2.7V270.4z"/>
					<polygon fill="#231815" points="226,264.2 226,238.2 234.6,229.5 262.9,229.5 271.3,238.6 271.3,264.2 					"/>
					<rect x="259" y="244.8" fill="#343842" width="2.9" height="9.9"/>
					<rect x="259" y="246.5" fill="#80848D" width="1.4" height="8.1"/>
					<rect x="246.6" y="238.7" fill="#343842" width="2.9" height="9.9"/>
					<rect x="246.6" y="240.4" fill="#80848D" width="1.4" height="8.1"/>
					<rect x="234.1" y="244.8" fill="#343842" width="2.9" height="9.9"/>
					<rect x="234.1" y="246.5" fill="#80848D" width="1.4" height="8.1"/>
				</g>
			</g>
			<g>
				
					<radialGradient id="SVGID_20_" cx="204.0169" cy="167.9901" r="5.0857" gradientTransform="matrix(1 0 0 1.0869 0 62.5189)" gradientUnits="userSpaceOnUse">
					<stop  offset="0.6774" style="stop-color:#2B2B2B"/>
					<stop  offset="0.8441" style="stop-color:#595757"/>
					<stop  offset="1" style="stop-color:#000000"/>
				</radialGradient>
				<path fill="url(#SVGID_20_)" d="M209.1,245.1c0,3.1-2.3,5.5-5.1,5.5c-2.8,0-5.1-2.5-5.1-5.5c0-3.1,2.3-5.5,5.1-5.5
					C206.8,239.6,209.1,242,209.1,245.1"/>
				<ellipse fill="none" stroke="#131313" stroke-width="0.75" stroke-miterlimit="10" cx="204" cy="245.1" rx="5.1" ry="5.5"/>
				<polygon fill="#0A0A0A" points="203.4,248.2 203.4,245.8 201.1,245.8 201.1,244.4 203.4,244.4 203.4,242 204.6,242 204.6,244.4 
					206.9,244.4 206.9,245.8 204.6,245.8 204.6,248.2 				"/>
				<path fill="#231815" d="M204.5,242.1v2.2v0.2h0.2h2v1.1h-2h-0.2v0.2v2.2h-1v-2.2v-0.2h-0.2h-2v-1.1h2h0.2v-0.2v-2.2H204.5z
					 M204.8,241.8h-1.5v2.5H201v1.6h2.3v2.5h1.5v-2.5h2.3v-1.6h-2.3V241.8z"/>
			</g>
			<rect x="203.3" y="241.8" fill="#606060" width="0.2" height="2.7"/>
			<rect x="201" y="244.3" fill="#606060" width="2.5" height="0.2"/>
			<rect x="203.3" y="241.8" fill="#494949" width="1.5" height="0.2"/>
			<rect x="201" y="244.3" fill="#545454" width="0.2" height="1.6"/>
			<g>
				
					<radialGradient id="SVGID_21_" cx="292.0534" cy="167.9901" r="5.0857" gradientTransform="matrix(1 0 0 1.0869 0 62.5189)" gradientUnits="userSpaceOnUse">
					<stop  offset="0.6774" style="stop-color:#2B2B2B"/>
					<stop  offset="0.8441" style="stop-color:#595757"/>
					<stop  offset="1" style="stop-color:#000000"/>
				</radialGradient>
				<path fill="url(#SVGID_21_)" d="M297.1,245.1c0,3.1-2.3,5.5-5.1,5.5c-2.8,0-5.1-2.5-5.1-5.5c0-3.1,2.3-5.5,5.1-5.5
					C294.9,239.6,297.1,242,297.1,245.1"/>
				<ellipse fill="none" stroke="#131313" stroke-width="0.75" stroke-miterlimit="10" cx="292.1" cy="245.1" rx="5.1" ry="5.5"/>
				<polygon fill="#0A0A0A" points="291.4,248.2 291.4,245.8 289.2,245.8 289.2,244.4 291.4,244.4 291.4,242 292.7,242 292.7,244.4 
					294.9,244.4 294.9,245.8 292.7,245.8 292.7,248.2 				"/>
				<path fill="#231815" d="M292.6,242.1v2.2v0.2h0.2h2v1.1h-2h-0.2v0.2v2.2h-1v-2.2v-0.2h-0.2h-2v-1.1h2h0.2v-0.2v-2.2H292.6z
					 M292.8,241.8h-1.5v2.5h-2.3v1.6h2.3v2.5h1.5v-2.5h2.3v-1.6h-2.3V241.8z"/>
			</g>
			<rect x="291.3" y="241.8" fill="#606060" width="0.2" height="2.7"/>
			<rect x="289.1" y="244.3" fill="#606060" width="2.5" height="0.2"/>
			<rect x="291.3" y="241.8" fill="#494949" width="1.5" height="0.2"/>
			<rect x="289.1" y="244.3" fill="#545454" width="0.2" height="1.6"/>
		</g>
		<g>
			<rect x="115.8" y="85.4" fill="#1F2020" width="8.9" height="231.6"/>
			<g>
				<g>
					<defs>
						<path id="SVGID_1087_" d="M95.8,56.5l-5.5,0.3l-1.2,46.2l20.2,6.3c8.1,2.5,15.4-8.9,15.4-23.9v-5.6c0-6.8-2.5-12.8-6.1-14.5
							l-13.7-6.7c-2.7-1.2-6-2.1-8.8-2.1C96,56.5,95.9,56.5,95.8,56.5"/>
					</defs>
					
						<linearGradient id="SVGID_24_" gradientUnits="userSpaceOnUse" x1="-3306.8494" y1="-11170.458" x2="-3277.3953" y2="-11170.458" gradientTransform="matrix(1 0 0 1 3395.7319 11253.4824)">
						<stop  offset="0" style="stop-color:#909091"/>
						<stop  offset="1" style="stop-color:#000000"/>
					</linearGradient>
					<use xlink:href="#SVGID_1087_"  overflow="visible" fill="url(#SVGID_24_)"/>
					<clipPath id="SVGID_29_">
						<use xlink:href="#SVGID_1087_"  overflow="visible"/>
					</clipPath>
					
						<linearGradient id="SVGID_32_" gradientUnits="userSpaceOnUse" x1="7140.8013" y1="2936.061" x2="7142.9775" y2="2936.061" gradientTransform="matrix(-21.6019 8.6407 -8.6407 -21.6019 179760.125 1795.5865)">
						<stop  offset="0" style="stop-color:#909091"/>
						<stop  offset="1" style="stop-color:#000000"/>
					</linearGradient>
					<polygon clip-path="url(#SVGID_29_)" fill="url(#SVGID_32_)" points="119.8,33.9 78.7,64.1 94,134.3 135.1,104.1 					"/>
				</g>
				<g>
					<defs>
						<path id="SVGID_1091_" d="M112.1,290.1l-23.1,8.1l2.7,45.9c4.9,0,9.8-1.2,14.5-3.5l8.2-4c6.1-3,10.3-13,10.3-24.6v-2.9
							c0-10.9-4.8-19.4-10.5-19.4C113.5,289.8,112.8,289.9,112.1,290.1"/>
					</defs>
					
						<linearGradient id="SVGID_35_" gradientUnits="userSpaceOnUse" x1="-3306.6482" y1="-10936.5244" x2="-3271.0408" y2="-10936.5244" gradientTransform="matrix(1 0 0 1 3395.7319 11253.4824)">
						<stop  offset="0" style="stop-color:#909091"/>
						<stop  offset="1" style="stop-color:#000000"/>
					</linearGradient>
					<use xlink:href="#SVGID_1091_"  overflow="visible" fill="url(#SVGID_35_)"/>
					<clipPath id="SVGID_38_">
						<use xlink:href="#SVGID_1091_"  overflow="visible"/>
					</clipPath>
					
						<linearGradient id="SVGID_39_" gradientUnits="userSpaceOnUse" x1="7628.7075" y1="3112.9915" x2="7630.2803" y2="3112.9915" gradientTransform="matrix(-14.9609 0 0 -14.9609 114260.8047 46890.1133)">
						<stop  offset="0" style="stop-color:#909091"/>
						<stop  offset="1" style="stop-color:#000000"/>
					</linearGradient>
					<rect x="89.1" y="289.8" clip-path="url(#SVGID_38_)" fill="url(#SVGID_39_)" width="35.6" height="54.3"/>
				</g>
				<g>
					<defs>
						<path id="SVGID_1095_" d="M91.7,56.5c-8.6,0-15.5,12.8-15.5,28.5v230.7c0,15.7,7,28.5,15.5,28.5c8.6,0,15.5-12.8,15.5-28.5V85
							C107.3,69.2,100.3,56.5,91.7,56.5L91.7,56.5z"/>
					</defs>
					<clipPath id="SVGID_41_">
						<use xlink:href="#SVGID_1095_"  overflow="visible"/>
					</clipPath>
					
						<linearGradient id="SVGID_44_" gradientUnits="userSpaceOnUse" x1="6412.1611" y1="1590.2521" x2="6413.7344" y2="1590.2521" gradientTransform="matrix(19.747 0 0 19.747 -126544.7422 -31202.4121)">
						<stop  offset="0" style="stop-color:#211F1F"/>
						<stop  offset="0.5029" style="stop-color:#808080"/>
						<stop  offset="1" style="stop-color:#211F1F"/>
					</linearGradient>
					<rect x="76.2" y="56.5" clip-path="url(#SVGID_41_)" fill="url(#SVGID_44_)" width="31.1" height="287.7"/>
				</g>
			</g>
		</g>
		<g>
			<rect x="1186.7" y="85.4" fill="#1F2020" width="8.9" height="231.6"/>
			<g>
				<g>
					<defs>
						<path id="SVGID_1098_" d="M1166.7,56.5l-5.5,0.3l-1.2,46.2l20.2,6.3c8.1,2.5,15.4-8.9,15.4-23.9v-5.6c0-6.8-2.5-12.8-6.1-14.5
							l-13.7-6.7c-2.7-1.2-6-2.1-8.8-2.1C1167,56.5,1166.8,56.5,1166.7,56.5"/>
					</defs>
					
						<linearGradient id="SVGID_46_" gradientUnits="userSpaceOnUse" x1="-2235.897" y1="-11170.458" x2="-2206.4429" y2="-11170.458" gradientTransform="matrix(1 0 0 1 3395.7319 11253.4824)">
						<stop  offset="0" style="stop-color:#909091"/>
						<stop  offset="1" style="stop-color:#000000"/>
					</linearGradient>
					<use xlink:href="#SVGID_1098_"  overflow="visible" fill="url(#SVGID_46_)"/>
					<clipPath id="SVGID_48_">
						<use xlink:href="#SVGID_1098_"  overflow="visible"/>
					</clipPath>
					
						<linearGradient id="SVGID_49_" gradientUnits="userSpaceOnUse" x1="7098.0625" y1="2918.9658" x2="7100.2393" y2="2918.9658" gradientTransform="matrix(-21.6019 8.6407 -8.6407 -21.6019 179760.125 1795.5865)">
						<stop  offset="0" style="stop-color:#909091"/>
						<stop  offset="1" style="stop-color:#000000"/>
					</linearGradient>
					<polygon clip-path="url(#SVGID_48_)" fill="url(#SVGID_49_)" points="1190.7,33.9 1149.6,64.1 1164.9,134.3 1206,104.1 					
						"/>
				</g>
				<g>
					<defs>
						<path id="SVGID_1102_" d="M1183.1,290.1l-23.1,8.1l2.7,45.9c4.9,0,9.8-1.2,14.5-3.5l8.2-4c6.1-3,10.3-13,10.3-24.6v-2.9
							c0-10.9-4.8-19.4-10.5-19.4C1184.4,289.8,1183.8,289.9,1183.1,290.1"/>
					</defs>
					
						<linearGradient id="SVGID_52_" gradientUnits="userSpaceOnUse" x1="-2235.6956" y1="-10936.5244" x2="-2200.0884" y2="-10936.5244" gradientTransform="matrix(1 0 0 1 3395.7319 11253.4824)">
						<stop  offset="0" style="stop-color:#909091"/>
						<stop  offset="1" style="stop-color:#000000"/>
					</linearGradient>
					<use xlink:href="#SVGID_1102_"  overflow="visible" fill="url(#SVGID_52_)"/>
					<clipPath id="SVGID_53_">
						<use xlink:href="#SVGID_1102_"  overflow="visible"/>
					</clipPath>
					
						<linearGradient id="SVGID_55_" gradientUnits="userSpaceOnUse" x1="7557.124" y1="3112.9915" x2="7558.6968" y2="3112.9915" gradientTransform="matrix(-14.9609 0 0 -14.9609 114260.8047 46890.1133)">
						<stop  offset="0" style="stop-color:#909091"/>
						<stop  offset="1" style="stop-color:#000000"/>
					</linearGradient>
					<rect x="1160" y="289.8" clip-path="url(#SVGID_53_)" fill="url(#SVGID_55_)" width="35.6" height="54.3"/>
				</g>
				<g>
					<defs>
						<path id="SVGID_1106_" d="M1162.7,56.5c-8.6,0-15.5,12.8-15.5,28.5v230.7c0,15.7,7,28.5,15.5,28.5c8.6,0,15.5-12.8,15.5-28.5
							V85C1178.2,69.2,1171.3,56.5,1162.7,56.5L1162.7,56.5z"/>
					</defs>
					<clipPath id="SVGID_57_">
						<use xlink:href="#SVGID_1106_"  overflow="visible"/>
					</clipPath>
					
						<linearGradient id="SVGID_60_" gradientUnits="userSpaceOnUse" x1="6466.395" y1="1590.2521" x2="6467.9678" y2="1590.2521" gradientTransform="matrix(19.747 0 0 19.747 -126544.7422 -31202.4121)">
						<stop  offset="0" style="stop-color:#211F1F"/>
						<stop  offset="0.5029" style="stop-color:#808080"/>
						<stop  offset="1" style="stop-color:#211F1F"/>
					</linearGradient>
					<rect x="1147.2" y="56.5" clip-path="url(#SVGID_57_)" fill="url(#SVGID_60_)" width="31.1" height="287.7"/>
				</g>
			</g>
		</g>
		<g>
			<ellipse fill="#C1C1C1" cx="316.5" cy="58.9" rx="15.8" ry="15.6"/>
			<g>
				<path fill="#A1A0A0" d="M327.9,58.9c0,6.2-5.1,11.2-11.4,11.2c-6.3,0-11.4-5-11.4-11.2c0-6.2,5.1-11.2,11.4-11.2
					C322.8,47.7,327.9,52.7,327.9,58.9"/>
				<ellipse fill="none" stroke="#848484" stroke-miterlimit="10" cx="316.5" cy="58.9" rx="11.4" ry="11.2"/>
				<path fill="#A1A0A0" d="M324.9,58.9c0,4.5-3.8,8.2-8.4,8.2c-4.6,0-8.4-3.7-8.4-8.2c0-4.5,3.8-8.2,8.4-8.2
					C321.1,50.7,324.9,54.4,324.9,58.9"/>
				<ellipse fill="none" stroke="#848484" stroke-miterlimit="10" cx="316.5" cy="58.9" rx="8.4" ry="8.2"/>
				<g>
					<g>
						<defs>
							<rect id="SVGID_1109_" x="308.6" y="51.2" width="15.8" height="15.5"/>
						</defs>
						<clipPath id="SVGID_62_">
							<use xlink:href="#SVGID_1109_"  overflow="visible"/>
						</clipPath>
						<path clip-path="url(#SVGID_62_)" fill="#B1B0AF" d="M324.4,58.9c0,4.3-3.5,7.7-7.9,7.7c-4.4,0-7.9-3.5-7.9-7.7
							c0-4.3,3.5-7.7,7.9-7.7C320.8,51.2,324.4,54.6,324.4,58.9"/>
						<path clip-path="url(#SVGID_62_)" fill="#B3B2B1" d="M324.2,58.9c0,4.2-3.5,7.6-7.7,7.6c-4.3,0-7.7-3.4-7.7-7.6
							c0-4.2,3.4-7.6,7.7-7.6C320.7,51.4,324.2,54.7,324.2,58.9"/>
						<path clip-path="url(#SVGID_62_)" fill="#B4B5B5" d="M324,58.9c0,4.1-3.4,7.4-7.5,7.4c-4.2,0-7.5-3.3-7.5-7.4
							c0-4.1,3.4-7.4,7.5-7.4C320.6,51.5,324,54.8,324,58.9"/>
						<path clip-path="url(#SVGID_62_)" fill="#B6B7B6" d="M323.8,58.9c0,4-3.3,7.2-7.3,7.2c-4.1,0-7.3-3.2-7.3-7.2
							c0-4,3.3-7.2,7.3-7.2C320.5,51.7,323.8,54.9,323.8,58.9"/>
						<path clip-path="url(#SVGID_62_)" fill="#B8BABA" d="M323.6,58.9c0,3.9-3.2,7-7.1,7c-3.9,0-7.1-3.1-7.1-7c0-3.9,3.2-7,7.1-7
							C320.4,51.9,323.6,55,323.6,58.9"/>
						<path clip-path="url(#SVGID_62_)" fill="#BBBCBD" d="M323.4,58.9c0,3.8-3.1,6.8-7,6.8c-3.8,0-7-3.1-7-6.8c0-3.8,3.1-6.8,7-6.8
							C320.3,52.1,323.4,55.1,323.4,58.9"/>
						<path clip-path="url(#SVGID_62_)" fill="#BDBFBF" d="M323.3,58.9c0,3.7-3,6.7-6.8,6.7c-3.7,0-6.8-3-6.8-6.7
							c0-3.7,3-6.7,6.8-6.7C320.2,52.3,323.3,55.2,323.3,58.9"/>
						<path clip-path="url(#SVGID_62_)" fill="#BEC0C1" d="M323.1,58.9c0,3.6-3,6.5-6.6,6.5c-3.6,0-6.6-2.9-6.6-6.5
							c0-3.6,3-6.5,6.6-6.5C320.1,52.5,323.1,55.3,323.1,58.9"/>
						<path clip-path="url(#SVGID_62_)" fill="#C2C4C3" d="M322.9,58.9c0,3.5-2.9,6.3-6.4,6.3c-3.5,0-6.4-2.8-6.4-6.3
							c0-3.5,2.9-6.3,6.4-6.3C320,52.6,322.9,55.4,322.9,58.9"/>
						<path clip-path="url(#SVGID_62_)" fill="#C4C6C7" d="M322.7,58.9c0,3.4-2.8,6.1-6.2,6.1c-3.4,0-6.2-2.7-6.2-6.1
							c0-3.4,2.8-6.1,6.2-6.1C319.9,52.8,322.7,55.5,322.7,58.9"/>
					</g>
				</g>
				<polygon fill="#5F5F5E" points="315.4,63.6 315.4,59.9 311.7,59.9 311.7,57.9 315.4,57.9 315.4,54.3 317.5,54.3 317.5,57.9 
					321.2,57.9 321.2,59.9 317.5,59.9 317.5,63.6 				"/>
				<path fill="#211613" d="M317.3,54.4v3.3v0.4h0.4h3.4v1.7h-3.4h-0.4v0.4v3.3h-1.7v-3.3v-0.4h-0.4h-3.4v-1.7h3.4h0.4v-0.4v-3.3
					H317.3z M317.7,54.1h-2.4v3.6h-3.7v2.4h3.7v3.6h2.4v-3.6h3.7v-2.4h-3.7V54.1z"/>
			</g>
		</g>
		<g>
			<ellipse fill="#C1C1C1" cx="246.6" cy="321.4" rx="15.8" ry="15.6"/>
			<g>
				<path fill="#A1A0A0" d="M258,321.4c0,6.2-5.1,11.2-11.4,11.2c-6.3,0-11.4-5-11.4-11.2c0-6.2,5.1-11.2,11.4-11.2
					C252.9,310.2,258,315.2,258,321.4"/>
				<ellipse fill="none" stroke="#848484" stroke-miterlimit="10" cx="246.6" cy="321.4" rx="11.4" ry="11.2"/>
				<path fill="#A1A0A0" d="M254.9,321.4c0,4.5-3.8,8.2-8.4,8.2c-4.6,0-8.4-3.7-8.4-8.2c0-4.5,3.8-8.2,8.4-8.2
					C251.2,313.1,254.9,316.8,254.9,321.4"/>
				<ellipse fill="none" stroke="#848484" stroke-miterlimit="10" cx="246.6" cy="321.4" rx="8.4" ry="8.2"/>
				<g>
					<g>
						<defs>
							<rect id="SVGID_1111_" x="238.7" y="313.6" width="15.8" height="15.5"/>
						</defs>
						<clipPath id="SVGID_64_">
							<use xlink:href="#SVGID_1111_"  overflow="visible"/>
						</clipPath>
						<path clip-path="url(#SVGID_64_)" fill="#B1B0AF" d="M254.4,321.4c0,4.3-3.5,7.7-7.9,7.7c-4.4,0-7.9-3.5-7.9-7.7
							c0-4.3,3.5-7.7,7.9-7.7C250.9,313.6,254.4,317.1,254.4,321.4"/>
						<path clip-path="url(#SVGID_64_)" fill="#B3B2B1" d="M254.3,321.4c0,4.2-3.5,7.6-7.7,7.6c-4.3,0-7.7-3.4-7.7-7.6
							c0-4.2,3.4-7.6,7.7-7.6C250.8,313.8,254.3,317.2,254.3,321.4"/>
						<path clip-path="url(#SVGID_64_)" fill="#B4B5B5" d="M254.1,321.4c0,4.1-3.4,7.4-7.5,7.4c-4.2,0-7.5-3.3-7.5-7.4
							c0-4.1,3.4-7.4,7.5-7.4C250.7,314,254.1,317.3,254.1,321.4"/>
						<path clip-path="url(#SVGID_64_)" fill="#B6B7B6" d="M253.9,321.4c0,4-3.3,7.2-7.3,7.2c-4.1,0-7.3-3.2-7.3-7.2
							c0-4,3.3-7.2,7.3-7.2C250.6,314.2,253.9,317.4,253.9,321.4"/>
						<path clip-path="url(#SVGID_64_)" fill="#B8BABA" d="M253.7,321.4c0,3.9-3.2,7-7.1,7c-3.9,0-7.1-3.1-7.1-7c0-3.9,3.2-7,7.1-7
							C250.5,314.3,253.7,317.5,253.7,321.4"/>
						<path clip-path="url(#SVGID_64_)" fill="#BBBCBD" d="M253.5,321.4c0,3.8-3.1,6.8-7,6.8c-3.8,0-7-3.1-7-6.8
							c0-3.8,3.1-6.8,7-6.8C250.4,314.5,253.5,317.6,253.5,321.4"/>
						<path clip-path="url(#SVGID_64_)" fill="#BDBFBF" d="M253.3,321.4c0,3.7-3,6.7-6.8,6.7c-3.7,0-6.8-3-6.8-6.7
							c0-3.7,3-6.7,6.8-6.7C250.3,314.7,253.3,317.7,253.3,321.4"/>
						<path clip-path="url(#SVGID_64_)" fill="#BEC0C1" d="M253.2,321.4c0,3.6-3,6.5-6.6,6.5c-3.6,0-6.6-2.9-6.6-6.5
							c0-3.6,3-6.5,6.6-6.5C250.2,314.9,253.2,317.8,253.2,321.4"/>
						<path clip-path="url(#SVGID_64_)" fill="#C2C4C3" d="M253,321.4c0,3.5-2.9,6.3-6.4,6.3c-3.5,0-6.4-2.8-6.4-6.3
							c0-3.5,2.9-6.3,6.4-6.3C250.1,315.1,253,317.9,253,321.4"/>
						<path clip-path="url(#SVGID_64_)" fill="#C4C6C7" d="M252.8,321.4c0,3.4-2.8,6.1-6.2,6.1c-3.4,0-6.2-2.7-6.2-6.1
							c0-3.4,2.8-6.1,6.2-6.1C250,315.3,252.8,318,252.8,321.4"/>
					</g>
				</g>
				<polygon fill="#5F5F5E" points="245.5,326 245.5,322.4 241.8,322.4 241.8,320.3 245.5,320.3 245.5,316.7 247.6,316.7 
					247.6,320.3 251.3,320.3 251.3,322.4 247.6,322.4 247.6,326 				"/>
				<path fill="#211613" d="M247.4,316.9v3.3v0.4h0.4h3.4v1.7h-3.4h-0.4v0.4v3.3h-1.7v-3.3v-0.4h-0.4H242v-1.7h3.4h0.4v-0.4v-3.3
					H247.4z M247.8,316.5h-2.4v3.6h-3.7v2.4h3.7v3.6h2.4v-3.6h3.7v-2.4h-3.7V316.5z"/>
			</g>
		</g>
		<g>
			<ellipse fill="#C1C1C1" cx="982.3" cy="321.4" rx="15.8" ry="15.6"/>
			<g>
				<path fill="#A1A0A0" d="M993.6,321.4c0,6.2-5.1,11.2-11.4,11.2c-6.3,0-11.4-5-11.4-11.2c0-6.2,5.1-11.2,11.4-11.2
					C988.5,310.2,993.6,315.2,993.6,321.4"/>
				<ellipse fill="none" stroke="#848484" stroke-miterlimit="10" cx="982.3" cy="321.4" rx="11.4" ry="11.2"/>
				<path fill="#A1A0A0" d="M990.6,321.4c0,4.5-3.8,8.2-8.4,8.2c-4.6,0-8.4-3.7-8.4-8.2c0-4.5,3.8-8.2,8.4-8.2
					C986.9,313.1,990.6,316.8,990.6,321.4"/>
				<ellipse fill="none" stroke="#848484" stroke-miterlimit="10" cx="982.3" cy="321.4" rx="8.4" ry="8.2"/>
				<g>
					<g>
						<defs>
							<rect id="SVGID_1113_" x="974.4" y="313.6" width="15.8" height="15.5"/>
						</defs>
						<clipPath id="SVGID_65_">
							<use xlink:href="#SVGID_1113_"  overflow="visible"/>
						</clipPath>
						<path clip-path="url(#SVGID_65_)" fill="#B1B0AF" d="M990.1,321.4c0,4.3-3.5,7.7-7.9,7.7c-4.4,0-7.9-3.5-7.9-7.7
							c0-4.3,3.5-7.7,7.9-7.7C986.6,313.6,990.1,317.1,990.1,321.4"/>
						<path clip-path="url(#SVGID_65_)" fill="#B3B2B1" d="M990,321.4c0,4.2-3.5,7.6-7.7,7.6c-4.3,0-7.7-3.4-7.7-7.6
							c0-4.2,3.4-7.6,7.7-7.6C986.5,313.8,990,317.2,990,321.4"/>
						<path clip-path="url(#SVGID_65_)" fill="#B4B5B5" d="M989.8,321.4c0,4.1-3.4,7.4-7.5,7.4c-4.2,0-7.5-3.3-7.5-7.4
							c0-4.1,3.4-7.4,7.5-7.4C986.4,314,989.8,317.3,989.8,321.4"/>
						<path clip-path="url(#SVGID_65_)" fill="#B6B7B6" d="M989.6,321.4c0,4-3.3,7.2-7.3,7.2c-4.1,0-7.3-3.2-7.3-7.2
							c0-4,3.3-7.2,7.3-7.2C986.3,314.2,989.6,317.4,989.6,321.4"/>
						<path clip-path="url(#SVGID_65_)" fill="#B8BABA" d="M989.4,321.4c0,3.9-3.2,7-7.1,7c-3.9,0-7.1-3.1-7.1-7c0-3.9,3.2-7,7.1-7
							C986.2,314.3,989.4,317.5,989.4,321.4"/>
						<path clip-path="url(#SVGID_65_)" fill="#BBBCBD" d="M989.2,321.4c0,3.8-3.1,6.8-7,6.8c-3.8,0-7-3.1-7-6.8
							c0-3.8,3.1-6.8,7-6.8C986.1,314.5,989.2,317.6,989.2,321.4"/>
						<path clip-path="url(#SVGID_65_)" fill="#BDBFBF" d="M989,321.4c0,3.7-3,6.7-6.8,6.7c-3.7,0-6.8-3-6.8-6.7
							c0-3.7,3-6.7,6.8-6.7C986,314.7,989,317.7,989,321.4"/>
						<path clip-path="url(#SVGID_65_)" fill="#BEC0C1" d="M988.8,321.4c0,3.6-3,6.5-6.6,6.5c-3.6,0-6.6-2.9-6.6-6.5
							c0-3.6,3-6.5,6.6-6.5C985.9,314.9,988.8,317.8,988.8,321.4"/>
						<path clip-path="url(#SVGID_65_)" fill="#C2C4C3" d="M988.7,321.4c0,3.5-2.9,6.3-6.4,6.3c-3.5,0-6.4-2.8-6.4-6.3
							c0-3.5,2.9-6.3,6.4-6.3C985.8,315.1,988.7,317.9,988.7,321.4"/>
						<path clip-path="url(#SVGID_65_)" fill="#C4C6C7" d="M988.5,321.4c0,3.4-2.8,6.1-6.2,6.1c-3.4,0-6.2-2.7-6.2-6.1
							c0-3.4,2.8-6.1,6.2-6.1C985.7,315.3,988.5,318,988.5,321.4"/>
					</g>
				</g>
				<polygon fill="#5F5F5E" points="981.2,326 981.2,322.4 977.5,322.4 977.5,320.3 981.2,320.3 981.2,316.7 983.3,316.7 
					983.3,320.3 987,320.3 987,322.4 983.3,322.4 983.3,326 				"/>
				<path fill="#211613" d="M983.1,316.9v3.3v0.4h0.4h3.4v1.7h-3.4h-0.4v0.4v3.3h-1.7v-3.3v-0.4H981h-3.4v-1.7h3.4h0.4v-0.4v-3.3
					H983.1z M983.5,316.5H981v3.6h-3.7v2.4h3.7v3.6h2.4v-3.6h3.7v-2.4h-3.7V316.5z"/>
			</g>
		</g>
		<g>
			<ellipse fill="#C1C1C1" cx="982.3" cy="58.9" rx="15.8" ry="15.6"/>
			<g>
				<path fill="#A1A0A0" d="M993.7,58.9c0,6.2-5.1,11.2-11.4,11.2c-6.3,0-11.4-5-11.4-11.2c0-6.2,5.1-11.2,11.4-11.2
					C988.5,47.7,993.7,52.7,993.7,58.9"/>
				<ellipse fill="none" stroke="#848484" stroke-miterlimit="10" cx="982.3" cy="58.9" rx="11.4" ry="11.2"/>
				<path fill="#A1A0A0" d="M990.6,58.9c0,4.5-3.8,8.2-8.4,8.2c-4.6,0-8.4-3.7-8.4-8.2c0-4.5,3.8-8.2,8.4-8.2
					C986.9,50.7,990.6,54.4,990.6,58.9"/>
				<ellipse fill="none" stroke="#848484" stroke-miterlimit="10" cx="982.3" cy="58.9" rx="8.4" ry="8.2"/>
				<g>
					<g>
						<defs>
							<rect id="SVGID_1115_" x="974.4" y="51.2" width="15.8" height="15.5"/>
						</defs>
						<clipPath id="SVGID_66_">
							<use xlink:href="#SVGID_1115_"  overflow="visible"/>
						</clipPath>
						<path clip-path="url(#SVGID_66_)" fill="#B1B0AF" d="M990.1,58.9c0,4.3-3.5,7.7-7.9,7.7c-4.4,0-7.9-3.5-7.9-7.7
							c0-4.3,3.5-7.7,7.9-7.7C986.6,51.2,990.1,54.6,990.1,58.9"/>
						<path clip-path="url(#SVGID_66_)" fill="#B3B2B1" d="M990,58.9c0,4.2-3.5,7.6-7.7,7.6c-4.3,0-7.7-3.4-7.7-7.6
							c0-4.2,3.4-7.6,7.7-7.6C986.5,51.4,990,54.7,990,58.9"/>
						<path clip-path="url(#SVGID_66_)" fill="#B4B5B5" d="M989.8,58.9c0,4.1-3.4,7.4-7.5,7.4c-4.2,0-7.5-3.3-7.5-7.4
							c0-4.1,3.4-7.4,7.5-7.4C986.4,51.5,989.8,54.8,989.8,58.9"/>
						<path clip-path="url(#SVGID_66_)" fill="#B6B7B6" d="M989.6,58.9c0,4-3.3,7.2-7.3,7.2c-4.1,0-7.3-3.2-7.3-7.2
							c0-4,3.3-7.2,7.3-7.2C986.3,51.7,989.6,54.9,989.6,58.9"/>
						<path clip-path="url(#SVGID_66_)" fill="#B8BABA" d="M989.4,58.9c0,3.9-3.2,7-7.1,7c-3.9,0-7.1-3.1-7.1-7c0-3.9,3.2-7,7.1-7
							C986.2,51.9,989.4,55,989.4,58.9"/>
						<path clip-path="url(#SVGID_66_)" fill="#BBBCBD" d="M989.2,58.9c0,3.8-3.1,6.8-7,6.8c-3.8,0-7-3.1-7-6.8c0-3.8,3.1-6.8,7-6.8
							C986.1,52.1,989.2,55.1,989.2,58.9"/>
						<path clip-path="url(#SVGID_66_)" fill="#BDBFBF" d="M989,58.9c0,3.7-3,6.7-6.8,6.7c-3.7,0-6.8-3-6.8-6.7c0-3.7,3-6.7,6.8-6.7
							C986,52.3,989,55.2,989,58.9"/>
						<path clip-path="url(#SVGID_66_)" fill="#BEC0C1" d="M988.8,58.9c0,3.6-3,6.5-6.6,6.5c-3.6,0-6.6-2.9-6.6-6.5
							c0-3.6,3-6.5,6.6-6.5C985.9,52.5,988.8,55.3,988.8,58.9"/>
						<path clip-path="url(#SVGID_66_)" fill="#C2C4C3" d="M988.7,58.9c0,3.5-2.9,6.3-6.4,6.3c-3.5,0-6.4-2.8-6.4-6.3
							c0-3.5,2.9-6.3,6.4-6.3C985.8,52.6,988.7,55.4,988.7,58.9"/>
						<path clip-path="url(#SVGID_66_)" fill="#C4C6C7" d="M988.5,58.9c0,3.4-2.8,6.1-6.2,6.1c-3.4,0-6.2-2.7-6.2-6.1
							c0-3.4,2.8-6.1,6.2-6.1C985.7,52.8,988.5,55.5,988.5,58.9"/>
					</g>
				</g>
				<polygon fill="#5F5F5E" points="981.2,63.6 981.2,59.9 977.5,59.9 977.5,57.9 981.2,57.9 981.2,54.3 983.3,54.3 983.3,57.9 
					987,57.9 987,59.9 983.3,59.9 983.3,63.6 				"/>
				<path fill="#211613" d="M983.1,54.4v3.3v0.4h0.4h3.4v1.7h-3.4h-0.4v0.4v3.3h-1.7v-3.3v-0.4H981h-3.4v-1.7h3.4h0.4v-0.4v-3.3
					H983.1z M983.5,54.1H981v3.6h-3.7v2.4h3.7v3.6h2.4v-3.6h3.7v-2.4h-3.7V54.1z"/>
			</g>
		</g>
		<g>
			<g>
				<path fill="#040000" d="M944.8,97.7c6,0,10.9,5.3,10.9,11.9c0,6.5-4.9,11.9-10.9,11.9c-6,0-10.9-5.3-10.9-11.9
					C933.8,103,938.7,97.7,944.8,97.7"/>
				<g>
					<defs>
						<path id="SVGID_85_" d="M936,109.5c0,5.3,3.9,9.5,8.8,9.5c4.8,0,8.8-4.3,8.8-9.5c0-5.3-3.9-9.5-8.8-9.5
							C939.9,100,936,104.3,936,109.5"/>
					</defs>
					<clipPath id="SVGID_68_">
						<use xlink:href="#SVGID_85_"  overflow="visible"/>
					</clipPath>
					
						<radialGradient id="SVGID_69_" cx="6114.1113" cy="2029.1478" r="1.0574" gradientTransform="matrix(8.2859 0 0 9.0056 -49716.1641 -18164.1211)" gradientUnits="userSpaceOnUse">
						<stop  offset="0" style="stop-color:#F0FFE3"/>
						<stop  offset="1" style="stop-color:#EAED3C"/>
					</radialGradient>
					<rect x="936" y="100" clip-path="url(#SVGID_68_)" fill="url(#SVGID_69_)" width="17.5" height="19"/>
				</g>
				<g opacity="0.5" enable-background="new    ">
					<g>
						<defs>
							<rect id="SVGID_84_" x="940.7" y="104" width="2.9" height="3.2"/>
						</defs>
						<clipPath id="SVGID_71_">
							<use xlink:href="#SVGID_84_"  overflow="visible"/>
						</clipPath>
						<rect x="940.7" y="104" clip-path="url(#SVGID_71_)" fill="#FFFFFF" width="2.9" height="3.2"/>
					</g>
				</g>
				<g opacity="0.5" enable-background="new    ">
					<g>
						<defs>
							<rect id="SVGID_83_" x="940.7" y="104" width="1.5" height="3.2"/>
						</defs>
						<clipPath id="SVGID_74_">
							<use xlink:href="#SVGID_83_"  overflow="visible"/>
						</clipPath>
						<rect x="940.7" y="104" clip-path="url(#SVGID_74_)" fill="#FFFFFF" width="1.5" height="3.2"/>
					</g>
				</g>
			</g>
			<g>
				<path fill="#040000" d="M979,97.7c6,0,10.9,5.3,10.9,11.9c0,6.5-4.9,11.9-10.9,11.9c-6,0-10.9-5.3-10.9-11.9
					C968.1,103,973,97.7,979,97.7"/>
				<g>
					<defs>
						<path id="SVGID_82_" d="M970.3,109.5c0,5.3,3.9,9.5,8.8,9.5c4.8,0,8.8-4.3,8.8-9.5c0-5.3-3.9-9.5-8.8-9.5
							C974.2,100,970.3,104.3,970.3,109.5"/>
					</defs>
					<clipPath id="SVGID_864_">
						<use xlink:href="#SVGID_82_"  overflow="visible"/>
					</clipPath>
					
						<radialGradient id="SVGID_865_" cx="6118.2471" cy="2029.1478" r="1.0574" gradientTransform="matrix(8.2859 0 0 9.0056 -49716.1641 -18164.1211)" gradientUnits="userSpaceOnUse">
						<stop  offset="0" style="stop-color:#F0FFE3"/>
						<stop  offset="1" style="stop-color:#EAED3C"/>
					</radialGradient>
					<rect x="970.3" y="100" clip-path="url(#SVGID_864_)" fill="url(#SVGID_865_)" width="17.5" height="19"/>
				</g>
				<g opacity="0.5" enable-background="new    ">
					<g>
						<defs>
							<rect id="SVGID_81_" x="974.9" y="104" width="2.9" height="3.2"/>
						</defs>
						<clipPath id="SVGID_866_">
							<use xlink:href="#SVGID_81_"  overflow="visible"/>
						</clipPath>
						<rect x="974.9" y="104" clip-path="url(#SVGID_866_)" fill="#FFFFFF" width="2.9" height="3.2"/>
					</g>
				</g>
				<g opacity="0.5" enable-background="new    ">
					<g>
						<defs>
							<rect id="SVGID_80_" x="974.9" y="104" width="1.5" height="3.2"/>
						</defs>
						<clipPath id="SVGID_867_">
							<use xlink:href="#SVGID_80_"  overflow="visible"/>
						</clipPath>
						<rect x="974.9" y="104" clip-path="url(#SVGID_867_)" fill="#FFFFFF" width="1.5" height="3.2"/>
					</g>
				</g>
			</g>
			<g>
				<path fill="#040000" d="M1010.6,121.5c-6,0-10.9-5.3-10.9-11.9c0-6.6,4.9-11.9,10.9-11.9c6,0,10.9,5.3,10.9,11.9
					C1021.5,116.2,1016.6,121.5,1010.6,121.5"/>
				<g>
					<defs>
						<path id="SVGID_79_" d="M1019.4,109.6c0-5.3-3.9-9.6-8.8-9.6c-4.8,0-8.8,4.3-8.8,9.6c0,5.3,3.9,9.6,8.8,9.6
							C1015.5,119.2,1019.4,114.9,1019.4,109.6"/>
					</defs>
					<clipPath id="SVGID_868_">
						<use xlink:href="#SVGID_79_"  overflow="visible"/>
					</clipPath>
					
						<radialGradient id="SVGID_869_" cx="6060.708" cy="1354.6239" r="1.5579" gradientTransform="matrix(-8.2859 0 0 -9.0644 51231.1836 12391.8643)" gradientUnits="userSpaceOnUse">
						<stop  offset="0" style="stop-color:#636262"/>
						<stop  offset="1" style="stop-color:#000000"/>
					</radialGradient>
					<rect x="1001.9" y="100" clip-path="url(#SVGID_868_)" fill="url(#SVGID_869_)" width="17.5" height="19.2"/>
				</g>
				<g opacity="0.5" enable-background="new    ">
					<g>
						<defs>
							<rect id="SVGID_78_" x="1011.8" y="111.9" width="2.9" height="3.2"/>
						</defs>
						<clipPath id="SVGID_870_">
							<use xlink:href="#SVGID_78_"  overflow="visible"/>
						</clipPath>
						<rect x="1011.8" y="111.9" clip-path="url(#SVGID_870_)" fill="#FFFFFF" width="2.9" height="3.2"/>
					</g>
				</g>
				<g opacity="0.5" enable-background="new    ">
					<g>
						<defs>
							<rect id="SVGID_77_" x="1013.2" y="111.9" width="1.5" height="3.2"/>
						</defs>
						<clipPath id="SVGID_871_">
							<use xlink:href="#SVGID_77_"  overflow="visible"/>
						</clipPath>
						<rect x="1013.2" y="111.9" clip-path="url(#SVGID_871_)" fill="#FFFFFF" width="1.5" height="3.2"/>
					</g>
				</g>
			</g>
		</g>
		<g>
			<path fill="#FFFFFF" d="M559.2,53.4c2.3,0,4.2,0.5,5.6,1.5c1.3,1,2.2,2.7,2.2,5.1c0,5.2-4.1,7.3-7.2,7.3c-0.4,0-0.7,0-0.9-0.1
				l-2.3-0.6v5.6c0,3,0.2,3.1,3.3,3.4v1h-9.1v-1c2.8-0.3,3-0.5,3-3.5V57.9c0-3.2-0.4-3.2-3-3.5v-1H559.2z M556.5,65.3
				c0.4,0.2,1.3,0.5,2.4,0.5c2.2,0,4.9-1.2,4.9-5.7c0-3.9-2.4-5.5-5.1-5.5c-1,0-1.6,0.2-1.8,0.4c-0.3,0.2-0.4,0.7-0.4,1.6V65.3z"/>
			<path fill="#FFFFFF" d="M600.1,54.4c-2.3,0.4-2.6,0.6-3.5,3.6c-1.1,3.6-3.7,12.6-5.5,19H590c-1.7-5.6-3.9-12.5-5.6-17.7
				c-1.9,6.1-3.8,12.2-5.6,17.7h-1.1c-1.6-6.1-3.5-12.8-5.3-19.1c-0.9-2.9-1.2-3.3-3.4-3.5v-1h8.1v1c-2.4,0.3-2.5,0.7-2,2.5
				c1.3,4.8,2.6,9.6,3.9,14.6c1.8-5.7,3.8-11.9,5.5-17.7h1.1c1.8,6.1,3.7,11.7,5.6,17.8c1.4-4.7,3.3-11.1,4-14.2
				c0.5-2.1,0.2-2.5-2.6-2.9v-1h7.5V54.4z"/>
			<path fill="#FFFFFF" d="M618.8,70.9c-0.2,0.9-1.1,4.6-1.4,5.7h-16v-1c3.1-0.2,3.3-0.6,3.3-3.5V58c0-3.2-0.4-3.4-2.8-3.6v-1h10.1
				c3.1,0,4.4,0,4.8-0.1c0,0.9,0.2,3.6,0.3,5.5l-1,0.2c-0.3-1.2-0.6-2-1-2.7c-0.5-1.2-1.3-1.4-3.3-1.4h-3.1c-1,0-1.1,0.1-1.1,1.1
				v7.9h3.6c2.5,0,2.6-0.5,3-3h1v7.4h-1c-0.4-2.6-0.7-2.9-3.1-2.9h-3.6v7.1c0,2.5,0.7,2.7,2.4,2.7h3.1c2,0,2.3-0.3,3.1-1.2
				c0.6-0.7,1.3-2.2,1.8-3.3L618.8,70.9z"/>
			<path fill="#FFFFFF" d="M634.4,71.8c-0.4,1.6-1,3.4-1.3,4.7h-12.4v-0.9c1.8-1.9,3.8-4,5.4-6.1c2.1-2.6,4-5.5,4-8.6
				c0-3-1.4-4.7-3.8-4.7c-2.3,0-3.7,1.9-4.5,3.3l-0.8-0.7l1.9-2.9c1-1.2,2.6-2.1,4.5-2.1c3.1,0,5.6,2.3,5.6,6.2c0,3-1,5.2-4.1,8.6
				c-1.4,1.6-3.5,3.8-4.9,5.2c0.2,0,6,0,6.3,0c1.8,0,2.3-0.2,3.4-2.4L634.4,71.8z"/>
			<path fill="#FFFFFF" d="M650.7,54.8c-3.2,7.2-6.2,14.5-9.4,21.9l-2.4,0.2l-0.2-0.4c3.4-6,7-13.4,9.6-19.5h-7
				c-2.1,0-2.3,0.3-3.2,2.7h-1c0.3-2,0.5-3.8,0.6-5.3h12.7L650.7,54.8z"/>
			<path fill="#FFFFFF" d="M659.5,53.9c4.9,0,6.8,6,6.8,11.5c0,5.2-1.8,11.6-6.8,11.6c-5,0-6.9-5.9-6.9-11.5
				C652.6,60.3,654.5,53.9,659.5,53.9z M659.5,55.2c-3.1,0-3.8,5.2-3.8,10.2s0.9,10.4,3.8,10.4c3,0,3.7-5.3,3.7-10.3
				C663.3,60.4,662.4,55.2,659.5,55.2z"/>
			<path fill="#FFFFFF" d="M675.4,53.9c4.9,0,6.8,6,6.8,11.5c0,5.2-1.8,11.6-6.8,11.6c-5,0-6.9-5.9-6.9-11.5
				C668.6,60.3,670.5,53.9,675.4,53.9z M675.4,55.2c-3.1,0-3.8,5.2-3.8,10.2s0.9,10.4,3.8,10.4c3,0,3.7-5.3,3.7-10.3
				C679.2,60.4,678.4,55.2,675.4,55.2z"/>
			<path fill="#FFFFFF" d="M695.9,76.6v-1c2.1-0.3,2.4-0.6,1.9-2c-0.4-1.4-1.1-3.2-1.8-5.4H689c-0.5,1.6-1,3-1.5,4.5
				c-0.7,2.3-0.3,2.6,2.4,3v1h-7.6v-1c2.1-0.3,2.6-0.5,3.7-3.7l6.8-18.7l1.1-0.2c2.1,6.1,4.3,12.9,6.4,19c1.1,3.1,1.3,3.4,3.7,3.7v1
				H695.9z M692.6,57.5c-1.1,3.1-2.2,6.3-3.2,9.1h6.1L692.6,57.5z"/>
			<path fill="#FFFFFF" d="M724.9,70.9c-0.5,1.7-1.3,4.3-1.8,5.4c-1,0.2-3.5,0.9-6,0.9c-7.9,0-11.9-5.9-11.9-11.9
				c0-7.6,5.2-12.3,12.6-12.3c2.7,0,5,0.7,6,0.8c0.1,1.6,0.4,3.8,0.6,5.6l-1,0.2c-0.7-2.4-1.5-4-3.2-4.7c-0.9-0.4-2-0.6-3.3-0.6
				c-5.5,0-8.4,4.8-8.4,10.2c0,6.9,3.6,11.3,8.6,11.3c3.4,0,5-1.7,6.6-5.2L724.9,70.9z"/>
		</g>
	</g>
	<g>
		<g>
			
				<linearGradient id="SVGID_872_" gradientUnits="userSpaceOnUse" x1="-380.7066" y1="-1099.3801" x2="-295.9111" y2="-1099.3801" gradientTransform="matrix(0 -1 1 0 1347.4906 190.674)">
				<stop  offset="0" style="stop-color:#585757"/>
				<stop  offset="8.228400e-03" style="stop-color:#5D5C5C"/>
				<stop  offset="1.809095e-02" style="stop-color:#6C6B6B"/>
				<stop  offset="2.879125e-02" style="stop-color:#848383"/>
				<stop  offset="4.008858e-02" style="stop-color:#A5A5A5"/>
				<stop  offset="5.172245e-02" style="stop-color:#D0D0D0"/>
				<stop  offset="6.267241e-02" style="stop-color:#FFFFFF"/>
				<stop  offset="8.052514e-02" style="stop-color:#F4F3F3"/>
				<stop  offset="0.1243" style="stop-color:#DDDDDD"/>
				<stop  offset="0.1753" style="stop-color:#CCCBCB"/>
				<stop  offset="0.2371" style="stop-color:#C0BFBF"/>
				<stop  offset="0.321" style="stop-color:#B9B8B8"/>
				<stop  offset="0.5258" style="stop-color:#B7B6B6"/>
				<stop  offset="0.6432" style="stop-color:#BAB9B9"/>
				<stop  offset="0.731" style="stop-color:#C3C3C3"/>
				<stop  offset="0.8091" style="stop-color:#D3D3D3"/>
				<stop  offset="0.8812" style="stop-color:#EAE9E9"/>
				<stop  offset="0.9338" style="stop-color:#FFFFFF"/>
				<stop  offset="0.9339" style="stop-color:#FEFEFE"/>
				<stop  offset="0.9403" style="stop-color:#D9D9D9"/>
				<stop  offset="0.947" style="stop-color:#BAB9B9"/>
				<stop  offset="0.9544" style="stop-color:#9F9F9E"/>
				<stop  offset="0.9624" style="stop-color:#8B8A8A"/>
				<stop  offset="0.9714" style="stop-color:#7D7C7B"/>
				<stop  offset="0.9823" style="stop-color:#757473"/>
				<stop  offset="1" style="stop-color:#727170"/>
			</linearGradient>
			<polygon fill="url(#SVGID_872_)" points="301.3,486.6 301.3,571.4 194.9,571.4 194.9,486.6 			"/>
			<g>
				<g>
					<defs>
						<rect id="SVGID_184_" x="200.9" y="501.7" width="91.8" height="57.3"/>
					</defs>
					<clipPath id="SVGID_873_">
						<use xlink:href="#SVGID_184_"  overflow="visible"/>
					</clipPath>
					
						<linearGradient id="SVGID_874_" gradientUnits="userSpaceOnUse" x1="6977.2656" y1="2353.5547" x2="6978.8003" y2="2353.5547" gradientTransform="matrix(-79.8244 0 0 79.8244 557265.3125 -187340.7656)">
						<stop  offset="0" style="stop-color:#103580"/>
						<stop  offset="0.2581" style="stop-color:#0C1D4C"/>
						<stop  offset="1" style="stop-color:#000021"/>
					</linearGradient>
					<rect x="200.9" y="501.7" clip-path="url(#SVGID_873_)" fill="url(#SVGID_874_)" width="91.8" height="57.3"/>
				</g>
				<g>
					<defs>
						<path id="SVGID_183_" d="M203.2,559.1h89.7c0.4,0,0.7-0.2,0.7-0.1v-58.5c-0.1-0.1-0.3-0.3-0.7-0.3h-89.7
							c-0.4,0-0.7,0.2-0.7,0.1l0,58.5C202.5,558.9,202.8,559.1,203.2,559.1"/>
					</defs>
					<clipPath id="SVGID_875_">
						<use xlink:href="#SVGID_183_"  overflow="visible"/>
					</clipPath>
					
						<linearGradient id="SVGID_876_" gradientUnits="userSpaceOnUse" x1="6881.7783" y1="2106.2168" x2="6883.3135" y2="2106.2168" gradientTransform="matrix(58.6222 0 0 -58.6222 -403221.5625 124000.7266)">
						<stop  offset="0" style="stop-color:#2E2624"/>
						<stop  offset="1" style="stop-color:#342E2C"/>
					</linearGradient>
					<rect x="202.5" y="500.2" clip-path="url(#SVGID_875_)" fill="url(#SVGID_876_)" width="91.1" height="58.9"/>
				</g>
				<path d="M292.1,502.2v55h-88v-55H292.1z M200.9,500.3V559c0,1.1,1,2.1,2.2,2.1h89.7c1.2,0,2.2-0.9,2.2-2.1v-58.6
					c0-1.2-1-2.1-2.2-2.1h-89.7C202,498.3,200.9,499.2,200.9,500.3"/>
				<path fill="#030303" d="M280.1,508.9c0.9,0,1.6,0.6,1.6,1.4V549c0,0.8-0.7,1.4-1.6,1.4H216c-0.9,0-1.6-0.6-1.6-1.4v-38.7
					c0-0.8,0.7-1.4,1.6-1.4H280.1z"/>
				<g>
					<defs>
						<path id="SVGID_182_" d="M218.8,546.5c0,0.7,0.6,1.2,1.4,1.2H248v-36h-27.8c-0.8,0-1.4,0.5-1.4,1.2V546.5z"/>
					</defs>
					<clipPath id="SVGID_877_">
						<use xlink:href="#SVGID_182_"  overflow="visible"/>
					</clipPath>
					
						<linearGradient id="SVGID_878_" gradientUnits="userSpaceOnUse" x1="6794.1689" y1="1879.2789" x2="6795.7041" y2="1879.2789" gradientTransform="matrix(22.6221 0 0 -22.6221 -153467.1563 43042.9023)">
						<stop  offset="0" style="stop-color:#261C19"/>
						<stop  offset="1" style="stop-color:#514E4E"/>
					</linearGradient>
					<rect x="218.8" y="511.7" clip-path="url(#SVGID_877_)" fill="url(#SVGID_878_)" width="29.2" height="36"/>
				</g>
				<path fill="#050505" d="M248,547.7h27.8c0.8,0,1.4-0.5,1.4-1.2v-33.6c0-0.7-0.6-1.2-1.4-1.2H248V547.7z"/>
				<path fill="#121212" d="M248,547.7h27.8c0.8,0,1.4-0.5,1.4-1.2v-33.6c0-0.7-0.6-1.2-1.4-1.2H248V547.7z"/>
				<rect x="248" y="511.7" fill="#030303" width="1.2" height="36"/>
				<rect x="226.4" y="528.4" fill="#4D4D4D" width="14" height="3.9"/>
				<ellipse fill="none" stroke="#4D4D4D" stroke-width="0.783" stroke-miterlimit="10" cx="262.7" cy="529.6" rx="2.5" ry="3.1"/>
			</g>
		</g>
		<g>
			<path fill="#3E3A39" stroke="#000000" stroke-width="2" stroke-miterlimit="10" d="M295,671.7h-93.7c-3.5,0-6.3-2.8-6.3-6.3v-64
				c0-3.5,2.8-6.3,6.3-6.3H295c3.5,0,6.3,2.8,6.3,6.3v64C301.3,668.9,298.5,671.7,295,671.7z"/>
			<g>
				
					<linearGradient id="SVGID_879_" gradientUnits="userSpaceOnUse" x1="-473.8496" y1="-1098.7401" x2="-414.1887" y2="-1098.7401" gradientTransform="matrix(0 -1 1 0 1347.4906 190.674)">
					<stop  offset="0" style="stop-color:#585757"/>
					<stop  offset="3.160704e-03" style="stop-color:#5D5C5C"/>
					<stop  offset="6.949120e-03" style="stop-color:#6C6B6B"/>
					<stop  offset="1.105933e-02" style="stop-color:#848383"/>
					<stop  offset="1.539888e-02" style="stop-color:#A5A5A5"/>
					<stop  offset="1.986770e-02" style="stop-color:#D0D0D0"/>
					<stop  offset="2.407381e-02" style="stop-color:#FFFFFF"/>
					<stop  offset="4.341454e-02" style="stop-color:#F4F3F3"/>
					<stop  offset="9.083977e-02" style="stop-color:#DDDDDD"/>
					<stop  offset="0.1461" style="stop-color:#CCCBCB"/>
					<stop  offset="0.213" style="stop-color:#C0BFBF"/>
					<stop  offset="0.304" style="stop-color:#B9B8B8"/>
					<stop  offset="0.5258" style="stop-color:#B7B6B6"/>
					<stop  offset="0.6563" style="stop-color:#BAB9B9"/>
					<stop  offset="0.7538" style="stop-color:#C3C3C3"/>
					<stop  offset="0.8405" style="stop-color:#D3D3D3"/>
					<stop  offset="0.9206" style="stop-color:#EAE9E9"/>
					<stop  offset="0.9791" style="stop-color:#FFFFFF"/>
					<stop  offset="0.9791" style="stop-color:#FEFEFE"/>
					<stop  offset="0.9812" style="stop-color:#D9D9D9"/>
					<stop  offset="0.9833" style="stop-color:#BAB9B9"/>
					<stop  offset="0.9856" style="stop-color:#9F9F9E"/>
					<stop  offset="0.9881" style="stop-color:#8B8A8A"/>
					<stop  offset="0.991" style="stop-color:#7D7C7B"/>
					<stop  offset="0.9944" style="stop-color:#757473"/>
					<stop  offset="1" style="stop-color:#727170"/>
				</linearGradient>
				<path fill="url(#SVGID_879_)" d="M284.7,607.6v54.2c0,1.5-1.2,2.7-2.7,2.7h-66.3c-1.5,0-2.7-1.2-2.7-2.7v-54.2
					c0-1.5,1.2-2.7,2.7-2.7h66.3C283.4,604.9,284.7,606.1,284.7,607.6z"/>
				<g>
					<path fill="#3E3A39" d="M281.4,658.1c0,1.5-1.2,2.7-2.6,2.7h-60.3c-1.4,0-2.6-1.2-2.6-2.7v-47.1c0-1.5,1.2-2.7,2.6-2.7h60.3
						c1.4,0,2.6,1.2,2.6,2.7V658.1z"/>
					<path fill="none" stroke="#000000" stroke-width="2" stroke-miterlimit="10" d="M281.4,658.1c0,1.5-1.2,2.7-2.6,2.7h-60.3
						c-1.4,0-2.6-1.2-2.6-2.7v-47.1c0-1.5,1.2-2.7,2.6-2.7h60.3c1.4,0,2.6,1.2,2.6,2.7V658.1z"/>
					<polygon fill="#231815" points="226,651.8 226,625.9 234.6,617.2 262.9,617.2 271.3,626.3 271.3,651.8 					"/>
					<rect x="259" y="632.5" fill="#343842" width="2.9" height="9.9"/>
					<rect x="259" y="634.2" fill="#80848D" width="1.4" height="8.1"/>
					<rect x="246.6" y="626.3" fill="#343842" width="2.9" height="9.9"/>
					<rect x="246.6" y="628.1" fill="#80848D" width="1.4" height="8.1"/>
					<rect x="234.1" y="632.5" fill="#343842" width="2.9" height="9.9"/>
					<rect x="234.1" y="634.2" fill="#80848D" width="1.4" height="8.1"/>
				</g>
			</g>
			<g>
				
					<radialGradient id="SVGID_880_" cx="204.0169" cy="524.6741" r="5.0857" gradientTransform="matrix(1 0 0 1.0869 0 62.5189)" gradientUnits="userSpaceOnUse">
					<stop  offset="0.6774" style="stop-color:#2B2B2B"/>
					<stop  offset="0.8441" style="stop-color:#595757"/>
					<stop  offset="1" style="stop-color:#000000"/>
				</radialGradient>
				<path fill="url(#SVGID_880_)" d="M209.1,632.8c0,3.1-2.3,5.5-5.1,5.5c-2.8,0-5.1-2.5-5.1-5.5c0-3.1,2.3-5.5,5.1-5.5
					C206.8,627.2,209.1,629.7,209.1,632.8"/>
				<ellipse fill="none" stroke="#131313" stroke-width="0.75" stroke-miterlimit="10" cx="204" cy="632.8" rx="5.1" ry="5.5"/>
				<polygon fill="#0A0A0A" points="203.4,635.9 203.4,633.4 201.1,633.4 201.1,632.1 203.4,632.1 203.4,629.6 204.6,629.6 
					204.6,632.1 206.9,632.1 206.9,633.4 204.6,633.4 204.6,635.9 				"/>
				<path fill="#231815" d="M204.5,629.7v2.2v0.2h0.2h2v1.1h-2h-0.2v0.2v2.2h-1v-2.2v-0.2h-0.2h-2v-1.1h2h0.2V632v-2.2H204.5z
					 M204.8,629.5h-1.5v2.5H201v1.6h2.3v2.5h1.5v-2.5h2.3V632h-2.3V629.5z"/>
			</g>
			<rect x="203.3" y="629.5" fill="#606060" width="0.2" height="2.7"/>
			<rect x="201" y="632" fill="#606060" width="2.5" height="0.2"/>
			<rect x="203.3" y="629.5" fill="#494949" width="1.5" height="0.2"/>
			<rect x="201" y="632" fill="#545454" width="0.2" height="1.6"/>
			<g>
				
					<radialGradient id="SVGID_881_" cx="292.0534" cy="524.6741" r="5.0857" gradientTransform="matrix(1 0 0 1.0869 0 62.5189)" gradientUnits="userSpaceOnUse">
					<stop  offset="0.6774" style="stop-color:#2B2B2B"/>
					<stop  offset="0.8441" style="stop-color:#595757"/>
					<stop  offset="1" style="stop-color:#000000"/>
				</radialGradient>
				<path fill="url(#SVGID_881_)" d="M297.1,632.8c0,3.1-2.3,5.5-5.1,5.5c-2.8,0-5.1-2.5-5.1-5.5c0-3.1,2.3-5.5,5.1-5.5
					C294.9,627.2,297.1,629.7,297.1,632.8"/>
				<ellipse fill="none" stroke="#131313" stroke-width="0.75" stroke-miterlimit="10" cx="292.1" cy="632.8" rx="5.1" ry="5.5"/>
				<polygon fill="#0A0A0A" points="291.4,635.9 291.4,633.4 289.2,633.4 289.2,632.1 291.4,632.1 291.4,629.6 292.7,629.6 
					292.7,632.1 294.9,632.1 294.9,633.4 292.7,633.4 292.7,635.9 				"/>
				<path fill="#231815" d="M292.6,629.7v2.2v0.2h0.2h2v1.1h-2h-0.2v0.2v2.2h-1v-2.2v-0.2h-0.2h-2v-1.1h2h0.2V632v-2.2H292.6z
					 M292.8,629.5h-1.5v2.5h-2.3v1.6h2.3v2.5h1.5v-2.5h2.3V632h-2.3V629.5z"/>
			</g>
			<rect x="291.3" y="629.5" fill="#606060" width="0.2" height="2.7"/>
			<rect x="289.1" y="632" fill="#606060" width="2.5" height="0.2"/>
			<rect x="291.3" y="629.5" fill="#494949" width="1.5" height="0.2"/>
			<rect x="289.1" y="632" fill="#545454" width="0.2" height="1.6"/>
		</g>
		<g>
			<rect x="115.8" y="473" fill="#1F2020" width="8.9" height="231.6"/>
			<g>
				<g>
					<defs>
						<path id="SVGID_1139_" d="M95.8,444.1l-5.5,0.3l-1.2,46.2l20.2,6.3c8.1,2.5,15.4-8.9,15.4-23.9v-5.6c0-6.8-2.5-12.8-6.1-14.5
							l-13.7-6.7c-2.7-1.2-6-2.1-8.8-2.1C96,444.1,95.9,444.1,95.8,444.1"/>
					</defs>
					
						<linearGradient id="SVGID_882_" gradientUnits="userSpaceOnUse" x1="-3306.8494" y1="-10782.7949" x2="-3277.3953" y2="-10782.7949" gradientTransform="matrix(1 0 0 1 3395.7319 11253.4824)">
						<stop  offset="0" style="stop-color:#909091"/>
						<stop  offset="1" style="stop-color:#000000"/>
					</linearGradient>
					<use xlink:href="#SVGID_1139_"  overflow="visible" fill="url(#SVGID_882_)"/>
					<clipPath id="SVGID_883_">
						<use xlink:href="#SVGID_1139_"  overflow="visible"/>
					</clipPath>
					
						<linearGradient id="SVGID_884_" gradientUnits="userSpaceOnUse" x1="7146.9897" y1="2920.5906" x2="7149.166" y2="2920.5906" gradientTransform="matrix(-21.6019 8.6407 -8.6407 -21.6019 179760.125 1795.5865)">
						<stop  offset="0" style="stop-color:#909091"/>
						<stop  offset="1" style="stop-color:#000000"/>
					</linearGradient>
					<polygon clip-path="url(#SVGID_883_)" fill="url(#SVGID_884_)" points="119.8,421.6 78.7,451.7 94,522 135.1,491.8 					"/>
				</g>
				<g>
					<defs>
						<path id="SVGID_1143_" d="M112.1,677.8l-23.1,8.1l2.7,45.9c4.9,0,9.8-1.2,14.5-3.5l8.2-4c6.1-3,10.3-13,10.3-24.6v-2.9
							c0-10.9-4.8-19.4-10.5-19.4C113.5,677.5,112.8,677.6,112.1,677.8"/>
					</defs>
					
						<linearGradient id="SVGID_885_" gradientUnits="userSpaceOnUse" x1="-3306.6482" y1="-10548.8604" x2="-3271.0408" y2="-10548.8604" gradientTransform="matrix(1 0 0 1 3395.7319 11253.4824)">
						<stop  offset="0" style="stop-color:#909091"/>
						<stop  offset="1" style="stop-color:#000000"/>
					</linearGradient>
					<use xlink:href="#SVGID_1143_"  overflow="visible" fill="url(#SVGID_885_)"/>
					<clipPath id="SVGID_886_">
						<use xlink:href="#SVGID_1143_"  overflow="visible"/>
					</clipPath>
					
						<linearGradient id="SVGID_887_" gradientUnits="userSpaceOnUse" x1="7628.7075" y1="3087.0798" x2="7630.2803" y2="3087.0798" gradientTransform="matrix(-14.9609 0 0 -14.9609 114260.8047 46890.1133)">
						<stop  offset="0" style="stop-color:#909091"/>
						<stop  offset="1" style="stop-color:#000000"/>
					</linearGradient>
					<rect x="89.1" y="677.5" clip-path="url(#SVGID_886_)" fill="url(#SVGID_887_)" width="35.6" height="54.3"/>
				</g>
				<g>
					<defs>
						<path id="SVGID_1147_" d="M91.7,444.1c-8.6,0-15.5,12.8-15.5,28.5v230.7c0,15.7,7,28.5,15.5,28.5c8.6,0,15.5-12.8,15.5-28.5
							V472.6C107.3,456.9,100.3,444.1,91.7,444.1L91.7,444.1z"/>
					</defs>
					<clipPath id="SVGID_888_">
						<use xlink:href="#SVGID_1147_"  overflow="visible"/>
					</clipPath>
					
						<linearGradient id="SVGID_889_" gradientUnits="userSpaceOnUse" x1="6412.1611" y1="1609.8835" x2="6413.7344" y2="1609.8835" gradientTransform="matrix(19.747 0 0 19.747 -126544.7422 -31202.4121)">
						<stop  offset="0" style="stop-color:#211F1F"/>
						<stop  offset="0.5029" style="stop-color:#808080"/>
						<stop  offset="1" style="stop-color:#211F1F"/>
					</linearGradient>
					<rect x="76.2" y="444.1" clip-path="url(#SVGID_888_)" fill="url(#SVGID_889_)" width="31.1" height="287.7"/>
				</g>
			</g>
		</g>
		<g>
			<rect x="1186.7" y="473" fill="#1F2020" width="8.9" height="231.6"/>
			<g>
				<g>
					<defs>
						<path id="SVGID_1150_" d="M1166.7,444.1l-5.5,0.3l-1.2,46.2l20.2,6.3c8.1,2.5,15.4-8.9,15.4-23.9v-5.6
							c0-6.8-2.5-12.8-6.1-14.5l-13.7-6.7c-2.7-1.2-6-2.1-8.8-2.1C1167,444.1,1166.8,444.1,1166.7,444.1"/>
					</defs>
					
						<linearGradient id="SVGID_890_" gradientUnits="userSpaceOnUse" x1="-2235.897" y1="-10782.7949" x2="-2206.4429" y2="-10782.7949" gradientTransform="matrix(1 0 0 1 3395.7319 11253.4824)">
						<stop  offset="0" style="stop-color:#909091"/>
						<stop  offset="1" style="stop-color:#000000"/>
					</linearGradient>
					<use xlink:href="#SVGID_1150_"  overflow="visible" fill="url(#SVGID_890_)"/>
					<clipPath id="SVGID_891_">
						<use xlink:href="#SVGID_1150_"  overflow="visible"/>
					</clipPath>
					
						<linearGradient id="SVGID_892_" gradientUnits="userSpaceOnUse" x1="7104.251" y1="2903.4951" x2="7106.4272" y2="2903.4951" gradientTransform="matrix(-21.6019 8.6407 -8.6407 -21.6019 179760.125 1795.5865)">
						<stop  offset="0" style="stop-color:#909091"/>
						<stop  offset="1" style="stop-color:#000000"/>
					</linearGradient>
					<polygon clip-path="url(#SVGID_891_)" fill="url(#SVGID_892_)" points="1190.7,421.6 1149.6,451.7 1164.9,522 1206,491.8 					
						"/>
				</g>
				<g>
					<defs>
						<path id="SVGID_1154_" d="M1183.1,677.8l-23.1,8.1l2.7,45.9c4.9,0,9.8-1.2,14.5-3.5l8.2-4c6.1-3,10.3-13,10.3-24.6v-2.9
							c0-10.9-4.8-19.4-10.5-19.4C1184.4,677.5,1183.8,677.6,1183.1,677.8"/>
					</defs>
					
						<linearGradient id="SVGID_893_" gradientUnits="userSpaceOnUse" x1="-2235.6956" y1="-10548.8604" x2="-2200.0884" y2="-10548.8604" gradientTransform="matrix(1 0 0 1 3395.7319 11253.4824)">
						<stop  offset="0" style="stop-color:#909091"/>
						<stop  offset="1" style="stop-color:#000000"/>
					</linearGradient>
					<use xlink:href="#SVGID_1154_"  overflow="visible" fill="url(#SVGID_893_)"/>
					<clipPath id="SVGID_894_">
						<use xlink:href="#SVGID_1154_"  overflow="visible"/>
					</clipPath>
					
						<linearGradient id="SVGID_895_" gradientUnits="userSpaceOnUse" x1="7557.124" y1="3087.0798" x2="7558.6968" y2="3087.0798" gradientTransform="matrix(-14.9609 0 0 -14.9609 114260.8047 46890.1133)">
						<stop  offset="0" style="stop-color:#909091"/>
						<stop  offset="1" style="stop-color:#000000"/>
					</linearGradient>
					<rect x="1160" y="677.5" clip-path="url(#SVGID_894_)" fill="url(#SVGID_895_)" width="35.6" height="54.3"/>
				</g>
				<g>
					<defs>
						<path id="SVGID_1158_" d="M1162.7,444.1c-8.6,0-15.5,12.8-15.5,28.5v230.7c0,15.7,7,28.5,15.5,28.5c8.6,0,15.5-12.8,15.5-28.5
							V472.6C1178.2,456.9,1171.3,444.1,1162.7,444.1L1162.7,444.1z"/>
					</defs>
					<clipPath id="SVGID_896_">
						<use xlink:href="#SVGID_1158_"  overflow="visible"/>
					</clipPath>
					
						<linearGradient id="SVGID_897_" gradientUnits="userSpaceOnUse" x1="6466.395" y1="1609.8835" x2="6467.9678" y2="1609.8835" gradientTransform="matrix(19.747 0 0 19.747 -126544.7422 -31202.4121)">
						<stop  offset="0" style="stop-color:#211F1F"/>
						<stop  offset="0.5029" style="stop-color:#808080"/>
						<stop  offset="1" style="stop-color:#211F1F"/>
					</linearGradient>
					<rect x="1147.2" y="444.1" clip-path="url(#SVGID_896_)" fill="url(#SVGID_897_)" width="31.1" height="287.7"/>
				</g>
			</g>
		</g>
		<g>
			<ellipse fill="#C1C1C1" cx="316.5" cy="451.8" rx="15.8" ry="16.2"/>
			<g>
				<path fill="#A1A0A0" d="M327.9,451.8c0,6.4-5.1,11.6-11.4,11.6c-6.3,0-11.4-5.2-11.4-11.6c0-6.4,5.1-11.6,11.4-11.6
					C322.8,440.2,327.9,445.4,327.9,451.8"/>
				<ellipse fill="none" stroke="#848484" stroke-miterlimit="10" cx="316.5" cy="451.8" rx="11.4" ry="11.6"/>
				<path fill="#A1A0A0" d="M324.9,451.8c0,4.7-3.8,8.5-8.4,8.5c-4.6,0-8.4-3.8-8.4-8.5c0-4.7,3.8-8.5,8.4-8.5
					C321.1,443.2,324.9,447.1,324.9,451.8"/>
				<ellipse fill="none" stroke="#848484" stroke-miterlimit="10" cx="316.5" cy="451.8" rx="8.4" ry="8.5"/>
				<g>
					<g>
						<defs>
							<rect id="SVGID_1161_" x="308.6" y="443.7" width="15.8" height="16.1"/>
						</defs>
						<clipPath id="SVGID_898_">
							<use xlink:href="#SVGID_1161_"  overflow="visible"/>
						</clipPath>
						<path clip-path="url(#SVGID_898_)" fill="#B1B0AF" d="M324.4,451.8c0,4.4-3.5,8-7.9,8c-4.4,0-7.9-3.6-7.9-8c0-4.4,3.5-8,7.9-8
							C320.8,443.7,324.4,447.3,324.4,451.8"/>
						<path clip-path="url(#SVGID_898_)" fill="#B3B2B1" d="M324.2,451.8c0,4.3-3.5,7.9-7.7,7.9c-4.3,0-7.7-3.5-7.7-7.9
							c0-4.3,3.4-7.9,7.7-7.9C320.7,443.9,324.2,447.4,324.2,451.8"/>
						<path clip-path="url(#SVGID_898_)" fill="#B4B5B5" d="M324,451.8c0,4.2-3.4,7.7-7.5,7.7c-4.2,0-7.5-3.4-7.5-7.7
							c0-4.2,3.4-7.7,7.5-7.7C320.6,444.1,324,447.6,324,451.8"/>
						<path clip-path="url(#SVGID_898_)" fill="#B6B7B6" d="M323.8,451.8c0,4.1-3.3,7.5-7.3,7.5c-4.1,0-7.3-3.3-7.3-7.5
							c0-4.1,3.3-7.5,7.3-7.5C320.5,444.3,323.8,447.7,323.8,451.8"/>
						<path clip-path="url(#SVGID_898_)" fill="#B8BABA" d="M323.6,451.8c0,4-3.2,7.3-7.1,7.3c-3.9,0-7.1-3.3-7.1-7.3
							c0-4,3.2-7.3,7.1-7.3C320.4,444.5,323.6,447.8,323.6,451.8"/>
						<path clip-path="url(#SVGID_898_)" fill="#BBBCBD" d="M323.4,451.8c0,3.9-3.1,7.1-7,7.1c-3.8,0-7-3.2-7-7.1
							c0-3.9,3.1-7.1,7-7.1C320.3,444.7,323.4,447.9,323.4,451.8"/>
						<path clip-path="url(#SVGID_898_)" fill="#BDBFBF" d="M323.3,451.8c0,3.8-3,6.9-6.8,6.9c-3.7,0-6.8-3.1-6.8-6.9
							c0-3.8,3-6.9,6.8-6.9C320.2,444.9,323.3,448,323.3,451.8"/>
						<path clip-path="url(#SVGID_898_)" fill="#BEC0C1" d="M323.1,451.8c0,3.7-3,6.7-6.6,6.7c-3.6,0-6.6-3-6.6-6.7
							c0-3.7,3-6.7,6.6-6.7C320.1,445.1,323.1,448.1,323.1,451.8"/>
						<path clip-path="url(#SVGID_898_)" fill="#C2C4C3" d="M322.9,451.8c0,3.6-2.9,6.5-6.4,6.5c-3.5,0-6.4-2.9-6.4-6.5
							c0-3.6,2.9-6.5,6.4-6.5C320,445.3,322.9,448.2,322.9,451.8"/>
						<path clip-path="url(#SVGID_898_)" fill="#C4C6C7" d="M322.7,451.8c0,3.5-2.8,6.3-6.2,6.3c-3.4,0-6.2-2.8-6.2-6.3
							c0-3.5,2.8-6.3,6.2-6.3C319.9,445.4,322.7,448.3,322.7,451.8"/>
					</g>
				</g>
				<polygon fill="#5F5F5E" points="315.4,456.6 315.4,452.8 311.7,452.8 311.7,450.7 315.4,450.7 315.4,446.9 317.5,446.9 
					317.5,450.7 321.2,450.7 321.2,452.8 317.5,452.8 317.5,456.6 				"/>
				<path fill="#211613" d="M317.3,447.1v3.4v0.4h0.4h3.4v1.7h-3.4h-0.4v0.4v3.4h-1.7V453v-0.4h-0.4h-3.4v-1.7h3.4h0.4v-0.4v-3.4
					H317.3z M317.7,446.8h-2.4v3.8h-3.7v2.5h3.7v3.8h2.4V453h3.7v-2.5h-3.7V446.8z"/>
			</g>
		</g>
		<g>
			<ellipse fill="#C1C1C1" cx="246.6" cy="708.8" rx="15.8" ry="16.2"/>
			<g>
				<path fill="#A1A0A0" d="M258,708.8c0,6.4-5.1,11.6-11.4,11.6c-6.3,0-11.4-5.2-11.4-11.6c0-6.4,5.1-11.6,11.4-11.6
					C252.9,697.2,258,702.4,258,708.8"/>
				<ellipse fill="none" stroke="#848484" stroke-miterlimit="10" cx="246.6" cy="708.8" rx="11.4" ry="11.6"/>
				<path fill="#A1A0A0" d="M254.9,708.8c0,4.7-3.8,8.5-8.4,8.5c-4.6,0-8.4-3.8-8.4-8.5c0-4.7,3.8-8.5,8.4-8.5
					C251.2,700.3,254.9,704.1,254.9,708.8"/>
				<ellipse fill="none" stroke="#848484" stroke-miterlimit="10" cx="246.6" cy="708.8" rx="8.4" ry="8.5"/>
				<g>
					<g>
						<defs>
							<rect id="SVGID_1163_" x="238.7" y="700.8" width="15.8" height="16.1"/>
						</defs>
						<clipPath id="SVGID_899_">
							<use xlink:href="#SVGID_1163_"  overflow="visible"/>
						</clipPath>
						<path clip-path="url(#SVGID_899_)" fill="#B1B0AF" d="M254.4,708.8c0,4.4-3.5,8-7.9,8c-4.4,0-7.9-3.6-7.9-8c0-4.4,3.5-8,7.9-8
							C250.9,700.8,254.4,704.4,254.4,708.8"/>
						<path clip-path="url(#SVGID_899_)" fill="#B3B2B1" d="M254.3,708.8c0,4.3-3.5,7.9-7.7,7.9c-4.3,0-7.7-3.5-7.7-7.9
							c0-4.3,3.4-7.9,7.7-7.9C250.8,701,254.3,704.5,254.3,708.8"/>
						<path clip-path="url(#SVGID_899_)" fill="#B4B5B5" d="M254.1,708.8c0,4.2-3.4,7.7-7.5,7.7c-4.2,0-7.5-3.4-7.5-7.7
							c0-4.2,3.4-7.7,7.5-7.7C250.7,701.1,254.1,704.6,254.1,708.8"/>
						<path clip-path="url(#SVGID_899_)" fill="#B6B7B6" d="M253.9,708.8c0,4.1-3.3,7.5-7.3,7.5c-4.1,0-7.3-3.3-7.3-7.5
							c0-4.1,3.3-7.5,7.3-7.5C250.6,701.3,253.9,704.7,253.9,708.8"/>
						<path clip-path="url(#SVGID_899_)" fill="#B8BABA" d="M253.7,708.8c0,4-3.2,7.3-7.1,7.3c-3.9,0-7.1-3.3-7.1-7.3
							c0-4,3.2-7.3,7.1-7.3C250.5,701.5,253.7,704.8,253.7,708.8"/>
						<path clip-path="url(#SVGID_899_)" fill="#BBBCBD" d="M253.5,708.8c0,3.9-3.1,7.1-7,7.1c-3.8,0-7-3.2-7-7.1
							c0-3.9,3.1-7.1,7-7.1C250.4,701.7,253.5,704.9,253.5,708.8"/>
						<path clip-path="url(#SVGID_899_)" fill="#BDBFBF" d="M253.3,708.8c0,3.8-3,6.9-6.8,6.9c-3.7,0-6.8-3.1-6.8-6.9
							c0-3.8,3-6.9,6.8-6.9C250.3,701.9,253.3,705,253.3,708.8"/>
						<path clip-path="url(#SVGID_899_)" fill="#BEC0C1" d="M253.2,708.8c0,3.7-3,6.7-6.6,6.7c-3.6,0-6.6-3-6.6-6.7
							c0-3.7,3-6.7,6.6-6.7C250.2,702.1,253.2,705.1,253.2,708.8"/>
						<path clip-path="url(#SVGID_899_)" fill="#C2C4C3" d="M253,708.8c0,3.6-2.9,6.5-6.4,6.5c-3.5,0-6.4-2.9-6.4-6.5
							c0-3.6,2.9-6.5,6.4-6.5C250.1,702.3,253,705.2,253,708.8"/>
						<path clip-path="url(#SVGID_899_)" fill="#C4C6C7" d="M252.8,708.8c0,3.5-2.8,6.3-6.2,6.3c-3.4,0-6.2-2.8-6.2-6.3
							c0-3.5,2.8-6.3,6.2-6.3C250,702.5,252.8,705.3,252.8,708.8"/>
					</g>
				</g>
				<polygon fill="#5F5F5E" points="245.5,713.7 245.5,709.9 241.8,709.9 241.8,707.8 245.5,707.8 245.5,704 247.6,704 247.6,707.8 
					251.3,707.8 251.3,709.9 247.6,709.9 247.6,713.7 				"/>
				<path fill="#211613" d="M247.4,704.2v3.4v0.4h0.4h3.4v1.7h-3.4h-0.4v0.4v3.4h-1.7V710v-0.4h-0.4H242v-1.7h3.4h0.4v-0.4v-3.4
					H247.4z M247.8,703.8h-2.4v3.8h-3.7v2.5h3.7v3.8h2.4V710h3.7v-2.5h-3.7V703.8z"/>
			</g>
		</g>
		<g>
			<ellipse fill="#C1C1C1" cx="982.3" cy="708.8" rx="15.8" ry="16.2"/>
			<g>
				<path fill="#A1A0A0" d="M993.6,708.8c0,6.4-5.1,11.6-11.4,11.6c-6.3,0-11.4-5.2-11.4-11.6c0-6.4,5.1-11.6,11.4-11.6
					C988.5,697.2,993.6,702.4,993.6,708.8"/>
				<ellipse fill="none" stroke="#848484" stroke-miterlimit="10" cx="982.3" cy="708.8" rx="11.4" ry="11.6"/>
				<path fill="#A1A0A0" d="M990.6,708.8c0,4.7-3.8,8.5-8.4,8.5c-4.6,0-8.4-3.8-8.4-8.5c0-4.7,3.8-8.5,8.4-8.5
					C986.9,700.3,990.6,704.1,990.6,708.8"/>
				<ellipse fill="none" stroke="#848484" stroke-miterlimit="10" cx="982.3" cy="708.8" rx="8.4" ry="8.5"/>
				<g>
					<g>
						<defs>
							<rect id="SVGID_1165_" x="974.4" y="700.8" width="15.8" height="16.1"/>
						</defs>
						<clipPath id="SVGID_900_">
							<use xlink:href="#SVGID_1165_"  overflow="visible"/>
						</clipPath>
						<path clip-path="url(#SVGID_900_)" fill="#B1B0AF" d="M990.1,708.8c0,4.4-3.5,8-7.9,8c-4.4,0-7.9-3.6-7.9-8c0-4.4,3.5-8,7.9-8
							C986.6,700.8,990.1,704.4,990.1,708.8"/>
						<path clip-path="url(#SVGID_900_)" fill="#B3B2B1" d="M990,708.8c0,4.3-3.5,7.9-7.7,7.9c-4.3,0-7.7-3.5-7.7-7.9
							c0-4.3,3.4-7.9,7.7-7.9C986.5,701,990,704.5,990,708.8"/>
						<path clip-path="url(#SVGID_900_)" fill="#B4B5B5" d="M989.8,708.8c0,4.2-3.4,7.7-7.5,7.7c-4.2,0-7.5-3.4-7.5-7.7
							c0-4.2,3.4-7.7,7.5-7.7C986.4,701.1,989.8,704.6,989.8,708.8"/>
						<path clip-path="url(#SVGID_900_)" fill="#B6B7B6" d="M989.6,708.8c0,4.1-3.3,7.5-7.3,7.5c-4.1,0-7.3-3.3-7.3-7.5
							c0-4.1,3.3-7.5,7.3-7.5C986.3,701.3,989.6,704.7,989.6,708.8"/>
						<path clip-path="url(#SVGID_900_)" fill="#B8BABA" d="M989.4,708.8c0,4-3.2,7.3-7.1,7.3c-3.9,0-7.1-3.3-7.1-7.3
							c0-4,3.2-7.3,7.1-7.3C986.2,701.5,989.4,704.8,989.4,708.8"/>
						<path clip-path="url(#SVGID_900_)" fill="#BBBCBD" d="M989.2,708.8c0,3.9-3.1,7.1-7,7.1c-3.8,0-7-3.2-7-7.1
							c0-3.9,3.1-7.1,7-7.1C986.1,701.7,989.2,704.9,989.2,708.8"/>
						<path clip-path="url(#SVGID_900_)" fill="#BDBFBF" d="M989,708.8c0,3.8-3,6.9-6.8,6.9c-3.7,0-6.8-3.1-6.8-6.9
							c0-3.8,3-6.9,6.8-6.9C986,701.9,989,705,989,708.8"/>
						<path clip-path="url(#SVGID_900_)" fill="#BEC0C1" d="M988.8,708.8c0,3.7-3,6.7-6.6,6.7c-3.6,0-6.6-3-6.6-6.7
							c0-3.7,3-6.7,6.6-6.7C985.9,702.1,988.8,705.1,988.8,708.8"/>
						<path clip-path="url(#SVGID_900_)" fill="#C2C4C3" d="M988.7,708.8c0,3.6-2.9,6.5-6.4,6.5c-3.5,0-6.4-2.9-6.4-6.5
							c0-3.6,2.9-6.5,6.4-6.5C985.8,702.3,988.7,705.2,988.7,708.8"/>
						<path clip-path="url(#SVGID_900_)" fill="#C4C6C7" d="M988.5,708.8c0,3.5-2.8,6.3-6.2,6.3c-3.4,0-6.2-2.8-6.2-6.3
							c0-3.5,2.8-6.3,6.2-6.3C985.7,702.5,988.5,705.3,988.5,708.8"/>
					</g>
				</g>
				<polygon fill="#5F5F5E" points="981.2,713.7 981.2,709.9 977.5,709.9 977.5,707.8 981.2,707.8 981.2,704 983.3,704 983.3,707.8 
					987,707.8 987,709.9 983.3,709.9 983.3,713.7 				"/>
				<path fill="#211613" d="M983.1,704.2v3.4v0.4h0.4h3.4v1.7h-3.4h-0.4v0.4v3.4h-1.7V710v-0.4H981h-3.4v-1.7h3.4h0.4v-0.4v-3.4
					H983.1z M983.5,703.8H981v3.8h-3.7v2.5h3.7v3.8h2.4V710h3.7v-2.5h-3.7V703.8z"/>
			</g>
		</g>
		<g>
			<ellipse fill="#C1C1C1" cx="982.3" cy="451.8" rx="15.8" ry="16.2"/>
			<g>
				<path fill="#A1A0A0" d="M993.7,451.8c0,6.4-5.1,11.6-11.4,11.6c-6.3,0-11.4-5.2-11.4-11.6c0-6.4,5.1-11.6,11.4-11.6
					C988.5,440.2,993.7,445.4,993.7,451.8"/>
				<ellipse fill="none" stroke="#848484" stroke-miterlimit="10" cx="982.3" cy="451.8" rx="11.4" ry="11.6"/>
				<path fill="#A1A0A0" d="M990.6,451.8c0,4.7-3.8,8.5-8.4,8.5c-4.6,0-8.4-3.8-8.4-8.5c0-4.7,3.8-8.5,8.4-8.5
					C986.9,443.2,990.6,447.1,990.6,451.8"/>
				<ellipse fill="none" stroke="#848484" stroke-miterlimit="10" cx="982.3" cy="451.8" rx="8.4" ry="8.5"/>
				<g>
					<g>
						<defs>
							<rect id="SVGID_1167_" x="974.4" y="443.7" width="15.8" height="16.1"/>
						</defs>
						<clipPath id="SVGID_901_">
							<use xlink:href="#SVGID_1167_"  overflow="visible"/>
						</clipPath>
						<path clip-path="url(#SVGID_901_)" fill="#B1B0AF" d="M990.1,451.8c0,4.4-3.5,8-7.9,8c-4.4,0-7.9-3.6-7.9-8c0-4.4,3.5-8,7.9-8
							C986.6,443.7,990.1,447.3,990.1,451.8"/>
						<path clip-path="url(#SVGID_901_)" fill="#B3B2B1" d="M990,451.8c0,4.3-3.5,7.9-7.7,7.9c-4.3,0-7.7-3.5-7.7-7.9
							c0-4.3,3.4-7.9,7.7-7.9C986.5,443.9,990,447.4,990,451.8"/>
						<path clip-path="url(#SVGID_901_)" fill="#B4B5B5" d="M989.8,451.8c0,4.2-3.4,7.7-7.5,7.7c-4.2,0-7.5-3.4-7.5-7.7
							c0-4.2,3.4-7.7,7.5-7.7C986.4,444.1,989.8,447.6,989.8,451.8"/>
						<path clip-path="url(#SVGID_901_)" fill="#B6B7B6" d="M989.6,451.8c0,4.1-3.3,7.5-7.3,7.5c-4.1,0-7.3-3.3-7.3-7.5
							c0-4.1,3.3-7.5,7.3-7.5C986.3,444.3,989.6,447.7,989.6,451.8"/>
						<path clip-path="url(#SVGID_901_)" fill="#B8BABA" d="M989.4,451.8c0,4-3.2,7.3-7.1,7.3c-3.9,0-7.1-3.3-7.1-7.3
							c0-4,3.2-7.3,7.1-7.3C986.2,444.5,989.4,447.8,989.4,451.8"/>
						<path clip-path="url(#SVGID_901_)" fill="#BBBCBD" d="M989.2,451.8c0,3.9-3.1,7.1-7,7.1c-3.8,0-7-3.2-7-7.1
							c0-3.9,3.1-7.1,7-7.1C986.1,444.7,989.2,447.9,989.2,451.8"/>
						<path clip-path="url(#SVGID_901_)" fill="#BDBFBF" d="M989,451.8c0,3.8-3,6.9-6.8,6.9c-3.7,0-6.8-3.1-6.8-6.9
							c0-3.8,3-6.9,6.8-6.9C986,444.9,989,448,989,451.8"/>
						<path clip-path="url(#SVGID_901_)" fill="#BEC0C1" d="M988.8,451.8c0,3.7-3,6.7-6.6,6.7c-3.6,0-6.6-3-6.6-6.7
							c0-3.7,3-6.7,6.6-6.7C985.9,445.1,988.8,448.1,988.8,451.8"/>
						<path clip-path="url(#SVGID_901_)" fill="#C2C4C3" d="M988.7,451.8c0,3.6-2.9,6.5-6.4,6.5c-3.5,0-6.4-2.9-6.4-6.5
							c0-3.6,2.9-6.5,6.4-6.5C985.8,445.3,988.7,448.2,988.7,451.8"/>
						<path clip-path="url(#SVGID_901_)" fill="#C4C6C7" d="M988.5,451.8c0,3.5-2.8,6.3-6.2,6.3c-3.4,0-6.2-2.8-6.2-6.3
							c0-3.5,2.8-6.3,6.2-6.3C985.7,445.4,988.5,448.3,988.5,451.8"/>
					</g>
				</g>
				<polygon fill="#5F5F5E" points="981.2,456.6 981.2,452.8 977.5,452.8 977.5,450.7 981.2,450.7 981.2,446.9 983.3,446.9 
					983.3,450.7 987,450.7 987,452.8 983.3,452.8 983.3,456.6 				"/>
				<path fill="#211613" d="M983.1,447.1v3.4v0.4h0.4h3.4v1.7h-3.4h-0.4v0.4v3.4h-1.7V453v-0.4H981h-3.4v-1.7h3.4h0.4v-0.4v-3.4
					H983.1z M983.5,446.8H981v3.8h-3.7v2.5h3.7v3.8h2.4V453h3.7v-2.5h-3.7V446.8z"/>
			</g>
		</g>
		<g>
			<g>
				<path fill="#040000" d="M944.8,485.3c6,0,10.9,5.3,10.9,11.9c0,6.5-4.9,11.9-10.9,11.9c-6,0-10.9-5.3-10.9-11.9
					C933.8,490.6,938.7,485.3,944.8,485.3"/>
				<g>
					<defs>
						<path id="SVGID_181_" d="M936,497.2c0,5.3,3.9,9.5,8.8,9.5c4.8,0,8.8-4.3,8.8-9.5c0-5.3-3.9-9.5-8.8-9.5
							C939.9,487.7,936,491.9,936,497.2"/>
					</defs>
					<clipPath id="SVGID_902_">
						<use xlink:href="#SVGID_181_"  overflow="visible"/>
					</clipPath>
					
						<radialGradient id="SVGID_903_" cx="6114.1113" cy="2072.1948" r="1.0574" gradientTransform="matrix(8.2859 0 0 9.0056 -49716.1641 -18164.1211)" gradientUnits="userSpaceOnUse">
						<stop  offset="0" style="stop-color:#F0FFE3"/>
						<stop  offset="1" style="stop-color:#EAED3C"/>
					</radialGradient>
					<rect x="936" y="487.7" clip-path="url(#SVGID_902_)" fill="url(#SVGID_903_)" width="17.5" height="19"/>
				</g>
				<g opacity="0.5" enable-background="new    ">
					<g>
						<defs>
							<rect id="SVGID_180_" x="940.7" y="491.7" width="2.9" height="3.2"/>
						</defs>
						<clipPath id="SVGID_904_">
							<use xlink:href="#SVGID_180_"  overflow="visible"/>
						</clipPath>
						<rect x="940.7" y="491.7" clip-path="url(#SVGID_904_)" fill="#FFFFFF" width="2.9" height="3.2"/>
					</g>
				</g>
				<g opacity="0.5" enable-background="new    ">
					<g>
						<defs>
							<rect id="SVGID_179_" x="940.7" y="491.7" width="1.5" height="3.2"/>
						</defs>
						<clipPath id="SVGID_905_">
							<use xlink:href="#SVGID_179_"  overflow="visible"/>
						</clipPath>
						<rect x="940.7" y="491.7" clip-path="url(#SVGID_905_)" fill="#FFFFFF" width="1.5" height="3.2"/>
					</g>
				</g>
			</g>
			<g>
				<path fill="#040000" d="M979,485.3c6,0,10.9,5.3,10.9,11.9c0,6.5-4.9,11.9-10.9,11.9c-6,0-10.9-5.3-10.9-11.9
					C968.1,490.6,973,485.3,979,485.3"/>
				<g>
					<defs>
						<path id="SVGID_178_" d="M970.3,497.2c0,5.3,3.9,9.5,8.8,9.5c4.8,0,8.8-4.3,8.8-9.5c0-5.3-3.9-9.5-8.8-9.5
							C974.2,487.7,970.3,491.9,970.3,497.2"/>
					</defs>
					<clipPath id="SVGID_906_">
						<use xlink:href="#SVGID_178_"  overflow="visible"/>
					</clipPath>
					
						<radialGradient id="SVGID_907_" cx="6118.2471" cy="2072.1948" r="1.0574" gradientTransform="matrix(8.2859 0 0 9.0056 -49716.1641 -18164.1211)" gradientUnits="userSpaceOnUse">
						<stop  offset="0" style="stop-color:#F0FFE3"/>
						<stop  offset="1" style="stop-color:#EAED3C"/>
					</radialGradient>
					<rect x="970.3" y="487.7" clip-path="url(#SVGID_906_)" fill="url(#SVGID_907_)" width="17.5" height="19"/>
				</g>
				<g opacity="0.5" enable-background="new    ">
					<g>
						<defs>
							<rect id="SVGID_177_" x="974.9" y="491.7" width="2.9" height="3.2"/>
						</defs>
						<clipPath id="SVGID_908_">
							<use xlink:href="#SVGID_177_"  overflow="visible"/>
						</clipPath>
						<rect x="974.9" y="491.7" clip-path="url(#SVGID_908_)" fill="#FFFFFF" width="2.9" height="3.2"/>
					</g>
				</g>
				<g opacity="0.5" enable-background="new    ">
					<g>
						<defs>
							<rect id="SVGID_176_" x="974.9" y="491.7" width="1.5" height="3.2"/>
						</defs>
						<clipPath id="SVGID_909_">
							<use xlink:href="#SVGID_176_"  overflow="visible"/>
						</clipPath>
						<rect x="974.9" y="491.7" clip-path="url(#SVGID_909_)" fill="#FFFFFF" width="1.5" height="3.2"/>
					</g>
				</g>
			</g>
			<g>
				<path fill="#040000" d="M1010.6,509.2c-6,0-10.9-5.3-10.9-11.9c0-6.6,4.9-11.9,10.9-11.9c6,0,10.9,5.3,10.9,11.9
					C1021.5,503.8,1016.6,509.2,1010.6,509.2"/>
				<g>
					<defs>
						<path id="SVGID_175_" d="M1019.4,497.3c0-5.3-3.9-9.6-8.8-9.6c-4.8,0-8.8,4.3-8.8,9.6c0,5.3,3.9,9.6,8.8,9.6
							C1015.5,506.8,1019.4,502.6,1019.4,497.3"/>
					</defs>
					<clipPath id="SVGID_910_">
						<use xlink:href="#SVGID_175_"  overflow="visible"/>
					</clipPath>
					
						<radialGradient id="SVGID_911_" cx="6060.708" cy="1311.8562" r="1.5579" gradientTransform="matrix(-8.2859 0 0 -9.0644 51231.1836 12391.8643)" gradientUnits="userSpaceOnUse">
						<stop  offset="0" style="stop-color:#636262"/>
						<stop  offset="1" style="stop-color:#000000"/>
					</radialGradient>
					<rect x="1001.9" y="487.7" clip-path="url(#SVGID_910_)" fill="url(#SVGID_911_)" width="17.5" height="19.2"/>
				</g>
				<g opacity="0.5" enable-background="new    ">
					<g>
						<defs>
							<rect id="SVGID_174_" x="1011.8" y="499.6" width="2.9" height="3.2"/>
						</defs>
						<clipPath id="SVGID_912_">
							<use xlink:href="#SVGID_174_"  overflow="visible"/>
						</clipPath>
						<rect x="1011.8" y="499.6" clip-path="url(#SVGID_912_)" fill="#FFFFFF" width="2.9" height="3.2"/>
					</g>
				</g>
				<g opacity="0.5" enable-background="new    ">
					<g>
						<defs>
							<rect id="SVGID_173_" x="1013.2" y="499.6" width="1.5" height="3.2"/>
						</defs>
						<clipPath id="SVGID_913_">
							<use xlink:href="#SVGID_173_"  overflow="visible"/>
						</clipPath>
						<rect x="1013.2" y="499.6" clip-path="url(#SVGID_913_)" fill="#FFFFFF" width="1.5" height="3.2"/>
					</g>
				</g>
			</g>
		</g>
		<g>
			<path fill="#FFFFFF" d="M559.2,441c2.3,0,4.2,0.5,5.6,1.5c1.3,1,2.2,2.7,2.2,5.1c0,5.2-4.1,7.3-7.2,7.3c-0.4,0-0.7,0-0.9-0.1
				l-2.3-0.6v5.6c0,3,0.2,3.1,3.3,3.4v1h-9.1v-1c2.8-0.3,3-0.5,3-3.5v-14.2c0-3.2-0.4-3.2-3-3.5v-1H559.2z M556.5,453
				c0.4,0.2,1.3,0.5,2.4,0.5c2.2,0,4.9-1.2,4.9-5.7c0-3.9-2.4-5.5-5.1-5.5c-1,0-1.6,0.2-1.8,0.4c-0.3,0.2-0.4,0.7-0.4,1.6V453z"/>
			<path fill="#FFFFFF" d="M600.1,442c-2.3,0.4-2.6,0.6-3.5,3.6c-1.1,3.6-3.7,12.6-5.5,19H590c-1.7-5.6-3.9-12.5-5.6-17.7
				c-1.9,6.1-3.8,12.2-5.6,17.7h-1.1c-1.6-6.1-3.5-12.8-5.3-19.1c-0.9-2.9-1.2-3.3-3.4-3.5v-1h8.1v1c-2.4,0.3-2.5,0.7-2,2.5
				c1.3,4.8,2.6,9.6,3.9,14.6c1.8-5.7,3.8-11.9,5.5-17.7h1.1c1.8,6.1,3.7,11.7,5.6,17.8c1.4-4.7,3.3-11.1,4-14.2
				c0.5-2.1,0.2-2.5-2.6-2.9v-1h7.5V442z"/>
			<path fill="#FFFFFF" d="M618.8,458.6c-0.2,0.9-1.1,4.6-1.4,5.7h-16v-1c3.1-0.2,3.3-0.6,3.3-3.5v-14.1c0-3.2-0.4-3.4-2.8-3.6v-1
				h10.1c3.1,0,4.4,0,4.8-0.1c0,0.9,0.2,3.6,0.3,5.5l-1,0.2c-0.3-1.2-0.6-2-1-2.7c-0.5-1.2-1.3-1.4-3.3-1.4h-3.1
				c-1,0-1.1,0.1-1.1,1.1v7.9h3.6c2.5,0,2.6-0.5,3-3h1v7.4h-1c-0.4-2.6-0.7-2.9-3.1-2.9h-3.6v7.1c0,2.5,0.7,2.7,2.4,2.7h3.1
				c2,0,2.3-0.3,3.1-1.2c0.6-0.7,1.3-2.2,1.8-3.3L618.8,458.6z"/>
			<path fill="#FFFFFF" d="M634.4,459.5c-0.4,1.6-1,3.4-1.3,4.7h-12.4v-0.9c1.8-1.9,3.8-4,5.4-6.1c2.1-2.6,4-5.5,4-8.6
				c0-3-1.4-4.7-3.8-4.7c-2.3,0-3.7,1.9-4.5,3.3l-0.8-0.7l1.9-2.9c1-1.2,2.6-2.1,4.5-2.1c3.1,0,5.6,2.3,5.6,6.2c0,3-1,5.2-4.1,8.6
				c-1.4,1.6-3.5,3.8-4.9,5.2c0.2,0,6,0,6.3,0c1.8,0,2.3-0.2,3.4-2.4L634.4,459.5z"/>
			<path fill="#FFFFFF" d="M650.7,442.5c-3.2,7.2-6.2,14.5-9.4,21.9l-2.4,0.2l-0.2-0.4c3.4-6,7-13.4,9.6-19.5h-7
				c-2.1,0-2.3,0.3-3.2,2.7h-1c0.3-2,0.5-3.8,0.6-5.3h12.7L650.7,442.5z"/>
			<path fill="#FFFFFF" d="M659.5,441.6c4.9,0,6.8,6,6.8,11.5c0,5.2-1.8,11.6-6.8,11.6c-5,0-6.9-5.9-6.9-11.5
				C652.6,447.9,654.5,441.6,659.5,441.6z M659.5,442.8c-3.1,0-3.8,5.2-3.8,10.2c0,5,0.9,10.4,3.8,10.4c3,0,3.7-5.3,3.7-10.3
				C663.3,448.1,662.4,442.8,659.5,442.8z"/>
			<path fill="#FFFFFF" d="M675.4,441.6c4.9,0,6.8,6,6.8,11.5c0,5.2-1.8,11.6-6.8,11.6c-5,0-6.9-5.9-6.9-11.5
				C668.6,447.9,670.5,441.6,675.4,441.6z M675.4,442.8c-3.1,0-3.8,5.2-3.8,10.2c0,5,0.9,10.4,3.8,10.4c3,0,3.7-5.3,3.7-10.3
				C679.2,448.1,678.4,442.8,675.4,442.8z"/>
			<path fill="#FFFFFF" d="M695.9,464.2v-1c2.1-0.3,2.4-0.6,1.9-2c-0.4-1.4-1.1-3.2-1.8-5.4H689c-0.5,1.6-1,3-1.5,4.5
				c-0.7,2.3-0.3,2.6,2.4,3v1h-7.6v-1c2.1-0.3,2.6-0.5,3.7-3.7l6.8-18.7l1.1-0.2c2.1,6.1,4.3,12.9,6.4,19c1.1,3.1,1.3,3.4,3.7,3.7v1
				H695.9z M692.6,445.2c-1.1,3.1-2.2,6.3-3.2,9.1h6.1L692.6,445.2z"/>
			<path fill="#FFFFFF" d="M724.9,458.5c-0.5,1.7-1.3,4.3-1.8,5.4c-1,0.2-3.5,0.9-6,0.9c-7.9,0-11.9-5.9-11.9-11.9
				c0-7.6,5.2-12.3,12.6-12.3c2.7,0,5,0.7,6,0.8c0.1,1.6,0.4,3.8,0.6,5.6l-1,0.2c-0.7-2.4-1.5-4-3.2-4.7c-0.9-0.4-2-0.6-3.3-0.6
				c-5.5,0-8.4,4.8-8.4,10.2c0,6.9,3.6,11.3,8.6,11.3c3.4,0,5-1.7,6.6-5.2L724.9,458.5z"/>
		</g>
	</g>
	<rect x="16" y="371.9" fill="#273E44" width="1243.5" height="29.2"/>
	<rect x="16" y="401.1" fill="#5F7B80" width="1243.5" height="6.3"/>
	<rect x="16" y="365.6" fill="#5F7B80" width="1243.5" height="6.3"/>
	<rect x="16" y="760.4" fill="#273E44" width="1243.5" height="29.2"/>
	<rect x="16" y="789.6" fill="#5F7B80" width="1243.5" height="6.3"/>
	<rect x="16" y="754.1" fill="#5F7B80" width="1243.5" height="6.3"/>
	<g>
		<g>
			
				<radialGradient id="SVGID_914_" cx="634.4114" cy="52.0039" r="12.3796" gradientTransform="matrix(1 0 0 1.0869 0 62.5189)" gradientUnits="userSpaceOnUse">
				<stop  offset="0.6774" style="stop-color:#2B2B2B"/>
				<stop  offset="0.8441" style="stop-color:#595757"/>
				<stop  offset="1" style="stop-color:#000000"/>
			</radialGradient>
			<path fill="url(#SVGID_914_)" d="M646.8,119c0,7.4-5.5,13.5-12.4,13.5c-6.8,0-12.4-6-12.4-13.5c0-7.4,5.5-13.5,12.4-13.5
				C641.2,105.6,646.8,111.6,646.8,119"/>
			<ellipse fill="none" stroke="#131313" stroke-width="0.75" stroke-miterlimit="10" cx="634.4" cy="119" rx="12.4" ry="13.5"/>
			<polygon fill="#0A0A0A" points="632.9,126.7 632.9,120.7 627.4,120.7 627.4,117.4 632.9,117.4 632.9,111.4 635.9,111.4 
				635.9,117.4 641.4,117.4 641.4,120.7 635.9,120.7 635.9,126.7 			"/>
			<path fill="#231815" d="M635.7,111.7v5.4v0.6h0.5h5v2.8h-5h-0.5v0.6v5.4h-2.5V121v-0.6h-0.5h-5v-2.8h5h0.5v-0.6v-5.4H635.7z
				 M636.2,111.1h-3.6v6h-5.5v3.9h5.5v6h3.6v-6h5.5v-3.9h-5.5V111.1z"/>
		</g>
		<rect x="632.6" y="111.1" fill="#606060" width="0.5" height="6.5"/>
		<rect x="627.1" y="117.1" fill="#606060" width="6" height="0.6"/>
		<rect x="632.6" y="111.1" fill="#494949" width="3.6" height="0.6"/>
		<rect x="627.1" y="117.1" fill="#545454" width="0.5" height="3.9"/>
	</g>
	<g>
		<g>
			
				<radialGradient id="SVGID_915_" cx="540.9124" cy="193.7502" r="12.3796" gradientTransform="matrix(1 0 0 1.0869 0 62.5189)" gradientUnits="userSpaceOnUse">
				<stop  offset="0.6774" style="stop-color:#2B2B2B"/>
				<stop  offset="0.8441" style="stop-color:#595757"/>
				<stop  offset="1" style="stop-color:#000000"/>
			</radialGradient>
			<path fill="url(#SVGID_915_)" d="M553.3,273.1c0,7.4-5.5,13.5-12.4,13.5c-6.8,0-12.4-6-12.4-13.5c0-7.4,5.5-13.5,12.4-13.5
				C547.7,259.6,553.3,265.7,553.3,273.1"/>
			<ellipse fill="none" stroke="#131313" stroke-width="0.75" stroke-miterlimit="10" cx="540.9" cy="273.1" rx="12.4" ry="13.5"/>
			<polygon fill="#0A0A0A" points="539.4,280.7 539.4,274.8 533.9,274.8 533.9,271.4 539.4,271.4 539.4,265.5 542.4,265.5 
				542.4,271.4 547.9,271.4 547.9,274.8 542.4,274.8 542.4,280.7 			"/>
			<path fill="#231815" d="M542.2,265.7v5.4v0.6h0.5h5v2.8h-5h-0.5v0.6v5.4h-2.5V275v-0.6h-0.5h-5v-2.8h5h0.5v-0.6v-5.4H542.2z
				 M542.7,265.2h-3.6v6h-5.5v3.9h5.5v6h3.6v-6h5.5v-3.9h-5.5V265.2z"/>
		</g>
		<rect x="539.1" y="265.2" fill="#606060" width="0.5" height="6.5"/>
		<rect x="533.6" y="271.2" fill="#606060" width="6" height="0.6"/>
		<rect x="539.1" y="265.2" fill="#494949" width="3.6" height="0.6"/>
		<rect x="533.6" y="271.2" fill="#545454" width="0.5" height="3.9"/>
	</g>
	<g>
		<g>
			
				<radialGradient id="SVGID_916_" cx="634.4114" cy="413.3733" r="12.3796" gradientTransform="matrix(1 0 0 1.0869 0 62.5189)" gradientUnits="userSpaceOnUse">
				<stop  offset="0.6774" style="stop-color:#2B2B2B"/>
				<stop  offset="0.8441" style="stop-color:#595757"/>
				<stop  offset="1" style="stop-color:#000000"/>
			</radialGradient>
			<path fill="url(#SVGID_916_)" d="M646.8,511.8c0,7.4-5.5,13.5-12.4,13.5c-6.8,0-12.4-6-12.4-13.5c0-7.4,5.5-13.5,12.4-13.5
				C641.2,498.3,646.8,504.4,646.8,511.8"/>
			<ellipse fill="none" stroke="#131313" stroke-width="0.75" stroke-miterlimit="10" cx="634.4" cy="511.8" rx="12.4" ry="13.5"/>
			<polygon fill="#0A0A0A" points="632.9,519.4 632.9,513.5 627.4,513.5 627.4,510.1 632.9,510.1 632.9,504.2 635.9,504.2 
				635.9,510.1 641.4,510.1 641.4,513.5 635.9,513.5 635.9,519.4 			"/>
			<path fill="#231815" d="M635.7,504.4v5.4v0.6h0.5h5v2.8h-5h-0.5v0.6v5.4h-2.5v-5.4v-0.6h-0.5h-5v-2.8h5h0.5v-0.6v-5.4H635.7z
				 M636.2,503.9h-3.6v6h-5.5v3.9h5.5v6h3.6v-6h5.5v-3.9h-5.5V503.9z"/>
		</g>
		<rect x="632.6" y="503.9" fill="#606060" width="0.5" height="6.5"/>
		<rect x="627.1" y="509.9" fill="#606060" width="6" height="0.6"/>
		<rect x="632.6" y="503.9" fill="#494949" width="3.6" height="0.6"/>
		<rect x="627.1" y="509.9" fill="#545454" width="0.5" height="3.9"/>
	</g>
	<g>
		<g>
			
				<radialGradient id="SVGID_917_" cx="540.9124" cy="555.1196" r="12.3796" gradientTransform="matrix(1 0 0 1.0869 0 62.5189)" gradientUnits="userSpaceOnUse">
				<stop  offset="0.6774" style="stop-color:#2B2B2B"/>
				<stop  offset="0.8441" style="stop-color:#595757"/>
				<stop  offset="1" style="stop-color:#000000"/>
			</radialGradient>
			<path fill="url(#SVGID_917_)" d="M553.3,665.9c0,7.4-5.5,13.5-12.4,13.5c-6.8,0-12.4-6-12.4-13.5c0-7.4,5.5-13.5,12.4-13.5
				C547.7,652.4,553.3,658.4,553.3,665.9"/>
			<ellipse fill="none" stroke="#131313" stroke-width="0.75" stroke-miterlimit="10" cx="540.9" cy="665.9" rx="12.4" ry="13.5"/>
			<polygon fill="#0A0A0A" points="539.4,673.5 539.4,667.5 533.9,667.5 533.9,664.2 539.4,664.2 539.4,658.2 542.4,658.2 
				542.4,664.2 547.9,664.2 547.9,667.5 542.4,667.5 542.4,673.5 			"/>
			<path fill="#231815" d="M542.2,658.5v5.4v0.6h0.5h5v2.8h-5h-0.5v0.6v5.4h-2.5v-5.4v-0.6h-0.5h-5v-2.8h5h0.5v-0.6v-5.4H542.2z
				 M542.7,657.9h-3.6v6h-5.5v3.9h5.5v6h3.6v-6h5.5v-3.9h-5.5V657.9z"/>
		</g>
		<rect x="539.1" y="657.9" fill="#606060" width="0.5" height="6.5"/>
		<rect x="533.6" y="663.9" fill="#606060" width="6" height="0.6"/>
		<rect x="539.1" y="657.9" fill="#494949" width="3.6" height="0.6"/>
		<rect x="533.6" y="663.9" fill="#545454" width="0.5" height="3.9"/>
	</g>
	<g>
		<path fill="#C1C1C1" d="M275.3,855.6c-4.7,0-8.1-3.7-8.1-8.2c-0.1-4.8,3.7-8.2,8.1-8.2c4.5,0,8.2,3.4,8.1,8.2
			C283.3,852,279.9,855.6,275.3,855.6z M275.2,851.5c2.4,0.1,4.1-1.9,4.2-4c0.1-2.4-1.8-4.2-4.1-4.2c-2,0-4.1,1.7-4.1,4.1
			C271.1,849.3,272.9,851.6,275.2,851.5z"/>
		<path fill="#C1C1C1" d="M221.5,850.9c0,0.1,0.1,0.2,0.1,0.3c0,1.2,0,2.4,0,3.5c0,0.3-0.2,0.5-0.5,0.5c-1.3,0.3-2.7,0.5-4.1,0.3
			c-1.7-0.2-3.3-0.7-4.5-1.9c-2.5-2.4-3.2-5.2-2.4-8.5c0.6-2.3,2-3.8,4-4.9c2-1.1,4.1-1.2,6.3-0.7c0.3,0.1,0.6,0.1,0.9,0.2
			c0.1,0.1,0.3,0.2,0.3,0.4c0,1.2,0,2.4,0,3.6c0,0,0,0.1,0,0.1c-0.5-0.2-1.1-0.4-1.6-0.5c-1.7-0.3-3.3-0.2-4.6,0.9
			c-0.7,0.6-1.1,1.4-1.2,2.3c-0.3,1.5,0.3,2.8,1.3,3.8c0.6,0.6,1.3,0.8,2.1,0.9c1.3,0.2,2.6,0.1,3.8-0.5
			C221.4,850.9,221.5,850.9,221.5,850.9z"/>
		<path fill="#C1C1C1" d="M262.7,843.8c-0.9-0.2-1.7-0.4-2.5-0.5c-1.6-0.2-3,0.3-4.1,1.5c-0.9,1-1.1,2.2-0.8,3.5
			c0.4,1.6,1.4,2.8,3.1,3.1c1.3,0.2,2.7,0.2,3.9-0.4c0.1,0,0.2-0.1,0.3-0.1c0,0,0.1,0,0.2,0c0,1.3,0,2.6,0,4c0,0.1-0.3,0.3-0.4,0.3
			c-1.3,0.3-2.5,0.5-3.8,0.3c-1.8-0.2-3.5-0.8-4.9-2.1c-1.5-1.5-2.5-3.2-2.6-5.4c-0.1-1.3,0.1-2.6,0.6-3.9c0.7-1.7,1.9-3,3.5-3.9
			c1.7-1,3.6-1.2,5.5-1c0.7,0.1,1.3,0.3,2,0.5c0.1,0,0.2,0.2,0.2,0.3C262.7,841.3,262.7,842.5,262.7,843.8
			C262.7,843.8,262.7,843.8,262.7,843.8z"/>
		<path fill="#C1C1C1" d="M236.4,853.3c0-0.4,0-0.8,0-1.3c0-0.5,0.1-0.5,0.5-0.4c1.5,0.4,3,0.7,4.5,0.4c0.4-0.1,0.8-0.3,1.1-0.5
			c0.6-0.6,0.5-1.5-0.2-1.9c-0.3-0.2-0.7-0.3-1.1-0.5c-1-0.4-2.1-0.7-3-1.3c-1.8-1.2-2.3-3.4-1.6-5.4c0.5-1.5,1.7-2.3,3.1-2.8
			c1.6-0.6,3.2-0.4,4.8-0.1c0.4,0.1,1,0.1,1.3,0.4c0.2,0.3,0.1,0.9,0.1,1.3c0,0.5,0,0.9,0,1.4c0,0.2-0.1,0.3-0.3,0.3
			c-0.8-0.1-1.5-0.2-2.3-0.3c-0.6,0-1.2,0-1.7,0.1c-0.7,0.1-1.1,0.5-1.2,1c0,0.4,0.5,1.1,1.1,1.3c0.4,0.1,0.8,0.2,1.1,0.4
			c0.8,0.3,1.5,0.7,2.3,1c1.2,0.6,1.6,1.7,1.9,2.9c0.4,1.6-0.2,2.9-1.1,4.1c-0.6,0.9-1.7,1.3-2.7,1.6c-1.3,0.4-2.6,0.4-4,0.3
			c-0.7,0-1.4-0.2-2.1-0.3c-0.4-0.1-0.6-0.3-0.6-0.7C236.4,854.1,236.4,853.7,236.4,853.3C236.4,853.3,236.4,853.3,236.4,853.3z"/>
		<path fill="#C1C1C1" d="M270,820.2c0,3.5,0,6.9,0,10.4c0,1.1-0.9,1.9-1.8,1.9c-1.2,0-2-0.8-2-1.9c0-2.7,0-5.4,0-8.1
			c0-4.1,0-8.2,0-12.3c0-1.5,0.6-1.9,1.7-2.2c0.8-0.2,2.1,0.7,2.1,1.6C270,813.2,270,816.7,270,820.2C270,820.2,270,820.2,270,820.2
			z"/>
		<path fill="#C1C1C1" d="M226.9,820.2c0,3.5,0,6.9,0,10.4c0,0.7-0.6,1.6-1.1,1.8c-0.8,0.3-1.5,0-2.1-0.5c-0.5-0.5-0.6-1-0.6-1.6
			c0-6.7,0-13.4,0-20.2c0-1.2,0.5-1.6,1.5-1.9c1.3-0.4,2.3,0.4,2.3,1.7C226.9,813.3,226.9,816.8,226.9,820.2z"/>
		<path fill="#C1C1C1" d="M231,847.4c0,2.4,0,4.8,0,7.2c0,0.4-0.1,0.6-0.6,0.6c-1,0-2,0-3,0c-0.4,0-0.5-0.1-0.5-0.5
			c0-4.9,0-9.8,0-14.6c0-0.4,0.1-0.5,0.5-0.5c1,0,2.1,0,3.1,0c0.4,0,0.5,0.1,0.5,0.5C231,842.5,231,845,231,847.4
			C231,847.4,231,847.4,231,847.4z"/>
		<path fill="#C1C1C1" d="M237.7,822c0,1.6,0,3.3,0,4.9c0,0.8-0.8,1.6-1.5,1.7c-1.5,0.2-2.3-0.8-2.3-2.1c0-2.8,0-5.6,0-8.4
			c0-0.3,0-0.5,0-0.8c0-1.8,2-2.2,3-1.6c0.6,0.4,0.8,0.8,0.8,1.5C237.7,818.8,237.7,820.4,237.7,822C237.7,822,237.7,822,237.7,822z
			"/>
		<path fill="#C1C1C1" d="M259.2,822c0,1.6,0,3.3,0,4.9c0,1.4-1.4,2.2-2.7,1.6c-0.8-0.4-1.1-1.1-1.1-1.9c0-3,0-6,0-9
			c0-0.9,0.3-1.5,1.1-1.9c0.8-0.4,1.5-0.2,2.1,0.3c0.3,0.3,0.6,0.7,0.6,1.2C259.2,818.7,259.2,820.3,259.2,822
			C259.2,822,259.2,822,259.2,822z"/>
		<path fill="#C1C1C1" d="M280.7,821.9c0,1.6,0,3.3,0,4.9c0,0.8-0.6,1.6-1.2,1.8c-0.7,0.2-1.6-0.1-2-0.7c-0.4-0.4-0.5-0.9-0.5-1.5
			c0-2.9,0-5.9,0-8.8c0-0.9,0.3-1.6,1.2-1.9c0.7-0.3,1.3-0.3,1.9,0.2c0.4,0.3,0.7,0.7,0.7,1.3C280.7,818.7,280.7,820.3,280.7,821.9
			C280.7,821.9,280.7,821.9,280.7,821.9z"/>
		<path fill="#C1C1C1" d="M216.2,822.1c0,1.5,0,3,0,4.5c0,1.3-0.9,2.1-2.2,2c-0.8-0.1-1.5-1-1.6-2c0-0.5,0-1,0-1.5
			c0-2.5,0-5.1,0-7.6c0-1.2,0.5-1.9,1.6-2.1c0.9-0.2,1.9,0.5,2.1,1.4c0,0.3,0.1,0.6,0.1,0.8C216.2,819.2,216.2,820.6,216.2,822.1
			C216.2,822.1,216.2,822.1,216.2,822.1z"/>
		<path fill="#C1C1C1" d="M248.6,824.8c-0.1,0.9,0,1.7-0.2,2.6c-0.1,0.7-0.8,1.1-1.5,1.3c-0.7,0.2-1.3,0-1.8-0.6
			c-0.5-0.5-0.7-1.1-0.6-1.8c0-1.1,0-2.2,0-3.3c0-1.1,0.6-1.7,1.6-2c1.1-0.3,2.3,0.5,2.4,1.7C248.6,823.3,248.6,824,248.6,824.8
			C248.6,824.8,248.6,824.8,248.6,824.8z"/>
		<path fill="#C1C1C1" d="M291.6,824.8c0,0.6,0,1.2,0,1.8c0.1,1.3-1.1,2.2-2.1,2.1c-0.8-0.1-1.6-0.7-1.6-1.6c-0.1-1.6,0-3.1,0-4.7
			c0-0.7,0.8-1.4,1.6-1.6c0.6-0.1,1.5,0.3,1.8,1c0.2,0.3,0.2,0.7,0.3,1C291.6,823.4,291.6,824.1,291.6,824.8z"/>
		<path fill="#C1C1C1" d="M205.3,824.7c0,0.7,0,1.4,0,2.2c0,0.7-0.6,1.5-1.2,1.7c-0.7,0.2-1.6-0.1-2-0.7c-0.4-0.5-0.6-1-0.5-1.7
			c0-1,0-2.1,0-3.1c0-0.9,0.3-1.6,1.1-2c0.5-0.3,1.1-0.4,1.7-0.1c0.6,0.3,1,0.8,1.1,1.5C205.3,823.2,205.3,824,205.3,824.7
			C205.3,824.7,205.3,824.7,205.3,824.7z"/>
	</g>
	<g>
		<ellipse fill="#C1C1C1" cx="84.2" cy="831.4" rx="15.8" ry="16.2"/>
		<g>
			<path fill="#A1A0A0" d="M95.6,831.4c0,6.4-5.1,11.6-11.4,11.6c-6.3,0-11.4-5.2-11.4-11.6c0-6.4,5.1-11.6,11.4-11.6
				C90.5,819.8,95.6,825,95.6,831.4"/>
			<ellipse fill="none" stroke="#848484" stroke-miterlimit="10" cx="84.2" cy="831.4" rx="11.4" ry="11.6"/>
			<path fill="#A1A0A0" d="M92.6,831.4c0,4.7-3.8,8.5-8.4,8.5c-4.6,0-8.4-3.8-8.4-8.5c0-4.7,3.8-8.5,8.4-8.5
				C88.8,822.9,92.6,826.7,92.6,831.4"/>
			<ellipse fill="none" stroke="#848484" stroke-miterlimit="10" cx="84.2" cy="831.4" rx="8.4" ry="8.5"/>
			<g>
				<g>
					<defs>
						<rect id="SVGID_1185_" x="76.3" y="823.4" width="15.8" height="16.1"/>
					</defs>
					<clipPath id="SVGID_918_">
						<use xlink:href="#SVGID_1185_"  overflow="visible"/>
					</clipPath>
					<path clip-path="url(#SVGID_918_)" fill="#B1B0AF" d="M92.1,831.4c0,4.4-3.5,8-7.9,8c-4.4,0-7.9-3.6-7.9-8c0-4.4,3.5-8,7.9-8
						C88.6,823.4,92.1,827,92.1,831.4"/>
					<path clip-path="url(#SVGID_918_)" fill="#B3B2B1" d="M91.9,831.4c0,4.3-3.5,7.9-7.7,7.9c-4.3,0-7.7-3.5-7.7-7.9
						c0-4.3,3.4-7.9,7.7-7.9C88.5,823.6,91.9,827.1,91.9,831.4"/>
					<path clip-path="url(#SVGID_918_)" fill="#B4B5B5" d="M91.7,831.4c0,4.2-3.4,7.7-7.5,7.7c-4.2,0-7.5-3.4-7.5-7.7
						c0-4.2,3.4-7.7,7.5-7.7C88.4,823.8,91.7,827.2,91.7,831.4"/>
					<path clip-path="url(#SVGID_918_)" fill="#B6B7B6" d="M91.5,831.4c0,4.1-3.3,7.5-7.3,7.5c-4.1,0-7.3-3.3-7.3-7.5
						c0-4.1,3.3-7.5,7.3-7.5C88.3,824,91.5,827.3,91.5,831.4"/>
					<path clip-path="url(#SVGID_918_)" fill="#B8BABA" d="M91.3,831.4c0,4-3.2,7.3-7.1,7.3c-3.9,0-7.1-3.3-7.1-7.3
						c0-4,3.2-7.3,7.1-7.3C88.1,824.1,91.3,827.4,91.3,831.4"/>
					<path clip-path="url(#SVGID_918_)" fill="#BBBCBD" d="M91.2,831.4c0,3.9-3.1,7.1-7,7.1c-3.8,0-7-3.2-7-7.1c0-3.9,3.1-7.1,7-7.1
						C88,824.3,91.2,827.5,91.2,831.4"/>
					<path clip-path="url(#SVGID_918_)" fill="#BDBFBF" d="M91,831.4c0,3.8-3,6.9-6.8,6.9c-3.7,0-6.8-3.1-6.8-6.9
						c0-3.8,3-6.9,6.8-6.9C87.9,824.5,91,827.6,91,831.4"/>
					<path clip-path="url(#SVGID_918_)" fill="#BEC0C1" d="M90.8,831.4c0,3.7-3,6.7-6.6,6.7c-3.6,0-6.6-3-6.6-6.7
						c0-3.7,3-6.7,6.6-6.7C87.8,824.7,90.8,827.7,90.8,831.4"/>
					<path clip-path="url(#SVGID_918_)" fill="#C2C4C3" d="M90.6,831.4c0,3.6-2.9,6.5-6.4,6.5c-3.5,0-6.4-2.9-6.4-6.5
						c0-3.6,2.9-6.5,6.4-6.5C87.7,824.9,90.6,827.8,90.6,831.4"/>
					<path clip-path="url(#SVGID_918_)" fill="#C4C6C7" d="M90.4,831.4c0,3.5-2.8,6.3-6.2,6.3c-3.4,0-6.2-2.8-6.2-6.3
						c0-3.5,2.8-6.3,6.2-6.3C87.6,825.1,90.4,827.9,90.4,831.4"/>
				</g>
			</g>
			<polygon fill="#5F5F5E" points="83.2,836.3 83.2,832.5 79.5,832.5 79.5,830.4 83.2,830.4 83.2,826.6 85.2,826.6 85.2,830.4 
				88.9,830.4 88.9,832.5 85.2,832.5 85.2,836.3 			"/>
			<path fill="#211613" d="M85.1,826.8v3.4v0.4h0.4h3.4v1.7h-3.4h-0.4v0.4v3.4h-1.7v-3.4v-0.4H83h-3.4v-1.7H83h0.4v-0.4v-3.4H85.1z
				 M85.4,826.4H83v3.8h-3.7v2.5H83v3.8h2.4v-3.8h3.7v-2.5h-3.7V826.4z"/>
		</g>
	</g>
	<g>
		<ellipse fill="#C1C1C1" cx="1191.2" cy="831.4" rx="15.8" ry="16.2"/>
		<g>
			<path fill="#A1A0A0" d="M1202.6,831.4c0,6.4-5.1,11.6-11.4,11.6c-6.3,0-11.4-5.2-11.4-11.6c0-6.4,5.1-11.6,11.4-11.6
				C1197.5,819.8,1202.6,825,1202.6,831.4"/>
			<ellipse fill="none" stroke="#848484" stroke-miterlimit="10" cx="1191.2" cy="831.4" rx="11.4" ry="11.6"/>
			<path fill="#A1A0A0" d="M1199.6,831.4c0,4.7-3.8,8.5-8.4,8.5c-4.6,0-8.4-3.8-8.4-8.5c0-4.7,3.8-8.5,8.4-8.5
				C1195.8,822.9,1199.6,826.7,1199.6,831.4"/>
			<ellipse fill="none" stroke="#848484" stroke-miterlimit="10" cx="1191.2" cy="831.4" rx="8.4" ry="8.5"/>
			<g>
				<g>
					<defs>
						<rect id="SVGID_1187_" x="1183.3" y="823.4" width="15.8" height="16.1"/>
					</defs>
					<clipPath id="SVGID_919_">
						<use xlink:href="#SVGID_1187_"  overflow="visible"/>
					</clipPath>
					<path clip-path="url(#SVGID_919_)" fill="#B1B0AF" d="M1199.1,831.4c0,4.4-3.5,8-7.9,8c-4.4,0-7.9-3.6-7.9-8c0-4.4,3.5-8,7.9-8
						C1195.5,823.4,1199.1,827,1199.1,831.4"/>
					<path clip-path="url(#SVGID_919_)" fill="#B3B2B1" d="M1198.9,831.4c0,4.3-3.5,7.9-7.7,7.9c-4.3,0-7.7-3.5-7.7-7.9
						c0-4.3,3.4-7.9,7.7-7.9C1195.4,823.6,1198.9,827.1,1198.9,831.4"/>
					<path clip-path="url(#SVGID_919_)" fill="#B4B5B5" d="M1198.7,831.4c0,4.2-3.4,7.7-7.5,7.7c-4.2,0-7.5-3.4-7.5-7.7
						c0-4.2,3.4-7.7,7.5-7.7C1195.3,823.8,1198.7,827.2,1198.7,831.4"/>
					<path clip-path="url(#SVGID_919_)" fill="#B6B7B6" d="M1198.5,831.4c0,4.1-3.3,7.5-7.3,7.5c-4.1,0-7.3-3.3-7.3-7.5
						c0-4.1,3.3-7.5,7.3-7.5C1195.2,824,1198.5,827.3,1198.5,831.4"/>
					<path clip-path="url(#SVGID_919_)" fill="#B8BABA" d="M1198.3,831.4c0,4-3.2,7.3-7.1,7.3c-3.9,0-7.1-3.3-7.1-7.3
						c0-4,3.2-7.3,7.1-7.3C1195.1,824.1,1198.3,827.4,1198.3,831.4"/>
					<path clip-path="url(#SVGID_919_)" fill="#BBBCBD" d="M1198.1,831.4c0,3.9-3.1,7.1-7,7.1c-3.8,0-7-3.2-7-7.1
						c0-3.9,3.1-7.1,7-7.1C1195,824.3,1198.1,827.5,1198.1,831.4"/>
					<path clip-path="url(#SVGID_919_)" fill="#BDBFBF" d="M1198,831.4c0,3.8-3,6.9-6.8,6.9c-3.7,0-6.8-3.1-6.8-6.9
						c0-3.8,3-6.9,6.8-6.9C1194.9,824.5,1198,827.6,1198,831.4"/>
					<path clip-path="url(#SVGID_919_)" fill="#BEC0C1" d="M1197.8,831.4c0,3.7-3,6.7-6.6,6.7c-3.6,0-6.6-3-6.6-6.7
						c0-3.7,3-6.7,6.6-6.7C1194.8,824.7,1197.8,827.7,1197.8,831.4"/>
					<path clip-path="url(#SVGID_919_)" fill="#C2C4C3" d="M1197.6,831.4c0,3.6-2.9,6.5-6.4,6.5c-3.5,0-6.4-2.9-6.4-6.5
						c0-3.6,2.9-6.5,6.4-6.5C1194.7,824.9,1197.6,827.8,1197.6,831.4"/>
					<path clip-path="url(#SVGID_919_)" fill="#C4C6C7" d="M1197.4,831.4c0,3.5-2.8,6.3-6.2,6.3c-3.4,0-6.2-2.8-6.2-6.3
						c0-3.5,2.8-6.3,6.2-6.3C1194.6,825.1,1197.4,827.9,1197.4,831.4"/>
				</g>
			</g>
			<polygon fill="#5F5F5E" points="1190.2,836.3 1190.2,832.5 1186.4,832.5 1186.4,830.4 1190.2,830.4 1190.2,826.6 1192.2,826.6 
				1192.2,830.4 1195.9,830.4 1195.9,832.5 1192.2,832.5 1192.2,836.3 			"/>
			<path fill="#211613" d="M1192,826.8v3.4v0.4h0.4h3.4v1.7h-3.4h-0.4v0.4v3.4h-1.7v-3.4v-0.4h-0.4h-3.4v-1.7h3.4h0.4v-0.4v-3.4
				H1192z M1192.4,826.4h-2.4v3.8h-3.7v2.5h3.7v3.8h2.4v-3.8h3.7v-2.5h-3.7V826.4z"/>
		</g>
	</g>
</g>
</svg>
