<?xml version="1.0" encoding="utf-8"?>
<!-- Generator: Adobe Illustrator 16.0.0, SVG Export Plug-In . SVG Version: 6.00 Build 0)  -->
<!DOCTYPE svg PUBLIC "-//W3C//DTD SVG 1.1//EN" "http://www.w3.org/Graphics/SVG/1.1/DTD/svg11.dtd">
<svg version="1.1" id="图层_1" xmlns="http://www.w3.org/2000/svg" xmlns:xlink="http://www.w3.org/1999/xlink" x="0px" y="0px"
	 width="1275.59px" height="126.14px" viewBox="0 0 1275.59 126.14" enable-background="new 0 0 1275.59 126.14"
	 xml:space="preserve">
<g>
	<rect y="0" fill="#424242" width="1275.59" height="126.141"/>
</g>
<path fill="#2C386C" stroke="#161616" stroke-miterlimit="10" d="M1264.779,110.9c0,3.313-2.687,6-6,6H14.242c-3.313,0-6-2.688-6-6
	V14.905c0-3.313,2.687-6,6-6h1244.537c3.313,0,6,2.687,6,6V110.9z"/>
<g>
	<path fill="#8E8E8E" stroke="#030000" stroke-miterlimit="10" d="M426.516,89.174c0,4.543-3.418,8.227-7.636,8.227H184.044
		c-4.218,0-7.636-3.684-7.636-8.227V36.051c0-4.543,3.418-8.227,7.636-8.227H418.88c4.218,0,7.636,3.684,7.636,8.227V89.174z"/>
</g>
<g>
	<path fill="#8E8E8E" stroke="#030000" stroke-miterlimit="10" d="M1250.025,89.174c0,4.543-3.418,8.227-7.636,8.227h-234.837
		c-4.218,0-7.636-3.684-7.636-8.227V36.051c0-4.543,3.418-8.227,7.636-8.227h234.837c4.218,0,7.636,3.684,7.636,8.227V89.174z"/>
</g>
<g>
	<path fill="#8E8E8E" stroke="#030000" stroke-miterlimit="10" d="M149.952,89.402c0,4.543-3.418,8.227-7.636,8.227h-32.867
		c-4.218,0-7.636-3.684-7.636-8.227V36.28c0-4.543,3.418-8.227,7.636-8.227h32.867c4.218,0,7.636,3.684,7.636,8.227V89.402z"/>
</g>
<g>
	<path fill="#8E8E8E" stroke="#030000" stroke-miterlimit="10" d="M981.866,89.402c0,4.543-3.418,8.227-7.636,8.227h-32.867
		c-4.218,0-7.636-3.684-7.636-8.227V36.28c0-4.543,3.418-8.227,7.636-8.227h32.867c4.218,0,7.636,3.684,7.636,8.227V89.402z"/>
</g>
<path fill="#8E8E8E" stroke="#050505" stroke-miterlimit="10" d="M672.592,94.725c0,1.73-1.108,3.133-2.472,3.133H450.147
	c-1.364,0-2.472-1.402-2.472-3.133V31.184c0-1.729,1.107-3.131,2.472-3.131H670.12c1.363,0,2.472,1.402,2.472,3.131V94.725z"/>
<path fill="#8E8E8E" stroke="#050505" stroke-miterlimit="10" d="M915.636,94.725c0,1.73-1.109,3.133-2.472,3.133H693.191
	c-1.364,0-2.472-1.402-2.472-3.133V31.184c0-1.729,1.107-3.131,2.472-3.131h219.973c1.362,0,2.472,1.402,2.472,3.131V94.725z"/>
<g>
	<path fill="#F7F7F7" d="M17.021,37.736V18.052c0,0,0.194-1.624,2.273-1.818h10.199c0,0,4.677,1.818,4.547,6.042
		c-0.13,4.223-1.624-2.274-5.132-1.56h-6.432c0,0-0.844,0.39-0.844,1.56v15.46C21.634,37.736,19.229,40.595,17.021,37.736z"/>
	<path fill="#F7F7F7" d="M31.248,23.769c0,0-0.293,2.469-2.177,2.437s-4.84-0.163-5.1,2.988c-0.26,3.15,0.683,4.319,2.469,1.331
		s3.021,1.917,6.366-2.663C32.807,27.862,34.105,22.21,31.248,23.769z"/>
	<path fill="#F7F7F7" d="M23.388,33.189c0,0,1.147-0.107,1.753,0.975c0.607,1.082,2.188,2.057,5.501,1.191
		c3.313-0.866,3.941,1.472,3.227,3.421c0,0-0.91,2.014-7.299,0.585C26.569,39.361,20.528,36.07,23.388,33.189z"/>
	<path fill="#F7F7F7" d="M36.163,23.497c0,0,1.646-2.155,4.288,0v11.901c0,0,0.395,1.754,2.1,2.955c0,0,1.023,1.786-2.257,1.056
		s-4.353-5.749-4.353-6.643L36.163,23.497z"/>
	<path fill="#F7F7F7" d="M50.931,23.497c0,0-3.118-0.139-4.244,3.022c-1.125,3.162,1.43,7.622-2.425,9.831
		c0,0-3.098-1.862-1.56,0.704s6.994,1.233,7.547-0.812c0.552-2.047-0.324-10.167,1.949-10.102
		C54.472,26.206,55.445,23.127,50.931,23.497z"/>
	<path fill="#F7F7F7" d="M54.872,22.838c0,0-0.606,1.125,1.3,2.426c0,0,1.169,0.563,0.605,3.983c0,0-0.822,10.453,1.343,10.337
		c0,0,2.901,1.443,3.161-4.144c0,0,0.347-7.448-0.216-8.488C61.065,26.953,59.16,20.5,54.872,22.838z"/>
</g>
</svg>
