<?xml version="1.0" encoding="utf-8"?>
<!-- Generator: Adobe Illustrator 21.0.0, SVG Export Plug-In . SVG Version: 6.00 Build 0)  -->
<svg version="1.1" id="图层_1" xmlns="http://www.w3.org/2000/svg" xmlns:xlink="http://www.w3.org/1999/xlink" x="0px" y="0px"
	 width="1417.3px" height="126.1px" viewBox="0 0 1417.3 126.1" enable-background="new 0 0 1417.3 126.1" xml:space="preserve">
<g id="XMLID_17365_">
	<rect id="XMLID_18150_" x="3" y="3" fill="#3F3F3F" width="1411.3" height="120.1"/>
	<path id="XMLID_18147_" fill="#1E1E1E" d="M1411.3,6v114.1H6V6H1411.3 M1417.3,0H0v126.1h1417.3V0L1417.3,0z"/>
</g>
<g id="XMLID_17346_">
	<rect id="XMLID_17364_" x="0" y="0" fill="#1C1C1C" width="63.8" height="126.1"/>
	<rect id="XMLID_17363_" x="61.3" y="0" fill="#070707" width="2.5" height="126.1"/>
	<linearGradient id="XMLID_1003_" gradientUnits="userSpaceOnUse" x1="16.6627" y1="23.2313" x2="44.5694" y2="23.2313">
		<stop  offset="0" style="stop-color:#FFFFFF"/>
		<stop  offset="5.656110e-02" style="stop-color:#A3A3A4"/>
		<stop  offset="0.3372" style="stop-color:#919292"/>
		<stop  offset="0.3831" style="stop-color:#E0E0DF"/>
		<stop  offset="0.4519" style="stop-color:#C1C0C0"/>
		<stop  offset="0.9264" style="stop-color:#E0E0DF"/>
		<stop  offset="0.9745" style="stop-color:#C1C0C0"/>
	</linearGradient>
	<path id="XMLID_17362_" fill="url(#XMLID_1003_)" d="M16.7,23.2c0,7.7,6.2,13.9,14,13.9c7.7,0,14-6.2,14-13.9
		c0-7.7-6.2-13.9-14-13.9C22.9,9.4,16.7,15.6,16.7,23.2"/>
	
		<ellipse id="XMLID_17361_" fill="none" stroke="#121212" stroke-width="0.75" stroke-miterlimit="10" cx="30.6" cy="23.2" rx="14" ry="13.9"/>
	<polygon id="XMLID_17360_" fill="#040000" points="32.3,31.1 32.3,24.9 38.5,24.9 38.5,21.5 32.3,21.5 32.3,15.4 28.9,15.4 
		28.9,21.5 22.7,21.5 22.7,24.9 28.9,24.9 28.9,31.1 	"/>
	<path id="XMLID_17357_" fill="#221714" d="M32,15.7v5.6v0.6h0.6h5.6v2.8h-5.6H32v0.6v5.6h-2.9v-5.6v-0.6h-0.6H23v-2.8h5.6h0.6v-0.6
		v-5.6H32z M28.6,21.2h-6.2v4h6.2v6.1h4v-6.1h6.2v-4h-6.2v-6.1h-4V21.2z"/>
	<rect id="XMLID_17356_" x="32" y="15.1" fill="#606062" width="0.6" height="6.7"/>
	<rect id="XMLID_17355_" x="32.1" y="21.2" fill="#606062" width="6.8" height="0.6"/>
	<linearGradient id="XMLID_1005_" gradientUnits="userSpaceOnUse" x1="16.6627" y1="102.5113" x2="44.5694" y2="102.5113">
		<stop  offset="0" style="stop-color:#FFFFFF"/>
		<stop  offset="5.656110e-02" style="stop-color:#A3A3A4"/>
		<stop  offset="0.3372" style="stop-color:#919292"/>
		<stop  offset="0.3831" style="stop-color:#E0E0DF"/>
		<stop  offset="0.4519" style="stop-color:#C1C0C0"/>
		<stop  offset="0.9264" style="stop-color:#E0E0DF"/>
		<stop  offset="0.9745" style="stop-color:#C1C0C0"/>
	</linearGradient>
	<path id="XMLID_17354_" fill="url(#XMLID_1005_)" d="M16.7,102.5c0,7.7,6.2,13.9,14,13.9c7.7,0,14-6.2,14-13.9
		c0-7.7-6.2-13.9-14-13.9C22.9,88.7,16.7,94.9,16.7,102.5"/>
	
		<ellipse id="XMLID_17353_" fill="none" stroke="#121212" stroke-width="0.75" stroke-miterlimit="10" cx="30.6" cy="102.5" rx="14" ry="13.9"/>
	<polygon id="XMLID_17352_" fill="#040000" points="32.3,110.4 32.3,104.2 38.5,104.2 38.5,100.8 32.3,100.8 32.3,94.7 28.9,94.7 
		28.9,100.8 22.7,100.8 22.7,104.2 28.9,104.2 28.9,110.4 	"/>
	<path id="XMLID_17349_" fill="#221714" d="M32,94.9v5.6v0.6h0.6h5.6v2.8h-5.6H32v0.6v5.6h-2.9v-5.6v-0.6h-0.6H23v-2.8h5.6h0.6v-0.6
		v-5.6H32z M28.6,100.5h-6.2v4h6.2v6.1h4v-6.1h6.2v-4h-6.2v-6.1h-4V100.5z"/>
	<rect id="XMLID_17348_" x="32" y="94.4" fill="#606062" width="0.6" height="6.7"/>
	<rect id="XMLID_17347_" x="32.1" y="100.5" fill="#606062" width="6.8" height="0.6"/>
</g>
<g id="XMLID_17327_">
	<rect id="XMLID_17345_" x="1353.5" y="0" fill="#1C1C1C" width="63.8" height="126.1"/>
	
		<rect id="XMLID_17344_" x="1353.5" y="0" transform="matrix(-1 8.753830e-11 -8.753830e-11 -1 2709.5903 126.1414)" fill="#070707" width="2.5" height="126.1"/>
	
		<linearGradient id="XMLID_1006_" gradientUnits="userSpaceOnUse" x1="-7134.0234" y1="-5333.0068" x2="-7106.1167" y2="-5333.0068" gradientTransform="matrix(-1 0 0 -1 -5733.3633 -5230.0967)">
		<stop  offset="0" style="stop-color:#FFFFFF"/>
		<stop  offset="5.656110e-02" style="stop-color:#A3A3A4"/>
		<stop  offset="0.3372" style="stop-color:#919292"/>
		<stop  offset="0.3831" style="stop-color:#E0E0DF"/>
		<stop  offset="0.4519" style="stop-color:#C1C0C0"/>
		<stop  offset="0.9264" style="stop-color:#E0E0DF"/>
		<stop  offset="0.9745" style="stop-color:#C1C0C0"/>
	</linearGradient>
	<path id="XMLID_17343_" fill="url(#XMLID_1006_)" d="M1400.7,102.9c0-7.7-6.2-13.9-14-13.9c-7.7,0-14,6.2-14,13.9
		c0,7.7,6.2,13.9,14,13.9C1394.4,116.8,1400.7,110.6,1400.7,102.9"/>
	
		<ellipse id="XMLID_17342_" fill="none" stroke="#121212" stroke-width="0.75" stroke-miterlimit="10" cx="1386.7" cy="102.9" rx="14" ry="13.9"/>
	<polygon id="XMLID_17341_" fill="#040000" points="1385,95.1 1385,101.2 1378.8,101.2 1378.8,104.6 1385,104.6 1385,110.8 
		1388.4,110.8 1388.4,104.6 1394.6,104.6 1394.6,101.2 1388.4,101.2 1388.4,95.1 	"/>
	<path id="XMLID_17338_" fill="#221714" d="M1385.3,110.5v-5.6v-0.6h-0.6h-5.6v-2.8h5.6h0.6v-0.6v-5.6h2.9v5.6v0.6h0.6h5.6v2.8h-5.6
		h-0.6v0.6v5.6H1385.3z M1388.7,104.9h6.2v-4h-6.2v-6.1h-4v6.1h-6.2v4h6.2v6.1h4V104.9z"/>
	<rect id="XMLID_17337_" x="1384.7" y="104.3" fill="#606062" width="0.6" height="6.7"/>
	<rect id="XMLID_17336_" x="1378.5" y="104.3" fill="#606062" width="6.8" height="0.6"/>
	
		<linearGradient id="XMLID_1008_" gradientUnits="userSpaceOnUse" x1="-7134.0234" y1="-5253.7266" x2="-7106.1167" y2="-5253.7266" gradientTransform="matrix(-1 0 0 -1 -5733.3633 -5230.0967)">
		<stop  offset="0" style="stop-color:#FFFFFF"/>
		<stop  offset="5.656110e-02" style="stop-color:#A3A3A4"/>
		<stop  offset="0.3372" style="stop-color:#919292"/>
		<stop  offset="0.3831" style="stop-color:#E0E0DF"/>
		<stop  offset="0.4519" style="stop-color:#C1C0C0"/>
		<stop  offset="0.9264" style="stop-color:#E0E0DF"/>
		<stop  offset="0.9745" style="stop-color:#C1C0C0"/>
	</linearGradient>
	<path id="XMLID_17335_" fill="url(#XMLID_1008_)" d="M1400.7,23.6c0-7.7-6.2-13.9-14-13.9c-7.7,0-14,6.2-14,13.9
		c0,7.7,6.2,13.9,14,13.9C1394.4,37.5,1400.7,31.3,1400.7,23.6"/>
	
		<ellipse id="XMLID_17334_" fill="none" stroke="#121212" stroke-width="0.75" stroke-miterlimit="10" cx="1386.7" cy="23.6" rx="14" ry="13.9"/>
	<polygon id="XMLID_17333_" fill="#040000" points="1385,15.8 1385,21.9 1378.8,21.9 1378.8,25.3 1385,25.3 1385,31.5 1388.4,31.5 
		1388.4,25.3 1394.6,25.3 1394.6,21.9 1388.4,21.9 1388.4,15.8 	"/>
	<path id="XMLID_17330_" fill="#221714" d="M1385.3,31.2v-5.6v-0.6h-0.6h-5.6v-2.8h5.6h0.6v-0.6v-5.6h2.9v5.6v0.6h0.6h5.6v2.8h-5.6
		h-0.6v0.6v5.6H1385.3z M1388.7,25.6h6.2v-4h-6.2v-6.1h-4v6.1h-6.2v4h6.2v6.1h4V25.6z"/>
	<rect id="XMLID_17329_" x="1384.7" y="25.1" fill="#606062" width="0.6" height="6.7"/>
	<rect id="XMLID_17328_" x="1378.5" y="25.1" fill="#606062" width="6.8" height="0.6"/>
</g>
<text id="XMLID_16813_" transform="matrix(1 0 0 1 113.1252 52.6174)" fill="#3FBC53" font-family="'MicrosoftYaHei-Bold'" font-size="18.3106px">ETHER</text>
<path id="XMLID_16810_" fill="#5680D6" d="M106.3,33.6L89.1,51.8l-0.8,0.8h7.8l3.6-3.9h7.3l-1.1,3.9h7.6l3.6-19H106.3z M109.1,44.1
	h-5.4l6.2-7.2h1.1L109.1,44.1z"/>
<g id="XMLID_16842_">
	<text transform="matrix(1 0 0 1 316.087 69.4617)" fill="#EAEAEA" font-family="'MicrosoftYaHei'" font-size="7.1488px">CONSOLE</text>
</g>
<g id="XMLID_16902_">
	<text transform="matrix(1 0 0 1 468.6331 69.4617)" fill="#EAEAEA" font-family="'MicrosoftYaHei'" font-size="7.1488px">GE0/1</text>
</g>
<g id="XMLID_16898_">
	<text transform="matrix(1 0 0 1 528.2998 69.4617)" fill="#EAEAEA" font-family="'MicrosoftYaHei'" font-size="7.1488px">GE0/2</text>
</g>
<g id="XMLID_16901_">
	<text transform="matrix(1 0 0 1 587.9664 69.4617)" fill="#EAEAEA" font-family="'MicrosoftYaHei'" font-size="7.1488px">GE0/3</text>
</g>
<g id="XMLID_16903_">
	<text transform="matrix(1 0 0 1 647.6331 69.4617)" fill="#EAEAEA" font-family="'MicrosoftYaHei'" font-size="7.1488px">GE0/4</text>
</g>
<g id="XMLID_16996_">
	<text transform="matrix(1 0 0 1 707.2998 69.4617)" fill="#EAEAEA" font-family="'MicrosoftYaHei'" font-size="7.1488px">GE0/5</text>
</g>
<g id="XMLID_17040_">
	<text transform="matrix(1 0 0 1 766.9665 69.4617)" fill="#EAEAEA" font-family="'MicrosoftYaHei'" font-size="7.1488px">GE0/6</text>
</g>
<linearGradient id="XMLID_1009_" gradientUnits="userSpaceOnUse" x1="-2183.3291" y1="-2230.2568" x2="-2174.0337" y2="-2230.2568" gradientTransform="matrix(4.489700e-11 -1 1 4.489700e-11 2457.3501 -2097.7134)">
	<stop  offset="0" style="stop-color:#FFFFFF"/>
	<stop  offset="1" style="stop-color:#7F7F7F"/>
</linearGradient>
<circle id="XMLID_16839_" fill="url(#XMLID_1009_)" cx="227.1" cy="81" r="4.6"/>
<g id="XMLID_16836_">
	<defs>
		<path id="XMLID_16837_" d="M222.9,81c0,2.3,1.9,4.2,4.2,4.2c2.3,0,4.2-1.9,4.2-4.2c0-2.3-1.9-4.2-4.2-4.2
			C224.8,76.8,222.9,78.7,222.9,81"/>
	</defs>
	<clipPath id="XMLID_1010_">
		<use xlink:href="#XMLID_16837_"  overflow="visible"/>
	</clipPath>
	
		<radialGradient id="XMLID_1011_" cx="2508.5291" cy="4753.3677" r="0.3952" gradientTransform="matrix(8.2859 0 0 8.2859 -20559.3535 -39306.4531)" gradientUnits="userSpaceOnUse">
		<stop  offset="0" style="stop-color:#FFFFFF"/>
		<stop  offset="1" style="stop-color:#8DC21F"/>
	</radialGradient>
	<rect id="XMLID_16838_" x="222.9" y="76.8" clip-path="url(#XMLID_1010_)" fill="url(#XMLID_1011_)" width="8.4" height="8.4"/>
</g>
<g id="XMLID_16832_" opacity="0.5" enable-background="new    ">
	<g id="XMLID_16833_">
		<defs>
			<rect id="XMLID_16834_" x="225.2" y="79" width="1.4" height="1.4"/>
		</defs>
		<clipPath id="XMLID_1099_">
			<use xlink:href="#XMLID_16834_"  overflow="visible"/>
		</clipPath>
		<rect id="XMLID_16835_" x="225.2" y="79" clip-path="url(#XMLID_1099_)" fill="#FFFFFF" width="1.4" height="1.4"/>
	</g>
</g>
<g id="XMLID_16828_" opacity="0.5" enable-background="new    ">
	<g id="XMLID_16829_">
		<defs>
			<rect id="XMLID_16830_" x="225.2" y="79" width="0.7" height="1.4"/>
		</defs>
		<clipPath id="XMLID_1101_">
			<use xlink:href="#XMLID_16830_"  overflow="visible"/>
		</clipPath>
		<rect id="XMLID_16831_" x="225.2" y="79" clip-path="url(#XMLID_1101_)" fill="#FFFFFF" width="0.7" height="1.4"/>
	</g>
</g>
<text id="XMLID_16827_" transform="matrix(1 0 0 1 198.4808 83.2236)" fill="#EAEAEA" font-family="'MicrosoftYaHei'" font-size="7.1488px">PWR</text>
<linearGradient id="XMLID_1102_" gradientUnits="userSpaceOnUse" x1="-2203.1155" y1="-2230.2568" x2="-2193.8201" y2="-2230.2568" gradientTransform="matrix(4.489700e-11 -1 1 4.489700e-11 2457.3501 -2097.7134)">
	<stop  offset="0" style="stop-color:#FFFFFF"/>
	<stop  offset="1" style="stop-color:#7F7F7F"/>
</linearGradient>
<circle id="XMLID_16840_" fill="url(#XMLID_1102_)" cx="227.1" cy="100.8" r="4.6"/>
<g id="XMLID_16824_">
	<defs>
		<path id="XMLID_16825_" d="M222.9,100.8c0,2.3,1.9,4.2,4.2,4.2c2.3,0,4.2-1.9,4.2-4.2c0-2.3-1.9-4.2-4.2-4.2
			C224.8,96.6,222.9,98.4,222.9,100.8"/>
	</defs>
	<clipPath id="XMLID_1104_">
		<use xlink:href="#XMLID_16825_"  overflow="visible"/>
	</clipPath>
	
		<radialGradient id="XMLID_1105_" cx="2508.5291" cy="4755.7559" r="0.3952" gradientTransform="matrix(8.2859 0 0 8.2859 -20559.3535 -39306.4531)" gradientUnits="userSpaceOnUse">
		<stop  offset="0" style="stop-color:#FFFFFF"/>
		<stop  offset="1" style="stop-color:#8DC21F"/>
	</radialGradient>
	<rect id="XMLID_16826_" x="222.9" y="96.6" clip-path="url(#XMLID_1104_)" fill="url(#XMLID_1105_)" width="8.4" height="8.4"/>
</g>
<g id="XMLID_16818_" opacity="0.5" enable-background="new    ">
	<g id="XMLID_16819_">
		<defs>
			<rect id="XMLID_16821_" x="225.2" y="98.8" width="1.4" height="1.4"/>
		</defs>
		<clipPath id="XMLID_1106_">
			<use xlink:href="#XMLID_16821_"  overflow="visible"/>
		</clipPath>
		<rect id="XMLID_16823_" x="225.2" y="98.8" clip-path="url(#XMLID_1106_)" fill="#FFFFFF" width="1.4" height="1.4"/>
	</g>
</g>
<g id="XMLID_16814_" opacity="0.5" enable-background="new    ">
	<g id="XMLID_16815_">
		<defs>
			<rect id="XMLID_16816_" x="225.2" y="98.8" width="0.7" height="1.4"/>
		</defs>
		<clipPath id="XMLID_1109_">
			<use xlink:href="#XMLID_16816_"  overflow="visible"/>
		</clipPath>
		<rect id="XMLID_16817_" x="225.2" y="98.8" clip-path="url(#XMLID_1109_)" fill="#FFFFFF" width="0.7" height="1.4"/>
	</g>
</g>
<text id="XMLID_16722_" transform="matrix(1 0 0 1 198.4286 103.0101)" fill="#EAEAEA" font-family="'MicrosoftYaHei'" font-size="7.1488px">HDD</text>
<text id="XMLID_16912_" transform="matrix(1 0 0 1 410.4324 65.7375)" fill="#CCCECC" font-family="'MicrosoftYaHei'" font-size="10px">USB</text>
<text id="XMLID_16895_" transform="matrix(1 0 0 1 1195.347 49.4862)" fill="#EAEAEA" font-family="'MicrosoftYaHei-Bold'" font-size="20px" letter-spacing="2">SCP2000S</text>
</svg>
