<?xml version="1.0" encoding="utf-8"?>
<!-- Generator: Adobe Illustrator 16.0.0, SVG Export Plug-In . SVG Version: 6.00 Build 0)  -->
<!DOCTYPE svg PUBLIC "-//W3C//DTD SVG 1.1//EN" "http://www.w3.org/Graphics/SVG/1.1/DTD/svg11.dtd">
<svg version="1.1" id="图层_1" xmlns="http://www.w3.org/2000/svg" xmlns:xlink="http://www.w3.org/1999/xlink" x="0px" y="0px"
	 width="1417.32px" height="126.14px" viewBox="0 0 1417.32 126.14" enable-background="new 0 0 1417.32 126.14"
	 xml:space="preserve">
<linearGradient id="SVGID_1_" gradientUnits="userSpaceOnUse" x1="708.6606" y1="126.1406" x2="708.6606" y2="4.882813e-004">
	<stop  offset="0" style="stop-color:#717071"/>
	<stop  offset="0.0718" style="stop-color:#F7F7F7"/>
	<stop  offset="0.4839" style="stop-color:#C8C9CA"/>
	<stop  offset="0.928" style="stop-color:#EEEEEF"/>
	<stop  offset="1" style="stop-color:#717071"/>
</linearGradient>
<rect x="-0.001" fill="url(#SVGID_1_)" width="1417.324" height="126.141"/>
<linearGradient id="SVGID_2_" gradientUnits="userSpaceOnUse" x1="708.6602" y1="126.1406" x2="708.6602" y2="-4.882813e-004">
	<stop  offset="0.0161" style="stop-color:#030000"/>
	<stop  offset="0.0322" style="stop-color:#343535"/>
	<stop  offset="0.0699" style="stop-color:#1F2020"/>
	<stop  offset="0.8118" style="stop-color:#515151"/>
	<stop  offset="0.9462" style="stop-color:#636666"/>
	<stop  offset="1" style="stop-color:#030000"/>
</linearGradient>
<rect x="70.865" y="-0.001" fill="url(#SVGID_2_)" width="1275.59" height="126.142"/>
<linearGradient id="SVGID_3_" gradientUnits="userSpaceOnUse" x1="4085.3574" y1="63.0698" x2="4156.2246" y2="63.0698" gradientTransform="matrix(1 0 0 1 -4085.3594 0)">
	<stop  offset="0" style="stop-color:#343535"/>
	<stop  offset="0.7778" style="stop-color:#343535"/>
	<stop  offset="0.8835" style="stop-color:#636666"/>
	<stop  offset="1" style="stop-color:#030000"/>
</linearGradient>
<rect x="-0.001" fill="url(#SVGID_3_)" width="70.866" height="126.14"/>
<g>
	<g>
		<path fill="#B7B6B6" d="M37,15.367c0,3.932-3.386,7.119-7.562,7.119H13.125c-4.177,0-7.563-3.188-7.563-7.119l0,0
			c0-3.931,3.386-7.117,7.563-7.117h16.314C33.615,8.25,37,11.437,37,15.367L37,15.367z"/>
		<path fill="#0E0D0D" d="M36.107,15.165c0,3.82-3.289,6.916-7.346,6.916H12.91c-4.059,0-7.348-3.096-7.348-6.916l0,0
			c0-3.82,3.289-6.915,7.348-6.915h15.851C32.818,8.25,36.107,11.345,36.107,15.165L36.107,15.165z"/>
	</g>
	<g>
		<path fill="#B7B6B6" d="M37,110.771c0,3.932-3.386,7.119-7.562,7.119H13.125c-4.177,0-7.563-3.188-7.563-7.119l0,0
			c0-3.931,3.386-7.118,7.563-7.118h16.314C33.615,103.653,37,106.841,37,110.771L37,110.771z"/>
		<path fill="#0E0D0D" d="M36.107,110.569c0,3.82-3.289,6.916-7.346,6.916H12.91c-4.059,0-7.348-3.096-7.348-6.916l0,0
			c0-3.82,3.289-6.916,7.348-6.916h15.851C32.818,103.653,36.107,106.749,36.107,110.569L36.107,110.569z"/>
	</g>
</g>
<g>
	<path fill="#AFAEAE" d="M11.015,15.368c0,5.366,4.597,9.717,10.266,9.717c5.67,0,10.267-4.351,10.267-9.717
		c0-5.367-4.596-9.718-10.267-9.718C15.612,5.65,11.015,10.001,11.015,15.368"/>
	<ellipse fill="none" stroke="#929292" stroke-miterlimit="10" cx="21.281" cy="15.368" rx="10.266" ry="9.717"/>
	<path fill="#AFAEAE" d="M13.738,15.368c0,3.942,3.378,7.14,7.542,7.14c4.167,0,7.545-3.197,7.545-7.14
		c0-3.943-3.379-7.141-7.545-7.141C17.116,8.228,13.738,11.425,13.738,15.368"/>
	<ellipse fill="none" stroke="#929292" stroke-miterlimit="10" cx="21.282" cy="15.368" rx="7.544" ry="7.14"/>
	<g>
		<g>
			<defs>
				<rect id="SVGID_4_" x="14.172" y="8.638" width="14.22" height="13.458"/>
			</defs>
			<clipPath id="SVGID_5_">
				<use xlink:href="#SVGID_4_"  overflow="visible"/>
			</clipPath>
			<path clip-path="url(#SVGID_5_)" fill="#BEBEBD" d="M14.172,15.368c0,3.716,3.183,6.728,7.108,6.728
				c3.928,0,7.112-3.012,7.112-6.728c0-3.717-3.184-6.73-7.112-6.73C17.355,8.638,14.172,11.651,14.172,15.368"/>
			<path clip-path="url(#SVGID_5_)" fill="#C0C0C0" d="M14.34,15.368c0,3.627,3.109,6.569,6.941,6.569
				c3.835,0,6.942-2.942,6.942-6.569c0-3.629-3.107-6.571-6.942-6.571C17.449,8.797,14.34,11.739,14.34,15.368"/>
			<path clip-path="url(#SVGID_5_)" fill="#C2C3C3" d="M14.507,15.368c0,3.54,3.034,6.412,6.774,6.412
				c3.743,0,6.776-2.872,6.776-6.412c0-3.542-3.033-6.413-6.776-6.413C17.541,8.955,14.507,11.826,14.507,15.368"/>
			<path clip-path="url(#SVGID_5_)" fill="#C4C5C4" d="M14.675,15.368c0,3.453,2.957,6.254,6.605,6.254
				c3.65,0,6.609-2.801,6.609-6.254c0-3.455-2.959-6.254-6.609-6.254C17.632,9.114,14.675,11.913,14.675,15.368"/>
			<path clip-path="url(#SVGID_5_)" fill="#C6C8C8" d="M14.842,15.368c0,3.364,2.884,6.096,6.439,6.096
				c3.558,0,6.441-2.731,6.441-6.096c0-3.367-2.884-6.097-6.441-6.097C17.726,9.271,14.842,12.001,14.842,15.368"/>
			<path clip-path="url(#SVGID_5_)" fill="#C9CACB" d="M15.009,15.368c0,3.278,2.808,5.936,6.271,5.936
				c3.465,0,6.274-2.657,6.274-5.936c0-3.279-2.81-5.938-6.274-5.938C17.817,9.43,15.009,12.089,15.009,15.368"/>
			<path clip-path="url(#SVGID_5_)" fill="#CBCDCD" d="M15.175,15.368c0,3.19,2.735,5.779,6.105,5.779
				c3.374,0,6.106-2.589,6.106-5.779c0-3.192-2.733-5.781-6.106-5.781C17.91,9.587,15.175,12.176,15.175,15.368"/>
			<path clip-path="url(#SVGID_5_)" fill="#CCCFD0" d="M15.342,15.368c0,3.104,2.661,5.621,5.939,5.621
				c3.28,0,5.94-2.518,5.94-5.621c0-3.105-2.66-5.621-5.94-5.621C18.003,9.747,15.342,12.263,15.342,15.368"/>
			<path clip-path="url(#SVGID_5_)" fill="#D0D2D2" d="M15.51,15.368c0,3.016,2.584,5.462,5.771,5.462
				c3.188,0,5.772-2.446,5.772-5.462c0-3.018-2.584-5.464-5.772-5.464C18.094,9.904,15.51,12.351,15.51,15.368"/>
			<path clip-path="url(#SVGID_5_)" fill="#D2D4D5" d="M15.677,15.368c0,2.928,2.51,5.304,5.604,5.304
				c3.098,0,5.605-2.376,5.605-5.304c0-2.931-2.507-5.305-5.605-5.305C18.187,10.063,15.677,12.438,15.677,15.368"/>
		</g>
	</g>
	<polygon fill="#605F5E" points="22.21,19.414 22.21,16.248 25.556,16.248 25.556,14.488 22.21,14.488 22.21,11.321 20.352,11.321 
		20.352,14.488 17.007,14.488 17.007,16.248 20.352,16.248 20.352,19.414 	"/>
	<path fill="#221714" d="M22.049,11.475v2.861v0.306h0.322h3.025v1.452h-3.025h-0.322v0.304v2.862h-1.536v-2.862v-0.304h-0.321
		h-3.024v-1.452h3.024h0.321v-0.306v-2.861H22.049z M20.193,14.336h-3.346v2.062h3.346v3.167h2.178v-3.167h3.346v-2.062h-3.346
		V11.17h-2.178V14.336z"/>
</g>
<g>
	<path fill="#AFAEAE" d="M11.015,110.772c0,5.366,4.597,9.716,10.266,9.716c5.67,0,10.267-4.35,10.267-9.716
		s-4.596-9.718-10.267-9.718C15.612,101.055,11.015,105.406,11.015,110.772"/>
	<ellipse fill="none" stroke="#929292" stroke-miterlimit="10" cx="21.281" cy="110.772" rx="10.266" ry="9.716"/>
	<path fill="#AFAEAE" d="M13.738,110.772c0,3.942,3.378,7.14,7.542,7.14c4.167,0,7.545-3.197,7.545-7.14
		c0-3.943-3.379-7.141-7.545-7.141C17.116,103.632,13.738,106.829,13.738,110.772"/>
	<ellipse fill="none" stroke="#929292" stroke-miterlimit="10" cx="21.282" cy="110.772" rx="7.544" ry="7.14"/>
	<g>
		<g>
			<defs>
				<rect id="SVGID_6_" x="14.172" y="104.043" width="14.22" height="13.458"/>
			</defs>
			<clipPath id="SVGID_7_">
				<use xlink:href="#SVGID_6_"  overflow="visible"/>
			</clipPath>
			<path clip-path="url(#SVGID_7_)" fill="#BEBEBD" d="M14.172,110.772c0,3.716,3.183,6.729,7.108,6.729
				c3.928,0,7.112-3.013,7.112-6.729c0-3.717-3.184-6.729-7.112-6.729C17.355,104.043,14.172,107.056,14.172,110.772"/>
			<path clip-path="url(#SVGID_7_)" fill="#C0C0C0" d="M14.34,110.772c0,3.627,3.109,6.569,6.941,6.569
				c3.835,0,6.942-2.942,6.942-6.569c0-3.629-3.107-6.571-6.942-6.571C17.449,104.201,14.34,107.144,14.34,110.772"/>
			<path clip-path="url(#SVGID_7_)" fill="#C2C3C3" d="M14.507,110.772c0,3.54,3.034,6.413,6.774,6.413
				c3.743,0,6.776-2.873,6.776-6.413c0-3.542-3.033-6.412-6.776-6.412C17.541,104.36,14.507,107.23,14.507,110.772"/>
			<path clip-path="url(#SVGID_7_)" fill="#C4C5C4" d="M14.675,110.772c0,3.453,2.957,6.253,6.605,6.253
				c3.65,0,6.609-2.8,6.609-6.253c0-3.454-2.959-6.254-6.609-6.254C17.632,104.519,14.675,107.318,14.675,110.772"/>
			<path clip-path="url(#SVGID_7_)" fill="#C6C8C8" d="M14.842,110.772c0,3.364,2.884,6.095,6.439,6.095
				c3.558,0,6.441-2.73,6.441-6.095c0-3.367-2.884-6.097-6.441-6.097C17.726,104.676,14.842,107.405,14.842,110.772"/>
			<path clip-path="url(#SVGID_7_)" fill="#C9CACB" d="M15.009,110.772c0,3.278,2.808,5.937,6.271,5.937
				c3.465,0,6.274-2.658,6.274-5.937c0-3.28-2.81-5.938-6.274-5.938C17.817,104.835,15.009,107.492,15.009,110.772"/>
			<path clip-path="url(#SVGID_7_)" fill="#CBCDCD" d="M15.175,110.772c0,3.19,2.735,5.779,6.105,5.779
				c3.374,0,6.106-2.589,6.106-5.779c0-3.192-2.733-5.781-6.106-5.781C17.91,104.991,15.175,107.58,15.175,110.772"/>
			<path clip-path="url(#SVGID_7_)" fill="#CCCFD0" d="M15.342,110.772c0,3.104,2.661,5.621,5.939,5.621
				c3.28,0,5.94-2.517,5.94-5.621s-2.66-5.621-5.94-5.621C18.003,105.151,15.342,107.668,15.342,110.772"/>
			<path clip-path="url(#SVGID_7_)" fill="#D0D2D2" d="M15.51,110.772c0,3.016,2.584,5.462,5.771,5.462
				c3.188,0,5.772-2.446,5.772-5.462c0-3.018-2.584-5.464-5.772-5.464C18.094,105.309,15.51,107.755,15.51,110.772"/>
			<path clip-path="url(#SVGID_7_)" fill="#D2D4D5" d="M15.677,110.772c0,2.928,2.51,5.304,5.604,5.304
				c3.098,0,5.605-2.376,5.605-5.304c0-2.931-2.507-5.305-5.605-5.305C18.187,105.468,15.677,107.842,15.677,110.772"/>
		</g>
	</g>
	<polygon fill="#605F5E" points="22.21,114.818 22.21,111.651 25.556,111.651 25.556,109.894 22.21,109.894 22.21,106.726 
		20.352,106.726 20.352,109.894 17.007,109.894 17.007,111.651 20.352,111.651 20.352,114.818 	"/>
	<path fill="#221714" d="M22.049,106.879v2.86v0.307h0.322h3.025v1.452h-3.025h-0.322v0.304v2.862h-1.536v-2.862v-0.304h-0.321
		h-3.024v-1.452h3.024h0.321v-0.307v-2.86H22.049z M20.193,109.739h-3.346v2.063h3.346v3.167h2.178v-3.167h3.346v-2.063h-3.346
		v-3.165h-2.178V109.739z"/>
</g>
<g>
	
		<linearGradient id="SVGID_8_" gradientUnits="userSpaceOnUse" x1="-5128.0117" y1="63.0698" x2="-5057.1445" y2="63.0698" gradientTransform="matrix(-1 0 0 1 -3710.6895 0)">
		<stop  offset="0" style="stop-color:#343535"/>
		<stop  offset="0.7778" style="stop-color:#343535"/>
		<stop  offset="0.8835" style="stop-color:#636666"/>
		<stop  offset="1" style="stop-color:#030000"/>
	</linearGradient>
	<rect x="1346.455" fill="url(#SVGID_8_)" width="70.867" height="126.14"/>
	<g>
		<g>
			<path fill="#B7B6B6" d="M1380.32,15.367c0,3.932,3.385,7.119,7.561,7.119h16.314c4.178,0,7.563-3.188,7.563-7.119l0,0
				c0-3.931-3.385-7.117-7.563-7.117h-16.314C1383.705,8.25,1380.32,11.437,1380.32,15.367L1380.32,15.367z"/>
			<path fill="#0E0D0D" d="M1381.213,15.165c0,3.82,3.289,6.916,7.346,6.916h15.852c4.059,0,7.348-3.096,7.348-6.916l0,0
				c0-3.82-3.289-6.915-7.348-6.915h-15.852C1384.502,8.25,1381.213,11.345,1381.213,15.165L1381.213,15.165z"/>
		</g>
		<g>
			<path fill="#B7B6B6" d="M1380.32,110.771c0,3.932,3.385,7.119,7.561,7.119h16.314c4.178,0,7.563-3.188,7.563-7.119l0,0
				c0-3.931-3.385-7.118-7.563-7.118h-16.314C1383.705,103.653,1380.32,106.841,1380.32,110.771L1380.32,110.771z"/>
			<path fill="#0E0D0D" d="M1381.213,110.569c0,3.82,3.289,6.916,7.346,6.916h15.852c4.059,0,7.348-3.096,7.348-6.916l0,0
				c0-3.82-3.289-6.916-7.348-6.916h-15.852C1384.502,103.653,1381.213,106.749,1381.213,110.569L1381.213,110.569z"/>
		</g>
	</g>
	<g>
		<g>
			<path fill="#AFAEAE" d="M1406.305,15.368c0,5.366-4.596,9.717-10.266,9.717s-10.266-4.351-10.266-9.717
				c0-5.367,4.596-9.718,10.266-9.718S1406.305,10.001,1406.305,15.368"/>
			<ellipse fill="none" stroke="#929292" stroke-miterlimit="10" cx="1396.039" cy="15.368" rx="10.266" ry="9.717"/>
			<path fill="#AFAEAE" d="M1403.582,15.368c0,3.942-3.377,7.14-7.543,7.14s-7.545-3.197-7.545-7.14
				c0-3.943,3.379-7.141,7.545-7.141S1403.582,11.425,1403.582,15.368"/>
			<ellipse fill="none" stroke="#929292" stroke-miterlimit="10" cx="1396.038" cy="15.368" rx="7.544" ry="7.14"/>
			<g>
				<g>
					<defs>
						<rect id="SVGID_9_" x="1388.928" y="8.638" width="14.221" height="13.458"/>
					</defs>
					<clipPath id="SVGID_10_">
						<use xlink:href="#SVGID_9_"  overflow="visible"/>
					</clipPath>
					<path clip-path="url(#SVGID_10_)" fill="#BEBEBD" d="M1403.148,15.368c0,3.716-3.184,6.728-7.109,6.728
						c-3.928,0-7.111-3.012-7.111-6.728c0-3.717,3.184-6.73,7.111-6.73C1399.965,8.638,1403.148,11.651,1403.148,15.368"/>
					<path clip-path="url(#SVGID_10_)" fill="#C0C0C0" d="M1402.98,15.368c0,3.627-3.109,6.569-6.941,6.569
						c-3.834,0-6.941-2.942-6.941-6.569c0-3.629,3.107-6.571,6.941-6.571C1399.871,8.797,1402.98,11.739,1402.98,15.368"/>
					<path clip-path="url(#SVGID_10_)" fill="#C2C3C3" d="M1402.814,15.368c0,3.54-3.035,6.412-6.775,6.412
						c-3.742,0-6.775-2.872-6.775-6.412c0-3.542,3.033-6.413,6.775-6.413C1399.779,8.955,1402.814,11.826,1402.814,15.368"/>
					<path clip-path="url(#SVGID_10_)" fill="#C4C5C4" d="M1402.645,15.368c0,3.453-2.957,6.254-6.605,6.254
						c-3.65,0-6.609-2.801-6.609-6.254c0-3.455,2.959-6.254,6.609-6.254C1399.688,9.114,1402.645,11.913,1402.645,15.368"/>
					<path clip-path="url(#SVGID_10_)" fill="#C6C8C8" d="M1402.479,15.368c0,3.364-2.885,6.096-6.439,6.096
						c-3.557,0-6.441-2.731-6.441-6.096c0-3.367,2.885-6.097,6.441-6.097C1399.594,9.271,1402.479,12.001,1402.479,15.368"/>
					<path clip-path="url(#SVGID_10_)" fill="#C9CACB" d="M1402.311,15.368c0,3.278-2.809,5.936-6.271,5.936
						c-3.465,0-6.273-2.657-6.273-5.936c0-3.279,2.809-5.938,6.273-5.938C1399.502,9.43,1402.311,12.089,1402.311,15.368"/>
					<path clip-path="url(#SVGID_10_)" fill="#CBCDCD" d="M1402.145,15.368c0,3.19-2.734,5.779-6.105,5.779
						c-3.373,0-6.105-2.589-6.105-5.779c0-3.192,2.732-5.781,6.105-5.781C1399.41,9.587,1402.145,12.176,1402.145,15.368"/>
					<path clip-path="url(#SVGID_10_)" fill="#CCCFD0" d="M1401.979,15.368c0,3.104-2.662,5.621-5.939,5.621
						c-3.279,0-5.939-2.518-5.939-5.621c0-3.105,2.66-5.621,5.939-5.621C1399.316,9.747,1401.979,12.263,1401.979,15.368"/>
					<path clip-path="url(#SVGID_10_)" fill="#D0D2D2" d="M1401.811,15.368c0,3.016-2.584,5.462-5.771,5.462
						s-5.771-2.446-5.771-5.462c0-3.018,2.584-5.464,5.771-5.464S1401.811,12.351,1401.811,15.368"/>
					<path clip-path="url(#SVGID_10_)" fill="#D2D4D5" d="M1401.643,15.368c0,2.928-2.51,5.304-5.604,5.304
						c-3.098,0-5.605-2.376-5.605-5.304c0-2.931,2.508-5.305,5.605-5.305C1399.133,10.063,1401.643,12.438,1401.643,15.368"/>
				</g>
			</g>
			<polygon fill="#605F5E" points="1395.109,19.414 1395.109,16.248 1391.764,16.248 1391.764,14.488 1395.109,14.488 
				1395.109,11.321 1396.969,11.321 1396.969,14.488 1400.313,14.488 1400.313,16.248 1396.969,16.248 1396.969,19.414 			"/>
			<path fill="#221714" d="M1396.807,11.475v2.861v0.306h0.32h3.025v1.452h-3.025h-0.32v0.304v2.862h-1.535v-2.862v-0.304h-0.322
				h-3.025v-1.452h3.025h0.322v-0.306v-2.861H1396.807z M1397.127,11.17h-2.178v3.166h-3.346v2.062h3.346v3.167h2.178v-3.167h3.348
				v-2.062h-3.348V11.17z"/>
		</g>
		<g>
			<path fill="#AFAEAE" d="M1406.305,110.772c0,5.366-4.596,9.716-10.266,9.716s-10.266-4.35-10.266-9.716s4.596-9.718,10.266-9.718
				S1406.305,105.406,1406.305,110.772"/>
			<ellipse fill="none" stroke="#929292" stroke-miterlimit="10" cx="1396.039" cy="110.772" rx="10.266" ry="9.716"/>
			<path fill="#AFAEAE" d="M1403.582,110.772c0,3.942-3.377,7.14-7.543,7.14s-7.545-3.197-7.545-7.14
				c0-3.943,3.379-7.141,7.545-7.141S1403.582,106.829,1403.582,110.772"/>
			<ellipse fill="none" stroke="#929292" stroke-miterlimit="10" cx="1396.038" cy="110.772" rx="7.544" ry="7.14"/>
			<g>
				<g>
					<defs>
						<rect id="SVGID_11_" x="1388.928" y="104.043" width="14.221" height="13.458"/>
					</defs>
					<clipPath id="SVGID_12_">
						<use xlink:href="#SVGID_11_"  overflow="visible"/>
					</clipPath>
					<path clip-path="url(#SVGID_12_)" fill="#BEBEBD" d="M1403.148,110.772c0,3.716-3.184,6.729-7.109,6.729
						c-3.928,0-7.111-3.013-7.111-6.729c0-3.717,3.184-6.729,7.111-6.729C1399.965,104.043,1403.148,107.056,1403.148,110.772"/>
					<path clip-path="url(#SVGID_12_)" fill="#C0C0C0" d="M1402.98,110.772c0,3.627-3.109,6.569-6.941,6.569
						c-3.834,0-6.941-2.942-6.941-6.569c0-3.629,3.107-6.571,6.941-6.571C1399.871,104.201,1402.98,107.144,1402.98,110.772"/>
					<path clip-path="url(#SVGID_12_)" fill="#C2C3C3" d="M1402.814,110.772c0,3.54-3.035,6.413-6.775,6.413
						c-3.742,0-6.775-2.873-6.775-6.413c0-3.542,3.033-6.412,6.775-6.412C1399.779,104.36,1402.814,107.23,1402.814,110.772"/>
					<path clip-path="url(#SVGID_12_)" fill="#C4C5C4" d="M1402.645,110.772c0,3.453-2.957,6.253-6.605,6.253
						c-3.65,0-6.609-2.8-6.609-6.253c0-3.454,2.959-6.254,6.609-6.254C1399.688,104.519,1402.645,107.318,1402.645,110.772"/>
					<path clip-path="url(#SVGID_12_)" fill="#C6C8C8" d="M1402.479,110.772c0,3.364-2.885,6.095-6.439,6.095
						c-3.557,0-6.441-2.73-6.441-6.095c0-3.367,2.885-6.097,6.441-6.097C1399.594,104.676,1402.479,107.405,1402.479,110.772"/>
					<path clip-path="url(#SVGID_12_)" fill="#C9CACB" d="M1402.311,110.772c0,3.278-2.809,5.937-6.271,5.937
						c-3.465,0-6.273-2.658-6.273-5.937c0-3.28,2.809-5.938,6.273-5.938C1399.502,104.835,1402.311,107.492,1402.311,110.772"/>
					<path clip-path="url(#SVGID_12_)" fill="#CBCDCD" d="M1402.145,110.772c0,3.19-2.734,5.779-6.105,5.779
						c-3.373,0-6.105-2.589-6.105-5.779c0-3.192,2.732-5.781,6.105-5.781C1399.41,104.991,1402.145,107.58,1402.145,110.772"/>
					<path clip-path="url(#SVGID_12_)" fill="#CCCFD0" d="M1401.979,110.772c0,3.104-2.662,5.621-5.939,5.621
						c-3.279,0-5.939-2.517-5.939-5.621s2.66-5.621,5.939-5.621C1399.316,105.151,1401.979,107.668,1401.979,110.772"/>
					<path clip-path="url(#SVGID_12_)" fill="#D0D2D2" d="M1401.811,110.772c0,3.016-2.584,5.462-5.771,5.462
						s-5.771-2.446-5.771-5.462c0-3.018,2.584-5.464,5.771-5.464S1401.811,107.755,1401.811,110.772"/>
					<path clip-path="url(#SVGID_12_)" fill="#D2D4D5" d="M1401.643,110.772c0,2.928-2.51,5.304-5.604,5.304
						c-3.098,0-5.605-2.376-5.605-5.304c0-2.931,2.508-5.305,5.605-5.305C1399.133,105.468,1401.643,107.842,1401.643,110.772"/>
				</g>
			</g>
			<polygon fill="#605F5E" points="1395.109,114.818 1395.109,111.651 1391.764,111.651 1391.764,109.894 1395.109,109.894 
				1395.109,106.726 1396.969,106.726 1396.969,109.894 1400.313,109.894 1400.313,111.651 1396.969,111.651 1396.969,114.818 			
				"/>
			<path fill="#221714" d="M1396.807,106.879v2.86v0.307h0.32h3.025v1.452h-3.025h-0.32v0.304v2.862h-1.535v-2.862v-0.304h-0.322
				h-3.025v-1.452h3.025h0.322v-0.307v-2.86H1396.807z M1397.127,106.574h-2.178v3.165h-3.346v2.063h3.346v3.167h2.178v-3.167h3.348
				v-2.063h-3.348V106.574z"/>
		</g>
	</g>
</g>
<g>
	<rect x="797.83" y="59.658" fill="#030000" width="170.717" height="38.575"/>
	<linearGradient id="SVGID_13_" gradientUnits="userSpaceOnUse" x1="799.9043" y1="78.9854" x2="966.4727" y2="78.9854">
		<stop  offset="0" style="stop-color:#FFFFFF"/>
		<stop  offset="0.1688" style="stop-color:#B1B4B5"/>
		<stop  offset="0.4086" style="stop-color:#E0E0DF"/>
		<stop  offset="0.7581" style="stop-color:#B1B4B5"/>
		<stop  offset="1" style="stop-color:#C2C2C2"/>
	</linearGradient>
	<rect x="799.904" y="60.405" fill="url(#SVGID_13_)" width="166.568" height="37.16"/>
</g>
<g>
	<g>
		<g>
			<rect x="926.334" y="65.087" fill="#B7B7B7" width="36.668" height="26.813"/>
			<path fill="#070404" d="M925.334,64.146h38.668v28.696h-38.668V64.146z M962.002,66.028h-34.668V90.96h34.668V66.028z"/>
		</g>
		<g>
			<polygon fill="#050001" points="928.053,78.435 928.053,77.217 929.344,77.217 929.344,73.134 936.545,73.134 936.545,69.571 
				940.238,69.571 940.238,65.66 942.176,65.66 943.315,65.66 946.023,65.66 947.069,65.66 949.102,65.66 949.102,69.571 
				952.793,69.571 952.793,73.134 959.992,73.134 959.992,77.217 961.285,77.217 961.285,78.435 959.133,78.435 959.133,83.735 
				961.285,83.735 961.285,84.778 960.055,84.778 960.055,88.516 947.069,88.516 946.023,88.516 943.315,88.516 942.176,88.516 
				929.222,88.516 929.222,84.778 928.053,84.778 928.053,83.735 930.021,83.735 930.021,78.435 			"/>
		</g>
		<g>
			<rect x="953.234" y="69.581" fill="#878887" width="7.885" height="2.884"/>
		</g>
		<g>
			<rect x="928.053" y="69.581" fill="#878887" width="7.885" height="2.884"/>
		</g>
	</g>
	<g>
		<g>
			<rect x="884.307" y="65.087" fill="#B7B7B7" width="36.668" height="26.813"/>
			<path fill="#070404" d="M883.307,64.146h38.668v28.696h-38.668V64.146z M919.975,66.028h-34.668V90.96h34.668V66.028z"/>
		</g>
		<g>
			<polygon fill="#050001" points="886.025,78.435 886.025,77.217 887.316,77.217 887.316,73.134 894.518,73.134 894.518,69.571 
				898.21,69.571 898.21,65.66 900.148,65.66 901.287,65.66 903.996,65.66 905.041,65.66 907.072,65.66 907.072,69.571 
				910.766,69.571 910.766,73.134 917.965,73.134 917.965,77.217 919.258,77.217 919.258,78.435 917.104,78.435 917.104,83.735 
				919.258,83.735 919.258,84.778 918.027,84.778 918.027,88.516 905.041,88.516 903.996,88.516 901.287,88.516 900.148,88.516 
				887.194,88.516 887.194,84.778 886.025,84.778 886.025,83.735 887.993,83.735 887.993,78.435 			"/>
		</g>
		<g>
			<rect x="911.207" y="69.581" fill="#878887" width="7.883" height="2.884"/>
		</g>
		<g>
			<rect x="886.025" y="69.581" fill="#878887" width="7.884" height="2.884"/>
		</g>
	</g>
	<g>
		<g>
			<rect x="843.117" y="65.087" fill="#B7B7B7" width="36.668" height="26.813"/>
			<path fill="#070404" d="M842.117,64.146h38.668v28.696h-38.668V64.146z M878.785,66.028h-34.668V90.96h34.668V66.028z"/>
		</g>
		<g>
			<polygon fill="#050001" points="844.834,78.435 844.834,77.217 846.127,77.217 846.127,73.134 853.328,73.134 853.328,69.571 
				857.02,69.571 857.02,65.66 858.959,65.66 860.098,65.66 862.807,65.66 863.852,65.66 865.883,65.66 865.883,69.571 
				869.575,69.571 869.575,73.134 876.775,73.134 876.775,77.217 878.068,77.217 878.068,78.435 875.916,78.435 875.916,83.735 
				878.068,83.735 878.068,84.778 876.838,84.778 876.838,88.516 863.852,88.516 862.807,88.516 860.098,88.516 858.959,88.516 
				846.004,88.516 846.004,84.778 844.834,84.778 844.834,83.735 846.803,83.735 846.803,78.435 			"/>
		</g>
		<g>
			<rect x="870.018" y="69.581" fill="#878887" width="7.883" height="2.884"/>
		</g>
		<g>
			<rect x="844.834" y="69.581" fill="#878887" width="7.885" height="2.884"/>
		</g>
	</g>
	<g>
		<g>
			<rect x="801.928" y="65.087" fill="#B7B7B7" width="36.668" height="26.813"/>
			<path fill="#070404" d="M800.928,64.146h38.668v28.696h-38.668V64.146z M837.596,66.028h-34.668V90.96h34.668V66.028z"/>
		</g>
		<g>
			<polygon fill="#050001" points="803.646,78.435 803.646,77.217 804.938,77.217 804.938,73.134 812.138,73.134 812.138,69.571 
				815.831,69.571 815.831,65.66 817.77,65.66 818.908,65.66 821.616,65.66 822.662,65.66 824.694,65.66 824.694,69.571 
				828.387,69.571 828.387,73.134 835.586,73.134 835.586,77.217 836.879,77.217 836.879,78.435 834.726,78.435 834.726,83.735 
				836.879,83.735 836.879,84.778 835.648,84.778 835.648,88.516 822.662,88.516 821.616,88.516 818.908,88.516 817.77,88.516 
				804.815,88.516 804.815,84.778 803.646,84.778 803.646,83.735 805.614,83.735 805.614,78.435 			"/>
		</g>
		<g>
			<rect x="828.828" y="69.581" fill="#878887" width="7.884" height="2.884"/>
		</g>
		<g>
			<rect x="803.646" y="69.581" fill="#878887" width="7.885" height="2.884"/>
		</g>
	</g>
</g>
<g>
	<rect x="993.729" y="59.736" fill="#030000" width="47.758" height="38.575"/>
	<linearGradient id="SVGID_14_" gradientUnits="userSpaceOnUse" x1="994.8662" y1="79.0635" x2="1039.4141" y2="79.0635">
		<stop  offset="0" style="stop-color:#FFFFFF"/>
		<stop  offset="0.1688" style="stop-color:#B1B4B5"/>
		<stop  offset="0.4086" style="stop-color:#E0E0DF"/>
		<stop  offset="0.7581" style="stop-color:#B1B4B5"/>
		<stop  offset="1" style="stop-color:#C2C2C2"/>
	</linearGradient>
	<rect x="994.866" y="60.483" fill="url(#SVGID_14_)" width="44.548" height="37.16"/>
	<g>
		<g>
			<rect x="999.275" y="65.165" fill="#B7B7B7" width="36.668" height="26.813"/>
			<path fill="#070404" d="M998.275,64.224h38.668V92.92h-38.668V64.224z M1034.943,66.106h-34.668v24.931h34.668V66.106z"/>
		</g>
		<g>
			<polygon fill="#050001" points="1000.994,78.513 1000.994,77.295 1002.285,77.295 1002.285,73.212 1009.486,73.212 
				1009.486,69.649 1013.179,69.649 1013.179,65.738 1015.117,65.738 1016.257,65.738 1018.965,65.738 1020.01,65.738 
				1022.043,65.738 1022.043,69.649 1025.734,69.649 1025.734,73.212 1032.934,73.212 1032.934,77.295 1034.227,77.295 
				1034.227,78.513 1032.074,78.513 1032.074,83.813 1034.227,83.813 1034.227,84.856 1032.996,84.856 1032.996,88.594 
				1020.01,88.594 1018.965,88.594 1016.257,88.594 1015.117,88.594 1002.163,88.594 1002.163,84.856 1000.994,84.856 
				1000.994,83.813 1002.962,83.813 1002.962,78.513 			"/>
		</g>
		<g>
			<rect x="1026.176" y="69.659" fill="#878887" width="7.885" height="2.885"/>
		</g>
		<g>
			<rect x="1000.994" y="69.659" fill="#878887" width="7.885" height="2.885"/>
		</g>
	</g>
</g>
<g>
	<rect x="1056.665" y="59.736" fill="#030000" width="47.758" height="38.575"/>
	<linearGradient id="SVGID_15_" gradientUnits="userSpaceOnUse" x1="1057.8018" y1="79.0635" x2="1102.3496" y2="79.0635">
		<stop  offset="0" style="stop-color:#FFFFFF"/>
		<stop  offset="0.1688" style="stop-color:#B1B4B5"/>
		<stop  offset="0.4086" style="stop-color:#E0E0DF"/>
		<stop  offset="0.7581" style="stop-color:#B1B4B5"/>
		<stop  offset="1" style="stop-color:#C2C2C2"/>
	</linearGradient>
	<rect x="1057.802" y="60.483" fill="url(#SVGID_15_)" width="44.548" height="37.16"/>
	<g>
		<g>
			<rect x="1062.211" y="65.165" fill="#B7B7B7" width="36.668" height="26.813"/>
			<path fill="#070404" d="M1061.211,64.224h38.668V92.92h-38.668V64.224z M1097.879,66.106h-34.668v24.931h34.668V66.106z"/>
		</g>
		<g>
			<polygon fill="#050001" points="1063.93,78.513 1063.93,77.295 1065.221,77.295 1065.221,73.212 1072.422,73.212 
				1072.422,69.649 1076.114,69.649 1076.114,65.738 1078.053,65.738 1079.191,65.738 1081.9,65.738 1082.945,65.738 
				1084.979,65.738 1084.979,69.649 1088.67,69.649 1088.67,73.212 1095.869,73.212 1095.869,77.295 1097.162,77.295 
				1097.162,78.513 1095.01,78.513 1095.01,83.813 1097.162,83.813 1097.162,84.856 1095.932,84.856 1095.932,88.594 
				1082.945,88.594 1081.9,88.594 1079.191,88.594 1078.053,88.594 1065.099,88.594 1065.099,84.856 1063.93,84.856 1063.93,83.813 
				1065.897,83.813 1065.897,78.513 			"/>
		</g>
		<g>
			<rect x="1089.111" y="69.659" fill="#878887" width="7.885" height="2.885"/>
		</g>
		<g>
			<rect x="1063.93" y="69.659" fill="#878887" width="7.884" height="2.885"/>
		</g>
	</g>
</g>
<g>
	<rect x="816.827" y="44.507" fill="#FFFFFF" width="6.884" height="6.885"/>
	<rect x="858.01" y="44.507" fill="#FFFFFF" width="6.884" height="6.885"/>
	<rect x="899.191" y="44.507" fill="#FFFFFF" width="6.885" height="6.885"/>
	<rect x="940.373" y="44.507" fill="#FFFFFF" width="6.885" height="6.885"/>
</g>
<g>
	<rect x="1123.748" y="73.869" fill="#B7B7B7" width="37.25" height="21.25"/>
	<g>
		<g>
			<rect x="1125.707" y="76.024" fill="#1A1D20" width="33.336" height="16.941"/>
		</g>
		<g>
			<rect x="1129.395" y="76.022" fill="#ABAAAD" width="7.047" height="1.943"/>
		</g>
		<g>
			<rect x="1148.326" y="76.022" fill="#ABAAAD" width="7.047" height="1.943"/>
		</g>
		<g>
			<rect x="1129.57" y="80.474" fill="#5A5B55" width="25.607" height="2.803"/>
		</g>
		<g>
			<rect x="1125.705" y="81.069" fill="#ABAAAD" width="1.328" height="6.852"/>
		</g>
		<g>
			<rect x="1157.713" y="81.069" fill="#ABAAAD" width="1.33" height="6.852"/>
		</g>
		<g>
			<rect x="1129.064" y="90.81" fill="#ABAAAD" width="26.621" height="2.156"/>
		</g>
	</g>
</g>
<path fill="#FAFBFD" d="M1150.284,65.73l-1.971-1.109v0.826h-8.812h-0.785h-0.707l2-1.885c0.181-0.171,0.431-0.269,0.687-0.269
	h1.769c0.16,0.344,0.523,0.585,0.951,0.585c0.571,0,1.036-0.436,1.036-0.979c0-0.538-0.465-0.976-1.036-0.976
	c-0.512,0-0.933,0.344-1.021,0.798h-1.698c-0.416,0-0.819,0.16-1.114,0.438l-2.152,2.024c-0.178,0.169-0.418,0.263-0.67,0.263
	h-0.264h-0.699c-0.145-0.737-0.828-1.297-1.65-1.297c-0.93,0-1.681,0.706-1.681,1.58c0,0.875,0.751,1.581,1.681,1.581
	c0.822,0,1.506-0.559,1.65-1.295h0.699h0.264h1.957h0.785c0.252,0,0.486,0.093,0.666,0.26l2.061,1.94
	c0.299,0.278,0.691,0.433,1.111,0.433h1.489v0.743h1.97v-1.854h-1.97v0.54h-1.489c-0.258,0-0.498-0.094-0.682-0.267l-1.908-1.795
	h7.563v0.824L1150.284,65.73z"/>
<linearGradient id="SVGID_16_" gradientUnits="userSpaceOnUse" x1="1181.998" y1="82.2969" x2="1203.5586" y2="82.2969">
	<stop  offset="0" style="stop-color:#FFFFFF"/>
	<stop  offset="0.1688" style="stop-color:#B1B4B5"/>
	<stop  offset="0.4086" style="stop-color:#E0E0DF"/>
	<stop  offset="0.7581" style="stop-color:#B1B4B5"/>
	<stop  offset="1" style="stop-color:#C2C2C2"/>
</linearGradient>
<rect x="1181.998" y="65.869" fill="url(#SVGID_16_)" stroke="#000000" stroke-width="2.8347" stroke-miterlimit="10" width="21.561" height="32.856"/>
<polyline fill="none" stroke="#E2E2E2" stroke-miterlimit="10" points="820.262,103.632 820.262,110.569 1017.141,110.569 
	1017.141,104.043 "/>
<rect x="998.994" y="51.392" fill="#FFFFFF" width="35.949" height="3.881"/>
<rect x="1062.101" y="51.392" fill="#FFFFFF" width="35.95" height="3.881"/>
<rect x="1224.125" y="71.993" fill="#AAAAAA" width="37.488" height="1.998"/>
<rect x="1224.125" y="66.102" fill="#AAAAAA" width="37.488" height="1.999"/>
<rect x="798.852" y="7.229" fill="#AAAAAA" width="122.123" height="3.488"/>
<rect x="798.852" y="17.781" fill="#AAAAAA" width="122.123" height="3.489"/>
<rect x="1224.125" y="52.332" fill="#AAAAAA" width="18.744" height="1.999"/>
<rect x="1183.791" y="51.392" fill="#FFFFFF" width="17.975" height="3.881"/>
<rect x="1133.433" y="2.001" width="213.022" height="44.506"/>
<linearGradient id="SVGID_17_" gradientUnits="userSpaceOnUse" x1="1242.502" y1="44.5068" x2="1242.502" y2="9.765625e-004">
	<stop  offset="0" style="stop-color:#FFFFFF"/>
	<stop  offset="0.1688" style="stop-color:#B1B4B5"/>
	<stop  offset="0.4086" style="stop-color:#E0E0DF"/>
	<stop  offset="0.7581" style="stop-color:#B1B4B5"/>
	<stop  offset="1" style="stop-color:#C2C2C2"/>
</linearGradient>
<rect x="1138.549" y="0.001" fill="url(#SVGID_17_)" width="207.906" height="44.506"/>
<linearGradient id="SVGID_18_" gradientUnits="userSpaceOnUse" x1="1276.7119" y1="42.2715" x2="1276.7119" y2="9.765625e-004">
	<stop  offset="0" style="stop-color:#343535"/>
	<stop  offset="0.4283" style="stop-color:#343535"/>
	<stop  offset="0.8835" style="stop-color:#636666"/>
	<stop  offset="1" style="stop-color:#030000"/>
</linearGradient>
<path fill="url(#SVGID_18_)" d="M1209.199,0.001c0,0,22.203,10.518,28.33,42.271h106.695V0.001H1209.199z"/>
<text transform="matrix(1.2445 0 0 1 1275.8271 24.0811)" fill="#FFFFFF" font-family="'NotoSansHans-Medium-GBpc-EUC-H'" font-size="13.5923">H3C</text>
<rect x="1256.725" y="30.771" fill="#CECECE" width="69.5" height="4.5"/>
<circle fill="#636363" stroke="#000000" stroke-miterlimit="10" cx="1230.099" cy="91.921" r="7.198"/>
<circle fill="#636363" stroke="#000000" stroke-miterlimit="10" cx="1256.726" cy="92.842" r="4.888"/>
<g>
	<g>
		<g>
			<rect x="111.43" y="28.081" fill="#141209" width="45.75" height="32.031"/>
			<rect x="114.18" y="30.006" fill="#141209" width="40.25" height="28.18"/>
			<rect x="126.93" y="30.006" fill="#878888" width="14.75" height="3.431"/>
			<path fill="#878888" d="M111.43,46.956v4.75h1.75v7.479h5.25v0.927h5.125v-0.927h8.187v0.927h5.125v-0.927h8.188v0.927h5.125
				v-0.927h5.25v-7.479h1.75v-4.75h-1.75v-6.288h1.75v-4.75h-1.75v-6.912h-42.25v6.912h-1.75v4.75h1.75v6.288H111.43z
				 M115.18,31.006h38.25v26.18h-38.25V31.006z"/>
			<path fill="#141209" d="M125.869,28.946h16.871v5.552h-16.871V28.946z M140.619,31.066H127.99v1.311h12.629V31.066z"/>
		</g>
		<g>
			<rect x="158.2" y="28.081" fill="#141209" width="45.75" height="32.031"/>
			<rect x="160.95" y="30.006" fill="#141209" width="40.25" height="28.18"/>
			<rect x="173.7" y="30.006" fill="#878888" width="14.75" height="3.431"/>
			<path fill="#878888" d="M158.2,46.956v4.75h1.75v7.479h5.25v0.927h5.124v-0.927h8.188v0.927h5.125v-0.927h8.188v0.927h5.126
				v-0.927h5.25v-7.479h1.75v-4.75h-1.75v-6.288h1.75v-4.75h-1.75v-6.912h-42.25v6.912h-1.75v4.75h1.75v6.288H158.2z M161.95,31.006
				h38.25v26.18h-38.25V31.006z"/>
			<path fill="#141209" d="M172.638,28.946h16.872v5.552h-16.872V28.946z M187.388,31.066H174.76v1.311h12.628V31.066z"/>
		</g>
		<g>
			<rect x="204.97" y="28.081" fill="#141209" width="45.75" height="32.031"/>
			<rect x="207.72" y="30.006" fill="#141209" width="40.25" height="28.18"/>
			<rect x="220.47" y="30.006" fill="#878888" width="14.75" height="3.431"/>
			<path fill="#878888" d="M204.97,46.956v4.75h1.75v7.479h5.25v0.927h5.125v-0.927h8.187v0.927h5.125v-0.927h8.188v0.927h5.125
				v-0.927h5.25v-7.479h1.75v-4.75h-1.75v-6.288h1.75v-4.75h-1.75v-6.912h-42.25v6.912h-1.75v4.75h1.75v6.288H204.97z
				 M208.72,31.006h38.25v26.18h-38.25V31.006z"/>
			<path fill="#141209" d="M219.408,28.946h16.871v5.552h-16.871V28.946z M234.158,31.066h-12.629v1.311h12.629V31.066z"/>
		</g>
		<g>
			<rect x="251.74" y="28.081" fill="#141209" width="45.75" height="32.031"/>
			<rect x="254.49" y="30.006" fill="#141209" width="40.25" height="28.18"/>
			<rect x="267.24" y="30.006" fill="#878888" width="14.75" height="3.431"/>
			<path fill="#878888" d="M251.74,46.956v4.75h1.75v7.479h5.25v0.927h5.124v-0.927h8.188v0.927h5.125v-0.927h8.188v0.927h5.126
				v-0.927h5.25v-7.479h1.75v-4.75h-1.75v-6.288h1.75v-4.75h-1.75v-6.912h-42.25v6.912h-1.75v4.75h1.75v6.288H251.74z
				 M255.49,31.006h38.25v26.18h-38.25V31.006z"/>
			<path fill="#141209" d="M266.178,28.946h16.872v5.552h-16.872V28.946z M280.928,31.066h-12.628v1.311h12.628V31.066z"/>
		</g>
		<g>
			<rect x="298.509" y="28.081" fill="#141209" width="45.75" height="32.031"/>
			<rect x="301.259" y="30.006" fill="#141209" width="40.25" height="28.18"/>
			<rect x="314.009" y="30.006" fill="#878888" width="14.75" height="3.431"/>
			<path fill="#878888" d="M298.509,46.956v4.75h1.75v7.479h5.25v0.927h5.125v-0.927h8.187v0.927h5.125v-0.927h8.188v0.927h5.125
				v-0.927h5.25v-7.479h1.75v-4.75h-1.75v-6.288h1.75v-4.75h-1.75v-6.912h-42.25v6.912h-1.75v4.75h1.75v6.288H298.509z
				 M302.259,31.006h38.25v26.18h-38.25V31.006z"/>
			<path fill="#141209" d="M312.948,28.946h16.871v5.552h-16.871V28.946z M327.698,31.066h-12.629v1.311h12.629V31.066z"/>
		</g>
		<g>
			<rect x="345.279" y="28.081" fill="#141209" width="45.75" height="32.031"/>
			<rect x="348.029" y="30.006" fill="#141209" width="40.25" height="28.18"/>
			<rect x="360.779" y="30.006" fill="#878888" width="14.75" height="3.431"/>
			<path fill="#878888" d="M345.279,46.956v4.75h1.75v7.479h5.25v0.927h5.124v-0.927h8.188v0.927h5.125v-0.927h8.188v0.927h5.126
				v-0.927h5.25v-7.479h1.75v-4.75h-1.75v-6.288h1.75v-4.75h-1.75v-6.912h-42.25v6.912h-1.75v4.75h1.75v6.288H345.279z
				 M349.029,31.006h38.25v26.18h-38.25V31.006z"/>
			<path fill="#141209" d="M359.717,28.946h16.871v5.552h-16.871V28.946z M374.467,31.066h-12.629v1.311h12.629V31.066z"/>
		</g>
	</g>
	<g>
		<g>
			<rect x="111.484" y="67.048" fill="#141209" width="45.75" height="32.031"/>
			<rect x="114.234" y="68.973" fill="#141209" width="40.25" height="28.18"/>
			<rect x="126.984" y="68.973" fill="#878888" width="14.75" height="3.431"/>
			<path fill="#878888" d="M111.484,85.923v4.75h1.75v7.479h5.25v0.927h5.125v-0.927h8.187v0.927h5.125v-0.927h8.188v0.927h5.125
				v-0.927h5.25v-7.479h1.75v-4.75h-1.75v-6.288h1.75v-4.75h-1.75v-6.912h-42.25v6.912h-1.75v4.75h1.75v6.288H111.484z
				 M115.234,69.973h38.25v26.18h-38.25V69.973z"/>
			<path fill="#141209" d="M125.922,67.913h16.871v5.552h-16.871V67.913z M140.672,70.033h-12.629v1.311h12.629V70.033z"/>
		</g>
		<g>
			<rect x="158.254" y="67.048" fill="#141209" width="45.75" height="32.031"/>
			<rect x="161.004" y="68.973" fill="#141209" width="40.25" height="28.18"/>
			<rect x="173.754" y="68.973" fill="#878888" width="14.75" height="3.431"/>
			<path fill="#878888" d="M158.254,85.923v4.75h1.75v7.479h5.25v0.927h5.124v-0.927h8.187v0.927h5.125v-0.927h8.188v0.927h5.126
				v-0.927h5.25v-7.479h1.75v-4.75h-1.75v-6.288h1.75v-4.75h-1.75v-6.912h-42.25v6.912h-1.75v4.75h1.75v6.288H158.254z
				 M162.004,69.973h38.25v26.18h-38.25V69.973z"/>
			<path fill="#141209" d="M172.692,67.913h16.872v5.552h-16.872V67.913z M187.442,70.033h-12.628v1.311h12.628V70.033z"/>
		</g>
		<g>
			<rect x="205.023" y="67.048" fill="#141209" width="45.75" height="32.031"/>
			<rect x="207.773" y="68.973" fill="#141209" width="40.25" height="28.18"/>
			<rect x="220.523" y="68.973" fill="#878888" width="14.75" height="3.431"/>
			<path fill="#878888" d="M205.023,85.923v4.75h1.75v7.479h5.25v0.927h5.125v-0.927h8.187v0.927h5.125v-0.927h8.188v0.927h5.125
				v-0.927h5.25v-7.479h1.75v-4.75h-1.75v-6.288h1.75v-4.75h-1.75v-6.912h-42.25v6.912h-1.75v4.75h1.75v6.288H205.023z
				 M208.773,69.973h38.25v26.18h-38.25V69.973z"/>
			<path fill="#141209" d="M219.462,67.913h16.871v5.552h-16.871V67.913z M234.212,70.033h-12.629v1.311h12.629V70.033z"/>
		</g>
		<g>
			<rect x="251.793" y="67.048" fill="#141209" width="45.75" height="32.031"/>
			<rect x="254.543" y="68.973" fill="#141209" width="40.25" height="28.18"/>
			<rect x="267.293" y="68.973" fill="#878888" width="14.75" height="3.431"/>
			<path fill="#878888" d="M251.793,85.923v4.75h1.75v7.479h5.25v0.927h5.124v-0.927h8.188v0.927h5.125v-0.927h8.188v0.927h5.126
				v-0.927h5.25v-7.479h1.75v-4.75h-1.75v-6.288h1.75v-4.75h-1.75v-6.912h-42.25v6.912h-1.75v4.75h1.75v6.288H251.793z
				 M255.543,69.973h38.25v26.18h-38.25V69.973z"/>
			<path fill="#141209" d="M266.231,67.913h16.872v5.552h-16.872V67.913z M280.981,70.033h-12.628v1.311h12.628V70.033z"/>
		</g>
		<g>
			<rect x="298.563" y="67.048" fill="#141209" width="45.75" height="32.031"/>
			<rect x="301.313" y="68.973" fill="#141209" width="40.25" height="28.18"/>
			<rect x="314.063" y="68.973" fill="#878888" width="14.75" height="3.431"/>
			<path fill="#878888" d="M298.563,85.923v4.75h1.75v7.479h5.25v0.927h5.125v-0.927h8.187v0.927H324v-0.927h8.188v0.927h5.125
				v-0.927h5.25v-7.479h1.75v-4.75h-1.75v-6.288h1.75v-4.75h-1.75v-6.912h-42.25v6.912h-1.75v4.75h1.75v6.288H298.563z
				 M302.313,69.973h38.25v26.18h-38.25V69.973z"/>
			<path fill="#141209" d="M313.001,67.913h16.871v5.552h-16.871V67.913z M327.751,70.033h-12.629v1.311h12.629V70.033z"/>
		</g>
		<g>
			<rect x="345.333" y="67.048" fill="#141209" width="45.75" height="32.031"/>
			<rect x="348.083" y="68.973" fill="#141209" width="40.25" height="28.18"/>
			<rect x="360.833" y="68.973" fill="#878888" width="14.75" height="3.431"/>
			<path fill="#878888" d="M345.333,85.923v4.75h1.75v7.479h5.25v0.927h5.124v-0.927h8.188v0.927h5.125v-0.927h8.188v0.927h5.126
				v-0.927h5.25v-7.479h1.75v-4.75h-1.75v-6.288h1.75v-4.75h-1.75v-6.912h-42.25v6.912h-1.75v4.75h1.75v6.288H345.333z
				 M349.083,69.973h38.25v26.18h-38.25V69.973z"/>
			<path fill="#141209" d="M359.771,67.913h16.872v5.552h-16.872V67.913z M374.521,70.033h-12.628v1.311h12.628V70.033z"/>
		</g>
	</g>
</g>
<g>
	<g>
		<g>
			<rect x="506.512" y="28.081" fill="#141209" width="45.75" height="32.031"/>
			<rect x="509.262" y="30.006" fill="#141209" width="40.25" height="28.18"/>
			<rect x="522.012" y="30.006" fill="#878888" width="14.75" height="3.431"/>
			<path fill="#878888" d="M506.512,46.956v4.75h1.75v7.479h5.25v0.927h5.124v-0.927h8.188v0.927h5.125v-0.927h8.188v0.927h5.126
				v-0.927h5.25v-7.479h1.75v-4.75h-1.75v-6.288h1.75v-4.75h-1.75v-6.912h-42.25v6.912h-1.75v4.75h1.75v6.288H506.512z
				 M510.262,31.006h38.25v26.18h-38.25V31.006z"/>
			<path fill="#141209" d="M520.95,28.946h16.872v5.552H520.95V28.946z M535.7,31.066h-12.628v1.311H535.7V31.066z"/>
		</g>
		<g>
			<rect x="553.281" y="28.081" fill="#141209" width="45.75" height="32.031"/>
			<rect x="556.031" y="30.006" fill="#141209" width="40.25" height="28.18"/>
			<rect x="568.781" y="30.006" fill="#878888" width="14.75" height="3.431"/>
			<path fill="#878888" d="M553.281,46.956v4.75h1.75v7.479h5.25v0.927h5.125v-0.927h8.187v0.927h5.125v-0.927h8.188v0.927h5.125
				v-0.927h5.25v-7.479h1.75v-4.75h-1.75v-6.288h1.75v-4.75h-1.75v-6.912h-42.25v6.912h-1.75v4.75h1.75v6.288H553.281z
				 M557.031,31.006h38.25v26.18h-38.25V31.006z"/>
			<path fill="#141209" d="M567.72,28.946h16.871v5.552H567.72V28.946z M582.47,31.066h-12.629v1.311h12.629V31.066z"/>
		</g>
		<g>
			<rect x="600.051" y="28.081" fill="#141209" width="45.75" height="32.031"/>
			<rect x="602.801" y="30.006" fill="#141209" width="40.25" height="28.18"/>
			<rect x="615.551" y="30.006" fill="#878888" width="14.75" height="3.431"/>
			<path fill="#878888" d="M600.051,46.956v4.75h1.75v7.479h5.25v0.927h5.124v-0.927h8.188v0.927h5.125v-0.927h8.188v0.927h5.126
				v-0.927h5.25v-7.479h1.75v-4.75h-1.75v-6.288h1.75v-4.75h-1.75v-6.912h-42.25v6.912h-1.75v4.75h1.75v6.288H600.051z
				 M603.801,31.006h38.25v26.18h-38.25V31.006z"/>
			<path fill="#141209" d="M614.489,28.946h16.872v5.552h-16.872V28.946z M629.239,31.066h-12.628v1.311h12.628V31.066z"/>
		</g>
		<g>
			<rect x="646.821" y="28.081" fill="#141209" width="45.75" height="32.031"/>
			<rect x="649.571" y="30.006" fill="#141209" width="40.25" height="28.18"/>
			<rect x="662.321" y="30.006" fill="#878888" width="14.75" height="3.431"/>
			<path fill="#878888" d="M646.821,46.956v4.75h1.75v7.479h5.25v0.927h5.125v-0.927h8.187v0.927h5.125v-0.927h8.188v0.927h5.125
				v-0.927h5.25v-7.479h1.75v-4.75h-1.75v-6.288h1.75v-4.75h-1.75v-6.912h-42.25v6.912h-1.75v4.75h1.75v6.288H646.821z
				 M650.571,31.006h38.25v26.18h-38.25V31.006z"/>
			<path fill="#141209" d="M661.259,28.946h16.871v5.552h-16.871V28.946z M676.009,31.066H663.38v1.311h12.629V31.066z"/>
		</g>
		<g>
			<rect x="693.591" y="28.081" fill="#141209" width="45.75" height="32.031"/>
			<rect x="696.341" y="30.006" fill="#141209" width="40.25" height="28.18"/>
			<rect x="709.091" y="30.006" fill="#878888" width="14.75" height="3.431"/>
			<path fill="#878888" d="M693.591,46.956v4.75h1.75v7.479h5.25v0.927h5.124v-0.927h8.188v0.927h5.125v-0.927h8.188v0.927h5.126
				v-0.927h5.25v-7.479h1.75v-4.75h-1.75v-6.288h1.75v-4.75h-1.75v-6.912h-42.25v6.912h-1.75v4.75h1.75v6.288H693.591z
				 M697.341,31.006h38.25v26.18h-38.25V31.006z"/>
			<path fill="#141209" d="M708.029,28.946H724.9v5.552h-16.872V28.946z M722.779,31.066H710.15v1.311h12.629V31.066z"/>
		</g>
		<g>
			<rect x="740.36" y="28.081" fill="#141209" width="45.75" height="32.031"/>
			<rect x="743.11" y="30.006" fill="#141209" width="40.25" height="28.18"/>
			<rect x="755.86" y="30.006" fill="#878888" width="14.75" height="3.431"/>
			<path fill="#878888" d="M740.36,46.956v4.75h1.75v7.479h5.25v0.927h5.124v-0.927h8.188v0.927h5.125v-0.927h8.188v0.927h5.126
				v-0.927h5.25v-7.479h1.75v-4.75h-1.75v-6.288h1.75v-4.75h-1.75v-6.912h-42.25v6.912h-1.75v4.75h1.75v6.288H740.36z
				 M744.11,31.006h38.25v26.18h-38.25V31.006z"/>
			<path fill="#141209" d="M754.799,28.946h16.871v5.552h-16.871V28.946z M769.549,31.066H756.92v1.311h12.629V31.066z"/>
		</g>
	</g>
	<g>
		<g>
			<rect x="506.565" y="67.048" fill="#141209" width="45.75" height="32.031"/>
			<rect x="509.315" y="68.973" fill="#141209" width="40.25" height="28.18"/>
			<rect x="522.065" y="68.973" fill="#878888" width="14.75" height="3.431"/>
			<path fill="#878888" d="M506.565,85.923v4.75h1.75v7.479h5.25v0.927h5.124v-0.927h8.187v0.927h5.125v-0.927h8.188v0.927h5.126
				v-0.927h5.25v-7.479h1.75v-4.75h-1.75v-6.288h1.75v-4.75h-1.75v-6.912h-42.25v6.912h-1.75v4.75h1.75v6.288H506.565z
				 M510.315,69.973h38.25v26.18h-38.25V69.973z"/>
			<path fill="#141209" d="M521.003,67.913h16.872v5.552h-16.872V67.913z M535.753,70.033h-12.628v1.311h12.628V70.033z"/>
		</g>
		<g>
			<rect x="553.335" y="67.048" fill="#141209" width="45.75" height="32.031"/>
			<rect x="556.085" y="68.973" fill="#141209" width="40.25" height="28.18"/>
			<rect x="568.835" y="68.973" fill="#878888" width="14.75" height="3.431"/>
			<path fill="#878888" d="M553.335,85.923v4.75h1.75v7.479h5.25v0.927h5.125v-0.927h8.187v0.927h5.125v-0.927h8.188v0.927h5.125
				v-0.927h5.25v-7.479h1.75v-4.75h-1.75v-6.288h1.75v-4.75h-1.75v-6.912h-42.25v6.912h-1.75v4.75h1.75v6.288H553.335z
				 M557.085,69.973h38.25v26.18h-38.25V69.973z"/>
			<path fill="#141209" d="M567.773,67.913h16.871v5.552h-16.871V67.913z M582.523,70.033h-12.629v1.311h12.629V70.033z"/>
		</g>
		<g>
			<rect x="600.105" y="67.048" fill="#141209" width="45.75" height="32.031"/>
			<rect x="602.855" y="68.973" fill="#141209" width="40.25" height="28.18"/>
			<rect x="615.605" y="68.973" fill="#878888" width="14.75" height="3.431"/>
			<path fill="#878888" d="M600.105,85.923v4.75h1.75v7.479h5.25v0.927h5.124v-0.927h8.188v0.927h5.125v-0.927h8.188v0.927h5.126
				v-0.927h5.25v-7.479h1.75v-4.75h-1.75v-6.288h1.75v-4.75h-1.75v-6.912h-42.25v6.912h-1.75v4.75h1.75v6.288H600.105z
				 M603.855,69.973h38.25v26.18h-38.25V69.973z"/>
			<path fill="#141209" d="M614.543,67.913h16.871v5.552h-16.871V67.913z M629.293,70.033h-12.629v1.311h12.629V70.033z"/>
		</g>
		<g>
			<rect x="646.875" y="67.048" fill="#141209" width="45.75" height="32.031"/>
			<rect x="649.625" y="68.973" fill="#141209" width="40.25" height="28.18"/>
			<rect x="662.375" y="68.973" fill="#878888" width="14.75" height="3.431"/>
			<path fill="#878888" d="M646.875,85.923v4.75h1.75v7.479h5.25v0.927h5.125v-0.927h8.187v0.927h5.125v-0.927h8.188v0.927h5.125
				v-0.927h5.25v-7.479h1.75v-4.75h-1.75v-6.288h1.75v-4.75h-1.75v-6.912h-42.25v6.912h-1.75v4.75h1.75v6.288H646.875z
				 M650.625,69.973h38.25v26.18h-38.25V69.973z"/>
			<path fill="#141209" d="M661.313,67.913h16.871v5.552h-16.871V67.913z M676.063,70.033h-12.629v1.311h12.629V70.033z"/>
		</g>
		<g>
			<rect x="693.645" y="67.048" fill="#141209" width="45.75" height="32.031"/>
			<rect x="696.395" y="68.973" fill="#141209" width="40.25" height="28.18"/>
			<rect x="709.145" y="68.973" fill="#878888" width="14.75" height="3.431"/>
			<path fill="#878888" d="M693.645,85.923v4.75h1.75v7.479h5.25v0.927h5.124v-0.927h8.187v0.927h5.125v-0.927h8.188v0.927h5.126
				v-0.927h5.25v-7.479h1.75v-4.75h-1.75v-6.288h1.75v-4.75h-1.75v-6.912h-42.25v6.912h-1.75v4.75h1.75v6.288H693.645z
				 M697.395,69.973h38.25v26.18h-38.25V69.973z"/>
			<path fill="#141209" d="M708.083,67.913h16.872v5.552h-16.872V67.913z M722.832,70.033h-12.628v1.311h12.628V70.033z"/>
		</g>
		<g>
			<rect x="740.414" y="67.048" fill="#141209" width="45.75" height="32.031"/>
			<rect x="743.164" y="68.973" fill="#141209" width="40.25" height="28.18"/>
			<rect x="755.914" y="68.973" fill="#878888" width="14.75" height="3.431"/>
			<path fill="#878888" d="M740.414,85.923v4.75h1.75v7.479h5.25v0.927h5.125v-0.927h8.187v0.927h5.125v-0.927h8.188v0.927h5.125
				v-0.927h5.25v-7.479h1.75v-4.75h-1.75v-6.288h1.75v-4.75h-1.75v-6.912h-42.25v6.912h-1.75v4.75h1.75v6.288H740.414z
				 M744.164,69.973h38.25v26.18h-38.25V69.973z"/>
			<path fill="#141209" d="M754.853,67.913h16.871v5.552h-16.871V67.913z M769.603,70.033h-12.629v1.311h12.629V70.033z"/>
		</g>
	</g>
</g>
<g>
	<rect x="397.3" y="37.771" width="103.39" height="7.77"/>
	<rect x="406.559" y="37.771" fill="#494949" width="1.167" height="3.885"/>
	<rect x="414.892" y="37.771" fill="#494949" width="1.167" height="3.885"/>
	<rect x="423.225" y="37.771" fill="#494949" width="1.166" height="3.885"/>
	<rect x="431.558" y="37.771" fill="#494949" width="1.167" height="3.885"/>
	<rect x="439.891" y="37.771" fill="#494949" width="1.167" height="3.885"/>
	<rect x="448.224" y="37.771" fill="#494949" width="1.167" height="3.885"/>
	<rect x="456.557" y="37.771" fill="#494949" width="1.167" height="3.885"/>
	<rect x="464.891" y="37.771" fill="#494949" width="1.167" height="3.885"/>
	<rect x="473.224" y="37.771" fill="#494949" width="1.167" height="3.885"/>
	<rect x="481.557" y="37.771" fill="#494949" width="1.167" height="3.885"/>
	<rect x="489.89" y="37.771" fill="#494949" width="1.166" height="3.885"/>
</g>
<g>
	<rect x="397.3" y="53.584" width="103.39" height="7.769"/>
	<rect x="406.559" y="53.584" fill="#494949" width="1.167" height="3.884"/>
	<rect x="414.892" y="53.584" fill="#494949" width="1.167" height="3.884"/>
	<rect x="423.225" y="53.584" fill="#494949" width="1.166" height="3.884"/>
	<rect x="431.558" y="53.584" fill="#494949" width="1.167" height="3.884"/>
	<rect x="439.891" y="53.584" fill="#494949" width="1.167" height="3.884"/>
	<rect x="448.224" y="53.584" fill="#494949" width="1.167" height="3.884"/>
	<rect x="456.557" y="53.584" fill="#494949" width="1.167" height="3.884"/>
	<rect x="464.891" y="53.584" fill="#494949" width="1.167" height="3.884"/>
	<rect x="473.224" y="53.584" fill="#494949" width="1.167" height="3.884"/>
	<rect x="481.557" y="53.584" fill="#494949" width="1.167" height="3.884"/>
	<rect x="489.89" y="53.584" fill="#494949" width="1.166" height="3.884"/>
</g>
<g>
	<rect x="397.3" y="69.396" width="103.39" height="7.77"/>
	<rect x="406.559" y="69.396" fill="#494949" width="1.167" height="3.885"/>
	<rect x="414.892" y="69.396" fill="#494949" width="1.167" height="3.885"/>
	<rect x="423.225" y="69.396" fill="#494949" width="1.166" height="3.885"/>
	<rect x="431.558" y="69.396" fill="#494949" width="1.167" height="3.885"/>
	<rect x="439.891" y="69.396" fill="#494949" width="1.167" height="3.885"/>
	<rect x="448.224" y="69.396" fill="#494949" width="1.167" height="3.885"/>
	<rect x="456.557" y="69.396" fill="#494949" width="1.167" height="3.885"/>
	<rect x="464.891" y="69.396" fill="#494949" width="1.167" height="3.885"/>
	<rect x="473.224" y="69.396" fill="#494949" width="1.167" height="3.885"/>
	<rect x="481.557" y="69.396" fill="#494949" width="1.167" height="3.885"/>
	<rect x="489.89" y="69.396" fill="#494949" width="1.166" height="3.885"/>
</g>
<g>
	<rect x="397.3" y="85.209" width="103.39" height="7.77"/>
	<rect x="406.559" y="85.209" fill="#494949" width="1.167" height="3.884"/>
	<rect x="414.892" y="85.209" fill="#494949" width="1.167" height="3.884"/>
	<rect x="423.225" y="85.209" fill="#494949" width="1.166" height="3.884"/>
	<rect x="431.558" y="85.209" fill="#494949" width="1.167" height="3.884"/>
	<rect x="439.891" y="85.209" fill="#494949" width="1.167" height="3.884"/>
	<rect x="448.224" y="85.209" fill="#494949" width="1.167" height="3.884"/>
	<rect x="456.557" y="85.209" fill="#494949" width="1.167" height="3.884"/>
	<rect x="464.891" y="85.209" fill="#494949" width="1.167" height="3.884"/>
	<rect x="473.224" y="85.209" fill="#494949" width="1.167" height="3.884"/>
	<rect x="481.557" y="85.209" fill="#494949" width="1.167" height="3.884"/>
	<rect x="489.89" y="85.209" fill="#494949" width="1.166" height="3.884"/>
</g>
</svg>
