<?xml version="1.0" encoding="utf-8"?>
<!-- Generator: Adobe Illustrator 16.0.0, SVG Export Plug-In . SVG Version: 6.00 Build 0)  -->
<!DOCTYPE svg PUBLIC "-//W3C//DTD SVG 1.1//EN" "http://www.w3.org/Graphics/SVG/1.1/DTD/svg11.dtd">
<svg version="1.1" id="图层_1" xmlns="http://www.w3.org/2000/svg" xmlns:xlink="http://www.w3.org/1999/xlink" x="0px" y="0px"
	 width="1275.59px" height="126.14px" viewBox="0 0 1275.59 126.14" enable-background="new 0 0 1275.59 126.14"
	 xml:space="preserve">
<g>
	<rect y="0" fill="#989998" width="1275.59" height="126.141"/>
</g>
<g>
	<path fill="#232323" stroke="#000000" stroke-width="0.5" stroke-miterlimit="10" d="M707.777,90.258
		c0,2.752-2.229,4.979-4.979,4.979H495.616c-2.749,0-4.979-2.227-4.979-4.979v-39.82c0-2.75,2.229-4.976,4.979-4.976h207.183
		c2.75,0,4.979,2.226,4.979,4.976V90.258z"/>
	<path fill="#333333" stroke="#000000" stroke-width="0.5" stroke-miterlimit="10" d="M695.608,84.768
		c0,1.99-1.981,3.607-4.421,3.607H507.226c-2.441,0-4.42-1.617-4.42-3.607V55.924c0-1.989,1.979-3.604,4.42-3.604h183.962
		c2.439,0,4.421,1.614,4.421,3.604V84.768z"/>
	<g>
		<g>
			<path fill="#A8A8A8" d="M508.809,70.936c0-3.896,3.155-7.049,7.051-7.049c3.894,0,7.052,3.153,7.052,7.049
				c0,3.895-3.158,7.051-7.052,7.051C511.964,77.986,508.809,74.83,508.809,70.936z"/>
		</g>
		<g>
			<path fill="#525254" d="M515.856,65.078c3.184,0,5.768,2.621,5.768,5.857s-2.584,5.857-5.768,5.857
				c-3.182,0-5.764-2.621-5.764-5.857S512.675,65.078,515.856,65.078"/>
			<path fill="#2B2B2B" d="M515.856,77.498c-3.566,0-6.468-2.945-6.468-6.563c0-3.619,2.901-6.564,6.468-6.564
				c3.569,0,6.472,2.945,6.472,6.564C522.328,74.553,519.426,77.498,515.856,77.498z M515.856,65.785
				c-2.79,0-5.059,2.314-5.059,5.15c0,2.844,2.269,5.15,5.059,5.15c2.791,0,5.062-2.307,5.062-5.15
				C520.918,68.1,518.647,65.785,515.856,65.785z"/>
		</g>
		<g>
			<polygon fill="#040000" points="517.223,68.063 515.848,69.441 514.449,68.041 512.966,69.523 514.363,70.924 512.986,72.299 
				514.492,73.803 515.869,72.428 517.268,73.826 518.752,72.344 517.352,70.945 518.729,69.566 			"/>
		</g>
	</g>
	<g>
		<g>
			<path fill="#A8A8A8" d="M532.17,70.936c0-3.896,3.156-7.049,7.052-7.049c3.893,0,7.051,3.153,7.051,7.049
				c0,3.895-3.158,7.051-7.051,7.051C535.326,77.986,532.17,74.83,532.17,70.936z"/>
		</g>
		<g>
			<path fill="#525254" d="M539.218,65.078c3.184,0,5.767,2.621,5.767,5.857s-2.583,5.857-5.767,5.857
				c-3.182,0-5.764-2.621-5.764-5.857S536.036,65.078,539.218,65.078"/>
			<path fill="#2B2B2B" d="M539.218,77.498c-3.566,0-6.468-2.945-6.468-6.563c0-3.619,2.901-6.564,6.468-6.564
				c3.569,0,6.472,2.945,6.472,6.564C545.689,74.553,542.787,77.498,539.218,77.498z M539.218,65.785
				c-2.79,0-5.059,2.314-5.059,5.15c0,2.844,2.269,5.15,5.059,5.15c2.791,0,5.062-2.307,5.062-5.15
				C544.279,68.1,542.009,65.785,539.218,65.785z"/>
		</g>
		<g>
			<polygon fill="#040000" points="540.584,68.063 539.209,69.441 537.811,68.041 536.326,69.523 537.725,70.924 536.348,72.299 
				537.854,73.803 539.23,72.428 540.629,73.826 542.113,72.344 540.713,70.945 542.09,69.566 			"/>
		</g>
	</g>
	<g>
		<g>
			<path fill="#A8A8A8" d="M555.531,70.936c0-3.896,3.155-7.049,7.051-7.049c3.894,0,7.052,3.153,7.052,7.049
				c0,3.895-3.158,7.051-7.052,7.051C558.687,77.986,555.531,74.83,555.531,70.936z"/>
		</g>
		<g>
			<path fill="#525254" d="M562.579,65.078c3.184,0,5.767,2.621,5.767,5.857s-2.583,5.857-5.767,5.857
				c-3.182,0-5.763-2.621-5.763-5.857S559.397,65.078,562.579,65.078"/>
			<path fill="#2B2B2B" d="M562.579,77.498c-3.567,0-6.468-2.945-6.468-6.563c0-3.619,2.9-6.564,6.468-6.564
				c3.569,0,6.472,2.945,6.472,6.564C569.051,74.553,566.148,77.498,562.579,77.498z M562.579,65.785
				c-2.79,0-5.059,2.314-5.059,5.15c0,2.844,2.269,5.15,5.059,5.15c2.791,0,5.061-2.307,5.061-5.15
				C567.64,68.1,565.37,65.785,562.579,65.785z"/>
		</g>
		<g>
			<polygon fill="#040000" points="563.945,68.063 562.57,69.441 561.172,68.041 559.688,69.523 561.086,70.924 559.709,72.299 
				561.215,73.803 562.592,72.428 563.99,73.826 565.475,72.344 564.074,70.945 565.451,69.566 			"/>
		</g>
	</g>
	<g>
		<g>
			<path fill="#A8A8A8" d="M578.893,70.936c0-3.896,3.155-7.049,7.052-7.049c3.893,0,7.051,3.153,7.051,7.049
				c0,3.895-3.158,7.051-7.051,7.051C582.048,77.986,578.893,74.83,578.893,70.936z"/>
		</g>
		<g>
			<path fill="#525254" d="M585.941,65.078c3.183,0,5.766,2.621,5.766,5.857s-2.583,5.857-5.766,5.857s-5.765-2.621-5.765-5.857
				S582.759,65.078,585.941,65.078"/>
			<path fill="#2B2B2B" d="M585.941,77.498c-3.567,0-6.469-2.945-6.469-6.563c0-3.619,2.901-6.564,6.469-6.564
				s6.471,2.945,6.471,6.564C592.412,74.553,589.509,77.498,585.941,77.498z M585.941,65.785c-2.791,0-5.06,2.314-5.06,5.15
				c0,2.844,2.269,5.15,5.06,5.15c2.79,0,5.06-2.307,5.06-5.15C591.001,68.1,588.731,65.785,585.941,65.785z"/>
		</g>
		<g>
			<polygon fill="#040000" points="587.307,68.063 585.932,69.441 584.533,68.041 583.049,69.523 584.447,70.924 583.07,72.299 
				584.576,73.803 585.953,72.428 587.352,73.826 588.836,72.344 587.436,70.945 588.813,69.566 			"/>
		</g>
	</g>
	<g>
		<g>
			<path fill="#A8A8A8" d="M602.254,70.936c0-3.896,3.155-7.049,7.051-7.049c3.893,0,7.052,3.153,7.052,7.049
				c0,3.895-3.159,7.051-7.052,7.051C605.409,77.986,602.254,74.83,602.254,70.936z"/>
		</g>
		<g>
			<path fill="#525254" d="M609.302,65.078c3.184,0,5.768,2.621,5.768,5.857s-2.584,5.857-5.768,5.857
				c-3.182,0-5.764-2.621-5.764-5.857S606.12,65.078,609.302,65.078"/>
			<path fill="#2B2B2B" d="M609.302,77.498c-3.566,0-6.468-2.945-6.468-6.563c0-3.619,2.901-6.564,6.468-6.564
				c3.569,0,6.472,2.945,6.472,6.564C615.773,74.553,612.871,77.498,609.302,77.498z M609.302,65.785
				c-2.79,0-5.059,2.314-5.059,5.15c0,2.844,2.269,5.15,5.059,5.15c2.791,0,5.061-2.307,5.061-5.15
				C614.362,68.1,612.093,65.785,609.302,65.785z"/>
		</g>
		<g>
			<polygon fill="#040000" points="610.668,68.063 609.293,69.441 607.895,68.041 606.41,69.523 607.809,70.924 606.432,72.299 
				607.938,73.803 609.314,72.428 610.713,73.826 612.197,72.344 610.797,70.945 612.174,69.566 			"/>
		</g>
	</g>
	<g>
		<g>
			<path fill="#A8A8A8" d="M625.615,70.936c0-3.896,3.155-7.049,7.052-7.049c3.893,0,7.051,3.153,7.051,7.049
				c0,3.895-3.158,7.051-7.051,7.051C628.771,77.986,625.615,74.83,625.615,70.936z"/>
		</g>
		<g>
			<path fill="#525254" d="M632.664,65.078c3.183,0,5.766,2.621,5.766,5.857s-2.583,5.857-5.766,5.857s-5.765-2.621-5.765-5.857
				S629.481,65.078,632.664,65.078"/>
			<path fill="#2B2B2B" d="M632.664,77.498c-3.568,0-6.469-2.945-6.469-6.563c0-3.619,2.9-6.564,6.469-6.564
				c3.567,0,6.47,2.945,6.47,6.564C639.134,74.553,636.231,77.498,632.664,77.498z M632.664,65.785c-2.791,0-5.06,2.314-5.06,5.15
				c0,2.844,2.269,5.15,5.06,5.15c2.79,0,5.06-2.307,5.06-5.15C637.724,68.1,635.454,65.785,632.664,65.785z"/>
		</g>
		<g>
			<polygon fill="#040000" points="634.029,68.063 632.654,69.441 631.256,68.041 629.771,69.523 631.17,70.924 629.793,72.299 
				631.299,73.803 632.676,72.428 634.074,73.826 635.558,72.344 634.158,70.945 635.535,69.566 			"/>
		</g>
	</g>
	<g>
		<g>
			<path fill="#A8A8A8" d="M648.977,70.936c0-3.896,3.155-7.049,7.051-7.049c3.893,0,7.052,3.153,7.052,7.049
				c0,3.895-3.159,7.051-7.052,7.051C652.132,77.986,648.977,74.83,648.977,70.936z"/>
		</g>
		<g>
			<path fill="#525254" d="M656.024,65.078c3.184,0,5.767,2.621,5.767,5.857s-2.583,5.857-5.767,5.857
				c-3.182,0-5.764-2.621-5.764-5.857S652.843,65.078,656.024,65.078"/>
			<path fill="#2B2B2B" d="M656.024,77.498c-3.566,0-6.468-2.945-6.468-6.563c0-3.619,2.901-6.564,6.468-6.564
				c3.568,0,6.472,2.945,6.472,6.564C662.496,74.553,659.593,77.498,656.024,77.498z M656.024,65.785
				c-2.79,0-5.059,2.314-5.059,5.15c0,2.844,2.269,5.15,5.059,5.15c2.791,0,5.061-2.307,5.061-5.15
				C661.085,68.1,658.815,65.785,656.024,65.785z"/>
		</g>
		<g>
			<polygon fill="#040000" points="657.391,68.063 656.016,69.441 654.617,68.041 653.133,69.523 654.531,70.924 653.154,72.299 
				654.66,73.803 656.037,72.428 657.436,73.826 658.92,72.344 657.52,70.945 658.896,69.566 			"/>
		</g>
	</g>
	<g>
		<g>
			<path fill="#A8A8A8" d="M672.338,70.936c0-3.896,3.155-7.049,7.051-7.049c3.893,0,7.052,3.153,7.052,7.049
				c0,3.895-3.159,7.051-7.052,7.051C675.493,77.986,672.338,74.83,672.338,70.936z"/>
		</g>
		<g>
			<path fill="#525254" d="M679.386,65.078c3.184,0,5.767,2.621,5.767,5.857s-2.583,5.857-5.767,5.857
				c-3.182,0-5.764-2.621-5.764-5.857S676.204,65.078,679.386,65.078"/>
			<path fill="#2B2B2B" d="M679.386,77.498c-3.567,0-6.468-2.945-6.468-6.563c0-3.619,2.9-6.564,6.468-6.564
				c3.568,0,6.472,2.945,6.472,6.564C685.857,74.553,682.954,77.498,679.386,77.498z M679.386,65.785
				c-2.791,0-5.059,2.314-5.059,5.15c0,2.844,2.268,5.15,5.059,5.15c2.79,0,5.061-2.307,5.061-5.15
				C684.446,68.1,682.176,65.785,679.386,65.785z"/>
		</g>
		<g>
			<polygon fill="#040000" points="680.752,68.063 679.377,69.441 677.979,68.041 676.494,69.523 677.893,70.924 676.516,72.299 
				678.021,73.803 679.398,72.428 680.797,73.826 682.28,72.344 680.881,70.945 682.258,69.566 			"/>
		</g>
	</g>
</g>
<g>
	<g>
		<circle fill="#A8A8A8" cx="1231.335" cy="65.078" r="7.051"/>
	</g>
	<g>
		<path fill="#525254" d="M1231.333,59.221c3.183,0,5.767,2.622,5.767,5.857c0,3.236-2.584,5.857-5.767,5.857
			s-5.764-2.621-5.764-5.857C1225.569,61.843,1228.15,59.221,1231.333,59.221"/>
		<path fill="#2B2B2B" d="M1231.333,71.641c-3.567,0-6.468-2.947-6.468-6.563c0-3.62,2.9-6.564,6.468-6.564
			c3.568,0,6.471,2.944,6.471,6.564C1237.804,68.693,1234.901,71.641,1231.333,71.641z M1231.333,59.927
			c-2.791,0-5.06,2.314-5.06,5.151c0,2.844,2.269,5.15,5.06,5.15c2.79,0,5.061-2.307,5.061-5.15
			C1236.394,62.242,1234.123,59.927,1231.333,59.927z"/>
	</g>
	<g>
		<polygon fill="#040000" points="1232.699,62.206 1231.323,63.583 1229.925,62.183 1228.441,63.666 1229.84,65.066 
			1228.463,66.441 1229.968,67.945 1231.345,66.57 1232.743,67.971 1234.228,66.486 1232.828,65.088 1234.204,63.709 		"/>
	</g>
</g>
</svg>
