<?xml version="1.0" encoding="utf-8"?>
<!-- Generator: Adobe Illustrator 21.0.0, SVG Export Plug-In . SVG Version: 6.00 Build 0)  -->
<svg version="1.1" id="图层_1" xmlns="http://www.w3.org/2000/svg" xmlns:xlink="http://www.w3.org/1999/xlink" x="0px" y="0px"
	 width="1417.3px" height="126.1px" viewBox="0 0 1417.3 126.1" enable-background="new 0 0 1417.3 126.1" xml:space="preserve">
<g id="XMLID_14966_">
	<rect id="XMLID_14983_" x="4" y="4" fill="#D1D1D1" width="1409.3" height="118.1"/>
	<path id="XMLID_14976_" fill="#38507F" d="M1409.3,8v110.1H8V8H1409.3 M1417.3,0H0v126.1h1417.3V0L1417.3,0z"/>
</g>
<rect id="XMLID_14965_" x="0" y="0" fill="#38507F" width="63.8" height="126.1"/>
<rect id="XMLID_14964_" x="61.3" y="0" fill="#070707" width="2.5" height="126.1"/>
<linearGradient id="XMLID_1003_" gradientUnits="userSpaceOnUse" x1="16.6628" y1="23.2313" x2="44.5695" y2="23.2313">
	<stop  offset="0" style="stop-color:#FFFFFF"/>
	<stop  offset="5.656110e-02" style="stop-color:#A3A3A4"/>
	<stop  offset="0.3372" style="stop-color:#919292"/>
	<stop  offset="0.3831" style="stop-color:#E0E0DF"/>
	<stop  offset="0.4519" style="stop-color:#C1C0C0"/>
	<stop  offset="0.9264" style="stop-color:#E0E0DF"/>
	<stop  offset="0.9745" style="stop-color:#C1C0C0"/>
</linearGradient>
<path id="XMLID_14963_" fill="url(#XMLID_1003_)" d="M16.7,23.2c0,7.7,6.2,13.9,14,13.9c7.7,0,14-6.2,14-13.9
	c0-7.7-6.2-13.9-14-13.9C22.9,9.4,16.7,15.6,16.7,23.2"/>
<ellipse id="XMLID_14962_" fill="none" stroke="#121212" stroke-width="0.75" stroke-miterlimit="10" cx="30.6" cy="23.2" rx="14" ry="13.9"/>
<polygon id="XMLID_14961_" fill="#040000" points="32.3,31.1 32.3,24.9 38.5,24.9 38.5,21.5 32.3,21.5 32.3,15.4 28.9,15.4 
	28.9,21.5 22.7,21.5 22.7,24.9 28.9,24.9 28.9,31.1 "/>
<path id="XMLID_14958_" fill="#221714" d="M32,15.7v5.6v0.6h0.6h5.6v2.8h-5.6H32v0.6v5.6h-2.9v-5.6v-0.6h-0.6H23v-2.8h5.6h0.6v-0.6
	v-5.6H32z M28.6,21.2h-6.2v4h6.2v6.1h4v-6.1h6.2v-4h-6.2v-6.1h-4V21.2z"/>
<rect id="XMLID_14957_" x="32" y="15.1" fill="#606062" width="0.6" height="6.7"/>
<rect id="XMLID_14956_" x="32.1" y="21.2" fill="#606062" width="6.8" height="0.6"/>
<linearGradient id="XMLID_1005_" gradientUnits="userSpaceOnUse" x1="16.6628" y1="102.5113" x2="44.5695" y2="102.5113">
	<stop  offset="0" style="stop-color:#FFFFFF"/>
	<stop  offset="5.656110e-02" style="stop-color:#A3A3A4"/>
	<stop  offset="0.3372" style="stop-color:#919292"/>
	<stop  offset="0.3831" style="stop-color:#E0E0DF"/>
	<stop  offset="0.4519" style="stop-color:#C1C0C0"/>
	<stop  offset="0.9264" style="stop-color:#E0E0DF"/>
	<stop  offset="0.9745" style="stop-color:#C1C0C0"/>
</linearGradient>
<path id="XMLID_14955_" fill="url(#XMLID_1005_)" d="M16.7,102.5c0,7.7,6.2,13.9,14,13.9c7.7,0,14-6.2,14-13.9
	c0-7.7-6.2-13.9-14-13.9C22.9,88.7,16.7,94.9,16.7,102.5"/>
<ellipse id="XMLID_14954_" fill="none" stroke="#121212" stroke-width="0.75" stroke-miterlimit="10" cx="30.6" cy="102.5" rx="14" ry="13.9"/>
<polygon id="XMLID_14953_" fill="#040000" points="32.3,110.4 32.3,104.2 38.5,104.2 38.5,100.8 32.3,100.8 32.3,94.7 28.9,94.7 
	28.9,100.8 22.7,100.8 22.7,104.2 28.9,104.2 28.9,110.4 "/>
<path id="XMLID_14950_" fill="#221714" d="M32,94.9v5.6v0.6h0.6h5.6v2.8h-5.6H32v0.6v5.6h-2.9v-5.6v-0.6h-0.6H23v-2.8h5.6h0.6v-0.6
	v-5.6H32z M28.6,100.5h-6.2v4h6.2v6.1h4v-6.1h6.2v-4h-6.2v-6.1h-4V100.5z"/>
<rect id="XMLID_14949_" x="32" y="94.4" fill="#606062" width="0.6" height="6.7"/>
<rect id="XMLID_14948_" x="32.1" y="100.5" fill="#606062" width="6.8" height="0.6"/>
<rect id="XMLID_14946_" x="1353.5" y="0" fill="#38507F" width="63.8" height="126.1"/>
<rect id="XMLID_14945_" x="1353.5" y="0" transform="matrix(-1 8.790112e-11 -8.790112e-11 -1 2709.5906 126.1414)" fill="#070707" width="2.5" height="126.1"/>
<linearGradient id="XMLID_1006_" gradientUnits="userSpaceOnUse" x1="-7210.4243" y1="-2356.0247" x2="-7182.5176" y2="-2356.0247" gradientTransform="matrix(-1 0 0 -1 -5809.7642 -2253.1147)">
	<stop  offset="0" style="stop-color:#FFFFFF"/>
	<stop  offset="5.656110e-02" style="stop-color:#A3A3A4"/>
	<stop  offset="0.3372" style="stop-color:#919292"/>
	<stop  offset="0.3831" style="stop-color:#E0E0DF"/>
	<stop  offset="0.4519" style="stop-color:#C1C0C0"/>
	<stop  offset="0.9264" style="stop-color:#E0E0DF"/>
	<stop  offset="0.9745" style="stop-color:#C1C0C0"/>
</linearGradient>
<path id="XMLID_14944_" fill="url(#XMLID_1006_)" d="M1400.7,102.9c0-7.7-6.2-13.9-14-13.9c-7.7,0-14,6.2-14,13.9
	c0,7.7,6.2,13.9,14,13.9C1394.4,116.8,1400.7,110.6,1400.7,102.9"/>
<ellipse id="XMLID_14943_" fill="none" stroke="#121212" stroke-width="0.75" stroke-miterlimit="10" cx="1386.7" cy="102.9" rx="14" ry="13.9"/>
<polygon id="XMLID_14942_" fill="#040000" points="1385,95.1 1385,101.2 1378.8,101.2 1378.8,104.6 1385,104.6 1385,110.8 
	1388.4,110.8 1388.4,104.6 1394.6,104.6 1394.6,101.2 1388.4,101.2 1388.4,95.1 "/>
<path id="XMLID_14127_" fill="#221714" d="M1385.3,110.5v-5.6v-0.6h-0.6h-5.6v-2.8h5.6h0.6v-0.6v-5.6h2.9v5.6v0.6h0.6h5.6v2.8h-5.6
	h-0.6v0.6v5.6H1385.3z M1388.7,104.9h6.2v-4h-6.2v-6.1h-4v6.1h-6.2v4h6.2v6.1h4V104.9z"/>
<rect id="XMLID_14126_" x="1384.7" y="104.3" fill="#606062" width="0.6" height="6.7"/>
<rect id="XMLID_14125_" x="1378.5" y="104.3" fill="#606062" width="6.8" height="0.6"/>
<linearGradient id="XMLID_1008_" gradientUnits="userSpaceOnUse" x1="-7210.4243" y1="-2276.7449" x2="-7182.5176" y2="-2276.7449" gradientTransform="matrix(-1 0 0 -1 -5809.7642 -2253.1147)">
	<stop  offset="0" style="stop-color:#FFFFFF"/>
	<stop  offset="5.656110e-02" style="stop-color:#A3A3A4"/>
	<stop  offset="0.3372" style="stop-color:#919292"/>
	<stop  offset="0.3831" style="stop-color:#E0E0DF"/>
	<stop  offset="0.4519" style="stop-color:#C1C0C0"/>
	<stop  offset="0.9264" style="stop-color:#E0E0DF"/>
	<stop  offset="0.9745" style="stop-color:#C1C0C0"/>
</linearGradient>
<path id="XMLID_14124_" fill="url(#XMLID_1008_)" d="M1400.7,23.6c0-7.7-6.2-13.9-14-13.9c-7.7,0-14,6.2-14,13.9
	c0,7.7,6.2,13.9,14,13.9C1394.4,37.5,1400.7,31.3,1400.7,23.6"/>
<ellipse id="XMLID_14123_" fill="none" stroke="#121212" stroke-width="0.75" stroke-miterlimit="10" cx="1386.7" cy="23.6" rx="14" ry="13.9"/>
<polygon id="XMLID_14122_" fill="#040000" points="1385,15.8 1385,21.9 1378.8,21.9 1378.8,25.3 1385,25.3 1385,31.5 1388.4,31.5 
	1388.4,25.3 1394.6,25.3 1394.6,21.9 1388.4,21.9 1388.4,15.8 "/>
<path id="XMLID_14119_" fill="#221714" d="M1385.3,31.2v-5.6v-0.6h-0.6h-5.6v-2.8h5.6h0.6v-0.6v-5.6h2.9v5.6v0.6h0.6h5.6v2.8h-5.6
	h-0.6v0.6v5.6H1385.3z M1388.7,25.6h6.2v-4h-6.2v-6.1h-4v6.1h-6.2v4h6.2v6.1h4V25.6z"/>
<rect id="XMLID_14118_" x="1384.7" y="25.1" fill="#606062" width="0.6" height="6.7"/>
<rect id="XMLID_14117_" x="1378.5" y="25.1" fill="#606062" width="6.8" height="0.6"/>
<g id="XMLID_13911_">
	
		<text id="XMLID_13917_" transform="matrix(1 0 0 1 120.4971 84.1831)" fill="#286B36" font-family="'MicrosoftYaHei-Bold'" font-size="25.3859px">ETHER</text>
	<path id="XMLID_13914_" fill="#243159" d="M111,57.8L87.2,83.1l-1.1,1.1h10.8l4.9-5.4H112l-1.5,5.4H121l4.9-26.4H111z M115,72.4
		h-7.5l8.6-10h1.6L115,72.4z"/>
</g>
<text id="XMLID_14985_" transform="matrix(1 0 0 1 444.2757 64.0144)" font-family="'MicrosoftYaHei'" font-size="6px">LAN4</text>
<text id="XMLID_14999_" transform="matrix(1 0 0 1 482.7772 64.0144)" font-family="'MicrosoftYaHei'" font-size="6px">LAN3</text>
<text id="XMLID_15012_" transform="matrix(1 0 0 1 521.2787 64.0144)" font-family="'MicrosoftYaHei'" font-size="6px">LAN2</text>
<text id="XMLID_15025_" transform="matrix(1 0 0 1 559.7802 64.0144)" font-family="'MicrosoftYaHei'" font-size="6px">LAN1</text>
<text id="XMLID_15038_" transform="matrix(1 0 0 1 598.2817 64.0144)" font-family="'MicrosoftYaHei'" font-size="6px">NSOLE</text>
<linearGradient id="XMLID_1009_" gradientUnits="userSpaceOnUse" x1="-724.8489" y1="-143.8741" x2="-715.3534" y2="-143.8741" gradientTransform="matrix(4.489700e-11 -1 1 4.489700e-11 930.6587 -647.4229)">
	<stop  offset="0" style="stop-color:#FFFFFF"/>
	<stop  offset="1" style="stop-color:#7F7F7F"/>
</linearGradient>
<circle id="XMLID_15051_" fill="url(#XMLID_1009_)" cx="786.8" cy="72.7" r="4.7"/>
<g id="XMLID_15048_">
	<defs>
		<path id="XMLID_15049_" d="M782.5,72.7c0,2.4,1.9,4.3,4.3,4.3c2.4,0,4.3-1.9,4.3-4.3c0-2.4-1.9-4.3-4.3-4.3
			C784.4,68.4,782.5,70.3,782.5,72.7"/>
	</defs>
	<clipPath id="XMLID_1010_">
		<use xlink:href="#XMLID_15049_"  overflow="visible"/>
	</clipPath>
	
		<radialGradient id="XMLID_1011_" cx="2542.4836" cy="6061.2129" r="0.4037" gradientTransform="matrix(8.2859 0 0 8.2859 -20281.0293 -50151.4492)" gradientUnits="userSpaceOnUse">
		<stop  offset="0" style="stop-color:#FFFFFF"/>
		<stop  offset="1" style="stop-color:#8DC21F"/>
	</radialGradient>
	<rect id="XMLID_15050_" x="782.5" y="68.4" clip-path="url(#XMLID_1010_)" fill="url(#XMLID_1011_)" width="8.6" height="8.6"/>
</g>
<g id="XMLID_15044_" opacity="0.5" enable-background="new    ">
	<g id="XMLID_15045_">
		<defs>
			<rect id="XMLID_15046_" x="784.9" y="70.7" width="1.4" height="1.4"/>
		</defs>
		<clipPath id="XMLID_1099_">
			<use xlink:href="#XMLID_15046_"  overflow="visible"/>
		</clipPath>
		<rect id="XMLID_15047_" x="784.9" y="70.7" clip-path="url(#XMLID_1099_)" fill="#FFFFFF" width="1.4" height="1.4"/>
	</g>
</g>
<g id="XMLID_15040_" opacity="0.5" enable-background="new    ">
	<g id="XMLID_15041_">
		<defs>
			<rect id="XMLID_15042_" x="784.9" y="70.7" width="0.7" height="1.4"/>
		</defs>
		<clipPath id="XMLID_1101_">
			<use xlink:href="#XMLID_15042_"  overflow="visible"/>
		</clipPath>
		<rect id="XMLID_15043_" x="784.9" y="70.7" clip-path="url(#XMLID_1101_)" fill="#FFFFFF" width="0.7" height="1.4"/>
	</g>
</g>
<text id="XMLID_14986_" transform="matrix(1 0 0 1 753.9568 74.8224)" font-family="'MicrosoftYaHei'" font-size="6px">POWER</text>
<linearGradient id="XMLID_1102_" gradientUnits="userSpaceOnUse" x1="-743.2786" y1="-143.8741" x2="-733.7831" y2="-143.8741" gradientTransform="matrix(4.489700e-11 -1 1 4.489700e-11 930.6587 -647.4229)">
	<stop  offset="0" style="stop-color:#FFFFFF"/>
	<stop  offset="1" style="stop-color:#7F7F7F"/>
</linearGradient>
<circle id="XMLID_15066_" fill="url(#XMLID_1102_)" cx="786.8" cy="91.1" r="4.7"/>
<g id="XMLID_15063_">
	<defs>
		<path id="XMLID_15064_" d="M782.5,91.1c0,2.4,1.9,4.3,4.3,4.3c2.4,0,4.3-1.9,4.3-4.3c0-2.4-1.9-4.3-4.3-4.3
			C784.4,86.8,782.5,88.7,782.5,91.1"/>
	</defs>
	<clipPath id="XMLID_1104_">
		<use xlink:href="#XMLID_15064_"  overflow="visible"/>
	</clipPath>
	
		<radialGradient id="XMLID_1105_" cx="2542.4836" cy="6063.4375" r="0.4037" gradientTransform="matrix(8.2859 0 0 8.2859 -20281.0293 -50151.4492)" gradientUnits="userSpaceOnUse">
		<stop  offset="0" style="stop-color:#FFFFFF"/>
		<stop  offset="1" style="stop-color:#8DC21F"/>
	</radialGradient>
	<rect id="XMLID_15065_" x="782.5" y="86.8" clip-path="url(#XMLID_1104_)" fill="url(#XMLID_1105_)" width="8.6" height="8.6"/>
</g>
<g id="XMLID_15057_" opacity="0.5" enable-background="new    ">
	<g id="XMLID_15058_">
		<defs>
			<rect id="XMLID_15060_" x="784.9" y="89.1" width="1.4" height="1.4"/>
		</defs>
		<clipPath id="XMLID_1106_">
			<use xlink:href="#XMLID_15060_"  overflow="visible"/>
		</clipPath>
		<rect id="XMLID_15062_" x="784.9" y="89.1" clip-path="url(#XMLID_1106_)" fill="#FFFFFF" width="1.4" height="1.4"/>
	</g>
</g>
<g id="XMLID_15053_" opacity="0.5" enable-background="new    ">
	<g id="XMLID_15054_">
		<defs>
			<rect id="XMLID_15055_" x="784.9" y="89.1" width="0.7" height="1.4"/>
		</defs>
		<clipPath id="XMLID_1109_">
			<use xlink:href="#XMLID_15055_"  overflow="visible"/>
		</clipPath>
		<rect id="XMLID_15056_" x="784.9" y="89.1" clip-path="url(#XMLID_1109_)" fill="#FFFFFF" width="0.7" height="1.4"/>
	</g>
</g>
<text id="XMLID_15052_" transform="matrix(1 0 0 1 753.9568 93.2521)" font-family="'MicrosoftYaHei'" font-size="6px">POWER</text>
<text id="XMLID_15039_" transform="matrix(1 0 0 1 1126.2842 86.8204)" font-family="'MicrosoftYaHei'" font-size="24px" letter-spacing="2">YD-NFT2000B</text>
</svg>
