<?xml version="1.0" encoding="utf-8"?>
<!-- Generator: Adobe Illustrator 21.0.0, SVG Export Plug-In . SVG Version: 6.00 Build 0)  -->
<svg version="1.1" id="图层_1" xmlns="http://www.w3.org/2000/svg" xmlns:xlink="http://www.w3.org/1999/xlink" x="0px" y="0px"
	 width="1275.6px" height="126.1px" viewBox="0 0 1275.6 126.1" enable-background="new 0 0 1275.6 126.1" xml:space="preserve">
<g id="XMLID_1134_">
	<rect id="XMLID_1136_" fill="#2D2D2D" width="1275.6" height="126.1"/>
</g>
<g id="XMLID_1113_">
	<path id="XMLID_1133_" fill="#AFAFAF" d="M21.8,95.5c0,4.4-3.5,7.9-7.9,7.9S6,99.8,6,95.5c0-4.4,3.5-7.9,7.9-7.9
		S21.8,91.1,21.8,95.5"/>
	<ellipse id="XMLID_1132_" fill="none" stroke="#939393" stroke-miterlimit="10" cx="13.9" cy="95.5" rx="7.9" ry="7.9"/>
	<path id="XMLID_1131_" fill="#AFAFAF" d="M19.7,95.5c0,3.2-2.6,5.8-5.8,5.8c-3.2,0-5.8-2.6-5.8-5.8c0-3.2,2.6-5.8,5.8-5.8
		C17.1,89.7,19.7,92.3,19.7,95.5"/>
	<ellipse id="XMLID_1130_" fill="none" stroke="#939393" stroke-miterlimit="10" cx="13.9" cy="95.5" rx="5.8" ry="5.8"/>
	<g id="XMLID_1118_">
		<g id="XMLID_1119_">
			<defs>
				<rect id="SVGID_57_" x="8.4" y="90" width="11" height="10.9"/>
			</defs>
			<clipPath id="SVGID_111_">
				<use xlink:href="#SVGID_57_"  overflow="visible"/>
			</clipPath>
			<path id="XMLID_1129_" clip-path="url(#SVGID_111_)" fill="#BEBFBF" d="M19.4,95.5c0,3-2.5,5.5-5.5,5.5s-5.5-2.5-5.5-5.5
				c0-3,2.5-5.5,5.5-5.5S19.4,92.5,19.4,95.5"/>
			<path id="XMLID_1128_" clip-path="url(#SVGID_111_)" fill="#C0C1C1" d="M19.3,95.5c0,3-2.4,5.3-5.4,5.3c-3,0-5.4-2.4-5.4-5.3
				c0-3,2.4-5.3,5.4-5.3C16.9,90.1,19.3,92.5,19.3,95.5"/>
			<path id="XMLID_1127_" clip-path="url(#SVGID_111_)" fill="#C3C4C4" d="M19.1,95.5c0,2.9-2.3,5.2-5.2,5.2s-5.2-2.3-5.2-5.2
				c0-2.9,2.3-5.2,5.2-5.2S19.1,92.6,19.1,95.5"/>
			<path id="XMLID_1126_" clip-path="url(#SVGID_111_)" fill="#C5C6C6" d="M19,95.5c0,2.8-2.3,5.1-5.1,5.1s-5.1-2.3-5.1-5.1
				c0-2.8,2.3-5.1,5.1-5.1S19,92.7,19,95.5"/>
			<path id="XMLID_1125_" clip-path="url(#SVGID_111_)" fill="#C7C9C9" d="M18.9,95.5c0,2.7-2.2,5-5,5c-2.7,0-5-2.2-5-5
				c0-2.7,2.2-5,5-5C16.6,90.5,18.9,92.7,18.9,95.5"/>
			<path id="XMLID_1124_" clip-path="url(#SVGID_111_)" fill="#CACBCB" d="M18.7,95.5c0,2.7-2.2,4.8-4.8,4.8s-4.8-2.2-4.8-4.8
				c0-2.7,2.2-4.8,4.8-4.8S18.7,92.8,18.7,95.5"/>
			<path id="XMLID_1123_" clip-path="url(#SVGID_111_)" fill="#CCCECE" d="M18.6,95.5c0,2.6-2.1,4.7-4.7,4.7c-2.6,0-4.7-2.1-4.7-4.7
				c0-2.6,2.1-4.7,4.7-4.7C16.5,90.8,18.6,92.9,18.6,95.5"/>
			<path id="XMLID_1122_" clip-path="url(#SVGID_111_)" fill="#CED0D0" d="M18.5,95.5c0,2.5-2,4.6-4.6,4.6c-2.5,0-4.6-2-4.6-4.6
				c0-2.5,2-4.6,4.6-4.6C16.4,90.9,18.5,93,18.5,95.5"/>
			<path id="XMLID_1121_" clip-path="url(#SVGID_111_)" fill="#D1D3D3" d="M18.4,95.5c0,2.5-2,4.4-4.4,4.4c-2.5,0-4.4-2-4.4-4.4
				c0-2.5,2-4.4,4.4-4.4C16.4,91,18.4,93,18.4,95.5"/>
			<path id="XMLID_1120_" clip-path="url(#SVGID_111_)" fill="#D3D5D5" d="M18.2,95.5c0,2.4-1.9,4.3-4.3,4.3c-2.4,0-4.3-1.9-4.3-4.3
				c0-2.4,1.9-4.3,4.3-4.3C16.3,91.2,18.2,93.1,18.2,95.5"/>
		</g>
	</g>
	<polygon id="XMLID_1117_" fill="#605F5E" points="13.2,98.8 13.2,96.2 10.6,96.2 10.6,94.8 13.2,94.8 13.2,92.2 14.6,92.2 
		14.6,94.8 17.2,94.8 17.2,96.2 14.6,96.2 14.6,98.8 	"/>
	<path id="XMLID_1114_" fill="#231815" d="M14.5,92.3v2.3v0.2h0.2h2.3v1.2h-2.3h-0.2v0.2v2.3h-1.2v-2.3v-0.2h-0.2h-2.3v-1.2h2.3h0.2
		v-0.2v-2.3H14.5z M14.7,92.1h-1.7v2.6h-2.6v1.7h2.6v2.6h1.7v-2.6h2.6v-1.7h-2.6V92.1z"/>
</g>
<polyline id="XMLID_1091_" fill="none" stroke="#DCDDDD" stroke-miterlimit="10" points="0,0 27.8,32 27.8,126.1 "/>
<g id="XMLID_1070_">
	<path id="XMLID_1090_" fill="#AFAFAF" d="M1253.8,95.5c0,4.4,3.5,7.9,7.9,7.9s7.9-3.5,7.9-7.9c0-4.4-3.5-7.9-7.9-7.9
		S1253.8,91.1,1253.8,95.5"/>
	<ellipse id="XMLID_1089_" fill="none" stroke="#939393" stroke-miterlimit="10" cx="1261.7" cy="95.5" rx="7.9" ry="7.9"/>
	<path id="XMLID_1088_" fill="#AFAFAF" d="M1255.9,95.5c0,3.2,2.6,5.8,5.8,5.8s5.8-2.6,5.8-5.8c0-3.2-2.6-5.8-5.8-5.8
		S1255.9,92.3,1255.9,95.5"/>
	<ellipse id="XMLID_1087_" fill="none" stroke="#939393" stroke-miterlimit="10" cx="1261.7" cy="95.5" rx="5.8" ry="5.8"/>
	<g id="XMLID_1075_">
		<g id="XMLID_1076_">
			<defs>
				<rect id="SVGID_55_" x="1256.2" y="90" width="11" height="10.9"/>
			</defs>
			<clipPath id="SVGID_112_">
				<use xlink:href="#SVGID_55_"  overflow="visible"/>
			</clipPath>
			<path id="XMLID_1086_" clip-path="url(#SVGID_112_)" fill="#BEBFBF" d="M1256.2,95.5c0,3,2.5,5.5,5.5,5.5s5.5-2.5,5.5-5.5
				c0-3-2.5-5.5-5.5-5.5S1256.2,92.5,1256.2,95.5"/>
			<path id="XMLID_1085_" clip-path="url(#SVGID_112_)" fill="#C0C1C1" d="M1256.3,95.5c0,3,2.4,5.3,5.4,5.3c3,0,5.4-2.4,5.4-5.3
				c0-3-2.4-5.3-5.4-5.3C1258.7,90.1,1256.3,92.5,1256.3,95.5"/>
			<path id="XMLID_1084_" clip-path="url(#SVGID_112_)" fill="#C3C4C4" d="M1256.5,95.5c0,2.9,2.3,5.2,5.2,5.2s5.2-2.3,5.2-5.2
				c0-2.9-2.3-5.2-5.2-5.2S1256.5,92.6,1256.5,95.5"/>
			<path id="XMLID_1083_" clip-path="url(#SVGID_112_)" fill="#C5C6C6" d="M1256.6,95.5c0,2.8,2.3,5.1,5.1,5.1
				c2.8,0,5.1-2.3,5.1-5.1c0-2.8-2.3-5.1-5.1-5.1C1258.9,90.4,1256.6,92.7,1256.6,95.5"/>
			<path id="XMLID_1082_" clip-path="url(#SVGID_112_)" fill="#C7C9C9" d="M1256.7,95.5c0,2.7,2.2,5,5,5c2.7,0,5-2.2,5-5
				c0-2.7-2.2-5-5-5C1258.9,90.5,1256.7,92.7,1256.7,95.5"/>
			<path id="XMLID_1081_" clip-path="url(#SVGID_112_)" fill="#CACBCB" d="M1256.9,95.5c0,2.7,2.2,4.8,4.8,4.8
				c2.7,0,4.8-2.2,4.8-4.8c0-2.7-2.2-4.8-4.8-4.8C1259,90.6,1256.9,92.8,1256.9,95.5"/>
			<path id="XMLID_1080_" clip-path="url(#SVGID_112_)" fill="#CCCECE" d="M1257,95.5c0,2.6,2.1,4.7,4.7,4.7c2.6,0,4.7-2.1,4.7-4.7
				c0-2.6-2.1-4.7-4.7-4.7C1259.1,90.8,1257,92.9,1257,95.5"/>
			<path id="XMLID_1079_" clip-path="url(#SVGID_112_)" fill="#CED0D0" d="M1257.1,95.5c0,2.5,2,4.6,4.6,4.6s4.6-2,4.6-4.6
				c0-2.5-2-4.6-4.6-4.6S1257.1,93,1257.1,95.5"/>
			<path id="XMLID_1078_" clip-path="url(#SVGID_112_)" fill="#D1D3D3" d="M1257.2,95.5c0,2.5,2,4.4,4.4,4.4c2.5,0,4.4-2,4.4-4.4
				c0-2.5-2-4.4-4.4-4.4C1259.2,91,1257.2,93,1257.2,95.5"/>
			<path id="XMLID_1077_" clip-path="url(#SVGID_112_)" fill="#D3D5D5" d="M1257.4,95.5c0,2.4,1.9,4.3,4.3,4.3
				c2.4,0,4.3-1.9,4.3-4.3c0-2.4-1.9-4.3-4.3-4.3C1259.3,91.2,1257.4,93.1,1257.4,95.5"/>
		</g>
	</g>
	<polygon id="XMLID_1074_" fill="#605F5E" points="1262.4,98.8 1262.4,96.2 1265,96.2 1265,94.8 1262.4,94.8 1262.4,92.2 1261,92.2 
		1261,94.8 1258.4,94.8 1258.4,96.2 1261,96.2 1261,98.8 	"/>
	<path id="XMLID_1071_" fill="#231815" d="M1262.3,92.3v2.3v0.2h0.2h2.3v1.2h-2.3h-0.2v0.2v2.3h-1.2v-2.3v-0.2h-0.2h-2.3v-1.2h2.3
		h0.2v-0.2v-2.3H1262.3z M1260.8,94.6h-2.6v1.7h2.6v2.6h1.7v-2.6h2.6v-1.7h-2.6v-2.6h-1.7V94.6z"/>
</g>
<polyline id="XMLID_1069_" fill="none" stroke="#DCDDDD" stroke-miterlimit="10" points="1275.6,0 1247.8,32 1247.8,126.1 "/>
<g id="XMLID_817_">
	<path id="XMLID_827_" fill="#3E3A39" d="M1201.5,82.6c0,1.6-1.3,2.8-2.8,2.8h-65.5c-1.6,0-2.8-1.3-2.8-2.8v-50
		c0-1.6,1.3-2.8,2.8-2.8h65.5c1.6,0,2.8,1.3,2.8,2.8V82.6z"/>
	<path id="XMLID_826_" fill="none" stroke="#000000" stroke-width="2" stroke-miterlimit="10" d="M1201.5,82.6
		c0,1.6-1.3,2.8-2.8,2.8h-65.5c-1.6,0-2.8-1.3-2.8-2.8v-50c0-1.6,1.3-2.8,2.8-2.8h65.5c1.6,0,2.8,1.3,2.8,2.8V82.6z"/>
	<polygon id="XMLID_825_" fill="#231815" points="1141.4,76 1141.4,48.4 1150.7,39.3 1181.5,39.3 1190.5,48.9 1190.5,76 	"/>
	<rect id="XMLID_824_" x="1177.3" y="55.4" fill="#343842" width="3.1" height="10.4"/>
	<rect id="XMLID_823_" x="1177.3" y="57.3" fill="#8D919A" width="1.6" height="8.6"/>
	<rect id="XMLID_822_" x="1163.7" y="48.9" fill="#343842" width="3.1" height="10.4"/>
	<rect id="XMLID_820_" x="1163.7" y="50.8" fill="#8D919A" width="1.6" height="8.6"/>
	<rect id="XMLID_819_" x="1150.2" y="55.4" fill="#343842" width="3.1" height="10.4"/>
	<rect id="XMLID_818_" x="1150.2" y="57.3" fill="#8D919A" width="1.6" height="8.6"/>
</g>
<g id="XMLID_810_">
	<g id="XMLID_1093_">
		<rect id="XMLID_1097_" x="68.7" y="63.1" fill="#B7B7B7" width="36.7" height="28.5"/>
		<path id="XMLID_1094_" fill="#070404" d="M106.4,92.5H67.7V62.1h38.7V92.5z M69.7,90.5h34.7V64.1H69.7V90.5z"/>
	</g>
	<g id="XMLID_815_">
		<polygon id="XMLID_1092_" fill="#050001" points="103.7,77.4 103.7,78.7 102.4,78.7 102.4,83 95.2,83 95.2,86.8 91.5,86.8 
			91.5,90.9 89.6,90.9 88.4,90.9 85.7,90.9 84.7,90.9 82.6,90.9 82.6,86.8 79,86.8 79,83 71.8,83 71.8,78.7 70.5,78.7 70.5,77.4 
			72.6,77.4 72.6,71.7 70.5,71.7 70.5,70.6 71.7,70.6 71.7,66.7 84.7,66.7 85.7,66.7 88.4,66.7 89.6,66.7 102.5,66.7 102.5,70.6 
			103.7,70.6 103.7,71.7 101.7,71.7 101.7,77.4 		"/>
	</g>
	<g id="XMLID_813_">
		<rect id="XMLID_814_" x="70.6" y="83.7" fill="#878887" width="7.9" height="3.1"/>
	</g>
	<g id="XMLID_811_">
		<rect id="XMLID_812_" x="95.8" y="83.7" fill="#878887" width="7.9" height="3.1"/>
	</g>
</g>
<g id="XMLID_802_">
	<text transform="matrix(1 0 0 1 65.3478 50.0365)" fill="#FFFFFF" font-family="'MicrosoftYaHei'" font-size="8px">CONSOLE</text>
</g>
<g id="XMLID_805_">
	<defs>
		<rect id="XMLID_804_" x="471.8" y="24" width="154.5" height="96.1"/>
	</defs>
	<clipPath id="XMLID_1003_">
		<use xlink:href="#XMLID_804_"  overflow="visible"/>
	</clipPath>
	<g id="XMLID_803_" clip-path="url(#XMLID_1003_)">
		<polygon id="XMLID_1056_" fill="#A3A3A3" points="478.9,34.4 472.6,23.5 478.9,12.6 491.5,12.6 497.8,23.5 491.5,34.4 		"/>
		<polygon id="XMLID_1055_" fill="#050505" points="479.7,35.2 473.4,24.3 479.7,13.3 492.3,13.3 498.6,24.3 492.3,35.2 		"/>
		<polygon id="XMLID_1052_" fill="#A3A3A3" points="525.3,34.4 519,23.5 525.3,12.6 537.9,12.6 544.2,23.5 537.9,34.4 		"/>
		<polygon id="XMLID_1051_" fill="#050505" points="526.1,35.2 519.8,24.3 526.1,13.3 538.7,13.3 545,24.3 538.7,35.2 		"/>
		<polygon id="XMLID_1048_" fill="#A3A3A3" points="571.7,34.4 565.4,23.5 571.7,12.6 584.3,12.6 590.6,23.5 584.3,34.4 		"/>
		<polygon id="XMLID_1047_" fill="#050505" points="572.5,35.2 566.2,24.3 572.5,13.3 585.1,13.3 591.4,24.3 585.1,35.2 		"/>
		<polygon id="XMLID_1046_" fill="#A3A3A3" points="455.7,49.1 449.4,38.2 455.7,27.3 468.3,27.3 474.6,38.2 468.3,49.1 		"/>
		<polygon id="XMLID_1045_" fill="#050505" points="456.5,49.9 450.2,39 456.5,28 469.1,28 475.4,39 469.1,49.9 		"/>
		<polygon id="XMLID_1044_" fill="#A3A3A3" points="478.9,63.7 472.6,52.8 478.9,41.8 491.5,41.8 497.8,52.8 491.5,63.7 		"/>
		<polygon id="XMLID_1043_" fill="#050505" points="479.7,64.5 473.4,53.5 479.7,42.6 492.3,42.6 498.6,53.5 492.3,64.5 		"/>
		<polygon id="XMLID_1042_" fill="#A3A3A3" points="502.1,49.1 495.8,38.2 502.1,27.3 514.7,27.3 521,38.2 514.7,49.1 		"/>
		<polygon id="XMLID_1041_" fill="#050505" points="502.9,49.9 496.6,39 502.9,28 515.5,28 521.8,39 515.5,49.9 		"/>
		<polygon id="XMLID_1040_" fill="#A3A3A3" points="525.3,63.7 519,52.8 525.3,41.8 537.9,41.8 544.2,52.8 537.9,63.7 		"/>
		<polygon id="XMLID_1039_" fill="#050505" points="526.1,64.5 519.8,53.5 526.1,42.6 538.7,42.6 545,53.5 538.7,64.5 		"/>
		<polygon id="XMLID_1038_" fill="#A3A3A3" points="548.5,49.1 542.2,38.2 548.5,27.3 561.1,27.3 567.4,38.2 561.1,49.1 		"/>
		<polygon id="XMLID_1037_" fill="#050505" points="549.3,49.9 543,39 549.3,28 561.9,28 568.2,39 561.9,49.9 		"/>
		<polygon id="XMLID_1036_" fill="#A3A3A3" points="571.7,63.7 565.4,52.8 571.7,41.8 584.3,41.8 590.6,52.8 584.3,63.7 		"/>
		<polygon id="XMLID_1035_" fill="#050505" points="572.5,64.5 566.2,53.5 572.5,42.6 585.1,42.6 591.4,53.5 585.1,64.5 		"/>
		<polygon id="XMLID_1028_" fill="#A3A3A3" points="618,34.4 611.7,23.5 618,12.6 630.6,12.6 636.9,23.5 630.6,34.4 		"/>
		<polygon id="XMLID_1027_" fill="#050505" points="618.8,35.2 612.4,24.3 618.8,13.3 631.4,13.3 637.7,24.3 631.4,35.2 		"/>
		<polygon id="XMLID_1026_" fill="#A3A3A3" points="594.8,49.1 588.5,38.2 594.8,27.3 607.4,27.3 613.7,38.2 607.4,49.1 		"/>
		<polygon id="XMLID_1025_" fill="#050505" points="595.6,49.9 589.2,39 595.6,28 608.2,28 614.5,39 608.2,49.9 		"/>
		<polygon id="XMLID_1024_" fill="#A3A3A3" points="618,63.7 611.7,52.8 618,41.8 630.6,41.8 636.9,52.8 630.6,63.7 		"/>
		<polygon id="XMLID_1023_" fill="#050505" points="618.8,64.5 612.4,53.5 618.8,42.6 631.4,42.6 637.7,53.5 631.4,64.5 		"/>
		<polygon id="XMLID_940_" fill="#A3A3A3" points="455.7,79.3 449.4,68.4 455.7,57.4 468.3,57.4 474.6,68.4 468.3,79.3 		"/>
		<polygon id="XMLID_935_" fill="#050505" points="456.5,80.1 450.2,69.1 456.5,58.2 469.1,58.2 475.4,69.1 469.1,80.1 		"/>
		<polygon id="XMLID_934_" fill="#A3A3A3" points="478.9,93.9 472.6,83 478.9,72 491.5,72 497.8,83 491.5,93.9 		"/>
		<polygon id="XMLID_930_" fill="#050505" points="479.7,94.6 473.4,83.7 479.7,72.8 492.3,72.8 498.6,83.7 492.3,94.6 		"/>
		<polygon id="XMLID_929_" fill="#A3A3A3" points="502.1,79.3 495.8,68.4 502.1,57.4 514.7,57.4 521,68.4 514.7,79.3 		"/>
		<polygon id="XMLID_928_" fill="#050505" points="502.9,80.1 496.6,69.1 502.9,58.2 515.5,58.2 521.8,69.1 515.5,80.1 		"/>
		<polygon id="XMLID_927_" fill="#A3A3A3" points="525.3,93.9 519,83 525.3,72 537.9,72 544.2,83 537.9,93.9 		"/>
		<polygon id="XMLID_926_" fill="#050505" points="526.1,94.6 519.8,83.7 526.1,72.8 538.7,72.8 545,83.7 538.7,94.6 		"/>
		<polygon id="XMLID_925_" fill="#A3A3A3" points="548.5,79.3 542.2,68.4 548.5,57.4 561.1,57.4 567.4,68.4 561.1,79.3 		"/>
		<polygon id="XMLID_921_" fill="#050505" points="549.3,80.1 543,69.1 549.3,58.2 561.9,58.2 568.2,69.1 561.9,80.1 		"/>
		<polygon id="XMLID_920_" fill="#A3A3A3" points="571.7,93.9 565.4,83 571.7,72 584.3,72 590.6,83 584.3,93.9 		"/>
		<polygon id="XMLID_874_" fill="#050505" points="572.5,94.6 566.2,83.7 572.5,72.8 585.1,72.8 591.4,83.7 585.1,94.6 		"/>
		<polygon id="XMLID_873_" fill="#A3A3A3" points="594.8,79.3 588.5,68.4 594.8,57.4 607.4,57.4 613.7,68.4 607.4,79.3 		"/>
		<polygon id="XMLID_872_" fill="#050505" points="595.6,80.1 589.2,69.1 595.6,58.2 608.2,58.2 614.5,69.1 608.2,80.1 		"/>
		<polygon id="XMLID_871_" fill="#A3A3A3" points="618,93.9 611.7,83 618,72 630.6,72 636.9,83 630.6,93.9 		"/>
		<polygon id="XMLID_870_" fill="#050505" points="618.8,94.6 612.4,83.7 618.8,72.8 631.4,72.8 637.7,83.7 631.4,94.6 		"/>
		<polygon id="XMLID_865_" fill="#A3A3A3" points="455.7,109.5 449.4,98.5 455.7,87.6 468.3,87.6 474.6,98.5 468.3,109.5 		"/>
		<polygon id="XMLID_864_" fill="#050505" points="456.5,110.2 450.2,99.3 456.5,88.4 469.1,88.4 475.4,99.3 469.1,110.2 		"/>
		<polygon id="XMLID_863_" fill="#A3A3A3" points="478.9,124.1 472.6,113.1 478.9,102.2 491.5,102.2 497.8,113.1 491.5,124.1 		"/>
		<polygon id="XMLID_862_" fill="#050505" points="479.7,124.8 473.4,113.9 479.7,103 492.3,103 498.6,113.9 492.3,124.8 		"/>
		<polygon id="XMLID_861_" fill="#A3A3A3" points="502.1,109.5 495.8,98.5 502.1,87.6 514.7,87.6 521,98.5 514.7,109.5 		"/>
		<polygon id="XMLID_860_" fill="#050505" points="502.9,110.2 496.6,99.3 502.9,88.4 515.5,88.4 521.8,99.3 515.5,110.2 		"/>
		<polygon id="XMLID_859_" fill="#A3A3A3" points="525.3,124.1 519,113.1 525.3,102.2 537.9,102.2 544.2,113.1 537.9,124.1 		"/>
		<polygon id="XMLID_858_" fill="#050505" points="526.1,124.8 519.8,113.9 526.1,103 538.7,103 545,113.9 538.7,124.8 		"/>
		<polygon id="XMLID_857_" fill="#A3A3A3" points="548.5,109.5 542.2,98.5 548.5,87.6 561.1,87.6 567.4,98.5 561.1,109.5 		"/>
		<polygon id="XMLID_856_" fill="#050505" points="549.3,110.2 543,99.3 549.3,88.4 561.9,88.4 568.2,99.3 561.9,110.2 		"/>
		<polygon id="XMLID_855_" fill="#A3A3A3" points="571.7,124.1 565.4,113.1 571.7,102.2 584.3,102.2 590.6,113.1 584.3,124.1 		"/>
		<polygon id="XMLID_854_" fill="#050505" points="572.5,124.8 566.2,113.9 572.5,103 585.1,103 591.4,113.9 585.1,124.8 		"/>
		<polygon id="XMLID_853_" fill="#A3A3A3" points="594.8,109.5 588.5,98.5 594.8,87.6 607.4,87.6 613.7,98.5 607.4,109.5 		"/>
		<polygon id="XMLID_852_" fill="#050505" points="595.6,110.2 589.2,99.3 595.6,88.4 608.2,88.4 614.5,99.3 608.2,110.2 		"/>
		<polygon id="XMLID_851_" fill="#A3A3A3" points="618,124.1 611.7,113.1 618,102.2 630.6,102.2 636.9,113.1 630.6,124.1 		"/>
		<polygon id="XMLID_850_" fill="#050505" points="618.8,124.8 612.4,113.9 618.8,103 631.4,103 637.7,113.9 631.4,124.8 		"/>
		<polygon id="XMLID_845_" fill="#A3A3A3" points="455.7,139.7 449.4,128.7 455.7,117.8 468.3,117.8 474.6,128.7 468.3,139.7 		"/>
		<polygon id="XMLID_844_" fill="#050505" points="456.5,140.4 450.2,129.5 456.5,118.6 469.1,118.6 475.4,129.5 469.1,140.4 		"/>
		<polygon id="XMLID_841_" fill="#A3A3A3" points="502.1,139.7 495.8,128.7 502.1,117.8 514.7,117.8 521,128.7 514.7,139.7 		"/>
		<polygon id="XMLID_840_" fill="#050505" points="502.9,140.4 496.6,129.5 502.9,118.6 515.5,118.6 521.8,129.5 515.5,140.4 		"/>
		<polygon id="XMLID_837_" fill="#A3A3A3" points="548.5,139.7 542.2,128.7 548.5,117.8 561.1,117.8 567.4,128.7 561.1,139.7 		"/>
		<polygon id="XMLID_836_" fill="#050505" points="549.3,140.4 543,129.5 549.3,118.6 561.9,118.6 568.2,129.5 561.9,140.4 		"/>
		<polygon id="XMLID_833_" fill="#A3A3A3" points="594.8,139.7 588.5,128.7 594.8,117.8 607.4,117.8 613.7,128.7 607.4,139.7 		"/>
		<polygon id="XMLID_832_" fill="#050505" points="595.6,140.4 589.2,129.5 595.6,118.6 608.2,118.6 614.5,129.5 608.2,140.4 		"/>
	</g>
</g>
<linearGradient id="XMLID_1005_" gradientUnits="userSpaceOnUse" x1="736.5457" y1="86.0118" x2="867.7073" y2="86.0118">
	<stop  offset="0" style="stop-color:#FFFFFF"/>
	<stop  offset="0.1688" style="stop-color:#B1B4B5"/>
	<stop  offset="0.4086" style="stop-color:#E0E0DF"/>
	<stop  offset="0.7581" style="stop-color:#B1B4B5"/>
	<stop  offset="1" style="stop-color:#C2C2C2"/>
</linearGradient>
<rect id="XMLID_806_" x="736.5" y="55.4" fill="url(#XMLID_1005_)" width="131.2" height="61.2"/>
<g id="XMLID_807_">
	<path id="XMLID_869_" fill="#AFAFAF" d="M450.2,90c0,4.4-3.5,7.9-7.9,7.9s-7.9-3.5-7.9-7.9c0-4.4,3.5-7.9,7.9-7.9
		S450.2,85.6,450.2,90"/>
	<ellipse id="XMLID_868_" fill="none" stroke="#939393" stroke-miterlimit="10" cx="442.3" cy="90" rx="7.9" ry="7.9"/>
	<path id="XMLID_867_" fill="#AFAFAF" d="M448.1,90c0,3.2-2.6,5.8-5.8,5.8c-3.2,0-5.8-2.6-5.8-5.8c0-3.2,2.6-5.8,5.8-5.8
		C445.5,84.2,448.1,86.8,448.1,90"/>
	<ellipse id="XMLID_866_" fill="none" stroke="#939393" stroke-miterlimit="10" cx="442.3" cy="90" rx="5.8" ry="5.8"/>
	<g id="XMLID_830_">
		<g id="XMLID_831_">
			<defs>
				<rect id="SVGID_56_" x="436.8" y="84.5" width="11" height="10.9"/>
			</defs>
			<clipPath id="SVGID_113_">
				<use xlink:href="#SVGID_56_"  overflow="visible"/>
			</clipPath>
			<path id="XMLID_849_" clip-path="url(#SVGID_113_)" fill="#BEBFBF" d="M447.8,90c0,3-2.5,5.5-5.5,5.5c-3,0-5.5-2.5-5.5-5.5
				c0-3,2.5-5.5,5.5-5.5C445.3,84.5,447.8,87,447.8,90"/>
			<path id="XMLID_848_" clip-path="url(#SVGID_113_)" fill="#C0C1C1" d="M447.7,90c0,3-2.4,5.3-5.4,5.3c-3,0-5.4-2.4-5.4-5.3
				c0-3,2.4-5.3,5.4-5.3C445.3,84.7,447.7,87.1,447.7,90"/>
			<path id="XMLID_847_" clip-path="url(#SVGID_113_)" fill="#C3C4C4" d="M447.5,90c0,2.9-2.3,5.2-5.2,5.2s-5.2-2.3-5.2-5.2
				c0-2.9,2.3-5.2,5.2-5.2S447.5,87.1,447.5,90"/>
			<path id="XMLID_846_" clip-path="url(#SVGID_113_)" fill="#C5C6C6" d="M447.4,90c0,2.8-2.3,5.1-5.1,5.1c-2.8,0-5.1-2.3-5.1-5.1
				c0-2.8,2.3-5.1,5.1-5.1C445.1,84.9,447.4,87.2,447.4,90"/>
			<path id="XMLID_843_" clip-path="url(#SVGID_113_)" fill="#C7C9C9" d="M447.3,90c0,2.7-2.2,5-5,5c-2.7,0-5-2.2-5-5
				c0-2.7,2.2-5,5-5C445.1,85,447.3,87.3,447.3,90"/>
			<path id="XMLID_842_" clip-path="url(#SVGID_113_)" fill="#CACBCB" d="M447.1,90c0,2.7-2.2,4.8-4.8,4.8s-4.8-2.2-4.8-4.8
				c0-2.7,2.2-4.8,4.8-4.8S447.1,87.3,447.1,90"/>
			<path id="XMLID_839_" clip-path="url(#SVGID_113_)" fill="#CCCECE" d="M447,90c0,2.6-2.1,4.7-4.7,4.7c-2.6,0-4.7-2.1-4.7-4.7
				c0-2.6,2.1-4.7,4.7-4.7C444.9,85.3,447,87.4,447,90"/>
			<path id="XMLID_838_" clip-path="url(#SVGID_113_)" fill="#CED0D0" d="M446.9,90c0,2.5-2,4.6-4.6,4.6c-2.5,0-4.6-2-4.6-4.6
				c0-2.5,2-4.6,4.6-4.6C444.8,85.4,446.9,87.5,446.9,90"/>
			<path id="XMLID_835_" clip-path="url(#SVGID_113_)" fill="#D1D3D3" d="M446.8,90c0,2.5-2,4.4-4.4,4.4c-2.5,0-4.4-2-4.4-4.4
				c0-2.5,2-4.4,4.4-4.4C444.8,85.6,446.8,87.6,446.8,90"/>
			<path id="XMLID_834_" clip-path="url(#SVGID_113_)" fill="#D3D5D5" d="M446.6,90c0,2.4-1.9,4.3-4.3,4.3c-2.4,0-4.3-1.9-4.3-4.3
				c0-2.4,1.9-4.3,4.3-4.3C444.7,85.7,446.6,87.6,446.6,90"/>
		</g>
	</g>
	<polygon id="XMLID_829_" fill="#605F5E" points="441.6,93.3 441.6,90.7 439,90.7 439,89.3 441.6,89.3 441.6,86.7 443,86.7 
		443,89.3 445.6,89.3 445.6,90.7 443,90.7 443,93.3 	"/>
	<path id="XMLID_808_" fill="#231815" d="M442.9,86.8v2.3v0.2h0.2h2.3v1.2h-2.3h-0.2v0.2v2.3h-1.2v-2.3v-0.2h-0.2h-2.3v-1.2h2.3h0.2
		v-0.2v-2.3H442.9z M443.1,86.6h-1.7v2.6h-2.6v1.7h2.6v2.6h1.7v-2.6h2.6v-1.7h-2.6V86.6z"/>
</g>
<g id="XMLID_1012_">
	<path id="XMLID_1054_" fill="#AFAFAF" d="M720.6,90c0,4.4-3.5,7.9-7.9,7.9c-4.4,0-7.9-3.5-7.9-7.9c0-4.4,3.5-7.9,7.9-7.9
		C717,82.1,720.6,85.6,720.6,90"/>
	<ellipse id="XMLID_1053_" fill="none" stroke="#939393" stroke-miterlimit="10" cx="712.7" cy="90" rx="7.9" ry="7.9"/>
	<path id="XMLID_1050_" fill="#AFAFAF" d="M718.5,90c0,3.2-2.6,5.8-5.8,5.8c-3.2,0-5.8-2.6-5.8-5.8c0-3.2,2.6-5.8,5.8-5.8
		C715.9,84.2,718.5,86.8,718.5,90"/>
	<ellipse id="XMLID_1049_" fill="none" stroke="#939393" stroke-miterlimit="10" cx="712.7" cy="90" rx="5.8" ry="5.8"/>
	<g id="XMLID_1017_">
		<g id="XMLID_1018_">
			<defs>
				<rect id="SVGID_71_" x="707.2" y="84.5" width="11" height="10.9"/>
			</defs>
			<clipPath id="SVGID_114_">
				<use xlink:href="#SVGID_71_"  overflow="visible"/>
			</clipPath>
			<path id="XMLID_1034_" clip-path="url(#SVGID_114_)" fill="#BEBFBF" d="M718.1,90c0,3-2.5,5.5-5.5,5.5c-3,0-5.5-2.5-5.5-5.5
				c0-3,2.5-5.5,5.5-5.5C715.7,84.5,718.1,87,718.1,90"/>
			<path id="XMLID_1033_" clip-path="url(#SVGID_114_)" fill="#C0C1C1" d="M718,90c0,3-2.4,5.3-5.4,5.3c-3,0-5.4-2.4-5.4-5.3
				c0-3,2.4-5.3,5.4-5.3C715.6,84.7,718,87.1,718,90"/>
			<path id="XMLID_1032_" clip-path="url(#SVGID_114_)" fill="#C3C4C4" d="M717.9,90c0,2.9-2.3,5.2-5.2,5.2c-2.9,0-5.2-2.3-5.2-5.2
				c0-2.9,2.3-5.2,5.2-5.2C715.5,84.8,717.9,87.1,717.9,90"/>
			<path id="XMLID_1031_" clip-path="url(#SVGID_114_)" fill="#C5C6C6" d="M717.7,90c0,2.8-2.3,5.1-5.1,5.1s-5.1-2.3-5.1-5.1
				c0-2.8,2.3-5.1,5.1-5.1S717.7,87.2,717.7,90"/>
			<path id="XMLID_1030_" clip-path="url(#SVGID_114_)" fill="#C7C9C9" d="M717.6,90c0,2.7-2.2,5-5,5c-2.7,0-5-2.2-5-5
				c0-2.7,2.2-5,5-5C715.4,85,717.6,87.3,717.6,90"/>
			<path id="XMLID_1029_" clip-path="url(#SVGID_114_)" fill="#CACBCB" d="M717.5,90c0,2.7-2.2,4.8-4.8,4.8s-4.8-2.2-4.8-4.8
				c0-2.7,2.2-4.8,4.8-4.8S717.5,87.3,717.5,90"/>
			<path id="XMLID_1022_" clip-path="url(#SVGID_114_)" fill="#CCCECE" d="M717.4,90c0,2.6-2.1,4.7-4.7,4.7c-2.6,0-4.7-2.1-4.7-4.7
				c0-2.6,2.1-4.7,4.7-4.7C715.3,85.3,717.4,87.4,717.4,90"/>
			<path id="XMLID_1021_" clip-path="url(#SVGID_114_)" fill="#CED0D0" d="M717.2,90c0,2.5-2,4.6-4.6,4.6c-2.5,0-4.6-2-4.6-4.6
				c0-2.5,2-4.6,4.6-4.6C715.2,85.4,717.2,87.5,717.2,90"/>
			<path id="XMLID_1020_" clip-path="url(#SVGID_114_)" fill="#D1D3D3" d="M717.1,90c0,2.5-2,4.4-4.4,4.4c-2.5,0-4.4-2-4.4-4.4
				c0-2.5,2-4.4,4.4-4.4C715.1,85.6,717.1,87.6,717.1,90"/>
			<path id="XMLID_1019_" clip-path="url(#SVGID_114_)" fill="#D3D5D5" d="M717,90c0,2.4-1.9,4.3-4.3,4.3c-2.4,0-4.3-1.9-4.3-4.3
				c0-2.4,1.9-4.3,4.3-4.3C715,85.7,717,87.6,717,90"/>
		</g>
	</g>
	<polygon id="XMLID_1016_" fill="#605F5E" points="711.9,93.3 711.9,90.7 709.4,90.7 709.4,89.3 711.9,89.3 711.9,86.7 713.4,86.7 
		713.4,89.3 715.9,89.3 715.9,90.7 713.4,90.7 713.4,93.3 	"/>
	<path id="XMLID_1013_" fill="#231815" d="M713.2,86.8v2.3v0.2h0.2h2.3v1.2h-2.3h-0.2v0.2v2.3h-1.2v-2.3v-0.2h-0.2h-2.3v-1.2h2.3
		h0.2v-0.2v-2.3H713.2z M713.5,86.6h-1.7v2.6h-2.6v1.7h2.6v2.6h1.7v-2.6h2.6v-1.7h-2.6V86.6z"/>
</g>
<g id="XMLID_1061_">
	<path id="XMLID_1142_" fill="#AFAFAF" d="M750.1,90c0,1.6-1.3,2.9-2.9,2.9c-1.6,0-2.9-1.3-2.9-2.9c0-1.6,1.3-2.9,2.9-2.9
		C748.8,87.1,750.1,88.4,750.1,90"/>
	<ellipse id="XMLID_1141_" fill="none" stroke="#939393" stroke-miterlimit="10" cx="747.2" cy="90" rx="2.9" ry="2.9"/>
	<path id="XMLID_1140_" fill="#AFAFAF" d="M749.4,90c0,1.2-1,2.1-2.2,2.1s-2.2-1-2.2-2.1c0-1.2,1-2.1,2.2-2.1S749.4,88.8,749.4,90"
		/>
	<circle id="XMLID_1139_" fill="none" stroke="#939393" stroke-miterlimit="10" cx="747.2" cy="90" r="2.1"/>
	<g id="XMLID_1066_">
		<g id="XMLID_1067_">
			<defs>
				<rect id="SVGID_72_" x="745.2" y="88" width="4.1" height="4"/>
			</defs>
			<clipPath id="SVGID_115_">
				<use xlink:href="#SVGID_72_"  overflow="visible"/>
			</clipPath>
			<path id="XMLID_1138_" clip-path="url(#SVGID_115_)" fill="#BEBFBF" d="M749.2,90c0,1.1-0.9,2-2,2c-1.1,0-2-0.9-2-2
				c0-1.1,0.9-2,2-2C748.3,88,749.2,88.9,749.2,90"/>
			<path id="XMLID_1137_" clip-path="url(#SVGID_115_)" fill="#C0C1C1" d="M749.2,90c0,1.1-0.9,2-2,2c-1.1,0-2-0.9-2-2
				c0-1.1,0.9-2,2-2C748.3,88,749.2,88.9,749.2,90"/>
			<path id="XMLID_1111_" clip-path="url(#SVGID_115_)" fill="#C3C4C4" d="M749.1,90c0,1.1-0.9,1.9-1.9,1.9s-1.9-0.9-1.9-1.9
				c0-1.1,0.9-1.9,1.9-1.9S749.1,88.9,749.1,90"/>
			<path id="XMLID_1110_" clip-path="url(#SVGID_115_)" fill="#C5C6C6" d="M749.1,90c0,1-0.8,1.9-1.9,1.9s-1.9-0.8-1.9-1.9
				c0-1,0.8-1.9,1.9-1.9S749.1,89,749.1,90"/>
			<path id="XMLID_1108_" clip-path="url(#SVGID_115_)" fill="#C7C9C9" d="M749.1,90c0,1-0.8,1.8-1.8,1.8s-1.8-0.8-1.8-1.8
				c0-1,0.8-1.8,1.8-1.8S749.1,89,749.1,90"/>
			<path id="XMLID_1107_" clip-path="url(#SVGID_115_)" fill="#CACBCB" d="M749,90c0,1-0.8,1.8-1.8,1.8c-1,0-1.8-0.8-1.8-1.8
				c0-1,0.8-1.8,1.8-1.8C748.2,88.2,749,89,749,90"/>
			<path id="XMLID_1103_" clip-path="url(#SVGID_115_)" fill="#CCCECE" d="M749,90c0,1-0.8,1.7-1.7,1.7c-1,0-1.7-0.8-1.7-1.7
				c0-1,0.8-1.7,1.7-1.7C748.2,88.3,749,89,749,90"/>
			<path id="XMLID_1100_" clip-path="url(#SVGID_115_)" fill="#CED0D0" d="M748.9,90c0,0.9-0.8,1.7-1.7,1.7c-0.9,0-1.7-0.8-1.7-1.7
				c0-0.9,0.8-1.7,1.7-1.7C748.2,88.3,748.9,89.1,748.9,90"/>
			<path id="XMLID_1098_" clip-path="url(#SVGID_115_)" fill="#D1D3D3" d="M748.9,90c0,0.9-0.7,1.6-1.6,1.6c-0.9,0-1.6-0.7-1.6-1.6
				c0-0.9,0.7-1.6,1.6-1.6C748.1,88.4,748.9,89.1,748.9,90"/>
			<path id="XMLID_1068_" clip-path="url(#SVGID_115_)" fill="#D3D5D5" d="M748.8,90c0,0.9-0.7,1.6-1.6,1.6c-0.9,0-1.6-0.7-1.6-1.6
				c0-0.9,0.7-1.6,1.6-1.6C748.1,88.4,748.8,89.1,748.8,90"/>
		</g>
	</g>
	<polygon id="XMLID_1065_" fill="#605F5E" points="747,91.2 747,90.3 746,90.3 746,89.7 747,89.7 747,88.8 747.5,88.8 747.5,89.7 
		748.4,89.7 748.4,90.3 747.5,90.3 747.5,91.2 	"/>
	<path id="XMLID_1062_" fill="#231815" d="M747.4,88.8v0.9v0.1h0.1h0.9v0.4h-0.9h-0.1v0.1v0.9H747v-0.9v-0.1h-0.1H746v-0.4h0.9h0.1
		v-0.1v-0.9H747.4z M747.5,88.7h-0.6v1h-1v0.6h1v1h0.6v-1h1v-0.6h-1V88.7z"/>
</g>
<g id="XMLID_1143_">
	<path id="XMLID_1163_" fill="#AFAFAF" d="M861.9,90c0,1.6-1.3,2.9-2.9,2.9S856,91.6,856,90c0-1.6,1.3-2.9,2.9-2.9
		S861.9,88.4,861.9,90"/>
	<ellipse id="XMLID_1162_" fill="none" stroke="#939393" stroke-miterlimit="10" cx="858.9" cy="90" rx="2.9" ry="2.9"/>
	<path id="XMLID_1161_" fill="#AFAFAF" d="M861.1,90c0,1.2-1,2.1-2.2,2.1s-2.2-1-2.2-2.1c0-1.2,1-2.1,2.2-2.1S861.1,88.8,861.1,90"
		/>
	<circle id="XMLID_1160_" fill="none" stroke="#939393" stroke-miterlimit="10" cx="858.9" cy="90" r="2.1"/>
	<g id="XMLID_1148_">
		<g id="XMLID_1149_">
			<defs>
				<rect id="SVGID_73_" x="856.9" y="88" width="4.1" height="4"/>
			</defs>
			<clipPath id="SVGID_116_">
				<use xlink:href="#SVGID_73_"  overflow="visible"/>
			</clipPath>
			<path id="XMLID_1159_" clip-path="url(#SVGID_116_)" fill="#BEBFBF" d="M861,90c0,1.1-0.9,2-2,2s-2-0.9-2-2c0-1.1,0.9-2,2-2
				S861,88.9,861,90"/>
			<path id="XMLID_1158_" clip-path="url(#SVGID_116_)" fill="#C0C1C1" d="M860.9,90c0,1.1-0.9,2-2,2c-1.1,0-2-0.9-2-2
				c0-1.1,0.9-2,2-2C860,88,860.9,88.9,860.9,90"/>
			<path id="XMLID_1157_" clip-path="url(#SVGID_116_)" fill="#C3C4C4" d="M860.9,90c0,1.1-0.9,1.9-1.9,1.9S857,91.1,857,90
				c0-1.1,0.9-1.9,1.9-1.9S860.9,88.9,860.9,90"/>
			<path id="XMLID_1156_" clip-path="url(#SVGID_116_)" fill="#C5C6C6" d="M860.8,90c0,1-0.8,1.9-1.9,1.9s-1.9-0.8-1.9-1.9
				c0-1,0.8-1.9,1.9-1.9S860.8,89,860.8,90"/>
			<path id="XMLID_1155_" clip-path="url(#SVGID_116_)" fill="#C7C9C9" d="M860.8,90c0,1-0.8,1.8-1.8,1.8s-1.8-0.8-1.8-1.8
				c0-1,0.8-1.8,1.8-1.8S860.8,89,860.8,90"/>
			<path id="XMLID_1154_" clip-path="url(#SVGID_116_)" fill="#CACBCB" d="M860.7,90c0,1-0.8,1.8-1.8,1.8s-1.8-0.8-1.8-1.8
				c0-1,0.8-1.8,1.8-1.8S860.7,89,860.7,90"/>
			<path id="XMLID_1153_" clip-path="url(#SVGID_116_)" fill="#CCCECE" d="M860.7,90c0,1-0.8,1.7-1.7,1.7c-1,0-1.7-0.8-1.7-1.7
				c0-1,0.8-1.7,1.7-1.7C859.9,88.3,860.7,89,860.7,90"/>
			<path id="XMLID_1152_" clip-path="url(#SVGID_116_)" fill="#CED0D0" d="M860.6,90c0,0.9-0.8,1.7-1.7,1.7c-0.9,0-1.7-0.8-1.7-1.7
				c0-0.9,0.8-1.7,1.7-1.7C859.9,88.3,860.6,89.1,860.6,90"/>
			<path id="XMLID_1151_" clip-path="url(#SVGID_116_)" fill="#D1D3D3" d="M860.6,90c0,0.9-0.7,1.6-1.6,1.6c-0.9,0-1.6-0.7-1.6-1.6
				c0-0.9,0.7-1.6,1.6-1.6C859.8,88.4,860.6,89.1,860.6,90"/>
			<path id="XMLID_1150_" clip-path="url(#SVGID_116_)" fill="#D3D5D5" d="M860.5,90c0,0.9-0.7,1.6-1.6,1.6c-0.9,0-1.6-0.7-1.6-1.6
				c0-0.9,0.7-1.6,1.6-1.6C859.8,88.4,860.5,89.1,860.5,90"/>
		</g>
	</g>
	<polygon id="XMLID_1147_" fill="#605F5E" points="858.7,91.2 858.7,90.3 857.7,90.3 857.7,89.7 858.7,89.7 858.7,88.8 859.2,88.8 
		859.2,89.7 860.2,89.7 860.2,90.3 859.2,90.3 859.2,91.2 	"/>
	<path id="XMLID_1144_" fill="#231815" d="M859.2,88.8v0.9v0.1h0.1h0.9v0.4h-0.9h-0.1v0.1v0.9h-0.4v-0.9v-0.1h-0.1h-0.9v-0.4h0.9
		h0.1v-0.1v-0.9H859.2z M859.3,88.7h-0.6v1h-1v0.6h1v1h0.6v-1h1v-0.6h-1V88.7z"/>
</g>
<g id="XMLID_942_">
	<text transform="matrix(1 0 0 1 764.6121 25.7645)" fill="#FFFFFF" font-family="'MicrosoftYaHei'" font-size="5.8379px">DC SUOUTS FOR AEMOTE</text>
</g>
<g id="XMLID_1058_">
	<text transform="matrix(1 0 0 1 779.1326 36.5145)" fill="#FFFFFF" font-family="'MicrosoftYaHei'" font-size="5.8379px">POMER SUPPLY</text>
</g>
<g id="XMLID_1059_">
	<text transform="matrix(1 0 0 1 768.4617 47.0145)" fill="#FFFFFF" font-family="'MicrosoftYaHei'" font-size="5.8379px">SPECWWD IN MAMJAL</text>
</g>
<rect id="XMLID_1057_" x="736.5" y="55.4" fill="#939393" width="131.2" height="7.6"/>
<rect id="XMLID_1060_" x="756.5" y="69.3" fill="#6B635C" width="93.1" height="33"/>
<rect id="XMLID_1164_" x="758.2" y="70.7" fill="#C1BEA6" width="89.6" height="30.3"/>
<g id="XMLID_1166_">
	<rect id="XMLID_1196_" x="759.7" y="71.8" fill="#343537" width="86.7" height="13.7"/>
	<path id="XMLID_1193_" d="M846,85h-85.8V72.3H846V85z M846.8,71.3H846h-85.8h-0.9v1V85v1h0.9H846h0.9v-1V72.3V71.3z"/>
	<rect id="XMLID_1192_" x="760.1" y="74.1" fill="#9E9E9E" width="2.3" height="9.5"/>
	<rect id="XMLID_1191_" x="760.1" y="74.6" fill="#343537" width="2" height="8.4"/>
	<rect id="XMLID_1190_" x="843.7" y="74" fill="#9E9E9E" width="2.3" height="9.5"/>
	<polygon id="XMLID_1189_" fill="#B2B1B1" points="768.3,76 768.3,73.9 765,73.9 765,76 766.3,76 766.3,81.3 765,81.3 765,83.4 
		768.3,83.4 768.3,81.3 767,81.3 767,76 	"/>
	<polygon id="XMLID_1188_" fill="#B2B1B1" points="772.9,76 772.9,73.9 769.6,73.9 769.6,76 770.8,76 770.8,81.3 769.6,81.3 
		769.6,83.4 772.9,83.4 772.9,81.3 771.6,81.3 771.6,76 	"/>
	<polygon id="XMLID_1187_" fill="#B2B1B1" points="777.4,76 777.4,73.9 774.1,73.9 774.1,76 775.4,76 775.4,81.3 774.1,81.3 
		774.1,83.4 777.4,83.4 777.4,81.3 776.1,81.3 776.1,76 	"/>
	<polygon id="XMLID_1186_" fill="#B2B1B1" points="782,76 782,73.9 778.6,73.9 778.6,76 779.9,76 779.9,81.3 778.6,81.3 778.6,83.4 
		782,83.4 782,81.3 780.7,81.3 780.7,76 	"/>
	<polygon id="XMLID_1185_" fill="#B2B1B1" points="786.5,76 786.5,73.9 783.2,73.9 783.2,76 784.5,76 784.5,81.3 783.2,81.3 
		783.2,83.4 786.5,83.4 786.5,81.3 785.2,81.3 785.2,76 	"/>
	<polygon id="XMLID_1184_" fill="#B2B1B1" points="791.1,76 791.1,73.9 787.7,73.9 787.7,76 789,76 789,81.3 787.7,81.3 787.7,83.4 
		791.1,83.4 791.1,81.3 789.8,81.3 789.8,76 	"/>
	<polygon id="XMLID_1183_" fill="#B2B1B1" points="795.6,76 795.6,73.9 792.3,73.9 792.3,76 793.6,76 793.6,81.3 792.3,81.3 
		792.3,83.4 795.6,83.4 795.6,81.3 794.3,81.3 794.3,76 	"/>
	<polygon id="XMLID_1182_" fill="#B2B1B1" points="800.2,76 800.2,73.9 796.8,73.9 796.8,76 798.1,76 798.1,81.3 796.8,81.3 
		796.8,83.4 800.2,83.4 800.2,81.3 798.9,81.3 798.9,76 	"/>
	<polygon id="XMLID_1181_" fill="#B2B1B1" points="804.7,76 804.7,73.9 801.4,73.9 801.4,76 802.7,76 802.7,81.3 801.4,81.3 
		801.4,83.4 804.7,83.4 804.7,81.3 803.4,81.3 803.4,76 	"/>
	<polygon id="XMLID_1180_" fill="#B2B1B1" points="809.3,76 809.3,73.9 805.9,73.9 805.9,76 807.2,76 807.2,81.3 805.9,81.3 
		805.9,83.4 809.3,83.4 809.3,81.3 808,81.3 808,76 	"/>
	<polygon id="XMLID_1179_" fill="#B2B1B1" points="813.8,76 813.8,73.9 810.5,73.9 810.5,76 811.8,76 811.8,81.3 810.5,81.3 
		810.5,83.4 813.8,83.4 813.8,81.3 812.5,81.3 812.5,76 	"/>
	<polygon id="XMLID_1178_" fill="#B2B1B1" points="818.3,76 818.3,73.9 815,73.9 815,76 816.3,76 816.3,81.3 815,81.3 815,83.4 
		818.3,83.4 818.3,81.3 817.1,81.3 817.1,76 	"/>
	<polygon id="XMLID_1176_" fill="#B2B1B1" points="822.9,76 822.9,73.9 819.6,73.9 819.6,76 820.9,76 820.9,81.3 819.6,81.3 
		819.6,83.4 822.9,83.4 822.9,81.3 821.6,81.3 821.6,76 	"/>
	<polygon id="XMLID_1173_" fill="#B2B1B1" points="827.4,76 827.4,73.9 824.1,73.9 824.1,76 825.4,76 825.4,81.3 824.1,81.3 
		824.1,83.4 827.4,83.4 827.4,81.3 826.1,81.3 826.1,76 	"/>
	<polygon id="XMLID_1171_" fill="#B2B1B1" points="832,76 832,73.9 828.7,73.9 828.7,76 830,76 830,81.3 828.7,81.3 828.7,83.4 
		832,83.4 832,81.3 830.7,81.3 830.7,76 	"/>
	<polygon id="XMLID_1170_" fill="#B2B1B1" points="836.5,76 836.5,73.9 833.2,73.9 833.2,76 834.5,76 834.5,81.3 833.2,81.3 
		833.2,83.4 836.5,83.4 836.5,81.3 835.2,81.3 835.2,76 	"/>
	<polygon id="XMLID_1169_" fill="#B2B1B1" points="841.1,76 841.1,73.9 837.8,73.9 837.8,76 839.1,76 839.1,81.3 837.8,81.3 
		837.8,83.4 841.1,83.4 841.1,81.3 839.8,81.3 839.8,76 	"/>
	<rect id="XMLID_1168_" x="763.4" y="78.2" fill="#B2B1B1" width="79.3" height="0.9"/>
	<rect id="XMLID_1167_" x="844" y="74.6" fill="#343537" width="2" height="8.4"/>
</g>
<g id="XMLID_1197_">
	<rect id="XMLID_1223_" x="759.7" y="86.5" fill="#343537" width="86.7" height="13.7"/>
	<path id="XMLID_1220_" d="M846,99.8h-85.8V87H846V99.8z M846.8,86H846h-85.8h-0.9v1v12.7v1h0.9H846h0.9v-1V87V86z"/>
	<rect id="XMLID_1219_" x="760.1" y="88.8" fill="#9E9E9E" width="2.3" height="9.5"/>
	<rect id="XMLID_1218_" x="760.1" y="89.3" fill="#343537" width="2" height="8.4"/>
	<rect id="XMLID_1217_" x="843.7" y="88.8" fill="#9E9E9E" width="2.3" height="9.5"/>
	<polygon id="XMLID_1216_" fill="#B2B1B1" points="768.3,90.7 768.3,88.7 765,88.7 765,90.7 766.3,90.7 766.3,96.1 765,96.1 
		765,98.1 768.3,98.1 768.3,96.1 767,96.1 767,90.7 	"/>
	<polygon id="XMLID_1215_" fill="#B2B1B1" points="772.9,90.7 772.9,88.7 769.6,88.7 769.6,90.7 770.8,90.7 770.8,96.1 769.6,96.1 
		769.6,98.1 772.9,98.1 772.9,96.1 771.6,96.1 771.6,90.7 	"/>
	<polygon id="XMLID_1214_" fill="#B2B1B1" points="777.4,90.7 777.4,88.7 774.1,88.7 774.1,90.7 775.4,90.7 775.4,96.1 774.1,96.1 
		774.1,98.1 777.4,98.1 777.4,96.1 776.1,96.1 776.1,90.7 	"/>
	<polygon id="XMLID_1213_" fill="#B2B1B1" points="782,90.7 782,88.7 778.6,88.7 778.6,90.7 779.9,90.7 779.9,96.1 778.6,96.1 
		778.6,98.1 782,98.1 782,96.1 780.7,96.1 780.7,90.7 	"/>
	<polygon id="XMLID_1212_" fill="#B2B1B1" points="786.5,90.7 786.5,88.7 783.2,88.7 783.2,90.7 784.5,90.7 784.5,96.1 783.2,96.1 
		783.2,98.1 786.5,98.1 786.5,96.1 785.2,96.1 785.2,90.7 	"/>
	<polygon id="XMLID_1211_" fill="#B2B1B1" points="791.1,90.7 791.1,88.7 787.7,88.7 787.7,90.7 789,90.7 789,96.1 787.7,96.1 
		787.7,98.1 791.1,98.1 791.1,96.1 789.8,96.1 789.8,90.7 	"/>
	<polygon id="XMLID_1210_" fill="#B2B1B1" points="795.6,90.7 795.6,88.7 792.3,88.7 792.3,90.7 793.6,90.7 793.6,96.1 792.3,96.1 
		792.3,98.1 795.6,98.1 795.6,96.1 794.3,96.1 794.3,90.7 	"/>
	<polygon id="XMLID_1209_" fill="#B2B1B1" points="800.2,90.7 800.2,88.7 796.8,88.7 796.8,90.7 798.1,90.7 798.1,96.1 796.8,96.1 
		796.8,98.1 800.2,98.1 800.2,96.1 798.9,96.1 798.9,90.7 	"/>
	<polygon id="XMLID_1208_" fill="#B2B1B1" points="804.7,90.7 804.7,88.7 801.4,88.7 801.4,90.7 802.7,90.7 802.7,96.1 801.4,96.1 
		801.4,98.1 804.7,98.1 804.7,96.1 803.4,96.1 803.4,90.7 	"/>
	<polygon id="XMLID_1207_" fill="#B2B1B1" points="809.3,90.7 809.3,88.7 805.9,88.7 805.9,90.7 807.2,90.7 807.2,96.1 805.9,96.1 
		805.9,98.1 809.3,98.1 809.3,96.1 808,96.1 808,90.7 	"/>
	<polygon id="XMLID_1206_" fill="#B2B1B1" points="813.8,90.7 813.8,88.7 810.5,88.7 810.5,90.7 811.8,90.7 811.8,96.1 810.5,96.1 
		810.5,98.1 813.8,98.1 813.8,96.1 812.5,96.1 812.5,90.7 	"/>
	<polygon id="XMLID_1205_" fill="#B2B1B1" points="818.3,90.7 818.3,88.7 815,88.7 815,90.7 816.3,90.7 816.3,96.1 815,96.1 
		815,98.1 818.3,98.1 818.3,96.1 817.1,96.1 817.1,90.7 	"/>
	<polygon id="XMLID_1204_" fill="#B2B1B1" points="822.9,90.7 822.9,88.7 819.6,88.7 819.6,90.7 820.9,90.7 820.9,96.1 819.6,96.1 
		819.6,98.1 822.9,98.1 822.9,96.1 821.6,96.1 821.6,90.7 	"/>
	<polygon id="XMLID_1203_" fill="#B2B1B1" points="827.4,90.7 827.4,88.7 824.1,88.7 824.1,90.7 825.4,90.7 825.4,96.1 824.1,96.1 
		824.1,98.1 827.4,98.1 827.4,96.1 826.1,96.1 826.1,90.7 	"/>
	<polygon id="XMLID_1202_" fill="#B2B1B1" points="832,90.7 832,88.7 828.7,88.7 828.7,90.7 830,90.7 830,96.1 828.7,96.1 
		828.7,98.1 832,98.1 832,96.1 830.7,96.1 830.7,90.7 	"/>
	<polygon id="XMLID_1201_" fill="#B2B1B1" points="836.5,90.7 836.5,88.7 833.2,88.7 833.2,90.7 834.5,90.7 834.5,96.1 833.2,96.1 
		833.2,98.1 836.5,98.1 836.5,96.1 835.2,96.1 835.2,90.7 	"/>
	<polygon id="XMLID_1200_" fill="#B2B1B1" points="841.1,90.7 841.1,88.7 837.8,88.7 837.8,90.7 839.1,90.7 839.1,96.1 837.8,96.1 
		837.8,98.1 841.1,98.1 841.1,96.1 839.8,96.1 839.8,90.7 	"/>
	<rect id="XMLID_1199_" x="763.4" y="92.9" fill="#B2B1B1" width="79.3" height="0.9"/>
	<rect id="XMLID_1198_" x="844" y="89.3" fill="#343537" width="2" height="8.4"/>
</g>
</svg>
