<?xml version="1.0" encoding="utf-8"?>
<!-- Generator: Adobe Illustrator 21.0.0, SVG Export Plug-In . SVG Version: 6.00 Build 0)  -->
<svg version="1.1" id="图层_1" xmlns="http://www.w3.org/2000/svg" xmlns:xlink="http://www.w3.org/1999/xlink" x="0px" y="0px"
	 width="1275.6px" height="126.1px" viewBox="0 0 1275.6 126.1" enable-background="new 0 0 1275.6 126.1" xml:space="preserve">
<g id="XMLID_825_">
	<rect id="XMLID_2387_" x="1" y="1" fill="#C1C1C1" width="1273.6" height="124.1"/>
	<g id="XMLID_2370_">
		<path id="XMLID_2371_" d="M1273.6,2v122.1H2V2H1273.6 M1275.6,0H0v126.1h1275.6V0L1275.6,0z"/>
	</g>
</g>
<g id="XMLID_813_">
	<path id="XMLID_23066_" fill="#3E3A39" d="M239.2,85.9c0,1.6-1.3,2.8-2.8,2.8h-65.5c-1.6,0-2.8-1.3-2.8-2.8v-50
		c0-1.6,1.3-2.8,2.8-2.8h65.5c1.6,0,2.8,1.3,2.8,2.8V85.9z"/>
	<path id="XMLID_23055_" fill="none" stroke="#000000" stroke-width="2" stroke-miterlimit="10" d="M239.2,85.9
		c0,1.6-1.3,2.8-2.8,2.8h-65.5c-1.6,0-2.8-1.3-2.8-2.8v-50c0-1.6,1.3-2.8,2.8-2.8h65.5c1.6,0,2.8,1.3,2.8,2.8V85.9z"/>
	<polygon id="XMLID_23042_" fill="#231815" points="179,79.3 179,51.7 188.4,42.5 219.1,42.5 228.2,52.1 228.2,79.3 	"/>
	<rect id="XMLID_3691_" x="214.9" y="58.7" fill="#343842" width="3.1" height="10.4"/>
	<rect id="XMLID_3685_" x="214.9" y="60.5" fill="#8D919A" width="1.6" height="8.6"/>
	<rect id="XMLID_2395_" x="201.4" y="52.2" fill="#343842" width="3.1" height="10.4"/>
	<rect id="XMLID_2394_" x="201.4" y="54" fill="#8D919A" width="1.6" height="8.6"/>
	<rect id="XMLID_2393_" x="187.8" y="58.7" fill="#343842" width="3.1" height="10.4"/>
	<rect id="XMLID_2388_" x="187.8" y="60.5" fill="#8D919A" width="1.6" height="8.6"/>
</g>
<line id="XMLID_23068_" fill="#C1C1C1" stroke="#000000" stroke-width="2" stroke-miterlimit="10" x1="338" y1="126.1" x2="338" y2="0"/>
<line id="XMLID_23069_" fill="#C1C1C1" stroke="#000000" stroke-width="2" stroke-miterlimit="10" x1="668.6" y1="126.1" x2="668.6" y2="0"/>
<g id="XMLID_23067_">
	<rect id="XMLID_23085_" x="669.6" y="1" fill="#232323" width="513.3" height="124.1"/>
	<path id="XMLID_23082_" d="M1181.9,2v122.1H670.6V2H1181.9 M1183.9,0H668.6v126.1h515.3V0L1183.9,0z"/>
</g>
<linearGradient id="XMLID_3_" gradientUnits="userSpaceOnUse" x1="-8335.1484" y1="494.5158" x2="-8323.835" y2="494.5158" gradientTransform="matrix(4.489700e-11 -1 1 4.489700e-11 -211.9894 -8281.291)">
	<stop  offset="0" style="stop-color:#FFFFFF"/>
	<stop  offset="1" style="stop-color:#7F7F7F"/>
</linearGradient>
<circle id="XMLID_32483_" fill="url(#XMLID_3_)" cx="282.5" cy="48.2" r="5.7"/>
<g id="XMLID_32480_">
	<defs>
		<path id="XMLID_32481_" d="M277.4,48.2c0,2.8,2.3,5.1,5.1,5.1c2.8,0,5.1-2.3,5.1-5.1c0-2.8-2.3-5.1-5.1-5.1
			C279.7,43.1,277.4,45.4,277.4,48.2"/>
	</defs>
	<clipPath id="XMLID_4_">
		<use xlink:href="#XMLID_32481_"  overflow="visible"/>
	</clipPath>
	
		<radialGradient id="XMLID_5_" cx="-1377.0505" cy="3204.3164" r="0.481" gradientTransform="matrix(8.2859 0 0 8.2859 11691.3818 -26504.2578)" gradientUnits="userSpaceOnUse">
		<stop  offset="0" style="stop-color:#FFFFFF"/>
		<stop  offset="1" style="stop-color:#8DC21F"/>
	</radialGradient>
	<rect id="XMLID_32482_" x="277.4" y="43.1" clip-path="url(#XMLID_4_)" fill="url(#XMLID_5_)" width="10.2" height="10.2"/>
</g>
<linearGradient id="XMLID_6_" gradientUnits="userSpaceOnUse" x1="-8357.0781" y1="494.5158" x2="-8345.7646" y2="494.5158" gradientTransform="matrix(4.489700e-11 -1 1 4.489700e-11 -211.9894 -8281.291)">
	<stop  offset="0" style="stop-color:#FFFFFF"/>
	<stop  offset="1" style="stop-color:#7F7F7F"/>
</linearGradient>
<circle id="XMLID_31639_" fill="url(#XMLID_6_)" cx="282.5" cy="70.1" r="5.7"/>
<g id="XMLID_23087_">
	<defs>
		<path id="XMLID_23088_" d="M277.4,70.1c0,2.8,2.3,5.1,5.1,5.1c2.8,0,5.1-2.3,5.1-5.1c0-2.8-2.3-5.1-5.1-5.1
			C279.7,65,277.4,67.3,277.4,70.1"/>
	</defs>
	<clipPath id="XMLID_7_">
		<use xlink:href="#XMLID_23088_"  overflow="visible"/>
	</clipPath>
	
		<radialGradient id="XMLID_8_" cx="-1377.0505" cy="3206.9631" r="0.481" gradientTransform="matrix(8.2859 0 0 8.2859 11691.3818 -26504.2578)" gradientUnits="userSpaceOnUse">
		<stop  offset="0" style="stop-color:#FFFFFF"/>
		<stop  offset="1" style="stop-color:#8DC21F"/>
	</radialGradient>
	<rect id="XMLID_23089_" x="277.4" y="65" clip-path="url(#XMLID_7_)" fill="url(#XMLID_8_)" width="10.2" height="10.2"/>
</g>
<g id="XMLID_23070_">
	<g id="XMLID_23075_">
		<radialGradient id="XMLID_9_" cx="640.7225" cy="15.2807" r="5.5537" gradientUnits="userSpaceOnUse">
			<stop  offset="0.6774" style="stop-color:#2B2B2B"/>
			<stop  offset="0.8441" style="stop-color:#595757"/>
			<stop  offset="1" style="stop-color:#000000"/>
		</radialGradient>
		<path id="XMLID_23086_" fill="url(#XMLID_9_)" d="M646.3,15.3c0,3.1-2.5,5.6-5.6,5.6s-5.6-2.5-5.6-5.6c0-3.1,2.5-5.6,5.6-5.6
			S646.3,12.2,646.3,15.3"/>
		
			<circle id="XMLID_23081_" fill="none" stroke="#131313" stroke-width="0.75" stroke-miterlimit="10" cx="640.7" cy="15.3" r="5.6"/>
		<polygon id="XMLID_23080_" fill="#0A0A0A" points="640,18.4 640,16 637.6,16 637.6,14.6 640,14.6 640,12.1 641.4,12.1 641.4,14.6 
			643.9,14.6 643.9,16 641.4,16 641.4,18.4 		"/>
		<path id="XMLID_23076_" fill="#231815" d="M641.3,12.2v2.2v0.2h0.2h2.2v1.1h-2.2h-0.2v0.2v2.2h-1.1v-2.2v-0.2h-0.2h-2.2v-1.1h2.2
			h0.2v-0.2v-2.2H641.3z M641.5,12h-1.6v2.5h-2.5v1.6h2.5v2.5h1.6v-2.5h2.5v-1.6h-2.5V12z"/>
	</g>
	<rect id="XMLID_23074_" x="639.9" y="12" fill="#606060" width="0.2" height="2.7"/>
	<rect id="XMLID_23073_" x="637.5" y="14.5" fill="#606060" width="2.7" height="0.2"/>
	<rect id="XMLID_23072_" x="639.9" y="12" fill="#494949" width="1.6" height="0.2"/>
	<rect id="XMLID_23071_" x="637.5" y="14.5" fill="#545454" width="0.2" height="1.6"/>
</g>
<path id="XMLID_32486_" fill="#111111" stroke="#000000" stroke-width="2" stroke-miterlimit="10" d="M787.5,66.5h-98.7
	c-3.2,0-5.8-2.6-5.8-5.8V15.5c0-3.2,2.6-5.8,5.8-5.8h98.7c3.2,0,5.8,2.6,5.8,5.8v45.2C793.4,63.9,790.8,66.5,787.5,66.5z"/>
<g id="XMLID_32488_">
	<linearGradient id="XMLID_10_" gradientUnits="userSpaceOnUse" x1="685.0685" y1="75.7089" x2="694.7094" y2="75.7089">
		<stop  offset="0" style="stop-color:#FFFFFF"/>
		<stop  offset="5.656110e-02" style="stop-color:#A3A3A4"/>
		<stop  offset="0.3372" style="stop-color:#919292"/>
		<stop  offset="0.3831" style="stop-color:#E0E0DF"/>
		<stop  offset="0.4519" style="stop-color:#C1C0C0"/>
		<stop  offset="0.9264" style="stop-color:#E0E0DF"/>
		<stop  offset="0.9745" style="stop-color:#C1C0C0"/>
	</linearGradient>
	<path id="XMLID_32496_" fill="url(#XMLID_10_)" d="M685.1,75.7c0,2.6,2.2,4.8,4.8,4.8c2.7,0,4.8-2.1,4.8-4.8c0-2.6-2.2-4.8-4.8-4.8
		C687.2,70.9,685.1,73.1,685.1,75.7"/>
	
		<ellipse id="XMLID_32495_" fill="none" stroke="#121212" stroke-width="0.75" stroke-miterlimit="10" cx="689.9" cy="75.7" rx="4.8" ry="4.8"/>
	<polygon id="XMLID_32494_" fill="#040000" points="690.5,78.4 690.5,76.3 692.6,76.3 692.6,75.1 690.5,75.1 690.5,73 689.3,73 
		689.3,75.1 687.2,75.1 687.2,76.3 689.3,76.3 689.3,78.4 	"/>
	<path id="XMLID_32491_" fill="#221714" d="M690.4,73.1V75v0.2h0.2h1.9v1h-1.9h-0.2v0.2v1.9h-1v-1.9v-0.2h-0.2h-1.9v-1h1.9h0.2V75
		v-1.9H690.4z M689.2,75h-2.1v1.4h2.1v2.1h1.4v-2.1h2.1V75h-2.1v-2.1h-1.4V75z"/>
	<rect id="XMLID_32490_" x="690.4" y="72.9" fill="#606062" width="0.2" height="2.3"/>
	<rect id="XMLID_32489_" x="690.4" y="75" fill="#606062" width="2.3" height="0.2"/>
</g>
<g id="XMLID_32498_">
	<linearGradient id="XMLID_11_" gradientUnits="userSpaceOnUse" x1="781.8765" y1="75.7089" x2="791.5172" y2="75.7089">
		<stop  offset="0" style="stop-color:#FFFFFF"/>
		<stop  offset="5.656110e-02" style="stop-color:#A3A3A4"/>
		<stop  offset="0.3372" style="stop-color:#919292"/>
		<stop  offset="0.3831" style="stop-color:#E0E0DF"/>
		<stop  offset="0.4519" style="stop-color:#C1C0C0"/>
		<stop  offset="0.9264" style="stop-color:#E0E0DF"/>
		<stop  offset="0.9745" style="stop-color:#C1C0C0"/>
	</linearGradient>
	<path id="XMLID_32506_" fill="url(#XMLID_11_)" d="M781.9,75.7c0,2.6,2.2,4.8,4.8,4.8c2.7,0,4.8-2.1,4.8-4.8c0-2.6-2.2-4.8-4.8-4.8
		C784,70.9,781.9,73.1,781.9,75.7"/>
	
		<ellipse id="XMLID_32505_" fill="none" stroke="#121212" stroke-width="0.75" stroke-miterlimit="10" cx="786.7" cy="75.7" rx="4.8" ry="4.8"/>
	<polygon id="XMLID_32504_" fill="#040000" points="787.3,78.4 787.3,76.3 789.4,76.3 789.4,75.1 787.3,75.1 787.3,73 786.1,73 
		786.1,75.1 784,75.1 784,76.3 786.1,76.3 786.1,78.4 	"/>
	<path id="XMLID_32501_" fill="#221714" d="M787.2,73.1V75v0.2h0.2h1.9v1h-1.9h-0.2v0.2v1.9h-1v-1.9v-0.2H786h-1.9v-1h1.9h0.2V75
		v-1.9H787.2z M786,75h-2.1v1.4h2.1v2.1h1.4v-2.1h2.1V75h-2.1v-2.1H786V75z"/>
	<rect id="XMLID_32500_" x="787.2" y="72.9" fill="#606062" width="0.2" height="2.3"/>
	<rect id="XMLID_32499_" x="787.2" y="75" fill="#606062" width="2.3" height="0.2"/>
</g>
<g id="XMLID_32595_">
	<circle id="XMLID_32599_" fill="#2B2B2B" cx="1079.5" cy="64" r="35.5"/>
	<circle id="XMLID_32596_" fill="#ACABA6" cx="1079.5" cy="64" r="28.9"/>
</g>
<polygon id="XMLID_32594_" fill="#050001" points="1051.1,20.1 1057.3,16.5 1063.6,20.1 1063.6,27.3 1057.3,30.9 1051.1,27.3 "/>
<polygon id="XMLID_32593_" fill="#050001" points="1067.7,20.1 1073.9,16.5 1080.2,20.1 1080.2,27.3 1073.9,30.9 1067.7,27.3 "/>
<polygon id="XMLID_32592_" fill="#050001" points="1042.8,33.6 1049,30 1055.3,33.6 1055.3,40.8 1049,44.4 1042.8,40.8 "/>
<polygon id="XMLID_32591_" fill="#050001" points="1059.4,33.6 1065.6,30 1071.9,33.6 1071.9,40.8 1065.6,44.4 1059.4,40.8 "/>
<polygon id="XMLID_32590_" fill="#050001" points="1076,33.6 1082.3,30 1088.5,33.6 1088.5,40.8 1082.3,44.4 1076,40.8 "/>
<polygon id="XMLID_32588_" fill="#050001" points="1051.1,46.8 1057.3,43.2 1063.6,46.8 1063.6,54 1057.3,57.7 1051.1,54 "/>
<polygon id="XMLID_32587_" fill="#050001" points="1067.7,46.8 1073.9,43.2 1080.2,46.8 1080.2,54 1073.9,57.7 1067.7,54 "/>
<polygon id="XMLID_32561_" fill="#050001" points="1042.8,60.4 1049,56.8 1055.3,60.4 1055.3,67.6 1049,71.2 1042.8,67.6 "/>
<polygon id="XMLID_32560_" fill="#050001" points="1059.4,60.4 1065.6,56.8 1071.9,60.4 1071.9,67.6 1065.6,71.2 1059.4,67.6 "/>
<polygon id="XMLID_32559_" fill="#050001" points="1076,60.4 1082.3,56.8 1088.5,60.4 1088.5,67.6 1082.3,71.2 1076,67.6 "/>
<polygon id="XMLID_32557_" fill="#050001" points="1051.1,73.6 1057.3,70 1063.6,73.6 1063.6,80.8 1057.3,84.4 1051.1,80.8 "/>
<polygon id="XMLID_32556_" fill="#050001" points="1067.7,73.6 1073.9,70 1080.2,73.6 1080.2,80.8 1073.9,84.4 1067.7,80.8 "/>
<polygon id="XMLID_32555_" fill="#050001" points="1042.8,87.2 1049,83.6 1055.3,87.2 1055.3,94.4 1049,98 1042.8,94.4 "/>
<polygon id="XMLID_32554_" fill="#050001" points="1059.4,87.2 1065.6,83.6 1071.9,87.2 1071.9,94.4 1065.6,98 1059.4,94.4 "/>
<polygon id="XMLID_32553_" fill="#050001" points="1076,87.2 1082.3,83.6 1088.5,87.2 1088.5,94.4 1082.3,98 1076,94.4 "/>
<polygon id="XMLID_32551_" fill="#050001" points="1051.1,100.4 1057.3,96.8 1063.6,100.4 1063.6,107.6 1057.3,111.2 1051.1,107.6 
	"/>
<polygon id="XMLID_32589_" fill="#050001" points="1033.2,20.1 1039.4,16.5 1045.7,20.1 1045.7,27.3 1039.4,30.9 1033.2,27.3 "/>
<polygon id="XMLID_32562_" fill="#050001" points="1033.2,46.8 1039.4,43.2 1045.7,46.8 1045.7,54 1039.4,57.7 1033.2,54 "/>
<polygon id="XMLID_32558_" fill="#050001" points="1033.2,73.6 1039.4,70 1045.7,73.6 1045.7,80.8 1039.4,84.4 1033.2,80.8 "/>
<polygon id="XMLID_32531_" fill="#050001" points="1033.2,100.4 1039.4,96.8 1045.7,100.4 1045.7,107.6 1039.4,111.2 1033.2,107.6 
	"/>
<polygon id="XMLID_32550_" fill="#050001" points="1067.7,100.4 1073.9,96.8 1080.2,100.4 1080.2,107.6 1073.9,111.2 1067.7,107.6 
	"/>
<polygon id="XMLID_32549_" fill="#050001" points="1084.4,20.1 1090.6,16.5 1096.9,20.1 1096.9,27.3 1090.6,30.9 1084.4,27.3 "/>
<polygon id="XMLID_32548_" fill="#050001" points="1092.7,33.6 1098.9,30 1105.2,33.6 1105.2,40.8 1098.9,44.4 1092.7,40.8 "/>
<polygon id="XMLID_32547_" fill="#050001" points="1084.4,46.8 1090.6,43.2 1096.9,46.8 1096.9,54 1090.6,57.7 1084.4,54 "/>
<polygon id="XMLID_32546_" fill="#050001" points="1092.7,60.4 1098.9,56.8 1105.2,60.4 1105.2,67.6 1098.9,71.2 1092.7,67.6 "/>
<polygon id="XMLID_32545_" fill="#050001" points="1084.4,73.6 1090.6,70 1096.9,73.6 1096.9,80.8 1090.6,84.4 1084.4,80.8 "/>
<polygon id="XMLID_32544_" fill="#050001" points="1092.7,87.2 1098.9,83.6 1105.2,87.2 1105.2,94.4 1098.9,98 1092.7,94.4 "/>
<polygon id="XMLID_32543_" fill="#050001" points="1084.4,100.4 1090.6,96.8 1096.9,100.4 1096.9,107.6 1090.6,111.2 1084.4,107.6 
	"/>
<polygon id="XMLID_32542_" fill="#050001" points="1101,20.1 1107.3,16.5 1113.5,20.1 1113.5,27.3 1107.3,30.9 1101,27.3 "/>
<polygon id="XMLID_32541_" fill="#050001" points="1109.4,33.6 1115.6,30 1121.8,33.6 1121.8,40.8 1115.6,44.4 1109.4,40.8 "/>
<polygon id="XMLID_32540_" fill="#050001" points="1101,46.8 1107.3,43.2 1113.5,46.8 1113.5,54 1107.3,57.7 1101,54 "/>
<polygon id="XMLID_32538_" fill="#050001" points="1109.4,60.4 1115.6,56.8 1121.8,60.4 1121.8,67.6 1115.6,71.2 1109.4,67.6 "/>
<polygon id="XMLID_32537_" fill="#050001" points="1101,73.6 1107.3,70 1113.5,73.6 1113.5,80.8 1107.3,84.4 1101,80.8 "/>
<polygon id="XMLID_32536_" fill="#050001" points="1109.4,87.2 1115.6,83.6 1121.8,87.2 1121.8,94.4 1115.6,98 1109.4,94.4 "/>
<polygon id="XMLID_32535_" fill="#050001" points="1101,100.4 1107.3,96.8 1113.5,100.4 1113.5,107.6 1107.3,111.2 1101,107.6 "/>
<polygon id="XMLID_32600_" fill="#050001" points="1118,20.1 1124.3,16.5 1130.5,20.1 1130.5,27.3 1124.3,30.9 1118,27.3 "/>
<polygon id="XMLID_32534_" fill="#050001" points="1118,46.8 1124.3,43.2 1130.5,46.8 1130.5,54 1124.3,57.7 1118,54 "/>
<polygon id="XMLID_32533_" fill="#050001" points="1118,73.6 1124.3,70 1130.5,73.6 1130.5,80.8 1124.3,84.4 1118,80.8 "/>
<polygon id="XMLID_32532_" fill="#050001" points="1118,100.4 1124.3,96.8 1130.5,100.4 1130.5,107.6 1124.3,111.2 1118,107.6 "/>
<polygon id="XMLID_32607_" fill="#050001" points="1127,33.6 1133.2,30 1139.5,33.6 1139.5,40.8 1133.2,44.4 1127,40.8 "/>
<polygon id="XMLID_32606_" fill="#050001" points="1127,60.4 1133.2,56.8 1139.5,60.4 1139.5,67.6 1133.2,71.2 1127,67.6 "/>
<polygon id="XMLID_32605_" fill="#050001" points="1127,87.2 1133.2,83.6 1139.5,87.2 1139.5,94.4 1133.2,98 1127,94.4 "/>
<polygon id="XMLID_32604_" fill="#050001" points="1135.7,20.1 1141.9,16.5 1148.2,20.1 1148.2,27.3 1141.9,30.9 1135.7,27.3 "/>
<polygon id="XMLID_32603_" fill="#050001" points="1135.7,46.8 1141.9,43.2 1148.2,46.8 1148.2,54 1141.9,57.7 1135.7,54 "/>
<polygon id="XMLID_32602_" fill="#050001" points="1135.7,73.6 1141.9,70 1148.2,73.6 1148.2,80.8 1141.9,84.4 1135.7,80.8 "/>
<polygon id="XMLID_32601_" fill="#050001" points="1135.7,100.4 1141.9,96.8 1148.2,100.4 1148.2,107.6 1141.9,111.2 1135.7,107.6 
	"/>
<polygon id="XMLID_32614_" fill="#050001" points="1144.6,33.6 1150.8,30 1157.1,33.6 1157.1,40.8 1150.8,44.4 1144.6,40.8 "/>
<polygon id="XMLID_32613_" fill="#050001" points="1144.6,60.4 1150.8,56.8 1157.1,60.4 1157.1,67.6 1150.8,71.2 1144.6,67.6 "/>
<polygon id="XMLID_32612_" fill="#050001" points="1144.6,87.2 1150.8,83.6 1157.1,87.2 1157.1,94.4 1150.8,98 1144.6,94.4 "/>
<polygon id="XMLID_32611_" fill="#050001" points="1153.3,20.1 1159.5,16.5 1165.8,20.1 1165.8,27.3 1159.5,30.9 1153.3,27.3 "/>
<polygon id="XMLID_32610_" fill="#050001" points="1153.3,46.8 1159.5,43.2 1165.8,46.8 1165.8,54 1159.5,57.7 1153.3,54 "/>
<polygon id="XMLID_32609_" fill="#050001" points="1153.3,73.6 1159.5,70 1165.8,73.6 1165.8,80.8 1159.5,84.4 1153.3,80.8 "/>
<polygon id="XMLID_32608_" fill="#050001" points="1153.3,100.4 1159.5,96.8 1165.8,100.4 1165.8,107.6 1159.5,111.2 1153.3,107.6 
	"/>
<circle id="XMLID_32530_" fill="#253E67" cx="110.4" cy="62.7" r="7.5"/>
<circle id="XMLID_32616_" fill="#253E67" cx="352.9" cy="62.7" r="7.5"/>
</svg>
