<?xml version="1.0" encoding="utf-8"?>
<!-- Generator: Adobe Illustrator 16.0.0, SVG Export Plug-In . SVG Version: 6.00 Build 0)  -->
<!DOCTYPE svg PUBLIC "-//W3C//DTD SVG 1.1//EN" "http://www.w3.org/Graphics/SVG/1.1/DTD/svg11.dtd">
<svg version="1.1" id="图层_1" xmlns="http://www.w3.org/2000/svg" xmlns:xlink="http://www.w3.org/1999/xlink" x="0px" y="0px"
	 width="1417.32px" height="126.14px" viewBox="0 0 1417.32 126.14" enable-background="new 0 0 1417.32 126.14"
	 xml:space="preserve">
<g>
	<rect x="70.865" y="-0.001" fill="#C9CACA" width="1275.59" height="126.142"/>
	
		<linearGradient id="SVGID_1_" gradientUnits="userSpaceOnUse" x1="4085.3574" y1="63.0703" x2="4156.2246" y2="63.0703" gradientTransform="matrix(1 0 0 1 -4085.3594 0)">
		<stop  offset="0" style="stop-color:#727171"/>
		<stop  offset="0.7778" style="stop-color:#9FA0A0"/>
		<stop  offset="0.8835" style="stop-color:#DCDDDD"/>
		<stop  offset="1" style="stop-color:#030000"/>
	</linearGradient>
	<rect x="-0.002" fill="url(#SVGID_1_)" width="70.867" height="126.141"/>
	<g>
		<g>
			<path fill="#B7B6B6" d="M37.001,15.367c0,3.932-3.386,7.119-7.562,7.119H13.125c-4.177,0-7.563-3.188-7.563-7.119l0,0
				c0-3.931,3.386-7.117,7.563-7.117h16.314C33.615,8.25,37.001,11.437,37.001,15.367L37.001,15.367z"/>
			<path fill="#0E0D0D" d="M36.107,15.165c0,3.82-3.289,6.916-7.346,6.916H12.911c-4.059,0-7.349-3.096-7.349-6.916l0,0
				c0-3.819,3.29-6.915,7.349-6.915h15.851C32.818,8.25,36.107,11.346,36.107,15.165L36.107,15.165z"/>
		</g>
		<g>
			<path fill="#B7B6B6" d="M37.001,110.772c0,3.931-3.386,7.118-7.562,7.118H13.125c-4.177,0-7.563-3.188-7.563-7.118l0,0
				c0-3.932,3.386-7.119,7.563-7.119h16.314C33.615,103.653,37.001,106.841,37.001,110.772L37.001,110.772z"/>
			<path fill="#0E0D0D" d="M36.107,110.569c0,3.82-3.289,6.916-7.346,6.916H12.911c-4.059,0-7.349-3.096-7.349-6.916l0,0
				c0-3.82,3.29-6.916,7.349-6.916h15.851C32.818,103.653,36.107,106.749,36.107,110.569L36.107,110.569z"/>
		</g>
	</g>
	<g>
		<path fill="#AFAEAE" d="M11.016,15.368c0,5.366,4.597,9.716,10.266,9.716c5.67,0,10.266-4.35,10.266-9.716
			c0-5.367-4.596-9.718-10.266-9.718C15.612,5.65,11.016,10.001,11.016,15.368"/>
		<ellipse fill="none" stroke="#929292" stroke-miterlimit="10" cx="21.281" cy="15.368" rx="10.266" ry="9.716"/>
		<path fill="#AFAEAE" d="M13.739,15.368c0,3.942,3.377,7.14,7.542,7.14c4.166,0,7.545-3.197,7.545-7.14
			c0-3.943-3.379-7.141-7.545-7.141C17.117,8.228,13.739,11.425,13.739,15.368"/>
		<ellipse fill="none" stroke="#929292" stroke-miterlimit="10" cx="21.283" cy="15.368" rx="7.544" ry="7.14"/>
		<g>
			<g>
				<defs>
					<rect id="SVGID_2_" x="14.172" y="8.639" width="14.221" height="13.457"/>
				</defs>
				<clipPath id="SVGID_3_">
					<use xlink:href="#SVGID_2_"  overflow="visible"/>
				</clipPath>
				<path clip-path="url(#SVGID_3_)" fill="#BEBEBD" d="M14.172,15.368c0,3.716,3.184,6.728,7.109,6.728
					c3.928,0,7.112-3.012,7.112-6.728c0-3.717-3.184-6.729-7.112-6.729C17.356,8.639,14.172,11.651,14.172,15.368"/>
				<path clip-path="url(#SVGID_3_)" fill="#C0C0C0" d="M14.34,15.368c0,3.627,3.109,6.57,6.941,6.57
					c3.835,0,6.942-2.943,6.942-6.57c0-3.629-3.107-6.571-6.942-6.571C17.449,8.797,14.34,11.739,14.34,15.368"/>
				<path clip-path="url(#SVGID_3_)" fill="#C2C3C3" d="M14.507,15.368c0,3.54,3.034,6.412,6.774,6.412
					c3.743,0,6.776-2.872,6.776-6.412c0-3.542-3.033-6.413-6.776-6.413C17.542,8.955,14.507,11.826,14.507,15.368"/>
				<path clip-path="url(#SVGID_3_)" fill="#C4C5C4" d="M14.676,15.368c0,3.453,2.956,6.254,6.605,6.254
					c3.65,0,6.608-2.801,6.608-6.254c0-3.455-2.958-6.254-6.608-6.254C17.632,9.114,14.676,11.913,14.676,15.368"/>
				<path clip-path="url(#SVGID_3_)" fill="#C6C8C8" d="M14.842,15.368c0,3.364,2.884,6.096,6.439,6.096
					c3.558,0,6.441-2.731,6.441-6.096c0-3.367-2.884-6.097-6.441-6.097C17.727,9.271,14.842,12.001,14.842,15.368"/>
				<path clip-path="url(#SVGID_3_)" fill="#C9CACB" d="M15.01,15.368c0,3.278,2.808,5.937,6.271,5.937
					c3.465,0,6.274-2.658,6.274-5.937c0-3.279-2.81-5.938-6.274-5.938C17.818,9.43,15.01,12.089,15.01,15.368"/>
				<path clip-path="url(#SVGID_3_)" fill="#CBCDCD" d="M15.176,15.368c0,3.19,2.734,5.779,6.105,5.779
					c3.374,0,6.106-2.589,6.106-5.779c0-3.192-2.732-5.781-6.106-5.781C17.911,9.587,15.176,12.176,15.176,15.368"/>
				<path clip-path="url(#SVGID_3_)" fill="#CCCFD0" d="M15.342,15.368c0,3.104,2.661,5.621,5.939,5.621
					c3.28,0,5.94-2.518,5.94-5.621c0-3.104-2.66-5.621-5.94-5.621C18.003,9.747,15.342,12.264,15.342,15.368"/>
				<path clip-path="url(#SVGID_3_)" fill="#D0D2D2" d="M15.51,15.368c0,3.016,2.584,5.462,5.771,5.462
					c3.188,0,5.772-2.446,5.772-5.462c0-3.018-2.584-5.464-5.772-5.464C18.095,9.904,15.51,12.351,15.51,15.368"/>
				<path clip-path="url(#SVGID_3_)" fill="#D2D4D5" d="M15.677,15.368c0,2.929,2.51,5.304,5.604,5.304
					c3.098,0,5.604-2.375,5.604-5.304c0-2.93-2.506-5.304-5.604-5.304C18.188,10.064,15.677,12.438,15.677,15.368"/>
			</g>
		</g>
		<polygon fill="#605F5E" points="22.21,19.414 22.21,16.248 25.556,16.248 25.556,14.488 22.21,14.488 22.21,11.321 20.352,11.321 
			20.352,14.488 17.008,14.488 17.008,16.248 20.352,16.248 20.352,19.414 		"/>
		<path fill="#221714" d="M22.05,11.475v2.86v0.307h0.322h3.025v1.452h-3.025H22.05v0.304v2.862h-1.536v-2.862v-0.304h-0.321h-3.024
			v-1.452h3.024h0.321v-0.307v-2.86H22.05z M20.193,14.335h-3.346v2.063h3.346v3.167h2.179v-3.167h3.346v-2.063h-3.346V11.17h-2.179
			V14.335z"/>
	</g>
	<g>
		<path fill="#AFAEAE" d="M11.016,110.772c0,5.366,4.597,9.716,10.266,9.716c5.67,0,10.266-4.35,10.266-9.716
			s-4.596-9.717-10.266-9.717C15.612,101.056,11.016,105.406,11.016,110.772"/>
		<ellipse fill="none" stroke="#929292" stroke-miterlimit="10" cx="21.281" cy="110.772" rx="10.266" ry="9.716"/>
		<path fill="#AFAEAE" d="M13.739,110.772c0,3.942,3.377,7.14,7.542,7.14c4.166,0,7.545-3.197,7.545-7.14
			c0-3.943-3.379-7.141-7.545-7.141C17.117,103.632,13.739,106.829,13.739,110.772"/>
		<ellipse fill="none" stroke="#929292" stroke-miterlimit="10" cx="21.283" cy="110.772" rx="7.544" ry="7.14"/>
		<g>
			<g>
				<defs>
					<rect id="SVGID_4_" x="14.172" y="104.043" width="14.221" height="13.457"/>
				</defs>
				<clipPath id="SVGID_5_">
					<use xlink:href="#SVGID_4_"  overflow="visible"/>
				</clipPath>
				<path clip-path="url(#SVGID_5_)" fill="#BEBEBD" d="M14.172,110.772c0,3.716,3.184,6.728,7.109,6.728
					c3.928,0,7.112-3.012,7.112-6.728s-3.184-6.729-7.112-6.729C17.356,104.043,14.172,107.057,14.172,110.772"/>
				<path clip-path="url(#SVGID_5_)" fill="#C0C0C0" d="M14.34,110.772c0,3.627,3.109,6.569,6.941,6.569
					c3.835,0,6.942-2.942,6.942-6.569c0-3.629-3.107-6.571-6.942-6.571C17.449,104.201,14.34,107.144,14.34,110.772"/>
				<path clip-path="url(#SVGID_5_)" fill="#C2C3C3" d="M14.507,110.772c0,3.54,3.034,6.413,6.774,6.413
					c3.743,0,6.776-2.873,6.776-6.413c0-3.541-3.033-6.412-6.776-6.412C17.542,104.36,14.507,107.231,14.507,110.772"/>
				<path clip-path="url(#SVGID_5_)" fill="#C4C5C4" d="M14.676,110.772c0,3.453,2.956,6.253,6.605,6.253
					c3.65,0,6.608-2.8,6.608-6.253c0-3.454-2.958-6.254-6.608-6.254C17.632,104.519,14.676,107.318,14.676,110.772"/>
				<path clip-path="url(#SVGID_5_)" fill="#C6C8C8" d="M14.842,110.772c0,3.364,2.884,6.095,6.439,6.095
					c3.558,0,6.441-2.73,6.441-6.095c0-3.367-2.884-6.097-6.441-6.097C17.727,104.676,14.842,107.405,14.842,110.772"/>
				<path clip-path="url(#SVGID_5_)" fill="#C9CACB" d="M15.01,110.772c0,3.278,2.808,5.937,6.271,5.937
					c3.465,0,6.274-2.658,6.274-5.937c0-3.28-2.81-5.938-6.274-5.938C17.818,104.834,15.01,107.492,15.01,110.772"/>
				<path clip-path="url(#SVGID_5_)" fill="#CBCDCD" d="M15.176,110.772c0,3.19,2.734,5.779,6.105,5.779
					c3.374,0,6.106-2.589,6.106-5.779c0-3.192-2.732-5.781-6.106-5.781C17.911,104.991,15.176,107.58,15.176,110.772"/>
				<path clip-path="url(#SVGID_5_)" fill="#CCCFD0" d="M15.342,110.772c0,3.104,2.661,5.621,5.939,5.621
					c3.28,0,5.94-2.518,5.94-5.621c0-3.104-2.66-5.621-5.94-5.621C18.003,105.151,15.342,107.668,15.342,110.772"/>
				<path clip-path="url(#SVGID_5_)" fill="#D0D2D2" d="M15.51,110.772c0,3.016,2.584,5.462,5.771,5.462
					c3.188,0,5.772-2.446,5.772-5.462c0-3.018-2.584-5.464-5.772-5.464C18.095,105.309,15.51,107.755,15.51,110.772"/>
				<path clip-path="url(#SVGID_5_)" fill="#D2D4D5" d="M15.677,110.772c0,2.928,2.51,5.304,5.604,5.304
					c3.098,0,5.604-2.376,5.604-5.304c0-2.931-2.506-5.305-5.604-5.305C18.188,105.468,15.677,107.842,15.677,110.772"/>
			</g>
		</g>
		<polygon fill="#605F5E" points="22.21,114.818 22.21,111.651 25.556,111.651 25.556,109.894 22.21,109.894 22.21,106.726 
			20.352,106.726 20.352,109.894 17.008,109.894 17.008,111.651 20.352,111.651 20.352,114.818 		"/>
		<path fill="#221714" d="M22.05,106.879v2.86v0.307h0.322h3.025v1.452h-3.025H22.05v0.304v2.862h-1.536v-2.862v-0.304h-0.321
			h-3.024v-1.452h3.024h0.321v-0.307v-2.86H22.05z M20.193,109.739h-3.346v2.063h3.346v3.167h2.179v-3.167h3.346v-2.063h-3.346
			v-3.165h-2.179V109.739z"/>
	</g>
	
		<linearGradient id="SVGID_6_" gradientUnits="userSpaceOnUse" x1="-5128.0117" y1="63.0703" x2="-5057.1455" y2="63.0703" gradientTransform="matrix(-1 0 0 1 -3710.6895 0)">
		<stop  offset="0" style="stop-color:#727171"/>
		<stop  offset="0.7778" style="stop-color:#9FA0A0"/>
		<stop  offset="0.8835" style="stop-color:#DCDDDD"/>
		<stop  offset="1" style="stop-color:#030000"/>
	</linearGradient>
	<rect x="1346.456" fill="url(#SVGID_6_)" width="70.866" height="126.141"/>
	<g>
		<g>
			<path fill="#B7B6B6" d="M1380.321,15.367c0,3.932,3.384,7.119,7.562,7.119h16.314c4.176,0,7.563-3.188,7.563-7.119l0,0
				c0-3.931-3.387-7.117-7.563-7.117h-16.314C1383.705,8.25,1380.321,11.437,1380.321,15.367L1380.321,15.367z"/>
			<path fill="#0E0D0D" d="M1381.214,15.165c0,3.82,3.288,6.916,7.346,6.916h15.851c4.059,0,7.35-3.096,7.35-6.916l0,0
				c0-3.819-3.291-6.915-7.35-6.915h-15.851C1384.502,8.25,1381.214,11.346,1381.214,15.165L1381.214,15.165z"/>
		</g>
		<g>
			<path fill="#B7B6B6" d="M1380.321,110.772c0,3.931,3.384,7.118,7.562,7.118h16.314c4.176,0,7.563-3.188,7.563-7.118l0,0
				c0-3.932-3.387-7.119-7.563-7.119h-16.314C1383.705,103.653,1380.321,106.841,1380.321,110.772L1380.321,110.772z"/>
			<path fill="#0E0D0D" d="M1381.214,110.569c0,3.82,3.288,6.916,7.346,6.916h15.851c4.059,0,7.35-3.096,7.35-6.916l0,0
				c0-3.82-3.291-6.916-7.35-6.916h-15.851C1384.502,103.653,1381.214,106.749,1381.214,110.569L1381.214,110.569z"/>
		</g>
	</g>
	<g>
		<g>
			<path fill="#AFAEAE" d="M1406.305,15.368c0,5.366-4.596,9.716-10.266,9.716s-10.267-4.35-10.267-9.716
				c0-5.367,4.597-9.718,10.267-9.718S1406.305,10.001,1406.305,15.368"/>
			<ellipse fill="none" stroke="#929292" stroke-miterlimit="10" cx="1396.039" cy="15.368" rx="10.266" ry="9.716"/>
			<path fill="#AFAEAE" d="M1403.582,15.368c0,3.942-3.379,7.14-7.543,7.14c-4.166,0-7.545-3.197-7.545-7.14
				c0-3.943,3.379-7.141,7.545-7.141C1400.203,8.228,1403.582,11.425,1403.582,15.368"/>
			<ellipse fill="none" stroke="#929292" stroke-miterlimit="10" cx="1396.038" cy="15.368" rx="7.544" ry="7.14"/>
			<g>
				<g>
					<defs>
						<rect id="SVGID_7_" x="1388.928" y="8.639" width="14.221" height="13.457"/>
					</defs>
					<clipPath id="SVGID_8_">
						<use xlink:href="#SVGID_7_"  overflow="visible"/>
					</clipPath>
					<path clip-path="url(#SVGID_8_)" fill="#BEBEBD" d="M1403.148,15.368c0,3.716-3.184,6.728-7.109,6.728
						c-3.927,0-7.111-3.012-7.111-6.728c0-3.717,3.185-6.729,7.111-6.729C1399.965,8.639,1403.148,11.651,1403.148,15.368"/>
					<path clip-path="url(#SVGID_8_)" fill="#C0C0C0" d="M1402.98,15.368c0,3.627-3.109,6.57-6.941,6.57
						c-3.834,0-6.941-2.943-6.941-6.57c0-3.629,3.107-6.571,6.941-6.571C1399.871,8.797,1402.98,11.739,1402.98,15.368"/>
					<path clip-path="url(#SVGID_8_)" fill="#C2C3C3" d="M1402.814,15.368c0,3.54-3.034,6.412-6.775,6.412
						c-3.742,0-6.775-2.872-6.775-6.412c0-3.542,3.033-6.413,6.775-6.413C1399.78,8.955,1402.814,11.826,1402.814,15.368"/>
					<path clip-path="url(#SVGID_8_)" fill="#C4C5C4" d="M1402.646,15.368c0,3.453-2.957,6.254-6.606,6.254
						c-3.65,0-6.608-2.801-6.608-6.254c0-3.455,2.958-6.254,6.608-6.254C1399.688,9.114,1402.646,11.913,1402.646,15.368"/>
					<path clip-path="url(#SVGID_8_)" fill="#C6C8C8" d="M1402.479,15.368c0,3.364-2.884,6.096-6.439,6.096
						c-3.559,0-6.44-2.731-6.44-6.096c0-3.367,2.882-6.097,6.44-6.097C1399.595,9.271,1402.479,12.001,1402.479,15.368"/>
					<path clip-path="url(#SVGID_8_)" fill="#C9CACB" d="M1402.312,15.368c0,3.278-2.81,5.937-6.272,5.937
						c-3.464,0-6.275-2.658-6.275-5.937c0-3.279,2.812-5.938,6.275-5.938C1399.502,9.43,1402.312,12.089,1402.312,15.368"/>
					<path clip-path="url(#SVGID_8_)" fill="#CBCDCD" d="M1402.146,15.368c0,3.19-2.735,5.779-6.106,5.779
						c-3.373,0-6.105-2.589-6.105-5.779c0-3.192,2.732-5.781,6.105-5.781C1399.41,9.587,1402.146,12.176,1402.146,15.368"/>
					<path clip-path="url(#SVGID_8_)" fill="#CCCFD0" d="M1401.979,15.368c0,3.104-2.66,5.621-5.939,5.621s-5.939-2.518-5.939-5.621
						c0-3.104,2.66-5.621,5.939-5.621S1401.979,12.264,1401.979,15.368"/>
					<path clip-path="url(#SVGID_8_)" fill="#D0D2D2" d="M1401.811,15.368c0,3.016-2.584,5.462-5.771,5.462
						s-5.771-2.446-5.771-5.462c0-3.018,2.584-5.464,5.771-5.464S1401.811,12.351,1401.811,15.368"/>
					<path clip-path="url(#SVGID_8_)" fill="#D2D4D5" d="M1401.644,15.368c0,2.929-2.511,5.304-5.604,5.304
						c-3.097,0-5.604-2.375-5.604-5.304c0-2.93,2.508-5.304,5.604-5.304C1399.133,10.064,1401.644,12.438,1401.644,15.368"/>
				</g>
			</g>
			<polygon fill="#605F5E" points="1395.11,19.414 1395.11,16.248 1391.764,16.248 1391.764,14.488 1395.11,14.488 1395.11,11.321 
				1396.969,11.321 1396.969,14.488 1400.313,14.488 1400.313,16.248 1396.969,16.248 1396.969,19.414 			"/>
			<path fill="#221714" d="M1396.807,11.475v2.86v0.307h0.321h3.024v1.452h-3.024h-0.321v0.304v2.862h-1.535v-2.862v-0.304h-0.322
				h-3.023v-1.452h3.023h0.322v-0.307v-2.86H1396.807z M1397.128,11.17h-2.179v3.165h-3.346v2.063h3.346v3.167h2.179v-3.167h3.346
				v-2.063h-3.346V11.17z"/>
		</g>
		<g>
			<path fill="#AFAEAE" d="M1406.305,110.772c0,5.366-4.596,9.716-10.266,9.716s-10.267-4.35-10.267-9.716s4.597-9.717,10.267-9.717
				S1406.305,105.406,1406.305,110.772"/>
			<ellipse fill="none" stroke="#929292" stroke-miterlimit="10" cx="1396.039" cy="110.772" rx="10.266" ry="9.716"/>
			<path fill="#AFAEAE" d="M1403.582,110.772c0,3.942-3.379,7.14-7.543,7.14c-4.166,0-7.545-3.197-7.545-7.14
				c0-3.943,3.379-7.141,7.545-7.141C1400.203,103.632,1403.582,106.829,1403.582,110.772"/>
			<ellipse fill="none" stroke="#929292" stroke-miterlimit="10" cx="1396.038" cy="110.772" rx="7.544" ry="7.14"/>
			<g>
				<g>
					<defs>
						<rect id="SVGID_9_" x="1388.928" y="104.043" width="14.221" height="13.457"/>
					</defs>
					<clipPath id="SVGID_10_">
						<use xlink:href="#SVGID_9_"  overflow="visible"/>
					</clipPath>
					<path clip-path="url(#SVGID_10_)" fill="#BEBEBD" d="M1403.148,110.772c0,3.716-3.184,6.728-7.109,6.728
						c-3.927,0-7.111-3.012-7.111-6.728s3.185-6.729,7.111-6.729C1399.965,104.043,1403.148,107.057,1403.148,110.772"/>
					<path clip-path="url(#SVGID_10_)" fill="#C0C0C0" d="M1402.98,110.772c0,3.627-3.109,6.569-6.941,6.569
						c-3.834,0-6.941-2.942-6.941-6.569c0-3.629,3.107-6.571,6.941-6.571C1399.871,104.201,1402.98,107.144,1402.98,110.772"/>
					<path clip-path="url(#SVGID_10_)" fill="#C2C3C3" d="M1402.814,110.772c0,3.54-3.034,6.413-6.775,6.413
						c-3.742,0-6.775-2.873-6.775-6.413c0-3.541,3.033-6.412,6.775-6.412C1399.78,104.36,1402.814,107.231,1402.814,110.772"/>
					<path clip-path="url(#SVGID_10_)" fill="#C4C5C4" d="M1402.646,110.772c0,3.453-2.957,6.253-6.606,6.253
						c-3.65,0-6.608-2.8-6.608-6.253c0-3.454,2.958-6.254,6.608-6.254C1399.688,104.519,1402.646,107.318,1402.646,110.772"/>
					<path clip-path="url(#SVGID_10_)" fill="#C6C8C8" d="M1402.479,110.772c0,3.364-2.884,6.095-6.439,6.095
						c-3.559,0-6.44-2.73-6.44-6.095c0-3.367,2.882-6.097,6.44-6.097C1399.595,104.676,1402.479,107.405,1402.479,110.772"/>
					<path clip-path="url(#SVGID_10_)" fill="#C9CACB" d="M1402.312,110.772c0,3.278-2.81,5.937-6.272,5.937
						c-3.464,0-6.275-2.658-6.275-5.937c0-3.28,2.812-5.938,6.275-5.938C1399.502,104.834,1402.312,107.492,1402.312,110.772"/>
					<path clip-path="url(#SVGID_10_)" fill="#CBCDCD" d="M1402.146,110.772c0,3.19-2.735,5.779-6.106,5.779
						c-3.373,0-6.105-2.589-6.105-5.779c0-3.192,2.732-5.781,6.105-5.781C1399.41,104.991,1402.146,107.58,1402.146,110.772"/>
					<path clip-path="url(#SVGID_10_)" fill="#CCCFD0" d="M1401.979,110.772c0,3.104-2.66,5.621-5.939,5.621
						s-5.939-2.518-5.939-5.621c0-3.104,2.66-5.621,5.939-5.621S1401.979,107.668,1401.979,110.772"/>
					<path clip-path="url(#SVGID_10_)" fill="#D0D2D2" d="M1401.811,110.772c0,3.016-2.584,5.462-5.771,5.462
						s-5.771-2.446-5.771-5.462c0-3.018,2.584-5.464,5.771-5.464S1401.811,107.755,1401.811,110.772"/>
					<path clip-path="url(#SVGID_10_)" fill="#D2D4D5" d="M1401.644,110.772c0,2.928-2.511,5.304-5.604,5.304
						c-3.097,0-5.604-2.376-5.604-5.304c0-2.931,2.508-5.305,5.604-5.305C1399.133,105.468,1401.644,107.842,1401.644,110.772"/>
				</g>
			</g>
			<polygon fill="#605F5E" points="1395.11,114.818 1395.11,111.651 1391.764,111.651 1391.764,109.894 1395.11,109.894 
				1395.11,106.726 1396.969,106.726 1396.969,109.894 1400.313,109.894 1400.313,111.651 1396.969,111.651 1396.969,114.818 			"/>
			<path fill="#221714" d="M1396.807,106.879v2.86v0.307h0.321h3.024v1.452h-3.024h-0.321v0.304v2.862h-1.535v-2.862v-0.304h-0.322
				h-3.023v-1.452h3.023h0.322v-0.307v-2.86H1396.807z M1397.128,106.574h-2.179v3.165h-3.346v2.063h3.346v3.167h2.179v-3.167h3.346
				v-2.063h-3.346V106.574z"/>
		</g>
	</g>
	
		<radialGradient id="SVGID_11_" cx="167.6006" cy="-303.5986" r="6.1343" gradientTransform="matrix(1 0 0 1 436.9473 363.4463)" gradientUnits="userSpaceOnUse">
		<stop  offset="0" style="stop-color:#FFFFFF"/>
		<stop  offset="1" style="stop-color:#8DC21F"/>
	</radialGradient>
	<circle fill="url(#SVGID_11_)" stroke="#030000" stroke-width="0.5" stroke-miterlimit="10" cx="604.548" cy="59.848" r="6.134"/>
	
		<radialGradient id="SVGID_12_" cx="196.6807" cy="-303.5986" r="6.134" gradientTransform="matrix(1 0 0 1 436.9473 363.4463)" gradientUnits="userSpaceOnUse">
		<stop  offset="0" style="stop-color:#FFFFFF"/>
		<stop  offset="1" style="stop-color:#C30D23"/>
	</radialGradient>
	<circle fill="url(#SVGID_12_)" stroke="#030000" stroke-width="0.5" stroke-miterlimit="10" cx="633.628" cy="59.848" r="6.133"/>
	
		<radialGradient id="SVGID_13_" cx="225.7617" cy="-303.5986" r="6.1343" gradientTransform="matrix(1 0 0 1 436.9473 363.4463)" gradientUnits="userSpaceOnUse">
		<stop  offset="0" style="stop-color:#FFFFFF"/>
		<stop  offset="1" style="stop-color:#C30D23"/>
	</radialGradient>
	<circle fill="url(#SVGID_13_)" stroke="#030000" stroke-width="0.5" stroke-miterlimit="10" cx="662.709" cy="59.848" r="6.134"/>
	
		<radialGradient id="SVGID_14_" cx="253.7534" cy="-303.5986" r="6.1343" gradientTransform="matrix(1 0 0 1 436.9473 363.4463)" gradientUnits="userSpaceOnUse">
		<stop  offset="0" style="stop-color:#FFFFFF"/>
		<stop  offset="1" style="stop-color:#C30D23"/>
	</radialGradient>
	<circle fill="url(#SVGID_14_)" stroke="#030000" stroke-width="0.5" stroke-miterlimit="10" cx="690.701" cy="59.848" r="6.134"/>
	
		<radialGradient id="SVGID_15_" cx="281.7451" cy="-303.5986" r="6.1343" gradientTransform="matrix(1 0 0 1 436.9473 363.4463)" gradientUnits="userSpaceOnUse">
		<stop  offset="0" style="stop-color:#FFFFFF"/>
		<stop  offset="1" style="stop-color:#C30D23"/>
	</radialGradient>
	<circle fill="url(#SVGID_15_)" stroke="#030000" stroke-width="0.5" stroke-miterlimit="10" cx="718.692" cy="59.848" r="6.134"/>
	
		<radialGradient id="SVGID_16_" cx="309.7373" cy="-303.5986" r="6.1343" gradientTransform="matrix(1 0 0 1 436.9473 363.4463)" gradientUnits="userSpaceOnUse">
		<stop  offset="0" style="stop-color:#FFFFFF"/>
		<stop  offset="1" style="stop-color:#C30D23"/>
	</radialGradient>
	<circle fill="url(#SVGID_16_)" stroke="#030000" stroke-width="0.5" stroke-miterlimit="10" cx="746.685" cy="59.848" r="6.134"/>
	<text transform="matrix(1.1123 0 0 1 125.1475 101.0547)" font-family="'NotoSansHans-Medium-GBpc-EUC-H'" font-size="20.3733">OLP-EDFA</text>
	
		<text transform="matrix(1.1123 0 0 1 129.2993 35.6021)" fill="#2170B7" font-family="'NotoSansHans-Medium-GBpc-EUC-H'" font-size="18.3035">光 远 科 技</text>
	<g>
		<linearGradient id="SVGID_17_" gradientUnits="userSpaceOnUse" x1="301.498" y1="63.0698" x2="357.7339" y2="63.0698">
			<stop  offset="0" style="stop-color:#919292"/>
			<stop  offset="0.061" style="stop-color:#DCDDDD"/>
			<stop  offset="0.9172" style="stop-color:#C9CACA"/>
			<stop  offset="1" style="stop-color:#919292"/>
		</linearGradient>
		<path fill="url(#SVGID_17_)" d="M357.734,101.726c0,2.761-2.239,5-5,5h-46.236c-2.761,0-5-2.239-5-5V24.414c0-2.762,2.239-5,5-5
			h46.236c2.761,0,5,2.238,5,5V101.726z"/>
		<g>
			<g>
				<defs>
					<rect id="SVGID_18_" x="313.285" y="33.409" width="33.438" height="60.879"/>
				</defs>
				<clipPath id="SVGID_19_">
					<use xlink:href="#SVGID_18_"  overflow="visible"/>
				</clipPath>
				
					<linearGradient id="SVGID_20_" gradientUnits="userSpaceOnUse" x1="-23.6772" y1="474.4961" x2="-22.6597" y2="474.4961" gradientTransform="matrix(0 79.8244 79.8244 0 -37546.3125 1912.5)">
					<stop  offset="0" style="stop-color:#113577"/>
					<stop  offset="0.2581" style="stop-color:#162145"/>
					<stop  offset="1" style="stop-color:#03051D"/>
				</linearGradient>
				<rect x="313.285" y="33.409" clip-path="url(#SVGID_19_)" fill="url(#SVGID_20_)" width="33.438" height="60.879"/>
			</g>
			<g>
				<defs>
					<path id="SVGID_21_" d="M346.808,92.802V33.336c0-0.288-0.131-0.459-0.084-0.467h-34.148c-0.056,0.057-0.15,0.218-0.15,0.467
						v59.466c0,0.29,0.127,0.462,0.081,0.469l34.12,0.021C346.677,93.264,346.808,93.092,346.808,92.802"/>
				</defs>
				<clipPath id="SVGID_22_">
					<use xlink:href="#SVGID_21_"  overflow="visible"/>
				</clipPath>
				
					<linearGradient id="SVGID_23_" gradientUnits="userSpaceOnUse" x1="-239.3613" y1="204.1035" x2="-238.3435" y2="204.1035" gradientTransform="matrix(0 -58.6222 -58.6222 0 12294.625 -13939.2188)">
					<stop  offset="0" style="stop-color:#2E2523"/>
					<stop  offset="1" style="stop-color:#342E2B"/>
				</linearGradient>
				<rect x="312.426" y="32.869" clip-path="url(#SVGID_22_)" fill="url(#SVGID_23_)" width="34.382" height="60.422"/>
			</g>
			<path d="M313.559,33.886h32.114v58.367h-32.114V33.886z M312.507,94.288h34.217c0.67,0,1.22-0.665,1.22-1.486V33.336
				c0-0.823-0.55-1.485-1.22-1.485h-34.217c-0.673,0-1.218,0.662-1.218,1.485v59.466C311.289,93.623,311.834,94.288,312.507,94.288"
				/>
			<path fill="#030303" d="M317.51,41.821c0-0.589,0.36-1.063,0.806-1.063h22.603c0.442,0,0.804,0.474,0.804,1.063v42.496
				c0,0.586-0.362,1.061-0.804,1.061h-22.603c-0.445,0-0.806-0.475-0.806-1.061V41.821z"/>
			<g>
				<defs>
					<path id="SVGID_24_" d="M339.423,82.433c0.387,0,0.697-0.414,0.697-0.926V63.068h-21.009v18.438
						c0,0.512,0.313,0.926,0.696,0.926H339.423z"/>
				</defs>
				<clipPath id="SVGID_25_">
					<use xlink:href="#SVGID_24_"  overflow="visible"/>
				</clipPath>
				
					<linearGradient id="SVGID_26_" gradientUnits="userSpaceOnUse" x1="-437.2583" y1="-43.9868" x2="-436.2403" y2="-43.9868" gradientTransform="matrix(0 -22.6221 -22.6221 0 -665.4688 -9817.4844)">
					<stop  offset="0" style="stop-color:#251C18"/>
					<stop  offset="1" style="stop-color:#524E4E"/>
				</linearGradient>
				<rect x="319.111" y="63.068" clip-path="url(#SVGID_25_)" fill="url(#SVGID_26_)" width="21.009" height="19.364"/>
			</g>
			<path fill="#050505" d="M340.12,63.068V44.627c0-0.511-0.31-0.92-0.695-0.92h-19.619c-0.385,0-0.696,0.409-0.696,0.92v18.441
				H340.12z"/>
			<path fill="#121212" d="M340.12,63.068V44.627c0-0.511-0.31-0.92-0.695-0.92h-19.619c-0.385,0-0.696,0.409-0.696,0.92v18.441
				H340.12z"/>
			<rect x="319.111" y="62.271" fill="#030303" width="21.008" height="0.797"/>
			<rect x="328.856" y="68.103" fill="#FFFFFF" width="2.295" height="9.294"/>
			
				<ellipse fill="none" stroke="#FFFFFF" stroke-width="0.783" stroke-miterlimit="10" cx="329.559" cy="53.342" rx="1.816" ry="1.629"/>
		</g>
	</g>
	<text transform="matrix(1 0 0 1 367.1704 33.6021)" font-family="'NotoSansHans-Medium-GBpc-EUC-H'" font-size="12">ON</text>
	<text transform="matrix(1 0 0 1 366.1704 100.0547)" font-family="'NotoSansHans-Medium-GBpc-EUC-H'" font-size="12">OFF</text>
	<linearGradient id="SVGID_27_" gradientUnits="userSpaceOnUse" x1="906.8047" y1="63.9941" x2="993.1289" y2="63.9941">
		<stop  offset="0" style="stop-color:#919292"/>
		<stop  offset="0.3548" style="stop-color:#919292"/>
		<stop  offset="0.432" style="stop-color:#C9CACA"/>
		<stop  offset="0.871" style="stop-color:#919292"/>
		<stop  offset="0.9172" style="stop-color:#C9CACA"/>
		<stop  offset="1" style="stop-color:#919292"/>
	</linearGradient>
	<rect x="906.805" y="20.414" fill="url(#SVGID_27_)" width="86.324" height="87.16"/>
	<linearGradient id="SVGID_28_" gradientUnits="userSpaceOnUse" x1="990.7705" y1="63.9941" x2="1077.0938" y2="63.9941">
		<stop  offset="0" style="stop-color:#919292"/>
		<stop  offset="0.3548" style="stop-color:#919292"/>
		<stop  offset="0.432" style="stop-color:#C9CACA"/>
		<stop  offset="0.871" style="stop-color:#919292"/>
		<stop  offset="0.9172" style="stop-color:#C9CACA"/>
		<stop  offset="1" style="stop-color:#919292"/>
	</linearGradient>
	<rect x="990.771" y="20.414" fill="url(#SVGID_28_)" width="86.323" height="87.16"/>
	<linearGradient id="SVGID_29_" gradientUnits="userSpaceOnUse" x1="1074.7373" y1="63.9941" x2="1161.0605" y2="63.9941">
		<stop  offset="0" style="stop-color:#919292"/>
		<stop  offset="0.3548" style="stop-color:#919292"/>
		<stop  offset="0.432" style="stop-color:#C9CACA"/>
		<stop  offset="0.871" style="stop-color:#919292"/>
		<stop  offset="0.9172" style="stop-color:#C9CACA"/>
		<stop  offset="1" style="stop-color:#919292"/>
	</linearGradient>
	<rect x="1074.737" y="20.414" fill="url(#SVGID_29_)" width="86.323" height="87.16"/>
	<g>
		<g>
			<path fill="#AFAEAE" d="M946.157,46.316c0,6.103,4.965,11.051,11.089,11.051c6.123,0,11.087-4.948,11.087-11.051
				c0-6.104-4.964-11.052-11.087-11.052C951.122,35.265,946.157,40.212,946.157,46.316"/>
			<ellipse fill="none" stroke="#929292" stroke-miterlimit="10" cx="957.245" cy="46.316" rx="11.088" ry="11.051"/>
			<path fill="#141414" d="M949.1,46.316c0,4.483,3.648,8.119,8.146,8.119c4.5,0,8.148-3.636,8.148-8.119
				c0-4.485-3.648-8.121-8.148-8.121C952.748,38.195,949.1,41.831,949.1,46.316"/>
			<ellipse fill="none" stroke="#929292" stroke-miterlimit="10" cx="957.247" cy="46.316" rx="8.147" ry="8.119"/>
		</g>
		<g>
			<path fill="#AFAEAE" d="M946.157,85.649c0,6.103,4.965,11.051,11.089,11.051c6.123,0,11.087-4.948,11.087-11.051
				c0-6.104-4.964-11.052-11.087-11.052C951.122,74.598,946.157,79.545,946.157,85.649"/>
			<ellipse fill="none" stroke="#929292" stroke-miterlimit="10" cx="957.245" cy="85.649" rx="11.088" ry="11.051"/>
			<path fill="#141414" d="M949.1,85.649c0,4.483,3.648,8.119,8.146,8.119c4.5,0,8.148-3.636,8.148-8.119
				c0-4.485-3.648-8.121-8.148-8.121C952.748,77.528,949.1,81.164,949.1,85.649"/>
			<ellipse fill="none" stroke="#929292" stroke-miterlimit="10" cx="957.247" cy="85.649" rx="8.147" ry="8.119"/>
		</g>
	</g>
	<g>
		<g>
			<path fill="#AFAEAE" d="M1032.176,46.316c0,6.103,4.964,11.051,11.088,11.051s11.087-4.948,11.087-11.051
				c0-6.104-4.963-11.052-11.087-11.052S1032.176,40.212,1032.176,46.316"/>
			<ellipse fill="none" stroke="#929292" stroke-miterlimit="10" cx="1043.263" cy="46.316" rx="11.087" ry="11.051"/>
			<path fill="#141414" d="M1035.117,46.316c0,4.483,3.648,8.119,8.146,8.119c4.5,0,8.148-3.636,8.148-8.119
				c0-4.485-3.648-8.121-8.148-8.121C1038.766,38.195,1035.117,41.831,1035.117,46.316"/>
			<ellipse fill="none" stroke="#929292" stroke-miterlimit="10" cx="1043.265" cy="46.316" rx="8.147" ry="8.119"/>
		</g>
		<g>
			<path fill="#AFAEAE" d="M1032.176,85.649c0,6.103,4.964,11.051,11.088,11.051s11.087-4.948,11.087-11.051
				c0-6.104-4.963-11.052-11.087-11.052S1032.176,79.545,1032.176,85.649"/>
			<ellipse fill="none" stroke="#929292" stroke-miterlimit="10" cx="1043.263" cy="85.649" rx="11.087" ry="11.051"/>
			<path fill="#141414" d="M1035.117,85.649c0,4.483,3.648,8.119,8.146,8.119c4.5,0,8.148-3.636,8.148-8.119
				c0-4.485-3.648-8.121-8.148-8.121C1038.766,77.528,1035.117,81.164,1035.117,85.649"/>
			<ellipse fill="none" stroke="#929292" stroke-miterlimit="10" cx="1043.265" cy="85.649" rx="8.147" ry="8.119"/>
		</g>
	</g>
	<g>
		<path fill="#AFAEAE" d="M1114.824,84.912c0,6.103,4.965,11.05,11.088,11.05c6.125,0,11.088-4.947,11.088-11.05
			c0-6.104-4.963-11.053-11.088-11.053C1119.789,73.859,1114.824,78.808,1114.824,84.912"/>
		<ellipse fill="none" stroke="#929292" stroke-miterlimit="10" cx="1125.912" cy="84.912" rx="11.088" ry="11.05"/>
		<path fill="#141414" d="M1117.766,84.912c0,4.482,3.648,8.119,8.146,8.119c4.5,0,8.149-3.637,8.149-8.119
			c0-4.485-3.649-8.122-8.149-8.122C1121.414,76.79,1117.766,80.427,1117.766,84.912"/>
		<ellipse fill="none" stroke="#929292" stroke-miterlimit="10" cx="1125.914" cy="84.912" rx="8.148" ry="8.119"/>
	</g>
</g>
</svg>
