<?xml version="1.0" encoding="utf-8"?>
<!-- Generator: Adobe Illustrator 21.0.0, SVG Export Plug-In . SVG Version: 6.00 Build 0)  -->
<svg version="1.1" id="图层_1" xmlns="http://www.w3.org/2000/svg" xmlns:xlink="http://www.w3.org/1999/xlink" x="0px" y="0px"
	 width="1275.6px" height="126.1px" viewBox="0 0 1275.6 126.1" enable-background="new 0 0 1275.6 126.1" xml:space="preserve">
<g id="XMLID_20295_">
	<rect id="XMLID_20317_" x="1" y="1" fill="#C1C1C1" width="1273.6" height="124.1"/>
	<g id="XMLID_20313_">
		<path id="XMLID_20314_" d="M1273.6,2v122.1H2V2H1273.6 M1275.6,0H0v126.1h1275.6V0L1275.6,0z"/>
	</g>
</g>
<linearGradient id="XMLID_3_" gradientUnits="userSpaceOnUse" x1="1949.691" y1="-1128.8301" x2="1962.2089" y2="-1128.8301" gradientTransform="matrix(0.4333 0.9012 -0.9012 0.4333 -1851.3025 -1216.8365)">
	<stop  offset="0" style="stop-color:#FFFFFF"/>
	<stop  offset="1" style="stop-color:#000000"/>
</linearGradient>
<circle id="XMLID_20293_" fill="url(#XMLID_3_)" cx="13.6" cy="56.8" r="6.3"/>
<ellipse id="XMLID_20292_" transform="matrix(0.9012 -0.4333 0.4333 0.9012 -23.2755 11.4985)" fill="#232322" cx="13.6" cy="56.8" rx="3.4" ry="3.4"/>
<g id="XMLID_23059_">
	<path id="XMLID_23092_" fill="#3E3A39" d="M1201.1,95.8c-1.6,0-2.8-1.3-2.8-2.8V27.5c0-1.6,1.3-2.8,2.8-2.8h50
		c1.6,0,2.8,1.3,2.8,2.8V93c0,1.6-1.3,2.8-2.8,2.8H1201.1z"/>
	<path id="XMLID_23091_" fill="none" stroke="#000000" stroke-width="2" stroke-miterlimit="10" d="M1201.1,95.8
		c-1.6,0-2.8-1.3-2.8-2.8V27.5c0-1.6,1.3-2.8,2.8-2.8h50c1.6,0,2.8,1.3,2.8,2.8V93c0,1.6-1.3,2.8-2.8,2.8H1201.1z"/>
	<polygon id="XMLID_23090_" fill="#231815" points="1207.7,35.7 1235.2,35.7 1244.4,45 1244.4,75.8 1234.8,84.8 1207.7,84.8 	"/>
	<rect id="XMLID_23065_" x="1217.8" y="71.5" fill="#343842" width="10.4" height="3.1"/>
	<rect id="XMLID_23064_" x="1217.8" y="71.5" fill="#8D919A" width="8.6" height="1.6"/>
	<rect id="XMLID_23063_" x="1224.3" y="58" fill="#343842" width="10.4" height="3.1"/>
	<rect id="XMLID_23062_" x="1224.3" y="58" fill="#8D919A" width="8.6" height="1.6"/>
	<rect id="XMLID_23061_" x="1217.8" y="44.4" fill="#343842" width="10.4" height="3.1"/>
	<rect id="XMLID_23060_" x="1217.8" y="44.4" fill="#8D919A" width="8.6" height="1.6"/>
</g>
<rect id="XMLID_20305_" x="103.9" y="79.6" fill="#030000" width="43.1" height="36.6"/>
<linearGradient id="XMLID_4_" gradientUnits="userSpaceOnUse" x1="182.0045" y1="133.2628" x2="224.0133" y2="133.2628" gradientTransform="matrix(-1 0 0 -1 328.4849 231.148)">
	<stop  offset="0" style="stop-color:#FFFFFF"/>
	<stop  offset="0.1688" style="stop-color:#B1B4B5"/>
	<stop  offset="0.4086" style="stop-color:#E0E0DF"/>
	<stop  offset="0.7581" style="stop-color:#B1B4B5"/>
	<stop  offset="1" style="stop-color:#C2C2C2"/>
</linearGradient>
<rect id="XMLID_20304_" x="104.5" y="80.3" fill="url(#XMLID_4_)" width="42" height="35.2"/>
<rect id="XMLID_20327_" x="159.8" y="79.6" fill="#030000" width="43.1" height="36.6"/>
<linearGradient id="XMLID_5_" gradientUnits="userSpaceOnUse" x1="126.1633" y1="133.2628" x2="168.1721" y2="133.2628" gradientTransform="matrix(-1 0 0 -1 328.4849 231.148)">
	<stop  offset="0" style="stop-color:#FFFFFF"/>
	<stop  offset="0.1688" style="stop-color:#B1B4B5"/>
	<stop  offset="0.4086" style="stop-color:#E0E0DF"/>
	<stop  offset="0.7581" style="stop-color:#B1B4B5"/>
	<stop  offset="1" style="stop-color:#C2C2C2"/>
</linearGradient>
<rect id="XMLID_20326_" x="160.3" y="80.3" fill="url(#XMLID_5_)" width="42" height="35.2"/>
<g id="XMLID_20340_">
	<rect id="XMLID_20342_" x="215.6" y="79.6" fill="#030000" width="43.1" height="36.6"/>
	
		<linearGradient id="XMLID_6_" gradientUnits="userSpaceOnUse" x1="70.3221" y1="133.2628" x2="112.3309" y2="133.2628" gradientTransform="matrix(-1 0 0 -1 328.4849 231.148)">
		<stop  offset="0" style="stop-color:#FFFFFF"/>
		<stop  offset="0.1688" style="stop-color:#B1B4B5"/>
		<stop  offset="0.4086" style="stop-color:#E0E0DF"/>
		<stop  offset="0.7581" style="stop-color:#B1B4B5"/>
		<stop  offset="1" style="stop-color:#C2C2C2"/>
	</linearGradient>
	<rect id="XMLID_20341_" x="216.2" y="80.3" fill="url(#XMLID_6_)" width="42" height="35.2"/>
</g>
<g id="XMLID_20434_">
	<rect id="XMLID_20436_" x="395.1" y="79.6" fill="#030000" width="43.1" height="36.6"/>
	
		<linearGradient id="XMLID_7_" gradientUnits="userSpaceOnUse" x1="-109.1407" y1="133.2628" x2="-67.1319" y2="133.2628" gradientTransform="matrix(-1 0 0 -1 328.4849 231.148)">
		<stop  offset="0" style="stop-color:#FFFFFF"/>
		<stop  offset="0.1688" style="stop-color:#B1B4B5"/>
		<stop  offset="0.4086" style="stop-color:#E0E0DF"/>
		<stop  offset="0.7581" style="stop-color:#B1B4B5"/>
		<stop  offset="1" style="stop-color:#C2C2C2"/>
	</linearGradient>
	<rect id="XMLID_20435_" x="395.6" y="80.3" fill="url(#XMLID_7_)" width="42" height="35.2"/>
</g>
<g id="XMLID_20419_">
	<rect id="XMLID_20421_" x="450.9" y="79.6" fill="#030000" width="43.1" height="36.6"/>
	
		<linearGradient id="XMLID_8_" gradientUnits="userSpaceOnUse" x1="-164.9819" y1="133.2628" x2="-122.9731" y2="133.2628" gradientTransform="matrix(-1 0 0 -1 328.4849 231.148)">
		<stop  offset="0" style="stop-color:#FFFFFF"/>
		<stop  offset="0.1688" style="stop-color:#B1B4B5"/>
		<stop  offset="0.4086" style="stop-color:#E0E0DF"/>
		<stop  offset="0.7581" style="stop-color:#B1B4B5"/>
		<stop  offset="1" style="stop-color:#C2C2C2"/>
	</linearGradient>
	<rect id="XMLID_20420_" x="451.5" y="80.3" fill="url(#XMLID_8_)" width="42" height="35.2"/>
</g>
<rect id="XMLID_20306_" x="52.7" y="9.4" fill="#212121" width="44" height="56.5"/>
<text id="XMLID_20343_" transform="matrix(1 0 0 1 61.0643 23.2831)"><tspan x="0" y="0" fill="#C9CACA" font-family="'MicrosoftYaHei'" font-size="10px">Slot 1</tspan><tspan x="0.2" y="12" fill="#C9CACA" font-family="'MicrosoftYaHei'" font-size="10px">PCle2</tspan><tspan x="5.3" y="24" fill="#C9CACA" font-family="'MicrosoftYaHei'" font-size="10px">x16</tspan><tspan x="3.9" y="36" fill="#C9CACA" font-family="'MicrosoftYaHei'" font-size="10px">25w</tspan></text>
<path id="XMLID_20344_" fill="#C1C1C1" stroke="#000000" stroke-miterlimit="10" d="M319.6,67.9H110.5c-3.3,0-6-2.7-6-6V34.4
	c0-3.3,2.7-6,6-6h209.1c3.3,0,6,2.7,6,6v27.5C325.6,65.2,322.9,67.9,319.6,67.9z"/>
<polygon id="XMLID_20345_" points="125.5,40.5 122.9,36.1 125.5,31.7 130.6,31.7 133.1,36.1 130.6,40.5 "/>
<polygon id="XMLID_20347_" points="125.5,52.6 122.9,48.2 125.5,43.8 130.6,43.8 133.1,48.2 130.6,52.6 "/>
<polygon id="XMLID_20348_" points="125.5,64.6 122.9,60.2 125.5,55.8 130.6,55.8 133.1,60.2 130.6,64.6 "/>
<polygon id="XMLID_20350_" points="135.2,46.5 132.7,42.1 135.2,37.7 140.3,37.7 142.9,42.1 140.3,46.5 "/>
<polygon id="XMLID_20349_" points="135.2,58.6 132.7,54.2 135.2,49.8 140.3,49.8 142.9,54.2 140.3,58.6 "/>
<polygon id="XMLID_20358_" points="144.7,40.5 142.2,36.1 144.7,31.7 149.8,31.7 152.3,36.1 149.8,40.5 "/>
<polygon id="XMLID_20357_" points="144.7,52.6 142.2,48.2 144.7,43.8 149.8,43.8 152.3,48.2 149.8,52.6 "/>
<polygon id="XMLID_20356_" points="144.7,64.6 142.2,60.2 144.7,55.8 149.8,55.8 152.3,60.2 149.8,64.6 "/>
<polygon id="XMLID_20352_" points="154.5,46.5 151.9,42.1 154.5,37.7 159.6,37.7 162.1,42.1 159.6,46.5 "/>
<polygon id="XMLID_20351_" points="154.5,58.6 151.9,54.2 154.5,49.8 159.6,49.8 162.1,54.2 159.6,58.6 "/>
<polygon id="XMLID_20363_" points="164,40.5 161.4,36.1 164,31.7 169.1,31.7 171.6,36.1 169.1,40.5 "/>
<polygon id="XMLID_20362_" points="164,52.6 161.4,48.2 164,43.8 169.1,43.8 171.6,48.2 169.1,52.6 "/>
<polygon id="XMLID_20361_" points="164,64.6 161.4,60.2 164,55.8 169.1,55.8 171.6,60.2 169.1,64.6 "/>
<polygon id="XMLID_20360_" points="173.7,46.5 171.2,42.1 173.7,37.7 178.8,37.7 181.3,42.1 178.8,46.5 "/>
<polygon id="XMLID_20359_" points="173.7,58.6 171.2,54.2 173.7,49.8 178.8,49.8 181.3,54.2 178.8,58.6 "/>
<polygon id="XMLID_20368_" points="183.2,40.5 180.7,36.1 183.2,31.7 188.3,31.7 190.8,36.1 188.3,40.5 "/>
<polygon id="XMLID_20367_" points="183.2,52.6 180.7,48.2 183.2,43.8 188.3,43.8 190.8,48.2 188.3,52.6 "/>
<polygon id="XMLID_20366_" points="183.2,64.6 180.7,60.2 183.2,55.8 188.3,55.8 190.8,60.2 188.3,64.6 "/>
<polygon id="XMLID_20365_" points="193,46.5 190.4,42.1 193,37.7 198,37.7 200.6,42.1 198,46.5 "/>
<polygon id="XMLID_20364_" points="193,58.6 190.4,54.2 193,49.8 198,49.8 200.6,54.2 198,58.6 "/>
<polygon id="XMLID_20373_" points="202.5,40.5 199.9,36.1 202.5,31.7 207.5,31.7 210.1,36.1 207.5,40.5 "/>
<polygon id="XMLID_20372_" points="202.5,52.6 199.9,48.2 202.5,43.8 207.5,43.8 210.1,48.2 207.5,52.6 "/>
<polygon id="XMLID_20371_" points="202.5,64.6 199.9,60.2 202.5,55.8 207.5,55.8 210.1,60.2 207.5,64.6 "/>
<polygon id="XMLID_20370_" points="212.2,46.5 209.7,42.1 212.2,37.7 217.3,37.7 219.8,42.1 217.3,46.5 "/>
<polygon id="XMLID_20369_" points="212.2,58.6 209.7,54.2 212.2,49.8 217.3,49.8 219.8,54.2 217.3,58.6 "/>
<polygon id="XMLID_20378_" points="221.7,40.5 219.2,36.1 221.7,31.7 226.8,31.7 229.3,36.1 226.8,40.5 "/>
<polygon id="XMLID_20377_" points="221.7,52.6 219.2,48.2 221.7,43.8 226.8,43.8 229.3,48.2 226.8,52.6 "/>
<polygon id="XMLID_20376_" points="221.7,64.6 219.2,60.2 221.7,55.8 226.8,55.8 229.3,60.2 226.8,64.6 "/>
<polygon id="XMLID_20375_" points="231.5,46.5 228.9,42.1 231.5,37.7 236.5,37.7 239.1,42.1 236.5,46.5 "/>
<polygon id="XMLID_20374_" points="231.5,58.6 228.9,54.2 231.5,49.8 236.5,49.8 239.1,54.2 236.5,58.6 "/>
<polygon id="XMLID_20383_" points="240.9,40.5 238.4,36.1 240.9,31.7 246,31.7 248.6,36.1 246,40.5 "/>
<polygon id="XMLID_20382_" points="240.9,52.6 238.4,48.2 240.9,43.8 246,43.8 248.6,48.2 246,52.6 "/>
<polygon id="XMLID_20381_" points="240.9,64.6 238.4,60.2 240.9,55.8 246,55.8 248.6,60.2 246,64.6 "/>
<polygon id="XMLID_20380_" points="250.7,46.5 248.2,42.1 250.7,37.7 255.8,37.7 258.3,42.1 255.8,46.5 "/>
<polygon id="XMLID_20379_" points="250.7,58.6 248.2,54.2 250.7,49.8 255.8,49.8 258.3,54.2 255.8,58.6 "/>
<polygon id="XMLID_20388_" points="260.2,40.5 257.6,36.1 260.2,31.7 265.3,31.7 267.8,36.1 265.3,40.5 "/>
<polygon id="XMLID_20387_" points="260.2,52.6 257.6,48.2 260.2,43.8 265.3,43.8 267.8,48.2 265.3,52.6 "/>
<polygon id="XMLID_20386_" points="260.2,64.6 257.6,60.2 260.2,55.8 265.3,55.8 267.8,60.2 265.3,64.6 "/>
<polygon id="XMLID_20385_" points="269.9,46.5 267.4,42.1 269.9,37.7 275,37.7 277.6,42.1 275,46.5 "/>
<polygon id="XMLID_20384_" points="269.9,58.6 267.4,54.2 269.9,49.8 275,49.8 277.6,54.2 275,58.6 "/>
<polygon id="XMLID_20393_" points="279.4,40.5 276.9,36.1 279.4,31.7 284.5,31.7 287.1,36.1 284.5,40.5 "/>
<polygon id="XMLID_20392_" points="279.4,52.6 276.9,48.2 279.4,43.8 284.5,43.8 287.1,48.2 284.5,52.6 "/>
<polygon id="XMLID_20391_" points="279.4,64.6 276.9,60.2 279.4,55.8 284.5,55.8 287.1,60.2 284.5,64.6 "/>
<polygon id="XMLID_20396_" points="298.7,40.5 296.1,36.1 298.7,31.7 303.8,31.7 306.3,36.1 303.8,40.5 "/>
<polygon id="XMLID_20395_" points="298.7,52.6 296.1,48.2 298.7,43.8 303.8,43.8 306.3,48.2 303.8,52.6 "/>
<polygon id="XMLID_20394_" points="298.7,64.6 296.1,60.2 298.7,55.8 303.8,55.8 306.3,60.2 303.8,64.6 "/>
<polygon id="XMLID_20390_" points="289.2,46.5 286.6,42.1 289.2,37.7 294.3,37.7 296.8,42.1 294.3,46.5 "/>
<polygon id="XMLID_20389_" points="289.2,58.6 286.6,54.2 289.2,49.8 294.3,49.8 296.8,54.2 294.3,58.6 "/>
<path id="XMLID_20346_" d="M129.6,15.9h-12.3c-0.5,0-0.9-0.4-0.9-0.9v-4.8c0-0.5,0.4-0.9,0.9-0.9h12.3c0.5,0,0.9,0.4,0.9,0.9v4.8
	C130.5,15.6,130.1,15.9,129.6,15.9z"/>
<path id="XMLID_20398_" d="M150.2,15.9h-12.3c-0.5,0-0.9-0.4-0.9-0.9v-4.8c0-0.5,0.4-0.9,0.9-0.9h12.3c0.5,0,0.9,0.4,0.9,0.9v4.8
	C151.1,15.6,150.7,15.9,150.2,15.9z"/>
<path id="XMLID_20399_" d="M170.8,15.9h-12.3c-0.5,0-0.9-0.4-0.9-0.9v-4.8c0-0.5,0.4-0.9,0.9-0.9h12.3c0.5,0,0.9,0.4,0.9,0.9v4.8
	C171.6,15.6,171.3,15.9,170.8,15.9z"/>
<path id="XMLID_20400_" d="M191.4,15.9h-12.3c-0.5,0-0.9-0.4-0.9-0.9v-4.8c0-0.5,0.4-0.9,0.9-0.9h12.3c0.5,0,0.9,0.4,0.9,0.9v4.8
	C192.2,15.6,191.8,15.9,191.4,15.9z"/>
<path id="XMLID_20401_" d="M211.9,15.9h-12.3c-0.5,0-0.9-0.4-0.9-0.9v-4.8c0-0.5,0.4-0.9,0.9-0.9h12.3c0.5,0,0.9,0.4,0.9,0.9v4.8
	C212.8,15.6,212.4,15.9,211.9,15.9z"/>
<path id="XMLID_20402_" d="M232.5,15.9h-12.3c-0.5,0-0.9-0.4-0.9-0.9v-4.8c0-0.5,0.4-0.9,0.9-0.9h12.3c0.5,0,0.9,0.4,0.9,0.9v4.8
	C233.4,15.6,233,15.9,232.5,15.9z"/>
<path id="XMLID_20403_" d="M253.1,15.9h-12.3c-0.5,0-0.9-0.4-0.9-0.9v-4.8c0-0.5,0.4-0.9,0.9-0.9h12.3c0.5,0,0.9,0.4,0.9,0.9v4.8
	C254,15.6,253.6,15.9,253.1,15.9z"/>
<path id="XMLID_20404_" d="M273.7,15.9h-12.3c-0.5,0-0.9-0.4-0.9-0.9v-4.8c0-0.5,0.4-0.9,0.9-0.9h12.3c0.5,0,0.9,0.4,0.9,0.9v4.8
	C274.6,15.6,274.2,15.9,273.7,15.9z"/>
<path id="XMLID_20405_" d="M294.3,15.9H282c-0.5,0-0.9-0.4-0.9-0.9v-4.8c0-0.5,0.4-0.9,0.9-0.9h12.3c0.5,0,0.9,0.4,0.9,0.9v4.8
	C295.1,15.6,294.8,15.9,294.3,15.9z"/>
<path id="XMLID_20406_" d="M314.9,15.9h-12.3c-0.5,0-0.9-0.4-0.9-0.9v-4.8c0-0.5,0.4-0.9,0.9-0.9h12.3c0.5,0,0.9,0.4,0.9,0.9v4.8
	C315.7,15.6,315.3,15.9,314.9,15.9z"/>
<rect id="XMLID_23058_" x="906.9" y="9.4" fill="#212121" width="44" height="56.5"/>
<text id="XMLID_23057_" transform="matrix(1 0 0 1 915.2173 23.2831)"><tspan x="0" y="0" fill="#C9CACA" font-family="'MicrosoftYaHei'" font-size="10px">Slot 1</tspan><tspan x="0.2" y="12" fill="#C9CACA" font-family="'MicrosoftYaHei'" font-size="10px">PCle2</tspan><tspan x="5.3" y="24" fill="#C9CACA" font-family="'MicrosoftYaHei'" font-size="10px">x16</tspan><tspan x="3.9" y="36" fill="#C9CACA" font-family="'MicrosoftYaHei'" font-size="10px">25w</tspan></text>
<path id="XMLID_23052_" fill="#C1C1C1" stroke="#000000" stroke-miterlimit="10" d="M1173.8,67.9H964.6c-3.3,0-6-2.7-6-6V34.4
	c0-3.3,2.7-6,6-6h209.1c3.3,0,6,2.7,6,6v27.5C1179.8,65.2,1177.1,67.9,1173.8,67.9z"/>
<polygon id="XMLID_23051_" points="979.6,40.5 977.1,36.1 979.6,31.7 984.7,31.7 987.3,36.1 984.7,40.5 "/>
<polygon id="XMLID_23050_" points="979.6,52.6 977.1,48.2 979.6,43.8 984.7,43.8 987.3,48.2 984.7,52.6 "/>
<polygon id="XMLID_23049_" points="979.6,64.6 977.1,60.2 979.6,55.8 984.7,55.8 987.3,60.2 984.7,64.6 "/>
<polygon id="XMLID_23048_" points="989.4,46.5 986.8,42.1 989.4,37.7 994.5,37.7 997,42.1 994.5,46.5 "/>
<polygon id="XMLID_23047_" points="989.4,58.6 986.8,54.2 989.4,49.8 994.5,49.8 997,54.2 994.5,58.6 "/>
<polygon id="XMLID_23046_" points="998.9,40.5 996.3,36.1 998.9,31.7 1004,31.7 1006.5,36.1 1004,40.5 "/>
<polygon id="XMLID_23045_" points="998.9,52.6 996.3,48.2 998.9,43.8 1004,43.8 1006.5,48.2 1004,52.6 "/>
<polygon id="XMLID_23044_" points="998.9,64.6 996.3,60.2 998.9,55.8 1004,55.8 1006.5,60.2 1004,64.6 "/>
<polygon id="XMLID_23043_" points="1008.6,46.5 1006.1,42.1 1008.6,37.7 1013.7,37.7 1016.3,42.1 1013.7,46.5 "/>
<polygon id="XMLID_23041_" points="1008.6,58.6 1006.1,54.2 1008.6,49.8 1013.7,49.8 1016.3,54.2 1013.7,58.6 "/>
<polygon id="XMLID_23040_" points="1018.1,40.5 1015.6,36.1 1018.1,31.7 1023.2,31.7 1025.7,36.1 1023.2,40.5 "/>
<polygon id="XMLID_23039_" points="1018.1,52.6 1015.6,48.2 1018.1,43.8 1023.2,43.8 1025.7,48.2 1023.2,52.6 "/>
<polygon id="XMLID_23038_" points="1018.1,64.6 1015.6,60.2 1018.1,55.8 1023.2,55.8 1025.7,60.2 1023.2,64.6 "/>
<polygon id="XMLID_23037_" points="1027.9,46.5 1025.3,42.1 1027.9,37.7 1033,37.7 1035.5,42.1 1033,46.5 "/>
<polygon id="XMLID_23036_" points="1027.9,58.6 1025.3,54.2 1027.9,49.8 1033,49.8 1035.5,54.2 1033,58.6 "/>
<polygon id="XMLID_23035_" points="1037.4,40.5 1034.8,36.1 1037.4,31.7 1042.4,31.7 1045,36.1 1042.4,40.5 "/>
<polygon id="XMLID_23034_" points="1037.4,52.6 1034.8,48.2 1037.4,43.8 1042.4,43.8 1045,48.2 1042.4,52.6 "/>
<polygon id="XMLID_23033_" points="1037.4,64.6 1034.8,60.2 1037.4,55.8 1042.4,55.8 1045,60.2 1042.4,64.6 "/>
<polygon id="XMLID_23031_" points="1047.1,46.5 1044.6,42.1 1047.1,37.7 1052.2,37.7 1054.7,42.1 1052.2,46.5 "/>
<polygon id="XMLID_23004_" points="1047.1,58.6 1044.6,54.2 1047.1,49.8 1052.2,49.8 1054.7,54.2 1052.2,58.6 "/>
<polygon id="XMLID_23003_" points="1056.6,40.5 1054.1,36.1 1056.6,31.7 1061.7,31.7 1064.2,36.1 1061.7,40.5 "/>
<polygon id="XMLID_23002_" points="1056.6,52.6 1054.1,48.2 1056.6,43.8 1061.7,43.8 1064.2,48.2 1061.7,52.6 "/>
<polygon id="XMLID_23001_" points="1056.6,64.6 1054.1,60.2 1056.6,55.8 1061.7,55.8 1064.2,60.2 1061.7,64.6 "/>
<polygon id="XMLID_23000_" points="1066.4,46.5 1063.8,42.1 1066.4,37.7 1071.4,37.7 1074,42.1 1071.4,46.5 "/>
<polygon id="XMLID_22999_" points="1066.4,58.6 1063.8,54.2 1066.4,49.8 1071.4,49.8 1074,54.2 1071.4,58.6 "/>
<polygon id="XMLID_22998_" points="1075.9,40.5 1073.3,36.1 1075.9,31.7 1080.9,31.7 1083.5,36.1 1080.9,40.5 "/>
<polygon id="XMLID_22997_" points="1075.9,52.6 1073.3,48.2 1075.9,43.8 1080.9,43.8 1083.5,48.2 1080.9,52.6 "/>
<polygon id="XMLID_22996_" points="1075.9,64.6 1073.3,60.2 1075.9,55.8 1080.9,55.8 1083.5,60.2 1080.9,64.6 "/>
<polygon id="XMLID_22995_" points="1085.6,46.5 1083.1,42.1 1085.6,37.7 1090.7,37.7 1093.2,42.1 1090.7,46.5 "/>
<polygon id="XMLID_22994_" points="1085.6,58.6 1083.1,54.2 1085.6,49.8 1090.7,49.8 1093.2,54.2 1090.7,58.6 "/>
<polygon id="XMLID_22993_" points="1095.1,40.5 1092.6,36.1 1095.1,31.7 1100.2,31.7 1102.7,36.1 1100.2,40.5 "/>
<polygon id="XMLID_22992_" points="1095.1,52.6 1092.6,48.2 1095.1,43.8 1100.2,43.8 1102.7,48.2 1100.2,52.6 "/>
<polygon id="XMLID_22991_" points="1095.1,64.6 1092.6,60.2 1095.1,55.8 1100.2,55.8 1102.7,60.2 1100.2,64.6 "/>
<polygon id="XMLID_22990_" points="1104.8,46.5 1102.3,42.1 1104.8,37.7 1109.9,37.7 1112.5,42.1 1109.9,46.5 "/>
<polygon id="XMLID_22989_" points="1104.8,58.6 1102.3,54.2 1104.8,49.8 1109.9,49.8 1112.5,54.2 1109.9,58.6 "/>
<polygon id="XMLID_22988_" points="1114.3,40.5 1111.8,36.1 1114.3,31.7 1119.4,31.7 1122,36.1 1119.4,40.5 "/>
<polygon id="XMLID_22987_" points="1114.3,52.6 1111.8,48.2 1114.3,43.8 1119.4,43.8 1122,48.2 1119.4,52.6 "/>
<polygon id="XMLID_22986_" points="1114.3,64.6 1111.8,60.2 1114.3,55.8 1119.4,55.8 1122,60.2 1119.4,64.6 "/>
<polygon id="XMLID_22985_" points="1124.1,46.5 1121.6,42.1 1124.1,37.7 1129.2,37.7 1131.7,42.1 1129.2,46.5 "/>
<polygon id="XMLID_22984_" points="1124.1,58.6 1121.6,54.2 1124.1,49.8 1129.2,49.8 1131.7,54.2 1129.2,58.6 "/>
<polygon id="XMLID_22983_" points="1133.6,40.5 1131,36.1 1133.6,31.7 1138.7,31.7 1141.2,36.1 1138.7,40.5 "/>
<polygon id="XMLID_22982_" points="1133.6,52.6 1131,48.2 1133.6,43.8 1138.7,43.8 1141.2,48.2 1138.7,52.6 "/>
<polygon id="XMLID_22981_" points="1133.6,64.6 1131,60.2 1133.6,55.8 1138.7,55.8 1141.2,60.2 1138.7,64.6 "/>
<polygon id="XMLID_22980_" points="1152.8,40.5 1150.3,36.1 1152.8,31.7 1157.9,31.7 1160.5,36.1 1157.9,40.5 "/>
<polygon id="XMLID_22979_" points="1152.8,52.6 1150.3,48.2 1152.8,43.8 1157.9,43.8 1160.5,48.2 1157.9,52.6 "/>
<polygon id="XMLID_22978_" points="1152.8,64.6 1150.3,60.2 1152.8,55.8 1157.9,55.8 1160.5,60.2 1157.9,64.6 "/>
<polygon id="XMLID_22977_" points="1143.3,46.5 1140.8,42.1 1143.3,37.7 1148.4,37.7 1151,42.1 1148.4,46.5 "/>
<polygon id="XMLID_22976_" points="1143.3,58.6 1140.8,54.2 1143.3,49.8 1148.4,49.8 1151,54.2 1148.4,58.6 "/>
<polygon id="XMLID_23140_" points="1004.1,81.6 1001.5,77.2 1004.1,72.8 1009.2,72.8 1011.7,77.2 1009.2,81.6 "/>
<polygon id="XMLID_23139_" points="1004.1,93.7 1001.5,89.3 1004.1,84.9 1009.2,84.9 1011.7,89.3 1009.2,93.7 "/>
<polygon id="XMLID_23138_" points="1004.1,105.7 1001.5,101.3 1004.1,96.9 1009.2,96.9 1011.7,101.3 1009.2,105.7 "/>
<polygon id="XMLID_23137_" points="1013.8,87.6 1011.3,83.2 1013.8,78.8 1018.9,78.8 1021.5,83.2 1018.9,87.6 "/>
<polygon id="XMLID_23136_" points="1013.8,99.7 1011.3,95.3 1013.8,90.9 1018.9,90.9 1021.5,95.3 1018.9,99.7 "/>
<polygon id="XMLID_23135_" points="1023.3,81.6 1020.8,77.2 1023.3,72.8 1028.4,72.8 1030.9,77.2 1028.4,81.6 "/>
<polygon id="XMLID_23134_" points="1023.3,93.7 1020.8,89.3 1023.3,84.9 1028.4,84.9 1030.9,89.3 1028.4,93.7 "/>
<polygon id="XMLID_23133_" points="1023.3,105.7 1020.8,101.3 1023.3,96.9 1028.4,96.9 1030.9,101.3 1028.4,105.7 "/>
<polygon id="XMLID_23132_" points="1033.1,87.6 1030.5,83.2 1033.1,78.8 1038.2,78.8 1040.7,83.2 1038.2,87.6 "/>
<polygon id="XMLID_23131_" points="1033.1,99.7 1030.5,95.3 1033.1,90.9 1038.2,90.9 1040.7,95.3 1038.2,99.7 "/>
<polygon id="XMLID_23130_" points="1042.6,81.6 1040,77.2 1042.6,72.8 1047.7,72.8 1050.2,77.2 1047.7,81.6 "/>
<polygon id="XMLID_23129_" points="1042.6,93.7 1040,89.3 1042.6,84.9 1047.7,84.9 1050.2,89.3 1047.7,93.7 "/>
<polygon id="XMLID_23128_" points="1042.6,105.7 1040,101.3 1042.6,96.9 1047.7,96.9 1050.2,101.3 1047.7,105.7 "/>
<polygon id="XMLID_23127_" points="1052.3,87.6 1049.8,83.2 1052.3,78.8 1057.4,78.8 1059.9,83.2 1057.4,87.6 "/>
<polygon id="XMLID_23126_" points="1052.3,99.7 1049.8,95.3 1052.3,90.9 1057.4,90.9 1059.9,95.3 1057.4,99.7 "/>
<polygon id="XMLID_23125_" points="1061.8,81.6 1059.3,77.2 1061.8,72.8 1066.9,72.8 1069.4,77.2 1066.9,81.6 "/>
<polygon id="XMLID_23124_" points="1061.8,93.7 1059.3,89.3 1061.8,84.9 1066.9,84.9 1069.4,89.3 1066.9,93.7 "/>
<polygon id="XMLID_23122_" points="1071.6,87.6 1069,83.2 1071.6,78.8 1076.6,78.8 1079.2,83.2 1076.6,87.6 "/>
<polygon id="XMLID_23120_" points="1081.1,81.6 1078.5,77.2 1081.1,72.8 1086.1,72.8 1088.7,77.2 1086.1,81.6 "/>
<polygon id="XMLID_23119_" points="1081.1,93.7 1078.5,89.3 1081.1,84.9 1086.1,84.9 1088.7,89.3 1086.1,93.7 "/>
<polygon id="XMLID_23117_" points="1090.8,87.6 1088.3,83.2 1090.8,78.8 1095.9,78.8 1098.4,83.2 1095.9,87.6 "/>
<polygon id="XMLID_23115_" points="1100.3,81.6 1097.8,77.2 1100.3,72.8 1105.4,72.8 1107.9,77.2 1105.4,81.6 "/>
<polygon id="XMLID_23114_" points="1100.3,93.7 1097.8,89.3 1100.3,84.9 1105.4,84.9 1107.9,89.3 1105.4,93.7 "/>
<polygon id="XMLID_23112_" points="1110.1,87.6 1107.5,83.2 1110.1,78.8 1115.1,78.8 1117.7,83.2 1115.1,87.6 "/>
<polygon id="XMLID_23111_" points="1110.1,99.7 1107.5,95.3 1110.1,90.9 1115.1,90.9 1117.7,95.3 1115.1,99.7 "/>
<polygon id="XMLID_23110_" points="1119.5,81.6 1117,77.2 1119.5,72.8 1124.6,72.8 1127.2,77.2 1124.6,81.6 "/>
<polygon id="XMLID_23109_" points="1119.5,93.7 1117,89.3 1119.5,84.9 1124.6,84.9 1127.2,89.3 1124.6,93.7 "/>
<polygon id="XMLID_23108_" points="1119.5,105.7 1117,101.3 1119.5,96.9 1124.6,96.9 1127.2,101.3 1124.6,105.7 "/>
<polygon id="XMLID_23107_" points="1129.3,87.6 1126.8,83.2 1129.3,78.8 1134.4,78.8 1136.9,83.2 1134.4,87.6 "/>
<polygon id="XMLID_23106_" points="1129.3,99.7 1126.8,95.3 1129.3,90.9 1134.4,90.9 1136.9,95.3 1134.4,99.7 "/>
<polygon id="XMLID_23105_" points="1138.8,81.6 1136.3,77.2 1138.8,72.8 1143.9,72.8 1146.4,77.2 1143.9,81.6 "/>
<polygon id="XMLID_23104_" points="1138.8,93.7 1136.3,89.3 1138.8,84.9 1143.9,84.9 1146.4,89.3 1143.9,93.7 "/>
<polygon id="XMLID_23103_" points="1138.8,105.7 1136.3,101.3 1138.8,96.9 1143.9,96.9 1146.4,101.3 1143.9,105.7 "/>
<polygon id="XMLID_23102_" points="1148.5,87.6 1146,83.2 1148.5,78.8 1153.6,78.8 1156.2,83.2 1153.6,87.6 "/>
<polygon id="XMLID_23101_" points="1148.5,99.7 1146,95.3 1148.5,90.9 1153.6,90.9 1156.2,95.3 1153.6,99.7 "/>
<polygon id="XMLID_23100_" points="1158,81.6 1155.5,77.2 1158,72.8 1163.1,72.8 1165.7,77.2 1163.1,81.6 "/>
<polygon id="XMLID_23099_" points="1158,93.7 1155.5,89.3 1158,84.9 1163.1,84.9 1165.7,89.3 1163.1,93.7 "/>
<polygon id="XMLID_23098_" points="1158,105.7 1155.5,101.3 1158,96.9 1163.1,96.9 1165.7,101.3 1163.1,105.7 "/>
<polygon id="XMLID_23097_" points="1177.3,81.6 1174.7,77.2 1177.3,72.8 1182.4,72.8 1184.9,77.2 1182.4,81.6 "/>
<polygon id="XMLID_23096_" points="1177.3,93.7 1174.7,89.3 1177.3,84.9 1182.4,84.9 1184.9,89.3 1182.4,93.7 "/>
<polygon id="XMLID_23095_" points="1177.3,105.7 1174.7,101.3 1177.3,96.9 1182.4,96.9 1184.9,101.3 1182.4,105.7 "/>
<polygon id="XMLID_23094_" points="1167.8,87.6 1165.2,83.2 1167.8,78.8 1172.9,78.8 1175.4,83.2 1172.9,87.6 "/>
<polygon id="XMLID_23093_" points="1167.8,99.7 1165.2,95.3 1167.8,90.9 1172.9,90.9 1175.4,95.3 1172.9,99.7 "/>
<polygon id="XMLID_23159_" points="1004.1,117 1001.5,112.6 1004.1,108.2 1009.2,108.2 1011.7,112.6 1009.2,117 "/>
<polygon id="XMLID_23158_" points="1013.8,111 1011.3,106.6 1013.8,102.2 1018.9,102.2 1021.5,106.6 1018.9,111 "/>
<polygon id="XMLID_23157_" points="1023.3,117 1020.8,112.6 1023.3,108.2 1028.4,108.2 1030.9,112.6 1028.4,117 "/>
<polygon id="XMLID_23156_" points="1033.1,111 1030.5,106.6 1033.1,102.2 1038.2,102.2 1040.7,106.6 1038.2,111 "/>
<polygon id="XMLID_23155_" points="1042.6,117 1040,112.6 1042.6,108.2 1047.7,108.2 1050.2,112.6 1047.7,117 "/>
<polygon id="XMLID_23167_" points="898.5,81.6 896,77.2 898.5,72.8 903.6,72.8 906.1,77.2 903.6,81.6 "/>
<polygon id="XMLID_23166_" points="898.5,93.7 896,89.3 898.5,84.9 903.6,84.9 906.1,89.3 903.6,93.7 "/>
<polygon id="XMLID_23165_" points="898.5,105.7 896,101.3 898.5,96.9 903.6,96.9 906.1,101.3 903.6,105.7 "/>
<polygon id="XMLID_23164_" points="908.3,87.6 905.7,83.2 908.3,78.8 913.4,78.8 915.9,83.2 913.4,87.6 "/>
<polygon id="XMLID_23163_" points="908.3,99.7 905.7,95.3 908.3,90.9 913.4,90.9 915.9,95.3 913.4,99.7 "/>
<polygon id="XMLID_23162_" points="917.8,81.6 915.2,77.2 917.8,72.8 922.9,72.8 925.4,77.2 922.9,81.6 "/>
<polygon id="XMLID_23161_" points="917.8,93.7 915.2,89.3 917.8,84.9 922.9,84.9 925.4,89.3 922.9,93.7 "/>
<polygon id="XMLID_23160_" points="917.8,105.7 915.2,101.3 917.8,96.9 922.9,96.9 925.4,101.3 922.9,105.7 "/>
<polygon id="XMLID_23153_" points="927.5,87.6 925,83.2 927.5,78.8 932.6,78.8 935.1,83.2 932.6,87.6 "/>
<polygon id="XMLID_23152_" points="927.5,99.7 925,95.3 927.5,90.9 932.6,90.9 935.1,95.3 932.6,99.7 "/>
<polygon id="XMLID_23151_" points="937,81.6 934.5,77.2 937,72.8 942.1,72.8 944.6,77.2 942.1,81.6 "/>
<polygon id="XMLID_23150_" points="937,93.7 934.5,89.3 937,84.9 942.1,84.9 944.6,89.3 942.1,93.7 "/>
<polygon id="XMLID_23149_" points="937,105.7 934.5,101.3 937,96.9 942.1,96.9 944.6,101.3 942.1,105.7 "/>
<polygon id="XMLID_23123_" points="898.5,117 896,112.6 898.5,108.2 903.6,108.2 906.1,112.6 903.6,117 "/>
<polygon id="XMLID_23121_" points="908.3,111 905.7,106.6 908.3,102.2 913.4,102.2 915.9,106.6 913.4,111 "/>
<polygon id="XMLID_23118_" points="917.8,117 915.2,112.6 917.8,108.2 922.9,108.2 925.4,112.6 922.9,117 "/>
<polygon id="XMLID_23116_" points="927.5,111 925,106.6 927.5,102.2 932.6,102.2 935.1,106.6 932.6,111 "/>
<polygon id="XMLID_23113_" points="937,117 934.5,112.6 937,108.2 942.1,108.2 944.6,112.6 942.1,117 "/>
<polygon id="XMLID_30637_" points="373.8,27.4 371.3,23 373.8,18.6 378.9,18.6 381.5,23 378.9,27.4 "/>
<polygon id="XMLID_30636_" points="373.8,39.5 371.3,35.1 373.8,30.7 378.9,30.7 381.5,35.1 378.9,39.5 "/>
<polygon id="XMLID_23187_" points="383.6,21.4 381,17 383.6,12.6 388.7,12.6 391.2,17 388.7,21.4 "/>
<polygon id="XMLID_23186_" points="383.6,33.5 381,29.1 383.6,24.7 388.7,24.7 391.2,29.1 388.7,33.5 "/>
<polygon id="XMLID_23185_" points="393.1,27.4 390.5,23 393.1,18.6 398.2,18.6 400.7,23 398.2,27.4 "/>
<polygon id="XMLID_23184_" points="393.1,39.5 390.5,35.1 393.1,30.7 398.2,30.7 400.7,35.1 398.2,39.5 "/>
<polygon id="XMLID_23183_" points="402.8,21.4 400.3,17 402.8,12.6 407.9,12.6 410.4,17 407.9,21.4 "/>
<polygon id="XMLID_23182_" points="402.8,33.5 400.3,29.1 402.8,24.7 407.9,24.7 410.4,29.1 407.9,33.5 "/>
<polygon id="XMLID_23181_" points="412.3,27.4 409.8,23 412.3,18.6 417.4,18.6 419.9,23 417.4,27.4 "/>
<polygon id="XMLID_23180_" points="412.3,39.5 409.8,35.1 412.3,30.7 417.4,30.7 419.9,35.1 417.4,39.5 "/>
<polygon id="XMLID_23179_" points="373.8,50.8 371.3,46.4 373.8,42 378.9,42 381.5,46.4 378.9,50.8 "/>
<polygon id="XMLID_23178_" points="383.6,44.7 381,40.3 383.6,35.9 388.7,35.9 391.2,40.3 388.7,44.7 "/>
<polygon id="XMLID_23177_" points="393.1,50.8 390.5,46.4 393.1,42 398.2,42 400.7,46.4 398.2,50.8 "/>
<polygon id="XMLID_23176_" points="402.8,44.7 400.3,40.3 402.8,35.9 407.9,35.9 410.4,40.3 407.9,44.7 "/>
<polygon id="XMLID_32850_" points="22.4,92.4 19.8,88 22.4,83.6 27.5,83.6 30,88 27.5,92.4 "/>
<polygon id="XMLID_32849_" points="22.4,104.5 19.8,100.1 22.4,95.7 27.5,95.7 30,100.1 27.5,104.5 "/>
<polygon id="XMLID_32848_" points="32.1,86.4 29.6,82 32.1,77.6 37.2,77.6 39.8,82 37.2,86.4 "/>
<polygon id="XMLID_32847_" points="32.1,98.5 29.6,94.1 32.1,89.7 37.2,89.7 39.8,94.1 37.2,98.5 "/>
<polygon id="XMLID_32846_" points="41.6,92.4 39.1,88 41.6,83.6 46.7,83.6 49.3,88 46.7,92.4 "/>
<polygon id="XMLID_32845_" points="41.6,104.5 39.1,100.1 41.6,95.7 46.7,95.7 49.3,100.1 46.7,104.5 "/>
<polygon id="XMLID_32844_" points="51.4,86.4 48.8,82 51.4,77.6 56.5,77.6 59,82 56.5,86.4 "/>
<polygon id="XMLID_32843_" points="51.4,98.5 48.8,94.1 51.4,89.7 56.5,89.7 59,94.1 56.5,98.5 "/>
<polygon id="XMLID_32842_" points="22.4,115.8 19.8,111.4 22.4,107 27.5,107 30,111.4 27.5,115.8 "/>
<polygon id="XMLID_32841_" points="32.1,109.7 29.6,105.3 32.1,100.9 37.2,100.9 39.8,105.3 37.2,109.7 "/>
<polygon id="XMLID_32840_" points="41.6,115.8 39.1,111.4 41.6,107 46.7,107 49.3,111.4 46.7,115.8 "/>
<polygon id="XMLID_20397_" points="51.4,109.7 48.8,105.3 51.4,100.9 56.5,100.9 59,105.3 56.5,109.7 "/>
<polygon id="XMLID_23175_" points="412.3,50.8 409.8,46.4 412.3,42 417.4,42 419.9,46.4 417.4,50.8 "/>
<polygon id="XMLID_30649_" points="421.8,21.4 419.2,17 421.8,12.6 426.8,12.6 429.4,17 426.8,21.4 "/>
<polygon id="XMLID_30648_" points="421.8,33.5 419.2,29.1 421.8,24.7 426.8,24.7 429.4,29.1 426.8,33.5 "/>
<polygon id="XMLID_30647_" points="431.2,27.4 428.7,23 431.2,18.6 436.3,18.6 438.9,23 436.3,27.4 "/>
<polygon id="XMLID_30646_" points="431.2,39.5 428.7,35.1 431.2,30.7 436.3,30.7 438.9,35.1 436.3,39.5 "/>
<polygon id="XMLID_30645_" points="441,21.4 438.5,17 441,12.6 446.1,12.6 448.6,17 446.1,21.4 "/>
<polygon id="XMLID_30644_" points="441,33.5 438.5,29.1 441,24.7 446.1,24.7 448.6,29.1 446.1,33.5 "/>
<polygon id="XMLID_30643_" points="450.5,27.4 447.9,23 450.5,18.6 455.6,18.6 458.1,23 455.6,27.4 "/>
<polygon id="XMLID_30642_" points="450.5,39.5 447.9,35.1 450.5,30.7 455.6,30.7 458.1,35.1 455.6,39.5 "/>
<polygon id="XMLID_30641_" points="421.8,44.7 419.2,40.3 421.8,35.9 426.8,35.9 429.4,40.3 426.8,44.7 "/>
<polygon id="XMLID_30640_" points="431.2,50.8 428.7,46.4 431.2,42 436.3,42 438.9,46.4 436.3,50.8 "/>
<polygon id="XMLID_30639_" points="441,44.7 438.5,40.3 441,35.9 446.1,35.9 448.6,40.3 446.1,44.7 "/>
<polygon id="XMLID_30638_" points="450.5,50.8 447.9,46.4 450.5,42 455.6,42 458.1,46.4 455.6,50.8 "/>
<polygon id="XMLID_30661_" points="459.9,21.4 457.4,17 459.9,12.6 465,12.6 467.5,17 465,21.4 "/>
<polygon id="XMLID_30660_" points="459.9,33.5 457.4,29.1 459.9,24.7 465,24.7 467.5,29.1 465,33.5 "/>
<polygon id="XMLID_30659_" points="469.4,27.4 466.9,23 469.4,18.6 474.5,18.6 477,23 474.5,27.4 "/>
<polygon id="XMLID_30658_" points="469.4,39.5 466.9,35.1 469.4,30.7 474.5,30.7 477,35.1 474.5,39.5 "/>
<polygon id="XMLID_30657_" points="479.2,21.4 476.6,17 479.2,12.6 484.2,12.6 486.8,17 484.2,21.4 "/>
<polygon id="XMLID_30656_" points="479.2,33.5 476.6,29.1 479.2,24.7 484.2,24.7 486.8,29.1 484.2,33.5 "/>
<polygon id="XMLID_30655_" points="488.7,27.4 486.1,23 488.7,18.6 493.7,18.6 496.3,23 493.7,27.4 "/>
<polygon id="XMLID_30654_" points="488.7,39.5 486.1,35.1 488.7,30.7 493.7,30.7 496.3,35.1 493.7,39.5 "/>
<polygon id="XMLID_30653_" points="459.9,44.7 457.4,40.3 459.9,35.9 465,35.9 467.5,40.3 465,44.7 "/>
<polygon id="XMLID_30652_" points="469.4,50.8 466.9,46.4 469.4,42 474.5,42 477,46.4 474.5,50.8 "/>
<polygon id="XMLID_30651_" points="479.2,44.7 476.6,40.3 479.2,35.9 484.2,35.9 486.8,40.3 484.2,44.7 "/>
<polygon id="XMLID_30650_" points="488.7,50.8 486.1,46.4 488.7,42 493.7,42 496.3,46.4 493.7,50.8 "/>
<polygon id="XMLID_30673_" points="498.1,21.4 495.5,17 498.1,12.6 503.2,12.6 505.7,17 503.2,21.4 "/>
<polygon id="XMLID_30672_" points="498.1,33.5 495.5,29.1 498.1,24.7 503.2,24.7 505.7,29.1 503.2,33.5 "/>
<polygon id="XMLID_30671_" points="507.6,27.4 505,23 507.6,18.6 512.7,18.6 515.2,23 512.7,27.4 "/>
<polygon id="XMLID_30670_" points="507.6,39.5 505,35.1 507.6,30.7 512.7,30.7 515.2,35.1 512.7,39.5 "/>
<polygon id="XMLID_30669_" points="517.3,21.4 514.8,17 517.3,12.6 522.4,12.6 524.9,17 522.4,21.4 "/>
<polygon id="XMLID_30668_" points="517.3,33.5 514.8,29.1 517.3,24.7 522.4,24.7 524.9,29.1 522.4,33.5 "/>
<polygon id="XMLID_30667_" points="526.8,27.4 524.3,23 526.8,18.6 531.9,18.6 534.4,23 531.9,27.4 "/>
<polygon id="XMLID_30666_" points="526.8,39.5 524.3,35.1 526.8,30.7 531.9,30.7 534.4,35.1 531.9,39.5 "/>
<polygon id="XMLID_30665_" points="498.1,44.7 495.5,40.3 498.1,35.9 503.2,35.9 505.7,40.3 503.2,44.7 "/>
<polygon id="XMLID_30664_" points="507.6,50.8 505,46.4 507.6,42 512.7,42 515.2,46.4 512.7,50.8 "/>
<polygon id="XMLID_30663_" points="517.3,44.7 514.8,40.3 517.3,35.9 522.4,35.9 524.9,40.3 522.4,44.7 "/>
<polygon id="XMLID_30662_" points="526.8,50.8 524.3,46.4 526.8,42 531.9,42 534.4,46.4 531.9,50.8 "/>
<polygon id="XMLID_30685_" points="536.3,21.4 533.7,17 536.3,12.6 541.3,12.6 543.9,17 541.3,21.4 "/>
<polygon id="XMLID_30684_" points="536.3,33.5 533.7,29.1 536.3,24.7 541.3,24.7 543.9,29.1 541.3,33.5 "/>
<polygon id="XMLID_30683_" points="545.7,27.4 543.2,23 545.7,18.6 550.8,18.6 553.4,23 550.8,27.4 "/>
<polygon id="XMLID_30682_" points="545.7,39.5 543.2,35.1 545.7,30.7 550.8,30.7 553.4,35.1 550.8,39.5 "/>
<polygon id="XMLID_30681_" points="555.5,21.4 553,17 555.5,12.6 560.6,12.6 563.1,17 560.6,21.4 "/>
<polygon id="XMLID_30680_" points="555.5,33.5 553,29.1 555.5,24.7 560.6,24.7 563.1,29.1 560.6,33.5 "/>
<polygon id="XMLID_30679_" points="565,27.4 562.4,23 565,18.6 570.1,18.6 572.6,23 570.1,27.4 "/>
<polygon id="XMLID_30678_" points="565,39.5 562.4,35.1 565,30.7 570.1,30.7 572.6,35.1 570.1,39.5 "/>
<polygon id="XMLID_30677_" points="536.3,44.7 533.7,40.3 536.3,35.9 541.3,35.9 543.9,40.3 541.3,44.7 "/>
<polygon id="XMLID_30676_" points="545.7,50.8 543.2,46.4 545.7,42 550.8,42 553.4,46.4 550.8,50.8 "/>
<polygon id="XMLID_30675_" points="555.5,44.7 553,40.3 555.5,35.9 560.6,35.9 563.1,40.3 560.6,44.7 "/>
<polygon id="XMLID_30674_" points="565,50.8 562.4,46.4 565,42 570.1,42 572.6,46.4 570.1,50.8 "/>
<polygon id="XMLID_30697_" points="574.4,21.4 571.9,17 574.4,12.6 579.5,12.6 582,17 579.5,21.4 "/>
<polygon id="XMLID_30696_" points="574.4,33.5 571.9,29.1 574.4,24.7 579.5,24.7 582,29.1 579.5,33.5 "/>
<polygon id="XMLID_30695_" points="583.9,27.4 581.4,23 583.9,18.6 589,18.6 591.5,23 589,27.4 "/>
<polygon id="XMLID_30694_" points="583.9,39.5 581.4,35.1 583.9,30.7 589,30.7 591.5,35.1 589,39.5 "/>
<polygon id="XMLID_30693_" points="593.7,21.4 591.1,17 593.7,12.6 598.7,12.6 601.3,17 598.7,21.4 "/>
<polygon id="XMLID_30692_" points="593.7,33.5 591.1,29.1 593.7,24.7 598.7,24.7 601.3,29.1 598.7,33.5 "/>
<polygon id="XMLID_30691_" points="603.2,27.4 600.6,23 603.2,18.6 608.2,18.6 610.8,23 608.2,27.4 "/>
<polygon id="XMLID_30690_" points="603.2,39.5 600.6,35.1 603.2,30.7 608.2,30.7 610.8,35.1 608.2,39.5 "/>
<polygon id="XMLID_30689_" points="574.4,44.7 571.9,40.3 574.4,35.9 579.5,35.9 582,40.3 579.5,44.7 "/>
<polygon id="XMLID_30688_" points="583.9,50.8 581.4,46.4 583.9,42 589,42 591.5,46.4 589,50.8 "/>
<polygon id="XMLID_30687_" points="593.7,44.7 591.1,40.3 593.7,35.9 598.7,35.9 601.3,40.3 598.7,44.7 "/>
<polygon id="XMLID_30686_" points="603.2,50.8 600.6,46.4 603.2,42 608.2,42 610.8,46.4 608.2,50.8 "/>
<polygon id="XMLID_30709_" points="612.6,21.4 610,17 612.6,12.6 617.7,12.6 620.2,17 617.7,21.4 "/>
<polygon id="XMLID_30708_" points="612.6,33.5 610,29.1 612.6,24.7 617.7,24.7 620.2,29.1 617.7,33.5 "/>
<polygon id="XMLID_30707_" points="622.1,27.4 619.5,23 622.1,18.6 627.2,18.6 629.7,23 627.2,27.4 "/>
<polygon id="XMLID_30706_" points="622.1,39.5 619.5,35.1 622.1,30.7 627.2,30.7 629.7,35.1 627.2,39.5 "/>
<polygon id="XMLID_30705_" points="631.8,21.4 629.3,17 631.8,12.6 636.9,12.6 639.4,17 636.9,21.4 "/>
<polygon id="XMLID_30704_" points="631.8,33.5 629.3,29.1 631.8,24.7 636.9,24.7 639.4,29.1 636.9,33.5 "/>
<polygon id="XMLID_30703_" points="641.3,27.4 638.8,23 641.3,18.6 646.4,18.6 648.9,23 646.4,27.4 "/>
<polygon id="XMLID_30702_" points="641.3,39.5 638.8,35.1 641.3,30.7 646.4,30.7 648.9,35.1 646.4,39.5 "/>
<polygon id="XMLID_30701_" points="612.6,44.7 610,40.3 612.6,35.9 617.7,35.9 620.2,40.3 617.7,44.7 "/>
<polygon id="XMLID_30700_" points="622.1,50.8 619.5,46.4 622.1,42 627.2,42 629.7,46.4 627.2,50.8 "/>
<polygon id="XMLID_30699_" points="631.8,44.7 629.3,40.3 631.8,35.9 636.9,35.9 639.4,40.3 636.9,44.7 "/>
<polygon id="XMLID_30698_" points="641.3,50.8 638.8,46.4 641.3,42 646.4,42 648.9,46.4 646.4,50.8 "/>
<polygon id="XMLID_30721_" points="650.8,21.4 648.2,17 650.8,12.6 655.8,12.6 658.4,17 655.8,21.4 "/>
<polygon id="XMLID_30720_" points="650.8,33.5 648.2,29.1 650.8,24.7 655.8,24.7 658.4,29.1 655.8,33.5 "/>
<polygon id="XMLID_30719_" points="660.2,27.4 657.7,23 660.2,18.6 665.3,18.6 667.9,23 665.3,27.4 "/>
<polygon id="XMLID_30718_" points="660.2,39.5 657.7,35.1 660.2,30.7 665.3,30.7 667.9,35.1 665.3,39.5 "/>
<polygon id="XMLID_30717_" points="670,21.4 667.5,17 670,12.6 675.1,12.6 677.6,17 675.1,21.4 "/>
<polygon id="XMLID_30716_" points="670,33.5 667.5,29.1 670,24.7 675.1,24.7 677.6,29.1 675.1,33.5 "/>
<polygon id="XMLID_30715_" points="679.5,27.4 676.9,23 679.5,18.6 684.6,18.6 687.1,23 684.6,27.4 "/>
<polygon id="XMLID_30714_" points="679.5,39.5 676.9,35.1 679.5,30.7 684.6,30.7 687.1,35.1 684.6,39.5 "/>
<polygon id="XMLID_30713_" points="650.8,44.7 648.2,40.3 650.8,35.9 655.8,35.9 658.4,40.3 655.8,44.7 "/>
<polygon id="XMLID_30712_" points="660.2,50.8 657.7,46.4 660.2,42 665.3,42 667.9,46.4 665.3,50.8 "/>
<polygon id="XMLID_30711_" points="670,44.7 667.5,40.3 670,35.9 675.1,35.9 677.6,40.3 675.1,44.7 "/>
<polygon id="XMLID_30710_" points="679.5,50.8 676.9,46.4 679.5,42 684.6,42 687.1,46.4 684.6,50.8 "/>
<polygon id="XMLID_32693_" points="688.9,21.4 686.4,17 688.9,12.6 694,12.6 696.5,17 694,21.4 "/>
<polygon id="XMLID_32690_" points="688.9,33.5 686.4,29.1 688.9,24.7 694,24.7 696.5,29.1 694,33.5 "/>
<polygon id="XMLID_30731_" points="698.4,27.4 695.9,23 698.4,18.6 703.5,18.6 706,23 703.5,27.4 "/>
<polygon id="XMLID_30730_" points="698.4,39.5 695.9,35.1 698.4,30.7 703.5,30.7 706,35.1 703.5,39.5 "/>
<polygon id="XMLID_30729_" points="708.2,21.4 705.6,17 708.2,12.6 713.2,12.6 715.8,17 713.2,21.4 "/>
<polygon id="XMLID_30728_" points="708.2,33.5 705.6,29.1 708.2,24.7 713.2,24.7 715.8,29.1 713.2,33.5 "/>
<polygon id="XMLID_30727_" points="717.7,27.4 715.1,23 717.7,18.6 722.7,18.6 725.3,23 722.7,27.4 "/>
<polygon id="XMLID_30726_" points="717.7,39.5 715.1,35.1 717.7,30.7 722.7,30.7 725.3,35.1 722.7,39.5 "/>
<polygon id="XMLID_30725_" points="688.9,44.7 686.4,40.3 688.9,35.9 694,35.9 696.5,40.3 694,44.7 "/>
<polygon id="XMLID_30724_" points="698.4,50.8 695.9,46.4 698.4,42 703.5,42 706,46.4 703.5,50.8 "/>
<polygon id="XMLID_30723_" points="708.2,44.7 705.6,40.3 708.2,35.9 713.2,35.9 715.8,40.3 713.2,44.7 "/>
<polygon id="XMLID_30722_" points="717.7,50.8 715.1,46.4 717.7,42 722.7,42 725.3,46.4 722.7,50.8 "/>
<polygon id="XMLID_32705_" points="727.1,21.4 724.5,17 727.1,12.6 732.2,12.6 734.7,17 732.2,21.4 "/>
<polygon id="XMLID_32704_" points="727.1,33.5 724.5,29.1 727.1,24.7 732.2,24.7 734.7,29.1 732.2,33.5 "/>
<polygon id="XMLID_32703_" points="736.6,27.4 734,23 736.6,18.6 741.7,18.6 744.2,23 741.7,27.4 "/>
<polygon id="XMLID_32702_" points="736.6,39.5 734,35.1 736.6,30.7 741.7,30.7 744.2,35.1 741.7,39.5 "/>
<polygon id="XMLID_32701_" points="746.3,21.4 743.8,17 746.3,12.6 751.4,12.6 753.9,17 751.4,21.4 "/>
<polygon id="XMLID_32700_" points="746.3,33.5 743.8,29.1 746.3,24.7 751.4,24.7 753.9,29.1 751.4,33.5 "/>
<polygon id="XMLID_32699_" points="755.8,27.4 753.3,23 755.8,18.6 760.9,18.6 763.4,23 760.9,27.4 "/>
<polygon id="XMLID_32698_" points="755.8,39.5 753.3,35.1 755.8,30.7 760.9,30.7 763.4,35.1 760.9,39.5 "/>
<polygon id="XMLID_32697_" points="727.1,44.7 724.5,40.3 727.1,35.9 732.2,35.9 734.7,40.3 732.2,44.7 "/>
<polygon id="XMLID_32696_" points="736.6,50.8 734,46.4 736.6,42 741.7,42 744.2,46.4 741.7,50.8 "/>
<polygon id="XMLID_32695_" points="746.3,44.7 743.8,40.3 746.3,35.9 751.4,35.9 753.9,40.3 751.4,44.7 "/>
<polygon id="XMLID_32694_" points="755.8,50.8 753.3,46.4 755.8,42 760.9,42 763.4,46.4 760.9,50.8 "/>
<polygon id="XMLID_32717_" points="765.3,21.4 762.7,17 765.3,12.6 770.3,12.6 772.9,17 770.3,21.4 "/>
<polygon id="XMLID_32716_" points="765.3,33.5 762.7,29.1 765.3,24.7 770.3,24.7 772.9,29.1 770.3,33.5 "/>
<polygon id="XMLID_32715_" points="774.7,27.4 772.2,23 774.7,18.6 779.8,18.6 782.4,23 779.8,27.4 "/>
<polygon id="XMLID_32714_" points="774.7,39.5 772.2,35.1 774.7,30.7 779.8,30.7 782.4,35.1 779.8,39.5 "/>
<polygon id="XMLID_32713_" points="784.5,21.4 782,17 784.5,12.6 789.6,12.6 792.1,17 789.6,21.4 "/>
<polygon id="XMLID_32712_" points="784.5,33.5 782,29.1 784.5,24.7 789.6,24.7 792.1,29.1 789.6,33.5 "/>
<polygon id="XMLID_32711_" points="794,27.4 791.4,23 794,18.6 799.1,18.6 801.6,23 799.1,27.4 "/>
<polygon id="XMLID_32710_" points="794,39.5 791.4,35.1 794,30.7 799.1,30.7 801.6,35.1 799.1,39.5 "/>
<polygon id="XMLID_32709_" points="765.3,44.7 762.7,40.3 765.3,35.9 770.3,35.9 772.9,40.3 770.3,44.7 "/>
<polygon id="XMLID_32708_" points="774.7,50.8 772.2,46.4 774.7,42 779.8,42 782.4,46.4 779.8,50.8 "/>
<polygon id="XMLID_32707_" points="784.5,44.7 782,40.3 784.5,35.9 789.6,35.9 792.1,40.3 789.6,44.7 "/>
<polygon id="XMLID_32706_" points="794,50.8 791.4,46.4 794,42 799.1,42 801.6,46.4 799.1,50.8 "/>
<polygon id="XMLID_32729_" points="803.4,21.4 800.9,17 803.4,12.6 808.5,12.6 811,17 808.5,21.4 "/>
<polygon id="XMLID_32728_" points="803.4,33.5 800.9,29.1 803.4,24.7 808.5,24.7 811,29.1 808.5,33.5 "/>
<polygon id="XMLID_32727_" points="812.9,27.4 810.4,23 812.9,18.6 818,18.6 820.5,23 818,27.4 "/>
<polygon id="XMLID_32726_" points="812.9,39.5 810.4,35.1 812.9,30.7 818,30.7 820.5,35.1 818,39.5 "/>
<polygon id="XMLID_32725_" points="822.7,21.4 820.1,17 822.7,12.6 827.7,12.6 830.3,17 827.7,21.4 "/>
<polygon id="XMLID_32724_" points="822.7,33.5 820.1,29.1 822.7,24.7 827.7,24.7 830.3,29.1 827.7,33.5 "/>
<polygon id="XMLID_32723_" points="832.2,27.4 829.6,23 832.2,18.6 837.2,18.6 839.8,23 837.2,27.4 "/>
<polygon id="XMLID_32722_" points="832.2,39.5 829.6,35.1 832.2,30.7 837.2,30.7 839.8,35.1 837.2,39.5 "/>
<polygon id="XMLID_32721_" points="803.4,44.7 800.9,40.3 803.4,35.9 808.5,35.9 811,40.3 808.5,44.7 "/>
<polygon id="XMLID_32720_" points="812.9,50.8 810.4,46.4 812.9,42 818,42 820.5,46.4 818,50.8 "/>
<polygon id="XMLID_32719_" points="822.7,44.7 820.1,40.3 822.7,35.9 827.7,35.9 830.3,40.3 827.7,44.7 "/>
<polygon id="XMLID_32718_" points="832.2,50.8 829.6,46.4 832.2,42 837.2,42 839.8,46.4 837.2,50.8 "/>
<polygon id="XMLID_32741_" points="841.6,21.4 839,17 841.6,12.6 846.7,12.6 849.2,17 846.7,21.4 "/>
<polygon id="XMLID_32740_" points="841.6,33.5 839,29.1 841.6,24.7 846.7,24.7 849.2,29.1 846.7,33.5 "/>
<polygon id="XMLID_32739_" points="851.1,27.4 848.5,23 851.1,18.6 856.2,18.6 858.7,23 856.2,27.4 "/>
<polygon id="XMLID_32738_" points="851.1,39.5 848.5,35.1 851.1,30.7 856.2,30.7 858.7,35.1 856.2,39.5 "/>
<polygon id="XMLID_32737_" points="860.8,21.4 858.3,17 860.8,12.6 865.9,12.6 868.4,17 865.9,21.4 "/>
<polygon id="XMLID_32736_" points="860.8,33.5 858.3,29.1 860.8,24.7 865.9,24.7 868.4,29.1 865.9,33.5 "/>
<polygon id="XMLID_32735_" points="870.3,27.4 867.8,23 870.3,18.6 875.4,18.6 877.9,23 875.4,27.4 "/>
<polygon id="XMLID_32734_" points="870.3,39.5 867.8,35.1 870.3,30.7 875.4,30.7 877.9,35.1 875.4,39.5 "/>
<polygon id="XMLID_32733_" points="841.6,44.7 839,40.3 841.6,35.9 846.7,35.9 849.2,40.3 846.7,44.7 "/>
<polygon id="XMLID_32732_" points="851.1,50.8 848.5,46.4 851.1,42 856.2,42 858.7,46.4 856.2,50.8 "/>
<polygon id="XMLID_32731_" points="860.8,44.7 858.3,40.3 860.8,35.9 865.9,35.9 868.4,40.3 865.9,44.7 "/>
<polygon id="XMLID_32730_" points="870.3,50.8 867.8,46.4 870.3,42 875.4,42 877.9,46.4 875.4,50.8 "/>
<polygon id="XMLID_32839_" points="373.8,76.3 371.3,71.9 373.8,67.5 378.9,67.5 381.5,71.9 378.9,76.3 "/>
<polygon id="XMLID_32838_" points="383.6,70.2 381,65.8 383.6,61.4 388.7,61.4 391.2,65.8 388.7,70.2 "/>
<polygon id="XMLID_32837_" points="393.1,76.3 390.5,71.9 393.1,67.5 398.2,67.5 400.7,71.9 398.2,76.3 "/>
<polygon id="XMLID_32836_" points="402.8,70.2 400.3,65.8 402.8,61.4 407.9,61.4 410.4,65.8 407.9,70.2 "/>
<polygon id="XMLID_32835_" points="412.3,76.3 409.8,71.9 412.3,67.5 417.4,67.5 419.9,71.9 417.4,76.3 "/>
<polygon id="XMLID_32834_" points="421.8,70.2 419.2,65.8 421.8,61.4 426.8,61.4 429.4,65.8 426.8,70.2 "/>
<polygon id="XMLID_32833_" points="431.2,76.3 428.7,71.9 431.2,67.5 436.3,67.5 438.9,71.9 436.3,76.3 "/>
<polygon id="XMLID_32832_" points="441,70.2 438.5,65.8 441,61.4 446.1,61.4 448.6,65.8 446.1,70.2 "/>
<polygon id="XMLID_32831_" points="450.5,76.3 447.9,71.9 450.5,67.5 455.6,67.5 458.1,71.9 455.6,76.3 "/>
<polygon id="XMLID_32830_" points="459.9,70.2 457.4,65.8 459.9,61.4 465,61.4 467.5,65.8 465,70.2 "/>
<polygon id="XMLID_32829_" points="469.4,76.3 466.9,71.9 469.4,67.5 474.5,67.5 477,71.9 474.5,76.3 "/>
<polygon id="XMLID_32828_" points="479.2,70.2 476.6,65.8 479.2,61.4 484.2,61.4 486.8,65.8 484.2,70.2 "/>
<polygon id="XMLID_32827_" points="488.7,76.3 486.1,71.9 488.7,67.5 493.7,67.5 496.3,71.9 493.7,76.3 "/>
<polygon id="XMLID_32826_" points="498.1,70.2 495.5,65.8 498.1,61.4 503.2,61.4 505.7,65.8 503.2,70.2 "/>
<polygon id="XMLID_32825_" points="507.6,76.3 505,71.9 507.6,67.5 512.7,67.5 515.2,71.9 512.7,76.3 "/>
<polygon id="XMLID_32824_" points="517.3,70.2 514.8,65.8 517.3,61.4 522.4,61.4 524.9,65.8 522.4,70.2 "/>
<polygon id="XMLID_32823_" points="526.8,76.3 524.3,71.9 526.8,67.5 531.9,67.5 534.4,71.9 531.9,76.3 "/>
<polygon id="XMLID_32822_" points="536.3,70.2 533.7,65.8 536.3,61.4 541.3,61.4 543.9,65.8 541.3,70.2 "/>
<polygon id="XMLID_32821_" points="545.7,76.3 543.2,71.9 545.7,67.5 550.8,67.5 553.4,71.9 550.8,76.3 "/>
<polygon id="XMLID_32820_" points="555.5,70.2 553,65.8 555.5,61.4 560.6,61.4 563.1,65.8 560.6,70.2 "/>
<polygon id="XMLID_32819_" points="565,76.3 562.4,71.9 565,67.5 570.1,67.5 572.6,71.9 570.1,76.3 "/>
<polygon id="XMLID_32818_" points="574.4,70.2 571.9,65.8 574.4,61.4 579.5,61.4 582,65.8 579.5,70.2 "/>
<polygon id="XMLID_32817_" points="583.9,76.3 581.4,71.9 583.9,67.5 589,67.5 591.5,71.9 589,76.3 "/>
<polygon id="XMLID_32816_" points="593.7,70.2 591.1,65.8 593.7,61.4 598.7,61.4 601.3,65.8 598.7,70.2 "/>
<polygon id="XMLID_32815_" points="603.2,76.3 600.6,71.9 603.2,67.5 608.2,67.5 610.8,71.9 608.2,76.3 "/>
<polygon id="XMLID_32814_" points="612.6,70.2 610,65.8 612.6,61.4 617.7,61.4 620.2,65.8 617.7,70.2 "/>
<polygon id="XMLID_32813_" points="622.1,76.3 619.5,71.9 622.1,67.5 627.2,67.5 629.7,71.9 627.2,76.3 "/>
<polygon id="XMLID_32812_" points="631.8,70.2 629.3,65.8 631.8,61.4 636.9,61.4 639.4,65.8 636.9,70.2 "/>
<polygon id="XMLID_32811_" points="641.3,76.3 638.8,71.9 641.3,67.5 646.4,67.5 648.9,71.9 646.4,76.3 "/>
<polygon id="XMLID_32810_" points="650.8,70.2 648.2,65.8 650.8,61.4 655.8,61.4 658.4,65.8 655.8,70.2 "/>
<polygon id="XMLID_32809_" points="660.2,76.3 657.7,71.9 660.2,67.5 665.3,67.5 667.9,71.9 665.3,76.3 "/>
<polygon id="XMLID_32808_" points="670,70.2 667.5,65.8 670,61.4 675.1,61.4 677.6,65.8 675.1,70.2 "/>
<polygon id="XMLID_32807_" points="679.5,76.3 676.9,71.9 679.5,67.5 684.6,67.5 687.1,71.9 684.6,76.3 "/>
<polygon id="XMLID_32806_" points="688.9,70.2 686.4,65.8 688.9,61.4 694,61.4 696.5,65.8 694,70.2 "/>
<polygon id="XMLID_32805_" points="698.4,76.3 695.9,71.9 698.4,67.5 703.5,67.5 706,71.9 703.5,76.3 "/>
<polygon id="XMLID_32804_" points="708.2,70.2 705.6,65.8 708.2,61.4 713.2,61.4 715.8,65.8 713.2,70.2 "/>
<polygon id="XMLID_32803_" points="717.7,76.3 715.1,71.9 717.7,67.5 722.7,67.5 725.3,71.9 722.7,76.3 "/>
<polygon id="XMLID_32802_" points="727.1,70.2 724.5,65.8 727.1,61.4 732.2,61.4 734.7,65.8 732.2,70.2 "/>
<polygon id="XMLID_32801_" points="736.6,76.3 734,71.9 736.6,67.5 741.7,67.5 744.2,71.9 741.7,76.3 "/>
<polygon id="XMLID_32800_" points="746.3,70.2 743.8,65.8 746.3,61.4 751.4,61.4 753.9,65.8 751.4,70.2 "/>
<polygon id="XMLID_32799_" points="755.8,76.3 753.3,71.9 755.8,67.5 760.9,67.5 763.4,71.9 760.9,76.3 "/>
<polygon id="XMLID_32798_" points="765.3,70.2 762.7,65.8 765.3,61.4 770.3,61.4 772.9,65.8 770.3,70.2 "/>
<polygon id="XMLID_32756_" points="774.7,76.3 772.2,71.9 774.7,67.5 779.8,67.5 782.4,71.9 779.8,76.3 "/>
<polygon id="XMLID_32755_" points="784.5,70.2 782,65.8 784.5,61.4 789.6,61.4 792.1,65.8 789.6,70.2 "/>
<polygon id="XMLID_32754_" points="794,76.3 791.4,71.9 794,67.5 799.1,67.5 801.6,71.9 799.1,76.3 "/>
<polygon id="XMLID_32753_" points="803.4,70.2 800.9,65.8 803.4,61.4 808.5,61.4 811,65.8 808.5,70.2 "/>
<polygon id="XMLID_32752_" points="812.9,76.3 810.4,71.9 812.9,67.5 818,67.5 820.5,71.9 818,76.3 "/>
<polygon id="XMLID_32748_" points="822.7,70.2 820.1,65.8 822.7,61.4 827.7,61.4 830.3,65.8 827.7,70.2 "/>
<polygon id="XMLID_32747_" points="832.2,76.3 829.6,71.9 832.2,67.5 837.2,67.5 839.8,71.9 837.2,76.3 "/>
<polygon id="XMLID_32745_" points="841.6,70.2 839,65.8 841.6,61.4 846.7,61.4 849.2,65.8 846.7,70.2 "/>
<polygon id="XMLID_32744_" points="851.1,76.3 848.5,71.9 851.1,67.5 856.2,67.5 858.7,71.9 856.2,76.3 "/>
<polygon id="XMLID_32743_" points="860.8,70.2 858.3,65.8 860.8,61.4 865.9,61.4 868.4,65.8 865.9,70.2 "/>
<polygon id="XMLID_32742_" points="870.3,76.3 867.8,71.9 870.3,67.5 875.4,67.5 877.9,71.9 875.4,76.3 "/>
<polygon id="XMLID_23154_" points="1052.3,111 1049.8,106.6 1052.3,102.2 1057.4,102.2 1059.9,106.6 1057.4,111 "/>
<polygon id="XMLID_23148_" points="1110.1,111 1107.5,106.6 1110.1,102.2 1115.1,102.2 1117.7,106.6 1115.1,111 "/>
<polygon id="XMLID_23147_" points="1119.5,117 1117,112.6 1119.5,108.2 1124.6,108.2 1127.2,112.6 1124.6,117 "/>
<polygon id="XMLID_23146_" points="1129.3,111 1126.8,106.6 1129.3,102.2 1134.4,102.2 1136.9,106.6 1134.4,111 "/>
<polygon id="XMLID_23145_" points="1138.8,117 1136.3,112.6 1138.8,108.2 1143.9,108.2 1146.4,112.6 1143.9,117 "/>
<polygon id="XMLID_23144_" points="1148.5,111 1146,106.6 1148.5,102.2 1153.6,102.2 1156.2,106.6 1153.6,111 "/>
<polygon id="XMLID_23143_" points="1158,117 1155.5,112.6 1158,108.2 1163.1,108.2 1165.7,112.6 1163.1,117 "/>
<polygon id="XMLID_23142_" points="1177.3,117 1174.7,112.6 1177.3,108.2 1182.4,108.2 1184.9,112.6 1182.4,117 "/>
<polygon id="XMLID_23141_" points="1167.8,111 1165.2,106.6 1167.8,102.2 1172.9,102.2 1175.4,106.6 1172.9,111 "/>
<path id="XMLID_22975_" d="M983.8,15.9h-12.3c-0.5,0-0.9-0.4-0.9-0.9v-4.8c0-0.5,0.4-0.9,0.9-0.9h12.3c0.5,0,0.9,0.4,0.9,0.9v4.8
	C984.6,15.6,984.2,15.9,983.8,15.9z"/>
<path id="XMLID_22974_" d="M1004.3,15.9h-12.3c-0.5,0-0.9-0.4-0.9-0.9v-4.8c0-0.5,0.4-0.9,0.9-0.9h12.3c0.5,0,0.9,0.4,0.9,0.9v4.8
	C1005.2,15.6,1004.8,15.9,1004.3,15.9z"/>
<path id="XMLID_22973_" d="M1024.9,15.9h-12.2c-0.5,0-0.9-0.4-0.9-0.9v-4.8c0-0.5,0.4-0.9,0.9-0.9h12.2c0.5,0,0.9,0.4,0.9,0.9v4.8
	C1025.8,15.6,1025.4,15.9,1024.9,15.9z"/>
<path id="XMLID_22972_" d="M1045.5,15.9h-12.3c-0.5,0-0.9-0.4-0.9-0.9v-4.8c0-0.5,0.4-0.9,0.9-0.9h12.3c0.5,0,0.9,0.4,0.9,0.9v4.8
	C1046.4,15.6,1046,15.9,1045.5,15.9z"/>
<path id="XMLID_22971_" d="M1066.1,15.9h-12.3c-0.5,0-0.9-0.4-0.9-0.9v-4.8c0-0.5,0.4-0.9,0.9-0.9h12.3c0.5,0,0.9,0.4,0.9,0.9v4.8
	C1067,15.6,1066.6,15.9,1066.1,15.9z"/>
<path id="XMLID_22967_" d="M1086.7,15.9h-12.3c-0.5,0-0.9-0.4-0.9-0.9v-4.8c0-0.5,0.4-0.9,0.9-0.9h12.3c0.5,0,0.9,0.4,0.9,0.9v4.8
	C1087.6,15.6,1087.2,15.9,1086.7,15.9z"/>
<path id="XMLID_22966_" d="M1107.3,15.9H1095c-0.5,0-0.9-0.4-0.9-0.9v-4.8c0-0.5,0.4-0.9,0.9-0.9h12.3c0.5,0,0.9,0.4,0.9,0.9v4.8
	C1108.1,15.6,1107.7,15.9,1107.3,15.9z"/>
<path id="XMLID_22965_" d="M1127.8,15.9h-12.3c-0.5,0-0.9-0.4-0.9-0.9v-4.8c0-0.5,0.4-0.9,0.9-0.9h12.3c0.5,0,0.9,0.4,0.9,0.9v4.8
	C1128.7,15.6,1128.3,15.9,1127.8,15.9z"/>
<path id="XMLID_22964_" d="M1148.4,15.9h-12.3c-0.5,0-0.9-0.4-0.9-0.9v-4.8c0-0.5,0.4-0.9,0.9-0.9h12.3c0.5,0,0.9,0.4,0.9,0.9v4.8
	C1149.3,15.6,1148.9,15.9,1148.4,15.9z"/>
<path id="XMLID_22963_" d="M1169,15.9h-12.3c-0.5,0-0.9-0.4-0.9-0.9v-4.8c0-0.5,0.4-0.9,0.9-0.9h12.3c0.5,0,0.9,0.4,0.9,0.9v4.8
	C1169.9,15.6,1169.5,15.9,1169,15.9z"/>
<g id="XMLID_23168_">
	<g id="XMLID_23173_">
		<defs>
			<path id="SVGID_165_" d="M328.9,102.6v1c0,4,2.7,7.5,6.5,8.5l5.2,1.4c3,0.8,6.1,1.2,9.2,1.2l1.7-15.9L336.9,96
				c-0.4-0.1-0.9-0.1-1.3-0.1C332,95.9,328.9,98.8,328.9,102.6"/>
		</defs>
		<clipPath id="SVGID_1_">
			<use xlink:href="#SVGID_165_"  overflow="visible"/>
		</clipPath>
		
			<linearGradient id="XMLID_9_" gradientUnits="userSpaceOnUse" x1="-1443.4595" y1="3071.7339" x2="-1442.4595" y2="3071.7339" gradientTransform="matrix(14.9609 0 0 -14.9609 21921.9668 46061.1875)">
			<stop  offset="0" style="stop-color:#E1E0DF"/>
			<stop  offset="1" style="stop-color:#666666"/>
		</linearGradient>
		<rect id="XMLID_23174_" x="328.9" y="95.9" clip-path="url(#SVGID_1_)" fill="url(#XMLID_9_)" width="22.6" height="18.8"/>
	</g>
	<g id="XMLID_23171_">
		<defs>
			<path id="SVGID_164_" d="M328.9,19.1v1c0,4,2.7,7.5,6.5,8.5l5.2,1.4c3,0.8,6.1,1.2,9.2,1.2l1.7-15.9l-14.7-2.8
				c-0.4-0.1-0.9-0.1-1.3-0.1C332,12.4,328.9,15.3,328.9,19.1"/>
		</defs>
		<clipPath id="SVGID_2_">
			<use xlink:href="#SVGID_164_"  overflow="visible"/>
		</clipPath>
		
			<linearGradient id="XMLID_10_" gradientUnits="userSpaceOnUse" x1="-1443.4595" y1="3077.3149" x2="-1442.4595" y2="3077.3149" gradientTransform="matrix(14.9609 0 0 -14.9609 21921.9668 46061.1875)">
			<stop  offset="0" style="stop-color:#E1E0DF"/>
			<stop  offset="1" style="stop-color:#666666"/>
		</linearGradient>
		<rect id="XMLID_23172_" x="328.9" y="12.4" clip-path="url(#SVGID_2_)" fill="url(#XMLID_10_)" width="22.6" height="18.8"/>
	</g>
	<g id="XMLID_23169_">
		<defs>
			<path id="SVGID_163_" d="M349.9,15c-5.5,0-9.9,4.4-9.9,9.9v79.9c0,5.5,4.4,9.9,9.9,9.9c5.5,0,9.9-4.4,9.9-9.9V24.9
				C359.7,19.5,355.3,15,349.9,15L349.9,15z"/>
		</defs>
		<clipPath id="SVGID_3_">
			<use xlink:href="#SVGID_163_"  overflow="visible"/>
		</clipPath>
		
			<linearGradient id="XMLID_11_" gradientUnits="userSpaceOnUse" x1="-1482.6646" y1="2773.3203" x2="-1481.6646" y2="2773.3203" gradientTransform="matrix(-19.7471 0 0 19.7471 -28918.5762 -54700.1602)">
			<stop  offset="0" style="stop-color:#CCCDCD"/>
			<stop  offset="0.4731" style="stop-color:#E1E0DF"/>
			<stop  offset="1" style="stop-color:#666666"/>
		</linearGradient>
		<rect id="XMLID_23170_" x="340" y="15" clip-path="url(#SVGID_3_)" fill="url(#XMLID_11_)" width="19.7" height="99.6"/>
	</g>
</g>
</svg>
