<?xml version="1.0" encoding="utf-8"?>
<!-- Generator: Adobe Illustrator 16.0.0, SVG Export Plug-In . SVG Version: 6.00 Build 0)  -->
<!DOCTYPE svg PUBLIC "-//W3C//DTD SVG 1.1//EN" "http://www.w3.org/Graphics/SVG/1.1/DTD/svg11.dtd">
<svg version="1.1" id="图层_1" xmlns="http://www.w3.org/2000/svg" xmlns:xlink="http://www.w3.org/1999/xlink" x="0px" y="0px"
	 width="1417.32px" height="756.85px" viewBox="0 0 1417.32 756.85" enable-background="new 0 0 1417.32 756.85"
	 xml:space="preserve">
<rect x="-0.001" y="0" fill="#444343" width="1417.323" height="756.85"/>
<g>
	<rect x="111.801" y="618.539" width="1205.68" height="81.969"/>
	<rect x="111.801" y="620.49" fill="#353535" width="1203.8" height="77.559"/>
	<linearGradient id="SVGID_1_" gradientUnits="userSpaceOnUse" x1="713.1836" y1="624.5449" x2="713.1836" y2="620.4902">
		<stop  offset="0" style="stop-color:#8E938C"/>
		<stop  offset="0.5573" style="stop-color:#C9CACA"/>
		<stop  offset="0.8835" style="stop-color:#636666"/>
		<stop  offset="1" style="stop-color:#3A3A3A"/>
	</linearGradient>
	<rect x="110.768" y="620.49" fill="url(#SVGID_1_)" width="1204.833" height="4.055"/>
	<linearGradient id="SVGID_2_" gradientUnits="userSpaceOnUse" x1="713.1836" y1="698.0488" x2="713.1836" y2="693.9941">
		<stop  offset="0" style="stop-color:#8E938C"/>
		<stop  offset="0.5573" style="stop-color:#C9CACA"/>
		<stop  offset="0.8835" style="stop-color:#636666"/>
		<stop  offset="1" style="stop-color:#3A3A3A"/>
	</linearGradient>
	<rect x="110.768" y="693.994" fill="url(#SVGID_2_)" width="1204.833" height="4.055"/>
	<g>
		<ellipse fill="#3C3C3D" cx="134.928" cy="659.523" rx="17.888" ry="17.254"/>
		<g>
			<path fill="#AFAEAE" d="M148.216,659.525c0,7.07-5.949,12.803-13.288,12.803s-13.287-5.732-13.287-12.803
				c0-7.074,5.948-12.805,13.287-12.805S148.216,652.451,148.216,659.525"/>
			<path fill="none" stroke="#929292" stroke-miterlimit="10" d="M148.216,659.525c0,7.07-5.949,12.803-13.288,12.803
				s-13.287-5.732-13.287-12.803c0-7.074,5.948-12.805,13.287-12.805S148.216,652.451,148.216,659.525z"/>
			<path fill="#AFAEAE" d="M144.691,659.525c0,5.195-4.372,9.406-9.764,9.406s-9.763-4.211-9.763-9.406
				c0-5.197,4.371-9.41,9.763-9.41S144.691,654.328,144.691,659.525"/>
			<ellipse fill="none" stroke="#929292" stroke-miterlimit="10" cx="134.928" cy="659.525" rx="9.763" ry="9.406"/>
			<g>
				<g>
					<defs>
						<rect id="SVGID_3_" x="125.724" y="650.658" width="18.408" height="17.732"/>
					</defs>
					<clipPath id="SVGID_4_">
						<use xlink:href="#SVGID_3_"  overflow="visible"/>
					</clipPath>
					<path clip-path="url(#SVGID_4_)" fill="#BEBEBD" d="M144.13,659.525c0,4.896-4.12,8.865-9.202,8.865s-9.201-3.969-9.201-8.865
						c0-4.898,4.119-8.867,9.201-8.867S144.13,654.627,144.13,659.525"/>
					<path clip-path="url(#SVGID_4_)" fill="#C0C0C0" d="M143.912,659.525c0,4.779-4.022,8.656-8.984,8.656
						c-4.963,0-8.984-3.877-8.984-8.656c0-4.783,4.021-8.66,8.984-8.66C139.89,650.865,143.912,654.742,143.912,659.525"/>
					<path clip-path="url(#SVGID_4_)" fill="#C2C3C3" d="M143.697,659.525c0,4.664-3.927,8.447-8.77,8.447s-8.769-3.783-8.769-8.447
						c0-4.668,3.926-8.451,8.769-8.451S143.697,654.857,143.697,659.525"/>
					<path clip-path="url(#SVGID_4_)" fill="#C4C5C4" d="M143.48,659.525c0,4.551-3.829,8.24-8.553,8.24s-8.553-3.689-8.553-8.24
						c0-4.553,3.829-8.242,8.553-8.242S143.48,654.973,143.48,659.525"/>
					<path clip-path="url(#SVGID_4_)" fill="#C6C8C8" d="M143.264,659.525c0,4.434-3.732,8.031-8.336,8.031
						c-4.603,0-8.335-3.598-8.335-8.031c0-4.436,3.732-8.035,8.335-8.035C139.531,651.49,143.264,655.09,143.264,659.525"/>
					<path clip-path="url(#SVGID_4_)" fill="#C9CACB" d="M143.047,659.525c0,4.318-3.635,7.822-8.119,7.822
						s-8.119-3.504-8.119-7.822c0-4.322,3.635-7.824,8.119-7.824S143.047,655.203,143.047,659.525"/>
					<path clip-path="url(#SVGID_4_)" fill="#CBCDCD" d="M142.831,659.525c0,4.203-3.539,7.613-7.903,7.613
						c-4.365,0-7.901-3.41-7.901-7.613c0-4.207,3.536-7.617,7.901-7.617C139.292,651.908,142.831,655.318,142.831,659.525"/>
					<path clip-path="url(#SVGID_4_)" fill="#CCCFD0" d="M142.614,659.525c0,4.09-3.441,7.406-7.687,7.406s-7.688-3.316-7.688-7.406
						c0-4.092,3.442-7.408,7.688-7.408S142.614,655.434,142.614,659.525"/>
					<path clip-path="url(#SVGID_4_)" fill="#D0D2D2" d="M142.397,659.525c0,3.975-3.344,7.197-7.47,7.197
						c-4.125,0-7.471-3.223-7.471-7.197c0-3.977,3.346-7.199,7.471-7.199C139.054,652.326,142.397,655.549,142.397,659.525"/>
					<path clip-path="url(#SVGID_4_)" fill="#D2D4D5" d="M142.182,659.525c0,3.859-3.248,6.988-7.254,6.988
						c-4.007,0-7.254-3.129-7.254-6.988c0-3.861,3.247-6.992,7.254-6.992C138.934,652.533,142.182,655.664,142.182,659.525"/>
				</g>
			</g>
			<polygon fill="#605F5E" points="133.726,664.855 133.726,660.682 129.395,660.682 129.395,658.365 133.726,658.365 
				133.726,654.191 136.13,654.191 136.13,658.365 140.461,658.365 140.461,660.682 136.13,660.682 136.13,664.855 			"/>
			<path fill="#221714" d="M135.922,654.393v3.771v0.402h0.416h3.915v1.914h-3.915h-0.416v0.402v3.771h-1.987v-3.771v-0.402h-0.417
				h-3.915v-1.914h3.915h0.417v-0.402v-3.771H135.922z M136.338,653.994h-2.82v4.17h-4.33v2.719h4.33v4.172h2.82v-4.172h4.33v-2.719
				h-4.33V653.994z"/>
		</g>
	</g>
	<g>
		<ellipse fill="#3C3C3D" cx="1292.758" cy="659.27" rx="17.888" ry="17.254"/>
		<g>
			<path fill="#AFAEAE" d="M1306.047,659.27c0,7.072-5.951,12.805-13.289,12.805s-13.287-5.732-13.287-12.805
				s5.949-12.805,13.287-12.805S1306.047,652.197,1306.047,659.27"/>
			<ellipse fill="none" stroke="#929292" stroke-miterlimit="10" cx="1292.759" cy="659.27" rx="13.288" ry="12.805"/>
			<path fill="#AFAEAE" d="M1302.521,659.27c0,5.195-4.371,9.408-9.764,9.408c-5.392,0-9.764-4.213-9.764-9.408
				s4.372-9.41,9.764-9.41C1298.15,649.859,1302.521,654.074,1302.521,659.27"/>
			<ellipse fill="none" stroke="#929292" stroke-miterlimit="10" cx="1292.758" cy="659.27" rx="9.764" ry="9.408"/>
			<g>
				<g>
					<defs>
						<rect id="SVGID_5_" x="1283.554" y="650.402" width="18.409" height="17.734"/>
					</defs>
					<clipPath id="SVGID_6_">
						<use xlink:href="#SVGID_5_"  overflow="visible"/>
					</clipPath>
					<path clip-path="url(#SVGID_6_)" fill="#BEBEBD" d="M1301.961,659.27c0,4.896-4.121,8.867-9.203,8.867
						s-9.201-3.971-9.201-8.867c0-4.898,4.119-8.867,9.201-8.867S1301.961,654.371,1301.961,659.27"/>
					<path clip-path="url(#SVGID_6_)" fill="#C0C0C0" d="M1301.742,659.27c0,4.781-4.022,8.658-8.984,8.658
						c-4.963,0-8.984-3.877-8.984-8.658s4.021-8.658,8.984-8.658C1297.72,650.611,1301.742,654.488,1301.742,659.27"/>
					<path clip-path="url(#SVGID_6_)" fill="#C2C3C3" d="M1301.527,659.27c0,4.666-3.927,8.449-8.77,8.449
						c-4.844,0-8.769-3.783-8.769-8.449c0-4.668,3.925-8.449,8.769-8.449C1297.601,650.82,1301.527,654.602,1301.527,659.27"/>
					<path clip-path="url(#SVGID_6_)" fill="#C4C5C4" d="M1301.311,659.27c0,4.551-3.83,8.24-8.553,8.24
						c-4.724,0-8.553-3.689-8.553-8.24c0-4.553,3.829-8.242,8.553-8.242C1297.48,651.027,1301.311,654.717,1301.311,659.27"/>
					<path clip-path="url(#SVGID_6_)" fill="#C6C8C8" d="M1301.094,659.27c0,4.436-3.732,8.031-8.336,8.031
						c-4.603,0-8.335-3.596-8.335-8.031s3.732-8.033,8.335-8.033C1297.361,651.236,1301.094,654.834,1301.094,659.27"/>
					<path clip-path="url(#SVGID_6_)" fill="#C9CACB" d="M1300.877,659.27c0,4.32-3.635,7.824-8.119,7.824
						c-4.483,0-8.119-3.504-8.119-7.824s3.636-7.824,8.119-7.824C1297.242,651.445,1300.877,654.949,1300.877,659.27"/>
					<path clip-path="url(#SVGID_6_)" fill="#CBCDCD" d="M1300.661,659.27c0,4.205-3.539,7.615-7.903,7.615
						c-4.365,0-7.902-3.41-7.902-7.615s3.537-7.615,7.902-7.615C1297.122,651.654,1300.661,655.064,1300.661,659.27"/>
					<path clip-path="url(#SVGID_6_)" fill="#CCCFD0" d="M1300.445,659.27c0,4.09-3.441,7.406-7.688,7.406s-7.688-3.316-7.688-7.406
						c0-4.092,3.441-7.408,7.688-7.408S1300.445,655.178,1300.445,659.27"/>
					<path clip-path="url(#SVGID_6_)" fill="#D0D2D2" d="M1300.229,659.27c0,3.975-3.345,7.197-7.471,7.197
						c-4.125,0-7.471-3.223-7.471-7.197c0-3.977,3.346-7.199,7.471-7.199C1296.884,652.07,1300.229,655.293,1300.229,659.27"/>
					<path clip-path="url(#SVGID_6_)" fill="#D2D4D5" d="M1300.012,659.27c0,3.859-3.248,6.99-7.254,6.99
						c-4.007,0-7.254-3.131-7.254-6.99c0-3.861,3.247-6.99,7.254-6.99C1296.764,652.279,1300.012,655.408,1300.012,659.27"/>
				</g>
			</g>
			<polygon fill="#605F5E" points="1291.556,664.6 1291.556,660.428 1287.225,660.428 1287.225,658.111 1291.556,658.111 
				1291.556,653.938 1293.961,653.938 1293.961,658.111 1298.291,658.111 1298.291,660.428 1293.961,660.428 1293.961,664.6 			"/>
			<path fill="#221714" d="M1293.752,654.139v3.77v0.404h0.416h3.915v1.914h-3.915h-0.416v0.4v3.773h-1.988v-3.773v-0.4h-0.416
				h-3.914v-1.914h3.914h0.416v-0.404v-3.77H1293.752z M1294.168,653.738h-2.82v4.17h-4.33v2.719h4.33v4.174h2.82v-4.174h4.33
				v-2.719h-4.33V653.738z"/>
		</g>
	</g>
</g>
<g>
	<rect x="111.801" y="540.549" width="1205.68" height="81.969"/>
	<rect x="111.801" y="542.498" fill="#353535" width="1203.8" height="77.561"/>
	<linearGradient id="SVGID_7_" gradientUnits="userSpaceOnUse" x1="713.1836" y1="546.5527" x2="713.1836" y2="542.498">
		<stop  offset="0" style="stop-color:#8E938C"/>
		<stop  offset="0.5573" style="stop-color:#C9CACA"/>
		<stop  offset="0.8835" style="stop-color:#636666"/>
		<stop  offset="1" style="stop-color:#3A3A3A"/>
	</linearGradient>
	<rect x="110.768" y="542.498" fill="url(#SVGID_7_)" width="1204.833" height="4.055"/>
	<linearGradient id="SVGID_8_" gradientUnits="userSpaceOnUse" x1="713.1836" y1="620.0586" x2="713.1836" y2="616.002">
		<stop  offset="0" style="stop-color:#8E938C"/>
		<stop  offset="0.5573" style="stop-color:#C9CACA"/>
		<stop  offset="0.8835" style="stop-color:#636666"/>
		<stop  offset="1" style="stop-color:#3A3A3A"/>
	</linearGradient>
	<rect x="110.768" y="616.002" fill="url(#SVGID_8_)" width="1204.833" height="4.057"/>
	<g>
		<ellipse fill="#3C3C3D" cx="134.928" cy="581.533" rx="17.888" ry="17.252"/>
		<g>
			<path fill="#AFAEAE" d="M148.216,581.533c0,7.072-5.949,12.805-13.288,12.805s-13.287-5.732-13.287-12.805
				s5.948-12.805,13.287-12.805S148.216,574.461,148.216,581.533"/>
			<ellipse fill="none" stroke="#929292" stroke-miterlimit="10" cx="134.928" cy="581.533" rx="13.288" ry="12.805"/>
			<path fill="#AFAEAE" d="M144.691,581.533c0,5.195-4.372,9.408-9.764,9.408s-9.763-4.213-9.763-9.408
				c0-5.197,4.371-9.41,9.763-9.41S144.691,576.336,144.691,581.533"/>
			<ellipse fill="none" stroke="#929292" stroke-miterlimit="10" cx="134.928" cy="581.533" rx="9.763" ry="9.408"/>
			<g>
				<g>
					<defs>
						<rect id="SVGID_9_" x="125.724" y="572.666" width="18.408" height="17.734"/>
					</defs>
					<clipPath id="SVGID_10_">
						<use xlink:href="#SVGID_9_"  overflow="visible"/>
					</clipPath>
					<path clip-path="url(#SVGID_10_)" fill="#BEBEBD" d="M144.13,581.533c0,4.896-4.12,8.867-9.202,8.867s-9.201-3.971-9.201-8.867
						c0-4.898,4.119-8.867,9.201-8.867S144.13,576.635,144.13,581.533"/>
					<path clip-path="url(#SVGID_10_)" fill="#C0C0C0" d="M143.912,581.533c0,4.781-4.022,8.656-8.984,8.656
						c-4.963,0-8.984-3.875-8.984-8.656s4.021-8.658,8.984-8.658C139.89,572.875,143.912,576.752,143.912,581.533"/>
					<path clip-path="url(#SVGID_10_)" fill="#C2C3C3" d="M143.697,581.533c0,4.666-3.927,8.449-8.77,8.449
						s-8.769-3.783-8.769-8.449c0-4.668,3.926-8.449,8.769-8.449S143.697,576.865,143.697,581.533"/>
					<path clip-path="url(#SVGID_10_)" fill="#C4C5C4" d="M143.48,581.533c0,4.551-3.829,8.24-8.553,8.24s-8.553-3.689-8.553-8.24
						c0-4.553,3.829-8.242,8.553-8.242S143.48,576.98,143.48,581.533"/>
					<path clip-path="url(#SVGID_10_)" fill="#C6C8C8" d="M143.264,581.533c0,4.434-3.732,8.031-8.336,8.031
						c-4.603,0-8.335-3.598-8.335-8.031c0-4.436,3.732-8.033,8.335-8.033C139.531,573.5,143.264,577.098,143.264,581.533"/>
					<path clip-path="url(#SVGID_10_)" fill="#C9CACB" d="M143.047,581.533c0,4.318-3.635,7.822-8.119,7.822
						s-8.119-3.504-8.119-7.822c0-4.32,3.635-7.824,8.119-7.824S143.047,577.213,143.047,581.533"/>
					<path clip-path="url(#SVGID_10_)" fill="#CBCDCD" d="M142.831,581.533c0,4.205-3.539,7.615-7.903,7.615
						c-4.365,0-7.901-3.41-7.901-7.615s3.536-7.615,7.901-7.615C139.292,573.918,142.831,577.328,142.831,581.533"/>
					<path clip-path="url(#SVGID_10_)" fill="#CCCFD0" d="M142.614,581.533c0,4.09-3.441,7.406-7.687,7.406
						s-7.688-3.316-7.688-7.406c0-4.092,3.442-7.408,7.688-7.408S142.614,577.441,142.614,581.533"/>
					<path clip-path="url(#SVGID_10_)" fill="#D0D2D2" d="M142.397,581.533c0,3.975-3.344,7.197-7.47,7.197
						c-4.125,0-7.471-3.223-7.471-7.197c0-3.977,3.346-7.199,7.471-7.199C139.054,574.334,142.397,577.557,142.397,581.533"/>
					<path clip-path="url(#SVGID_10_)" fill="#D2D4D5" d="M142.182,581.533c0,3.859-3.248,6.99-7.254,6.99
						c-4.007,0-7.254-3.131-7.254-6.99c0-3.861,3.247-6.99,7.254-6.99C138.934,574.543,142.182,577.672,142.182,581.533"/>
				</g>
			</g>
			<polygon fill="#605F5E" points="133.726,586.863 133.726,582.689 129.395,582.689 129.395,580.373 133.726,580.373 
				133.726,576.201 136.13,576.201 136.13,580.373 140.461,580.373 140.461,582.689 136.13,582.689 136.13,586.863 			"/>
			<path fill="#221714" d="M135.922,576.402v3.77v0.404h0.416h3.915v1.914h-3.915h-0.416v0.4v3.773h-1.987v-3.773v-0.4h-0.417
				h-3.915v-1.914h3.915h0.417v-0.404v-3.77H135.922z M136.338,576.002h-2.82v4.17h-4.33v2.719h4.33v4.174h2.82v-4.174h4.33v-2.719
				h-4.33V576.002z"/>
		</g>
	</g>
	<g>
		<ellipse fill="#3C3C3D" cx="1292.758" cy="581.277" rx="17.888" ry="17.254"/>
		<g>
			<path fill="#AFAEAE" d="M1306.047,581.279c0,7.07-5.951,12.803-13.289,12.803s-13.287-5.732-13.287-12.803
				c0-7.074,5.949-12.807,13.287-12.807S1306.047,574.205,1306.047,581.279"/>
			<path fill="none" stroke="#929292" stroke-miterlimit="10" d="M1306.047,581.279c0,7.07-5.951,12.803-13.289,12.803
				s-13.287-5.732-13.287-12.803c0-7.074,5.949-12.807,13.287-12.807S1306.047,574.205,1306.047,581.279z"/>
			<path fill="#AFAEAE" d="M1302.521,581.279c0,5.193-4.371,9.406-9.764,9.406c-5.392,0-9.764-4.213-9.764-9.406
				c0-5.197,4.372-9.41,9.764-9.41C1298.15,571.869,1302.521,576.082,1302.521,581.279"/>
			<ellipse fill="none" stroke="#929292" stroke-miterlimit="10" cx="1292.758" cy="581.279" rx="9.764" ry="9.406"/>
			<g>
				<g>
					<defs>
						<rect id="SVGID_11_" x="1283.554" y="572.412" width="18.409" height="17.732"/>
					</defs>
					<clipPath id="SVGID_12_">
						<use xlink:href="#SVGID_11_"  overflow="visible"/>
					</clipPath>
					<path clip-path="url(#SVGID_12_)" fill="#BEBEBD" d="M1301.961,581.279c0,4.896-4.121,8.865-9.203,8.865
						s-9.201-3.969-9.201-8.865c0-4.898,4.119-8.867,9.201-8.867S1301.961,576.381,1301.961,581.279"/>
					<path clip-path="url(#SVGID_12_)" fill="#C0C0C0" d="M1301.742,581.279c0,4.779-4.022,8.656-8.984,8.656
						c-4.963,0-8.984-3.877-8.984-8.656c0-4.783,4.021-8.66,8.984-8.66C1297.72,572.619,1301.742,576.496,1301.742,581.279"/>
					<path clip-path="url(#SVGID_12_)" fill="#C2C3C3" d="M1301.527,581.279c0,4.664-3.927,8.447-8.77,8.447
						c-4.844,0-8.769-3.783-8.769-8.447c0-4.668,3.925-8.451,8.769-8.451C1297.601,572.828,1301.527,576.611,1301.527,581.279"/>
					<path clip-path="url(#SVGID_12_)" fill="#C4C5C4" d="M1301.311,581.279c0,4.551-3.83,8.24-8.553,8.24
						c-4.724,0-8.553-3.689-8.553-8.24c0-4.555,3.829-8.242,8.553-8.242C1297.48,573.037,1301.311,576.725,1301.311,581.279"/>
					<path clip-path="url(#SVGID_12_)" fill="#C6C8C8" d="M1301.094,581.279c0,4.434-3.732,8.031-8.336,8.031
						c-4.603,0-8.335-3.598-8.335-8.031c0-4.436,3.732-8.035,8.335-8.035C1297.361,573.244,1301.094,576.844,1301.094,581.279"/>
					<path clip-path="url(#SVGID_12_)" fill="#C9CACB" d="M1300.877,581.279c0,4.318-3.635,7.822-8.119,7.822
						c-4.483,0-8.119-3.504-8.119-7.822c0-4.322,3.636-7.826,8.119-7.826C1297.242,573.453,1300.877,576.957,1300.877,581.279"/>
					<path clip-path="url(#SVGID_12_)" fill="#CBCDCD" d="M1300.661,581.279c0,4.203-3.539,7.613-7.903,7.613
						c-4.365,0-7.902-3.41-7.902-7.613c0-4.207,3.537-7.617,7.902-7.617C1297.122,573.662,1300.661,577.072,1300.661,581.279"/>
					<path clip-path="url(#SVGID_12_)" fill="#CCCFD0" d="M1300.445,581.279c0,4.09-3.441,7.406-7.688,7.406
						s-7.688-3.316-7.688-7.406c0-4.092,3.441-7.408,7.688-7.408S1300.445,577.188,1300.445,581.279"/>
					<path clip-path="url(#SVGID_12_)" fill="#D0D2D2" d="M1300.229,581.279c0,3.975-3.345,7.197-7.471,7.197
						c-4.125,0-7.471-3.223-7.471-7.197c0-3.977,3.346-7.199,7.471-7.199C1296.884,574.08,1300.229,577.303,1300.229,581.279"/>
					<path clip-path="url(#SVGID_12_)" fill="#D2D4D5" d="M1300.012,581.279c0,3.859-3.248,6.988-7.254,6.988
						c-4.007,0-7.254-3.129-7.254-6.988c0-3.861,3.247-6.992,7.254-6.992C1296.764,574.287,1300.012,577.418,1300.012,581.279"/>
				</g>
			</g>
			<polygon fill="#605F5E" points="1291.556,586.609 1291.556,582.436 1287.225,582.436 1287.225,580.119 1291.556,580.119 
				1291.556,575.945 1293.961,575.945 1293.961,580.119 1298.291,580.119 1298.291,582.436 1293.961,582.436 1293.961,586.609 			
				"/>
			<path fill="#221714" d="M1293.752,576.146v3.771v0.402h0.416h3.915v1.914h-3.915h-0.416v0.402v3.771h-1.988v-3.771v-0.402h-0.416
				h-3.914v-1.914h3.914h0.416v-0.402v-3.771H1293.752z M1294.168,575.748h-2.82v4.17h-4.33v2.719h4.33v4.172h2.82v-4.172h4.33
				v-2.719h-4.33V575.748z"/>
		</g>
	</g>
</g>
<g>
	<rect x="111.801" y="462.557" width="1205.68" height="81.969"/>
	<rect x="111.801" y="464.506" fill="#353535" width="1203.8" height="77.561"/>
	<linearGradient id="SVGID_13_" gradientUnits="userSpaceOnUse" x1="713.1836" y1="468.5625" x2="713.1836" y2="464.5059">
		<stop  offset="0" style="stop-color:#8E938C"/>
		<stop  offset="0.5573" style="stop-color:#C9CACA"/>
		<stop  offset="0.8835" style="stop-color:#636666"/>
		<stop  offset="1" style="stop-color:#3A3A3A"/>
	</linearGradient>
	<rect x="110.768" y="464.506" fill="url(#SVGID_13_)" width="1204.833" height="4.057"/>
	<linearGradient id="SVGID_14_" gradientUnits="userSpaceOnUse" x1="713.1836" y1="542.0664" x2="713.1836" y2="538.0117">
		<stop  offset="0" style="stop-color:#8E938C"/>
		<stop  offset="0.5573" style="stop-color:#C9CACA"/>
		<stop  offset="0.8835" style="stop-color:#636666"/>
		<stop  offset="1" style="stop-color:#3A3A3A"/>
	</linearGradient>
	<rect x="110.768" y="538.012" fill="url(#SVGID_14_)" width="1204.833" height="4.055"/>
	<g>
		<ellipse fill="#3C3C3D" cx="134.928" cy="503.541" rx="17.888" ry="17.254"/>
		<g>
			<path fill="#AFAEAE" d="M148.216,503.543c0,7.07-5.949,12.803-13.288,12.803s-13.287-5.732-13.287-12.803
				c0-7.074,5.948-12.807,13.287-12.807S148.216,496.469,148.216,503.543"/>
			<path fill="none" stroke="#929292" stroke-miterlimit="10" d="M148.216,503.543c0,7.07-5.949,12.803-13.288,12.803
				s-13.287-5.732-13.287-12.803c0-7.074,5.948-12.807,13.287-12.807S148.216,496.469,148.216,503.543z"/>
			<path fill="#AFAEAE" d="M144.691,503.543c0,5.193-4.372,9.406-9.764,9.406s-9.763-4.213-9.763-9.406
				c0-5.197,4.371-9.41,9.763-9.41S144.691,498.346,144.691,503.543"/>
			<ellipse fill="none" stroke="#929292" stroke-miterlimit="10" cx="134.928" cy="503.543" rx="9.763" ry="9.406"/>
			<g>
				<g>
					<defs>
						<rect id="SVGID_15_" x="125.724" y="494.676" width="18.408" height="17.732"/>
					</defs>
					<clipPath id="SVGID_16_">
						<use xlink:href="#SVGID_15_"  overflow="visible"/>
					</clipPath>
					<path clip-path="url(#SVGID_16_)" fill="#BEBEBD" d="M144.13,503.543c0,4.895-4.12,8.865-9.202,8.865s-9.201-3.971-9.201-8.865
						c0-4.898,4.119-8.867,9.201-8.867S144.13,498.645,144.13,503.543"/>
					<path clip-path="url(#SVGID_16_)" fill="#C0C0C0" d="M143.912,503.543c0,4.779-4.022,8.656-8.984,8.656
						c-4.963,0-8.984-3.877-8.984-8.656c0-4.783,4.021-8.66,8.984-8.66C139.89,494.883,143.912,498.76,143.912,503.543"/>
					<path clip-path="url(#SVGID_16_)" fill="#C2C3C3" d="M143.697,503.543c0,4.664-3.927,8.447-8.77,8.447
						s-8.769-3.783-8.769-8.447c0-4.67,3.926-8.451,8.769-8.451S143.697,498.873,143.697,503.543"/>
					<path clip-path="url(#SVGID_16_)" fill="#C4C5C4" d="M143.48,503.543c0,4.549-3.829,8.238-8.553,8.238
						s-8.553-3.689-8.553-8.238c0-4.555,3.829-8.242,8.553-8.242S143.48,498.988,143.48,503.543"/>
					<path clip-path="url(#SVGID_16_)" fill="#C6C8C8" d="M143.264,503.543c0,4.434-3.732,8.029-8.336,8.029
						c-4.603,0-8.335-3.596-8.335-8.029c0-4.436,3.732-8.035,8.335-8.035C139.531,495.508,143.264,499.107,143.264,503.543"/>
					<path clip-path="url(#SVGID_16_)" fill="#C9CACB" d="M143.047,503.543c0,4.318-3.635,7.822-8.119,7.822
						s-8.119-3.504-8.119-7.822c0-4.322,3.635-7.826,8.119-7.826S143.047,499.221,143.047,503.543"/>
					<path clip-path="url(#SVGID_16_)" fill="#CBCDCD" d="M142.831,503.543c0,4.203-3.539,7.613-7.903,7.613
						c-4.365,0-7.901-3.41-7.901-7.613c0-4.207,3.536-7.617,7.901-7.617C139.292,495.926,142.831,499.336,142.831,503.543"/>
					<path clip-path="url(#SVGID_16_)" fill="#CCCFD0" d="M142.614,503.543c0,4.09-3.441,7.406-7.687,7.406
						s-7.688-3.316-7.688-7.406c0-4.092,3.442-7.408,7.688-7.408S142.614,499.451,142.614,503.543"/>
					<path clip-path="url(#SVGID_16_)" fill="#D0D2D2" d="M142.397,503.543c0,3.975-3.344,7.197-7.47,7.197
						c-4.125,0-7.471-3.223-7.471-7.197c0-3.979,3.346-7.199,7.471-7.199C139.054,496.344,142.397,499.564,142.397,503.543"/>
					<path clip-path="url(#SVGID_16_)" fill="#D2D4D5" d="M142.182,503.543c0,3.857-3.248,6.988-7.254,6.988
						c-4.007,0-7.254-3.131-7.254-6.988c0-3.861,3.247-6.992,7.254-6.992C138.934,496.551,142.182,499.682,142.182,503.543"/>
				</g>
			</g>
			<polygon fill="#605F5E" points="133.726,508.873 133.726,504.699 129.395,504.699 129.395,502.383 133.726,502.383 
				133.726,498.209 136.13,498.209 136.13,502.383 140.461,502.383 140.461,504.699 136.13,504.699 136.13,508.873 			"/>
			<path fill="#221714" d="M135.922,498.41v3.771v0.402h0.416h3.915v1.914h-3.915h-0.416v0.402v3.771h-1.987V504.9v-0.402h-0.417
				h-3.915v-1.914h3.915h0.417v-0.402v-3.771H135.922z M136.338,498.01h-2.82v4.172h-4.33v2.719h4.33v4.172h2.82V504.9h4.33v-2.719
				h-4.33V498.01z"/>
		</g>
	</g>
	<g>
		<ellipse fill="#3C3C3D" cx="1292.758" cy="503.287" rx="17.888" ry="17.252"/>
		<g>
			<path fill="#AFAEAE" d="M1306.047,503.287c0,7.072-5.951,12.805-13.289,12.805s-13.287-5.732-13.287-12.805
				s5.949-12.805,13.287-12.805S1306.047,496.215,1306.047,503.287"/>
			<ellipse fill="none" stroke="#929292" stroke-miterlimit="10" cx="1292.759" cy="503.287" rx="13.288" ry="12.805"/>
			<path fill="#AFAEAE" d="M1302.521,503.287c0,5.195-4.371,9.408-9.764,9.408c-5.392,0-9.764-4.213-9.764-9.408
				c0-5.197,4.372-9.41,9.764-9.41C1298.15,493.877,1302.521,498.09,1302.521,503.287"/>
			<ellipse fill="none" stroke="#929292" stroke-miterlimit="10" cx="1292.758" cy="503.287" rx="9.764" ry="9.408"/>
			<g>
				<g>
					<defs>
						<rect id="SVGID_17_" x="1283.554" y="494.42" width="18.409" height="17.734"/>
					</defs>
					<clipPath id="SVGID_18_">
						<use xlink:href="#SVGID_17_"  overflow="visible"/>
					</clipPath>
					<path clip-path="url(#SVGID_18_)" fill="#BEBEBD" d="M1301.961,503.287c0,4.896-4.121,8.867-9.203,8.867
						s-9.201-3.971-9.201-8.867c0-4.898,4.119-8.867,9.201-8.867S1301.961,498.389,1301.961,503.287"/>
					<path clip-path="url(#SVGID_18_)" fill="#C0C0C0" d="M1301.742,503.287c0,4.781-4.022,8.656-8.984,8.656
						c-4.963,0-8.984-3.875-8.984-8.656s4.021-8.658,8.984-8.658C1297.72,494.629,1301.742,498.506,1301.742,503.287"/>
					<path clip-path="url(#SVGID_18_)" fill="#C2C3C3" d="M1301.527,503.287c0,4.666-3.927,8.449-8.77,8.449
						c-4.844,0-8.769-3.783-8.769-8.449c0-4.668,3.925-8.449,8.769-8.449C1297.601,494.838,1301.527,498.619,1301.527,503.287"/>
					<path clip-path="url(#SVGID_18_)" fill="#C4C5C4" d="M1301.311,503.287c0,4.551-3.83,8.24-8.553,8.24
						c-4.724,0-8.553-3.689-8.553-8.24c0-4.553,3.829-8.242,8.553-8.242C1297.48,495.045,1301.311,498.734,1301.311,503.287"/>
					<path clip-path="url(#SVGID_18_)" fill="#C6C8C8" d="M1301.094,503.287c0,4.434-3.732,8.031-8.336,8.031
						c-4.603,0-8.335-3.598-8.335-8.031c0-4.436,3.732-8.033,8.335-8.033C1297.361,495.254,1301.094,498.852,1301.094,503.287"/>
					<path clip-path="url(#SVGID_18_)" fill="#C9CACB" d="M1300.877,503.287c0,4.318-3.635,7.822-8.119,7.822
						c-4.483,0-8.119-3.504-8.119-7.822c0-4.322,3.636-7.824,8.119-7.824C1297.242,495.463,1300.877,498.965,1300.877,503.287"/>
					<path clip-path="url(#SVGID_18_)" fill="#CBCDCD" d="M1300.661,503.287c0,4.205-3.539,7.615-7.903,7.615
						c-4.365,0-7.902-3.41-7.902-7.615s3.537-7.617,7.902-7.617C1297.122,495.67,1300.661,499.082,1300.661,503.287"/>
					<path clip-path="url(#SVGID_18_)" fill="#CCCFD0" d="M1300.445,503.287c0,4.09-3.441,7.406-7.688,7.406
						s-7.688-3.316-7.688-7.406c0-4.092,3.441-7.408,7.688-7.408S1300.445,499.195,1300.445,503.287"/>
					<path clip-path="url(#SVGID_18_)" fill="#D0D2D2" d="M1300.229,503.287c0,3.975-3.345,7.197-7.471,7.197
						c-4.125,0-7.471-3.223-7.471-7.197c0-3.977,3.346-7.199,7.471-7.199C1296.884,496.088,1300.229,499.311,1300.229,503.287"/>
					<path clip-path="url(#SVGID_18_)" fill="#D2D4D5" d="M1300.012,503.287c0,3.859-3.248,6.99-7.254,6.99
						c-4.007,0-7.254-3.131-7.254-6.99c0-3.861,3.247-6.99,7.254-6.99C1296.764,496.297,1300.012,499.426,1300.012,503.287"/>
				</g>
			</g>
			<polygon fill="#605F5E" points="1291.556,508.617 1291.556,504.443 1287.225,504.443 1287.225,502.127 1291.556,502.127 
				1291.556,497.955 1293.961,497.955 1293.961,502.127 1298.291,502.127 1298.291,504.443 1293.961,504.443 1293.961,508.617 			
				"/>
			<path fill="#221714" d="M1293.752,498.156v3.77v0.404h0.416h3.915v1.914h-3.915h-0.416v0.4v3.773h-1.988v-3.773v-0.4h-0.416
				h-3.914v-1.914h3.914h0.416v-0.404v-3.77H1293.752z M1294.168,497.756h-2.82v4.17h-4.33v2.719h4.33v4.174h2.82v-4.174h4.33
				v-2.719h-4.33V497.756z"/>
		</g>
	</g>
</g>
<g>
	<rect x="111.801" y="384.566" width="1205.68" height="81.969"/>
	<rect x="111.801" y="386.516" fill="#353535" width="1203.8" height="77.559"/>
	<linearGradient id="SVGID_19_" gradientUnits="userSpaceOnUse" x1="713.1836" y1="390.5703" x2="713.1836" y2="386.5156">
		<stop  offset="0" style="stop-color:#8E938C"/>
		<stop  offset="0.5573" style="stop-color:#C9CACA"/>
		<stop  offset="0.8835" style="stop-color:#636666"/>
		<stop  offset="1" style="stop-color:#3A3A3A"/>
	</linearGradient>
	<rect x="110.768" y="386.516" fill="url(#SVGID_19_)" width="1204.833" height="4.055"/>
	<linearGradient id="SVGID_20_" gradientUnits="userSpaceOnUse" x1="713.1836" y1="464.0742" x2="713.1836" y2="460.0195">
		<stop  offset="0" style="stop-color:#8E938C"/>
		<stop  offset="0.5573" style="stop-color:#C9CACA"/>
		<stop  offset="0.8835" style="stop-color:#636666"/>
		<stop  offset="1" style="stop-color:#3A3A3A"/>
	</linearGradient>
	<rect x="110.768" y="460.02" fill="url(#SVGID_20_)" width="1204.833" height="4.055"/>
	<g>
		<path fill="#3C3C3D" d="M152.815,425.551c0,9.527-8.01,17.252-17.888,17.252c-9.879,0-17.888-7.725-17.888-17.252
			c0-9.531,8.009-17.254,17.888-17.254C144.806,408.297,152.815,416.02,152.815,425.551z"/>
		<g>
			<path fill="#AFAEAE" d="M148.216,425.551c0,7.07-5.949,12.805-13.288,12.805s-13.287-5.734-13.287-12.805
				c0-7.072,5.948-12.805,13.287-12.805S148.216,418.479,148.216,425.551"/>
			<ellipse fill="none" stroke="#929292" stroke-miterlimit="10" cx="134.928" cy="425.551" rx="13.288" ry="12.805"/>
			<path fill="#AFAEAE" d="M144.691,425.551c0,5.195-4.372,9.406-9.764,9.406s-9.763-4.211-9.763-9.406
				c0-5.197,4.371-9.41,9.763-9.41S144.691,420.354,144.691,425.551"/>
			<ellipse fill="none" stroke="#929292" stroke-miterlimit="10" cx="134.928" cy="425.551" rx="9.763" ry="9.406"/>
			<g>
				<g>
					<defs>
						<rect id="SVGID_21_" x="125.724" y="416.684" width="18.408" height="17.734"/>
					</defs>
					<clipPath id="SVGID_22_">
						<use xlink:href="#SVGID_21_"  overflow="visible"/>
					</clipPath>
					<path clip-path="url(#SVGID_22_)" fill="#BEBEBD" d="M144.13,425.551c0,4.896-4.12,8.867-9.202,8.867s-9.201-3.971-9.201-8.867
						c0-4.898,4.119-8.867,9.201-8.867S144.13,420.652,144.13,425.551"/>
					<path clip-path="url(#SVGID_22_)" fill="#C0C0C0" d="M143.912,425.551c0,4.781-4.022,8.656-8.984,8.656
						c-4.963,0-8.984-3.875-8.984-8.656s4.021-8.66,8.984-8.66C139.89,416.891,143.912,420.77,143.912,425.551"/>
					<path clip-path="url(#SVGID_22_)" fill="#C2C3C3" d="M143.697,425.551c0,4.666-3.927,8.449-8.77,8.449
						s-8.769-3.783-8.769-8.449c0-4.668,3.926-8.449,8.769-8.449S143.697,420.883,143.697,425.551"/>
					<path clip-path="url(#SVGID_22_)" fill="#C4C5C4" d="M143.48,425.551c0,4.551-3.829,8.24-8.553,8.24s-8.553-3.689-8.553-8.24
						c0-4.553,3.829-8.242,8.553-8.242S143.48,420.998,143.48,425.551"/>
					<path clip-path="url(#SVGID_22_)" fill="#C6C8C8" d="M143.264,425.551c0,4.434-3.732,8.031-8.336,8.031
						c-4.603,0-8.335-3.598-8.335-8.031c0-4.436,3.732-8.033,8.335-8.033C139.531,417.518,143.264,421.115,143.264,425.551"/>
					<path clip-path="url(#SVGID_22_)" fill="#C9CACB" d="M143.047,425.551c0,4.318-3.635,7.822-8.119,7.822
						s-8.119-3.504-8.119-7.822c0-4.322,3.635-7.824,8.119-7.824S143.047,421.229,143.047,425.551"/>
					<path clip-path="url(#SVGID_22_)" fill="#CBCDCD" d="M142.831,425.551c0,4.203-3.539,7.615-7.903,7.615
						c-4.365,0-7.901-3.412-7.901-7.615c0-4.207,3.536-7.617,7.901-7.617C139.292,417.934,142.831,421.344,142.831,425.551"/>
					<path clip-path="url(#SVGID_22_)" fill="#CCCFD0" d="M142.614,425.551c0,4.09-3.441,7.406-7.687,7.406
						s-7.688-3.316-7.688-7.406c0-4.092,3.442-7.408,7.688-7.408S142.614,421.459,142.614,425.551"/>
					<path clip-path="url(#SVGID_22_)" fill="#D0D2D2" d="M142.397,425.551c0,3.975-3.344,7.197-7.47,7.197
						c-4.125,0-7.471-3.223-7.471-7.197c0-3.977,3.346-7.199,7.471-7.199C139.054,418.352,142.397,421.574,142.397,425.551"/>
					<path clip-path="url(#SVGID_22_)" fill="#D2D4D5" d="M142.182,425.551c0,3.859-3.248,6.988-7.254,6.988
						c-4.007,0-7.254-3.129-7.254-6.988c0-3.861,3.247-6.99,7.254-6.99C138.934,418.561,142.182,421.689,142.182,425.551"/>
				</g>
			</g>
			<polygon fill="#605F5E" points="133.726,430.881 133.726,426.707 129.395,426.707 129.395,424.391 133.726,424.391 
				133.726,420.217 136.13,420.217 136.13,424.391 140.461,424.391 140.461,426.707 136.13,426.707 136.13,430.881 			"/>
			<path fill="#221714" d="M135.922,420.42v3.77v0.404h0.416h3.915v1.914h-3.915h-0.416v0.4v3.773h-1.987v-3.773v-0.4h-0.417h-3.915
				v-1.914h3.915h0.417v-0.404v-3.77H135.922z M136.338,420.02h-2.82v4.17h-4.33v2.719h4.33v4.172h2.82v-4.172h4.33v-2.719h-4.33
				V420.02z"/>
		</g>
	</g>
	<g>
		<ellipse fill="#3C3C3D" cx="1292.758" cy="425.295" rx="17.888" ry="17.254"/>
		<g>
			<path fill="#AFAEAE" d="M1306.047,425.297c0,7.07-5.951,12.803-13.289,12.803s-13.287-5.732-13.287-12.803
				c0-7.074,5.949-12.807,13.287-12.807S1306.047,418.223,1306.047,425.297"/>
			<path fill="none" stroke="#929292" stroke-miterlimit="10" d="M1306.047,425.297c0,7.07-5.951,12.803-13.289,12.803
				s-13.287-5.732-13.287-12.803c0-7.074,5.949-12.807,13.287-12.807S1306.047,418.223,1306.047,425.297z"/>
			<path fill="#AFAEAE" d="M1302.521,425.297c0,5.193-4.371,9.406-9.764,9.406c-5.392,0-9.764-4.213-9.764-9.406
				c0-5.197,4.372-9.41,9.764-9.41C1298.15,415.887,1302.521,420.1,1302.521,425.297"/>
			<ellipse fill="none" stroke="#929292" stroke-miterlimit="10" cx="1292.758" cy="425.297" rx="9.764" ry="9.406"/>
			<g>
				<g>
					<defs>
						<rect id="SVGID_23_" x="1283.554" y="416.43" width="18.409" height="17.732"/>
					</defs>
					<clipPath id="SVGID_24_">
						<use xlink:href="#SVGID_23_"  overflow="visible"/>
					</clipPath>
					<path clip-path="url(#SVGID_24_)" fill="#BEBEBD" d="M1301.961,425.297c0,4.895-4.121,8.865-9.203,8.865
						s-9.201-3.971-9.201-8.865c0-4.898,4.119-8.867,9.201-8.867S1301.961,420.398,1301.961,425.297"/>
					<path clip-path="url(#SVGID_24_)" fill="#C0C0C0" d="M1301.742,425.297c0,4.779-4.022,8.656-8.984,8.656
						c-4.963,0-8.984-3.877-8.984-8.656c0-4.783,4.021-8.66,8.984-8.66C1297.72,416.637,1301.742,420.514,1301.742,425.297"/>
					<path clip-path="url(#SVGID_24_)" fill="#C2C3C3" d="M1301.527,425.297c0,4.664-3.927,8.447-8.77,8.447
						c-4.844,0-8.769-3.783-8.769-8.447c0-4.67,3.925-8.451,8.769-8.451C1297.601,416.846,1301.527,420.627,1301.527,425.297"/>
					<path clip-path="url(#SVGID_24_)" fill="#C4C5C4" d="M1301.311,425.297c0,4.549-3.83,8.238-8.553,8.238
						c-4.724,0-8.553-3.689-8.553-8.238c0-4.555,3.829-8.242,8.553-8.242C1297.48,417.055,1301.311,420.742,1301.311,425.297"/>
					<path clip-path="url(#SVGID_24_)" fill="#C6C8C8" d="M1301.094,425.297c0,4.434-3.732,8.029-8.336,8.029
						c-4.603,0-8.335-3.596-8.335-8.029c0-4.436,3.732-8.035,8.335-8.035C1297.361,417.262,1301.094,420.861,1301.094,425.297"/>
					<path clip-path="url(#SVGID_24_)" fill="#C9CACB" d="M1300.877,425.297c0,4.318-3.635,7.822-8.119,7.822
						c-4.483,0-8.119-3.504-8.119-7.822c0-4.322,3.636-7.826,8.119-7.826C1297.242,417.471,1300.877,420.975,1300.877,425.297"/>
					<path clip-path="url(#SVGID_24_)" fill="#CBCDCD" d="M1300.661,425.297c0,4.203-3.539,7.613-7.903,7.613
						c-4.365,0-7.902-3.41-7.902-7.613c0-4.207,3.537-7.617,7.902-7.617C1297.122,417.68,1300.661,421.09,1300.661,425.297"/>
					<path clip-path="url(#SVGID_24_)" fill="#CCCFD0" d="M1300.445,425.297c0,4.09-3.441,7.406-7.688,7.406
						s-7.688-3.316-7.688-7.406c0-4.092,3.441-7.408,7.688-7.408S1300.445,421.205,1300.445,425.297"/>
					<path clip-path="url(#SVGID_24_)" fill="#D0D2D2" d="M1300.229,425.297c0,3.975-3.345,7.197-7.471,7.197
						c-4.125,0-7.471-3.223-7.471-7.197c0-3.979,3.346-7.199,7.471-7.199C1296.884,418.098,1300.229,421.318,1300.229,425.297"/>
					<path clip-path="url(#SVGID_24_)" fill="#D2D4D5" d="M1300.012,425.297c0,3.857-3.248,6.988-7.254,6.988
						c-4.007,0-7.254-3.131-7.254-6.988c0-3.861,3.247-6.992,7.254-6.992C1296.764,418.305,1300.012,421.436,1300.012,425.297"/>
				</g>
			</g>
			<polygon fill="#605F5E" points="1291.556,430.627 1291.556,426.453 1287.225,426.453 1287.225,424.137 1291.556,424.137 
				1291.556,419.963 1293.961,419.963 1293.961,424.137 1298.291,424.137 1298.291,426.453 1293.961,426.453 1293.961,430.627 			
				"/>
			<path fill="#221714" d="M1293.752,420.164v3.771v0.402h0.416h3.915v1.914h-3.915h-0.416v0.402v3.771h-1.988v-3.771v-0.402h-0.416
				h-3.914v-1.914h3.914h0.416v-0.402v-3.771H1293.752z M1294.168,419.764h-2.82v4.172h-4.33v2.719h4.33v4.172h2.82v-4.172h4.33
				v-2.719h-4.33V419.764z"/>
		</g>
	</g>
</g>
<g>
	<rect x="111.801" y="306.574" width="1205.68" height="81.969"/>
	<rect x="111.801" y="308.524" fill="#353535" width="1203.8" height="77.56"/>
	<linearGradient id="SVGID_25_" gradientUnits="userSpaceOnUse" x1="713.1836" y1="312.5796" x2="713.1836" y2="308.5239">
		<stop  offset="0" style="stop-color:#8E938C"/>
		<stop  offset="0.5573" style="stop-color:#C9CACA"/>
		<stop  offset="0.8835" style="stop-color:#636666"/>
		<stop  offset="1" style="stop-color:#3A3A3A"/>
	</linearGradient>
	<rect x="110.768" y="308.524" fill="url(#SVGID_25_)" width="1204.833" height="4.056"/>
	<linearGradient id="SVGID_26_" gradientUnits="userSpaceOnUse" x1="713.1836" y1="386.084" x2="713.1836" y2="382.0273">
		<stop  offset="0" style="stop-color:#8E938C"/>
		<stop  offset="0.5573" style="stop-color:#C9CACA"/>
		<stop  offset="0.8835" style="stop-color:#636666"/>
		<stop  offset="1" style="stop-color:#3A3A3A"/>
	</linearGradient>
	<rect x="110.768" y="382.027" fill="url(#SVGID_26_)" width="1204.833" height="4.057"/>
	<g>
		<ellipse fill="#3C3C3D" cx="134.928" cy="347.558" rx="17.888" ry="17.254"/>
		<g>
			<path fill="#AFAEAE" d="M148.216,347.559c0,7.071-5.949,12.804-13.288,12.804s-13.287-5.732-13.287-12.804
				c0-7.073,5.948-12.805,13.287-12.805S148.216,340.486,148.216,347.559"/>
			<ellipse fill="none" stroke="#929292" stroke-miterlimit="10" cx="134.928" cy="347.559" rx="13.288" ry="12.804"/>
			<path fill="#AFAEAE" d="M144.691,347.559c0,5.195-4.372,9.407-9.764,9.407s-9.763-4.212-9.763-9.407
				c0-5.196,4.371-9.409,9.763-9.409S144.691,342.363,144.691,347.559"/>
			<ellipse fill="none" stroke="#929292" stroke-miterlimit="10" cx="134.928" cy="347.559" rx="9.763" ry="9.407"/>
			<g>
				<g>
					<defs>
						<rect id="SVGID_27_" x="125.724" y="338.693" width="18.408" height="17.732"/>
					</defs>
					<clipPath id="SVGID_28_">
						<use xlink:href="#SVGID_27_"  overflow="visible"/>
					</clipPath>
					<path clip-path="url(#SVGID_28_)" fill="#BEBEBD" d="M144.13,347.559c0,4.896-4.12,8.866-9.202,8.866s-9.201-3.97-9.201-8.866
						c0-4.897,4.119-8.866,9.201-8.866S144.13,342.662,144.13,347.559"/>
					<path clip-path="url(#SVGID_28_)" fill="#C0C0C0" d="M143.912,347.559c0,4.78-4.022,8.657-8.984,8.657
						c-4.963,0-8.984-3.877-8.984-8.657c0-4.782,4.021-8.659,8.984-8.659C139.89,338.9,143.912,342.777,143.912,347.559"/>
					<path clip-path="url(#SVGID_28_)" fill="#C2C3C3" d="M143.697,347.559c0,4.666-3.927,8.448-8.77,8.448
						s-8.769-3.782-8.769-8.448c0-4.668,3.926-8.45,8.769-8.45S143.697,342.891,143.697,347.559"/>
					<path clip-path="url(#SVGID_28_)" fill="#C4C5C4" d="M143.48,347.559c0,4.551-3.829,8.24-8.553,8.24s-8.553-3.689-8.553-8.24
						c0-4.553,3.829-8.241,8.553-8.241S143.48,343.006,143.48,347.559"/>
					<path clip-path="url(#SVGID_28_)" fill="#C6C8C8" d="M143.264,347.559c0,4.435-3.732,8.031-8.336,8.031
						c-4.603,0-8.335-3.597-8.335-8.031c0-4.436,3.732-8.033,8.335-8.033C139.531,339.526,143.264,343.124,143.264,347.559"/>
					<path clip-path="url(#SVGID_28_)" fill="#C9CACB" d="M143.047,347.559c0,4.319-3.635,7.823-8.119,7.823
						s-8.119-3.504-8.119-7.823c0-4.321,3.635-7.824,8.119-7.824S143.047,343.238,143.047,347.559"/>
					<path clip-path="url(#SVGID_28_)" fill="#CBCDCD" d="M142.831,347.559c0,4.204-3.539,7.615-7.903,7.615
						c-4.365,0-7.901-3.411-7.901-7.615c0-4.206,3.536-7.616,7.901-7.616C139.292,339.943,142.831,343.353,142.831,347.559"/>
					<path clip-path="url(#SVGID_28_)" fill="#CCCFD0" d="M142.614,347.559c0,4.09-3.441,7.407-7.687,7.407
						s-7.688-3.317-7.688-7.407c0-4.092,3.442-7.408,7.688-7.408S142.614,343.467,142.614,347.559"/>
					<path clip-path="url(#SVGID_28_)" fill="#D0D2D2" d="M142.397,347.559c0,3.976-3.344,7.197-7.47,7.197
						c-4.125,0-7.471-3.222-7.471-7.197c0-3.977,3.346-7.199,7.471-7.199C139.054,340.36,142.397,343.583,142.397,347.559"/>
					<path clip-path="url(#SVGID_28_)" fill="#D2D4D5" d="M142.182,347.559c0,3.859-3.248,6.989-7.254,6.989
						c-4.007,0-7.254-3.13-7.254-6.989c0-3.86,3.247-6.991,7.254-6.991C138.934,340.568,142.182,343.699,142.182,347.559"/>
				</g>
			</g>
			<polygon fill="#605F5E" points="133.726,352.89 133.726,348.716 129.395,348.716 129.395,346.4 133.726,346.4 133.726,342.226 
				136.13,342.226 136.13,346.4 140.461,346.4 140.461,348.716 136.13,348.716 136.13,352.89 			"/>
			<path fill="#221714" d="M135.922,342.427v3.771v0.402h0.416h3.915v1.914h-3.915h-0.416v0.401v3.772h-1.987v-3.772v-0.401h-0.417
				h-3.915v-1.914h3.915h0.417v-0.402v-3.771H135.922z M136.338,342.028h-2.82v4.171h-4.33v2.718h4.33v4.173h2.82v-4.173h4.33
				v-2.718h-4.33V342.028z"/>
		</g>
	</g>
	<g>
		<ellipse fill="#3C3C3D" cx="1292.758" cy="347.304" rx="17.888" ry="17.253"/>
		<g>
			<path fill="#AFAEAE" d="M1306.047,347.304c0,7.071-5.951,12.804-13.289,12.804s-13.287-5.732-13.287-12.804
				c0-7.072,5.949-12.805,13.287-12.805S1306.047,340.232,1306.047,347.304"/>
			<ellipse fill="none" stroke="#929292" stroke-miterlimit="10" cx="1292.759" cy="347.304" rx="13.288" ry="12.804"/>
			<path fill="#AFAEAE" d="M1302.521,347.304c0,5.195-4.371,9.407-9.764,9.407c-5.392,0-9.764-4.212-9.764-9.407
				c0-5.196,4.372-9.409,9.764-9.409C1298.15,337.895,1302.521,342.108,1302.521,347.304"/>
			<ellipse fill="none" stroke="#929292" stroke-miterlimit="10" cx="1292.758" cy="347.304" rx="9.764" ry="9.407"/>
			<g>
				<g>
					<defs>
						<rect id="SVGID_29_" x="1283.554" y="338.438" width="18.409" height="17.733"/>
					</defs>
					<clipPath id="SVGID_30_">
						<use xlink:href="#SVGID_29_"  overflow="visible"/>
					</clipPath>
					<path clip-path="url(#SVGID_30_)" fill="#BEBEBD" d="M1301.961,347.304c0,4.896-4.121,8.867-9.203,8.867
						s-9.201-3.971-9.201-8.867c0-4.897,4.119-8.866,9.201-8.866S1301.961,342.407,1301.961,347.304"/>
					<path clip-path="url(#SVGID_30_)" fill="#C0C0C0" d="M1301.742,347.304c0,4.781-4.022,8.657-8.984,8.657
						c-4.963,0-8.984-3.876-8.984-8.657c0-4.782,4.021-8.659,8.984-8.659C1297.72,338.645,1301.742,342.522,1301.742,347.304"/>
					<path clip-path="url(#SVGID_30_)" fill="#C2C3C3" d="M1301.527,347.304c0,4.666-3.927,8.448-8.77,8.448
						c-4.844,0-8.769-3.782-8.769-8.448c0-4.668,3.925-8.449,8.769-8.449C1297.601,338.855,1301.527,342.636,1301.527,347.304"/>
					<path clip-path="url(#SVGID_30_)" fill="#C4C5C4" d="M1301.311,347.304c0,4.551-3.83,8.24-8.553,8.24
						c-4.724,0-8.553-3.689-8.553-8.24c0-4.553,3.829-8.241,8.553-8.241C1297.48,339.063,1301.311,342.751,1301.311,347.304"/>
					<path clip-path="url(#SVGID_30_)" fill="#C6C8C8" d="M1301.094,347.304c0,4.435-3.732,8.031-8.336,8.031
						c-4.603,0-8.335-3.597-8.335-8.031c0-4.436,3.732-8.033,8.335-8.033C1297.361,339.271,1301.094,342.869,1301.094,347.304"/>
					<path clip-path="url(#SVGID_30_)" fill="#C9CACB" d="M1300.877,347.304c0,4.319-3.635,7.823-8.119,7.823
						c-4.483,0-8.119-3.504-8.119-7.823c0-4.321,3.636-7.824,8.119-7.824C1297.242,339.48,1300.877,342.983,1300.877,347.304"/>
					<path clip-path="url(#SVGID_30_)" fill="#CBCDCD" d="M1300.661,347.304c0,4.204-3.539,7.615-7.903,7.615
						c-4.365,0-7.902-3.411-7.902-7.615c0-4.206,3.537-7.616,7.902-7.616C1297.122,339.688,1300.661,343.098,1300.661,347.304"/>
					<path clip-path="url(#SVGID_30_)" fill="#CCCFD0" d="M1300.445,347.304c0,4.091-3.441,7.407-7.688,7.407
						s-7.688-3.316-7.688-7.407c0-4.092,3.441-7.408,7.688-7.408S1300.445,343.212,1300.445,347.304"/>
					<path clip-path="url(#SVGID_30_)" fill="#D0D2D2" d="M1300.229,347.304c0,3.976-3.345,7.197-7.471,7.197
						c-4.125,0-7.471-3.222-7.471-7.197c0-3.977,3.346-7.199,7.471-7.199C1296.884,340.105,1300.229,343.328,1300.229,347.304"/>
					<path clip-path="url(#SVGID_30_)" fill="#D2D4D5" d="M1300.012,347.304c0,3.859-3.248,6.989-7.254,6.989
						c-4.007,0-7.254-3.13-7.254-6.989c0-3.86,3.247-6.99,7.254-6.99C1296.764,340.314,1300.012,343.444,1300.012,347.304"/>
				</g>
			</g>
			<polygon fill="#605F5E" points="1291.556,352.635 1291.556,348.461 1287.225,348.461 1287.225,346.145 1291.556,346.145 
				1291.556,341.971 1293.961,341.971 1293.961,346.145 1298.291,346.145 1298.291,348.461 1293.961,348.461 1293.961,352.635 			
				"/>
			<path fill="#221714" d="M1293.752,342.173v3.771v0.403h0.416h3.915v1.913h-3.915h-0.416v0.401v3.772h-1.988v-3.772v-0.401h-0.416
				h-3.914v-1.913h3.914h0.416v-0.403v-3.771H1293.752z M1294.168,341.773h-2.82v4.171h-4.33v2.718h4.33v4.173h2.82v-4.173h4.33
				v-2.718h-4.33V341.773z"/>
		</g>
	</g>
</g>
<g>
	<rect x="111.801" y="228.583" width="1205.68" height="81.969"/>
	<rect x="111.801" y="230.533" fill="#353535" width="1203.8" height="77.56"/>
	<linearGradient id="SVGID_31_" gradientUnits="userSpaceOnUse" x1="713.1836" y1="234.5874" x2="713.1836" y2="230.5327">
		<stop  offset="0" style="stop-color:#8E938C"/>
		<stop  offset="0.5573" style="stop-color:#C9CACA"/>
		<stop  offset="0.8835" style="stop-color:#636666"/>
		<stop  offset="1" style="stop-color:#3A3A3A"/>
	</linearGradient>
	<rect x="110.768" y="230.533" fill="url(#SVGID_31_)" width="1204.833" height="4.055"/>
	<linearGradient id="SVGID_32_" gradientUnits="userSpaceOnUse" x1="713.1836" y1="308.0923" x2="713.1836" y2="304.0366">
		<stop  offset="0" style="stop-color:#8E938C"/>
		<stop  offset="0.5573" style="stop-color:#C9CACA"/>
		<stop  offset="0.8835" style="stop-color:#636666"/>
		<stop  offset="1" style="stop-color:#3A3A3A"/>
	</linearGradient>
	<rect x="110.768" y="304.037" fill="url(#SVGID_32_)" width="1204.833" height="4.056"/>
	<g>
		<ellipse fill="#3C3C3D" cx="134.928" cy="269.567" rx="17.888" ry="17.254"/>
		<g>
			<path fill="#AFAEAE" d="M148.216,269.568c0,7.071-5.949,12.804-13.288,12.804s-13.287-5.732-13.287-12.804
				c0-7.073,5.948-12.805,13.287-12.805S148.216,262.495,148.216,269.568"/>
			<ellipse fill="none" stroke="#929292" stroke-miterlimit="10" cx="134.928" cy="269.568" rx="13.288" ry="12.804"/>
			<path fill="#AFAEAE" d="M144.691,269.568c0,5.195-4.372,9.407-9.764,9.407s-9.763-4.212-9.763-9.407
				c0-5.196,4.371-9.41,9.763-9.41S144.691,264.372,144.691,269.568"/>
			<ellipse fill="none" stroke="#929292" stroke-miterlimit="10" cx="134.928" cy="269.568" rx="9.763" ry="9.407"/>
			<g>
				<g>
					<defs>
						<rect id="SVGID_33_" x="125.724" y="260.701" width="18.408" height="17.733"/>
					</defs>
					<clipPath id="SVGID_34_">
						<use xlink:href="#SVGID_33_"  overflow="visible"/>
					</clipPath>
					<path clip-path="url(#SVGID_34_)" fill="#BEBEBD" d="M144.13,269.568c0,4.896-4.12,8.866-9.202,8.866s-9.201-3.97-9.201-8.866
						c0-4.898,4.119-8.867,9.201-8.867S144.13,264.669,144.13,269.568"/>
					<path clip-path="url(#SVGID_34_)" fill="#C0C0C0" d="M143.912,269.568c0,4.78-4.022,8.657-8.984,8.657
						c-4.963,0-8.984-3.877-8.984-8.657c0-4.782,4.021-8.659,8.984-8.659C139.89,260.909,143.912,264.786,143.912,269.568"/>
					<path clip-path="url(#SVGID_34_)" fill="#C2C3C3" d="M143.697,269.568c0,4.666-3.927,8.448-8.77,8.448
						s-8.769-3.782-8.769-8.448c0-4.668,3.926-8.45,8.769-8.45S143.697,264.9,143.697,269.568"/>
					<path clip-path="url(#SVGID_34_)" fill="#C4C5C4" d="M143.48,269.568c0,4.551-3.829,8.24-8.553,8.24s-8.553-3.689-8.553-8.24
						c0-4.553,3.829-8.242,8.553-8.242S143.48,265.015,143.48,269.568"/>
					<path clip-path="url(#SVGID_34_)" fill="#C6C8C8" d="M143.264,269.568c0,4.435-3.732,8.031-8.336,8.031
						c-4.603,0-8.335-3.597-8.335-8.031c0-4.436,3.732-8.033,8.335-8.033C139.531,261.535,143.264,265.132,143.264,269.568"/>
					<path clip-path="url(#SVGID_34_)" fill="#C9CACB" d="M143.047,269.568c0,4.319-3.635,7.823-8.119,7.823
						s-8.119-3.504-8.119-7.823c0-4.321,3.635-7.824,8.119-7.824S143.047,265.247,143.047,269.568"/>
					<path clip-path="url(#SVGID_34_)" fill="#CBCDCD" d="M142.831,269.568c0,4.204-3.539,7.615-7.903,7.615
						c-4.365,0-7.901-3.411-7.901-7.615c0-4.206,3.536-7.616,7.901-7.616C139.292,261.952,142.831,265.362,142.831,269.568"/>
					<path clip-path="url(#SVGID_34_)" fill="#CCCFD0" d="M142.614,269.568c0,4.09-3.441,7.406-7.687,7.406
						s-7.688-3.316-7.688-7.406c0-4.092,3.442-7.408,7.688-7.408S142.614,265.476,142.614,269.568"/>
					<path clip-path="url(#SVGID_34_)" fill="#D0D2D2" d="M142.397,269.568c0,3.975-3.344,7.197-7.47,7.197
						c-4.125,0-7.471-3.223-7.471-7.197c0-3.977,3.346-7.199,7.471-7.199C139.054,262.369,142.397,265.591,142.397,269.568"/>
					<path clip-path="url(#SVGID_34_)" fill="#D2D4D5" d="M142.182,269.568c0,3.859-3.248,6.989-7.254,6.989
						c-4.007,0-7.254-3.13-7.254-6.989c0-3.861,3.247-6.991,7.254-6.991C138.934,262.577,142.182,265.707,142.182,269.568"/>
				</g>
			</g>
			<polygon fill="#605F5E" points="133.726,274.898 133.726,270.725 129.395,270.725 129.395,268.409 133.726,268.409 
				133.726,264.235 136.13,264.235 136.13,268.409 140.461,268.409 140.461,270.725 136.13,270.725 136.13,274.898 			"/>
			<path fill="#221714" d="M135.922,264.436v3.771v0.403h0.416h3.915v1.914h-3.915h-0.416v0.401v3.772h-1.987v-3.772v-0.401h-0.417
				h-3.915v-1.914h3.915h0.417v-0.403v-3.771H135.922z M136.338,264.037h-2.82v4.17h-4.33v2.719h4.33v4.173h2.82v-4.173h4.33v-2.719
				h-4.33V264.037z"/>
		</g>
	</g>
	<g>
		<ellipse fill="#3C3C3D" cx="1292.758" cy="269.312" rx="17.888" ry="17.254"/>
		<g>
			<path fill="#AFAEAE" d="M1306.047,269.313c0,7.071-5.951,12.804-13.289,12.804s-13.287-5.732-13.287-12.804
				c0-7.073,5.949-12.805,13.287-12.805S1306.047,262.24,1306.047,269.313"/>
			<ellipse fill="none" stroke="#929292" stroke-miterlimit="10" cx="1292.759" cy="269.313" rx="13.288" ry="12.804"/>
			<path fill="#AFAEAE" d="M1302.521,269.313c0,5.195-4.371,9.407-9.764,9.407c-5.392,0-9.764-4.212-9.764-9.407
				c0-5.196,4.372-9.409,9.764-9.409C1298.15,259.904,1302.521,264.117,1302.521,269.313"/>
			<ellipse fill="none" stroke="#929292" stroke-miterlimit="10" cx="1292.758" cy="269.313" rx="9.764" ry="9.407"/>
			<g>
				<g>
					<defs>
						<rect id="SVGID_35_" x="1283.554" y="260.447" width="18.409" height="17.732"/>
					</defs>
					<clipPath id="SVGID_36_">
						<use xlink:href="#SVGID_35_"  overflow="visible"/>
					</clipPath>
					<path clip-path="url(#SVGID_36_)" fill="#BEBEBD" d="M1301.961,269.313c0,4.896-4.121,8.866-9.203,8.866
						s-9.201-3.97-9.201-8.866c0-4.897,4.119-8.866,9.201-8.866S1301.961,264.416,1301.961,269.313"/>
					<path clip-path="url(#SVGID_36_)" fill="#C0C0C0" d="M1301.742,269.313c0,4.78-4.022,8.657-8.984,8.657
						c-4.963,0-8.984-3.877-8.984-8.657c0-4.782,4.021-8.659,8.984-8.659C1297.72,260.654,1301.742,264.531,1301.742,269.313"/>
					<path clip-path="url(#SVGID_36_)" fill="#C2C3C3" d="M1301.527,269.313c0,4.666-3.927,8.448-8.77,8.448
						c-4.844,0-8.769-3.782-8.769-8.448c0-4.668,3.925-8.45,8.769-8.45C1297.601,260.863,1301.527,264.645,1301.527,269.313"/>
					<path clip-path="url(#SVGID_36_)" fill="#C4C5C4" d="M1301.311,269.313c0,4.551-3.83,8.24-8.553,8.24
						c-4.724,0-8.553-3.689-8.553-8.24c0-4.553,3.829-8.241,8.553-8.241C1297.48,261.072,1301.311,264.76,1301.311,269.313"/>
					<path clip-path="url(#SVGID_36_)" fill="#C6C8C8" d="M1301.094,269.313c0,4.435-3.732,8.031-8.336,8.031
						c-4.603,0-8.335-3.597-8.335-8.031c0-4.436,3.732-8.033,8.335-8.033C1297.361,261.28,1301.094,264.877,1301.094,269.313"/>
					<path clip-path="url(#SVGID_36_)" fill="#C9CACB" d="M1300.877,269.313c0,4.319-3.635,7.823-8.119,7.823
						c-4.483,0-8.119-3.504-8.119-7.823c0-4.321,3.636-7.824,8.119-7.824C1297.242,261.489,1300.877,264.992,1300.877,269.313"/>
					<path clip-path="url(#SVGID_36_)" fill="#CBCDCD" d="M1300.661,269.313c0,4.204-3.539,7.615-7.903,7.615
						c-4.365,0-7.902-3.411-7.902-7.615c0-4.206,3.537-7.616,7.902-7.616C1297.122,261.697,1300.661,265.107,1300.661,269.313"/>
					<path clip-path="url(#SVGID_36_)" fill="#CCCFD0" d="M1300.445,269.313c0,4.09-3.441,7.407-7.688,7.407
						s-7.688-3.317-7.688-7.407c0-4.092,3.441-7.408,7.688-7.408S1300.445,265.221,1300.445,269.313"/>
					<path clip-path="url(#SVGID_36_)" fill="#D0D2D2" d="M1300.229,269.313c0,3.976-3.345,7.197-7.471,7.197
						c-4.125,0-7.471-3.222-7.471-7.197c0-3.977,3.346-7.199,7.471-7.199C1296.884,262.114,1300.229,265.336,1300.229,269.313"/>
					<path clip-path="url(#SVGID_36_)" fill="#D2D4D5" d="M1300.012,269.313c0,3.859-3.248,6.989-7.254,6.989
						c-4.007,0-7.254-3.13-7.254-6.989c0-3.86,3.247-6.991,7.254-6.991C1296.764,262.322,1300.012,265.453,1300.012,269.313"/>
				</g>
			</g>
			<polygon fill="#605F5E" points="1291.556,274.644 1291.556,270.47 1287.225,270.47 1287.225,268.154 1291.556,268.154 
				1291.556,263.98 1293.961,263.98 1293.961,268.154 1298.291,268.154 1298.291,270.47 1293.961,270.47 1293.961,274.644 			"/>
			<path fill="#221714" d="M1293.752,264.181v3.771v0.402h0.416h3.915v1.914h-3.915h-0.416v0.401v3.772h-1.988v-3.772v-0.401h-0.416
				h-3.914v-1.914h3.914h0.416v-0.402v-3.771H1293.752z M1294.168,263.782h-2.82v4.171h-4.33v2.718h4.33v4.173h2.82v-4.173h4.33
				v-2.718h-4.33V263.782z"/>
		</g>
	</g>
</g>
<rect x="111.801" y="150.591" width="1205.68" height="81.969"/>
<rect x="111.801" y="152.541" fill="#353535" width="1203.8" height="77.56"/>
<linearGradient id="SVGID_37_" gradientUnits="userSpaceOnUse" x1="713.1836" y1="156.5962" x2="713.1836" y2="152.541">
	<stop  offset="0" style="stop-color:#8E938C"/>
	<stop  offset="0.5573" style="stop-color:#C9CACA"/>
	<stop  offset="0.8835" style="stop-color:#636666"/>
	<stop  offset="1" style="stop-color:#3A3A3A"/>
</linearGradient>
<rect x="110.768" y="152.541" fill="url(#SVGID_37_)" width="1204.833" height="4.055"/>
<linearGradient id="SVGID_38_" gradientUnits="userSpaceOnUse" x1="713.1836" y1="230.1011" x2="713.1836" y2="226.0454">
	<stop  offset="0" style="stop-color:#8E938C"/>
	<stop  offset="0.5573" style="stop-color:#C9CACA"/>
	<stop  offset="0.8835" style="stop-color:#636666"/>
	<stop  offset="1" style="stop-color:#3A3A3A"/>
</linearGradient>
<rect x="110.768" y="226.045" fill="url(#SVGID_38_)" width="1204.833" height="4.056"/>
<g>
	<ellipse fill="#3C3C3D" cx="134.928" cy="191.576" rx="17.888" ry="17.253"/>
	<g>
		<path fill="#AFAEAE" d="M148.216,191.577c0,7.071-5.949,12.804-13.288,12.804s-13.287-5.732-13.287-12.804
			c0-7.073,5.948-12.805,13.287-12.805S148.216,184.503,148.216,191.577"/>
		<ellipse fill="none" stroke="#929292" stroke-miterlimit="10" cx="134.928" cy="191.577" rx="13.288" ry="12.804"/>
		<path fill="#AFAEAE" d="M144.691,191.577c0,5.195-4.372,9.407-9.764,9.407s-9.763-4.212-9.763-9.407
			c0-5.197,4.371-9.41,9.763-9.41S144.691,186.38,144.691,191.577"/>
		<ellipse fill="none" stroke="#929292" stroke-miterlimit="10" cx="134.928" cy="191.577" rx="9.763" ry="9.407"/>
		<g>
			<g>
				<defs>
					<rect id="SVGID_39_" x="125.724" y="182.709" width="18.408" height="17.733"/>
				</defs>
				<clipPath id="SVGID_40_">
					<use xlink:href="#SVGID_39_"  overflow="visible"/>
				</clipPath>
				<path clip-path="url(#SVGID_40_)" fill="#BEBEBD" d="M144.13,191.577c0,4.896-4.12,8.866-9.202,8.866s-9.201-3.97-9.201-8.866
					c0-4.898,4.119-8.867,9.201-8.867S144.13,186.679,144.13,191.577"/>
				<path clip-path="url(#SVGID_40_)" fill="#C0C0C0" d="M143.912,191.577c0,4.78-4.022,8.657-8.984,8.657
					c-4.963,0-8.984-3.876-8.984-8.657c0-4.782,4.021-8.659,8.984-8.659C139.89,182.917,143.912,186.794,143.912,191.577"/>
				<path clip-path="url(#SVGID_40_)" fill="#C2C3C3" d="M143.697,191.577c0,4.666-3.927,8.448-8.77,8.448s-8.769-3.783-8.769-8.448
					c0-4.668,3.926-8.45,8.769-8.45S143.697,186.909,143.697,191.577"/>
				<path clip-path="url(#SVGID_40_)" fill="#C4C5C4" d="M143.48,191.577c0,4.551-3.829,8.24-8.553,8.24s-8.553-3.689-8.553-8.24
					c0-4.553,3.829-8.242,8.553-8.242S143.48,187.023,143.48,191.577"/>
				<path clip-path="url(#SVGID_40_)" fill="#C6C8C8" d="M143.264,191.577c0,4.434-3.732,8.031-8.336,8.031
					c-4.603,0-8.335-3.597-8.335-8.031c0-4.436,3.732-8.034,8.335-8.034C139.531,183.543,143.264,187.141,143.264,191.577"/>
				<path clip-path="url(#SVGID_40_)" fill="#C9CACB" d="M143.047,191.577c0,4.319-3.635,7.823-8.119,7.823
					s-8.119-3.504-8.119-7.823c0-4.322,3.635-7.825,8.119-7.825S143.047,187.255,143.047,191.577"/>
				<path clip-path="url(#SVGID_40_)" fill="#CBCDCD" d="M142.831,191.577c0,4.204-3.539,7.615-7.903,7.615
					c-4.365,0-7.901-3.411-7.901-7.615c0-4.206,3.536-7.616,7.901-7.616C139.292,183.96,142.831,187.371,142.831,191.577"/>
				<path clip-path="url(#SVGID_40_)" fill="#CCCFD0" d="M142.614,191.577c0,4.09-3.441,7.406-7.687,7.406s-7.688-3.316-7.688-7.406
					c0-4.092,3.442-7.408,7.688-7.408S142.614,187.485,142.614,191.577"/>
				<path clip-path="url(#SVGID_40_)" fill="#D0D2D2" d="M142.397,191.577c0,3.975-3.344,7.197-7.47,7.197
					c-4.125,0-7.471-3.222-7.471-7.197c0-3.977,3.346-7.199,7.471-7.199C139.054,184.377,142.397,187.6,142.397,191.577"/>
				<path clip-path="url(#SVGID_40_)" fill="#D2D4D5" d="M142.182,191.577c0,3.859-3.248,6.989-7.254,6.989
					c-4.007,0-7.254-3.13-7.254-6.989c0-3.861,3.247-6.991,7.254-6.991C138.934,184.585,142.182,187.716,142.182,191.577"/>
			</g>
		</g>
		<polygon fill="#605F5E" points="133.726,196.907 133.726,192.733 129.395,192.733 129.395,190.417 133.726,190.417 
			133.726,186.244 136.13,186.244 136.13,190.417 140.461,190.417 140.461,192.733 136.13,192.733 136.13,196.907 		"/>
		<path fill="#221714" d="M135.922,186.445v3.771v0.403h0.416h3.915v1.914h-3.915h-0.416v0.401v3.772h-1.987v-3.772v-0.401h-0.417
			h-3.915v-1.914h3.915h0.417v-0.403v-3.771H135.922z M136.338,186.045h-2.82v4.17h-4.33v2.718h4.33v4.173h2.82v-4.173h4.33v-2.718
			h-4.33V186.045z"/>
	</g>
</g>
<g>
	<ellipse fill="#3C3C3D" cx="24.94" cy="22.705" rx="12.321" ry="11.884"/>
	<g>
		<path fill="#AFAEAE" d="M34.094,22.705c0,4.871-4.098,8.819-9.153,8.819c-5.055,0-9.152-3.949-9.152-8.819
			c0-4.872,4.098-8.82,9.152-8.82C29.996,13.885,34.094,17.833,34.094,22.705"/>
		<ellipse fill="none" stroke="#929292" stroke-miterlimit="10" cx="24.941" cy="22.705" rx="9.153" ry="8.819"/>
		<path fill="#AFAEAE" d="M31.666,22.705c0,3.578-3.012,6.48-6.726,6.48c-3.713,0-6.725-2.902-6.725-6.48
			c0-3.58,3.012-6.482,6.725-6.482C28.654,16.223,31.666,19.125,31.666,22.705"/>
		<ellipse fill="none" stroke="#929292" stroke-miterlimit="10" cx="24.941" cy="22.705" rx="6.725" ry="6.48"/>
		<g>
			<g>
				<defs>
					<rect id="SVGID_41_" x="18.601" y="16.597" width="12.681" height="12.215"/>
				</defs>
				<clipPath id="SVGID_42_">
					<use xlink:href="#SVGID_41_"  overflow="visible"/>
				</clipPath>
				<path clip-path="url(#SVGID_42_)" fill="#BEBEBD" d="M31.279,22.705c0,3.373-2.838,6.107-6.339,6.107
					c-3.5,0-6.338-2.735-6.338-6.107c0-3.374,2.838-6.108,6.338-6.108C28.441,16.597,31.279,19.331,31.279,22.705"/>
				<path clip-path="url(#SVGID_42_)" fill="#C0C0C0" d="M31.13,22.705c0,3.292-2.771,5.963-6.189,5.963s-6.188-2.67-6.188-5.963
					c0-3.294,2.771-5.964,6.188-5.964S31.13,19.411,31.13,22.705"/>
				<path clip-path="url(#SVGID_42_)" fill="#C2C3C3" d="M30.98,22.705c0,3.213-2.704,5.819-6.04,5.819s-6.039-2.606-6.039-5.819
					c0-3.215,2.703-5.821,6.039-5.821S30.98,19.49,30.98,22.705"/>
				<path clip-path="url(#SVGID_42_)" fill="#C4C5C4" d="M30.832,22.705c0,3.134-2.639,5.676-5.892,5.676s-5.891-2.542-5.891-5.676
					c0-3.136,2.638-5.677,5.891-5.677S30.832,19.569,30.832,22.705"/>
				<path clip-path="url(#SVGID_42_)" fill="#C6C8C8" d="M30.683,22.705c0,3.054-2.57,5.532-5.742,5.532
					c-3.17,0-5.741-2.478-5.741-5.532c0-3.055,2.571-5.534,5.741-5.534C28.112,17.171,30.683,19.65,30.683,22.705"/>
				<path clip-path="url(#SVGID_42_)" fill="#C9CACB" d="M30.533,22.705c0,2.975-2.504,5.388-5.593,5.388s-5.592-2.414-5.592-5.388
					c0-2.977,2.503-5.39,5.592-5.39S30.533,19.728,30.533,22.705"/>
				<path clip-path="url(#SVGID_42_)" fill="#CBCDCD" d="M30.384,22.705c0,2.896-2.438,5.245-5.443,5.245
					c-3.007,0-5.442-2.35-5.442-5.245c0-2.897,2.436-5.247,5.442-5.247C27.946,17.458,30.384,19.808,30.384,22.705"/>
				<path clip-path="url(#SVGID_42_)" fill="#CCCFD0" d="M30.235,22.705c0,2.817-2.37,5.102-5.295,5.102
					c-2.924,0-5.296-2.285-5.296-5.102c0-2.819,2.372-5.103,5.296-5.103C27.865,17.602,30.235,19.886,30.235,22.705"/>
				<path clip-path="url(#SVGID_42_)" fill="#D0D2D2" d="M30.086,22.705c0,2.738-2.303,4.958-5.146,4.958
					c-2.841,0-5.146-2.22-5.146-4.958c0-2.739,2.305-4.959,5.146-4.959C27.783,17.746,30.086,19.966,30.086,22.705"/>
				<path clip-path="url(#SVGID_42_)" fill="#D2D4D5" d="M29.937,22.705c0,2.658-2.236,4.814-4.996,4.814s-4.996-2.156-4.996-4.814
					c0-2.66,2.236-4.816,4.996-4.816S29.937,20.045,29.937,22.705"/>
			</g>
		</g>
		<polygon fill="#605F5E" points="24.113,26.376 24.113,23.501 21.13,23.501 21.13,21.906 24.113,21.906 24.113,19.032 
			25.769,19.032 25.769,21.906 28.752,21.906 28.752,23.501 25.769,23.501 25.769,26.376 		"/>
		<path fill="#221714" d="M25.626,19.17v2.597v0.278h0.286h2.697v1.318h-2.697h-0.286v0.276v2.599h-1.369V23.64v-0.276H23.97h-2.697
			v-1.318h2.697h0.287v-0.278V19.17H25.626z M25.912,18.895H23.97v2.873h-2.982v1.873h2.982v2.874h1.942V23.64h2.982v-1.873h-2.982
			V18.895z"/>
	</g>
</g>
<g>
	<ellipse fill="#3C3C3D" cx="1392.25" cy="22.705" rx="12.322" ry="11.884"/>
	<g>
		<path fill="#AFAEAE" d="M1401.402,22.705c0,4.871-4.098,8.819-9.152,8.819s-9.152-3.949-9.152-8.819
			c0-4.872,4.098-8.82,9.152-8.82S1401.402,17.833,1401.402,22.705"/>
		<ellipse fill="none" stroke="#929292" stroke-miterlimit="10" cx="1392.25" cy="22.705" rx="9.152" ry="8.819"/>
		<path fill="#AFAEAE" d="M1398.975,22.705c0,3.578-3.012,6.48-6.725,6.48c-3.714,0-6.725-2.902-6.725-6.48
			c0-3.58,3.011-6.482,6.725-6.482C1395.963,16.223,1398.975,19.125,1398.975,22.705"/>
		<ellipse fill="none" stroke="#929292" stroke-miterlimit="10" cx="1392.25" cy="22.705" rx="6.725" ry="6.48"/>
		<g>
			<g>
				<defs>
					<rect id="SVGID_43_" x="1385.91" y="16.597" width="12.68" height="12.215"/>
				</defs>
				<clipPath id="SVGID_44_">
					<use xlink:href="#SVGID_43_"  overflow="visible"/>
				</clipPath>
				<path clip-path="url(#SVGID_44_)" fill="#BEBEBD" d="M1398.588,22.705c0,3.373-2.838,6.107-6.338,6.107
					c-3.502,0-6.338-2.735-6.338-6.107c0-3.374,2.836-6.108,6.338-6.108C1395.75,16.597,1398.588,19.331,1398.588,22.705"/>
				<path clip-path="url(#SVGID_44_)" fill="#C0C0C0" d="M1398.439,22.705c0,3.292-2.771,5.963-6.189,5.963s-6.189-2.67-6.189-5.963
					c0-3.294,2.771-5.964,6.189-5.964S1398.439,19.411,1398.439,22.705"/>
				<path clip-path="url(#SVGID_44_)" fill="#C2C3C3" d="M1398.291,22.705c0,3.213-2.706,5.819-6.041,5.819
					c-3.336,0-6.039-2.606-6.039-5.819c0-3.215,2.703-5.821,6.039-5.821C1395.585,16.884,1398.291,19.49,1398.291,22.705"/>
				<path clip-path="url(#SVGID_44_)" fill="#C4C5C4" d="M1398.141,22.705c0,3.134-2.638,5.676-5.891,5.676
					c-3.254,0-5.891-2.542-5.891-5.676c0-3.136,2.637-5.677,5.891-5.677C1395.503,17.028,1398.141,19.569,1398.141,22.705"/>
				<path clip-path="url(#SVGID_44_)" fill="#C6C8C8" d="M1397.992,22.705c0,3.054-2.57,5.532-5.742,5.532
					c-3.17,0-5.741-2.478-5.741-5.532c0-3.055,2.571-5.534,5.741-5.534C1395.422,17.171,1397.992,19.65,1397.992,22.705"/>
				<path clip-path="url(#SVGID_44_)" fill="#C9CACB" d="M1397.843,22.705c0,2.975-2.504,5.388-5.593,5.388
					s-5.592-2.414-5.592-5.388c0-2.977,2.503-5.39,5.592-5.39S1397.843,19.728,1397.843,22.705"/>
				<path clip-path="url(#SVGID_44_)" fill="#CBCDCD" d="M1397.693,22.705c0,2.896-2.438,5.245-5.443,5.245
					c-3.008,0-5.443-2.35-5.443-5.245c0-2.897,2.436-5.247,5.443-5.247C1395.256,17.458,1397.693,19.808,1397.693,22.705"/>
				<path clip-path="url(#SVGID_44_)" fill="#CCCFD0" d="M1397.545,22.705c0,2.817-2.371,5.102-5.295,5.102
					s-5.295-2.285-5.295-5.102c0-2.819,2.371-5.103,5.295-5.103S1397.545,19.886,1397.545,22.705"/>
				<path clip-path="url(#SVGID_44_)" fill="#D0D2D2" d="M1397.395,22.705c0,2.738-2.303,4.958-5.145,4.958s-5.146-2.22-5.146-4.958
					c0-2.739,2.305-4.959,5.146-4.959S1397.395,19.966,1397.395,22.705"/>
				<path clip-path="url(#SVGID_44_)" fill="#D2D4D5" d="M1397.246,22.705c0,2.658-2.236,4.814-4.996,4.814
					s-4.997-2.156-4.997-4.814c0-2.66,2.237-4.816,4.997-4.816S1397.246,20.045,1397.246,22.705"/>
			</g>
		</g>
		<polygon fill="#605F5E" points="1391.422,26.376 1391.422,23.501 1388.439,23.501 1388.439,21.906 1391.422,21.906 
			1391.422,19.032 1393.078,19.032 1393.078,21.906 1396.061,21.906 1396.061,23.501 1393.078,23.501 1393.078,26.376 		"/>
		<path fill="#221714" d="M1392.935,19.17v2.597v0.278h0.286h2.697v1.318h-2.697h-0.286v0.276v2.599h-1.368V23.64v-0.276h-0.287
			h-2.697v-1.318h2.697h0.287v-0.278V19.17H1392.935z M1393.221,18.895h-1.941v2.873h-2.982v1.873h2.982v2.874h1.941V23.64h2.983
			v-1.873h-2.983V18.895z"/>
	</g>
</g>
<g>
	<ellipse fill="#3C3C3D" cx="1292.758" cy="191.321" rx="17.888" ry="17.253"/>
	<g>
		<path fill="#AFAEAE" d="M1306.047,191.322c0,7.071-5.951,12.804-13.289,12.804s-13.287-5.732-13.287-12.804
			c0-7.073,5.949-12.805,13.287-12.805S1306.047,184.249,1306.047,191.322"/>
		<ellipse fill="none" stroke="#929292" stroke-miterlimit="10" cx="1292.759" cy="191.322" rx="13.288" ry="12.804"/>
		<path fill="#AFAEAE" d="M1302.521,191.322c0,5.195-4.371,9.407-9.764,9.407c-5.392,0-9.764-4.212-9.764-9.407
			c0-5.196,4.372-9.41,9.764-9.41C1298.15,181.912,1302.521,186.125,1302.521,191.322"/>
		<ellipse fill="none" stroke="#929292" stroke-miterlimit="10" cx="1292.758" cy="191.322" rx="9.764" ry="9.407"/>
		<g>
			<g>
				<defs>
					<rect id="SVGID_45_" x="1283.554" y="182.455" width="18.409" height="17.733"/>
				</defs>
				<clipPath id="SVGID_46_">
					<use xlink:href="#SVGID_45_"  overflow="visible"/>
				</clipPath>
				<path clip-path="url(#SVGID_46_)" fill="#BEBEBD" d="M1301.961,191.322c0,4.896-4.121,8.867-9.203,8.867
					s-9.201-3.97-9.201-8.867c0-4.898,4.119-8.867,9.201-8.867S1301.961,186.424,1301.961,191.322"/>
				<path clip-path="url(#SVGID_46_)" fill="#C0C0C0" d="M1301.742,191.322c0,4.78-4.022,8.657-8.984,8.657
					c-4.963,0-8.984-3.877-8.984-8.657c0-4.782,4.021-8.659,8.984-8.659C1297.72,182.663,1301.742,186.54,1301.742,191.322"/>
				<path clip-path="url(#SVGID_46_)" fill="#C2C3C3" d="M1301.527,191.322c0,4.666-3.927,8.448-8.77,8.448
					c-4.844,0-8.769-3.783-8.769-8.448c0-4.668,3.925-8.45,8.769-8.45C1297.601,182.872,1301.527,186.654,1301.527,191.322"/>
				<path clip-path="url(#SVGID_46_)" fill="#C4C5C4" d="M1301.311,191.322c0,4.551-3.83,8.24-8.553,8.24
					c-4.724,0-8.553-3.689-8.553-8.24c0-4.553,3.829-8.242,8.553-8.242C1297.48,183.08,1301.311,186.769,1301.311,191.322"/>
				<path clip-path="url(#SVGID_46_)" fill="#C6C8C8" d="M1301.094,191.322c0,4.434-3.732,8.031-8.336,8.031
					c-4.603,0-8.335-3.597-8.335-8.031c0-4.436,3.732-8.034,8.335-8.034C1297.361,183.288,1301.094,186.886,1301.094,191.322"/>
				<path clip-path="url(#SVGID_46_)" fill="#C9CACB" d="M1300.877,191.322c0,4.319-3.635,7.823-8.119,7.823
					c-4.483,0-8.119-3.504-8.119-7.823c0-4.321,3.636-7.825,8.119-7.825C1297.242,183.497,1300.877,187,1300.877,191.322"/>
				<path clip-path="url(#SVGID_46_)" fill="#CBCDCD" d="M1300.661,191.322c0,4.204-3.539,7.615-7.903,7.615
					c-4.365,0-7.902-3.411-7.902-7.615c0-4.206,3.537-7.616,7.902-7.616C1297.122,183.706,1300.661,187.116,1300.661,191.322"/>
				<path clip-path="url(#SVGID_46_)" fill="#CCCFD0" d="M1300.445,191.322c0,4.09-3.441,7.406-7.688,7.406
					s-7.688-3.316-7.688-7.406c0-4.092,3.441-7.408,7.688-7.408S1300.445,187.23,1300.445,191.322"/>
				<path clip-path="url(#SVGID_46_)" fill="#D0D2D2" d="M1300.229,191.322c0,3.975-3.345,7.197-7.471,7.197
					c-4.125,0-7.471-3.222-7.471-7.197c0-3.977,3.346-7.199,7.471-7.199C1296.884,184.123,1300.229,187.345,1300.229,191.322"/>
				<path clip-path="url(#SVGID_46_)" fill="#D2D4D5" d="M1300.012,191.322c0,3.859-3.248,6.989-7.254,6.989
					c-4.007,0-7.254-3.13-7.254-6.989c0-3.861,3.247-6.991,7.254-6.991C1296.764,184.331,1300.012,187.461,1300.012,191.322"/>
			</g>
		</g>
		<polygon fill="#605F5E" points="1291.556,196.652 1291.556,192.479 1287.225,192.479 1287.225,190.163 1291.556,190.163 
			1291.556,185.989 1293.961,185.989 1293.961,190.163 1298.291,190.163 1298.291,192.479 1293.961,192.479 1293.961,196.652 		"/>
		<path fill="#221714" d="M1293.752,186.19v3.771v0.403h0.416h3.915v1.914h-3.915h-0.416v0.401v3.772h-1.988v-3.772v-0.401h-0.416
			h-3.914v-1.914h3.914h0.416v-0.403v-3.771H1293.752z M1294.168,185.791h-2.82v4.17h-4.33v2.718h4.33v4.173h2.82v-4.173h4.33
			v-2.718h-4.33V185.791z"/>
	</g>
</g>
<radialGradient id="SVGID_47_" cx="374.1284" cy="661.3516" r="8.6926" gradientUnits="userSpaceOnUse">
	<stop  offset="0" style="stop-color:#FFFFFF"/>
	<stop  offset="1" style="stop-color:#8DC21F"/>
</radialGradient>
<circle fill="url(#SVGID_47_)" stroke="#030000" stroke-miterlimit="10" cx="374.128" cy="661.352" r="8.692"/>
<radialGradient id="SVGID_48_" cx="415.4619" cy="661.3516" r="8.6929" gradientUnits="userSpaceOnUse">
	<stop  offset="0" style="stop-color:#FFFFFF"/>
	<stop  offset="1" style="stop-color:#00A0E9"/>
</radialGradient>
<circle fill="url(#SVGID_48_)" stroke="#030000" stroke-miterlimit="10" cx="415.462" cy="661.352" r="8.692"/>
<radialGradient id="SVGID_49_" cx="456.7959" cy="661.3516" r="8.6929" gradientUnits="userSpaceOnUse">
	<stop  offset="0" style="stop-color:#FFFFFF"/>
	<stop  offset="0.9946" style="stop-color:#F8B62D"/>
</radialGradient>
<circle fill="url(#SVGID_49_)" stroke="#030000" stroke-miterlimit="10" cx="456.796" cy="661.352" r="8.692"/>
<g>
	<rect x="111.801" y="622.518" fill="#E61673" width="5.239" height="75.531"/>
	<rect x="111.801" y="543.768" fill="#E61673" width="5.239" height="75.531"/>
	<rect x="110.801" y="468.563" fill="#6A64AF" width="5.239" height="69.449"/>
	<rect x="110.801" y="390.57" fill="#6A64AF" width="5.239" height="69.449"/>
	<rect x="110.801" y="312.58" fill="#6A64AF" width="5.239" height="69.448"/>
	<rect x="110.801" y="234.587" fill="#6A64AF" width="5.239" height="69.449"/>
	<rect x="110.801" y="156.597" fill="#6A64AF" width="5.239" height="69.449"/>
</g>
<g>
	<rect x="8.053" y="622.518" fill="#E61673" width="5.239" height="75.531"/>
	<rect x="8.053" y="543.768" fill="#E61673" width="5.239" height="75.531"/>
	<rect x="7.053" y="468.563" fill="#6A64AF" width="5.239" height="69.449"/>
	<rect x="7.053" y="390.57" fill="#6A64AF" width="5.239" height="69.449"/>
	<rect x="7.053" y="312.58" fill="#6A64AF" width="5.239" height="69.448"/>
	<rect x="7.053" y="234.587" fill="#6A64AF" width="5.239" height="69.449"/>
	<rect x="7.053" y="156.597" fill="#6A64AF" width="5.239" height="69.449"/>
</g>
<g>
	<rect x="1408.963" y="622.82" fill="#E61673" width="5.239" height="75.533"/>
	<rect x="1408.963" y="544.07" fill="#E61673" width="5.239" height="75.533"/>
	<rect x="1407.963" y="468.865" fill="#6A64AF" width="5.239" height="69.449"/>
	<rect x="1407.963" y="390.875" fill="#6A64AF" width="5.239" height="69.447"/>
	<rect x="1407.963" y="312.882" fill="#6A64AF" width="5.239" height="69.45"/>
	<rect x="1407.963" y="234.891" fill="#6A64AF" width="5.239" height="69.449"/>
	<rect x="1407.963" y="156.9" fill="#6A64AF" width="5.239" height="69.449"/>
</g>
<g>
	<rect x="1311.481" y="622.82" fill="#E61673" width="5.238" height="75.533"/>
	<rect x="1311.481" y="544.07" fill="#E61673" width="5.238" height="75.533"/>
	<rect x="1310.481" y="468.865" fill="#6A64AF" width="5.238" height="69.449"/>
	<rect x="1310.481" y="390.875" fill="#6A64AF" width="5.238" height="69.447"/>
	<rect x="1310.481" y="312.882" fill="#6A64AF" width="5.238" height="69.45"/>
	<rect x="1310.481" y="234.891" fill="#6A64AF" width="5.238" height="69.449"/>
	<rect x="1310.481" y="156.9" fill="#6A64AF" width="5.238" height="69.449"/>
</g>
<g>
	<g>
		<path fill="#6A64AF" d="M111.462,272.623c3.224,0,3.224-5,0-5S108.238,272.623,111.462,272.623L111.462,272.623z"/>
	</g>
</g>
<linearGradient id="SVGID_50_" gradientUnits="userSpaceOnUse" x1="59.6782" y1="515.6387" x2="59.6782" y2="300.3057">
	<stop  offset="0" style="stop-color:#727171"/>
	<stop  offset="0.0824" style="stop-color:#EFEFEF"/>
	<stop  offset="0.9157" style="stop-color:#DCDDDD"/>
	<stop  offset="1" style="stop-color:#727171"/>
</linearGradient>
<rect x="45.776" y="300.305" fill="url(#SVGID_50_)" width="27.804" height="215.333"/>
<linearGradient id="SVGID_51_" gradientUnits="userSpaceOnUse" x1="1358.9023" y1="515.6387" x2="1358.9023" y2="300.3057">
	<stop  offset="0" style="stop-color:#727171"/>
	<stop  offset="0.0824" style="stop-color:#EFEFEF"/>
	<stop  offset="0.9157" style="stop-color:#DCDDDD"/>
	<stop  offset="1" style="stop-color:#727171"/>
</linearGradient>
<rect x="1345" y="300.305" fill="url(#SVGID_51_)" width="27.805" height="215.333"/>
<rect x="105.548" y="150.591" fill="#191919" width="6.253" height="606.258"/>
<rect x="1314.353" y="150.591" fill="#191919" width="6.254" height="606.258"/>
<g>
	<radialGradient id="SVGID_52_" cx="80.9531" cy="33.8091" r="6.1479" gradientUnits="userSpaceOnUse">
		<stop  offset="0" style="stop-color:#FFFFFF"/>
		<stop  offset="1" style="stop-color:#8DC21F"/>
	</radialGradient>
	<circle fill="url(#SVGID_52_)" stroke="#030000" stroke-miterlimit="10" cx="80.953" cy="33.809" r="6.147"/>
	<rect x="42.676" y="31.381" fill="#E2E2E2" width="30.177" height="3.135"/>
</g>
<g>
	<radialGradient id="SVGID_53_" cx="80.9531" cy="49.8408" r="6.1479" gradientUnits="userSpaceOnUse">
		<stop  offset="0" style="stop-color:#FFFFFF"/>
		<stop  offset="1" style="stop-color:#8DC21F"/>
	</radialGradient>
	<circle fill="url(#SVGID_53_)" stroke="#030000" stroke-miterlimit="10" cx="80.953" cy="49.841" r="6.147"/>
	<rect x="42.676" y="47.413" fill="#E2E2E2" width="30.177" height="3.135"/>
</g>
<g>
	<radialGradient id="SVGID_54_" cx="80.9531" cy="65.8721" r="6.1479" gradientUnits="userSpaceOnUse">
		<stop  offset="0" style="stop-color:#FFFFFF"/>
		<stop  offset="1" style="stop-color:#8DC21F"/>
	</radialGradient>
	<circle fill="url(#SVGID_54_)" stroke="#030000" stroke-miterlimit="10" cx="80.953" cy="65.872" r="6.147"/>
	<rect x="42.676" y="63.444" fill="#E2E2E2" width="30.177" height="3.135"/>
</g>
<g>
	<radialGradient id="SVGID_55_" cx="80.9531" cy="81.9033" r="6.1482" gradientUnits="userSpaceOnUse">
		<stop  offset="0" style="stop-color:#FFFFFF"/>
		<stop  offset="1" style="stop-color:#8DC21F"/>
	</radialGradient>
	<circle fill="url(#SVGID_55_)" stroke="#030000" stroke-miterlimit="10" cx="80.953" cy="81.904" r="6.147"/>
	<rect x="42.676" y="79.476" fill="#E2E2E2" width="30.177" height="3.135"/>
</g>
<g>
	<radialGradient id="SVGID_56_" cx="80.9531" cy="97.9351" r="6.1479" gradientUnits="userSpaceOnUse">
		<stop  offset="0" style="stop-color:#FFFFFF"/>
		<stop  offset="1" style="stop-color:#8DC21F"/>
	</radialGradient>
	<circle fill="url(#SVGID_56_)" stroke="#030000" stroke-miterlimit="10" cx="80.953" cy="97.935" r="6.147"/>
	<rect x="42.676" y="95.507" fill="#E2E2E2" width="30.177" height="3.135"/>
</g>
<g>
	<radialGradient id="SVGID_57_" cx="80.9531" cy="113.9663" r="6.1479" gradientUnits="userSpaceOnUse">
		<stop  offset="0" style="stop-color:#FFFFFF"/>
		<stop  offset="1" style="stop-color:#8DC21F"/>
	</radialGradient>
	<circle fill="url(#SVGID_57_)" stroke="#030000" stroke-miterlimit="10" cx="80.953" cy="113.966" r="6.147"/>
	<rect x="42.676" y="111.539" fill="#E2E2E2" width="30.177" height="3.135"/>
</g>
<g>
	<path fill="#CCCCCC" d="M176.795,125.789c0,3.313-2.687,6-6,6h-1c-3.314,0-6-2.687-6-6V33.661c0-3.313,2.686-6,6-6h1
		c3.313,0,6,2.687,6,6V125.789z"/>
	<path d="M177.795,125.789c0,3.313-2.687,6-6,6h-1c-3.314,0-6-2.687-6-6V33.661c0-3.313,2.686-6,6-6h1c3.313,0,6,2.687,6,6V125.789z
		"/>
</g>
<g>
	<path fill="#CCCCCC" d="M196.128,125.789c0,3.313-2.687,6-6,6h-1c-3.313,0-6-2.687-6-6V33.661c0-3.313,2.687-6,6-6h1
		c3.313,0,6,2.687,6,6V125.789z"/>
	<path d="M197.128,125.789c0,3.313-2.687,6-6,6h-1c-3.313,0-6-2.687-6-6V33.661c0-3.313,2.687-6,6-6h1c3.313,0,6,2.687,6,6V125.789z
		"/>
</g>
<g>
	<path fill="#CCCCCC" d="M215.461,125.789c0,3.313-2.687,6-6,6h-1c-3.314,0-6-2.687-6-6V33.661c0-3.313,2.686-6,6-6h1
		c3.313,0,6,2.687,6,6V125.789z"/>
	<path d="M216.461,125.789c0,3.313-2.687,6-6,6h-1c-3.314,0-6-2.687-6-6V33.661c0-3.313,2.686-6,6-6h1c3.313,0,6,2.687,6,6V125.789z
		"/>
</g>
<g>
	<path fill="#CCCCCC" d="M234.794,125.789c0,3.313-2.687,6-6,6h-1c-3.313,0-6-2.687-6-6V33.661c0-3.313,2.687-6,6-6h1
		c3.313,0,6,2.687,6,6V125.789z"/>
	<path d="M235.794,125.789c0,3.313-2.687,6-6,6h-1c-3.313,0-6-2.687-6-6V33.661c0-3.313,2.687-6,6-6h1c3.313,0,6,2.687,6,6V125.789z
		"/>
</g>
<g>
	<path fill="#CCCCCC" d="M254.127,125.789c0,3.313-2.687,6-6,6h-1c-3.314,0-6-2.687-6-6V33.661c0-3.313,2.686-6,6-6h1
		c3.313,0,6,2.687,6,6V125.789z"/>
	<path d="M255.127,125.789c0,3.313-2.687,6-6,6h-1c-3.314,0-6-2.687-6-6V33.661c0-3.313,2.686-6,6-6h1c3.313,0,6,2.687,6,6V125.789z
		"/>
</g>
<g>
	<path fill="#CCCCCC" d="M273.46,125.789c0,3.313-2.688,6-6,6h-1c-3.313,0-6-2.687-6-6V33.661c0-3.313,2.687-6,6-6h1
		c3.313,0,6,2.687,6,6V125.789z"/>
	<path d="M274.46,125.789c0,3.313-2.688,6-6,6h-1c-3.313,0-6-2.687-6-6V33.661c0-3.313,2.687-6,6-6h1c3.313,0,6,2.687,6,6V125.789z"
		/>
</g>
<g>
	<path fill="#CCCCCC" d="M292.793,125.789c0,3.313-2.687,6-6,6h-1c-3.313,0-6-2.687-6-6V33.661c0-3.313,2.687-6,6-6h1
		c3.313,0,6,2.687,6,6V125.789z"/>
	<path d="M293.793,125.789c0,3.313-2.687,6-6,6h-1c-3.313,0-6-2.687-6-6V33.661c0-3.313,2.687-6,6-6h1c3.313,0,6,2.687,6,6V125.789z
		"/>
</g>
<g>
	<path fill="#CCCCCC" d="M312.126,125.789c0,3.313-2.688,6-6,6h-1c-3.313,0-6-2.687-6-6V33.661c0-3.313,2.687-6,6-6h1
		c3.313,0,6,2.687,6,6V125.789z"/>
	<path d="M313.126,125.789c0,3.313-2.688,6-6,6h-1c-3.313,0-6-2.687-6-6V33.661c0-3.313,2.687-6,6-6h1c3.313,0,6,2.687,6,6V125.789z
		"/>
</g>
<g>
	<path fill="#CCCCCC" d="M331.459,125.789c0,3.313-2.687,6-6,6h-1c-3.314,0-6-2.687-6-6V33.661c0-3.313,2.686-6,6-6h1
		c3.313,0,6,2.687,6,6V125.789z"/>
	<path d="M332.459,125.789c0,3.313-2.687,6-6,6h-1c-3.314,0-6-2.687-6-6V33.661c0-3.313,2.686-6,6-6h1c3.313,0,6,2.687,6,6V125.789z
		"/>
</g>
<g>
	<path fill="#CCCCCC" d="M350.792,125.789c0,3.313-2.688,6-6,6h-1c-3.313,0-6-2.687-6-6V33.661c0-3.313,2.687-6,6-6h1
		c3.313,0,6,2.687,6,6V125.789z"/>
	<path d="M351.792,125.789c0,3.313-2.688,6-6,6h-1c-3.313,0-6-2.687-6-6V33.661c0-3.313,2.687-6,6-6h1c3.313,0,6,2.687,6,6V125.789z
		"/>
</g>
<g>
	<path fill="#CCCCCC" d="M370.125,125.789c0,3.313-2.687,6-6,6h-1c-3.313,0-6-2.687-6-6V33.661c0-3.313,2.687-6,6-6h1
		c3.313,0,6,2.687,6,6V125.789z"/>
	<path d="M371.125,125.789c0,3.313-2.687,6-6,6h-1c-3.313,0-6-2.687-6-6V33.661c0-3.313,2.687-6,6-6h1c3.313,0,6,2.687,6,6V125.789z
		"/>
</g>
<g>
	<path fill="#CCCCCC" d="M389.458,125.789c0,3.313-2.687,6-6,6h-1c-3.313,0-6-2.687-6-6V33.661c0-3.313,2.687-6,6-6h1
		c3.313,0,6,2.687,6,6V125.789z"/>
	<path d="M390.458,125.789c0,3.313-2.687,6-6,6h-1c-3.313,0-6-2.687-6-6V33.661c0-3.313,2.687-6,6-6h1c3.313,0,6,2.687,6,6V125.789z
		"/>
</g>
<g>
	<path fill="#CCCCCC" d="M408.791,125.789c0,3.313-2.687,6-6,6h-1c-3.314,0-6-2.687-6-6V33.661c0-3.313,2.686-6,6-6h1
		c3.313,0,6,2.687,6,6V125.789z"/>
	<path d="M409.791,125.789c0,3.313-2.687,6-6,6h-1c-3.314,0-6-2.687-6-6V33.661c0-3.313,2.686-6,6-6h1c3.313,0,6,2.687,6,6V125.789z
		"/>
</g>
<g>
	<path fill="#CCCCCC" d="M428.124,125.789c0,3.313-2.687,6-6,6h-1c-3.313,0-6-2.687-6-6V33.661c0-3.313,2.687-6,6-6h1
		c3.313,0,6,2.687,6,6V125.789z"/>
	<path d="M429.124,125.789c0,3.313-2.687,6-6,6h-1c-3.313,0-6-2.687-6-6V33.661c0-3.313,2.687-6,6-6h1c3.313,0,6,2.687,6,6V125.789z
		"/>
</g>
<g>
	<path fill="#CCCCCC" d="M447.457,125.789c0,3.313-2.687,6-6,6h-1c-3.313,0-6-2.687-6-6V33.661c0-3.313,2.687-6,6-6h1
		c3.313,0,6,2.687,6,6V125.789z"/>
	<path d="M448.457,125.789c0,3.313-2.687,6-6,6h-1c-3.313,0-6-2.687-6-6V33.661c0-3.313,2.687-6,6-6h1c3.313,0,6,2.687,6,6V125.789z
		"/>
</g>
<g>
	<path fill="#CCCCCC" d="M466.79,125.789c0,3.313-2.687,6-6,6h-1c-3.313,0-6-2.687-6-6V33.661c0-3.313,2.687-6,6-6h1
		c3.313,0,6,2.687,6,6V125.789z"/>
	<path d="M467.79,125.789c0,3.313-2.687,6-6,6h-1c-3.313,0-6-2.687-6-6V33.661c0-3.313,2.687-6,6-6h1c3.313,0,6,2.687,6,6V125.789z"
		/>
</g>
<g>
	<path fill="#CCCCCC" d="M486.123,125.789c0,3.313-2.687,6-6,6h-1c-3.314,0-6-2.687-6-6V33.661c0-3.313,2.686-6,6-6h1
		c3.313,0,6,2.687,6,6V125.789z"/>
	<path d="M487.123,125.789c0,3.313-2.687,6-6,6h-1c-3.314,0-6-2.687-6-6V33.661c0-3.313,2.686-6,6-6h1c3.313,0,6,2.687,6,6V125.789z
		"/>
</g>
<g>
	<path fill="#CCCCCC" d="M505.456,125.789c0,3.313-2.688,6-6,6h-1c-3.313,0-6-2.687-6-6V33.661c0-3.313,2.687-6,6-6h1
		c3.313,0,6,2.687,6,6V125.789z"/>
	<path d="M506.456,125.789c0,3.313-2.688,6-6,6h-1c-3.313,0-6-2.687-6-6V33.661c0-3.313,2.687-6,6-6h1c3.313,0,6,2.687,6,6V125.789z
		"/>
</g>
<g>
	<path fill="#CCCCCC" d="M524.789,125.789c0,3.313-2.687,6-6,6h-1c-3.313,0-6-2.687-6-6V33.661c0-3.313,2.687-6,6-6h1
		c3.313,0,6,2.687,6,6V125.789z"/>
	<path d="M525.789,125.789c0,3.313-2.687,6-6,6h-1c-3.313,0-6-2.687-6-6V33.661c0-3.313,2.687-6,6-6h1c3.313,0,6,2.687,6,6V125.789z
		"/>
</g>
<g>
	<path fill="#CCCCCC" d="M544.122,125.789c0,3.313-2.687,6-6,6h-1c-3.313,0-6-2.687-6-6V33.661c0-3.313,2.687-6,6-6h1
		c3.313,0,6,2.687,6,6V125.789z"/>
	<path d="M545.122,125.789c0,3.313-2.687,6-6,6h-1c-3.313,0-6-2.687-6-6V33.661c0-3.313,2.687-6,6-6h1c3.313,0,6,2.687,6,6V125.789z
		"/>
</g>
<g>
	<path fill="#CCCCCC" d="M563.455,125.789c0,3.313-2.687,6-6,6h-1c-3.313,0-6-2.687-6-6V33.661c0-3.313,2.687-6,6-6h1
		c3.313,0,6,2.687,6,6V125.789z"/>
	<path d="M564.455,125.789c0,3.313-2.687,6-6,6h-1c-3.313,0-6-2.687-6-6V33.661c0-3.313,2.687-6,6-6h1c3.313,0,6,2.687,6,6V125.789z
		"/>
</g>
<g>
	<path fill="#CCCCCC" d="M582.788,125.789c0,3.313-2.687,6-6,6h-1c-3.313,0-6-2.687-6-6V33.661c0-3.313,2.687-6,6-6h1
		c3.313,0,6,2.687,6,6V125.789z"/>
	<path d="M583.788,125.789c0,3.313-2.687,6-6,6h-1c-3.313,0-6-2.687-6-6V33.661c0-3.313,2.687-6,6-6h1c3.313,0,6,2.687,6,6V125.789z
		"/>
</g>
<g>
	<path fill="#CCCCCC" d="M602.121,125.789c0,3.313-2.687,6-6,6h-1c-3.313,0-6-2.687-6-6V33.661c0-3.313,2.687-6,6-6h1
		c3.313,0,6,2.687,6,6V125.789z"/>
	<path d="M603.121,125.789c0,3.313-2.687,6-6,6h-1c-3.313,0-6-2.687-6-6V33.661c0-3.313,2.687-6,6-6h1c3.313,0,6,2.687,6,6V125.789z
		"/>
</g>
<g>
	<path fill="#CCCCCC" d="M621.454,125.789c0,3.313-2.687,6-6,6h-1c-3.313,0-6-2.687-6-6V33.661c0-3.313,2.687-6,6-6h1
		c3.313,0,6,2.687,6,6V125.789z"/>
	<path d="M622.454,125.789c0,3.313-2.687,6-6,6h-1c-3.313,0-6-2.687-6-6V33.661c0-3.313,2.687-6,6-6h1c3.313,0,6,2.687,6,6V125.789z
		"/>
</g>
<g>
	<path fill="#CCCCCC" d="M640.787,125.789c0,3.313-2.687,6-6,6h-1c-3.313,0-6-2.687-6-6V33.661c0-3.313,2.687-6,6-6h1
		c3.313,0,6,2.687,6,6V125.789z"/>
	<path d="M641.787,125.789c0,3.313-2.687,6-6,6h-1c-3.313,0-6-2.687-6-6V33.661c0-3.313,2.687-6,6-6h1c3.313,0,6,2.687,6,6V125.789z
		"/>
</g>
<g>
	<path fill="#CCCCCC" d="M660.12,125.789c0,3.313-2.687,6-6,6h-1c-3.313,0-6-2.687-6-6V33.661c0-3.313,2.687-6,6-6h1
		c3.313,0,6,2.687,6,6V125.789z"/>
	<path d="M661.12,125.789c0,3.313-2.687,6-6,6h-1c-3.313,0-6-2.687-6-6V33.661c0-3.313,2.687-6,6-6h1c3.313,0,6,2.687,6,6V125.789z"
		/>
</g>
<g>
	<path fill="#CCCCCC" d="M679.453,125.789c0,3.313-2.687,6-6,6h-1c-3.313,0-6-2.687-6-6V33.661c0-3.313,2.687-6,6-6h1
		c3.313,0,6,2.687,6,6V125.789z"/>
	<path d="M680.453,125.789c0,3.313-2.687,6-6,6h-1c-3.313,0-6-2.687-6-6V33.661c0-3.313,2.687-6,6-6h1c3.313,0,6,2.687,6,6V125.789z
		"/>
</g>
<g>
	<path fill="#CCCCCC" d="M698.786,125.789c0,3.313-2.687,6-6,6h-1c-3.313,0-6-2.687-6-6V33.661c0-3.313,2.687-6,6-6h1
		c3.313,0,6,2.687,6,6V125.789z"/>
	<path d="M699.786,125.789c0,3.313-2.687,6-6,6h-1c-3.313,0-6-2.687-6-6V33.661c0-3.313,2.687-6,6-6h1c3.313,0,6,2.687,6,6V125.789z
		"/>
</g>
<g>
	<path fill="#CCCCCC" d="M718.118,125.789c0,3.313-2.686,6-6,6h-1c-3.313,0-6-2.687-6-6V33.661c0-3.313,2.688-6,6-6h1
		c3.314,0,6,2.687,6,6V125.789z"/>
	<path d="M719.118,125.789c0,3.313-2.686,6-6,6h-1c-3.313,0-6-2.687-6-6V33.661c0-3.313,2.688-6,6-6h1c3.314,0,6,2.687,6,6V125.789z
		"/>
</g>
<g>
	<path fill="#CCCCCC" d="M737.452,125.789c0,3.313-2.687,6-6,6h-1c-3.313,0-6-2.687-6-6V33.661c0-3.313,2.687-6,6-6h1
		c3.313,0,6,2.687,6,6V125.789z"/>
	<path d="M738.452,125.789c0,3.313-2.687,6-6,6h-1c-3.313,0-6-2.687-6-6V33.661c0-3.313,2.687-6,6-6h1c3.313,0,6,2.687,6,6V125.789z
		"/>
</g>
<g>
	<path fill="#CCCCCC" d="M756.785,125.789c0,3.313-2.688,6-6,6h-1c-3.313,0-6-2.687-6-6V33.661c0-3.313,2.687-6,6-6h1
		c3.313,0,6,2.687,6,6V125.789z"/>
	<path d="M757.785,125.789c0,3.313-2.688,6-6,6h-1c-3.313,0-6-2.687-6-6V33.661c0-3.313,2.687-6,6-6h1c3.313,0,6,2.687,6,6V125.789z
		"/>
</g>
<g>
	<path fill="#CCCCCC" d="M776.118,125.789c0,3.313-2.687,6-6,6h-1c-3.313,0-6-2.687-6-6V33.661c0-3.313,2.687-6,6-6h1
		c3.313,0,6,2.687,6,6V125.789z"/>
	<path d="M777.118,125.789c0,3.313-2.687,6-6,6h-1c-3.313,0-6-2.687-6-6V33.661c0-3.313,2.687-6,6-6h1c3.313,0,6,2.687,6,6V125.789z
		"/>
</g>
<g>
	<path fill="#CCCCCC" d="M795.451,125.789c0,3.313-2.688,6-6,6h-1c-3.313,0-6-2.687-6-6V33.661c0-3.313,2.687-6,6-6h1
		c3.313,0,6,2.687,6,6V125.789z"/>
	<path d="M796.451,125.789c0,3.313-2.688,6-6,6h-1c-3.313,0-6-2.687-6-6V33.661c0-3.313,2.687-6,6-6h1c3.313,0,6,2.687,6,6V125.789z
		"/>
</g>
<g>
	<path fill="#CCCCCC" d="M814.784,125.789c0,3.313-2.687,6-6,6h-1c-3.313,0-6-2.687-6-6V33.661c0-3.313,2.687-6,6-6h1
		c3.313,0,6,2.687,6,6V125.789z"/>
	<path d="M815.784,125.789c0,3.313-2.687,6-6,6h-1c-3.313,0-6-2.687-6-6V33.661c0-3.313,2.687-6,6-6h1c3.313,0,6,2.687,6,6V125.789z
		"/>
</g>
<g>
	<path fill="#CCCCCC" d="M834.117,125.789c0,3.313-2.688,6-6,6h-1c-3.313,0-6-2.687-6-6V33.661c0-3.313,2.687-6,6-6h1
		c3.313,0,6,2.687,6,6V125.789z"/>
	<path d="M835.117,125.789c0,3.313-2.688,6-6,6h-1c-3.313,0-6-2.687-6-6V33.661c0-3.313,2.687-6,6-6h1c3.313,0,6,2.687,6,6V125.789z
		"/>
</g>
<g>
	<path fill="#CCCCCC" d="M853.45,125.789c0,3.313-2.687,6-6,6h-1c-3.314,0-6-2.687-6-6V33.661c0-3.313,2.686-6,6-6h1
		c3.313,0,6,2.687,6,6V125.789z"/>
	<path d="M854.45,125.789c0,3.313-2.687,6-6,6h-1c-3.314,0-6-2.687-6-6V33.661c0-3.313,2.686-6,6-6h1c3.313,0,6,2.687,6,6V125.789z"
		/>
</g>
<g>
	<path fill="#CCCCCC" d="M872.783,125.789c0,3.313-2.688,6-6,6h-1c-3.313,0-6-2.687-6-6V33.661c0-3.313,2.687-6,6-6h1
		c3.313,0,6,2.687,6,6V125.789z"/>
	<path d="M873.783,125.789c0,3.313-2.688,6-6,6h-1c-3.313,0-6-2.687-6-6V33.661c0-3.313,2.687-6,6-6h1c3.313,0,6,2.687,6,6V125.789z
		"/>
</g>
<g>
	<path fill="#CCCCCC" d="M892.116,125.789c0,3.313-2.687,6-6,6h-1c-3.313,0-6-2.687-6-6V33.661c0-3.313,2.687-6,6-6h1
		c3.313,0,6,2.687,6,6V125.789z"/>
	<path d="M893.116,125.789c0,3.313-2.687,6-6,6h-1c-3.313,0-6-2.687-6-6V33.661c0-3.313,2.687-6,6-6h1c3.313,0,6,2.687,6,6V125.789z
		"/>
</g>
<g>
	<path fill="#CCCCCC" d="M911.449,125.789c0,3.313-2.687,6-6,6h-1c-3.313,0-6-2.687-6-6V33.661c0-3.313,2.687-6,6-6h1
		c3.313,0,6,2.687,6,6V125.789z"/>
	<path d="M912.449,125.789c0,3.313-2.687,6-6,6h-1c-3.313,0-6-2.687-6-6V33.661c0-3.313,2.687-6,6-6h1c3.313,0,6,2.687,6,6V125.789z
		"/>
</g>
<g>
	<path fill="#CCCCCC" d="M930.781,125.789c0,3.313-2.686,6-6,6h-1c-3.313,0-6-2.687-6-6V33.661c0-3.313,2.687-6,6-6h1
		c3.314,0,6,2.687,6,6V125.789z"/>
	<path d="M931.781,125.789c0,3.313-2.686,6-6,6h-1c-3.313,0-6-2.687-6-6V33.661c0-3.313,2.687-6,6-6h1c3.314,0,6,2.687,6,6V125.789z
		"/>
</g>
<g>
	<path fill="#CCCCCC" d="M950.115,125.789c0,3.313-2.688,6-6,6h-1c-3.313,0-6-2.687-6-6V33.661c0-3.313,2.687-6,6-6h1
		c3.313,0,6,2.687,6,6V125.789z"/>
	<path d="M951.115,125.789c0,3.313-2.688,6-6,6h-1c-3.313,0-6-2.687-6-6V33.661c0-3.313,2.687-6,6-6h1c3.313,0,6,2.687,6,6V125.789z
		"/>
</g>
<g>
	<path fill="#CCCCCC" d="M969.447,125.789c0,3.313-2.686,6-6,6h-1c-3.313,0-6-2.687-6-6V33.661c0-3.313,2.688-6,6-6h1
		c3.314,0,6,2.687,6,6V125.789z"/>
	<path d="M970.447,125.789c0,3.313-2.686,6-6,6h-1c-3.313,0-6-2.687-6-6V33.661c0-3.313,2.688-6,6-6h1c3.314,0,6,2.687,6,6V125.789z
		"/>
</g>
<g>
	<path fill="#CCCCCC" d="M988.781,125.789c0,3.313-2.687,6-6,6h-1c-3.313,0-6-2.687-6-6V33.661c0-3.313,2.687-6,6-6h1
		c3.313,0,6,2.687,6,6V125.789z"/>
	<path d="M989.781,125.789c0,3.313-2.687,6-6,6h-1c-3.313,0-6-2.687-6-6V33.661c0-3.313,2.687-6,6-6h1c3.313,0,6,2.687,6,6V125.789z
		"/>
</g>
<g>
	<path fill="#CCCCCC" d="M1008.113,125.789c0,3.313-2.686,6-6,6h-1c-3.313,0-6-2.687-6-6V33.661c0-3.313,2.688-6,6-6h1
		c3.314,0,6,2.687,6,6V125.789z"/>
	<path d="M1009.113,125.789c0,3.313-2.686,6-6,6h-1c-3.313,0-6-2.687-6-6V33.661c0-3.313,2.688-6,6-6h1c3.314,0,6,2.687,6,6V125.789
		z"/>
</g>
<g>
	<path fill="#CCCCCC" d="M1027.447,125.789c0,3.313-2.688,6-6,6h-1c-3.313,0-6-2.687-6-6V33.661c0-3.313,2.687-6,6-6h1
		c3.313,0,6,2.687,6,6V125.789z"/>
	<path d="M1028.447,125.789c0,3.313-2.688,6-6,6h-1c-3.313,0-6-2.687-6-6V33.661c0-3.313,2.687-6,6-6h1c3.313,0,6,2.687,6,6V125.789
		z"/>
</g>
<g>
	<path fill="#CCCCCC" d="M1046.78,125.789c0,3.313-2.687,6-6,6h-1c-3.313,0-6-2.687-6-6V33.661c0-3.313,2.687-6,6-6h1
		c3.313,0,6,2.687,6,6V125.789z"/>
	<path d="M1047.78,125.789c0,3.313-2.687,6-6,6h-1c-3.313,0-6-2.687-6-6V33.661c0-3.313,2.687-6,6-6h1c3.313,0,6,2.687,6,6V125.789z
		"/>
</g>
<g>
	<path fill="#CCCCCC" d="M1066.113,125.789c0,3.313-2.687,6-6,6h-1c-3.313,0-6-2.687-6-6V33.661c0-3.313,2.687-6,6-6h1
		c3.313,0,6,2.687,6,6V125.789z"/>
	<path d="M1067.113,125.789c0,3.313-2.687,6-6,6h-1c-3.313,0-6-2.687-6-6V33.661c0-3.313,2.687-6,6-6h1c3.313,0,6,2.687,6,6V125.789
		z"/>
</g>
<g>
	<path fill="#CCCCCC" d="M1085.445,125.789c0,3.313-2.686,6-6,6h-1c-3.313,0-6-2.687-6-6V33.661c0-3.313,2.688-6,6-6h1
		c3.314,0,6,2.687,6,6V125.789z"/>
	<path d="M1086.445,125.789c0,3.313-2.686,6-6,6h-1c-3.313,0-6-2.687-6-6V33.661c0-3.313,2.688-6,6-6h1c3.314,0,6,2.687,6,6V125.789
		z"/>
</g>
<g>
	<path fill="#CCCCCC" d="M1104.779,125.789c0,3.313-2.687,6-6,6h-1c-3.314,0-6-2.687-6-6V33.661c0-3.313,2.686-6,6-6h1
		c3.313,0,6,2.687,6,6V125.789z"/>
	<path d="M1105.779,125.789c0,3.313-2.687,6-6,6h-1c-3.314,0-6-2.687-6-6V33.661c0-3.313,2.686-6,6-6h1c3.313,0,6,2.687,6,6V125.789
		z"/>
</g>
<g>
	<path fill="#CCCCCC" d="M1124.112,125.789c0,3.313-2.687,6-6,6h-1c-3.313,0-6-2.687-6-6V33.661c0-3.313,2.687-6,6-6h1
		c3.313,0,6,2.687,6,6V125.789z"/>
	<path d="M1125.112,125.789c0,3.313-2.687,6-6,6h-1c-3.313,0-6-2.687-6-6V33.661c0-3.313,2.687-6,6-6h1c3.313,0,6,2.687,6,6V125.789
		z"/>
</g>
<g>
	<path fill="#CCCCCC" d="M1143.445,125.789c0,3.313-2.687,6-6,6h-1c-3.314,0-6-2.687-6-6V33.661c0-3.313,2.686-6,6-6h1
		c3.313,0,6,2.687,6,6V125.789z"/>
	<path d="M1144.445,125.789c0,3.313-2.687,6-6,6h-1c-3.314,0-6-2.687-6-6V33.661c0-3.313,2.686-6,6-6h1c3.313,0,6,2.687,6,6V125.789
		z"/>
</g>
<g>
	<path fill="#CCCCCC" d="M1162.777,125.789c0,3.313-2.686,6-6,6h-1c-3.313,0-6-2.687-6-6V33.661c0-3.313,2.688-6,6-6h1
		c3.314,0,6,2.687,6,6V125.789z"/>
	<path d="M1163.777,125.789c0,3.313-2.686,6-6,6h-1c-3.313,0-6-2.687-6-6V33.661c0-3.313,2.688-6,6-6h1c3.314,0,6,2.687,6,6V125.789
		z"/>
</g>
<g>
	<path fill="#CCCCCC" d="M1182.111,125.789c0,3.313-2.687,6-6,6h-1c-3.314,0-6-2.687-6-6V33.661c0-3.313,2.686-6,6-6h1
		c3.313,0,6,2.687,6,6V125.789z"/>
	<path d="M1183.111,125.789c0,3.313-2.687,6-6,6h-1c-3.314,0-6-2.687-6-6V33.661c0-3.313,2.686-6,6-6h1c3.313,0,6,2.687,6,6V125.789
		z"/>
</g>
<g>
	<path fill="#CCCCCC" d="M1201.444,125.789c0,3.313-2.687,6-6,6h-1c-3.313,0-6-2.687-6-6V33.661c0-3.313,2.687-6,6-6h1
		c3.313,0,6,2.687,6,6V125.789z"/>
	<path d="M1202.444,125.789c0,3.313-2.687,6-6,6h-1c-3.313,0-6-2.687-6-6V33.661c0-3.313,2.687-6,6-6h1c3.313,0,6,2.687,6,6V125.789
		z"/>
</g>
<g>
	<path fill="#CCCCCC" d="M1220.777,125.789c0,3.313-2.687,6-6,6h-1c-3.314,0-6-2.687-6-6V33.661c0-3.313,2.686-6,6-6h1
		c3.313,0,6,2.687,6,6V125.789z"/>
	<path d="M1221.777,125.789c0,3.313-2.687,6-6,6h-1c-3.314,0-6-2.687-6-6V33.661c0-3.313,2.686-6,6-6h1c3.313,0,6,2.687,6,6V125.789
		z"/>
</g>
<g>
	<path fill="#CCCCCC" d="M1240.109,125.789c0,3.313-2.686,6-6,6h-1c-3.313,0-6-2.687-6-6V33.661c0-3.313,2.688-6,6-6h1
		c3.314,0,6,2.687,6,6V125.789z"/>
	<path d="M1241.109,125.789c0,3.313-2.686,6-6,6h-1c-3.313,0-6-2.687-6-6V33.661c0-3.313,2.688-6,6-6h1c3.314,0,6,2.687,6,6V125.789
		z"/>
</g>
<g>
	<path fill="#CCCCCC" d="M1259.443,125.789c0,3.313-2.687,6-6,6h-1c-3.313,0-6-2.687-6-6V33.661c0-3.313,2.688-6,6-6h1
		c3.313,0,6,2.687,6,6V125.789z"/>
	<path d="M1260.443,125.789c0,3.313-2.687,6-6,6h-1c-3.313,0-6-2.687-6-6V33.661c0-3.313,2.688-6,6-6h1c3.313,0,6,2.687,6,6V125.789
		z"/>
</g>
</svg>
