<?xml version="1.0" encoding="utf-8"?>
<!-- Generator: Adobe Illustrator 21.0.0, SVG Export Plug-In . SVG Version: 6.00 Build 0)  -->
<svg version="1.1" id="图层_1" xmlns="http://www.w3.org/2000/svg" xmlns:xlink="http://www.w3.org/1999/xlink" x="0px" y="0px"
	 width="1275.6px" height="126.1px" viewBox="0 0 1275.6 126.1" enable-background="new 0 0 1275.6 126.1" xml:space="preserve">
<g id="XMLID_20017_">
	<rect id="XMLID_20100_" x="0.5" y="0.5" fill="#454D53" width="1274.6" height="125.1"/>
	<g id="XMLID_20096_">
		<path id="XMLID_20097_" fill="#070707" d="M1274.6,1v124.1H1V1H1274.6 M1275.6,0H0v126.1h1275.6V0L1275.6,0z"/>
	</g>
</g>
<g id="XMLID_20094_">
	<circle id="XMLID_20086_" fill="#0C0C0C" cx="692.1" cy="62.2" r="48"/>
	<circle id="XMLID_20088_" fill="#AAAAAA" cx="692.1" cy="62.2" r="26.8"/>
</g>
<g id="XMLID_20103_">
	<circle id="XMLID_20105_" fill="#0C0C0C" cx="543.3" cy="62.2" r="48"/>
	<circle id="XMLID_20104_" fill="#AAAAAA" cx="543.3" cy="62.2" r="26.8"/>
</g>
<g id="XMLID_20101_">
	<polyline id="XMLID_20578_" fill="#0C0C0C" points="547.5,116.9 541.2,113.3 541.2,106.1 547.5,102.5 553.7,106.1 553.7,113.3 
		547.5,116.9 	"/>
	<polygon id="XMLID_20577_" fill="#0C0C0C" points="562,99.8 555.8,103.4 549.5,99.8 549.5,92.6 555.8,89 562,92.6 	"/>
	<polygon id="XMLID_20576_" fill="#0C0C0C" points="553.7,86.6 547.5,90.2 541.2,86.6 541.2,79.4 547.5,75.8 553.7,79.4 	"/>
	<polygon id="XMLID_20575_" fill="#0C0C0C" points="562,73 555.8,76.6 549.5,73 549.5,65.8 555.8,62.2 562,65.8 	"/>
	<polygon id="XMLID_20574_" fill="#0C0C0C" points="553.7,59.8 547.5,63.4 541.2,59.8 541.2,52.6 547.5,49 553.7,52.6 	"/>
	<polygon id="XMLID_20573_" fill="#0C0C0C" points="562,46.3 555.8,49.9 549.5,46.3 549.5,39 555.8,35.4 562,39 	"/>
	<polygon id="XMLID_20572_" fill="#0C0C0C" points="553.7,33 547.5,36.6 541.2,33 541.2,25.8 547.5,22.2 553.7,25.8 	"/>
	<polygon id="XMLID_20571_" fill="#0C0C0C" points="562,20 555.8,23.6 549.5,20 549.5,12.8 555.8,9.2 562,12.8 	"/>
	<polyline id="XMLID_20570_" fill="#0C0C0C" points="531.4,116.9 525.2,113.3 525.2,106.1 531.4,102.5 537.7,106.1 537.7,113.3 
		531.4,116.9 	"/>
	<polygon id="XMLID_20569_" fill="#0C0C0C" points="546,99.8 539.7,103.4 533.5,99.8 533.5,92.6 539.7,89 546,92.6 	"/>
	<polygon id="XMLID_20568_" fill="#0C0C0C" points="529.4,99.8 523.1,103.4 516.9,99.8 516.9,92.6 523.1,89 529.4,92.6 	"/>
	<polygon id="XMLID_20567_" fill="#0C0C0C" points="537.7,86.6 531.4,90.2 525.2,86.6 525.2,79.4 531.4,75.8 537.7,79.4 	"/>
	<polygon id="XMLID_20566_" fill="#0C0C0C" points="546,73 539.7,76.6 533.5,73 533.5,65.8 539.7,62.2 546,65.8 	"/>
	<polygon id="XMLID_20565_" fill="#0C0C0C" points="529.4,73 523.1,76.6 516.9,73 516.9,65.8 523.1,62.2 529.4,65.8 	"/>
	<polygon id="XMLID_20564_" fill="#0C0C0C" points="537.7,59.8 531.4,63.4 525.2,59.8 525.2,52.6 531.4,49 537.7,52.6 	"/>
	<polygon id="XMLID_20563_" fill="#0C0C0C" points="546,46.3 539.7,49.9 533.5,46.3 533.5,39 539.7,35.4 546,39 	"/>
	<polygon id="XMLID_20562_" fill="#0C0C0C" points="529.4,46.3 523.1,49.9 516.9,46.3 516.9,39 523.1,35.4 529.4,39 	"/>
	<polygon id="XMLID_20561_" fill="#0C0C0C" points="537.7,33 531.4,36.6 525.2,33 525.2,25.8 531.4,22.2 537.7,25.8 	"/>
	<polyline id="XMLID_20560_" fill="#0C0C0C" points="514.7,116.9 508.5,113.3 508.5,106.1 514.7,102.5 521,106.1 521,113.3 
		514.7,116.9 	"/>
	<polygon id="XMLID_20559_" fill="#0C0C0C" points="512.7,99.8 506.4,103.4 500.2,99.8 500.2,92.6 506.4,89 512.7,92.6 	"/>
	<polygon id="XMLID_20558_" fill="#0C0C0C" points="521,86.6 514.7,90.2 508.5,86.6 508.5,79.4 514.7,75.8 521,79.4 	"/>
	<polygon id="XMLID_20557_" fill="#0C0C0C" points="512.7,73 506.4,76.6 500.2,73 500.2,65.8 506.4,62.2 512.7,65.8 	"/>
	<polygon id="XMLID_20556_" fill="#0C0C0C" points="521,59.8 514.7,63.4 508.5,59.8 508.5,52.6 514.7,49 521,52.6 	"/>
	<polygon id="XMLID_20555_" fill="#0C0C0C" points="512.7,46.3 506.4,49.9 500.2,46.3 500.2,39 506.4,35.4 512.7,39 	"/>
	<polygon id="XMLID_20554_" fill="#0C0C0C" points="521,33 514.7,36.6 508.5,33 508.5,25.8 514.7,22.2 521,25.8 	"/>
	<polyline id="XMLID_20553_" fill="#0C0C0C" points="498.1,116.9 491.8,113.3 491.8,106.1 498.1,102.5 504.3,106.1 504.3,113.3 
		498.1,116.9 	"/>
	<polygon id="XMLID_20552_" fill="#0C0C0C" points="504.3,86.6 498.1,90.2 491.8,86.6 491.8,79.4 498.1,75.8 504.3,79.4 	"/>
	<polygon id="XMLID_20551_" fill="#0C0C0C" points="504.3,59.8 498.1,63.4 491.8,59.8 491.8,52.6 498.1,49 504.3,52.6 	"/>
	<polygon id="XMLID_20550_" fill="#0C0C0C" points="504.3,33 498.1,36.6 491.8,33 491.8,25.8 498.1,22.2 504.3,25.8 	"/>
	<polygon id="XMLID_20549_" fill="#0C0C0C" points="546,20 539.7,23.6 533.5,20 533.5,12.8 539.7,9.2 546,12.8 	"/>
	<polygon id="XMLID_20548_" fill="#0C0C0C" points="529.4,20 523.1,23.6 516.9,20 516.9,12.8 523.1,9.2 529.4,12.8 	"/>
	<polygon id="XMLID_20547_" fill="#0C0C0C" points="512.7,20 506.4,23.6 500.2,20 500.2,12.8 506.4,9.2 512.7,12.8 	"/>
	<polyline id="XMLID_20546_" fill="#0C0C0C" points="482,116.9 475.8,113.3 475.8,106.1 482,102.5 488.3,106.1 488.3,113.3 
		482,116.9 	"/>
	<polygon id="XMLID_20545_" fill="#0C0C0C" points="496.6,99.8 490.4,103.4 484.1,99.8 484.1,92.6 490.4,89 496.6,92.6 	"/>
	<polygon id="XMLID_20544_" fill="#0C0C0C" points="488.3,86.6 482,90.2 475.8,86.6 475.8,79.4 482,75.8 488.3,79.4 	"/>
	<polygon id="XMLID_20543_" fill="#0C0C0C" points="496.6,73 490.4,76.6 484.1,73 484.1,65.8 490.4,62.2 496.6,65.8 	"/>
	<polygon id="XMLID_20542_" fill="#0C0C0C" points="488.3,59.8 482,63.4 475.8,59.8 475.8,52.6 482,49 488.3,52.6 	"/>
	<polygon id="XMLID_20541_" fill="#0C0C0C" points="496.6,46.3 490.4,49.9 484.1,46.3 484.1,39 490.4,35.4 496.6,39 	"/>
	<polygon id="XMLID_20540_" fill="#0C0C0C" points="488.3,33 482,36.6 475.8,33 475.8,25.8 482,22.2 488.3,25.8 	"/>
	<polygon id="XMLID_20539_" fill="#0C0C0C" points="496.6,20 490.4,23.6 484.1,20 484.1,12.8 490.4,9.2 496.6,12.8 	"/>
	<polyline id="XMLID_20538_" fill="#0C0C0C" points="466,116.9 459.8,113.3 459.8,106.1 466,102.5 472.2,106.1 472.2,113.3 
		466,116.9 	"/>
	<polygon id="XMLID_20537_" fill="#0C0C0C" points="480.5,99.8 474.3,103.4 468.1,99.8 468.1,92.6 474.3,89 480.5,92.6 	"/>
	<polygon id="XMLID_20536_" fill="#0C0C0C" points="463.9,99.8 457.7,103.4 451.5,99.8 451.5,92.6 457.7,89 463.9,92.6 	"/>
	<polygon id="XMLID_20535_" fill="#0C0C0C" points="472.2,86.6 466,90.2 459.8,86.6 459.8,79.4 466,75.8 472.2,79.4 	"/>
	<polygon id="XMLID_20534_" fill="#0C0C0C" points="480.5,73 474.3,76.6 468.1,73 468.1,65.8 474.3,62.2 480.5,65.8 	"/>
	<polygon id="XMLID_20527_" fill="#0C0C0C" points="463.9,73 457.7,76.6 451.5,73 451.5,65.8 457.7,62.2 463.9,65.8 	"/>
	<polygon id="XMLID_20526_" fill="#0C0C0C" points="472.2,59.8 466,63.4 459.8,59.8 459.8,52.6 466,49 472.2,52.6 	"/>
	<polygon id="XMLID_20525_" fill="#0C0C0C" points="480.5,46.3 474.3,49.9 468.1,46.3 468.1,39 474.3,35.4 480.5,39 	"/>
	<polygon id="XMLID_20524_" fill="#0C0C0C" points="463.9,46.3 457.7,49.9 451.5,46.3 451.5,39 457.7,35.4 463.9,39 	"/>
	<polygon id="XMLID_20523_" fill="#0C0C0C" points="472.2,33 466,36.6 459.8,33 459.8,25.8 466,22.2 472.2,25.8 	"/>
	<polyline id="XMLID_20522_" fill="#0C0C0C" points="449.3,116.9 443.1,113.3 443.1,106.1 449.3,102.5 455.6,106.1 455.6,113.3 
		449.3,116.9 	"/>
	<polygon id="XMLID_20521_" fill="#0C0C0C" points="447.3,99.8 441,103.4 434.8,99.8 434.8,92.6 441,89 447.3,92.6 	"/>
	<polygon id="XMLID_20520_" fill="#0C0C0C" points="455.6,86.6 449.3,90.2 443.1,86.6 443.1,79.4 449.3,75.8 455.6,79.4 	"/>
	<polygon id="XMLID_20519_" fill="#0C0C0C" points="447.3,73 441,76.6 434.8,73 434.8,65.8 441,62.2 447.3,65.8 	"/>
	<polygon id="XMLID_20518_" fill="#0C0C0C" points="455.6,59.8 449.3,63.4 443.1,59.8 443.1,52.6 449.3,49 455.6,52.6 	"/>
	<polygon id="XMLID_20517_" fill="#0C0C0C" points="447.3,46.3 441,49.9 434.8,46.3 434.8,39 441,35.4 447.3,39 	"/>
	<polygon id="XMLID_20516_" fill="#0C0C0C" points="455.6,33 449.3,36.6 443.1,33 443.1,25.8 449.3,22.2 455.6,25.8 	"/>
	<polygon id="XMLID_20511_" fill="#0C0C0C" points="480.5,20 474.3,23.6 468.1,20 468.1,12.8 474.3,9.2 480.5,12.8 	"/>
	<polygon id="XMLID_20510_" fill="#0C0C0C" points="463.9,20 457.7,23.6 451.5,20 451.5,12.8 457.7,9.2 463.9,12.8 	"/>
	<polygon id="XMLID_20509_" fill="#0C0C0C" points="447.3,20 441,23.6 434.8,20 434.8,12.8 441,9.2 447.3,12.8 	"/>
	<polyline id="XMLID_20508_" fill="#0C0C0C" points="678.2,116.9 672,113.3 672,106.1 678.2,102.5 684.5,106.1 684.5,113.3 
		678.2,116.9 	"/>
	<polygon id="XMLID_20507_" fill="#0C0C0C" points="692.8,99.8 686.6,103.4 680.3,99.8 680.3,92.6 686.6,89 692.8,92.6 	"/>
	<polygon id="XMLID_20506_" fill="#0C0C0C" points="684.5,86.6 678.2,90.2 672,86.6 672,79.4 678.2,75.8 684.5,79.4 	"/>
	<polygon id="XMLID_20505_" fill="#0C0C0C" points="692.8,73 686.6,76.6 680.3,73 680.3,65.8 686.6,62.2 692.8,65.8 	"/>
	<polygon id="XMLID_20504_" fill="#0C0C0C" points="684.5,59.8 678.2,63.4 672,59.8 672,52.6 678.2,49 684.5,52.6 	"/>
	<polygon id="XMLID_20503_" fill="#0C0C0C" points="692.8,46.3 686.6,49.9 680.3,46.3 680.3,39 686.6,35.4 692.8,39 	"/>
	<polygon id="XMLID_20502_" fill="#0C0C0C" points="684.5,33 678.2,36.6 672,33 672,25.8 678.2,22.2 684.5,25.8 	"/>
	<polygon id="XMLID_20501_" fill="#0C0C0C" points="692.8,20 686.6,23.6 680.3,20 680.3,12.8 686.6,9.2 692.8,12.8 	"/>
	<polyline id="XMLID_20500_" fill="#0C0C0C" points="662.2,116.9 656,113.3 656,106.1 662.2,102.5 668.4,106.1 668.4,113.3 
		662.2,116.9 	"/>
	<polygon id="XMLID_20499_" fill="#0C0C0C" points="676.7,99.8 670.5,103.4 664.3,99.8 664.3,92.6 670.5,89 676.7,92.6 	"/>
	<polygon id="XMLID_20498_" fill="#0C0C0C" points="660.1,99.8 653.9,103.4 647.7,99.8 647.7,92.6 653.9,89 660.1,92.6 	"/>
	<polygon id="XMLID_20497_" fill="#0C0C0C" points="668.4,86.6 662.2,90.2 656,86.6 656,79.4 662.2,75.8 668.4,79.4 	"/>
	<polygon id="XMLID_20496_" fill="#0C0C0C" points="676.7,73 670.5,76.6 664.3,73 664.3,65.8 670.5,62.2 676.7,65.8 	"/>
	<polygon id="XMLID_20495_" fill="#0C0C0C" points="660.1,73 653.9,76.6 647.7,73 647.7,65.8 653.9,62.2 660.1,65.8 	"/>
	<polygon id="XMLID_20494_" fill="#0C0C0C" points="668.4,59.8 662.2,63.4 656,59.8 656,52.6 662.2,49 668.4,52.6 	"/>
	<polygon id="XMLID_20493_" fill="#0C0C0C" points="676.7,46.3 670.5,49.9 664.3,46.3 664.3,39 670.5,35.4 676.7,39 	"/>
	<polygon id="XMLID_20492_" fill="#0C0C0C" points="660.1,46.3 653.9,49.9 647.7,46.3 647.7,39 653.9,35.4 660.1,39 	"/>
	<polygon id="XMLID_20491_" fill="#0C0C0C" points="668.4,33 662.2,36.6 656,33 656,25.8 662.2,22.2 668.4,25.8 	"/>
	<polyline id="XMLID_20490_" fill="#0C0C0C" points="645.5,116.9 639.3,113.3 639.3,106.1 645.5,102.5 651.8,106.1 651.8,113.3 
		645.5,116.9 	"/>
	<polygon id="XMLID_20489_" fill="#0C0C0C" points="643.5,99.8 637.2,103.4 631,99.8 631,92.6 637.2,89 643.5,92.6 	"/>
	<polygon id="XMLID_20488_" fill="#0C0C0C" points="651.8,86.6 645.5,90.2 639.3,86.6 639.3,79.4 645.5,75.8 651.8,79.4 	"/>
	<polygon id="XMLID_20487_" fill="#0C0C0C" points="643.5,73 637.2,76.6 631,73 631,65.8 637.2,62.2 643.5,65.8 	"/>
	<polygon id="XMLID_20486_" fill="#0C0C0C" points="651.8,59.8 645.5,63.4 639.3,59.8 639.3,52.6 645.5,49 651.8,52.6 	"/>
	<polygon id="XMLID_20485_" fill="#0C0C0C" points="643.5,46.3 637.2,49.9 631,46.3 631,39 637.2,35.4 643.5,39 	"/>
	<polygon id="XMLID_20484_" fill="#0C0C0C" points="651.8,33 645.5,36.6 639.3,33 639.3,25.8 645.5,22.2 651.8,25.8 	"/>
	<polyline id="XMLID_20483_" fill="#0C0C0C" points="628.9,116.9 622.6,113.3 622.6,106.1 628.9,102.5 635.1,106.1 635.1,113.3 
		628.9,116.9 	"/>
	<polygon id="XMLID_20482_" fill="#0C0C0C" points="635.1,86.6 628.9,90.2 622.6,86.6 622.6,79.4 628.9,75.8 635.1,79.4 	"/>
	<polygon id="XMLID_20481_" fill="#0C0C0C" points="635.1,59.8 628.9,63.4 622.6,59.8 622.6,52.6 628.9,49 635.1,52.6 	"/>
	<polygon id="XMLID_20480_" fill="#0C0C0C" points="635.1,33 628.9,36.6 622.6,33 622.6,25.8 628.9,22.2 635.1,25.8 	"/>
	<polygon id="XMLID_20479_" fill="#0C0C0C" points="676.7,20 670.5,23.6 664.3,20 664.3,12.8 670.5,9.2 676.7,12.8 	"/>
	<polygon id="XMLID_20478_" fill="#0C0C0C" points="660.1,20 653.9,23.6 647.7,20 647.7,12.8 653.9,9.2 660.1,12.8 	"/>
	<polygon id="XMLID_20477_" fill="#0C0C0C" points="643.5,20 637.2,23.6 631,20 631,12.8 637.2,9.2 643.5,12.8 	"/>
	<polyline id="XMLID_20476_" fill="#0C0C0C" points="612.8,116.9 606.6,113.3 606.6,106.1 612.8,102.5 619.1,106.1 619.1,113.3 
		612.8,116.9 	"/>
	<polygon id="XMLID_20475_" fill="#0C0C0C" points="627.4,99.8 621.1,103.4 614.9,99.8 614.9,92.6 621.1,89 627.4,92.6 	"/>
	<polygon id="XMLID_20474_" fill="#0C0C0C" points="619.1,86.6 612.8,90.2 606.6,86.6 606.6,79.4 612.8,75.8 619.1,79.4 	"/>
	<polygon id="XMLID_20473_" fill="#0C0C0C" points="627.4,73 621.1,76.6 614.9,73 614.9,65.8 621.1,62.2 627.4,65.8 	"/>
	<polygon id="XMLID_20472_" fill="#0C0C0C" points="619.1,59.8 612.8,63.4 606.6,59.8 606.6,52.6 612.8,49 619.1,52.6 	"/>
	<polygon id="XMLID_20471_" fill="#0C0C0C" points="627.4,46.3 621.1,49.9 614.9,46.3 614.9,39 621.1,35.4 627.4,39 	"/>
	<polygon id="XMLID_20470_" fill="#0C0C0C" points="619.1,33 612.8,36.6 606.6,33 606.6,25.8 612.8,22.2 619.1,25.8 	"/>
	<polygon id="XMLID_20469_" fill="#0C0C0C" points="627.4,20 621.1,23.6 614.9,20 614.9,12.8 621.1,9.2 627.4,12.8 	"/>
	<polyline id="XMLID_20468_" fill="#0C0C0C" points="596.8,116.9 590.5,113.3 590.5,106.1 596.8,102.5 603,106.1 603,113.3 
		596.8,116.9 	"/>
	<polygon id="XMLID_20467_" fill="#0C0C0C" points="611.3,99.8 605.1,103.4 598.8,99.8 598.8,92.6 605.1,89 611.3,92.6 	"/>
	<polygon id="XMLID_20466_" fill="#0C0C0C" points="594.7,99.8 588.5,103.4 582.2,99.8 582.2,92.6 588.5,89 594.7,92.6 	"/>
	<polygon id="XMLID_20465_" fill="#0C0C0C" points="603,86.6 596.8,90.2 590.5,86.6 590.5,79.4 596.8,75.8 603,79.4 	"/>
	<polygon id="XMLID_20464_" fill="#0C0C0C" points="611.3,73 605.1,76.6 598.8,73 598.8,65.8 605.1,62.2 611.3,65.8 	"/>
	<polygon id="XMLID_20463_" fill="#0C0C0C" points="594.7,73 588.5,76.6 582.2,73 582.2,65.8 588.5,62.2 594.7,65.8 	"/>
	<polygon id="XMLID_20462_" fill="#0C0C0C" points="603,59.8 596.8,63.4 590.5,59.8 590.5,52.6 596.8,49 603,52.6 	"/>
	<polygon id="XMLID_20461_" fill="#0C0C0C" points="611.3,46.3 605.1,49.9 598.8,46.3 598.8,39 605.1,35.4 611.3,39 	"/>
	<polygon id="XMLID_20460_" fill="#0C0C0C" points="594.7,46.3 588.5,49.9 582.2,46.3 582.2,39 588.5,35.4 594.7,39 	"/>
	<polygon id="XMLID_20459_" fill="#0C0C0C" points="603,33 596.8,36.6 590.5,33 590.5,25.8 596.8,22.2 603,25.8 	"/>
	<polyline id="XMLID_20458_" fill="#0C0C0C" points="580.1,116.9 573.9,113.3 573.9,106.1 580.1,102.5 586.3,106.1 586.3,113.3 
		580.1,116.9 	"/>
	<polygon id="XMLID_20457_" fill="#0C0C0C" points="578,99.8 571.8,103.4 565.6,99.8 565.6,92.6 571.8,89 578,92.6 	"/>
	<polygon id="XMLID_20456_" fill="#0C0C0C" points="586.3,86.6 580.1,90.2 573.9,86.6 573.9,79.4 580.1,75.8 586.3,79.4 	"/>
	<polygon id="XMLID_20455_" fill="#0C0C0C" points="578,73 571.8,76.6 565.6,73 565.6,65.8 571.8,62.2 578,65.8 	"/>
	<polygon id="XMLID_20454_" fill="#0C0C0C" points="586.3,59.8 580.1,63.4 573.9,59.8 573.9,52.6 580.1,49 586.3,52.6 	"/>
	<polygon id="XMLID_20453_" fill="#0C0C0C" points="578,46.3 571.8,49.9 565.6,46.3 565.6,39 571.8,35.4 578,39 	"/>
	<polygon id="XMLID_20452_" fill="#0C0C0C" points="586.3,33 580.1,36.6 573.9,33 573.9,25.8 580.1,22.2 586.3,25.8 	"/>
	<polyline id="XMLID_20451_" fill="#0C0C0C" points="563.4,116.9 557.2,113.3 557.2,106.1 563.4,102.5 569.7,106.1 569.7,113.3 
		563.4,116.9 	"/>
	<polygon id="XMLID_20450_" fill="#0C0C0C" points="569.7,86.6 563.4,90.2 557.2,86.6 557.2,79.4 563.4,75.8 569.7,79.4 	"/>
	<polygon id="XMLID_20449_" fill="#0C0C0C" points="569.7,59.8 563.4,63.4 557.2,59.8 557.2,52.6 563.4,49 569.7,52.6 	"/>
	<polygon id="XMLID_20448_" fill="#0C0C0C" points="569.7,33 563.4,36.6 557.2,33 557.2,25.8 563.4,22.2 569.7,25.8 	"/>
	<polygon id="XMLID_20447_" fill="#0C0C0C" points="611.3,20 605.1,23.6 598.8,20 598.8,12.8 605.1,9.2 611.3,12.8 	"/>
	<polygon id="XMLID_20446_" fill="#0C0C0C" points="594.7,20 588.5,23.6 582.2,20 582.2,12.8 588.5,9.2 594.7,12.8 	"/>
	<polygon id="XMLID_20445_" fill="#0C0C0C" points="578,20 571.8,23.6 565.6,20 565.6,12.8 571.8,9.2 578,12.8 	"/>
	<polyline id="XMLID_20419_" fill="#0C0C0C" points="759.6,116.9 753.4,113.3 753.4,106.1 759.6,102.5 765.9,106.1 765.9,113.3 
		759.6,116.9 	"/>
	<polygon id="XMLID_20418_" fill="#0C0C0C" points="765.9,86.6 759.6,90.2 753.4,86.6 753.4,79.4 759.6,75.8 765.9,79.4 	"/>
	<polygon id="XMLID_20417_" fill="#0C0C0C" points="765.9,59.8 759.6,63.4 753.4,59.8 753.4,52.6 759.6,49 765.9,52.6 	"/>
	<polygon id="XMLID_20416_" fill="#0C0C0C" points="765.9,33 759.6,36.6 753.4,33 753.4,25.8 759.6,22.2 765.9,25.8 	"/>
	<polyline id="XMLID_20412_" fill="#0C0C0C" points="743.6,116.9 737.4,113.3 737.4,106.1 743.6,102.5 749.8,106.1 749.8,113.3 
		743.6,116.9 	"/>
	<polygon id="XMLID_20411_" fill="#0C0C0C" points="758.2,99.8 751.9,103.4 745.7,99.8 745.7,92.6 751.9,89 758.2,92.6 	"/>
	<polygon id="XMLID_20410_" fill="#0C0C0C" points="749.8,86.6 743.6,90.2 737.4,86.6 737.4,79.4 743.6,75.8 749.8,79.4 	"/>
	<polygon id="XMLID_20409_" fill="#0C0C0C" points="758.2,73 751.9,76.6 745.7,73 745.7,65.8 751.9,62.2 758.2,65.8 	"/>
	<polygon id="XMLID_20408_" fill="#0C0C0C" points="749.8,59.8 743.6,63.4 737.4,59.8 737.4,52.6 743.6,49 749.8,52.6 	"/>
	<polygon id="XMLID_20407_" fill="#0C0C0C" points="758.2,46.3 751.9,49.9 745.7,46.3 745.7,39 751.9,35.4 758.2,39 	"/>
	<polygon id="XMLID_20406_" fill="#0C0C0C" points="749.8,33 743.6,36.6 737.4,33 737.4,25.8 743.6,22.2 749.8,25.8 	"/>
	<polygon id="XMLID_20405_" fill="#0C0C0C" points="758.2,20 751.9,23.6 745.7,20 745.7,12.8 751.9,9.2 758.2,12.8 	"/>
	<polyline id="XMLID_20404_" fill="#0C0C0C" points="727.6,116.9 721.3,113.3 721.3,106.1 727.6,102.5 733.8,106.1 733.8,113.3 
		727.6,116.9 	"/>
	<polygon id="XMLID_20403_" fill="#0C0C0C" points="742.1,99.8 735.9,103.4 729.6,99.8 729.6,92.6 735.9,89 742.1,92.6 	"/>
	<polygon id="XMLID_20402_" fill="#0C0C0C" points="725.5,99.8 719.3,103.4 713,99.8 713,92.6 719.3,89 725.5,92.6 	"/>
	<polygon id="XMLID_20401_" fill="#0C0C0C" points="733.8,86.6 727.6,90.2 721.3,86.6 721.3,79.4 727.6,75.8 733.8,79.4 	"/>
	<polygon id="XMLID_20400_" fill="#0C0C0C" points="742.1,73 735.9,76.6 729.6,73 729.6,65.8 735.9,62.2 742.1,65.8 	"/>
	<polygon id="XMLID_20399_" fill="#0C0C0C" points="725.5,73 719.3,76.6 713,73 713,65.8 719.3,62.2 725.5,65.8 	"/>
	<polygon id="XMLID_20398_" fill="#0C0C0C" points="733.8,59.8 727.6,63.4 721.3,59.8 721.3,52.6 727.6,49 733.8,52.6 	"/>
	<polygon id="XMLID_20397_" fill="#0C0C0C" points="742.1,46.3 735.9,49.9 729.6,46.3 729.6,39 735.9,35.4 742.1,39 	"/>
	<polygon id="XMLID_20396_" fill="#0C0C0C" points="725.5,46.3 719.3,49.9 713,46.3 713,39 719.3,35.4 725.5,39 	"/>
	<polygon id="XMLID_20395_" fill="#0C0C0C" points="733.8,33 727.6,36.6 721.3,33 721.3,25.8 727.6,22.2 733.8,25.8 	"/>
	<polyline id="XMLID_20394_" fill="#0C0C0C" points="710.9,116.9 704.7,113.3 704.7,106.1 710.9,102.5 717.1,106.1 717.1,113.3 
		710.9,116.9 	"/>
	<polygon id="XMLID_20393_" fill="#0C0C0C" points="708.8,99.8 702.6,103.4 696.3,99.8 696.3,92.6 702.6,89 708.8,92.6 	"/>
	<polygon id="XMLID_20392_" fill="#0C0C0C" points="717.1,86.6 710.9,90.2 704.7,86.6 704.7,79.4 710.9,75.8 717.1,79.4 	"/>
	<polygon id="XMLID_20391_" fill="#0C0C0C" points="708.8,73 702.6,76.6 696.3,73 696.3,65.8 702.6,62.2 708.8,65.8 	"/>
	<polygon id="XMLID_20390_" fill="#0C0C0C" points="717.1,59.8 710.9,63.4 704.7,59.8 704.7,52.6 710.9,49 717.1,52.6 	"/>
	<polygon id="XMLID_20389_" fill="#0C0C0C" points="708.8,46.3 702.6,49.9 696.3,46.3 696.3,39 702.6,35.4 708.8,39 	"/>
	<polygon id="XMLID_20388_" fill="#0C0C0C" points="717.1,33 710.9,36.6 704.7,33 704.7,25.8 710.9,22.2 717.1,25.8 	"/>
	<polyline id="XMLID_20387_" fill="#0C0C0C" points="694.2,116.9 688,113.3 688,106.1 694.2,102.5 700.5,106.1 700.5,113.3 
		694.2,116.9 	"/>
	<polygon id="XMLID_20386_" fill="#0C0C0C" points="700.5,86.6 694.2,90.2 688,86.6 688,79.4 694.2,75.8 700.5,79.4 	"/>
	<polygon id="XMLID_20385_" fill="#0C0C0C" points="700.5,59.8 694.2,63.4 688,59.8 688,52.6 694.2,49 700.5,52.6 	"/>
	<polygon id="XMLID_20384_" fill="#0C0C0C" points="700.5,33 694.2,36.6 688,33 688,25.8 694.2,22.2 700.5,25.8 	"/>
	<polygon id="XMLID_20383_" fill="#0C0C0C" points="742.1,20 735.9,23.6 729.6,20 729.6,12.8 735.9,9.2 742.1,12.8 	"/>
	<polygon id="XMLID_20382_" fill="#0C0C0C" points="725.5,20 719.3,23.6 713,20 713,12.8 719.3,9.2 725.5,12.8 	"/>
	<polygon id="XMLID_20381_" fill="#0C0C0C" points="708.8,20 702.6,23.6 696.3,20 696.3,12.8 702.6,9.2 708.8,12.8 	"/>
</g>
<polyline id="XMLID_20629_" fill="#0C0C0C" points="1133.7,116.9 1127.5,113.3 1127.5,106.1 1133.7,102.5 1139.9,106.1 
	1139.9,113.3 1133.7,116.9 "/>
<polygon id="XMLID_20628_" fill="#0C0C0C" points="1148.3,99.8 1142,103.4 1135.8,99.8 1135.8,92.6 1142,89 1148.3,92.6 "/>
<polygon id="XMLID_20627_" fill="#0C0C0C" points="1139.9,86.6 1133.7,90.2 1127.5,86.6 1127.5,79.4 1133.7,75.8 1139.9,79.4 "/>
<polygon id="XMLID_20626_" fill="#0C0C0C" points="1148.3,73 1142,76.6 1135.8,73 1135.8,65.8 1142,62.2 1148.3,65.8 "/>
<polygon id="XMLID_20625_" fill="#0C0C0C" points="1139.9,59.8 1133.7,63.4 1127.5,59.8 1127.5,52.6 1133.7,49 1139.9,52.6 "/>
<polygon id="XMLID_20624_" fill="#0C0C0C" points="1148.3,46.3 1142,49.9 1135.8,46.3 1135.8,39 1142,35.4 1148.3,39 "/>
<polygon id="XMLID_20623_" fill="#0C0C0C" points="1139.9,33 1133.7,36.6 1127.5,33 1127.5,25.8 1133.7,22.2 1139.9,25.8 "/>
<polygon id="XMLID_20622_" fill="#0C0C0C" points="1148.3,20 1142,23.6 1135.8,20 1135.8,12.8 1142,9.2 1148.3,12.8 "/>
<polyline id="XMLID_20621_" fill="#0C0C0C" points="1117.7,116.9 1111.4,113.3 1111.4,106.1 1117.7,102.5 1123.9,106.1 
	1123.9,113.3 1117.7,116.9 "/>
<polygon id="XMLID_20620_" fill="#0C0C0C" points="1132.2,99.8 1126,103.4 1119.7,99.8 1119.7,92.6 1126,89 1132.2,92.6 "/>
<polygon id="XMLID_20619_" fill="#0C0C0C" points="1115.6,99.8 1109.4,103.4 1103.1,99.8 1103.1,92.6 1109.4,89 1115.6,92.6 "/>
<polygon id="XMLID_20618_" fill="#0C0C0C" points="1123.9,86.6 1117.7,90.2 1111.4,86.6 1111.4,79.4 1117.7,75.8 1123.9,79.4 "/>
<polygon id="XMLID_20617_" fill="#0C0C0C" points="1132.2,73 1126,76.6 1119.7,73 1119.7,65.8 1126,62.2 1132.2,65.8 "/>
<polygon id="XMLID_20616_" fill="#0C0C0C" points="1115.6,73 1109.4,76.6 1103.1,73 1103.1,65.8 1109.4,62.2 1115.6,65.8 "/>
<polygon id="XMLID_20615_" fill="#0C0C0C" points="1123.9,59.8 1117.7,63.4 1111.4,59.8 1111.4,52.6 1117.7,49 1123.9,52.6 "/>
<polygon id="XMLID_20614_" fill="#0C0C0C" points="1132.2,46.3 1126,49.9 1119.7,46.3 1119.7,39 1126,35.4 1132.2,39 "/>
<polygon id="XMLID_20613_" fill="#0C0C0C" points="1115.6,46.3 1109.4,49.9 1103.1,46.3 1103.1,39 1109.4,35.4 1115.6,39 "/>
<polygon id="XMLID_20612_" fill="#0C0C0C" points="1123.9,33 1117.7,36.6 1111.4,33 1111.4,25.8 1117.7,22.2 1123.9,25.8 "/>
<polyline id="XMLID_20611_" fill="#0C0C0C" points="1101,116.9 1094.7,113.3 1094.7,106.1 1101,102.5 1107.2,106.1 1107.2,113.3 
	1101,116.9 "/>
<polygon id="XMLID_20610_" fill="#0C0C0C" points="1098.9,99.8 1092.7,103.4 1086.4,99.8 1086.4,92.6 1092.7,89 1098.9,92.6 "/>
<polygon id="XMLID_20609_" fill="#0C0C0C" points="1107.2,86.6 1101,90.2 1094.7,86.6 1094.7,79.4 1101,75.8 1107.2,79.4 "/>
<polygon id="XMLID_20608_" fill="#0C0C0C" points="1098.9,73 1092.7,76.6 1086.4,73 1086.4,65.8 1092.7,62.2 1098.9,65.8 "/>
<polygon id="XMLID_20607_" fill="#0C0C0C" points="1107.2,59.8 1101,63.4 1094.7,59.8 1094.7,52.6 1101,49 1107.2,52.6 "/>
<polygon id="XMLID_20606_" fill="#0C0C0C" points="1098.9,46.3 1092.7,49.9 1086.4,46.3 1086.4,39 1092.7,35.4 1098.9,39 "/>
<polygon id="XMLID_20605_" fill="#0C0C0C" points="1107.2,33 1101,36.6 1094.7,33 1094.7,25.8 1101,22.2 1107.2,25.8 "/>
<polyline id="XMLID_20604_" fill="#0C0C0C" points="1084.3,116.9 1078.1,113.3 1078.1,106.1 1084.3,102.5 1090.6,106.1 
	1090.6,113.3 1084.3,116.9 "/>
<polygon id="XMLID_20603_" fill="#0C0C0C" points="1090.6,86.6 1084.3,90.2 1078.1,86.6 1078.1,79.4 1084.3,75.8 1090.6,79.4 "/>
<polygon id="XMLID_20602_" fill="#0C0C0C" points="1090.6,59.8 1084.3,63.4 1078.1,59.8 1078.1,52.6 1084.3,49 1090.6,52.6 "/>
<polygon id="XMLID_20601_" fill="#0C0C0C" points="1090.6,33 1084.3,36.6 1078.1,33 1078.1,25.8 1084.3,22.2 1090.6,25.8 "/>
<polygon id="XMLID_20600_" fill="#0C0C0C" points="1132.2,20 1126,23.6 1119.7,20 1119.7,12.8 1126,9.2 1132.2,12.8 "/>
<polygon id="XMLID_20599_" fill="#0C0C0C" points="1115.6,20 1109.4,23.6 1103.1,20 1103.1,12.8 1109.4,9.2 1115.6,12.8 "/>
<polygon id="XMLID_20598_" fill="#0C0C0C" points="1098.9,20 1092.7,23.6 1086.4,20 1086.4,12.8 1092.7,9.2 1098.9,12.8 "/>
<polyline id="XMLID_20597_" fill="#0C0C0C" points="1068.3,116.9 1062,113.3 1062,106.1 1068.3,102.5 1074.5,106.1 1074.5,113.3 
	1068.3,116.9 "/>
<polygon id="XMLID_20596_" fill="#0C0C0C" points="1082.8,99.8 1076.6,103.4 1070.4,99.8 1070.4,92.6 1076.6,89 1082.8,92.6 "/>
<polygon id="XMLID_20595_" fill="#0C0C0C" points="1074.5,86.6 1068.3,90.2 1062,86.6 1062,79.4 1068.3,75.8 1074.5,79.4 "/>
<polygon id="XMLID_20594_" fill="#0C0C0C" points="1082.8,73 1076.6,76.6 1070.4,73 1070.4,65.8 1076.6,62.2 1082.8,65.8 "/>
<polygon id="XMLID_20593_" fill="#0C0C0C" points="1074.5,59.8 1068.3,63.4 1062,59.8 1062,52.6 1068.3,49 1074.5,52.6 "/>
<polygon id="XMLID_20592_" fill="#0C0C0C" points="1082.8,46.3 1076.6,49.9 1070.4,46.3 1070.4,39 1076.6,35.4 1082.8,39 "/>
<polygon id="XMLID_20591_" fill="#0C0C0C" points="1074.5,33 1068.3,36.6 1062,33 1062,25.8 1068.3,22.2 1074.5,25.8 "/>
<polygon id="XMLID_20590_" fill="#0C0C0C" points="1082.8,20 1076.6,23.6 1070.4,20 1070.4,12.8 1076.6,9.2 1082.8,12.8 "/>
<polyline id="XMLID_20589_" fill="#0C0C0C" points="1052.2,116.9 1046,113.3 1046,106.1 1052.2,102.5 1058.5,106.1 1058.5,113.3 
	1052.2,116.9 "/>
<polygon id="XMLID_20588_" fill="#0C0C0C" points="1066.8,99.8 1060.5,103.4 1054.3,99.8 1054.3,92.6 1060.5,89 1066.8,92.6 "/>
<polygon id="XMLID_20587_" fill="#0C0C0C" points="1050.2,99.8 1043.9,103.4 1037.7,99.8 1037.7,92.6 1043.9,89 1050.2,92.6 "/>
<polygon id="XMLID_20586_" fill="#0C0C0C" points="1058.5,86.6 1052.2,90.2 1046,86.6 1046,79.4 1052.2,75.8 1058.5,79.4 "/>
<polygon id="XMLID_20585_" fill="#0C0C0C" points="1066.8,73 1060.5,76.6 1054.3,73 1054.3,65.8 1060.5,62.2 1066.8,65.8 "/>
<polygon id="XMLID_20584_" fill="#0C0C0C" points="1050.2,73 1043.9,76.6 1037.7,73 1037.7,65.8 1043.9,62.2 1050.2,65.8 "/>
<polygon id="XMLID_20583_" fill="#0C0C0C" points="1058.5,59.8 1052.2,63.4 1046,59.8 1046,52.6 1052.2,49 1058.5,52.6 "/>
<polygon id="XMLID_20582_" fill="#0C0C0C" points="1066.8,46.3 1060.5,49.9 1054.3,46.3 1054.3,39 1060.5,35.4 1066.8,39 "/>
<polygon id="XMLID_20581_" fill="#0C0C0C" points="1050.2,46.3 1043.9,49.9 1037.7,46.3 1037.7,39 1043.9,35.4 1050.2,39 "/>
<polygon id="XMLID_20580_" fill="#0C0C0C" points="1058.5,33 1052.2,36.6 1046,33 1046,25.8 1052.2,22.2 1058.5,25.8 "/>
<polyline id="XMLID_20579_" fill="#0C0C0C" points="1035.6,116.9 1029.3,113.3 1029.3,106.1 1035.6,102.5 1041.8,106.1 
	1041.8,113.3 1035.6,116.9 "/>
<polygon id="XMLID_20515_" fill="#0C0C0C" points="1033.5,99.8 1027.3,103.4 1021,99.8 1021,92.6 1027.3,89 1033.5,92.6 "/>
<polygon id="XMLID_20514_" fill="#0C0C0C" points="1041.8,86.6 1035.6,90.2 1029.3,86.6 1029.3,79.4 1035.6,75.8 1041.8,79.4 "/>
<polygon id="XMLID_20513_" fill="#0C0C0C" points="1033.5,73 1027.3,76.6 1021,73 1021,65.8 1027.3,62.2 1033.5,65.8 "/>
<polygon id="XMLID_20512_" fill="#0C0C0C" points="1041.8,59.8 1035.6,63.4 1029.3,59.8 1029.3,52.6 1035.6,49 1041.8,52.6 "/>
<polygon id="XMLID_20444_" fill="#0C0C0C" points="1033.5,46.3 1027.3,49.9 1021,46.3 1021,39 1027.3,35.4 1033.5,39 "/>
<polygon id="XMLID_20443_" fill="#0C0C0C" points="1041.8,33 1035.6,36.6 1029.3,33 1029.3,25.8 1035.6,22.2 1041.8,25.8 "/>
<polygon id="XMLID_20442_" fill="#0C0C0C" points="1066.8,20 1060.5,23.6 1054.3,20 1054.3,12.8 1060.5,9.2 1066.8,12.8 "/>
<polygon id="XMLID_20441_" fill="#0C0C0C" points="1050.2,20 1043.9,23.6 1037.7,20 1037.7,12.8 1043.9,9.2 1050.2,12.8 "/>
<polygon id="XMLID_20440_" fill="#0C0C0C" points="1033.5,20 1027.3,23.6 1021,20 1021,12.8 1027.3,9.2 1033.5,12.8 "/>
<polygon id="XMLID_20429_" fill="#0C0C0C" points="1246.4,99.8 1240.1,103.4 1233.9,99.8 1233.9,92.6 1240.1,89 1246.4,92.6 "/>
<polygon id="XMLID_20426_" fill="#0C0C0C" points="1246.4,73 1240.1,76.6 1233.9,73 1233.9,65.8 1240.1,62.2 1246.4,65.8 "/>
<polygon id="XMLID_20423_" fill="#0C0C0C" points="1246.4,46.3 1240.1,49.9 1233.9,46.3 1233.9,39 1240.1,35.4 1246.4,39 "/>
<polyline id="XMLID_20421_" fill="#0C0C0C" points="1231.8,116.9 1225.5,113.3 1225.5,106.1 1231.8,102.5 1238,106.1 1238,113.3 
	1231.8,116.9 "/>
<polygon id="XMLID_20420_" fill="#0C0C0C" points="1229.7,99.8 1223.5,103.4 1217.2,99.8 1217.2,92.6 1223.5,89 1229.7,92.6 "/>
<polygon id="XMLID_20415_" fill="#0C0C0C" points="1238,86.6 1231.8,90.2 1225.5,86.6 1225.5,79.4 1231.8,75.8 1238,79.4 "/>
<polygon id="XMLID_20414_" fill="#0C0C0C" points="1229.7,73 1223.5,76.6 1217.2,73 1217.2,65.8 1223.5,62.2 1229.7,65.8 "/>
<polygon id="XMLID_20413_" fill="#0C0C0C" points="1238,59.8 1231.8,63.4 1225.5,59.8 1225.5,52.6 1231.8,49 1238,52.6 "/>
<polygon id="XMLID_20380_" fill="#0C0C0C" points="1229.7,46.3 1223.5,49.9 1217.2,46.3 1217.2,39 1223.5,35.4 1229.7,39 "/>
<polygon id="XMLID_20379_" fill="#0C0C0C" points="1238,33 1231.8,36.6 1225.5,33 1225.5,25.8 1231.8,22.2 1238,25.8 "/>
<polyline id="XMLID_20378_" fill="#0C0C0C" points="1215.1,116.9 1208.9,113.3 1208.9,106.1 1215.1,102.5 1221.3,106.1 
	1221.3,113.3 1215.1,116.9 "/>
<polygon id="XMLID_20377_" fill="#0C0C0C" points="1221.3,86.6 1215.1,90.2 1208.9,86.6 1208.9,79.4 1215.1,75.8 1221.3,79.4 "/>
<polygon id="XMLID_20376_" fill="#0C0C0C" points="1221.3,59.8 1215.1,63.4 1208.9,59.8 1208.9,52.6 1215.1,49 1221.3,52.6 "/>
<polygon id="XMLID_20375_" fill="#0C0C0C" points="1221.3,33 1215.1,36.6 1208.9,33 1208.9,25.8 1215.1,22.2 1221.3,25.8 "/>
<polygon id="XMLID_20373_" fill="#0C0C0C" points="1246.4,20 1240.1,23.6 1233.9,20 1233.9,12.8 1240.1,9.2 1246.4,12.8 "/>
<polygon id="XMLID_20372_" fill="#0C0C0C" points="1229.7,20 1223.5,23.6 1217.2,20 1217.2,12.8 1223.5,9.2 1229.7,12.8 "/>
<polyline id="XMLID_20371_" fill="#0C0C0C" points="1199.1,116.9 1192.8,113.3 1192.8,106.1 1199.1,102.5 1205.3,106.1 
	1205.3,113.3 1199.1,116.9 "/>
<polygon id="XMLID_20370_" fill="#0C0C0C" points="1213.6,99.8 1207.4,103.4 1201.1,99.8 1201.1,92.6 1207.4,89 1213.6,92.6 "/>
<polygon id="XMLID_20369_" fill="#0C0C0C" points="1205.3,86.6 1199.1,90.2 1192.8,86.6 1192.8,79.4 1199.1,75.8 1205.3,79.4 "/>
<polygon id="XMLID_20368_" fill="#0C0C0C" points="1213.6,73 1207.4,76.6 1201.1,73 1201.1,65.8 1207.4,62.2 1213.6,65.8 "/>
<polygon id="XMLID_20367_" fill="#0C0C0C" points="1205.3,59.8 1199.1,63.4 1192.8,59.8 1192.8,52.6 1199.1,49 1205.3,52.6 "/>
<polygon id="XMLID_20366_" fill="#0C0C0C" points="1213.6,46.3 1207.4,49.9 1201.1,46.3 1201.1,39 1207.4,35.4 1213.6,39 "/>
<polygon id="XMLID_20365_" fill="#0C0C0C" points="1205.3,33 1199.1,36.6 1192.8,33 1192.8,25.8 1199.1,22.2 1205.3,25.8 "/>
<polygon id="XMLID_20364_" fill="#0C0C0C" points="1213.6,20 1207.4,23.6 1201.1,20 1201.1,12.8 1207.4,9.2 1213.6,12.8 "/>
<polyline id="XMLID_20363_" fill="#0C0C0C" points="1183,116.9 1176.8,113.3 1176.8,106.1 1183,102.5 1189.3,106.1 1189.3,113.3 
	1183,116.9 "/>
<polygon id="XMLID_20362_" fill="#0C0C0C" points="1197.6,99.8 1191.3,103.4 1185.1,99.8 1185.1,92.6 1191.3,89 1197.6,92.6 "/>
<polygon id="XMLID_20361_" fill="#0C0C0C" points="1181,99.8 1174.7,103.4 1168.5,99.8 1168.5,92.6 1174.7,89 1181,92.6 "/>
<polygon id="XMLID_20360_" fill="#0C0C0C" points="1189.3,86.6 1183,90.2 1176.8,86.6 1176.8,79.4 1183,75.8 1189.3,79.4 "/>
<polygon id="XMLID_20359_" fill="#0C0C0C" points="1197.6,73 1191.3,76.6 1185.1,73 1185.1,65.8 1191.3,62.2 1197.6,65.8 "/>
<polygon id="XMLID_20358_" fill="#0C0C0C" points="1181,73 1174.7,76.6 1168.5,73 1168.5,65.8 1174.7,62.2 1181,65.8 "/>
<polygon id="XMLID_20357_" fill="#0C0C0C" points="1189.3,59.8 1183,63.4 1176.8,59.8 1176.8,52.6 1183,49 1189.3,52.6 "/>
<polygon id="XMLID_20356_" fill="#0C0C0C" points="1197.6,46.3 1191.3,49.9 1185.1,46.3 1185.1,39 1191.3,35.4 1197.6,39 "/>
<polygon id="XMLID_20355_" fill="#0C0C0C" points="1181,46.3 1174.7,49.9 1168.5,46.3 1168.5,39 1174.7,35.4 1181,39 "/>
<polygon id="XMLID_20354_" fill="#0C0C0C" points="1189.3,33 1183,36.6 1176.8,33 1176.8,25.8 1183,22.2 1189.3,25.8 "/>
<polyline id="XMLID_20353_" fill="#0C0C0C" points="1166.3,116.9 1160.1,113.3 1160.1,106.1 1166.3,102.5 1172.6,106.1 
	1172.6,113.3 1166.3,116.9 "/>
<polygon id="XMLID_20352_" fill="#0C0C0C" points="1164.3,99.8 1158,103.4 1151.8,99.8 1151.8,92.6 1158,89 1164.3,92.6 "/>
<polygon id="XMLID_20351_" fill="#0C0C0C" points="1172.6,86.6 1166.3,90.2 1160.1,86.6 1160.1,79.4 1166.3,75.8 1172.6,79.4 "/>
<polygon id="XMLID_20350_" fill="#0C0C0C" points="1164.3,73 1158,76.6 1151.8,73 1151.8,65.8 1158,62.2 1164.3,65.8 "/>
<polygon id="XMLID_20349_" fill="#0C0C0C" points="1172.6,59.8 1166.3,63.4 1160.1,59.8 1160.1,52.6 1166.3,49 1172.6,52.6 "/>
<polygon id="XMLID_20348_" fill="#0C0C0C" points="1164.3,46.3 1158,49.9 1151.8,46.3 1151.8,39 1158,35.4 1164.3,39 "/>
<polygon id="XMLID_20347_" fill="#0C0C0C" points="1172.6,33 1166.3,36.6 1160.1,33 1160.1,25.8 1166.3,22.2 1172.6,25.8 "/>
<polyline id="XMLID_20346_" fill="#0C0C0C" points="1149.7,116.9 1143.4,113.3 1143.4,106.1 1149.7,102.5 1155.9,106.1 
	1155.9,113.3 1149.7,116.9 "/>
<polygon id="XMLID_20345_" fill="#0C0C0C" points="1155.9,86.6 1149.7,90.2 1143.4,86.6 1143.4,79.4 1149.7,75.8 1155.9,79.4 "/>
<polygon id="XMLID_20344_" fill="#0C0C0C" points="1155.9,59.8 1149.7,63.4 1143.4,59.8 1143.4,52.6 1149.7,49 1155.9,52.6 "/>
<polygon id="XMLID_20343_" fill="#0C0C0C" points="1155.9,33 1149.7,36.6 1143.4,33 1143.4,25.8 1149.7,22.2 1155.9,25.8 "/>
<polygon id="XMLID_20342_" fill="#0C0C0C" points="1197.6,20 1191.3,23.6 1185.1,20 1185.1,12.8 1191.3,9.2 1197.6,12.8 "/>
<polygon id="XMLID_20341_" fill="#0C0C0C" points="1181,20 1174.7,23.6 1168.5,20 1168.5,12.8 1174.7,9.2 1181,12.8 "/>
<polygon id="XMLID_20340_" fill="#0C0C0C" points="1164.3,20 1158,23.6 1151.8,20 1151.8,12.8 1158,9.2 1164.3,12.8 "/>
<g id="XMLID_20102_">
	<path id="XMLID_20149_" fill="#414244" d="M862.4,109.8h-27c-3.7,0-7-2.6-7.7-6.3l-1.8-9.1c-0.6-3.1,2-6,5.3-6h35.3
		c3.3,0,5.9,2.8,5.3,6l-1.8,9.1C869.4,107.2,866.1,109.8,862.4,109.8"/>
	<path id="XMLID_20148_" fill="none" stroke="#B9B9B9" stroke-miterlimit="10" d="M862.4,109.8h-27c-3.7,0-7-2.6-7.7-6.3l-1.8-9.1
		c-0.6-3.1,2-6,5.3-6h35.3c3.3,0,5.9,2.8,5.3,6l-1.8,9.1C869.4,107.2,866.1,109.8,862.4,109.8z"/>
	<path id="XMLID_20147_" d="M836.4,93.3c0,1.2-1,2.2-2.2,2.2c-1.2,0-2.2-1-2.2-2.2c0-1.2,1-2.2,2.2-2.2
		C835.4,91.1,836.4,92.1,836.4,93.3"/>
	<path id="XMLID_20146_" d="M843,93.3c0,1.2-1,2.2-2.2,2.2c-1.2,0-2.2-1-2.2-2.2c0-1.2,1-2.2,2.2-2.2C842,91.1,843,92.1,843,93.3"/>
	<path id="XMLID_20145_" d="M849.7,93.3c0,1.2-1,2.2-2.2,2.2c-1.2,0-2.2-1-2.2-2.2c0-1.2,1-2.2,2.2-2.2
		C848.7,91.1,849.7,92.1,849.7,93.3"/>
	<path id="XMLID_20144_" d="M856.4,93.3c0,1.2-1,2.2-2.2,2.2c-1.2,0-2.2-1-2.2-2.2c0-1.2,1-2.2,2.2-2.2
		C855.4,91.1,856.4,92.1,856.4,93.3"/>
	<path id="XMLID_20143_" d="M863,93.3c0,1.2-1,2.2-2.2,2.2c-1.2,0-2.2-1-2.2-2.2c0-1.2,1-2.2,2.2-2.2C862,91.1,863,92.1,863,93.3"/>
	<path id="XMLID_20142_" d="M839.9,99.1c0,1.2-1,2.2-2.2,2.2c-1.2,0-2.2-1-2.2-2.2c0-1.2,1-2.2,2.2-2.2
		C838.9,96.9,839.9,97.9,839.9,99.1"/>
	<path id="XMLID_20141_" d="M846.6,99.1c0,1.2-1,2.2-2.2,2.2c-1.2,0-2.2-1-2.2-2.2c0-1.2,1-2.2,2.2-2.2
		C845.6,96.9,846.6,97.9,846.6,99.1"/>
	<path id="XMLID_20140_" d="M853.3,99.1c0,1.2-1,2.2-2.2,2.2c-1.2,0-2.2-1-2.2-2.2c0-1.2,1-2.2,2.2-2.2
		C852.3,96.9,853.3,97.9,853.3,99.1"/>
	<path id="XMLID_20139_" d="M859.9,99.1c0,1.2-1,2.2-2.2,2.2c-1.2,0-2.2-1-2.2-2.2c0-1.2,1-2.2,2.2-2.2
		C858.9,96.9,859.9,97.9,859.9,99.1"/>
	<path id="XMLID_20138_" d="M866.6,99.1c0,1.2-1,2.2-2.2,2.2c-1.2,0-2.2-1-2.2-2.2c0-1.2,1-2.2,2.2-2.2
		C865.6,96.9,866.6,97.9,866.6,99.1"/>
	<path id="XMLID_20137_" d="M835.7,105c0,1.2-1,2.2-2.2,2.2c-1.2,0-2.2-1-2.2-2.2c0-1.2,1-2.2,2.2-2.2
		C834.7,102.8,835.7,103.8,835.7,105"/>
	<path id="XMLID_20136_" d="M842.4,105c0,1.2-1,2.2-2.2,2.2c-1.2,0-2.2-1-2.2-2.2c0-1.2,1-2.2,2.2-2.2
		C841.4,102.8,842.4,103.8,842.4,105"/>
	<path id="XMLID_20135_" d="M849,105c0,1.2-1,2.2-2.2,2.2c-1.2,0-2.2-1-2.2-2.2c0-1.2,1-2.2,2.2-2.2C848,102.8,849,103.8,849,105"/>
	<path id="XMLID_20134_" d="M855.7,105c0,1.2-1,2.2-2.2,2.2c-1.2,0-2.2-1-2.2-2.2c0-1.2,1-2.2,2.2-2.2
		C854.7,102.8,855.7,103.8,855.7,105"/>
	<path id="XMLID_20133_" d="M862.3,105c0,1.2-1,2.2-2.2,2.2c-1.2,0-2.2-1-2.2-2.2c0-1.2,1-2.2,2.2-2.2
		C861.3,102.8,862.3,103.8,862.3,105"/>
	<path id="XMLID_20132_" fill="#BDBDBD" d="M817.5,103.3c-0.5,0-0.9-0.3-1.2-0.7l-1.8-3.1c-0.2-0.4-0.2-0.9,0-1.3l1.8-3.1
		c0.2-0.4,0.7-0.7,1.2-0.7h3.6c0.5,0,0.9,0.3,1.1,0.7l1.8,3.1c0.2,0.4,0.2,0.9,0,1.3l-1.8,3.1c-0.2,0.4-0.7,0.7-1.1,0.7H817.5z"/>
	<path id="XMLID_20129_" fill="#8F8F8F" d="M821.1,94.8c0.3,0,0.7,0.2,0.8,0.5l1.8,3.1c0.2,0.3,0.2,0.7,0,1l-1.8,3.1
		c-0.2,0.3-0.5,0.5-0.8,0.5h-3.6c-0.3,0-0.7-0.2-0.8-0.5l-1.8-3.1c-0.2-0.3-0.2-0.7,0-1l1.8-3.1c0.2-0.3,0.5-0.5,0.8-0.5H821.1
		 M821.1,94h-3.6c-0.6,0-1.2,0.3-1.5,0.9l-1.8,3.1c-0.3,0.5-0.3,1.2,0,1.7l1.8,3.1c0.3,0.5,0.9,0.9,1.5,0.9h3.6
		c0.6,0,1.2-0.3,1.5-0.9l1.8-3.1c0.3-0.5,0.3-1.2,0-1.7l-1.8-3.1C822.3,94.3,821.7,94,821.1,94"/>
	<path id="XMLID_20128_" fill="#CECECE" d="M822.9,98.8c0,2-1.6,3.6-3.6,3.6c-2,0-3.6-1.6-3.6-3.6s1.6-3.6,3.6-3.6
		C821.3,95.2,822.9,96.8,822.9,98.8"/>
	
		<ellipse id="XMLID_20118_" fill="none" stroke="#8F8F8F" stroke-width="0.25" stroke-miterlimit="10" cx="819.3" cy="98.8" rx="3.6" ry="3.6"/>
	<path id="XMLID_20117_" fill="#414244" d="M821.6,98.8c0,1.2-1,2.2-2.2,2.2c-1.2,0-2.2-1-2.2-2.2c0-1.2,1-2.2,2.2-2.2
		C820.6,96.6,821.6,97.6,821.6,98.8"/>
	
		<ellipse id="XMLID_20116_" fill="none" stroke="#000000" stroke-width="0.25" stroke-miterlimit="10" cx="819.3" cy="98.8" rx="2.2" ry="2.2"/>
	<path id="XMLID_20115_" fill="#8F8F8F" d="M820,98.8c0,0.4-0.3,0.7-0.7,0.7c-0.4,0-0.7-0.3-0.7-0.7c0-0.4,0.3-0.7,0.7-0.7
		C819.7,98.1,820,98.5,820,98.8"/>
	<path id="XMLID_20114_" fill="#BDBDBD" d="M876.7,103.3c-0.5,0-0.9-0.3-1.2-0.7l-1.8-3.1c-0.2-0.4-0.2-0.9,0-1.3l1.8-3.1
		c0.2-0.4,0.7-0.7,1.2-0.7h3.6c0.5,0,0.9,0.3,1.1,0.7l1.8,3.1c0.2,0.4,0.2,0.9,0,1.3l-1.8,3.1c-0.2,0.4-0.7,0.7-1.1,0.7H876.7z"/>
	<path id="XMLID_20111_" fill="#8F8F8F" d="M880.3,94.8c0.3,0,0.7,0.2,0.8,0.5l1.8,3.1c0.2,0.3,0.2,0.7,0,1l-1.8,3.1
		c-0.2,0.3-0.5,0.5-0.8,0.5h-3.6c-0.3,0-0.7-0.2-0.8-0.5l-1.8-3.1c-0.2-0.3-0.2-0.7,0-1l1.8-3.1c0.2-0.3,0.5-0.5,0.8-0.5H880.3
		 M880.3,94h-3.6c-0.6,0-1.2,0.3-1.5,0.9l-1.8,3.1c-0.3,0.5-0.3,1.2,0,1.7l1.8,3.1c0.3,0.5,0.9,0.9,1.5,0.9h3.6
		c0.6,0,1.2-0.3,1.5-0.9l1.8-3.1c0.3-0.5,0.3-1.2,0-1.7l-1.8-3.1C881.5,94.3,880.9,94,880.3,94"/>
	<path id="XMLID_20110_" fill="#CECECE" d="M882.1,98.8c0,2-1.6,3.6-3.6,3.6c-2,0-3.6-1.6-3.6-3.6s1.6-3.6,3.6-3.6
		C880.5,95.2,882.1,96.8,882.1,98.8"/>
	
		<ellipse id="XMLID_20109_" fill="none" stroke="#8F8F8F" stroke-width="0.25" stroke-miterlimit="10" cx="878.5" cy="98.8" rx="3.6" ry="3.6"/>
	<path id="XMLID_20108_" fill="#414244" d="M880.8,98.8c0,1.2-1,2.2-2.2,2.2c-1.2,0-2.2-1-2.2-2.2c0-1.2,1-2.2,2.2-2.2
		C879.8,96.6,880.8,97.6,880.8,98.8"/>
	
		<ellipse id="XMLID_20107_" fill="none" stroke="#000000" stroke-width="0.25" stroke-miterlimit="10" cx="878.5" cy="98.8" rx="2.2" ry="2.2"/>
	<path id="XMLID_20106_" fill="#8F8F8F" d="M879.2,98.8c0,0.4-0.3,0.7-0.7,0.7c-0.4,0-0.7-0.3-0.7-0.7c0-0.4,0.3-0.7,0.7-0.7
		C878.9,98.1,879.2,98.5,879.2,98.8"/>
</g>
<g id="XMLID_20150_">
	<g id="XMLID_20168_">
		<defs>
			<rect id="SVGID_75_" x="911.1" y="42.3" width="29.5" height="59.8"/>
		</defs>
		<clipPath id="SVGID_1_">
			<use xlink:href="#SVGID_75_"  overflow="visible"/>
		</clipPath>
		
			<linearGradient id="XMLID_4_" gradientUnits="userSpaceOnUse" x1="4789.5669" y1="5941.8477" x2="4790.5664" y2="5941.8477" gradientTransform="matrix(0 -79.8244 -79.8244 0 475230.25 382437.1563)">
			<stop  offset="0" style="stop-color:#103580"/>
			<stop  offset="0.2581" style="stop-color:#0C1D4C"/>
			<stop  offset="1" style="stop-color:#000021"/>
		</linearGradient>
		<rect id="XMLID_20169_" x="911.1" y="42.3" clip-path="url(#SVGID_1_)" fill="url(#XMLID_4_)" width="29.5" height="59.8"/>
	</g>
	<g id="XMLID_20166_">
		<defs>
			<path id="SVGID_74_" d="M911,43.8v58.4c0,0.3,0.1,0.5,0.1,0.5h30.1c0-0.1,0.1-0.2,0.1-0.5V43.8c0-0.3-0.1-0.5-0.1-0.5l-30.1,0
				C911.1,43.3,911,43.5,911,43.8"/>
		</defs>
		<clipPath id="SVGID_2_">
			<use xlink:href="#SVGID_74_"  overflow="visible"/>
		</clipPath>
		
			<linearGradient id="XMLID_5_" gradientUnits="userSpaceOnUse" x1="4632.8315" y1="5787.7827" x2="4633.8315" y2="5787.7827" gradientTransform="matrix(0 58.6222 58.6222 0 -338366.375 -271542.875)">
			<stop  offset="0" style="stop-color:#2E2624"/>
			<stop  offset="1" style="stop-color:#342E2C"/>
		</linearGradient>
		<rect id="XMLID_20167_" x="911" y="43.3" clip-path="url(#SVGID_2_)" fill="url(#XMLID_5_)" width="30.3" height="59.4"/>
	</g>
	<path id="XMLID_20163_" d="M940.3,101.6H912V44.3h28.3V101.6z M941.2,42.3h-30.1c-0.6,0-1.1,0.7-1.1,1.5v58.4
		c0,0.8,0.5,1.5,1.1,1.5h30.1c0.6,0,1.1-0.7,1.1-1.5V43.8C942.3,42.9,941.8,42.3,941.2,42.3"/>
	<path id="XMLID_20158_" fill="#030303" d="M936.8,93.8c0,0.6-0.3,1-0.7,1h-19.9c-0.4,0-0.7-0.5-0.7-1V52.1c0-0.6,0.3-1,0.7-1h19.9
		c0.4,0,0.7,0.5,0.7,1V93.8z"/>
	<g id="XMLID_20156_">
		<defs>
			<path id="SVGID_73_" d="M917.5,53.9c-0.3,0-0.6,0.4-0.6,0.9V73h18.5V54.8c0-0.5-0.3-0.9-0.6-0.9H917.5z"/>
		</defs>
		<clipPath id="SVGID_3_">
			<use xlink:href="#SVGID_73_"  overflow="visible"/>
		</clipPath>
		
			<linearGradient id="XMLID_6_" gradientUnits="userSpaceOnUse" x1="4489.021" y1="5646.4224" x2="4490.021" y2="5646.4224" gradientTransform="matrix(0 22.6221 22.6221 0 -126807.7656 -101489.0781)">
			<stop  offset="0" style="stop-color:#261C19"/>
			<stop  offset="1" style="stop-color:#514E4E"/>
		</linearGradient>
		<rect id="XMLID_20157_" x="916.9" y="53.9" clip-path="url(#SVGID_3_)" fill="url(#XMLID_6_)" width="18.5" height="19"/>
	</g>
	<path id="XMLID_20155_" fill="#050505" d="M916.9,73v18.1c0,0.5,0.3,0.9,0.6,0.9h17.3c0.3,0,0.6-0.4,0.6-0.9V73H916.9z"/>
	<path id="XMLID_20154_" fill="#121212" d="M916.9,73v18.1c0,0.5,0.3,0.9,0.6,0.9h17.3c0.3,0,0.6-0.4,0.6-0.9V73H916.9z"/>
	<rect id="XMLID_20153_" x="916.9" y="73" fill="#030303" width="18.5" height="0.8"/>
	<rect id="XMLID_20152_" x="924.8" y="58.9" fill="#4D4D4D" width="2" height="9.1"/>
	
		<circle id="XMLID_20151_" fill="none" stroke="#4D4D4D" stroke-width="0.783" stroke-miterlimit="10" cx="926.2" cy="82.5" r="1.6"/>
</g>
<g id="XMLID_20170_">
	
		<linearGradient id="XMLID_8_" gradientUnits="userSpaceOnUse" x1="12519.7676" y1="1724.1068" x2="12533.2002" y2="1724.1068" gradientTransform="matrix(-1 0 0 -1 13320.3965 1800.7375)">
		<stop  offset="0" style="stop-color:#FFFFFF"/>
		<stop  offset="5.656110e-02" style="stop-color:#A3A3A4"/>
		<stop  offset="0.3372" style="stop-color:#919292"/>
		<stop  offset="0.3831" style="stop-color:#E0E0DF"/>
		<stop  offset="0.4519" style="stop-color:#C1C0C0"/>
		<stop  offset="0.9264" style="stop-color:#E0E0DF"/>
		<stop  offset="0.9745" style="stop-color:#C1C0C0"/>
	</linearGradient>
	<path id="XMLID_20178_" fill="url(#XMLID_8_)" d="M800.6,76.6c0-3.7-3-6.7-6.7-6.7c-3.7,0-6.7,3-6.7,6.7c0,3.7,3,6.7,6.7,6.7
		C797.6,83.3,800.6,80.3,800.6,76.6"/>
	
		<ellipse id="XMLID_20177_" fill="none" stroke="#121212" stroke-width="0.75" stroke-miterlimit="10" cx="793.9" cy="76.6" rx="6.7" ry="6.7"/>
	<polygon id="XMLID_20176_" fill="#040000" points="793.1,72.8 793.1,75.8 790.1,75.8 790.1,77.5 793.1,77.5 793.1,80.4 794.7,80.4 
		794.7,77.5 797.7,77.5 797.7,75.8 794.7,75.8 794.7,72.8 	"/>
	<path id="XMLID_20173_" fill="#221714" d="M793.2,80.3v-2.7v-0.3h-0.3h-2.7v-1.4h2.7h0.3v-0.3V73h1.4v2.7v0.3h0.3h2.7v1.4h-2.7
		h-0.3v0.3v2.7H793.2z M794.9,77.6h3v-1.9h-3v-3h-1.9v3h-3v1.9h3v3h1.9V77.6z"/>
	<rect id="XMLID_20172_" x="792.9" y="77.3" fill="#606062" width="0.3" height="3.2"/>
	<rect id="XMLID_20171_" x="790" y="77.3" fill="#606062" width="3.3" height="0.3"/>
</g>
<g id="XMLID_20305_">
	
		<linearGradient id="XMLID_9_" gradientUnits="userSpaceOnUse" x1="12900.7959" y1="1737.6669" x2="12914.2285" y2="1737.6669" gradientTransform="matrix(-1 0 0 -1 13320.3965 1800.7375)">
		<stop  offset="0" style="stop-color:#FFFFFF"/>
		<stop  offset="5.656110e-02" style="stop-color:#A3A3A4"/>
		<stop  offset="0.3372" style="stop-color:#919292"/>
		<stop  offset="0.3831" style="stop-color:#E0E0DF"/>
		<stop  offset="0.4519" style="stop-color:#C1C0C0"/>
		<stop  offset="0.9264" style="stop-color:#E0E0DF"/>
		<stop  offset="0.9745" style="stop-color:#C1C0C0"/>
	</linearGradient>
	<path id="XMLID_20313_" fill="url(#XMLID_9_)" d="M419.6,63.1c0-3.7-3-6.7-6.7-6.7c-3.7,0-6.7,3-6.7,6.7c0,3.7,3,6.7,6.7,6.7
		C416.6,69.7,419.6,66.8,419.6,63.1"/>
	
		<ellipse id="XMLID_20312_" fill="none" stroke="#121212" stroke-width="0.75" stroke-miterlimit="10" cx="412.9" cy="63.1" rx="6.7" ry="6.7"/>
	<polygon id="XMLID_20311_" fill="#040000" points="412.1,59.3 412.1,62.2 409.1,62.2 409.1,63.9 412.1,63.9 412.1,66.9 413.7,66.9 
		413.7,63.9 416.7,63.9 416.7,62.2 413.7,62.2 413.7,59.3 	"/>
	<path id="XMLID_20308_" fill="#221714" d="M412.2,66.7V64v-0.3h-0.3h-2.7v-1.4h2.7h0.3v-0.3v-2.7h1.4v2.7v0.3h0.3h2.7v1.4h-2.7
		h-0.3V64v2.7H412.2z M413.9,64h3v-1.9h-3v-3h-1.9v3h-3V64h3v3h1.9V64z"/>
	<rect id="XMLID_20307_" x="411.9" y="63.8" fill="#606062" width="0.3" height="3.2"/>
	<rect id="XMLID_20306_" x="408.9" y="63.8" fill="#606062" width="3.3" height="0.3"/>
</g>
<g id="XMLID_20180_">
	
		<linearGradient id="XMLID_10_" gradientUnits="userSpaceOnUse" x1="12501.752" y1="1758.4482" x2="12515.1846" y2="1758.4482" gradientTransform="matrix(-1 0 0 -1 13320.3965 1800.7375)">
		<stop  offset="0" style="stop-color:#FFFFFF"/>
		<stop  offset="5.656110e-02" style="stop-color:#A3A3A4"/>
		<stop  offset="0.3372" style="stop-color:#919292"/>
		<stop  offset="0.3831" style="stop-color:#E0E0DF"/>
		<stop  offset="0.4519" style="stop-color:#C1C0C0"/>
		<stop  offset="0.9264" style="stop-color:#E0E0DF"/>
		<stop  offset="0.9745" style="stop-color:#C1C0C0"/>
	</linearGradient>
	<path id="XMLID_20227_" fill="url(#XMLID_10_)" d="M818.6,42.3c0-3.7-3-6.7-6.7-6.7c-3.7,0-6.7,3-6.7,6.7c0,3.7,3,6.7,6.7,6.7
		C815.6,49,818.6,46,818.6,42.3"/>
	
		<ellipse id="XMLID_20226_" fill="none" stroke="#121212" stroke-width="0.75" stroke-miterlimit="10" cx="811.9" cy="42.3" rx="6.7" ry="6.7"/>
	<polygon id="XMLID_20220_" fill="#040000" points="811.1,38.5 811.1,41.5 808.1,41.5 808.1,43.1 811.1,43.1 811.1,46.1 812.8,46.1 
		812.8,43.1 815.7,43.1 815.7,41.5 812.8,41.5 812.8,38.5 	"/>
	<path id="XMLID_20196_" fill="#221714" d="M811.2,45.9v-2.7V43H811h-2.7v-1.4h2.7h0.3v-0.3v-2.7h1.4v2.7v0.3h0.3h2.7V43h-2.7h-0.3
		v0.3v2.7H811.2z M812.9,43.3h3v-1.9h-3v-3H811v3h-3v1.9h3v3h1.9V43.3z"/>
	<rect id="XMLID_20195_" x="811" y="43" fill="#606062" width="0.3" height="3.2"/>
	<rect id="XMLID_20194_" x="808" y="43" fill="#606062" width="3.3" height="0.3"/>
</g>
<rect id="XMLID_20179_" x="835.7" y="19.6" fill="#0C0C0C" width="42.1" height="19"/>
<rect id="XMLID_20228_" x="836.8" y="20.5" fill="#6C2432" width="39.9" height="17.3"/>
<text id="XMLID_20229_" transform="matrix(1 0 0 1 840.8704 48.985)" fill="#DDDDDD" font-family="'MicrosoftYaHei'" font-size="8px">BYPASS</text>
<text id="XMLID_20288_" transform="matrix(1 0 0 1 840.3617 82.9646)" fill="#DDDDDD" font-family="'MicrosoftYaHei'" font-size="8px">VGA</text>
<text id="XMLID_20289_" transform="matrix(1 0 0 1 911.2313 35.4469)" fill="#DDDDDD" font-family="'MicrosoftYaHei'" font-size="8px">POWER</text>
<g id="XMLID_20290_">
	<path id="XMLID_20302_" fill="#3D3A39" d="M960.2,106.9c-1.6,0-2.8-1.4-2.8-3.2V29c0-1.8,1.3-3.2,2.8-3.2h49.8
		c1.6,0,2.8,1.4,2.8,3.2v74.6c0,1.8-1.3,3.2-2.8,3.2H960.2z"/>
	<path id="XMLID_20301_" fill="none" stroke="#000000" stroke-width="2" stroke-miterlimit="10" d="M960.2,106.9
		c-1.6,0-2.8-1.4-2.8-3.2V29c0-1.8,1.3-3.2,2.8-3.2h49.8c1.6,0,2.8,1.4,2.8,3.2v74.6c0,1.8-1.3,3.2-2.8,3.2H960.2z"/>
	<polygon id="XMLID_20300_" fill="#221714" points="966.8,38.3 994.2,38.3 1003.4,49 1003.4,84 993.8,94.3 966.8,94.3 	"/>
	<rect id="XMLID_20299_" x="976.9" y="79.2" fill="#353741" width="10.4" height="3.5"/>
	<rect id="XMLID_20298_" x="976.9" y="79.2" fill="#8B8F99" width="8.6" height="1.8"/>
	<rect id="XMLID_20296_" x="983.3" y="63.8" fill="#353741" width="10.4" height="3.5"/>
	<rect id="XMLID_20293_" x="983.3" y="63.8" fill="#8B8F99" width="8.6" height="1.8"/>
	<rect id="XMLID_20292_" x="976.9" y="48.3" fill="#353741" width="10.4" height="3.5"/>
	<rect id="XMLID_20291_" x="976.9" y="48.3" fill="#8B8F99" width="8.6" height="1.8"/>
</g>
<path id="XMLID_20303_" fill="#0F0F0F" d="M387.1,102.9H280.8c-3.3,0-6-2.7-6-6V30c0-3.3,2.7-6,6-6h106.4c3.3,0,6,2.7,6,6v66.8
	C393.2,100.2,390.5,102.9,387.1,102.9z"/>
<path id="XMLID_20304_" fill="#0F0F0F" d="M220.1,102.9H53.7c-3.3,0-6-2.7-6-6V30c0-3.3,2.7-6,6-6h166.4c3.3,0,6,2.7,6,6v66.8
	C226.1,100.2,223.4,102.9,220.1,102.9z"/>
</svg>
