<?xml version="1.0" encoding="utf-8"?>
<!-- Generator: Adobe Illustrator 16.0.0, SVG Export Plug-In . SVG Version: 6.00 Build 0)  -->
<!DOCTYPE svg PUBLIC "-//W3C//DTD SVG 1.1//EN" "http://www.w3.org/Graphics/SVG/1.1/DTD/svg11.dtd">
<svg version="1.1" id="图层_1" xmlns="http://www.w3.org/2000/svg" xmlns:xlink="http://www.w3.org/1999/xlink" x="0px" y="0px"
	 width="1417.32px" height="252.28px" viewBox="0 0 1417.32 252.28" enable-background="new 0 0 1417.32 252.28"
	 xml:space="preserve">
<rect x="-0.001" y="-0.001" fill="#3B3C3F" stroke="#070404" stroke-width="3" stroke-miterlimit="10" width="1417.324" height="252.283"/>
<g>
	
		<rect x="176.954" y="182.85" fill="#3B3C3F" stroke="#070404" stroke-width="2" stroke-miterlimit="10" width="334.225" height="42.155"/>
	<g>
		<g>
			<path fill="#E3E3E3" d="M334.259,195.384h-7.584l-0.247,1.305h1.786h0.361h3.268c0,0,0.221,3.711-1.976,4.176h-2.178l0.372-3.349
				h-1.804l-0.561,4.45h4.281C335.028,201.155,334.259,195.384,334.259,195.384z"/>
			<path fill="#E3E3E3" d="M350.176,195.384h-7.583l-0.25,1.305h1.789h0.36h3.269c0,0,0.221,3.711-1.975,4.176h-2.178l0.371-3.349
				h-1.802l-0.563,4.45h4.281C350.945,201.155,350.176,195.384,350.176,195.384z"/>
			<polygon fill="#E3E3E3" points="336.013,195.419 336.958,202.003 338.219,202.003 342.499,195.419 340.428,195.419 
				338.67,198.436 337.769,198.485 337.183,195.419 			"/>
			<rect x="333.174" y="195.419" fill="#E3E3E3" width="3.025" height="1.303"/>
		</g>
		<path fill="#E3E3E3" d="M337.046,204.548c-6.813,0-12.334,0.813-12.334,1.814c0,1,5.521,1.811,12.334,1.811
			c6.812,0,12.334-0.811,12.334-1.811C349.38,205.36,343.857,204.548,337.046,204.548z M337.395,206.661
			c-1.281,0-2.322-0.226-2.322-0.506c0-0.281,1.041-0.51,2.322-0.51s2.32,0.229,2.32,0.51
			C339.715,206.436,338.676,206.661,337.395,206.661z"/>
		<path fill="#E3E3E3" d="M324.75,208.487v5.314h24.591v-5.314H324.75z M330.449,212.991h-0.234h-0.24v-2.871h-0.002l-1.017,2.871
			h-0.236h-0.237l-1.021-2.861l0,0v2.861h-0.237h-0.238V209.6h0.352h0.351l1.034,2.886l1.026-2.886h0.35h0.351V212.991z
			 M335.732,211.747c0,0.418-0.125,0.744-0.375,0.98c-0.251,0.236-0.599,0.354-1.045,0.354c-0.464,0-0.817-0.113-1.06-0.338
			c-0.243-0.228-0.363-0.561-0.363-0.996V209.6h0.243h0.246v2.112c0,0.314,0.08,0.556,0.24,0.72c0.157,0.163,0.39,0.245,0.695,0.245
			s0.536-0.082,0.694-0.245c0.159-0.164,0.239-0.405,0.239-0.72V209.6h0.242h0.246V211.747z M340.217,212.788v0.203h-2.32V209.6
			h0.243h0.245v2.985h1.832V212.788z M344.491,209.802v0.203h-1.222v2.986h-0.243h-0.247v-2.986h-1.222v-0.203V209.6h2.933V209.802z
			 M347.105,212.991h-0.243h-0.246V209.6h0.245h0.245V212.991z"/>
		<g>
			<path fill="#E3E3E3" d="M327.785,214.675h0.148h0.879c0.234,0,0.403,0.052,0.508,0.152c0.104,0.102,0.138,0.25,0.104,0.447
				c-0.034,0.193-0.124,0.344-0.27,0.453c-0.037,0.027-0.076,0.051-0.117,0.072l0.045,0.023c0.121,0.078,0.168,0.207,0.141,0.389
				l-0.06,0.404c-0.009,0.065-0.009,0.113,0,0.143c0.011,0.027,0.035,0.053,0.075,0.074l-0.008,0.049h-0.367
				c-0.005-0.02-0.005-0.066,0.001-0.143c0.003-0.076,0.014-0.16,0.025-0.254l0.024-0.174c0.021-0.137,0.004-0.234-0.049-0.293
				c-0.052-0.061-0.15-0.087-0.294-0.087h-0.708l-0.168,0.95h-0.149h-0.15L327.785,214.675z M327.907,215.671h0.74
				c0.138,0,0.244-0.028,0.319-0.09c0.074-0.061,0.124-0.156,0.146-0.287c0.022-0.129,0.005-0.221-0.051-0.281
				c-0.057-0.057-0.159-0.088-0.305-0.088h-0.717L327.907,215.671z"/>
			<path fill="#E3E3E3" d="M329.61,216.882l0.39-2.207h1.614l-0.023,0.132l-0.023,0.134h-1.315l-0.12,0.674h1.203l-0.023,0.131
				l-0.025,0.133h-1.2l-0.13,0.74h1.332l-0.023,0.133l-0.024,0.131H329.61z"/>
			<path fill="#E3E3E3" d="M333.637,216.071c-0.086,0.27-0.229,0.485-0.425,0.639c-0.199,0.156-0.429,0.232-0.69,0.232
				c-0.305,0-0.529-0.105-0.673-0.314c-0.144-0.209-0.184-0.492-0.121-0.848c0.062-0.355,0.207-0.638,0.431-0.849
				c0.225-0.212,0.495-0.317,0.812-0.317c0.25,0,0.444,0.064,0.58,0.192c0.139,0.129,0.203,0.306,0.196,0.53h-0.289
				c-0.003-0.146-0.049-0.26-0.143-0.34c-0.094-0.078-0.226-0.119-0.395-0.119c-0.221,0-0.412,0.082-0.572,0.244
				c-0.159,0.164-0.263,0.383-0.313,0.658c-0.052,0.291-0.029,0.516,0.066,0.668c0.095,0.153,0.256,0.23,0.488,0.23
				c0.171,0,0.323-0.053,0.455-0.158s0.233-0.258,0.304-0.449H333.637z"/>
			<path fill="#E3E3E3" d="M334.085,216.622c-0.162-0.213-0.212-0.494-0.151-0.842c0.062-0.349,0.211-0.631,0.448-0.844
				c0.235-0.215,0.514-0.322,0.834-0.322c0.322,0,0.564,0.107,0.724,0.322c0.161,0.213,0.209,0.495,0.148,0.844
				c-0.061,0.348-0.21,0.629-0.447,0.842c-0.235,0.215-0.513,0.32-0.836,0.32C334.485,216.942,334.245,216.837,334.085,216.622z
				 M335.453,216.432c0.17-0.166,0.278-0.382,0.327-0.651c0.047-0.27,0.015-0.486-0.098-0.652c-0.111-0.166-0.283-0.25-0.513-0.25
				c-0.229,0-0.429,0.084-0.598,0.25c-0.172,0.166-0.281,0.383-0.328,0.652c-0.047,0.27-0.016,0.485,0.097,0.651
				c0.112,0.163,0.282,0.247,0.512,0.247C335.081,216.679,335.283,216.595,335.453,216.432z"/>
			<path fill="#E3E3E3" d="M336.672,214.675h0.148h0.879c0.234,0,0.404,0.052,0.509,0.152c0.105,0.102,0.138,0.25,0.105,0.447
				c-0.035,0.193-0.125,0.344-0.272,0.453c-0.036,0.027-0.075,0.051-0.116,0.072l0.046,0.023c0.119,0.078,0.168,0.207,0.14,0.389
				l-0.06,0.404c-0.01,0.065-0.008,0.113,0,0.143c0.011,0.027,0.036,0.053,0.076,0.074l-0.01,0.049h-0.367
				c-0.005-0.02-0.005-0.066,0.002-0.143c0.004-0.076,0.012-0.16,0.026-0.254l0.023-0.174c0.021-0.137,0.004-0.234-0.048-0.293
				c-0.053-0.061-0.151-0.087-0.292-0.087h-0.71l-0.169,0.95h-0.148h-0.149L336.672,214.675z M336.795,215.671h0.739
				c0.139,0,0.244-0.028,0.319-0.09c0.075-0.061,0.124-0.156,0.146-0.287c0.023-0.129,0.006-0.221-0.052-0.281
				c-0.056-0.057-0.159-0.088-0.304-0.088h-0.716L336.795,215.671z"/>
			<path fill="#E3E3E3" d="M338.873,214.675h0.148h0.758c0.281,0,0.486,0.1,0.617,0.3c0.13,0.2,0.166,0.468,0.107,0.806
				c-0.06,0.336-0.192,0.604-0.398,0.803c-0.203,0.199-0.45,0.299-0.739,0.299h-0.735h-0.148L338.873,214.675z M338.827,216.628
				h0.547c0.214,0,0.393-0.074,0.535-0.223c0.144-0.146,0.238-0.355,0.286-0.625c0.048-0.271,0.029-0.48-0.058-0.629
				s-0.231-0.223-0.439-0.223h-0.57L338.827,216.628z"/>
			<path fill="#E3E3E3" d="M341.085,216.882l-0.19-2.207h0.16h0.164l0.085,1.746c0.001,0.027,0.003,0.057,0.003,0.082
				c-0.001,0.027-0.001,0.047-0.003,0.058l0,0c0.001-0.015,0.008-0.034,0.019-0.062c0.009-0.027,0.02-0.053,0.031-0.078l0.774-1.746
				h0.168h0.168l0.159,1.736c0.002,0.025,0.004,0.055,0.005,0.082c0,0.029,0,0.049-0.004,0.063c0.002-0.013,0.008-0.032,0.018-0.06
				c0.009-0.029,0.021-0.057,0.033-0.086l0.704-1.736h0.162h0.16l-0.968,2.207h-0.161h-0.161l-0.177-1.707
				c-0.003-0.029-0.005-0.059-0.007-0.086c-0.001-0.027,0-0.049,0.002-0.059h-0.001c-0.002,0.014-0.008,0.033-0.017,0.061
				c-0.012,0.029-0.022,0.057-0.036,0.084l-0.77,1.707h-0.16H341.085z"/>
			<path fill="#E3E3E3" d="M344.019,214.675h0.149h0.879c0.233,0,0.402,0.052,0.507,0.152c0.104,0.102,0.14,0.25,0.104,0.447
				c-0.034,0.193-0.124,0.344-0.27,0.453c-0.037,0.027-0.076,0.051-0.117,0.072l0.045,0.023c0.121,0.078,0.169,0.207,0.141,0.389
				l-0.059,0.404c-0.01,0.065-0.01,0.113,0,0.143c0.01,0.027,0.035,0.053,0.074,0.074l-0.007,0.049h-0.369
				c-0.004-0.02-0.004-0.066,0.002-0.143c0.005-0.076,0.014-0.16,0.025-0.254l0.025-0.174c0.02-0.137,0.004-0.234-0.05-0.293
				c-0.051-0.061-0.149-0.087-0.294-0.087h-0.708l-0.167,0.95h-0.149h-0.15L344.019,214.675z M344.142,215.671h0.74
				c0.139,0,0.246-0.028,0.319-0.09c0.076-0.061,0.124-0.156,0.146-0.287c0.024-0.129,0.006-0.221-0.051-0.281
				c-0.057-0.057-0.158-0.088-0.305-0.088h-0.718L344.142,215.671z"/>
		</g>
	</g>
	<g>
		<path fill="#E3E3E3" d="M212.455,196.827h-20.026c-0.69,0-1.25,0.559-1.25,1.252v11.994c0,0.689,0.56,1.252,1.25,1.252h20.026
			c0.691,0,1.25-0.563,1.25-1.252v-11.994C213.705,197.386,213.146,196.827,212.455,196.827z M200.568,203.71
			c0,0-0.261,0.859-1.069,1.133l0.886,3.012h-1.304l-0.938-3.012h-1.213c0,0-0.13,0.053-0.26,0.223v2.789h-1.253v-2.789
			c0,0,0.106-0.861,0.874-1.289h2.842c0,0,0.562-1.305,0-2.191h-3.585v-1.291h3.755c0,0,0.938,0.234,1.265,1.303V203.71z
			 M209.466,206.813c-0.333,0.859-0.978,0.918-0.978,0.918h-1.78c-0.685-0.175-0.86-0.859-0.86-0.859
			c-0.392,0.781-0.999,0.859-0.999,0.859h-1.798c-0.724-0.273-0.919-1.173-0.919-1.173v-6.181h0.861v6.102h2.288v-6.102h0.978v6.102
			h2.25v-6.102h0.958V206.813z"/>
		<g>
			<path fill="#E3E3E3" stroke="#E3E3E3" stroke-width="0.25" stroke-miterlimit="10" d="M189.488,213.22h0.178h0.913
				c0.337,0,0.606,0.102,0.805,0.303c0.201,0.204,0.299,0.475,0.299,0.816c0,0.34-0.103,0.611-0.306,0.811
				c-0.206,0.203-0.48,0.303-0.828,0.303h-0.884h-0.178V213.22z M189.848,215.194h0.657c0.257,0,0.457-0.074,0.598-0.223
				c0.14-0.148,0.21-0.361,0.21-0.633c0-0.275-0.066-0.486-0.203-0.637c-0.135-0.15-0.327-0.225-0.575-0.225h-0.687V215.194z"/>
			<path fill="#E3E3E3" stroke="#E3E3E3" stroke-width="0.25" stroke-miterlimit="10" d="M191.935,213.22h0.199h0.202l0.76,1.91
				h0.002l0.759-1.91h0.199h0.199l-0.967,2.232h-0.193h-0.192L191.935,213.22z"/>
			<path fill="#E3E3E3" stroke="#E3E3E3" stroke-width="0.25" stroke-miterlimit="10" d="M194.629,213.22h0.178h0.913
				c0.337,0,0.606,0.102,0.805,0.303c0.198,0.204,0.299,0.475,0.299,0.816c0,0.34-0.103,0.611-0.306,0.811
				c-0.204,0.203-0.48,0.303-0.826,0.303h-0.886h-0.178V213.22z M194.988,215.194h0.659c0.257,0,0.457-0.074,0.598-0.223
				c0.14-0.148,0.21-0.361,0.21-0.633c0-0.275-0.068-0.486-0.203-0.637c-0.135-0.15-0.326-0.225-0.574-0.225h-0.69V215.194z"/>
			<path fill="#E3E3E3" stroke="#E3E3E3" stroke-width="0.25" stroke-miterlimit="10" d="M197.948,214.784h-0.801v-0.228h0.801
				v-0.675h0.273v0.675h0.801v0.228h-0.801v0.672h-0.273V214.784z"/>
			<path fill="#E3E3E3" stroke="#E3E3E3" stroke-width="0.25" stroke-miterlimit="10" d="M199.49,213.22h0.179h1.057
				c0.282,0,0.497,0.051,0.644,0.154c0.146,0.104,0.22,0.254,0.22,0.453c0,0.195-0.077,0.348-0.229,0.457
				c-0.039,0.029-0.081,0.053-0.125,0.074l0.06,0.023c0.161,0.078,0.245,0.209,0.25,0.395l0.015,0.406
				c0.002,0.066,0.012,0.115,0.03,0.145s0.054,0.055,0.105,0.076v0.049h-0.442c-0.009-0.02-0.019-0.066-0.03-0.142
				c-0.009-0.079-0.016-0.165-0.021-0.259l-0.008-0.174c-0.005-0.141-0.046-0.24-0.121-0.299c-0.076-0.061-0.201-0.09-0.374-0.09
				h-0.852v0.963h-0.179h-0.18V213.22z M199.849,214.228h0.889c0.166,0,0.288-0.029,0.365-0.092
				c0.077-0.061,0.116-0.156,0.116-0.289c0-0.129-0.041-0.223-0.123-0.283c-0.081-0.061-0.209-0.089-0.385-0.089h-0.863V214.228z"/>
			<path fill="#E3E3E3" stroke="#E3E3E3" stroke-width="0.25" stroke-miterlimit="10" d="M202.865,215.497
				c-0.273,0-0.488-0.074-0.645-0.219c-0.157-0.145-0.234-0.347-0.234-0.605c0-0.271,0.083-0.49,0.247-0.65
				c0.166-0.164,0.389-0.244,0.669-0.244c0.251,0,0.458,0.08,0.611,0.239c0.156,0.155,0.234,0.364,0.234,0.623l-0.005,0.095h-1.412
				c0.014,0.162,0.058,0.287,0.132,0.371c0.091,0.104,0.236,0.154,0.434,0.154c0.124,0,0.232-0.029,0.325-0.088
				c0.091-0.059,0.149-0.133,0.169-0.225h0.32c-0.047,0.18-0.143,0.314-0.288,0.408C203.28,215.45,203.095,215.497,202.865,215.497z
				 M203.409,214.516c-0.01-0.149-0.055-0.269-0.134-0.353c-0.087-0.092-0.217-0.141-0.386-0.141c-0.173,0-0.308,0.055-0.411,0.163
				c-0.081,0.083-0.13,0.192-0.147,0.33H203.409z"/>
			<path fill="#E3E3E3" stroke="#E3E3E3" stroke-width="0.25" stroke-miterlimit="10" d="M204.65,215.452l-0.695-2.232h0.193h0.196
				l0.473,1.766c0.009,0.03,0.015,0.057,0.02,0.084c0.007,0.027,0.009,0.045,0.009,0.059h0c0-0.014,0.002-0.035,0.009-0.063
				s0.013-0.053,0.022-0.08l0.562-1.766h0.201h0.204l0.558,1.757c0.01,0.026,0.017,0.056,0.023,0.084
				c0.005,0.026,0.009,0.048,0.009,0.062l0,0c0-0.012,0.002-0.031,0.009-0.059c0.003-0.029,0.011-0.059,0.02-0.087l0.479-1.757
				h0.193h0.194l-0.696,2.232h-0.194h-0.193l-0.577-1.726c-0.009-0.03-0.017-0.06-0.025-0.086c-0.008-0.03-0.01-0.05-0.01-0.06h0
				c0,0.012-0.003,0.033-0.009,0.062c-0.005,0.026-0.014,0.056-0.023,0.084l-0.563,1.726h-0.194H204.65z"/>
			<path fill="#E3E3E3" stroke="#E3E3E3" stroke-width="0.25" stroke-miterlimit="10" d="M207.675,213.827h0.154h0.157v0.279
				c0.027-0.043,0.055-0.084,0.087-0.119c0.124-0.138,0.274-0.209,0.454-0.209c0.031,0,0.062,0.006,0.093,0.016v0.277h-0.068
				c-0.176,0-0.311,0.043-0.407,0.133c-0.096,0.088-0.144,0.215-0.144,0.379v0.869h-0.162h-0.163V213.827z"/>
			<path fill="#E3E3E3" stroke="#E3E3E3" stroke-width="0.25" stroke-miterlimit="10" d="M208.87,213.22h0.333v0.311h-0.333V213.22z
				 M208.873,213.827h0.162h0.163v1.625h-0.163h-0.162V213.827z"/>
			<path fill="#E3E3E3" stroke="#E3E3E3" stroke-width="0.25" stroke-miterlimit="10" d="M210.395,215.452
				c-0.112,0.014-0.191,0.022-0.242,0.022c-0.142,0-0.242-0.028-0.301-0.081c-0.058-0.053-0.087-0.143-0.087-0.271v-1.07h-0.268
				v-0.225h0.268v-0.455h0.326v0.455h0.305v0.225h-0.305v1.07c0,0.037,0.017,0.064,0.051,0.086c0.034,0.021,0.08,0.033,0.139,0.033
				h0.115V215.452z"/>
			<path fill="#E3E3E3" stroke="#E3E3E3" stroke-width="0.25" stroke-miterlimit="10" d="M211.222,215.497
				c-0.189,0-0.339-0.043-0.449-0.129c-0.111-0.084-0.167-0.199-0.167-0.344c0-0.146,0.053-0.262,0.157-0.348
				c0.103-0.086,0.257-0.141,0.457-0.161l0.443-0.046c0.035-0.004,0.069-0.01,0.102-0.016c0.042-0.01,0.075-0.027,0.098-0.057
				c0.022-0.025,0.035-0.061,0.035-0.102v-0.014c0-0.088-0.04-0.154-0.117-0.205c-0.079-0.049-0.188-0.074-0.329-0.074
				c-0.132,0-0.238,0.027-0.313,0.078c-0.076,0.053-0.121,0.131-0.136,0.234h-0.3c0.014-0.18,0.089-0.313,0.224-0.402
				c0.133-0.09,0.326-0.135,0.574-0.135c0.236,0,0.415,0.043,0.537,0.129c0.124,0.086,0.185,0.209,0.185,0.375v0.893
				c0,0.027,0.009,0.05,0.03,0.066c0.019,0.016,0.046,0.026,0.08,0.026c0.01,0,0.025-0.002,0.043-0.005
				c0.018-0.002,0.04-0.006,0.061-0.01v0.199c-0.031,0.01-0.064,0.018-0.099,0.024c-0.036,0.005-0.065,0.009-0.089,0.009
				c-0.123,0-0.212-0.029-0.268-0.086c-0.035-0.037-0.061-0.089-0.077-0.158c-0.024,0.024-0.053,0.049-0.083,0.072
				C211.656,215.437,211.457,215.497,211.222,215.497z M211.897,214.811v-0.177c-0.061,0.023-0.127,0.039-0.201,0.049l-0.298,0.037
				c-0.157,0.018-0.271,0.049-0.344,0.094c-0.072,0.041-0.109,0.1-0.109,0.172c0,0.092,0.028,0.162,0.089,0.211
				c0.06,0.051,0.144,0.074,0.25,0.074c0.172,0,0.316-0.039,0.436-0.117c0.079-0.054,0.133-0.115,0.159-0.186
				c0.005-0.012,0.009-0.032,0.011-0.063C211.895,214.878,211.897,214.845,211.897,214.811z"/>
			<path fill="#E3E3E3" stroke="#E3E3E3" stroke-width="0.25" stroke-miterlimit="10" d="M212.747,213.22h0.162h0.163v0.818
				c0.142-0.174,0.326-0.26,0.551-0.26c0.252,0,0.454,0.074,0.601,0.221c0.147,0.146,0.222,0.344,0.222,0.592
				c0,0.283-0.075,0.506-0.224,0.666c-0.15,0.16-0.355,0.24-0.619,0.24c-0.219,0-0.392-0.07-0.521-0.211l-0.03-0.033v0.199h-0.306
				V213.22z M213.586,215.261c0.169,0,0.298-0.055,0.386-0.161c0.089-0.11,0.133-0.267,0.133-0.472s-0.042-0.355-0.126-0.453
				s-0.215-0.146-0.391-0.146c-0.179,0-0.31,0.055-0.392,0.166c-0.082,0.109-0.124,0.285-0.124,0.523c0,0.175,0.043,0.307,0.133,0.4
				C213.294,215.212,213.422,215.261,213.586,215.261z"/>
			<path fill="#E3E3E3" stroke="#E3E3E3" stroke-width="0.25" stroke-miterlimit="10" d="M214.838,213.22H215h0.163v2.232H215
				h-0.162V213.22z"/>
			<path fill="#E3E3E3" stroke="#E3E3E3" stroke-width="0.25" stroke-miterlimit="10" d="M216.439,215.497
				c-0.272,0-0.488-0.074-0.644-0.219c-0.157-0.145-0.236-0.347-0.236-0.605c0-0.271,0.083-0.49,0.249-0.65
				c0.166-0.164,0.388-0.244,0.668-0.244c0.252,0,0.457,0.08,0.612,0.239c0.155,0.155,0.233,0.364,0.233,0.623l-0.003,0.095h-1.413
				c0.014,0.162,0.057,0.287,0.131,0.371c0.092,0.104,0.236,0.154,0.435,0.154c0.123,0,0.232-0.029,0.325-0.088
				c0.091-0.059,0.148-0.133,0.169-0.225h0.322c-0.048,0.18-0.145,0.314-0.29,0.408C216.855,215.45,216.669,215.497,216.439,215.497
				z M216.983,214.516c-0.01-0.149-0.055-0.269-0.134-0.353c-0.086-0.092-0.216-0.141-0.386-0.141c-0.172,0-0.308,0.055-0.41,0.163
				c-0.081,0.083-0.13,0.192-0.147,0.33H216.983z"/>
		</g>
	</g>
	<rect x="406.734" y="195.944" fill="#17191D" width="31.946" height="14"/>
	
		<rect x="406.734" y="195.944" fill="none" stroke="#1F2020" stroke-width="1.701" stroke-miterlimit="10" width="31.946" height="14"/>
	<path fill="#969696" d="M396.633,211.614h-7.369c-0.313,0-0.568-0.254-0.568-0.566v-4.535c0-0.313,0.255-0.566,0.568-0.566h7.369
		c0.312,0,0.568,0.254,0.568,0.566v4.535C397.201,211.36,396.945,211.614,396.633,211.614"/>
	<path fill="none" stroke="#B6B4B4" stroke-miterlimit="10" d="M396.633,211.614h-7.369c-0.313,0-0.568-0.254-0.568-0.566v-4.535
		c0-0.313,0.255-0.566,0.568-0.566h7.369c0.312,0,0.568,0.254,0.568,0.566v4.535C397.201,211.36,396.945,211.614,396.633,211.614z"
		/>
	<path fill="#3A3C3E" d="M457.699,209.526c0,0.963-0.782,1.746-1.746,1.746s-1.746-0.783-1.746-1.746
		c0-0.965,0.781-1.746,1.746-1.746S457.699,208.562,457.699,209.526"/>
	<circle fill="none" stroke="#1F2020" stroke-width="1.701" stroke-miterlimit="10" cx="455.953" cy="209.526" r="1.746"/>
</g>
<g>
	<path fill="#CBCBCB" d="M735.685,189.906l-2.838-1.697v1.266h-12.703h-1.131h-1.019l2.881-2.885
		c0.263-0.263,0.625-0.412,0.99-0.412h2.548c0.23,0.527,0.761,0.893,1.373,0.893c0.826,0,1.496-0.666,1.496-1.496
		c0-0.826-0.67-1.495-1.496-1.495c-0.735,0-1.344,0.526-1.473,1.224h-2.448c-0.596,0-1.18,0.242-1.607,0.67l-3.099,3.1
		c-0.256,0.258-0.604,0.402-0.966,0.402h-0.383h-1.007c-0.205-1.131-1.191-1.984-2.375-1.984c-1.34,0-2.425,1.08-2.425,2.416
		c0,1.341,1.085,2.421,2.425,2.421c1.184,0,2.17-0.854,2.375-1.981h1.007h0.383h2.819h1.131c0.365,0,0.707,0.141,0.96,0.395
		l2.973,2.973c0.428,0.428,0.996,0.664,1.599,0.664h2.147v1.135h2.838v-2.84h-2.838v0.83h-2.147c-0.37,0-0.72-0.143-0.982-0.41
		l-2.749-2.746h10.903v1.262L735.685,189.906z"/>
</g>
<g>
	<path fill="#CBCBCB" d="M735.685,220.578l-2.838-1.697v1.266h-12.703h-1.131h-1.019l2.881-2.885
		c0.263-0.264,0.625-0.412,0.99-0.412h2.548c0.23,0.527,0.76,0.893,1.373,0.893c0.825,0,1.495-0.666,1.495-1.496
		c0-0.826-0.67-1.496-1.495-1.496c-0.735,0-1.345,0.527-1.473,1.225h-2.448c-0.596,0-1.18,0.242-1.607,0.67l-3.099,3.1
		c-0.257,0.258-0.604,0.402-0.966,0.402h-0.383h-1.007c-0.205-1.131-1.191-1.984-2.375-1.984c-1.34,0-2.425,1.08-2.425,2.416
		c0,1.34,1.085,2.42,2.425,2.42c1.184,0,2.17-0.854,2.375-1.98h1.007h0.383h2.819h1.131c0.365,0,0.707,0.141,0.96,0.395l2.973,2.973
		c0.427,0.428,0.996,0.664,1.599,0.664h2.146v1.135h2.839v-2.84h-2.839v0.83h-2.146c-0.37,0-0.72-0.143-0.982-0.41l-2.749-2.746
		h10.903v1.262L735.685,220.578z"/>
</g>
<g>
	<path fill="#060001" d="M754.893,196.488c5.8,0,10.5,4.703,10.5,10.502s-4.7,10.5-10.5,10.5c-5.799,0-10.5-4.701-10.5-10.5
		S749.094,196.488,754.893,196.488"/>
	<g>
		<defs>
			<path id="SVGID_1_" d="M746.457,206.99c0,4.66,3.779,8.438,8.438,8.438c4.66,0,8.438-3.777,8.438-8.438
				c0-4.658-3.777-8.439-8.438-8.439C750.236,198.551,746.457,202.332,746.457,206.99"/>
		</defs>
		<clipPath id="SVGID_2_">
			<use xlink:href="#SVGID_1_"  overflow="visible"/>
		</clipPath>
		
			<radialGradient id="SVGID_3_" cx="-107.4443" cy="443.0811" r="1.5006" gradientTransform="matrix(8.2859 0 0 8.2859 1643.1055 -3467.3438)" gradientUnits="userSpaceOnUse">
			<stop  offset="0" style="stop-color:#636262"/>
			<stop  offset="1" style="stop-color:#040000"/>
		</radialGradient>
		<rect x="746.457" y="198.551" clip-path="url(#SVGID_2_)" fill="url(#SVGID_3_)" width="16.875" height="16.877"/>
	</g>
	<g opacity="0.5" enable-background="new    ">
		<g>
			<defs>
				<rect id="SVGID_4_" x="750.957" y="202.115" width="2.812" height="2.813"/>
			</defs>
			<clipPath id="SVGID_5_">
				<use xlink:href="#SVGID_4_"  overflow="visible"/>
			</clipPath>
			<rect x="750.957" y="202.115" clip-path="url(#SVGID_5_)" fill="#FFFFFF" width="2.812" height="2.813"/>
		</g>
	</g>
	<g opacity="0.5" enable-background="new    ">
		<g>
			<defs>
				<rect id="SVGID_6_" x="750.957" y="202.115" width="1.406" height="2.813"/>
			</defs>
			<clipPath id="SVGID_7_">
				<use xlink:href="#SVGID_6_"  overflow="visible"/>
			</clipPath>
			<rect x="750.957" y="202.115" clip-path="url(#SVGID_7_)" fill="#FFFFFF" width="1.406" height="2.813"/>
		</g>
	</g>
</g>
<g>
	<path fill="#060001" d="M798.085,200.646c3.871,0,7.01,3.139,7.01,7.01s-3.139,7.01-7.01,7.01c-3.872,0-7.01-3.139-7.01-7.01
		S794.213,200.646,798.085,200.646"/>
	<g>
		<defs>
			<path id="SVGID_8_" d="M792.453,207.656c0,3.111,2.522,5.633,5.633,5.633c3.111,0,5.633-2.521,5.633-5.633
				c0-3.109-2.521-5.633-5.633-5.633C794.976,202.023,792.453,204.547,792.453,207.656"/>
		</defs>
		<clipPath id="SVGID_9_">
			<use xlink:href="#SVGID_8_"  overflow="visible"/>
		</clipPath>
		
			<radialGradient id="SVGID_10_" cx="-102.1494" cy="443.2822" r="0.5305" gradientTransform="matrix(8.2859 0 0 8.2859 1643.1055 -3467.3438)" gradientUnits="userSpaceOnUse">
			<stop  offset="0" style="stop-color:#FFFFFF"/>
			<stop  offset="1" style="stop-color:#8DC21F"/>
		</radialGradient>
		<rect x="792.453" y="202.023" clip-path="url(#SVGID_9_)" fill="url(#SVGID_10_)" width="11.266" height="11.266"/>
	</g>
	<g opacity="0.5" enable-background="new    ">
		<g>
			<defs>
				<rect id="SVGID_11_" x="795.457" y="204.402" width="1.877" height="1.877"/>
			</defs>
			<clipPath id="SVGID_12_">
				<use xlink:href="#SVGID_11_"  overflow="visible"/>
			</clipPath>
			<rect x="795.457" y="204.402" clip-path="url(#SVGID_12_)" fill="#FFFFFF" width="1.877" height="1.877"/>
		</g>
	</g>
	<g opacity="0.5" enable-background="new    ">
		<g>
			<defs>
				<rect id="SVGID_13_" x="795.457" y="204.402" width="0.939" height="1.877"/>
			</defs>
			<clipPath id="SVGID_14_">
				<use xlink:href="#SVGID_13_"  overflow="visible"/>
			</clipPath>
			<rect x="795.457" y="204.402" clip-path="url(#SVGID_14_)" fill="#FFFFFF" width="0.939" height="1.877"/>
		</g>
	</g>
</g>
<g>
	<path fill="#060001" d="M779.973,200.646c3.872,0,7.01,3.139,7.01,7.01s-3.138,7.01-7.01,7.01c-3.871,0-7.01-3.139-7.01-7.01
		S776.102,200.646,779.973,200.646"/>
	<g>
		<defs>
			<path id="SVGID_15_" d="M774.341,207.656c0,3.111,2.523,5.633,5.633,5.633c3.111,0,5.633-2.521,5.633-5.633
				c0-3.109-2.521-5.633-5.633-5.633C776.864,202.023,774.341,204.547,774.341,207.656"/>
		</defs>
		<clipPath id="SVGID_16_">
			<use xlink:href="#SVGID_15_"  overflow="visible"/>
		</clipPath>
		
			<radialGradient id="SVGID_17_" cx="-104.335" cy="443.2822" r="0.5303" gradientTransform="matrix(8.2859 0 0 8.2859 1643.1055 -3467.3438)" gradientUnits="userSpaceOnUse">
			<stop  offset="0" style="stop-color:#FFFFFF"/>
			<stop  offset="1" style="stop-color:#8DC21F"/>
		</radialGradient>
		<rect x="774.341" y="202.023" clip-path="url(#SVGID_16_)" fill="url(#SVGID_17_)" width="11.266" height="11.266"/>
	</g>
	<g opacity="0.5" enable-background="new    ">
		<g>
			<defs>
				<rect id="SVGID_18_" x="777.346" y="204.402" width="1.876" height="1.877"/>
			</defs>
			<clipPath id="SVGID_19_">
				<use xlink:href="#SVGID_18_"  overflow="visible"/>
			</clipPath>
			<rect x="777.346" y="204.402" clip-path="url(#SVGID_19_)" fill="#FFFFFF" width="1.876" height="1.877"/>
		</g>
	</g>
	<g opacity="0.5" enable-background="new    ">
		<g>
			<defs>
				<rect id="SVGID_20_" x="777.346" y="204.402" width="0.938" height="1.877"/>
			</defs>
			<clipPath id="SVGID_21_">
				<use xlink:href="#SVGID_20_"  overflow="visible"/>
			</clipPath>
			<rect x="777.346" y="204.402" clip-path="url(#SVGID_21_)" fill="#FFFFFF" width="0.938" height="1.877"/>
		</g>
	</g>
</g>
<g>
	<path fill="#060001" d="M816.197,200.646c3.871,0,7.01,3.139,7.01,7.01s-3.139,7.01-7.01,7.01c-3.872,0-7.01-3.139-7.01-7.01
		S812.325,200.646,816.197,200.646"/>
	<g>
		<defs>
			<path id="SVGID_22_" d="M810.565,207.656c0,3.111,2.522,5.633,5.632,5.633c3.112,0,5.633-2.521,5.633-5.633
				c0-3.109-2.521-5.633-5.633-5.633C813.088,202.023,810.565,204.547,810.565,207.656"/>
		</defs>
		<clipPath id="SVGID_23_">
			<use xlink:href="#SVGID_22_"  overflow="visible"/>
		</clipPath>
		
			<radialGradient id="SVGID_24_" cx="-99.9629" cy="443.2822" r="1.0011" gradientTransform="matrix(8.2859 0 0 8.2859 1643.1055 -3467.3438)" gradientUnits="userSpaceOnUse">
			<stop  offset="0" style="stop-color:#636262"/>
			<stop  offset="1" style="stop-color:#040000"/>
		</radialGradient>
		<rect x="810.565" y="202.023" clip-path="url(#SVGID_23_)" fill="url(#SVGID_24_)" width="11.265" height="11.266"/>
	</g>
	<g opacity="0.5" enable-background="new    ">
		<g>
			<defs>
				<rect id="SVGID_25_" x="813.569" y="204.402" width="1.876" height="1.877"/>
			</defs>
			<clipPath id="SVGID_26_">
				<use xlink:href="#SVGID_25_"  overflow="visible"/>
			</clipPath>
			<rect x="813.569" y="204.402" clip-path="url(#SVGID_26_)" fill="#FFFFFF" width="1.876" height="1.877"/>
		</g>
	</g>
	<g opacity="0.5" enable-background="new    ">
		<g>
			<defs>
				<rect id="SVGID_27_" x="813.569" y="204.402" width="0.938" height="1.877"/>
			</defs>
			<clipPath id="SVGID_28_">
				<use xlink:href="#SVGID_27_"  overflow="visible"/>
			</clipPath>
			<rect x="813.569" y="204.402" clip-path="url(#SVGID_28_)" fill="#FFFFFF" width="0.938" height="1.877"/>
		</g>
	</g>
</g>
<g>
	<path fill="#060001" d="M834.31,200.646c3.87,0,7.009,3.139,7.009,7.01s-3.139,7.01-7.009,7.01c-3.872,0-7.01-3.139-7.01-7.01
		S830.438,200.646,834.31,200.646"/>
	<g>
		<defs>
			<path id="SVGID_29_" d="M828.678,207.656c0,3.111,2.522,5.633,5.632,5.633c3.111,0,5.633-2.521,5.633-5.633
				c0-3.109-2.521-5.633-5.633-5.633C831.2,202.023,828.678,204.547,828.678,207.656"/>
		</defs>
		<clipPath id="SVGID_30_">
			<use xlink:href="#SVGID_29_"  overflow="visible"/>
		</clipPath>
		
			<radialGradient id="SVGID_31_" cx="-97.7773" cy="443.2822" r="1.0011" gradientTransform="matrix(8.2859 0 0 8.2859 1643.1055 -3467.3438)" gradientUnits="userSpaceOnUse">
			<stop  offset="0" style="stop-color:#636262"/>
			<stop  offset="1" style="stop-color:#040000"/>
		</radialGradient>
		<rect x="828.678" y="202.023" clip-path="url(#SVGID_30_)" fill="url(#SVGID_31_)" width="11.265" height="11.266"/>
	</g>
	<g opacity="0.5" enable-background="new    ">
		<g>
			<defs>
				<rect id="SVGID_32_" x="831.681" y="204.402" width="1.877" height="1.877"/>
			</defs>
			<clipPath id="SVGID_33_">
				<use xlink:href="#SVGID_32_"  overflow="visible"/>
			</clipPath>
			<rect x="831.681" y="204.402" clip-path="url(#SVGID_33_)" fill="#FFFFFF" width="1.877" height="1.877"/>
		</g>
	</g>
	<g opacity="0.5" enable-background="new    ">
		<g>
			<defs>
				<rect id="SVGID_34_" x="831.681" y="204.402" width="0.939" height="1.877"/>
			</defs>
			<clipPath id="SVGID_35_">
				<use xlink:href="#SVGID_34_"  overflow="visible"/>
			</clipPath>
			<rect x="831.681" y="204.402" clip-path="url(#SVGID_35_)" fill="#FFFFFF" width="0.939" height="1.877"/>
		</g>
	</g>
</g>
<g>
	<circle fill="#A4A4A4" cx="861.716" cy="205.928" r="17"/>
</g>
<g>
	<circle fill="#100F0D" cx="861.922" cy="204.928" r="17"/>
	<g>
		<radialGradient id="SVGID_36_" cx="861.9229" cy="204.9277" r="13.6343" gradientUnits="userSpaceOnUse">
			<stop  offset="0" style="stop-color:#FFFFFF"/>
			<stop  offset="1" style="stop-color:#1EAA39"/>
		</radialGradient>
		<circle fill="url(#SVGID_36_)" cx="861.923" cy="204.928" r="13.634"/>
		<radialGradient id="SVGID_37_" cx="861.9229" cy="198.5518" r="7.6672" gradientUnits="userSpaceOnUse">
			<stop  offset="0" style="stop-color:#FFFFFF"/>
			<stop  offset="1" style="stop-color:#1EAA39"/>
		</radialGradient>
		<path fill="url(#SVGID_37_)" stroke="#2B392B" stroke-miterlimit="10" d="M865.59,205.09c0,2.025-1.642,3.666-3.668,3.666l0,0
			c-2.024,0-3.666-1.641-3.666-3.666v-13.076c0-2.025,1.642-3.666,3.666-3.666l0,0c2.026,0,3.668,1.641,3.668,3.666V205.09z"/>
	</g>
</g>
<rect x="921.292" y="11.681" fill="#100F0D" width="409.725" height="226.476"/>
<rect x="988.069" y="196.459" fill="#818181" width="38.199" height="38.578"/>
<g>
	<path fill="#040000" d="M994.063,218.494h26.213c0.654,0,1.186,0.496,1.186,1.113v7.559c0,0.615-0.531,1.113-1.186,1.113h-26.213
		c-0.657,0-1.188-0.498-1.188-1.113v-7.559C992.875,218.99,993.405,218.494,994.063,218.494"/>
	<path fill="none" stroke="#B9B9B9" stroke-miterlimit="10" d="M994.063,218.494h26.213c0.654,0,1.186,0.496,1.186,1.113v7.559
		c0,0.615-0.531,1.113-1.186,1.113h-26.213c-0.657,0-1.188-0.498-1.188-1.113v-7.559
		C992.875,218.99,993.405,218.494,994.063,218.494z"/>
	<path fill="#666666" d="M994.454,223.387h25.374c0.202,0,0.365,0.152,0.365,0.342v3.395c0,0.188-0.163,0.344-0.365,0.344h-25.374
		c-0.203,0-0.365-0.156-0.365-0.344v-3.395C994.089,223.539,994.251,223.387,994.454,223.387"/>
	<g>
		<path fill="none" stroke="#B9B9B9" stroke-miterlimit="10" d="M993.874,218.494h26.589c0.551,0,0.998,0.42,0.998,0.936v7.91
			c0,0.52-0.447,0.939-0.998,0.939h-26.589c-0.552,0-0.999-0.42-0.999-0.939v-7.91C992.875,218.914,993.322,218.494,993.874,218.494
			z"/>
	</g>
</g>
<g>
	<path fill="#040000" d="M994.063,201.641h26.213c0.654,0,1.186,0.496,1.186,1.113v7.559c0,0.615-0.531,1.113-1.186,1.113h-26.213
		c-0.657,0-1.188-0.498-1.188-1.113v-7.559C992.875,202.137,993.405,201.641,994.063,201.641"/>
	<path fill="none" stroke="#B9B9B9" stroke-miterlimit="10" d="M994.063,201.641h26.213c0.654,0,1.186,0.496,1.186,1.113v7.559
		c0,0.615-0.531,1.113-1.186,1.113h-26.213c-0.657,0-1.188-0.498-1.188-1.113v-7.559
		C992.875,202.137,993.405,201.641,994.063,201.641z"/>
	<path fill="#666666" d="M994.454,206.535h25.374c0.202,0,0.365,0.152,0.365,0.34v3.395c0,0.188-0.163,0.344-0.365,0.344h-25.374
		c-0.203,0-0.365-0.156-0.365-0.344v-3.395C994.089,206.688,994.251,206.535,994.454,206.535"/>
	<g>
		<path fill="none" stroke="#B9B9B9" stroke-miterlimit="10" d="M993.874,201.641h26.589c0.551,0,0.998,0.42,0.998,0.938v7.908
			c0,0.52-0.447,0.939-0.998,0.939h-26.589c-0.552,0-0.999-0.42-0.999-0.939v-7.908
			C992.875,202.061,993.322,201.641,993.874,201.641z"/>
	</g>
</g>
<path fill="#090909" d="M926.774,18.519c0-2.001,1.799-3.621,4.019-3.621h394.073c2.219,0,4.02,1.62,4.02,3.621v212.899
	c0,2-1.801,3.623-4.02,3.623H930.793c-2.22,0-4.019-1.623-4.019-3.623V18.519z"/>
<linearGradient id="SVGID_38_" gradientUnits="userSpaceOnUse" x1="-8353.4863" y1="6059.543" x2="-8353.4863" y2="6254.105" gradientTransform="matrix(-1 0 0 -1 -7050.022 6270.5449)">
	<stop  offset="0" style="stop-color:#222427"/>
	<stop  offset="0.1584" style="stop-color:#2B2D2F"/>
	<stop  offset="0.4153" style="stop-color:#424546"/>
	<stop  offset="0.4785" style="stop-color:#494C4D"/>
	<stop  offset="0.9301" style="stop-color:#434648"/>
	<stop  offset="0.957" style="stop-color:#4C4E51"/>
	<stop  offset="0.9631" style="stop-color:#3E4042"/>
	<stop  offset="0.9731" style="stop-color:#2A2C2D"/>
	<stop  offset="0.9741" style="stop-color:#282A2B"/>
	<stop  offset="0.9907" style="stop-color:#0E0C0C"/>
	<stop  offset="1" style="stop-color:#040000"/>
</linearGradient>
<rect x="1280.74" y="14.897" fill="url(#SVGID_38_)" width="45.448" height="196.104"/>
<radialGradient id="SVGID_39_" cx="-7769.1162" cy="6704.0156" r="34.4264" gradientTransform="matrix(-1.0901 0 0 -0.8961 -7165.6929 6124.8403)" gradientUnits="userSpaceOnUse">
	<stop  offset="0" style="stop-color:#A1A0A0"/>
	<stop  offset="1" style="stop-color:#262727"/>
</radialGradient>
<rect x="1286.251" y="76.09" fill="url(#SVGID_39_)" stroke="#1E1F1F" stroke-miterlimit="10" width="34.338" height="82.563"/>
<rect x="1280.74" y="208.814" fill="#3B3C3F" width="45.448" height="19.465"/>
<rect x="1286.251" y="163.186" fill="#1B1C1C" width="34.338" height="42.068"/>
<polygon fill="#0C0C0C" points="1305.908,158.652 1308.576,154.852 1305.908,151.055 1300.573,151.055 1297.904,154.852 
	1300.573,158.652 "/>
<polygon fill="#0C0C0C" points="1305.908,149.045 1308.576,145.246 1305.908,141.445 1300.573,141.445 1297.904,145.246 
	1300.573,149.045 "/>
<polygon fill="#0C0C0C" points="1305.908,139.982 1308.576,136.184 1305.908,132.385 1300.573,132.385 1297.904,136.184 
	1300.573,139.982 "/>
<polygon fill="#0C0C0C" points="1305.908,130.377 1308.576,126.578 1305.908,122.779 1300.573,122.779 1297.904,126.578 
	1300.573,130.377 "/>
<polygon fill="#0C0C0C" points="1305.908,121.301 1308.576,117.502 1305.908,113.703 1300.573,113.703 1297.904,117.502 
	1300.573,121.301 "/>
<polygon fill="#0C0C0C" points="1305.908,111.695 1308.576,107.896 1305.908,104.098 1300.573,104.098 1297.904,107.896 
	1300.573,111.695 "/>
<polygon fill="#0C0C0C" points="1305.908,102.633 1308.576,98.834 1305.908,95.035 1300.573,95.035 1297.904,98.834 
	1300.573,102.633 "/>
<polygon fill="#0C0C0C" points="1305.908,93.029 1308.576,89.227 1305.908,85.428 1300.573,85.428 1297.904,89.227 1300.573,93.029 
	"/>
<polygon fill="#0C0C0C" points="1305.908,83.746 1308.576,79.947 1305.908,76.148 1300.573,76.148 1297.904,79.947 1300.573,83.746 
	"/>
<polygon fill="#0C0C0C" points="1316.213,154.084 1318.88,150.283 1316.213,146.486 1310.877,146.486 1308.208,150.283 
	1310.877,154.084 "/>
<polygon fill="#0C0C0C" points="1316.213,144.477 1318.88,140.676 1316.213,136.879 1310.877,136.879 1308.208,140.676 
	1310.877,144.477 "/>
<polygon fill="#0C0C0C" points="1316.213,135.414 1318.88,131.615 1316.213,127.816 1310.877,127.816 1308.208,131.615 
	1310.877,135.414 "/>
<polygon fill="#0C0C0C" points="1316.213,125.807 1318.88,122.01 1316.213,118.209 1310.877,118.209 1308.208,122.01 
	1310.877,125.807 "/>
<polygon fill="#0C0C0C" points="1316.213,116.73 1318.88,112.934 1316.213,109.133 1310.877,109.133 1308.208,112.934 
	1310.877,116.73 "/>
<polygon fill="#0C0C0C" points="1316.213,107.127 1318.88,103.326 1316.213,99.527 1310.877,99.527 1308.208,103.326 
	1310.877,107.127 "/>
<polygon fill="#0C0C0C" points="1316.213,98.064 1318.88,94.266 1316.213,90.467 1310.877,90.467 1308.208,94.266 1310.877,98.064 
	"/>
<polygon fill="#0C0C0C" points="1316.213,88.459 1318.88,84.66 1316.213,80.859 1310.877,80.859 1308.208,84.66 1310.877,88.459 "/>
<polygon fill="#0C0C0C" points="1296.054,154.084 1298.722,150.283 1296.054,146.486 1290.718,146.486 1288.048,150.283 
	1290.718,154.084 "/>
<polygon fill="#0C0C0C" points="1296.054,144.477 1298.722,140.676 1296.054,136.879 1290.718,136.879 1288.048,140.676 
	1290.718,144.477 "/>
<polygon fill="#0C0C0C" points="1296.054,135.414 1298.722,131.615 1296.054,127.816 1290.718,127.816 1288.048,131.615 
	1290.718,135.414 "/>
<polygon fill="#0C0C0C" points="1296.054,125.807 1298.722,122.01 1296.054,118.209 1290.718,118.209 1288.048,122.01 
	1290.718,125.807 "/>
<polygon fill="#0C0C0C" points="1296.054,116.73 1298.722,112.934 1296.054,109.133 1290.718,109.133 1288.048,112.934 
	1290.718,116.73 "/>
<polygon fill="#0C0C0C" points="1296.054,107.127 1298.722,103.326 1296.054,99.527 1290.718,99.527 1288.048,103.326 
	1290.718,107.127 "/>
<polygon fill="#0C0C0C" points="1296.054,98.064 1298.722,94.266 1296.054,90.467 1290.718,90.467 1288.048,94.266 1290.718,98.064 
	"/>
<polygon fill="#0C0C0C" points="1296.054,88.459 1298.722,84.66 1296.054,80.859 1290.718,80.859 1288.048,84.66 1290.718,88.459 
	"/>
<rect x="1312.44" y="219.93" fill="#71B74E" width="6.119" height="2.768"/>
<rect x="1290.583" y="219.93" fill="#6B6B6B" width="6.119" height="2.768"/>
<linearGradient id="SVGID_40_" gradientUnits="userSpaceOnUse" x1="1303.2402" y1="198.5781" x2="1303.2402" y2="176.5195">
	<stop  offset="0" style="stop-color:#222427"/>
	<stop  offset="0.0395" style="stop-color:#2B2D30"/>
	<stop  offset="0.1035" style="stop-color:#434548"/>
	<stop  offset="0.1237" style="stop-color:#4C4E51"/>
	<stop  offset="0.1563" style="stop-color:#3E4042"/>
	<stop  offset="0.2097" style="stop-color:#2A2C2D"/>
	<stop  offset="0.5366" style="stop-color:#3E4041"/>
	<stop  offset="0.8065" style="stop-color:#494C4D"/>
	<stop  offset="0.9301" style="stop-color:#434648"/>
	<stop  offset="0.9691" style="stop-color:#1E1D1D"/>
	<stop  offset="1" style="stop-color:#040000"/>
</linearGradient>
<path fill="url(#SVGID_40_)" d="M1315.907,198.578v-18.283c0-2-1.854-4.295-3.859-3.621c-2.188,0.738-3.472,2.68-8.809,2.818
	c-5.824,0.15-6.672-1.951-8.808-2.818c-1.958-0.791-3.858,1.621-3.858,3.621v18.283H1315.907z"/>
<linearGradient id="SVGID_41_" gradientUnits="userSpaceOnUse" x1="-8303.2363" y1="6059.543" x2="-8303.2363" y2="6254.105" gradientTransform="matrix(-1 0 0 -1 -7050.022 6270.5449)">
	<stop  offset="0" style="stop-color:#222427"/>
	<stop  offset="0.1584" style="stop-color:#2B2D2F"/>
	<stop  offset="0.4153" style="stop-color:#424546"/>
	<stop  offset="0.4785" style="stop-color:#494C4D"/>
	<stop  offset="0.9301" style="stop-color:#434648"/>
	<stop  offset="0.957" style="stop-color:#4C4E51"/>
	<stop  offset="0.9631" style="stop-color:#3E4042"/>
	<stop  offset="0.9731" style="stop-color:#2A2C2D"/>
	<stop  offset="0.9741" style="stop-color:#282A2B"/>
	<stop  offset="0.9907" style="stop-color:#0E0C0C"/>
	<stop  offset="1" style="stop-color:#040000"/>
</linearGradient>
<rect x="1230.491" y="14.897" fill="url(#SVGID_41_)" width="45.447" height="196.104"/>
<radialGradient id="SVGID_42_" cx="-7723.0195" cy="6704.0156" r="34.4264" gradientTransform="matrix(-1.0901 0 0 -0.8961 -7165.6929 6124.8403)" gradientUnits="userSpaceOnUse">
	<stop  offset="0" style="stop-color:#A1A0A0"/>
	<stop  offset="1" style="stop-color:#262727"/>
</radialGradient>
<rect x="1236.001" y="76.09" fill="url(#SVGID_42_)" stroke="#1E1F1F" stroke-miterlimit="10" width="34.338" height="82.563"/>
<rect x="1230.491" y="208.814" fill="#3B3C3F" width="45.447" height="19.465"/>
<rect x="1236.001" y="163.186" fill="#1B1C1C" width="34.338" height="42.068"/>
<polygon fill="#0C0C0C" points="1255.658,158.652 1258.326,154.852 1255.658,151.055 1250.323,151.055 1247.653,154.852 
	1250.323,158.652 "/>
<polygon fill="#0C0C0C" points="1255.658,149.045 1258.326,145.246 1255.658,141.445 1250.323,141.445 1247.653,145.246 
	1250.323,149.045 "/>
<polygon fill="#0C0C0C" points="1255.658,139.982 1258.326,136.184 1255.658,132.385 1250.323,132.385 1247.653,136.184 
	1250.323,139.982 "/>
<polygon fill="#0C0C0C" points="1255.658,130.377 1258.326,126.578 1255.658,122.779 1250.323,122.779 1247.653,126.578 
	1250.323,130.377 "/>
<polygon fill="#0C0C0C" points="1255.658,121.301 1258.326,117.502 1255.658,113.703 1250.323,113.703 1247.653,117.502 
	1250.323,121.301 "/>
<polygon fill="#0C0C0C" points="1255.658,111.695 1258.326,107.896 1255.658,104.098 1250.323,104.098 1247.653,107.896 
	1250.323,111.695 "/>
<polygon fill="#0C0C0C" points="1255.658,102.633 1258.326,98.834 1255.658,95.035 1250.323,95.035 1247.653,98.834 
	1250.323,102.633 "/>
<polygon fill="#0C0C0C" points="1255.658,93.029 1258.326,89.227 1255.658,85.428 1250.323,85.428 1247.653,89.227 1250.323,93.029 
	"/>
<polygon fill="#0C0C0C" points="1255.658,83.746 1258.326,79.947 1255.658,76.148 1250.323,76.148 1247.653,79.947 1250.323,83.746 
	"/>
<polygon fill="#0C0C0C" points="1265.963,154.084 1268.63,150.283 1265.963,146.486 1260.627,146.486 1257.959,150.283 
	1260.627,154.084 "/>
<polygon fill="#0C0C0C" points="1265.963,144.477 1268.63,140.676 1265.963,136.879 1260.627,136.879 1257.959,140.676 
	1260.627,144.477 "/>
<polygon fill="#0C0C0C" points="1265.963,135.414 1268.63,131.615 1265.963,127.816 1260.627,127.816 1257.959,131.615 
	1260.627,135.414 "/>
<polygon fill="#0C0C0C" points="1265.963,125.807 1268.63,122.01 1265.963,118.209 1260.627,118.209 1257.959,122.01 
	1260.627,125.807 "/>
<polygon fill="#0C0C0C" points="1265.963,116.73 1268.63,112.934 1265.963,109.133 1260.627,109.133 1257.959,112.934 
	1260.627,116.73 "/>
<polygon fill="#0C0C0C" points="1265.963,107.127 1268.63,103.326 1265.963,99.527 1260.627,99.527 1257.959,103.326 
	1260.627,107.127 "/>
<polygon fill="#0C0C0C" points="1265.963,98.064 1268.63,94.266 1265.963,90.467 1260.627,90.467 1257.959,94.266 1260.627,98.064 
	"/>
<polygon fill="#0C0C0C" points="1265.963,88.459 1268.63,84.66 1265.963,80.859 1260.627,80.859 1257.959,84.66 1260.627,88.459 "/>
<polygon fill="#0C0C0C" points="1245.804,154.084 1248.472,150.283 1245.804,146.486 1240.468,146.486 1237.799,150.283 
	1240.468,154.084 "/>
<polygon fill="#0C0C0C" points="1245.804,144.477 1248.472,140.676 1245.804,136.879 1240.468,136.879 1237.799,140.676 
	1240.468,144.477 "/>
<polygon fill="#0C0C0C" points="1245.804,135.414 1248.472,131.615 1245.804,127.816 1240.468,127.816 1237.799,131.615 
	1240.468,135.414 "/>
<polygon fill="#0C0C0C" points="1245.804,125.807 1248.472,122.01 1245.804,118.209 1240.468,118.209 1237.799,122.01 
	1240.468,125.807 "/>
<polygon fill="#0C0C0C" points="1245.804,116.73 1248.472,112.934 1245.804,109.133 1240.468,109.133 1237.799,112.934 
	1240.468,116.73 "/>
<polygon fill="#0C0C0C" points="1245.804,107.127 1248.472,103.326 1245.804,99.527 1240.468,99.527 1237.799,103.326 
	1240.468,107.127 "/>
<polygon fill="#0C0C0C" points="1245.804,98.064 1248.472,94.266 1245.804,90.467 1240.468,90.467 1237.799,94.266 1240.468,98.064 
	"/>
<polygon fill="#0C0C0C" points="1245.804,88.459 1248.472,84.66 1245.804,80.859 1240.468,80.859 1237.799,84.66 1240.468,88.459 
	"/>
<rect x="1262.189" y="219.93" fill="#71B74E" width="6.12" height="2.768"/>
<rect x="1240.333" y="219.93" fill="#6B6B6B" width="6.119" height="2.768"/>
<linearGradient id="SVGID_43_" gradientUnits="userSpaceOnUse" x1="1252.9902" y1="198.5781" x2="1252.9902" y2="176.5195">
	<stop  offset="0" style="stop-color:#222427"/>
	<stop  offset="0.0395" style="stop-color:#2B2D30"/>
	<stop  offset="0.1035" style="stop-color:#434548"/>
	<stop  offset="0.1237" style="stop-color:#4C4E51"/>
	<stop  offset="0.1563" style="stop-color:#3E4042"/>
	<stop  offset="0.2097" style="stop-color:#2A2C2D"/>
	<stop  offset="0.5366" style="stop-color:#3E4041"/>
	<stop  offset="0.8065" style="stop-color:#494C4D"/>
	<stop  offset="0.9301" style="stop-color:#434648"/>
	<stop  offset="0.9691" style="stop-color:#1E1D1D"/>
	<stop  offset="1" style="stop-color:#040000"/>
</linearGradient>
<path fill="url(#SVGID_43_)" d="M1265.656,198.578v-18.283c0-2-1.853-4.295-3.858-3.621c-2.188,0.738-3.472,2.68-8.809,2.818
	c-5.823,0.15-6.672-1.951-8.809-2.818c-1.957-0.791-3.857,1.621-3.857,3.621v18.283H1265.656z"/>
<linearGradient id="SVGID_44_" gradientUnits="userSpaceOnUse" x1="-8252.9863" y1="6059.543" x2="-8252.9863" y2="6254.105" gradientTransform="matrix(-1 0 0 -1 -7050.022 6270.5449)">
	<stop  offset="0" style="stop-color:#222427"/>
	<stop  offset="0.1584" style="stop-color:#2B2D2F"/>
	<stop  offset="0.4153" style="stop-color:#424546"/>
	<stop  offset="0.4785" style="stop-color:#494C4D"/>
	<stop  offset="0.9301" style="stop-color:#434648"/>
	<stop  offset="0.957" style="stop-color:#4C4E51"/>
	<stop  offset="0.9631" style="stop-color:#3E4042"/>
	<stop  offset="0.9731" style="stop-color:#2A2C2D"/>
	<stop  offset="0.9741" style="stop-color:#282A2B"/>
	<stop  offset="0.9907" style="stop-color:#0E0C0C"/>
	<stop  offset="1" style="stop-color:#040000"/>
</linearGradient>
<rect x="1180.24" y="14.897" fill="url(#SVGID_44_)" width="45.448" height="196.104"/>
<radialGradient id="SVGID_45_" cx="-7676.9229" cy="6704.0156" r="34.4264" gradientTransform="matrix(-1.0901 0 0 -0.8961 -7165.6929 6124.8403)" gradientUnits="userSpaceOnUse">
	<stop  offset="0" style="stop-color:#A1A0A0"/>
	<stop  offset="1" style="stop-color:#262727"/>
</radialGradient>
<rect x="1185.751" y="76.09" fill="url(#SVGID_45_)" stroke="#1E1F1F" stroke-miterlimit="10" width="34.338" height="82.563"/>
<rect x="1180.24" y="208.814" fill="#3B3C3F" width="45.448" height="19.465"/>
<rect x="1185.751" y="163.186" fill="#1B1C1C" width="34.338" height="42.068"/>
<polygon fill="#0C0C0C" points="1205.408,158.652 1208.076,154.852 1205.408,151.055 1200.073,151.055 1197.404,154.852 
	1200.073,158.652 "/>
<polygon fill="#0C0C0C" points="1205.408,149.045 1208.076,145.246 1205.408,141.445 1200.073,141.445 1197.404,145.246 
	1200.073,149.045 "/>
<polygon fill="#0C0C0C" points="1205.408,139.982 1208.076,136.184 1205.408,132.385 1200.073,132.385 1197.404,136.184 
	1200.073,139.982 "/>
<polygon fill="#0C0C0C" points="1205.408,130.377 1208.076,126.578 1205.408,122.779 1200.073,122.779 1197.404,126.578 
	1200.073,130.377 "/>
<polygon fill="#0C0C0C" points="1205.408,121.301 1208.076,117.502 1205.408,113.703 1200.073,113.703 1197.404,117.502 
	1200.073,121.301 "/>
<polygon fill="#0C0C0C" points="1205.408,111.695 1208.076,107.896 1205.408,104.098 1200.073,104.098 1197.404,107.896 
	1200.073,111.695 "/>
<polygon fill="#0C0C0C" points="1205.408,102.633 1208.076,98.834 1205.408,95.035 1200.073,95.035 1197.404,98.834 
	1200.073,102.633 "/>
<polygon fill="#0C0C0C" points="1205.408,93.029 1208.076,89.227 1205.408,85.428 1200.073,85.428 1197.404,89.227 1200.073,93.029 
	"/>
<polygon fill="#0C0C0C" points="1205.408,83.746 1208.076,79.947 1205.408,76.148 1200.073,76.148 1197.404,79.947 1200.073,83.746 
	"/>
<polygon fill="#0C0C0C" points="1215.713,154.084 1218.38,150.283 1215.713,146.486 1210.377,146.486 1207.709,150.283 
	1210.377,154.084 "/>
<polygon fill="#0C0C0C" points="1215.713,144.477 1218.38,140.676 1215.713,136.879 1210.377,136.879 1207.709,140.676 
	1210.377,144.477 "/>
<polygon fill="#0C0C0C" points="1215.713,135.414 1218.38,131.615 1215.713,127.816 1210.377,127.816 1207.709,131.615 
	1210.377,135.414 "/>
<polygon fill="#0C0C0C" points="1215.713,125.807 1218.38,122.01 1215.713,118.209 1210.377,118.209 1207.709,122.01 
	1210.377,125.807 "/>
<polygon fill="#0C0C0C" points="1215.713,116.73 1218.38,112.934 1215.713,109.133 1210.377,109.133 1207.709,112.934 
	1210.377,116.73 "/>
<polygon fill="#0C0C0C" points="1215.713,107.127 1218.38,103.326 1215.713,99.527 1210.377,99.527 1207.709,103.326 
	1210.377,107.127 "/>
<polygon fill="#0C0C0C" points="1215.713,98.064 1218.38,94.266 1215.713,90.467 1210.377,90.467 1207.709,94.266 1210.377,98.064 
	"/>
<polygon fill="#0C0C0C" points="1215.713,88.459 1218.38,84.66 1215.713,80.859 1210.377,80.859 1207.709,84.66 1210.377,88.459 "/>
<polygon fill="#0C0C0C" points="1195.554,154.084 1198.222,150.283 1195.554,146.486 1190.218,146.486 1187.548,150.283 
	1190.218,154.084 "/>
<polygon fill="#0C0C0C" points="1195.554,144.477 1198.222,140.676 1195.554,136.879 1190.218,136.879 1187.548,140.676 
	1190.218,144.477 "/>
<polygon fill="#0C0C0C" points="1195.554,135.414 1198.222,131.615 1195.554,127.816 1190.218,127.816 1187.548,131.615 
	1190.218,135.414 "/>
<polygon fill="#0C0C0C" points="1195.554,125.807 1198.222,122.01 1195.554,118.209 1190.218,118.209 1187.548,122.01 
	1190.218,125.807 "/>
<polygon fill="#0C0C0C" points="1195.554,116.73 1198.222,112.934 1195.554,109.133 1190.218,109.133 1187.548,112.934 
	1190.218,116.73 "/>
<polygon fill="#0C0C0C" points="1195.554,107.127 1198.222,103.326 1195.554,99.527 1190.218,99.527 1187.548,103.326 
	1190.218,107.127 "/>
<polygon fill="#0C0C0C" points="1195.554,98.064 1198.222,94.266 1195.554,90.467 1190.218,90.467 1187.548,94.266 1190.218,98.064 
	"/>
<polygon fill="#0C0C0C" points="1195.554,88.459 1198.222,84.66 1195.554,80.859 1190.218,80.859 1187.548,84.66 1190.218,88.459 
	"/>
<rect x="1211.94" y="219.93" fill="#71B74E" width="6.119" height="2.768"/>
<rect x="1190.083" y="219.93" fill="#6B6B6B" width="6.119" height="2.768"/>
<linearGradient id="SVGID_46_" gradientUnits="userSpaceOnUse" x1="1202.7402" y1="198.5781" x2="1202.7402" y2="176.5195">
	<stop  offset="0" style="stop-color:#222427"/>
	<stop  offset="0.0395" style="stop-color:#2B2D30"/>
	<stop  offset="0.1035" style="stop-color:#434548"/>
	<stop  offset="0.1237" style="stop-color:#4C4E51"/>
	<stop  offset="0.1563" style="stop-color:#3E4042"/>
	<stop  offset="0.2097" style="stop-color:#2A2C2D"/>
	<stop  offset="0.5366" style="stop-color:#3E4041"/>
	<stop  offset="0.8065" style="stop-color:#494C4D"/>
	<stop  offset="0.9301" style="stop-color:#434648"/>
	<stop  offset="0.9691" style="stop-color:#1E1D1D"/>
	<stop  offset="1" style="stop-color:#040000"/>
</linearGradient>
<path fill="url(#SVGID_46_)" d="M1215.407,198.578v-18.283c0-2-1.854-4.295-3.859-3.621c-2.188,0.738-3.472,2.68-8.809,2.818
	c-5.824,0.15-6.672-1.951-8.808-2.818c-1.958-0.791-3.858,1.621-3.858,3.621v18.283H1215.407z"/>
<polygon fill="#0C0C0C" points="1145.304,154.084 1147.972,150.283 1145.304,146.486 1139.968,146.486 1137.299,150.283 
	1139.968,154.084 "/>
<polygon fill="#0C0C0C" points="1145.304,144.477 1147.972,140.676 1145.304,136.879 1139.968,136.879 1137.299,140.676 
	1139.968,144.477 "/>
<polygon fill="#0C0C0C" points="1145.304,135.414 1147.972,131.615 1145.304,127.816 1139.968,127.816 1137.299,131.615 
	1139.968,135.414 "/>
<polygon fill="#0C0C0C" points="1145.304,125.807 1147.972,122.01 1145.304,118.209 1139.968,118.209 1137.299,122.01 
	1139.968,125.807 "/>
<polygon fill="#0C0C0C" points="1145.304,116.73 1147.972,112.934 1145.304,109.133 1139.968,109.133 1137.299,112.934 
	1139.968,116.73 "/>
<polygon fill="#0C0C0C" points="1145.304,107.127 1147.972,103.326 1145.304,99.527 1139.968,99.527 1137.299,103.326 
	1139.968,107.127 "/>
<polygon fill="#0C0C0C" points="1145.304,98.064 1147.972,94.266 1145.304,90.467 1139.968,90.467 1137.299,94.266 1139.968,98.064 
	"/>
<polygon fill="#0C0C0C" points="1145.304,88.459 1147.972,84.66 1145.304,80.859 1139.968,80.859 1137.299,84.66 1139.968,88.459 
	"/>
<linearGradient id="SVGID_47_" gradientUnits="userSpaceOnUse" x1="-8051.9858" y1="6059.543" x2="-8051.9858" y2="6254.105" gradientTransform="matrix(-1 0 0 -1 -7050.022 6270.5449)">
	<stop  offset="0" style="stop-color:#222427"/>
	<stop  offset="0.1584" style="stop-color:#2B2D2F"/>
	<stop  offset="0.4153" style="stop-color:#424546"/>
	<stop  offset="0.4785" style="stop-color:#494C4D"/>
	<stop  offset="0.9301" style="stop-color:#434648"/>
	<stop  offset="0.957" style="stop-color:#4C4E51"/>
	<stop  offset="0.9631" style="stop-color:#3E4042"/>
	<stop  offset="0.9731" style="stop-color:#2A2C2D"/>
	<stop  offset="0.9741" style="stop-color:#282A2B"/>
	<stop  offset="0.9907" style="stop-color:#0E0C0C"/>
	<stop  offset="1" style="stop-color:#040000"/>
</linearGradient>
<rect x="979.24" y="14.897" fill="url(#SVGID_47_)" width="45.448" height="196.104"/>
<radialGradient id="SVGID_48_" cx="-7492.5361" cy="6704.0156" r="34.4264" gradientTransform="matrix(-1.0901 0 0 -0.8961 -7165.6929 6124.8403)" gradientUnits="userSpaceOnUse">
	<stop  offset="0" style="stop-color:#A1A0A0"/>
	<stop  offset="1" style="stop-color:#262727"/>
</radialGradient>
<rect x="984.751" y="76.09" fill="url(#SVGID_48_)" stroke="#1E1F1F" stroke-miterlimit="10" width="34.338" height="82.563"/>
<rect x="979.24" y="208.814" fill="#3B3C3F" width="45.448" height="19.465"/>
<rect x="984.751" y="163.186" fill="#1B1C1C" width="34.338" height="42.068"/>
<polygon fill="#0C0C0C" points="1004.408,158.652 1007.076,154.852 1004.408,151.055 999.073,151.055 996.404,154.852 
	999.073,158.652 "/>
<polygon fill="#0C0C0C" points="1004.408,149.045 1007.076,145.246 1004.408,141.445 999.073,141.445 996.404,145.246 
	999.073,149.045 "/>
<polygon fill="#0C0C0C" points="1004.408,139.982 1007.076,136.184 1004.408,132.385 999.073,132.385 996.404,136.184 
	999.073,139.982 "/>
<polygon fill="#0C0C0C" points="1004.408,130.377 1007.076,126.578 1004.408,122.779 999.073,122.779 996.404,126.578 
	999.073,130.377 "/>
<polygon fill="#0C0C0C" points="1004.408,121.301 1007.076,117.502 1004.408,113.703 999.073,113.703 996.404,117.502 
	999.073,121.301 "/>
<polygon fill="#0C0C0C" points="1004.408,111.695 1007.076,107.896 1004.408,104.098 999.073,104.098 996.404,107.896 
	999.073,111.695 "/>
<polygon fill="#0C0C0C" points="1004.408,102.633 1007.076,98.834 1004.408,95.035 999.073,95.035 996.404,98.834 999.073,102.633 
	"/>
<polygon fill="#0C0C0C" points="1004.408,93.029 1007.076,89.227 1004.408,85.428 999.073,85.428 996.404,89.227 999.073,93.029 "/>
<polygon fill="#0C0C0C" points="1004.408,83.746 1007.076,79.947 1004.408,76.148 999.073,76.148 996.404,79.947 999.073,83.746 "/>
<polygon fill="#0C0C0C" points="1014.713,154.084 1017.38,150.283 1014.713,146.486 1009.377,146.486 1006.709,150.283 
	1009.377,154.084 "/>
<polygon fill="#0C0C0C" points="1014.713,144.477 1017.38,140.676 1014.713,136.879 1009.377,136.879 1006.709,140.676 
	1009.377,144.477 "/>
<polygon fill="#0C0C0C" points="1014.713,135.414 1017.38,131.615 1014.713,127.816 1009.377,127.816 1006.709,131.615 
	1009.377,135.414 "/>
<polygon fill="#0C0C0C" points="1014.713,125.807 1017.38,122.01 1014.713,118.209 1009.377,118.209 1006.709,122.01 
	1009.377,125.807 "/>
<polygon fill="#0C0C0C" points="1014.713,116.73 1017.38,112.934 1014.713,109.133 1009.377,109.133 1006.709,112.934 
	1009.377,116.73 "/>
<polygon fill="#0C0C0C" points="1014.713,107.127 1017.38,103.326 1014.713,99.527 1009.377,99.527 1006.709,103.326 
	1009.377,107.127 "/>
<polygon fill="#0C0C0C" points="1014.713,98.064 1017.38,94.266 1014.713,90.467 1009.377,90.467 1006.709,94.266 1009.377,98.064 
	"/>
<polygon fill="#0C0C0C" points="1014.713,88.459 1017.38,84.66 1014.713,80.859 1009.377,80.859 1006.709,84.66 1009.377,88.459 "/>
<polygon fill="#0C0C0C" points="994.554,154.084 997.222,150.283 994.554,146.486 989.218,146.486 986.549,150.283 989.218,154.084 
	"/>
<polygon fill="#0C0C0C" points="994.554,144.477 997.222,140.676 994.554,136.879 989.218,136.879 986.549,140.676 989.218,144.477 
	"/>
<polygon fill="#0C0C0C" points="994.554,135.414 997.222,131.615 994.554,127.816 989.218,127.816 986.549,131.615 989.218,135.414 
	"/>
<polygon fill="#0C0C0C" points="994.554,125.807 997.222,122.01 994.554,118.209 989.218,118.209 986.549,122.01 989.218,125.807 
	"/>
<polygon fill="#0C0C0C" points="994.554,116.73 997.222,112.934 994.554,109.133 989.218,109.133 986.549,112.934 989.218,116.73 
	"/>
<polygon fill="#0C0C0C" points="994.554,107.127 997.222,103.326 994.554,99.527 989.218,99.527 986.549,103.326 989.218,107.127 
	"/>
<polygon fill="#0C0C0C" points="994.554,98.064 997.222,94.266 994.554,90.467 989.218,90.467 986.549,94.266 989.218,98.064 "/>
<polygon fill="#0C0C0C" points="994.554,88.459 997.222,84.66 994.554,80.859 989.218,80.859 986.549,84.66 989.218,88.459 "/>
<rect x="1010.94" y="219.93" fill="#71B74E" width="6.119" height="2.768"/>
<rect x="989.083" y="219.93" fill="#6B6B6B" width="6.119" height="2.768"/>
<linearGradient id="SVGID_49_" gradientUnits="userSpaceOnUse" x1="1001.7402" y1="198.5781" x2="1001.7402" y2="176.5195">
	<stop  offset="0" style="stop-color:#FFFFFF"/>
	<stop  offset="0.1452" style="stop-color:#8F6878"/>
	<stop  offset="0.2742" style="stop-color:#694954"/>
	<stop  offset="0.4624" style="stop-color:#8F6878"/>
	<stop  offset="1" style="stop-color:#694954"/>
</linearGradient>
<path fill="url(#SVGID_49_)" d="M1014.407,198.578v-18.283c0-2-1.854-4.295-3.858-3.621c-2.189,0.738-3.473,2.68-8.81,2.818
	c-5.824,0.15-6.672-1.951-8.808-2.818c-1.958-0.791-3.858,1.621-3.858,3.621v18.283H1014.407z"/>
<rect x="986.71" y="76.09" fill="#1B1C1C" width="30.51" height="82.563"/>
<rect x="1187.353" y="76.09" fill="#1B1C1C" width="30.509" height="82.563"/>
<rect x="1237.764" y="76.09" fill="#1B1C1C" width="30.509" height="82.563"/>
<rect x="1288.173" y="76.09" fill="#1B1C1C" width="30.511" height="82.563"/>
<g>
	<rect x="1185.438" y="31.2" fill="#1B1C1C" width="34.338" height="42.069"/>
	<linearGradient id="SVGID_50_" gradientUnits="userSpaceOnUse" x1="1202.4277" y1="66.5938" x2="1202.4277" y2="44.5347">
		<stop  offset="0" style="stop-color:#222427"/>
		<stop  offset="0.0395" style="stop-color:#2B2D30"/>
		<stop  offset="0.1035" style="stop-color:#434548"/>
		<stop  offset="0.1237" style="stop-color:#4C4E51"/>
		<stop  offset="0.1563" style="stop-color:#3E4042"/>
		<stop  offset="0.2097" style="stop-color:#2A2C2D"/>
		<stop  offset="0.5366" style="stop-color:#3E4041"/>
		<stop  offset="0.8065" style="stop-color:#494C4D"/>
		<stop  offset="0.9301" style="stop-color:#434648"/>
		<stop  offset="0.9691" style="stop-color:#1E1D1D"/>
		<stop  offset="1" style="stop-color:#040000"/>
	</linearGradient>
	<path fill="url(#SVGID_50_)" d="M1215.095,66.594V48.311c0-2.001-1.854-4.297-3.857-3.621c-2.19,0.736-3.474,2.678-8.81,2.818
		c-5.824,0.15-6.673-1.953-8.81-2.818c-1.956-0.793-3.856,1.62-3.856,3.621v18.283H1215.095z"/>
</g>
<g>
	<rect x="1235.851" y="31.2" fill="#1B1C1C" width="34.336" height="42.069"/>
	<linearGradient id="SVGID_51_" gradientUnits="userSpaceOnUse" x1="1252.8389" y1="66.5938" x2="1252.8389" y2="44.5347">
		<stop  offset="0" style="stop-color:#222427"/>
		<stop  offset="0.0395" style="stop-color:#2B2D30"/>
		<stop  offset="0.1035" style="stop-color:#434548"/>
		<stop  offset="0.1237" style="stop-color:#4C4E51"/>
		<stop  offset="0.1563" style="stop-color:#3E4042"/>
		<stop  offset="0.2097" style="stop-color:#2A2C2D"/>
		<stop  offset="0.5366" style="stop-color:#3E4041"/>
		<stop  offset="0.8065" style="stop-color:#494C4D"/>
		<stop  offset="0.9301" style="stop-color:#434648"/>
		<stop  offset="0.9691" style="stop-color:#1E1D1D"/>
		<stop  offset="1" style="stop-color:#040000"/>
	</linearGradient>
	<path fill="url(#SVGID_51_)" d="M1265.505,66.594V48.311c0-2.001-1.852-4.297-3.857-3.621c-2.189,0.736-3.473,2.678-8.809,2.818
		c-5.825,0.15-6.673-1.953-8.81-2.818c-1.956-0.793-3.856,1.62-3.856,3.621v18.283H1265.505z"/>
</g>
<g>
	<rect x="1286.261" y="31.2" fill="#1B1C1C" width="34.337" height="42.069"/>
	<linearGradient id="SVGID_52_" gradientUnits="userSpaceOnUse" x1="1303.25" y1="66.5938" x2="1303.25" y2="44.5347">
		<stop  offset="0" style="stop-color:#222427"/>
		<stop  offset="0.0395" style="stop-color:#2B2D30"/>
		<stop  offset="0.1035" style="stop-color:#434548"/>
		<stop  offset="0.1237" style="stop-color:#4C4E51"/>
		<stop  offset="0.1563" style="stop-color:#3E4042"/>
		<stop  offset="0.2097" style="stop-color:#2A2C2D"/>
		<stop  offset="0.5366" style="stop-color:#3E4041"/>
		<stop  offset="0.8065" style="stop-color:#494C4D"/>
		<stop  offset="0.9301" style="stop-color:#434648"/>
		<stop  offset="0.9691" style="stop-color:#1E1D1D"/>
		<stop  offset="1" style="stop-color:#040000"/>
	</linearGradient>
	<path fill="url(#SVGID_52_)" d="M1315.916,66.594V48.311c0-2.001-1.853-4.297-3.858-3.621c-2.189,0.736-3.472,2.678-8.809,2.818
		c-5.824,0.15-6.672-1.953-8.808-2.818c-1.957-0.793-3.858,1.62-3.858,3.621v18.283H1315.916z"/>
</g>
<g>
	
		<linearGradient id="SVGID_53_" gradientUnits="userSpaceOnUse" x1="-8001.7363" y1="6059.543" x2="-8001.7363" y2="6254.105" gradientTransform="matrix(-1 0 0 -1 -7050.022 6270.5449)">
		<stop  offset="0" style="stop-color:#222427"/>
		<stop  offset="0.1584" style="stop-color:#2B2D2F"/>
		<stop  offset="0.4153" style="stop-color:#424546"/>
		<stop  offset="0.4785" style="stop-color:#494C4D"/>
		<stop  offset="0.9301" style="stop-color:#434648"/>
		<stop  offset="0.957" style="stop-color:#4C4E51"/>
		<stop  offset="0.9631" style="stop-color:#3E4042"/>
		<stop  offset="0.9731" style="stop-color:#2A2C2D"/>
		<stop  offset="0.9741" style="stop-color:#282A2B"/>
		<stop  offset="0.9907" style="stop-color:#0E0C0C"/>
		<stop  offset="1" style="stop-color:#040000"/>
	</linearGradient>
	<rect x="928.991" y="14.897" fill="url(#SVGID_53_)" width="45.447" height="196.104"/>
	
		<radialGradient id="SVGID_54_" cx="-7446.4395" cy="6704.0156" r="34.4264" gradientTransform="matrix(-1.0901 0 0 -0.8961 -7165.6929 6124.8403)" gradientUnits="userSpaceOnUse">
		<stop  offset="0" style="stop-color:#A1A0A0"/>
		<stop  offset="1" style="stop-color:#262727"/>
	</radialGradient>
	<rect x="934.501" y="76.09" fill="url(#SVGID_54_)" stroke="#1E1F1F" stroke-miterlimit="10" width="34.338" height="82.563"/>
	<rect x="928.991" y="211.814" fill="#3B3C3F" width="45.447" height="19.465"/>
	<rect x="934.501" y="163.186" fill="#1B1C1C" width="34.338" height="42.068"/>
	<polygon fill="#0C0C0C" points="954.158,158.652 956.826,154.852 954.158,151.055 948.823,151.055 946.153,154.852 
		948.823,158.652 	"/>
	<polygon fill="#0C0C0C" points="954.158,149.045 956.826,145.246 954.158,141.445 948.823,141.445 946.153,145.246 
		948.823,149.045 	"/>
	<polygon fill="#0C0C0C" points="954.158,139.982 956.826,136.184 954.158,132.385 948.823,132.385 946.153,136.184 
		948.823,139.982 	"/>
	<polygon fill="#0C0C0C" points="954.158,130.377 956.826,126.578 954.158,122.779 948.823,122.779 946.153,126.578 
		948.823,130.377 	"/>
	<polygon fill="#0C0C0C" points="954.158,121.301 956.826,117.502 954.158,113.703 948.823,113.703 946.153,117.502 
		948.823,121.301 	"/>
	<polygon fill="#0C0C0C" points="954.158,111.695 956.826,107.896 954.158,104.098 948.823,104.098 946.153,107.896 
		948.823,111.695 	"/>
	<polygon fill="#0C0C0C" points="954.158,102.633 956.826,98.834 954.158,95.035 948.823,95.035 946.153,98.834 948.823,102.633 	
		"/>
	<polygon fill="#0C0C0C" points="954.158,93.029 956.826,89.227 954.158,85.428 948.823,85.428 946.153,89.227 948.823,93.029 	"/>
	<polygon fill="#0C0C0C" points="954.158,83.746 956.826,79.947 954.158,76.148 948.823,76.148 946.153,79.947 948.823,83.746 	"/>
	<polygon fill="#0C0C0C" points="964.463,154.084 967.13,150.283 964.463,146.486 959.126,146.486 956.459,150.283 959.126,154.084 
			"/>
	<polygon fill="#0C0C0C" points="964.463,144.477 967.13,140.676 964.463,136.879 959.126,136.879 956.459,140.676 959.126,144.477 
			"/>
	<polygon fill="#0C0C0C" points="964.463,135.414 967.13,131.615 964.463,127.816 959.126,127.816 956.459,131.615 959.126,135.414 
			"/>
	<polygon fill="#0C0C0C" points="964.463,125.807 967.13,122.01 964.463,118.209 959.126,118.209 956.459,122.01 959.126,125.807 	
		"/>
	<polygon fill="#0C0C0C" points="964.463,116.73 967.13,112.934 964.463,109.133 959.126,109.133 956.459,112.934 959.126,116.73 	
		"/>
	<polygon fill="#0C0C0C" points="964.463,107.127 967.13,103.326 964.463,99.527 959.126,99.527 956.459,103.326 959.126,107.127 	
		"/>
	<polygon fill="#0C0C0C" points="964.463,98.064 967.13,94.266 964.463,90.467 959.126,90.467 956.459,94.266 959.126,98.064 	"/>
	<polygon fill="#0C0C0C" points="964.463,88.459 967.13,84.66 964.463,80.859 959.126,80.859 956.459,84.66 959.126,88.459 	"/>
	<polygon fill="#0C0C0C" points="944.304,154.084 946.972,150.283 944.304,146.486 938.968,146.486 936.299,150.283 
		938.968,154.084 	"/>
	<polygon fill="#0C0C0C" points="944.304,144.477 946.972,140.676 944.304,136.879 938.968,136.879 936.299,140.676 
		938.968,144.477 	"/>
	<polygon fill="#0C0C0C" points="944.304,135.414 946.972,131.615 944.304,127.816 938.968,127.816 936.299,131.615 
		938.968,135.414 	"/>
	<polygon fill="#0C0C0C" points="944.304,125.807 946.972,122.01 944.304,118.209 938.968,118.209 936.299,122.01 938.968,125.807 	
		"/>
	<polygon fill="#0C0C0C" points="944.304,116.73 946.972,112.934 944.304,109.133 938.968,109.133 936.299,112.934 938.968,116.73 	
		"/>
	<polygon fill="#0C0C0C" points="944.304,107.127 946.972,103.326 944.304,99.527 938.968,99.527 936.299,103.326 938.968,107.127 	
		"/>
	<polygon fill="#0C0C0C" points="944.304,98.064 946.972,94.266 944.304,90.467 938.968,90.467 936.299,94.266 938.968,98.064 	"/>
	<polygon fill="#0C0C0C" points="944.304,88.459 946.972,84.66 944.304,80.859 938.968,80.859 936.299,84.66 938.968,88.459 	"/>
	<rect x="960.69" y="222.93" fill="#71B74E" width="6.119" height="2.768"/>
	<rect x="938.833" y="222.93" fill="#6B6B6B" width="6.119" height="2.768"/>
	<linearGradient id="SVGID_55_" gradientUnits="userSpaceOnUse" x1="951.4902" y1="198.5781" x2="951.4902" y2="176.5195">
		<stop  offset="0" style="stop-color:#FFFFFF"/>
		<stop  offset="0.1452" style="stop-color:#8F6878"/>
		<stop  offset="0.2742" style="stop-color:#694954"/>
		<stop  offset="0.4624" style="stop-color:#8F6878"/>
		<stop  offset="1" style="stop-color:#694954"/>
	</linearGradient>
	<path fill="url(#SVGID_55_)" d="M964.156,198.578v-18.283c0-2-1.853-4.295-3.857-3.621c-2.189,0.738-3.473,2.68-8.81,2.818
		c-5.823,0.15-6.672-1.951-8.809-2.818c-1.957-0.791-3.857,1.621-3.857,3.621v18.283H964.156z"/>
	<rect x="936.299" y="76.09" fill="#1B1C1C" width="30.511" height="82.563"/>
	<g>
		
			<rect x="928.991" y="14.896" fill="#4C4E51" stroke="#070404" stroke-width="2" stroke-miterlimit="10" width="45.447" height="29.64"/>
		<g>
			<path fill="#E4E4E4" d="M969.333,18.812c0-0.967-0.784-1.75-1.75-1.75h-31.826c-0.967,0-1.75,0.783-1.75,1.75v21.808
				c0,0.965,0.783,1.748,1.75,1.748h31.826c0.966,0,1.75-0.783,1.75-1.748V18.812z"/>
			<rect x="934.007" y="23.853" fill="#815DA4" width="35.326" height="5.863"/>
			<rect x="934.007" y="29.716" fill="#1B1C1C" width="35.326" height="12.651"/>
		</g>
	</g>
</g>
<g>
	
		<linearGradient id="SVGID_56_" gradientUnits="userSpaceOnUse" x1="-8201.8906" y1="6059.543" x2="-8201.8906" y2="6254.105" gradientTransform="matrix(-1 0 0 -1 -7050.022 6270.5449)">
		<stop  offset="0" style="stop-color:#222427"/>
		<stop  offset="0.1584" style="stop-color:#2B2D2F"/>
		<stop  offset="0.4153" style="stop-color:#424546"/>
		<stop  offset="0.4785" style="stop-color:#494C4D"/>
		<stop  offset="0.9301" style="stop-color:#434648"/>
		<stop  offset="0.957" style="stop-color:#4C4E51"/>
		<stop  offset="0.9631" style="stop-color:#3E4042"/>
		<stop  offset="0.9731" style="stop-color:#2A2C2D"/>
		<stop  offset="0.9741" style="stop-color:#282A2B"/>
		<stop  offset="0.9907" style="stop-color:#0E0C0C"/>
		<stop  offset="1" style="stop-color:#040000"/>
	</linearGradient>
	<rect x="1129.145" y="14.897" fill="url(#SVGID_56_)" width="45.448" height="196.104"/>
	
		<radialGradient id="SVGID_57_" cx="-7630.0503" cy="6704.0156" r="34.4264" gradientTransform="matrix(-1.0901 0 0 -0.8961 -7165.6929 6124.8403)" gradientUnits="userSpaceOnUse">
		<stop  offset="0" style="stop-color:#A1A0A0"/>
		<stop  offset="1" style="stop-color:#262727"/>
	</radialGradient>
	<rect x="1134.655" y="76.09" fill="url(#SVGID_57_)" stroke="#1E1F1F" stroke-miterlimit="10" width="34.338" height="82.563"/>
	<rect x="1129.145" y="211.814" fill="#3B3C3F" width="45.448" height="19.465"/>
	<rect x="1134.655" y="163.186" fill="#1B1C1C" width="34.338" height="42.068"/>
	<polygon fill="#0C0C0C" points="1154.313,158.652 1156.979,154.852 1154.313,151.055 1148.978,151.055 1146.308,154.852 
		1148.978,158.652 	"/>
	<polygon fill="#0C0C0C" points="1154.313,149.045 1156.979,145.246 1154.313,141.445 1148.978,141.445 1146.308,145.246 
		1148.978,149.045 	"/>
	<polygon fill="#0C0C0C" points="1154.313,139.982 1156.979,136.184 1154.313,132.385 1148.978,132.385 1146.308,136.184 
		1148.978,139.982 	"/>
	<polygon fill="#0C0C0C" points="1154.313,130.377 1156.979,126.578 1154.313,122.779 1148.978,122.779 1146.308,126.578 
		1148.978,130.377 	"/>
	<polygon fill="#0C0C0C" points="1154.313,121.301 1156.979,117.502 1154.313,113.703 1148.978,113.703 1146.308,117.502 
		1148.978,121.301 	"/>
	<polygon fill="#0C0C0C" points="1154.313,111.695 1156.979,107.896 1154.313,104.098 1148.978,104.098 1146.308,107.896 
		1148.978,111.695 	"/>
	<polygon fill="#0C0C0C" points="1154.313,102.633 1156.979,98.834 1154.313,95.035 1148.978,95.035 1146.308,98.834 
		1148.978,102.633 	"/>
	<polygon fill="#0C0C0C" points="1154.313,93.029 1156.979,89.227 1154.313,85.428 1148.978,85.428 1146.308,89.227 
		1148.978,93.029 	"/>
	<polygon fill="#0C0C0C" points="1154.313,83.746 1156.979,79.947 1154.313,76.148 1148.978,76.148 1146.308,79.947 
		1148.978,83.746 	"/>
	<polygon fill="#0C0C0C" points="1164.616,154.084 1167.284,150.283 1164.616,146.486 1159.28,146.486 1156.612,150.283 
		1159.28,154.084 	"/>
	<polygon fill="#0C0C0C" points="1164.616,144.477 1167.284,140.676 1164.616,136.879 1159.28,136.879 1156.612,140.676 
		1159.28,144.477 	"/>
	<polygon fill="#0C0C0C" points="1164.616,135.414 1167.284,131.615 1164.616,127.816 1159.28,127.816 1156.612,131.615 
		1159.28,135.414 	"/>
	<polygon fill="#0C0C0C" points="1164.616,125.807 1167.284,122.01 1164.616,118.209 1159.28,118.209 1156.612,122.01 
		1159.28,125.807 	"/>
	<polygon fill="#0C0C0C" points="1164.616,116.73 1167.284,112.934 1164.616,109.133 1159.28,109.133 1156.612,112.934 
		1159.28,116.73 	"/>
	<polygon fill="#0C0C0C" points="1164.616,107.127 1167.284,103.326 1164.616,99.527 1159.28,99.527 1156.612,103.326 
		1159.28,107.127 	"/>
	<polygon fill="#0C0C0C" points="1164.616,98.064 1167.284,94.266 1164.616,90.467 1159.28,90.467 1156.612,94.266 1159.28,98.064 	
		"/>
	<polygon fill="#0C0C0C" points="1164.616,88.459 1167.284,84.66 1164.616,80.859 1159.28,80.859 1156.612,84.66 1159.28,88.459 	
		"/>
	<polygon fill="#0C0C0C" points="1144.458,154.084 1147.126,150.283 1144.458,146.486 1139.122,146.486 1136.454,150.283 
		1139.122,154.084 	"/>
	<polygon fill="#0C0C0C" points="1144.458,144.477 1147.126,140.676 1144.458,136.879 1139.122,136.879 1136.454,140.676 
		1139.122,144.477 	"/>
	<polygon fill="#0C0C0C" points="1144.458,135.414 1147.126,131.615 1144.458,127.816 1139.122,127.816 1136.454,131.615 
		1139.122,135.414 	"/>
	<polygon fill="#0C0C0C" points="1144.458,125.807 1147.126,122.01 1144.458,118.209 1139.122,118.209 1136.454,122.01 
		1139.122,125.807 	"/>
	<polygon fill="#0C0C0C" points="1144.458,116.73 1147.126,112.934 1144.458,109.133 1139.122,109.133 1136.454,112.934 
		1139.122,116.73 	"/>
	<polygon fill="#0C0C0C" points="1144.458,107.127 1147.126,103.326 1144.458,99.527 1139.122,99.527 1136.454,103.326 
		1139.122,107.127 	"/>
	<polygon fill="#0C0C0C" points="1144.458,98.064 1147.126,94.266 1144.458,90.467 1139.122,90.467 1136.454,94.266 
		1139.122,98.064 	"/>
	<polygon fill="#0C0C0C" points="1144.458,88.459 1147.126,84.66 1144.458,80.859 1139.122,80.859 1136.454,84.66 1139.122,88.459 	
		"/>
	<rect x="1160.844" y="222.93" fill="#71B74E" width="6.119" height="2.768"/>
	<rect x="1138.987" y="222.93" fill="#6B6B6B" width="6.119" height="2.768"/>
	<linearGradient id="SVGID_58_" gradientUnits="userSpaceOnUse" x1="1151.6445" y1="198.5781" x2="1151.6445" y2="176.5195">
		<stop  offset="0" style="stop-color:#FFFFFF"/>
		<stop  offset="0.1452" style="stop-color:#8F6878"/>
		<stop  offset="0.2742" style="stop-color:#694954"/>
		<stop  offset="0.4624" style="stop-color:#8F6878"/>
		<stop  offset="1" style="stop-color:#694954"/>
	</linearGradient>
	<path fill="url(#SVGID_58_)" d="M1164.311,198.578v-18.283c0-2-1.853-4.295-3.858-3.621c-2.188,0.738-3.473,2.68-8.809,2.818
		c-5.824,0.15-6.672-1.951-8.809-2.818c-1.957-0.791-3.857,1.621-3.857,3.621v18.283H1164.311z"/>
	<rect x="1136.454" y="76.09" fill="#1B1C1C" width="30.509" height="82.563"/>
	<g>
		
			<rect x="1129.145" y="14.896" fill="#4C4E51" stroke="#070404" stroke-width="2" stroke-miterlimit="10" width="45.448" height="29.64"/>
		<g>
			<path fill="#E4E4E4" d="M1169.486,18.812c0-0.967-0.782-1.75-1.749-1.75h-31.827c-0.966,0-1.749,0.783-1.749,1.75v21.808
				c0,0.965,0.783,1.748,1.749,1.748h31.827c0.967,0,1.749-0.783,1.749-1.748V18.812z"/>
			<rect x="1134.161" y="23.853" fill="#815DA4" width="35.325" height="5.863"/>
			<rect x="1134.161" y="29.716" fill="#1B1C1C" width="35.325" height="12.651"/>
		</g>
	</g>
</g>
<g>
	
		<rect x="979.016" y="14.896" fill="#4C4E51" stroke="#070404" stroke-width="2" stroke-miterlimit="10" width="45.448" height="29.64"/>
	<g>
		<path fill="#E4E4E4" d="M1019.358,18.812c0-0.967-0.783-1.75-1.749-1.75h-31.827c-0.967,0-1.75,0.783-1.75,1.75v21.808
			c0,0.965,0.783,1.748,1.75,1.748h31.827c0.966,0,1.749-0.783,1.749-1.748V18.812z"/>
		<rect x="984.032" y="23.853" fill="#815DA4" width="35.326" height="5.863"/>
		<rect x="984.032" y="29.716" fill="#1B1C1C" width="35.326" height="12.651"/>
	</g>
</g>
<g>
	<g>
		<rect x="1031.912" y="196.66" fill="#818181" width="48.479" height="33.533"/>
		<g>
			<polygon fill="#050001" points="1077.095,214.244 1077.095,215.764 1075.479,215.764 1075.479,220.854 1066.476,220.854 
				1066.476,225.295 1061.858,225.295 1061.858,230.174 1059.435,230.174 1058.011,230.174 1054.624,230.174 1053.313,230.174 
				1050.776,230.174 1050.776,225.295 1046.157,225.295 1046.157,220.854 1037.155,220.854 1037.155,215.764 1035.538,215.764 
				1035.538,214.244 1038.23,214.244 1038.23,207.633 1035.538,207.633 1035.538,206.334 1037.077,206.334 1037.077,201.672 
				1053.313,201.672 1054.624,201.672 1058.011,201.672 1059.435,201.672 1075.633,201.672 1075.633,206.334 1077.095,206.334 
				1077.095,207.633 1074.634,207.633 1074.634,214.244 			"/>
		</g>
	</g>
	
		<linearGradient id="SVGID_59_" gradientUnits="userSpaceOnUse" x1="-8102.2363" y1="6059.543" x2="-8102.2363" y2="6254.105" gradientTransform="matrix(-1 0 0 -1 -7050.022 6270.5449)">
		<stop  offset="0" style="stop-color:#222427"/>
		<stop  offset="0.1584" style="stop-color:#2B2D2F"/>
		<stop  offset="0.4153" style="stop-color:#424546"/>
		<stop  offset="0.4785" style="stop-color:#494C4D"/>
		<stop  offset="0.9301" style="stop-color:#434648"/>
		<stop  offset="0.957" style="stop-color:#4C4E51"/>
		<stop  offset="0.9631" style="stop-color:#3E4042"/>
		<stop  offset="0.9731" style="stop-color:#2A2C2D"/>
		<stop  offset="0.9741" style="stop-color:#282A2B"/>
		<stop  offset="0.9907" style="stop-color:#0E0C0C"/>
		<stop  offset="1" style="stop-color:#040000"/>
	</linearGradient>
	<rect x="1029.491" y="14.897" fill="url(#SVGID_59_)" width="45.447" height="196.104"/>
	
		<radialGradient id="SVGID_60_" cx="-7538.6328" cy="6704.0156" r="34.4264" gradientTransform="matrix(-1.0901 0 0 -0.8961 -7165.6929 6124.8403)" gradientUnits="userSpaceOnUse">
		<stop  offset="0" style="stop-color:#A1A0A0"/>
		<stop  offset="1" style="stop-color:#262727"/>
	</radialGradient>
	<rect x="1035.001" y="76.09" fill="url(#SVGID_60_)" stroke="#1E1F1F" stroke-miterlimit="10" width="34.338" height="82.563"/>
	<rect x="1029.491" y="211.814" fill="#3B3C3F" width="45.447" height="19.465"/>
	<rect x="1035.001" y="163.186" fill="#1B1C1C" width="34.338" height="42.068"/>
	<polygon fill="#0C0C0C" points="1054.658,158.652 1057.326,154.852 1054.658,151.055 1049.323,151.055 1046.653,154.852 
		1049.323,158.652 	"/>
	<polygon fill="#0C0C0C" points="1054.658,149.045 1057.326,145.246 1054.658,141.445 1049.323,141.445 1046.653,145.246 
		1049.323,149.045 	"/>
	<polygon fill="#0C0C0C" points="1054.658,139.982 1057.326,136.184 1054.658,132.385 1049.323,132.385 1046.653,136.184 
		1049.323,139.982 	"/>
	<polygon fill="#0C0C0C" points="1054.658,130.377 1057.326,126.578 1054.658,122.779 1049.323,122.779 1046.653,126.578 
		1049.323,130.377 	"/>
	<polygon fill="#0C0C0C" points="1054.658,121.301 1057.326,117.502 1054.658,113.703 1049.323,113.703 1046.653,117.502 
		1049.323,121.301 	"/>
	<polygon fill="#0C0C0C" points="1054.658,111.695 1057.326,107.896 1054.658,104.098 1049.323,104.098 1046.653,107.896 
		1049.323,111.695 	"/>
	<polygon fill="#0C0C0C" points="1054.658,102.633 1057.326,98.834 1054.658,95.035 1049.323,95.035 1046.653,98.834 
		1049.323,102.633 	"/>
	<polygon fill="#0C0C0C" points="1054.658,93.029 1057.326,89.227 1054.658,85.428 1049.323,85.428 1046.653,89.227 
		1049.323,93.029 	"/>
	<polygon fill="#0C0C0C" points="1054.658,83.746 1057.326,79.947 1054.658,76.148 1049.323,76.148 1046.653,79.947 
		1049.323,83.746 	"/>
	<polygon fill="#0C0C0C" points="1064.963,154.084 1067.63,150.283 1064.963,146.486 1059.627,146.486 1056.959,150.283 
		1059.627,154.084 	"/>
	<polygon fill="#0C0C0C" points="1064.963,144.477 1067.63,140.676 1064.963,136.879 1059.627,136.879 1056.959,140.676 
		1059.627,144.477 	"/>
	<polygon fill="#0C0C0C" points="1064.963,135.414 1067.63,131.615 1064.963,127.816 1059.627,127.816 1056.959,131.615 
		1059.627,135.414 	"/>
	<polygon fill="#0C0C0C" points="1064.963,125.807 1067.63,122.01 1064.963,118.209 1059.627,118.209 1056.959,122.01 
		1059.627,125.807 	"/>
	<polygon fill="#0C0C0C" points="1064.963,116.73 1067.63,112.934 1064.963,109.133 1059.627,109.133 1056.959,112.934 
		1059.627,116.73 	"/>
	<polygon fill="#0C0C0C" points="1064.963,107.127 1067.63,103.326 1064.963,99.527 1059.627,99.527 1056.959,103.326 
		1059.627,107.127 	"/>
	<polygon fill="#0C0C0C" points="1064.963,98.064 1067.63,94.266 1064.963,90.467 1059.627,90.467 1056.959,94.266 1059.627,98.064 
			"/>
	<polygon fill="#0C0C0C" points="1064.963,88.459 1067.63,84.66 1064.963,80.859 1059.627,80.859 1056.959,84.66 1059.627,88.459 	
		"/>
	<polygon fill="#0C0C0C" points="1044.804,154.084 1047.472,150.283 1044.804,146.486 1039.469,146.486 1036.799,150.283 
		1039.469,154.084 	"/>
	<polygon fill="#0C0C0C" points="1044.804,144.477 1047.472,140.676 1044.804,136.879 1039.469,136.879 1036.799,140.676 
		1039.469,144.477 	"/>
	<polygon fill="#0C0C0C" points="1044.804,135.414 1047.472,131.615 1044.804,127.816 1039.469,127.816 1036.799,131.615 
		1039.469,135.414 	"/>
	<polygon fill="#0C0C0C" points="1044.804,125.807 1047.472,122.01 1044.804,118.209 1039.469,118.209 1036.799,122.01 
		1039.469,125.807 	"/>
	<polygon fill="#0C0C0C" points="1044.804,116.73 1047.472,112.934 1044.804,109.133 1039.469,109.133 1036.799,112.934 
		1039.469,116.73 	"/>
	<polygon fill="#0C0C0C" points="1044.804,107.127 1047.472,103.326 1044.804,99.527 1039.469,99.527 1036.799,103.326 
		1039.469,107.127 	"/>
	<polygon fill="#0C0C0C" points="1044.804,98.064 1047.472,94.266 1044.804,90.467 1039.469,90.467 1036.799,94.266 
		1039.469,98.064 	"/>
	<polygon fill="#0C0C0C" points="1044.804,88.459 1047.472,84.66 1044.804,80.859 1039.469,80.859 1036.799,84.66 1039.469,88.459 	
		"/>
	<rect x="1061.19" y="222.93" fill="#71B74E" width="6.119" height="2.768"/>
	<rect x="1039.333" y="222.93" fill="#6B6B6B" width="6.119" height="2.768"/>
	<linearGradient id="SVGID_61_" gradientUnits="userSpaceOnUse" x1="1051.9902" y1="198.5781" x2="1051.9902" y2="176.5195">
		<stop  offset="0" style="stop-color:#FFFFFF"/>
		<stop  offset="0.1452" style="stop-color:#8F6878"/>
		<stop  offset="0.2742" style="stop-color:#694954"/>
		<stop  offset="0.4624" style="stop-color:#8F6878"/>
		<stop  offset="1" style="stop-color:#694954"/>
	</linearGradient>
	<path fill="url(#SVGID_61_)" d="M1064.656,198.578v-18.283c0-2-1.853-4.295-3.858-3.621c-2.188,0.738-3.472,2.68-8.809,2.818
		c-5.823,0.15-6.672-1.951-8.809-2.818c-1.957-0.791-3.857,1.621-3.857,3.621v18.283H1064.656z"/>
	<rect x="1037.12" y="76.09" fill="#1B1C1C" width="30.51" height="82.563"/>
	<g>
		
			<rect x="1029.042" y="14.896" fill="#4C4E51" stroke="#070404" stroke-width="2" stroke-miterlimit="10" width="45.447" height="29.64"/>
		<g>
			<path fill="#E4E4E4" d="M1069.384,18.812c0-0.967-0.783-1.75-1.749-1.75h-31.828c-0.966,0-1.749,0.783-1.749,1.75v21.808
				c0,0.965,0.783,1.748,1.749,1.748h31.828c0.966,0,1.749-0.783,1.749-1.748V18.812z"/>
			<rect x="1034.058" y="23.853" fill="#815DA4" width="35.326" height="5.863"/>
			<rect x="1034.058" y="29.716" fill="#1B1C1C" width="35.326" height="12.651"/>
		</g>
	</g>
</g>
<g>
	<g>
		<rect x="1082.262" y="196.66" fill="#818181" width="48.479" height="33.533"/>
		<g>
			<polygon fill="#050001" points="1127.444,214.244 1127.444,215.764 1125.828,215.764 1125.828,220.854 1116.825,220.854 
				1116.825,225.295 1112.208,225.295 1112.208,230.174 1109.784,230.174 1108.36,230.174 1104.974,230.174 1103.664,230.174 
				1101.127,230.174 1101.127,225.295 1096.508,225.295 1096.508,220.854 1087.505,220.854 1087.505,215.764 1085.888,215.764 
				1085.888,214.244 1088.58,214.244 1088.58,207.633 1085.888,207.633 1085.888,206.334 1087.427,206.334 1087.427,201.672 
				1103.664,201.672 1104.974,201.672 1108.36,201.672 1109.784,201.672 1125.982,201.672 1125.982,206.334 1127.444,206.334 
				1127.444,207.633 1124.983,207.633 1124.983,214.244 			"/>
		</g>
	</g>
	
		<linearGradient id="SVGID_62_" gradientUnits="userSpaceOnUse" x1="-8152.5859" y1="6059.543" x2="-8152.5859" y2="6254.105" gradientTransform="matrix(-1 0 0 -1 -7050.022 6270.5449)">
		<stop  offset="0" style="stop-color:#222427"/>
		<stop  offset="0.1584" style="stop-color:#2B2D2F"/>
		<stop  offset="0.4153" style="stop-color:#424546"/>
		<stop  offset="0.4785" style="stop-color:#494C4D"/>
		<stop  offset="0.9301" style="stop-color:#434648"/>
		<stop  offset="0.957" style="stop-color:#4C4E51"/>
		<stop  offset="0.9631" style="stop-color:#3E4042"/>
		<stop  offset="0.9731" style="stop-color:#2A2C2D"/>
		<stop  offset="0.9741" style="stop-color:#282A2B"/>
		<stop  offset="0.9907" style="stop-color:#0E0C0C"/>
		<stop  offset="1" style="stop-color:#040000"/>
	</linearGradient>
	<rect x="1079.841" y="14.897" fill="url(#SVGID_62_)" width="45.447" height="196.104"/>
	
		<radialGradient id="SVGID_63_" cx="-7584.8213" cy="6704.0156" r="34.4263" gradientTransform="matrix(-1.0901 0 0 -0.8961 -7165.6929 6124.8403)" gradientUnits="userSpaceOnUse">
		<stop  offset="0" style="stop-color:#A1A0A0"/>
		<stop  offset="1" style="stop-color:#262727"/>
	</radialGradient>
	<rect x="1085.352" y="76.09" fill="url(#SVGID_63_)" stroke="#1E1F1F" stroke-miterlimit="10" width="34.337" height="82.563"/>
	<rect x="1079.841" y="211.814" fill="#3B3C3F" width="45.447" height="19.465"/>
	<rect x="1085.352" y="163.186" fill="#1B1C1C" width="34.337" height="42.068"/>
	<polygon fill="#0C0C0C" points="1105.009,158.652 1107.676,154.852 1105.009,151.055 1099.673,151.055 1097.003,154.852 
		1099.673,158.652 	"/>
	<polygon fill="#0C0C0C" points="1105.009,149.045 1107.676,145.246 1105.009,141.445 1099.673,141.445 1097.003,145.246 
		1099.673,149.045 	"/>
	<polygon fill="#0C0C0C" points="1105.009,139.982 1107.676,136.184 1105.009,132.385 1099.673,132.385 1097.003,136.184 
		1099.673,139.982 	"/>
	<polygon fill="#0C0C0C" points="1105.009,130.377 1107.676,126.578 1105.009,122.779 1099.673,122.779 1097.003,126.578 
		1099.673,130.377 	"/>
	<polygon fill="#0C0C0C" points="1105.009,121.301 1107.676,117.502 1105.009,113.703 1099.673,113.703 1097.003,117.502 
		1099.673,121.301 	"/>
	<polygon fill="#0C0C0C" points="1105.009,111.695 1107.676,107.896 1105.009,104.098 1099.673,104.098 1097.003,107.896 
		1099.673,111.695 	"/>
	<polygon fill="#0C0C0C" points="1105.009,102.633 1107.676,98.834 1105.009,95.035 1099.673,95.035 1097.003,98.834 
		1099.673,102.633 	"/>
	<polygon fill="#0C0C0C" points="1105.009,93.029 1107.676,89.227 1105.009,85.428 1099.673,85.428 1097.003,89.227 
		1099.673,93.029 	"/>
	<polygon fill="#0C0C0C" points="1105.009,83.746 1107.676,79.947 1105.009,76.148 1099.673,76.148 1097.003,79.947 
		1099.673,83.746 	"/>
	<polygon fill="#0C0C0C" points="1115.313,154.084 1117.98,150.283 1115.313,146.486 1109.977,146.486 1107.308,150.283 
		1109.977,154.084 	"/>
	<polygon fill="#0C0C0C" points="1115.313,144.477 1117.98,140.676 1115.313,136.879 1109.977,136.879 1107.308,140.676 
		1109.977,144.477 	"/>
	<polygon fill="#0C0C0C" points="1115.313,135.414 1117.98,131.615 1115.313,127.816 1109.977,127.816 1107.308,131.615 
		1109.977,135.414 	"/>
	<polygon fill="#0C0C0C" points="1115.313,125.807 1117.98,122.01 1115.313,118.209 1109.977,118.209 1107.308,122.01 
		1109.977,125.807 	"/>
	<polygon fill="#0C0C0C" points="1115.313,116.73 1117.98,112.934 1115.313,109.133 1109.977,109.133 1107.308,112.934 
		1109.977,116.73 	"/>
	<polygon fill="#0C0C0C" points="1115.313,107.127 1117.98,103.326 1115.313,99.527 1109.977,99.527 1107.308,103.326 
		1109.977,107.127 	"/>
	<polygon fill="#0C0C0C" points="1115.313,98.064 1117.98,94.266 1115.313,90.467 1109.977,90.467 1107.308,94.266 1109.977,98.064 
			"/>
	<polygon fill="#0C0C0C" points="1115.313,88.459 1117.98,84.66 1115.313,80.859 1109.977,80.859 1107.308,84.66 1109.977,88.459 	
		"/>
	<polygon fill="#0C0C0C" points="1095.153,154.084 1097.821,150.283 1095.153,146.486 1089.818,146.486 1087.149,150.283 
		1089.818,154.084 	"/>
	<polygon fill="#0C0C0C" points="1095.153,144.477 1097.821,140.676 1095.153,136.879 1089.818,136.879 1087.149,140.676 
		1089.818,144.477 	"/>
	<polygon fill="#0C0C0C" points="1095.153,135.414 1097.821,131.615 1095.153,127.816 1089.818,127.816 1087.149,131.615 
		1089.818,135.414 	"/>
	<polygon fill="#0C0C0C" points="1095.153,125.807 1097.821,122.01 1095.153,118.209 1089.818,118.209 1087.149,122.01 
		1089.818,125.807 	"/>
	<polygon fill="#0C0C0C" points="1095.153,116.73 1097.821,112.934 1095.153,109.133 1089.818,109.133 1087.149,112.934 
		1089.818,116.73 	"/>
	<polygon fill="#0C0C0C" points="1095.153,107.127 1097.821,103.326 1095.153,99.527 1089.818,99.527 1087.149,103.326 
		1089.818,107.127 	"/>
	<polygon fill="#0C0C0C" points="1095.153,98.064 1097.821,94.266 1095.153,90.467 1089.818,90.467 1087.149,94.266 
		1089.818,98.064 	"/>
	<polygon fill="#0C0C0C" points="1095.153,88.459 1097.821,84.66 1095.153,80.859 1089.818,80.859 1087.149,84.66 1089.818,88.459 	
		"/>
	<rect x="1111.54" y="222.93" fill="#71B74E" width="6.119" height="2.768"/>
	<rect x="1089.684" y="222.93" fill="#6B6B6B" width="6.119" height="2.768"/>
	<linearGradient id="SVGID_64_" gradientUnits="userSpaceOnUse" x1="1102.3398" y1="198.5781" x2="1102.3398" y2="176.5195">
		<stop  offset="0" style="stop-color:#FFFFFF"/>
		<stop  offset="0.1452" style="stop-color:#8F6878"/>
		<stop  offset="0.2742" style="stop-color:#694954"/>
		<stop  offset="0.4624" style="stop-color:#8F6878"/>
		<stop  offset="1" style="stop-color:#694954"/>
	</linearGradient>
	<path fill="url(#SVGID_64_)" d="M1115.007,198.578v-18.283c0-2-1.854-4.295-3.858-3.621c-2.189,0.738-3.473,2.68-8.81,2.818
		c-5.823,0.15-6.672-1.951-8.809-2.818c-1.956-0.791-3.857,1.621-3.857,3.621v18.283H1115.007z"/>
	<rect x="1087.47" y="76.09" fill="#1B1C1C" width="30.511" height="82.563"/>
	<g>
		
			<rect x="1079.392" y="14.896" fill="#4C4E51" stroke="#070404" stroke-width="2" stroke-miterlimit="10" width="45.447" height="29.64"/>
		<g>
			<path fill="#E4E4E4" d="M1119.733,18.812c0-0.967-0.784-1.75-1.749-1.75h-31.827c-0.967,0-1.75,0.783-1.75,1.75v21.808
				c0,0.965,0.783,1.748,1.75,1.748h31.827c0.965,0,1.749-0.783,1.749-1.748V18.812z"/>
			<rect x="1084.407" y="23.853" fill="#815DA4" width="35.326" height="5.863"/>
			<rect x="1084.407" y="29.716" fill="#1B1C1C" width="35.326" height="12.651"/>
		</g>
	</g>
</g>
<g>
	
		<rect x="101.454" y="252.281" fill="none" stroke="#060404" stroke-width="3" stroke-miterlimit="10" width="1275.592" height="0"/>
	<rect x="101.455" y="250.275" fill="#4E4E4F" width="1275.591" height="1.006"/>
</g>
<rect x="724.422" y="8.681" fill="none" stroke="#000000" stroke-width="2.8347" stroke-miterlimit="10" width="141.168" height="151.505"/>
<g>
	<rect x="136.631" y="15.622" fill="#ACACAC" width="553.032" height="140.497"/>
	<rect x="138.596" y="13.939" fill="#100F0D" width="553.031" height="140.496"/>
	<linearGradient id="SVGID_65_" gradientUnits="userSpaceOnUse" x1="415.6782" y1="27.9609" x2="415.6782" y2="22.3511">
		<stop  offset="0.1989" style="stop-color:#717071"/>
		<stop  offset="0.5215" style="stop-color:#B1B4B5"/>
		<stop  offset="0.8118" style="stop-color:#717071"/>
	</linearGradient>
	<path fill="url(#SVGID_65_)" d="M682.282,25.156c0,1.55-1.467,2.805-3.275,2.805H152.349c-1.809,0-3.275-1.255-3.275-2.805l0,0
		c0-1.549,1.466-2.805,3.275-2.805h526.657C680.814,22.351,682.282,23.606,682.282,25.156L682.282,25.156z"/>
	<linearGradient id="SVGID_66_" gradientUnits="userSpaceOnUse" x1="415.6782" y1="44.6924" x2="415.6782" y2="39.0825">
		<stop  offset="0.1989" style="stop-color:#717071"/>
		<stop  offset="0.5215" style="stop-color:#B1B4B5"/>
		<stop  offset="0.8118" style="stop-color:#717071"/>
	</linearGradient>
	<path fill="url(#SVGID_66_)" d="M682.282,41.888c0,1.549-1.467,2.805-3.275,2.805H152.349c-1.809,0-3.275-1.255-3.275-2.805l0,0
		c0-1.55,1.466-2.805,3.275-2.805h526.657C680.814,39.083,682.282,40.338,682.282,41.888L682.282,41.888z"/>
	<linearGradient id="SVGID_67_" gradientUnits="userSpaceOnUse" x1="415.6782" y1="61.4238" x2="415.6782" y2="55.814">
		<stop  offset="0.1989" style="stop-color:#717071"/>
		<stop  offset="0.5215" style="stop-color:#B1B4B5"/>
		<stop  offset="0.8118" style="stop-color:#717071"/>
	</linearGradient>
	<path fill="url(#SVGID_67_)" d="M682.282,58.619c0,1.55-1.467,2.805-3.275,2.805H152.349c-1.809,0-3.275-1.254-3.275-2.805l0,0
		c0-1.549,1.466-2.805,3.275-2.805h526.657C680.814,55.814,682.282,57.07,682.282,58.619L682.282,58.619z"/>
	<linearGradient id="SVGID_68_" gradientUnits="userSpaceOnUse" x1="415.6782" y1="78.1553" x2="415.6782" y2="72.5459">
		<stop  offset="0.1989" style="stop-color:#717071"/>
		<stop  offset="0.5215" style="stop-color:#B1B4B5"/>
		<stop  offset="0.8118" style="stop-color:#717071"/>
	</linearGradient>
	<path fill="url(#SVGID_68_)" d="M682.282,75.351c0,1.549-1.467,2.804-3.275,2.804H152.349c-1.809,0-3.275-1.255-3.275-2.804l0,0
		c0-1.55,1.466-2.805,3.275-2.805h526.657C680.814,72.546,682.282,73.801,682.282,75.351L682.282,75.351z"/>
	<linearGradient id="SVGID_69_" gradientUnits="userSpaceOnUse" x1="415.6782" y1="94.8872" x2="415.6782" y2="89.2773">
		<stop  offset="0.1989" style="stop-color:#717071"/>
		<stop  offset="0.5215" style="stop-color:#B1B4B5"/>
		<stop  offset="0.8118" style="stop-color:#717071"/>
	</linearGradient>
	<path fill="url(#SVGID_69_)" d="M682.282,92.082c0,1.549-1.467,2.805-3.275,2.805H152.349c-1.809,0-3.275-1.256-3.275-2.805l0,0
		c0-1.549,1.466-2.805,3.275-2.805h526.657C680.814,89.277,682.282,90.533,682.282,92.082L682.282,92.082z"/>
	<linearGradient id="SVGID_70_" gradientUnits="userSpaceOnUse" x1="415.6782" y1="111.6191" x2="415.6782" y2="106.0088">
		<stop  offset="0.1989" style="stop-color:#717071"/>
		<stop  offset="0.5215" style="stop-color:#B1B4B5"/>
		<stop  offset="0.8118" style="stop-color:#717071"/>
	</linearGradient>
	<path fill="url(#SVGID_70_)" d="M682.282,108.813c0,1.55-1.467,2.806-3.275,2.806H152.349c-1.809,0-3.275-1.256-3.275-2.806l0,0
		c0-1.549,1.466-2.805,3.275-2.805h526.657C680.814,106.009,682.282,107.264,682.282,108.813L682.282,108.813z"/>
	<linearGradient id="SVGID_71_" gradientUnits="userSpaceOnUse" x1="415.6782" y1="128.3516" x2="415.6782" y2="122.7417">
		<stop  offset="0.1989" style="stop-color:#717071"/>
		<stop  offset="0.5215" style="stop-color:#B1B4B5"/>
		<stop  offset="0.8118" style="stop-color:#717071"/>
	</linearGradient>
	<path fill="url(#SVGID_71_)" d="M682.282,125.546c0,1.55-1.467,2.806-3.275,2.806H152.349c-1.809,0-3.275-1.256-3.275-2.806l0,0
		c0-1.549,1.466-2.805,3.275-2.805h526.657C680.814,122.741,682.282,123.997,682.282,125.546L682.282,125.546z"/>
	<linearGradient id="SVGID_72_" gradientUnits="userSpaceOnUse" x1="415.6782" y1="145.082" x2="415.6782" y2="139.4727">
		<stop  offset="0.1989" style="stop-color:#717071"/>
		<stop  offset="0.5215" style="stop-color:#B1B4B5"/>
		<stop  offset="0.8118" style="stop-color:#717071"/>
	</linearGradient>
	<path fill="url(#SVGID_72_)" d="M682.282,142.277c0,1.55-1.467,2.805-3.275,2.805H152.349c-1.809,0-3.275-1.255-3.275-2.805l0,0
		c0-1.549,1.466-2.805,3.275-2.805h526.657C680.814,139.473,682.282,140.729,682.282,142.277L682.282,142.277z"/>
</g>
<rect x="62.658" y="-0.001" width="2.834" height="252.283"/>
<rect x="1357.759" y="-0.001" width="2.835" height="252.283"/>
<path fill-rule="evenodd" clip-rule="evenodd" fill="#E8E8E8" d="M22.186,16.383c0,1.119,0,11.559,0,13.978
	c0,1.709,0.648,2.594,2.182,2.594c1.061,0,6.546,0,9.377,0l0.413-1.297c-3.953-1.297-5.898-4.776-5.898-8.08
	c0-3.716,2.418-6.546,5.485-7.844l0.413-1.121c-3.067,0-9.141,0-10.026,0S22.186,15.499,22.186,16.383L22.186,16.383z M51.85,16.383
	c0-0.884-0.885-1.77-1.77-1.77c-1.061,0-9.141,0-11.972,0l-0.473,1.121c5.25,0.234,8.08,4.128,8.08,7.844
	c0,3.303-2.415,7.844-7.428,8.08l-0.652,1.297c3.067,0,10.914,0,12.211,0c1.354,0,2.003-0.885,2.003-2.594
	C51.85,27.942,51.85,17.501,51.85,16.383L51.85,16.383z M37.505,21.178c0.102-0.608-0.517-1.079-1.166-1.079
	c-0.413,0-1.297,0-1.297,0l1.945-5.486h-1.945l-4.365,12.444l1.823,0.008l2.068-5.905h1.122l-2.182,5.897h1.946
	C35.455,27.057,37.466,21.411,37.505,21.178L37.505,21.178z M39.17,20.099l-4.365,12.856h1.949l1.766-5.661c0.416,0,1.297,0,2.183,0
	c0.885,0,1.097-0.6,1.323-1.262c0.178-0.468,1.586-4.647,1.647-4.876c0.129-0.484-0.274-1.033-1.024-1.057
	C42.001,20.078,39.17,20.099,39.17,20.099L39.17,20.099z M38.937,26.408l1.766-5.268l1.123,0.02l-1.771,5.249H38.937L38.937,26.408z
	"/>
<g>
	<path fill="#313133" stroke="#070404" stroke-width="3" stroke-miterlimit="10" d="M16.489,198.564
		c0,4.652,3.772,8.425,8.425,8.425H55.65c4.653,0,8.426-3.772,8.426-8.425V55.313c0-4.653-3.772-8.425-8.426-8.425H24.915
		c-4.653,0-8.425,3.772-8.425,8.425V198.564z"/>
	<linearGradient id="SVGID_73_" gradientUnits="userSpaceOnUse" x1="39.1509" y1="73.1484" x2="39.1509" y2="206.9897">
		<stop  offset="0" style="stop-color:#343535"/>
		<stop  offset="0.0555" style="stop-color:#636666"/>
		<stop  offset="0.7778" style="stop-color:#343535"/>
		<stop  offset="0.8835" style="stop-color:#636666"/>
		<stop  offset="1" style="stop-color:#030000"/>
	</linearGradient>
	<rect x="16.489" y="73.148" fill-rule="evenodd" clip-rule="evenodd" fill="url(#SVGID_73_)" width="45.323" height="133.841"/>
</g>
<g>
	<path fill="#313133" stroke="#070404" stroke-width="3" stroke-miterlimit="10" d="M1360.355,198.564
		c0,4.652,3.772,8.425,8.426,8.425h30.735c4.652,0,8.425-3.772,8.425-8.425V55.313c0-4.653-3.772-8.425-8.425-8.425h-30.735
		c-4.653,0-8.426,3.772-8.426,8.425V198.564z"/>
	<linearGradient id="SVGID_74_" gradientUnits="userSpaceOnUse" x1="1383.0176" y1="73.1484" x2="1383.0176" y2="206.9897">
		<stop  offset="0" style="stop-color:#343535"/>
		<stop  offset="0.0555" style="stop-color:#636666"/>
		<stop  offset="0.7778" style="stop-color:#343535"/>
		<stop  offset="0.8835" style="stop-color:#636666"/>
		<stop  offset="1" style="stop-color:#030000"/>
	</linearGradient>
	<rect x="1360.355" y="73.148" fill-rule="evenodd" clip-rule="evenodd" fill="url(#SVGID_74_)" width="45.323" height="133.841"/>
</g>
<rect x="127.733" y="198.948" fill="#17191D" width="24.93" height="12.125"/>
<text transform="matrix(1.0623 0 0 1 949.3047 9.916)" fill="#FFFFFF" font-family="'SimHei'" font-size="9.9793">1</text>
<text transform="matrix(1.0623 0 0 1 999.1934 9.916)" fill="#FFFFFF" font-family="'SimHei'" font-size="9.9793">2</text>
<text transform="matrix(1.0623 0 0 1 1049.082 9.916)" fill="#FFFFFF" font-family="'SimHei'" font-size="9.9793">3</text>
<text transform="matrix(1.0623 0 0 1 1098.9717 9.916)" fill="#FFFFFF" font-family="'SimHei'" font-size="9.9793">4</text>
<text transform="matrix(1.0623 0 0 1 1148.8604 9.916)" fill="#FFFFFF" font-family="'SimHei'" font-size="9.9793">5</text>
<text transform="matrix(1.0623 0 0 1 1198.749 9.916)" fill="#FFFFFF" font-family="'SimHei'" font-size="9.9793">6</text>
<text transform="matrix(1.0623 0 0 1 1248.6377 9.916)" fill="#FFFFFF" font-family="'SimHei'" font-size="9.9793">7</text>
<text transform="matrix(1.0623 0 0 1 1298.5264 9.916)" fill="#FFFFFF" font-family="'SimHei'" font-size="9.9793">8</text>
</svg>
