<?xml version="1.0" encoding="utf-8"?>
<!-- Generator: Adobe Illustrator 16.0.0, SVG Export Plug-In . SVG Version: 6.00 Build 0)  -->
<!DOCTYPE svg PUBLIC "-//W3C//DTD SVG 1.1//EN" "http://www.w3.org/Graphics/SVG/1.1/DTD/svg11.dtd">
<svg version="1.1" id="图层_1" xmlns="http://www.w3.org/2000/svg" xmlns:xlink="http://www.w3.org/1999/xlink" x="0px" y="0px"
	 width="1417.32px" height="126.14px" viewBox="0 0 1417.32 126.14" enable-background="new 0 0 1417.32 126.14"
	 xml:space="preserve">
<linearGradient id="SVGID_1_" gradientUnits="userSpaceOnUse" x1="708.6597" y1="126.1406" x2="708.6597" y2="0">
	<stop  offset="0.0161" style="stop-color:#030000"/>
	<stop  offset="0.0322" style="stop-color:#343535"/>
	<stop  offset="0.0699" style="stop-color:#1F2020"/>
	<stop  offset="0.8118" style="stop-color:#515151"/>
	<stop  offset="0.9462" style="stop-color:#636666"/>
	<stop  offset="1" style="stop-color:#030000"/>
</linearGradient>
<rect x="-0.002" y="0" fill="url(#SVGID_1_)" width="1417.323" height="126.141"/>
<linearGradient id="SVGID_2_" gradientUnits="userSpaceOnUse" x1="4085.3574" y1="63.0703" x2="4156.2236" y2="63.0703" gradientTransform="matrix(1 0 0 1 -4085.3594 0)">
	<stop  offset="0" style="stop-color:#B5B5B6"/>
	<stop  offset="0.7778" style="stop-color:#9FA0A0"/>
	<stop  offset="0.8835" style="stop-color:#DCDDDD"/>
	<stop  offset="1" style="stop-color:#595757"/>
</linearGradient>
<rect x="-0.002" y="0" fill="url(#SVGID_2_)" width="70.866" height="126.141"/>
<g>
	<g>
		<path fill="#B7B6B6" d="M47,15.367c0,3.932-3.386,7.12-7.562,7.12H23.124c-4.177,0-7.563-3.188-7.563-7.12l0,0
			c0-3.931,3.386-7.117,7.563-7.117h16.314C43.614,8.25,47,11.436,47,15.367L47,15.367z"/>
		<path fill="#0E0D0D" d="M46.106,15.166c0,3.819-3.289,6.917-7.346,6.917H22.91c-4.06,0-7.349-3.097-7.349-6.917l0,0
			c0-3.82,3.289-6.916,7.349-6.916h15.851C42.817,8.25,46.106,11.345,46.106,15.166L46.106,15.166z"/>
	</g>
	<g>
		<path fill="#B7B6B6" d="M47,110.771c0,3.932-3.386,7.119-7.562,7.119H23.124c-4.177,0-7.563-3.188-7.563-7.119l0,0
			c0-3.932,3.386-7.119,7.563-7.119h16.314C43.614,103.652,47,106.84,47,110.771L47,110.771z"/>
		<path fill="#0E0D0D" d="M46.106,110.57c0,3.818-3.289,6.916-7.346,6.916H22.91c-4.06,0-7.349-3.098-7.349-6.916l0,0
			c0-3.82,3.289-6.918,7.349-6.918h15.851C42.817,103.652,46.106,106.75,46.106,110.57L46.106,110.57z"/>
	</g>
</g>
<g>
	<path fill="#AFAEAE" d="M21.015,15.369c0,5.365,4.597,9.716,10.267,9.716s10.266-4.351,10.266-9.716
		c0-5.367-4.596-9.719-10.266-9.719S21.015,10.001,21.015,15.369"/>
	<ellipse fill="none" stroke="#929292" stroke-miterlimit="10" cx="31.281" cy="15.369" rx="10.266" ry="9.716"/>
	<path fill="#AFAEAE" d="M23.738,15.369c0,3.941,3.378,7.139,7.543,7.139c4.166,0,7.545-3.197,7.545-7.139
		c0-3.943-3.379-7.142-7.545-7.142C27.116,8.227,23.738,11.425,23.738,15.369"/>
	<ellipse fill="none" stroke="#929292" stroke-miterlimit="10" cx="31.282" cy="15.369" rx="7.544" ry="7.139"/>
	<g>
		<g>
			<defs>
				<rect id="SVGID_3_" x="24.172" y="8.639" width="14.221" height="13.457"/>
			</defs>
			<clipPath id="SVGID_4_">
				<use xlink:href="#SVGID_3_"  overflow="visible"/>
			</clipPath>
			<path clip-path="url(#SVGID_4_)" fill="#BEBEBD" d="M24.172,15.369c0,3.715,3.184,6.727,7.109,6.727
				c3.928,0,7.111-3.012,7.111-6.727c0-3.717-3.184-6.73-7.111-6.73C27.355,8.639,24.172,11.652,24.172,15.369"/>
			<path clip-path="url(#SVGID_4_)" fill="#C0C0C0" d="M24.34,15.369c0,3.627,3.108,6.568,6.941,6.568
				c3.834,0,6.941-2.941,6.941-6.568c0-3.629-3.107-6.572-6.941-6.572C27.448,8.796,24.34,11.74,24.34,15.369"/>
			<path clip-path="url(#SVGID_4_)" fill="#C2C3C3" d="M24.507,15.369c0,3.539,3.034,6.412,6.774,6.412
				c3.742,0,6.775-2.873,6.775-6.412c0-3.543-3.033-6.414-6.775-6.414C27.541,8.955,24.507,11.826,24.507,15.369"/>
			<path clip-path="url(#SVGID_4_)" fill="#C4C5C4" d="M24.675,15.369c0,3.452,2.957,6.253,6.606,6.253s6.608-2.801,6.608-6.253
				c0-3.455-2.959-6.255-6.608-6.255S24.675,11.914,24.675,15.369"/>
			<path clip-path="url(#SVGID_4_)" fill="#C6C8C8" d="M24.842,15.369c0,3.363,2.885,6.095,6.439,6.095
				c3.558,0,6.44-2.731,6.44-6.095c0-3.367-2.883-6.098-6.44-6.098C27.727,9.271,24.842,12.001,24.842,15.369"/>
			<path clip-path="url(#SVGID_4_)" fill="#C9CACB" d="M25.009,15.369c0,3.277,2.809,5.936,6.272,5.936
				c3.465,0,6.274-2.658,6.274-5.936c0-3.28-2.81-5.939-6.274-5.939C27.817,9.429,25.009,12.088,25.009,15.369"/>
			<path clip-path="url(#SVGID_4_)" fill="#CBCDCD" d="M25.175,15.369c0,3.189,2.735,5.779,6.106,5.779
				c3.373,0,6.106-2.59,6.106-5.779c0-3.193-2.733-5.782-6.106-5.782C27.91,9.586,25.175,12.175,25.175,15.369"/>
			<path clip-path="url(#SVGID_4_)" fill="#CCCFD0" d="M25.342,15.369c0,3.103,2.661,5.62,5.939,5.62
				c3.279,0,5.939-2.518,5.939-5.62c0-3.105-2.66-5.622-5.939-5.622C28.003,9.747,25.342,12.264,25.342,15.369"/>
			<path clip-path="url(#SVGID_4_)" fill="#D0D2D2" d="M25.51,15.369c0,3.015,2.584,5.461,5.771,5.461s5.771-2.446,5.771-5.461
				c0-3.019-2.584-5.465-5.771-5.465S25.51,12.35,25.51,15.369"/>
			<path clip-path="url(#SVGID_4_)" fill="#D2D4D5" d="M25.677,15.369c0,2.928,2.511,5.303,5.604,5.303
				c3.098,0,5.604-2.375,5.604-5.303c0-2.932-2.507-5.305-5.604-5.305C28.188,10.064,25.677,12.437,25.677,15.369"/>
		</g>
	</g>
	<polygon fill="#605F5E" points="32.211,19.414 32.211,16.248 35.556,16.248 35.556,14.488 32.211,14.488 32.211,11.322 
		30.353,11.322 30.353,14.488 27.007,14.488 27.007,16.248 30.353,16.248 30.353,19.414 	"/>
	<path fill="#221714" d="M32.049,11.474v2.861v0.306h0.322h3.025v1.452h-3.025h-0.322v0.305v2.861h-1.535v-2.861v-0.305h-0.32
		h-3.025v-1.452h3.025h0.32v-0.306v-2.861H32.049z M30.193,14.335h-3.347v2.063h3.347v3.166h2.178v-3.166h3.346v-2.063h-3.346
		v-3.166h-2.178V14.335z"/>
</g>
<g>
	<path fill="#AFAEAE" d="M21.015,110.773c0,5.365,4.597,9.715,10.267,9.715s10.266-4.35,10.266-9.715
		c0-5.367-4.596-9.719-10.266-9.719S21.015,105.406,21.015,110.773"/>
	<ellipse fill="none" stroke="#929292" stroke-miterlimit="10" cx="31.281" cy="110.773" rx="10.266" ry="9.715"/>
	<path fill="#AFAEAE" d="M23.738,110.773c0,3.941,3.378,7.139,7.543,7.139c4.166,0,7.545-3.197,7.545-7.139
		c0-3.945-3.379-7.143-7.545-7.143C27.116,103.631,23.738,106.828,23.738,110.773"/>
	<ellipse fill="none" stroke="#929292" stroke-miterlimit="10" cx="31.282" cy="110.773" rx="7.544" ry="7.139"/>
	<g>
		<g>
			<defs>
				<rect id="SVGID_5_" x="24.172" y="104.043" width="14.221" height="13.457"/>
			</defs>
			<clipPath id="SVGID_6_">
				<use xlink:href="#SVGID_5_"  overflow="visible"/>
			</clipPath>
			<path clip-path="url(#SVGID_6_)" fill="#BEBEBD" d="M24.172,110.773c0,3.715,3.184,6.727,7.109,6.727
				c3.928,0,7.111-3.012,7.111-6.727c0-3.717-3.184-6.73-7.111-6.73C27.355,104.043,24.172,107.057,24.172,110.773"/>
			<path clip-path="url(#SVGID_6_)" fill="#C0C0C0" d="M24.34,110.773c0,3.627,3.108,6.568,6.941,6.568
				c3.834,0,6.941-2.941,6.941-6.568c0-3.631-3.107-6.572-6.941-6.572C27.448,104.201,24.34,107.143,24.34,110.773"/>
			<path clip-path="url(#SVGID_6_)" fill="#C2C3C3" d="M24.507,110.773c0,3.539,3.034,6.412,6.774,6.412
				c3.742,0,6.775-2.873,6.775-6.412c0-3.543-3.033-6.414-6.775-6.414C27.541,104.359,24.507,107.23,24.507,110.773"/>
			<path clip-path="url(#SVGID_6_)" fill="#C4C5C4" d="M24.675,110.773c0,3.451,2.957,6.252,6.606,6.252s6.608-2.801,6.608-6.252
				c0-3.455-2.959-6.256-6.608-6.256S24.675,107.318,24.675,110.773"/>
			<path clip-path="url(#SVGID_6_)" fill="#C6C8C8" d="M24.842,110.773c0,3.363,2.885,6.094,6.439,6.094
				c3.558,0,6.44-2.73,6.44-6.094c0-3.367-2.883-6.098-6.44-6.098C27.727,104.676,24.842,107.406,24.842,110.773"/>
			<path clip-path="url(#SVGID_6_)" fill="#C9CACB" d="M25.009,110.773c0,3.277,2.809,5.936,6.272,5.936
				c3.465,0,6.274-2.658,6.274-5.936c0-3.281-2.81-5.939-6.274-5.939C27.817,104.834,25.009,107.492,25.009,110.773"/>
			<path clip-path="url(#SVGID_6_)" fill="#CBCDCD" d="M25.175,110.773c0,3.189,2.735,5.777,6.106,5.777
				c3.373,0,6.106-2.588,6.106-5.777c0-3.193-2.733-5.781-6.106-5.781C27.91,104.992,25.175,107.58,25.175,110.773"/>
			<path clip-path="url(#SVGID_6_)" fill="#CCCFD0" d="M25.342,110.773c0,3.104,2.661,5.619,5.939,5.619
				c3.279,0,5.939-2.516,5.939-5.619c0-3.105-2.66-5.623-5.939-5.623C28.003,105.15,25.342,107.668,25.342,110.773"/>
			<path clip-path="url(#SVGID_6_)" fill="#D0D2D2" d="M25.51,110.773c0,3.014,2.584,5.461,5.771,5.461s5.771-2.447,5.771-5.461
				c0-3.02-2.584-5.465-5.771-5.465S25.51,107.754,25.51,110.773"/>
			<path clip-path="url(#SVGID_6_)" fill="#D2D4D5" d="M25.677,110.773c0,2.928,2.511,5.303,5.604,5.303
				c3.098,0,5.604-2.375,5.604-5.303c0-2.932-2.507-5.305-5.604-5.305C28.188,105.469,25.677,107.842,25.677,110.773"/>
		</g>
	</g>
	<polygon fill="#605F5E" points="32.211,114.818 32.211,111.652 35.556,111.652 35.556,109.893 32.211,109.893 32.211,106.727 
		30.353,106.727 30.353,109.893 27.007,109.893 27.007,111.652 30.353,111.652 30.353,114.818 	"/>
	<path fill="#221714" d="M32.049,106.879v2.861v0.305h0.322h3.025v1.453h-3.025h-0.322v0.305v2.861h-1.535v-2.861v-0.305h-0.32
		h-3.025v-1.453h3.025h0.32v-0.305v-2.861H32.049z M30.193,109.74h-3.347v2.063h3.347v3.166h2.178v-3.166h3.346v-2.063h-3.346
		v-3.166h-2.178V109.74z"/>
</g>
<linearGradient id="SVGID_7_" gradientUnits="userSpaceOnUse" x1="-9416.873" y1="63.0703" x2="-9346.0078" y2="63.0703" gradientTransform="matrix(-1 0 0 1 -7999.5522 0)">
	<stop  offset="0" style="stop-color:#B5B5B6"/>
	<stop  offset="0.7778" style="stop-color:#9FA0A0"/>
	<stop  offset="0.8835" style="stop-color:#DCDDDD"/>
	<stop  offset="1" style="stop-color:#595757"/>
</linearGradient>
<rect x="1346.456" y="0" fill="url(#SVGID_7_)" width="70.865" height="126.141"/>
<g>
	<g>
		<path fill="#B7B6B6" d="M1370.319,15.367c0,3.932,3.386,7.12,7.563,7.12h16.314c4.176,0,7.563-3.188,7.563-7.12l0,0
			c0-3.931-3.387-7.117-7.563-7.117h-16.314C1373.705,8.25,1370.319,11.436,1370.319,15.367L1370.319,15.367z"/>
		<path fill="#0E0D0D" d="M1371.214,15.166c0,3.819,3.287,6.917,7.346,6.917h15.85c4.059,0,7.35-3.097,7.35-6.917l0,0
			c0-3.82-3.291-6.916-7.35-6.916h-15.85C1374.501,8.25,1371.214,11.345,1371.214,15.166L1371.214,15.166z"/>
	</g>
	<g>
		<path fill="#B7B6B6" d="M1370.319,110.771c0,3.932,3.386,7.119,7.563,7.119h16.314c4.176,0,7.563-3.188,7.563-7.119l0,0
			c0-3.932-3.387-7.119-7.563-7.119h-16.314C1373.705,103.652,1370.319,106.84,1370.319,110.771L1370.319,110.771z"/>
		<path fill="#0E0D0D" d="M1371.214,110.57c0,3.818,3.287,6.916,7.346,6.916h15.85c4.059,0,7.35-3.098,7.35-6.916l0,0
			c0-3.82-3.291-6.918-7.35-6.918h-15.85C1374.501,103.652,1371.214,106.75,1371.214,110.57L1371.214,110.57z"/>
	</g>
</g>
<g>
	<path fill="#AFAEAE" d="M1396.305,15.369c0,5.365-4.597,9.716-10.266,9.716c-5.671,0-10.267-4.351-10.267-9.716
		c0-5.367,4.596-9.719,10.267-9.719C1391.708,5.65,1396.305,10.001,1396.305,15.369"/>
	<ellipse fill="none" stroke="#929292" stroke-miterlimit="10" cx="1386.039" cy="15.369" rx="10.266" ry="9.716"/>
	<path fill="#AFAEAE" d="M1393.581,15.369c0,3.941-3.377,7.139-7.542,7.139c-4.167,0-7.546-3.197-7.546-7.139
		c0-3.943,3.379-7.142,7.546-7.142C1390.204,8.227,1393.581,11.425,1393.581,15.369"/>
	<ellipse fill="none" stroke="#929292" stroke-miterlimit="10" cx="1386.037" cy="15.369" rx="7.544" ry="7.139"/>
	<g>
		<g>
			<defs>
				<rect id="SVGID_8_" x="1378.927" y="8.639" width="14.221" height="13.457"/>
			</defs>
			<clipPath id="SVGID_9_">
				<use xlink:href="#SVGID_8_"  overflow="visible"/>
			</clipPath>
			<path clip-path="url(#SVGID_9_)" fill="#BEBEBD" d="M1393.147,15.369c0,3.715-3.184,6.727-7.108,6.727
				c-3.928,0-7.112-3.012-7.112-6.727c0-3.717,3.185-6.73,7.112-6.73C1389.964,8.639,1393.147,11.652,1393.147,15.369"/>
			<path clip-path="url(#SVGID_9_)" fill="#C0C0C0" d="M1392.979,15.369c0,3.627-3.108,6.568-6.94,6.568
				c-3.835,0-6.942-2.941-6.942-6.568c0-3.629,3.107-6.572,6.942-6.572C1389.871,8.796,1392.979,11.74,1392.979,15.369"/>
			<path clip-path="url(#SVGID_9_)" fill="#C2C3C3" d="M1392.813,15.369c0,3.539-3.035,6.412-6.774,6.412
				c-3.743,0-6.776-2.873-6.776-6.412c0-3.543,3.033-6.414,6.776-6.414C1389.778,8.955,1392.813,11.826,1392.813,15.369"/>
			<path clip-path="url(#SVGID_9_)" fill="#C4C5C4" d="M1392.646,15.369c0,3.452-2.958,6.253-6.606,6.253
				c-3.65,0-6.608-2.801-6.608-6.253c0-3.455,2.958-6.255,6.608-6.255C1389.688,9.114,1392.646,11.914,1392.646,15.369"/>
			<path clip-path="url(#SVGID_9_)" fill="#C6C8C8" d="M1392.478,15.369c0,3.363-2.884,6.095-6.438,6.095
				c-3.558,0-6.44-2.731-6.44-6.095c0-3.367,2.883-6.098,6.44-6.098C1389.594,9.271,1392.478,12.001,1392.478,15.369"/>
			<path clip-path="url(#SVGID_9_)" fill="#C9CACB" d="M1392.312,15.369c0,3.277-2.811,5.936-6.272,5.936
				c-3.465,0-6.274-2.658-6.274-5.936c0-3.28,2.81-5.939,6.274-5.939C1389.501,9.429,1392.312,12.088,1392.312,15.369"/>
			<path clip-path="url(#SVGID_9_)" fill="#CBCDCD" d="M1392.146,15.369c0,3.189-2.736,5.779-6.106,5.779
				c-3.374,0-6.106-2.59-6.106-5.779c0-3.193,2.732-5.782,6.106-5.782C1389.409,9.586,1392.146,12.175,1392.146,15.369"/>
			<path clip-path="url(#SVGID_9_)" fill="#CCCFD0" d="M1391.978,15.369c0,3.103-2.66,5.62-5.938,5.62c-3.28,0-5.94-2.518-5.94-5.62
				c0-3.105,2.66-5.622,5.94-5.622C1389.317,9.747,1391.978,12.264,1391.978,15.369"/>
			<path clip-path="url(#SVGID_9_)" fill="#D0D2D2" d="M1391.81,15.369c0,3.015-2.584,5.461-5.771,5.461
				c-3.188,0-5.772-2.446-5.772-5.461c0-3.019,2.584-5.465,5.772-5.465C1389.226,9.904,1391.81,12.35,1391.81,15.369"/>
			<path clip-path="url(#SVGID_9_)" fill="#D2D4D5" d="M1391.644,15.369c0,2.928-2.51,5.303-5.604,5.303
				c-3.098,0-5.604-2.375-5.604-5.303c0-2.932,2.507-5.305,5.604-5.305C1389.134,10.064,1391.644,12.437,1391.644,15.369"/>
		</g>
	</g>
	<polygon fill="#605F5E" points="1385.109,19.414 1385.109,16.248 1381.765,16.248 1381.765,14.488 1385.109,14.488 
		1385.109,11.322 1386.968,11.322 1386.968,14.488 1390.313,14.488 1390.313,16.248 1386.968,16.248 1386.968,19.414 	"/>
	<path fill="#221714" d="M1386.806,11.474v2.861v0.306h0.321h3.024v1.452h-3.024h-0.321v0.305v2.861h-1.535v-2.861v-0.305h-0.322
		h-3.024v-1.452h3.024h0.322v-0.306v-2.861H1386.806z M1387.127,11.169h-2.179v3.166h-3.346v2.063h3.346v3.166h2.179v-3.166h3.346
		v-2.063h-3.346V11.169z"/>
</g>
<g>
	<path fill="#AFAEAE" d="M1396.305,110.773c0,5.365-4.597,9.715-10.266,9.715c-5.671,0-10.267-4.35-10.267-9.715
		c0-5.367,4.596-9.719,10.267-9.719C1391.708,101.055,1396.305,105.406,1396.305,110.773"/>
	<ellipse fill="none" stroke="#929292" stroke-miterlimit="10" cx="1386.039" cy="110.773" rx="10.266" ry="9.715"/>
	<path fill="#AFAEAE" d="M1393.581,110.773c0,3.941-3.377,7.139-7.542,7.139c-4.167,0-7.546-3.197-7.546-7.139
		c0-3.945,3.379-7.143,7.546-7.143C1390.204,103.631,1393.581,106.828,1393.581,110.773"/>
	<path fill="none" stroke="#929292" stroke-miterlimit="10" d="M1393.581,110.773c0,3.941-3.377,7.139-7.542,7.139
		c-4.167,0-7.546-3.197-7.546-7.139c0-3.945,3.379-7.143,7.546-7.143C1390.204,103.631,1393.581,106.828,1393.581,110.773z"/>
	<g>
		<g>
			<defs>
				<rect id="SVGID_10_" x="1378.927" y="104.043" width="14.221" height="13.457"/>
			</defs>
			<clipPath id="SVGID_11_">
				<use xlink:href="#SVGID_10_"  overflow="visible"/>
			</clipPath>
			<path clip-path="url(#SVGID_11_)" fill="#BEBEBD" d="M1393.147,110.773c0,3.715-3.184,6.727-7.108,6.727
				c-3.928,0-7.112-3.012-7.112-6.727c0-3.717,3.185-6.73,7.112-6.73C1389.964,104.043,1393.147,107.057,1393.147,110.773"/>
			<path clip-path="url(#SVGID_11_)" fill="#C0C0C0" d="M1392.979,110.773c0,3.627-3.108,6.568-6.94,6.568
				c-3.835,0-6.942-2.941-6.942-6.568c0-3.631,3.107-6.572,6.942-6.572C1389.871,104.201,1392.979,107.143,1392.979,110.773"/>
			<path clip-path="url(#SVGID_11_)" fill="#C2C3C3" d="M1392.813,110.773c0,3.539-3.035,6.412-6.774,6.412
				c-3.743,0-6.776-2.873-6.776-6.412c0-3.543,3.033-6.414,6.776-6.414C1389.778,104.359,1392.813,107.23,1392.813,110.773"/>
			<path clip-path="url(#SVGID_11_)" fill="#C4C5C4" d="M1392.646,110.773c0,3.451-2.958,6.252-6.606,6.252
				c-3.65,0-6.608-2.801-6.608-6.252c0-3.455,2.958-6.256,6.608-6.256C1389.688,104.518,1392.646,107.318,1392.646,110.773"/>
			<path clip-path="url(#SVGID_11_)" fill="#C6C8C8" d="M1392.478,110.773c0,3.363-2.884,6.094-6.438,6.094
				c-3.558,0-6.44-2.73-6.44-6.094c0-3.367,2.883-6.098,6.44-6.098C1389.594,104.676,1392.478,107.406,1392.478,110.773"/>
			<path clip-path="url(#SVGID_11_)" fill="#C9CACB" d="M1392.312,110.773c0,3.277-2.811,5.936-6.272,5.936
				c-3.465,0-6.274-2.658-6.274-5.936c0-3.281,2.81-5.939,6.274-5.939C1389.501,104.834,1392.312,107.492,1392.312,110.773"/>
			<path clip-path="url(#SVGID_11_)" fill="#CBCDCD" d="M1392.146,110.773c0,3.189-2.736,5.777-6.106,5.777
				c-3.374,0-6.106-2.588-6.106-5.777c0-3.193,2.732-5.781,6.106-5.781C1389.409,104.992,1392.146,107.58,1392.146,110.773"/>
			<path clip-path="url(#SVGID_11_)" fill="#CCCFD0" d="M1391.978,110.773c0,3.104-2.66,5.619-5.938,5.619
				c-3.28,0-5.94-2.516-5.94-5.619c0-3.105,2.66-5.623,5.94-5.623C1389.317,105.15,1391.978,107.668,1391.978,110.773"/>
			<path clip-path="url(#SVGID_11_)" fill="#D0D2D2" d="M1391.81,110.773c0,3.014-2.584,5.461-5.771,5.461
				c-3.188,0-5.772-2.447-5.772-5.461c0-3.02,2.584-5.465,5.772-5.465C1389.226,105.309,1391.81,107.754,1391.81,110.773"/>
			<path clip-path="url(#SVGID_11_)" fill="#D2D4D5" d="M1391.644,110.773c0,2.928-2.51,5.303-5.604,5.303
				c-3.098,0-5.604-2.375-5.604-5.303c0-2.932,2.507-5.305,5.604-5.305C1389.134,105.469,1391.644,107.842,1391.644,110.773"/>
		</g>
	</g>
	<polygon fill="#605F5E" points="1385.109,114.818 1385.109,111.652 1381.765,111.652 1381.765,109.893 1385.109,109.893 
		1385.109,106.727 1386.968,106.727 1386.968,109.893 1390.313,109.893 1390.313,111.652 1386.968,111.652 1386.968,114.818 	"/>
	<path fill="#221714" d="M1386.806,106.879v2.861v0.305h0.321h3.024v1.453h-3.024h-0.321v0.305v2.861h-1.535v-2.861v-0.305h-0.322
		h-3.024v-1.453h3.024h0.322v-0.305v-2.861H1386.806z M1387.127,106.574h-2.179v3.166h-3.346v2.063h3.346v3.166h2.179v-3.166h3.346
		v-2.063h-3.346V106.574z"/>
</g>
<rect x="70.864" y="22.322" fill="#EAEAEA" width="1275.592" height="3.844"/>
<rect x="70.864" y="45.332" fill="#D7D8D6" width="261.936" height="58.711"/>
<rect x="70.864" y="0" width="2.936" height="126.141"/>
<rect x="1344.988" y="0" width="2.935" height="126.141"/>
<linearGradient id="SVGID_12_" gradientUnits="userSpaceOnUse" x1="188.2998" y1="81.9199" x2="188.2998" y2="69.9199">
	<stop  offset="0" style="stop-color:#B5B5B6"/>
	<stop  offset="0.1523" style="stop-color:#DCDDDD"/>
	<stop  offset="0.8512" style="stop-color:#DCDDDD"/>
	<stop  offset="1" style="stop-color:#B5B5B6"/>
</linearGradient>
<path fill="url(#SVGID_12_)" stroke="#2B2B2B" stroke-miterlimit="10" d="M231.3,75.92c0,3.313-2.299,6-5.135,6h-75.73
	c-2.836,0-5.135-2.688-5.135-6l0,0c0-3.314,2.299-6,5.135-6h75.73C229.001,69.92,231.3,72.605,231.3,75.92L231.3,75.92z"/>
<g>
	<path fill="#060001" d="M276.489,61.58c2.831,0,5.127,2.296,5.127,5.128c0,2.831-2.296,5.127-5.127,5.127
		c-2.832,0-5.128-2.296-5.128-5.127C271.361,63.876,273.657,61.58,276.489,61.58"/>
	<g>
		<defs>
			<path id="SVGID_13_" d="M272.37,66.708c0,2.276,1.845,4.12,4.119,4.12c2.276,0,4.12-1.844,4.12-4.12
				c0-2.274-1.844-4.121-4.12-4.121C274.215,62.587,272.37,64.434,272.37,66.708"/>
		</defs>
		<clipPath id="SVGID_14_">
			<use xlink:href="#SVGID_13_"  overflow="visible"/>
		</clipPath>
		
			<radialGradient id="SVGID_15_" cx="-165.0542" cy="370.9395" r="0.7324" gradientTransform="matrix(8.2859 0 0 8.2859 1643.1055 -3008.3281)" gradientUnits="userSpaceOnUse">
			<stop  offset="0" style="stop-color:#636262"/>
			<stop  offset="1" style="stop-color:#040000"/>
		</radialGradient>
		<rect x="272.37" y="62.587" clip-path="url(#SVGID_14_)" fill="url(#SVGID_15_)" width="8.239" height="8.241"/>
	</g>
	<g opacity="0.5" enable-background="new    ">
		<g>
			<defs>
				<rect id="SVGID_16_" x="274.567" y="64.328" width="1.372" height="1.373"/>
			</defs>
			<clipPath id="SVGID_17_">
				<use xlink:href="#SVGID_16_"  overflow="visible"/>
			</clipPath>
			<rect x="274.567" y="64.328" clip-path="url(#SVGID_17_)" fill="#FFFFFF" width="1.372" height="1.373"/>
		</g>
	</g>
	<g opacity="0.5" enable-background="new    ">
		<g>
			<defs>
				<rect id="SVGID_18_" x="274.567" y="64.328" width="0.687" height="1.373"/>
			</defs>
			<clipPath id="SVGID_19_">
				<use xlink:href="#SVGID_18_"  overflow="visible"/>
			</clipPath>
			<rect x="274.567" y="64.328" clip-path="url(#SVGID_19_)" fill="#FFFFFF" width="0.687" height="1.373"/>
		</g>
	</g>
</g>
<g>
	<path fill="#060001" d="M300.148,61.581c2.832,0,5.127,2.296,5.127,5.128c0,2.83-2.295,5.127-5.127,5.127s-5.128-2.297-5.128-5.127
		C295.021,63.876,297.316,61.581,300.148,61.581"/>
	<g>
		<defs>
			<path id="SVGID_20_" d="M296.029,66.709c0,2.275,1.845,4.119,4.119,4.119c2.276,0,4.121-1.844,4.121-4.119
				s-1.845-4.121-4.121-4.121C297.874,62.588,296.029,64.434,296.029,66.709"/>
		</defs>
		<clipPath id="SVGID_21_">
			<use xlink:href="#SVGID_20_"  overflow="visible"/>
		</clipPath>
		
			<radialGradient id="SVGID_22_" cx="-162.1987" cy="370.9395" r="0.7324" gradientTransform="matrix(8.2859 0 0 8.2859 1643.1055 -3008.3281)" gradientUnits="userSpaceOnUse">
			<stop  offset="0" style="stop-color:#636262"/>
			<stop  offset="1" style="stop-color:#040000"/>
		</radialGradient>
		<rect x="296.029" y="62.588" clip-path="url(#SVGID_21_)" fill="url(#SVGID_22_)" width="8.24" height="8.24"/>
	</g>
	<g opacity="0.5" enable-background="new    ">
		<g>
			<defs>
				<rect id="SVGID_23_" x="298.227" y="64.328" width="1.372" height="1.373"/>
			</defs>
			<clipPath id="SVGID_24_">
				<use xlink:href="#SVGID_23_"  overflow="visible"/>
			</clipPath>
			<rect x="298.227" y="64.328" clip-path="url(#SVGID_24_)" fill="#FFFFFF" width="1.372" height="1.373"/>
		</g>
	</g>
	<g opacity="0.5" enable-background="new    ">
		<g>
			<defs>
				<rect id="SVGID_25_" x="298.227" y="64.328" width="0.687" height="1.373"/>
			</defs>
			<clipPath id="SVGID_26_">
				<use xlink:href="#SVGID_25_"  overflow="visible"/>
			</clipPath>
			<rect x="298.227" y="64.328" clip-path="url(#SVGID_26_)" fill="#FFFFFF" width="0.687" height="1.373"/>
		</g>
	</g>
</g>
<g>
	<path fill="#060001" d="M324.646,84.682c1.766,0,3.196,1.432,3.196,3.197s-1.431,3.197-3.196,3.197s-3.197-1.432-3.197-3.197
		S322.881,84.682,324.646,84.682"/>
	<g>
		<defs>
			<path id="SVGID_27_" d="M322.078,87.879c0,1.418,1.15,2.568,2.568,2.568c1.419,0,2.569-1.15,2.569-2.568s-1.15-2.569-2.569-2.569
				C323.229,85.31,322.078,86.461,322.078,87.879"/>
		</defs>
		<clipPath id="SVGID_28_">
			<use xlink:href="#SVGID_27_"  overflow="visible"/>
		</clipPath>
		
			<radialGradient id="SVGID_29_" cx="-159.1968" cy="373.5615" r="0.4566" gradientTransform="matrix(8.2859 0 0 8.2859 1643.1055 -3008.3281)" gradientUnits="userSpaceOnUse">
			<stop  offset="0" style="stop-color:#636262"/>
			<stop  offset="1" style="stop-color:#040000"/>
		</radialGradient>
		<rect x="322.078" y="85.31" clip-path="url(#SVGID_28_)" fill="url(#SVGID_29_)" width="5.138" height="5.138"/>
	</g>
	<g opacity="0.5" enable-background="new    ">
		<g>
			<defs>
				<rect id="SVGID_30_" x="323.448" y="86.395" width="0.855" height="0.855"/>
			</defs>
			<clipPath id="SVGID_31_">
				<use xlink:href="#SVGID_30_"  overflow="visible"/>
			</clipPath>
			<rect x="323.448" y="86.395" clip-path="url(#SVGID_31_)" fill="#FFFFFF" width="0.855" height="0.855"/>
		</g>
	</g>
	<g opacity="0.5" enable-background="new    ">
		<g>
			<defs>
				<rect id="SVGID_32_" x="323.448" y="86.395" width="0.428" height="0.855"/>
			</defs>
			<clipPath id="SVGID_33_">
				<use xlink:href="#SVGID_32_"  overflow="visible"/>
			</clipPath>
			<rect x="323.448" y="86.395" clip-path="url(#SVGID_33_)" fill="#FFFFFF" width="0.428" height="0.855"/>
		</g>
	</g>
</g>
<g>
	<path fill="#060001" d="M275.939,82.75c2.832,0,5.127,2.297,5.127,5.129c0,2.83-2.295,5.127-5.127,5.127s-5.127-2.297-5.127-5.127
		C270.813,85.047,273.107,82.75,275.939,82.75"/>
	<g>
		<defs>
			<path id="SVGID_34_" d="M271.82,87.879c0,2.275,1.845,4.119,4.119,4.119c2.276,0,4.121-1.844,4.121-4.119
				s-1.845-4.121-4.121-4.121C273.665,83.758,271.82,85.604,271.82,87.879"/>
		</defs>
		<clipPath id="SVGID_35_">
			<use xlink:href="#SVGID_34_"  overflow="visible"/>
		</clipPath>
		
			<radialGradient id="SVGID_36_" cx="-165.1206" cy="373.4951" r="0.7324" gradientTransform="matrix(8.2859 0 0 8.2859 1643.1055 -3008.3281)" gradientUnits="userSpaceOnUse">
			<stop  offset="0" style="stop-color:#636262"/>
			<stop  offset="1" style="stop-color:#040000"/>
		</radialGradient>
		<rect x="271.82" y="83.758" clip-path="url(#SVGID_35_)" fill="url(#SVGID_36_)" width="8.24" height="8.24"/>
	</g>
	<g opacity="0.5" enable-background="new    ">
		<g>
			<defs>
				<rect id="SVGID_37_" x="274.018" y="85.498" width="1.372" height="1.373"/>
			</defs>
			<clipPath id="SVGID_38_">
				<use xlink:href="#SVGID_37_"  overflow="visible"/>
			</clipPath>
			<rect x="274.018" y="85.498" clip-path="url(#SVGID_38_)" fill="#FFFFFF" width="1.372" height="1.373"/>
		</g>
	</g>
	<g opacity="0.5" enable-background="new    ">
		<g>
			<defs>
				<rect id="SVGID_39_" x="274.018" y="85.498" width="0.687" height="1.373"/>
			</defs>
			<clipPath id="SVGID_40_">
				<use xlink:href="#SVGID_39_"  overflow="visible"/>
			</clipPath>
			<rect x="274.018" y="85.498" clip-path="url(#SVGID_40_)" fill="#FFFFFF" width="0.687" height="1.373"/>
		</g>
	</g>
</g>
<g>
	<path fill="#060001" d="M300.149,82.75c2.831,0,5.127,2.297,5.127,5.129c0,2.83-2.296,5.127-5.127,5.127
		c-2.832,0-5.128-2.297-5.128-5.127C295.021,85.047,297.317,82.75,300.149,82.75"/>
	<g>
		<defs>
			<path id="SVGID_41_" d="M296.029,87.879c0,2.275,1.845,4.119,4.12,4.119s4.12-1.844,4.12-4.119s-1.845-4.121-4.12-4.121
				S296.029,85.604,296.029,87.879"/>
		</defs>
		<clipPath id="SVGID_42_">
			<use xlink:href="#SVGID_41_"  overflow="visible"/>
		</clipPath>
		
			<radialGradient id="SVGID_43_" cx="-162.1987" cy="373.4951" r="0.7324" gradientTransform="matrix(8.2859 0 0 8.2859 1643.1055 -3008.3281)" gradientUnits="userSpaceOnUse">
			<stop  offset="0" style="stop-color:#636262"/>
			<stop  offset="1" style="stop-color:#040000"/>
		</radialGradient>
		<rect x="296.029" y="83.758" clip-path="url(#SVGID_42_)" fill="url(#SVGID_43_)" width="8.24" height="8.24"/>
	</g>
	<g opacity="0.5" enable-background="new    ">
		<g>
			<defs>
				<rect id="SVGID_44_" x="298.227" y="85.498" width="1.372" height="1.373"/>
			</defs>
			<clipPath id="SVGID_45_">
				<use xlink:href="#SVGID_44_"  overflow="visible"/>
			</clipPath>
			<rect x="298.227" y="85.498" clip-path="url(#SVGID_45_)" fill="#FFFFFF" width="1.372" height="1.373"/>
		</g>
	</g>
	<g opacity="0.5" enable-background="new    ">
		<g>
			<defs>
				<rect id="SVGID_46_" x="298.227" y="85.498" width="0.687" height="1.373"/>
			</defs>
			<clipPath id="SVGID_47_">
				<use xlink:href="#SVGID_46_"  overflow="visible"/>
			</clipPath>
			<rect x="298.227" y="85.498" clip-path="url(#SVGID_47_)" fill="#FFFFFF" width="0.687" height="1.373"/>
		</g>
	</g>
</g>
<text transform="matrix(1 0 0 1 254.4663 65.0273)" fill="#FFFFFF" font-family="'NotoSansHans-Regular-GBpc-EUC-H'" font-size="7">工作</text>
<text transform="matrix(1 0 0 1 254.4663 96.0273)" fill="#FFFFFF" font-family="'NotoSansHans-Regular-GBpc-EUC-H'" font-size="7">管理</text>
<text transform="matrix(1 0 0 1 306.2759 97.9922)" fill="#FFFFFF" font-family="'NotoSansHans-Regular-GBpc-EUC-H'" font-size="7">状态</text>
<text transform="matrix(1 0 0 1 307.7998 65.0146)" fill="#FFFFFF" font-family="'NotoSansHans-Regular-GBpc-EUC-H'" font-size="7">状态</text>
<text transform="matrix(1 0 0 1 369.6338 55.7358)" fill="#E56C1A" font-family="'NotoSansHans-Regular-GBpc-EUC-H'" font-size="10">AUX</text>
<text transform="matrix(1 0 0 1 413.5601 55.5571)" fill="#E56C1A" font-family="'NotoSansHans-Regular-GBpc-EUC-H'" font-size="10">CONSOLE</text>
<rect x="487.134" y="43.889" width="594.635" height="4.364"/>
<rect x="1299.8" y="63.07" fill="#C4C4C4" width="46.656" height="28.073"/>
<rect x="487.417" y="46.041" fill="#141414" width="2.268" height="80.1"/>
<rect x="1080.387" y="46.041" fill="#141414" width="2.765" height="80.1"/>
<g>
	<rect x="491.8" y="67.745" fill="#C4C4C4" width="36.666" height="28.072"/>
	<g>
		<path fill="#AFAEAE" d="M520.399,81.781c0,5.365-4.598,9.716-10.266,9.716c-5.671,0-10.267-4.351-10.267-9.716
			c0-5.367,4.596-9.718,10.267-9.718C515.802,72.063,520.399,76.414,520.399,81.781"/>
		<ellipse fill="none" stroke="#929292" stroke-miterlimit="10" cx="510.133" cy="81.781" rx="10.266" ry="9.716"/>
		<path fill="#AFAEAE" d="M517.676,81.781c0,3.941-3.378,7.139-7.542,7.139c-4.167,0-7.546-3.197-7.546-7.139
			c0-3.943,3.379-7.141,7.546-7.141C514.298,74.641,517.676,77.838,517.676,81.781"/>
		<ellipse fill="none" stroke="#929292" stroke-miterlimit="10" cx="510.132" cy="81.781" rx="7.544" ry="7.139"/>
		<g>
			<g>
				<defs>
					<rect id="SVGID_48_" x="503.021" y="75.051" width="14.221" height="13.457"/>
				</defs>
				<clipPath id="SVGID_49_">
					<use xlink:href="#SVGID_48_"  overflow="visible"/>
				</clipPath>
				<path clip-path="url(#SVGID_49_)" fill="#BEBEBD" d="M517.242,81.781c0,3.715-3.184,6.727-7.108,6.727
					c-3.928,0-7.112-3.012-7.112-6.727c0-3.717,3.185-6.73,7.112-6.73C514.059,75.051,517.242,78.064,517.242,81.781"/>
				<path clip-path="url(#SVGID_49_)" fill="#C0C0C0" d="M517.074,81.781c0,3.627-3.108,6.569-6.94,6.569
					c-3.836,0-6.942-2.942-6.942-6.569c0-3.629,3.106-6.572,6.942-6.572C513.966,75.209,517.074,78.152,517.074,81.781"/>
				<path clip-path="url(#SVGID_49_)" fill="#C2C3C3" d="M516.908,81.781c0,3.539-3.035,6.412-6.774,6.412
					c-3.743,0-6.776-2.873-6.776-6.412c0-3.542,3.033-6.413,6.776-6.413C513.873,75.368,516.908,78.239,516.908,81.781"/>
				<path clip-path="url(#SVGID_49_)" fill="#C4C5C4" d="M516.739,81.781c0,3.453-2.957,6.254-6.605,6.254
					c-3.65,0-6.609-2.801-6.609-6.254c0-3.455,2.959-6.254,6.609-6.254C513.782,75.527,516.739,78.326,516.739,81.781"/>
				<path clip-path="url(#SVGID_49_)" fill="#C6C8C8" d="M516.572,81.781c0,3.364-2.884,6.096-6.438,6.096
					c-3.558,0-6.441-2.731-6.441-6.096c0-3.367,2.884-6.098,6.441-6.098C513.688,75.684,516.572,78.414,516.572,81.781"/>
				<path clip-path="url(#SVGID_49_)" fill="#C9CACB" d="M516.405,81.781c0,3.277-2.809,5.936-6.271,5.936
					c-3.465,0-6.274-2.658-6.274-5.936c0-3.279,2.81-5.939,6.274-5.939C513.597,75.842,516.405,78.502,516.405,81.781"/>
				<path clip-path="url(#SVGID_49_)" fill="#CBCDCD" d="M516.239,81.781c0,3.19-2.735,5.779-6.105,5.779
					c-3.373,0-6.106-2.589-6.106-5.779c0-3.193,2.733-5.781,6.106-5.781C513.504,76,516.239,78.588,516.239,81.781"/>
				<path clip-path="url(#SVGID_49_)" fill="#CCCFD0" d="M516.072,81.781c0,3.104-2.661,5.621-5.938,5.621
					c-3.28,0-5.94-2.518-5.94-5.621c0-3.105,2.66-5.621,5.94-5.621C513.411,76.16,516.072,78.676,516.072,81.781"/>
				<path clip-path="url(#SVGID_49_)" fill="#D0D2D2" d="M515.904,81.781c0,3.016-2.584,5.461-5.771,5.461
					c-3.188,0-5.772-2.445-5.772-5.461c0-3.018,2.584-5.465,5.772-5.465C513.32,76.316,515.904,78.764,515.904,81.781"/>
				<path clip-path="url(#SVGID_49_)" fill="#D2D4D5" d="M515.737,81.781c0,2.928-2.511,5.303-5.604,5.303
					c-3.099,0-5.605-2.375-5.605-5.303c0-2.931,2.507-5.305,5.605-5.305C513.227,76.477,515.737,78.851,515.737,81.781"/>
			</g>
		</g>
		<polygon fill="#605F5E" points="509.204,85.827 509.204,82.66 505.857,82.66 505.857,80.901 509.204,80.901 509.204,77.734 
			511.063,77.734 511.063,80.901 514.406,80.901 514.406,82.66 511.063,82.66 511.063,85.827 		"/>
		<path fill="#221714" d="M510.9,77.887v2.861v0.307h0.321h3.024v1.452h-3.024H510.9v0.304v2.862h-1.535v-2.862v-0.304h-0.322
			h-3.024v-1.452h3.024h0.322v-0.307v-2.861H510.9z M511.222,77.582h-2.179v3.166h-3.346v2.063h3.346v3.167h2.179v-3.167h3.346
			v-2.063h-3.346V77.582z"/>
	</g>
</g>
<g>
	<rect x="751.934" y="67.745" fill="#C4C4C4" width="36.666" height="28.072"/>
	<g>
		<path fill="#AFAEAE" d="M780.532,81.781c0,5.365-4.596,9.716-10.265,9.716c-5.671,0-10.267-4.351-10.267-9.716
			c0-5.367,4.596-9.718,10.267-9.718C775.937,72.063,780.532,76.414,780.532,81.781"/>
		<ellipse fill="none" stroke="#929292" stroke-miterlimit="10" cx="770.267" cy="81.781" rx="10.266" ry="9.716"/>
		<path fill="#AFAEAE" d="M777.81,81.781c0,3.941-3.378,7.139-7.542,7.139c-4.167,0-7.546-3.197-7.546-7.139
			c0-3.943,3.379-7.141,7.546-7.141C774.432,74.641,777.81,77.838,777.81,81.781"/>
		<ellipse fill="none" stroke="#929292" stroke-miterlimit="10" cx="770.266" cy="81.781" rx="7.544" ry="7.139"/>
		<g>
			<g>
				<defs>
					<rect id="SVGID_50_" x="763.155" y="75.051" width="14.22" height="13.457"/>
				</defs>
				<clipPath id="SVGID_51_">
					<use xlink:href="#SVGID_50_"  overflow="visible"/>
				</clipPath>
				<path clip-path="url(#SVGID_51_)" fill="#BEBEBD" d="M777.375,81.781c0,3.715-3.183,6.727-7.107,6.727
					c-3.929,0-7.112-3.012-7.112-6.727c0-3.717,3.184-6.73,7.112-6.73C774.192,75.051,777.375,78.064,777.375,81.781"/>
				<path clip-path="url(#SVGID_51_)" fill="#C0C0C0" d="M777.207,81.781c0,3.627-3.108,6.569-6.939,6.569
					c-3.836,0-6.943-2.942-6.943-6.569c0-3.629,3.107-6.572,6.943-6.572C774.099,75.209,777.207,78.152,777.207,81.781"/>
				<path clip-path="url(#SVGID_51_)" fill="#C2C3C3" d="M777.041,81.781c0,3.539-3.034,6.412-6.773,6.412
					c-3.744,0-6.776-2.873-6.776-6.412c0-3.542,3.032-6.413,6.776-6.413C774.007,75.368,777.041,78.239,777.041,81.781"/>
				<path clip-path="url(#SVGID_51_)" fill="#C4C5C4" d="M776.872,81.781c0,3.453-2.956,6.254-6.604,6.254
					c-3.651,0-6.609-2.801-6.609-6.254c0-3.455,2.958-6.254,6.609-6.254C773.916,75.527,776.872,78.326,776.872,81.781"/>
				<path clip-path="url(#SVGID_51_)" fill="#C6C8C8" d="M776.706,81.781c0,3.364-2.884,6.096-6.438,6.096
					c-3.559,0-6.441-2.731-6.441-6.096c0-3.367,2.883-6.098,6.441-6.098C773.822,75.684,776.706,78.414,776.706,81.781"/>
				<path clip-path="url(#SVGID_51_)" fill="#C9CACB" d="M776.539,81.781c0,3.277-2.809,5.936-6.271,5.936
					c-3.466,0-6.275-2.658-6.275-5.936c0-3.279,2.81-5.939,6.275-5.939C773.73,75.842,776.539,78.502,776.539,81.781"/>
				<path clip-path="url(#SVGID_51_)" fill="#CBCDCD" d="M776.372,81.781c0,3.19-2.734,5.779-6.104,5.779
					c-3.373,0-6.107-2.589-6.107-5.779c0-3.193,2.734-5.781,6.107-5.781C773.638,76,776.372,78.588,776.372,81.781"/>
				<path clip-path="url(#SVGID_51_)" fill="#CCCFD0" d="M776.206,81.781c0,3.104-2.661,5.621-5.938,5.621
					c-3.28,0-5.941-2.518-5.941-5.621c0-3.105,2.661-5.621,5.941-5.621C773.545,76.16,776.206,78.676,776.206,81.781"/>
				<path clip-path="url(#SVGID_51_)" fill="#D0D2D2" d="M776.038,81.781c0,3.016-2.585,5.461-5.771,5.461
					c-3.188,0-5.772-2.445-5.772-5.461c0-3.018,2.584-5.465,5.772-5.465C773.453,76.316,776.038,78.764,776.038,81.781"/>
				<path clip-path="url(#SVGID_51_)" fill="#D2D4D5" d="M775.871,81.781c0,2.928-2.511,5.303-5.604,5.303
					c-3.098,0-5.606-2.375-5.606-5.303c0-2.931,2.509-5.305,5.606-5.305C773.36,76.477,775.871,78.851,775.871,81.781"/>
			</g>
		</g>
		<polygon fill="#605F5E" points="769.338,85.827 769.338,82.66 765.991,82.66 765.991,80.901 769.338,80.901 769.338,77.734 
			771.196,77.734 771.196,80.901 774.54,80.901 774.54,82.66 771.196,82.66 771.196,85.827 		"/>
		<path fill="#221714" d="M771.034,77.887v2.861v0.307h0.321h3.024v1.452h-3.024h-0.321v0.304v2.862h-1.535v-2.862v-0.304h-0.323
			h-3.024v-1.452h3.024h0.323v-0.307v-2.861H771.034z M771.355,77.582h-2.18v3.166h-3.345v2.063h3.345v3.167h2.18v-3.167h3.346
			v-2.063h-3.346V77.582z"/>
	</g>
</g>
<g>
	<rect x="791.934" y="67.745" fill="#C4C4C4" width="36.666" height="28.072"/>
	<g>
		<path fill="#AFAEAE" d="M820.532,81.781c0,5.365-4.596,9.716-10.265,9.716c-5.671,0-10.267-4.351-10.267-9.716
			c0-5.367,4.596-9.718,10.267-9.718C815.937,72.063,820.532,76.414,820.532,81.781"/>
		<ellipse fill="none" stroke="#929292" stroke-miterlimit="10" cx="810.267" cy="81.781" rx="10.266" ry="9.716"/>
		<path fill="#AFAEAE" d="M817.81,81.781c0,3.941-3.378,7.139-7.542,7.139c-4.167,0-7.546-3.197-7.546-7.139
			c0-3.943,3.379-7.141,7.546-7.141C814.432,74.641,817.81,77.838,817.81,81.781"/>
		<ellipse fill="none" stroke="#929292" stroke-miterlimit="10" cx="810.266" cy="81.781" rx="7.544" ry="7.139"/>
		<g>
			<g>
				<defs>
					<rect id="SVGID_52_" x="803.155" y="75.051" width="14.22" height="13.457"/>
				</defs>
				<clipPath id="SVGID_53_">
					<use xlink:href="#SVGID_52_"  overflow="visible"/>
				</clipPath>
				<path clip-path="url(#SVGID_53_)" fill="#BEBEBD" d="M817.375,81.781c0,3.715-3.183,6.727-7.107,6.727
					c-3.929,0-7.112-3.012-7.112-6.727c0-3.717,3.184-6.73,7.112-6.73C814.192,75.051,817.375,78.064,817.375,81.781"/>
				<path clip-path="url(#SVGID_53_)" fill="#C0C0C0" d="M817.207,81.781c0,3.627-3.108,6.569-6.939,6.569
					c-3.836,0-6.943-2.942-6.943-6.569c0-3.629,3.107-6.572,6.943-6.572C814.099,75.209,817.207,78.152,817.207,81.781"/>
				<path clip-path="url(#SVGID_53_)" fill="#C2C3C3" d="M817.041,81.781c0,3.539-3.034,6.412-6.773,6.412
					c-3.744,0-6.776-2.873-6.776-6.412c0-3.542,3.032-6.413,6.776-6.413C814.007,75.368,817.041,78.239,817.041,81.781"/>
				<path clip-path="url(#SVGID_53_)" fill="#C4C5C4" d="M816.872,81.781c0,3.453-2.956,6.254-6.604,6.254
					c-3.651,0-6.609-2.801-6.609-6.254c0-3.455,2.958-6.254,6.609-6.254C813.916,75.527,816.872,78.326,816.872,81.781"/>
				<path clip-path="url(#SVGID_53_)" fill="#C6C8C8" d="M816.706,81.781c0,3.364-2.884,6.096-6.438,6.096
					c-3.559,0-6.441-2.731-6.441-6.096c0-3.367,2.883-6.098,6.441-6.098C813.822,75.684,816.706,78.414,816.706,81.781"/>
				<path clip-path="url(#SVGID_53_)" fill="#C9CACB" d="M816.539,81.781c0,3.277-2.809,5.936-6.271,5.936
					c-3.466,0-6.275-2.658-6.275-5.936c0-3.279,2.81-5.939,6.275-5.939C813.73,75.842,816.539,78.502,816.539,81.781"/>
				<path clip-path="url(#SVGID_53_)" fill="#CBCDCD" d="M816.372,81.781c0,3.19-2.734,5.779-6.104,5.779
					c-3.373,0-6.107-2.589-6.107-5.779c0-3.193,2.734-5.781,6.107-5.781C813.638,76,816.372,78.588,816.372,81.781"/>
				<path clip-path="url(#SVGID_53_)" fill="#CCCFD0" d="M816.206,81.781c0,3.104-2.661,5.621-5.938,5.621
					c-3.28,0-5.941-2.518-5.941-5.621c0-3.105,2.661-5.621,5.941-5.621C813.545,76.16,816.206,78.676,816.206,81.781"/>
				<path clip-path="url(#SVGID_53_)" fill="#D0D2D2" d="M816.038,81.781c0,3.016-2.585,5.461-5.771,5.461
					c-3.188,0-5.772-2.445-5.772-5.461c0-3.018,2.584-5.465,5.772-5.465C813.453,76.316,816.038,78.764,816.038,81.781"/>
				<path clip-path="url(#SVGID_53_)" fill="#D2D4D5" d="M815.871,81.781c0,2.928-2.511,5.303-5.604,5.303
					c-3.098,0-5.606-2.375-5.606-5.303c0-2.931,2.509-5.305,5.606-5.305C813.36,76.477,815.871,78.851,815.871,81.781"/>
			</g>
		</g>
		<polygon fill="#605F5E" points="809.338,85.827 809.338,82.66 805.991,82.66 805.991,80.901 809.338,80.901 809.338,77.734 
			811.196,77.734 811.196,80.901 814.54,80.901 814.54,82.66 811.196,82.66 811.196,85.827 		"/>
		<path fill="#221714" d="M811.034,77.887v2.861v0.307h0.321h3.024v1.452h-3.024h-0.321v0.304v2.862h-1.535v-2.862v-0.304h-0.323
			h-3.024v-1.452h3.024h0.323v-0.307v-2.861H811.034z M811.355,77.582h-2.18v3.166h-3.345v2.063h3.345v3.167h2.18v-3.167h3.346
			v-2.063h-3.346V77.582z"/>
	</g>
</g>
<g>
	<rect x="1043.721" y="67.745" fill="#C4C4C4" width="36.666" height="28.072"/>
	<g>
		<path fill="#AFAEAE" d="M1072.319,81.781c0,5.365-4.597,9.716-10.266,9.716c-5.67,0-10.266-4.351-10.266-9.716
			c0-5.367,4.596-9.718,10.266-9.718C1067.723,72.063,1072.319,76.414,1072.319,81.781"/>
		<ellipse fill="none" stroke="#929292" stroke-miterlimit="10" cx="1062.054" cy="81.781" rx="10.266" ry="9.716"/>
		<path fill="#AFAEAE" d="M1069.597,81.781c0,3.941-3.378,7.139-7.543,7.139c-4.167,0-7.545-3.197-7.545-7.139
			c0-3.943,3.378-7.141,7.545-7.141C1066.219,74.641,1069.597,77.838,1069.597,81.781"/>
		<ellipse fill="none" stroke="#929292" stroke-miterlimit="10" cx="1062.053" cy="81.781" rx="7.544" ry="7.139"/>
		<g>
			<g>
				<defs>
					<rect id="SVGID_54_" x="1054.941" y="75.051" width="14.221" height="13.457"/>
				</defs>
				<clipPath id="SVGID_55_">
					<use xlink:href="#SVGID_54_"  overflow="visible"/>
				</clipPath>
				<path clip-path="url(#SVGID_55_)" fill="#BEBEBD" d="M1069.162,81.781c0,3.715-3.183,6.727-7.108,6.727
					c-3.928,0-7.112-3.012-7.112-6.727c0-3.717,3.185-6.73,7.112-6.73C1065.979,75.051,1069.162,78.064,1069.162,81.781"/>
				<path clip-path="url(#SVGID_55_)" fill="#C0C0C0" d="M1068.994,81.781c0,3.627-3.108,6.569-6.94,6.569
					c-3.835,0-6.942-2.942-6.942-6.569c0-3.629,3.107-6.572,6.942-6.572C1065.886,75.209,1068.994,78.152,1068.994,81.781"/>
				<path clip-path="url(#SVGID_55_)" fill="#C2C3C3" d="M1068.828,81.781c0,3.539-3.034,6.412-6.774,6.412
					c-3.743,0-6.775-2.873-6.775-6.412c0-3.542,3.032-6.413,6.775-6.413C1065.794,75.368,1068.828,78.239,1068.828,81.781"/>
				<path clip-path="url(#SVGID_55_)" fill="#C4C5C4" d="M1068.659,81.781c0,3.453-2.957,6.254-6.605,6.254
					c-3.65,0-6.608-2.801-6.608-6.254c0-3.455,2.958-6.254,6.608-6.254C1065.702,75.527,1068.659,78.326,1068.659,81.781"/>
				<path clip-path="url(#SVGID_55_)" fill="#C6C8C8" d="M1068.493,81.781c0,3.364-2.884,6.096-6.439,6.096
					c-3.558,0-6.441-2.731-6.441-6.096c0-3.367,2.884-6.098,6.441-6.098C1065.609,75.684,1068.493,78.414,1068.493,81.781"/>
				<path clip-path="url(#SVGID_55_)" fill="#C9CACB" d="M1068.326,81.781c0,3.277-2.81,5.936-6.272,5.936
					c-3.465,0-6.274-2.658-6.274-5.936c0-3.279,2.81-5.939,6.274-5.939C1065.517,75.842,1068.326,78.502,1068.326,81.781"/>
				<path clip-path="url(#SVGID_55_)" fill="#CBCDCD" d="M1068.159,81.781c0,3.19-2.735,5.779-6.105,5.779
					c-3.373,0-6.106-2.589-6.106-5.779c0-3.193,2.733-5.781,6.106-5.781C1065.424,76,1068.159,78.588,1068.159,81.781"/>
				<path clip-path="url(#SVGID_55_)" fill="#CCCFD0" d="M1067.993,81.781c0,3.104-2.662,5.621-5.939,5.621
					c-3.28,0-5.94-2.518-5.94-5.621c0-3.105,2.66-5.621,5.94-5.621C1065.331,76.16,1067.993,78.676,1067.993,81.781"/>
				<path clip-path="url(#SVGID_55_)" fill="#D0D2D2" d="M1067.824,81.781c0,3.016-2.584,5.461-5.771,5.461
					c-3.188,0-5.771-2.445-5.771-5.461c0-3.018,2.584-5.465,5.771-5.465C1065.24,76.316,1067.824,78.764,1067.824,81.781"/>
				<path clip-path="url(#SVGID_55_)" fill="#D2D4D5" d="M1067.658,81.781c0,2.928-2.511,5.303-5.604,5.303
					c-3.098,0-5.605-2.375-5.605-5.303c0-2.931,2.508-5.305,5.605-5.305C1065.147,76.477,1067.658,78.851,1067.658,81.781"/>
			</g>
		</g>
		<polygon fill="#605F5E" points="1061.124,85.827 1061.124,82.66 1057.778,82.66 1057.778,80.901 1061.124,80.901 1061.124,77.734 
			1062.982,77.734 1062.982,80.901 1066.327,80.901 1066.327,82.66 1062.982,82.66 1062.982,85.827 		"/>
		<path fill="#221714" d="M1062.821,77.887v2.861v0.307h0.321h3.024v1.452h-3.024h-0.321v0.304v2.862h-1.536v-2.862v-0.304h-0.322
			h-3.024v-1.452h3.024h0.322v-0.307v-2.861H1062.821z M1063.143,77.582h-2.18v3.166h-3.345v2.063h3.345v3.167h2.18v-3.167h3.346
			v-2.063h-3.346V77.582z"/>
	</g>
</g>
<text transform="matrix(1 0 0 1 1118.5498 61.0479)" fill="#FFFFFF" font-family="'NotoSansHans-Regular-GBpc-EUC-H'" font-size="6.5377">ACT   LNK</text>
<text transform="matrix(1 0 0 1 1123.7998 52.8906)" fill="#FFFFFF" font-family="'NotoSansHans-Black-GBpc-EUC-H'" font-size="6.9273">ETH3</text>
<text transform="matrix(1 0 0 1 624.4658 88.9414)" fill="#FFFFFF" font-family="'NotoSansHans-Bold-GBpc-EUC-H'" font-size="17.7529">展   位</text>
<text transform="matrix(1 0 0 1 907.7988 88.9414)" fill="#FFFFFF" font-family="'NotoSansHans-Bold-GBpc-EUC-H'" font-size="17.7529">展   位</text>
<text transform="matrix(1 0 0 1 1171.5039 52.8906)" fill="#FFFFFF" font-family="'NotoSansHans-Black-GBpc-EUC-H'" font-size="6.9273">ETH2</text>
<text transform="matrix(1 0 0 1 1219.209 52.8906)" fill="#FFFFFF" font-family="'NotoSansHans-Black-GBpc-EUC-H'" font-size="6.9273">ETH1</text>
<text transform="matrix(1 0 0 1 1266.9131 52.8906)" fill="#FFFFFF" font-family="'NotoSansHans-Black-GBpc-EUC-H'" font-size="6.9273">ETH0</text>
<text transform="matrix(1 0 0 1 1166.2998 61.0479)" fill="#FFFFFF" font-family="'NotoSansHans-Regular-GBpc-EUC-H'" font-size="6.5377">ACT   LNK</text>
<text transform="matrix(1 0 0 1 1214.0498 61.0479)" fill="#FFFFFF" font-family="'NotoSansHans-Regular-GBpc-EUC-H'" font-size="6.5377">ACT   LNK</text>
<text transform="matrix(1 0 0 1 1261.7998 61.0479)" fill="#FFFFFF" font-family="'NotoSansHans-Regular-GBpc-EUC-H'" font-size="6.5377">ACT   LNK</text>
</svg>
