<?xml version="1.0" encoding="utf-8"?>
<!-- Generator: Adobe Illustrator 21.0.0, SVG Export Plug-In . SVG Version: 6.00 Build 0)  -->
<svg version="1.1" id="图层_1" xmlns="http://www.w3.org/2000/svg" xmlns:xlink="http://www.w3.org/1999/xlink" x="0px" y="0px"
	 width="1417.3px" height="126.1px" viewBox="0 0 1417.3 126.1" enable-background="new 0 0 1417.3 126.1" xml:space="preserve">
<g id="XMLID_31673_">
	<rect id="XMLID_31679_" x="1" y="1" fill="#C1C1C1" width="1415.3" height="124.1"/>
	<g id="XMLID_31675_">
		<path id="XMLID_31676_" d="M1415.3,2v122.1H2V2H1415.3 M1417.3,0H0v126.1h1417.3V0L1417.3,0z"/>
	</g>
</g>
<g id="XMLID_31667_">
	<rect id="XMLID_31672_" x="1" y="1" fill="#C1C1C1" width="61.8" height="124.1"/>
	<path id="XMLID_31669_" d="M61.8,2v122.1H2V2H61.8 M63.8,0H0v126.1h63.8V0L63.8,0z"/>
</g>
<g id="XMLID_31645_">
	<rect id="XMLID_31650_" x="1354.5" y="1" fill="#C1C1C1" width="61.8" height="124.1"/>
	<path id="XMLID_31647_" d="M1415.3,2v122.1h-59.8V2H1415.3 M1417.3,0h-63.8v126.1h63.8V0L1417.3,0z"/>
</g>
<rect id="XMLID_31644_" x="1353.5" y="0" transform="matrix(-1 8.390565e-11 -8.390565e-11 -1 2709.5906 126.1418)" fill="#070707" width="2.5" height="126.1"/>
<g id="XMLID_31766_">
	<path id="XMLID_31775_" fill="#3E3A39" d="M246.3,21.8c1.6,0,2.8,1.3,2.8,2.8v65.5c0,1.6-1.3,2.8-2.8,2.8h-50
		c-1.6,0-2.8-1.3-2.8-2.8V24.6c0-1.6,1.3-2.8,2.8-2.8H246.3z"/>
	<path id="XMLID_31774_" fill="none" stroke="#000000" stroke-width="2" stroke-miterlimit="10" d="M246.3,21.8
		c1.6,0,2.8,1.3,2.8,2.8v65.5c0,1.6-1.3,2.8-2.8,2.8h-50c-1.6,0-2.8-1.3-2.8-2.8V24.6c0-1.6,1.3-2.8,2.8-2.8H246.3z"/>
	<polygon id="XMLID_31773_" fill="#231815" points="239.7,81.9 212.2,81.9 203,72.6 203,41.9 212.6,32.8 239.7,32.8 	"/>
	<rect id="XMLID_31772_" x="219.1" y="43" fill="#343842" width="10.4" height="3.1"/>
	<rect id="XMLID_31771_" x="221" y="44.5" fill="#8D919A" width="8.6" height="1.6"/>
	<rect id="XMLID_31770_" x="212.6" y="56.5" fill="#343842" width="10.4" height="3.1"/>
	<rect id="XMLID_31769_" x="214.5" y="58.1" fill="#8D919A" width="8.6" height="1.6"/>
	<rect id="XMLID_31768_" x="219.1" y="70.1" fill="#343842" width="10.4" height="3.1"/>
	<rect id="XMLID_31767_" x="221" y="71.6" fill="#8D919A" width="8.6" height="1.6"/>
</g>
<g id="XMLID_31757_">
	
		<linearGradient id="XMLID_3_" gradientUnits="userSpaceOnUse" x1="-2407.2839" y1="7500.5649" x2="-2394.5862" y2="7500.5649" gradientTransform="matrix(-1 0 0 -1 -2169.3054 7612.0327)">
		<stop  offset="0" style="stop-color:#FFFFFF"/>
		<stop  offset="5.656110e-02" style="stop-color:#A3A3A4"/>
		<stop  offset="0.3372" style="stop-color:#919292"/>
		<stop  offset="0.3831" style="stop-color:#E0E0DF"/>
		<stop  offset="0.4519" style="stop-color:#C1C0C0"/>
		<stop  offset="0.9264" style="stop-color:#E0E0DF"/>
		<stop  offset="0.9745" style="stop-color:#C1C0C0"/>
	</linearGradient>
	<path id="XMLID_31765_" fill="url(#XMLID_3_)" d="M238,111.5c0-3.5-2.8-6.3-6.3-6.3c-3.5,0-6.3,2.8-6.3,6.3c0,3.5,2.8,6.3,6.3,6.3
		C235.1,117.8,238,114.9,238,111.5"/>
	
		<ellipse id="XMLID_31764_" fill="none" stroke="#121212" stroke-width="0.75" stroke-miterlimit="10" cx="231.6" cy="111.5" rx="6.3" ry="6.3"/>
	<polygon id="XMLID_31763_" fill="#040000" points="230.8,107.9 230.8,110.7 228,110.7 228,112.2 230.8,112.2 230.8,115 232.4,115 
		232.4,112.2 235.2,112.2 235.2,110.7 232.4,110.7 232.4,107.9 	"/>
	<path id="XMLID_31760_" fill="#221714" d="M231,114.9v-2.5v-0.3h-0.3h-2.6v-1.3h2.6h0.3v-0.3V108h1.3v2.5v0.3h0.3h2.6v1.3h-2.6
		h-0.3v0.3v2.5H231z M232.5,112.4h2.8v-1.8h-2.8v-2.8h-1.8v2.8h-2.8v1.8h2.8v2.8h1.8V112.4z"/>
	<rect id="XMLID_31759_" x="230.7" y="112.1" fill="#606062" width="0.3" height="3.1"/>
	<rect id="XMLID_31758_" x="227.9" y="112.1" fill="#606062" width="3.1" height="0.3"/>
</g>
<g id="XMLID_31640_">
	<polygon id="XMLID_31756_" fill="#0F0F0F" points="105,102 85.1,82.1 85.1,32.7 105,12.8 154.4,12.8 174.3,32.7 174.3,82.1 
		154.4,102 	"/>
	
		<circle id="XMLID_31755_" fill="none" stroke="#C1C1C1" stroke-width="2.8347" stroke-miterlimit="10" cx="129.7" cy="57.4" r="37.3"/>
	
		<circle id="XMLID_31754_" fill="none" stroke="#C1C1C1" stroke-width="2.8347" stroke-miterlimit="10" cx="129.7" cy="57.4" r="30.8"/>
	
		<circle id="XMLID_31753_" fill="none" stroke="#C1C1C1" stroke-width="2.8347" stroke-miterlimit="10" cx="129.7" cy="57.4" r="24.8"/>
	
		<circle id="XMLID_31752_" fill="#C1C1C1" stroke="#C1C1C1" stroke-width="2.8347" stroke-miterlimit="10" cx="129.7" cy="57.4" r="17.6"/>
	<circle id="XMLID_31751_" fill="#EDEDED" cx="129.7" cy="57.4" r="16.4"/>
	<circle id="XMLID_31750_" fill="none" stroke="#2D2D2D" stroke-miterlimit="10" cx="129.7" cy="57.4" r="13.8"/>
	<circle id="XMLID_31749_" fill="#FCF988" stroke="#2D2D2D" stroke-miterlimit="10" cx="129.7" cy="57.4" r="8.6"/>
	<path id="XMLID_31748_" fill="none" stroke="#C1C1C1" stroke-width="2.8347" stroke-miterlimit="10" d="M96.1,21.7l29.4,29.4
		c0,0,5.8,7.7,0,13.6L96.1,93"/>
	<path id="XMLID_31747_" fill="none" stroke="#C1C1C1" stroke-width="2.8347" stroke-miterlimit="10" d="M163.3,21.7l-29.4,29.4
		c0,0-5.8,7.7,0,13.6L163.3,93"/>
	<g id="XMLID_31704_">
		<g id="XMLID_31726_">
			<path id="XMLID_31746_" fill="#AFAEAE" d="M87.2,20.1c0,3.5,3,6.4,6.8,6.4c3.7,0,6.8-2.8,6.8-6.4c0-3.5-3-6.4-6.8-6.4
				C90.3,13.7,87.2,16.6,87.2,20.1"/>
			<ellipse id="XMLID_31745_" fill="none" stroke="#929292" stroke-miterlimit="10" cx="94" cy="20.1" rx="6.8" ry="6.4"/>
			<path id="XMLID_31744_" fill="#AFAEAE" d="M89,20.1c0,2.6,2.2,4.7,5,4.7c2.7,0,5-2.1,5-4.7c0-2.6-2.2-4.7-5-4.7
				C91.3,15.4,89,17.5,89,20.1"/>
			<ellipse id="XMLID_31743_" fill="none" stroke="#929292" stroke-miterlimit="10" cx="94" cy="20.1" rx="5" ry="4.7"/>
			<g id="XMLID_31731_">
				<g id="XMLID_31732_">
					<defs>
						<rect id="SVGID_150_" x="89.3" y="15.7" width="9.4" height="8.8"/>
					</defs>
					<clipPath id="SVGID_1_">
						<use xlink:href="#SVGID_150_"  overflow="visible"/>
					</clipPath>
					<path id="XMLID_31742_" clip-path="url(#SVGID_1_)" fill="#BEBEBD" d="M89.3,20.1c0,2.4,2.1,4.4,4.7,4.4c2.6,0,4.7-2,4.7-4.4
						c0-2.4-2.1-4.4-4.7-4.4C91.4,15.7,89.3,17.7,89.3,20.1"/>
					<path id="XMLID_31741_" clip-path="url(#SVGID_1_)" fill="#C0C0C0" d="M89.4,20.1c0,2.4,2,4.3,4.6,4.3c2.5,0,4.6-1.9,4.6-4.3
						c0-2.4-2-4.3-4.6-4.3C91.5,15.8,89.4,17.7,89.4,20.1"/>
					<path id="XMLID_31740_" clip-path="url(#SVGID_1_)" fill="#C2C3C3" d="M89.5,20.1c0,2.3,2,4.2,4.5,4.2c2.5,0,4.5-1.9,4.5-4.2
						c0-2.3-2-4.2-4.5-4.2C91.5,15.9,89.5,17.8,89.5,20.1"/>
					<path id="XMLID_31739_" clip-path="url(#SVGID_1_)" fill="#C4C5C4" d="M89.6,20.1c0,2.3,1.9,4.1,4.4,4.1c2.4,0,4.4-1.8,4.4-4.1
						c0-2.3-1.9-4.1-4.4-4.1C91.6,16,89.6,17.8,89.6,20.1"/>
					<path id="XMLID_31738_" clip-path="url(#SVGID_1_)" fill="#C6C8C8" d="M89.8,20.1c0,2.2,1.9,4,4.2,4c2.3,0,4.2-1.8,4.2-4
						c0-2.2-1.9-4-4.2-4C91.7,16.1,89.8,17.9,89.8,20.1"/>
					<path id="XMLID_31737_" clip-path="url(#SVGID_1_)" fill="#C9CACB" d="M89.9,20.1c0,2.1,1.8,3.9,4.1,3.9c2.3,0,4.1-1.7,4.1-3.9
						c0-2.1-1.9-3.9-4.1-3.9C91.7,16.2,89.9,18,89.9,20.1"/>
					<path id="XMLID_31736_" clip-path="url(#SVGID_1_)" fill="#CBCDCD" d="M90,20.1c0,2.1,1.8,3.8,4,3.8c2.2,0,4-1.7,4-3.8
						c0-2.1-1.8-3.8-4-3.8C91.8,16.3,90,18,90,20.1"/>
					<path id="XMLID_31735_" clip-path="url(#SVGID_1_)" fill="#CCCFD0" d="M90.1,20.1c0,2,1.8,3.7,3.9,3.7c2.2,0,3.9-1.6,3.9-3.7
						c0-2-1.8-3.7-3.9-3.7C91.8,16.4,90.1,18.1,90.1,20.1"/>
					<path id="XMLID_31734_" clip-path="url(#SVGID_1_)" fill="#D0D2D2" d="M90.2,20.1c0,2,1.7,3.6,3.8,3.6c2.1,0,3.8-1.6,3.8-3.6
						c0-2-1.7-3.6-3.8-3.6C91.9,16.5,90.2,18.1,90.2,20.1"/>
					<path id="XMLID_31733_" clip-path="url(#SVGID_1_)" fill="#D2D4D5" d="M90.3,20.1c0,1.9,1.7,3.5,3.7,3.5c2,0,3.7-1.6,3.7-3.5
						c0-1.9-1.7-3.5-3.7-3.5C92,16.6,90.3,18.2,90.3,20.1"/>
				</g>
			</g>
			<polygon id="XMLID_31730_" fill="#605F5E" points="94.6,22.8 94.6,20.7 96.8,20.7 96.8,19.5 94.6,19.5 94.6,17.5 93.4,17.5 
				93.4,19.5 91.2,19.5 91.2,20.7 93.4,20.7 93.4,22.8 			"/>
			<path id="XMLID_31727_" fill="#221714" d="M94.5,17.6v1.9v0.2h0.2h2v1h-2h-0.2v0.2v1.9h-1v-1.9v-0.2h-0.2h-2v-1h2h0.2v-0.2v-1.9
				H94.5z M93.3,19.4h-2.2v1.3h2.2v2.1h1.4v-2.1h2.2v-1.3h-2.2v-2.1h-1.4V19.4z"/>
		</g>
		<g id="XMLID_31705_">
			<path id="XMLID_31725_" fill="#AFAEAE" d="M158.6,20.1c0,3.5,3,6.4,6.8,6.4c3.7,0,6.8-2.8,6.8-6.4c0-3.5-3-6.4-6.8-6.4
				C161.6,13.7,158.6,16.6,158.6,20.1"/>
			<ellipse id="XMLID_31724_" fill="none" stroke="#929292" stroke-miterlimit="10" cx="165.4" cy="20.1" rx="6.8" ry="6.4"/>
			<path id="XMLID_31723_" fill="#AFAEAE" d="M160.4,20.1c0,2.6,2.2,4.7,5,4.7c2.7,0,5-2.1,5-4.7c0-2.6-2.2-4.7-5-4.7
				C162.6,15.4,160.4,17.5,160.4,20.1"/>
			<ellipse id="XMLID_31722_" fill="none" stroke="#929292" stroke-miterlimit="10" cx="165.4" cy="20.1" rx="5" ry="4.7"/>
			<g id="XMLID_31710_">
				<g id="XMLID_31711_">
					<defs>
						<rect id="SVGID_149_" x="160.7" y="15.7" width="9.4" height="8.8"/>
					</defs>
					<clipPath id="SVGID_2_">
						<use xlink:href="#SVGID_149_"  overflow="visible"/>
					</clipPath>
					<path id="XMLID_31721_" clip-path="url(#SVGID_2_)" fill="#BEBEBD" d="M160.7,20.1c0,2.4,2.1,4.4,4.7,4.4c2.6,0,4.7-2,4.7-4.4
						c0-2.4-2.1-4.4-4.7-4.4C162.8,15.7,160.7,17.7,160.7,20.1"/>
					<path id="XMLID_31720_" clip-path="url(#SVGID_2_)" fill="#C0C0C0" d="M160.8,20.1c0,2.4,2,4.3,4.6,4.3c2.5,0,4.6-1.9,4.6-4.3
						c0-2.4-2-4.3-4.6-4.3C162.8,15.8,160.8,17.7,160.8,20.1"/>
					<path id="XMLID_31719_" clip-path="url(#SVGID_2_)" fill="#C2C3C3" d="M160.9,20.1c0,2.3,2,4.2,4.5,4.2c2.5,0,4.5-1.9,4.5-4.2
						c0-2.3-2-4.2-4.5-4.2C162.9,15.9,160.9,17.8,160.9,20.1"/>
					<path id="XMLID_31718_" clip-path="url(#SVGID_2_)" fill="#C4C5C4" d="M161,20.1c0,2.3,1.9,4.1,4.4,4.1c2.4,0,4.4-1.8,4.4-4.1
						c0-2.3-2-4.1-4.4-4.1C163,16,161,17.8,161,20.1"/>
					<path id="XMLID_31717_" clip-path="url(#SVGID_2_)" fill="#C6C8C8" d="M161.1,20.1c0,2.2,1.9,4,4.2,4c2.3,0,4.2-1.8,4.2-4
						c0-2.2-1.9-4-4.2-4C163,16.1,161.1,17.9,161.1,20.1"/>
					<path id="XMLID_31716_" clip-path="url(#SVGID_2_)" fill="#C9CACB" d="M161.2,20.1c0,2.1,1.8,3.9,4.1,3.9s4.1-1.7,4.1-3.9
						c0-2.1-1.8-3.9-4.1-3.9S161.2,18,161.2,20.1"/>
					<path id="XMLID_31715_" clip-path="url(#SVGID_2_)" fill="#CBCDCD" d="M161.3,20.1c0,2.1,1.8,3.8,4,3.8c2.2,0,4-1.7,4-3.8
						c0-2.1-1.8-3.8-4-3.8C163.2,16.3,161.3,18,161.3,20.1"/>
					<path id="XMLID_31714_" clip-path="url(#SVGID_2_)" fill="#CCCFD0" d="M161.5,20.1c0,2,1.8,3.7,3.9,3.7c2.2,0,3.9-1.6,3.9-3.7
						c0-2-1.8-3.7-3.9-3.7C163.2,16.4,161.5,18.1,161.5,20.1"/>
					<path id="XMLID_31713_" clip-path="url(#SVGID_2_)" fill="#D0D2D2" d="M161.6,20.1c0,2,1.7,3.6,3.8,3.6c2.1,0,3.8-1.6,3.8-3.6
						c0-2-1.7-3.6-3.8-3.6C163.3,16.5,161.6,18.1,161.6,20.1"/>
					<path id="XMLID_31712_" clip-path="url(#SVGID_2_)" fill="#D2D4D5" d="M161.7,20.1c0,1.9,1.7,3.5,3.7,3.5c2,0,3.7-1.6,3.7-3.5
						c0-1.9-1.7-3.5-3.7-3.5C163.3,16.6,161.7,18.2,161.7,20.1"/>
				</g>
			</g>
			<polygon id="XMLID_31709_" fill="#605F5E" points="166,22.8 166,20.7 168.2,20.7 168.2,19.5 166,19.5 166,17.5 164.8,17.5 
				164.8,19.5 162.6,19.5 162.6,20.7 164.8,20.7 164.8,22.8 			"/>
			<path id="XMLID_31706_" fill="#221714" d="M165.9,17.6v1.9v0.2h0.2h2v1h-2h-0.2v0.2v1.9h-1v-1.9v-0.2h-0.2h-2v-1h2h0.2v-0.2v-1.9
				H165.9z M164.7,19.4h-2.2v1.3h2.2v2.1h1.4v-2.1h2.2v-1.3h-2.2v-2.1h-1.4V19.4z"/>
		</g>
	</g>
	<g id="XMLID_31641_">
		<g id="XMLID_31683_">
			<path id="XMLID_31703_" fill="#AFAEAE" d="M87.2,94.7c0,3.5,3,6.4,6.8,6.4c3.7,0,6.8-2.8,6.8-6.4c0-3.5-3-6.4-6.8-6.4
				C90.3,88.3,87.2,91.1,87.2,94.7"/>
			<ellipse id="XMLID_31702_" fill="none" stroke="#929292" stroke-miterlimit="10" cx="94" cy="94.7" rx="6.8" ry="6.4"/>
			<path id="XMLID_31701_" fill="#AFAEAE" d="M89,94.7c0,2.6,2.2,4.7,5,4.7c2.7,0,5-2.1,5-4.7c0-2.6-2.2-4.7-5-4.7
				C91.3,90,89,92.1,89,94.7"/>
			<ellipse id="XMLID_31700_" fill="none" stroke="#929292" stroke-miterlimit="10" cx="94" cy="94.7" rx="5" ry="4.7"/>
			<g id="XMLID_31688_">
				<g id="XMLID_31689_">
					<defs>
						<rect id="SVGID_148_" x="89.3" y="90.3" width="9.4" height="8.8"/>
					</defs>
					<clipPath id="SVGID_3_">
						<use xlink:href="#SVGID_148_"  overflow="visible"/>
					</clipPath>
					<path id="XMLID_31699_" clip-path="url(#SVGID_3_)" fill="#BEBEBD" d="M89.3,94.7c0,2.4,2.1,4.4,4.7,4.4c2.6,0,4.7-2,4.7-4.4
						c0-2.4-2.1-4.4-4.7-4.4C91.4,90.3,89.3,92.2,89.3,94.7"/>
					<path id="XMLID_31698_" clip-path="url(#SVGID_3_)" fill="#C0C0C0" d="M89.4,94.7c0,2.4,2,4.3,4.6,4.3c2.5,0,4.6-1.9,4.6-4.3
						c0-2.4-2-4.3-4.6-4.3C91.5,90.4,89.4,92.3,89.4,94.7"/>
					<path id="XMLID_31697_" clip-path="url(#SVGID_3_)" fill="#C2C3C3" d="M89.5,94.7c0,2.3,2,4.2,4.5,4.2c2.5,0,4.5-1.9,4.5-4.2
						c0-2.3-2-4.2-4.5-4.2C91.5,90.5,89.5,92.3,89.5,94.7"/>
					<path id="XMLID_31696_" clip-path="url(#SVGID_3_)" fill="#C4C5C4" d="M89.6,94.7c0,2.3,1.9,4.1,4.4,4.1c2.4,0,4.4-1.8,4.4-4.1
						c0-2.3-1.9-4.1-4.4-4.1C91.6,90.6,89.6,92.4,89.6,94.7"/>
					<path id="XMLID_31695_" clip-path="url(#SVGID_3_)" fill="#C6C8C8" d="M89.8,94.7c0,2.2,1.9,4,4.2,4c2.3,0,4.2-1.8,4.2-4
						c0-2.2-1.9-4-4.2-4C91.7,90.7,89.8,92.5,89.8,94.7"/>
					<path id="XMLID_31694_" clip-path="url(#SVGID_3_)" fill="#C9CACB" d="M89.9,94.7c0,2.1,1.8,3.9,4.1,3.9c2.3,0,4.1-1.7,4.1-3.9
						c0-2.1-1.9-3.9-4.1-3.9C91.7,90.8,89.9,92.5,89.9,94.7"/>
					<path id="XMLID_31693_" clip-path="url(#SVGID_3_)" fill="#CBCDCD" d="M90,94.7c0,2.1,1.8,3.8,4,3.8c2.2,0,4-1.7,4-3.8
						c0-2.1-1.8-3.8-4-3.8C91.8,90.9,90,92.6,90,94.7"/>
					<path id="XMLID_31692_" clip-path="url(#SVGID_3_)" fill="#CCCFD0" d="M90.1,94.7c0,2,1.8,3.7,3.9,3.7c2.2,0,3.9-1.6,3.9-3.7
						c0-2-1.8-3.7-3.9-3.7C91.8,91,90.1,92.6,90.1,94.7"/>
					<path id="XMLID_31691_" clip-path="url(#SVGID_3_)" fill="#D0D2D2" d="M90.2,94.7c0,2,1.7,3.6,3.8,3.6c2.1,0,3.8-1.6,3.8-3.6
						c0-2-1.7-3.6-3.8-3.6C91.9,91.1,90.2,92.7,90.2,94.7"/>
					<path id="XMLID_31690_" clip-path="url(#SVGID_3_)" fill="#D2D4D5" d="M90.3,94.7c0,1.9,1.7,3.5,3.7,3.5c2,0,3.7-1.6,3.7-3.5
						c0-1.9-1.7-3.5-3.7-3.5C92,91.2,90.3,92.7,90.3,94.7"/>
				</g>
			</g>
			<polygon id="XMLID_31687_" fill="#605F5E" points="94.6,97.3 94.6,95.2 96.8,95.2 96.8,94.1 94.6,94.1 94.6,92 93.4,92 
				93.4,94.1 91.2,94.1 91.2,95.2 93.4,95.2 93.4,97.3 			"/>
			<path id="XMLID_31684_" fill="#221714" d="M94.5,92.1V94v0.2h0.2h2v1h-2h-0.2v0.2v1.9h-1v-1.9v-0.2h-0.2h-2v-1h2h0.2V94v-1.9
				H94.5z M93.3,94h-2.2v1.3h2.2v2.1h1.4v-2.1h2.2V94h-2.2v-2.1h-1.4V94z"/>
		</g>
		<g id="XMLID_31642_">
			<path id="XMLID_31682_" fill="#AFAEAE" d="M158.6,94.7c0,3.5,3,6.4,6.8,6.4c3.7,0,6.8-2.8,6.8-6.4c0-3.5-3-6.4-6.8-6.4
				C161.6,88.3,158.6,91.1,158.6,94.7"/>
			<ellipse id="XMLID_31681_" fill="none" stroke="#929292" stroke-miterlimit="10" cx="165.4" cy="94.7" rx="6.8" ry="6.4"/>
			<path id="XMLID_31680_" fill="#AFAEAE" d="M160.4,94.7c0,2.6,2.2,4.7,5,4.7c2.7,0,5-2.1,5-4.7c0-2.6-2.2-4.7-5-4.7
				C162.6,90,160.4,92.1,160.4,94.7"/>
			<ellipse id="XMLID_31666_" fill="none" stroke="#929292" stroke-miterlimit="10" cx="165.4" cy="94.7" rx="5" ry="4.7"/>
			<g id="XMLID_31654_">
				<g id="XMLID_31655_">
					<defs>
						<rect id="SVGID_147_" x="160.7" y="90.3" width="9.4" height="8.8"/>
					</defs>
					<clipPath id="SVGID_4_">
						<use xlink:href="#SVGID_147_"  overflow="visible"/>
					</clipPath>
					<path id="XMLID_31665_" clip-path="url(#SVGID_4_)" fill="#BEBEBD" d="M160.7,94.7c0,2.4,2.1,4.4,4.7,4.4c2.6,0,4.7-2,4.7-4.4
						c0-2.4-2.1-4.4-4.7-4.4C162.8,90.3,160.7,92.2,160.7,94.7"/>
					<path id="XMLID_31664_" clip-path="url(#SVGID_4_)" fill="#C0C0C0" d="M160.8,94.7c0,2.4,2,4.3,4.6,4.3c2.5,0,4.6-1.9,4.6-4.3
						c0-2.4-2-4.3-4.6-4.3C162.8,90.4,160.8,92.3,160.8,94.7"/>
					<path id="XMLID_31663_" clip-path="url(#SVGID_4_)" fill="#C2C3C3" d="M160.9,94.7c0,2.3,2,4.2,4.5,4.2c2.5,0,4.5-1.9,4.5-4.2
						c0-2.3-2-4.2-4.5-4.2C162.9,90.5,160.9,92.3,160.9,94.7"/>
					<path id="XMLID_31662_" clip-path="url(#SVGID_4_)" fill="#C4C5C4" d="M161,94.7c0,2.3,1.9,4.1,4.4,4.1c2.4,0,4.4-1.8,4.4-4.1
						c0-2.3-2-4.1-4.4-4.1C163,90.6,161,92.4,161,94.7"/>
					<path id="XMLID_31661_" clip-path="url(#SVGID_4_)" fill="#C6C8C8" d="M161.1,94.7c0,2.2,1.9,4,4.2,4c2.3,0,4.2-1.8,4.2-4
						c0-2.2-1.9-4-4.2-4C163,90.7,161.1,92.5,161.1,94.7"/>
					<path id="XMLID_31660_" clip-path="url(#SVGID_4_)" fill="#C9CACB" d="M161.2,94.7c0,2.1,1.8,3.9,4.1,3.9s4.1-1.7,4.1-3.9
						c0-2.1-1.8-3.9-4.1-3.9S161.2,92.5,161.2,94.7"/>
					<path id="XMLID_31659_" clip-path="url(#SVGID_4_)" fill="#CBCDCD" d="M161.3,94.7c0,2.1,1.8,3.8,4,3.8c2.2,0,4-1.7,4-3.8
						c0-2.1-1.8-3.8-4-3.8C163.2,90.9,161.3,92.6,161.3,94.7"/>
					<path id="XMLID_31658_" clip-path="url(#SVGID_4_)" fill="#CCCFD0" d="M161.5,94.7c0,2,1.8,3.7,3.9,3.7c2.2,0,3.9-1.6,3.9-3.7
						c0-2-1.8-3.7-3.9-3.7C163.2,91,161.5,92.6,161.5,94.7"/>
					<path id="XMLID_31657_" clip-path="url(#SVGID_4_)" fill="#D0D2D2" d="M161.6,94.7c0,2,1.7,3.6,3.8,3.6c2.1,0,3.8-1.6,3.8-3.6
						c0-2-1.7-3.6-3.8-3.6C163.3,91.1,161.6,92.7,161.6,94.7"/>
					<path id="XMLID_31656_" clip-path="url(#SVGID_4_)" fill="#D2D4D5" d="M161.7,94.7c0,1.9,1.7,3.5,3.7,3.5c2,0,3.7-1.6,3.7-3.5
						c0-1.9-1.7-3.5-3.7-3.5C163.3,91.2,161.7,92.7,161.7,94.7"/>
				</g>
			</g>
			<polygon id="XMLID_31653_" fill="#605F5E" points="166,97.3 166,95.2 168.2,95.2 168.2,94.1 166,94.1 166,92 164.8,92 
				164.8,94.1 162.6,94.1 162.6,95.2 164.8,95.2 164.8,97.3 			"/>
			<path id="XMLID_31643_" fill="#221714" d="M165.9,92.1V94v0.2h0.2h2v1h-2h-0.2v0.2v1.9h-1v-1.9v-0.2h-0.2h-2v-1h2h0.2V94v-1.9
				H165.9z M164.7,94h-2.2v1.3h2.2v2.1h1.4v-2.1h2.2V94h-2.2v-2.1h-1.4V94z"/>
		</g>
	</g>
</g>
<path id="XMLID_31776_" fill="none" stroke="#000000" stroke-width="2" stroke-miterlimit="10" d="M275.8,121.5H71.3
	c-3.3,0-6-2.7-6-6V10.1c0-3.3,2.7-6,6-6h204.5c3.3,0,6,2.7,6,6v105.3C281.8,118.8,279.1,121.5,275.8,121.5z"/>
<g id="XMLID_31885_">
	<path id="XMLID_31894_" fill="#3E3A39" d="M469.2,21.8c1.6,0,2.8,1.3,2.8,2.8v65.5c0,1.6-1.3,2.8-2.8,2.8h-50
		c-1.6,0-2.8-1.3-2.8-2.8V24.6c0-1.6,1.3-2.8,2.8-2.8H469.2z"/>
	<path id="XMLID_31893_" fill="none" stroke="#000000" stroke-width="2" stroke-miterlimit="10" d="M469.2,21.8
		c1.6,0,2.8,1.3,2.8,2.8v65.5c0,1.6-1.3,2.8-2.8,2.8h-50c-1.6,0-2.8-1.3-2.8-2.8V24.6c0-1.6,1.3-2.8,2.8-2.8H469.2z"/>
	<polygon id="XMLID_31892_" fill="#231815" points="462.5,81.9 435,81.9 425.8,72.6 425.8,41.9 435.4,32.8 462.5,32.8 	"/>
	<rect id="XMLID_31891_" x="442" y="43" fill="#343842" width="10.4" height="3.1"/>
	<rect id="XMLID_31890_" x="443.8" y="44.5" fill="#8D919A" width="8.6" height="1.6"/>
	<rect id="XMLID_31889_" x="435.5" y="56.5" fill="#343842" width="10.4" height="3.1"/>
	<rect id="XMLID_31888_" x="437.3" y="58.1" fill="#8D919A" width="8.6" height="1.6"/>
	<rect id="XMLID_31887_" x="442" y="70.1" fill="#343842" width="10.4" height="3.1"/>
	<rect id="XMLID_31886_" x="443.8" y="71.6" fill="#8D919A" width="8.6" height="1.6"/>
</g>
<g id="XMLID_31876_">
	
		<linearGradient id="XMLID_4_" gradientUnits="userSpaceOnUse" x1="-2630.1389" y1="7500.5649" x2="-2617.4412" y2="7500.5649" gradientTransform="matrix(-1 0 0 -1 -2169.3054 7612.0327)">
		<stop  offset="0" style="stop-color:#FFFFFF"/>
		<stop  offset="5.656110e-02" style="stop-color:#A3A3A4"/>
		<stop  offset="0.3372" style="stop-color:#919292"/>
		<stop  offset="0.3831" style="stop-color:#E0E0DF"/>
		<stop  offset="0.4519" style="stop-color:#C1C0C0"/>
		<stop  offset="0.9264" style="stop-color:#E0E0DF"/>
		<stop  offset="0.9745" style="stop-color:#C1C0C0"/>
	</linearGradient>
	<path id="XMLID_31884_" fill="url(#XMLID_4_)" d="M460.8,111.5c0-3.5-2.8-6.3-6.3-6.3c-3.5,0-6.3,2.8-6.3,6.3
		c0,3.5,2.8,6.3,6.3,6.3C458,117.8,460.8,114.9,460.8,111.5"/>
	
		<ellipse id="XMLID_31883_" fill="none" stroke="#121212" stroke-width="0.75" stroke-miterlimit="10" cx="454.5" cy="111.5" rx="6.3" ry="6.3"/>
	<polygon id="XMLID_31882_" fill="#040000" points="453.7,107.9 453.7,110.7 450.9,110.7 450.9,112.2 453.7,112.2 453.7,115 
		455.3,115 455.3,112.2 458.1,112.2 458.1,110.7 455.3,110.7 455.3,107.9 	"/>
	<path id="XMLID_31879_" fill="#221714" d="M453.8,114.9v-2.5v-0.3h-0.3H451v-1.3h2.6h0.3v-0.3V108h1.3v2.5v0.3h0.3h2.6v1.3h-2.6
		h-0.3v0.3v2.5H453.8z M455.4,112.4h2.8v-1.8h-2.8v-2.8h-1.8v2.8h-2.8v1.8h2.8v2.8h1.8V112.4z"/>
	<rect id="XMLID_31878_" x="453.6" y="112.1" fill="#606062" width="0.3" height="3.1"/>
	<rect id="XMLID_31877_" x="450.8" y="112.1" fill="#606062" width="3.1" height="0.3"/>
</g>
<g id="XMLID_31779_">
	<polygon id="XMLID_31875_" fill="#0F0F0F" points="327.9,102 307.9,82.1 307.9,32.7 327.9,12.8 377.2,12.8 397.2,32.7 397.2,82.1 
		377.2,102 	"/>
	
		<circle id="XMLID_31874_" fill="none" stroke="#C1C1C1" stroke-width="2.8347" stroke-miterlimit="10" cx="352.6" cy="57.4" r="37.3"/>
	
		<circle id="XMLID_31873_" fill="none" stroke="#C1C1C1" stroke-width="2.8347" stroke-miterlimit="10" cx="352.6" cy="57.4" r="30.8"/>
	
		<circle id="XMLID_31872_" fill="none" stroke="#C1C1C1" stroke-width="2.8347" stroke-miterlimit="10" cx="352.6" cy="57.4" r="24.8"/>
	
		<circle id="XMLID_31871_" fill="#C1C1C1" stroke="#C1C1C1" stroke-width="2.8347" stroke-miterlimit="10" cx="352.6" cy="57.4" r="17.6"/>
	<circle id="XMLID_31870_" fill="#EDEDED" cx="352.6" cy="57.4" r="16.4"/>
	<circle id="XMLID_31869_" fill="none" stroke="#2D2D2D" stroke-miterlimit="10" cx="352.6" cy="57.4" r="13.8"/>
	<circle id="XMLID_31868_" fill="#FCF988" stroke="#2D2D2D" stroke-miterlimit="10" cx="352.6" cy="57.4" r="8.6"/>
	<path id="XMLID_31867_" fill="none" stroke="#C1C1C1" stroke-width="2.8347" stroke-miterlimit="10" d="M319,21.7l29.4,29.4
		c0,0,5.8,7.7,0,13.6L319,93"/>
	<path id="XMLID_31866_" fill="none" stroke="#C1C1C1" stroke-width="2.8347" stroke-miterlimit="10" d="M386.1,21.7l-29.4,29.4
		c0,0-5.8,7.7,0,13.6L386.1,93"/>
	<g id="XMLID_31823_">
		<g id="XMLID_31845_">
			<path id="XMLID_31865_" fill="#AFAEAE" d="M310.1,20.1c0,3.5,3,6.4,6.8,6.4c3.7,0,6.8-2.8,6.8-6.4c0-3.5-3-6.4-6.8-6.4
				C313.1,13.7,310.1,16.6,310.1,20.1"/>
			<ellipse id="XMLID_31864_" fill="none" stroke="#929292" stroke-miterlimit="10" cx="316.9" cy="20.1" rx="6.8" ry="6.4"/>
			<path id="XMLID_31863_" fill="#AFAEAE" d="M311.9,20.1c0,2.6,2.2,4.7,5,4.7c2.7,0,5-2.1,5-4.7c0-2.6-2.2-4.7-5-4.7
				C314.1,15.4,311.9,17.5,311.9,20.1"/>
			<ellipse id="XMLID_31862_" fill="none" stroke="#929292" stroke-miterlimit="10" cx="316.8" cy="20.1" rx="5" ry="4.7"/>
			<g id="XMLID_31850_">
				<g id="XMLID_31851_">
					<defs>
						<rect id="SVGID_154_" x="312.2" y="15.7" width="9.4" height="8.8"/>
					</defs>
					<clipPath id="SVGID_5_">
						<use xlink:href="#SVGID_154_"  overflow="visible"/>
					</clipPath>
					<path id="XMLID_31861_" clip-path="url(#SVGID_5_)" fill="#BEBEBD" d="M312.2,20.1c0,2.4,2.1,4.4,4.7,4.4c2.6,0,4.7-2,4.7-4.4
						c0-2.4-2.1-4.4-4.7-4.4C314.3,15.7,312.2,17.7,312.2,20.1"/>
					<path id="XMLID_31860_" clip-path="url(#SVGID_5_)" fill="#C0C0C0" d="M312.3,20.1c0,2.4,2,4.3,4.6,4.3c2.5,0,4.6-1.9,4.6-4.3
						c0-2.4-2-4.3-4.6-4.3C314.3,15.8,312.3,17.7,312.3,20.1"/>
					<path id="XMLID_31859_" clip-path="url(#SVGID_5_)" fill="#C2C3C3" d="M312.4,20.1c0,2.3,2,4.2,4.5,4.2c2.5,0,4.5-1.9,4.5-4.2
						c0-2.3-2-4.2-4.5-4.2C314.4,15.9,312.4,17.8,312.4,20.1"/>
					<path id="XMLID_31858_" clip-path="url(#SVGID_5_)" fill="#C4C5C4" d="M312.5,20.1c0,2.3,1.9,4.1,4.4,4.1
						c2.4,0,4.4-1.8,4.4-4.1c0-2.3-1.9-4.1-4.4-4.1C314.4,16,312.5,17.8,312.5,20.1"/>
					<path id="XMLID_31857_" clip-path="url(#SVGID_5_)" fill="#C6C8C8" d="M312.6,20.1c0,2.2,1.9,4,4.2,4c2.3,0,4.2-1.8,4.2-4
						c0-2.2-1.9-4-4.2-4C314.5,16.1,312.6,17.9,312.6,20.1"/>
					<path id="XMLID_31856_" clip-path="url(#SVGID_5_)" fill="#C9CACB" d="M312.7,20.1c0,2.1,1.8,3.9,4.1,3.9s4.1-1.7,4.1-3.9
						c0-2.1-1.9-3.9-4.1-3.9S312.7,18,312.7,20.1"/>
					<path id="XMLID_31855_" clip-path="url(#SVGID_5_)" fill="#CBCDCD" d="M312.8,20.1c0,2.1,1.8,3.8,4,3.8c2.2,0,4-1.7,4-3.8
						c0-2.1-1.8-3.8-4-3.8C314.6,16.3,312.8,18,312.8,20.1"/>
					<path id="XMLID_31854_" clip-path="url(#SVGID_5_)" fill="#CCCFD0" d="M312.9,20.1c0,2,1.8,3.7,3.9,3.7c2.2,0,3.9-1.6,3.9-3.7
						c0-2-1.8-3.7-3.9-3.7C314.7,16.4,312.9,18.1,312.9,20.1"/>
					<path id="XMLID_31853_" clip-path="url(#SVGID_5_)" fill="#D0D2D2" d="M313,20.1c0,2,1.7,3.6,3.8,3.6c2.1,0,3.8-1.6,3.8-3.6
						c0-2-1.7-3.6-3.8-3.6C314.8,16.5,313,18.1,313,20.1"/>
					<path id="XMLID_31852_" clip-path="url(#SVGID_5_)" fill="#D2D4D5" d="M313.2,20.1c0,1.9,1.7,3.5,3.7,3.5c2,0,3.7-1.6,3.7-3.5
						c0-1.9-1.7-3.5-3.7-3.5C314.8,16.6,313.2,18.2,313.2,20.1"/>
				</g>
			</g>
			<polygon id="XMLID_31849_" fill="#605F5E" points="317.5,22.8 317.5,20.7 319.7,20.7 319.7,19.5 317.5,19.5 317.5,17.5 
				316.2,17.5 316.2,19.5 314,19.5 314,20.7 316.2,20.7 316.2,22.8 			"/>
			<path id="XMLID_31846_" fill="#221714" d="M317.4,17.6v1.9v0.2h0.2h2v1h-2h-0.2v0.2v1.9h-1v-1.9v-0.2h-0.2h-2v-1h2h0.2v-0.2v-1.9
				H317.4z M316.1,19.4h-2.2v1.3h2.2v2.1h1.4v-2.1h2.2v-1.3h-2.2v-2.1h-1.4V19.4z"/>
		</g>
		<g id="XMLID_31824_">
			<path id="XMLID_31844_" fill="#AFAEAE" d="M381.5,20.1c0,3.5,3,6.4,6.8,6.4c3.7,0,6.8-2.8,6.8-6.4c0-3.5-3-6.4-6.8-6.4
				C384.5,13.7,381.5,16.6,381.5,20.1"/>
			<ellipse id="XMLID_31843_" fill="none" stroke="#929292" stroke-miterlimit="10" cx="388.2" cy="20.1" rx="6.8" ry="6.4"/>
			<path id="XMLID_31842_" fill="#AFAEAE" d="M383.3,20.1c0,2.6,2.2,4.7,5,4.7c2.7,0,5-2.1,5-4.7c0-2.6-2.2-4.7-5-4.7
				C385.5,15.4,383.3,17.5,383.3,20.1"/>
			<ellipse id="XMLID_31841_" fill="none" stroke="#929292" stroke-miterlimit="10" cx="388.2" cy="20.1" rx="5" ry="4.7"/>
			<g id="XMLID_31829_">
				<g id="XMLID_31830_">
					<defs>
						<rect id="SVGID_153_" x="383.5" y="15.7" width="9.4" height="8.8"/>
					</defs>
					<clipPath id="SVGID_6_">
						<use xlink:href="#SVGID_153_"  overflow="visible"/>
					</clipPath>
					<path id="XMLID_31840_" clip-path="url(#SVGID_6_)" fill="#BEBEBD" d="M383.5,20.1c0,2.4,2.1,4.4,4.7,4.4c2.6,0,4.7-2,4.7-4.4
						c0-2.4-2.1-4.4-4.7-4.4C385.6,15.7,383.5,17.7,383.5,20.1"/>
					<path id="XMLID_31839_" clip-path="url(#SVGID_6_)" fill="#C0C0C0" d="M383.7,20.1c0,2.4,2,4.3,4.6,4.3c2.5,0,4.6-1.9,4.6-4.3
						c0-2.4-2-4.3-4.6-4.3C385.7,15.8,383.7,17.7,383.7,20.1"/>
					<path id="XMLID_31838_" clip-path="url(#SVGID_6_)" fill="#C2C3C3" d="M383.8,20.1c0,2.3,2,4.2,4.5,4.2c2.5,0,4.5-1.9,4.5-4.2
						c0-2.3-2-4.2-4.5-4.2C385.8,15.9,383.8,17.8,383.8,20.1"/>
					<path id="XMLID_31837_" clip-path="url(#SVGID_6_)" fill="#C4C5C4" d="M383.9,20.1c0,2.3,1.9,4.1,4.4,4.1
						c2.4,0,4.4-1.8,4.4-4.1c0-2.3-2-4.1-4.4-4.1C385.8,16,383.9,17.8,383.9,20.1"/>
					<path id="XMLID_31836_" clip-path="url(#SVGID_6_)" fill="#C6C8C8" d="M384,20.1c0,2.2,1.9,4,4.2,4c2.3,0,4.2-1.8,4.2-4
						c0-2.2-1.9-4-4.2-4C385.9,16.1,384,17.9,384,20.1"/>
					<path id="XMLID_31835_" clip-path="url(#SVGID_6_)" fill="#C9CACB" d="M384.1,20.1c0,2.1,1.8,3.9,4.1,3.9
						c2.3,0,4.1-1.7,4.1-3.9c0-2.1-1.8-3.9-4.1-3.9C385.9,16.2,384.1,18,384.1,20.1"/>
					<path id="XMLID_31834_" clip-path="url(#SVGID_6_)" fill="#CBCDCD" d="M384.2,20.1c0,2.1,1.8,3.8,4,3.8c2.2,0,4-1.7,4-3.8
						c0-2.1-1.8-3.8-4-3.8C386,16.3,384.2,18,384.2,20.1"/>
					<path id="XMLID_31833_" clip-path="url(#SVGID_6_)" fill="#CCCFD0" d="M384.3,20.1c0,2,1.8,3.7,3.9,3.7c2.2,0,3.9-1.6,3.9-3.7
						c0-2-1.8-3.7-3.9-3.7C386.1,16.4,384.3,18.1,384.3,20.1"/>
					<path id="XMLID_31832_" clip-path="url(#SVGID_6_)" fill="#D0D2D2" d="M384.4,20.1c0,2,1.7,3.6,3.8,3.6c2.1,0,3.8-1.6,3.8-3.6
						c0-2-1.7-3.6-3.8-3.6C386.1,16.5,384.4,18.1,384.4,20.1"/>
					<path id="XMLID_31831_" clip-path="url(#SVGID_6_)" fill="#D2D4D5" d="M384.5,20.1c0,1.9,1.7,3.5,3.7,3.5c2,0,3.7-1.6,3.7-3.5
						c0-1.9-1.7-3.5-3.7-3.5C386.2,16.6,384.5,18.2,384.5,20.1"/>
				</g>
			</g>
			<polygon id="XMLID_31828_" fill="#605F5E" points="388.8,22.8 388.8,20.7 391,20.7 391,19.5 388.8,19.5 388.8,17.5 387.6,17.5 
				387.6,19.5 385.4,19.5 385.4,20.7 387.6,20.7 387.6,22.8 			"/>
			<path id="XMLID_31825_" fill="#221714" d="M388.7,17.6v1.9v0.2h0.2h2v1h-2h-0.2v0.2v1.9h-1v-1.9v-0.2h-0.2h-2v-1h2h0.2v-0.2v-1.9
				H388.7z M387.5,19.4h-2.2v1.3h2.2v2.1h1.4v-2.1h2.2v-1.3h-2.2v-2.1h-1.4V19.4z"/>
		</g>
	</g>
	<g id="XMLID_31780_">
		<g id="XMLID_31802_">
			<path id="XMLID_31822_" fill="#AFAEAE" d="M310.1,94.7c0,3.5,3,6.4,6.8,6.4c3.7,0,6.8-2.8,6.8-6.4c0-3.5-3-6.4-6.8-6.4
				C313.1,88.3,310.1,91.1,310.1,94.7"/>
			<ellipse id="XMLID_31821_" fill="none" stroke="#929292" stroke-miterlimit="10" cx="316.9" cy="94.7" rx="6.8" ry="6.4"/>
			<path id="XMLID_31820_" fill="#AFAEAE" d="M311.9,94.7c0,2.6,2.2,4.7,5,4.7c2.7,0,5-2.1,5-4.7c0-2.6-2.2-4.7-5-4.7
				C314.1,90,311.9,92.1,311.9,94.7"/>
			<ellipse id="XMLID_31819_" fill="none" stroke="#929292" stroke-miterlimit="10" cx="316.8" cy="94.7" rx="5" ry="4.7"/>
			<g id="XMLID_31807_">
				<g id="XMLID_31808_">
					<defs>
						<rect id="SVGID_152_" x="312.2" y="90.3" width="9.4" height="8.8"/>
					</defs>
					<clipPath id="SVGID_7_">
						<use xlink:href="#SVGID_152_"  overflow="visible"/>
					</clipPath>
					<path id="XMLID_31818_" clip-path="url(#SVGID_7_)" fill="#BEBEBD" d="M312.2,94.7c0,2.4,2.1,4.4,4.7,4.4c2.6,0,4.7-2,4.7-4.4
						c0-2.4-2.1-4.4-4.7-4.4C314.3,90.3,312.2,92.2,312.2,94.7"/>
					<path id="XMLID_31817_" clip-path="url(#SVGID_7_)" fill="#C0C0C0" d="M312.3,94.7c0,2.4,2,4.3,4.6,4.3c2.5,0,4.6-1.9,4.6-4.3
						c0-2.4-2-4.3-4.6-4.3C314.3,90.4,312.3,92.3,312.3,94.7"/>
					<path id="XMLID_31816_" clip-path="url(#SVGID_7_)" fill="#C2C3C3" d="M312.4,94.7c0,2.3,2,4.2,4.5,4.2c2.5,0,4.5-1.9,4.5-4.2
						c0-2.3-2-4.2-4.5-4.2C314.4,90.5,312.4,92.3,312.4,94.7"/>
					<path id="XMLID_31815_" clip-path="url(#SVGID_7_)" fill="#C4C5C4" d="M312.5,94.7c0,2.3,1.9,4.1,4.4,4.1
						c2.4,0,4.4-1.8,4.4-4.1c0-2.3-1.9-4.1-4.4-4.1C314.4,90.6,312.5,92.4,312.5,94.7"/>
					<path id="XMLID_31814_" clip-path="url(#SVGID_7_)" fill="#C6C8C8" d="M312.6,94.7c0,2.2,1.9,4,4.2,4c2.3,0,4.2-1.8,4.2-4
						c0-2.2-1.9-4-4.2-4C314.5,90.7,312.6,92.5,312.6,94.7"/>
					<path id="XMLID_31813_" clip-path="url(#SVGID_7_)" fill="#C9CACB" d="M312.7,94.7c0,2.1,1.8,3.9,4.1,3.9s4.1-1.7,4.1-3.9
						c0-2.1-1.9-3.9-4.1-3.9S312.7,92.5,312.7,94.7"/>
					<path id="XMLID_31812_" clip-path="url(#SVGID_7_)" fill="#CBCDCD" d="M312.8,94.7c0,2.1,1.8,3.8,4,3.8c2.2,0,4-1.7,4-3.8
						c0-2.1-1.8-3.8-4-3.8C314.6,90.9,312.8,92.6,312.8,94.7"/>
					<path id="XMLID_31811_" clip-path="url(#SVGID_7_)" fill="#CCCFD0" d="M312.9,94.7c0,2,1.8,3.7,3.9,3.7c2.2,0,3.9-1.6,3.9-3.7
						c0-2-1.8-3.7-3.9-3.7C314.7,91,312.9,92.6,312.9,94.7"/>
					<path id="XMLID_31810_" clip-path="url(#SVGID_7_)" fill="#D0D2D2" d="M313,94.7c0,2,1.7,3.6,3.8,3.6c2.1,0,3.8-1.6,3.8-3.6
						c0-2-1.7-3.6-3.8-3.6C314.8,91.1,313,92.7,313,94.7"/>
					<path id="XMLID_31809_" clip-path="url(#SVGID_7_)" fill="#D2D4D5" d="M313.2,94.7c0,1.9,1.7,3.5,3.7,3.5c2,0,3.7-1.6,3.7-3.5
						c0-1.9-1.7-3.5-3.7-3.5C314.8,91.2,313.2,92.7,313.2,94.7"/>
				</g>
			</g>
			<polygon id="XMLID_31806_" fill="#605F5E" points="317.5,97.3 317.5,95.2 319.7,95.2 319.7,94.1 317.5,94.1 317.5,92 316.2,92 
				316.2,94.1 314,94.1 314,95.2 316.2,95.2 316.2,97.3 			"/>
			<path id="XMLID_31803_" fill="#221714" d="M317.4,92.1V94v0.2h0.2h2v1h-2h-0.2v0.2v1.9h-1v-1.9v-0.2h-0.2h-2v-1h2h0.2V94v-1.9
				H317.4z M316.1,94h-2.2v1.3h2.2v2.1h1.4v-2.1h2.2V94h-2.2v-2.1h-1.4V94z"/>
		</g>
		<g id="XMLID_31781_">
			<path id="XMLID_31801_" fill="#AFAEAE" d="M381.5,94.7c0,3.5,3,6.4,6.8,6.4c3.7,0,6.8-2.8,6.8-6.4c0-3.5-3-6.4-6.8-6.4
				C384.5,88.3,381.5,91.1,381.5,94.7"/>
			<ellipse id="XMLID_31800_" fill="none" stroke="#929292" stroke-miterlimit="10" cx="388.2" cy="94.7" rx="6.8" ry="6.4"/>
			<path id="XMLID_31799_" fill="#AFAEAE" d="M383.3,94.7c0,2.6,2.2,4.7,5,4.7c2.7,0,5-2.1,5-4.7c0-2.6-2.2-4.7-5-4.7
				C385.5,90,383.3,92.1,383.3,94.7"/>
			<ellipse id="XMLID_31798_" fill="none" stroke="#929292" stroke-miterlimit="10" cx="388.2" cy="94.7" rx="5" ry="4.7"/>
			<g id="XMLID_31786_">
				<g id="XMLID_31787_">
					<defs>
						<rect id="SVGID_151_" x="383.5" y="90.3" width="9.4" height="8.8"/>
					</defs>
					<clipPath id="SVGID_8_">
						<use xlink:href="#SVGID_151_"  overflow="visible"/>
					</clipPath>
					<path id="XMLID_31797_" clip-path="url(#SVGID_8_)" fill="#BEBEBD" d="M383.5,94.7c0,2.4,2.1,4.4,4.7,4.4c2.6,0,4.7-2,4.7-4.4
						c0-2.4-2.1-4.4-4.7-4.4C385.6,90.3,383.5,92.2,383.5,94.7"/>
					<path id="XMLID_31796_" clip-path="url(#SVGID_8_)" fill="#C0C0C0" d="M383.7,94.7c0,2.4,2,4.3,4.6,4.3c2.5,0,4.6-1.9,4.6-4.3
						c0-2.4-2-4.3-4.6-4.3C385.7,90.4,383.7,92.3,383.7,94.7"/>
					<path id="XMLID_31795_" clip-path="url(#SVGID_8_)" fill="#C2C3C3" d="M383.8,94.7c0,2.3,2,4.2,4.5,4.2c2.5,0,4.5-1.9,4.5-4.2
						c0-2.3-2-4.2-4.5-4.2C385.8,90.5,383.8,92.3,383.8,94.7"/>
					<path id="XMLID_31794_" clip-path="url(#SVGID_8_)" fill="#C4C5C4" d="M383.9,94.7c0,2.3,1.9,4.1,4.4,4.1
						c2.4,0,4.4-1.8,4.4-4.1c0-2.3-2-4.1-4.4-4.1C385.8,90.6,383.9,92.4,383.9,94.7"/>
					<path id="XMLID_31793_" clip-path="url(#SVGID_8_)" fill="#C6C8C8" d="M384,94.7c0,2.2,1.9,4,4.2,4c2.3,0,4.2-1.8,4.2-4
						c0-2.2-1.9-4-4.2-4C385.9,90.7,384,92.5,384,94.7"/>
					<path id="XMLID_31792_" clip-path="url(#SVGID_8_)" fill="#C9CACB" d="M384.1,94.7c0,2.1,1.8,3.9,4.1,3.9
						c2.3,0,4.1-1.7,4.1-3.9c0-2.1-1.8-3.9-4.1-3.9C385.9,90.8,384.1,92.5,384.1,94.7"/>
					<path id="XMLID_31791_" clip-path="url(#SVGID_8_)" fill="#CBCDCD" d="M384.2,94.7c0,2.1,1.8,3.8,4,3.8c2.2,0,4-1.7,4-3.8
						c0-2.1-1.8-3.8-4-3.8C386,90.9,384.2,92.6,384.2,94.7"/>
					<path id="XMLID_31790_" clip-path="url(#SVGID_8_)" fill="#CCCFD0" d="M384.3,94.7c0,2,1.8,3.7,3.9,3.7c2.2,0,3.9-1.6,3.9-3.7
						c0-2-1.8-3.7-3.9-3.7C386.1,91,384.3,92.6,384.3,94.7"/>
					<path id="XMLID_31789_" clip-path="url(#SVGID_8_)" fill="#D0D2D2" d="M384.4,94.7c0,2,1.7,3.6,3.8,3.6c2.1,0,3.8-1.6,3.8-3.6
						c0-2-1.7-3.6-3.8-3.6C386.1,91.1,384.4,92.7,384.4,94.7"/>
					<path id="XMLID_31788_" clip-path="url(#SVGID_8_)" fill="#D2D4D5" d="M384.5,94.7c0,1.9,1.7,3.5,3.7,3.5c2,0,3.7-1.6,3.7-3.5
						c0-1.9-1.7-3.5-3.7-3.5C386.2,91.2,384.5,92.7,384.5,94.7"/>
				</g>
			</g>
			<polygon id="XMLID_31785_" fill="#605F5E" points="388.8,97.3 388.8,95.2 391,95.2 391,94.1 388.8,94.1 388.8,92 387.6,92 
				387.6,94.1 385.4,94.1 385.4,95.2 387.6,95.2 387.6,97.3 			"/>
			<path id="XMLID_31782_" fill="#221714" d="M388.7,92.1V94v0.2h0.2h2v1h-2h-0.2v0.2v1.9h-1v-1.9v-0.2h-0.2h-2v-1h2h0.2V94v-1.9
				H388.7z M387.5,94h-2.2v1.3h2.2v2.1h1.4v-2.1h2.2V94h-2.2v-2.1h-1.4V94z"/>
		</g>
	</g>
</g>
<path id="XMLID_31778_" fill="none" stroke="#000000" stroke-width="2" stroke-miterlimit="10" d="M498.6,121.5H294.1
	c-3.3,0-6-2.7-6-6V10.1c0-3.3,2.7-6,6-6h204.5c3.3,0,6,2.7,6,6v105.3C504.6,118.8,502,121.5,498.6,121.5z"/>
<g id="XMLID_31948_">
	<rect id="XMLID_31950_" x="526.1" y="24.3" fill="#030000" width="43.1" height="77.5"/>
	<linearGradient id="XMLID_5_" gradientUnits="userSpaceOnUse" x1="526.6124" y1="63.1486" x2="568.6212" y2="63.1486">
		<stop  offset="0" style="stop-color:#FFFFFF"/>
		<stop  offset="0.1688" style="stop-color:#B1B4B5"/>
		<stop  offset="0.4086" style="stop-color:#E0E0DF"/>
		<stop  offset="0.7581" style="stop-color:#B1B4B5"/>
		<stop  offset="1" style="stop-color:#C2C2C2"/>
	</linearGradient>
	<rect id="XMLID_31949_" x="526.6" y="25.8" fill="url(#XMLID_5_)" width="42" height="74.7"/>
</g>
<g id="XMLID_31976_">
	<rect id="XMLID_31978_" x="579.4" y="24.3" fill="#030000" width="43.1" height="77.5"/>
	<linearGradient id="XMLID_6_" gradientUnits="userSpaceOnUse" x1="579.9457" y1="63.1486" x2="621.9545" y2="63.1486">
		<stop  offset="0" style="stop-color:#FFFFFF"/>
		<stop  offset="0.1688" style="stop-color:#B1B4B5"/>
		<stop  offset="0.4086" style="stop-color:#E0E0DF"/>
		<stop  offset="0.7581" style="stop-color:#B1B4B5"/>
		<stop  offset="1" style="stop-color:#C2C2C2"/>
	</linearGradient>
	<rect id="XMLID_31977_" x="579.9" y="25.8" fill="url(#XMLID_6_)" width="42" height="74.7"/>
</g>
<g id="XMLID_32102_">
	<rect id="XMLID_32104_" x="642" y="77.5" fill="#030000" width="43.1" height="36.2"/>
	<linearGradient id="XMLID_7_" gradientUnits="userSpaceOnUse" x1="642.5116" y1="95.6067" x2="684.5204" y2="95.6067">
		<stop  offset="0" style="stop-color:#FFFFFF"/>
		<stop  offset="0.1688" style="stop-color:#B1B4B5"/>
		<stop  offset="0.4086" style="stop-color:#E0E0DF"/>
		<stop  offset="0.7581" style="stop-color:#B1B4B5"/>
		<stop  offset="1" style="stop-color:#C2C2C2"/>
	</linearGradient>
	<rect id="XMLID_32103_" x="642.5" y="78.2" fill="url(#XMLID_7_)" width="42" height="34.8"/>
</g>
<g id="XMLID_32089_">
	<rect id="XMLID_32106_" x="694.3" y="77.5" fill="#030000" width="43.1" height="36.2"/>
	<linearGradient id="XMLID_8_" gradientUnits="userSpaceOnUse" x1="694.8113" y1="95.6067" x2="736.8201" y2="95.6067">
		<stop  offset="0" style="stop-color:#FFFFFF"/>
		<stop  offset="0.1688" style="stop-color:#B1B4B5"/>
		<stop  offset="0.4086" style="stop-color:#E0E0DF"/>
		<stop  offset="0.7581" style="stop-color:#B1B4B5"/>
		<stop  offset="1" style="stop-color:#C2C2C2"/>
	</linearGradient>
	<rect id="XMLID_32105_" x="694.8" y="78.2" fill="url(#XMLID_8_)" width="42" height="34.8"/>
</g>
<path id="XMLID_31777_" fill="#C1C1C1" stroke="#000000" stroke-miterlimit="10" d="M950.2,59.8H638.1c-3.8,0-6.8-3-6.8-6.8V16.3
	c0-3.8,3-6.8,6.8-6.8h312.1c3.8,0,6.8,3,6.8,6.8V53C957,56.7,954,59.8,950.2,59.8z"/>
<path id="XMLID_31896_" fill="#C1C1C1" stroke="#000000" stroke-miterlimit="10" d="M1341,59.8h-323.6c-3.8,0-6.9-3.1-6.9-6.9V16.4
	c0-3.8,3.1-6.9,6.9-6.9H1341c3.8,0,6.9,3.1,6.9,6.9v36.4C1348,56.7,1344.9,59.8,1341,59.8z"/>
<path id="XMLID_31897_" fill="#C1C1C1" stroke="#000000" stroke-miterlimit="10" d="M1341,115h-323.6c-3.8,0-6.9-3.1-6.9-6.9V71.7
	c0-3.8,3.1-6.9,6.9-6.9H1341c3.8,0,6.9,3.1,6.9,6.9v36.4C1348,111.9,1344.9,115,1341,115z"/>
<rect id="XMLID_31895_" x="638.8" y="18.5" width="12.8" height="12.7"/>
<rect id="XMLID_31899_" x="638.8" y="35.5" width="12.8" height="12.7"/>
<rect id="XMLID_31901_" x="655.2" y="18.5" width="12.8" height="12.7"/>
<rect id="XMLID_31900_" x="655.2" y="35.5" width="12.8" height="12.7"/>
<rect id="XMLID_31903_" x="671.5" y="18.5" width="12.8" height="12.7"/>
<rect id="XMLID_31902_" x="671.5" y="35.5" width="12.8" height="12.7"/>
<rect id="XMLID_31914_" x="687.9" y="18.5" width="12.8" height="12.7"/>
<rect id="XMLID_31904_" x="687.9" y="35.5" width="12.8" height="12.7"/>
<rect id="XMLID_31916_" x="704.3" y="18.5" width="12.8" height="12.7"/>
<rect id="XMLID_31915_" x="704.3" y="35.5" width="12.8" height="12.7"/>
<rect id="XMLID_31918_" x="720.7" y="18.5" width="12.8" height="12.7"/>
<rect id="XMLID_31917_" x="720.7" y="35.5" width="12.8" height="12.7"/>
<rect id="XMLID_31920_" x="737" y="18.5" width="12.8" height="12.7"/>
<rect id="XMLID_31919_" x="737" y="35.5" width="12.8" height="12.7"/>
<rect id="XMLID_31922_" x="753.4" y="18.5" width="12.8" height="12.7"/>
<rect id="XMLID_31921_" x="753.4" y="35.5" width="12.8" height="12.7"/>
<rect id="XMLID_31980_" x="769.8" y="18.5" width="12.8" height="12.7"/>
<rect id="XMLID_31979_" x="769.8" y="35.5" width="12.8" height="12.7"/>
<rect id="XMLID_31982_" x="786.2" y="18.5" width="12.8" height="12.7"/>
<rect id="XMLID_31981_" x="786.2" y="35.5" width="12.8" height="12.7"/>
<rect id="XMLID_31984_" x="802.5" y="18.5" width="12.8" height="12.7"/>
<rect id="XMLID_31983_" x="802.5" y="35.5" width="12.8" height="12.7"/>
<rect id="XMLID_31986_" x="818.9" y="18.5" width="12.8" height="12.7"/>
<rect id="XMLID_31985_" x="818.9" y="35.5" width="12.8" height="12.7"/>
<rect id="XMLID_31988_" x="835.3" y="18.5" width="12.8" height="12.7"/>
<rect id="XMLID_31987_" x="835.3" y="35.5" width="12.8" height="12.7"/>
<rect id="XMLID_31990_" x="851.7" y="18.5" width="12.8" height="12.7"/>
<rect id="XMLID_31989_" x="851.7" y="35.5" width="12.8" height="12.7"/>
<rect id="XMLID_31992_" x="868" y="18.5" width="12.8" height="12.7"/>
<rect id="XMLID_31991_" x="868" y="35.5" width="12.8" height="12.7"/>
<rect id="XMLID_31994_" x="884.4" y="18.5" width="12.8" height="12.7"/>
<rect id="XMLID_31993_" x="884.4" y="35.5" width="12.8" height="12.7"/>
<rect id="XMLID_31996_" x="900.8" y="18.5" width="12.8" height="12.7"/>
<rect id="XMLID_31995_" x="900.8" y="35.5" width="12.8" height="12.7"/>
<rect id="XMLID_31998_" x="917.2" y="18.5" width="12.8" height="12.7"/>
<rect id="XMLID_31997_" x="917.2" y="35.5" width="12.8" height="12.7"/>
<rect id="XMLID_32000_" x="933.5" y="18.5" width="12.8" height="12.7"/>
<rect id="XMLID_31999_" x="933.5" y="35.5" width="12.8" height="12.7"/>
<rect id="XMLID_32038_" x="1023.7" y="18.5" width="12.8" height="12.7"/>
<rect id="XMLID_32037_" x="1023.7" y="35.5" width="12.8" height="12.7"/>
<rect id="XMLID_32036_" x="1040.1" y="18.5" width="12.8" height="12.7"/>
<rect id="XMLID_32035_" x="1040.1" y="35.5" width="12.8" height="12.7"/>
<rect id="XMLID_32034_" x="1056.4" y="18.5" width="12.8" height="12.7"/>
<rect id="XMLID_32033_" x="1056.4" y="35.5" width="12.8" height="12.7"/>
<rect id="XMLID_32032_" x="1072.8" y="18.5" width="12.8" height="12.7"/>
<rect id="XMLID_32031_" x="1072.8" y="35.5" width="12.8" height="12.7"/>
<rect id="XMLID_32030_" x="1089.2" y="18.5" width="12.8" height="12.7"/>
<rect id="XMLID_32029_" x="1089.2" y="35.5" width="12.8" height="12.7"/>
<rect id="XMLID_32028_" x="1105.6" y="18.5" width="12.8" height="12.7"/>
<rect id="XMLID_32027_" x="1105.6" y="35.5" width="12.8" height="12.7"/>
<rect id="XMLID_32026_" x="1121.9" y="18.5" width="12.8" height="12.7"/>
<rect id="XMLID_32025_" x="1121.9" y="35.5" width="12.8" height="12.7"/>
<rect id="XMLID_32024_" x="1138.3" y="18.5" width="12.8" height="12.7"/>
<rect id="XMLID_32023_" x="1138.3" y="35.5" width="12.8" height="12.7"/>
<rect id="XMLID_32022_" x="1154.7" y="18.5" width="12.8" height="12.7"/>
<rect id="XMLID_32021_" x="1154.7" y="35.5" width="12.8" height="12.7"/>
<rect id="XMLID_32020_" x="1171.1" y="18.5" width="12.8" height="12.7"/>
<rect id="XMLID_32019_" x="1171.1" y="35.5" width="12.8" height="12.7"/>
<rect id="XMLID_32018_" x="1187.4" y="18.5" width="12.8" height="12.7"/>
<rect id="XMLID_32017_" x="1187.4" y="35.5" width="12.8" height="12.7"/>
<rect id="XMLID_32016_" x="1203.8" y="18.5" width="12.8" height="12.7"/>
<rect id="XMLID_32015_" x="1203.8" y="35.5" width="12.8" height="12.7"/>
<rect id="XMLID_32014_" x="1220.2" y="18.5" width="12.8" height="12.7"/>
<rect id="XMLID_32013_" x="1220.2" y="35.5" width="12.8" height="12.7"/>
<rect id="XMLID_32012_" x="1236.6" y="18.5" width="12.8" height="12.7"/>
<rect id="XMLID_32011_" x="1236.6" y="35.5" width="12.8" height="12.7"/>
<rect id="XMLID_32010_" x="1252.9" y="18.5" width="12.8" height="12.7"/>
<rect id="XMLID_32009_" x="1252.9" y="35.5" width="12.8" height="12.7"/>
<rect id="XMLID_32008_" x="1269.3" y="18.5" width="12.8" height="12.7"/>
<rect id="XMLID_32007_" x="1269.3" y="35.5" width="12.8" height="12.7"/>
<rect id="XMLID_32006_" x="1285.7" y="18.5" width="12.8" height="12.7"/>
<rect id="XMLID_32005_" x="1285.7" y="35.5" width="12.8" height="12.7"/>
<rect id="XMLID_32004_" x="1302.1" y="18.5" width="12.8" height="12.7"/>
<rect id="XMLID_32003_" x="1302.1" y="35.5" width="12.8" height="12.7"/>
<rect id="XMLID_32002_" x="1318.4" y="18.5" width="12.8" height="12.7"/>
<rect id="XMLID_32001_" x="1318.4" y="35.5" width="12.8" height="12.7"/>
<rect id="XMLID_32076_" x="1023.7" y="76" width="12.8" height="12.7"/>
<rect id="XMLID_32075_" x="1023.7" y="93.1" width="12.8" height="12.7"/>
<rect id="XMLID_32074_" x="1040.1" y="76" width="12.8" height="12.7"/>
<rect id="XMLID_32073_" x="1040.1" y="93.1" width="12.8" height="12.7"/>
<rect id="XMLID_32072_" x="1056.4" y="76" width="12.8" height="12.7"/>
<rect id="XMLID_32071_" x="1056.4" y="93.1" width="12.8" height="12.7"/>
<rect id="XMLID_32070_" x="1072.8" y="76" width="12.8" height="12.7"/>
<rect id="XMLID_32069_" x="1072.8" y="93.1" width="12.8" height="12.7"/>
<rect id="XMLID_32068_" x="1089.2" y="76" width="12.8" height="12.7"/>
<rect id="XMLID_32067_" x="1089.2" y="93.1" width="12.8" height="12.7"/>
<rect id="XMLID_32066_" x="1105.6" y="76" width="12.8" height="12.7"/>
<rect id="XMLID_32065_" x="1105.6" y="93.1" width="12.8" height="12.7"/>
<rect id="XMLID_32064_" x="1121.9" y="76" width="12.8" height="12.7"/>
<rect id="XMLID_32063_" x="1121.9" y="93.1" width="12.8" height="12.7"/>
<rect id="XMLID_32062_" x="1138.3" y="76" width="12.8" height="12.7"/>
<rect id="XMLID_32061_" x="1138.3" y="93.1" width="12.8" height="12.7"/>
<rect id="XMLID_32060_" x="1154.7" y="76" width="12.8" height="12.7"/>
<rect id="XMLID_32059_" x="1154.7" y="93.1" width="12.8" height="12.7"/>
<rect id="XMLID_32058_" x="1171.1" y="76" width="12.8" height="12.7"/>
<rect id="XMLID_32057_" x="1171.1" y="93.1" width="12.8" height="12.7"/>
<rect id="XMLID_32056_" x="1187.4" y="76" width="12.8" height="12.7"/>
<rect id="XMLID_32055_" x="1187.4" y="93.1" width="12.8" height="12.7"/>
<rect id="XMLID_32054_" x="1203.8" y="76" width="12.8" height="12.7"/>
<rect id="XMLID_32053_" x="1203.8" y="93.1" width="12.8" height="12.7"/>
<rect id="XMLID_32052_" x="1220.2" y="76" width="12.8" height="12.7"/>
<rect id="XMLID_32051_" x="1220.2" y="93.1" width="12.8" height="12.7"/>
<rect id="XMLID_32050_" x="1236.6" y="76" width="12.8" height="12.7"/>
<rect id="XMLID_32049_" x="1236.6" y="93.1" width="12.8" height="12.7"/>
<rect id="XMLID_32048_" x="1252.9" y="76" width="12.8" height="12.7"/>
<rect id="XMLID_32047_" x="1252.9" y="93.1" width="12.8" height="12.7"/>
<rect id="XMLID_32046_" x="1269.3" y="76" width="12.8" height="12.7"/>
<rect id="XMLID_32045_" x="1269.3" y="93.1" width="12.8" height="12.7"/>
<rect id="XMLID_32044_" x="1285.7" y="76" width="12.8" height="12.7"/>
<rect id="XMLID_32043_" x="1285.7" y="93.1" width="12.8" height="12.7"/>
<rect id="XMLID_32042_" x="1302.1" y="76" width="12.8" height="12.7"/>
<rect id="XMLID_32041_" x="1302.1" y="93.1" width="12.8" height="12.7"/>
<rect id="XMLID_32040_" x="1318.4" y="76" width="12.8" height="12.7"/>
<rect id="XMLID_32039_" x="1318.4" y="93.1" width="12.8" height="12.7"/>
<path id="XMLID_32195_" d="M44.1,27.6H20.5c-4.5,0-8.2-3.7-8.2-8.2v-2.8c0-4.5,3.7-8.2,8.2-8.2h23.5c4.5,0,8.2,3.7,8.2,8.2v2.8
	C52.3,24,48.6,27.6,44.1,27.6z"/>
<path id="XMLID_32197_" d="M44.1,72.7H20.5c-4.5,0-8.2-3.7-8.2-8.2v-2.7c0-4.5,3.7-8.2,8.2-8.2h23.5c4.5,0,8.2,3.7,8.2,8.2v2.7
	C52.3,69,48.6,72.7,44.1,72.7z"/>
<path id="XMLID_32198_" d="M44.1,117.7H20.5c-4.5,0-8.2-3.7-8.2-8.2v-2.8c0-4.5,3.7-8.2,8.2-8.2h23.5c4.5,0,8.2,3.7,8.2,8.2v2.8
	C52.3,114.1,48.6,117.7,44.1,117.7z"/>
<path id="XMLID_32201_" d="M1396.5,27.6h-23.5c-4.5,0-8.2-3.7-8.2-8.2v-2.8c0-4.5,3.7-8.2,8.2-8.2h23.5c4.5,0,8.2,3.7,8.2,8.2v2.8
	C1404.7,24,1401,27.6,1396.5,27.6z"/>
<path id="XMLID_32200_" d="M1396.5,72.7h-23.5c-4.5,0-8.2-3.7-8.2-8.2v-2.7c0-4.5,3.7-8.2,8.2-8.2h23.5c4.5,0,8.2,3.7,8.2,8.2v2.7
	C1404.7,69,1401,72.7,1396.5,72.7z"/>
<path id="XMLID_32199_" d="M1396.5,117.7h-23.5c-4.5,0-8.2-3.7-8.2-8.2v-2.8c0-4.5,3.7-8.2,8.2-8.2h23.5c4.5,0,8.2,3.7,8.2,8.2v2.8
	C1404.7,114.1,1401,117.7,1396.5,117.7z"/>
</svg>
