<?xml version="1.0" encoding="utf-8"?>
<!-- Generator: Adobe Illustrator 16.0.0, SVG Export Plug-In . SVG Version: 6.00 Build 0)  -->
<!DOCTYPE svg PUBLIC "-//W3C//DTD SVG 1.1//EN" "http://www.w3.org/Graphics/SVG/1.1/DTD/svg11.dtd">
<svg version="1.1" id="图层_1" xmlns="http://www.w3.org/2000/svg" xmlns:xlink="http://www.w3.org/1999/xlink" x="0px" y="0px"
	 width="1417.32px" height="126.14px" viewBox="0 0 1417.32 126.14" enable-background="new 0 0 1417.32 126.14"
	 xml:space="preserve">
<linearGradient id="SVGID_1_" gradientUnits="userSpaceOnUse" x1="708.6602" y1="126.1406" x2="708.6602" y2="-4.882813e-004">
	<stop  offset="0" style="stop-color:#717071"/>
	<stop  offset="0.0718" style="stop-color:#F7F7F7"/>
	<stop  offset="0.4839" style="stop-color:#C8C9CA"/>
	<stop  offset="0.928" style="stop-color:#EEEEEF"/>
	<stop  offset="1" style="stop-color:#717071"/>
</linearGradient>
<rect x="-0.001" y="-0.001" fill="url(#SVGID_1_)" width="1417.323" height="126.142"/>
<rect x="70.865" y="-0.001" fill="#353535" width="1275.59" height="126.142"/>
<g>
	
		<linearGradient id="SVGID_2_" gradientUnits="userSpaceOnUse" x1="4085.3574" y1="63.0693" x2="4156.2246" y2="63.0693" gradientTransform="matrix(1 0 0 1 -4085.3594 0)">
		<stop  offset="0" style="stop-color:#343535"/>
		<stop  offset="0.7778" style="stop-color:#343535"/>
		<stop  offset="0.8835" style="stop-color:#636666"/>
		<stop  offset="1" style="stop-color:#030000"/>
	</linearGradient>
	<rect x="-0.001" y="-0.001" fill="url(#SVGID_2_)" width="70.866" height="126.141"/>
	<g>
		<g>
			<path fill="#B7B6B6" d="M37,15.367c0,3.931-3.385,7.118-7.562,7.118H13.125c-4.177,0-7.563-3.188-7.563-7.118l0,0
				c0-3.931,3.386-7.118,7.563-7.118h16.314C33.615,8.249,37,11.437,37,15.367L37,15.367z"/>
			<path fill="#0E0D0D" d="M36.107,15.165c0,3.82-3.289,6.916-7.346,6.916H12.91c-4.059,0-7.348-3.096-7.348-6.916l0,0
				c0-3.82,3.29-6.916,7.348-6.916h15.851C32.818,8.249,36.107,11.345,36.107,15.165L36.107,15.165z"/>
		</g>
		<g>
			<path fill="#B7B6B6" d="M37,110.771c0,3.931-3.385,7.118-7.562,7.118H13.125c-4.177,0-7.563-3.188-7.563-7.118l0,0
				c0-3.931,3.386-7.118,7.563-7.118h16.314C33.615,103.653,37,106.841,37,110.771L37,110.771z"/>
			<path fill="#0E0D0D" d="M36.107,110.569c0,3.82-3.289,6.916-7.346,6.916H12.91c-4.059,0-7.348-3.096-7.348-6.916l0,0
				c0-3.82,3.29-6.916,7.348-6.916h15.851C32.818,103.653,36.107,106.749,36.107,110.569L36.107,110.569z"/>
		</g>
	</g>
	<g>
		<g>
			<path fill="#AFAEAE" d="M11.016,15.368c0,5.365,4.596,9.716,10.266,9.716c5.67,0,10.266-4.351,10.266-9.716
				c0-5.367-4.596-9.718-10.266-9.718C15.612,5.65,11.016,10.001,11.016,15.368"/>
			<ellipse fill="none" stroke="#929292" stroke-miterlimit="10" cx="21.281" cy="15.368" rx="10.266" ry="9.716"/>
			<path fill="#AFAEAE" d="M13.738,15.368c0,3.941,3.378,7.139,7.543,7.139c4.167,0,7.545-3.197,7.545-7.139
				c0-3.943-3.378-7.141-7.545-7.141C17.116,8.228,13.738,11.425,13.738,15.368"/>
			<ellipse fill="none" stroke="#929292" stroke-miterlimit="10" cx="21.282" cy="15.368" rx="7.544" ry="7.139"/>
			<g>
				<g>
					<defs>
						<rect id="SVGID_3_" x="14.172" y="8.638" width="14.22" height="13.457"/>
					</defs>
					<clipPath id="SVGID_4_">
						<use xlink:href="#SVGID_3_"  overflow="visible"/>
					</clipPath>
					<path clip-path="url(#SVGID_4_)" fill="#BEBEBD" d="M14.172,15.368c0,3.715,3.183,6.727,7.109,6.727
						c3.928,0,7.111-3.012,7.111-6.727c0-3.717-3.184-6.73-7.111-6.73C17.355,8.638,14.172,11.651,14.172,15.368"/>
					<path clip-path="url(#SVGID_4_)" fill="#C0C0C0" d="M14.34,15.368c0,3.627,3.109,6.569,6.941,6.569
						c3.834,0,6.942-2.942,6.942-6.569c0-3.629-3.108-6.572-6.942-6.572C17.449,8.796,14.34,11.739,14.34,15.368"/>
					<path clip-path="url(#SVGID_4_)" fill="#C2C3C3" d="M14.507,15.368c0,3.539,3.034,6.412,6.774,6.412
						c3.743,0,6.776-2.873,6.776-6.412c0-3.542-3.033-6.413-6.776-6.413C17.541,8.955,14.507,11.826,14.507,15.368"/>
					<path clip-path="url(#SVGID_4_)" fill="#C4C5C4" d="M14.675,15.368c0,3.453,2.957,6.254,6.606,6.254
						c3.65,0,6.609-2.801,6.609-6.254c0-3.455-2.958-6.254-6.609-6.254C17.632,9.114,14.675,11.913,14.675,15.368"/>
					<path clip-path="url(#SVGID_4_)" fill="#C6C8C8" d="M14.842,15.368c0,3.364,2.885,6.096,6.439,6.096
						c3.558,0,6.441-2.731,6.441-6.096c0-3.367-2.883-6.097-6.441-6.097C17.727,9.271,14.842,12.001,14.842,15.368"/>
					<path clip-path="url(#SVGID_4_)" fill="#C9CACB" d="M15.009,15.368c0,3.278,2.808,5.936,6.272,5.936
						c3.465,0,6.274-2.657,6.274-5.936c0-3.279-2.81-5.939-6.274-5.939C17.817,9.429,15.009,12.089,15.009,15.368"/>
					<path clip-path="url(#SVGID_4_)" fill="#CBCDCD" d="M15.175,15.368c0,3.19,2.735,5.779,6.106,5.779
						c3.373,0,6.106-2.589,6.106-5.779c0-3.193-2.733-5.781-6.106-5.781C17.91,9.587,15.175,12.175,15.175,15.368"/>
					<path clip-path="url(#SVGID_4_)" fill="#CCCFD0" d="M15.342,15.368c0,3.104,2.661,5.621,5.939,5.621
						c3.279,0,5.94-2.518,5.94-5.621c0-3.105-2.661-5.621-5.94-5.621C18.003,9.747,15.342,12.263,15.342,15.368"/>
					<path clip-path="url(#SVGID_4_)" fill="#D0D2D2" d="M15.51,15.368c0,3.016,2.584,5.462,5.771,5.462
						c3.188,0,5.772-2.446,5.772-5.462c0-3.018-2.584-5.465-5.772-5.465C18.094,9.903,15.51,12.351,15.51,15.368"/>
					<path clip-path="url(#SVGID_4_)" fill="#D2D4D5" d="M15.677,15.368c0,2.928,2.51,5.303,5.604,5.303
						c3.098,0,5.604-2.375,5.604-5.303c0-2.931-2.507-5.305-5.604-5.305C18.187,10.063,15.677,12.438,15.677,15.368"/>
				</g>
			</g>
			<polygon fill="#605F5E" points="22.211,19.414 22.211,16.247 25.556,16.247 25.556,14.488 22.211,14.488 22.211,11.321 
				20.353,11.321 20.353,14.488 17.007,14.488 17.007,16.247 20.353,16.247 20.353,19.414 			"/>
			<path fill="#221714" d="M22.049,11.474v2.861v0.307h0.322h3.025v1.452h-3.025h-0.322v0.304v2.862h-1.535v-2.862v-0.304h-0.321
				h-3.025v-1.452h3.025h0.321v-0.307v-2.861H22.049z M20.193,14.335h-3.347v2.063h3.347v3.167h2.178v-3.167h3.346v-2.063h-3.346
				v-3.166h-2.178V14.335z"/>
		</g>
		<g>
			<path fill="#AFAEAE" d="M11.016,110.772c0,5.365,4.596,9.716,10.266,9.716c5.67,0,10.266-4.351,10.266-9.716
				c0-5.367-4.596-9.718-10.266-9.718C15.612,101.055,11.016,105.405,11.016,110.772"/>
			<ellipse fill="none" stroke="#929292" stroke-miterlimit="10" cx="21.281" cy="110.772" rx="10.266" ry="9.716"/>
			<path fill="#AFAEAE" d="M13.738,110.772c0,3.942,3.378,7.139,7.543,7.139c4.167,0,7.545-3.196,7.545-7.139
				c0-3.943-3.378-7.141-7.545-7.141C17.116,103.632,13.738,106.829,13.738,110.772"/>
			<ellipse fill="none" stroke="#929292" stroke-miterlimit="10" cx="21.282" cy="110.772" rx="7.544" ry="7.139"/>
			<g>
				<g>
					<defs>
						<rect id="SVGID_5_" x="14.172" y="104.042" width="14.22" height="13.458"/>
					</defs>
					<clipPath id="SVGID_6_">
						<use xlink:href="#SVGID_5_"  overflow="visible"/>
					</clipPath>
					<path clip-path="url(#SVGID_6_)" fill="#BEBEBD" d="M14.172,110.772c0,3.715,3.183,6.728,7.109,6.728
						c3.928,0,7.111-3.013,7.111-6.728c0-3.717-3.184-6.73-7.111-6.73C17.355,104.042,14.172,107.056,14.172,110.772"/>
					<path clip-path="url(#SVGID_6_)" fill="#C0C0C0" d="M14.34,110.772c0,3.627,3.109,6.569,6.941,6.569
						c3.834,0,6.942-2.942,6.942-6.569c0-3.629-3.108-6.572-6.942-6.572C17.449,104.2,14.34,107.144,14.34,110.772"/>
					<path clip-path="url(#SVGID_6_)" fill="#C2C3C3" d="M14.507,110.772c0,3.54,3.034,6.412,6.774,6.412
						c3.743,0,6.776-2.872,6.776-6.412c0-3.542-3.033-6.412-6.776-6.412C17.541,104.36,14.507,107.23,14.507,110.772"/>
					<path clip-path="url(#SVGID_6_)" fill="#C4C5C4" d="M14.675,110.772c0,3.453,2.957,6.253,6.606,6.253
						c3.65,0,6.609-2.8,6.609-6.253c0-3.455-2.958-6.254-6.609-6.254C17.632,104.519,14.675,107.317,14.675,110.772"/>
					<path clip-path="url(#SVGID_6_)" fill="#C6C8C8" d="M14.842,110.772c0,3.364,2.885,6.095,6.439,6.095
						c3.558,0,6.441-2.73,6.441-6.095c0-3.367-2.883-6.098-6.441-6.098C17.727,104.675,14.842,107.405,14.842,110.772"/>
					<path clip-path="url(#SVGID_6_)" fill="#C9CACB" d="M15.009,110.772c0,3.277,2.808,5.936,6.272,5.936
						c3.465,0,6.274-2.658,6.274-5.936c0-3.28-2.81-5.938-6.274-5.938C17.817,104.834,15.009,107.492,15.009,110.772"/>
					<path clip-path="url(#SVGID_6_)" fill="#CBCDCD" d="M15.175,110.772c0,3.19,2.735,5.779,6.106,5.779
						c3.373,0,6.106-2.589,6.106-5.779c0-3.192-2.733-5.781-6.106-5.781C17.91,104.991,15.175,107.58,15.175,110.772"/>
					<path clip-path="url(#SVGID_6_)" fill="#CCCFD0" d="M15.342,110.772c0,3.104,2.661,5.621,5.939,5.621
						c3.279,0,5.94-2.518,5.94-5.621c0-3.105-2.661-5.621-5.94-5.621C18.003,105.151,15.342,107.667,15.342,110.772"/>
					<path clip-path="url(#SVGID_6_)" fill="#D0D2D2" d="M15.51,110.772c0,3.016,2.584,5.462,5.771,5.462
						c3.188,0,5.772-2.446,5.772-5.462c0-3.018-2.584-5.465-5.772-5.465C18.094,105.308,15.51,107.755,15.51,110.772"/>
					<path clip-path="url(#SVGID_6_)" fill="#D2D4D5" d="M15.677,110.772c0,2.928,2.51,5.303,5.604,5.303
						c3.098,0,5.604-2.375,5.604-5.303c0-2.931-2.507-5.305-5.604-5.305C18.187,105.468,15.677,107.842,15.677,110.772"/>
				</g>
			</g>
			<polygon fill="#605F5E" points="22.211,114.818 22.211,111.651 25.556,111.651 25.556,109.894 22.211,109.894 22.211,106.726 
				20.353,106.726 20.353,109.894 17.007,109.894 17.007,111.651 20.353,111.651 20.353,114.818 			"/>
			<path fill="#221714" d="M22.049,106.878v2.861v0.307h0.322h3.025v1.452h-3.025h-0.322v0.304v2.862h-1.535v-2.862v-0.304h-0.321
				h-3.025v-1.452h3.025h0.321v-0.307v-2.861H22.049z M20.193,109.739h-3.347v2.063h3.347v3.167h2.178v-3.167h3.346v-2.063h-3.346
				v-3.166h-2.178V109.739z"/>
		</g>
	</g>
</g>
<g>
	
		<linearGradient id="SVGID_7_" gradientUnits="userSpaceOnUse" x1="-5128.0107" y1="63.0693" x2="-5057.1455" y2="63.0693" gradientTransform="matrix(-1 0 0 1 -3710.6895 0)">
		<stop  offset="0" style="stop-color:#343535"/>
		<stop  offset="0.7778" style="stop-color:#343535"/>
		<stop  offset="0.8835" style="stop-color:#636666"/>
		<stop  offset="1" style="stop-color:#030000"/>
	</linearGradient>
	<rect x="1346.456" y="-0.001" fill="url(#SVGID_7_)" width="70.865" height="126.141"/>
	<g>
		<g>
			<path fill="#B7B6B6" d="M1380.319,15.367c0,3.931,3.386,7.118,7.562,7.118h16.315c4.176,0,7.562-3.188,7.562-7.118l0,0
				c0-3.931-3.386-7.118-7.562-7.118h-16.315C1383.705,8.249,1380.319,11.437,1380.319,15.367L1380.319,15.367z"/>
			<path fill="#0E0D0D" d="M1381.213,15.165c0,3.82,3.29,6.916,7.347,6.916h15.851c4.059,0,7.348-3.096,7.348-6.916l0,0
				c0-3.82-3.289-6.916-7.348-6.916h-15.851C1384.503,8.249,1381.213,11.345,1381.213,15.165L1381.213,15.165z"/>
		</g>
		<g>
			<path fill="#B7B6B6" d="M1380.319,110.771c0,3.931,3.386,7.118,7.562,7.118h16.315c4.176,0,7.562-3.188,7.562-7.118l0,0
				c0-3.931-3.386-7.118-7.562-7.118h-16.315C1383.705,103.653,1380.319,106.841,1380.319,110.771L1380.319,110.771z"/>
			<path fill="#0E0D0D" d="M1381.213,110.569c0,3.82,3.29,6.916,7.347,6.916h15.851c4.059,0,7.348-3.096,7.348-6.916l0,0
				c0-3.82-3.289-6.916-7.348-6.916h-15.851C1384.503,103.653,1381.213,106.749,1381.213,110.569L1381.213,110.569z"/>
		</g>
	</g>
	<g>
		<g>
			<path fill="#AFAEAE" d="M1406.305,15.368c0,5.365-4.597,9.716-10.266,9.716c-5.67,0-10.266-4.351-10.266-9.716
				c0-5.367,4.596-9.718,10.266-9.718C1401.708,5.65,1406.305,10.001,1406.305,15.368"/>
			<ellipse fill="none" stroke="#929292" stroke-miterlimit="10" cx="1396.039" cy="15.368" rx="10.266" ry="9.716"/>
			<path fill="#AFAEAE" d="M1403.583,15.368c0,3.941-3.379,7.139-7.544,7.139s-7.545-3.197-7.545-7.139
				c0-3.943,3.38-7.141,7.545-7.141S1403.583,11.425,1403.583,15.368"/>
			<ellipse fill="none" stroke="#929292" stroke-miterlimit="10" cx="1396.039" cy="15.368" rx="7.544" ry="7.139"/>
			<g>
				<g>
					<defs>
						<rect id="SVGID_8_" x="1388.928" y="8.638" width="14.22" height="13.457"/>
					</defs>
					<clipPath id="SVGID_9_">
						<use xlink:href="#SVGID_8_"  overflow="visible"/>
					</clipPath>
					<path clip-path="url(#SVGID_9_)" fill="#BEBEBD" d="M1403.147,15.368c0,3.715-3.183,6.727-7.108,6.727
						c-3.928,0-7.111-3.012-7.111-6.727c0-3.717,3.184-6.73,7.111-6.73C1399.965,8.638,1403.147,11.651,1403.147,15.368"/>
					<path clip-path="url(#SVGID_9_)" fill="#C0C0C0" d="M1402.979,15.368c0,3.627-3.108,6.569-6.94,6.569
						c-3.835,0-6.942-2.942-6.942-6.569c0-3.629,3.107-6.572,6.942-6.572C1399.871,8.796,1402.979,11.739,1402.979,15.368"/>
					<path clip-path="url(#SVGID_9_)" fill="#C2C3C3" d="M1402.813,15.368c0,3.539-3.034,6.412-6.774,6.412
						c-3.743,0-6.775-2.873-6.775-6.412c0-3.542,3.032-6.413,6.775-6.413C1399.779,8.955,1402.813,11.826,1402.813,15.368"/>
					<path clip-path="url(#SVGID_9_)" fill="#C4C5C4" d="M1402.645,15.368c0,3.453-2.956,6.254-6.605,6.254
						c-3.65,0-6.608-2.801-6.608-6.254c0-3.455,2.958-6.254,6.608-6.254C1399.688,9.114,1402.645,11.913,1402.645,15.368"/>
					<path clip-path="url(#SVGID_9_)" fill="#C6C8C8" d="M1402.479,15.368c0,3.364-2.884,6.096-6.439,6.096
						c-3.558,0-6.441-2.731-6.441-6.096c0-3.367,2.884-6.097,6.441-6.097C1399.595,9.271,1402.479,12.001,1402.479,15.368"/>
					<path clip-path="url(#SVGID_9_)" fill="#C9CACB" d="M1402.312,15.368c0,3.278-2.809,5.936-6.272,5.936
						c-3.465,0-6.274-2.657-6.274-5.936c0-3.279,2.81-5.939,6.274-5.939C1399.503,9.429,1402.312,12.089,1402.312,15.368"/>
					<path clip-path="url(#SVGID_9_)" fill="#CBCDCD" d="M1402.145,15.368c0,3.19-2.734,5.779-6.105,5.779
						c-3.373,0-6.106-2.589-6.106-5.779c0-3.193,2.733-5.781,6.106-5.781C1399.41,9.587,1402.145,12.175,1402.145,15.368"/>
					<path clip-path="url(#SVGID_9_)" fill="#CCCFD0" d="M1401.979,15.368c0,3.104-2.661,5.621-5.939,5.621
						c-3.279,0-5.94-2.518-5.94-5.621c0-3.105,2.661-5.621,5.94-5.621C1399.317,9.747,1401.979,12.263,1401.979,15.368"/>
					<path clip-path="url(#SVGID_9_)" fill="#D0D2D2" d="M1401.811,15.368c0,3.016-2.584,5.462-5.771,5.462
						s-5.771-2.446-5.771-5.462c0-3.018,2.584-5.465,5.771-5.465S1401.811,12.351,1401.811,15.368"/>
					<path clip-path="url(#SVGID_9_)" fill="#D2D4D5" d="M1401.644,15.368c0,2.928-2.511,5.303-5.604,5.303
						c-3.098,0-5.604-2.375-5.604-5.303c0-2.931,2.507-5.305,5.604-5.305C1399.133,10.063,1401.644,12.438,1401.644,15.368"/>
				</g>
			</g>
			<polygon fill="#605F5E" points="1395.109,19.414 1395.109,16.247 1391.764,16.247 1391.764,14.488 1395.109,14.488 
				1395.109,11.321 1396.968,11.321 1396.968,14.488 1400.313,14.488 1400.313,16.247 1396.968,16.247 1396.968,19.414 			"/>
			<path fill="#221714" d="M1396.807,11.474v2.861v0.307h0.32h3.025v1.452h-3.025h-0.32v0.304v2.862h-1.535v-2.862v-0.304h-0.323
				h-3.024v-1.452h3.024h0.323v-0.307v-2.861H1396.807z M1397.127,11.169h-2.179v3.166h-3.345v2.063h3.345v3.167h2.179v-3.167h3.347
				v-2.063h-3.347V11.169z"/>
		</g>
		<g>
			<path fill="#AFAEAE" d="M1406.305,110.772c0,5.365-4.597,9.716-10.266,9.716c-5.67,0-10.266-4.351-10.266-9.716
				c0-5.367,4.596-9.718,10.266-9.718C1401.708,101.055,1406.305,105.405,1406.305,110.772"/>
			<ellipse fill="none" stroke="#929292" stroke-miterlimit="10" cx="1396.039" cy="110.772" rx="10.266" ry="9.716"/>
			<path fill="#AFAEAE" d="M1403.583,110.772c0,3.942-3.379,7.139-7.544,7.139s-7.545-3.196-7.545-7.139
				c0-3.943,3.38-7.141,7.545-7.141S1403.583,106.829,1403.583,110.772"/>
			<ellipse fill="none" stroke="#929292" stroke-miterlimit="10" cx="1396.039" cy="110.772" rx="7.544" ry="7.139"/>
			<g>
				<g>
					<defs>
						<rect id="SVGID_10_" x="1388.928" y="104.042" width="14.22" height="13.458"/>
					</defs>
					<clipPath id="SVGID_11_">
						<use xlink:href="#SVGID_10_"  overflow="visible"/>
					</clipPath>
					<path clip-path="url(#SVGID_11_)" fill="#BEBEBD" d="M1403.147,110.772c0,3.715-3.183,6.728-7.108,6.728
						c-3.928,0-7.111-3.013-7.111-6.728c0-3.717,3.184-6.73,7.111-6.73C1399.965,104.042,1403.147,107.056,1403.147,110.772"/>
					<path clip-path="url(#SVGID_11_)" fill="#C0C0C0" d="M1402.979,110.772c0,3.627-3.108,6.569-6.94,6.569
						c-3.835,0-6.942-2.942-6.942-6.569c0-3.629,3.107-6.572,6.942-6.572C1399.871,104.2,1402.979,107.144,1402.979,110.772"/>
					<path clip-path="url(#SVGID_11_)" fill="#C2C3C3" d="M1402.813,110.772c0,3.54-3.034,6.412-6.774,6.412
						c-3.743,0-6.775-2.872-6.775-6.412c0-3.542,3.032-6.412,6.775-6.412C1399.779,104.36,1402.813,107.23,1402.813,110.772"/>
					<path clip-path="url(#SVGID_11_)" fill="#C4C5C4" d="M1402.645,110.772c0,3.453-2.956,6.253-6.605,6.253
						c-3.65,0-6.608-2.8-6.608-6.253c0-3.455,2.958-6.254,6.608-6.254C1399.688,104.519,1402.645,107.317,1402.645,110.772"/>
					<path clip-path="url(#SVGID_11_)" fill="#C6C8C8" d="M1402.479,110.772c0,3.364-2.884,6.095-6.439,6.095
						c-3.558,0-6.441-2.73-6.441-6.095c0-3.367,2.884-6.098,6.441-6.098C1399.595,104.675,1402.479,107.405,1402.479,110.772"/>
					<path clip-path="url(#SVGID_11_)" fill="#C9CACB" d="M1402.312,110.772c0,3.277-2.809,5.936-6.272,5.936
						c-3.465,0-6.274-2.658-6.274-5.936c0-3.28,2.81-5.938,6.274-5.938C1399.503,104.834,1402.312,107.492,1402.312,110.772"/>
					<path clip-path="url(#SVGID_11_)" fill="#CBCDCD" d="M1402.145,110.772c0,3.19-2.734,5.779-6.105,5.779
						c-3.373,0-6.106-2.589-6.106-5.779c0-3.192,2.733-5.781,6.106-5.781C1399.41,104.991,1402.145,107.58,1402.145,110.772"/>
					<path clip-path="url(#SVGID_11_)" fill="#CCCFD0" d="M1401.979,110.772c0,3.104-2.661,5.621-5.939,5.621
						c-3.279,0-5.94-2.518-5.94-5.621c0-3.105,2.661-5.621,5.94-5.621C1399.317,105.151,1401.979,107.667,1401.979,110.772"/>
					<path clip-path="url(#SVGID_11_)" fill="#D0D2D2" d="M1401.811,110.772c0,3.016-2.584,5.462-5.771,5.462
						s-5.771-2.446-5.771-5.462c0-3.018,2.584-5.465,5.771-5.465S1401.811,107.755,1401.811,110.772"/>
					<path clip-path="url(#SVGID_11_)" fill="#D2D4D5" d="M1401.644,110.772c0,2.928-2.511,5.303-5.604,5.303
						c-3.098,0-5.604-2.375-5.604-5.303c0-2.931,2.507-5.305,5.604-5.305C1399.133,105.468,1401.644,107.842,1401.644,110.772"/>
				</g>
			</g>
			<polygon fill="#605F5E" points="1395.109,114.818 1395.109,111.651 1391.764,111.651 1391.764,109.894 1395.109,109.894 
				1395.109,106.726 1396.968,106.726 1396.968,109.894 1400.313,109.894 1400.313,111.651 1396.968,111.651 1396.968,114.818 			
				"/>
			<path fill="#221714" d="M1396.807,106.878v2.861v0.307h0.32h3.025v1.452h-3.025h-0.32v0.304v2.862h-1.535v-2.862v-0.304h-0.323
				h-3.024v-1.452h3.024h0.323v-0.307v-2.861H1396.807z M1397.127,106.573h-2.179v3.166h-3.345v2.063h3.345v3.167h2.179v-3.167
				h3.347v-2.063h-3.347V106.573z"/>
		</g>
	</g>
</g>
<rect x="76.114" y="7.321" fill="#DDDDDD" width="1260.039" height="109.818"/>
<g>
	<path fill="#3665C1" stroke="#24353A" stroke-miterlimit="10" d="M157.181,103.104c0,2.577-1.792,4.667-4.003,4.667H99.986
		c-2.211,0-4.004-2.09-4.004-4.667V21.081c0-2.577,1.792-4.667,4.004-4.667h53.191c2.211,0,4.003,2.09,4.003,4.667V103.104z"/>
	<path fill="#335872" d="M152.752,85.333c0,8.65-7.012,15.662-15.662,15.662l0,0c-8.65,0-15.662-7.012-15.662-15.662V34.808
		c0-8.648,7.012-15.662,15.662-15.662l0,0c8.65,0,15.662,7.014,15.662,15.662V85.333z"/>
	<rect x="121.428" y="19.182" fill="#39627A" width="31.324" height="84.127"/>
	<rect x="121.428" y="82.205" fill="#253F4C" width="31.324" height="0.889"/>
	<rect x="124.428" y="102.864" fill="#16252B" width="31.324" height="0.889"/>
	<rect x="121.428" y="61.649" fill="#253F4C" width="31.324" height="0.889"/>
	<rect x="121.428" y="41.094" fill="#253F4C" width="31.324" height="0.889"/>
	<rect x="121.428" y="20.538" fill="#253F4C" width="31.324" height="0.889"/>
	<g>
		<rect x="124.756" y="21.53" fill="#253F4C" width="24.667" height="19.412"/>
		<g>
			<circle fill="#CAD8DD" cx="137.09" cy="31.236" r="9.706"/>
			<circle fill="#212121" cx="137.09" cy="31.236" r="6.456"/>
		</g>
	</g>
	<g>
		<rect x="124.756" y="41.682" fill="#253F4C" width="24.667" height="19.412"/>
		<g>
			<circle fill="#CAD8DD" cx="137.09" cy="51.388" r="9.706"/>
			<circle fill="#212121" cx="137.09" cy="51.388" r="6.456"/>
		</g>
	</g>
	<g>
		<rect x="124.756" y="61.923" fill="#253F4C" width="24.667" height="19.412"/>
		<g>
			<circle fill="#CAD8DD" cx="137.09" cy="71.629" r="9.706"/>
			<circle fill="#212121" cx="137.09" cy="71.629" r="6.456"/>
		</g>
	</g>
	<g>
		<rect x="124.756" y="83.074" fill="#253F4C" width="24.667" height="19.412"/>
		<g>
			<circle fill="#CAD8DD" cx="137.09" cy="92.78" r="9.706"/>
			<circle fill="#212121" cx="137.09" cy="92.78" r="6.456"/>
		</g>
	</g>
	<rect x="100.982" y="28.236" fill="#D6D6D6" width="15.428" height="3"/>
	<rect x="100.982" y="48.388" fill="#D6D6D6" width="15.428" height="3"/>
	<rect x="100.982" y="68.539" fill="#D6D6D6" width="15.428" height="3"/>
	<rect x="100.982" y="88.69" fill="#D6D6D6" width="15.428" height="3"/>
	<rect x="124.011" y="21.531" fill="#191919" width="0.746" height="19.563"/>
	<rect x="124.011" y="41.982" fill="#191919" width="0.746" height="19.563"/>
	<rect x="124.011" y="62.434" fill="#191919" width="0.746" height="19.563"/>
	<rect x="124.011" y="82.885" fill="#191919" width="0.746" height="19.563"/>
</g>
<g>
	<path fill="#3665C1" stroke="#24353A" stroke-miterlimit="10" d="M254.003,103.104c0,2.577-1.792,4.667-4.003,4.667h-53.191
		c-2.211,0-4.003-2.09-4.003-4.667V21.081c0-2.577,1.792-4.667,4.003-4.667H250c2.211,0,4.003,2.09,4.003,4.667V103.104z"/>
	<path fill="#335872" d="M249.575,85.333c0,8.65-7.012,15.662-15.662,15.662l0,0c-8.65,0-15.663-7.012-15.663-15.662V34.808
		c0-8.648,7.013-15.662,15.663-15.662l0,0c8.65,0,15.662,7.014,15.662,15.662V85.333z"/>
	<rect x="218.25" y="19.182" fill="#39627A" width="31.324" height="84.127"/>
	<rect x="218.25" y="82.205" fill="#253F4C" width="31.324" height="0.889"/>
	<rect x="221.25" y="102.864" fill="#16252B" width="31.324" height="0.889"/>
	<rect x="218.25" y="61.649" fill="#253F4C" width="31.324" height="0.889"/>
	<rect x="218.25" y="41.094" fill="#253F4C" width="31.324" height="0.889"/>
	<rect x="218.25" y="20.538" fill="#253F4C" width="31.324" height="0.889"/>
	<g>
		<rect x="221.579" y="21.53" fill="#253F4C" width="24.667" height="19.412"/>
		<g>
			<circle fill="#CAD8DD" cx="233.912" cy="31.236" r="9.706"/>
			<circle fill="#212121" cx="233.912" cy="31.236" r="6.456"/>
		</g>
	</g>
	<g>
		<rect x="221.579" y="41.682" fill="#253F4C" width="24.667" height="19.412"/>
		<g>
			<circle fill="#CAD8DD" cx="233.912" cy="51.388" r="9.706"/>
			<circle fill="#212121" cx="233.912" cy="51.388" r="6.456"/>
		</g>
	</g>
	<g>
		<rect x="221.579" y="61.923" fill="#253F4C" width="24.667" height="19.412"/>
		<g>
			<circle fill="#CAD8DD" cx="233.912" cy="71.629" r="9.706"/>
			<circle fill="#212121" cx="233.912" cy="71.629" r="6.456"/>
		</g>
	</g>
	<g>
		<rect x="221.579" y="83.074" fill="#253F4C" width="24.667" height="19.412"/>
		<g>
			<circle fill="#CAD8DD" cx="233.912" cy="92.78" r="9.706"/>
			<circle fill="#212121" cx="233.912" cy="92.78" r="6.456"/>
		</g>
	</g>
	<rect x="197.805" y="28.236" fill="#D6D6D6" width="15.427" height="3"/>
	<rect x="197.805" y="48.388" fill="#D6D6D6" width="15.427" height="3"/>
	<rect x="197.805" y="68.539" fill="#D6D6D6" width="15.427" height="3"/>
	<rect x="197.805" y="88.69" fill="#D6D6D6" width="15.427" height="3"/>
	<rect x="220.833" y="21.531" fill="#191919" width="0.745" height="19.563"/>
	<rect x="220.833" y="41.982" fill="#191919" width="0.745" height="19.563"/>
	<rect x="220.833" y="62.434" fill="#191919" width="0.745" height="19.563"/>
	<rect x="220.833" y="82.885" fill="#191919" width="0.745" height="19.563"/>
</g>
<g>
	<path fill="#3665C1" stroke="#24353A" stroke-miterlimit="10" d="M350.825,103.104c0,2.577-1.792,4.667-4.003,4.667h-53.191
		c-2.211,0-4.003-2.09-4.003-4.667V21.081c0-2.577,1.792-4.667,4.003-4.667h53.191c2.211,0,4.003,2.09,4.003,4.667V103.104z"/>
	<path fill="#335872" d="M346.397,85.333c0,8.65-7.012,15.662-15.662,15.662l0,0c-8.65,0-15.663-7.012-15.663-15.662V34.808
		c0-8.648,7.013-15.662,15.663-15.662l0,0c8.65,0,15.662,7.014,15.662,15.662V85.333z"/>
	<rect x="315.073" y="19.182" fill="#39627A" width="31.324" height="84.127"/>
	<rect x="315.073" y="82.205" fill="#253F4C" width="31.324" height="0.889"/>
	<rect x="318.073" y="102.864" fill="#16252B" width="31.324" height="0.889"/>
	<rect x="315.072" y="61.649" fill="#253F4C" width="31.324" height="0.889"/>
	<rect x="315.072" y="41.094" fill="#253F4C" width="31.324" height="0.889"/>
	<rect x="315.072" y="20.538" fill="#253F4C" width="31.324" height="0.889"/>
	<g>
		<rect x="318.401" y="21.53" fill="#253F4C" width="24.667" height="19.412"/>
		<g>
			<circle fill="#CAD8DD" cx="330.735" cy="31.236" r="9.706"/>
			<circle fill="#212121" cx="330.735" cy="31.236" r="6.456"/>
		</g>
	</g>
	<g>
		<rect x="318.401" y="41.682" fill="#253F4C" width="24.667" height="19.412"/>
		<g>
			<circle fill="#CAD8DD" cx="330.735" cy="51.388" r="9.706"/>
			<circle fill="#212121" cx="330.735" cy="51.388" r="6.456"/>
		</g>
	</g>
	<g>
		<rect x="318.401" y="61.923" fill="#253F4C" width="24.667" height="19.412"/>
		<g>
			<circle fill="#CAD8DD" cx="330.735" cy="71.629" r="9.706"/>
			<circle fill="#212121" cx="330.735" cy="71.629" r="6.456"/>
		</g>
	</g>
	<g>
		<rect x="318.401" y="83.074" fill="#253F4C" width="24.667" height="19.412"/>
		<g>
			<circle fill="#CAD8DD" cx="330.735" cy="92.78" r="9.706"/>
			<circle fill="#212121" cx="330.735" cy="92.78" r="6.456"/>
		</g>
	</g>
	<rect x="294.627" y="28.236" fill="#D6D6D6" width="15.427" height="3"/>
	<rect x="294.627" y="48.388" fill="#D6D6D6" width="15.427" height="3"/>
	<rect x="294.627" y="68.539" fill="#D6D6D6" width="15.427" height="3"/>
	<rect x="294.627" y="88.69" fill="#D6D6D6" width="15.427" height="3"/>
	<rect x="317.656" y="21.531" fill="#191919" width="0.746" height="19.563"/>
	<rect x="317.656" y="41.982" fill="#191919" width="0.746" height="19.563"/>
	<rect x="317.656" y="62.434" fill="#191919" width="0.746" height="19.563"/>
	<rect x="317.656" y="82.885" fill="#191919" width="0.746" height="19.563"/>
</g>
<g>
	<path fill="#3665C1" stroke="#24353A" stroke-miterlimit="10" d="M447.648,103.104c0,2.577-1.792,4.667-4.003,4.667h-53.191
		c-2.211,0-4.003-2.09-4.003-4.667V21.081c0-2.577,1.792-4.667,4.003-4.667h53.191c2.211,0,4.003,2.09,4.003,4.667V103.104z"/>
	<path fill="#335872" d="M443.219,85.333c0,8.65-7.012,15.662-15.662,15.662l0,0c-8.65,0-15.663-7.012-15.663-15.662V34.808
		c0-8.648,7.013-15.662,15.663-15.662l0,0c8.65,0,15.662,7.014,15.662,15.662V85.333z"/>
	<rect x="411.895" y="19.182" fill="#39627A" width="31.324" height="84.127"/>
	<rect x="411.895" y="82.205" fill="#253F4C" width="31.324" height="0.889"/>
	<rect x="414.895" y="102.864" fill="#16252B" width="31.324" height="0.889"/>
	<rect x="411.895" y="61.649" fill="#253F4C" width="31.324" height="0.889"/>
	<rect x="411.895" y="41.094" fill="#253F4C" width="31.324" height="0.889"/>
	<rect x="411.895" y="20.538" fill="#253F4C" width="31.324" height="0.889"/>
	<g>
		<rect x="415.224" y="21.53" fill="#253F4C" width="24.667" height="19.412"/>
		<g>
			<circle fill="#CAD8DD" cx="427.557" cy="31.236" r="9.706"/>
			<circle fill="#212121" cx="427.557" cy="31.236" r="6.456"/>
		</g>
	</g>
	<g>
		<rect x="415.224" y="41.682" fill="#253F4C" width="24.667" height="19.412"/>
		<g>
			<circle fill="#CAD8DD" cx="427.557" cy="51.388" r="9.706"/>
			<circle fill="#212121" cx="427.557" cy="51.388" r="6.456"/>
		</g>
	</g>
	<g>
		<rect x="415.224" y="61.923" fill="#253F4C" width="24.667" height="19.412"/>
		<g>
			<circle fill="#CAD8DD" cx="427.557" cy="71.629" r="9.706"/>
			<circle fill="#212121" cx="427.557" cy="71.629" r="6.456"/>
		</g>
	</g>
	<g>
		<rect x="415.224" y="83.074" fill="#253F4C" width="24.667" height="19.412"/>
		<g>
			<circle fill="#CAD8DD" cx="427.557" cy="92.78" r="9.706"/>
			<circle fill="#212121" cx="427.557" cy="92.78" r="6.456"/>
		</g>
	</g>
	<rect x="391.45" y="28.236" fill="#D6D6D6" width="15.427" height="3"/>
	<rect x="391.45" y="48.388" fill="#D6D6D6" width="15.427" height="3"/>
	<rect x="391.45" y="68.539" fill="#D6D6D6" width="15.427" height="3"/>
	<rect x="391.45" y="88.69" fill="#D6D6D6" width="15.427" height="3"/>
	<rect x="414.478" y="21.531" fill="#191919" width="0.746" height="19.563"/>
	<rect x="414.478" y="41.982" fill="#191919" width="0.746" height="19.563"/>
	<rect x="414.478" y="62.434" fill="#191919" width="0.746" height="19.563"/>
	<rect x="414.478" y="82.885" fill="#191919" width="0.746" height="19.563"/>
</g>
<g>
	<path fill="#3665C1" stroke="#24353A" stroke-miterlimit="10" d="M544.47,103.104c0,2.577-1.792,4.667-4.003,4.667h-53.191
		c-2.211,0-4.003-2.09-4.003-4.667V21.081c0-2.577,1.792-4.667,4.003-4.667h53.191c2.211,0,4.003,2.09,4.003,4.667V103.104z"/>
	<path fill="#335872" d="M540.042,85.333c0,8.65-7.012,15.662-15.662,15.662l0,0c-8.65,0-15.663-7.012-15.663-15.662V34.808
		c0-8.648,7.013-15.662,15.663-15.662l0,0c8.65,0,15.662,7.014,15.662,15.662V85.333z"/>
	<rect x="508.717" y="19.182" fill="#39627A" width="31.324" height="84.127"/>
	<rect x="508.717" y="82.205" fill="#253F4C" width="31.324" height="0.889"/>
	<rect x="511.717" y="102.864" fill="#16252B" width="31.324" height="0.889"/>
	<rect x="508.717" y="61.649" fill="#253F4C" width="31.325" height="0.889"/>
	<rect x="508.717" y="41.094" fill="#253F4C" width="31.325" height="0.889"/>
	<rect x="508.717" y="20.538" fill="#253F4C" width="31.324" height="0.889"/>
	<g>
		<rect x="512.046" y="21.53" fill="#253F4C" width="24.667" height="19.412"/>
		<g>
			<circle fill="#CAD8DD" cx="524.379" cy="31.236" r="9.706"/>
			<circle fill="#212121" cx="524.379" cy="31.236" r="6.456"/>
		</g>
	</g>
	<g>
		<rect x="512.046" y="41.682" fill="#253F4C" width="24.667" height="19.412"/>
		<g>
			<circle fill="#CAD8DD" cx="524.379" cy="51.388" r="9.706"/>
			<circle fill="#212121" cx="524.379" cy="51.388" r="6.456"/>
		</g>
	</g>
	<g>
		<rect x="512.046" y="61.923" fill="#253F4C" width="24.667" height="19.412"/>
		<g>
			<circle fill="#CAD8DD" cx="524.379" cy="71.629" r="9.706"/>
			<circle fill="#212121" cx="524.379" cy="71.629" r="6.456"/>
		</g>
	</g>
	<g>
		<rect x="512.046" y="83.074" fill="#253F4C" width="24.667" height="19.412"/>
		<g>
			<circle fill="#CAD8DD" cx="524.379" cy="92.78" r="9.706"/>
			<circle fill="#212121" cx="524.379" cy="92.78" r="6.456"/>
		</g>
	</g>
	<rect x="488.272" y="28.236" fill="#D6D6D6" width="15.428" height="3"/>
	<rect x="488.272" y="48.388" fill="#D6D6D6" width="15.428" height="3"/>
	<rect x="488.272" y="68.539" fill="#D6D6D6" width="15.428" height="3"/>
	<rect x="488.272" y="88.69" fill="#D6D6D6" width="15.428" height="3"/>
	<rect x="511.3" y="21.531" fill="#191919" width="0.746" height="19.563"/>
	<rect x="511.3" y="41.982" fill="#191919" width="0.746" height="19.563"/>
	<rect x="511.3" y="62.434" fill="#191919" width="0.746" height="19.563"/>
	<rect x="511.3" y="82.885" fill="#191919" width="0.746" height="19.563"/>
</g>
<g>
	<path fill="#3665C1" stroke="#24353A" stroke-miterlimit="10" d="M641.293,103.104c0,2.577-1.793,4.667-4.004,4.667h-53.191
		c-2.211,0-4.003-2.09-4.003-4.667V21.081c0-2.577,1.792-4.667,4.003-4.667h53.191c2.211,0,4.004,2.09,4.004,4.667V103.104z"/>
	<path fill="#335872" d="M636.864,85.333c0,8.65-7.012,15.662-15.662,15.662l0,0c-8.65,0-15.663-7.012-15.663-15.662V34.808
		c0-8.648,7.012-15.662,15.663-15.662l0,0c8.65,0,15.662,7.014,15.662,15.662V85.333z"/>
	<rect x="605.54" y="19.182" fill="#39627A" width="31.324" height="84.127"/>
	<rect x="605.54" y="82.205" fill="#253F4C" width="31.324" height="0.889"/>
	<rect x="608.54" y="102.864" fill="#16252B" width="31.324" height="0.889"/>
	<rect x="605.54" y="61.649" fill="#253F4C" width="31.324" height="0.889"/>
	<rect x="605.54" y="41.094" fill="#253F4C" width="31.324" height="0.889"/>
	<rect x="605.54" y="20.538" fill="#253F4C" width="31.324" height="0.889"/>
	<g>
		<rect x="608.868" y="21.53" fill="#253F4C" width="24.667" height="19.412"/>
		<g>
			<circle fill="#CAD8DD" cx="621.202" cy="31.236" r="9.706"/>
			<circle fill="#212121" cx="621.202" cy="31.236" r="6.456"/>
		</g>
	</g>
	<g>
		<rect x="608.868" y="41.682" fill="#253F4C" width="24.667" height="19.412"/>
		<g>
			<circle fill="#CAD8DD" cx="621.202" cy="51.388" r="9.706"/>
			<circle fill="#212121" cx="621.202" cy="51.388" r="6.456"/>
		</g>
	</g>
	<g>
		<rect x="608.868" y="61.923" fill="#253F4C" width="24.667" height="19.412"/>
		<g>
			<circle fill="#CAD8DD" cx="621.202" cy="71.629" r="9.706"/>
			<circle fill="#212121" cx="621.202" cy="71.629" r="6.456"/>
		</g>
	</g>
	<g>
		<rect x="608.868" y="83.074" fill="#253F4C" width="24.667" height="19.412"/>
		<g>
			<circle fill="#CAD8DD" cx="621.202" cy="92.78" r="9.706"/>
			<circle fill="#212121" cx="621.202" cy="92.78" r="6.456"/>
		</g>
	</g>
	<rect x="585.095" y="28.236" fill="#D6D6D6" width="15.427" height="3"/>
	<rect x="585.095" y="48.388" fill="#D6D6D6" width="15.427" height="3"/>
	<rect x="585.095" y="68.539" fill="#D6D6D6" width="15.427" height="3"/>
	<rect x="585.095" y="88.69" fill="#D6D6D6" width="15.427" height="3"/>
	<rect x="608.123" y="21.531" fill="#191919" width="0.745" height="19.563"/>
	<rect x="608.123" y="41.982" fill="#191919" width="0.745" height="19.563"/>
	<rect x="608.123" y="62.434" fill="#191919" width="0.745" height="19.563"/>
	<rect x="608.123" y="82.885" fill="#191919" width="0.745" height="19.563"/>
</g>
<g>
	<path fill="#3665C1" stroke="#24353A" stroke-miterlimit="10" d="M738.115,103.104c0,2.577-1.793,4.667-4.004,4.667H680.92
		c-2.211,0-4.004-2.09-4.004-4.667V21.081c0-2.577,1.792-4.667,4.004-4.667h53.191c2.211,0,4.004,2.09,4.004,4.667V103.104z"/>
	<path fill="#335872" d="M733.687,85.333c0,8.65-7.012,15.662-15.662,15.662l0,0c-8.65,0-15.663-7.012-15.663-15.662V34.808
		c0-8.648,7.012-15.662,15.663-15.662l0,0c8.65,0,15.662,7.014,15.662,15.662V85.333z"/>
	<rect x="702.362" y="19.182" fill="#39627A" width="31.325" height="84.127"/>
	<rect x="702.362" y="82.205" fill="#253F4C" width="31.325" height="0.889"/>
	<rect x="705.362" y="102.864" fill="#16252B" width="31.325" height="0.889"/>
	<rect x="702.362" y="61.649" fill="#253F4C" width="31.325" height="0.889"/>
	<rect x="702.362" y="41.094" fill="#253F4C" width="31.325" height="0.889"/>
	<rect x="702.361" y="20.538" fill="#253F4C" width="31.324" height="0.889"/>
	<g>
		<rect x="705.69" y="21.53" fill="#253F4C" width="24.667" height="19.412"/>
		<g>
			<circle fill="#CAD8DD" cx="718.024" cy="31.236" r="9.706"/>
			<circle fill="#212121" cx="718.024" cy="31.236" r="6.456"/>
		</g>
	</g>
	<g>
		<rect x="705.69" y="41.682" fill="#253F4C" width="24.667" height="19.412"/>
		<g>
			<circle fill="#CAD8DD" cx="718.024" cy="51.388" r="9.706"/>
			<circle fill="#212121" cx="718.024" cy="51.388" r="6.456"/>
		</g>
	</g>
	<g>
		<rect x="705.69" y="61.923" fill="#253F4C" width="24.667" height="19.412"/>
		<g>
			<circle fill="#CAD8DD" cx="718.024" cy="71.629" r="9.706"/>
			<circle fill="#212121" cx="718.024" cy="71.629" r="6.456"/>
		</g>
	</g>
	<g>
		<rect x="705.69" y="83.074" fill="#253F4C" width="24.667" height="19.412"/>
		<g>
			<circle fill="#CAD8DD" cx="718.024" cy="92.78" r="9.706"/>
			<circle fill="#212121" cx="718.024" cy="92.78" r="6.456"/>
		</g>
	</g>
	<rect x="681.917" y="28.236" fill="#D6D6D6" width="15.428" height="3"/>
	<rect x="681.917" y="48.388" fill="#D6D6D6" width="15.428" height="3"/>
	<rect x="681.917" y="68.539" fill="#D6D6D6" width="15.428" height="3"/>
	<rect x="681.917" y="88.69" fill="#D6D6D6" width="15.428" height="3"/>
	<rect x="704.945" y="21.531" fill="#191919" width="0.746" height="19.563"/>
	<rect x="704.945" y="41.982" fill="#191919" width="0.746" height="19.563"/>
	<rect x="704.945" y="62.434" fill="#191919" width="0.746" height="19.563"/>
	<rect x="704.945" y="82.885" fill="#191919" width="0.746" height="19.563"/>
</g>
<g>
	<path fill="#3665C1" stroke="#24353A" stroke-miterlimit="10" d="M834.938,103.104c0,2.577-1.792,4.667-4.004,4.667h-53.19
		c-2.211,0-4.004-2.09-4.004-4.667V21.081c0-2.577,1.793-4.667,4.004-4.667h53.19c2.212,0,4.004,2.09,4.004,4.667V103.104z"/>
	<path fill="#335872" d="M830.509,85.333c0,8.65-7.012,15.662-15.662,15.662l0,0c-8.65,0-15.662-7.012-15.662-15.662V34.808
		c0-8.648,7.012-15.662,15.662-15.662l0,0c8.65,0,15.662,7.014,15.662,15.662V85.333z"/>
	<rect x="799.185" y="19.182" fill="#39627A" width="31.324" height="84.127"/>
	<rect x="799.185" y="82.205" fill="#253F4C" width="31.324" height="0.889"/>
	<rect x="802.185" y="102.864" fill="#16252B" width="31.324" height="0.889"/>
	<rect x="799.185" y="61.649" fill="#253F4C" width="31.324" height="0.889"/>
	<rect x="799.185" y="41.094" fill="#253F4C" width="31.324" height="0.889"/>
	<rect x="799.184" y="20.538" fill="#253F4C" width="31.325" height="0.889"/>
	<g>
		<rect x="802.513" y="21.53" fill="#253F4C" width="24.667" height="19.412"/>
		<g>
			<circle fill="#CAD8DD" cx="814.847" cy="31.236" r="9.706"/>
			<circle fill="#212121" cx="814.847" cy="31.236" r="6.456"/>
		</g>
	</g>
	<g>
		<rect x="802.513" y="41.682" fill="#253F4C" width="24.667" height="19.412"/>
		<g>
			<circle fill="#CAD8DD" cx="814.847" cy="51.388" r="9.706"/>
			<circle fill="#212121" cx="814.847" cy="51.388" r="6.456"/>
		</g>
	</g>
	<g>
		<rect x="802.513" y="61.923" fill="#253F4C" width="24.667" height="19.412"/>
		<g>
			<circle fill="#CAD8DD" cx="814.847" cy="71.629" r="9.706"/>
			<circle fill="#212121" cx="814.847" cy="71.629" r="6.456"/>
		</g>
	</g>
	<g>
		<rect x="802.513" y="83.074" fill="#253F4C" width="24.667" height="19.412"/>
		<g>
			<circle fill="#CAD8DD" cx="814.847" cy="92.78" r="9.706"/>
			<circle fill="#212121" cx="814.847" cy="92.78" r="6.456"/>
		</g>
	</g>
	<rect x="778.739" y="28.236" fill="#D6D6D6" width="15.428" height="3"/>
	<rect x="778.739" y="48.388" fill="#D6D6D6" width="15.428" height="3"/>
	<rect x="778.739" y="68.539" fill="#D6D6D6" width="15.428" height="3"/>
	<rect x="778.739" y="88.69" fill="#D6D6D6" width="15.428" height="3"/>
	<rect x="801.768" y="21.531" fill="#191919" width="0.745" height="19.563"/>
	<rect x="801.768" y="41.982" fill="#191919" width="0.745" height="19.563"/>
	<rect x="801.768" y="62.434" fill="#191919" width="0.745" height="19.563"/>
	<rect x="801.768" y="82.885" fill="#191919" width="0.745" height="19.563"/>
</g>
<g>
	<path fill="#3665C1" stroke="#24353A" stroke-miterlimit="10" d="M931.76,103.104c0,2.577-1.792,4.667-4.004,4.667h-53.19
		c-2.211,0-4.004-2.09-4.004-4.667V21.081c0-2.577,1.793-4.667,4.004-4.667h53.19c2.212,0,4.004,2.09,4.004,4.667V103.104z"/>
	<path fill="#335872" d="M927.331,85.333c0,8.65-7.012,15.662-15.662,15.662l0,0c-8.649,0-15.662-7.012-15.662-15.662V34.808
		c0-8.648,7.013-15.662,15.662-15.662l0,0c8.65,0,15.662,7.014,15.662,15.662V85.333z"/>
	<rect x="896.007" y="19.182" fill="#39627A" width="31.324" height="84.127"/>
	<rect x="896.007" y="82.205" fill="#253F4C" width="31.324" height="0.889"/>
	<rect x="899.007" y="102.864" fill="#16252B" width="31.324" height="0.889"/>
	<rect x="896.007" y="61.649" fill="#253F4C" width="31.324" height="0.889"/>
	<rect x="896.007" y="41.094" fill="#253F4C" width="31.324" height="0.889"/>
	<rect x="896.007" y="20.538" fill="#253F4C" width="31.324" height="0.889"/>
	<g>
		<rect x="899.336" y="21.53" fill="#253F4C" width="24.667" height="19.412"/>
		<g>
			<circle fill="#CAD8DD" cx="911.669" cy="31.236" r="9.706"/>
			<circle fill="#212121" cx="911.669" cy="31.236" r="6.456"/>
		</g>
	</g>
	<g>
		<rect x="899.336" y="41.682" fill="#253F4C" width="24.667" height="19.412"/>
		<g>
			<circle fill="#CAD8DD" cx="911.669" cy="51.388" r="9.706"/>
			<circle fill="#212121" cx="911.669" cy="51.388" r="6.456"/>
		</g>
	</g>
	<g>
		<rect x="899.336" y="61.923" fill="#253F4C" width="24.667" height="19.412"/>
		<g>
			<circle fill="#CAD8DD" cx="911.669" cy="71.629" r="9.706"/>
			<circle fill="#212121" cx="911.669" cy="71.629" r="6.456"/>
		</g>
	</g>
	<g>
		<rect x="899.336" y="83.074" fill="#253F4C" width="24.667" height="19.412"/>
		<g>
			<circle fill="#CAD8DD" cx="911.669" cy="92.78" r="9.706"/>
			<circle fill="#212121" cx="911.669" cy="92.78" r="6.456"/>
		</g>
	</g>
	<rect x="875.562" y="28.236" fill="#D6D6D6" width="15.428" height="3"/>
	<rect x="875.562" y="48.388" fill="#D6D6D6" width="15.428" height="3"/>
	<rect x="875.562" y="68.539" fill="#D6D6D6" width="15.428" height="3"/>
	<rect x="875.562" y="88.69" fill="#D6D6D6" width="15.428" height="3"/>
	<rect x="898.59" y="21.531" fill="#191919" width="0.746" height="19.563"/>
	<rect x="898.59" y="41.982" fill="#191919" width="0.746" height="19.563"/>
	<rect x="898.59" y="62.434" fill="#191919" width="0.746" height="19.563"/>
	<rect x="898.59" y="82.885" fill="#191919" width="0.746" height="19.563"/>
</g>
<g>
	<path fill="#3665C1" stroke="#24353A" stroke-miterlimit="10" d="M1028.582,103.104c0,2.577-1.792,4.667-4.004,4.667h-53.19
		c-2.211,0-4.004-2.09-4.004-4.667V21.081c0-2.577,1.793-4.667,4.004-4.667h53.19c2.212,0,4.004,2.09,4.004,4.667V103.104z"/>
	<path fill="#335872" d="M1024.153,85.333c0,8.65-7.012,15.662-15.662,15.662l0,0c-8.649,0-15.662-7.012-15.662-15.662V34.808
		c0-8.648,7.013-15.662,15.662-15.662l0,0c8.65,0,15.662,7.014,15.662,15.662V85.333z"/>
	<rect x="992.829" y="19.182" fill="#39627A" width="31.324" height="84.127"/>
	<rect x="992.829" y="82.205" fill="#253F4C" width="31.324" height="0.889"/>
	<rect x="995.829" y="102.864" fill="#16252B" width="31.324" height="0.889"/>
	<rect x="992.829" y="61.649" fill="#253F4C" width="31.324" height="0.889"/>
	<rect x="992.829" y="41.094" fill="#253F4C" width="31.324" height="0.889"/>
	<rect x="992.829" y="20.538" fill="#253F4C" width="31.324" height="0.889"/>
	<g>
		<rect x="996.158" y="21.53" fill="#253F4C" width="24.667" height="19.412"/>
		<g>
			<circle fill="#CAD8DD" cx="1008.491" cy="31.236" r="9.706"/>
			<circle fill="#212121" cx="1008.491" cy="31.236" r="6.456"/>
		</g>
	</g>
	<g>
		<rect x="996.158" y="41.682" fill="#253F4C" width="24.667" height="19.412"/>
		<g>
			<circle fill="#CAD8DD" cx="1008.491" cy="51.388" r="9.706"/>
			<circle fill="#212121" cx="1008.491" cy="51.388" r="6.456"/>
		</g>
	</g>
	<g>
		<rect x="996.158" y="61.923" fill="#253F4C" width="24.667" height="19.412"/>
		<g>
			<circle fill="#CAD8DD" cx="1008.491" cy="71.629" r="9.706"/>
			<circle fill="#212121" cx="1008.491" cy="71.629" r="6.456"/>
		</g>
	</g>
	<g>
		<rect x="996.158" y="83.074" fill="#253F4C" width="24.667" height="19.412"/>
		<g>
			<circle fill="#CAD8DD" cx="1008.491" cy="92.78" r="9.706"/>
			<circle fill="#212121" cx="1008.491" cy="92.78" r="6.456"/>
		</g>
	</g>
	<rect x="972.384" y="28.236" fill="#D6D6D6" width="15.428" height="3"/>
	<rect x="972.384" y="48.388" fill="#D6D6D6" width="15.428" height="3"/>
	<rect x="972.384" y="68.539" fill="#D6D6D6" width="15.428" height="3"/>
	<rect x="972.384" y="88.69" fill="#D6D6D6" width="15.428" height="3"/>
	<rect x="995.412" y="21.531" fill="#191919" width="0.745" height="19.563"/>
	<rect x="995.412" y="41.982" fill="#191919" width="0.745" height="19.563"/>
	<rect x="995.412" y="62.434" fill="#191919" width="0.745" height="19.563"/>
	<rect x="995.412" y="82.885" fill="#191919" width="0.745" height="19.563"/>
</g>
<g>
	<path fill="#3665C1" stroke="#24353A" stroke-miterlimit="10" d="M1125.404,103.104c0,2.577-1.792,4.667-4.004,4.667h-53.19
		c-2.211,0-4.004-2.09-4.004-4.667V21.081c0-2.577,1.793-4.667,4.004-4.667h53.19c2.212,0,4.004,2.09,4.004,4.667V103.104z"/>
	<path fill="#335872" d="M1120.976,85.333c0,8.65-7.012,15.662-15.662,15.662l0,0c-8.649,0-15.662-7.012-15.662-15.662V34.808
		c0-8.648,7.013-15.662,15.662-15.662l0,0c8.65,0,15.662,7.014,15.662,15.662V85.333z"/>
	<rect x="1089.651" y="19.182" fill="#39627A" width="31.324" height="84.127"/>
	<rect x="1089.651" y="82.205" fill="#253F4C" width="31.324" height="0.889"/>
	<rect x="1092.651" y="102.864" fill="#16252B" width="31.324" height="0.889"/>
	<rect x="1089.651" y="61.649" fill="#253F4C" width="31.324" height="0.889"/>
	<rect x="1089.651" y="41.094" fill="#253F4C" width="31.324" height="0.889"/>
	<rect x="1089.651" y="20.538" fill="#253F4C" width="31.324" height="0.889"/>
	<g>
		<rect x="1092.98" y="21.53" fill="#253F4C" width="24.667" height="19.412"/>
		<g>
			<circle fill="#CAD8DD" cx="1105.313" cy="31.236" r="9.706"/>
			<circle fill="#212121" cx="1105.313" cy="31.236" r="6.456"/>
		</g>
	</g>
	<g>
		<rect x="1092.98" y="41.682" fill="#253F4C" width="24.667" height="19.412"/>
		<g>
			<circle fill="#CAD8DD" cx="1105.313" cy="51.388" r="9.706"/>
			<circle fill="#212121" cx="1105.313" cy="51.388" r="6.456"/>
		</g>
	</g>
	<g>
		<rect x="1092.98" y="61.923" fill="#253F4C" width="24.667" height="19.412"/>
		<g>
			<circle fill="#CAD8DD" cx="1105.313" cy="71.629" r="9.706"/>
			<circle fill="#212121" cx="1105.313" cy="71.629" r="6.456"/>
		</g>
	</g>
	<g>
		<rect x="1092.98" y="83.074" fill="#253F4C" width="24.667" height="19.412"/>
		<g>
			<circle fill="#CAD8DD" cx="1105.313" cy="92.78" r="9.706"/>
			<circle fill="#212121" cx="1105.313" cy="92.78" r="6.456"/>
		</g>
	</g>
	<rect x="1069.206" y="28.236" fill="#D6D6D6" width="15.428" height="3"/>
	<rect x="1069.206" y="48.388" fill="#D6D6D6" width="15.428" height="3"/>
	<rect x="1069.206" y="68.539" fill="#D6D6D6" width="15.428" height="3"/>
	<rect x="1069.206" y="88.69" fill="#D6D6D6" width="15.428" height="3"/>
	<rect x="1092.234" y="21.531" fill="#191919" width="0.746" height="19.563"/>
	<rect x="1092.234" y="41.982" fill="#191919" width="0.746" height="19.563"/>
	<rect x="1092.234" y="62.434" fill="#191919" width="0.746" height="19.563"/>
	<rect x="1092.234" y="82.885" fill="#191919" width="0.746" height="19.563"/>
</g>
<g>
	<path fill="#3665C1" stroke="#24353A" stroke-miterlimit="10" d="M1222.227,103.104c0,2.577-1.792,4.667-4.003,4.667h-53.191
		c-2.211,0-4.004-2.09-4.004-4.667V21.081c0-2.577,1.793-4.667,4.004-4.667h53.191c2.211,0,4.003,2.09,4.003,4.667V103.104z"/>
	<path fill="#335872" d="M1217.798,85.333c0,8.65-7.012,15.662-15.662,15.662l0,0c-8.649,0-15.662-7.012-15.662-15.662V34.808
		c0-8.648,7.013-15.662,15.662-15.662l0,0c8.65,0,15.662,7.014,15.662,15.662V85.333z"/>
	<rect x="1186.474" y="19.182" fill="#39627A" width="31.324" height="84.127"/>
	<rect x="1186.474" y="82.205" fill="#253F4C" width="31.324" height="0.889"/>
	<rect x="1189.474" y="102.864" fill="#16252B" width="31.324" height="0.889"/>
	<rect x="1186.474" y="61.649" fill="#253F4C" width="31.324" height="0.889"/>
	<rect x="1186.474" y="41.094" fill="#253F4C" width="31.324" height="0.889"/>
	<rect x="1186.474" y="20.538" fill="#253F4C" width="31.324" height="0.889"/>
	<g>
		<rect x="1189.803" y="21.53" fill="#253F4C" width="24.667" height="19.412"/>
		<g>
			<circle fill="#CAD8DD" cx="1202.136" cy="31.236" r="9.706"/>
			<circle fill="#212121" cx="1202.136" cy="31.236" r="6.456"/>
		</g>
	</g>
	<g>
		<rect x="1189.803" y="41.682" fill="#253F4C" width="24.667" height="19.412"/>
		<g>
			<circle fill="#CAD8DD" cx="1202.136" cy="51.388" r="9.706"/>
			<circle fill="#212121" cx="1202.136" cy="51.388" r="6.456"/>
		</g>
	</g>
	<g>
		<rect x="1189.803" y="61.923" fill="#253F4C" width="24.667" height="19.412"/>
		<g>
			<circle fill="#CAD8DD" cx="1202.136" cy="71.629" r="9.706"/>
			<circle fill="#212121" cx="1202.136" cy="71.629" r="6.456"/>
		</g>
	</g>
	<g>
		<rect x="1189.803" y="83.074" fill="#253F4C" width="24.667" height="19.412"/>
		<g>
			<circle fill="#CAD8DD" cx="1202.136" cy="92.78" r="9.706"/>
			<circle fill="#212121" cx="1202.136" cy="92.78" r="6.456"/>
		</g>
	</g>
	<rect x="1166.028" y="28.236" fill="#D6D6D6" width="15.428" height="3"/>
	<rect x="1166.028" y="48.388" fill="#D6D6D6" width="15.428" height="3"/>
	<rect x="1166.028" y="68.539" fill="#D6D6D6" width="15.428" height="3"/>
	<rect x="1166.028" y="88.69" fill="#D6D6D6" width="15.428" height="3"/>
	<rect x="1189.057" y="21.531" fill="#191919" width="0.746" height="19.563"/>
	<rect x="1189.057" y="41.982" fill="#191919" width="0.746" height="19.563"/>
	<rect x="1189.057" y="62.434" fill="#191919" width="0.746" height="19.563"/>
	<rect x="1189.057" y="82.885" fill="#191919" width="0.746" height="19.563"/>
</g>
<g>
	<path fill="#3665C1" stroke="#24353A" stroke-miterlimit="10" d="M1319.049,103.104c0,2.577-1.792,4.667-4.003,4.667h-53.191
		c-2.211,0-4.004-2.09-4.004-4.667V21.081c0-2.577,1.793-4.667,4.004-4.667h53.191c2.211,0,4.003,2.09,4.003,4.667V103.104z"/>
	<path fill="#335872" d="M1314.62,85.333c0,8.65-7.012,15.662-15.662,15.662l0,0c-8.649,0-15.662-7.012-15.662-15.662V34.808
		c0-8.648,7.013-15.662,15.662-15.662l0,0c8.65,0,15.662,7.014,15.662,15.662V85.333z"/>
	<rect x="1283.296" y="19.182" fill="#39627A" width="31.324" height="84.127"/>
	<rect x="1283.296" y="82.205" fill="#253F4C" width="31.324" height="0.889"/>
	<rect x="1286.296" y="102.864" fill="#16252B" width="31.324" height="0.889"/>
	<rect x="1283.296" y="61.649" fill="#253F4C" width="31.324" height="0.889"/>
	<rect x="1283.296" y="41.094" fill="#253F4C" width="31.324" height="0.889"/>
	<rect x="1283.296" y="20.538" fill="#253F4C" width="31.324" height="0.889"/>
	<g>
		<rect x="1286.625" y="21.53" fill="#253F4C" width="24.667" height="19.412"/>
		<g>
			<circle fill="#CAD8DD" cx="1298.958" cy="31.236" r="9.706"/>
			<circle fill="#212121" cx="1298.958" cy="31.236" r="6.456"/>
		</g>
	</g>
	<g>
		<rect x="1286.625" y="41.682" fill="#253F4C" width="24.667" height="19.412"/>
		<g>
			<circle fill="#CAD8DD" cx="1298.958" cy="51.388" r="9.706"/>
			<circle fill="#212121" cx="1298.958" cy="51.388" r="6.456"/>
		</g>
	</g>
	<g>
		<rect x="1286.625" y="61.923" fill="#253F4C" width="24.667" height="19.412"/>
		<g>
			<circle fill="#CAD8DD" cx="1298.958" cy="71.629" r="9.706"/>
			<circle fill="#212121" cx="1298.958" cy="71.629" r="6.456"/>
		</g>
	</g>
	<g>
		<rect x="1286.625" y="83.074" fill="#253F4C" width="24.667" height="19.412"/>
		<g>
			<circle fill="#CAD8DD" cx="1298.958" cy="92.78" r="9.706"/>
			<circle fill="#212121" cx="1298.958" cy="92.78" r="6.456"/>
		</g>
	</g>
	<rect x="1262.851" y="28.236" fill="#D6D6D6" width="15.428" height="3"/>
	<rect x="1262.851" y="48.388" fill="#D6D6D6" width="15.428" height="3"/>
	<rect x="1262.851" y="68.539" fill="#D6D6D6" width="15.428" height="3"/>
	<rect x="1262.851" y="88.69" fill="#D6D6D6" width="15.428" height="3"/>
	<rect x="1285.879" y="21.531" fill="#191919" width="0.746" height="19.563"/>
	<rect x="1285.879" y="41.982" fill="#191919" width="0.746" height="19.563"/>
	<rect x="1285.879" y="62.434" fill="#191919" width="0.746" height="19.563"/>
	<rect x="1285.879" y="82.885" fill="#191919" width="0.746" height="19.563"/>
</g>
</svg>
