<?xml version="1.0" encoding="utf-8"?>
<!-- Generator: Adobe Illustrator 21.0.0, SVG Export Plug-In . SVG Version: 6.00 Build 0)  -->
<svg version="1.1" id="图层_1" xmlns="http://www.w3.org/2000/svg" xmlns:xlink="http://www.w3.org/1999/xlink" x="0px" y="0px"
	 width="1417.3px" height="252.3px" viewBox="0 0 1417.3 252.3" enable-background="new 0 0 1417.3 252.3" xml:space="preserve">
<g id="XMLID_16625_">
	<rect id="XMLID_16649_" x="1" y="1" fill="#C1C1C1" width="1415.3" height="250.3"/>
	<g id="XMLID_16643_">
		<path id="XMLID_16644_" d="M1415.3,2v248.3H2V2H1415.3 M1417.3,0H0v252.3h1417.3V0L1417.3,0z"/>
	</g>
</g>
<g id="XMLID_16619_">
	<rect id="XMLID_16631_" x="1" y="1" fill="#C1C1C1" width="61.8" height="250.3"/>
	<path id="XMLID_16627_" d="M61.8,2v248.3H2V2H61.8 M63.8,0H0v252.3h63.8V0L63.8,0z"/>
</g>
<rect id="XMLID_16618_" x="61.3" y="0" fill="#070707" width="2.5" height="126.1"/>
<g id="XMLID_16596_">
	<rect id="XMLID_16635_" x="1354.5" y="1" fill="#C1C1C1" width="61.8" height="250.3"/>
	<path id="XMLID_16632_" d="M1415.3,2v248.3h-59.8V2H1415.3 M1417.3,0h-63.8v252.3h63.8V0L1417.3,0z"/>
</g>
<rect id="XMLID_16595_" x="1353.5" y="0" transform="matrix(-1 8.862765e-11 -8.862765e-11 -1 2709.5903 126.1422)" fill="#070707" width="2.5" height="126.1"/>
<g id="XMLID_16576_">
	<rect id="XMLID_16578_" x="418.7" y="151.1" fill="#030000" width="43.1" height="77.5"/>
	<linearGradient id="XMLID_815_" gradientUnits="userSpaceOnUse" x1="419.2092" y1="189.9175" x2="461.218" y2="189.9175">
		<stop  offset="0" style="stop-color:#FFFFFF"/>
		<stop  offset="0.1688" style="stop-color:#B1B4B5"/>
		<stop  offset="0.4086" style="stop-color:#E0E0DF"/>
		<stop  offset="0.7581" style="stop-color:#B1B4B5"/>
		<stop  offset="1" style="stop-color:#C2C2C2"/>
	</linearGradient>
	<rect id="XMLID_16577_" x="419.2" y="152.6" fill="url(#XMLID_815_)" width="42" height="74.7"/>
</g>
<g id="XMLID_16548_">
	<rect id="XMLID_16550_" x="461.7" y="151.1" fill="#030000" width="43.1" height="77.5"/>
	<linearGradient id="XMLID_816_" gradientUnits="userSpaceOnUse" x1="462.2632" y1="189.9175" x2="504.2719" y2="189.9175">
		<stop  offset="0" style="stop-color:#FFFFFF"/>
		<stop  offset="0.1688" style="stop-color:#B1B4B5"/>
		<stop  offset="0.4086" style="stop-color:#E0E0DF"/>
		<stop  offset="0.7581" style="stop-color:#B1B4B5"/>
		<stop  offset="1" style="stop-color:#C2C2C2"/>
	</linearGradient>
	<rect id="XMLID_16549_" x="462.3" y="152.6" fill="url(#XMLID_816_)" width="42" height="74.7"/>
</g>
<g id="XMLID_16520_">
	<rect id="XMLID_16522_" x="504.8" y="151.1" fill="#030000" width="43.1" height="77.5"/>
	<linearGradient id="XMLID_817_" gradientUnits="userSpaceOnUse" x1="505.317" y1="189.9175" x2="547.3259" y2="189.9175">
		<stop  offset="0" style="stop-color:#FFFFFF"/>
		<stop  offset="0.1688" style="stop-color:#B1B4B5"/>
		<stop  offset="0.4086" style="stop-color:#E0E0DF"/>
		<stop  offset="0.7581" style="stop-color:#B1B4B5"/>
		<stop  offset="1" style="stop-color:#C2C2C2"/>
	</linearGradient>
	<rect id="XMLID_16521_" x="505.3" y="152.6" fill="url(#XMLID_817_)" width="42" height="74.7"/>
</g>
<g id="XMLID_16492_">
	<rect id="XMLID_16494_" x="547.8" y="151.1" fill="#030000" width="43.1" height="77.5"/>
	<linearGradient id="XMLID_818_" gradientUnits="userSpaceOnUse" x1="548.371" y1="189.9175" x2="590.3798" y2="189.9175">
		<stop  offset="0" style="stop-color:#FFFFFF"/>
		<stop  offset="0.1688" style="stop-color:#B1B4B5"/>
		<stop  offset="0.4086" style="stop-color:#E0E0DF"/>
		<stop  offset="0.7581" style="stop-color:#B1B4B5"/>
		<stop  offset="1" style="stop-color:#C2C2C2"/>
	</linearGradient>
	<rect id="XMLID_16493_" x="548.4" y="152.6" fill="url(#XMLID_818_)" width="42" height="74.7"/>
</g>
<g id="XMLID_16464_">
	<rect id="XMLID_16466_" x="590.9" y="151.1" fill="#030000" width="43.1" height="77.5"/>
	<linearGradient id="XMLID_819_" gradientUnits="userSpaceOnUse" x1="591.4246" y1="189.9175" x2="633.4333" y2="189.9175">
		<stop  offset="0" style="stop-color:#FFFFFF"/>
		<stop  offset="0.1688" style="stop-color:#B1B4B5"/>
		<stop  offset="0.4086" style="stop-color:#E0E0DF"/>
		<stop  offset="0.7581" style="stop-color:#B1B4B5"/>
		<stop  offset="1" style="stop-color:#C2C2C2"/>
	</linearGradient>
	<rect id="XMLID_16465_" x="591.4" y="152.6" fill="url(#XMLID_819_)" width="42" height="74.7"/>
</g>
<g id="XMLID_16436_">
	<rect id="XMLID_16438_" x="634" y="151.1" fill="#030000" width="43.1" height="77.5"/>
	<linearGradient id="XMLID_823_" gradientUnits="userSpaceOnUse" x1="634.4782" y1="189.9175" x2="676.487" y2="189.9175">
		<stop  offset="0" style="stop-color:#FFFFFF"/>
		<stop  offset="0.1688" style="stop-color:#B1B4B5"/>
		<stop  offset="0.4086" style="stop-color:#E0E0DF"/>
		<stop  offset="0.7581" style="stop-color:#B1B4B5"/>
		<stop  offset="1" style="stop-color:#C2C2C2"/>
	</linearGradient>
	<rect id="XMLID_16437_" x="634.5" y="152.6" fill="url(#XMLID_823_)" width="42" height="74.7"/>
</g>
<g id="XMLID_16408_">
	<rect id="XMLID_16410_" x="802" y="141.3" fill="#030000" width="43.1" height="77.5"/>
	<linearGradient id="XMLID_824_" gradientUnits="userSpaceOnUse" x1="802.4782" y1="180.1278" x2="844.487" y2="180.1278">
		<stop  offset="0" style="stop-color:#FFFFFF"/>
		<stop  offset="0.1688" style="stop-color:#B1B4B5"/>
		<stop  offset="0.4086" style="stop-color:#E0E0DF"/>
		<stop  offset="0.7581" style="stop-color:#B1B4B5"/>
		<stop  offset="1" style="stop-color:#C2C2C2"/>
	</linearGradient>
	<rect id="XMLID_16409_" x="802.5" y="142.8" fill="url(#XMLID_824_)" width="42" height="74.7"/>
</g>
<path id="XMLID_16336_" fill="#1C1D20" d="M777.6,189l-1.3,2.2h1v9.6v0.9v0.8l-2.2-2.2c-0.2-0.2-0.3-0.5-0.3-0.8v-1.9
	c0.4-0.2,0.7-0.6,0.7-1c0-0.6-0.5-1.1-1.1-1.1c-0.6,0-1.1,0.5-1.1,1.1c0,0.6,0.4,1,0.9,1.1v1.9c0,0.5,0.2,0.9,0.5,1.2l2.4,2.4
	c0.2,0.2,0.3,0.5,0.3,0.7v0.3v0.8c-0.9,0.2-1.5,0.9-1.5,1.8c0,1,0.8,1.8,1.8,1.8c1,0,1.8-0.8,1.8-1.8c0-0.9-0.6-1.6-1.5-1.8V204
	v-0.3v-2.1v-0.9c0-0.3,0.1-0.5,0.3-0.7l2.3-2.3c0.3-0.3,0.5-0.8,0.5-1.2v-1.6h0.9v-2.2h-2.2v2.2h0.6v1.6c0,0.3-0.1,0.5-0.3,0.7
	l-2.1,2.1v-8.3h1L777.6,189z"/>
<rect id="XMLID_16297_" x="957.3" y="22.9" fill="#1C1C1C" width="217.5" height="89.1"/>
<rect id="XMLID_16294_" x="958.4" y="24.7" fill="#4D781F" width="216.3" height="87.3"/>
<text id="XMLID_16293_" transform="matrix(1 0 0 1 985.0189 15.7716)" font-family="'MicrosoftYaHeiLight'" font-size="12px">APSolute Application Delivery</text>
<path id="XMLID_16292_" d="M1247.8,43.1l-9.8-6.2c-0.4-0.3-1-0.3-1.5,0l-9.8,6.2c-0.9,0.6-2.1-0.1-2.1-1.2V27.6
	c0-0.5,0.2-0.9,0.6-1.2l11.3-7.1c0.4-0.3,1-0.3,1.5,0l11.3,7.1c0.4,0.2,0.6,0.7,0.6,1.2V42C1249.9,43,1248.7,43.7,1247.8,43.1z"/>
<path id="XMLID_16289_" fill="#869173" d="M1247.5,42.8l-9.6-6c-0.4-0.3-1-0.3-1.4,0l-9.6,6c-0.9,0.6-2-0.1-2-1.1v-14
	c0-0.5,0.2-0.9,0.6-1.1l11-6.9c0.4-0.3,1-0.3,1.4,0l11,6.9c0.4,0.2,0.6,0.7,0.6,1.1v14C1249.5,42.7,1248.4,43.3,1247.5,42.8z"/>
<polygon id="XMLID_16286_" fill="#1F251A" points="1233.3,33.9 1237.2,24 1241.1,33.9 "/>
<path id="XMLID_16285_" d="M1226.6,72.7l9.8,6.2c0.4,0.3,1,0.3,1.5,0l9.8-6.2c0.9-0.6,2.1,0.1,2.1,1.2v14.4c0,0.5-0.2,0.9-0.6,1.2
	l-11.3,7.1c-0.4,0.3-1,0.3-1.5,0l-11.3-7.1c-0.4-0.2-0.6-0.7-0.6-1.2V73.9C1224.5,72.8,1225.7,72.2,1226.6,72.7z"/>
<path id="XMLID_16282_" fill="#869173" d="M1226.9,73.1l9.6,6c0.4,0.3,1,0.3,1.4,0l9.6-6c0.9-0.6,2,0.1,2,1.1v14
	c0,0.5-0.2,0.9-0.6,1.1l-11,6.9c-0.4,0.3-1,0.3-1.4,0l-11-6.9c-0.4-0.2-0.6-0.7-0.6-1.1v-14C1224.9,73.2,1226,72.5,1226.9,73.1z"/>
<polygon id="XMLID_16279_" fill="#1F251A" points="1241.1,82 1237.2,91.9 1233.3,82 "/>
<path id="XMLID_16278_" d="M1222.4,47.4l-6.2,9.8c-0.3,0.4-0.3,1,0,1.5l6.2,9.8c0.6,0.9-0.1,2.1-1.2,2.1h-14.4
	c-0.5,0-0.9-0.2-1.2-0.6l-7.1-11.3c-0.3-0.4-0.3-1,0-1.5l7.1-11.3c0.2-0.4,0.7-0.6,1.2-0.6h14.4
	C1222.3,45.3,1222.9,46.4,1222.4,47.4z"/>
<path id="XMLID_16275_" fill="#869173" d="M1222,47.6l-6,9.6c-0.3,0.4-0.3,1,0,1.4l6,9.6c0.6,0.9-0.1,2-1.1,2h-14
	c-0.5,0-0.9-0.2-1.1-0.6l-6.9-11c-0.3-0.4-0.3-1,0-1.4l6.9-11c0.2-0.4,0.7-0.6,1.1-0.6h14C1222,45.6,1222.6,46.8,1222,47.6z"/>
<polygon id="XMLID_16272_" fill="#1F251A" points="1213.1,61.8 1203.2,57.9 1213.1,54 "/>
<path id="XMLID_16271_" d="M1252,68.5l6.2-9.8c0.3-0.4,0.3-1,0-1.5l-6.2-9.8c-0.6-0.9,0.1-2.1,1.2-2.1h14.4c0.5,0,0.9,0.2,1.2,0.6
	l7.1,11.3c0.3,0.4,0.3,1,0,1.5l-7.1,11.3c-0.2,0.4-0.7,0.6-1.2,0.6h-14.4C1252.1,70.6,1251.4,69.4,1252,68.5z"/>
<path id="XMLID_16268_" fill="#869173" d="M1252.3,68.2l6-9.6c0.3-0.4,0.3-1,0-1.4l-6-9.6c-0.6-0.9,0.1-2,1.1-2h14
	c0.5,0,0.9,0.2,1.1,0.6l6.9,11c0.3,0.4,0.3,1,0,1.4l-6.9,11c-0.2,0.4-0.7,0.6-1.1,0.6h-14C1252.4,70.2,1251.8,69.1,1252.3,68.2z"/>
<polygon id="XMLID_16265_" fill="#1F251A" points="1261.3,54 1271.1,57.9 1261.3,61.8 "/>
<path id="XMLID_16264_" d="M1245.8,68.5h-18c-0.9,0-1.6-0.7-1.6-1.6v-18c0-0.9,0.7-1.6,1.6-1.6h18c0.9,0,1.6,0.7,1.6,1.6v18
	C1247.4,67.8,1246.7,68.5,1245.8,68.5z"/>
<path id="XMLID_16261_" fill="#869173" d="M1245.6,68.2h-17.5c-0.8,0-1.5-0.7-1.5-1.5V49.2c0-0.8,0.7-1.5,1.5-1.5h17.5
	c0.8,0,1.5,0.7,1.5,1.5v17.5C1247.1,67.5,1246.4,68.2,1245.6,68.2z"/>
<polygon id="XMLID_16260_" fill="#1AC11E" points="1229.1,60.2 1236.3,65.6 1245.4,51.7 1235.6,61 "/>
<path id="XMLID_16259_" d="M1208.6,98.8h-8.4c-3.5,0-6.4-2.8-6.4-6.4v-8.4c0-3.5,2.8-6.4,6.4-6.4h8.4c3.5,0,6.4,2.8,6.4,6.4v8.4
	C1215,96,1212.1,98.8,1208.6,98.8z"/>
<path id="XMLID_16256_" fill="#869173" d="M1208.2,98.5h-7.6c-3.6,0-6.5-2.9-6.5-6.5v-7.6c0-3.6,2.9-6.5,6.5-6.5h7.6
	c3.6,0,6.5,2.9,6.5,6.5v7.6C1214.7,95.6,1211.8,98.5,1208.2,98.5z"/>
<rect id="XMLID_16255_" x="1202.6" y="78.8" transform="matrix(0.7071 0.7071 -0.7071 0.7071 414.7847 -825.6399)" fill="#9B1639" width="2.8" height="18.1"/>
<rect id="XMLID_16254_" x="1202.6" y="78.8" transform="matrix(-0.7071 0.7071 -0.7071 -0.7071 2117.5374 -701.3737)" fill="#9B1639" width="2.8" height="18.1"/>
<path id="XMLID_16251_" fill="#0F3A1B" d="M91.4,248.6h73.7c0,0-30.2-97.4,33.8-124.4c54.6-23.1,101.5-22,118.6-29.1
	c19.7-8.1,35.6-22.1,45.7-38.8s7.4-25,8.5-41.2c0.3-4.5-3.2-8.4-7.7-8.4H91.4c0,0-20,18.7-20,56S91.4,248.6,91.4,248.6z"/>
<path id="XMLID_16248_" fill="#248F45" d="M90.6,247.7h70.6c0,0-28.9-98.1,32.4-124.3c52.3-22.4,106.4-24.6,122.9-31.2
	c18.4-7.4,37.5-25,45.3-38.8s7-22.6,8.2-38.4c0.3-4.4-3.1-8.1-7.4-8.1H90.6c0,0-19.2,18.3-19.2,54.6S90.6,247.7,90.6,247.7z"/>
<ellipse id="XMLID_16245_" fill="#141414" cx="162.1" cy="49.1" rx="67.2" ry="24.4"/>
<ellipse id="XMLID_16242_" fill="#68555B" cx="162.1" cy="49.1" rx="65" ry="20.9"/>
<g id="XMLID_6932_">
	<g id="XMLID_16581_">
		<defs>
			<path id="SVGID_51_" d="M1370,216.5v1c0,4,2.7,7.5,6.5,8.5l5.2,1.4c3,0.8,6.1,1.2,9.2,1.2l1.7-15.9l-14.7-2.8
				c-0.4-0.1-0.9-0.1-1.3-0.1C1373.1,209.8,1370,212.7,1370,216.5"/>
		</defs>
		<clipPath id="SVGID_140_">
			<use xlink:href="#SVGID_51_"  overflow="visible"/>
		</clipPath>
		
			<linearGradient id="XMLID_825_" gradientUnits="userSpaceOnUse" x1="6387.2461" y1="-5866.7729" x2="6388.2461" y2="-5866.7729" gradientTransform="matrix(14.9609 0 0 -14.9609 -94191.3438 -87553.0156)">
			<stop  offset="0" style="stop-color:#E1E0DF"/>
			<stop  offset="1" style="stop-color:#666666"/>
		</linearGradient>
		<rect id="XMLID_16582_" x="1370" y="209.8" clip-path="url(#SVGID_140_)" fill="url(#XMLID_825_)" width="22.6" height="18.8"/>
	</g>
	<g id="XMLID_16583_">
		<defs>
			<path id="SVGID_52_" d="M1370,22.5v1c0,4,2.7,7.5,6.5,8.5l5.2,1.4c3,0.8,6.1,1.2,9.2,1.2l1.7-15.9l-14.7-2.8
				c-0.4-0.1-0.9-0.1-1.3-0.1C1373.1,15.8,1370,18.7,1370,22.5"/>
		</defs>
		<clipPath id="SVGID_141_">
			<use xlink:href="#SVGID_52_"  overflow="visible"/>
		</clipPath>
		
			<linearGradient id="XMLID_826_" gradientUnits="userSpaceOnUse" x1="6387.2461" y1="-5853.8057" x2="6388.2461" y2="-5853.8057" gradientTransform="matrix(14.9609 0 0 -14.9609 -94191.3438 -87553.0156)">
			<stop  offset="0" style="stop-color:#E1E0DF"/>
			<stop  offset="1" style="stop-color:#666666"/>
		</linearGradient>
		<rect id="XMLID_16584_" x="1370" y="15.8" clip-path="url(#SVGID_141_)" fill="url(#XMLID_826_)" width="22.6" height="18.8"/>
	</g>
	<g id="XMLID_16579_">
		<defs>
			<path id="SVGID_50_" d="M1391,18.9c-5.5,0-9.9,4.4-9.9,9.9v189.9c0,5.5,4.4,9.9,9.9,9.9c5.5,0,9.9-4.4,9.9-9.9V28.8
				C1400.8,23.4,1396.4,18.9,1391,18.9L1391,18.9z"/>
		</defs>
		<clipPath id="SVGID_142_">
			<use xlink:href="#SVGID_50_"  overflow="visible"/>
		</clipPath>
		
			<linearGradient id="XMLID_827_" gradientUnits="userSpaceOnUse" x1="7202.8281" y1="-5171.1143" x2="7203.8281" y2="-5171.1143" gradientTransform="matrix(-19.7471 0 0 19.7471 143635.8125 102238.2813)">
			<stop  offset="0" style="stop-color:#CCCDCD"/>
			<stop  offset="0.4731" style="stop-color:#E1E0DF"/>
			<stop  offset="1" style="stop-color:#666666"/>
		</linearGradient>
		<rect id="XMLID_16580_" x="1381.1" y="18.9" clip-path="url(#SVGID_142_)" fill="url(#XMLID_827_)" width="19.7" height="209.7"/>
	</g>
</g>
<g id="XMLID_16244_">
	<g id="XMLID_16594_">
		<defs>
			<path id="SVGID_60_" d="M1302.7,103.2v1c0,4,2.7,7.5,6.5,8.5l5.2,1.4c3,0.8,6.1,1.2,9.2,1.2l1.7-15.9l-14.7-2.8
				c-0.4-0.1-0.9-0.1-1.3-0.1C1305.8,96.4,1302.7,99.4,1302.7,103.2"/>
		</defs>
		<clipPath id="SVGID_143_">
			<use xlink:href="#SVGID_60_"  overflow="visible"/>
		</clipPath>
		
			<linearGradient id="XMLID_828_" gradientUnits="userSpaceOnUse" x1="6382.7456" y1="-5859.1973" x2="6383.7456" y2="-5859.1973" gradientTransform="matrix(14.9609 0 0 -14.9609 -94191.3438 -87553.0156)">
			<stop  offset="0" style="stop-color:#E1E0DF"/>
			<stop  offset="1" style="stop-color:#666666"/>
		</linearGradient>
		<rect id="XMLID_16603_" x="1302.7" y="96.4" clip-path="url(#SVGID_143_)" fill="url(#XMLID_828_)" width="22.6" height="18.8"/>
	</g>
	<g id="XMLID_16252_">
		<defs>
			<path id="SVGID_59_" d="M1302.7,22.5v1c0,4,2.7,7.5,6.5,8.5l5.2,1.4c3,0.8,6.1,1.2,9.2,1.2l1.7-15.9l-14.7-2.8
				c-0.4-0.1-0.9-0.1-1.3-0.1C1305.8,15.8,1302.7,18.7,1302.7,22.5"/>
		</defs>
		<clipPath id="SVGID_144_">
			<use xlink:href="#SVGID_59_"  overflow="visible"/>
		</clipPath>
		
			<linearGradient id="XMLID_829_" gradientUnits="userSpaceOnUse" x1="6382.7456" y1="-5853.8057" x2="6383.7456" y2="-5853.8057" gradientTransform="matrix(14.9609 0 0 -14.9609 -94191.3438 -87553.0156)">
			<stop  offset="0" style="stop-color:#E1E0DF"/>
			<stop  offset="1" style="stop-color:#666666"/>
		</linearGradient>
		<rect id="XMLID_16253_" x="1302.7" y="15.8" clip-path="url(#SVGID_144_)" fill="url(#XMLID_829_)" width="22.6" height="18.8"/>
	</g>
	<g id="XMLID_16249_">
		<defs>
			<path id="SVGID_58_" d="M1323.6,18.9c-5.5,0-9.9,4.4-9.9,9.9v76.6c0,5.5,4.4,9.9,9.9,9.9c5.5,0,9.9-4.4,9.9-9.9V28.8
				C1333.5,23.4,1329.1,18.9,1323.6,18.9L1323.6,18.9z"/>
		</defs>
		<clipPath id="SVGID_145_">
			<use xlink:href="#SVGID_58_"  overflow="visible"/>
		</clipPath>
		
			<linearGradient id="XMLID_830_" gradientUnits="userSpaceOnUse" x1="7206.2378" y1="-5173.9839" x2="7207.2378" y2="-5173.9839" gradientTransform="matrix(-19.7471 0 0 19.7471 143635.8125 102238.2813)">
			<stop  offset="0" style="stop-color:#CCCDCD"/>
			<stop  offset="0.4731" style="stop-color:#E1E0DF"/>
			<stop  offset="1" style="stop-color:#666666"/>
		</linearGradient>
		<rect id="XMLID_16250_" x="1313.8" y="18.9" clip-path="url(#SVGID_145_)" fill="url(#XMLID_830_)" width="19.7" height="96.3"/>
	</g>
</g>
<g id="XMLID_16586_">
	<g id="XMLID_16591_">
		<defs>
			<path id="SVGID_55_" d="M16.5,216.5v1c0,4,2.7,7.5,6.5,8.5l5.2,1.4c3,0.8,6.1,1.2,9.2,1.2l1.7-15.9l-14.7-2.8
				c-0.4-0.1-0.9-0.1-1.3-0.1C19.6,209.8,16.5,212.7,16.5,216.5"/>
		</defs>
		<clipPath id="SVGID_146_">
			<use xlink:href="#SVGID_55_"  overflow="visible"/>
		</clipPath>
		
			<linearGradient id="XMLID_831_" gradientUnits="userSpaceOnUse" x1="6296.7744" y1="-5866.7729" x2="6297.7744" y2="-5866.7729" gradientTransform="matrix(14.9609 0 0 -14.9609 -94191.3438 -87553.0156)">
			<stop  offset="0" style="stop-color:#E1E0DF"/>
			<stop  offset="1" style="stop-color:#666666"/>
		</linearGradient>
		<rect id="XMLID_16592_" x="16.5" y="209.8" clip-path="url(#SVGID_146_)" fill="url(#XMLID_831_)" width="22.6" height="18.8"/>
	</g>
	<g id="XMLID_16589_">
		<defs>
			<path id="SVGID_54_" d="M16.5,22.5v1c0,4,2.7,7.5,6.5,8.5l5.2,1.4c3,0.8,6.1,1.2,9.2,1.2l1.7-15.9l-14.7-2.8
				c-0.4-0.1-0.9-0.1-1.3-0.1C19.6,15.8,16.5,18.7,16.5,22.5"/>
		</defs>
		<clipPath id="SVGID_147_">
			<use xlink:href="#SVGID_54_"  overflow="visible"/>
		</clipPath>
		
			<linearGradient id="XMLID_832_" gradientUnits="userSpaceOnUse" x1="6296.7744" y1="-5853.8057" x2="6297.7744" y2="-5853.8057" gradientTransform="matrix(14.9609 0 0 -14.9609 -94191.3438 -87553.0156)">
			<stop  offset="0" style="stop-color:#E1E0DF"/>
			<stop  offset="1" style="stop-color:#666666"/>
		</linearGradient>
		<rect id="XMLID_16590_" x="16.5" y="15.8" clip-path="url(#SVGID_147_)" fill="url(#XMLID_832_)" width="22.6" height="18.8"/>
	</g>
	<g id="XMLID_16587_">
		<defs>
			<path id="SVGID_53_" d="M37.4,18.9c-5.5,0-9.9,4.4-9.9,9.9v189.9c0,5.5,4.4,9.9,9.9,9.9c5.5,0,9.9-4.4,9.9-9.9V28.8
				C47.3,23.4,42.9,18.9,37.4,18.9L37.4,18.9z"/>
		</defs>
		<clipPath id="SVGID_148_">
			<use xlink:href="#SVGID_53_"  overflow="visible"/>
		</clipPath>
		
			<linearGradient id="XMLID_833_" gradientUnits="userSpaceOnUse" x1="7271.3716" y1="-5171.1143" x2="7272.3716" y2="-5171.1143" gradientTransform="matrix(-19.7471 0 0 19.7471 143635.8125 102238.2813)">
			<stop  offset="0" style="stop-color:#CCCDCD"/>
			<stop  offset="0.4731" style="stop-color:#E1E0DF"/>
			<stop  offset="1" style="stop-color:#666666"/>
		</linearGradient>
		<rect id="XMLID_16588_" x="27.6" y="18.9" clip-path="url(#SVGID_148_)" fill="url(#XMLID_833_)" width="19.7" height="209.7"/>
	</g>
</g>
<text id="XMLID_16243_" transform="matrix(1 0 0 1 383.3845 31.9293)" font-family="'MicrosoftYaHeiLight'" font-size="18px">办公链路负载均衡器A</text>
<text id="XMLID_16246_" transform="matrix(1 0 0 1 251.4744 24.7346)" font-family="'MicrosoftYaHei'" font-size="14px">AppDirector</text>
<text id="XMLID_16247_" transform="matrix(1 0 0 1 119.0416 56.2346)" fill="#F7F8F8" font-family="'MicrosoftYaHei-Bold'" font-size="21px">radware</text>
</svg>
