<?xml version="1.0" encoding="utf-8"?>
<!-- Generator: Adobe Illustrator 21.0.0, SVG Export Plug-In . SVG Version: 6.00 Build 0)  -->
<svg version="1.1" id="图层_1" xmlns="http://www.w3.org/2000/svg" xmlns:xlink="http://www.w3.org/1999/xlink" x="0px" y="0px"
	 width="1417.3px" height="126.1px" viewBox="0 0 1417.3 126.1" enable-background="new 0 0 1417.3 126.1" xml:space="preserve">
<g id="XMLID_9103_">
	<rect id="XMLID_9119_" x="2" y="2" fill="#D1D1D1" width="1413.3" height="122.1"/>
	<path id="XMLID_9116_" fill="#2D2D2D" d="M1413.3,4v118.1H4V4H1413.3 M1417.3,0H0v126.1h1417.3V0L1417.3,0z"/>
</g>
<g id="XMLID_9084_">
	<rect id="XMLID_9102_" x="0" y="0" fill="#1C1C1C" width="63.8" height="126.1"/>
	<rect id="XMLID_9101_" x="61.3" y="0" fill="#070707" width="2.5" height="126.1"/>
	<linearGradient id="XMLID_478_" gradientUnits="userSpaceOnUse" x1="16.6626" y1="23.2313" x2="44.5693" y2="23.2313">
		<stop  offset="0" style="stop-color:#FFFFFF"/>
		<stop  offset="5.656110e-02" style="stop-color:#A3A3A4"/>
		<stop  offset="0.3372" style="stop-color:#919292"/>
		<stop  offset="0.3831" style="stop-color:#E0E0DF"/>
		<stop  offset="0.4519" style="stop-color:#C1C0C0"/>
		<stop  offset="0.9264" style="stop-color:#E0E0DF"/>
		<stop  offset="0.9745" style="stop-color:#C1C0C0"/>
	</linearGradient>
	<path id="XMLID_9100_" fill="url(#XMLID_478_)" d="M16.7,23.2c0,7.7,6.2,13.9,14,13.9c7.7,0,14-6.2,14-13.9c0-7.7-6.2-13.9-14-13.9
		C22.9,9.4,16.7,15.6,16.7,23.2"/>
	
		<ellipse id="XMLID_9099_" fill="none" stroke="#121212" stroke-width="0.75" stroke-miterlimit="10" cx="30.6" cy="23.2" rx="14" ry="13.9"/>
	<polygon id="XMLID_9098_" fill="#040000" points="32.3,31.1 32.3,24.9 38.5,24.9 38.5,21.5 32.3,21.5 32.3,15.4 28.9,15.4 
		28.9,21.5 22.7,21.5 22.7,24.9 28.9,24.9 28.9,31.1 	"/>
	<path id="XMLID_9095_" fill="#221714" d="M32,15.7v5.6v0.6h0.6h5.6v2.8h-5.6H32v0.6v5.6h-2.9v-5.6v-0.6h-0.6H23v-2.8h5.6h0.6v-0.6
		v-5.6H32z M28.6,21.2h-6.2v4h6.2v6.1h4v-6.1h6.2v-4h-6.2v-6.1h-4V21.2z"/>
	<rect id="XMLID_9094_" x="32" y="15.1" fill="#606062" width="0.6" height="6.7"/>
	<rect id="XMLID_9093_" x="32.1" y="21.2" fill="#606062" width="6.8" height="0.6"/>
	<linearGradient id="XMLID_479_" gradientUnits="userSpaceOnUse" x1="16.6626" y1="102.5113" x2="44.5693" y2="102.5113">
		<stop  offset="0" style="stop-color:#FFFFFF"/>
		<stop  offset="5.656110e-02" style="stop-color:#A3A3A4"/>
		<stop  offset="0.3372" style="stop-color:#919292"/>
		<stop  offset="0.3831" style="stop-color:#E0E0DF"/>
		<stop  offset="0.4519" style="stop-color:#C1C0C0"/>
		<stop  offset="0.9264" style="stop-color:#E0E0DF"/>
		<stop  offset="0.9745" style="stop-color:#C1C0C0"/>
	</linearGradient>
	<path id="XMLID_9092_" fill="url(#XMLID_479_)" d="M16.7,102.5c0,7.7,6.2,13.9,14,13.9c7.7,0,14-6.2,14-13.9
		c0-7.7-6.2-13.9-14-13.9C22.9,88.7,16.7,94.9,16.7,102.5"/>
	
		<ellipse id="XMLID_9091_" fill="none" stroke="#121212" stroke-width="0.75" stroke-miterlimit="10" cx="30.6" cy="102.5" rx="14" ry="13.9"/>
	<polygon id="XMLID_9090_" fill="#040000" points="32.3,110.4 32.3,104.2 38.5,104.2 38.5,100.8 32.3,100.8 32.3,94.7 28.9,94.7 
		28.9,100.8 22.7,100.8 22.7,104.2 28.9,104.2 28.9,110.4 	"/>
	<path id="XMLID_9087_" fill="#221714" d="M32,94.9v5.6v0.6h0.6h5.6v2.8h-5.6H32v0.6v5.6h-2.9v-5.6v-0.6h-0.6H23v-2.8h5.6h0.6v-0.6
		v-5.6H32z M28.6,100.5h-6.2v4h6.2v6.1h4v-6.1h6.2v-4h-6.2v-6.1h-4V100.5z"/>
	<rect id="XMLID_9086_" x="32" y="94.4" fill="#606062" width="0.6" height="6.7"/>
	<rect id="XMLID_9085_" x="32.1" y="100.5" fill="#606062" width="6.8" height="0.6"/>
</g>
<g id="XMLID_9065_">
	<rect id="XMLID_9083_" x="1353.5" y="0" fill="#1C1C1C" width="63.8" height="126.1"/>
	
		<rect id="XMLID_9082_" x="1353.5" y="0" transform="matrix(-1 8.790112e-11 -8.790112e-11 -1 2709.5903 126.1414)" fill="#070707" width="2.5" height="126.1"/>
	
		<linearGradient id="XMLID_480_" gradientUnits="userSpaceOnUse" x1="-3796.5576" y1="-6090.0337" x2="-3768.6509" y2="-6090.0337" gradientTransform="matrix(-1 0 0 -1 -2395.8977 -5987.124)">
		<stop  offset="0" style="stop-color:#FFFFFF"/>
		<stop  offset="5.656110e-02" style="stop-color:#A3A3A4"/>
		<stop  offset="0.3372" style="stop-color:#919292"/>
		<stop  offset="0.3831" style="stop-color:#E0E0DF"/>
		<stop  offset="0.4519" style="stop-color:#C1C0C0"/>
		<stop  offset="0.9264" style="stop-color:#E0E0DF"/>
		<stop  offset="0.9745" style="stop-color:#C1C0C0"/>
	</linearGradient>
	<path id="XMLID_9081_" fill="url(#XMLID_480_)" d="M1400.7,102.9c0-7.7-6.2-13.9-14-13.9c-7.7,0-14,6.2-14,13.9
		c0,7.7,6.2,13.9,14,13.9C1394.4,116.8,1400.7,110.6,1400.7,102.9"/>
	
		<ellipse id="XMLID_9080_" fill="none" stroke="#121212" stroke-width="0.75" stroke-miterlimit="10" cx="1386.7" cy="102.9" rx="14" ry="13.9"/>
	<polygon id="XMLID_9079_" fill="#040000" points="1385,95.1 1385,101.2 1378.8,101.2 1378.8,104.6 1385,104.6 1385,110.8 
		1388.4,110.8 1388.4,104.6 1394.6,104.6 1394.6,101.2 1388.4,101.2 1388.4,95.1 	"/>
	<path id="XMLID_9076_" fill="#221714" d="M1385.3,110.5v-5.6v-0.6h-0.6h-5.6v-2.8h5.6h0.6v-0.6v-5.6h2.9v5.6v0.6h0.6h5.6v2.8h-5.6
		h-0.6v0.6v5.6H1385.3z M1388.7,104.9h6.2v-4h-6.2v-6.1h-4v6.1h-6.2v4h6.2v6.1h4V104.9z"/>
	<rect id="XMLID_9075_" x="1384.7" y="104.3" fill="#606062" width="0.6" height="6.7"/>
	<rect id="XMLID_9074_" x="1378.5" y="104.3" fill="#606062" width="6.8" height="0.6"/>
	
		<linearGradient id="XMLID_481_" gradientUnits="userSpaceOnUse" x1="-3796.5576" y1="-6010.7539" x2="-3768.6509" y2="-6010.7539" gradientTransform="matrix(-1 0 0 -1 -2395.8977 -5987.124)">
		<stop  offset="0" style="stop-color:#FFFFFF"/>
		<stop  offset="5.656110e-02" style="stop-color:#A3A3A4"/>
		<stop  offset="0.3372" style="stop-color:#919292"/>
		<stop  offset="0.3831" style="stop-color:#E0E0DF"/>
		<stop  offset="0.4519" style="stop-color:#C1C0C0"/>
		<stop  offset="0.9264" style="stop-color:#E0E0DF"/>
		<stop  offset="0.9745" style="stop-color:#C1C0C0"/>
	</linearGradient>
	<path id="XMLID_9073_" fill="url(#XMLID_481_)" d="M1400.7,23.6c0-7.7-6.2-13.9-14-13.9c-7.7,0-14,6.2-14,13.9
		c0,7.7,6.2,13.9,14,13.9C1394.4,37.5,1400.7,31.3,1400.7,23.6"/>
	
		<ellipse id="XMLID_9072_" fill="none" stroke="#121212" stroke-width="0.75" stroke-miterlimit="10" cx="1386.7" cy="23.6" rx="14" ry="13.9"/>
	<polygon id="XMLID_9071_" fill="#040000" points="1385,15.8 1385,21.9 1378.8,21.9 1378.8,25.3 1385,25.3 1385,31.5 1388.4,31.5 
		1388.4,25.3 1394.6,25.3 1394.6,21.9 1388.4,21.9 1388.4,15.8 	"/>
	<path id="XMLID_9068_" fill="#221714" d="M1385.3,31.2v-5.6v-0.6h-0.6h-5.6v-2.8h5.6h0.6v-0.6v-5.6h2.9v5.6v0.6h0.6h5.6v2.8h-5.6
		h-0.6v0.6v5.6H1385.3z M1388.7,25.6h6.2v-4h-6.2v-6.1h-4v6.1h-6.2v4h6.2v6.1h4V25.6z"/>
	<rect id="XMLID_9067_" x="1384.7" y="25.1" fill="#606062" width="0.6" height="6.7"/>
	<rect id="XMLID_9066_" x="1378.5" y="25.1" fill="#606062" width="6.8" height="0.6"/>
</g>
<g id="XMLID_9062_">
	<rect id="XMLID_9064_" x="80" y="38.7" fill="#030000" width="43.1" height="77.5"/>
	<linearGradient id="XMLID_482_" gradientUnits="userSpaceOnUse" x1="80.546" y1="77.5295" x2="122.5548" y2="77.5295">
		<stop  offset="0" style="stop-color:#FFFFFF"/>
		<stop  offset="0.1688" style="stop-color:#B1B4B5"/>
		<stop  offset="0.4086" style="stop-color:#E0E0DF"/>
		<stop  offset="0.7581" style="stop-color:#B1B4B5"/>
		<stop  offset="1" style="stop-color:#C2C2C2"/>
	</linearGradient>
	<rect id="XMLID_9063_" x="80.5" y="40.2" fill="url(#XMLID_482_)" width="42" height="74.7"/>
</g>
<g id="XMLID_9034_">
	<rect id="XMLID_9036_" x="123.1" y="38.7" fill="#030000" width="43.1" height="77.5"/>
	<linearGradient id="XMLID_483_" gradientUnits="userSpaceOnUse" x1="123.5999" y1="77.5295" x2="165.6087" y2="77.5295">
		<stop  offset="0" style="stop-color:#FFFFFF"/>
		<stop  offset="0.1688" style="stop-color:#B1B4B5"/>
		<stop  offset="0.4086" style="stop-color:#E0E0DF"/>
		<stop  offset="0.7581" style="stop-color:#B1B4B5"/>
		<stop  offset="1" style="stop-color:#C2C2C2"/>
	</linearGradient>
	<rect id="XMLID_9035_" x="123.6" y="40.2" fill="url(#XMLID_483_)" width="42" height="74.7"/>
</g>
<g id="XMLID_9006_">
	<rect id="XMLID_9008_" x="166.1" y="38.7" fill="#030000" width="43.1" height="77.5"/>
	<linearGradient id="XMLID_484_" gradientUnits="userSpaceOnUse" x1="166.6538" y1="77.5295" x2="208.6626" y2="77.5295">
		<stop  offset="0" style="stop-color:#FFFFFF"/>
		<stop  offset="0.1688" style="stop-color:#B1B4B5"/>
		<stop  offset="0.4086" style="stop-color:#E0E0DF"/>
		<stop  offset="0.7581" style="stop-color:#B1B4B5"/>
		<stop  offset="1" style="stop-color:#C2C2C2"/>
	</linearGradient>
	<rect id="XMLID_9007_" x="166.7" y="40.2" fill="url(#XMLID_484_)" width="42" height="74.7"/>
</g>
<g id="XMLID_8978_">
	<rect id="XMLID_8980_" x="209.2" y="38.7" fill="#030000" width="43.1" height="77.5"/>
	<linearGradient id="XMLID_485_" gradientUnits="userSpaceOnUse" x1="209.7077" y1="77.5295" x2="251.7165" y2="77.5295">
		<stop  offset="0" style="stop-color:#FFFFFF"/>
		<stop  offset="0.1688" style="stop-color:#B1B4B5"/>
		<stop  offset="0.4086" style="stop-color:#E0E0DF"/>
		<stop  offset="0.7581" style="stop-color:#B1B4B5"/>
		<stop  offset="1" style="stop-color:#C2C2C2"/>
	</linearGradient>
	<rect id="XMLID_8979_" x="209.7" y="40.2" fill="url(#XMLID_485_)" width="42" height="74.7"/>
</g>
<g id="XMLID_8950_">
	<rect id="XMLID_8952_" x="252.2" y="38.7" fill="#030000" width="43.1" height="77.5"/>
	<linearGradient id="XMLID_486_" gradientUnits="userSpaceOnUse" x1="252.7616" y1="77.5295" x2="294.7704" y2="77.5295">
		<stop  offset="0" style="stop-color:#FFFFFF"/>
		<stop  offset="0.1688" style="stop-color:#B1B4B5"/>
		<stop  offset="0.4086" style="stop-color:#E0E0DF"/>
		<stop  offset="0.7581" style="stop-color:#B1B4B5"/>
		<stop  offset="1" style="stop-color:#C2C2C2"/>
	</linearGradient>
	<rect id="XMLID_8951_" x="252.8" y="40.2" fill="url(#XMLID_486_)" width="42" height="74.7"/>
</g>
<g id="XMLID_8922_">
	<rect id="XMLID_8924_" x="295.3" y="38.7" fill="#030000" width="43.1" height="77.5"/>
	<linearGradient id="XMLID_487_" gradientUnits="userSpaceOnUse" x1="295.8155" y1="77.5295" x2="337.8243" y2="77.5295">
		<stop  offset="0" style="stop-color:#FFFFFF"/>
		<stop  offset="0.1688" style="stop-color:#B1B4B5"/>
		<stop  offset="0.4086" style="stop-color:#E0E0DF"/>
		<stop  offset="0.7581" style="stop-color:#B1B4B5"/>
		<stop  offset="1" style="stop-color:#C2C2C2"/>
	</linearGradient>
	<rect id="XMLID_8923_" x="295.8" y="40.2" fill="url(#XMLID_487_)" width="42" height="74.7"/>
</g>
<rect id="XMLID_8849_" x="79.8" y="24.5" fill-rule="evenodd" clip-rule="evenodd" fill="#4272C1" width="257.8" height="7.9"/>
<radialGradient id="XMLID_495_" cx="-346.7053" cy="-335.0479" r="2.531" gradientTransform="matrix(1 0 0 1 436.9473 363.4464)" gradientUnits="userSpaceOnUse">
	<stop  offset="0" style="stop-color:#FFFFFF"/>
	<stop  offset="1" style="stop-color:#8DC21F"/>
</radialGradient>
<circle id="XMLID_8848_" fill="url(#XMLID_495_)" stroke="#030000" stroke-width="0.5" stroke-miterlimit="10" cx="90.2" cy="28.4" r="2.5"/>
<radialGradient id="XMLID_496_" cx="-325.8932" cy="-335.0479" r="2.531" gradientTransform="matrix(1 0 0 1 436.9473 363.4464)" gradientUnits="userSpaceOnUse">
	<stop  offset="0" style="stop-color:#FFFFFF"/>
	<stop  offset="1" style="stop-color:#8DC21F"/>
</radialGradient>
<circle id="XMLID_8847_" fill="url(#XMLID_496_)" stroke="#030000" stroke-width="0.5" stroke-miterlimit="10" cx="111.1" cy="28.4" r="2.5"/>
<radialGradient id="XMLID_497_" cx="-303.4749" cy="-335.0479" r="2.531" gradientTransform="matrix(1 0 0 1 436.9473 363.4464)" gradientUnits="userSpaceOnUse">
	<stop  offset="0" style="stop-color:#FFFFFF"/>
	<stop  offset="1" style="stop-color:#8DC21F"/>
</radialGradient>
<circle id="XMLID_8846_" fill="url(#XMLID_497_)" stroke="#030000" stroke-width="0.5" stroke-miterlimit="10" cx="133.5" cy="28.4" r="2.5"/>
<radialGradient id="XMLID_498_" cx="-282.6628" cy="-335.0479" r="2.531" gradientTransform="matrix(1 0 0 1 436.9473 363.4464)" gradientUnits="userSpaceOnUse">
	<stop  offset="0" style="stop-color:#FFFFFF"/>
	<stop  offset="1" style="stop-color:#8DC21F"/>
</radialGradient>
<circle id="XMLID_8845_" fill="url(#XMLID_498_)" stroke="#030000" stroke-width="0.5" stroke-miterlimit="10" cx="154.3" cy="28.4" r="2.5"/>
<radialGradient id="XMLID_499_" cx="-260.2445" cy="-335.0479" r="2.531" gradientTransform="matrix(1 0 0 1 436.9473 363.4464)" gradientUnits="userSpaceOnUse">
	<stop  offset="0" style="stop-color:#FFFFFF"/>
	<stop  offset="1" style="stop-color:#8DC21F"/>
</radialGradient>
<circle id="XMLID_8844_" fill="url(#XMLID_499_)" stroke="#030000" stroke-width="0.5" stroke-miterlimit="10" cx="176.7" cy="28.4" r="2.5"/>
<radialGradient id="XMLID_500_" cx="-239.4324" cy="-335.0479" r="2.531" gradientTransform="matrix(1 0 0 1 436.9473 363.4464)" gradientUnits="userSpaceOnUse">
	<stop  offset="0" style="stop-color:#FFFFFF"/>
	<stop  offset="1" style="stop-color:#8DC21F"/>
</radialGradient>
<circle id="XMLID_8843_" fill="url(#XMLID_500_)" stroke="#030000" stroke-width="0.5" stroke-miterlimit="10" cx="197.5" cy="28.4" r="2.5"/>
<radialGradient id="XMLID_501_" cx="-217.0141" cy="-335.0479" r="2.531" gradientTransform="matrix(1 0 0 1 436.9473 363.4464)" gradientUnits="userSpaceOnUse">
	<stop  offset="0" style="stop-color:#FFFFFF"/>
	<stop  offset="1" style="stop-color:#8DC21F"/>
</radialGradient>
<circle id="XMLID_8842_" fill="url(#XMLID_501_)" stroke="#030000" stroke-width="0.5" stroke-miterlimit="10" cx="219.9" cy="28.4" r="2.5"/>
<radialGradient id="XMLID_502_" cx="-196.202" cy="-335.0479" r="2.531" gradientTransform="matrix(1 0 0 1 436.9473 363.4464)" gradientUnits="userSpaceOnUse">
	<stop  offset="0" style="stop-color:#FFFFFF"/>
	<stop  offset="1" style="stop-color:#8DC21F"/>
</radialGradient>
<circle id="XMLID_8841_" fill="url(#XMLID_502_)" stroke="#030000" stroke-width="0.5" stroke-miterlimit="10" cx="240.7" cy="28.4" r="2.5"/>
<radialGradient id="XMLID_503_" cx="-173.7837" cy="-335.0479" r="2.531" gradientTransform="matrix(1 0 0 1 436.9473 363.4464)" gradientUnits="userSpaceOnUse">
	<stop  offset="0" style="stop-color:#FFFFFF"/>
	<stop  offset="1" style="stop-color:#8DC21F"/>
</radialGradient>
<circle id="XMLID_8840_" fill="url(#XMLID_503_)" stroke="#030000" stroke-width="0.5" stroke-miterlimit="10" cx="263.2" cy="28.4" r="2.5"/>
<radialGradient id="XMLID_504_" cx="-152.9716" cy="-335.0479" r="2.531" gradientTransform="matrix(1 0 0 1 436.9473 363.4464)" gradientUnits="userSpaceOnUse">
	<stop  offset="0" style="stop-color:#FFFFFF"/>
	<stop  offset="1" style="stop-color:#8DC21F"/>
</radialGradient>
<circle id="XMLID_8839_" fill="url(#XMLID_504_)" stroke="#030000" stroke-width="0.5" stroke-miterlimit="10" cx="284" cy="28.4" r="2.5"/>
<radialGradient id="XMLID_505_" cx="-130.5533" cy="-335.0479" r="2.531" gradientTransform="matrix(1 0 0 1 436.9473 363.4464)" gradientUnits="userSpaceOnUse">
	<stop  offset="0" style="stop-color:#FFFFFF"/>
	<stop  offset="1" style="stop-color:#8DC21F"/>
</radialGradient>
<circle id="XMLID_8838_" fill="url(#XMLID_505_)" stroke="#030000" stroke-width="0.5" stroke-miterlimit="10" cx="306.4" cy="28.4" r="2.5"/>
<radialGradient id="XMLID_506_" cx="-109.7412" cy="-335.0479" r="2.531" gradientTransform="matrix(1 0 0 1 436.9473 363.4464)" gradientUnits="userSpaceOnUse">
	<stop  offset="0" style="stop-color:#FFFFFF"/>
	<stop  offset="1" style="stop-color:#8DC21F"/>
</radialGradient>
<circle id="XMLID_8837_" fill="url(#XMLID_506_)" stroke="#030000" stroke-width="0.5" stroke-miterlimit="10" cx="327.2" cy="28.4" r="2.5"/>
<g id="XMLID_8834_">
	<rect id="XMLID_8836_" x="344.2" y="38.7" fill="#030000" width="43.1" height="77.5"/>
	<linearGradient id="XMLID_507_" gradientUnits="userSpaceOnUse" x1="344.7603" y1="77.5295" x2="386.7691" y2="77.5295">
		<stop  offset="0" style="stop-color:#FFFFFF"/>
		<stop  offset="0.1688" style="stop-color:#B1B4B5"/>
		<stop  offset="0.4086" style="stop-color:#E0E0DF"/>
		<stop  offset="0.7581" style="stop-color:#B1B4B5"/>
		<stop  offset="1" style="stop-color:#C2C2C2"/>
	</linearGradient>
	<rect id="XMLID_8835_" x="344.8" y="40.2" fill="url(#XMLID_507_)" width="42" height="74.7"/>
</g>
<g id="XMLID_8806_">
	<rect id="XMLID_8808_" x="387.3" y="38.7" fill="#030000" width="43.1" height="77.5"/>
	<linearGradient id="XMLID_508_" gradientUnits="userSpaceOnUse" x1="387.8142" y1="77.5295" x2="429.823" y2="77.5295">
		<stop  offset="0" style="stop-color:#FFFFFF"/>
		<stop  offset="0.1688" style="stop-color:#B1B4B5"/>
		<stop  offset="0.4086" style="stop-color:#E0E0DF"/>
		<stop  offset="0.7581" style="stop-color:#B1B4B5"/>
		<stop  offset="1" style="stop-color:#C2C2C2"/>
	</linearGradient>
	<rect id="XMLID_8807_" x="387.8" y="40.2" fill="url(#XMLID_508_)" width="42" height="74.7"/>
</g>
<g id="XMLID_8778_">
	<rect id="XMLID_8780_" x="430.3" y="38.7" fill="#030000" width="43.1" height="77.5"/>
	<linearGradient id="XMLID_509_" gradientUnits="userSpaceOnUse" x1="430.8681" y1="77.5295" x2="472.8769" y2="77.5295">
		<stop  offset="0" style="stop-color:#FFFFFF"/>
		<stop  offset="0.1688" style="stop-color:#B1B4B5"/>
		<stop  offset="0.4086" style="stop-color:#E0E0DF"/>
		<stop  offset="0.7581" style="stop-color:#B1B4B5"/>
		<stop  offset="1" style="stop-color:#C2C2C2"/>
	</linearGradient>
	<rect id="XMLID_8779_" x="430.9" y="40.2" fill="url(#XMLID_509_)" width="42" height="74.7"/>
</g>
<g id="XMLID_8750_">
	<rect id="XMLID_8752_" x="473.4" y="38.7" fill="#030000" width="43.1" height="77.5"/>
	<linearGradient id="XMLID_510_" gradientUnits="userSpaceOnUse" x1="473.922" y1="77.5295" x2="515.9308" y2="77.5295">
		<stop  offset="0" style="stop-color:#FFFFFF"/>
		<stop  offset="0.1688" style="stop-color:#B1B4B5"/>
		<stop  offset="0.4086" style="stop-color:#E0E0DF"/>
		<stop  offset="0.7581" style="stop-color:#B1B4B5"/>
		<stop  offset="1" style="stop-color:#C2C2C2"/>
	</linearGradient>
	<rect id="XMLID_8751_" x="473.9" y="40.2" fill="url(#XMLID_510_)" width="42" height="74.7"/>
</g>
<g id="XMLID_8722_">
	<rect id="XMLID_8724_" x="516.5" y="38.7" fill="#030000" width="43.1" height="77.5"/>
	<linearGradient id="XMLID_511_" gradientUnits="userSpaceOnUse" x1="516.9759" y1="77.5295" x2="558.9847" y2="77.5295">
		<stop  offset="0" style="stop-color:#FFFFFF"/>
		<stop  offset="0.1688" style="stop-color:#B1B4B5"/>
		<stop  offset="0.4086" style="stop-color:#E0E0DF"/>
		<stop  offset="0.7581" style="stop-color:#B1B4B5"/>
		<stop  offset="1" style="stop-color:#C2C2C2"/>
	</linearGradient>
	<rect id="XMLID_8723_" x="517" y="40.2" fill="url(#XMLID_511_)" width="42" height="74.7"/>
</g>
<g id="XMLID_8694_">
	<rect id="XMLID_8696_" x="559.5" y="38.7" fill="#030000" width="43.1" height="77.5"/>
	<linearGradient id="XMLID_515_" gradientUnits="userSpaceOnUse" x1="560.0298" y1="77.5295" x2="602.0386" y2="77.5295">
		<stop  offset="0" style="stop-color:#FFFFFF"/>
		<stop  offset="0.1688" style="stop-color:#B1B4B5"/>
		<stop  offset="0.4086" style="stop-color:#E0E0DF"/>
		<stop  offset="0.7581" style="stop-color:#B1B4B5"/>
		<stop  offset="1" style="stop-color:#C2C2C2"/>
	</linearGradient>
	<rect id="XMLID_8695_" x="560" y="40.2" fill="url(#XMLID_515_)" width="42" height="74.7"/>
</g>
<g id="XMLID_7375_">
	<rect id="XMLID_7377_" x="1178.2" y="31.5" fill="#030000" width="43.1" height="77.5"/>
	<linearGradient id="XMLID_516_" gradientUnits="userSpaceOnUse" x1="1178.7444" y1="70.3424" x2="1220.7532" y2="70.3424">
		<stop  offset="0" style="stop-color:#FFFFFF"/>
		<stop  offset="0.1688" style="stop-color:#B1B4B5"/>
		<stop  offset="0.4086" style="stop-color:#E0E0DF"/>
		<stop  offset="0.7581" style="stop-color:#B1B4B5"/>
		<stop  offset="1" style="stop-color:#C2C2C2"/>
	</linearGradient>
	<rect id="XMLID_7376_" x="1178.7" y="33" fill="url(#XMLID_516_)" width="42" height="74.7"/>
</g>
<g id="XMLID_7403_">
	<rect id="XMLID_7405_" x="1248" y="31.5" fill="#030000" width="43.1" height="77.5"/>
	<linearGradient id="XMLID_517_" gradientUnits="userSpaceOnUse" x1="1248.5688" y1="70.3424" x2="1290.5776" y2="70.3424">
		<stop  offset="0" style="stop-color:#FFFFFF"/>
		<stop  offset="0.1688" style="stop-color:#B1B4B5"/>
		<stop  offset="0.4086" style="stop-color:#E0E0DF"/>
		<stop  offset="0.7581" style="stop-color:#B1B4B5"/>
		<stop  offset="1" style="stop-color:#C2C2C2"/>
	</linearGradient>
	<rect id="XMLID_7404_" x="1248.6" y="33" fill="url(#XMLID_517_)" width="42" height="74.7"/>
</g>
<rect id="XMLID_8668_" x="344" y="24.5" fill-rule="evenodd" clip-rule="evenodd" fill="#4272C1" width="257.8" height="7.9"/>
<radialGradient id="XMLID_518_" cx="-82.491" cy="-335.0479" r="2.531" gradientTransform="matrix(1 0 0 1 436.9473 363.4464)" gradientUnits="userSpaceOnUse">
	<stop  offset="0" style="stop-color:#FFFFFF"/>
	<stop  offset="1" style="stop-color:#8DC21F"/>
</radialGradient>
<circle id="XMLID_8667_" fill="url(#XMLID_518_)" stroke="#030000" stroke-width="0.5" stroke-miterlimit="10" cx="354.5" cy="28.4" r="2.5"/>
<radialGradient id="XMLID_519_" cx="-61.6789" cy="-335.0479" r="2.531" gradientTransform="matrix(1 0 0 1 436.9473 363.4464)" gradientUnits="userSpaceOnUse">
	<stop  offset="0" style="stop-color:#FFFFFF"/>
	<stop  offset="1" style="stop-color:#8DC21F"/>
</radialGradient>
<circle id="XMLID_8666_" fill="url(#XMLID_519_)" stroke="#030000" stroke-width="0.5" stroke-miterlimit="10" cx="375.3" cy="28.4" r="2.5"/>
<radialGradient id="XMLID_520_" cx="-39.2606" cy="-335.0479" r="2.531" gradientTransform="matrix(1 0 0 1 436.9473 363.4464)" gradientUnits="userSpaceOnUse">
	<stop  offset="0" style="stop-color:#FFFFFF"/>
	<stop  offset="1" style="stop-color:#8DC21F"/>
</radialGradient>
<circle id="XMLID_8665_" fill="url(#XMLID_520_)" stroke="#030000" stroke-width="0.5" stroke-miterlimit="10" cx="397.7" cy="28.4" r="2.5"/>
<radialGradient id="XMLID_521_" cx="-18.4485" cy="-335.0479" r="2.531" gradientTransform="matrix(1 0 0 1 436.9473 363.4464)" gradientUnits="userSpaceOnUse">
	<stop  offset="0" style="stop-color:#FFFFFF"/>
	<stop  offset="1" style="stop-color:#8DC21F"/>
</radialGradient>
<circle id="XMLID_8664_" fill="url(#XMLID_521_)" stroke="#030000" stroke-width="0.5" stroke-miterlimit="10" cx="418.5" cy="28.4" r="2.5"/>
<radialGradient id="XMLID_531_" cx="3.9698" cy="-335.0479" r="2.531" gradientTransform="matrix(1 0 0 1 436.9473 363.4464)" gradientUnits="userSpaceOnUse">
	<stop  offset="0" style="stop-color:#FFFFFF"/>
	<stop  offset="1" style="stop-color:#8DC21F"/>
</radialGradient>
<circle id="XMLID_8663_" fill="url(#XMLID_531_)" stroke="#030000" stroke-width="0.5" stroke-miterlimit="10" cx="440.9" cy="28.4" r="2.5"/>
<radialGradient id="XMLID_532_" cx="24.7819" cy="-335.0479" r="2.531" gradientTransform="matrix(1 0 0 1 436.9473 363.4464)" gradientUnits="userSpaceOnUse">
	<stop  offset="0" style="stop-color:#FFFFFF"/>
	<stop  offset="1" style="stop-color:#8DC21F"/>
</radialGradient>
<circle id="XMLID_8662_" fill="url(#XMLID_532_)" stroke="#030000" stroke-width="0.5" stroke-miterlimit="10" cx="461.7" cy="28.4" r="2.5"/>
<radialGradient id="XMLID_533_" cx="47.2002" cy="-335.0479" r="2.531" gradientTransform="matrix(1 0 0 1 436.9473 363.4464)" gradientUnits="userSpaceOnUse">
	<stop  offset="0" style="stop-color:#FFFFFF"/>
	<stop  offset="1" style="stop-color:#8DC21F"/>
</radialGradient>
<circle id="XMLID_8661_" fill="url(#XMLID_533_)" stroke="#030000" stroke-width="0.5" stroke-miterlimit="10" cx="484.1" cy="28.4" r="2.5"/>
<radialGradient id="XMLID_534_" cx="68.0123" cy="-335.0479" r="2.531" gradientTransform="matrix(1 0 0 1 436.9473 363.4464)" gradientUnits="userSpaceOnUse">
	<stop  offset="0" style="stop-color:#FFFFFF"/>
	<stop  offset="1" style="stop-color:#8DC21F"/>
</radialGradient>
<circle id="XMLID_8660_" fill="url(#XMLID_534_)" stroke="#030000" stroke-width="0.5" stroke-miterlimit="10" cx="505" cy="28.4" r="2.5"/>
<radialGradient id="XMLID_1959_" cx="90.4306" cy="-335.0479" r="2.531" gradientTransform="matrix(1 0 0 1 436.9473 363.4464)" gradientUnits="userSpaceOnUse">
	<stop  offset="0" style="stop-color:#FFFFFF"/>
	<stop  offset="1" style="stop-color:#8DC21F"/>
</radialGradient>
<circle id="XMLID_8659_" fill="url(#XMLID_1959_)" stroke="#030000" stroke-width="0.5" stroke-miterlimit="10" cx="527.4" cy="28.4" r="2.5"/>
<radialGradient id="XMLID_2080_" cx="111.2427" cy="-335.0479" r="2.531" gradientTransform="matrix(1 0 0 1 436.9473 363.4464)" gradientUnits="userSpaceOnUse">
	<stop  offset="0" style="stop-color:#FFFFFF"/>
	<stop  offset="1" style="stop-color:#8DC21F"/>
</radialGradient>
<circle id="XMLID_8658_" fill="url(#XMLID_2080_)" stroke="#030000" stroke-width="0.5" stroke-miterlimit="10" cx="548.2" cy="28.4" r="2.5"/>
<radialGradient id="XMLID_2081_" cx="133.661" cy="-335.0479" r="2.531" gradientTransform="matrix(1 0 0 1 436.9473 363.4464)" gradientUnits="userSpaceOnUse">
	<stop  offset="0" style="stop-color:#FFFFFF"/>
	<stop  offset="1" style="stop-color:#8DC21F"/>
</radialGradient>
<circle id="XMLID_8657_" fill="url(#XMLID_2081_)" stroke="#030000" stroke-width="0.5" stroke-miterlimit="10" cx="570.6" cy="28.4" r="2.5"/>
<radialGradient id="XMLID_2083_" cx="154.4731" cy="-335.0479" r="2.531" gradientTransform="matrix(1 0 0 1 436.9473 363.4464)" gradientUnits="userSpaceOnUse">
	<stop  offset="0" style="stop-color:#FFFFFF"/>
	<stop  offset="1" style="stop-color:#8DC21F"/>
</radialGradient>
<circle id="XMLID_8656_" fill="url(#XMLID_2083_)" stroke="#030000" stroke-width="0.5" stroke-miterlimit="10" cx="591.4" cy="28.4" r="2.5"/>
<g id="XMLID_7002_">
	<rect id="XMLID_8203_" x="1301.9" y="72.4" fill="#1B1D20" width="18.1" height="35.6"/>
	<rect id="XMLID_8202_" x="1301.9" y="96.5" fill="#ABABAE" width="2.1" height="7.5"/>
	<rect id="XMLID_8201_" x="1301.9" y="76.3" fill="#ABABAE" width="2.1" height="7.5"/>
	<rect id="XMLID_7351_" x="1306.7" y="76.5" fill="#5A5B55" width="3" height="27.3"/>
	<rect id="XMLID_7350_" x="1307.3" y="106.6" fill="#ABABAE" width="7.3" height="1.4"/>
	<rect id="XMLID_7348_" x="1307.3" y="72.4" fill="#ABABAE" width="7.3" height="1.4"/>
	<rect id="XMLID_7169_" x="1317.7" y="76" fill="#ABABAE" width="2.3" height="28.4"/>
</g>
<polygon id="XMLID_2190_" fill="#050001" points="1135.5,103.3 1140.1,100.6 1144.8,103.3 1144.8,108.6 1140.1,111.3 1135.5,108.6 
	"/>
<polygon id="XMLID_7389_" fill="#050001" points="1135.5,89 1140.1,86.3 1144.8,89 1144.8,94.3 1140.1,97 1135.5,94.3 "/>
<polygon id="XMLID_7390_" fill="#050001" points="1135.5,74.7 1140.1,72 1144.8,74.7 1144.8,80 1140.1,82.7 1135.5,80 "/>
<polygon id="XMLID_7391_" fill="#050001" points="1135.5,60.4 1140.1,57.7 1144.8,60.4 1144.8,65.8 1140.1,68.4 1135.5,65.8 "/>
<polygon id="XMLID_7392_" fill="#050001" points="1135.5,46.1 1140.1,43.4 1144.8,46.1 1144.8,51.5 1140.1,54.1 1135.5,51.5 "/>
<polygon id="XMLID_7393_" fill="#050001" points="1135.5,31.8 1140.1,29.1 1144.8,31.8 1144.8,37.2 1140.1,39.9 1135.5,37.2 "/>
<polygon id="XMLID_7394_" fill="#050001" points="1135.5,17.5 1140.1,14.8 1144.8,17.5 1144.8,22.9 1140.1,25.6 1135.5,22.9 "/>
<polygon id="XMLID_7388_" fill="#050001" points="591.4,10.6 596.1,7.9 600.7,10.6 600.7,15.9 596.1,18.6 591.4,15.9 "/>
<polygon id="XMLID_7412_" fill="#050001" points="573.1,10.6 577.8,7.9 582.4,10.6 582.4,15.9 577.8,18.6 573.1,15.9 "/>
<polygon id="XMLID_7413_" fill="#050001" points="554.9,10.6 559.5,7.9 564.2,10.6 564.2,15.9 559.5,18.6 554.9,15.9 "/>
<polygon id="XMLID_7414_" fill="#050001" points="536.6,10.6 541.2,7.9 545.9,10.6 545.9,15.9 541.2,18.6 536.6,15.9 "/>
<polygon id="XMLID_7415_" fill="#050001" points="518.3,10.6 522.9,7.9 527.6,10.6 527.6,15.9 522.9,18.6 518.3,15.9 "/>
<polygon id="XMLID_7416_" fill="#050001" points="500,10.6 504.7,7.9 509.3,10.6 509.3,15.9 504.7,18.6 500,15.9 "/>
<polygon id="XMLID_7417_" fill="#050001" points="481.7,10.6 486.4,7.9 491,10.6 491,15.9 486.4,18.6 481.7,15.9 "/>
<polygon id="XMLID_7418_" fill="#050001" points="463.5,10.6 468.1,7.9 472.7,10.6 472.7,15.9 468.1,18.6 463.5,15.9 "/>
<polygon id="XMLID_7419_" fill="#050001" points="445.2,10.6 449.8,7.9 454.5,10.6 454.5,15.9 449.8,18.6 445.2,15.9 "/>
<polygon id="XMLID_7420_" fill="#050001" points="426.9,10.6 431.5,7.9 436.2,10.6 436.2,15.9 431.5,18.6 426.9,15.9 "/>
<polygon id="XMLID_7421_" fill="#050001" points="408.6,10.6 413.3,7.9 417.9,10.6 417.9,15.9 413.3,18.6 408.6,15.9 "/>
<polygon id="XMLID_7422_" fill="#050001" points="390.3,10.6 395,7.9 399.6,10.6 399.6,15.9 395,18.6 390.3,15.9 "/>
<polygon id="XMLID_7423_" fill="#050001" points="372,10.6 376.7,7.9 381.3,10.6 381.3,15.9 376.7,18.6 372,15.9 "/>
<polygon id="XMLID_7424_" fill="#050001" points="353.8,10.6 358.4,7.9 363.1,10.6 363.1,15.9 358.4,18.6 353.8,15.9 "/>
<polygon id="XMLID_7425_" fill="#050001" points="335.5,10.6 340.1,7.9 344.8,10.6 344.8,15.9 340.1,18.6 335.5,15.9 "/>
<polygon id="XMLID_7426_" fill="#050001" points="317.2,10.6 321.8,7.9 326.5,10.6 326.5,15.9 321.8,18.6 317.2,15.9 "/>
<polygon id="XMLID_7427_" fill="#050001" points="298.9,10.6 303.6,7.9 308.2,10.6 308.2,15.9 303.6,18.6 298.9,15.9 "/>
<polygon id="XMLID_7428_" fill="#050001" points="280.6,10.6 285.3,7.9 289.9,10.6 289.9,15.9 285.3,18.6 280.6,15.9 "/>
<polygon id="XMLID_7429_" fill="#050001" points="262.4,10.6 267,7.9 271.6,10.6 271.6,15.9 267,18.6 262.4,15.9 "/>
<polygon id="XMLID_7430_" fill="#050001" points="244.1,10.6 248.7,7.9 253.4,10.6 253.4,15.9 248.7,18.6 244.1,15.9 "/>
<polygon id="XMLID_7431_" fill="#050001" points="225.8,10.6 230.4,7.9 235.1,10.6 235.1,15.9 230.4,18.6 225.8,15.9 "/>
<polygon id="XMLID_7432_" fill="#050001" points="207.5,10.6 212.2,7.9 216.8,10.6 216.8,15.9 212.2,18.6 207.5,15.9 "/>
<polygon id="XMLID_7433_" fill="#050001" points="189.2,10.6 193.9,7.9 198.5,10.6 198.5,15.9 193.9,18.6 189.2,15.9 "/>
<polygon id="XMLID_7434_" fill="#050001" points="170.9,10.6 175.6,7.9 180.2,10.6 180.2,15.9 175.6,18.6 170.9,15.9 "/>
<polygon id="XMLID_7435_" fill="#050001" points="152.7,10.6 157.3,7.9 162,10.6 162,15.9 157.3,18.6 152.7,15.9 "/>
<polygon id="XMLID_7436_" fill="#050001" points="134.4,10.6 139,7.9 143.7,10.6 143.7,15.9 139,18.6 134.4,15.9 "/>
<polygon id="XMLID_7437_" fill="#050001" points="116.1,10.6 120.8,7.9 125.4,10.6 125.4,15.9 120.8,18.6 116.1,15.9 "/>
<polygon id="XMLID_7438_" fill="#050001" points="97.8,10.6 102.5,7.9 107.1,10.6 107.1,15.9 102.5,18.6 97.8,15.9 "/>
<polygon id="XMLID_7439_" fill="#050001" points="79.5,10.6 84.2,7.9 88.8,10.6 88.8,15.9 84.2,18.6 79.5,15.9 "/>
<polygon id="XMLID_7401_" fill="#050001" points="1152.9,103.3 1157.5,100.6 1162.2,103.3 1162.2,108.6 1157.5,111.3 1152.9,108.6 
	"/>
<polygon id="XMLID_7400_" fill="#050001" points="1152.9,89 1157.5,86.3 1162.2,89 1162.2,94.3 1157.5,97 1152.9,94.3 "/>
<polygon id="XMLID_7399_" fill="#050001" points="1152.9,74.7 1157.5,72 1162.2,74.7 1162.2,80 1157.5,82.7 1152.9,80 "/>
<polygon id="XMLID_7398_" fill="#050001" points="1152.9,60.4 1157.5,57.7 1162.2,60.4 1162.2,65.8 1157.5,68.4 1152.9,65.8 "/>
<polygon id="XMLID_7397_" fill="#050001" points="1152.9,46.1 1157.5,43.4 1162.2,46.1 1162.2,51.5 1157.5,54.1 1152.9,51.5 "/>
<polygon id="XMLID_7396_" fill="#050001" points="1152.9,31.8 1157.5,29.1 1162.2,31.8 1162.2,37.2 1157.5,39.9 1152.9,37.2 "/>
<polygon id="XMLID_7395_" fill="#050001" points="1152.9,17.5 1157.5,14.8 1162.2,17.5 1162.2,22.9 1157.5,25.6 1152.9,22.9 "/>
<polygon id="XMLID_7402_" fill="#050001" points="1170,17.5 1174.6,14.8 1179.3,17.5 1179.3,22.9 1174.6,25.6 1170,22.9 "/>
<polygon id="XMLID_7406_" fill="#050001" points="1187.1,17.5 1191.7,14.8 1196.4,17.5 1196.4,22.9 1191.7,25.6 1187.1,22.9 "/>
<polygon id="XMLID_7407_" fill="#050001" points="1204.2,17.5 1208.9,14.8 1213.5,17.5 1213.5,22.9 1208.9,25.6 1204.2,22.9 "/>
<polygon id="XMLID_7408_" fill="#050001" points="1221.3,17.5 1226,14.8 1230.6,17.5 1230.6,22.9 1226,25.6 1221.3,22.9 "/>
<polygon id="XMLID_7409_" fill="#050001" points="1238.4,17.5 1243.1,14.8 1247.7,17.5 1247.7,22.9 1243.1,25.6 1238.4,22.9 "/>
<polygon id="XMLID_7410_" fill="#050001" points="1255.5,17.5 1260.2,14.8 1264.8,17.5 1264.8,22.9 1260.2,25.6 1255.5,22.9 "/>
<polygon id="XMLID_7411_" fill="#050001" points="1272.6,17.5 1277.3,14.8 1281.9,17.5 1281.9,22.9 1277.3,25.6 1272.6,22.9 "/>
</svg>
