<?xml version="1.0" encoding="utf-8"?>
<!-- Generator: Adobe Illustrator 21.0.0, SVG Export Plug-In . SVG Version: 6.00 Build 0)  -->
<svg version="1.1" id="图层_1" xmlns="http://www.w3.org/2000/svg" xmlns:xlink="http://www.w3.org/1999/xlink" x="0px" y="0px"
	 width="1275.6px" height="126.1px" viewBox="0 0 1275.6 126.1" enable-background="new 0 0 1275.6 126.1" xml:space="preserve">
<g id="XMLID_24304_">
	<rect id="XMLID_24332_" x="1" y="1" fill="#3A3A3A" width="1273.6" height="124.1"/>
	<g id="XMLID_24328_">
		<path id="XMLID_24329_" fill="#050505" d="M1273.6,2v122.1H2V2H1273.6 M1275.6,0H0v126.1h1275.6V0L1275.6,0z"/>
	</g>
</g>
<g id="XMLID_24303_">
	<rect id="XMLID_24417_" x="5.7" y="5.6" fill="#3A3A3A" width="1264.3" height="115"/>
	<g id="XMLID_24413_">
		<path id="XMLID_24414_" fill="#050505" d="M1268.9,6.6v113H6.7V6.6H1268.9 M1270.9,4.6H4.7v117h1266.3V4.6L1270.9,4.6z"/>
	</g>
</g>
<g id="XMLID_24306_">
	<path id="XMLID_24353_" fill="#414244" d="M1237.6,102h-27c-3.7,0-7-2.6-7.7-6.3l-1.8-9.1c-0.6-3.1,2-6,5.3-6h35.3
		c3.3,0,5.9,2.8,5.3,6l-1.8,9.1C1244.6,99.4,1241.3,102,1237.6,102"/>
	<path id="XMLID_24352_" fill="none" stroke="#B9B9B9" stroke-miterlimit="10" d="M1237.6,102h-27c-3.7,0-7-2.6-7.7-6.3l-1.8-9.1
		c-0.6-3.1,2-6,5.3-6h35.3c3.3,0,5.9,2.8,5.3,6l-1.8,9.1C1244.6,99.4,1241.3,102,1237.6,102z"/>
	<path id="XMLID_24351_" d="M1211.6,85.5c0,1.2-1,2.2-2.2,2.2c-1.2,0-2.2-1-2.2-2.2c0-1.2,1-2.2,2.2-2.2
		C1210.6,83.3,1211.6,84.3,1211.6,85.5"/>
	<path id="XMLID_24350_" d="M1218.2,85.5c0,1.2-1,2.2-2.2,2.2c-1.2,0-2.2-1-2.2-2.2c0-1.2,1-2.2,2.2-2.2
		C1217.2,83.3,1218.2,84.3,1218.2,85.5"/>
	<path id="XMLID_24349_" d="M1224.9,85.5c0,1.2-1,2.2-2.2,2.2c-1.2,0-2.2-1-2.2-2.2c0-1.2,1-2.2,2.2-2.2
		C1223.9,83.3,1224.9,84.3,1224.9,85.5"/>
	<path id="XMLID_24348_" d="M1231.6,85.5c0,1.2-1,2.2-2.2,2.2c-1.2,0-2.2-1-2.2-2.2c0-1.2,1-2.2,2.2-2.2
		C1230.6,83.3,1231.6,84.3,1231.6,85.5"/>
	<path id="XMLID_24347_" d="M1238.2,85.5c0,1.2-1,2.2-2.2,2.2c-1.2,0-2.2-1-2.2-2.2c0-1.2,1-2.2,2.2-2.2
		C1237.2,83.3,1238.2,84.3,1238.2,85.5"/>
	<path id="XMLID_24346_" d="M1215.1,91.3c0,1.2-1,2.2-2.2,2.2c-1.2,0-2.2-1-2.2-2.2c0-1.2,1-2.2,2.2-2.2
		C1214.1,89.1,1215.1,90.1,1215.1,91.3"/>
	<path id="XMLID_24345_" d="M1221.8,91.3c0,1.2-1,2.2-2.2,2.2c-1.2,0-2.2-1-2.2-2.2c0-1.2,1-2.2,2.2-2.2
		C1220.8,89.1,1221.8,90.1,1221.8,91.3"/>
	<path id="XMLID_24344_" d="M1228.5,91.3c0,1.2-1,2.2-2.2,2.2c-1.2,0-2.2-1-2.2-2.2c0-1.2,1-2.2,2.2-2.2
		C1227.5,89.1,1228.5,90.1,1228.5,91.3"/>
	<path id="XMLID_24343_" d="M1235.1,91.3c0,1.2-1,2.2-2.2,2.2c-1.2,0-2.2-1-2.2-2.2c0-1.2,1-2.2,2.2-2.2
		C1234.1,89.1,1235.1,90.1,1235.1,91.3"/>
	<path id="XMLID_24342_" d="M1241.8,91.3c0,1.2-1,2.2-2.2,2.2c-1.2,0-2.2-1-2.2-2.2c0-1.2,1-2.2,2.2-2.2
		C1240.8,89.1,1241.8,90.1,1241.8,91.3"/>
	<path id="XMLID_24341_" d="M1210.9,97.2c0,1.2-1,2.2-2.2,2.2c-1.2,0-2.2-1-2.2-2.2c0-1.2,1-2.2,2.2-2.2
		C1209.9,95,1210.9,96,1210.9,97.2"/>
	<path id="XMLID_24340_" d="M1217.6,97.2c0,1.2-1,2.2-2.2,2.2c-1.2,0-2.2-1-2.2-2.2c0-1.2,1-2.2,2.2-2.2
		C1216.6,95,1217.6,96,1217.6,97.2"/>
	<path id="XMLID_24339_" d="M1224.2,97.2c0,1.2-1,2.2-2.2,2.2c-1.2,0-2.2-1-2.2-2.2c0-1.2,1-2.2,2.2-2.2
		C1223.2,95,1224.2,96,1224.2,97.2"/>
	<path id="XMLID_24338_" d="M1230.9,97.2c0,1.2-1,2.2-2.2,2.2c-1.2,0-2.2-1-2.2-2.2c0-1.2,1-2.2,2.2-2.2
		C1229.9,95,1230.9,96,1230.9,97.2"/>
	<path id="XMLID_24337_" d="M1237.5,97.2c0,1.2-1,2.2-2.2,2.2c-1.2,0-2.2-1-2.2-2.2c0-1.2,1-2.2,2.2-2.2
		C1236.5,95,1237.5,96,1237.5,97.2"/>
	<path id="XMLID_24336_" fill="#BDBDBD" d="M1192.7,95.4c-0.5,0-0.9-0.3-1.2-0.7l-1.8-3.1c-0.2-0.4-0.2-0.9,0-1.3l1.8-3.1
		c0.2-0.4,0.7-0.7,1.2-0.7h3.6c0.5,0,0.9,0.3,1.1,0.7l1.8,3.1c0.2,0.4,0.2,0.9,0,1.3l-1.8,3.1c-0.2,0.4-0.7,0.7-1.1,0.7H1192.7z"/>
	<path id="XMLID_24333_" fill="#8F8F8F" d="M1196.3,86.9c0.3,0,0.7,0.2,0.8,0.5l1.8,3.1c0.2,0.3,0.2,0.7,0,1l-1.8,3.1
		c-0.2,0.3-0.5,0.5-0.8,0.5h-3.6c-0.3,0-0.7-0.2-0.8-0.5l-1.8-3.1c-0.2-0.3-0.2-0.7,0-1l1.8-3.1c0.2-0.3,0.5-0.5,0.8-0.5H1196.3
		 M1196.3,86.2h-3.6c-0.6,0-1.2,0.3-1.5,0.9l-1.8,3.1c-0.3,0.5-0.3,1.2,0,1.7l1.8,3.1c0.3,0.5,0.9,0.9,1.5,0.9h3.6
		c0.6,0,1.2-0.3,1.5-0.9l1.8-3.1c0.3-0.5,0.3-1.2,0-1.7l-1.8-3.1C1197.5,86.5,1196.9,86.2,1196.3,86.2"/>
	<path id="XMLID_24320_" fill="#CECECE" d="M1198.1,91c0,2-1.6,3.6-3.6,3.6c-2,0-3.6-1.6-3.6-3.6s1.6-3.6,3.6-3.6
		C1196.5,87.4,1198.1,89,1198.1,91"/>
	
		<ellipse id="XMLID_24319_" fill="none" stroke="#8F8F8F" stroke-width="0.25" stroke-miterlimit="10" cx="1194.5" cy="91" rx="3.6" ry="3.6"/>
	<path id="XMLID_24318_" fill="#414244" d="M1196.8,91c0,1.2-1,2.2-2.2,2.2c-1.2,0-2.2-1-2.2-2.2c0-1.2,1-2.2,2.2-2.2
		C1195.8,88.8,1196.8,89.8,1196.8,91"/>
	
		<ellipse id="XMLID_24317_" fill="none" stroke="#000000" stroke-width="0.25" stroke-miterlimit="10" cx="1194.5" cy="91" rx="2.2" ry="2.2"/>
	<path id="XMLID_24316_" fill="#8F8F8F" d="M1195.2,91c0,0.4-0.3,0.7-0.7,0.7c-0.4,0-0.7-0.3-0.7-0.7c0-0.4,0.3-0.7,0.7-0.7
		C1194.9,90.3,1195.2,90.7,1195.2,91"/>
	<path id="XMLID_24315_" fill="#BDBDBD" d="M1251.9,95.4c-0.5,0-0.9-0.3-1.2-0.7l-1.8-3.1c-0.2-0.4-0.2-0.9,0-1.3l1.8-3.1
		c0.2-0.4,0.7-0.7,1.2-0.7h3.6c0.5,0,0.9,0.3,1.1,0.7l1.8,3.1c0.2,0.4,0.2,0.9,0,1.3l-1.8,3.1c-0.2,0.4-0.7,0.7-1.1,0.7H1251.9z"/>
	<path id="XMLID_24312_" fill="#8F8F8F" d="M1255.5,86.9c0.3,0,0.7,0.2,0.8,0.5l1.8,3.1c0.2,0.3,0.2,0.7,0,1l-1.8,3.1
		c-0.2,0.3-0.5,0.5-0.8,0.5h-3.6c-0.3,0-0.7-0.2-0.8-0.5l-1.8-3.1c-0.2-0.3-0.2-0.7,0-1l1.8-3.1c0.2-0.3,0.5-0.5,0.8-0.5H1255.5
		 M1255.5,86.2h-3.6c-0.6,0-1.2,0.3-1.5,0.9l-1.8,3.1c-0.3,0.5-0.3,1.2,0,1.7l1.8,3.1c0.3,0.5,0.9,0.9,1.5,0.9h3.6
		c0.6,0,1.2-0.3,1.5-0.9l1.8-3.1c0.3-0.5,0.3-1.2,0-1.7L1257,87C1256.7,86.5,1256.1,86.2,1255.5,86.2"/>
	<path id="XMLID_24311_" fill="#CECECE" d="M1257.3,91c0,2-1.6,3.6-3.6,3.6c-2,0-3.6-1.6-3.6-3.6s1.6-3.6,3.6-3.6
		C1255.7,87.4,1257.3,89,1257.3,91"/>
	
		<ellipse id="XMLID_24310_" fill="none" stroke="#8F8F8F" stroke-width="0.25" stroke-miterlimit="10" cx="1253.7" cy="91" rx="3.6" ry="3.6"/>
	<path id="XMLID_24309_" fill="#414244" d="M1256,91c0,1.2-1,2.2-2.2,2.2c-1.2,0-2.2-1-2.2-2.2c0-1.2,1-2.2,2.2-2.2
		C1255,88.8,1256,89.8,1256,91"/>
	
		<ellipse id="XMLID_24308_" fill="none" stroke="#000000" stroke-width="0.25" stroke-miterlimit="10" cx="1253.7" cy="91" rx="2.2" ry="2.2"/>
	<path id="XMLID_24307_" fill="#8F8F8F" d="M1254.4,91c0,0.4-0.3,0.7-0.7,0.7c-0.4,0-0.7-0.3-0.7-0.7c0-0.4,0.3-0.7,0.7-0.7
		C1254.1,90.3,1254.4,90.7,1254.4,91"/>
</g>
<g id="XMLID_23766_">
	<path id="XMLID_23916_" fill="#414244" d="M1132.2,102h-27c-3.7,0-7-2.6-7.7-6.3l-1.8-9.1c-0.6-3.1,2-6,5.3-6h35.3
		c3.3,0,5.9,2.8,5.3,6l-1.8,9.1C1139.2,99.4,1135.9,102,1132.2,102"/>
	<path id="XMLID_23915_" fill="none" stroke="#B9B9B9" stroke-miterlimit="10" d="M1132.2,102h-27c-3.7,0-7-2.6-7.7-6.3l-1.8-9.1
		c-0.6-3.1,2-6,5.3-6h35.3c3.3,0,5.9,2.8,5.3,6l-1.8,9.1C1139.2,99.4,1135.9,102,1132.2,102z"/>
	<path id="XMLID_23914_" d="M1106.2,85.5c0,1.2-1,2.2-2.2,2.2c-1.2,0-2.2-1-2.2-2.2c0-1.2,1-2.2,2.2-2.2
		C1105.2,83.3,1106.2,84.3,1106.2,85.5"/>
	<path id="XMLID_23913_" d="M1112.8,85.5c0,1.2-1,2.2-2.2,2.2s-2.2-1-2.2-2.2c0-1.2,1-2.2,2.2-2.2S1112.8,84.3,1112.8,85.5"/>
	<path id="XMLID_23912_" d="M1119.5,85.5c0,1.2-1,2.2-2.2,2.2c-1.2,0-2.2-1-2.2-2.2c0-1.2,1-2.2,2.2-2.2
		C1118.5,83.3,1119.5,84.3,1119.5,85.5"/>
	<path id="XMLID_23911_" d="M1126.1,85.5c0,1.2-1,2.2-2.2,2.2c-1.2,0-2.2-1-2.2-2.2c0-1.2,1-2.2,2.2-2.2
		C1125.2,83.3,1126.1,84.3,1126.1,85.5"/>
	<path id="XMLID_23910_" d="M1132.8,85.5c0,1.2-1,2.2-2.2,2.2c-1.2,0-2.2-1-2.2-2.2c0-1.2,1-2.2,2.2-2.2
		C1131.8,83.3,1132.8,84.3,1132.8,85.5"/>
	<path id="XMLID_23795_" d="M1109.7,91.3c0,1.2-1,2.2-2.2,2.2c-1.2,0-2.2-1-2.2-2.2c0-1.2,1-2.2,2.2-2.2
		C1108.7,89.1,1109.7,90.1,1109.7,91.3"/>
	<path id="XMLID_23794_" d="M1116.4,91.3c0,1.2-1,2.2-2.2,2.2c-1.2,0-2.2-1-2.2-2.2c0-1.2,1-2.2,2.2-2.2
		C1115.4,89.1,1116.4,90.1,1116.4,91.3"/>
	<path id="XMLID_23793_" d="M1123.1,91.3c0,1.2-1,2.2-2.2,2.2c-1.2,0-2.2-1-2.2-2.2c0-1.2,1-2.2,2.2-2.2
		C1122.1,89.1,1123.1,90.1,1123.1,91.3"/>
	<path id="XMLID_23792_" d="M1129.7,91.3c0,1.2-1,2.2-2.2,2.2c-1.2,0-2.2-1-2.2-2.2c0-1.2,1-2.2,2.2-2.2
		C1128.7,89.1,1129.7,90.1,1129.7,91.3"/>
	<path id="XMLID_23791_" d="M1136.4,91.3c0,1.2-1,2.2-2.2,2.2c-1.2,0-2.2-1-2.2-2.2c0-1.2,1-2.2,2.2-2.2
		C1135.4,89.1,1136.4,90.1,1136.4,91.3"/>
	<path id="XMLID_23790_" d="M1105.5,97.2c0,1.2-1,2.2-2.2,2.2c-1.2,0-2.2-1-2.2-2.2c0-1.2,1-2.2,2.2-2.2
		C1104.5,95,1105.5,96,1105.5,97.2"/>
	<path id="XMLID_23788_" d="M1112.1,97.2c0,1.2-1,2.2-2.2,2.2c-1.2,0-2.2-1-2.2-2.2c0-1.2,1-2.2,2.2-2.2
		C1111.2,95,1112.1,96,1112.1,97.2"/>
	<path id="XMLID_23787_" d="M1118.8,97.2c0,1.2-1,2.2-2.2,2.2c-1.2,0-2.2-1-2.2-2.2c0-1.2,1-2.2,2.2-2.2
		C1117.8,95,1118.8,96,1118.8,97.2"/>
	<path id="XMLID_23786_" d="M1125.5,97.2c0,1.2-1,2.2-2.2,2.2c-1.2,0-2.2-1-2.2-2.2c0-1.2,1-2.2,2.2-2.2
		C1124.5,95,1125.5,96,1125.5,97.2"/>
	<path id="XMLID_23785_" d="M1132.1,97.2c0,1.2-1,2.2-2.2,2.2s-2.2-1-2.2-2.2c0-1.2,1-2.2,2.2-2.2S1132.1,96,1132.1,97.2"/>
	<path id="XMLID_23784_" fill="#BDBDBD" d="M1087.3,95.4c-0.5,0-0.9-0.3-1.2-0.7l-1.8-3.1c-0.2-0.4-0.2-0.9,0-1.3l1.8-3.1
		c0.2-0.4,0.7-0.7,1.2-0.7h3.6c0.5,0,0.9,0.3,1.1,0.7l1.8,3.1c0.2,0.4,0.2,0.9,0,1.3l-1.8,3.1c-0.2,0.4-0.7,0.7-1.1,0.7H1087.3z"/>
	<path id="XMLID_23781_" fill="#8F8F8F" d="M1090.9,86.9c0.3,0,0.7,0.2,0.8,0.5l1.8,3.1c0.2,0.3,0.2,0.7,0,1l-1.8,3.1
		c-0.2,0.3-0.5,0.5-0.8,0.5h-3.6c-0.3,0-0.7-0.2-0.8-0.5l-1.8-3.1c-0.2-0.3-0.2-0.7,0-1l1.8-3.1c0.2-0.3,0.5-0.5,0.8-0.5H1090.9
		 M1090.9,86.2h-3.6c-0.6,0-1.2,0.3-1.5,0.9l-1.8,3.1c-0.3,0.5-0.3,1.2,0,1.7l1.8,3.1c0.3,0.5,0.9,0.9,1.5,0.9h3.6
		c0.6,0,1.2-0.3,1.5-0.9l1.8-3.1c0.3-0.5,0.3-1.2,0-1.7l-1.8-3.1C1092.1,86.5,1091.5,86.2,1090.9,86.2"/>
	<path id="XMLID_23780_" fill="#CECECE" d="M1092.7,91c0,2-1.6,3.6-3.6,3.6c-2,0-3.6-1.6-3.6-3.6s1.6-3.6,3.6-3.6
		C1091.1,87.4,1092.7,89,1092.7,91"/>
	
		<ellipse id="XMLID_23779_" fill="none" stroke="#8F8F8F" stroke-width="0.25" stroke-miterlimit="10" cx="1089.1" cy="91" rx="3.6" ry="3.6"/>
	<path id="XMLID_23778_" fill="#414244" d="M1091.4,91c0,1.2-1,2.2-2.2,2.2c-1.2,0-2.2-1-2.2-2.2c0-1.2,1-2.2,2.2-2.2
		C1090.4,88.8,1091.4,89.8,1091.4,91"/>
	
		<ellipse id="XMLID_23777_" fill="none" stroke="#000000" stroke-width="0.25" stroke-miterlimit="10" cx="1089.1" cy="91" rx="2.2" ry="2.2"/>
	<path id="XMLID_23776_" fill="#8F8F8F" d="M1089.8,91c0,0.4-0.3,0.7-0.7,0.7c-0.4,0-0.7-0.3-0.7-0.7c0-0.4,0.3-0.7,0.7-0.7
		C1089.5,90.3,1089.8,90.7,1089.8,91"/>
	<path id="XMLID_23775_" fill="#BDBDBD" d="M1146.5,95.4c-0.5,0-0.9-0.3-1.2-0.7l-1.8-3.1c-0.2-0.4-0.2-0.9,0-1.3l1.8-3.1
		c0.2-0.4,0.7-0.7,1.2-0.7h3.6c0.5,0,0.9,0.3,1.1,0.7l1.8,3.1c0.2,0.4,0.2,0.9,0,1.3l-1.8,3.1c-0.2,0.4-0.7,0.7-1.1,0.7H1146.5z"/>
	<path id="XMLID_23772_" fill="#8F8F8F" d="M1150.1,86.9c0.3,0,0.7,0.2,0.8,0.5l1.8,3.1c0.2,0.3,0.2,0.7,0,1l-1.8,3.1
		c-0.2,0.3-0.5,0.5-0.8,0.5h-3.6c-0.3,0-0.7-0.2-0.8-0.5l-1.8-3.1c-0.2-0.3-0.2-0.7,0-1l1.8-3.1c0.2-0.3,0.5-0.5,0.8-0.5H1150.1
		 M1150.1,86.2h-3.6c-0.6,0-1.2,0.3-1.5,0.9l-1.8,3.1c-0.3,0.5-0.3,1.2,0,1.7l1.8,3.1c0.3,0.5,0.9,0.9,1.5,0.9h3.6
		c0.6,0,1.2-0.3,1.5-0.9l1.8-3.1c0.3-0.5,0.3-1.2,0-1.7l-1.8-3.1C1151.3,86.5,1150.7,86.2,1150.1,86.2"/>
	<path id="XMLID_23771_" fill="#CECECE" d="M1151.9,91c0,2-1.6,3.6-3.6,3.6c-2,0-3.6-1.6-3.6-3.6s1.6-3.6,3.6-3.6
		C1150.3,87.4,1151.9,89,1151.9,91"/>
	
		<ellipse id="XMLID_23770_" fill="none" stroke="#8F8F8F" stroke-width="0.25" stroke-miterlimit="10" cx="1148.3" cy="91" rx="3.6" ry="3.6"/>
	<path id="XMLID_23769_" fill="#414244" d="M1150.6,91c0,1.2-1,2.2-2.2,2.2c-1.2,0-2.2-1-2.2-2.2c0-1.2,1-2.2,2.2-2.2
		C1149.6,88.8,1150.6,89.8,1150.6,91"/>
	
		<ellipse id="XMLID_23768_" fill="none" stroke="#000000" stroke-width="0.25" stroke-miterlimit="10" cx="1148.3" cy="91" rx="2.2" ry="2.2"/>
	<path id="XMLID_23767_" fill="#8F8F8F" d="M1149,91c0,0.4-0.3,0.7-0.7,0.7c-0.4,0-0.7-0.3-0.7-0.7c0-0.4,0.3-0.7,0.7-0.7
		C1148.7,90.3,1149,90.7,1149,91"/>
</g>
<g id="XMLID_23917_">
	<path id="XMLID_23952_" fill="#414244" d="M1026.8,102h-27c-3.7,0-7-2.6-7.7-6.3l-1.8-9.1c-0.6-3.1,2-6,5.3-6h35.3
		c3.3,0,5.9,2.8,5.3,6l-1.8,9.1C1033.8,99.4,1030.5,102,1026.8,102"/>
	<path id="XMLID_23951_" fill="none" stroke="#B9B9B9" stroke-miterlimit="10" d="M1026.8,102h-27c-3.7,0-7-2.6-7.7-6.3l-1.8-9.1
		c-0.6-3.1,2-6,5.3-6h35.3c3.3,0,5.9,2.8,5.3,6l-1.8,9.1C1033.8,99.4,1030.5,102,1026.8,102z"/>
	<path id="XMLID_23950_" d="M1000.8,85.5c0,1.2-1,2.2-2.2,2.2c-1.2,0-2.2-1-2.2-2.2c0-1.2,1-2.2,2.2-2.2
		C999.8,83.3,1000.8,84.3,1000.8,85.5"/>
	<path id="XMLID_23949_" d="M1007.4,85.5c0,1.2-1,2.2-2.2,2.2c-1.2,0-2.2-1-2.2-2.2c0-1.2,1-2.2,2.2-2.2
		C1006.4,83.3,1007.4,84.3,1007.4,85.5"/>
	<path id="XMLID_23948_" d="M1014.1,85.5c0,1.2-1,2.2-2.2,2.2c-1.2,0-2.2-1-2.2-2.2c0-1.2,1-2.2,2.2-2.2
		C1013.1,83.3,1014.1,84.3,1014.1,85.5"/>
	<path id="XMLID_23947_" d="M1020.7,85.5c0,1.2-1,2.2-2.2,2.2c-1.2,0-2.2-1-2.2-2.2c0-1.2,1-2.2,2.2-2.2
		C1019.8,83.3,1020.7,84.3,1020.7,85.5"/>
	<path id="XMLID_23946_" d="M1027.4,85.5c0,1.2-1,2.2-2.2,2.2c-1.2,0-2.2-1-2.2-2.2c0-1.2,1-2.2,2.2-2.2
		C1026.4,83.3,1027.4,84.3,1027.4,85.5"/>
	<path id="XMLID_23945_" d="M1004.3,91.3c0,1.2-1,2.2-2.2,2.2c-1.2,0-2.2-1-2.2-2.2c0-1.2,1-2.2,2.2-2.2
		C1003.3,89.1,1004.3,90.1,1004.3,91.3"/>
	<path id="XMLID_23944_" d="M1011,91.3c0,1.2-1,2.2-2.2,2.2c-1.2,0-2.2-1-2.2-2.2c0-1.2,1-2.2,2.2-2.2
		C1010,89.1,1011,90.1,1011,91.3"/>
	<path id="XMLID_23943_" d="M1017.6,91.3c0,1.2-1,2.2-2.2,2.2c-1.2,0-2.2-1-2.2-2.2c0-1.2,1-2.2,2.2-2.2
		C1016.7,89.1,1017.6,90.1,1017.6,91.3"/>
	<path id="XMLID_23942_" d="M1024.3,91.3c0,1.2-1,2.2-2.2,2.2c-1.2,0-2.2-1-2.2-2.2c0-1.2,1-2.2,2.2-2.2
		C1023.3,89.1,1024.3,90.1,1024.3,91.3"/>
	<path id="XMLID_23941_" d="M1031,91.3c0,1.2-1,2.2-2.2,2.2c-1.2,0-2.2-1-2.2-2.2c0-1.2,1-2.2,2.2-2.2
		C1030,89.1,1031,90.1,1031,91.3"/>
	<path id="XMLID_23940_" d="M1000.1,97.2c0,1.2-1,2.2-2.2,2.2c-1.2,0-2.2-1-2.2-2.2c0-1.2,1-2.2,2.2-2.2
		C999.1,95,1000.1,96,1000.1,97.2"/>
	<path id="XMLID_23939_" d="M1006.7,97.2c0,1.2-1,2.2-2.2,2.2c-1.2,0-2.2-1-2.2-2.2c0-1.2,1-2.2,2.2-2.2
		C1005.8,95,1006.7,96,1006.7,97.2"/>
	<path id="XMLID_23938_" d="M1013.4,97.2c0,1.2-1,2.2-2.2,2.2c-1.2,0-2.2-1-2.2-2.2c0-1.2,1-2.2,2.2-2.2
		C1012.4,95,1013.4,96,1013.4,97.2"/>
	<path id="XMLID_23937_" d="M1020.1,97.2c0,1.2-1,2.2-2.2,2.2c-1.2,0-2.2-1-2.2-2.2c0-1.2,1-2.2,2.2-2.2
		C1019.1,95,1020.1,96,1020.1,97.2"/>
	<path id="XMLID_23936_" d="M1026.7,97.2c0,1.2-1,2.2-2.2,2.2s-2.2-1-2.2-2.2c0-1.2,1-2.2,2.2-2.2S1026.7,96,1026.7,97.2"/>
	<path id="XMLID_23935_" fill="#BDBDBD" d="M981.9,95.4c-0.5,0-0.9-0.3-1.2-0.7l-1.8-3.1c-0.2-0.4-0.2-0.9,0-1.3l1.8-3.1
		c0.2-0.4,0.7-0.7,1.2-0.7h3.6c0.5,0,0.9,0.3,1.1,0.7l1.8,3.1c0.2,0.4,0.2,0.9,0,1.3l-1.8,3.1c-0.2,0.4-0.7,0.7-1.1,0.7H981.9z"/>
	<path id="XMLID_23932_" fill="#8F8F8F" d="M985.5,86.9c0.3,0,0.7,0.2,0.8,0.5l1.8,3.1c0.2,0.3,0.2,0.7,0,1l-1.8,3.1
		c-0.2,0.3-0.5,0.5-0.8,0.5h-3.6c-0.3,0-0.7-0.2-0.8-0.5l-1.8-3.1c-0.2-0.3-0.2-0.7,0-1l1.8-3.1c0.2-0.3,0.5-0.5,0.8-0.5H985.5
		 M985.5,86.2h-3.6c-0.6,0-1.2,0.3-1.5,0.9l-1.8,3.1c-0.3,0.5-0.3,1.2,0,1.7l1.8,3.1c0.3,0.5,0.9,0.9,1.5,0.9h3.6
		c0.6,0,1.2-0.3,1.5-0.9l1.8-3.1c0.3-0.5,0.3-1.2,0-1.7L987,87C986.7,86.5,986.1,86.2,985.5,86.2"/>
	<path id="XMLID_23931_" fill="#CECECE" d="M987.3,91c0,2-1.6,3.6-3.6,3.6c-2,0-3.6-1.6-3.6-3.6s1.6-3.6,3.6-3.6
		C985.7,87.4,987.3,89,987.3,91"/>
	
		<ellipse id="XMLID_23930_" fill="none" stroke="#8F8F8F" stroke-width="0.25" stroke-miterlimit="10" cx="983.7" cy="91" rx="3.6" ry="3.6"/>
	<path id="XMLID_23929_" fill="#414244" d="M986,91c0,1.2-1,2.2-2.2,2.2c-1.2,0-2.2-1-2.2-2.2c0-1.2,1-2.2,2.2-2.2
		C985,88.8,986,89.8,986,91"/>
	
		<ellipse id="XMLID_23928_" fill="none" stroke="#000000" stroke-width="0.25" stroke-miterlimit="10" cx="983.7" cy="91" rx="2.2" ry="2.2"/>
	<path id="XMLID_23927_" fill="#8F8F8F" d="M984.4,91c0,0.4-0.3,0.7-0.7,0.7c-0.4,0-0.7-0.3-0.7-0.7c0-0.4,0.3-0.7,0.7-0.7
		C984.1,90.3,984.4,90.7,984.4,91"/>
	<path id="XMLID_23926_" fill="#BDBDBD" d="M1041.1,95.4c-0.5,0-0.9-0.3-1.2-0.7l-1.8-3.1c-0.2-0.4-0.2-0.9,0-1.3l1.8-3.1
		c0.2-0.4,0.7-0.7,1.2-0.7h3.6c0.5,0,0.9,0.3,1.1,0.7l1.8,3.1c0.2,0.4,0.2,0.9,0,1.3l-1.8,3.1c-0.2,0.4-0.7,0.7-1.1,0.7H1041.1z"/>
	<path id="XMLID_23923_" fill="#8F8F8F" d="M1044.7,86.9c0.3,0,0.7,0.2,0.8,0.5l1.8,3.1c0.2,0.3,0.2,0.7,0,1l-1.8,3.1
		c-0.2,0.3-0.5,0.5-0.8,0.5h-3.6c-0.3,0-0.7-0.2-0.8-0.5l-1.8-3.1c-0.2-0.3-0.2-0.7,0-1l1.8-3.1c0.2-0.3,0.5-0.5,0.8-0.5H1044.7
		 M1044.7,86.2h-3.6c-0.6,0-1.2,0.3-1.5,0.9l-1.8,3.1c-0.3,0.5-0.3,1.2,0,1.7l1.8,3.1c0.3,0.5,0.9,0.9,1.5,0.9h3.6
		c0.6,0,1.2-0.3,1.5-0.9l1.8-3.1c0.3-0.5,0.3-1.2,0-1.7l-1.8-3.1C1045.9,86.5,1045.3,86.2,1044.7,86.2"/>
	<path id="XMLID_23922_" fill="#CECECE" d="M1046.5,91c0,2-1.6,3.6-3.6,3.6c-2,0-3.6-1.6-3.6-3.6s1.6-3.6,3.6-3.6
		C1044.9,87.4,1046.5,89,1046.5,91"/>
	
		<ellipse id="XMLID_23921_" fill="none" stroke="#8F8F8F" stroke-width="0.25" stroke-miterlimit="10" cx="1042.9" cy="91" rx="3.6" ry="3.6"/>
	<path id="XMLID_23920_" fill="#414244" d="M1045.2,91c0,1.2-1,2.2-2.2,2.2c-1.2,0-2.2-1-2.2-2.2c0-1.2,1-2.2,2.2-2.2
		C1044.2,88.8,1045.2,89.8,1045.2,91"/>
	
		<ellipse id="XMLID_23919_" fill="none" stroke="#000000" stroke-width="0.25" stroke-miterlimit="10" cx="1042.9" cy="91" rx="2.2" ry="2.2"/>
	<path id="XMLID_23918_" fill="#8F8F8F" d="M1043.6,91c0,0.4-0.3,0.7-0.7,0.7c-0.4,0-0.7-0.3-0.7-0.7c0-0.4,0.3-0.7,0.7-0.7
		C1043.3,90.3,1043.6,90.7,1043.6,91"/>
</g>
<g id="XMLID_23953_">
	<path id="XMLID_23988_" fill="#414244" d="M921.4,102h-27c-3.7,0-7-2.6-7.7-6.3l-1.8-9.1c-0.6-3.1,2-6,5.3-6h35.3
		c3.3,0,5.9,2.8,5.3,6l-1.8,9.1C928.4,99.4,925.1,102,921.4,102"/>
	<path id="XMLID_23987_" fill="none" stroke="#B9B9B9" stroke-miterlimit="10" d="M921.4,102h-27c-3.7,0-7-2.6-7.7-6.3l-1.8-9.1
		c-0.6-3.1,2-6,5.3-6h35.3c3.3,0,5.9,2.8,5.3,6l-1.8,9.1C928.4,99.4,925.1,102,921.4,102z"/>
	<path id="XMLID_23986_" d="M895.4,85.5c0,1.2-1,2.2-2.2,2.2c-1.2,0-2.2-1-2.2-2.2c0-1.2,1-2.2,2.2-2.2
		C894.4,83.3,895.4,84.3,895.4,85.5"/>
	<path id="XMLID_23985_" d="M902,85.5c0,1.2-1,2.2-2.2,2.2c-1.2,0-2.2-1-2.2-2.2c0-1.2,1-2.2,2.2-2.2C901,83.3,902,84.3,902,85.5"/>
	<path id="XMLID_23984_" d="M908.7,85.5c0,1.2-1,2.2-2.2,2.2c-1.2,0-2.2-1-2.2-2.2c0-1.2,1-2.2,2.2-2.2
		C907.7,83.3,908.7,84.3,908.7,85.5"/>
	<path id="XMLID_23983_" d="M915.3,85.5c0,1.2-1,2.2-2.2,2.2c-1.2,0-2.2-1-2.2-2.2c0-1.2,1-2.2,2.2-2.2
		C914.4,83.3,915.3,84.3,915.3,85.5"/>
	<path id="XMLID_23982_" d="M922,85.5c0,1.2-1,2.2-2.2,2.2c-1.2,0-2.2-1-2.2-2.2c0-1.2,1-2.2,2.2-2.2C921,83.3,922,84.3,922,85.5"/>
	<path id="XMLID_23981_" d="M898.9,91.3c0,1.2-1,2.2-2.2,2.2c-1.2,0-2.2-1-2.2-2.2c0-1.2,1-2.2,2.2-2.2
		C897.9,89.1,898.9,90.1,898.9,91.3"/>
	<path id="XMLID_23980_" d="M905.6,91.3c0,1.2-1,2.2-2.2,2.2c-1.2,0-2.2-1-2.2-2.2c0-1.2,1-2.2,2.2-2.2
		C904.6,89.1,905.6,90.1,905.6,91.3"/>
	<path id="XMLID_23979_" d="M912.2,91.3c0,1.2-1,2.2-2.2,2.2c-1.2,0-2.2-1-2.2-2.2c0-1.2,1-2.2,2.2-2.2
		C911.3,89.1,912.2,90.1,912.2,91.3"/>
	<path id="XMLID_23978_" d="M918.9,91.3c0,1.2-1,2.2-2.2,2.2c-1.2,0-2.2-1-2.2-2.2c0-1.2,1-2.2,2.2-2.2
		C917.9,89.1,918.9,90.1,918.9,91.3"/>
	<path id="XMLID_23977_" d="M925.6,91.3c0,1.2-1,2.2-2.2,2.2c-1.2,0-2.2-1-2.2-2.2c0-1.2,1-2.2,2.2-2.2
		C924.6,89.1,925.6,90.1,925.6,91.3"/>
	<path id="XMLID_23976_" d="M894.7,97.2c0,1.2-1,2.2-2.2,2.2c-1.2,0-2.2-1-2.2-2.2c0-1.2,1-2.2,2.2-2.2
		C893.7,95,894.7,96,894.7,97.2"/>
	<path id="XMLID_23975_" d="M901.3,97.2c0,1.2-1,2.2-2.2,2.2c-1.2,0-2.2-1-2.2-2.2c0-1.2,1-2.2,2.2-2.2
		C900.4,95,901.3,96,901.3,97.2"/>
	<path id="XMLID_23974_" d="M908,97.2c0,1.2-1,2.2-2.2,2.2c-1.2,0-2.2-1-2.2-2.2c0-1.2,1-2.2,2.2-2.2C907,95,908,96,908,97.2"/>
	<path id="XMLID_23973_" d="M914.7,97.2c0,1.2-1,2.2-2.2,2.2c-1.2,0-2.2-1-2.2-2.2c0-1.2,1-2.2,2.2-2.2
		C913.7,95,914.7,96,914.7,97.2"/>
	<path id="XMLID_23972_" d="M921.3,97.2c0,1.2-1,2.2-2.2,2.2c-1.2,0-2.2-1-2.2-2.2c0-1.2,1-2.2,2.2-2.2
		C920.3,95,921.3,96,921.3,97.2"/>
	<path id="XMLID_23971_" fill="#BDBDBD" d="M876.5,95.4c-0.5,0-0.9-0.3-1.2-0.7l-1.8-3.1c-0.2-0.4-0.2-0.9,0-1.3l1.8-3.1
		c0.2-0.4,0.7-0.7,1.2-0.7h3.6c0.5,0,0.9,0.3,1.1,0.7l1.8,3.1c0.2,0.4,0.2,0.9,0,1.3l-1.8,3.1c-0.2,0.4-0.7,0.7-1.1,0.7H876.5z"/>
	<path id="XMLID_23968_" fill="#8F8F8F" d="M880.1,86.9c0.3,0,0.7,0.2,0.8,0.5l1.8,3.1c0.2,0.3,0.2,0.7,0,1l-1.8,3.1
		c-0.2,0.3-0.5,0.5-0.8,0.5h-3.6c-0.3,0-0.7-0.2-0.8-0.5l-1.8-3.1c-0.2-0.3-0.2-0.7,0-1l1.8-3.1c0.2-0.3,0.5-0.5,0.8-0.5H880.1
		 M880.1,86.2h-3.6c-0.6,0-1.2,0.3-1.5,0.9l-1.8,3.1c-0.3,0.5-0.3,1.2,0,1.7l1.8,3.1c0.3,0.5,0.9,0.9,1.5,0.9h3.6
		c0.6,0,1.2-0.3,1.5-0.9l1.8-3.1c0.3-0.5,0.3-1.2,0-1.7l-1.8-3.1C881.3,86.5,880.7,86.2,880.1,86.2"/>
	<path id="XMLID_23967_" fill="#CECECE" d="M881.9,91c0,2-1.6,3.6-3.6,3.6c-2,0-3.6-1.6-3.6-3.6s1.6-3.6,3.6-3.6
		C880.3,87.4,881.9,89,881.9,91"/>
	
		<ellipse id="XMLID_23966_" fill="none" stroke="#8F8F8F" stroke-width="0.25" stroke-miterlimit="10" cx="878.3" cy="91" rx="3.6" ry="3.6"/>
	<path id="XMLID_23965_" fill="#414244" d="M880.6,91c0,1.2-1,2.2-2.2,2.2c-1.2,0-2.2-1-2.2-2.2c0-1.2,1-2.2,2.2-2.2
		C879.6,88.8,880.6,89.8,880.6,91"/>
	
		<ellipse id="XMLID_23964_" fill="none" stroke="#000000" stroke-width="0.25" stroke-miterlimit="10" cx="878.3" cy="91" rx="2.2" ry="2.2"/>
	<path id="XMLID_23963_" fill="#8F8F8F" d="M879,91c0,0.4-0.3,0.7-0.7,0.7c-0.4,0-0.7-0.3-0.7-0.7c0-0.4,0.3-0.7,0.7-0.7
		C878.7,90.3,879,90.7,879,91"/>
	<path id="XMLID_23962_" fill="#BDBDBD" d="M935.7,95.4c-0.5,0-0.9-0.3-1.2-0.7l-1.8-3.1c-0.2-0.4-0.2-0.9,0-1.3l1.8-3.1
		c0.2-0.4,0.7-0.7,1.2-0.7h3.6c0.5,0,0.9,0.3,1.1,0.7l1.8,3.1c0.2,0.4,0.2,0.9,0,1.3l-1.8,3.1c-0.2,0.4-0.7,0.7-1.1,0.7H935.7z"/>
	<path id="XMLID_23959_" fill="#8F8F8F" d="M939.3,86.9c0.3,0,0.7,0.2,0.8,0.5l1.8,3.1c0.2,0.3,0.2,0.7,0,1l-1.8,3.1
		c-0.2,0.3-0.5,0.5-0.8,0.5h-3.6c-0.3,0-0.7-0.2-0.8-0.5l-1.8-3.1c-0.2-0.3-0.2-0.7,0-1l1.8-3.1c0.2-0.3,0.5-0.5,0.8-0.5H939.3
		 M939.3,86.2h-3.6c-0.6,0-1.2,0.3-1.5,0.9l-1.8,3.1c-0.3,0.5-0.3,1.2,0,1.7l1.8,3.1c0.3,0.5,0.9,0.9,1.5,0.9h3.6
		c0.6,0,1.2-0.3,1.5-0.9l1.8-3.1c0.3-0.5,0.3-1.2,0-1.7l-1.8-3.1C940.5,86.5,939.9,86.2,939.3,86.2"/>
	<path id="XMLID_23958_" fill="#CECECE" d="M941.1,91c0,2-1.6,3.6-3.6,3.6c-2,0-3.6-1.6-3.6-3.6s1.6-3.6,3.6-3.6
		C939.5,87.4,941.1,89,941.1,91"/>
	
		<ellipse id="XMLID_23957_" fill="none" stroke="#8F8F8F" stroke-width="0.25" stroke-miterlimit="10" cx="937.5" cy="91" rx="3.6" ry="3.6"/>
	<path id="XMLID_23956_" fill="#414244" d="M939.8,91c0,1.2-1,2.2-2.2,2.2c-1.2,0-2.2-1-2.2-2.2c0-1.2,1-2.2,2.2-2.2
		C938.8,88.8,939.8,89.8,939.8,91"/>
	
		<ellipse id="XMLID_23955_" fill="none" stroke="#000000" stroke-width="0.25" stroke-miterlimit="10" cx="937.5" cy="91" rx="2.2" ry="2.2"/>
	<path id="XMLID_23954_" fill="#8F8F8F" d="M938.2,91c0,0.4-0.3,0.7-0.7,0.7c-0.4,0-0.7-0.3-0.7-0.7c0-0.4,0.3-0.7,0.7-0.7
		C937.9,90.3,938.2,90.7,938.2,91"/>
</g>
<g id="XMLID_23989_">
	<path id="XMLID_24024_" fill="#414244" d="M816,102h-27c-3.7,0-7-2.6-7.7-6.3l-1.8-9.1c-0.6-3.1,2-6,5.3-6h35.3
		c3.3,0,5.9,2.8,5.3,6l-1.8,9.1C823,99.4,819.7,102,816,102"/>
	<path id="XMLID_24023_" fill="none" stroke="#B9B9B9" stroke-miterlimit="10" d="M816,102h-27c-3.7,0-7-2.6-7.7-6.3l-1.8-9.1
		c-0.6-3.1,2-6,5.3-6h35.3c3.3,0,5.9,2.8,5.3,6l-1.8,9.1C823,99.4,819.7,102,816,102z"/>
	<path id="XMLID_24022_" d="M790,85.5c0,1.2-1,2.2-2.2,2.2c-1.2,0-2.2-1-2.2-2.2c0-1.2,1-2.2,2.2-2.2C789,83.3,790,84.3,790,85.5"/>
	<path id="XMLID_24021_" d="M796.6,85.5c0,1.2-1,2.2-2.2,2.2c-1.2,0-2.2-1-2.2-2.2c0-1.2,1-2.2,2.2-2.2
		C795.6,83.3,796.6,84.3,796.6,85.5"/>
	<path id="XMLID_24020_" d="M803.3,85.5c0,1.2-1,2.2-2.2,2.2c-1.2,0-2.2-1-2.2-2.2c0-1.2,1-2.2,2.2-2.2
		C802.3,83.3,803.3,84.3,803.3,85.5"/>
	<path id="XMLID_24019_" d="M809.9,85.5c0,1.2-1,2.2-2.2,2.2c-1.2,0-2.2-1-2.2-2.2c0-1.2,1-2.2,2.2-2.2
		C809,83.3,809.9,84.3,809.9,85.5"/>
	<path id="XMLID_24018_" d="M816.6,85.5c0,1.2-1,2.2-2.2,2.2c-1.2,0-2.2-1-2.2-2.2c0-1.2,1-2.2,2.2-2.2
		C815.6,83.3,816.6,84.3,816.6,85.5"/>
	<path id="XMLID_24017_" d="M793.5,91.3c0,1.2-1,2.2-2.2,2.2c-1.2,0-2.2-1-2.2-2.2c0-1.2,1-2.2,2.2-2.2
		C792.5,89.1,793.5,90.1,793.5,91.3"/>
	<path id="XMLID_24016_" d="M800.2,91.3c0,1.2-1,2.2-2.2,2.2c-1.2,0-2.2-1-2.2-2.2c0-1.2,1-2.2,2.2-2.2
		C799.2,89.1,800.2,90.1,800.2,91.3"/>
	<path id="XMLID_24015_" d="M806.8,91.3c0,1.2-1,2.2-2.2,2.2c-1.2,0-2.2-1-2.2-2.2c0-1.2,1-2.2,2.2-2.2
		C805.9,89.1,806.8,90.1,806.8,91.3"/>
	<path id="XMLID_24014_" d="M813.5,91.3c0,1.2-1,2.2-2.2,2.2c-1.2,0-2.2-1-2.2-2.2c0-1.2,1-2.2,2.2-2.2
		C812.5,89.1,813.5,90.1,813.5,91.3"/>
	<path id="XMLID_24013_" d="M820.2,91.3c0,1.2-1,2.2-2.2,2.2c-1.2,0-2.2-1-2.2-2.2c0-1.2,1-2.2,2.2-2.2
		C819.2,89.1,820.2,90.1,820.2,91.3"/>
	<path id="XMLID_24012_" d="M789.3,97.2c0,1.2-1,2.2-2.2,2.2c-1.2,0-2.2-1-2.2-2.2c0-1.2,1-2.2,2.2-2.2
		C788.3,95,789.3,96,789.3,97.2"/>
	<path id="XMLID_24011_" d="M795.9,97.2c0,1.2-1,2.2-2.2,2.2c-1.2,0-2.2-1-2.2-2.2c0-1.2,1-2.2,2.2-2.2C795,95,795.9,96,795.9,97.2"
		/>
	<path id="XMLID_24010_" d="M802.6,97.2c0,1.2-1,2.2-2.2,2.2c-1.2,0-2.2-1-2.2-2.2c0-1.2,1-2.2,2.2-2.2
		C801.6,95,802.6,96,802.6,97.2"/>
	<path id="XMLID_24009_" d="M809.3,97.2c0,1.2-1,2.2-2.2,2.2c-1.2,0-2.2-1-2.2-2.2c0-1.2,1-2.2,2.2-2.2
		C808.3,95,809.3,96,809.3,97.2"/>
	<path id="XMLID_24008_" d="M815.9,97.2c0,1.2-1,2.2-2.2,2.2c-1.2,0-2.2-1-2.2-2.2c0-1.2,1-2.2,2.2-2.2
		C814.9,95,815.9,96,815.9,97.2"/>
	<path id="XMLID_24007_" fill="#BDBDBD" d="M771.1,95.4c-0.5,0-0.9-0.3-1.2-0.7l-1.8-3.1c-0.2-0.4-0.2-0.9,0-1.3l1.8-3.1
		c0.2-0.4,0.7-0.7,1.2-0.7h3.6c0.5,0,0.9,0.3,1.1,0.7l1.8,3.1c0.2,0.4,0.2,0.9,0,1.3l-1.8,3.1c-0.2,0.4-0.7,0.7-1.1,0.7H771.1z"/>
	<path id="XMLID_24004_" fill="#8F8F8F" d="M774.7,86.9c0.3,0,0.7,0.2,0.8,0.5l1.8,3.1c0.2,0.3,0.2,0.7,0,1l-1.8,3.1
		c-0.2,0.3-0.5,0.5-0.8,0.5h-3.6c-0.3,0-0.7-0.2-0.8-0.5l-1.8-3.1c-0.2-0.3-0.2-0.7,0-1l1.8-3.1c0.2-0.3,0.5-0.5,0.8-0.5H774.7
		 M774.7,86.2h-3.6c-0.6,0-1.2,0.3-1.5,0.9l-1.8,3.1c-0.3,0.5-0.3,1.2,0,1.7l1.8,3.1c0.3,0.5,0.9,0.9,1.5,0.9h3.6
		c0.6,0,1.2-0.3,1.5-0.9l1.8-3.1c0.3-0.5,0.3-1.2,0-1.7l-1.8-3.1C775.9,86.5,775.3,86.2,774.7,86.2"/>
	<path id="XMLID_24003_" fill="#CECECE" d="M776.5,91c0,2-1.6,3.6-3.6,3.6c-2,0-3.6-1.6-3.6-3.6s1.6-3.6,3.6-3.6
		C774.9,87.4,776.5,89,776.5,91"/>
	
		<ellipse id="XMLID_24002_" fill="none" stroke="#8F8F8F" stroke-width="0.25" stroke-miterlimit="10" cx="772.9" cy="91" rx="3.6" ry="3.6"/>
	<path id="XMLID_24001_" fill="#414244" d="M775.2,91c0,1.2-1,2.2-2.2,2.2c-1.2,0-2.2-1-2.2-2.2c0-1.2,1-2.2,2.2-2.2
		C774.2,88.8,775.2,89.8,775.2,91"/>
	
		<ellipse id="XMLID_24000_" fill="none" stroke="#000000" stroke-width="0.25" stroke-miterlimit="10" cx="772.9" cy="91" rx="2.2" ry="2.2"/>
	<path id="XMLID_23999_" fill="#8F8F8F" d="M773.6,91c0,0.4-0.3,0.7-0.7,0.7c-0.4,0-0.7-0.3-0.7-0.7c0-0.4,0.3-0.7,0.7-0.7
		C773.3,90.3,773.6,90.7,773.6,91"/>
	<path id="XMLID_23998_" fill="#BDBDBD" d="M830.3,95.4c-0.5,0-0.9-0.3-1.2-0.7l-1.8-3.1c-0.2-0.4-0.2-0.9,0-1.3l1.8-3.1
		c0.2-0.4,0.7-0.7,1.2-0.7h3.6c0.5,0,0.9,0.3,1.1,0.7l1.8,3.1c0.2,0.4,0.2,0.9,0,1.3l-1.8,3.1c-0.2,0.4-0.7,0.7-1.1,0.7H830.3z"/>
	<path id="XMLID_23995_" fill="#8F8F8F" d="M833.9,86.9c0.3,0,0.7,0.2,0.8,0.5l1.8,3.1c0.2,0.3,0.2,0.7,0,1l-1.8,3.1
		c-0.2,0.3-0.5,0.5-0.8,0.5h-3.6c-0.3,0-0.7-0.2-0.8-0.5l-1.8-3.1c-0.2-0.3-0.2-0.7,0-1l1.8-3.1c0.2-0.3,0.5-0.5,0.8-0.5H833.9
		 M833.9,86.2h-3.6c-0.6,0-1.2,0.3-1.5,0.9l-1.8,3.1c-0.3,0.5-0.3,1.2,0,1.7l1.8,3.1c0.3,0.5,0.9,0.9,1.5,0.9h3.6
		c0.6,0,1.2-0.3,1.5-0.9l1.8-3.1c0.3-0.5,0.3-1.2,0-1.7l-1.8-3.1C835.1,86.5,834.5,86.2,833.9,86.2"/>
	<path id="XMLID_23994_" fill="#CECECE" d="M835.7,91c0,2-1.6,3.6-3.6,3.6c-2,0-3.6-1.6-3.6-3.6s1.6-3.6,3.6-3.6
		C834.1,87.4,835.7,89,835.7,91"/>
	
		<ellipse id="XMLID_23993_" fill="none" stroke="#8F8F8F" stroke-width="0.25" stroke-miterlimit="10" cx="832.1" cy="91" rx="3.6" ry="3.6"/>
	<path id="XMLID_23992_" fill="#414244" d="M834.4,91c0,1.2-1,2.2-2.2,2.2c-1.2,0-2.2-1-2.2-2.2c0-1.2,1-2.2,2.2-2.2
		C833.4,88.8,834.4,89.8,834.4,91"/>
	
		<ellipse id="XMLID_23991_" fill="none" stroke="#000000" stroke-width="0.25" stroke-miterlimit="10" cx="832.1" cy="91" rx="2.2" ry="2.2"/>
	<path id="XMLID_23990_" fill="#8F8F8F" d="M832.8,91c0,0.4-0.3,0.7-0.7,0.7c-0.4,0-0.7-0.3-0.7-0.7c0-0.4,0.3-0.7,0.7-0.7
		C832.5,90.3,832.8,90.7,832.8,91"/>
</g>
<g id="XMLID_24025_">
	<path id="XMLID_24195_" fill="#414244" d="M710.6,102h-27c-3.7,0-7-2.6-7.7-6.3l-1.8-9.1c-0.6-3.1,2-6,5.3-6h35.3
		c3.3,0,5.9,2.8,5.3,6l-1.8,9.1C717.6,99.4,714.3,102,710.6,102"/>
	<path id="XMLID_24194_" fill="none" stroke="#B9B9B9" stroke-miterlimit="10" d="M710.6,102h-27c-3.7,0-7-2.6-7.7-6.3l-1.8-9.1
		c-0.6-3.1,2-6,5.3-6h35.3c3.3,0,5.9,2.8,5.3,6l-1.8,9.1C717.6,99.4,714.3,102,710.6,102z"/>
	<path id="XMLID_24193_" d="M684.6,85.5c0,1.2-1,2.2-2.2,2.2c-1.2,0-2.2-1-2.2-2.2c0-1.2,1-2.2,2.2-2.2
		C683.6,83.3,684.6,84.3,684.6,85.5"/>
	<path id="XMLID_24192_" d="M691.2,85.5c0,1.2-1,2.2-2.2,2.2c-1.2,0-2.2-1-2.2-2.2c0-1.2,1-2.2,2.2-2.2
		C690.2,83.3,691.2,84.3,691.2,85.5"/>
	<path id="XMLID_24191_" d="M697.9,85.5c0,1.2-1,2.2-2.2,2.2c-1.2,0-2.2-1-2.2-2.2c0-1.2,1-2.2,2.2-2.2
		C696.9,83.3,697.9,84.3,697.9,85.5"/>
	<path id="XMLID_24190_" d="M704.5,85.5c0,1.2-1,2.2-2.2,2.2c-1.2,0-2.2-1-2.2-2.2c0-1.2,1-2.2,2.2-2.2
		C703.6,83.3,704.5,84.3,704.5,85.5"/>
	<path id="XMLID_24189_" d="M711.2,85.5c0,1.2-1,2.2-2.2,2.2c-1.2,0-2.2-1-2.2-2.2c0-1.2,1-2.2,2.2-2.2
		C710.2,83.3,711.2,84.3,711.2,85.5"/>
	<path id="XMLID_24188_" d="M688.1,91.3c0,1.2-1,2.2-2.2,2.2c-1.2,0-2.2-1-2.2-2.2c0-1.2,1-2.2,2.2-2.2
		C687.1,89.1,688.1,90.1,688.1,91.3"/>
	<path id="XMLID_24187_" d="M694.8,91.3c0,1.2-1,2.2-2.2,2.2c-1.2,0-2.2-1-2.2-2.2c0-1.2,1-2.2,2.2-2.2
		C693.8,89.1,694.8,90.1,694.8,91.3"/>
	<path id="XMLID_24186_" d="M701.4,91.3c0,1.2-1,2.2-2.2,2.2c-1.2,0-2.2-1-2.2-2.2c0-1.2,1-2.2,2.2-2.2
		C700.5,89.1,701.4,90.1,701.4,91.3"/>
	<path id="XMLID_24172_" d="M708.1,91.3c0,1.2-1,2.2-2.2,2.2c-1.2,0-2.2-1-2.2-2.2c0-1.2,1-2.2,2.2-2.2
		C707.1,89.1,708.1,90.1,708.1,91.3"/>
	<path id="XMLID_24171_" d="M714.8,91.3c0,1.2-1,2.2-2.2,2.2c-1.2,0-2.2-1-2.2-2.2c0-1.2,1-2.2,2.2-2.2
		C713.8,89.1,714.8,90.1,714.8,91.3"/>
	<path id="XMLID_24170_" d="M683.9,97.2c0,1.2-1,2.2-2.2,2.2c-1.2,0-2.2-1-2.2-2.2c0-1.2,1-2.2,2.2-2.2
		C682.9,95,683.9,96,683.9,97.2"/>
	<path id="XMLID_24153_" d="M690.5,97.2c0,1.2-1,2.2-2.2,2.2c-1.2,0-2.2-1-2.2-2.2c0-1.2,1-2.2,2.2-2.2
		C689.6,95,690.5,96,690.5,97.2"/>
	<path id="XMLID_24152_" d="M697.2,97.2c0,1.2-1,2.2-2.2,2.2c-1.2,0-2.2-1-2.2-2.2c0-1.2,1-2.2,2.2-2.2
		C696.2,95,697.2,96,697.2,97.2"/>
	<path id="XMLID_24148_" d="M703.9,97.2c0,1.2-1,2.2-2.2,2.2c-1.2,0-2.2-1-2.2-2.2c0-1.2,1-2.2,2.2-2.2
		C702.9,95,703.9,96,703.9,97.2"/>
	<path id="XMLID_24147_" d="M710.5,97.2c0,1.2-1,2.2-2.2,2.2c-1.2,0-2.2-1-2.2-2.2c0-1.2,1-2.2,2.2-2.2
		C709.5,95,710.5,96,710.5,97.2"/>
	<path id="XMLID_24142_" fill="#BDBDBD" d="M665.7,95.4c-0.5,0-0.9-0.3-1.2-0.7l-1.8-3.1c-0.2-0.4-0.2-0.9,0-1.3l1.8-3.1
		c0.2-0.4,0.7-0.7,1.2-0.7h3.6c0.5,0,0.9,0.3,1.1,0.7l1.8,3.1c0.2,0.4,0.2,0.9,0,1.3l-1.8,3.1c-0.2,0.4-0.7,0.7-1.1,0.7H665.7z"/>
	<path id="XMLID_24044_" fill="#8F8F8F" d="M669.3,86.9c0.3,0,0.7,0.2,0.8,0.5l1.8,3.1c0.2,0.3,0.2,0.7,0,1l-1.8,3.1
		c-0.2,0.3-0.5,0.5-0.8,0.5h-3.6c-0.3,0-0.7-0.2-0.8-0.5l-1.8-3.1c-0.2-0.3-0.2-0.7,0-1l1.8-3.1c0.2-0.3,0.5-0.5,0.8-0.5H669.3
		 M669.3,86.2h-3.6c-0.6,0-1.2,0.3-1.5,0.9l-1.8,3.1c-0.3,0.5-0.3,1.2,0,1.7l1.8,3.1c0.3,0.5,0.9,0.9,1.5,0.9h3.6
		c0.6,0,1.2-0.3,1.5-0.9l1.8-3.1c0.3-0.5,0.3-1.2,0-1.7l-1.8-3.1C670.5,86.5,669.9,86.2,669.3,86.2"/>
	<path id="XMLID_24042_" fill="#CECECE" d="M671.1,91c0,2-1.6,3.6-3.6,3.6c-2,0-3.6-1.6-3.6-3.6s1.6-3.6,3.6-3.6
		C669.5,87.4,671.1,89,671.1,91"/>
	
		<ellipse id="XMLID_24041_" fill="none" stroke="#8F8F8F" stroke-width="0.25" stroke-miterlimit="10" cx="667.5" cy="91" rx="3.6" ry="3.6"/>
	<path id="XMLID_24040_" fill="#414244" d="M669.8,91c0,1.2-1,2.2-2.2,2.2c-1.2,0-2.2-1-2.2-2.2c0-1.2,1-2.2,2.2-2.2
		C668.8,88.8,669.8,89.8,669.8,91"/>
	
		<ellipse id="XMLID_24039_" fill="none" stroke="#000000" stroke-width="0.25" stroke-miterlimit="10" cx="667.5" cy="91" rx="2.2" ry="2.2"/>
	<path id="XMLID_24038_" fill="#8F8F8F" d="M668.2,91c0,0.4-0.3,0.7-0.7,0.7c-0.4,0-0.7-0.3-0.7-0.7c0-0.4,0.3-0.7,0.7-0.7
		C667.9,90.3,668.2,90.7,668.2,91"/>
	<path id="XMLID_24036_" fill="#BDBDBD" d="M724.9,95.4c-0.5,0-0.9-0.3-1.2-0.7l-1.8-3.1c-0.2-0.4-0.2-0.9,0-1.3l1.8-3.1
		c0.2-0.4,0.7-0.7,1.2-0.7h3.6c0.5,0,0.9,0.3,1.1,0.7l1.8,3.1c0.2,0.4,0.2,0.9,0,1.3l-1.8,3.1c-0.2,0.4-0.7,0.7-1.1,0.7H724.9z"/>
	<path id="XMLID_24033_" fill="#8F8F8F" d="M728.5,86.9c0.3,0,0.7,0.2,0.8,0.5l1.8,3.1c0.2,0.3,0.2,0.7,0,1l-1.8,3.1
		c-0.2,0.3-0.5,0.5-0.8,0.5h-3.6c-0.3,0-0.7-0.2-0.8-0.5l-1.8-3.1c-0.2-0.3-0.2-0.7,0-1l1.8-3.1c0.2-0.3,0.5-0.5,0.8-0.5H728.5
		 M728.5,86.2h-3.6c-0.6,0-1.2,0.3-1.5,0.9l-1.8,3.1c-0.3,0.5-0.3,1.2,0,1.7l1.8,3.1c0.3,0.5,0.9,0.9,1.5,0.9h3.6
		c0.6,0,1.2-0.3,1.5-0.9l1.8-3.1c0.3-0.5,0.3-1.2,0-1.7L730,87C729.7,86.5,729.1,86.2,728.5,86.2"/>
	<path id="XMLID_24032_" fill="#CECECE" d="M730.3,91c0,2-1.6,3.6-3.6,3.6c-2,0-3.6-1.6-3.6-3.6s1.6-3.6,3.6-3.6
		C728.7,87.4,730.3,89,730.3,91"/>
	
		<ellipse id="XMLID_24029_" fill="none" stroke="#8F8F8F" stroke-width="0.25" stroke-miterlimit="10" cx="726.7" cy="91" rx="3.6" ry="3.6"/>
	<path id="XMLID_24028_" fill="#414244" d="M729,91c0,1.2-1,2.2-2.2,2.2c-1.2,0-2.2-1-2.2-2.2c0-1.2,1-2.2,2.2-2.2
		C728,88.8,729,89.8,729,91"/>
	
		<ellipse id="XMLID_24027_" fill="none" stroke="#000000" stroke-width="0.25" stroke-miterlimit="10" cx="726.7" cy="91" rx="2.2" ry="2.2"/>
	<path id="XMLID_24026_" fill="#8F8F8F" d="M727.4,91c0,0.4-0.3,0.7-0.7,0.7c-0.4,0-0.7-0.3-0.7-0.7c0-0.4,0.3-0.7,0.7-0.7
		C727.1,90.3,727.4,90.7,727.4,91"/>
</g>
<g id="XMLID_24196_">
	<path id="XMLID_24231_" fill="#414244" d="M605.2,102h-27c-3.7,0-7-2.6-7.7-6.3l-1.8-9.1c-0.6-3.1,2-6,5.3-6h35.3
		c3.3,0,5.9,2.8,5.3,6l-1.8,9.1C612.2,99.4,608.9,102,605.2,102"/>
	<path id="XMLID_24230_" fill="none" stroke="#B9B9B9" stroke-miterlimit="10" d="M605.2,102h-27c-3.7,0-7-2.6-7.7-6.3l-1.8-9.1
		c-0.6-3.1,2-6,5.3-6h35.3c3.3,0,5.9,2.8,5.3,6l-1.8,9.1C612.2,99.4,608.9,102,605.2,102z"/>
	<path id="XMLID_24229_" d="M579.2,85.5c0,1.2-1,2.2-2.2,2.2c-1.2,0-2.2-1-2.2-2.2c0-1.2,1-2.2,2.2-2.2
		C578.2,83.3,579.2,84.3,579.2,85.5"/>
	<path id="XMLID_24228_" d="M585.8,85.5c0,1.2-1,2.2-2.2,2.2c-1.2,0-2.2-1-2.2-2.2c0-1.2,1-2.2,2.2-2.2
		C584.8,83.3,585.8,84.3,585.8,85.5"/>
	<path id="XMLID_24227_" d="M592.5,85.5c0,1.2-1,2.2-2.2,2.2c-1.2,0-2.2-1-2.2-2.2c0-1.2,1-2.2,2.2-2.2
		C591.5,83.3,592.5,84.3,592.5,85.5"/>
	<path id="XMLID_24226_" d="M599.1,85.5c0,1.2-1,2.2-2.2,2.2c-1.2,0-2.2-1-2.2-2.2c0-1.2,1-2.2,2.2-2.2
		C598.2,83.3,599.1,84.3,599.1,85.5"/>
	<path id="XMLID_24225_" d="M605.8,85.5c0,1.2-1,2.2-2.2,2.2c-1.2,0-2.2-1-2.2-2.2c0-1.2,1-2.2,2.2-2.2
		C604.8,83.3,605.8,84.3,605.8,85.5"/>
	<path id="XMLID_24224_" d="M582.7,91.3c0,1.2-1,2.2-2.2,2.2c-1.2,0-2.2-1-2.2-2.2c0-1.2,1-2.2,2.2-2.2
		C581.7,89.1,582.7,90.1,582.7,91.3"/>
	<path id="XMLID_24223_" d="M589.4,91.3c0,1.2-1,2.2-2.2,2.2c-1.2,0-2.2-1-2.2-2.2c0-1.2,1-2.2,2.2-2.2
		C588.4,89.1,589.4,90.1,589.4,91.3"/>
	<path id="XMLID_24222_" d="M596,91.3c0,1.2-1,2.2-2.2,2.2c-1.2,0-2.2-1-2.2-2.2c0-1.2,1-2.2,2.2-2.2C595.1,89.1,596,90.1,596,91.3"
		/>
	<path id="XMLID_24221_" d="M602.7,91.3c0,1.2-1,2.2-2.2,2.2c-1.2,0-2.2-1-2.2-2.2c0-1.2,1-2.2,2.2-2.2
		C601.7,89.1,602.7,90.1,602.7,91.3"/>
	<path id="XMLID_24220_" d="M609.4,91.3c0,1.2-1,2.2-2.2,2.2c-1.2,0-2.2-1-2.2-2.2c0-1.2,1-2.2,2.2-2.2
		C608.4,89.1,609.4,90.1,609.4,91.3"/>
	<path id="XMLID_24219_" d="M578.5,97.2c0,1.2-1,2.2-2.2,2.2c-1.2,0-2.2-1-2.2-2.2c0-1.2,1-2.2,2.2-2.2
		C577.5,95,578.5,96,578.5,97.2"/>
	<path id="XMLID_24218_" d="M585.1,97.2c0,1.2-1,2.2-2.2,2.2c-1.2,0-2.2-1-2.2-2.2c0-1.2,1-2.2,2.2-2.2
		C584.2,95,585.1,96,585.1,97.2"/>
	<path id="XMLID_24217_" d="M591.8,97.2c0,1.2-1,2.2-2.2,2.2c-1.2,0-2.2-1-2.2-2.2c0-1.2,1-2.2,2.2-2.2
		C590.8,95,591.8,96,591.8,97.2"/>
	<path id="XMLID_24216_" d="M598.5,97.2c0,1.2-1,2.2-2.2,2.2c-1.2,0-2.2-1-2.2-2.2c0-1.2,1-2.2,2.2-2.2
		C597.5,95,598.5,96,598.5,97.2"/>
	<path id="XMLID_24215_" d="M605.1,97.2c0,1.2-1,2.2-2.2,2.2c-1.2,0-2.2-1-2.2-2.2c0-1.2,1-2.2,2.2-2.2
		C604.1,95,605.1,96,605.1,97.2"/>
	<path id="XMLID_24214_" fill="#BDBDBD" d="M560.3,95.4c-0.5,0-0.9-0.3-1.2-0.7l-1.8-3.1c-0.2-0.4-0.2-0.9,0-1.3l1.8-3.1
		c0.2-0.4,0.7-0.7,1.2-0.7h3.6c0.5,0,0.9,0.3,1.1,0.7l1.8,3.1c0.2,0.4,0.2,0.9,0,1.3l-1.8,3.1c-0.2,0.4-0.7,0.7-1.1,0.7H560.3z"/>
	<path id="XMLID_24211_" fill="#8F8F8F" d="M563.9,86.9c0.3,0,0.7,0.2,0.8,0.5l1.8,3.1c0.2,0.3,0.2,0.7,0,1l-1.8,3.1
		c-0.2,0.3-0.5,0.5-0.8,0.5h-3.6c-0.3,0-0.7-0.2-0.8-0.5l-1.8-3.1c-0.2-0.3-0.2-0.7,0-1l1.8-3.1c0.2-0.3,0.5-0.5,0.8-0.5H563.9
		 M563.9,86.2h-3.6c-0.6,0-1.2,0.3-1.5,0.9l-1.8,3.1c-0.3,0.5-0.3,1.2,0,1.7l1.8,3.1c0.3,0.5,0.9,0.9,1.5,0.9h3.6
		c0.6,0,1.2-0.3,1.5-0.9l1.8-3.1c0.3-0.5,0.3-1.2,0-1.7l-1.8-3.1C565.1,86.5,564.5,86.2,563.9,86.2"/>
	<path id="XMLID_24210_" fill="#CECECE" d="M565.7,91c0,2-1.6,3.6-3.6,3.6c-2,0-3.6-1.6-3.6-3.6s1.6-3.6,3.6-3.6
		C564.1,87.4,565.7,89,565.7,91"/>
	
		<ellipse id="XMLID_24209_" fill="none" stroke="#8F8F8F" stroke-width="0.25" stroke-miterlimit="10" cx="562.1" cy="91" rx="3.6" ry="3.6"/>
	<path id="XMLID_24208_" fill="#414244" d="M564.4,91c0,1.2-1,2.2-2.2,2.2c-1.2,0-2.2-1-2.2-2.2c0-1.2,1-2.2,2.2-2.2
		C563.4,88.8,564.4,89.8,564.4,91"/>
	
		<ellipse id="XMLID_24207_" fill="none" stroke="#000000" stroke-width="0.25" stroke-miterlimit="10" cx="562.1" cy="91" rx="2.2" ry="2.2"/>
	<path id="XMLID_24206_" fill="#8F8F8F" d="M562.8,91c0,0.4-0.3,0.7-0.7,0.7c-0.4,0-0.7-0.3-0.7-0.7c0-0.4,0.3-0.7,0.7-0.7
		C562.5,90.3,562.8,90.7,562.8,91"/>
	<path id="XMLID_24205_" fill="#BDBDBD" d="M619.5,95.4c-0.5,0-0.9-0.3-1.2-0.7l-1.8-3.1c-0.2-0.4-0.2-0.9,0-1.3l1.8-3.1
		c0.2-0.4,0.7-0.7,1.2-0.7h3.6c0.5,0,0.9,0.3,1.1,0.7l1.8,3.1c0.2,0.4,0.2,0.9,0,1.3l-1.8,3.1c-0.2,0.4-0.7,0.7-1.1,0.7H619.5z"/>
	<path id="XMLID_24202_" fill="#8F8F8F" d="M623.1,86.9c0.3,0,0.7,0.2,0.8,0.5l1.8,3.1c0.2,0.3,0.2,0.7,0,1l-1.8,3.1
		c-0.2,0.3-0.5,0.5-0.8,0.5h-3.6c-0.3,0-0.7-0.2-0.8-0.5l-1.8-3.1c-0.2-0.3-0.2-0.7,0-1l1.8-3.1c0.2-0.3,0.5-0.5,0.8-0.5H623.1
		 M623.1,86.2h-3.6c-0.6,0-1.2,0.3-1.5,0.9l-1.8,3.1c-0.3,0.5-0.3,1.2,0,1.7L618,95c0.3,0.5,0.9,0.9,1.5,0.9h3.6
		c0.6,0,1.2-0.3,1.5-0.9l1.8-3.1c0.3-0.5,0.3-1.2,0-1.7l-1.8-3.1C624.3,86.5,623.7,86.2,623.1,86.2"/>
	<path id="XMLID_24201_" fill="#CECECE" d="M624.9,91c0,2-1.6,3.6-3.6,3.6c-2,0-3.6-1.6-3.6-3.6s1.6-3.6,3.6-3.6
		C623.3,87.4,624.9,89,624.9,91"/>
	
		<ellipse id="XMLID_24200_" fill="none" stroke="#8F8F8F" stroke-width="0.25" stroke-miterlimit="10" cx="621.3" cy="91" rx="3.6" ry="3.6"/>
	<path id="XMLID_24199_" fill="#414244" d="M623.6,91c0,1.2-1,2.2-2.2,2.2c-1.2,0-2.2-1-2.2-2.2c0-1.2,1-2.2,2.2-2.2
		C622.6,88.8,623.6,89.8,623.6,91"/>
	
		<ellipse id="XMLID_24198_" fill="none" stroke="#000000" stroke-width="0.25" stroke-miterlimit="10" cx="621.3" cy="91" rx="2.2" ry="2.2"/>
	<path id="XMLID_24197_" fill="#8F8F8F" d="M622,91c0,0.4-0.3,0.7-0.7,0.7c-0.4,0-0.7-0.3-0.7-0.7c0-0.4,0.3-0.7,0.7-0.7
		C621.7,90.3,622,90.7,622,91"/>
</g>
<g id="XMLID_24232_">
	<path id="XMLID_24267_" fill="#414244" d="M499.8,102h-27c-3.7,0-7-2.6-7.7-6.3l-1.8-9.1c-0.6-3.1,2-6,5.3-6H504
		c3.3,0,5.9,2.8,5.3,6l-1.8,9.1C506.8,99.4,503.5,102,499.8,102"/>
	<path id="XMLID_24266_" fill="none" stroke="#B9B9B9" stroke-miterlimit="10" d="M499.8,102h-27c-3.7,0-7-2.6-7.7-6.3l-1.8-9.1
		c-0.6-3.1,2-6,5.3-6H504c3.3,0,5.9,2.8,5.3,6l-1.8,9.1C506.8,99.4,503.5,102,499.8,102z"/>
	<path id="XMLID_24265_" d="M473.8,85.5c0,1.2-1,2.2-2.2,2.2c-1.2,0-2.2-1-2.2-2.2c0-1.2,1-2.2,2.2-2.2
		C472.8,83.3,473.8,84.3,473.8,85.5"/>
	<path id="XMLID_24264_" d="M480.4,85.5c0,1.2-1,2.2-2.2,2.2c-1.2,0-2.2-1-2.2-2.2c0-1.2,1-2.2,2.2-2.2
		C479.4,83.3,480.4,84.3,480.4,85.5"/>
	<path id="XMLID_24263_" d="M487.1,85.5c0,1.2-1,2.2-2.2,2.2c-1.2,0-2.2-1-2.2-2.2c0-1.2,1-2.2,2.2-2.2
		C486.1,83.3,487.1,84.3,487.1,85.5"/>
	<path id="XMLID_24262_" d="M493.7,85.5c0,1.2-1,2.2-2.2,2.2c-1.2,0-2.2-1-2.2-2.2c0-1.2,1-2.2,2.2-2.2
		C492.8,83.3,493.7,84.3,493.7,85.5"/>
	<path id="XMLID_24261_" d="M500.4,85.5c0,1.2-1,2.2-2.2,2.2c-1.2,0-2.2-1-2.2-2.2c0-1.2,1-2.2,2.2-2.2
		C499.4,83.3,500.4,84.3,500.4,85.5"/>
	<path id="XMLID_24260_" d="M477.3,91.3c0,1.2-1,2.2-2.2,2.2c-1.2,0-2.2-1-2.2-2.2c0-1.2,1-2.2,2.2-2.2
		C476.3,89.1,477.3,90.1,477.3,91.3"/>
	<path id="XMLID_24259_" d="M484,91.3c0,1.2-1,2.2-2.2,2.2c-1.2,0-2.2-1-2.2-2.2c0-1.2,1-2.2,2.2-2.2C483,89.1,484,90.1,484,91.3"/>
	<path id="XMLID_24258_" d="M490.6,91.3c0,1.2-1,2.2-2.2,2.2c-1.2,0-2.2-1-2.2-2.2c0-1.2,1-2.2,2.2-2.2
		C489.7,89.1,490.6,90.1,490.6,91.3"/>
	<path id="XMLID_24257_" d="M497.3,91.3c0,1.2-1,2.2-2.2,2.2c-1.2,0-2.2-1-2.2-2.2c0-1.2,1-2.2,2.2-2.2
		C496.3,89.1,497.3,90.1,497.3,91.3"/>
	<path id="XMLID_24256_" d="M504,91.3c0,1.2-1,2.2-2.2,2.2c-1.2,0-2.2-1-2.2-2.2c0-1.2,1-2.2,2.2-2.2C503,89.1,504,90.1,504,91.3"/>
	<path id="XMLID_24255_" d="M473.1,97.2c0,1.2-1,2.2-2.2,2.2c-1.2,0-2.2-1-2.2-2.2c0-1.2,1-2.2,2.2-2.2
		C472.1,95,473.1,96,473.1,97.2"/>
	<path id="XMLID_24254_" d="M479.7,97.2c0,1.2-1,2.2-2.2,2.2c-1.2,0-2.2-1-2.2-2.2c0-1.2,1-2.2,2.2-2.2
		C478.8,95,479.7,96,479.7,97.2"/>
	<path id="XMLID_24253_" d="M486.4,97.2c0,1.2-1,2.2-2.2,2.2c-1.2,0-2.2-1-2.2-2.2c0-1.2,1-2.2,2.2-2.2
		C485.4,95,486.4,96,486.4,97.2"/>
	<path id="XMLID_24252_" d="M493.1,97.2c0,1.2-1,2.2-2.2,2.2c-1.2,0-2.2-1-2.2-2.2c0-1.2,1-2.2,2.2-2.2
		C492.1,95,493.1,96,493.1,97.2"/>
	<path id="XMLID_24251_" d="M499.7,97.2c0,1.2-1,2.2-2.2,2.2c-1.2,0-2.2-1-2.2-2.2c0-1.2,1-2.2,2.2-2.2
		C498.7,95,499.7,96,499.7,97.2"/>
	<path id="XMLID_24250_" fill="#BDBDBD" d="M454.9,95.4c-0.5,0-0.9-0.3-1.2-0.7l-1.8-3.1c-0.2-0.4-0.2-0.9,0-1.3l1.8-3.1
		c0.2-0.4,0.7-0.7,1.2-0.7h3.6c0.5,0,0.9,0.3,1.1,0.7l1.8,3.1c0.2,0.4,0.2,0.9,0,1.3l-1.8,3.1c-0.2,0.4-0.7,0.7-1.1,0.7H454.9z"/>
	<path id="XMLID_24247_" fill="#8F8F8F" d="M458.5,86.9c0.3,0,0.7,0.2,0.8,0.5l1.8,3.1c0.2,0.3,0.2,0.7,0,1l-1.8,3.1
		c-0.2,0.3-0.5,0.5-0.8,0.5h-3.6c-0.3,0-0.7-0.2-0.8-0.5l-1.8-3.1c-0.2-0.3-0.2-0.7,0-1l1.8-3.1c0.2-0.3,0.5-0.5,0.8-0.5H458.5
		 M458.5,86.2h-3.6c-0.6,0-1.2,0.3-1.5,0.9l-1.8,3.1c-0.3,0.5-0.3,1.2,0,1.7l1.8,3.1c0.3,0.5,0.9,0.9,1.5,0.9h3.6
		c0.6,0,1.2-0.3,1.5-0.9l1.8-3.1c0.3-0.5,0.3-1.2,0-1.7L460,87C459.7,86.5,459.1,86.2,458.5,86.2"/>
	<path id="XMLID_24246_" fill="#CECECE" d="M460.3,91c0,2-1.6,3.6-3.6,3.6c-2,0-3.6-1.6-3.6-3.6s1.6-3.6,3.6-3.6
		C458.7,87.4,460.3,89,460.3,91"/>
	
		<ellipse id="XMLID_24245_" fill="none" stroke="#8F8F8F" stroke-width="0.25" stroke-miterlimit="10" cx="456.7" cy="91" rx="3.6" ry="3.6"/>
	<path id="XMLID_24244_" fill="#414244" d="M459,91c0,1.2-1,2.2-2.2,2.2c-1.2,0-2.2-1-2.2-2.2c0-1.2,1-2.2,2.2-2.2
		C458,88.8,459,89.8,459,91"/>
	
		<ellipse id="XMLID_24243_" fill="none" stroke="#000000" stroke-width="0.25" stroke-miterlimit="10" cx="456.7" cy="91" rx="2.2" ry="2.2"/>
	<path id="XMLID_24242_" fill="#8F8F8F" d="M457.4,91c0,0.4-0.3,0.7-0.7,0.7c-0.4,0-0.7-0.3-0.7-0.7c0-0.4,0.3-0.7,0.7-0.7
		C457.1,90.3,457.4,90.7,457.4,91"/>
	<path id="XMLID_24241_" fill="#BDBDBD" d="M514.1,95.4c-0.5,0-0.9-0.3-1.2-0.7l-1.8-3.1c-0.2-0.4-0.2-0.9,0-1.3l1.8-3.1
		c0.2-0.4,0.7-0.7,1.2-0.7h3.6c0.5,0,0.9,0.3,1.1,0.7l1.8,3.1c0.2,0.4,0.2,0.9,0,1.3l-1.8,3.1c-0.2,0.4-0.7,0.7-1.1,0.7H514.1z"/>
	<path id="XMLID_24238_" fill="#8F8F8F" d="M517.7,86.9c0.3,0,0.7,0.2,0.8,0.5l1.8,3.1c0.2,0.3,0.2,0.7,0,1l-1.8,3.1
		c-0.2,0.3-0.5,0.5-0.8,0.5h-3.6c-0.3,0-0.7-0.2-0.8-0.5l-1.8-3.1c-0.2-0.3-0.2-0.7,0-1l1.8-3.1c0.2-0.3,0.5-0.5,0.8-0.5H517.7
		 M517.7,86.2h-3.6c-0.6,0-1.2,0.3-1.5,0.9l-1.8,3.1c-0.3,0.5-0.3,1.2,0,1.7l1.8,3.1c0.3,0.5,0.9,0.9,1.5,0.9h3.6
		c0.6,0,1.2-0.3,1.5-0.9l1.8-3.1c0.3-0.5,0.3-1.2,0-1.7l-1.8-3.1C518.9,86.5,518.3,86.2,517.7,86.2"/>
	<path id="XMLID_24237_" fill="#CECECE" d="M519.5,91c0,2-1.6,3.6-3.6,3.6c-2,0-3.6-1.6-3.6-3.6s1.6-3.6,3.6-3.6
		C517.9,87.4,519.5,89,519.5,91"/>
	
		<ellipse id="XMLID_24236_" fill="none" stroke="#8F8F8F" stroke-width="0.25" stroke-miterlimit="10" cx="515.9" cy="91" rx="3.6" ry="3.6"/>
	<path id="XMLID_24235_" fill="#414244" d="M518.1,91c0,1.2-1,2.2-2.2,2.2c-1.2,0-2.2-1-2.2-2.2c0-1.2,1-2.2,2.2-2.2
		C517.2,88.8,518.1,89.8,518.1,91"/>
	
		<ellipse id="XMLID_24234_" fill="none" stroke="#000000" stroke-width="0.25" stroke-miterlimit="10" cx="515.9" cy="91" rx="2.2" ry="2.2"/>
	<path id="XMLID_24233_" fill="#8F8F8F" d="M516.6,91c0,0.4-0.3,0.7-0.7,0.7c-0.4,0-0.7-0.3-0.7-0.7c0-0.4,0.3-0.7,0.7-0.7
		C516.3,90.3,516.6,90.7,516.6,91"/>
</g>
<g id="XMLID_24268_">
	<path id="XMLID_24305_" fill="#414244" d="M394.4,102h-27c-3.7,0-7-2.6-7.7-6.3l-1.8-9.1c-0.6-3.1,2-6,5.3-6h35.3
		c3.3,0,5.9,2.8,5.3,6l-1.8,9.1C401.4,99.4,398.1,102,394.4,102"/>
	<path id="XMLID_24302_" fill="none" stroke="#B9B9B9" stroke-miterlimit="10" d="M394.4,102h-27c-3.7,0-7-2.6-7.7-6.3l-1.8-9.1
		c-0.6-3.1,2-6,5.3-6h35.3c3.3,0,5.9,2.8,5.3,6l-1.8,9.1C401.4,99.4,398.1,102,394.4,102z"/>
	<path id="XMLID_24301_" d="M368.4,85.5c0,1.2-1,2.2-2.2,2.2c-1.2,0-2.2-1-2.2-2.2c0-1.2,1-2.2,2.2-2.2
		C367.4,83.3,368.4,84.3,368.4,85.5"/>
	<path id="XMLID_24300_" d="M375,85.5c0,1.2-1,2.2-2.2,2.2c-1.2,0-2.2-1-2.2-2.2c0-1.2,1-2.2,2.2-2.2C374,83.3,375,84.3,375,85.5"/>
	<path id="XMLID_24299_" d="M381.7,85.5c0,1.2-1,2.2-2.2,2.2c-1.2,0-2.2-1-2.2-2.2c0-1.2,1-2.2,2.2-2.2
		C380.7,83.3,381.7,84.3,381.7,85.5"/>
	<path id="XMLID_24298_" d="M388.3,85.5c0,1.2-1,2.2-2.2,2.2c-1.2,0-2.2-1-2.2-2.2c0-1.2,1-2.2,2.2-2.2
		C387.4,83.3,388.3,84.3,388.3,85.5"/>
	<path id="XMLID_24297_" d="M395,85.5c0,1.2-1,2.2-2.2,2.2c-1.2,0-2.2-1-2.2-2.2c0-1.2,1-2.2,2.2-2.2C394,83.3,395,84.3,395,85.5"/>
	<path id="XMLID_24296_" d="M371.9,91.3c0,1.2-1,2.2-2.2,2.2c-1.2,0-2.2-1-2.2-2.2c0-1.2,1-2.2,2.2-2.2
		C370.9,89.1,371.9,90.1,371.9,91.3"/>
	<path id="XMLID_24295_" d="M378.6,91.3c0,1.2-1,2.2-2.2,2.2c-1.2,0-2.2-1-2.2-2.2c0-1.2,1-2.2,2.2-2.2
		C377.6,89.1,378.6,90.1,378.6,91.3"/>
	<path id="XMLID_24294_" d="M385.2,91.3c0,1.2-1,2.2-2.2,2.2c-1.2,0-2.2-1-2.2-2.2c0-1.2,1-2.2,2.2-2.2
		C384.3,89.1,385.2,90.1,385.2,91.3"/>
	<path id="XMLID_24293_" d="M391.9,91.3c0,1.2-1,2.2-2.2,2.2c-1.2,0-2.2-1-2.2-2.2c0-1.2,1-2.2,2.2-2.2
		C390.9,89.1,391.9,90.1,391.9,91.3"/>
	<path id="XMLID_24292_" d="M398.6,91.3c0,1.2-1,2.2-2.2,2.2c-1.2,0-2.2-1-2.2-2.2c0-1.2,1-2.2,2.2-2.2
		C397.6,89.1,398.6,90.1,398.6,91.3"/>
	<path id="XMLID_24291_" d="M367.7,97.2c0,1.2-1,2.2-2.2,2.2c-1.2,0-2.2-1-2.2-2.2c0-1.2,1-2.2,2.2-2.2
		C366.7,95,367.7,96,367.7,97.2"/>
	<path id="XMLID_24290_" d="M374.3,97.2c0,1.2-1,2.2-2.2,2.2c-1.2,0-2.2-1-2.2-2.2c0-1.2,1-2.2,2.2-2.2
		C373.4,95,374.3,96,374.3,97.2"/>
	<path id="XMLID_24289_" d="M381,97.2c0,1.2-1,2.2-2.2,2.2c-1.2,0-2.2-1-2.2-2.2c0-1.2,1-2.2,2.2-2.2C380,95,381,96,381,97.2"/>
	<path id="XMLID_24288_" d="M387.7,97.2c0,1.2-1,2.2-2.2,2.2c-1.2,0-2.2-1-2.2-2.2c0-1.2,1-2.2,2.2-2.2
		C386.7,95,387.7,96,387.7,97.2"/>
	<path id="XMLID_24287_" d="M394.3,97.2c0,1.2-1,2.2-2.2,2.2c-1.2,0-2.2-1-2.2-2.2c0-1.2,1-2.2,2.2-2.2
		C393.3,95,394.3,96,394.3,97.2"/>
	<path id="XMLID_24286_" fill="#BDBDBD" d="M349.5,95.4c-0.5,0-0.9-0.3-1.2-0.7l-1.8-3.1c-0.2-0.4-0.2-0.9,0-1.3l1.8-3.1
		c0.2-0.4,0.7-0.7,1.2-0.7h3.6c0.5,0,0.9,0.3,1.1,0.7l1.8,3.1c0.2,0.4,0.2,0.9,0,1.3l-1.8,3.1c-0.2,0.4-0.7,0.7-1.1,0.7H349.5z"/>
	<path id="XMLID_24283_" fill="#8F8F8F" d="M353.1,86.9c0.3,0,0.7,0.2,0.8,0.5l1.8,3.1c0.2,0.3,0.2,0.7,0,1l-1.8,3.1
		c-0.2,0.3-0.5,0.5-0.8,0.5h-3.6c-0.3,0-0.7-0.2-0.8-0.5l-1.8-3.1c-0.2-0.3-0.2-0.7,0-1l1.8-3.1c0.2-0.3,0.5-0.5,0.8-0.5H353.1
		 M353.1,86.2h-3.6c-0.6,0-1.2,0.3-1.5,0.9l-1.8,3.1c-0.3,0.5-0.3,1.2,0,1.7l1.8,3.1c0.3,0.5,0.9,0.9,1.5,0.9h3.6
		c0.6,0,1.2-0.3,1.5-0.9l1.8-3.1c0.3-0.5,0.3-1.2,0-1.7l-1.8-3.1C354.3,86.5,353.7,86.2,353.1,86.2"/>
	<path id="XMLID_24282_" fill="#CECECE" d="M354.9,91c0,2-1.6,3.6-3.6,3.6c-2,0-3.6-1.6-3.6-3.6s1.6-3.6,3.6-3.6
		C353.3,87.4,354.9,89,354.9,91"/>
	
		<ellipse id="XMLID_24281_" fill="none" stroke="#8F8F8F" stroke-width="0.25" stroke-miterlimit="10" cx="351.3" cy="91" rx="3.6" ry="3.6"/>
	<path id="XMLID_24280_" fill="#414244" d="M353.6,91c0,1.2-1,2.2-2.2,2.2c-1.2,0-2.2-1-2.2-2.2c0-1.2,1-2.2,2.2-2.2
		C352.6,88.8,353.6,89.8,353.6,91"/>
	
		<ellipse id="XMLID_24279_" fill="none" stroke="#000000" stroke-width="0.25" stroke-miterlimit="10" cx="351.3" cy="91" rx="2.2" ry="2.2"/>
	<path id="XMLID_24278_" fill="#8F8F8F" d="M352,91c0,0.4-0.3,0.7-0.7,0.7c-0.4,0-0.7-0.3-0.7-0.7c0-0.4,0.3-0.7,0.7-0.7
		C351.7,90.3,352,90.7,352,91"/>
	<path id="XMLID_24277_" fill="#BDBDBD" d="M408.7,95.4c-0.5,0-0.9-0.3-1.2-0.7l-1.8-3.1c-0.2-0.4-0.2-0.9,0-1.3l1.8-3.1
		c0.2-0.4,0.7-0.7,1.2-0.7h3.6c0.5,0,0.9,0.3,1.1,0.7l1.8,3.1c0.2,0.4,0.2,0.9,0,1.3l-1.8,3.1c-0.2,0.4-0.7,0.7-1.1,0.7H408.7z"/>
	<path id="XMLID_24274_" fill="#8F8F8F" d="M412.3,86.9c0.3,0,0.7,0.2,0.8,0.5l1.8,3.1c0.2,0.3,0.2,0.7,0,1l-1.8,3.1
		c-0.2,0.3-0.5,0.5-0.8,0.5h-3.6c-0.3,0-0.7-0.2-0.8-0.5l-1.8-3.1c-0.2-0.3-0.2-0.7,0-1l1.8-3.1c0.2-0.3,0.5-0.5,0.8-0.5H412.3
		 M412.3,86.2h-3.6c-0.6,0-1.2,0.3-1.5,0.9l-1.8,3.1c-0.3,0.5-0.3,1.2,0,1.7l1.8,3.1c0.3,0.5,0.9,0.9,1.5,0.9h3.6
		c0.6,0,1.2-0.3,1.5-0.9l1.8-3.1c0.3-0.5,0.3-1.2,0-1.7l-1.8-3.1C413.5,86.5,412.9,86.2,412.3,86.2"/>
	<path id="XMLID_24273_" fill="#CECECE" d="M414.1,91c0,2-1.6,3.6-3.6,3.6c-2,0-3.6-1.6-3.6-3.6s1.6-3.6,3.6-3.6
		C412.5,87.4,414.1,89,414.1,91"/>
	
		<ellipse id="XMLID_24272_" fill="none" stroke="#8F8F8F" stroke-width="0.25" stroke-miterlimit="10" cx="410.5" cy="91" rx="3.6" ry="3.6"/>
	<path id="XMLID_24271_" fill="#414244" d="M412.7,91c0,1.2-1,2.2-2.2,2.2c-1.2,0-2.2-1-2.2-2.2c0-1.2,1-2.2,2.2-2.2
		C411.7,88.8,412.7,89.8,412.7,91"/>
	
		<ellipse id="XMLID_24270_" fill="none" stroke="#000000" stroke-width="0.25" stroke-miterlimit="10" cx="410.5" cy="91" rx="2.2" ry="2.2"/>
	<path id="XMLID_24269_" fill="#8F8F8F" d="M411.2,91c0,0.4-0.3,0.7-0.7,0.7c-0.4,0-0.7-0.3-0.7-0.7c0-0.4,0.3-0.7,0.7-0.7
		C410.9,90.3,411.2,90.7,411.2,91"/>
</g>
<g id="XMLID_23742_">
	<path id="XMLID_24365_" fill="#414244" d="M394.4,51.9h-27c-3.7,0-7-2.6-7.7-6.3l-1.8-9.1c-0.6-3.1,2-6,5.3-6h35.3
		c3.3,0,5.9,2.8,5.3,6l-1.8,9.1C401.4,49.3,398.1,51.9,394.4,51.9"/>
	<path id="XMLID_24364_" fill="none" stroke="#B9B9B9" stroke-miterlimit="10" d="M394.4,51.9h-27c-3.7,0-7-2.6-7.7-6.3l-1.8-9.1
		c-0.6-3.1,2-6,5.3-6h35.3c3.3,0,5.9,2.8,5.3,6l-1.8,9.1C401.4,49.3,398.1,51.9,394.4,51.9z"/>
	<path id="XMLID_24363_" d="M368.4,35.4c0,1.2-1,2.2-2.2,2.2c-1.2,0-2.2-1-2.2-2.2c0-1.2,1-2.2,2.2-2.2
		C367.4,33.2,368.4,34.1,368.4,35.4"/>
	<path id="XMLID_24362_" d="M375,35.4c0,1.2-1,2.2-2.2,2.2c-1.2,0-2.2-1-2.2-2.2c0-1.2,1-2.2,2.2-2.2C374,33.2,375,34.1,375,35.4"/>
	<path id="XMLID_24361_" d="M381.7,35.4c0,1.2-1,2.2-2.2,2.2c-1.2,0-2.2-1-2.2-2.2c0-1.2,1-2.2,2.2-2.2
		C380.7,33.2,381.7,34.1,381.7,35.4"/>
	<path id="XMLID_24360_" d="M388.3,35.4c0,1.2-1,2.2-2.2,2.2c-1.2,0-2.2-1-2.2-2.2c0-1.2,1-2.2,2.2-2.2
		C387.4,33.2,388.3,34.1,388.3,35.4"/>
	<path id="XMLID_24359_" d="M395,35.4c0,1.2-1,2.2-2.2,2.2c-1.2,0-2.2-1-2.2-2.2c0-1.2,1-2.2,2.2-2.2C394,33.2,395,34.1,395,35.4"/>
	<path id="XMLID_24358_" d="M371.9,41.2c0,1.2-1,2.2-2.2,2.2c-1.2,0-2.2-1-2.2-2.2c0-1.2,1-2.2,2.2-2.2
		C370.9,39,371.9,40,371.9,41.2"/>
	<path id="XMLID_24357_" d="M378.6,41.2c0,1.2-1,2.2-2.2,2.2c-1.2,0-2.2-1-2.2-2.2c0-1.2,1-2.2,2.2-2.2
		C377.6,39,378.6,40,378.6,41.2"/>
	<path id="XMLID_24356_" d="M385.2,41.2c0,1.2-1,2.2-2.2,2.2c-1.2,0-2.2-1-2.2-2.2c0-1.2,1-2.2,2.2-2.2
		C384.3,39,385.2,40,385.2,41.2"/>
	<path id="XMLID_24355_" d="M391.9,41.2c0,1.2-1,2.2-2.2,2.2c-1.2,0-2.2-1-2.2-2.2c0-1.2,1-2.2,2.2-2.2
		C390.9,39,391.9,40,391.9,41.2"/>
	<path id="XMLID_24354_" d="M398.6,41.2c0,1.2-1,2.2-2.2,2.2c-1.2,0-2.2-1-2.2-2.2c0-1.2,1-2.2,2.2-2.2
		C397.6,39,398.6,40,398.6,41.2"/>
	<path id="XMLID_23765_" d="M367.7,47.1c0,1.2-1,2.2-2.2,2.2c-1.2,0-2.2-1-2.2-2.2c0-1.2,1-2.2,2.2-2.2
		C366.7,44.8,367.7,45.8,367.7,47.1"/>
	<path id="XMLID_23764_" d="M374.3,47.1c0,1.2-1,2.2-2.2,2.2c-1.2,0-2.2-1-2.2-2.2c0-1.2,1-2.2,2.2-2.2
		C373.4,44.8,374.3,45.8,374.3,47.1"/>
	<path id="XMLID_23763_" d="M381,47.1c0,1.2-1,2.2-2.2,2.2c-1.2,0-2.2-1-2.2-2.2c0-1.2,1-2.2,2.2-2.2C380,44.8,381,45.8,381,47.1"/>
	<path id="XMLID_23762_" d="M387.7,47.1c0,1.2-1,2.2-2.2,2.2c-1.2,0-2.2-1-2.2-2.2c0-1.2,1-2.2,2.2-2.2
		C386.7,44.8,387.7,45.8,387.7,47.1"/>
	<path id="XMLID_23761_" d="M394.3,47.1c0,1.2-1,2.2-2.2,2.2c-1.2,0-2.2-1-2.2-2.2c0-1.2,1-2.2,2.2-2.2
		C393.3,44.8,394.3,45.8,394.3,47.1"/>
	<path id="XMLID_23760_" fill="#BDBDBD" d="M349.5,45.3c-0.5,0-0.9-0.3-1.2-0.7l-1.8-3.1c-0.2-0.4-0.2-0.9,0-1.3l1.8-3.1
		c0.2-0.4,0.7-0.7,1.2-0.7h3.6c0.5,0,0.9,0.3,1.1,0.7l1.8,3.1c0.2,0.4,0.2,0.9,0,1.3l-1.8,3.1c-0.2,0.4-0.7,0.7-1.1,0.7H349.5z"/>
	<path id="XMLID_23757_" fill="#8F8F8F" d="M353.1,36.8c0.3,0,0.7,0.2,0.8,0.5l1.8,3.1c0.2,0.3,0.2,0.7,0,1l-1.8,3.1
		c-0.2,0.3-0.5,0.5-0.8,0.5h-3.6c-0.3,0-0.7-0.2-0.8-0.5l-1.8-3.1c-0.2-0.3-0.2-0.7,0-1l1.8-3.1c0.2-0.3,0.5-0.5,0.8-0.5H353.1
		 M353.1,36.1h-3.6c-0.6,0-1.2,0.3-1.5,0.9l-1.8,3.1c-0.3,0.5-0.3,1.2,0,1.7l1.8,3.1c0.3,0.5,0.9,0.9,1.5,0.9h3.6
		c0.6,0,1.2-0.3,1.5-0.9l1.8-3.1c0.3-0.5,0.3-1.2,0-1.7l-1.8-3.1C354.3,36.4,353.7,36.1,353.1,36.1"/>
	<path id="XMLID_23756_" fill="#CECECE" d="M354.9,40.9c0,2-1.6,3.6-3.6,3.6c-2,0-3.6-1.6-3.6-3.6s1.6-3.6,3.6-3.6
		C353.3,37.3,354.9,38.9,354.9,40.9"/>
	
		<ellipse id="XMLID_23755_" fill="none" stroke="#8F8F8F" stroke-width="0.25" stroke-miterlimit="10" cx="351.3" cy="40.9" rx="3.6" ry="3.6"/>
	<path id="XMLID_23754_" fill="#414244" d="M353.6,40.9c0,1.2-1,2.2-2.2,2.2c-1.2,0-2.2-1-2.2-2.2c0-1.2,1-2.2,2.2-2.2
		C352.6,38.7,353.6,39.7,353.6,40.9"/>
	
		<ellipse id="XMLID_23753_" fill="none" stroke="#000000" stroke-width="0.25" stroke-miterlimit="10" cx="351.3" cy="40.9" rx="2.2" ry="2.2"/>
	<path id="XMLID_23752_" fill="#8F8F8F" d="M352,40.9c0,0.4-0.3,0.7-0.7,0.7c-0.4,0-0.7-0.3-0.7-0.7s0.3-0.7,0.7-0.7
		C351.7,40.2,352,40.5,352,40.9"/>
	<path id="XMLID_23751_" fill="#BDBDBD" d="M408.7,45.3c-0.5,0-0.9-0.3-1.2-0.7l-1.8-3.1c-0.2-0.4-0.2-0.9,0-1.3l1.8-3.1
		c0.2-0.4,0.7-0.7,1.2-0.7h3.6c0.5,0,0.9,0.3,1.1,0.7l1.8,3.1c0.2,0.4,0.2,0.9,0,1.3l-1.8,3.1c-0.2,0.4-0.7,0.7-1.1,0.7H408.7z"/>
	<path id="XMLID_23748_" fill="#8F8F8F" d="M412.3,36.8c0.3,0,0.7,0.2,0.8,0.5l1.8,3.1c0.2,0.3,0.2,0.7,0,1l-1.8,3.1
		c-0.2,0.3-0.5,0.5-0.8,0.5h-3.6c-0.3,0-0.7-0.2-0.8-0.5l-1.8-3.1c-0.2-0.3-0.2-0.7,0-1l1.8-3.1c0.2-0.3,0.5-0.5,0.8-0.5H412.3
		 M412.3,36.1h-3.6c-0.6,0-1.2,0.3-1.5,0.9l-1.8,3.1c-0.3,0.5-0.3,1.2,0,1.7l1.8,3.1c0.3,0.5,0.9,0.9,1.5,0.9h3.6
		c0.6,0,1.2-0.3,1.5-0.9l1.8-3.1c0.3-0.5,0.3-1.2,0-1.7l-1.8-3.1C413.5,36.4,412.9,36.1,412.3,36.1"/>
	<path id="XMLID_23747_" fill="#CECECE" d="M414.1,40.9c0,2-1.6,3.6-3.6,3.6c-2,0-3.6-1.6-3.6-3.6s1.6-3.6,3.6-3.6
		C412.5,37.3,414.1,38.9,414.1,40.9"/>
	
		<ellipse id="XMLID_23746_" fill="none" stroke="#8F8F8F" stroke-width="0.25" stroke-miterlimit="10" cx="410.5" cy="40.9" rx="3.6" ry="3.6"/>
	<path id="XMLID_23745_" fill="#414244" d="M412.7,40.9c0,1.2-1,2.2-2.2,2.2c-1.2,0-2.2-1-2.2-2.2c0-1.2,1-2.2,2.2-2.2
		C411.7,38.7,412.7,39.7,412.7,40.9"/>
	
		<ellipse id="XMLID_23744_" fill="none" stroke="#000000" stroke-width="0.25" stroke-miterlimit="10" cx="410.5" cy="40.9" rx="2.2" ry="2.2"/>
	<path id="XMLID_23743_" fill="#8F8F8F" d="M411.2,40.9c0,0.4-0.3,0.7-0.7,0.7c-0.4,0-0.7-0.3-0.7-0.7s0.3-0.7,0.7-0.7
		C410.9,40.2,411.2,40.5,411.2,40.9"/>
</g>
<g id="XMLID_24366_">
	
		<rect id="XMLID_24371_" x="289.7" y="34.4" fill="#1C1D20" stroke="#CCCCCC" stroke-width="0.5" stroke-miterlimit="10" width="35.6" height="18.1"/>
	<rect id="XMLID_24370_" x="303.7" y="34.4" fill="#ACACAF" width="7.5" height="0.9"/>
	<rect id="XMLID_24369_" x="293.8" y="38.5" fill="#5A5B55" width="27.3" height="4.9"/>
	<rect id="XMLID_24368_" x="289.7" y="34.4" fill="#ACACAF" width="2.3" height="1.8"/>
	<rect id="XMLID_24367_" x="323" y="34.4" fill="#ACACAF" width="2.3" height="1.8"/>
</g>
<g id="XMLID_24372_">
	
		<rect id="XMLID_24377_" x="242.4" y="34.4" fill="#1C1D20" stroke="#CCCCCC" stroke-width="0.5" stroke-miterlimit="10" width="35.6" height="18.1"/>
	<rect id="XMLID_24376_" x="256.4" y="34.4" fill="#ACACAF" width="7.5" height="0.9"/>
	<rect id="XMLID_24375_" x="246.5" y="38.5" fill="#5A5B55" width="27.3" height="4.9"/>
	<rect id="XMLID_24374_" x="242.4" y="34.4" fill="#ACACAF" width="2.3" height="1.8"/>
	<rect id="XMLID_24373_" x="275.7" y="34.4" fill="#ACACAF" width="2.3" height="1.8"/>
</g>
<g id="XMLID_24394_">
	<path id="XMLID_24403_" fill="#3E3A39" d="M37.7,93.3c-1.6,0-2.8-1.3-2.8-2.8V25c0-1.6,1.3-2.8,2.8-2.8h50c1.6,0,2.8,1.3,2.8,2.8
		v65.5c0,1.6-1.3,2.8-2.8,2.8H37.7z"/>
	<path id="XMLID_24402_" fill="none" stroke="#000000" stroke-width="2" stroke-miterlimit="10" d="M37.7,93.3
		c-1.6,0-2.8-1.3-2.8-2.8V25c0-1.6,1.3-2.8,2.8-2.8h50c1.6,0,2.8,1.3,2.8,2.8v65.5c0,1.6-1.3,2.8-2.8,2.8H37.7z"/>
	<polygon id="XMLID_24401_" fill="#231815" points="44.3,33.1 71.9,33.1 81,42.4 81,73.2 71.4,82.3 44.3,82.3 	"/>
	<rect id="XMLID_24400_" x="54.4" y="69" fill="#343842" width="10.4" height="3.1"/>
	<rect id="XMLID_24399_" x="54.4" y="69" fill="#8D919A" width="8.6" height="1.6"/>
	<rect id="XMLID_24398_" x="60.9" y="55.4" fill="#343842" width="10.4" height="3.1"/>
	<rect id="XMLID_24397_" x="60.9" y="55.4" fill="#8D919A" width="8.6" height="1.6"/>
	<rect id="XMLID_24396_" x="54.4" y="41.9" fill="#343842" width="10.4" height="3.1"/>
	<rect id="XMLID_24395_" x="54.4" y="41.9" fill="#8D919A" width="8.6" height="1.6"/>
</g>
<g id="XMLID_24378_">
	<g id="XMLID_24392_">
		<defs>
			<rect id="SVGID_118_" x="109.5" y="22.2" width="59.8" height="29.5"/>
		</defs>
		<clipPath id="SVGID_1_">
			<use xlink:href="#SVGID_118_"  overflow="visible"/>
		</clipPath>
		
			<linearGradient id="XMLID_4_" gradientUnits="userSpaceOnUse" x1="4871.2593" y1="2821.2871" x2="4872.2588" y2="2821.2871" gradientTransform="matrix(79.8244 0 0 -79.8244 -388746.5938 225244.5)">
			<stop  offset="0" style="stop-color:#103580"/>
			<stop  offset="0.2581" style="stop-color:#0C1D4C"/>
			<stop  offset="1" style="stop-color:#000021"/>
		</linearGradient>
		<rect id="XMLID_24393_" x="109.5" y="22.2" clip-path="url(#SVGID_1_)" fill="url(#XMLID_4_)" width="59.8" height="29.5"/>
	</g>
	<g id="XMLID_24390_">
		<defs>
			<path id="SVGID_117_" d="M167.8,22.2h-58.4c-0.3,0-0.5,0.1-0.5,0.1v30.1c0.1,0,0.2,0.1,0.5,0.1h58.4c0.3,0,0.5-0.1,0.5-0.1
				l0-30.1C168.3,22.3,168.1,22.2,167.8,22.2"/>
		</defs>
		<clipPath id="SVGID_2_">
			<use xlink:href="#SVGID_117_"  overflow="visible"/>
		</clipPath>
		
			<linearGradient id="XMLID_5_" gradientUnits="userSpaceOnUse" x1="4802.0269" y1="2642.1125" x2="4803.0269" y2="2642.1125" gradientTransform="matrix(-58.6222 0 0 58.6222 281673.0625 -154849.1563)">
			<stop  offset="0" style="stop-color:#2E2624"/>
			<stop  offset="1" style="stop-color:#342E2C"/>
		</linearGradient>
		<rect id="XMLID_24391_" x="109" y="22.2" clip-path="url(#SVGID_2_)" fill="url(#XMLID_5_)" width="59.4" height="30.3"/>
	</g>
	<path id="XMLID_24387_" d="M110,51.4V23.2h57.3v28.3H110z M169.3,52.4V22.2c0-0.6-0.7-1.1-1.5-1.1h-58.4c-0.8,0-1.5,0.5-1.5,1.1
		v30.1c0,0.6,0.7,1.1,1.5,1.1h58.4C168.7,53.4,169.3,53,169.3,52.4"/>
	<path id="XMLID_24386_" fill="#030303" d="M117.8,48c-0.6,0-1-0.3-1-0.7V27.3c0-0.4,0.5-0.7,1-0.7h41.8c0.6,0,1,0.3,1,0.7v19.9
		c0,0.4-0.5,0.7-1,0.7H117.8z"/>
	<g id="XMLID_24384_">
		<defs>
			<path id="SVGID_116_" d="M157.7,28.7c0-0.3-0.4-0.6-0.9-0.6h-18.1v18.5h18.1c0.5,0,0.9-0.3,0.9-0.6V28.7z"/>
		</defs>
		<clipPath id="SVGID_3_">
			<use xlink:href="#SVGID_116_"  overflow="visible"/>
		</clipPath>
		
			<linearGradient id="XMLID_6_" gradientUnits="userSpaceOnUse" x1="4738.5034" y1="2477.7139" x2="4739.5034" y2="2477.7139" gradientTransform="matrix(-22.6221 0 0 22.6221 107344.4922 -56013.793)">
			<stop  offset="0" style="stop-color:#261C19"/>
			<stop  offset="1" style="stop-color:#514E4E"/>
		</linearGradient>
		<rect id="XMLID_24385_" x="138.6" y="28" clip-path="url(#SVGID_3_)" fill="url(#XMLID_6_)" width="19" height="18.5"/>
	</g>
	<path id="XMLID_24383_" fill="#050505" d="M138.6,28h-18.1c-0.5,0-0.9,0.3-0.9,0.6v17.3c0,0.3,0.4,0.6,0.9,0.6h18.1V28z"/>
	<path id="XMLID_24382_" fill="#121212" d="M138.6,28h-18.1c-0.5,0-0.9,0.3-0.9,0.6v17.3c0,0.3,0.4,0.6,0.9,0.6h18.1V28z"/>
	<rect id="XMLID_24381_" x="137.9" y="28" fill="#030303" width="0.8" height="18.5"/>
	<rect id="XMLID_24380_" x="143.6" y="35.9" fill="#4D4D4D" width="9.1" height="2"/>
	
		<circle id="XMLID_24379_" fill="none" stroke="#4D4D4D" stroke-width="0.783" stroke-miterlimit="10" cx="129.1" cy="37.3" r="1.6"/>
</g>
<path id="XMLID_23741_" fill="none" stroke="#CCCCCC" stroke-miterlimit="10" d="M424.5,65.7h-189c-4.5,0-8.1-3.6-8.1-8.1V24.8
	c0-4.5,3.6-8.1,8.1-8.1h189c4.5,0,8.1,3.6,8.1,8.1v32.8C432.6,62.1,429,65.7,424.5,65.7z"/>
<g id="XMLID_24418_">
	<g id="XMLID_24423_">
		<radialGradient id="XMLID_8_" cx="108.9663" cy="85.4578" r="8.6679" gradientUnits="userSpaceOnUse">
			<stop  offset="0.6774" style="stop-color:#2B2B2B"/>
			<stop  offset="0.8441" style="stop-color:#595757"/>
			<stop  offset="1" style="stop-color:#000000"/>
		</radialGradient>
		<path id="XMLID_24429_" fill="url(#XMLID_8_)" d="M117.6,85.5c0,4.8-3.9,8.7-8.7,8.7c-4.8,0-8.7-3.9-8.7-8.7
			c0-4.8,3.9-8.7,8.7-8.7C113.8,76.8,117.6,80.7,117.6,85.5"/>
		
			<ellipse id="XMLID_24428_" fill="none" stroke="#131313" stroke-width="0.75" stroke-miterlimit="10" cx="109" cy="85.5" rx="8.7" ry="8.7"/>
		<polygon id="XMLID_24427_" fill="#0A0A0A" points="107.9,90.4 107.9,86.5 104,86.5 104,84.4 107.9,84.4 107.9,80.5 110,80.5 
			110,84.4 113.9,84.4 113.9,86.5 110,86.5 110,90.4 		"/>
		<path id="XMLID_24424_" fill="#231815" d="M109.9,80.7v3.5v0.4h0.4h3.5v1.8h-3.5h-0.4v0.4v3.5h-1.8v-3.5v-0.4h-0.4h-3.5v-1.8h3.5
			h0.4v-0.4v-3.5H109.9z M110.2,80.4h-2.5v3.8h-3.8v2.5h3.8v3.8h2.5v-3.8h3.8v-2.5h-3.8V80.4z"/>
	</g>
	<rect id="XMLID_24422_" x="107.7" y="80.4" fill="#606060" width="0.4" height="4.2"/>
	<rect id="XMLID_24421_" x="103.9" y="84.2" fill="#606060" width="4.2" height="0.4"/>
	<rect id="XMLID_24420_" x="107.7" y="80.4" fill="#494949" width="2.5" height="0.4"/>
	<rect id="XMLID_24419_" x="103.9" y="84.2" fill="#545454" width="0.4" height="2.5"/>
</g>
<g id="XMLID_24430_">
	<g id="XMLID_24435_">
		<radialGradient id="XMLID_9_" cx="172.3094" cy="85.4578" r="8.6679" gradientUnits="userSpaceOnUse">
			<stop  offset="0.6774" style="stop-color:#2B2B2B"/>
			<stop  offset="0.8441" style="stop-color:#595757"/>
			<stop  offset="1" style="stop-color:#000000"/>
		</radialGradient>
		<path id="XMLID_24441_" fill="url(#XMLID_9_)" d="M181,85.5c0,4.8-3.9,8.7-8.7,8.7c-4.8,0-8.7-3.9-8.7-8.7c0-4.8,3.9-8.7,8.7-8.7
			C177.1,76.8,181,80.7,181,85.5"/>
		
			<ellipse id="XMLID_24440_" fill="none" stroke="#131313" stroke-width="0.75" stroke-miterlimit="10" cx="172.3" cy="85.5" rx="8.7" ry="8.7"/>
		<polygon id="XMLID_24439_" fill="#0A0A0A" points="171.2,90.4 171.2,86.5 167.4,86.5 167.4,84.4 171.2,84.4 171.2,80.5 
			173.4,80.5 173.4,84.4 177.2,84.4 177.2,86.5 173.4,86.5 173.4,90.4 		"/>
		<path id="XMLID_24436_" fill="#231815" d="M173.2,80.7v3.5v0.4h0.4h3.5v1.8h-3.5h-0.4v0.4v3.5h-1.8v-3.5v-0.4h-0.4h-3.5v-1.8h3.5
			h0.4v-0.4v-3.5H173.2z M173.6,80.4h-2.5v3.8h-3.8v2.5h3.8v3.8h2.5v-3.8h3.8v-2.5h-3.8V80.4z"/>
	</g>
	<rect id="XMLID_24434_" x="171.1" y="80.4" fill="#606060" width="0.4" height="4.2"/>
	<rect id="XMLID_24433_" x="167.2" y="84.2" fill="#606060" width="4.2" height="0.4"/>
	<rect id="XMLID_24432_" x="171.1" y="80.4" fill="#494949" width="2.5" height="0.4"/>
	<rect id="XMLID_24431_" x="167.2" y="84.2" fill="#545454" width="0.4" height="2.5"/>
</g>
<path id="XMLID_24409_" d="M263.9,92.5c0-3.4,2.8-6.2,6.2-6.2s6.2,2.8,6.2,6.2c0,3.4-2.8,6.2-6.2,6.2S263.9,95.9,263.9,92.5"/>
<circle id="XMLID_24407_" fill="none" stroke="#C0C0C0" stroke-width="2" stroke-miterlimit="10" cx="270.1" cy="92.5" r="4.4"/>
<path id="XMLID_24406_" d="M268.2,92.5c0-1.1,0.9-1.9,1.9-1.9c1.1,0,1.9,0.9,1.9,1.9c0,1.1-0.9,1.9-1.9,1.9
	C269,94.4,268.2,93.6,268.2,92.5"/>
<rect id="XMLID_22217_" x="219.3" y="82.9" fill="#232323" width="19.7" height="22.5"/>
<path id="XMLID_23736_" d="M222.9,92.5c0-3.4,2.8-6.2,6.2-6.2s6.2,2.8,6.2,6.2c0,3.4-2.8,6.2-6.2,6.2S222.9,95.9,222.9,92.5"/>
<circle id="XMLID_23735_" fill="none" stroke="#C0C0C0" stroke-width="2" stroke-miterlimit="10" cx="229.1" cy="92.5" r="4.4"/>
<path id="XMLID_23734_" d="M227.2,92.5c0-1.1,0.9-1.9,1.9-1.9c1.1,0,1.9,0.9,1.9,1.9c0,1.1-0.9,1.9-1.9,1.9
	C228.1,94.4,227.2,93.6,227.2,92.5"/>
</svg>
