<?xml version="1.0" encoding="utf-8"?>
<!-- Generator: Adobe Illustrator 21.0.0, SVG Export Plug-In . SVG Version: 6.00 Build 0)  -->
<svg version="1.1" id="图层_1" xmlns="http://www.w3.org/2000/svg" xmlns:xlink="http://www.w3.org/1999/xlink" x="0px" y="0px"
	 width="1417.3px" height="252.3px" viewBox="0 0 1417.3 252.3" enable-background="new 0 0 1417.3 252.3" xml:space="preserve">
<g id="XMLID_17532_">
	<polygon id="XMLID_17405_" fill="#3D4260" points="0,0 0,126.1 0,126.1 0,252.3 1417.3,252.3 1417.3,126.1 1417.3,126.1 1417.3,0 	
		"/>
</g>
<rect id="XMLID_17531_" x="0" y="0" fill="#1C1C1C" width="63.8" height="252.3"/>
<linearGradient id="XMLID_815_" gradientUnits="userSpaceOnUse" x1="16.6626" y1="23.2314" x2="44.5693" y2="23.2314">
	<stop  offset="0" style="stop-color:#FFFFFF"/>
	<stop  offset="5.656110e-02" style="stop-color:#A3A3A4"/>
	<stop  offset="0.3372" style="stop-color:#919292"/>
	<stop  offset="0.3831" style="stop-color:#E0E0DF"/>
	<stop  offset="0.4519" style="stop-color:#C1C0C0"/>
	<stop  offset="0.9264" style="stop-color:#E0E0DF"/>
	<stop  offset="0.9745" style="stop-color:#C1C0C0"/>
</linearGradient>
<path id="XMLID_17530_" fill="url(#XMLID_815_)" d="M16.7,23.2c0,7.7,6.2,13.9,14,13.9c7.7,0,14-6.2,14-13.9c0-7.7-6.2-13.9-14-13.9
	C22.9,9.4,16.7,15.6,16.7,23.2"/>
<ellipse id="XMLID_17529_" fill="none" stroke="#121212" stroke-width="0.75" stroke-miterlimit="10" cx="30.6" cy="23.2" rx="14" ry="13.9"/>
<polygon id="XMLID_17528_" fill="#040000" points="32.3,31.1 32.3,24.9 38.5,24.9 38.5,21.5 32.3,21.5 32.3,15.4 28.9,15.4 
	28.9,21.5 22.7,21.5 22.7,24.9 28.9,24.9 28.9,31.1 "/>
<path id="XMLID_17525_" fill="#221714" d="M32,15.7v5.6v0.6h0.6h5.6v2.8h-5.6H32v0.6v5.6h-2.9v-5.6v-0.6h-0.6H23v-2.8h5.6h0.6v-0.6
	v-5.6H32z M28.6,21.2h-6.2v4h6.2v6.1h4v-6.1h6.2v-4h-6.2v-6.1h-4V21.2z"/>
<rect id="XMLID_17524_" x="32" y="15.1" fill="#606062" width="0.6" height="6.7"/>
<rect id="XMLID_17523_" x="32.1" y="21.2" fill="#606062" width="6.8" height="0.6"/>
<linearGradient id="XMLID_816_" gradientUnits="userSpaceOnUse" x1="16.6626" y1="222.8681" x2="44.5693" y2="222.8681">
	<stop  offset="0" style="stop-color:#FFFFFF"/>
	<stop  offset="5.656110e-02" style="stop-color:#A3A3A4"/>
	<stop  offset="0.3372" style="stop-color:#919292"/>
	<stop  offset="0.3831" style="stop-color:#E0E0DF"/>
	<stop  offset="0.4519" style="stop-color:#C1C0C0"/>
	<stop  offset="0.9264" style="stop-color:#E0E0DF"/>
	<stop  offset="0.9745" style="stop-color:#C1C0C0"/>
</linearGradient>
<path id="XMLID_17522_" fill="url(#XMLID_816_)" d="M16.7,222.9c0,7.7,6.2,13.9,14,13.9c7.7,0,14-6.2,14-13.9
	c0-7.7-6.2-13.9-14-13.9C22.9,209,16.7,215.2,16.7,222.9"/>
<ellipse id="XMLID_17521_" fill="none" stroke="#121212" stroke-width="0.75" stroke-miterlimit="10" cx="30.6" cy="222.9" rx="14" ry="13.9"/>
<polygon id="XMLID_17520_" fill="#040000" points="32.3,230.7 32.3,224.6 38.5,224.6 38.5,221.2 32.3,221.2 32.3,215 28.9,215 
	28.9,221.2 22.7,221.2 22.7,224.6 28.9,224.6 28.9,230.7 "/>
<path id="XMLID_17517_" fill="#221714" d="M32,215.3v5.6v0.6h0.6h5.6v2.8h-5.6H32v0.6v5.6h-2.9v-5.6v-0.6h-0.6H23v-2.8h5.6h0.6v-0.6
	v-5.6H32z M28.6,220.9h-6.2v4h6.2v6.1h4v-6.1h6.2v-4h-6.2v-6.1h-4V220.9z"/>
<rect id="XMLID_17516_" x="32" y="214.7" fill="#606062" width="0.6" height="6.7"/>
<rect id="XMLID_17515_" x="32.1" y="220.9" fill="#606062" width="6.8" height="0.6"/>
<rect id="XMLID_17514_" x="1353.5" y="0" fill="#1C1C1C" width="63.8" height="252.3"/>
<linearGradient id="XMLID_817_" gradientUnits="userSpaceOnUse" x1="546.6731" y1="-29853.3477" x2="574.5798" y2="-29853.3477" gradientTransform="matrix(-1 0 0 -1 1947.3331 -29630.082)">
	<stop  offset="0" style="stop-color:#FFFFFF"/>
	<stop  offset="5.656110e-02" style="stop-color:#A3A3A4"/>
	<stop  offset="0.3372" style="stop-color:#919292"/>
	<stop  offset="0.3831" style="stop-color:#E0E0DF"/>
	<stop  offset="0.4519" style="stop-color:#C1C0C0"/>
	<stop  offset="0.9264" style="stop-color:#E0E0DF"/>
	<stop  offset="0.9745" style="stop-color:#C1C0C0"/>
</linearGradient>
<path id="XMLID_17513_" fill="url(#XMLID_817_)" d="M1400.7,223.3c0-7.7-6.2-13.9-14-13.9c-7.7,0-14,6.2-14,13.9
	c0,7.7,6.2,13.9,14,13.9C1394.4,237.1,1400.7,230.9,1400.7,223.3"/>
<ellipse id="XMLID_17512_" fill="none" stroke="#121212" stroke-width="0.75" stroke-miterlimit="10" cx="1386.7" cy="223.3" rx="14" ry="13.9"/>
<polygon id="XMLID_17511_" fill="#040000" points="1385,215.4 1385,221.6 1378.8,221.6 1378.8,225 1385,225 1385,231.1 
	1388.4,231.1 1388.4,225 1394.6,225 1394.6,221.6 1388.4,221.6 1388.4,215.4 "/>
<path id="XMLID_17508_" fill="#221714" d="M1385.3,230.8v-5.6v-0.6h-0.6h-5.6v-2.8h5.6h0.6v-0.6v-5.6h2.9v5.6v0.6h0.6h5.6v2.8h-5.6
	h-0.6v0.6v5.6H1385.3z M1388.7,225.3h6.2v-4h-6.2v-6.1h-4v6.1h-6.2v4h6.2v6.1h4V225.3z"/>
<rect id="XMLID_17507_" x="1384.7" y="224.7" fill="#606062" width="0.6" height="6.7"/>
<rect id="XMLID_17506_" x="1378.5" y="224.7" fill="#606062" width="6.8" height="0.6"/>
<linearGradient id="XMLID_818_" gradientUnits="userSpaceOnUse" x1="546.6731" y1="-29653.7109" x2="574.5798" y2="-29653.7109" gradientTransform="matrix(-1 0 0 -1 1947.3331 -29630.082)">
	<stop  offset="0" style="stop-color:#FFFFFF"/>
	<stop  offset="5.656110e-02" style="stop-color:#A3A3A4"/>
	<stop  offset="0.3372" style="stop-color:#919292"/>
	<stop  offset="0.3831" style="stop-color:#E0E0DF"/>
	<stop  offset="0.4519" style="stop-color:#C1C0C0"/>
	<stop  offset="0.9264" style="stop-color:#E0E0DF"/>
	<stop  offset="0.9745" style="stop-color:#C1C0C0"/>
</linearGradient>
<path id="XMLID_17505_" fill="url(#XMLID_818_)" d="M1400.7,23.6c0-7.7-6.2-13.9-14-13.9c-7.7,0-14,6.2-14,13.9
	c0,7.7,6.2,13.9,14,13.9C1394.4,37.5,1400.7,31.3,1400.7,23.6"/>
<ellipse id="XMLID_17504_" fill="none" stroke="#121212" stroke-width="0.75" stroke-miterlimit="10" cx="1386.7" cy="23.6" rx="14" ry="13.9"/>
<polygon id="XMLID_17503_" fill="#040000" points="1385,15.8 1385,21.9 1378.8,21.9 1378.8,25.3 1385,25.3 1385,31.5 1388.4,31.5 
	1388.4,25.3 1394.6,25.3 1394.6,21.9 1388.4,21.9 1388.4,15.8 "/>
<path id="XMLID_17500_" fill="#221714" d="M1385.3,31.2v-5.6v-0.6h-0.6h-5.6v-2.8h5.6h0.6v-0.6v-5.6h2.9v5.6v0.6h0.6h5.6v2.8h-5.6
	h-0.6v0.6v5.6H1385.3z M1388.7,25.6h6.2v-4h-6.2v-6.1h-4v6.1h-6.2v4h6.2v6.1h4V25.6z"/>
<rect id="XMLID_17499_" x="1384.7" y="25.1" fill="#606062" width="0.6" height="6.7"/>
<rect id="XMLID_17498_" x="1378.5" y="25.1" fill="#606062" width="6.8" height="0.6"/>
<polygon id="XMLID_17372_" fill="#0E1016" points="1353.5,118.2 373.1,118.2 323.1,252.3 1353.5,252.3 "/>
<polygon id="XMLID_17374_" fill="#333333" points="1353.5,128.2 389.2,128.2 327.4,252.3 1353.5,252.3 "/>
<linearGradient id="XMLID_819_" gradientUnits="userSpaceOnUse" x1="708.6613" y1="18.1624" x2="708.6613" y2="16.1719">
	<stop  offset="0" style="stop-color:#BEBDBE"/>
	<stop  offset="0.2151" style="stop-color:#E0E0DF"/>
	<stop  offset="0.5323" style="stop-color:#C1C0C0"/>
	<stop  offset="0.8065" style="stop-color:#E0E0DF"/>
	<stop  offset="0.9871" style="stop-color:#B1B4B5"/>
</linearGradient>
<rect id="XMLID_17373_" x="63.8" y="16.2" opacity="0.5" fill="url(#XMLID_819_)" width="1289.8" height="2"/>
<linearGradient id="XMLID_823_" gradientUnits="userSpaceOnUse" x1="708.6613" y1="13.0052" x2="708.6613" y2="12.0052">
	<stop  offset="0" style="stop-color:#BEBDBE"/>
	<stop  offset="0.2151" style="stop-color:#E0E0DF"/>
	<stop  offset="0.5323" style="stop-color:#C1C0C0"/>
	<stop  offset="0.8065" style="stop-color:#E0E0DF"/>
	<stop  offset="0.9871" style="stop-color:#B1B4B5"/>
</linearGradient>
<rect id="XMLID_17375_" x="63.8" y="12" opacity="0.5" fill="url(#XMLID_823_)" width="1289.8" height="1"/>
<g id="XMLID_17473_">
	<rect id="XMLID_17475_" x="846.7" y="199.7" fill="#030000" width="43.1" height="36.6"/>
	
		<linearGradient id="XMLID_824_" gradientUnits="userSpaceOnUse" x1="889.2261" y1="176.8231" x2="931.2349" y2="176.8231" gradientTransform="matrix(-1 0 0 -1 1778.4509 394.7574)">
		<stop  offset="0" style="stop-color:#FFFFFF"/>
		<stop  offset="0.1688" style="stop-color:#B1B4B5"/>
		<stop  offset="0.4086" style="stop-color:#E0E0DF"/>
		<stop  offset="0.7581" style="stop-color:#B1B4B5"/>
		<stop  offset="1" style="stop-color:#C2C2C2"/>
	</linearGradient>
	<rect id="XMLID_17474_" x="847.2" y="200.3" fill="url(#XMLID_824_)" width="42" height="35.3"/>
</g>
<g id="XMLID_17489_">
	<rect id="XMLID_17491_" x="892.2" y="199.7" fill="#030000" width="43.1" height="36.6"/>
	
		<linearGradient id="XMLID_825_" gradientUnits="userSpaceOnUse" x1="843.715" y1="176.8231" x2="885.7238" y2="176.8231" gradientTransform="matrix(-1 0 0 -1 1778.4509 394.7574)">
		<stop  offset="0" style="stop-color:#FFFFFF"/>
		<stop  offset="0.1688" style="stop-color:#B1B4B5"/>
		<stop  offset="0.4086" style="stop-color:#E0E0DF"/>
		<stop  offset="0.7581" style="stop-color:#B1B4B5"/>
		<stop  offset="1" style="stop-color:#C2C2C2"/>
	</linearGradient>
	<rect id="XMLID_17490_" x="892.7" y="200.3" fill="url(#XMLID_825_)" width="42" height="35.3"/>
</g>
<g id="XMLID_17540_">
	<rect id="XMLID_17542_" x="937.7" y="199.7" fill="#030000" width="43.1" height="36.6"/>
	
		<linearGradient id="XMLID_826_" gradientUnits="userSpaceOnUse" x1="798.2038" y1="176.8231" x2="840.2126" y2="176.8231" gradientTransform="matrix(-1 0 0 -1 1778.4509 394.7574)">
		<stop  offset="0" style="stop-color:#FFFFFF"/>
		<stop  offset="0.1688" style="stop-color:#B1B4B5"/>
		<stop  offset="0.4086" style="stop-color:#E0E0DF"/>
		<stop  offset="0.7581" style="stop-color:#B1B4B5"/>
		<stop  offset="1" style="stop-color:#C2C2C2"/>
	</linearGradient>
	<rect id="XMLID_17541_" x="938.2" y="200.3" fill="url(#XMLID_826_)" width="42" height="35.3"/>
</g>
<g id="XMLID_17556_">
	<rect id="XMLID_17558_" x="983.2" y="199.7" fill="#030000" width="43.1" height="36.6"/>
	
		<linearGradient id="XMLID_827_" gradientUnits="userSpaceOnUse" x1="752.6927" y1="176.8231" x2="794.7015" y2="176.8231" gradientTransform="matrix(-1 0 0 -1 1778.4509 394.7574)">
		<stop  offset="0" style="stop-color:#FFFFFF"/>
		<stop  offset="0.1688" style="stop-color:#B1B4B5"/>
		<stop  offset="0.4086" style="stop-color:#E0E0DF"/>
		<stop  offset="0.7581" style="stop-color:#B1B4B5"/>
		<stop  offset="1" style="stop-color:#C2C2C2"/>
	</linearGradient>
	<rect id="XMLID_17557_" x="983.7" y="200.3" fill="url(#XMLID_827_)" width="42" height="35.3"/>
</g>
<text id="XMLID_17429_" transform="matrix(1 0 0 1 481.8882 172.2688)" fill="#E2E1E0" font-family="'MicrosoftYaHei'" font-size="7px">CONSOLE</text>
<text id="XMLID_17455_" transform="matrix(1 0 0 1 430.4188 172.2688)" fill="#E2E1E0" font-family="'MicrosoftYaHei'" font-size="7px">USB</text>
<circle id="XMLID_17456_" fill="#0F0F0F" cx="856.6" cy="190.6" r="2.8"/>
<circle id="XMLID_17561_" fill="#0F0F0F" cx="879.7" cy="190.6" r="2.8"/>
<text id="XMLID_17559_" transform="matrix(1 0 0 1 855.2839 179.7614)" fill="#EFEFEF" font-family="'MicrosoftYaHei'" font-size="10px">ETH7</text>
<circle id="XMLID_17564_" fill="#0F0F0F" cx="901.6" cy="190.6" r="2.8"/>
<circle id="XMLID_17563_" fill="#0F0F0F" cx="924.7" cy="190.6" r="2.8"/>
<text id="XMLID_17562_" transform="matrix(1 0 0 1 900.2839 179.7614)" fill="#EFEFEF" font-family="'MicrosoftYaHei'" font-size="10px">ETH6</text>
<circle id="XMLID_17567_" fill="#0F0F0F" cx="946.6" cy="190.6" r="2.8"/>
<circle id="XMLID_17566_" fill="#0F0F0F" cx="969.7" cy="190.6" r="2.8"/>
<text id="XMLID_17565_" transform="matrix(1 0 0 1 945.2839 179.7614)" fill="#EFEFEF" font-family="'MicrosoftYaHei'" font-size="10px">ETH5</text>
<circle id="XMLID_17570_" fill="#0F0F0F" cx="991.6" cy="190.6" r="2.8"/>
<circle id="XMLID_17569_" fill="#0F0F0F" cx="1014.7" cy="190.6" r="2.8"/>
<text id="XMLID_17568_" transform="matrix(1 0 0 1 990.2839 179.7614)" fill="#EFEFEF" font-family="'MicrosoftYaHei'" font-size="10px">ETH4</text>
<text id="XMLID_17678_" transform="matrix(1 0 0 1 1191.9167 85.0948)" fill="#EFEFEF" font-family="'MicrosoftYaHei'" font-size="10px">Power</text>
<text id="XMLID_17679_" transform="matrix(1 0 0 1 1144.9077 85.0948)" fill="#EFEFEF" font-family="'MicrosoftYaHei'" font-size="10px">Power</text>
<text id="XMLID_17680_" transform="matrix(1 0 0 1 1097.8987 85.0948)" fill="#EFEFEF" font-family="'MicrosoftYaHei'" font-size="10px">Power</text>
<text id="XMLID_17681_" transform="matrix(1 0 0 1 1056.8589 85.0948)" fill="#EFEFEF" font-family="'MicrosoftYaHei'" font-size="10px">SYP</text>
<text id="XMLID_17682_" transform="matrix(1 0 0 1 1011.4269 85.0948)" fill="#EFEFEF" font-family="'MicrosoftYaHei'" font-size="10px">HA</text>
<g id="XMLID_17644_">
	<rect id="XMLID_17646_" x="1085.6" y="199.7" fill="#030000" width="43.1" height="36.6"/>
	
		<linearGradient id="XMLID_828_" gradientUnits="userSpaceOnUse" x1="650.282" y1="176.8231" x2="692.2908" y2="176.8231" gradientTransform="matrix(-1 0 0 -1 1778.4509 394.7574)">
		<stop  offset="0" style="stop-color:#FFFFFF"/>
		<stop  offset="0.1688" style="stop-color:#B1B4B5"/>
		<stop  offset="0.4086" style="stop-color:#E0E0DF"/>
		<stop  offset="0.7581" style="stop-color:#B1B4B5"/>
		<stop  offset="1" style="stop-color:#C2C2C2"/>
	</linearGradient>
	<rect id="XMLID_17645_" x="1086.2" y="200.3" fill="url(#XMLID_828_)" width="42" height="35.3"/>
</g>
<g id="XMLID_17628_">
	<rect id="XMLID_17630_" x="1131.1" y="199.7" fill="#030000" width="43.1" height="36.6"/>
	
		<linearGradient id="XMLID_829_" gradientUnits="userSpaceOnUse" x1="604.7708" y1="176.8231" x2="646.7796" y2="176.8231" gradientTransform="matrix(-1 0 0 -1 1778.4509 394.7574)">
		<stop  offset="0" style="stop-color:#FFFFFF"/>
		<stop  offset="0.1688" style="stop-color:#B1B4B5"/>
		<stop  offset="0.4086" style="stop-color:#E0E0DF"/>
		<stop  offset="0.7581" style="stop-color:#B1B4B5"/>
		<stop  offset="1" style="stop-color:#C2C2C2"/>
	</linearGradient>
	<rect id="XMLID_17629_" x="1131.7" y="200.3" fill="url(#XMLID_829_)" width="42" height="35.3"/>
</g>
<g id="XMLID_17612_">
	<rect id="XMLID_17614_" x="1176.7" y="199.7" fill="#030000" width="43.1" height="36.6"/>
	
		<linearGradient id="XMLID_830_" gradientUnits="userSpaceOnUse" x1="559.2596" y1="176.8231" x2="601.2685" y2="176.8231" gradientTransform="matrix(-1 0 0 -1 1778.4509 394.7574)">
		<stop  offset="0" style="stop-color:#FFFFFF"/>
		<stop  offset="0.1688" style="stop-color:#B1B4B5"/>
		<stop  offset="0.4086" style="stop-color:#E0E0DF"/>
		<stop  offset="0.7581" style="stop-color:#B1B4B5"/>
		<stop  offset="1" style="stop-color:#C2C2C2"/>
	</linearGradient>
	<rect id="XMLID_17613_" x="1177.2" y="200.3" fill="url(#XMLID_830_)" width="42" height="35.3"/>
</g>
<g id="XMLID_17596_">
	<rect id="XMLID_17598_" x="1222.2" y="199.7" fill="#030000" width="43.1" height="36.6"/>
	
		<linearGradient id="XMLID_831_" gradientUnits="userSpaceOnUse" x1="513.7485" y1="176.8231" x2="555.7573" y2="176.8231" gradientTransform="matrix(-1 0 0 -1 1778.4509 394.7574)">
		<stop  offset="0" style="stop-color:#FFFFFF"/>
		<stop  offset="0.1688" style="stop-color:#B1B4B5"/>
		<stop  offset="0.4086" style="stop-color:#E0E0DF"/>
		<stop  offset="0.7581" style="stop-color:#B1B4B5"/>
		<stop  offset="1" style="stop-color:#C2C2C2"/>
	</linearGradient>
	<rect id="XMLID_17597_" x="1222.7" y="200.3" fill="url(#XMLID_831_)" width="42" height="35.3"/>
</g>
<circle id="XMLID_17582_" fill="#0F0F0F" cx="1095.6" cy="190.6" r="2.8"/>
<circle id="XMLID_17581_" fill="#0F0F0F" cx="1118.6" cy="190.6" r="2.8"/>
<text id="XMLID_17580_" transform="matrix(1 0 0 1 1094.228 179.7614)" fill="#EFEFEF" font-family="'MicrosoftYaHei'" font-size="10px">ETH3</text>
<circle id="XMLID_17579_" fill="#0F0F0F" cx="1140.6" cy="190.6" r="2.8"/>
<circle id="XMLID_17578_" fill="#0F0F0F" cx="1163.6" cy="190.6" r="2.8"/>
<text id="XMLID_17577_" transform="matrix(1 0 0 1 1139.228 179.7614)" fill="#EFEFEF" font-family="'MicrosoftYaHei'" font-size="10px">ETH2</text>
<circle id="XMLID_17576_" fill="#0F0F0F" cx="1185.6" cy="190.6" r="2.8"/>
<circle id="XMLID_17575_" fill="#0F0F0F" cx="1208.6" cy="190.6" r="2.8"/>
<text id="XMLID_17574_" transform="matrix(1 0 0 1 1184.228 179.7614)" fill="#EFEFEF" font-family="'MicrosoftYaHei'" font-size="10px">ETH1</text>
<circle id="XMLID_17573_" fill="#0F0F0F" cx="1230.6" cy="190.6" r="2.8"/>
<circle id="XMLID_17572_" fill="#0F0F0F" cx="1253.6" cy="190.6" r="2.8"/>
<text id="XMLID_17571_" transform="matrix(1 0 0 1 1229.228 179.7614)" fill="#EFEFEF" font-family="'MicrosoftYaHei'" font-size="10px">ETH0</text>
<text id="XMLID_17648_" transform="matrix(1 0 0 1 1125.5935 156.6028)" fill="#E2E1E0" font-family="'MicrosoftYaHei'" font-size="7px">By</text>
<polyline id="XMLID_17647_" fill="none" stroke="#E2E1E0" stroke-miterlimit="10" points="1103.4,161.9 1103.4,154.8 1114.6,154.8 
	"/>
<polyline id="XMLID_17560_" fill="none" stroke="#E2E1E0" stroke-miterlimit="10" points="1158.9,161.9 1158.9,154.8 1147.7,154.8 
	"/>
<text id="XMLID_17652_" transform="matrix(1 0 0 1 1211.0605 156.6028)" fill="#E2E1E0" font-family="'MicrosoftYaHei'" font-size="7px">By</text>
<polyline id="XMLID_17651_" fill="none" stroke="#E2E1E0" stroke-miterlimit="10" points="1188.9,161.9 1188.9,154.8 1200,154.8 "/>
<polyline id="XMLID_17650_" fill="none" stroke="#E2E1E0" stroke-miterlimit="10" points="1244.4,161.9 1244.4,154.8 1233.2,154.8 
	"/>
<rect id="XMLID_17649_" x="63.8" y="37.5" fill="#303030" width="1289.8" height="30.2"/>
<rect id="XMLID_17684_" x="63.8" y="35.5" fill="#0C0C0C" width="1289.8" height="2"/>
<radialGradient id="XMLID_832_" cx="-731.4679" cy="-12184.4707" r="6.5786" gradientTransform="matrix(-1 0 0 -1 286.1481 -12129.418)" gradientUnits="userSpaceOnUse">
	<stop  offset="0.6774" style="stop-color:#2B2B2B"/>
	<stop  offset="0.8441" style="stop-color:#595757"/>
	<stop  offset="1" style="stop-color:#000000"/>
</radialGradient>
<path id="XMLID_17657_" fill="url(#XMLID_832_)" d="M1011,55.1c0-3.6,2.9-6.6,6.6-6.6c3.6,0,6.6,2.9,6.6,6.6c0,3.6-2.9,6.6-6.6,6.6
	C1014,61.6,1011,58.7,1011,55.1"/>
<circle id="XMLID_17656_" fill="none" stroke="#131313" stroke-width="0.75" stroke-miterlimit="10" cx="1017.6" cy="55.1" r="6.6"/>
<circle id="XMLID_17653_" fill="#B5ED2E" cx="1017.6" cy="55.1" r="5"/>
<radialGradient id="XMLID_833_" cx="-778.8757" cy="-12184.4707" r="6.5786" gradientTransform="matrix(-1 0 0 -1 286.1481 -12129.418)" gradientUnits="userSpaceOnUse">
	<stop  offset="0.6774" style="stop-color:#2B2B2B"/>
	<stop  offset="0.8441" style="stop-color:#595757"/>
	<stop  offset="1" style="stop-color:#000000"/>
</radialGradient>
<path id="XMLID_17662_" fill="url(#XMLID_833_)" d="M1058.4,55.1c0-3.6,2.9-6.6,6.6-6.6s6.6,2.9,6.6,6.6c0,3.6-2.9,6.6-6.6,6.6
	S1058.4,58.7,1058.4,55.1"/>
<circle id="XMLID_17661_" fill="none" stroke="#131313" stroke-width="0.75" stroke-miterlimit="10" cx="1065" cy="55.1" r="6.6"/>
<circle id="XMLID_17658_" fill="#B5ED2E" cx="1065" cy="55.1" r="5"/>
<radialGradient id="XMLID_834_" cx="-826.2835" cy="-12184.4707" r="6.5786" gradientTransform="matrix(-1 0 0 -1 286.1481 -12129.418)" gradientUnits="userSpaceOnUse">
	<stop  offset="0.6774" style="stop-color:#2B2B2B"/>
	<stop  offset="0.8441" style="stop-color:#595757"/>
	<stop  offset="1" style="stop-color:#000000"/>
</radialGradient>
<path id="XMLID_17667_" fill="url(#XMLID_834_)" d="M1105.9,55.1c0-3.6,2.9-6.6,6.6-6.6c3.6,0,6.6,2.9,6.6,6.6
	c0,3.6-2.9,6.6-6.6,6.6C1108.8,61.6,1105.9,58.7,1105.9,55.1"/>
<circle id="XMLID_17666_" fill="none" stroke="#131313" stroke-width="0.75" stroke-miterlimit="10" cx="1112.4" cy="55.1" r="6.6"/>
<circle id="XMLID_17663_" fill="#B5ED2E" cx="1112.5" cy="55.1" r="5"/>
<radialGradient id="XMLID_835_" cx="-873.6913" cy="-12184.4707" r="6.5786" gradientTransform="matrix(-1 0 0 -1 286.1481 -12129.418)" gradientUnits="userSpaceOnUse">
	<stop  offset="0.6774" style="stop-color:#2B2B2B"/>
	<stop  offset="0.8441" style="stop-color:#595757"/>
	<stop  offset="1" style="stop-color:#000000"/>
</radialGradient>
<path id="XMLID_17672_" fill="url(#XMLID_835_)" d="M1153.3,55.1c0-3.6,2.9-6.6,6.6-6.6s6.6,2.9,6.6,6.6c0,3.6-2.9,6.6-6.6,6.6
	S1153.3,58.7,1153.3,55.1"/>
<circle id="XMLID_17671_" fill="none" stroke="#131313" stroke-width="0.75" stroke-miterlimit="10" cx="1159.8" cy="55.1" r="6.6"/>
<circle id="XMLID_17668_" fill="#B5ED2E" cx="1159.9" cy="55.1" r="5"/>
<radialGradient id="XMLID_839_" cx="-921.0991" cy="-12184.4707" r="6.5786" gradientTransform="matrix(-1 0 0 -1 286.1481 -12129.418)" gradientUnits="userSpaceOnUse">
	<stop  offset="0.6774" style="stop-color:#2B2B2B"/>
	<stop  offset="0.8441" style="stop-color:#595757"/>
	<stop  offset="1" style="stop-color:#000000"/>
</radialGradient>
<path id="XMLID_17677_" fill="url(#XMLID_839_)" d="M1200.7,55.1c0-3.6,2.9-6.6,6.6-6.6s6.6,2.9,6.6,6.6c0,3.6-2.9,6.6-6.6,6.6
	S1200.7,58.7,1200.7,55.1"/>
<circle id="XMLID_17676_" fill="none" stroke="#131313" stroke-width="0.75" stroke-miterlimit="10" cx="1207.2" cy="55.1" r="6.6"/>
<circle id="XMLID_17673_" fill="#B5ED2E" cx="1207.3" cy="55.1" r="5"/>
<circle id="XMLID_17683_" fill="#3D4260" cx="176.8" cy="52.8" r="30.2"/>
<linearGradient id="XMLID_840_" gradientUnits="userSpaceOnUse" x1="176.8332" y1="28.7258" x2="176.8332" y2="76.8925">
	<stop  offset="0" style="stop-color:#BEBDBE"/>
	<stop  offset="0.9871" style="stop-color:#161A28"/>
</linearGradient>
<circle id="XMLID_17685_" fill="url(#XMLID_840_)" cx="176.8" cy="52.8" r="24.1"/>
<circle id="XMLID_17686_" fill="#53AEF9" cx="176.8" cy="52.8" r="19.7"/>
<text id="XMLID_17688_" transform="matrix(1 0 0 1 215.7164 58.2756)" fill="#E2E1E0" font-family="'MicrosoftYaHei'" font-size="18px">SANGFOR</text>
<path id="XMLID_17689_" fill="none" stroke="#E2E1E0" stroke-miterlimit="10" d="M157.1,52.8c0,0,17.8-11.7,39.4,0"/>
<path id="XMLID_17690_" fill="none" stroke="#E2E1E0" stroke-miterlimit="10" d="M196.5,54.9c0,0-17.8,11.7-39.4,0"/>
<path id="XMLID_17691_" fill="none" stroke="#E2E1E0" stroke-miterlimit="10" d="M157.1,52.8c0,0,18-30.1,39.4,0"/>
<path id="XMLID_17692_" fill="none" stroke="#E2E1E0" stroke-miterlimit="10" d="M196.5,54.9c0,0-18,30.1-39.4,0"/>
</svg>
