<?xml version="1.0" encoding="utf-8"?>
<!-- Generator: Adobe Illustrator 21.0.0, SVG Export Plug-In . SVG Version: 6.00 Build 0)  -->
<svg version="1.1" id="图层_1" xmlns="http://www.w3.org/2000/svg" xmlns:xlink="http://www.w3.org/1999/xlink" x="0px" y="0px"
	 width="1417.3px" height="252.3px" viewBox="0 0 1417.3 252.3" enable-background="new 0 0 1417.3 252.3" xml:space="preserve">
<g id="XMLID_19979_">
	<rect id="XMLID_19984_" x="2" y="2" fill="#D1D1D1" width="1413.3" height="248.3"/>
	<path id="XMLID_19981_" fill="#2D2D2D" d="M1413.3,4v122.1v122.1H4V126.1V4H1413.3 M1417.3,0H0v126.1v126.1h1417.3V126.1V0
		L1417.3,0z"/>
</g>
<rect id="XMLID_19978_" x="0" y="0" fill="#1C1C1C" width="63.8" height="249"/>
<rect id="XMLID_19977_" x="61.3" y="0" fill="#070707" width="2.5" height="249"/>
<linearGradient id="XMLID_1003_" gradientUnits="userSpaceOnUse" x1="16.6626" y1="23.2314" x2="44.5693" y2="23.2314">
	<stop  offset="0" style="stop-color:#FFFFFF"/>
	<stop  offset="5.656110e-02" style="stop-color:#A3A3A4"/>
	<stop  offset="0.3372" style="stop-color:#919292"/>
	<stop  offset="0.3831" style="stop-color:#E0E0DF"/>
	<stop  offset="0.4519" style="stop-color:#C1C0C0"/>
	<stop  offset="0.9264" style="stop-color:#E0E0DF"/>
	<stop  offset="0.9745" style="stop-color:#C1C0C0"/>
</linearGradient>
<path id="XMLID_19976_" fill="url(#XMLID_1003_)" d="M16.7,23.2c0,7.7,6.2,13.9,14,13.9c7.7,0,14-6.2,14-13.9
	c0-7.7-6.2-13.9-14-13.9C22.9,9.4,16.7,15.6,16.7,23.2"/>
<ellipse id="XMLID_19975_" fill="none" stroke="#121212" stroke-width="0.75" stroke-miterlimit="10" cx="30.6" cy="23.2" rx="14" ry="13.9"/>
<polygon id="XMLID_19974_" fill="#040000" points="32.3,31.1 32.3,24.9 38.5,24.9 38.5,21.5 32.3,21.5 32.3,15.4 28.9,15.4 
	28.9,21.5 22.7,21.5 22.7,24.9 28.9,24.9 28.9,31.1 "/>
<path id="XMLID_19971_" fill="#221714" d="M32,15.7v5.6v0.6h0.6h5.6v2.8h-5.6H32v0.6v5.6h-2.9v-5.6v-0.6h-0.6H23v-2.8h5.6h0.6v-0.6
	v-5.6H32z M28.6,21.2h-6.2v4h6.2v6.1h4v-6.1h6.2v-4h-6.2v-6.1h-4V21.2z"/>
<rect id="XMLID_19970_" x="32" y="15.1" fill="#606062" width="0.6" height="6.7"/>
<rect id="XMLID_19969_" x="32.1" y="21.2" fill="#606062" width="6.8" height="0.6"/>
<linearGradient id="XMLID_1005_" gradientUnits="userSpaceOnUse" x1="16.6626" y1="222.8681" x2="44.5693" y2="222.8681">
	<stop  offset="0" style="stop-color:#FFFFFF"/>
	<stop  offset="5.656110e-02" style="stop-color:#A3A3A4"/>
	<stop  offset="0.3372" style="stop-color:#919292"/>
	<stop  offset="0.3831" style="stop-color:#E0E0DF"/>
	<stop  offset="0.4519" style="stop-color:#C1C0C0"/>
	<stop  offset="0.9264" style="stop-color:#E0E0DF"/>
	<stop  offset="0.9745" style="stop-color:#C1C0C0"/>
</linearGradient>
<path id="XMLID_19968_" fill="url(#XMLID_1005_)" d="M16.7,222.9c0,7.7,6.2,13.9,14,13.9c7.7,0,14-6.2,14-13.9
	c0-7.7-6.2-13.9-14-13.9C22.9,209,16.7,215.2,16.7,222.9"/>
<ellipse id="XMLID_19967_" fill="none" stroke="#121212" stroke-width="0.75" stroke-miterlimit="10" cx="30.6" cy="222.9" rx="14" ry="13.9"/>
<polygon id="XMLID_19966_" fill="#040000" points="32.3,230.7 32.3,224.6 38.5,224.6 38.5,221.2 32.3,221.2 32.3,215 28.9,215 
	28.9,221.2 22.7,221.2 22.7,224.6 28.9,224.6 28.9,230.7 "/>
<path id="XMLID_19963_" fill="#221714" d="M32,215.3v5.6v0.6h0.6h5.6v2.8h-5.6H32v0.6v5.6h-2.9v-5.6v-0.6h-0.6H23v-2.8h5.6h0.6v-0.6
	v-5.6H32z M28.6,220.9h-6.2v4h6.2v6.1h4v-6.1h6.2v-4h-6.2v-6.1h-4V220.9z"/>
<rect id="XMLID_19962_" x="32" y="214.7" fill="#606062" width="0.6" height="6.7"/>
<rect id="XMLID_19961_" x="32.1" y="220.9" fill="#606062" width="6.8" height="0.6"/>
<rect id="XMLID_19960_" x="1353.5" y="0" fill="#1C1C1C" width="63.8" height="249"/>
<rect id="XMLID_19959_" x="1353.5" y="0" transform="matrix(-1 1.758028e-10 -1.758028e-10 -1 2709.5903 248.9883)" fill="#070707" width="2.5" height="249"/>
<linearGradient id="XMLID_1006_" gradientUnits="userSpaceOnUse" x1="-7278.626" y1="-7508.2397" x2="-7250.7192" y2="-7508.2397" gradientTransform="matrix(-1 0 0 -1 -5877.9658 -7284.9731)">
	<stop  offset="0" style="stop-color:#FFFFFF"/>
	<stop  offset="5.656110e-02" style="stop-color:#A3A3A4"/>
	<stop  offset="0.3372" style="stop-color:#919292"/>
	<stop  offset="0.3831" style="stop-color:#E0E0DF"/>
	<stop  offset="0.4519" style="stop-color:#C1C0C0"/>
	<stop  offset="0.9264" style="stop-color:#E0E0DF"/>
	<stop  offset="0.9745" style="stop-color:#C1C0C0"/>
</linearGradient>
<path id="XMLID_19958_" fill="url(#XMLID_1006_)" d="M1400.7,223.3c0-7.7-6.2-13.9-14-13.9c-7.7,0-14,6.2-14,13.9
	c0,7.7,6.2,13.9,14,13.9C1394.4,237.1,1400.7,230.9,1400.7,223.3"/>
<ellipse id="XMLID_19957_" fill="none" stroke="#121212" stroke-width="0.75" stroke-miterlimit="10" cx="1386.7" cy="223.3" rx="14" ry="13.9"/>
<polygon id="XMLID_19956_" fill="#040000" points="1385,215.4 1385,221.6 1378.8,221.6 1378.8,225 1385,225 1385,231.1 
	1388.4,231.1 1388.4,225 1394.6,225 1394.6,221.6 1388.4,221.6 1388.4,215.4 "/>
<path id="XMLID_19953_" fill="#221714" d="M1385.3,230.8v-5.6v-0.6h-0.6h-5.6v-2.8h5.6h0.6v-0.6v-5.6h2.9v5.6v0.6h0.6h5.6v2.8h-5.6
	h-0.6v0.6v5.6H1385.3z M1388.7,225.3h6.2v-4h-6.2v-6.1h-4v6.1h-6.2v4h6.2v6.1h4V225.3z"/>
<rect id="XMLID_19952_" x="1384.7" y="224.7" fill="#606062" width="0.6" height="6.7"/>
<rect id="XMLID_19951_" x="1378.5" y="224.7" fill="#606062" width="6.8" height="0.6"/>
<linearGradient id="XMLID_1008_" gradientUnits="userSpaceOnUse" x1="-7278.626" y1="-7308.6035" x2="-7250.7192" y2="-7308.6035" gradientTransform="matrix(-1 0 0 -1 -5877.9658 -7284.9731)">
	<stop  offset="0" style="stop-color:#FFFFFF"/>
	<stop  offset="5.656110e-02" style="stop-color:#A3A3A4"/>
	<stop  offset="0.3372" style="stop-color:#919292"/>
	<stop  offset="0.3831" style="stop-color:#E0E0DF"/>
	<stop  offset="0.4519" style="stop-color:#C1C0C0"/>
	<stop  offset="0.9264" style="stop-color:#E0E0DF"/>
	<stop  offset="0.9745" style="stop-color:#C1C0C0"/>
</linearGradient>
<path id="XMLID_19950_" fill="url(#XMLID_1008_)" d="M1400.7,23.6c0-7.7-6.2-13.9-14-13.9c-7.7,0-14,6.2-14,13.9
	c0,7.7,6.2,13.9,14,13.9C1394.4,37.5,1400.7,31.3,1400.7,23.6"/>
<ellipse id="XMLID_19949_" fill="none" stroke="#121212" stroke-width="0.75" stroke-miterlimit="10" cx="1386.7" cy="23.6" rx="14" ry="13.9"/>
<polygon id="XMLID_19948_" fill="#040000" points="1385,15.8 1385,21.9 1378.8,21.9 1378.8,25.3 1385,25.3 1385,31.5 1388.4,31.5 
	1388.4,25.3 1394.6,25.3 1394.6,21.9 1388.4,21.9 1388.4,15.8 "/>
<path id="XMLID_19945_" fill="#221714" d="M1385.3,31.2v-5.6v-0.6h-0.6h-5.6v-2.8h5.6h0.6v-0.6v-5.6h2.9v5.6v0.6h0.6h5.6v2.8h-5.6
	h-0.6v0.6v5.6H1385.3z M1388.7,25.6h6.2v-4h-6.2v-6.1h-4v6.1h-6.2v4h6.2v6.1h4V25.6z"/>
<rect id="XMLID_19944_" x="1384.7" y="25.1" fill="#606062" width="0.6" height="6.7"/>
<rect id="XMLID_19943_" x="1378.5" y="25.1" fill="#606062" width="6.8" height="0.6"/>
<text id="XMLID_19900_" transform="matrix(1 0 0 1 444.6782 180.1463)" font-family="'MicrosoftYaHei'" font-size="10px">USB</text>
<text id="XMLID_19889_" transform="matrix(1 0 0 1 695.3769 179.5923)" font-family="'MicrosoftYaHei'" font-size="10px">LAN5</text>
<text id="XMLID_19878_" transform="matrix(1 0 0 1 752.6132 179.5923)" font-family="'MicrosoftYaHei'" font-size="10px">LAN4</text>
<text id="XMLID_19867_" transform="matrix(1 0 0 1 809.85 179.5923)" font-family="'MicrosoftYaHei'" font-size="10px">LAN3</text>
<text id="XMLID_19856_" transform="matrix(1 0 0 1 867.0862 179.5923)" font-family="'MicrosoftYaHei'" font-size="10px">LAN2</text>
<text id="XMLID_19994_" transform="matrix(1 0 0 1 991.1552 179.5923)" font-family="'MicrosoftYaHei'" font-size="10px">LAN0</text>
<text id="XMLID_19993_" transform="matrix(1 0 0 1 1048.3914 179.5923)" font-family="'MicrosoftYaHei'" font-size="10px">LAN1</text>
<g id="XMLID_19683_">
	
		<text id="XMLID_19687_" transform="matrix(1 0 0 1 136.0632 94.0439)" fill="#286B36" font-family="'MicrosoftYaHei-Bold'" font-size="41.6184px">ETHER</text>
	<path id="XMLID_19684_" fill="#243159" d="M120.5,50.8l-39,41.5L79.7,94h17.7l8.1-8.9h16.6l-2.4,8.9h17.2l8.1-43.3H120.5z
		 M127,74.7h-12.3l14-16.4h2.6L127,74.7z"/>
</g>
<linearGradient id="XMLID_1009_" gradientUnits="userSpaceOnUse" x1="-3403.9216" y1="-3026.7622" x2="-3392.6079" y2="-3026.7622" gradientTransform="matrix(4.489700e-11 -1 1 4.489700e-11 3412.4871 -3197.4529)">
	<stop  offset="0" style="stop-color:#FFFFFF"/>
	<stop  offset="1" style="stop-color:#7F7F7F"/>
</linearGradient>
<circle id="XMLID_19680_" fill="url(#XMLID_1009_)" cx="385.7" cy="200.8" r="5.7"/>
<g id="XMLID_19677_">
	<defs>
		<path id="XMLID_19678_" d="M380.6,200.8c0,2.8,2.3,5.1,5.1,5.1c2.8,0,5.1-2.3,5.1-5.1c0-2.8-2.3-5.1-5.1-5.1
			C382.9,195.7,380.6,198,380.6,200.8"/>
	</defs>
	<clipPath id="XMLID_1010_">
		<use xlink:href="#XMLID_19678_"  overflow="visible"/>
	</clipPath>
	
		<radialGradient id="XMLID_1011_" cx="2464.0715" cy="3864.3525" r="0.481" gradientTransform="matrix(8.2859 0 0 8.2859 -20032.5723 -31820.6406)" gradientUnits="userSpaceOnUse">
		<stop  offset="0" style="stop-color:#FFFFFF"/>
		<stop  offset="1" style="stop-color:#8DC21F"/>
	</radialGradient>
	<rect id="XMLID_19679_" x="380.6" y="195.7" clip-path="url(#XMLID_1010_)" fill="url(#XMLID_1011_)" width="10.2" height="10.2"/>
</g>
<g id="XMLID_19673_" opacity="0.5" enable-background="new    ">
	<g id="XMLID_19674_">
		<defs>
			<rect id="XMLID_19675_" x="383.4" y="198.5" width="1.7" height="1.7"/>
		</defs>
		<clipPath id="XMLID_1099_">
			<use xlink:href="#XMLID_19675_"  overflow="visible"/>
		</clipPath>
		<rect id="XMLID_19676_" x="383.4" y="198.5" clip-path="url(#XMLID_1099_)" fill="#FFFFFF" width="1.7" height="1.7"/>
	</g>
</g>
<g id="XMLID_19669_" opacity="0.5" enable-background="new    ">
	<g id="XMLID_19670_">
		<defs>
			<rect id="XMLID_19671_" x="383.4" y="198.5" width="0.9" height="1.7"/>
		</defs>
		<clipPath id="XMLID_1101_">
			<use xlink:href="#XMLID_19671_"  overflow="visible"/>
		</clipPath>
		<rect id="XMLID_19672_" x="383.4" y="198.5" clip-path="url(#XMLID_1101_)" fill="#FFFFFF" width="0.9" height="1.7"/>
	</g>
</g>
<text id="XMLID_19668_" transform="matrix(1 0 0 1 345.2599 202.153)" font-family="'MicrosoftYaHei'" font-size="7.1488px">POWER</text>
<linearGradient id="XMLID_1102_" gradientUnits="userSpaceOnUse" x1="-3426.3713" y1="-3026.7622" x2="-3415.0576" y2="-3026.7622" gradientTransform="matrix(4.489700e-11 -1 1 4.489700e-11 3412.4871 -3197.4529)">
	<stop  offset="0" style="stop-color:#FFFFFF"/>
	<stop  offset="1" style="stop-color:#7F7F7F"/>
</linearGradient>
<circle id="XMLID_19625_" fill="url(#XMLID_1102_)" cx="385.7" cy="223.3" r="5.7"/>
<g id="XMLID_19622_">
	<defs>
		<path id="XMLID_19623_" d="M380.6,223.3c0,2.8,2.3,5.1,5.1,5.1c2.8,0,5.1-2.3,5.1-5.1c0-2.8-2.3-5.1-5.1-5.1
			C382.9,218.2,380.6,220.4,380.6,223.3"/>
	</defs>
	<clipPath id="XMLID_1104_">
		<use xlink:href="#XMLID_19623_"  overflow="visible"/>
	</clipPath>
	
		<radialGradient id="XMLID_1105_" cx="2464.0715" cy="3867.062" r="0.481" gradientTransform="matrix(8.2859 0 0 8.2859 -20032.5723 -31820.6406)" gradientUnits="userSpaceOnUse">
		<stop  offset="0" style="stop-color:#FFFFFF"/>
		<stop  offset="1" style="stop-color:#8DC21F"/>
	</radialGradient>
	<rect id="XMLID_19624_" x="380.6" y="218.2" clip-path="url(#XMLID_1104_)" fill="url(#XMLID_1105_)" width="10.2" height="10.2"/>
</g>
<g id="XMLID_19615_" opacity="0.5" enable-background="new    ">
	<g id="XMLID_19617_">
		<defs>
			<rect id="XMLID_19619_" x="383.4" y="220.9" width="1.7" height="1.7"/>
		</defs>
		<clipPath id="XMLID_1106_">
			<use xlink:href="#XMLID_19619_"  overflow="visible"/>
		</clipPath>
		<rect id="XMLID_19620_" x="383.4" y="220.9" clip-path="url(#XMLID_1106_)" fill="#FFFFFF" width="1.7" height="1.7"/>
	</g>
</g>
<g id="XMLID_19587_" opacity="0.5" enable-background="new    ">
	<g id="XMLID_19588_">
		<defs>
			<rect id="XMLID_19593_" x="383.4" y="220.9" width="0.9" height="1.7"/>
		</defs>
		<clipPath id="XMLID_1109_">
			<use xlink:href="#XMLID_19593_"  overflow="visible"/>
		</clipPath>
		<rect id="XMLID_19594_" x="383.4" y="220.9" clip-path="url(#XMLID_1109_)" fill="#FFFFFF" width="0.9" height="1.7"/>
	</g>
</g>
<text id="XMLID_19581_" transform="matrix(1 0 0 1 350.8004 224.6027)" font-family="'MicrosoftYaHei'" font-size="7.1488px">HDD</text>
<text id="XMLID_19580_" transform="matrix(1 0 0 1 1141.0864 70.3357)" font-family="'MicrosoftYaHei-Bold'" font-size="27.0548px" letter-spacing="2">NODE200E</text>
<text id="XMLID_2081_" transform="matrix(1 0 0 1 504.737 190.0874)" font-family="'MicrosoftYaHei'" font-size="8px">CONSOLE</text>
</svg>
