<?xml version="1.0" encoding="utf-8"?>
<!-- Generator: Adobe Illustrator 21.0.0, SVG Export Plug-In . SVG Version: 6.00 Build 0)  -->
<svg version="1.1" id="图层_1" xmlns="http://www.w3.org/2000/svg" xmlns:xlink="http://www.w3.org/1999/xlink" x="0px" y="0px"
	 width="1275.6px" height="635.3px" viewBox="0 0 1275.6 635.3" enable-background="new 0 0 1275.6 635.3" xml:space="preserve">
<g id="XMLID_3775_">
	<rect id="XMLID_3813_" x="1" y="1" fill="#232426" width="1273.6" height="633.3"/>
	<g id="XMLID_3806_">
		<path id="XMLID_3807_" d="M1273.6,2v63.3v65.3v126.1V383v126.1v124.1H2V509.1V383V256.8V130.7V65.3V2H1273.6 M1275.6,0H0v65.3
			v65.3v126.1V383v126.1v126.1h1275.6V509.1V383V256.8V130.7V65.3V0L1275.6,0z"/>
	</g>
</g>
<g id="XMLID_1_">
	<g id="XMLID_3785_">
		<radialGradient id="XMLID_100_" cx="40.6927" cy="9.8867" r="5.7267" gradientUnits="userSpaceOnUse">
			<stop  offset="0.6774" style="stop-color:#2B2B2B"/>
			<stop  offset="0.8441" style="stop-color:#595757"/>
			<stop  offset="1" style="stop-color:#000000"/>
		</radialGradient>
		<path id="XMLID_3794_" fill="url(#XMLID_100_)" d="M46.4,9.9c0,3.2-2.6,5.7-5.7,5.7c-3.2,0-5.7-2.6-5.7-5.7c0-3.2,2.6-5.7,5.7-5.7
			C43.9,4.2,46.4,6.7,46.4,9.9"/>
		<circle id="XMLID_3793_" fill="none" stroke="#131313" stroke-width="0.75" stroke-miterlimit="10" cx="40.7" cy="9.9" r="5.7"/>
		<polygon id="XMLID_3792_" fill="#0A0A0A" points="40,13.1 40,10.6 37.4,10.6 37.4,9.2 40,9.2 40,6.6 41.4,6.6 41.4,9.2 43.9,9.2 
			43.9,10.6 41.4,10.6 41.4,13.1 		"/>
		<path id="XMLID_3786_" fill="#231815" d="M41.3,6.8v2.3v0.2h0.2h2.3v1.2h-2.3h-0.2v0.2V13h-1.2v-2.3v-0.2h-0.2h-2.3V9.3h2.3h0.2
			V9.1V6.8H41.3z M41.5,6.5h-1.7v2.5h-2.5v1.7h2.5v2.5h1.7v-2.5h2.5V9.1h-2.5V6.5z"/>
	</g>
	<rect id="XMLID_3784_" x="39.9" y="6.5" fill="#606060" width="0.2" height="2.8"/>
	<rect id="XMLID_3781_" x="37.3" y="9.1" fill="#606060" width="2.8" height="0.2"/>
	<rect id="XMLID_3780_" x="39.9" y="6.5" fill="#494949" width="1.7" height="0.2"/>
	<rect id="XMLID_3576_" x="37.3" y="9.1" fill="#545454" width="0.2" height="1.7"/>
</g>
<g id="XMLID_3796_">
	<g id="XMLID_3816_">
		<radialGradient id="XMLID_101_" cx="211.2637" cy="9.8867" r="5.7267" gradientUnits="userSpaceOnUse">
			<stop  offset="0.6774" style="stop-color:#2B2B2B"/>
			<stop  offset="0.8441" style="stop-color:#595757"/>
			<stop  offset="1" style="stop-color:#000000"/>
		</radialGradient>
		<path id="XMLID_3828_" fill="url(#XMLID_101_)" d="M217,9.9c0,3.2-2.6,5.7-5.7,5.7c-3.2,0-5.7-2.6-5.7-5.7c0-3.2,2.6-5.7,5.7-5.7
			C214.4,4.2,217,6.7,217,9.9"/>
		<circle id="XMLID_3827_" fill="none" stroke="#131313" stroke-width="0.75" stroke-miterlimit="10" cx="211.3" cy="9.9" r="5.7"/>
		<polygon id="XMLID_3826_" fill="#0A0A0A" points="210.6,13.1 210.6,10.6 208,10.6 208,9.2 210.6,9.2 210.6,6.6 212,6.6 212,9.2 
			214.5,9.2 214.5,10.6 212,10.6 212,13.1 		"/>
		<path id="XMLID_3817_" fill="#231815" d="M211.9,6.8v2.3v0.2h0.2h2.3v1.2h-2.3h-0.2v0.2V13h-1.2v-2.3v-0.2h-0.2h-2.3V9.3h2.3h0.2
			V9.1V6.8H211.9z M212.1,6.5h-1.7v2.5h-2.5v1.7h2.5v2.5h1.7v-2.5h2.5V9.1h-2.5V6.5z"/>
	</g>
	<rect id="XMLID_3815_" x="210.4" y="6.5" fill="#606060" width="0.2" height="2.8"/>
	<rect id="XMLID_3814_" x="207.9" y="9.1" fill="#606060" width="2.8" height="0.2"/>
	<rect id="XMLID_3802_" x="210.4" y="6.5" fill="#494949" width="1.7" height="0.2"/>
	<rect id="XMLID_3801_" x="207.9" y="9.1" fill="#545454" width="0.2" height="1.7"/>
</g>
<g id="XMLID_3829_">
	<g id="XMLID_3837_">
		<radialGradient id="XMLID_102_" cx="381.8347" cy="9.8867" r="5.7267" gradientUnits="userSpaceOnUse">
			<stop  offset="0.6774" style="stop-color:#2B2B2B"/>
			<stop  offset="0.8441" style="stop-color:#595757"/>
			<stop  offset="1" style="stop-color:#000000"/>
		</radialGradient>
		<path id="XMLID_3849_" fill="url(#XMLID_102_)" d="M387.6,9.9c0,3.2-2.6,5.7-5.7,5.7c-3.2,0-5.7-2.6-5.7-5.7
			c0-3.2,2.6-5.7,5.7-5.7C385,4.2,387.6,6.7,387.6,9.9"/>
		<circle id="XMLID_3848_" fill="none" stroke="#131313" stroke-width="0.75" stroke-miterlimit="10" cx="381.8" cy="9.9" r="5.7"/>
		<polygon id="XMLID_3847_" fill="#0A0A0A" points="381.1,13.1 381.1,10.6 378.6,10.6 378.6,9.2 381.1,9.2 381.1,6.6 382.5,6.6 
			382.5,9.2 385.1,9.2 385.1,10.6 382.5,10.6 382.5,13.1 		"/>
		<path id="XMLID_3838_" fill="#231815" d="M382.4,6.8v2.3v0.2h0.2h2.3v1.2h-2.3h-0.2v0.2V13h-1.2v-2.3v-0.2H381h-2.3V9.3h2.3h0.2
			V9.1V6.8H382.4z M382.7,6.5H381v2.5h-2.5v1.7h2.5v2.5h1.7v-2.5h2.5V9.1h-2.5V6.5z"/>
	</g>
	<rect id="XMLID_3836_" x="381" y="6.5" fill="#606060" width="0.2" height="2.8"/>
	<rect id="XMLID_3835_" x="378.5" y="9.1" fill="#606060" width="2.8" height="0.2"/>
	<rect id="XMLID_3834_" x="381" y="6.5" fill="#494949" width="1.7" height="0.2"/>
	<rect id="XMLID_3833_" x="378.5" y="9.1" fill="#545454" width="0.2" height="1.7"/>
</g>
<g id="XMLID_3850_">
	<g id="XMLID_3858_">
		<radialGradient id="XMLID_103_" cx="552.4057" cy="9.8867" r="5.7267" gradientUnits="userSpaceOnUse">
			<stop  offset="0.6774" style="stop-color:#2B2B2B"/>
			<stop  offset="0.8441" style="stop-color:#595757"/>
			<stop  offset="1" style="stop-color:#000000"/>
		</radialGradient>
		<path id="XMLID_3877_" fill="url(#XMLID_103_)" d="M558.1,9.9c0,3.2-2.6,5.7-5.7,5.7s-5.7-2.6-5.7-5.7c0-3.2,2.6-5.7,5.7-5.7
			S558.1,6.7,558.1,9.9"/>
		<circle id="XMLID_3876_" fill="none" stroke="#131313" stroke-width="0.75" stroke-miterlimit="10" cx="552.4" cy="9.9" r="5.7"/>
		<polygon id="XMLID_3875_" fill="#0A0A0A" points="551.7,13.1 551.7,10.6 549.2,10.6 549.2,9.2 551.7,9.2 551.7,6.6 553.1,6.6 
			553.1,9.2 555.7,9.2 555.7,10.6 553.1,10.6 553.1,13.1 		"/>
		<path id="XMLID_3859_" fill="#231815" d="M553,6.8v2.3v0.2h0.2h2.3v1.2h-2.3H553v0.2V13h-1.2v-2.3v-0.2h-0.2h-2.3V9.3h2.3h0.2V9.1
			V6.8H553z M553.2,6.5h-1.7v2.5H549v1.7h2.5v2.5h1.7v-2.5h2.5V9.1h-2.5V6.5z"/>
	</g>
	<rect id="XMLID_3857_" x="551.6" y="6.5" fill="#606060" width="0.2" height="2.8"/>
	<rect id="XMLID_3856_" x="549" y="9.1" fill="#606060" width="2.8" height="0.2"/>
	<rect id="XMLID_3855_" x="551.6" y="6.5" fill="#494949" width="1.7" height="0.2"/>
	<rect id="XMLID_3854_" x="549" y="9.1" fill="#545454" width="0.2" height="1.7"/>
</g>
<g id="XMLID_3878_">
	<g id="XMLID_4063_">
		<radialGradient id="XMLID_104_" cx="722.9767" cy="9.8867" r="5.7267" gradientUnits="userSpaceOnUse">
			<stop  offset="0.6774" style="stop-color:#2B2B2B"/>
			<stop  offset="0.8441" style="stop-color:#595757"/>
			<stop  offset="1" style="stop-color:#000000"/>
		</radialGradient>
		<path id="XMLID_4069_" fill="url(#XMLID_104_)" d="M728.7,9.9c0,3.2-2.6,5.7-5.7,5.7s-5.7-2.6-5.7-5.7c0-3.2,2.6-5.7,5.7-5.7
			S728.7,6.7,728.7,9.9"/>
		<circle id="XMLID_4068_" fill="none" stroke="#131313" stroke-width="0.75" stroke-miterlimit="10" cx="723" cy="9.9" r="5.7"/>
		<polygon id="XMLID_4067_" fill="#0A0A0A" points="722.3,13.1 722.3,10.6 719.7,10.6 719.7,9.2 722.3,9.2 722.3,6.6 723.7,6.6 
			723.7,9.2 726.2,9.2 726.2,10.6 723.7,10.6 723.7,13.1 		"/>
		<path id="XMLID_4064_" fill="#231815" d="M723.6,6.8v2.3v0.2h0.2h2.3v1.2h-2.3h-0.2v0.2V13h-1.2v-2.3v-0.2h-0.2h-2.3V9.3h2.3h0.2
			V9.1V6.8H723.6z M723.8,6.5h-1.7v2.5h-2.5v1.7h2.5v2.5h1.7v-2.5h2.5V9.1h-2.5V6.5z"/>
	</g>
	<rect id="XMLID_4062_" x="722.1" y="6.5" fill="#606060" width="0.2" height="2.8"/>
	<rect id="XMLID_4061_" x="719.6" y="9.1" fill="#606060" width="2.8" height="0.2"/>
	<rect id="XMLID_4060_" x="722.1" y="6.5" fill="#494949" width="1.7" height="0.2"/>
	<rect id="XMLID_3880_" x="719.6" y="9.1" fill="#545454" width="0.2" height="1.7"/>
</g>
<g id="XMLID_4070_">
	<g id="XMLID_4075_">
		<radialGradient id="XMLID_105_" cx="893.5477" cy="9.8867" r="5.7267" gradientUnits="userSpaceOnUse">
			<stop  offset="0.6774" style="stop-color:#2B2B2B"/>
			<stop  offset="0.8441" style="stop-color:#595757"/>
			<stop  offset="1" style="stop-color:#000000"/>
		</radialGradient>
		<path id="XMLID_4081_" fill="url(#XMLID_105_)" d="M899.3,9.9c0,3.2-2.6,5.7-5.7,5.7c-3.2,0-5.7-2.6-5.7-5.7
			c0-3.2,2.6-5.7,5.7-5.7C896.7,4.2,899.3,6.7,899.3,9.9"/>
		<circle id="XMLID_4080_" fill="none" stroke="#131313" stroke-width="0.75" stroke-miterlimit="10" cx="893.5" cy="9.9" r="5.7"/>
		<polygon id="XMLID_4079_" fill="#0A0A0A" points="892.8,13.1 892.8,10.6 890.3,10.6 890.3,9.2 892.8,9.2 892.8,6.6 894.3,6.6 
			894.3,9.2 896.8,9.2 896.8,10.6 894.3,10.6 894.3,13.1 		"/>
		<path id="XMLID_4076_" fill="#231815" d="M894.1,6.8v2.3v0.2h0.2h2.3v1.2h-2.3h-0.2v0.2V13H893v-2.3v-0.2h-0.2h-2.3V9.3h2.3h0.2
			V9.1V6.8H894.1z M894.4,6.5h-1.7v2.5h-2.5v1.7h2.5v2.5h1.7v-2.5h2.5V9.1h-2.5V6.5z"/>
	</g>
	<rect id="XMLID_4074_" x="892.7" y="6.5" fill="#606060" width="0.2" height="2.8"/>
	<rect id="XMLID_4073_" x="890.2" y="9.1" fill="#606060" width="2.8" height="0.2"/>
	<rect id="XMLID_4072_" x="892.7" y="6.5" fill="#494949" width="1.7" height="0.2"/>
	<rect id="XMLID_4071_" x="890.2" y="9.1" fill="#545454" width="0.2" height="1.7"/>
</g>
<g id="XMLID_4082_">
	<g id="XMLID_4087_">
		<radialGradient id="XMLID_106_" cx="1064.1187" cy="9.8867" r="5.7267" gradientUnits="userSpaceOnUse">
			<stop  offset="0.6774" style="stop-color:#2B2B2B"/>
			<stop  offset="0.8441" style="stop-color:#595757"/>
			<stop  offset="1" style="stop-color:#000000"/>
		</radialGradient>
		<path id="XMLID_4093_" fill="url(#XMLID_106_)" d="M1069.8,9.9c0,3.2-2.6,5.7-5.7,5.7c-3.2,0-5.7-2.6-5.7-5.7
			c0-3.2,2.6-5.7,5.7-5.7C1067.3,4.2,1069.8,6.7,1069.8,9.9"/>
		
			<circle id="XMLID_4092_" fill="none" stroke="#131313" stroke-width="0.75" stroke-miterlimit="10" cx="1064.1" cy="9.9" r="5.7"/>
		<polygon id="XMLID_4091_" fill="#0A0A0A" points="1063.4,13.1 1063.4,10.6 1060.9,10.6 1060.9,9.2 1063.4,9.2 1063.4,6.6 
			1064.8,6.6 1064.8,9.2 1067.4,9.2 1067.4,10.6 1064.8,10.6 1064.8,13.1 		"/>
		<path id="XMLID_4088_" fill="#231815" d="M1064.7,6.8v2.3v0.2h0.2h2.3v1.2h-2.3h-0.2v0.2V13h-1.2v-2.3v-0.2h-0.2h-2.3V9.3h2.3h0.2
			V9.1V6.8H1064.7z M1064.9,6.5h-1.7v2.5h-2.5v1.7h2.5v2.5h1.7v-2.5h2.5V9.1h-2.5V6.5z"/>
	</g>
	<rect id="XMLID_4086_" x="1063.3" y="6.5" fill="#606060" width="0.2" height="2.8"/>
	<rect id="XMLID_4085_" x="1060.8" y="9.1" fill="#606060" width="2.8" height="0.2"/>
	<rect id="XMLID_4084_" x="1063.3" y="6.5" fill="#494949" width="1.7" height="0.2"/>
	<rect id="XMLID_4083_" x="1060.8" y="9.1" fill="#545454" width="0.2" height="1.7"/>
</g>
<g id="XMLID_4094_">
	<g id="XMLID_4099_">
		<radialGradient id="XMLID_107_" cx="1234.6897" cy="9.8867" r="5.7267" gradientUnits="userSpaceOnUse">
			<stop  offset="0.6774" style="stop-color:#2B2B2B"/>
			<stop  offset="0.8441" style="stop-color:#595757"/>
			<stop  offset="1" style="stop-color:#000000"/>
		</radialGradient>
		<path id="XMLID_4105_" fill="url(#XMLID_107_)" d="M1240.4,9.9c0,3.2-2.6,5.7-5.7,5.7c-3.2,0-5.7-2.6-5.7-5.7
			c0-3.2,2.6-5.7,5.7-5.7C1237.9,4.2,1240.4,6.7,1240.4,9.9"/>
		
			<circle id="XMLID_4104_" fill="none" stroke="#131313" stroke-width="0.75" stroke-miterlimit="10" cx="1234.7" cy="9.9" r="5.7"/>
		<polygon id="XMLID_4103_" fill="#0A0A0A" points="1234,13.1 1234,10.6 1231.4,10.6 1231.4,9.2 1234,9.2 1234,6.6 1235.4,6.6 
			1235.4,9.2 1237.9,9.2 1237.9,10.6 1235.4,10.6 1235.4,13.1 		"/>
		<path id="XMLID_4100_" fill="#231815" d="M1235.3,6.8v2.3v0.2h0.2h2.3v1.2h-2.3h-0.2v0.2V13h-1.2v-2.3v-0.2h-0.2h-2.3V9.3h2.3h0.2
			V9.1V6.8H1235.3z M1235.5,6.5h-1.7v2.5h-2.5v1.7h2.5v2.5h1.7v-2.5h2.5V9.1h-2.5V6.5z"/>
	</g>
	<rect id="XMLID_4098_" x="1233.9" y="6.5" fill="#606060" width="0.2" height="2.8"/>
	<rect id="XMLID_4097_" x="1231.3" y="9.1" fill="#606060" width="2.8" height="0.2"/>
	<rect id="XMLID_4096_" x="1233.9" y="6.5" fill="#494949" width="1.7" height="0.2"/>
	<rect id="XMLID_4095_" x="1231.3" y="9.1" fill="#545454" width="0.2" height="1.7"/>
</g>
<g id="XMLID_4250_">
	<g id="XMLID_4255_">
		<radialGradient id="XMLID_108_" cx="40.6927" cy="623.7546" r="5.7267" gradientUnits="userSpaceOnUse">
			<stop  offset="0.6774" style="stop-color:#2B2B2B"/>
			<stop  offset="0.8441" style="stop-color:#595757"/>
			<stop  offset="1" style="stop-color:#000000"/>
		</radialGradient>
		<path id="XMLID_4261_" fill="url(#XMLID_108_)" d="M46.4,623.8c0,3.2-2.6,5.7-5.7,5.7c-3.2,0-5.7-2.6-5.7-5.7
			c0-3.2,2.6-5.7,5.7-5.7C43.9,618,46.4,620.6,46.4,623.8"/>
		
			<circle id="XMLID_4260_" fill="none" stroke="#131313" stroke-width="0.75" stroke-miterlimit="10" cx="40.7" cy="623.8" r="5.7"/>
		<polygon id="XMLID_4259_" fill="#0A0A0A" points="40,627 40,624.5 37.4,624.5 37.4,623 40,623 40,620.5 41.4,620.5 41.4,623 
			43.9,623 43.9,624.5 41.4,624.5 41.4,627 		"/>
		<path id="XMLID_4256_" fill="#231815" d="M41.3,620.6v2.3v0.2h0.2h2.3v1.2h-2.3h-0.2v0.2v2.3h-1.2v-2.3v-0.2h-0.2h-2.3v-1.2h2.3
			h0.2v-0.2v-2.3H41.3z M41.5,620.4h-1.7v2.5h-2.5v1.7h2.5v2.5h1.7v-2.5h2.5v-1.7h-2.5V620.4z"/>
	</g>
	<rect id="XMLID_4254_" x="39.9" y="620.4" fill="#606060" width="0.2" height="2.8"/>
	<rect id="XMLID_4253_" x="37.3" y="622.9" fill="#606060" width="2.8" height="0.2"/>
	<rect id="XMLID_4252_" x="39.9" y="620.4" fill="#494949" width="1.7" height="0.2"/>
	<rect id="XMLID_4251_" x="37.3" y="622.9" fill="#545454" width="0.2" height="1.7"/>
</g>
<g id="XMLID_4238_">
	<g id="XMLID_4243_">
		<radialGradient id="XMLID_109_" cx="211.2637" cy="623.7546" r="5.7267" gradientUnits="userSpaceOnUse">
			<stop  offset="0.6774" style="stop-color:#2B2B2B"/>
			<stop  offset="0.8441" style="stop-color:#595757"/>
			<stop  offset="1" style="stop-color:#000000"/>
		</radialGradient>
		<path id="XMLID_4249_" fill="url(#XMLID_109_)" d="M217,623.8c0,3.2-2.6,5.7-5.7,5.7c-3.2,0-5.7-2.6-5.7-5.7
			c0-3.2,2.6-5.7,5.7-5.7C214.4,618,217,620.6,217,623.8"/>
		
			<circle id="XMLID_4248_" fill="none" stroke="#131313" stroke-width="0.75" stroke-miterlimit="10" cx="211.3" cy="623.8" r="5.7"/>
		<polygon id="XMLID_4247_" fill="#0A0A0A" points="210.6,627 210.6,624.5 208,624.5 208,623 210.6,623 210.6,620.5 212,620.5 
			212,623 214.5,623 214.5,624.5 212,624.5 212,627 		"/>
		<path id="XMLID_4244_" fill="#231815" d="M211.9,620.6v2.3v0.2h0.2h2.3v1.2h-2.3h-0.2v0.2v2.3h-1.2v-2.3v-0.2h-0.2h-2.3v-1.2h2.3
			h0.2v-0.2v-2.3H211.9z M212.1,620.4h-1.7v2.5h-2.5v1.7h2.5v2.5h1.7v-2.5h2.5v-1.7h-2.5V620.4z"/>
	</g>
	<rect id="XMLID_4242_" x="210.4" y="620.4" fill="#606060" width="0.2" height="2.8"/>
	<rect id="XMLID_4241_" x="207.9" y="622.9" fill="#606060" width="2.8" height="0.2"/>
	<rect id="XMLID_4240_" x="210.4" y="620.4" fill="#494949" width="1.7" height="0.2"/>
	<rect id="XMLID_4239_" x="207.9" y="622.9" fill="#545454" width="0.2" height="1.7"/>
</g>
<g id="XMLID_4226_">
	<g id="XMLID_4231_">
		<radialGradient id="XMLID_110_" cx="381.8347" cy="623.7546" r="5.7267" gradientUnits="userSpaceOnUse">
			<stop  offset="0.6774" style="stop-color:#2B2B2B"/>
			<stop  offset="0.8441" style="stop-color:#595757"/>
			<stop  offset="1" style="stop-color:#000000"/>
		</radialGradient>
		<path id="XMLID_4237_" fill="url(#XMLID_110_)" d="M387.6,623.8c0,3.2-2.6,5.7-5.7,5.7c-3.2,0-5.7-2.6-5.7-5.7
			c0-3.2,2.6-5.7,5.7-5.7C385,618,387.6,620.6,387.6,623.8"/>
		
			<circle id="XMLID_4236_" fill="none" stroke="#131313" stroke-width="0.75" stroke-miterlimit="10" cx="381.8" cy="623.8" r="5.7"/>
		<polygon id="XMLID_4235_" fill="#0A0A0A" points="381.1,627 381.1,624.5 378.6,624.5 378.6,623 381.1,623 381.1,620.5 
			382.5,620.5 382.5,623 385.1,623 385.1,624.5 382.5,624.5 382.5,627 		"/>
		<path id="XMLID_4232_" fill="#231815" d="M382.4,620.6v2.3v0.2h0.2h2.3v1.2h-2.3h-0.2v0.2v2.3h-1.2v-2.3v-0.2H381h-2.3v-1.2h2.3
			h0.2v-0.2v-2.3H382.4z M382.7,620.4H381v2.5h-2.5v1.7h2.5v2.5h1.7v-2.5h2.5v-1.7h-2.5V620.4z"/>
	</g>
	<rect id="XMLID_4230_" x="381" y="620.4" fill="#606060" width="0.2" height="2.8"/>
	<rect id="XMLID_4229_" x="378.5" y="622.9" fill="#606060" width="2.8" height="0.2"/>
	<rect id="XMLID_4228_" x="381" y="620.4" fill="#494949" width="1.7" height="0.2"/>
	<rect id="XMLID_4227_" x="378.5" y="622.9" fill="#545454" width="0.2" height="1.7"/>
</g>
<g id="XMLID_4214_">
	<g id="XMLID_4219_">
		<radialGradient id="XMLID_111_" cx="552.4057" cy="623.7546" r="5.7267" gradientUnits="userSpaceOnUse">
			<stop  offset="0.6774" style="stop-color:#2B2B2B"/>
			<stop  offset="0.8441" style="stop-color:#595757"/>
			<stop  offset="1" style="stop-color:#000000"/>
		</radialGradient>
		<path id="XMLID_4225_" fill="url(#XMLID_111_)" d="M558.1,623.8c0,3.2-2.6,5.7-5.7,5.7s-5.7-2.6-5.7-5.7c0-3.2,2.6-5.7,5.7-5.7
			S558.1,620.6,558.1,623.8"/>
		
			<circle id="XMLID_4224_" fill="none" stroke="#131313" stroke-width="0.75" stroke-miterlimit="10" cx="552.4" cy="623.8" r="5.7"/>
		<polygon id="XMLID_4223_" fill="#0A0A0A" points="551.7,627 551.7,624.5 549.2,624.5 549.2,623 551.7,623 551.7,620.5 
			553.1,620.5 553.1,623 555.7,623 555.7,624.5 553.1,624.5 553.1,627 		"/>
		<path id="XMLID_4220_" fill="#231815" d="M553,620.6v2.3v0.2h0.2h2.3v1.2h-2.3H553v0.2v2.3h-1.2v-2.3v-0.2h-0.2h-2.3v-1.2h2.3h0.2
			v-0.2v-2.3H553z M553.2,620.4h-1.7v2.5H549v1.7h2.5v2.5h1.7v-2.5h2.5v-1.7h-2.5V620.4z"/>
	</g>
	<rect id="XMLID_4218_" x="551.6" y="620.4" fill="#606060" width="0.2" height="2.8"/>
	<rect id="XMLID_4217_" x="549" y="622.9" fill="#606060" width="2.8" height="0.2"/>
	<rect id="XMLID_4216_" x="551.6" y="620.4" fill="#494949" width="1.7" height="0.2"/>
	<rect id="XMLID_4215_" x="549" y="622.9" fill="#545454" width="0.2" height="1.7"/>
</g>
<g id="XMLID_4202_">
	<g id="XMLID_4207_">
		<radialGradient id="XMLID_112_" cx="722.9767" cy="623.7546" r="5.7267" gradientUnits="userSpaceOnUse">
			<stop  offset="0.6774" style="stop-color:#2B2B2B"/>
			<stop  offset="0.8441" style="stop-color:#595757"/>
			<stop  offset="1" style="stop-color:#000000"/>
		</radialGradient>
		<path id="XMLID_4213_" fill="url(#XMLID_112_)" d="M728.7,623.8c0,3.2-2.6,5.7-5.7,5.7s-5.7-2.6-5.7-5.7c0-3.2,2.6-5.7,5.7-5.7
			S728.7,620.6,728.7,623.8"/>
		<circle id="XMLID_4212_" fill="none" stroke="#131313" stroke-width="0.75" stroke-miterlimit="10" cx="723" cy="623.8" r="5.7"/>
		<polygon id="XMLID_4211_" fill="#0A0A0A" points="722.3,627 722.3,624.5 719.7,624.5 719.7,623 722.3,623 722.3,620.5 
			723.7,620.5 723.7,623 726.2,623 726.2,624.5 723.7,624.5 723.7,627 		"/>
		<path id="XMLID_4208_" fill="#231815" d="M723.6,620.6v2.3v0.2h0.2h2.3v1.2h-2.3h-0.2v0.2v2.3h-1.2v-2.3v-0.2h-0.2h-2.3v-1.2h2.3
			h0.2v-0.2v-2.3H723.6z M723.8,620.4h-1.7v2.5h-2.5v1.7h2.5v2.5h1.7v-2.5h2.5v-1.7h-2.5V620.4z"/>
	</g>
	<rect id="XMLID_4206_" x="722.1" y="620.4" fill="#606060" width="0.2" height="2.8"/>
	<rect id="XMLID_4205_" x="719.6" y="622.9" fill="#606060" width="2.8" height="0.2"/>
	<rect id="XMLID_4204_" x="722.1" y="620.4" fill="#494949" width="1.7" height="0.2"/>
	<rect id="XMLID_4203_" x="719.6" y="622.9" fill="#545454" width="0.2" height="1.7"/>
</g>
<g id="XMLID_4190_">
	<g id="XMLID_4195_">
		<radialGradient id="XMLID_113_" cx="893.5477" cy="623.7546" r="5.7267" gradientUnits="userSpaceOnUse">
			<stop  offset="0.6774" style="stop-color:#2B2B2B"/>
			<stop  offset="0.8441" style="stop-color:#595757"/>
			<stop  offset="1" style="stop-color:#000000"/>
		</radialGradient>
		<path id="XMLID_4201_" fill="url(#XMLID_113_)" d="M899.3,623.8c0,3.2-2.6,5.7-5.7,5.7c-3.2,0-5.7-2.6-5.7-5.7
			c0-3.2,2.6-5.7,5.7-5.7C896.7,618,899.3,620.6,899.3,623.8"/>
		
			<circle id="XMLID_4200_" fill="none" stroke="#131313" stroke-width="0.75" stroke-miterlimit="10" cx="893.5" cy="623.8" r="5.7"/>
		<polygon id="XMLID_4199_" fill="#0A0A0A" points="892.8,627 892.8,624.5 890.3,624.5 890.3,623 892.8,623 892.8,620.5 
			894.3,620.5 894.3,623 896.8,623 896.8,624.5 894.3,624.5 894.3,627 		"/>
		<path id="XMLID_4196_" fill="#231815" d="M894.1,620.6v2.3v0.2h0.2h2.3v1.2h-2.3h-0.2v0.2v2.3H893v-2.3v-0.2h-0.2h-2.3v-1.2h2.3
			h0.2v-0.2v-2.3H894.1z M894.4,620.4h-1.7v2.5h-2.5v1.7h2.5v2.5h1.7v-2.5h2.5v-1.7h-2.5V620.4z"/>
	</g>
	<rect id="XMLID_4194_" x="892.7" y="620.4" fill="#606060" width="0.2" height="2.8"/>
	<rect id="XMLID_4193_" x="890.2" y="622.9" fill="#606060" width="2.8" height="0.2"/>
	<rect id="XMLID_4192_" x="892.7" y="620.4" fill="#494949" width="1.7" height="0.2"/>
	<rect id="XMLID_4191_" x="890.2" y="622.9" fill="#545454" width="0.2" height="1.7"/>
</g>
<g id="XMLID_4178_">
	<g id="XMLID_4183_">
		<radialGradient id="XMLID_114_" cx="1064.1187" cy="623.7546" r="5.7267" gradientUnits="userSpaceOnUse">
			<stop  offset="0.6774" style="stop-color:#2B2B2B"/>
			<stop  offset="0.8441" style="stop-color:#595757"/>
			<stop  offset="1" style="stop-color:#000000"/>
		</radialGradient>
		<path id="XMLID_4189_" fill="url(#XMLID_114_)" d="M1069.8,623.8c0,3.2-2.6,5.7-5.7,5.7c-3.2,0-5.7-2.6-5.7-5.7
			c0-3.2,2.6-5.7,5.7-5.7C1067.3,618,1069.8,620.6,1069.8,623.8"/>
		
			<circle id="XMLID_4188_" fill="none" stroke="#131313" stroke-width="0.75" stroke-miterlimit="10" cx="1064.1" cy="623.8" r="5.7"/>
		<polygon id="XMLID_4187_" fill="#0A0A0A" points="1063.4,627 1063.4,624.5 1060.9,624.5 1060.9,623 1063.4,623 1063.4,620.5 
			1064.8,620.5 1064.8,623 1067.4,623 1067.4,624.5 1064.8,624.5 1064.8,627 		"/>
		<path id="XMLID_4184_" fill="#231815" d="M1064.7,620.6v2.3v0.2h0.2h2.3v1.2h-2.3h-0.2v0.2v2.3h-1.2v-2.3v-0.2h-0.2h-2.3v-1.2h2.3
			h0.2v-0.2v-2.3H1064.7z M1064.9,620.4h-1.7v2.5h-2.5v1.7h2.5v2.5h1.7v-2.5h2.5v-1.7h-2.5V620.4z"/>
	</g>
	<rect id="XMLID_4182_" x="1063.3" y="620.4" fill="#606060" width="0.2" height="2.8"/>
	<rect id="XMLID_4181_" x="1060.8" y="622.9" fill="#606060" width="2.8" height="0.2"/>
	<rect id="XMLID_4180_" x="1063.3" y="620.4" fill="#494949" width="1.7" height="0.2"/>
	<rect id="XMLID_4179_" x="1060.8" y="622.9" fill="#545454" width="0.2" height="1.7"/>
</g>
<g id="XMLID_4166_">
	<g id="XMLID_4171_">
		<radialGradient id="XMLID_115_" cx="1234.6897" cy="623.7546" r="5.7267" gradientUnits="userSpaceOnUse">
			<stop  offset="0.6774" style="stop-color:#2B2B2B"/>
			<stop  offset="0.8441" style="stop-color:#595757"/>
			<stop  offset="1" style="stop-color:#000000"/>
		</radialGradient>
		<path id="XMLID_4177_" fill="url(#XMLID_115_)" d="M1240.4,623.8c0,3.2-2.6,5.7-5.7,5.7c-3.2,0-5.7-2.6-5.7-5.7
			c0-3.2,2.6-5.7,5.7-5.7C1237.9,618,1240.4,620.6,1240.4,623.8"/>
		
			<circle id="XMLID_4176_" fill="none" stroke="#131313" stroke-width="0.75" stroke-miterlimit="10" cx="1234.7" cy="623.8" r="5.7"/>
		<polygon id="XMLID_4175_" fill="#0A0A0A" points="1234,627 1234,624.5 1231.4,624.5 1231.4,623 1234,623 1234,620.5 1235.4,620.5 
			1235.4,623 1237.9,623 1237.9,624.5 1235.4,624.5 1235.4,627 		"/>
		<path id="XMLID_4172_" fill="#231815" d="M1235.3,620.6v2.3v0.2h0.2h2.3v1.2h-2.3h-0.2v0.2v2.3h-1.2v-2.3v-0.2h-0.2h-2.3v-1.2h2.3
			h0.2v-0.2v-2.3H1235.3z M1235.5,620.4h-1.7v2.5h-2.5v1.7h2.5v2.5h1.7v-2.5h2.5v-1.7h-2.5V620.4z"/>
	</g>
	<rect id="XMLID_4170_" x="1233.9" y="620.4" fill="#606060" width="0.2" height="2.8"/>
	<rect id="XMLID_4169_" x="1231.3" y="622.9" fill="#606060" width="2.8" height="0.2"/>
	<rect id="XMLID_4168_" x="1233.9" y="620.4" fill="#494949" width="1.7" height="0.2"/>
	<rect id="XMLID_4167_" x="1231.3" y="622.9" fill="#545454" width="0.2" height="1.7"/>
</g>
<g id="XMLID_4106_">
	<g id="XMLID_4111_">
		<radialGradient id="XMLID_116_" cx="1265.4816" cy="42.1755" r="5.7267" gradientUnits="userSpaceOnUse">
			<stop  offset="0.6774" style="stop-color:#2B2B2B"/>
			<stop  offset="0.8441" style="stop-color:#595757"/>
			<stop  offset="1" style="stop-color:#000000"/>
		</radialGradient>
		<path id="XMLID_4117_" fill="url(#XMLID_116_)" d="M1271.2,42.2c0,3.2-2.6,5.7-5.7,5.7c-3.2,0-5.7-2.6-5.7-5.7
			c0-3.2,2.6-5.7,5.7-5.7C1268.6,36.4,1271.2,39,1271.2,42.2"/>
		
			<circle id="XMLID_4116_" fill="none" stroke="#131313" stroke-width="0.75" stroke-miterlimit="10" cx="1265.5" cy="42.2" r="5.7"/>
		<polygon id="XMLID_4115_" fill="#0A0A0A" points="1264.8,45.4 1264.8,42.9 1262.2,42.9 1262.2,41.5 1264.8,41.5 1264.8,38.9 
			1266.2,38.9 1266.2,41.5 1268.7,41.5 1268.7,42.9 1266.2,42.9 1266.2,45.4 		"/>
		<path id="XMLID_4112_" fill="#231815" d="M1266.1,39v2.3v0.2h0.2h2.3v1.2h-2.3h-0.2V43v2.3h-1.2V43v-0.2h-0.2h-2.3v-1.2h2.3h0.2
			v-0.2V39H1266.1z M1266.3,38.8h-1.7v2.5h-2.5V43h2.5v2.5h1.7V43h2.5v-1.7h-2.5V38.8z"/>
	</g>
	<rect id="XMLID_4110_" x="1264.7" y="38.8" fill="#606060" width="0.2" height="2.8"/>
	<rect id="XMLID_4109_" x="1262.1" y="41.3" fill="#606060" width="2.8" height="0.2"/>
	<rect id="XMLID_4108_" x="1264.7" y="38.8" fill="#494949" width="1.7" height="0.2"/>
	<rect id="XMLID_4107_" x="1262.1" y="41.3" fill="#545454" width="0.2" height="1.7"/>
</g>
<g id="XMLID_4118_">
	<g id="XMLID_4123_">
		<radialGradient id="XMLID_117_" cx="1265.4816" cy="177.881" r="5.7267" gradientUnits="userSpaceOnUse">
			<stop  offset="0.6774" style="stop-color:#2B2B2B"/>
			<stop  offset="0.8441" style="stop-color:#595757"/>
			<stop  offset="1" style="stop-color:#000000"/>
		</radialGradient>
		<path id="XMLID_4129_" fill="url(#XMLID_117_)" d="M1271.2,177.9c0,3.2-2.6,5.7-5.7,5.7c-3.2,0-5.7-2.6-5.7-5.7
			c0-3.2,2.6-5.7,5.7-5.7C1268.6,172.2,1271.2,174.7,1271.2,177.9"/>
		
			<circle id="XMLID_4128_" fill="none" stroke="#131313" stroke-width="0.75" stroke-miterlimit="10" cx="1265.5" cy="177.9" r="5.7"/>
		<polygon id="XMLID_4127_" fill="#0A0A0A" points="1264.8,181.1 1264.8,178.6 1262.2,178.6 1262.2,177.2 1264.8,177.2 
			1264.8,174.6 1266.2,174.6 1266.2,177.2 1268.7,177.2 1268.7,178.6 1266.2,178.6 1266.2,181.1 		"/>
		<path id="XMLID_4124_" fill="#231815" d="M1266.1,174.8v2.3v0.2h0.2h2.3v1.2h-2.3h-0.2v0.2v2.3h-1.2v-2.3v-0.2h-0.2h-2.3v-1.2h2.3
			h0.2v-0.2v-2.3H1266.1z M1266.3,174.5h-1.7v2.5h-2.5v1.7h2.5v2.5h1.7v-2.5h2.5v-1.7h-2.5V174.5z"/>
	</g>
	<rect id="XMLID_4122_" x="1264.7" y="174.5" fill="#606060" width="0.2" height="2.8"/>
	<rect id="XMLID_4121_" x="1262.1" y="177.1" fill="#606060" width="2.8" height="0.2"/>
	<rect id="XMLID_4120_" x="1264.7" y="174.5" fill="#494949" width="1.7" height="0.2"/>
	<rect id="XMLID_4119_" x="1262.1" y="177.1" fill="#545454" width="0.2" height="1.7"/>
</g>
<g id="XMLID_4130_">
	<g id="XMLID_4135_">
		<radialGradient id="XMLID_118_" cx="1265.4816" cy="313.5865" r="5.7267" gradientUnits="userSpaceOnUse">
			<stop  offset="0.6774" style="stop-color:#2B2B2B"/>
			<stop  offset="0.8441" style="stop-color:#595757"/>
			<stop  offset="1" style="stop-color:#000000"/>
		</radialGradient>
		<path id="XMLID_4141_" fill="url(#XMLID_118_)" d="M1271.2,313.6c0,3.2-2.6,5.7-5.7,5.7c-3.2,0-5.7-2.6-5.7-5.7
			c0-3.2,2.6-5.7,5.7-5.7C1268.6,307.9,1271.2,310.4,1271.2,313.6"/>
		
			<circle id="XMLID_4140_" fill="none" stroke="#131313" stroke-width="0.75" stroke-miterlimit="10" cx="1265.5" cy="313.6" r="5.7"/>
		<polygon id="XMLID_4139_" fill="#0A0A0A" points="1264.8,316.8 1264.8,314.3 1262.2,314.3 1262.2,312.9 1264.8,312.9 
			1264.8,310.3 1266.2,310.3 1266.2,312.9 1268.7,312.9 1268.7,314.3 1266.2,314.3 1266.2,316.8 		"/>
		<path id="XMLID_4136_" fill="#231815" d="M1266.1,310.5v2.3v0.2h0.2h2.3v1.2h-2.3h-0.2v0.2v2.3h-1.2v-2.3v-0.2h-0.2h-2.3V313h2.3
			h0.2v-0.2v-2.3H1266.1z M1266.3,310.2h-1.7v2.5h-2.5v1.7h2.5v2.5h1.7v-2.5h2.5v-1.7h-2.5V310.2z"/>
	</g>
	<rect id="XMLID_4134_" x="1264.7" y="310.2" fill="#606060" width="0.2" height="2.8"/>
	<rect id="XMLID_4133_" x="1262.1" y="312.8" fill="#606060" width="2.8" height="0.2"/>
	<rect id="XMLID_4132_" x="1264.7" y="310.2" fill="#494949" width="1.7" height="0.2"/>
	<rect id="XMLID_4131_" x="1262.1" y="312.8" fill="#545454" width="0.2" height="1.7"/>
</g>
<g id="XMLID_4142_">
	<g id="XMLID_4147_">
		<radialGradient id="XMLID_119_" cx="1265.4816" cy="449.2921" r="5.7267" gradientUnits="userSpaceOnUse">
			<stop  offset="0.6774" style="stop-color:#2B2B2B"/>
			<stop  offset="0.8441" style="stop-color:#595757"/>
			<stop  offset="1" style="stop-color:#000000"/>
		</radialGradient>
		<path id="XMLID_4153_" fill="url(#XMLID_119_)" d="M1271.2,449.3c0,3.2-2.6,5.7-5.7,5.7c-3.2,0-5.7-2.6-5.7-5.7
			c0-3.2,2.6-5.7,5.7-5.7C1268.6,443.6,1271.2,446.1,1271.2,449.3"/>
		
			<circle id="XMLID_4152_" fill="none" stroke="#131313" stroke-width="0.75" stroke-miterlimit="10" cx="1265.5" cy="449.3" r="5.7"/>
		<polygon id="XMLID_4151_" fill="#0A0A0A" points="1264.8,452.5 1264.8,450 1262.2,450 1262.2,448.6 1264.8,448.6 1264.8,446 
			1266.2,446 1266.2,448.6 1268.7,448.6 1268.7,450 1266.2,450 1266.2,452.5 		"/>
		<path id="XMLID_4148_" fill="#231815" d="M1266.1,446.2v2.3v0.2h0.2h2.3v1.2h-2.3h-0.2v0.2v2.3h-1.2v-2.3v-0.2h-0.2h-2.3v-1.2h2.3
			h0.2v-0.2v-2.3H1266.1z M1266.3,445.9h-1.7v2.5h-2.5v1.7h2.5v2.5h1.7v-2.5h2.5v-1.7h-2.5V445.9z"/>
	</g>
	<rect id="XMLID_4146_" x="1264.7" y="445.9" fill="#606060" width="0.2" height="2.8"/>
	<rect id="XMLID_4145_" x="1262.1" y="448.5" fill="#606060" width="2.8" height="0.2"/>
	<rect id="XMLID_4144_" x="1264.7" y="445.9" fill="#494949" width="1.7" height="0.2"/>
	<rect id="XMLID_4143_" x="1262.1" y="448.5" fill="#545454" width="0.2" height="1.7"/>
</g>
<g id="XMLID_4154_">
	<g id="XMLID_4159_">
		<radialGradient id="XMLID_120_" cx="1265.4816" cy="584.9976" r="5.7267" gradientUnits="userSpaceOnUse">
			<stop  offset="0.6774" style="stop-color:#2B2B2B"/>
			<stop  offset="0.8441" style="stop-color:#595757"/>
			<stop  offset="1" style="stop-color:#000000"/>
		</radialGradient>
		<path id="XMLID_4165_" fill="url(#XMLID_120_)" d="M1271.2,585c0,3.2-2.6,5.7-5.7,5.7c-3.2,0-5.7-2.6-5.7-5.7
			c0-3.2,2.6-5.7,5.7-5.7C1268.6,579.3,1271.2,581.8,1271.2,585"/>
		
			<circle id="XMLID_4164_" fill="none" stroke="#131313" stroke-width="0.75" stroke-miterlimit="10" cx="1265.5" cy="585" r="5.7"/>
		<polygon id="XMLID_4163_" fill="#0A0A0A" points="1264.8,588.2 1264.8,585.7 1262.2,585.7 1262.2,584.3 1264.8,584.3 
			1264.8,581.8 1266.2,581.8 1266.2,584.3 1268.7,584.3 1268.7,585.7 1266.2,585.7 1266.2,588.2 		"/>
		<path id="XMLID_4160_" fill="#231815" d="M1266.1,581.9v2.3v0.2h0.2h2.3v1.2h-2.3h-0.2v0.2v2.3h-1.2v-2.3v-0.2h-0.2h-2.3v-1.2h2.3
			h0.2v-0.2v-2.3H1266.1z M1266.3,581.6h-1.7v2.5h-2.5v1.7h2.5v2.5h1.7v-2.5h2.5v-1.7h-2.5V581.6z"/>
	</g>
	<rect id="XMLID_4158_" x="1264.7" y="581.6" fill="#606060" width="0.2" height="2.8"/>
	<rect id="XMLID_4157_" x="1262.1" y="584.2" fill="#606060" width="2.8" height="0.2"/>
	<rect id="XMLID_4156_" x="1264.7" y="581.6" fill="#494949" width="1.7" height="0.2"/>
	<rect id="XMLID_4155_" x="1262.1" y="584.2" fill="#545454" width="0.2" height="1.7"/>
</g>
<g id="XMLID_4310_">
	<g id="XMLID_4315_">
		<radialGradient id="XMLID_121_" cx="9.3569" cy="42.1755" r="5.7267" gradientUnits="userSpaceOnUse">
			<stop  offset="0.6774" style="stop-color:#2B2B2B"/>
			<stop  offset="0.8441" style="stop-color:#595757"/>
			<stop  offset="1" style="stop-color:#000000"/>
		</radialGradient>
		<path id="XMLID_4321_" fill="url(#XMLID_121_)" d="M15.1,42.2c0,3.2-2.6,5.7-5.7,5.7c-3.2,0-5.7-2.6-5.7-5.7
			c0-3.2,2.6-5.7,5.7-5.7C12.5,36.4,15.1,39,15.1,42.2"/>
		<circle id="XMLID_4320_" fill="none" stroke="#131313" stroke-width="0.75" stroke-miterlimit="10" cx="9.4" cy="42.2" r="5.7"/>
		<polygon id="XMLID_4319_" fill="#0A0A0A" points="8.6,45.4 8.6,42.9 6.1,42.9 6.1,41.5 8.6,41.5 8.6,38.9 10.1,38.9 10.1,41.5 
			12.6,41.5 12.6,42.9 10.1,42.9 10.1,45.4 		"/>
		<path id="XMLID_4316_" fill="#231815" d="M9.9,39v2.3v0.2h0.2h2.3v1.2h-2.3H9.9V43v2.3H8.8V43v-0.2H8.5H6.2v-1.2h2.3h0.2v-0.2V39
			H9.9z M10.2,38.8H8.5v2.5H6V43h2.5v2.5h1.7V43h2.5v-1.7h-2.5V38.8z"/>
	</g>
	<rect id="XMLID_4314_" x="8.5" y="38.8" fill="#606060" width="0.2" height="2.8"/>
	<rect id="XMLID_4313_" x="6" y="41.3" fill="#606060" width="2.8" height="0.2"/>
	<rect id="XMLID_4312_" x="8.5" y="38.8" fill="#494949" width="1.7" height="0.2"/>
	<rect id="XMLID_4311_" x="6" y="41.3" fill="#545454" width="0.2" height="1.7"/>
</g>
<g id="XMLID_4298_">
	<g id="XMLID_4303_">
		<radialGradient id="XMLID_122_" cx="9.3569" cy="177.881" r="5.7267" gradientUnits="userSpaceOnUse">
			<stop  offset="0.6774" style="stop-color:#2B2B2B"/>
			<stop  offset="0.8441" style="stop-color:#595757"/>
			<stop  offset="1" style="stop-color:#000000"/>
		</radialGradient>
		<path id="XMLID_4309_" fill="url(#XMLID_122_)" d="M15.1,177.9c0,3.2-2.6,5.7-5.7,5.7c-3.2,0-5.7-2.6-5.7-5.7
			c0-3.2,2.6-5.7,5.7-5.7C12.5,172.2,15.1,174.7,15.1,177.9"/>
		<circle id="XMLID_4308_" fill="none" stroke="#131313" stroke-width="0.75" stroke-miterlimit="10" cx="9.4" cy="177.9" r="5.7"/>
		<polygon id="XMLID_4307_" fill="#0A0A0A" points="8.6,181.1 8.6,178.6 6.1,178.6 6.1,177.2 8.6,177.2 8.6,174.6 10.1,174.6 
			10.1,177.2 12.6,177.2 12.6,178.6 10.1,178.6 10.1,181.1 		"/>
		<path id="XMLID_4304_" fill="#231815" d="M9.9,174.8v2.3v0.2h0.2h2.3v1.2h-2.3H9.9v0.2v2.3H8.8v-2.3v-0.2H8.5H6.2v-1.2h2.3h0.2
			v-0.2v-2.3H9.9z M10.2,174.5H8.5v2.5H6v1.7h2.5v2.5h1.7v-2.5h2.5v-1.7h-2.5V174.5z"/>
	</g>
	<rect id="XMLID_4302_" x="8.5" y="174.5" fill="#606060" width="0.2" height="2.8"/>
	<rect id="XMLID_4301_" x="6" y="177.1" fill="#606060" width="2.8" height="0.2"/>
	<rect id="XMLID_4300_" x="8.5" y="174.5" fill="#494949" width="1.7" height="0.2"/>
	<rect id="XMLID_4299_" x="6" y="177.1" fill="#545454" width="0.2" height="1.7"/>
</g>
<g id="XMLID_4286_">
	<g id="XMLID_4291_">
		<radialGradient id="XMLID_123_" cx="9.3569" cy="313.5865" r="5.7267" gradientUnits="userSpaceOnUse">
			<stop  offset="0.6774" style="stop-color:#2B2B2B"/>
			<stop  offset="0.8441" style="stop-color:#595757"/>
			<stop  offset="1" style="stop-color:#000000"/>
		</radialGradient>
		<path id="XMLID_4297_" fill="url(#XMLID_123_)" d="M15.1,313.6c0,3.2-2.6,5.7-5.7,5.7c-3.2,0-5.7-2.6-5.7-5.7
			c0-3.2,2.6-5.7,5.7-5.7C12.5,307.9,15.1,310.4,15.1,313.6"/>
		<circle id="XMLID_4296_" fill="none" stroke="#131313" stroke-width="0.75" stroke-miterlimit="10" cx="9.4" cy="313.6" r="5.7"/>
		<polygon id="XMLID_4295_" fill="#0A0A0A" points="8.6,316.8 8.6,314.3 6.1,314.3 6.1,312.9 8.6,312.9 8.6,310.3 10.1,310.3 
			10.1,312.9 12.6,312.9 12.6,314.3 10.1,314.3 10.1,316.8 		"/>
		<path id="XMLID_4292_" fill="#231815" d="M9.9,310.5v2.3v0.2h0.2h2.3v1.2h-2.3H9.9v0.2v2.3H8.8v-2.3v-0.2H8.5H6.2V313h2.3h0.2
			v-0.2v-2.3H9.9z M10.2,310.2H8.5v2.5H6v1.7h2.5v2.5h1.7v-2.5h2.5v-1.7h-2.5V310.2z"/>
	</g>
	<rect id="XMLID_4290_" x="8.5" y="310.2" fill="#606060" width="0.2" height="2.8"/>
	<rect id="XMLID_4289_" x="6" y="312.8" fill="#606060" width="2.8" height="0.2"/>
	<rect id="XMLID_4288_" x="8.5" y="310.2" fill="#494949" width="1.7" height="0.2"/>
	<rect id="XMLID_4287_" x="6" y="312.8" fill="#545454" width="0.2" height="1.7"/>
</g>
<g id="XMLID_4274_">
	<g id="XMLID_4279_">
		<radialGradient id="XMLID_124_" cx="9.3569" cy="449.2921" r="5.7267" gradientUnits="userSpaceOnUse">
			<stop  offset="0.6774" style="stop-color:#2B2B2B"/>
			<stop  offset="0.8441" style="stop-color:#595757"/>
			<stop  offset="1" style="stop-color:#000000"/>
		</radialGradient>
		<path id="XMLID_4285_" fill="url(#XMLID_124_)" d="M15.1,449.3c0,3.2-2.6,5.7-5.7,5.7c-3.2,0-5.7-2.6-5.7-5.7
			c0-3.2,2.6-5.7,5.7-5.7C12.5,443.6,15.1,446.1,15.1,449.3"/>
		<circle id="XMLID_4284_" fill="none" stroke="#131313" stroke-width="0.75" stroke-miterlimit="10" cx="9.4" cy="449.3" r="5.7"/>
		<polygon id="XMLID_4283_" fill="#0A0A0A" points="8.6,452.5 8.6,450 6.1,450 6.1,448.6 8.6,448.6 8.6,446 10.1,446 10.1,448.6 
			12.6,448.6 12.6,450 10.1,450 10.1,452.5 		"/>
		<path id="XMLID_4280_" fill="#231815" d="M9.9,446.2v2.3v0.2h0.2h2.3v1.2h-2.3H9.9v0.2v2.3H8.8v-2.3v-0.2H8.5H6.2v-1.2h2.3h0.2
			v-0.2v-2.3H9.9z M10.2,445.9H8.5v2.5H6v1.7h2.5v2.5h1.7v-2.5h2.5v-1.7h-2.5V445.9z"/>
	</g>
	<rect id="XMLID_4278_" x="8.5" y="445.9" fill="#606060" width="0.2" height="2.8"/>
	<rect id="XMLID_4277_" x="6" y="448.5" fill="#606060" width="2.8" height="0.2"/>
	<rect id="XMLID_4276_" x="8.5" y="445.9" fill="#494949" width="1.7" height="0.2"/>
	<rect id="XMLID_4275_" x="6" y="448.5" fill="#545454" width="0.2" height="1.7"/>
</g>
<g id="XMLID_4262_">
	<g id="XMLID_4267_">
		<radialGradient id="XMLID_125_" cx="9.3569" cy="584.9976" r="5.7267" gradientUnits="userSpaceOnUse">
			<stop  offset="0.6774" style="stop-color:#2B2B2B"/>
			<stop  offset="0.8441" style="stop-color:#595757"/>
			<stop  offset="1" style="stop-color:#000000"/>
		</radialGradient>
		<path id="XMLID_4273_" fill="url(#XMLID_125_)" d="M15.1,585c0,3.2-2.6,5.7-5.7,5.7c-3.2,0-5.7-2.6-5.7-5.7c0-3.2,2.6-5.7,5.7-5.7
			C12.5,579.3,15.1,581.8,15.1,585"/>
		<circle id="XMLID_4272_" fill="none" stroke="#131313" stroke-width="0.75" stroke-miterlimit="10" cx="9.4" cy="585" r="5.7"/>
		<polygon id="XMLID_4271_" fill="#0A0A0A" points="8.6,588.2 8.6,585.7 6.1,585.7 6.1,584.3 8.6,584.3 8.6,581.8 10.1,581.8 
			10.1,584.3 12.6,584.3 12.6,585.7 10.1,585.7 10.1,588.2 		"/>
		<path id="XMLID_4268_" fill="#231815" d="M9.9,581.9v2.3v0.2h0.2h2.3v1.2h-2.3H9.9v0.2v2.3H8.8v-2.3v-0.2H8.5H6.2v-1.2h2.3h0.2
			v-0.2v-2.3H9.9z M10.2,581.6H8.5v2.5H6v1.7h2.5v2.5h1.7v-2.5h2.5v-1.7h-2.5V581.6z"/>
	</g>
	<rect id="XMLID_4266_" x="8.5" y="581.6" fill="#606060" width="0.2" height="2.8"/>
	<rect id="XMLID_4265_" x="6" y="584.2" fill="#606060" width="2.8" height="0.2"/>
	<rect id="XMLID_4264_" x="8.5" y="581.6" fill="#494949" width="1.7" height="0.2"/>
	<rect id="XMLID_4263_" x="6" y="584.2" fill="#545454" width="0.2" height="1.7"/>
</g>
<polygon id="XMLID_4471_" fill="#050001" points="83.8,483.6 89.8,480.1 95.7,483.6 95.7,490.5 89.8,493.9 83.8,490.5 "/>
<polygon id="XMLID_4470_" fill="#050001" points="91.8,496.5 97.7,493.1 103.7,496.5 103.7,503.4 97.7,506.9 91.8,503.4 "/>
<polygon id="XMLID_4469_" fill="#050001" points="83.8,509.2 89.8,505.8 95.7,509.2 95.7,516.1 89.8,519.5 83.8,516.1 "/>
<polygon id="XMLID_4468_" fill="#050001" points="91.8,522.2 97.7,518.7 103.7,522.2 103.7,529.1 97.7,532.5 91.8,529.1 "/>
<polygon id="XMLID_4467_" fill="#050001" points="83.8,534.8 89.8,531.4 95.7,534.8 95.7,541.7 89.8,545.2 83.8,541.7 "/>
<polygon id="XMLID_4466_" fill="#050001" points="91.8,547.8 97.7,544.3 103.7,547.8 103.7,554.7 97.7,558.1 91.8,554.7 "/>
<polygon id="XMLID_4465_" fill="#050001" points="83.8,560.5 89.8,557 95.7,560.5 95.7,567.3 89.8,570.8 83.8,567.3 "/>
<polygon id="XMLID_4464_" fill="#050001" points="99.8,483.6 105.7,480.1 111.7,483.6 111.7,490.5 105.7,493.9 99.8,490.5 "/>
<polygon id="XMLID_4463_" fill="#050001" points="99.8,509.2 105.7,505.8 111.7,509.2 111.7,516.1 105.7,519.5 99.8,516.1 "/>
<polygon id="XMLID_4462_" fill="#050001" points="99.8,534.8 105.7,531.4 111.7,534.8 111.7,541.7 105.7,545.2 99.8,541.7 "/>
<polygon id="XMLID_4461_" fill="#050001" points="99.8,560.5 105.7,557 111.7,560.5 111.7,567.3 105.7,570.8 99.8,567.3 "/>
<polygon id="XMLID_4460_" fill="#050001" points="115.2,483.6 121.2,480.1 127.1,483.6 127.1,490.5 121.2,493.9 115.2,490.5 "/>
<polygon id="XMLID_4459_" fill="#050001" points="107.2,496.5 113.2,493.1 119.2,496.5 119.2,503.4 113.2,506.9 107.2,503.4 "/>
<polygon id="XMLID_4458_" fill="#050001" points="123.1,496.5 129.1,493.1 135.1,496.5 135.1,503.4 129.1,506.9 123.1,503.4 "/>
<polygon id="XMLID_4457_" fill="#050001" points="115.2,509.2 121.2,505.8 127.1,509.2 127.1,516.1 121.2,519.5 115.2,516.1 "/>
<polygon id="XMLID_4456_" fill="#050001" points="107.2,522.2 113.2,518.7 119.2,522.2 119.2,529.1 113.2,532.5 107.2,529.1 "/>
<polygon id="XMLID_4455_" fill="#050001" points="123.1,522.2 129.1,518.7 135.1,522.2 135.1,529.1 129.1,532.5 123.1,529.1 "/>
<polygon id="XMLID_4454_" fill="#050001" points="115.2,534.8 121.2,531.4 127.1,534.8 127.1,541.7 121.2,545.2 115.2,541.7 "/>
<polygon id="XMLID_4453_" fill="#050001" points="107.2,547.8 113.2,544.3 119.2,547.8 119.2,554.7 113.2,558.1 107.2,554.7 "/>
<polygon id="XMLID_4452_" fill="#050001" points="123.1,547.8 129.1,544.3 135.1,547.8 135.1,554.7 129.1,558.1 123.1,554.7 "/>
<polygon id="XMLID_4451_" fill="#050001" points="115.2,560.5 121.2,557 127.1,560.5 127.1,567.3 121.2,570.8 115.2,567.3 "/>
<polygon id="XMLID_4450_" fill="#050001" points="131.1,483.6 137.1,480.1 143.1,483.6 143.1,490.5 137.1,493.9 131.1,490.5 "/>
<polygon id="XMLID_4449_" fill="#050001" points="139.1,496.5 145.1,493.1 151,496.5 151,503.4 145.1,506.9 139.1,503.4 "/>
<polygon id="XMLID_4448_" fill="#050001" points="131.1,509.2 137.1,505.8 143.1,509.2 143.1,516.1 137.1,519.5 131.1,516.1 "/>
<polygon id="XMLID_4447_" fill="#050001" points="139.1,522.2 145.1,518.7 151,522.2 151,529.1 145.1,532.5 139.1,529.1 "/>
<polygon id="XMLID_4446_" fill="#050001" points="131.1,534.8 137.1,531.4 143.1,534.8 143.1,541.7 137.1,545.2 131.1,541.7 "/>
<polygon id="XMLID_4445_" fill="#050001" points="139.1,547.8 145.1,544.3 151,547.8 151,554.7 145.1,558.1 139.1,554.7 "/>
<polygon id="XMLID_4444_" fill="#050001" points="131.1,560.5 137.1,557 143.1,560.5 143.1,567.3 137.1,570.8 131.1,567.3 "/>
<polygon id="XMLID_4443_" fill="#050001" points="147.1,483.6 153.1,480.1 159,483.6 159,490.5 153.1,493.9 147.1,490.5 "/>
<polygon id="XMLID_4442_" fill="#050001" points="147.1,509.2 153.1,505.8 159,509.2 159,516.1 153.1,519.5 147.1,516.1 "/>
<polygon id="XMLID_4441_" fill="#050001" points="147.1,534.8 153.1,531.4 159,534.8 159,541.7 153.1,545.2 147.1,541.7 "/>
<polygon id="XMLID_4440_" fill="#050001" points="147.1,560.5 153.1,557 159,560.5 159,567.3 153.1,570.8 147.1,567.3 "/>
<polygon id="XMLID_4439_" fill="#050001" points="162.5,483.6 168.5,480.1 174.5,483.6 174.5,490.5 168.5,493.9 162.5,490.5 "/>
<polygon id="XMLID_4438_" fill="#050001" points="154.6,496.5 160.5,493.1 166.5,496.5 166.5,503.4 160.5,506.9 154.6,503.4 "/>
<polygon id="XMLID_4437_" fill="#050001" points="170.5,496.5 176.4,493.1 182.4,496.5 182.4,503.4 176.4,506.9 170.5,503.4 "/>
<polygon id="XMLID_4436_" fill="#050001" points="162.5,509.2 168.5,505.8 174.5,509.2 174.5,516.1 168.5,519.5 162.5,516.1 "/>
<polygon id="XMLID_4435_" fill="#050001" points="154.6,522.2 160.5,518.7 166.5,522.2 166.5,529.1 160.5,532.5 154.6,529.1 "/>
<polygon id="XMLID_4434_" fill="#050001" points="170.5,522.2 176.4,518.7 182.4,522.2 182.4,529.1 176.4,532.5 170.5,529.1 "/>
<polygon id="XMLID_4433_" fill="#050001" points="162.5,534.8 168.5,531.4 174.5,534.8 174.5,541.7 168.5,545.2 162.5,541.7 "/>
<polygon id="XMLID_4432_" fill="#050001" points="154.6,547.8 160.5,544.3 166.5,547.8 166.5,554.7 160.5,558.1 154.6,554.7 "/>
<polygon id="XMLID_4431_" fill="#050001" points="170.5,547.8 176.4,544.3 182.4,547.8 182.4,554.7 176.4,558.1 170.5,554.7 "/>
<polygon id="XMLID_4430_" fill="#050001" points="162.5,560.5 168.5,557 174.5,560.5 174.5,567.3 168.5,570.8 162.5,567.3 "/>
<polygon id="XMLID_4429_" fill="#050001" points="178.5,483.6 184.5,480.1 190.4,483.6 190.4,490.5 184.5,493.9 178.5,490.5 "/>
<polygon id="XMLID_4428_" fill="#050001" points="186.4,496.5 192.4,493.1 198.4,496.5 198.4,503.4 192.4,506.9 186.4,503.4 "/>
<polygon id="XMLID_4427_" fill="#050001" points="178.5,509.2 184.5,505.8 190.4,509.2 190.4,516.1 184.5,519.5 178.5,516.1 "/>
<polygon id="XMLID_4426_" fill="#050001" points="186.4,522.2 192.4,518.7 198.4,522.2 198.4,529.1 192.4,532.5 186.4,529.1 "/>
<polygon id="XMLID_4425_" fill="#050001" points="178.5,534.8 184.5,531.4 190.4,534.8 190.4,541.7 184.5,545.2 178.5,541.7 "/>
<polygon id="XMLID_4424_" fill="#050001" points="186.4,547.8 192.4,544.3 198.4,547.8 198.4,554.7 192.4,558.1 186.4,554.7 "/>
<polygon id="XMLID_4423_" fill="#050001" points="178.5,560.5 184.5,557 190.4,560.5 190.4,567.3 184.5,570.8 178.5,567.3 "/>
<polygon id="XMLID_4422_" fill="#050001" points="194.4,483.6 200.4,480.1 206.4,483.6 206.4,490.5 200.4,493.9 194.4,490.5 "/>
<polygon id="XMLID_4421_" fill="#050001" points="194.4,509.2 200.4,505.8 206.4,509.2 206.4,516.1 200.4,519.5 194.4,516.1 "/>
<polygon id="XMLID_4420_" fill="#050001" points="194.4,534.8 200.4,531.4 206.4,534.8 206.4,541.7 200.4,545.2 194.4,541.7 "/>
<polygon id="XMLID_4419_" fill="#050001" points="194.4,560.5 200.4,557 206.4,560.5 206.4,567.3 200.4,570.8 194.4,567.3 "/>
<polygon id="XMLID_4418_" fill="#050001" points="209.9,483.6 215.8,480.1 221.8,483.6 221.8,490.5 215.8,493.9 209.9,490.5 "/>
<polygon id="XMLID_4417_" fill="#050001" points="201.9,496.5 207.9,493.1 213.9,496.5 213.9,503.4 207.9,506.9 201.9,503.4 "/>
<polygon id="XMLID_4416_" fill="#050001" points="217.8,496.5 223.8,493.1 229.8,496.5 229.8,503.4 223.8,506.9 217.8,503.4 "/>
<polygon id="XMLID_4415_" fill="#050001" points="209.9,509.2 215.8,505.8 221.8,509.2 221.8,516.1 215.8,519.5 209.9,516.1 "/>
<polygon id="XMLID_4414_" fill="#050001" points="201.9,522.2 207.9,518.7 213.9,522.2 213.9,529.1 207.9,532.5 201.9,529.1 "/>
<polygon id="XMLID_4413_" fill="#050001" points="217.8,522.2 223.8,518.7 229.8,522.2 229.8,529.1 223.8,532.5 217.8,529.1 "/>
<polygon id="XMLID_4412_" fill="#050001" points="209.9,534.8 215.8,531.4 221.8,534.8 221.8,541.7 215.8,545.2 209.9,541.7 "/>
<polygon id="XMLID_4411_" fill="#050001" points="201.9,547.8 207.9,544.3 213.9,547.8 213.9,554.7 207.9,558.1 201.9,554.7 "/>
<polygon id="XMLID_4410_" fill="#050001" points="217.8,547.8 223.8,544.3 229.8,547.8 229.8,554.7 223.8,558.1 217.8,554.7 "/>
<polygon id="XMLID_4409_" fill="#050001" points="209.9,560.5 215.8,557 221.8,560.5 221.8,567.3 215.8,570.8 209.9,567.3 "/>
<polygon id="XMLID_4408_" fill="#050001" points="225.8,483.6 231.8,480.1 237.8,483.6 237.8,490.5 231.8,493.9 225.8,490.5 "/>
<polygon id="XMLID_4407_" fill="#050001" points="233.8,496.5 239.7,493.1 245.7,496.5 245.7,503.4 239.7,506.9 233.8,503.4 "/>
<polygon id="XMLID_4406_" fill="#050001" points="225.8,509.2 231.8,505.8 237.8,509.2 237.8,516.1 231.8,519.5 225.8,516.1 "/>
<polygon id="XMLID_4405_" fill="#050001" points="233.8,522.2 239.7,518.7 245.7,522.2 245.7,529.1 239.7,532.5 233.8,529.1 "/>
<polygon id="XMLID_4404_" fill="#050001" points="225.8,534.8 231.8,531.4 237.8,534.8 237.8,541.7 231.8,545.2 225.8,541.7 "/>
<polygon id="XMLID_4403_" fill="#050001" points="233.8,547.8 239.7,544.3 245.7,547.8 245.7,554.7 239.7,558.1 233.8,554.7 "/>
<polygon id="XMLID_4402_" fill="#050001" points="225.8,560.5 231.8,557 237.8,560.5 237.8,567.3 231.8,570.8 225.8,567.3 "/>
<polygon id="XMLID_4401_" fill="#050001" points="241.8,483.6 247.7,480.1 253.7,483.6 253.7,490.5 247.7,493.9 241.8,490.5 "/>
<polygon id="XMLID_4400_" fill="#050001" points="241.8,509.2 247.7,505.8 253.7,509.2 253.7,516.1 247.7,519.5 241.8,516.1 "/>
<polygon id="XMLID_4399_" fill="#050001" points="241.8,534.8 247.7,531.4 253.7,534.8 253.7,541.7 247.7,545.2 241.8,541.7 "/>
<polygon id="XMLID_4398_" fill="#050001" points="241.8,560.5 247.7,557 253.7,560.5 253.7,567.3 247.7,570.8 241.8,567.3 "/>
<polygon id="XMLID_4397_" fill="#050001" points="257.2,483.6 263.2,480.1 269.1,483.6 269.1,490.5 263.2,493.9 257.2,490.5 "/>
<polygon id="XMLID_4396_" fill="#050001" points="249.3,496.5 255.2,493.1 261.2,496.5 261.2,503.4 255.2,506.9 249.3,503.4 "/>
<polygon id="XMLID_4395_" fill="#050001" points="265.2,496.5 271.1,493.1 277.1,496.5 277.1,503.4 271.1,506.9 265.2,503.4 "/>
<polygon id="XMLID_4394_" fill="#050001" points="257.2,509.2 263.2,505.8 269.1,509.2 269.1,516.1 263.2,519.5 257.2,516.1 "/>
<polygon id="XMLID_4393_" fill="#050001" points="249.3,522.2 255.2,518.7 261.2,522.2 261.2,529.1 255.2,532.5 249.3,529.1 "/>
<polygon id="XMLID_4392_" fill="#050001" points="265.2,522.2 271.1,518.7 277.1,522.2 277.1,529.1 271.1,532.5 265.2,529.1 "/>
<polygon id="XMLID_4391_" fill="#050001" points="257.2,534.8 263.2,531.4 269.1,534.8 269.1,541.7 263.2,545.2 257.2,541.7 "/>
<polygon id="XMLID_4390_" fill="#050001" points="249.3,547.8 255.2,544.3 261.2,547.8 261.2,554.7 255.2,558.1 249.3,554.7 "/>
<polygon id="XMLID_4389_" fill="#050001" points="265.2,547.8 271.1,544.3 277.1,547.8 277.1,554.7 271.1,558.1 265.2,554.7 "/>
<polygon id="XMLID_4388_" fill="#050001" points="257.2,560.5 263.2,557 269.1,560.5 269.1,567.3 263.2,570.8 257.2,567.3 "/>
<polygon id="XMLID_4387_" fill="#050001" points="273.2,483.6 279.1,480.1 285.1,483.6 285.1,490.5 279.1,493.9 273.2,490.5 "/>
<polygon id="XMLID_4386_" fill="#050001" points="281.1,496.5 287.1,493.1 293.1,496.5 293.1,503.4 287.1,506.9 281.1,503.4 "/>
<polygon id="XMLID_4385_" fill="#050001" points="273.2,509.2 279.1,505.8 285.1,509.2 285.1,516.1 279.1,519.5 273.2,516.1 "/>
<polygon id="XMLID_4384_" fill="#050001" points="281.1,522.2 287.1,518.7 293.1,522.2 293.1,529.1 287.1,532.5 281.1,529.1 "/>
<polygon id="XMLID_4383_" fill="#050001" points="273.2,534.8 279.1,531.4 285.1,534.8 285.1,541.7 279.1,545.2 273.2,541.7 "/>
<polygon id="XMLID_4382_" fill="#050001" points="281.1,547.8 287.1,544.3 293.1,547.8 293.1,554.7 287.1,558.1 281.1,554.7 "/>
<polygon id="XMLID_4381_" fill="#050001" points="273.2,560.5 279.1,557 285.1,560.5 285.1,567.3 279.1,570.8 273.2,567.3 "/>
<polygon id="XMLID_4380_" fill="#050001" points="289.1,483.6 295.1,480.1 301.1,483.6 301.1,490.5 295.1,493.9 289.1,490.5 "/>
<polygon id="XMLID_4379_" fill="#050001" points="289.1,509.2 295.1,505.8 301.1,509.2 301.1,516.1 295.1,519.5 289.1,516.1 "/>
<polygon id="XMLID_4378_" fill="#050001" points="289.1,534.8 295.1,531.4 301.1,534.8 301.1,541.7 295.1,545.2 289.1,541.7 "/>
<polygon id="XMLID_4377_" fill="#050001" points="289.1,560.5 295.1,557 301.1,560.5 301.1,567.3 295.1,570.8 289.1,567.3 "/>
<polygon id="XMLID_4376_" fill="#050001" points="304.5,483.6 310.5,480.1 316.5,483.6 316.5,490.5 310.5,493.9 304.5,490.5 "/>
<polygon id="XMLID_4375_" fill="#050001" points="296.6,496.5 302.6,493.1 308.5,496.5 308.5,503.4 302.6,506.9 296.6,503.4 "/>
<polygon id="XMLID_4374_" fill="#050001" points="312.5,496.5 318.5,493.1 324.4,496.5 324.4,503.4 318.5,506.9 312.5,503.4 "/>
<polygon id="XMLID_4373_" fill="#050001" points="304.5,509.2 310.5,505.8 316.5,509.2 316.5,516.1 310.5,519.5 304.5,516.1 "/>
<polygon id="XMLID_4372_" fill="#050001" points="296.6,522.2 302.6,518.7 308.5,522.2 308.5,529.1 302.6,532.5 296.6,529.1 "/>
<polygon id="XMLID_4371_" fill="#050001" points="312.5,522.2 318.5,518.7 324.4,522.2 324.4,529.1 318.5,532.5 312.5,529.1 "/>
<polygon id="XMLID_4370_" fill="#050001" points="304.5,534.8 310.5,531.4 316.5,534.8 316.5,541.7 310.5,545.2 304.5,541.7 "/>
<polygon id="XMLID_4369_" fill="#050001" points="296.6,547.8 302.6,544.3 308.5,547.8 308.5,554.7 302.6,558.1 296.6,554.7 "/>
<polygon id="XMLID_4368_" fill="#050001" points="312.5,547.8 318.5,544.3 324.4,547.8 324.4,554.7 318.5,558.1 312.5,554.7 "/>
<polygon id="XMLID_4367_" fill="#050001" points="304.5,560.5 310.5,557 316.5,560.5 316.5,567.3 310.5,570.8 304.5,567.3 "/>
<polygon id="XMLID_4366_" fill="#050001" points="320.5,483.6 326.5,480.1 332.4,483.6 332.4,490.5 326.5,493.9 320.5,490.5 "/>
<polygon id="XMLID_4365_" fill="#050001" points="328.4,496.5 334.4,493.1 340.4,496.5 340.4,503.4 334.4,506.9 328.4,503.4 "/>
<polygon id="XMLID_4364_" fill="#050001" points="320.5,509.2 326.5,505.8 332.4,509.2 332.4,516.1 326.5,519.5 320.5,516.1 "/>
<polygon id="XMLID_4363_" fill="#050001" points="328.4,522.2 334.4,518.7 340.4,522.2 340.4,529.1 334.4,532.5 328.4,529.1 "/>
<polygon id="XMLID_4362_" fill="#050001" points="320.5,534.8 326.5,531.4 332.4,534.8 332.4,541.7 326.5,545.2 320.5,541.7 "/>
<polygon id="XMLID_4361_" fill="#050001" points="328.4,547.8 334.4,544.3 340.4,547.8 340.4,554.7 334.4,558.1 328.4,554.7 "/>
<polygon id="XMLID_4360_" fill="#050001" points="320.5,560.5 326.5,557 332.4,560.5 332.4,567.3 326.5,570.8 320.5,567.3 "/>
<polygon id="XMLID_4359_" fill="#050001" points="336.5,483.6 342.4,480.1 348.4,483.6 348.4,490.5 342.4,493.9 336.5,490.5 "/>
<polygon id="XMLID_4358_" fill="#050001" points="336.5,509.2 342.4,505.8 348.4,509.2 348.4,516.1 342.4,519.5 336.5,516.1 "/>
<polygon id="XMLID_4357_" fill="#050001" points="336.5,534.8 342.4,531.4 348.4,534.8 348.4,541.7 342.4,545.2 336.5,541.7 "/>
<polygon id="XMLID_4356_" fill="#050001" points="336.5,560.5 342.4,557 348.4,560.5 348.4,567.3 342.4,570.8 336.5,567.3 "/>
<polygon id="XMLID_4355_" fill="#050001" points="351.9,483.6 357.9,480.1 363.8,483.6 363.8,490.5 357.9,493.9 351.9,490.5 "/>
<polygon id="XMLID_4354_" fill="#050001" points="343.9,496.5 349.9,493.1 355.9,496.5 355.9,503.4 349.9,506.9 343.9,503.4 "/>
<polygon id="XMLID_4353_" fill="#050001" points="359.8,496.5 365.8,493.1 371.8,496.5 371.8,503.4 365.8,506.9 359.8,503.4 "/>
<polygon id="XMLID_4352_" fill="#050001" points="351.9,509.2 357.9,505.8 363.8,509.2 363.8,516.1 357.9,519.5 351.9,516.1 "/>
<polygon id="XMLID_4351_" fill="#050001" points="343.9,522.2 349.9,518.7 355.9,522.2 355.9,529.1 349.9,532.5 343.9,529.1 "/>
<polygon id="XMLID_4350_" fill="#050001" points="359.8,522.2 365.8,518.7 371.8,522.2 371.8,529.1 365.8,532.5 359.8,529.1 "/>
<polygon id="XMLID_4349_" fill="#050001" points="351.9,534.8 357.9,531.4 363.8,534.8 363.8,541.7 357.9,545.2 351.9,541.7 "/>
<polygon id="XMLID_4348_" fill="#050001" points="343.9,547.8 349.9,544.3 355.9,547.8 355.9,554.7 349.9,558.1 343.9,554.7 "/>
<polygon id="XMLID_4347_" fill="#050001" points="359.8,547.8 365.8,544.3 371.8,547.8 371.8,554.7 365.8,558.1 359.8,554.7 "/>
<polygon id="XMLID_4346_" fill="#050001" points="351.9,560.5 357.9,557 363.8,560.5 363.8,567.3 357.9,570.8 351.9,567.3 "/>
<polygon id="XMLID_4345_" fill="#050001" points="367.8,483.6 373.8,480.1 379.8,483.6 379.8,490.5 373.8,493.9 367.8,490.5 "/>
<polygon id="XMLID_4344_" fill="#050001" points="375.8,496.5 381.8,493.1 387.7,496.5 387.7,503.4 381.8,506.9 375.8,503.4 "/>
<polygon id="XMLID_4343_" fill="#050001" points="367.8,509.2 373.8,505.8 379.8,509.2 379.8,516.1 373.8,519.5 367.8,516.1 "/>
<polygon id="XMLID_4342_" fill="#050001" points="375.8,522.2 381.8,518.7 387.7,522.2 387.7,529.1 381.8,532.5 375.8,529.1 "/>
<polygon id="XMLID_4341_" fill="#050001" points="367.8,534.8 373.8,531.4 379.8,534.8 379.8,541.7 373.8,545.2 367.8,541.7 "/>
<polygon id="XMLID_4340_" fill="#050001" points="375.8,547.8 381.8,544.3 387.7,547.8 387.7,554.7 381.8,558.1 375.8,554.7 "/>
<polygon id="XMLID_4339_" fill="#050001" points="367.8,560.5 373.8,557 379.8,560.5 379.8,567.3 373.8,570.8 367.8,567.3 "/>
<polygon id="XMLID_4338_" fill="#050001" points="383.8,483.6 389.8,480.1 395.7,483.6 395.7,490.5 389.8,493.9 383.8,490.5 "/>
<polygon id="XMLID_4337_" fill="#050001" points="383.8,509.2 389.8,505.8 395.7,509.2 395.7,516.1 389.8,519.5 383.8,516.1 "/>
<polygon id="XMLID_4336_" fill="#050001" points="383.8,534.8 389.8,531.4 395.7,534.8 395.7,541.7 389.8,545.2 383.8,541.7 "/>
<polygon id="XMLID_4335_" fill="#050001" points="383.8,560.5 389.8,557 395.7,560.5 395.7,567.3 389.8,570.8 383.8,567.3 "/>
<polygon id="XMLID_4334_" fill="#050001" points="399.2,483.6 405.2,480.1 411.2,483.6 411.2,490.5 405.2,493.9 399.2,490.5 "/>
<polygon id="XMLID_4333_" fill="#050001" points="391.3,496.5 397.2,493.1 403.2,496.5 403.2,503.4 397.2,506.9 391.3,503.4 "/>
<polygon id="XMLID_4332_" fill="#050001" points="407.2,496.5 413.1,493.1 419.1,496.5 419.1,503.4 413.1,506.9 407.2,503.4 "/>
<polygon id="XMLID_4331_" fill="#050001" points="399.2,509.2 405.2,505.8 411.2,509.2 411.2,516.1 405.2,519.5 399.2,516.1 "/>
<polygon id="XMLID_4330_" fill="#050001" points="391.3,522.2 397.2,518.7 403.2,522.2 403.2,529.1 397.2,532.5 391.3,529.1 "/>
<polygon id="XMLID_4329_" fill="#050001" points="407.2,522.2 413.1,518.7 419.1,522.2 419.1,529.1 413.1,532.5 407.2,529.1 "/>
<polygon id="XMLID_4328_" fill="#050001" points="399.2,534.8 405.2,531.4 411.2,534.8 411.2,541.7 405.2,545.2 399.2,541.7 "/>
<polygon id="XMLID_4327_" fill="#050001" points="391.3,547.8 397.2,544.3 403.2,547.8 403.2,554.7 397.2,558.1 391.3,554.7 "/>
<polygon id="XMLID_4326_" fill="#050001" points="407.2,547.8 413.1,544.3 419.1,547.8 419.1,554.7 413.1,558.1 407.2,554.7 "/>
<polygon id="XMLID_4325_" fill="#050001" points="399.2,560.5 405.2,557 411.2,560.5 411.2,567.3 405.2,570.8 399.2,567.3 "/>
<polygon id="XMLID_4324_" fill="#050001" points="415.2,483.6 421.1,480.1 427.1,483.6 427.1,490.5 421.1,493.9 415.2,490.5 "/>
<polygon id="XMLID_4323_" fill="#050001" points="415.2,509.2 421.1,505.8 427.1,509.2 427.1,516.1 421.1,519.5 415.2,516.1 "/>
<polygon id="XMLID_4322_" fill="#050001" points="415.2,534.8 421.1,531.4 427.1,534.8 427.1,541.7 421.1,545.2 415.2,541.7 "/>
<polygon id="XMLID_3795_" fill="#050001" points="415.2,560.5 421.1,557 427.1,560.5 427.1,567.3 421.1,570.8 415.2,567.3 "/>
<polygon id="XMLID_4549_" fill="#050001" points="422.6,496.5 428.6,493.1 434.6,496.5 434.6,503.4 428.6,506.9 422.6,503.4 "/>
<polygon id="XMLID_4548_" fill="#050001" points="422.6,522.2 428.6,518.7 434.6,522.2 434.6,529.1 428.6,532.5 422.6,529.1 "/>
<polygon id="XMLID_4547_" fill="#050001" points="422.6,547.8 428.6,544.3 434.6,547.8 434.6,554.7 428.6,558.1 422.6,554.7 "/>
<polygon id="XMLID_4546_" fill="#050001" points="430.6,483.6 436.6,480.1 442.6,483.6 442.6,490.5 436.6,493.9 430.6,490.5 "/>
<polygon id="XMLID_4545_" fill="#050001" points="430.6,509.2 436.6,505.8 442.6,509.2 442.6,516.1 436.6,519.5 430.6,516.1 "/>
<polygon id="XMLID_4544_" fill="#050001" points="430.6,534.8 436.6,531.4 442.6,534.8 442.6,541.7 436.6,545.2 430.6,541.7 "/>
<polygon id="XMLID_4543_" fill="#050001" points="430.6,560.5 436.6,557 442.6,560.5 442.6,567.3 436.6,570.8 430.6,567.3 "/>
<polygon id="XMLID_4542_" fill="#050001" points="446,483.6 452,480.1 458,483.6 458,490.5 452,493.9 446,490.5 "/>
<polygon id="XMLID_4541_" fill="#050001" points="438.1,496.5 444.1,493.1 450,496.5 450,503.4 444.1,506.9 438.1,503.4 "/>
<polygon id="XMLID_4540_" fill="#050001" points="454,496.5 460,493.1 465.9,496.5 465.9,503.4 460,506.9 454,503.4 "/>
<polygon id="XMLID_4539_" fill="#050001" points="446,509.2 452,505.8 458,509.2 458,516.1 452,519.5 446,516.1 "/>
<polygon id="XMLID_4538_" fill="#050001" points="438.1,522.2 444.1,518.7 450,522.2 450,529.1 444.1,532.5 438.1,529.1 "/>
<polygon id="XMLID_4537_" fill="#050001" points="454,522.2 460,518.7 465.9,522.2 465.9,529.1 460,532.5 454,529.1 "/>
<polygon id="XMLID_4536_" fill="#050001" points="446,534.8 452,531.4 458,534.8 458,541.7 452,545.2 446,541.7 "/>
<polygon id="XMLID_4535_" fill="#050001" points="438.1,547.8 444.1,544.3 450,547.8 450,554.7 444.1,558.1 438.1,554.7 "/>
<polygon id="XMLID_4534_" fill="#050001" points="454,547.8 460,544.3 465.9,547.8 465.9,554.7 460,558.1 454,554.7 "/>
<polygon id="XMLID_4533_" fill="#050001" points="446,560.5 452,557 458,560.5 458,567.3 452,570.8 446,567.3 "/>
<polygon id="XMLID_4532_" fill="#050001" points="462,483.6 468,480.1 473.9,483.6 473.9,490.5 468,493.9 462,490.5 "/>
<polygon id="XMLID_4531_" fill="#050001" points="469.9,496.5 475.9,493.1 481.9,496.5 481.9,503.4 475.9,506.9 469.9,503.4 "/>
<polygon id="XMLID_4530_" fill="#050001" points="462,509.2 468,505.8 473.9,509.2 473.9,516.1 468,519.5 462,516.1 "/>
<polygon id="XMLID_4529_" fill="#050001" points="469.9,522.2 475.9,518.7 481.9,522.2 481.9,529.1 475.9,532.5 469.9,529.1 "/>
<polygon id="XMLID_4528_" fill="#050001" points="462,534.8 468,531.4 473.9,534.8 473.9,541.7 468,545.2 462,541.7 "/>
<polygon id="XMLID_4527_" fill="#050001" points="469.9,547.8 475.9,544.3 481.9,547.8 481.9,554.7 475.9,558.1 469.9,554.7 "/>
<polygon id="XMLID_4526_" fill="#050001" points="462,560.5 468,557 473.9,560.5 473.9,567.3 468,570.8 462,567.3 "/>
<polygon id="XMLID_4525_" fill="#050001" points="478,483.6 483.9,480.1 489.9,483.6 489.9,490.5 483.9,493.9 478,490.5 "/>
<polygon id="XMLID_4524_" fill="#050001" points="478,509.2 483.9,505.8 489.9,509.2 489.9,516.1 483.9,519.5 478,516.1 "/>
<polygon id="XMLID_4523_" fill="#050001" points="478,534.8 483.9,531.4 489.9,534.8 489.9,541.7 483.9,545.2 478,541.7 "/>
<polygon id="XMLID_4522_" fill="#050001" points="478,560.5 483.9,557 489.9,560.5 489.9,567.3 483.9,570.8 478,567.3 "/>
<polygon id="XMLID_4521_" fill="#050001" points="493.4,483.6 499.4,480.1 505.3,483.6 505.3,490.5 499.4,493.9 493.4,490.5 "/>
<polygon id="XMLID_4520_" fill="#050001" points="485.4,496.5 491.4,493.1 497.4,496.5 497.4,503.4 491.4,506.9 485.4,503.4 "/>
<polygon id="XMLID_4519_" fill="#050001" points="501.3,496.5 507.3,493.1 513.3,496.5 513.3,503.4 507.3,506.9 501.3,503.4 "/>
<polygon id="XMLID_4518_" fill="#050001" points="493.4,509.2 499.4,505.8 505.3,509.2 505.3,516.1 499.4,519.5 493.4,516.1 "/>
<polygon id="XMLID_4517_" fill="#050001" points="485.4,522.2 491.4,518.7 497.4,522.2 497.4,529.1 491.4,532.5 485.4,529.1 "/>
<polygon id="XMLID_4516_" fill="#050001" points="501.3,522.2 507.3,518.7 513.3,522.2 513.3,529.1 507.3,532.5 501.3,529.1 "/>
<polygon id="XMLID_4515_" fill="#050001" points="493.4,534.8 499.4,531.4 505.3,534.8 505.3,541.7 499.4,545.2 493.4,541.7 "/>
<polygon id="XMLID_4514_" fill="#050001" points="485.4,547.8 491.4,544.3 497.4,547.8 497.4,554.7 491.4,558.1 485.4,554.7 "/>
<polygon id="XMLID_4513_" fill="#050001" points="501.3,547.8 507.3,544.3 513.3,547.8 513.3,554.7 507.3,558.1 501.3,554.7 "/>
<polygon id="XMLID_4512_" fill="#050001" points="493.4,560.5 499.4,557 505.3,560.5 505.3,567.3 499.4,570.8 493.4,567.3 "/>
<polygon id="XMLID_4511_" fill="#050001" points="509.3,483.6 515.3,480.1 521.3,483.6 521.3,490.5 515.3,493.9 509.3,490.5 "/>
<polygon id="XMLID_4510_" fill="#050001" points="517.3,496.5 523.3,493.1 529.2,496.5 529.2,503.4 523.3,506.9 517.3,503.4 "/>
<polygon id="XMLID_4509_" fill="#050001" points="509.3,509.2 515.3,505.8 521.3,509.2 521.3,516.1 515.3,519.5 509.3,516.1 "/>
<polygon id="XMLID_4508_" fill="#050001" points="517.3,522.2 523.3,518.7 529.2,522.2 529.2,529.1 523.3,532.5 517.3,529.1 "/>
<polygon id="XMLID_4507_" fill="#050001" points="509.3,534.8 515.3,531.4 521.3,534.8 521.3,541.7 515.3,545.2 509.3,541.7 "/>
<polygon id="XMLID_4506_" fill="#050001" points="517.3,547.8 523.3,544.3 529.2,547.8 529.2,554.7 523.3,558.1 517.3,554.7 "/>
<polygon id="XMLID_4505_" fill="#050001" points="509.3,560.5 515.3,557 521.3,560.5 521.3,567.3 515.3,570.8 509.3,567.3 "/>
<polygon id="XMLID_4504_" fill="#050001" points="525.3,483.6 531.3,480.1 537.2,483.6 537.2,490.5 531.3,493.9 525.3,490.5 "/>
<polygon id="XMLID_4503_" fill="#050001" points="525.3,509.2 531.3,505.8 537.2,509.2 537.2,516.1 531.3,519.5 525.3,516.1 "/>
<polygon id="XMLID_4502_" fill="#050001" points="525.3,534.8 531.3,531.4 537.2,534.8 537.2,541.7 531.3,545.2 525.3,541.7 "/>
<polygon id="XMLID_4501_" fill="#050001" points="525.3,560.5 531.3,557 537.2,560.5 537.2,567.3 531.3,570.8 525.3,567.3 "/>
<polygon id="XMLID_4500_" fill="#050001" points="540.7,483.6 546.7,480.1 552.7,483.6 552.7,490.5 546.7,493.9 540.7,490.5 "/>
<polygon id="XMLID_4499_" fill="#050001" points="532.8,496.5 538.7,493.1 544.7,496.5 544.7,503.4 538.7,506.9 532.8,503.4 "/>
<polygon id="XMLID_4498_" fill="#050001" points="548.7,496.5 554.6,493.1 560.6,496.5 560.6,503.4 554.6,506.9 548.7,503.4 "/>
<polygon id="XMLID_4497_" fill="#050001" points="540.7,509.2 546.7,505.8 552.7,509.2 552.7,516.1 546.7,519.5 540.7,516.1 "/>
<polygon id="XMLID_4496_" fill="#050001" points="532.8,522.2 538.7,518.7 544.7,522.2 544.7,529.1 538.7,532.5 532.8,529.1 "/>
<polygon id="XMLID_4495_" fill="#050001" points="548.7,522.2 554.6,518.7 560.6,522.2 560.6,529.1 554.6,532.5 548.7,529.1 "/>
<polygon id="XMLID_4494_" fill="#050001" points="540.7,534.8 546.7,531.4 552.7,534.8 552.7,541.7 546.7,545.2 540.7,541.7 "/>
<polygon id="XMLID_4493_" fill="#050001" points="532.8,547.8 538.7,544.3 544.7,547.8 544.7,554.7 538.7,558.1 532.8,554.7 "/>
<polygon id="XMLID_4492_" fill="#050001" points="548.7,547.8 554.6,544.3 560.6,547.8 560.6,554.7 554.6,558.1 548.7,554.7 "/>
<polygon id="XMLID_4491_" fill="#050001" points="540.7,560.5 546.7,557 552.7,560.5 552.7,567.3 546.7,570.8 540.7,567.3 "/>
<polygon id="XMLID_4490_" fill="#050001" points="556.7,483.6 562.6,480.1 568.6,483.6 568.6,490.5 562.6,493.9 556.7,490.5 "/>
<polygon id="XMLID_4489_" fill="#050001" points="556.7,509.2 562.6,505.8 568.6,509.2 568.6,516.1 562.6,519.5 556.7,516.1 "/>
<polygon id="XMLID_4488_" fill="#050001" points="556.7,534.8 562.6,531.4 568.6,534.8 568.6,541.7 562.6,545.2 556.7,541.7 "/>
<polygon id="XMLID_4487_" fill="#050001" points="556.7,560.5 562.6,557 568.6,560.5 568.6,567.3 562.6,570.8 556.7,567.3 "/>
<polygon id="XMLID_4612_" fill="#050001" points="564.1,496.5 570.1,493.1 576.1,496.5 576.1,503.4 570.1,506.9 564.1,503.4 "/>
<polygon id="XMLID_4611_" fill="#050001" points="564.1,522.2 570.1,518.7 576.1,522.2 576.1,529.1 570.1,532.5 564.1,529.1 "/>
<polygon id="XMLID_4610_" fill="#050001" points="564.1,547.8 570.1,544.3 576.1,547.8 576.1,554.7 570.1,558.1 564.1,554.7 "/>
<polygon id="XMLID_4609_" fill="#050001" points="572.1,483.6 578.1,480.1 584.1,483.6 584.1,490.5 578.1,493.9 572.1,490.5 "/>
<polygon id="XMLID_4608_" fill="#050001" points="572.1,509.2 578.1,505.8 584.1,509.2 584.1,516.1 578.1,519.5 572.1,516.1 "/>
<polygon id="XMLID_4607_" fill="#050001" points="572.1,534.8 578.1,531.4 584.1,534.8 584.1,541.7 578.1,545.2 572.1,541.7 "/>
<polygon id="XMLID_4606_" fill="#050001" points="572.1,560.5 578.1,557 584.1,560.5 584.1,567.3 578.1,570.8 572.1,567.3 "/>
<polygon id="XMLID_4605_" fill="#050001" points="587.5,483.6 593.5,480.1 599.5,483.6 599.5,490.5 593.5,493.9 587.5,490.5 "/>
<polygon id="XMLID_4604_" fill="#050001" points="579.6,496.5 585.6,493.1 591.5,496.5 591.5,503.4 585.6,506.9 579.6,503.4 "/>
<polygon id="XMLID_4603_" fill="#050001" points="595.5,496.5 601.5,493.1 607.4,496.5 607.4,503.4 601.5,506.9 595.5,503.4 "/>
<polygon id="XMLID_4602_" fill="#050001" points="587.5,509.2 593.5,505.8 599.5,509.2 599.5,516.1 593.5,519.5 587.5,516.1 "/>
<polygon id="XMLID_4601_" fill="#050001" points="579.6,522.2 585.6,518.7 591.5,522.2 591.5,529.1 585.6,532.5 579.6,529.1 "/>
<polygon id="XMLID_4600_" fill="#050001" points="595.5,522.2 601.5,518.7 607.4,522.2 607.4,529.1 601.5,532.5 595.5,529.1 "/>
<polygon id="XMLID_4599_" fill="#050001" points="587.5,534.8 593.5,531.4 599.5,534.8 599.5,541.7 593.5,545.2 587.5,541.7 "/>
<polygon id="XMLID_4598_" fill="#050001" points="579.6,547.8 585.6,544.3 591.5,547.8 591.5,554.7 585.6,558.1 579.6,554.7 "/>
<polygon id="XMLID_4597_" fill="#050001" points="595.5,547.8 601.5,544.3 607.4,547.8 607.4,554.7 601.5,558.1 595.5,554.7 "/>
<polygon id="XMLID_4596_" fill="#050001" points="587.5,560.5 593.5,557 599.5,560.5 599.5,567.3 593.5,570.8 587.5,567.3 "/>
<polygon id="XMLID_4595_" fill="#050001" points="603.5,483.6 609.5,480.1 615.4,483.6 615.4,490.5 609.5,493.9 603.5,490.5 "/>
<polygon id="XMLID_4594_" fill="#050001" points="611.4,496.5 617.4,493.1 623.4,496.5 623.4,503.4 617.4,506.9 611.4,503.4 "/>
<polygon id="XMLID_4593_" fill="#050001" points="603.5,509.2 609.5,505.8 615.4,509.2 615.4,516.1 609.5,519.5 603.5,516.1 "/>
<polygon id="XMLID_4592_" fill="#050001" points="611.4,522.2 617.4,518.7 623.4,522.2 623.4,529.1 617.4,532.5 611.4,529.1 "/>
<polygon id="XMLID_4591_" fill="#050001" points="603.5,534.8 609.5,531.4 615.4,534.8 615.4,541.7 609.5,545.2 603.5,541.7 "/>
<polygon id="XMLID_4590_" fill="#050001" points="611.4,547.8 617.4,544.3 623.4,547.8 623.4,554.7 617.4,558.1 611.4,554.7 "/>
<polygon id="XMLID_4589_" fill="#050001" points="603.5,560.5 609.5,557 615.4,560.5 615.4,567.3 609.5,570.8 603.5,567.3 "/>
<polygon id="XMLID_4588_" fill="#050001" points="619.5,483.6 625.4,480.1 631.4,483.6 631.4,490.5 625.4,493.9 619.5,490.5 "/>
<polygon id="XMLID_4587_" fill="#050001" points="619.5,509.2 625.4,505.8 631.4,509.2 631.4,516.1 625.4,519.5 619.5,516.1 "/>
<polygon id="XMLID_4586_" fill="#050001" points="619.5,534.8 625.4,531.4 631.4,534.8 631.4,541.7 625.4,545.2 619.5,541.7 "/>
<polygon id="XMLID_4585_" fill="#050001" points="619.5,560.5 625.4,557 631.4,560.5 631.4,567.3 625.4,570.8 619.5,567.3 "/>
<polygon id="XMLID_4584_" fill="#050001" points="634.9,483.6 640.9,480.1 646.8,483.6 646.8,490.5 640.9,493.9 634.9,490.5 "/>
<polygon id="XMLID_4583_" fill="#050001" points="626.9,496.5 632.9,493.1 638.9,496.5 638.9,503.4 632.9,506.9 626.9,503.4 "/>
<polygon id="XMLID_4582_" fill="#050001" points="642.8,496.5 648.8,493.1 654.8,496.5 654.8,503.4 648.8,506.9 642.8,503.4 "/>
<polygon id="XMLID_4581_" fill="#050001" points="634.9,509.2 640.9,505.8 646.8,509.2 646.8,516.1 640.9,519.5 634.9,516.1 "/>
<polygon id="XMLID_4580_" fill="#050001" points="626.9,522.2 632.9,518.7 638.9,522.2 638.9,529.1 632.9,532.5 626.9,529.1 "/>
<polygon id="XMLID_4579_" fill="#050001" points="642.8,522.2 648.8,518.7 654.8,522.2 654.8,529.1 648.8,532.5 642.8,529.1 "/>
<polygon id="XMLID_4578_" fill="#050001" points="634.9,534.8 640.9,531.4 646.8,534.8 646.8,541.7 640.9,545.2 634.9,541.7 "/>
<polygon id="XMLID_4577_" fill="#050001" points="626.9,547.8 632.9,544.3 638.9,547.8 638.9,554.7 632.9,558.1 626.9,554.7 "/>
<polygon id="XMLID_4576_" fill="#050001" points="642.8,547.8 648.8,544.3 654.8,547.8 654.8,554.7 648.8,558.1 642.8,554.7 "/>
<polygon id="XMLID_4575_" fill="#050001" points="634.9,560.5 640.9,557 646.8,560.5 646.8,567.3 640.9,570.8 634.9,567.3 "/>
<polygon id="XMLID_4574_" fill="#050001" points="650.8,483.6 656.8,480.1 662.8,483.6 662.8,490.5 656.8,493.9 650.8,490.5 "/>
<polygon id="XMLID_4573_" fill="#050001" points="658.8,496.5 664.8,493.1 670.7,496.5 670.7,503.4 664.8,506.9 658.8,503.4 "/>
<polygon id="XMLID_4572_" fill="#050001" points="650.8,509.2 656.8,505.8 662.8,509.2 662.8,516.1 656.8,519.5 650.8,516.1 "/>
<polygon id="XMLID_4571_" fill="#050001" points="658.8,522.2 664.8,518.7 670.7,522.2 670.7,529.1 664.8,532.5 658.8,529.1 "/>
<polygon id="XMLID_4570_" fill="#050001" points="650.8,534.8 656.8,531.4 662.8,534.8 662.8,541.7 656.8,545.2 650.8,541.7 "/>
<polygon id="XMLID_4569_" fill="#050001" points="658.8,547.8 664.8,544.3 670.7,547.8 670.7,554.7 664.8,558.1 658.8,554.7 "/>
<polygon id="XMLID_4568_" fill="#050001" points="650.8,560.5 656.8,557 662.8,560.5 662.8,567.3 656.8,570.8 650.8,567.3 "/>
<polygon id="XMLID_4567_" fill="#050001" points="666.8,483.6 672.8,480.1 678.7,483.6 678.7,490.5 672.8,493.9 666.8,490.5 "/>
<polygon id="XMLID_4566_" fill="#050001" points="666.8,509.2 672.8,505.8 678.7,509.2 678.7,516.1 672.8,519.5 666.8,516.1 "/>
<polygon id="XMLID_4565_" fill="#050001" points="666.8,534.8 672.8,531.4 678.7,534.8 678.7,541.7 672.8,545.2 666.8,541.7 "/>
<polygon id="XMLID_4564_" fill="#050001" points="666.8,560.5 672.8,557 678.7,560.5 678.7,567.3 672.8,570.8 666.8,567.3 "/>
<polygon id="XMLID_4563_" fill="#050001" points="682.2,483.6 688.2,480.1 694.2,483.6 694.2,490.5 688.2,493.9 682.2,490.5 "/>
<polygon id="XMLID_4562_" fill="#050001" points="674.3,496.5 680.2,493.1 686.2,496.5 686.2,503.4 680.2,506.9 674.3,503.4 "/>
<polygon id="XMLID_4561_" fill="#050001" points="690.2,496.5 696.1,493.1 702.1,496.5 702.1,503.4 696.1,506.9 690.2,503.4 "/>
<polygon id="XMLID_4560_" fill="#050001" points="682.2,509.2 688.2,505.8 694.2,509.2 694.2,516.1 688.2,519.5 682.2,516.1 "/>
<polygon id="XMLID_4559_" fill="#050001" points="674.3,522.2 680.2,518.7 686.2,522.2 686.2,529.1 680.2,532.5 674.3,529.1 "/>
<polygon id="XMLID_4558_" fill="#050001" points="690.2,522.2 696.1,518.7 702.1,522.2 702.1,529.1 696.1,532.5 690.2,529.1 "/>
<polygon id="XMLID_4557_" fill="#050001" points="682.2,534.8 688.2,531.4 694.2,534.8 694.2,541.7 688.2,545.2 682.2,541.7 "/>
<polygon id="XMLID_4556_" fill="#050001" points="674.3,547.8 680.2,544.3 686.2,547.8 686.2,554.7 680.2,558.1 674.3,554.7 "/>
<polygon id="XMLID_4555_" fill="#050001" points="690.2,547.8 696.1,544.3 702.1,547.8 702.1,554.7 696.1,558.1 690.2,554.7 "/>
<polygon id="XMLID_4554_" fill="#050001" points="682.2,560.5 688.2,557 694.2,560.5 694.2,567.3 688.2,570.8 682.2,567.3 "/>
<polygon id="XMLID_4553_" fill="#050001" points="698.2,483.6 704.1,480.1 710.1,483.6 710.1,490.5 704.1,493.9 698.2,490.5 "/>
<polygon id="XMLID_4552_" fill="#050001" points="698.2,509.2 704.1,505.8 710.1,509.2 710.1,516.1 704.1,519.5 698.2,516.1 "/>
<polygon id="XMLID_4551_" fill="#050001" points="698.2,534.8 704.1,531.4 710.1,534.8 710.1,541.7 704.1,545.2 698.2,541.7 "/>
<polygon id="XMLID_4550_" fill="#050001" points="698.2,560.5 704.1,557 710.1,560.5 710.1,567.3 704.1,570.8 698.2,567.3 "/>
<polygon id="XMLID_4675_" fill="#050001" points="705.6,496.5 711.6,493.1 717.6,496.5 717.6,503.4 711.6,506.9 705.6,503.4 "/>
<polygon id="XMLID_4674_" fill="#050001" points="705.6,522.2 711.6,518.7 717.6,522.2 717.6,529.1 711.6,532.5 705.6,529.1 "/>
<polygon id="XMLID_4673_" fill="#050001" points="705.6,547.8 711.6,544.3 717.6,547.8 717.6,554.7 711.6,558.1 705.6,554.7 "/>
<polygon id="XMLID_4672_" fill="#050001" points="713.6,483.6 719.6,480.1 725.6,483.6 725.6,490.5 719.6,493.9 713.6,490.5 "/>
<polygon id="XMLID_4671_" fill="#050001" points="713.6,509.2 719.6,505.8 725.6,509.2 725.6,516.1 719.6,519.5 713.6,516.1 "/>
<polygon id="XMLID_4670_" fill="#050001" points="713.6,534.8 719.6,531.4 725.6,534.8 725.6,541.7 719.6,545.2 713.6,541.7 "/>
<polygon id="XMLID_4669_" fill="#050001" points="713.6,560.5 719.6,557 725.6,560.5 725.6,567.3 719.6,570.8 713.6,567.3 "/>
<polygon id="XMLID_4668_" fill="#050001" points="729,483.6 735,480.1 741,483.6 741,490.5 735,493.9 729,490.5 "/>
<polygon id="XMLID_4667_" fill="#050001" points="721.1,496.5 727.1,493.1 733,496.5 733,503.4 727.1,506.9 721.1,503.4 "/>
<polygon id="XMLID_4666_" fill="#050001" points="737,496.5 743,493.1 748.9,496.5 748.9,503.4 743,506.9 737,503.4 "/>
<polygon id="XMLID_4665_" fill="#050001" points="729,509.2 735,505.8 741,509.2 741,516.1 735,519.5 729,516.1 "/>
<polygon id="XMLID_4664_" fill="#050001" points="721.1,522.2 727.1,518.7 733,522.2 733,529.1 727.1,532.5 721.1,529.1 "/>
<polygon id="XMLID_4663_" fill="#050001" points="737,522.2 743,518.7 748.9,522.2 748.9,529.1 743,532.5 737,529.1 "/>
<polygon id="XMLID_4662_" fill="#050001" points="729,534.8 735,531.4 741,534.8 741,541.7 735,545.2 729,541.7 "/>
<polygon id="XMLID_4661_" fill="#050001" points="721.1,547.8 727.1,544.3 733,547.8 733,554.7 727.1,558.1 721.1,554.7 "/>
<polygon id="XMLID_4660_" fill="#050001" points="737,547.8 743,544.3 748.9,547.8 748.9,554.7 743,558.1 737,554.7 "/>
<polygon id="XMLID_4659_" fill="#050001" points="729,560.5 735,557 741,560.5 741,567.3 735,570.8 729,567.3 "/>
<polygon id="XMLID_4658_" fill="#050001" points="745,483.6 751,480.1 756.9,483.6 756.9,490.5 751,493.9 745,490.5 "/>
<polygon id="XMLID_4657_" fill="#050001" points="752.9,496.5 758.9,493.1 764.9,496.5 764.9,503.4 758.9,506.9 752.9,503.4 "/>
<polygon id="XMLID_4656_" fill="#050001" points="745,509.2 751,505.8 756.9,509.2 756.9,516.1 751,519.5 745,516.1 "/>
<polygon id="XMLID_4655_" fill="#050001" points="752.9,522.2 758.9,518.7 764.9,522.2 764.9,529.1 758.9,532.5 752.9,529.1 "/>
<polygon id="XMLID_4654_" fill="#050001" points="745,534.8 751,531.4 756.9,534.8 756.9,541.7 751,545.2 745,541.7 "/>
<polygon id="XMLID_4653_" fill="#050001" points="752.9,547.8 758.9,544.3 764.9,547.8 764.9,554.7 758.9,558.1 752.9,554.7 "/>
<polygon id="XMLID_4652_" fill="#050001" points="745,560.5 751,557 756.9,560.5 756.9,567.3 751,570.8 745,567.3 "/>
<polygon id="XMLID_4651_" fill="#050001" points="761,483.6 766.9,480.1 772.9,483.6 772.9,490.5 766.9,493.9 761,490.5 "/>
<polygon id="XMLID_4650_" fill="#050001" points="761,509.2 766.9,505.8 772.9,509.2 772.9,516.1 766.9,519.5 761,516.1 "/>
<polygon id="XMLID_4649_" fill="#050001" points="761,534.8 766.9,531.4 772.9,534.8 772.9,541.7 766.9,545.2 761,541.7 "/>
<polygon id="XMLID_4648_" fill="#050001" points="761,560.5 766.9,557 772.9,560.5 772.9,567.3 766.9,570.8 761,567.3 "/>
<polygon id="XMLID_4647_" fill="#050001" points="776.4,483.6 782.4,480.1 788.3,483.6 788.3,490.5 782.4,493.9 776.4,490.5 "/>
<polygon id="XMLID_4646_" fill="#050001" points="768.4,496.5 774.4,493.1 780.4,496.5 780.4,503.4 774.4,506.9 768.4,503.4 "/>
<polygon id="XMLID_4645_" fill="#050001" points="784.3,496.5 790.3,493.1 796.3,496.5 796.3,503.4 790.3,506.9 784.3,503.4 "/>
<polygon id="XMLID_4644_" fill="#050001" points="776.4,509.2 782.4,505.8 788.3,509.2 788.3,516.1 782.4,519.5 776.4,516.1 "/>
<polygon id="XMLID_4643_" fill="#050001" points="768.4,522.2 774.4,518.7 780.4,522.2 780.4,529.1 774.4,532.5 768.4,529.1 "/>
<polygon id="XMLID_4642_" fill="#050001" points="784.3,522.2 790.3,518.7 796.3,522.2 796.3,529.1 790.3,532.5 784.3,529.1 "/>
<polygon id="XMLID_4641_" fill="#050001" points="776.4,534.8 782.4,531.4 788.3,534.8 788.3,541.7 782.4,545.2 776.4,541.7 "/>
<polygon id="XMLID_4640_" fill="#050001" points="768.4,547.8 774.4,544.3 780.4,547.8 780.4,554.7 774.4,558.1 768.4,554.7 "/>
<polygon id="XMLID_4639_" fill="#050001" points="784.3,547.8 790.3,544.3 796.3,547.8 796.3,554.7 790.3,558.1 784.3,554.7 "/>
<polygon id="XMLID_4638_" fill="#050001" points="776.4,560.5 782.4,557 788.3,560.5 788.3,567.3 782.4,570.8 776.4,567.3 "/>
<polygon id="XMLID_4637_" fill="#050001" points="792.3,483.6 798.3,480.1 804.3,483.6 804.3,490.5 798.3,493.9 792.3,490.5 "/>
<polygon id="XMLID_4636_" fill="#050001" points="800.3,496.5 806.3,493.1 812.2,496.5 812.2,503.4 806.3,506.9 800.3,503.4 "/>
<polygon id="XMLID_4635_" fill="#050001" points="792.3,509.2 798.3,505.8 804.3,509.2 804.3,516.1 798.3,519.5 792.3,516.1 "/>
<polygon id="XMLID_4634_" fill="#050001" points="800.3,522.2 806.3,518.7 812.2,522.2 812.2,529.1 806.3,532.5 800.3,529.1 "/>
<polygon id="XMLID_4633_" fill="#050001" points="792.3,534.8 798.3,531.4 804.3,534.8 804.3,541.7 798.3,545.2 792.3,541.7 "/>
<polygon id="XMLID_4632_" fill="#050001" points="800.3,547.8 806.3,544.3 812.2,547.8 812.2,554.7 806.3,558.1 800.3,554.7 "/>
<polygon id="XMLID_4631_" fill="#050001" points="792.3,560.5 798.3,557 804.3,560.5 804.3,567.3 798.3,570.8 792.3,567.3 "/>
<polygon id="XMLID_4630_" fill="#050001" points="808.3,483.6 814.3,480.1 820.2,483.6 820.2,490.5 814.3,493.9 808.3,490.5 "/>
<polygon id="XMLID_4629_" fill="#050001" points="808.3,509.2 814.3,505.8 820.2,509.2 820.2,516.1 814.3,519.5 808.3,516.1 "/>
<polygon id="XMLID_4628_" fill="#050001" points="808.3,534.8 814.3,531.4 820.2,534.8 820.2,541.7 814.3,545.2 808.3,541.7 "/>
<polygon id="XMLID_4627_" fill="#050001" points="808.3,560.5 814.3,557 820.2,560.5 820.2,567.3 814.3,570.8 808.3,567.3 "/>
<polygon id="XMLID_4626_" fill="#050001" points="823.7,483.6 829.7,480.1 835.7,483.6 835.7,490.5 829.7,493.9 823.7,490.5 "/>
<polygon id="XMLID_4625_" fill="#050001" points="815.8,496.5 821.7,493.1 827.7,496.5 827.7,503.4 821.7,506.9 815.8,503.4 "/>
<polygon id="XMLID_4624_" fill="#050001" points="831.7,496.5 837.6,493.1 843.6,496.5 843.6,503.4 837.6,506.9 831.7,503.4 "/>
<polygon id="XMLID_4623_" fill="#050001" points="823.7,509.2 829.7,505.8 835.7,509.2 835.7,516.1 829.7,519.5 823.7,516.1 "/>
<polygon id="XMLID_4622_" fill="#050001" points="815.8,522.2 821.7,518.7 827.7,522.2 827.7,529.1 821.7,532.5 815.8,529.1 "/>
<polygon id="XMLID_4621_" fill="#050001" points="831.7,522.2 837.6,518.7 843.6,522.2 843.6,529.1 837.6,532.5 831.7,529.1 "/>
<polygon id="XMLID_4620_" fill="#050001" points="823.7,534.8 829.7,531.4 835.7,534.8 835.7,541.7 829.7,545.2 823.7,541.7 "/>
<polygon id="XMLID_4619_" fill="#050001" points="815.8,547.8 821.7,544.3 827.7,547.8 827.7,554.7 821.7,558.1 815.8,554.7 "/>
<polygon id="XMLID_4618_" fill="#050001" points="831.7,547.8 837.6,544.3 843.6,547.8 843.6,554.7 837.6,558.1 831.7,554.7 "/>
<polygon id="XMLID_4617_" fill="#050001" points="823.7,560.5 829.7,557 835.7,560.5 835.7,567.3 829.7,570.8 823.7,567.3 "/>
<polygon id="XMLID_4616_" fill="#050001" points="839.7,483.6 845.6,480.1 851.6,483.6 851.6,490.5 845.6,493.9 839.7,490.5 "/>
<polygon id="XMLID_4615_" fill="#050001" points="839.7,509.2 845.6,505.8 851.6,509.2 851.6,516.1 845.6,519.5 839.7,516.1 "/>
<polygon id="XMLID_4614_" fill="#050001" points="839.7,534.8 845.6,531.4 851.6,534.8 851.6,541.7 845.6,545.2 839.7,541.7 "/>
<polygon id="XMLID_4613_" fill="#050001" points="839.7,560.5 845.6,557 851.6,560.5 851.6,567.3 845.6,570.8 839.7,567.3 "/>
<polygon id="XMLID_4738_" fill="#050001" points="847.1,496.5 853.1,493.1 859.1,496.5 859.1,503.4 853.1,506.9 847.1,503.4 "/>
<polygon id="XMLID_4737_" fill="#050001" points="847.1,522.2 853.1,518.7 859.1,522.2 859.1,529.1 853.1,532.5 847.1,529.1 "/>
<polygon id="XMLID_4736_" fill="#050001" points="847.1,547.8 853.1,544.3 859.1,547.8 859.1,554.7 853.1,558.1 847.1,554.7 "/>
<polygon id="XMLID_4735_" fill="#050001" points="855.1,483.6 861.1,480.1 867.1,483.6 867.1,490.5 861.1,493.9 855.1,490.5 "/>
<polygon id="XMLID_4734_" fill="#050001" points="855.1,509.2 861.1,505.8 867.1,509.2 867.1,516.1 861.1,519.5 855.1,516.1 "/>
<polygon id="XMLID_4733_" fill="#050001" points="855.1,534.8 861.1,531.4 867.1,534.8 867.1,541.7 861.1,545.2 855.1,541.7 "/>
<polygon id="XMLID_4732_" fill="#050001" points="855.1,560.5 861.1,557 867.1,560.5 867.1,567.3 861.1,570.8 855.1,567.3 "/>
<polygon id="XMLID_4731_" fill="#050001" points="870.5,483.6 876.5,480.1 882.5,483.6 882.5,490.5 876.5,493.9 870.5,490.5 "/>
<polygon id="XMLID_4730_" fill="#050001" points="862.6,496.5 868.6,493.1 874.5,496.5 874.5,503.4 868.6,506.9 862.6,503.4 "/>
<polygon id="XMLID_4729_" fill="#050001" points="878.5,496.5 884.5,493.1 890.4,496.5 890.4,503.4 884.5,506.9 878.5,503.4 "/>
<polygon id="XMLID_4728_" fill="#050001" points="870.5,509.2 876.5,505.8 882.5,509.2 882.5,516.1 876.5,519.5 870.5,516.1 "/>
<polygon id="XMLID_4727_" fill="#050001" points="862.6,522.2 868.6,518.7 874.5,522.2 874.5,529.1 868.6,532.5 862.6,529.1 "/>
<polygon id="XMLID_4726_" fill="#050001" points="878.5,522.2 884.5,518.7 890.4,522.2 890.4,529.1 884.5,532.5 878.5,529.1 "/>
<polygon id="XMLID_4725_" fill="#050001" points="870.5,534.8 876.5,531.4 882.5,534.8 882.5,541.7 876.5,545.2 870.5,541.7 "/>
<polygon id="XMLID_4724_" fill="#050001" points="862.6,547.8 868.6,544.3 874.5,547.8 874.5,554.7 868.6,558.1 862.6,554.7 "/>
<polygon id="XMLID_4723_" fill="#050001" points="878.5,547.8 884.5,544.3 890.4,547.8 890.4,554.7 884.5,558.1 878.5,554.7 "/>
<polygon id="XMLID_4722_" fill="#050001" points="870.5,560.5 876.5,557 882.5,560.5 882.5,567.3 876.5,570.8 870.5,567.3 "/>
<polygon id="XMLID_4721_" fill="#050001" points="886.5,483.6 892.5,480.1 898.4,483.6 898.4,490.5 892.5,493.9 886.5,490.5 "/>
<polygon id="XMLID_4720_" fill="#050001" points="894.4,496.5 900.4,493.1 906.4,496.5 906.4,503.4 900.4,506.9 894.4,503.4 "/>
<polygon id="XMLID_4719_" fill="#050001" points="886.5,509.2 892.5,505.8 898.4,509.2 898.4,516.1 892.5,519.5 886.5,516.1 "/>
<polygon id="XMLID_4718_" fill="#050001" points="894.4,522.2 900.4,518.7 906.4,522.2 906.4,529.1 900.4,532.5 894.4,529.1 "/>
<polygon id="XMLID_4717_" fill="#050001" points="886.5,534.8 892.5,531.4 898.4,534.8 898.4,541.7 892.5,545.2 886.5,541.7 "/>
<polygon id="XMLID_4716_" fill="#050001" points="894.4,547.8 900.4,544.3 906.4,547.8 906.4,554.7 900.4,558.1 894.4,554.7 "/>
<polygon id="XMLID_4715_" fill="#050001" points="886.5,560.5 892.5,557 898.4,560.5 898.4,567.3 892.5,570.8 886.5,567.3 "/>
<polygon id="XMLID_4714_" fill="#050001" points="902.5,483.6 908.4,480.1 914.4,483.6 914.4,490.5 908.4,493.9 902.5,490.5 "/>
<polygon id="XMLID_4713_" fill="#050001" points="902.5,509.2 908.4,505.8 914.4,509.2 914.4,516.1 908.4,519.5 902.5,516.1 "/>
<polygon id="XMLID_4712_" fill="#050001" points="902.5,534.8 908.4,531.4 914.4,534.8 914.4,541.7 908.4,545.2 902.5,541.7 "/>
<polygon id="XMLID_4711_" fill="#050001" points="902.5,560.5 908.4,557 914.4,560.5 914.4,567.3 908.4,570.8 902.5,567.3 "/>
<polygon id="XMLID_4710_" fill="#050001" points="917.9,483.6 923.9,480.1 929.8,483.6 929.8,490.5 923.9,493.9 917.9,490.5 "/>
<polygon id="XMLID_4709_" fill="#050001" points="909.9,496.5 915.9,493.1 921.9,496.5 921.9,503.4 915.9,506.9 909.9,503.4 "/>
<polygon id="XMLID_4708_" fill="#050001" points="925.8,496.5 931.8,493.1 937.8,496.5 937.8,503.4 931.8,506.9 925.8,503.4 "/>
<polygon id="XMLID_4707_" fill="#050001" points="917.9,509.2 923.9,505.8 929.8,509.2 929.8,516.1 923.9,519.5 917.9,516.1 "/>
<polygon id="XMLID_4706_" fill="#050001" points="909.9,522.2 915.9,518.7 921.9,522.2 921.9,529.1 915.9,532.5 909.9,529.1 "/>
<polygon id="XMLID_4705_" fill="#050001" points="925.8,522.2 931.8,518.7 937.8,522.2 937.8,529.1 931.8,532.5 925.8,529.1 "/>
<polygon id="XMLID_4704_" fill="#050001" points="917.9,534.8 923.9,531.4 929.8,534.8 929.8,541.7 923.9,545.2 917.9,541.7 "/>
<polygon id="XMLID_4703_" fill="#050001" points="909.9,547.8 915.9,544.3 921.9,547.8 921.9,554.7 915.9,558.1 909.9,554.7 "/>
<polygon id="XMLID_4702_" fill="#050001" points="925.8,547.8 931.8,544.3 937.8,547.8 937.8,554.7 931.8,558.1 925.8,554.7 "/>
<polygon id="XMLID_4701_" fill="#050001" points="917.9,560.5 923.9,557 929.8,560.5 929.8,567.3 923.9,570.8 917.9,567.3 "/>
<polygon id="XMLID_4700_" fill="#050001" points="933.8,483.6 939.8,480.1 945.8,483.6 945.8,490.5 939.8,493.9 933.8,490.5 "/>
<polygon id="XMLID_4699_" fill="#050001" points="941.8,496.5 947.8,493.1 953.7,496.5 953.7,503.4 947.8,506.9 941.8,503.4 "/>
<polygon id="XMLID_4698_" fill="#050001" points="933.8,509.2 939.8,505.8 945.8,509.2 945.8,516.1 939.8,519.5 933.8,516.1 "/>
<polygon id="XMLID_4697_" fill="#050001" points="941.8,522.2 947.8,518.7 953.7,522.2 953.7,529.1 947.8,532.5 941.8,529.1 "/>
<polygon id="XMLID_4696_" fill="#050001" points="933.8,534.8 939.8,531.4 945.8,534.8 945.8,541.7 939.8,545.2 933.8,541.7 "/>
<polygon id="XMLID_4695_" fill="#050001" points="941.8,547.8 947.8,544.3 953.7,547.8 953.7,554.7 947.8,558.1 941.8,554.7 "/>
<polygon id="XMLID_4694_" fill="#050001" points="933.8,560.5 939.8,557 945.8,560.5 945.8,567.3 939.8,570.8 933.8,567.3 "/>
<polygon id="XMLID_4693_" fill="#050001" points="949.8,483.6 955.8,480.1 961.7,483.6 961.7,490.5 955.8,493.9 949.8,490.5 "/>
<polygon id="XMLID_4692_" fill="#050001" points="949.8,509.2 955.8,505.8 961.7,509.2 961.7,516.1 955.8,519.5 949.8,516.1 "/>
<polygon id="XMLID_4691_" fill="#050001" points="949.8,534.8 955.8,531.4 961.7,534.8 961.7,541.7 955.8,545.2 949.8,541.7 "/>
<polygon id="XMLID_4690_" fill="#050001" points="949.8,560.5 955.8,557 961.7,560.5 961.7,567.3 955.8,570.8 949.8,567.3 "/>
<polygon id="XMLID_4689_" fill="#050001" points="965.2,483.6 971.2,480.1 977.2,483.6 977.2,490.5 971.2,493.9 965.2,490.5 "/>
<polygon id="XMLID_4688_" fill="#050001" points="957.3,496.5 963.2,493.1 969.2,496.5 969.2,503.4 963.2,506.9 957.3,503.4 "/>
<polygon id="XMLID_4687_" fill="#050001" points="973.2,496.5 979.1,493.1 985.1,496.5 985.1,503.4 979.1,506.9 973.2,503.4 "/>
<polygon id="XMLID_4686_" fill="#050001" points="965.2,509.2 971.2,505.8 977.2,509.2 977.2,516.1 971.2,519.5 965.2,516.1 "/>
<polygon id="XMLID_4685_" fill="#050001" points="957.3,522.2 963.2,518.7 969.2,522.2 969.2,529.1 963.2,532.5 957.3,529.1 "/>
<polygon id="XMLID_4684_" fill="#050001" points="973.2,522.2 979.1,518.7 985.1,522.2 985.1,529.1 979.1,532.5 973.2,529.1 "/>
<polygon id="XMLID_4683_" fill="#050001" points="965.2,534.8 971.2,531.4 977.2,534.8 977.2,541.7 971.2,545.2 965.2,541.7 "/>
<polygon id="XMLID_4682_" fill="#050001" points="957.3,547.8 963.2,544.3 969.2,547.8 969.2,554.7 963.2,558.1 957.3,554.7 "/>
<polygon id="XMLID_4681_" fill="#050001" points="973.2,547.8 979.1,544.3 985.1,547.8 985.1,554.7 979.1,558.1 973.2,554.7 "/>
<polygon id="XMLID_4680_" fill="#050001" points="965.2,560.5 971.2,557 977.2,560.5 977.2,567.3 971.2,570.8 965.2,567.3 "/>
<polygon id="XMLID_4679_" fill="#050001" points="981.2,483.6 987.1,480.1 993.1,483.6 993.1,490.5 987.1,493.9 981.2,490.5 "/>
<polygon id="XMLID_4678_" fill="#050001" points="981.2,509.2 987.1,505.8 993.1,509.2 993.1,516.1 987.1,519.5 981.2,516.1 "/>
<polygon id="XMLID_4677_" fill="#050001" points="981.2,534.8 987.1,531.4 993.1,534.8 993.1,541.7 987.1,545.2 981.2,541.7 "/>
<polygon id="XMLID_4676_" fill="#050001" points="981.2,560.5 987.1,557 993.1,560.5 993.1,567.3 987.1,570.8 981.2,567.3 "/>
<polygon id="XMLID_4801_" fill="#050001" points="988.6,496.5 994.6,493.1 1000.6,496.5 1000.6,503.4 994.6,506.9 988.6,503.4 "/>
<polygon id="XMLID_4800_" fill="#050001" points="988.6,522.2 994.6,518.7 1000.6,522.2 1000.6,529.1 994.6,532.5 988.6,529.1 "/>
<polygon id="XMLID_4799_" fill="#050001" points="988.6,547.8 994.6,544.3 1000.6,547.8 1000.6,554.7 994.6,558.1 988.6,554.7 "/>
<polygon id="XMLID_4798_" fill="#050001" points="996.6,483.6 1002.6,480.1 1008.6,483.6 1008.6,490.5 1002.6,493.9 996.6,490.5 "/>
<polygon id="XMLID_4797_" fill="#050001" points="996.6,509.2 1002.6,505.8 1008.6,509.2 1008.6,516.1 1002.6,519.5 996.6,516.1 "/>
<polygon id="XMLID_4796_" fill="#050001" points="996.6,534.8 1002.6,531.4 1008.6,534.8 1008.6,541.7 1002.6,545.2 996.6,541.7 "/>
<polygon id="XMLID_4795_" fill="#050001" points="996.6,560.5 1002.6,557 1008.6,560.5 1008.6,567.3 1002.6,570.8 996.6,567.3 "/>
<polygon id="XMLID_4794_" fill="#050001" points="1012,483.6 1018,480.1 1024,483.6 1024,490.5 1018,493.9 1012,490.5 "/>
<polygon id="XMLID_4793_" fill="#050001" points="1004.1,496.5 1010.1,493.1 1016,496.5 1016,503.4 1010.1,506.9 1004.1,503.4 "/>
<polygon id="XMLID_4792_" fill="#050001" points="1020,496.5 1026,493.1 1031.9,496.5 1031.9,503.4 1026,506.9 1020,503.4 "/>
<polygon id="XMLID_4791_" fill="#050001" points="1012,509.2 1018,505.8 1024,509.2 1024,516.1 1018,519.5 1012,516.1 "/>
<polygon id="XMLID_4790_" fill="#050001" points="1004.1,522.2 1010.1,518.7 1016,522.2 1016,529.1 1010.1,532.5 1004.1,529.1 "/>
<polygon id="XMLID_4789_" fill="#050001" points="1020,522.2 1026,518.7 1031.9,522.2 1031.9,529.1 1026,532.5 1020,529.1 "/>
<polygon id="XMLID_4788_" fill="#050001" points="1012,534.8 1018,531.4 1024,534.8 1024,541.7 1018,545.2 1012,541.7 "/>
<polygon id="XMLID_4787_" fill="#050001" points="1004.1,547.8 1010.1,544.3 1016,547.8 1016,554.7 1010.1,558.1 1004.1,554.7 "/>
<polygon id="XMLID_4786_" fill="#050001" points="1020,547.8 1026,544.3 1031.9,547.8 1031.9,554.7 1026,558.1 1020,554.7 "/>
<polygon id="XMLID_4785_" fill="#050001" points="1012,560.5 1018,557 1024,560.5 1024,567.3 1018,570.8 1012,567.3 "/>
<polygon id="XMLID_4784_" fill="#050001" points="1028,483.6 1034,480.1 1039.9,483.6 1039.9,490.5 1034,493.9 1028,490.5 "/>
<polygon id="XMLID_4783_" fill="#050001" points="1035.9,496.5 1041.9,493.1 1047.9,496.5 1047.9,503.4 1041.9,506.9 1035.9,503.4 
	"/>
<polygon id="XMLID_4782_" fill="#050001" points="1028,509.2 1034,505.8 1039.9,509.2 1039.9,516.1 1034,519.5 1028,516.1 "/>
<polygon id="XMLID_4781_" fill="#050001" points="1035.9,522.2 1041.9,518.7 1047.9,522.2 1047.9,529.1 1041.9,532.5 1035.9,529.1 
	"/>
<polygon id="XMLID_4780_" fill="#050001" points="1028,534.8 1034,531.4 1039.9,534.8 1039.9,541.7 1034,545.2 1028,541.7 "/>
<polygon id="XMLID_4779_" fill="#050001" points="1035.9,547.8 1041.9,544.3 1047.9,547.8 1047.9,554.7 1041.9,558.1 1035.9,554.7 
	"/>
<polygon id="XMLID_4778_" fill="#050001" points="1028,560.5 1034,557 1039.9,560.5 1039.9,567.3 1034,570.8 1028,567.3 "/>
<polygon id="XMLID_4777_" fill="#050001" points="1044,483.6 1049.9,480.1 1055.9,483.6 1055.9,490.5 1049.9,493.9 1044,490.5 "/>
<polygon id="XMLID_4776_" fill="#050001" points="1044,509.2 1049.9,505.8 1055.9,509.2 1055.9,516.1 1049.9,519.5 1044,516.1 "/>
<polygon id="XMLID_4775_" fill="#050001" points="1044,534.8 1049.9,531.4 1055.9,534.8 1055.9,541.7 1049.9,545.2 1044,541.7 "/>
<polygon id="XMLID_4774_" fill="#050001" points="1044,560.5 1049.9,557 1055.9,560.5 1055.9,567.3 1049.9,570.8 1044,567.3 "/>
<polygon id="XMLID_4773_" fill="#050001" points="1059.4,483.6 1065.4,480.1 1071.3,483.6 1071.3,490.5 1065.4,493.9 1059.4,490.5 
	"/>
<polygon id="XMLID_4772_" fill="#050001" points="1051.4,496.5 1057.4,493.1 1063.4,496.5 1063.4,503.4 1057.4,506.9 1051.4,503.4 
	"/>
<polygon id="XMLID_4771_" fill="#050001" points="1067.3,496.5 1073.3,493.1 1079.3,496.5 1079.3,503.4 1073.3,506.9 1067.3,503.4 
	"/>
<polygon id="XMLID_4770_" fill="#050001" points="1059.4,509.2 1065.4,505.8 1071.3,509.2 1071.3,516.1 1065.4,519.5 1059.4,516.1 
	"/>
<polygon id="XMLID_4769_" fill="#050001" points="1051.4,522.2 1057.4,518.7 1063.4,522.2 1063.4,529.1 1057.4,532.5 1051.4,529.1 
	"/>
<polygon id="XMLID_4768_" fill="#050001" points="1067.3,522.2 1073.3,518.7 1079.3,522.2 1079.3,529.1 1073.3,532.5 1067.3,529.1 
	"/>
<polygon id="XMLID_4767_" fill="#050001" points="1059.4,534.8 1065.4,531.4 1071.3,534.8 1071.3,541.7 1065.4,545.2 1059.4,541.7 
	"/>
<polygon id="XMLID_4766_" fill="#050001" points="1051.4,547.8 1057.4,544.3 1063.4,547.8 1063.4,554.7 1057.4,558.1 1051.4,554.7 
	"/>
<polygon id="XMLID_4765_" fill="#050001" points="1067.3,547.8 1073.3,544.3 1079.3,547.8 1079.3,554.7 1073.3,558.1 1067.3,554.7 
	"/>
<polygon id="XMLID_4764_" fill="#050001" points="1059.4,560.5 1065.4,557 1071.3,560.5 1071.3,567.3 1065.4,570.8 1059.4,567.3 "/>
<polygon id="XMLID_4763_" fill="#050001" points="1075.3,483.6 1081.3,480.1 1087.3,483.6 1087.3,490.5 1081.3,493.9 1075.3,490.5 
	"/>
<polygon id="XMLID_4762_" fill="#050001" points="1083.3,496.5 1089.3,493.1 1095.2,496.5 1095.2,503.4 1089.3,506.9 1083.3,503.4 
	"/>
<polygon id="XMLID_4761_" fill="#050001" points="1075.3,509.2 1081.3,505.8 1087.3,509.2 1087.3,516.1 1081.3,519.5 1075.3,516.1 
	"/>
<polygon id="XMLID_4760_" fill="#050001" points="1083.3,522.2 1089.3,518.7 1095.2,522.2 1095.2,529.1 1089.3,532.5 1083.3,529.1 
	"/>
<polygon id="XMLID_4759_" fill="#050001" points="1075.3,534.8 1081.3,531.4 1087.3,534.8 1087.3,541.7 1081.3,545.2 1075.3,541.7 
	"/>
<polygon id="XMLID_4758_" fill="#050001" points="1083.3,547.8 1089.3,544.3 1095.2,547.8 1095.2,554.7 1089.3,558.1 1083.3,554.7 
	"/>
<polygon id="XMLID_4757_" fill="#050001" points="1075.3,560.5 1081.3,557 1087.3,560.5 1087.3,567.3 1081.3,570.8 1075.3,567.3 "/>
<polygon id="XMLID_4756_" fill="#050001" points="1091.3,483.6 1097.3,480.1 1103.2,483.6 1103.2,490.5 1097.3,493.9 1091.3,490.5 
	"/>
<polygon id="XMLID_4755_" fill="#050001" points="1091.3,509.2 1097.3,505.8 1103.2,509.2 1103.2,516.1 1097.3,519.5 1091.3,516.1 
	"/>
<polygon id="XMLID_4754_" fill="#050001" points="1091.3,534.8 1097.3,531.4 1103.2,534.8 1103.2,541.7 1097.3,545.2 1091.3,541.7 
	"/>
<polygon id="XMLID_4753_" fill="#050001" points="1091.3,560.5 1097.3,557 1103.2,560.5 1103.2,567.3 1097.3,570.8 1091.3,567.3 "/>
<polygon id="XMLID_4752_" fill="#050001" points="1106.7,483.6 1112.7,480.1 1118.7,483.6 1118.7,490.5 1112.7,493.9 1106.7,490.5 
	"/>
<polygon id="XMLID_4751_" fill="#050001" points="1098.8,496.5 1104.7,493.1 1110.7,496.5 1110.7,503.4 1104.7,506.9 1098.8,503.4 
	"/>
<polygon id="XMLID_4750_" fill="#050001" points="1114.7,496.5 1120.6,493.1 1126.6,496.5 1126.6,503.4 1120.6,506.9 1114.7,503.4 
	"/>
<polygon id="XMLID_4749_" fill="#050001" points="1106.7,509.2 1112.7,505.8 1118.7,509.2 1118.7,516.1 1112.7,519.5 1106.7,516.1 
	"/>
<polygon id="XMLID_4748_" fill="#050001" points="1098.8,522.2 1104.7,518.7 1110.7,522.2 1110.7,529.1 1104.7,532.5 1098.8,529.1 
	"/>
<polygon id="XMLID_4747_" fill="#050001" points="1114.7,522.2 1120.6,518.7 1126.6,522.2 1126.6,529.1 1120.6,532.5 1114.7,529.1 
	"/>
<polygon id="XMLID_4746_" fill="#050001" points="1106.7,534.8 1112.7,531.4 1118.7,534.8 1118.7,541.7 1112.7,545.2 1106.7,541.7 
	"/>
<polygon id="XMLID_4745_" fill="#050001" points="1098.8,547.8 1104.7,544.3 1110.7,547.8 1110.7,554.7 1104.7,558.1 1098.8,554.7 
	"/>
<polygon id="XMLID_4744_" fill="#050001" points="1114.7,547.8 1120.6,544.3 1126.6,547.8 1126.6,554.7 1120.6,558.1 1114.7,554.7 
	"/>
<polygon id="XMLID_4743_" fill="#050001" points="1106.7,560.5 1112.7,557 1118.7,560.5 1118.7,567.3 1112.7,570.8 1106.7,567.3 "/>
<polygon id="XMLID_4742_" fill="#050001" points="1122.7,483.6 1128.6,480.1 1134.6,483.6 1134.6,490.5 1128.6,493.9 1122.7,490.5 
	"/>
<polygon id="XMLID_4741_" fill="#050001" points="1122.7,509.2 1128.6,505.8 1134.6,509.2 1134.6,516.1 1128.6,519.5 1122.7,516.1 
	"/>
<polygon id="XMLID_4740_" fill="#050001" points="1122.7,534.8 1128.6,531.4 1134.6,534.8 1134.6,541.7 1128.6,545.2 1122.7,541.7 
	"/>
<polygon id="XMLID_4739_" fill="#050001" points="1122.7,560.5 1128.6,557 1134.6,560.5 1134.6,567.3 1128.6,570.8 1122.7,567.3 "/>
<polygon id="XMLID_4864_" fill="#050001" points="1130.1,496.5 1136.1,493.1 1142.1,496.5 1142.1,503.4 1136.1,506.9 1130.1,503.4 
	"/>
<polygon id="XMLID_4863_" fill="#050001" points="1130.1,522.2 1136.1,518.7 1142.1,522.2 1142.1,529.1 1136.1,532.5 1130.1,529.1 
	"/>
<polygon id="XMLID_4862_" fill="#050001" points="1130.1,547.8 1136.1,544.3 1142.1,547.8 1142.1,554.7 1136.1,558.1 1130.1,554.7 
	"/>
<polygon id="XMLID_4861_" fill="#050001" points="1138.1,483.6 1144.1,480.1 1150.1,483.6 1150.1,490.5 1144.1,493.9 1138.1,490.5 
	"/>
<polygon id="XMLID_4860_" fill="#050001" points="1138.1,509.2 1144.1,505.8 1150.1,509.2 1150.1,516.1 1144.1,519.5 1138.1,516.1 
	"/>
<polygon id="XMLID_4859_" fill="#050001" points="1138.1,534.8 1144.1,531.4 1150.1,534.8 1150.1,541.7 1144.1,545.2 1138.1,541.7 
	"/>
<polygon id="XMLID_4858_" fill="#050001" points="1138.1,560.5 1144.1,557 1150.1,560.5 1150.1,567.3 1144.1,570.8 1138.1,567.3 "/>
<polygon id="XMLID_4857_" fill="#050001" points="1153.5,483.6 1159.5,480.1 1165.5,483.6 1165.5,490.5 1159.5,493.9 1153.5,490.5 
	"/>
<polygon id="XMLID_4856_" fill="#050001" points="1145.6,496.5 1151.6,493.1 1157.5,496.5 1157.5,503.4 1151.6,506.9 1145.6,503.4 
	"/>
<polygon id="XMLID_4855_" fill="#050001" points="1161.5,496.5 1167.5,493.1 1173.4,496.5 1173.4,503.4 1167.5,506.9 1161.5,503.4 
	"/>
<polygon id="XMLID_4854_" fill="#050001" points="1153.5,509.2 1159.5,505.8 1165.5,509.2 1165.5,516.1 1159.5,519.5 1153.5,516.1 
	"/>
<polygon id="XMLID_4853_" fill="#050001" points="1145.6,522.2 1151.6,518.7 1157.5,522.2 1157.5,529.1 1151.6,532.5 1145.6,529.1 
	"/>
<polygon id="XMLID_4852_" fill="#050001" points="1161.5,522.2 1167.5,518.7 1173.4,522.2 1173.4,529.1 1167.5,532.5 1161.5,529.1 
	"/>
<polygon id="XMLID_4851_" fill="#050001" points="1153.5,534.8 1159.5,531.4 1165.5,534.8 1165.5,541.7 1159.5,545.2 1153.5,541.7 
	"/>
<polygon id="XMLID_4850_" fill="#050001" points="1145.6,547.8 1151.6,544.3 1157.5,547.8 1157.5,554.7 1151.6,558.1 1145.6,554.7 
	"/>
<polygon id="XMLID_4849_" fill="#050001" points="1161.5,547.8 1167.5,544.3 1173.4,547.8 1173.4,554.7 1167.5,558.1 1161.5,554.7 
	"/>
<polygon id="XMLID_4848_" fill="#050001" points="1153.5,560.5 1159.5,557 1165.5,560.5 1165.5,567.3 1159.5,570.8 1153.5,567.3 "/>
<polygon id="XMLID_4847_" fill="#050001" points="1169.5,483.6 1175.5,480.1 1181.4,483.6 1181.4,490.5 1175.5,493.9 1169.5,490.5 
	"/>
<polygon id="XMLID_4845_" fill="#050001" points="1169.5,509.2 1175.5,505.8 1181.4,509.2 1181.4,516.1 1175.5,519.5 1169.5,516.1 
	"/>
<polygon id="XMLID_4843_" fill="#050001" points="1169.5,534.8 1175.5,531.4 1181.4,534.8 1181.4,541.7 1175.5,545.2 1169.5,541.7 
	"/>
<polygon id="XMLID_4841_" fill="#050001" points="1169.5,560.5 1175.5,557 1181.4,560.5 1181.4,567.3 1175.5,570.8 1169.5,567.3 "/>
<g id="XMLID_4473_">
	<g id="XMLID_4480_">
		<g id="XMLID_4485_">
			<path id="XMLID_4486_" fill="#050505" d="M572.6,299.7v-60.9c0-18.8,13.7-34.1,21.9-34.1h38v10.2h-38c-5.7,0-10.4,10.7-10.4,23.9
				v60.9c0,13.2,4.7,23.9,10.4,23.9h38v10.2h-38C586.3,333.7,572.6,318.4,572.6,299.7z"/>
		</g>
		<g id="XMLID_4483_">
			<path id="XMLID_4484_" fill="#595959" d="M574.9,298.4v-58.3c0-18,13.5-32.7,21.5-32.7h37.2v9.8h-37.2
				c-5.6,0-10.2,10.3-10.2,22.9v58.3c0,12.6,4.6,22.9,10.2,22.9h37.2v9.8h-37.2C588.4,331.1,574.9,316.4,574.9,298.4z"/>
		</g>
		<g id="XMLID_4481_">
			<linearGradient id="XMLID_126_" gradientUnits="userSpaceOnUse" x1="573.7387" y1="269.2232" x2="633.6274" y2="269.2232">
				<stop  offset="0" style="stop-color:#F2F2F2"/>
				<stop  offset="5.121884e-02" style="stop-color:#D8D8D8"/>
				<stop  offset="0.1398" style="stop-color:#D8D8D8"/>
				<stop  offset="0.9106" style="stop-color:#DBDBDB"/>
				<stop  offset="0.952" style="stop-color:#D8D8D8"/>
				<stop  offset="1" style="stop-color:#F4F4F4"/>
			</linearGradient>
			<path id="XMLID_4482_" fill="url(#XMLID_126_)" d="M573.7,299.7v-60.9c0-18.8,13.7-34.1,21.9-34.1h38v10.2h-38
				c-5.7,0-10.4,10.7-10.4,23.9v60.9c0,13.2,4.7,23.9,10.4,23.9h38v10.2h-38C587.4,333.7,573.7,318.4,573.7,299.7z"/>
		</g>
	</g>
	<g id="XMLID_4477_">
		<circle id="XMLID_4479_" fill="#6D6D6D" cx="633.6" cy="209.7" r="9"/>
		<circle id="XMLID_4478_" fill="#F2F2F2" cx="634.6" cy="210.7" r="9"/>
	</g>
	<g id="XMLID_4474_">
		<circle id="XMLID_4476_" fill="#6D6D6D" cx="633.6" cy="326.7" r="9"/>
		<circle id="XMLID_4475_" fill="#F2F2F2" cx="634.6" cy="327.7" r="9"/>
	</g>
</g>
</svg>
