<?xml version="1.0" encoding="utf-8"?>
<!-- Generator: Adobe Illustrator 16.0.0, SVG Export Plug-In . SVG Version: 6.00 Build 0)  -->
<!DOCTYPE svg PUBLIC "-//W3C//DTD SVG 1.1//EN" "http://www.w3.org/Graphics/SVG/1.1/DTD/svg11.dtd">
<svg version="1.1" id="图层_1" xmlns="http://www.w3.org/2000/svg" xmlns:xlink="http://www.w3.org/1999/xlink" x="0px" y="0px"
	 width="1275.59px" height="126.14px" viewBox="0 0 1275.59 126.14" enable-background="new 0 0 1275.59 126.14"
	 xml:space="preserve">
<rect x="0" y="-0.001" fill="#2F302F" width="1275.59" height="126.142"/>
<linearGradient id="SVGID_1_" gradientUnits="userSpaceOnUse" x1="-4.882813e-004" y1="63.0698" x2="60.1489" y2="63.0698">
	<stop  offset="0" style="stop-color:#343535"/>
	<stop  offset="0.7778" style="stop-color:#343535"/>
	<stop  offset="0.8835" style="stop-color:#636666"/>
	<stop  offset="1" style="stop-color:#030000"/>
</linearGradient>
<rect x="0" y="-0.001" fill="url(#SVGID_1_)" width="60.149" height="126.142"/>
<linearGradient id="SVGID_2_" gradientUnits="userSpaceOnUse" x1="-7095.8516" y1="63.0698" x2="-7035.7031" y2="63.0698" gradientTransform="matrix(-1 0 0 1 -5820.2617 0)">
	<stop  offset="0" style="stop-color:#343535"/>
	<stop  offset="0.7778" style="stop-color:#343535"/>
	<stop  offset="0.8835" style="stop-color:#636666"/>
	<stop  offset="1" style="stop-color:#030000"/>
</linearGradient>
<rect x="1215.441" y="-0.001" fill="url(#SVGID_2_)" width="60.148" height="126.142"/>
<g>
	<g>
		<path fill="#B7B6B6" d="M35.127,15.368c0,3.931-3.385,7.119-7.561,7.119H11.25c-4.177,0-7.563-3.188-7.563-7.119l0,0
			c0-3.931,3.386-7.119,7.563-7.119h16.316C31.743,8.249,35.127,11.437,35.127,15.368L35.127,15.368z"/>
		<path fill="#0E0D0D" d="M34.234,15.166c0,3.82-3.289,6.917-7.347,6.917H11.035c-4.058,0-7.347-3.096-7.347-6.917l0,0
			c0-3.821,3.289-6.917,7.347-6.917h15.853C30.945,8.249,34.234,11.345,34.234,15.166L34.234,15.166z"/>
	</g>
	<g>
		<path fill="#B7B6B6" d="M35.127,110.771c0,3.932-3.385,7.119-7.561,7.119H11.25c-4.177,0-7.563-3.188-7.563-7.119l0,0
			c0-3.931,3.386-7.117,7.563-7.117h16.316C31.743,103.654,35.127,106.841,35.127,110.771L35.127,110.771z"/>
		<path fill="#0E0D0D" d="M34.234,110.57c0,3.82-3.289,6.916-7.347,6.916H11.035c-4.058,0-7.347-3.096-7.347-6.916l0,0
			c0-3.82,3.289-6.916,7.347-6.916h15.853C30.945,103.654,34.234,106.75,34.234,110.57L34.234,110.57z"/>
	</g>
</g>
<g>
	<g>
		<path fill="#B7B6B6" d="M1238.908,15.368c0,3.931,3.385,7.119,7.561,7.119h16.316c4.176,0,7.563-3.188,7.563-7.119l0,0
			c0-3.931-3.387-7.119-7.563-7.119h-16.316C1242.293,8.249,1238.908,11.437,1238.908,15.368L1238.908,15.368z"/>
		<path fill="#0E0D0D" d="M1239.801,15.166c0,3.82,3.289,6.917,7.348,6.917h15.854c4.057,0,7.346-3.096,7.346-6.917l0,0
			c0-3.821-3.289-6.917-7.346-6.917h-15.854C1243.09,8.249,1239.801,11.345,1239.801,15.166L1239.801,15.166z"/>
	</g>
	<g>
		<path fill="#B7B6B6" d="M1238.908,110.771c0,3.932,3.385,7.119,7.561,7.119h16.316c4.176,0,7.563-3.188,7.563-7.119l0,0
			c0-3.931-3.387-7.117-7.563-7.117h-16.316C1242.293,103.654,1238.908,106.841,1238.908,110.771L1238.908,110.771z"/>
		<path fill="#0E0D0D" d="M1239.801,110.57c0,3.82,3.289,6.916,7.348,6.916h15.854c4.057,0,7.346-3.096,7.346-6.916l0,0
			c0-3.82-3.289-6.916-7.346-6.916h-15.854C1243.09,103.654,1239.801,106.75,1239.801,110.57L1239.801,110.57z"/>
	</g>
</g>
<g>
	<g>
		<path fill="#AFAEAE" d="M1264.893,15.369c0,5.366-4.598,9.716-10.266,9.716c-5.67,0-10.266-4.35-10.266-9.716
			c0-5.367,4.596-9.718,10.266-9.718C1260.295,5.651,1264.893,10.002,1264.893,15.369"/>
		<ellipse fill="none" stroke="#929292" stroke-miterlimit="10" cx="1254.627" cy="15.369" rx="10.266" ry="9.716"/>
		<path fill="#AFAEAE" d="M1262.172,15.369c0,3.942-3.379,7.139-7.545,7.139s-7.543-3.197-7.543-7.139
			c0-3.944,3.377-7.141,7.543-7.141S1262.172,11.425,1262.172,15.369"/>
		<ellipse fill="none" stroke="#929292" stroke-miterlimit="10" cx="1254.628" cy="15.369" rx="7.544" ry="7.139"/>
		<g>
			<g>
				<defs>
					<rect id="SVGID_3_" x="1247.516" y="8.639" width="14.221" height="13.458"/>
				</defs>
				<clipPath id="SVGID_4_">
					<use xlink:href="#SVGID_3_"  overflow="visible"/>
				</clipPath>
				<path clip-path="url(#SVGID_4_)" fill="#BEBEBD" d="M1261.736,15.369c0,3.715-3.184,6.728-7.109,6.728
					c-3.928,0-7.109-3.013-7.109-6.728c0-3.717,3.182-6.73,7.109-6.73C1258.553,8.639,1261.736,11.652,1261.736,15.369"/>
				<path clip-path="url(#SVGID_4_)" fill="#C0C0C0" d="M1261.568,15.369c0,3.626-3.109,6.569-6.941,6.569
					c-3.834,0-6.941-2.943-6.941-6.569c0-3.629,3.107-6.572,6.941-6.572C1258.459,8.796,1261.568,11.739,1261.568,15.369"/>
				<path clip-path="url(#SVGID_4_)" fill="#C2C3C3" d="M1261.402,15.369c0,3.54-3.035,6.412-6.775,6.412
					c-3.742,0-6.775-2.872-6.775-6.412c0-3.542,3.033-6.413,6.775-6.413C1258.367,8.956,1261.402,11.827,1261.402,15.369"/>
				<path clip-path="url(#SVGID_4_)" fill="#C4C5C4" d="M1261.234,15.369c0,3.453-2.957,6.253-6.607,6.253s-6.609-2.8-6.609-6.253
					c0-3.455,2.959-6.254,6.609-6.254S1261.234,11.914,1261.234,15.369"/>
				<path clip-path="url(#SVGID_4_)" fill="#C6C8C8" d="M1261.066,15.369c0,3.365-2.885,6.096-6.439,6.096
					c-3.557,0-6.439-2.731-6.439-6.096c0-3.367,2.883-6.098,6.439-6.098C1258.182,9.271,1261.066,12.001,1261.066,15.369"/>
				<path clip-path="url(#SVGID_4_)" fill="#C9CACB" d="M1260.9,15.369c0,3.277-2.809,5.936-6.273,5.936s-6.273-2.659-6.273-5.936
					c0-3.279,2.809-5.938,6.273-5.938S1260.9,12.089,1260.9,15.369"/>
				<path clip-path="url(#SVGID_4_)" fill="#CBCDCD" d="M1260.734,15.369c0,3.191-2.736,5.78-6.107,5.78s-6.105-2.589-6.105-5.78
					c0-3.193,2.734-5.781,6.105-5.781S1260.734,12.176,1260.734,15.369"/>
				<path clip-path="url(#SVGID_4_)" fill="#CCCFD0" d="M1260.566,15.369c0,3.103-2.662,5.621-5.939,5.621
					c-3.279,0-5.939-2.518-5.939-5.621c0-3.105,2.66-5.622,5.939-5.622C1257.904,9.747,1260.566,12.263,1260.566,15.369"/>
				<path clip-path="url(#SVGID_4_)" fill="#D0D2D2" d="M1260.398,15.369c0,3.015-2.584,5.461-5.771,5.461s-5.771-2.446-5.771-5.461
					c0-3.018,2.584-5.464,5.771-5.464S1260.398,12.351,1260.398,15.369"/>
				<path clip-path="url(#SVGID_4_)" fill="#D2D4D5" d="M1260.232,15.369c0,2.928-2.51,5.303-5.605,5.303s-5.604-2.375-5.604-5.303
					c0-2.931,2.508-5.305,5.604-5.305S1260.232,12.438,1260.232,15.369"/>
			</g>
		</g>
		<polygon fill="#605F5E" points="1253.699,19.415 1253.699,16.249 1250.352,16.249 1250.352,14.489 1253.699,14.489 
			1253.699,11.322 1255.557,11.322 1255.557,14.489 1258.902,14.489 1258.902,16.249 1255.557,16.249 1255.557,19.415 		"/>
		<path fill="#221714" d="M1255.395,11.475v2.861v0.306h0.322h3.023v1.452h-3.023h-0.322v0.305v2.861h-1.537v-2.861v-0.305h-0.32
			h-3.025v-1.452h3.025h0.32v-0.306v-2.861H1255.395z M1255.717,11.17h-2.18v3.165h-3.346v2.063h3.346v3.167h2.18v-3.167h3.344
			v-2.063h-3.344V11.17z"/>
	</g>
	<g>
		<path fill="#AFAEAE" d="M1264.893,110.773c0,5.365-4.598,9.715-10.266,9.715c-5.67,0-10.266-4.35-10.266-9.715
			c0-5.367,4.596-9.717,10.266-9.717C1260.295,101.057,1264.893,105.406,1264.893,110.773"/>
		<ellipse fill="none" stroke="#929292" stroke-miterlimit="10" cx="1254.627" cy="110.773" rx="10.266" ry="9.715"/>
		<path fill="#AFAEAE" d="M1262.172,110.773c0,3.942-3.379,7.14-7.545,7.14s-7.543-3.197-7.543-7.14
			c0-3.943,3.377-7.141,7.543-7.141S1262.172,106.83,1262.172,110.773"/>
		<ellipse fill="none" stroke="#929292" stroke-miterlimit="10" cx="1254.628" cy="110.773" rx="7.544" ry="7.14"/>
		<g>
			<g>
				<defs>
					<rect id="SVGID_5_" x="1247.516" y="104.043" width="14.221" height="13.458"/>
				</defs>
				<clipPath id="SVGID_6_">
					<use xlink:href="#SVGID_5_"  overflow="visible"/>
				</clipPath>
				<path clip-path="url(#SVGID_6_)" fill="#BEBEBD" d="M1261.736,110.773c0,3.715-3.184,6.728-7.109,6.728
					c-3.928,0-7.109-3.013-7.109-6.728c0-3.717,3.182-6.73,7.109-6.73C1258.553,104.043,1261.736,107.057,1261.736,110.773"/>
				<path clip-path="url(#SVGID_6_)" fill="#C0C0C0" d="M1261.568,110.773c0,3.627-3.109,6.57-6.941,6.57
					c-3.834,0-6.941-2.943-6.941-6.57c0-3.629,3.107-6.572,6.941-6.572C1258.459,104.201,1261.568,107.145,1261.568,110.773"/>
				<path clip-path="url(#SVGID_6_)" fill="#C2C3C3" d="M1261.402,110.773c0,3.539-3.035,6.412-6.775,6.412
					c-3.742,0-6.775-2.873-6.775-6.412c0-3.543,3.033-6.412,6.775-6.412C1258.367,104.361,1261.402,107.23,1261.402,110.773"/>
				<path clip-path="url(#SVGID_6_)" fill="#C4C5C4" d="M1261.234,110.773c0,3.453-2.957,6.254-6.607,6.254
					s-6.609-2.801-6.609-6.254c0-3.455,2.959-6.254,6.609-6.254S1261.234,107.318,1261.234,110.773"/>
				<path clip-path="url(#SVGID_6_)" fill="#C6C8C8" d="M1261.066,110.773c0,3.365-2.885,6.096-6.439,6.096
					c-3.557,0-6.439-2.73-6.439-6.096c0-3.367,2.883-6.098,6.439-6.098C1258.182,104.676,1261.066,107.406,1261.066,110.773"/>
				<path clip-path="url(#SVGID_6_)" fill="#C9CACB" d="M1260.9,110.773c0,3.277-2.809,5.936-6.273,5.936s-6.273-2.658-6.273-5.936
					c0-3.279,2.809-5.938,6.273-5.938S1260.9,107.494,1260.9,110.773"/>
				<path clip-path="url(#SVGID_6_)" fill="#CBCDCD" d="M1260.734,110.773c0,3.19-2.736,5.779-6.107,5.779s-6.105-2.589-6.105-5.779
					c0-3.193,2.734-5.782,6.105-5.782S1260.734,107.58,1260.734,110.773"/>
				<path clip-path="url(#SVGID_6_)" fill="#CCCFD0" d="M1260.566,110.773c0,3.104-2.662,5.621-5.939,5.621
					c-3.279,0-5.939-2.518-5.939-5.621c0-3.105,2.66-5.622,5.939-5.622C1257.904,105.151,1260.566,107.668,1260.566,110.773"/>
				<path clip-path="url(#SVGID_6_)" fill="#D0D2D2" d="M1260.398,110.773c0,3.016-2.584,5.462-5.771,5.462
					s-5.771-2.446-5.771-5.462c0-3.019,2.584-5.464,5.771-5.464S1260.398,107.755,1260.398,110.773"/>
				<path clip-path="url(#SVGID_6_)" fill="#D2D4D5" d="M1260.232,110.773c0,2.928-2.51,5.303-5.605,5.303s-5.604-2.375-5.604-5.303
					c0-2.93,2.508-5.305,5.604-5.305S1260.232,107.844,1260.232,110.773"/>
			</g>
		</g>
		<polygon fill="#605F5E" points="1253.699,114.818 1253.699,111.652 1250.352,111.652 1250.352,109.893 1253.699,109.893 
			1253.699,106.727 1255.557,106.727 1255.557,109.893 1258.902,109.893 1258.902,111.652 1255.557,111.652 1255.557,114.818 		"/>
		<path fill="#221714" d="M1255.395,106.88v2.86v0.306h0.322h3.023v1.453h-3.023h-0.322v0.304v2.862h-1.537v-2.862v-0.304h-0.32
			h-3.025v-1.453h3.025h0.32v-0.306v-2.86H1255.395z M1255.717,106.574h-2.18v3.166h-3.346v2.063h3.346v3.166h2.18v-3.166h3.344
			v-2.063h-3.344V106.574z"/>
	</g>
</g>
<g>
	<path fill="#AFAEAE" d="M28.672,14.426c0,5.367-4.594,9.717-10.264,9.717s-10.268-4.35-10.268-9.717s4.598-9.717,10.268-9.717
		S28.672,9.06,28.672,14.426"/>
	<ellipse fill="none" stroke="#929292" stroke-miterlimit="10" cx="18.407" cy="14.426" rx="10.266" ry="9.717"/>
	<path fill="#AFAEAE" d="M25.951,14.426c0,3.942-3.377,7.139-7.542,7.139c-4.166,0-7.546-3.197-7.546-7.139
		c0-3.944,3.38-7.141,7.546-7.141C22.574,7.285,25.951,10.482,25.951,14.426"/>
	<ellipse fill="none" stroke="#929292" stroke-miterlimit="10" cx="18.407" cy="14.426" rx="7.544" ry="7.139"/>
	<g>
		<g>
			<defs>
				<rect id="SVGID_7_" x="11.296" y="7.697" width="14.221" height="13.457"/>
			</defs>
			<clipPath id="SVGID_8_">
				<use xlink:href="#SVGID_7_"  overflow="visible"/>
			</clipPath>
			<path clip-path="url(#SVGID_8_)" fill="#BEBEBD" d="M25.517,14.426c0,3.716-3.183,6.728-7.108,6.728
				c-3.928,0-7.112-3.012-7.112-6.728s3.185-6.729,7.112-6.729C22.334,7.697,25.517,10.71,25.517,14.426"/>
			<path clip-path="url(#SVGID_8_)" fill="#C0C0C0" d="M25.349,14.426c0,3.627-3.107,6.569-6.94,6.569
				c-3.835,0-6.944-2.942-6.944-6.569c0-3.629,3.109-6.571,6.944-6.571C22.242,7.855,25.349,10.797,25.349,14.426"/>
			<path clip-path="url(#SVGID_8_)" fill="#C2C3C3" d="M25.181,14.426c0,3.54-3.032,6.413-6.772,6.413
				c-3.742,0-6.776-2.873-6.776-6.413c0-3.541,3.034-6.413,6.776-6.413C22.149,8.013,25.181,10.885,25.181,14.426"/>
			<path clip-path="url(#SVGID_8_)" fill="#C4C5C4" d="M25.013,14.426c0,3.453-2.955,6.253-6.604,6.253
				c-3.65,0-6.609-2.8-6.609-6.253c0-3.454,2.959-6.254,6.609-6.254C22.058,8.172,25.013,10.973,25.013,14.426"/>
			<path clip-path="url(#SVGID_8_)" fill="#C6C8C8" d="M24.848,14.426c0,3.365-2.885,6.095-6.439,6.095
				c-3.559,0-6.441-2.73-6.441-6.095c0-3.366,2.883-6.097,6.441-6.097C21.963,8.33,24.848,11.06,24.848,14.426"/>
			<path clip-path="url(#SVGID_8_)" fill="#C9CACB" d="M24.68,14.426c0,3.278-2.808,5.937-6.271,5.937
				c-3.465,0-6.273-2.659-6.273-5.937c0-3.28,2.809-5.938,6.273-5.938C21.873,8.488,24.68,11.146,24.68,14.426"/>
			<path clip-path="url(#SVGID_8_)" fill="#CBCDCD" d="M24.514,14.426c0,3.191-2.734,5.78-6.105,5.78
				c-3.374,0-6.108-2.589-6.108-5.78c0-3.192,2.734-5.78,6.108-5.78C21.78,8.646,24.514,11.234,24.514,14.426"/>
			<path clip-path="url(#SVGID_8_)" fill="#CCCFD0" d="M24.348,14.426c0,3.104-2.661,5.621-5.939,5.621
				c-3.279,0-5.94-2.517-5.94-5.621c0-3.105,2.661-5.621,5.94-5.621C21.687,8.806,24.348,11.321,24.348,14.426"/>
			<path clip-path="url(#SVGID_8_)" fill="#D0D2D2" d="M24.18,14.426c0,3.016-2.584,5.462-5.771,5.462
				c-3.188,0-5.772-2.446-5.772-5.462c0-3.017,2.584-5.464,5.772-5.464C21.596,8.962,24.18,11.409,24.18,14.426"/>
			<path clip-path="url(#SVGID_8_)" fill="#D2D4D5" d="M24.013,14.426c0,2.929-2.51,5.304-5.604,5.304
				c-3.097,0-5.605-2.375-5.605-5.304c0-2.931,2.509-5.304,5.605-5.304C21.503,9.122,24.013,11.496,24.013,14.426"/>
		</g>
	</g>
	<polygon fill="#605F5E" points="17.479,18.473 17.479,15.305 14.133,15.305 14.133,13.547 17.479,13.547 17.479,10.379 
		19.337,10.379 19.337,13.547 22.682,13.547 22.682,15.305 19.337,15.305 19.337,18.473 	"/>
	<path fill="#221714" d="M19.176,10.532v2.861V13.7h0.32h3.025v1.453h-3.025h-0.32v0.303v2.863H17.64v-2.863v-0.303h-0.322h-3.024
		V13.7h3.024h0.322v-0.307v-2.861H19.176z M19.497,10.229h-2.179v3.164h-3.345v2.063h3.345v3.168h2.179v-3.168h3.347v-2.063h-3.347
		V10.229z"/>
</g>
<g>
	<path fill="#AFAEAE" d="M28.672,109.832c0,5.365-4.594,9.715-10.264,9.715s-10.268-4.35-10.268-9.715
		c0-5.367,4.598-9.719,10.268-9.719S28.672,104.465,28.672,109.832"/>
	<path fill="none" stroke="#929292" stroke-miterlimit="10" d="M28.672,109.832c0,5.365-4.594,9.715-10.264,9.715
		s-10.268-4.35-10.268-9.715c0-5.367,4.598-9.719,10.268-9.719S28.672,104.465,28.672,109.832z"/>
	<path fill="#AFAEAE" d="M25.951,109.832c0,3.941-3.377,7.14-7.542,7.14c-4.166,0-7.546-3.198-7.546-7.14
		c0-3.944,3.38-7.142,7.546-7.142C22.574,102.69,25.951,105.888,25.951,109.832"/>
	<ellipse fill="none" stroke="#929292" stroke-miterlimit="10" cx="18.407" cy="109.832" rx="7.544" ry="7.14"/>
	<g>
		<g>
			<defs>
				<rect id="SVGID_9_" x="11.296" y="103.102" width="14.221" height="13.457"/>
			</defs>
			<clipPath id="SVGID_10_">
				<use xlink:href="#SVGID_9_"  overflow="visible"/>
			</clipPath>
			<path clip-path="url(#SVGID_10_)" fill="#BEBEBD" d="M25.517,109.832c0,3.715-3.183,6.727-7.108,6.727
				c-3.928,0-7.112-3.012-7.112-6.727c0-3.717,3.185-6.73,7.112-6.73C22.334,103.102,25.517,106.115,25.517,109.832"/>
			<path clip-path="url(#SVGID_10_)" fill="#C0C0C0" d="M25.349,109.832c0,3.626-3.107,6.568-6.94,6.568
				c-3.835,0-6.944-2.942-6.944-6.568c0-3.63,3.109-6.572,6.944-6.572C22.242,103.26,25.349,106.202,25.349,109.832"/>
			<path clip-path="url(#SVGID_10_)" fill="#C2C3C3" d="M25.181,109.832c0,3.539-3.032,6.412-6.772,6.412
				c-3.742,0-6.776-2.873-6.776-6.412c0-3.543,3.034-6.414,6.776-6.414C22.149,103.418,25.181,106.289,25.181,109.832"/>
			<path clip-path="url(#SVGID_10_)" fill="#C4C5C4" d="M25.013,109.832c0,3.453-2.955,6.252-6.604,6.252
				c-3.65,0-6.609-2.799-6.609-6.252c0-3.455,2.959-6.254,6.609-6.254C22.058,103.578,25.013,106.377,25.013,109.832"/>
			<path clip-path="url(#SVGID_10_)" fill="#C6C8C8" d="M24.848,109.832c0,3.364-2.885,6.094-6.439,6.094
				c-3.559,0-6.441-2.729-6.441-6.094c0-3.367,2.883-6.098,6.441-6.098C21.963,103.734,24.848,106.465,24.848,109.832"/>
			<path clip-path="url(#SVGID_10_)" fill="#C9CACB" d="M24.68,109.832c0,3.277-2.808,5.936-6.271,5.936
				c-3.465,0-6.273-2.658-6.273-5.936c0-3.281,2.809-5.939,6.273-5.939C21.873,103.893,24.68,106.551,24.68,109.832"/>
			<path clip-path="url(#SVGID_10_)" fill="#CBCDCD" d="M24.514,109.832c0,3.19-2.734,5.779-6.105,5.779
				c-3.374,0-6.108-2.589-6.108-5.779c0-3.193,2.734-5.781,6.108-5.781C21.78,104.051,24.514,106.639,24.514,109.832"/>
			<path clip-path="url(#SVGID_10_)" fill="#CCCFD0" d="M24.348,109.832c0,3.102-2.661,5.62-5.939,5.62
				c-3.279,0-5.94-2.519-5.94-5.62c0-3.105,2.661-5.622,5.94-5.622C21.687,104.21,24.348,106.727,24.348,109.832"/>
			<path clip-path="url(#SVGID_10_)" fill="#D0D2D2" d="M24.18,109.832c0,3.015-2.584,5.462-5.771,5.462
				c-3.188,0-5.772-2.447-5.772-5.462c0-3.019,2.584-5.465,5.772-5.465C21.596,104.367,24.18,106.813,24.18,109.832"/>
			<path clip-path="url(#SVGID_10_)" fill="#D2D4D5" d="M24.013,109.832c0,2.928-2.51,5.303-5.604,5.303
				c-3.097,0-5.605-2.375-5.605-5.303c0-2.932,2.509-5.306,5.605-5.306C21.503,104.526,24.013,106.9,24.013,109.832"/>
		</g>
	</g>
	<polygon fill="#605F5E" points="17.479,113.877 17.479,110.711 14.133,110.711 14.133,108.951 17.479,108.951 17.479,105.785 
		19.337,105.785 19.337,108.951 22.682,108.951 22.682,110.711 19.337,110.711 19.337,113.877 	"/>
	<path fill="#221714" d="M19.176,105.938v2.861v0.306h0.32h3.025v1.452h-3.025h-0.32v0.305v2.861H17.64v-2.861v-0.305h-0.322h-3.024
		v-1.452h3.024h0.322v-0.306v-2.861H19.176z M19.497,105.633h-2.179v3.166h-3.345v2.063h3.345v3.167h2.179v-3.167h3.347v-2.063
		h-3.347V105.633z"/>
</g>
<g>
	<g>
		<defs>
			<rect id="SVGID_11_" x="236.768" y="37.021" width="32.851" height="56.306"/>
		</defs>
		<clipPath id="SVGID_12_">
			<use xlink:href="#SVGID_11_"  overflow="visible"/>
		</clipPath>
		
			<linearGradient id="SVGID_13_" gradientUnits="userSpaceOnUse" x1="-188.6211" y1="372.166" x2="-187.6797" y2="372.166" gradientTransform="matrix(0 -79.8244 -79.8244 0 29961.125 -14953.0625)">
			<stop  offset="0" style="stop-color:#113577"/>
			<stop  offset="0.2581" style="stop-color:#162145"/>
			<stop  offset="1" style="stop-color:#03051D"/>
		</linearGradient>
		<rect x="236.768" y="37.021" clip-path="url(#SVGID_12_)" fill="url(#SVGID_13_)" width="32.851" height="56.306"/>
	</g>
	<g>
		<defs>
			<path id="SVGID_14_" d="M236.684,38.398v54.996c0,0.267,0.131,0.423,0.084,0.433h33.549c0.055-0.055,0.147-0.203,0.147-0.433
				V38.398c0-0.269-0.126-0.427-0.08-0.436l-33.521-0.018C236.815,37.971,236.684,38.129,236.684,38.398"/>
		</defs>
		<clipPath id="SVGID_15_">
			<use xlink:href="#SVGID_14_"  overflow="visible"/>
		</clipPath>
		
			<linearGradient id="SVGID_16_" gradientUnits="userSpaceOnUse" x1="-182.3521" y1="343.4443" x2="-181.4109" y2="343.4443" gradientTransform="matrix(0 58.6222 58.6222 0 -19879.8438 10728.4063)">
			<stop  offset="0" style="stop-color:#2E2523"/>
			<stop  offset="1" style="stop-color:#342E2B"/>
		</linearGradient>
		<rect x="236.684" y="37.944" clip-path="url(#SVGID_15_)" fill="url(#SVGID_16_)" width="33.78" height="55.882"/>
	</g>
	<path d="M269.352,92.885H237.8V38.903h31.552V92.885z M270.384,37.021h-33.616c-0.656,0-1.198,0.616-1.198,1.377v54.996
		c0,0.761,0.542,1.374,1.198,1.374h33.616c0.662,0,1.198-0.613,1.198-1.374V38.398C271.583,37.637,271.046,37.021,270.384,37.021"/>
	<path fill="#030303" d="M265.468,85.547c0,0.544-0.353,0.981-0.788,0.981h-22.207c-0.436,0-0.791-0.438-0.791-0.981V46.245
		c0-0.542,0.355-0.984,0.791-0.984h22.207c0.436,0,0.788,0.441,0.788,0.984V85.547z"/>
	<g>
		<defs>
			<path id="SVGID_17_" d="M243.942,47.988c-0.381,0-0.687,0.382-0.687,0.855v17.052h20.643V48.843c0-0.473-0.309-0.855-0.685-0.855
				H243.942z"/>
		</defs>
		<clipPath id="SVGID_18_">
			<use xlink:href="#SVGID_17_"  overflow="visible"/>
		</clipPath>
		
			<linearGradient id="SVGID_19_" gradientUnits="userSpaceOnUse" x1="-176.5996" y1="317.0918" x2="-175.6583" y2="317.0918" gradientTransform="matrix(0 22.6221 22.6221 0 -6919.7031 4050.6406)">
			<stop  offset="0" style="stop-color:#251C18"/>
			<stop  offset="1" style="stop-color:#524E4E"/>
		</linearGradient>
		<rect x="243.255" y="47.988" clip-path="url(#SVGID_18_)" fill="url(#SVGID_19_)" width="20.643" height="17.907"/>
	</g>
	<path fill="#050505" d="M243.255,65.895v17.055c0,0.472,0.308,0.853,0.685,0.853h19.273c0.377,0,0.684-0.381,0.684-0.853V65.895
		H243.255z"/>
	<path fill="#121212" d="M243.255,65.895v17.055c0,0.472,0.308,0.853,0.685,0.853h19.273c0.377,0,0.684-0.381,0.684-0.853V65.895
		H243.255z"/>
	<rect x="243.256" y="65.895" fill="#030303" width="20.642" height="0.738"/>
	<rect x="252.066" y="52.645" fill="#4D4D4D" width="2.256" height="8.594"/>
	
		<ellipse fill="none" stroke="#4D4D4D" stroke-width="0.783" stroke-miterlimit="10" cx="253.632" cy="74.891" rx="1.784" ry="1.508"/>
</g>
<text transform="matrix(1.0623 0 0 1 247.8623 32.2432)" fill="#EFEFEF" font-family="'SimHei'" font-size="11.2963">ON</text>
<text transform="matrix(1.0623 0 0 1 246.8623 104.6563)" fill="#EFEFEF" font-family="'SimHei'" font-size="11.2963">OFF</text>
<g>
	<rect x="513.048" y="70.553" fill="#030000" width="160.831" height="37.247"/>
	<linearGradient id="SVGID_20_" gradientUnits="userSpaceOnUse" x1="515.0005" y1="89.2129" x2="671.9258" y2="89.2129">
		<stop  offset="0" style="stop-color:#FFFFFF"/>
		<stop  offset="0.1688" style="stop-color:#B1B4B5"/>
		<stop  offset="0.4086" style="stop-color:#E0E0DF"/>
		<stop  offset="0.7581" style="stop-color:#B1B4B5"/>
		<stop  offset="1" style="stop-color:#C2C2C2"/>
	</linearGradient>
	<rect x="515" y="71.272" fill="url(#SVGID_20_)" width="156.925" height="35.882"/>
</g>
<g>
	<rect x="895.631" y="70.326" fill="#030000" width="84.949" height="37.246"/>
	<linearGradient id="SVGID_21_" gradientUnits="userSpaceOnUse" x1="896.6621" y1="88.9863" x2="979.5488" y2="88.9863">
		<stop  offset="0" style="stop-color:#FFFFFF"/>
		<stop  offset="0.1688" style="stop-color:#B1B4B5"/>
		<stop  offset="0.4086" style="stop-color:#E0E0DF"/>
		<stop  offset="0.7581" style="stop-color:#B1B4B5"/>
		<stop  offset="1" style="stop-color:#C2C2C2"/>
	</linearGradient>
	<rect x="896.662" y="71.045" fill="url(#SVGID_21_)" width="82.887" height="35.883"/>
</g>
<g>
	<rect x="1038.133" y="70.523" fill="#030000" width="48.033" height="37.247"/>
	<linearGradient id="SVGID_22_" gradientUnits="userSpaceOnUse" x1="1038.7168" y1="89.1836" x2="1085.582" y2="89.1836">
		<stop  offset="0" style="stop-color:#FFFFFF"/>
		<stop  offset="0.1688" style="stop-color:#B1B4B5"/>
		<stop  offset="0.4086" style="stop-color:#E0E0DF"/>
		<stop  offset="0.7581" style="stop-color:#B1B4B5"/>
		<stop  offset="1" style="stop-color:#C2C2C2"/>
	</linearGradient>
	<rect x="1038.717" y="71.243" fill="url(#SVGID_22_)" width="46.865" height="35.882"/>
</g>
<g>
	
		<ellipse fill="#7C7B7B" stroke="#C6C5C5" stroke-width="2" stroke-miterlimit="10" cx="464.978" cy="80.33" rx="4.417" ry="4.158"/>
	
		<ellipse fill="#7C7B7B" stroke="#C6C5C5" stroke-width="2" stroke-miterlimit="10" cx="485.306" cy="80.33" rx="4.417" ry="4.158"/>
</g>
<g>
	
		<ellipse fill="#7C7B7B" stroke="#C6C5C5" stroke-width="2" stroke-miterlimit="10" cx="700.643" cy="79.551" rx="4.418" ry="4.158"/>
	
		<ellipse fill="#7C7B7B" stroke="#C6C5C5" stroke-width="2" stroke-miterlimit="10" cx="700.643" cy="98.687" rx="4.418" ry="4.158"/>
</g>
<g>
	
		<ellipse fill="#7C7B7B" stroke="#C6C5C5" stroke-width="2" stroke-miterlimit="10" cx="1107.016" cy="80.521" rx="4.418" ry="4.158"/>
	
		<ellipse fill="#7C7B7B" stroke="#C6C5C5" stroke-width="2" stroke-miterlimit="10" cx="1107.016" cy="99.657" rx="4.418" ry="4.158"/>
</g>
<g>
	
		<ellipse fill="#7C7B7B" stroke="#C6C5C5" stroke-width="2" stroke-miterlimit="10" cx="464.978" cy="98.023" rx="4.417" ry="4.158"/>
	
		<ellipse fill="#7C7B7B" stroke="#C6C5C5" stroke-width="2" stroke-miterlimit="10" cx="485.306" cy="98.023" rx="4.417" ry="4.158"/>
</g>
<text transform="matrix(1.0623 0 0 1 461.561 117.7422)" fill="#BFBDBD" font-family="'SimHei'" font-size="11.2963">4</text>
<text transform="matrix(1.0623 0 0 1 482.8892 117.7422)" fill="#BFBDBD" font-family="'SimHei'" font-size="11.2963">2</text>
<text transform="matrix(1.0623 0 0 1 461.231 71.3281)" fill="#BFBDBD" font-family="'SimHei'" font-size="11.2963">5</text>
<text transform="matrix(1.0623 0 0 1 481.5591 71.3281)" fill="#BFBDBD" font-family="'SimHei'" font-size="11.2963">3</text>
<text transform="matrix(1.0623 0 0 1 697.8906 117.7363)" fill="#BFBDBD" font-family="'SimHei'" font-size="11.2963">0</text>
<text transform="matrix(1.0623 0 0 1 697.5605 71.3223)" fill="#BFBDBD" font-family="'SimHei'" font-size="11.2963">1</text>
<polyline fill="none" stroke="#B7B6B6" stroke-miterlimit="10" points="452.999,80.33 439.727,80.33 425.249,80.33 "/>
<polyline fill="none" stroke="#B7B6B6" stroke-miterlimit="10" points="452.999,98.023 439.728,98.023 439.727,80.33 "/>
<text transform="matrix(1.0623 0 0 1 350.9985 83.8018)" fill="#BBBBBB" font-family="'SimHei'" font-size="11.2963">LED LINK/ACK</text>
<text transform="matrix(1.0623 0 0 1 523.9712 65.1738)" fill="#BBBBBB" font-family="'SimHei'" font-size="11.2963">OE5</text>
<text transform="matrix(1.0623 0 0 1 562.4341 65.1738)" fill="#BBBBBB" font-family="'SimHei'" font-size="11.2963">OE4</text>
<text transform="matrix(1.0623 0 0 1 600.897 65.1738)" fill="#BBBBBB" font-family="'SimHei'" font-size="11.2963">OE3</text>
<text transform="matrix(1.0623 0 0 1 639.3594 65.1738)" fill="#BBBBBB" font-family="'SimHei'" font-size="11.2963">OE2</text>
<text transform="matrix(1.0623 0 0 1 779.668 65.1738)" fill="#BBBBBB" font-family="'SimHei'" font-size="11.2963">OE1</text>
<text transform="matrix(1.0623 0 0 1 830.7715 65.1738)" fill="#BBBBBB" font-family="'SimHei'" font-size="11.2963">OE0</text>
<text transform="matrix(1.0623 0 0 1 910.4941 65.2324)" fill="#BBBBBB" font-family="'SimHei'" font-size="11.2963">OE1</text>
<text transform="matrix(1.0623 0 0 1 946.9941 65.2324)" fill="#BBBBBB" font-family="'SimHei'" font-size="11.2963">OE0</text>
<text transform="matrix(1.0623 0 0 1 1004.8203 65.2324)" fill="#BBBBBB" font-family="'SimHei'" font-size="11.2963">USB</text>
<text transform="matrix(1.0623 0 0 1 1041.8203 65.1738)" fill="#BBBBBB" font-family="'SimHei'" font-size="11.2963">CONSOLE</text>
<text transform="matrix(1.0623 0 0 1 1096.3203 70.3262)" fill="#BBBBBB" font-family="'SimHei'" font-size="11.2963">SYS</text>
<text transform="matrix(1.0623 0 0 1 1098.3203 114.3838)" fill="#BBBBBB" font-family="'SimHei'" font-size="11.2963">PWR</text>
<polyline fill="none" stroke="#B9B9B9" stroke-miterlimit="10" points="691.998,79.551 684.498,79.097 684.498,98.688 
	691.998,98.688 "/>
</svg>
