<?xml version="1.0" encoding="utf-8"?>
<!-- Generator: Adobe Illustrator 16.0.0, SVG Export Plug-In . SVG Version: 6.00 Build 0)  -->
<!DOCTYPE svg PUBLIC "-//W3C//DTD SVG 1.1//EN" "http://www.w3.org/Graphics/SVG/1.1/DTD/svg11.dtd">
<svg version="1.1" id="图层_1" xmlns="http://www.w3.org/2000/svg" xmlns:xlink="http://www.w3.org/1999/xlink" x="0px" y="0px"
	 width="1275.59px" height="126.14px" viewBox="0 0 1275.59 126.14" enable-background="new 0 0 1275.59 126.14"
	 xml:space="preserve">
<rect fill="#474747" width="1275.59" height="126.143"/>
<g>
	<g>
		<path fill="#060001" d="M1209.138,63.071c0-3.339-2.706-6.044-6.044-6.044s-6.045,2.705-6.045,6.044
			c0,3.338,2.707,6.044,6.045,6.044S1209.138,66.409,1209.138,63.071"/>
		<g>
			<defs>
				<path id="SVGID_1_" d="M1203.094,67.928c-2.683,0-4.857-2.174-4.857-4.856s2.175-4.857,4.857-4.857
					c2.682,0,4.856,2.175,4.856,4.857S1205.775,67.928,1203.094,67.928"/>
			</defs>
			<clipPath id="SVGID_2_">
				<use xlink:href="#SVGID_1_"  overflow="visible"/>
			</clipPath>
			
				<radialGradient id="SVGID_3_" cx="-1839.0518" cy="-1000.0527" r="0.8633" gradientTransform="matrix(0 -8.2859 -8.2859 0 -7081.5156 -15173.9414)" gradientUnits="userSpaceOnUse">
				<stop  offset="0" style="stop-color:#7CB861"/>
				<stop  offset="1" style="stop-color:#1E803B"/>
			</radialGradient>
			<rect x="1198.236" y="58.214" clip-path="url(#SVGID_2_)" fill="url(#SVGID_3_)" width="9.714" height="9.714"/>
		</g>
		<g opacity="0.5" enable-background="new    ">
			<g>
				<defs>
					<rect id="SVGID_4_" x="1204.28" y="63.719" width="1.619" height="1.619"/>
				</defs>
				<clipPath id="SVGID_5_">
					<use xlink:href="#SVGID_4_"  overflow="visible"/>
				</clipPath>
				<rect x="1204.28" y="63.719" clip-path="url(#SVGID_5_)" fill="#FFFFFF" width="1.619" height="1.619"/>
			</g>
		</g>
		<g opacity="0.5" enable-background="new    ">
			<g>
				<defs>
					<rect id="SVGID_6_" x="1204.28" y="64.529" width="1.619" height="0.809"/>
				</defs>
				<clipPath id="SVGID_7_">
					<use xlink:href="#SVGID_6_"  overflow="visible"/>
				</clipPath>
				<rect x="1204.28" y="64.529" clip-path="url(#SVGID_7_)" fill="#FFFFFF" width="1.619" height="0.809"/>
			</g>
		</g>
	</g>
	<g>
		<path fill="#060001" d="M1182.216,63.071c0-3.339-2.707-6.044-6.045-6.044s-6.045,2.705-6.045,6.044
			c0,3.338,2.707,6.044,6.045,6.044S1182.216,66.409,1182.216,63.071"/>
		<g>
			<defs>
				<path id="SVGID_8_" d="M1176.171,67.928c-2.683,0-4.857-2.174-4.857-4.856s2.175-4.857,4.857-4.857
					c2.682,0,4.856,2.175,4.856,4.857S1178.853,67.928,1176.171,67.928"/>
			</defs>
			<clipPath id="SVGID_9_">
				<use xlink:href="#SVGID_8_"  overflow="visible"/>
			</clipPath>
			
				<radialGradient id="SVGID_10_" cx="-1839.0518" cy="-996.8042" r="0.8638" gradientTransform="matrix(0 -8.2859 -8.2859 0 -7081.5156 -15173.9414)" gradientUnits="userSpaceOnUse">
				<stop  offset="0" style="stop-color:#7CB861"/>
				<stop  offset="1" style="stop-color:#1E803B"/>
			</radialGradient>
			<rect x="1171.313" y="58.214" clip-path="url(#SVGID_9_)" fill="url(#SVGID_10_)" width="9.714" height="9.714"/>
		</g>
		<g opacity="0.5" enable-background="new    ">
			<g>
				<defs>
					<rect id="SVGID_11_" x="1177.358" y="63.719" width="1.618" height="1.619"/>
				</defs>
				<clipPath id="SVGID_12_">
					<use xlink:href="#SVGID_11_"  overflow="visible"/>
				</clipPath>
				<rect x="1177.358" y="63.719" clip-path="url(#SVGID_12_)" fill="#FFFFFF" width="1.618" height="1.619"/>
			</g>
		</g>
		<g opacity="0.5" enable-background="new    ">
			<g>
				<defs>
					<rect id="SVGID_13_" x="1177.358" y="64.529" width="1.618" height="0.809"/>
				</defs>
				<clipPath id="SVGID_14_">
					<use xlink:href="#SVGID_13_"  overflow="visible"/>
				</clipPath>
				<rect x="1177.358" y="64.529" clip-path="url(#SVGID_14_)" fill="#FFFFFF" width="1.618" height="0.809"/>
			</g>
		</g>
	</g>
</g>
<g>
	<g>
		<path fill="#060001" d="M1154.691,63.719c0-3.339-2.706-6.044-6.044-6.044s-6.045,2.705-6.045,6.044
			c0,3.338,2.707,6.044,6.045,6.044S1154.691,67.057,1154.691,63.719"/>
		<g>
			<defs>
				<path id="SVGID_15_" d="M1148.647,68.575c-2.684,0-4.857-2.174-4.857-4.856s2.174-4.857,4.857-4.857
					c2.682,0,4.856,2.175,4.856,4.857S1151.329,68.575,1148.647,68.575"/>
			</defs>
			<clipPath id="SVGID_16_">
				<use xlink:href="#SVGID_15_"  overflow="visible"/>
			</clipPath>
			
				<radialGradient id="SVGID_17_" cx="-1839.1299" cy="-993.4819" r="0.8635" gradientTransform="matrix(0 -8.2859 -8.2859 0 -7081.5156 -15173.9414)" gradientUnits="userSpaceOnUse">
				<stop  offset="0" style="stop-color:#7CB861"/>
				<stop  offset="1" style="stop-color:#1E803B"/>
			</radialGradient>
			<rect x="1143.79" y="58.861" clip-path="url(#SVGID_16_)" fill="url(#SVGID_17_)" width="9.714" height="9.714"/>
		</g>
		<g opacity="0.5" enable-background="new    ">
			<g>
				<defs>
					<rect id="SVGID_18_" x="1149.834" y="64.366" width="1.619" height="1.619"/>
				</defs>
				<clipPath id="SVGID_19_">
					<use xlink:href="#SVGID_18_"  overflow="visible"/>
				</clipPath>
				<rect x="1149.834" y="64.366" clip-path="url(#SVGID_19_)" fill="#FFFFFF" width="1.619" height="1.619"/>
			</g>
		</g>
		<g opacity="0.5" enable-background="new    ">
			<g>
				<defs>
					<rect id="SVGID_20_" x="1149.834" y="65.177" width="1.619" height="0.809"/>
				</defs>
				<clipPath id="SVGID_21_">
					<use xlink:href="#SVGID_20_"  overflow="visible"/>
				</clipPath>
				<rect x="1149.834" y="65.177" clip-path="url(#SVGID_21_)" fill="#FFFFFF" width="1.619" height="0.809"/>
			</g>
		</g>
	</g>
	<g>
		<path fill="#060001" d="M1127.769,63.719c0-3.339-2.706-6.044-6.044-6.044s-6.044,2.705-6.044,6.044
			c0,3.338,2.706,6.044,6.044,6.044S1127.769,67.057,1127.769,63.719"/>
		<g>
			<defs>
				<path id="SVGID_22_" d="M1121.725,68.575c-2.683,0-4.857-2.174-4.857-4.856s2.175-4.857,4.857-4.857
					c2.682,0,4.856,2.175,4.856,4.857S1124.406,68.575,1121.725,68.575"/>
			</defs>
			<clipPath id="SVGID_23_">
				<use xlink:href="#SVGID_22_"  overflow="visible"/>
			</clipPath>
			
				<radialGradient id="SVGID_24_" cx="-1839.1299" cy="-990.2329" r="0.8635" gradientTransform="matrix(0 -8.2859 -8.2859 0 -7081.5156 -15173.9414)" gradientUnits="userSpaceOnUse">
				<stop  offset="0" style="stop-color:#7CB861"/>
				<stop  offset="1" style="stop-color:#1E803B"/>
			</radialGradient>
			<rect x="1116.867" y="58.861" clip-path="url(#SVGID_23_)" fill="url(#SVGID_24_)" width="9.714" height="9.714"/>
		</g>
		<g opacity="0.5" enable-background="new    ">
			<g>
				<defs>
					<rect id="SVGID_25_" x="1122.911" y="64.366" width="1.619" height="1.619"/>
				</defs>
				<clipPath id="SVGID_26_">
					<use xlink:href="#SVGID_25_"  overflow="visible"/>
				</clipPath>
				<rect x="1122.911" y="64.366" clip-path="url(#SVGID_26_)" fill="#FFFFFF" width="1.619" height="1.619"/>
			</g>
		</g>
		<g opacity="0.5" enable-background="new    ">
			<g>
				<defs>
					<rect id="SVGID_27_" x="1122.911" y="65.177" width="1.619" height="0.809"/>
				</defs>
				<clipPath id="SVGID_28_">
					<use xlink:href="#SVGID_27_"  overflow="visible"/>
				</clipPath>
				<rect x="1122.911" y="65.177" clip-path="url(#SVGID_28_)" fill="#FFFFFF" width="1.619" height="0.809"/>
			</g>
		</g>
	</g>
</g>
<g>
	<g>
		<path fill="#AFAEAE" d="M30.268,24.099c0,5.929-4.812,10.735-10.747,10.735S8.774,30.027,8.774,24.099
			c0-5.93,4.812-10.737,10.747-10.737S30.268,18.169,30.268,24.099"/>
		<ellipse fill="none" stroke="#929292" stroke-miterlimit="10" cx="19.521" cy="24.099" rx="10.747" ry="10.735"/>
		<path fill="#AFAEAE" d="M27.417,24.099c0,4.355-3.535,7.889-7.896,7.889c-4.36,0-7.896-3.533-7.896-7.889
			c0-4.357,3.536-7.89,7.896-7.89C23.882,16.209,27.417,19.741,27.417,24.099"/>
		<ellipse fill="none" stroke="#929292" stroke-miterlimit="10" cx="19.521" cy="24.099" rx="7.896" ry="7.889"/>
		<g>
			<g>
				<defs>
					<rect id="SVGID_29_" x="12.077" y="16.663" width="14.888" height="14.869"/>
				</defs>
				<clipPath id="SVGID_30_">
					<use xlink:href="#SVGID_29_"  overflow="visible"/>
				</clipPath>
				<path clip-path="url(#SVGID_30_)" fill="#BEBEBD" d="M26.963,24.099c0,4.104-3.332,7.434-7.442,7.434s-7.442-3.329-7.442-7.434
					c0-4.106,3.333-7.436,7.442-7.436S26.963,19.992,26.963,24.099"/>
				<path clip-path="url(#SVGID_30_)" fill="#C0C0C0" d="M26.788,24.099c0,4.008-3.254,7.258-7.267,7.258
					c-4.013,0-7.266-3.25-7.266-7.258c0-4.011,3.253-7.261,7.266-7.261C23.534,16.838,26.788,20.088,26.788,24.099"/>
				<path clip-path="url(#SVGID_30_)" fill="#C2C3C3" d="M26.612,24.099c0,3.911-3.175,7.085-7.091,7.085
					c-3.917,0-7.091-3.174-7.091-7.085c0-3.914,3.174-7.086,7.091-7.086C23.438,17.013,26.612,20.185,26.612,24.099"/>
				<path clip-path="url(#SVGID_30_)" fill="#C4C5C4" d="M26.438,24.099c0,3.814-3.096,6.909-6.917,6.909
					c-3.82,0-6.917-3.095-6.917-6.909c0-3.817,3.097-6.91,6.917-6.91C23.341,17.188,26.438,20.281,26.438,24.099"/>
				<path clip-path="url(#SVGID_30_)" fill="#C6C8C8" d="M26.263,24.099c0,3.718-3.019,6.734-6.742,6.734
					c-3.723,0-6.741-3.017-6.741-6.734c0-3.721,3.018-6.736,6.741-6.736C23.244,17.362,26.263,20.378,26.263,24.099"/>
				<path clip-path="url(#SVGID_30_)" fill="#C9CACB" d="M26.088,24.099c0,3.622-2.94,6.559-6.567,6.559s-6.566-2.937-6.566-6.559
					c0-3.624,2.939-6.562,6.566-6.562S26.088,20.475,26.088,24.099"/>
				<path clip-path="url(#SVGID_30_)" fill="#CBCDCD" d="M25.913,24.099c0,3.525-2.862,6.386-6.392,6.386
					c-3.53,0-6.391-2.86-6.391-6.386c0-3.527,2.861-6.388,6.391-6.388C23.051,17.711,25.913,20.571,25.913,24.099"/>
				<path clip-path="url(#SVGID_30_)" fill="#CCCFD0" d="M25.738,24.099c0,3.429-2.784,6.21-6.217,6.21
					c-3.432,0-6.217-2.781-6.217-6.21c0-3.431,2.785-6.211,6.217-6.211C22.954,17.888,25.738,20.668,25.738,24.099"/>
				<path clip-path="url(#SVGID_30_)" fill="#D0D2D2" d="M25.563,24.099c0,3.332-2.705,6.035-6.042,6.035
					c-3.336,0-6.042-2.703-6.042-6.035c0-3.335,2.705-6.037,6.042-6.037C22.858,18.062,25.563,20.764,25.563,24.099"/>
				<path clip-path="url(#SVGID_30_)" fill="#D2D4D5" d="M25.388,24.099c0,3.235-2.627,5.86-5.867,5.86
					c-3.24,0-5.867-2.625-5.867-5.86c0-3.238,2.626-5.861,5.867-5.861C22.76,18.237,25.388,20.86,25.388,24.099"/>
			</g>
		</g>
		<polygon fill="#605F5E" points="18.549,28.568 18.549,25.069 15.046,25.069 15.046,23.127 18.549,23.127 18.549,19.628 
			20.493,19.628 20.493,23.127 23.996,23.127 23.996,25.069 20.493,25.069 20.493,28.568 		"/>
		<path fill="#221714" d="M20.325,19.796v3.161v0.338h0.337h3.166V24.9h-3.166h-0.337v0.336v3.162h-1.607v-3.162V24.9h-0.337h-3.166
			v-1.605h3.166h0.337v-0.338v-3.161H20.325z M20.662,19.46h-2.281v3.497h-3.502v2.279h3.502v3.499h2.281v-3.499h3.501v-2.279
			h-3.501V19.46z"/>
	</g>
	<g>
		<path fill="#AFAEAE" d="M30.268,102.045c0,5.929-4.812,10.735-10.747,10.735s-10.747-4.807-10.747-10.735
			c0-5.93,4.812-10.737,10.747-10.737S30.268,96.115,30.268,102.045"/>
		<ellipse fill="none" stroke="#929292" stroke-miterlimit="10" cx="19.521" cy="102.045" rx="10.747" ry="10.735"/>
		<path fill="#AFAEAE" d="M27.417,102.045c0,4.355-3.535,7.889-7.896,7.889c-4.36,0-7.896-3.533-7.896-7.889
			c0-4.357,3.536-7.89,7.896-7.89C23.882,94.155,27.417,97.688,27.417,102.045"/>
		<ellipse fill="none" stroke="#929292" stroke-miterlimit="10" cx="19.521" cy="102.045" rx="7.896" ry="7.889"/>
		<g>
			<g>
				<defs>
					<rect id="SVGID_31_" x="12.077" y="94.609" width="14.888" height="14.869"/>
				</defs>
				<clipPath id="SVGID_32_">
					<use xlink:href="#SVGID_31_"  overflow="visible"/>
				</clipPath>
				<path clip-path="url(#SVGID_32_)" fill="#BEBEBD" d="M26.963,102.045c0,4.104-3.332,7.434-7.442,7.434s-7.442-3.329-7.442-7.434
					c0-4.106,3.333-7.436,7.442-7.436S26.963,97.938,26.963,102.045"/>
				<path clip-path="url(#SVGID_32_)" fill="#C0C0C0" d="M26.788,102.045c0,4.008-3.254,7.258-7.267,7.258
					c-4.013,0-7.266-3.25-7.266-7.258c0-4.011,3.253-7.261,7.266-7.261C23.534,94.784,26.788,98.034,26.788,102.045"/>
				<path clip-path="url(#SVGID_32_)" fill="#C2C3C3" d="M26.612,102.045c0,3.911-3.175,7.085-7.091,7.085
					c-3.917,0-7.091-3.174-7.091-7.085c0-3.914,3.174-7.086,7.091-7.086C23.438,94.959,26.612,98.131,26.612,102.045"/>
				<path clip-path="url(#SVGID_32_)" fill="#C4C5C4" d="M26.438,102.045c0,3.814-3.096,6.909-6.917,6.909
					c-3.82,0-6.917-3.095-6.917-6.909c0-3.817,3.097-6.91,6.917-6.91C23.341,95.135,26.438,98.228,26.438,102.045"/>
				<path clip-path="url(#SVGID_32_)" fill="#C6C8C8" d="M26.263,102.045c0,3.718-3.019,6.734-6.742,6.734
					c-3.723,0-6.741-3.017-6.741-6.734c0-3.721,3.018-6.736,6.741-6.736C23.244,95.309,26.263,98.324,26.263,102.045"/>
				<path clip-path="url(#SVGID_32_)" fill="#C9CACB" d="M26.088,102.045c0,3.622-2.94,6.559-6.567,6.559s-6.566-2.937-6.566-6.559
					c0-3.624,2.939-6.562,6.566-6.562S26.088,98.421,26.088,102.045"/>
				<path clip-path="url(#SVGID_32_)" fill="#CBCDCD" d="M25.913,102.045c0,3.525-2.862,6.386-6.392,6.386
					c-3.53,0-6.391-2.86-6.391-6.386c0-3.527,2.861-6.388,6.391-6.388C23.051,95.657,25.913,98.518,25.913,102.045"/>
				<path clip-path="url(#SVGID_32_)" fill="#CCCFD0" d="M25.738,102.045c0,3.429-2.784,6.21-6.217,6.21
					c-3.432,0-6.217-2.781-6.217-6.21c0-3.431,2.785-6.211,6.217-6.211C22.954,95.834,25.738,98.614,25.738,102.045"/>
				<path clip-path="url(#SVGID_32_)" fill="#D0D2D2" d="M25.563,102.045c0,3.332-2.705,6.035-6.042,6.035
					c-3.336,0-6.042-2.703-6.042-6.035c0-3.335,2.705-6.037,6.042-6.037C22.858,96.008,25.563,98.71,25.563,102.045"/>
				<path clip-path="url(#SVGID_32_)" fill="#D2D4D5" d="M25.388,102.045c0,3.235-2.627,5.86-5.867,5.86
					c-3.24,0-5.867-2.625-5.867-5.86c0-3.238,2.626-5.861,5.867-5.861C22.76,96.184,25.388,98.807,25.388,102.045"/>
			</g>
		</g>
		<polygon fill="#605F5E" points="18.549,106.515 18.549,103.016 15.046,103.016 15.046,101.073 18.549,101.073 18.549,97.574 
			20.493,97.574 20.493,101.073 23.996,101.073 23.996,103.016 20.493,103.016 20.493,106.515 		"/>
		<path fill="#221714" d="M20.325,97.742v3.161v0.338h0.337h3.166v1.605h-3.166h-0.337v0.336v3.162h-1.607v-3.162v-0.336h-0.337
			h-3.166v-1.605h3.166h0.337v-0.338v-3.161H20.325z M20.662,97.406h-2.281v3.497h-3.502v2.279h3.502v3.499h2.281v-3.499h3.501
			v-2.279h-3.501V97.406z"/>
	</g>
</g>
<g>
	<g>
		<path fill="#AFAEAE" d="M1264.418,24.099c0,5.929-4.812,10.735-10.747,10.735c-5.935,0-10.746-4.807-10.746-10.735
			c0-5.93,4.812-10.737,10.746-10.737C1259.606,13.361,1264.418,18.169,1264.418,24.099"/>
		<ellipse fill="none" stroke="#929292" stroke-miterlimit="10" cx="1253.671" cy="24.099" rx="10.747" ry="10.735"/>
		<path fill="#AFAEAE" d="M1261.567,24.099c0,4.355-3.535,7.889-7.896,7.889c-4.36,0-7.896-3.533-7.896-7.889
			c0-4.357,3.535-7.89,7.896-7.89C1258.032,16.209,1261.567,19.741,1261.567,24.099"/>
		<ellipse fill="none" stroke="#929292" stroke-miterlimit="10" cx="1253.671" cy="24.099" rx="7.896" ry="7.889"/>
		<g>
			<g>
				<defs>
					<rect id="SVGID_33_" x="1246.227" y="16.663" width="14.888" height="14.869"/>
				</defs>
				<clipPath id="SVGID_34_">
					<use xlink:href="#SVGID_33_"  overflow="visible"/>
				</clipPath>
				<path clip-path="url(#SVGID_34_)" fill="#BEBEBD" d="M1261.112,24.099c0,4.104-3.331,7.434-7.441,7.434
					s-7.442-3.329-7.442-7.434c0-4.106,3.332-7.436,7.442-7.436S1261.112,19.992,1261.112,24.099"/>
				<path clip-path="url(#SVGID_34_)" fill="#C0C0C0" d="M1260.938,24.099c0,4.008-3.253,7.258-7.267,7.258s-7.266-3.25-7.266-7.258
					c0-4.011,3.252-7.261,7.266-7.261S1260.938,20.088,1260.938,24.099"/>
				<path clip-path="url(#SVGID_34_)" fill="#C2C3C3" d="M1260.763,24.099c0,3.911-3.176,7.085-7.092,7.085
					s-7.092-3.174-7.092-7.085c0-3.914,3.176-7.086,7.092-7.086S1260.763,20.185,1260.763,24.099"/>
				<path clip-path="url(#SVGID_34_)" fill="#C4C5C4" d="M1260.588,24.099c0,3.814-3.097,6.909-6.917,6.909
					s-6.916-3.095-6.916-6.909c0-3.817,3.096-6.91,6.916-6.91S1260.588,20.281,1260.588,24.099"/>
				<path clip-path="url(#SVGID_34_)" fill="#C6C8C8" d="M1260.413,24.099c0,3.718-3.02,6.734-6.742,6.734s-6.741-3.017-6.741-6.734
					c0-3.721,3.019-6.736,6.741-6.736S1260.413,20.378,1260.413,24.099"/>
				<path clip-path="url(#SVGID_34_)" fill="#C9CACB" d="M1260.237,24.099c0,3.622-2.939,6.559-6.566,6.559
					s-6.566-2.937-6.566-6.559c0-3.624,2.939-6.562,6.566-6.562S1260.237,20.475,1260.237,24.099"/>
				<path clip-path="url(#SVGID_34_)" fill="#CBCDCD" d="M1260.063,24.099c0,3.525-2.862,6.386-6.393,6.386s-6.391-2.86-6.391-6.386
					c0-3.527,2.86-6.388,6.391-6.388S1260.063,20.571,1260.063,24.099"/>
				<path clip-path="url(#SVGID_34_)" fill="#CCCFD0" d="M1259.888,24.099c0,3.429-2.783,6.21-6.217,6.21
					c-3.432,0-6.217-2.781-6.217-6.21c0-3.431,2.785-6.211,6.217-6.211C1257.104,17.888,1259.888,20.668,1259.888,24.099"/>
				<path clip-path="url(#SVGID_34_)" fill="#D0D2D2" d="M1259.713,24.099c0,3.332-2.705,6.035-6.042,6.035
					c-3.336,0-6.041-2.703-6.041-6.035c0-3.335,2.705-6.037,6.041-6.037C1257.008,18.062,1259.713,20.764,1259.713,24.099"/>
				<path clip-path="url(#SVGID_34_)" fill="#D2D4D5" d="M1259.538,24.099c0,3.235-2.628,5.86-5.867,5.86
					c-3.24,0-5.866-2.625-5.866-5.86c0-3.238,2.626-5.861,5.866-5.861C1256.91,18.237,1259.538,20.86,1259.538,24.099"/>
			</g>
		</g>
		<polygon fill="#605F5E" points="1252.699,28.568 1252.699,25.069 1249.196,25.069 1249.196,23.127 1252.699,23.127 
			1252.699,19.628 1254.644,19.628 1254.644,23.127 1258.146,23.127 1258.146,25.069 1254.644,25.069 1254.644,28.568 		"/>
		<path fill="#221714" d="M1254.476,19.796v3.161v0.338h0.336h3.166V24.9h-3.166h-0.336v0.336v3.162h-1.607v-3.162V24.9h-0.338
			h-3.166v-1.605h3.166h0.338v-0.338v-3.161H1254.476z M1254.812,19.46h-2.281v3.497h-3.502v2.279h3.502v3.499h2.281v-3.499h3.502
			v-2.279h-3.502V19.46z"/>
	</g>
	<g>
		<path fill="#AFAEAE" d="M1264.418,102.045c0,5.929-4.812,10.735-10.747,10.735c-5.935,0-10.746-4.807-10.746-10.735
			c0-5.93,4.812-10.737,10.746-10.737C1259.606,91.308,1264.418,96.115,1264.418,102.045"/>
		<ellipse fill="none" stroke="#929292" stroke-miterlimit="10" cx="1253.671" cy="102.045" rx="10.747" ry="10.735"/>
		<path fill="#AFAEAE" d="M1261.567,102.045c0,4.355-3.535,7.889-7.896,7.889c-4.36,0-7.896-3.533-7.896-7.889
			c0-4.357,3.535-7.89,7.896-7.89C1258.032,94.155,1261.567,97.688,1261.567,102.045"/>
		<ellipse fill="none" stroke="#929292" stroke-miterlimit="10" cx="1253.671" cy="102.045" rx="7.896" ry="7.889"/>
		<g>
			<g>
				<defs>
					<rect id="SVGID_35_" x="1246.227" y="94.609" width="14.888" height="14.869"/>
				</defs>
				<clipPath id="SVGID_36_">
					<use xlink:href="#SVGID_35_"  overflow="visible"/>
				</clipPath>
				<path clip-path="url(#SVGID_36_)" fill="#BEBEBD" d="M1261.112,102.045c0,4.104-3.331,7.434-7.441,7.434
					s-7.442-3.329-7.442-7.434c0-4.106,3.332-7.436,7.442-7.436S1261.112,97.938,1261.112,102.045"/>
				<path clip-path="url(#SVGID_36_)" fill="#C0C0C0" d="M1260.938,102.045c0,4.008-3.253,7.258-7.267,7.258
					s-7.266-3.25-7.266-7.258c0-4.011,3.252-7.261,7.266-7.261S1260.938,98.034,1260.938,102.045"/>
				<path clip-path="url(#SVGID_36_)" fill="#C2C3C3" d="M1260.763,102.045c0,3.911-3.176,7.085-7.092,7.085
					s-7.092-3.174-7.092-7.085c0-3.914,3.176-7.086,7.092-7.086S1260.763,98.131,1260.763,102.045"/>
				<path clip-path="url(#SVGID_36_)" fill="#C4C5C4" d="M1260.588,102.045c0,3.814-3.097,6.909-6.917,6.909
					s-6.916-3.095-6.916-6.909c0-3.817,3.096-6.91,6.916-6.91S1260.588,98.228,1260.588,102.045"/>
				<path clip-path="url(#SVGID_36_)" fill="#C6C8C8" d="M1260.413,102.045c0,3.718-3.02,6.734-6.742,6.734
					s-6.741-3.017-6.741-6.734c0-3.721,3.019-6.736,6.741-6.736S1260.413,98.324,1260.413,102.045"/>
				<path clip-path="url(#SVGID_36_)" fill="#C9CACB" d="M1260.237,102.045c0,3.622-2.939,6.559-6.566,6.559
					s-6.566-2.937-6.566-6.559c0-3.624,2.939-6.562,6.566-6.562S1260.237,98.421,1260.237,102.045"/>
				<path clip-path="url(#SVGID_36_)" fill="#CBCDCD" d="M1260.063,102.045c0,3.525-2.862,6.386-6.393,6.386
					s-6.391-2.86-6.391-6.386c0-3.527,2.86-6.388,6.391-6.388S1260.063,98.518,1260.063,102.045"/>
				<path clip-path="url(#SVGID_36_)" fill="#CCCFD0" d="M1259.888,102.045c0,3.429-2.783,6.21-6.217,6.21
					c-3.432,0-6.217-2.781-6.217-6.21c0-3.431,2.785-6.211,6.217-6.211C1257.104,95.834,1259.888,98.614,1259.888,102.045"/>
				<path clip-path="url(#SVGID_36_)" fill="#D0D2D2" d="M1259.713,102.045c0,3.332-2.705,6.035-6.042,6.035
					c-3.336,0-6.041-2.703-6.041-6.035c0-3.335,2.705-6.037,6.041-6.037C1257.008,96.008,1259.713,98.71,1259.713,102.045"/>
				<path clip-path="url(#SVGID_36_)" fill="#D2D4D5" d="M1259.538,102.045c0,3.235-2.628,5.86-5.867,5.86
					c-3.24,0-5.866-2.625-5.866-5.86c0-3.238,2.626-5.861,5.866-5.861C1256.91,96.184,1259.538,98.807,1259.538,102.045"/>
			</g>
		</g>
		<polygon fill="#605F5E" points="1252.699,106.515 1252.699,103.016 1249.196,103.016 1249.196,101.073 1252.699,101.073 
			1252.699,97.574 1254.644,97.574 1254.644,101.073 1258.146,101.073 1258.146,103.016 1254.644,103.016 1254.644,106.515 		"/>
		<path fill="#221714" d="M1254.476,97.742v3.161v0.338h0.336h3.166v1.605h-3.166h-0.336v0.336v3.162h-1.607v-3.162v-0.336h-0.338
			h-3.166v-1.605h3.166h0.338v-0.338v-3.161H1254.476z M1254.812,97.406h-2.281v3.497h-3.502v2.279h3.502v3.499h2.281v-3.499h3.502
			v-2.279h-3.502V97.406z"/>
	</g>
</g>
<g>
	<g>
		<rect x="39.045" fill="#100F0F" width="3.333" height="126.143"/>
		<rect x="39.045" fill="#666565" width="1.167" height="126.143"/>
	</g>
	<g>
		<rect x="1233.211" fill="#100F0F" width="3.333" height="126.143"/>
		<rect x="1235.378" fill="#666565" width="1.166" height="126.143"/>
	</g>
</g>
<g>
	<rect x="55.71" fill="#030000" width="10.767" height="10.768"/>
	<rect x="70.71" fill="#030000" width="10.767" height="10.768"/>
	<rect x="85.71" fill="#030000" width="10.767" height="10.768"/>
	<rect x="100.71" fill="#030000" width="10.767" height="10.768"/>
	<rect x="115.71" fill="#030000" width="10.767" height="10.768"/>
	<rect x="130.71" fill="#030000" width="10.767" height="10.768"/>
	<rect x="145.71" fill="#030000" width="10.767" height="10.768"/>
	<rect x="160.71" fill="#030000" width="10.767" height="10.768"/>
	<rect x="175.71" fill="#030000" width="10.767" height="10.768"/>
	<rect x="190.71" fill="#030000" width="10.767" height="10.768"/>
	<rect x="205.71" fill="#030000" width="10.767" height="10.768"/>
	<rect x="220.71" fill="#030000" width="10.767" height="10.768"/>
	<rect x="235.71" fill="#030000" width="10.767" height="10.768"/>
	<rect x="250.71" fill="#030000" width="10.767" height="10.768"/>
	<rect x="265.71" fill="#030000" width="10.767" height="10.768"/>
	<rect x="280.71" fill="#030000" width="10.767" height="10.768"/>
	<rect x="295.71" fill="#030000" width="10.767" height="10.768"/>
	<rect x="310.71" fill="#030000" width="10.767" height="10.768"/>
	<rect x="325.71" fill="#030000" width="10.767" height="10.768"/>
	<rect x="340.71" fill="#030000" width="10.767" height="10.768"/>
	<rect x="355.71" fill="#030000" width="10.767" height="10.768"/>
	<rect x="370.71" fill="#030000" width="10.767" height="10.768"/>
	<rect x="385.71" fill="#030000" width="10.767" height="10.768"/>
	<rect x="400.71" fill="#030000" width="10.767" height="10.768"/>
	<rect x="415.71" fill="#030000" width="10.767" height="10.768"/>
	<rect x="430.71" fill="#030000" width="10.767" height="10.768"/>
	<rect x="445.71" fill="#030000" width="10.767" height="10.768"/>
	<rect x="460.71" fill="#030000" width="10.767" height="10.768"/>
	<rect x="475.71" fill="#030000" width="10.767" height="10.768"/>
	<rect x="490.71" fill="#030000" width="10.767" height="10.768"/>
	<rect x="505.71" fill="#030000" width="10.767" height="10.768"/>
	<rect x="520.71" fill="#030000" width="10.767" height="10.768"/>
	<rect x="535.71" fill="#030000" width="10.767" height="10.768"/>
	<rect x="550.71" fill="#030000" width="10.767" height="10.768"/>
	<rect x="565.71" fill="#030000" width="10.767" height="10.768"/>
	<rect x="580.71" fill="#030000" width="10.767" height="10.768"/>
	<rect x="595.71" fill="#030000" width="10.767" height="10.768"/>
	<rect x="610.71" fill="#030000" width="10.767" height="10.768"/>
	<rect x="625.71" fill="#030000" width="10.767" height="10.768"/>
	<rect x="640.71" fill="#030000" width="10.767" height="10.768"/>
	<rect x="655.71" fill="#030000" width="10.767" height="10.768"/>
	<rect x="670.71" fill="#030000" width="10.767" height="10.768"/>
	<rect x="685.71" fill="#030000" width="10.767" height="10.768"/>
	<rect x="700.71" fill="#030000" width="10.767" height="10.768"/>
	<rect x="715.71" fill="#030000" width="10.767" height="10.768"/>
	<rect x="730.71" fill="#030000" width="10.767" height="10.768"/>
	<rect x="745.71" fill="#030000" width="10.767" height="10.768"/>
	<rect x="760.71" fill="#030000" width="10.767" height="10.768"/>
	<rect x="775.71" fill="#030000" width="10.767" height="10.768"/>
	<rect x="790.71" fill="#030000" width="10.767" height="10.768"/>
	<rect x="805.71" fill="#030000" width="10.767" height="10.768"/>
	<rect x="820.71" fill="#030000" width="10.767" height="10.768"/>
	<rect x="835.71" fill="#030000" width="10.767" height="10.768"/>
	<rect x="850.71" fill="#030000" width="10.767" height="10.768"/>
	<rect x="865.71" fill="#030000" width="10.767" height="10.768"/>
	<rect x="880.71" fill="#030000" width="10.767" height="10.768"/>
	<rect x="895.71" fill="#030000" width="10.767" height="10.768"/>
	<rect x="910.71" fill="#030000" width="10.767" height="10.768"/>
	<rect x="925.71" fill="#030000" width="10.767" height="10.768"/>
</g>
<rect x="55.71" y="115.375" fill="#030000" width="10.767" height="10.768"/>
<rect x="70.71" y="115.375" fill="#030000" width="10.767" height="10.768"/>
<rect x="85.71" y="115.375" fill="#030000" width="10.767" height="10.768"/>
<rect x="100.71" y="115.375" fill="#030000" width="10.767" height="10.768"/>
<rect x="115.71" y="115.375" fill="#030000" width="10.767" height="10.768"/>
<rect x="130.71" y="115.375" fill="#030000" width="10.767" height="10.768"/>
<rect x="145.71" y="115.375" fill="#030000" width="10.767" height="10.768"/>
<rect x="160.71" y="115.375" fill="#030000" width="10.767" height="10.768"/>
<rect x="175.71" y="115.375" fill="#030000" width="10.767" height="10.768"/>
<rect x="190.71" y="115.375" fill="#030000" width="10.767" height="10.768"/>
<rect x="205.71" y="115.375" fill="#030000" width="10.767" height="10.768"/>
<rect x="220.71" y="115.375" fill="#030000" width="10.767" height="10.768"/>
<rect x="235.71" y="115.375" fill="#030000" width="10.767" height="10.768"/>
<rect x="250.71" y="115.375" fill="#030000" width="10.767" height="10.768"/>
<rect x="265.71" y="115.375" fill="#030000" width="10.767" height="10.768"/>
<rect x="280.71" y="115.375" fill="#030000" width="10.767" height="10.768"/>
<rect x="295.71" y="115.375" fill="#030000" width="10.767" height="10.768"/>
<rect x="310.71" y="115.375" fill="#030000" width="10.767" height="10.768"/>
<rect x="325.71" y="115.375" fill="#030000" width="10.767" height="10.768"/>
<rect x="340.71" y="115.375" fill="#030000" width="10.767" height="10.768"/>
<rect x="355.71" y="115.375" fill="#030000" width="10.767" height="10.768"/>
<rect x="370.71" y="115.375" fill="#030000" width="10.767" height="10.768"/>
<rect x="385.71" y="115.375" fill="#030000" width="10.767" height="10.768"/>
<rect x="400.71" y="115.375" fill="#030000" width="10.767" height="10.768"/>
<rect x="415.71" y="115.375" fill="#030000" width="10.767" height="10.768"/>
<rect x="430.71" y="115.375" fill="#030000" width="10.767" height="10.768"/>
<rect x="445.71" y="115.375" fill="#030000" width="10.767" height="10.768"/>
<rect x="460.71" y="115.375" fill="#030000" width="10.767" height="10.768"/>
<rect x="475.71" y="115.375" fill="#030000" width="10.767" height="10.768"/>
<rect x="490.71" y="115.375" fill="#030000" width="10.767" height="10.768"/>
<rect x="505.71" y="115.375" fill="#030000" width="10.767" height="10.768"/>
<rect x="520.71" y="115.375" fill="#030000" width="10.767" height="10.768"/>
<rect x="535.71" y="115.375" fill="#030000" width="10.767" height="10.768"/>
<rect x="550.71" y="115.375" fill="#030000" width="10.767" height="10.768"/>
<rect x="565.71" y="115.375" fill="#030000" width="10.767" height="10.768"/>
<rect x="580.71" y="115.375" fill="#030000" width="10.767" height="10.768"/>
<rect x="595.71" y="115.375" fill="#030000" width="10.767" height="10.768"/>
<rect x="610.71" y="115.375" fill="#030000" width="10.767" height="10.768"/>
<rect x="625.71" y="115.375" fill="#030000" width="10.767" height="10.768"/>
<rect x="640.71" y="115.375" fill="#030000" width="10.767" height="10.768"/>
<rect x="655.71" y="115.375" fill="#030000" width="10.767" height="10.768"/>
<rect x="670.71" y="115.375" fill="#030000" width="10.767" height="10.768"/>
<rect x="685.71" y="115.375" fill="#030000" width="10.767" height="10.768"/>
<rect x="700.71" y="115.375" fill="#030000" width="10.767" height="10.768"/>
<rect x="715.71" y="115.375" fill="#030000" width="10.767" height="10.768"/>
<rect x="730.71" y="115.375" fill="#030000" width="10.767" height="10.768"/>
<rect x="745.71" y="115.375" fill="#030000" width="10.767" height="10.768"/>
<rect x="760.71" y="115.375" fill="#030000" width="10.767" height="10.768"/>
<rect x="775.71" y="115.375" fill="#030000" width="10.767" height="10.768"/>
<rect x="790.71" y="115.375" fill="#030000" width="10.767" height="10.768"/>
<rect x="805.71" y="115.375" fill="#030000" width="10.767" height="10.768"/>
<rect x="820.71" y="115.375" fill="#030000" width="10.767" height="10.768"/>
<rect x="835.71" y="115.375" fill="#030000" width="10.767" height="10.768"/>
<rect x="850.71" y="115.375" fill="#030000" width="10.767" height="10.768"/>
<rect x="865.71" y="115.375" fill="#030000" width="10.767" height="10.768"/>
<rect x="880.71" y="115.375" fill="#030000" width="10.767" height="10.768"/>
<rect x="895.71" y="115.375" fill="#030000" width="10.767" height="10.768"/>
<rect x="910.71" y="115.375" fill="#030000" width="10.767" height="10.768"/>
<rect x="925.71" y="115.375" fill="#030000" width="10.767" height="10.768"/>
<rect x="940.21" y="115.375" fill="#030000" width="10.767" height="10.768"/>
<rect x="954.71" y="115.375" fill="#030000" width="10.767" height="10.768"/>
<rect x="969.21" y="115.375" fill="#030000" width="10.767" height="10.768"/>
<rect x="983.71" y="115.375" fill="#030000" width="10.767" height="10.768"/>
<g>
	<rect x="335.864" y="21.282" fill="#030000" width="255" height="86.045"/>
	<linearGradient id="SVGID_37_" gradientUnits="userSpaceOnUse" x1="338.9614" y1="64.3906" x2="587.7666" y2="64.3906">
		<stop  offset="0" style="stop-color:#FFFFFF"/>
		<stop  offset="0.1688" style="stop-color:#B1B4B5"/>
		<stop  offset="0.4086" style="stop-color:#E0E0DF"/>
		<stop  offset="0.7581" style="stop-color:#B1B4B5"/>
		<stop  offset="1" style="stop-color:#C2C2C2"/>
	</linearGradient>
	<rect x="338.961" y="22.946" fill="url(#SVGID_37_)" width="248.805" height="82.889"/>
</g>
<g>
	<rect x="1007.761" y="6.746" fill="#030000" width="93.377" height="41.75"/>
	<linearGradient id="SVGID_38_" gradientUnits="userSpaceOnUse" x1="1008.8945" y1="27.6636" x2="1100.0029" y2="27.6636">
		<stop  offset="0" style="stop-color:#FFFFFF"/>
		<stop  offset="0.1688" style="stop-color:#B1B4B5"/>
		<stop  offset="0.4086" style="stop-color:#E0E0DF"/>
		<stop  offset="0.7581" style="stop-color:#B1B4B5"/>
		<stop  offset="1" style="stop-color:#C2C2C2"/>
	</linearGradient>
	<rect x="1008.895" y="7.555" fill="url(#SVGID_38_)" width="91.108" height="40.218"/>
</g>
<text transform="matrix(1 0 0 1 1156.9756 24.0146)" fill="#D7D7D8" font-family="'SimHei'" font-size="24.0824">H3C</text>
<g>
	<rect x="71.278" y="21.282" fill="#030000" width="255" height="86.045"/>
	<linearGradient id="SVGID_39_" gradientUnits="userSpaceOnUse" x1="74.3755" y1="64.3906" x2="323.1812" y2="64.3906">
		<stop  offset="0" style="stop-color:#FFFFFF"/>
		<stop  offset="0.1688" style="stop-color:#B1B4B5"/>
		<stop  offset="0.4086" style="stop-color:#E0E0DF"/>
		<stop  offset="0.7581" style="stop-color:#B1B4B5"/>
		<stop  offset="1" style="stop-color:#C2C2C2"/>
	</linearGradient>
	<rect x="74.375" y="22.946" fill="url(#SVGID_39_)" width="248.806" height="82.889"/>
</g>
<g>
	<g>
		<polygon fill="#BFBEBE" points="109.442,13.865 106.486,19.461 103.531,13.865 		"/>
		<polygon fill="#BFBEBE" points="96.814,19.461 93.859,13.865 90.903,19.461 		"/>
	</g>
	<g>
		<polygon fill="#BFBEBE" points="149.429,13.865 146.472,19.461 143.517,13.865 		"/>
		<polygon fill="#BFBEBE" points="136.8,19.461 133.845,13.865 130.889,19.461 		"/>
	</g>
	<g>
		<polygon fill="#BFBEBE" points="188.415,13.865 185.458,19.461 182.503,13.865 		"/>
		<polygon fill="#BFBEBE" points="175.786,19.461 172.831,13.865 169.875,19.461 		"/>
	</g>
	<g>
		<polygon fill="#BFBEBE" points="227.4,13.865 224.444,19.461 221.489,13.865 		"/>
		<polygon fill="#BFBEBE" points="214.772,19.461 211.817,13.865 208.861,19.461 		"/>
	</g>
	<g>
		<polygon fill="#BFBEBE" points="267.387,13.865 264.43,19.461 261.476,13.865 		"/>
		<polygon fill="#BFBEBE" points="254.758,19.461 251.803,13.865 248.847,19.461 		"/>
	</g>
	<g>
		<polygon fill="#BFBEBE" points="307.373,13.865 304.417,19.461 301.461,13.865 		"/>
		<polygon fill="#BFBEBE" points="294.744,19.461 291.79,13.865 288.833,19.461 		"/>
	</g>
</g>
<g>
	<g>
		<polygon fill="#BFBEBE" points="373.888,13.865 370.932,19.461 367.977,13.865 		"/>
		<polygon fill="#BFBEBE" points="361.26,19.461 358.305,13.865 355.348,19.461 		"/>
	</g>
	<g>
		<polygon fill="#BFBEBE" points="413.874,13.865 410.918,19.461 407.963,13.865 		"/>
		<polygon fill="#BFBEBE" points="401.246,19.461 398.291,13.865 395.334,19.461 		"/>
	</g>
	<g>
		<polygon fill="#BFBEBE" points="452.86,13.865 449.904,19.461 446.949,13.865 		"/>
		<polygon fill="#BFBEBE" points="440.231,19.461 437.277,13.865 434.32,19.461 		"/>
	</g>
	<g>
		<polygon fill="#BFBEBE" points="491.846,13.865 488.89,19.461 485.935,13.865 		"/>
		<polygon fill="#BFBEBE" points="479.218,19.461 476.263,13.865 473.307,19.461 		"/>
	</g>
	<g>
		<polygon fill="#BFBEBE" points="531.833,13.865 528.876,19.461 525.921,13.865 		"/>
		<polygon fill="#BFBEBE" points="519.204,19.461 516.249,13.865 513.292,19.461 		"/>
	</g>
	<g>
		<polygon fill="#BFBEBE" points="571.818,13.865 568.862,19.461 565.907,13.865 		"/>
		<polygon fill="#BFBEBE" points="559.189,19.461 556.235,13.865 553.279,19.461 		"/>
	</g>
</g>
<g>
	<path fill="#C6C5C5" d="M1186.953,32.08l-2.341-1.399v1.043h-10.478h-0.933h-0.841l2.376-2.379c0.218-0.218,0.516-0.34,0.817-0.34
		h2.102c0.189,0.435,0.627,0.736,1.132,0.736c0.682,0,1.234-0.55,1.234-1.234c0-0.681-0.553-1.234-1.234-1.234
		c-0.607,0-1.108,0.435-1.214,1.012h-2.02c-0.492,0-0.974,0.199-1.326,0.551l-2.555,2.557c-0.213,0.213-0.499,0.332-0.797,0.332
		h-0.316h-0.829c-0.17-0.932-0.984-1.637-1.96-1.637c-1.104,0-1.999,0.891-1.999,1.993c0,1.104,0.895,1.996,1.999,1.996
		c0.976,0,1.79-0.705,1.96-1.634h0.829h0.316h2.325h0.933c0.301,0,0.583,0.115,0.792,0.325l2.451,2.451
		c0.354,0.353,0.822,0.549,1.318,0.549h1.771v0.936h2.341V34.36h-2.341v0.686h-1.771c-0.305,0-0.593-0.119-0.81-0.339l-2.268-2.265
		h8.993v1.041L1186.953,32.08z"/>
</g>
</svg>
