<?xml version="1.0" encoding="utf-8"?>
<!-- Generator: Adobe Illustrator 16.0.0, SVG Export Plug-In . SVG Version: 6.00 Build 0)  -->
<!DOCTYPE svg PUBLIC "-//W3C//DTD SVG 1.1//EN" "http://www.w3.org/Graphics/SVG/1.1/DTD/svg11.dtd">
<svg version="1.1" id="图层_1" xmlns="http://www.w3.org/2000/svg" xmlns:xlink="http://www.w3.org/1999/xlink" x="0px" y="0px"
	 width="1275.59px" height="126.14px" viewBox="0 0 1275.59 126.14" enable-background="new 0 0 1275.59 126.14"
	 xml:space="preserve">
<rect fill="#474747" width="1275.59" height="126.143"/>
<g>
	<path fill="#AFAEAE" d="M898.541,43.1c0,5.929-4.812,10.735-10.746,10.735c-5.936,0-10.746-4.807-10.746-10.735
		c0-5.93,4.811-10.737,10.746-10.737C893.729,32.362,898.541,37.17,898.541,43.1"/>
	<ellipse fill="none" stroke="#929292" stroke-miterlimit="10" cx="887.795" cy="43.1" rx="10.746" ry="10.735"/>
	<path fill="#AFAEAE" d="M895.69,43.1c0,4.355-3.535,7.889-7.896,7.889s-7.896-3.533-7.896-7.889c0-4.357,3.536-7.89,7.896-7.89
		S895.69,38.742,895.69,43.1"/>
	<ellipse fill="none" stroke="#929292" stroke-miterlimit="10" cx="887.794" cy="43.1" rx="7.896" ry="7.889"/>
	<g>
		<g>
			<defs>
				<rect id="SVGID_1_" x="880.351" y="35.664" width="14.888" height="14.869"/>
			</defs>
			<clipPath id="SVGID_2_">
				<use xlink:href="#SVGID_1_"  overflow="visible"/>
			</clipPath>
			<path clip-path="url(#SVGID_2_)" fill="#BEBEBD" d="M895.236,43.1c0,4.104-3.332,7.434-7.441,7.434
				c-4.11,0-7.442-3.329-7.442-7.434c0-4.106,3.332-7.436,7.442-7.436C891.904,35.664,895.236,38.993,895.236,43.1"/>
			<path clip-path="url(#SVGID_2_)" fill="#C0C0C0" d="M895.061,43.1c0,4.008-3.253,7.258-7.266,7.258
				c-4.014,0-7.267-3.25-7.267-7.258c0-4.011,3.253-7.261,7.267-7.261C891.808,35.839,895.061,39.089,895.061,43.1"/>
			<path clip-path="url(#SVGID_2_)" fill="#C2C3C3" d="M894.887,43.1c0,3.911-3.176,7.085-7.092,7.085
				c-3.917,0-7.092-3.174-7.092-7.085c0-3.914,3.175-7.086,7.092-7.086C891.711,36.014,894.887,39.186,894.887,43.1"/>
			<path clip-path="url(#SVGID_2_)" fill="#C4C5C4" d="M894.711,43.1c0,3.814-3.096,6.909-6.916,6.909s-6.917-3.095-6.917-6.909
				c0-3.817,3.097-6.91,6.917-6.91S894.711,39.282,894.711,43.1"/>
			<path clip-path="url(#SVGID_2_)" fill="#C6C8C8" d="M894.536,43.1c0,3.718-3.019,6.734-6.741,6.734
				c-3.724,0-6.741-3.017-6.741-6.734c0-3.721,3.018-6.736,6.741-6.736C891.518,36.363,894.536,39.379,894.536,43.1"/>
			<path clip-path="url(#SVGID_2_)" fill="#C9CACB" d="M894.361,43.1c0,3.622-2.939,6.559-6.566,6.559s-6.566-2.937-6.566-6.559
				c0-3.624,2.939-6.562,6.566-6.562S894.361,39.476,894.361,43.1"/>
			<path clip-path="url(#SVGID_2_)" fill="#CBCDCD" d="M894.187,43.1c0,3.525-2.862,6.386-6.392,6.386
				c-3.531,0-6.391-2.86-6.391-6.386c0-3.527,2.859-6.388,6.391-6.388C891.324,36.712,894.187,39.572,894.187,43.1"/>
			<path clip-path="url(#SVGID_2_)" fill="#CCCFD0" d="M894.012,43.1c0,3.429-2.784,6.21-6.217,6.21s-6.218-2.781-6.218-6.21
				c0-3.431,2.785-6.211,6.218-6.211S894.012,39.669,894.012,43.1"/>
			<path clip-path="url(#SVGID_2_)" fill="#D0D2D2" d="M893.836,43.1c0,3.332-2.705,6.035-6.041,6.035
				c-3.337,0-6.041-2.703-6.041-6.035c0-3.335,2.704-6.037,6.041-6.037C891.131,37.063,893.836,39.765,893.836,43.1"/>
			<path clip-path="url(#SVGID_2_)" fill="#D2D4D5" d="M893.661,43.1c0,3.235-2.628,5.86-5.866,5.86c-3.24,0-5.867-2.625-5.867-5.86
				c0-3.238,2.627-5.861,5.867-5.861C891.033,37.238,893.661,39.861,893.661,43.1"/>
		</g>
	</g>
	<polygon fill="#605F5E" points="886.822,47.57 886.822,44.07 883.32,44.07 883.32,42.128 886.822,42.128 886.822,38.629 
		888.768,38.629 888.768,42.128 892.27,42.128 892.27,44.07 888.768,44.07 888.768,47.57 	"/>
	<path fill="#221714" d="M888.599,38.797v3.161v0.338h0.337h3.166v1.605h-3.166h-0.337v0.336v3.162h-1.607v-3.162v-0.336h-0.337
		h-3.166v-1.605h3.166h0.337v-0.338v-3.161H888.599z M888.936,38.461h-2.281v3.497h-3.502v2.279h3.502v3.499h2.281v-3.499h3.501
		v-2.279h-3.501V38.461z"/>
</g>
<g>
	<path fill="#AFAEAE" d="M898.541,87.046c0,5.929-4.812,10.735-10.746,10.735c-5.936,0-10.746-4.807-10.746-10.735
		c0-5.93,4.811-10.737,10.746-10.737C893.729,76.309,898.541,81.116,898.541,87.046"/>
	<ellipse fill="none" stroke="#929292" stroke-miterlimit="10" cx="887.795" cy="87.046" rx="10.746" ry="10.735"/>
	<path fill="#AFAEAE" d="M895.69,87.046c0,4.355-3.535,7.889-7.896,7.889s-7.896-3.533-7.896-7.889c0-4.357,3.536-7.89,7.896-7.89
		S895.69,82.688,895.69,87.046"/>
	<ellipse fill="none" stroke="#929292" stroke-miterlimit="10" cx="887.794" cy="87.046" rx="7.896" ry="7.889"/>
	<g>
		<g>
			<defs>
				<rect id="SVGID_3_" x="880.351" y="79.61" width="14.888" height="14.869"/>
			</defs>
			<clipPath id="SVGID_4_">
				<use xlink:href="#SVGID_3_"  overflow="visible"/>
			</clipPath>
			<path clip-path="url(#SVGID_4_)" fill="#BEBEBD" d="M895.236,87.046c0,4.104-3.332,7.434-7.441,7.434
				c-4.11,0-7.442-3.329-7.442-7.434c0-4.106,3.332-7.436,7.442-7.436C891.904,79.61,895.236,82.939,895.236,87.046"/>
			<path clip-path="url(#SVGID_4_)" fill="#C0C0C0" d="M895.061,87.046c0,4.008-3.253,7.258-7.266,7.258
				c-4.014,0-7.267-3.25-7.267-7.258c0-4.011,3.253-7.261,7.267-7.261C891.808,79.785,895.061,83.035,895.061,87.046"/>
			<path clip-path="url(#SVGID_4_)" fill="#C2C3C3" d="M894.887,87.046c0,3.911-3.176,7.085-7.092,7.085
				c-3.917,0-7.092-3.174-7.092-7.085c0-3.914,3.175-7.086,7.092-7.086C891.711,79.96,894.887,83.132,894.887,87.046"/>
			<path clip-path="url(#SVGID_4_)" fill="#C4C5C4" d="M894.711,87.046c0,3.815-3.096,6.909-6.916,6.909s-6.917-3.094-6.917-6.909
				c0-3.817,3.097-6.91,6.917-6.91S894.711,83.229,894.711,87.046"/>
			<path clip-path="url(#SVGID_4_)" fill="#C6C8C8" d="M894.536,87.046c0,3.718-3.019,6.734-6.741,6.734
				c-3.724,0-6.741-3.017-6.741-6.734c0-3.721,3.018-6.736,6.741-6.736C891.518,80.31,894.536,83.325,894.536,87.046"/>
			<path clip-path="url(#SVGID_4_)" fill="#C9CACB" d="M894.361,87.046c0,3.622-2.939,6.559-6.566,6.559s-6.566-2.937-6.566-6.559
				c0-3.624,2.939-6.562,6.566-6.562S894.361,83.422,894.361,87.046"/>
			<path clip-path="url(#SVGID_4_)" fill="#CBCDCD" d="M894.187,87.046c0,3.525-2.862,6.386-6.392,6.386
				c-3.531,0-6.391-2.86-6.391-6.386c0-3.527,2.859-6.388,6.391-6.388C891.324,80.658,894.187,83.519,894.187,87.046"/>
			<path clip-path="url(#SVGID_4_)" fill="#CCCFD0" d="M894.012,87.046c0,3.429-2.784,6.21-6.217,6.21s-6.218-2.781-6.218-6.21
				c0-3.431,2.785-6.211,6.218-6.211S894.012,83.615,894.012,87.046"/>
			<path clip-path="url(#SVGID_4_)" fill="#D0D2D2" d="M893.836,87.046c0,3.332-2.705,6.035-6.041,6.035
				c-3.337,0-6.041-2.703-6.041-6.035c0-3.335,2.704-6.037,6.041-6.037C891.131,81.009,893.836,83.711,893.836,87.046"/>
			<path clip-path="url(#SVGID_4_)" fill="#D2D4D5" d="M893.661,87.046c0,3.235-2.628,5.86-5.866,5.86
				c-3.24,0-5.867-2.625-5.867-5.86c0-3.238,2.627-5.861,5.867-5.861C891.033,81.185,893.661,83.808,893.661,87.046"/>
		</g>
	</g>
	<polygon fill="#605F5E" points="886.822,91.516 886.822,88.017 883.32,88.017 883.32,86.074 886.822,86.074 886.822,82.575 
		888.768,82.575 888.768,86.074 892.27,86.074 892.27,88.017 888.768,88.017 888.768,91.516 	"/>
	<path fill="#221714" d="M888.599,82.743v3.161v0.338h0.337h3.166v1.605h-3.166h-0.337v0.336v3.162h-1.607v-3.162v-0.336h-0.337
		h-3.166v-1.605h3.166h0.337v-0.338v-3.161H888.599z M888.936,82.407h-2.281v3.497h-3.502v2.279h3.502v3.499h2.281v-3.499h3.501
		v-2.279h-3.501V82.407z"/>
</g>
<g>
	<g>
		<path fill="#AFAEAE" d="M1200.239,43.1c0,5.929-4.812,10.735-10.746,10.735s-10.747-4.807-10.747-10.735
			c0-5.93,4.813-10.737,10.747-10.737S1200.239,37.17,1200.239,43.1"/>
		<ellipse fill="none" stroke="#929292" stroke-miterlimit="10" cx="1189.493" cy="43.1" rx="10.747" ry="10.735"/>
		<path fill="#AFAEAE" d="M1197.389,43.1c0,4.355-3.535,7.889-7.896,7.889s-7.896-3.533-7.896-7.889c0-4.357,3.536-7.89,7.896-7.89
			S1197.389,38.742,1197.389,43.1"/>
		<ellipse fill="none" stroke="#929292" stroke-miterlimit="10" cx="1189.493" cy="43.1" rx="7.896" ry="7.889"/>
		<g>
			<g>
				<defs>
					<rect id="SVGID_5_" x="1182.049" y="35.664" width="14.888" height="14.869"/>
				</defs>
				<clipPath id="SVGID_6_">
					<use xlink:href="#SVGID_5_"  overflow="visible"/>
				</clipPath>
				<path clip-path="url(#SVGID_6_)" fill="#BEBEBD" d="M1196.935,43.1c0,4.104-3.331,7.434-7.441,7.434s-7.442-3.329-7.442-7.434
					c0-4.106,3.332-7.436,7.442-7.436S1196.935,38.993,1196.935,43.1"/>
				<path clip-path="url(#SVGID_6_)" fill="#C0C0C0" d="M1196.76,43.1c0,4.008-3.254,7.258-7.267,7.258
					c-4.014,0-7.267-3.25-7.267-7.258c0-4.011,3.253-7.261,7.267-7.261C1193.506,35.839,1196.76,39.089,1196.76,43.1"/>
				<path clip-path="url(#SVGID_6_)" fill="#C2C3C3" d="M1196.584,43.1c0,3.911-3.175,7.085-7.091,7.085
					c-3.917,0-7.092-3.174-7.092-7.085c0-3.914,3.175-7.086,7.092-7.086C1193.409,36.014,1196.584,39.186,1196.584,43.1"/>
				<path clip-path="url(#SVGID_6_)" fill="#C4C5C4" d="M1196.409,43.1c0,3.814-3.096,6.909-6.916,6.909s-6.917-3.095-6.917-6.909
					c0-3.817,3.097-6.91,6.917-6.91S1196.409,39.282,1196.409,43.1"/>
				<path clip-path="url(#SVGID_6_)" fill="#C6C8C8" d="M1196.234,43.1c0,3.718-3.02,6.734-6.741,6.734
					c-3.724,0-6.741-3.017-6.741-6.734c0-3.721,3.018-6.736,6.741-6.736C1193.215,36.363,1196.234,39.379,1196.234,43.1"/>
				<path clip-path="url(#SVGID_6_)" fill="#C9CACB" d="M1196.06,43.1c0,3.622-2.939,6.559-6.566,6.559s-6.566-2.937-6.566-6.559
					c0-3.624,2.939-6.562,6.566-6.562S1196.06,39.476,1196.06,43.1"/>
				<path clip-path="url(#SVGID_6_)" fill="#CBCDCD" d="M1195.885,43.1c0,3.525-2.862,6.386-6.392,6.386
					c-3.531,0-6.392-2.86-6.392-6.386c0-3.527,2.86-6.388,6.392-6.388C1193.022,36.712,1195.885,39.572,1195.885,43.1"/>
				<path clip-path="url(#SVGID_6_)" fill="#CCCFD0" d="M1195.71,43.1c0,3.429-2.784,6.21-6.217,6.21s-6.218-2.781-6.218-6.21
					c0-3.431,2.785-6.211,6.218-6.211S1195.71,39.669,1195.71,43.1"/>
				<path clip-path="url(#SVGID_6_)" fill="#D0D2D2" d="M1195.535,43.1c0,3.332-2.706,6.035-6.042,6.035
					c-3.337,0-6.042-2.703-6.042-6.035c0-3.335,2.705-6.037,6.042-6.037C1192.829,37.063,1195.535,39.765,1195.535,43.1"/>
				<path clip-path="url(#SVGID_6_)" fill="#D2D4D5" d="M1195.359,43.1c0,3.235-2.627,5.86-5.866,5.86
					c-3.24,0-5.866-2.625-5.866-5.86c0-3.238,2.626-5.861,5.866-5.861C1192.732,37.238,1195.359,39.861,1195.359,43.1"/>
			</g>
		</g>
		<polygon fill="#605F5E" points="1188.521,47.57 1188.521,44.07 1185.019,44.07 1185.019,42.128 1188.521,42.128 1188.521,38.629 
			1190.465,38.629 1190.465,42.128 1193.968,42.128 1193.968,44.07 1190.465,44.07 1190.465,47.57 		"/>
		<path fill="#221714" d="M1190.297,38.797v3.161v0.338h0.337h3.165v1.605h-3.165h-0.337v0.336v3.162h-1.607v-3.162v-0.336h-0.337
			h-3.166v-1.605h3.166h0.337v-0.338v-3.161H1190.297z M1190.634,38.461h-2.281v3.497h-3.502v2.279h3.502v3.499h2.281v-3.499h3.501
			v-2.279h-3.501V38.461z"/>
	</g>
	<g>
		<path fill="#AFAEAE" d="M1200.239,87.046c0,5.929-4.812,10.735-10.746,10.735s-10.747-4.807-10.747-10.735
			c0-5.93,4.813-10.737,10.747-10.737S1200.239,81.116,1200.239,87.046"/>
		<ellipse fill="none" stroke="#929292" stroke-miterlimit="10" cx="1189.493" cy="87.046" rx="10.747" ry="10.735"/>
		<path fill="#AFAEAE" d="M1197.389,87.046c0,4.355-3.535,7.889-7.896,7.889s-7.896-3.533-7.896-7.889
			c0-4.357,3.536-7.89,7.896-7.89S1197.389,82.688,1197.389,87.046"/>
		<ellipse fill="none" stroke="#929292" stroke-miterlimit="10" cx="1189.493" cy="87.046" rx="7.896" ry="7.889"/>
		<g>
			<g>
				<defs>
					<rect id="SVGID_7_" x="1182.049" y="79.61" width="14.888" height="14.869"/>
				</defs>
				<clipPath id="SVGID_8_">
					<use xlink:href="#SVGID_7_"  overflow="visible"/>
				</clipPath>
				<path clip-path="url(#SVGID_8_)" fill="#BEBEBD" d="M1196.935,87.046c0,4.104-3.331,7.434-7.441,7.434s-7.442-3.329-7.442-7.434
					c0-4.106,3.332-7.436,7.442-7.436S1196.935,82.939,1196.935,87.046"/>
				<path clip-path="url(#SVGID_8_)" fill="#C0C0C0" d="M1196.76,87.046c0,4.008-3.254,7.258-7.267,7.258
					c-4.014,0-7.267-3.25-7.267-7.258c0-4.011,3.253-7.261,7.267-7.261C1193.506,79.785,1196.76,83.035,1196.76,87.046"/>
				<path clip-path="url(#SVGID_8_)" fill="#C2C3C3" d="M1196.584,87.046c0,3.911-3.175,7.085-7.091,7.085
					c-3.917,0-7.092-3.174-7.092-7.085c0-3.914,3.175-7.086,7.092-7.086C1193.409,79.96,1196.584,83.132,1196.584,87.046"/>
				<path clip-path="url(#SVGID_8_)" fill="#C4C5C4" d="M1196.409,87.046c0,3.815-3.096,6.909-6.916,6.909s-6.917-3.094-6.917-6.909
					c0-3.817,3.097-6.91,6.917-6.91S1196.409,83.229,1196.409,87.046"/>
				<path clip-path="url(#SVGID_8_)" fill="#C6C8C8" d="M1196.234,87.046c0,3.718-3.02,6.734-6.741,6.734
					c-3.724,0-6.741-3.017-6.741-6.734c0-3.721,3.018-6.736,6.741-6.736C1193.215,80.31,1196.234,83.325,1196.234,87.046"/>
				<path clip-path="url(#SVGID_8_)" fill="#C9CACB" d="M1196.06,87.046c0,3.622-2.939,6.559-6.566,6.559s-6.566-2.937-6.566-6.559
					c0-3.624,2.939-6.562,6.566-6.562S1196.06,83.422,1196.06,87.046"/>
				<path clip-path="url(#SVGID_8_)" fill="#CBCDCD" d="M1195.885,87.046c0,3.525-2.862,6.386-6.392,6.386
					c-3.531,0-6.392-2.86-6.392-6.386c0-3.527,2.86-6.388,6.392-6.388C1193.022,80.658,1195.885,83.519,1195.885,87.046"/>
				<path clip-path="url(#SVGID_8_)" fill="#CCCFD0" d="M1195.71,87.046c0,3.429-2.784,6.21-6.217,6.21s-6.218-2.781-6.218-6.21
					c0-3.431,2.785-6.211,6.218-6.211S1195.71,83.615,1195.71,87.046"/>
				<path clip-path="url(#SVGID_8_)" fill="#D0D2D2" d="M1195.535,87.046c0,3.332-2.706,6.035-6.042,6.035
					c-3.337,0-6.042-2.703-6.042-6.035c0-3.335,2.705-6.037,6.042-6.037C1192.829,81.009,1195.535,83.711,1195.535,87.046"/>
				<path clip-path="url(#SVGID_8_)" fill="#D2D4D5" d="M1195.359,87.046c0,3.235-2.627,5.86-5.866,5.86
					c-3.24,0-5.866-2.625-5.866-5.86c0-3.238,2.626-5.861,5.866-5.861C1192.732,81.185,1195.359,83.808,1195.359,87.046"/>
			</g>
		</g>
		<polygon fill="#605F5E" points="1188.521,91.516 1188.521,88.017 1185.019,88.017 1185.019,86.074 1188.521,86.074 
			1188.521,82.575 1190.465,82.575 1190.465,86.074 1193.968,86.074 1193.968,88.017 1190.465,88.017 1190.465,91.516 		"/>
		<path fill="#221714" d="M1190.297,82.743v3.161v0.338h0.337h3.165v1.605h-3.165h-0.337v0.336v3.162h-1.607v-3.162v-0.336h-0.337
			h-3.166v-1.605h3.166h0.337v-0.338v-3.161H1190.297z M1190.634,82.407h-2.281v3.497h-3.502v2.279h3.502v3.499h2.281v-3.499h3.501
			v-2.279h-3.501V82.407z"/>
	</g>
</g>
<g>
	<path fill="#AFAEAE" d="M592.052,100.649c0,3.874-3.145,7.016-7.023,7.016s-7.023-3.142-7.023-7.016
		c0-3.875,3.145-7.017,7.023-7.017S592.052,96.774,592.052,100.649"/>
	<ellipse fill="none" stroke="#929292" stroke-miterlimit="10" cx="585.029" cy="100.649" rx="7.023" ry="7.016"/>
	<path fill="#AFAEAE" d="M590.188,100.649c0,2.847-2.31,5.156-5.16,5.156s-5.161-2.31-5.161-5.156c0-2.848,2.311-5.156,5.161-5.156
		S590.188,97.802,590.188,100.649"/>
	<circle fill="none" stroke="#929292" stroke-miterlimit="10" cx="585.028" cy="100.649" r="5.16"/>
	<g>
		<g>
			<defs>
				<rect id="SVGID_9_" x="580.164" y="95.789" width="9.729" height="9.718"/>
			</defs>
			<clipPath id="SVGID_10_">
				<use xlink:href="#SVGID_9_"  overflow="visible"/>
			</clipPath>
			<path clip-path="url(#SVGID_10_)" fill="#BEBEBD" d="M589.892,100.649c0,2.682-2.177,4.857-4.863,4.857s-4.864-2.176-4.864-4.857
				c0-2.684,2.178-4.86,4.864-4.86S589.892,97.966,589.892,100.649"/>
			<path clip-path="url(#SVGID_10_)" fill="#C0C0C0" d="M589.777,100.649c0,2.619-2.126,4.744-4.749,4.744
				c-2.623,0-4.749-2.125-4.749-4.744c0-2.621,2.126-4.744,4.749-4.744C587.651,95.905,589.777,98.028,589.777,100.649"/>
			<path clip-path="url(#SVGID_10_)" fill="#C2C3C3" d="M589.663,100.649c0,2.557-2.075,4.629-4.634,4.629
				c-2.56,0-4.634-2.072-4.634-4.629c0-2.558,2.075-4.631,4.634-4.631C587.588,96.019,589.663,98.092,589.663,100.649"/>
			<path clip-path="url(#SVGID_10_)" fill="#C4C5C4" d="M589.549,100.649c0,2.492-2.023,4.516-4.52,4.516s-4.521-2.023-4.521-4.516
				c0-2.495,2.024-4.517,4.521-4.517S589.549,98.154,589.549,100.649"/>
			<path clip-path="url(#SVGID_10_)" fill="#C6C8C8" d="M589.435,100.649c0,2.43-1.973,4.4-4.406,4.4
				c-2.433,0-4.406-1.971-4.406-4.4c0-2.431,1.973-4.403,4.406-4.403C587.461,96.246,589.435,98.219,589.435,100.649"/>
			<path clip-path="url(#SVGID_10_)" fill="#C9CACB" d="M589.32,100.649c0,2.367-1.921,4.287-4.291,4.287
				c-2.371,0-4.292-1.92-4.292-4.287c0-2.369,1.921-4.288,4.292-4.288C587.399,96.361,589.32,98.28,589.32,100.649"/>
			<path clip-path="url(#SVGID_10_)" fill="#CBCDCD" d="M589.206,100.649c0,2.304-1.871,4.174-4.177,4.174
				c-2.307,0-4.177-1.87-4.177-4.174c0-2.305,1.87-4.175,4.177-4.175C587.335,96.475,589.206,98.345,589.206,100.649"/>
			<path clip-path="url(#SVGID_10_)" fill="#CCCFD0" d="M589.091,100.649c0,2.24-1.819,4.059-4.063,4.059s-4.063-1.818-4.063-4.059
				c0-2.242,1.819-4.059,4.063-4.059S589.091,98.407,589.091,100.649"/>
			<path clip-path="url(#SVGID_10_)" fill="#D0D2D2" d="M588.977,100.649c0,2.178-1.768,3.943-3.948,3.943
				c-2.181,0-3.948-1.766-3.948-3.943c0-2.18,1.768-3.945,3.948-3.945C587.209,96.704,588.977,98.47,588.977,100.649"/>
			<path clip-path="url(#SVGID_10_)" fill="#D2D4D5" d="M588.862,100.649c0,2.114-1.717,3.83-3.833,3.83
				c-2.118,0-3.834-1.716-3.834-3.83c0-2.117,1.716-3.829,3.834-3.829C587.146,96.82,588.862,98.532,588.862,100.649"/>
		</g>
	</g>
	<polygon fill="#605F5E" points="584.394,103.571 584.394,101.284 582.104,101.284 582.104,100.014 584.394,100.014 584.394,97.728 
		585.664,97.728 585.664,100.014 587.953,100.014 587.953,101.284 585.664,101.284 585.664,103.571 	"/>
	<path fill="#221714" d="M585.554,97.839v2.063v0.222h0.22h2.069v1.049h-2.069h-0.22v0.221v2.065h-1.05v-2.065v-0.221h-0.221h-2.069
		v-1.049h2.069h0.221v-0.222v-2.063H585.554z M585.774,97.617h-1.491v2.285h-2.289v1.491h2.289v2.285h1.491v-2.285h2.289v-1.491
		h-2.289V97.617z"/>
</g>
<path fill="#585959" stroke="#A4A4A4" stroke-miterlimit="10" d="M323.197,114.776c0,2.301-1.799,4.166-4.02,4.166H20.385
	c-2.22,0-4.02-1.865-4.02-4.166V12.108c0-2.301,1.8-4.166,4.02-4.166h298.793c2.22,0,4.02,1.865,4.02,4.166V114.776z"/>
<linearGradient id="SVGID_11_" gradientUnits="userSpaceOnUse" x1="292.0205" y1="41.9424" x2="323.1973" y2="41.9424">
	<stop  offset="0" style="stop-color:#FFFFFF"/>
	<stop  offset="0.1688" style="stop-color:#B1B4B5"/>
	<stop  offset="0.4086" style="stop-color:#E0E0DF"/>
	<stop  offset="0.7581" style="stop-color:#B1B4B5"/>
	<stop  offset="1" style="stop-color:#C2C2C2"/>
</linearGradient>
<path fill="url(#SVGID_11_)" d="M323.197,28.942h-19.524c-6.436,0-11.652,5.82-11.652,13s5.217,13,11.652,13h19.524V28.942z"/>
<g>
	<path fill="#AFAEAE" d="M320.405,41.943c0,6.405-5.198,11.598-11.61,11.598c-6.412,0-11.609-5.192-11.609-11.598
		c0-6.406,5.198-11.6,11.609-11.6C315.207,30.344,320.405,35.537,320.405,41.943"/>
	<ellipse fill="none" stroke="#929292" stroke-miterlimit="10" cx="308.795" cy="41.943" rx="11.61" ry="11.598"/>
	<path fill="#AFAEAE" d="M317.325,41.943c0,4.705-3.819,8.522-8.53,8.522c-4.71,0-8.53-3.817-8.53-8.522
		c0-4.708,3.82-8.523,8.53-8.523C313.506,33.42,317.325,37.235,317.325,41.943"/>
	<ellipse fill="none" stroke="#929292" stroke-miterlimit="10" cx="308.795" cy="41.943" rx="8.53" ry="8.522"/>
	<g>
		<g>
			<defs>
				<rect id="SVGID_12_" x="300.753" y="33.91" width="16.083" height="16.063"/>
			</defs>
			<clipPath id="SVGID_13_">
				<use xlink:href="#SVGID_12_"  overflow="visible"/>
			</clipPath>
			<path clip-path="url(#SVGID_13_)" fill="#BEBEBD" d="M316.835,41.943c0,4.434-3.6,8.03-8.04,8.03c-4.44,0-8.04-3.597-8.04-8.03
				c0-4.437,3.6-8.033,8.04-8.033C313.235,33.91,316.835,37.507,316.835,41.943"/>
			<path clip-path="url(#SVGID_13_)" fill="#C0C0C0" d="M316.646,41.943c0,4.33-3.515,7.842-7.851,7.842
				c-4.336,0-7.85-3.512-7.85-7.842c0-4.332,3.514-7.844,7.85-7.844C313.13,34.1,316.646,37.611,316.646,41.943"/>
			<path clip-path="url(#SVGID_13_)" fill="#C2C3C3" d="M316.457,41.943c0,4.226-3.43,7.653-7.662,7.653s-7.661-3.428-7.661-7.653
				c0-4.229,3.43-7.655,7.661-7.655S316.457,37.715,316.457,41.943"/>
			<path clip-path="url(#SVGID_13_)" fill="#C4C5C4" d="M316.267,41.943c0,4.121-3.344,7.465-7.472,7.465
				c-4.127,0-7.473-3.344-7.473-7.465c0-4.123,3.346-7.466,7.473-7.466C312.923,34.478,316.267,37.82,316.267,41.943"/>
			<path clip-path="url(#SVGID_13_)" fill="#C6C8C8" d="M316.079,41.943c0,4.017-3.262,7.275-7.284,7.275s-7.283-3.259-7.283-7.275
				c0-4.02,3.261-7.278,7.283-7.278S316.079,37.924,316.079,41.943"/>
			<path clip-path="url(#SVGID_13_)" fill="#C9CACB" d="M315.889,41.943c0,3.912-3.175,7.086-7.094,7.086
				c-3.918,0-7.094-3.174-7.094-7.086c0-3.915,3.176-7.089,7.094-7.089C312.714,34.854,315.889,38.028,315.889,41.943"/>
			<path clip-path="url(#SVGID_13_)" fill="#CBCDCD" d="M315.701,41.943c0,3.809-3.093,6.898-6.906,6.898s-6.904-3.09-6.904-6.898
				c0-3.811,3.091-6.901,6.904-6.901S315.701,38.133,315.701,41.943"/>
			<path clip-path="url(#SVGID_13_)" fill="#CCCFD0" d="M315.512,41.943c0,3.704-3.008,6.709-6.717,6.709
				c-3.708,0-6.716-3.005-6.716-6.709c0-3.707,3.008-6.71,6.716-6.71C312.504,35.233,315.512,38.236,315.512,41.943"/>
			<path clip-path="url(#SVGID_13_)" fill="#D0D2D2" d="M315.322,41.943c0,3.6-2.922,6.52-6.527,6.52
				c-3.604,0-6.526-2.92-6.526-6.52c0-3.603,2.922-6.522,6.526-6.522C312.4,35.421,315.322,38.341,315.322,41.943"/>
			<path clip-path="url(#SVGID_13_)" fill="#D2D4D5" d="M315.133,41.943c0,3.495-2.838,6.331-6.338,6.331s-6.338-2.836-6.338-6.331
				c0-3.498,2.838-6.332,6.338-6.332S315.133,38.445,315.133,41.943"/>
		</g>
	</g>
	<polygon fill="#605F5E" points="307.745,46.772 307.745,42.992 303.961,42.992 303.961,40.894 307.745,40.894 307.745,37.113 
		309.846,37.113 309.846,40.894 313.629,40.894 313.629,42.992 309.846,42.992 309.846,46.772 	"/>
	<path fill="#221714" d="M309.664,37.295v3.415v0.365h0.363h3.42v1.734h-3.42h-0.363v0.363v3.416h-1.736v-3.416V42.81h-0.365h-3.42
		v-1.734h3.42h0.365V40.71v-3.415H309.664z M310.027,36.932h-2.464v3.778h-3.784v2.463h3.784v3.779h2.464v-3.779h3.782V40.71h-3.782
		V36.932z"/>
</g>
<linearGradient id="SVGID_14_" gradientUnits="userSpaceOnUse" x1="33.2842" y1="62.999" x2="261.8057" y2="62.999">
	<stop  offset="0" style="stop-color:#FFFFFF"/>
	<stop  offset="0.1688" style="stop-color:#B1B4B5"/>
	<stop  offset="0.4086" style="stop-color:#E0E0DF"/>
	<stop  offset="0.7581" style="stop-color:#B1B4B5"/>
	<stop  offset="1" style="stop-color:#C2C2C2"/>
</linearGradient>
<rect x="33.284" y="55.827" fill="url(#SVGID_14_)" width="228.521" height="14.344"/>
<g>
	<polygon fill="#090909" points="43.755,66.375 47.653,59.623 51.552,66.375 	"/>
	<polygon fill="#090909" points="67.766,59.623 63.868,66.375 59.97,59.623 	"/>
</g>
<g>
	<polygon fill="#090909" points="104.618,66.375 108.516,59.623 112.414,66.375 	"/>
	<polygon fill="#090909" points="128.628,59.623 124.73,66.375 120.832,59.623 	"/>
</g>
<g>
	<polygon fill="#090909" points="165.479,66.375 169.378,59.623 173.276,66.375 	"/>
	<polygon fill="#090909" points="189.49,59.623 185.592,66.375 181.694,59.623 	"/>
</g>
<g>
	<polygon fill="#090909" points="226.342,66.375 230.24,59.623 234.138,66.375 	"/>
	<polygon fill="#090909" points="250.353,59.623 246.455,66.375 242.557,59.623 	"/>
</g>
<g>
	<rect x="330.021" fill="#181818" width="5" height="126.143"/>
	<rect x="330.021" fill="#626363" width="2.392" height="126.143"/>
</g>
<g>
	<rect x="567.681" fill="#181818" width="5" height="126.143"/>
	<rect x="567.681" fill="#626363" width="2.391" height="126.143"/>
</g>
<circle fill="#6C6C60" cx="393.545" cy="61.981" r="30.467"/>
<rect x="365.012" y="12.948" fill="#0D0A0C" width="16.066" height="16.066"/>
<rect x="344.512" y="12.948" fill="#0D0A0C" width="16.066" height="16.066"/>
<rect x="385.512" y="12.948" fill="#0D0A0C" width="16.066" height="16.066"/>
<rect x="406.012" y="12.948" fill="#0D0A0C" width="16.066" height="16.066"/>
<rect x="426.512" y="12.948" fill="#0D0A0C" width="16.066" height="16.066"/>
<g>
	<rect x="344.512" y="33.448" fill="#0D0A0C" width="16.066" height="16.066"/>
	<rect x="365.012" y="33.448" fill="#0D0A0C" width="16.066" height="16.066"/>
	<rect x="385.512" y="33.448" fill="#0D0A0C" width="16.066" height="16.066"/>
	<rect x="406.012" y="33.448" fill="#0D0A0C" width="16.066" height="16.066"/>
	<rect x="426.512" y="33.448" fill="#0D0A0C" width="16.066" height="16.066"/>
</g>
<g>
	<rect x="344.512" y="53.948" fill="#0D0A0C" width="16.066" height="16.066"/>
	<rect x="365.012" y="53.948" fill="#0D0A0C" width="16.066" height="16.066"/>
	<rect x="385.512" y="53.948" fill="#0D0A0C" width="16.066" height="16.066"/>
	<rect x="406.012" y="53.948" fill="#0D0A0C" width="16.066" height="16.066"/>
	<rect x="426.512" y="53.948" fill="#0D0A0C" width="16.066" height="16.066"/>
</g>
<g>
	<rect x="344.512" y="74.448" fill="#0D0A0C" width="16.066" height="16.066"/>
	<rect x="365.012" y="74.448" fill="#0D0A0C" width="16.066" height="16.066"/>
	<rect x="385.512" y="74.448" fill="#0D0A0C" width="16.066" height="16.066"/>
	<rect x="406.012" y="74.448" fill="#0D0A0C" width="16.066" height="16.066"/>
	<rect x="426.512" y="74.448" fill="#0D0A0C" width="16.066" height="16.066"/>
</g>
<rect x="365.012" y="93.975" fill="#0D0A0C" width="16.066" height="16.066"/>
<rect x="344.512" y="93.975" fill="#0D0A0C" width="16.066" height="16.066"/>
<rect x="385.512" y="94.948" fill="#0D0A0C" width="16.066" height="16.066"/>
<rect x="426.512" y="93.975" fill="#0D0A0C" width="16.066" height="16.066"/>
<linearGradient id="SVGID_15_" gradientUnits="userSpaceOnUse" x1="344.5122" y1="62.7842" x2="360.5786" y2="62.7842">
	<stop  offset="0" style="stop-color:#753131"/>
	<stop  offset="0.4851" style="stop-color:#995957"/>
	<stop  offset="0.5872" style="stop-color:#995957"/>
	<stop  offset="1" style="stop-color:#753131"/>
</linearGradient>
<rect x="344.512" y="44.704" fill="url(#SVGID_15_)" width="16.066" height="36.16"/>
<linearGradient id="SVGID_16_" gradientUnits="userSpaceOnUse" x1="426.5122" y1="62.7842" x2="442.5786" y2="62.7842">
	<stop  offset="0" style="stop-color:#753131"/>
	<stop  offset="0.4851" style="stop-color:#995957"/>
	<stop  offset="0.5872" style="stop-color:#995957"/>
	<stop  offset="1" style="stop-color:#753131"/>
</linearGradient>
<rect x="426.512" y="44.704" fill="url(#SVGID_16_)" width="16.066" height="36.16"/>
<g>
	<path fill="#060001" d="M416.021,95.635c-3.979,0-7.206,3.227-7.206,7.207c0,3.979,3.227,7.205,7.206,7.205
		s7.206-3.227,7.206-7.205C423.227,98.861,420,95.635,416.021,95.635"/>
	<g>
		<defs>
			<path id="SVGID_17_" d="M421.809,102.842c0,3.197-2.592,5.789-5.789,5.789c-3.199,0-5.792-2.592-5.792-5.789
				c0-3.199,2.593-5.792,5.792-5.792C419.216,97.05,421.809,99.643,421.809,102.842"/>
		</defs>
		<clipPath id="SVGID_18_">
			<use xlink:href="#SVGID_17_"  overflow="visible"/>
		</clipPath>
		
			<radialGradient id="SVGID_19_" cx="-2363.1748" cy="-37.4312" r="1.0172" gradientTransform="matrix(-8.3884 0 0 8.3884 -19405.8203 414.7578)" gradientUnits="userSpaceOnUse">
			<stop  offset="0" style="stop-color:#F4CF4C"/>
			<stop  offset="1" style="stop-color:#DE9212"/>
		</radialGradient>
		<rect x="410.228" y="97.05" clip-path="url(#SVGID_18_)" fill="url(#SVGID_19_)" width="11.583" height="11.581"/>
	</g>
	<g opacity="0.5" enable-background="new    ">
		<g>
			<defs>
				<rect id="SVGID_20_" x="416.792" y="99.494" width="1.929" height="1.932"/>
			</defs>
			<clipPath id="SVGID_21_">
				<use xlink:href="#SVGID_20_"  overflow="visible"/>
			</clipPath>
			<rect x="416.792" y="99.494" clip-path="url(#SVGID_21_)" fill="#FFFFFF" width="1.929" height="1.93"/>
		</g>
	</g>
	<g opacity="0.5" enable-background="new    ">
		<g>
			<defs>
				<rect id="SVGID_22_" x="417.757" y="99.494" width="0.964" height="1.932"/>
			</defs>
			<clipPath id="SVGID_23_">
				<use xlink:href="#SVGID_22_"  overflow="visible"/>
			</clipPath>
			<rect x="417.757" y="99.494" clip-path="url(#SVGID_23_)" fill="#FFFFFF" width="0.964" height="1.93"/>
		</g>
	</g>
</g>
<g>
	<circle fill="#6C6C60" cx="511.733" cy="61.981" r="30.467"/>
	<rect x="483.2" y="12.948" fill="#0D0A0C" width="16.066" height="16.066"/>
	<rect x="462.7" y="12.948" fill="#0D0A0C" width="16.066" height="16.066"/>
	<rect x="503.7" y="12.948" fill="#0D0A0C" width="16.066" height="16.066"/>
	<rect x="524.2" y="12.948" fill="#0D0A0C" width="16.066" height="16.066"/>
	<rect x="544.7" y="12.948" fill="#0D0A0C" width="16.066" height="16.066"/>
	<g>
		<rect x="462.7" y="33.448" fill="#0D0A0C" width="16.066" height="16.066"/>
		<rect x="483.2" y="33.448" fill="#0D0A0C" width="16.066" height="16.066"/>
		<rect x="503.7" y="33.448" fill="#0D0A0C" width="16.066" height="16.066"/>
		<rect x="524.2" y="33.448" fill="#0D0A0C" width="16.066" height="16.066"/>
		<rect x="544.7" y="33.448" fill="#0D0A0C" width="16.066" height="16.066"/>
	</g>
	<g>
		<rect x="462.7" y="53.948" fill="#0D0A0C" width="16.066" height="16.066"/>
		<rect x="483.2" y="53.948" fill="#0D0A0C" width="16.066" height="16.066"/>
		<rect x="503.7" y="53.948" fill="#0D0A0C" width="16.066" height="16.066"/>
		<rect x="524.2" y="53.948" fill="#0D0A0C" width="16.066" height="16.066"/>
		<rect x="544.7" y="53.948" fill="#0D0A0C" width="16.066" height="16.066"/>
	</g>
	<g>
		<rect x="462.7" y="74.448" fill="#0D0A0C" width="16.066" height="16.066"/>
		<rect x="483.2" y="74.448" fill="#0D0A0C" width="16.066" height="16.066"/>
		<rect x="503.7" y="74.448" fill="#0D0A0C" width="16.066" height="16.066"/>
		<rect x="524.2" y="74.448" fill="#0D0A0C" width="16.066" height="16.066"/>
		<rect x="544.7" y="74.448" fill="#0D0A0C" width="16.066" height="16.066"/>
	</g>
	<rect x="483.2" y="93.975" fill="#0D0A0C" width="16.066" height="16.066"/>
	<rect x="462.7" y="93.975" fill="#0D0A0C" width="16.066" height="16.066"/>
	<rect x="503.7" y="94.948" fill="#0D0A0C" width="16.066" height="16.066"/>
	<rect x="544.7" y="93.975" fill="#0D0A0C" width="16.066" height="16.066"/>
	<linearGradient id="SVGID_24_" gradientUnits="userSpaceOnUse" x1="462.6997" y1="62.7842" x2="478.7661" y2="62.7842">
		<stop  offset="0" style="stop-color:#753131"/>
		<stop  offset="0.4851" style="stop-color:#995957"/>
		<stop  offset="0.5872" style="stop-color:#995957"/>
		<stop  offset="1" style="stop-color:#753131"/>
	</linearGradient>
	<rect x="462.7" y="44.704" fill="url(#SVGID_24_)" width="16.066" height="36.16"/>
	<linearGradient id="SVGID_25_" gradientUnits="userSpaceOnUse" x1="544.6997" y1="62.7842" x2="560.7661" y2="62.7842">
		<stop  offset="0" style="stop-color:#753131"/>
		<stop  offset="0.4851" style="stop-color:#995957"/>
		<stop  offset="0.5872" style="stop-color:#995957"/>
		<stop  offset="1" style="stop-color:#753131"/>
	</linearGradient>
	<rect x="544.7" y="44.704" fill="url(#SVGID_25_)" width="16.066" height="36.16"/>
	<g>
		<path fill="#060001" d="M534.208,95.635c-3.979,0-7.206,3.227-7.206,7.207c0,3.979,3.227,7.205,7.206,7.205
			s7.206-3.227,7.206-7.205C541.414,98.861,538.187,95.635,534.208,95.635"/>
		<g>
			<defs>
				<path id="SVGID_26_" d="M539.996,102.842c0,3.197-2.592,5.789-5.789,5.789c-3.199,0-5.792-2.592-5.792-5.789
					c0-3.199,2.593-5.792,5.792-5.792C537.404,97.05,539.996,99.643,539.996,102.842"/>
			</defs>
			<clipPath id="SVGID_27_">
				<use xlink:href="#SVGID_26_"  overflow="visible"/>
			</clipPath>
			
				<radialGradient id="SVGID_28_" cx="-2377.2646" cy="-37.4312" r="1.0172" gradientTransform="matrix(-8.3884 0 0 8.3884 -19405.8203 414.7578)" gradientUnits="userSpaceOnUse">
				<stop  offset="0" style="stop-color:#F4CF4C"/>
				<stop  offset="1" style="stop-color:#DE9212"/>
			</radialGradient>
			<rect x="528.415" y="97.05" clip-path="url(#SVGID_27_)" fill="url(#SVGID_28_)" width="11.583" height="11.581"/>
		</g>
		<g opacity="0.5" enable-background="new    ">
			<g>
				<defs>
					<rect id="SVGID_29_" x="534.979" y="99.494" width="1.929" height="1.932"/>
				</defs>
				<clipPath id="SVGID_30_">
					<use xlink:href="#SVGID_29_"  overflow="visible"/>
				</clipPath>
				<rect x="534.979" y="99.494" clip-path="url(#SVGID_30_)" fill="#FFFFFF" width="1.929" height="1.93"/>
			</g>
		</g>
		<g opacity="0.5" enable-background="new    ">
			<g>
				<defs>
					<rect id="SVGID_31_" x="535.944" y="99.494" width="0.964" height="1.932"/>
				</defs>
				<clipPath id="SVGID_32_">
					<use xlink:href="#SVGID_31_"  overflow="visible"/>
				</clipPath>
				<rect x="535.944" y="99.494" clip-path="url(#SVGID_32_)" fill="#FFFFFF" width="0.964" height="1.93"/>
			</g>
		</g>
	</g>
</g>
<rect x="572.681" y="1.443" fill="#3C3C3D" stroke="#151515" stroke-miterlimit="10" width="22.506" height="58.832"/>
<g>
	<g>
		<path fill="#252626" d="M589.71,45.571c0,3.252-2.638,5.891-5.892,5.891s-5.892-2.639-5.892-5.891
			c0-3.254,2.638-5.892,5.892-5.892S589.71,42.317,589.71,45.571"/>
		<circle fill="none" stroke="#121212" stroke-width="0.75" stroke-miterlimit="10" cx="583.818" cy="45.571" r="5.892"/>
		<polygon fill="#040000" points="583.091,48.911 583.091,46.298 580.477,46.298 580.477,44.843 583.091,44.843 583.091,42.23 
			584.547,42.23 584.547,44.843 587.16,44.843 587.16,46.298 584.547,46.298 584.547,48.911 		"/>
		<path fill="#221714" d="M584.424,42.353v2.367v0.246h0.246h2.368v1.209h-2.368h-0.246v0.246v2.368h-1.21v-2.368v-0.246h-0.246
			H580.6v-1.209h2.368h0.246V44.72v-2.367H584.424z M584.669,42.106h-1.702v2.613h-2.613v1.701h2.613v2.613h1.702v-2.613h2.613
			V44.72h-2.613V42.106z"/>
	</g>
	<rect x="582.967" y="42.106" fill="#606062" width="0.246" height="2.859"/>
	<rect x="580.354" y="44.72" fill="#606062" width="2.858" height="0.246"/>
</g>
<g>
	<polygon fill="#959595" points="586.939,15.442 581.469,18.601 581.469,12.284 	"/>
	<polygon fill="#959595" points="581.518,28.307 587.061,25.278 586.912,31.592 	"/>
</g>
<rect x="595.187" y="1.443" fill="#222222" width="2.958" height="30.148"/>
<rect x="595.187" y="22.942" fill="#B9B9B9" width="2.958" height="37.332"/>
<g>
	<g>
		<path fill="#040000" d="M655.193,66.69c0,0-4.41,3.752-4.993-2.478c0,0-4.06-13.751,7.17-28.68c0,0,1.584-1.194,2.941-1.367
			l13.197,0.188c0,0,4.365,1.177,1.882,4.187L655.193,66.69z"/>
		<path fill="#040000" d="M677.298,25.146c0,0-4.833-3.188,0.986-5.485c0,0,12.072-7.735,29.54-1.117c0,0,1.59,1.188,2.135,2.442
			l3.501,12.726c0,0,0.088,4.521-3.494,2.975L677.298,25.146z"/>
		<path fill="#040000" d="M729.121,36.936c0,0,1.98-5.439,5.563-0.311c0,0,10.32,9.954,7.926,28.481c0,0-0.788,1.819-1.883,2.641
			L729.158,74.1c0,0-4.377,1.131-3.702-2.711L729.121,36.936z"/>
		<path fill="#040000" d="M679.061,100.766c0,0,0.961,5.709-4.687,3.017c0,0-13.888-3.567-20.946-20.863
			c0,0-0.212-1.972,0.334-3.224l6.929-11.235c0,0,3.25-3.144,4.56,0.529L679.061,100.766z"/>
		<path fill="#040000" d="M730.756,86.747c0,0,5.785,0.234,1.987,5.207c0,0-6.347,12.856-24.724,16.207c0,0-1.975-0.197-3.09-0.99
			l-9.567-9.091c0,0-2.408-3.827,1.457-4.353L730.756,86.747z"/>
	</g>
	<g>
		<g>
			<defs>
				<path id="SVGID_33_" d="M616.922,96.563l0.063,2.545l10.702,0.572l1.462-9.426c0.582-3.764-2.058-7.199-5.532-7.199h-1.302
					c-1.579,0-2.96,1.168-3.365,2.842l-1.548,6.4c-0.279,1.244-0.482,2.791-0.482,4.096C616.92,96.45,616.922,96.507,616.922,96.563
					"/>
			</defs>
			<clipPath id="SVGID_34_">
				<use xlink:href="#SVGID_33_"  overflow="visible"/>
			</clipPath>
			
				<linearGradient id="SVGID_35_" gradientUnits="userSpaceOnUse" x1="129.9326" y1="188.4199" x2="130.679" y2="188.4199" gradientTransform="matrix(8.6407 21.6019 -21.6019 8.6407 3566.9141 -4353.3594)">
				<stop  offset="0" style="stop-color:#E0DFDE"/>
				<stop  offset="1" style="stop-color:#666666"/>
			</linearGradient>
			<polygon clip-path="url(#SVGID_34_)" fill="url(#SVGID_35_)" points="611.701,85.349 618.688,104.53 634.951,97.386 
				627.965,78.204 			"/>
		</g>
		<g>
			<defs>
				<path id="SVGID_36_" d="M763.365,88.917l1.877,10.762l10.629-1.239c0-2.288-0.271-4.566-0.81-6.779l-0.924-3.807
					c-0.688-2.83-3.021-4.799-5.688-4.797h-0.672c-2.527,0-4.494,2.264-4.494,4.922C763.283,88.287,763.31,88.602,763.365,88.917"/>
			</defs>
			<clipPath id="SVGID_37_">
				<use xlink:href="#SVGID_36_"  overflow="visible"/>
			</clipPath>
			
				<linearGradient id="SVGID_38_" gradientUnits="userSpaceOnUse" x1="171.1455" y1="-74.3945" x2="171.8796" y2="-74.3945" gradientTransform="matrix(0 14.9609 -14.9609 0 -343.4375 -2479.2031)">
				<stop  offset="0" style="stop-color:#E0DFDE"/>
				<stop  offset="1" style="stop-color:#666666"/>
			</linearGradient>
			<rect x="763.283" y="83.055" clip-path="url(#SVGID_37_)" fill="url(#SVGID_38_)" width="12.588" height="16.624"/>
		</g>
		
			<linearGradient id="SVGID_39_" gradientUnits="userSpaceOnUse" x1="-10275.2715" y1="1480.5566" x2="-10275.2715" y2="1470.0557" gradientTransform="matrix(-1 0 0 1 -9579.1455 -1376.3398)">
			<stop  offset="0" style="stop-color:#CBCCCC"/>
			<stop  offset="0.4731" style="stop-color:#E0DFDE"/>
			<stop  offset="1" style="stop-color:#666666"/>
		</linearGradient>
		<path fill="url(#SVGID_39_)" d="M616.382,98.966c0,2.9,1.572,5.25,3.511,5.25l152.468,0.001c1.939,0,3.511-2.351,3.511-5.25l0,0
			c0-2.899-1.571-5.25-3.511-5.25l-152.468-0.001C617.954,93.716,616.382,96.067,616.382,98.966L616.382,98.966z"/>
	</g>
</g>
<g>
	<g>
		<path fill="#040000" d="M938.553,66.69c0,0-4.41,3.752-4.993-2.478c0,0-4.06-13.751,7.17-28.68c0,0,1.583-1.194,2.94-1.367
			l13.197,0.188c0,0,4.365,1.177,1.883,4.187L938.553,66.69z"/>
		<path fill="#040000" d="M960.656,25.146c0,0-4.832-3.188,0.987-5.485c0,0,12.071-7.735,29.54-1.117c0,0,1.59,1.188,2.135,2.442
			l3.501,12.726c0,0,0.088,4.521-3.494,2.975L960.656,25.146z"/>
		<path fill="#040000" d="M1012.479,36.936c0,0,1.981-5.439,5.564-0.311c0,0,10.319,9.954,7.926,28.481c0,0-0.788,1.819-1.883,2.641
			l-11.569,6.353c0,0-4.377,1.131-3.703-2.711L1012.479,36.936z"/>
		<path fill="#040000" d="M962.42,100.766c0,0,0.961,5.709-4.687,3.017c0,0-13.889-3.567-20.946-20.863c0,0-0.213-1.972,0.334-3.224
			l6.929-11.235c0,0,3.249-3.144,4.559,0.529L962.42,100.766z"/>
		<path fill="#040000" d="M1014.115,86.747c0,0,5.785,0.234,1.987,5.207c0,0-6.347,12.856-24.725,16.207c0,0-1.974-0.197-3.089-0.99
			l-9.567-9.091c0,0-2.409-3.827,1.457-4.353L1014.115,86.747z"/>
	</g>
	<g>
		<g>
			<defs>
				<path id="SVGID_40_" d="M900.281,96.563l0.063,2.545l10.702,0.572l1.462-9.426c0.582-3.764-2.058-7.199-5.532-7.199h-1.303
					c-1.578,0-2.959,1.168-3.364,2.842l-1.548,6.4c-0.279,1.244-0.482,2.791-0.482,4.096
					C900.279,96.45,900.281,96.507,900.281,96.563"/>
			</defs>
			<clipPath id="SVGID_41_">
				<use xlink:href="#SVGID_40_"  overflow="visible"/>
			</clipPath>
			
				<linearGradient id="SVGID_42_" gradientUnits="userSpaceOnUse" x1="134.4556" y1="177.1123" x2="135.2023" y2="177.1123" gradientTransform="matrix(8.6407 21.6019 -21.6019 8.6407 3566.9141 -4353.3594)">
				<stop  offset="0" style="stop-color:#E0DFDE"/>
				<stop  offset="1" style="stop-color:#666666"/>
			</linearGradient>
			<polygon clip-path="url(#SVGID_41_)" fill="url(#SVGID_42_)" points="895.061,85.349 902.047,104.53 918.311,97.386 
				911.324,78.204 			"/>
		</g>
		<g>
			<defs>
				<path id="SVGID_43_" d="M1046.725,88.917l1.877,10.762l10.629-1.239c0-2.288-0.272-4.566-0.81-6.779l-0.925-3.807
					c-0.688-2.83-3.021-4.799-5.688-4.797h-0.672c-2.527,0-4.494,2.264-4.494,4.922
					C1046.643,88.287,1046.669,88.602,1046.725,88.917"/>
			</defs>
			<clipPath id="SVGID_44_">
				<use xlink:href="#SVGID_43_"  overflow="visible"/>
			</clipPath>
			
				<linearGradient id="SVGID_45_" gradientUnits="userSpaceOnUse" x1="171.1455" y1="-93.335" x2="171.8796" y2="-93.335" gradientTransform="matrix(0 14.9609 -14.9609 0 -343.4375 -2479.2031)">
				<stop  offset="0" style="stop-color:#E0DFDE"/>
				<stop  offset="1" style="stop-color:#666666"/>
			</linearGradient>
			<rect x="1046.643" y="83.055" clip-path="url(#SVGID_44_)" fill="url(#SVGID_45_)" width="12.588" height="16.624"/>
		</g>
		
			<linearGradient id="SVGID_46_" gradientUnits="userSpaceOnUse" x1="-10558.6309" y1="1480.5566" x2="-10558.6309" y2="1470.0557" gradientTransform="matrix(-1 0 0 1 -9579.1455 -1376.3398)">
			<stop  offset="0" style="stop-color:#CBCCCC"/>
			<stop  offset="0.4731" style="stop-color:#E0DFDE"/>
			<stop  offset="1" style="stop-color:#666666"/>
		</linearGradient>
		<path fill="url(#SVGID_46_)" d="M899.741,98.966c0,2.9,1.571,5.25,3.511,5.25l152.468,0.001c1.939,0,3.511-2.351,3.511-5.25l0,0
			c0-2.899-1.571-5.25-3.511-5.25l-152.468-0.001C901.313,93.716,899.741,96.067,899.741,98.966L899.741,98.966z"/>
	</g>
</g>
</svg>
