<?xml version="1.0" encoding="utf-8"?>
<!-- Generator: Adobe Illustrator 16.0.0, SVG Export Plug-In . SVG Version: 6.00 Build 0)  -->
<!DOCTYPE svg PUBLIC "-//W3C//DTD SVG 1.1//EN" "http://www.w3.org/Graphics/SVG/1.1/DTD/svg11.dtd">
<svg version="1.1" id="图层_1" xmlns="http://www.w3.org/2000/svg" xmlns:xlink="http://www.w3.org/1999/xlink" x="0px" y="0px"
	 width="1275.59px" height="126.142px" viewBox="0 0 1275.59 126.142" enable-background="new 0 0 1275.59 126.142"
	 xml:space="preserve">
<g>
	
		<image overflow="visible" width="2048" height="256" xlink:href="E:\2017年工作.wang\6月\14hao\device\H3C_S5048E_front.jpg"  transform="matrix(0.6228 0 0 0.4927 -0.002 -4.882813e-004)">
	</image>
	<g>
		<rect x="40.25" y="30.5" fill="#8E8D8D" width="310.5" height="68"/>
		<rect x="37.5" y="32.625" fill="#8E8D8D" width="9" height="64.125"/>
		<rect x="348.75" y="34.083" fill="#8E8D8D" width="7.083" height="61.917"/>
	</g>
	<g>
		<rect x="381.5" y="30.5" fill="#8E8D8D" width="310.5" height="68"/>
		<rect x="378.75" y="32.625" fill="#8E8D8D" width="9" height="64.125"/>
		<rect x="690" y="34.083" fill="#8E8D8D" width="7.084" height="61.917"/>
	</g>
	<g>
		<rect x="722.913" y="30.5" fill="#8E8D8D" width="310.5" height="68"/>
		<rect x="720.163" y="32.625" fill="#8E8D8D" width="9" height="64.125"/>
		<rect x="1031.413" y="34.084" fill="#8E8D8D" width="7.084" height="61.916"/>
	</g>
	<rect x="1058.938" y="14.75" fill="#8E8D8D" width="38.688" height="33.063"/>
	<rect x="1079" y="18.75" fill="#8E8D8D" width="20" height="15.875"/>
	<rect x="1057.5" y="19.5" fill="#8E8D8D" width="4.875" height="16.75"/>
	<rect x="1058.938" y="72.625" fill="#8E8D8D" width="144.729" height="24.75"/>
	<rect x="1064.667" y="93.167" fill="#8E8D8D" width="132.5" height="5.958"/>
</g>
</svg>
