<?xml version="1.0" encoding="utf-8"?>
<!-- Generator: Adobe Illustrator 16.0.0, SVG Export Plug-In . SVG Version: 6.00 Build 0)  -->
<!DOCTYPE svg PUBLIC "-//W3C//DTD SVG 1.1//EN" "http://www.w3.org/Graphics/SVG/1.1/DTD/svg11.dtd">
<svg version="1.1" id="图层_1" xmlns="http://www.w3.org/2000/svg" xmlns:xlink="http://www.w3.org/1999/xlink" x="0px" y="0px"
	 width="1275.59px" height="126.14px" viewBox="0 0 1275.59 126.14" enable-background="new 0 0 1275.59 126.14"
	 xml:space="preserve">
<rect y="0" fill="#5C5C5F" width="1275.592" height="126.141"/>
<polygon fill="#6D6D6D" points="1238.105,126.14 1236.166,126.14 1236.166,36.984 1272.957,0 1274.621,0 1238.105,37.636 "/>
<path fill="#1D1D1D" d="M1238.252,79.923v18.879c1.605,0,2.908-1.152,2.908-2.574v-13.73
	C1241.16,81.075,1239.857,79.923,1238.252,79.923z"/>
<polygon fill="#6C6C6C" points="37.485,126.142 39.425,126.142 39.425,36.984 2.634,0 0.971,0 37.485,37.636 "/>
<path fill="#1D1D1D" d="M37.341,79.923v18.881c-1.607,0-2.909-1.152-2.909-2.576V82.499C34.432,81.077,35.734,79.923,37.341,79.923z
	"/>
<rect y="0" fill="#6C6C6C" width="1275.592" height="2.779"/>
<g>
	<path fill="#AFAFAF" d="M1190.219,83.622c0,5.342-4.609,9.672-10.295,9.672c-5.688,0-10.297-4.33-10.297-9.672
		s4.609-9.672,10.297-9.672C1185.609,73.95,1190.219,78.28,1190.219,83.622"/>
	<ellipse fill="none" stroke="#949394" stroke-miterlimit="10" cx="1179.923" cy="83.622" rx="10.296" ry="9.672"/>
	<path fill="#AFAFAF" d="M1187.488,83.622c0,3.924-3.387,7.105-7.564,7.105s-7.566-3.182-7.566-7.105s3.389-7.105,7.566-7.105
		S1187.488,79.698,1187.488,83.622"/>
	<ellipse fill="none" stroke="#949394" stroke-miterlimit="10" cx="1179.923" cy="83.622" rx="7.565" ry="7.105"/>
	<g>
		<g>
			<defs>
				<rect id="SVGID_1_" x="1172.791" y="76.925" width="14.264" height="13.395"/>
			</defs>
			<clipPath id="SVGID_2_">
				<use xlink:href="#SVGID_1_"  overflow="visible"/>
			</clipPath>
			<path clip-path="url(#SVGID_2_)" fill="#BFBFBF" d="M1187.053,83.622c0,3.697-3.191,6.697-7.129,6.697
				c-3.939,0-7.131-3-7.131-6.697c0-3.699,3.191-6.697,7.131-6.697C1183.861,76.925,1187.053,79.923,1187.053,83.622"/>
			<path clip-path="url(#SVGID_2_)" fill="#C1C1C1" d="M1186.885,83.622c0,3.611-3.117,6.539-6.961,6.539
				c-3.846,0-6.963-2.928-6.963-6.539s3.117-6.541,6.963-6.541C1183.768,77.081,1186.885,80.011,1186.885,83.622"/>
			<path clip-path="url(#SVGID_2_)" fill="#C3C4C4" d="M1186.717,83.622c0,3.523-3.041,6.383-6.793,6.383
				c-3.754,0-6.795-2.859-6.795-6.383s3.041-6.385,6.795-6.385C1183.676,77.237,1186.717,80.099,1186.717,83.622"/>
			<path clip-path="url(#SVGID_2_)" fill="#C5C6C6" d="M1186.549,83.622c0,3.438-2.965,6.225-6.625,6.225
				c-3.662,0-6.627-2.787-6.627-6.225s2.965-6.225,6.627-6.225C1183.584,77.397,1186.549,80.185,1186.549,83.622"/>
			<path clip-path="url(#SVGID_2_)" fill="#C7C9C9" d="M1186.383,83.622c0,3.35-2.893,6.066-6.459,6.066
				c-3.568,0-6.459-2.717-6.459-6.066s2.891-6.068,6.459-6.068C1183.49,77.554,1186.383,80.272,1186.383,83.622"/>
			<path clip-path="url(#SVGID_2_)" fill="#CACBCB" d="M1186.215,83.622c0,3.264-2.816,5.91-6.291,5.91s-6.291-2.646-6.291-5.91
				s2.816-5.91,6.291-5.91S1186.215,80.358,1186.215,83.622"/>
			<path clip-path="url(#SVGID_2_)" fill="#CCCECE" d="M1186.047,83.622c0,3.176-2.742,5.752-6.123,5.752
				c-3.383,0-6.123-2.576-6.123-5.752c0-3.178,2.74-5.752,6.123-5.752C1183.305,77.87,1186.047,80.444,1186.047,83.622"/>
			<path clip-path="url(#SVGID_2_)" fill="#CED0D0" d="M1185.879,83.622c0,3.09-2.666,5.596-5.955,5.596s-5.957-2.506-5.957-5.596
				s2.668-5.596,5.957-5.596S1185.879,80.532,1185.879,83.622"/>
			<path clip-path="url(#SVGID_2_)" fill="#D1D3D3" d="M1185.711,83.622c0,3.002-2.59,5.438-5.787,5.438s-5.789-2.436-5.789-5.438
				s2.592-5.438,5.789-5.438S1185.711,80.62,1185.711,83.622"/>
			<path clip-path="url(#SVGID_2_)" fill="#D3D5D5" d="M1185.543,83.622c0,2.916-2.516,5.279-5.619,5.279
				c-3.105,0-5.621-2.363-5.621-5.279c0-2.914,2.516-5.277,5.621-5.277C1183.027,78.345,1185.543,80.708,1185.543,83.622"/>
		</g>
	</g>
	<polygon fill="#5F5F5E" points="1178.992,87.649 1178.992,84.497 1175.635,84.497 1175.635,82.747 1178.992,82.747 
		1178.992,79.595 1180.854,79.595 1180.854,82.747 1184.211,82.747 1184.211,84.497 1180.854,84.497 1180.854,87.649 	"/>
	<path fill="#231815" d="M1180.693,79.745v2.85v0.305h0.324h3.031v1.445h-3.031h-0.324v0.303v2.852h-1.541v-2.852v-0.303h-0.322
		h-3.033v-1.445h3.033h0.322v-0.305v-2.85H1180.693z M1181.018,79.444h-2.188v3.15h-3.354v2.053h3.354V87.8h2.188v-3.152h3.354
		v-2.053h-3.354V79.444z"/>
</g>
<g>
	<path fill="#AFAFAF" d="M762.902,96.729c0,3.314-2.803,6.002-6.262,6.002s-6.262-2.688-6.262-6.002s2.803-6.002,6.262-6.002
		S762.902,93.415,762.902,96.729"/>
	<ellipse fill="none" stroke="#949394" stroke-miterlimit="10" cx="756.641" cy="96.729" rx="6.262" ry="6.002"/>
	<path fill="#AFAFAF" d="M761.24,96.729c0,2.436-2.059,4.41-4.6,4.41s-4.6-1.975-4.6-4.41s2.059-4.41,4.6-4.41
		S761.24,94.294,761.24,96.729"/>
	<ellipse fill="none" stroke="#949394" stroke-miterlimit="10" cx="756.641" cy="96.729" rx="4.6" ry="4.41"/>
	<g>
		<g>
			<defs>
				<rect id="SVGID_3_" x="752.303" y="92.573" width="8.674" height="8.313"/>
			</defs>
			<clipPath id="SVGID_4_">
				<use xlink:href="#SVGID_3_"  overflow="visible"/>
			</clipPath>
			<path clip-path="url(#SVGID_4_)" fill="#BFBFBF" d="M760.977,96.729c0,2.295-1.941,4.156-4.336,4.156s-4.336-1.861-4.336-4.156
				s1.941-4.156,4.336-4.156S760.977,94.435,760.977,96.729"/>
			<path clip-path="url(#SVGID_4_)" fill="#C1C1C1" d="M760.875,96.729c0,2.24-1.896,4.059-4.234,4.059
				c-2.34,0-4.232-1.818-4.232-4.059s1.893-4.059,4.232-4.059C758.979,92.671,760.875,94.489,760.875,96.729"/>
			<path clip-path="url(#SVGID_4_)" fill="#C3C4C4" d="M760.771,96.729c0,2.188-1.85,3.961-4.131,3.961s-4.131-1.773-4.131-3.961
				c0-2.186,1.85-3.963,4.131-3.963S760.771,94.544,760.771,96.729"/>
			<path clip-path="url(#SVGID_4_)" fill="#C5C6C6" d="M760.67,96.729c0,2.133-1.803,3.863-4.029,3.863s-4.029-1.73-4.029-3.863
				s1.803-3.863,4.029-3.863S760.67,94.597,760.67,96.729"/>
			<path clip-path="url(#SVGID_4_)" fill="#C7C9C9" d="M760.568,96.729c0,2.08-1.758,3.766-3.928,3.766s-3.928-1.686-3.928-3.766
				c0-2.078,1.758-3.766,3.928-3.766S760.568,94.651,760.568,96.729"/>
			<path clip-path="url(#SVGID_4_)" fill="#CACBCB" d="M760.467,96.729c0,2.025-1.713,3.668-3.826,3.668s-3.826-1.643-3.826-3.668
				s1.713-3.668,3.826-3.668S760.467,94.704,760.467,96.729"/>
			<path clip-path="url(#SVGID_4_)" fill="#CCCECE" d="M760.363,96.729c0,1.971-1.666,3.57-3.723,3.57s-3.723-1.6-3.723-3.57
				c0-1.973,1.666-3.57,3.723-3.57S760.363,94.757,760.363,96.729"/>
			<path clip-path="url(#SVGID_4_)" fill="#CED0D0" d="M760.262,96.729c0,1.918-1.621,3.473-3.621,3.473s-3.623-1.555-3.623-3.473
				s1.623-3.473,3.623-3.473S760.262,94.812,760.262,96.729"/>
			<path clip-path="url(#SVGID_4_)" fill="#D1D3D3" d="M760.16,96.729c0,1.863-1.574,3.375-3.52,3.375
				c-1.943,0-3.52-1.512-3.52-3.375s1.576-3.373,3.52-3.373C758.586,93.356,760.16,94.866,760.16,96.729"/>
			<path clip-path="url(#SVGID_4_)" fill="#D3D5D5" d="M760.059,96.729c0,1.809-1.529,3.275-3.418,3.275s-3.418-1.467-3.418-3.275
				s1.529-3.275,3.418-3.275S760.059,94.921,760.059,96.729"/>
		</g>
	</g>
	<polygon fill="#5F5F5E" points="756.074,99.228 756.074,97.272 754.033,97.272 754.033,96.187 756.074,96.187 756.074,94.231 
		757.207,94.231 757.207,96.187 759.248,96.187 759.248,97.272 757.207,97.272 757.207,99.228 	"/>
	<path fill="#231815" d="M757.109,94.325v1.766v0.189h0.195h1.846v0.898h-1.846h-0.195v0.188v1.768h-0.938v-1.768v-0.188h-0.195
		h-1.846V96.28h1.846h0.195v-0.189v-1.766H757.109z M757.305,94.136h-1.328v1.955h-2.041v1.275h2.041v1.957h1.328v-1.957h2.041
		v-1.275h-2.041V94.136z"/>
</g>
<ellipse fill="#DBDBDB" cx="835.743" cy="63.435" rx="32.397" ry="28.669"/>
<g>
	<g>
		<polygon fill="#101010" points="780.863,38.283 786.969,35.162 793.078,38.283 793.078,44.525 786.969,47.646 780.863,44.525 		
			"/>
		<polygon fill="#101010" points="796.635,38.285 802.742,35.164 808.85,38.285 808.85,44.527 802.742,47.646 796.635,44.527 		"/>
		<polygon fill="#101010" points="812.408,38.285 818.514,35.164 824.623,38.285 824.623,44.527 818.514,47.648 812.408,44.527 		
			"/>
		<polygon fill="#101010" points="828.18,38.285 834.287,35.166 840.395,38.285 840.395,44.529 834.287,47.648 828.18,44.529 		"/>
		<polygon fill="#101010" points="843.953,38.287 850.059,35.166 856.168,38.287 856.168,44.529 850.059,47.65 843.953,44.529 		"/>
		<polygon fill="#101010" points="859.725,38.287 865.832,35.167 871.939,38.287 871.939,44.529 865.832,47.65 859.725,44.529 		"/>
		<polygon fill="#101010" points="875.498,38.289 881.604,35.167 887.713,38.289 887.713,44.531 881.604,47.652 875.498,44.531 		
			"/>
	</g>
	<g>
		<polygon fill="#101010" points="790.527,49.439 796.635,46.318 802.742,49.439 802.742,55.681 796.635,58.802 790.527,55.681 		
			"/>
		<polygon fill="#101010" points="806.299,49.439 812.406,46.318 818.516,49.439 818.516,55.681 812.406,58.802 806.299,55.681 		
			"/>
		<polygon fill="#101010" points="822.072,49.441 828.18,46.32 834.287,49.441 834.287,55.683 828.18,58.804 822.072,55.683 		"/>
		<polygon fill="#101010" points="837.846,49.441 843.951,46.32 850.061,49.441 850.061,55.683 843.951,58.804 837.846,55.683 		"/>
		<polygon fill="#101010" points="853.617,49.443 859.725,46.322 865.832,49.443 865.832,55.685 859.725,58.806 853.617,55.685 		
			"/>
		<polygon fill="#101010" points="869.389,49.443 875.496,46.324 881.605,49.443 881.605,55.685 875.496,58.806 869.389,55.685 		
			"/>
		<polygon fill="#101010" points="885.162,49.443 891.27,46.324 897.377,49.443 897.377,55.687 891.27,58.806 885.162,55.687 		"/>
	</g>
	<g>
		<polygon fill="#101010" points="780.863,60.308 786.969,57.187 793.078,60.308 793.078,66.55 786.969,69.671 780.863,66.55 		"/>
		<polygon fill="#101010" points="796.635,60.31 802.742,57.189 808.85,60.31 808.85,66.552 802.742,69.673 796.635,66.552 		"/>
		<polygon fill="#101010" points="812.408,60.31 818.514,57.189 824.623,60.31 824.623,66.552 818.514,69.673 812.408,66.552 		"/>
		<polygon fill="#101010" points="828.18,60.312 834.287,57.191 840.395,60.312 840.395,66.554 834.287,69.675 828.18,66.554 		"/>
		<polygon fill="#101010" points="843.953,60.312 850.059,57.191 856.168,60.312 856.168,66.554 850.059,69.675 843.953,66.554 		
			"/>
		<polygon fill="#101010" points="859.725,60.312 865.832,57.193 871.939,60.312 871.939,66.556 865.832,69.675 859.725,66.556 		
			"/>
		<polygon fill="#101010" points="875.498,60.314 881.604,57.193 887.713,60.314 887.713,66.556 881.604,69.677 875.498,66.556 		
			"/>
	</g>
	<g>
		<polygon fill="#101010" points="789.201,70.892 795.307,67.771 801.416,70.892 801.416,77.134 795.307,80.255 789.201,77.134 		
			"/>
		<polygon fill="#101010" points="804.973,70.892 811.08,67.772 817.188,70.892 817.188,77.136 811.08,80.255 804.973,77.136 		"/>
		<polygon fill="#101010" points="820.746,70.894 826.852,67.772 832.961,70.894 832.961,77.136 826.852,80.257 820.746,77.136 		
			"/>
		<polygon fill="#101010" points="836.518,70.894 842.625,67.772 848.732,70.894 848.732,77.136 842.625,80.257 836.518,77.136 		
			"/>
		<polygon fill="#101010" points="852.289,70.896 858.398,67.774 864.506,70.896 864.506,77.138 858.398,80.259 852.289,77.138 		
			"/>
		<polygon fill="#101010" points="868.063,70.896 874.17,67.776 880.277,70.896 880.277,77.138 874.17,80.259 868.063,77.138 		"/>
		<polygon fill="#101010" points="883.836,70.897 889.941,67.776 896.051,70.897 896.051,77.14 889.941,80.261 883.836,77.14 		"/>
	</g>
	<g>
		<polygon fill="#101010" points="780.863,82.19 786.969,79.069 793.078,82.19 793.078,88.433 786.969,91.554 780.863,88.433 		"/>
		<polygon fill="#101010" points="796.635,82.19 802.742,79.069 808.85,82.19 808.85,88.433 802.742,91.554 796.635,88.433 		"/>
		<polygon fill="#101010" points="812.408,82.192 818.514,79.071 824.623,82.192 824.623,88.435 818.514,91.556 812.408,88.435 		
			"/>
		<polygon fill="#101010" points="828.18,82.192 834.287,79.071 840.395,82.192 840.395,88.435 834.287,91.556 828.18,88.435 		"/>
		<polygon fill="#101010" points="843.953,82.192 850.059,79.073 856.168,82.192 856.168,88.437 850.059,91.556 843.953,88.437 		
			"/>
		<polygon fill="#101010" points="859.725,82.194 865.832,79.073 871.939,82.194 871.939,88.437 865.832,91.558 859.725,88.437 		
			"/>
		<polygon fill="#101010" points="875.498,82.194 881.604,79.073 887.713,82.194 887.713,88.437 881.604,91.558 875.498,88.437 		
			"/>
	</g>
	<g>
		<polygon fill="#101010" points="806.984,26.554 813.092,23.433 819.199,26.554 819.199,32.796 813.092,35.917 806.984,32.796 		
			"/>
		<polygon fill="#101010" points="821.166,26.554 827.271,23.433 833.381,26.554 833.381,32.796 827.271,35.917 821.166,32.796 		
			"/>
		<polygon fill="#101010" points="835.346,26.552 841.453,23.433 847.561,26.552 847.561,32.796 841.453,35.916 835.346,32.796 		
			"/>
		<polygon fill="#101010" points="849.527,26.552 855.635,23.431 861.742,26.552 861.742,32.794 855.635,35.916 849.527,32.794 		
			"/>
		<polygon fill="#101010" points="863.709,26.552 869.814,23.431 875.924,26.552 875.924,32.794 869.814,35.916 863.709,32.794 		
			"/>
	</g>
	<polygon fill="#101010" points="789.201,93.345 795.307,90.226 801.416,93.345 801.416,99.589 795.307,102.708 789.201,99.589 	"/>
	<polygon fill="#101010" points="804.838,93.345 810.943,90.224 817.053,93.345 817.053,99.587 810.943,102.708 804.838,99.587 	"/>
	<polygon fill="#101010" points="820.473,93.345 826.58,90.224 832.688,93.345 832.688,99.587 826.58,102.708 820.473,99.587 	"/>
	<polygon fill="#101010" points="836.109,93.343 842.217,90.222 848.324,93.343 848.324,99.585 842.217,102.706 836.109,99.585 	"/>
	<polygon fill="#101010" points="851.746,93.343 857.854,90.222 863.963,93.343 863.963,99.585 857.854,102.706 851.746,99.585 	"/>
</g>
<path fill="#070606" d="M316.451,98.683c0,0.521-0.456,0.945-1.02,0.945H238.44c-0.563,0-1.021-0.424-1.021-0.945V78.597
	c0-0.523,0.457-0.945,1.021-0.945h76.991c0.563,0,1.02,0.422,1.02,0.945V98.683z"/>
<path fill="#79AD7F" d="M314.512,97.485c0,0.473-0.434,0.857-0.97,0.857h-73.213c-0.535,0-0.97-0.385-0.97-0.857V79.249
	c0-0.475,0.435-0.857,0.97-0.857h73.213c0.536,0,0.97,0.383,0.97,0.857V97.485z"/>
<rect x="266.269" y="75.499" fill="#1D1D1D" width="21.334" height="2.152"/>
<rect x="245.622" y="78.39" fill="#68906B" width="5.172" height="2.832"/>
<rect x="303.805" y="78.39" fill="#68906B" width="5.172" height="2.832"/>
<rect x="252.572" y="81.222" fill="#5A7A5C" width="49.293" height="14.016"/>
<ellipse fill="#5A7A5C" cx="261.459" cy="94.45" rx="6.626" ry="2.359"/>
<ellipse fill="#5A7A5C" cx="277.219" cy="94.45" rx="6.626" ry="2.359"/>
<ellipse fill="#5A7A5C" cx="292.979" cy="94.45" rx="6.626" ry="2.359"/>
<ellipse fill="#324633" cx="245.622" cy="88.944" rx="4.362" ry="3.859"/>
<ellipse fill="#324633" cx="308.167" cy="88.944" rx="4.362" ry="3.859"/>
<g>
	<rect x="258.474" y="87.667" fill="#324633" width="4.842" height="1.457"/>
	<ellipse fill="#A3A3A3" cx="263.315" cy="88.394" rx="1.162" ry="1.029"/>
</g>
<g>
	<rect x="274.057" y="87.503" fill="#324633" width="4.841" height="1.455"/>
	<ellipse fill="#A3A3A3" cx="278.897" cy="88.229" rx="1.162" ry="1.027"/>
</g>
<g>
	<rect x="289.639" y="87.337" fill="#324633" width="4.841" height="1.457"/>
	<ellipse fill="#A3A3A3" cx="294.479" cy="88.065" rx="1.162" ry="1.027"/>
</g>
<g>
	<path fill="#A3A3A3" d="M243.917,91.415c-0.347,0.307-0.91,0.307-1.256,0l0,0c-0.348-0.307-0.348-0.805-0.001-1.113l4.666-4.129
		c0.348-0.305,0.91-0.305,1.257,0l0,0c0.347,0.309,0.347,0.807,0,1.113L243.917,91.415z"/>
	<path fill="#EAEAEA" d="M243.616,91.167c-0.347,0.307-0.882,0.33-1.197,0.053l0,0c-0.314-0.279-0.288-0.752,0.059-1.059
		l4.666-4.129c0.347-0.309,0.883-0.332,1.198-0.055l0,0c0.314,0.279,0.288,0.754-0.06,1.061L243.616,91.167z"/>
</g>
<g>
	<path fill="#A3A3A3" d="M306.563,91.415c-0.348,0.307-0.91,0.307-1.257-0.002l0,0c-0.347-0.307-0.347-0.803,0-1.111l4.666-4.129
		c0.348-0.307,0.91-0.307,1.257,0l0,0c0.348,0.307,0.348,0.805,0,1.111L306.563,91.415z"/>
	<path fill="#EAEAEA" d="M306.261,91.167c-0.347,0.307-0.883,0.33-1.197,0.051l0,0c-0.314-0.277-0.288-0.75,0.059-1.059l4.666-4.129
		c0.348-0.307,0.883-0.33,1.198-0.053l0,0c0.314,0.279,0.288,0.752-0.06,1.059L306.261,91.167z"/>
</g>
<rect x="259.685" y="42.455" fill="#C4C4C4" width="1.21" height="32.289"/>
<rect x="275.644" y="42.455" fill="#C4C4C4" width="1.21" height="32.289"/>
<rect x="291.603" y="42.455" fill="#C4C4C4" width="1.21" height="32.289"/>
<rect x="258.23" y="34.625" fill="#C4C4C4" width="5.084" height="0.537"/>
<rect x="273.706" y="34.357" fill="#C4C4C4" width="5.085" height="0.537"/>
<rect x="260.469" y="32.642" fill="#C4C4C4" width="0.606" height="4.502"/>
<text transform="matrix(1.13 0 0 1 285.7285 36.7046)" fill="#C4C4C4" font-family="'NotoSansHans-Black-GBpc-EUC-H'" font-size="4.6757">NULL</text>
<path fill="#040000" d="M108.711,79.31c0,3.318-3.04,6.008-6.788,6.008H82.96c-3.749,0-6.788-2.689-6.788-6.008v-4.703
	c0-3.318,3.039-6.008,6.788-6.008h18.962c3.749,0,6.788,2.689,6.788,6.008V79.31z"/>
<path fill="#040000" d="M229.009,79.31c0,3.318-3.039,6.008-6.788,6.008h-18.962c-3.749,0-6.788-2.689-6.788-6.008v-4.703
	c0-3.318,3.039-6.008,6.788-6.008h18.962c3.749,0,6.788,2.689,6.788,6.008V79.31z"/>
<g>
	<g>
		<path fill="#262626" d="M62.527,76.577c0,4.391-3.567,7.947-7.968,7.947s-7.968-3.557-7.968-7.947
			c0-4.389,3.567-7.949,7.968-7.949S62.527,72.188,62.527,76.577"/>
		
			<ellipse fill="none" stroke="#131313" stroke-width="0.75" stroke-miterlimit="10" cx="54.56" cy="76.577" rx="7.968" ry="7.947"/>
		<polygon fill="#040000" points="53.575,81.085 53.575,77.56 50.041,77.56 50.041,75.595 53.575,75.595 53.575,72.069 
			55.544,72.069 55.544,75.595 59.079,75.595 59.079,77.56 55.544,77.56 55.544,81.085 		"/>
		<path fill="#231815" d="M55.378,72.235v3.193v0.33h0.332h3.203v1.635H55.71h-0.332v0.33v3.195h-1.636v-3.195v-0.33h-0.333h-3.202
			v-1.635h3.202h0.333v-0.33v-3.193H55.378z M55.71,71.903h-2.301v3.525h-3.535v2.295h3.535v3.527h2.301v-3.527h3.534v-2.295H55.71
			V71.903z"/>
	</g>
	<rect x="53.408" y="71.903" fill="#6F6C72" width="0.333" height="3.855"/>
	<rect x="53.408" y="71.903" fill="#6F6C72" width="2.302" height="0.332"/>
	<rect x="49.874" y="75.429" fill="#6F6C72" width="3.865" height="0.33"/>
</g>
<polygon fill="#1D1D1D" points="36.515,126.142 38.455,126.142 38.455,36.984 1.663,0 0,0 36.515,37.636 "/>
<polygon fill="#1D1D1D" points="1239.076,126.14 1237.137,126.14 1237.137,36.984 1273.928,0 1275.592,0 1239.076,37.636 "/>
<g>
	<g>
		<path fill="#C6C6C6" d="M1180.832,59.601c-6.313,0-11.449-5.136-11.449-11.448s5.137-11.448,11.449-11.448
			s11.447,5.136,11.447,11.448S1187.145,59.601,1180.832,59.601z M1180.832,38.205c-5.486,0-9.949,4.463-9.949,9.948
			s4.463,9.948,9.949,9.948c5.484,0,9.947-4.463,9.947-9.948S1186.316,38.205,1180.832,38.205z"/>
	</g>
	<g>
		<path fill="#C6C6C6" d="M1181.09,48.401c0,0.431-0.262,0.778-0.584,0.778l0,0c-0.322,0-0.582-0.348-0.582-0.778v-6.484
			c0-0.43,0.26-0.777,0.582-0.777l0,0c0.322,0,0.584,0.348,0.584,0.777V48.401z"/>
		<path fill="#C6C6C6" d="M1186.018,48.983c0,0.232-0.188,0.421-0.422,0.421h-10.18c-0.232,0-0.42-0.188-0.42-0.421l0,0
			c0-0.232,0.188-0.421,0.42-0.421h10.18C1185.83,48.562,1186.018,48.75,1186.018,48.983L1186.018,48.983z"/>
		<path fill="#C6C6C6" d="M1185.078,50.896c0,0.232-0.156,0.421-0.35,0.421h-8.443c-0.193,0-0.35-0.188-0.35-0.421l0,0
			c0-0.232,0.156-0.421,0.35-0.421h8.443C1184.922,50.475,1185.078,50.664,1185.078,50.896L1185.078,50.896z"/>
		<path fill="#C6C6C6" d="M1183.879,52.53c0,0.232-0.115,0.421-0.258,0.421h-6.229c-0.143,0-0.258-0.188-0.258-0.421l0,0
			c0-0.232,0.115-0.421,0.258-0.421h6.229C1183.764,52.109,1183.879,52.297,1183.879,52.53L1183.879,52.53z"/>
	</g>
</g>
</svg>
