<?xml version="1.0" encoding="utf-8"?>
<!-- Generator: Adobe Illustrator 16.0.0, SVG Export Plug-In . SVG Version: 6.00 Build 0)  -->
<!DOCTYPE svg PUBLIC "-//W3C//DTD SVG 1.1//EN" "http://www.w3.org/Graphics/SVG/1.1/DTD/svg11.dtd">
<svg version="1.1" id="图层_1" xmlns="http://www.w3.org/2000/svg" xmlns:xlink="http://www.w3.org/1999/xlink" x="0px" y="0px"
	 width="1275.59px" height="126.14px" viewBox="0 0 1275.59 126.14" enable-background="new 0 0 1275.59 126.14"
	 xml:space="preserve">
<rect fill="#474747" width="1275.589" height="126.143"/>
<g>
	<path fill="#AFAEAE" d="M341.522,57.25c0,6.405-5.198,11.598-11.61,11.598s-11.61-5.193-11.61-11.598
		c0-6.406,5.199-11.6,11.61-11.6S341.522,50.844,341.522,57.25"/>
	<ellipse fill="none" stroke="#929292" stroke-miterlimit="10" cx="329.912" cy="57.25" rx="11.61" ry="11.598"/>
	<path fill="#AFAEAE" d="M338.443,57.25c0,4.706-3.82,8.521-8.53,8.521c-4.711,0-8.53-3.816-8.53-8.521
		c0-4.708,3.819-8.523,8.53-8.523C334.623,48.727,338.443,52.542,338.443,57.25"/>
	<ellipse fill="none" stroke="#929292" stroke-miterlimit="10" cx="329.913" cy="57.25" rx="8.53" ry="8.521"/>
	<g>
		<g>
			<defs>
				<rect id="SVGID_1_" x="321.87" y="49.217" width="16.083" height="16.063"/>
			</defs>
			<clipPath id="SVGID_2_">
				<use xlink:href="#SVGID_1_"  overflow="visible"/>
			</clipPath>
			<path clip-path="url(#SVGID_2_)" fill="#BEBEBD" d="M337.952,57.25c0,4.434-3.599,8.029-8.039,8.029s-8.04-3.595-8.04-8.029
				c0-4.437,3.6-8.033,8.04-8.033S337.952,52.813,337.952,57.25"/>
			<path clip-path="url(#SVGID_2_)" fill="#C0C0C0" d="M337.763,57.25c0,4.331-3.515,7.842-7.85,7.842
				c-4.336,0-7.85-3.511-7.85-7.842c0-4.332,3.514-7.844,7.85-7.844C334.248,49.406,337.763,52.918,337.763,57.25"/>
			<path clip-path="url(#SVGID_2_)" fill="#C2C3C3" d="M337.574,57.25c0,4.225-3.43,7.652-7.661,7.652
				c-4.231,0-7.661-3.427-7.661-7.652c0-4.229,3.43-7.655,7.661-7.655C334.144,49.595,337.574,53.021,337.574,57.25"/>
			<path clip-path="url(#SVGID_2_)" fill="#C4C5C4" d="M337.385,57.25c0,4.122-3.345,7.465-7.472,7.465
				c-4.127,0-7.473-3.343-7.473-7.465c0-4.124,3.346-7.466,7.473-7.466C334.04,49.784,337.385,53.126,337.385,57.25"/>
			<path clip-path="url(#SVGID_2_)" fill="#C6C8C8" d="M337.196,57.25c0,4.016-3.262,7.275-7.283,7.275
				c-4.022,0-7.283-3.259-7.283-7.275c0-4.02,3.26-7.278,7.283-7.278C333.934,49.972,337.196,53.23,337.196,57.25"/>
			<path clip-path="url(#SVGID_2_)" fill="#C9CACB" d="M337.006,57.25c0,3.913-3.175,7.086-7.094,7.086s-7.094-3.173-7.094-7.086
				c0-3.915,3.176-7.089,7.094-7.089S337.006,53.335,337.006,57.25"/>
			<path clip-path="url(#SVGID_2_)" fill="#CBCDCD" d="M336.818,57.25c0,3.809-3.092,6.898-6.906,6.898
				c-3.814,0-6.904-3.089-6.904-6.898c0-3.811,3.09-6.901,6.904-6.901C333.726,50.349,336.818,53.439,336.818,57.25"/>
			<path clip-path="url(#SVGID_2_)" fill="#CCCFD0" d="M336.628,57.25c0,3.704-3.007,6.709-6.716,6.709
				c-3.708,0-6.716-3.006-6.716-6.709c0-3.707,3.008-6.71,6.716-6.71C333.621,50.54,336.628,53.543,336.628,57.25"/>
			<path clip-path="url(#SVGID_2_)" fill="#D0D2D2" d="M336.439,57.25c0,3.6-2.922,6.52-6.527,6.52c-3.605,0-6.527-2.92-6.527-6.52
				c0-3.603,2.922-6.522,6.527-6.522C333.517,50.728,336.439,53.647,336.439,57.25"/>
			<path clip-path="url(#SVGID_2_)" fill="#D2D4D5" d="M336.25,57.25c0,3.495-2.838,6.331-6.338,6.331
				c-3.5,0-6.338-2.835-6.338-6.331c0-3.498,2.837-6.332,6.338-6.332C333.412,50.918,336.25,53.752,336.25,57.25"/>
		</g>
	</g>
	<polygon fill="#605F5E" points="328.862,62.079 328.862,58.299 325.079,58.299 325.079,56.2 328.862,56.2 328.862,52.42 
		330.963,52.42 330.963,56.2 334.747,56.2 334.747,58.299 330.963,58.299 330.963,62.079 	"/>
	<path fill="#221714" d="M330.781,52.602v3.415v0.365h0.364h3.419v1.734h-3.419h-0.364v0.363v3.416h-1.737v-3.416v-0.363h-0.364
		h-3.42v-1.734h3.42h0.364v-0.365v-3.415H330.781z M331.145,52.238h-2.465v3.778h-3.783v2.463h3.783v3.779h2.465v-3.779h3.782
		v-2.463h-3.782V52.238z"/>
</g>
<g>
	<path fill="#AFAEAE" d="M342.039,101.24c0,6.404-5.197,11.598-11.609,11.598s-11.61-5.193-11.61-11.598
		c0-6.406,5.198-11.6,11.61-11.6S342.039,94.834,342.039,101.24"/>
	<ellipse fill="none" stroke="#929292" stroke-miterlimit="10" cx="330.429" cy="101.24" rx="11.61" ry="11.598"/>
	<path fill="#AFAEAE" d="M338.959,101.24c0,4.705-3.819,8.521-8.53,8.521s-8.53-3.816-8.53-8.521c0-4.709,3.819-8.523,8.53-8.523
		S338.959,96.531,338.959,101.24"/>
	<ellipse fill="none" stroke="#929292" stroke-miterlimit="10" cx="330.429" cy="101.24" rx="8.53" ry="8.521"/>
	<g>
		<g>
			<defs>
				<rect id="SVGID_3_" x="322.387" y="93.207" width="16.083" height="16.063"/>
			</defs>
			<clipPath id="SVGID_4_">
				<use xlink:href="#SVGID_3_"  overflow="visible"/>
			</clipPath>
			<path clip-path="url(#SVGID_4_)" fill="#BEBEBD" d="M338.468,101.24c0,4.434-3.599,8.029-8.039,8.029
				c-4.44,0-8.04-3.596-8.04-8.029c0-4.438,3.6-8.033,8.04-8.033C334.869,93.207,338.468,96.803,338.468,101.24"/>
			<path clip-path="url(#SVGID_4_)" fill="#C0C0C0" d="M338.279,101.24c0,4.33-3.515,7.842-7.85,7.842
				c-4.336,0-7.851-3.512-7.851-7.842c0-4.332,3.515-7.844,7.851-7.844C334.764,93.396,338.279,96.908,338.279,101.24"/>
			<path clip-path="url(#SVGID_4_)" fill="#C2C3C3" d="M338.09,101.24c0,4.225-3.431,7.652-7.661,7.652
				c-4.231,0-7.661-3.428-7.661-7.652c0-4.229,3.43-7.656,7.661-7.656C334.66,93.584,338.09,97.012,338.09,101.24"/>
			<path clip-path="url(#SVGID_4_)" fill="#C4C5C4" d="M337.901,101.24c0,4.121-3.345,7.465-7.472,7.465s-7.473-3.344-7.473-7.465
				c0-4.125,3.346-7.467,7.473-7.467S337.901,97.115,337.901,101.24"/>
			<path clip-path="url(#SVGID_4_)" fill="#C6C8C8" d="M337.712,101.24c0,4.016-3.262,7.275-7.283,7.275
				c-4.022,0-7.283-3.26-7.283-7.275c0-4.02,3.261-7.279,7.283-7.279C334.451,93.961,337.712,97.221,337.712,101.24"/>
			<path clip-path="url(#SVGID_4_)" fill="#C9CACB" d="M337.523,101.24c0,3.912-3.176,7.086-7.094,7.086
				c-3.918,0-7.094-3.174-7.094-7.086c0-3.916,3.176-7.09,7.094-7.09C334.347,94.15,337.523,97.324,337.523,101.24"/>
			<path clip-path="url(#SVGID_4_)" fill="#CBCDCD" d="M337.334,101.24c0,3.809-3.092,6.898-6.905,6.898
				c-3.814,0-6.904-3.09-6.904-6.898c0-3.811,3.09-6.902,6.904-6.902C334.242,94.338,337.334,97.43,337.334,101.24"/>
			<path clip-path="url(#SVGID_4_)" fill="#CCCFD0" d="M337.145,101.24c0,3.703-3.007,6.709-6.716,6.709s-6.717-3.006-6.717-6.709
				c0-3.707,3.008-6.711,6.717-6.711S337.145,97.533,337.145,101.24"/>
			<path clip-path="url(#SVGID_4_)" fill="#D0D2D2" d="M336.956,101.24c0,3.6-2.922,6.52-6.527,6.52c-3.605,0-6.527-2.92-6.527-6.52
				c0-3.604,2.922-6.523,6.527-6.523C334.034,94.717,336.956,97.637,336.956,101.24"/>
			<path clip-path="url(#SVGID_4_)" fill="#D2D4D5" d="M336.767,101.24c0,3.494-2.838,6.33-6.337,6.33
				c-3.501,0-6.338-2.836-6.338-6.33c0-3.498,2.837-6.332,6.338-6.332C333.928,94.908,336.767,97.742,336.767,101.24"/>
		</g>
	</g>
	<polygon fill="#605F5E" points="329.378,106.068 329.378,102.289 325.595,102.289 325.595,100.189 329.378,100.189 329.378,96.41 
		331.479,96.41 331.479,100.189 335.263,100.189 335.263,102.289 331.479,102.289 331.479,106.068 	"/>
	<path fill="#221714" d="M331.297,96.592v3.414v0.365h0.364h3.42v1.734h-3.42h-0.364v0.363v3.416h-1.736v-3.416v-0.363h-0.364h-3.42
		v-1.734h3.42h0.364v-0.365v-3.414H331.297z M331.661,96.229h-2.464v3.777h-3.783v2.463h3.783v3.779h2.464v-3.779h3.783v-2.463
		h-3.783V96.229z"/>
</g>
<g>
	<g>
		<path fill="#AFAEAE" d="M676.505,57.25c0,6.405-5.197,11.598-11.609,11.598c-6.411,0-11.61-5.193-11.61-11.598
			c0-6.406,5.199-11.6,11.61-11.6C671.308,45.65,676.505,50.844,676.505,57.25"/>
		<ellipse fill="none" stroke="#929292" stroke-miterlimit="10" cx="664.895" cy="57.25" rx="11.61" ry="11.598"/>
		<path fill="#AFAEAE" d="M673.425,57.25c0,4.706-3.818,8.521-8.529,8.521c-4.71,0-8.53-3.816-8.53-8.521
			c0-4.708,3.82-8.523,8.53-8.523C669.606,48.727,673.425,52.542,673.425,57.25"/>
		<ellipse fill="none" stroke="#929292" stroke-miterlimit="10" cx="664.895" cy="57.25" rx="8.53" ry="8.521"/>
		<g>
			<g>
				<defs>
					<rect id="SVGID_5_" x="656.854" y="49.217" width="16.083" height="16.063"/>
				</defs>
				<clipPath id="SVGID_6_">
					<use xlink:href="#SVGID_5_"  overflow="visible"/>
				</clipPath>
				<path clip-path="url(#SVGID_6_)" fill="#BEBEBD" d="M672.935,57.25c0,4.434-3.599,8.029-8.039,8.029s-8.04-3.595-8.04-8.029
					c0-4.437,3.6-8.033,8.04-8.033S672.935,52.813,672.935,57.25"/>
				<path clip-path="url(#SVGID_6_)" fill="#C0C0C0" d="M672.746,57.25c0,4.331-3.516,7.842-7.851,7.842
					c-4.336,0-7.851-3.511-7.851-7.842c0-4.332,3.515-7.844,7.851-7.844C669.23,49.406,672.746,52.918,672.746,57.25"/>
				<path clip-path="url(#SVGID_6_)" fill="#C2C3C3" d="M672.557,57.25c0,4.225-3.43,7.652-7.661,7.652s-7.661-3.427-7.661-7.652
					c0-4.229,3.43-7.655,7.661-7.655S672.557,53.021,672.557,57.25"/>
				<path clip-path="url(#SVGID_6_)" fill="#C4C5C4" d="M672.368,57.25c0,4.122-3.345,7.465-7.473,7.465
					c-4.127,0-7.472-3.343-7.472-7.465c0-4.124,3.345-7.466,7.472-7.466C669.023,49.784,672.368,53.126,672.368,57.25"/>
				<path clip-path="url(#SVGID_6_)" fill="#C6C8C8" d="M672.179,57.25c0,4.016-3.262,7.275-7.283,7.275
					c-4.022,0-7.282-3.259-7.282-7.275c0-4.02,3.26-7.278,7.282-7.278C668.917,49.972,672.179,53.23,672.179,57.25"/>
				<path clip-path="url(#SVGID_6_)" fill="#C9CACB" d="M671.989,57.25c0,3.913-3.175,7.086-7.094,7.086s-7.095-3.173-7.095-7.086
					c0-3.915,3.176-7.089,7.095-7.089S671.989,53.335,671.989,57.25"/>
				<path clip-path="url(#SVGID_6_)" fill="#CBCDCD" d="M671.802,57.25c0,3.809-3.093,6.898-6.906,6.898s-6.904-3.089-6.904-6.898
					c0-3.811,3.091-6.901,6.904-6.901S671.802,53.439,671.802,57.25"/>
				<path clip-path="url(#SVGID_6_)" fill="#CCCFD0" d="M671.611,57.25c0,3.704-3.007,6.709-6.716,6.709
					c-3.708,0-6.716-3.006-6.716-6.709c0-3.707,3.008-6.71,6.716-6.71C668.604,50.54,671.611,53.543,671.611,57.25"/>
				<path clip-path="url(#SVGID_6_)" fill="#D0D2D2" d="M671.422,57.25c0,3.6-2.922,6.52-6.526,6.52s-6.526-2.92-6.526-6.52
					c0-3.603,2.922-6.522,6.526-6.522S671.422,53.647,671.422,57.25"/>
				<path clip-path="url(#SVGID_6_)" fill="#D2D4D5" d="M671.232,57.25c0,3.495-2.838,6.331-6.337,6.331
					c-3.501,0-6.338-2.835-6.338-6.331c0-3.498,2.837-6.332,6.338-6.332C668.395,50.918,671.232,53.752,671.232,57.25"/>
			</g>
		</g>
		<polygon fill="#605F5E" points="663.846,62.079 663.846,58.299 660.061,58.299 660.061,56.2 663.846,56.2 663.846,52.42 
			665.945,52.42 665.945,56.2 669.73,56.2 669.73,58.299 665.945,58.299 665.945,62.079 		"/>
		<path fill="#221714" d="M665.764,52.602v3.415v0.365h0.363h3.42v1.734h-3.42h-0.363v0.363v3.416h-1.736v-3.416v-0.363h-0.363
			h-3.421v-1.734h3.421h0.363v-0.365v-3.415H665.764z M666.127,52.238h-2.463v3.778h-3.784v2.463h3.784v3.779h2.463v-3.779h3.783
			v-2.463h-3.783V52.238z"/>
	</g>
	<g>
		<path fill="#AFAEAE" d="M677.022,101.24c0,6.404-5.199,11.598-11.61,11.598c-6.412,0-11.609-5.193-11.609-11.598
			c0-6.406,5.197-11.6,11.609-11.6C671.823,89.641,677.022,94.834,677.022,101.24"/>
		<ellipse fill="none" stroke="#929292" stroke-miterlimit="10" cx="665.413" cy="101.24" rx="11.61" ry="11.598"/>
		<path fill="#AFAEAE" d="M673.942,101.24c0,4.705-3.819,8.521-8.53,8.521s-8.531-3.816-8.531-8.521c0-4.709,3.82-8.523,8.531-8.523
			S673.942,96.531,673.942,101.24"/>
		<ellipse fill="none" stroke="#929292" stroke-miterlimit="10" cx="665.412" cy="101.24" rx="8.531" ry="8.521"/>
		<g>
			<g>
				<defs>
					<rect id="SVGID_7_" x="657.369" y="93.207" width="16.084" height="16.063"/>
				</defs>
				<clipPath id="SVGID_8_">
					<use xlink:href="#SVGID_7_"  overflow="visible"/>
				</clipPath>
				<path clip-path="url(#SVGID_8_)" fill="#BEBEBD" d="M673.452,101.24c0,4.434-3.601,8.029-8.04,8.029
					c-4.44,0-8.04-3.596-8.04-8.029c0-4.438,3.6-8.033,8.04-8.033C669.852,93.207,673.452,96.803,673.452,101.24"/>
				<path clip-path="url(#SVGID_8_)" fill="#C0C0C0" d="M673.263,101.24c0,4.33-3.516,7.842-7.851,7.842
					c-4.336,0-7.85-3.512-7.85-7.842c0-4.332,3.514-7.844,7.85-7.844C669.747,93.396,673.263,96.908,673.263,101.24"/>
				<path clip-path="url(#SVGID_8_)" fill="#C2C3C3" d="M673.073,101.24c0,4.225-3.431,7.652-7.661,7.652
					c-4.231,0-7.662-3.428-7.662-7.652c0-4.229,3.431-7.656,7.662-7.656C669.643,93.584,673.073,97.012,673.073,101.24"/>
				<path clip-path="url(#SVGID_8_)" fill="#C4C5C4" d="M672.884,101.24c0,4.121-3.345,7.465-7.472,7.465s-7.473-3.344-7.473-7.465
					c0-4.125,3.346-7.467,7.473-7.467S672.884,97.115,672.884,101.24"/>
				<path clip-path="url(#SVGID_8_)" fill="#C6C8C8" d="M672.696,101.24c0,4.016-3.263,7.275-7.284,7.275
					c-4.022,0-7.283-3.26-7.283-7.275c0-4.02,3.261-7.279,7.283-7.279C669.434,93.961,672.696,97.221,672.696,101.24"/>
				<path clip-path="url(#SVGID_8_)" fill="#C9CACB" d="M672.506,101.24c0,3.912-3.176,7.086-7.094,7.086s-7.094-3.174-7.094-7.086
					c0-3.916,3.176-7.09,7.094-7.09S672.506,97.324,672.506,101.24"/>
				<path clip-path="url(#SVGID_8_)" fill="#CBCDCD" d="M672.317,101.24c0,3.809-3.092,6.898-6.905,6.898
					c-3.814,0-6.904-3.09-6.904-6.898c0-3.811,3.09-6.902,6.904-6.902C669.226,94.338,672.317,97.43,672.317,101.24"/>
				<path clip-path="url(#SVGID_8_)" fill="#CCCFD0" d="M672.128,101.24c0,3.703-3.007,6.709-6.716,6.709s-6.717-3.006-6.717-6.709
					c0-3.707,3.008-6.711,6.717-6.711S672.128,97.533,672.128,101.24"/>
				<path clip-path="url(#SVGID_8_)" fill="#D0D2D2" d="M671.938,101.24c0,3.6-2.922,6.52-6.526,6.52
					c-3.605,0-6.527-2.92-6.527-6.52c0-3.604,2.922-6.523,6.527-6.523C669.017,94.717,671.938,97.637,671.938,101.24"/>
				<path clip-path="url(#SVGID_8_)" fill="#D2D4D5" d="M671.75,101.24c0,3.494-2.838,6.33-6.338,6.33s-6.338-2.836-6.338-6.33
					c0-3.498,2.838-6.332,6.338-6.332S671.75,97.742,671.75,101.24"/>
			</g>
		</g>
		<polygon fill="#605F5E" points="664.361,106.068 664.361,102.289 660.578,102.289 660.578,100.189 664.361,100.189 664.361,96.41 
			666.463,96.41 666.463,100.189 670.246,100.189 670.246,102.289 666.463,102.289 666.463,106.068 		"/>
		<path fill="#221714" d="M666.281,96.592v3.414v0.365h0.363h3.42v1.734h-3.42h-0.363v0.363v3.416h-1.736v-3.416v-0.363h-0.365
			h-3.42v-1.734h3.42h0.365v-0.365v-3.414H666.281z M666.645,96.229h-2.465v3.777h-3.783v2.463h3.783v3.779h2.465v-3.779h3.782
			v-2.463h-3.782V96.229z"/>
	</g>
</g>
<path fill="#585959" stroke="#A4A4A4" stroke-miterlimit="10" d="M308.846,113.324c0,2.301-1.764,4.166-3.939,4.166H12.138
	c-2.176,0-3.939-1.865-3.939-4.166V10.656c0-2.301,1.764-4.166,3.939-4.166h292.769c2.175,0,3.939,1.865,3.939,4.166V113.324z"/>
<g>
	<path fill="#AFAEAE" d="M36.322,52.612c0,5.929-4.811,10.736-10.746,10.736S14.83,58.541,14.83,52.612
		c0-5.93,4.812-10.737,10.747-10.737S36.322,46.683,36.322,52.612"/>
	<ellipse fill="none" stroke="#929292" stroke-miterlimit="10" cx="25.576" cy="52.612" rx="10.746" ry="10.736"/>
	<path fill="#AFAEAE" d="M33.472,52.612c0,4.355-3.536,7.889-7.896,7.889c-4.361,0-7.896-3.533-7.896-7.889
		c0-4.357,3.535-7.89,7.896-7.89C29.936,44.723,33.472,48.255,33.472,52.612"/>
	<ellipse fill="none" stroke="#929292" stroke-miterlimit="10" cx="25.576" cy="52.612" rx="7.896" ry="7.889"/>
	<g>
		<g>
			<defs>
				<rect id="SVGID_9_" x="18.131" y="45.177" width="14.888" height="14.869"/>
			</defs>
			<clipPath id="SVGID_10_">
				<use xlink:href="#SVGID_9_"  overflow="visible"/>
			</clipPath>
			<path clip-path="url(#SVGID_10_)" fill="#BEBEBD" d="M33.018,52.612c0,4.104-3.332,7.434-7.441,7.434
				c-4.111,0-7.442-3.329-7.442-7.434c0-4.106,3.332-7.436,7.442-7.436C29.686,45.177,33.018,48.506,33.018,52.612"/>
			<path clip-path="url(#SVGID_10_)" fill="#C0C0C0" d="M32.842,52.612c0,4.008-3.253,7.258-7.266,7.258
				c-4.014,0-7.267-3.25-7.267-7.258c0-4.011,3.253-7.261,7.267-7.261C29.589,45.352,32.842,48.602,32.842,52.612"/>
			<path clip-path="url(#SVGID_10_)" fill="#C2C3C3" d="M32.667,52.612c0,3.911-3.175,7.085-7.091,7.085
				c-3.917,0-7.092-3.174-7.092-7.085c0-3.914,3.175-7.086,7.092-7.086C29.492,45.526,32.667,48.698,32.667,52.612"/>
			<path clip-path="url(#SVGID_10_)" fill="#C4C5C4" d="M32.492,52.612c0,3.814-3.096,6.909-6.916,6.909s-6.917-3.095-6.917-6.909
				c0-3.817,3.097-6.91,6.917-6.91S32.492,48.795,32.492,52.612"/>
			<path clip-path="url(#SVGID_10_)" fill="#C6C8C8" d="M32.317,52.612c0,3.718-3.019,6.734-6.741,6.734
				c-3.724,0-6.742-3.017-6.742-6.734c0-3.721,3.018-6.736,6.742-6.736C29.298,45.876,32.317,48.892,32.317,52.612"/>
			<path clip-path="url(#SVGID_10_)" fill="#C9CACB" d="M32.143,52.612c0,3.622-2.939,6.559-6.566,6.559
				c-3.627,0-6.567-2.937-6.567-6.559c0-3.624,2.939-6.562,6.567-6.562C29.203,46.051,32.143,48.988,32.143,52.612"/>
			<path clip-path="url(#SVGID_10_)" fill="#CBCDCD" d="M31.968,52.612c0,3.525-2.862,6.386-6.392,6.386
				c-3.531,0-6.391-2.86-6.391-6.386c0-3.527,2.86-6.388,6.391-6.388C29.105,46.225,31.968,49.085,31.968,52.612"/>
			<path clip-path="url(#SVGID_10_)" fill="#CCCFD0" d="M31.793,52.612c0,3.429-2.784,6.21-6.217,6.21s-6.217-2.781-6.217-6.21
				c0-3.431,2.785-6.211,6.217-6.211S31.793,49.182,31.793,52.612"/>
			<path clip-path="url(#SVGID_10_)" fill="#D0D2D2" d="M31.618,52.612c0,3.332-2.705,6.035-6.042,6.035
				c-3.337,0-6.042-2.703-6.042-6.035c0-3.335,2.705-6.037,6.042-6.037C28.913,46.575,31.618,49.277,31.618,52.612"/>
			<path clip-path="url(#SVGID_10_)" fill="#D2D4D5" d="M31.442,52.612c0,3.235-2.627,5.86-5.866,5.86
				c-3.24,0-5.867-2.625-5.867-5.86c0-3.238,2.626-5.861,5.867-5.861C28.815,46.751,31.442,49.374,31.442,52.612"/>
		</g>
	</g>
	<polygon fill="#605F5E" points="24.604,57.082 24.604,53.583 21.101,53.583 21.101,51.641 24.604,51.641 24.604,48.142 
		26.548,48.142 26.548,51.641 30.051,51.641 30.051,53.583 26.548,53.583 26.548,57.082 	"/>
	<path fill="#221714" d="M26.38,48.31v3.161v0.338h0.336h3.166v1.605h-3.166H26.38v0.336v3.162h-1.607V53.75v-0.336h-0.337H21.27
		v-1.605h3.166h0.337v-0.338V48.31H26.38z M26.716,47.974h-2.281v3.497h-3.502v2.279h3.502v3.499h2.281V53.75h3.501v-2.279h-3.501
		V47.974z"/>
</g>
<g>
	<g>
		<path fill="#040000" d="M70.414,64.963c0,0-4.41,3.752-4.993-2.478c0,0-4.06-13.75,7.169-28.679c0,0,1.584-1.194,2.941-1.367
			l13.197,0.188c0,0,4.365,1.177,1.882,4.187L70.414,64.963z"/>
		<path fill="#040000" d="M92.518,23.419c0,0-4.833-3.188,0.987-5.485c0,0,12.072-7.735,29.541-1.117c0,0,1.59,1.188,2.135,2.442
			l3.5,12.726c0,0,0.087,4.521-3.495,2.975L92.518,23.419z"/>
		<path fill="#040000" d="M144.341,35.208c0,0,1.98-5.439,5.563-0.311c0,0,10.32,9.954,7.926,28.482c0,0-0.788,1.818-1.882,2.64
			l-11.569,6.352c0,0-4.378,1.131-3.703-2.711L144.341,35.208z"/>
		<path fill="#040000" d="M94.281,99.037c0,0,0.961,5.709-4.687,3.018c0,0-13.888-3.568-20.946-20.863c0,0-0.212-1.973,0.333-3.225
			l6.929-11.234c0,0,3.25-3.144,4.559,0.529L94.281,99.037z"/>
		<path fill="#040000" d="M145.976,85.02c0,0,5.785,0.234,1.987,5.207c0,0-6.346,12.855-24.724,16.207c0,0-1.973-0.197-3.089-0.99
			l-9.567-9.092c0,0-2.409-3.826,1.457-4.352L145.976,85.02z"/>
	</g>
	<g>
		<g>
			<defs>
				<path id="SVGID_11_" d="M32.142,94.836l0.064,2.545l10.702,0.572l1.461-9.426c0.583-3.764-2.057-7.199-5.532-7.199h-1.302
					c-1.579,0-2.959,1.168-3.365,2.842l-1.547,6.4c-0.28,1.244-0.482,2.791-0.482,4.096C32.141,94.723,32.142,94.779,32.142,94.836"
					/>
			</defs>
			<clipPath id="SVGID_12_">
				<use xlink:href="#SVGID_11_"  overflow="visible"/>
			</clipPath>
			
				<linearGradient id="SVGID_13_" gradientUnits="userSpaceOnUse" x1="120.5288" y1="211.7305" x2="121.2756" y2="211.7305" gradientTransform="matrix(8.6407 21.6019 -21.6019 8.6407 3566.9141 -4353.3594)">
				<stop  offset="0" style="stop-color:#E0DFDE"/>
				<stop  offset="1" style="stop-color:#666666"/>
			</linearGradient>
			<polygon clip-path="url(#SVGID_12_)" fill="url(#SVGID_13_)" points="26.922,83.621 33.908,102.803 50.172,95.658 43.185,76.477 
							"/>
		</g>
		<g>
			<defs>
				<path id="SVGID_14_" d="M178.585,87.189l1.878,10.762l10.629-1.24c0-2.287-0.272-4.566-0.81-6.779l-0.924-3.807
					c-0.688-2.83-3.021-4.799-5.688-4.797h-0.671c-2.527,0-4.495,2.264-4.495,4.922C178.503,86.559,178.531,86.873,178.585,87.189"
					/>
			</defs>
			<clipPath id="SVGID_15_">
				<use xlink:href="#SVGID_14_"  overflow="visible"/>
			</clipPath>
			
				<linearGradient id="SVGID_16_" gradientUnits="userSpaceOnUse" x1="171.0298" y1="-35.3076" x2="171.7642" y2="-35.3076" gradientTransform="matrix(0 14.9609 -14.9609 0 -343.4375 -2479.2031)">
				<stop  offset="0" style="stop-color:#E0DFDE"/>
				<stop  offset="1" style="stop-color:#666666"/>
			</linearGradient>
			<rect x="178.503" y="81.326" clip-path="url(#SVGID_15_)" fill="url(#SVGID_16_)" width="12.589" height="16.625"/>
		</g>
		
			<linearGradient id="SVGID_17_" gradientUnits="userSpaceOnUse" x1="-9690.4932" y1="1478.8281" x2="-9690.4932" y2="1468.3281" gradientTransform="matrix(-1 0 0 1 -9579.1455 -1376.3398)">
			<stop  offset="0" style="stop-color:#CBCCCC"/>
			<stop  offset="0.4731" style="stop-color:#E0DFDE"/>
			<stop  offset="1" style="stop-color:#666666"/>
		</linearGradient>
		<path fill="url(#SVGID_17_)" d="M31.603,97.238c0,2.9,1.571,5.25,3.51,5.25h152.468c1.939,0,3.511-2.35,3.511-5.25l0,0
			c0-2.898-1.572-5.25-3.511-5.25H35.113C33.174,91.988,31.603,94.34,31.603,97.238L31.603,97.238z"/>
	</g>
</g>
<path fill="#585959" stroke="#A4A4A4" stroke-miterlimit="10" d="M649.838,113.324c0,2.301-1.764,4.166-3.939,4.166H353.129
	c-2.176,0-3.939-1.865-3.939-4.166V10.656c0-2.301,1.764-4.166,3.939-4.166h292.769c2.176,0,3.939,1.865,3.939,4.166V113.324z"/>
<g>
	<path fill="#AFAEAE" d="M377.313,52.612c0,5.929-4.812,10.736-10.747,10.736c-5.935,0-10.747-4.807-10.747-10.736
		c0-5.93,4.812-10.737,10.747-10.737C372.502,41.875,377.313,46.683,377.313,52.612"/>
	<ellipse fill="none" stroke="#929292" stroke-miterlimit="10" cx="366.567" cy="52.612" rx="10.747" ry="10.736"/>
	<path fill="#AFAEAE" d="M374.463,52.612c0,4.355-3.536,7.889-7.896,7.889s-7.896-3.533-7.896-7.889c0-4.357,3.535-7.89,7.896-7.89
		S374.463,48.255,374.463,52.612"/>
	<ellipse fill="none" stroke="#929292" stroke-miterlimit="10" cx="366.567" cy="52.612" rx="7.896" ry="7.889"/>
	<g>
		<g>
			<defs>
				<rect id="SVGID_18_" x="359.123" y="45.177" width="14.888" height="14.869"/>
			</defs>
			<clipPath id="SVGID_19_">
				<use xlink:href="#SVGID_18_"  overflow="visible"/>
			</clipPath>
			<path clip-path="url(#SVGID_19_)" fill="#BEBEBD" d="M374.008,52.612c0,4.104-3.332,7.434-7.441,7.434
				c-4.11,0-7.442-3.329-7.442-7.434c0-4.106,3.332-7.436,7.442-7.436C370.677,45.177,374.008,48.506,374.008,52.612"/>
			<path clip-path="url(#SVGID_19_)" fill="#C0C0C0" d="M373.833,52.612c0,4.008-3.253,7.258-7.266,7.258
				c-4.014,0-7.267-3.25-7.267-7.258c0-4.011,3.253-7.261,7.267-7.261C370.58,45.352,373.833,48.602,373.833,52.612"/>
			<path clip-path="url(#SVGID_19_)" fill="#C2C3C3" d="M373.658,52.612c0,3.911-3.175,7.085-7.091,7.085
				c-3.917,0-7.092-3.174-7.092-7.085c0-3.914,3.175-7.086,7.092-7.086C370.483,45.526,373.658,48.698,373.658,52.612"/>
			<path clip-path="url(#SVGID_19_)" fill="#C4C5C4" d="M373.483,52.612c0,3.814-3.096,6.909-6.916,6.909s-6.917-3.095-6.917-6.909
				c0-3.817,3.097-6.91,6.917-6.91S373.483,48.795,373.483,52.612"/>
			<path clip-path="url(#SVGID_19_)" fill="#C6C8C8" d="M373.308,52.612c0,3.718-3.019,6.734-6.741,6.734
				c-3.724,0-6.741-3.017-6.741-6.734c0-3.721,3.018-6.736,6.741-6.736C370.289,45.876,373.308,48.892,373.308,52.612"/>
			<path clip-path="url(#SVGID_19_)" fill="#C9CACB" d="M373.133,52.612c0,3.622-2.939,6.559-6.566,6.559S360,56.234,360,52.612
				c0-3.624,2.939-6.562,6.566-6.562S373.133,48.988,373.133,52.612"/>
			<path clip-path="url(#SVGID_19_)" fill="#CBCDCD" d="M372.958,52.612c0,3.525-2.862,6.386-6.392,6.386
				c-3.53,0-6.391-2.86-6.391-6.386c0-3.527,2.861-6.388,6.391-6.388C370.097,46.225,372.958,49.085,372.958,52.612"/>
			<path clip-path="url(#SVGID_19_)" fill="#CCCFD0" d="M372.784,52.612c0,3.429-2.784,6.21-6.217,6.21s-6.217-2.781-6.217-6.21
				c0-3.431,2.785-6.211,6.217-6.211S372.784,49.182,372.784,52.612"/>
			<path clip-path="url(#SVGID_19_)" fill="#D0D2D2" d="M372.608,52.612c0,3.332-2.705,6.035-6.042,6.035s-6.042-2.703-6.042-6.035
				c0-3.335,2.705-6.037,6.042-6.037S372.608,49.277,372.608,52.612"/>
			<path clip-path="url(#SVGID_19_)" fill="#D2D4D5" d="M372.434,52.612c0,3.235-2.628,5.86-5.867,5.86
				c-3.24,0-5.867-2.625-5.867-5.86c0-3.238,2.626-5.861,5.867-5.861C369.806,46.751,372.434,49.374,372.434,52.612"/>
		</g>
	</g>
	<polygon fill="#605F5E" points="365.594,57.082 365.594,53.583 362.092,53.583 362.092,51.641 365.594,51.641 365.594,48.142 
		367.539,48.142 367.539,51.641 371.042,51.641 371.042,53.583 367.539,53.583 367.539,57.082 	"/>
	<path fill="#221714" d="M367.371,48.31v3.161v0.338h0.336h3.166v1.605h-3.166h-0.336v0.336v3.162h-1.607V53.75v-0.336h-0.337
		h-3.166v-1.605h3.166h0.337v-0.338V48.31H367.371z M367.707,47.974h-2.281v3.497h-3.502v2.279h3.502v3.499h2.281V53.75h3.501
		v-2.279h-3.501V47.974z"/>
</g>
<g>
	<g>
		<path fill="#040000" d="M411.404,64.963c0,0-4.409,3.752-4.993-2.478c0,0-4.06-13.75,7.17-28.679c0,0,1.583-1.194,2.941-1.367
			l13.197,0.188c0,0,4.365,1.177,1.882,4.187L411.404,64.963z"/>
		<path fill="#040000" d="M433.509,23.419c0,0-4.833-3.188,0.986-5.485c0,0,12.072-7.735,29.541-1.117c0,0,1.59,1.188,2.135,2.442
			l3.501,12.726c0,0,0.087,4.521-3.495,2.975L433.509,23.419z"/>
		<path fill="#040000" d="M485.332,35.208c0,0,1.981-5.439,5.564-0.311c0,0,10.32,9.954,7.926,28.482c0,0-0.788,1.818-1.882,2.64
			l-11.569,6.352c0,0-4.377,1.131-3.703-2.711L485.332,35.208z"/>
		<path fill="#040000" d="M435.272,99.037c0,0,0.961,5.709-4.687,3.018c0,0-13.888-3.568-20.946-20.863c0,0-0.212-1.973,0.333-3.225
			l6.93-11.234c0,0,3.25-3.144,4.558,0.529L435.272,99.037z"/>
		<path fill="#040000" d="M486.967,85.02c0,0,5.785,0.234,1.987,5.207c0,0-6.347,12.855-24.724,16.207c0,0-1.974-0.197-3.089-0.99
			l-9.567-9.092c0,0-2.409-3.826,1.458-4.352L486.967,85.02z"/>
	</g>
	<g>
		<g>
			<defs>
				<path id="SVGID_20_" d="M373.133,94.836l0.063,2.545l10.702,0.572l1.462-9.426c0.582-3.764-2.058-7.199-5.532-7.199h-1.302
					c-1.579,0-2.959,1.168-3.365,2.842l-1.547,6.4c-0.28,1.244-0.483,2.791-0.483,4.096
					C373.131,94.723,373.133,94.779,373.133,94.836"/>
			</defs>
			<clipPath id="SVGID_21_">
				<use xlink:href="#SVGID_20_"  overflow="visible"/>
			</clipPath>
			
				<linearGradient id="SVGID_22_" gradientUnits="userSpaceOnUse" x1="125.9722" y1="198.1211" x2="126.7185" y2="198.1211" gradientTransform="matrix(8.6407 21.6019 -21.6019 8.6407 3566.9141 -4353.3594)">
				<stop  offset="0" style="stop-color:#E0DFDE"/>
				<stop  offset="1" style="stop-color:#666666"/>
			</linearGradient>
			<polygon clip-path="url(#SVGID_21_)" fill="url(#SVGID_22_)" points="367.913,83.621 374.899,102.803 391.163,95.658 
				384.176,76.477 			"/>
		</g>
		<g>
			<defs>
				<path id="SVGID_23_" d="M519.577,87.189l1.877,10.762l10.629-1.24c0-2.287-0.272-4.566-0.81-6.779l-0.924-3.807
					c-0.688-2.83-3.021-4.799-5.688-4.797h-0.672c-2.527,0-4.494,2.264-4.494,4.922C519.495,86.559,519.521,86.873,519.577,87.189"
					/>
			</defs>
			<clipPath id="SVGID_24_">
				<use xlink:href="#SVGID_23_"  overflow="visible"/>
			</clipPath>
			
				<linearGradient id="SVGID_25_" gradientUnits="userSpaceOnUse" x1="171.0298" y1="-58.0996" x2="171.7642" y2="-58.0996" gradientTransform="matrix(0 14.9609 -14.9609 0 -343.4375 -2479.2031)">
				<stop  offset="0" style="stop-color:#E0DFDE"/>
				<stop  offset="1" style="stop-color:#666666"/>
			</linearGradient>
			<rect x="519.495" y="81.326" clip-path="url(#SVGID_24_)" fill="url(#SVGID_25_)" width="12.588" height="16.625"/>
		</g>
		
			<linearGradient id="SVGID_26_" gradientUnits="userSpaceOnUse" x1="-10031.4844" y1="1478.8281" x2="-10031.4844" y2="1468.3281" gradientTransform="matrix(-1 0 0 1 -9579.1455 -1376.3398)">
			<stop  offset="0" style="stop-color:#CBCCCC"/>
			<stop  offset="0.4731" style="stop-color:#E0DFDE"/>
			<stop  offset="1" style="stop-color:#666666"/>
		</linearGradient>
		<path fill="url(#SVGID_26_)" d="M372.594,97.238c0,2.9,1.571,5.25,3.511,5.25h152.468c1.939,0,3.511-2.35,3.511-5.25l0,0
			c0-2.898-1.572-5.25-3.511-5.25H376.104C374.165,91.988,372.594,94.34,372.594,97.238L372.594,97.238z"/>
	</g>
</g>
<path fill="#262727" d="M317.726,0v27.068c0,4.363,3.134,7.899,7,7.899h11.406c3.866,0,7-3.536,7-7.899V0H317.726z"/>
<g>
	<g>
		<path fill="#252626" d="M338.877,19.584c0,4.663-3.782,8.447-8.448,8.447s-8.448-3.784-8.448-8.447
			c0-4.665,3.782-8.448,8.448-8.448S338.877,14.919,338.877,19.584"/>
		<circle fill="none" stroke="#121212" stroke-width="0.75" stroke-miterlimit="10" cx="330.429" cy="19.584" r="8.448"/>
		<polygon fill="#040000" points="329.385,24.374 329.385,20.626 325.638,20.626 325.638,18.54 329.385,18.54 329.385,14.794 
			331.474,14.794 331.474,18.54 335.221,18.54 335.221,20.626 331.474,20.626 331.474,24.374 		"/>
		<path fill="#221714" d="M331.297,14.969v3.394v0.354h0.352h3.396v1.733h-3.396h-0.352v0.352v3.396h-1.735v-3.396V20.45h-0.354
			h-3.395v-1.733h3.395h0.354v-0.354v-3.394H331.297z M331.649,14.616h-2.44v3.746h-3.747v2.439h3.747v3.748h2.44v-3.748h3.748
			v-2.439h-3.748V14.616z"/>
	</g>
	<rect x="329.208" y="14.616" fill="#606062" width="0.354" height="4.101"/>
	<rect x="325.461" y="18.362" fill="#606062" width="4.098" height="0.354"/>
</g>
<g>
	<g>
		<path fill="#252626" d="M701.968,79.557c0,4.664-3.783,8.447-8.449,8.447s-8.447-3.783-8.447-8.447s3.781-8.447,8.447-8.447
			S701.968,74.893,701.968,79.557"/>
		<circle fill="none" stroke="#121212" stroke-width="0.75" stroke-miterlimit="10" cx="693.52" cy="79.557" r="8.448"/>
		<polygon fill="#040000" points="692.476,84.348 692.476,80.6 688.728,80.6 688.728,78.514 692.476,78.514 692.476,74.768 
			694.563,74.768 694.563,78.514 698.311,78.514 698.311,80.6 694.563,80.6 694.563,84.348 		"/>
		<path fill="#221714" d="M694.388,74.941v3.395v0.354h0.352h3.396v1.734h-3.396h-0.352v0.352v3.396h-1.736v-3.396v-0.352h-0.353
			h-3.396v-1.734h3.396h0.353v-0.354v-3.395H694.388z M694.739,74.59h-2.44v3.746h-3.747v2.439h3.747v3.748h2.44v-3.748h3.747
			v-2.439h-3.747V74.59z"/>
	</g>
	<rect x="692.299" y="74.59" fill="#606062" width="0.353" height="4.1"/>
	<rect x="688.552" y="78.336" fill="#606062" width="4.098" height="0.354"/>
</g>
<g>
	<g>
		<path fill="#252626" d="M1234.937,79.137c0,4.664-3.783,8.447-8.449,8.447s-8.447-3.783-8.447-8.447s3.781-8.447,8.447-8.447
			S1234.937,74.473,1234.937,79.137"/>
		<circle fill="none" stroke="#121212" stroke-width="0.75" stroke-miterlimit="10" cx="1226.488" cy="79.137" r="8.448"/>
		<polygon fill="#040000" points="1225.444,83.928 1225.444,80.18 1221.696,80.18 1221.696,78.094 1225.444,78.094 1225.444,74.348 
			1227.532,74.348 1227.532,78.094 1231.28,78.094 1231.28,80.18 1227.532,80.18 1227.532,83.928 		"/>
		<path fill="#221714" d="M1227.356,74.521v3.395v0.354h0.352h3.396v1.734h-3.396h-0.352v0.352v3.396h-1.736v-3.396v-0.352h-0.352
			h-3.396V78.27h3.396h0.352v-0.354v-3.395H1227.356z M1227.708,74.17h-2.439v3.746h-3.748v2.439h3.748v3.748h2.439v-3.748h3.748
			v-2.439h-3.748V74.17z"/>
	</g>
	<rect x="1225.269" y="74.17" fill="#606062" width="0.352" height="4.1"/>
	<rect x="1221.521" y="77.916" fill="#606062" width="4.098" height="0.354"/>
</g>
<g>
	<g>
		<path fill="#252626" d="M1214.042,11.742c0,4.663-3.783,8.447-8.447,8.447c-4.666,0-8.449-3.784-8.449-8.447
			c0-4.665,3.783-8.448,8.449-8.448C1210.259,3.294,1214.042,7.077,1214.042,11.742"/>
		<circle fill="none" stroke="#121212" stroke-width="0.75" stroke-miterlimit="10" cx="1205.594" cy="11.742" r="8.448"/>
		<polygon fill="#040000" points="1204.55,16.532 1204.55,12.784 1200.802,12.784 1200.802,10.698 1204.55,10.698 1204.55,6.952 
			1206.638,6.952 1206.638,10.698 1210.386,10.698 1210.386,12.784 1206.638,12.784 1206.638,16.532 		"/>
		<path fill="#221714" d="M1206.462,7.127v3.394v0.354h0.352h3.396v1.733h-3.396h-0.352v0.352v3.396h-1.734V12.96v-0.352h-0.354
			h-3.395v-1.733h3.395h0.354v-0.354V7.127H1206.462z M1206.813,6.774h-2.439v3.746h-3.748v2.439h3.748v3.748h2.439V12.96h3.748
			v-2.439h-3.748V6.774z"/>
	</g>
	<rect x="1204.374" y="6.774" fill="#606062" width="0.354" height="4.101"/>
	<rect x="1200.626" y="10.521" fill="#606062" width="4.098" height="0.354"/>
</g>
<g>
	<g>
		<g>
			<path fill="#252626" d="M959.423,80.182c0,4.662-3.783,8.447-8.448,8.447c-4.666,0-8.448-3.785-8.448-8.447
				c0-4.666,3.782-8.449,8.448-8.449C955.64,71.732,959.423,75.516,959.423,80.182"/>
			<path fill="none" stroke="#121212" stroke-width="0.75" stroke-miterlimit="10" d="M959.423,80.182
				c0,4.662-3.783,8.447-8.448,8.447c-4.666,0-8.448-3.785-8.448-8.447c0-4.666,3.782-8.449,8.448-8.449
				C955.64,71.732,959.423,75.516,959.423,80.182z"/>
			<polygon fill="#040000" points="949.931,84.971 949.931,81.223 946.183,81.223 946.183,79.137 949.931,79.137 949.931,75.391 
				952.019,75.391 952.019,79.137 955.767,79.137 955.767,81.223 952.019,81.223 952.019,84.971 			"/>
			<path fill="#221714" d="M951.843,75.566v3.393v0.355h0.352h3.396v1.732h-3.396h-0.352v0.352v3.396h-1.735v-3.396v-0.352h-0.353
				h-3.396v-1.732h3.396h0.353v-0.355v-3.393H951.843z M952.194,75.213h-2.439v3.746h-3.748v2.439h3.748v3.748h2.439v-3.748h3.747
				v-2.439h-3.747V75.213z"/>
		</g>
		<rect x="949.755" y="75.213" fill="#606062" width="0.353" height="4.102"/>
		<rect x="946.007" y="78.959" fill="#606062" width="4.098" height="0.355"/>
	</g>
	<g>
		<g>
			<path fill="#252626" d="M1002.487,79.557c0,4.664-3.783,8.447-8.449,8.447s-8.448-3.783-8.448-8.447s3.782-8.447,8.448-8.447
				S1002.487,74.893,1002.487,79.557"/>
			<circle fill="none" stroke="#121212" stroke-width="0.75" stroke-miterlimit="10" cx="994.039" cy="79.557" r="8.449"/>
			<polygon fill="#040000" points="992.995,84.348 992.995,80.6 989.247,80.6 989.247,78.514 992.995,78.514 992.995,74.768 
				995.083,74.768 995.083,78.514 998.829,78.514 998.829,80.6 995.083,80.6 995.083,84.348 			"/>
			<path fill="#221714" d="M994.905,74.941v3.395v0.354h0.354h3.395v1.734h-3.395h-0.354v0.352v3.396h-1.734v-3.396v-0.352h-0.354
				h-3.395v-1.734h3.395h0.354v-0.354v-3.395H994.905z M995.259,74.59h-2.441v3.746h-3.746v2.439h3.746v3.748h2.441v-3.748h3.746
				v-2.439h-3.746V74.59z"/>
		</g>
		<rect x="992.817" y="74.59" fill="#606062" width="0.354" height="4.1"/>
		<rect x="989.071" y="78.336" fill="#606062" width="4.098" height="0.354"/>
	</g>
</g>
<g>
	<linearGradient id="SVGID_27_" gradientUnits="userSpaceOnUse" x1="211.814" y1="80.1826" x2="349.1899" y2="80.1826">
		<stop  offset="0" style="stop-color:#FFFFFF"/>
		<stop  offset="0.1688" style="stop-color:#B1B4B5"/>
		<stop  offset="0.4086" style="stop-color:#E0E0DF"/>
		<stop  offset="0.7581" style="stop-color:#B1B4B5"/>
		<stop  offset="1" style="stop-color:#C2C2C2"/>
	</linearGradient>
	<polygon fill="url(#SVGID_27_)" points="318.319,118.49 211.814,118.49 211.814,116.49 316.286,116.49 315.709,81.639 
		347.19,81.639 347.19,41.875 349.19,41.875 349.19,83.639 317.743,83.639 	"/>
</g>
<g>
	<linearGradient id="SVGID_28_" gradientUnits="userSpaceOnUse" x1="543.5498" y1="72.0566" x2="680.9268" y2="72.0566">
		<stop  offset="0" style="stop-color:#FFFFFF"/>
		<stop  offset="0.1688" style="stop-color:#B1B4B5"/>
		<stop  offset="0.4086" style="stop-color:#E0E0DF"/>
		<stop  offset="0.7581" style="stop-color:#B1B4B5"/>
		<stop  offset="1" style="stop-color:#C2C2C2"/>
	</linearGradient>
	<polygon fill="url(#SVGID_28_)" points="650.056,117.863 543.55,117.863 543.55,115.863 648.021,115.863 647.445,81.012 
		678.927,81.012 678.927,26.249 680.927,26.249 680.927,83.012 649.479,83.012 	"/>
</g>
<rect x="650.162" y="24.711" fill="#151515" width="597.487" height="3.32"/>
<rect x="1244.765" y="24.711" fill="#151515" width="2.885" height="101.432"/>
<rect x="973.263" y="24.711" fill="#151515" width="2.885" height="101.432"/>
<g>
	<polygon fill="#151515" points="850.278,19.184 850.278,19.184 839.919,19.184 839.919,19.184 839.919,8.824 839.919,8.824 
		850.278,8.824 850.278,8.824 	"/>
	<polygon fill="#151515" points="863.987,19.184 863.987,19.184 853.628,19.184 853.628,19.184 853.628,8.824 853.628,8.824 
		863.987,8.824 863.987,8.824 	"/>
	<polygon fill="#151515" points="877.696,19.184 877.696,19.184 867.337,19.184 867.337,19.184 867.337,8.824 867.337,8.824 
		877.696,8.824 877.696,8.824 	"/>
	<polygon fill="#151515" points="891.405,19.184 891.405,19.184 881.046,19.184 881.046,19.184 881.046,8.824 881.046,8.824 
		891.405,8.824 891.405,8.824 	"/>
	<polygon fill="#151515" points="905.114,19.184 905.114,19.184 894.755,19.184 894.755,19.184 894.755,8.824 894.755,8.824 
		905.114,8.824 905.114,8.824 	"/>
	<polygon fill="#151515" points="918.823,19.184 918.823,19.184 908.464,19.184 908.464,19.184 908.464,8.824 908.464,8.824 
		918.823,8.824 918.823,8.824 	"/>
	<polygon fill="#151515" points="932.532,19.184 932.532,19.184 922.173,19.184 922.173,19.184 922.173,8.824 922.173,8.824 
		932.532,8.824 932.532,8.824 	"/>
</g>
<g>
	<polygon fill="#151515" points="1003.634,19.184 1003.634,19.184 993.273,19.184 993.273,19.184 993.273,8.824 993.273,8.824 
		1003.634,8.824 1003.634,8.824 	"/>
	<polygon fill="#151515" points="1017.342,19.184 1017.342,19.184 1006.983,19.184 1006.983,19.184 1006.983,8.824 1006.983,8.824 
		1017.342,8.824 1017.342,8.824 	"/>
	<polygon fill="#151515" points="1031.052,19.184 1031.052,19.184 1020.691,19.184 1020.691,19.184 1020.691,8.824 1020.691,8.824 
		1031.052,8.824 1031.052,8.824 	"/>
	<polygon fill="#151515" points="1044.761,19.184 1044.761,19.184 1034.401,19.184 1034.401,19.184 1034.401,8.824 1034.401,8.824 
		1044.761,8.824 1044.761,8.824 	"/>
	<polygon fill="#151515" points="1058.47,19.184 1058.47,19.184 1048.11,19.184 1048.11,19.184 1048.11,8.824 1048.11,8.824 
		1058.47,8.824 1058.47,8.824 	"/>
	<polygon fill="#151515" points="1072.179,19.184 1072.179,19.184 1061.819,19.184 1061.819,19.184 1061.819,8.824 1061.819,8.824 
		1072.179,8.824 1072.179,8.824 	"/>
	<polygon fill="#151515" points="1085.888,19.184 1085.888,19.184 1075.528,19.184 1075.528,19.184 1075.528,8.824 1075.528,8.824 
		1085.888,8.824 1085.888,8.824 	"/>
</g>
<linearGradient id="SVGID_29_" gradientUnits="userSpaceOnUse" x1="704.3135" y1="77.0869" x2="706.8135" y2="77.0869">
	<stop  offset="0" style="stop-color:#FFFFFF"/>
	<stop  offset="0.1688" style="stop-color:#B1B4B5"/>
	<stop  offset="0.4086" style="stop-color:#E0E0DF"/>
	<stop  offset="0.7581" style="stop-color:#B1B4B5"/>
	<stop  offset="1" style="stop-color:#C2C2C2"/>
</linearGradient>
<rect x="704.313" y="28.031" fill="url(#SVGID_29_)" width="2.5" height="98.111"/>
<linearGradient id="SVGID_30_" gradientUnits="userSpaceOnUse" x1="-6587.3804" y1="-5054.1558" x2="-6584.8804" y2="-5054.1558" gradientTransform="matrix(0 1 -1 0 -4376.1221 6612.3784)">
	<stop  offset="0" style="stop-color:#FFFFFF"/>
	<stop  offset="0.1688" style="stop-color:#B1B4B5"/>
	<stop  offset="0.4086" style="stop-color:#E0E0DF"/>
	<stop  offset="0.7581" style="stop-color:#B1B4B5"/>
	<stop  offset="1" style="stop-color:#C2C2C2"/>
</linearGradient>
<rect x="649.254" y="24.998" fill="url(#SVGID_30_)" width="57.56" height="2.5"/>
</svg>
