<?xml version="1.0" encoding="utf-8"?>
<!-- Generator: Adobe Illustrator 16.0.0, SVG Export Plug-In . SVG Version: 6.00 Build 0)  -->
<!DOCTYPE svg PUBLIC "-//W3C//DTD SVG 1.1//EN" "http://www.w3.org/Graphics/SVG/1.1/DTD/svg11.dtd">
<svg version="1.1" id="图层_1" xmlns="http://www.w3.org/2000/svg" xmlns:xlink="http://www.w3.org/1999/xlink" x="0px" y="0px"
	 width="1275.59px" height="126.14px" viewBox="0 0 1275.59 126.14" enable-background="new 0 0 1275.59 126.14"
	 xml:space="preserve">
<g>
	<linearGradient id="SVGID_1_" gradientUnits="userSpaceOnUse" x1="637.7954" y1="126.1406" x2="637.7954" y2="-9.765625e-004">
		<stop  offset="0" style="stop-color:#030000"/>
		<stop  offset="0.0322" style="stop-color:#343535"/>
		<stop  offset="0.0806" style="stop-color:#1F2020"/>
		<stop  offset="0.9462" style="stop-color:#1F2020"/>
		<stop  offset="0.9785" style="stop-color:#636666"/>
		<stop  offset="1" style="stop-color:#030000"/>
	</linearGradient>
	<rect y="-0.001" fill="url(#SVGID_1_)" width="1275.59" height="126.142"/>
	<g>
		<text transform="matrix(1 0 0 1 800.9893 55.2563)" fill="#FFFFFF" font-family="'SimHei'" font-size="10.1039">Console</text>
		<g>
			<g>
				<rect x="792.988" y="65.453" fill="#030000" width="50.969" height="41.75"/>
				
					<linearGradient id="SVGID_2_" gradientUnits="userSpaceOnUse" x1="-11256.46" y1="1851.5029" x2="-11206.7275" y2="1851.5029" gradientTransform="matrix(-1 0 0 -1 -10413.1201 1937.7891)">
					<stop  offset="0" style="stop-color:#FFFFFF"/>
					<stop  offset="0.1688" style="stop-color:#B1B4B5"/>
					<stop  offset="0.4086" style="stop-color:#E0E0DF"/>
					<stop  offset="0.7581" style="stop-color:#B1B4B5"/>
					<stop  offset="1" style="stop-color:#C2C2C2"/>
				</linearGradient>
				<rect x="793.607" y="66.178" fill="url(#SVGID_2_)" width="49.732" height="40.217"/>
			</g>
			<g>
				<g>
					<rect x="799.924" y="72.086" fill="#B7B7B7" width="36.668" height="28.484"/>
					<path fill="#070404" d="M837.592,101.57h-38.668V71.086h38.668V101.57z M800.924,99.57h34.668V73.086h-34.668V99.57z"/>
				</g>
				<g>
					<polygon fill="#050001" points="834.873,86.391 834.873,87.684 833.582,87.684 833.582,92.021 826.382,92.021 826.382,95.807 
						822.689,95.807 822.689,99.961 820.75,99.961 819.611,99.961 816.904,99.961 815.857,99.961 813.826,99.961 813.826,95.807 
						810.134,95.807 810.134,92.021 802.935,92.021 802.935,87.684 801.641,87.684 801.641,86.391 803.793,86.391 803.793,80.76 
						801.641,80.76 801.641,79.652 802.871,79.652 802.871,75.682 815.857,75.682 816.904,75.682 819.611,75.682 820.75,75.682 
						833.705,75.682 833.705,79.652 834.873,79.652 834.873,80.76 832.906,80.76 832.906,86.391 					"/>
				</g>
				<g>
					<rect x="801.809" y="92.732" fill="#878887" width="7.883" height="3.063"/>
				</g>
				<g>
					<rect x="826.99" y="92.732" fill="#878887" width="7.883" height="3.063"/>
				</g>
			</g>
		</g>
	</g>
	<text transform="matrix(1.1107 0 0 1 1171.9834 28.3599)" fill="#D7D7D8" font-family="'SimHei'" font-size="24.0824">H3C</text>
	<text transform="matrix(1.1107 0 0 1 1045.9922 20.1929)" fill="#D7D7D8" font-family="'SimHei'" font-size="10.9177">H3C S5120 Series</text>
	<text transform="matrix(1.1107 0 0 1 985.6602 28.4194)" fill="#D7D7D8" font-family="'SimHei'" font-size="6.6983">Port Status</text>
	<g>
		<g>
			<rect x="59.154" y="21.842" fill="#030000" width="167.455" height="86.044"/>
			<linearGradient id="SVGID_3_" gradientUnits="userSpaceOnUse" x1="61.188" y1="64.9502" x2="224.5737" y2="64.9502">
				<stop  offset="0" style="stop-color:#FFFFFF"/>
				<stop  offset="0.1688" style="stop-color:#B1B4B5"/>
				<stop  offset="0.4086" style="stop-color:#E0E0DF"/>
				<stop  offset="0.7581" style="stop-color:#B1B4B5"/>
				<stop  offset="1" style="stop-color:#C2C2C2"/>
			</linearGradient>
			<rect x="61.188" y="23.506" fill="url(#SVGID_3_)" width="163.386" height="82.888"/>
		</g>
		<g>
			<g>
				<g>
					<rect x="63.361" y="27.36" fill="#B7B7B7" width="36.668" height="28.484"/>
					<path fill="#070404" d="M62.361,26.36h38.668v30.484H62.361V26.36z M99.03,28.36H64.361v26.484H99.03V28.36z"/>
				</g>
				<g>
					<polygon fill="#050001" points="65.078,41.54 65.078,40.247 66.37,40.247 66.37,35.909 73.572,35.909 73.572,32.124 
						77.264,32.124 77.264,27.969 79.202,27.969 80.342,27.969 83.05,27.969 84.096,27.969 86.127,27.969 86.127,32.124 
						89.819,32.124 89.819,35.909 97.019,35.909 97.019,40.247 98.313,40.247 98.313,41.54 96.159,41.54 96.159,47.17 98.313,47.17 
						98.313,48.278 97.082,48.278 97.082,52.249 84.096,52.249 83.05,52.249 80.342,52.249 79.202,52.249 66.249,52.249 
						66.249,48.278 65.078,48.278 65.078,47.17 67.047,47.17 67.047,41.54 					"/>
				</g>
				<g>
					<rect x="90.262" y="32.135" fill="#878887" width="7.883" height="3.063"/>
				</g>
				<g>
					<rect x="65.078" y="32.135" fill="#878887" width="7.885" height="3.063"/>
				</g>
			</g>
			<g>
				<g>
					<rect x="63.361" y="73.715" fill="#B7B7B7" width="36.668" height="28.484"/>
					<path fill="#070404" d="M101.03,103.199H62.361V72.715h38.668V103.199z M64.361,101.199H99.03V74.715H64.361V101.199z"/>
				</g>
				<g>
					<polygon fill="#050001" points="98.313,88.02 98.313,89.313 97.021,89.313 97.021,93.65 89.819,93.65 89.819,97.436 
						86.127,97.436 86.127,101.59 84.188,101.59 83.05,101.59 80.342,101.59 79.295,101.59 77.264,101.59 77.264,97.436 
						73.572,97.436 73.572,93.65 66.372,93.65 66.372,89.313 65.078,89.313 65.078,88.02 67.231,88.02 67.231,82.389 65.078,82.389 
						65.078,81.281 66.31,81.281 66.31,77.311 79.295,77.311 80.342,77.311 83.05,77.311 84.188,77.311 97.143,77.311 
						97.143,81.281 98.313,81.281 98.313,82.389 96.344,82.389 96.344,88.02 					"/>
				</g>
				<g>
					<rect x="65.246" y="94.361" fill="#878887" width="7.883" height="3.063"/>
				</g>
				<g>
					<rect x="90.428" y="94.361" fill="#878887" width="7.885" height="3.063"/>
				</g>
			</g>
		</g>
		<g>
			<g>
				<g>
					<rect x="104.213" y="27.532" fill="#B7B7B7" width="36.668" height="28.484"/>
					<path fill="#070404" d="M103.213,26.532h38.668v30.484h-38.668V26.532z M139.881,28.532h-34.668v26.484h34.668V28.532z"/>
				</g>
				<g>
					<polygon fill="#050001" points="105.93,41.711 105.93,40.418 107.222,40.418 107.222,36.081 114.423,36.081 114.423,32.295 
						118.115,32.295 118.115,28.141 120.054,28.141 121.193,28.141 123.901,28.141 124.948,28.141 126.979,28.141 126.979,32.295 
						130.671,32.295 130.671,36.081 137.87,36.081 137.87,40.418 139.164,40.418 139.164,41.711 137.01,41.711 137.01,47.342 
						139.164,47.342 139.164,48.45 137.932,48.45 137.932,52.42 124.948,52.42 123.901,52.42 121.193,52.42 120.054,52.42 
						107.1,52.42 107.1,48.45 105.93,48.45 105.93,47.342 107.898,47.342 107.898,41.711 					"/>
				</g>
				<g>
					<rect x="131.114" y="32.307" fill="#878887" width="7.882" height="3.063"/>
				</g>
				<g>
					<rect x="105.93" y="32.307" fill="#878887" width="7.884" height="3.063"/>
				</g>
			</g>
			<g>
				<g>
					<rect x="104.213" y="73.887" fill="#B7B7B7" width="36.668" height="28.484"/>
					<path fill="#070404" d="M141.881,103.371h-38.668V72.887h38.668V103.371z M105.213,101.371h34.668V74.887h-34.668V101.371z"/>
				</g>
				<g>
					<polygon fill="#050001" points="139.164,88.191 139.164,89.484 137.872,89.484 137.872,93.822 130.671,93.822 130.671,97.607 
						126.979,97.607 126.979,101.762 125.04,101.762 123.901,101.762 121.193,101.762 120.146,101.762 118.115,101.762 
						118.115,97.607 114.423,97.607 114.423,93.822 107.224,93.822 107.224,89.484 105.93,89.484 105.93,88.191 108.083,88.191 
						108.083,82.561 105.93,82.561 105.93,81.453 107.16,81.453 107.16,77.482 120.146,77.482 121.193,77.482 123.901,77.482 
						125.04,77.482 137.994,77.482 137.994,81.453 139.164,81.453 139.164,82.561 137.195,82.561 137.195,88.191 					"/>
				</g>
				<g>
					<rect x="106.098" y="94.533" fill="#878887" width="7.883" height="3.063"/>
				</g>
				<g>
					<rect x="131.28" y="94.533" fill="#878887" width="7.884" height="3.063"/>
				</g>
			</g>
		</g>
		<g>
			<g>
				<g>
					<rect x="145.064" y="27.704" fill="#B7B7B7" width="36.668" height="28.484"/>
					<path fill="#070404" d="M144.064,26.704h38.668v30.484h-38.668V26.704z M180.732,28.704h-34.668v26.484h34.668V28.704z"/>
				</g>
				<g>
					<polygon fill="#050001" points="146.782,41.883 146.782,40.59 148.074,40.59 148.074,36.252 155.274,36.252 155.274,32.467 
						158.967,32.467 158.967,28.313 160.906,28.313 162.044,28.313 164.753,28.313 165.799,28.313 167.83,28.313 167.83,32.467 
						171.522,32.467 171.522,36.252 178.722,36.252 178.722,40.59 180.016,40.59 180.016,41.883 177.863,41.883 177.863,47.514 
						180.016,47.514 180.016,48.622 178.785,48.622 178.785,52.592 165.799,52.592 164.753,52.592 162.044,52.592 160.906,52.592 
						147.952,52.592 147.952,48.622 146.782,48.622 146.782,47.514 148.75,47.514 148.75,41.883 					"/>
				</g>
				<g>
					<rect x="171.965" y="32.479" fill="#878887" width="7.883" height="3.063"/>
				</g>
				<g>
					<rect x="146.782" y="32.479" fill="#878887" width="7.884" height="3.063"/>
				</g>
			</g>
			<g>
				<g>
					<rect x="145.064" y="74.059" fill="#B7B7B7" width="36.668" height="28.484"/>
					<path fill="#070404" d="M182.732,103.543h-38.668V73.059h38.668V103.543z M146.064,101.543h34.668V75.059h-34.668V101.543z"/>
				</g>
				<g>
					<polygon fill="#050001" points="180.016,88.363 180.016,89.656 178.724,89.656 178.724,93.994 171.522,93.994 171.522,97.779 
						167.83,97.779 167.83,101.934 165.892,101.934 164.753,101.934 162.044,101.934 160.998,101.934 158.967,101.934 
						158.967,97.779 155.274,97.779 155.274,93.994 148.075,93.994 148.075,89.656 146.781,89.656 146.781,88.363 148.935,88.363 
						148.935,82.732 146.781,82.732 146.781,81.625 148.013,81.625 148.013,77.654 160.998,77.654 162.044,77.654 164.753,77.654 
						165.892,77.654 178.846,77.654 178.846,81.625 180.016,81.625 180.016,82.732 178.047,82.732 178.047,88.363 					"/>
				</g>
				<g>
					<rect x="146.949" y="94.705" fill="#878887" width="7.883" height="3.063"/>
				</g>
				<g>
					<rect x="172.131" y="94.705" fill="#878887" width="7.885" height="3.063"/>
				</g>
			</g>
		</g>
		<g>
			<g>
				<g>
					<rect x="185.916" y="27.875" fill="#B7B7B7" width="36.668" height="28.484"/>
					<path fill="#070404" d="M184.916,26.875h38.668V57.36h-38.668V26.875z M221.584,28.875h-34.668V55.36h34.668V28.875z"/>
				</g>
				<g>
					<polygon fill="#050001" points="187.634,42.055 187.634,40.762 188.925,40.762 188.925,36.424 196.126,36.424 196.126,32.639 
						199.819,32.639 199.819,28.485 201.757,28.485 202.896,28.485 205.604,28.485 206.65,28.485 208.682,28.485 208.682,32.639 
						212.374,32.639 212.374,36.424 219.573,36.424 219.573,40.762 220.867,40.762 220.867,42.055 218.713,42.055 218.713,47.686 
						220.867,47.686 220.867,48.793 219.636,48.793 219.636,52.764 206.65,52.764 205.604,52.764 202.896,52.764 201.757,52.764 
						188.803,52.764 188.803,48.793 187.634,48.793 187.634,47.686 189.602,47.686 189.602,42.055 					"/>
				</g>
				<g>
					<rect x="212.816" y="32.651" fill="#878887" width="7.883" height="3.063"/>
				</g>
				<g>
					<rect x="187.634" y="32.651" fill="#878887" width="7.884" height="3.063"/>
				</g>
			</g>
			<g>
				<g>
					<rect x="185.916" y="74.23" fill="#B7B7B7" width="36.668" height="28.484"/>
					<path fill="#070404" d="M223.584,103.715h-38.668V73.23h38.668V103.715z M186.916,101.715h34.668V75.23h-34.668V101.715z"/>
				</g>
				<g>
					<polygon fill="#050001" points="220.867,88.535 220.867,89.828 219.575,89.828 219.575,94.166 212.374,94.166 212.374,97.951 
						208.682,97.951 208.682,102.105 206.743,102.105 205.604,102.105 202.896,102.105 201.85,102.105 199.819,102.105 
						199.819,97.951 196.126,97.951 196.126,94.166 188.927,94.166 188.927,89.828 187.633,89.828 187.633,88.535 189.786,88.535 
						189.786,82.904 187.633,82.904 187.633,81.797 188.864,81.797 188.864,77.826 201.85,77.826 202.896,77.826 205.604,77.826 
						206.743,77.826 219.698,77.826 219.698,81.797 220.867,81.797 220.867,82.904 218.898,82.904 218.898,88.535 					"/>
				</g>
				<g>
					<rect x="187.801" y="94.877" fill="#878887" width="7.883" height="3.063"/>
				</g>
				<g>
					<rect x="212.982" y="94.877" fill="#878887" width="7.885" height="3.063"/>
				</g>
			</g>
		</g>
		<g>
			<polygon fill="#BFBEBE" points="91.428,14.339 88.471,19.935 85.517,14.339 			"/>
			<polygon fill="#BFBEBE" points="78.799,19.935 75.844,14.339 72.888,19.935 			"/>
		</g>
		<g>
			<polygon fill="#BFBEBE" points="131.414,14.339 128.457,19.935 125.502,14.339 			"/>
			<polygon fill="#BFBEBE" points="118.785,19.935 115.83,14.339 112.874,19.935 			"/>
		</g>
		<g>
			<polygon fill="#BFBEBE" points="172.4,14.339 169.443,19.935 166.489,14.339 			"/>
			<polygon fill="#BFBEBE" points="159.771,19.935 156.816,14.339 153.861,19.935 			"/>
		</g>
		<g>
			<polygon fill="#BFBEBE" points="212.386,14.339 209.43,19.935 206.474,14.339 			"/>
			<polygon fill="#BFBEBE" points="199.758,19.935 196.802,14.339 193.846,19.935 			"/>
		</g>
	</g>
	<g>
		<g>
			<rect x="233.051" y="21.842" fill="#030000" width="167.455" height="86.044"/>
			<linearGradient id="SVGID_4_" gradientUnits="userSpaceOnUse" x1="235.085" y1="64.9502" x2="398.4697" y2="64.9502">
				<stop  offset="0" style="stop-color:#FFFFFF"/>
				<stop  offset="0.1688" style="stop-color:#B1B4B5"/>
				<stop  offset="0.4086" style="stop-color:#E0E0DF"/>
				<stop  offset="0.7581" style="stop-color:#B1B4B5"/>
				<stop  offset="1" style="stop-color:#C2C2C2"/>
			</linearGradient>
			<rect x="235.085" y="23.506" fill="url(#SVGID_4_)" width="163.385" height="82.888"/>
		</g>
		<g>
			<g>
				<g>
					<rect x="237.259" y="27.36" fill="#B7B7B7" width="36.667" height="28.484"/>
					<path fill="#070404" d="M236.259,26.36h38.667v30.484h-38.667V26.36z M272.926,28.36h-34.667v26.484h34.667V28.36z"/>
				</g>
				<g>
					<polygon fill="#050001" points="238.976,41.54 238.976,40.247 240.268,40.247 240.268,35.909 247.468,35.909 247.468,32.124 
						251.16,32.124 251.16,27.969 253.1,27.969 254.239,27.969 256.947,27.969 257.993,27.969 260.024,27.969 260.024,32.124 
						263.717,32.124 263.717,35.909 270.915,35.909 270.915,40.247 272.209,40.247 272.209,41.54 270.056,41.54 270.056,47.17 
						272.209,47.17 272.209,48.278 270.979,48.278 270.979,52.249 257.993,52.249 256.947,52.249 254.239,52.249 253.1,52.249 
						240.146,52.249 240.146,48.278 238.976,48.278 238.976,47.17 240.944,47.17 240.944,41.54 					"/>
				</g>
				<g>
					<rect x="264.158" y="32.135" fill="#878887" width="7.884" height="3.063"/>
				</g>
				<g>
					<rect x="238.976" y="32.135" fill="#878887" width="7.884" height="3.063"/>
				</g>
			</g>
			<g>
				<g>
					<rect x="237.259" y="73.715" fill="#B7B7B7" width="36.667" height="28.484"/>
					<path fill="#070404" d="M274.926,103.199h-38.667V72.715h38.667V103.199z M238.259,101.199h34.667V74.715h-34.667V101.199z"/>
				</g>
				<g>
					<polygon fill="#050001" points="272.209,88.02 272.209,89.313 270.917,89.313 270.917,93.65 263.717,93.65 263.717,97.436 
						260.024,97.436 260.024,101.59 258.085,101.59 256.947,101.59 254.239,101.59 253.192,101.59 251.16,101.59 251.16,97.436 
						247.468,97.436 247.468,93.65 240.269,93.65 240.269,89.313 238.975,89.313 238.975,88.02 241.128,88.02 241.128,82.389 
						238.975,82.389 238.975,81.281 240.207,81.281 240.207,77.311 253.192,77.311 254.239,77.311 256.947,77.311 258.085,77.311 
						271.039,77.311 271.039,81.281 272.209,81.281 272.209,82.389 270.241,82.389 270.241,88.02 					"/>
				</g>
				<g>
					<rect x="239.143" y="94.361" fill="#878887" width="7.882" height="3.063"/>
				</g>
				<g>
					<rect x="264.325" y="94.361" fill="#878887" width="7.885" height="3.063"/>
				</g>
			</g>
		</g>
		<g>
			<g>
				<g>
					<rect x="278.109" y="27.532" fill="#B7B7B7" width="36.668" height="28.484"/>
					<path fill="#070404" d="M277.109,26.532h38.668v30.484h-38.668V26.532z M313.778,28.532h-34.668v26.484h34.668V28.532z"/>
				</g>
				<g>
					<polygon fill="#050001" points="279.827,41.711 279.827,40.418 281.119,40.418 281.119,36.081 288.32,36.081 288.32,32.295 
						292.012,32.295 292.012,28.141 293.951,28.141 295.09,28.141 297.799,28.141 298.844,28.141 300.875,28.141 300.875,32.295 
						304.568,32.295 304.568,36.081 311.767,36.081 311.767,40.418 313.061,40.418 313.061,41.711 310.908,41.711 310.908,47.342 
						313.061,47.342 313.061,48.45 311.83,48.45 311.83,52.42 298.844,52.42 297.799,52.42 295.09,52.42 293.951,52.42 
						280.997,52.42 280.997,48.45 279.827,48.45 279.827,47.342 281.795,47.342 281.795,41.711 					"/>
				</g>
				<g>
					<rect x="305.01" y="32.307" fill="#878887" width="7.883" height="3.063"/>
				</g>
				<g>
					<rect x="279.827" y="32.307" fill="#878887" width="7.884" height="3.063"/>
				</g>
			</g>
			<g>
				<g>
					<rect x="278.109" y="73.887" fill="#B7B7B7" width="36.668" height="28.484"/>
					<path fill="#070404" d="M315.778,103.371h-38.668V72.887h38.668V103.371z M279.109,101.371h34.668V74.887h-34.668V101.371z"/>
				</g>
				<g>
					<polygon fill="#050001" points="313.061,88.191 313.061,89.484 311.769,89.484 311.769,93.822 304.568,93.822 304.568,97.607 
						300.875,97.607 300.875,101.762 298.937,101.762 297.799,101.762 295.09,101.762 294.043,101.762 292.012,101.762 
						292.012,97.607 288.32,97.607 288.32,93.822 281.12,93.822 281.12,89.484 279.826,89.484 279.826,88.191 281.98,88.191 
						281.98,82.561 279.826,82.561 279.826,81.453 281.058,81.453 281.058,77.482 294.043,77.482 295.09,77.482 297.799,77.482 
						298.937,77.482 311.891,77.482 311.891,81.453 313.061,81.453 313.061,82.561 311.093,82.561 311.093,88.191 					"/>
				</g>
				<g>
					<rect x="279.994" y="94.533" fill="#878887" width="7.883" height="3.063"/>
				</g>
				<g>
					<rect x="305.177" y="94.533" fill="#878887" width="7.884" height="3.063"/>
				</g>
			</g>
		</g>
		<g>
			<g>
				<g>
					<rect x="318.961" y="27.704" fill="#B7B7B7" width="36.668" height="28.484"/>
					<path fill="#070404" d="M317.961,26.704h38.668v30.484h-38.668V26.704z M354.629,28.704h-34.668v26.484h34.668V28.704z"/>
				</g>
				<g>
					<polygon fill="#050001" points="320.678,41.883 320.678,40.59 321.97,40.59 321.97,36.252 329.171,36.252 329.171,32.467 
						332.864,32.467 332.864,28.313 334.802,28.313 335.941,28.313 338.649,28.313 339.695,28.313 341.727,28.313 341.727,32.467 
						345.419,32.467 345.419,36.252 352.618,36.252 352.618,40.59 353.912,40.59 353.912,41.883 351.76,41.883 351.76,47.514 
						353.912,47.514 353.912,48.622 352.682,48.622 352.682,52.592 339.695,52.592 338.649,52.592 335.941,52.592 334.802,52.592 
						321.848,52.592 321.848,48.622 320.678,48.622 320.678,47.514 322.647,47.514 322.647,41.883 					"/>
				</g>
				<g>
					<rect x="345.862" y="32.479" fill="#878887" width="7.882" height="3.063"/>
				</g>
				<g>
					<rect x="320.678" y="32.479" fill="#878887" width="7.885" height="3.063"/>
				</g>
			</g>
			<g>
				<g>
					<rect x="318.961" y="74.059" fill="#B7B7B7" width="36.668" height="28.484"/>
					<path fill="#070404" d="M356.629,103.543h-38.668V73.059h38.668V103.543z M319.961,101.543h34.668V75.059h-34.668V101.543z"/>
				</g>
				<g>
					<polygon fill="#050001" points="353.912,88.363 353.912,89.656 352.62,89.656 352.62,93.994 345.419,93.994 345.419,97.779 
						341.727,97.779 341.727,101.934 339.789,101.934 338.649,101.934 335.941,101.934 334.895,101.934 332.864,101.934 
						332.864,97.779 329.171,97.779 329.171,93.994 321.972,93.994 321.972,89.656 320.678,89.656 320.678,88.363 322.831,88.363 
						322.831,82.732 320.678,82.732 320.678,81.625 321.91,81.625 321.91,77.654 334.895,77.654 335.941,77.654 338.649,77.654 
						339.789,77.654 352.742,77.654 352.742,81.625 353.912,81.625 353.912,82.732 351.944,82.732 351.944,88.363 					"/>
				</g>
				<g>
					<rect x="320.846" y="94.705" fill="#878887" width="7.882" height="3.063"/>
				</g>
				<g>
					<rect x="346.028" y="94.705" fill="#878887" width="7.884" height="3.063"/>
				</g>
			</g>
		</g>
		<g>
			<g>
				<g>
					<rect x="359.813" y="27.875" fill="#B7B7B7" width="36.668" height="28.484"/>
					<path fill="#070404" d="M358.813,26.875h38.668V57.36h-38.668V26.875z M395.481,28.875h-34.668V55.36h34.668V28.875z"/>
				</g>
				<g>
					<polygon fill="#050001" points="361.53,42.055 361.53,40.762 362.822,40.762 362.822,36.424 370.023,36.424 370.023,32.639 
						373.715,32.639 373.715,28.485 375.655,28.485 376.793,28.485 379.501,28.485 380.547,28.485 382.578,28.485 382.578,32.639 
						386.271,32.639 386.271,36.424 393.47,36.424 393.47,40.762 394.764,40.762 394.764,42.055 392.611,42.055 392.611,47.686 
						394.764,47.686 394.764,48.793 393.533,48.793 393.533,52.764 380.547,52.764 379.501,52.764 376.793,52.764 375.655,52.764 
						362.7,52.764 362.7,48.793 361.53,48.793 361.53,47.686 363.499,47.686 363.499,42.055 					"/>
				</g>
				<g>
					<rect x="386.713" y="32.651" fill="#878887" width="7.883" height="3.063"/>
				</g>
				<g>
					<rect x="361.53" y="32.651" fill="#878887" width="7.884" height="3.063"/>
				</g>
			</g>
			<g>
				<g>
					<rect x="359.813" y="74.23" fill="#B7B7B7" width="36.668" height="28.484"/>
					<path fill="#070404" d="M397.481,103.715h-38.668V73.23h38.668V103.715z M360.813,101.715h34.668V75.23h-34.668V101.715z"/>
				</g>
				<g>
					<polygon fill="#050001" points="394.764,88.535 394.764,89.828 393.472,89.828 393.472,94.166 386.271,94.166 386.271,97.951 
						382.578,97.951 382.578,102.105 380.64,102.105 379.501,102.105 376.793,102.105 375.747,102.105 373.715,102.105 
						373.715,97.951 370.023,97.951 370.023,94.166 362.824,94.166 362.824,89.828 361.53,89.828 361.53,88.535 363.683,88.535 
						363.683,82.904 361.53,82.904 361.53,81.797 362.761,81.797 362.761,77.826 375.747,77.826 376.793,77.826 379.501,77.826 
						380.64,77.826 393.594,77.826 393.594,81.797 394.764,81.797 394.764,82.904 392.795,82.904 392.795,88.535 					"/>
				</g>
				<g>
					<rect x="361.698" y="94.877" fill="#878887" width="7.883" height="3.063"/>
				</g>
				<g>
					<rect x="386.879" y="94.877" fill="#878887" width="7.885" height="3.063"/>
				</g>
			</g>
		</g>
		<g>
			<polygon fill="#BFBEBE" points="265.325,14.339 262.368,19.935 259.414,14.339 			"/>
			<polygon fill="#BFBEBE" points="252.695,19.935 249.741,14.339 246.785,19.935 			"/>
		</g>
		<g>
			<polygon fill="#BFBEBE" points="305.311,14.339 302.354,19.935 299.399,14.339 			"/>
			<polygon fill="#BFBEBE" points="292.682,19.935 289.727,14.339 286.771,19.935 			"/>
		</g>
		<g>
			<polygon fill="#BFBEBE" points="346.297,14.339 343.341,19.935 340.385,14.339 			"/>
			<polygon fill="#BFBEBE" points="333.668,19.935 330.713,14.339 327.757,19.935 			"/>
		</g>
		<g>
			<polygon fill="#BFBEBE" points="386.282,14.339 383.326,19.935 380.372,14.339 			"/>
			<polygon fill="#BFBEBE" points="373.655,19.935 370.7,14.339 367.742,19.935 			"/>
		</g>
	</g>
	<g>
		<g>
			<rect x="406.948" y="21.842" fill="#030000" width="167.455" height="86.044"/>
			<linearGradient id="SVGID_5_" gradientUnits="userSpaceOnUse" x1="408.981" y1="64.9502" x2="572.3677" y2="64.9502">
				<stop  offset="0" style="stop-color:#FFFFFF"/>
				<stop  offset="0.1688" style="stop-color:#B1B4B5"/>
				<stop  offset="0.4086" style="stop-color:#E0E0DF"/>
				<stop  offset="0.7581" style="stop-color:#B1B4B5"/>
				<stop  offset="1" style="stop-color:#C2C2C2"/>
			</linearGradient>
			<rect x="408.981" y="23.506" fill="url(#SVGID_5_)" width="163.387" height="82.888"/>
		</g>
		<g>
			<g>
				<g>
					<rect x="411.155" y="27.36" fill="#B7B7B7" width="36.668" height="28.484"/>
					<path fill="#070404" d="M410.155,26.36h38.668v30.484h-38.668V26.36z M446.823,28.36h-34.668v26.484h34.668V28.36z"/>
				</g>
				<g>
					<polygon fill="#050001" points="412.873,41.54 412.873,40.247 414.165,40.247 414.165,35.909 421.365,35.909 421.365,32.124 
						425.058,32.124 425.058,27.969 426.997,27.969 428.135,27.969 430.844,27.969 431.89,27.969 433.921,27.969 433.921,32.124 
						437.614,32.124 437.614,35.909 444.813,35.909 444.813,40.247 446.106,40.247 446.106,41.54 443.952,41.54 443.952,47.17 
						446.106,47.17 446.106,48.278 444.875,48.278 444.875,52.249 431.89,52.249 430.844,52.249 428.135,52.249 426.997,52.249 
						414.042,52.249 414.042,48.278 412.873,48.278 412.873,47.17 414.841,47.17 414.841,41.54 					"/>
				</g>
				<g>
					<rect x="438.056" y="32.135" fill="#878887" width="7.883" height="3.063"/>
				</g>
				<g>
					<rect x="412.873" y="32.135" fill="#878887" width="7.884" height="3.063"/>
				</g>
			</g>
			<g>
				<g>
					<rect x="411.155" y="73.715" fill="#B7B7B7" width="36.668" height="28.484"/>
					<path fill="#070404" d="M448.823,103.199h-38.668V72.715h38.668V103.199z M412.155,101.199h34.668V74.715h-34.668V101.199z"/>
				</g>
				<g>
					<polygon fill="#050001" points="446.106,88.02 446.106,89.313 444.814,89.313 444.814,93.65 437.614,93.65 437.614,97.436 
						433.921,97.436 433.921,101.59 431.982,101.59 430.844,101.59 428.135,101.59 427.089,101.59 425.058,101.59 425.058,97.436 
						421.365,97.436 421.365,93.65 414.166,93.65 414.166,89.313 412.872,89.313 412.872,88.02 415.025,88.02 415.025,82.389 
						412.872,82.389 412.872,81.281 414.103,81.281 414.103,77.311 427.089,77.311 428.135,77.311 430.844,77.311 431.982,77.311 
						444.937,77.311 444.937,81.281 446.106,81.281 446.106,82.389 444.138,82.389 444.138,88.02 					"/>
				</g>
				<g>
					<rect x="413.04" y="94.361" fill="#878887" width="7.883" height="3.063"/>
				</g>
				<g>
					<rect x="438.222" y="94.361" fill="#878887" width="7.885" height="3.063"/>
				</g>
			</g>
		</g>
		<g>
			<g>
				<g>
					<rect x="452.007" y="27.532" fill="#B7B7B7" width="36.668" height="28.484"/>
					<path fill="#070404" d="M451.007,26.532h38.668v30.484h-38.668V26.532z M487.675,28.532h-34.668v26.484h34.668V28.532z"/>
				</g>
				<g>
					<polygon fill="#050001" points="453.724,41.711 453.724,40.418 455.016,40.418 455.016,36.081 462.217,36.081 462.217,32.295 
						465.909,32.295 465.909,28.141 467.848,28.141 468.987,28.141 471.695,28.141 472.741,28.141 474.772,28.141 474.772,32.295 
						478.465,32.295 478.465,36.081 485.664,36.081 485.664,40.418 486.958,40.418 486.958,41.711 484.805,41.711 484.805,47.342 
						486.958,47.342 486.958,48.45 485.727,48.45 485.727,52.42 472.741,52.42 471.695,52.42 468.987,52.42 467.848,52.42 
						454.894,52.42 454.894,48.45 453.724,48.45 453.724,47.342 455.692,47.342 455.692,41.711 					"/>
				</g>
				<g>
					<rect x="478.907" y="32.307" fill="#878887" width="7.883" height="3.063"/>
				</g>
				<g>
					<rect x="453.724" y="32.307" fill="#878887" width="7.884" height="3.063"/>
				</g>
			</g>
			<g>
				<g>
					<rect x="452.007" y="73.887" fill="#B7B7B7" width="36.668" height="28.484"/>
					<path fill="#070404" d="M489.675,103.371h-38.668V72.887h38.668V103.371z M453.007,101.371h34.668V74.887h-34.668V101.371z"/>
				</g>
				<g>
					<polygon fill="#050001" points="486.958,88.191 486.958,89.484 485.666,89.484 485.666,93.822 478.465,93.822 478.465,97.607 
						474.772,97.607 474.772,101.762 472.834,101.762 471.695,101.762 468.987,101.762 467.94,101.762 465.909,101.762 
						465.909,97.607 462.217,97.607 462.217,93.822 455.018,93.822 455.018,89.484 453.724,89.484 453.724,88.191 455.877,88.191 
						455.877,82.561 453.724,82.561 453.724,81.453 454.955,81.453 454.955,77.482 467.94,77.482 468.987,77.482 471.695,77.482 
						472.834,77.482 485.788,77.482 485.788,81.453 486.958,81.453 486.958,82.561 484.989,82.561 484.989,88.191 					"/>
				</g>
				<g>
					<rect x="453.892" y="94.533" fill="#878887" width="7.883" height="3.063"/>
				</g>
				<g>
					<rect x="479.073" y="94.533" fill="#878887" width="7.885" height="3.063"/>
				</g>
			</g>
		</g>
		<g>
			<g>
				<g>
					<rect x="492.858" y="27.704" fill="#B7B7B7" width="36.668" height="28.484"/>
					<path fill="#070404" d="M491.858,26.704h38.668v30.484h-38.668V26.704z M528.526,28.704h-34.668v26.484h34.668V28.704z"/>
				</g>
				<g>
					<polygon fill="#050001" points="494.576,41.883 494.576,40.59 495.868,40.59 495.868,36.252 503.069,36.252 503.069,32.467 
						506.761,32.467 506.761,28.313 508.7,28.313 509.838,28.313 512.547,28.313 513.593,28.313 515.624,28.313 515.624,32.467 
						519.316,32.467 519.316,36.252 526.516,36.252 526.516,40.59 527.81,40.59 527.81,41.883 525.656,41.883 525.656,47.514 
						527.81,47.514 527.81,48.622 526.578,48.622 526.578,52.592 513.593,52.592 512.547,52.592 509.838,52.592 508.7,52.592 
						495.746,52.592 495.746,48.622 494.576,48.622 494.576,47.514 496.544,47.514 496.544,41.883 					"/>
				</g>
				<g>
					<rect x="519.759" y="32.479" fill="#878887" width="7.883" height="3.063"/>
				</g>
				<g>
					<rect x="494.576" y="32.479" fill="#878887" width="7.884" height="3.063"/>
				</g>
			</g>
			<g>
				<g>
					<rect x="492.858" y="74.059" fill="#B7B7B7" width="36.668" height="28.484"/>
					<path fill="#070404" d="M530.526,103.543h-38.668V73.059h38.668V103.543z M493.858,101.543h34.668V75.059h-34.668V101.543z"/>
				</g>
				<g>
					<polygon fill="#050001" points="527.81,88.363 527.81,89.656 526.518,89.656 526.518,93.994 519.316,93.994 519.316,97.779 
						515.624,97.779 515.624,101.934 513.686,101.934 512.547,101.934 509.838,101.934 508.792,101.934 506.761,101.934 
						506.761,97.779 503.069,97.779 503.069,93.994 495.868,93.994 495.868,89.656 494.575,89.656 494.575,88.363 496.729,88.363 
						496.729,82.732 494.575,82.732 494.575,81.625 495.806,81.625 495.806,77.654 508.792,77.654 509.838,77.654 512.547,77.654 
						513.686,77.654 526.64,77.654 526.64,81.625 527.81,81.625 527.81,82.732 525.841,82.732 525.841,88.363 					"/>
				</g>
				<g>
					<rect x="494.743" y="94.705" fill="#878887" width="7.883" height="3.063"/>
				</g>
				<g>
					<rect x="519.925" y="94.705" fill="#878887" width="7.885" height="3.063"/>
				</g>
			</g>
		</g>
		<g>
			<g>
				<g>
					<rect x="533.709" y="27.875" fill="#B7B7B7" width="36.667" height="28.484"/>
					<path fill="#070404" d="M532.709,26.875h38.667V57.36h-38.667V26.875z M569.377,28.875h-34.667V55.36h34.667V28.875z"/>
				</g>
				<g>
					<polygon fill="#050001" points="535.427,42.055 535.427,40.762 536.719,40.762 536.719,36.424 543.92,36.424 543.92,32.639 
						547.613,32.639 547.613,28.485 549.552,28.485 550.689,28.485 553.398,28.485 554.445,28.485 556.476,28.485 556.476,32.639 
						560.168,32.639 560.168,36.424 567.367,36.424 567.367,40.762 568.66,40.762 568.66,42.055 566.508,42.055 566.508,47.686 
						568.66,47.686 568.66,48.793 567.43,48.793 567.43,52.764 554.445,52.764 553.398,52.764 550.689,52.764 549.552,52.764 
						536.597,52.764 536.597,48.793 535.427,48.793 535.427,47.686 537.395,47.686 537.395,42.055 					"/>
				</g>
				<g>
					<rect x="560.611" y="32.651" fill="#878887" width="7.882" height="3.063"/>
				</g>
				<g>
					<rect x="535.427" y="32.651" fill="#878887" width="7.883" height="3.063"/>
				</g>
			</g>
			<g>
				<g>
					<rect x="533.709" y="74.23" fill="#B7B7B7" width="36.667" height="28.484"/>
					<path fill="#070404" d="M571.377,103.715h-38.667V73.23h38.667V103.715z M534.709,101.715h34.667V75.23h-34.667V101.715z"/>
				</g>
				<g>
					<polygon fill="#050001" points="568.66,88.535 568.66,89.828 567.368,89.828 567.368,94.166 560.168,94.166 560.168,97.951 
						556.476,97.951 556.476,102.105 554.536,102.105 553.398,102.105 550.689,102.105 549.643,102.105 547.613,102.105 
						547.613,97.951 543.92,97.951 543.92,94.166 536.721,94.166 536.721,89.828 535.427,89.828 535.427,88.535 537.58,88.535 
						537.58,82.904 535.427,82.904 535.427,81.797 536.658,81.797 536.658,77.826 549.643,77.826 550.689,77.826 553.398,77.826 
						554.536,77.826 567.491,77.826 567.491,81.797 568.66,81.797 568.66,82.904 566.692,82.904 566.692,88.535 					"/>
				</g>
				<g>
					<rect x="535.594" y="94.877" fill="#878887" width="7.884" height="3.063"/>
				</g>
				<g>
					<rect x="560.776" y="94.877" fill="#878887" width="7.884" height="3.063"/>
				</g>
			</g>
		</g>
		<g>
			<polygon fill="#BFBEBE" points="439.222,14.339 436.264,19.935 433.311,14.339 			"/>
			<polygon fill="#BFBEBE" points="426.593,19.935 423.638,14.339 420.682,19.935 			"/>
		</g>
		<g>
			<polygon fill="#BFBEBE" points="479.208,14.339 476.251,19.935 473.296,14.339 			"/>
			<polygon fill="#BFBEBE" points="466.579,19.935 463.624,14.339 460.668,19.935 			"/>
		</g>
		<g>
			<polygon fill="#BFBEBE" points="520.194,14.339 517.237,19.935 514.282,14.339 			"/>
			<polygon fill="#BFBEBE" points="507.565,19.935 504.611,14.339 501.655,19.935 			"/>
		</g>
		<g>
			<polygon fill="#BFBEBE" points="560.18,14.339 557.224,19.935 554.269,14.339 			"/>
			<polygon fill="#BFBEBE" points="547.552,19.935 544.597,14.339 541.64,19.935 			"/>
		</g>
	</g>
	<rect y="-0.001" fill="#39393A" width="41.235" height="126.142"/>
	<rect x="41.235" y="-0.001" fill="#0B0C0C" width="3.496" height="126.142"/>
	<rect x="41.235" y="-0.001" fill="#030000" width="1.748" height="126.142"/>
	<rect x="1234.354" y="-0.001" fill="#39393A" width="41.236" height="126.142"/>
	<rect x="1230.858" y="-0.001" fill="#0B0C0C" width="3.495" height="126.142"/>
	<rect x="1232.605" y="-0.001" fill="#030000" width="1.748" height="126.142"/>
	<g>
		<g>
			<path fill="#252626" d="M31.859,19.74c0,6.564-5.325,11.891-11.892,11.891c-6.569,0-11.892-5.326-11.892-11.891
				c0-6.566,5.323-11.891,11.892-11.891C26.534,7.849,31.859,13.173,31.859,19.74"/>
			<circle fill="none" stroke="#121212" stroke-width="0.75" stroke-miterlimit="10" cx="19.968" cy="19.74" r="11.892"/>
			<polygon fill="#040000" points="18.498,26.482 18.498,21.207 13.223,21.207 13.223,18.271 18.498,18.271 18.498,12.998 
				21.437,12.998 21.437,18.271 26.712,18.271 26.712,21.207 21.437,21.207 21.437,26.482 			"/>
			<path fill="#221714" d="M21.189,13.244v4.777v0.498h0.496h4.78v2.439h-4.78h-0.496v0.496v4.781h-2.442v-4.781v-0.496h-0.498
				H13.47v-2.439h4.779h0.498v-0.498v-4.777H21.189z M21.685,12.748h-3.436v5.273h-5.274v3.434h5.274v5.275h3.436v-5.275h5.274
				v-3.434h-5.274V12.748z"/>
		</g>
		<rect x="18.249" y="12.748" fill="#606062" width="0.498" height="5.771"/>
		<rect x="12.974" y="18.021" fill="#606062" width="5.769" height="0.498"/>
	</g>
	<g>
		<g>
			<path fill="#252626" d="M31.859,102.479c0,6.563-5.325,11.889-11.892,11.889c-6.569,0-11.892-5.326-11.892-11.889
				c0-6.568,5.323-11.893,11.892-11.893C26.534,90.586,31.859,95.91,31.859,102.479"/>
			<path fill="none" stroke="#121212" stroke-width="0.75" stroke-miterlimit="10" d="M31.859,102.479
				c0,6.563-5.325,11.889-11.892,11.889c-6.569,0-11.892-5.326-11.892-11.889c0-6.568,5.323-11.893,11.892-11.893
				C26.534,90.586,31.859,95.91,31.859,102.479z"/>
			<polygon fill="#040000" points="18.498,109.219 18.498,103.943 13.223,103.943 13.223,101.008 18.498,101.008 18.498,95.734 
				21.437,95.734 21.437,101.008 26.712,101.008 26.712,103.943 21.437,103.943 21.437,109.219 			"/>
			<path fill="#221714" d="M21.189,95.98v4.777v0.498h0.496h4.78v2.439h-4.78h-0.496v0.496v4.781h-2.442v-4.781v-0.496h-0.498H13.47
				v-2.439h4.779h0.498v-0.498V95.98H21.189z M21.685,95.484h-3.436v5.273h-5.274v3.434h5.274v5.275h3.436v-5.275h5.274v-3.434
				h-5.274V95.484z"/>
		</g>
		<rect x="18.249" y="95.484" fill="#606062" width="0.498" height="5.771"/>
		<rect x="12.974" y="100.758" fill="#606062" width="5.769" height="0.498"/>
	</g>
	<g>
		<g>
			<g>
				<path fill="#252626" d="M1263.066,19.74c0,6.564-5.324,11.891-11.892,11.891c-6.568,0-11.892-5.326-11.892-11.891
					c0-6.566,5.323-11.891,11.892-11.891C1257.742,7.849,1263.066,13.173,1263.066,19.74"/>
				<circle fill="none" stroke="#121212" stroke-width="0.75" stroke-miterlimit="10" cx="1251.175" cy="19.74" r="11.892"/>
				<polygon fill="#040000" points="1249.705,26.482 1249.705,21.207 1244.43,21.207 1244.43,18.271 1249.705,18.271 
					1249.705,12.998 1252.645,12.998 1252.645,18.271 1257.92,18.271 1257.92,21.207 1252.645,21.207 1252.645,26.482 				"/>
				<path fill="#221714" d="M1252.396,13.244v4.777v0.498h0.496h4.779v2.439h-4.779h-0.496v0.496v4.781h-2.443v-4.781v-0.496h-0.497
					h-4.778v-2.439h4.778h0.497v-0.498v-4.777H1252.396z M1252.893,12.748h-3.437v5.273h-5.274v3.434h5.274v5.275h3.437v-5.275
					h5.274v-3.434h-5.274V12.748z"/>
			</g>
			<rect x="1249.456" y="12.748" fill="#606062" width="0.497" height="5.771"/>
			<rect x="1244.182" y="18.021" fill="#606062" width="5.77" height="0.498"/>
		</g>
		<g>
			<g>
				<path fill="#252626" d="M1263.066,102.479c0,6.563-5.324,11.889-11.892,11.889c-6.568,0-11.892-5.326-11.892-11.889
					c0-6.568,5.323-11.893,11.892-11.893C1257.742,90.586,1263.066,95.91,1263.066,102.479"/>
				<path fill="none" stroke="#121212" stroke-width="0.75" stroke-miterlimit="10" d="M1263.066,102.479
					c0,6.563-5.324,11.889-11.892,11.889c-6.568,0-11.892-5.326-11.892-11.889c0-6.568,5.323-11.893,11.892-11.893
					C1257.742,90.586,1263.066,95.91,1263.066,102.479z"/>
				<polygon fill="#040000" points="1249.705,109.219 1249.705,103.943 1244.43,103.943 1244.43,101.008 1249.705,101.008 
					1249.705,95.734 1252.645,95.734 1252.645,101.008 1257.92,101.008 1257.92,103.943 1252.645,103.943 1252.645,109.219 				"/>
				<path fill="#221714" d="M1252.396,95.98v4.777v0.498h0.496h4.779v2.439h-4.779h-0.496v0.496v4.781h-2.443v-4.781v-0.496h-0.497
					h-4.778v-2.439h4.778h0.497v-0.498V95.98H1252.396z M1252.893,95.484h-3.437v5.273h-5.274v3.434h5.274v5.275h3.437v-5.275h5.274
					v-3.434h-5.274V95.484z"/>
			</g>
			<rect x="1249.456" y="95.484" fill="#606062" width="0.497" height="5.771"/>
			<rect x="1244.182" y="100.758" fill="#606062" width="5.77" height="0.498"/>
		</g>
	</g>
	<g>
		<rect x="585.535" y="74.432" fill="#141209" width="45.75" height="32.031"/>
		<rect x="588.285" y="76.359" fill="#141209" width="40.25" height="28.18"/>
		<rect x="601.035" y="101.107" fill="#878888" width="14.75" height="3.432"/>
		<path fill="#878888" d="M631.285,87.588v-4.75h-1.75v-7.479h-5.25v-0.928h-5.125v0.928h-8.187v-0.928h-5.125v0.928h-8.188v-0.928
			h-5.125v0.928h-5.25v7.479h-1.75v4.75h1.75v6.289h-1.75v4.75h1.75v6.912h42.25v-6.912h1.75v-4.75h-1.75v-6.289H631.285z
			 M627.535,103.539h-38.25v-26.18h38.25V103.539z"/>
		<path fill="#141209" d="M616.846,105.598h-16.87v-5.551h16.87V105.598z M602.096,103.479h12.63v-1.311h-12.63V103.479z"/>
	</g>
	<g>
		<rect x="631.936" y="74.434" fill="#141209" width="45.75" height="32.031"/>
		<rect x="634.686" y="76.359" fill="#141209" width="40.25" height="28.18"/>
		<rect x="647.436" y="101.109" fill="#878888" width="14.75" height="3.43"/>
		<path fill="#878888" d="M677.686,87.59v-4.75h-1.75v-7.48h-5.25v-0.926h-5.124v0.926h-8.187v-0.926h-5.125v0.926h-8.188v-0.926
			h-5.125v0.926h-5.25v7.48h-1.75v4.75h1.75v6.287h-1.75v4.75h1.75v6.912h42.25v-6.912h1.75v-4.75h-1.75V87.59H677.686z
			 M673.936,103.539h-38.25v-26.18h38.25V103.539z"/>
		<path fill="#141209" d="M663.247,105.6h-16.87v-5.553h16.87V105.6z M648.498,103.479h12.629v-1.311h-12.629V103.479z"/>
	</g>
	<g>
		<rect x="678.337" y="74.434" fill="#141209" width="45.749" height="32.031"/>
		<rect x="681.086" y="76.361" fill="#141209" width="40.251" height="28.18"/>
		<rect x="693.837" y="101.109" fill="#878888" width="14.75" height="3.432"/>
		<path fill="#878888" d="M724.086,87.59v-4.75h-1.749v-7.479h-5.251v-0.928h-5.123v0.928h-8.188v-0.928h-5.124v0.928h-8.188v-0.928
			h-5.126v0.928h-5.251v7.479h-1.749v4.75h1.749v6.289h-1.749v4.75h1.749v6.912h42.251v-6.912h1.749v-4.75h-1.749V87.59H724.086z
			 M720.337,103.541h-38.251v-26.18h38.251V103.541z"/>
		<path fill="#141209" d="M709.648,105.6h-16.871v-5.551h16.871V105.6z M694.898,103.48h12.629v-1.311h-12.629V103.48z"/>
	</g>
	<g>
		<rect x="724.738" y="74.436" fill="#141209" width="45.75" height="32.031"/>
		<rect x="727.488" y="76.361" fill="#141209" width="40.25" height="28.18"/>
		<rect x="740.238" y="101.111" fill="#878888" width="14.75" height="3.43"/>
		<path fill="#878888" d="M770.488,87.592v-4.75h-1.75v-7.48h-5.25v-0.926h-5.125v0.926h-8.187v-0.926h-5.126v0.926h-8.188v-0.926
			h-5.125v0.926h-5.25v7.48h-1.75v4.75h1.75v6.287h-1.75v4.75h1.75v6.912h42.25v-6.912h1.75v-4.75h-1.75v-6.287H770.488z
			 M766.738,103.541h-38.25v-26.18h38.25V103.541z"/>
		<path fill="#141209" d="M756.049,105.602h-16.871v-5.553h16.871V105.602z M741.3,103.48h12.628v-1.311H741.3V103.48z"/>
	</g>
	<g>
		<g>
			<radialGradient id="SVGID_6_" cx="917.2051" cy="39.1362" r="4.2939" gradientUnits="userSpaceOnUse">
				<stop  offset="0" style="stop-color:#FFFFFF"/>
				<stop  offset="1" style="stop-color:#8DC21F"/>
			</radialGradient>
			<circle fill="url(#SVGID_6_)" stroke="#030000" stroke-width="0.5" stroke-miterlimit="10" cx="917.206" cy="39.136" r="4.293"/>
			<radialGradient id="SVGID_7_" cx="930.5137" cy="39.1362" r="4.2935" gradientUnits="userSpaceOnUse">
				<stop  offset="0" style="stop-color:#FFFFFF"/>
				<stop  offset="1" style="stop-color:#8DC21F"/>
			</radialGradient>
			<circle fill="url(#SVGID_7_)" stroke="#030000" stroke-width="0.5" stroke-miterlimit="10" cx="930.514" cy="39.136" r="4.293"/>
			<radialGradient id="SVGID_8_" cx="943.8223" cy="39.1362" r="4.2935" gradientUnits="userSpaceOnUse">
				<stop  offset="0" style="stop-color:#FFFFFF"/>
				<stop  offset="1" style="stop-color:#8DC21F"/>
			</radialGradient>
			<circle fill="url(#SVGID_8_)" stroke="#030000" stroke-width="0.5" stroke-miterlimit="10" cx="943.822" cy="39.136" r="4.293"/>
			<radialGradient id="SVGID_9_" cx="957.1309" cy="39.1362" r="4.2935" gradientUnits="userSpaceOnUse">
				<stop  offset="0" style="stop-color:#FFFFFF"/>
				<stop  offset="1" style="stop-color:#8DC21F"/>
			</radialGradient>
			<circle fill="url(#SVGID_9_)" stroke="#030000" stroke-width="0.5" stroke-miterlimit="10" cx="957.13" cy="39.136" r="4.293"/>
			<radialGradient id="SVGID_10_" cx="970.4385" cy="39.1362" r="4.2939" gradientUnits="userSpaceOnUse">
				<stop  offset="0" style="stop-color:#FFFFFF"/>
				<stop  offset="1" style="stop-color:#8DC21F"/>
			</radialGradient>
			
				<circle fill="url(#SVGID_10_)" stroke="#030000" stroke-width="0.5" stroke-miterlimit="10" cx="970.438" cy="39.136" r="4.294"/>
			<radialGradient id="SVGID_11_" cx="983.7461" cy="39.1362" r="4.2939" gradientUnits="userSpaceOnUse">
				<stop  offset="0" style="stop-color:#FFFFFF"/>
				<stop  offset="1" style="stop-color:#8DC21F"/>
			</radialGradient>
			
				<circle fill="url(#SVGID_11_)" stroke="#030000" stroke-width="0.5" stroke-miterlimit="10" cx="983.747" cy="39.136" r="4.293"/>
			<radialGradient id="SVGID_12_" cx="997.0547" cy="39.1362" r="4.2935" gradientUnits="userSpaceOnUse">
				<stop  offset="0" style="stop-color:#FFFFFF"/>
				<stop  offset="1" style="stop-color:#8DC21F"/>
			</radialGradient>
			
				<circle fill="url(#SVGID_12_)" stroke="#030000" stroke-width="0.5" stroke-miterlimit="10" cx="997.054" cy="39.136" r="4.293"/>
			<radialGradient id="SVGID_13_" cx="1010.3633" cy="39.1362" r="4.2935" gradientUnits="userSpaceOnUse">
				<stop  offset="0" style="stop-color:#FFFFFF"/>
				<stop  offset="1" style="stop-color:#8DC21F"/>
			</radialGradient>
			
				<circle fill="url(#SVGID_13_)" stroke="#030000" stroke-width="0.5" stroke-miterlimit="10" cx="1010.363" cy="39.136" r="4.293"/>
			<radialGradient id="SVGID_14_" cx="1023.6709" cy="39.1362" r="4.2939" gradientUnits="userSpaceOnUse">
				<stop  offset="0" style="stop-color:#FFFFFF"/>
				<stop  offset="1" style="stop-color:#8DC21F"/>
			</radialGradient>
			
				<circle fill="url(#SVGID_14_)" stroke="#030000" stroke-width="0.5" stroke-miterlimit="10" cx="1023.671" cy="39.136" r="4.294"/>
			<radialGradient id="SVGID_15_" cx="1036.9785" cy="39.1362" r="4.2935" gradientUnits="userSpaceOnUse">
				<stop  offset="0" style="stop-color:#FFFFFF"/>
				<stop  offset="1" style="stop-color:#8DC21F"/>
			</radialGradient>
			
				<circle fill="url(#SVGID_15_)" stroke="#030000" stroke-width="0.5" stroke-miterlimit="10" cx="1036.979" cy="39.136" r="4.293"/>
			<radialGradient id="SVGID_16_" cx="1050.2871" cy="39.1362" r="4.2935" gradientUnits="userSpaceOnUse">
				<stop  offset="0" style="stop-color:#FFFFFF"/>
				<stop  offset="1" style="stop-color:#8DC21F"/>
			</radialGradient>
			
				<circle fill="url(#SVGID_16_)" stroke="#030000" stroke-width="0.5" stroke-miterlimit="10" cx="1050.287" cy="39.136" r="4.293"/>
			<radialGradient id="SVGID_17_" cx="1063.5957" cy="39.1362" r="4.2935" gradientUnits="userSpaceOnUse">
				<stop  offset="0" style="stop-color:#FFFFFF"/>
				<stop  offset="1" style="stop-color:#8DC21F"/>
			</radialGradient>
			
				<circle fill="url(#SVGID_17_)" stroke="#030000" stroke-width="0.5" stroke-miterlimit="10" cx="1063.595" cy="39.136" r="4.293"/>
			<radialGradient id="SVGID_18_" cx="1076.9033" cy="39.1362" r="4.2939" gradientUnits="userSpaceOnUse">
				<stop  offset="0" style="stop-color:#FFFFFF"/>
				<stop  offset="1" style="stop-color:#8DC21F"/>
			</radialGradient>
			
				<circle fill="url(#SVGID_18_)" stroke="#030000" stroke-width="0.5" stroke-miterlimit="10" cx="1076.903" cy="39.136" r="4.294"/>
			<radialGradient id="SVGID_19_" cx="1090.2109" cy="39.1362" r="4.2939" gradientUnits="userSpaceOnUse">
				<stop  offset="0" style="stop-color:#FFFFFF"/>
				<stop  offset="1" style="stop-color:#8DC21F"/>
			</radialGradient>
			
				<circle fill="url(#SVGID_19_)" stroke="#030000" stroke-width="0.5" stroke-miterlimit="10" cx="1090.211" cy="39.136" r="4.293"/>
		</g>
		<g>
			<radialGradient id="SVGID_20_" cx="917.2051" cy="51.9087" r="4.2939" gradientUnits="userSpaceOnUse">
				<stop  offset="0" style="stop-color:#FFFFFF"/>
				<stop  offset="1" style="stop-color:#8DC21F"/>
			</radialGradient>
			
				<circle fill="url(#SVGID_20_)" stroke="#030000" stroke-width="0.5" stroke-miterlimit="10" cx="917.206" cy="51.909" r="4.293"/>
			<radialGradient id="SVGID_21_" cx="930.5137" cy="51.9087" r="4.2935" gradientUnits="userSpaceOnUse">
				<stop  offset="0" style="stop-color:#FFFFFF"/>
				<stop  offset="1" style="stop-color:#8DC21F"/>
			</radialGradient>
			
				<circle fill="url(#SVGID_21_)" stroke="#030000" stroke-width="0.5" stroke-miterlimit="10" cx="930.514" cy="51.909" r="4.293"/>
			<radialGradient id="SVGID_22_" cx="943.8223" cy="51.9087" r="4.2935" gradientUnits="userSpaceOnUse">
				<stop  offset="0" style="stop-color:#FFFFFF"/>
				<stop  offset="1" style="stop-color:#8DC21F"/>
			</radialGradient>
			
				<circle fill="url(#SVGID_22_)" stroke="#030000" stroke-width="0.5" stroke-miterlimit="10" cx="943.822" cy="51.909" r="4.293"/>
			<radialGradient id="SVGID_23_" cx="957.1309" cy="51.9087" r="4.2935" gradientUnits="userSpaceOnUse">
				<stop  offset="0" style="stop-color:#FFFFFF"/>
				<stop  offset="1" style="stop-color:#8DC21F"/>
			</radialGradient>
			<circle fill="url(#SVGID_23_)" stroke="#030000" stroke-width="0.5" stroke-miterlimit="10" cx="957.13" cy="51.909" r="4.293"/>
			<radialGradient id="SVGID_24_" cx="970.4385" cy="51.9087" r="4.2939" gradientUnits="userSpaceOnUse">
				<stop  offset="0" style="stop-color:#FFFFFF"/>
				<stop  offset="1" style="stop-color:#8DC21F"/>
			</radialGradient>
			
				<circle fill="url(#SVGID_24_)" stroke="#030000" stroke-width="0.5" stroke-miterlimit="10" cx="970.438" cy="51.909" r="4.294"/>
			<radialGradient id="SVGID_25_" cx="983.7461" cy="51.9087" r="4.2939" gradientUnits="userSpaceOnUse">
				<stop  offset="0" style="stop-color:#FFFFFF"/>
				<stop  offset="1" style="stop-color:#8DC21F"/>
			</radialGradient>
			
				<circle fill="url(#SVGID_25_)" stroke="#030000" stroke-width="0.5" stroke-miterlimit="10" cx="983.747" cy="51.909" r="4.293"/>
			<radialGradient id="SVGID_26_" cx="997.0547" cy="51.9087" r="4.2935" gradientUnits="userSpaceOnUse">
				<stop  offset="0" style="stop-color:#FFFFFF"/>
				<stop  offset="1" style="stop-color:#8DC21F"/>
			</radialGradient>
			
				<circle fill="url(#SVGID_26_)" stroke="#030000" stroke-width="0.5" stroke-miterlimit="10" cx="997.054" cy="51.909" r="4.293"/>
			<radialGradient id="SVGID_27_" cx="1010.3633" cy="51.9087" r="4.2935" gradientUnits="userSpaceOnUse">
				<stop  offset="0" style="stop-color:#FFFFFF"/>
				<stop  offset="1" style="stop-color:#8DC21F"/>
			</radialGradient>
			
				<circle fill="url(#SVGID_27_)" stroke="#030000" stroke-width="0.5" stroke-miterlimit="10" cx="1010.363" cy="51.909" r="4.293"/>
			<radialGradient id="SVGID_28_" cx="1023.6709" cy="51.9087" r="4.2939" gradientUnits="userSpaceOnUse">
				<stop  offset="0" style="stop-color:#FFFFFF"/>
				<stop  offset="1" style="stop-color:#8DC21F"/>
			</radialGradient>
			
				<circle fill="url(#SVGID_28_)" stroke="#030000" stroke-width="0.5" stroke-miterlimit="10" cx="1023.671" cy="51.909" r="4.294"/>
			<radialGradient id="SVGID_29_" cx="1036.9785" cy="51.9087" r="4.2935" gradientUnits="userSpaceOnUse">
				<stop  offset="0" style="stop-color:#FFFFFF"/>
				<stop  offset="1" style="stop-color:#8DC21F"/>
			</radialGradient>
			
				<circle fill="url(#SVGID_29_)" stroke="#030000" stroke-width="0.5" stroke-miterlimit="10" cx="1036.979" cy="51.909" r="4.293"/>
			<radialGradient id="SVGID_30_" cx="1050.2871" cy="51.9087" r="4.2935" gradientUnits="userSpaceOnUse">
				<stop  offset="0" style="stop-color:#FFFFFF"/>
				<stop  offset="1" style="stop-color:#8DC21F"/>
			</radialGradient>
			
				<circle fill="url(#SVGID_30_)" stroke="#030000" stroke-width="0.5" stroke-miterlimit="10" cx="1050.287" cy="51.909" r="4.293"/>
			<radialGradient id="SVGID_31_" cx="1063.5957" cy="51.9087" r="4.2935" gradientUnits="userSpaceOnUse">
				<stop  offset="0" style="stop-color:#FFFFFF"/>
				<stop  offset="1" style="stop-color:#8DC21F"/>
			</radialGradient>
			
				<circle fill="url(#SVGID_31_)" stroke="#030000" stroke-width="0.5" stroke-miterlimit="10" cx="1063.595" cy="51.909" r="4.293"/>
			<radialGradient id="SVGID_32_" cx="1076.9033" cy="51.9087" r="4.2939" gradientUnits="userSpaceOnUse">
				<stop  offset="0" style="stop-color:#FFFFFF"/>
				<stop  offset="1" style="stop-color:#8DC21F"/>
			</radialGradient>
			
				<circle fill="url(#SVGID_32_)" stroke="#030000" stroke-width="0.5" stroke-miterlimit="10" cx="1076.903" cy="51.909" r="4.294"/>
			<radialGradient id="SVGID_33_" cx="1090.2109" cy="51.9087" r="4.2939" gradientUnits="userSpaceOnUse">
				<stop  offset="0" style="stop-color:#FFFFFF"/>
				<stop  offset="1" style="stop-color:#8DC21F"/>
			</radialGradient>
			
				<circle fill="url(#SVGID_33_)" stroke="#030000" stroke-width="0.5" stroke-miterlimit="10" cx="1090.211" cy="51.909" r="4.293"/>
		</g>
	</g>
	<g>
		<radialGradient id="SVGID_34_" cx="917.2051" cy="75.6572" r="4.2939" gradientUnits="userSpaceOnUse">
			<stop  offset="0" style="stop-color:#FFFFFF"/>
			<stop  offset="1" style="stop-color:#8DC21F"/>
		</radialGradient>
		<circle fill="url(#SVGID_34_)" stroke="#030000" stroke-width="0.5" stroke-miterlimit="10" cx="917.206" cy="75.658" r="4.293"/>
		<radialGradient id="SVGID_35_" cx="930.5137" cy="75.6572" r="4.2935" gradientUnits="userSpaceOnUse">
			<stop  offset="0" style="stop-color:#FFFFFF"/>
			<stop  offset="1" style="stop-color:#8DC21F"/>
		</radialGradient>
		<circle fill="url(#SVGID_35_)" stroke="#030000" stroke-width="0.5" stroke-miterlimit="10" cx="930.514" cy="75.658" r="4.293"/>
		<radialGradient id="SVGID_36_" cx="943.8223" cy="75.6572" r="4.2935" gradientUnits="userSpaceOnUse">
			<stop  offset="0" style="stop-color:#FFFFFF"/>
			<stop  offset="1" style="stop-color:#8DC21F"/>
		</radialGradient>
		<circle fill="url(#SVGID_36_)" stroke="#030000" stroke-width="0.5" stroke-miterlimit="10" cx="943.822" cy="75.658" r="4.293"/>
		<radialGradient id="SVGID_37_" cx="957.1309" cy="75.6572" r="4.2935" gradientUnits="userSpaceOnUse">
			<stop  offset="0" style="stop-color:#FFFFFF"/>
			<stop  offset="1" style="stop-color:#8DC21F"/>
		</radialGradient>
		<circle fill="url(#SVGID_37_)" stroke="#030000" stroke-width="0.5" stroke-miterlimit="10" cx="957.13" cy="75.658" r="4.293"/>
		<radialGradient id="SVGID_38_" cx="970.4385" cy="75.6572" r="4.2939" gradientUnits="userSpaceOnUse">
			<stop  offset="0" style="stop-color:#FFFFFF"/>
			<stop  offset="1" style="stop-color:#8DC21F"/>
		</radialGradient>
		<circle fill="url(#SVGID_38_)" stroke="#030000" stroke-width="0.5" stroke-miterlimit="10" cx="970.438" cy="75.658" r="4.294"/>
		<radialGradient id="SVGID_39_" cx="983.7461" cy="75.6572" r="4.2939" gradientUnits="userSpaceOnUse">
			<stop  offset="0" style="stop-color:#FFFFFF"/>
			<stop  offset="1" style="stop-color:#8DC21F"/>
		</radialGradient>
		<circle fill="url(#SVGID_39_)" stroke="#030000" stroke-width="0.5" stroke-miterlimit="10" cx="983.747" cy="75.658" r="4.293"/>
		<radialGradient id="SVGID_40_" cx="997.0547" cy="75.6572" r="4.2935" gradientUnits="userSpaceOnUse">
			<stop  offset="0" style="stop-color:#FFFFFF"/>
			<stop  offset="1" style="stop-color:#8DC21F"/>
		</radialGradient>
		<circle fill="url(#SVGID_40_)" stroke="#030000" stroke-width="0.5" stroke-miterlimit="10" cx="997.054" cy="75.658" r="4.293"/>
		<radialGradient id="SVGID_41_" cx="1010.3633" cy="75.6572" r="4.2935" gradientUnits="userSpaceOnUse">
			<stop  offset="0" style="stop-color:#FFFFFF"/>
			<stop  offset="1" style="stop-color:#8DC21F"/>
		</radialGradient>
		
			<circle fill="url(#SVGID_41_)" stroke="#030000" stroke-width="0.5" stroke-miterlimit="10" cx="1010.363" cy="75.658" r="4.293"/>
		<radialGradient id="SVGID_42_" cx="1023.6709" cy="75.6572" r="4.2939" gradientUnits="userSpaceOnUse">
			<stop  offset="0" style="stop-color:#FFFFFF"/>
			<stop  offset="1" style="stop-color:#8DC21F"/>
		</radialGradient>
		
			<circle fill="url(#SVGID_42_)" stroke="#030000" stroke-width="0.5" stroke-miterlimit="10" cx="1023.671" cy="75.658" r="4.294"/>
		<radialGradient id="SVGID_43_" cx="1036.9785" cy="75.6572" r="4.2935" gradientUnits="userSpaceOnUse">
			<stop  offset="0" style="stop-color:#FFFFFF"/>
			<stop  offset="1" style="stop-color:#8DC21F"/>
		</radialGradient>
		
			<circle fill="url(#SVGID_43_)" stroke="#030000" stroke-width="0.5" stroke-miterlimit="10" cx="1036.979" cy="75.658" r="4.293"/>
		<radialGradient id="SVGID_44_" cx="1050.2871" cy="75.6572" r="4.2935" gradientUnits="userSpaceOnUse">
			<stop  offset="0" style="stop-color:#FFFFFF"/>
			<stop  offset="1" style="stop-color:#8DC21F"/>
		</radialGradient>
		
			<circle fill="url(#SVGID_44_)" stroke="#030000" stroke-width="0.5" stroke-miterlimit="10" cx="1050.287" cy="75.658" r="4.293"/>
		<radialGradient id="SVGID_45_" cx="1063.5957" cy="75.6572" r="4.2935" gradientUnits="userSpaceOnUse">
			<stop  offset="0" style="stop-color:#FFFFFF"/>
			<stop  offset="1" style="stop-color:#8DC21F"/>
		</radialGradient>
		
			<circle fill="url(#SVGID_45_)" stroke="#030000" stroke-width="0.5" stroke-miterlimit="10" cx="1063.595" cy="75.658" r="4.293"/>
		<radialGradient id="SVGID_46_" cx="1076.9033" cy="75.6572" r="4.2939" gradientUnits="userSpaceOnUse">
			<stop  offset="0" style="stop-color:#FFFFFF"/>
			<stop  offset="1" style="stop-color:#8DC21F"/>
		</radialGradient>
		
			<circle fill="url(#SVGID_46_)" stroke="#030000" stroke-width="0.5" stroke-miterlimit="10" cx="1076.903" cy="75.658" r="4.294"/>
		<radialGradient id="SVGID_47_" cx="1090.2109" cy="75.6572" r="4.2939" gradientUnits="userSpaceOnUse">
			<stop  offset="0" style="stop-color:#FFFFFF"/>
			<stop  offset="1" style="stop-color:#8DC21F"/>
		</radialGradient>
		
			<circle fill="url(#SVGID_47_)" stroke="#030000" stroke-width="0.5" stroke-miterlimit="10" cx="1090.211" cy="75.658" r="4.293"/>
	</g>
	<radialGradient id="SVGID_48_" cx="917.2051" cy="88.4287" r="4.2939" gradientUnits="userSpaceOnUse">
		<stop  offset="0" style="stop-color:#FFFFFF"/>
		<stop  offset="1" style="stop-color:#8DC21F"/>
	</radialGradient>
	<circle fill="url(#SVGID_48_)" stroke="#030000" stroke-width="0.5" stroke-miterlimit="10" cx="917.206" cy="88.43" r="4.293"/>
	<radialGradient id="SVGID_49_" cx="930.5137" cy="88.4287" r="4.2935" gradientUnits="userSpaceOnUse">
		<stop  offset="0" style="stop-color:#FFFFFF"/>
		<stop  offset="1" style="stop-color:#8DC21F"/>
	</radialGradient>
	<circle fill="url(#SVGID_49_)" stroke="#030000" stroke-width="0.5" stroke-miterlimit="10" cx="930.514" cy="88.43" r="4.293"/>
	<radialGradient id="SVGID_50_" cx="943.8223" cy="88.4287" r="4.2935" gradientUnits="userSpaceOnUse">
		<stop  offset="0" style="stop-color:#FFFFFF"/>
		<stop  offset="1" style="stop-color:#8DC21F"/>
	</radialGradient>
	<circle fill="url(#SVGID_50_)" stroke="#030000" stroke-width="0.5" stroke-miterlimit="10" cx="943.822" cy="88.43" r="4.293"/>
	<radialGradient id="SVGID_51_" cx="957.1309" cy="88.4287" r="4.2935" gradientUnits="userSpaceOnUse">
		<stop  offset="0" style="stop-color:#FFFFFF"/>
		<stop  offset="1" style="stop-color:#8DC21F"/>
	</radialGradient>
	<circle fill="url(#SVGID_51_)" stroke="#030000" stroke-width="0.5" stroke-miterlimit="10" cx="957.13" cy="88.43" r="4.293"/>
	<radialGradient id="SVGID_52_" cx="970.4385" cy="88.4287" r="4.2939" gradientUnits="userSpaceOnUse">
		<stop  offset="0" style="stop-color:#FFFFFF"/>
		<stop  offset="1" style="stop-color:#8DC21F"/>
	</radialGradient>
	<circle fill="url(#SVGID_52_)" stroke="#030000" stroke-width="0.5" stroke-miterlimit="10" cx="970.438" cy="88.43" r="4.294"/>
	<radialGradient id="SVGID_53_" cx="983.7461" cy="88.4287" r="4.2939" gradientUnits="userSpaceOnUse">
		<stop  offset="0" style="stop-color:#FFFFFF"/>
		<stop  offset="1" style="stop-color:#8DC21F"/>
	</radialGradient>
	<circle fill="url(#SVGID_53_)" stroke="#030000" stroke-width="0.5" stroke-miterlimit="10" cx="983.747" cy="88.43" r="4.293"/>
	<radialGradient id="SVGID_54_" cx="997.0547" cy="88.4287" r="4.2935" gradientUnits="userSpaceOnUse">
		<stop  offset="0" style="stop-color:#FFFFFF"/>
		<stop  offset="1" style="stop-color:#8DC21F"/>
	</radialGradient>
	<circle fill="url(#SVGID_54_)" stroke="#030000" stroke-width="0.5" stroke-miterlimit="10" cx="997.054" cy="88.43" r="4.293"/>
	<radialGradient id="SVGID_55_" cx="1010.3633" cy="88.4287" r="4.2935" gradientUnits="userSpaceOnUse">
		<stop  offset="0" style="stop-color:#FFFFFF"/>
		<stop  offset="1" style="stop-color:#8DC21F"/>
	</radialGradient>
	<circle fill="url(#SVGID_55_)" stroke="#030000" stroke-width="0.5" stroke-miterlimit="10" cx="1010.363" cy="88.43" r="4.293"/>
	<radialGradient id="SVGID_56_" cx="1023.6709" cy="88.4287" r="4.2939" gradientUnits="userSpaceOnUse">
		<stop  offset="0" style="stop-color:#FFFFFF"/>
		<stop  offset="1" style="stop-color:#8DC21F"/>
	</radialGradient>
	<circle fill="url(#SVGID_56_)" stroke="#030000" stroke-width="0.5" stroke-miterlimit="10" cx="1023.671" cy="88.43" r="4.294"/>
	<radialGradient id="SVGID_57_" cx="1036.9785" cy="88.4287" r="4.2935" gradientUnits="userSpaceOnUse">
		<stop  offset="0" style="stop-color:#FFFFFF"/>
		<stop  offset="1" style="stop-color:#8DC21F"/>
	</radialGradient>
	<circle fill="url(#SVGID_57_)" stroke="#030000" stroke-width="0.5" stroke-miterlimit="10" cx="1036.979" cy="88.43" r="4.293"/>
	<radialGradient id="SVGID_58_" cx="1050.2871" cy="88.4287" r="4.2935" gradientUnits="userSpaceOnUse">
		<stop  offset="0" style="stop-color:#FFFFFF"/>
		<stop  offset="1" style="stop-color:#8DC21F"/>
	</radialGradient>
	<circle fill="url(#SVGID_58_)" stroke="#030000" stroke-width="0.5" stroke-miterlimit="10" cx="1050.287" cy="88.43" r="4.293"/>
	<radialGradient id="SVGID_59_" cx="1063.5957" cy="88.4287" r="4.2935" gradientUnits="userSpaceOnUse">
		<stop  offset="0" style="stop-color:#FFFFFF"/>
		<stop  offset="1" style="stop-color:#8DC21F"/>
	</radialGradient>
	<circle fill="url(#SVGID_59_)" stroke="#030000" stroke-width="0.5" stroke-miterlimit="10" cx="1063.595" cy="88.43" r="4.293"/>
	<radialGradient id="SVGID_60_" cx="1076.9033" cy="88.4287" r="4.2939" gradientUnits="userSpaceOnUse">
		<stop  offset="0" style="stop-color:#FFFFFF"/>
		<stop  offset="1" style="stop-color:#8DC21F"/>
	</radialGradient>
	<circle fill="url(#SVGID_60_)" stroke="#030000" stroke-width="0.5" stroke-miterlimit="10" cx="1076.903" cy="88.43" r="4.294"/>
	<radialGradient id="SVGID_61_" cx="1090.2109" cy="88.4287" r="4.2939" gradientUnits="userSpaceOnUse">
		<stop  offset="0" style="stop-color:#FFFFFF"/>
		<stop  offset="1" style="stop-color:#8DC21F"/>
	</radialGradient>
	<circle fill="url(#SVGID_61_)" stroke="#030000" stroke-width="0.5" stroke-miterlimit="10" cx="1090.211" cy="88.43" r="4.293"/>
	<radialGradient id="SVGID_62_" cx="1112.6104" cy="88.4287" r="4.2939" gradientUnits="userSpaceOnUse">
		<stop  offset="0" style="stop-color:#FFFFFF"/>
		<stop  offset="1" style="stop-color:#8DC21F"/>
	</radialGradient>
	<circle fill="url(#SVGID_62_)" stroke="#030000" stroke-width="0.5" stroke-miterlimit="10" cx="1112.61" cy="88.43" r="4.294"/>
	<polyline fill="none" stroke="#FFFFFF" stroke-miterlimit="10" points="1029.195,26.474 1090.835,26.522 1090.835,31.485 	"/>
	<polyline fill="none" stroke="#FFFFFF" stroke-miterlimit="10" points="917.013,31.485 917.013,26.408 983.861,26.451 	"/>
</g>
</svg>
