<?xml version="1.0" encoding="utf-8"?>
<!-- Generator: Adobe Illustrator 16.0.0, SVG Export Plug-In . SVG Version: 6.00 Build 0)  -->
<!DOCTYPE svg PUBLIC "-//W3C//DTD SVG 1.1//EN" "http://www.w3.org/Graphics/SVG/1.1/DTD/svg11.dtd">
<svg version="1.1" id="图层_1" xmlns="http://www.w3.org/2000/svg" xmlns:xlink="http://www.w3.org/1999/xlink" x="0px" y="0px"
	 width="1275.59px" height="252.28px" viewBox="0 0 1275.59 252.28" enable-background="new 0 0 1275.59 252.28"
	 xml:space="preserve">
<rect fill="#3B3E42" width="1275.591" height="252.283"/>
<rect x="8.095" y="8.575" fill="#5F5F5F" width="1259.4" height="77"/>
<g>
	<g>
		<polygon fill="#040000" points="26.527,85.575 15.027,85.575 27.034,67.077 38.534,67.077 		"/>
		<polygon fill="#040000" points="40.781,64.573 29.281,64.573 41.288,46.075 52.788,46.075 		"/>
		<polygon fill="#040000" points="54.907,43.326 43.407,43.326 55.414,24.828 66.914,24.828 		"/>
		<polygon fill="#040000" points="67.74,22.826 56.24,22.826 65.246,10.742 76.746,10.742 		"/>
	</g>
	<g>
		<polygon fill="#040000" points="40.781,85.575 29.281,85.575 41.288,67.077 52.788,67.077 		"/>
		<polygon fill="#040000" points="55.035,64.573 43.535,64.573 55.542,46.075 67.042,46.075 		"/>
		<polygon fill="#040000" points="69.161,43.326 57.661,43.326 69.668,24.828 81.168,24.828 		"/>
		<polygon fill="#040000" points="81.995,22.826 70.495,22.826 79.5,10.742 91,10.742 		"/>
	</g>
	<g>
		<polygon fill="#040000" points="55.035,85.575 43.535,85.575 55.542,67.077 67.042,67.077 		"/>
		<polygon fill="#040000" points="69.29,64.573 57.79,64.573 69.797,46.075 81.297,46.075 		"/>
		<polygon fill="#040000" points="83.416,43.326 71.916,43.326 83.923,24.828 95.423,24.828 		"/>
		<polygon fill="#040000" points="96.249,22.826 84.749,22.826 93.754,10.742 105.254,10.742 		"/>
	</g>
	<g>
		<polygon fill="#040000" points="69.29,85.575 57.79,85.575 69.797,67.077 81.297,67.077 		"/>
		<polygon fill="#040000" points="83.544,64.573 72.044,64.573 84.051,46.075 95.551,46.075 		"/>
		<polygon fill="#040000" points="97.669,43.326 86.169,43.326 98.177,24.828 109.677,24.828 		"/>
		<polygon fill="#040000" points="110.503,22.826 99.003,22.826 108.008,10.742 119.508,10.742 		"/>
	</g>
	<g>
		<polygon fill="#040000" points="83.544,85.575 72.044,85.575 84.051,67.077 95.551,67.077 		"/>
		<polygon fill="#040000" points="97.798,64.573 86.298,64.573 98.305,46.075 109.805,46.075 		"/>
		<polygon fill="#040000" points="111.924,43.326 100.424,43.326 112.431,24.828 123.931,24.828 		"/>
		<polygon fill="#040000" points="124.757,22.826 113.257,22.826 122.263,10.742 133.763,10.742 		"/>
	</g>
	<g>
		<polygon fill="#040000" points="97.798,85.575 86.298,85.575 98.305,67.077 109.805,67.077 		"/>
		<polygon fill="#040000" points="112.052,64.573 100.552,64.573 112.56,46.075 124.06,46.075 		"/>
		<polygon fill="#040000" points="126.178,43.326 114.678,43.326 126.686,24.828 138.186,24.828 		"/>
		<polygon fill="#040000" points="139.011,22.826 127.511,22.826 136.517,10.742 148.017,10.742 		"/>
	</g>
	<g>
		<polygon fill="#040000" points="112.052,85.575 100.552,85.575 112.56,67.077 124.06,67.077 		"/>
		<polygon fill="#040000" points="126.307,64.573 114.807,64.573 126.814,46.075 138.314,46.075 		"/>
		<polygon fill="#040000" points="140.433,43.326 128.933,43.326 140.94,24.828 152.44,24.828 		"/>
		<polygon fill="#040000" points="153.266,22.826 141.766,22.826 150.771,10.742 162.271,10.742 		"/>
	</g>
	<g>
		<polygon fill="#040000" points="126.307,85.575 114.807,85.575 126.814,67.077 138.314,67.077 		"/>
		<polygon fill="#040000" points="140.561,64.573 129.061,64.573 141.068,46.075 152.568,46.075 		"/>
		<polygon fill="#040000" points="154.687,43.326 143.187,43.326 155.194,24.828 166.694,24.828 		"/>
		<polygon fill="#040000" points="167.52,22.826 156.02,22.826 165.025,10.742 176.525,10.742 		"/>
	</g>
	<g>
		<polygon fill="#040000" points="140.561,85.575 129.061,85.575 141.068,67.077 152.568,67.077 		"/>
		<polygon fill="#040000" points="154.815,64.573 143.315,64.573 155.322,46.075 166.822,46.075 		"/>
		<polygon fill="#040000" points="168.941,43.326 157.441,43.326 169.448,24.828 180.948,24.828 		"/>
		<polygon fill="#040000" points="181.774,22.826 170.274,22.826 179.28,10.742 190.78,10.742 		"/>
	</g>
	<g>
		<polygon fill="#040000" points="154.815,85.575 143.315,85.575 155.322,67.077 166.822,67.077 		"/>
		<polygon fill="#040000" points="169.069,64.573 157.569,64.573 169.577,46.075 181.077,46.075 		"/>
		<polygon fill="#040000" points="183.195,43.326 171.695,43.326 183.703,24.828 195.203,24.828 		"/>
		<polygon fill="#040000" points="196.029,22.826 184.529,22.826 193.534,10.742 205.034,10.742 		"/>
	</g>
	<g>
		<polygon fill="#040000" points="169.069,85.575 157.569,85.575 169.577,67.077 181.077,67.077 		"/>
		<polygon fill="#040000" points="183.324,64.573 171.824,64.573 183.831,46.075 195.331,46.075 		"/>
		<polygon fill="#040000" points="197.45,43.326 185.95,43.326 197.957,24.828 209.457,24.828 		"/>
		<polygon fill="#040000" points="210.283,22.826 198.783,22.826 207.789,10.742 219.289,10.742 		"/>
	</g>
	<g>
		<polygon fill="#040000" points="183.324,85.575 171.824,85.575 183.831,67.077 195.331,67.077 		"/>
		<polygon fill="#040000" points="197.578,64.573 186.078,64.573 198.085,46.075 209.585,46.075 		"/>
		<polygon fill="#040000" points="211.704,43.326 200.204,43.326 212.211,24.828 223.711,24.828 		"/>
		<polygon fill="#040000" points="224.537,22.826 213.037,22.826 222.042,10.742 233.542,10.742 		"/>
	</g>
	<g>
		<polygon fill="#040000" points="197.578,85.575 186.078,85.575 198.085,67.077 209.585,67.077 		"/>
		<polygon fill="#040000" points="211.832,64.573 200.332,64.573 212.339,46.075 223.839,46.075 		"/>
		<polygon fill="#040000" points="225.958,43.326 214.458,43.326 226.465,24.828 237.965,24.828 		"/>
		<polygon fill="#040000" points="238.792,22.826 227.292,22.826 236.297,10.742 247.797,10.742 		"/>
	</g>
	<g>
		<polygon fill="#040000" points="211.832,85.575 200.332,85.575 212.339,67.077 223.839,67.077 		"/>
		<polygon fill="#040000" points="226.086,64.573 214.586,64.573 226.594,46.075 238.094,46.075 		"/>
		<polygon fill="#040000" points="240.212,43.326 228.712,43.326 240.72,24.828 252.22,24.828 		"/>
		<polygon fill="#040000" points="253.046,22.826 241.546,22.826 250.551,10.742 262.051,10.742 		"/>
	</g>
	<g>
		<polygon fill="#040000" points="226.086,85.575 214.586,85.575 226.594,67.077 238.094,67.077 		"/>
		<polygon fill="#040000" points="240.341,64.573 228.841,64.573 240.848,46.075 252.348,46.075 		"/>
		<polygon fill="#040000" points="254.467,43.326 242.967,43.326 254.974,24.828 266.474,24.828 		"/>
		<polygon fill="#040000" points="267.3,22.826 255.8,22.826 264.806,10.742 276.306,10.742 		"/>
	</g>
	<g>
		<polygon fill="#040000" points="240.341,85.575 228.841,85.575 240.848,67.077 252.348,67.077 		"/>
		<polygon fill="#040000" points="254.595,64.573 243.095,64.573 255.102,46.075 266.602,46.075 		"/>
		<polygon fill="#040000" points="268.721,43.326 257.221,43.326 269.228,24.828 280.728,24.828 		"/>
		<polygon fill="#040000" points="281.554,22.826 270.054,22.826 279.06,10.742 290.56,10.742 		"/>
	</g>
	<g>
		<polygon fill="#040000" points="254.595,85.575 243.095,85.575 255.102,67.077 266.602,67.077 		"/>
		<polygon fill="#040000" points="268.849,64.573 257.349,64.573 269.356,46.075 280.856,46.075 		"/>
		<polygon fill="#040000" points="282.975,43.326 271.475,43.326 283.482,24.828 294.982,24.828 		"/>
		<polygon fill="#040000" points="295.809,22.826 284.309,22.826 293.314,10.742 304.814,10.742 		"/>
	</g>
	<g>
		<polygon fill="#040000" points="268.849,85.575 257.349,85.575 269.356,67.077 280.856,67.077 		"/>
		<polygon fill="#040000" points="283.104,64.573 271.604,64.573 283.611,46.075 295.111,46.075 		"/>
		<polygon fill="#040000" points="297.229,43.326 285.729,43.326 297.737,24.828 309.237,24.828 		"/>
		<polygon fill="#040000" points="310.063,22.826 298.563,22.826 307.568,10.742 319.068,10.742 		"/>
	</g>
	<g>
		<polygon fill="#040000" points="283.104,85.575 271.604,85.575 283.611,67.077 295.111,67.077 		"/>
		<polygon fill="#040000" points="297.358,64.573 285.858,64.573 297.865,46.075 309.365,46.075 		"/>
		<polygon fill="#040000" points="311.484,43.326 299.984,43.326 311.991,24.828 323.491,24.828 		"/>
		<polygon fill="#040000" points="324.317,22.826 312.817,22.826 321.823,10.742 333.323,10.742 		"/>
	</g>
	<g>
		<polygon fill="#040000" points="297.358,85.575 285.858,85.575 297.865,67.077 309.365,67.077 		"/>
		<polygon fill="#040000" points="311.612,64.573 300.112,64.573 312.119,46.075 323.619,46.075 		"/>
		<polygon fill="#040000" points="325.738,43.326 314.238,43.326 326.245,24.828 337.745,24.828 		"/>
		<polygon fill="#040000" points="338.572,22.826 327.072,22.826 336.077,10.742 347.577,10.742 		"/>
	</g>
	<g>
		<polygon fill="#040000" points="311.612,85.575 300.112,85.575 312.119,67.077 323.619,67.077 		"/>
		<polygon fill="#040000" points="325.866,64.573 314.366,64.573 326.374,46.075 337.874,46.075 		"/>
		<polygon fill="#040000" points="339.992,43.326 328.492,43.326 340.5,24.828 352,24.828 		"/>
		<polygon fill="#040000" points="352.826,22.826 341.326,22.826 350.331,10.742 361.831,10.742 		"/>
	</g>
	<g>
		<polygon fill="#040000" points="325.866,85.575 314.366,85.575 326.374,67.077 337.874,67.077 		"/>
		<polygon fill="#040000" points="340.121,64.573 328.621,64.573 340.628,46.075 352.128,46.075 		"/>
		<polygon fill="#040000" points="354.247,43.326 342.747,43.326 354.754,24.828 366.254,24.828 		"/>
		<polygon fill="#040000" points="367.08,22.826 355.58,22.826 364.585,10.742 376.085,10.742 		"/>
	</g>
	<g>
		<polygon fill="#040000" points="340.121,85.575 328.621,85.575 340.628,67.077 352.128,67.077 		"/>
		<polygon fill="#040000" points="354.375,64.573 342.875,64.573 354.882,46.075 366.382,46.075 		"/>
		<polygon fill="#040000" points="368.501,43.326 357.001,43.326 369.008,24.828 380.508,24.828 		"/>
		<polygon fill="#040000" points="381.334,22.826 369.834,22.826 378.84,10.742 390.34,10.742 		"/>
	</g>
	<g>
		<polygon fill="#040000" points="354.375,85.575 342.875,85.575 354.882,67.077 366.382,67.077 		"/>
		<polygon fill="#040000" points="368.629,64.573 357.129,64.573 369.136,46.075 380.636,46.075 		"/>
		<polygon fill="#040000" points="382.755,43.326 371.255,43.326 383.262,24.828 394.762,24.828 		"/>
		<polygon fill="#040000" points="395.588,22.826 384.088,22.826 393.094,10.742 404.594,10.742 		"/>
	</g>
	<g>
		<polygon fill="#040000" points="368.629,85.575 357.129,85.575 369.136,67.077 380.636,67.077 		"/>
		<polygon fill="#040000" points="382.883,64.573 371.383,64.573 383.391,46.075 394.891,46.075 		"/>
		<polygon fill="#040000" points="397.009,43.326 385.509,43.326 397.517,24.828 409.017,24.828 		"/>
		<polygon fill="#040000" points="409.843,22.826 398.343,22.826 407.348,10.742 418.848,10.742 		"/>
	</g>
	<g>
		<polygon fill="#040000" points="382.883,85.575 371.383,85.575 383.391,67.077 394.891,67.077 		"/>
		<polygon fill="#040000" points="397.138,64.573 385.638,64.573 397.645,46.075 409.145,46.075 		"/>
		<polygon fill="#040000" points="411.263,43.326 399.764,43.326 411.771,24.828 423.271,24.828 		"/>
		<polygon fill="#040000" points="424.097,22.826 412.597,22.826 421.603,10.742 433.103,10.742 		"/>
	</g>
	<g>
		<polygon fill="#040000" points="397.138,85.575 385.638,85.575 397.645,67.077 409.145,67.077 		"/>
		<polygon fill="#040000" points="411.392,64.573 399.892,64.573 411.899,46.075 423.399,46.075 		"/>
		<polygon fill="#040000" points="425.518,43.326 414.018,43.326 426.025,24.828 437.525,24.828 		"/>
		<polygon fill="#040000" points="438.351,22.826 426.851,22.826 435.857,10.742 447.357,10.742 		"/>
	</g>
	<g>
		<polygon fill="#040000" points="411.392,85.575 399.892,85.575 411.899,67.077 423.399,67.077 		"/>
		<polygon fill="#040000" points="425.646,64.573 414.146,64.573 426.153,46.075 437.653,46.075 		"/>
		<polygon fill="#040000" points="439.772,43.326 428.272,43.326 440.28,24.828 451.78,24.828 		"/>
		<polygon fill="#040000" points="452.605,22.826 441.105,22.826 450.111,10.742 461.611,10.742 		"/>
	</g>
	<g>
		<polygon fill="#040000" points="425.646,85.575 414.146,85.575 426.153,67.077 437.653,67.077 		"/>
		<polygon fill="#040000" points="439.9,64.573 428.4,64.573 440.408,46.075 451.908,46.075 		"/>
		<polygon fill="#040000" points="454.026,43.326 442.526,43.326 454.534,24.828 466.034,24.828 		"/>
		<polygon fill="#040000" points="466.86,22.826 455.36,22.826 464.365,10.742 475.865,10.742 		"/>
	</g>
	<g>
		<polygon fill="#040000" points="439.9,85.575 428.4,85.575 440.408,67.077 451.908,67.077 		"/>
		<polygon fill="#040000" points="454.155,64.573 442.655,64.573 454.662,46.075 466.162,46.075 		"/>
		<polygon fill="#040000" points="468.281,43.326 456.781,43.326 468.788,24.828 480.288,24.828 		"/>
		<polygon fill="#040000" points="481.114,22.826 469.614,22.826 478.62,10.742 490.12,10.742 		"/>
	</g>
	<g>
		<polygon fill="#040000" points="454.155,85.575 442.655,85.575 454.662,67.077 466.162,67.077 		"/>
		<polygon fill="#040000" points="468.409,64.573 456.909,64.573 468.917,46.075 480.417,46.075 		"/>
		<polygon fill="#040000" points="482.535,43.326 471.035,43.326 483.042,24.828 494.542,24.828 		"/>
		<polygon fill="#040000" points="495.369,22.826 483.868,22.826 492.874,10.742 504.375,10.742 		"/>
	</g>
	<g>
		<polygon fill="#040000" points="468.409,85.575 456.909,85.575 468.917,67.077 480.417,67.077 		"/>
		<polygon fill="#040000" points="482.664,64.573 471.164,64.573 483.17,46.075 494.67,46.075 		"/>
		<polygon fill="#040000" points="496.79,43.326 485.29,43.326 497.297,24.828 508.797,24.828 		"/>
		<polygon fill="#040000" points="509.624,22.826 498.123,22.826 507.129,10.742 518.629,10.742 		"/>
	</g>
	<g>
		<polygon fill="#040000" points="482.664,85.575 471.164,85.575 483.17,67.077 494.67,67.077 		"/>
		<polygon fill="#040000" points="496.918,64.573 485.417,64.573 497.425,46.075 508.926,46.075 		"/>
		<polygon fill="#040000" points="511.044,43.326 499.544,43.326 511.552,24.828 523.052,24.828 		"/>
		<polygon fill="#040000" points="523.878,22.826 512.377,22.826 521.383,10.742 532.883,10.742 		"/>
	</g>
	<g>
		<polygon fill="#040000" points="496.918,85.575 485.417,85.575 497.425,67.077 508.926,67.077 		"/>
		<polygon fill="#040000" points="511.172,64.573 499.672,64.573 511.68,46.075 523.18,46.075 		"/>
		<polygon fill="#040000" points="525.298,43.326 513.798,43.326 525.806,24.828 537.306,24.828 		"/>
		<polygon fill="#040000" points="538.132,22.826 526.632,22.826 535.638,10.742 547.138,10.742 		"/>
	</g>
	<g>
		<polygon fill="#040000" points="511.172,85.575 499.672,85.575 511.68,67.077 523.18,67.077 		"/>
		<polygon fill="#040000" points="525.427,64.573 513.927,64.573 525.934,46.075 537.435,46.075 		"/>
		<polygon fill="#040000" points="539.553,43.326 528.053,43.326 540.061,24.828 551.561,24.828 		"/>
		<polygon fill="#040000" points="552.387,22.826 540.886,22.826 549.892,10.742 561.392,10.742 		"/>
	</g>
	<g>
		<polygon fill="#040000" points="525.427,85.575 513.927,85.575 525.934,67.077 537.435,67.077 		"/>
		<polygon fill="#040000" points="539.681,64.573 528.181,64.573 540.188,46.075 551.689,46.075 		"/>
		<polygon fill="#040000" points="553.807,43.326 542.307,43.326 554.315,24.828 565.815,24.828 		"/>
		<polygon fill="#040000" points="566.641,22.826 555.141,22.826 564.146,10.742 575.646,10.742 		"/>
	</g>
	<g>
		<polygon fill="#040000" points="539.681,85.575 528.181,85.575 540.188,67.077 551.689,67.077 		"/>
		<polygon fill="#040000" points="553.936,64.573 542.436,64.573 554.443,46.075 565.943,46.075 		"/>
		<polygon fill="#040000" points="568.062,43.326 556.562,43.326 568.569,24.828 580.069,24.828 		"/>
		<polygon fill="#040000" points="580.896,22.826 569.395,22.826 578.401,10.742 589.901,10.742 		"/>
	</g>
	<g>
		<polygon fill="#040000" points="553.936,85.575 542.436,85.575 554.443,67.077 565.943,67.077 		"/>
		<polygon fill="#040000" points="568.19,64.573 556.69,64.573 568.697,46.075 580.198,46.075 		"/>
		<polygon fill="#040000" points="582.316,43.326 570.816,43.326 582.824,24.828 594.324,24.828 		"/>
		<polygon fill="#040000" points="595.15,22.826 583.649,22.826 592.655,10.742 604.155,10.742 		"/>
	</g>
	<g>
		<polygon fill="#040000" points="568.19,85.575 556.69,85.575 568.697,67.077 580.198,67.077 		"/>
		<polygon fill="#040000" points="582.444,64.573 570.944,64.573 582.952,46.075 594.452,46.075 		"/>
		<polygon fill="#040000" points="596.571,43.326 585.07,43.326 597.078,24.828 608.578,24.828 		"/>
		<polygon fill="#040000" points="609.404,22.826 597.904,22.826 606.91,10.742 618.41,10.742 		"/>
	</g>
	<g>
		<polygon fill="#040000" points="582.444,85.575 570.944,85.575 582.952,67.077 594.452,67.077 		"/>
		<polygon fill="#040000" points="596.699,64.573 585.199,64.573 597.206,46.075 608.707,46.075 		"/>
		<polygon fill="#040000" points="610.825,43.326 599.325,43.326 611.333,24.828 622.833,24.828 		"/>
		<polygon fill="#040000" points="623.659,22.826 612.158,22.826 621.164,10.742 632.664,10.742 		"/>
	</g>
	<g>
		<polygon fill="#040000" points="596.699,85.575 585.199,85.575 597.206,67.077 608.707,67.077 		"/>
		<polygon fill="#040000" points="610.953,64.573 599.453,64.573 611.46,46.075 622.961,46.075 		"/>
		<polygon fill="#040000" points="625.08,43.326 613.579,43.326 625.587,24.828 637.087,24.828 		"/>
		<polygon fill="#040000" points="637.913,22.826 626.413,22.826 635.419,10.742 646.919,10.742 		"/>
	</g>
	<g>
		<polygon fill="#040000" points="610.953,85.575 599.453,85.575 611.46,67.077 622.961,67.077 		"/>
		<polygon fill="#040000" points="625.208,64.573 613.708,64.573 625.714,46.075 637.216,46.075 		"/>
		<polygon fill="#040000" points="639.335,43.326 627.833,43.326 639.841,24.828 651.341,24.828 		"/>
		<polygon fill="#040000" points="652.167,22.826 640.667,22.826 649.673,10.742 661.173,10.742 		"/>
	</g>
	<g>
		<polygon fill="#040000" points="625.208,85.575 613.708,85.575 625.714,67.077 637.216,67.077 		"/>
		<polygon fill="#040000" points="639.462,64.573 627.962,64.573 639.97,46.075 651.47,46.075 		"/>
		<polygon fill="#040000" points="653.589,43.326 642.089,43.326 654.097,24.828 665.597,24.828 		"/>
		<polygon fill="#040000" points="666.423,22.826 654.921,22.826 663.927,10.742 675.427,10.742 		"/>
	</g>
	<g>
		<polygon fill="#040000" points="639.462,85.575 627.962,85.575 639.97,67.077 651.47,67.077 		"/>
		<polygon fill="#040000" points="653.716,64.573 642.216,64.573 654.224,46.075 665.724,46.075 		"/>
		<polygon fill="#040000" points="667.843,43.326 656.343,43.326 668.351,24.828 679.851,24.828 		"/>
		<polygon fill="#040000" points="680.677,22.826 669.177,22.826 678.181,10.742 689.681,10.742 		"/>
	</g>
	<g>
		<polygon fill="#040000" points="653.716,85.575 642.216,85.575 654.224,67.077 665.724,67.077 		"/>
		<polygon fill="#040000" points="667.972,64.573 656.472,64.573 668.478,46.075 679.979,46.075 		"/>
		<polygon fill="#040000" points="682.097,43.326 670.597,43.326 682.604,24.828 694.104,24.828 		"/>
		<polygon fill="#040000" points="694.931,22.826 683.431,22.826 692.437,10.742 703.937,10.742 		"/>
	</g>
	<g>
		<polygon fill="#040000" points="667.972,85.575 656.472,85.575 668.478,67.077 679.979,67.077 		"/>
		<polygon fill="#040000" points="682.226,64.573 670.726,64.573 682.731,46.075 694.233,46.075 		"/>
		<polygon fill="#040000" points="696.353,43.326 684.851,43.326 696.858,24.828 708.358,24.828 		"/>
		<polygon fill="#040000" points="709.185,22.826 697.685,22.826 706.69,10.742 718.19,10.742 		"/>
	</g>
	<g>
		<polygon fill="#040000" points="682.226,85.575 670.726,85.575 682.731,67.077 694.233,67.077 		"/>
		<polygon fill="#040000" points="696.479,64.573 684.979,64.573 696.987,46.075 708.487,46.075 		"/>
		<polygon fill="#040000" points="710.606,43.326 699.106,43.326 711.112,24.828 722.612,24.828 		"/>
		<polygon fill="#040000" points="723.44,22.826 711.938,22.826 720.944,10.742 732.444,10.742 		"/>
	</g>
	<g>
		<polygon fill="#040000" points="696.479,85.575 684.979,85.575 696.987,67.077 708.487,67.077 		"/>
		<polygon fill="#040000" points="710.733,64.573 699.233,64.573 711.241,46.075 722.741,46.075 		"/>
		<polygon fill="#040000" points="724.86,43.326 713.36,43.326 725.368,24.828 736.868,24.828 		"/>
		<polygon fill="#040000" points="737.694,22.826 726.194,22.826 735.198,10.742 746.698,10.742 		"/>
	</g>
	<g>
		<polygon fill="#040000" points="710.733,85.575 699.233,85.575 711.241,67.077 722.741,67.077 		"/>
		<polygon fill="#040000" points="724.989,64.573 713.489,64.573 725.495,46.075 736.997,46.075 		"/>
		<polygon fill="#040000" points="739.114,43.326 727.614,43.326 739.622,24.828 751.122,24.828 		"/>
		<polygon fill="#040000" points="751.948,22.826 740.448,22.826 749.454,10.742 760.954,10.742 		"/>
	</g>
	<g>
		<polygon fill="#040000" points="724.989,85.575 713.489,85.575 725.495,67.077 736.997,67.077 		"/>
		<polygon fill="#040000" points="739.243,64.573 727.743,64.573 739.751,46.075 751.251,46.075 		"/>
		<polygon fill="#040000" points="753.37,43.326 741.868,43.326 753.876,24.828 765.376,24.828 		"/>
		<polygon fill="#040000" points="766.202,22.826 754.702,22.826 763.708,10.742 775.208,10.742 		"/>
	</g>
	<g>
		<polygon fill="#040000" points="739.243,85.575 727.743,85.575 739.751,67.077 751.251,67.077 		"/>
		<polygon fill="#040000" points="753.497,64.573 741.997,64.573 754.005,46.075 765.505,46.075 		"/>
		<polygon fill="#040000" points="767.624,43.326 756.124,43.326 768.13,24.828 779.63,24.828 		"/>
		<polygon fill="#040000" points="780.458,22.826 768.956,22.826 777.962,10.742 789.462,10.742 		"/>
	</g>
	<g>
		<polygon fill="#040000" points="753.497,85.575 741.997,85.575 754.005,67.077 765.505,67.077 		"/>
		<polygon fill="#040000" points="767.751,64.573 756.251,64.573 768.259,46.075 779.759,46.075 		"/>
		<polygon fill="#040000" points="781.878,43.326 770.378,43.326 782.386,24.828 793.886,24.828 		"/>
		<polygon fill="#040000" points="794.712,22.826 783.212,22.826 792.218,10.742 803.718,10.742 		"/>
	</g>
	<g>
		<polygon fill="#040000" points="767.751,85.575 756.251,85.575 768.259,67.077 779.759,67.077 		"/>
		<polygon fill="#040000" points="782.007,64.573 770.507,64.573 782.513,46.075 794.013,46.075 		"/>
		<polygon fill="#040000" points="796.132,43.326 784.632,43.326 796.64,24.828 808.14,24.828 		"/>
		<polygon fill="#040000" points="808.966,22.826 797.466,22.826 806.472,10.742 817.972,10.742 		"/>
	</g>
	<g>
		<polygon fill="#040000" points="782.007,85.575 770.507,85.575 782.513,67.077 794.013,67.077 		"/>
		<polygon fill="#040000" points="796.261,64.573 784.761,64.573 796.769,46.075 808.269,46.075 		"/>
		<polygon fill="#040000" points="810.388,43.326 798.886,43.326 810.894,24.828 822.394,24.828 		"/>
		<polygon fill="#040000" points="823.22,22.826 811.72,22.826 820.726,10.742 832.226,10.742 		"/>
	</g>
	<g>
		<polygon fill="#040000" points="796.261,85.575 784.761,85.575 796.769,67.077 808.269,67.077 		"/>
		<polygon fill="#040000" points="810.515,64.573 799.015,64.573 811.022,46.075 822.522,46.075 		"/>
		<polygon fill="#040000" points="824.642,43.326 813.142,43.326 825.147,24.828 836.647,24.828 		"/>
		<polygon fill="#040000" points="837.476,22.826 825.974,22.826 834.979,10.742 846.479,10.742 		"/>
	</g>
	<g>
		<polygon fill="#040000" points="810.515,85.575 799.015,85.575 811.022,67.077 822.522,67.077 		"/>
		<polygon fill="#040000" points="824.769,64.573 813.269,64.573 825.276,46.075 836.776,46.075 		"/>
		<polygon fill="#040000" points="838.896,43.326 827.396,43.326 839.403,24.828 850.903,24.828 		"/>
		<polygon fill="#040000" points="851.729,22.826 840.229,22.826 849.235,10.742 860.735,10.742 		"/>
	</g>
	<g>
		<polygon fill="#040000" points="824.769,85.575 813.269,85.575 825.276,67.077 836.776,67.077 		"/>
		<polygon fill="#040000" points="839.024,64.573 827.524,64.573 839.53,46.075 851.03,46.075 		"/>
		<polygon fill="#040000" points="853.149,43.326 841.649,43.326 853.657,24.828 865.157,24.828 		"/>
		<polygon fill="#040000" points="865.983,22.826 854.483,22.826 863.489,10.742 874.989,10.742 		"/>
	</g>
	<g>
		<polygon fill="#040000" points="839.024,85.575 827.524,85.575 839.53,67.077 851.03,67.077 		"/>
		<polygon fill="#040000" points="853.278,64.573 841.778,64.573 853.786,46.075 865.286,46.075 		"/>
		<polygon fill="#040000" points="867.405,43.326 855.903,43.326 867.911,24.828 879.411,24.828 		"/>
		<polygon fill="#040000" points="880.237,22.826 868.737,22.826 877.743,10.742 889.243,10.742 		"/>
	</g>
	<g>
		<polygon fill="#040000" points="853.278,85.575 841.778,85.575 853.786,67.077 865.286,67.077 		"/>
		<polygon fill="#040000" points="867.532,64.573 856.032,64.573 868.04,46.075 879.54,46.075 		"/>
		<polygon fill="#040000" points="881.659,43.326 870.159,43.326 882.165,24.828 893.665,24.828 		"/>
		<polygon fill="#040000" points="894.493,22.826 882.991,22.826 891.997,10.742 903.497,10.742 		"/>
	</g>
	<g>
		<polygon fill="#040000" points="867.532,85.575 856.032,85.575 868.04,67.077 879.54,67.077 		"/>
		<polygon fill="#040000" points="881.786,64.573 870.286,64.573 882.294,46.075 893.794,46.075 		"/>
		<polygon fill="#040000" points="895.913,43.326 884.413,43.326 896.421,24.828 907.921,24.828 		"/>
		<polygon fill="#040000" points="908.747,22.826 897.247,22.826 906.253,10.742 917.753,10.742 		"/>
	</g>
	<g>
		<polygon fill="#040000" points="881.786,85.575 870.286,85.575 882.294,67.077 893.794,67.077 		"/>
		<polygon fill="#040000" points="896.042,64.573 884.542,64.573 896.548,46.075 908.048,46.075 		"/>
		<polygon fill="#040000" points="910.167,43.326 898.667,43.326 910.675,24.828 922.175,24.828 		"/>
		<polygon fill="#040000" points="923.001,22.826 911.501,22.826 920.507,10.742 932.007,10.742 		"/>
	</g>
	<g>
		<polygon fill="#040000" points="896.042,85.575 884.542,85.575 896.548,67.077 908.048,67.077 		"/>
		<polygon fill="#040000" points="910.296,64.573 898.796,64.573 910.804,46.075 922.304,46.075 		"/>
		<polygon fill="#040000" points="924.423,43.326 912.921,43.326 924.929,24.828 936.429,24.828 		"/>
		<polygon fill="#040000" points="937.255,22.826 925.755,22.826 934.761,10.742 946.261,10.742 		"/>
	</g>
	<g>
		<polygon fill="#040000" points="910.296,85.575 898.796,85.575 910.804,67.077 922.304,67.077 		"/>
		<polygon fill="#040000" points="924.55,64.573 913.05,64.573 925.058,46.075 936.558,46.075 		"/>
		<polygon fill="#040000" points="938.677,43.326 927.177,43.326 939.185,24.828 950.685,24.828 		"/>
		<polygon fill="#040000" points="951.511,22.826 940.009,22.826 949.015,10.742 960.515,10.742 		"/>
	</g>
	<g>
		<polygon fill="#040000" points="924.55,85.575 913.05,85.575 925.058,67.077 936.558,67.077 		"/>
		<polygon fill="#040000" points="938.804,64.573 927.304,64.573 939.312,46.075 950.812,46.075 		"/>
		<polygon fill="#040000" points="952.931,43.326 941.431,43.326 953.438,24.828 964.938,24.828 		"/>
		<polygon fill="#040000" points="965.765,22.826 954.263,22.826 963.271,10.742 974.771,10.742 		"/>
	</g>
	<g>
		<polygon fill="#040000" points="938.804,85.575 927.304,85.575 939.312,67.077 950.812,67.077 		"/>
		<polygon fill="#040000" points="953.06,64.573 941.56,64.573 953.565,46.075 965.065,46.075 		"/>
		<polygon fill="#040000" points="967.185,43.326 955.685,43.326 967.692,24.828 979.192,24.828 		"/>
		<polygon fill="#040000" points="980.019,22.826 968.519,22.826 977.524,10.742 989.024,10.742 		"/>
	</g>
	<g>
		<polygon fill="#040000" points="953.06,85.575 941.56,85.575 953.565,67.077 965.065,67.077 		"/>
		<polygon fill="#040000" points="967.313,64.573 955.813,64.573 967.821,46.075 979.321,46.075 		"/>
		<polygon fill="#040000" points="981.44,43.326 969.938,43.326 981.946,24.828 993.446,24.828 		"/>
		<polygon fill="#040000" points="994.272,22.826 982.772,22.826 991.778,10.742 1003.278,10.742 		"/>
	</g>
	<g>
		<polygon fill="#040000" points="967.313,85.575 955.813,85.575 967.821,67.077 979.321,67.077 		"/>
		<polygon fill="#040000" points="981.567,64.573 970.067,64.573 982.075,46.075 993.575,46.075 		"/>
		<polygon fill="#040000" points="995.694,43.326 984.194,43.326 996.202,24.828 1007.702,24.828 		"/>
		<polygon fill="#040000" points="1008.528,22.826 997.026,22.826 1006.032,10.742 1017.532,10.742 		"/>
	</g>
	<g>
		<polygon fill="#040000" points="981.567,85.575 970.067,85.575 982.075,67.077 993.575,67.077 		"/>
		<polygon fill="#040000" points="995.821,64.573 984.321,64.573 996.329,46.075 1007.829,46.075 		"/>
		<polygon fill="#040000" points="1009.948,43.326 998.448,43.326 1010.456,24.828 1021.956,24.828 		"/>
		<polygon fill="#040000" points="1022.782,22.826 1011.28,22.826 1020.288,10.742 1031.788,10.742 		"/>
	</g>
	<g>
		<polygon fill="#040000" points="995.821,85.575 984.321,85.575 996.329,67.077 1007.829,67.077 		"/>
		<polygon fill="#040000" points="1010.077,64.573 998.577,64.573 1010.583,46.075 1022.085,46.075 		"/>
		<polygon fill="#040000" points="1024.202,43.326 1012.702,43.326 1024.71,24.828 1036.21,24.828 		"/>
		<polygon fill="#040000" points="1037.036,22.826 1025.536,22.826 1034.542,10.742 1046.042,10.742 		"/>
	</g>
	<g>
		<polygon fill="#040000" points="1010.077,85.575 998.577,85.575 1010.583,67.077 1022.085,67.077 		"/>
		<polygon fill="#040000" points="1024.331,64.573 1012.831,64.573 1024.839,46.075 1036.339,46.075 		"/>
		<polygon fill="#040000" points="1038.458,43.326 1026.956,43.326 1038.964,24.828 1050.464,24.828 		"/>
		<polygon fill="#040000" points="1051.29,22.826 1039.79,22.826 1048.796,10.742 1060.296,10.742 		"/>
	</g>
	<g>
		<polygon fill="#040000" points="1024.331,85.575 1012.831,85.575 1024.839,67.077 1036.339,67.077 		"/>
		<polygon fill="#040000" points="1038.585,64.573 1027.085,64.573 1039.093,46.075 1050.593,46.075 		"/>
		<polygon fill="#040000" points="1052.712,43.326 1041.212,43.326 1053.22,24.828 1064.72,24.828 		"/>
		<polygon fill="#040000" points="1065.546,22.826 1054.044,22.826 1063.05,10.742 1074.55,10.742 		"/>
	</g>
	<g>
		<polygon fill="#040000" points="1038.585,85.575 1027.085,85.575 1039.093,67.077 1050.593,67.077 		"/>
		<polygon fill="#040000" points="1052.839,64.573 1041.339,64.573 1053.347,46.075 1064.847,46.075 		"/>
		<polygon fill="#040000" points="1066.966,43.326 1055.466,43.326 1067.474,24.828 1078.974,24.828 		"/>
		<polygon fill="#040000" points="1079.8,22.826 1068.298,22.826 1077.306,10.742 1088.806,10.742 		"/>
	</g>
	<g>
		<polygon fill="#040000" points="1052.839,85.575 1041.339,85.575 1053.347,67.077 1064.847,67.077 		"/>
		<polygon fill="#040000" points="1067.095,64.573 1055.595,64.573 1067.601,46.075 1079.103,46.075 		"/>
		<polygon fill="#040000" points="1081.22,43.326 1069.72,43.326 1081.728,24.828 1093.228,24.828 		"/>
		<polygon fill="#040000" points="1094.054,22.826 1082.554,22.826 1091.56,10.742 1103.06,10.742 		"/>
	</g>
	<g>
		<polygon fill="#040000" points="1067.095,85.575 1055.595,85.575 1067.601,67.077 1079.103,67.077 		"/>
		<polygon fill="#040000" points="1081.349,64.573 1069.849,64.573 1081.856,46.075 1093.356,46.075 		"/>
		<polygon fill="#040000" points="1095.476,43.326 1083.974,43.326 1095.981,24.828 1107.481,24.828 		"/>
		<polygon fill="#040000" points="1108.308,22.826 1096.808,22.826 1105.813,10.742 1117.313,10.742 		"/>
	</g>
	<g>
		<polygon fill="#040000" points="1081.349,85.575 1069.849,85.575 1081.856,67.077 1093.356,67.077 		"/>
		<polygon fill="#040000" points="1095.603,64.573 1084.103,64.573 1096.11,46.075 1107.61,46.075 		"/>
		<polygon fill="#040000" points="1109.729,43.326 1098.229,43.326 1110.237,24.828 1121.737,24.828 		"/>
		<polygon fill="#040000" points="1122.563,22.826 1111.062,22.826 1120.067,10.742 1131.567,10.742 		"/>
	</g>
	<g>
		<polygon fill="#040000" points="1095.603,85.575 1084.103,85.575 1096.11,67.077 1107.61,67.077 		"/>
		<polygon fill="#040000" points="1109.856,64.573 1098.356,64.573 1110.364,46.075 1121.864,46.075 		"/>
		<polygon fill="#040000" points="1123.983,43.326 1112.483,43.326 1124.491,24.828 1135.991,24.828 		"/>
		<polygon fill="#040000" points="1136.817,22.826 1125.315,22.826 1134.323,10.742 1145.823,10.742 		"/>
	</g>
	<g>
		<polygon fill="#040000" points="1109.856,85.575 1098.356,85.575 1110.364,67.077 1121.864,67.077 		"/>
		<polygon fill="#040000" points="1124.112,64.573 1112.612,64.573 1124.618,46.075 1136.12,46.075 		"/>
		<polygon fill="#040000" points="1138.237,43.326 1126.737,43.326 1138.745,24.828 1150.245,24.828 		"/>
		<polygon fill="#040000" points="1151.071,22.826 1139.571,22.826 1148.577,10.742 1160.077,10.742 		"/>
	</g>
	<g>
		<polygon fill="#040000" points="1124.112,85.575 1112.612,85.575 1124.618,67.077 1136.12,67.077 		"/>
		<polygon fill="#040000" points="1138.366,64.573 1126.866,64.573 1138.874,46.075 1150.374,46.075 		"/>
		<polygon fill="#040000" points="1152.493,43.326 1140.991,43.326 1152.999,24.828 1164.499,24.828 		"/>
		<polygon fill="#040000" points="1165.325,22.826 1153.825,22.826 1162.831,10.742 1174.331,10.742 		"/>
	</g>
	<g>
		<polygon fill="#040000" points="1138.366,85.575 1126.866,85.575 1138.874,67.077 1150.374,67.077 		"/>
		<polygon fill="#040000" points="1152.62,64.573 1141.12,64.573 1153.128,46.075 1164.628,46.075 		"/>
		<polygon fill="#040000" points="1166.747,43.326 1155.247,43.326 1167.255,24.828 1178.755,24.828 		"/>
		<polygon fill="#040000" points="1179.579,22.826 1168.079,22.826 1177.085,10.742 1188.585,10.742 		"/>
	</g>
	<g>
		<polygon fill="#040000" points="1152.62,85.575 1141.12,85.575 1153.128,67.077 1164.628,67.077 		"/>
		<polygon fill="#040000" points="1166.874,64.573 1155.374,64.573 1167.382,46.075 1178.882,46.075 		"/>
		<polygon fill="#040000" points="1181.001,43.326 1169.501,43.326 1181.509,24.828 1193.009,24.828 		"/>
		<polygon fill="#040000" points="1193.835,22.826 1182.335,22.826 1191.341,10.742 1202.841,10.742 		"/>
	</g>
	<g>
		<polygon fill="#040000" points="1166.874,85.575 1155.374,85.575 1167.382,67.077 1178.882,67.077 		"/>
		<polygon fill="#040000" points="1181.13,64.573 1169.63,64.573 1181.636,46.075 1193.138,46.075 		"/>
		<polygon fill="#040000" points="1195.255,43.326 1183.755,43.326 1195.763,24.828 1207.263,24.828 		"/>
		<polygon fill="#040000" points="1208.089,22.826 1196.589,22.826 1205.595,10.742 1217.095,10.742 		"/>
	</g>
	<g>
		<polygon fill="#040000" points="1181.13,85.575 1169.63,85.575 1181.636,67.077 1193.138,67.077 		"/>
		<polygon fill="#040000" points="1195.384,64.573 1183.884,64.573 1195.892,46.075 1207.392,46.075 		"/>
		<polygon fill="#040000" points="1209.511,43.326 1198.009,43.326 1210.017,24.828 1221.517,24.828 		"/>
		<polygon fill="#040000" points="1222.343,22.826 1210.843,22.826 1219.849,10.742 1231.349,10.742 		"/>
	</g>
	<g>
		<polygon fill="#040000" points="1195.384,85.575 1183.884,85.575 1195.892,67.077 1207.392,67.077 		"/>
		<polygon fill="#040000" points="1209.638,64.573 1198.138,64.573 1210.146,46.075 1221.646,46.075 		"/>
		<polygon fill="#040000" points="1223.765,43.326 1212.263,43.326 1224.272,24.828 1235.772,24.828 		"/>
		<polygon fill="#040000" points="1236.597,22.826 1225.097,22.826 1234.103,10.742 1245.603,10.742 		"/>
	</g>
	<polygon fill="#040000" points="1209.638,85.575 1198.138,85.575 1210.146,67.077 1221.646,67.077 	"/>
	<polygon fill="#040000" points="1223.892,64.573 1212.392,64.573 1224.399,46.075 1235.899,46.075 	"/>
	<polygon fill="#040000" points="1238.019,43.326 1226.519,43.326 1238.526,24.828 1250.026,24.828 	"/>
	<polygon fill="#040000" points="1223.821,85.575 1212.321,85.575 1224.329,67.077 1235.829,67.077 	"/>
	<polygon fill="#040000" points="1238.077,64.573 1226.577,64.573 1238.583,46.075 1250.085,46.075 	"/>
	<polygon fill="#040000" points="1238.216,85.575 1226.716,85.575 1238.724,67.077 1250.224,67.077 	"/>
	<polygon fill="#040000" points="1252.196,85.575 1240.696,85.575 1252.704,67.077 1264.204,67.077 	"/>
	<polygon fill="#040000" points="1252.47,64.573 1240.97,64.573 1252.978,46.075 1264.478,46.075 	"/>
	<polygon fill="#040000" points="1252.202,43.326 1240.702,43.326 1252.71,24.828 1264.21,24.828 	"/>
	<polygon fill="#040000" points="1250.853,22.826 1239.353,22.826 1248.358,10.742 1259.858,10.742 	"/>
	<polygon fill="#040000" points="26.301,64.573 14.801,64.573 26.809,46.075 38.309,46.075 	"/>
	<polygon fill="#040000" points="40.427,43.326 28.927,43.326 40.935,24.828 52.435,24.828 	"/>
	<polygon fill="#040000" points="53.261,22.826 41.761,22.826 50.766,10.742 62.266,10.742 	"/>
	<polygon fill="#040000" points="25.594,43.326 14.094,43.326 26.102,24.828 37.602,24.828 	"/>
	<polygon fill="#040000" points="38.428,22.826 26.928,22.826 35.933,10.742 47.433,10.742 	"/>
	<polygon fill="#040000" points="23.261,22.826 11.761,22.826 20.766,10.742 32.266,10.742 	"/>
</g>
<rect y="6.888" fill="#040000" width="1267.495" height="1.688"/>
<g>
	<g>
		<linearGradient id="SVGID_1_" gradientUnits="userSpaceOnUse" x1="1261.8545" y1="6.8877" x2="1261.8545" y2="0">
			<stop  offset="0" style="stop-color:#3E3A39"/>
			<stop  offset="0.5215" style="stop-color:#DCDDDD"/>
			<stop  offset="1" style="stop-color:#000000"/>
		</linearGradient>
		<rect x="1248.118" fill="url(#SVGID_1_)" width="27.473" height="6.888"/>
		<rect x="1253.032" y="1.043" width="17.645" height="4.801"/>
	</g>
	<rect x="1247.407" fill="#040000" width="0.711" height="6.888"/>
	<rect x="1274.878" fill="#040000" width="0.713" height="6.888"/>
</g>
<g>
	<g>
		<linearGradient id="SVGID_2_" gradientUnits="userSpaceOnUse" x1="1237.9912" y1="6.8877" x2="1237.9912" y2="0">
			<stop  offset="0" style="stop-color:#3E3A39"/>
			<stop  offset="0.5215" style="stop-color:#DCDDDD"/>
			<stop  offset="1" style="stop-color:#000000"/>
		</linearGradient>
		<rect x="1228.325" fill="url(#SVGID_2_)" width="19.332" height="6.888"/>
		<rect x="1231.782" y="1.043" width="12.416" height="4.801"/>
	</g>
	<rect x="1227.823" fill="#040000" width="0.502" height="6.888"/>
	<rect x="1247.157" fill="#040000" width="0.5" height="6.888"/>
</g>
<g>
	<g>
		<linearGradient id="SVGID_3_" gradientUnits="userSpaceOnUse" x1="1218.4072" y1="6.8877" x2="1218.4072" y2="0">
			<stop  offset="0" style="stop-color:#3E3A39"/>
			<stop  offset="0.5215" style="stop-color:#DCDDDD"/>
			<stop  offset="1" style="stop-color:#000000"/>
		</linearGradient>
		<rect x="1208.741" fill="url(#SVGID_3_)" width="19.332" height="6.888"/>
		<rect x="1212.198" y="1.043" width="12.418" height="4.801"/>
	</g>
	<rect x="1208.239" fill="#040000" width="0.502" height="6.888"/>
	<rect x="1227.573" fill="#040000" width="0.5" height="6.888"/>
</g>
<g>
	<g>
		<linearGradient id="SVGID_4_" gradientUnits="userSpaceOnUse" x1="1198.8242" y1="6.8877" x2="1198.8242" y2="0">
			<stop  offset="0" style="stop-color:#3E3A39"/>
			<stop  offset="0.5215" style="stop-color:#DCDDDD"/>
			<stop  offset="1" style="stop-color:#000000"/>
		</linearGradient>
		<rect x="1189.157" fill="url(#SVGID_4_)" width="19.334" height="6.888"/>
		<rect x="1192.616" y="1.043" width="12.416" height="4.801"/>
	</g>
	<rect x="1188.657" fill="#040000" width="0.5" height="6.888"/>
	<rect x="1207.989" fill="#040000" width="0.502" height="6.888"/>
</g>
<g>
	<g>
		<linearGradient id="SVGID_5_" gradientUnits="userSpaceOnUse" x1="1179.2402" y1="6.8877" x2="1179.2402" y2="0">
			<stop  offset="0" style="stop-color:#3E3A39"/>
			<stop  offset="0.5215" style="stop-color:#DCDDDD"/>
			<stop  offset="1" style="stop-color:#000000"/>
		</linearGradient>
		<rect x="1169.573" fill="url(#SVGID_5_)" width="19.334" height="6.888"/>
		<rect x="1173.032" y="1.043" width="12.416" height="4.801"/>
	</g>
	<rect x="1169.073" fill="#040000" width="0.5" height="6.888"/>
	<rect x="1188.405" fill="#040000" width="0.502" height="6.888"/>
</g>
<g>
	<g>
		<linearGradient id="SVGID_6_" gradientUnits="userSpaceOnUse" x1="1159.6572" y1="6.8877" x2="1159.6572" y2="0">
			<stop  offset="0" style="stop-color:#3E3A39"/>
			<stop  offset="0.5215" style="stop-color:#DCDDDD"/>
			<stop  offset="1" style="stop-color:#000000"/>
		</linearGradient>
		<rect x="1149.991" fill="url(#SVGID_6_)" width="19.332" height="6.888"/>
		<rect x="1153.448" y="1.043" width="12.416" height="4.801"/>
	</g>
	<rect x="1149.489" fill="#040000" width="0.502" height="6.888"/>
	<rect x="1168.823" fill="#040000" width="0.5" height="6.888"/>
</g>
<g>
	<g>
		<linearGradient id="SVGID_7_" gradientUnits="userSpaceOnUse" x1="1140.0732" y1="6.8877" x2="1140.0732" y2="0">
			<stop  offset="0" style="stop-color:#3E3A39"/>
			<stop  offset="0.5215" style="stop-color:#DCDDDD"/>
			<stop  offset="1" style="stop-color:#000000"/>
		</linearGradient>
		<rect x="1130.407" fill="url(#SVGID_7_)" width="19.332" height="6.888"/>
		<rect x="1133.864" y="1.043" width="12.418" height="4.801"/>
	</g>
	<rect x="1129.905" fill="#040000" width="0.502" height="6.888"/>
	<rect x="1149.239" fill="#040000" width="0.5" height="6.888"/>
</g>
<g>
	<g>
		<linearGradient id="SVGID_8_" gradientUnits="userSpaceOnUse" x1="1120.4902" y1="6.8877" x2="1120.4902" y2="0">
			<stop  offset="0" style="stop-color:#3E3A39"/>
			<stop  offset="0.5215" style="stop-color:#DCDDDD"/>
			<stop  offset="1" style="stop-color:#000000"/>
		</linearGradient>
		<rect x="1110.823" fill="url(#SVGID_8_)" width="19.334" height="6.888"/>
		<rect x="1114.282" y="1.043" width="12.416" height="4.801"/>
	</g>
	<rect x="1110.323" fill="#040000" width="0.5" height="6.888"/>
	<rect x="1129.655" fill="#040000" width="0.502" height="6.888"/>
</g>
<g>
	<g>
		<linearGradient id="SVGID_9_" gradientUnits="userSpaceOnUse" x1="1100.9063" y1="6.8877" x2="1100.9063" y2="0">
			<stop  offset="0" style="stop-color:#3E3A39"/>
			<stop  offset="0.5215" style="stop-color:#DCDDDD"/>
			<stop  offset="1" style="stop-color:#000000"/>
		</linearGradient>
		<rect x="1091.239" fill="url(#SVGID_9_)" width="19.334" height="6.888"/>
		<rect x="1094.698" y="1.043" width="12.416" height="4.801"/>
	</g>
	<rect x="1090.739" fill="#040000" width="0.5" height="6.888"/>
	<rect x="1110.071" fill="#040000" width="0.502" height="6.888"/>
</g>
<g>
	<g>
		<linearGradient id="SVGID_10_" gradientUnits="userSpaceOnUse" x1="1081.3232" y1="6.8877" x2="1081.3232" y2="0">
			<stop  offset="0" style="stop-color:#3E3A39"/>
			<stop  offset="0.5215" style="stop-color:#DCDDDD"/>
			<stop  offset="1" style="stop-color:#000000"/>
		</linearGradient>
		<rect x="1071.657" fill="url(#SVGID_10_)" width="19.332" height="6.888"/>
		<rect x="1075.114" y="1.043" width="12.416" height="4.801"/>
	</g>
	<rect x="1071.155" fill="#040000" width="0.502" height="6.888"/>
	<rect x="1090.489" fill="#040000" width="0.5" height="6.888"/>
</g>
<g>
	<g>
		<linearGradient id="SVGID_11_" gradientUnits="userSpaceOnUse" x1="1061.7393" y1="6.8877" x2="1061.7393" y2="0">
			<stop  offset="0" style="stop-color:#3E3A39"/>
			<stop  offset="0.5215" style="stop-color:#DCDDDD"/>
			<stop  offset="1" style="stop-color:#000000"/>
		</linearGradient>
		<rect x="1052.073" fill="url(#SVGID_11_)" width="19.332" height="6.888"/>
		<rect x="1055.53" y="1.043" width="12.418" height="4.801"/>
	</g>
	<rect x="1051.571" fill="#040000" width="0.502" height="6.888"/>
	<rect x="1070.905" fill="#040000" width="0.5" height="6.888"/>
</g>
<g>
	<g>
		<linearGradient id="SVGID_12_" gradientUnits="userSpaceOnUse" x1="1042.1563" y1="6.8877" x2="1042.1563" y2="0">
			<stop  offset="0" style="stop-color:#3E3A39"/>
			<stop  offset="0.5215" style="stop-color:#DCDDDD"/>
			<stop  offset="1" style="stop-color:#000000"/>
		</linearGradient>
		<rect x="1032.489" fill="url(#SVGID_12_)" width="19.334" height="6.888"/>
		<rect x="1035.948" y="1.043" width="12.416" height="4.801"/>
	</g>
	<rect x="1031.989" fill="#040000" width="0.5" height="6.888"/>
	<rect x="1051.321" fill="#040000" width="0.502" height="6.888"/>
</g>
<g>
	<g>
		<linearGradient id="SVGID_13_" gradientUnits="userSpaceOnUse" x1="1022.5723" y1="6.8877" x2="1022.5723" y2="0">
			<stop  offset="0" style="stop-color:#3E3A39"/>
			<stop  offset="0.5215" style="stop-color:#DCDDDD"/>
			<stop  offset="1" style="stop-color:#000000"/>
		</linearGradient>
		<rect x="1012.905" fill="url(#SVGID_13_)" width="19.334" height="6.888"/>
		<rect x="1016.364" y="1.043" width="12.416" height="4.801"/>
	</g>
	<rect x="1012.405" fill="#040000" width="0.5" height="6.888"/>
	<rect x="1031.737" fill="#040000" width="0.502" height="6.888"/>
</g>
<g>
	<g>
		<linearGradient id="SVGID_14_" gradientUnits="userSpaceOnUse" x1="1002.9893" y1="6.8877" x2="1002.9893" y2="0">
			<stop  offset="0" style="stop-color:#3E3A39"/>
			<stop  offset="0.5215" style="stop-color:#DCDDDD"/>
			<stop  offset="1" style="stop-color:#000000"/>
		</linearGradient>
		<rect x="993.323" fill="url(#SVGID_14_)" width="19.332" height="6.888"/>
		<rect x="996.78" y="1.043" width="12.416" height="4.801"/>
	</g>
	<rect x="992.821" fill="#040000" width="0.502" height="6.888"/>
	<rect x="1012.155" fill="#040000" width="0.5" height="6.888"/>
</g>
<g>
	<g>
		<linearGradient id="SVGID_15_" gradientUnits="userSpaceOnUse" x1="983.4053" y1="6.8877" x2="983.4053" y2="0">
			<stop  offset="0" style="stop-color:#3E3A39"/>
			<stop  offset="0.5215" style="stop-color:#DCDDDD"/>
			<stop  offset="1" style="stop-color:#000000"/>
		</linearGradient>
		<rect x="973.739" fill="url(#SVGID_15_)" width="19.332" height="6.888"/>
		<rect x="977.196" y="1.043" width="12.418" height="4.801"/>
	</g>
	<rect x="973.237" fill="#040000" width="0.502" height="6.888"/>
	<rect x="992.571" fill="#040000" width="0.5" height="6.888"/>
</g>
<g>
	<g>
		<linearGradient id="SVGID_16_" gradientUnits="userSpaceOnUse" x1="963.8223" y1="6.8877" x2="963.8223" y2="0">
			<stop  offset="0" style="stop-color:#3E3A39"/>
			<stop  offset="0.5215" style="stop-color:#DCDDDD"/>
			<stop  offset="1" style="stop-color:#000000"/>
		</linearGradient>
		<rect x="954.155" fill="url(#SVGID_16_)" width="19.334" height="6.888"/>
		<rect x="957.614" y="1.043" width="12.416" height="4.801"/>
	</g>
	<rect x="953.655" fill="#040000" width="0.5" height="6.888"/>
	<rect x="972.987" fill="#040000" width="0.502" height="6.888"/>
</g>
<g>
	<g>
		<linearGradient id="SVGID_17_" gradientUnits="userSpaceOnUse" x1="944.2383" y1="6.8877" x2="944.2383" y2="0">
			<stop  offset="0" style="stop-color:#3E3A39"/>
			<stop  offset="0.5215" style="stop-color:#DCDDDD"/>
			<stop  offset="1" style="stop-color:#000000"/>
		</linearGradient>
		<rect x="934.571" fill="url(#SVGID_17_)" width="19.334" height="6.888"/>
		<rect x="938.03" y="1.043" width="12.416" height="4.801"/>
	</g>
	<rect x="934.071" fill="#040000" width="0.5" height="6.888"/>
	<rect x="953.403" fill="#040000" width="0.502" height="6.888"/>
</g>
<g>
	<g>
		<linearGradient id="SVGID_18_" gradientUnits="userSpaceOnUse" x1="924.6553" y1="6.8877" x2="924.6553" y2="0">
			<stop  offset="0" style="stop-color:#3E3A39"/>
			<stop  offset="0.5215" style="stop-color:#DCDDDD"/>
			<stop  offset="1" style="stop-color:#000000"/>
		</linearGradient>
		<rect x="914.989" fill="url(#SVGID_18_)" width="19.332" height="6.888"/>
		<rect x="918.446" y="1.043" width="12.416" height="4.801"/>
	</g>
	<rect x="914.487" fill="#040000" width="0.502" height="6.888"/>
	<rect x="933.821" fill="#040000" width="0.5" height="6.888"/>
</g>
<g>
	<g>
		<linearGradient id="SVGID_19_" gradientUnits="userSpaceOnUse" x1="905.0713" y1="6.8877" x2="905.0713" y2="0">
			<stop  offset="0" style="stop-color:#3E3A39"/>
			<stop  offset="0.5215" style="stop-color:#DCDDDD"/>
			<stop  offset="1" style="stop-color:#000000"/>
		</linearGradient>
		<rect x="895.405" fill="url(#SVGID_19_)" width="19.332" height="6.888"/>
		<rect x="898.862" y="1.043" width="12.418" height="4.801"/>
	</g>
	<rect x="894.903" fill="#040000" width="0.502" height="6.888"/>
	<rect x="914.237" fill="#040000" width="0.5" height="6.888"/>
</g>
<g>
	<g>
		<linearGradient id="SVGID_20_" gradientUnits="userSpaceOnUse" x1="885.4883" y1="6.8877" x2="885.4883" y2="0">
			<stop  offset="0" style="stop-color:#3E3A39"/>
			<stop  offset="0.5215" style="stop-color:#DCDDDD"/>
			<stop  offset="1" style="stop-color:#000000"/>
		</linearGradient>
		<rect x="875.821" fill="url(#SVGID_20_)" width="19.334" height="6.888"/>
		<rect x="879.28" y="1.043" width="12.416" height="4.801"/>
	</g>
	<rect x="875.321" fill="#040000" width="0.5" height="6.888"/>
	<rect x="894.653" fill="#040000" width="0.502" height="6.888"/>
</g>
<g>
	<g>
		<linearGradient id="SVGID_21_" gradientUnits="userSpaceOnUse" x1="865.9043" y1="6.8877" x2="865.9043" y2="0">
			<stop  offset="0" style="stop-color:#3E3A39"/>
			<stop  offset="0.5215" style="stop-color:#DCDDDD"/>
			<stop  offset="1" style="stop-color:#000000"/>
		</linearGradient>
		<rect x="856.237" fill="url(#SVGID_21_)" width="19.334" height="6.888"/>
		<rect x="859.696" y="1.043" width="12.416" height="4.801"/>
	</g>
	<rect x="855.737" fill="#040000" width="0.5" height="6.888"/>
	<rect x="875.069" fill="#040000" width="0.502" height="6.888"/>
</g>
<g>
	<g>
		<linearGradient id="SVGID_22_" gradientUnits="userSpaceOnUse" x1="846.3213" y1="6.8877" x2="846.3213" y2="0">
			<stop  offset="0" style="stop-color:#3E3A39"/>
			<stop  offset="0.5215" style="stop-color:#DCDDDD"/>
			<stop  offset="1" style="stop-color:#000000"/>
		</linearGradient>
		<rect x="836.655" fill="url(#SVGID_22_)" width="19.332" height="6.888"/>
		<rect x="840.112" y="1.043" width="12.416" height="4.801"/>
	</g>
	<rect x="836.153" fill="#040000" width="0.502" height="6.888"/>
	<rect x="855.487" fill="#040000" width="0.5" height="6.888"/>
</g>
<g>
	<g>
		<linearGradient id="SVGID_23_" gradientUnits="userSpaceOnUse" x1="826.7373" y1="6.8877" x2="826.7373" y2="0">
			<stop  offset="0" style="stop-color:#3E3A39"/>
			<stop  offset="0.5215" style="stop-color:#DCDDDD"/>
			<stop  offset="1" style="stop-color:#000000"/>
		</linearGradient>
		<rect x="817.071" fill="url(#SVGID_23_)" width="19.332" height="6.888"/>
		<rect x="820.528" y="1.043" width="12.418" height="4.801"/>
	</g>
	<rect x="816.569" fill="#040000" width="0.502" height="6.888"/>
	<rect x="835.903" fill="#040000" width="0.5" height="6.888"/>
</g>
<g>
	<g>
		<linearGradient id="SVGID_24_" gradientUnits="userSpaceOnUse" x1="807.1543" y1="6.8877" x2="807.1543" y2="0">
			<stop  offset="0" style="stop-color:#3E3A39"/>
			<stop  offset="0.5215" style="stop-color:#DCDDDD"/>
			<stop  offset="1" style="stop-color:#000000"/>
		</linearGradient>
		<rect x="797.487" fill="url(#SVGID_24_)" width="19.334" height="6.888"/>
		<rect x="800.946" y="1.043" width="12.416" height="4.801"/>
	</g>
	<rect x="796.987" fill="#040000" width="0.5" height="6.888"/>
	<rect x="816.319" fill="#040000" width="0.502" height="6.888"/>
</g>
<g>
	<g>
		<linearGradient id="SVGID_25_" gradientUnits="userSpaceOnUse" x1="787.5703" y1="6.8877" x2="787.5703" y2="0">
			<stop  offset="0" style="stop-color:#3E3A39"/>
			<stop  offset="0.5215" style="stop-color:#DCDDDD"/>
			<stop  offset="1" style="stop-color:#000000"/>
		</linearGradient>
		<rect x="777.903" fill="url(#SVGID_25_)" width="19.334" height="6.888"/>
		<rect x="781.362" y="1.043" width="12.416" height="4.801"/>
	</g>
	<rect x="777.403" fill="#040000" width="0.5" height="6.888"/>
	<rect x="796.735" fill="#040000" width="0.502" height="6.888"/>
</g>
<g>
	<g>
		<linearGradient id="SVGID_26_" gradientUnits="userSpaceOnUse" x1="767.9873" y1="6.8877" x2="767.9873" y2="0">
			<stop  offset="0" style="stop-color:#3E3A39"/>
			<stop  offset="0.5215" style="stop-color:#DCDDDD"/>
			<stop  offset="1" style="stop-color:#000000"/>
		</linearGradient>
		<rect x="758.321" fill="url(#SVGID_26_)" width="19.332" height="6.888"/>
		<rect x="761.778" y="1.043" width="12.416" height="4.801"/>
	</g>
	<rect x="757.819" fill="#040000" width="0.502" height="6.888"/>
	<rect x="777.153" fill="#040000" width="0.5" height="6.888"/>
</g>
<g>
	<g>
		<linearGradient id="SVGID_27_" gradientUnits="userSpaceOnUse" x1="748.4033" y1="6.8877" x2="748.4033" y2="0">
			<stop  offset="0" style="stop-color:#3E3A39"/>
			<stop  offset="0.5215" style="stop-color:#DCDDDD"/>
			<stop  offset="1" style="stop-color:#000000"/>
		</linearGradient>
		<rect x="738.737" fill="url(#SVGID_27_)" width="19.332" height="6.888"/>
		<rect x="742.194" y="1.043" width="12.418" height="4.801"/>
	</g>
	<rect x="738.235" fill="#040000" width="0.502" height="6.888"/>
	<rect x="757.569" fill="#040000" width="0.5" height="6.888"/>
</g>
<g>
	<g>
		<linearGradient id="SVGID_28_" gradientUnits="userSpaceOnUse" x1="728.8203" y1="6.8877" x2="728.8203" y2="0">
			<stop  offset="0" style="stop-color:#3E3A39"/>
			<stop  offset="0.5215" style="stop-color:#DCDDDD"/>
			<stop  offset="1" style="stop-color:#000000"/>
		</linearGradient>
		<rect x="719.153" fill="url(#SVGID_28_)" width="19.334" height="6.888"/>
		<rect x="722.612" y="1.043" width="12.416" height="4.801"/>
	</g>
	<rect x="718.653" fill="#040000" width="0.5" height="6.888"/>
	<rect x="737.985" fill="#040000" width="0.502" height="6.888"/>
</g>
<g>
	<g>
		<linearGradient id="SVGID_29_" gradientUnits="userSpaceOnUse" x1="709.2363" y1="6.8877" x2="709.2363" y2="0">
			<stop  offset="0" style="stop-color:#3E3A39"/>
			<stop  offset="0.5215" style="stop-color:#DCDDDD"/>
			<stop  offset="1" style="stop-color:#000000"/>
		</linearGradient>
		<rect x="699.569" fill="url(#SVGID_29_)" width="19.334" height="6.888"/>
		<rect x="703.028" y="1.043" width="12.416" height="4.801"/>
	</g>
	<rect x="699.069" fill="#040000" width="0.5" height="6.888"/>
	<rect x="718.401" fill="#040000" width="0.502" height="6.888"/>
</g>
<g>
	<g>
		<linearGradient id="SVGID_30_" gradientUnits="userSpaceOnUse" x1="689.6533" y1="6.8877" x2="689.6533" y2="0">
			<stop  offset="0" style="stop-color:#3E3A39"/>
			<stop  offset="0.5215" style="stop-color:#DCDDDD"/>
			<stop  offset="1" style="stop-color:#000000"/>
		</linearGradient>
		<rect x="679.987" fill="url(#SVGID_30_)" width="19.332" height="6.888"/>
		<rect x="683.444" y="1.043" width="12.416" height="4.801"/>
	</g>
	<rect x="679.485" fill="#040000" width="0.502" height="6.888"/>
	<rect x="698.819" fill="#040000" width="0.5" height="6.888"/>
</g>
<g>
	<g>
		<linearGradient id="SVGID_31_" gradientUnits="userSpaceOnUse" x1="670.0693" y1="6.8877" x2="670.0693" y2="0">
			<stop  offset="0" style="stop-color:#3E3A39"/>
			<stop  offset="0.5215" style="stop-color:#DCDDDD"/>
			<stop  offset="1" style="stop-color:#000000"/>
		</linearGradient>
		<rect x="660.403" fill="url(#SVGID_31_)" width="19.332" height="6.888"/>
		<rect x="663.86" y="1.043" width="12.418" height="4.801"/>
	</g>
	<rect x="659.901" fill="#040000" width="0.502" height="6.888"/>
	<rect x="679.235" fill="#040000" width="0.5" height="6.888"/>
</g>
<g>
	<g>
		<linearGradient id="SVGID_32_" gradientUnits="userSpaceOnUse" x1="650.4863" y1="6.8877" x2="650.4863" y2="0">
			<stop  offset="0" style="stop-color:#3E3A39"/>
			<stop  offset="0.5215" style="stop-color:#DCDDDD"/>
			<stop  offset="1" style="stop-color:#000000"/>
		</linearGradient>
		<rect x="640.819" fill="url(#SVGID_32_)" width="19.334" height="6.888"/>
		<rect x="644.278" y="1.043" width="12.416" height="4.801"/>
	</g>
	<rect x="640.319" fill="#040000" width="0.5" height="6.888"/>
	<rect x="659.651" fill="#040000" width="0.502" height="6.888"/>
</g>
<g>
	<g>
		<linearGradient id="SVGID_33_" gradientUnits="userSpaceOnUse" x1="630.9028" y1="6.8877" x2="630.9028" y2="0">
			<stop  offset="0" style="stop-color:#3E3A39"/>
			<stop  offset="0.5215" style="stop-color:#DCDDDD"/>
			<stop  offset="1" style="stop-color:#000000"/>
		</linearGradient>
		<rect x="621.236" fill="url(#SVGID_33_)" width="19.333" height="6.888"/>
		<rect x="624.694" y="1.043" width="12.417" height="4.801"/>
	</g>
	<rect x="620.735" fill="#040000" width="0.501" height="6.888"/>
	<rect x="640.067" fill="#040000" width="0.502" height="6.888"/>
</g>
<g>
	<g>
		<linearGradient id="SVGID_34_" gradientUnits="userSpaceOnUse" x1="611.3188" y1="6.8877" x2="611.3188" y2="0">
			<stop  offset="0" style="stop-color:#3E3A39"/>
			<stop  offset="0.5215" style="stop-color:#DCDDDD"/>
			<stop  offset="1" style="stop-color:#000000"/>
		</linearGradient>
		<rect x="601.652" fill="url(#SVGID_34_)" width="19.333" height="6.888"/>
		<rect x="605.111" y="1.043" width="12.416" height="4.801"/>
	</g>
	<rect x="601.151" fill="#040000" width="0.501" height="6.888"/>
	<rect x="620.484" fill="#040000" width="0.501" height="6.888"/>
</g>
<g>
	<g>
		<linearGradient id="SVGID_35_" gradientUnits="userSpaceOnUse" x1="591.7354" y1="6.8877" x2="591.7354" y2="0">
			<stop  offset="0" style="stop-color:#3E3A39"/>
			<stop  offset="0.5215" style="stop-color:#DCDDDD"/>
			<stop  offset="1" style="stop-color:#000000"/>
		</linearGradient>
		<rect x="582.069" fill="url(#SVGID_35_)" width="19.333" height="6.888"/>
		<rect x="585.527" y="1.043" width="12.417" height="4.801"/>
	</g>
	<rect x="581.568" fill="#040000" width="0.501" height="6.888"/>
	<rect x="600.901" fill="#040000" width="0.501" height="6.888"/>
</g>
<g>
	<g>
		<linearGradient id="SVGID_36_" gradientUnits="userSpaceOnUse" x1="572.1519" y1="6.8877" x2="572.1519" y2="0">
			<stop  offset="0" style="stop-color:#3E3A39"/>
			<stop  offset="0.5215" style="stop-color:#DCDDDD"/>
			<stop  offset="1" style="stop-color:#000000"/>
		</linearGradient>
		<rect x="562.485" fill="url(#SVGID_36_)" width="19.333" height="6.888"/>
		<rect x="565.944" y="1.043" width="12.416" height="4.801"/>
	</g>
	<rect x="561.984" fill="#040000" width="0.501" height="6.888"/>
	<rect x="581.317" fill="#040000" width="0.501" height="6.888"/>
</g>
<g>
	<g>
		<linearGradient id="SVGID_37_" gradientUnits="userSpaceOnUse" x1="552.5684" y1="6.8877" x2="552.5684" y2="0">
			<stop  offset="0" style="stop-color:#3E3A39"/>
			<stop  offset="0.5215" style="stop-color:#DCDDDD"/>
			<stop  offset="1" style="stop-color:#000000"/>
		</linearGradient>
		<rect x="542.902" fill="url(#SVGID_37_)" width="19.333" height="6.888"/>
		<rect x="546.36" y="1.043" width="12.417" height="4.801"/>
	</g>
	<rect x="542.401" fill="#040000" width="0.501" height="6.888"/>
	<rect x="561.734" fill="#040000" width="0.501" height="6.888"/>
</g>
<g>
	<g>
		<linearGradient id="SVGID_38_" gradientUnits="userSpaceOnUse" x1="532.9849" y1="6.8877" x2="532.9849" y2="0">
			<stop  offset="0" style="stop-color:#3E3A39"/>
			<stop  offset="0.5215" style="stop-color:#DCDDDD"/>
			<stop  offset="1" style="stop-color:#000000"/>
		</linearGradient>
		<rect x="523.318" fill="url(#SVGID_38_)" width="19.333" height="6.888"/>
		<rect x="526.777" y="1.043" width="12.416" height="4.801"/>
	</g>
	<rect x="522.817" fill="#040000" width="0.501" height="6.888"/>
	<rect x="542.15" fill="#040000" width="0.501" height="6.888"/>
</g>
<g>
	<g>
		<linearGradient id="SVGID_39_" gradientUnits="userSpaceOnUse" x1="513.4014" y1="6.8877" x2="513.4014" y2="0">
			<stop  offset="0" style="stop-color:#3E3A39"/>
			<stop  offset="0.5215" style="stop-color:#DCDDDD"/>
			<stop  offset="1" style="stop-color:#000000"/>
		</linearGradient>
		<rect x="503.735" fill="url(#SVGID_39_)" width="19.333" height="6.888"/>
		<rect x="507.193" y="1.043" width="12.417" height="4.801"/>
	</g>
	<rect x="503.234" fill="#040000" width="0.501" height="6.888"/>
	<rect x="522.567" fill="#040000" width="0.501" height="6.888"/>
</g>
<g>
	<g>
		<linearGradient id="SVGID_40_" gradientUnits="userSpaceOnUse" x1="493.8179" y1="6.8877" x2="493.8179" y2="0">
			<stop  offset="0" style="stop-color:#3E3A39"/>
			<stop  offset="0.5215" style="stop-color:#DCDDDD"/>
			<stop  offset="1" style="stop-color:#000000"/>
		</linearGradient>
		<rect x="484.151" fill="url(#SVGID_40_)" width="19.333" height="6.888"/>
		<rect x="487.609" y="1.043" width="12.417" height="4.801"/>
	</g>
	<rect x="483.65" fill="#040000" width="0.5" height="6.888"/>
	<rect x="502.983" fill="#040000" width="0.501" height="6.888"/>
</g>
<g>
	<g>
		<linearGradient id="SVGID_41_" gradientUnits="userSpaceOnUse" x1="474.2344" y1="6.8877" x2="474.2344" y2="0">
			<stop  offset="0" style="stop-color:#3E3A39"/>
			<stop  offset="0.5215" style="stop-color:#DCDDDD"/>
			<stop  offset="1" style="stop-color:#000000"/>
		</linearGradient>
		<rect x="464.568" fill="url(#SVGID_41_)" width="19.333" height="6.888"/>
		<rect x="468.026" y="1.043" width="12.417" height="4.801"/>
	</g>
	<rect x="464.067" fill="#040000" width="0.501" height="6.888"/>
	<rect x="483.4" fill="#040000" width="0.501" height="6.888"/>
</g>
<g>
	<g>
		<linearGradient id="SVGID_42_" gradientUnits="userSpaceOnUse" x1="454.6509" y1="6.8877" x2="454.6509" y2="0">
			<stop  offset="0" style="stop-color:#3E3A39"/>
			<stop  offset="0.5215" style="stop-color:#DCDDDD"/>
			<stop  offset="1" style="stop-color:#000000"/>
		</linearGradient>
		<rect x="444.984" fill="url(#SVGID_42_)" width="19.333" height="6.888"/>
		<rect x="448.443" y="1.043" width="12.416" height="4.801"/>
	</g>
	<rect x="444.483" fill="#040000" width="0.501" height="6.888"/>
	<rect x="463.816" fill="#040000" width="0.5" height="6.888"/>
</g>
<g>
	<g>
		<linearGradient id="SVGID_43_" gradientUnits="userSpaceOnUse" x1="435.0674" y1="6.8877" x2="435.0674" y2="0">
			<stop  offset="0" style="stop-color:#3E3A39"/>
			<stop  offset="0.5215" style="stop-color:#DCDDDD"/>
			<stop  offset="1" style="stop-color:#000000"/>
		</linearGradient>
		<rect x="425.401" fill="url(#SVGID_43_)" width="19.333" height="6.888"/>
		<rect x="428.859" y="1.043" width="12.417" height="4.801"/>
	</g>
	<rect x="424.9" fill="#040000" width="0.501" height="6.888"/>
	<rect x="444.233" fill="#040000" width="0.501" height="6.888"/>
</g>
<g>
	<g>
		<linearGradient id="SVGID_44_" gradientUnits="userSpaceOnUse" x1="415.4839" y1="6.8877" x2="415.4839" y2="0">
			<stop  offset="0" style="stop-color:#3E3A39"/>
			<stop  offset="0.5215" style="stop-color:#DCDDDD"/>
			<stop  offset="1" style="stop-color:#000000"/>
		</linearGradient>
		<rect x="405.817" fill="url(#SVGID_44_)" width="19.333" height="6.888"/>
		<rect x="409.275" y="1.043" width="12.417" height="4.801"/>
	</g>
	<rect x="405.316" fill="#040000" width="0.5" height="6.888"/>
	<rect x="424.649" fill="#040000" width="0.501" height="6.888"/>
</g>
<g>
	<g>
		<linearGradient id="SVGID_45_" gradientUnits="userSpaceOnUse" x1="395.9004" y1="6.8877" x2="395.9004" y2="0">
			<stop  offset="0" style="stop-color:#3E3A39"/>
			<stop  offset="0.5215" style="stop-color:#DCDDDD"/>
			<stop  offset="1" style="stop-color:#000000"/>
		</linearGradient>
		<rect x="386.234" fill="url(#SVGID_45_)" width="19.333" height="6.888"/>
		<rect x="389.692" y="1.043" width="12.417" height="4.801"/>
	</g>
	<rect x="385.733" fill="#040000" width="0.501" height="6.888"/>
	<rect x="405.066" fill="#040000" width="0.501" height="6.888"/>
</g>
<g>
	<g>
		<linearGradient id="SVGID_46_" gradientUnits="userSpaceOnUse" x1="376.3169" y1="6.8877" x2="376.3169" y2="0">
			<stop  offset="0" style="stop-color:#3E3A39"/>
			<stop  offset="0.5215" style="stop-color:#DCDDDD"/>
			<stop  offset="1" style="stop-color:#000000"/>
		</linearGradient>
		<rect x="366.65" fill="url(#SVGID_46_)" width="19.333" height="6.888"/>
		<rect x="370.109" y="1.043" width="12.416" height="4.801"/>
	</g>
	<rect x="366.149" fill="#040000" width="0.501" height="6.888"/>
	<rect x="385.482" fill="#040000" width="0.501" height="6.888"/>
</g>
<g>
	<g>
		<linearGradient id="SVGID_47_" gradientUnits="userSpaceOnUse" x1="356.7334" y1="6.8877" x2="356.7334" y2="0">
			<stop  offset="0" style="stop-color:#3E3A39"/>
			<stop  offset="0.5215" style="stop-color:#DCDDDD"/>
			<stop  offset="1" style="stop-color:#000000"/>
		</linearGradient>
		<rect x="347.067" fill="url(#SVGID_47_)" width="19.333" height="6.888"/>
		<rect x="350.525" y="1.043" width="12.417" height="4.801"/>
	</g>
	<rect x="346.566" fill="#040000" width="0.501" height="6.888"/>
	<rect x="365.899" fill="#040000" width="0.501" height="6.888"/>
</g>
<g>
	<g>
		<linearGradient id="SVGID_48_" gradientUnits="userSpaceOnUse" x1="337.1499" y1="6.8877" x2="337.1499" y2="0">
			<stop  offset="0" style="stop-color:#3E3A39"/>
			<stop  offset="0.5215" style="stop-color:#DCDDDD"/>
			<stop  offset="1" style="stop-color:#000000"/>
		</linearGradient>
		<rect x="327.483" fill="url(#SVGID_48_)" width="19.333" height="6.888"/>
		<rect x="330.941" y="1.043" width="12.417" height="4.801"/>
	</g>
	<rect x="326.982" fill="#040000" width="0.501" height="6.888"/>
	<rect x="346.315" fill="#040000" width="0.501" height="6.888"/>
</g>
<g>
	<g>
		<linearGradient id="SVGID_49_" gradientUnits="userSpaceOnUse" x1="317.5664" y1="6.8877" x2="317.5664" y2="0">
			<stop  offset="0" style="stop-color:#3E3A39"/>
			<stop  offset="0.5215" style="stop-color:#DCDDDD"/>
			<stop  offset="1" style="stop-color:#000000"/>
		</linearGradient>
		<rect x="307.9" fill="url(#SVGID_49_)" width="19.333" height="6.888"/>
		<rect x="311.358" y="1.043" width="12.417" height="4.801"/>
	</g>
	<rect x="307.399" fill="#040000" width="0.501" height="6.888"/>
	<rect x="326.732" fill="#040000" width="0.501" height="6.888"/>
</g>
<g>
	<g>
		<linearGradient id="SVGID_50_" gradientUnits="userSpaceOnUse" x1="297.9829" y1="6.8877" x2="297.9829" y2="0">
			<stop  offset="0" style="stop-color:#3E3A39"/>
			<stop  offset="0.5215" style="stop-color:#DCDDDD"/>
			<stop  offset="1" style="stop-color:#000000"/>
		</linearGradient>
		<rect x="288.316" fill="url(#SVGID_50_)" width="19.333" height="6.888"/>
		<rect x="291.775" y="1.043" width="12.416" height="4.801"/>
	</g>
	<rect x="287.815" fill="#040000" width="0.501" height="6.888"/>
	<rect x="307.148" fill="#040000" width="0.501" height="6.888"/>
</g>
<g>
	<g>
		<linearGradient id="SVGID_51_" gradientUnits="userSpaceOnUse" x1="278.3994" y1="6.8877" x2="278.3994" y2="0">
			<stop  offset="0" style="stop-color:#3E3A39"/>
			<stop  offset="0.5215" style="stop-color:#DCDDDD"/>
			<stop  offset="1" style="stop-color:#000000"/>
		</linearGradient>
		<rect x="268.733" fill="url(#SVGID_51_)" width="19.333" height="6.888"/>
		<rect x="272.191" y="1.043" width="12.417" height="4.801"/>
	</g>
	<rect x="268.232" fill="#040000" width="0.501" height="6.888"/>
	<rect x="287.565" fill="#040000" width="0.501" height="6.888"/>
</g>
<g>
	<g>
		<linearGradient id="SVGID_52_" gradientUnits="userSpaceOnUse" x1="258.8159" y1="6.8877" x2="258.8159" y2="0">
			<stop  offset="0" style="stop-color:#3E3A39"/>
			<stop  offset="0.5215" style="stop-color:#DCDDDD"/>
			<stop  offset="1" style="stop-color:#000000"/>
		</linearGradient>
		<rect x="249.149" fill="url(#SVGID_52_)" width="19.333" height="6.888"/>
		<rect x="252.607" y="1.043" width="12.417" height="4.801"/>
	</g>
	<rect x="248.648" fill="#040000" width="0.501" height="6.888"/>
	<rect x="267.981" fill="#040000" width="0.501" height="6.888"/>
</g>
<g>
	<g>
		<linearGradient id="SVGID_53_" gradientUnits="userSpaceOnUse" x1="239.2324" y1="6.8877" x2="239.2324" y2="0">
			<stop  offset="0" style="stop-color:#3E3A39"/>
			<stop  offset="0.5215" style="stop-color:#DCDDDD"/>
			<stop  offset="1" style="stop-color:#000000"/>
		</linearGradient>
		<rect x="229.566" fill="url(#SVGID_53_)" width="19.333" height="6.888"/>
		<rect x="233.024" y="1.043" width="12.417" height="4.801"/>
	</g>
	<rect x="229.065" fill="#040000" width="0.501" height="6.888"/>
	<rect x="248.398" fill="#040000" width="0.501" height="6.888"/>
</g>
<g>
	<g>
		<linearGradient id="SVGID_54_" gradientUnits="userSpaceOnUse" x1="219.6489" y1="6.8877" x2="219.6489" y2="0">
			<stop  offset="0" style="stop-color:#3E3A39"/>
			<stop  offset="0.5215" style="stop-color:#DCDDDD"/>
			<stop  offset="1" style="stop-color:#000000"/>
		</linearGradient>
		<rect x="209.982" fill="url(#SVGID_54_)" width="19.333" height="6.888"/>
		<rect x="213.441" y="1.043" width="12.416" height="4.801"/>
	</g>
	<rect x="209.481" fill="#040000" width="0.501" height="6.888"/>
	<rect x="228.814" fill="#040000" width="0.501" height="6.888"/>
</g>
<g>
	<g>
		<linearGradient id="SVGID_55_" gradientUnits="userSpaceOnUse" x1="200.0654" y1="6.8877" x2="200.0654" y2="0">
			<stop  offset="0" style="stop-color:#3E3A39"/>
			<stop  offset="0.5215" style="stop-color:#DCDDDD"/>
			<stop  offset="1" style="stop-color:#000000"/>
		</linearGradient>
		<rect x="190.399" fill="url(#SVGID_55_)" width="19.333" height="6.888"/>
		<rect x="193.857" y="1.043" width="12.417" height="4.801"/>
	</g>
	<rect x="189.898" fill="#040000" width="0.501" height="6.888"/>
	<rect x="209.231" fill="#040000" width="0.501" height="6.888"/>
</g>
<g>
	<g>
		<linearGradient id="SVGID_56_" gradientUnits="userSpaceOnUse" x1="180.4819" y1="6.8877" x2="180.4819" y2="0">
			<stop  offset="0" style="stop-color:#3E3A39"/>
			<stop  offset="0.5215" style="stop-color:#DCDDDD"/>
			<stop  offset="1" style="stop-color:#000000"/>
		</linearGradient>
		<rect x="170.815" fill="url(#SVGID_56_)" width="19.333" height="6.888"/>
		<rect x="174.273" y="1.043" width="12.417" height="4.801"/>
	</g>
	<rect x="170.314" fill="#040000" width="0.501" height="6.888"/>
	<rect x="189.647" fill="#040000" width="0.501" height="6.888"/>
</g>
<g>
	<g>
		<linearGradient id="SVGID_57_" gradientUnits="userSpaceOnUse" x1="160.8984" y1="6.8877" x2="160.8984" y2="0">
			<stop  offset="0" style="stop-color:#3E3A39"/>
			<stop  offset="0.5215" style="stop-color:#DCDDDD"/>
			<stop  offset="1" style="stop-color:#000000"/>
		</linearGradient>
		<rect x="151.232" fill="url(#SVGID_57_)" width="19.333" height="6.888"/>
		<rect x="154.69" y="1.043" width="12.417" height="4.801"/>
	</g>
	<rect x="150.731" fill="#040000" width="0.501" height="6.888"/>
	<rect x="170.064" fill="#040000" width="0.501" height="6.888"/>
</g>
<g>
	<g>
		<linearGradient id="SVGID_58_" gradientUnits="userSpaceOnUse" x1="141.3149" y1="6.8877" x2="141.3149" y2="0">
			<stop  offset="0" style="stop-color:#3E3A39"/>
			<stop  offset="0.5215" style="stop-color:#DCDDDD"/>
			<stop  offset="1" style="stop-color:#000000"/>
		</linearGradient>
		<rect x="131.648" fill="url(#SVGID_58_)" width="19.333" height="6.888"/>
		<rect x="135.107" y="1.043" width="12.416" height="4.801"/>
	</g>
	<rect x="131.147" fill="#040000" width="0.501" height="6.888"/>
	<rect x="150.48" fill="#040000" width="0.501" height="6.888"/>
</g>
<g>
	<g>
		<linearGradient id="SVGID_59_" gradientUnits="userSpaceOnUse" x1="121.7314" y1="6.8877" x2="121.7314" y2="0">
			<stop  offset="0" style="stop-color:#3E3A39"/>
			<stop  offset="0.5215" style="stop-color:#DCDDDD"/>
			<stop  offset="1" style="stop-color:#000000"/>
		</linearGradient>
		<rect x="112.065" fill="url(#SVGID_59_)" width="19.333" height="6.888"/>
		<rect x="115.523" y="1.043" width="12.417" height="4.801"/>
	</g>
	<rect x="111.564" fill="#040000" width="0.501" height="6.888"/>
	<rect x="130.897" fill="#040000" width="0.501" height="6.888"/>
</g>
<g>
	<g>
		<linearGradient id="SVGID_60_" gradientUnits="userSpaceOnUse" x1="102.1479" y1="6.8877" x2="102.1479" y2="0">
			<stop  offset="0" style="stop-color:#3E3A39"/>
			<stop  offset="0.5215" style="stop-color:#DCDDDD"/>
			<stop  offset="1" style="stop-color:#000000"/>
		</linearGradient>
		<rect x="92.481" fill="url(#SVGID_60_)" width="19.333" height="6.888"/>
		<rect x="95.94" y="1.043" width="12.416" height="4.801"/>
	</g>
	<rect x="91.98" fill="#040000" width="0.501" height="6.888"/>
	<rect x="111.313" fill="#040000" width="0.501" height="6.888"/>
</g>
<g>
	<g>
		<linearGradient id="SVGID_61_" gradientUnits="userSpaceOnUse" x1="82.5645" y1="6.8877" x2="82.5645" y2="0">
			<stop  offset="0" style="stop-color:#3E3A39"/>
			<stop  offset="0.5215" style="stop-color:#DCDDDD"/>
			<stop  offset="1" style="stop-color:#000000"/>
		</linearGradient>
		<rect x="72.898" fill="url(#SVGID_61_)" width="19.333" height="6.888"/>
		<rect x="76.356" y="1.043" width="12.417" height="4.801"/>
	</g>
	<rect x="72.397" fill="#040000" width="0.501" height="6.888"/>
	<rect x="91.73" fill="#040000" width="0.501" height="6.888"/>
</g>
<g>
	<g>
		<linearGradient id="SVGID_62_" gradientUnits="userSpaceOnUse" x1="62.981" y1="6.8877" x2="62.981" y2="0">
			<stop  offset="0" style="stop-color:#3E3A39"/>
			<stop  offset="0.5215" style="stop-color:#DCDDDD"/>
			<stop  offset="1" style="stop-color:#000000"/>
		</linearGradient>
		<rect x="53.314" fill="url(#SVGID_62_)" width="19.333" height="6.888"/>
		<rect x="56.773" y="1.043" width="12.416" height="4.801"/>
	</g>
	<rect x="52.813" fill="#040000" width="0.501" height="6.888"/>
	<rect x="72.146" fill="#040000" width="0.501" height="6.888"/>
</g>
<g>
	<g>
		<linearGradient id="SVGID_63_" gradientUnits="userSpaceOnUse" x1="43.3975" y1="6.8877" x2="43.3975" y2="0">
			<stop  offset="0" style="stop-color:#3E3A39"/>
			<stop  offset="0.5215" style="stop-color:#DCDDDD"/>
			<stop  offset="1" style="stop-color:#000000"/>
		</linearGradient>
		<rect x="33.731" fill="url(#SVGID_63_)" width="19.333" height="6.888"/>
		<rect x="37.189" y="1.043" width="12.417" height="4.801"/>
	</g>
	<rect x="33.23" fill="#040000" width="0.501" height="6.888"/>
	<rect x="52.563" fill="#040000" width="0.501" height="6.888"/>
</g>
<g>
	<g>
		<linearGradient id="SVGID_64_" gradientUnits="userSpaceOnUse" x1="23.814" y1="6.8877" x2="23.814" y2="0">
			<stop  offset="0" style="stop-color:#3E3A39"/>
			<stop  offset="0.5215" style="stop-color:#DCDDDD"/>
			<stop  offset="1" style="stop-color:#000000"/>
		</linearGradient>
		<rect x="14.147" fill="url(#SVGID_64_)" width="19.333" height="6.888"/>
		<rect x="17.606" y="1.043" width="12.416" height="4.801"/>
	</g>
	<rect x="13.646" fill="#040000" width="0.501" height="6.888"/>
	<rect x="32.979" fill="#040000" width="0.501" height="6.888"/>
</g>
<g>
	<g>
		<linearGradient id="SVGID_65_" gradientUnits="userSpaceOnUse" x1="7.1626" y1="6.8877" x2="7.1626" y2="0">
			<stop  offset="0" style="stop-color:#3E3A39"/>
			<stop  offset="0.5215" style="stop-color:#DCDDDD"/>
			<stop  offset="1" style="stop-color:#000000"/>
		</linearGradient>
		<rect x="0.428" fill="url(#SVGID_65_)" width="13.469" height="6.888"/>
		<rect x="2.837" y="1.043" width="8.651" height="4.801"/>
	</g>
	<rect x="0.079" fill="#040000" width="0.349" height="6.888"/>
	<rect x="13.548" fill="#040000" width="0.349" height="6.888"/>
</g>
<path fill="#040000" d="M209.481,3.444c0,1.326-1.308,2.4-2.922,2.4H79.278c-1.614,0-2.922-1.075-2.922-2.4l0,0
	c0-1.326,1.309-2.4,2.922-2.4h127.281C208.173,1.043,209.481,2.118,209.481,3.444L209.481,3.444z"/>
<polygon fill="#343535" points="195.448,22.826 70.353,22.826 79.358,9.848 205.455,9.848 "/>
<path fill="#0A090A" d="M197.703,12.783c0,1.127-0.914,2.041-2.041,2.041H81.541c-1.127,0-2.041-0.913-2.041-2.041l0,0
	c0-1.127,0.914-2.041,2.041-2.041h114.122C196.79,10.742,197.703,11.655,197.703,12.783L197.703,12.783z"/>
<path fill="#0A090A" d="M170.565,17.811c0,1.941-0.58,3.515-1.295,3.515H96.846c-0.715,0-1.295-1.574-1.295-3.515l0,0
	c0-1.941,0.58-3.515,1.295-3.515h72.424C169.985,14.296,170.565,15.869,170.565,17.811L170.565,17.811z"/>
<rect x="79.358" y="9.847" fill="#B2B2B2" width="125.676" height="0.896"/>
<rect y="90.239" fill="#151515" width="1275.591" height="2.667"/>
<rect x="359.917" y="7.078" fill="#040000" width="336.272" height="57.495"/>
<rect x="359.917" y="7.078" fill="#5A5F62" stroke="#1C1D1D" stroke-width="2" stroke-miterlimit="10" width="336.272" height="56"/>
<polygon fill="#5A5F62" stroke="#040000" stroke-width="4" stroke-miterlimit="10" points="1120.489,63.078 794.976,63.078 
	824.036,7.078 1120.489,7.078 "/>
<rect x="366.149" y="10.955" fill="#5A5F62" stroke="#1C1D1D" stroke-width="2" stroke-miterlimit="10" width="323.932" height="48.247"/>
<rect x="369.421" y="13.555" fill="#4B4C4F" width="316.771" height="41.77"/>
<rect x="369.421" y="13.555" fill="none" width="316.771" height="41.77"/>
<rect x="583.854" y="29.968" fill="#9B9DCD" width="31.211" height="13.129"/>
<rect x="583.854" y="29.968" fill="none" stroke="#212222" stroke-width="1.701" stroke-miterlimit="10" width="31.211" height="13.129"/>
<path fill="#989898" d="M573.988,44.664h-7.201c-0.304,0-0.553-0.239-0.553-0.532v-4.252c0-0.293,0.249-0.532,0.553-0.532h7.201
	c0.304,0,0.554,0.239,0.554,0.532v4.252C574.542,44.425,574.292,44.664,573.988,44.664"/>
<path fill="none" stroke="#B6B6B6" stroke-miterlimit="10" d="M573.988,44.664h-7.201c-0.304,0-0.553-0.239-0.553-0.532v-4.252
	c0-0.293,0.249-0.532,0.553-0.532h7.201c0.304,0,0.554,0.239,0.554,0.532v4.252C574.542,44.425,574.292,44.664,573.988,44.664z"/>
<path fill="#3C3D3F" d="M633.646,42.705c0,0.904-0.763,1.637-1.705,1.637c-0.943,0-1.705-0.733-1.705-1.637s0.762-1.637,1.705-1.637
	C632.883,41.067,633.646,41.801,633.646,42.705"/>
<ellipse fill="none" stroke="#212222" stroke-width="1.701" stroke-miterlimit="10" cx="631.941" cy="42.705" rx="1.705" ry="1.637"/>
<g>
	<path fill="#E4E4E4" d="M468.943,21.762h-9.979l-0.327,1.648h2.353h0.474h4.301c0,0,0.289,4.689-2.6,5.275h-2.865l0.489-4.231
		h-2.373l-0.74,5.623h5.633C469.955,29.052,468.943,21.762,468.943,21.762"/>
	<path fill="#E4E4E4" d="M489.887,21.762h-9.979l-0.328,1.648h2.353h0.475h4.3c0,0,0.289,4.689-2.599,5.275h-2.865l0.488-4.231
		h-2.372l-0.74,5.623h5.635C490.898,29.052,489.887,21.762,489.887,21.762"/>
	<polygon fill="#E4E4E4" points="471.25,21.809 472.495,30.123 474.153,30.123 479.786,21.809 477.06,21.809 474.748,25.618 
		473.561,25.68 472.791,21.809 	"/>
	<rect x="467.517" y="21.809" fill="#E4E4E4" width="3.979" height="1.645"/>
	<path fill="#E4E4E4" d="M472.61,31.462c-8.963,0-16.229,1.025-16.229,2.291c0,1.264,7.267,2.289,16.229,2.289
		c8.964,0,16.23-1.025,16.23-2.289C488.84,32.487,481.574,31.462,472.61,31.462 M473.069,34.132c-1.686,0-3.054-0.287-3.054-0.642
		c0-0.353,1.368-0.641,3.054-0.641c1.687,0,3.053,0.289,3.053,0.641C476.122,33.845,474.756,34.132,473.069,34.132"/>
	<path fill="#E4E4E4" d="M456.432,43.151h32.356v-6.712h-32.356V43.151z M463.931,42.125h-0.31h-0.313V38.5h-0.003l-1.34,3.625
		h-0.312h-0.31l-1.345-3.614h-0.001v3.614h-0.31h-0.314v-4.283h0.463h0.463l1.359,3.644l1.348-3.644h0.463h0.462V42.125z
		 M470.882,40.554c0,0.529-0.164,0.942-0.494,1.239c-0.33,0.299-0.789,0.449-1.376,0.449c-0.611,0-1.074-0.144-1.394-0.43
		c-0.319-0.286-0.479-0.706-0.479-1.258v-2.712h0.32h0.324v2.668c0,0.398,0.104,0.701,0.313,0.908
		c0.209,0.207,0.514,0.31,0.915,0.31c0.403,0,0.706-0.103,0.914-0.31s0.312-0.51,0.312-0.908v-2.668h0.32h0.324V40.554z
		 M476.783,41.869v0.256h-3.054v-4.283h0.322h0.322v3.771h2.411V41.869z M482.406,38.098v0.256h-1.608v3.771h-0.32h-0.323v-3.771
		h-1.608v-0.256v-0.256h3.859V38.098z M485.848,42.125h-0.321h-0.323v-4.283h0.32h0.324V42.125z"/>
	<path fill="#E4E4E4" d="M460.424,44.253h0.196h1.155c0.31,0,0.532,0.063,0.669,0.192c0.137,0.127,0.182,0.317,0.137,0.564
		c-0.045,0.244-0.164,0.435-0.356,0.573c-0.048,0.034-0.099,0.063-0.153,0.091l0.061,0.03c0.159,0.097,0.22,0.261,0.183,0.491
		l-0.077,0.51c-0.012,0.082-0.012,0.142,0,0.178c0.014,0.038,0.046,0.069,0.098,0.094l-0.01,0.062h-0.484
		c-0.006-0.023-0.006-0.082,0.001-0.179c0.008-0.096,0.018-0.202,0.035-0.32l0.031-0.22c0.027-0.173,0.005-0.297-0.063-0.371
		c-0.071-0.074-0.198-0.111-0.388-0.111h-0.933l-0.222,1.203h-0.195h-0.198L460.424,44.253z M460.586,45.513h0.973
		c0.181,0,0.322-0.039,0.419-0.116c0.098-0.076,0.163-0.197,0.194-0.363c0.03-0.16,0.006-0.278-0.069-0.353
		c-0.075-0.075-0.209-0.112-0.401-0.112h-0.944L460.586,45.513z"/>
	<polygon fill="#E4E4E4" points="462.827,47.042 463.339,44.252 465.464,44.252 465.434,44.419 465.403,44.587 463.672,44.587 
		463.516,45.439 465.097,45.439 465.066,45.606 465.035,45.771 463.454,45.771 463.281,46.708 465.035,46.708 465.004,46.874 
		464.974,47.042 	"/>
	<path fill="#E4E4E4" d="M468.125,46.015c-0.113,0.344-0.299,0.614-0.561,0.809c-0.261,0.196-0.562,0.293-0.906,0.293
		c-0.402,0-0.696-0.132-0.885-0.396c-0.188-0.266-0.242-0.623-0.159-1.072c0.082-0.45,0.271-0.807,0.567-1.073
		c0.296-0.266,0.652-0.398,1.069-0.398c0.328,0,0.581,0.081,0.762,0.242c0.181,0.162,0.266,0.386,0.258,0.67h-0.38
		c-0.004-0.185-0.066-0.327-0.189-0.429c-0.123-0.1-0.296-0.15-0.52-0.15c-0.292,0-0.542,0.103-0.752,0.308
		c-0.21,0.206-0.348,0.483-0.411,0.831c-0.067,0.369-0.039,0.65,0.086,0.844c0.124,0.193,0.338,0.29,0.644,0.29
		c0.224,0,0.424-0.066,0.597-0.199c0.173-0.135,0.308-0.324,0.401-0.569H468.125z"/>
	<path fill="#E4E4E4" d="M468.712,46.712c-0.212-0.271-0.276-0.625-0.196-1.063c0.081-0.439,0.278-0.795,0.587-1.066
		c0.312-0.271,0.678-0.407,1.099-0.407c0.425,0,0.741,0.135,0.952,0.407c0.211,0.271,0.275,0.626,0.196,1.066
		c-0.082,0.439-0.277,0.793-0.587,1.063c-0.311,0.27-0.678,0.405-1.102,0.405C469.24,47.117,468.924,46.982,468.712,46.712
		 M470.514,46.471c0.225-0.209,0.367-0.482,0.429-0.822c0.063-0.341,0.021-0.616-0.127-0.824c-0.146-0.209-0.372-0.314-0.675-0.314
		c-0.302,0-0.565,0.104-0.789,0.314c-0.224,0.208-0.369,0.483-0.429,0.824c-0.064,0.339-0.021,0.613,0.126,0.822
		c0.148,0.208,0.372,0.313,0.675,0.313C470.026,46.783,470.291,46.679,470.514,46.471"/>
	<path fill="#E4E4E4" d="M472.119,44.253h0.196h1.155c0.31,0,0.532,0.063,0.669,0.192c0.137,0.127,0.182,0.317,0.137,0.564
		c-0.045,0.244-0.164,0.435-0.357,0.573c-0.047,0.034-0.099,0.063-0.154,0.091l0.062,0.03c0.158,0.097,0.219,0.261,0.183,0.491
		l-0.078,0.51c-0.012,0.082-0.012,0.142,0,0.178c0.015,0.038,0.046,0.069,0.099,0.094l-0.011,0.062h-0.484
		c-0.006-0.023-0.006-0.082,0.001-0.179c0.007-0.096,0.018-0.202,0.035-0.32l0.03-0.22c0.027-0.173,0.005-0.297-0.063-0.371
		c-0.071-0.074-0.198-0.111-0.387-0.111h-0.933L472,47.041h-0.196h-0.197L472.119,44.253z M472.281,45.513h0.973
		c0.181,0,0.322-0.039,0.42-0.116c0.097-0.076,0.162-0.197,0.194-0.363c0.029-0.16,0.006-0.278-0.07-0.353
		c-0.074-0.075-0.209-0.112-0.401-0.112h-0.943L472.281,45.513z"/>
	<path fill="#E4E4E4" d="M475.015,44.252h0.195h0.998c0.369,0,0.64,0.126,0.811,0.378c0.172,0.251,0.22,0.592,0.141,1.018
		c-0.078,0.425-0.252,0.764-0.521,1.015c-0.27,0.251-0.594,0.378-0.974,0.378h-0.966h-0.196L475.015,44.252z M474.955,46.719h0.719
		c0.283,0,0.518-0.093,0.705-0.279c0.187-0.185,0.313-0.449,0.376-0.791c0.062-0.342,0.039-0.607-0.075-0.794
		s-0.306-0.279-0.577-0.279h-0.754L474.955,46.719z"/>
	<path fill="#E4E4E4" d="M477.923,47.042l-0.248-2.79h0.211h0.215l0.111,2.205c0.003,0.038,0.005,0.071,0.005,0.104
		c-0.002,0.034-0.002,0.058-0.005,0.071h-0.001c0.004-0.016,0.013-0.042,0.025-0.076s0.027-0.068,0.041-0.1l1.021-2.205h0.221h0.222
		l0.208,2.193c0.004,0.034,0.007,0.069,0.007,0.104c0,0.036-0.001,0.063-0.005,0.078c0.003-0.014,0.009-0.039,0.023-0.074
		c0.012-0.036,0.026-0.071,0.043-0.108l0.926-2.193h0.211h0.212l-1.274,2.79h-0.212h-0.211l-0.234-2.158
		c-0.003-0.037-0.006-0.073-0.008-0.108c-0.001-0.035,0-0.06,0.003-0.073h-0.001c-0.003,0.016-0.01,0.042-0.023,0.076
		c-0.014,0.036-0.029,0.07-0.046,0.105l-1.012,2.158h-0.212H477.923z"/>
	<path fill="#E4E4E4" d="M481.785,44.253h0.197h1.156c0.308,0,0.531,0.063,0.668,0.192c0.137,0.127,0.183,0.317,0.137,0.564
		c-0.045,0.244-0.164,0.435-0.356,0.573c-0.048,0.034-0.1,0.063-0.153,0.091l0.06,0.03c0.159,0.097,0.221,0.261,0.185,0.491
		l-0.077,0.51c-0.013,0.082-0.013,0.142,0,0.178c0.013,0.038,0.046,0.069,0.098,0.094l-0.011,0.062h-0.484
		c-0.006-0.023-0.006-0.082,0.001-0.179c0.008-0.096,0.02-0.202,0.036-0.32l0.032-0.22c0.026-0.173,0.004-0.297-0.065-0.371
		c-0.069-0.074-0.197-0.111-0.387-0.111h-0.933l-0.22,1.203h-0.196h-0.197L481.785,44.253z M481.948,45.513h0.973
		c0.183,0,0.322-0.039,0.421-0.116c0.098-0.076,0.163-0.197,0.193-0.363c0.03-0.16,0.007-0.278-0.069-0.353
		c-0.075-0.075-0.209-0.112-0.401-0.112h-0.943L481.948,45.513z"/>
</g>
<g>
	<path fill="#E4E4E4" d="M435.022,21.762h-27.809c-0.958,0-1.737,0.747-1.737,1.668v15.987c0,0.921,0.779,1.668,1.737,1.668h27.809
		c0.96,0,1.738-0.747,1.738-1.668V23.43C436.76,22.508,435.982,21.762,435.022,21.762 M418.516,30.936c0,0-0.362,1.147-1.485,1.512
		l1.232,4.015h-1.811l-1.303-4.015h-1.684c0,0-0.182,0.07-0.362,0.296v3.719h-1.738v-3.719c0,0,0.145-1.147,1.213-1.72h3.946
		c0,0,0.778-1.739,0-2.919h-4.979v-1.721h5.214c0,0,1.303,0.313,1.756,1.737V30.936z M430.872,35.072
		c-0.461,1.147-1.357,1.226-1.357,1.226h-2.471c-0.95-0.234-1.194-1.147-1.194-1.147c-0.543,1.043-1.385,1.147-1.385,1.147h-2.498
		c-1.005-0.365-1.277-1.563-1.277-1.563v-8.237h1.195v8.132h3.178v-8.132h1.356v8.132h3.124v-8.132h1.33V35.072z"/>
	<path fill="#E4E4E4" d="M403.13,43.613h0.248h1.268c0.469,0,0.842,0.135,1.118,0.404c0.278,0.27,0.415,0.632,0.415,1.086
		c0,0.455-0.142,0.815-0.424,1.083c-0.285,0.269-0.667,0.403-1.149,0.403h-1.228h-0.248V43.613z M403.629,46.246h0.914
		c0.359,0,0.634-0.1,0.83-0.299c0.195-0.198,0.292-0.479,0.292-0.844c0-0.365-0.093-0.647-0.282-0.846
		c-0.187-0.199-0.453-0.299-0.797-0.299h-0.957V46.246z"/>
	<path fill="none" stroke="#E4E4E4" stroke-width="0.25" stroke-miterlimit="10" d="M403.13,43.613h0.248h1.268
		c0.469,0,0.842,0.135,1.118,0.404c0.278,0.27,0.415,0.632,0.415,1.086c0,0.455-0.142,0.815-0.424,1.083
		c-0.285,0.269-0.667,0.403-1.149,0.403h-1.228h-0.248V43.613z M403.629,46.246h0.914c0.359,0,0.634-0.1,0.83-0.299
		c0.195-0.198,0.292-0.479,0.292-0.844c0-0.365-0.093-0.647-0.282-0.846c-0.187-0.199-0.453-0.299-0.797-0.299h-0.957V46.246z"/>
	<polygon fill="#E4E4E4" points="406.528,43.614 406.805,43.614 407.085,43.614 408.141,46.158 408.144,46.158 409.198,43.614 
		409.475,43.614 409.751,43.614 408.408,46.589 408.14,46.589 407.872,46.589 	"/>
	<polygon fill="none" stroke="#E4E4E4" stroke-width="0.25" stroke-miterlimit="10" points="406.528,43.614 406.805,43.614 
		407.085,43.614 408.141,46.158 408.144,46.158 409.198,43.614 409.475,43.614 409.751,43.614 408.408,46.589 408.14,46.589 
		407.872,46.589 	"/>
	<path fill="#E4E4E4" d="M410.27,43.613h0.248h1.268c0.468,0,0.841,0.135,1.119,0.404c0.276,0.27,0.415,0.632,0.415,1.086
		c0,0.455-0.141,0.815-0.424,1.083c-0.284,0.269-0.668,0.403-1.148,0.403h-1.229h-0.248V43.613z M410.77,46.246h0.913
		c0.358,0,0.635-0.1,0.829-0.299c0.196-0.198,0.293-0.479,0.293-0.844c0-0.365-0.095-0.647-0.282-0.846
		c-0.187-0.199-0.453-0.299-0.798-0.299h-0.956V46.246z"/>
	<path fill="none" stroke="#E4E4E4" stroke-width="0.25" stroke-miterlimit="10" d="M410.27,43.613h0.248h1.268
		c0.468,0,0.841,0.135,1.119,0.404c0.276,0.27,0.415,0.632,0.415,1.086c0,0.455-0.141,0.815-0.424,1.083
		c-0.284,0.269-0.668,0.403-1.148,0.403h-1.229h-0.248V43.613z M410.77,46.246h0.913c0.358,0,0.635-0.1,0.829-0.299
		c0.196-0.198,0.293-0.479,0.293-0.844c0-0.365-0.095-0.647-0.282-0.846c-0.187-0.199-0.453-0.299-0.798-0.299h-0.956V46.246z"/>
	<polygon fill="#E4E4E4" points="414.878,45.698 413.766,45.698 413.766,45.393 414.878,45.393 414.878,44.496 415.257,44.496 
		415.257,45.393 416.369,45.393 416.369,45.698 415.257,45.698 415.257,46.595 414.878,46.595 	"/>
	<polygon fill="none" stroke="#E4E4E4" stroke-width="0.25" stroke-miterlimit="10" points="414.878,45.698 413.766,45.698 
		413.766,45.393 414.878,45.393 414.878,44.496 415.257,44.496 415.257,45.393 416.369,45.393 416.369,45.698 415.257,45.698 
		415.257,46.595 414.878,46.595 	"/>
	<path fill="#E4E4E4" d="M417.02,43.614h0.248h1.468c0.391,0,0.689,0.068,0.893,0.205c0.204,0.137,0.307,0.338,0.307,0.603
		c0,0.26-0.107,0.464-0.32,0.61c-0.052,0.037-0.112,0.069-0.172,0.098l0.083,0.033c0.224,0.103,0.339,0.278,0.348,0.524l0.021,0.543
		c0.003,0.089,0.016,0.153,0.042,0.192c0.025,0.04,0.074,0.072,0.145,0.101v0.065h-0.614c-0.013-0.024-0.026-0.088-0.04-0.191
		c-0.013-0.103-0.023-0.216-0.029-0.342l-0.013-0.234c-0.005-0.185-0.062-0.317-0.168-0.396c-0.105-0.08-0.277-0.119-0.517-0.119
		h-1.185v1.284h-0.249h-0.25V43.614z M417.518,44.958h1.236c0.23,0,0.4-0.04,0.505-0.122c0.108-0.083,0.162-0.211,0.162-0.389
		c0-0.171-0.056-0.297-0.169-0.376c-0.114-0.079-0.292-0.119-0.536-0.119h-1.198V44.958z"/>
	<path fill="none" stroke="#E4E4E4" stroke-width="0.25" stroke-miterlimit="10" d="M417.02,43.614h0.248h1.468
		c0.391,0,0.689,0.068,0.893,0.205c0.204,0.137,0.307,0.338,0.307,0.603c0,0.26-0.107,0.464-0.32,0.61
		c-0.052,0.037-0.112,0.069-0.172,0.098l0.083,0.033c0.224,0.103,0.339,0.278,0.348,0.524l0.021,0.543
		c0.003,0.089,0.016,0.153,0.042,0.192c0.025,0.04,0.074,0.072,0.145,0.101v0.065h-0.614c-0.013-0.024-0.026-0.088-0.04-0.191
		c-0.013-0.103-0.023-0.216-0.029-0.342l-0.013-0.234c-0.005-0.185-0.062-0.317-0.168-0.396c-0.105-0.08-0.277-0.119-0.517-0.119
		h-1.185v1.284h-0.249h-0.25V43.614z M417.518,44.958h1.236c0.23,0,0.4-0.04,0.505-0.122c0.108-0.083,0.162-0.211,0.162-0.389
		c0-0.171-0.056-0.297-0.169-0.376c-0.114-0.079-0.292-0.119-0.536-0.119h-1.198V44.958z"/>
	<path fill="#E4E4E4" d="M421.707,46.648c-0.379,0-0.677-0.097-0.896-0.292c-0.217-0.193-0.326-0.461-0.326-0.805
		c0-0.363,0.115-0.654,0.345-0.869c0.23-0.216,0.54-0.324,0.928-0.324c0.352,0,0.635,0.105,0.851,0.316s0.324,0.488,0.324,0.831
		l-0.006,0.129h-1.961c0.018,0.215,0.079,0.38,0.183,0.494c0.127,0.137,0.328,0.207,0.602,0.207c0.172,0,0.323-0.04,0.452-0.117
		c0.129-0.079,0.208-0.18,0.236-0.3h0.447c-0.067,0.238-0.2,0.418-0.402,0.543C422.282,46.585,422.023,46.648,421.707,46.648
		 M422.461,45.34c-0.013-0.202-0.075-0.357-0.186-0.47c-0.122-0.123-0.3-0.186-0.537-0.186c-0.237,0-0.426,0.071-0.569,0.214
		c-0.113,0.112-0.18,0.259-0.204,0.441H422.461z"/>
	<path fill="none" stroke="#E4E4E4" stroke-width="0.25" stroke-miterlimit="10" d="M421.707,46.648
		c-0.379,0-0.677-0.097-0.896-0.292c-0.217-0.193-0.326-0.461-0.326-0.805c0-0.363,0.115-0.654,0.345-0.869
		c0.23-0.216,0.54-0.324,0.928-0.324c0.352,0,0.635,0.105,0.851,0.316s0.324,0.488,0.324,0.831l-0.006,0.129h-1.961
		c0.018,0.215,0.079,0.38,0.183,0.494c0.127,0.137,0.328,0.207,0.602,0.207c0.172,0,0.323-0.04,0.452-0.117
		c0.129-0.079,0.208-0.18,0.236-0.3h0.447c-0.067,0.238-0.2,0.418-0.402,0.543C422.282,46.585,422.023,46.648,421.707,46.648z
		 M422.461,45.34c-0.013-0.202-0.075-0.357-0.186-0.47c-0.122-0.123-0.3-0.186-0.537-0.186c-0.237,0-0.426,0.071-0.569,0.214
		c-0.113,0.112-0.18,0.259-0.204,0.441H422.461z"/>
	<path fill="#E4E4E4" d="M424.187,46.589l-0.966-2.975h0.268h0.271l0.659,2.353c0.01,0.038,0.022,0.076,0.028,0.111
		c0.008,0.036,0.012,0.061,0.012,0.076h-0.001c0-0.019,0.003-0.045,0.012-0.081c0.009-0.036,0.019-0.072,0.031-0.106l0.78-2.353
		h0.281h0.281l0.775,2.34c0.014,0.036,0.025,0.074,0.034,0.111c0.008,0.038,0.011,0.065,0.011,0.083
		c0-0.015,0.004-0.041,0.012-0.079c0.007-0.038,0.017-0.076,0.028-0.115l0.666-2.34h0.268h0.269l-0.966,2.975h-0.268h-0.269
		l-0.801-2.302c-0.013-0.038-0.024-0.077-0.035-0.114c-0.01-0.039-0.014-0.065-0.014-0.079h-0.001c0,0.018-0.004,0.044-0.012,0.081
		c-0.009,0.037-0.021,0.075-0.033,0.112l-0.782,2.302h-0.269H424.187z"/>
	<path fill="none" stroke="#E4E4E4" stroke-width="0.25" stroke-miterlimit="10" d="M424.187,46.589l-0.966-2.975h0.268h0.271
		l0.659,2.353c0.01,0.038,0.022,0.076,0.028,0.111c0.008,0.036,0.012,0.061,0.012,0.076h-0.001c0-0.019,0.003-0.045,0.012-0.081
		c0.009-0.036,0.019-0.072,0.031-0.106l0.78-2.353h0.281h0.281l0.775,2.34c0.014,0.036,0.025,0.074,0.034,0.111
		c0.008,0.038,0.011,0.065,0.011,0.083c0-0.015,0.004-0.041,0.012-0.079c0.007-0.038,0.017-0.076,0.028-0.115l0.666-2.34h0.268
		h0.269l-0.966,2.975h-0.268h-0.269l-0.801-2.302c-0.013-0.038-0.024-0.077-0.035-0.114c-0.01-0.039-0.014-0.065-0.014-0.079h-0.001
		c0,0.018-0.004,0.044-0.012,0.081c-0.009,0.037-0.021,0.075-0.033,0.112l-0.782,2.302h-0.269H424.187z"/>
	<path fill="#E4E4E4" d="M428.386,44.424h0.213h0.216v0.37c0.039-0.058,0.079-0.11,0.123-0.158c0.17-0.184,0.381-0.278,0.63-0.278
		c0.042,0,0.084,0.007,0.127,0.02v0.372l-0.092-0.002c-0.245,0-0.433,0.06-0.567,0.178c-0.133,0.118-0.199,0.287-0.199,0.505v1.16
		h-0.226h-0.225V44.424z"/>
	<path fill="none" stroke="#E4E4E4" stroke-width="0.25" stroke-miterlimit="10" d="M428.386,44.424h0.213h0.216v0.37
		c0.039-0.058,0.079-0.11,0.123-0.158c0.17-0.184,0.381-0.278,0.63-0.278c0.042,0,0.084,0.007,0.127,0.02v0.372l-0.092-0.002
		c-0.245,0-0.433,0.06-0.567,0.178c-0.133,0.118-0.199,0.287-0.199,0.505v1.16h-0.226h-0.225V44.424z"/>
	<path fill="#E4E4E4" d="M430.045,43.614h0.462v0.413h-0.462V43.614z M430.05,44.424h0.225h0.227v2.166h-0.227h-0.225V44.424z"/>
	<path fill="none" stroke="#E4E4E4" stroke-width="0.25" stroke-miterlimit="10" d="M430.045,43.614h0.462v0.413h-0.462V43.614z
		 M430.05,44.424h0.225h0.227v2.166h-0.227h-0.225V44.424z"/>
	<path fill="#E4E4E4" d="M432.162,46.588c-0.153,0.019-0.266,0.028-0.335,0.028c-0.198,0-0.337-0.036-0.417-0.106
		c-0.082-0.069-0.122-0.19-0.122-0.362v-1.426h-0.372v-0.298h0.372v-0.608h0.452v0.608h0.422v0.298h-0.422v1.426
		c0,0.048,0.023,0.087,0.07,0.116c0.048,0.029,0.113,0.042,0.193,0.042h0.16V46.588z"/>
	<path fill="none" stroke="#E4E4E4" stroke-width="0.25" stroke-miterlimit="10" d="M432.162,46.588
		c-0.153,0.019-0.266,0.028-0.335,0.028c-0.198,0-0.337-0.036-0.417-0.106c-0.082-0.069-0.122-0.19-0.122-0.362v-1.426h-0.372
		v-0.298h0.372v-0.608h0.452v0.608h0.422v0.298h-0.422v1.426c0,0.048,0.023,0.087,0.07,0.116c0.048,0.029,0.113,0.042,0.193,0.042
		h0.16V46.588z"/>
	<path fill="#E4E4E4" d="M433.312,46.648c-0.262,0-0.47-0.057-0.625-0.169c-0.154-0.113-0.23-0.266-0.23-0.46
		s0.072-0.349,0.217-0.464c0.144-0.114,0.356-0.186,0.633-0.214l0.615-0.062c0.05-0.004,0.098-0.011,0.143-0.021
		c0.058-0.012,0.104-0.036,0.135-0.072c0.032-0.037,0.049-0.083,0.049-0.138v-0.018c0-0.117-0.055-0.207-0.164-0.272
		c-0.108-0.066-0.259-0.099-0.454-0.099c-0.186,0-0.332,0.035-0.435,0.104c-0.105,0.068-0.168,0.173-0.19,0.311h-0.416
		c0.021-0.238,0.125-0.417,0.31-0.537c0.186-0.118,0.452-0.18,0.798-0.18c0.327,0,0.576,0.058,0.746,0.172
		c0.171,0.114,0.255,0.28,0.255,0.499v1.19c0,0.036,0.014,0.066,0.042,0.088c0.028,0.022,0.065,0.034,0.112,0.034
		c0.014,0,0.033-0.001,0.059-0.004c0.026-0.002,0.053-0.007,0.084-0.012v0.264c-0.043,0.014-0.089,0.023-0.138,0.032
		c-0.048,0.007-0.09,0.013-0.123,0.013c-0.171,0-0.294-0.038-0.371-0.114c-0.051-0.05-0.086-0.121-0.108-0.213
		c-0.033,0.034-0.072,0.066-0.116,0.098C433.914,46.566,433.638,46.648,433.312,46.648 M434.249,45.73v-0.234
		c-0.085,0.033-0.177,0.055-0.279,0.066l-0.415,0.049c-0.218,0.024-0.377,0.066-0.478,0.123c-0.1,0.057-0.149,0.135-0.149,0.234
		c0,0.121,0.04,0.214,0.122,0.28c0.083,0.064,0.199,0.098,0.35,0.098c0.237,0,0.437-0.052,0.601-0.156
		c0.113-0.073,0.187-0.155,0.223-0.247c0.007-0.018,0.013-0.045,0.015-0.083C434.245,45.821,434.249,45.778,434.249,45.73"/>
	<path fill="none" stroke="#E4E4E4" stroke-width="0.25" stroke-miterlimit="10" d="M433.312,46.648
		c-0.262,0-0.47-0.057-0.625-0.169c-0.154-0.113-0.23-0.266-0.23-0.46s0.072-0.349,0.217-0.464c0.144-0.114,0.356-0.186,0.633-0.214
		l0.615-0.062c0.05-0.004,0.098-0.011,0.143-0.021c0.058-0.012,0.104-0.036,0.135-0.072c0.032-0.037,0.049-0.083,0.049-0.138v-0.018
		c0-0.117-0.055-0.207-0.164-0.272c-0.108-0.066-0.259-0.099-0.454-0.099c-0.186,0-0.332,0.035-0.435,0.104
		c-0.105,0.068-0.168,0.173-0.19,0.311h-0.416c0.021-0.238,0.125-0.417,0.31-0.537c0.186-0.118,0.452-0.18,0.798-0.18
		c0.327,0,0.576,0.058,0.746,0.172c0.171,0.114,0.255,0.28,0.255,0.499v1.19c0,0.036,0.014,0.066,0.042,0.088
		c0.028,0.022,0.065,0.034,0.112,0.034c0.014,0,0.033-0.001,0.059-0.004c0.026-0.002,0.053-0.007,0.084-0.012v0.264
		c-0.043,0.014-0.089,0.023-0.138,0.032c-0.048,0.007-0.09,0.013-0.123,0.013c-0.171,0-0.294-0.038-0.371-0.114
		c-0.051-0.05-0.086-0.121-0.108-0.213c-0.033,0.034-0.072,0.066-0.116,0.098C433.914,46.566,433.638,46.648,433.312,46.648z
		 M434.249,45.73v-0.234c-0.085,0.033-0.177,0.055-0.279,0.066l-0.415,0.049c-0.218,0.024-0.377,0.066-0.478,0.123
		c-0.1,0.057-0.149,0.135-0.149,0.234c0,0.121,0.04,0.214,0.122,0.28c0.083,0.064,0.199,0.098,0.35,0.098
		c0.237,0,0.437-0.052,0.601-0.156c0.113-0.073,0.187-0.155,0.223-0.247c0.007-0.018,0.013-0.045,0.015-0.083
		C434.245,45.821,434.249,45.778,434.249,45.73z"/>
	<path fill="#E4E4E4" d="M435.428,43.613h0.226h0.225v1.092c0.198-0.233,0.454-0.35,0.765-0.348c0.352,0,0.631,0.099,0.835,0.293
		c0.206,0.196,0.307,0.459,0.307,0.792c0,0.376-0.103,0.671-0.309,0.885c-0.208,0.214-0.494,0.321-0.86,0.321
		c-0.303,0-0.543-0.093-0.722-0.281l-0.043-0.044v0.267h-0.424V43.613z M436.595,46.332c0.235,0,0.415-0.071,0.537-0.215
		c0.122-0.144,0.183-0.354,0.183-0.629c0-0.271-0.059-0.472-0.175-0.602c-0.117-0.13-0.298-0.195-0.542-0.195
		c-0.25,0-0.432,0.074-0.546,0.221c-0.116,0.146-0.173,0.379-0.173,0.698c0,0.23,0.062,0.409,0.186,0.534
		S436.365,46.332,436.595,46.332"/>
	<path fill="none" stroke="#E4E4E4" stroke-width="0.25" stroke-miterlimit="10" d="M435.428,43.613h0.226h0.225v1.092
		c0.198-0.233,0.454-0.35,0.765-0.348c0.352,0,0.631,0.099,0.835,0.293c0.206,0.196,0.307,0.459,0.307,0.792
		c0,0.376-0.103,0.671-0.309,0.885c-0.208,0.214-0.494,0.321-0.86,0.321c-0.303,0-0.543-0.093-0.722-0.281l-0.043-0.044v0.267
		h-0.424V43.613z M436.595,46.332c0.235,0,0.415-0.071,0.537-0.215c0.122-0.144,0.183-0.354,0.183-0.629
		c0-0.271-0.059-0.472-0.175-0.602c-0.117-0.13-0.298-0.195-0.542-0.195c-0.25,0-0.432,0.074-0.546,0.221
		c-0.116,0.146-0.173,0.379-0.173,0.698c0,0.23,0.062,0.409,0.186,0.534S436.365,46.332,436.595,46.332z"/>
	<polygon fill="#E4E4E4" points="438.332,43.614 438.558,43.614 438.784,43.614 438.784,46.589 438.558,46.589 438.332,46.589 	"/>
	<polygon fill="none" stroke="#E4E4E4" stroke-width="0.25" stroke-miterlimit="10" points="438.332,43.614 438.558,43.614 
		438.784,43.614 438.784,46.589 438.558,46.589 438.332,46.589 	"/>
	<path fill="#E4E4E4" d="M440.557,46.648c-0.38,0-0.677-0.097-0.896-0.292c-0.217-0.193-0.327-0.461-0.327-0.805
		c0-0.363,0.116-0.654,0.346-0.869c0.23-0.216,0.539-0.324,0.927-0.324c0.352,0,0.635,0.105,0.851,0.316
		c0.215,0.211,0.323,0.488,0.323,0.831l-0.005,0.129h-1.961c0.018,0.215,0.079,0.38,0.183,0.494
		c0.127,0.137,0.328,0.207,0.602,0.207c0.173,0,0.324-0.04,0.452-0.117c0.129-0.079,0.207-0.18,0.236-0.3h0.446
		c-0.067,0.238-0.201,0.418-0.402,0.543C441.133,46.585,440.874,46.648,440.557,46.648 M441.312,45.34
		c-0.013-0.202-0.075-0.357-0.186-0.47c-0.122-0.123-0.3-0.186-0.537-0.186c-0.238,0-0.427,0.071-0.57,0.214
		c-0.112,0.112-0.179,0.259-0.203,0.441H441.312z"/>
	<path fill="none" stroke="#E4E4E4" stroke-width="0.25" stroke-miterlimit="10" d="M440.557,46.648
		c-0.38,0-0.677-0.097-0.896-0.292c-0.217-0.193-0.327-0.461-0.327-0.805c0-0.363,0.116-0.654,0.346-0.869
		c0.23-0.216,0.539-0.324,0.927-0.324c0.352,0,0.635,0.105,0.851,0.316c0.215,0.211,0.323,0.488,0.323,0.831l-0.005,0.129h-1.961
		c0.018,0.215,0.079,0.38,0.183,0.494c0.127,0.137,0.328,0.207,0.602,0.207c0.173,0,0.324-0.04,0.452-0.117
		c0.129-0.079,0.207-0.18,0.236-0.3h0.446c-0.067,0.238-0.201,0.418-0.402,0.543C441.133,46.585,440.874,46.648,440.557,46.648z
		 M441.312,45.34c-0.013-0.202-0.075-0.357-0.186-0.47c-0.122-0.123-0.3-0.186-0.537-0.186c-0.238,0-0.427,0.071-0.57,0.214
		c-0.112,0.112-0.179,0.259-0.203,0.441H441.312z"/>
</g>
<g>
	<path fill="#262626" d="M956.888,34.136c0,3.555-2.885,6.438-6.441,6.438s-6.439-2.883-6.439-6.438
		c0-3.557,2.883-6.439,6.439-6.439S956.888,30.579,956.888,34.136"/>
	<circle fill="none" stroke="#131313" stroke-width="0.75" stroke-miterlimit="10" cx="950.447" cy="34.136" r="6.44"/>
	<polygon fill="#040000" points="949.651,37.786 949.651,34.931 946.794,34.931 946.794,33.339 949.651,33.339 949.651,30.483 
		951.243,30.483 951.243,33.339 954.099,33.339 954.099,34.931 951.243,34.931 951.243,37.786 	"/>
	<path fill="#231815" d="M951.108,30.617v2.588v0.269h0.268h2.59v1.322h-2.59h-0.268v0.269v2.588h-1.322v-2.588v-0.269h-0.27h-2.588
		v-1.322h2.588h0.27v-0.269v-2.588H951.108z M951.376,30.349h-1.859v2.856h-2.857v1.859h2.857v2.856h1.859v-2.856h2.857v-1.859
		h-2.857V30.349z"/>
</g>
<g>
	<path fill="#262626" d="M1099.247,34.136c0,3.555-2.885,6.438-6.441,6.438s-6.439-2.883-6.439-6.438
		c0-3.557,2.883-6.439,6.439-6.439S1099.247,30.579,1099.247,34.136"/>
	<circle fill="none" stroke="#131313" stroke-width="0.75" stroke-miterlimit="10" cx="1092.807" cy="34.136" r="6.44"/>
	<polygon fill="#040000" points="1092.011,37.786 1092.011,34.931 1089.153,34.931 1089.153,33.339 1092.011,33.339 
		1092.011,30.483 1093.603,30.483 1093.603,33.339 1096.46,33.339 1096.46,34.931 1093.603,34.931 1093.603,37.786 	"/>
	<path fill="#231815" d="M1093.468,30.617v2.588v0.269h0.268h2.59v1.322h-2.59h-0.268v0.269v2.588h-1.322v-2.588v-0.269h-0.27
		h-2.588v-1.322h2.588h0.27v-0.269v-2.588H1093.468z M1093.735,30.349h-1.859v2.856h-2.857v1.859h2.857v2.856h1.859v-2.856h2.857
		v-1.859h-2.857V30.349z"/>
</g>
<rect x="1120.489" y="7.078" fill="#5A5F62" stroke="#040000" stroke-width="4" stroke-miterlimit="10" width="147.006" height="34.928"/>
</svg>
