<?xml version="1.0" encoding="utf-8"?>
<!-- Generator: Adobe Illustrator 16.0.0, SVG Export Plug-In . SVG Version: 6.00 Build 0)  -->
<!DOCTYPE svg PUBLIC "-//W3C//DTD SVG 1.1//EN" "http://www.w3.org/Graphics/SVG/1.1/DTD/svg11.dtd">
<svg version="1.1" id="图层_1" xmlns="http://www.w3.org/2000/svg" xmlns:xlink="http://www.w3.org/1999/xlink" x="0px" y="0px"
	 width="16.781px" height="8.219px" viewBox="0 0 16.781 8.219" enable-background="new 0 0 16.781 8.219" xml:space="preserve">
<g>
	<path fill="#464646" d="M13.487,7.838H3.321c-0.335,0-0.654-0.141-0.88-0.388L0.712,5.559C0.512,5.338,0.4,5.052,0.4,4.753V1.61
		c0-0.659,0.533-1.193,1.192-1.193h13.622c0.659,0,1.193,0.534,1.193,1.193v3.144c0,0.299-0.111,0.585-0.313,0.806l-1.728,1.892
		C14.142,7.698,13.822,7.838,13.487,7.838"/>
	<path fill="none" stroke="#B9B9B9" stroke-width="0.75" stroke-miterlimit="10" d="M13.487,7.838H3.321
		c-0.335,0-0.654-0.141-0.88-0.388L0.712,5.559C0.512,5.338,0.4,5.052,0.4,4.753V1.61c0-0.659,0.533-1.193,1.192-1.193h13.622
		c0.659,0,1.193,0.534,1.193,1.193v3.144c0,0.299-0.111,0.585-0.313,0.806l-1.728,1.892C14.142,7.698,13.822,7.838,13.487,7.838z"/>
	<rect x="2.597" y="3.606" fill="#AFAFAF" width="11.613" height="1.043"/>
</g>
</svg>
