<?xml version="1.0" encoding="utf-8"?>
<!-- Generator: Adobe Illustrator 16.0.0, SVG Export Plug-In . SVG Version: 6.00 Build 0)  -->
<!DOCTYPE svg PUBLIC "-//W3C//DTD SVG 1.1//EN" "http://www.w3.org/Graphics/SVG/1.1/DTD/svg11.dtd">
<svg version="1.1" id="图层_1" xmlns="http://www.w3.org/2000/svg" xmlns:xlink="http://www.w3.org/1999/xlink" x="0px" y="0px"
	 width="77.296px" height="23.333px" viewBox="0 0 77.296 23.333" enable-background="new 0 0 77.296 23.333" xml:space="preserve">
<g>
	<path fill="#224183" d="M53.578,22.829H23.72c-4.14,0-7.702-2.754-8.504-6.576l-2-9.508c-0.611-3.257,2.195-6.223,5.885-6.223
		h39.096c3.689,0,6.496,2.966,5.885,6.223l-2,9.508C61.277,20.075,57.716,22.829,53.578,22.829"/>
	<path fill="none" stroke="#040000" stroke-miterlimit="10" d="M53.578,22.829H23.72c-4.14,0-7.702-2.754-8.504-6.576l-2-9.508
		c-0.611-3.257,2.195-6.223,5.885-6.223h39.096c3.689,0,6.496,2.966,5.885,6.223l-2,9.508
		C61.277,20.075,57.716,22.829,53.578,22.829z"/>
	<path fill="#040000" d="M24.734,5.581c0,1.271-1.092,2.3-2.436,2.3c-1.347,0-2.438-1.03-2.438-2.3c0-1.27,1.091-2.3,2.438-2.3
		C23.642,3.281,24.734,4.311,24.734,5.581"/>
	<path fill="#040000" d="M32.111,5.581c0,1.271-1.092,2.3-2.436,2.3c-1.348,0-2.436-1.03-2.436-2.3c0-1.27,1.088-2.3,2.436-2.3
		C31.019,3.281,32.111,4.311,32.111,5.581"/>
	<path fill="#040000" d="M39.488,5.581c0,1.271-1.092,2.3-2.436,2.3c-1.346,0-2.436-1.03-2.436-2.3c0-1.27,1.09-2.3,2.436-2.3
		C38.396,3.281,39.488,4.311,39.488,5.581"/>
	<path fill="#040000" d="M46.865,5.581c0,1.271-1.092,2.3-2.436,2.3c-1.346,0-2.436-1.03-2.436-2.3c0-1.27,1.09-2.3,2.436-2.3
		C45.773,3.281,46.865,4.311,46.865,5.581"/>
	<path fill="#040000" d="M54.244,5.581c0,1.271-1.094,2.3-2.436,2.3c-1.346,0-2.438-1.03-2.438-2.3c0-1.27,1.093-2.3,2.438-2.3
		C53.15,3.281,54.244,4.311,54.244,5.581"/>
	<path fill="#040000" d="M28.679,11.675c0,1.27-1.092,2.3-2.436,2.3c-1.346,0-2.438-1.031-2.438-2.3s1.092-2.3,2.438-2.3
		C27.587,9.375,28.679,10.406,28.679,11.675"/>
	<path fill="#040000" d="M36.056,11.675c0,1.27-1.092,2.3-2.437,2.3s-2.435-1.031-2.435-2.3s1.09-2.3,2.435-2.3
		S36.056,10.406,36.056,11.675"/>
	<path fill="#040000" d="M43.433,11.675c0,1.27-1.09,2.3-2.436,2.3c-1.348,0-2.436-1.031-2.436-2.3s1.088-2.3,2.436-2.3
		C42.343,9.375,43.433,10.406,43.433,11.675"/>
	<path fill="#040000" d="M50.81,11.675c0,1.27-1.09,2.3-2.436,2.3s-2.436-1.031-2.436-2.3s1.09-2.3,2.436-2.3
		S50.81,10.406,50.81,11.675"/>
	<path fill="#040000" d="M58.189,11.675c0,1.27-1.09,2.3-2.437,2.3c-1.344,0-2.435-1.031-2.435-2.3s1.091-2.3,2.435-2.3
		C57.099,9.375,58.189,10.406,58.189,11.675"/>
	<path fill="#040000" d="M23.98,17.769c0,1.27-1.09,2.3-2.436,2.3s-2.436-1.031-2.436-2.3c0-1.27,1.09-2.3,2.436-2.3
		S23.98,16.499,23.98,17.769"/>
	<path fill="#040000" d="M31.359,17.769c0,1.27-1.094,2.3-2.436,2.3c-1.346,0-2.438-1.031-2.438-2.3c0-1.27,1.092-2.3,2.438-2.3
		C30.265,15.469,31.359,16.499,31.359,17.769"/>
	<path fill="#040000" d="M38.735,17.769c0,1.27-1.091,2.3-2.435,2.3c-1.347,0-2.438-1.031-2.438-2.3c0-1.27,1.091-2.3,2.438-2.3
		C37.644,15.469,38.735,16.499,38.735,17.769"/>
	<path fill="#040000" d="M46.113,17.769c0,1.27-1.09,2.3-2.436,2.3s-2.436-1.031-2.436-2.3c0-1.27,1.09-2.3,2.436-2.3
		S46.113,16.499,46.113,17.769"/>
	<path fill="#040000" d="M53.491,17.769c0,1.27-1.091,2.3-2.437,2.3s-2.436-1.031-2.436-2.3c0-1.27,1.09-2.3,2.436-2.3
		S53.491,16.499,53.491,17.769"/>
	<path fill="#BDBCBD" d="M3.876,15.97c-0.524,0-1.013-0.266-1.275-0.693l-1.988-3.244c-0.264-0.429-0.264-0.958,0-1.387l1.988-3.244
		c0.265-0.427,0.751-0.693,1.275-0.693h3.98c0.523,0,1.013,0.266,1.275,0.693l1.989,3.245c0.263,0.428,0.263,0.957-0.002,1.387
		l-1.987,3.243c-0.261,0.427-0.751,0.693-1.275,0.693H3.876z"/>
	<path fill="#8F8E8E" d="M7.857,7.101c0.377,0,0.727,0.189,0.914,0.497l1.99,3.245c0.189,0.307,0.189,0.686,0,0.994l-1.99,3.244
		C8.583,15.39,8.234,15.58,7.857,15.58h-3.98c-0.377,0-0.727-0.189-0.914-0.499l-1.991-3.244c-0.188-0.308-0.188-0.687,0-0.994
		l1.991-3.245C3.15,7.29,3.5,7.101,3.876,7.101H7.857 M7.857,6.319h-3.98c-0.673,0-1.297,0.34-1.634,0.888l-1.99,3.245
		c-0.337,0.548-0.337,1.227,0,1.775l1.99,3.245c0.337,0.549,0.961,0.889,1.634,0.889h3.98c0.672,0,1.297-0.34,1.634-0.889
		l1.991-3.245c0.334-0.548,0.334-1.227,0-1.775L9.491,7.208C9.154,6.66,8.529,6.319,7.857,6.319"/>
	<path fill="#CCCDCD" d="M9.865,11.37c0,2.084-1.789,3.774-3.996,3.774c-2.21,0-4-1.69-4-3.774c0-2.085,1.79-3.775,4-3.775
		C8.076,7.595,9.865,9.285,9.865,11.37"/>
	<ellipse fill="none" stroke="#8F8E8E" stroke-width="0.25" stroke-miterlimit="10" cx="5.867" cy="11.37" rx="3.998" ry="3.774"/>
	<path fill="#414244" d="M8.337,11.37c0,1.288-1.105,2.332-2.471,2.332c-1.364,0-2.469-1.043-2.469-2.332
		c0-1.289,1.104-2.333,2.469-2.333C7.232,9.038,8.337,10.082,8.337,11.37"/>
	<ellipse fill="none" stroke="#040000" stroke-width="0.25" stroke-miterlimit="10" cx="5.868" cy="11.37" rx="2.47" ry="2.332"/>
	<path fill="#8F8E8E" d="M6.634,11.37c0,0.4-0.342,0.725-0.768,0.725c-0.424,0-0.768-0.325-0.768-0.725
		c0-0.401,0.344-0.726,0.768-0.726C6.292,10.645,6.634,10.969,6.634,11.37"/>
	<path fill="#BDBCBD" d="M69.441,15.97c-0.525,0-1.014-0.266-1.275-0.693l-1.99-3.244c-0.262-0.429-0.262-0.958,0-1.386l1.99-3.245
		c0.264-0.427,0.75-0.693,1.275-0.693h3.98c0.521,0,1.012,0.266,1.273,0.693l1.99,3.245c0.26,0.428,0.26,0.957,0,1.386l-1.99,3.244
		c-0.262,0.427-0.75,0.693-1.273,0.693H69.441z"/>
	<path fill="#8F8E8E" d="M73.419,7.101c0.379,0,0.729,0.189,0.916,0.497l1.991,3.245c0.188,0.307,0.188,0.686,0,0.994l-1.991,3.244
		c-0.188,0.309-0.537,0.499-0.916,0.499h-3.979c-0.377,0-0.727-0.189-0.916-0.499l-1.989-3.244c-0.188-0.308-0.188-0.687,0-0.994
		l1.989-3.245c0.189-0.308,0.539-0.497,0.916-0.497H73.419 M73.419,6.319h-3.979c-0.672,0-1.299,0.34-1.637,0.888l-1.988,3.245
		c-0.336,0.548-0.336,1.227,0,1.775l1.988,3.245c0.338,0.549,0.965,0.889,1.637,0.889h3.979c0.674,0,1.297-0.34,1.635-0.889
		l1.99-3.245c0.336-0.548,0.336-1.227,0-1.775l-1.99-3.245C74.716,6.66,74.093,6.319,73.419,6.319"/>
	<path fill="#CCCDCD" d="M75.427,11.37c0,2.084-1.787,3.774-3.996,3.774s-4-1.69-4-3.774c0-2.085,1.791-3.775,4-3.775
		S75.427,9.285,75.427,11.37"/>
	<ellipse fill="none" stroke="#8F8E8E" stroke-width="0.25" stroke-miterlimit="10" cx="71.429" cy="11.37" rx="3.998" ry="3.774"/>
	<path fill="#414244" d="M73.9,11.37c0,1.288-1.105,2.332-2.469,2.332c-1.365,0-2.471-1.043-2.471-2.332
		c0-1.289,1.105-2.333,2.471-2.333C72.794,9.038,73.9,10.082,73.9,11.37"/>
	<ellipse fill="none" stroke="#040000" stroke-width="0.25" stroke-miterlimit="10" cx="71.43" cy="11.37" rx="2.47" ry="2.332"/>
	<path fill="#8F8E8E" d="M72.199,11.37c0,0.4-0.344,0.725-0.768,0.725c-0.426,0-0.768-0.325-0.768-0.725
		c0-0.401,0.342-0.726,0.768-0.726C71.855,10.645,72.199,10.969,72.199,11.37"/>
</g>
</svg>
