<?xml version="1.0" encoding="utf-8"?>
<!-- Generator: Adobe Illustrator 16.0.0, SVG Export Plug-In . SVG Version: 6.00 Build 0)  -->
<!DOCTYPE svg PUBLIC "-//W3C//DTD SVG 1.1//EN" "http://www.w3.org/Graphics/SVG/1.1/DTD/svg11.dtd">
<svg version="1.1" id="图层_1" xmlns="http://www.w3.org/2000/svg" xmlns:xlink="http://www.w3.org/1999/xlink" x="0px" y="0px"
	 width="1275.59px" height="252.28px" viewBox="0 0 1275.59 252.28" enable-background="new 0 0 1275.59 252.28"
	 xml:space="preserve">
<rect fill="#3C3D3D" width="1275.592" height="252.283"/>
<g>
	<g>
		<path fill="#070001" d="M557.941,206.723c3.865,0,7,3.135,7,7c0,3.867-3.135,7-7,7c-3.866,0-7-3.133-7-7
			C550.941,209.857,554.075,206.723,557.941,206.723"/>
	</g>
	<g>
		<defs>
			<path id="SVGID_1_" d="M552.317,213.723c0,3.107,2.519,5.625,5.625,5.625s5.625-2.518,5.625-5.625
				c0-3.105-2.519-5.625-5.625-5.625S552.317,210.617,552.317,213.723"/>
		</defs>
		<clipPath id="SVGID_2_">
			<use xlink:href="#SVGID_1_"  overflow="visible"/>
		</clipPath>
		
			<radialGradient id="SVGID_3_" cx="-193.5625" cy="444.0146" r="1" gradientTransform="matrix(8.2859 0 0 8.2859 2160.4023 -3467.3438)" gradientUnits="userSpaceOnUse">
			<stop  offset="0" style="stop-color:#636262"/>
			<stop  offset="1" style="stop-color:#040000"/>
		</radialGradient>
		<rect x="552.317" y="208.098" clip-path="url(#SVGID_2_)" fill="url(#SVGID_3_)" width="11.25" height="11.25"/>
	</g>
	<g opacity="0.5" enable-background="new    ">
		<g>
			<defs>
				<rect id="SVGID_4_" x="555.317" y="210.473" width="1.874" height="1.875"/>
			</defs>
			<clipPath id="SVGID_5_">
				<use xlink:href="#SVGID_4_"  overflow="visible"/>
			</clipPath>
			<rect x="555.317" y="210.473" clip-path="url(#SVGID_5_)" fill="#FFFFFF" width="1.874" height="1.875"/>
		</g>
	</g>
	<g opacity="0.5" enable-background="new    ">
		<g>
			<defs>
				<rect id="SVGID_6_" x="555.317" y="210.473" width="0.937" height="1.875"/>
			</defs>
			<clipPath id="SVGID_7_">
				<use xlink:href="#SVGID_6_"  overflow="visible"/>
			</clipPath>
			<rect x="555.317" y="210.473" clip-path="url(#SVGID_7_)" fill="#FFFFFF" width="0.937" height="1.875"/>
		</g>
	</g>
</g>
<g>
	<g>
		<path fill="#070001" d="M609.541,206.725c3.867,0,7,3.133,7,7c0,3.865-3.133,7-7,7c-3.865,0-7-3.135-7-7
			C602.541,209.857,605.675,206.725,609.541,206.725"/>
	</g>
	<g>
		<defs>
			<path id="SVGID_8_" d="M603.917,213.725c0,3.105,2.52,5.625,5.625,5.625c3.107,0,5.625-2.52,5.625-5.625
				c0-3.107-2.518-5.625-5.625-5.625C606.437,208.1,603.917,210.617,603.917,213.725"/>
		</defs>
		<clipPath id="SVGID_9_">
			<use xlink:href="#SVGID_8_"  overflow="visible"/>
		</clipPath>
		
			<radialGradient id="SVGID_10_" cx="-187.335" cy="444.0146" r="1" gradientTransform="matrix(8.2859 0 0 8.2859 2160.4023 -3467.3438)" gradientUnits="userSpaceOnUse">
			<stop  offset="0" style="stop-color:#636262"/>
			<stop  offset="1" style="stop-color:#040000"/>
		</radialGradient>
		<rect x="603.917" y="208.1" clip-path="url(#SVGID_9_)" fill="url(#SVGID_10_)" width="11.25" height="11.25"/>
	</g>
	<g opacity="0.5" enable-background="new    ">
		<g>
			<defs>
				<rect id="SVGID_11_" x="606.917" y="210.475" width="1.873" height="1.875"/>
			</defs>
			<clipPath id="SVGID_12_">
				<use xlink:href="#SVGID_11_"  overflow="visible"/>
			</clipPath>
			<rect x="606.917" y="210.475" clip-path="url(#SVGID_12_)" fill="#FFFFFF" width="1.873" height="1.875"/>
		</g>
	</g>
	<g opacity="0.5" enable-background="new    ">
		<g>
			<defs>
				<rect id="SVGID_13_" x="606.917" y="210.475" width="0.938" height="1.875"/>
			</defs>
			<clipPath id="SVGID_14_">
				<use xlink:href="#SVGID_13_"  overflow="visible"/>
			</clipPath>
			<rect x="606.917" y="210.475" clip-path="url(#SVGID_14_)" fill="#FFFFFF" width="0.938" height="1.875"/>
		</g>
	</g>
</g>
<g>
	<g>
		<path fill="#070001" d="M661.143,206.725c3.865,0,7,3.133,7,7c0,3.865-3.135,7-7,7c-3.867,0-7-3.135-7-7
			C654.143,209.857,657.275,206.725,661.143,206.725"/>
	</g>
	<g>
		<defs>
			<path id="SVGID_15_" d="M655.518,213.725c0,3.105,2.52,5.625,5.625,5.625c3.107,0,5.625-2.52,5.625-5.625
				s-2.518-5.625-5.625-5.625C658.037,208.1,655.518,210.619,655.518,213.725"/>
		</defs>
		<clipPath id="SVGID_16_">
			<use xlink:href="#SVGID_15_"  overflow="visible"/>
		</clipPath>
		
			<radialGradient id="SVGID_17_" cx="-181.1074" cy="444.0146" r="1" gradientTransform="matrix(8.2859 0 0 8.2859 2160.4023 -3467.3438)" gradientUnits="userSpaceOnUse">
			<stop  offset="0" style="stop-color:#636262"/>
			<stop  offset="1" style="stop-color:#040000"/>
		</radialGradient>
		<rect x="655.518" y="208.1" clip-path="url(#SVGID_16_)" fill="url(#SVGID_17_)" width="11.25" height="11.25"/>
	</g>
	<g opacity="0.5" enable-background="new    ">
		<g>
			<defs>
				<rect id="SVGID_18_" x="658.518" y="210.475" width="1.875" height="1.875"/>
			</defs>
			<clipPath id="SVGID_19_">
				<use xlink:href="#SVGID_18_"  overflow="visible"/>
			</clipPath>
			<rect x="658.518" y="210.475" clip-path="url(#SVGID_19_)" fill="#FFFFFF" width="1.875" height="1.875"/>
		</g>
	</g>
	<g opacity="0.5" enable-background="new    ">
		<g>
			<defs>
				<rect id="SVGID_20_" x="658.518" y="210.475" width="0.938" height="1.875"/>
			</defs>
			<clipPath id="SVGID_21_">
				<use xlink:href="#SVGID_20_"  overflow="visible"/>
			</clipPath>
			<rect x="658.518" y="210.475" clip-path="url(#SVGID_21_)" fill="#FFFFFF" width="0.938" height="1.875"/>
		</g>
	</g>
</g>
<g>
	<g>
		<path fill="#070001" d="M712.742,206.725c3.865,0,7,3.135,7,7s-3.135,7-7,7s-7-3.135-7-7S708.877,206.725,712.742,206.725"/>
	</g>
	<g>
		<defs>
			<path id="SVGID_22_" d="M707.117,213.725c0,3.105,2.52,5.625,5.625,5.625c3.107,0,5.625-2.52,5.625-5.625
				s-2.518-5.625-5.625-5.625C709.637,208.1,707.117,210.619,707.117,213.725"/>
		</defs>
		<clipPath id="SVGID_23_">
			<use xlink:href="#SVGID_22_"  overflow="visible"/>
		</clipPath>
		
			<radialGradient id="SVGID_24_" cx="-174.8799" cy="444.0146" r="1" gradientTransform="matrix(8.2859 0 0 8.2859 2160.4023 -3467.3438)" gradientUnits="userSpaceOnUse">
			<stop  offset="0" style="stop-color:#636262"/>
			<stop  offset="1" style="stop-color:#040000"/>
		</radialGradient>
		<rect x="707.117" y="208.1" clip-path="url(#SVGID_23_)" fill="url(#SVGID_24_)" width="11.25" height="11.25"/>
	</g>
	<g opacity="0.5" enable-background="new    ">
		<g>
			<defs>
				<rect id="SVGID_25_" x="710.117" y="210.475" width="1.875" height="1.875"/>
			</defs>
			<clipPath id="SVGID_26_">
				<use xlink:href="#SVGID_25_"  overflow="visible"/>
			</clipPath>
			<rect x="710.117" y="210.475" clip-path="url(#SVGID_26_)" fill="#FFFFFF" width="1.875" height="1.875"/>
		</g>
	</g>
	<g opacity="0.5" enable-background="new    ">
		<g>
			<defs>
				<rect id="SVGID_27_" x="710.117" y="210.475" width="0.938" height="1.875"/>
			</defs>
			<clipPath id="SVGID_28_">
				<use xlink:href="#SVGID_27_"  overflow="visible"/>
			</clipPath>
			<rect x="710.117" y="210.475" clip-path="url(#SVGID_28_)" fill="#FFFFFF" width="0.938" height="1.875"/>
		</g>
	</g>
</g>
<g>
	<g>
		<path fill="#070001" d="M764.342,206.725c3.867,0,7,3.135,7,7c0,3.867-3.133,7-7,7c-3.865,0-7-3.133-7-7
			C757.342,209.859,760.477,206.725,764.342,206.725"/>
	</g>
	<g>
		<defs>
			<path id="SVGID_29_" d="M758.719,213.725c0,3.107,2.52,5.625,5.625,5.625c3.107,0,5.625-2.518,5.625-5.625
				c0-3.105-2.518-5.625-5.625-5.625C761.238,208.1,758.719,210.619,758.719,213.725"/>
		</defs>
		<clipPath id="SVGID_30_">
			<use xlink:href="#SVGID_29_"  overflow="visible"/>
		</clipPath>
		
			<radialGradient id="SVGID_31_" cx="-168.6523" cy="444.0146" r="1" gradientTransform="matrix(8.2859 0 0 8.2859 2160.4023 -3467.3438)" gradientUnits="userSpaceOnUse">
			<stop  offset="0" style="stop-color:#636262"/>
			<stop  offset="1" style="stop-color:#040000"/>
		</radialGradient>
		<rect x="758.719" y="208.1" clip-path="url(#SVGID_30_)" fill="url(#SVGID_31_)" width="11.25" height="11.25"/>
	</g>
	<g opacity="0.5" enable-background="new    ">
		<g>
			<defs>
				<rect id="SVGID_32_" x="761.719" y="210.475" width="1.873" height="1.875"/>
			</defs>
			<clipPath id="SVGID_33_">
				<use xlink:href="#SVGID_32_"  overflow="visible"/>
			</clipPath>
			<rect x="761.719" y="210.475" clip-path="url(#SVGID_33_)" fill="#FFFFFF" width="1.873" height="1.875"/>
		</g>
	</g>
	<g opacity="0.5" enable-background="new    ">
		<g>
			<defs>
				<rect id="SVGID_34_" x="761.719" y="210.475" width="0.938" height="1.875"/>
			</defs>
			<clipPath id="SVGID_35_">
				<use xlink:href="#SVGID_34_"  overflow="visible"/>
			</clipPath>
			<rect x="761.719" y="210.475" clip-path="url(#SVGID_35_)" fill="#FFFFFF" width="0.938" height="1.875"/>
		</g>
	</g>
</g>
<g>
	<g>
		<path fill="#070001" d="M815.943,206.727c3.867,0,7,3.133,7,7c0,3.865-3.133,7-7,7c-3.865,0-7-3.135-7-7
			C808.943,209.859,812.078,206.727,815.943,206.727"/>
	</g>
	<g>
		<defs>
			<path id="SVGID_36_" d="M810.32,213.727c0,3.105,2.52,5.625,5.625,5.625c3.107,0,5.625-2.52,5.625-5.625
				c0-3.107-2.518-5.625-5.625-5.625C812.84,208.102,810.32,210.619,810.32,213.727"/>
		</defs>
		<clipPath id="SVGID_37_">
			<use xlink:href="#SVGID_36_"  overflow="visible"/>
		</clipPath>
		
			<radialGradient id="SVGID_38_" cx="-162.4248" cy="444.0146" r="1.0006" gradientTransform="matrix(8.2859 0 0 8.2859 2160.4023 -3467.3438)" gradientUnits="userSpaceOnUse">
			<stop  offset="0" style="stop-color:#636262"/>
			<stop  offset="1" style="stop-color:#040000"/>
		</radialGradient>
		<rect x="810.32" y="208.102" clip-path="url(#SVGID_37_)" fill="url(#SVGID_38_)" width="11.25" height="11.25"/>
	</g>
	<g opacity="0.5" enable-background="new    ">
		<g>
			<defs>
				<rect id="SVGID_39_" x="813.32" y="210.477" width="1.873" height="1.875"/>
			</defs>
			<clipPath id="SVGID_40_">
				<use xlink:href="#SVGID_39_"  overflow="visible"/>
			</clipPath>
			<rect x="813.32" y="210.477" clip-path="url(#SVGID_40_)" fill="#FFFFFF" width="1.873" height="1.875"/>
		</g>
	</g>
	<g opacity="0.5" enable-background="new    ">
		<g>
			<defs>
				<rect id="SVGID_41_" x="813.32" y="210.477" width="0.938" height="1.875"/>
			</defs>
			<clipPath id="SVGID_42_">
				<use xlink:href="#SVGID_41_"  overflow="visible"/>
			</clipPath>
			<rect x="813.32" y="210.477" clip-path="url(#SVGID_42_)" fill="#FFFFFF" width="0.938" height="1.875"/>
		</g>
	</g>
</g>
<g>
	<path fill="#070001" d="M509.126,206.752c3.858,0,6.986,3.127,6.986,6.986c0,3.857-3.128,6.986-6.986,6.986
		c-3.859,0-6.987-3.129-6.987-6.986C502.139,209.879,505.267,206.752,509.126,206.752"/>
	<g>
		<defs>
			<path id="SVGID_43_" d="M503.513,213.738c0,3.102,2.514,5.613,5.614,5.613s5.614-2.512,5.614-5.613s-2.514-5.615-5.614-5.615
				S503.513,210.637,503.513,213.738"/>
		</defs>
		<clipPath id="SVGID_44_">
			<use xlink:href="#SVGID_43_"  overflow="visible"/>
		</clipPath>
		
			<radialGradient id="SVGID_45_" cx="-207.1567" cy="443.7764" r="0.9865" gradientTransform="matrix(8.3884 0 0 8.3884 2245.4648 -3510.8516)" gradientUnits="userSpaceOnUse">
			<stop  offset="0" style="stop-color:#94CA79"/>
			<stop  offset="1" style="stop-color:#22AC38"/>
		</radialGradient>
		<rect x="503.512" y="208.123" clip-path="url(#SVGID_44_)" fill="url(#SVGID_45_)" width="11.229" height="11.229"/>
	</g>
	<g opacity="0.5" enable-background="new    ">
		<g>
			<defs>
				<rect id="SVGID_46_" x="506.507" y="210.494" width="1.87" height="1.871"/>
			</defs>
			<clipPath id="SVGID_47_">
				<use xlink:href="#SVGID_46_"  overflow="visible"/>
			</clipPath>
			<rect x="506.507" y="210.494" clip-path="url(#SVGID_47_)" fill="#FFFFFF" width="1.87" height="1.871"/>
		</g>
	</g>
	<g opacity="0.5" enable-background="new    ">
		<g>
			<defs>
				<rect id="SVGID_48_" x="506.507" y="210.494" width="0.935" height="1.871"/>
			</defs>
			<clipPath id="SVGID_49_">
				<use xlink:href="#SVGID_48_"  overflow="visible"/>
			</clipPath>
			<rect x="506.507" y="210.494" clip-path="url(#SVGID_49_)" fill="#FFFFFF" width="0.936" height="1.871"/>
		</g>
	</g>
</g>
<g>
	<rect fill="#222222" width="53.942" height="252.283"/>
	<rect x="53.942" fill="#040000" width="5" height="252.283"/>
</g>
<g>
	<rect x="1221.648" fill="#222222" width="53.943" height="252.283"/>
	<rect x="1216.648" fill="#040000" width="5" height="252.283"/>
</g>
<circle fill="#B9BE9F" stroke="#040000" stroke-width="2" stroke-miterlimit="10" cx="139.521" cy="208.75" r="14"/>
<path fill="#181818" d="M185.942,68.75c0,2.209-1.791,4-4,4h-83c-2.209,0-4-1.792-4-4v-13c0-2.209,1.791-4,4-4h83
	c2.209,0,4,1.791,4,4V68.75z"/>
<g>
	<circle fill="#3F3F3F" stroke="#070606" stroke-miterlimit="10" cx="281.643" cy="59.121" r="5.701"/>
	<circle fill="#3F3F3F" stroke="#070606" stroke-miterlimit="10" cx="306.586" cy="59.121" r="5.701"/>
	<circle fill="#3F3F3F" stroke="#070606" stroke-miterlimit="10" cx="331.528" cy="59.121" r="5.701"/>
	<circle fill="#3F3F3F" stroke="#070606" stroke-miterlimit="10" cx="356.47" cy="59.121" r="5.701"/>
	<circle fill="#3F3F3F" stroke="#070606" stroke-miterlimit="10" cx="381.413" cy="59.121" r="5.701"/>
	<circle fill="#3F3F3F" stroke="#070606" stroke-miterlimit="10" cx="406.355" cy="59.121" r="5.701"/>
	<circle fill="#3F3F3F" stroke="#070606" stroke-miterlimit="10" cx="431.298" cy="59.121" r="5.701"/>
	<circle fill="#3F3F3F" stroke="#070606" stroke-miterlimit="10" cx="456.24" cy="59.121" r="5.701"/>
</g>
<g>
	<circle fill="#3F3F3F" stroke="#070606" stroke-miterlimit="10" cx="281.643" cy="90.086" r="5.701"/>
	<circle fill="#3F3F3F" stroke="#070606" stroke-miterlimit="10" cx="306.586" cy="90.086" r="5.701"/>
	<circle fill="#3F3F3F" stroke="#070606" stroke-miterlimit="10" cx="331.528" cy="90.086" r="5.701"/>
	<circle fill="#3F3F3F" stroke="#070606" stroke-miterlimit="10" cx="356.47" cy="90.086" r="5.701"/>
	<circle fill="#3F3F3F" stroke="#070606" stroke-miterlimit="10" cx="381.413" cy="90.086" r="5.701"/>
	<circle fill="#3F3F3F" stroke="#070606" stroke-miterlimit="10" cx="406.355" cy="90.086" r="5.701"/>
	<circle fill="#3F3F3F" stroke="#070606" stroke-miterlimit="10" cx="431.298" cy="90.086" r="5.701"/>
	<circle fill="#3F3F3F" stroke="#070606" stroke-miterlimit="10" cx="456.24" cy="90.086" r="5.701"/>
</g>
<text transform="matrix(1 0 0 1 277.6104 48.0889)" fill="#FAFAFA" font-family="'NotoSansHans-Bold-GBpc-EUC-H'" font-size="12">1       2      3       4      5       6       7      8</text>
<text transform="matrix(1 0 0 1 277.6104 110.127)" fill="#FAFAFA" font-family="'NotoSansHans-Bold-GBpc-EUC-H'" font-size="12">9     10     11   12    13     14    15   16</text>
<g>
	
		<ellipse fill="#FAFAFA" stroke="#101010" stroke-width="2" stroke-miterlimit="10" cx="306.586" cy="134.395" rx="19.241" ry="10.98"/>
	
		<ellipse fill="#FAFAFA" stroke="#101010" stroke-width="2" stroke-miterlimit="10" cx="367.873" cy="134.395" rx="19.241" ry="10.98"/>
	
		<ellipse fill="#FAFAFA" stroke="#101010" stroke-width="2" stroke-miterlimit="10" cx="429.161" cy="134.395" rx="19.241" ry="10.98"/>
</g>
<g>
	
		<ellipse fill="#FAFAFA" stroke="#101010" stroke-width="2" stroke-miterlimit="10" cx="306.586" cy="162.164" rx="19.241" ry="10.982"/>
	
		<ellipse fill="#FAFAFA" stroke="#101010" stroke-width="2" stroke-miterlimit="10" cx="367.873" cy="162.164" rx="19.241" ry="10.982"/>
	
		<ellipse fill="#FAFAFA" stroke="#101010" stroke-width="2" stroke-miterlimit="10" cx="429.161" cy="162.164" rx="19.241" ry="10.982"/>
</g>
<g>
	
		<ellipse fill="#FAFAFA" stroke="#101010" stroke-width="2" stroke-miterlimit="10" cx="306.586" cy="189.936" rx="19.241" ry="10.982"/>
	
		<ellipse fill="#FAFAFA" stroke="#101010" stroke-width="2" stroke-miterlimit="10" cx="367.873" cy="189.936" rx="19.241" ry="10.982"/>
	
		<ellipse fill="#FAFAFA" stroke="#101010" stroke-width="2" stroke-miterlimit="10" cx="429.161" cy="189.936" rx="19.241" ry="10.982"/>
</g>
<g>
	
		<ellipse fill="#FAFAFA" stroke="#101010" stroke-width="2" stroke-miterlimit="10" cx="306.586" cy="217.707" rx="19.241" ry="10.982"/>
	
		<ellipse fill="#FAFAFA" stroke="#101010" stroke-width="2" stroke-miterlimit="10" cx="367.873" cy="217.707" rx="19.241" ry="10.982"/>
	
		<ellipse fill="#FAFAFA" stroke="#101010" stroke-width="2" stroke-miterlimit="10" cx="429.161" cy="217.707" rx="19.241" ry="10.982"/>
</g>
<g>
	
		<ellipse fill="#FAFAFA" stroke="#101010" stroke-width="2" stroke-miterlimit="10" cx="892.587" cy="213.738" rx="19.241" ry="10.98"/>
	
		<ellipse fill="#FAFAFA" stroke="#101010" stroke-width="2" stroke-miterlimit="10" cx="953.874" cy="213.738" rx="19.241" ry="10.98"/>
</g>
<g>
	
		<ellipse fill="#FAFAFA" stroke="#101010" stroke-width="2" stroke-miterlimit="10" cx="892.587" cy="182.377" rx="19.241" ry="10.982"/>
	
		<ellipse fill="#FAFAFA" stroke="#101010" stroke-width="2" stroke-miterlimit="10" cx="953.874" cy="182.377" rx="19.241" ry="10.982"/>
</g>
<g>
	
		<ellipse fill="#FAFAFA" stroke="#101010" stroke-width="2" stroke-miterlimit="10" cx="892.587" cy="151.018" rx="19.241" ry="10.982"/>
	
		<ellipse fill="#FAFAFA" stroke="#101010" stroke-width="2" stroke-miterlimit="10" cx="953.874" cy="151.018" rx="19.241" ry="10.982"/>
</g>
<g>
	
		<ellipse fill="#FAFAFA" stroke="#101010" stroke-width="2" stroke-miterlimit="10" cx="892.587" cy="119.658" rx="19.241" ry="10.98"/>
	
		<ellipse fill="#FAFAFA" stroke="#101010" stroke-width="2" stroke-miterlimit="10" cx="953.874" cy="119.658" rx="19.241" ry="10.98"/>
</g>
<g>
	
		<ellipse fill="#FAFAFA" stroke="#101010" stroke-width="2" stroke-miterlimit="10" cx="892.587" cy="88.299" rx="19.241" ry="10.981"/>
	
		<ellipse fill="#FAFAFA" stroke="#101010" stroke-width="2" stroke-miterlimit="10" cx="953.874" cy="88.299" rx="19.241" ry="10.981"/>
</g>
<path fill="#100F12" d="M828.023,169.146c0,2.209-2.023,4-4.52,4H501.462c-2.496,0-4.52-1.791-4.52-4V57.42c0-2.209,2.023-4,4.52-4
	h322.042c2.496,0,4.52,1.791,4.52,4V169.146z"/>
<path fill="#526863" d="M732.643,152.283c0,2.209-1.791,4-4,4h-147c-2.209,0-4-1.791-4-4v-80c0-2.209,1.791-4,4-4h147
	c2.209,0,4,1.791,4,4V152.283z"/>
<path fill="#898989" d="M952.518,17.144c0,0,43.828,23,47.828,58c4,35,52,92.998,103,92.998c0,0,103,13.002,110-139.997l-12.295,2
	c0,0-16.705,112.999-96.705,113.999c0,0-69,1-96-98.999c0,0-18.389-32.997-33-28H952.518z"/>
<path fill="#5D5E5E" d="M952.518,15.143c0,0,43.828,23,47.828,58c4,35,52,92.998,103,92.998c0,0,103,13.002,110-139.998l-12.295,2
	c0,0-16.705,113-96.705,114c0,0-69,1-96-99c0,0-18.389-32.997-33-28H952.518z"/>
<rect x="71.942" y="13.568" fill="#202020" width="909.001" height="4.121"/>
<rect x="71.942" y="15.628" fill="#5D5E5E" width="909.001" height="4.121"/>
<path fill="#E5E6E6" stroke="#0C0C0C" stroke-width="2" stroke-miterlimit="10" d="M1081.631,37.908c0,0,27.25-13.25,47.75,0.75
	l-9.75,11.75c0,0-13.75-9.375-26.125,0L1081.631,37.908z"/>
<path fill="#E5E6E6" stroke="#0C0C0C" stroke-width="2" stroke-miterlimit="10" d="M1129.381,106.61c0,0-27.25,13.25-47.75-0.75
	l9.75-11.75c0,0,13.75,9.375,26.125,0L1129.381,106.61z"/>
<path fill="#E5E6E6" stroke="#0C0C0C" stroke-width="2" stroke-miterlimit="10" d="M1127.881,57.533l11.375-13.125
	c0,0,34.5,23.875-2.375,57.375l-10.625-12.875C1126.256,88.909,1146.881,72.159,1127.881,57.533z"/>
<path fill="#E5E6E6" stroke="#0C0C0C" stroke-width="2" stroke-miterlimit="10" d="M1080.006,87.159l-11.375,13.125
	c0,0-34.5-23.875,2.375-57.375l10.625,12.875C1081.631,55.783,1061.006,72.534,1080.006,87.159z"/>
<circle fill="#E5E6E6" stroke="#0C0C0C" stroke-width="2" stroke-miterlimit="10" cx="1105.506" cy="73.784" r="17.125"/>
</svg>
