<?xml version="1.0" encoding="utf-8"?>
<!-- Generator: Adobe Illustrator 16.0.0, SVG Export Plug-In . SVG Version: 6.00 Build 0)  -->
<!DOCTYPE svg PUBLIC "-//W3C//DTD SVG 1.1//EN" "http://www.w3.org/Graphics/SVG/1.1/DTD/svg11.dtd">
<svg version="1.1" id="图层_1" xmlns="http://www.w3.org/2000/svg" xmlns:xlink="http://www.w3.org/1999/xlink" x="0px" y="0px"
	 width="1275.59px" height="252.699px" viewBox="0 0 1275.59 252.699" enable-background="new 0 0 1275.59 252.699"
	 xml:space="preserve">
<rect y="0.208" fill="#E2E2E2" width="1275.59" height="252.285"/>
<path fill="#0A0A0A" d="M1247.576,223.979c0,4.418-3.582,8-8,8H248.993l2.833-21.514l-25.333-0.045l-43.101,21.559H28.548
	c-4.418,0-8-3.582-8-8v-188c0-4.418,3.582-8,8-8h1211.028c4.418,0,8,3.582,8,8V223.979z"/>
<polygon fill="#E2E2E2" points="1051.508,199.072 233.417,199.072 183.393,231.979 1101.557,231.979 "/>
<circle fill="#EFEFEF" cx="1217.832" cy="116.523" r="6.072"/>
<circle fill="#EFEFEF" cx="1217.832" cy="169.322" r="6.072"/>
<g>
	<g>
		<circle fill="#EFEFEF" cx="942.959" cy="68.207" r="6.072"/>
		<circle fill="none" stroke="#C9C9C9" stroke-miterlimit="10" cx="942.96" cy="68.207" r="14.394"/>
	</g>
	<g>
		<circle fill="#EFEFEF" cx="980.564" cy="110.451" r="6.072"/>
		<circle fill="none" stroke="#C9C9C9" stroke-miterlimit="10" cx="980.563" cy="110.451" r="14.394"/>
	</g>
	<g>
		<circle fill="#EFEFEF" cx="1087.163" cy="110.451" r="6.073"/>
		<circle fill="none" stroke="#C9C9C9" stroke-miterlimit="10" cx="1087.163" cy="110.451" r="14.394"/>
	</g>
	<g>
		<circle fill="#EFEFEF" cx="905.088" cy="110.451" r="6.072"/>
		<circle fill="none" stroke="#C9C9C9" stroke-miterlimit="10" cx="905.088" cy="110.451" r="14.393"/>
	</g>
	<g>
		<circle fill="#EFEFEF" cx="831.66" cy="110.451" r="6.072"/>
		<circle fill="none" stroke="#C9C9C9" stroke-miterlimit="10" cx="831.661" cy="110.451" r="14.394"/>
	</g>
	<g>
		<circle fill="#EFEFEF" cx="752.16" cy="110.451" r="6.072"/>
		<circle fill="none" stroke="#C9C9C9" stroke-miterlimit="10" cx="752.161" cy="110.451" r="14.394"/>
	</g>
	<g>
		<circle fill="#EFEFEF" cx="942.959" cy="142.338" r="6.072"/>
		<circle fill="none" stroke="#C9C9C9" stroke-miterlimit="10" cx="942.96" cy="142.338" r="14.394"/>
	</g>
</g>
<text transform="matrix(1 0 0 1 58.9932 59.9941)" fill="#EFEFEF" font-family="'HeitiEG-Ultra-GB'" font-size="18">HIKVISION</text>
<g>
	<g>
		<polygon fill="#FFFFFF" points="1084.148,78.648 1075.787,83.607 1084.148,88.566 		"/>
	</g>
	<g>
		<polygon fill="#FFFFFF" points="1098.537,84.607 1083.662,84.607 1083.662,82.607 1096.537,82.607 1096.537,76.637 
			1098.537,76.637 		"/>
	</g>
</g>
<g>
	<g>
		<polygon fill="#FFFFFF" points="828.646,86.555 820.285,81.596 828.646,76.637 		"/>
	</g>
	<g>
		<polygon fill="#FFFFFF" points="843.035,80.596 828.16,80.596 828.16,82.596 841.035,82.596 841.035,88.566 843.035,88.566 		"/>
	</g>
</g>
<rect x="833.887" y="88.566" fill="#FFFFFF" width="9.148" height="1.656"/>
<polygon fill="#C2C1C1" points="20.548,223.979 0,252.492 0,0.208 20.548,35.978 "/>
<polygon fill="#C2C1C1" points="1255.043,223.979 1275.59,252.49 1275.59,0.208 1255.043,35.978 "/>
</svg>
