<?xml version="1.0" encoding="utf-8"?>
<!-- Generator: Adobe Illustrator 16.0.0, SVG Export Plug-In . SVG Version: 6.00 Build 0)  -->
<!DOCTYPE svg PUBLIC "-//W3C//DTD SVG 1.1//EN" "http://www.w3.org/Graphics/SVG/1.1/DTD/svg11.dtd">
<svg version="1.1" id="图层_1" xmlns="http://www.w3.org/2000/svg" xmlns:xlink="http://www.w3.org/1999/xlink" x="0px" y="0px"
	 width="1275.59px" height="252.699px" viewBox="0 0 1275.59 252.699" enable-background="new 0 0 1275.59 252.699"
	 xml:space="preserve">
<g>
	<rect x="-0.25" y="0.199" fill="#3D3D3F" width="1275.589" height="252"/>
	<path fill="#3D3D3F" d="M1275.84,252.699H-0.75v-253H1275.84V252.699z M0.25,251.699H1274.84v-251H0.25V251.699z"/>
</g>
<g>
	<path fill="#0A0A0A" d="M561.325,208.021h-442.78c-4.21,0-7.635-3.623-7.635-8.078V75.24c0-4.453,3.425-8.076,7.635-8.076h442.78
		c4.21,0,7.635,3.623,7.635,8.076v124.703C568.959,204.398,565.535,208.021,561.325,208.021z M118.544,69.164
		c-3.107,0-5.635,2.727-5.635,6.076v124.703c0,3.352,2.527,6.078,5.635,6.078h442.78c3.106,0,5.635-2.727,5.635-6.078V75.24
		c0-3.35-2.528-6.076-5.635-6.076H118.544z"/>
</g>
<g>
	<g>
		<polygon fill="#FFFFFF" points="25.224,26.703 22.931,21.873 26.78,21.873 28.663,26.703 26.985,26.703 28.663,30.92 25.06,30.92 
			22.931,26.744 		"/>
	</g>
	<g>
		<polygon fill="#FFFFFF" points="25.183,33.418 22.931,44.145 26.944,44.145 28.95,33.418 		"/>
	</g>
	<g>
		<polygon fill="#FFFFFF" points="33.112,21.873 29.946,26.396 34.041,26.396 34.804,25.229 49.052,25.229 49.052,23.92 
			35.951,23.92 37.316,21.873 		"/>
	</g>
	<g>
		<path fill="#FFFFFF" d="M48.152,35.096v-6.428c-0.368-1.023-1.679-1.188-1.679-1.188H31.57l-0.041,7.574h-1.965v1.475h2.006v7.615
			h14.698c1.678-0.367,1.843-1.514,1.843-1.514v-6.02h1.229v-1.516H48.152z M44.22,43.094h-1.882L40.66,39.41h-3.522l1.393,3.684
			h-3.194v-0.367v-6.143h8.884V43.094z M44.22,35.424h-1.882L40.66,31.74h-3.522l1.393,3.684h-3.194v-0.369v-6.141h8.884V35.424z"/>
	</g>
	<g>
		<path fill="#FFFFFF" d="M77.331,30.279v-2.865c-0.274-0.848-1.038-1.018-1.038-1.018h-6.714v-1.604h8.516v-1.666h-8.626v-1.254
			h-4.53v1.119H52.635c0,0,0.082,18.922,0,19.371c-0.083,0.451-0.778,1.781-0.778,1.781h3.992c0.594-0.123,0.615-0.859,0.615-0.859
			V31.658h8.393v2.619h-6.755v1.721h6.837v8.146h4.477v-8.242h7.124c0.764-0.301,0.846-1.01,0.846-1.01v-3.33h1.338v-1.283H77.331z
			 M64.883,26.076h-6.796v1.691h6.796v2.457h-8.488v-5.924h8.488V26.076z M73.434,34.318h-4.238v-2.66h4.238V34.318z M73.516,30.367
			h-4.32v-3.104h4.32V30.367z"/>
	</g>
	<g>
		<path fill="#FFFFFF" d="M77.439,37.484h-6.933c0,0-0.873,0.52-0.437,1.748l3.002,4.912h4.858l-3.493-5.459h2.975L77.439,37.484z"
			/>
	</g>
	<g>
		<path fill="#FFFFFF" d="M57.405,37.348h6.059c0,0,0.818,0.191,0.818,1.967l-3.056,4.83h-3.821l3.439-5.377h-3.439V37.348z"/>
	</g>
	<g>
		<path fill="#A52824" d="M80.114,23.537c0,0-0.785-1.705-1.194-1.973c0,0-1.167-2.313,1.903-0.389c0,0,1.576,0.287,1.638,0.287
			c0.062,0,1.372,1.371,1.372,1.371l0.635,0.84l0.441,0.818l0.664,1.639l0.572,2.578c0,0,0.614,6.756,0.532,7.412
			c-0.082,0.654-0.246,3.561-0.572,2.129c-0.328-1.434-0.369-1.762-0.369-1.762s-0.614,1.521-0.696,2.152
			c-0.081,0.633,0.492,0.715,0.492,0.715l-0.205,1.023c0,0,1.269,1.432-0.041,1.678c-1.311,0.246-0.818,0.246-0.818,0.246
			s-3.604,6.756-8.558,9.131c0,0-0.818-0.082,0.737-1.803c1.556-1.719-2.539,1.516-3.275,1.803c0,0,9.089-8.271,9.498-17.033
			c0,0-0.45,0.205,0.041-1.678c0.491-1.885,0-0.287,0-0.287s0.123,1.352-0.901-2.744c0,0-1.269-2.66,0.041-2.332
			c1.311,0.326-0.123-1.188-1.269-2.334C79.636,23.879,79.649,24.506,80.114,23.537z"/>
	</g>
	<g>
		<path fill="#FFFFFF" d="M83.895,23.879h16.09l-0.204-2.006h4.421v2.006h2.169l0.861-2.006h2.825l-1.555,3.234h-4.013l0.573,5.977
			l1.351-3.93h2.948l-3.439,9.457l0.573,5.363c0,0,0.614,0.818,0.778,0.818h2.047v1.352h-5.568c0,0-1.31-1.27-1.31-2.906
			c0,0-2.539,1.27-3.071,0.982c0,0,2.334-2.457,2.539-3.768l-1.105-10.439H87.129v-0.941h13.306v-1.844H84.91L83.895,23.879z"/>
	</g>
	<g>
		<path fill="#FFFFFF" d="M98.551,36.16v-3.355h1.68v-1.105h-1.597v-2.621h-3.235v2.621h-2.58v-2.621h-3.644v2.498h-1.27v1.432
			h1.679v3.676c0.287,1.873,2.579,3.695,2.579,3.695l-4.667,3.91h4.401l2.149-2.15l2.006,2.006h4.177l-4.34-3.807
			C97.897,38.822,98.551,36.16,98.551,36.16z M95.707,36.795c0,0-1.495,3.051-3.112-0.266v-3.521h3.112V36.795z"/>
	</g>
	<g>
		<rect x="113.906" y="21.873" fill="#FFFFFF" width="3.602" height="3.084"/>
	</g>
	<g>
		<path fill="#FFFFFF" d="M111.366,26.213h8.517c0,0,1.31,0.436,0.601,2.129l-2.266,3.547l2.948,6.197h-2.103l-1.31-2.594v8.516
			h-3.658v-6.469h-3.029l4.64-8.68c0,0,0.628-1.445-0.491-1.5h-3.821L111.366,26.213z"/>
	</g>
	<g>
		<path fill="#FFFFFF" d="M121.766,22.281v15.203c0,0,3.112,0,3.275,0c0.164,0,0.246-14.07,0.246-14.07h6.756
			c0,0,0.941-0.123,1.473,1.543v12.27h3.112V24.369c0,0-0.165-1.965-2.13-2.088H121.766z"/>
	</g>
	<g>
		<path fill="#FFFFFF" d="M127.375,27.154v8.475l-5.609,8.229h3.848l3.584-4.789c0,0,1.126,4.313,2.271,4.939h5.609v-1.174h-3.07
			l-2.621-7.725v-7.955H127.375z"/>
	</g>
</g>
<g>
	<path fill="#0C0D0D" d="M145.003,55.879h-130v-45h130V55.879z M16.003,54.879h128v-43h-128V54.879z"/>
</g>
<g>
	<rect x="567.959" y="163.379" fill="#101110" width="25.544" height="43.643"/>
	<path fill="#040000" d="M594.003,207.521h-26.544v-44.643h26.544V207.521z M568.459,206.521h24.544v-42.643h-24.544V206.521z"/>
</g>
<g>
	<path fill="#464444" d="M1275.34,69.643H670.83c-28,0-50.699,22.699-50.699,50.701v9.891c0,28.002,22.699,50.701,50.699,50.701
		h604.51V69.643z"/>
	<path fill="#050101" d="M1276.34,181.936H670.83c-28.506,0-51.699-23.193-51.699-51.701v-9.891
		c0-28.508,23.193-51.701,51.699-51.701h605.51V181.936z M670.83,70.643c-27.402,0-49.699,22.295-49.699,49.701v9.891
		c0,27.406,22.296,49.701,49.699,49.701h603.51V70.643H670.83z"/>
</g>
<g>
	<g>
		<circle fill="#FFFFFF" cx="675.697" cy="126.199" r="47.831"/>
		<path fill="#040000" d="M675.697,174.529c-26.65,0-48.332-21.68-48.332-48.33c0-26.648,21.681-48.33,48.332-48.33
			s48.33,21.682,48.33,48.33C724.027,152.85,702.348,174.529,675.697,174.529z M675.697,78.869
			c-26.098,0-47.332,21.232-47.332,47.33s21.234,47.33,47.332,47.33s47.33-21.232,47.33-47.33S701.795,78.869,675.697,78.869z"/>
	</g>
	<g>
		<circle fill="#1E1E1D" cx="675.697" cy="126.199" r="42.331"/>
		<path fill="#040000" d="M675.697,169.029c-23.619,0-42.832-19.213-42.832-42.83s19.212-42.83,42.832-42.83
			c23.617,0,42.83,19.213,42.83,42.83S699.314,169.029,675.697,169.029z M675.697,84.369c-23.066,0-41.832,18.766-41.832,41.83
			c0,23.066,18.765,41.83,41.832,41.83s41.83-18.764,41.83-41.83C717.527,103.135,698.764,84.369,675.697,84.369z"/>
	</g>
	<g>
		<circle fill="#333333" cx="675.172" cy="126.199" r="17.904"/>
		<path fill="#050101" d="M675.172,144.604c-10.148,0-18.404-8.256-18.404-18.404s8.256-18.404,18.404-18.404
			s18.404,8.256,18.404,18.404S685.32,144.604,675.172,144.604z M675.172,108.795c-9.596,0-17.404,7.807-17.404,17.404
			c0,9.596,7.809,17.404,17.404,17.404s17.404-7.809,17.404-17.404C692.576,116.602,684.768,108.795,675.172,108.795z"/>
	</g>
	<g>
		
			<rect x="698.069" y="94.491" transform="matrix(0.712 0.7022 -0.7022 0.712 276.3255 -459.7213)" fill="#040000" width="0.999" height="24.984"/>
	</g>
	<g>
		
			<rect x="639.512" y="106.484" transform="matrix(0.702 0.7122 -0.7122 0.702 270.5126 -432.4778)" fill="#040000" width="24.983" height="0.999"/>
	</g>
	<g>
		
			<rect x="686.076" y="144.816" transform="matrix(0.702 0.7122 -0.7122 0.702 311.6577 -454.1964)" fill="#040000" width="24.984" height="0.999"/>
	</g>
	<g>
		
			<rect x="651.504" y="132.824" transform="matrix(0.712 0.7022 -0.7022 0.712 289.8304 -415.9826)" fill="#040000" width="0.999" height="24.983"/>
	</g>
	<g>
		<path fill="#FFFFFF" d="M681.746,103.645h-13.15l6.576-13.188L681.746,103.645z M671.828,101.645h6.686l-3.342-6.705
			L671.828,101.645z"/>
	</g>
	<g>
		<path fill="#FFFFFF" d="M675.172,161.426l-6.576-13.188h13.15L675.172,161.426z M671.828,150.238l3.344,6.705l3.342-6.705H671.828
			z"/>
	</g>
	<g>
		<path fill="#FFFFFF" d="M651.172,131.863l-13.188-6.574l13.188-6.576V131.863z M642.467,125.289l6.705,3.342v-6.686
			L642.467,125.289z"/>
	</g>
	<g>
		<path fill="#FFFFFF" d="M697.568,131.863v-13.15l13.188,6.576L697.568,131.863z M699.568,121.945v6.686l6.705-3.342
			L699.568,121.945z"/>
	</g>
	<g>
		<g>
			<polygon fill="#FFFFFF" points="672.658,120.33 664.295,125.289 672.658,130.248 			"/>
		</g>
		<g>
			<polygon fill="#FFFFFF" points="687.047,126.289 672.172,126.289 672.172,124.289 685.047,124.289 685.047,118.318 
				687.047,118.318 			"/>
		</g>
	</g>
</g>
<g>
	<path fill="#222323" d="M1150.891,125.289c0,23.736-19.242,42.98-42.98,42.98H781.498c-23.738,0-42.982-19.244-42.982-42.98l0,0
		c0-23.738,19.244-42.98,42.982-42.98h326.412C1131.648,82.309,1150.891,101.551,1150.891,125.289L1150.891,125.289z"/>
	<path fill="#050101" d="M1107.91,169.27H781.498c-24.252,0-43.982-19.73-43.982-43.98c0-24.252,19.73-43.98,43.982-43.98h326.412
		c24.252,0,43.98,19.729,43.98,43.98C1151.891,149.539,1132.162,169.27,1107.91,169.27z M781.498,83.309
		c-23.15,0-41.982,18.832-41.982,41.98s18.832,41.98,41.982,41.98h326.412c23.148,0,41.98-18.832,41.98-41.98
		s-18.832-41.98-41.98-41.98H781.498z"/>
</g>
<g>
	<circle fill="#464444" cx="1150.891" cy="125.289" r="62.049"/>
	<path fill="#050101" d="M1150.891,188.338c-34.764,0-63.049-28.283-63.049-63.049s28.285-63.049,63.049-63.049
		c34.766,0,63.049,28.283,63.049,63.049S1185.656,188.338,1150.891,188.338z M1150.891,64.24c-33.662,0-61.049,27.387-61.049,61.049
		s27.387,61.049,61.049,61.049c33.664,0,61.049-27.387,61.049-61.049S1184.555,64.24,1150.891,64.24z"/>
</g>
<g>
	<circle fill="#464444" cx="1150.891" cy="125.289" r="54.309"/>
	<path fill="#050101" d="M1150.891,180.598c-30.496,0-55.309-24.813-55.309-55.309s24.813-55.307,55.309-55.307
		c30.498,0,55.309,24.811,55.309,55.307S1181.389,180.598,1150.891,180.598z M1150.891,71.982
		c-29.395,0-53.309,23.912-53.309,53.307s23.914,53.309,53.309,53.309s53.309-23.914,53.309-53.309S1180.285,71.982,1150.891,71.982
		z"/>
</g>
<g>
	<circle fill="#504F50" cx="1170.172" cy="155.045" r="12"/>
	<path fill="#050101" d="M1170.172,168.045c-7.168,0-13-5.832-13-13s5.832-13,13-13s13,5.832,13,13
		S1177.34,168.045,1170.172,168.045z M1170.172,144.045c-6.066,0-11,4.936-11,11c0,6.066,4.934,11,11,11c6.064,0,11-4.934,11-11
		C1181.172,148.98,1176.236,144.045,1170.172,144.045z"/>
</g>
<g>
	<rect x="798.672" y="82.309" fill="#050101" width="3" height="86.221"/>
</g>
<g>
	<rect x="851.004" y="82.309" fill="#050101" width="3" height="86.221"/>
</g>
<g>
	<rect x="903.338" y="82.309" fill="#050101" width="3" height="86.221"/>
</g>
<g>
	<rect x="955.67" y="82.309" fill="#050101" width="3" height="86.221"/>
</g>
<g>
	<rect x="1008.004" y="82.309" fill="#050101" width="3" height="86.221"/>
</g>
<g>
	<rect x="1060.336" y="82.309" fill="#050101" width="3" height="86.221"/>
</g>
<g>
	<rect x="738.516" y="123.789" fill="#050101" width="350.338" height="3"/>
</g>
<g>
	<path fill="#FFFFFF" stroke="#FFFFFF" stroke-width="0.75" stroke-miterlimit="10" d="M809.682,88.186
		c-0.311,0.406-0.705,0.797-1.184,1.172v-0.891c0.598-0.531,1.088-1.156,1.471-1.875h0.43v8.063h-0.717V88.186z"/>
</g>
<g>
	<path fill="#FFFFFF" stroke="#FFFFFF" stroke-width="0.75" stroke-miterlimit="10" d="M860.352,94.467
		c0.023-0.469,0.191-0.891,0.504-1.266c0.311-0.375,0.705-0.961,1.186-1.758c0.479-0.797,0.789-1.414,0.934-1.852
		c0.141-0.438,0.197-0.813,0.16-1.125c-0.035-0.313-0.148-0.57-0.34-0.773c-0.193-0.203-0.414-0.289-0.666-0.258
		c-0.25,0.031-0.49,0.156-0.717,0.375c-0.229,0.219-0.402,0.547-0.521,0.984l-0.682-0.141c0.189-0.719,0.436-1.242,0.736-1.57
		c0.299-0.328,0.65-0.508,1.059-0.539c0.24-0.031,0.455-0.023,0.645,0.023c0.193,0.047,0.391,0.156,0.594,0.328
		s0.371,0.43,0.504,0.773c0.131,0.344,0.18,0.758,0.143,1.242c-0.035,0.484-0.223,1.063-0.557,1.734
		c-0.336,0.672-0.982,1.727-1.938,3.164h2.584v0.844h-3.627V94.467z"/>
</g>
<g>
	<path fill="#FFFFFF" stroke="#FFFFFF" stroke-width="0.75" stroke-miterlimit="10" d="M913.273,92.639l0.646-0.141
		c0.096,0.406,0.252,0.742,0.467,1.008s0.484,0.391,0.809,0.375c0.322-0.016,0.58-0.188,0.771-0.516s0.275-0.703,0.252-1.125
		c-0.025-0.422-0.152-0.75-0.377-0.984c-0.229-0.234-0.594-0.398-1.096-0.492v-0.609c0.502-0.063,0.867-0.234,1.096-0.516
		c0.225-0.281,0.328-0.648,0.305-1.102c-0.025-0.453-0.18-0.781-0.467-0.984s-0.592-0.227-0.916-0.07
		c-0.322,0.156-0.582,0.594-0.771,1.313l-0.646-0.141c0.143-0.563,0.342-1.031,0.592-1.406c0.252-0.375,0.592-0.594,1.023-0.656
		s0.809,0.008,1.131,0.211s0.551,0.516,0.684,0.938c0.131,0.422,0.148,0.883,0.053,1.383s-0.371,0.938-0.826,1.313
		c0.336,0.188,0.594,0.469,0.773,0.844c0.178,0.375,0.236,0.867,0.178,1.477s-0.268,1.102-0.627,1.477s-0.768,0.555-1.221,0.539
		c-0.457-0.016-0.85-0.203-1.186-0.563S913.369,93.326,913.273,92.639z"/>
</g>
<g>
	<path fill="#FFFFFF" stroke="#FFFFFF" stroke-width="0.75" stroke-miterlimit="10" d="M966.529,92.873h-2.766v-0.797l2.91-5.484
		h0.537v5.484h0.863v0.797h-0.863v1.781h-0.682V92.873z M966.529,92.076v-3.703l-2.01,3.703H966.529z"/>
</g>
<g>
	<path fill="#FFFFFF" stroke="#FFFFFF" stroke-width="0.75" stroke-miterlimit="10" d="M1016.025,92.451
		c0.166,0.844,0.453,1.313,0.861,1.406c0.406,0.094,0.736,0.039,0.988-0.164c0.25-0.203,0.43-0.469,0.537-0.797
		c0.109-0.328,0.154-0.695,0.145-1.102c-0.012-0.406-0.096-0.75-0.252-1.031s-0.354-0.469-0.594-0.563
		c-0.238-0.094-0.508-0.094-0.807,0s-0.545,0.313-0.736,0.656l-0.609-0.094c0.047-0.188,0.273-1.531,0.682-4.031h2.838v0.844h-2.299
		c-0.121,0.844-0.24,1.516-0.359,2.016c0.359-0.219,0.693-0.32,1.006-0.305c0.311,0.016,0.609,0.109,0.896,0.281
		s0.498,0.406,0.629,0.703s0.227,0.594,0.287,0.891s0.084,0.617,0.072,0.961s-0.066,0.695-0.162,1.055s-0.238,0.656-0.43,0.891
		c-0.193,0.234-0.426,0.422-0.701,0.563s-0.592,0.195-0.951,0.164s-0.701-0.203-1.023-0.516s-0.545-0.844-0.664-1.594
		L1016.025,92.451z"/>
</g>
<g>
	<path fill="#FFFFFF" stroke="#FFFFFF" stroke-width="0.75" stroke-miterlimit="10" d="M862.859,132.076h-3.088v-0.844h3.842v0.797
		c-1.125,2.375-1.867,4.75-2.227,7.125h-0.791C861.029,136.779,861.781,134.42,862.859,132.076z"/>
</g>
<g>
	<path fill="#FFFFFF" stroke="#FFFFFF" stroke-width="0.75" stroke-miterlimit="10" d="M808.029,136.412
		c0.025-0.453,0.092-0.836,0.199-1.148s0.27-0.703,0.482-1.172l1.475-3h0.826l-1.51,3.094c0.646-0.219,1.16-0.188,1.545,0.094
		c0.381,0.281,0.641,0.602,0.771,0.961s0.203,0.75,0.217,1.172c0.012,0.422-0.037,0.836-0.145,1.242
		c-0.109,0.406-0.299,0.773-0.574,1.102s-0.658,0.508-1.15,0.539c-0.49,0.031-0.908-0.086-1.256-0.352s-0.586-0.641-0.719-1.125
		C808.061,137.334,808.006,136.865,808.029,136.412z M809.145,137.959c0.215,0.297,0.502,0.461,0.861,0.492s0.656-0.125,0.896-0.469
		s0.359-0.844,0.359-1.5s-0.148-1.109-0.449-1.359s-0.633-0.344-1.004-0.281s-0.643,0.297-0.811,0.703
		c-0.166,0.406-0.238,0.836-0.213,1.289C808.809,137.287,808.928,137.662,809.145,137.959z"/>
</g>
<g>
	<path fill="#FFFFFF" stroke="#FFFFFF" stroke-width="0.75" stroke-miterlimit="10" d="M911.879,136.857
		c0-0.375,0.07-0.742,0.215-1.102c0.143-0.359,0.383-0.648,0.719-0.867c-0.289-0.219-0.48-0.461-0.576-0.727s-0.148-0.57-0.16-0.914
		c-0.014-0.344,0.023-0.641,0.105-0.891c0.084-0.25,0.211-0.484,0.379-0.703c0.166-0.219,0.354-0.367,0.555-0.445
		c0.205-0.078,0.426-0.117,0.666-0.117c0.238,0,0.455,0.031,0.646,0.094s0.395,0.195,0.609,0.398
		c0.217,0.203,0.371,0.492,0.467,0.867s0.09,0.813-0.018,1.313s-0.391,0.891-0.844,1.172c0.406,0.156,0.693,0.398,0.861,0.727
		s0.252,0.727,0.252,1.195s-0.053,0.844-0.162,1.125c-0.107,0.281-0.229,0.516-0.357,0.703c-0.133,0.188-0.313,0.336-0.539,0.445
		c-0.229,0.109-0.518,0.164-0.863,0.164s-0.645-0.055-0.896-0.164s-0.461-0.273-0.629-0.492s-0.281-0.477-0.342-0.773
		C911.908,137.568,911.879,137.232,911.879,136.857z M912.613,136.811c-0.014,0.375,0.035,0.703,0.145,0.984
		c0.107,0.281,0.305,0.461,0.592,0.539s0.586,0.07,0.896-0.023c0.313-0.094,0.527-0.313,0.648-0.656
		c0.117-0.344,0.162-0.688,0.125-1.031s-0.188-0.633-0.449-0.867c-0.264-0.234-0.551-0.336-0.861-0.305s-0.568,0.172-0.771,0.422
		C912.732,136.123,912.625,136.436,912.613,136.811z M912.74,133.154c0,0.313,0.084,0.609,0.25,0.891
		c0.168,0.281,0.432,0.422,0.791,0.422s0.629-0.141,0.809-0.422c0.178-0.281,0.262-0.617,0.25-1.008s-0.119-0.68-0.324-0.867
		c-0.201-0.188-0.479-0.266-0.824-0.234c-0.348,0.031-0.592,0.164-0.736,0.398C912.813,132.568,912.74,132.842,912.74,133.154z"/>
</g>
<g>
	<path fill="#FFFFFF" stroke="#FFFFFF" stroke-width="0.75" stroke-miterlimit="10" d="M965.77,139.295
		c0.525-1.156,0.957-2.203,1.291-3.141c-0.598,0.125-1.094,0.023-1.488-0.305c-0.396-0.328-0.635-0.773-0.719-1.336
		s-0.078-1.07,0.018-1.523s0.244-0.828,0.449-1.125c0.203-0.297,0.449-0.508,0.736-0.633s0.543-0.188,0.771-0.188
		c0.227,0,0.461,0.063,0.699,0.188s0.455,0.313,0.646,0.563s0.324,0.508,0.396,0.773c0.07,0.266,0.107,0.609,0.107,1.031
		s-0.121,0.961-0.361,1.617c-0.238,0.656-0.824,2.016-1.758,4.078H965.77z M965.572,134.045c0.035,0.406,0.166,0.742,0.395,1.008
		c0.227,0.266,0.473,0.383,0.736,0.352c0.262-0.031,0.473-0.125,0.627-0.281c0.156-0.156,0.307-0.422,0.449-0.797
		c0.096-0.469,0.119-0.867,0.07-1.195c-0.047-0.328-0.172-0.602-0.375-0.82s-0.426-0.328-0.664-0.328
		c-0.145-0.031-0.33,0.016-0.557,0.141c-0.229,0.125-0.408,0.375-0.539,0.75C965.582,133.248,965.535,133.639,965.572,134.045z"/>
</g>
<g>
	<path fill="#FFFFFF" stroke="#FFFFFF" stroke-width="0.75" stroke-miterlimit="10" d="M1015.559,134.678
		c0.023-0.828,0.113-1.484,0.27-1.969c0.154-0.484,0.377-0.883,0.664-1.195s0.639-0.469,1.059-0.469c0.418,0,0.783,0.227,1.096,0.68
		c0.311,0.453,0.514,1.023,0.609,1.711s0.127,1.477,0.09,2.367c-0.035,0.891-0.154,1.617-0.357,2.18
		c-0.205,0.563-0.51,0.953-0.916,1.172c-0.408,0.219-0.814,0.195-1.223-0.07c-0.406-0.266-0.693-0.617-0.861-1.055
		c-0.166-0.438-0.287-0.898-0.357-1.383C1015.559,136.162,1015.533,135.506,1015.559,134.678z M1016.313,134.396
		c-0.072,0.859-0.049,1.625,0.07,2.297c0.121,0.672,0.316,1.148,0.594,1.43c0.275,0.281,0.557,0.336,0.844,0.164
		s0.496-0.516,0.629-1.031c0.129-0.516,0.197-1.078,0.197-1.688s-0.018-1.164-0.055-1.664c-0.035-0.5-0.143-0.953-0.322-1.359
		s-0.42-0.617-0.719-0.633s-0.563,0.18-0.789,0.586C1016.533,132.904,1016.383,133.537,1016.313,134.396z"/>
</g>
<g>
	<path fill="#464444" d="M978.051,40.379c0,1.656-0.789,3-1.762,3H675.283c-0.973,0-1.762-1.344-1.762-3v-26
		c0-1.656,0.789-3,1.762-3h301.006c0.973,0,1.762,1.344,1.762,3V40.379z"/>
	<path fill="#050101" d="M976.289,43.754H675.283c-1.197,0-2.137-1.482-2.137-3.375v-26c0-1.893,0.939-3.375,2.137-3.375h301.006
		c1.199,0,2.137,1.482,2.137,3.375v26C978.426,42.271,977.488,43.754,976.289,43.754z M675.283,11.753
		c-0.738,0-1.387,1.227-1.387,2.625v26c0,1.398,0.648,2.625,1.387,2.625h301.006c0.738,0,1.387-1.227,1.387-2.625v-26
		c0-1.398-0.648-2.625-1.387-2.625H675.283z"/>
</g>
<g>
	<g>
		<rect x="680.057" y="21.543" fill="#EBEBEA" width="7.684" height="7.684"/>
	</g>
	<g>
		<rect x="690.33" y="21.543" fill="#EBEBEA" width="7.682" height="7.684"/>
	</g>
	<g>
		<rect x="701.01" y="23.582" fill="#919191" width="3.605" height="3.607"/>
	</g>
</g>
<g>
	<g>
		<rect x="733.594" y="21.543" fill="#EBEBEA" width="7.682" height="7.684"/>
	</g>
	<g>
		<rect x="743.865" y="21.543" fill="#EBEBEA" width="7.684" height="7.684"/>
	</g>
	<g>
		<rect x="754.547" y="23.582" fill="#919191" width="3.605" height="3.607"/>
	</g>
</g>
<g>
	<g>
		<rect x="787.129" y="21.543" fill="#EBEBEA" width="7.682" height="7.684"/>
	</g>
	<g>
		<rect x="797.402" y="21.543" fill="#EBEBEA" width="7.682" height="7.684"/>
	</g>
	<g>
		<rect x="808.082" y="23.582" fill="#919191" width="3.605" height="3.607"/>
	</g>
</g>
<g>
	<g>
		<rect x="840.664" y="21.543" fill="#EBEBEA" width="7.684" height="7.684"/>
	</g>
	<g>
		<rect x="850.938" y="21.543" fill="#EBEBEA" width="7.684" height="7.684"/>
	</g>
	<g>
		<rect x="861.617" y="23.582" fill="#919191" width="3.607" height="3.607"/>
	</g>
</g>
<g>
	<g>
		<rect x="894.199" y="21.543" fill="#EBEBEA" width="7.684" height="7.684"/>
	</g>
	<g>
		<rect x="904.475" y="21.543" fill="#EBEBEA" width="7.682" height="7.684"/>
	</g>
	<g>
		<rect x="915.154" y="23.582" fill="#919191" width="3.605" height="3.607"/>
	</g>
</g>
<g>
	<g>
		<rect x="947.736" y="21.543" fill="#EBEBEA" width="7.682" height="7.684"/>
	</g>
	<g>
		<rect x="958.01" y="21.543" fill="#EBEBEA" width="7.682" height="7.684"/>
	</g>
	<g>
		<rect x="968.689" y="23.582" fill="#919191" width="3.605" height="3.607"/>
	</g>
</g>
<g>
	<rect x="835.479" y="156.545" fill="#6385C3" width="2.793" height="5"/>
</g>
<g>
	<rect x="839.016" y="156.545" fill="#6385C3" width="2.795" height="5"/>
</g>
<g>
	<rect x="888.107" y="156.545" fill="#6385C3" width="2.795" height="5"/>
</g>
<g>
	<rect x="891.646" y="156.545" fill="#6385C3" width="2.795" height="5"/>
</g>
<g>
	<rect x="895.357" y="156.545" fill="#6385C3" width="2.795" height="5"/>
</g>
<g>
	<rect x="992.211" y="156.545" fill="#6385C3" width="2.793" height="5"/>
</g>
<g>
	<rect x="995.75" y="156.545" fill="#6385C3" width="2.793" height="5"/>
</g>
<g>
	<rect x="999.461" y="156.545" fill="#6385C3" width="2.793" height="5"/>
</g>
<g>
	<rect x="1044.043" y="156.545" fill="#6385C3" width="2.795" height="5"/>
</g>
<g>
	<rect x="1047.582" y="156.545" fill="#6385C3" width="2.795" height="5"/>
</g>
<g>
	<rect x="1051.293" y="156.545" fill="#6385C3" width="2.795" height="5"/>
</g>
<g>
	<rect x="936.377" y="156.545" fill="#6385C3" width="2.793" height="5"/>
</g>
<g>
	<rect x="939.914" y="156.545" fill="#6385C3" width="2.795" height="5"/>
</g>
<g>
	<rect x="943.627" y="156.545" fill="#6385C3" width="2.793" height="5"/>
</g>
<g>
	<rect x="947.107" y="156.545" fill="#6385C3" width="2.795" height="5"/>
</g>
<g>
	<rect x="835.479" y="113.795" fill="#6385C3" width="2.793" height="5"/>
</g>
<g>
	<rect x="839.016" y="113.795" fill="#6385C3" width="2.795" height="5"/>
</g>
<g>
	<rect x="888.107" y="113.795" fill="#6385C3" width="2.795" height="5"/>
</g>
<g>
	<rect x="891.646" y="113.795" fill="#6385C3" width="2.795" height="5"/>
</g>
<g>
	<rect x="895.357" y="113.795" fill="#6385C3" width="2.795" height="5"/>
</g>
<g>
	<rect x="992.211" y="113.795" fill="#6385C3" width="2.793" height="5"/>
</g>
<g>
	<rect x="995.75" y="113.795" fill="#6385C3" width="2.793" height="5"/>
</g>
<g>
	<rect x="999.461" y="113.795" fill="#6385C3" width="2.793" height="5"/>
</g>
<g>
	<rect x="1044.043" y="113.795" fill="#6385C3" width="2.795" height="5"/>
</g>
<g>
	<rect x="1047.582" y="113.795" fill="#6385C3" width="2.795" height="5"/>
</g>
<g>
	<rect x="1051.293" y="113.795" fill="#6385C3" width="2.795" height="5"/>
</g>
<g>
	<rect x="936.377" y="113.795" fill="#6385C3" width="2.793" height="5"/>
</g>
<g>
	<rect x="939.914" y="113.795" fill="#6385C3" width="2.795" height="5"/>
</g>
<g>
	<rect x="943.627" y="113.795" fill="#6385C3" width="2.793" height="5"/>
</g>
<g>
	<rect x="947.107" y="113.795" fill="#6385C3" width="2.795" height="5"/>
</g>
</svg>
