<?xml version="1.0" encoding="utf-8"?>
<!-- Generator: Adobe Illustrator 16.0.0, SVG Export Plug-In . SVG Version: 6.00 Build 0)  -->
<!DOCTYPE svg PUBLIC "-//W3C//DTD SVG 1.1//EN" "http://www.w3.org/Graphics/SVG/1.1/DTD/svg11.dtd">
<svg version="1.1" id="图层_1" xmlns="http://www.w3.org/2000/svg" xmlns:xlink="http://www.w3.org/1999/xlink" x="0px" y="0px"
	 width="1275.59px" height="504.57px" viewBox="0 0 1275.59 504.57" enable-background="new 0 0 1275.59 504.57"
	 xml:space="preserve">
<rect x="0" fill="#6B6A6F" width="1275.59" height="504.567"/>
<rect x="142.81" y="16.069" fill="#6B6A6F" width="603.089" height="86.779"/>
<g>
	<rect x="153.904" y="20.623" fill="#242425" width="10.586" height="16.288"/>
	<rect x="153.904" y="39.441" fill="#242425" width="10.586" height="8.145"/>
</g>
<g>
	<rect x="169.424" y="20.623" fill="#242425" width="10.586" height="16.288"/>
	<rect x="169.424" y="39.441" fill="#242425" width="10.586" height="8.145"/>
</g>
<g>
	<rect x="184.944" y="20.623" fill="#242425" width="10.586" height="16.288"/>
	<rect x="184.944" y="39.441" fill="#242425" width="10.586" height="8.145"/>
</g>
<g>
	<rect x="200.464" y="20.623" fill="#242425" width="10.585" height="16.288"/>
	<rect x="200.464" y="39.441" fill="#242425" width="10.585" height="16.289"/>
</g>
<g>
	<rect x="215.984" y="20.623" fill="#242425" width="10.586" height="16.288"/>
	<rect x="215.984" y="39.441" fill="#242425" width="10.586" height="16.289"/>
</g>
<g>
	<rect x="231.504" y="20.623" fill="#242425" width="10.585" height="16.288"/>
	<rect x="231.504" y="39.441" fill="#242425" width="10.585" height="16.289"/>
</g>
<g>
	<rect x="247.024" y="20.622" fill="#242425" width="10.585" height="16.289"/>
	<rect x="247.024" y="39.441" fill="#242425" width="10.585" height="16.288"/>
</g>
<g>
	<rect x="262.543" y="20.622" fill="#242425" width="10.586" height="16.289"/>
	<rect x="262.543" y="39.441" fill="#242425" width="10.586" height="16.288"/>
</g>
<g>
	<rect x="278.063" y="20.622" fill="#242425" width="10.586" height="16.289"/>
	<rect x="278.063" y="39.441" fill="#242425" width="10.586" height="16.288"/>
</g>
<g>
	<rect x="293.583" y="20.622" fill="#242425" width="10.586" height="16.289"/>
	<rect x="293.583" y="39.441" fill="#242425" width="10.586" height="16.288"/>
</g>
<g>
	<rect x="309.103" y="20.622" fill="#242425" width="10.586" height="16.289"/>
	<rect x="309.103" y="39.441" fill="#242425" width="10.586" height="16.288"/>
</g>
<g>
	<rect x="324.623" y="20.622" fill="#242425" width="10.585" height="16.289"/>
	<rect x="324.623" y="39.441" fill="#242425" width="10.585" height="16.288"/>
</g>
<g>
	<rect x="340.143" y="20.622" fill="#242425" width="10.586" height="16.289"/>
	<rect x="340.143" y="39.441" fill="#242425" width="10.586" height="16.288"/>
</g>
<g>
	<rect x="355.663" y="20.622" fill="#242425" width="10.586" height="16.289"/>
	<rect x="355.663" y="39.441" fill="#242425" width="10.586" height="16.288"/>
</g>
<g>
	<rect x="371.183" y="20.622" fill="#242425" width="10.585" height="16.289"/>
	<rect x="371.183" y="39.441" fill="#242425" width="10.585" height="16.288"/>
</g>
<g>
	<rect x="386.703" y="20.622" fill="#242425" width="10.585" height="16.289"/>
	<rect x="386.703" y="39.441" fill="#242425" width="10.585" height="16.288"/>
</g>
<ellipse fill="#6B6A6F" cx="383.845" cy="60.398" rx="14.452" ry="9.447"/>
<g>
	<path fill="#262626" d="M395.07,63.639c0,5.179-5.026,9.377-11.226,9.377s-11.225-4.198-11.225-9.377
		c0-5.176,5.025-9.374,11.225-9.374S395.07,58.463,395.07,63.639"/>
	<path fill="none" stroke="#131313" stroke-width="0.75" stroke-miterlimit="10" d="M395.07,63.639
		c0,5.179-5.026,9.377-11.226,9.377s-11.225-4.198-11.225-9.377c0-5.176,5.025-9.374,11.225-9.374S395.07,58.463,395.07,63.639z"/>
	<polygon fill="#040000" points="382.458,68.956 382.458,64.797 377.479,64.797 377.479,62.479 382.458,62.479 382.458,58.323 
		385.232,58.323 385.232,62.479 390.211,62.479 390.211,64.797 385.232,64.797 385.232,68.956 	"/>
	<path fill="#231815" d="M384.999,58.518v3.767v0.392h0.467h4.512v1.927h-4.512h-0.467v0.391v3.769h-2.306v-3.769v-0.391h-0.469
		h-4.511v-1.927h4.511h0.469v-0.392v-3.767H384.999z M385.466,58.127h-3.242v4.157h-4.979v2.709h4.979v4.158h3.242v-4.158h4.979
		v-2.709h-4.979V58.127z"/>
</g>
<g>
	<rect x="471.584" y="16.069" fill="#363638" width="2.521" height="86.779"/>
	<rect x="470.071" y="16.069" fill="#848487" width="1.513" height="86.779"/>
</g>
<g>
	<rect x="673.118" y="16.069" fill="#363638" width="2.521" height="86.779"/>
	<rect x="671.605" y="16.069" fill="#848487" width="1.513" height="86.779"/>
</g>
<g>
	<path fill="#070001" d="M471.836,33.388c4.002,0,7.246,2.711,7.246,6.055c0,3.343-3.244,6.053-7.246,6.053s-7.246-2.71-7.246-6.053
		C464.59,36.099,467.834,33.388,471.836,33.388"/>
	<g>
		<defs>
			<path id="SVGID_1_" d="M466.013,39.442c0,2.686,2.606,4.864,5.823,4.864c3.216,0,5.823-2.179,5.823-4.864
				c0-2.687-2.607-4.865-5.823-4.865C468.619,34.577,466.013,36.756,466.013,39.442"/>
		</defs>
		<clipPath id="SVGID_2_">
			<use xlink:href="#SVGID_1_"  overflow="visible"/>
		</clipPath>
		
			<radialGradient id="SVGID_3_" cx="-214.041" cy="477.5117" r="1.0269" gradientTransform="matrix(8.3564 0 0 6.9811 2259.0313 -3295.8438)" gradientUnits="userSpaceOnUse">
			<stop  offset="0" style="stop-color:#7DB960"/>
			<stop  offset="1" style="stop-color:#1D813B"/>
		</radialGradient>
		<rect x="466.013" y="34.577" clip-path="url(#SVGID_2_)" fill="url(#SVGID_3_)" width="11.646" height="9.729"/>
	</g>
	<g opacity="0.5" enable-background="new    ">
		<g>
			<defs>
				<rect id="SVGID_4_" x="469.119" y="36.632" width="1.941" height="1.62"/>
			</defs>
			<clipPath id="SVGID_5_">
				<use xlink:href="#SVGID_4_"  overflow="visible"/>
			</clipPath>
			<rect x="469.119" y="36.632" clip-path="url(#SVGID_5_)" fill="#FFFFFF" width="1.941" height="1.62"/>
		</g>
	</g>
	<g opacity="0.5" enable-background="new    ">
		<g>
			<defs>
				<rect id="SVGID_6_" x="469.119" y="36.632" width="0.969" height="1.62"/>
			</defs>
			<clipPath id="SVGID_7_">
				<use xlink:href="#SVGID_6_"  overflow="visible"/>
			</clipPath>
			<rect x="469.119" y="36.632" clip-path="url(#SVGID_7_)" fill="#FFFFFF" width="0.969" height="1.62"/>
		</g>
	</g>
</g>
<g>
	<rect x="137.767" y="16.069" fill="#ACACAD" width="5.042" height="86.779"/>
	<rect x="142.81" y="16.069" fill="#2C2D2D" width="1.387" height="86.779"/>
</g>
<rect x="137.767" fill="#B7B7B7" width="997.404" height="16.069"/>
<g>
	<rect x="137.767" y="102.636" fill="#B7B7B7" width="997.404" height="4.444"/>
	<rect x="137.767" y="101.778" fill="#393A3A" width="997.404" height="0.995"/>
	<rect x="137.767" y="106.084" fill="#393A3A" width="997.404" height="0.996"/>
</g>
<rect x="137.767" fill="#424142" width="997.404" height="1.774"/>
<rect x="137.767" y="14.295" fill="#333435" width="997.404" height="1.774"/>
<rect x="142.617" y="123.147" fill="#6B6A6F" width="603.09" height="86.78"/>
<g>
	<rect x="153.712" y="127.701" fill="#242425" width="10.586" height="16.289"/>
	<rect x="153.712" y="146.52" fill="#242425" width="10.586" height="8.146"/>
</g>
<g>
	<rect x="169.232" y="127.701" fill="#242425" width="10.585" height="16.289"/>
	<rect x="169.232" y="146.52" fill="#242425" width="10.585" height="8.146"/>
</g>
<g>
	<rect x="184.752" y="127.701" fill="#242425" width="10.585" height="16.289"/>
	<rect x="184.752" y="146.52" fill="#242425" width="10.585" height="8.146"/>
</g>
<g>
	<rect x="200.271" y="127.701" fill="#242425" width="10.586" height="16.289"/>
	<rect x="200.271" y="146.521" fill="#242425" width="10.586" height="16.29"/>
</g>
<g>
	<rect x="215.792" y="127.701" fill="#242425" width="10.585" height="16.289"/>
	<rect x="215.792" y="146.521" fill="#242425" width="10.585" height="16.29"/>
</g>
<g>
	<rect x="231.312" y="127.701" fill="#242425" width="10.585" height="16.289"/>
	<rect x="231.312" y="146.521" fill="#242425" width="10.585" height="16.29"/>
</g>
<g>
	<rect x="246.831" y="127.7" fill="#242425" width="10.586" height="16.289"/>
	<rect x="246.831" y="146.52" fill="#242425" width="10.586" height="16.29"/>
</g>
<g>
	<rect x="262.351" y="127.7" fill="#242425" width="10.586" height="16.289"/>
	<rect x="262.351" y="146.52" fill="#242425" width="10.586" height="16.29"/>
</g>
<g>
	<rect x="277.871" y="127.7" fill="#242425" width="10.585" height="16.289"/>
	<rect x="277.871" y="146.52" fill="#242425" width="10.585" height="16.29"/>
</g>
<g>
	<rect x="293.391" y="127.7" fill="#242425" width="10.586" height="16.289"/>
	<rect x="293.391" y="146.52" fill="#242425" width="10.586" height="16.29"/>
</g>
<g>
	<rect x="308.911" y="127.7" fill="#242425" width="10.585" height="16.289"/>
	<rect x="308.911" y="146.52" fill="#242425" width="10.585" height="16.29"/>
</g>
<g>
	<rect x="324.431" y="127.7" fill="#242425" width="10.585" height="16.289"/>
	<rect x="324.431" y="146.52" fill="#242425" width="10.585" height="16.29"/>
</g>
<g>
	<rect x="339.95" y="127.7" fill="#242425" width="10.586" height="16.289"/>
	<rect x="339.95" y="146.52" fill="#242425" width="10.586" height="16.29"/>
</g>
<g>
	<rect x="355.47" y="127.7" fill="#242425" width="10.586" height="16.289"/>
	<rect x="355.47" y="146.52" fill="#242425" width="10.586" height="16.29"/>
</g>
<g>
	<rect x="370.99" y="127.7" fill="#242425" width="10.585" height="16.289"/>
	<rect x="370.99" y="146.52" fill="#242425" width="10.585" height="16.29"/>
</g>
<g>
	<rect x="386.51" y="127.7" fill="#242425" width="10.586" height="16.289"/>
	<rect x="386.51" y="146.52" fill="#242425" width="10.586" height="16.29"/>
</g>
<ellipse fill="#6B6A6F" cx="383.653" cy="167.478" rx="14.452" ry="9.447"/>
<g>
	<path fill="#262626" d="M394.878,170.719c0,5.179-5.026,9.375-11.226,9.375c-6.2,0-11.225-4.196-11.225-9.375
		c0-5.177,5.025-9.375,11.225-9.375C389.852,161.344,394.878,165.542,394.878,170.719"/>
	
		<ellipse fill="none" stroke="#131313" stroke-width="0.75" stroke-miterlimit="10" cx="383.653" cy="170.719" rx="11.225" ry="9.375"/>
	<polygon fill="#040000" points="382.266,176.034 382.266,171.876 377.287,171.876 377.287,169.56 382.266,169.56 382.266,165.401 
		385.04,165.401 385.04,169.56 390.019,169.56 390.019,171.876 385.04,171.876 385.04,176.034 	"/>
	<path fill="#231815" d="M384.806,165.597v3.767v0.392h0.468h4.512v1.926h-4.512h-0.468v0.391v3.769H382.5v-3.769v-0.391h-0.469
		h-4.511v-1.926h4.511h0.469v-0.392v-3.767H384.806z M385.273,165.206h-3.242v4.157h-4.979v2.708h4.979v4.159h3.242v-4.159h4.979
		v-2.708h-4.979V165.206z"/>
</g>
<g>
	<rect x="471.392" y="123.147" fill="#363638" width="2.521" height="86.78"/>
	<rect x="469.879" y="123.147" fill="#848487" width="1.513" height="86.78"/>
</g>
<g>
	<rect x="672.926" y="123.147" fill="#363638" width="2.521" height="86.78"/>
	<rect x="671.413" y="123.147" fill="#848487" width="1.513" height="86.78"/>
</g>
<g>
	<path fill="#070001" d="M471.643,140.467c4.002,0,7.246,2.71,7.246,6.055c0,3.343-3.244,6.053-7.246,6.053
		c-4.002,0-7.246-2.71-7.246-6.053C464.397,143.177,467.641,140.467,471.643,140.467"/>
	<g>
		<defs>
			<path id="SVGID_8_" d="M465.821,146.521c0,2.686,2.606,4.863,5.822,4.863s5.823-2.178,5.823-4.863
				c0-2.687-2.607-4.865-5.823-4.865S465.821,143.835,465.821,146.521"/>
		</defs>
		<clipPath id="SVGID_9_">
			<use xlink:href="#SVGID_8_"  overflow="visible"/>
		</clipPath>
		
			<radialGradient id="SVGID_10_" cx="-214.064" cy="492.8516" r="1.0263" gradientTransform="matrix(8.3564 0 0 6.9811 2259.0313 -3295.8438)" gradientUnits="userSpaceOnUse">
			<stop  offset="0" style="stop-color:#7DB960"/>
			<stop  offset="1" style="stop-color:#1D813B"/>
		</radialGradient>
		<rect x="465.821" y="141.656" clip-path="url(#SVGID_9_)" fill="url(#SVGID_10_)" width="11.646" height="9.729"/>
	</g>
	<g opacity="0.5" enable-background="new    ">
		<g>
			<defs>
				<rect id="SVGID_11_" x="468.926" y="143.711" width="1.941" height="1.621"/>
			</defs>
			<clipPath id="SVGID_12_">
				<use xlink:href="#SVGID_11_"  overflow="visible"/>
			</clipPath>
			<rect x="468.926" y="143.711" clip-path="url(#SVGID_12_)" fill="#FFFFFF" width="1.941" height="1.621"/>
		</g>
	</g>
	<g opacity="0.5" enable-background="new    ">
		<g>
			<defs>
				<rect id="SVGID_13_" x="468.926" y="143.711" width="0.97" height="1.621"/>
			</defs>
			<clipPath id="SVGID_14_">
				<use xlink:href="#SVGID_13_"  overflow="visible"/>
			</clipPath>
			<rect x="468.926" y="143.711" clip-path="url(#SVGID_14_)" fill="#FFFFFF" width="0.97" height="1.621"/>
		</g>
	</g>
</g>
<g>
	<rect x="137.575" y="123.147" fill="#ACACAD" width="5.042" height="86.78"/>
	<rect x="142.617" y="123.147" fill="#2C2D2D" width="1.387" height="86.78"/>
</g>
<rect x="137.575" y="107.08" fill="#B7B7B7" width="997.404" height="16.067"/>
<g>
	<rect x="137.575" y="209.715" fill="#B7B7B7" width="997.404" height="4.443"/>
	<rect x="137.575" y="208.856" fill="#393A3A" width="997.404" height="0.996"/>
	<rect x="137.575" y="213.163" fill="#393A3A" width="997.404" height="0.995"/>
</g>
<rect x="137.575" y="107.08" fill="#424142" width="997.404" height="1.773"/>
<rect x="137.575" y="121.374" fill="#333435" width="997.404" height="1.773"/>
<rect x="142.617" y="230.228" fill="#6B6A6F" width="603.09" height="86.779"/>
<g>
	<rect x="153.712" y="234.78" fill="#242425" width="10.586" height="16.289"/>
	<rect x="153.712" y="253.599" fill="#242425" width="10.586" height="8.146"/>
</g>
<g>
	<rect x="169.232" y="234.78" fill="#242425" width="10.585" height="16.289"/>
	<rect x="169.232" y="253.599" fill="#242425" width="10.585" height="8.146"/>
</g>
<g>
	<rect x="184.752" y="234.78" fill="#242425" width="10.585" height="16.289"/>
	<rect x="184.752" y="253.599" fill="#242425" width="10.585" height="8.146"/>
</g>
<g>
	<rect x="200.271" y="234.78" fill="#242425" width="10.586" height="16.289"/>
	<rect x="200.271" y="253.599" fill="#242425" width="10.586" height="16.29"/>
</g>
<g>
	<rect x="215.792" y="234.78" fill="#242425" width="10.585" height="16.289"/>
	<rect x="215.792" y="253.599" fill="#242425" width="10.585" height="16.29"/>
</g>
<g>
	<rect x="231.312" y="234.78" fill="#242425" width="10.585" height="16.289"/>
	<rect x="231.312" y="253.599" fill="#242425" width="10.585" height="16.29"/>
</g>
<g>
	<rect x="246.831" y="234.779" fill="#242425" width="10.586" height="16.29"/>
	<rect x="246.831" y="253.599" fill="#242425" width="10.586" height="16.289"/>
</g>
<g>
	<rect x="262.351" y="234.779" fill="#242425" width="10.586" height="16.29"/>
	<rect x="262.351" y="253.599" fill="#242425" width="10.586" height="16.289"/>
</g>
<g>
	<rect x="277.871" y="234.779" fill="#242425" width="10.585" height="16.29"/>
	<rect x="277.871" y="253.599" fill="#242425" width="10.585" height="16.289"/>
</g>
<g>
	<rect x="293.391" y="234.779" fill="#242425" width="10.586" height="16.29"/>
	<rect x="293.391" y="253.599" fill="#242425" width="10.586" height="16.289"/>
</g>
<g>
	<rect x="308.911" y="234.779" fill="#242425" width="10.585" height="16.29"/>
	<rect x="308.911" y="253.599" fill="#242425" width="10.585" height="16.289"/>
</g>
<g>
	<rect x="324.431" y="234.779" fill="#242425" width="10.585" height="16.29"/>
	<rect x="324.431" y="253.599" fill="#242425" width="10.585" height="16.289"/>
</g>
<g>
	<rect x="339.95" y="234.779" fill="#242425" width="10.586" height="16.29"/>
	<rect x="339.95" y="253.599" fill="#242425" width="10.586" height="16.289"/>
</g>
<g>
	<rect x="355.47" y="234.779" fill="#242425" width="10.586" height="16.29"/>
	<rect x="355.47" y="253.599" fill="#242425" width="10.586" height="16.289"/>
</g>
<g>
	<rect x="370.99" y="234.779" fill="#242425" width="10.585" height="16.29"/>
	<rect x="370.99" y="253.599" fill="#242425" width="10.585" height="16.289"/>
</g>
<g>
	<rect x="386.51" y="234.779" fill="#242425" width="10.586" height="16.29"/>
	<rect x="386.51" y="253.599" fill="#242425" width="10.586" height="16.289"/>
</g>
<ellipse fill="#6B6A6F" cx="383.653" cy="274.556" rx="14.452" ry="9.447"/>
<g>
	<path fill="#262626" d="M394.878,277.797c0,5.179-5.026,9.376-11.226,9.376c-6.2,0-11.225-4.197-11.225-9.376
		c0-5.177,5.025-9.374,11.225-9.374C389.852,268.423,394.878,272.62,394.878,277.797"/>
	
		<ellipse fill="none" stroke="#131313" stroke-width="0.75" stroke-miterlimit="10" cx="383.653" cy="277.797" rx="11.225" ry="9.376"/>
	<polygon fill="#040000" points="382.266,283.114 382.266,278.955 377.287,278.955 377.287,276.638 382.266,276.638 382.266,272.48 
		385.04,272.48 385.04,276.638 390.019,276.638 390.019,278.955 385.04,278.955 385.04,283.114 	"/>
	<path fill="#231815" d="M384.806,272.676v3.767v0.392h0.468h4.512v1.927h-4.512h-0.468v0.391v3.768H382.5v-3.768v-0.391h-0.469
		h-4.511v-1.927h4.511h0.469v-0.392v-3.767H384.806z M385.273,272.285h-3.242v4.157h-4.979v2.709h4.979v4.157h3.242v-4.157h4.979
		v-2.709h-4.979V272.285z"/>
</g>
<g>
	<rect x="471.392" y="230.228" fill="#363638" width="2.521" height="86.779"/>
	<rect x="469.879" y="230.228" fill="#848487" width="1.513" height="86.779"/>
</g>
<g>
	<rect x="672.926" y="230.228" fill="#363638" width="2.521" height="86.779"/>
	<rect x="671.413" y="230.228" fill="#848487" width="1.513" height="86.779"/>
</g>
<g>
	<path fill="#070001" d="M471.643,247.545c4.002,0,7.246,2.711,7.246,6.055s-3.244,6.054-7.246,6.054
		c-4.002,0-7.246-2.71-7.246-6.054S467.641,247.545,471.643,247.545"/>
	<g>
		<defs>
			<path id="SVGID_15_" d="M465.821,253.6c0,2.687,2.606,4.864,5.822,4.864s5.823-2.178,5.823-4.864
				c0-2.686-2.607-4.864-5.823-4.864S465.821,250.914,465.821,253.6"/>
		</defs>
		<clipPath id="SVGID_16_">
			<use xlink:href="#SVGID_15_"  overflow="visible"/>
		</clipPath>
		
			<radialGradient id="SVGID_17_" cx="-214.064" cy="508.1895" r="1.0269" gradientTransform="matrix(8.3564 0 0 6.9811 2259.0313 -3295.8438)" gradientUnits="userSpaceOnUse">
			<stop  offset="0" style="stop-color:#7DB960"/>
			<stop  offset="1" style="stop-color:#1D813B"/>
		</radialGradient>
		<rect x="465.821" y="248.735" clip-path="url(#SVGID_16_)" fill="url(#SVGID_17_)" width="11.646" height="9.729"/>
	</g>
	<g opacity="0.5" enable-background="new    ">
		<g>
			<defs>
				<rect id="SVGID_18_" x="468.926" y="250.79" width="1.941" height="1.62"/>
			</defs>
			<clipPath id="SVGID_19_">
				<use xlink:href="#SVGID_18_"  overflow="visible"/>
			</clipPath>
			<rect x="468.926" y="250.79" clip-path="url(#SVGID_19_)" fill="#FFFFFF" width="1.941" height="1.62"/>
		</g>
	</g>
	<g opacity="0.5" enable-background="new    ">
		<g>
			<defs>
				<rect id="SVGID_20_" x="468.926" y="250.79" width="0.97" height="1.62"/>
			</defs>
			<clipPath id="SVGID_21_">
				<use xlink:href="#SVGID_20_"  overflow="visible"/>
			</clipPath>
			<rect x="468.926" y="250.79" clip-path="url(#SVGID_21_)" fill="#FFFFFF" width="0.97" height="1.62"/>
		</g>
	</g>
</g>
<g>
	<rect x="137.575" y="230.228" fill="#ACACAD" width="5.042" height="86.779"/>
	<rect x="142.617" y="230.228" fill="#2C2D2D" width="1.387" height="86.779"/>
</g>
<rect x="137.575" y="214.158" fill="#B7B7B7" width="997.404" height="16.069"/>
<g>
	<rect x="137.575" y="316.794" fill="#B7B7B7" width="997.404" height="4.443"/>
	<rect x="137.575" y="315.937" fill="#393A3A" width="997.404" height="0.995"/>
	<rect x="137.575" y="320.241" fill="#393A3A" width="997.404" height="0.996"/>
</g>
<rect x="137.575" y="214.158" fill="#424142" width="997.404" height="1.774"/>
<rect x="137.575" y="228.453" fill="#333435" width="997.404" height="1.774"/>
<rect x="142.617" y="337.306" fill="#6B6A6F" width="603.09" height="86.78"/>
<g>
	<rect x="153.712" y="341.859" fill="#242425" width="10.586" height="16.289"/>
	<rect x="153.712" y="360.678" fill="#242425" width="10.586" height="8.146"/>
</g>
<g>
	<rect x="169.232" y="341.859" fill="#242425" width="10.585" height="16.289"/>
	<rect x="169.232" y="360.678" fill="#242425" width="10.585" height="8.146"/>
</g>
<g>
	<rect x="184.752" y="341.859" fill="#242425" width="10.585" height="16.289"/>
	<rect x="184.752" y="360.678" fill="#242425" width="10.585" height="8.146"/>
</g>
<g>
	<rect x="200.271" y="341.859" fill="#242425" width="10.586" height="16.289"/>
	<rect x="200.271" y="360.679" fill="#242425" width="10.586" height="16.289"/>
</g>
<g>
	<rect x="215.792" y="341.859" fill="#242425" width="10.585" height="16.289"/>
	<rect x="215.792" y="360.679" fill="#242425" width="10.585" height="16.289"/>
</g>
<g>
	<rect x="231.312" y="341.859" fill="#242425" width="10.585" height="16.289"/>
	<rect x="231.312" y="360.679" fill="#242425" width="10.585" height="16.289"/>
</g>
<g>
	<rect x="246.831" y="341.858" fill="#242425" width="10.586" height="16.289"/>
	<rect x="246.831" y="360.678" fill="#242425" width="10.586" height="16.289"/>
</g>
<g>
	<rect x="262.351" y="341.858" fill="#242425" width="10.586" height="16.289"/>
	<rect x="262.351" y="360.678" fill="#242425" width="10.586" height="16.289"/>
</g>
<g>
	<rect x="277.871" y="341.858" fill="#242425" width="10.585" height="16.289"/>
	<rect x="277.871" y="360.678" fill="#242425" width="10.585" height="16.289"/>
</g>
<g>
	<rect x="293.391" y="341.858" fill="#242425" width="10.586" height="16.289"/>
	<rect x="293.391" y="360.678" fill="#242425" width="10.586" height="16.289"/>
</g>
<g>
	<rect x="308.911" y="341.858" fill="#242425" width="10.585" height="16.289"/>
	<rect x="308.911" y="360.678" fill="#242425" width="10.585" height="16.289"/>
</g>
<g>
	<rect x="324.431" y="341.858" fill="#242425" width="10.585" height="16.289"/>
	<rect x="324.431" y="360.678" fill="#242425" width="10.585" height="16.289"/>
</g>
<g>
	<rect x="339.95" y="341.858" fill="#242425" width="10.586" height="16.289"/>
	<rect x="339.95" y="360.678" fill="#242425" width="10.586" height="16.289"/>
</g>
<g>
	<rect x="355.47" y="341.858" fill="#242425" width="10.586" height="16.289"/>
	<rect x="355.47" y="360.678" fill="#242425" width="10.586" height="16.289"/>
</g>
<g>
	<rect x="370.99" y="341.858" fill="#242425" width="10.585" height="16.289"/>
	<rect x="370.99" y="360.678" fill="#242425" width="10.585" height="16.289"/>
</g>
<g>
	<rect x="386.51" y="341.858" fill="#242425" width="10.586" height="16.289"/>
	<rect x="386.51" y="360.678" fill="#242425" width="10.586" height="16.289"/>
</g>
<ellipse fill="#6B6A6F" cx="383.653" cy="381.636" rx="14.452" ry="9.447"/>
<g>
	<path fill="#262626" d="M394.878,384.876c0,5.179-5.026,9.376-11.226,9.376c-6.2,0-11.225-4.197-11.225-9.376
		c0-5.176,5.025-9.375,11.225-9.375C389.852,375.501,394.878,379.7,394.878,384.876"/>
	
		<ellipse fill="none" stroke="#131313" stroke-width="0.75" stroke-miterlimit="10" cx="383.653" cy="384.876" rx="11.225" ry="9.376"/>
	<polygon fill="#040000" points="382.266,390.192 382.266,386.033 377.287,386.033 377.287,383.717 382.266,383.717 382.266,379.56 
		385.04,379.56 385.04,383.717 390.019,383.717 390.019,386.033 385.04,386.033 385.04,390.192 	"/>
	<path fill="#231815" d="M384.806,379.754v3.768v0.392h0.468h4.512v1.926h-4.512h-0.468v0.391v3.769H382.5v-3.769v-0.391h-0.469
		h-4.511v-1.926h4.511h0.469v-0.392v-3.768H384.806z M385.273,379.363h-3.242v4.158h-4.979v2.708h4.979v4.159h3.242v-4.159h4.979
		v-2.708h-4.979V379.363z"/>
</g>
<g>
	<rect x="471.392" y="337.306" fill="#363638" width="2.521" height="86.78"/>
	<rect x="469.879" y="337.306" fill="#848487" width="1.513" height="86.78"/>
</g>
<g>
	<rect x="672.926" y="337.306" fill="#363638" width="2.521" height="86.78"/>
	<rect x="671.413" y="337.306" fill="#848487" width="1.513" height="86.78"/>
</g>
<g>
	<path fill="#070001" d="M471.643,354.625c4.002,0,7.246,2.71,7.246,6.055c0,3.343-3.244,6.053-7.246,6.053
		c-4.002,0-7.246-2.71-7.246-6.053C464.397,357.335,467.641,354.625,471.643,354.625"/>
	<g>
		<defs>
			<path id="SVGID_22_" d="M465.821,360.68c0,2.686,2.606,4.863,5.822,4.863s5.823-2.178,5.823-4.863
				c0-2.687-2.607-4.865-5.823-4.865S465.821,357.993,465.821,360.68"/>
		</defs>
		<clipPath id="SVGID_23_">
			<use xlink:href="#SVGID_22_"  overflow="visible"/>
		</clipPath>
		
			<radialGradient id="SVGID_24_" cx="-214.064" cy="523.5273" r="1.0269" gradientTransform="matrix(8.3564 0 0 6.9811 2259.0313 -3295.8438)" gradientUnits="userSpaceOnUse">
			<stop  offset="0" style="stop-color:#7DB960"/>
			<stop  offset="1" style="stop-color:#1D813B"/>
		</radialGradient>
		<rect x="465.821" y="355.814" clip-path="url(#SVGID_23_)" fill="url(#SVGID_24_)" width="11.646" height="9.729"/>
	</g>
	<g opacity="0.5" enable-background="new    ">
		<g>
			<defs>
				<rect id="SVGID_25_" x="468.926" y="357.869" width="1.941" height="1.62"/>
			</defs>
			<clipPath id="SVGID_26_">
				<use xlink:href="#SVGID_25_"  overflow="visible"/>
			</clipPath>
			<rect x="468.926" y="357.869" clip-path="url(#SVGID_26_)" fill="#FFFFFF" width="1.941" height="1.62"/>
		</g>
	</g>
	<g opacity="0.5" enable-background="new    ">
		<g>
			<defs>
				<rect id="SVGID_27_" x="468.926" y="357.869" width="0.97" height="1.62"/>
			</defs>
			<clipPath id="SVGID_28_">
				<use xlink:href="#SVGID_27_"  overflow="visible"/>
			</clipPath>
			<rect x="468.926" y="357.869" clip-path="url(#SVGID_28_)" fill="#FFFFFF" width="0.97" height="1.62"/>
		</g>
	</g>
</g>
<g>
	<rect x="137.575" y="337.306" fill="#ACACAD" width="5.042" height="86.78"/>
	<rect x="142.617" y="337.306" fill="#2C2D2D" width="1.387" height="86.78"/>
</g>
<rect x="137.575" y="321.237" fill="#B7B7B7" width="997.404" height="16.068"/>
<g>
	<rect x="137.575" y="423.872" fill="#B7B7B7" width="997.404" height="4.444"/>
	<rect x="137.575" y="423.015" fill="#393A3A" width="997.404" height="0.996"/>
	<rect x="137.575" y="427.321" fill="#393A3A" width="997.404" height="0.995"/>
</g>
<rect x="137.575" y="321.237" fill="#424142" width="997.404" height="1.773"/>
<rect x="137.575" y="335.532" fill="#333435" width="997.404" height="1.773"/>
<rect x="133.714" fill="#212122" width="4.053" height="428.316"/>
<rect x="45.39" fill="#212122" width="7.559" height="428.316"/>
<rect x="61.459" fill="#ACACAC" width="80.515" height="428.316"/>
<g>
	<rect x="68.684" y="6.007" fill="#333435" width="12.102" height="21.649"/>
	<rect x="68.684" y="32.229" fill="#333435" width="12.102" height="21.647"/>
	<rect x="68.684" y="58.451" fill="#333435" width="12.102" height="21.648"/>
	<rect x="68.684" y="84.674" fill="#333435" width="12.102" height="21.648"/>
	<rect x="68.684" y="110.896" fill="#333435" width="12.102" height="21.648"/>
	<rect x="68.684" y="137.118" fill="#333435" width="12.102" height="21.647"/>
	<rect x="68.684" y="163.34" fill="#333435" width="12.102" height="21.648"/>
	<rect x="68.684" y="189.563" fill="#333435" width="12.102" height="21.648"/>
	<rect x="68.684" y="215.784" fill="#333435" width="12.102" height="21.648"/>
	<rect x="68.684" y="242.007" fill="#333435" width="12.102" height="21.647"/>
	<rect x="68.684" y="268.229" fill="#333435" width="12.102" height="21.648"/>
	<rect x="68.684" y="294.451" fill="#333435" width="12.102" height="21.648"/>
	<rect x="68.684" y="320.673" fill="#333435" width="12.102" height="21.648"/>
	<rect x="68.684" y="346.896" fill="#333435" width="12.102" height="21.647"/>
	<rect x="68.684" y="373.118" fill="#333435" width="12.102" height="21.647"/>
	<rect x="68.684" y="399.339" fill="#333435" width="12.102" height="21.649"/>
</g>
<g>
	<rect x="87.063" y="6.007" fill="#333435" width="12.103" height="21.649"/>
	<rect x="87.063" y="32.229" fill="#333435" width="12.103" height="21.647"/>
	<rect x="87.063" y="58.451" fill="#333435" width="12.103" height="21.648"/>
	<rect x="87.063" y="84.674" fill="#333435" width="12.103" height="21.648"/>
	<rect x="87.063" y="110.896" fill="#333435" width="12.103" height="21.648"/>
	<rect x="87.063" y="137.118" fill="#333435" width="12.103" height="21.647"/>
	<rect x="87.063" y="163.34" fill="#333435" width="12.103" height="21.648"/>
	<rect x="87.063" y="189.563" fill="#333435" width="12.103" height="21.648"/>
	<rect x="87.063" y="215.784" fill="#333435" width="12.103" height="21.648"/>
	<rect x="87.063" y="242.007" fill="#333435" width="12.103" height="21.647"/>
	<rect x="87.063" y="268.229" fill="#333435" width="12.103" height="21.648"/>
	<rect x="87.063" y="294.451" fill="#333435" width="12.103" height="21.648"/>
	<rect x="87.063" y="320.673" fill="#333435" width="12.103" height="21.648"/>
	<rect x="87.063" y="346.896" fill="#333435" width="12.103" height="21.647"/>
	<rect x="87.063" y="373.118" fill="#333435" width="12.103" height="21.647"/>
	<rect x="87.063" y="399.339" fill="#333435" width="12.103" height="21.649"/>
</g>
<rect x="105.999" y="32.229" fill="#333435" width="12.102" height="21.647"/>
<rect x="105.999" y="58.451" fill="#333435" width="12.102" height="21.648"/>
<rect x="105.999" y="84.674" fill="#333435" width="12.102" height="21.648"/>
<rect x="105.999" y="110.896" fill="#333435" width="12.102" height="21.648"/>
<rect x="105.999" y="137.118" fill="#333435" width="12.102" height="21.647"/>
<rect x="105.999" y="163.34" fill="#333435" width="12.102" height="21.648"/>
<rect x="105.999" y="189.563" fill="#333435" width="12.102" height="21.648"/>
<rect x="105.999" y="215.784" fill="#333435" width="12.102" height="21.648"/>
<rect x="105.999" y="242.007" fill="#333435" width="12.102" height="21.647"/>
<rect x="105.999" y="268.229" fill="#333435" width="12.102" height="21.648"/>
<rect x="105.999" y="294.451" fill="#333435" width="12.102" height="21.648"/>
<g>
	<rect x="0" y="169.583" fill="#515050" width="25.723" height="9.162"/>
	<rect x="0" y="176.887" fill="#7E7E7F" width="25.723" height="1.858"/>
</g>
<rect x="105.999" y="320.673" fill="#333435" width="12.102" height="21.648"/>
<rect x="105.999" y="346.896" fill="#333435" width="12.102" height="21.647"/>
<rect x="105.999" y="373.118" fill="#333435" width="12.102" height="21.647"/>
<rect x="105.999" y="399.339" fill="#333435" width="12.102" height="21.649"/>
<rect x="0" y="0.001" fill="#515050" width="25.723" height="1.371"/>
<g>
	<ellipse fill="#515050" cx="15.624" cy="58.818" rx="12.135" ry="12.291"/>
	<g>
		<path fill="#AFAFAF" d="M23.994,58.819c0,4.678-3.748,8.47-8.371,8.47c-4.623,0-8.37-3.792-8.37-8.47s3.748-8.47,8.37-8.47
			C20.247,50.35,23.994,54.142,23.994,58.819"/>
		<ellipse fill="none" stroke="#949394" stroke-miterlimit="10" cx="15.624" cy="58.819" rx="8.37" ry="8.47"/>
		<path fill="#AFAFAF" d="M21.774,58.819c0,3.437-2.754,6.224-6.15,6.224s-6.15-2.787-6.15-6.224c0-3.438,2.753-6.223,6.15-6.223
			S21.774,55.382,21.774,58.819"/>
		<ellipse fill="none" stroke="#949394" stroke-miterlimit="10" cx="15.624" cy="58.819" rx="6.15" ry="6.224"/>
		<g>
			<g>
				<defs>
					<rect id="SVGID_29_" x="9.825" y="52.954" width="11.597" height="11.729"/>
				</defs>
				<clipPath id="SVGID_30_">
					<use xlink:href="#SVGID_29_"  overflow="visible"/>
				</clipPath>
				<path clip-path="url(#SVGID_30_)" fill="#BFBFBF" d="M21.42,58.819c0,3.239-2.595,5.864-5.796,5.864
					c-3.201,0-5.796-2.625-5.796-5.864c0-3.24,2.595-5.865,5.796-5.865C18.825,52.954,21.42,55.579,21.42,58.819"/>
				<path clip-path="url(#SVGID_30_)" fill="#C1C1C1" d="M21.284,58.819c0,3.162-2.535,5.727-5.66,5.727
					c-3.126,0-5.66-2.564-5.66-5.727c0-3.163,2.534-5.727,5.66-5.727C18.749,53.093,21.284,55.656,21.284,58.819"/>
				<path clip-path="url(#SVGID_30_)" fill="#C3C4C4" d="M21.147,58.819c0,3.087-2.473,5.588-5.524,5.588S10.1,61.906,10.1,58.819
					s2.473-5.589,5.523-5.589S21.147,55.732,21.147,58.819"/>
				<path clip-path="url(#SVGID_30_)" fill="#C5C6C6" d="M21.011,58.819c0,3.01-2.412,5.452-5.388,5.452
					c-2.975,0-5.387-2.442-5.387-5.452c0-3.011,2.412-5.45,5.387-5.45C18.599,53.369,21.011,55.809,21.011,58.819"/>
				<path clip-path="url(#SVGID_30_)" fill="#C7C9C9" d="M20.875,58.819c0,2.934-2.352,5.313-5.251,5.313
					c-2.899,0-5.25-2.379-5.25-5.313c0-2.935,2.351-5.313,5.25-5.313C18.523,53.506,20.875,55.885,20.875,58.819"/>
				<path clip-path="url(#SVGID_30_)" fill="#CACBCB" d="M20.738,58.819c0,2.857-2.29,5.176-5.115,5.176
					c-2.825,0-5.115-2.318-5.115-5.176c0-2.858,2.29-5.177,5.115-5.177C18.449,53.643,20.738,55.961,20.738,58.819"/>
				<path clip-path="url(#SVGID_30_)" fill="#CCCECE" d="M20.602,58.819c0,2.781-2.229,5.037-4.979,5.037s-4.978-2.256-4.978-5.037
					c0-2.782,2.229-5.037,4.978-5.037S20.602,56.037,20.602,58.819"/>
				<path clip-path="url(#SVGID_30_)" fill="#CED0D0" d="M20.466,58.819c0,2.706-2.168,4.899-4.842,4.899s-4.842-2.193-4.842-4.899
					s2.168-4.9,4.842-4.9S20.466,56.113,20.466,58.819"/>
				<path clip-path="url(#SVGID_30_)" fill="#D1D3D3" d="M20.329,58.819c0,2.629-2.106,4.762-4.706,4.762
					c-2.599,0-4.706-2.133-4.706-4.762c0-2.63,2.107-4.761,4.706-4.761C18.223,54.059,20.329,56.189,20.329,58.819"/>
				<path clip-path="url(#SVGID_30_)" fill="#D3D5D5" d="M20.193,58.819c0,2.553-2.046,4.624-4.57,4.624
					c-2.524,0-4.569-2.071-4.569-4.624c0-2.554,2.045-4.624,4.569-4.624C18.147,54.195,20.193,56.266,20.193,58.819"/>
			</g>
		</g>
		<polygon fill="#5F5F5E" points="14.867,62.346 14.867,59.586 12.138,59.586 12.138,58.053 14.867,58.053 14.867,55.293 
			16.381,55.293 16.381,58.053 19.109,58.053 19.109,59.586 16.381,59.586 16.381,62.346 		"/>
		<path fill="#231815" d="M16.25,55.425v2.494v0.268h0.262h2.466v1.266h-2.466H16.25v0.266v2.495h-1.252v-2.495v-0.266h-0.262H12.27
			v-1.266h2.466h0.262v-0.268v-2.494H16.25z M16.512,55.16h-1.776v2.759h-2.728v1.799h2.728v2.76h1.776v-2.76h2.728v-1.799h-2.728
			V55.16z"/>
	</g>
</g>
<g>
	<ellipse fill="#515050" cx="15.624" cy="196.696" rx="12.135" ry="12.291"/>
	<g>
		<path fill="#AFAFAF" d="M23.994,196.697c0,4.678-3.748,8.47-8.37,8.47c-4.623,0-8.371-3.792-8.371-8.47s3.748-8.47,8.371-8.47
			C20.246,188.228,23.994,192.02,23.994,196.697"/>
		<ellipse fill="none" stroke="#949394" stroke-miterlimit="10" cx="15.623" cy="196.697" rx="8.37" ry="8.47"/>
		<path fill="#AFAFAF" d="M21.773,196.697c0,3.437-2.754,6.224-6.15,6.224c-3.396,0-6.15-2.787-6.15-6.224
			c0-3.438,2.754-6.223,6.15-6.223C19.02,190.475,21.773,193.26,21.773,196.697"/>
		<ellipse fill="none" stroke="#949394" stroke-miterlimit="10" cx="15.623" cy="196.697" rx="6.15" ry="6.224"/>
		<g>
			<g>
				<defs>
					<rect id="SVGID_31_" x="9.825" y="190.833" width="11.596" height="11.729"/>
				</defs>
				<clipPath id="SVGID_32_">
					<use xlink:href="#SVGID_31_"  overflow="visible"/>
				</clipPath>
				<path clip-path="url(#SVGID_32_)" fill="#BFBFBF" d="M21.42,196.697c0,3.239-2.595,5.864-5.796,5.864s-5.797-2.625-5.797-5.864
					s2.596-5.864,5.797-5.864S21.42,193.458,21.42,196.697"/>
				<path clip-path="url(#SVGID_32_)" fill="#C1C1C1" d="M21.283,196.697c0,3.162-2.534,5.727-5.66,5.727
					c-3.126,0-5.66-2.564-5.66-5.727s2.534-5.727,5.66-5.727C18.749,190.971,21.283,193.535,21.283,196.697"/>
				<path clip-path="url(#SVGID_32_)" fill="#C3C4C4" d="M21.147,196.697c0,3.087-2.473,5.589-5.523,5.589s-5.524-2.502-5.524-5.589
					s2.473-5.589,5.524-5.589S21.147,193.61,21.147,196.697"/>
				<path clip-path="url(#SVGID_32_)" fill="#C5C6C6" d="M21.011,196.697c0,3.01-2.412,5.452-5.387,5.452s-5.388-2.442-5.388-5.452
					c0-3.011,2.412-5.45,5.388-5.45S21.011,193.687,21.011,196.697"/>
				<path clip-path="url(#SVGID_32_)" fill="#C7C9C9" d="M20.875,196.697c0,2.934-2.352,5.313-5.251,5.313
					c-2.9,0-5.251-2.379-5.251-5.313c0-2.935,2.351-5.313,5.251-5.313C18.523,191.385,20.875,193.763,20.875,196.697"/>
				<path clip-path="url(#SVGID_32_)" fill="#CACBCB" d="M20.738,196.697c0,2.857-2.29,5.176-5.115,5.176
					c-2.825,0-5.115-2.318-5.115-5.176c0-2.858,2.29-5.177,5.115-5.177C18.448,191.521,20.738,193.839,20.738,196.697"/>
				<path clip-path="url(#SVGID_32_)" fill="#CCCECE" d="M20.602,196.697c0,2.781-2.229,5.037-4.979,5.037
					c-2.75,0-4.978-2.256-4.978-5.037c0-2.782,2.228-5.037,4.978-5.037C18.373,191.66,20.602,193.915,20.602,196.697"/>
				<path clip-path="url(#SVGID_32_)" fill="#CED0D0" d="M20.466,196.697c0,2.706-2.168,4.9-4.842,4.9
					c-2.674,0-4.842-2.194-4.842-4.9s2.168-4.9,4.842-4.9C18.297,191.797,20.466,193.991,20.466,196.697"/>
				<path clip-path="url(#SVGID_32_)" fill="#D1D3D3" d="M20.329,196.697c0,2.629-2.106,4.762-4.706,4.762
					c-2.599,0-4.706-2.133-4.706-4.762c0-2.63,2.107-4.761,4.706-4.761C18.223,191.937,20.329,194.067,20.329,196.697"/>
				<path clip-path="url(#SVGID_32_)" fill="#D3D5D5" d="M20.193,196.697c0,2.553-2.046,4.624-4.569,4.624
					c-2.524,0-4.57-2.071-4.57-4.624c0-2.554,2.046-4.623,4.57-4.623C18.147,192.074,20.193,194.144,20.193,196.697"/>
			</g>
		</g>
		<polygon fill="#5F5F5E" points="14.866,200.224 14.866,197.464 12.138,197.464 12.138,195.931 14.866,195.931 14.866,193.171 
			16.381,193.171 16.381,195.931 19.109,195.931 19.109,197.464 16.381,197.464 16.381,200.224 		"/>
		<path fill="#231815" d="M16.25,193.304v2.494v0.267h0.262h2.466v1.267h-2.466H16.25v0.265v2.495h-1.252v-2.495v-0.265h-0.263
			h-2.466v-1.267h2.466h0.263v-0.267v-2.494H16.25z M16.512,193.038h-1.777v2.76h-2.728v1.798h2.728v2.761h1.777v-2.761h2.728
			v-1.798h-2.728V193.038z"/>
	</g>
</g>
<g>
	<rect y="77.875" fill="#515050" width="25.724" height="9.163"/>
	<rect y="85.18" fill="#7E7E7F" width="25.724" height="1.858"/>
</g>
<g>
	<polygon fill="#212122" points="25.724,0 35.724,7.687 35.724,149.175 25.724,157.175 	"/>
	<polygon fill="#212122" points="43.389,347.354 33.389,355.04 33.389,496.53 43.389,504.529 	"/>
	<rect x="35.724" fill="#B2B1B1" width="9.667" height="338.505"/>
	<polyline fill="#B2B1B1" points="35.724,149.175 21.724,161.519 21.724,323.841 35.724,338.505 	"/>
	<rect x="40.557" y="323.162" fill="#B2B1B1" width="4.833" height="181.367"/>
</g>
<g>
	<rect x="45.39" y="428.317" fill="#7E7E7F" width="1191.436" height="13.172"/>
	<rect x="45.39" y="437.605" fill="#373838" width="1191.436" height="3.882"/>
	<rect x="45.39" y="428.317" fill="#373838" width="1191.436" height="3.883"/>
</g>
<rect x="45.39" y="434.227" fill="#B2B2B2" width="1191.436" height="1.352"/>
<rect x="45.39" y="502.107" fill="#474646" width="1230.201" height="2.423"/>
<rect x="45.39" y="441.487" fill="#77777A" width="419.007" height="60.62"/>
<rect x="810.098" y="441.487" fill="#77777A" width="419.007" height="60.62"/>
<rect x="469.721" y="441.487" fill="#77777A" width="335.451" height="60.62"/>
<rect x="464.397" y="441.487" fill="#262627" width="5.481" height="60.62"/>
<rect x="805.172" y="441.487" fill="#262627" width="5.48" height="60.62"/>
<rect x="80.786" y="448.765" fill="#292A2B" width="20.931" height="21.197"/>
<rect x="107.636" y="448.765" fill="#292A2B" width="20.93" height="21.197"/>
<rect x="134.486" y="448.765" fill="#292A2B" width="20.93" height="21.197"/>
<rect x="161.336" y="448.765" fill="#292A2B" width="20.93" height="21.197"/>
<rect x="188.186" y="448.765" fill="#292A2B" width="20.93" height="21.197"/>
<rect x="215.035" y="448.765" fill="#292A2B" width="20.93" height="21.197"/>
<g>
	<rect x="80.786" y="475.842" fill="#292A2B" width="20.931" height="21.196"/>
	<rect x="107.636" y="475.842" fill="#292A2B" width="20.93" height="21.196"/>
	<rect x="134.486" y="475.842" fill="#292A2B" width="20.93" height="21.196"/>
	<rect x="161.336" y="475.842" fill="#292A2B" width="20.93" height="21.196"/>
	<rect x="188.186" y="475.842" fill="#292A2B" width="20.93" height="21.196"/>
	<rect x="215.035" y="475.842" fill="#292A2B" width="20.93" height="21.196"/>
</g>
<g>
	<rect x="1222.642" fill="#212122" width="7.56" height="428.316"/>
	<g>
		<rect x="1249.867" y="169.583" fill="#515050" width="25.724" height="9.162"/>
		<rect x="1249.867" y="176.887" fill="#7E7E7F" width="25.724" height="1.858"/>
	</g>
	<rect x="1249.867" y="0.001" fill="#515050" width="25.724" height="1.371"/>
	<g>
		<ellipse fill="#515050" cx="1259.967" cy="58.818" rx="12.135" ry="12.291"/>
		<g>
			<path fill="#AFAFAF" d="M1251.598,58.819c0,4.678,3.747,8.47,8.37,8.47s8.37-3.792,8.37-8.47s-3.747-8.47-8.37-8.47
				S1251.598,54.142,1251.598,58.819"/>
			<ellipse fill="none" stroke="#949394" stroke-miterlimit="10" cx="1259.968" cy="58.819" rx="8.37" ry="8.47"/>
			<path fill="#AFAFAF" d="M1253.817,58.819c0,3.437,2.754,6.224,6.15,6.224s6.149-2.787,6.149-6.224
				c0-3.438-2.753-6.223-6.149-6.223S1253.817,55.382,1253.817,58.819"/>
			<ellipse fill="none" stroke="#949394" stroke-miterlimit="10" cx="1259.967" cy="58.819" rx="6.15" ry="6.224"/>
			<g>
				<g>
					<defs>
						<rect id="SVGID_33_" x="1254.17" y="52.954" width="11.596" height="11.729"/>
					</defs>
					<clipPath id="SVGID_34_">
						<use xlink:href="#SVGID_33_"  overflow="visible"/>
					</clipPath>
					<path clip-path="url(#SVGID_34_)" fill="#BFBFBF" d="M1254.171,58.819c0,3.239,2.595,5.864,5.797,5.864
						c3.201,0,5.797-2.625,5.797-5.864c0-3.24-2.596-5.865-5.797-5.865C1256.766,52.954,1254.171,55.579,1254.171,58.819"/>
					<path clip-path="url(#SVGID_34_)" fill="#C1C1C1" d="M1254.308,58.819c0,3.162,2.534,5.727,5.66,5.727s5.66-2.564,5.66-5.727
						c0-3.163-2.534-5.727-5.66-5.727S1254.308,55.656,1254.308,58.819"/>
					<path clip-path="url(#SVGID_34_)" fill="#C3C4C4" d="M1254.444,58.819c0,3.087,2.473,5.588,5.523,5.588
						s5.523-2.501,5.523-5.588s-2.473-5.589-5.523-5.589S1254.444,55.732,1254.444,58.819"/>
					<path clip-path="url(#SVGID_34_)" fill="#C5C6C6" d="M1254.58,58.819c0,3.01,2.412,5.452,5.388,5.452
						c2.975,0,5.387-2.442,5.387-5.452c0-3.011-2.412-5.45-5.387-5.45C1256.992,53.369,1254.58,55.809,1254.58,58.819"/>
					<path clip-path="url(#SVGID_34_)" fill="#C7C9C9" d="M1254.716,58.819c0,2.934,2.352,5.313,5.252,5.313
						c2.899,0,5.25-2.379,5.25-5.313c0-2.935-2.351-5.313-5.25-5.313C1257.067,53.506,1254.716,55.885,1254.716,58.819"/>
					<path clip-path="url(#SVGID_34_)" fill="#CACBCB" d="M1254.854,58.819c0,2.857,2.289,5.176,5.114,5.176
						c2.824,0,5.114-2.318,5.114-5.176c0-2.858-2.29-5.177-5.114-5.177C1257.143,53.643,1254.854,55.961,1254.854,58.819"/>
					<path clip-path="url(#SVGID_34_)" fill="#CCCECE" d="M1254.989,58.819c0,2.781,2.229,5.037,4.979,5.037
						c2.749,0,4.978-2.256,4.978-5.037c0-2.782-2.229-5.037-4.978-5.037C1257.218,53.782,1254.989,56.037,1254.989,58.819"/>
					<path clip-path="url(#SVGID_34_)" fill="#CED0D0" d="M1255.125,58.819c0,2.706,2.169,4.899,4.843,4.899
						s4.842-2.193,4.842-4.899s-2.168-4.9-4.842-4.9S1255.125,56.113,1255.125,58.819"/>
					<path clip-path="url(#SVGID_34_)" fill="#D1D3D3" d="M1255.262,58.819c0,2.629,2.106,4.762,4.706,4.762
						c2.599,0,4.705-2.133,4.705-4.762c0-2.63-2.106-4.761-4.705-4.761C1257.368,54.059,1255.262,56.189,1255.262,58.819"/>
					<path clip-path="url(#SVGID_34_)" fill="#D3D5D5" d="M1255.397,58.819c0,2.553,2.047,4.624,4.57,4.624s4.569-2.071,4.569-4.624
						c0-2.554-2.046-4.624-4.569-4.624S1255.397,56.266,1255.397,58.819"/>
				</g>
			</g>
			<polygon fill="#5F5F5E" points="1260.725,62.346 1260.725,59.586 1263.453,59.586 1263.453,58.053 1260.725,58.053 
				1260.725,55.293 1259.21,55.293 1259.21,58.053 1256.481,58.053 1256.481,59.586 1259.21,59.586 1259.21,62.346 			"/>
			<path fill="#231815" d="M1260.593,55.425v2.494v0.268h0.264h2.465v1.266h-2.465h-0.264v0.266v2.495h-1.252v-2.495v-0.266h-0.262
				h-2.466v-1.266h2.466h0.262v-0.268v-2.494H1260.593z M1259.079,57.919h-2.728v1.799h2.728v2.76h1.777v-2.76h2.728v-1.799h-2.728
				V55.16h-1.777V57.919z"/>
		</g>
	</g>
	<g>
		<ellipse fill="#515050" cx="1259.968" cy="196.696" rx="12.135" ry="12.291"/>
		<g>
			<path fill="#AFAFAF" d="M1251.598,196.697c0,4.678,3.747,8.47,8.37,8.47s8.37-3.792,8.37-8.47s-3.747-8.47-8.37-8.47
				S1251.598,192.02,1251.598,196.697"/>
			<ellipse fill="none" stroke="#949394" stroke-miterlimit="10" cx="1259.968" cy="196.697" rx="8.37" ry="8.47"/>
			<path fill="#AFAFAF" d="M1253.817,196.697c0,3.437,2.754,6.224,6.15,6.224s6.149-2.787,6.149-6.224
				c0-3.438-2.753-6.223-6.149-6.223S1253.817,193.26,1253.817,196.697"/>
			<ellipse fill="none" stroke="#949394" stroke-miterlimit="10" cx="1259.967" cy="196.697" rx="6.15" ry="6.224"/>
			<g>
				<g>
					<defs>
						<rect id="SVGID_35_" x="1254.17" y="190.833" width="11.596" height="11.729"/>
					</defs>
					<clipPath id="SVGID_36_">
						<use xlink:href="#SVGID_35_"  overflow="visible"/>
					</clipPath>
					<path clip-path="url(#SVGID_36_)" fill="#BFBFBF" d="M1254.171,196.697c0,3.239,2.596,5.864,5.797,5.864
						s5.797-2.625,5.797-5.864s-2.596-5.864-5.797-5.864S1254.171,193.458,1254.171,196.697"/>
					<path clip-path="url(#SVGID_36_)" fill="#C1C1C1" d="M1254.308,196.697c0,3.162,2.535,5.727,5.66,5.727
						c3.126,0,5.66-2.564,5.66-5.727s-2.534-5.727-5.66-5.727C1256.843,190.971,1254.308,193.535,1254.308,196.697"/>
					<path clip-path="url(#SVGID_36_)" fill="#C3C4C4" d="M1254.444,196.697c0,3.087,2.473,5.589,5.523,5.589
						s5.523-2.502,5.523-5.589s-2.473-5.589-5.523-5.589S1254.444,193.61,1254.444,196.697"/>
					<path clip-path="url(#SVGID_36_)" fill="#C5C6C6" d="M1254.58,196.697c0,3.01,2.412,5.452,5.388,5.452s5.388-2.442,5.388-5.452
						c0-3.011-2.412-5.45-5.388-5.45S1254.58,193.687,1254.58,196.697"/>
					<path clip-path="url(#SVGID_36_)" fill="#C7C9C9" d="M1254.716,196.697c0,2.934,2.353,5.313,5.252,5.313s5.25-2.379,5.25-5.313
						c0-2.935-2.351-5.313-5.25-5.313S1254.716,193.763,1254.716,196.697"/>
					<path clip-path="url(#SVGID_36_)" fill="#CACBCB" d="M1254.854,196.697c0,2.857,2.289,5.176,5.114,5.176
						s5.115-2.318,5.115-5.176c0-2.858-2.29-5.177-5.115-5.177S1254.854,193.839,1254.854,196.697"/>
					<path clip-path="url(#SVGID_36_)" fill="#CCCECE" d="M1254.989,196.697c0,2.781,2.229,5.037,4.979,5.037
						s4.978-2.256,4.978-5.037c0-2.782-2.228-5.037-4.978-5.037S1254.989,193.915,1254.989,196.697"/>
					<path clip-path="url(#SVGID_36_)" fill="#CED0D0" d="M1255.126,196.697c0,2.706,2.168,4.9,4.842,4.9s4.842-2.194,4.842-4.9
						s-2.168-4.9-4.842-4.9S1255.126,193.991,1255.126,196.697"/>
					<path clip-path="url(#SVGID_36_)" fill="#D1D3D3" d="M1255.263,196.697c0,2.629,2.106,4.762,4.705,4.762
						s4.705-2.133,4.705-4.762c0-2.63-2.106-4.761-4.705-4.761S1255.263,194.067,1255.263,196.697"/>
					<path clip-path="url(#SVGID_36_)" fill="#D3D5D5" d="M1255.398,196.697c0,2.553,2.046,4.624,4.569,4.624
						s4.569-2.071,4.569-4.624c0-2.554-2.046-4.623-4.569-4.623S1255.398,194.144,1255.398,196.697"/>
				</g>
			</g>
			<polygon fill="#5F5F5E" points="1260.725,200.224 1260.725,197.464 1263.453,197.464 1263.453,195.931 1260.725,195.931 
				1260.725,193.171 1259.21,193.171 1259.21,195.931 1256.482,195.931 1256.482,197.464 1259.21,197.464 1259.21,200.224 			"/>
			<path fill="#231815" d="M1260.594,193.304v2.494v0.267h0.263h2.466v1.267h-2.466h-0.263v0.265v2.495h-1.253v-2.495v-0.265h-0.262
				h-2.466v-1.267h2.466h0.262v-0.267v-2.494H1260.594z M1259.079,195.798h-2.728v1.798h2.728v2.761h1.777v-2.761h2.728v-1.798
				h-2.728v-2.76h-1.777V195.798z"/>
		</g>
	</g>
	<g>
		<rect x="1249.867" y="77.875" fill="#515050" width="25.724" height="9.163"/>
		<rect x="1249.867" y="85.18" fill="#7E7E7F" width="25.724" height="1.858"/>
	</g>
	<g>
		<polygon fill="#212122" points="1249.867,0 1239.867,7.687 1239.867,149.175 1249.867,157.175 		"/>
		<polygon fill="#212122" points="1232.202,347.354 1242.202,355.04 1242.202,496.53 1232.202,504.529 		"/>
		<rect x="1230.201" fill="#B2B1B1" width="9.666" height="338.505"/>
		<polyline fill="#B2B1B1" points="1239.867,149.175 1253.867,161.519 1253.867,323.841 1239.867,338.505 		"/>
		<rect x="1230.201" y="323.162" fill="#B2B1B1" width="4.833" height="181.367"/>
	</g>
</g>
<rect x="1135.172" fill="#585959" width="6.948" height="430.259"/>
<rect x="1131.504" fill="#272626" width="3.475" height="430.259"/>
<rect x="1142.12" fill="#797A7A" width="1.737" height="430.259"/>
<rect x="1194.487" y="16.069" fill="#202020" width="14" height="22.522"/>
<rect x="1194.486" y="41.335" fill="#202020" width="14" height="22.522"/>
<rect x="1194.486" y="66.602" fill="#202020" width="14" height="22.522"/>
<rect x="1194.486" y="91.867" fill="#202020" width="14" height="22.522"/>
<rect x="1176.364" y="15.882" fill="#202020" width="14" height="22.522"/>
<rect x="1176.364" y="41.148" fill="#202020" width="14" height="22.522"/>
<rect x="1176.364" y="66.414" fill="#202020" width="14" height="22.522"/>
<rect x="1176.364" y="91.681" fill="#202020" width="14" height="22.522"/>
<rect x="1158.242" y="40.961" fill="#202020" width="14" height="22.522"/>
<rect x="1158.242" y="66.228" fill="#202020" width="13.999" height="22.522"/>
<g>
	<rect x="1195.486" y="396.894" fill="#202020" width="14" height="22.522"/>
	<rect x="1195.485" y="371.627" fill="#202020" width="14" height="22.522"/>
	<rect x="1195.485" y="346.361" fill="#202020" width="14" height="22.522"/>
	<rect x="1177.363" y="397.08" fill="#202020" width="14" height="22.522"/>
	<rect x="1177.363" y="371.814" fill="#202020" width="14" height="22.522"/>
	<rect x="1177.363" y="346.548" fill="#202020" width="14" height="22.522"/>
	<rect x="1159.24" y="372.001" fill="#202020" width="14.001" height="22.522"/>
	<rect x="1159.24" y="346.735" fill="#202020" width="14" height="22.522"/>
</g>
<rect x="1158.242" y="91.493" fill="#202020" width="13.999" height="22.522"/>
<g>
	
		<rect x="1168.883" y="119.771" fill="#3C3D3F" stroke="#080404" stroke-width="2" stroke-miterlimit="10" width="29.074" height="221.073"/>
	<g>
		<path fill="#E4E4E4" d="M1192.953,163.9v-6.762l-1.213-0.221v1.594v0.32v2.914c0,0-3.448,0.196-3.88-1.762v-1.94l3.112,0.33
			v-1.606l-4.135-0.501v3.816C1187.592,164.586,1192.953,163.9,1192.953,163.9z"/>
		<path fill="#E4E4E4" d="M1192.953,178.09v-6.761l-1.213-0.223v1.595v0.321v2.914c0,0-3.448,0.195-3.88-1.762v-1.94l3.112,0.33
			v-1.607l-4.135-0.502v3.819C1187.592,178.775,1192.953,178.09,1192.953,178.09z"/>
		<polygon fill="#E4E4E4" points="1192.919,165.462 1186.804,166.307 1186.804,167.431 1192.919,171.245 1192.919,169.398 
			1190.117,167.833 1190.071,167.028 1192.919,166.507 		"/>
		<rect x="1191.71" y="162.934" fill="#E4E4E4" width="1.209" height="2.696"/>
	</g>
	<path fill="#E4E4E4" d="M1184.439,166.386c0-6.074-0.754-10.997-1.685-10.997c-0.93,0-1.683,4.923-1.683,10.997
		c0,6.071,0.753,10.995,1.683,10.995C1183.686,177.381,1184.439,172.457,1184.439,166.386z M1182.476,166.695
		c0-1.142,0.212-2.069,0.472-2.069s0.473,0.928,0.473,2.069c0,1.143-0.213,2.07-0.473,2.07S1182.476,167.838,1182.476,166.695z"/>
	<path fill="#E4E4E4" d="M1193.856,217.181v-21.182c0-0.729-0.617-1.323-1.379-1.323h-13.219c-0.761,0-1.379,0.594-1.379,1.323
		v21.182c0,0.731,0.618,1.323,1.379,1.323h13.219C1193.239,218.504,1193.856,217.912,1193.856,217.181z M1186.271,204.609
		c0,0-0.948-0.275-1.25-1.132l-3.319,0.938v-1.38l3.319-0.993v-1.282c0,0-0.058-0.137-0.245-0.274h-3.074v-1.324h3.074
		c0,0,0.95,0.11,1.422,0.924v3.006c0,0,1.438,0.594,2.415,0V199.3h1.422v3.971c0,0-0.259,0.993-1.437,1.339H1186.271z
		 M1182.851,214.02c-0.947-0.351-1.012-1.034-1.012-1.034v-1.883c0.193-0.723,0.948-0.909,0.948-0.909
		c-0.862-0.415-0.948-1.056-0.948-1.056v-1.903c0.302-0.764,1.293-0.971,1.293-0.971h6.811v0.91h-6.725v2.42h6.725v1.034h-6.725
		v2.378h6.725v1.014H1182.851z"/>
	<path fill="#E4E4E4" d="M1180.779,155.423h-4.937v21.922h4.937V155.423z M1176.598,160.505v-0.211v-0.212h2.665v-0.003
		l-2.665-0.906v-0.211v-0.211l2.657-0.912l0,0h-2.657v-0.21v-0.213h3.15v0.313v0.314l-2.681,0.921l2.681,0.913v0.313v0.313H1176.598
		z M1177.754,165.214c-0.391,0-0.693-0.112-0.913-0.336s-0.328-0.534-0.328-0.931c0-0.414,0.105-0.729,0.314-0.945
		c0.213-0.216,0.521-0.324,0.927-0.324h1.994v0.218v0.22h-1.963c-0.292,0-0.516,0.069-0.668,0.212
		c-0.151,0.142-0.228,0.349-0.228,0.62s0.076,0.478,0.228,0.618c0.152,0.142,0.376,0.213,0.668,0.213h1.963v0.216v0.22H1177.754z
		 M1176.786,169.212h-0.188v-2.069h3.15v0.217v0.219h-2.773v1.634H1176.786z M1179.56,173.022h-0.189v-1.091h-2.772v-0.217v-0.219
		h2.772v-1.09h0.189h0.188v2.616H1179.56z M1176.598,175.353v-0.217v-0.22h3.15v0.219v0.218H1176.598z"/>
	<g>
		<path fill="#E4E4E4" d="M1175.034,158.128v0.134v0.782c0,0.208-0.048,0.36-0.144,0.453c-0.093,0.093-0.231,0.124-0.414,0.093
			c-0.181-0.03-0.319-0.111-0.421-0.242c-0.026-0.032-0.049-0.067-0.067-0.103l-0.022,0.04c-0.072,0.106-0.192,0.148-0.361,0.126
			l-0.375-0.054c-0.061-0.01-0.105-0.008-0.132,0c-0.027,0.009-0.05,0.031-0.07,0.067l-0.044-0.009v-0.326
			c0.018-0.006,0.061-0.006,0.132,0c0.07,0.004,0.147,0.013,0.236,0.022l0.161,0.022c0.127,0.018,0.219,0.003,0.271-0.043
			c0.056-0.048,0.082-0.136,0.082-0.262v-0.633l-0.885-0.149v-0.134v-0.132L1175.034,158.128z M1174.106,158.236v0.66
			c0,0.123,0.028,0.218,0.086,0.285c0.055,0.067,0.145,0.109,0.266,0.13c0.119,0.021,0.205,0.005,0.26-0.046
			s0.082-0.141,0.082-0.272v-0.638L1174.106,158.236z"/>
		<path fill="#E4E4E4" d="M1172.981,159.756l2.053,0.348v1.438l-0.124-0.02l-0.123-0.021v-1.174l-0.627-0.106v1.071l-0.122-0.021
			l-0.123-0.021v-1.071l-0.688-0.117v1.188l-0.123-0.021l-0.123-0.021V159.756z"/>
		<path fill="#E4E4E4" d="M1173.736,163.346c-0.252-0.076-0.451-0.204-0.595-0.379c-0.144-0.178-0.215-0.383-0.215-0.616
			c0-0.271,0.097-0.47,0.292-0.598c0.194-0.129,0.457-0.165,0.787-0.107c0.331,0.054,0.594,0.183,0.79,0.383
			c0.194,0.2,0.293,0.442,0.293,0.724c0,0.222-0.06,0.395-0.179,0.518c-0.119,0.122-0.284,0.181-0.492,0.174v-0.258
			c0.136-0.001,0.241-0.044,0.315-0.127c0.073-0.085,0.11-0.201,0.11-0.353c0-0.197-0.075-0.365-0.227-0.51
			c-0.152-0.142-0.355-0.235-0.611-0.279c-0.271-0.046-0.479-0.025-0.621,0.059c-0.142,0.084-0.213,0.229-0.213,0.437
			c0,0.151,0.049,0.287,0.146,0.405c0.099,0.117,0.238,0.207,0.418,0.271V163.346z"/>
		<path fill="#E4E4E4" d="M1173.225,163.744c0.198-0.145,0.459-0.188,0.781-0.133c0.324,0.055,0.586,0.186,0.784,0.397
			c0.199,0.21,0.299,0.458,0.299,0.744s-0.1,0.502-0.299,0.645c-0.198,0.143-0.46,0.186-0.784,0.133
			c-0.322-0.056-0.583-0.188-0.781-0.397c-0.2-0.211-0.298-0.459-0.298-0.747C1172.927,164.101,1173.024,163.886,1173.225,163.744z
			 M1173.402,164.964c0.153,0.152,0.354,0.248,0.604,0.291c0.251,0.043,0.452,0.014,0.606-0.086s0.231-0.252,0.231-0.458
			c0-0.203-0.077-0.382-0.231-0.535c-0.154-0.15-0.355-0.248-0.606-0.291c-0.249-0.042-0.45-0.014-0.604,0.087
			c-0.153,0.1-0.23,0.252-0.23,0.456C1173.172,164.634,1173.249,164.812,1173.402,164.964z"/>
		<path fill="#E4E4E4" d="M1175.034,166.051v0.133v0.783c0,0.209-0.048,0.36-0.144,0.453c-0.093,0.094-0.231,0.124-0.414,0.094
			c-0.181-0.031-0.319-0.111-0.421-0.242c-0.026-0.032-0.049-0.067-0.067-0.104l-0.022,0.041c-0.072,0.107-0.192,0.148-0.361,0.124
			l-0.375-0.052c-0.061-0.01-0.105-0.01-0.132,0c-0.027,0.009-0.05,0.031-0.07,0.066l-0.044-0.008v-0.327
			c0.018-0.005,0.061-0.005,0.132,0c0.07,0.004,0.147,0.013,0.236,0.023l0.161,0.021c0.127,0.019,0.219,0.003,0.271-0.043
			c0.056-0.048,0.082-0.135,0.082-0.264v-0.631l-0.885-0.15v-0.131v-0.134L1175.034,166.051z M1174.106,166.161v0.658
			c0,0.124,0.028,0.218,0.086,0.285c0.055,0.067,0.145,0.109,0.266,0.131c0.119,0.02,0.205,0.005,0.26-0.047
			c0.055-0.051,0.082-0.142,0.082-0.271v-0.639L1174.106,166.161z"/>
		<path fill="#E4E4E4" d="M1175.034,168.014v0.133v0.675c0,0.25-0.094,0.434-0.28,0.55c-0.186,0.117-0.434,0.148-0.748,0.095
			c-0.313-0.053-0.561-0.171-0.746-0.354c-0.185-0.183-0.278-0.401-0.278-0.659v-0.654v-0.134L1175.034,168.014z M1173.219,167.972
			v0.489c0,0.19,0.068,0.349,0.206,0.478c0.137,0.125,0.33,0.21,0.581,0.253c0.252,0.042,0.446,0.025,0.584-0.051
			c0.138-0.077,0.207-0.207,0.207-0.391v-0.512L1173.219,167.972z"/>
		<path fill="#E4E4E4" d="M1172.981,169.984l2.053-0.168v0.143v0.145l-1.623,0.077c-0.026,0.001-0.052,0.001-0.076,0.001
			c-0.026,0-0.043,0-0.053-0.001v-0.001c0.013,0.002,0.031,0.007,0.056,0.017c0.024,0.007,0.05,0.017,0.073,0.027l1.623,0.691v0.148
			v0.151l-1.614,0.141c-0.024,0.002-0.05,0.005-0.077,0.005c-0.025,0-0.045-0.001-0.056-0.004c0.009,0.003,0.027,0.006,0.054,0.015
			s0.052,0.019,0.079,0.029l1.614,0.629v0.144v0.142l-2.053-0.862v-0.144v-0.143l1.587-0.159c0.027-0.003,0.055-0.003,0.08-0.005
			c0.025-0.001,0.044,0,0.054,0.002v-0.001c-0.013-0.002-0.031-0.008-0.057-0.017s-0.051-0.019-0.077-0.03l-1.587-0.686v-0.144
			V169.984z"/>
		<path fill="#E4E4E4" d="M1175.034,172.601v0.133v0.783c0,0.209-0.048,0.36-0.144,0.453c-0.093,0.093-0.231,0.123-0.414,0.093
			c-0.181-0.03-0.319-0.109-0.421-0.241c-0.026-0.033-0.049-0.068-0.067-0.104l-0.022,0.041c-0.072,0.108-0.192,0.148-0.361,0.126
			l-0.375-0.053c-0.061-0.01-0.105-0.009-0.132,0c-0.027,0.008-0.05,0.03-0.07,0.065l-0.044-0.008v-0.327
			c0.018-0.004,0.061-0.004,0.132,0.001c0.07,0.005,0.147,0.013,0.236,0.024l0.161,0.02c0.127,0.019,0.219,0.004,0.271-0.042
			c0.056-0.048,0.082-0.135,0.082-0.263v-0.633l-0.885-0.148v-0.134v-0.132L1175.034,172.601z M1174.106,172.71v0.659
			c0,0.123,0.028,0.219,0.086,0.285c0.055,0.067,0.145,0.11,0.266,0.13c0.119,0.021,0.205,0.005,0.26-0.045
			c0.055-0.052,0.082-0.143,0.082-0.273v-0.638L1174.106,172.71z"/>
	</g>
	<g>
		<path fill="#E4E4E4" stroke="#E4E4E4" stroke-width="0.25" stroke-miterlimit="10" d="M1175.79,192.889v0.19v0.965
			c0,0.356-0.111,0.641-0.333,0.851c-0.223,0.212-0.521,0.316-0.898,0.316c-0.375,0-0.675-0.107-0.896-0.322
			c-0.222-0.217-0.334-0.509-0.334-0.875v-0.935v-0.19H1175.79z M1173.613,193.271v0.695c0,0.273,0.082,0.482,0.247,0.633
			c0.164,0.146,0.397,0.222,0.698,0.222c0.303,0,0.535-0.072,0.699-0.215c0.166-0.144,0.248-0.345,0.248-0.607v-0.728H1173.613z"/>
		<path fill="#E4E4E4" stroke="#E4E4E4" stroke-width="0.25" stroke-miterlimit="10" d="M1175.79,195.479v0.211v0.212l-2.104,0.805
			v0.001l2.104,0.805v0.21v0.21l-2.461-1.021v-0.206V196.5L1175.79,195.479z"/>
		<path fill="#E4E4E4" stroke="#E4E4E4" stroke-width="0.25" stroke-miterlimit="10" d="M1175.79,198.327v0.191v0.964
			c0,0.357-0.111,0.642-0.333,0.851c-0.223,0.212-0.521,0.317-0.898,0.317c-0.375,0-0.675-0.108-0.896-0.324
			c-0.222-0.216-0.334-0.507-0.334-0.875v-0.933v-0.191H1175.79z M1173.613,198.708v0.696c0,0.273,0.082,0.484,0.247,0.631
			c0.164,0.148,0.397,0.223,0.698,0.223c0.303,0,0.535-0.07,0.699-0.213c0.166-0.144,0.248-0.345,0.248-0.609v-0.728H1173.613z"/>
		<path fill="#E4E4E4" stroke="#E4E4E4" stroke-width="0.25" stroke-miterlimit="10" d="M1174.066,201.838v-0.847h0.254v0.847h0.739
			v0.289h-0.739v0.847h-0.254v-0.847h-0.741v-0.289H1174.066z"/>
		<path fill="#E4E4E4" stroke="#E4E4E4" stroke-width="0.25" stroke-miterlimit="10" d="M1175.79,203.469v0.188v1.119
			c0,0.298-0.057,0.524-0.169,0.68c-0.113,0.156-0.281,0.234-0.499,0.234c-0.215,0-0.384-0.083-0.505-0.245
			c-0.031-0.039-0.057-0.084-0.081-0.131l-0.027,0.063c-0.084,0.171-0.23,0.26-0.434,0.265l-0.448,0.016
			c-0.073,0.003-0.127,0.014-0.159,0.033c-0.032,0.019-0.06,0.056-0.083,0.11h-0.054v-0.467c0.021-0.012,0.073-0.021,0.157-0.03
			c0.085-0.011,0.179-0.02,0.283-0.023l0.194-0.01c0.153-0.005,0.263-0.046,0.327-0.128c0.065-0.08,0.098-0.211,0.098-0.394v-0.9
			h-1.062v-0.191v-0.189H1175.79z M1174.679,203.85v0.938c0,0.176,0.035,0.305,0.102,0.387c0.066,0.081,0.174,0.122,0.32,0.122
			c0.142,0,0.246-0.042,0.312-0.128s0.099-0.222,0.099-0.408v-0.911H1174.679z"/>
		<path fill="#E4E4E4" stroke="#E4E4E4" stroke-width="0.25" stroke-miterlimit="10" d="M1173.28,207.039
			c0-0.29,0.081-0.518,0.242-0.683c0.16-0.165,0.382-0.248,0.666-0.248c0.301,0,0.541,0.087,0.719,0.263
			c0.179,0.175,0.268,0.411,0.268,0.705c0,0.27-0.088,0.484-0.262,0.649c-0.174,0.164-0.402,0.246-0.687,0.246l-0.106-0.003v-1.494
			c-0.18,0.014-0.314,0.06-0.408,0.139c-0.114,0.098-0.17,0.249-0.17,0.458c0,0.131,0.031,0.247,0.096,0.345
			s0.146,0.157,0.248,0.179v0.341c-0.196-0.051-0.346-0.153-0.45-0.306C1173.333,207.478,1173.28,207.279,1173.28,207.039z
			 M1174.362,207.612c0.166-0.01,0.296-0.057,0.389-0.141c0.103-0.094,0.155-0.229,0.155-0.409c0-0.181-0.061-0.326-0.179-0.434
			c-0.093-0.085-0.214-0.137-0.365-0.154V207.612z"/>
		<path fill="#E4E4E4" stroke="#E4E4E4" stroke-width="0.25" stroke-miterlimit="10" d="M1173.329,208.928l2.461-0.736v0.204v0.207
			l-1.944,0.502c-0.032,0.008-0.063,0.016-0.093,0.021c-0.03,0.006-0.051,0.009-0.063,0.009v-0.002c0.015,0,0.037,0.004,0.067,0.011
			c0.029,0.006,0.06,0.013,0.089,0.021l1.944,0.596v0.215v0.214l-1.936,0.59c-0.029,0.011-0.061,0.019-0.092,0.026
			c-0.031,0.006-0.054,0.008-0.068,0.008l0,0c0.013,0,0.033,0.003,0.066,0.009c0.03,0.007,0.063,0.013,0.094,0.022l1.936,0.507
			v0.205v0.204l-2.461-0.736v-0.203v-0.207l1.903-0.608c0.033-0.011,0.065-0.019,0.096-0.027c0.03-0.007,0.054-0.011,0.065-0.011
			l0,0c-0.014,0-0.037-0.004-0.068-0.01s-0.061-0.016-0.093-0.025l-1.903-0.595v-0.206V208.928z"/>
		<path fill="#E4E4E4" stroke="#E4E4E4" stroke-width="0.25" stroke-miterlimit="10" d="M1175.12,212.125v0.164v0.164h-0.306
			c0.048,0.028,0.092,0.06,0.13,0.093c0.154,0.13,0.23,0.29,0.23,0.48c0,0.031-0.005,0.063-0.017,0.098h-0.307l0.002-0.071
			c0-0.187-0.049-0.329-0.147-0.432c-0.098-0.101-0.236-0.151-0.418-0.151h-0.959v-0.172v-0.173H1175.12z"/>
		<path fill="#E4E4E4" stroke="#E4E4E4" stroke-width="0.25" stroke-miterlimit="10" d="M1175.79,213.389v0.354h-0.342v-0.354
			H1175.79z M1175.12,213.394v0.171v0.172h-1.791v-0.172v-0.171H1175.12z"/>
		<path fill="#E4E4E4" stroke="#E4E4E4" stroke-width="0.25" stroke-miterlimit="10" d="M1173.331,215.002
			c-0.016-0.117-0.023-0.202-0.023-0.255c0-0.15,0.03-0.257,0.088-0.32c0.058-0.061,0.157-0.092,0.299-0.092h1.18v-0.282h0.246
			v0.282h0.503v0.345h-0.503v0.322h-0.246v-0.322h-1.18c-0.04,0-0.07,0.018-0.096,0.054c-0.022,0.036-0.035,0.084-0.035,0.146v0.122
			H1173.331z"/>
		<path fill="#E4E4E4" stroke="#E4E4E4" stroke-width="0.25" stroke-miterlimit="10" d="M1173.28,215.878
			c0-0.2,0.048-0.359,0.143-0.476c0.093-0.118,0.22-0.175,0.379-0.175c0.161,0,0.289,0.054,0.383,0.164
			c0.096,0.109,0.155,0.271,0.178,0.482l0.052,0.469c0.004,0.038,0.009,0.073,0.018,0.108c0.009,0.045,0.029,0.08,0.061,0.104
			c0.03,0.023,0.067,0.035,0.113,0.035h0.015c0.097,0,0.171-0.039,0.225-0.123c0.055-0.083,0.082-0.199,0.082-0.346
			c0-0.143-0.029-0.252-0.085-0.333c-0.06-0.078-0.146-0.127-0.259-0.144v-0.317c0.197,0.017,0.344,0.096,0.443,0.238
			c0.1,0.141,0.148,0.345,0.148,0.607c0,0.248-0.047,0.437-0.141,0.566c-0.096,0.131-0.233,0.195-0.414,0.195h-0.983
			c-0.03,0-0.056,0.012-0.073,0.032c-0.019,0.02-0.028,0.05-0.028,0.085c0,0.01,0.002,0.025,0.005,0.045
			c0.002,0.02,0.005,0.041,0.009,0.064h-0.218c-0.011-0.034-0.019-0.069-0.025-0.106c-0.008-0.036-0.011-0.068-0.011-0.093
			c0-0.131,0.03-0.226,0.094-0.282c0.041-0.039,0.1-0.066,0.175-0.084c-0.026-0.024-0.054-0.054-0.079-0.088
			C1173.349,216.337,1173.28,216.126,1173.28,215.878z M1174.039,216.59h0.193c-0.026-0.063-0.044-0.133-0.055-0.211l-0.04-0.314
			c-0.019-0.168-0.054-0.287-0.101-0.365c-0.047-0.075-0.112-0.113-0.192-0.113c-0.102,0-0.179,0.031-0.232,0.093
			c-0.056,0.063-0.082,0.151-0.082,0.267c0,0.181,0.043,0.333,0.129,0.459c0.061,0.084,0.128,0.142,0.205,0.169
			c0.014,0.005,0.036,0.01,0.068,0.012C1173.966,216.589,1174,216.59,1174.039,216.59z"/>
		<path fill="#E4E4E4" stroke="#E4E4E4" stroke-width="0.25" stroke-miterlimit="10" d="M1175.79,217.49v0.171v0.173h-0.901
			c0.192,0.15,0.287,0.345,0.286,0.582c0,0.268-0.081,0.481-0.242,0.636c-0.162,0.157-0.379,0.234-0.654,0.234
			c-0.311,0-0.556-0.079-0.732-0.235c-0.176-0.157-0.266-0.377-0.266-0.654c0-0.231,0.079-0.415,0.234-0.552l0.036-0.033h-0.222
			v-0.321H1175.79z M1173.542,218.378c0,0.181,0.06,0.317,0.178,0.41c0.12,0.093,0.292,0.139,0.521,0.139
			c0.225,0,0.391-0.045,0.498-0.134s0.161-0.227,0.161-0.413c0-0.189-0.06-0.327-0.183-0.415c-0.121-0.087-0.313-0.131-0.576-0.131
			c-0.192,0-0.339,0.047-0.442,0.141C1173.595,218.069,1173.542,218.203,1173.542,218.378z"/>
		<path fill="#E4E4E4" stroke="#E4E4E4" stroke-width="0.25" stroke-miterlimit="10" d="M1175.79,219.702v0.171v0.173h-2.461v-0.173
			v-0.171H1175.79z"/>
		<path fill="#E4E4E4" stroke="#E4E4E4" stroke-width="0.25" stroke-miterlimit="10" d="M1173.28,221.396
			c0-0.288,0.081-0.516,0.242-0.682c0.16-0.168,0.382-0.249,0.666-0.249c0.301,0,0.541,0.087,0.719,0.263
			c0.179,0.175,0.268,0.41,0.268,0.707c0,0.267-0.088,0.483-0.262,0.646c-0.174,0.164-0.402,0.248-0.687,0.248l-0.106-0.005v-1.494
			c-0.18,0.015-0.314,0.061-0.408,0.141c-0.114,0.096-0.17,0.248-0.17,0.459c0,0.131,0.031,0.244,0.096,0.343
			c0.064,0.098,0.146,0.157,0.248,0.18v0.341c-0.196-0.052-0.346-0.153-0.45-0.307
			C1173.333,221.834,1173.28,221.638,1173.28,221.396z M1174.362,221.972c0.166-0.011,0.296-0.058,0.389-0.143
			c0.103-0.093,0.155-0.229,0.155-0.408c0-0.182-0.061-0.325-0.179-0.435c-0.093-0.085-0.214-0.138-0.365-0.155V221.972z"/>
	</g>
	<rect x="1179.27" y="287.704" fill="#212227" width="9.656" height="21.146"/>
	
		<rect x="1179.27" y="287.704" fill="none" stroke="#1F2121" stroke-width="1.701" stroke-miterlimit="10" width="9.656" height="21.146"/>
	<path fill="#979797" d="M1178.118,281.02v-4.878c0-0.208,0.176-0.375,0.391-0.375h3.128c0.215,0,0.391,0.167,0.391,0.375v4.878
		c0,0.206-0.176,0.376-0.391,0.376h-3.128C1178.294,281.396,1178.118,281.226,1178.118,281.02"/>
	<path fill="none" stroke="#B6B5B5" stroke-miterlimit="10" d="M1178.118,281.02v-4.878c0-0.208,0.176-0.375,0.391-0.375h3.128
		c0.215,0,0.391,0.167,0.391,0.375v4.878c0,0.206-0.176,0.376-0.391,0.376h-3.128
		C1178.294,281.396,1178.118,281.226,1178.118,281.02z"/>
	<path fill="#3B3C3F" d="M1179.559,321.438c-0.665,0-1.205-0.517-1.205-1.155c0-0.638,0.54-1.155,1.205-1.155
		s1.203,0.518,1.203,1.155C1180.762,320.921,1180.224,321.438,1179.559,321.438"/>
	
		<ellipse fill="none" stroke="#1F2121" stroke-width="1.701" stroke-miterlimit="10" cx="1179.559" cy="320.282" rx="1.205" ry="1.155"/>
</g>
<rect x="525.123" y="439.546" fill="#555456" width="245.217" height="9.22"/>
<rect x="525.123" y="439.546" fill="#767777" width="245.217" height="3.144"/>
<g>
	<g>
		<rect x="879.91" y="21.716" fill="#222222" width="240.666" height="75.146"/>
		<g>
			<rect x="1082.41" y="21.716" fill="#545354" width="38" height="74.386"/>
			<rect x="1095.41" y="24.862" fill="#2B2E2E" width="17.666" height="19.243"/>
			<rect x="1095.41" y="48.565" fill="#2B2E2E" width="17.666" height="19.242"/>
			<rect x="1095.41" y="72.268" fill="#2B2E2E" width="17.666" height="19.242"/>
			<g>
				<g>
					<linearGradient id="SVGID_37_" gradientUnits="userSpaceOnUse" x1="886.4082" y1="40.083" x2="899.9082" y2="40.083">
						<stop  offset="0" style="stop-color:#A48B78"/>
						<stop  offset="1" style="stop-color:#2E0216"/>
					</linearGradient>
					<rect x="886.408" y="25.213" fill="url(#SVGID_37_)" width="13.5" height="29.74"/>
					<rect x="886.408" y="25.213" fill="#E8DCD2" width="2.5" height="29.74"/>
				</g>
				<rect x="899.908" y="27.639" fill="#101010" width="4.5" height="5.124"/>
				<rect x="899.908" y="49.829" fill="#101010" width="4.5" height="5.124"/>
				<g>
					<g>
						<rect x="899.908" y="26.354" fill="#949494" width="182.502" height="2.426"/>
					</g>
					<rect x="899.908" y="25.511" fill="#666565" width="182.502" height="0.843"/>
					<rect x="899.908" y="27.937" fill="#666565" width="182.502" height="0.843"/>
				</g>
				<g>
					<g>
						<rect x="899.908" y="52.526" fill="#949494" width="182.502" height="2.426"/>
					</g>
					<rect x="899.908" y="51.684" fill="#666565" width="182.502" height="0.843"/>
					<rect x="899.908" y="54.109" fill="#666565" width="182.502" height="0.843"/>
				</g>
				<path fill="#77777A" d="M914.16,53.814c0,0.63-0.448,1.139-1,1.139h-7.752c-0.552,0-1-0.509-1-1.139V26.354
					c0-0.63,0.448-1.139,1-1.139h7.752c0.552,0,1,0.509,1,1.139V53.814z"/>
				<path fill="#545354" d="M914.16,53.814c0,0.63-0.379,1.139-0.847,1.139h-6.559c-0.468,0-0.847-0.509-0.847-1.139V26.354
					c0-0.63,0.379-1.139,0.847-1.139h6.559c0.468,0,0.847,0.509,0.847,1.139V53.814z"/>
				<g>
					<rect x="914.16" y="32.763" fill="#545354" width="168.25" height="15.803"/>
					<rect x="899.908" y="31.624" fill="#545354" width="4.5" height="17.225"/>
				</g>
				<rect x="1050.41" y="32.763" fill="#2B2E2E" width="17.666" height="15.803"/>
				<path fill="#4E333A" d="M1053.41,47.711c0,0.629-0.559,1.138-1.248,1.138h-32.839c-0.688,0-1.247-0.509-1.247-1.138V33.902
					c0-0.629,0.559-1.138,1.247-1.138h32.839c0.689,0,1.248,0.509,1.248,1.138V47.711z"/>
				<path fill="#B6818C" d="M1048.076,47.711c0,0.629-0.447,1.138-1,1.138h-26.333c-0.552,0-1-0.509-1-1.138V33.902
					c0-0.629,0.448-1.138,1-1.138h26.333c0.553,0,1,0.509,1,1.138V47.711z"/>
			</g>
			<g>
				<g>
					<linearGradient id="SVGID_38_" gradientUnits="userSpaceOnUse" x1="886.4082" y1="76.9233" x2="899.9082" y2="76.9233">
						<stop  offset="0" style="stop-color:#A48B78"/>
						<stop  offset="1" style="stop-color:#2E0216"/>
					</linearGradient>
					<rect x="886.408" y="62.054" fill="url(#SVGID_38_)" width="13.5" height="29.739"/>
					<rect x="886.408" y="62.054" fill="#E8DCD2" width="2.5" height="29.739"/>
				</g>
				<rect x="899.908" y="64.479" fill="#101010" width="4.5" height="5.123"/>
				<rect x="899.908" y="86.67" fill="#101010" width="4.5" height="5.123"/>
				<g>
					<g>
						<rect x="899.908" y="63.193" fill="#949494" width="182.502" height="2.426"/>
					</g>
					<rect x="899.908" y="62.351" fill="#666565" width="182.502" height="0.843"/>
					<rect x="899.908" y="64.776" fill="#666565" width="182.502" height="0.843"/>
				</g>
				<g>
					<g>
						<rect x="899.908" y="89.366" fill="#949494" width="182.502" height="2.426"/>
					</g>
					<rect x="899.908" y="88.523" fill="#666565" width="182.502" height="0.843"/>
					<rect x="899.908" y="90.949" fill="#666565" width="182.502" height="0.843"/>
				</g>
				<path fill="#77777A" d="M914.16,90.654c0,0.631-0.448,1.139-1,1.139h-7.752c-0.552,0-1-0.508-1-1.139V63.193
					c0-0.63,0.448-1.139,1-1.139h7.752c0.552,0,1,0.509,1,1.139V90.654z"/>
				<path fill="#545354" d="M914.16,90.654c0,0.631-0.379,1.139-0.847,1.139h-6.559c-0.468,0-0.847-0.508-0.847-1.139V63.193
					c0-0.63,0.379-1.139,0.847-1.139h6.559c0.468,0,0.847,0.509,0.847,1.139V90.654z"/>
				<g>
					<rect x="914.16" y="69.603" fill="#545354" width="168.25" height="15.804"/>
					<rect x="899.908" y="68.464" fill="#545354" width="4.5" height="17.226"/>
				</g>
				<rect x="1050.41" y="69.603" fill="#2B2E2E" width="17.666" height="15.804"/>
				<path fill="#4E333A" d="M1053.41,84.551c0,0.63-0.559,1.139-1.248,1.139h-32.839c-0.688,0-1.247-0.509-1.247-1.139V70.743
					c0-0.629,0.559-1.139,1.247-1.139h32.839c0.689,0,1.248,0.51,1.248,1.139V84.551z"/>
				<path fill="#B6818C" d="M1048.076,84.551c0,0.63-0.447,1.139-1,1.139h-26.333c-0.552,0-1-0.509-1-1.139V70.743
					c0-0.629,0.448-1.139,1-1.139h26.333c0.553,0,1,0.51,1,1.139V84.551z"/>
			</g>
		</g>
	</g>
	<g>
		<rect x="737.536" y="23.742" fill="#272828" width="14.581" height="18.948"/>
		<rect x="737.536" y="48.284" fill="#272828" width="14.581" height="18.948"/>
		<rect x="737.536" y="72.826" fill="#272828" width="14.581" height="18.948"/>
	</g>
	<g>
		<rect x="756.988" y="23.741" fill="#272828" width="14.58" height="18.948"/>
		<rect x="756.988" y="48.283" fill="#272828" width="14.58" height="18.948"/>
		<rect x="756.988" y="72.825" fill="#272828" width="14.58" height="18.948"/>
	</g>
	<g>
		<rect x="776.439" y="23.74" fill="#272828" width="14.581" height="18.948"/>
		<rect x="776.439" y="48.282" fill="#272828" width="14.581" height="18.948"/>
		<rect x="776.439" y="72.824" fill="#272828" width="14.581" height="18.948"/>
	</g>
	<g>
		<rect x="795.891" y="23.739" fill="#272828" width="14.581" height="18.948"/>
		<rect x="795.891" y="48.281" fill="#272828" width="14.581" height="18.948"/>
		<rect x="795.891" y="72.823" fill="#272828" width="14.581" height="18.948"/>
	</g>
	<g>
		<rect x="815.342" y="23.738" fill="#272828" width="14.581" height="18.948"/>
		<rect x="815.342" y="48.28" fill="#272828" width="14.581" height="18.948"/>
		<rect x="815.342" y="72.822" fill="#272828" width="14.581" height="18.948"/>
	</g>
	<g>
		<rect x="834.793" y="23.737" fill="#272828" width="14.582" height="18.948"/>
		<rect x="834.793" y="48.279" fill="#272828" width="14.582" height="18.948"/>
		<rect x="834.793" y="72.821" fill="#272828" width="14.582" height="18.948"/>
	</g>
	<g>
		<rect x="854.245" y="23.736" fill="#272828" width="14.581" height="18.948"/>
		<rect x="854.245" y="48.278" fill="#272828" width="14.581" height="18.948"/>
		<rect x="854.245" y="72.82" fill="#272828" width="14.581" height="18.948"/>
	</g>
</g>
<g>
	<g>
		<rect x="878.768" y="128.812" fill="#222222" width="240.666" height="75.146"/>
		<g>
			<rect x="1081.268" y="128.812" fill="#545354" width="38" height="74.386"/>
			<rect x="1094.268" y="131.959" fill="#2B2E2E" width="17.666" height="19.243"/>
			<rect x="1094.268" y="155.661" fill="#2B2E2E" width="17.666" height="19.243"/>
			<rect x="1094.268" y="179.363" fill="#2B2E2E" width="17.666" height="19.243"/>
			<g>
				<g>
					<linearGradient id="SVGID_39_" gradientUnits="userSpaceOnUse" x1="885.2656" y1="147.1797" x2="898.7656" y2="147.1797">
						<stop  offset="0" style="stop-color:#A48B78"/>
						<stop  offset="1" style="stop-color:#2E0216"/>
					</linearGradient>
					<rect x="885.266" y="132.31" fill="url(#SVGID_39_)" width="13.5" height="29.74"/>
					<rect x="885.266" y="132.31" fill="#E8DCD2" width="2.5" height="29.74"/>
				</g>
				<rect x="898.766" y="134.735" fill="#101010" width="4.5" height="5.124"/>
				<rect x="898.766" y="156.926" fill="#101010" width="4.5" height="5.124"/>
				<g>
					<g>
						<rect x="898.766" y="133.449" fill="#949494" width="182.502" height="2.427"/>
					</g>
					<rect x="898.766" y="132.606" fill="#666565" width="182.502" height="0.843"/>
					<rect x="898.766" y="135.033" fill="#666565" width="182.502" height="0.843"/>
				</g>
				<g>
					<g>
						<rect x="898.766" y="159.622" fill="#949494" width="182.502" height="2.427"/>
					</g>
					<rect x="898.766" y="158.78" fill="#666565" width="182.502" height="0.842"/>
					<rect x="898.766" y="161.206" fill="#666565" width="182.502" height="0.843"/>
				</g>
				<path fill="#77777A" d="M913.018,160.911c0,0.629-0.448,1.139-1,1.139h-7.752c-0.552,0-1-0.51-1-1.139v-27.462
					c0-0.63,0.448-1.138,1-1.138h7.752c0.552,0,1,0.508,1,1.138V160.911z"/>
				<path fill="#545354" d="M913.018,160.911c0,0.629-0.379,1.139-0.847,1.139h-6.559c-0.468,0-0.847-0.51-0.847-1.139v-27.462
					c0-0.63,0.379-1.138,0.847-1.138h6.559c0.468,0,0.847,0.508,0.847,1.138V160.911z"/>
				<g>
					<rect x="913.018" y="139.859" fill="#545354" width="168.25" height="15.802"/>
					<rect x="898.766" y="138.72" fill="#545354" width="4.5" height="17.226"/>
				</g>
				<rect x="1049.268" y="139.859" fill="#2B2E2E" width="17.666" height="15.802"/>
				<path fill="#4E333A" d="M1052.268,154.807c0,0.629-0.559,1.139-1.248,1.139h-32.839c-0.688,0-1.247-0.51-1.247-1.139v-13.808
					c0-0.629,0.559-1.139,1.247-1.139h32.839c0.689,0,1.248,0.51,1.248,1.139V154.807z"/>
				<path fill="#B6818C" d="M1046.934,154.807c0,0.629-0.447,1.139-1,1.139h-26.333c-0.552,0-1-0.51-1-1.139v-13.808
					c0-0.629,0.448-1.139,1-1.139h26.333c0.553,0,1,0.51,1,1.139V154.807z"/>
			</g>
			<g>
				<g>
					<linearGradient id="SVGID_40_" gradientUnits="userSpaceOnUse" x1="885.2656" y1="184.0195" x2="898.7656" y2="184.0195">
						<stop  offset="0" style="stop-color:#A48B78"/>
						<stop  offset="1" style="stop-color:#2E0216"/>
					</linearGradient>
					<rect x="885.266" y="169.149" fill="url(#SVGID_40_)" width="13.5" height="29.74"/>
					<rect x="885.266" y="169.149" fill="#E8DCD2" width="2.5" height="29.74"/>
				</g>
				<rect x="898.766" y="171.576" fill="#101010" width="4.5" height="5.123"/>
				<rect x="898.766" y="193.766" fill="#101010" width="4.5" height="5.124"/>
				<g>
					<g>
						<rect x="898.766" y="170.289" fill="#949494" width="182.502" height="2.427"/>
					</g>
					<rect x="898.766" y="169.446" fill="#666565" width="182.502" height="0.843"/>
					<rect x="898.766" y="171.873" fill="#666565" width="182.502" height="0.843"/>
				</g>
				<g>
					<g>
						<rect x="898.766" y="196.462" fill="#949494" width="182.502" height="2.427"/>
					</g>
					<rect x="898.766" y="195.619" fill="#666565" width="182.502" height="0.843"/>
					<rect x="898.766" y="198.046" fill="#666565" width="182.502" height="0.843"/>
				</g>
				<path fill="#77777A" d="M913.018,197.751c0,0.63-0.448,1.139-1,1.139h-7.752c-0.552,0-1-0.509-1-1.139v-27.462
					c0-0.629,0.448-1.139,1-1.139h7.752c0.552,0,1,0.51,1,1.139V197.751z"/>
				<path fill="#545354" d="M913.018,197.751c0,0.63-0.379,1.139-0.847,1.139h-6.559c-0.468,0-0.847-0.509-0.847-1.139v-27.462
					c0-0.629,0.379-1.139,0.847-1.139h6.559c0.468,0,0.847,0.51,0.847,1.139V197.751z"/>
				<g>
					<rect x="913.018" y="176.699" fill="#545354" width="168.25" height="15.803"/>
					<rect x="898.766" y="175.56" fill="#545354" width="4.5" height="17.227"/>
				</g>
				<rect x="1049.268" y="176.699" fill="#2B2E2E" width="17.666" height="15.803"/>
				<path fill="#4E333A" d="M1052.268,191.646c0,0.63-0.559,1.14-1.248,1.14h-32.839c-0.688,0-1.247-0.51-1.247-1.14V177.84
					c0-0.629,0.559-1.139,1.247-1.139h32.839c0.689,0,1.248,0.51,1.248,1.139V191.646z"/>
				<path fill="#B6818C" d="M1046.934,191.646c0,0.63-0.447,1.14-1,1.14h-26.333c-0.552,0-1-0.51-1-1.14V177.84
					c0-0.629,0.448-1.139,1-1.139h26.333c0.553,0,1,0.51,1,1.139V191.646z"/>
			</g>
		</g>
	</g>
	<g>
		<rect x="736.394" y="130.839" fill="#272828" width="14.581" height="18.947"/>
		<rect x="736.394" y="155.381" fill="#272828" width="14.581" height="18.947"/>
		<rect x="736.394" y="179.923" fill="#272828" width="14.581" height="18.947"/>
	</g>
	<g>
		<rect x="755.846" y="130.838" fill="#272828" width="14.58" height="18.947"/>
		<rect x="755.846" y="155.38" fill="#272828" width="14.58" height="18.947"/>
		<rect x="755.846" y="179.922" fill="#272828" width="14.58" height="18.947"/>
	</g>
	<g>
		<rect x="775.297" y="130.837" fill="#272828" width="14.58" height="18.947"/>
		<rect x="775.297" y="155.379" fill="#272828" width="14.58" height="18.947"/>
		<rect x="775.297" y="179.921" fill="#272828" width="14.58" height="18.947"/>
	</g>
	<g>
		<rect x="794.748" y="130.835" fill="#272828" width="14.581" height="18.948"/>
		<rect x="794.748" y="155.378" fill="#272828" width="14.581" height="18.947"/>
		<rect x="794.748" y="179.92" fill="#272828" width="14.581" height="18.947"/>
	</g>
	<g>
		<rect x="814.199" y="130.834" fill="#272828" width="14.581" height="18.948"/>
		<rect x="814.199" y="155.377" fill="#272828" width="14.581" height="18.947"/>
		<rect x="814.199" y="179.919" fill="#272828" width="14.581" height="18.947"/>
	</g>
	<g>
		<rect x="833.65" y="130.833" fill="#272828" width="14.582" height="18.948"/>
		<rect x="833.65" y="155.376" fill="#272828" width="14.582" height="18.947"/>
		<rect x="833.65" y="179.918" fill="#272828" width="14.582" height="18.947"/>
	</g>
	<g>
		<rect x="853.102" y="130.832" fill="#272828" width="14.582" height="18.948"/>
		<rect x="853.102" y="155.375" fill="#272828" width="14.582" height="18.947"/>
		<rect x="853.102" y="179.917" fill="#272828" width="14.582" height="18.947"/>
	</g>
</g>
<g>
	<g>
		<rect x="877.625" y="235.908" fill="#222222" width="240.666" height="75.146"/>
		<g>
			<rect x="1080.125" y="235.908" fill="#545354" width="38" height="74.386"/>
			<rect x="1093.125" y="239.056" fill="#2B2E2E" width="17.666" height="19.242"/>
			<rect x="1093.125" y="262.758" fill="#2B2E2E" width="17.666" height="19.242"/>
			<rect x="1093.125" y="286.46" fill="#2B2E2E" width="17.666" height="19.243"/>
			<g>
				<g>
					<linearGradient id="SVGID_41_" gradientUnits="userSpaceOnUse" x1="884.123" y1="254.2754" x2="897.623" y2="254.2754">
						<stop  offset="0" style="stop-color:#A48B78"/>
						<stop  offset="1" style="stop-color:#2E0216"/>
					</linearGradient>
					<rect x="884.123" y="239.405" fill="url(#SVGID_41_)" width="13.5" height="29.74"/>
					<rect x="884.123" y="239.405" fill="#E8DCD2" width="2.5" height="29.74"/>
				</g>
				<rect x="897.623" y="241.831" fill="#101010" width="4.5" height="5.125"/>
				<rect x="897.623" y="264.021" fill="#101010" width="4.5" height="5.124"/>
				<g>
					<g>
						<rect x="897.623" y="240.546" fill="#949494" width="182.502" height="2.426"/>
					</g>
					<rect x="897.623" y="239.703" fill="#666565" width="182.502" height="0.843"/>
					<rect x="897.623" y="242.129" fill="#666565" width="182.502" height="0.843"/>
				</g>
				<g>
					<g>
						<rect x="897.623" y="266.719" fill="#949494" width="182.502" height="2.426"/>
					</g>
					<rect x="897.623" y="265.876" fill="#666565" width="182.502" height="0.843"/>
					<rect x="897.623" y="268.302" fill="#666565" width="182.502" height="0.843"/>
				</g>
				<path fill="#77777A" d="M911.875,268.008c0,0.629-0.448,1.138-1,1.138h-7.752c-0.553,0-1-0.509-1-1.138v-27.462
					c0-0.63,0.447-1.139,1-1.139h7.752c0.552,0,1,0.509,1,1.139V268.008z"/>
				<path fill="#545354" d="M911.875,268.008c0,0.629-0.379,1.138-0.847,1.138h-6.56c-0.467,0-0.846-0.509-0.846-1.138v-27.462
					c0-0.63,0.379-1.139,0.846-1.139h6.56c0.468,0,0.847,0.509,0.847,1.139V268.008z"/>
				<g>
					<rect x="911.875" y="246.956" fill="#545354" width="168.25" height="15.802"/>
					<rect x="897.623" y="245.816" fill="#545354" width="4.5" height="17.225"/>
				</g>
				<rect x="1048.125" y="246.956" fill="#2B2E2E" width="17.666" height="15.802"/>
				<path fill="#4E333A" d="M1051.125,261.903c0,0.629-0.559,1.138-1.248,1.138h-32.839c-0.688,0-1.247-0.509-1.247-1.138v-13.809
					c0-0.629,0.559-1.138,1.247-1.138h32.839c0.689,0,1.248,0.509,1.248,1.138V261.903z"/>
				<path fill="#B6818C" d="M1045.791,261.903c0,0.629-0.447,1.138-1,1.138h-26.333c-0.553,0-1-0.509-1-1.138v-13.809
					c0-0.629,0.447-1.138,1-1.138h26.333c0.553,0,1,0.509,1,1.138V261.903z"/>
			</g>
			<g>
				<g>
					<linearGradient id="SVGID_42_" gradientUnits="userSpaceOnUse" x1="884.123" y1="291.1152" x2="897.623" y2="291.1152">
						<stop  offset="0" style="stop-color:#A48B78"/>
						<stop  offset="1" style="stop-color:#2E0216"/>
					</linearGradient>
					<rect x="884.123" y="276.246" fill="url(#SVGID_42_)" width="13.5" height="29.739"/>
					<rect x="884.123" y="276.246" fill="#E8DCD2" width="2.5" height="29.739"/>
				</g>
				<rect x="897.623" y="278.672" fill="#101010" width="4.5" height="5.124"/>
				<rect x="897.623" y="300.862" fill="#101010" width="4.5" height="5.123"/>
				<g>
					<g>
						<rect x="897.623" y="277.386" fill="#949494" width="182.502" height="2.426"/>
					</g>
					<rect x="897.623" y="276.543" fill="#666565" width="182.502" height="0.843"/>
					<rect x="897.623" y="278.969" fill="#666565" width="182.502" height="0.843"/>
				</g>
				<g>
					<g>
						<rect x="897.623" y="303.559" fill="#949494" width="182.502" height="2.426"/>
					</g>
					<rect x="897.623" y="302.716" fill="#666565" width="182.502" height="0.843"/>
					<rect x="897.623" y="305.142" fill="#666565" width="182.502" height="0.843"/>
				</g>
				<path fill="#77777A" d="M911.875,304.848c0,0.63-0.448,1.138-1,1.138h-7.752c-0.553,0-1-0.508-1-1.138v-27.462
					c0-0.629,0.447-1.139,1-1.139h7.752c0.552,0,1,0.51,1,1.139V304.848z"/>
				<path fill="#545354" d="M911.875,304.848c0,0.63-0.379,1.138-0.847,1.138h-6.56c-0.467,0-0.846-0.508-0.846-1.138v-27.462
					c0-0.629,0.379-1.139,0.846-1.139h6.56c0.468,0,0.847,0.51,0.847,1.139V304.848z"/>
				<g>
					<rect x="911.875" y="283.796" fill="#545354" width="168.25" height="15.803"/>
					<rect x="897.623" y="282.656" fill="#545354" width="4.5" height="17.226"/>
				</g>
				<rect x="1048.125" y="283.796" fill="#2B2E2E" width="17.666" height="15.803"/>
				<path fill="#4E333A" d="M1051.125,298.743c0,0.63-0.559,1.139-1.248,1.139h-32.839c-0.688,0-1.247-0.509-1.247-1.139v-13.808
					c0-0.629,0.559-1.138,1.247-1.138h32.839c0.689,0,1.248,0.509,1.248,1.138V298.743z"/>
				<path fill="#B6818C" d="M1045.791,298.743c0,0.63-0.447,1.139-1,1.139h-26.333c-0.553,0-1-0.509-1-1.139v-13.808
					c0-0.629,0.447-1.138,1-1.138h26.333c0.553,0,1,0.509,1,1.138V298.743z"/>
			</g>
		</g>
	</g>
	<g>
		<rect x="735.251" y="237.935" fill="#272828" width="14.581" height="18.948"/>
		<rect x="735.251" y="262.477" fill="#272828" width="14.581" height="18.948"/>
		<rect x="735.251" y="287.019" fill="#272828" width="14.581" height="18.948"/>
	</g>
	<g>
		<rect x="754.702" y="237.934" fill="#272828" width="14.581" height="18.948"/>
		<rect x="754.702" y="262.476" fill="#272828" width="14.581" height="18.948"/>
		<rect x="754.702" y="287.018" fill="#272828" width="14.581" height="18.948"/>
	</g>
	<g>
		<rect x="774.154" y="237.933" fill="#272828" width="14.58" height="18.948"/>
		<rect x="774.154" y="262.475" fill="#272828" width="14.58" height="18.948"/>
		<rect x="774.154" y="287.017" fill="#272828" width="14.58" height="18.948"/>
	</g>
	<g>
		<rect x="793.605" y="237.932" fill="#272828" width="14.581" height="18.948"/>
		<rect x="793.605" y="262.474" fill="#272828" width="14.581" height="18.948"/>
		<rect x="793.605" y="287.016" fill="#272828" width="14.581" height="18.948"/>
	</g>
	<g>
		<rect x="813.057" y="237.931" fill="#272828" width="14.581" height="18.948"/>
		<rect x="813.057" y="262.473" fill="#272828" width="14.581" height="18.948"/>
		<rect x="813.057" y="287.015" fill="#272828" width="14.581" height="18.948"/>
	</g>
	<g>
		<rect x="832.508" y="237.93" fill="#272828" width="14.581" height="18.948"/>
		<rect x="832.508" y="262.472" fill="#272828" width="14.581" height="18.948"/>
		<rect x="832.508" y="287.014" fill="#272828" width="14.581" height="18.948"/>
	</g>
	<g>
		<rect x="851.959" y="237.929" fill="#272828" width="14.582" height="18.948"/>
		<rect x="851.959" y="262.471" fill="#272828" width="14.582" height="18.948"/>
		<rect x="851.959" y="287.013" fill="#272828" width="14.582" height="18.948"/>
	</g>
</g>
<g>
	<g>
		<rect x="876.481" y="343.005" fill="#222222" width="240.667" height="75.146"/>
		<g>
			<rect x="1078.981" y="343.005" fill="#545354" width="38" height="74.386"/>
			<rect x="1091.981" y="346.151" fill="#2B2E2E" width="17.667" height="19.243"/>
			<rect x="1091.981" y="369.854" fill="#2B2E2E" width="17.667" height="19.243"/>
			<rect x="1091.981" y="393.557" fill="#2B2E2E" width="17.667" height="19.242"/>
			<g>
				<g>
					<linearGradient id="SVGID_43_" gradientUnits="userSpaceOnUse" x1="882.9805" y1="361.3721" x2="896.4805" y2="361.3721">
						<stop  offset="0" style="stop-color:#A48B78"/>
						<stop  offset="1" style="stop-color:#2E0216"/>
					</linearGradient>
					<rect x="882.98" y="346.502" fill="url(#SVGID_43_)" width="13.5" height="29.74"/>
					<rect x="882.98" y="346.502" fill="#E8DCD2" width="2.5" height="29.74"/>
				</g>
				<rect x="896.48" y="348.928" fill="#101010" width="4.5" height="5.124"/>
				<rect x="896.48" y="371.118" fill="#101010" width="4.5" height="5.124"/>
				<g>
					<g>
						<rect x="896.48" y="347.642" fill="#949494" width="182.501" height="2.427"/>
					</g>
					<rect x="896.48" y="346.8" fill="#666565" width="182.501" height="0.842"/>
					<rect x="896.48" y="349.226" fill="#666565" width="182.501" height="0.843"/>
				</g>
				<g>
					<g>
						<rect x="896.48" y="373.815" fill="#949494" width="182.501" height="2.426"/>
					</g>
					<rect x="896.48" y="372.973" fill="#666565" width="182.501" height="0.843"/>
					<rect x="896.48" y="375.398" fill="#666565" width="182.501" height="0.843"/>
				</g>
				<path fill="#77777A" d="M910.731,375.104c0,0.629-0.447,1.139-1,1.139h-7.751c-0.553,0-1-0.51-1-1.139v-27.462
					c0-0.63,0.447-1.138,1-1.138h7.751c0.553,0,1,0.508,1,1.138V375.104z"/>
				<path fill="#545354" d="M910.731,375.104c0,0.629-0.379,1.139-0.846,1.139h-6.56c-0.467,0-0.846-0.51-0.846-1.139v-27.462
					c0-0.63,0.379-1.138,0.846-1.138h6.56c0.467,0,0.846,0.508,0.846,1.138V375.104z"/>
				<g>
					<rect x="910.731" y="354.052" fill="#545354" width="168.25" height="15.802"/>
					<rect x="896.48" y="352.913" fill="#545354" width="4.5" height="17.225"/>
				</g>
				<rect x="1046.981" y="354.052" fill="#2B2E2E" width="17.667" height="15.802"/>
				<path fill="#4E333A" d="M1049.981,368.999c0,0.629-0.558,1.139-1.247,1.139h-32.839c-0.688,0-1.247-0.51-1.247-1.139v-13.808
					c0-0.629,0.559-1.139,1.247-1.139h32.839c0.689,0,1.247,0.51,1.247,1.139V368.999z"/>
				<path fill="#B6818C" d="M1044.648,368.999c0,0.629-0.447,1.139-1,1.139h-26.334c-0.552,0-1-0.51-1-1.139v-13.808
					c0-0.629,0.448-1.139,1-1.139h26.334c0.553,0,1,0.51,1,1.139V368.999z"/>
			</g>
			<g>
				<g>
					<linearGradient id="SVGID_44_" gradientUnits="userSpaceOnUse" x1="882.9805" y1="398.2129" x2="896.4805" y2="398.2129">
						<stop  offset="0" style="stop-color:#A48B78"/>
						<stop  offset="1" style="stop-color:#2E0216"/>
					</linearGradient>
					<rect x="882.98" y="383.343" fill="url(#SVGID_44_)" width="13.5" height="29.739"/>
					<rect x="882.98" y="383.343" fill="#E8DCD2" width="2.5" height="29.739"/>
				</g>
				<rect x="896.48" y="385.769" fill="#101010" width="4.5" height="5.123"/>
				<rect x="896.48" y="407.959" fill="#101010" width="4.5" height="5.123"/>
				<g>
					<g>
						<rect x="896.48" y="384.481" fill="#949494" width="182.501" height="2.427"/>
					</g>
					<rect x="896.48" y="383.639" fill="#666565" width="182.501" height="0.843"/>
					<rect x="896.48" y="386.065" fill="#666565" width="182.501" height="0.843"/>
				</g>
				<g>
					<g>
						<rect x="896.48" y="410.654" fill="#949494" width="182.501" height="2.427"/>
					</g>
					<rect x="896.48" y="409.813" fill="#666565" width="182.501" height="0.842"/>
					<rect x="896.48" y="412.238" fill="#666565" width="182.501" height="0.843"/>
				</g>
				<path fill="#77777A" d="M910.731,411.943c0,0.63-0.447,1.139-1,1.139h-7.751c-0.553,0-1-0.509-1-1.139v-27.462
					c0-0.629,0.447-1.138,1-1.138h7.751c0.553,0,1,0.509,1,1.138V411.943z"/>
				<path fill="#545354" d="M910.731,411.943c0,0.63-0.379,1.139-0.846,1.139h-6.56c-0.467,0-0.846-0.509-0.846-1.139v-27.462
					c0-0.629,0.379-1.138,0.846-1.138h6.56c0.467,0,0.846,0.509,0.846,1.138V411.943z"/>
				<g>
					<rect x="910.731" y="390.892" fill="#545354" width="168.25" height="15.803"/>
					<rect x="896.48" y="389.752" fill="#545354" width="4.5" height="17.227"/>
				</g>
				<rect x="1046.981" y="390.892" fill="#2B2E2E" width="17.667" height="15.803"/>
				<path fill="#4E333A" d="M1049.981,405.839c0,0.63-0.558,1.14-1.247,1.14h-32.839c-0.688,0-1.247-0.51-1.247-1.14v-13.807
					c0-0.629,0.559-1.139,1.247-1.139h32.839c0.689,0,1.247,0.51,1.247,1.139V405.839z"/>
				<path fill="#B6818C" d="M1044.648,405.839c0,0.63-0.447,1.14-1,1.14h-26.334c-0.552,0-1-0.51-1-1.14v-13.807
					c0-0.629,0.448-1.139,1-1.139h26.334c0.553,0,1,0.51,1,1.139V405.839z"/>
			</g>
		</g>
	</g>
	<g>
		<rect x="734.108" y="345.031" fill="#272828" width="14.581" height="18.947"/>
		<rect x="734.108" y="369.573" fill="#272828" width="14.581" height="18.948"/>
		<rect x="734.108" y="394.115" fill="#272828" width="14.581" height="18.948"/>
	</g>
	<g>
		<rect x="753.56" y="345.03" fill="#272828" width="14.581" height="18.947"/>
		<rect x="753.56" y="369.572" fill="#272828" width="14.581" height="18.948"/>
		<rect x="753.56" y="394.114" fill="#272828" width="14.581" height="18.948"/>
	</g>
	<g>
		<rect x="773.012" y="345.029" fill="#272828" width="14.58" height="18.947"/>
		<rect x="773.012" y="369.571" fill="#272828" width="14.58" height="18.948"/>
		<rect x="773.012" y="394.113" fill="#272828" width="14.58" height="18.948"/>
	</g>
	<g>
		<rect x="792.463" y="345.028" fill="#272828" width="14.58" height="18.947"/>
		<rect x="792.463" y="369.57" fill="#272828" width="14.58" height="18.948"/>
		<rect x="792.463" y="394.112" fill="#272828" width="14.58" height="18.948"/>
	</g>
	<g>
		<rect x="811.914" y="345.027" fill="#272828" width="14.581" height="18.947"/>
		<rect x="811.914" y="369.569" fill="#272828" width="14.581" height="18.947"/>
		<rect x="811.914" y="394.111" fill="#272828" width="14.581" height="18.948"/>
	</g>
	<g>
		<rect x="831.365" y="345.026" fill="#272828" width="14.581" height="18.947"/>
		<rect x="831.365" y="369.568" fill="#272828" width="14.581" height="18.947"/>
		<rect x="831.365" y="394.11" fill="#272828" width="14.581" height="18.948"/>
	</g>
	<g>
		<rect x="850.816" y="345.025" fill="#272828" width="14.582" height="18.947"/>
		<rect x="850.816" y="369.567" fill="#272828" width="14.582" height="18.947"/>
		<rect x="850.816" y="394.109" fill="#272828" width="14.582" height="18.948"/>
	</g>
</g>
<g>
	<rect x="525.123" y="341.858" fill="#555456" width="245.217" height="161.46"/>
	<rect x="536.145" y="347.354" fill="#6B6A6F" width="222.384" height="155.964"/>
</g>
</svg>
