<?xml version="1.0" encoding="utf-8"?>
<!-- Generator: Adobe Illustrator 16.0.0, SVG Export Plug-In . SVG Version: 6.00 Build 0)  -->
<!DOCTYPE svg PUBLIC "-//W3C//DTD SVG 1.1//EN" "http://www.w3.org/Graphics/SVG/1.1/DTD/svg11.dtd">
<svg version="1.1" id="图层_1" xmlns="http://www.w3.org/2000/svg" xmlns:xlink="http://www.w3.org/1999/xlink" x="0px" y="0px"
	 width="1077.17px" height="504.57px" viewBox="0 0 1077.17 504.57" enable-background="new 0 0 1077.17 504.57"
	 xml:space="preserve">
<rect x="0.001" y="0.001" fill="#2C2D2D" width="1077.167" height="504.568"/>
<linearGradient id="SVGID_1_" gradientUnits="userSpaceOnUse" x1="533.1191" y1="479.3965" x2="533.1191" y2="58.0747">
	<stop  offset="0.1022" style="stop-color:#B1B4B5"/>
	<stop  offset="0.7151" style="stop-color:#B1B4B5"/>
	<stop  offset="1" style="stop-color:#AAA9A9"/>
</linearGradient>
<rect x="16.365" y="58.074" fill="url(#SVGID_1_)" width="1033.508" height="421.322"/>
<linearGradient id="SVGID_2_" gradientUnits="userSpaceOnUse" x1="3989.7461" y1="478.9092" x2="3989.7461" y2="468.5967" gradientTransform="matrix(0 1 -1 0 1195.1172 -3663.8164)">
	<stop  offset="0" style="stop-color:#717071"/>
	<stop  offset="0.0126" style="stop-color:#F7F7F7"/>
	<stop  offset="0.2312" style="stop-color:#C8C9CA"/>
	<stop  offset="0.475" style="stop-color:#F7F7F7"/>
	<stop  offset="0.6935" style="stop-color:#C8C9CA"/>
	<stop  offset="0.9871" style="stop-color:#EEEEEF"/>
	<stop  offset="1" style="stop-color:#717071"/>
</linearGradient>
<path fill="url(#SVGID_2_)" stroke="#323333" stroke-miterlimit="10" d="M721.365,466.603c-2.85,0-5.158-3.471-5.158-7.746V193.005
	c0-4.279,2.309-7.746,5.158-7.746l0,0c2.846,0,5.154,3.467,5.154,7.746v265.852C726.52,463.132,724.211,466.603,721.365,466.603
	L721.365,466.603z"/>
<linearGradient id="SVGID_3_" gradientUnits="userSpaceOnUse" x1="737.5215" y1="333.0498" x2="769.5684" y2="333.0498">
	<stop  offset="0" style="stop-color:#BEBDBE"/>
	<stop  offset="0.2151" style="stop-color:#E0E0DF"/>
	<stop  offset="0.5323" style="stop-color:#C1C0C0"/>
	<stop  offset="0.8065" style="stop-color:#E0E0DF"/>
	<stop  offset="0.9871" style="stop-color:#B1B4B5"/>
</linearGradient>
<path fill="url(#SVGID_3_)" stroke="#504F4F" stroke-miterlimit="10" d="M769.568,449.873c0,8.85-7.174,16.023-16.023,16.023l0,0
	c-8.85,0-16.023-7.174-16.023-16.023V216.227c0-8.85,7.174-16.023,16.023-16.023l0,0c8.85,0,16.023,7.174,16.023,16.023V449.873z"/>
<linearGradient id="SVGID_4_" gradientUnits="userSpaceOnUse" x1="777.6719" y1="307.627" x2="826.8633" y2="307.627">
	<stop  offset="0" style="stop-color:#BEBDBE"/>
	<stop  offset="0.2151" style="stop-color:#E0E0DF"/>
	<stop  offset="0.5323" style="stop-color:#C1C0C0"/>
	<stop  offset="0.8065" style="stop-color:#E0E0DF"/>
	<stop  offset="0.9871" style="stop-color:#B1B4B5"/>
</linearGradient>
<path fill="url(#SVGID_4_)" stroke="#504F4F" stroke-miterlimit="10" d="M826.863,453.396c0,6.627-5.371,12-12,12h-25.191
	c-6.627,0-12-5.373-12-12V161.858c0-6.627,5.373-12,12-12h25.191c6.629,0,12,5.373,12,12V453.396z"/>
<linearGradient id="SVGID_5_" gradientUnits="userSpaceOnUse" x1="895.3633" y1="307.627" x2="962.3789" y2="307.627">
	<stop  offset="0" style="stop-color:#BEBDBE"/>
	<stop  offset="0.2151" style="stop-color:#E0E0DF"/>
	<stop  offset="0.5323" style="stop-color:#C1C0C0"/>
	<stop  offset="0.8065" style="stop-color:#E0E0DF"/>
	<stop  offset="0.9871" style="stop-color:#B1B4B5"/>
</linearGradient>
<path fill="url(#SVGID_5_)" stroke="#504F4F" stroke-miterlimit="10" d="M962.379,453.396c0,6.627-7.32,12-16.348,12h-34.32
	c-9.027,0-16.348-5.373-16.348-12V161.858c0-6.627,7.32-12,16.348-12h34.32c9.027,0,16.348,5.373,16.348,12V453.396z"/>
<g>
	<rect x="836.557" y="198.789" fill="#A9A9A9" stroke="#5F5F5F" stroke-miterlimit="10" width="42.395" height="236.345"/>
	<g>
		<path fill="#181818" d="M843.117,463.894c-2.689,0-4.869-1.492-4.869-3.33v-20.535c0-1.838,2.18-3.329,4.869-3.329h29.268
			c2.689,0,4.865,1.491,4.865,3.329v20.535c0,1.838-2.176,3.33-4.865,3.33H843.117z"/>
		
			<linearGradient id="SVGID_6_" gradientUnits="userSpaceOnUse" x1="3507.5078" y1="-13320.7666" x2="3532.2959" y2="-13320.7666" gradientTransform="matrix(0 1 -1 0 -12463.0176 -3068.4961)">
			<stop  offset="0" style="stop-color:#515150"/>
			<stop  offset="0.7151" style="stop-color:#B1B4B5"/>
			<stop  offset="1" style="stop-color:#AAA9A9"/>
		</linearGradient>
		<path fill="url(#SVGID_6_)" d="M844.41,463.8c-2.449,0-4.438-1.359-4.438-3.034v-18.718c0-1.676,1.988-3.036,4.438-3.036h26.68
			c2.451,0,4.436,1.36,4.436,3.036v18.718c0,1.675-1.984,3.034-4.436,3.034H844.41z"/>
		
			<linearGradient id="SVGID_7_" gradientUnits="userSpaceOnUse" x1="3505.1953" y1="-13320.1211" x2="3507.5078" y2="-13320.1211" gradientTransform="matrix(0 1 -1 0 -12463.0176 -3068.4961)">
			<stop  offset="0" style="stop-color:#515150"/>
			<stop  offset="0.7151" style="stop-color:#B1B4B5"/>
			<stop  offset="1" style="stop-color:#AAA9A9"/>
		</linearGradient>
		<rect x="843.117" y="436.699" fill="url(#SVGID_7_)" width="27.973" height="2.313"/>
	</g>
</g>
<linearGradient id="SVGID_8_" gradientUnits="userSpaceOnUse" x1="-2579.4175" y1="871.5605" x2="-2579.4175" y2="839.7813" gradientTransform="matrix(0 1 1 0 2.082 2887.6719)">
	<stop  offset="0" style="stop-color:#515150"/>
	<stop  offset="0.2559" style="stop-color:#B1B4B5"/>
	<stop  offset="0.8724" style="stop-color:#AAA9A9"/>
	<stop  offset="1" style="stop-color:#515150"/>
</linearGradient>
<path fill="url(#SVGID_8_)" stroke="#2F302F" stroke-miterlimit="10" d="M857.754,414.534c8.777,0,15.889-5.275,15.889-11.783
	V213.757c0-6.508-7.111-11.783-15.889-11.783l0,0c-8.775,0-15.891,5.275-15.891,11.783v188.994
	C841.863,409.259,848.979,414.534,857.754,414.534L857.754,414.534z"/>
<g>
	<g>
		<rect x="982.033" y="198.789" fill="#A9A9A9" stroke="#5F5F5F" stroke-miterlimit="10" width="42.393" height="236.345"/>
		<g>
			<path fill="#181818" d="M988.59,463.894c-2.688,0-4.867-1.492-4.867-3.33v-20.535c0-1.838,2.18-3.329,4.867-3.329h29.27
				c2.689,0,4.865,1.491,4.865,3.329v20.535c0,1.838-2.176,3.33-4.865,3.33H988.59z"/>
			
				<linearGradient id="SVGID_9_" gradientUnits="userSpaceOnUse" x1="3507.5078" y1="-13466.2412" x2="3532.2959" y2="-13466.2412" gradientTransform="matrix(0 1 -1 0 -12463.0176 -3068.4961)">
				<stop  offset="0" style="stop-color:#515150"/>
				<stop  offset="0.7151" style="stop-color:#B1B4B5"/>
				<stop  offset="1" style="stop-color:#AAA9A9"/>
			</linearGradient>
			<path fill="url(#SVGID_9_)" d="M989.885,463.8c-2.449,0-4.438-1.359-4.438-3.034v-18.718c0-1.676,1.988-3.036,4.438-3.036h26.68
				c2.451,0,4.436,1.36,4.436,3.036v18.718c0,1.675-1.984,3.034-4.436,3.034H989.885z"/>
			
				<linearGradient id="SVGID_10_" gradientUnits="userSpaceOnUse" x1="3505.1953" y1="-13465.5947" x2="3507.5078" y2="-13465.5947" gradientTransform="matrix(0 1 -1 0 -12463.0176 -3068.4961)">
				<stop  offset="0" style="stop-color:#515150"/>
				<stop  offset="0.7151" style="stop-color:#B1B4B5"/>
				<stop  offset="1" style="stop-color:#AAA9A9"/>
			</linearGradient>
			<rect x="988.59" y="436.699" fill="url(#SVGID_10_)" width="27.975" height="2.313"/>
		</g>
	</g>
	
		<linearGradient id="SVGID_11_" gradientUnits="userSpaceOnUse" x1="-2579.4175" y1="1017.0352" x2="-2579.4175" y2="985.2559" gradientTransform="matrix(0 1 1 0 2.082 2887.6719)">
		<stop  offset="0" style="stop-color:#515150"/>
		<stop  offset="0.2559" style="stop-color:#B1B4B5"/>
		<stop  offset="0.8724" style="stop-color:#AAA9A9"/>
		<stop  offset="1" style="stop-color:#515150"/>
	</linearGradient>
	<path fill="url(#SVGID_11_)" stroke="#2F302F" stroke-miterlimit="10" d="M1003.227,414.534c8.779,0,15.891-5.275,15.891-11.783
		V213.757c0-6.508-7.111-11.783-15.891-11.783l0,0c-8.773,0-15.889,5.275-15.889,11.783v188.994
		C987.338,409.259,994.453,414.534,1003.227,414.534L1003.227,414.534z"/>
</g>
<rect x="906.711" y="149.858" fill="#B9B9B9" stroke="#555656" stroke-width="1.5" stroke-miterlimit="10" width="34.668" height="300.438"/>
<rect x="784.934" y="149.858" fill="#B9B9B9" stroke="#555656" stroke-width="1.5" stroke-miterlimit="10" width="29.943" height="300.438"/>
<linearGradient id="SVGID_12_" gradientUnits="userSpaceOnUse" x1="786.9199" y1="322.5723" x2="812.877" y2="322.5723">
	<stop  offset="0" style="stop-color:#BEBDBE"/>
	<stop  offset="0.2151" style="stop-color:#E0E0DF"/>
	<stop  offset="0.5323" style="stop-color:#C1C0C0"/>
	<stop  offset="0.8065" style="stop-color:#E0E0DF"/>
	<stop  offset="0.9871" style="stop-color:#B1B4B5"/>
</linearGradient>
<path fill="url(#SVGID_12_)" stroke="#504F4F" stroke-miterlimit="10" d="M812.877,430.181c0,8.152-5.811,14.76-12.979,14.76l0,0
	c-7.168,0-12.979-6.607-12.979-14.76V214.962c0-8.15,5.811-14.759,12.979-14.759l0,0c7.168,0,12.979,6.608,12.979,14.759V430.181z"
	/>
<linearGradient id="SVGID_13_" gradientUnits="userSpaceOnUse" x1="910.0586" y1="322.5723" x2="936.0176" y2="322.5723">
	<stop  offset="0" style="stop-color:#BEBDBE"/>
	<stop  offset="0.2151" style="stop-color:#E0E0DF"/>
	<stop  offset="0.5323" style="stop-color:#C1C0C0"/>
	<stop  offset="0.8065" style="stop-color:#E0E0DF"/>
	<stop  offset="0.9871" style="stop-color:#B1B4B5"/>
</linearGradient>
<path fill="url(#SVGID_13_)" stroke="#504F4F" stroke-miterlimit="10" d="M936.018,430.181c0,8.152-5.813,14.76-12.98,14.76l0,0
	c-7.168,0-12.979-6.607-12.979-14.76V214.962c0-8.15,5.811-14.759,12.979-14.759l0,0c7.168,0,12.98,6.608,12.98,14.759V430.181z"/>
<linearGradient id="SVGID_14_" gradientUnits="userSpaceOnUse" x1="497.2974" y1="479.3955" x2="497.2974" y2="301.8213">
	<stop  offset="0" style="stop-color:#717071"/>
	<stop  offset="0.0126" style="stop-color:#F7F7F7"/>
	<stop  offset="0.2312" style="stop-color:#C8C9CA"/>
	<stop  offset="0.475" style="stop-color:#F7F7F7"/>
	<stop  offset="0.6935" style="stop-color:#C8C9CA"/>
	<stop  offset="0.9871" style="stop-color:#EEEEEF"/>
	<stop  offset="1" style="stop-color:#717071"/>
</linearGradient>
<rect x="290.704" y="301.821" fill="url(#SVGID_14_)" stroke="#323333" stroke-miterlimit="10" width="413.187" height="177.574"/>
<path fill="#797A7A" d="M16.365,34.116v445.28h304.546V359.671c0-20.36,17.013-36.866,38-36.866h345.953
	c1.021,0,2.027,0.05,3.027,0.127v-11.93v-93.048c0-20.36,17.014-36.865,38-36.865h303.982V34.116H16.365z"/>
<linearGradient id="SVGID_15_" gradientUnits="userSpaceOnUse" x1="529.1191" y1="475.5166" x2="529.1191" y2="30.2368">
	<stop  offset="0" style="stop-color:#BEBDBE"/>
	<stop  offset="0.2151" style="stop-color:#E0E0DF"/>
	<stop  offset="0.5323" style="stop-color:#C1C0C0"/>
	<stop  offset="0.8065" style="stop-color:#E0E0DF"/>
	<stop  offset="0.9871" style="stop-color:#B1B4B5"/>
</linearGradient>
<path fill="url(#SVGID_15_)" d="M12.365,30.236v445.28h304.546V355.789c0-20.36,17.013-36.866,38-36.866h345.953
	c1.021,0,2.027,0.051,3.027,0.128v-11.93v-93.048c0-20.36,17.014-36.866,38-36.866h303.982V30.236H12.365z"/>
<path fill-rule="evenodd" clip-rule="evenodd" fill="#030000" d="M774.859,134.217c0,3.142-2.545,5.688-5.689,5.688
	c-3.141,0-5.688-2.546-5.688-5.688c0-3.144,2.547-5.692,5.688-5.692C772.314,128.524,774.859,131.073,774.859,134.217z"/>
<circle fill-rule="evenodd" clip-rule="evenodd" fill="#030000" cx="370.109" cy="291.515" r="5.689"/>
<circle fill-rule="evenodd" clip-rule="evenodd" fill="#030000" cx="607.031" cy="291.515" r="5.689"/>
<path fill-rule="evenodd" clip-rule="evenodd" fill="#030000" d="M686.271,237.873c0,3.143-2.545,5.688-5.689,5.688
	c-3.143,0-5.688-2.545-5.688-5.688s2.545-5.691,5.688-5.691C683.727,232.182,686.271,234.73,686.271,237.873z"/>
<circle fill-rule="evenodd" clip-rule="evenodd" fill="#030000" cx="995.664" cy="134.217" r="5.689"/>
<g>
	<path fill-rule="evenodd" clip-rule="evenodd" fill="#030000" d="M773.266,66.512c0,4.659-3.773,8.435-8.436,8.435
		c-4.656,0-8.434-3.775-8.434-8.435s3.777-8.438,8.434-8.438C769.492,58.074,773.266,61.853,773.266,66.512z"/>
	<circle fill-rule="evenodd" clip-rule="evenodd" fill="#030000" cx="786.012" cy="66.512" r="8.436"/>
	<circle fill-rule="evenodd" clip-rule="evenodd" fill="#030000" cx="807.192" cy="66.512" r="8.435"/>
	<circle fill-rule="evenodd" clip-rule="evenodd" fill="#030000" cx="828.373" cy="66.512" r="8.434"/>
	<circle fill-rule="evenodd" clip-rule="evenodd" fill="#030000" cx="849.554" cy="66.512" r="8.435"/>
	<circle fill-rule="evenodd" clip-rule="evenodd" fill="#030000" cx="870.735" cy="66.512" r="8.435"/>
	<circle fill-rule="evenodd" clip-rule="evenodd" fill="#030000" cx="891.915" cy="66.512" r="8.435"/>
	<path fill-rule="evenodd" clip-rule="evenodd" fill="#030000" d="M921.531,66.512c0,4.659-3.775,8.435-8.438,8.435
		c-4.656,0-8.434-3.775-8.434-8.435s3.777-8.438,8.434-8.438C917.756,58.074,921.531,61.853,921.531,66.512z"/>
	<circle fill-rule="evenodd" clip-rule="evenodd" fill="#030000" cx="934.276" cy="66.512" r="8.435"/>
	<circle fill-rule="evenodd" clip-rule="evenodd" fill="#030000" cx="955.457" cy="66.512" r="8.434"/>
	<circle fill-rule="evenodd" clip-rule="evenodd" fill="#030000" cx="976.638" cy="66.512" r="8.435"/>
	<circle fill-rule="evenodd" clip-rule="evenodd" fill="#030000" cx="997.819" cy="66.512" r="8.435"/>
</g>
<circle fill-rule="evenodd" clip-rule="evenodd" fill="#030000" cx="775.422" cy="83.066" r="8.434"/>
<circle fill-rule="evenodd" clip-rule="evenodd" fill="#030000" cx="796.603" cy="83.066" r="8.435"/>
<circle fill-rule="evenodd" clip-rule="evenodd" fill="#030000" cx="817.784" cy="83.066" r="8.435"/>
<circle fill-rule="evenodd" clip-rule="evenodd" fill="#030000" cx="838.964" cy="83.066" r="8.435"/>
<circle fill-rule="evenodd" clip-rule="evenodd" fill="#030000" cx="860.145" cy="83.066" r="8.436"/>
<circle fill-rule="evenodd" clip-rule="evenodd" fill="#030000" cx="881.325" cy="83.066" r="8.435"/>
<circle fill-rule="evenodd" clip-rule="evenodd" fill="#030000" cx="902.506" cy="83.066" r="8.434"/>
<circle fill-rule="evenodd" clip-rule="evenodd" fill="#030000" cx="923.687" cy="83.066" r="8.435"/>
<circle fill-rule="evenodd" clip-rule="evenodd" fill="#030000" cx="944.868" cy="83.066" r="8.435"/>
<circle fill-rule="evenodd" clip-rule="evenodd" fill="#030000" cx="966.048" cy="83.066" r="8.435"/>
<path fill-rule="evenodd" clip-rule="evenodd" fill="#030000" d="M995.664,83.066c0,4.659-3.775,8.435-8.438,8.435
	c-4.656,0-8.434-3.775-8.434-8.435s3.777-8.438,8.434-8.438C991.889,74.629,995.664,78.407,995.664,83.066z"/>
<g>
	<circle fill-rule="evenodd" clip-rule="evenodd" fill="#030000" cx="766.987" cy="101.306" r="8.435"/>
	<circle fill-rule="evenodd" clip-rule="evenodd" fill="#030000" cx="788.167" cy="101.306" r="8.435"/>
	<circle fill-rule="evenodd" clip-rule="evenodd" fill="#030000" cx="809.349" cy="101.306" r="8.435"/>
	<circle fill-rule="evenodd" clip-rule="evenodd" fill="#030000" cx="830.528" cy="101.306" r="8.435"/>
	<circle fill-rule="evenodd" clip-rule="evenodd" fill="#030000" cx="851.709" cy="101.306" r="8.434"/>
	<circle fill-rule="evenodd" clip-rule="evenodd" fill="#030000" cx="872.89" cy="101.306" r="8.435"/>
	<circle fill-rule="evenodd" clip-rule="evenodd" fill="#030000" cx="894.071" cy="101.306" r="8.435"/>
	<circle fill-rule="evenodd" clip-rule="evenodd" fill="#030000" cx="915.251" cy="101.306" r="8.435"/>
	<circle fill-rule="evenodd" clip-rule="evenodd" fill="#030000" cx="936.433" cy="101.306" r="8.435"/>
	<circle fill-rule="evenodd" clip-rule="evenodd" fill="#030000" cx="957.612" cy="101.306" r="8.435"/>
	<circle fill-rule="evenodd" clip-rule="evenodd" fill="#030000" cx="978.793" cy="101.306" r="8.434"/>
	<circle fill-rule="evenodd" clip-rule="evenodd" fill="#030000" cx="999.974" cy="101.306" r="8.435"/>
</g>
<g>
	<path fill="#2C2D2D" d="M637.395,23.166c0-2.195,0.6-4.246,1.629-6.016h-169.62V31.88c0,6.628,5.372,12,12,12h155.991V23.166z"/>
	<path fill="#2C2D2D" d="M668.766,17.15c1.027,1.77,1.627,3.82,1.627,6.016V43.88h81.361c6.627,0,12-5.372,12-12V17.15H668.766z"/>
</g>
<rect x="320.911" y="359.671" fill="#2D6847" width="89.453" height="104.223"/>
<rect x="320.911" y="411.782" fill="#413F56" width="89.453" height="52.111"/>
<rect x="373.364" y="359.671" fill="#7A3525" width="48" height="104.223"/>
<rect x="421.364" y="382.706" fill="#8F8E87" stroke="#1D1D1D" stroke-miterlimit="10" width="64.889" height="81.094"/>
<linearGradient id="SVGID_16_" gradientUnits="userSpaceOnUse" x1="320.9106" y1="472.999" x2="703.8906" y2="472.999">
	<stop  offset="0" style="stop-color:#BEBDBE"/>
	<stop  offset="0.2151" style="stop-color:#E0E0DF"/>
	<stop  offset="0.5323" style="stop-color:#C1C0C0"/>
	<stop  offset="0.8065" style="stop-color:#E0E0DF"/>
	<stop  offset="0.9871" style="stop-color:#B1B4B5"/>
</linearGradient>
<rect x="320.911" y="466.603" fill="url(#SVGID_16_)" stroke="#504F4F" stroke-miterlimit="10" width="382.98" height="12.793"/>
<linearGradient id="SVGID_17_" gradientUnits="userSpaceOnUse" x1="14.1958" y1="474.5547" x2="316.9106" y2="474.5547">
	<stop  offset="0" style="stop-color:#BEBDBE"/>
	<stop  offset="0.2151" style="stop-color:#E0E0DF"/>
	<stop  offset="0.5323" style="stop-color:#C1C0C0"/>
	<stop  offset="0.8065" style="stop-color:#E0E0DF"/>
	<stop  offset="0.9871" style="stop-color:#B1B4B5"/>
</linearGradient>
<rect x="14.196" y="469.198" fill="url(#SVGID_17_)" stroke="#504F4F" stroke-miterlimit="10" width="302.715" height="10.713"/>
<rect x="593.57" y="359.671" fill="#13100D" width="57.316" height="104.129"/>
<path fill="#FAFBFD" d="M601.691,380.698l-1.107,1.971h0.824v8.813v0.784v0.708l-1.883-2c-0.172-0.181-0.27-0.431-0.27-0.688v-1.768
	c0.344-0.16,0.586-0.524,0.586-0.951c0-0.572-0.436-1.037-0.979-1.037c-0.539,0-0.977,0.465-0.977,1.037
	c0,0.511,0.344,0.932,0.799,1.021v1.697c0,0.416,0.16,0.82,0.436,1.115l2.025,2.151c0.17,0.178,0.262,0.418,0.262,0.671v0.264v0.699
	c-0.736,0.144-1.295,0.827-1.295,1.65c0,0.929,0.705,1.68,1.578,1.68c0.877,0,1.582-0.751,1.582-1.68
	c0-0.823-0.559-1.507-1.295-1.65v-0.699v-0.264v-1.958v-0.784c0-0.253,0.094-0.487,0.26-0.667l1.941-2.06
	c0.277-0.299,0.432-0.692,0.432-1.112v-1.489h0.744v-1.969H603.5v1.969h0.541v1.489c0,0.258-0.094,0.499-0.268,0.683l-1.795,1.907
	v-7.563h0.824L601.691,380.698z"/>
<path fill="#FAFBFD" d="M601.691,425.891l-1.107,1.971h0.824v8.813v0.784v0.708l-1.883-2c-0.172-0.181-0.27-0.431-0.27-0.688v-1.768
	c0.344-0.16,0.586-0.524,0.586-0.951c0-0.572-0.436-1.037-0.979-1.037c-0.539,0-0.977,0.465-0.977,1.037
	c0,0.511,0.344,0.932,0.799,1.021v1.697c0,0.416,0.16,0.82,0.436,1.115l2.025,2.151c0.17,0.178,0.262,0.418,0.262,0.671v0.264v0.699
	c-0.736,0.144-1.295,0.827-1.295,1.65c0,0.929,0.705,1.68,1.578,1.68c0.877,0,1.582-0.751,1.582-1.68
	c0-0.823-0.559-1.507-1.295-1.65v-0.699v-0.264v-1.958v-0.784c0-0.253,0.094-0.487,0.26-0.667l1.941-2.06
	c0.277-0.299,0.432-0.692,0.432-1.112v-1.489h0.744v-1.969H603.5v1.969h0.541v1.489c0,0.258-0.094,0.499-0.268,0.683l-1.795,1.907
	v-7.563h0.824L601.691,425.891z"/>
<rect x="650.887" y="411.735" fill="#953B3F" width="53.004" height="54.867"/>
<rect x="650.887" y="322.806" fill="#205773" width="53.004" height="100.447"/>
<rect x="650.887" y="379.302" fill="#596B41" width="53.004" height="43.951"/>
<rect x="1014.363" y="83.065" fill-rule="evenodd" clip-rule="evenodd" fill="#030000" width="28" height="45.459"/>
<rect x="716.52" y="83.065" fill-rule="evenodd" clip-rule="evenodd" fill="#030000" width="28" height="45.459"/>
<g>
	<path fill-rule="evenodd" clip-rule="evenodd" fill="#030000" d="M492.738,84.094c0,0,25.206-3.012,30.174-1.4
		c0,0,1.727,0.338,4.375-1.173l11.777-6.309c0,0,4.932-3.5-1.615-6.021c0,0-15.531-5.185-34.266-3.373c0,0-3.708-0.877-7.506,3.876
		c0,0-6.286,7.445-6.935,11.012C488.743,80.705,486.769,84.738,492.738,84.094z"/>
	<path fill-rule="evenodd" clip-rule="evenodd" fill="#030000" d="M448.553,107.813c0,0,20.323-15.212,25.431-16.302
		c0,0,1.664-0.569,3.203-3.202l7.045-11.352c0,0,2.52-5.497-4.408-4.407c0,0-16.044,3.275-31.363,14.212
		c0,0-3.648,1.094-4.562,7.108c0,0-1.721,9.591-0.5,13.005C443.399,106.875,443.706,111.354,448.553,107.813z"/>
	<path fill-rule="evenodd" clip-rule="evenodd" fill="#030000" d="M422.147,150.445c0,0,9.995-23.336,13.874-26.833
		c0,0,1.155-1.326,1.173-4.375l0.425-13.353c0,0-0.566-6.021-6.021-1.613c0,0-12.258,10.859-20.057,27.989
		c0,0-2.612,2.771-0.396,8.437c0,0,3.306,9.167,6.068,11.513C417.214,152.21,419.721,155.937,422.147,150.445z"/>
	<path fill-rule="evenodd" clip-rule="evenodd" fill="#030000" d="M420.595,200.568c0,0-3.012-25.206-1.401-30.173
		c0,0,0.338-1.727-1.172-4.377l-6.308-11.777c0,0-3.502-4.931-6.022,1.615c0,0-5.184,15.533-3.372,34.266
		c0,0-0.877,3.709,3.874,7.508c0,0,7.446,6.283,11.013,6.934C417.207,204.563,421.241,206.536,420.595,200.568z"/>
	<path fill-rule="evenodd" clip-rule="evenodd" fill="#030000" d="M444.314,244.753c0,0-15.213-20.323-16.304-25.43
		c0,0-0.567-1.664-3.2-3.203l-11.353-7.045c0,0-5.496-2.521-4.405,4.408c0,0,3.275,16.044,14.211,31.361
		c0,0,1.095,3.649,7.108,4.563c0,0,9.592,1.72,13.005,0.499C443.376,249.907,447.856,249.599,444.314,244.753z"/>
	<path fill-rule="evenodd" clip-rule="evenodd" fill="#030000" d="M486.947,271.159c0,0-23.335-9.996-26.833-13.873
		c0,0-1.327-1.154-4.375-1.174l-13.353-0.426c0,0-6.022,0.566-1.613,6.023c0,0,10.86,12.258,27.989,20.053
		c0,0,2.771,2.613,8.438,0.396c0,0,9.166-3.307,11.513-6.068C488.712,276.091,492.438,273.585,486.947,271.159z"/>
	<path fill-rule="evenodd" clip-rule="evenodd" fill="#030000" d="M537.07,272.71c0,0-25.206,3.012-30.174,1.404
		c0,0-1.727-0.338-4.376,1.17l-11.775,6.309c0,0-4.934,3.502,1.613,6.021c0,0,15.533,5.184,34.268,3.373
		c0,0,3.707,0.875,7.505-3.875c0,0,6.286-7.447,6.936-11.014C541.066,276.099,543.039,272.065,537.07,272.71z"/>
	<path fill-rule="evenodd" clip-rule="evenodd" fill="#030000" d="M581.254,248.991c0,0-20.322,15.213-25.43,16.303
		c0,0-1.664,0.57-3.203,3.203l-7.045,11.35c0,0-2.521,5.5,4.408,4.408c0,0,16.045-3.277,31.361-14.211c0,0,3.65-1.096,4.563-7.109
		c0,0,1.721-9.594,0.5-13.006C586.408,249.929,586.102,245.45,581.254,248.991z"/>
	<path fill-rule="evenodd" clip-rule="evenodd" fill="#030000" d="M607.66,206.359c0,0-9.994,23.336-13.871,26.833
		c0,0-1.156,1.326-1.176,4.375l-0.424,13.352c0,0,0.566,6.025,6.02,1.613c0,0,12.258-10.859,20.055-27.988
		c0,0,2.615-2.772,0.398-8.438c0,0-3.307-9.166-6.068-11.512C612.594,204.595,610.086,200.869,607.66,206.359z"/>
	<path fill-rule="evenodd" clip-rule="evenodd" fill="#030000" d="M609.211,156.236c0,0,3.014,25.208,1.404,30.173
		c0,0-0.34,1.727,1.17,4.377l6.309,11.775c0,0,3.502,4.934,6.02-1.614c0,0,5.186-15.534,3.375-34.265c0,0,0.877-3.709-3.875-7.506
		c0,0-7.447-6.286-11.012-6.936C612.602,152.241,608.568,150.269,609.211,156.236z"/>
	<path fill-rule="evenodd" clip-rule="evenodd" fill="#030000" d="M585.494,112.052c0,0,15.211,20.323,16.301,25.43
		c0,0,0.572,1.663,3.203,3.204l11.352,7.043c0,0,5.498,2.522,4.406-4.407c0,0-3.277-16.045-14.211-31.36c0,0-1.096-3.65-7.109-4.564
		c0,0-9.592-1.719-13.004-0.5C586.432,106.896,581.951,107.204,585.494,112.052z"/>
	<path fill-rule="evenodd" clip-rule="evenodd" fill="#030000" d="M542.861,85.646c0,0,23.336,9.994,26.832,13.871
		c0,0,1.326,1.154,4.375,1.174l13.352,0.424c0,0,6.025-0.564,1.615-6.021c0,0-10.861-12.256-27.988-20.053
		c0,0-2.775-2.614-8.439-0.397c0,0-9.168,3.306-11.512,6.068C541.096,80.713,537.369,83.219,542.861,85.646z"/>
</g>
<g>
	<path fill-rule="evenodd" clip-rule="evenodd" fill="#030000" d="M449.926,138.158c0,0,12.381-15.742,16.052-17.615
		c0,0,1.153-0.774,1.789-3.095l3.049-10.09c0,0,0.799-4.702-4.259-2.457c0,0-11.557,5.771-20.999,17.234
		c0,0-2.557,1.578-2.025,6.348c0,0,0.649,7.661,2.274,10.013C445.807,138.496,446.957,141.847,449.926,138.158z"/>
	<path fill-rule="evenodd" clip-rule="evenodd" fill="#030000" d="M438.51,176.038c0,0,2.853-19.824,5.094-23.281
		c0,0,0.61-1.246,0-3.573l-2.403-10.263c0,0-1.66-4.472-4.917,0.002c0,0-7.123,10.777-9.567,25.424c0,0-1.427,2.646,1.42,6.51
		c0,0,4.392,6.311,6.976,7.533C435.112,178.39,437.782,180.718,438.51,176.038z"/>
	<path fill-rule="evenodd" clip-rule="evenodd" fill="#030000" d="M447.562,214.552c0,0-7.44-18.594-7.229-22.709
		c0,0-0.095-1.384-1.786-3.096l-7.214-7.685c0,0-3.673-3.043-4.257,2.458c0,0-0.779,12.897,4.425,26.803
		c0,0,0.089,3.004,4.486,4.928c0,0,6.958,3.27,9.808,3.037C445.795,218.288,449.274,218.968,447.562,214.552z"/>
	<path fill-rule="evenodd" clip-rule="evenodd" fill="#030000" d="M474.66,243.379c0,0-15.742-12.38-17.614-16.05
		c0,0-0.776-1.152-3.097-1.789l-10.089-3.049c0,0-4.703-0.798-2.457,4.258c0,0,5.773,11.56,17.234,20.998
		c0,0,1.577,2.559,6.349,2.027c0,0,7.659-0.65,10.012-2.275C474.998,247.499,478.347,246.349,474.66,243.379z"/>
	<path fill-rule="evenodd" clip-rule="evenodd" fill="#030000" d="M512.54,254.796c0,0-19.824-2.852-23.281-5.09
		c0,0-1.248-0.613-3.572-0.002l-10.264,2.402c0,0-4.474,1.66,0,4.918c0,0,10.778,7.121,25.425,9.566c0,0,2.646,1.426,6.512-1.42
		c0,0,6.309-4.393,7.532-6.977C514.891,258.194,517.218,255.524,512.54,254.796z"/>
	<path fill-rule="evenodd" clip-rule="evenodd" fill="#030000" d="M551.053,245.744c0,0-18.595,7.442-22.708,7.229
		c0,0-1.386,0.096-3.096,1.785l-7.686,7.213c0,0-3.046,3.676,2.459,4.26c0,0,12.895,0.779,26.801-4.428c0,0,3.004-0.088,4.928-4.484
		c0,0,3.27-6.958,3.037-9.809C554.789,247.511,555.469,244.034,551.053,245.744z"/>
	<path fill-rule="evenodd" clip-rule="evenodd" fill="#030000" d="M579.879,218.647c0,0-12.381,15.743-16.047,17.615
		c0,0-1.154,0.774-1.791,3.094l-3.049,10.088c0,0-0.801,4.707,4.26,2.459c0,0,11.555-5.772,20.996-17.232c0,0,2.559-1.58,2.023-6.35
		c0,0-0.646-7.66-2.271-10.012C584,218.31,582.85,214.957,579.879,218.647z"/>
	<path fill-rule="evenodd" clip-rule="evenodd" fill="#030000" d="M591.297,180.769c0,0-2.852,19.822-5.092,23.277
		c0,0-0.609,1.248-0.002,3.575l2.404,10.263c0,0,1.662,4.475,4.916-0.002c0,0,7.123-10.777,9.566-25.422c0,0,1.428-2.646-1.42-6.51
		c0,0-4.393-6.311-6.975-7.534C594.695,178.416,592.023,176.089,591.297,180.769z"/>
	<path fill-rule="evenodd" clip-rule="evenodd" fill="#030000" d="M582.244,142.254c0,0,7.443,18.595,7.23,22.708
		c0,0,0.096,1.385,1.787,3.096l7.213,7.685c0,0,3.674,3.045,4.258-2.458c0,0,0.777-12.896-4.428-26.8c0,0-0.09-3.007-4.484-4.931
		c0,0-6.961-3.268-9.811-3.036C584.01,138.518,580.535,137.838,582.244,142.254z"/>
	<path fill-rule="evenodd" clip-rule="evenodd" fill="#030000" d="M555.146,113.427c0,0,15.744,12.383,17.615,16.05
		c0,0,0.775,1.151,3.098,1.787l10.086,3.051c0,0,4.707,0.799,2.459-4.259c0,0-5.773-11.556-17.232-20.996c0,0-1.58-2.56-6.35-2.027
		c0,0-7.66,0.649-10.012,2.276C554.811,109.309,551.461,110.456,555.146,113.427z"/>
	<path fill-rule="evenodd" clip-rule="evenodd" fill="#030000" d="M517.267,102.01c0,0,19.825,2.852,23.282,5.092
		c0,0,1.246,0.61,3.572,0.002l10.262-2.405c0,0,4.477-1.66,0.002-4.916c0,0-10.779-7.121-25.423-9.565c0,0-2.647-1.427-6.513,1.419
		c0,0-6.31,4.392-7.533,6.976C514.916,98.611,512.589,101.282,517.267,102.01z"/>
	<path fill-rule="evenodd" clip-rule="evenodd" fill="#030000" d="M478.755,111.062c0,0,18.592-7.441,22.707-7.229
		c0,0,1.384-0.096,3.097-1.786l7.684-7.212c0,0,3.047-3.677-2.458-4.258c0,0-12.895-0.778-26.801,4.426c0,0-3.005,0.089-4.93,4.485
		c0,0-3.268,6.959-3.035,9.807C475.019,109.294,474.338,112.772,478.755,111.062z"/>
</g>
<g>
	<path fill-rule="evenodd" clip-rule="evenodd" fill="#030000" d="M461.993,190.84c0,0-1.689-14.142-0.786-16.929
		c0,0,0.189-0.97-0.658-2.455l-3.538-6.608c0,0-1.964-2.767-3.377,0.905c0,0-2.91,8.717-1.895,19.227c0,0-0.491,2.08,2.174,4.211
		c0,0,4.18,3.527,6.18,3.891C460.092,193.081,462.355,194.188,461.993,190.84z"/>
	<path fill-rule="evenodd" clip-rule="evenodd" fill="#030000" d="M475.298,215.628c0,0-8.533-11.402-9.143-14.268
		c0,0-0.322-0.934-1.797-1.797l-6.371-3.951c0,0-3.083-1.414-2.473,2.473c0,0,1.841,9.002,7.976,17.596c0,0,0.613,2.048,3.987,2.559
		c0,0,5.381,0.966,7.296,0.281C474.774,218.521,477.287,218.349,475.298,215.628z"/>
	<path fill-rule="evenodd" clip-rule="evenodd" fill="#030000" d="M499.218,230.444c0,0-13.091-5.609-15.055-7.784
		c0,0-0.743-0.648-2.455-0.66l-7.49-0.237c0,0-3.377,0.318-0.904,3.378c0,0,6.093,6.878,15.703,11.251c0,0,1.555,1.467,4.731,0.225
		c0,0,5.143-1.855,6.461-3.405C500.209,233.211,502.298,231.804,499.218,230.444z"/>
	<path fill-rule="evenodd" clip-rule="evenodd" fill="#030000" d="M527.34,231.314c0,0-14.142,1.688-16.928,0.786
		c0,0-0.971-0.189-2.457,0.658l-6.605,3.537c0,0-2.768,1.965,0.904,3.381c0,0,8.715,2.908,19.226,1.891c0,0,2.081,0.493,4.212-2.174
		c0,0,3.525-4.178,3.889-6.178C529.581,233.216,530.688,230.952,527.34,231.314z"/>
	<path fill-rule="evenodd" clip-rule="evenodd" fill="#030000" d="M552.129,218.006c0,0-11.402,8.536-14.267,9.149
		c0,0-0.936,0.318-1.798,1.793l-3.952,6.37c0,0-1.414,3.085,2.473,2.472c0,0,9.001-1.837,17.595-7.973c0,0,2.047-0.614,2.561-3.988
		c0,0,0.965-5.382,0.283-7.295C555.023,218.534,554.848,216.021,552.129,218.006z"/>
	<path fill-rule="evenodd" clip-rule="evenodd" fill="#030000" d="M566.943,194.089c0,0-5.607,13.092-7.783,15.055
		c0,0-0.65,0.744-0.658,2.453l-0.238,7.492c0,0,0.318,3.379,3.377,0.905c0,0,6.879-6.093,11.25-15.702c0,0,1.469-1.557,0.225-4.733
		c0,0-1.854-5.144-3.406-6.46C569.709,193.099,568.305,191.008,566.943,194.089z"/>
	<path fill-rule="evenodd" clip-rule="evenodd" fill="#030000" d="M567.814,165.969c0,0,1.689,14.142,0.789,16.927
		c0,0-0.195,0.971,0.654,2.455l3.537,6.606c0,0,1.967,2.769,3.381-0.905c0,0,2.908-8.713,1.893-19.225c0,0,0.49-2.08-2.176-4.21
		c0,0-4.176-3.525-6.178-3.89C569.715,163.728,567.451,162.618,567.814,165.969z"/>
	<path fill-rule="evenodd" clip-rule="evenodd" fill="#030000" d="M554.506,141.179c0,0,8.537,11.402,9.146,14.266
		c0,0,0.32,0.934,1.797,1.799l6.369,3.952c0,0,3.086,1.415,2.471-2.474c0,0-1.838-9-7.971-17.595c0,0-0.615-2.048-3.99-2.559
		c0,0-5.381-0.965-7.295-0.281C555.033,138.287,552.52,138.459,554.506,141.179z"/>
	<path fill-rule="evenodd" clip-rule="evenodd" fill="#030000" d="M530.589,126.363c0,0,13.092,5.608,15.053,7.783
		c0,0,0.744,0.647,2.455,0.657l7.492,0.239c0,0,3.377-0.316,0.902-3.378c0,0-6.092-6.876-15.699-11.25c0,0-1.557-1.467-4.737-0.224
		c0,0-5.143,1.856-6.459,3.405C529.597,123.597,527.507,125.003,530.589,126.363z"/>
	<path fill-rule="evenodd" clip-rule="evenodd" fill="#030000" d="M502.466,125.494c0,0,14.144-1.69,16.929-0.786
		c0,0,0.97,0.188,2.456-0.657l6.605-3.54c0,0,2.77-1.966-0.904-3.378c0,0-8.715-2.908-19.224-1.894c0,0-2.081-0.492-4.212,2.175
		c0,0-3.526,4.179-3.89,6.178C500.227,123.592,499.119,125.854,502.466,125.494z"/>
	<path fill-rule="evenodd" clip-rule="evenodd" fill="#030000" d="M477.679,138.8c0,0,11.401-8.534,14.266-9.146
		c0,0,0.934-0.319,1.8-1.796l3.949-6.368c0,0,1.416-3.085-2.472-2.473c0,0-9.001,1.838-17.594,7.973c0,0-2.049,0.615-2.562,3.988
		c0,0-0.965,5.381-0.279,7.298C474.788,138.275,474.96,140.788,477.679,138.8z"/>
	<path fill-rule="evenodd" clip-rule="evenodd" fill="#030000" d="M462.865,162.718c0,0,5.606-13.09,7.782-15.054
		c0,0,0.649-0.744,0.659-2.454l0.235-7.491c0,0-0.315-3.38-3.376-0.904c0,0-6.876,6.092-11.25,15.701c0,0-1.467,1.557-0.224,4.735
		c0,0,1.854,5.143,3.405,6.458C460.097,163.709,461.501,165.801,462.865,162.718z"/>
</g>
<linearGradient id="SVGID_18_" gradientUnits="userSpaceOnUse" x1="367.6978" y1="127.5244" x2="367.6978" y2="30.8799">
	<stop  offset="0" style="stop-color:#919292"/>
	<stop  offset="0.0785" style="stop-color:#B1B4B5"/>
	<stop  offset="0.1344" style="stop-color:#E0E0DF"/>
	<stop  offset="0.5323" style="stop-color:#C1C0C0"/>
	<stop  offset="0.8065" style="stop-color:#E0E0DF"/>
	<stop  offset="0.9871" style="stop-color:#B1B4B5"/>
</linearGradient>
<path fill-rule="evenodd" clip-rule="evenodd" fill="url(#SVGID_18_)" stroke="#8B8B8B" stroke-width="3" stroke-miterlimit="10" d="
	M336.84,30.88v84.645c0,6.627,4.044,12,9.031,12h43.652c4.988,0,9.031-5.373,9.031-12V30.88H336.84z"/>
<g>
	<path fill="#AFAEAE" d="M648.486,286.091c0,6.752-5.781,12.226-12.916,12.226s-12.918-5.474-12.918-12.226
		c0-6.754,5.783-12.229,12.918-12.229S648.486,279.337,648.486,286.091"/>
	<ellipse fill="none" stroke="#929292" stroke-miterlimit="10" cx="635.569" cy="286.091" rx="12.917" ry="12.226"/>
	<path fill="#AFAEAE" d="M645.063,286.091c0,4.961-4.252,8.983-9.492,8.983c-5.242,0-9.494-4.022-9.494-8.983
		c0-4.963,4.252-8.986,9.494-8.986C640.811,277.104,645.063,281.128,645.063,286.091"/>
	<ellipse fill="none" stroke="#929292" stroke-miterlimit="10" cx="635.569" cy="286.091" rx="9.493" ry="8.983"/>
	<g>
		<g>
			<defs>
				<rect id="SVGID_19_" x="626.621" y="277.622" width="17.895" height="16.935"/>
			</defs>
			<clipPath id="SVGID_20_">
				<use xlink:href="#SVGID_19_"  overflow="visible"/>
			</clipPath>
			<path clip-path="url(#SVGID_20_)" fill="#BEBEBD" d="M644.516,286.091c0,4.675-4.006,8.466-8.945,8.466
				c-4.943,0-8.949-3.791-8.949-8.466c0-4.678,4.006-8.469,8.949-8.469C640.51,277.622,644.516,281.413,644.516,286.091"/>
			<path clip-path="url(#SVGID_20_)" fill="#C0C0C0" d="M644.305,286.091c0,4.563-3.914,8.267-8.734,8.267
				c-4.826,0-8.738-3.703-8.738-8.267c0-4.567,3.912-8.271,8.738-8.271C640.391,277.82,644.305,281.523,644.305,286.091"/>
			<path clip-path="url(#SVGID_20_)" fill="#C2C3C3" d="M644.096,286.091c0,4.454-3.82,8.069-8.525,8.069
				c-4.711,0-8.525-3.615-8.525-8.069c0-4.458,3.814-8.07,8.525-8.07C640.275,278.021,644.096,281.633,644.096,286.091"/>
			<path clip-path="url(#SVGID_20_)" fill="#C4C5C4" d="M643.883,286.091c0,4.345-3.723,7.868-8.313,7.868
				c-4.596,0-8.316-3.523-8.316-7.868c0-4.348,3.721-7.871,8.316-7.871C640.16,278.22,643.883,281.743,643.883,286.091"/>
			<path clip-path="url(#SVGID_20_)" fill="#C6C8C8" d="M643.674,286.091c0,4.233-3.631,7.669-8.104,7.669
				c-4.477,0-8.105-3.436-8.105-7.669c0-4.237,3.629-7.673,8.105-7.673C640.043,278.418,643.674,281.854,643.674,286.091"/>
			<path clip-path="url(#SVGID_20_)" fill="#C9CACB" d="M643.463,286.091c0,4.124-3.533,7.47-7.893,7.47
				c-4.361,0-7.896-3.346-7.896-7.47c0-4.128,3.535-7.473,7.896-7.473C639.93,278.618,643.463,281.963,643.463,286.091"/>
			<path clip-path="url(#SVGID_20_)" fill="#CBCDCD" d="M643.254,286.091c0,4.015-3.441,7.271-7.684,7.271
				c-4.246,0-7.684-3.257-7.684-7.271c0-4.018,3.438-7.275,7.684-7.275C639.813,278.815,643.254,282.073,643.254,286.091"/>
			<path clip-path="url(#SVGID_20_)" fill="#CCCFD0" d="M643.045,286.091c0,3.905-3.35,7.072-7.475,7.072
				c-4.127,0-7.475-3.167-7.475-7.072c0-3.907,3.348-7.074,7.475-7.074C639.695,279.017,643.045,282.184,643.045,286.091"/>
			<path clip-path="url(#SVGID_20_)" fill="#D0D2D2" d="M642.832,286.091c0,3.794-3.25,6.873-7.262,6.873s-7.264-3.079-7.264-6.873
				c0-3.798,3.252-6.877,7.264-6.877S642.832,282.293,642.832,286.091"/>
			<path clip-path="url(#SVGID_20_)" fill="#D2D4D5" d="M642.621,286.091c0,3.684-3.158,6.673-7.051,6.673
				c-3.898,0-7.055-2.989-7.055-6.673c0-3.688,3.156-6.676,7.055-6.676C639.463,279.415,642.621,282.402,642.621,286.091"/>
		</g>
	</g>
	<polygon fill="#605F5E" points="634.4,291.182 634.4,287.196 630.189,287.196 630.189,284.983 634.4,284.983 634.4,280.998 
		636.738,280.998 636.738,284.983 640.947,284.983 640.947,287.196 636.738,287.196 636.738,291.182 	"/>
	<path fill="#221714" d="M636.535,281.19v3.6v0.386h0.404h3.807v1.828h-3.807h-0.404v0.382v3.602h-1.932v-3.602v-0.382h-0.404
		h-3.809v-1.828h3.809h0.404v-0.386v-3.6H636.535z M636.939,280.807h-2.74v3.983h-4.211v2.596h4.211v3.985h2.74v-3.985h4.209v-2.596
		h-4.209V280.807z"/>
</g>
<g>
	<path fill="#AFAEAE" d="M428.505,286.091c0,6.752-5.78,12.226-12.917,12.226c-7.135,0-12.918-5.474-12.918-12.226
		c0-6.754,5.783-12.229,12.918-12.229C422.725,273.862,428.505,279.337,428.505,286.091"/>
	<ellipse fill="none" stroke="#929292" stroke-miterlimit="10" cx="415.588" cy="286.091" rx="12.917" ry="12.226"/>
	<path fill="#AFAEAE" d="M425.081,286.091c0,4.961-4.251,8.983-9.492,8.983c-5.242,0-9.494-4.022-9.494-8.983
		c0-4.963,4.252-8.986,9.494-8.986C420.83,277.104,425.081,281.128,425.081,286.091"/>
	<ellipse fill="none" stroke="#929292" stroke-miterlimit="10" cx="415.587" cy="286.091" rx="9.493" ry="8.983"/>
	<g>
		<g>
			<defs>
				<rect id="SVGID_21_" x="406.64" y="277.622" width="17.895" height="16.935"/>
			</defs>
			<clipPath id="SVGID_22_">
				<use xlink:href="#SVGID_21_"  overflow="visible"/>
			</clipPath>
			<path clip-path="url(#SVGID_22_)" fill="#BEBEBD" d="M424.535,286.091c0,4.675-4.007,8.466-8.946,8.466
				c-4.942,0-8.948-3.791-8.948-8.466c0-4.678,4.006-8.469,8.948-8.469C420.528,277.622,424.535,281.413,424.535,286.091"/>
			<path clip-path="url(#SVGID_22_)" fill="#C0C0C0" d="M424.324,286.091c0,4.563-3.915,8.267-8.735,8.267
				c-4.825,0-8.737-3.703-8.737-8.267c0-4.567,3.912-8.271,8.737-8.271C420.409,277.82,424.324,281.523,424.324,286.091"/>
			<path clip-path="url(#SVGID_22_)" fill="#C2C3C3" d="M424.114,286.091c0,4.454-3.82,8.069-8.525,8.069
				c-4.711,0-8.525-3.615-8.525-8.069c0-4.458,3.814-8.07,8.525-8.07C420.293,278.021,424.114,281.633,424.114,286.091"/>
			<path clip-path="url(#SVGID_22_)" fill="#C4C5C4" d="M423.9,286.091c0,4.345-3.719,7.868-8.312,7.868
				c-4.596,0-8.316-3.523-8.316-7.868c0-4.348,3.721-7.871,8.316-7.871C420.181,278.22,423.9,281.743,423.9,286.091"/>
			<path clip-path="url(#SVGID_22_)" fill="#C6C8C8" d="M423.692,286.091c0,4.233-3.63,7.669-8.104,7.669
				c-4.477,0-8.105-3.436-8.105-7.669c0-4.237,3.629-7.673,8.105-7.673C420.062,278.418,423.692,281.854,423.692,286.091"/>
			<path clip-path="url(#SVGID_22_)" fill="#C9CACB" d="M423.48,286.091c0,4.124-3.532,7.47-7.892,7.47s-7.896-3.346-7.896-7.47
				c0-4.128,3.537-7.473,7.896-7.473S423.48,281.963,423.48,286.091"/>
			<path clip-path="url(#SVGID_22_)" fill="#CBCDCD" d="M423.272,286.091c0,4.015-3.441,7.271-7.684,7.271
				c-4.244,0-7.684-3.257-7.684-7.271c0-4.018,3.439-7.275,7.684-7.275C419.831,278.815,423.272,282.073,423.272,286.091"/>
			<path clip-path="url(#SVGID_22_)" fill="#CCCFD0" d="M423.063,286.091c0,3.905-3.349,7.072-7.475,7.072s-7.474-3.167-7.474-7.072
				c0-3.907,3.348-7.074,7.474-7.074S423.063,282.184,423.063,286.091"/>
			<path clip-path="url(#SVGID_22_)" fill="#D0D2D2" d="M422.851,286.091c0,3.794-3.252,6.873-7.263,6.873
				c-4.012,0-7.264-3.079-7.264-6.873c0-3.798,3.252-6.877,7.264-6.877C419.599,279.214,422.851,282.293,422.851,286.091"/>
			<path clip-path="url(#SVGID_22_)" fill="#D2D4D5" d="M422.64,286.091c0,3.684-3.16,6.673-7.052,6.673
				c-3.897,0-7.056-2.989-7.056-6.673c0-3.688,3.158-6.676,7.056-6.676C419.48,279.415,422.64,282.402,422.64,286.091"/>
		</g>
	</g>
	<polygon fill="#605F5E" points="414.417,291.182 414.417,287.196 410.208,287.196 410.208,284.983 414.417,284.983 
		414.417,280.998 416.757,280.998 416.757,284.983 420.966,284.983 420.966,287.196 416.757,287.196 416.757,291.182 	"/>
	<path fill="#221714" d="M416.554,281.19v3.6v0.386h0.403h3.808v1.828h-3.808h-0.403v0.382v3.602h-1.932v-3.602v-0.382h-0.405
		h-3.807v-1.828h3.807h0.405v-0.386v-3.6H416.554z M416.958,280.807h-2.74v3.983h-4.211v2.596h4.211v3.985h2.74v-3.985h4.21v-2.596
		h-4.21V280.807z"/>
</g>
<g>
	<path fill="#AFAEAE" d="M311.634,444.775c0,6.752-5.78,12.226-12.917,12.226c-7.135,0-12.919-5.474-12.919-12.226
		c0-6.754,5.784-12.229,12.919-12.229C305.854,432.547,311.634,438.021,311.634,444.775"/>
	<ellipse fill="none" stroke="#929292" stroke-miterlimit="10" cx="298.716" cy="444.775" rx="12.918" ry="12.226"/>
	<path fill="#AFAEAE" d="M308.209,444.775c0,4.961-4.252,8.983-9.492,8.983c-5.242,0-9.494-4.022-9.494-8.983
		c0-4.963,4.252-8.986,9.494-8.986C303.958,435.789,308.209,439.813,308.209,444.775"/>
	<ellipse fill="none" stroke="#929292" stroke-miterlimit="10" cx="298.716" cy="444.775" rx="9.493" ry="8.983"/>
	<g>
		<g>
			<defs>
				<rect id="SVGID_23_" x="289.769" y="436.307" width="17.895" height="16.935"/>
			</defs>
			<clipPath id="SVGID_24_">
				<use xlink:href="#SVGID_23_"  overflow="visible"/>
			</clipPath>
			<path clip-path="url(#SVGID_24_)" fill="#BEBEBD" d="M307.664,444.775c0,4.675-4.007,8.466-8.946,8.466
				c-4.942,0-8.948-3.791-8.948-8.466c0-4.678,4.006-8.469,8.948-8.469C303.657,436.307,307.664,440.098,307.664,444.775"/>
			<path clip-path="url(#SVGID_24_)" fill="#C0C0C0" d="M307.453,444.775c0,4.563-3.915,8.267-8.735,8.267
				c-4.826,0-8.737-3.703-8.737-8.267c0-4.567,3.911-8.271,8.737-8.271C303.538,436.505,307.453,440.208,307.453,444.775"/>
			<path clip-path="url(#SVGID_24_)" fill="#C2C3C3" d="M307.243,444.775c0,4.454-3.818,8.069-8.525,8.069
				c-4.711,0-8.525-3.615-8.525-8.069c0-4.458,3.814-8.07,8.525-8.07C303.424,436.705,307.243,440.317,307.243,444.775"/>
			<path clip-path="url(#SVGID_24_)" fill="#C4C5C4" d="M307.03,444.775c0,4.345-3.72,7.868-8.313,7.868
				c-4.596,0-8.317-3.523-8.317-7.868c0-4.348,3.722-7.871,8.317-7.871C303.31,436.904,307.03,440.428,307.03,444.775"/>
			<path clip-path="url(#SVGID_24_)" fill="#C6C8C8" d="M306.821,444.775c0,4.233-3.63,7.669-8.104,7.669
				c-4.477,0-8.105-3.436-8.105-7.669c0-4.237,3.629-7.673,8.105-7.673C303.191,437.103,306.821,440.538,306.821,444.775"/>
			<path clip-path="url(#SVGID_24_)" fill="#C9CACB" d="M306.61,444.775c0,4.124-3.533,7.47-7.893,7.47s-7.896-3.346-7.896-7.47
				c0-4.128,3.536-7.473,7.896-7.473S306.61,440.647,306.61,444.775"/>
			<path clip-path="url(#SVGID_24_)" fill="#CBCDCD" d="M306.4,444.775c0,4.015-3.44,7.271-7.683,7.271
				c-4.244,0-7.685-3.257-7.685-7.271c0-4.018,3.44-7.275,7.685-7.275C302.959,437.5,306.4,440.758,306.4,444.775"/>
			<path clip-path="url(#SVGID_24_)" fill="#CCCFD0" d="M306.192,444.775c0,3.905-3.35,7.072-7.475,7.072
				c-4.127,0-7.474-3.167-7.474-7.072c0-3.907,3.347-7.074,7.474-7.074C302.842,437.701,306.192,440.868,306.192,444.775"/>
			<path clip-path="url(#SVGID_24_)" fill="#D0D2D2" d="M305.98,444.775c0,3.794-3.252,6.873-7.263,6.873
				c-4.012,0-7.263-3.079-7.263-6.873c0-3.798,3.251-6.877,7.263-6.877C302.728,437.898,305.98,440.978,305.98,444.775"/>
			<path clip-path="url(#SVGID_24_)" fill="#D2D4D5" d="M305.769,444.775c0,3.684-3.159,6.673-7.052,6.673
				c-3.897,0-7.055-2.989-7.055-6.673c0-3.688,3.157-6.676,7.055-6.676C302.61,438.1,305.769,441.087,305.769,444.775"/>
		</g>
	</g>
	<polygon fill="#605F5E" points="297.547,449.866 297.547,445.881 293.337,445.881 293.337,443.668 297.547,443.668 
		297.547,439.683 299.886,439.683 299.886,443.668 304.095,443.668 304.095,445.881 299.886,445.881 299.886,449.866 	"/>
	<path fill="#221714" d="M299.683,439.875v3.6v0.386h0.403h3.808v1.828h-3.808h-0.403v0.382v3.602h-1.932v-3.602v-0.382h-0.405
		h-3.807v-1.828h3.807h0.405v-0.386v-3.6H299.683z M300.086,439.491h-2.74v3.983h-4.21v2.596h4.21v3.985h2.74v-3.985h4.21v-2.596
		h-4.21V439.491z"/>
</g>
<g>
	<path fill="#AFAEAE" d="M199.074,444.775c0,6.752-5.78,12.226-12.917,12.226c-7.135,0-12.918-5.474-12.918-12.226
		c0-6.754,5.783-12.229,12.918-12.229C193.293,432.547,199.074,438.021,199.074,444.775"/>
	<ellipse fill="none" stroke="#929292" stroke-miterlimit="10" cx="186.156" cy="444.775" rx="12.917" ry="12.226"/>
	<path fill="#AFAEAE" d="M195.648,444.775c0,4.961-4.25,8.983-9.491,8.983c-5.243,0-9.494-4.022-9.494-8.983
		c0-4.963,4.251-8.986,9.494-8.986C191.398,435.789,195.648,439.813,195.648,444.775"/>
	<ellipse fill="none" stroke="#929292" stroke-miterlimit="10" cx="186.155" cy="444.775" rx="9.493" ry="8.983"/>
	<g>
		<g>
			<defs>
				<rect id="SVGID_25_" x="177.208" y="436.307" width="17.895" height="16.935"/>
			</defs>
			<clipPath id="SVGID_26_">
				<use xlink:href="#SVGID_25_"  overflow="visible"/>
			</clipPath>
			<path clip-path="url(#SVGID_26_)" fill="#BEBEBD" d="M195.103,444.775c0,4.675-4.007,8.466-8.946,8.466
				c-4.942,0-8.948-3.791-8.948-8.466c0-4.678,4.006-8.469,8.948-8.469C191.096,436.307,195.103,440.098,195.103,444.775"/>
			<path clip-path="url(#SVGID_26_)" fill="#C0C0C0" d="M194.891,444.775c0,4.563-3.913,8.267-8.734,8.267
				c-4.825,0-8.737-3.703-8.737-8.267c0-4.567,3.912-8.271,8.737-8.271C190.978,436.505,194.891,440.208,194.891,444.775"/>
			<path clip-path="url(#SVGID_26_)" fill="#C2C3C3" d="M194.682,444.775c0,4.454-3.818,8.069-8.525,8.069
				c-4.711,0-8.526-3.615-8.526-8.069c0-4.458,3.815-8.07,8.526-8.07C190.864,436.705,194.682,440.317,194.682,444.775"/>
			<path clip-path="url(#SVGID_26_)" fill="#C4C5C4" d="M194.469,444.775c0,4.345-3.72,7.868-8.313,7.868
				c-4.595,0-8.316-3.523-8.316-7.868c0-4.348,3.722-7.871,8.316-7.871C190.75,436.904,194.469,440.428,194.469,444.775"/>
			<path clip-path="url(#SVGID_26_)" fill="#C6C8C8" d="M194.26,444.775c0,4.233-3.63,7.669-8.104,7.669
				c-4.477,0-8.106-3.436-8.106-7.669c0-4.237,3.63-7.673,8.106-7.673C190.63,437.103,194.26,440.538,194.26,444.775"/>
			<path clip-path="url(#SVGID_26_)" fill="#C9CACB" d="M194.049,444.775c0,4.124-3.534,7.47-7.893,7.47
				c-4.359,0-7.896-3.346-7.896-7.47c0-4.128,3.536-7.473,7.896-7.473C190.515,437.303,194.049,440.647,194.049,444.775"/>
			<path clip-path="url(#SVGID_26_)" fill="#CBCDCD" d="M193.84,444.775c0,4.015-3.441,7.271-7.684,7.271
				c-4.244,0-7.684-3.257-7.684-7.271c0-4.018,3.439-7.275,7.684-7.275C190.399,437.5,193.84,440.758,193.84,444.775"/>
			<path clip-path="url(#SVGID_26_)" fill="#CCCFD0" d="M193.63,444.775c0,3.905-3.348,7.072-7.474,7.072s-7.474-3.167-7.474-7.072
				c0-3.907,3.348-7.074,7.474-7.074S193.63,440.868,193.63,444.775"/>
			<path clip-path="url(#SVGID_26_)" fill="#D0D2D2" d="M193.419,444.775c0,3.794-3.251,6.873-7.263,6.873
				c-4.011,0-7.263-3.079-7.263-6.873c0-3.798,3.252-6.877,7.263-6.877C190.168,437.898,193.419,440.978,193.419,444.775"/>
			<path clip-path="url(#SVGID_26_)" fill="#D2D4D5" d="M193.208,444.775c0,3.684-3.159,6.673-7.052,6.673
				c-3.898,0-7.055-2.989-7.055-6.673c0-3.688,3.156-6.676,7.055-6.676C190.049,438.1,193.208,441.087,193.208,444.775"/>
		</g>
	</g>
	<polygon fill="#605F5E" points="184.987,449.866 184.987,445.881 180.776,445.881 180.776,443.668 184.987,443.668 
		184.987,439.683 187.325,439.683 187.325,443.668 191.535,443.668 191.535,445.881 187.325,445.881 187.325,449.866 	"/>
	<path fill="#221714" d="M187.122,439.875v3.6v0.386h0.404h3.808v1.828h-3.808h-0.404v0.382v3.602h-1.931v-3.602v-0.382h-0.406
		h-3.806v-1.828h3.806h0.406v-0.386v-3.6H187.122z M187.526,439.491h-2.741v3.983h-4.209v2.596h4.209v3.985h2.741v-3.985h4.21
		v-2.596h-4.21V439.491z"/>
</g>
<g>
	<path fill="#AFAEAE" d="M43.462,446.133c0,6.752-5.78,12.226-12.917,12.226c-7.135,0-12.918-5.474-12.918-12.226
		c0-6.754,5.783-12.229,12.918-12.229C37.682,433.904,43.462,439.379,43.462,446.133"/>
	<ellipse fill="none" stroke="#929292" stroke-miterlimit="10" cx="30.545" cy="446.133" rx="12.917" ry="12.226"/>
	<path fill="#AFAEAE" d="M40.038,446.133c0,4.961-4.251,8.983-9.492,8.983c-5.242,0-9.495-4.022-9.495-8.983
		c0-4.963,4.253-8.986,9.495-8.986C35.787,437.146,40.038,441.17,40.038,446.133"/>
	<ellipse fill="none" stroke="#929292" stroke-miterlimit="10" cx="30.544" cy="446.133" rx="9.494" ry="8.983"/>
	<g>
		<g>
			<defs>
				<rect id="SVGID_27_" x="21.597" y="437.664" width="17.895" height="16.935"/>
			</defs>
			<clipPath id="SVGID_28_">
				<use xlink:href="#SVGID_27_"  overflow="visible"/>
			</clipPath>
			<path clip-path="url(#SVGID_28_)" fill="#BEBEBD" d="M39.492,446.133c0,4.675-4.008,8.466-8.946,8.466
				c-4.942,0-8.948-3.791-8.948-8.466c0-4.678,4.006-8.469,8.948-8.469C35.484,437.664,39.492,441.455,39.492,446.133"/>
			<path clip-path="url(#SVGID_28_)" fill="#C0C0C0" d="M39.281,446.133c0,4.563-3.914,8.267-8.735,8.267
				c-4.825,0-8.738-3.703-8.738-8.267c0-4.567,3.913-8.271,8.738-8.271C35.367,437.862,39.281,441.565,39.281,446.133"/>
			<path clip-path="url(#SVGID_28_)" fill="#C2C3C3" d="M39.071,446.133c0,4.454-3.818,8.069-8.525,8.069
				c-4.712,0-8.525-3.615-8.525-8.069c0-4.458,3.813-8.07,8.525-8.07C35.252,438.063,39.071,441.675,39.071,446.133"/>
			<path clip-path="url(#SVGID_28_)" fill="#C4C5C4" d="M38.858,446.133c0,4.345-3.72,7.868-8.313,7.868
				c-4.595,0-8.316-3.523-8.316-7.868c0-4.348,3.722-7.871,8.316-7.871C35.138,438.262,38.858,441.785,38.858,446.133"/>
			<path clip-path="url(#SVGID_28_)" fill="#C6C8C8" d="M38.648,446.133c0,4.233-3.629,7.669-8.103,7.669
				c-4.478,0-8.105-3.436-8.105-7.669c0-4.237,3.628-7.673,8.105-7.673C35.019,438.46,38.648,441.896,38.648,446.133"/>
			<path clip-path="url(#SVGID_28_)" fill="#C9CACB" d="M38.438,446.133c0,4.124-3.533,7.47-7.893,7.47s-7.896-3.346-7.896-7.47
				c0-4.128,3.536-7.473,7.896-7.473S38.438,442.005,38.438,446.133"/>
			<path clip-path="url(#SVGID_28_)" fill="#CBCDCD" d="M38.229,446.133c0,4.015-3.441,7.271-7.684,7.271
				c-4.244,0-7.684-3.257-7.684-7.271c0-4.018,3.439-7.275,7.684-7.275C34.788,438.857,38.229,442.115,38.229,446.133"/>
			<path clip-path="url(#SVGID_28_)" fill="#CCCFD0" d="M38.02,446.133c0,3.905-3.35,7.072-7.475,7.072
				c-4.126,0-7.474-3.167-7.474-7.072c0-3.907,3.348-7.074,7.474-7.074C34.67,439.059,38.02,442.226,38.02,446.133"/>
			<path clip-path="url(#SVGID_28_)" fill="#D0D2D2" d="M37.807,446.133c0,3.794-3.25,6.873-7.262,6.873
				c-4.011,0-7.263-3.079-7.263-6.873c0-3.798,3.252-6.877,7.263-6.877C34.557,439.256,37.807,442.335,37.807,446.133"/>
			<path clip-path="url(#SVGID_28_)" fill="#D2D4D5" d="M37.597,446.133c0,3.684-3.159,6.673-7.052,6.673
				c-3.897,0-7.055-2.989-7.055-6.673c0-3.688,3.157-6.676,7.055-6.676C34.438,439.457,37.597,442.444,37.597,446.133"/>
		</g>
	</g>
	<polygon fill="#605F5E" points="29.375,451.224 29.375,447.238 25.166,447.238 25.166,445.025 29.375,445.025 29.375,441.04 
		31.714,441.04 31.714,445.025 35.923,445.025 35.923,447.238 31.714,447.238 31.714,451.224 	"/>
	<path fill="#221714" d="M31.511,441.232v3.6v0.386h0.402h3.809v1.828h-3.809h-0.402v0.382v3.602H29.58v-3.602v-0.382h-0.405h-3.807
		v-1.828h3.807h0.405v-0.386v-3.6H31.511z M31.914,440.849h-2.739v3.983h-4.21v2.596h4.21v3.985h2.739v-3.985h4.211v-2.596h-4.211
		V440.849z"/>
</g>
<g>
	<path fill="#AFAEAE" d="M43.462,43.882c0,6.752-5.78,12.226-12.917,12.226c-7.135,0-12.918-5.474-12.918-12.226
		c0-6.754,5.783-12.229,12.918-12.229C37.682,31.653,43.462,37.128,43.462,43.882"/>
	<ellipse fill="none" stroke="#929292" stroke-miterlimit="10" cx="30.545" cy="43.882" rx="12.917" ry="12.226"/>
	<path fill="#AFAEAE" d="M40.038,43.882c0,4.961-4.251,8.983-9.492,8.983c-5.242,0-9.495-4.022-9.495-8.983
		c0-4.963,4.253-8.986,9.495-8.986C35.787,34.896,40.038,38.919,40.038,43.882"/>
	<ellipse fill="none" stroke="#929292" stroke-miterlimit="10" cx="30.544" cy="43.882" rx="9.494" ry="8.983"/>
	<g>
		<g>
			<defs>
				<rect id="SVGID_29_" x="21.597" y="35.413" width="17.895" height="16.935"/>
			</defs>
			<clipPath id="SVGID_30_">
				<use xlink:href="#SVGID_29_"  overflow="visible"/>
			</clipPath>
			<path clip-path="url(#SVGID_30_)" fill="#BEBEBD" d="M39.492,43.882c0,4.675-4.008,8.466-8.946,8.466
				c-4.942,0-8.948-3.791-8.948-8.466c0-4.678,4.006-8.469,8.948-8.469C35.484,35.413,39.492,39.204,39.492,43.882"/>
			<path clip-path="url(#SVGID_30_)" fill="#C0C0C0" d="M39.281,43.882c0,4.563-3.914,8.267-8.735,8.267
				c-4.825,0-8.738-3.703-8.738-8.267c0-4.567,3.913-8.271,8.738-8.271C35.367,35.611,39.281,39.314,39.281,43.882"/>
			<path clip-path="url(#SVGID_30_)" fill="#C2C3C3" d="M39.071,43.882c0,4.454-3.818,8.069-8.525,8.069
				c-4.712,0-8.525-3.615-8.525-8.069c0-4.458,3.813-8.07,8.525-8.07C35.252,35.812,39.071,39.424,39.071,43.882"/>
			<path clip-path="url(#SVGID_30_)" fill="#C4C5C4" d="M38.858,43.882c0,4.345-3.72,7.868-8.313,7.868
				c-4.595,0-8.316-3.523-8.316-7.868c0-4.348,3.722-7.871,8.316-7.871C35.138,36.011,38.858,39.534,38.858,43.882"/>
			<path clip-path="url(#SVGID_30_)" fill="#C6C8C8" d="M38.648,43.882c0,4.233-3.629,7.669-8.103,7.669
				c-4.478,0-8.105-3.436-8.105-7.669c0-4.237,3.628-7.673,8.105-7.673C35.019,36.209,38.648,39.645,38.648,43.882"/>
			<path clip-path="url(#SVGID_30_)" fill="#C9CACB" d="M38.438,43.882c0,4.124-3.533,7.47-7.893,7.47s-7.896-3.346-7.896-7.47
				c0-4.128,3.536-7.473,7.896-7.473S38.438,39.754,38.438,43.882"/>
			<path clip-path="url(#SVGID_30_)" fill="#CBCDCD" d="M38.229,43.882c0,4.015-3.441,7.271-7.684,7.271
				c-4.244,0-7.684-3.257-7.684-7.271c0-4.018,3.439-7.275,7.684-7.275C34.788,36.606,38.229,39.864,38.229,43.882"/>
			<path clip-path="url(#SVGID_30_)" fill="#CCCFD0" d="M38.02,43.882c0,3.905-3.35,7.072-7.475,7.072
				c-4.126,0-7.474-3.167-7.474-7.072c0-3.907,3.348-7.074,7.474-7.074C34.67,36.808,38.02,39.975,38.02,43.882"/>
			<path clip-path="url(#SVGID_30_)" fill="#D0D2D2" d="M37.807,43.882c0,3.794-3.25,6.873-7.262,6.873
				c-4.011,0-7.263-3.079-7.263-6.873c0-3.798,3.252-6.877,7.263-6.877C34.557,37.005,37.807,40.084,37.807,43.882"/>
			<path clip-path="url(#SVGID_30_)" fill="#D2D4D5" d="M37.597,43.882c0,3.684-3.159,6.673-7.052,6.673
				c-3.897,0-7.055-2.989-7.055-6.673c0-3.688,3.157-6.676,7.055-6.676C34.438,37.206,37.597,40.193,37.597,43.882"/>
		</g>
	</g>
	<polygon fill="#605F5E" points="29.375,48.973 29.375,44.987 25.166,44.987 25.166,42.774 29.375,42.774 29.375,38.789 
		31.714,38.789 31.714,42.774 35.923,42.774 35.923,44.987 31.714,44.987 31.714,48.973 	"/>
	<path fill="#221714" d="M31.511,38.981v3.6v0.386h0.402h3.809v1.828h-3.809h-0.402v0.382v3.602H29.58v-3.602v-0.382h-0.405h-3.807
		v-1.828h3.807h0.405v-0.386v-3.6H31.511z M31.914,38.598h-2.739v3.983h-4.21v2.596h4.21v3.985h2.739v-3.985h4.211v-2.596h-4.211
		V38.598z"/>
</g>
<g>
	<path fill="#AFAEAE" d="M428.505,70.239c0,6.752-5.78,12.227-12.917,12.227c-7.135,0-12.918-5.475-12.918-12.227
		c0-6.754,5.783-12.229,12.918-12.229C422.725,58.011,428.505,63.485,428.505,70.239"/>
	<ellipse fill="none" stroke="#929292" stroke-miterlimit="10" cx="415.588" cy="70.239" rx="12.917" ry="12.227"/>
	<path fill="#AFAEAE" d="M425.081,70.239c0,4.961-4.251,8.983-9.492,8.983c-5.242,0-9.494-4.022-9.494-8.983
		c0-4.963,4.252-8.986,9.494-8.986C420.83,61.253,425.081,65.276,425.081,70.239"/>
	<ellipse fill="none" stroke="#929292" stroke-miterlimit="10" cx="415.587" cy="70.239" rx="9.493" ry="8.983"/>
	<g>
		<g>
			<defs>
				<rect id="SVGID_31_" x="406.64" y="61.771" width="17.895" height="16.935"/>
			</defs>
			<clipPath id="SVGID_32_">
				<use xlink:href="#SVGID_31_"  overflow="visible"/>
			</clipPath>
			<path clip-path="url(#SVGID_32_)" fill="#BEBEBD" d="M424.535,70.239c0,4.675-4.007,8.466-8.946,8.466
				c-4.942,0-8.948-3.791-8.948-8.466c0-4.678,4.006-8.469,8.948-8.469C420.528,61.771,424.535,65.562,424.535,70.239"/>
			<path clip-path="url(#SVGID_32_)" fill="#C0C0C0" d="M424.324,70.239c0,4.563-3.915,8.267-8.735,8.267
				c-4.825,0-8.737-3.703-8.737-8.267c0-4.567,3.912-8.271,8.737-8.271C420.409,61.969,424.324,65.672,424.324,70.239"/>
			<path clip-path="url(#SVGID_32_)" fill="#C2C3C3" d="M424.114,70.239c0,4.454-3.82,8.069-8.525,8.069
				c-4.711,0-8.525-3.615-8.525-8.069c0-4.458,3.814-8.07,8.525-8.07C420.293,62.169,424.114,65.781,424.114,70.239"/>
			<path clip-path="url(#SVGID_32_)" fill="#C4C5C4" d="M423.9,70.239c0,4.345-3.719,7.868-8.312,7.868
				c-4.596,0-8.316-3.523-8.316-7.868c0-4.348,3.721-7.871,8.316-7.871C420.181,62.368,423.9,65.892,423.9,70.239"/>
			<path clip-path="url(#SVGID_32_)" fill="#C6C8C8" d="M423.692,70.239c0,4.233-3.63,7.669-8.104,7.669
				c-4.477,0-8.105-3.436-8.105-7.669c0-4.237,3.629-7.673,8.105-7.673C420.062,62.566,423.692,66.002,423.692,70.239"/>
			<path clip-path="url(#SVGID_32_)" fill="#C9CACB" d="M423.48,70.239c0,4.124-3.532,7.47-7.892,7.47s-7.896-3.346-7.896-7.47
				c0-4.128,3.537-7.473,7.896-7.473S423.48,66.111,423.48,70.239"/>
			<path clip-path="url(#SVGID_32_)" fill="#CBCDCD" d="M423.272,70.239c0,4.015-3.441,7.271-7.684,7.271
				c-4.244,0-7.684-3.257-7.684-7.271c0-4.018,3.439-7.275,7.684-7.275C419.831,62.964,423.272,66.222,423.272,70.239"/>
			<path clip-path="url(#SVGID_32_)" fill="#CCCFD0" d="M423.063,70.239c0,3.905-3.349,7.072-7.475,7.072s-7.474-3.167-7.474-7.072
				c0-3.907,3.348-7.074,7.474-7.074S423.063,66.332,423.063,70.239"/>
			<path clip-path="url(#SVGID_32_)" fill="#D0D2D2" d="M422.851,70.239c0,3.794-3.252,6.873-7.263,6.873
				c-4.012,0-7.264-3.079-7.264-6.873c0-3.798,3.252-6.877,7.264-6.877C419.599,63.362,422.851,66.441,422.851,70.239"/>
			<path clip-path="url(#SVGID_32_)" fill="#D2D4D5" d="M422.64,70.239c0,3.684-3.16,6.673-7.052,6.673
				c-3.897,0-7.056-2.989-7.056-6.673c0-3.688,3.158-6.676,7.056-6.676C419.48,63.563,422.64,66.551,422.64,70.239"/>
		</g>
	</g>
	<polygon fill="#605F5E" points="414.417,75.33 414.417,71.345 410.208,71.345 410.208,69.133 414.417,69.133 414.417,65.146 
		416.757,65.146 416.757,69.133 420.966,69.133 420.966,71.345 416.757,71.345 416.757,75.33 	"/>
	<path fill="#221714" d="M416.554,65.339v3.6v0.386h0.403h3.808v1.828h-3.808h-0.403v0.382v3.602h-1.932v-3.602v-0.382h-0.405
		h-3.807v-1.828h3.807h0.405v-0.386v-3.6H416.554z M416.958,64.955h-2.74v3.983h-4.211v2.596h4.211v3.985h2.74v-3.985h4.21v-2.596
		h-4.21V64.955z"/>
</g>
<linearGradient id="SVGID_33_" gradientUnits="userSpaceOnUse" x1="31.0347" y1="185.4014" x2="322.2896" y2="185.4014">
	<stop  offset="0" style="stop-color:#BEBDBE"/>
	<stop  offset="0.2151" style="stop-color:#E0E0DF"/>
	<stop  offset="0.5323" style="stop-color:#C1C0C0"/>
	<stop  offset="0.8065" style="stop-color:#E0E0DF"/>
	<stop  offset="0.9871" style="stop-color:#B1B4B5"/>
</linearGradient>
<path fill="url(#SVGID_33_)" stroke="#504F4F" stroke-miterlimit="10" d="M322.29,307.912c0,6.627-5.372,12-12,12H43.035
	c-6.627,0-12-5.373-12-12V62.891c0-6.628,5.373-12,12-12H310.29c6.628,0,12,5.372,12,12V307.912z"/>
<g>
	<g>
		<path fill="#AFAEAE" d="M53.824,65.861c0,5.807-4.711,10.512-10.522,10.512s-10.522-4.705-10.522-10.512
			c0-5.806,4.711-10.512,10.522-10.512S53.824,60.056,53.824,65.861"/>
		<ellipse fill="none" stroke="#929292" stroke-miterlimit="10" cx="43.301" cy="65.861" rx="10.522" ry="10.512"/>
		<path fill="#AFAEAE" d="M51.032,65.861c0,4.265-3.46,7.725-7.73,7.725s-7.73-3.46-7.73-7.725c0-4.267,3.46-7.725,7.73-7.725
			S51.032,61.595,51.032,65.861"/>
		<ellipse fill="none" stroke="#929292" stroke-miterlimit="10" cx="43.301" cy="65.861" rx="7.73" ry="7.725"/>
		<g>
			<g>
				<defs>
					<rect id="SVGID_34_" x="36.011" y="58.582" width="14.578" height="14.559"/>
				</defs>
				<clipPath id="SVGID_35_">
					<use xlink:href="#SVGID_34_"  overflow="visible"/>
				</clipPath>
				<path clip-path="url(#SVGID_35_)" fill="#BEBEBD" d="M50.586,65.861c0,4.02-3.262,7.279-7.285,7.279
					c-4.025,0-7.288-3.26-7.288-7.279c0-4.019,3.263-7.279,7.288-7.279C47.325,58.582,50.586,61.843,50.586,65.861"/>
				<path clip-path="url(#SVGID_35_)" fill="#C0C0C0" d="M50.416,65.861c0,3.926-3.186,7.107-7.114,7.107
					c-3.932,0-7.114-3.182-7.114-7.107s3.183-7.108,7.114-7.108C47.23,58.753,50.416,61.936,50.416,65.861"/>
				<path clip-path="url(#SVGID_35_)" fill="#C2C3C3" d="M50.247,65.861c0,3.83-3.112,6.938-6.945,6.938
					c-3.835,0-6.942-3.108-6.942-6.938c0-3.831,3.107-6.936,6.942-6.936C47.134,58.926,50.247,62.03,50.247,65.861"/>
				<path clip-path="url(#SVGID_35_)" fill="#C4C5C4" d="M50.073,65.861c0,3.737-3.031,6.766-6.771,6.766s-6.771-3.028-6.771-6.766
					s3.031-6.766,6.771-6.766S50.073,62.124,50.073,65.861"/>
				<path clip-path="url(#SVGID_35_)" fill="#C6C8C8" d="M49.904,65.861c0,3.642-2.958,6.595-6.603,6.595
					c-3.646,0-6.601-2.953-6.601-6.595s2.955-6.595,6.601-6.595C46.946,59.267,49.904,62.22,49.904,65.861"/>
				<path clip-path="url(#SVGID_35_)" fill="#C9CACB" d="M49.73,65.861c0,3.547-2.877,6.423-6.429,6.423s-6.429-2.876-6.429-6.423
					c0-3.548,2.877-6.424,6.429-6.424S49.73,62.313,49.73,65.861"/>
				<path clip-path="url(#SVGID_35_)" fill="#CBCDCD" d="M49.559,65.861c0,3.452-2.803,6.253-6.258,6.253
					c-3.457,0-6.258-2.801-6.258-6.253c0-3.453,2.801-6.253,6.258-6.253C46.756,59.608,49.559,62.408,49.559,65.861"/>
				<path clip-path="url(#SVGID_35_)" fill="#CCCFD0" d="M49.387,65.861c0,3.357-2.726,6.081-6.086,6.081
					c-3.361,0-6.087-2.724-6.087-6.081c0-3.359,2.726-6.081,6.087-6.081C46.662,59.78,49.387,62.502,49.387,65.861"/>
				<path clip-path="url(#SVGID_35_)" fill="#D0D2D2" d="M49.216,65.861c0,3.264-2.648,5.91-5.915,5.91s-5.915-2.646-5.915-5.91
					s2.648-5.91,5.915-5.91S49.216,62.598,49.216,65.861"/>
				<path clip-path="url(#SVGID_35_)" fill="#D2D4D5" d="M49.045,65.861c0,3.169-2.572,5.738-5.744,5.738s-5.744-2.569-5.744-5.738
					c0-3.17,2.572-5.737,5.744-5.737S49.045,62.691,49.045,65.861"/>
			</g>
		</g>
		<polygon fill="#605F5E" points="42.35,70.238 42.35,66.813 38.919,66.813 38.919,64.91 42.35,64.91 42.35,61.485 44.252,61.485 
			44.252,64.91 47.682,64.91 47.682,66.813 44.252,66.813 44.252,70.238 		"/>
		<path fill="#221714" d="M44.088,61.649v3.095v0.331h0.329h3.101v1.571h-3.101h-0.329v0.33v3.096h-1.574v-3.096v-0.33h-0.331
			h-3.099v-1.571h3.099h0.331v-0.331v-3.095H44.088z M44.417,61.32h-2.234v3.424h-3.428v2.232h3.428v3.426h2.234v-3.426h3.429
			v-2.232h-3.429V61.32z"/>
	</g>
	<g>
		<path fill="#AFAEAE" d="M321.638,65.861c0,5.807-4.712,10.512-10.522,10.512s-10.522-4.705-10.522-10.512
			c0-5.806,4.712-10.512,10.522-10.512S321.638,60.056,321.638,65.861"/>
		<ellipse fill="none" stroke="#929292" stroke-miterlimit="10" cx="311.116" cy="65.861" rx="10.522" ry="10.512"/>
		<path fill="#AFAEAE" d="M318.846,65.861c0,4.265-3.462,7.725-7.73,7.725c-4.271,0-7.73-3.46-7.73-7.725
			c0-4.267,3.46-7.725,7.73-7.725C315.384,58.137,318.846,61.595,318.846,65.861"/>
		<ellipse fill="none" stroke="#929292" stroke-miterlimit="10" cx="311.116" cy="65.861" rx="7.73" ry="7.725"/>
		<g>
			<g>
				<defs>
					<rect id="SVGID_36_" x="303.827" y="58.582" width="14.575" height="14.559"/>
				</defs>
				<clipPath id="SVGID_37_">
					<use xlink:href="#SVGID_36_"  overflow="visible"/>
				</clipPath>
				<path clip-path="url(#SVGID_37_)" fill="#BEBEBD" d="M318.4,65.861c0,4.02-3.261,7.279-7.284,7.279
					c-4.026,0-7.288-3.26-7.288-7.279c0-4.019,3.262-7.279,7.288-7.279C315.139,58.582,318.4,61.843,318.4,65.861"/>
				<path clip-path="url(#SVGID_37_)" fill="#C0C0C0" d="M318.23,65.861c0,3.926-3.185,7.107-7.114,7.107S304,69.787,304,65.861
					s3.186-7.108,7.115-7.108S318.23,61.936,318.23,65.861"/>
				<path clip-path="url(#SVGID_37_)" fill="#C2C3C3" d="M318.058,65.861c0,3.83-3.109,6.938-6.942,6.938
					c-3.835,0-6.944-3.108-6.944-6.938c0-3.831,3.109-6.936,6.944-6.936C314.949,58.926,318.058,62.03,318.058,65.861"/>
				<path clip-path="url(#SVGID_37_)" fill="#C4C5C4" d="M317.887,65.861c0,3.737-3.032,6.766-6.771,6.766
					c-3.742,0-6.773-3.028-6.773-6.766s3.031-6.766,6.773-6.766C314.855,59.096,317.887,62.124,317.887,65.861"/>
				<path clip-path="url(#SVGID_37_)" fill="#C6C8C8" d="M317.716,65.861c0,3.642-2.956,6.595-6.601,6.595
					c-3.646,0-6.602-2.953-6.602-6.595s2.956-6.595,6.602-6.595C314.76,59.267,317.716,62.22,317.716,65.861"/>
				<path clip-path="url(#SVGID_37_)" fill="#C9CACB" d="M317.544,65.861c0,3.547-2.879,6.423-6.429,6.423
					c-3.552,0-6.429-2.876-6.429-6.423c0-3.548,2.877-6.424,6.429-6.424C314.666,59.438,317.544,62.313,317.544,65.861"/>
				<path clip-path="url(#SVGID_37_)" fill="#CBCDCD" d="M317.374,65.861c0,3.452-2.803,6.253-6.258,6.253
					c-3.457,0-6.26-2.801-6.26-6.253c0-3.453,2.803-6.253,6.26-6.253C314.571,59.608,317.374,62.408,317.374,65.861"/>
				<path clip-path="url(#SVGID_37_)" fill="#CCCFD0" d="M317.203,65.861c0,3.357-2.728,6.081-6.087,6.081
					c-3.361,0-6.088-2.724-6.088-6.081c0-3.359,2.727-6.081,6.088-6.081C314.475,59.78,317.203,62.502,317.203,65.861"/>
				<path clip-path="url(#SVGID_37_)" fill="#D0D2D2" d="M317.031,65.861c0,3.264-2.648,5.91-5.915,5.91
					c-3.268,0-5.917-2.646-5.917-5.91s2.649-5.91,5.917-5.91C314.382,59.951,317.031,62.598,317.031,65.861"/>
				<path clip-path="url(#SVGID_37_)" fill="#D2D4D5" d="M316.859,65.861c0,3.169-2.572,5.738-5.743,5.738
					c-3.174,0-5.746-2.569-5.746-5.738c0-3.17,2.572-5.737,5.746-5.737C314.287,60.124,316.859,62.691,316.859,65.861"/>
			</g>
		</g>
		<polygon fill="#605F5E" points="310.162,70.238 310.162,66.813 306.732,66.813 306.732,64.91 310.162,64.91 310.162,61.485 
			312.067,61.485 312.067,64.91 315.497,64.91 315.497,66.813 312.067,66.813 312.067,70.238 		"/>
		<path fill="#221714" d="M311.903,61.649v3.095v0.331h0.329h3.101v1.571h-3.101h-0.329v0.33v3.096h-1.575v-3.096v-0.33h-0.329h-3.1
			v-1.571h3.1h0.329v-0.331v-3.095H311.903z M312.232,61.32h-2.233v3.424h-3.431v2.232h3.431v3.426h2.233v-3.426h3.429v-2.232
			h-3.429V61.32z"/>
	</g>
</g>
<g>
	<g>
		<path fill="#AFAEAE" d="M53.824,305.627c0,5.807-4.711,10.512-10.522,10.512s-10.522-4.705-10.522-10.512
			c0-5.806,4.711-10.512,10.522-10.512S53.824,299.821,53.824,305.627"/>
		<ellipse fill="none" stroke="#929292" stroke-miterlimit="10" cx="43.301" cy="305.627" rx="10.522" ry="10.512"/>
		<path fill="#AFAEAE" d="M51.032,305.627c0,4.265-3.46,7.725-7.73,7.725s-7.73-3.46-7.73-7.725c0-4.267,3.46-7.725,7.73-7.725
			S51.032,301.36,51.032,305.627"/>
		<ellipse fill="none" stroke="#929292" stroke-miterlimit="10" cx="43.301" cy="305.627" rx="7.73" ry="7.725"/>
		<g>
			<g>
				<defs>
					<rect id="SVGID_38_" x="36.011" y="298.348" width="14.578" height="14.559"/>
				</defs>
				<clipPath id="SVGID_39_">
					<use xlink:href="#SVGID_38_"  overflow="visible"/>
				</clipPath>
				<path clip-path="url(#SVGID_39_)" fill="#BEBEBD" d="M50.586,305.627c0,4.02-3.262,7.279-7.285,7.279
					c-4.025,0-7.288-3.26-7.288-7.279s3.263-7.279,7.288-7.279C47.325,298.348,50.586,301.607,50.586,305.627"/>
				<path clip-path="url(#SVGID_39_)" fill="#C0C0C0" d="M50.416,305.627c0,3.926-3.186,7.107-7.114,7.107
					c-3.932,0-7.114-3.182-7.114-7.107s3.183-7.108,7.114-7.108C47.23,298.519,50.416,301.701,50.416,305.627"/>
				<path clip-path="url(#SVGID_39_)" fill="#C2C3C3" d="M50.247,305.627c0,3.83-3.112,6.938-6.945,6.938
					c-3.835,0-6.942-3.107-6.942-6.938c0-3.831,3.107-6.937,6.942-6.937C47.134,298.69,50.247,301.796,50.247,305.627"/>
				<path clip-path="url(#SVGID_39_)" fill="#C4C5C4" d="M50.073,305.627c0,3.737-3.031,6.766-6.771,6.766s-6.771-3.028-6.771-6.766
					s3.031-6.766,6.771-6.766S50.073,301.89,50.073,305.627"/>
				<path clip-path="url(#SVGID_39_)" fill="#C6C8C8" d="M49.904,305.627c0,3.642-2.958,6.595-6.603,6.595
					c-3.646,0-6.601-2.953-6.601-6.595s2.955-6.595,6.601-6.595C46.946,299.032,49.904,301.985,49.904,305.627"/>
				<path clip-path="url(#SVGID_39_)" fill="#C9CACB" d="M49.73,305.627c0,3.547-2.877,6.423-6.429,6.423s-6.429-2.876-6.429-6.423
					c0-3.548,2.877-6.424,6.429-6.424S49.73,302.079,49.73,305.627"/>
				<path clip-path="url(#SVGID_39_)" fill="#CBCDCD" d="M49.559,305.627c0,3.452-2.803,6.253-6.258,6.253
					c-3.457,0-6.258-2.801-6.258-6.253c0-3.453,2.801-6.253,6.258-6.253C46.756,299.374,49.559,302.174,49.559,305.627"/>
				<path clip-path="url(#SVGID_39_)" fill="#CCCFD0" d="M49.387,305.627c0,3.357-2.726,6.081-6.086,6.081
					c-3.361,0-6.087-2.724-6.087-6.081c0-3.359,2.726-6.081,6.087-6.081C46.662,299.546,49.387,302.268,49.387,305.627"/>
				<path clip-path="url(#SVGID_39_)" fill="#D0D2D2" d="M49.216,305.627c0,3.264-2.648,5.91-5.915,5.91s-5.915-2.646-5.915-5.91
					s2.648-5.91,5.915-5.91S49.216,302.363,49.216,305.627"/>
				<path clip-path="url(#SVGID_39_)" fill="#D2D4D5" d="M49.045,305.627c0,3.169-2.572,5.738-5.744,5.738s-5.744-2.569-5.744-5.738
					c0-3.17,2.572-5.737,5.744-5.737S49.045,302.457,49.045,305.627"/>
			</g>
		</g>
		<polygon fill="#605F5E" points="42.35,310.004 42.35,306.579 38.919,306.579 38.919,304.676 42.35,304.676 42.35,301.251 
			44.252,301.251 44.252,304.676 47.682,304.676 47.682,306.579 44.252,306.579 44.252,310.004 		"/>
		<path fill="#221714" d="M44.088,301.415v3.095v0.331h0.329h3.101v1.571h-3.101h-0.329v0.33v3.096h-1.574v-3.096v-0.33h-0.331
			h-3.099v-1.571h3.099h0.331v-0.331v-3.095H44.088z M44.417,301.086h-2.234v3.424h-3.428v2.232h3.428v3.426h2.234v-3.426h3.429
			v-2.232h-3.429V301.086z"/>
	</g>
	<g>
		<path fill="#AFAEAE" d="M321.638,305.627c0,5.807-4.712,10.512-10.522,10.512s-10.522-4.705-10.522-10.512
			c0-5.806,4.712-10.512,10.522-10.512S321.638,299.821,321.638,305.627"/>
		<ellipse fill="none" stroke="#929292" stroke-miterlimit="10" cx="311.116" cy="305.627" rx="10.522" ry="10.512"/>
		<path fill="#AFAEAE" d="M318.846,305.627c0,4.265-3.462,7.725-7.73,7.725c-4.271,0-7.73-3.46-7.73-7.725
			c0-4.267,3.46-7.725,7.73-7.725C315.384,297.902,318.846,301.36,318.846,305.627"/>
		<ellipse fill="none" stroke="#929292" stroke-miterlimit="10" cx="311.116" cy="305.627" rx="7.73" ry="7.725"/>
		<g>
			<g>
				<defs>
					<rect id="SVGID_40_" x="303.827" y="298.348" width="14.575" height="14.559"/>
				</defs>
				<clipPath id="SVGID_41_">
					<use xlink:href="#SVGID_40_"  overflow="visible"/>
				</clipPath>
				<path clip-path="url(#SVGID_41_)" fill="#BEBEBD" d="M318.4,305.627c0,4.02-3.261,7.279-7.284,7.279
					c-4.026,0-7.288-3.26-7.288-7.279s3.262-7.279,7.288-7.279C315.139,298.348,318.4,301.607,318.4,305.627"/>
				<path clip-path="url(#SVGID_41_)" fill="#C0C0C0" d="M318.23,305.627c0,3.926-3.185,7.107-7.114,7.107S304,309.553,304,305.627
					s3.186-7.108,7.115-7.108S318.23,301.701,318.23,305.627"/>
				<path clip-path="url(#SVGID_41_)" fill="#C2C3C3" d="M318.058,305.627c0,3.83-3.109,6.938-6.942,6.938
					c-3.835,0-6.944-3.107-6.944-6.938c0-3.831,3.109-6.937,6.944-6.937C314.949,298.69,318.058,301.796,318.058,305.627"/>
				<path clip-path="url(#SVGID_41_)" fill="#C4C5C4" d="M317.887,305.627c0,3.737-3.032,6.766-6.771,6.766
					c-3.742,0-6.773-3.028-6.773-6.766s3.031-6.766,6.773-6.766C314.855,298.861,317.887,301.89,317.887,305.627"/>
				<path clip-path="url(#SVGID_41_)" fill="#C6C8C8" d="M317.716,305.627c0,3.642-2.956,6.595-6.601,6.595
					c-3.646,0-6.602-2.953-6.602-6.595s2.956-6.595,6.602-6.595C314.76,299.032,317.716,301.985,317.716,305.627"/>
				<path clip-path="url(#SVGID_41_)" fill="#C9CACB" d="M317.544,305.627c0,3.547-2.879,6.423-6.429,6.423
					c-3.552,0-6.429-2.876-6.429-6.423c0-3.548,2.877-6.424,6.429-6.424C314.666,299.203,317.544,302.079,317.544,305.627"/>
				<path clip-path="url(#SVGID_41_)" fill="#CBCDCD" d="M317.374,305.627c0,3.452-2.803,6.253-6.258,6.253
					c-3.457,0-6.26-2.801-6.26-6.253c0-3.453,2.803-6.253,6.26-6.253C314.571,299.374,317.374,302.174,317.374,305.627"/>
				<path clip-path="url(#SVGID_41_)" fill="#CCCFD0" d="M317.203,305.627c0,3.357-2.728,6.081-6.087,6.081
					c-3.361,0-6.088-2.724-6.088-6.081c0-3.359,2.727-6.081,6.088-6.081C314.475,299.546,317.203,302.268,317.203,305.627"/>
				<path clip-path="url(#SVGID_41_)" fill="#D0D2D2" d="M317.031,305.627c0,3.264-2.648,5.91-5.915,5.91
					c-3.268,0-5.917-2.646-5.917-5.91s2.649-5.91,5.917-5.91C314.382,299.717,317.031,302.363,317.031,305.627"/>
				<path clip-path="url(#SVGID_41_)" fill="#D2D4D5" d="M316.859,305.627c0,3.169-2.572,5.738-5.743,5.738
					c-3.174,0-5.746-2.569-5.746-5.738c0-3.17,2.572-5.737,5.746-5.737C314.287,299.89,316.859,302.457,316.859,305.627"/>
			</g>
		</g>
		<polygon fill="#605F5E" points="310.162,310.004 310.162,306.579 306.732,306.579 306.732,304.676 310.162,304.676 
			310.162,301.251 312.067,301.251 312.067,304.676 315.497,304.676 315.497,306.579 312.067,306.579 312.067,310.004 		"/>
		<path fill="#221714" d="M311.903,301.415v3.095v0.331h0.329h3.101v1.571h-3.101h-0.329v0.33v3.096h-1.575v-3.096v-0.33h-0.329
			h-3.1v-1.571h3.1h0.329v-0.331v-3.095H311.903z M312.232,301.086h-2.233v3.424h-3.431v2.232h3.431v3.426h2.233v-3.426h3.429
			v-2.232h-3.429V301.086z"/>
	</g>
</g>
<g>
	<g>
		<path fill="none" stroke="#121313" stroke-width="20" stroke-linecap="round" stroke-miterlimit="10" d="M99.662,99.751
			c21.959-17.02,49.527-27.149,79.462-27.149"/>
		<path fill="none" stroke="#121313" stroke-width="20" stroke-linecap="round" stroke-miterlimit="10" d="M63.174,214.246
			c-3.759-27.525,1.252-56.466,16.221-82.391"/>
		<path fill="none" stroke="#121313" stroke-width="20" stroke-linecap="round" stroke-miterlimit="10" d="M144.088,303.093
			c-25.719-10.507-48.274-29.317-63.242-55.242"/>
		<path fill="none" stroke="#121313" stroke-width="20" stroke-linecap="round" stroke-miterlimit="10" d="M261.488,277.443
			c-21.957,17.019-49.525,27.147-79.461,27.148"/>
		<path fill="none" stroke="#121313" stroke-width="20" stroke-linecap="round" stroke-miterlimit="10" d="M297.975,162.947
			c3.761,27.525-1.253,56.465-16.22,82.39"/>
		<path fill="none" stroke="#121313" stroke-width="20" stroke-linecap="round" stroke-miterlimit="10" d="M217.062,74.101
			c25.719,10.506,48.273,29.317,63.242,55.241"/>
	</g>
	<g>
		<path fill="none" stroke="#121313" stroke-width="20" stroke-linecap="round" stroke-miterlimit="10" d="M119.104,121.1
			c16.683-12.93,37.627-20.625,60.368-20.625"/>
		<path fill="none" stroke="#121313" stroke-width="20" stroke-linecap="round" stroke-miterlimit="10" d="M91.386,208.082
			c-2.856-20.91,0.951-42.896,12.322-62.592"/>
		<path fill="none" stroke="#121313" stroke-width="20" stroke-linecap="round" stroke-miterlimit="10" d="M152.856,275.58
			c-19.538-7.982-36.675-22.272-48.046-41.968"/>
		<path fill="none" stroke="#121313" stroke-width="20" stroke-linecap="round" stroke-miterlimit="10" d="M242.045,256.094
			c-16.681,12.93-37.625,20.625-60.367,20.625"/>
		<path fill="none" stroke="#121313" stroke-width="20" stroke-linecap="round" stroke-miterlimit="10" d="M269.765,169.111
			c2.857,20.91-0.952,42.896-12.322,62.592"/>
		<path fill="none" stroke="#121313" stroke-width="20" stroke-linecap="round" stroke-miterlimit="10" d="M208.293,101.613
			c19.54,7.981,36.675,22.272,48.047,41.967"/>
	</g>
	<g>
		<path fill="none" stroke="#121313" stroke-width="15" stroke-linecap="round" stroke-miterlimit="10" d="M134.296,137.781
			c12.56-9.734,28.328-15.527,45.448-15.527"/>
		<path fill="none" stroke="#121313" stroke-width="15" stroke-linecap="round" stroke-miterlimit="10" d="M113.429,203.267
			c-2.15-15.743,0.716-32.295,9.276-47.122"/>
		<path fill="none" stroke="#121313" stroke-width="15" stroke-linecap="round" stroke-miterlimit="10" d="M159.706,254.082
			c-14.708-6.01-27.61-16.768-36.171-31.596"/>
		<path fill="none" stroke="#121313" stroke-width="15" stroke-linecap="round" stroke-miterlimit="10" d="M226.853,239.412
			c-12.56,9.734-28.326,15.527-45.447,15.527"/>
		<path fill="none" stroke="#121313" stroke-width="15" stroke-linecap="round" stroke-miterlimit="10" d="M247.722,173.928
			c2.151,15.742-0.717,32.294-9.277,47.122"/>
		<path fill="none" stroke="#121313" stroke-width="15" stroke-linecap="round" stroke-miterlimit="10" d="M201.444,123.111
			c14.71,6.008,27.61,16.768,36.171,31.594"/>
	</g>
	<g>
		<path fill="none" stroke="#121313" stroke-width="10" stroke-linecap="round" stroke-miterlimit="10" d="M148.99,153.914
			c8.572-6.645,19.334-10.598,31.02-10.598"/>
		<path fill="none" stroke="#121313" stroke-width="10" stroke-linecap="round" stroke-miterlimit="10" d="M134.748,198.609
			c-1.469-10.745,0.488-22.042,6.331-32.162"/>
		<path fill="none" stroke="#121313" stroke-width="10" stroke-linecap="round" stroke-miterlimit="10" d="M166.333,233.291
			c-10.04-4.102-18.846-11.443-24.689-21.564"/>
		<path fill="none" stroke="#121313" stroke-width="10" stroke-linecap="round" stroke-miterlimit="10" d="M212.162,223.279
			c-8.571,6.644-19.334,10.598-31.02,10.598"/>
		<path fill="none" stroke="#121313" stroke-width="10" stroke-linecap="round" stroke-miterlimit="10" d="M226.405,178.585
			c1.468,10.744-0.489,22.041-6.332,32.161"/>
		<path fill="none" stroke="#121313" stroke-width="10" stroke-linecap="round" stroke-miterlimit="10" d="M194.819,143.901
			c10.04,4.101,18.845,11.444,24.688,21.563"/>
	</g>
</g>
</svg>
