<?xml version="1.0" encoding="utf-8"?>
<!-- Generator: Adobe Illustrator 16.0.0, SVG Export Plug-In . SVG Version: 6.00 Build 0)  -->
<!DOCTYPE svg PUBLIC "-//W3C//DTD SVG 1.1//EN" "http://www.w3.org/Graphics/SVG/1.1/DTD/svg11.dtd">
<svg version="1.1" id="图层_1" xmlns="http://www.w3.org/2000/svg" xmlns:xlink="http://www.w3.org/1999/xlink" x="0px" y="0px"
	 width="1275.59px" height="126.14px" viewBox="0 0 1275.59 126.14" enable-background="new 0 0 1275.59 126.14"
	 xml:space="preserve">
<rect x="-0.001" y="-0.001" fill="#2F302F" width="1275.592" height="126.142"/>
<linearGradient id="SVGID_1_" gradientUnits="userSpaceOnUse" x1="-9.765625e-004" y1="63.0698" x2="60.1494" y2="63.0698">
	<stop  offset="0" style="stop-color:#343535"/>
	<stop  offset="0.7778" style="stop-color:#343535"/>
	<stop  offset="0.8835" style="stop-color:#636666"/>
	<stop  offset="1" style="stop-color:#030000"/>
</linearGradient>
<rect x="-0.001" y="-0.001" fill="url(#SVGID_1_)" width="60.15" height="126.142"/>
<linearGradient id="SVGID_2_" gradientUnits="userSpaceOnUse" x1="-7095.8525" y1="63.0698" x2="-7035.7031" y2="63.0698" gradientTransform="matrix(-1 0 0 1 -5820.2617 0)">
	<stop  offset="0" style="stop-color:#343535"/>
	<stop  offset="0.7778" style="stop-color:#343535"/>
	<stop  offset="0.8835" style="stop-color:#636666"/>
	<stop  offset="1" style="stop-color:#030000"/>
</linearGradient>
<rect x="1215.441" y="-0.001" fill="url(#SVGID_2_)" width="60.149" height="126.142"/>
<g>
	<g>
		<path fill="#B7B6B6" d="M35.129,15.367c0,3.932-3.387,7.118-7.562,7.118H11.251c-4.177,0-7.562-3.187-7.562-7.118l0,0
			c0-3.932,3.385-7.119,7.562-7.119h16.316C31.742,8.248,35.129,11.436,35.129,15.367L35.129,15.367z"/>
		<path fill="#0E0D0D" d="M34.233,15.165c0,3.82-3.288,6.916-7.345,6.916H11.037c-4.059,0-7.348-3.096-7.348-6.916l0,0
			c0-3.82,3.289-6.917,7.348-6.917h15.852C30.945,8.248,34.233,11.345,34.233,15.165L34.233,15.165z"/>
	</g>
	<g>
		<path fill="#B7B6B6" d="M35.129,110.771c0,3.932-3.387,7.119-7.562,7.119H11.251c-4.177,0-7.562-3.188-7.562-7.119l0,0
			c0-3.931,3.385-7.118,7.562-7.118h16.316C31.742,103.653,35.129,106.841,35.129,110.771L35.129,110.771z"/>
		<path fill="#0E0D0D" d="M34.233,110.569c0,3.82-3.288,6.917-7.345,6.917H11.037c-4.059,0-7.348-3.097-7.348-6.917l0,0
			c0-3.819,3.289-6.916,7.348-6.916h15.852C30.945,103.653,34.233,106.75,34.233,110.569L34.233,110.569z"/>
	</g>
</g>
<g>
	<g>
		<path fill="#B7B6B6" d="M1238.909,15.367c0,3.932,3.385,7.118,7.562,7.118h16.315c4.177,0,7.563-3.187,7.563-7.118l0,0
			c0-3.932-3.387-7.119-7.563-7.119h-16.315C1242.294,8.248,1238.909,11.436,1238.909,15.367L1238.909,15.367z"/>
		<path fill="#0E0D0D" d="M1239.802,15.165c0,3.82,3.29,6.916,7.348,6.916h15.852c4.059,0,7.349-3.096,7.349-6.916l0,0
			c0-3.82-3.29-6.917-7.349-6.917h-15.852C1243.092,8.248,1239.802,11.345,1239.802,15.165L1239.802,15.165z"/>
	</g>
	<g>
		<path fill="#B7B6B6" d="M1238.909,110.771c0,3.932,3.385,7.119,7.562,7.119h16.315c4.177,0,7.563-3.188,7.563-7.119l0,0
			c0-3.931-3.387-7.118-7.563-7.118h-16.315C1242.294,103.653,1238.909,106.841,1238.909,110.771L1238.909,110.771z"/>
		<path fill="#0E0D0D" d="M1239.802,110.569c0,3.82,3.29,6.917,7.348,6.917h15.852c4.059,0,7.349-3.097,7.349-6.917l0,0
			c0-3.819-3.29-6.916-7.349-6.916h-15.852C1243.092,103.653,1239.802,106.75,1239.802,110.569L1239.802,110.569z"/>
	</g>
</g>
<g>
	<g>
		<path fill="#AFAEAE" d="M1264.893,15.368c0,5.366-4.594,9.716-10.263,9.716c-5.671,0-10.268-4.35-10.268-9.716
			s4.597-9.718,10.268-9.718C1260.299,5.65,1264.893,10.002,1264.893,15.368"/>
		<ellipse fill="none" stroke="#929292" stroke-miterlimit="10" cx="1254.627" cy="15.368" rx="10.265" ry="9.716"/>
		<path fill="#AFAEAE" d="M1262.172,15.368c0,3.942-3.378,7.14-7.542,7.14c-4.167,0-7.545-3.197-7.545-7.14
			c0-3.943,3.378-7.141,7.545-7.141C1258.794,8.228,1262.172,11.425,1262.172,15.368"/>
		<ellipse fill="none" stroke="#929292" stroke-miterlimit="10" cx="1254.628" cy="15.368" rx="7.543" ry="7.14"/>
		<g>
			<g>
				<defs>
					<rect id="SVGID_3_" x="1247.517" y="8.639" width="14.222" height="13.457"/>
				</defs>
				<clipPath id="SVGID_4_">
					<use xlink:href="#SVGID_3_"  overflow="visible"/>
				</clipPath>
				<path clip-path="url(#SVGID_4_)" fill="#BEBEBD" d="M1261.737,15.368c0,3.715-3.184,6.728-7.107,6.728
					c-3.929,0-7.111-3.013-7.111-6.728c0-3.717,3.183-6.729,7.111-6.729C1258.554,8.639,1261.737,11.651,1261.737,15.368"/>
				<path clip-path="url(#SVGID_4_)" fill="#C0C0C0" d="M1261.57,15.368c0,3.627-3.108,6.569-6.94,6.569
					c-3.836,0-6.945-2.942-6.945-6.569c0-3.629,3.109-6.572,6.945-6.572C1258.462,8.796,1261.57,11.739,1261.57,15.368"/>
				<path clip-path="url(#SVGID_4_)" fill="#C2C3C3" d="M1261.401,15.368c0,3.539-3.033,6.412-6.771,6.412
					c-3.744,0-6.776-2.873-6.776-6.412c0-3.542,3.032-6.413,6.776-6.413C1258.368,8.955,1261.401,11.826,1261.401,15.368"/>
				<path clip-path="url(#SVGID_4_)" fill="#C4C5C4" d="M1261.235,15.368c0,3.453-2.958,6.253-6.605,6.253
					c-3.65,0-6.61-2.8-6.61-6.253c0-3.454,2.96-6.255,6.61-6.255C1258.277,9.113,1261.235,11.914,1261.235,15.368"/>
				<path clip-path="url(#SVGID_4_)" fill="#C6C8C8" d="M1261.068,15.368c0,3.365-2.885,6.095-6.438,6.095
					c-3.559,0-6.441-2.729-6.441-6.095c0-3.367,2.883-6.098,6.441-6.098C1258.184,9.271,1261.068,12.001,1261.068,15.368"/>
				<path clip-path="url(#SVGID_4_)" fill="#C9CACB" d="M1260.901,15.368c0,3.277-2.81,5.937-6.271,5.937
					c-3.467,0-6.275-2.659-6.275-5.937c0-3.28,2.809-5.938,6.275-5.938C1258.092,9.43,1260.901,12.088,1260.901,15.368"/>
				<path clip-path="url(#SVGID_4_)" fill="#CBCDCD" d="M1260.735,15.368c0,3.19-2.736,5.779-6.105,5.779
					c-3.373,0-6.107-2.589-6.107-5.779c0-3.192,2.734-5.781,6.107-5.781C1257.999,9.587,1260.735,12.176,1260.735,15.368"/>
				<path clip-path="url(#SVGID_4_)" fill="#CCCFD0" d="M1260.568,15.368c0,3.103-2.662,5.621-5.938,5.621
					c-3.28,0-5.94-2.519-5.94-5.621c0-3.105,2.66-5.621,5.94-5.621C1257.906,9.747,1260.568,12.263,1260.568,15.368"/>
				<path clip-path="url(#SVGID_4_)" fill="#D0D2D2" d="M1260.4,15.368c0,3.016-2.584,5.462-5.771,5.462
					c-3.188,0-5.772-2.446-5.772-5.462c0-3.018,2.584-5.464,5.772-5.464C1257.816,9.904,1260.4,12.351,1260.4,15.368"/>
				<path clip-path="url(#SVGID_4_)" fill="#D2D4D5" d="M1260.233,15.368c0,2.928-2.509,5.304-5.604,5.304
					c-3.098,0-5.605-2.376-5.605-5.304c0-2.931,2.508-5.305,5.605-5.305C1257.725,10.063,1260.233,12.438,1260.233,15.368"/>
			</g>
		</g>
		<polygon fill="#605F5E" points="1253.7,19.414 1253.7,16.247 1250.354,16.247 1250.354,14.488 1253.7,14.488 1253.7,11.321 
			1255.557,11.321 1255.557,14.488 1258.903,14.488 1258.903,16.247 1255.557,16.247 1255.557,19.414 		"/>
		<path fill="#221714" d="M1255.396,11.475v2.86v0.307h0.322h3.024v1.452h-3.024h-0.322v0.305v2.861h-1.535v-2.861v-0.305h-0.321
			h-3.026v-1.452h3.026h0.321v-0.307v-2.86H1255.396z M1255.718,11.17h-2.179v3.165h-3.346v2.063h3.346v3.167h2.179v-3.167h3.346
			v-2.063h-3.346V11.17z"/>
	</g>
	<g>
		<path fill="#AFAEAE" d="M1264.893,110.772c0,5.366-4.594,9.716-10.263,9.716c-5.671,0-10.268-4.35-10.268-9.716
			c0-5.367,4.597-9.717,10.268-9.717C1260.299,101.056,1264.893,105.405,1264.893,110.772"/>
		<ellipse fill="none" stroke="#929292" stroke-miterlimit="10" cx="1254.627" cy="110.772" rx="10.265" ry="9.716"/>
		<path fill="#AFAEAE" d="M1262.172,110.772c0,3.942-3.378,7.139-7.542,7.139c-4.167,0-7.545-3.196-7.545-7.139
			c0-3.943,3.378-7.141,7.545-7.141C1258.794,103.632,1262.172,106.829,1262.172,110.772"/>
		<ellipse fill="none" stroke="#929292" stroke-miterlimit="10" cx="1254.628" cy="110.772" rx="7.543" ry="7.139"/>
		<g>
			<g>
				<defs>
					<rect id="SVGID_5_" x="1247.517" y="104.042" width="14.222" height="13.459"/>
				</defs>
				<clipPath id="SVGID_6_">
					<use xlink:href="#SVGID_5_"  overflow="visible"/>
				</clipPath>
				<path clip-path="url(#SVGID_6_)" fill="#BEBEBD" d="M1261.737,110.772c0,3.716-3.184,6.729-7.107,6.729
					c-3.929,0-7.111-3.013-7.111-6.729s3.183-6.73,7.111-6.73C1258.554,104.042,1261.737,107.057,1261.737,110.772"/>
				<path clip-path="url(#SVGID_6_)" fill="#C0C0C0" d="M1261.57,110.772c0,3.627-3.108,6.569-6.94,6.569
					c-3.836,0-6.945-2.942-6.945-6.569c0-3.63,3.109-6.571,6.945-6.571C1258.462,104.201,1261.57,107.143,1261.57,110.772"/>
				<path clip-path="url(#SVGID_6_)" fill="#C2C3C3" d="M1261.401,110.772c0,3.54-3.033,6.412-6.771,6.412
					c-3.744,0-6.776-2.872-6.776-6.412c0-3.542,3.032-6.412,6.776-6.412C1258.368,104.36,1261.401,107.23,1261.401,110.772"/>
				<path clip-path="url(#SVGID_6_)" fill="#C4C5C4" d="M1261.235,110.772c0,3.453-2.958,6.253-6.605,6.253
					c-3.65,0-6.61-2.8-6.61-6.253c0-3.454,2.96-6.254,6.61-6.254C1258.277,104.519,1261.235,107.318,1261.235,110.772"/>
				<path clip-path="url(#SVGID_6_)" fill="#C6C8C8" d="M1261.068,110.772c0,3.364-2.885,6.095-6.438,6.095
					c-3.559,0-6.441-2.73-6.441-6.095c0-3.366,2.883-6.097,6.441-6.097C1258.184,104.676,1261.068,107.406,1261.068,110.772"/>
				<path clip-path="url(#SVGID_6_)" fill="#C9CACB" d="M1260.901,110.772c0,3.278-2.81,5.936-6.271,5.936
					c-3.467,0-6.275-2.657-6.275-5.936c0-3.28,2.809-5.938,6.275-5.938C1258.092,104.834,1260.901,107.492,1260.901,110.772"/>
				<path clip-path="url(#SVGID_6_)" fill="#CBCDCD" d="M1260.735,110.772c0,3.19-2.736,5.779-6.105,5.779
					c-3.373,0-6.107-2.589-6.107-5.779c0-3.192,2.734-5.781,6.107-5.781C1257.999,104.991,1260.735,107.58,1260.735,110.772"/>
				<path clip-path="url(#SVGID_6_)" fill="#CCCFD0" d="M1260.568,110.772c0,3.104-2.662,5.62-5.938,5.62
					c-3.28,0-5.94-2.517-5.94-5.62c0-3.105,2.66-5.621,5.94-5.621C1257.906,105.151,1260.568,107.667,1260.568,110.772"/>
				<path clip-path="url(#SVGID_6_)" fill="#D0D2D2" d="M1260.4,110.772c0,3.016-2.584,5.462-5.771,5.462
					c-3.188,0-5.772-2.446-5.772-5.462c0-3.019,2.584-5.465,5.772-5.465C1257.816,105.308,1260.4,107.754,1260.4,110.772"/>
				<path clip-path="url(#SVGID_6_)" fill="#D2D4D5" d="M1260.233,110.772c0,2.928-2.509,5.304-5.604,5.304
					c-3.098,0-5.605-2.376-5.605-5.304c0-2.931,2.508-5.305,5.605-5.305C1257.725,105.468,1260.233,107.842,1260.233,110.772"/>
			</g>
		</g>
		<polygon fill="#605F5E" points="1253.7,114.818 1253.7,111.651 1250.354,111.651 1250.354,109.893 1253.7,109.893 1253.7,106.726 
			1255.557,106.726 1255.557,109.893 1258.903,109.893 1258.903,111.651 1255.557,111.651 1255.557,114.818 		"/>
		<path fill="#221714" d="M1255.396,106.878v2.861v0.306h0.322h3.024v1.454h-3.024h-0.322v0.303v2.863h-1.535v-2.863v-0.303h-0.321
			h-3.026v-1.454h3.026h0.321v-0.306v-2.861H1255.396z M1255.718,106.574h-2.179v3.165h-3.346v2.063h3.346v3.167h2.179v-3.167h3.346
			v-2.063h-3.346V106.574z"/>
	</g>
</g>
<g>
	<path fill="#AFAEAE" d="M28.674,14.426c0,5.366-4.595,9.717-10.265,9.717c-5.669,0-10.267-4.351-10.267-9.717
		s4.598-9.718,10.267-9.718C24.079,4.708,28.674,9.06,28.674,14.426"/>
	<ellipse fill="none" stroke="#929292" stroke-miterlimit="10" cx="18.408" cy="14.426" rx="10.266" ry="9.717"/>
	<path fill="#AFAEAE" d="M25.953,14.426c0,3.942-3.379,7.14-7.544,7.14s-7.544-3.197-7.544-7.14c0-3.943,3.379-7.141,7.544-7.141
		S25.953,10.482,25.953,14.426"/>
	<ellipse fill="none" stroke="#929292" stroke-miterlimit="10" cx="18.409" cy="14.426" rx="7.544" ry="7.14"/>
	<g>
		<g>
			<defs>
				<rect id="SVGID_7_" x="11.297" y="7.696" width="14.223" height="13.457"/>
			</defs>
			<clipPath id="SVGID_8_">
				<use xlink:href="#SVGID_7_"  overflow="visible"/>
			</clipPath>
			<path clip-path="url(#SVGID_8_)" fill="#BEBEBD" d="M25.517,14.426c0,3.716-3.181,6.728-7.107,6.728
				c-3.928,0-7.11-3.012-7.11-6.728c0-3.717,3.183-6.729,7.11-6.729C22.336,7.696,25.517,10.709,25.517,14.426"/>
			<path clip-path="url(#SVGID_8_)" fill="#C0C0C0" d="M25.352,14.426c0,3.628-3.109,6.569-6.942,6.569
				c-3.835,0-6.942-2.941-6.942-6.569c0-3.629,3.107-6.57,6.942-6.57C22.242,7.855,25.352,10.797,25.352,14.426"/>
			<path clip-path="url(#SVGID_8_)" fill="#C2C3C3" d="M25.184,14.426c0,3.54-3.034,6.412-6.774,6.412
				c-3.742,0-6.774-2.872-6.774-6.412c0-3.542,3.032-6.413,6.774-6.413C22.149,8.013,25.184,10.884,25.184,14.426"/>
			<path clip-path="url(#SVGID_8_)" fill="#C4C5C4" d="M25.016,14.426c0,3.453-2.957,6.253-6.606,6.253
				c-3.65,0-6.609-2.8-6.609-6.253s2.959-6.254,6.609-6.254C22.059,8.172,25.016,10.973,25.016,14.426"/>
			<path clip-path="url(#SVGID_8_)" fill="#C6C8C8" d="M24.849,14.426c0,3.365-2.885,6.096-6.439,6.096
				c-3.558,0-6.44-2.73-6.44-6.096c0-3.366,2.883-6.097,6.44-6.097C21.964,8.329,24.849,11.06,24.849,14.426"/>
			<path clip-path="url(#SVGID_8_)" fill="#C9CACB" d="M24.682,14.426c0,3.278-2.809,5.937-6.272,5.937
				c-3.465,0-6.272-2.658-6.272-5.937c0-3.279,2.808-5.938,6.272-5.938C21.873,8.487,24.682,11.146,24.682,14.426"/>
			<path clip-path="url(#SVGID_8_)" fill="#CBCDCD" d="M24.516,14.426c0,3.191-2.734,5.78-6.106,5.78s-6.106-2.589-6.106-5.78
				c0-3.192,2.734-5.781,6.106-5.781S24.516,11.233,24.516,14.426"/>
			<path clip-path="url(#SVGID_8_)" fill="#CCCFD0" d="M24.349,14.426c0,3.104-2.661,5.621-5.939,5.621
				c-3.279,0-5.938-2.518-5.938-5.621c0-3.105,2.659-5.621,5.938-5.621C21.688,8.805,24.349,11.32,24.349,14.426"/>
			<path clip-path="url(#SVGID_8_)" fill="#D0D2D2" d="M24.182,14.426c0,3.017-2.584,5.463-5.772,5.463s-5.771-2.446-5.771-5.463
				c0-3.018,2.582-5.464,5.771-5.464S24.182,11.408,24.182,14.426"/>
			<path clip-path="url(#SVGID_8_)" fill="#D2D4D5" d="M24.014,14.426c0,2.929-2.51,5.304-5.604,5.304
				c-3.097,0-5.604-2.375-5.604-5.304c0-2.931,2.508-5.304,5.604-5.304C21.504,9.122,24.014,11.495,24.014,14.426"/>
		</g>
	</g>
	<polygon fill="#605F5E" points="17.48,18.472 17.48,15.305 14.135,15.305 14.135,13.546 17.48,13.546 17.48,10.379 19.338,10.379 
		19.338,13.546 22.684,13.546 22.684,15.305 19.338,15.305 19.338,18.472 	"/>
	<path fill="#221714" d="M19.176,10.532v2.86v0.307h0.322h3.025v1.452h-3.025h-0.322v0.305v2.862h-1.535v-2.862v-0.305h-0.32h-3.026
		v-1.452h3.026h0.32v-0.307v-2.86H19.176z M19.498,10.228H17.32v3.165h-3.346v2.063h3.346v3.167h2.178v-3.167h3.346v-2.063h-3.346
		V10.228z"/>
</g>
<g>
	<path fill="#AFAEAE" d="M28.674,109.831c0,5.366-4.595,9.716-10.265,9.716c-5.669,0-10.267-4.35-10.267-9.716
		c0-5.367,4.598-9.718,10.267-9.718C24.079,100.113,28.674,104.464,28.674,109.831"/>
	<ellipse fill="none" stroke="#929292" stroke-miterlimit="10" cx="18.408" cy="109.831" rx="10.266" ry="9.716"/>
	<path fill="#AFAEAE" d="M25.953,109.831c0,3.941-3.379,7.14-7.544,7.14s-7.544-3.198-7.544-7.14c0-3.943,3.379-7.141,7.544-7.141
		S25.953,105.888,25.953,109.831"/>
	<ellipse fill="none" stroke="#929292" stroke-miterlimit="10" cx="18.409" cy="109.831" rx="7.544" ry="7.14"/>
	<g>
		<g>
			<defs>
				<rect id="SVGID_9_" x="11.297" y="103.101" width="14.223" height="13.458"/>
			</defs>
			<clipPath id="SVGID_10_">
				<use xlink:href="#SVGID_9_"  overflow="visible"/>
			</clipPath>
			<path clip-path="url(#SVGID_10_)" fill="#BEBEBD" d="M25.517,109.831c0,3.715-3.181,6.728-7.107,6.728
				c-3.928,0-7.11-3.013-7.11-6.728c0-3.717,3.183-6.73,7.11-6.73C22.336,103.101,25.517,106.114,25.517,109.831"/>
			<path clip-path="url(#SVGID_10_)" fill="#C0C0C0" d="M25.352,109.831c0,3.627-3.109,6.569-6.942,6.569
				c-3.835,0-6.942-2.942-6.942-6.569c0-3.63,3.107-6.572,6.942-6.572C22.242,103.259,25.352,106.201,25.352,109.831"/>
			<path clip-path="url(#SVGID_10_)" fill="#C2C3C3" d="M25.184,109.831c0,3.54-3.034,6.412-6.774,6.412
				c-3.742,0-6.774-2.872-6.774-6.412c0-3.542,3.032-6.413,6.774-6.413C22.149,103.418,25.184,106.289,25.184,109.831"/>
			<path clip-path="url(#SVGID_10_)" fill="#C4C5C4" d="M25.016,109.831c0,3.453-2.957,6.253-6.606,6.253
				c-3.65,0-6.609-2.8-6.609-6.253c0-3.455,2.959-6.254,6.609-6.254C22.059,103.577,25.016,106.376,25.016,109.831"/>
			<path clip-path="url(#SVGID_10_)" fill="#C6C8C8" d="M24.849,109.831c0,3.364-2.885,6.095-6.439,6.095
				c-3.558,0-6.44-2.73-6.44-6.095c0-3.367,2.883-6.097,6.44-6.097C21.964,103.734,24.849,106.464,24.849,109.831"/>
			<path clip-path="url(#SVGID_10_)" fill="#C9CACB" d="M24.682,109.831c0,3.278-2.809,5.936-6.272,5.936
				c-3.465,0-6.272-2.657-6.272-5.936c0-3.28,2.808-5.938,6.272-5.938C21.873,103.893,24.682,106.551,24.682,109.831"/>
			<path clip-path="url(#SVGID_10_)" fill="#CBCDCD" d="M24.516,109.831c0,3.189-2.734,5.778-6.106,5.778s-6.106-2.589-6.106-5.778
				c0-3.192,2.734-5.781,6.106-5.781S24.516,106.639,24.516,109.831"/>
			<path clip-path="url(#SVGID_10_)" fill="#CCCFD0" d="M24.349,109.831c0,3.103-2.661,5.62-5.939,5.62
				c-3.279,0-5.938-2.518-5.938-5.62c0-3.105,2.659-5.621,5.938-5.621C21.688,104.21,24.349,106.726,24.349,109.831"/>
			<path clip-path="url(#SVGID_10_)" fill="#D0D2D2" d="M24.182,109.831c0,3.016-2.584,5.463-5.772,5.463s-5.771-2.447-5.771-5.463
				c0-3.018,2.582-5.464,5.771-5.464S24.182,106.813,24.182,109.831"/>
			<path clip-path="url(#SVGID_10_)" fill="#D2D4D5" d="M24.014,109.831c0,2.928-2.51,5.304-5.604,5.304
				c-3.097,0-5.604-2.376-5.604-5.304c0-2.931,2.508-5.306,5.604-5.306C21.504,104.525,24.014,106.9,24.014,109.831"/>
		</g>
	</g>
	<polygon fill="#605F5E" points="17.48,113.877 17.48,110.71 14.135,110.71 14.135,108.951 17.48,108.951 17.48,105.784 
		19.338,105.784 19.338,108.951 22.684,108.951 22.684,110.71 19.338,110.71 19.338,113.877 	"/>
	<path fill="#221714" d="M19.176,105.937v2.861v0.306h0.322h3.025v1.453h-3.025h-0.322v0.304v2.862h-1.535v-2.862v-0.304h-0.32
		h-3.026v-1.453h3.026h0.32v-0.306v-2.861H19.176z M19.498,105.633H17.32v3.165h-3.346v2.063h3.346v3.167h2.178v-3.167h3.346v-2.063
		h-3.346V105.633z"/>
</g>
<path fill="#C7C8C6" d="M1210.472,115.781c0,2.08-1.791,3.766-4,3.766H69.78c-2.21,0-4-1.686-4-3.766V10.109
	c0-2.08,1.79-3.766,4-3.766h1136.691c2.209,0,4,1.686,4,3.766V115.781z"/>
<path fill="#10100C" d="M176.845,108.6c0,1.787-1.539,3.236-3.438,3.236H76.688c-1.898,0-3.438-1.449-3.438-3.236V17.554
	c0-1.787,1.539-3.236,3.438-3.236h96.718c1.899,0,3.438,1.449,3.438,3.236V108.6z"/>
<g>
	<g>
		<defs>
			<rect id="SVGID_11_" x="95.079" y="73.014" width="59.813" height="30.925"/>
		</defs>
		<clipPath id="SVGID_12_">
			<use xlink:href="#SVGID_11_"  overflow="visible"/>
		</clipPath>
		
			<linearGradient id="SVGID_13_" gradientUnits="userSpaceOnUse" x1="-115.8896" y1="290.0371" x2="-114.8903" y2="290.0371" gradientTransform="matrix(79.8244 0 0 -79.8244 9335.125 23240.5)">
			<stop  offset="0" style="stop-color:#113577"/>
			<stop  offset="0.2581" style="stop-color:#162145"/>
			<stop  offset="1" style="stop-color:#03051D"/>
		</linearGradient>
		<rect x="95.079" y="73.014" clip-path="url(#SVGID_12_)" fill="url(#SVGID_13_)" width="59.813" height="30.925"/>
	</g>
	<g>
		<defs>
			<path id="SVGID_14_" d="M153.429,72.936H95.007c-0.283,0-0.45,0.12-0.459,0.077v31.581c0.058,0.053,0.215,0.139,0.459,0.139
				h58.422c0.285,0,0.453-0.117,0.463-0.073l0.02-31.556C153.882,73.058,153.714,72.936,153.429,72.936"/>
		</defs>
		<clipPath id="SVGID_15_">
			<use xlink:href="#SVGID_14_"  overflow="visible"/>
		</clipPath>
		
			<linearGradient id="SVGID_16_" gradientUnits="userSpaceOnUse" x1="-281.4521" y1="455.2803" x2="-280.4521" y2="455.2803" gradientTransform="matrix(-58.6222 0 0 58.6222 -16346.0625 -26600.6875)">
			<stop  offset="0" style="stop-color:#2E2523"/>
			<stop  offset="1" style="stop-color:#342E2B"/>
		</linearGradient>
		<rect x="94.548" y="72.936" clip-path="url(#SVGID_15_)" fill="url(#SVGID_16_)" width="59.363" height="31.797"/>
	</g>
	<path d="M95.548,103.686V73.986h57.344v29.699H95.548z M154.892,104.659V73.013c0-0.619-0.654-1.126-1.463-1.126H95.007
		c-0.807,0-1.459,0.507-1.459,1.126v31.646c0,0.621,0.652,1.125,1.459,1.125h58.422C154.237,105.784,154.892,105.28,154.892,104.659
		"/>
	<path fill="#030303" d="M103.343,100.033c-0.578,0-1.043-0.334-1.043-0.745V78.384c0-0.41,0.465-0.744,1.043-0.744h41.749
		c0.577,0,1.045,0.334,1.045,0.744v20.904c0,0.411-0.468,0.745-1.045,0.745H103.343z"/>
	<g>
		<defs>
			<path id="SVGID_17_" d="M143.241,79.767c0-0.359-0.406-0.646-0.908-0.646H124.22v19.432h18.113c0.502,0,0.908-0.289,0.908-0.646
				V79.767z"/>
		</defs>
		<clipPath id="SVGID_18_">
			<use xlink:href="#SVGID_17_"  overflow="visible"/>
		</clipPath>
		
			<linearGradient id="SVGID_19_" gradientUnits="userSpaceOnUse" x1="-433.3662" y1="606.8906" x2="-432.3662" y2="606.8906" gradientTransform="matrix(-22.6221 0 0 22.6221 -9668.4844 -13640.3125)">
			<stop  offset="0" style="stop-color:#251C18"/>
			<stop  offset="1" style="stop-color:#524E4E"/>
		</linearGradient>
		<rect x="124.22" y="79.12" clip-path="url(#SVGID_18_)" fill="url(#SVGID_19_)" width="19.021" height="19.432"/>
	</g>
	<path fill="#050505" d="M124.22,79.12h-18.117c-0.502,0-0.906,0.288-0.906,0.645v18.144c0,0.354,0.404,0.644,0.906,0.644h18.117
		V79.12z"/>
	<path fill="#121212" d="M124.22,79.12h-18.117c-0.502,0-0.906,0.288-0.906,0.645v18.144c0,0.354,0.404,0.644,0.906,0.644h18.117
		V79.12z"/>
	<rect x="123.435" y="79.12" fill="#030303" width="0.785" height="19.432"/>
	<rect x="129.165" y="87.416" fill="#4D4D4D" width="9.129" height="2.122"/>
	
		<ellipse fill="none" stroke="#4D4D4D" stroke-width="0.783" stroke-miterlimit="10" cx="114.663" cy="88.889" rx="1.602" ry="1.68"/>
</g>
<rect x="210.139" y="6.344" fill="#10100C" width="4" height="113.203"/>
<rect x="728.6" y="6.344" fill="#10100C" width="4" height="52.622"/>
<linearGradient id="SVGID_20_" gradientUnits="userSpaceOnUse" x1="728.5996" y1="32.6548" x2="730.0967" y2="32.6548">
	<stop  offset="0" style="stop-color:#FFFFFF"/>
	<stop  offset="0.1688" style="stop-color:#B1B4B5"/>
	<stop  offset="0.4086" style="stop-color:#E0E0DF"/>
	<stop  offset="0.7581" style="stop-color:#B1B4B5"/>
	<stop  offset="1" style="stop-color:#C2C2C2"/>
</linearGradient>
<rect x="728.6" y="6.344" fill="url(#SVGID_20_)" width="1.497" height="52.622"/>
<linearGradient id="SVGID_21_" gradientUnits="userSpaceOnUse" x1="731.1025" y1="32.6548" x2="732.5996" y2="32.6548">
	<stop  offset="0" style="stop-color:#FFFFFF"/>
	<stop  offset="0.1688" style="stop-color:#B1B4B5"/>
	<stop  offset="0.4086" style="stop-color:#E0E0DF"/>
	<stop  offset="0.7581" style="stop-color:#B1B4B5"/>
	<stop  offset="1" style="stop-color:#C2C2C2"/>
</linearGradient>
<rect x="731.103" y="6.344" fill="url(#SVGID_21_)" width="1.497" height="52.622"/>
<g>
	<path fill="#262727" d="M191.036,28.19c0,0,0.046-0.035,0.021-0.095l0,0c-3.021-6.479-7.155-11.392-7.155-11.392
		s-2.25,2.095-2.09,4.193c0.086,1.59,1.303,2.528,1.303,2.528c1.963,1.876,6.712,4.244,7.816,4.782
		C190.944,28.214,191.003,28.23,191.036,28.19z"/>
	<path fill="#262727" d="M190.302,29.794c-0.02-0.068-0.104-0.068-0.104-0.068v-0.003l-7.905,0.27
		c0.858,1.501,2.304,2.666,3.806,2.31c1.039-0.255,3.391-1.866,4.166-2.41l-0.002-0.001
		C190.322,29.837,190.302,29.794,190.302,29.794z"/>
	<path fill="#262727" d="M190.42,29.097c0.039-0.062-0.028-0.114-0.028-0.114v-0.001c-3.473-2.299-10.203-5.828-10.203-5.828
		c-0.611,1.858,0.213,3.355,0.213,3.355c0.857,1.78,2.494,2.319,2.494,2.319c0.758,0.305,1.514,0.323,1.514,0.323
		c0.119,0.024,4.7,0.004,5.931-0.001C190.392,29.148,190.42,29.097,190.42,29.097z"/>
	<path fill="#262727" d="M190.944,13.353c-0.344,0.03-1.271,0.239-1.271,0.239c-2.094,0.527-2.588,2.394-2.588,2.394
		c-0.383,1.174,0.011,2.462,0.011,2.462c0.695,3.042,4.136,8.042,4.876,9.092c0.05,0.051,0.093,0.031,0.093,0.031
		c0.08-0.022,0.073-0.097,0.073-0.097v0.001C193.276,16.312,190.944,13.353,190.944,13.353z"/>
	<path fill="#262727" d="M193.563,27.568c0.075,0.029,0.113-0.043,0.113-0.043l0.003,0.001c0.759-1.076,4.177-6.049,4.873-9.079
		c0,0,0.377-1.468,0.014-2.462c0,0-0.52-1.893-2.615-2.394c0,0-0.604-0.149-1.244-0.239c0,0-2.342,2.961-1.203,14.13l0,0
		C193.512,27.553,193.563,27.568,193.563,27.568z"/>
	<path fill="#262727" d="M195.437,29.729c0,0-0.07,0.01-0.09,0.062c0,0-0.016,0.067,0.03,0.104h-0.002
		c0.759,0.533,3.052,2.106,4.157,2.413c0,0,2.042,0.683,3.82-2.31l-7.916-0.271V29.729z"/>
	<path fill="#262727" d="M205.455,23.138c0,0-6.719,3.54-10.195,5.838v0.001c0,0-0.062,0.04-0.038,0.114c0,0,0.032,0.058,0.08,0.058
		l0,0c1.244,0.002,5.954,0.009,6.073-0.014c0,0,0.608-0.023,1.362-0.307c0,0,1.674-0.523,2.543-2.389
		C205.28,26.439,206.057,24.915,205.455,23.138z"/>
	<path fill="#262727" d="M194.625,28.19c0,0,0.056,0.04,0.106,0.007v0.001c1.133-0.553,5.848-2.905,7.799-4.772
		c0,0,1.234-0.974,1.301-2.537c0.142-2.173-2.086-4.185-2.086-4.185s-4.122,4.896-7.143,11.362l0,0
		C194.603,28.066,194.569,28.142,194.625,28.19z"/>
</g>
<g>
	<path fill="#2F302F" d="M179.981,36.023h2.285v-1.792h1.026v4.422h-1.026v-1.847h-2.285v1.847h-1.026v-4.422h1.026V36.023z"/>
	<path fill="#2F302F" d="M185.154,36.88c0,0.782,0.252,1.108,1.101,1.108s1.093-0.326,1.093-1.108v-2.648h1.029v2.672
		c0,0.566-0.071,0.954-0.287,1.189c-0.401,0.431-0.986,0.609-1.835,0.609s-1.441-0.179-1.841-0.609
		c-0.225-0.24-0.279-0.629-0.279-1.189v-2.672h1.02V36.88z"/>
	<path fill="#2F302F" d="M191.727,34.231l2.08,4.422h-1.144l-0.447-1.052h-2.12l-0.434,1.052h-1.086l2.064-4.422H191.727z
		 M190.43,36.812h1.454l-0.739-1.699L190.43,36.812z"/>
	<path fill="#2F302F" d="M194.272,34.231l1.128,3.4l0.951-3.4h1.211l1.092,3.4l1.055-3.4h1.051l-1.509,4.422h-1.255l-1.039-3.301
		l-0.91,3.301h-1.251l-1.624-4.422H194.272z"/>
	<path fill="#2F302F" d="M202.143,36.03h2.839v0.77h-2.845c0.006,0.795,0.353,1.083,1.16,1.083h1.685v0.771h-1.731
		c-0.592,0-1.045-0.043-1.521-0.388c-0.502-0.363-0.747-0.942-0.747-1.742c0-1.564,0.728-2.292,2.296-2.292h1.704v0.771h-1.685
		C202.557,35.002,202.184,35.334,202.143,36.03z"/>
	<path fill="#2F302F" d="M205.887,38.653v-4.422h1.072v4.422H205.887z"/>
</g>
<text transform="matrix(1.0623 0 0 1 178.9551 46.585)" fill="#231815" font-family="'SimHei'" font-size="7.5308">Optl</text>
<text transform="matrix(1.0623 0 0 1 178.9551 54.0557)" fill="#231815" font-family="'SimHei'" font-size="7.5308">OSN 500</text>
<path fill="none" stroke="#383939" stroke-miterlimit="10" d="M207.423,64.3c0,0.521-0.447,0.941-1,0.941h-25.469
	c-0.553,0-1-0.421-1-0.941v-6.178c0-0.521,0.447-0.941,1-0.941h25.469c0.553,0,1,0.421,1,0.941V64.3z"/>
<g>
	<path fill="#040000" d="M181.427,100.02c0-5.937,5.113-10.75,11.42-10.75c6.308,0,11.418,4.813,11.418,10.75
		s-5.11,10.75-11.418,10.75C186.54,110.77,181.427,105.956,181.427,100.02"/>
	<path fill="#E8E8E8" d="M184.775,100.02c0-4.195,3.613-7.597,8.071-7.597c4.459,0,8.072,3.401,8.072,7.597
		s-3.613,7.598-8.072,7.598C188.389,107.617,184.775,104.215,184.775,100.02"/>
	<ellipse fill="none" stroke="#C0C0BF" stroke-width="2" stroke-miterlimit="10" cx="192.847" cy="100.02" rx="8.072" ry="7.597"/>
	<path fill="#040000" d="M189.325,100.02c0-1.831,1.576-3.315,3.521-3.315c1.946,0,3.523,1.484,3.523,3.315
		s-1.577,3.315-3.523,3.315C190.901,103.335,189.325,101.851,189.325,100.02"/>
</g>
<polygon fill="#252526" points="184.369,84.388 192.45,71.209 200.533,84.388 "/>
<rect x="214.139" y="58.966" fill="#6A706C" width="996.336" height="3.525"/>
<rect x="214.139" y="63.748" fill="#6A706C" width="996.336" height="3.525"/>
<rect x="214.139" y="62.435" fill="#262727" width="996.336" height="1.313"/>
<g>
	<rect x="302.967" y="12.993" fill="#030000" width="176.159" height="38.747"/>
	<linearGradient id="SVGID_22_" gradientUnits="userSpaceOnUse" x1="305.1064" y1="32.4053" x2="476.9863" y2="32.4053">
		<stop  offset="0" style="stop-color:#FFFFFF"/>
		<stop  offset="0.1688" style="stop-color:#B1B4B5"/>
		<stop  offset="0.4086" style="stop-color:#E0E0DF"/>
		<stop  offset="0.7581" style="stop-color:#B1B4B5"/>
		<stop  offset="1" style="stop-color:#C2C2C2"/>
	</linearGradient>
	<rect x="305.106" y="13.742" fill="url(#SVGID_22_)" width="171.88" height="37.326"/>
</g>
<g>
	<rect x="490.222" y="13.031" fill="#030000" width="176.158" height="38.748"/>
	<linearGradient id="SVGID_23_" gradientUnits="userSpaceOnUse" x1="492.3613" y1="32.4434" x2="664.2412" y2="32.4434">
		<stop  offset="0" style="stop-color:#FFFFFF"/>
		<stop  offset="0.1688" style="stop-color:#B1B4B5"/>
		<stop  offset="0.4086" style="stop-color:#E0E0DF"/>
		<stop  offset="0.7581" style="stop-color:#B1B4B5"/>
		<stop  offset="1" style="stop-color:#C2C2C2"/>
	</linearGradient>
	<rect x="492.361" y="13.78" fill="url(#SVGID_23_)" width="171.88" height="37.326"/>
</g>
<g>
	<rect x="310.654" y="75.467" fill="#030000" width="176.159" height="38.747"/>
	<linearGradient id="SVGID_24_" gradientUnits="userSpaceOnUse" x1="312.7939" y1="94.8789" x2="484.6738" y2="94.8789">
		<stop  offset="0" style="stop-color:#FFFFFF"/>
		<stop  offset="0.1688" style="stop-color:#B1B4B5"/>
		<stop  offset="0.4086" style="stop-color:#E0E0DF"/>
		<stop  offset="0.7581" style="stop-color:#B1B4B5"/>
		<stop  offset="1" style="stop-color:#C2C2C2"/>
	</linearGradient>
	<rect x="312.794" y="76.217" fill="url(#SVGID_24_)" width="171.88" height="37.325"/>
</g>
<g>
	<rect x="498.352" y="75.467" fill="#030000" width="176.159" height="38.747"/>
	<linearGradient id="SVGID_25_" gradientUnits="userSpaceOnUse" x1="500.4902" y1="94.8789" x2="672.3711" y2="94.8789">
		<stop  offset="0" style="stop-color:#FFFFFF"/>
		<stop  offset="0.1688" style="stop-color:#B1B4B5"/>
		<stop  offset="0.4086" style="stop-color:#E0E0DF"/>
		<stop  offset="0.7581" style="stop-color:#B1B4B5"/>
		<stop  offset="1" style="stop-color:#C2C2C2"/>
	</linearGradient>
	<rect x="500.49" y="76.217" fill="url(#SVGID_25_)" width="171.881" height="37.325"/>
</g>
<g>
	<rect x="686.051" y="75.467" fill="#030000" width="176.159" height="38.747"/>
	<linearGradient id="SVGID_26_" gradientUnits="userSpaceOnUse" x1="688.1895" y1="94.8789" x2="860.0703" y2="94.8789">
		<stop  offset="0" style="stop-color:#FFFFFF"/>
		<stop  offset="0.1688" style="stop-color:#B1B4B5"/>
		<stop  offset="0.4086" style="stop-color:#E0E0DF"/>
		<stop  offset="0.7581" style="stop-color:#B1B4B5"/>
		<stop  offset="1" style="stop-color:#C2C2C2"/>
	</linearGradient>
	<rect x="688.189" y="76.217" fill="url(#SVGID_26_)" width="171.881" height="37.325"/>
</g>
<g>
	<g>
		<path fill="#252626" d="M725.05,31.992c0,6.167-5.316,11.172-11.87,11.172c-6.555,0-11.868-5.005-11.868-11.172
			c0-6.169,5.313-11.172,11.868-11.172C719.733,20.82,725.05,25.823,725.05,31.992"/>
		<path fill="none" stroke="#121212" stroke-width="0.75" stroke-miterlimit="10" d="M725.05,31.992
			c0,6.167-5.316,11.172-11.87,11.172c-6.555,0-11.868-5.005-11.868-11.172c0-6.169,5.313-11.172,11.868-11.172
			C719.733,20.82,725.05,25.823,725.05,31.992z"/>
		<polygon fill="#040000" points="711.715,38.327 711.715,33.37 706.449,33.37 706.449,30.612 711.715,30.612 711.715,25.658 
			714.646,25.658 714.646,30.612 719.91,30.612 719.91,33.37 714.646,33.37 714.646,38.327 		"/>
		<path fill="#221714" d="M714.397,25.889v4.488v0.469h0.497h4.769v2.292h-4.769h-0.497v0.465v4.492h-2.435v-4.492v-0.465h-0.498
			h-4.768v-2.292h4.768h0.498v-0.469v-4.488H714.397z M714.895,25.423h-3.43v4.954h-5.263v3.226h5.263v4.957h3.43v-4.957h5.264
			v-3.226h-5.264V25.423z"/>
	</g>
	<rect x="711.465" y="25.423" fill="#606062" width="0.498" height="5.423"/>
	<rect x="706.202" y="30.377" fill="#606062" width="5.757" height="0.469"/>
</g>
<g>
	<g>
		<path fill="#252626" d="M760.733,32.655c0,6.167-5.315,11.172-11.87,11.172s-11.868-5.005-11.868-11.172
			c0-6.169,5.313-11.172,11.868-11.172S760.733,26.486,760.733,32.655"/>
		<path fill="none" stroke="#121212" stroke-width="0.75" stroke-miterlimit="10" d="M760.733,32.655
			c0,6.167-5.315,11.172-11.87,11.172s-11.868-5.005-11.868-11.172c0-6.169,5.313-11.172,11.868-11.172
			S760.733,26.486,760.733,32.655z"/>
		<polygon fill="#040000" points="747.397,38.989 747.397,34.033 742.132,34.033 742.132,31.275 747.397,31.275 747.397,26.321 
			750.33,26.321 750.33,31.275 755.594,31.275 755.594,34.033 750.33,34.033 750.33,38.989 		"/>
		<path fill="#221714" d="M750.082,26.552v4.488v0.469h0.496h4.77v2.292h-4.77h-0.496v0.465v4.492h-2.437v-4.492v-0.465h-0.497
			h-4.769v-2.292h4.769h0.497V31.04v-4.488H750.082z M750.578,26.086h-3.43v4.954h-5.263v3.226h5.263v4.957h3.43v-4.957h5.265V31.04
			h-5.265V26.086z"/>
	</g>
	<rect x="747.148" y="26.086" fill="#606062" width="0.497" height="5.423"/>
	<rect x="741.886" y="31.04" fill="#606062" width="5.757" height="0.469"/>
</g>
<g>
	<g>
		<path fill="#252626" d="M1208.959,32.655c0,6.167-5.314,11.172-11.869,11.172c-6.556,0-11.868-5.005-11.868-11.172
			c0-6.169,5.313-11.172,11.868-11.172C1203.645,21.483,1208.959,26.486,1208.959,32.655"/>
		<path fill="none" stroke="#121212" stroke-width="0.75" stroke-miterlimit="10" d="M1208.959,32.655
			c0,6.167-5.314,11.172-11.869,11.172c-6.556,0-11.868-5.005-11.868-11.172c0-6.169,5.313-11.172,11.868-11.172
			C1203.645,21.483,1208.959,26.486,1208.959,32.655z"/>
		<polygon fill="#040000" points="1195.625,38.989 1195.625,34.033 1190.359,34.033 1190.359,31.275 1195.625,31.275 
			1195.625,26.321 1198.558,26.321 1198.558,31.275 1203.82,31.275 1203.82,34.033 1198.558,34.033 1198.558,38.989 		"/>
		<path fill="#221714" d="M1198.309,26.552v4.488v0.469h0.496h4.77v2.292h-4.77h-0.496v0.465v4.492h-2.436v-4.492v-0.465h-0.498
			h-4.768v-2.292h4.768h0.498V31.04v-4.488H1198.309z M1198.805,26.086h-3.43v4.954h-5.263v3.226h5.263v4.957h3.43v-4.957h5.265
			V31.04h-5.265V26.086z"/>
	</g>
	<rect x="1195.375" y="26.086" fill="#606062" width="0.498" height="5.423"/>
	<rect x="1190.112" y="31.04" fill="#606062" width="5.757" height="0.469"/>
</g>
<g>
	<g>
		<path fill="#252626" d="M1208.959,93.441c0,6.166-5.314,11.171-11.869,11.171c-6.556,0-11.868-5.005-11.868-11.171
			c0-6.169,5.313-11.172,11.868-11.172C1203.645,82.27,1208.959,87.272,1208.959,93.441"/>
		<path fill="none" stroke="#121212" stroke-width="0.75" stroke-miterlimit="10" d="M1208.959,93.441
			c0,6.166-5.314,11.171-11.869,11.171c-6.556,0-11.868-5.005-11.868-11.171c0-6.169,5.313-11.172,11.868-11.172
			C1203.645,82.27,1208.959,87.272,1208.959,93.441z"/>
		<polygon fill="#040000" points="1195.625,99.775 1195.625,94.82 1190.359,94.82 1190.359,92.062 1195.625,92.062 1195.625,87.107 
			1198.558,87.107 1198.558,92.062 1203.82,92.062 1203.82,94.82 1198.558,94.82 1198.558,99.775 		"/>
		<path fill="#221714" d="M1198.309,87.338v4.488v0.469h0.496h4.77v2.291h-4.77h-0.496v0.467v4.49h-2.436v-4.49v-0.467h-0.498
			h-4.768v-2.291h4.768h0.498v-0.469v-4.488H1198.309z M1198.805,86.872h-3.43v4.954h-5.263v3.227h5.263v4.956h3.43v-4.956h5.265
			v-3.227h-5.265V86.872z"/>
	</g>
	<rect x="1195.375" y="86.872" fill="#606062" width="0.498" height="5.423"/>
	<rect x="1190.112" y="91.826" fill="#606062" width="5.757" height="0.469"/>
</g>
<g>
	<linearGradient id="SVGID_27_" gradientUnits="userSpaceOnUse" x1="552.209" y1="57.2202" x2="729.1162" y2="57.2202">
		<stop  offset="0.0968" style="stop-color:#919292"/>
		<stop  offset="0.2546" style="stop-color:#F7F7F7"/>
		<stop  offset="0.5591" style="stop-color:#919292"/>
		<stop  offset="0.7237" style="stop-color:#EEEEEF"/>
		<stop  offset="1" style="stop-color:#919292"/>
	</linearGradient>
	<rect x="552.209" y="55.858" fill="url(#SVGID_27_)" width="176.907" height="2.724"/>
	<rect x="552.209" y="58.582" fill="#121313" width="176.907" height="0.454"/>
</g>
<g>
	<linearGradient id="SVGID_28_" gradientUnits="userSpaceOnUse" x1="711.2646" y1="7.0581" x2="753.0078" y2="7.0581">
		<stop  offset="0.0968" style="stop-color:#919292"/>
		<stop  offset="0.2546" style="stop-color:#F7F7F7"/>
		<stop  offset="0.5591" style="stop-color:#919292"/>
		<stop  offset="0.7237" style="stop-color:#EEEEEF"/>
		<stop  offset="1" style="stop-color:#919292"/>
	</linearGradient>
	<rect x="711.265" y="5.696" fill="url(#SVGID_28_)" width="41.743" height="2.724"/>
	<rect x="711.265" y="8.42" fill="#121313" width="41.743" height="0.454"/>
</g>
<g>
	<linearGradient id="SVGID_29_" gradientUnits="userSpaceOnUse" x1="214.5127" y1="57.2202" x2="391.4199" y2="57.2202">
		<stop  offset="0.0968" style="stop-color:#919292"/>
		<stop  offset="0.2546" style="stop-color:#F7F7F7"/>
		<stop  offset="0.5591" style="stop-color:#919292"/>
		<stop  offset="0.7237" style="stop-color:#EEEEEF"/>
		<stop  offset="1" style="stop-color:#919292"/>
	</linearGradient>
	<rect x="214.513" y="55.858" fill="url(#SVGID_29_)" width="176.907" height="2.724"/>
	<rect x="214.513" y="58.582" fill="#121313" width="176.907" height="0.454"/>
</g>
<g>
	<rect x="680.461" y="15.107" fill="#5A5B5B" width="15.459" height="33.767"/>
	<text transform="matrix(0 -0.9414 1 0 692.9902 45.1304)" fill="#DCDCDC" font-family="'SimHei'" font-size="13.3894">EFS8</text>
</g>
<g>
	<g>
		<path fill="#252626" d="M237.877,31.992c0,6.167-5.315,11.172-11.87,11.172s-11.868-5.005-11.868-11.172
			c0-6.169,5.313-11.172,11.868-11.172S237.877,25.823,237.877,31.992"/>
		<path fill="none" stroke="#121212" stroke-width="0.75" stroke-miterlimit="10" d="M237.877,31.992
			c0,6.167-5.315,11.172-11.87,11.172s-11.868-5.005-11.868-11.172c0-6.169,5.313-11.172,11.868-11.172
			S237.877,25.823,237.877,31.992z"/>
		<polygon fill="#040000" points="224.542,38.327 224.542,33.37 219.276,33.37 219.276,30.612 224.542,30.612 224.542,25.658 
			227.474,25.658 227.474,30.612 232.737,30.612 232.737,33.37 227.474,33.37 227.474,38.327 		"/>
		<path fill="#221714" d="M227.225,25.889v4.488v0.469h0.497h4.769v2.292h-4.769h-0.497v0.465v4.492h-2.435v-4.492v-0.465h-0.499
			h-4.767v-2.292h4.767h0.499v-0.469v-4.488H227.225z M227.722,25.423h-3.431v4.954h-5.262v3.226h5.262v4.957h3.431v-4.957h5.265
			v-3.226h-5.265V25.423z"/>
	</g>
	<rect x="224.291" y="25.423" fill="#606062" width="0.499" height="5.423"/>
	<rect x="219.029" y="30.377" fill="#606062" width="5.757" height="0.469"/>
</g>
<g>
	<rect x="237.877" y="15.107" fill="#5A5B5B" width="15.459" height="33.767"/>
	<text transform="matrix(0 -0.9414 1 0 250.4053 45.1304)" fill="#DCDCDC" font-family="'SimHei'" font-size="13.3894">EFS8</text>
</g>
<rect x="1163.877" y="76.557" fill="#5A5B5B" width="15.458" height="33.767"/>
<text transform="matrix(0 -0.9414 1 0 1176.4053 103.7549)" fill="#DCDCDC" font-family="'SimHei'" font-size="13.3894">USB</text>
<g>
	
		<radialGradient id="SVGID_30_" cx="277.4473" cy="20.1675" r="5.5386" gradientTransform="matrix(1 0 0 0.9414 0 2.5513)" gradientUnits="userSpaceOnUse">
		<stop  offset="0" style="stop-color:#FFFFFF"/>
		<stop  offset="1" style="stop-color:#C30D23"/>
	</radialGradient>
	<rect x="274.09" y="14.875" fill="url(#SVGID_30_)" stroke="#373838" stroke-miterlimit="10" width="6.715" height="13.323"/>
	
		<radialGradient id="SVGID_31_" cx="268.4048" cy="20.1675" r="5.5387" gradientTransform="matrix(1 0 0 0.9414 0 2.5513)" gradientUnits="userSpaceOnUse">
		<stop  offset="0" style="stop-color:#FFFFFF"/>
		<stop  offset="1" style="stop-color:#FFF000"/>
	</radialGradient>
	<rect x="265.047" y="14.875" fill="url(#SVGID_31_)" stroke="#373838" stroke-miterlimit="10" width="6.716" height="13.323"/>
	
		<radialGradient id="SVGID_32_" cx="259.3618" cy="20.1675" r="5.5387" gradientTransform="matrix(1 0 0 0.9414 0 2.5513)" gradientUnits="userSpaceOnUse">
		<stop  offset="0" style="stop-color:#FFFFFF"/>
		<stop  offset="1" style="stop-color:#8DC21F"/>
	</radialGradient>
	<rect x="256.004" y="14.875" fill="url(#SVGID_32_)" stroke="#373838" stroke-miterlimit="10" width="6.716" height="13.323"/>
	<rect x="258.472" y="35.501" fill="#5D5E5E" width="2.199" height="12.688"/>
	<rect x="267.139" y="35.501" fill="#5D5E5E" width="2.199" height="12.688"/>
	<rect x="275.806" y="35.501" fill="#5D5E5E" width="2.198" height="12.688"/>
</g>
<radialGradient id="SVGID_33_" cx="278.3794" cy="85.9336" r="5.5378" gradientTransform="matrix(1 0 0 0.9414 0 2.5513)" gradientUnits="userSpaceOnUse">
	<stop  offset="0" style="stop-color:#FFFFFF"/>
	<stop  offset="1" style="stop-color:#C30D23"/>
</radialGradient>
<rect x="275.021" y="76.784" fill="url(#SVGID_33_)" stroke="#373838" stroke-miterlimit="10" width="6.716" height="13.322"/>
<radialGradient id="SVGID_34_" cx="269.3374" cy="85.9336" r="5.5378" gradientTransform="matrix(1 0 0 0.9414 0 2.5513)" gradientUnits="userSpaceOnUse">
	<stop  offset="0" style="stop-color:#FFFFFF"/>
	<stop  offset="1" style="stop-color:#FFF000"/>
</radialGradient>
<rect x="265.979" y="76.784" fill="url(#SVGID_34_)" stroke="#373838" stroke-miterlimit="10" width="6.716" height="13.322"/>
<radialGradient id="SVGID_35_" cx="260.2949" cy="85.9336" r="5.5376" gradientTransform="matrix(1 0 0 0.9414 0 2.5513)" gradientUnits="userSpaceOnUse">
	<stop  offset="0" style="stop-color:#FFFFFF"/>
	<stop  offset="1" style="stop-color:#8DC21F"/>
</radialGradient>
<rect x="256.938" y="76.784" fill="url(#SVGID_35_)" stroke="#373838" stroke-miterlimit="10" width="6.715" height="13.322"/>
<rect x="259.404" y="97.409" fill="#5D5E5E" width="2.199" height="12.688"/>
<rect x="268.071" y="97.409" fill="#5D5E5E" width="2.198" height="12.688"/>
<rect x="276.738" y="97.409" fill="#5D5E5E" width="2.199" height="12.688"/>
<radialGradient id="SVGID_36_" cx="286.8047" cy="85.9336" r="5.5376" gradientTransform="matrix(1 0 0 0.9414 0 2.5513)" gradientUnits="userSpaceOnUse">
	<stop  offset="0" style="stop-color:#FFFFFF"/>
	<stop  offset="1" style="stop-color:#C30D23"/>
</radialGradient>
<rect x="283.447" y="76.784" fill="url(#SVGID_36_)" stroke="#373838" stroke-miterlimit="10" width="6.715" height="13.322"/>
<rect x="285.163" y="97.409" fill="#5D5E5E" width="2.199" height="12.688"/>
<g>
	<g>
		<path fill="#252626" d="M238.908,93.9c0,6.167-5.316,11.172-11.87,11.172c-6.555,0-11.868-5.005-11.868-11.172
			c0-6.169,5.313-11.172,11.868-11.172C233.592,82.729,238.908,87.731,238.908,93.9"/>
		<path fill="none" stroke="#121212" stroke-width="0.75" stroke-miterlimit="10" d="M238.908,93.9
			c0,6.167-5.316,11.172-11.87,11.172c-6.555,0-11.868-5.005-11.868-11.172c0-6.169,5.313-11.172,11.868-11.172
			C233.592,82.729,238.908,87.731,238.908,93.9z"/>
		<polygon fill="#040000" points="225.573,100.235 225.573,95.278 220.308,95.278 220.308,92.52 225.573,92.52 225.573,87.566 
			228.505,87.566 228.505,92.52 233.769,92.52 233.769,95.278 228.505,95.278 228.505,100.235 		"/>
		<path fill="#221714" d="M228.257,87.798v4.487v0.469h0.496h4.77v2.292h-4.77h-0.496v0.465v4.492h-2.436v-4.492v-0.465h-0.499
			h-4.767v-2.292h4.767h0.499v-0.469v-4.487H228.257z M228.753,87.331h-3.431v4.954h-5.262v3.226h5.262v4.957h3.431v-4.957h5.264
			v-3.226h-5.264V87.331z"/>
	</g>
	<rect x="225.322" y="87.331" fill="#606062" width="0.499" height="5.423"/>
	<rect x="220.061" y="92.285" fill="#606062" width="5.757" height="0.469"/>
</g>
<g>
	<rect x="238.908" y="77.017" fill="#5A5B5B" width="15.458" height="33.766"/>
	<text transform="matrix(0 -0.9414 1 0 251.4365 107.042)" fill="#DCDCDC" font-family="'SimHei'" font-size="13.3894">EFS8</text>
</g>
<rect x="916.78" y="74.429" fill="#1A1B1B" width="102" height="38.747"/>
<text transform="matrix(1.0623 0 0 1 881.9717 109.0146)" fill="#231815" font-family="'SimHei'" font-size="7.5308">TX1/RX1</text>
<radialGradient id="SVGID_37_" cx="1100.1387" cy="95.7246" r="44.8048" gradientTransform="matrix(1 0 0 0.9414 0 2.5513)" gradientUnits="userSpaceOnUse">
	<stop  offset="0" style="stop-color:#D0D1D2"/>
	<stop  offset="0.328" style="stop-color:#C1C0C0"/>
	<stop  offset="0.6667" style="stop-color:#D0D1D2"/>
	<stop  offset="1" style="stop-color:#919292"/>
</radialGradient>
<rect x="1042.139" y="75.37" fill="#B0A695" stroke="url(#SVGID_37_)" stroke-width="4" stroke-miterlimit="10" width="116" height="34.585"/>
<rect x="1044.305" y="76.408" fill="#323332" width="111.834" height="1.391"/>
</svg>
