<?xml version="1.0" encoding="utf-8"?>
<!-- Generator: Adobe Illustrator 16.0.0, SVG Export Plug-In . SVG Version: 6.00 Build 0)  -->
<!DOCTYPE svg PUBLIC "-//W3C//DTD SVG 1.1//EN" "http://www.w3.org/Graphics/SVG/1.1/DTD/svg11.dtd">
<svg version="1.1" id="图层_1" xmlns="http://www.w3.org/2000/svg" xmlns:xlink="http://www.w3.org/1999/xlink" x="0px" y="0px"
	 width="1275.59px" height="126.14px" viewBox="0 0 1275.59 126.14" enable-background="new 0 0 1275.59 126.14"
	 xml:space="preserve">
<g>
	<rect fill="#404659" width="1275.59" height="126.143"/>
	<g>
		<g>
			<path fill="#252626" d="M1200.438,102.012c0,5.029-4.078,9.105-9.106,9.105c-5.03,0-9.107-4.076-9.107-9.105
				c0-5.027,4.077-9.104,9.107-9.104C1196.359,92.908,1200.438,96.984,1200.438,102.012"/>
			<circle fill="none" stroke="#121212" stroke-width="0.75" stroke-miterlimit="10" cx="1191.331" cy="102.012" r="9.107"/>
			<polygon fill="#040000" points="1190.206,107.176 1190.206,103.137 1186.165,103.137 1186.165,100.887 1190.206,100.887 
				1190.206,96.85 1192.456,96.85 1192.456,100.887 1196.495,100.887 1196.495,103.137 1192.456,103.137 1192.456,107.176 			"/>
			<path fill="#221714" d="M1192.267,97.037v3.66v0.379h0.379h3.66v1.871h-3.66h-0.379v0.379v3.66h-1.87v-3.66v-0.379h-0.381h-3.66
				v-1.871h3.66h0.381v-0.379v-3.66H1192.267z M1192.646,96.658h-2.63v4.039h-4.04v2.629h4.04v4.039h2.63v-4.039h4.039v-2.629
				h-4.039V96.658z"/>
		</g>
		<rect x="1190.016" y="96.66" fill="#606062" width="0.381" height="4.416"/>
		<rect x="1185.976" y="100.697" fill="#606062" width="4.417" height="0.379"/>
	</g>
	<g>
		<g>
			<path fill="#252626" d="M827.967,102.012c0,5.029-4.078,9.105-9.106,9.105c-5.03,0-9.107-4.076-9.107-9.105
				c0-5.027,4.077-9.104,9.107-9.104C823.889,92.908,827.967,96.984,827.967,102.012"/>
			<circle fill="none" stroke="#121212" stroke-width="0.75" stroke-miterlimit="10" cx="818.86" cy="102.012" r="9.107"/>
			<polygon fill="#040000" points="817.735,107.176 817.735,103.137 813.694,103.137 813.694,100.887 817.735,100.887 
				817.735,96.85 819.985,96.85 819.985,100.887 824.024,100.887 824.024,103.137 819.985,103.137 819.985,107.176 			"/>
			<path fill="#221714" d="M819.796,97.037v3.66v0.379h0.379h3.66v1.871h-3.66h-0.379v0.379v3.66h-1.871v-3.66v-0.379h-0.381h-3.658
				v-1.871h3.658h0.381v-0.379v-3.66H819.796z M820.175,96.658h-2.631v4.039h-4.039v2.629h4.039v4.039h2.631v-4.039h4.039v-2.629
				h-4.039V96.658z"/>
		</g>
		<rect x="817.544" y="96.66" fill="#606062" width="0.381" height="4.416"/>
		<rect x="813.505" y="100.697" fill="#606062" width="4.418" height="0.379"/>
	</g>
	<g>
		<g>
			<path fill="#252626" d="M455.497,102.012c0,5.029-4.078,9.105-9.107,9.105s-9.107-4.076-9.107-9.105
				c0-5.027,4.078-9.104,9.107-9.104S455.497,96.984,455.497,102.012"/>
			<circle fill="none" stroke="#121212" stroke-width="0.75" stroke-miterlimit="10" cx="446.39" cy="102.012" r="9.107"/>
			<polygon fill="#040000" points="445.265,107.176 445.265,103.137 441.225,103.137 441.225,100.887 445.265,100.887 
				445.265,96.85 447.515,96.85 447.515,100.887 451.554,100.887 451.554,103.137 447.515,103.137 447.515,107.176 			"/>
			<path fill="#221714" d="M447.325,97.037v3.66v0.379h0.379h3.661v1.871h-3.661h-0.379v0.379v3.66h-1.87v-3.66v-0.379h-0.38h-3.66
				v-1.871h3.66h0.38v-0.379v-3.66H447.325z M447.704,96.658h-2.629v4.039h-4.04v2.629h4.04v4.039h2.629v-4.039h4.04v-2.629h-4.04
				V96.658z"/>
		</g>
		<rect x="445.075" y="96.66" fill="#606062" width="0.38" height="4.416"/>
		<rect x="441.035" y="100.697" fill="#606062" width="4.417" height="0.379"/>
	</g>
	<g>
		<g>
			<path fill="#252626" d="M83.026,102.012c0,5.029-4.078,9.105-9.107,9.105s-9.107-4.076-9.107-9.105
				c0-5.027,4.078-9.104,9.107-9.104S83.026,96.984,83.026,102.012"/>
			<circle fill="none" stroke="#121212" stroke-width="0.75" stroke-miterlimit="10" cx="73.919" cy="102.012" r="9.107"/>
			<polygon fill="#040000" points="72.794,107.176 72.794,103.137 68.754,103.137 68.754,100.887 72.794,100.887 72.794,96.85 
				75.045,96.85 75.045,100.887 79.084,100.887 79.084,103.137 75.045,103.137 75.045,107.176 			"/>
			<path fill="#221714" d="M74.855,97.037v3.66v0.379h0.379h3.66v1.871h-3.66h-0.379v0.379v3.66h-1.871v-3.66v-0.379h-0.38h-3.66
				v-1.871h3.66h0.38v-0.379v-3.66H74.855z M75.234,96.658h-2.63v4.039h-4.04v2.629h4.04v4.039h2.63v-4.039h4.039v-2.629h-4.039
				V96.658z"/>
		</g>
		<rect x="72.604" y="96.66" fill="#606062" width="0.38" height="4.416"/>
		<rect x="68.564" y="100.697" fill="#606062" width="4.417" height="0.379"/>
	</g>
</g>
</svg>
