<?xml version="1.0" encoding="utf-8"?>
<!-- Generator: Adobe Illustrator 16.0.0, SVG Export Plug-In . SVG Version: 6.00 Build 0)  -->
<!DOCTYPE svg PUBLIC "-//W3C//DTD SVG 1.1//EN" "http://www.w3.org/Graphics/SVG/1.1/DTD/svg11.dtd">
<svg version="1.1" id="图层_1" xmlns="http://www.w3.org/2000/svg" xmlns:xlink="http://www.w3.org/1999/xlink" x="0px" y="0px"
	 width="1275.6px" height="126.1px" viewBox="0 0 1275.6 126.1" enable-background="new 0 0 1275.6 126.1" xml:space="preserve">
<rect fill="#282828" width="1275.588" height="126.141"/>
<path fill="#C2B8A9" d="M997.598,112.377c0,2.961-2.239,5.359-5,5.359H276.771c-2.761,0-5-2.398-5-5.359V13.764
	c0-2.96,2.239-5.359,5-5.359h715.826c2.761,0,5,2.399,5,5.359V112.377z"/>
<g>
	<path fill="#4F4F4F" d="M422.396,62.355c-3.004,3.352-8.16,3.633-11.52,0.624c-3.354-3.01-3.637-8.168-0.631-11.521
		c3.004-3.352,8.161-3.631,11.518-0.622C425.121,53.845,425.404,59.002,422.396,62.355"/>
	<path fill="#AFAFAF" d="M420.787,60.911c-2.209,2.462-5.998,2.668-8.465,0.457c-2.466-2.211-2.676-6-0.463-8.463
		c2.206-2.464,5.998-2.668,8.461-0.457C422.787,54.657,422.994,58.448,420.787,60.911"/>
	<path fill="none" stroke="#939393" stroke-miterlimit="10" d="M420.787,60.911c-2.209,2.462-5.998,2.668-8.465,0.457
		c-2.466-2.211-2.676-6-0.463-8.463c2.206-2.464,5.998-2.668,8.461-0.457C422.787,54.657,422.994,58.448,420.787,60.911z"/>
	<g>
		<g>
			<defs>
				
					<rect id="SVGID_1_" x="410.668" y="51.261" transform="matrix(-0.7445 -0.6676 0.6676 -0.7445 688.2986 377.2036)" width="11.306" height="11.292"/>
			</defs>
			<clipPath id="SVGID_2_">
				<use xlink:href="#SVGID_1_"  overflow="visible"/>
			</clipPath>
			<path clip-path="url(#SVGID_2_)" fill="#BEBFBF" d="M420.53,60.681c-2.081,2.32-5.655,2.514-7.978,0.432
				c-2.324-2.084-2.52-5.655-0.438-7.979c2.083-2.32,5.651-2.514,7.976-0.43C422.415,54.788,422.611,58.359,420.53,60.681"/>
			<path clip-path="url(#SVGID_2_)" fill="#C0C1C1" d="M420.43,60.593c-2.032,2.266-5.519,2.454-7.788,0.419
				c-2.269-2.034-2.46-5.521-0.429-7.788c2.035-2.268,5.52-2.456,7.789-0.42C422.271,54.837,422.463,58.323,420.43,60.593"/>
			<path clip-path="url(#SVGID_2_)" fill="#C3C4C4" d="M420.33,60.503c-1.982,2.213-5.387,2.396-7.6,0.411
				c-2.217-1.985-2.4-5.389-0.418-7.601c1.983-2.213,5.387-2.398,7.602-0.413C422.129,54.888,422.314,58.291,420.33,60.503"/>
			<path clip-path="url(#SVGID_2_)" fill="#C5C6C6" d="M420.233,60.414c-1.935,2.157-5.255,2.336-7.415,0.401
				c-2.158-1.938-2.344-5.258-0.407-7.414c1.935-2.158,5.253-2.338,7.413-0.402C421.984,54.937,422.168,58.257,420.233,60.414"/>
			<path clip-path="url(#SVGID_2_)" fill="#C7C9C9" d="M420.133,60.327c-1.885,2.102-5.121,2.277-7.227,0.389
				c-2.104-1.888-2.282-5.124-0.396-7.227c1.887-2.104,5.121-2.277,7.227-0.391C421.84,54.986,422.02,58.223,420.133,60.327"/>
			<path clip-path="url(#SVGID_2_)" fill="#CACBCB" d="M420.035,60.237c-1.838,2.047-4.988,2.219-7.039,0.38
				s-2.225-4.989-0.389-7.038c1.84-2.051,4.992-2.219,7.04-0.382C421.697,55.036,421.869,58.187,420.035,60.237"/>
			<path clip-path="url(#SVGID_2_)" fill="#CCCECE" d="M419.937,60.147c-1.789,1.994-4.856,2.159-6.852,0.371
				c-1.997-1.789-2.165-4.857-0.377-6.85c1.788-1.996,4.854-2.162,6.852-0.373C421.557,55.087,421.724,58.153,419.937,60.147"/>
			<path clip-path="url(#SVGID_2_)" fill="#CED0D0" d="M419.836,60.061c-1.737,1.938-4.723,2.101-6.662,0.358
				c-1.941-1.74-2.106-4.725-0.367-6.663c1.739-1.939,4.723-2.101,6.666-0.36C421.412,55.136,421.576,58.12,419.836,60.061"/>
			<path clip-path="url(#SVGID_2_)" fill="#D1D3D3" d="M419.736,59.972c-1.689,1.884-4.587,2.039-6.475,0.349
				c-1.888-1.691-2.045-4.591-0.357-6.476c1.691-1.885,4.591-2.041,6.477-0.35C421.27,55.187,421.428,58.087,419.736,59.972"/>
			<path clip-path="url(#SVGID_2_)" fill="#D3D5D5" d="M419.639,59.882c-1.641,1.829-4.457,1.982-6.287,0.34
				c-1.833-1.643-1.987-4.458-0.346-6.289c1.639-1.829,4.455-1.983,6.287-0.339C421.125,55.236,421.279,58.051,419.639,59.882"/>
		</g>
	</g>
	<polygon fill="#605F5E" points="413.508,58.942 415.279,56.964 413.297,55.188 414.286,54.089 416.265,55.866 418.039,53.888 
		419.137,54.872 417.367,56.852 419.346,58.626 418.358,59.726 416.381,57.948 414.605,59.929 	"/>
	<path fill="#231815" d="M418.959,54.882l-1.604,1.789l-0.174,0.189l0.193,0.171l1.791,1.604l-0.815,0.91l-1.79-1.607l-0.19-0.17
		l-0.171,0.189l-1.604,1.791l-0.908-0.816l1.602-1.787l0.172-0.191l-0.189-0.171l-1.789-1.605l0.813-0.907l1.788,1.604l0.19,0.172
		l0.171-0.189l1.602-1.789L418.959,54.882z M419.319,54.862l-1.292-1.155l-1.771,1.978l-1.982-1.775l-1.154,1.288l1.98,1.776
		l-1.773,1.979l1.287,1.156l1.776-1.979l1.979,1.774l1.157-1.287l-1.981-1.775L419.319,54.862z"/>
</g>
<rect x="256.511" width="2.434" height="126.141"/>
<rect x="1013.135" width="2.434" height="126.141"/>
<g>
	<path fill="#CECECE" stroke="#030000" stroke-miterlimit="10" d="M944.271,89.404c0,4.543-3.418,8.225-7.637,8.225H784.129
		c-4.217,0-7.635-3.682-7.635-8.225V36.281c0-4.543,3.418-8.227,7.635-8.227h152.506c4.219,0,7.637,3.684,7.637,8.227V89.404z"/>
</g>
<g>
	<g>
		<polygon fill="#1F2020" points="332.173,25.022 338.232,25.022 338.232,20.178 340.957,20.178 340.957,32.129 338.232,32.129 
			338.232,27.139 332.173,27.139 332.173,32.129 329.451,32.129 329.451,20.178 332.173,20.178 		"/>
	</g>
	<g>
		<path fill="#1F2020" d="M345.896,27.338c0,2.116,0.671,2.994,2.919,2.994c2.255,0,2.902-0.878,2.902-2.994v-7.16h2.723v7.224
			c0,1.534-0.182,2.581-0.756,3.214c-1.066,1.168-2.614,1.647-4.869,1.647c-2.248,0-3.818-0.479-4.882-1.647
			c-0.595-0.648-0.74-1.699-0.74-3.214v-7.224h2.703V27.338z"/>
	</g>
	<g>
		<path fill="#1F2020" d="M363.33,20.178l5.517,11.953h-3.026l-1.191-2.846h-5.622l-1.153,2.846h-2.883l5.475-11.953H363.33z
			 M359.887,27.157h3.86l-1.964-4.596L359.887,27.157z"/>
	</g>
	<g>
		<polygon fill="#1F2020" points="370.081,20.178 373.076,29.367 375.598,20.178 378.809,20.178 381.708,29.367 384.498,20.178 
			387.293,20.178 383.293,32.129 379.959,32.129 377.201,23.211 374.791,32.129 371.471,32.129 367.16,20.178 		"/>
	</g>
	<g>
		<path fill="#1F2020" d="M390.957,25.037h7.535v2.081h-7.552c0.017,2.147,0.937,2.933,3.08,2.933h4.472v2.078h-4.595
			c-1.569,0-2.775-0.115-4.04-1.049c-1.33-0.979-1.979-2.544-1.979-4.709c0-4.225,1.928-6.193,6.092-6.193h4.521v2.083h-4.472
			C392.058,22.261,391.067,23.158,390.957,25.037"/>
	</g>
	<g>
		<rect x="400.889" y="20.178" fill="#1F2020" width="2.848" height="11.951"/>
	</g>
	<g>
		<path fill="#1F2020" d="M300.861,30.677c0,0,0.066-0.05,0.033-0.137h0.002c-4.365-9.536-10.336-16.761-10.336-16.761
			s-3.247,3.08-3.016,6.169c0.125,2.335,1.879,3.721,1.879,3.721c2.836,2.759,9.689,6.243,11.285,7.035
			C300.733,30.711,300.813,30.738,300.861,30.677"/>
	</g>
	<g>
		<path fill="#1F2020" d="M299.798,33.037c-0.026-0.102-0.144-0.102-0.144-0.102v-0.002l-11.419,0.398
			c1.241,2.204,3.326,3.918,5.495,3.394c1.506-0.375,4.901-2.743,6.017-3.546l0,0C299.832,33.1,299.798,33.037,299.798,33.037"/>
	</g>
	<g>
		<path fill="#1F2020" d="M299.973,32.012c0.055-0.091-0.04-0.17-0.04-0.17v-0.004c-5.015-3.381-14.731-8.572-14.731-8.572
			c-0.883,2.735,0.307,4.938,0.307,4.938c1.236,2.617,3.602,3.41,3.602,3.41c1.093,0.448,2.188,0.479,2.188,0.479
			c0.166,0.033,6.786,0.004,8.561-0.005C299.933,32.088,299.973,32.012,299.973,32.012"/>
	</g>
	<g>
		<path fill="#1F2020" d="M300.729,8.849c-0.496,0.04-1.839,0.347-1.839,0.347c-3.019,0.782-3.734,3.525-3.734,3.525
			c-0.551,1.725,0.014,3.621,0.014,3.621c1.011,4.476,5.975,11.833,7.038,13.375c0.081,0.076,0.138,0.049,0.138,0.049
			c0.113-0.032,0.104-0.143,0.104-0.143l0.004,0.003C304.098,13.201,300.729,8.849,300.729,8.849"/>
	</g>
	<g>
		<path fill="#1F2020" d="M304.51,29.764c0.109,0.041,0.166-0.062,0.166-0.062h0.002c1.097-1.585,6.029-8.9,7.033-13.36
			c0,0,0.545-2.159,0.018-3.621c0,0-0.744-2.785-3.77-3.522c0,0-0.877-0.218-1.799-0.35c0,0-3.381,4.354-1.737,20.785
			C304.434,29.738,304.51,29.764,304.51,29.764"/>
	</g>
	<g>
		<path fill="#1F2020" d="M307.213,32.942c0,0-0.102,0.013-0.127,0.088c0,0-0.027,0.101,0.04,0.154
			c1.093,0.781,4.405,3.102,6.005,3.548c0,0,2.949,1.008,5.514-3.396l-11.432-0.396V32.942z"/>
	</g>
	<g>
		<path fill="#1F2020" d="M321.682,23.243c0,0-9.705,5.207-14.725,8.592l0.004,0.001c0,0-0.086,0.059-0.059,0.165
			c0,0,0.048,0.087,0.119,0.087c1.797,0.002,8.595,0.011,8.768-0.021c0,0,0.878-0.036,1.967-0.453c0,0,2.417-0.768,3.674-3.516
			C321.43,28.099,322.547,25.858,321.682,23.243"/>
	</g>
	<g>
		<path fill="#1F2020" d="M306.045,30.677c0,0,0.076,0.059,0.152,0.01v0.002c1.635-0.813,8.442-4.275,11.26-7.02
			c0,0,1.787-1.437,1.879-3.735c0.205-3.196-3.014-6.154-3.014-6.154s-5.951,7.203-10.311,16.716h0.002
			C306.014,30.495,305.958,30.605,306.045,30.677"/>
	</g>
</g>
<circle fill="#EBFCA2" cx="628.498" cy="86.58" r="6.187"/>
<circle fill="#EBFCA2" cx="603.237" cy="86.58" r="6.187"/>
<circle fill="#EBFCA2" cx="499.07" cy="67.988" r="6.187"/>
<circle fill="#898988" cx="499.07" cy="86.58" r="6.187"/>
</svg>
