<?xml version="1.0" encoding="utf-8"?>
<!-- Generator: Adobe Illustrator 16.0.0, SVG Export Plug-In . SVG Version: 6.00 Build 0)  -->
<!DOCTYPE svg PUBLIC "-//W3C//DTD SVG 1.1//EN" "http://www.w3.org/Graphics/SVG/1.1/DTD/svg11.dtd">
<svg version="1.1" id="图层_1" xmlns="http://www.w3.org/2000/svg" xmlns:xlink="http://www.w3.org/1999/xlink" x="0px" y="0px"
	 width="1275.6px" height="126.1px" viewBox="0 0 1275.6 126.1" enable-background="new 0 0 1275.6 126.1" xml:space="preserve">
<rect y="-0.02" fill="#3A3A3A" width="1275.588" height="126.14"/>
<path fill="#282828" d="M233.934,14.816c0,1.918-1.079,3.473-2.412,3.473h-6.027c-1.332,0-2.412-1.555-2.412-3.473v-1.388
	c0-1.918,1.08-3.473,2.412-3.473h6.027c1.333,0,2.412,1.555,2.412,3.473V14.816z"/>
<path fill="#282828" d="M233.934,25.691c0,1.918-1.079,3.473-2.412,3.473h-6.027c-1.332,0-2.412-1.555-2.412-3.473v-1.388
	c0-1.918,1.08-3.473,2.412-3.473h6.027c1.333,0,2.412,1.555,2.412,3.473V25.691z"/>
<path fill="#282828" d="M233.934,36.566c0,1.918-1.079,3.473-2.412,3.473h-6.027c-1.332,0-2.412-1.555-2.412-3.473v-1.388
	c0-1.918,1.08-3.473,2.412-3.473h6.027c1.333,0,2.412,1.555,2.412,3.473V36.566z"/>
<path fill="#282828" d="M233.934,47.441c0,1.918-1.079,3.473-2.412,3.473h-6.027c-1.332,0-2.412-1.555-2.412-3.473v-1.388
	c0-1.918,1.08-3.473,2.412-3.473h6.027c1.333,0,2.412,1.555,2.412,3.473V47.441z"/>
<path fill="#282828" d="M247.184,14.816c0,1.918-1.079,3.473-2.412,3.473h-6.027c-1.332,0-2.412-1.555-2.412-3.473v-1.388
	c0-1.918,1.08-3.473,2.412-3.473h6.027c1.333,0,2.412,1.555,2.412,3.473V14.816z"/>
<path fill="#282828" d="M247.184,25.691c0,1.918-1.079,3.473-2.412,3.473h-6.027c-1.332,0-2.412-1.555-2.412-3.473v-1.388
	c0-1.918,1.08-3.473,2.412-3.473h6.027c1.333,0,2.412,1.555,2.412,3.473V25.691z"/>
<path fill="#282828" d="M247.184,36.566c0,1.918-1.079,3.473-2.412,3.473h-6.027c-1.332,0-2.412-1.555-2.412-3.473v-1.388
	c0-1.918,1.08-3.473,2.412-3.473h6.027c1.333,0,2.412,1.555,2.412,3.473V36.566z"/>
<path fill="#282828" d="M247.184,47.441c0,1.918-1.079,3.473-2.412,3.473h-6.027c-1.332,0-2.412-1.555-2.412-3.473v-1.388
	c0-1.918,1.08-3.473,2.412-3.473h6.027c1.333,0,2.412,1.555,2.412,3.473V47.441z"/>
<path fill="#282828" d="M260.434,14.816c0,1.918-1.079,3.473-2.412,3.473h-6.027c-1.332,0-2.412-1.555-2.412-3.473v-1.388
	c0-1.918,1.08-3.473,2.412-3.473h6.027c1.333,0,2.412,1.555,2.412,3.473V14.816z"/>
<path fill="#282828" d="M260.434,25.691c0,1.918-1.079,3.473-2.412,3.473h-6.027c-1.332,0-2.412-1.555-2.412-3.473v-1.388
	c0-1.918,1.08-3.473,2.412-3.473h6.027c1.333,0,2.412,1.555,2.412,3.473V25.691z"/>
<path fill="#282828" d="M260.434,36.566c0,1.918-1.079,3.473-2.412,3.473h-6.027c-1.332,0-2.412-1.555-2.412-3.473v-1.388
	c0-1.918,1.08-3.473,2.412-3.473h6.027c1.333,0,2.412,1.555,2.412,3.473V36.566z"/>
<path fill="#282828" d="M260.434,47.441c0,1.918-1.079,3.473-2.412,3.473h-6.027c-1.332,0-2.412-1.555-2.412-3.473v-1.388
	c0-1.918,1.08-3.473,2.412-3.473h6.027c1.333,0,2.412,1.555,2.412,3.473V47.441z"/>
<path fill="#282828" d="M273.684,14.816c0,1.918-1.079,3.473-2.412,3.473h-6.027c-1.332,0-2.412-1.555-2.412-3.473v-1.388
	c0-1.918,1.08-3.473,2.412-3.473h6.027c1.333,0,2.412,1.555,2.412,3.473V14.816z"/>
<path fill="#282828" d="M273.684,25.691c0,1.918-1.079,3.473-2.412,3.473h-6.027c-1.332,0-2.412-1.555-2.412-3.473v-1.388
	c0-1.918,1.08-3.473,2.412-3.473h6.027c1.333,0,2.412,1.555,2.412,3.473V25.691z"/>
<path fill="#282828" d="M273.684,36.566c0,1.918-1.079,3.473-2.412,3.473h-6.027c-1.332,0-2.412-1.555-2.412-3.473v-1.388
	c0-1.918,1.08-3.473,2.412-3.473h6.027c1.333,0,2.412,1.555,2.412,3.473V36.566z"/>
<path fill="#282828" d="M273.684,47.441c0,1.918-1.079,3.473-2.412,3.473h-6.027c-1.332,0-2.412-1.555-2.412-3.473v-1.388
	c0-1.918,1.08-3.473,2.412-3.473h6.027c1.333,0,2.412,1.555,2.412,3.473V47.441z"/>
<path fill="#282828" d="M286.934,14.816c0,1.918-1.079,3.473-2.412,3.473h-6.027c-1.332,0-2.412-1.555-2.412-3.473v-1.388
	c0-1.918,1.08-3.473,2.412-3.473h6.027c1.333,0,2.412,1.555,2.412,3.473V14.816z"/>
<path fill="#282828" d="M286.934,25.691c0,1.918-1.079,3.473-2.412,3.473h-6.027c-1.332,0-2.412-1.555-2.412-3.473v-1.388
	c0-1.918,1.08-3.473,2.412-3.473h6.027c1.333,0,2.412,1.555,2.412,3.473V25.691z"/>
<path fill="#282828" d="M286.934,36.566c0,1.918-1.079,3.473-2.412,3.473h-6.027c-1.332,0-2.412-1.555-2.412-3.473v-1.388
	c0-1.918,1.08-3.473,2.412-3.473h6.027c1.333,0,2.412,1.555,2.412,3.473V36.566z"/>
<path fill="#282828" d="M286.934,47.441c0,1.918-1.079,3.473-2.412,3.473h-6.027c-1.332,0-2.412-1.555-2.412-3.473v-1.388
	c0-1.918,1.08-3.473,2.412-3.473h6.027c1.333,0,2.412,1.555,2.412,3.473V47.441z"/>
<path fill="#282828" d="M300.184,14.816c0,1.918-1.079,3.473-2.412,3.473h-6.027c-1.332,0-2.412-1.555-2.412-3.473v-1.388
	c0-1.918,1.08-3.473,2.412-3.473h6.027c1.333,0,2.412,1.555,2.412,3.473V14.816z"/>
<path fill="#282828" d="M300.184,25.691c0,1.918-1.079,3.473-2.412,3.473h-6.027c-1.332,0-2.412-1.555-2.412-3.473v-1.388
	c0-1.918,1.08-3.473,2.412-3.473h6.027c1.333,0,2.412,1.555,2.412,3.473V25.691z"/>
<path fill="#282828" d="M300.184,36.566c0,1.918-1.079,3.473-2.412,3.473h-6.027c-1.332,0-2.412-1.555-2.412-3.473v-1.388
	c0-1.918,1.08-3.473,2.412-3.473h6.027c1.333,0,2.412,1.555,2.412,3.473V36.566z"/>
<path fill="#282828" d="M300.184,47.441c0,1.918-1.079,3.473-2.412,3.473h-6.027c-1.332,0-2.412-1.555-2.412-3.473v-1.388
	c0-1.918,1.08-3.473,2.412-3.473h6.027c1.333,0,2.412,1.555,2.412,3.473V47.441z"/>
<path fill="#282828" d="M313.434,14.816c0,1.918-1.079,3.473-2.412,3.473h-6.027c-1.332,0-2.412-1.555-2.412-3.473v-1.388
	c0-1.918,1.08-3.473,2.412-3.473h6.027c1.333,0,2.412,1.555,2.412,3.473V14.816z"/>
<path fill="#282828" d="M313.434,25.691c0,1.918-1.079,3.473-2.412,3.473h-6.027c-1.332,0-2.412-1.555-2.412-3.473v-1.388
	c0-1.918,1.08-3.473,2.412-3.473h6.027c1.333,0,2.412,1.555,2.412,3.473V25.691z"/>
<path fill="#282828" d="M313.434,36.566c0,1.918-1.079,3.473-2.412,3.473h-6.027c-1.332,0-2.412-1.555-2.412-3.473v-1.388
	c0-1.918,1.08-3.473,2.412-3.473h6.027c1.333,0,2.412,1.555,2.412,3.473V36.566z"/>
<path fill="#282828" d="M313.434,47.441c0,1.918-1.079,3.473-2.412,3.473h-6.027c-1.332,0-2.412-1.555-2.412-3.473v-1.388
	c0-1.918,1.08-3.473,2.412-3.473h6.027c1.333,0,2.412,1.555,2.412,3.473V47.441z"/>
<path fill="#282828" d="M326.684,14.816c0,1.918-1.079,3.473-2.412,3.473h-6.027c-1.332,0-2.412-1.555-2.412-3.473v-1.388
	c0-1.918,1.08-3.473,2.412-3.473h6.027c1.333,0,2.412,1.555,2.412,3.473V14.816z"/>
<path fill="#282828" d="M326.684,25.691c0,1.918-1.079,3.473-2.412,3.473h-6.027c-1.332,0-2.412-1.555-2.412-3.473v-1.388
	c0-1.918,1.08-3.473,2.412-3.473h6.027c1.333,0,2.412,1.555,2.412,3.473V25.691z"/>
<path fill="#282828" d="M326.684,36.566c0,1.918-1.079,3.473-2.412,3.473h-6.027c-1.332,0-2.412-1.555-2.412-3.473v-1.388
	c0-1.918,1.08-3.473,2.412-3.473h6.027c1.333,0,2.412,1.555,2.412,3.473V36.566z"/>
<path fill="#282828" d="M326.684,47.441c0,1.918-1.079,3.473-2.412,3.473h-6.027c-1.332,0-2.412-1.555-2.412-3.473v-1.388
	c0-1.918,1.08-3.473,2.412-3.473h6.027c1.333,0,2.412,1.555,2.412,3.473V47.441z"/>
<path fill="#282828" d="M619.014,14.816c0,1.918-1.08,3.473-2.412,3.473h-6.027c-1.332,0-2.412-1.555-2.412-3.473v-1.388
	c0-1.918,1.08-3.473,2.412-3.473h6.027c1.332,0,2.412,1.555,2.412,3.473V14.816z"/>
<path fill="#282828" d="M619.014,25.691c0,1.918-1.08,3.473-2.412,3.473h-6.027c-1.332,0-2.412-1.555-2.412-3.473v-1.388
	c0-1.918,1.08-3.473,2.412-3.473h6.027c1.332,0,2.412,1.555,2.412,3.473V25.691z"/>
<path fill="#282828" d="M619.014,36.566c0,1.918-1.08,3.473-2.412,3.473h-6.027c-1.332,0-2.412-1.555-2.412-3.473v-1.388
	c0-1.918,1.08-3.473,2.412-3.473h6.027c1.332,0,2.412,1.555,2.412,3.473V36.566z"/>
<path fill="#282828" d="M619.014,47.441c0,1.918-1.08,3.473-2.412,3.473h-6.027c-1.332,0-2.412-1.555-2.412-3.473v-1.388
	c0-1.918,1.08-3.473,2.412-3.473h6.027c1.332,0,2.412,1.555,2.412,3.473V47.441z"/>
<path fill="#282828" d="M632.264,14.816c0,1.918-1.08,3.473-2.412,3.473h-6.027c-1.332,0-2.412-1.555-2.412-3.473v-1.388
	c0-1.918,1.08-3.473,2.412-3.473h6.027c1.332,0,2.412,1.555,2.412,3.473V14.816z"/>
<path fill="#282828" d="M632.264,25.691c0,1.918-1.08,3.473-2.412,3.473h-6.027c-1.332,0-2.412-1.555-2.412-3.473v-1.388
	c0-1.918,1.08-3.473,2.412-3.473h6.027c1.332,0,2.412,1.555,2.412,3.473V25.691z"/>
<path fill="#282828" d="M632.264,36.566c0,1.918-1.08,3.473-2.412,3.473h-6.027c-1.332,0-2.412-1.555-2.412-3.473v-1.388
	c0-1.918,1.08-3.473,2.412-3.473h6.027c1.332,0,2.412,1.555,2.412,3.473V36.566z"/>
<path fill="#282828" d="M632.264,47.441c0,1.918-1.08,3.473-2.412,3.473h-6.027c-1.332,0-2.412-1.555-2.412-3.473v-1.388
	c0-1.918,1.08-3.473,2.412-3.473h6.027c1.332,0,2.412,1.555,2.412,3.473V47.441z"/>
<path fill="#282828" d="M645.514,14.816c0,1.918-1.08,3.473-2.412,3.473h-6.027c-1.332,0-2.412-1.555-2.412-3.473v-1.388
	c0-1.918,1.08-3.473,2.412-3.473h6.027c1.332,0,2.412,1.555,2.412,3.473V14.816z"/>
<path fill="#282828" d="M645.514,25.691c0,1.918-1.08,3.473-2.412,3.473h-6.027c-1.332,0-2.412-1.555-2.412-3.473v-1.388
	c0-1.918,1.08-3.473,2.412-3.473h6.027c1.332,0,2.412,1.555,2.412,3.473V25.691z"/>
<path fill="#282828" d="M645.514,36.566c0,1.918-1.08,3.473-2.412,3.473h-6.027c-1.332,0-2.412-1.555-2.412-3.473v-1.388
	c0-1.918,1.08-3.473,2.412-3.473h6.027c1.332,0,2.412,1.555,2.412,3.473V36.566z"/>
<path fill="#282828" d="M645.514,47.441c0,1.918-1.08,3.473-2.412,3.473h-6.027c-1.332,0-2.412-1.555-2.412-3.473v-1.388
	c0-1.918,1.08-3.473,2.412-3.473h6.027c1.332,0,2.412,1.555,2.412,3.473V47.441z"/>
<path fill="#282828" d="M658.764,14.816c0,1.918-1.08,3.473-2.412,3.473h-6.027c-1.332,0-2.412-1.555-2.412-3.473v-1.388
	c0-1.918,1.08-3.473,2.412-3.473h6.027c1.332,0,2.412,1.555,2.412,3.473V14.816z"/>
<path fill="#282828" d="M658.764,25.691c0,1.918-1.08,3.473-2.412,3.473h-6.027c-1.332,0-2.412-1.555-2.412-3.473v-1.388
	c0-1.918,1.08-3.473,2.412-3.473h6.027c1.332,0,2.412,1.555,2.412,3.473V25.691z"/>
<path fill="#282828" d="M658.764,36.566c0,1.918-1.08,3.473-2.412,3.473h-6.027c-1.332,0-2.412-1.555-2.412-3.473v-1.388
	c0-1.918,1.08-3.473,2.412-3.473h6.027c1.332,0,2.412,1.555,2.412,3.473V36.566z"/>
<path fill="#282828" d="M658.764,47.441c0,1.918-1.08,3.473-2.412,3.473h-6.027c-1.332,0-2.412-1.555-2.412-3.473v-1.388
	c0-1.918,1.08-3.473,2.412-3.473h6.027c1.332,0,2.412,1.555,2.412,3.473V47.441z"/>
<path fill="#282828" d="M672.014,14.816c0,1.918-1.08,3.473-2.412,3.473h-6.027c-1.332,0-2.412-1.555-2.412-3.473v-1.388
	c0-1.918,1.08-3.473,2.412-3.473h6.027c1.332,0,2.412,1.555,2.412,3.473V14.816z"/>
<path fill="#282828" d="M672.014,25.691c0,1.918-1.08,3.473-2.412,3.473h-6.027c-1.332,0-2.412-1.555-2.412-3.473v-1.388
	c0-1.918,1.08-3.473,2.412-3.473h6.027c1.332,0,2.412,1.555,2.412,3.473V25.691z"/>
<path fill="#282828" d="M672.014,36.566c0,1.918-1.08,3.473-2.412,3.473h-6.027c-1.332,0-2.412-1.555-2.412-3.473v-1.388
	c0-1.918,1.08-3.473,2.412-3.473h6.027c1.332,0,2.412,1.555,2.412,3.473V36.566z"/>
<path fill="#282828" d="M672.014,47.441c0,1.918-1.08,3.473-2.412,3.473h-6.027c-1.332,0-2.412-1.555-2.412-3.473v-1.388
	c0-1.918,1.08-3.473,2.412-3.473h6.027c1.332,0,2.412,1.555,2.412,3.473V47.441z"/>
<path fill="#282828" d="M685.264,14.816c0,1.918-1.08,3.473-2.412,3.473h-6.027c-1.332,0-2.412-1.555-2.412-3.473v-1.388
	c0-1.918,1.08-3.473,2.412-3.473h6.027c1.332,0,2.412,1.555,2.412,3.473V14.816z"/>
<path fill="#282828" d="M685.264,25.691c0,1.918-1.08,3.473-2.412,3.473h-6.027c-1.332,0-2.412-1.555-2.412-3.473v-1.388
	c0-1.918,1.08-3.473,2.412-3.473h6.027c1.332,0,2.412,1.555,2.412,3.473V25.691z"/>
<path fill="#282828" d="M685.264,36.566c0,1.918-1.08,3.473-2.412,3.473h-6.027c-1.332,0-2.412-1.555-2.412-3.473v-1.388
	c0-1.918,1.08-3.473,2.412-3.473h6.027c1.332,0,2.412,1.555,2.412,3.473V36.566z"/>
<path fill="#282828" d="M685.264,47.441c0,1.918-1.08,3.473-2.412,3.473h-6.027c-1.332,0-2.412-1.555-2.412-3.473v-1.388
	c0-1.918,1.08-3.473,2.412-3.473h6.027c1.332,0,2.412,1.555,2.412,3.473V47.441z"/>
<path fill="#282828" d="M698.514,14.816c0,1.918-1.08,3.473-2.412,3.473h-6.027c-1.332,0-2.412-1.555-2.412-3.473v-1.388
	c0-1.918,1.08-3.473,2.412-3.473h6.027c1.332,0,2.412,1.555,2.412,3.473V14.816z"/>
<path fill="#282828" d="M698.514,25.691c0,1.918-1.08,3.473-2.412,3.473h-6.027c-1.332,0-2.412-1.555-2.412-3.473v-1.388
	c0-1.918,1.08-3.473,2.412-3.473h6.027c1.332,0,2.412,1.555,2.412,3.473V25.691z"/>
<path fill="#282828" d="M698.514,36.566c0,1.918-1.08,3.473-2.412,3.473h-6.027c-1.332,0-2.412-1.555-2.412-3.473v-1.388
	c0-1.918,1.08-3.473,2.412-3.473h6.027c1.332,0,2.412,1.555,2.412,3.473V36.566z"/>
<path fill="#282828" d="M698.514,47.441c0,1.918-1.08,3.473-2.412,3.473h-6.027c-1.332,0-2.412-1.555-2.412-3.473v-1.388
	c0-1.918,1.08-3.473,2.412-3.473h6.027c1.332,0,2.412,1.555,2.412,3.473V47.441z"/>
<path fill="#282828" d="M711.764,14.816c0,1.918-1.08,3.473-2.412,3.473h-6.027c-1.332,0-2.412-1.555-2.412-3.473v-1.388
	c0-1.918,1.08-3.473,2.412-3.473h6.027c1.332,0,2.412,1.555,2.412,3.473V14.816z"/>
<path fill="#282828" d="M711.764,25.691c0,1.918-1.08,3.473-2.412,3.473h-6.027c-1.332,0-2.412-1.555-2.412-3.473v-1.388
	c0-1.918,1.08-3.473,2.412-3.473h6.027c1.332,0,2.412,1.555,2.412,3.473V25.691z"/>
<path fill="#282828" d="M711.764,36.566c0,1.918-1.08,3.473-2.412,3.473h-6.027c-1.332,0-2.412-1.555-2.412-3.473v-1.388
	c0-1.918,1.08-3.473,2.412-3.473h6.027c1.332,0,2.412,1.555,2.412,3.473V36.566z"/>
<path fill="#282828" d="M711.764,47.441c0,1.918-1.08,3.473-2.412,3.473h-6.027c-1.332,0-2.412-1.555-2.412-3.473v-1.388
	c0-1.918,1.08-3.473,2.412-3.473h6.027c1.332,0,2.412,1.555,2.412,3.473V47.441z"/>
<path fill="#282828" d="M339.934,14.816c0,1.918-1.079,3.473-2.412,3.473h-6.027c-1.332,0-2.412-1.555-2.412-3.473v-1.388
	c0-1.918,1.08-3.473,2.412-3.473h6.027c1.333,0,2.412,1.555,2.412,3.473V14.816z"/>
<path fill="#282828" d="M339.934,25.691c0,1.918-1.079,3.473-2.412,3.473h-6.027c-1.332,0-2.412-1.555-2.412-3.473v-1.388
	c0-1.918,1.08-3.473,2.412-3.473h6.027c1.333,0,2.412,1.555,2.412,3.473V25.691z"/>
<path fill="#282828" d="M339.934,36.566c0,1.918-1.079,3.473-2.412,3.473h-6.027c-1.332,0-2.412-1.555-2.412-3.473v-1.388
	c0-1.918,1.08-3.473,2.412-3.473h6.027c1.333,0,2.412,1.555,2.412,3.473V36.566z"/>
<path fill="#282828" d="M339.934,47.441c0,1.918-1.079,3.473-2.412,3.473h-6.027c-1.332,0-2.412-1.555-2.412-3.473v-1.388
	c0-1.918,1.08-3.473,2.412-3.473h6.027c1.333,0,2.412,1.555,2.412,3.473V47.441z"/>
<path fill="#282828" d="M353.184,14.816c0,1.918-1.079,3.473-2.412,3.473h-6.027c-1.332,0-2.412-1.555-2.412-3.473v-1.388
	c0-1.918,1.08-3.473,2.412-3.473h6.027c1.333,0,2.412,1.555,2.412,3.473V14.816z"/>
<path fill="#282828" d="M353.184,25.691c0,1.918-1.079,3.473-2.412,3.473h-6.027c-1.332,0-2.412-1.555-2.412-3.473v-1.388
	c0-1.918,1.08-3.473,2.412-3.473h6.027c1.333,0,2.412,1.555,2.412,3.473V25.691z"/>
<path fill="#282828" d="M353.184,36.566c0,1.918-1.079,3.473-2.412,3.473h-6.027c-1.332,0-2.412-1.555-2.412-3.473v-1.388
	c0-1.918,1.08-3.473,2.412-3.473h6.027c1.333,0,2.412,1.555,2.412,3.473V36.566z"/>
<path fill="#282828" d="M353.184,47.441c0,1.918-1.079,3.473-2.412,3.473h-6.027c-1.332,0-2.412-1.555-2.412-3.473v-1.388
	c0-1.918,1.08-3.473,2.412-3.473h6.027c1.333,0,2.412,1.555,2.412,3.473V47.441z"/>
<path fill="#282828" d="M366.434,14.816c0,1.918-1.079,3.473-2.412,3.473h-6.027c-1.332,0-2.412-1.555-2.412-3.473v-1.388
	c0-1.918,1.08-3.473,2.412-3.473h6.027c1.333,0,2.412,1.555,2.412,3.473V14.816z"/>
<path fill="#282828" d="M366.434,25.691c0,1.918-1.079,3.473-2.412,3.473h-6.027c-1.332,0-2.412-1.555-2.412-3.473v-1.388
	c0-1.918,1.08-3.473,2.412-3.473h6.027c1.333,0,2.412,1.555,2.412,3.473V25.691z"/>
<path fill="#282828" d="M366.434,36.566c0,1.918-1.079,3.473-2.412,3.473h-6.027c-1.332,0-2.412-1.555-2.412-3.473v-1.388
	c0-1.918,1.08-3.473,2.412-3.473h6.027c1.333,0,2.412,1.555,2.412,3.473V36.566z"/>
<path fill="#282828" d="M366.434,47.441c0,1.918-1.079,3.473-2.412,3.473h-6.027c-1.332,0-2.412-1.555-2.412-3.473v-1.388
	c0-1.918,1.08-3.473,2.412-3.473h6.027c1.333,0,2.412,1.555,2.412,3.473V47.441z"/>
<path fill="#282828" d="M379.684,14.816c0,1.918-1.079,3.473-2.412,3.473h-6.027c-1.332,0-2.412-1.555-2.412-3.473v-1.388
	c0-1.918,1.08-3.473,2.412-3.473h6.027c1.333,0,2.412,1.555,2.412,3.473V14.816z"/>
<path fill="#282828" d="M379.684,25.691c0,1.918-1.079,3.473-2.412,3.473h-6.027c-1.332,0-2.412-1.555-2.412-3.473v-1.388
	c0-1.918,1.08-3.473,2.412-3.473h6.027c1.333,0,2.412,1.555,2.412,3.473V25.691z"/>
<path fill="#282828" d="M379.684,36.566c0,1.918-1.079,3.473-2.412,3.473h-6.027c-1.332,0-2.412-1.555-2.412-3.473v-1.388
	c0-1.918,1.08-3.473,2.412-3.473h6.027c1.333,0,2.412,1.555,2.412,3.473V36.566z"/>
<path fill="#282828" d="M379.684,47.441c0,1.918-1.079,3.473-2.412,3.473h-6.027c-1.332,0-2.412-1.555-2.412-3.473v-1.388
	c0-1.918,1.08-3.473,2.412-3.473h6.027c1.333,0,2.412,1.555,2.412,3.473V47.441z"/>
<path fill="#282828" d="M392.934,14.816c0,1.918-1.079,3.473-2.412,3.473h-6.027c-1.332,0-2.412-1.555-2.412-3.473v-1.388
	c0-1.918,1.08-3.473,2.412-3.473h6.027c1.333,0,2.412,1.555,2.412,3.473V14.816z"/>
<path fill="#282828" d="M392.934,25.691c0,1.918-1.079,3.473-2.412,3.473h-6.027c-1.332,0-2.412-1.555-2.412-3.473v-1.388
	c0-1.918,1.08-3.473,2.412-3.473h6.027c1.333,0,2.412,1.555,2.412,3.473V25.691z"/>
<path fill="#282828" d="M392.934,36.566c0,1.918-1.079,3.473-2.412,3.473h-6.027c-1.332,0-2.412-1.555-2.412-3.473v-1.388
	c0-1.918,1.08-3.473,2.412-3.473h6.027c1.333,0,2.412,1.555,2.412,3.473V36.566z"/>
<path fill="#282828" d="M392.934,47.441c0,1.918-1.079,3.473-2.412,3.473h-6.027c-1.332,0-2.412-1.555-2.412-3.473v-1.388
	c0-1.918,1.08-3.473,2.412-3.473h6.027c1.333,0,2.412,1.555,2.412,3.473V47.441z"/>
<path fill="#282828" d="M406.184,14.816c0,1.918-1.079,3.473-2.412,3.473h-6.027c-1.332,0-2.412-1.555-2.412-3.473v-1.388
	c0-1.918,1.08-3.473,2.412-3.473h6.027c1.333,0,2.412,1.555,2.412,3.473V14.816z"/>
<path fill="#282828" d="M406.184,25.691c0,1.918-1.079,3.473-2.412,3.473h-6.027c-1.332,0-2.412-1.555-2.412-3.473v-1.388
	c0-1.918,1.08-3.473,2.412-3.473h6.027c1.333,0,2.412,1.555,2.412,3.473V25.691z"/>
<path fill="#282828" d="M406.184,36.566c0,1.918-1.079,3.473-2.412,3.473h-6.027c-1.332,0-2.412-1.555-2.412-3.473v-1.388
	c0-1.918,1.08-3.473,2.412-3.473h6.027c1.333,0,2.412,1.555,2.412,3.473V36.566z"/>
<path fill="#282828" d="M406.184,47.441c0,1.918-1.079,3.473-2.412,3.473h-6.027c-1.332,0-2.412-1.555-2.412-3.473v-1.388
	c0-1.918,1.08-3.473,2.412-3.473h6.027c1.333,0,2.412,1.555,2.412,3.473V47.441z"/>
<path fill="#282828" d="M419.434,14.816c0,1.918-1.079,3.473-2.412,3.473h-6.027c-1.332,0-2.412-1.555-2.412-3.473v-1.388
	c0-1.918,1.08-3.473,2.412-3.473h6.027c1.333,0,2.412,1.555,2.412,3.473V14.816z"/>
<path fill="#282828" d="M433.306,14.816c0,1.918-1.079,3.473-2.412,3.473h-6.027c-1.332,0-2.412-1.555-2.412-3.473v-1.388
	c0-1.918,1.08-3.473,2.412-3.473h6.027c1.333,0,2.412,1.555,2.412,3.473V14.816z"/>
<path fill="#282828" d="M446.556,14.816c0,1.918-1.079,3.473-2.412,3.473h-6.027c-1.332,0-2.412-1.555-2.412-3.473v-1.388
	c0-1.918,1.08-3.473,2.412-3.473h6.027c1.333,0,2.412,1.555,2.412,3.473V14.816z"/>
<path fill="#282828" d="M459.806,14.816c0,1.918-1.079,3.473-2.412,3.473h-6.027c-1.332,0-2.412-1.555-2.412-3.473v-1.388
	c0-1.918,1.08-3.473,2.412-3.473h6.027c1.333,0,2.412,1.555,2.412,3.473V14.816z"/>
<path fill="#282828" d="M473.056,14.816c0,1.918-1.079,3.473-2.412,3.473h-6.027c-1.332,0-2.412-1.555-2.412-3.473v-1.388
	c0-1.918,1.08-3.473,2.412-3.473h6.027c1.333,0,2.412,1.555,2.412,3.473V14.816z"/>
<path fill="#282828" d="M486.306,14.816c0,1.918-1.079,3.473-2.412,3.473h-6.027c-1.332,0-2.412-1.555-2.412-3.473v-1.388
	c0-1.918,1.08-3.473,2.412-3.473h6.027c1.333,0,2.412,1.555,2.412,3.473V14.816z"/>
<path fill="#282828" d="M499.556,14.816c0,1.918-1.079,3.473-2.412,3.473h-6.027c-1.332,0-2.412-1.555-2.412-3.473v-1.388
	c0-1.918,1.08-3.473,2.412-3.473h6.027c1.333,0,2.412,1.555,2.412,3.473V14.816z"/>
<path fill="#282828" d="M512.806,14.816c0,1.918-1.079,3.473-2.412,3.473h-6.027c-1.332,0-2.412-1.555-2.412-3.473v-1.388
	c0-1.918,1.08-3.473,2.412-3.473h6.027c1.333,0,2.412,1.555,2.412,3.473V14.816z"/>
<path fill="#282828" d="M526.056,14.816c0,1.918-1.079,3.473-2.412,3.473h-6.027c-1.332,0-2.412-1.555-2.412-3.473v-1.388
	c0-1.918,1.08-3.473,2.412-3.473h6.027c1.333,0,2.412,1.555,2.412,3.473V14.816z"/>
<path fill="#282828" d="M539.306,14.816c0,1.918-1.079,3.473-2.412,3.473h-6.027c-1.332,0-2.412-1.555-2.412-3.473v-1.388
	c0-1.918,1.08-3.473,2.412-3.473h6.027c1.333,0,2.412,1.555,2.412,3.473V14.816z"/>
<path fill="#282828" d="M552.556,14.816c0,1.918-1.079,3.473-2.412,3.473h-6.027c-1.332,0-2.412-1.555-2.412-3.473v-1.388
	c0-1.918,1.08-3.473,2.412-3.473h6.027c1.333,0,2.412,1.555,2.412,3.473V14.816z"/>
<path fill="#282828" d="M565.806,14.816c0,1.918-1.079,3.473-2.412,3.473h-6.027c-1.332,0-2.412-1.555-2.412-3.473v-1.388
	c0-1.918,1.08-3.473,2.412-3.473h6.027c1.333,0,2.412,1.555,2.412,3.473V14.816z"/>
<path fill="#282828" d="M579.056,14.816c0,1.918-1.079,3.473-2.412,3.473h-6.027c-1.332,0-2.412-1.555-2.412-3.473v-1.388
	c0-1.918,1.08-3.473,2.412-3.473h6.027c1.333,0,2.412,1.555,2.412,3.473V14.816z"/>
<path fill="#282828" d="M592.305,14.816c0,1.918-1.078,3.473-2.412,3.473h-6.027c-1.332,0-2.412-1.555-2.412-3.473v-1.388
	c0-1.918,1.08-3.473,2.412-3.473h6.027c1.334,0,2.412,1.555,2.412,3.473V14.816z"/>
<path fill="#282828" d="M605.555,14.816c0,1.918-1.078,3.473-2.412,3.473h-6.027c-1.332,0-2.412-1.555-2.412-3.473v-1.388
	c0-1.918,1.08-3.473,2.412-3.473h6.027c1.334,0,2.412,1.555,2.412,3.473V14.816z"/>
<path fill="#282828" d="M725.121,14.816c0,1.918-1.08,3.473-2.412,3.473h-6.027c-1.332,0-2.412-1.555-2.412-3.473v-1.388
	c0-1.918,1.08-3.473,2.412-3.473h6.027c1.332,0,2.412,1.555,2.412,3.473V14.816z"/>
<path fill="#282828" d="M738.371,14.816c0,1.918-1.08,3.473-2.412,3.473h-6.027c-1.332,0-2.412-1.555-2.412-3.473v-1.388
	c0-1.918,1.08-3.473,2.412-3.473h6.027c1.332,0,2.412,1.555,2.412,3.473V14.816z"/>
<path fill="#282828" d="M751.621,14.816c0,1.918-1.08,3.473-2.412,3.473h-6.027c-1.332,0-2.412-1.555-2.412-3.473v-1.388
	c0-1.918,1.08-3.473,2.412-3.473h6.027c1.332,0,2.412,1.555,2.412,3.473V14.816z"/>
<path fill="#282828" d="M764.871,14.816c0,1.918-1.08,3.473-2.412,3.473h-6.027c-1.332,0-2.412-1.555-2.412-3.473v-1.388
	c0-1.918,1.08-3.473,2.412-3.473h6.027c1.332,0,2.412,1.555,2.412,3.473V14.816z"/>
<path fill="#282828" d="M778.121,14.816c0,1.918-1.08,3.473-2.412,3.473h-6.027c-1.332,0-2.412-1.555-2.412-3.473v-1.388
	c0-1.918,1.08-3.473,2.412-3.473h6.027c1.332,0,2.412,1.555,2.412,3.473V14.816z"/>
<path fill="#282828" d="M791.371,14.816c0,1.918-1.08,3.473-2.412,3.473h-6.027c-1.332,0-2.412-1.555-2.412-3.473v-1.388
	c0-1.918,1.08-3.473,2.412-3.473h6.027c1.332,0,2.412,1.555,2.412,3.473V14.816z"/>
<path fill="#282828" d="M804.621,14.816c0,1.918-1.08,3.473-2.412,3.473h-6.027c-1.332,0-2.412-1.555-2.412-3.473v-1.388
	c0-1.918,1.08-3.473,2.412-3.473h6.027c1.332,0,2.412,1.555,2.412,3.473V14.816z"/>
<path fill="#282828" d="M817.871,14.816c0,1.918-1.08,3.473-2.412,3.473h-6.027c-1.332,0-2.412-1.555-2.412-3.473v-1.388
	c0-1.918,1.08-3.473,2.412-3.473h6.027c1.332,0,2.412,1.555,2.412,3.473V14.816z"/>
<path fill="#282828" d="M831.121,14.816c0,1.918-1.08,3.473-2.412,3.473h-6.027c-1.332,0-2.412-1.555-2.412-3.473v-1.388
	c0-1.918,1.08-3.473,2.412-3.473h6.027c1.332,0,2.412,1.555,2.412,3.473V14.816z"/>
<path fill="#282828" d="M844.371,14.816c0,1.918-1.08,3.473-2.412,3.473h-6.027c-1.332,0-2.412-1.555-2.412-3.473v-1.388
	c0-1.918,1.08-3.473,2.412-3.473h6.027c1.332,0,2.412,1.555,2.412,3.473V14.816z"/>
<path fill="#282828" d="M857.621,14.816c0,1.918-1.08,3.473-2.412,3.473h-6.027c-1.332,0-2.412-1.555-2.412-3.473v-1.388
	c0-1.918,1.08-3.473,2.412-3.473h6.027c1.332,0,2.412,1.555,2.412,3.473V14.816z"/>
<path fill="#282828" d="M870.871,14.816c0,1.918-1.08,3.473-2.412,3.473h-6.027c-1.332,0-2.412-1.555-2.412-3.473v-1.388
	c0-1.918,1.08-3.473,2.412-3.473h6.027c1.332,0,2.412,1.555,2.412,3.473V14.816z"/>
<path fill="#282828" d="M884.121,14.816c0,1.918-1.08,3.473-2.412,3.473h-6.027c-1.332,0-2.412-1.555-2.412-3.473v-1.388
	c0-1.918,1.08-3.473,2.412-3.473h6.027c1.332,0,2.412,1.555,2.412,3.473V14.816z"/>
<path fill="#282828" d="M897.371,14.816c0,1.918-1.08,3.473-2.412,3.473h-6.027c-1.332,0-2.412-1.555-2.412-3.473v-1.388
	c0-1.918,1.08-3.473,2.412-3.473h6.027c1.332,0,2.412,1.555,2.412,3.473V14.816z"/>
<path fill="#282828" d="M419.434,25.691c0,1.918-1.079,3.473-2.412,3.473h-6.027c-1.332,0-2.412-1.555-2.412-3.473v-1.388
	c0-1.918,1.08-3.473,2.412-3.473h6.027c1.333,0,2.412,1.555,2.412,3.473V25.691z"/>
<path fill="#282828" d="M419.434,36.566c0,1.918-1.079,3.473-2.412,3.473h-6.027c-1.332,0-2.412-1.555-2.412-3.473v-1.388
	c0-1.918,1.08-3.473,2.412-3.473h6.027c1.333,0,2.412,1.555,2.412,3.473V36.566z"/>
<path fill="#282828" d="M419.434,47.441c0,1.918-1.079,3.473-2.412,3.473h-6.027c-1.332,0-2.412-1.555-2.412-3.473v-1.388
	c0-1.918,1.08-3.473,2.412-3.473h6.027c1.333,0,2.412,1.555,2.412,3.473V47.441z"/>
<path fill="#282828" d="M910.279,14.816c0,1.918-1.08,3.473-2.412,3.473h-6.027c-1.332,0-2.412-1.555-2.412-3.473v-1.388
	c0-1.918,1.08-3.473,2.412-3.473h6.027c1.332,0,2.412,1.555,2.412,3.473V14.816z"/>
<path fill="#282828" d="M910.279,25.691c0,1.918-1.08,3.473-2.412,3.473h-6.027c-1.332,0-2.412-1.555-2.412-3.473v-1.388
	c0-1.918,1.08-3.473,2.412-3.473h6.027c1.332,0,2.412,1.555,2.412,3.473V25.691z"/>
<path fill="#282828" d="M910.279,36.566c0,1.918-1.08,3.473-2.412,3.473h-6.027c-1.332,0-2.412-1.555-2.412-3.473v-1.388
	c0-1.918,1.08-3.473,2.412-3.473h6.027c1.332,0,2.412,1.555,2.412,3.473V36.566z"/>
<path fill="#282828" d="M910.279,47.441c0,1.918-1.08,3.473-2.412,3.473h-6.027c-1.332,0-2.412-1.555-2.412-3.473v-1.388
	c0-1.918,1.08-3.473,2.412-3.473h6.027c1.332,0,2.412,1.555,2.412,3.473V47.441z"/>
<path fill="#282828" d="M923.529,14.816c0,1.918-1.08,3.473-2.412,3.473h-6.027c-1.332,0-2.412-1.555-2.412-3.473v-1.388
	c0-1.918,1.08-3.473,2.412-3.473h6.027c1.332,0,2.412,1.555,2.412,3.473V14.816z"/>
<path fill="#282828" d="M923.529,25.691c0,1.918-1.08,3.473-2.412,3.473h-6.027c-1.332,0-2.412-1.555-2.412-3.473v-1.388
	c0-1.918,1.08-3.473,2.412-3.473h6.027c1.332,0,2.412,1.555,2.412,3.473V25.691z"/>
<path fill="#282828" d="M923.529,36.566c0,1.918-1.08,3.473-2.412,3.473h-6.027c-1.332,0-2.412-1.555-2.412-3.473v-1.388
	c0-1.918,1.08-3.473,2.412-3.473h6.027c1.332,0,2.412,1.555,2.412,3.473V36.566z"/>
<path fill="#282828" d="M923.529,47.441c0,1.918-1.08,3.473-2.412,3.473h-6.027c-1.332,0-2.412-1.555-2.412-3.473v-1.388
	c0-1.918,1.08-3.473,2.412-3.473h6.027c1.332,0,2.412,1.555,2.412,3.473V47.441z"/>
<path fill="#282828" d="M936.779,14.816c0,1.918-1.08,3.473-2.412,3.473h-6.027c-1.332,0-2.412-1.555-2.412-3.473v-1.388
	c0-1.918,1.08-3.473,2.412-3.473h6.027c1.332,0,2.412,1.555,2.412,3.473V14.816z"/>
<path fill="#282828" d="M936.779,25.691c0,1.918-1.08,3.473-2.412,3.473h-6.027c-1.332,0-2.412-1.555-2.412-3.473v-1.388
	c0-1.918,1.08-3.473,2.412-3.473h6.027c1.332,0,2.412,1.555,2.412,3.473V25.691z"/>
<path fill="#282828" d="M936.779,36.566c0,1.918-1.08,3.473-2.412,3.473h-6.027c-1.332,0-2.412-1.555-2.412-3.473v-1.388
	c0-1.918,1.08-3.473,2.412-3.473h6.027c1.332,0,2.412,1.555,2.412,3.473V36.566z"/>
<path fill="#282828" d="M936.779,47.441c0,1.918-1.08,3.473-2.412,3.473h-6.027c-1.332,0-2.412-1.555-2.412-3.473v-1.388
	c0-1.918,1.08-3.473,2.412-3.473h6.027c1.332,0,2.412,1.555,2.412,3.473V47.441z"/>
<path fill="#282828" d="M950.029,14.816c0,1.918-1.08,3.473-2.412,3.473h-6.027c-1.332,0-2.412-1.555-2.412-3.473v-1.388
	c0-1.918,1.08-3.473,2.412-3.473h6.027c1.332,0,2.412,1.555,2.412,3.473V14.816z"/>
<path fill="#282828" d="M950.029,25.691c0,1.918-1.08,3.473-2.412,3.473h-6.027c-1.332,0-2.412-1.555-2.412-3.473v-1.388
	c0-1.918,1.08-3.473,2.412-3.473h6.027c1.332,0,2.412,1.555,2.412,3.473V25.691z"/>
<path fill="#282828" d="M950.029,36.566c0,1.918-1.08,3.473-2.412,3.473h-6.027c-1.332,0-2.412-1.555-2.412-3.473v-1.388
	c0-1.918,1.08-3.473,2.412-3.473h6.027c1.332,0,2.412,1.555,2.412,3.473V36.566z"/>
<path fill="#282828" d="M950.029,47.441c0,1.918-1.08,3.473-2.412,3.473h-6.027c-1.332,0-2.412-1.555-2.412-3.473v-1.388
	c0-1.918,1.08-3.473,2.412-3.473h6.027c1.332,0,2.412,1.555,2.412,3.473V47.441z"/>
<path fill="#282828" d="M963.279,14.816c0,1.918-1.08,3.473-2.412,3.473h-6.027c-1.332,0-2.412-1.555-2.412-3.473v-1.388
	c0-1.918,1.08-3.473,2.412-3.473h6.027c1.332,0,2.412,1.555,2.412,3.473V14.816z"/>
<path fill="#282828" d="M963.279,25.691c0,1.918-1.08,3.473-2.412,3.473h-6.027c-1.332,0-2.412-1.555-2.412-3.473v-1.388
	c0-1.918,1.08-3.473,2.412-3.473h6.027c1.332,0,2.412,1.555,2.412,3.473V25.691z"/>
<path fill="#282828" d="M963.279,36.566c0,1.918-1.08,3.473-2.412,3.473h-6.027c-1.332,0-2.412-1.555-2.412-3.473v-1.388
	c0-1.918,1.08-3.473,2.412-3.473h6.027c1.332,0,2.412,1.555,2.412,3.473V36.566z"/>
<path fill="#282828" d="M963.279,47.441c0,1.918-1.08,3.473-2.412,3.473h-6.027c-1.332,0-2.412-1.555-2.412-3.473v-1.388
	c0-1.918,1.08-3.473,2.412-3.473h6.027c1.332,0,2.412,1.555,2.412,3.473V47.441z"/>
<path fill="#282828" d="M976.529,14.816c0,1.918-1.08,3.473-2.412,3.473h-6.027c-1.332,0-2.412-1.555-2.412-3.473v-1.388
	c0-1.918,1.08-3.473,2.412-3.473h6.027c1.332,0,2.412,1.555,2.412,3.473V14.816z"/>
<path fill="#282828" d="M976.529,25.691c0,1.918-1.08,3.473-2.412,3.473h-6.027c-1.332,0-2.412-1.555-2.412-3.473v-1.388
	c0-1.918,1.08-3.473,2.412-3.473h6.027c1.332,0,2.412,1.555,2.412,3.473V25.691z"/>
<path fill="#282828" d="M976.529,36.566c0,1.918-1.08,3.473-2.412,3.473h-6.027c-1.332,0-2.412-1.555-2.412-3.473v-1.388
	c0-1.918,1.08-3.473,2.412-3.473h6.027c1.332,0,2.412,1.555,2.412,3.473V36.566z"/>
<path fill="#282828" d="M976.529,47.441c0,1.918-1.08,3.473-2.412,3.473h-6.027c-1.332,0-2.412-1.555-2.412-3.473v-1.388
	c0-1.918,1.08-3.473,2.412-3.473h6.027c1.332,0,2.412,1.555,2.412,3.473V47.441z"/>
<path fill="#282828" d="M989.779,14.816c0,1.918-1.08,3.473-2.412,3.473h-6.027c-1.332,0-2.412-1.555-2.412-3.473v-1.388
	c0-1.918,1.08-3.473,2.412-3.473h6.027c1.332,0,2.412,1.555,2.412,3.473V14.816z"/>
<path fill="#282828" d="M989.779,25.691c0,1.918-1.08,3.473-2.412,3.473h-6.027c-1.332,0-2.412-1.555-2.412-3.473v-1.388
	c0-1.918,1.08-3.473,2.412-3.473h6.027c1.332,0,2.412,1.555,2.412,3.473V25.691z"/>
<path fill="#282828" d="M989.779,36.566c0,1.918-1.08,3.473-2.412,3.473h-6.027c-1.332,0-2.412-1.555-2.412-3.473v-1.388
	c0-1.918,1.08-3.473,2.412-3.473h6.027c1.332,0,2.412,1.555,2.412,3.473V36.566z"/>
<path fill="#282828" d="M989.779,47.441c0,1.918-1.08,3.473-2.412,3.473h-6.027c-1.332,0-2.412-1.555-2.412-3.473v-1.388
	c0-1.918,1.08-3.473,2.412-3.473h6.027c1.332,0,2.412,1.555,2.412,3.473V47.441z"/>
<path fill="#282828" d="M1003.029,14.816c0,1.918-1.08,3.473-2.412,3.473h-6.027c-1.332,0-2.412-1.555-2.412-3.473v-1.388
	c0-1.918,1.08-3.473,2.412-3.473h6.027c1.332,0,2.412,1.555,2.412,3.473V14.816z"/>
<path fill="#282828" d="M1003.029,25.691c0,1.918-1.08,3.473-2.412,3.473h-6.027c-1.332,0-2.412-1.555-2.412-3.473v-1.388
	c0-1.918,1.08-3.473,2.412-3.473h6.027c1.332,0,2.412,1.555,2.412,3.473V25.691z"/>
<path fill="#282828" d="M1003.029,36.566c0,1.918-1.08,3.473-2.412,3.473h-6.027c-1.332,0-2.412-1.555-2.412-3.473v-1.388
	c0-1.918,1.08-3.473,2.412-3.473h6.027c1.332,0,2.412,1.555,2.412,3.473V36.566z"/>
<path fill="#282828" d="M1003.029,47.441c0,1.918-1.08,3.473-2.412,3.473h-6.027c-1.332,0-2.412-1.555-2.412-3.473v-1.388
	c0-1.918,1.08-3.473,2.412-3.473h6.027c1.332,0,2.412,1.555,2.412,3.473V47.441z"/>
<path fill="#282828" d="M1016.279,14.816c0,1.918-1.08,3.473-2.412,3.473h-6.027c-1.332,0-2.412-1.555-2.412-3.473v-1.388
	c0-1.918,1.08-3.473,2.412-3.473h6.027c1.332,0,2.412,1.555,2.412,3.473V14.816z"/>
<path fill="#282828" d="M1016.279,25.691c0,1.918-1.08,3.473-2.412,3.473h-6.027c-1.332,0-2.412-1.555-2.412-3.473v-1.388
	c0-1.918,1.08-3.473,2.412-3.473h6.027c1.332,0,2.412,1.555,2.412,3.473V25.691z"/>
<path fill="#282828" d="M1016.279,36.566c0,1.918-1.08,3.473-2.412,3.473h-6.027c-1.332,0-2.412-1.555-2.412-3.473v-1.388
	c0-1.918,1.08-3.473,2.412-3.473h6.027c1.332,0,2.412,1.555,2.412,3.473V36.566z"/>
<path fill="#282828" d="M1016.279,47.441c0,1.918-1.08,3.473-2.412,3.473h-6.027c-1.332,0-2.412-1.555-2.412-3.473v-1.388
	c0-1.918,1.08-3.473,2.412-3.473h6.027c1.332,0,2.412,1.555,2.412,3.473V47.441z"/>
<path fill="#282828" d="M1029.529,14.816c0,1.918-1.08,3.473-2.412,3.473h-6.027c-1.332,0-2.412-1.555-2.412-3.473v-1.388
	c0-1.918,1.08-3.473,2.412-3.473h6.027c1.332,0,2.412,1.555,2.412,3.473V14.816z"/>
<path fill="#282828" d="M1029.529,25.691c0,1.918-1.08,3.473-2.412,3.473h-6.027c-1.332,0-2.412-1.555-2.412-3.473v-1.388
	c0-1.918,1.08-3.473,2.412-3.473h6.027c1.332,0,2.412,1.555,2.412,3.473V25.691z"/>
<path fill="#282828" d="M1029.529,36.566c0,1.918-1.08,3.473-2.412,3.473h-6.027c-1.332,0-2.412-1.555-2.412-3.473v-1.388
	c0-1.918,1.08-3.473,2.412-3.473h6.027c1.332,0,2.412,1.555,2.412,3.473V36.566z"/>
<path fill="#282828" d="M1029.529,47.441c0,1.918-1.08,3.473-2.412,3.473h-6.027c-1.332,0-2.412-1.555-2.412-3.473v-1.388
	c0-1.918,1.08-3.473,2.412-3.473h6.027c1.332,0,2.412,1.555,2.412,3.473V47.441z"/>
<path fill="#282828" d="M1042.779,14.816c0,1.918-1.08,3.473-2.412,3.473h-6.027c-1.332,0-2.412-1.555-2.412-3.473v-1.388
	c0-1.918,1.08-3.473,2.412-3.473h6.027c1.332,0,2.412,1.555,2.412,3.473V14.816z"/>
<path fill="#282828" d="M1042.779,25.691c0,1.918-1.08,3.473-2.412,3.473h-6.027c-1.332,0-2.412-1.555-2.412-3.473v-1.388
	c0-1.918,1.08-3.473,2.412-3.473h6.027c1.332,0,2.412,1.555,2.412,3.473V25.691z"/>
<path fill="#282828" d="M1042.779,36.566c0,1.918-1.08,3.473-2.412,3.473h-6.027c-1.332,0-2.412-1.555-2.412-3.473v-1.388
	c0-1.918,1.08-3.473,2.412-3.473h6.027c1.332,0,2.412,1.555,2.412,3.473V36.566z"/>
<path fill="#282828" d="M1042.779,47.441c0,1.918-1.08,3.473-2.412,3.473h-6.027c-1.332,0-2.412-1.555-2.412-3.473v-1.388
	c0-1.918,1.08-3.473,2.412-3.473h6.027c1.332,0,2.412,1.555,2.412,3.473V47.441z"/>
<path fill="#282828" d="M1056.029,14.816c0,1.918-1.08,3.473-2.412,3.473h-6.027c-1.332,0-2.412-1.555-2.412-3.473v-1.388
	c0-1.918,1.08-3.473,2.412-3.473h6.027c1.332,0,2.412,1.555,2.412,3.473V14.816z"/>
<path fill="#282828" d="M1056.029,25.691c0,1.918-1.08,3.473-2.412,3.473h-6.027c-1.332,0-2.412-1.555-2.412-3.473v-1.388
	c0-1.918,1.08-3.473,2.412-3.473h6.027c1.332,0,2.412,1.555,2.412,3.473V25.691z"/>
<path fill="#282828" d="M1056.029,36.566c0,1.918-1.08,3.473-2.412,3.473h-6.027c-1.332,0-2.412-1.555-2.412-3.473v-1.388
	c0-1.918,1.08-3.473,2.412-3.473h6.027c1.332,0,2.412,1.555,2.412,3.473V36.566z"/>
<path fill="#282828" d="M1056.029,47.441c0,1.918-1.08,3.473-2.412,3.473h-6.027c-1.332,0-2.412-1.555-2.412-3.473v-1.388
	c0-1.918,1.08-3.473,2.412-3.473h6.027c1.332,0,2.412,1.555,2.412,3.473V47.441z"/>
<path fill="#282828" d="M1069.279,14.816c0,1.918-1.08,3.473-2.412,3.473h-6.027c-1.332,0-2.412-1.555-2.412-3.473v-1.388
	c0-1.918,1.08-3.473,2.412-3.473h6.027c1.332,0,2.412,1.555,2.412,3.473V14.816z"/>
<path fill="#282828" d="M1069.279,25.691c0,1.918-1.08,3.473-2.412,3.473h-6.027c-1.332,0-2.412-1.555-2.412-3.473v-1.388
	c0-1.918,1.08-3.473,2.412-3.473h6.027c1.332,0,2.412,1.555,2.412,3.473V25.691z"/>
<path fill="#282828" d="M1069.279,36.566c0,1.918-1.08,3.473-2.412,3.473h-6.027c-1.332,0-2.412-1.555-2.412-3.473v-1.388
	c0-1.918,1.08-3.473,2.412-3.473h6.027c1.332,0,2.412,1.555,2.412,3.473V36.566z"/>
<path fill="#282828" d="M1069.279,47.441c0,1.918-1.08,3.473-2.412,3.473h-6.027c-1.332,0-2.412-1.555-2.412-3.473v-1.388
	c0-1.918,1.08-3.473,2.412-3.473h6.027c1.332,0,2.412,1.555,2.412,3.473V47.441z"/>
<path fill="#282828" d="M1082.529,14.816c0,1.918-1.08,3.473-2.412,3.473h-6.027c-1.332,0-2.412-1.555-2.412-3.473v-1.388
	c0-1.918,1.08-3.473,2.412-3.473h6.027c1.332,0,2.412,1.555,2.412,3.473V14.816z"/>
<path fill="#282828" d="M1082.529,25.691c0,1.918-1.08,3.473-2.412,3.473h-6.027c-1.332,0-2.412-1.555-2.412-3.473v-1.388
	c0-1.918,1.08-3.473,2.412-3.473h6.027c1.332,0,2.412,1.555,2.412,3.473V25.691z"/>
<path fill="#282828" d="M1082.529,36.566c0,1.918-1.08,3.473-2.412,3.473h-6.027c-1.332,0-2.412-1.555-2.412-3.473v-1.388
	c0-1.918,1.08-3.473,2.412-3.473h6.027c1.332,0,2.412,1.555,2.412,3.473V36.566z"/>
<path fill="#282828" d="M1082.529,47.441c0,1.918-1.08,3.473-2.412,3.473h-6.027c-1.332,0-2.412-1.555-2.412-3.473v-1.388
	c0-1.918,1.08-3.473,2.412-3.473h6.027c1.332,0,2.412,1.555,2.412,3.473V47.441z"/>
<path fill="#282828" d="M1095.779,14.816c0,1.918-1.08,3.473-2.412,3.473h-6.027c-1.332,0-2.412-1.555-2.412-3.473v-1.388
	c0-1.918,1.08-3.473,2.412-3.473h6.027c1.332,0,2.412,1.555,2.412,3.473V14.816z"/>
<path fill="#282828" d="M1095.779,25.691c0,1.918-1.08,3.473-2.412,3.473h-6.027c-1.332,0-2.412-1.555-2.412-3.473v-1.388
	c0-1.918,1.08-3.473,2.412-3.473h6.027c1.332,0,2.412,1.555,2.412,3.473V25.691z"/>
<path fill="#282828" d="M1095.779,36.566c0,1.918-1.08,3.473-2.412,3.473h-6.027c-1.332,0-2.412-1.555-2.412-3.473v-1.388
	c0-1.918,1.08-3.473,2.412-3.473h6.027c1.332,0,2.412,1.555,2.412,3.473V36.566z"/>
<path fill="#282828" d="M1095.779,47.441c0,1.918-1.08,3.473-2.412,3.473h-6.027c-1.332,0-2.412-1.555-2.412-3.473v-1.388
	c0-1.918,1.08-3.473,2.412-3.473h6.027c1.332,0,2.412,1.555,2.412,3.473V47.441z"/>
</svg>
