<?xml version="1.0" encoding="utf-8"?>
<!-- Generator: Adobe Illustrator 16.0.0, SVG Export Plug-In . SVG Version: 6.00 Build 0)  -->
<!DOCTYPE svg PUBLIC "-//W3C//DTD SVG 1.1//EN" "http://www.w3.org/Graphics/SVG/1.1/DTD/svg11.dtd">
<svg version="1.1" id="图层_1" xmlns="http://www.w3.org/2000/svg" xmlns:xlink="http://www.w3.org/1999/xlink" x="0px" y="0px"
	 width="1275.59px" height="756.85px" viewBox="0 0 1275.59 756.85" enable-background="new 0 0 1275.59 756.85"
	 xml:space="preserve">
<rect x="0" y="0" fill="#39393A" stroke="#030000" stroke-width="2" stroke-miterlimit="10" width="1275.589" height="756.85"/>
<rect x="44.112" y="39.846" fill="#030000" width="1187.367" height="677.156"/>
<g>
	<path fill="#DEDACB" d="M1227.74,144.829c0,2.88-1.961,5.214-4.379,5.214H192.42c-2.419,0-4.378-2.334-4.378-5.214V48.282
		c0-2.879,1.959-5.214,4.378-5.214h1030.941c2.418,0,4.379,2.334,4.379,5.214V144.829z"/>
	<path fill="#B5B3AA" d="M1187.438,149.862h35.354c2.732,0,4.949-2.327,4.949-5.197V48.446c0-2.87-2.217-5.196-4.949-5.196h-35.354
		V149.862z"/>
	<g>
		<g>
			<path fill="#252626" d="M1219.457,96.556c0,6.979-5.314,12.644-11.869,12.644c-6.557,0-11.869-5.664-11.869-12.644
				c0-6.983,5.313-12.646,11.869-12.646C1214.143,83.911,1219.457,89.573,1219.457,96.556"/>
			<path fill="none" stroke="#121212" stroke-width="0.75" stroke-miterlimit="10" d="M1219.457,96.556
				c0,6.979-5.314,12.644-11.869,12.644c-6.557,0-11.869-5.664-11.869-12.644c0-6.983,5.313-12.646,11.869-12.646
				C1214.143,83.911,1219.457,89.573,1219.457,96.556z"/>
			<polygon fill="#040000" points="1206.123,103.726 1206.123,98.116 1200.857,98.116 1200.857,94.994 1206.123,94.994 
				1206.123,89.386 1209.055,89.386 1209.055,94.994 1214.318,94.994 1214.318,98.116 1209.055,98.116 1209.055,103.726 			"/>
			<path fill="#221714" d="M1208.807,89.648v5.08v0.53h0.496h4.77v2.594h-4.77h-0.496v0.527v5.083h-2.436v-5.083v-0.527h-0.498
				h-4.768v-2.594h4.768h0.498v-0.53v-5.08H1208.807z M1209.303,89.121h-3.43v5.607h-5.264v3.651h5.264v5.61h3.43v-5.61h5.264
				v-3.651h-5.264V89.121z"/>
		</g>
		<rect x="1205.873" y="89.121" fill="#606062" width="0.498" height="6.137"/>
		<rect x="1200.609" y="94.728" fill="#606062" width="5.758" height="0.53"/>
	</g>
	<path fill="#B5B3AA" d="M228.345,43.068h-35.353c-2.734,0-4.95,2.327-4.95,5.196v96.22c0,2.87,2.216,5.196,4.95,5.196h35.353
		V43.068z"/>
	<g>
		<radialGradient id="SVGID_1_" cx="342.5415" cy="96.1084" r="5.8872" gradientUnits="userSpaceOnUse">
			<stop  offset="0" style="stop-color:#FFFFFF"/>
			<stop  offset="1" style="stop-color:#8DC21F"/>
		</radialGradient>
		<circle fill="url(#SVGID_1_)" stroke="#030000" stroke-miterlimit="10" cx="342.542" cy="96.108" r="5.887"/>
		<circle fill="#5A5B5B" stroke="#030000" stroke-miterlimit="10" cx="366.436" cy="96.108" r="5.887"/>
		<text transform="matrix(0.7071 0.7071 -0.7071 0.7071 334.6768 74.7573)" fill="#231815" font-family="'SimHei'" font-size="10">RUN</text>
		<text transform="matrix(0.7071 0.7071 -0.7071 0.7071 358.6768 74.7573)" fill="#231815" font-family="'SimHei'" font-size="10">ALM</text>
	</g>
	<linearGradient id="SVGID_2_" gradientUnits="userSpaceOnUse" x1="190.6343" y1="146.293" x2="411.0142" y2="146.293">
		<stop  offset="0.0968" style="stop-color:#919292"/>
		<stop  offset="0.2546" style="stop-color:#F7F7F7"/>
		<stop  offset="0.6129" style="stop-color:#626159"/>
		<stop  offset="0.8204" style="stop-color:#EEEEEF"/>
		<stop  offset="1" style="stop-color:#919292"/>
	</linearGradient>
	<rect x="190.634" y="142.543" fill="url(#SVGID_2_)" width="220.38" height="7.5"/>
	
		<linearGradient id="SVGID_3_" gradientUnits="userSpaceOnUse" x1="2566.1641" y1="-8535.3076" x2="2786.5449" y2="-8535.3076" gradientTransform="matrix(-1 0 0 -1 3791.7793 -8389.0146)">
		<stop  offset="0.0968" style="stop-color:#919292"/>
		<stop  offset="0.2546" style="stop-color:#F7F7F7"/>
		<stop  offset="0.6129" style="stop-color:#626159"/>
		<stop  offset="0.8204" style="stop-color:#EEEEEF"/>
		<stop  offset="1" style="stop-color:#919292"/>
	</linearGradient>
	<rect x="1005.234" y="142.543" fill="url(#SVGID_3_)" width="220.381" height="7.5"/>
	<g>
		<g>
			<path fill="#252626" d="M219.279,96.556c0,6.979-5.315,12.645-11.87,12.645s-11.868-5.665-11.868-12.645
				c0-6.982,5.313-12.645,11.868-12.645S219.279,89.574,219.279,96.556"/>
			<path fill="none" stroke="#121212" stroke-width="0.75" stroke-miterlimit="10" d="M219.279,96.556
				c0,6.979-5.315,12.645-11.87,12.645s-11.868-5.665-11.868-12.645c0-6.982,5.313-12.645,11.868-12.645
				S219.279,89.574,219.279,96.556z"/>
			<polygon fill="#040000" points="205.944,103.726 205.944,98.116 200.678,98.116 200.678,94.994 205.944,94.994 205.944,89.387 
				208.875,89.387 208.875,94.994 214.138,94.994 214.138,98.116 208.875,98.116 208.875,103.726 			"/>
			<path fill="#221714" d="M208.627,89.648v5.08v0.53h0.496h4.77v2.595h-4.77h-0.496v0.526v5.084h-2.436v-5.084v-0.526h-0.498
				h-4.768v-2.595h4.768h0.498v-0.53v-5.08H208.627z M209.124,89.121h-3.43v5.607h-5.264v3.651h5.264v5.609h3.43v-5.609h5.265
				v-3.651h-5.265V89.121z"/>
		</g>
		<rect x="205.694" y="89.121" fill="#606062" width="0.498" height="6.138"/>
		<rect x="200.43" y="94.728" fill="#606062" width="5.757" height="0.53"/>
	</g>
</g>
<path fill="#DEDACB" d="M1227.74,257.278c0,2.88-1.961,5.214-4.379,5.214H192.42c-2.419,0-4.378-2.334-4.378-5.214v-96.547
	c0-2.879,1.959-5.214,4.378-5.214h1030.941c2.418,0,4.379,2.334,4.379,5.214V257.278z"/>
<path fill="#B5B3AA" d="M1187.438,262.311h35.354c2.732,0,4.949-2.327,4.949-5.197v-96.219c0-2.87-2.217-5.196-4.949-5.196h-35.354
	V262.311z"/>
<g>
	<g>
		<path fill="#252626" d="M1219.457,209.005c0,6.979-5.314,12.644-11.869,12.644c-6.557,0-11.869-5.665-11.869-12.644
			c0-6.983,5.313-12.645,11.869-12.645C1214.143,196.36,1219.457,202.022,1219.457,209.005"/>
		<path fill="none" stroke="#121212" stroke-width="0.75" stroke-miterlimit="10" d="M1219.457,209.005
			c0,6.979-5.314,12.644-11.869,12.644c-6.557,0-11.869-5.665-11.869-12.644c0-6.983,5.313-12.645,11.869-12.645
			C1214.143,196.36,1219.457,202.022,1219.457,209.005z"/>
		<polygon fill="#040000" points="1206.123,216.174 1206.123,210.565 1200.857,210.565 1200.857,207.442 1206.123,207.442 
			1206.123,201.835 1209.055,201.835 1209.055,207.442 1214.318,207.442 1214.318,210.565 1209.055,210.565 1209.055,216.174 		"/>
		<path fill="#221714" d="M1208.807,202.097v5.079v0.53h0.496h4.77v2.595h-4.77h-0.496v0.526v5.084h-2.436v-5.084v-0.526h-0.498
			h-4.768v-2.595h4.768h0.498v-0.53v-5.079H1208.807z M1209.303,201.57h-3.43v5.606h-5.264v3.651h5.264v5.61h3.43v-5.61h5.264
			v-3.651h-5.264V201.57z"/>
	</g>
	<rect x="1205.873" y="201.57" fill="#606062" width="0.498" height="6.137"/>
	<rect x="1200.609" y="207.176" fill="#606062" width="5.758" height="0.53"/>
</g>
<path fill="#B5B3AA" d="M228.345,155.517h-35.353c-2.734,0-4.95,2.326-4.95,5.196v96.22c0,2.87,2.216,5.196,4.95,5.196h35.353
	V155.517z"/>
<g>
	<radialGradient id="SVGID_4_" cx="342.5415" cy="208.5576" r="5.887" gradientUnits="userSpaceOnUse">
		<stop  offset="0" style="stop-color:#FFFFFF"/>
		<stop  offset="1" style="stop-color:#8DC21F"/>
	</radialGradient>
	<circle fill="url(#SVGID_4_)" stroke="#030000" stroke-miterlimit="10" cx="342.542" cy="208.557" r="5.887"/>
	<circle fill="#5A5B5B" stroke="#030000" stroke-miterlimit="10" cx="366.436" cy="208.557" r="5.887"/>
	<text transform="matrix(0.7071 0.7071 -0.7071 0.7071 334.6768 187.2065)" fill="#231815" font-family="'SimHei'" font-size="10">RUN</text>
	<text transform="matrix(0.7071 0.7071 -0.7071 0.7071 358.6768 187.2065)" fill="#231815" font-family="'SimHei'" font-size="10">ALM</text>
</g>
<linearGradient id="SVGID_5_" gradientUnits="userSpaceOnUse" x1="190.6343" y1="258.7417" x2="411.0142" y2="258.7417">
	<stop  offset="0.0968" style="stop-color:#919292"/>
	<stop  offset="0.2546" style="stop-color:#F7F7F7"/>
	<stop  offset="0.6129" style="stop-color:#626159"/>
	<stop  offset="0.8204" style="stop-color:#EEEEEF"/>
	<stop  offset="1" style="stop-color:#919292"/>
</linearGradient>
<rect x="190.634" y="254.992" fill="url(#SVGID_5_)" width="220.38" height="7.5"/>
<linearGradient id="SVGID_6_" gradientUnits="userSpaceOnUse" x1="2566.1641" y1="-8647.7559" x2="2786.5449" y2="-8647.7559" gradientTransform="matrix(-1 0 0 -1 3791.7793 -8389.0146)">
	<stop  offset="0.0968" style="stop-color:#919292"/>
	<stop  offset="0.2546" style="stop-color:#F7F7F7"/>
	<stop  offset="0.6129" style="stop-color:#626159"/>
	<stop  offset="0.8204" style="stop-color:#EEEEEF"/>
	<stop  offset="1" style="stop-color:#919292"/>
</linearGradient>
<rect x="1005.234" y="254.992" fill="url(#SVGID_6_)" width="220.381" height="7.5"/>
<g>
	<g>
		<path fill="#252626" d="M219.279,209.005c0,6.979-5.315,12.644-11.87,12.644s-11.868-5.665-11.868-12.644
			c0-6.982,5.313-12.645,11.868-12.645S219.279,202.023,219.279,209.005"/>
		<path fill="none" stroke="#121212" stroke-width="0.75" stroke-miterlimit="10" d="M219.279,209.005
			c0,6.979-5.315,12.644-11.87,12.644s-11.868-5.665-11.868-12.644c0-6.982,5.313-12.645,11.868-12.645
			S219.279,202.023,219.279,209.005z"/>
		<polygon fill="#040000" points="205.944,216.175 205.944,210.565 200.678,210.565 200.678,207.443 205.944,207.443 
			205.944,201.836 208.875,201.836 208.875,207.443 214.138,207.443 214.138,210.565 208.875,210.565 208.875,216.175 		"/>
		<path fill="#221714" d="M208.627,202.097v5.08v0.531h0.496h4.77v2.594h-4.77h-0.496v0.527v5.083h-2.436v-5.083v-0.527h-0.498
			h-4.768v-2.594h4.768h0.498v-0.531v-5.08H208.627z M209.124,201.57h-3.43v5.607h-5.264v3.652h5.264v5.609h3.43v-5.609h5.265
			v-3.652h-5.265V201.57z"/>
	</g>
	<rect x="205.694" y="201.57" fill="#606062" width="0.498" height="6.138"/>
	<rect x="200.43" y="207.177" fill="#606062" width="5.757" height="0.531"/>
</g>
<g>
	<path fill="#DEDACB" d="M1227.74,369.727c0,2.88-1.961,5.214-4.379,5.214H192.42c-2.419,0-4.378-2.334-4.378-5.214V273.18
		c0-2.88,1.959-5.214,4.378-5.214h1030.941c2.418,0,4.379,2.334,4.379,5.214V369.727z"/>
	<path fill="#B5B3AA" d="M1187.438,374.759h35.354c2.732,0,4.949-2.326,4.949-5.196v-96.22c0-2.87-2.217-5.196-4.949-5.196h-35.354
		V374.759z"/>
	<g>
		<g>
			<path fill="#252626" d="M1219.457,321.454c0,6.979-5.314,12.645-11.869,12.645c-6.557,0-11.869-5.665-11.869-12.645
				c0-6.982,5.313-12.645,11.869-12.645C1214.143,308.809,1219.457,314.471,1219.457,321.454"/>
			<path fill="none" stroke="#121212" stroke-width="0.75" stroke-miterlimit="10" d="M1219.457,321.454
				c0,6.979-5.314,12.645-11.869,12.645c-6.557,0-11.869-5.665-11.869-12.645c0-6.982,5.313-12.645,11.869-12.645
				C1214.143,308.809,1219.457,314.471,1219.457,321.454z"/>
			<polygon fill="#040000" points="1206.123,328.624 1206.123,323.014 1200.857,323.014 1200.857,319.891 1206.123,319.891 
				1206.123,314.285 1209.055,314.285 1209.055,319.891 1214.318,319.891 1214.318,323.014 1209.055,323.014 1209.055,328.624 			
				"/>
			<path fill="#221714" d="M1208.807,314.546v5.08v0.53h0.496h4.77v2.595h-4.77h-0.496v0.526v5.084h-2.436v-5.084v-0.526h-0.498
				h-4.768v-2.595h4.768h0.498v-0.53v-5.08H1208.807z M1209.303,314.019h-3.43v5.607h-5.264v3.651h5.264v5.609h3.43v-5.609h5.264
				v-3.651h-5.264V314.019z"/>
		</g>
		<rect x="1205.873" y="314.019" fill="#606062" width="0.498" height="6.137"/>
		<rect x="1200.609" y="319.625" fill="#606062" width="5.758" height="0.53"/>
	</g>
	<path fill="#B5B3AA" d="M228.345,267.966h-35.353c-2.734,0-4.95,2.327-4.95,5.197v96.219c0,2.87,2.216,5.196,4.95,5.196h35.353
		V267.966z"/>
	<g>
		<g>
			<path fill="#252626" d="M219.279,321.455c0,6.979-5.315,12.644-11.87,12.644s-11.868-5.664-11.868-12.644
				c0-6.982,5.313-12.645,11.868-12.645S219.279,314.472,219.279,321.455"/>
			<path fill="none" stroke="#121212" stroke-width="0.75" stroke-miterlimit="10" d="M219.279,321.455
				c0,6.979-5.315,12.644-11.87,12.644s-11.868-5.664-11.868-12.644c0-6.982,5.313-12.645,11.868-12.645
				S219.279,314.472,219.279,321.455z"/>
			<polygon fill="#040000" points="205.944,328.624 205.944,323.014 200.678,323.014 200.678,319.892 205.944,319.892 
				205.944,314.285 208.875,314.285 208.875,319.892 214.138,319.892 214.138,323.014 208.875,323.014 208.875,328.624 			"/>
			<path fill="#221714" d="M208.627,314.546v5.08v0.531h0.496h4.77v2.594h-4.77h-0.496v0.527v5.083h-2.436v-5.083v-0.527h-0.498
				h-4.768v-2.594h4.768h0.498v-0.531v-5.08H208.627z M209.124,314.019h-3.43v5.607h-5.264v3.652h5.264v5.609h3.43v-5.609h5.265
				v-3.652h-5.265V314.019z"/>
		</g>
		<rect x="205.694" y="314.019" fill="#606062" width="0.498" height="6.138"/>
		<rect x="200.43" y="319.626" fill="#606062" width="5.757" height="0.531"/>
	</g>
</g>
<g>
	<path fill="#DEDACB" d="M1227.74,482.176c0,2.881-1.961,5.215-4.379,5.215H192.42c-2.419,0-4.378-2.334-4.378-5.215v-96.547
		c0-2.879,1.959-5.214,4.378-5.214h1030.941c2.418,0,4.379,2.335,4.379,5.214V482.176z"/>
	<path fill="#B5B3AA" d="M1187.438,487.209h35.354c2.732,0,4.949-2.326,4.949-5.197v-96.219c0-2.871-2.217-5.197-4.949-5.197
		h-35.354V487.209z"/>
	<g>
		<g>
			<path fill="#252626" d="M1219.457,433.902c0,6.98-5.314,12.645-11.869,12.645c-6.557,0-11.869-5.664-11.869-12.645
				c0-6.982,5.313-12.645,11.869-12.645C1214.143,421.258,1219.457,426.92,1219.457,433.902"/>
			<path fill="none" stroke="#121212" stroke-width="0.75" stroke-miterlimit="10" d="M1219.457,433.902
				c0,6.98-5.314,12.645-11.869,12.645c-6.557,0-11.869-5.664-11.869-12.645c0-6.982,5.313-12.645,11.869-12.645
				C1214.143,421.258,1219.457,426.92,1219.457,433.902z"/>
			<polygon fill="#040000" points="1206.123,441.072 1206.123,435.463 1200.857,435.463 1200.857,432.34 1206.123,432.34 
				1206.123,426.734 1209.055,426.734 1209.055,432.34 1214.318,432.34 1214.318,435.463 1209.055,435.463 1209.055,441.072 			"/>
			<path fill="#221714" d="M1208.807,426.995v5.079v0.531h0.496h4.77v2.594h-4.77h-0.496v0.527v5.084h-2.436v-5.084v-0.527h-0.498
				h-4.768v-2.594h4.768h0.498v-0.531v-5.079H1208.807z M1209.303,426.467h-3.43v5.607h-5.264v3.652h5.264v5.609h3.43v-5.609h5.264
				v-3.652h-5.264V426.467z"/>
		</g>
		<rect x="1205.873" y="426.467" fill="#606062" width="0.498" height="6.139"/>
		<rect x="1200.609" y="432.074" fill="#606062" width="5.758" height="0.531"/>
	</g>
	<path fill="#B5B3AA" d="M228.345,380.415h-35.353c-2.734,0-4.95,2.327-4.95,5.196v96.22c0,2.87,2.216,5.196,4.95,5.196h35.353
		V380.415z"/>
	<g>
		<g>
			<path fill="#252626" d="M219.279,433.904c0,6.979-5.315,12.643-11.87,12.643s-11.868-5.664-11.868-12.643
				c0-6.983,5.313-12.646,11.868-12.646S219.279,426.921,219.279,433.904"/>
			<path fill="none" stroke="#121212" stroke-width="0.75" stroke-miterlimit="10" d="M219.279,433.904
				c0,6.979-5.315,12.643-11.87,12.643s-11.868-5.664-11.868-12.643c0-6.983,5.313-12.646,11.868-12.646
				S219.279,426.921,219.279,433.904z"/>
			<polygon fill="#040000" points="205.944,441.072 205.944,435.463 200.678,435.463 200.678,432.342 205.944,432.342 
				205.944,426.734 208.875,426.734 208.875,432.342 214.138,432.342 214.138,435.463 208.875,435.463 208.875,441.072 			"/>
			<path fill="#221714" d="M208.627,426.996v5.078v0.531h0.496h4.77v2.594h-4.77h-0.496v0.527v5.084h-2.436v-5.084v-0.527h-0.498
				h-4.768v-2.594h4.768h0.498v-0.531v-5.078H208.627z M209.124,426.469h-3.43v5.605h-5.264v3.652h5.264v5.609h3.43v-5.609h5.265
				v-3.652h-5.265V426.469z"/>
		</g>
		<rect x="205.694" y="426.469" fill="#606062" width="0.498" height="6.137"/>
		<rect x="200.43" y="432.074" fill="#606062" width="5.757" height="0.531"/>
	</g>
</g>
<g>
	<path fill="#DEDACB" d="M1227.74,594.625c0,2.88-1.961,5.214-4.379,5.214H192.42c-2.419,0-4.378-2.334-4.378-5.214v-96.547
		c0-2.879,1.959-5.215,4.378-5.215h1030.941c2.418,0,4.379,2.336,4.379,5.215V594.625z"/>
	<path fill="#B5B3AA" d="M1187.438,599.658h35.354c2.732,0,4.949-2.327,4.949-5.197v-96.219c0-2.871-2.217-5.197-4.949-5.197
		h-35.354V599.658z"/>
	<g>
		<g>
			<path fill="#252626" d="M1219.457,546.352c0,6.98-5.314,12.645-11.869,12.645c-6.557,0-11.869-5.664-11.869-12.645
				c0-6.982,5.313-12.645,11.869-12.645C1214.143,533.707,1219.457,539.369,1219.457,546.352"/>
			<path fill="none" stroke="#121212" stroke-width="0.75" stroke-miterlimit="10" d="M1219.457,546.352
				c0,6.98-5.314,12.645-11.869,12.645c-6.557,0-11.869-5.664-11.869-12.645c0-6.982,5.313-12.645,11.869-12.645
				C1214.143,533.707,1219.457,539.369,1219.457,546.352z"/>
			<polygon fill="#040000" points="1206.123,553.521 1206.123,547.912 1200.857,547.912 1200.857,544.789 1206.123,544.789 
				1206.123,539.183 1209.055,539.183 1209.055,544.789 1214.318,544.789 1214.318,547.912 1209.055,547.912 1209.055,553.521 			
				"/>
			<path fill="#221714" d="M1208.807,539.443v5.08v0.531h0.496h4.77v2.594h-4.77h-0.496v0.527v5.083h-2.436v-5.083v-0.527h-0.498
				h-4.768v-2.594h4.768h0.498v-0.531v-5.08H1208.807z M1209.303,538.916h-3.43v5.607h-5.264v3.652h5.264v5.609h3.43v-5.609h5.264
				v-3.652h-5.264V538.916z"/>
		</g>
		<rect x="1205.873" y="538.916" fill="#606062" width="0.498" height="6.139"/>
		<rect x="1200.609" y="544.523" fill="#606062" width="5.758" height="0.531"/>
	</g>
	<path fill="#B5B3AA" d="M228.345,492.863h-35.353c-2.734,0-4.95,2.327-4.95,5.197v96.219c0,2.871,2.216,5.197,4.95,5.197h35.353
		V492.863z"/>
	<g>
		<g>
			<path fill="#252626" d="M219.279,546.353c0,6.979-5.315,12.644-11.87,12.644s-11.868-5.664-11.868-12.644
				c0-6.983,5.313-12.646,11.868-12.646S219.279,539.369,219.279,546.353"/>
			<path fill="none" stroke="#121212" stroke-width="0.75" stroke-miterlimit="10" d="M219.279,546.353
				c0,6.979-5.315,12.644-11.87,12.644s-11.868-5.664-11.868-12.644c0-6.983,5.313-12.646,11.868-12.646
				S219.279,539.369,219.279,546.353z"/>
			<polygon fill="#040000" points="205.944,553.521 205.944,547.912 200.678,547.912 200.678,544.79 205.944,544.79 
				205.944,539.184 208.875,539.184 208.875,544.79 214.138,544.79 214.138,547.912 208.875,547.912 208.875,553.521 			"/>
			<path fill="#221714" d="M208.627,539.445v5.078v0.531h0.496h4.77v2.594h-4.77h-0.496v0.527v5.084h-2.436v-5.084v-0.527h-0.498
				h-4.768v-2.594h4.768h0.498v-0.531v-5.078H208.627z M209.124,538.917h-3.43v5.606h-5.264v3.652h5.264v5.609h3.43v-5.609h5.265
				v-3.652h-5.265V538.917z"/>
		</g>
		<rect x="205.694" y="538.917" fill="#606062" width="0.498" height="6.138"/>
		<rect x="200.43" y="544.523" fill="#606062" width="5.757" height="0.531"/>
	</g>
</g>
<g>
	<path fill="#DEDACB" d="M1227.74,707.074c0,2.881-1.961,5.215-4.379,5.215H192.42c-2.419,0-4.378-2.334-4.378-5.215v-96.547
		c0-2.879,1.959-5.215,4.378-5.215h1030.941c2.418,0,4.379,2.336,4.379,5.215V707.074z"/>
	<path fill="#B5B3AA" d="M1187.438,712.107h35.354c2.732,0,4.949-2.326,4.949-5.197v-96.219c0-2.871-2.217-5.197-4.949-5.197
		h-35.354V712.107z"/>
	<g>
		<g>
			<path fill="#252626" d="M1219.457,658.801c0,6.98-5.314,12.645-11.869,12.645c-6.557,0-11.869-5.664-11.869-12.645
				c0-6.982,5.313-12.645,11.869-12.645C1214.143,646.156,1219.457,651.818,1219.457,658.801"/>
			<path fill="none" stroke="#121212" stroke-width="0.75" stroke-miterlimit="10" d="M1219.457,658.801
				c0,6.98-5.314,12.645-11.869,12.645c-6.557,0-11.869-5.664-11.869-12.645c0-6.982,5.313-12.645,11.869-12.645
				C1214.143,646.156,1219.457,651.818,1219.457,658.801z"/>
			<polygon fill="#040000" points="1206.123,665.971 1206.123,660.361 1200.857,660.361 1200.857,657.238 1206.123,657.238 
				1206.123,651.633 1209.055,651.633 1209.055,657.238 1214.318,657.238 1214.318,660.361 1209.055,660.361 1209.055,665.971 			
				"/>
			<path fill="#221714" d="M1208.807,651.893v5.08v0.531h0.496h4.77v2.594h-4.77h-0.496v0.527v5.084h-2.436v-5.084v-0.527h-0.498
				h-4.768v-2.594h4.768h0.498v-0.531v-5.08H1208.807z M1209.303,651.365h-3.43v5.607h-5.264v3.652h5.264v5.609h3.43v-5.609h5.264
				v-3.652h-5.264V651.365z"/>
		</g>
		<rect x="1205.873" y="651.365" fill="#606062" width="0.498" height="6.139"/>
		<rect x="1200.609" y="656.973" fill="#606062" width="5.758" height="0.531"/>
	</g>
	<path fill="#B5B3AA" d="M228.345,605.313h-35.353c-2.734,0-4.95,2.328-4.95,5.197v96.221c0,2.869,2.216,5.195,4.95,5.195h35.353
		V605.313z"/>
	<g>
		<g>
			<path fill="#252626" d="M219.279,658.803c0,6.979-5.315,12.643-11.87,12.643s-11.868-5.664-11.868-12.643
				c0-6.984,5.313-12.646,11.868-12.646S219.279,651.818,219.279,658.803"/>
			<path fill="none" stroke="#121212" stroke-width="0.75" stroke-miterlimit="10" d="M219.279,658.803
				c0,6.979-5.315,12.643-11.87,12.643s-11.868-5.664-11.868-12.643c0-6.984,5.313-12.646,11.868-12.646
				S219.279,651.818,219.279,658.803z"/>
			<polygon fill="#040000" points="205.944,665.971 205.944,660.361 200.678,660.361 200.678,657.24 205.944,657.24 
				205.944,651.633 208.875,651.633 208.875,657.24 214.138,657.24 214.138,660.361 208.875,660.361 208.875,665.971 			"/>
			<path fill="#221714" d="M208.627,651.895v5.078v0.531h0.496h4.77v2.594h-4.77h-0.496v0.527v5.084h-2.436v-5.084v-0.527h-0.498
				h-4.768v-2.594h4.768h0.498v-0.531v-5.078H208.627z M209.124,651.367h-3.43v5.605h-5.264v3.652h5.264v5.609h3.43v-5.609h5.265
				v-3.652h-5.265V651.367z"/>
		</g>
		<rect x="205.694" y="651.367" fill="#606062" width="0.498" height="6.137"/>
		<rect x="200.43" y="656.973" fill="#606062" width="5.757" height="0.531"/>
	</g>
</g>
<rect x="8.444" y="10.427" fill="#DEDACB" width="175.433" height="734.963"/>
<rect x="1232.479" y="3.902" fill="#DEDACB" width="27.398" height="741.489"/>
<g>
	<path fill="#AFAEAE" d="M111.142,693.613c0,5.699-4.594,10.32-10.265,10.32c-5.669,0-10.267-4.621-10.267-10.32
		c0-5.701,4.598-10.324,10.267-10.324C106.548,683.289,111.142,687.912,111.142,693.613"/>
	<ellipse fill="none" stroke="#929292" stroke-miterlimit="10" cx="100.876" cy="693.613" rx="10.266" ry="10.32"/>
	<path fill="#AFAEAE" d="M108.421,693.613c0,4.188-3.379,7.584-7.544,7.584s-7.544-3.396-7.544-7.584
		c0-4.189,3.379-7.586,7.544-7.586S108.421,689.424,108.421,693.613"/>
	<ellipse fill="none" stroke="#929292" stroke-miterlimit="10" cx="100.877" cy="693.613" rx="7.544" ry="7.584"/>
	<g>
		<g>
			<defs>
				<rect id="SVGID_7_" x="93.765" y="686.463" width="14.223" height="14.297"/>
			</defs>
			<clipPath id="SVGID_8_">
				<use xlink:href="#SVGID_7_"  overflow="visible"/>
			</clipPath>
			<path clip-path="url(#SVGID_8_)" fill="#BEBEBD" d="M107.986,693.613c0,3.945-3.182,7.146-7.108,7.146s-7.11-3.201-7.11-7.146
				c0-3.949,3.184-7.15,7.11-7.15S107.986,689.664,107.986,693.613"/>
			<path clip-path="url(#SVGID_8_)" fill="#C0C0C0" d="M107.82,693.613c0,3.852-3.11,6.979-6.942,6.979
				c-3.835,0-6.942-3.127-6.942-6.979c0-3.855,3.107-6.982,6.942-6.982C104.709,686.631,107.82,689.758,107.82,693.613"/>
			<path clip-path="url(#SVGID_8_)" fill="#C2C3C3" d="M107.652,693.613c0,3.76-3.033,6.811-6.774,6.811s-6.774-3.051-6.774-6.811
				c0-3.764,3.033-6.813,6.774-6.813S107.652,689.85,107.652,693.613"/>
			<path clip-path="url(#SVGID_8_)" fill="#C4C5C4" d="M107.484,693.613c0,3.668-2.957,6.643-6.606,6.643
				c-3.65,0-6.608-2.975-6.608-6.643c0-3.67,2.958-6.645,6.608-6.645C104.527,686.969,107.484,689.943,107.484,693.613"/>
			<path clip-path="url(#SVGID_8_)" fill="#C6C8C8" d="M107.318,693.613c0,3.574-2.885,6.475-6.44,6.475
				c-3.558,0-6.44-2.9-6.44-6.475c0-3.578,2.883-6.477,6.44-6.477C104.433,687.137,107.318,690.035,107.318,693.613"/>
			<path clip-path="url(#SVGID_8_)" fill="#C9CACB" d="M107.15,693.613c0,3.482-2.809,6.305-6.272,6.305
				c-3.465,0-6.272-2.822-6.272-6.305c0-3.484,2.808-6.309,6.272-6.309C104.341,687.305,107.15,690.129,107.15,693.613"/>
			<path clip-path="url(#SVGID_8_)" fill="#CBCDCD" d="M106.984,693.613c0,3.389-2.734,6.139-6.106,6.139s-6.106-2.75-6.106-6.139
				c0-3.393,2.734-6.143,6.106-6.143S106.984,690.221,106.984,693.613"/>
			<path clip-path="url(#SVGID_8_)" fill="#CCCFD0" d="M106.818,693.613c0,3.295-2.662,5.971-5.94,5.971
				c-3.279,0-5.938-2.676-5.938-5.971c0-3.299,2.659-5.973,5.938-5.973C104.156,687.641,106.818,690.314,106.818,693.613"/>
			<path clip-path="url(#SVGID_8_)" fill="#D0D2D2" d="M106.65,693.613c0,3.203-2.584,5.803-5.772,5.803s-5.771-2.6-5.771-5.803
				c0-3.207,2.582-5.805,5.771-5.805S106.65,690.406,106.65,693.613"/>
			<path clip-path="url(#SVGID_8_)" fill="#D2D4D5" d="M106.482,693.613c0,3.109-2.51,5.633-5.604,5.633
				c-3.098,0-5.604-2.523-5.604-5.633c0-3.113,2.507-5.637,5.604-5.637C103.972,687.977,106.482,690.5,106.482,693.613"/>
		</g>
	</g>
	<polygon fill="#605F5E" points="99.948,697.91 99.948,694.547 96.603,694.547 96.603,692.678 99.948,692.678 99.948,689.314 
		101.806,689.314 101.806,692.678 105.152,692.678 105.152,694.547 101.806,694.547 101.806,697.91 	"/>
	<path fill="#221714" d="M101.645,689.477v3.039v0.324h0.321h3.025v1.543h-3.025h-0.321v0.324v3.039h-1.537v-3.039v-0.324h-0.319
		h-3.026v-1.543h3.026h0.319v-0.324v-3.039H101.645z M101.966,689.152h-2.178v3.363h-3.346v2.191h3.346v3.363h2.178v-3.363h3.345
		v-2.191h-3.345V689.152z"/>
</g>
<g>
	<g>
		<path fill="#AFAEAE" d="M296.737,20.874c0,5.7-4.594,10.321-10.265,10.321c-5.67,0-10.268-4.621-10.268-10.321
			c0-5.701,4.598-10.323,10.268-10.323C292.143,10.55,296.737,15.172,296.737,20.874"/>
		<ellipse fill="none" stroke="#929292" stroke-miterlimit="10" cx="286.471" cy="20.874" rx="10.266" ry="10.321"/>
		<path fill="#AFAEAE" d="M294.014,20.874c0,4.188-3.377,7.584-7.542,7.584c-4.166,0-7.544-3.396-7.544-7.584
			c0-4.189,3.378-7.586,7.544-7.586C290.637,13.288,294.014,16.684,294.014,20.874"/>
		<ellipse fill="none" stroke="#929292" stroke-miterlimit="10" cx="286.471" cy="20.874" rx="7.543" ry="7.584"/>
		<g>
			<g>
				<defs>
					<rect id="SVGID_9_" x="279.36" y="13.724" width="14.223" height="14.296"/>
				</defs>
				<clipPath id="SVGID_10_">
					<use xlink:href="#SVGID_9_"  overflow="visible"/>
				</clipPath>
				<path clip-path="url(#SVGID_10_)" fill="#BEBEBD" d="M293.581,20.874c0,3.946-3.182,7.146-7.108,7.146s-7.11-3.2-7.11-7.146
					c0-3.948,3.184-7.149,7.11-7.149S293.581,16.925,293.581,20.874"/>
				<path clip-path="url(#SVGID_10_)" fill="#C0C0C0" d="M293.415,20.874c0,3.853-3.109,6.979-6.942,6.979
					c-3.835,0-6.942-3.125-6.942-6.979c0-3.855,3.107-6.981,6.942-6.981C290.305,13.892,293.415,17.018,293.415,20.874"/>
				<path clip-path="url(#SVGID_10_)" fill="#C2C3C3" d="M293.247,20.874c0,3.761-3.033,6.812-6.774,6.812s-6.774-3.051-6.774-6.812
					c0-3.763,3.033-6.813,6.774-6.813S293.247,17.111,293.247,20.874"/>
				<path clip-path="url(#SVGID_10_)" fill="#C4C5C4" d="M293.079,20.874c0,3.668-2.958,6.643-6.606,6.643
					c-3.65,0-6.608-2.974-6.608-6.643c0-3.67,2.958-6.644,6.608-6.644C290.121,14.23,293.079,17.204,293.079,20.874"/>
				<path clip-path="url(#SVGID_10_)" fill="#C6C8C8" d="M292.913,20.874c0,3.574-2.885,6.475-6.44,6.475
					c-3.558,0-6.44-2.9-6.44-6.475c0-3.577,2.883-6.477,6.44-6.477C290.028,14.397,292.913,17.296,292.913,20.874"/>
				<path clip-path="url(#SVGID_10_)" fill="#C9CACB" d="M292.745,20.874c0,3.482-2.81,6.306-6.272,6.306
					c-3.465,0-6.272-2.823-6.272-6.306c0-3.484,2.808-6.309,6.272-6.309C289.935,14.565,292.745,17.389,292.745,20.874"/>
				<path clip-path="url(#SVGID_10_)" fill="#CBCDCD" d="M292.579,20.874c0,3.389-2.734,6.139-6.106,6.139s-6.106-2.75-6.106-6.139
					c0-3.392,2.734-6.142,6.106-6.142S292.579,17.482,292.579,20.874"/>
				<path clip-path="url(#SVGID_10_)" fill="#CCCFD0" d="M292.413,20.874c0,3.296-2.663,5.971-5.94,5.971
					c-3.279,0-5.938-2.674-5.938-5.971c0-3.299,2.659-5.972,5.938-5.972C289.75,14.902,292.413,17.575,292.413,20.874"/>
				<path clip-path="url(#SVGID_10_)" fill="#D0D2D2" d="M292.245,20.874c0,3.203-2.584,5.803-5.772,5.803s-5.771-2.6-5.771-5.803
					c0-3.206,2.582-5.805,5.771-5.805S292.245,17.668,292.245,20.874"/>
				<path clip-path="url(#SVGID_10_)" fill="#D2D4D5" d="M292.077,20.874c0,3.11-2.51,5.634-5.604,5.634
					c-3.097,0-5.604-2.523-5.604-5.634c0-3.113,2.508-5.636,5.604-5.636C289.567,15.238,292.077,17.76,292.077,20.874"/>
			</g>
		</g>
		<polygon fill="#605F5E" points="285.543,25.171 285.543,21.807 282.198,21.807 282.198,19.939 285.543,19.939 285.543,16.575 
			287.401,16.575 287.401,19.939 290.747,19.939 290.747,21.807 287.401,21.807 287.401,25.171 		"/>
		<path fill="#221714" d="M287.24,16.737v3.039v0.325h0.321h3.025v1.543h-3.025h-0.321v0.323v3.04h-1.536v-3.04v-0.323h-0.32h-3.026
			v-1.543h3.026h0.32v-0.325v-3.039H287.24z M287.561,16.414h-2.178v3.362h-3.347v2.191h3.347v3.364h2.178v-3.364h3.346v-2.191
			h-3.346V16.414z"/>
	</g>
	<g>
		<path fill="#AFAEAE" d="M296.737,736.785c0,5.701-4.594,10.322-10.265,10.322c-5.67,0-10.268-4.621-10.268-10.322
			s4.598-10.322,10.268-10.322C292.143,726.463,296.737,731.084,296.737,736.785"/>
		<ellipse fill="none" stroke="#929292" stroke-miterlimit="10" cx="286.471" cy="736.785" rx="10.266" ry="10.322"/>
		<path fill="#AFAEAE" d="M294.014,736.785c0,4.188-3.377,7.586-7.542,7.586c-4.166,0-7.544-3.398-7.544-7.586
			c0-4.189,3.378-7.586,7.544-7.586C290.637,729.199,294.014,732.596,294.014,736.785"/>
		<ellipse fill="none" stroke="#929292" stroke-miterlimit="10" cx="286.471" cy="736.785" rx="7.543" ry="7.586"/>
		<g>
			<g>
				<defs>
					<rect id="SVGID_11_" x="279.36" y="729.637" width="14.223" height="14.295"/>
				</defs>
				<clipPath id="SVGID_12_">
					<use xlink:href="#SVGID_11_"  overflow="visible"/>
				</clipPath>
				<path clip-path="url(#SVGID_12_)" fill="#BEBEBD" d="M293.581,736.785c0,3.947-3.182,7.146-7.108,7.146s-7.11-3.199-7.11-7.146
					s3.184-7.148,7.11-7.148S293.581,732.838,293.581,736.785"/>
				<path clip-path="url(#SVGID_12_)" fill="#C0C0C0" d="M293.415,736.785c0,3.854-3.109,6.979-6.942,6.979
					c-3.835,0-6.942-3.125-6.942-6.979c0-3.855,3.107-6.98,6.942-6.98C290.305,729.805,293.415,732.93,293.415,736.785"/>
				<path clip-path="url(#SVGID_12_)" fill="#C2C3C3" d="M293.247,736.785c0,3.762-3.033,6.813-6.774,6.813
					s-6.774-3.051-6.774-6.813s3.033-6.813,6.774-6.813S293.247,733.023,293.247,736.785"/>
				<path clip-path="url(#SVGID_12_)" fill="#C4C5C4" d="M293.079,736.785c0,3.67-2.958,6.643-6.606,6.643
					c-3.65,0-6.608-2.973-6.608-6.643s2.958-6.643,6.608-6.643C290.121,730.143,293.079,733.115,293.079,736.785"/>
				<path clip-path="url(#SVGID_12_)" fill="#C6C8C8" d="M292.913,736.785c0,3.574-2.885,6.475-6.44,6.475
					c-3.558,0-6.44-2.9-6.44-6.475c0-3.576,2.883-6.477,6.44-6.477C290.028,730.309,292.913,733.209,292.913,736.785"/>
				<path clip-path="url(#SVGID_12_)" fill="#C9CACB" d="M292.745,736.785c0,3.482-2.81,6.307-6.272,6.307
					c-3.465,0-6.272-2.824-6.272-6.307c0-3.484,2.808-6.309,6.272-6.309C289.935,730.477,292.745,733.301,292.745,736.785"/>
				<path clip-path="url(#SVGID_12_)" fill="#CBCDCD" d="M292.579,736.785c0,3.391-2.734,6.141-6.106,6.141s-6.106-2.75-6.106-6.141
					s2.734-6.141,6.106-6.141S292.579,733.395,292.579,736.785"/>
				<path clip-path="url(#SVGID_12_)" fill="#CCCFD0" d="M292.413,736.785c0,3.297-2.663,5.971-5.94,5.971
					c-3.279,0-5.938-2.674-5.938-5.971c0-3.299,2.659-5.971,5.938-5.971C289.75,730.814,292.413,733.486,292.413,736.785"/>
				<path clip-path="url(#SVGID_12_)" fill="#D0D2D2" d="M292.245,736.785c0,3.203-2.584,5.803-5.772,5.803s-5.771-2.6-5.771-5.803
					c0-3.205,2.582-5.805,5.771-5.805S292.245,733.58,292.245,736.785"/>
				<path clip-path="url(#SVGID_12_)" fill="#D2D4D5" d="M292.077,736.785c0,3.111-2.51,5.635-5.604,5.635
					c-3.097,0-5.604-2.523-5.604-5.635c0-3.113,2.508-5.635,5.604-5.635C289.567,731.15,292.077,733.672,292.077,736.785"/>
			</g>
		</g>
		<polygon fill="#605F5E" points="285.543,741.084 285.543,737.719 282.198,737.719 282.198,735.852 285.543,735.852 
			285.543,732.486 287.401,732.486 287.401,735.852 290.747,735.852 290.747,737.719 287.401,737.719 287.401,741.084 		"/>
		<path fill="#221714" d="M287.24,732.648v3.039v0.326h0.321h3.025v1.543h-3.025h-0.321v0.322v3.041h-1.536v-3.041v-0.322h-0.32
			h-3.026v-1.543h3.026h0.32v-0.326v-3.039H287.24z M287.561,732.326h-2.178v3.361h-3.347v2.191h3.347v3.365h2.178v-3.365h3.346
			v-2.191h-3.346V732.326z"/>
	</g>
</g>
<g>
	<g>
		<path fill="#AFAEAE" d="M704,20.874c0,5.7-4.594,10.321-10.266,10.321c-5.668,0-10.266-4.621-10.266-10.321
			c0-5.701,4.598-10.323,10.266-10.323C699.406,10.55,704,15.172,704,20.874"/>
		<ellipse fill="none" stroke="#929292" stroke-miterlimit="10" cx="693.734" cy="20.874" rx="10.266" ry="10.321"/>
		<path fill="#AFAEAE" d="M701.279,20.874c0,4.188-3.379,7.584-7.545,7.584c-4.164,0-7.543-3.396-7.543-7.584
			c0-4.189,3.379-7.586,7.543-7.586C697.9,13.288,701.279,16.684,701.279,20.874"/>
		<ellipse fill="none" stroke="#929292" stroke-miterlimit="10" cx="693.735" cy="20.874" rx="7.544" ry="7.584"/>
		<g>
			<g>
				<defs>
					<rect id="SVGID_13_" x="686.623" y="13.724" width="14.223" height="14.296"/>
				</defs>
				<clipPath id="SVGID_14_">
					<use xlink:href="#SVGID_13_"  overflow="visible"/>
				</clipPath>
				<path clip-path="url(#SVGID_14_)" fill="#BEBEBD" d="M700.842,20.874c0,3.946-3.18,7.146-7.107,7.146s-7.109-3.2-7.109-7.146
					c0-3.948,3.182-7.149,7.109-7.149S700.842,16.925,700.842,20.874"/>
				<path clip-path="url(#SVGID_14_)" fill="#C0C0C0" d="M700.678,20.874c0,3.853-3.109,6.979-6.943,6.979s-6.941-3.125-6.941-6.979
					c0-3.855,3.107-6.981,6.941-6.981S700.678,17.018,700.678,20.874"/>
				<path clip-path="url(#SVGID_14_)" fill="#C2C3C3" d="M700.51,20.874c0,3.761-3.033,6.812-6.775,6.812s-6.773-3.051-6.773-6.812
					c0-3.763,3.031-6.813,6.773-6.813S700.51,17.111,700.51,20.874"/>
				<path clip-path="url(#SVGID_14_)" fill="#C4C5C4" d="M700.342,20.874c0,3.668-2.957,6.643-6.607,6.643s-6.609-2.974-6.609-6.643
					c0-3.67,2.959-6.644,6.609-6.644S700.342,17.204,700.342,20.874"/>
				<path clip-path="url(#SVGID_14_)" fill="#C6C8C8" d="M700.176,20.874c0,3.574-2.885,6.475-6.441,6.475s-6.441-2.9-6.441-6.475
					c0-3.577,2.885-6.477,6.441-6.477S700.176,17.296,700.176,20.874"/>
				<path clip-path="url(#SVGID_14_)" fill="#C9CACB" d="M700.008,20.874c0,3.482-2.809,6.306-6.273,6.306s-6.273-2.823-6.273-6.306
					c0-3.484,2.809-6.309,6.273-6.309S700.008,17.389,700.008,20.874"/>
				<path clip-path="url(#SVGID_14_)" fill="#CBCDCD" d="M699.842,20.874c0,3.389-2.734,6.139-6.107,6.139
					c-3.371,0-6.105-2.75-6.105-6.139c0-3.392,2.734-6.142,6.105-6.142C697.107,14.732,699.842,17.482,699.842,20.874"/>
				<path clip-path="url(#SVGID_14_)" fill="#CCCFD0" d="M699.674,20.874c0,3.296-2.66,5.971-5.939,5.971s-5.938-2.674-5.938-5.971
					c0-3.299,2.658-5.972,5.938-5.972S699.674,17.575,699.674,20.874"/>
				<path clip-path="url(#SVGID_14_)" fill="#D0D2D2" d="M699.508,20.874c0,3.203-2.584,5.803-5.773,5.803s-5.77-2.6-5.77-5.803
					c0-3.206,2.58-5.805,5.77-5.805S699.508,17.668,699.508,20.874"/>
				<path clip-path="url(#SVGID_14_)" fill="#D2D4D5" d="M699.34,20.874c0,3.11-2.512,5.634-5.605,5.634
					c-3.096,0-5.605-2.523-5.605-5.634c0-3.113,2.51-5.636,5.605-5.636C696.828,15.238,699.34,17.76,699.34,20.874"/>
			</g>
		</g>
		<polygon fill="#605F5E" points="692.807,25.171 692.807,21.807 689.461,21.807 689.461,19.939 692.807,19.939 692.807,16.575 
			694.664,16.575 694.664,19.939 698.01,19.939 698.01,21.807 694.664,21.807 694.664,25.171 		"/>
		<path fill="#221714" d="M694.502,16.737v3.039v0.325h0.322h3.025v1.543h-3.025h-0.322v0.323v3.04h-1.537v-3.04v-0.323h-0.318
			h-3.027v-1.543h3.027h0.318v-0.325v-3.039H694.502z M694.824,16.414h-2.178v3.362h-3.346v2.191h3.346v3.364h2.178v-3.364h3.346
			v-2.191h-3.346V16.414z"/>
	</g>
	<g>
		<path fill="#AFAEAE" d="M704,736.785c0,5.701-4.594,10.322-10.266,10.322c-5.668,0-10.266-4.621-10.266-10.322
			s4.598-10.322,10.266-10.322C699.406,726.463,704,731.084,704,736.785"/>
		<ellipse fill="none" stroke="#929292" stroke-miterlimit="10" cx="693.734" cy="736.785" rx="10.266" ry="10.322"/>
		<path fill="#AFAEAE" d="M701.279,736.785c0,4.188-3.379,7.586-7.545,7.586c-4.164,0-7.543-3.398-7.543-7.586
			c0-4.189,3.379-7.586,7.543-7.586C697.9,729.199,701.279,732.596,701.279,736.785"/>
		<ellipse fill="none" stroke="#929292" stroke-miterlimit="10" cx="693.735" cy="736.785" rx="7.544" ry="7.586"/>
		<g>
			<g>
				<defs>
					<rect id="SVGID_15_" x="686.623" y="729.637" width="14.223" height="14.295"/>
				</defs>
				<clipPath id="SVGID_16_">
					<use xlink:href="#SVGID_15_"  overflow="visible"/>
				</clipPath>
				<path clip-path="url(#SVGID_16_)" fill="#BEBEBD" d="M700.842,736.785c0,3.947-3.18,7.146-7.107,7.146s-7.109-3.199-7.109-7.146
					s3.182-7.148,7.109-7.148S700.842,732.838,700.842,736.785"/>
				<path clip-path="url(#SVGID_16_)" fill="#C0C0C0" d="M700.678,736.785c0,3.854-3.109,6.979-6.943,6.979
					s-6.941-3.125-6.941-6.979c0-3.855,3.107-6.98,6.941-6.98S700.678,732.93,700.678,736.785"/>
				<path clip-path="url(#SVGID_16_)" fill="#C2C3C3" d="M700.51,736.785c0,3.762-3.033,6.813-6.775,6.813s-6.773-3.051-6.773-6.813
					s3.031-6.813,6.773-6.813S700.51,733.023,700.51,736.785"/>
				<path clip-path="url(#SVGID_16_)" fill="#C4C5C4" d="M700.342,736.785c0,3.67-2.957,6.643-6.607,6.643s-6.609-2.973-6.609-6.643
					s2.959-6.643,6.609-6.643S700.342,733.115,700.342,736.785"/>
				<path clip-path="url(#SVGID_16_)" fill="#C6C8C8" d="M700.176,736.785c0,3.574-2.885,6.475-6.441,6.475s-6.441-2.9-6.441-6.475
					c0-3.576,2.885-6.477,6.441-6.477S700.176,733.209,700.176,736.785"/>
				<path clip-path="url(#SVGID_16_)" fill="#C9CACB" d="M700.008,736.785c0,3.482-2.809,6.307-6.273,6.307
					s-6.273-2.824-6.273-6.307c0-3.484,2.809-6.309,6.273-6.309S700.008,733.301,700.008,736.785"/>
				<path clip-path="url(#SVGID_16_)" fill="#CBCDCD" d="M699.842,736.785c0,3.391-2.734,6.141-6.107,6.141
					c-3.371,0-6.105-2.75-6.105-6.141s2.734-6.141,6.105-6.141C697.107,730.645,699.842,733.395,699.842,736.785"/>
				<path clip-path="url(#SVGID_16_)" fill="#CCCFD0" d="M699.674,736.785c0,3.297-2.66,5.971-5.939,5.971s-5.938-2.674-5.938-5.971
					c0-3.299,2.658-5.971,5.938-5.971S699.674,733.486,699.674,736.785"/>
				<path clip-path="url(#SVGID_16_)" fill="#D0D2D2" d="M699.508,736.785c0,3.203-2.584,5.803-5.773,5.803s-5.77-2.6-5.77-5.803
					c0-3.205,2.58-5.805,5.77-5.805S699.508,733.58,699.508,736.785"/>
				<path clip-path="url(#SVGID_16_)" fill="#D2D4D5" d="M699.34,736.785c0,3.111-2.512,5.635-5.605,5.635
					c-3.096,0-5.605-2.523-5.605-5.635c0-3.113,2.51-5.635,5.605-5.635C696.828,731.15,699.34,733.672,699.34,736.785"/>
			</g>
		</g>
		<polygon fill="#605F5E" points="692.807,741.084 692.807,737.719 689.461,737.719 689.461,735.852 692.807,735.852 
			692.807,732.486 694.664,732.486 694.664,735.852 698.01,735.852 698.01,737.719 694.664,737.719 694.664,741.084 		"/>
		<path fill="#221714" d="M694.502,732.648v3.039v0.326h0.322h3.025v1.543h-3.025h-0.322v0.322v3.041h-1.537v-3.041v-0.322h-0.318
			h-3.027v-1.543h3.027h0.318v-0.326v-3.039H694.502z M694.824,732.326h-2.178v3.361h-3.346v2.191h3.346v3.365h2.178v-3.365h3.346
			v-2.191h-3.346V732.326z"/>
	</g>
</g>
<g>
	<path fill="#AFAEAE" d="M1162.811,18.363c0,6.811-5.488,12.332-12.266,12.332c-6.771,0-12.266-5.521-12.266-12.332
		c0-6.813,5.494-12.335,12.266-12.335C1157.322,6.028,1162.811,11.55,1162.811,18.363"/>
	<path fill="none" stroke="#929292" stroke-miterlimit="10" d="M1162.811,18.363c0,6.811-5.488,12.332-12.266,12.332
		c-6.771,0-12.266-5.521-12.266-12.332c0-6.813,5.494-12.335,12.266-12.335C1157.322,6.028,1162.811,11.55,1162.811,18.363z"/>
	<path fill="#AFAEAE" d="M1159.559,18.363c0,5.003-4.035,9.062-9.014,9.062c-4.975,0-9.014-4.059-9.014-9.062
		c0-5.006,4.039-9.064,9.014-9.064C1155.523,9.298,1159.559,13.357,1159.559,18.363"/>
	<path fill="none" stroke="#929292" stroke-miterlimit="10" d="M1159.559,18.363c0,5.003-4.035,9.062-9.014,9.062
		c-4.975,0-9.014-4.059-9.014-9.062c0-5.006,4.039-9.064,9.014-9.064C1155.523,9.298,1159.559,13.357,1159.559,18.363z"/>
	<g>
		<g>
			<defs>
				<rect id="SVGID_17_" x="1142.049" y="9.82" width="16.992" height="17.081"/>
			</defs>
			<clipPath id="SVGID_18_">
				<use xlink:href="#SVGID_17_"  overflow="visible"/>
			</clipPath>
			<path clip-path="url(#SVGID_18_)" fill="#BEBEBD" d="M1159.039,18.363c0,4.716-3.801,8.538-8.494,8.538
				c-4.691,0-8.494-3.822-8.494-8.538c0-4.717,3.803-8.543,8.494-8.543C1155.238,9.82,1159.039,13.646,1159.039,18.363"/>
			<path clip-path="url(#SVGID_18_)" fill="#C0C0C0" d="M1158.842,18.363c0,4.604-3.717,8.338-8.297,8.338s-8.293-3.734-8.293-8.338
				c0-4.606,3.713-8.341,8.293-8.341S1158.842,13.756,1158.842,18.363"/>
			<path clip-path="url(#SVGID_18_)" fill="#C2C3C3" d="M1158.641,18.363c0,4.493-3.627,8.139-8.096,8.139s-8.094-3.646-8.094-8.139
				c0-4.496,3.625-8.14,8.094-8.14S1158.641,13.867,1158.641,18.363"/>
			<path clip-path="url(#SVGID_18_)" fill="#C4C5C4" d="M1158.439,18.363c0,4.383-3.533,7.937-7.895,7.937
				c-4.363,0-7.895-3.554-7.895-7.937c0-4.385,3.531-7.938,7.895-7.938C1154.906,10.424,1158.439,13.978,1158.439,18.363"/>
			<path clip-path="url(#SVGID_18_)" fill="#C6C8C8" d="M1158.24,18.363c0,4.271-3.445,7.735-7.695,7.735s-7.693-3.465-7.693-7.735
				c0-4.273,3.443-7.738,7.693-7.738S1158.24,14.089,1158.24,18.363"/>
			<path clip-path="url(#SVGID_18_)" fill="#C9CACB" d="M1158.041,18.363c0,4.16-3.355,7.534-7.496,7.534
				c-4.139,0-7.494-3.374-7.494-7.534c0-4.163,3.355-7.538,7.494-7.538C1154.686,10.825,1158.041,14.2,1158.041,18.363"/>
			<path clip-path="url(#SVGID_18_)" fill="#CBCDCD" d="M1157.842,18.363c0,4.049-3.268,7.335-7.297,7.335
				c-4.027,0-7.297-3.286-7.297-7.335c0-4.052,3.27-7.339,7.297-7.339C1154.574,11.024,1157.842,14.311,1157.842,18.363"/>
			<path clip-path="url(#SVGID_18_)" fill="#CCCFD0" d="M1157.645,18.363c0,3.938-3.182,7.134-7.1,7.134s-7.094-3.195-7.094-7.134
				c0-3.941,3.176-7.135,7.094-7.135S1157.645,14.421,1157.645,18.363"/>
			<path clip-path="url(#SVGID_18_)" fill="#D0D2D2" d="M1157.443,18.363c0,3.827-3.088,6.933-6.898,6.933
				c-3.809,0-6.895-3.105-6.895-6.933c0-3.83,3.086-6.936,6.895-6.936C1154.355,11.427,1157.443,14.533,1157.443,18.363"/>
			<path clip-path="url(#SVGID_18_)" fill="#D2D4D5" d="M1157.242,18.363c0,3.716-2.998,6.731-6.697,6.731s-6.695-3.016-6.695-6.731
				c0-3.72,2.996-6.733,6.695-6.733S1157.242,14.643,1157.242,18.363"/>
		</g>
	</g>
	<polygon fill="#605F5E" points="1149.436,23.498 1149.436,19.478 1145.439,19.478 1145.439,17.246 1149.436,17.246 
		1149.436,13.227 1151.656,13.227 1151.656,17.246 1155.652,17.246 1155.652,19.478 1151.656,19.478 1151.656,23.498 	"/>
	<path fill="#221714" d="M1151.463,13.42v3.631v0.389h0.383h3.615v1.843h-3.615h-0.383v0.387v3.633h-1.836v-3.633v-0.387h-0.383
		h-3.615V17.44h3.615h0.383v-0.389V13.42H1151.463z M1151.846,13.034h-2.602v4.018h-3.996v2.618h3.996v4.02h2.602v-4.02h3.998
		v-2.618h-3.998V13.034z"/>
</g>
<g>
	<path fill="#AFAEAE" d="M1110.705,17.316c0,4.189-3.377,7.585-7.545,7.585s-7.545-3.396-7.545-7.585
		c0-4.19,3.377-7.587,7.545-7.587S1110.705,13.126,1110.705,17.316"/>
	<ellipse fill="none" stroke="#929292" stroke-miterlimit="10" cx="1103.16" cy="17.316" rx="7.545" ry="7.585"/>
	<path fill="#AFAEAE" d="M1108.705,17.316c0,3.078-2.482,5.574-5.545,5.574s-5.543-2.497-5.543-5.574c0-3.08,2.48-5.576,5.543-5.576
		S1108.705,14.237,1108.705,17.316"/>
	<ellipse fill="none" stroke="#929292" stroke-miterlimit="10" cx="1103.161" cy="17.316" rx="5.544" ry="5.574"/>
	<g>
		<g>
			<defs>
				<rect id="SVGID_19_" x="1097.934" y="12.062" width="10.453" height="10.507"/>
			</defs>
			<clipPath id="SVGID_20_">
				<use xlink:href="#SVGID_19_"  overflow="visible"/>
			</clipPath>
			<path clip-path="url(#SVGID_20_)" fill="#BEBEBD" d="M1108.385,17.316c0,2.901-2.34,5.252-5.225,5.252s-5.225-2.352-5.225-5.252
				c0-2.902,2.34-5.254,5.225-5.254S1108.385,14.415,1108.385,17.316"/>
			<path clip-path="url(#SVGID_20_)" fill="#C0C0C0" d="M1108.262,17.316c0,2.832-2.283,5.128-5.102,5.128s-5.102-2.297-5.102-5.128
				c0-2.833,2.283-5.13,5.102-5.13S1108.262,14.483,1108.262,17.316"/>
			<path clip-path="url(#SVGID_20_)" fill="#C2C3C3" d="M1108.141,17.316c0,2.764-2.23,5.006-4.98,5.006s-4.979-2.242-4.979-5.006
				c0-2.765,2.229-5.007,4.979-5.007S1108.141,14.551,1108.141,17.316"/>
			<path clip-path="url(#SVGID_20_)" fill="#C4C5C4" d="M1108.014,17.316c0,2.696-2.172,4.882-4.854,4.882s-4.855-2.186-4.855-4.882
				c0-2.697,2.174-4.883,4.855-4.883S1108.014,14.619,1108.014,17.316"/>
			<path clip-path="url(#SVGID_20_)" fill="#C6C8C8" d="M1107.895,17.316c0,2.626-2.121,4.758-4.734,4.758
				c-2.615,0-4.734-2.132-4.734-4.758c0-2.628,2.119-4.76,4.734-4.76C1105.773,12.556,1107.895,14.688,1107.895,17.316"/>
			<path clip-path="url(#SVGID_20_)" fill="#C9CACB" d="M1107.771,17.316c0,2.559-2.064,4.634-4.611,4.634s-4.609-2.075-4.609-4.634
				c0-2.561,2.063-4.636,4.609-4.636S1107.771,14.755,1107.771,17.316"/>
			<path clip-path="url(#SVGID_20_)" fill="#CBCDCD" d="M1107.646,17.316c0,2.491-2.008,4.512-4.486,4.512s-4.488-2.021-4.488-4.512
				c0-2.493,2.01-4.514,4.488-4.514S1107.646,14.824,1107.646,17.316"/>
			<path clip-path="url(#SVGID_20_)" fill="#CCCFD0" d="M1107.527,17.316c0,2.422-1.957,4.388-4.367,4.388
				c-2.412,0-4.363-1.966-4.363-4.388c0-2.424,1.951-4.389,4.363-4.389C1105.57,12.927,1107.527,14.892,1107.527,17.316"/>
			<path clip-path="url(#SVGID_20_)" fill="#D0D2D2" d="M1107.402,17.316c0,2.354-1.898,4.265-4.242,4.265
				c-2.342,0-4.24-1.911-4.24-4.265c0-2.356,1.898-4.266,4.24-4.266C1105.504,13.05,1107.402,14.96,1107.402,17.316"/>
			<path clip-path="url(#SVGID_20_)" fill="#D2D4D5" d="M1107.279,17.316c0,2.286-1.844,4.141-4.119,4.141s-4.117-1.855-4.117-4.141
				c0-2.288,1.842-4.142,4.117-4.142S1107.279,15.029,1107.279,17.316"/>
		</g>
	</g>
	<polygon fill="#605F5E" points="1102.479,20.475 1102.479,18.002 1100.02,18.002 1100.02,16.629 1102.479,16.629 1102.479,14.157 
		1103.842,14.157 1103.842,16.629 1106.303,16.629 1106.303,18.002 1103.842,18.002 1103.842,20.475 	"/>
	<path fill="#221714" d="M1103.725,14.276v2.233v0.239h0.236h2.221v1.134h-2.221h-0.236v0.238v2.235h-1.131V18.12v-0.238h-0.234
		h-2.223v-1.134h2.223h0.234v-0.239v-2.233H1103.725z M1103.961,14.039h-1.602v2.471h-2.457v1.611h2.457v2.473h1.602V18.12h2.459
		v-1.611h-2.459V14.039z"/>
</g>
<g>
	<path fill="#AFAEAE" d="M1253.723,20.141c0,4.189-3.377,7.586-7.545,7.586s-7.545-3.397-7.545-7.586
		c0-4.19,3.377-7.587,7.545-7.587S1253.723,15.951,1253.723,20.141"/>
	<ellipse fill="none" stroke="#929292" stroke-miterlimit="10" cx="1246.178" cy="20.141" rx="7.545" ry="7.586"/>
	<path fill="#AFAEAE" d="M1251.723,20.141c0,3.078-2.482,5.574-5.545,5.574c-3.061,0-5.543-2.497-5.543-5.574
		c0-3.079,2.482-5.576,5.543-5.576C1249.24,14.565,1251.723,17.062,1251.723,20.141"/>
	<ellipse fill="none" stroke="#929292" stroke-miterlimit="10" cx="1246.179" cy="20.141" rx="5.544" ry="5.574"/>
	<g>
		<g>
			<defs>
				<rect id="SVGID_21_" x="1240.951" y="14.886" width="10.453" height="10.507"/>
			</defs>
			<clipPath id="SVGID_22_">
				<use xlink:href="#SVGID_21_"  overflow="visible"/>
			</clipPath>
			<path clip-path="url(#SVGID_22_)" fill="#BEBEBD" d="M1251.402,20.141c0,2.901-2.34,5.252-5.225,5.252s-5.225-2.352-5.225-5.252
				c0-2.902,2.34-5.254,5.225-5.254S1251.402,17.239,1251.402,20.141"/>
			<path clip-path="url(#SVGID_22_)" fill="#C0C0C0" d="M1251.279,20.141c0,2.832-2.283,5.129-5.102,5.129s-5.102-2.297-5.102-5.129
				c0-2.833,2.283-5.13,5.102-5.13S1251.279,17.307,1251.279,20.141"/>
			<path clip-path="url(#SVGID_22_)" fill="#C2C3C3" d="M1251.158,20.141c0,2.764-2.23,5.006-4.98,5.006s-4.979-2.242-4.979-5.006
				c0-2.765,2.229-5.007,4.979-5.007S1251.158,17.375,1251.158,20.141"/>
			<path clip-path="url(#SVGID_22_)" fill="#C4C5C4" d="M1251.031,20.141c0,2.696-2.172,4.882-4.854,4.882s-4.855-2.186-4.855-4.882
				c0-2.697,2.174-4.883,4.855-4.883S1251.031,17.443,1251.031,20.141"/>
			<path clip-path="url(#SVGID_22_)" fill="#C6C8C8" d="M1250.912,20.141c0,2.627-2.121,4.758-4.734,4.758
				c-2.615,0-4.734-2.131-4.734-4.758c0-2.628,2.119-4.76,4.734-4.76C1248.791,15.38,1250.912,17.512,1250.912,20.141"/>
			<path clip-path="url(#SVGID_22_)" fill="#C9CACB" d="M1250.789,20.141c0,2.559-2.064,4.634-4.611,4.634s-4.609-2.075-4.609-4.634
				c0-2.561,2.063-4.637,4.609-4.637S1250.789,17.58,1250.789,20.141"/>
			<path clip-path="url(#SVGID_22_)" fill="#CBCDCD" d="M1250.664,20.141c0,2.491-2.008,4.512-4.486,4.512s-4.488-2.021-4.488-4.512
				c0-2.493,2.01-4.514,4.488-4.514S1250.664,17.648,1250.664,20.141"/>
			<path clip-path="url(#SVGID_22_)" fill="#CCCFD0" d="M1250.545,20.141c0,2.422-1.957,4.388-4.367,4.388s-4.363-1.966-4.363-4.388
				c0-2.424,1.953-4.389,4.363-4.389S1250.545,17.716,1250.545,20.141"/>
			<path clip-path="url(#SVGID_22_)" fill="#D0D2D2" d="M1250.42,20.141c0,2.354-1.898,4.265-4.242,4.265
				c-2.342,0-4.24-1.911-4.24-4.265c0-2.356,1.898-4.266,4.24-4.266C1248.521,15.875,1250.42,17.785,1250.42,20.141"/>
			<path clip-path="url(#SVGID_22_)" fill="#D2D4D5" d="M1250.297,20.141c0,2.286-1.844,4.141-4.119,4.141s-4.117-1.855-4.117-4.141
				c0-2.288,1.842-4.142,4.117-4.142S1250.297,17.853,1250.297,20.141"/>
		</g>
	</g>
	<polygon fill="#605F5E" points="1245.496,23.299 1245.496,20.827 1243.037,20.827 1243.037,19.454 1245.496,19.454 
		1245.496,16.981 1246.859,16.981 1246.859,19.454 1249.32,19.454 1249.32,20.827 1246.859,20.827 1246.859,23.299 	"/>
	<path fill="#221714" d="M1246.742,17.1v2.234v0.239h0.236h2.223v1.134h-2.223h-0.236v0.238v2.234h-1.131v-2.234v-0.238h-0.232
		h-2.225v-1.134h2.225h0.232v-0.239V17.1H1246.742z M1246.979,16.863h-1.6v2.471h-2.459v1.611h2.459v2.472h1.6v-2.472h2.459v-1.611
		h-2.459V16.863z"/>
</g>
<g>
	<path fill="#AFAEAE" d="M1253.723,731.1c0,4.189-3.377,7.586-7.545,7.586c-4.166,0-7.545-3.396-7.545-7.586
		c0-4.191,3.379-7.588,7.545-7.588C1250.346,723.512,1253.723,726.908,1253.723,731.1"/>
	<ellipse fill="none" stroke="#929292" stroke-miterlimit="10" cx="1246.178" cy="731.1" rx="7.545" ry="7.586"/>
	<path fill="#AFAEAE" d="M1251.723,731.1c0,3.078-2.482,5.574-5.545,5.574c-3.061,0-5.543-2.496-5.543-5.574
		c0-3.08,2.482-5.576,5.543-5.576C1249.24,725.523,1251.723,728.02,1251.723,731.1"/>
	<ellipse fill="none" stroke="#929292" stroke-miterlimit="10" cx="1246.179" cy="731.1" rx="5.544" ry="5.574"/>
	<g>
		<g>
			<defs>
				<rect id="SVGID_23_" x="1240.951" y="725.844" width="10.453" height="10.508"/>
			</defs>
			<clipPath id="SVGID_24_">
				<use xlink:href="#SVGID_23_"  overflow="visible"/>
			</clipPath>
			<path clip-path="url(#SVGID_24_)" fill="#BEBEBD" d="M1251.404,731.1c0,2.9-2.34,5.252-5.227,5.252
				c-2.885,0-5.225-2.352-5.225-5.252c0-2.902,2.34-5.256,5.225-5.256C1249.064,725.844,1251.404,728.197,1251.404,731.1"/>
			<path clip-path="url(#SVGID_24_)" fill="#C0C0C0" d="M1251.281,731.1c0,2.832-2.285,5.129-5.104,5.129
				c-2.816,0-5.102-2.297-5.102-5.129c0-2.834,2.285-5.131,5.102-5.131C1248.996,725.969,1251.281,728.266,1251.281,731.1"/>
			<path clip-path="url(#SVGID_24_)" fill="#C2C3C3" d="M1251.158,731.1c0,2.764-2.23,5.006-4.98,5.006
				c-2.748,0-4.979-2.242-4.979-5.006c0-2.766,2.23-5.008,4.979-5.008C1248.928,726.092,1251.158,728.334,1251.158,731.1"/>
			<path clip-path="url(#SVGID_24_)" fill="#C4C5C4" d="M1251.035,731.1c0,2.695-2.174,4.881-4.857,4.881
				c-2.682,0-4.855-2.186-4.855-4.881c0-2.697,2.174-4.883,4.855-4.883C1248.861,726.217,1251.035,728.402,1251.035,731.1"/>
			<path clip-path="url(#SVGID_24_)" fill="#C6C8C8" d="M1250.912,731.1c0,2.627-2.119,4.758-4.734,4.758
				c-2.613,0-4.732-2.131-4.732-4.758c0-2.629,2.119-4.76,4.732-4.76C1248.793,726.34,1250.912,728.471,1250.912,731.1"/>
			<path clip-path="url(#SVGID_24_)" fill="#C9CACB" d="M1250.789,731.1c0,2.559-2.064,4.635-4.611,4.635
				c-2.545,0-4.609-2.076-4.609-4.635c0-2.561,2.064-4.637,4.609-4.637C1248.725,726.463,1250.789,728.539,1250.789,731.1"/>
			<path clip-path="url(#SVGID_24_)" fill="#CBCDCD" d="M1250.666,731.1c0,2.49-2.01,4.512-4.488,4.512
				c-2.477,0-4.486-2.021-4.486-4.512c0-2.492,2.01-4.514,4.486-4.514C1248.656,726.586,1250.666,728.607,1250.666,731.1"/>
			<path clip-path="url(#SVGID_24_)" fill="#CCCFD0" d="M1250.545,731.1c0,2.422-1.957,4.387-4.367,4.387s-4.363-1.965-4.363-4.387
				c0-2.426,1.953-4.389,4.363-4.389S1250.545,728.674,1250.545,731.1"/>
			<path clip-path="url(#SVGID_24_)" fill="#D0D2D2" d="M1250.422,731.1c0,2.354-1.898,4.264-4.244,4.264
				c-2.342,0-4.24-1.91-4.24-4.264c0-2.355,1.898-4.268,4.24-4.268C1248.523,726.832,1250.422,728.744,1250.422,731.1"/>
			<path clip-path="url(#SVGID_24_)" fill="#D2D4D5" d="M1250.297,731.1c0,2.285-1.844,4.141-4.119,4.141s-4.117-1.855-4.117-4.141
				c0-2.289,1.842-4.143,4.117-4.143S1250.297,728.811,1250.297,731.1"/>
		</g>
	</g>
	<polygon fill="#605F5E" points="1245.496,734.258 1245.496,731.785 1243.037,731.785 1243.037,730.412 1245.496,730.412 
		1245.496,727.939 1246.861,727.939 1246.861,730.412 1249.32,730.412 1249.32,731.785 1246.861,731.785 1246.861,734.258 	"/>
	<path fill="#221714" d="M1246.744,728.059v2.234v0.238h0.234h2.225v1.135h-2.225h-0.234v0.236v2.236h-1.131v-2.236v-0.236h-0.234
		h-2.225v-1.135h2.225h0.234v-0.238v-2.234H1246.744z M1246.979,727.82h-1.6v2.473h-2.459v1.609h2.459v2.473h1.6v-2.473h2.459
		v-1.609h-2.459V727.82z"/>
</g>
<path fill="#DDC96E" d="M1221.615,26.522c0,2.762-2.236,5-5,5h-20.088c-2.762,0-5-2.238-5-5V6.435c0-2.762,2.238-5,5-5h20.088
	c2.764,0,5,2.238,5,5V26.522z"/>
<g>
	<circle fill="none" stroke="#252526" stroke-width="1.5" stroke-miterlimit="10" cx="1206.571" cy="16.479" r="8.368"/>
	<g>
		<rect x="1203.172" y="20.873" fill="#242424" width="6.801" height="1.046"/>
		<rect x="1202.371" y="19.094" fill="#242424" width="8.402" height="1.046"/>
		<rect x="1201.604" y="17.316" fill="#242424" width="9.938" height="1.046"/>
		<rect x="1206.154" y="11.039" fill="#242424" width="0.836" height="5.789"/>
	</g>
</g>
<g>
	<g>
		<path fill="#252626" d="M176.282,32.66c0,7.789-6.437,14.109-14.373,14.109c-7.938,0-14.372-6.32-14.372-14.109
			c0-7.791,6.434-14.109,14.372-14.109C169.845,18.55,176.282,24.869,176.282,32.66"/>
		<path fill="none" stroke="#121212" stroke-width="0.75" stroke-miterlimit="10" d="M176.282,32.66
			c0,7.789-6.437,14.109-14.373,14.109c-7.938,0-14.372-6.32-14.372-14.109c0-7.791,6.434-14.109,14.372-14.109
			C169.845,18.55,176.282,24.869,176.282,32.66z"/>
		<polygon fill="#040000" points="160.134,40.66 160.134,34.401 153.758,34.401 153.758,30.917 160.134,30.917 160.134,24.66 
			163.684,24.66 163.684,30.917 170.058,30.917 170.058,34.401 163.684,34.401 163.684,40.66 		"/>
		<path fill="#221714" d="M163.384,24.952v5.668v0.592h0.601h5.775v2.895h-5.775h-0.601v0.587v5.673h-2.949v-5.673v-0.587h-0.604
			h-5.772v-2.895h5.772h0.604V30.62v-5.668H163.384z M163.985,24.363h-4.153v6.257h-6.372v4.074h6.372v6.26h4.153v-6.26h6.375V30.62
			h-6.375V24.363z"/>
	</g>
	<rect x="159.832" y="24.363" fill="#606062" width="0.604" height="6.849"/>
	<rect x="153.459" y="30.62" fill="#606062" width="6.971" height="0.592"/>
</g>
<g>
	<g>
		<path fill="#252626" d="M176.282,720.002c0,7.789-6.437,14.109-14.373,14.109c-7.938,0-14.372-6.32-14.372-14.109
			c0-7.791,6.434-14.109,14.372-14.109C169.845,705.893,176.282,712.211,176.282,720.002"/>
		<path fill="none" stroke="#121212" stroke-width="0.75" stroke-miterlimit="10" d="M176.282,720.002
			c0,7.789-6.437,14.109-14.373,14.109c-7.938,0-14.372-6.32-14.372-14.109c0-7.791,6.434-14.109,14.372-14.109
			C169.845,705.893,176.282,712.211,176.282,720.002z"/>
		<polygon fill="#040000" points="160.134,728.002 160.134,721.744 153.758,721.744 153.758,718.26 160.134,718.26 160.134,712.002 
			163.684,712.002 163.684,718.26 170.058,718.26 170.058,721.744 163.684,721.744 163.684,728.002 		"/>
		<path fill="#221714" d="M163.384,712.295v5.668v0.592h0.601h5.775v2.895h-5.775h-0.601v0.588v5.672h-2.949v-5.672v-0.588h-0.604
			h-5.772v-2.895h5.772h0.604v-0.592v-5.668H163.384z M163.985,711.705h-4.153v6.258h-6.372v4.074h6.372v6.26h4.153v-6.26h6.375
			v-4.074h-6.375V711.705z"/>
	</g>
	<rect x="159.832" y="711.705" fill="#606062" width="0.604" height="6.85"/>
	<rect x="153.459" y="717.963" fill="#606062" width="6.971" height="0.592"/>
</g>
<g>
	<rect x="17.877" y="95.084" fill="#0D0C06" width="45.521" height="20.942"/>
	<text transform="matrix(1 0 0 1 26.7007 111.9941)" fill="#D5D5D5" font-family="'SimHei'" font-size="17.6499">FAN</text>
</g>
<g>
	<rect x="77.369" y="255.302" fill="#727272" width="6.889" height="278.838"/>
	<g>
		<g>
			<defs>
				<path id="SVGID_25_" d="M103.452,547.067l4.914-0.124l1.104-20.662l-18.2-2.823c-7.267-1.125-13.901,3.972-13.901,10.682v2.515
					c0,3.048,2.256,5.713,5.488,6.496l12.358,2.988c2.401,0.541,5.388,0.932,7.908,0.932
					C103.231,547.07,103.342,547.067,103.452,547.067"/>
			</defs>
			<clipPath id="SVGID_26_">
				<use xlink:href="#SVGID_25_"  overflow="visible"/>
			</clipPath>
			
				<linearGradient id="SVGID_27_" gradientUnits="userSpaceOnUse" x1="-192.9302" y1="920.5371" x2="-191.4887" y2="920.5371" gradientTransform="matrix(21.6019 -8.6407 8.6407 21.6019 -3712.0156 -21010.0781)">
				<stop  offset="0" style="stop-color:#E0DFDE"/>
				<stop  offset="1" style="stop-color:#666666"/>
			</linearGradient>
			<polygon clip-path="url(#SVGID_26_)" fill="url(#SVGID_27_)" points="81.797,557.148 118.834,543.658 105.04,512.255 
				68.002,525.745 			"/>
		</g>
		<g>
			<defs>
				<path id="SVGID_28_" d="M88.687,264.304l20.779-3.625l-2.393-20.523c-4.418,0-8.817,0.526-13.09,1.562l-7.351,1.786
					c-5.464,1.328-9.266,5.832-9.262,10.984v1.296c0,4.879,4.368,8.678,9.504,8.678C87.47,264.462,88.079,264.41,88.687,264.304"/>
			</defs>
			<clipPath id="SVGID_29_">
				<use xlink:href="#SVGID_28_"  overflow="visible"/>
			</clipPath>
			
				<linearGradient id="SVGID_30_" gradientUnits="userSpaceOnUse" x1="-54.1494" y1="1020" x2="-52.7315" y2="1020" gradientTransform="matrix(14.9609 0 0 14.9609 884.0859 -15007.8047)">
				<stop  offset="0" style="stop-color:#E0DFDE"/>
				<stop  offset="1" style="stop-color:#666666"/>
			</linearGradient>
			<rect x="77.368" y="240.156" clip-path="url(#SVGID_29_)" fill="url(#SVGID_30_)" width="32.099" height="24.306"/>
		</g>
		
			<linearGradient id="SVGID_31_" gradientUnits="userSpaceOnUse" x1="1453.543" y1="-1553.7109" x2="1453.543" y2="-1573.9873" gradientTransform="matrix(0 1 1 0 1671.9395 -1059.4111)">
			<stop  offset="0" style="stop-color:#CBCCCC"/>
			<stop  offset="0.4731" style="stop-color:#E0DFDE"/>
			<stop  offset="1" style="stop-color:#666666"/>
		</linearGradient>
		<path fill="url(#SVGID_31_)" d="M108.089,548.108c5.602,0,10.138-3.034,10.138-6.777l0.002-294.397
			c0-3.743-4.538-6.778-10.137-6.778l0,0c-5.599,0-10.138,3.035-10.138,6.778l-0.002,294.397
			C97.953,545.074,102.494,548.108,108.089,548.108L108.089,548.108z"/>
	</g>
</g>
<g>
	<rect x="547.792" y="555.535" fill="#727272" width="278.836" height="6.887"/>
	<g>
		<g>
			<defs>
				<path id="SVGID_32_" d="M839.559,536.34l-0.125-4.914l-20.662-1.104l-2.824,18.199c-1.123,7.268,3.973,13.9,10.682,13.9h2.514
					c3.051,0,5.715-2.254,6.498-5.486l2.988-12.359c0.541-2.402,0.932-5.389,0.932-7.908
					C839.561,536.561,839.559,536.449,839.559,536.34"/>
			</defs>
			<clipPath id="SVGID_33_">
				<use xlink:href="#SVGID_32_"  overflow="visible"/>
			</clipPath>
			
				<linearGradient id="SVGID_34_" gradientUnits="userSpaceOnUse" x1="-219.4609" y1="669.6211" x2="-218.0195" y2="669.6211" gradientTransform="matrix(-8.6407 -21.6019 21.6019 -8.6407 -15526.5625 1610.625)">
				<stop  offset="0" style="stop-color:#E0DFDE"/>
				<stop  offset="1" style="stop-color:#666666"/>
			</linearGradient>
			<polygon clip-path="url(#SVGID_33_)" fill="url(#SVGID_34_)" points="849.639,557.994 836.148,520.957 804.744,534.752 
				818.236,571.789 			"/>
		</g>
		<g>
			<defs>
				<path id="SVGID_35_" d="M556.794,551.105l-3.625-20.779l-20.523,2.393c0,4.418,0.526,8.816,1.563,13.09l1.786,7.35
					c1.328,5.465,5.832,9.266,10.983,9.262h1.297c4.879,0,8.678-4.369,8.678-9.504C556.953,552.32,556.9,551.713,556.794,551.105"/>
			</defs>
			<clipPath id="SVGID_36_">
				<use xlink:href="#SVGID_35_"  overflow="visible"/>
			</clipPath>
			
				<linearGradient id="SVGID_37_" gradientUnits="userSpaceOnUse" x1="-237.3716" y1="673.0273" x2="-235.9537" y2="673.0273" gradientTransform="matrix(0 -14.9609 14.9609 0 -9524.2891 -2985.4688)">
				<stop  offset="0" style="stop-color:#E0DFDE"/>
				<stop  offset="1" style="stop-color:#666666"/>
			</linearGradient>
			<rect x="532.646" y="530.326" clip-path="url(#SVGID_36_)" fill="url(#SVGID_37_)" width="24.307" height="32.098"/>
		</g>
		
			<linearGradient id="SVGID_38_" gradientUnits="userSpaceOnUse" x1="-3737.4739" y1="-4294.8936" x2="-3737.4739" y2="-4315.1689" gradientTransform="matrix(1 0 0 -1 4424.0957 -3773.3311)">
			<stop  offset="0" style="stop-color:#CBCCCC"/>
			<stop  offset="0.4731" style="stop-color:#E0DFDE"/>
			<stop  offset="1" style="stop-color:#666666"/>
		</linearGradient>
		<path fill="url(#SVGID_38_)" d="M840.598,531.701c0-5.6-3.033-10.137-6.775-10.137l-294.398-0.002
			c-3.743,0-6.778,4.539-6.778,10.137l0,0c0,5.6,3.035,10.139,6.778,10.139h294.398
			C837.564,541.838,840.598,537.299,840.598,531.701L840.598,531.701z"/>
	</g>
</g>
<g>
	<rect x="550.47" y="665.174" fill="#727272" width="278.838" height="6.889"/>
	<g>
		<g>
			<defs>
				<path id="SVGID_39_" d="M842.236,645.98l-0.125-4.914l-20.664-1.105l-2.82,18.201c-1.125,7.266,3.971,13.9,10.682,13.9h2.514
					c3.049,0,5.713-2.256,6.496-5.488l2.988-12.357c0.539-2.402,0.932-5.389,0.932-7.908
					C842.238,646.199,842.236,646.09,842.236,645.98"/>
			</defs>
			<clipPath id="SVGID_40_">
				<use xlink:href="#SVGID_39_"  overflow="visible"/>
			</clipPath>
			
				<linearGradient id="SVGID_41_" gradientUnits="userSpaceOnUse" x1="-223.8789" y1="667.9785" x2="-222.4379" y2="667.9785" gradientTransform="matrix(-8.6407 -21.6019 21.6019 -8.6407 -15526.5625 1610.625)">
				<stop  offset="0" style="stop-color:#E0DFDE"/>
				<stop  offset="1" style="stop-color:#666666"/>
			</linearGradient>
			<polygon clip-path="url(#SVGID_40_)" fill="url(#SVGID_41_)" points="852.314,667.635 838.826,630.598 807.424,644.393 
				820.912,681.43 			"/>
		</g>
		<g>
			<defs>
				<path id="SVGID_42_" d="M559.472,660.744l-3.626-20.779l-20.522,2.393c0,4.418,0.526,8.818,1.563,13.09l1.786,7.352
					c1.328,5.463,5.832,9.266,10.983,9.262h1.297c4.879,0,8.677-4.369,8.677-9.504C559.629,661.961,559.579,661.354,559.472,660.744
					"/>
			</defs>
			<clipPath id="SVGID_43_">
				<use xlink:href="#SVGID_42_"  overflow="visible"/>
			</clipPath>
			
				<linearGradient id="SVGID_44_" gradientUnits="userSpaceOnUse" x1="-244.7002" y1="673.2061" x2="-243.2823" y2="673.2061" gradientTransform="matrix(0 -14.9609 14.9609 0 -9524.2891 -2985.4688)">
				<stop  offset="0" style="stop-color:#E0DFDE"/>
				<stop  offset="1" style="stop-color:#666666"/>
			</linearGradient>
			<rect x="535.324" y="639.965" clip-path="url(#SVGID_43_)" fill="url(#SVGID_44_)" width="24.306" height="32.1"/>
		</g>
		
			<linearGradient id="SVGID_45_" gradientUnits="userSpaceOnUse" x1="-3734.7961" y1="-4404.5342" x2="-3734.7961" y2="-4424.8096" gradientTransform="matrix(1 0 0 -1 4424.0957 -3773.3311)">
			<stop  offset="0" style="stop-color:#CBCCCC"/>
			<stop  offset="0.4731" style="stop-color:#E0DFDE"/>
			<stop  offset="1" style="stop-color:#666666"/>
		</linearGradient>
		<path fill="url(#SVGID_45_)" d="M843.275,641.342c0-5.602-3.033-10.137-6.775-10.137l-294.398-0.002
			c-3.743,0-6.778,4.537-6.778,10.137l0,0c0,5.598,3.035,10.137,6.778,10.137l294.398,0.002
			C840.242,651.479,843.275,646.938,843.275,641.342L843.275,641.342z"/>
	</g>
</g>
<g>
	<radialGradient id="SVGID_46_" cx="347.707" cy="552.542" r="5.8875" gradientUnits="userSpaceOnUse">
		<stop  offset="0" style="stop-color:#FFFFFF"/>
		<stop  offset="1" style="stop-color:#8DC21F"/>
	</radialGradient>
	<circle fill="url(#SVGID_46_)" stroke="#030000" stroke-miterlimit="10" cx="347.707" cy="552.541" r="5.887"/>
	<circle fill="#5A5B5B" stroke="#030000" stroke-miterlimit="10" cx="371.602" cy="552.541" r="5.886"/>
	<text transform="matrix(0.7071 0.7071 -0.7071 0.7071 339.8428 531.1914)" fill="#231815" font-family="'SimHei'" font-size="10">RUN</text>
	<text transform="matrix(0.7071 0.7071 -0.7071 0.7071 363.8428 531.1914)" fill="#231815" font-family="'SimHei'" font-size="10">ALM</text>
</g>
<g>
	<radialGradient id="SVGID_47_" cx="352.8735" cy="668.0557" r="5.8872" gradientUnits="userSpaceOnUse">
		<stop  offset="0" style="stop-color:#FFFFFF"/>
		<stop  offset="1" style="stop-color:#8DC21F"/>
	</radialGradient>
	<circle fill="url(#SVGID_47_)" stroke="#030000" stroke-miterlimit="10" cx="352.874" cy="668.057" r="5.887"/>
	<circle fill="#5A5B5B" stroke="#030000" stroke-miterlimit="10" cx="376.768" cy="668.057" r="5.887"/>
	<text transform="matrix(0.7071 0.7071 -0.7071 0.7071 345.0088 646.7051)" fill="#231815" font-family="'SimHei'" font-size="10">RUN</text>
	<text transform="matrix(0.7071 0.7071 -0.7071 0.7071 369.0088 646.7051)" fill="#231815" font-family="'SimHei'" font-size="10">ALM</text>
</g>
<g>
	<g>
		<defs>
			<rect id="SVGID_48_" x="900.285" y="530.127" width="59.813" height="32.852"/>
		</defs>
		<clipPath id="SVGID_49_">
			<use xlink:href="#SVGID_48_"  overflow="visible"/>
		</clipPath>
		
			<linearGradient id="SVGID_50_" gradientUnits="userSpaceOnUse" x1="-104.2378" y1="759.4238" x2="-103.2378" y2="759.4238" gradientTransform="matrix(-79.8244 0 0 79.8244 -7349.8125 -60074.0625)">
			<stop  offset="0" style="stop-color:#113577"/>
			<stop  offset="0.2581" style="stop-color:#162145"/>
			<stop  offset="1" style="stop-color:#03051D"/>
		</linearGradient>
		<rect x="900.285" y="530.127" clip-path="url(#SVGID_49_)" fill="url(#SVGID_50_)" width="59.813" height="32.852"/>
	</g>
	<g>
		<defs>
			<path id="SVGID_51_" d="M901.748,563.061h58.422c0.283,0,0.449-0.127,0.459-0.082V529.43c-0.059-0.055-0.217-0.146-0.459-0.146
				h-58.422c-0.287,0-0.455,0.125-0.463,0.078l-0.02,33.521C901.293,562.932,901.461,563.061,901.748,563.061"/>
		</defs>
		<clipPath id="SVGID_52_">
			<use xlink:href="#SVGID_51_"  overflow="visible"/>
		</clipPath>
		
			<linearGradient id="SVGID_53_" gradientUnits="userSpaceOnUse" x1="-297.3237" y1="560.0508" x2="-296.3242" y2="560.0508" gradientTransform="matrix(58.6222 0 0 -58.6222 18331.6563 33377.5938)">
			<stop  offset="0" style="stop-color:#2E2523"/>
			<stop  offset="1" style="stop-color:#342E2B"/>
		</linearGradient>
		<rect x="901.266" y="529.283" clip-path="url(#SVGID_52_)" fill="url(#SVGID_53_)" width="59.363" height="33.777"/>
	</g>
	<path d="M959.629,530.395v31.551h-57.344v-31.551H959.629z M900.285,529.361v33.617c0,0.658,0.654,1.197,1.463,1.197h58.422
		c0.805,0,1.459-0.539,1.459-1.197v-33.617c0-0.66-0.654-1.195-1.459-1.195h-58.422
		C900.939,528.166,900.285,528.701,900.285,529.361"/>
	<path fill="#030303" d="M951.834,534.275c0.578,0,1.043,0.354,1.043,0.791v22.207c0,0.436-0.465,0.791-1.043,0.791h-41.75
		c-0.576,0-1.045-0.355-1.045-0.791v-22.207c0-0.438,0.469-0.791,1.045-0.791H951.834z"/>
	<g>
		<defs>
			<path id="SVGID_54_" d="M911.936,555.805c0,0.381,0.406,0.686,0.906,0.686h18.115V535.85h-18.115c-0.5,0-0.906,0.307-0.906,0.686
				V555.805z"/>
		</defs>
		<clipPath id="SVGID_55_">
			<use xlink:href="#SVGID_54_"  overflow="visible"/>
		</clipPath>
		
			<linearGradient id="SVGID_56_" gradientUnits="userSpaceOnUse" x1="-474.4878" y1="377.1182" x2="-473.4878" y2="377.1182" gradientTransform="matrix(22.6221 0 0 -22.6221 11653.9219 9077.3906)">
			<stop  offset="0" style="stop-color:#251C18"/>
			<stop  offset="1" style="stop-color:#524E4E"/>
		</linearGradient>
		<rect x="911.936" y="535.85" clip-path="url(#SVGID_55_)" fill="url(#SVGID_56_)" width="19.021" height="20.641"/>
	</g>
	<path fill="#050505" d="M930.957,556.49h18.117c0.502,0,0.904-0.305,0.904-0.684v-19.273c0-0.377-0.402-0.684-0.904-0.684h-18.117
		V556.49z"/>
	<path fill="#121212" d="M930.957,556.49h18.117c0.502,0,0.904-0.305,0.904-0.684v-19.273c0-0.377-0.402-0.684-0.904-0.684h-18.117
		V556.49z"/>
	<rect x="930.957" y="535.85" fill="#030303" width="0.785" height="20.641"/>
	<rect x="916.881" y="545.424" fill="#4D4D4D" width="9.129" height="2.254"/>
	<path fill="none" stroke="#4D4D4D" stroke-width="0.783" stroke-miterlimit="10" d="M940.514,544.33
		c0.885,0,1.602,0.797,1.602,1.785c0,0.984-0.717,1.783-1.602,1.783s-1.6-0.799-1.6-1.783
		C938.914,545.127,939.629,544.33,940.514,544.33z"/>
</g>
<g>
	<g>
		<defs>
			<rect id="SVGID_57_" x="900.285" y="644.26" width="59.813" height="32.852"/>
		</defs>
		<clipPath id="SVGID_58_">
			<use xlink:href="#SVGID_57_"  overflow="visible"/>
		</clipPath>
		
			<linearGradient id="SVGID_59_" gradientUnits="userSpaceOnUse" x1="-104.2378" y1="760.8535" x2="-103.2378" y2="760.8535" gradientTransform="matrix(-79.8244 0 0 79.8244 -7349.8125 -60074.0625)">
			<stop  offset="0" style="stop-color:#113577"/>
			<stop  offset="0.2581" style="stop-color:#162145"/>
			<stop  offset="1" style="stop-color:#03051D"/>
		</linearGradient>
		<rect x="900.285" y="644.26" clip-path="url(#SVGID_58_)" fill="url(#SVGID_59_)" width="59.813" height="32.852"/>
	</g>
	<g>
		<defs>
			<path id="SVGID_60_" d="M901.748,677.195h58.422c0.283,0,0.449-0.129,0.459-0.082v-33.549c-0.059-0.057-0.217-0.148-0.459-0.148
				h-58.422c-0.287,0-0.455,0.125-0.463,0.078l-0.02,33.521C901.293,677.064,901.461,677.195,901.748,677.195"/>
		</defs>
		<clipPath id="SVGID_61_">
			<use xlink:href="#SVGID_60_"  overflow="visible"/>
		</clipPath>
		
			<linearGradient id="SVGID_62_" gradientUnits="userSpaceOnUse" x1="-297.3237" y1="558.1035" x2="-296.3242" y2="558.1035" gradientTransform="matrix(58.6222 0 0 -58.6222 18331.6563 33377.5938)">
			<stop  offset="0" style="stop-color:#2E2523"/>
			<stop  offset="1" style="stop-color:#342E2B"/>
		</linearGradient>
		<rect x="901.266" y="643.416" clip-path="url(#SVGID_61_)" fill="url(#SVGID_62_)" width="59.363" height="33.779"/>
	</g>
	<path d="M959.629,644.529v31.549h-57.344v-31.549H959.629z M900.285,643.494v33.619c0,0.656,0.654,1.195,1.463,1.195h58.422
		c0.805,0,1.459-0.539,1.459-1.195v-33.619c0-0.66-0.654-1.195-1.459-1.195h-58.422
		C900.939,642.299,900.285,642.834,900.285,643.494"/>
	<path fill="#030303" d="M951.834,648.408c0.578,0,1.043,0.355,1.043,0.793v22.205c0,0.436-0.465,0.791-1.043,0.791h-41.75
		c-0.576,0-1.045-0.355-1.045-0.791v-22.205c0-0.438,0.469-0.793,1.045-0.793H951.834z"/>
	<g>
		<defs>
			<path id="SVGID_63_" d="M911.936,669.938c0,0.383,0.406,0.688,0.906,0.688h18.115v-20.643h-18.115
				c-0.5,0-0.906,0.307-0.906,0.686V669.938z"/>
		</defs>
		<clipPath id="SVGID_64_">
			<use xlink:href="#SVGID_63_"  overflow="visible"/>
		</clipPath>
		
			<linearGradient id="SVGID_65_" gradientUnits="userSpaceOnUse" x1="-474.4878" y1="372.0732" x2="-473.4878" y2="372.0732" gradientTransform="matrix(22.6221 0 0 -22.6221 11653.9219 9077.3906)">
			<stop  offset="0" style="stop-color:#251C18"/>
			<stop  offset="1" style="stop-color:#524E4E"/>
		</linearGradient>
		<rect x="911.936" y="649.982" clip-path="url(#SVGID_64_)" fill="url(#SVGID_65_)" width="19.021" height="20.643"/>
	</g>
	<path fill="#050505" d="M930.957,670.625h18.117c0.502,0,0.904-0.307,0.904-0.686v-19.273c0-0.377-0.402-0.684-0.904-0.684h-18.117
		V670.625z"/>
	<path fill="#121212" d="M930.957,670.625h18.117c0.502,0,0.904-0.307,0.904-0.686v-19.273c0-0.377-0.402-0.684-0.904-0.684h-18.117
		V670.625z"/>
	<rect x="930.957" y="649.982" fill="#030303" width="0.785" height="20.643"/>
	<rect x="916.881" y="659.557" fill="#4D4D4D" width="9.129" height="2.256"/>
	
		<ellipse fill="none" stroke="#4D4D4D" stroke-width="0.783" stroke-miterlimit="10" cx="940.514" cy="660.247" rx="1.602" ry="1.784"/>
</g>
</svg>
