<?xml version="1.0" encoding="utf-8"?>
<!-- Generator: Adobe Illustrator 16.0.0, SVG Export Plug-In . SVG Version: 6.00 Build 0)  -->
<!DOCTYPE svg PUBLIC "-//W3C//DTD SVG 1.1//EN" "http://www.w3.org/Graphics/SVG/1.1/DTD/svg11.dtd">
<svg version="1.1" id="图层_1" xmlns="http://www.w3.org/2000/svg" xmlns:xlink="http://www.w3.org/1999/xlink" x="0px" y="0px"
	 width="1275.59px" height="126.14px" viewBox="0 0 1275.59 126.14" enable-background="new 0 0 1275.59 126.14"
	 xml:space="preserve">
<rect fill="#474747" width="1275.59" height="126.143"/>
<g>
	<g>
		<path fill="#252626" d="M303.877,16.084c0,3.835-3.11,6.947-6.948,6.947s-6.948-3.112-6.948-6.947
			c0-3.837,3.111-6.948,6.948-6.948S303.877,12.247,303.877,16.084"/>
		<circle fill="none" stroke="#121212" stroke-width="0.75" stroke-miterlimit="10" cx="296.929" cy="16.084" r="6.948"/>
		<polygon fill="#040000" points="296.071,20.023 296.071,16.94 292.989,16.94 292.989,15.226 296.071,15.226 296.071,12.145 
			297.788,12.145 297.788,15.226 300.87,15.226 300.87,16.94 297.788,16.94 297.788,20.023 		"/>
		<path fill="#221714" d="M297.643,12.288v2.791v0.291h0.29h2.792v1.426h-2.792h-0.29v0.289v2.794h-1.427v-2.794v-0.289h-0.29
			h-2.792V15.37h2.792h0.29v-0.291v-2.791H297.643z M297.933,11.998h-2.007v3.081h-3.083v2.006h3.083v3.083h2.007v-3.083h3.082
			v-2.006h-3.082V11.998z"/>
	</g>
	<rect x="295.926" y="11.998" fill="#606062" width="0.29" height="3.372"/>
	<rect x="292.843" y="15.079" fill="#606062" width="3.371" height="0.291"/>
</g>
<g>
	<g>
		<path fill="#252626" d="M962.587,16.084c0,3.835-3.11,6.947-6.948,6.947c-3.837,0-6.948-3.112-6.948-6.947
			c0-3.837,3.111-6.948,6.948-6.948C959.477,9.136,962.587,12.247,962.587,16.084"/>
		<circle fill="none" stroke="#121212" stroke-width="0.75" stroke-miterlimit="10" cx="955.639" cy="16.084" r="6.948"/>
		<polygon fill="#040000" points="954.781,20.023 954.781,16.94 951.698,16.94 951.698,15.226 954.781,15.226 954.781,12.145 
			956.498,12.145 956.498,15.226 959.58,15.226 959.58,16.94 956.498,16.94 956.498,20.023 		"/>
		<path fill="#221714" d="M956.353,12.288v2.791v0.291h0.29h2.793v1.426h-2.793h-0.29v0.289v2.794h-1.426v-2.794v-0.289h-0.291
			h-2.792V15.37h2.792h0.291v-0.291v-2.791H956.353z M956.643,11.998h-2.007v3.081h-3.082v2.006h3.082v3.083h2.007v-3.083h3.082
			v-2.006h-3.082V11.998z"/>
	</g>
	<rect x="954.636" y="11.998" fill="#606062" width="0.291" height="3.372"/>
	<rect x="951.554" y="15.079" fill="#606062" width="3.37" height="0.291"/>
</g>
<g>
	<path fill="#AFAEAE" d="M1239.263,89.689c0,5.438-4.412,9.846-9.854,9.846s-9.854-4.408-9.854-9.846s4.412-9.846,9.854-9.846
		S1239.263,84.252,1239.263,89.689"/>
	<ellipse fill="none" stroke="#929292" stroke-miterlimit="10" cx="1229.408" cy="89.689" rx="9.854" ry="9.846"/>
	<path fill="#AFAEAE" d="M1236.649,89.689c0,3.996-3.242,7.236-7.241,7.236s-7.24-3.24-7.24-7.236s3.241-7.234,7.24-7.234
		S1236.649,85.693,1236.649,89.689"/>
	<circle fill="none" stroke="#929292" stroke-miterlimit="10" cx="1229.409" cy="89.689" r="7.241"/>
	<g>
		<g>
			<defs>
				<rect id="SVGID_1_" x="1222.582" y="82.873" width="13.651" height="13.635"/>
			</defs>
			<clipPath id="SVGID_2_">
				<use xlink:href="#SVGID_1_"  overflow="visible"/>
			</clipPath>
			<path clip-path="url(#SVGID_2_)" fill="#BEBEBD" d="M1236.232,89.689c0,3.764-3.056,6.818-6.824,6.818
				c-3.77,0-6.825-3.055-6.825-6.818s3.056-6.816,6.825-6.816C1233.177,82.873,1236.232,85.926,1236.232,89.689"/>
			<path clip-path="url(#SVGID_2_)" fill="#C0C0C0" d="M1236.071,89.689c0,3.676-2.983,6.656-6.663,6.656
				c-3.681,0-6.663-2.98-6.663-6.656c0-3.678,2.982-6.656,6.663-6.656C1233.088,83.033,1236.071,86.012,1236.071,89.689"/>
			<path clip-path="url(#SVGID_2_)" fill="#C2C3C3" d="M1235.911,89.689c0,3.588-2.912,6.498-6.503,6.498
				c-3.592,0-6.503-2.91-6.503-6.498s2.911-6.498,6.503-6.498C1232.999,83.191,1235.911,86.102,1235.911,89.689"/>
			<path clip-path="url(#SVGID_2_)" fill="#C4C5C4" d="M1235.751,89.689c0,3.498-2.84,6.336-6.343,6.336s-6.343-2.838-6.343-6.336
				c0-3.5,2.84-6.336,6.343-6.336S1235.751,86.189,1235.751,89.689"/>
			<path clip-path="url(#SVGID_2_)" fill="#C6C8C8" d="M1235.59,89.689c0,3.41-2.769,6.176-6.182,6.176
				c-3.414,0-6.182-2.766-6.182-6.176c0-3.412,2.768-6.176,6.182-6.176C1232.821,83.514,1235.59,86.277,1235.59,89.689"/>
			<path clip-path="url(#SVGID_2_)" fill="#C9CACB" d="M1235.43,89.689c0,3.322-2.695,6.016-6.021,6.016s-6.021-2.693-6.021-6.016
				s2.695-6.016,6.021-6.016S1235.43,86.367,1235.43,89.689"/>
			<path clip-path="url(#SVGID_2_)" fill="#CBCDCD" d="M1235.27,89.689c0,3.234-2.624,5.857-5.861,5.857s-5.86-2.623-5.86-5.857
				c0-3.232,2.623-5.857,5.86-5.857S1235.27,86.457,1235.27,89.689"/>
			<path clip-path="url(#SVGID_2_)" fill="#CCCFD0" d="M1235.109,89.689c0,3.146-2.554,5.695-5.701,5.695s-5.701-2.549-5.701-5.695
				c0-3.145,2.554-5.695,5.701-5.695S1235.109,86.545,1235.109,89.689"/>
			<path clip-path="url(#SVGID_2_)" fill="#D0D2D2" d="M1234.948,89.689c0,3.057-2.48,5.535-5.54,5.535s-5.54-2.479-5.54-5.535
				s2.48-5.535,5.54-5.535S1234.948,86.633,1234.948,89.689"/>
			<path clip-path="url(#SVGID_2_)" fill="#D2D4D5" d="M1234.788,89.689c0,2.969-2.41,5.375-5.38,5.375
				c-2.971,0-5.38-2.406-5.38-5.375s2.409-5.373,5.38-5.373C1232.378,84.316,1234.788,86.721,1234.788,89.689"/>
		</g>
	</g>
	<polygon fill="#605F5E" points="1228.517,93.789 1228.517,90.58 1225.305,90.58 1225.305,88.799 1228.517,88.799 1228.517,85.59 
		1230.3,85.59 1230.3,88.799 1233.512,88.799 1233.512,90.58 1230.3,90.58 1230.3,93.789 	"/>
	<path fill="#221714" d="M1230.146,85.744v2.898v0.311h0.309h2.902v1.473h-2.902h-0.309v0.309v2.9h-1.474v-2.9v-0.309h-0.31h-2.902
		v-1.473h2.902h0.31v-0.311v-2.898H1230.146z M1230.454,85.436h-2.092v3.207h-3.211v2.092h3.211v3.209h2.092v-3.209h3.211v-2.092
		h-3.211V85.436z"/>
</g>
<g>
	<circle fill="none" stroke="#B4B4B4" stroke-miterlimit="10" cx="1229.408" cy="109.441" r="5.645"/>
	<g>
		<rect x="1227.115" y="111.84" fill="#B4B4B4" width="4.586" height="0.705"/>
		<rect x="1226.574" y="110.641" fill="#B4B4B4" width="5.668" height="0.705"/>
		<rect x="1226.057" y="109.441" fill="#B4B4B4" width="6.703" height="0.705"/>
		<rect x="1229.126" y="105.207" fill="#B4B4B4" width="0.564" height="3.904"/>
	</g>
</g>
<text transform="matrix(1 0 0 1 116.0942 107.6934)" fill="#FFFFFF" font-family="'SimHei'" font-size="11.2727">100-240v AC</text>
<g>
	<g>
		<g>
			<rect x="317.165" y="21.184" fill="#A4A4A4" width="9.5" height="9.5"/>
			<rect x="317.165" y="21.184" fill="#070606" width="9.01" height="9.01"/>
		</g>
		<g>
			<rect x="327.938" y="21.184" fill="#A4A4A4" width="9.5" height="9.5"/>
			<rect x="327.938" y="21.184" fill="#070606" width="9.01" height="9.01"/>
		</g>
		<g>
			<rect x="338.711" y="21.184" fill="#A4A4A4" width="9.5" height="9.5"/>
			<rect x="338.711" y="21.184" fill="#070606" width="9.01" height="9.01"/>
		</g>
		<g>
			<rect x="349.484" y="21.184" fill="#A4A4A4" width="9.5" height="9.5"/>
			<rect x="349.484" y="21.184" fill="#070606" width="9.01" height="9.01"/>
		</g>
		<g>
			<rect x="360.258" y="21.184" fill="#A4A4A4" width="9.5" height="9.5"/>
			<rect x="360.258" y="21.184" fill="#070606" width="9.01" height="9.01"/>
		</g>
		<g>
			<rect x="371.031" y="21.184" fill="#A4A4A4" width="9.5" height="9.5"/>
			<rect x="371.031" y="21.184" fill="#070606" width="9.009" height="9.01"/>
		</g>
		<g>
			<rect x="381.804" y="21.184" fill="#A4A4A4" width="9.5" height="9.5"/>
			<rect x="381.804" y="21.184" fill="#070606" width="9.01" height="9.01"/>
		</g>
		<g>
			<rect x="392.577" y="21.184" fill="#A4A4A4" width="9.5" height="9.5"/>
			<rect x="392.577" y="21.184" fill="#070606" width="9.01" height="9.01"/>
		</g>
	</g>
	<g>
		<g>
			<rect x="317.209" y="31.809" fill="#A4A4A4" width="9.5" height="9.5"/>
			<rect x="317.209" y="31.809" fill="#070606" width="9.01" height="9.01"/>
		</g>
		<g>
			<rect x="327.982" y="31.809" fill="#A4A4A4" width="9.5" height="9.5"/>
			<rect x="327.982" y="31.809" fill="#070606" width="9.009" height="9.01"/>
		</g>
		<g>
			<rect x="338.755" y="31.809" fill="#A4A4A4" width="9.5" height="9.5"/>
			<rect x="338.755" y="31.809" fill="#070606" width="9.01" height="9.01"/>
		</g>
		<g>
			<rect x="349.528" y="31.809" fill="#A4A4A4" width="9.5" height="9.5"/>
			<rect x="349.528" y="31.809" fill="#070606" width="9.01" height="9.01"/>
		</g>
		<g>
			<rect x="360.302" y="31.809" fill="#A4A4A4" width="9.5" height="9.5"/>
			<rect x="360.302" y="31.809" fill="#070606" width="9.01" height="9.01"/>
		</g>
		<g>
			<rect x="371.075" y="31.809" fill="#A4A4A4" width="9.5" height="9.5"/>
			<rect x="371.075" y="31.809" fill="#070606" width="9.01" height="9.01"/>
		</g>
		<g>
			<rect x="381.848" y="31.809" fill="#A4A4A4" width="9.5" height="9.5"/>
			<rect x="381.848" y="31.809" fill="#070606" width="9.01" height="9.01"/>
		</g>
		<g>
			<rect x="392.621" y="31.809" fill="#A4A4A4" width="9.5" height="9.5"/>
			<rect x="392.621" y="31.809" fill="#070606" width="9.01" height="9.01"/>
		</g>
	</g>
	<g>
		<g>
			<rect x="317.252" y="42.434" fill="#A4A4A4" width="9.5" height="9.5"/>
			<rect x="317.252" y="42.434" fill="#070606" width="9.01" height="9.01"/>
		</g>
		<g>
			<rect x="328.026" y="42.434" fill="#A4A4A4" width="9.5" height="9.5"/>
			<rect x="328.026" y="42.434" fill="#070606" width="9.01" height="9.01"/>
		</g>
		<g>
			<rect x="338.799" y="42.434" fill="#A4A4A4" width="9.5" height="9.5"/>
			<rect x="338.799" y="42.434" fill="#070606" width="9.01" height="9.01"/>
		</g>
		<g>
			<rect x="349.572" y="42.434" fill="#A4A4A4" width="9.5" height="9.5"/>
			<rect x="349.572" y="42.434" fill="#070606" width="9.01" height="9.01"/>
		</g>
		<g>
			<rect x="360.345" y="42.434" fill="#A4A4A4" width="9.5" height="9.5"/>
			<rect x="360.345" y="42.434" fill="#070606" width="9.01" height="9.01"/>
		</g>
		<g>
			<rect x="371.119" y="42.434" fill="#A4A4A4" width="9.5" height="9.5"/>
			<rect x="371.119" y="42.434" fill="#070606" width="9.01" height="9.01"/>
		</g>
		<g>
			<rect x="381.892" y="42.434" fill="#A4A4A4" width="9.5" height="9.5"/>
			<rect x="381.892" y="42.434" fill="#070606" width="9.01" height="9.01"/>
		</g>
		<g>
			<rect x="392.665" y="42.434" fill="#A4A4A4" width="9.5" height="9.5"/>
			<rect x="392.665" y="42.434" fill="#070606" width="9.01" height="9.01"/>
		</g>
	</g>
	<g>
		<g>
			<rect x="317.296" y="53.059" fill="#A4A4A4" width="9.5" height="9.5"/>
			<rect x="317.296" y="53.059" fill="#070606" width="9.01" height="9.01"/>
		</g>
		<g>
			<rect x="328.07" y="53.059" fill="#A4A4A4" width="9.5" height="9.5"/>
			<rect x="328.07" y="53.059" fill="#070606" width="9.009" height="9.01"/>
		</g>
		<g>
			<rect x="338.843" y="53.059" fill="#A4A4A4" width="9.5" height="9.5"/>
			<rect x="338.843" y="53.059" fill="#070606" width="9.01" height="9.01"/>
		</g>
		<g>
			<rect x="349.616" y="53.059" fill="#A4A4A4" width="9.5" height="9.5"/>
			<rect x="349.616" y="53.059" fill="#070606" width="9.01" height="9.01"/>
		</g>
		<g>
			<rect x="360.389" y="53.059" fill="#A4A4A4" width="9.5" height="9.5"/>
			<rect x="360.389" y="53.059" fill="#070606" width="9.01" height="9.01"/>
		</g>
		<g>
			<rect x="371.162" y="53.059" fill="#A4A4A4" width="9.5" height="9.5"/>
			<rect x="371.162" y="53.059" fill="#070606" width="9.01" height="9.01"/>
		</g>
		<g>
			<rect x="381.936" y="53.059" fill="#A4A4A4" width="9.5" height="9.5"/>
			<rect x="381.936" y="53.059" fill="#070606" width="9.01" height="9.01"/>
		</g>
		<g>
			<rect x="392.708" y="53.059" fill="#A4A4A4" width="9.5" height="9.5"/>
			<rect x="392.708" y="53.059" fill="#070606" width="9.01" height="9.01"/>
		</g>
	</g>
	<g>
		<g>
			<rect x="317.34" y="63.684" fill="#A4A4A4" width="9.5" height="9.5"/>
			<rect x="317.34" y="63.684" fill="#070606" width="9.01" height="9.01"/>
		</g>
		<g>
			<rect x="328.113" y="63.684" fill="#A4A4A4" width="9.5" height="9.5"/>
			<rect x="328.113" y="63.684" fill="#070606" width="9.01" height="9.01"/>
		</g>
		<g>
			<rect x="338.887" y="63.684" fill="#A4A4A4" width="9.5" height="9.5"/>
			<rect x="338.887" y="63.684" fill="#070606" width="9.01" height="9.01"/>
		</g>
		<g>
			<rect x="349.66" y="63.684" fill="#A4A4A4" width="9.5" height="9.5"/>
			<rect x="349.66" y="63.684" fill="#070606" width="9.01" height="9.01"/>
		</g>
		<g>
			<rect x="360.433" y="63.684" fill="#A4A4A4" width="9.5" height="9.5"/>
			<rect x="360.433" y="63.684" fill="#070606" width="9.009" height="9.01"/>
		</g>
		<g>
			<rect x="371.206" y="63.684" fill="#A4A4A4" width="9.5" height="9.5"/>
			<rect x="371.206" y="63.684" fill="#070606" width="9.01" height="9.01"/>
		</g>
		<g>
			<rect x="381.979" y="63.684" fill="#A4A4A4" width="9.5" height="9.5"/>
			<rect x="381.979" y="63.684" fill="#070606" width="9.01" height="9.01"/>
		</g>
		<g>
			<rect x="392.752" y="63.684" fill="#A4A4A4" width="9.5" height="9.5"/>
			<rect x="392.752" y="63.684" fill="#070606" width="9.01" height="9.01"/>
		</g>
	</g>
	<g>
		<g>
			<rect x="317.384" y="74.309" fill="#A4A4A4" width="9.5" height="9.5"/>
			<rect x="317.384" y="74.309" fill="#070606" width="9.009" height="9.01"/>
		</g>
		<g>
			<rect x="328.157" y="74.309" fill="#A4A4A4" width="9.5" height="9.5"/>
			<rect x="328.157" y="74.309" fill="#070606" width="9.01" height="9.01"/>
		</g>
		<g>
			<rect x="338.931" y="74.309" fill="#A4A4A4" width="9.5" height="9.5"/>
			<rect x="338.931" y="74.309" fill="#070606" width="9.01" height="9.01"/>
		</g>
		<g>
			<rect x="349.704" y="74.309" fill="#A4A4A4" width="9.5" height="9.5"/>
			<rect x="349.704" y="74.309" fill="#070606" width="9.01" height="9.01"/>
		</g>
		<g>
			<rect x="360.477" y="74.309" fill="#A4A4A4" width="9.5" height="9.5"/>
			<rect x="360.477" y="74.309" fill="#070606" width="9.009" height="9.01"/>
		</g>
		<g>
			<rect x="371.25" y="74.309" fill="#A4A4A4" width="9.5" height="9.5"/>
			<rect x="371.25" y="74.309" fill="#070606" width="9.01" height="9.01"/>
		</g>
		<g>
			<rect x="382.023" y="74.309" fill="#A4A4A4" width="9.5" height="9.5"/>
			<rect x="382.023" y="74.309" fill="#070606" width="9.01" height="9.01"/>
		</g>
		<g>
			<rect x="392.797" y="74.309" fill="#A4A4A4" width="9.5" height="9.5"/>
			<rect x="392.797" y="74.309" fill="#070606" width="9.009" height="9.01"/>
		</g>
	</g>
	<g>
		<g>
			<rect x="317.428" y="84.934" fill="#A4A4A4" width="9.5" height="9.5"/>
			<rect x="317.428" y="84.934" fill="#070606" width="9.01" height="9.01"/>
		</g>
		<g>
			<rect x="328.201" y="84.934" fill="#A4A4A4" width="9.5" height="9.5"/>
			<rect x="328.201" y="84.934" fill="#070606" width="9.01" height="9.01"/>
		</g>
		<g>
			<rect x="338.974" y="84.934" fill="#A4A4A4" width="9.5" height="9.5"/>
			<rect x="338.974" y="84.934" fill="#070606" width="9.01" height="9.01"/>
		</g>
		<g>
			<rect x="349.748" y="84.934" fill="#A4A4A4" width="9.5" height="9.5"/>
			<rect x="349.748" y="84.934" fill="#070606" width="9.01" height="9.01"/>
		</g>
		<g>
			<rect x="360.521" y="84.934" fill="#A4A4A4" width="9.5" height="9.5"/>
			<rect x="360.521" y="84.934" fill="#070606" width="9.01" height="9.01"/>
		</g>
		<g>
			<rect x="371.294" y="84.934" fill="#A4A4A4" width="9.5" height="9.5"/>
			<rect x="371.294" y="84.934" fill="#070606" width="9.01" height="9.01"/>
		</g>
		<g>
			<rect x="382.067" y="84.934" fill="#A4A4A4" width="9.5" height="9.5"/>
			<rect x="382.067" y="84.934" fill="#070606" width="9.01" height="9.01"/>
		</g>
		<g>
			<rect x="392.84" y="84.934" fill="#A4A4A4" width="9.5" height="9.5"/>
			<rect x="392.84" y="84.934" fill="#070606" width="9.01" height="9.01"/>
		</g>
	</g>
	<g>
		<g>
			<rect x="317.472" y="95.559" fill="#A4A4A4" width="9.5" height="9.5"/>
			<rect x="317.472" y="95.559" fill="#070606" width="9.01" height="9.01"/>
		</g>
		<g>
			<rect x="328.245" y="95.559" fill="#A4A4A4" width="9.5" height="9.5"/>
			<rect x="328.245" y="95.559" fill="#070606" width="9.01" height="9.01"/>
		</g>
		<g>
			<rect x="339.018" y="95.559" fill="#A4A4A4" width="9.5" height="9.5"/>
			<rect x="339.018" y="95.559" fill="#070606" width="9.01" height="9.01"/>
		</g>
		<g>
			<rect x="349.792" y="95.559" fill="#A4A4A4" width="9.5" height="9.5"/>
			<rect x="349.792" y="95.559" fill="#070606" width="9.009" height="9.01"/>
		</g>
		<g>
			<rect x="360.564" y="95.559" fill="#A4A4A4" width="9.5" height="9.5"/>
			<rect x="360.564" y="95.559" fill="#070606" width="9.01" height="9.01"/>
		</g>
		<g>
			<rect x="371.338" y="95.559" fill="#A4A4A4" width="9.5" height="9.5"/>
			<rect x="371.338" y="95.559" fill="#070606" width="9.01" height="9.01"/>
		</g>
		<g>
			<rect x="382.111" y="95.559" fill="#A4A4A4" width="9.5" height="9.5"/>
			<rect x="382.111" y="95.559" fill="#070606" width="9.01" height="9.01"/>
		</g>
		<g>
			<rect x="392.884" y="95.559" fill="#A4A4A4" width="9.5" height="9.5"/>
			<rect x="392.884" y="95.559" fill="#070606" width="9.009" height="9.01"/>
		</g>
	</g>
</g>
<g>
	<g>
		<g>
			<rect x="465.65" y="21.184" fill="#A4A4A4" width="9.5" height="9.5"/>
			<rect x="465.65" y="21.184" fill="#070606" width="9.009" height="9.01"/>
		</g>
		<g>
			<rect x="476.423" y="21.184" fill="#A4A4A4" width="9.5" height="9.5"/>
			<rect x="476.423" y="21.184" fill="#070606" width="9.01" height="9.01"/>
		</g>
		<g>
			<rect x="487.196" y="21.184" fill="#A4A4A4" width="9.5" height="9.5"/>
			<rect x="487.196" y="21.184" fill="#070606" width="9.01" height="9.01"/>
		</g>
		<g>
			<rect x="497.969" y="21.184" fill="#A4A4A4" width="9.5" height="9.5"/>
			<rect x="497.969" y="21.184" fill="#070606" width="9.01" height="9.01"/>
		</g>
		<g>
			<rect x="508.743" y="21.184" fill="#A4A4A4" width="9.5" height="9.5"/>
			<rect x="508.743" y="21.184" fill="#070606" width="9.009" height="9.01"/>
		</g>
		<g>
			<rect x="519.516" y="21.184" fill="#A4A4A4" width="9.5" height="9.5"/>
			<rect x="519.516" y="21.184" fill="#070606" width="9.01" height="9.01"/>
		</g>
		<g>
			<rect x="530.289" y="21.184" fill="#A4A4A4" width="9.5" height="9.5"/>
			<rect x="530.289" y="21.184" fill="#070606" width="9.01" height="9.01"/>
		</g>
		<g>
			<rect x="541.062" y="21.184" fill="#A4A4A4" width="9.5" height="9.5"/>
			<rect x="541.062" y="21.184" fill="#070606" width="9.01" height="9.01"/>
		</g>
	</g>
	<g>
		<g>
			<rect x="465.693" y="31.809" fill="#A4A4A4" width="9.5" height="9.5"/>
			<rect x="465.693" y="31.809" fill="#070606" width="9.01" height="9.01"/>
		</g>
		<g>
			<rect x="476.467" y="31.809" fill="#A4A4A4" width="9.5" height="9.5"/>
			<rect x="476.467" y="31.809" fill="#070606" width="9.01" height="9.01"/>
		</g>
		<g>
			<rect x="487.24" y="31.809" fill="#A4A4A4" width="9.5" height="9.5"/>
			<rect x="487.24" y="31.809" fill="#070606" width="9.01" height="9.01"/>
		</g>
		<g>
			<rect x="498.013" y="31.809" fill="#A4A4A4" width="9.5" height="9.5"/>
			<rect x="498.013" y="31.809" fill="#070606" width="9.01" height="9.01"/>
		</g>
		<g>
			<rect x="508.786" y="31.809" fill="#A4A4A4" width="9.5" height="9.5"/>
			<rect x="508.786" y="31.809" fill="#070606" width="9.01" height="9.01"/>
		</g>
		<g>
			<rect x="519.56" y="31.809" fill="#A4A4A4" width="9.5" height="9.5"/>
			<rect x="519.56" y="31.809" fill="#070606" width="9.01" height="9.01"/>
		</g>
		<g>
			<rect x="530.333" y="31.809" fill="#A4A4A4" width="9.5" height="9.5"/>
			<rect x="530.333" y="31.809" fill="#070606" width="9.01" height="9.01"/>
		</g>
		<g>
			<rect x="541.106" y="31.809" fill="#A4A4A4" width="9.5" height="9.5"/>
			<rect x="541.106" y="31.809" fill="#070606" width="9.01" height="9.01"/>
		</g>
	</g>
	<g>
		<g>
			<rect x="465.737" y="42.434" fill="#A4A4A4" width="9.5" height="9.5"/>
			<rect x="465.737" y="42.434" fill="#070606" width="9.01" height="9.01"/>
		</g>
		<g>
			<rect x="476.511" y="42.434" fill="#A4A4A4" width="9.5" height="9.5"/>
			<rect x="476.511" y="42.434" fill="#070606" width="9.009" height="9.01"/>
		</g>
		<g>
			<rect x="487.284" y="42.434" fill="#A4A4A4" width="9.5" height="9.5"/>
			<rect x="487.284" y="42.434" fill="#070606" width="9.01" height="9.01"/>
		</g>
		<g>
			<rect x="498.057" y="42.434" fill="#A4A4A4" width="9.5" height="9.5"/>
			<rect x="498.057" y="42.434" fill="#070606" width="9.009" height="9.01"/>
		</g>
		<g>
			<rect x="508.83" y="42.434" fill="#A4A4A4" width="9.5" height="9.5"/>
			<rect x="508.83" y="42.434" fill="#070606" width="9.01" height="9.01"/>
		</g>
		<g>
			<rect x="519.604" y="42.434" fill="#A4A4A4" width="9.5" height="9.5"/>
			<rect x="519.604" y="42.434" fill="#070606" width="9.01" height="9.01"/>
		</g>
		<g>
			<rect x="530.376" y="42.434" fill="#A4A4A4" width="9.5" height="9.5"/>
			<rect x="530.376" y="42.434" fill="#070606" width="9.01" height="9.01"/>
		</g>
		<g>
			<rect x="541.15" y="42.434" fill="#A4A4A4" width="9.5" height="9.5"/>
			<rect x="541.15" y="42.434" fill="#070606" width="9.009" height="9.01"/>
		</g>
	</g>
	<g>
		<g>
			<rect x="465.781" y="53.059" fill="#A4A4A4" width="9.5" height="9.5"/>
			<rect x="465.781" y="53.059" fill="#070606" width="9.01" height="9.01"/>
		</g>
		<g>
			<rect x="476.555" y="53.059" fill="#A4A4A4" width="9.5" height="9.5"/>
			<rect x="476.555" y="53.059" fill="#070606" width="9.01" height="9.01"/>
		</g>
		<g>
			<rect x="487.328" y="53.059" fill="#A4A4A4" width="9.5" height="9.5"/>
			<rect x="487.328" y="53.059" fill="#070606" width="9.01" height="9.01"/>
		</g>
		<g>
			<rect x="498.101" y="53.059" fill="#A4A4A4" width="9.5" height="9.5"/>
			<rect x="498.101" y="53.059" fill="#070606" width="9.01" height="9.01"/>
		</g>
		<g>
			<rect x="508.874" y="53.059" fill="#A4A4A4" width="9.5" height="9.5"/>
			<rect x="508.874" y="53.059" fill="#070606" width="9.01" height="9.01"/>
		</g>
		<g>
			<rect x="519.647" y="53.059" fill="#A4A4A4" width="9.5" height="9.5"/>
			<rect x="519.647" y="53.059" fill="#070606" width="9.01" height="9.01"/>
		</g>
		<g>
			<rect x="530.42" y="53.059" fill="#A4A4A4" width="9.5" height="9.5"/>
			<rect x="530.42" y="53.059" fill="#070606" width="9.01" height="9.01"/>
		</g>
		<g>
			<rect x="541.193" y="53.059" fill="#A4A4A4" width="9.5" height="9.5"/>
			<rect x="541.193" y="53.059" fill="#070606" width="9.01" height="9.01"/>
		</g>
	</g>
	<g>
		<g>
			<rect x="465.825" y="63.684" fill="#A4A4A4" width="9.5" height="9.5"/>
			<rect x="465.825" y="63.684" fill="#070606" width="9.01" height="9.01"/>
		</g>
		<g>
			<rect x="476.598" y="63.684" fill="#A4A4A4" width="9.5" height="9.5"/>
			<rect x="476.598" y="63.684" fill="#070606" width="9.01" height="9.01"/>
		</g>
		<g>
			<rect x="487.371" y="63.684" fill="#A4A4A4" width="9.5" height="9.5"/>
			<rect x="487.371" y="63.684" fill="#070606" width="9.01" height="9.01"/>
		</g>
		<g>
			<rect x="498.145" y="63.684" fill="#A4A4A4" width="9.5" height="9.5"/>
			<rect x="498.145" y="63.684" fill="#070606" width="9.01" height="9.01"/>
		</g>
		<g>
			<rect x="508.918" y="63.684" fill="#A4A4A4" width="9.5" height="9.5"/>
			<rect x="508.918" y="63.684" fill="#070606" width="9.01" height="9.01"/>
		</g>
		<g>
			<rect x="519.691" y="63.684" fill="#A4A4A4" width="9.5" height="9.5"/>
			<rect x="519.691" y="63.684" fill="#070606" width="9.009" height="9.01"/>
		</g>
		<g>
			<rect x="530.464" y="63.684" fill="#A4A4A4" width="9.5" height="9.5"/>
			<rect x="530.464" y="63.684" fill="#070606" width="9.01" height="9.01"/>
		</g>
		<g>
			<rect x="541.237" y="63.684" fill="#A4A4A4" width="9.5" height="9.5"/>
			<rect x="541.237" y="63.684" fill="#070606" width="9.01" height="9.01"/>
		</g>
	</g>
	<g>
		<g>
			<rect x="465.869" y="74.309" fill="#A4A4A4" width="9.5" height="9.5"/>
			<rect x="465.869" y="74.309" fill="#070606" width="9.009" height="9.01"/>
		</g>
		<g>
			<rect x="476.642" y="74.309" fill="#A4A4A4" width="9.5" height="9.5"/>
			<rect x="476.642" y="74.309" fill="#070606" width="9.01" height="9.01"/>
		</g>
		<g>
			<rect x="487.415" y="74.309" fill="#A4A4A4" width="9.5" height="9.5"/>
			<rect x="487.415" y="74.309" fill="#070606" width="9.01" height="9.01"/>
		</g>
		<g>
			<rect x="498.188" y="74.309" fill="#A4A4A4" width="9.5" height="9.5"/>
			<rect x="498.188" y="74.309" fill="#070606" width="9.01" height="9.01"/>
		</g>
		<g>
			<rect x="508.961" y="74.309" fill="#A4A4A4" width="9.5" height="9.5"/>
			<rect x="508.961" y="74.309" fill="#070606" width="9.01" height="9.01"/>
		</g>
		<g>
			<rect x="519.734" y="74.309" fill="#A4A4A4" width="9.5" height="9.5"/>
			<rect x="519.734" y="74.309" fill="#070606" width="9.01" height="9.01"/>
		</g>
		<g>
			<rect x="530.508" y="74.309" fill="#A4A4A4" width="9.5" height="9.5"/>
			<rect x="530.508" y="74.309" fill="#070606" width="9.009" height="9.01"/>
		</g>
		<g>
			<rect x="541.281" y="74.309" fill="#A4A4A4" width="9.5" height="9.5"/>
			<rect x="541.281" y="74.309" fill="#070606" width="9.01" height="9.01"/>
		</g>
	</g>
	<g>
		<g>
			<rect x="465.913" y="84.934" fill="#A4A4A4" width="9.5" height="9.5"/>
			<rect x="465.913" y="84.934" fill="#070606" width="9.01" height="9.01"/>
		</g>
		<g>
			<rect x="476.686" y="84.934" fill="#A4A4A4" width="9.5" height="9.5"/>
			<rect x="476.686" y="84.934" fill="#070606" width="9.01" height="9.01"/>
		</g>
		<g>
			<rect x="487.459" y="84.934" fill="#A4A4A4" width="9.5" height="9.5"/>
			<rect x="487.459" y="84.934" fill="#070606" width="9.01" height="9.01"/>
		</g>
		<g>
			<rect x="498.232" y="84.934" fill="#A4A4A4" width="9.5" height="9.5"/>
			<rect x="498.232" y="84.934" fill="#070606" width="9.01" height="9.01"/>
		</g>
		<g>
			<rect x="509.005" y="84.934" fill="#A4A4A4" width="9.5" height="9.5"/>
			<rect x="509.005" y="84.934" fill="#070606" width="9.01" height="9.01"/>
		</g>
		<g>
			<rect x="519.778" y="84.934" fill="#A4A4A4" width="9.5" height="9.5"/>
			<rect x="519.778" y="84.934" fill="#070606" width="9.01" height="9.01"/>
		</g>
		<g>
			<rect x="530.552" y="84.934" fill="#A4A4A4" width="9.5" height="9.5"/>
			<rect x="530.552" y="84.934" fill="#070606" width="9.01" height="9.01"/>
		</g>
		<g>
			<rect x="541.325" y="84.934" fill="#A4A4A4" width="9.5" height="9.5"/>
			<rect x="541.325" y="84.934" fill="#070606" width="9.01" height="9.01"/>
		</g>
	</g>
	<g>
		<g>
			<rect x="465.957" y="95.559" fill="#A4A4A4" width="9.5" height="9.5"/>
			<rect x="465.957" y="95.559" fill="#070606" width="9.01" height="9.01"/>
		</g>
		<g>
			<rect x="476.729" y="95.559" fill="#A4A4A4" width="9.5" height="9.5"/>
			<rect x="476.729" y="95.559" fill="#070606" width="9.01" height="9.01"/>
		</g>
		<g>
			<rect x="487.503" y="95.559" fill="#A4A4A4" width="9.5" height="9.5"/>
			<rect x="487.503" y="95.559" fill="#070606" width="9.01" height="9.01"/>
		</g>
		<g>
			<rect x="498.276" y="95.559" fill="#A4A4A4" width="9.5" height="9.5"/>
			<rect x="498.276" y="95.559" fill="#070606" width="9.009" height="9.01"/>
		</g>
		<g>
			<rect x="509.049" y="95.559" fill="#A4A4A4" width="9.5" height="9.5"/>
			<rect x="509.049" y="95.559" fill="#070606" width="9.01" height="9.01"/>
		</g>
		<g>
			<rect x="519.823" y="95.559" fill="#A4A4A4" width="9.5" height="9.5"/>
			<rect x="519.823" y="95.559" fill="#070606" width="9.009" height="9.01"/>
		</g>
		<g>
			<rect x="530.596" y="95.559" fill="#A4A4A4" width="9.5" height="9.5"/>
			<rect x="530.596" y="95.559" fill="#070606" width="9.01" height="9.01"/>
		</g>
		<g>
			<rect x="541.369" y="95.559" fill="#A4A4A4" width="9.5" height="9.5"/>
			<rect x="541.369" y="95.559" fill="#070606" width="9.009" height="9.01"/>
		</g>
	</g>
</g>
<g>
	<linearGradient id="SVGID_3_" gradientUnits="userSpaceOnUse" x1="0" y1="63.0713" x2="20.8701" y2="63.0713">
		<stop  offset="0" style="stop-color:#1F2020"/>
		<stop  offset="0.3112" style="stop-color:#636666"/>
		<stop  offset="0.4235" style="stop-color:#343535"/>
		<stop  offset="1" style="stop-color:#515151"/>
	</linearGradient>
	<rect fill="url(#SVGID_3_)" width="20.87" height="126.143"/>
	<rect x="17.665" fill="#151515" width="3.205" height="126.143"/>
</g>
<g>
	
		<linearGradient id="SVGID_4_" gradientUnits="userSpaceOnUse" x1="-11299.8047" y1="63.0713" x2="-11278.9346" y2="63.0713" gradientTransform="matrix(-1 0 0 1 -10024.2148 0)">
		<stop  offset="0" style="stop-color:#1F2020"/>
		<stop  offset="0.3112" style="stop-color:#636666"/>
		<stop  offset="0.4235" style="stop-color:#343535"/>
		<stop  offset="1" style="stop-color:#515151"/>
	</linearGradient>
	<rect x="1254.72" fill="url(#SVGID_4_)" width="20.87" height="126.143"/>
	<rect x="1254.72" fill="#151515" width="3.205" height="126.143"/>
</g>
<g>
	<path fill="#535354" stroke="#101010" stroke-miterlimit="10" d="M929.189,119.795c0,2.402-2.239,4.348-5,4.348H701.804
		c-2.762,0-5-1.945-5-4.348V54.282c0-2.402,2.238-4.349,5-4.349h222.386c2.761,0,5,1.946,5,4.349V119.795z"/>
	<g>
		<path fill="#818181" d="M892.192,48.437c0-0.827-0.928-1.498-2.072-1.498H735.873c-1.145,0-2.072,0.671-2.072,1.498l0,0
			c0,0.827,0.928,1.498,2.072,1.498H890.12C891.265,49.935,892.192,49.264,892.192,48.437L892.192,48.437z"/>
		<path fill="#0B0C0C" d="M892.192,49.437c0-0.827-0.928-1.498-2.072-1.498H735.873c-1.145,0-2.072,0.671-2.072,1.498l0,0
			c0,0.827,0.928,1.498,2.072,1.498H890.12C891.265,50.935,892.192,50.264,892.192,49.437L892.192,49.437z"/>
	</g>
	<g>
		<path fill="#818181" d="M892.192,121.645c0-0.826-0.928-1.498-2.072-1.498H735.873c-1.145,0-2.072,0.672-2.072,1.498l0,0
			c0,0.828,0.928,1.498,2.072,1.498H890.12C891.265,123.143,892.192,122.473,892.192,121.645L892.192,121.645z"/>
		<path fill="#0B0C0C" d="M892.192,122.645c0-0.826-0.928-1.498-2.072-1.498H735.873c-1.145,0-2.072,0.672-2.072,1.498l0,0
			c0,0.828,0.928,1.498,2.072,1.498H890.12C891.265,124.143,892.192,123.473,892.192,122.645L892.192,122.645z"/>
	</g>
	<g>
		<path fill="#AFAEAE" d="M733.674,75.875c0,8.504-6.901,15.398-15.413,15.398c-8.513,0-15.413-6.895-15.413-15.398
			s6.9-15.398,15.413-15.398C726.772,60.477,733.674,67.371,733.674,75.875"/>
		<ellipse fill="none" stroke="#929292" stroke-miterlimit="10" cx="718.261" cy="75.875" rx="15.413" ry="15.398"/>
		<path fill="#AFAEAE" d="M729.585,75.875c0,6.248-5.07,11.314-11.324,11.314s-11.325-5.066-11.325-11.314
			s5.071-11.314,11.325-11.314S729.585,69.627,729.585,75.875"/>
		<ellipse fill="none" stroke="#929292" stroke-miterlimit="10" cx="718.26" cy="75.875" rx="11.325" ry="11.314"/>
		<g>
			<g>
				<defs>
					<rect id="SVGID_5_" x="707.583" y="65.211" width="21.354" height="21.326"/>
				</defs>
				<clipPath id="SVGID_6_">
					<use xlink:href="#SVGID_5_"  overflow="visible"/>
				</clipPath>
				<path clip-path="url(#SVGID_6_)" fill="#BEBEBD" d="M728.934,75.875c0,5.887-4.778,10.662-10.673,10.662
					c-5.896,0-10.674-4.775-10.674-10.662c0-5.889,4.778-10.664,10.674-10.664C724.155,65.211,728.934,69.986,728.934,75.875"/>
				<path clip-path="url(#SVGID_6_)" fill="#C0C0C0" d="M728.682,75.875c0,5.748-4.666,10.41-10.421,10.41
					c-5.757,0-10.423-4.662-10.423-10.41c0-5.752,4.666-10.412,10.423-10.412C724.016,65.463,728.682,70.123,728.682,75.875"/>
				<path clip-path="url(#SVGID_6_)" fill="#C2C3C3" d="M728.431,75.875c0,5.609-4.554,10.162-10.17,10.162
					c-5.618,0-10.172-4.553-10.172-10.162c0-5.613,4.554-10.162,10.172-10.162C723.877,65.713,728.431,70.262,728.431,75.875"/>
				<path clip-path="url(#SVGID_6_)" fill="#C4C5C4" d="M728.181,75.875c0,5.471-4.441,9.91-9.92,9.91
					c-5.479,0-9.921-4.439-9.921-9.91c0-5.475,4.441-9.91,9.921-9.91C723.739,65.965,728.181,70.4,728.181,75.875"/>
				<path clip-path="url(#SVGID_6_)" fill="#C6C8C8" d="M727.93,75.875c0,5.332-4.331,9.66-9.669,9.66
					c-5.34,0-9.669-4.328-9.669-9.66c0-5.336,4.329-9.66,9.669-9.66C723.599,66.215,727.93,70.539,727.93,75.875"/>
				<path clip-path="url(#SVGID_6_)" fill="#C9CACB" d="M727.679,75.875c0,5.195-4.217,9.406-9.418,9.406
					c-5.202,0-9.418-4.211-9.418-9.406c0-5.197,4.216-9.41,9.418-9.41C723.462,66.465,727.679,70.678,727.679,75.875"/>
				<path clip-path="url(#SVGID_6_)" fill="#CBCDCD" d="M727.429,75.875c0,5.057-4.105,9.16-9.168,9.16
					c-5.064,0-9.166-4.104-9.166-9.16c0-5.059,4.102-9.16,9.166-9.16C723.323,66.715,727.429,70.816,727.429,75.875"/>
				<path clip-path="url(#SVGID_6_)" fill="#CCCFD0" d="M727.177,75.875c0,4.918-3.993,8.906-8.916,8.906
					c-4.924,0-8.917-3.988-8.917-8.906c0-4.92,3.993-8.908,8.917-8.908C723.184,66.967,727.177,70.955,727.177,75.875"/>
				<path clip-path="url(#SVGID_6_)" fill="#D0D2D2" d="M726.925,75.875c0,4.779-3.879,8.656-8.664,8.656
					c-4.786,0-8.665-3.877-8.665-8.656c0-4.783,3.879-8.658,8.665-8.658C723.046,67.217,726.925,71.092,726.925,75.875"/>
				<path clip-path="url(#SVGID_6_)" fill="#D2D4D5" d="M726.675,75.875c0,4.641-3.77,8.406-8.414,8.406
					c-4.647,0-8.414-3.766-8.414-8.406c0-4.645,3.767-8.406,8.414-8.406C722.905,67.469,726.675,71.23,726.675,75.875"/>
			</g>
		</g>
		
			<rect x="702.844" y="73.73" transform="matrix(0.7071 0.7071 -0.7071 0.7071 263.7738 -486.1628)" fill="#605F5E" width="31.787" height="3.183"/>
		
			<rect x="703.748" y="74.107" transform="matrix(0.7071 0.7071 -0.7071 0.7071 263.4119 -487.0772)" fill="#F1F1F1" width="31.789" height="0.623"/>
	</g>
	<g>
		<path fill="#AFAEAE" d="M906.497,91.303c-8.504,0-15.398-6.9-15.398-15.412s6.895-15.414,15.398-15.414
			s15.398,6.902,15.398,15.414S915.001,91.303,906.497,91.303"/>
		<ellipse fill="none" stroke="#929292" stroke-miterlimit="10" cx="906.497" cy="75.89" rx="15.398" ry="15.413"/>
		<path fill="#AFAEAE" d="M906.497,87.215c-6.248,0-11.314-5.07-11.314-11.324s5.066-11.324,11.314-11.324
			s11.314,5.07,11.314,11.324S912.745,87.215,906.497,87.215"/>
		<ellipse fill="none" stroke="#929292" stroke-miterlimit="10" cx="906.497" cy="75.891" rx="11.314" ry="11.324"/>
		<g>
			<g>
				<defs>
					<rect id="SVGID_7_" x="895.835" y="65.213" width="21.326" height="21.354"/>
				</defs>
				<clipPath id="SVGID_8_">
					<use xlink:href="#SVGID_7_"  overflow="visible"/>
				</clipPath>
				<path clip-path="url(#SVGID_8_)" fill="#BEBEBD" d="M906.497,86.563c-5.887,0-10.662-4.777-10.662-10.672
					c0-5.896,4.775-10.674,10.662-10.674c5.889,0,10.664,4.777,10.664,10.674C917.161,81.785,912.386,86.563,906.497,86.563"/>
				<path clip-path="url(#SVGID_8_)" fill="#C0C0C0" d="M906.497,86.313c-5.748,0-10.41-4.668-10.41-10.422
					c0-5.758,4.662-10.422,10.41-10.422c5.752,0,10.412,4.664,10.412,10.422C916.909,81.645,912.249,86.313,906.497,86.313"/>
				<path clip-path="url(#SVGID_8_)" fill="#C2C3C3" d="M906.497,86.061c-5.609,0-10.162-4.553-10.162-10.17
					c0-5.619,4.553-10.172,10.162-10.172c5.613,0,10.162,4.553,10.162,10.172C916.659,81.508,912.11,86.061,906.497,86.061"/>
				<path clip-path="url(#SVGID_8_)" fill="#C4C5C4" d="M906.497,85.811c-5.471,0-9.91-4.441-9.91-9.92
					c0-5.48,4.439-9.922,9.91-9.922c5.475,0,9.91,4.441,9.91,9.922C916.407,81.369,911.972,85.811,906.497,85.811"/>
				<path clip-path="url(#SVGID_8_)" fill="#C6C8C8" d="M906.497,85.559c-5.332,0-9.66-4.33-9.66-9.668
					c0-5.34,4.328-9.668,9.66-9.668c5.336,0,9.66,4.328,9.66,9.668C916.157,81.229,911.833,85.559,906.497,85.559"/>
				<path clip-path="url(#SVGID_8_)" fill="#C9CACB" d="M906.497,85.309c-5.195,0-9.406-4.217-9.406-9.418
					c0-5.203,4.211-9.418,9.406-9.418c5.197,0,9.41,4.215,9.41,9.418C915.907,81.092,911.694,85.309,906.497,85.309"/>
				<path clip-path="url(#SVGID_8_)" fill="#CBCDCD" d="M906.497,85.059c-5.057,0-9.16-4.105-9.16-9.168
					c0-5.064,4.104-9.166,9.16-9.166c5.059,0,9.16,4.102,9.16,9.166C915.657,80.953,911.556,85.059,906.497,85.059"/>
				<path clip-path="url(#SVGID_8_)" fill="#CCCFD0" d="M906.497,84.807c-4.918,0-8.906-3.992-8.906-8.916s3.988-8.918,8.906-8.918
					c4.92,0,8.908,3.994,8.908,8.918S911.417,84.807,906.497,84.807"/>
				<path clip-path="url(#SVGID_8_)" fill="#D0D2D2" d="M906.497,84.555c-4.779,0-8.656-3.879-8.656-8.664
					c0-4.787,3.877-8.666,8.656-8.666c4.783,0,8.658,3.879,8.658,8.666C915.155,80.676,911.28,84.555,906.497,84.555"/>
				<path clip-path="url(#SVGID_8_)" fill="#D2D4D5" d="M906.497,84.305c-4.641,0-8.406-3.77-8.406-8.414
					c0-4.648,3.766-8.414,8.406-8.414c4.645,0,8.406,3.766,8.406,8.414C914.903,80.535,911.142,84.305,906.497,84.305"/>
			</g>
		</g>
		
			<rect x="891.157" y="74.776" transform="matrix(-0.7071 0.7071 -0.7071 -0.7071 1602.4442 -510.9994)" fill="#605F5E" width="31.787" height="3.182"/>
		
			<rect x="892.06" y="76.96" transform="matrix(-0.7071 0.7071 -0.7071 -0.7071 1604.6393 -510.0796)" fill="#F1F1F1" width="31.788" height="0.623"/>
	</g>
</g>
<g>
	<path fill="#535354" stroke="#101010" stroke-miterlimit="10" d="M1207.857,119.795c0,2.402-2.238,4.348-5,4.348H980.472
		c-2.761,0-5-1.945-5-4.348V54.282c0-2.402,2.239-4.349,5-4.349h222.386c2.762,0,5,1.946,5,4.349V119.795z"/>
	<g>
		<path fill="#818181" d="M1170.86,48.437c0-0.827-0.928-1.498-2.072-1.498h-154.247c-1.144,0-2.071,0.671-2.071,1.498l0,0
			c0,0.827,0.928,1.498,2.071,1.498h154.247C1169.933,49.935,1170.86,49.264,1170.86,48.437L1170.86,48.437z"/>
		<path fill="#0B0C0C" d="M1170.86,49.437c0-0.827-0.928-1.498-2.072-1.498h-154.247c-1.144,0-2.071,0.671-2.071,1.498l0,0
			c0,0.827,0.928,1.498,2.071,1.498h154.247C1169.933,50.935,1170.86,50.264,1170.86,49.437L1170.86,49.437z"/>
	</g>
	<g>
		<path fill="#818181" d="M1170.86,121.645c0-0.826-0.928-1.498-2.072-1.498h-154.247c-1.144,0-2.071,0.672-2.071,1.498l0,0
			c0,0.828,0.928,1.498,2.071,1.498h154.247C1169.933,123.143,1170.86,122.473,1170.86,121.645L1170.86,121.645z"/>
		<path fill="#0B0C0C" d="M1170.86,122.645c0-0.826-0.928-1.498-2.072-1.498h-154.247c-1.144,0-2.071,0.672-2.071,1.498l0,0
			c0,0.828,0.928,1.498,2.071,1.498h154.247C1169.933,124.143,1170.86,123.473,1170.86,122.645L1170.86,122.645z"/>
	</g>
	<g>
		<path fill="#AFAEAE" d="M1012.343,75.875c0,8.504-6.901,15.398-15.414,15.398c-8.512,0-15.412-6.895-15.412-15.398
			s6.9-15.398,15.412-15.398C1005.441,60.477,1012.343,67.371,1012.343,75.875"/>
		<ellipse fill="none" stroke="#929292" stroke-miterlimit="10" cx="996.93" cy="75.875" rx="15.413" ry="15.398"/>
		<path fill="#AFAEAE" d="M1008.254,75.875c0,6.248-5.071,11.314-11.325,11.314s-11.324-5.066-11.324-11.314
			s5.07-11.314,11.324-11.314S1008.254,69.627,1008.254,75.875"/>
		<ellipse fill="none" stroke="#929292" stroke-miterlimit="10" cx="996.929" cy="75.875" rx="11.325" ry="11.314"/>
		<g>
			<g>
				<defs>
					<rect id="SVGID_9_" x="986.252" y="65.211" width="21.353" height="21.326"/>
				</defs>
				<clipPath id="SVGID_10_">
					<use xlink:href="#SVGID_9_"  overflow="visible"/>
				</clipPath>
				<path clip-path="url(#SVGID_10_)" fill="#BEBEBD" d="M1007.603,75.875c0,5.887-4.779,10.662-10.674,10.662
					s-10.674-4.775-10.674-10.662c0-5.889,4.779-10.664,10.674-10.664S1007.603,69.986,1007.603,75.875"/>
				<path clip-path="url(#SVGID_10_)" fill="#C0C0C0" d="M1007.351,75.875c0,5.748-4.666,10.41-10.422,10.41
					s-10.422-4.662-10.422-10.41c0-5.752,4.666-10.412,10.422-10.412S1007.351,70.123,1007.351,75.875"/>
				<path clip-path="url(#SVGID_10_)" fill="#C2C3C3" d="M1007.1,75.875c0,5.609-4.554,10.162-10.171,10.162
					s-10.171-4.553-10.171-10.162c0-5.613,4.554-10.162,10.171-10.162S1007.1,70.262,1007.1,75.875"/>
				<path clip-path="url(#SVGID_10_)" fill="#C4C5C4" d="M1006.849,75.875c0,5.471-4.44,9.91-9.92,9.91
					c-5.479,0-9.92-4.439-9.92-9.91c0-5.475,4.441-9.91,9.92-9.91C1002.408,65.965,1006.849,70.4,1006.849,75.875"/>
				<path clip-path="url(#SVGID_10_)" fill="#C6C8C8" d="M1006.599,75.875c0,5.332-4.331,9.66-9.67,9.66
					c-5.34,0-9.668-4.328-9.668-9.66c0-5.336,4.328-9.66,9.668-9.66C1002.268,66.215,1006.599,70.539,1006.599,75.875"/>
				<path clip-path="url(#SVGID_10_)" fill="#C9CACB" d="M1006.347,75.875c0,5.195-4.216,9.406-9.418,9.406
					c-5.201,0-9.417-4.211-9.417-9.406c0-5.197,4.216-9.41,9.417-9.41C1002.131,66.465,1006.347,70.678,1006.347,75.875"/>
				<path clip-path="url(#SVGID_10_)" fill="#CBCDCD" d="M1006.097,75.875c0,5.057-4.105,9.16-9.168,9.16
					c-5.063,0-9.166-4.104-9.166-9.16c0-5.059,4.103-9.16,9.166-9.16C1001.991,66.715,1006.097,70.816,1006.097,75.875"/>
				<path clip-path="url(#SVGID_10_)" fill="#CCCFD0" d="M1005.846,75.875c0,4.918-3.993,8.906-8.917,8.906
					c-4.923,0-8.916-3.988-8.916-8.906c0-4.92,3.993-8.908,8.916-8.908C1001.853,66.967,1005.846,70.955,1005.846,75.875"/>
				<path clip-path="url(#SVGID_10_)" fill="#D0D2D2" d="M1005.595,75.875c0,4.779-3.88,8.656-8.666,8.656
					c-4.785,0-8.664-3.877-8.664-8.656c0-4.783,3.879-8.658,8.664-8.658C1001.715,67.217,1005.595,71.092,1005.595,75.875"/>
				<path clip-path="url(#SVGID_10_)" fill="#D2D4D5" d="M1005.343,75.875c0,4.641-3.769,8.406-8.414,8.406
					c-4.646,0-8.414-3.766-8.414-8.406c0-4.645,3.768-8.406,8.414-8.406C1001.574,67.469,1005.343,71.23,1005.343,75.875"/>
			</g>
		</g>
		
			<rect x="981.512" y="73.73" transform="matrix(0.7071 0.7071 -0.7071 0.7071 345.3774 -683.197)" fill="#605F5E" width="31.787" height="3.183"/>
		
			<rect x="982.416" y="74.107" transform="matrix(0.7071 0.7071 -0.7071 0.7071 345.0363 -684.1298)" fill="#F1F1F1" width="31.789" height="0.622"/>
	</g>
	<g>
		<path fill="#AFAEAE" d="M1185.166,91.303c-8.504,0-15.398-6.9-15.398-15.412s6.895-15.414,15.398-15.414
			s15.398,6.902,15.398,15.414S1193.67,91.303,1185.166,91.303"/>
		<ellipse fill="none" stroke="#929292" stroke-miterlimit="10" cx="1185.166" cy="75.89" rx="15.398" ry="15.413"/>
		<path fill="#AFAEAE" d="M1185.166,87.215c-6.248,0-11.314-5.07-11.314-11.324s5.066-11.324,11.314-11.324
			s11.314,5.07,11.314,11.324S1191.414,87.215,1185.166,87.215"/>
		<ellipse fill="none" stroke="#929292" stroke-miterlimit="10" cx="1185.166" cy="75.891" rx="11.314" ry="11.324"/>
		<g>
			<g>
				<defs>
					<rect id="SVGID_11_" x="1174.504" y="65.213" width="21.326" height="21.354"/>
				</defs>
				<clipPath id="SVGID_12_">
					<use xlink:href="#SVGID_11_"  overflow="visible"/>
				</clipPath>
				<path clip-path="url(#SVGID_12_)" fill="#BEBEBD" d="M1185.166,86.563c-5.887,0-10.662-4.777-10.662-10.672
					c0-5.896,4.775-10.674,10.662-10.674c5.889,0,10.664,4.777,10.664,10.674C1195.83,81.785,1191.055,86.563,1185.166,86.563"/>
				<path clip-path="url(#SVGID_12_)" fill="#C0C0C0" d="M1185.166,86.313c-5.748,0-10.41-4.668-10.41-10.422
					c0-5.758,4.662-10.422,10.41-10.422c5.752,0,10.412,4.664,10.412,10.422C1195.578,81.645,1190.918,86.313,1185.166,86.313"/>
				<path clip-path="url(#SVGID_12_)" fill="#C2C3C3" d="M1185.166,86.061c-5.609,0-10.162-4.553-10.162-10.17
					c0-5.619,4.553-10.172,10.162-10.172c5.613,0,10.162,4.553,10.162,10.172C1195.328,81.508,1190.779,86.061,1185.166,86.061"/>
				<path clip-path="url(#SVGID_12_)" fill="#C4C5C4" d="M1185.166,85.811c-5.471,0-9.91-4.441-9.91-9.92
					c0-5.48,4.439-9.922,9.91-9.922c5.474,0,9.909,4.441,9.909,9.922C1195.075,81.369,1190.64,85.811,1185.166,85.811"/>
				<path clip-path="url(#SVGID_12_)" fill="#C6C8C8" d="M1185.166,85.559c-5.332,0-9.66-4.33-9.66-9.668
					c0-5.34,4.328-9.668,9.66-9.668c5.336,0,9.659,4.328,9.659,9.668C1194.825,81.229,1190.502,85.559,1185.166,85.559"/>
				<path clip-path="url(#SVGID_12_)" fill="#C9CACB" d="M1185.166,85.309c-5.195,0-9.407-4.217-9.407-9.418
					c0-5.203,4.212-9.418,9.407-9.418c5.197,0,9.409,4.215,9.409,9.418C1194.575,81.092,1190.363,85.309,1185.166,85.309"/>
				<path clip-path="url(#SVGID_12_)" fill="#CBCDCD" d="M1185.166,85.059c-5.058,0-9.16-4.105-9.16-9.168
					c0-5.064,4.103-9.166,9.16-9.166s9.159,4.102,9.159,9.166C1194.325,80.953,1190.224,85.059,1185.166,85.059"/>
				<path clip-path="url(#SVGID_12_)" fill="#CCCFD0" d="M1185.166,84.807c-4.918,0-8.907-3.992-8.907-8.916
					s3.989-8.918,8.907-8.918c4.92,0,8.907,3.994,8.907,8.918S1190.086,84.807,1185.166,84.807"/>
				<path clip-path="url(#SVGID_12_)" fill="#D0D2D2" d="M1185.166,84.555c-4.779,0-8.657-3.879-8.657-8.664
					c0-4.787,3.878-8.666,8.657-8.666c4.783,0,8.657,3.879,8.657,8.666C1193.823,80.676,1189.949,84.555,1185.166,84.555"/>
				<path clip-path="url(#SVGID_12_)" fill="#D2D4D5" d="M1185.166,84.305c-4.642,0-8.407-3.77-8.407-8.414
					c0-4.648,3.766-8.414,8.407-8.414c4.644,0,8.406,3.766,8.406,8.414C1193.572,80.535,1189.81,84.305,1185.166,84.305"/>
			</g>
		</g>
		
			<rect x="1169.826" y="74.776" transform="matrix(-0.7071 0.7071 -0.7071 -0.7071 2078.166 -708.0438)" fill="#605F5E" width="31.787" height="3.182"/>
		
			<rect x="1170.729" y="76.96" transform="matrix(-0.7071 0.7071 -0.7071 -0.7071 2080.3486 -707.1392)" fill="#F1F1F1" width="31.787" height="0.624"/>
	</g>
</g>
</svg>
