<?xml version="1.0" encoding="utf-8"?>
<!-- Generator: Adobe Illustrator 16.0.0, SVG Export Plug-In . SVG Version: 6.00 Build 0)  -->
<!DOCTYPE svg PUBLIC "-//W3C//DTD SVG 1.1//EN" "http://www.w3.org/Graphics/SVG/1.1/DTD/svg11.dtd">
<svg version="1.1" id="图层_1" xmlns="http://www.w3.org/2000/svg" xmlns:xlink="http://www.w3.org/1999/xlink" x="0px" y="0px"
	 width="1275.59px" height="126.14px" viewBox="0 0 1275.59 126.14" enable-background="new 0 0 1275.59 126.14"
	 xml:space="preserve">
<rect fill="#404659" width="1275.59" height="126.143"/>
<g>
	<polygon fill="#AEAEAD" points="365.564,114.329 362.432,108.903 365.564,103.478 371.829,103.478 374.961,108.903 
		371.829,114.329 	"/>
	<polygon fill="#181818" points="365.122,114.017 361.989,108.591 365.122,103.165 371.387,103.165 374.519,108.591 
		371.387,114.017 	"/>
</g>
<g>
	<polygon fill="#AEAEAD" points="381.136,114.329 378.003,108.903 381.136,103.478 387.401,103.478 390.533,108.903 
		387.401,114.329 	"/>
	<polygon fill="#181818" points="380.693,114.017 377.561,108.591 380.693,103.165 386.958,103.165 390.091,108.591 
		386.958,114.017 	"/>
</g>
<g>
	<polygon fill="#AEAEAD" points="396.707,114.329 393.574,108.903 396.707,103.478 402.972,103.478 406.104,108.903 
		402.972,114.329 	"/>
	<polygon fill="#181818" points="396.265,114.017 393.132,108.591 396.265,103.165 402.529,103.165 405.662,108.591 
		402.529,114.017 	"/>
</g>
<g>
	<polygon fill="#AEAEAD" points="412.278,114.329 409.146,108.903 412.278,103.478 418.543,103.478 421.676,108.903 
		418.543,114.329 	"/>
	<polygon fill="#181818" points="411.836,114.017 408.704,108.591 411.836,103.165 418.101,103.165 421.234,108.591 
		418.101,114.017 	"/>
</g>
<g>
	<polygon fill="#AEAEAD" points="427.85,114.329 424.718,108.903 427.85,103.478 434.115,103.478 437.248,108.903 434.115,114.329 	
		"/>
	<polygon fill="#181818" points="427.408,114.017 424.275,108.591 427.408,103.165 433.673,103.165 436.806,108.591 
		433.673,114.017 	"/>
</g>
<g>
	<polygon fill="#AEAEAD" points="443.422,114.329 440.289,108.903 443.422,103.478 449.687,103.478 452.819,108.903 
		449.687,114.329 	"/>
	<polygon fill="#181818" points="442.979,114.017 439.847,108.591 442.979,103.165 449.244,103.165 452.377,108.591 
		449.244,114.017 	"/>
</g>
<g>
	<polygon fill="#AEAEAD" points="458.993,114.329 455.861,108.903 458.993,103.478 465.258,103.478 468.391,108.903 
		465.258,114.329 	"/>
	<polygon fill="#181818" points="458.551,114.017 455.418,108.591 458.551,103.165 464.816,103.165 467.948,108.591 
		464.816,114.017 	"/>
</g>
<g>
	<polygon fill="#AEAEAD" points="474.565,114.329 471.432,108.903 474.565,103.478 480.83,103.478 483.962,108.903 480.83,114.329 	
		"/>
	<polygon fill="#181818" points="474.123,114.017 470.99,108.591 474.123,103.165 480.388,103.165 483.52,108.591 480.388,114.017 	
		"/>
</g>
<g>
	<polygon fill="#AEAEAD" points="490.136,114.329 487.003,108.903 490.136,103.478 496.401,103.478 499.534,108.903 
		496.401,114.329 	"/>
	<polygon fill="#181818" points="489.694,114.017 486.561,108.591 489.694,103.165 495.959,103.165 499.092,108.591 
		495.959,114.017 	"/>
</g>
<g>
	<polygon fill="#AEAEAD" points="505.708,114.329 502.575,108.903 505.708,103.478 511.973,103.478 515.105,108.903 
		511.973,114.329 	"/>
	<polygon fill="#181818" points="505.265,114.017 502.133,108.591 505.265,103.165 511.53,103.165 514.663,108.591 511.53,114.017 	
		"/>
</g>
<g>
	<polygon fill="#AEAEAD" points="521.279,114.329 518.147,108.903 521.279,103.478 527.544,103.478 530.677,108.903 
		527.544,114.329 	"/>
	<polygon fill="#181818" points="520.837,114.017 517.704,108.591 520.837,103.165 527.102,103.165 530.235,108.591 
		527.102,114.017 	"/>
</g>
<g>
	<polygon fill="#AEAEAD" points="536.851,114.329 533.718,108.903 536.851,103.478 543.116,103.478 546.249,108.903 
		543.116,114.329 	"/>
	<polygon fill="#181818" points="536.408,114.017 533.276,108.591 536.408,103.165 542.674,103.165 545.806,108.591 
		542.674,114.017 	"/>
</g>
<polygon fill="#AEAEAD" points="373.571,101.663 370.438,96.237 373.571,90.812 379.836,90.812 382.969,96.237 379.836,101.663 "/>
<polygon fill="#181818" points="373.128,101.351 369.996,95.925 373.128,90.499 379.394,90.499 382.526,95.925 379.394,101.351 "/>
<polygon fill="#AEAEAD" points="389.143,101.663 386.01,96.237 389.143,90.812 395.408,90.812 398.54,96.237 395.408,101.663 "/>
<polygon fill="#181818" points="388.7,101.351 385.567,95.925 388.7,90.499 394.965,90.499 398.098,95.925 394.965,101.351 "/>
<polygon fill="#AEAEAD" points="404.714,101.663 401.582,96.237 404.714,90.812 410.979,90.812 414.111,96.237 410.979,101.663 "/>
<polygon fill="#181818" points="404.271,101.351 401.139,95.925 404.271,90.499 410.537,90.499 413.669,95.925 410.537,101.351 "/>
<polygon fill="#AEAEAD" points="420.286,101.663 417.153,96.237 420.286,90.812 426.551,90.812 429.683,96.237 426.551,101.663 "/>
<polygon fill="#181818" points="419.843,101.351 416.71,95.925 419.843,90.499 426.108,90.499 429.241,95.925 426.108,101.351 "/>
<polygon fill="#AEAEAD" points="435.857,101.663 432.725,96.237 435.857,90.812 442.122,90.812 445.255,96.237 442.122,101.663 "/>
<polygon fill="#181818" points="435.415,101.351 432.282,95.925 435.415,90.499 441.68,90.499 444.813,95.925 441.68,101.351 "/>
<polygon fill="#AEAEAD" points="451.428,101.663 448.296,96.237 451.428,90.812 457.693,90.812 460.826,96.237 457.693,101.663 "/>
<polygon fill="#181818" points="450.986,101.351 447.854,95.925 450.986,90.499 457.251,90.499 460.384,95.925 457.251,101.351 "/>
<polygon fill="#AEAEAD" points="467,101.663 463.868,96.237 467,90.812 473.265,90.812 476.398,96.237 473.265,101.663 "/>
<polygon fill="#181818" points="466.558,101.351 463.425,95.925 466.558,90.499 472.823,90.499 475.956,95.925 472.823,101.351 "/>
<polygon fill="#AEAEAD" points="482.572,101.663 479.439,96.237 482.572,90.812 488.837,90.812 491.969,96.237 488.837,101.663 "/>
<polygon fill="#181818" points="482.129,101.351 478.997,95.925 482.129,90.499 488.395,90.499 491.527,95.925 488.395,101.351 "/>
<polygon fill="#AEAEAD" points="498.143,101.663 495.011,96.237 498.143,90.812 504.408,90.812 507.541,96.237 504.408,101.663 "/>
<polygon fill="#181818" points="497.701,101.351 494.568,95.925 497.701,90.499 503.966,90.499 507.099,95.925 503.966,101.351 "/>
<polygon fill="#AEAEAD" points="513.715,101.663 510.582,96.237 513.715,90.812 519.979,90.812 523.112,96.237 519.979,101.663 "/>
<polygon fill="#181818" points="513.272,101.351 510.14,95.925 513.272,90.499 519.537,90.499 522.67,95.925 519.537,101.351 "/>
<polygon fill="#AEAEAD" points="529.286,101.663 526.154,96.237 529.286,90.812 535.551,90.812 538.684,96.237 535.551,101.663 "/>
<polygon fill="#181818" points="528.844,101.351 525.711,95.925 528.844,90.499 535.109,90.499 538.242,95.925 535.109,101.351 "/>
<polygon fill="#AEAEAD" points="544.857,101.663 541.725,96.237 544.857,90.812 551.123,90.812 554.256,96.237 551.123,101.663 "/>
<polygon fill="#181818" points="544.416,101.351 541.283,95.925 544.416,90.499 550.681,90.499 553.813,95.925 550.681,101.351 "/>
<polygon fill="#AEAEAD" points="365.392,90.499 362.259,85.073 365.392,79.647 371.657,79.647 374.79,85.073 371.657,90.499 "/>
<polygon fill="#181818" points="364.949,90.187 361.817,84.761 364.949,79.335 371.215,79.335 374.347,84.761 371.215,90.187 "/>
<polygon fill="#AEAEAD" points="380.963,90.499 377.831,85.073 380.963,79.647 387.229,79.647 390.361,85.073 387.229,90.499 "/>
<polygon fill="#181818" points="380.521,90.187 377.389,84.761 380.521,79.335 386.786,79.335 389.919,84.761 386.786,90.187 "/>
<polygon fill="#AEAEAD" points="396.535,90.499 393.402,85.073 396.535,79.647 402.8,79.647 405.933,85.073 402.8,90.499 "/>
<polygon fill="#181818" points="396.092,90.187 392.96,84.761 396.092,79.335 402.357,79.335 405.49,84.761 402.357,90.187 "/>
<polygon fill="#AEAEAD" points="412.106,90.499 408.974,85.073 412.106,79.647 418.372,79.647 421.504,85.073 418.372,90.499 "/>
<polygon fill="#181818" points="411.664,90.187 408.532,84.761 411.664,79.335 417.929,79.335 421.062,84.761 417.929,90.187 "/>
<polygon fill="#AEAEAD" points="427.678,90.499 424.545,85.073 427.678,79.647 433.943,79.647 437.076,85.073 433.943,90.499 "/>
<polygon fill="#181818" points="427.236,90.187 424.103,84.761 427.236,79.335 433.501,79.335 436.633,84.761 433.501,90.187 "/>
<polygon fill="#AEAEAD" points="443.25,90.499 440.117,85.073 443.25,79.647 449.515,79.647 452.647,85.073 449.515,90.499 "/>
<polygon fill="#181818" points="442.807,90.187 439.674,84.761 442.807,79.335 449.072,79.335 452.205,84.761 449.072,90.187 "/>
<polygon fill="#AEAEAD" points="458.821,90.499 455.688,85.073 458.821,79.647 465.086,79.647 468.219,85.073 465.086,90.499 "/>
<polygon fill="#181818" points="458.379,90.187 455.246,84.761 458.379,79.335 464.644,79.335 467.776,84.761 464.644,90.187 "/>
<polygon fill="#AEAEAD" points="474.393,90.499 471.26,85.073 474.393,79.647 480.658,79.647 483.79,85.073 480.658,90.499 "/>
<polygon fill="#181818" points="473.95,90.187 470.818,84.761 473.95,79.335 480.215,79.335 483.348,84.761 480.215,90.187 "/>
<polygon fill="#AEAEAD" points="489.964,90.499 486.832,85.073 489.964,79.647 496.229,79.647 499.362,85.073 496.229,90.499 "/>
<polygon fill="#181818" points="489.521,90.187 486.389,84.761 489.521,79.335 495.787,79.335 498.919,84.761 495.787,90.187 "/>
<polygon fill="#AEAEAD" points="505.536,90.499 502.403,85.073 505.536,79.647 511.801,79.647 514.933,85.073 511.801,90.499 "/>
<polygon fill="#181818" points="505.093,90.187 501.961,84.761 505.093,79.335 511.358,79.335 514.491,84.761 511.358,90.187 "/>
<polygon fill="#AEAEAD" points="521.107,90.499 517.975,85.073 521.107,79.647 527.373,79.647 530.505,85.073 527.373,90.499 "/>
<polygon fill="#181818" points="520.665,90.187 517.532,84.761 520.665,79.335 526.93,79.335 530.063,84.761 526.93,90.187 "/>
<polygon fill="#AEAEAD" points="536.679,90.499 533.546,85.073 536.679,79.647 542.944,79.647 546.076,85.073 542.944,90.499 "/>
<polygon fill="#181818" points="536.236,90.187 533.104,84.761 536.236,79.335 542.501,79.335 545.634,84.761 542.501,90.187 "/>
<polygon fill="#AEAEAD" points="373.399,77.833 370.266,72.407 373.399,66.981 379.664,66.981 382.796,72.407 379.664,77.833 "/>
<polygon fill="#181818" points="372.957,77.521 369.824,72.095 372.957,66.669 379.222,66.669 382.354,72.095 379.222,77.521 "/>
<polygon fill="#AEAEAD" points="388.97,77.833 385.838,72.407 388.97,66.981 395.235,66.981 398.368,72.407 395.235,77.833 "/>
<polygon fill="#181818" points="388.528,77.521 385.395,72.095 388.528,66.669 394.793,66.669 397.926,72.095 394.793,77.521 "/>
<polygon fill="#AEAEAD" points="404.542,77.833 401.409,72.407 404.542,66.981 410.807,66.981 413.939,72.407 410.807,77.833 "/>
<polygon fill="#181818" points="404.099,77.521 400.967,72.095 404.099,66.669 410.365,66.669 413.497,72.095 410.365,77.521 "/>
<polygon fill="#AEAEAD" points="420.113,77.833 416.981,72.407 420.113,66.981 426.378,66.981 429.511,72.407 426.378,77.833 "/>
<polygon fill="#181818" points="419.671,77.521 416.539,72.095 419.671,66.669 425.936,66.669 429.069,72.095 425.936,77.521 "/>
<polygon fill="#AEAEAD" points="435.685,77.833 432.552,72.407 435.685,66.981 441.95,66.981 445.083,72.407 441.95,77.833 "/>
<polygon fill="#181818" points="435.242,77.521 432.11,72.095 435.242,66.669 441.508,66.669 444.64,72.095 441.508,77.521 "/>
<polygon fill="#AEAEAD" points="451.256,77.833 448.124,72.407 451.256,66.981 457.521,66.981 460.654,72.407 457.521,77.833 "/>
<polygon fill="#181818" points="450.814,77.521 447.682,72.095 450.814,66.669 457.079,66.669 460.212,72.095 457.079,77.521 "/>
<polygon fill="#AEAEAD" points="466.828,77.833 463.695,72.407 466.828,66.981 473.093,66.981 476.226,72.407 473.093,77.833 "/>
<polygon fill="#181818" points="466.386,77.521 463.253,72.095 466.386,66.669 472.651,66.669 475.783,72.095 472.651,77.521 "/>
<polygon fill="#AEAEAD" points="482.399,77.833 479.267,72.407 482.399,66.981 488.665,66.981 491.797,72.407 488.665,77.833 "/>
<polygon fill="#181818" points="481.957,77.521 478.824,72.095 481.957,66.669 488.222,66.669 491.354,72.095 488.222,77.521 "/>
<polygon fill="#AEAEAD" points="497.971,77.833 494.838,72.407 497.971,66.981 504.236,66.981 507.369,72.407 504.236,77.833 "/>
<polygon fill="#181818" points="497.529,77.521 494.396,72.095 497.529,66.669 503.794,66.669 506.926,72.095 503.794,77.521 "/>
<polygon fill="#AEAEAD" points="513.543,77.833 510.41,72.407 513.543,66.981 519.808,66.981 522.94,72.407 519.808,77.833 "/>
<polygon fill="#181818" points="513.1,77.521 509.968,72.095 513.1,66.669 519.365,66.669 522.498,72.095 519.365,77.521 "/>
<polygon fill="#AEAEAD" points="529.114,77.833 525.981,72.407 529.114,66.981 535.379,66.981 538.512,72.407 535.379,77.833 "/>
<polygon fill="#181818" points="528.672,77.521 525.539,72.095 528.672,66.669 534.937,66.669 538.069,72.095 534.937,77.521 "/>
<polygon fill="#AEAEAD" points="544.686,77.833 541.553,72.407 544.686,66.981 550.951,66.981 554.083,72.407 550.951,77.833 "/>
<polygon fill="#181818" points="544.243,77.521 541.111,72.095 544.243,66.669 550.508,66.669 553.641,72.095 550.508,77.521 "/>
<polygon fill="#AEAEAD" points="365.22,66.669 362.087,61.243 365.22,55.817 371.485,55.817 374.617,61.243 371.485,66.669 "/>
<polygon fill="#181818" points="364.777,66.356 361.645,60.931 364.777,55.505 371.042,55.505 374.175,60.931 371.042,66.356 "/>
<polygon fill="#AEAEAD" points="380.791,66.669 377.659,61.243 380.791,55.817 387.057,55.817 390.189,61.243 387.057,66.669 "/>
<polygon fill="#181818" points="380.349,66.356 377.216,60.931 380.349,55.505 386.614,55.505 389.746,60.931 386.614,66.356 "/>
<polygon fill="#AEAEAD" points="396.363,66.669 393.23,61.243 396.363,55.817 402.628,55.817 405.76,61.243 402.628,66.669 "/>
<polygon fill="#181818" points="395.92,66.356 392.788,60.931 395.92,55.505 402.186,55.505 405.318,60.931 402.186,66.356 "/>
<polygon fill="#AEAEAD" points="411.935,66.669 408.802,61.243 411.935,55.817 418.199,55.817 421.332,61.243 418.199,66.669 "/>
<polygon fill="#181818" points="411.492,66.356 408.359,60.931 411.492,55.505 417.757,55.505 420.89,60.931 417.757,66.356 "/>
<polygon fill="#AEAEAD" points="427.506,66.669 424.373,61.243 427.506,55.817 433.771,55.817 436.903,61.243 433.771,66.669 "/>
<polygon fill="#181818" points="427.063,66.356 423.931,60.931 427.063,55.505 433.329,55.505 436.461,60.931 433.329,66.356 "/>
<polygon fill="#AEAEAD" points="443.077,66.669 439.945,61.243 443.077,55.817 449.342,55.817 452.475,61.243 449.342,66.669 "/>
<polygon fill="#181818" points="442.635,66.356 439.502,60.931 442.635,55.505 448.9,55.505 452.033,60.931 448.9,66.356 "/>
<polygon fill="#AEAEAD" points="458.649,66.669 455.517,61.243 458.649,55.817 464.914,55.817 468.047,61.243 464.914,66.669 "/>
<polygon fill="#181818" points="458.207,66.356 455.074,60.931 458.207,55.505 464.472,55.505 467.604,60.931 464.472,66.356 "/>
<polygon fill="#AEAEAD" points="474.22,66.669 471.088,61.243 474.22,55.817 480.486,55.817 483.618,61.243 480.486,66.669 "/>
<polygon fill="#181818" points="473.778,66.356 470.646,60.931 473.778,55.505 480.043,55.505 483.176,60.931 480.043,66.356 "/>
<polygon fill="#AEAEAD" points="489.792,66.669 486.659,61.243 489.792,55.817 496.057,55.817 499.189,61.243 496.057,66.669 "/>
<polygon fill="#181818" points="489.35,66.356 486.217,60.931 489.35,55.505 495.615,55.505 498.747,60.931 495.615,66.356 "/>
<polygon fill="#AEAEAD" points="505.364,66.669 502.231,61.243 505.364,55.817 511.629,55.817 514.761,61.243 511.629,66.669 "/>
<polygon fill="#181818" points="504.921,66.356 501.789,60.931 504.921,55.505 511.186,55.505 514.319,60.931 511.186,66.356 "/>
<polygon fill="#AEAEAD" points="520.935,66.669 517.802,61.243 520.935,55.817 527.2,55.817 530.333,61.243 527.2,66.669 "/>
<polygon fill="#181818" points="520.493,66.356 517.36,60.931 520.493,55.505 526.758,55.505 529.891,60.931 526.758,66.356 "/>
<polygon fill="#AEAEAD" points="536.507,66.669 533.374,61.243 536.507,55.817 542.771,55.817 545.904,61.243 542.771,66.669 "/>
<polygon fill="#181818" points="536.064,66.356 532.932,60.931 536.064,55.505 542.329,55.505 545.462,60.931 542.329,66.356 "/>
<polygon fill="#AEAEAD" points="373.227,54.003 370.094,48.577 373.227,43.151 379.492,43.151 382.625,48.577 379.492,54.003 "/>
<polygon fill="#181818" points="372.784,53.69 369.651,48.265 372.784,42.839 379.049,42.839 382.182,48.265 379.049,53.69 "/>
<polygon fill="#AEAEAD" points="388.798,54.003 385.666,48.577 388.798,43.151 395.063,43.151 398.196,48.577 395.063,54.003 "/>
<polygon fill="#181818" points="388.356,53.69 385.223,48.265 388.356,42.839 394.621,42.839 397.753,48.265 394.621,53.69 "/>
<polygon fill="#AEAEAD" points="404.37,54.003 401.237,48.577 404.37,43.151 410.635,43.151 413.768,48.577 410.635,54.003 "/>
<polygon fill="#181818" points="403.927,53.69 400.795,48.265 403.927,42.839 410.192,42.839 413.325,48.265 410.192,53.69 "/>
<polygon fill="#AEAEAD" points="419.941,54.003 416.809,48.577 419.941,43.151 426.207,43.151 429.339,48.577 426.207,54.003 "/>
<polygon fill="#181818" points="419.499,53.69 416.366,48.265 419.499,42.839 425.764,42.839 428.897,48.265 425.764,53.69 "/>
<polygon fill="#AEAEAD" points="435.513,54.003 432.38,48.577 435.513,43.151 441.778,43.151 444.91,48.577 441.778,54.003 "/>
<polygon fill="#181818" points="435.07,53.69 431.938,48.265 435.07,42.839 441.335,42.839 444.468,48.265 441.335,53.69 "/>
<polygon fill="#AEAEAD" points="451.084,54.003 447.952,48.577 451.084,43.151 457.349,43.151 460.482,48.577 457.349,54.003 "/>
<polygon fill="#181818" points="450.642,53.69 447.509,48.265 450.642,42.839 456.907,42.839 460.04,48.265 456.907,53.69 "/>
<polygon fill="#AEAEAD" points="466.656,54.003 463.523,48.577 466.656,43.151 472.921,43.151 476.054,48.577 472.921,54.003 "/>
<polygon fill="#181818" points="466.214,53.69 463.081,48.265 466.214,42.839 472.479,42.839 475.611,48.265 472.479,53.69 "/>
<polygon fill="#AEAEAD" points="482.228,54.003 479.095,48.577 482.228,43.151 488.492,43.151 491.625,48.577 488.492,54.003 "/>
<polygon fill="#181818" points="481.785,53.69 478.652,48.265 481.785,42.839 488.05,42.839 491.183,48.265 488.05,53.69 "/>
<polygon fill="#AEAEAD" points="497.799,54.003 494.667,48.577 497.799,43.151 504.064,43.151 507.197,48.577 504.064,54.003 "/>
<polygon fill="#181818" points="497.356,53.69 494.224,48.265 497.356,42.839 503.622,42.839 506.754,48.265 503.622,53.69 "/>
<polygon fill="#AEAEAD" points="513.37,54.003 510.238,48.577 513.37,43.151 519.636,43.151 522.768,48.577 519.636,54.003 "/>
<polygon fill="#181818" points="512.928,53.69 509.796,48.265 512.928,42.839 519.193,42.839 522.326,48.265 519.193,53.69 "/>
<polygon fill="#AEAEAD" points="528.942,54.003 525.81,48.577 528.942,43.151 535.207,43.151 538.34,48.577 535.207,54.003 "/>
<polygon fill="#181818" points="528.5,53.69 525.367,48.265 528.5,42.839 534.765,42.839 537.897,48.265 534.765,53.69 "/>
<polygon fill="#AEAEAD" points="544.514,54.003 541.381,48.577 544.514,43.151 550.779,43.151 553.911,48.577 550.779,54.003 "/>
<polygon fill="#181818" points="544.071,53.69 540.939,48.265 544.071,42.839 550.336,42.839 553.469,48.265 550.336,53.69 "/>
<polygon fill="#AEAEAD" points="365.048,42.839 361.915,37.413 365.048,31.987 371.313,31.987 374.445,37.413 371.313,42.839 "/>
<polygon fill="#181818" points="364.605,42.526 361.473,37.101 364.605,31.675 370.87,31.675 374.003,37.101 370.87,42.526 "/>
<polygon fill="#AEAEAD" points="380.619,42.839 377.486,37.413 380.619,31.987 386.884,31.987 390.017,37.413 386.884,42.839 "/>
<polygon fill="#181818" points="380.177,42.526 377.044,37.101 380.177,31.675 386.442,31.675 389.574,37.101 386.442,42.526 "/>
<polygon fill="#AEAEAD" points="396.19,42.839 393.058,37.413 396.19,31.987 402.456,31.987 405.588,37.413 402.456,42.839 "/>
<polygon fill="#181818" points="395.749,42.526 392.616,37.101 395.749,31.675 402.014,31.675 405.146,37.101 402.014,42.526 "/>
<polygon fill="#AEAEAD" points="411.762,42.839 408.63,37.413 411.762,31.987 418.027,31.987 421.16,37.413 418.027,42.839 "/>
<polygon fill="#181818" points="411.32,42.526 408.188,37.101 411.32,31.675 417.585,31.675 420.718,37.101 417.585,42.526 "/>
<polygon fill="#AEAEAD" points="427.333,42.839 424.201,37.413 427.333,31.987 433.599,31.987 436.731,37.413 433.599,42.839 "/>
<polygon fill="#181818" points="426.891,42.526 423.759,37.101 426.891,31.675 433.156,31.675 436.289,37.101 433.156,42.526 "/>
<polygon fill="#AEAEAD" points="474.048,42.839 470.916,37.413 474.048,31.987 480.313,31.987 483.446,37.413 480.313,42.839 "/>
<polygon fill="#181818" points="473.606,42.526 470.473,37.101 473.606,31.675 479.871,31.675 483.003,37.101 479.871,42.526 "/>
<polygon fill="#AEAEAD" points="489.62,42.839 486.487,37.413 489.62,31.987 495.885,31.987 499.018,37.413 495.885,42.839 "/>
<polygon fill="#181818" points="489.177,42.526 486.045,37.101 489.177,31.675 495.443,31.675 498.575,37.101 495.443,42.526 "/>
<polygon fill="#AEAEAD" points="505.191,42.839 502.059,37.413 505.191,31.987 511.457,31.987 514.589,37.413 511.457,42.839 "/>
<polygon fill="#181818" points="504.749,42.526 501.616,37.101 504.749,31.675 511.014,31.675 514.147,37.101 511.014,42.526 "/>
<polygon fill="#AEAEAD" points="520.763,42.839 517.63,37.413 520.763,31.987 527.028,31.987 530.161,37.413 527.028,42.839 "/>
<polygon fill="#181818" points="520.32,42.526 517.188,37.101 520.32,31.675 526.585,31.675 529.718,37.101 526.585,42.526 "/>
<polygon fill="#AEAEAD" points="536.334,42.839 533.202,37.413 536.334,31.987 542.6,31.987 545.732,37.413 542.6,42.839 "/>
<polygon fill="#181818" points="535.892,42.526 532.76,37.101 535.892,31.675 542.157,31.675 545.29,37.101 542.157,42.526 "/>
<polygon fill="#AEAEAD" points="373.055,30.173 369.922,24.747 373.055,19.321 379.319,19.321 382.452,24.747 379.319,30.173 "/>
<polygon fill="#181818" points="372.612,29.86 369.479,24.435 372.612,19.009 378.877,19.009 382.01,24.435 378.877,29.86 "/>
<polygon fill="#AEAEAD" points="388.626,30.173 385.494,24.747 388.626,19.321 394.891,19.321 398.024,24.747 394.891,30.173 "/>
<polygon fill="#181818" points="388.184,29.86 385.051,24.435 388.184,19.009 394.449,19.009 397.582,24.435 394.449,29.86 "/>
<polygon fill="#AEAEAD" points="404.198,30.173 401.065,24.747 404.198,19.321 410.463,19.321 413.595,24.747 410.463,30.173 "/>
<polygon fill="#181818" points="403.755,29.86 400.623,24.435 403.755,19.009 410.021,19.009 413.153,24.435 410.021,29.86 "/>
<polygon fill="#AEAEAD" points="419.769,30.173 416.637,24.747 419.769,19.321 426.034,19.321 429.167,24.747 426.034,30.173 "/>
<polygon fill="#181818" points="419.327,29.86 416.194,24.435 419.327,19.009 425.592,19.009 428.725,24.435 425.592,29.86 "/>
<polygon fill="#AEAEAD" points="482.055,30.173 478.923,24.747 482.055,19.321 488.32,19.321 491.453,24.747 488.32,30.173 "/>
<polygon fill="#181818" points="481.613,29.86 478.48,24.435 481.613,19.009 487.878,19.009 491.011,24.435 487.878,29.86 "/>
<polygon fill="#AEAEAD" points="497.627,30.173 494.494,24.747 497.627,19.321 503.892,19.321 507.024,24.747 503.892,30.173 "/>
<polygon fill="#181818" points="497.185,29.86 494.052,24.435 497.185,19.009 503.45,19.009 506.582,24.435 503.45,29.86 "/>
<polygon fill="#AEAEAD" points="513.198,30.173 510.066,24.747 513.198,19.321 519.464,19.321 522.596,24.747 519.464,30.173 "/>
<polygon fill="#181818" points="512.756,29.86 509.624,24.435 512.756,19.009 519.021,19.009 522.154,24.435 519.021,29.86 "/>
<polygon fill="#AEAEAD" points="528.77,30.173 525.637,24.747 528.77,19.321 535.035,19.321 538.168,24.747 535.035,30.173 "/>
<polygon fill="#181818" points="528.328,29.86 525.195,24.435 528.328,19.009 534.593,19.009 537.725,24.435 534.593,29.86 "/>
<polygon fill="#AEAEAD" points="544.341,30.173 541.209,24.747 544.341,19.321 550.606,19.321 553.739,24.747 550.606,30.173 "/>
<polygon fill="#181818" points="543.899,29.86 540.767,24.435 543.899,19.009 550.164,19.009 553.297,24.435 550.164,29.86 "/>
<polygon fill="none" stroke="#0F0F10" stroke-width="2" stroke-miterlimit="10" points="336.763,7.165 314.331,7.165 
	314.331,59.931 336.763,59.931 336.763,120.165 566.455,120.165 566.455,7.165 "/>
<g>
	<g>
		<path fill="#252626" d="M334.742,30.173c0,5.028-4.078,9.104-9.107,9.104c-5.03,0-9.107-4.076-9.107-9.104
			s4.077-9.104,9.107-9.104C330.664,21.068,334.742,25.145,334.742,30.173"/>
		<circle fill="none" stroke="#121212" stroke-width="0.75" stroke-miterlimit="10" cx="325.635" cy="30.173" r="9.107"/>
		<polygon fill="#040000" points="324.51,35.337 324.51,31.298 320.47,31.298 320.47,29.048 324.51,29.048 324.51,25.01 
			326.76,25.01 326.76,29.048 330.799,29.048 330.799,31.298 326.76,31.298 326.76,35.337 		"/>
		<path fill="#221714" d="M326.57,25.198v3.659v0.38h0.379h3.66v1.87h-3.66h-0.379v0.38v3.66h-1.87v-3.66v-0.38h-0.381h-3.659v-1.87
			h3.659h0.381v-0.38v-3.659H326.57z M326.95,24.818h-2.63v4.039h-4.039v2.63h4.039v4.039h2.63v-4.039h4.04v-2.63h-4.04V24.818z"/>
	</g>
	<rect x="324.319" y="24.82" fill="#606062" width="0.381" height="4.417"/>
	<rect x="320.28" y="28.857" fill="#606062" width="4.417" height="0.38"/>
</g>
<g>
	<g>
		<path fill="#252626" d="M591.953,30.173c0,5.028-4.078,9.104-9.106,9.104c-5.03,0-9.106-4.076-9.106-9.104
			s4.076-9.104,9.106-9.104C587.875,21.068,591.953,25.145,591.953,30.173"/>
		<circle fill="none" stroke="#121212" stroke-width="0.75" stroke-miterlimit="10" cx="582.847" cy="30.173" r="9.106"/>
		<polygon fill="#040000" points="581.722,35.337 581.722,31.298 577.682,31.298 577.682,29.048 581.722,29.048 581.722,25.01 
			583.973,25.01 583.973,29.048 588.012,29.048 588.012,31.298 583.973,31.298 583.973,35.337 		"/>
		<path fill="#221714" d="M583.782,25.198v3.659v0.38h0.379h3.66v1.87h-3.66h-0.379v0.38v3.66h-1.87v-3.66v-0.38h-0.381h-3.659
			v-1.87h3.659h0.381v-0.38v-3.659H583.782z M584.161,24.818h-2.63v4.039h-4.039v2.63h4.039v4.039h2.63v-4.039h4.04v-2.63h-4.04
			V24.818z"/>
	</g>
	<rect x="581.531" y="24.82" fill="#606062" width="0.381" height="4.417"/>
	<rect x="577.492" y="28.857" fill="#606062" width="4.416" height="0.38"/>
</g>
<g>
	<g>
		<path fill="#252626" d="M950.033,30.173c0,5.028-4.078,9.104-9.107,9.104s-9.107-4.076-9.107-9.104s4.078-9.104,9.107-9.104
			S950.033,25.145,950.033,30.173"/>
		<circle fill="none" stroke="#121212" stroke-width="0.75" stroke-miterlimit="10" cx="940.926" cy="30.173" r="9.107"/>
		<polygon fill="#040000" points="939.801,35.337 939.801,31.298 935.761,31.298 935.761,29.048 939.801,29.048 939.801,25.01 
			942.051,25.01 942.051,29.048 946.09,29.048 946.09,31.298 942.051,31.298 942.051,35.337 		"/>
		<path fill="#221714" d="M941.861,25.198v3.659v0.38h0.379h3.661v1.87h-3.661h-0.379v0.38v3.66h-1.87v-3.66v-0.38h-0.38h-3.66
			v-1.87h3.66h0.38v-0.38v-3.659H941.861z M942.24,24.818h-2.629v4.039h-4.04v2.63h4.04v4.039h2.629v-4.039h4.04v-2.63h-4.04V24.818
			z"/>
	</g>
	<rect x="939.611" y="24.82" fill="#606062" width="0.38" height="4.417"/>
	<rect x="935.571" y="28.857" fill="#606062" width="4.417" height="0.38"/>
</g>
<g>
	<g>
		<path fill="#252626" d="M334.742,90.812c0,5.028-4.078,9.104-9.107,9.104c-5.03,0-9.107-4.076-9.107-9.104
			s4.077-9.104,9.107-9.104C330.664,81.707,334.742,85.783,334.742,90.812"/>
		<circle fill="none" stroke="#121212" stroke-width="0.75" stroke-miterlimit="10" cx="325.635" cy="90.812" r="9.107"/>
		<polygon fill="#040000" points="324.51,95.976 324.51,91.937 320.47,91.937 320.47,89.687 324.51,89.687 324.51,85.648 
			326.76,85.648 326.76,89.687 330.799,89.687 330.799,91.937 326.76,91.937 326.76,95.976 		"/>
		<path fill="#221714" d="M326.57,85.837v3.659v0.38h0.379h3.66v1.87h-3.66h-0.379v0.38v3.66h-1.87v-3.66v-0.38h-0.381h-3.659v-1.87
			h3.659h0.381v-0.38v-3.659H326.57z M326.95,85.457h-2.63v4.039h-4.039v2.63h4.039v4.039h2.63v-4.039h4.04v-2.63h-4.04V85.457z"/>
	</g>
	<rect x="324.319" y="85.459" fill="#606062" width="0.381" height="4.417"/>
	<rect x="320.28" y="89.496" fill="#606062" width="4.417" height="0.38"/>
</g>
<g>
	<path fill="#060001" d="M461.922,25.881c0-4.633-3.929-8.389-8.775-8.389c-4.845,0-8.774,3.756-8.774,8.389
		c0,4.635,3.929,8.391,8.774,8.391C457.994,34.271,461.922,30.516,461.922,25.881"/>
	<g>
		<defs>
			<path id="SVGID_1_" d="M453.147,32.625c-3.894,0-7.051-3.02-7.051-6.744c0-3.723,3.157-6.742,7.051-6.742s7.05,3.02,7.05,6.742
				C460.198,29.605,457.041,32.625,453.147,32.625"/>
		</defs>
		<clipPath id="SVGID_2_">
			<use xlink:href="#SVGID_1_"  overflow="visible"/>
		</clipPath>
		
			<radialGradient id="SVGID_3_" cx="-1834.6187" cy="-873.6299" r="1.1987" gradientTransform="matrix(0 -8.2859 -8.665 0 -7114.3438 -15173.9414)" gradientUnits="userSpaceOnUse">
			<stop  offset="0" style="stop-color:#E0E0DF"/>
			<stop  offset="1" style="stop-color:#231815"/>
		</radialGradient>
		<rect x="446.097" y="19.139" clip-path="url(#SVGID_2_)" fill="url(#SVGID_3_)" width="14.101" height="13.486"/>
	</g>
	<g opacity="0.5" enable-background="new    ">
		<g>
			<defs>
				<rect id="SVGID_4_" x="454.871" y="26.781" width="2.351" height="2.246"/>
			</defs>
			<clipPath id="SVGID_5_">
				<use xlink:href="#SVGID_4_"  overflow="visible"/>
			</clipPath>
			<rect x="454.871" y="26.781" clip-path="url(#SVGID_5_)" fill="#FFFFFF" width="2.351" height="2.246"/>
		</g>
	</g>
	<g opacity="0.5" enable-background="new    ">
		<g>
			<defs>
				<rect id="SVGID_6_" x="454.871" y="27.904" width="2.351" height="1.123"/>
			</defs>
			<clipPath id="SVGID_7_">
				<use xlink:href="#SVGID_6_"  overflow="visible"/>
			</clipPath>
			<rect x="454.871" y="27.904" clip-path="url(#SVGID_7_)" fill="#FFFFFF" width="2.351" height="1.123"/>
		</g>
	</g>
</g>
<g>
	<path fill="#060001" d="M1028.756,36.881c0-4.633-3.929-8.389-8.774-8.389s-8.775,3.756-8.775,8.389
		c0,4.635,3.93,8.391,8.775,8.391S1028.756,41.516,1028.756,36.881"/>
	<g>
		<defs>
			<path id="SVGID_8_" d="M1019.981,43.625c-3.894,0-7.052-3.02-7.052-6.744c0-3.723,3.158-6.742,7.052-6.742
				c3.893,0,7.05,3.02,7.05,6.742C1027.031,40.605,1023.874,43.625,1019.981,43.625"/>
		</defs>
		<clipPath id="SVGID_9_">
			<use xlink:href="#SVGID_8_"  overflow="visible"/>
		</clipPath>
		
			<radialGradient id="SVGID_10_" cx="-1835.9458" cy="-939.0459" r="1.1982" gradientTransform="matrix(0 -8.2859 -8.665 0 -7114.3438 -15173.9414)" gradientUnits="userSpaceOnUse">
			<stop  offset="0" style="stop-color:#E0E0DF"/>
			<stop  offset="1" style="stop-color:#8DC21F"/>
		</radialGradient>
		<rect x="1012.93" y="30.139" clip-path="url(#SVGID_9_)" fill="url(#SVGID_10_)" width="14.102" height="13.486"/>
	</g>
	<g opacity="0.5" enable-background="new    ">
		<g>
			<defs>
				<rect id="SVGID_11_" x="1021.704" y="37.781" width="2.351" height="2.246"/>
			</defs>
			<clipPath id="SVGID_12_">
				<use xlink:href="#SVGID_11_"  overflow="visible"/>
			</clipPath>
			<rect x="1021.704" y="37.781" clip-path="url(#SVGID_12_)" fill="#FFFFFF" width="2.351" height="2.246"/>
		</g>
	</g>
	<g opacity="0.5" enable-background="new    ">
		<g>
			<defs>
				<rect id="SVGID_13_" x="1021.704" y="38.904" width="2.351" height="1.123"/>
			</defs>
			<clipPath id="SVGID_14_">
				<use xlink:href="#SVGID_13_"  overflow="visible"/>
			</clipPath>
			<rect x="1021.704" y="38.904" clip-path="url(#SVGID_14_)" fill="#FFFFFF" width="2.351" height="1.123"/>
		</g>
	</g>
</g>
<rect x="623.514" y="7.165" fill="none" stroke="#0F0F10" stroke-width="2" stroke-miterlimit="10" width="302.077" height="113"/>
<rect x="13.493" y="7.165" fill="none" stroke="#0F0F10" stroke-width="2" stroke-miterlimit="10" width="288.19" height="113"/>
<rect x="971.859" y="7.165" fill="none" stroke="#0F0F10" stroke-width="2" stroke-miterlimit="10" width="288.19" height="113"/>
<g>
	<g>
		<g>
			<defs>
				<path id="SVGID_15_" d="M607.688,113.374l4.372-2.115c1.146-0.555,1.942-2.443,1.942-4.602v-1.781
					c0-4.752-2.347-8.359-4.919-7.564l-6.441,1.998l0.392,14.635l1.739,0.088c0.038,0,0.076,0.002,0.115,0.002
					C605.779,114.034,606.838,113.757,607.688,113.374"/>
			</defs>
			
				<linearGradient id="SVGID_16_" gradientUnits="userSpaceOnUse" x1="1256.7021" y1="-2431.2261" x2="1273.5352" y2="-2431.2261" gradientTransform="matrix(0 -1 -1 0 -1822.9033 1370.7363)">
				<stop  offset="0" style="stop-color:#1F2020"/>
				<stop  offset="0.5255" style="stop-color:#636666"/>
				<stop  offset="0.898" style="stop-color:#343535"/>
				<stop  offset="1" style="stop-color:#515151"/>
			</linearGradient>
			<use xlink:href="#SVGID_15_"  overflow="visible" fill="url(#SVGID_16_)"/>
			<clipPath id="SVGID_17_">
				<use xlink:href="#SVGID_15_"  overflow="visible"/>
			</clipPath>
			
				<linearGradient id="SVGID_18_" gradientUnits="userSpaceOnUse" x1="-234.5264" y1="-236.4365" x2="-234.1068" y2="-237.4853" gradientTransform="matrix(-21.6016 -8.6407 -8.6407 21.6016 -6500.7969 3202.2969)">
				<stop  offset="0" style="stop-color:#1F2020"/>
				<stop  offset="0.5255" style="stop-color:#636666"/>
				<stop  offset="0.898" style="stop-color:#343535"/>
				<stop  offset="1" style="stop-color:#515151"/>
			</linearGradient>
			<polygon clip-path="url(#SVGID_17_)" fill="url(#SVGID_18_)" points="612.435,121.171 599.328,111.616 604.209,89.378 
				617.318,98.933 			"/>
		</g>
		<g>
			<defs>
				<path id="SVGID_19_" d="M607.688,15.993l4.372,2.117c1.146,0.553,1.942,2.441,1.942,4.6v1.781c0,4.754-2.347,8.361-4.919,7.566
					l-6.441-2l0.392-14.635l1.739-0.088c0.038,0,0.076-0.002,0.115-0.002C605.779,15.333,606.838,15.61,607.688,15.993"/>
			</defs>
			
				<linearGradient id="SVGID_20_" gradientUnits="userSpaceOnUse" x1="-14722.1445" y1="-2431.2261" x2="-14705.3096" y2="-2431.2261" gradientTransform="matrix(0 1 -1 0 -1822.9033 14737.4775)">
				<stop  offset="0" style="stop-color:#1F2020"/>
				<stop  offset="0.5255" style="stop-color:#636666"/>
				<stop  offset="0.898" style="stop-color:#343535"/>
				<stop  offset="1" style="stop-color:#515151"/>
			</linearGradient>
			<use xlink:href="#SVGID_19_"  overflow="visible" fill="url(#SVGID_20_)"/>
			<clipPath id="SVGID_21_">
				<use xlink:href="#SVGID_19_"  overflow="visible"/>
			</clipPath>
			
				<linearGradient id="SVGID_22_" gradientUnits="userSpaceOnUse" x1="-489.5996" y1="401.2393" x2="-489.1799" y2="400.1901" gradientTransform="matrix(-21.6016 8.6407 -8.6407 -21.6016 -6500.7969 12905.9063)">
				<stop  offset="0" style="stop-color:#1F2020"/>
				<stop  offset="0.5255" style="stop-color:#636666"/>
				<stop  offset="0.898" style="stop-color:#343535"/>
				<stop  offset="1" style="stop-color:#515151"/>
			</linearGradient>
			<polygon clip-path="url(#SVGID_21_)" fill="url(#SVGID_22_)" points="612.435,8.196 599.328,17.751 604.209,39.989 
				617.318,30.437 			"/>
		</g>
	</g>
	
		<linearGradient id="SVGID_23_" gradientUnits="userSpaceOnUse" x1="1306.0537" y1="-2419.0552" x2="1306.0537" y2="-2431.2271" gradientTransform="matrix(0 -1 -1 0 -1822.9033 1370.7363)">
		<stop  offset="0" style="stop-color:#1F2020"/>
		<stop  offset="0.5255" style="stop-color:#636666"/>
		<stop  offset="0.898" style="stop-color:#343535"/>
		<stop  offset="1" style="stop-color:#515151"/>
	</linearGradient>
	<path fill="url(#SVGID_23_)" d="M602.238,15.333c-3.361,0-6.087,2.727-6.087,6.088v86.525c0,3.361,2.726,6.086,6.087,6.086l0,0
		c3.359,0,6.085-2.725,6.085-6.086V21.421C608.323,18.06,605.598,15.333,602.238,15.333L602.238,15.333z"/>
</g>
<g>
	<g>
		<g>
			<defs>
				<path id="SVGID_24_" d="M995.752,113.374l4.373-2.115c1.145-0.555,1.942-2.443,1.942-4.602v-1.781
					c0-4.752-2.347-8.359-4.919-7.564l-6.441,1.998l0.392,14.635l1.739,0.088c0.038,0,0.076,0.002,0.115,0.002
					C993.844,114.034,994.902,113.757,995.752,113.374"/>
			</defs>
			
				<linearGradient id="SVGID_25_" gradientUnits="userSpaceOnUse" x1="1256.7021" y1="-2819.2905" x2="1273.5352" y2="-2819.2905" gradientTransform="matrix(0 -1 -1 0 -1822.9033 1370.7363)">
				<stop  offset="0" style="stop-color:#1F2020"/>
				<stop  offset="0.5255" style="stop-color:#636666"/>
				<stop  offset="0.898" style="stop-color:#343535"/>
				<stop  offset="1" style="stop-color:#515151"/>
			</linearGradient>
			<use xlink:href="#SVGID_24_"  overflow="visible" fill="url(#SVGID_25_)"/>
			<clipPath id="SVGID_26_">
				<use xlink:href="#SVGID_24_"  overflow="visible"/>
			</clipPath>
			
				<linearGradient id="SVGID_27_" gradientUnits="userSpaceOnUse" x1="-250.0127" y1="-242.6313" x2="-249.5932" y2="-243.6801" gradientTransform="matrix(-21.6016 -8.6407 -8.6407 21.6016 -6500.7969 3202.2969)">
				<stop  offset="0" style="stop-color:#1F2020"/>
				<stop  offset="0.5255" style="stop-color:#636666"/>
				<stop  offset="0.898" style="stop-color:#343535"/>
				<stop  offset="1" style="stop-color:#515151"/>
			</linearGradient>
			<polygon clip-path="url(#SVGID_26_)" fill="url(#SVGID_27_)" points="1000.5,121.171 987.393,111.616 992.273,89.378 
				1005.383,98.933 			"/>
		</g>
		<g>
			<defs>
				<path id="SVGID_28_" d="M995.752,15.993l4.373,2.117c1.145,0.553,1.942,2.441,1.942,4.6v1.781c0,4.754-2.347,8.361-4.919,7.566
					l-6.441-2l0.392-14.635l1.739-0.088c0.038,0,0.076-0.002,0.115-0.002C993.844,15.333,994.902,15.61,995.752,15.993"/>
			</defs>
			
				<linearGradient id="SVGID_29_" gradientUnits="userSpaceOnUse" x1="-14722.1445" y1="-2819.2905" x2="-14705.3096" y2="-2819.2905" gradientTransform="matrix(0 1 -1 0 -1822.9033 14737.4775)">
				<stop  offset="0" style="stop-color:#1F2020"/>
				<stop  offset="0.5255" style="stop-color:#636666"/>
				<stop  offset="0.898" style="stop-color:#343535"/>
				<stop  offset="1" style="stop-color:#515151"/>
			</linearGradient>
			<use xlink:href="#SVGID_28_"  overflow="visible" fill="url(#SVGID_29_)"/>
			<clipPath id="SVGID_30_">
				<use xlink:href="#SVGID_28_"  overflow="visible"/>
			</clipPath>
			
				<linearGradient id="SVGID_31_" gradientUnits="userSpaceOnUse" x1="-505.0859" y1="395.0449" x2="-504.6663" y2="393.9958" gradientTransform="matrix(-21.6016 8.6407 -8.6407 -21.6016 -6500.7969 12905.9063)">
				<stop  offset="0" style="stop-color:#1F2020"/>
				<stop  offset="0.5255" style="stop-color:#636666"/>
				<stop  offset="0.898" style="stop-color:#343535"/>
				<stop  offset="1" style="stop-color:#515151"/>
			</linearGradient>
			<polygon clip-path="url(#SVGID_30_)" fill="url(#SVGID_31_)" points="1000.5,8.196 987.393,17.751 992.273,39.989 
				1005.383,30.437 			"/>
		</g>
	</g>
	
		<linearGradient id="SVGID_32_" gradientUnits="userSpaceOnUse" x1="1306.0537" y1="-2807.1206" x2="1306.0537" y2="-2819.2915" gradientTransform="matrix(0 -1 -1 0 -1822.9033 1370.7363)">
		<stop  offset="0" style="stop-color:#1F2020"/>
		<stop  offset="0.5255" style="stop-color:#636666"/>
		<stop  offset="0.898" style="stop-color:#343535"/>
		<stop  offset="1" style="stop-color:#515151"/>
	</linearGradient>
	<path fill="url(#SVGID_32_)" d="M990.303,15.333c-3.362,0-6.086,2.727-6.086,6.088v86.525c0,3.361,2.724,6.086,6.086,6.086l0,0
		c3.36,0,6.085-2.725,6.085-6.086V21.421C996.388,18.06,993.663,15.333,990.303,15.333L990.303,15.333z"/>
</g>
<g>
	<g>
		<defs>
			<rect id="SVGID_33_" x="1092.679" y="24.905" width="32.852" height="59.812"/>
		</defs>
		<clipPath id="SVGID_34_">
			<use xlink:href="#SVGID_33_"  overflow="visible"/>
		</clipPath>
		
			<linearGradient id="SVGID_35_" gradientUnits="userSpaceOnUse" x1="-188.521" y1="361.4434" x2="-187.5217" y2="361.4434" gradientTransform="matrix(0 -79.8244 -79.8244 0 29961.125 -14953.0625)">
			<stop  offset="0" style="stop-color:#113577"/>
			<stop  offset="0.2581" style="stop-color:#162145"/>
			<stop  offset="1" style="stop-color:#03051D"/>
		</linearGradient>
		<rect x="1092.679" y="24.905" clip-path="url(#SVGID_34_)" fill="url(#SVGID_35_)" width="32.852" height="59.812"/>
	</g>
	<g>
		<defs>
			<path id="SVGID_36_" d="M1092.596,26.368v58.421c0,0.283,0.128,0.45,0.082,0.459h33.548c0.056-0.058,0.147-0.214,0.147-0.459
				V26.368c0-0.286-0.124-0.454-0.078-0.463l-33.521-0.02C1092.725,25.914,1092.596,26.082,1092.596,26.368"/>
		</defs>
		<clipPath id="SVGID_37_">
			<use xlink:href="#SVGID_36_"  overflow="visible"/>
		</clipPath>
		
			<linearGradient id="SVGID_38_" gradientUnits="userSpaceOnUse" x1="-182.5571" y1="358.0439" x2="-181.5576" y2="358.0439" gradientTransform="matrix(0 58.6222 58.6222 0 -19879.8438 10728.4063)">
			<stop  offset="0" style="stop-color:#2E2523"/>
			<stop  offset="1" style="stop-color:#342E2B"/>
		</linearGradient>
		<rect x="1092.596" y="25.886" clip-path="url(#SVGID_37_)" fill="url(#SVGID_38_)" width="33.777" height="59.362"/>
	</g>
	<path d="M1125.261,84.248h-31.55V26.905h31.55V84.248z M1126.295,24.905h-33.617c-0.657,0-1.197,0.654-1.197,1.463v58.421
		c0,0.808,0.54,1.459,1.197,1.459h33.617c0.66,0,1.196-0.651,1.196-1.459V26.368C1127.491,25.56,1126.955,24.905,1126.295,24.905"/>
	<path fill="#030303" d="M1121.38,76.453c0,0.578-0.354,1.043-0.791,1.043h-22.206c-0.436,0-0.791-0.465-0.791-1.043v-41.75
		c0-0.576,0.355-1.044,0.791-1.044h22.206c0.437,0,0.791,0.468,0.791,1.044V76.453z"/>
	<g>
		<defs>
			<path id="SVGID_39_" d="M1099.851,36.555c-0.38,0-0.686,0.406-0.686,0.908v18.114h20.643V37.463c0-0.502-0.308-0.908-0.686-0.908
				H1099.851z"/>
		</defs>
		<clipPath id="SVGID_40_">
			<use xlink:href="#SVGID_39_"  overflow="visible"/>
		</clipPath>
		
			<linearGradient id="SVGID_41_" gradientUnits="userSpaceOnUse" x1="-177.084" y1="354.9268" x2="-176.084" y2="354.9268" gradientTransform="matrix(0 22.6221 22.6221 0 -6919.7031 4050.6406)">
			<stop  offset="0" style="stop-color:#251C18"/>
			<stop  offset="1" style="stop-color:#524E4E"/>
		</linearGradient>
		<rect x="1099.165" y="36.555" clip-path="url(#SVGID_40_)" fill="url(#SVGID_41_)" width="20.643" height="19.022"/>
	</g>
	<path fill="#050505" d="M1099.165,55.577v18.117c0,0.502,0.307,0.905,0.685,0.905h19.273c0.378,0,0.684-0.403,0.684-0.905V55.577
		H1099.165z"/>
	<path fill="#121212" d="M1099.165,55.577v18.117c0,0.502,0.307,0.905,0.685,0.905h19.273c0.378,0,0.684-0.403,0.684-0.905V55.577
		H1099.165z"/>
	<rect x="1099.166" y="55.577" fill="#030303" width="20.642" height="0.784"/>
	<rect x="1107.978" y="41.502" fill="#4D4D4D" width="2.254" height="9.13"/>
	
		<ellipse fill="none" stroke="#4D4D4D" stroke-width="0.783" stroke-miterlimit="10" cx="1109.542" cy="65.134" rx="1.784" ry="1.601"/>
</g>
<text transform="matrix(1 0 0 1 1097.5918 20.333)" fill="#D7D7D8" font-family="'SimHei'" font-size="7.5">STATUS</text>
<text transform="matrix(1 0 0 1 1136.3418 33.6592)" fill="#D7D7D8" font-family="'SimHei'" font-size="7.5">ON</text>
<text transform="matrix(1 0 0 1 1136.3418 99.1592)" fill="#D7D7D8" font-family="'SimHei'" font-size="7.5">OFF</text>
</svg>
