<?xml version="1.0" encoding="utf-8"?>
<!-- Generator: Adobe Illustrator 16.0.0, SVG Export Plug-In . SVG Version: 6.00 Build 0)  -->
<!DOCTYPE svg PUBLIC "-//W3C//DTD SVG 1.1//EN" "http://www.w3.org/Graphics/SVG/1.1/DTD/svg11.dtd">
<svg version="1.1" id="图层_1" xmlns="http://www.w3.org/2000/svg" xmlns:xlink="http://www.w3.org/1999/xlink" x="0px" y="0px"
	 width="1275.59px" height="126.142px" viewBox="0 0 1275.59 126.142" enable-background="new 0 0 1275.59 126.142"
	 xml:space="preserve">
<rect fill="#CCCDCE" width="1275.59" height="126.141"/>
<g>
	<rect fill="#0A1422" width="1275.59" height="3"/>
	<rect y="2" fill="#040204" width="1275.59" height="1"/>
</g>
<g>
	<rect y="123.146" fill="#0A1422" width="1275.59" height="3"/>
	<rect y="123.146" fill="#040204" width="1275.59" height="1"/>
</g>
<g>
	<rect y="0.005" fill="#0A1422" width="53.295" height="126.142"/>
	<rect x="35.53" y="0.005" fill="#040204" width="17.765" height="126.142"/>
</g>
<g>
	<rect x="1272.59" fill="#0A1422" width="3" height="126.141"/>
	<rect x="1272.59" fill="#040204" width="1" height="126.141"/>
</g>
<g>
	<path fill="#FFFFFF" d="M10.014,7.284h2.991V4.893h1.343v5.899h-1.343V8.326h-2.991v2.466H8.668V4.893h1.345V7.284z"/>
	<path fill="#FFFFFF" d="M16.784,8.426c0,1.043,0.33,1.478,1.44,1.478c1.11,0,1.43-0.434,1.43-1.478V4.893h1.346v3.565
		c0,0.755-0.092,1.272-0.375,1.586c-0.525,0.574-1.292,0.813-2.402,0.813c-1.111,0-1.885-0.238-2.41-0.813
		c-0.292-0.32-0.364-0.838-0.364-1.586V4.893h1.334V8.426z"/>
	<path fill="#FFFFFF" d="M25.389,4.893l2.721,5.899h-1.495l-0.587-1.404h-2.773l-0.569,1.404h-1.422l2.702-5.899H25.389z
		 M23.689,8.335h1.903l-0.967-2.267L23.689,8.335z"/>
	<path fill="#FFFFFF" d="M28.72,4.893l1.477,4.536l1.245-4.536h1.584l1.43,4.536l1.38-4.536h1.376l-1.972,5.899h-1.646l-1.361-4.403
		l-1.19,4.403h-1.636l-2.127-5.899H28.72z"/>
	<path fill="#FFFFFF" d="M39.021,7.292h3.716v1.026h-3.724c0.008,1.06,0.461,1.445,1.519,1.445h2.206v1.028H40.47
		c-0.772,0-1.368-0.059-1.99-0.519c-0.658-0.484-0.977-1.257-0.977-2.324c0-2.086,0.95-3.057,3.004-3.057h2.23V5.92h-2.206
		C39.564,5.92,39.074,6.363,39.021,7.292z"/>
	<path fill="#FFFFFF" d="M43.921,10.792V4.893h1.406v5.899H43.921z"/>
</g>
<circle fill="#A1D090" cx="37.404" cy="26.637" r="3"/>
<text transform="matrix(1 0 0 1 14.1538 28.5938)" fill="#FDFDFE" font-family="'NotoSansHans-Medium-GBpc-EUC-H'" font-size="6.5351">pwre1</text>
<circle fill="#A1D090" cx="37.404" cy="37.637" r="3"/>
<text transform="matrix(1 0 0 1 14.1538 39.5938)" fill="#FDFDFE" font-family="'NotoSansHans-Medium-GBpc-EUC-H'" font-size="6.5351">pwre2</text>
<circle fill="#A1D090" cx="37.404" cy="48.431" r="3"/>
<text transform="matrix(1 0 0 1 14.1538 50.3877)" fill="#FDFDFE" font-family="'NotoSansHans-Medium-GBpc-EUC-H'" font-size="6.5351">SYS</text>
<circle fill="#A1D090" cx="37.404" cy="58.932" r="3"/>
<text transform="matrix(1 0 0 1 14.1538 60.8887)" fill="#FDFDFE" font-family="'NotoSansHans-Medium-GBpc-EUC-H'" font-size="6.5351">STAT</text>
<path fill="#C2C1C1" stroke="#1D1D1D" stroke-width="0.8" stroke-miterlimit="10" d="M303.119,104.852c0,1.592-1.343,2.883-3,2.883
	H61.452c-1.657,0-3-1.291-3-2.883V10.727c0-1.593,1.343-2.885,3-2.885h238.667c1.657,0,3,1.292,3,2.885V104.852z"/>
<path fill="#76B1CA" d="M303.119,14.875v-4.001c0-1.657-1.343-3-3-3H61.452c-1.657,0-3,1.343-3,3v4.001H303.119z"/>
<text transform="matrix(1 0 0 1 66.1201 12.7354)" fill="#040000" font-family="'NotoSansHans-Medium-GBpc-EUC-H'" font-size="5">1</text>
<text transform="matrix(1 0 0 1 86.6655 12.7354)" fill="#040000" font-family="'NotoSansHans-Medium-GBpc-EUC-H'" font-size="5">2</text>
<text transform="matrix(1 0 0 1 107.2104 12.7354)" fill="#040000" font-family="'NotoSansHans-Medium-GBpc-EUC-H'" font-size="5">3</text>
<text transform="matrix(1 0 0 1 127.7559 12.7354)" fill="#040000" font-family="'NotoSansHans-Medium-GBpc-EUC-H'" font-size="5">4</text>
<text transform="matrix(1 0 0 1 148.3008 12.7354)" fill="#040000" font-family="'NotoSansHans-Medium-GBpc-EUC-H'" font-size="5">5</text>
<text transform="matrix(1 0 0 1 168.8462 12.7354)" fill="#040000" font-family="'NotoSansHans-Medium-GBpc-EUC-H'" font-size="5">6</text>
<text transform="matrix(1 0 0 1 189.3911 12.7354)" fill="#040000" font-family="'NotoSansHans-Medium-GBpc-EUC-H'" font-size="5">7</text>
<text transform="matrix(1 0 0 1 209.9365 12.7354)" fill="#040000" font-family="'NotoSansHans-Medium-GBpc-EUC-H'" font-size="5">8</text>
<text transform="matrix(1 0 0 1 230.4819 12.7354)" fill="#040000" font-family="'NotoSansHans-Medium-GBpc-EUC-H'" font-size="5">9</text>
<text transform="matrix(1 0 0 1 251.0269 12.7354)" fill="#040000" font-family="'NotoSansHans-Medium-GBpc-EUC-H'" font-size="5">10</text>
<text transform="matrix(1 0 0 1 271.5723 12.7354)" fill="#040000" font-family="'NotoSansHans-Medium-GBpc-EUC-H'" font-size="5">11</text>
<text transform="matrix(1 0 0 1 292.1172 12.7354)" fill="#040000" font-family="'NotoSansHans-Medium-GBpc-EUC-H'" font-size="5">12</text>
<polygon fill="#84C145" stroke="#20221F" stroke-width="0.1" stroke-miterlimit="10" points="70.926,16.621 67.45,22.642 
	63.974,16.621 "/>
<polygon fill="#84C145" stroke="#20221F" stroke-width="0.1" stroke-miterlimit="10" points="84.641,22.641 88.117,16.62 
	91.593,22.641 "/>
<g>
	<polygon fill="#84C145" stroke="#20221F" stroke-width="0.1" stroke-miterlimit="10" points="112.025,16.621 108.549,22.642 
		105.073,16.621 	"/>
	<polygon fill="#84C145" stroke="#20221F" stroke-width="0.1" stroke-miterlimit="10" points="125.739,22.641 129.215,16.62 
		132.691,22.641 	"/>
</g>
<g>
	<polygon fill="#84C145" stroke="#20221F" stroke-width="0.1" stroke-miterlimit="10" points="153.124,16.621 149.647,22.642 
		146.171,16.621 	"/>
	<polygon fill="#84C145" stroke="#20221F" stroke-width="0.1" stroke-miterlimit="10" points="166.838,22.641 170.314,16.62 
		173.79,22.641 	"/>
</g>
<g>
	<polygon fill="#84C145" stroke="#20221F" stroke-width="0.1" stroke-miterlimit="10" points="194.222,16.621 190.746,22.642 
		187.271,16.621 	"/>
	<polygon fill="#84C145" stroke="#20221F" stroke-width="0.1" stroke-miterlimit="10" points="207.937,22.641 211.413,16.62 
		214.889,22.641 	"/>
</g>
<g>
	<polygon fill="#84C145" stroke="#20221F" stroke-width="0.1" stroke-miterlimit="10" points="235.321,16.621 231.845,22.642 
		228.369,16.621 	"/>
	<polygon fill="#84C145" stroke="#20221F" stroke-width="0.1" stroke-miterlimit="10" points="249.035,22.641 252.511,16.62 
		255.987,22.641 	"/>
</g>
<g>
	<polygon fill="#171817" stroke="#20221F" stroke-width="0.1" stroke-miterlimit="10" points="276.419,16.621 272.943,22.642 
		269.467,16.621 	"/>
	<polygon fill="#171817" stroke="#20221F" stroke-width="0.1" stroke-miterlimit="10" points="290.134,22.641 293.61,16.62 
		297.086,22.641 	"/>
</g>
<rect x="58.452" y="34.637" fill="#212222" stroke="#040000" stroke-width="1.5" stroke-miterlimit="10" width="244.667" height="73.098"/>
<path fill="#C2C1C1" stroke="#1D1D1D" stroke-width="0.8" stroke-miterlimit="10" d="M974.078,104.469
	c0,0.877-0.907,1.59-2.025,1.59H810.884c-1.118,0-2.025-0.713-2.025-1.59V52.576c0-0.878,0.907-1.59,2.025-1.59h161.169
	c1.118,0,2.025,0.712,2.025,1.59V104.469z"/>
<path fill="#AABC49" d="M973.913,58.381V54.38c0-1.657-0.906-3-2.025-3H810.719c-1.119,0-2.025,1.343-2.025,3v4.001H973.913z"/>
<text transform="matrix(1 0 0 1 828.0654 55.8809)" fill="#040000" font-family="'NotoSansHans-Medium-GBpc-EUC-H'" font-size="5">14</text>
<polygon fill="#151209" points="827.041,59.765 830.517,65.785 833.993,59.765 "/>
<text transform="matrix(1 0 0 1 867.7627 55.8809)" fill="#040000" font-family="'NotoSansHans-Medium-GBpc-EUC-H'" font-size="5">14</text>
<polygon fill="#151209" points="866.738,59.765 870.214,65.785 873.69,59.765 "/>
<text transform="matrix(1 0 0 1 907.46 55.8809)" fill="#040000" font-family="'NotoSansHans-Medium-GBpc-EUC-H'" font-size="5">14</text>
<polygon fill="#151209" points="906.436,59.765 909.911,65.785 913.388,59.765 "/>
<text transform="matrix(1 0 0 1 949.1465 55.8809)" fill="#040000" font-family="'NotoSansHans-Medium-GBpc-EUC-H'" font-size="5">14</text>
<polygon fill="#151209" points="948.122,59.765 951.598,65.785 955.074,59.765 "/>
<polygon fill="#F3EC30" stroke="#22221F" stroke-width="0.1" stroke-miterlimit="10" points="1028.219,54.856 1034.239,51.38 
	1028.219,47.904 "/>
<polygon fill="#151209" points="1028.219,84.063 1034.239,80.588 1028.219,77.111 "/>
<polygon fill="#151209" points="1012.086,77.576 1015.562,83.598 1019.038,77.576 "/>
<polygon fill="#151209" points="1100.5,31.626 1103.976,37.647 1107.452,31.626 "/>
<rect x="808.858" y="71.391" fill="#212222" stroke="#040000" stroke-width="1.5" stroke-miterlimit="10" width="165.22" height="34.666"/>
<path fill="#C2C1C1" stroke="#1D1D1D" stroke-width="0.8" stroke-miterlimit="10" d="M658.087,104.852
	c0,1.592-0.455,2.883-1.017,2.883h-80.857c-0.562,0-1.016-1.291-1.016-2.883V10.727c0-1.593,0.455-2.885,1.016-2.885h80.857
	c0.562,0,1.017,1.292,1.017,2.885V104.852z"/>
<path fill="#76B1CA" d="M658.086,14.875v-4.001c0-1.657-0.454-3-1.017-3h-80.856c-0.562,0-1.017,1.343-1.017,3v4.001H658.086z"/>
<text transform="matrix(1 0 0 1 582.8647 12.7354)" fill="#040000" font-family="'NotoSansHans-Medium-GBpc-EUC-H'" font-size="5">25</text>
<text transform="matrix(1 0 0 1 603.4102 12.7354)" fill="#040000" font-family="'NotoSansHans-Medium-GBpc-EUC-H'" font-size="5">26</text>
<text transform="matrix(1 0 0 1 623.9551 12.7354)" fill="#040000" font-family="'NotoSansHans-Medium-GBpc-EUC-H'" font-size="5">27</text>
<text transform="matrix(1 0 0 1 644.5 12.7354)" fill="#040000" font-family="'NotoSansHans-Medium-GBpc-EUC-H'" font-size="5">28</text>
<polygon fill="#84C145" stroke="#20221F" stroke-width="0.1" stroke-miterlimit="10" points="587.671,16.621 584.194,22.642 
	580.719,16.621 "/>
<polygon fill="#84C145" stroke="#20221F" stroke-width="0.1" stroke-miterlimit="10" points="601.386,22.641 604.861,16.62 
	608.338,22.641 "/>
<g>
	<polygon fill="#84C145" stroke="#20221F" stroke-width="0.1" stroke-miterlimit="10" points="628.77,16.621 625.294,22.642 
		621.817,16.621 	"/>
	<polygon fill="#84C145" stroke="#20221F" stroke-width="0.1" stroke-miterlimit="10" points="642.484,22.641 645.96,16.62 
		649.437,22.641 	"/>
</g>
<rect x="575.197" y="34.637" fill="#212222" stroke="#040000" stroke-width="1.5" stroke-miterlimit="10" width="82.889" height="73.098"/>
<path fill="#C2C1C1" stroke="#1D1D1D" stroke-width="0.8" stroke-miterlimit="10" d="M755.177,104.852
	c0,1.592-0.455,2.883-1.017,2.883h-80.856c-0.562,0-1.017-1.291-1.017-2.883V10.727c0-1.593,0.455-2.885,1.017-2.885h80.856
	c0.562,0,1.017,1.292,1.017,2.885V104.852z"/>
<path fill="#76B1CA" d="M755.177,14.875v-4.001c0-1.657-0.455-3-1.017-3h-80.856c-0.562,0-1.017,1.343-1.017,3v4.001H755.177z"/>
<text transform="matrix(1 0 0 1 679.9551 12.7354)" fill="#040000" font-family="'NotoSansHans-Medium-GBpc-EUC-H'" font-size="5">29</text>
<text transform="matrix(1 0 0 1 700.5 12.7354)" fill="#040000" font-family="'NotoSansHans-Medium-GBpc-EUC-H'" font-size="5">30</text>
<text transform="matrix(1 0 0 1 721.0449 12.7354)" fill="#040000" font-family="'NotoSansHans-Medium-GBpc-EUC-H'" font-size="5">31</text>
<text transform="matrix(1 0 0 1 741.5908 12.7354)" fill="#040000" font-family="'NotoSansHans-Medium-GBpc-EUC-H'" font-size="5">32</text>
<polygon fill="#84C145" stroke="#20221F" stroke-width="0.1" stroke-miterlimit="10" points="684.761,16.621 681.285,22.642 
	677.81,16.621 "/>
<polygon fill="#84C145" stroke="#20221F" stroke-width="0.1" stroke-miterlimit="10" points="698.476,22.641 701.952,16.62 
	705.428,22.641 "/>
<g>
	<polygon fill="#84C145" stroke="#20221F" stroke-width="0.1" stroke-miterlimit="10" points="725.86,16.621 722.384,22.642 
		718.908,16.621 	"/>
	<polygon fill="#84C145" stroke="#20221F" stroke-width="0.1" stroke-miterlimit="10" points="739.574,22.641 743.051,16.62 
		746.526,22.641 	"/>
</g>
<rect x="672.287" y="34.637" fill="#212222" stroke="#040000" stroke-width="1.5" stroke-miterlimit="10" width="82.889" height="73.098"/>
<g>
	<g>
		<polygon fill="#040000" points="792.193,15.626 797.171,12.954 802.149,15.626 802.149,20.971 797.171,23.643 792.193,20.971 		
			"/>
		<polygon fill="#040000" points="804.829,15.626 809.808,12.954 814.785,15.626 814.785,20.971 809.808,23.643 804.829,20.971 		
			"/>
		<polygon fill="#040000" points="817.466,15.626 822.443,12.954 827.422,15.626 827.422,20.971 822.443,23.643 817.466,20.971 		
			"/>
		<polygon fill="#040000" points="830.102,15.626 835.079,12.954 840.058,15.626 840.058,20.971 835.079,23.643 830.102,20.971 		
			"/>
		<polygon fill="#040000" points="842.738,15.626 847.716,12.954 852.694,15.626 852.694,20.971 847.716,23.643 842.738,20.971 		
			"/>
		<polygon fill="#040000" points="855.374,15.626 860.353,12.954 865.33,15.626 865.33,20.971 860.353,23.643 855.374,20.971 		"/>
		<polygon fill="#040000" points="868.011,15.626 872.988,12.954 877.967,15.626 877.967,20.971 872.988,23.643 868.011,20.971 		
			"/>
		<polygon fill="#040000" points="880.646,15.626 885.624,12.954 890.603,15.626 890.603,20.971 885.624,23.643 880.646,20.971 		
			"/>
		<polygon fill="#040000" points="893.283,15.626 898.261,12.954 903.239,15.626 903.239,20.971 898.261,23.643 893.283,20.971 		
			"/>
		<polygon fill="#040000" points="905.919,15.626 910.897,12.954 915.875,15.626 915.875,20.971 910.897,23.643 905.919,20.971 		
			"/>
		<polygon fill="#040000" points="918.556,15.626 923.533,12.954 928.512,15.626 928.512,20.971 923.533,23.643 918.556,20.971 		
			"/>
		<polygon fill="#040000" points="931.191,15.626 936.17,12.954 941.147,15.626 941.147,20.971 936.17,23.643 931.191,20.971 		"/>
		<polygon fill="#040000" points="943.828,15.626 948.806,12.954 953.784,15.626 953.784,20.971 948.806,23.643 943.828,20.971 		
			"/>
		<polygon fill="#040000" points="956.464,15.626 961.442,12.954 966.421,15.626 966.421,20.971 961.442,23.643 956.464,20.971 		
			"/>
		<polygon fill="#040000" points="969.101,15.626 974.078,12.954 979.057,15.626 979.057,20.971 974.078,23.643 969.101,20.971 		
			"/>
		<polygon fill="#040000" points="981.737,15.626 986.715,12.954 991.693,15.626 991.693,20.971 986.715,23.643 981.737,20.971 		
			"/>
		<polygon fill="#040000" points="994.373,15.626 999.351,12.954 1004.329,15.626 1004.329,20.971 999.351,23.643 994.373,20.971 		
			"/>
	</g>
	<polygon fill="#040000" points="798.372,27.959 803.35,25.287 808.328,27.959 808.328,33.304 803.35,35.977 798.372,33.304 	"/>
	<polygon fill="#040000" points="811.009,27.959 815.986,25.287 820.964,27.959 820.964,33.304 815.986,35.977 811.009,33.304 	"/>
	<polygon fill="#040000" points="823.645,27.959 828.622,25.287 833.601,27.959 833.601,33.304 828.622,35.977 823.645,33.304 	"/>
	<polygon fill="#040000" points="836.28,27.959 841.259,25.287 846.237,27.959 846.237,33.304 841.259,35.977 836.28,33.304 	"/>
	<polygon fill="#040000" points="848.917,27.959 853.895,25.287 858.873,27.959 858.873,33.304 853.895,35.977 848.917,33.304 	"/>
	<polygon fill="#040000" points="861.554,27.959 866.531,25.287 871.51,27.959 871.51,33.304 866.531,35.977 861.554,33.304 	"/>
	<polygon fill="#040000" points="874.189,27.959 879.167,25.287 884.146,27.959 884.146,33.304 879.167,35.977 874.189,33.304 	"/>
	<polygon fill="#040000" points="886.826,27.959 891.804,25.287 896.782,27.959 896.782,33.304 891.804,35.977 886.826,33.304 	"/>
	<polygon fill="#040000" points="899.462,27.959 904.44,25.287 909.418,27.959 909.418,33.304 904.44,35.977 899.462,33.304 	"/>
	<polygon fill="#040000" points="912.099,27.959 917.076,25.287 922.055,27.959 922.055,33.304 917.076,35.977 912.099,33.304 	"/>
	<polygon fill="#040000" points="924.734,27.959 929.712,25.287 934.69,27.959 934.69,33.304 929.712,35.977 924.734,33.304 	"/>
	<polygon fill="#040000" points="937.371,27.959 942.349,25.287 947.327,27.959 947.327,33.304 942.349,35.977 937.371,33.304 	"/>
	<polygon fill="#040000" points="950.007,27.959 954.985,25.287 959.964,27.959 959.964,33.304 954.985,35.977 950.007,33.304 	"/>
	<polygon fill="#040000" points="962.644,27.959 967.621,25.287 972.6,27.959 972.6,33.304 967.621,35.977 962.644,33.304 	"/>
	<polygon fill="#040000" points="975.279,27.959 980.257,25.287 985.235,27.959 985.235,33.304 980.257,35.977 975.279,33.304 	"/>
	<polygon fill="#040000" points="987.916,27.959 992.894,25.287 997.872,27.959 997.872,33.304 992.894,35.977 987.916,33.304 	"/>
	<g>
		<polygon fill="#040000" points="792.193,40.293 797.171,37.621 802.149,40.293 802.149,45.638 797.171,48.31 792.193,45.638 		"/>
		<polygon fill="#040000" points="804.829,40.293 809.808,37.621 814.785,40.293 814.785,45.638 809.808,48.31 804.829,45.638 		"/>
		<polygon fill="#040000" points="817.466,40.293 822.443,37.621 827.422,40.293 827.422,45.638 822.443,48.31 817.466,45.638 		"/>
		<polygon fill="#040000" points="830.102,40.293 835.079,37.621 840.058,40.293 840.058,45.638 835.079,48.31 830.102,45.638 		"/>
		<polygon fill="#040000" points="842.738,40.293 847.716,37.621 852.694,40.293 852.694,45.638 847.716,48.31 842.738,45.638 		"/>
		<polygon fill="#040000" points="855.374,40.293 860.353,37.621 865.33,40.293 865.33,45.638 860.353,48.31 855.374,45.638 		"/>
		<polygon fill="#040000" points="868.011,40.293 872.988,37.621 877.967,40.293 877.967,45.638 872.988,48.31 868.011,45.638 		"/>
		<polygon fill="#040000" points="880.646,40.293 885.624,37.621 890.603,40.293 890.603,45.638 885.624,48.31 880.646,45.638 		"/>
		<polygon fill="#040000" points="893.283,40.293 898.261,37.621 903.239,40.293 903.239,45.638 898.261,48.31 893.283,45.638 		"/>
		<polygon fill="#040000" points="905.919,40.293 910.897,37.621 915.875,40.293 915.875,45.638 910.897,48.31 905.919,45.638 		"/>
		<polygon fill="#040000" points="918.556,40.293 923.533,37.621 928.512,40.293 928.512,45.638 923.533,48.31 918.556,45.638 		"/>
		<polygon fill="#040000" points="931.191,40.293 936.17,37.621 941.147,40.293 941.147,45.638 936.17,48.31 931.191,45.638 		"/>
		<polygon fill="#040000" points="943.828,40.293 948.806,37.621 953.784,40.293 953.784,45.638 948.806,48.31 943.828,45.638 		"/>
		<polygon fill="#040000" points="956.464,40.293 961.442,37.621 966.421,40.293 966.421,45.638 961.442,48.31 956.464,45.638 		"/>
		<polygon fill="#040000" points="969.101,40.293 974.078,37.621 979.057,40.293 979.057,45.638 974.078,48.31 969.101,45.638 		"/>
		<polygon fill="#040000" points="981.737,40.293 986.715,37.621 991.693,40.293 991.693,45.638 986.715,48.31 981.737,45.638 		"/>
		<polygon fill="#040000" points="994.373,40.293 999.351,37.621 1004.329,40.293 1004.329,45.638 999.351,48.31 994.373,45.638 		
			"/>
	</g>
</g>
<path fill="none" stroke="#0A090A" stroke-miterlimit="10" d="M1015.562,79.008V53.986c0-1.657,1.143-3,2.551-3h10.106"/>
<path fill="#9F9E99" stroke="#202020" stroke-miterlimit="10" d="M1085.452,111.4c0,1.658-1.343,3-3,3h-33c-1.656,0-3-1.342-3-3
	V19.621c0-1.657,1.344-3,3-3h33c1.657,0,3,1.343,3,3V111.4z"/>
<g>
	<path fill="#D2ADB1" d="M1085.452,23.622v-4.001c0-1.657-2.215-3-2.479-3h-34.04c-0.265,0-2.48,1.343-2.48,3v4.001H1085.452z"/>
	<rect x="1046.452" y="23.622" fill="#222222" width="39" height="0.561"/>
</g>
<g>
	<path fill="#D2ADB1" d="M1085.452,107.619v4.002c0,1.656-2.215,3-2.479,3h-34.04c-0.265,0-2.48-1.344-2.48-3v-4.002H1085.452z"/>
	<rect x="1046.452" y="107.059" fill="#222222" width="39" height="0.561"/>
</g>
<path fill="#D2ADB1" stroke="#1D1D1D" stroke-miterlimit="10" d="M1034.239,111.621c0,1.656-1.344,3-3,3h-31.787
	c-1.657,0-3-1.344-3-3V91.725c0-1.658,1.343-3,3-3h31.787c1.656,0,3,1.342,3,3V111.621z"/>
<text transform="matrix(1 0 0 1 1060.7021 112.9014)" font-family="'NotoSansHans-Medium-GBpc-EUC-H'" font-size="5">ETH</text>
<text transform="matrix(1 0 0 1 1002.3281 111.4092)" font-family="'NotoSansHans-Medium-GBpc-EUC-H'" font-size="5.4693">CONSOLE</text>
</svg>
