<?xml version="1.0" encoding="utf-8"?>
<!-- Generator: Adobe Illustrator 16.0.0, SVG Export Plug-In . SVG Version: 6.00 Build 0)  -->
<!DOCTYPE svg PUBLIC "-//W3C//DTD SVG 1.1//EN" "http://www.w3.org/Graphics/SVG/1.1/DTD/svg11.dtd">
<svg version="1.1" id="图层_1" xmlns="http://www.w3.org/2000/svg" xmlns:xlink="http://www.w3.org/1999/xlink" x="0px" y="0px"
	 width="1275.59px" height="126.14px" viewBox="0 0 1275.59 126.14" enable-background="new 0 0 1275.59 126.14"
	 xml:space="preserve">
<rect fill="#CECECF" width="1275.589" height="126.143"/>
<g>
	<rect x="44.052" y="0.001" fill="#040000" width="4.2" height="126.142"/>
	<path fill="#3F3F3F" d="M44.68,124.143c0,1.105-0.541,2-1.207,2H1.207c-0.667,0-1.207-0.895-1.207-2V2.001c0-1.105,0.541-2,1.207-2
		h42.266c0.667,0,1.207,0.895,1.207,2V124.143z"/>
</g>
<rect x="1268.513" fill="#040000" width="0.616" height="126.141"/>
<path fill="#3F3F3F" d="M1269.037,124.141c0,1.105,0.079,2,0.177,2h6.198c0.098,0,0.177-0.895,0.177-2V2c0-1.105-0.079-2-0.177-2
	h-6.198c-0.098,0-0.177,0.895-0.177,2V124.141z"/>
<rect x="906.108" y="39.438" fill="#A2A2A2" width="153" height="52.313"/>
<text transform="matrix(1 0 0 1 924.6709 76.2822)" font-family="'NotoSansHans-Bold-GBpc-EUC-H'" font-size="25.9547">交 换 机 A</text>
<rect x="48.252" y="0.001" fill="#373838" width="1227.337" height="7.607"/>
<rect x="48.252" y="118.535" fill="#373838" width="1227.337" height="7.607"/>
<path fill="#EFE9DC" stroke="#050101" stroke-width="2" stroke-miterlimit="10" d="M303.698,106.039c0,0.525-0.443,0.949-0.99,0.949
	H53.157c-0.547,0-0.99-0.424-0.99-0.949V11.02c0-0.525,0.443-0.95,0.99-0.95h249.551c0.547,0,0.99,0.425,0.99,0.95V106.039z"/>
<path fill="#7697B5" d="M302.745,16.509c0,0.68-0.433,1.229-0.967,1.229H53.998c-0.534,0-0.967-0.549-0.967-1.229v-4.263
	c0-0.678,0.433-1.228,0.967-1.228h247.78c0.534,0,0.967,0.55,0.967,1.228V16.509z"/>
<g>
	<polygon fill="#040000" points="67.783,13.655 65.814,17.156 63.845,13.655 	"/>
	<polygon fill="#040000" points="78.933,17.155 80.902,13.654 82.871,17.155 	"/>
</g>
<g>
	<polygon fill="#040000" points="109.487,13.655 107.519,17.156 105.55,13.655 	"/>
	<polygon fill="#040000" points="120.638,17.155 122.606,13.654 124.576,17.155 	"/>
</g>
<g>
	<polygon fill="#040000" points="150.707,13.655 148.738,17.156 146.769,13.655 	"/>
	<polygon fill="#040000" points="161.857,17.155 163.825,13.654 165.794,17.155 	"/>
</g>
<g>
	<polygon fill="#040000" points="192.899,13.655 190.931,17.156 188.962,13.655 	"/>
	<polygon fill="#040000" points="204.05,17.155 206.019,13.654 207.988,17.155 	"/>
</g>
<g>
	<polygon fill="#040000" points="234.119,13.656 232.15,17.157 230.181,13.656 	"/>
	<polygon fill="#040000" points="245.269,17.156 247.237,13.655 249.207,17.156 	"/>
</g>
<g>
	<polygon fill="#040000" points="276.312,13.656 274.343,17.157 272.374,13.656 	"/>
	<polygon fill="#040000" points="287.462,17.156 289.431,13.655 291.4,17.156 	"/>
</g>
<path fill="#EFE9DC" stroke="#050101" stroke-width="2" stroke-miterlimit="10" d="M562.692,106.039c0,0.525-0.443,0.949-0.99,0.949
	H312.151c-0.547,0-0.99-0.424-0.99-0.949V11.02c0-0.525,0.443-0.95,0.99-0.95h249.551c0.547,0,0.99,0.425,0.99,0.95V106.039z"/>
<path fill="#7697B5" d="M561.739,16.509c0,0.68-0.433,1.229-0.966,1.229H312.992c-0.534,0-0.966-0.549-0.966-1.229v-4.263
	c0-0.678,0.433-1.228,0.966-1.228h247.781c0.534,0,0.966,0.55,0.966,1.228V16.509z"/>
<g>
	<polygon fill="#040000" points="326.777,13.655 324.808,17.156 322.839,13.655 	"/>
	<polygon fill="#040000" points="337.927,17.155 339.896,13.654 341.865,17.155 	"/>
</g>
<g>
	<polygon fill="#040000" points="368.481,13.655 366.513,17.156 364.543,13.655 	"/>
	<polygon fill="#040000" points="379.632,17.155 381.601,13.654 383.57,17.155 	"/>
</g>
<g>
	<polygon fill="#040000" points="409.7,13.655 407.731,17.156 405.763,13.655 	"/>
	<polygon fill="#040000" points="420.851,17.155 422.819,13.654 424.789,17.155 	"/>
</g>
<g>
	<polygon fill="#040000" points="451.894,13.655 449.925,17.156 447.956,13.655 	"/>
	<polygon fill="#040000" points="463.044,17.155 465.013,13.654 466.981,17.155 	"/>
</g>
<g>
	<polygon fill="#040000" points="493.112,13.656 491.144,17.157 489.175,13.656 	"/>
	<polygon fill="#040000" points="504.263,17.156 506.231,13.655 508.201,17.156 	"/>
</g>
<g>
	<polygon fill="#040000" points="535.306,13.656 533.337,17.157 531.368,13.656 	"/>
	<polygon fill="#040000" points="546.456,17.156 548.425,13.655 550.394,17.156 	"/>
</g>
<path fill="#EFE9DC" stroke="#050101" stroke-width="2" stroke-miterlimit="10" d="M821.686,106.039c0,0.525-0.443,0.949-0.99,0.949
	h-249.55c-0.547,0-0.99-0.424-0.99-0.949V11.02c0-0.525,0.443-0.95,0.99-0.95h249.55c0.547,0,0.99,0.425,0.99,0.95V106.039z"/>
<path fill="#7697B5" d="M820.732,16.509c0,0.68-0.433,1.229-0.967,1.229h-247.78c-0.534,0-0.967-0.549-0.967-1.229v-4.263
	c0-0.678,0.433-1.228,0.967-1.228h247.78c0.534,0,0.967,0.55,0.967,1.228V16.509z"/>
<g>
	<polygon fill="#040000" points="585.771,13.655 583.802,17.156 581.833,13.655 	"/>
	<polygon fill="#040000" points="596.921,17.155 598.89,13.654 600.859,17.155 	"/>
</g>
<g>
	<polygon fill="#040000" points="627.476,13.655 625.507,17.156 623.537,13.655 	"/>
	<polygon fill="#040000" points="638.625,17.155 640.594,13.654 642.563,17.155 	"/>
</g>
<g>
	<polygon fill="#040000" points="668.694,13.655 666.726,17.156 664.756,13.655 	"/>
	<polygon fill="#040000" points="679.845,17.155 681.813,13.654 683.782,17.155 	"/>
</g>
<g>
	<polygon fill="#040000" points="710.887,13.655 708.919,17.156 706.949,13.655 	"/>
	<polygon fill="#040000" points="722.037,17.155 724.006,13.654 725.976,17.155 	"/>
</g>
<g>
	<polygon fill="#040000" points="752.106,13.656 750.138,17.157 748.168,13.656 	"/>
	<polygon fill="#040000" points="763.257,17.156 765.226,13.655 767.194,17.156 	"/>
</g>
<g>
	<polygon fill="#040000" points="794.299,13.656 792.33,17.157 790.361,13.656 	"/>
	<polygon fill="#040000" points="805.449,17.156 807.418,13.655 809.388,17.156 	"/>
</g>
<path fill="#EFE9DC" stroke="#050101" stroke-width="2" stroke-miterlimit="10" d="M1080.68,106.039c0,0.525-0.443,0.949-0.99,0.949
	H830.139c-0.547,0-0.99-0.424-0.99-0.949V11.02c0-0.525,0.443-0.95,0.99-0.95h249.551c0.547,0,0.99,0.425,0.99,0.95V106.039z"/>
<rect x="1141.737" y="17.342" fill="#C0939D" stroke="#101010" stroke-miterlimit="10" width="38.916" height="35.051"/>
<rect x="1176.722" y="17.737" fill="#C0939D" width="38.916" height="29.576"/>
<rect x="1207.057" y="8.452" fill="#C0939D" width="44.792" height="39.254"/>
<rect x="1143.846" y="27.447" fill="#060001" width="31.999" height="21.531"/>
<path fill="#7697B5" d="M1079.727,16.509c0,0.68-0.433,1.229-0.967,1.229h-247.78c-0.534,0-0.966-0.549-0.966-1.229v-4.263
	c0-0.678,0.432-1.228,0.966-1.228h247.78c0.534,0,0.967,0.55,0.967,1.228V16.509z"/>
<g>
	<polygon fill="#040000" points="844.765,13.655 842.796,17.156 840.826,13.655 	"/>
	<polygon fill="#040000" points="855.915,17.155 857.884,13.654 859.853,17.155 	"/>
</g>
<g>
	<polygon fill="#040000" points="886.469,13.655 884.5,17.156 882.531,13.655 	"/>
	<polygon fill="#040000" points="897.619,17.155 899.588,13.654 901.558,17.155 	"/>
</g>
<g>
	<polygon fill="#040000" points="927.688,13.655 925.72,17.156 923.75,13.655 	"/>
	<polygon fill="#040000" points="938.839,17.155 940.807,13.654 942.776,17.155 	"/>
</g>
<g>
	<polygon fill="#040000" points="969.881,13.655 967.912,17.156 965.943,13.655 	"/>
	<polygon fill="#040000" points="981.031,17.155 983,13.654 984.97,17.155 	"/>
</g>
<g>
	<polygon fill="#040000" points="1011.101,13.656 1009.132,17.157 1007.162,13.656 	"/>
	<polygon fill="#040000" points="1022.25,17.156 1024.219,13.655 1026.188,17.156 	"/>
</g>
<g>
	<polygon fill="#040000" points="1053.293,13.656 1051.324,17.157 1049.355,13.656 	"/>
	<polygon fill="#040000" points="1064.443,17.156 1066.412,13.655 1068.382,17.156 	"/>
</g>
<path fill="#EFE9DC" stroke="#050101" stroke-miterlimit="10" d="M1136.68,105.975c0,0.561-0.447,1.014-1,1.014h-40.5
	c-0.553,0-1-0.453-1-1.014V19.282c0-0.561,0.447-1.015,1-1.015h40.5c0.553,0,1,0.454,1,1.015V105.975z"/>
<g>
	<defs>
		<rect id="SVGID_1_" x="1089.177" y="14.086" width="52.666" height="14.488"/>
	</defs>
	<clipPath id="SVGID_2_">
		<use xlink:href="#SVGID_1_"  overflow="visible"/>
	</clipPath>
	<path clip-path="url(#SVGID_2_)" fill="#E9EC93" stroke="#050101" stroke-miterlimit="10" d="M1136.501,104.998
		c0,0.553-0.448,1-1,1h-40.5c-0.553,0-1-0.447-1-1V19.497c0-0.553,0.447-1,1-1h40.5c0.552,0,1,0.447,1,1V104.998z"/>
</g>
<g>
	<defs>
		<rect id="SVGID_3_" x="1082.37" y="96.758" width="113.811" height="14.488"/>
	</defs>
	<clipPath id="SVGID_4_">
		<use xlink:href="#SVGID_3_"  overflow="visible"/>
	</clipPath>
	<path clip-path="url(#SVGID_4_)" fill="#E9EC93" stroke="#050101" stroke-miterlimit="10" d="M1093.915,20.334
		c0-0.553,0.968-1,2.161-1h87.519c1.193,0,2.161,0.447,2.161,1v85.5c0,0.553-0.968,1-2.161,1h-87.519c-1.193,0-2.161-0.447-2.161-1
		V20.334z"/>
</g>
<rect x="1174.43" y="16.779" fill="#060001" width="32.627" height="1.124"/>
<rect x="1180.211" y="46.582" fill="#060001" width="71.638" height="1.124"/>
<rect x="1251.18" y="8.452" fill="#060001" width="0.668" height="39.254"/>
</svg>
