<?xml version="1.0" encoding="utf-8"?>
<!-- Generator: Adobe Illustrator 16.0.0, SVG Export Plug-In . SVG Version: 6.00 Build 0)  -->
<!DOCTYPE svg PUBLIC "-//W3C//DTD SVG 1.1//EN" "http://www.w3.org/Graphics/SVG/1.1/DTD/svg11.dtd">
<svg version="1.1" id="图层_1" xmlns="http://www.w3.org/2000/svg" xmlns:xlink="http://www.w3.org/1999/xlink" x="0px" y="0px"
	 width="1275.59px" height="126.14px" viewBox="0 0 1275.59 126.14" enable-background="new 0 0 1275.59 126.14"
	 xml:space="preserve">
<rect fill="#36373B" width="1275.59" height="126.141"/>
<rect x="22.34" y="14.603" fill="#47474C" stroke="#1B1B1B" stroke-miterlimit="10" width="459.042" height="100.999"/>
<rect x="481.833" y="32.315" fill="#47474C" stroke="#1B1B1B" stroke-miterlimit="10" width="749.36" height="83.286"/>
<circle fill="#343538" cx="498.538" cy="57.579" r="10.691"/>
<g>
	<path fill="#262626" d="M506.919,57.579c0,4.627-3.752,8.378-8.38,8.378c-4.628,0-8.38-3.751-8.38-8.378s3.752-8.378,8.38-8.378
		C503.167,49.201,506.919,52.952,506.919,57.579"/>
	<circle fill="none" stroke="#131313" stroke-width="0.75" stroke-miterlimit="10" cx="498.539" cy="57.579" r="8.38"/>
	<polygon fill="#040000" points="497.503,62.33 497.503,58.614 493.786,58.614 493.786,56.543 497.503,56.543 497.503,52.827 
		499.574,52.827 499.574,56.543 503.292,56.543 503.292,58.614 499.574,58.614 499.574,62.33 	"/>
	<path fill="#231815" d="M499.399,53.002v3.366v0.35h0.349h3.368v1.722h-3.368h-0.349v0.349v3.368h-1.721v-3.368v-0.349h-0.35
		h-3.368v-1.722h3.368h0.35v-0.35v-3.366H499.399z M499.749,52.652h-2.42v3.716h-3.717v2.42h3.717v3.717h2.42v-3.717h3.717v-2.42
		h-3.717V52.652z"/>
</g>
<rect x="616.63" y="59.485" fill="#EFE9DC" stroke="#050101" stroke-width="2" stroke-miterlimit="10" width="44.756" height="40.308"/>
<rect x="945.566" y="59.485" fill="#EFE9DC" stroke="#050101" stroke-width="2" stroke-miterlimit="10" width="44.756" height="40.308"/>
<rect x="1069.002" y="59.485" fill="#EFE9DC" stroke="#050101" stroke-width="2" stroke-miterlimit="10" width="44.756" height="40.308"/>
<circle fill="#C4C4C4" stroke="#101010" stroke-miterlimit="10" cx="539.836" cy="89.676" r="6.8"/>
<circle fill="#B2B2B2" stroke="#101010" stroke-miterlimit="10" cx="565.823" cy="89.676" r="6.799"/>
<circle fill="#C4C4C4" stroke="#101010" stroke-miterlimit="10" cx="539.836" cy="70.141" r="6.8"/>
<circle fill="#C4C4C4" stroke="#101010" stroke-miterlimit="10" cx="1004.372" cy="77.715" r="5.401"/>
<circle fill="#C4C4C4" stroke="#101010" stroke-miterlimit="10" cx="1004.372" cy="94.475" r="5.401"/>
<circle fill="#C4C4C4" stroke="#101010" stroke-miterlimit="10" cx="1131.684" cy="77.24" r="5.402"/>
<circle fill="#C4C4C4" stroke="#101010" stroke-miterlimit="10" cx="1131.684" cy="94" r="5.402"/>
<circle fill="#B2B2B2" stroke="#101010" stroke-miterlimit="10" cx="565.823" cy="70.141" r="6.799"/>
<radialGradient id="SVGID_1_" cx="591.8096" cy="89.6758" r="6.7991" gradientUnits="userSpaceOnUse">
	<stop  offset="0" style="stop-color:#727171"/>
	<stop  offset="1" style="stop-color:#3E3A39"/>
</radialGradient>
<circle fill="url(#SVGID_1_)" stroke="#101010" stroke-miterlimit="10" cx="591.81" cy="89.676" r="6.799"/>
<path fill="#D2E4DE" stroke="#181817" stroke-miterlimit="10" d="M661.387,55.304c0,0.553-0.447,1-1,1H617.63c-0.553,0-1-0.447-1-1
	v-7.416c0-0.553,0.447-1,1-1h42.756c0.553,0,1,0.447,1,1V55.304z"/>
<g>
	<polygon fill="#B4B3B4" points="1188.156,20.668 1193.381,20.668 1193.381,16.492 1195.729,16.492 1195.729,26.795 
		1193.381,26.795 1193.381,22.492 1188.156,22.492 1188.156,26.795 1185.809,26.795 1185.809,16.492 1188.156,16.492 	"/>
	<path fill="#B4B3B4" d="M1199.986,22.664c0,1.824,0.574,2.58,2.518,2.58c1.941,0,2.502-0.756,2.502-2.58v-6.172h2.346v6.229
		c0,1.318-0.158,2.223-0.654,2.77c-0.916,1.006-2.252,1.418-4.193,1.418c-1.943,0-3.295-0.412-4.211-1.418
		c-0.512-0.561-0.639-1.467-0.639-2.77v-6.229h2.332V22.664z"/>
	<path fill="#B4B3B4" d="M1215.018,16.49l4.754,10.305h-2.607l-1.027-2.453h-4.848l-0.994,2.453h-2.484l4.719-10.305H1215.018z
		 M1212.049,22.506h3.328l-1.695-3.959L1212.049,22.506z"/>
	<polygon fill="#B4B3B4" points="1220.836,16.492 1223.418,24.414 1225.592,16.492 1228.361,16.492 1230.859,24.414 
		1233.266,16.492 1235.676,16.492 1232.227,26.793 1229.352,26.793 1226.975,19.105 1224.895,26.793 1222.033,26.793 
		1218.316,16.492 	"/>
	<path fill="#B4B3B4" d="M1238.834,20.682h6.494v1.793h-6.508c0.014,1.852,0.809,2.527,2.654,2.527h3.854v1.791h-3.959
		c-1.354,0-2.395-0.1-3.482-0.902c-1.148-0.846-1.707-2.193-1.707-4.061c0-3.643,1.662-5.338,5.25-5.338h3.898v1.795h-3.854
		C1239.783,18.287,1238.928,19.061,1238.834,20.682"/>
	<rect x="1247.396" y="16.492" fill="#B4B3B4" width="2.453" height="10.301"/>
	<path fill="#B4B3B4" d="M1161.16,25.543c0,0,0.057-0.045,0.029-0.119h0.002c-3.766-8.221-8.912-14.449-8.912-14.449
		s-2.799,2.654-2.6,5.316c0.107,2.014,1.621,3.209,1.621,3.209c2.443,2.379,8.355,5.385,9.729,6.064
		C1161.051,25.572,1161.121,25.596,1161.16,25.543"/>
	<path fill="#B4B3B4" d="M1160.244,27.578c-0.023-0.09-0.125-0.09-0.125-0.09l0,0l-9.842,0.342c1.068,1.9,2.865,3.379,4.736,2.928
		c1.297-0.324,4.225-2.367,5.188-3.057h-0.002C1160.275,27.631,1160.244,27.578,1160.244,27.578"/>
	<path fill="#B4B3B4" d="M1160.395,26.693c0.047-0.078-0.035-0.146-0.035-0.146v-0.004c-4.322-2.914-12.701-7.389-12.701-7.389
		c-0.76,2.357,0.266,4.256,0.266,4.256c1.066,2.256,3.107,2.939,3.107,2.939c0.939,0.389,1.883,0.414,1.883,0.414
		c0.145,0.027,5.852,0.004,7.381-0.006C1160.359,26.758,1160.395,26.693,1160.395,26.693"/>
	<path fill="#B4B3B4" d="M1161.049,6.723c-0.43,0.037-1.586,0.301-1.586,0.301c-2.604,0.674-3.221,3.039-3.221,3.039
		c-0.473,1.486,0.012,3.121,0.012,3.121c0.869,3.857,5.15,10.201,6.068,11.531c0.068,0.064,0.117,0.043,0.117,0.043
		c0.1-0.029,0.092-0.125,0.092-0.125l0.004,0.004C1163.951,10.477,1161.049,6.723,1161.049,6.723"/>
	<path fill="#B4B3B4" d="M1164.307,24.754c0.096,0.035,0.143-0.053,0.143-0.053h0.002c0.943-1.365,5.197-7.672,6.064-11.516
		c0,0,0.469-1.863,0.014-3.121c0,0-0.641-2.404-3.25-3.039c0,0-0.754-0.189-1.551-0.303c0,0-2.914,3.754-1.498,17.922
		C1164.242,24.734,1164.307,24.754,1164.307,24.754"/>
	<path fill="#B4B3B4" d="M1166.637,27.496c0,0-0.088,0.012-0.109,0.076c0,0-0.023,0.086,0.035,0.133
		c0.941,0.674,3.797,2.672,5.176,3.059c0,0,2.543,0.867,4.754-2.928l-9.855-0.344V27.496z"/>
	<path fill="#B4B3B4" d="M1179.109,19.135c0,0-8.365,4.486-12.693,7.406h0.004c0,0-0.076,0.051-0.049,0.143
		c0,0,0.041,0.074,0.102,0.074c1.547,0.004,7.408,0.012,7.557-0.018c0,0,0.758-0.029,1.695-0.391c0,0,2.086-0.66,3.168-3.029
		C1178.893,23.32,1179.857,21.387,1179.109,19.135"/>
	<path fill="#B4B3B4" d="M1165.629,25.543c0,0,0.068,0.051,0.133,0.008l0,0c1.41-0.699,7.277-3.686,9.707-6.051
		c0,0,1.539-1.238,1.619-3.221c0.178-2.754-2.598-5.305-2.598-5.305s-5.133,6.209-8.891,14.41h0.004
		C1165.604,25.385,1165.557,25.48,1165.629,25.543"/>
</g>
<rect x="481.833" y="31.661" fill="#707070" width="748.847" height="0.467"/>
<rect x="482.305" y="32.128" fill="#0A090A" width="748.375" height="1.82"/>
<polyline fill="none" stroke="#A5A5A5" stroke-miterlimit="10" points="967.945,57.604 968.104,44.604 1038.348,44.604 
	1038.348,71.617 "/>
<polyline fill="none" stroke="#A5A5A5" stroke-miterlimit="10" points="1091.654,57.604 1091.824,44.604 1167.285,44.604 
	1167.285,71.617 "/>
</svg>
