<?xml version="1.0" encoding="utf-8"?>
<!-- Generator: Adobe Illustrator 16.0.0, SVG Export Plug-In . SVG Version: 6.00 Build 0)  -->
<!DOCTYPE svg PUBLIC "-//W3C//DTD SVG 1.1//EN" "http://www.w3.org/Graphics/SVG/1.1/DTD/svg11.dtd">
<svg version="1.1" id="图层_1" xmlns="http://www.w3.org/2000/svg" xmlns:xlink="http://www.w3.org/1999/xlink" x="0px" y="0px"
	 width="1275.59px" height="126.142px" viewBox="0 0 1275.59 126.142" enable-background="new 0 0 1275.59 126.142"
	 xml:space="preserve">
<g>
	<rect y="0.001" fill="#DEDDDC" width="1275.591" height="126.141"/>
</g>
<g>
	<g>
		<rect x="1132.39" y="7.447" fill="#0C080C" width="13.479" height="13.479"/>
		<rect x="1155.401" y="7.447" fill="#0C080C" width="13.479" height="13.479"/>
		<rect x="1178.413" y="7.447" fill="#0C080C" width="13.479" height="13.479"/>
	</g>
	<g>
		<rect x="1132.39" y="29.098" fill="#0C080C" width="13.479" height="13.479"/>
		<rect x="1155.401" y="29.098" fill="#0C080C" width="13.479" height="13.479"/>
		<rect x="1178.413" y="29.098" fill="#0C080C" width="13.479" height="13.479"/>
	</g>
	<rect x="1155.401" y="50.751" fill="#0C080C" width="13.479" height="13.479"/>
	<rect x="1178.413" y="50.751" fill="#0C080C" width="13.479" height="13.479"/>
	<rect x="1155.401" y="72.404" fill="#0C080C" width="13.479" height="13.478"/>
	<rect x="1178.413" y="72.404" fill="#0C080C" width="13.479" height="13.478"/>
	<rect x="1155.401" y="94.056" fill="#0C080C" width="13.479" height="13.478"/>
	<rect x="1178.413" y="94.056" fill="#0C080C" width="13.479" height="13.478"/>
</g>
<g>
	<rect x="999.213" y="7.447" fill="#0C080C" width="17.227" height="17.227"/>
	<rect x="1028.623" y="7.447" fill="#0C080C" width="17.227" height="17.227"/>
	<rect x="999.213" y="35.119" fill="#0C080C" width="17.227" height="17.228"/>
	<rect x="1028.623" y="35.119" fill="#0C080C" width="17.227" height="17.228"/>
	<rect x="1028.623" y="62.793" fill="#0C080C" width="17.227" height="17.225"/>
	<rect x="1028.623" y="90.467" fill="#0C080C" width="17.227" height="17.227"/>
</g>
<polyline fill="none" points="1013.432,122.04 1068.677,122.04 1068.677,0.001 1013.432,0.001 "/>
<g>
	<defs>
		<path id="SVGID_1_" d="M1045.523,109.279l2.701-0.093l0.607-15.501l-10.006-2.117c-3.994-0.844-7.641,2.979-7.641,8.013v1.886
			c0,2.287,1.238,4.287,3.016,4.875l6.793,2.241c1.322,0.404,2.965,0.698,4.35,0.698
			C1045.403,109.281,1045.464,109.281,1045.523,109.279"/>
	</defs>
	
		<linearGradient id="SVGID_2_" gradientUnits="userSpaceOnUse" x1="-7048.7383" y1="-10594.2207" x2="-7031.0918" y2="-10594.2207" gradientTransform="matrix(-1 0 0 -1 -5999.9063 -10493.8545)">
		<stop  offset="0" style="stop-color:#4E4D4D"/>
		<stop  offset="0.4677" style="stop-color:#808081"/>
		<stop  offset="1" style="stop-color:#333333"/>
	</linearGradient>
	<use xlink:href="#SVGID_1_"  overflow="visible" fill="url(#SVGID_2_)"/>
	<clipPath id="SVGID_3_">
		<use xlink:href="#SVGID_1_"  overflow="visible"/>
	</clipPath>
	
		<linearGradient id="SVGID_4_" gradientUnits="userSpaceOnUse" x1="-7053.8877" y1="-10593.8574" x2="-7025.9414" y2="-10593.8574" gradientTransform="matrix(-1 0 0 -1 -5999.9063 -10493.8545)">
		<stop  offset="0" style="stop-color:#4E4D4D"/>
		<stop  offset="0.4677" style="stop-color:#808081"/>
		<stop  offset="1" style="stop-color:#333333"/>
	</linearGradient>
	<polygon clip-path="url(#SVGID_3_)" fill="url(#SVGID_4_)" points="1033.619,116.842 1053.981,106.722 1046.396,83.164 
		1026.035,93.284 	"/>
</g>
<g>
	<g>
		<defs>
			<path id="SVGID_5_" d="M1037.408,26.871l11.424-2.719l-1.314-15.395c-2.43,0-4.85,0.395-7.197,1.173l-4.041,1.338
				c-3.004,0.996-5.094,4.375-5.094,8.24v0.971c0,3.661,2.403,6.51,5.227,6.51C1036.739,26.99,1037.072,26.951,1037.408,26.871"/>
		</defs>
		
			<linearGradient id="SVGID_6_" gradientUnits="userSpaceOnUse" x1="-7048.7383" y1="-10511.7285" x2="-7031.0918" y2="-10511.7285" gradientTransform="matrix(-1 0 0 -1 -5999.9063 -10493.8545)">
			<stop  offset="0" style="stop-color:#4E4D4D"/>
			<stop  offset="0.4677" style="stop-color:#808081"/>
			<stop  offset="1" style="stop-color:#333333"/>
		</linearGradient>
		<use xlink:href="#SVGID_5_"  overflow="visible" fill="url(#SVGID_6_)"/>
		<clipPath id="SVGID_7_">
			<use xlink:href="#SVGID_5_"  overflow="visible"/>
		</clipPath>
		
			<linearGradient id="SVGID_8_" gradientUnits="userSpaceOnUse" x1="-7048.7383" y1="-10511.7285" x2="-7031.0918" y2="-10511.7285" gradientTransform="matrix(-1 0 0 -1 -5999.9063 -10493.8545)">
			<stop  offset="0" style="stop-color:#4E4D4D"/>
			<stop  offset="0.4677" style="stop-color:#808081"/>
			<stop  offset="1" style="stop-color:#333333"/>
		</linearGradient>
		<rect x="1031.186" y="8.757" clip-path="url(#SVGID_7_)" fill="url(#SVGID_8_)" width="17.646" height="18.232"/>
	</g>
	<g>
		<defs>
			<path id="SVGID_9_" d="M1047.518,109.279c4.25,0,7.697-4.462,7.697-9.963V18.719c0-5.501-3.447-9.961-7.697-9.961
				s-7.697,4.46-7.697,9.961v80.598C1039.82,104.817,1043.268,109.279,1047.518,109.279L1047.518,109.279z"/>
		</defs>
		
			<linearGradient id="SVGID_10_" gradientUnits="userSpaceOnUse" x1="-7055.1211" y1="-10552.873" x2="-7039.7266" y2="-10552.873" gradientTransform="matrix(-1 0 0 -1 -5999.9063 -10493.8545)">
			<stop  offset="0" style="stop-color:#4E4D4D"/>
			<stop  offset="0.4677" style="stop-color:#808081"/>
			<stop  offset="1" style="stop-color:#333333"/>
		</linearGradient>
		<use xlink:href="#SVGID_9_"  overflow="visible" fill="url(#SVGID_10_)"/>
		<clipPath id="SVGID_11_">
			<use xlink:href="#SVGID_9_"  overflow="visible"/>
		</clipPath>
		
			<linearGradient id="SVGID_12_" gradientUnits="userSpaceOnUse" x1="-539.3896" y1="-177.5801" x2="-538.6099" y2="-177.5801" gradientTransform="matrix(-19.747 0 0 -19.747 -9596.125 -3447.6563)">
			<stop  offset="0" style="stop-color:#4E4D4D"/>
			<stop  offset="0.4677" style="stop-color:#808081"/>
			<stop  offset="1" style="stop-color:#333333"/>
		</linearGradient>
		<rect x="1039.82" y="8.757" clip-path="url(#SVGID_11_)" fill="url(#SVGID_12_)" width="15.395" height="100.522"/>
	</g>
</g>
<polyline fill="none" points="1161.142,122.04 1216.386,122.04 1216.386,0.001 1161.142,0.001 "/>
<g>
	<g>
		<defs>
			<path id="SVGID_13_" d="M1193.231,108.965l2.701-0.094l0.607-15.883l-10.004-2.17c-3.996-0.863-7.643,3.054-7.643,8.211v1.934
				c0,2.341,1.238,4.391,3.018,4.992l6.793,2.296c1.32,0.416,2.963,0.716,4.348,0.716
				C1193.112,108.967,1193.173,108.967,1193.231,108.965"/>
		</defs>
		
			<linearGradient id="SVGID_14_" gradientUnits="userSpaceOnUse" x1="-7196.4463" y1="-10593.6875" x2="-7178.7998" y2="-10593.6875" gradientTransform="matrix(-1 0 0 -1 -5999.9063 -10493.8545)">
			<stop  offset="0" style="stop-color:#4E4D4D"/>
			<stop  offset="0.4677" style="stop-color:#808081"/>
			<stop  offset="1" style="stop-color:#333333"/>
		</linearGradient>
		<use xlink:href="#SVGID_13_"  overflow="visible" fill="url(#SVGID_14_)"/>
		<clipPath id="SVGID_15_">
			<use xlink:href="#SVGID_13_"  overflow="visible"/>
		</clipPath>
		
			<linearGradient id="SVGID_16_" gradientUnits="userSpaceOnUse" x1="-7201.5967" y1="-10593.3154" x2="-7173.6494" y2="-10593.3154" gradientTransform="matrix(-1 0 0 -1 -5999.9063 -10493.8545)">
			<stop  offset="0" style="stop-color:#4E4D4D"/>
			<stop  offset="0.4677" style="stop-color:#808081"/>
			<stop  offset="1" style="stop-color:#333333"/>
		</linearGradient>
		<polygon clip-path="url(#SVGID_15_)" fill="url(#SVGID_16_)" points="1181.327,116.714 1201.69,106.346 1194.106,82.208 
			1173.743,92.578 		"/>
	</g>
	<g>
		<defs>
			<path id="SVGID_17_" d="M1185.116,28.632l11.424-2.786l-1.314-15.774c-2.43,0-4.85,0.405-7.197,1.202l-4.041,1.372
				c-3.004,1.021-5.094,4.483-5.092,8.442v0.996c0,3.751,2.402,6.67,5.225,6.67C1184.448,28.753,1184.78,28.713,1185.116,28.632"/>
		</defs>
		
			<linearGradient id="SVGID_18_" gradientUnits="userSpaceOnUse" x1="-7196.4463" y1="-10513.2676" x2="-7178.8018" y2="-10513.2676" gradientTransform="matrix(-1 0 0 -1 -5999.9063 -10493.8545)">
			<stop  offset="0" style="stop-color:#4E4D4D"/>
			<stop  offset="0.4677" style="stop-color:#808081"/>
			<stop  offset="1" style="stop-color:#333333"/>
		</linearGradient>
		<use xlink:href="#SVGID_17_"  overflow="visible" fill="url(#SVGID_18_)"/>
		<clipPath id="SVGID_19_">
			<use xlink:href="#SVGID_17_"  overflow="visible"/>
		</clipPath>
		
			<linearGradient id="SVGID_20_" gradientUnits="userSpaceOnUse" x1="-7196.4463" y1="-10513.2676" x2="-7178.7998" y2="-10513.2676" gradientTransform="matrix(-1 0 0 -1 -5999.9063 -10493.8545)">
			<stop  offset="0" style="stop-color:#4E4D4D"/>
			<stop  offset="0.4677" style="stop-color:#808081"/>
			<stop  offset="1" style="stop-color:#333333"/>
		</linearGradient>
		<rect x="1178.894" y="10.072" clip-path="url(#SVGID_19_)" fill="url(#SVGID_20_)" width="17.646" height="18.681"/>
	</g>
	<g>
		<defs>
			<path id="SVGID_21_" d="M1195.226,108.965c4.252,0,7.697-4.387,7.697-9.8V19.873c0-5.413-3.445-9.8-7.697-9.8
				c-4.25,0-7.697,4.388-7.697,9.8v79.292C1187.528,104.578,1190.976,108.965,1195.226,108.965L1195.226,108.965z"/>
		</defs>
		
			<linearGradient id="SVGID_22_" gradientUnits="userSpaceOnUse" x1="-7202.8291" y1="-10553.373" x2="-7187.4346" y2="-10553.373" gradientTransform="matrix(-1 0 0 -1 -5999.9063 -10493.8545)">
			<stop  offset="0" style="stop-color:#4E4D4D"/>
			<stop  offset="0.4677" style="stop-color:#808081"/>
			<stop  offset="1" style="stop-color:#333333"/>
		</linearGradient>
		<use xlink:href="#SVGID_21_"  overflow="visible" fill="url(#SVGID_22_)"/>
		<clipPath id="SVGID_23_">
			<use xlink:href="#SVGID_21_"  overflow="visible"/>
		</clipPath>
		
			<linearGradient id="SVGID_24_" gradientUnits="userSpaceOnUse" x1="-546.8696" y1="-177.6055" x2="-546.0898" y2="-177.6055" gradientTransform="matrix(-19.747 0 0 -19.747 -9596.125 -3447.6563)">
			<stop  offset="0" style="stop-color:#4E4D4D"/>
			<stop  offset="0.4677" style="stop-color:#808081"/>
			<stop  offset="1" style="stop-color:#333333"/>
		</linearGradient>
		<rect x="1187.528" y="10.072" clip-path="url(#SVGID_23_)" fill="url(#SVGID_24_)" width="15.395" height="98.893"/>
	</g>
</g>
<g>
	<circle fill="#CDDF79" stroke="#4D4C4C" stroke-miterlimit="10" cx="1006.748" cy="73.084" r="4.684"/>
	<circle fill="#CDDF79" stroke="#4D4C4C" stroke-miterlimit="10" cx="1006.748" cy="86.463" r="4.684"/>
</g>
<g>
	<g>
		<polygon fill="#222427" points="119.858,21.717 116.418,15.758 119.858,9.799 126.738,9.799 130.178,15.758 126.738,21.717 		"/>
	</g>
	<g>
		<polygon fill="#222427" points="145.126,21.717 141.687,15.758 145.126,9.799 152.006,9.799 155.446,15.758 152.006,21.717 		"/>
	</g>
	<g>
		<polygon fill="#222427" points="170.396,21.717 166.955,15.758 170.396,9.799 177.274,9.799 180.714,15.758 177.274,21.717 		"/>
	</g>
	<g>
		<polygon fill="#222427" points="195.663,21.717 192.223,15.758 195.663,9.799 202.543,9.799 205.983,15.758 202.543,21.717 		"/>
	</g>
	<g>
		<polygon fill="#222427" points="220.932,21.717 217.493,15.758 220.932,9.799 227.812,9.799 231.253,15.758 227.812,21.717 		"/>
	</g>
	<g>
		<polygon fill="#222427" points="132.49,18.055 129.052,24.013 132.49,29.971 139.373,29.971 142.813,24.013 139.373,18.055 		"/>
	</g>
	<g>
		<polygon fill="#222427" points="157.76,18.055 154.32,24.013 157.76,29.971 164.642,29.971 168.081,24.013 164.642,18.055 		"/>
	</g>
	<g>
		<polygon fill="#222427" points="183.028,18.055 179.589,24.013 183.028,29.971 189.909,29.971 193.35,24.013 189.909,18.055 		"/>
	</g>
	<g>
		<polygon fill="#222427" points="208.298,18.055 204.857,24.013 208.298,29.971 215.178,29.971 218.617,24.013 215.178,18.055 		
			"/>
	</g>
	<g>
		<polygon fill="#222427" points="119.858,36.782 116.418,30.823 119.858,24.865 126.738,24.865 130.178,30.823 126.738,36.782 		
			"/>
	</g>
	<g>
		<polygon fill="#222427" points="145.126,36.782 141.687,30.823 145.126,24.865 152.006,24.865 155.446,30.823 152.006,36.782 		
			"/>
	</g>
	<g>
		<polygon fill="#222427" points="170.396,36.782 166.955,30.823 170.396,24.865 177.274,24.865 180.714,30.823 177.274,36.782 		
			"/>
	</g>
	<g>
		<polygon fill="#222427" points="195.663,36.782 192.223,30.823 195.663,24.865 202.543,24.865 205.983,30.823 202.543,36.782 		
			"/>
	</g>
	<g>
		<polygon fill="#222427" points="220.932,36.782 217.493,30.823 220.932,24.865 227.812,24.865 231.253,30.823 227.812,36.782 		
			"/>
	</g>
	<g>
		<polygon fill="#222427" points="132.49,33.119 129.052,39.078 132.49,45.037 139.373,45.037 142.813,39.078 139.373,33.119 		"/>
	</g>
	<g>
		<polygon fill="#222427" points="157.76,33.119 154.32,39.078 157.76,45.037 164.642,45.037 168.081,39.078 164.642,33.119 		"/>
	</g>
	<g>
		<polygon fill="#222427" points="183.028,33.119 179.589,39.078 183.028,45.037 189.909,45.037 193.35,39.078 189.909,33.119 		"/>
	</g>
	<g>
		<polygon fill="#222427" points="208.298,33.119 204.857,39.078 208.298,45.037 215.178,45.037 218.617,39.078 215.178,33.119 		
			"/>
	</g>
</g>
<g>
	<polygon fill="#222427" points="534.967,82.762 531.527,76.803 534.967,70.845 541.847,70.845 545.287,76.803 541.847,82.762 	"/>
</g>
<g>
	<polygon fill="#222427" points="560.235,82.762 556.795,76.803 560.235,70.845 567.115,70.845 570.555,76.803 567.115,82.762 	"/>
</g>
<g>
	<polygon fill="#222427" points="547.599,79.099 544.161,85.058 547.599,91.017 554.482,91.017 557.921,85.058 554.482,79.099 	"/>
</g>
<g>
	<polygon fill="#222427" points="592.488,111.372 589.049,117.331 592.488,123.288 599.371,123.288 602.811,117.331 
		599.371,111.372 	"/>
</g>
<g>
	<polygon fill="#222427" points="572.869,79.099 569.429,85.058 572.869,91.017 579.75,91.017 583.19,85.058 579.75,79.099 	"/>
</g>
<g>
	<polygon fill="#222427" points="534.967,97.827 531.527,91.868 534.967,85.911 541.847,85.911 545.287,91.868 541.847,97.827 	"/>
</g>
<g>
	<polygon fill="#222427" points="560.235,97.827 556.795,91.868 560.235,85.911 567.115,85.911 570.555,91.868 567.115,97.827 	"/>
</g>
<g>
	<polygon fill="#222427" points="547.599,94.164 544.161,100.123 547.599,106.081 554.482,106.081 557.921,100.123 554.482,94.164 	
		"/>
</g>
<g>
	<polygon fill="#222427" points="572.869,94.164 569.429,100.123 572.869,106.081 579.75,106.081 583.19,100.123 579.75,94.164 	"/>
</g>
<g>
	<g>
		<polygon fill="#222427" points="32.795,85.674 29.354,79.715 32.795,73.756 39.674,73.756 43.114,79.715 39.674,85.674 		"/>
	</g>
	<g>
		<polygon fill="#222427" points="58.063,85.674 54.623,79.715 58.063,73.756 64.942,73.756 68.382,79.715 64.942,85.674 		"/>
	</g>
	<g>
		<polygon fill="#222427" points="83.332,85.674 79.891,79.715 83.332,73.756 90.211,73.756 93.65,79.715 90.211,85.674 		"/>
	</g>
	<g>
		<polygon fill="#222427" points="45.427,82.012 41.988,87.971 45.427,93.928 52.31,93.928 55.749,87.971 52.31,82.012 		"/>
	</g>
	<g>
		<polygon fill="#222427" points="70.696,82.012 67.257,87.971 70.696,93.928 77.578,93.928 81.018,87.971 77.578,82.012 		"/>
	</g>
	<g>
		<polygon fill="#222427" points="95.965,82.012 92.525,87.971 95.965,93.928 102.846,93.928 106.286,87.971 102.846,82.012 		"/>
	</g>
	<g>
		<polygon fill="#222427" points="32.795,100.738 29.354,94.779 32.795,88.823 39.674,88.823 43.114,94.779 39.674,100.738 		"/>
	</g>
	<g>
		<polygon fill="#222427" points="58.063,100.738 54.623,94.779 58.063,88.823 64.942,88.823 68.382,94.779 64.942,100.738 		"/>
	</g>
	<g>
		<polygon fill="#222427" points="83.332,100.738 79.891,94.779 83.332,88.823 90.211,88.823 93.65,94.779 90.211,100.738 		"/>
	</g>
	<g>
		<polygon fill="#222427" points="45.427,97.075 41.988,103.034 45.427,108.993 52.31,108.993 55.749,103.034 52.31,97.075 		"/>
	</g>
	<g>
		<polygon fill="#222427" points="70.696,97.075 67.257,103.034 70.696,108.993 77.578,108.993 81.018,103.034 77.578,97.075 		"/>
	</g>
	<g>
		<polygon fill="#222427" points="95.965,97.075 92.525,103.034 95.965,108.993 102.846,108.993 106.286,103.034 102.846,97.075 		
			"/>
	</g>
</g>
<g>
	<g>
		<polygon fill="#222427" points="276.93,19.198 273.409,13.1 276.93,7.001 283.97,7.001 287.492,13.1 283.97,19.198 		"/>
	</g>
	<g>
		<polygon fill="#222427" points="302.791,19.198 299.27,13.1 302.791,7.001 309.832,7.001 313.352,13.1 309.832,19.198 		"/>
	</g>
	<g>
		<polygon fill="#222427" points="328.652,19.198 325.13,13.1 328.652,7.001 335.692,7.001 339.212,13.1 335.692,19.198 		"/>
	</g>
	<g>
		<polygon fill="#222427" points="354.512,19.198 350.992,13.1 354.512,7.001 361.554,7.001 365.075,13.1 361.554,19.198 		"/>
	</g>
	<g>
		<polygon fill="#222427" points="380.373,19.198 376.853,13.1 380.373,7.001 387.414,7.001 390.937,13.1 387.414,19.198 		"/>
	</g>
	<g>
		<polygon fill="#222427" points="406.234,19.198 402.713,13.1 406.234,7.001 413.275,7.001 416.796,13.1 413.275,19.198 		"/>
	</g>
	<g>
		<polygon fill="#222427" points="432.095,19.198 428.574,13.1 432.095,7.001 439.137,7.001 442.658,13.1 439.137,19.198 		"/>
	</g>
	<g>
		<polygon fill="#222427" points="457.956,19.198 454.436,13.1 457.956,7.001 464.998,7.001 468.519,13.1 464.998,19.198 		"/>
	</g>
	<g>
		<polygon fill="#222427" points="483.817,19.198 480.297,13.1 483.817,7.001 490.859,7.001 494.38,13.1 490.859,19.198 		"/>
	</g>
	<g>
		<polygon fill="#222427" points="289.858,15.45 286.338,21.547 289.858,27.645 296.902,27.645 300.422,21.547 296.902,15.45 		"/>
	</g>
	<g>
		<polygon fill="#222427" points="315.72,15.45 312.2,21.547 315.72,27.645 322.763,27.645 326.284,21.547 322.763,15.45 		"/>
	</g>
	<g>
		<polygon fill="#222427" points="341.581,15.45 338.061,21.547 341.581,27.645 348.624,27.645 352.144,21.547 348.624,15.45 		"/>
	</g>
	<g>
		<polygon fill="#222427" points="367.443,15.45 363.922,21.547 367.443,27.645 374.485,27.645 378.005,21.547 374.485,15.45 		"/>
	</g>
	<g>
		<polygon fill="#222427" points="393.304,15.45 389.782,21.547 393.304,27.645 400.345,27.645 403.866,21.547 400.345,15.45 		"/>
	</g>
	<g>
		<polygon fill="#222427" points="419.165,15.45 415.644,21.547 419.165,27.645 426.206,27.645 429.727,21.547 426.206,15.45 		"/>
	</g>
	<g>
		<polygon fill="#222427" points="445.025,15.45 441.505,21.547 445.025,27.645 452.067,27.645 455.588,21.547 452.067,15.45 		"/>
	</g>
	<g>
		<polygon fill="#222427" points="470.887,15.45 467.366,21.547 470.887,27.645 477.928,27.645 481.449,21.547 477.928,15.45 		"/>
	</g>
	<g>
		<polygon fill="#222427" points="496.748,15.45 493.228,21.547 496.748,27.645 503.789,27.645 507.311,21.547 503.789,15.45 		"/>
	</g>
	<g>
		<polygon fill="#222427" points="276.93,34.616 273.409,28.517 276.93,22.42 283.97,22.42 287.492,28.517 283.97,34.616 		"/>
	</g>
	<g>
		<polygon fill="#222427" points="302.791,34.616 299.27,28.517 302.791,22.42 309.832,22.42 313.352,28.517 309.832,34.616 		"/>
	</g>
	<g>
		<polygon fill="#222427" points="328.652,34.616 325.13,28.517 328.652,22.42 335.692,22.42 339.212,28.517 335.692,34.616 		"/>
	</g>
	<g>
		<polygon fill="#222427" points="354.512,34.616 350.992,28.517 354.512,22.42 361.554,22.42 365.075,28.517 361.554,34.616 		"/>
	</g>
	<g>
		<polygon fill="#222427" points="380.373,34.616 376.853,28.517 380.373,22.42 387.414,22.42 390.937,28.517 387.414,34.616 		"/>
	</g>
	<g>
		<polygon fill="#222427" points="406.234,34.616 402.713,28.517 406.234,22.42 413.275,22.42 416.796,28.517 413.275,34.616 		"/>
	</g>
	<g>
		<polygon fill="#222427" points="432.095,34.616 428.574,28.517 432.095,22.42 439.137,22.42 442.658,28.517 439.137,34.616 		"/>
	</g>
	<g>
		<polygon fill="#222427" points="457.956,34.616 454.436,28.517 457.956,22.42 464.998,22.42 468.519,28.517 464.998,34.616 		"/>
	</g>
	<g>
		<polygon fill="#222427" points="483.817,34.616 480.297,28.517 483.817,22.42 490.859,22.42 494.38,28.517 490.859,34.616 		"/>
	</g>
	<g>
		<polygon fill="#222427" points="289.858,30.867 286.338,36.965 289.858,43.064 296.902,43.064 300.422,36.965 296.902,30.867 		
			"/>
	</g>
	<g>
		<polygon fill="#222427" points="315.72,30.867 312.2,36.965 315.72,43.064 322.763,43.064 326.284,36.965 322.763,30.867 		"/>
	</g>
	<g>
		<polygon fill="#222427" points="341.581,30.867 338.061,36.965 341.581,43.064 348.624,43.064 352.144,36.965 348.624,30.867 		
			"/>
	</g>
	<g>
		<polygon fill="#222427" points="367.443,30.867 363.922,36.965 367.443,43.064 374.485,43.064 378.005,36.965 374.485,30.867 		
			"/>
	</g>
	<g>
		<polygon fill="#222427" points="393.304,30.867 389.782,36.965 393.304,43.064 400.345,43.064 403.866,36.965 400.345,30.867 		
			"/>
	</g>
	<g>
		<polygon fill="#222427" points="419.165,30.867 415.644,36.965 419.165,43.064 426.206,43.064 429.727,36.965 426.206,30.867 		
			"/>
	</g>
	<g>
		<polygon fill="#222427" points="445.025,30.867 441.505,36.965 445.025,43.064 452.067,43.064 455.588,36.965 452.067,30.867 		
			"/>
	</g>
	<g>
		<polygon fill="#222427" points="470.887,30.867 467.366,36.965 470.887,43.064 477.928,43.064 481.449,36.965 477.928,30.867 		
			"/>
	</g>
	<g>
		<polygon fill="#222427" points="496.748,30.867 493.228,36.965 496.748,43.064 503.789,43.064 507.311,36.965 503.789,30.867 		
			"/>
	</g>
</g>
<g>
	<g>
		<polygon fill="#222427" points="276.93,50.182 273.409,44.084 276.93,37.985 283.97,37.985 287.492,44.084 283.97,50.182 		"/>
	</g>
	<g>
		<polygon fill="#222427" points="302.791,50.182 299.27,44.084 302.791,37.985 309.832,37.985 313.352,44.084 309.832,50.182 		"/>
	</g>
	<g>
		<polygon fill="#222427" points="328.652,50.182 325.13,44.084 328.652,37.985 335.692,37.985 339.212,44.084 335.692,50.182 		"/>
	</g>
	<g>
		<polygon fill="#222427" points="354.512,50.182 350.992,44.084 354.512,37.985 361.554,37.985 365.075,44.084 361.554,50.182 		
			"/>
	</g>
	<g>
		<polygon fill="#222427" points="380.373,50.182 376.853,44.084 380.373,37.985 387.414,37.985 390.937,44.084 387.414,50.182 		
			"/>
	</g>
	<g>
		<polygon fill="#222427" points="406.234,50.182 402.713,44.084 406.234,37.985 413.275,37.985 416.796,44.084 413.275,50.182 		
			"/>
	</g>
	<g>
		<polygon fill="#222427" points="432.095,50.182 428.574,44.084 432.095,37.985 439.137,37.985 442.658,44.084 439.137,50.182 		
			"/>
	</g>
	<g>
		<polygon fill="#222427" points="457.956,50.182 454.436,44.084 457.956,37.985 464.998,37.985 468.519,44.084 464.998,50.182 		
			"/>
	</g>
	<g>
		<polygon fill="#222427" points="483.817,50.182 480.297,44.084 483.817,37.985 490.859,37.985 494.38,44.084 490.859,50.182 		"/>
	</g>
	<g>
		<polygon fill="#222427" points="289.858,46.434 286.338,52.532 289.858,58.63 296.902,58.63 300.422,52.532 296.902,46.434 		"/>
	</g>
	<g>
		<polygon fill="#222427" points="315.72,46.434 312.2,52.532 315.72,58.63 322.763,58.63 326.284,52.532 322.763,46.434 		"/>
	</g>
	<g>
		<polygon fill="#222427" points="341.581,46.434 338.061,52.532 341.581,58.63 348.624,58.63 352.144,52.532 348.624,46.434 		"/>
	</g>
	<g>
		<polygon fill="#222427" points="367.443,46.434 363.922,52.532 367.443,58.63 374.485,58.63 378.005,52.532 374.485,46.434 		"/>
	</g>
	<g>
		<polygon fill="#222427" points="393.304,46.434 389.782,52.532 393.304,58.63 400.345,58.63 403.866,52.532 400.345,46.434 		"/>
	</g>
	<g>
		<polygon fill="#222427" points="419.165,46.434 415.644,52.532 419.165,58.63 426.206,58.63 429.727,52.532 426.206,46.434 		"/>
	</g>
	<g>
		<polygon fill="#222427" points="445.025,46.434 441.505,52.532 445.025,58.63 452.067,58.63 455.588,52.532 452.067,46.434 		"/>
	</g>
	<g>
		<polygon fill="#222427" points="470.887,46.434 467.366,52.532 470.887,58.63 477.928,58.63 481.449,52.532 477.928,46.434 		"/>
	</g>
	<g>
		<polygon fill="#222427" points="496.748,46.434 493.228,52.532 496.748,58.63 503.789,58.63 507.311,52.532 503.789,46.434 		"/>
	</g>
	<g>
		<polygon fill="#222427" points="276.93,65.602 273.409,59.502 276.93,53.404 283.97,53.404 287.492,59.502 283.97,65.602 		"/>
	</g>
	<g>
		<polygon fill="#222427" points="302.791,65.602 299.27,59.502 302.791,53.404 309.832,53.404 313.352,59.502 309.832,65.602 		"/>
	</g>
	<g>
		<polygon fill="#222427" points="328.652,65.602 325.13,59.502 328.652,53.404 335.692,53.404 339.212,59.502 335.692,65.602 		"/>
	</g>
	<g>
		<polygon fill="#222427" points="354.512,65.602 350.992,59.502 354.512,53.404 361.554,53.404 365.075,59.502 361.554,65.602 		
			"/>
	</g>
	<g>
		<polygon fill="#222427" points="380.373,65.602 376.853,59.502 380.373,53.404 387.414,53.404 390.937,59.502 387.414,65.602 		
			"/>
	</g>
	<g>
		<polygon fill="#222427" points="406.234,65.602 402.713,59.502 406.234,53.404 413.275,53.404 416.796,59.502 413.275,65.602 		
			"/>
	</g>
	<g>
		<polygon fill="#222427" points="432.095,65.602 428.574,59.502 432.095,53.404 439.137,53.404 442.658,59.502 439.137,65.602 		
			"/>
	</g>
	<g>
		<polygon fill="#222427" points="457.956,65.602 454.436,59.502 457.956,53.404 464.998,53.404 468.519,59.502 464.998,65.602 		
			"/>
	</g>
	<g>
		<polygon fill="#222427" points="483.817,65.602 480.297,59.502 483.817,53.404 490.859,53.404 494.38,59.502 490.859,65.602 		"/>
	</g>
	<g>
		<polygon fill="#222427" points="289.858,61.852 286.338,67.951 289.858,74.048 296.902,74.048 300.422,67.951 296.902,61.852 		
			"/>
	</g>
	<g>
		<polygon fill="#222427" points="315.72,61.852 312.2,67.951 315.72,74.048 322.763,74.048 326.284,67.951 322.763,61.852 		"/>
	</g>
	<g>
		<polygon fill="#222427" points="341.581,61.852 338.061,67.951 341.581,74.048 348.624,74.048 352.144,67.951 348.624,61.852 		
			"/>
	</g>
	<g>
		<polygon fill="#222427" points="367.443,61.852 363.922,67.951 367.443,74.048 374.485,74.048 378.005,67.951 374.485,61.852 		
			"/>
	</g>
	<g>
		<polygon fill="#222427" points="393.304,61.852 389.782,67.951 393.304,74.048 400.345,74.048 403.866,67.951 400.345,61.852 		
			"/>
	</g>
	<g>
		<polygon fill="#222427" points="419.165,61.852 415.644,67.951 419.165,74.048 426.206,74.048 429.727,67.951 426.206,61.852 		
			"/>
	</g>
	<g>
		<polygon fill="#222427" points="445.025,61.852 441.505,67.951 445.025,74.048 452.067,74.048 455.588,67.951 452.067,61.852 		
			"/>
	</g>
	<g>
		<polygon fill="#222427" points="470.887,61.852 467.366,67.951 470.887,74.048 477.928,74.048 481.449,67.951 477.928,61.852 		
			"/>
	</g>
	<g>
		<polygon fill="#222427" points="496.748,61.852 493.228,67.951 496.748,74.048 503.789,74.048 507.311,67.951 503.789,61.852 		
			"/>
	</g>
</g>
<g>
	<polygon fill="#222427" points="722.211,67.233 718.691,61.135 722.211,55.036 729.252,55.036 732.773,61.135 729.252,67.233 	"/>
</g>
<g>
	<polygon fill="#222427" points="748.072,67.233 744.552,61.135 748.072,55.036 755.113,55.036 758.633,61.135 755.113,67.233 	"/>
</g>
<g>
	<polygon fill="#222427" points="773.934,67.233 770.412,61.135 773.934,55.036 780.975,55.036 784.494,61.135 780.975,67.233 	"/>
</g>
<g>
	<polygon fill="#222427" points="799.794,67.233 796.273,61.135 799.794,55.036 806.836,55.036 810.356,61.135 806.836,67.233 	"/>
</g>
<g>
	<polygon fill="#222427" points="825.654,67.233 822.135,61.135 825.654,55.036 832.695,55.036 836.219,61.135 832.695,67.233 	"/>
</g>
<g>
	<polygon fill="#222427" points="851.516,67.233 847.994,61.135 851.516,55.036 858.557,55.036 862.078,61.135 858.557,67.233 	"/>
</g>
<g>
	<polygon fill="#222427" points="877.377,67.233 873.855,61.135 877.377,55.036 884.419,55.036 887.939,61.135 884.419,67.233 	"/>
</g>
<g>
	<polygon fill="#222427" points="903.238,67.233 899.717,61.135 903.238,55.036 910.279,55.036 913.801,61.135 910.279,67.233 	"/>
</g>
<g>
	<polygon fill="#222427" points="929.099,67.233 925.578,61.135 929.099,55.036 936.141,55.036 939.662,61.135 936.141,67.233 	"/>
</g>
<g>
	<polygon fill="#222427" points="735.14,63.485 731.62,69.583 735.14,75.682 742.184,75.682 745.704,69.583 742.184,63.485 	"/>
</g>
<g>
	<polygon fill="#222427" points="761.002,63.485 757.481,69.583 761.002,75.682 768.045,75.682 771.565,69.583 768.045,63.485 	"/>
</g>
<g>
	<polygon fill="#222427" points="786.863,63.485 783.343,69.583 786.863,75.682 793.905,75.682 797.426,69.583 793.905,63.485 	"/>
</g>
<g>
	<polygon fill="#222427" points="812.725,63.485 809.203,69.583 812.725,75.682 819.767,75.682 823.287,69.583 819.767,63.485 	"/>
</g>
<g>
	<polygon fill="#222427" points="838.586,63.485 835.064,69.583 838.586,75.682 845.627,75.682 849.148,69.583 845.627,63.485 	"/>
</g>
<g>
	<polygon fill="#222427" points="864.447,63.485 860.926,69.583 864.447,75.682 871.488,75.682 875.009,69.583 871.488,63.485 	"/>
</g>
<g>
	<polygon fill="#222427" points="890.307,63.485 886.787,69.583 890.307,75.682 897.349,75.682 900.869,69.583 897.349,63.485 	"/>
</g>
<g>
	<polygon fill="#222427" points="916.169,63.485 912.648,69.583 916.169,75.682 923.209,75.682 926.73,69.583 923.209,63.485 	"/>
</g>
<g>
	<polygon fill="#222427" points="942.029,63.485 938.51,69.583 942.029,75.682 949.07,75.682 952.593,69.583 949.07,63.485 	"/>
</g>
<g>
	<polygon fill="#222427" points="722.211,82.652 718.691,76.553 722.211,70.456 729.252,70.456 732.773,76.553 729.252,82.652 	"/>
</g>
<g>
	<polygon fill="#222427" points="748.072,82.652 744.552,76.553 748.072,70.456 755.113,70.456 758.633,76.553 755.113,82.652 	"/>
</g>
<g>
	<polygon fill="#222427" points="773.934,82.652 770.412,76.553 773.934,70.456 780.975,70.456 784.494,76.553 780.975,82.652 	"/>
</g>
<g>
	<polygon fill="#222427" points="799.794,82.652 796.273,76.553 799.794,70.456 806.836,70.456 810.356,76.553 806.836,82.652 	"/>
</g>
<g>
	<polygon fill="#222427" points="825.654,82.652 822.135,76.553 825.654,70.456 832.695,70.456 836.219,76.553 832.695,82.652 	"/>
</g>
<g>
	<polygon fill="#222427" points="851.516,82.652 847.994,76.553 851.516,70.456 858.557,70.456 862.078,76.553 858.557,82.652 	"/>
</g>
<g>
	<polygon fill="#222427" points="877.377,82.652 873.855,76.553 877.377,70.456 884.419,70.456 887.939,76.553 884.419,82.652 	"/>
</g>
<g>
	<polygon fill="#222427" points="903.238,82.652 899.717,76.553 903.238,70.456 910.279,70.456 913.801,76.553 910.279,82.652 	"/>
</g>
<g>
	<polygon fill="#222427" points="929.099,82.652 925.578,76.553 929.099,70.456 936.141,70.456 939.662,76.553 936.141,82.652 	"/>
</g>
<g>
	<polygon fill="#222427" points="735.14,78.902 731.62,85.002 735.14,91.101 742.184,91.101 745.704,85.002 742.184,78.902 	"/>
</g>
<g>
	<polygon fill="#222427" points="761.002,78.902 757.481,85.002 761.002,91.101 768.045,91.101 771.565,85.002 768.045,78.902 	"/>
</g>
<g>
	<polygon fill="#222427" points="786.863,78.902 783.343,85.002 786.863,91.101 793.905,91.101 797.426,85.002 793.905,78.902 	"/>
</g>
<g>
	<polygon fill="#222427" points="812.725,78.902 809.203,85.002 812.725,91.101 819.767,91.101 823.287,85.002 819.767,78.902 	"/>
</g>
<g>
	<polygon fill="#222427" points="838.586,78.902 835.064,85.002 838.586,91.101 845.627,91.101 849.148,85.002 845.627,78.902 	"/>
</g>
<g>
	<polygon fill="#222427" points="864.447,78.902 860.926,85.002 864.447,91.101 871.488,91.101 875.009,85.002 871.488,78.902 	"/>
</g>
<g>
	<polygon fill="#222427" points="890.307,78.902 886.787,85.002 890.307,91.101 897.349,91.101 900.869,85.002 897.349,78.902 	"/>
</g>
<g>
	<polygon fill="#222427" points="916.169,78.902 912.648,85.002 916.169,91.101 923.209,91.101 926.73,85.002 923.209,78.902 	"/>
</g>
<g>
	<polygon fill="#222427" points="942.029,78.902 938.51,85.002 942.029,91.101 949.07,91.101 952.593,85.002 949.07,78.902 	"/>
</g>
<g>
	<polygon fill="#222427" points="722.211,98.217 718.691,92.118 722.211,86.021 729.252,86.021 732.773,92.118 729.252,98.217 	"/>
</g>
<g>
	<polygon fill="#222427" points="748.072,98.217 744.552,92.118 748.072,86.021 755.113,86.021 758.633,92.118 755.113,98.217 	"/>
</g>
<g>
	<polygon fill="#222427" points="773.934,98.217 770.412,92.118 773.934,86.021 780.975,86.021 784.494,92.118 780.975,98.217 	"/>
</g>
<g>
	<polygon fill="#222427" points="799.794,98.217 796.273,92.118 799.794,86.021 806.836,86.021 810.356,92.118 806.836,98.217 	"/>
</g>
<g>
	<polygon fill="#222427" points="825.654,98.217 822.135,92.118 825.654,86.021 832.695,86.021 836.219,92.118 832.695,98.217 	"/>
</g>
<g>
	<polygon fill="#222427" points="851.516,98.217 847.994,92.118 851.516,86.021 858.557,86.021 862.078,92.118 858.557,98.217 	"/>
</g>
<g>
	<polygon fill="#222427" points="877.377,98.217 873.855,92.118 877.377,86.021 884.419,86.021 887.939,92.118 884.419,98.217 	"/>
</g>
<g>
	<polygon fill="#222427" points="903.238,98.217 899.717,92.118 903.238,86.021 910.279,86.021 913.801,92.118 910.279,98.217 	"/>
</g>
<g>
	<polygon fill="#222427" points="929.099,98.217 925.578,92.118 929.099,86.021 936.141,86.021 939.662,92.118 936.141,98.217 	"/>
</g>
<g>
	<polygon fill="#222427" points="735.14,94.47 731.62,100.568 735.14,106.665 742.184,106.665 745.704,100.568 742.184,94.47 	"/>
</g>
<g>
	<polygon fill="#222427" points="761.002,94.47 757.481,100.568 761.002,106.665 768.045,106.665 771.565,100.568 768.045,94.47 	
		"/>
</g>
<g>
	<polygon fill="#222427" points="864.447,94.47 860.926,100.568 864.447,106.665 871.488,106.665 875.009,100.568 871.488,94.47 	
		"/>
</g>
<g>
	<polygon fill="#222427" points="890.307,94.47 886.787,100.568 890.307,106.665 897.349,106.665 900.869,100.568 897.349,94.47 	
		"/>
</g>
<g>
	<polygon fill="#222427" points="916.169,94.47 912.648,100.568 916.169,106.665 923.209,106.665 926.73,100.568 923.209,94.47 	"/>
</g>
<g>
	<polygon fill="#222427" points="942.029,94.47 938.51,100.568 942.029,106.665 949.07,106.665 952.593,100.568 949.07,94.47 	"/>
</g>
<g>
	<polygon fill="#222427" points="722.211,113.636 718.691,107.537 722.211,101.44 729.252,101.44 732.773,107.537 729.252,113.636 	
		"/>
</g>
<g>
	<polygon fill="#222427" points="748.072,113.636 744.552,107.537 748.072,101.44 755.113,101.44 758.633,107.537 755.113,113.636 	
		"/>
</g>
<g>
	<polygon fill="#222427" points="773.934,113.636 770.412,107.537 773.934,101.44 780.975,101.44 784.494,107.537 780.975,113.636 	
		"/>
</g>
<g>
	<polygon fill="#222427" points="877.377,113.636 873.855,107.537 877.377,101.44 884.419,101.44 887.939,107.537 884.419,113.636 	
		"/>
</g>
<g>
	<polygon fill="#222427" points="903.238,113.636 899.717,107.537 903.238,101.44 910.279,101.44 913.801,107.537 910.279,113.636 	
		"/>
</g>
<g>
	<polygon fill="#222427" points="929.099,113.636 925.578,107.537 929.099,101.44 936.141,101.44 939.662,107.537 936.141,113.636 	
		"/>
</g>
<g>
	<polygon fill="#222427" points="735.14,109.887 731.62,115.985 735.14,122.084 742.184,122.084 745.704,115.985 742.184,109.887 	
		"/>
</g>
<g>
	<polygon fill="#222427" points="761.002,109.887 757.481,115.985 761.002,122.084 768.045,122.084 771.565,115.985 
		768.045,109.887 	"/>
</g>
<g>
	<polygon fill="#222427" points="864.447,109.887 860.926,115.985 864.447,122.084 871.488,122.084 875.009,115.985 
		871.488,109.887 	"/>
</g>
<g>
	<polygon fill="#222427" points="890.307,109.887 886.787,115.985 890.307,122.084 897.349,122.084 900.869,115.985 
		897.349,109.887 	"/>
</g>
<g>
	<polygon fill="#222427" points="916.169,109.887 912.648,115.985 916.169,122.084 923.209,122.084 926.73,115.985 923.209,109.887 
			"/>
</g>
<g>
	<polygon fill="#222427" points="942.029,109.887 938.51,115.985 942.029,122.084 949.07,122.084 952.593,115.985 949.07,109.887 	
		"/>
</g>
<linearGradient id="SVGID_25_" gradientUnits="userSpaceOnUse" x1="170.7622" y1="59.5029" x2="170.7622" y2="50.1826">
	<stop  offset="0" style="stop-color:#969595"/>
	<stop  offset="0.4892" style="stop-color:#EFEEEE"/>
	<stop  offset="1" style="stop-color:#969595"/>
</linearGradient>
<path fill="url(#SVGID_25_)" d="M241.629,54.843c0,2.574-1.861,4.66-4.156,4.66H104.052c-2.295,0-4.156-2.086-4.156-4.66l0,0
	c0-2.573,1.861-4.66,4.156-4.66h133.421C239.769,50.183,241.629,52.27,241.629,54.843L241.629,54.843z"/>
<linearGradient id="SVGID_26_" gradientUnits="userSpaceOnUse" x1="2301.6504" y1="-9271.8242" x2="2301.6504" y2="-9283.2686" gradientTransform="matrix(0 1 -1 0 -8283.7891 -2212.375)">
	<stop  offset="0" style="stop-color:#969595"/>
	<stop  offset="0.4892" style="stop-color:#EFEEEE"/>
	<stop  offset="1" style="stop-color:#969595"/>
</linearGradient>
<path fill="url(#SVGID_26_)" d="M993.756,124.71c-3.16,0-5.722-0.932-5.722-2.08V55.92c0-1.148,2.562-2.078,5.722-2.078l0,0
	c3.161,0,5.723,0.93,5.723,2.078v66.709C999.479,123.778,996.917,124.71,993.756,124.71L993.756,124.71z"/>
<linearGradient id="SVGID_27_" gradientUnits="userSpaceOnUse" x1="390.3892" y1="42.4902" x2="390.3892" y2="33.1704">
	<stop  offset="0" style="stop-color:#969595"/>
	<stop  offset="0.4892" style="stop-color:#EFEEEE"/>
	<stop  offset="1" style="stop-color:#969595"/>
</linearGradient>
<path fill="url(#SVGID_27_)" d="M503.878,37.83c0,2.574-2.979,4.66-6.655,4.66H283.556c-3.675,0-6.655-2.086-6.655-4.66l0,0
	c0-2.573,2.98-4.66,6.655-4.66h213.667C500.899,33.17,503.878,35.257,503.878,37.83L503.878,37.83z"/>
<linearGradient id="SVGID_28_" gradientUnits="userSpaceOnUse" x1="772.3594" y1="76.0654" x2="772.3594" y2="66.7471">
	<stop  offset="0" style="stop-color:#969595"/>
	<stop  offset="0.4892" style="stop-color:#EFEEEE"/>
	<stop  offset="1" style="stop-color:#969595"/>
</linearGradient>
<path fill="url(#SVGID_28_)" d="M950.422,71.406c0,2.573-4.676,4.659-10.443,4.659H604.74c-5.767,0-10.442-2.086-10.442-4.659l0,0
	c0-2.573,4.675-4.659,10.442-4.659h335.238C945.746,66.747,950.422,68.833,950.422,71.406L950.422,71.406z"/>
<rect x="124.425" y="71.406" fill="#565657" width="122.583" height="40.59"/>
<g>
	<rect x="89.14" y="73.406" fill="#B4B3B3" width="47.802" height="37.135"/>
	<path fill="#080404" d="M87.836,72.102h50.41v39.743h-50.41V72.102z M135.639,74.71H90.444v34.527h45.195V74.71z"/>
</g>
<rect x="286.4" y="76.409" fill="#1D1E1E" width="122.582" height="47.148"/>
<rect x="286.4" y="80.412" fill="#565657" width="122.582" height="40.591"/>
<g>
	<rect x="348.995" y="80.874" fill="#B4B3B3" width="47.802" height="37.135"/>
	<path fill="#080404" d="M347.691,79.57H398.1v39.74h-50.409V79.57z M395.493,82.178h-45.194v34.527h45.194V82.178z"/>
</g>
<rect x="241.629" y="0.001" fill="#A5A5A4" width="30.055" height="126.141"/>
<g>
	<circle fill="#222427" cx="260.941" cy="16.724" r="6.121"/>
	<circle fill="#222427" cx="260.941" cy="30.868" r="6.121"/>
	<circle fill="#222427" cx="260.941" cy="45.011" r="6.121"/>
	<circle fill="#222427" cx="260.941" cy="59.155" r="6.121"/>
	<circle fill="#222427" cx="260.941" cy="73.298" r="6.121"/>
	<circle fill="#222427" cx="260.941" cy="87.441" r="6.121"/>
	<circle fill="#222427" cx="260.941" cy="101.584" r="6.121"/>
</g>
<g>
	<circle fill="#222427" cx="525.063" cy="16.724" r="6.121"/>
	<circle fill="#222427" cx="525.063" cy="30.868" r="6.121"/>
	<circle fill="#222427" cx="525.063" cy="45.011" r="6.121"/>
	<circle fill="#222427" cx="525.063" cy="59.155" r="6.121"/>
	<circle fill="#222427" cx="525.063" cy="73.298" r="6.121"/>
	<circle fill="#222427" cx="525.063" cy="87.441" r="6.121"/>
	<circle fill="#222427" cx="525.063" cy="101.584" r="6.121"/>
</g>
<rect x="241.629" fill="#555453" width="5.379" height="46.434"/>
<rect x="243.63" y="1.001" fill="#DEDEDE" width="5.379" height="46.434"/>
<path fill="#DAE46F" stroke="#504F4F" stroke-miterlimit="10" d="M233.039,43.898c0,2.272-1.843,4.115-4.115,4.115l0,0
	c-2.272,0-4.115-1.843-4.115-4.115l0,0c0-2.272,1.843-4.115,4.115-4.115l0,0C231.195,39.784,233.039,41.626,233.039,43.898
	L233.039,43.898z"/>
<path fill="#DAE46F" stroke="#504F4F" stroke-miterlimit="10" d="M407.944,88.931c0,2.273-1.842,4.115-4.114,4.115l0,0
	c-2.272,0-4.115-1.842-4.115-4.115l0,0c0-2.271,1.842-4.113,4.115-4.113l0,0C406.102,84.817,407.944,86.659,407.944,88.931
	L407.944,88.931z"/>
<g>
	<g>
		<g>
			<path fill="#525151" d="M505.872,118.559c0,2.762-2.238,4.999-5,4.999h-78.708c-2.762,0-5-2.237-5-4.999V80.566
				c0-2.762,2.238-4.999,5-4.999h78.708c2.762,0,5,2.237,5,4.999V118.559z"/>
			<path fill="#666767" d="M498.473,115.39c0,2.302-1.865,4.167-4.166,4.167h-65.579c-2.301,0-4.166-1.865-4.166-4.167V83.735
				c0-2.301,1.865-4.167,4.166-4.167h65.579c2.301,0,4.166,1.866,4.166,4.167V115.39z"/>
		</g>
		<g>
			<g>
				<path fill="#ACACAB" d="M433.876,99.563c0,5.14-4.17,9.307-9.314,9.307s-9.314-4.167-9.314-9.307
					c0-5.139,4.17-9.304,9.314-9.304S433.876,94.424,433.876,99.563"/>
				<ellipse fill="none" stroke="#8F8F8F" stroke-miterlimit="10" cx="424.563" cy="99.563" rx="9.314" ry="9.307"/>
				<path fill="#ACACAB" d="M431.406,99.563c0,3.777-3.064,6.837-6.843,6.837s-6.843-3.06-6.843-6.837
					c0-3.775,3.064-6.837,6.843-6.837S431.406,95.787,431.406,99.563"/>
				<ellipse fill="none" stroke="#8F8F8F" stroke-miterlimit="10" cx="424.563" cy="99.563" rx="6.843" ry="6.837"/>
				<g>
					<g>
						<defs>
							<rect id="SVGID_29_" x="418.11" y="93.12" width="12.904" height="12.888"/>
						</defs>
						<clipPath id="SVGID_30_">
							<use xlink:href="#SVGID_29_"  overflow="visible"/>
						</clipPath>
						<path clip-path="url(#SVGID_30_)" fill="#BBBBBB" d="M431.012,99.563c0,3.56-2.888,6.445-6.45,6.445
							c-3.563,0-6.45-2.886-6.45-6.445c0-3.557,2.887-6.442,6.45-6.442C428.125,93.12,431.012,96.006,431.012,99.563"/>
						<path clip-path="url(#SVGID_30_)" fill="#BCBDBD" d="M430.86,99.563c0,3.476-2.82,6.293-6.298,6.293
							c-3.479,0-6.298-2.817-6.298-6.293c0-3.473,2.819-6.291,6.298-6.291C428.041,93.271,430.86,96.09,430.86,99.563"/>
						<path clip-path="url(#SVGID_30_)" fill="#C0C0C0" d="M430.708,99.563c0,3.392-2.751,6.141-6.146,6.141
							s-6.146-2.749-6.146-6.141c0-3.391,2.751-6.141,6.146-6.141S430.708,96.172,430.708,99.563"/>
						<path clip-path="url(#SVGID_30_)" fill="#C2C2C2" d="M430.557,99.563c0,3.308-2.684,5.989-5.995,5.989
							s-5.995-2.682-5.995-5.989c0-3.307,2.684-5.988,5.995-5.988S430.557,96.256,430.557,99.563"/>
						<path clip-path="url(#SVGID_30_)" fill="#C3C5C5" d="M430.406,99.563c0,3.224-2.617,5.839-5.843,5.839
							s-5.843-2.615-5.843-5.839c0-3.223,2.616-5.839,5.843-5.839S430.406,96.34,430.406,99.563"/>
						<path clip-path="url(#SVGID_30_)" fill="#C6C7C7" d="M430.253,99.563c0,3.14-2.548,5.688-5.691,5.688
							c-3.144,0-5.691-2.548-5.691-5.688c0-3.139,2.547-5.685,5.691-5.685C427.706,93.878,430.253,96.424,430.253,99.563"/>
						<path clip-path="url(#SVGID_30_)" fill="#C8CACA" d="M430.102,99.563c0,3.058-2.48,5.535-5.54,5.535
							c-3.06,0-5.539-2.478-5.539-5.535c0-3.055,2.479-5.535,5.539-5.535C427.622,94.027,430.102,96.508,430.102,99.563"/>
						<path clip-path="url(#SVGID_30_)" fill="#CACCCC" d="M429.951,99.563c0,2.974-2.413,5.383-5.388,5.383
							s-5.388-2.409-5.388-5.383c0-2.971,2.413-5.383,5.388-5.383S429.951,96.592,429.951,99.563"/>
						<path clip-path="url(#SVGID_30_)" fill="#CDCFCF" d="M429.798,99.563c0,2.89-2.344,5.231-5.236,5.231
							c-2.892,0-5.236-2.342-5.236-5.231s2.344-5.23,5.236-5.23C427.455,94.332,429.798,96.673,429.798,99.563"/>
						<path clip-path="url(#SVGID_30_)" fill="#CFD1D1" d="M429.647,99.563c0,2.806-2.276,5.079-5.084,5.079
							s-5.084-2.273-5.084-5.079s2.276-5.079,5.084-5.079S429.647,96.757,429.647,99.563"/>
					</g>
				</g>
				<polygon fill="#5F5F5E" points="423.72,103.438 423.72,100.404 420.684,100.404 420.684,98.721 423.72,98.721 423.72,95.689 
					425.405,95.689 425.405,98.721 428.441,98.721 428.441,100.404 425.405,100.404 425.405,103.438 				"/>
				<path fill="#231815" d="M425.259,95.833v2.742v0.292h0.292h2.744v1.392h-2.744h-0.292v0.292v2.741h-1.394v-2.741v-0.292h-0.292
					h-2.744v-1.392h2.744h0.292v-0.292v-2.742H425.259z M425.551,95.544h-1.978v3.031h-3.035v1.976h3.035v3.033h1.978v-3.033h3.035
					v-1.976h-3.035V95.544z"/>
			</g>
			<g>
				<path fill="#ACACAB" d="M505.786,99.563c0,5.14-4.17,9.307-9.313,9.307c-5.145,0-9.314-4.167-9.314-9.307
					c0-5.139,4.17-9.304,9.314-9.304C501.616,90.259,505.786,94.424,505.786,99.563"/>
				<ellipse fill="none" stroke="#8F8F8F" stroke-miterlimit="10" cx="496.472" cy="99.563" rx="9.314" ry="9.307"/>
				<path fill="#ACACAB" d="M503.315,99.563c0,3.777-3.064,6.837-6.843,6.837c-3.779,0-6.844-3.06-6.844-6.837
					c0-3.775,3.064-6.837,6.844-6.837C500.251,92.726,503.315,95.787,503.315,99.563"/>
				<ellipse fill="none" stroke="#8F8F8F" stroke-miterlimit="10" cx="496.472" cy="99.563" rx="6.843" ry="6.837"/>
				<g>
					<g>
						<defs>
							<rect id="SVGID_31_" x="490.02" y="93.12" width="12.903" height="12.888"/>
						</defs>
						<clipPath id="SVGID_32_">
							<use xlink:href="#SVGID_31_"  overflow="visible"/>
						</clipPath>
						<path clip-path="url(#SVGID_32_)" fill="#BBBBBB" d="M502.922,99.563c0,3.56-2.888,6.445-6.45,6.445
							c-3.563,0-6.45-2.886-6.45-6.445c0-3.557,2.888-6.442,6.45-6.442C500.034,93.12,502.922,96.006,502.922,99.563"/>
						<path clip-path="url(#SVGID_32_)" fill="#BCBDBD" d="M502.77,99.563c0,3.476-2.82,6.293-6.298,6.293
							c-3.479,0-6.298-2.817-6.298-6.293c0-3.473,2.819-6.291,6.298-6.291C499.95,93.271,502.77,96.09,502.77,99.563"/>
						<path clip-path="url(#SVGID_32_)" fill="#C0C0C0" d="M502.618,99.563c0,3.392-2.751,6.141-6.146,6.141
							s-6.146-2.749-6.146-6.141c0-3.391,2.752-6.141,6.146-6.141S502.618,96.172,502.618,99.563"/>
						<path clip-path="url(#SVGID_32_)" fill="#C2C2C2" d="M502.466,99.563c0,3.308-2.684,5.989-5.994,5.989
							c-3.312,0-5.995-2.682-5.995-5.989c0-3.307,2.684-5.988,5.995-5.988C499.783,93.574,502.466,96.256,502.466,99.563"/>
						<path clip-path="url(#SVGID_32_)" fill="#C3C5C5" d="M502.315,99.563c0,3.224-2.616,5.839-5.843,5.839
							s-5.843-2.615-5.843-5.839c0-3.223,2.616-5.839,5.843-5.839S502.315,96.34,502.315,99.563"/>
						<path clip-path="url(#SVGID_32_)" fill="#C6C7C7" d="M502.163,99.563c0,3.14-2.548,5.688-5.691,5.688
							c-3.144,0-5.691-2.548-5.691-5.688c0-3.139,2.548-5.685,5.691-5.685C499.615,93.878,502.163,96.424,502.163,99.563"/>
						<path clip-path="url(#SVGID_32_)" fill="#C8CACA" d="M502.011,99.563c0,3.058-2.48,5.535-5.539,5.535
							c-3.06,0-5.539-2.478-5.539-5.535c0-3.055,2.479-5.535,5.539-5.535C499.531,94.027,502.011,96.508,502.011,99.563"/>
						<path clip-path="url(#SVGID_32_)" fill="#CACCCC" d="M501.86,99.563c0,2.974-2.413,5.383-5.388,5.383
							c-2.976,0-5.389-2.409-5.389-5.383c0-2.971,2.413-5.383,5.389-5.383C499.447,94.18,501.86,96.592,501.86,99.563"/>
						<path clip-path="url(#SVGID_32_)" fill="#CDCFCF" d="M501.708,99.563c0,2.89-2.344,5.231-5.236,5.231
							s-5.236-2.342-5.236-5.231s2.345-5.23,5.236-5.23S501.708,96.673,501.708,99.563"/>
						<path clip-path="url(#SVGID_32_)" fill="#CFD1D1" d="M501.556,99.563c0,2.806-2.276,5.079-5.084,5.079
							c-2.809,0-5.085-2.273-5.085-5.079s2.276-5.079,5.085-5.079C499.28,94.483,501.556,96.757,501.556,99.563"/>
					</g>
				</g>
				<polygon fill="#5F5F5E" points="495.629,103.438 495.629,100.404 492.593,100.404 492.593,98.721 495.629,98.721 
					495.629,95.689 497.314,95.689 497.314,98.721 500.35,98.721 500.35,100.404 497.314,100.404 497.314,103.438 				"/>
				<path fill="#231815" d="M497.169,95.833v2.742v0.292h0.292h2.744v1.392h-2.744h-0.292v0.292v2.741h-1.394v-2.741v-0.292h-0.292
					h-2.744v-1.392h2.744h0.292v-0.292v-2.742H497.169z M497.46,95.544h-1.977v3.031h-3.036v1.976h3.036v3.033h1.977v-3.033h3.035
					v-1.976h-3.035V95.544z"/>
			</g>
		</g>
	</g>
	<circle fill="#4D4C4C" cx="459.577" cy="99.079" r="15.314"/>
	<circle fill="#333333" cx="459.576" cy="99.079" r="11.501"/>
</g>
<rect x="38.25" fill="#222427" width="33.642" height="52.347"/>
<rect x="549.055" fill="#222427" width="33.642" height="52.347"/>
<g>
	<rect x="585.464" y="11.586" fill="#4A4949" width="371.358" height="53.103"/>
	<rect x="588.153" y="14.466" fill="#898989" width="365.979" height="47.343"/>
</g>
<g>
	<rect x="717.027" y="19.419" fill="#B4B3B3" width="47.802" height="37.134"/>
	<path fill="#080404" d="M715.724,18.115h50.409v39.742h-50.409V18.115z M763.525,20.723h-45.194V55.25h45.194V20.723z"/>
</g>
<g>
	<rect x="794.361" y="19.419" fill="#B4B3B3" width="47.801" height="37.134"/>
	<path fill="#080404" d="M793.057,18.115h50.41v39.742h-50.41V18.115z M840.859,20.723h-45.195V55.25h45.195V20.723z"/>
</g>
<linearGradient id="SVGID_33_" gradientUnits="userSpaceOnUse" x1="965.6934" y1="43.1323" x2="965.6934" y2="26.6465" gradientTransform="matrix(1 0 0 1 -3.3218 -24.8169)">
	<stop  offset="0" style="stop-color:#969595"/>
	<stop  offset="0.4892" style="stop-color:#EFEEEE"/>
	<stop  offset="1" style="stop-color:#969595"/>
</linearGradient>
<path fill="url(#SVGID_33_)" d="M997.806,10.073c0,4.553-0.931,8.242-2.078,8.242h-66.71c-1.148,0-2.078-3.689-2.078-8.242l0,0
	c0-4.552,0.93-8.244,2.078-8.244h66.71C996.875,1.83,997.806,5.521,997.806,10.073L997.806,10.073z"/>
<g>
	<path fill="#808081" d="M578.739,116.334c0,2.669-1.763,4.835-3.937,4.835h-40.193c-2.174,0-3.937-2.166-3.937-4.835l0,0
		c0-2.672,1.762-4.838,3.937-4.838h40.193C576.977,111.496,578.739,113.662,578.739,116.334L578.739,116.334z"/>
	<path fill="#DAE46F" stroke="#504F4F" stroke-miterlimit="10" d="M539.988,116.34c0,2.273-1.842,4.115-4.115,4.115l0,0
		c-2.272,0-4.114-1.842-4.114-4.115l0,0c0-2.271,1.842-4.113,4.114-4.113l0,0C538.146,112.227,539.988,114.068,539.988,116.34
		L539.988,116.34z"/>
</g>
<rect x="958.2" y="18.316" fill="#7C7C7D" width="4.173" height="46.374"/>
<rect x="966.545" y="18.316" fill="#7C7C7D" width="4.172" height="46.374"/>
<rect x="962.372" y="18.316" fill="#222427" width="4.173" height="46.374"/>
</svg>
