<?xml version="1.0" encoding="utf-8"?>
<!-- Generator: Adobe Illustrator 16.0.0, SVG Export Plug-In . SVG Version: 6.00 Build 0)  -->
<!DOCTYPE svg PUBLIC "-//W3C//DTD SVG 1.1//EN" "http://www.w3.org/Graphics/SVG/1.1/DTD/svg11.dtd">
<svg version="1.1" id="图层_1" xmlns="http://www.w3.org/2000/svg" xmlns:xlink="http://www.w3.org/1999/xlink" x="0px" y="0px"
	 width="1275.59px" height="126.14px" viewBox="0 0 1275.59 126.14" enable-background="new 0 0 1275.59 126.14"
	 xml:space="preserve">
<rect fill="#4E4F4E" width="1275.59" height="126.142"/>
<g>
	<rect y="0.001" fill="#232527" width="44.12" height="126.14"/>
	<rect x="38.421" y="0.001" fill="#232527" width="6.329" height="126.14"/>
	<path fill="#4B4B4D" d="M22.06,47.142C15.52,47.142,0,45.265,0,33.081v93.061h44.12V33.081C44.12,45.265,28.6,47.142,22.06,47.142z
		"/>
	<path fill="#9599A0" d="M1.81,9.779c0,0,20.25,15.333,40.5,0v21.833c0,0-18.667,14.167-40.5,0V9.779z"/>
	<path fill="#C9CFD7" d="M1.81,15.612c0,0,20.25,15.333,40.5,0v21.833c0,0-18.667,14.167-40.5,0V15.612z"/>
	<path fill="#3F4040" d="M1.81,15.862c0,0,20.25,15.333,40.5,0v21.833c0,0-18.685,16.054-40.5,0V15.862z"/>
</g>
<rect x="1231.471" y="0.002" fill="#232527" width="44.119" height="126.14"/>
<rect x="1230.84" y="0.002" fill="#232527" width="6.33" height="126.14"/>
<path fill="#4B4B4D" d="M1253.53,47.142c6.54,0,22.06-1.877,22.06-14.061v93.06h-44.119v-93.06
	C1231.471,45.265,1246.99,47.142,1253.53,47.142z"/>
<path fill="#9599A0" d="M1273.78,9.779c0,0-20.25,15.333-40.5,0v21.833c0,0,18.667,14.166,40.5,0V9.779z"/>
<path fill="#C9CFD7" d="M1273.78,15.613c0,0-20.25,15.334-40.5,0v21.834c0,0,18.667,14.166,40.5,0V15.613z"/>
<path fill="#3F4040" d="M1273.78,15.863c0,0-20.25,15.334-40.5,0v21.834c0,0,18.685,16.054,40.5,0V15.863z"/>
<rect x="1233.28" y="71.667" fill="none" stroke="#212426" stroke-miterlimit="10" width="40.5" height="41"/>
<path fill-rule="evenodd" clip-rule="evenodd" fill="#FFFFFF" d="M1249.175,98.38h2.712h3.078c-0.056,0.323-0.151,0.64-0.291,0.935
	h-10.225V98.38H1249.175z M1251.7,97.454l-0.191-0.934h3.329c0.096,0.302,0.154,0.617,0.175,0.934H1251.7z M1249.175,97.454h-2.83
	v-0.934h2.83V97.454z M1246.346,95.585v-0.936h7.083c0.393,0.244,0.714,0.566,0.961,0.936H1246.346z M1246.346,93.725v-0.936h2.829
	h2.334h2.944c-0.253,0.375-0.588,0.695-1.005,0.936H1246.346z M1246.346,90.916h2.83v0.937h-2.83V90.916z M1244.449,89.992v-0.937
	h10.198c0.149,0.297,0.257,0.612,0.325,0.937H1244.449z M1255.046,90.916c-0.013,0.318-0.062,0.635-0.151,0.937h-3.196l0.188-0.937
	H1255.046z M1260.724,95.585h-2.747v-0.936h2.747V95.585z M1257.977,93.725v-0.936h5.476l0.358,0.936H1257.977z M1257.977,91.853
	v-0.937h4.758l0.359,0.937H1257.977z M1256.047,89.992v-0.937h5.975l0.358,0.937H1256.047z M1263.817,93.725l0.366-0.936h5.322
	v0.936H1263.817z M1264.55,91.853l0.365-0.937h4.591v0.937H1264.55z M1265.276,89.992l0.367-0.937h5.856v0.937H1265.276z
	 M1269.506,95.585h-2.634v-0.936h2.634V95.585z M1266.072,94.649l-0.323,0.936h-3.998l-0.339-0.936H1266.072z M1260.724,97.454
	h-2.747v-0.934h2.747V97.454z M1269.506,97.454h-2.634v-0.934h2.634V97.454z M1265.426,96.521l-0.324,0.934h-2.67l-0.34-0.934
	H1265.426z M1260.724,99.314h-4.677V98.38h4.677V99.314z M1271.5,99.314h-4.628V98.38h4.628V99.314z M1264.781,98.38l-0.323,0.935
	h-1.352l-0.34-0.935H1264.781z M1260.724,101.223h-4.677v-0.972h4.677V101.223z M1271.5,101.223h-4.628v-0.972h4.628V101.223z
	 M1264.134,100.252l-0.337,0.971l-0.353-0.971H1264.134z M1256.047,88.121v-0.912h5.266l0.35,0.912H1256.047z M1266.009,88.121
	l0.356-0.912h5.135v0.912H1266.009z M1244.449,87.209v0.912h9.501c-0.592-0.554-1.421-0.912-2.486-0.912H1244.449z
	 M1244.449,100.252v0.971h7.015c1.121-0.003,1.972-0.386,2.557-0.971H1244.449z M1236.605,87.209h6.51v0.912h-6.51V87.209z
	 M1243.114,89.992h-6.509v-0.936h6.509V89.992z M1241.217,91.853h-2.764v-0.936h2.764V91.853z M1241.217,93.725h-2.764v-0.936h2.764
	V93.725z M1241.217,95.585h-2.764v-0.936h2.764V95.585z M1241.217,97.454h-2.764v-0.934h2.764V97.454z M1243.114,99.314h-6.509
	V98.38h6.509V99.314z M1243.114,101.223h-6.509v-0.972h6.509V101.223z"/>
</svg>
