<?xml version="1.0" encoding="utf-8"?>
<!-- Generator: Adobe Illustrator 16.0.0, SVG Export Plug-In . SVG Version: 6.00 Build 0)  -->
<!DOCTYPE svg PUBLIC "-//W3C//DTD SVG 1.1//EN" "http://www.w3.org/Graphics/SVG/1.1/DTD/svg11.dtd">
<svg version="1.1" id="图层_1" xmlns="http://www.w3.org/2000/svg" xmlns:xlink="http://www.w3.org/1999/xlink" x="0px" y="0px"
	 width="1275.59px" height="126.14px" viewBox="0 0 1275.59 126.14" enable-background="new 0 0 1275.59 126.14"
	 xml:space="preserve">
<rect fill="#B1B4B5" width="1275.591" height="126.143"/>
<linearGradient id="SVGID_1_" gradientUnits="userSpaceOnUse" x1="982.2959" y1="73.0918" x2="982.2959" y2="5.3389">
	<stop  offset="0.0408" style="stop-color:#717071"/>
	<stop  offset="0.1279" style="stop-color:#B1B4B5"/>
	<stop  offset="0.5003" style="stop-color:#DBDCDC"/>
	<stop  offset="0.9229" style="stop-color:#B1B4B5"/>
	<stop  offset="1" style="stop-color:#717071"/>
</linearGradient>
<rect x="709.744" y="5.338" fill="url(#SVGID_1_)" width="545.104" height="67.753"/>
<g>
	<rect x="958.544" y="17.665" fill="#A1A2A2" stroke="#39393A" stroke-miterlimit="10" width="278.395" height="41.237"/>
	
		<linearGradient id="SVGID_2_" gradientUnits="userSpaceOnUse" x1="1097.8906" y1="-4759.0405" x2="1097.8906" y2="-4764.2681" gradientTransform="matrix(1 0 0 -1 0 -4739.5986)">
		<stop  offset="0.0699" style="stop-color:#717071"/>
		<stop  offset="0.3065" style="stop-color:#B1B4B5"/>
		<stop  offset="0.4839" style="stop-color:#D5D5D5"/>
		<stop  offset="0.6882" style="stop-color:#B1B4B5"/>
		<stop  offset="0.8656" style="stop-color:#717071"/>
	</linearGradient>
	<rect x="958.845" y="19.442" fill="url(#SVGID_2_)" width="278.094" height="5.228"/>
	
		<linearGradient id="SVGID_3_" gradientUnits="userSpaceOnUse" x1="1097.8916" y1="-10.7739" x2="1097.8916" y2="-16.0024" gradientTransform="matrix(1 0 0 1 0 69.0967)">
		<stop  offset="0.0699" style="stop-color:#717071"/>
		<stop  offset="0.3065" style="stop-color:#B1B4B5"/>
		<stop  offset="0.4839" style="stop-color:#D5D5D5"/>
		<stop  offset="0.6882" style="stop-color:#B1B4B5"/>
		<stop  offset="0.8656" style="stop-color:#717071"/>
	</linearGradient>
	<rect x="958.845" y="53.094" fill="url(#SVGID_3_)" width="278.094" height="5.229"/>
</g>
<linearGradient id="SVGID_4_" gradientUnits="userSpaceOnUse" x1="872.0469" y1="4227.5898" x2="878.2422" y2="4227.5898" gradientTransform="matrix(0 1 1 0 -3589.7939 -752.0996)">
	<stop  offset="0.0699" style="stop-color:#717071"/>
	<stop  offset="0.3065" style="stop-color:#B1B4B5"/>
	<stop  offset="0.4839" style="stop-color:#D5D5D5"/>
	<stop  offset="0.6882" style="stop-color:#B1B4B5"/>
	<stop  offset="0.8656" style="stop-color:#717071"/>
</linearGradient>
<rect y="119.947" fill="url(#SVGID_4_)" width="1275.591" height="6.195"/>
<linearGradient id="SVGID_5_" gradientUnits="userSpaceOnUse" x1="752.0996" y1="4227.5898" x2="758.2949" y2="4227.5898" gradientTransform="matrix(0 1 1 0 -3589.7939 -752.0996)">
	<stop  offset="0.0699" style="stop-color:#717071"/>
	<stop  offset="0.3065" style="stop-color:#B1B4B5"/>
	<stop  offset="0.4839" style="stop-color:#D5D5D5"/>
	<stop  offset="0.6882" style="stop-color:#B1B4B5"/>
	<stop  offset="0.8656" style="stop-color:#717071"/>
</linearGradient>
<rect fill="url(#SVGID_5_)" width="1275.591" height="6.196"/>
<linearGradient id="SVGID_6_" gradientUnits="userSpaceOnUse" x1="-12491.877" y1="63.0713" x2="-12488.9258" y2="63.0713" gradientTransform="matrix(-1 0 0 1 -11216.2861 0)">
	<stop  offset="0.0699" style="stop-color:#717071"/>
	<stop  offset="0.3065" style="stop-color:#B1B4B5"/>
	<stop  offset="0.4839" style="stop-color:#D5D5D5"/>
	<stop  offset="0.6882" style="stop-color:#B1B4B5"/>
	<stop  offset="0.8656" style="stop-color:#717071"/>
</linearGradient>
<rect x="1272.64" fill="url(#SVGID_6_)" width="2.951" height="126.143"/>
<linearGradient id="SVGID_7_" gradientUnits="userSpaceOnUse" x1="-11219.2383" y1="63.0713" x2="-11216.2861" y2="63.0713" gradientTransform="matrix(-1 0 0 1 -11216.2861 0)">
	<stop  offset="0.0699" style="stop-color:#717071"/>
	<stop  offset="0.3065" style="stop-color:#B1B4B5"/>
	<stop  offset="0.4839" style="stop-color:#D5D5D5"/>
	<stop  offset="0.6882" style="stop-color:#B1B4B5"/>
	<stop  offset="0.8656" style="stop-color:#717071"/>
</linearGradient>
<rect fill="url(#SVGID_7_)" width="2.952" height="126.143"/>
<g>
	<rect x="1254.848" fill="#373838" width="17.833" height="10.675"/>
	
		<linearGradient id="SVGID_8_" gradientUnits="userSpaceOnUse" x1="-12481.7754" y1="10.2168" x2="-12481.7754" y2="-4.882813e-004" gradientTransform="matrix(-1 0 0 1 -11216.2861 0)">
		<stop  offset="0" style="stop-color:#3E3A39"/>
		<stop  offset="0.086" style="stop-color:#717071"/>
		<stop  offset="0.5753" style="stop-color:#B1B4B5"/>
		<stop  offset="0.6989" style="stop-color:#D5D5D5"/>
		<stop  offset="0.9462" style="stop-color:#717071"/>
	</linearGradient>
	<rect x="1255.39" fill="url(#SVGID_8_)" width="20.201" height="10.217"/>
</g>
<polygon fill="#1D1D1D" points="674.135,84.973 679.38,81.943 684.626,84.973 684.626,91.029 679.38,94.057 674.135,91.029 "/>
<polygon fill="#1D1D1D" points="674.135,108.775 679.38,105.746 684.626,108.775 684.626,114.832 679.38,117.859 674.135,114.832 
	"/>
<polygon fill="#1D1D1D" points="637.401,84.973 642.646,81.943 647.893,84.973 647.893,91.029 642.646,94.057 637.401,91.029 "/>
<polygon fill="#1D1D1D" points="637.401,108.775 642.646,105.746 647.893,108.775 647.893,114.832 642.646,117.859 637.401,114.832 
	"/>
<polygon fill="#1D1D1D" points="643.572,72.857 648.816,69.83 654.063,72.857 654.063,78.914 648.816,81.943 643.572,78.914 "/>
<polygon fill="#1D1D1D" points="662.067,84.973 667.313,81.943 672.558,84.973 672.558,91.029 667.313,94.057 662.067,91.029 "/>
<polygon fill="#1D1D1D" points="649.734,84.973 654.979,81.943 660.225,84.973 660.225,91.029 654.979,94.057 649.734,91.029 "/>
<polygon fill="#1D1D1D" points="643.568,97.086 648.813,94.057 654.059,97.086 654.059,103.143 648.813,106.17 643.568,103.143 "/>
<polygon fill="#1D1D1D" points="662.067,108.775 667.313,105.746 672.558,108.775 672.558,114.832 667.313,117.859 662.067,114.832 
	"/>
<polygon fill="#1D1D1D" points="649.734,108.775 654.979,105.746 660.225,108.775 660.225,114.832 654.979,117.859 649.734,114.832 
	"/>
<polygon fill="#1D1D1D" points="655.904,72.857 661.149,69.83 666.396,72.857 666.396,78.914 661.149,81.943 655.904,78.914 "/>
<polygon fill="#1D1D1D" points="655.9,97.086 661.146,94.057 666.392,97.086 666.392,103.143 661.146,106.17 655.9,103.143 "/>
<polygon fill="#1D1D1D" points="668.64,73.07 673.886,70.041 679.131,73.07 679.131,79.127 673.886,82.154 668.64,79.127 "/>
<polygon fill="#1D1D1D" points="668.636,97.297 673.881,94.27 679.127,97.297 679.127,103.354 673.881,106.383 668.636,103.354 "/>
<g>
	<polygon fill="#1D1D1D" points="426.468,13.875 431.713,10.847 436.959,13.875 436.959,19.932 431.713,22.96 426.468,19.932 	"/>
	<polygon fill="#1D1D1D" points="414.135,13.875 419.38,10.847 424.626,13.875 424.626,19.932 419.38,22.96 414.135,19.932 	"/>
	<polygon fill="#1D1D1D" points="401.802,13.875 407.047,10.847 412.292,13.875 412.292,19.932 407.047,22.96 401.802,19.932 	"/>
	<polygon fill="#1D1D1D" points="389.469,13.875 394.713,10.847 399.96,13.875 399.96,19.932 394.713,22.96 389.469,19.932 	"/>
	<polygon fill="#1D1D1D" points="476.095,13.875 481.34,10.847 486.585,13.875 486.585,19.932 481.34,22.96 476.095,19.932 	"/>
	<polygon fill="#1D1D1D" points="463.762,13.875 469.007,10.847 474.252,13.875 474.252,19.932 469.007,22.96 463.762,19.932 	"/>
	<polygon fill="#1D1D1D" points="451.429,13.875 456.673,10.847 461.92,13.875 461.92,19.932 456.673,22.96 451.429,19.932 	"/>
	<polygon fill="#1D1D1D" points="439.096,13.875 444.341,10.847 449.586,13.875 449.586,19.932 444.341,22.96 439.096,19.932 	"/>
	<polygon fill="#1D1D1D" points="525.722,13.875 530.967,10.847 536.212,13.875 536.212,19.932 530.967,22.96 525.722,19.932 	"/>
	<polygon fill="#1D1D1D" points="513.389,13.875 518.633,10.847 523.879,13.875 523.879,19.932 518.633,22.96 513.389,19.932 	"/>
	<polygon fill="#1D1D1D" points="501.056,13.875 506.301,10.847 511.546,13.875 511.546,19.932 506.301,22.96 501.056,19.932 	"/>
	<polygon fill="#1D1D1D" points="488.722,13.875 493.968,10.847 499.213,13.875 499.213,19.932 493.968,22.96 488.722,19.932 	"/>
	<polygon fill="#1D1D1D" points="575.348,13.875 580.593,10.847 585.839,13.875 585.839,19.932 580.593,22.96 575.348,19.932 	"/>
	<polygon fill="#1D1D1D" points="563.015,13.875 568.259,10.847 573.505,13.875 573.505,19.932 568.259,22.96 563.015,19.932 	"/>
	<polygon fill="#1D1D1D" points="550.682,13.875 555.927,10.847 561.173,13.875 561.173,19.932 555.927,22.96 550.682,19.932 	"/>
	<polygon fill="#1D1D1D" points="538.349,13.875 543.594,10.847 548.84,13.875 548.84,19.932 543.594,22.96 538.349,19.932 	"/>
	<polygon fill="#1D1D1D" points="600.309,13.875 605.554,10.847 610.8,13.875 610.8,19.932 605.554,22.96 600.309,19.932 	"/>
	<polygon fill="#1D1D1D" points="587.976,13.875 593.221,10.847 598.467,13.875 598.467,19.932 593.221,22.96 587.976,19.932 	"/>
	<polygon fill="#1D1D1D" points="432.63,25.99 437.875,22.96 443.121,25.99 443.121,32.046 437.875,35.075 432.63,32.046 	"/>
	<polygon fill="#1D1D1D" points="420.297,25.99 425.542,22.96 430.788,25.99 430.788,32.046 425.542,35.075 420.297,32.046 	"/>
	<polygon fill="#1D1D1D" points="407.964,25.99 413.209,22.96 418.455,25.99 418.455,32.046 413.209,35.075 407.964,32.046 	"/>
	<polygon fill="#1D1D1D" points="395.631,25.99 400.876,22.96 406.122,25.99 406.122,32.046 400.876,35.075 395.631,32.046 	"/>
	<polygon fill="#1D1D1D" points="482.257,25.99 487.502,22.96 492.748,25.99 492.748,32.046 487.502,35.075 482.257,32.046 	"/>
	<polygon fill="#1D1D1D" points="469.924,25.99 475.169,22.96 480.415,25.99 480.415,32.046 475.169,35.075 469.924,32.046 	"/>
	<polygon fill="#1D1D1D" points="457.591,25.99 462.836,22.96 468.082,25.99 468.082,32.046 462.836,35.075 457.591,32.046 	"/>
	<polygon fill="#1D1D1D" points="445.257,25.99 450.503,22.96 455.749,25.99 455.749,32.046 450.503,35.075 445.257,32.046 	"/>
	<polygon fill="#1D1D1D" points="531.884,25.99 537.129,22.96 542.375,25.99 542.375,32.046 537.129,35.075 531.884,32.046 	"/>
	<polygon fill="#1D1D1D" points="519.551,25.99 524.796,22.96 530.042,25.99 530.042,32.046 524.796,35.075 519.551,32.046 	"/>
	<polygon fill="#1D1D1D" points="507.217,25.99 512.463,22.96 517.708,25.99 517.708,32.046 512.463,35.075 507.217,32.046 	"/>
	<polygon fill="#1D1D1D" points="494.885,25.99 500.13,22.96 505.375,25.99 505.375,32.046 500.13,35.075 494.885,32.046 	"/>
	<polygon fill="#1D1D1D" points="581.511,25.99 586.756,22.96 592,25.99 592,32.046 586.756,35.075 581.511,32.046 	"/>
	<polygon fill="#1D1D1D" points="569.178,25.99 574.423,22.96 579.668,25.99 579.668,32.046 574.423,35.075 569.178,32.046 	"/>
	<polygon fill="#1D1D1D" points="556.845,25.99 562.089,22.96 567.334,25.99 567.334,32.046 562.089,35.075 556.845,32.046 	"/>
	<polygon fill="#1D1D1D" points="544.512,25.99 549.757,22.96 555.002,25.99 555.002,32.046 549.757,35.075 544.512,32.046 	"/>
	<polygon fill="#1D1D1D" points="594.138,25.99 599.383,22.96 604.629,25.99 604.629,32.046 599.383,35.075 594.138,32.046 	"/>
	<polygon fill="#1D1D1D" points="426.464,38.103 431.708,35.075 436.954,38.103 436.954,44.16 431.708,47.188 426.464,44.16 	"/>
	<polygon fill="#1D1D1D" points="414.131,38.103 419.376,35.075 424.622,38.103 424.622,44.16 419.376,47.188 414.131,44.16 	"/>
	<polygon fill="#1D1D1D" points="401.797,38.103 407.042,35.075 412.289,38.103 412.289,44.16 407.042,47.188 401.797,44.16 	"/>
	<polygon fill="#1D1D1D" points="389.465,38.103 394.71,35.075 399.956,38.103 399.956,44.16 394.71,47.188 389.465,44.16 	"/>
	<polygon fill="#1D1D1D" points="476.091,38.103 481.336,35.075 486.58,38.103 486.58,44.16 481.336,47.188 476.091,44.16 	"/>
	<polygon fill="#1D1D1D" points="463.757,38.103 469.003,35.075 474.248,38.103 474.248,44.16 469.003,47.188 463.757,44.16 	"/>
	<polygon fill="#1D1D1D" points="451.425,38.103 456.67,35.075 461.915,38.103 461.915,44.16 456.67,47.188 451.425,44.16 	"/>
	<polygon fill="#1D1D1D" points="439.092,38.103 444.337,35.075 449.582,38.103 449.582,44.16 444.337,47.188 439.092,44.16 	"/>
	<polygon fill="#1D1D1D" points="525.717,38.103 530.962,35.075 536.208,38.103 536.208,44.16 530.962,47.188 525.717,44.16 	"/>
	<polygon fill="#1D1D1D" points="513.384,38.103 518.629,35.075 523.875,38.103 523.875,44.16 518.629,47.188 513.384,44.16 	"/>
	<polygon fill="#1D1D1D" points="501.051,38.103 506.296,35.075 511.542,38.103 511.542,44.16 506.296,47.188 501.051,44.16 	"/>
	<polygon fill="#1D1D1D" points="488.718,38.103 493.964,35.075 499.208,38.103 499.208,44.16 493.964,47.188 488.718,44.16 	"/>
	<polygon fill="#1D1D1D" points="575.344,38.103 580.589,35.075 585.834,38.103 585.834,44.16 580.589,47.188 575.344,44.16 	"/>
	<polygon fill="#1D1D1D" points="563.011,38.103 568.256,35.075 573.502,38.103 573.502,44.16 568.256,47.188 563.011,44.16 	"/>
	<polygon fill="#1D1D1D" points="550.678,38.103 555.923,35.075 561.169,38.103 561.169,44.16 555.923,47.188 550.678,44.16 	"/>
	<polygon fill="#1D1D1D" points="538.345,38.103 543.589,35.075 548.836,38.103 548.836,44.16 543.589,47.188 538.345,44.16 	"/>
	<polygon fill="#1D1D1D" points="600.305,38.103 605.549,35.075 610.795,38.103 610.795,44.16 605.549,47.188 600.305,44.16 	"/>
	<polygon fill="#1D1D1D" points="587.972,38.103 593.217,35.075 598.462,38.103 598.462,44.16 593.217,47.188 587.972,44.16 	"/>
	<polygon fill="#1D1D1D" points="432.63,49.792 437.875,46.764 443.121,49.792 443.121,55.849 437.875,58.877 432.63,55.849 	"/>
	<polygon fill="#1D1D1D" points="420.297,49.792 425.542,46.764 430.788,49.792 430.788,55.849 425.542,58.877 420.297,55.849 	"/>
	<polygon fill="#1D1D1D" points="407.964,49.792 413.209,46.764 418.455,49.792 418.455,55.849 413.209,58.877 407.964,55.849 	"/>
	<polygon fill="#1D1D1D" points="395.631,49.792 400.876,46.764 406.122,49.792 406.122,55.849 400.876,58.877 395.631,55.849 	"/>
	<polygon fill="#1D1D1D" points="482.257,49.792 487.502,46.764 492.748,49.792 492.748,55.849 487.502,58.877 482.257,55.849 	"/>
	<polygon fill="#1D1D1D" points="469.924,49.792 475.169,46.764 480.415,49.792 480.415,55.849 475.169,58.877 469.924,55.849 	"/>
	<polygon fill="#1D1D1D" points="457.591,49.792 462.836,46.764 468.082,49.792 468.082,55.849 462.836,58.877 457.591,55.849 	"/>
	<polygon fill="#1D1D1D" points="445.257,49.792 450.503,46.764 455.749,49.792 455.749,55.849 450.503,58.877 445.257,55.849 	"/>
	<polygon fill="#1D1D1D" points="531.884,49.792 537.129,46.764 542.375,49.792 542.375,55.849 537.129,58.877 531.884,55.849 	"/>
	<polygon fill="#1D1D1D" points="519.551,49.792 524.796,46.764 530.042,49.792 530.042,55.849 524.796,58.877 519.551,55.849 	"/>
	<polygon fill="#1D1D1D" points="507.217,49.792 512.463,46.764 517.708,49.792 517.708,55.849 512.463,58.877 507.217,55.849 	"/>
	<polygon fill="#1D1D1D" points="494.885,49.792 500.13,46.764 505.375,49.792 505.375,55.849 500.13,58.877 494.885,55.849 	"/>
	<polygon fill="#1D1D1D" points="581.511,49.792 586.756,46.764 592,49.792 592,55.849 586.756,58.877 581.511,55.849 	"/>
	<polygon fill="#1D1D1D" points="569.178,49.792 574.423,46.764 579.668,49.792 579.668,55.849 574.423,58.877 569.178,55.849 	"/>
	<polygon fill="#1D1D1D" points="556.845,49.792 562.089,46.764 567.334,49.792 567.334,55.849 562.089,58.877 556.845,55.849 	"/>
	<polygon fill="#1D1D1D" points="544.512,49.792 549.757,46.764 555.002,49.792 555.002,55.849 549.757,58.877 544.512,55.849 	"/>
	<polygon fill="#1D1D1D" points="594.138,49.792 599.383,46.764 604.629,49.792 604.629,55.849 599.383,58.877 594.138,55.849 	"/>
	<polygon fill="#1D1D1D" points="426.464,61.907 431.708,58.877 436.954,61.907 436.954,67.963 431.708,70.992 426.464,67.963 	"/>
	<polygon fill="#1D1D1D" points="414.131,61.907 419.376,58.877 424.622,61.907 424.622,67.963 419.376,70.992 414.131,67.963 	"/>
	<polygon fill="#1D1D1D" points="401.797,61.907 407.042,58.877 412.289,61.907 412.289,67.963 407.042,70.992 401.797,67.963 	"/>
	<polygon fill="#1D1D1D" points="389.465,61.907 394.71,58.877 399.956,61.907 399.956,67.963 394.71,70.992 389.465,67.963 	"/>
	<polygon fill="#1D1D1D" points="476.091,61.907 481.336,58.877 486.58,61.907 486.58,67.963 481.336,70.992 476.091,67.963 	"/>
	<polygon fill="#1D1D1D" points="463.757,61.907 469.003,58.877 474.248,61.907 474.248,67.963 469.003,70.992 463.757,67.963 	"/>
	<polygon fill="#1D1D1D" points="451.425,61.907 456.67,58.877 461.915,61.907 461.915,67.963 456.67,70.992 451.425,67.963 	"/>
	<polygon fill="#1D1D1D" points="439.092,61.907 444.337,58.877 449.582,61.907 449.582,67.963 444.337,70.992 439.092,67.963 	"/>
	<polygon fill="#1D1D1D" points="525.717,61.907 530.962,58.877 536.208,61.907 536.208,67.963 530.962,70.992 525.717,67.963 	"/>
	<polygon fill="#1D1D1D" points="513.384,61.907 518.629,58.877 523.875,61.907 523.875,67.963 518.629,70.992 513.384,67.963 	"/>
	<polygon fill="#1D1D1D" points="501.051,61.907 506.296,58.877 511.542,61.907 511.542,67.963 506.296,70.992 501.051,67.963 	"/>
	<polygon fill="#1D1D1D" points="488.718,61.907 493.964,58.877 499.208,61.907 499.208,67.963 493.964,70.992 488.718,67.963 	"/>
	<polygon fill="#1D1D1D" points="575.344,61.907 580.589,58.877 585.834,61.907 585.834,67.963 580.589,70.992 575.344,67.963 	"/>
	<polygon fill="#1D1D1D" points="563.011,61.907 568.256,58.877 573.502,61.907 573.502,67.963 568.256,70.992 563.011,67.963 	"/>
	<polygon fill="#1D1D1D" points="550.678,61.907 555.923,58.877 561.169,61.907 561.169,67.963 555.923,70.992 550.678,67.963 	"/>
	<polygon fill="#1D1D1D" points="538.345,61.907 543.589,58.877 548.836,61.907 548.836,67.963 543.589,70.992 538.345,67.963 	"/>
	<g>
		<polygon fill="#1D1D1D" points="606.471,25.99 611.716,22.96 616.962,25.99 616.962,32.046 611.716,35.075 606.471,32.046 		"/>
		<polygon fill="#1D1D1D" points="606.471,49.792 611.716,46.764 616.962,49.792 616.962,55.849 611.716,58.877 606.471,55.849 		
			"/>
		<g>
			<polygon fill="#1D1D1D" points="612.642,13.875 617.887,10.847 623.133,13.875 623.133,19.932 617.887,22.96 612.642,19.932 			
				"/>
			<polygon fill="#1D1D1D" points="631.137,25.99 636.382,22.96 641.628,25.99 641.628,32.046 636.382,35.075 631.137,32.046 			"/>
			<polygon fill="#1D1D1D" points="618.804,25.99 624.049,22.96 629.295,25.99 629.295,32.046 624.049,35.075 618.804,32.046 			"/>
			<polygon fill="#1D1D1D" points="612.638,38.103 617.883,35.075 623.128,38.103 623.128,44.16 617.883,47.188 612.638,44.16 			
				"/>
			<polygon fill="#1D1D1D" points="631.137,49.792 636.382,46.764 641.628,49.792 641.628,55.849 636.382,58.877 631.137,55.849 			
				"/>
			<polygon fill="#1D1D1D" points="618.804,49.792 624.049,46.764 629.295,49.792 629.295,55.849 624.049,58.877 618.804,55.849 			
				"/>
			<g>
				<polygon fill="#1D1D1D" points="624.974,13.875 630.22,10.847 635.465,13.875 635.465,19.932 630.22,22.96 624.974,19.932 				
					"/>
				<polygon fill="#1D1D1D" points="624.971,38.103 630.216,35.075 635.461,38.103 635.461,44.16 630.216,47.188 624.971,44.16 				
					"/>
				<polygon fill="#1D1D1D" points="624.971,61.907 630.216,58.877 635.461,61.907 635.461,67.963 630.216,70.992 624.971,67.963 
									"/>
			</g>
			<g>
				<polygon fill="#1D1D1D" points="637.709,14.088 642.955,11.059 648.2,14.088 648.2,20.145 642.955,23.173 637.709,20.145 				
					"/>
				<polygon fill="#1D1D1D" points="637.706,38.316 642.951,35.287 648.197,38.316 648.197,44.373 642.951,47.401 637.706,44.373 
									"/>
				<polygon fill="#1D1D1D" points="637.706,62.119 642.951,59.09 648.197,62.119 648.197,68.176 642.951,71.203 637.706,68.176 
									"/>
			</g>
			<polygon fill="#1D1D1D" points="612.638,61.907 617.883,58.877 623.128,61.907 623.128,67.963 617.883,70.992 612.638,67.963 			
				"/>
		</g>
	</g>
	<polygon fill="#1D1D1D" points="644.41,26.308 649.655,23.279 654.9,26.308 654.9,32.365 649.655,35.393 644.41,32.365 	"/>
	<polygon fill="#1D1D1D" points="644.41,50.111 649.655,47.083 654.9,50.111 654.9,56.167 649.655,59.196 644.41,56.167 	"/>
	<polygon fill="#1D1D1D" points="650.58,14.194 655.826,11.166 661.071,14.194 661.071,20.25 655.826,23.279 650.58,20.25 	"/>
	<polygon fill="#1D1D1D" points="669.076,26.308 674.321,23.279 679.566,26.308 679.566,32.365 674.321,35.393 669.076,32.365 	"/>
	<polygon fill="#1D1D1D" points="656.742,26.308 661.988,23.279 667.233,26.308 667.233,32.365 661.988,35.393 656.742,32.365 	"/>
	<polygon fill="#1D1D1D" points="650.576,38.421 655.822,35.393 661.067,38.421 661.067,44.478 655.822,47.506 650.576,44.478 	"/>
	<polygon fill="#1D1D1D" points="669.076,50.111 674.321,47.083 679.566,50.111 679.566,56.167 674.321,59.196 669.076,56.167 	"/>
	<polygon fill="#1D1D1D" points="656.742,50.111 661.988,47.083 667.233,50.111 667.233,56.167 661.988,59.196 656.742,56.167 	"/>
	<g>
		<polygon fill="#1D1D1D" points="662.913,14.194 668.158,11.166 673.404,14.194 673.404,20.25 668.158,23.279 662.913,20.25 		"/>
		<polygon fill="#1D1D1D" points="662.909,38.421 668.154,35.393 673.4,38.421 673.4,44.478 668.154,47.506 662.909,44.478 		"/>
		<polygon fill="#1D1D1D" points="662.909,62.225 668.154,59.196 673.4,62.225 673.4,68.281 668.154,71.311 662.909,68.281 		"/>
	</g>
	<g>
		<polygon fill="#1D1D1D" points="675.648,14.407 680.894,11.377 686.14,14.407 686.14,20.463 680.894,23.491 675.648,20.463 		"/>
		<polygon fill="#1D1D1D" points="675.645,38.633 680.89,35.605 686.136,38.633 686.136,44.691 680.89,47.719 675.645,44.691 		"/>
		<polygon fill="#1D1D1D" points="675.645,62.437 680.89,59.409 686.136,62.437 686.136,68.494 680.89,71.521 675.645,68.494 		"/>
	</g>
	<polygon fill="#1D1D1D" points="650.576,62.225 655.822,59.196 661.067,62.225 661.067,68.281 655.822,71.311 650.576,68.281 	"/>
	<polygon fill="#1D1D1D" points="600.305,61.907 605.549,58.877 610.795,61.907 610.795,67.963 605.549,70.992 600.305,67.963 	"/>
	<polygon fill="#1D1D1D" points="587.972,61.907 593.217,58.877 598.462,61.907 598.462,67.963 593.217,70.992 587.972,67.963 	"/>
</g>
<g>
	<polygon fill="#1D1D1D" points="380.371,11.153 375.125,8.125 369.88,11.153 369.88,17.209 375.125,20.239 380.371,17.209 	"/>
	<polygon fill="#1D1D1D" points="380.371,27.107 375.125,24.079 369.88,27.107 369.88,33.164 375.125,36.192 380.371,33.164 	"/>
	<polygon fill="#1D1D1D" points="380.371,43.061 375.125,40.032 369.88,43.061 369.88,49.118 375.125,52.146 380.371,49.118 	"/>
	<polygon fill="#1D1D1D" points="380.371,59.015 375.125,55.986 369.88,59.015 369.88,65.072 375.125,68.1 380.371,65.072 	"/>
	<polygon fill="#1D1D1D" points="380.371,74.969 375.125,71.939 369.88,74.969 369.88,81.025 375.125,84.055 380.371,81.025 	"/>
	<polygon fill="#1D1D1D" points="380.371,90.922 375.125,87.895 369.88,90.922 369.88,96.979 375.125,100.008 380.371,96.979 	"/>
	<polygon fill="#1D1D1D" points="380.371,106.877 375.125,103.848 369.88,106.877 369.88,112.934 375.125,115.961 380.371,112.934 	
		"/>
</g>
<g>
	<polygon fill="#1D1D1D" points="1269.092,14.044 1263.846,11.016 1258.601,14.044 1258.601,20.101 1263.846,23.13 1269.092,20.101 
			"/>
	<polygon fill="#1D1D1D" points="1269.092,29.999 1263.846,26.97 1258.601,29.999 1258.601,36.055 1263.846,39.083 1269.092,36.055 
			"/>
	<polygon fill="#1D1D1D" points="1269.092,45.953 1263.846,42.923 1258.601,45.953 1258.601,52.009 1263.846,55.038 
		1269.092,52.009 	"/>
	<polygon fill="#1D1D1D" points="1269.092,61.907 1263.846,58.877 1258.601,61.907 1258.601,67.963 1263.846,70.992 
		1269.092,67.963 	"/>
	<polygon fill="#1D1D1D" points="1269.092,77.861 1263.846,74.832 1258.601,77.861 1258.601,83.918 1263.846,86.945 
		1269.092,83.918 	"/>
	<polygon fill="#1D1D1D" points="1269.092,93.814 1263.846,90.785 1258.601,93.814 1258.601,99.871 1263.846,102.898 
		1269.092,99.871 	"/>
	<polygon fill="#1D1D1D" points="1269.092,109.768 1263.846,106.74 1258.601,109.768 1258.601,115.824 1263.846,118.854 
		1269.092,115.824 	"/>
</g>
<g>
	<path fill="#A3A4A4" stroke="#4C4B4C" stroke-miterlimit="10" d="M353.474,72.393c0-3.924-3.18-7.104-7.103-7.104l0,0
		c-3.923,0-7.104,3.18-7.104,7.104v38.068c0,3.922,3.18,7.102,7.104,7.102l0,0c3.923,0,7.103-3.18,7.103-7.102V72.393z"/>
	<g>
		<path fill="#060001" d="M346.4,115.205c3.007,0,5.445-2.438,5.445-5.445c0-3.006-2.438-5.445-5.445-5.445
			c-3.008,0-5.445,2.439-5.445,5.445C340.955,112.768,343.393,115.205,346.4,115.205"/>
		<g>
			<defs>
				<path id="SVGID_9_" d="M342.026,109.76c0-2.416,1.959-4.375,4.375-4.375s4.375,1.959,4.375,4.375s-1.958,4.375-4.375,4.375
					S342.026,112.176,342.026,109.76"/>
			</defs>
			<clipPath id="SVGID_10_">
				<use xlink:href="#SVGID_9_"  overflow="visible"/>
			</clipPath>
			
				<radialGradient id="SVGID_11_" cx="427.9346" cy="-258.4849" r="0.7778" gradientTransform="matrix(8.2859 0 0 -8.2859 -3200.4961 -2030.4609)" gradientUnits="userSpaceOnUse">
				<stop  offset="0" style="stop-color:#636262"/>
				<stop  offset="1" style="stop-color:#040000"/>
			</radialGradient>
			<rect x="342.026" y="105.385" clip-path="url(#SVGID_10_)" fill="url(#SVGID_11_)" width="8.75" height="8.75"/>
		</g>
		<g opacity="0.5" enable-background="new    ">
			<g>
				<defs>
					<rect id="SVGID_12_" x="344.359" y="110.83" width="1.458" height="1.459"/>
				</defs>
				<clipPath id="SVGID_13_">
					<use xlink:href="#SVGID_12_"  overflow="visible"/>
				</clipPath>
				<rect x="344.359" y="110.83" clip-path="url(#SVGID_13_)" fill="#FFFFFF" width="1.458" height="1.459"/>
			</g>
		</g>
		<g opacity="0.5" enable-background="new    ">
			<g>
				<defs>
					<rect id="SVGID_14_" x="344.359" y="110.83" width="0.729" height="1.459"/>
				</defs>
				<clipPath id="SVGID_15_">
					<use xlink:href="#SVGID_14_"  overflow="visible"/>
				</clipPath>
				<rect x="344.359" y="110.83" clip-path="url(#SVGID_15_)" fill="#FFFFFF" width="0.729" height="1.459"/>
			</g>
		</g>
	</g>
	<g>
		<path fill="#060001" d="M340.955,73.68c0,3.037,2.463,5.5,5.5,5.5c3.038,0,5.5-2.463,5.5-5.5s-2.463-5.5-5.5-5.5
			C343.418,68.18,340.955,70.643,340.955,73.68"/>
		<g>
			<defs>
				<path id="SVGID_16_" d="M346.455,69.262c2.441,0,4.42,1.979,4.42,4.42s-1.979,4.42-4.42,4.42c-2.439,0-4.419-1.979-4.419-4.42
					S344.016,69.262,346.455,69.262"/>
			</defs>
			<clipPath id="SVGID_17_">
				<use xlink:href="#SVGID_16_"  overflow="visible"/>
			</clipPath>
			
				<radialGradient id="SVGID_18_" cx="-296.7817" cy="1148.3232" r="0.4161" gradientTransform="matrix(0 8.2859 8.2859 0 -9170.0078 2531.6992)" gradientUnits="userSpaceOnUse">
				<stop  offset="0" style="stop-color:#FFFFFF"/>
				<stop  offset="1" style="stop-color:#8DC21F"/>
			</radialGradient>
			<rect x="342.036" y="69.262" clip-path="url(#SVGID_17_)" fill="url(#SVGID_18_)" width="8.839" height="8.84"/>
		</g>
		<g opacity="0.5" enable-background="new    ">
			<g>
				<defs>
					<rect id="SVGID_19_" x="343.902" y="71.619" width="1.473" height="1.473"/>
				</defs>
				<clipPath id="SVGID_20_">
					<use xlink:href="#SVGID_19_"  overflow="visible"/>
				</clipPath>
				<rect x="343.902" y="71.619" clip-path="url(#SVGID_20_)" fill="#FFFFFF" width="1.473" height="1.473"/>
			</g>
		</g>
		<g opacity="0.5" enable-background="new    ">
			<g>
				<defs>
					<rect id="SVGID_21_" x="343.902" y="71.619" width="1.473" height="0.736"/>
				</defs>
				<clipPath id="SVGID_22_">
					<use xlink:href="#SVGID_21_"  overflow="visible"/>
				</clipPath>
				<rect x="343.902" y="71.619" clip-path="url(#SVGID_22_)" fill="#FFFFFF" width="1.473" height="0.736"/>
			</g>
		</g>
	</g>
	<g>
		<path fill="#060001" d="M340.955,93.143c0,3.039,2.463,5.502,5.5,5.502c3.038,0,5.5-2.463,5.5-5.502
			c0-3.037-2.463-5.498-5.5-5.498C343.418,87.645,340.955,90.105,340.955,93.143"/>
		<g>
			<defs>
				<path id="SVGID_23_" d="M346.455,88.725c2.441,0,4.42,1.979,4.42,4.42s-1.979,4.42-4.42,4.42c-2.439,0-4.419-1.979-4.419-4.42
					S344.016,88.725,346.455,88.725"/>
			</defs>
			<clipPath id="SVGID_24_">
				<use xlink:href="#SVGID_23_"  overflow="visible"/>
			</clipPath>
			
				<radialGradient id="SVGID_25_" cx="-294.4331" cy="1148.3232" r="0.4163" gradientTransform="matrix(0 8.2859 8.2859 0 -9170.0078 2531.6992)" gradientUnits="userSpaceOnUse">
				<stop  offset="0" style="stop-color:#FFFFFF"/>
				<stop  offset="1" style="stop-color:#8DC21F"/>
			</radialGradient>
			<rect x="342.036" y="88.725" clip-path="url(#SVGID_24_)" fill="url(#SVGID_25_)" width="8.839" height="8.84"/>
		</g>
		<g opacity="0.5" enable-background="new    ">
			<g>
				<defs>
					<rect id="SVGID_26_" x="343.902" y="91.082" width="1.473" height="1.473"/>
				</defs>
				<clipPath id="SVGID_27_">
					<use xlink:href="#SVGID_26_"  overflow="visible"/>
				</clipPath>
				<rect x="343.902" y="91.082" clip-path="url(#SVGID_27_)" fill="#FFFFFF" width="1.473" height="1.473"/>
			</g>
		</g>
		<g opacity="0.5" enable-background="new    ">
			<g>
				<defs>
					<rect id="SVGID_28_" x="343.902" y="91.082" width="1.473" height="0.736"/>
				</defs>
				<clipPath id="SVGID_29_">
					<use xlink:href="#SVGID_28_"  overflow="visible"/>
				</clipPath>
				<rect x="343.902" y="91.082" clip-path="url(#SVGID_29_)" fill="#FFFFFF" width="1.473" height="0.736"/>
			</g>
		</g>
	</g>
</g>
<linearGradient id="SVGID_30_" gradientUnits="userSpaceOnUse" x1="-11578.9727" y1="62.749" x2="-11574.6758" y2="62.749" gradientTransform="matrix(-1 0 0 1 -11216.2861 0)">
	<stop  offset="0" style="stop-color:#3E3A39"/>
	<stop  offset="0.086" style="stop-color:#717071"/>
	<stop  offset="0.5753" style="stop-color:#B1B4B5"/>
	<stop  offset="0.6989" style="stop-color:#D5D5D5"/>
	<stop  offset="0.9462" style="stop-color:#717071"/>
</linearGradient>
<rect x="358.389" y="5.958" fill="url(#SVGID_30_)" width="4.297" height="113.583"/>
<rect x="357.389" y="5.958" fill="#1F2020" width="1" height="113.583"/>
<rect x="316.701" y="63.16" fill="#1F2020" width="16.682" height="16.68"/>
<rect x="316.701" y="81.717" fill="#1F2020" width="16.682" height="16.682"/>
<rect x="316.701" y="100.275" fill="#1F2020" width="16.682" height="16.68"/>
<rect x="297.964" y="62.738" fill="#1F2020" width="16.681" height="16.68"/>
<rect x="297.964" y="81.295" fill="#1F2020" width="16.681" height="16.682"/>
<rect x="297.964" y="99.854" fill="#1F2020" width="16.681" height="16.68"/>
<rect x="279.41" y="62.739" fill="#1F2020" width="16.681" height="16.679"/>
<rect x="279.41" y="81.295" fill="#1F2020" width="16.681" height="16.682"/>
<rect x="279.41" y="99.854" fill="#1F2020" width="16.681" height="16.68"/>
<rect x="260.856" y="44.181" fill="#1F2020" width="16.681" height="16.682"/>
<rect x="260.856" y="62.739" fill="#1F2020" width="16.681" height="16.681"/>
<g>
	<rect x="242.303" y="7.067" fill="#1F2020" width="16.68" height="16.681"/>
	<rect x="242.303" y="25.625" fill="#1F2020" width="16.68" height="16.681"/>
	<rect x="242.303" y="44.182" fill="#1F2020" width="16.68" height="16.681"/>
	<rect x="242.303" y="62.74" fill="#1F2020" width="16.68" height="16.68"/>
</g>
<g>
	<rect x="224.01" y="7.067" fill="#1F2020" width="16.68" height="16.681"/>
	<rect x="224.01" y="25.625" fill="#1F2020" width="16.68" height="16.681"/>
	<rect x="224.01" y="44.182" fill="#1F2020" width="16.68" height="16.681"/>
	<rect x="224.01" y="62.74" fill="#1F2020" width="16.68" height="16.68"/>
</g>
<g>
	<rect x="205.717" y="7.067" fill="#1F2020" width="16.68" height="16.681"/>
	<rect x="205.717" y="25.625" fill="#1F2020" width="16.68" height="16.681"/>
	<rect x="205.717" y="44.182" fill="#1F2020" width="16.68" height="16.681"/>
	<rect x="205.717" y="62.74" fill="#1F2020" width="16.68" height="16.68"/>
</g>
<g>
	<rect x="187.424" y="7.067" fill="#1F2020" width="16.68" height="16.681"/>
	<rect x="187.424" y="25.625" fill="#1F2020" width="16.68" height="16.681"/>
	<rect x="187.424" y="44.182" fill="#1F2020" width="16.68" height="16.681"/>
	<rect x="187.424" y="62.74" fill="#1F2020" width="16.68" height="16.68"/>
</g>
<rect x="242.303" y="81.297" fill="#1F2020" width="16.68" height="16.68"/>
<rect x="242.303" y="99.854" fill="#1F2020" width="16.68" height="16.682"/>
<rect x="224.01" y="81.293" fill="#1F2020" width="16.681" height="16.682"/>
<rect x="224.01" y="99.852" fill="#1F2020" width="16.681" height="16.68"/>
<g>
	<g>
		<defs>
			<path id="SVGID_31_" d="M264.25,118.656l-2.308-0.109l-0.518-18.121l8.542-2.475c3.41-0.984,6.524,3.484,6.524,9.369v2.203
				c0,2.674-1.059,5.01-2.578,5.697l-5.798,2.617c-1.128,0.477-2.529,0.818-3.712,0.818
				C264.351,118.656,264.3,118.656,264.25,118.656"/>
		</defs>
		<clipPath id="SVGID_32_">
			<use xlink:href="#SVGID_31_"  overflow="visible"/>
		</clipPath>
		
			<linearGradient id="SVGID_33_" gradientUnits="userSpaceOnUse" x1="-729.4727" y1="443.7334" x2="-728.5926" y2="443.7334" gradientTransform="matrix(-21.6019 -8.6407 -8.6407 21.6019 -11643.25 -15776.1719)">
			<stop  offset="0" style="stop-color:#E0DFDE"/>
			<stop  offset="1" style="stop-color:#666666"/>
		</linearGradient>
		<polygon clip-path="url(#SVGID_32_)" fill="url(#SVGID_33_)" points="274.412,127.494 257.028,115.666 263.504,88.127 
			280.887,99.957 		"/>
	</g>
	<g>
		<defs>
			<path id="SVGID_34_" d="M271.178,27.004l-9.753-3.179l1.123-17.996c2.074,0,4.14,0.461,6.143,1.372l3.451,1.565
				c2.564,1.163,4.35,5.113,4.348,9.63v1.137c0,4.281-2.052,7.609-4.461,7.609C271.747,27.143,271.463,27.098,271.178,27.004"/>
		</defs>
		<clipPath id="SVGID_35_">
			<use xlink:href="#SVGID_34_"  overflow="visible"/>
		</clipPath>
		
			<linearGradient id="SVGID_36_" gradientUnits="userSpaceOnUse" x1="-922.1021" y1="794.2266" x2="-921.4366" y2="794.2266" gradientTransform="matrix(-14.9609 0 0 14.9609 -13517.3906 -11865.8594)">
			<stop  offset="0" style="stop-color:#E0DFDE"/>
			<stop  offset="1" style="stop-color:#666666"/>
		</linearGradient>
		<rect x="261.425" y="5.83" clip-path="url(#SVGID_35_)" fill="url(#SVGID_36_)" width="15.066" height="21.313"/>
	</g>
	<g>
		<defs>
			<path id="SVGID_37_" d="M262.548,118.654c-3.63,0-6.572-5.006-6.572-11.182V17.01c0-6.176,2.942-11.181,6.572-11.181
				c3.626,0,6.57,5.005,6.57,11.181v90.462C269.118,113.648,266.174,118.654,262.548,118.654L262.548,118.654z"/>
		</defs>
		<clipPath id="SVGID_38_">
			<use xlink:href="#SVGID_37_"  overflow="visible"/>
		</clipPath>
		
			<linearGradient id="SVGID_39_" gradientUnits="userSpaceOnUse" x1="372.271" y1="30.7637" x2="372.9365" y2="30.7637" gradientTransform="matrix(19.747 0 0 -19.747 -7095.25 669.7344)">
			<stop  offset="0" style="stop-color:#CBCCCC"/>
			<stop  offset="0.4731" style="stop-color:#E0DFDE"/>
			<stop  offset="1" style="stop-color:#666666"/>
		</linearGradient>
		<rect x="255.976" y="5.83" clip-path="url(#SVGID_38_)" fill="url(#SVGID_39_)" width="13.143" height="112.825"/>
	</g>
</g>
<linearGradient id="SVGID_40_" gradientUnits="userSpaceOnUse" x1="-5313.7363" y1="-11454.4453" x2="-5313.7363" y2="-11464.5996" gradientTransform="matrix(0 -1 -1 0 -11240.3027 -5214.7129)">
	<stop  offset="0" style="stop-color:#743C2C"/>
	<stop  offset="0.4409" style="stop-color:#AB5C39"/>
	<stop  offset="0.6183" style="stop-color:#F29600"/>
	<stop  offset="1" style="stop-color:#D37341"/>
</linearGradient>
<rect x="214.143" y="81.076" fill="url(#SVGID_40_)" width="10.155" height="35.895"/>
<rect x="188.885" y="81.082" fill="#A39E89" stroke="#56554F" stroke-width="1.5" stroke-miterlimit="10" width="25.251" height="35.895"/>
<g>
	<path fill="#A3A4A4" stroke="#4C4B4C" stroke-miterlimit="10" d="M173.018,70.746c0-3.924-3.18-7.104-7.104-7.104l0,0
		c-3.922,0-7.103,3.18-7.103,7.104v38.068c0,3.922,3.18,7.102,7.103,7.102l0,0c3.924,0,7.104-3.18,7.104-7.102V70.746z"/>
	<g>
		<path fill="#060001" d="M165.944,113.559c3.007,0,5.445-2.438,5.445-5.445c0-3.006-2.438-5.445-5.445-5.445
			c-3.008,0-5.444,2.439-5.444,5.445C160.5,111.121,162.937,113.559,165.944,113.559"/>
		<g>
			<defs>
				<path id="SVGID_41_" d="M161.569,108.113c0-2.416,1.959-4.375,4.376-4.375c2.416,0,4.375,1.959,4.375,4.375
					s-1.959,4.377-4.375,4.377C163.528,112.49,161.569,110.529,161.569,108.113"/>
			</defs>
			<clipPath id="SVGID_42_">
				<use xlink:href="#SVGID_41_"  overflow="visible"/>
			</clipPath>
			
				<radialGradient id="SVGID_43_" cx="406.1563" cy="-258.2861" r="0.7775" gradientTransform="matrix(8.2859 0 0 -8.2859 -3200.4961 -2030.4609)" gradientUnits="userSpaceOnUse">
				<stop  offset="0" style="stop-color:#636262"/>
				<stop  offset="1" style="stop-color:#040000"/>
			</radialGradient>
			<rect x="161.569" y="103.738" clip-path="url(#SVGID_42_)" fill="url(#SVGID_43_)" width="8.751" height="8.752"/>
		</g>
		<g opacity="0.5" enable-background="new    ">
			<g>
				<defs>
					<rect id="SVGID_44_" x="163.902" y="109.184" width="1.458" height="1.459"/>
				</defs>
				<clipPath id="SVGID_45_">
					<use xlink:href="#SVGID_44_"  overflow="visible"/>
				</clipPath>
				<rect x="163.902" y="109.184" clip-path="url(#SVGID_45_)" fill="#FFFFFF" width="1.458" height="1.459"/>
			</g>
		</g>
		<g opacity="0.5" enable-background="new    ">
			<g>
				<defs>
					<rect id="SVGID_46_" x="163.902" y="109.184" width="0.73" height="1.459"/>
				</defs>
				<clipPath id="SVGID_47_">
					<use xlink:href="#SVGID_46_"  overflow="visible"/>
				</clipPath>
				<rect x="163.902" y="109.184" clip-path="url(#SVGID_47_)" fill="#FFFFFF" width="0.73" height="1.459"/>
			</g>
		</g>
	</g>
	<g>
		<path fill="#060001" d="M160.5,72.033c0,3.039,2.462,5.5,5.5,5.5c3.036,0,5.5-2.461,5.5-5.5c0-3.037-2.464-5.5-5.5-5.5
			C162.962,66.533,160.5,68.996,160.5,72.033"/>
		<g>
			<defs>
				<path id="SVGID_48_" d="M166,67.615c2.44,0,4.418,1.979,4.418,4.42s-1.978,4.42-4.418,4.42c-2.441,0-4.421-1.979-4.421-4.42
					S163.559,67.615,166,67.615"/>
			</defs>
			<clipPath id="SVGID_49_">
				<use xlink:href="#SVGID_48_"  overflow="visible"/>
			</clipPath>
			
				<radialGradient id="SVGID_50_" cx="-296.981" cy="1126.5449" r="0.4163" gradientTransform="matrix(0 8.2859 8.2859 0 -9170.0078 2531.6992)" gradientUnits="userSpaceOnUse">
				<stop  offset="0" style="stop-color:#FFFFFF"/>
				<stop  offset="1" style="stop-color:#8DC21F"/>
			</radialGradient>
			<rect x="161.579" y="67.615" clip-path="url(#SVGID_49_)" fill="url(#SVGID_50_)" width="8.839" height="8.84"/>
		</g>
		<g opacity="0.5" enable-background="new    ">
			<g>
				<defs>
					<rect id="SVGID_51_" x="163.446" y="69.973" width="1.472" height="1.473"/>
				</defs>
				<clipPath id="SVGID_52_">
					<use xlink:href="#SVGID_51_"  overflow="visible"/>
				</clipPath>
				<rect x="163.446" y="69.973" clip-path="url(#SVGID_52_)" fill="#FFFFFF" width="1.472" height="1.473"/>
			</g>
		</g>
		<g opacity="0.5" enable-background="new    ">
			<g>
				<defs>
					<rect id="SVGID_53_" x="163.446" y="69.973" width="1.472" height="0.736"/>
				</defs>
				<clipPath id="SVGID_54_">
					<use xlink:href="#SVGID_53_"  overflow="visible"/>
				</clipPath>
				<rect x="163.446" y="69.973" clip-path="url(#SVGID_54_)" fill="#FFFFFF" width="1.472" height="0.736"/>
			</g>
		</g>
	</g>
	<g>
		<path fill="#060001" d="M160.5,91.496c0,3.039,2.462,5.502,5.5,5.502c3.036,0,5.5-2.463,5.5-5.502c0-3.037-2.464-5.498-5.5-5.498
			C162.962,85.998,160.5,88.459,160.5,91.496"/>
		<g>
			<defs>
				<path id="SVGID_55_" d="M166,87.078c2.44,0,4.418,1.979,4.418,4.42s-1.978,4.42-4.418,4.42c-2.441,0-4.421-1.979-4.421-4.42
					S163.559,87.078,166,87.078"/>
			</defs>
			<clipPath id="SVGID_56_">
				<use xlink:href="#SVGID_55_"  overflow="visible"/>
			</clipPath>
			
				<radialGradient id="SVGID_57_" cx="-294.6313" cy="1126.5449" r="0.4161" gradientTransform="matrix(0 8.2859 8.2859 0 -9170.0078 2531.6992)" gradientUnits="userSpaceOnUse">
				<stop  offset="0" style="stop-color:#FFFFFF"/>
				<stop  offset="1" style="stop-color:#8DC21F"/>
			</radialGradient>
			<rect x="161.579" y="87.078" clip-path="url(#SVGID_56_)" fill="url(#SVGID_57_)" width="8.839" height="8.84"/>
		</g>
		<g opacity="0.5" enable-background="new    ">
			<g>
				<defs>
					<rect id="SVGID_58_" x="163.446" y="89.436" width="1.472" height="1.473"/>
				</defs>
				<clipPath id="SVGID_59_">
					<use xlink:href="#SVGID_58_"  overflow="visible"/>
				</clipPath>
				<rect x="163.446" y="89.436" clip-path="url(#SVGID_59_)" fill="#FFFFFF" width="1.472" height="1.473"/>
			</g>
		</g>
		<g opacity="0.5" enable-background="new    ">
			<g>
				<defs>
					<rect id="SVGID_60_" x="163.446" y="89.436" width="1.472" height="0.736"/>
				</defs>
				<clipPath id="SVGID_61_">
					<use xlink:href="#SVGID_60_"  overflow="visible"/>
				</clipPath>
				<rect x="163.446" y="89.436" clip-path="url(#SVGID_61_)" fill="#FFFFFF" width="1.472" height="0.736"/>
			</g>
		</g>
	</g>
</g>
<linearGradient id="SVGID_62_" gradientUnits="userSpaceOnUse" x1="-11398.5156" y1="61.1025" x2="-11394.2197" y2="61.1025" gradientTransform="matrix(-1 0 0 1 -11216.2861 0)">
	<stop  offset="0" style="stop-color:#3E3A39"/>
	<stop  offset="0.086" style="stop-color:#717071"/>
	<stop  offset="0.5753" style="stop-color:#B1B4B5"/>
	<stop  offset="0.6989" style="stop-color:#D5D5D5"/>
	<stop  offset="0.9462" style="stop-color:#717071"/>
</linearGradient>
<rect x="177.934" y="4.311" fill="url(#SVGID_62_)" width="4.296" height="113.583"/>
<rect x="176.934" y="4.311" fill="#1F2020" width="1" height="113.583"/>
<rect x="136.245" y="61.513" fill="#1F2020" width="16.681" height="16.68"/>
<rect x="136.245" y="80.07" fill="#1F2020" width="16.681" height="16.682"/>
<rect x="136.245" y="98.629" fill="#1F2020" width="16.681" height="16.68"/>
<rect x="117.509" y="61.091" fill="#1F2020" width="16.68" height="16.68"/>
<rect x="117.509" y="79.648" fill="#1F2020" width="16.68" height="16.682"/>
<rect x="117.509" y="98.207" fill="#1F2020" width="16.68" height="16.68"/>
<rect x="98.954" y="61.091" fill="#1F2020" width="16.681" height="16.68"/>
<rect x="98.954" y="79.648" fill="#1F2020" width="16.681" height="16.682"/>
<rect x="98.954" y="98.207" fill="#1F2020" width="16.681" height="16.68"/>
<rect x="80.4" y="42.535" fill="#1F2020" width="16.68" height="16.681"/>
<rect x="80.4" y="61.092" fill="#1F2020" width="16.68" height="16.681"/>
<g>
	<rect x="61.846" y="5.42" fill="#1F2020" width="16.68" height="16.681"/>
	<rect x="61.846" y="23.978" fill="#1F2020" width="16.68" height="16.681"/>
	<rect x="61.846" y="42.536" fill="#1F2020" width="16.68" height="16.681"/>
	<rect x="61.846" y="61.092" fill="#1F2020" width="16.68" height="16.681"/>
</g>
<g>
	<rect x="43.553" y="5.42" fill="#1F2020" width="16.681" height="16.681"/>
	<rect x="43.553" y="23.978" fill="#1F2020" width="16.681" height="16.681"/>
	<rect x="43.553" y="42.536" fill="#1F2020" width="16.681" height="16.681"/>
	<rect x="43.553" y="61.092" fill="#1F2020" width="16.681" height="16.681"/>
</g>
<g>
	<rect x="25.261" y="5.42" fill="#1F2020" width="16.681" height="16.681"/>
	<rect x="25.261" y="23.978" fill="#1F2020" width="16.681" height="16.681"/>
	<rect x="25.261" y="42.536" fill="#1F2020" width="16.681" height="16.681"/>
	<rect x="25.261" y="61.092" fill="#1F2020" width="16.681" height="16.681"/>
</g>
<g>
	<rect x="6.968" y="5.42" fill="#1F2020" width="16.681" height="16.681"/>
	<rect x="6.968" y="23.978" fill="#1F2020" width="16.681" height="16.681"/>
	<rect x="6.968" y="42.536" fill="#1F2020" width="16.681" height="16.681"/>
	<rect x="6.968" y="61.092" fill="#1F2020" width="16.681" height="16.681"/>
</g>
<rect x="61.846" y="79.65" fill="#1F2020" width="16.68" height="16.68"/>
<rect x="61.846" y="98.207" fill="#1F2020" width="16.68" height="16.682"/>
<rect x="43.553" y="79.646" fill="#1F2020" width="16.681" height="16.682"/>
<rect x="43.553" y="98.205" fill="#1F2020" width="16.681" height="16.68"/>
<g>
	<g>
		<defs>
			<path id="SVGID_63_" d="M84.794,118.654l-2.308-0.109l-0.519-18.119l8.542-2.475c3.411-0.984,6.524,3.482,6.524,9.367v2.205
				c0,2.674-1.059,5.01-2.577,5.697l-5.799,2.617c-1.128,0.477-2.529,0.818-3.712,0.818
				C84.895,118.656,84.844,118.654,84.794,118.654"/>
		</defs>
		<clipPath id="SVGID_64_">
			<use xlink:href="#SVGID_63_"  overflow="visible"/>
		</clipPath>
		
			<linearGradient id="SVGID_65_" gradientUnits="userSpaceOnUse" x1="-736.7144" y1="440.8359" x2="-735.8343" y2="440.8359" gradientTransform="matrix(-21.6019 -8.6407 -8.6407 21.6019 -12004.1875 -15776.1719)">
			<stop  offset="0" style="stop-color:#E0DFDE"/>
			<stop  offset="1" style="stop-color:#666666"/>
		</linearGradient>
		<polygon clip-path="url(#SVGID_64_)" fill="url(#SVGID_65_)" points="94.956,127.494 77.572,115.664 84.047,88.127 101.43,99.957 
					"/>
	</g>
	<g>
		<defs>
			<path id="SVGID_66_" d="M91.722,27.004l-9.754-3.18l1.124-17.996c2.074,0,4.139,0.462,6.143,1.373l3.451,1.564
				c2.564,1.164,4.349,5.114,4.348,9.631v1.136c0,4.281-2.052,7.61-4.462,7.61C92.291,27.143,92.007,27.098,91.722,27.004"/>
		</defs>
		<clipPath id="SVGID_67_">
			<use xlink:href="#SVGID_66_"  overflow="visible"/>
		</clipPath>
		
			<linearGradient id="SVGID_68_" gradientUnits="userSpaceOnUse" x1="-934.231" y1="794.2266" x2="-933.5656" y2="794.2266" gradientTransform="matrix(-14.9609 0 0 14.9609 -13878.3047 -11865.8594)">
			<stop  offset="0" style="stop-color:#E0DFDE"/>
			<stop  offset="1" style="stop-color:#666666"/>
		</linearGradient>
		<rect x="81.968" y="5.829" clip-path="url(#SVGID_67_)" fill="url(#SVGID_68_)" width="15.066" height="21.314"/>
	</g>
	<g>
		<defs>
			<path id="SVGID_69_" d="M83.092,118.652c-3.631,0-6.572-5.004-6.572-11.18V17.01c0-6.176,2.941-11.182,6.572-11.182
				c3.626,0,6.57,5.006,6.57,11.182v90.462C89.662,113.648,86.718,118.652,83.092,118.652L83.092,118.652z"/>
		</defs>
		<clipPath id="SVGID_70_">
			<use xlink:href="#SVGID_69_"  overflow="visible"/>
		</clipPath>
		
			<linearGradient id="SVGID_71_" gradientUnits="userSpaceOnUse" x1="381.4604" y1="30.7637" x2="382.126" y2="30.7637" gradientTransform="matrix(19.747 0 0 -19.747 -7456.1719 669.7344)">
			<stop  offset="0" style="stop-color:#CBCCCC"/>
			<stop  offset="0.4731" style="stop-color:#E0DFDE"/>
			<stop  offset="1" style="stop-color:#666666"/>
		</linearGradient>
		<rect x="76.52" y="5.829" clip-path="url(#SVGID_70_)" fill="url(#SVGID_71_)" width="13.143" height="112.824"/>
	</g>
</g>
<linearGradient id="SVGID_72_" gradientUnits="userSpaceOnUse" x1="-5312.0898" y1="-11273.9893" x2="-5312.0898" y2="-11284.1445" gradientTransform="matrix(0 -1 -1 0 -11240.3027 -5214.7129)">
	<stop  offset="0" style="stop-color:#743C2C"/>
	<stop  offset="0.4409" style="stop-color:#AB5C39"/>
	<stop  offset="0.6183" style="stop-color:#F29600"/>
	<stop  offset="1" style="stop-color:#D37341"/>
</linearGradient>
<rect x="33.687" y="79.43" fill="url(#SVGID_72_)" width="10.155" height="35.895"/>
<rect x="8.428" y="79.436" fill="#A39E89" stroke="#56554F" stroke-width="1.5" stroke-miterlimit="10" width="25.251" height="35.895"/>
<g>
	<polygon fill="#1D1D1D" points="1019.359,101.258 1022.388,106.504 1019.359,111.75 1013.303,111.75 1010.274,106.504 
		1013.303,101.258 	"/>
	<polygon fill="#1D1D1D" points="1019.359,89.191 1022.388,94.436 1019.359,99.682 1013.303,99.682 1010.274,94.436 
		1013.303,89.191 	"/>
</g>
<g>
	<polygon fill="#1D1D1D" points="1213.211,105.527 1216.239,110.773 1213.21,116.018 1207.153,116.018 1204.125,110.773 
		1207.153,105.527 	"/>
	<polygon fill="#1D1D1D" points="1213.211,93.461 1216.239,98.705 1213.211,103.951 1207.153,103.951 1204.126,98.705 
		1207.153,93.461 	"/>
</g>
<g>
	<polygon fill="#1D1D1D" points="1230.44,105.527 1233.469,110.773 1230.439,116.018 1224.383,116.018 1221.354,110.773 
		1224.384,105.527 	"/>
	<polygon fill="#1D1D1D" points="1230.44,93.461 1233.469,98.705 1230.44,103.951 1224.384,103.951 1221.354,98.705 
		1224.384,93.461 	"/>
</g>
<g>
	<polygon fill="#1D1D1D" points="1247.67,105.527 1250.698,110.773 1247.669,116.018 1241.612,116.018 1238.584,110.773 
		1241.612,105.527 	"/>
	<polygon fill="#1D1D1D" points="1247.67,93.461 1250.698,98.705 1247.67,103.951 1241.612,103.951 1238.585,98.705 
		1241.612,93.461 	"/>
</g>
<rect x="709.744" y="5.338" fill="#979798" width="4.194" height="67.753"/>
<rect x="711.842" y="5.338" fill="#444344" width="2.097" height="67.753"/>
<rect x="1250.653" y="5.338" fill="#979798" width="4.194" height="67.753"/>
<rect x="1250.653" y="5.338" fill="#555656" width="1.285" height="67.753"/>
<g>
	<g>
		<rect x="726.568" y="17.665" fill="#A1A2A2" stroke="#39393A" stroke-miterlimit="10" width="204.942" height="41.237"/>
		
			<linearGradient id="SVGID_73_" gradientUnits="userSpaceOnUse" x1="829.1494" y1="-4759.0405" x2="829.1494" y2="-4764.2681" gradientTransform="matrix(1 0 0 -1 0 -4739.5986)">
			<stop  offset="0.0699" style="stop-color:#717071"/>
			<stop  offset="0.3065" style="stop-color:#B1B4B5"/>
			<stop  offset="0.4839" style="stop-color:#D5D5D5"/>
			<stop  offset="0.6882" style="stop-color:#B1B4B5"/>
			<stop  offset="0.8656" style="stop-color:#717071"/>
		</linearGradient>
		<rect x="726.79" y="19.442" fill="url(#SVGID_73_)" width="204.721" height="5.228"/>
		
			<linearGradient id="SVGID_74_" gradientUnits="userSpaceOnUse" x1="829.1504" y1="-10.7739" x2="829.1504" y2="-16.0024" gradientTransform="matrix(1 0 0 1 0 69.0967)">
			<stop  offset="0.0699" style="stop-color:#717071"/>
			<stop  offset="0.3065" style="stop-color:#B1B4B5"/>
			<stop  offset="0.4839" style="stop-color:#D5D5D5"/>
			<stop  offset="0.6882" style="stop-color:#B1B4B5"/>
			<stop  offset="0.8656" style="stop-color:#717071"/>
		</linearGradient>
		<rect x="726.79" y="53.094" fill="url(#SVGID_74_)" width="204.721" height="5.229"/>
	</g>
	<rect x="730.554" y="32.294" fill="#030000" width="13.469" height="13.47"/>
	<rect x="748.87" y="32.294" fill="#030000" width="13.47" height="13.47"/>
	<rect x="767.188" y="32.294" fill="#030000" width="13.47" height="13.47"/>
	<rect x="785.505" y="32.294" fill="#030000" width="13.469" height="13.47"/>
	<rect x="803.821" y="32.294" fill="#030000" width="13.469" height="13.47"/>
	<rect x="822.138" y="32.294" fill="#030000" width="13.47" height="13.47"/>
	<rect x="840.455" y="32.294" fill="#030000" width="13.47" height="13.47"/>
	<rect x="858.772" y="32.294" fill="#030000" width="13.469" height="13.47"/>
	<rect x="877.089" y="32.294" fill="#030000" width="13.469" height="13.47"/>
	<rect x="895.405" y="32.294" fill="#030000" width="13.47" height="13.47"/>
	<rect x="913.723" y="32.294" fill="#030000" width="13.47" height="13.47"/>
</g>
<rect x="967.528" y="32.294" fill="#030000" width="13.47" height="13.47"/>
<rect x="986.194" y="32.294" fill="#030000" width="13.469" height="13.47"/>
<rect x="1004.86" y="32.294" fill="#030000" width="13.469" height="13.47"/>
<rect x="1023.525" y="32.294" fill="#030000" width="13.47" height="13.47"/>
<rect x="1042.191" y="32.294" fill="#030000" width="13.47" height="13.47"/>
<rect x="1060.856" y="32.294" fill="#030000" width="13.47" height="13.47"/>
<rect x="1079.522" y="32.294" fill="#030000" width="13.47" height="13.47"/>
<rect x="1098.188" y="32.294" fill="#030000" width="13.469" height="13.47"/>
<rect x="1116.854" y="32.294" fill="#030000" width="13.469" height="13.47"/>
<rect x="1135.52" y="32.294" fill="#030000" width="13.47" height="13.47"/>
<rect x="1154.186" y="32.294" fill="#030000" width="13.469" height="13.47"/>
<rect x="1172.851" y="32.48" fill="#030000" width="13.47" height="13.47"/>
<rect x="1191.517" y="32.666" fill="#030000" width="13.469" height="13.469"/>
<rect x="1210.183" y="32.851" fill="#030000" width="13.469" height="13.469"/>
<g>
	<path fill="#262727" d="M943.364,57.161c0,1.104-0.895,2-2,2h-1.45c-1.104,0-2-0.896-2-2V20.01c0-1.104,0.896-2,2-2h1.45
		c1.105,0,2,0.896,2,2V57.161z"/>
	<path fill="#262727" d="M943.364,54.913c0,0.985,0.806,1.784,1.798,1.784h1.306c0.993,0,1.798-0.799,1.798-1.784V21.793
		c0-0.984-0.805-1.782-1.798-1.782h-1.306c-0.992,0-1.798,0.798-1.798,1.782V54.913z"/>
	<linearGradient id="SVGID_75_" gradientUnits="userSpaceOnUse" x1="938.6221" y1="38.9194" x2="942.0342" y2="38.9194">
		<stop  offset="0.0699" style="stop-color:#717071"/>
		<stop  offset="0.3065" style="stop-color:#B1B4B5"/>
		<stop  offset="0.4839" style="stop-color:#D5D5D5"/>
		<stop  offset="0.6882" style="stop-color:#B1B4B5"/>
		<stop  offset="0.8656" style="stop-color:#717071"/>
	</linearGradient>
	<rect x="938.622" y="20.011" fill="url(#SVGID_75_)" width="3.412" height="37.816"/>
	<linearGradient id="SVGID_76_" gradientUnits="userSpaceOnUse" x1="945.8154" y1="38.4116" x2="953.3643" y2="38.4116">
		<stop  offset="0.0699" style="stop-color:#717071"/>
		<stop  offset="0.3065" style="stop-color:#B1B4B5"/>
		<stop  offset="0.4839" style="stop-color:#D5D5D5"/>
		<stop  offset="0.6882" style="stop-color:#B1B4B5"/>
		<stop  offset="0.8656" style="stop-color:#717071"/>
	</linearGradient>
	<rect x="945.815" y="22.996" fill="url(#SVGID_76_)" width="7.549" height="30.832"/>
</g>
<g>
	<rect x="967.528" y="6.196" fill="#1D1D1D" width="13.47" height="1.766"/>
	<rect x="989.972" y="6.196" fill="#1D1D1D" width="13.469" height="1.766"/>
	<rect x="1012.414" y="6.196" fill="#1D1D1D" width="13.47" height="1.766"/>
	<rect x="1034.857" y="6.196" fill="#1D1D1D" width="13.47" height="1.766"/>
	<rect x="1057.3" y="6.196" fill="#1D1D1D" width="13.47" height="1.766"/>
	<rect x="1079.743" y="6.196" fill="#1D1D1D" width="13.469" height="1.766"/>
	<rect x="1102.187" y="6.196" fill="#1D1D1D" width="13.469" height="1.766"/>
	<rect x="1124.629" y="6.196" fill="#1D1D1D" width="13.469" height="1.766"/>
	<rect x="1147.071" y="6.196" fill="#1D1D1D" width="13.47" height="1.766"/>
	<rect x="1169.515" y="6.196" fill="#1D1D1D" width="13.469" height="1.766"/>
	<rect x="1191.958" y="6.196" fill="#1D1D1D" width="13.469" height="1.766"/>
</g>
<g>
	<rect x="967.528" fill="#1D1D1D" width="13.47" height="1.766"/>
	<rect x="989.972" fill="#1D1D1D" width="13.469" height="1.766"/>
	<rect x="1012.414" fill="#1D1D1D" width="13.47" height="1.766"/>
	<rect x="1034.857" fill="#1D1D1D" width="13.47" height="1.766"/>
	<rect x="1057.3" fill="#1D1D1D" width="13.47" height="1.766"/>
	<rect x="1079.743" fill="#1D1D1D" width="13.469" height="1.766"/>
	<rect x="1102.187" fill="#1D1D1D" width="13.469" height="1.766"/>
	<rect x="1124.629" fill="#1D1D1D" width="13.469" height="1.766"/>
	<rect x="1147.071" fill="#1D1D1D" width="13.47" height="1.766"/>
	<rect x="1169.515" fill="#1D1D1D" width="13.469" height="1.766"/>
	<rect x="1191.958" fill="#1D1D1D" width="13.469" height="1.766"/>
</g>
<path fill="#1C2957" d="M1188.486,115.127h-70.661c-3.119,0-5.67-2.551-5.67-5.67V89.035c0-3.117,2.551-5.668,5.67-5.668h70.661
	c3.118,0,5.669,2.551,5.669,5.668v20.422C1194.155,112.576,1191.604,115.127,1188.486,115.127"/>
<path fill="none" stroke="#1B1D20" stroke-miterlimit="10" d="M1188.486,115.127h-70.661c-3.119,0-5.67-2.551-5.67-5.67V89.035
	c0-3.117,2.551-5.668,5.67-5.668h70.661c3.118,0,5.669,2.551,5.669,5.668v20.422
	C1194.155,112.576,1191.604,115.127,1188.486,115.127z"/>
</svg>
