<?xml version="1.0" encoding="utf-8"?>
<!-- Generator: Adobe Illustrator 16.0.0, SVG Export Plug-In . SVG Version: 6.00 Build 0)  -->
<!DOCTYPE svg PUBLIC "-//W3C//DTD SVG 1.1//EN" "http://www.w3.org/Graphics/SVG/1.1/DTD/svg11.dtd">
<svg version="1.1" id="图层_1" xmlns="http://www.w3.org/2000/svg" xmlns:xlink="http://www.w3.org/1999/xlink" x="0px" y="0px"
	 width="99.401px" height="21.109px" viewBox="0 0 99.401 21.109" enable-background="new 0 0 99.401 21.109" xml:space="preserve">
<g>
	<path fill="#CBCBCB" d="M78.574,21.109H20.828c-2.262,0-4.118-1.787-4.204-4.047L16.141,4.366C16.05,1.981,17.959,0,20.346,0
		h58.711c2.387,0,4.295,1.981,4.205,4.366l-0.484,12.696C82.691,19.322,80.836,21.109,78.574,21.109"/>
	<path fill="none" stroke="#B9B9B9" stroke-miterlimit="10" d="M78.574,21.109H20.828c-2.262,0-4.118-1.787-4.204-4.047
		L16.141,4.366C16.05,1.981,17.959,0,20.346,0h58.711c2.387,0,4.295,1.981,4.205,4.366l-0.484,12.696
		C82.691,19.322,80.836,21.109,78.574,21.109z"/>
	<rect x="20.189" y="3.227" width="4.418" height="4.377"/>
	<rect x="25.744" y="3.227" width="4.418" height="4.377"/>
	<rect x="31.299" y="3.227" width="4.416" height="4.377"/>
	<rect x="36.854" y="3.227" width="4.416" height="4.377"/>
	<rect x="42.406" y="3.227" width="4.418" height="4.377"/>
	<rect x="47.961" y="3.227" width="4.416" height="4.377"/>
	<rect x="53.516" y="3.227" width="4.416" height="4.377"/>
	<rect x="59.068" y="3.227" width="4.418" height="4.377"/>
	<rect x="20.189" y="8.598" width="4.418" height="4.377"/>
	<rect x="25.744" y="8.598" width="4.418" height="4.377"/>
	<rect x="31.299" y="8.598" width="4.416" height="4.377"/>
	<rect x="36.854" y="8.598" width="4.416" height="4.377"/>
	<rect x="42.406" y="8.598" width="4.418" height="4.377"/>
	<rect x="47.961" y="8.598" width="4.416" height="4.377"/>
	<rect x="53.516" y="8.598" width="4.416" height="4.377"/>
	<rect x="59.068" y="8.598" width="4.418" height="4.377"/>
	<rect x="20.189" y="13.97" width="4.418" height="4.377"/>
	<rect x="25.744" y="13.97" width="4.418" height="4.377"/>
	<rect x="31.299" y="13.97" width="4.416" height="4.377"/>
	<rect x="36.854" y="13.97" width="4.416" height="4.377"/>
	<rect x="42.406" y="13.97" width="4.418" height="4.377"/>
	<rect x="47.961" y="13.97" width="4.416" height="4.377"/>
	<rect x="53.516" y="13.97" width="4.416" height="4.377"/>
	<rect x="59.068" y="13.97" width="4.418" height="4.377"/>
	<rect x="68.318" y="5.657" width="3.145" height="3.117"/>
	<rect x="68.318" y="12.819" width="3.145" height="3.117"/>
	<rect x="75.613" y="5.657" width="3.145" height="3.117"/>
	<rect x="75.613" y="12.819" width="3.145" height="3.117"/>
	<rect x="66.879" y="10.036" width="13.316" height="1.524"/>
	<rect x="73.389" y="4.333" width="0.301" height="12.931"/>
	<path fill="#BDBDBD" d="M92.309,15.238c-0.473,0-0.912-0.255-1.15-0.664l-1.797-3.111c-0.236-0.411-0.236-0.919,0-1.329
		l1.797-3.112c0.236-0.41,0.678-0.665,1.15-0.665h3.594c0.475,0,0.916,0.255,1.15,0.666l1.797,3.111c0.236,0.41,0.236,0.918,0,1.329
		l-1.797,3.11c-0.236,0.41-0.678,0.665-1.15,0.665H92.309z"/>
	<path fill="#8F8F8F" d="M95.902,6.732c0.342,0,0.656,0.182,0.826,0.477l1.797,3.112c0.17,0.295,0.17,0.657,0,0.953l-1.797,3.111
		c-0.17,0.295-0.484,0.478-0.826,0.478h-3.594c-0.34,0-0.656-0.183-0.826-0.478l-1.797-3.111c-0.17-0.296-0.17-0.658,0-0.953
		l1.797-3.112c0.17-0.295,0.486-0.477,0.826-0.477H95.902 M95.902,5.982h-3.594c-0.605,0-1.172,0.325-1.475,0.852l-1.797,3.112
		c-0.305,0.524-0.305,1.178,0,1.703l1.797,3.111c0.303,0.526,0.869,0.853,1.475,0.853h3.594c0.607,0,1.172-0.326,1.475-0.853
		l1.797-3.111c0.303-0.525,0.303-1.179,0-1.703l-1.797-3.112C97.074,6.308,96.51,5.982,95.902,5.982"/>
	<path fill="#CECECE" d="M97.715,10.826c0,1.999-1.615,3.62-3.609,3.62s-3.609-1.621-3.609-3.62s1.615-3.62,3.609-3.62
		S97.715,8.827,97.715,10.826"/>
	<ellipse fill="none" stroke="#8F8F8F" stroke-width="0.25" stroke-miterlimit="10" cx="94.105" cy="10.826" rx="3.609" ry="3.62"/>
	<path fill="#414244" d="M96.336,10.826c0,1.234-0.998,2.235-2.23,2.235c-1.23,0-2.23-1.001-2.23-2.235c0-1.235,1-2.236,2.23-2.236
		C95.338,8.59,96.336,9.591,96.336,10.826"/>
	<circle fill="none" stroke="#000000" stroke-width="0.25" stroke-miterlimit="10" cx="94.105" cy="10.826" r="2.23"/>
	<path fill="#8F8F8F" d="M94.799,10.826c0,0.384-0.311,0.695-0.693,0.695s-0.693-0.312-0.693-0.695s0.311-0.695,0.693-0.695
		S94.799,10.442,94.799,10.826"/>
	<path fill="#BDBDBD" d="M3.5,15.238c-0.473,0-0.914-0.255-1.15-0.665l-1.797-3.11c-0.237-0.411-0.237-0.919,0-1.329L2.35,7.021
		c0.236-0.41,0.677-0.665,1.15-0.665h3.593c0.474,0,0.915,0.255,1.152,0.665l1.796,3.112c0.236,0.41,0.236,0.918,0,1.329
		l-1.797,3.11c-0.237,0.41-0.678,0.665-1.151,0.665H3.5z"/>
	<path fill="#8F8F8F" d="M7.093,6.732c0.341,0,0.656,0.182,0.826,0.477l1.797,3.112c0.17,0.295,0.17,0.657,0,0.953l-1.797,3.111
		c-0.17,0.295-0.485,0.478-0.826,0.478H3.5c-0.341,0-0.656-0.183-0.826-0.478l-1.797-3.111c-0.17-0.296-0.17-0.658,0-0.953
		l1.797-3.112C2.844,6.914,3.159,6.732,3.5,6.732H7.093 M7.093,5.982H3.5c-0.607,0-1.172,0.325-1.476,0.852L0.229,9.946
		c-0.304,0.524-0.304,1.178,0,1.703l1.796,3.111c0.304,0.526,0.869,0.853,1.476,0.853h3.593c0.607,0,1.172-0.326,1.475-0.853
		l1.797-3.111c0.303-0.525,0.303-1.179,0-1.703L8.568,6.834C8.265,6.308,7.7,5.982,7.093,5.982"/>
	<path fill="#CECECE" d="M8.906,10.826c0,1.999-1.616,3.62-3.609,3.62c-1.994,0-3.61-1.621-3.61-3.62s1.616-3.62,3.61-3.62
		C7.291,7.206,8.906,8.827,8.906,10.826"/>
	<ellipse fill="none" stroke="#8F8F8F" stroke-width="0.25" stroke-miterlimit="10" cx="5.297" cy="10.826" rx="3.61" ry="3.62"/>
	<path fill="#414244" d="M7.527,10.826c0,1.234-0.998,2.235-2.23,2.235c-1.231,0-2.229-1.001-2.229-2.235
		c0-1.235,0.999-2.236,2.229-2.236C6.529,8.59,7.527,9.591,7.527,10.826"/>
	<ellipse fill="none" stroke="#000000" stroke-width="0.25" stroke-miterlimit="10" cx="5.297" cy="10.826" rx="2.23" ry="2.235"/>
	<path fill="#8F8F8F" d="M5.99,10.826c0,0.384-0.31,0.695-0.693,0.695c-0.383,0-0.693-0.312-0.693-0.695s0.31-0.695,0.693-0.695
		C5.68,10.131,5.99,10.442,5.99,10.826"/>
</g>
</svg>
