<?xml version="1.0" encoding="utf-8"?>
<!-- Generator: Adobe Illustrator 16.0.0, SVG Export Plug-In . SVG Version: 6.00 Build 0)  -->
<!DOCTYPE svg PUBLIC "-//W3C//DTD SVG 1.1//EN" "http://www.w3.org/Graphics/SVG/1.1/DTD/svg11.dtd">
<svg version="1.1" id="图层_1" xmlns="http://www.w3.org/2000/svg" xmlns:xlink="http://www.w3.org/1999/xlink" x="0px" y="0px"
	 width="1275.59px" height="504.57px" viewBox="0 0 1275.59 504.57" enable-background="new 0 0 1275.59 504.57"
	 xml:space="preserve">
<g>
	<rect x="0.851" y="0.852" fill="#232527" width="1273.89" height="502.864"/>
	<path fill="#212222" d="M1273.89,502.865H1.701V1.705H1273.89V502.865z M1275.591,0.001H0v504.567h1275.591V0.001z"/>
	<text transform="matrix(0.9989 0 0 1 329.6084 487.0166)" fill="#FFFFFF" font-family="'ArialMT'" font-size="26.6839">IPC-820</text>
	<text transform="matrix(0.9989 0 0 1 909.8662 495.458)" fill="#FFFFFF" font-family="'ArialMT'" font-size="19.1803">Embedded Intelligent Platform</text>
	<path fill="#4B4C4E" d="M46.045,473.022H19.556c-4.678,0-8.505-3.831-8.505-8.514V40.063c0-4.683,3.827-8.514,8.505-8.514h26.489
		c4.677,0,8.504,3.831,8.504,8.514v424.446C54.549,469.191,50.722,473.022,46.045,473.022"/>
	<path fill="none" stroke="#212222" stroke-width="1.701" stroke-miterlimit="10" d="M46.045,473.022H19.556
		c-4.678,0-8.505-3.831-8.505-8.514V40.063c0-4.683,3.827-8.514,8.505-8.514h26.489c4.677,0,8.504,3.831,8.504,8.514v424.446
		C54.549,469.191,50.722,473.022,46.045,473.022z"/>
	<rect x="13.219" y="222.009" fill="#212222" width="39.162" height="60.553"/>
	<path fill="#4B4C4E" d="M1256.23,473.022h-26.49c-4.677,0-8.504-3.831-8.504-8.514V40.063c0-4.683,3.827-8.514,8.504-8.514h26.49
		c4.677,0,8.504,3.831,8.504,8.514v424.446C1264.734,469.191,1260.907,473.022,1256.23,473.022"/>
	<path fill="none" stroke="#212222" stroke-width="1.701" stroke-miterlimit="10" d="M1256.23,473.022h-26.49
		c-4.677,0-8.504-3.831-8.504-8.514V40.063c0-4.683,3.827-8.514,8.504-8.514h26.49c4.677,0,8.504,3.831,8.504,8.514v424.446
		C1264.734,469.191,1260.907,473.022,1256.23,473.022z"/>
	<rect x="1223.405" y="222.009" fill="#212222" width="39.162" height="60.553"/>
	<path fill="#2A2B2D" d="M565.712,435.358H160.017c-10.735,0-17.842-10.25-13.312-19.201l45.675-90.256
		c3.221-6.364,10.161-10.434,17.795-10.434h305.381c7.633,0,14.572,4.069,17.793,10.434l45.676,90.256
		C583.554,425.108,576.448,435.358,565.712,435.358"/>
	<path fill="none" stroke="#212222" stroke-width="1.701" stroke-miterlimit="10" d="M565.712,435.358H160.017
		c-10.735,0-17.842-10.25-13.312-19.201l45.675-90.256c3.221-6.364,10.161-10.434,17.795-10.434h305.381
		c7.633,0,14.572,4.069,17.793,10.434l45.676,90.256C583.554,425.108,576.448,435.358,565.712,435.358z"/>
	<path fill="#2A2B2D" d="M160.017,72.358h405.695c10.736,0,17.842,10.25,13.313,19.201l-45.676,90.256
		c-3.221,6.363-10.16,10.434-17.793,10.434H210.175c-7.634,0-14.574-4.07-17.795-10.434L146.705,91.56
		C142.175,82.608,149.281,72.358,160.017,72.358"/>
	<path fill="none" stroke="#212222" stroke-width="1.701" stroke-miterlimit="10" d="M160.017,72.358h405.695
		c10.736,0,17.842,10.25,13.313,19.201l-45.676,90.256c-3.221,6.363-10.16,10.434-17.793,10.434H210.175
		c-7.634,0-14.574-4.07-17.795-10.434L146.705,91.56C142.175,82.608,149.281,72.358,160.017,72.358z"/>
	<path fill="#2A2B2D" d="M107.955,366.134V141.582c0-9.692,12.961-12.916,17.493-4.351l58.867,111.267
		c1.774,3.354,1.774,7.368,0,10.721l-58.867,111.268C120.916,379.052,107.955,375.827,107.955,366.134"/>
	<path fill="none" stroke="#212222" stroke-width="1.701" stroke-miterlimit="10" d="M107.955,366.134V141.582
		c0-9.692,12.961-12.916,17.493-4.351l58.867,111.267c1.774,3.354,1.774,7.368,0,10.721l-58.867,111.268
		C120.916,379.052,107.955,375.827,107.955,366.134z"/>
	<path fill="#2A2B2D" d="M1210.673,141.583v224.552c0,9.692-12.961,12.916-17.493,4.351l-58.868-111.267
		c-1.773-3.354-1.773-7.369,0-10.721l58.868-111.268C1197.712,128.665,1210.673,131.889,1210.673,141.583"/>
	<path fill="none" stroke="#212222" stroke-width="1.701" stroke-miterlimit="10" d="M1210.673,141.583v224.552
		c0,9.692-12.961,12.916-17.493,4.351l-58.868-111.267c-1.773-3.354-1.773-7.369,0-10.721l58.868-111.268
		C1197.712,128.665,1210.673,131.889,1210.673,141.583z"/>
	<path fill="#2A2B2D" d="M1106.96,268.15c-4.741-8.94-4.741-19.645,0.013-28.609l76.868-145.289c1.096-2.071,3.247-3.368,5.59-3.368
		l14.848-0.001c3.531,0,6.395-2.867,6.395-6.402V48.451c0-3.535-2.863-6.402-6.395-6.402H669.646
		c-10.435,0-20.008,5.798-24.852,15.05l-99.428,189.917c-1.729,3.3-1.729,7.237,0,10.538l99.428,189.917
		c4.844,9.252,14.417,15.05,24.852,15.05h534.633c3.531,0,6.395-2.866,6.395-6.401v-32.887c0-3.535-2.863-6.402-6.395-6.402
		l-14.848,0.001c-2.343,0-4.494-1.296-5.59-3.369L1106.96,268.15z"/>
	<path fill="none" stroke="#212222" stroke-width="1.701" stroke-miterlimit="10" d="M1106.96,268.15
		c-4.741-8.94-4.741-19.645,0.013-28.609l76.868-145.289c1.096-2.071,3.247-3.368,5.59-3.368l14.848-0.001
		c3.531,0,6.395-2.867,6.395-6.402V48.451c0-3.535-2.863-6.402-6.395-6.402H669.646c-10.435,0-20.008,5.798-24.852,15.05
		l-99.428,189.917c-1.729,3.3-1.729,7.237,0,10.538l99.428,189.917c4.844,9.252,14.417,15.05,24.852,15.05h534.633
		c3.531,0,6.395-2.866,6.395-6.401v-32.887c0-3.535-2.863-6.402-6.395-6.402l-14.848,0.001c-2.343,0-4.494-1.296-5.59-3.369
		L1106.96,268.15z"/>
	<path fill="#1B1C1C" d="M702.937,248.163l77.921-148.837c2.74-5.232-1.052-11.508-6.954-11.508h-59.035
		c-8.163,0-15.652,4.535-19.441,11.774l-77.782,148.571c-1.352,2.581-1.352,5.663,0,8.244l77.782,148.572
		c3.789,7.237,11.278,11.772,19.441,11.772h59.035c5.902,0,9.694-6.274,6.954-11.508l-77.921-148.837
		C701.585,253.826,701.585,250.744,702.937,248.163"/>
	<path fill="#1B1C1C" d="M173.925,84.244c0,3.316-2.685,6.004-5.996,6.004s-5.996-2.688-5.996-6.004
		c0-3.315,2.685-6.003,5.996-6.003S173.925,80.929,173.925,84.244"/>
	<path fill="#1B1C1C" d="M195.634,84.244c0,3.316-2.685,6.004-5.996,6.004s-5.996-2.688-5.996-6.004
		c0-3.315,2.685-6.003,5.996-6.003S195.634,80.929,195.634,84.244"/>
	<path fill="#1B1C1C" d="M217.343,84.244c0,3.316-2.685,6.004-5.996,6.004s-5.996-2.688-5.996-6.004
		c0-3.315,2.685-6.003,5.996-6.003S217.343,80.929,217.343,84.244"/>
	<path fill="#1B1C1C" d="M239.052,84.244c0,3.316-2.685,6.004-5.996,6.004s-5.996-2.688-5.996-6.004
		c0-3.315,2.685-6.003,5.996-6.003S239.052,80.929,239.052,84.244"/>
	<path fill="#1B1C1C" d="M260.762,84.244c0,3.316-2.685,6.004-5.997,6.004c-3.311,0-5.996-2.688-5.996-6.004
		c0-3.315,2.686-6.003,5.996-6.003C258.077,78.24,260.762,80.929,260.762,84.244"/>
	<path fill="#1B1C1C" d="M282.471,84.244c0,3.316-2.685,6.004-5.997,6.004c-3.311,0-5.996-2.688-5.996-6.004
		c0-3.315,2.686-6.003,5.996-6.003C279.786,78.24,282.471,80.929,282.471,84.244"/>
	<path fill="#1B1C1C" d="M304.18,84.244c0,3.316-2.685,6.004-5.997,6.004c-3.311,0-5.996-2.688-5.996-6.004
		c0-3.315,2.686-6.003,5.996-6.003C301.495,78.24,304.18,80.929,304.18,84.244"/>
	<path fill="#1B1C1C" d="M325.889,84.244c0,3.316-2.685,6.004-5.997,6.004c-3.311,0-5.996-2.688-5.996-6.004
		c0-3.315,2.686-6.003,5.996-6.003C323.204,78.24,325.889,80.929,325.889,84.244"/>
	<path fill="#1B1C1C" d="M347.599,84.244c0,3.316-2.686,6.004-5.998,6.004c-3.311,0-5.996-2.688-5.996-6.004
		c0-3.315,2.686-6.003,5.996-6.003C344.913,78.24,347.599,80.929,347.599,84.244"/>
	<path fill="#1B1C1C" d="M369.308,84.244c0,3.316-2.686,6.004-5.998,6.004c-3.311,0-5.996-2.688-5.996-6.004
		c0-3.315,2.686-6.003,5.996-6.003C366.622,78.24,369.308,80.929,369.308,84.244"/>
	<path fill="#1B1C1C" d="M391.017,84.244c0,3.316-2.686,6.004-5.998,6.004c-3.311,0-5.995-2.688-5.995-6.004
		c0-3.315,2.685-6.003,5.995-6.003C388.331,78.24,391.017,80.929,391.017,84.244"/>
	<path fill="#1B1C1C" d="M412.726,84.244c0,3.316-2.686,6.004-5.997,6.004s-5.996-2.688-5.996-6.004
		c0-3.315,2.685-6.003,5.996-6.003S412.726,80.929,412.726,84.244"/>
	<path fill="#1B1C1C" d="M434.435,84.244c0,3.316-2.686,6.004-5.997,6.004s-5.996-2.688-5.996-6.004
		c0-3.315,2.685-6.003,5.996-6.003S434.435,80.929,434.435,84.244"/>
	<path fill="#1B1C1C" d="M456.144,84.244c0,3.316-2.686,6.004-5.997,6.004s-5.996-2.688-5.996-6.004
		c0-3.315,2.685-6.003,5.996-6.003S456.144,80.929,456.144,84.244"/>
	<path fill="#1B1C1C" d="M477.853,84.244c0,3.316-2.686,6.004-5.997,6.004s-5.996-2.688-5.996-6.004
		c0-3.315,2.685-6.003,5.996-6.003S477.853,80.929,477.853,84.244"/>
	<path fill="#1B1C1C" d="M499.562,84.244c0,3.316-2.685,6.004-5.997,6.004c-3.311,0-5.995-2.688-5.995-6.004
		c0-3.315,2.685-6.003,5.995-6.003C496.877,78.24,499.562,80.929,499.562,84.244"/>
	<path fill="#1B1C1C" d="M521.271,84.244c0,3.316-2.685,6.004-5.996,6.004s-5.996-2.688-5.996-6.004
		c0-3.315,2.685-6.003,5.996-6.003S521.271,80.929,521.271,84.244"/>
	<path fill="#1B1C1C" d="M542.979,84.244c0,3.316-2.685,6.004-5.996,6.004s-5.996-2.688-5.996-6.004
		c0-3.315,2.685-6.003,5.996-6.003S542.979,80.929,542.979,84.244"/>
	<path fill="#1B1C1C" d="M564.688,84.244c0,3.316-2.685,6.004-5.996,6.004s-5.996-2.688-5.996-6.004
		c0-3.315,2.685-6.003,5.996-6.003S564.688,80.929,564.688,84.244"/>
	<path fill="#1B1C1C" d="M183.642,96.25c0,3.316-2.686,6.004-5.998,6.004c-3.311,0-5.996-2.688-5.996-6.004
		c0-3.315,2.686-6.003,5.996-6.003C180.956,90.248,183.642,92.935,183.642,96.25"/>
	<path fill="#1B1C1C" d="M205.351,96.25c0,3.316-2.686,6.004-5.997,6.004s-5.996-2.688-5.996-6.004c0-3.315,2.685-6.003,5.996-6.003
		S205.351,92.935,205.351,96.25"/>
	<path fill="#1B1C1C" d="M227.06,96.25c0,3.316-2.686,6.004-5.997,6.004s-5.996-2.688-5.996-6.004c0-3.315,2.685-6.003,5.996-6.003
		S227.06,92.935,227.06,96.25"/>
	<path fill="#1B1C1C" d="M248.769,96.25c0,3.316-2.686,6.004-5.997,6.004s-5.996-2.688-5.996-6.004c0-3.315,2.685-6.003,5.996-6.003
		S248.769,92.935,248.769,96.25"/>
	<path fill="#1B1C1C" d="M270.478,96.25c0,3.316-2.686,6.004-5.997,6.004s-5.996-2.688-5.996-6.004c0-3.315,2.685-6.003,5.996-6.003
		S270.478,92.935,270.478,96.25"/>
	<path fill="#1B1C1C" d="M292.187,96.25c0,3.316-2.686,6.004-5.997,6.004s-5.996-2.688-5.996-6.004c0-3.315,2.685-6.003,5.996-6.003
		S292.187,92.935,292.187,96.25"/>
	<path fill="#1B1C1C" d="M313.896,96.25c0,3.316-2.685,6.004-5.997,6.004c-3.311,0-5.995-2.688-5.995-6.004
		c0-3.315,2.685-6.003,5.995-6.003C311.211,90.248,313.896,92.935,313.896,96.25"/>
	<path fill="#1B1C1C" d="M335.604,96.25c0,3.316-2.685,6.004-5.996,6.004s-5.996-2.688-5.996-6.004c0-3.315,2.685-6.003,5.996-6.003
		S335.604,92.935,335.604,96.25"/>
	<path fill="#1B1C1C" d="M357.313,96.25c0,3.316-2.685,6.004-5.996,6.004s-5.996-2.688-5.996-6.004c0-3.315,2.685-6.003,5.996-6.003
		S357.313,92.935,357.313,96.25"/>
	<path fill="#1B1C1C" d="M379.022,96.25c0,3.316-2.685,6.004-5.996,6.004s-5.996-2.688-5.996-6.004c0-3.315,2.685-6.003,5.996-6.003
		S379.022,92.935,379.022,96.25"/>
	<path fill="#1B1C1C" d="M400.732,96.25c0,3.316-2.686,6.004-5.997,6.004s-5.996-2.688-5.996-6.004c0-3.315,2.685-6.003,5.996-6.003
		S400.732,92.935,400.732,96.25"/>
	<path fill="#1B1C1C" d="M422.441,96.25c0,3.316-2.685,6.004-5.997,6.004c-3.311,0-5.996-2.688-5.996-6.004
		c0-3.315,2.686-6.003,5.996-6.003C419.757,90.248,422.441,92.935,422.441,96.25"/>
	<path fill="#1B1C1C" d="M444.15,96.25c0,3.316-2.685,6.004-5.997,6.004c-3.311,0-5.996-2.688-5.996-6.004
		c0-3.315,2.686-6.003,5.996-6.003C441.466,90.248,444.15,92.935,444.15,96.25"/>
	<path fill="#1B1C1C" d="M465.859,96.25c0,3.316-2.685,6.004-5.997,6.004c-3.311,0-5.996-2.688-5.996-6.004
		c0-3.315,2.686-6.003,5.996-6.003C463.175,90.248,465.859,92.935,465.859,96.25"/>
	<path fill="#1B1C1C" d="M487.568,96.25c0,3.316-2.685,6.004-5.997,6.004c-3.311,0-5.996-2.688-5.996-6.004
		c0-3.315,2.686-6.003,5.996-6.003C484.884,90.248,487.568,92.935,487.568,96.25"/>
	<path fill="#1B1C1C" d="M509.278,96.25c0,3.316-2.686,6.004-5.996,6.004c-3.313,0-5.998-2.688-5.998-6.004
		c0-3.315,2.686-6.003,5.998-6.003C506.593,90.248,509.278,92.935,509.278,96.25"/>
	<path fill="#1B1C1C" d="M530.987,96.25c0,3.316-2.686,6.004-5.996,6.004c-3.313,0-5.998-2.688-5.998-6.004
		c0-3.315,2.686-6.003,5.998-6.003C528.302,90.248,530.987,92.935,530.987,96.25"/>
	<path fill="#1B1C1C" d="M552.696,96.25c0,3.316-2.686,6.004-5.996,6.004c-3.313,0-5.997-2.688-5.997-6.004
		c0-3.315,2.685-6.003,5.997-6.003C550.011,90.248,552.696,92.935,552.696,96.25"/>
	<path fill="#1B1C1C" d="M173.925,108.257c0,3.315-2.685,6.003-5.996,6.003s-5.996-2.688-5.996-6.003
		c0-3.315,2.685-6.004,5.996-6.004S173.925,104.942,173.925,108.257"/>
	<path fill="#1B1C1C" d="M195.634,108.257c0,3.315-2.685,6.003-5.996,6.003s-5.996-2.688-5.996-6.003
		c0-3.315,2.685-6.004,5.996-6.004S195.634,104.942,195.634,108.257"/>
	<path fill="#1B1C1C" d="M217.343,108.257c0,3.315-2.685,6.003-5.996,6.003s-5.996-2.688-5.996-6.003
		c0-3.315,2.685-6.004,5.996-6.004S217.343,104.942,217.343,108.257"/>
	<path fill="#1B1C1C" d="M239.052,108.257c0,3.315-2.685,6.003-5.996,6.003s-5.996-2.688-5.996-6.003
		c0-3.315,2.685-6.004,5.996-6.004S239.052,104.942,239.052,108.257"/>
	<path fill="#1B1C1C" d="M260.762,108.257c0,3.315-2.685,6.003-5.997,6.003c-3.311,0-5.996-2.688-5.996-6.003
		c0-3.315,2.686-6.004,5.996-6.004C258.077,102.253,260.762,104.942,260.762,108.257"/>
	<path fill="#1B1C1C" d="M282.471,108.257c0,3.315-2.685,6.003-5.997,6.003c-3.311,0-5.996-2.688-5.996-6.003
		c0-3.315,2.686-6.004,5.996-6.004C279.786,102.253,282.471,104.942,282.471,108.257"/>
	<path fill="#1B1C1C" d="M304.18,108.257c0,3.315-2.685,6.003-5.997,6.003c-3.311,0-5.996-2.688-5.996-6.003
		c0-3.315,2.686-6.004,5.996-6.004C301.495,102.253,304.18,104.942,304.18,108.257"/>
	<path fill="#1B1C1C" d="M325.889,108.257c0,3.315-2.685,6.003-5.997,6.003c-3.311,0-5.996-2.688-5.996-6.003
		c0-3.315,2.686-6.004,5.996-6.004C323.204,102.253,325.889,104.942,325.889,108.257"/>
	<path fill="#1B1C1C" d="M347.599,108.257c0,3.315-2.686,6.003-5.998,6.003c-3.311,0-5.996-2.688-5.996-6.003
		c0-3.315,2.686-6.004,5.996-6.004C344.913,102.253,347.599,104.942,347.599,108.257"/>
	<path fill="#1B1C1C" d="M369.308,108.257c0,3.315-2.686,6.003-5.998,6.003c-3.311,0-5.996-2.688-5.996-6.003
		c0-3.315,2.686-6.004,5.996-6.004C366.622,102.253,369.308,104.942,369.308,108.257"/>
	<path fill="#1B1C1C" d="M391.017,108.257c0,3.315-2.686,6.003-5.998,6.003c-3.311,0-5.995-2.688-5.995-6.003
		c0-3.315,2.685-6.004,5.995-6.004C388.331,102.253,391.017,104.942,391.017,108.257"/>
	<path fill="#1B1C1C" d="M412.726,108.257c0,3.315-2.686,6.003-5.997,6.003s-5.996-2.688-5.996-6.003
		c0-3.315,2.685-6.004,5.996-6.004S412.726,104.942,412.726,108.257"/>
	<path fill="#1B1C1C" d="M434.435,108.257c0,3.315-2.686,6.003-5.997,6.003s-5.996-2.688-5.996-6.003
		c0-3.315,2.685-6.004,5.996-6.004S434.435,104.942,434.435,108.257"/>
	<path fill="#1B1C1C" d="M456.144,108.257c0,3.315-2.686,6.003-5.997,6.003s-5.996-2.688-5.996-6.003
		c0-3.315,2.685-6.004,5.996-6.004S456.144,104.942,456.144,108.257"/>
	<path fill="#1B1C1C" d="M477.853,108.257c0,3.315-2.686,6.003-5.997,6.003s-5.996-2.688-5.996-6.003
		c0-3.315,2.685-6.004,5.996-6.004S477.853,104.942,477.853,108.257"/>
	<path fill="#1B1C1C" d="M499.562,108.257c0,3.315-2.685,6.003-5.997,6.003c-3.311,0-5.995-2.688-5.995-6.003
		c0-3.315,2.685-6.004,5.995-6.004C496.877,102.253,499.562,104.942,499.562,108.257"/>
	<path fill="#1B1C1C" d="M521.271,108.257c0,3.315-2.685,6.003-5.996,6.003s-5.996-2.688-5.996-6.003
		c0-3.315,2.685-6.004,5.996-6.004S521.271,104.942,521.271,108.257"/>
	<path fill="#1B1C1C" d="M542.979,108.257c0,3.315-2.685,6.003-5.996,6.003s-5.996-2.688-5.996-6.003
		c0-3.315,2.685-6.004,5.996-6.004S542.979,104.942,542.979,108.257"/>
	<path fill="#1B1C1C" d="M564.688,108.257c0,3.315-2.685,6.003-5.996,6.003s-5.996-2.688-5.996-6.003
		c0-3.315,2.685-6.004,5.996-6.004S564.688,104.942,564.688,108.257"/>
	<path fill="#1B1C1C" d="M183.642,120.264c0,3.316-2.686,6.004-5.998,6.004c-3.311,0-5.996-2.688-5.996-6.004
		c0-3.315,2.686-6.004,5.996-6.004C180.956,114.26,183.642,116.949,183.642,120.264"/>
	<path fill="#1B1C1C" d="M205.351,120.264c0,3.316-2.686,6.004-5.997,6.004s-5.996-2.688-5.996-6.004
		c0-3.315,2.685-6.004,5.996-6.004S205.351,116.949,205.351,120.264"/>
	<path fill="#1B1C1C" d="M227.06,120.264c0,3.316-2.686,6.004-5.997,6.004s-5.996-2.688-5.996-6.004
		c0-3.315,2.685-6.004,5.996-6.004S227.06,116.949,227.06,120.264"/>
	<path fill="#1B1C1C" d="M248.769,120.264c0,3.316-2.686,6.004-5.997,6.004s-5.996-2.688-5.996-6.004
		c0-3.315,2.685-6.004,5.996-6.004S248.769,116.949,248.769,120.264"/>
	<path fill="#1B1C1C" d="M270.478,120.264c0,3.316-2.686,6.004-5.997,6.004s-5.996-2.688-5.996-6.004
		c0-3.315,2.685-6.004,5.996-6.004S270.478,116.949,270.478,120.264"/>
	<path fill="#1B1C1C" d="M292.187,120.264c0,3.316-2.686,6.004-5.997,6.004s-5.996-2.688-5.996-6.004
		c0-3.315,2.685-6.004,5.996-6.004S292.187,116.949,292.187,120.264"/>
	<path fill="#1B1C1C" d="M313.896,120.264c0,3.316-2.685,6.004-5.997,6.004c-3.311,0-5.995-2.688-5.995-6.004
		c0-3.315,2.685-6.004,5.995-6.004C311.211,114.26,313.896,116.949,313.896,120.264"/>
	<path fill="#1B1C1C" d="M335.604,120.264c0,3.316-2.685,6.004-5.996,6.004s-5.996-2.688-5.996-6.004
		c0-3.315,2.685-6.004,5.996-6.004S335.604,116.949,335.604,120.264"/>
	<path fill="#1B1C1C" d="M357.313,120.264c0,3.316-2.685,6.004-5.996,6.004s-5.996-2.688-5.996-6.004
		c0-3.315,2.685-6.004,5.996-6.004S357.313,116.949,357.313,120.264"/>
	<path fill="#1B1C1C" d="M379.022,120.264c0,3.316-2.685,6.004-5.996,6.004s-5.996-2.688-5.996-6.004
		c0-3.315,2.685-6.004,5.996-6.004S379.022,116.949,379.022,120.264"/>
	<path fill="#1B1C1C" d="M400.732,120.264c0,3.316-2.686,6.004-5.997,6.004s-5.996-2.688-5.996-6.004
		c0-3.315,2.685-6.004,5.996-6.004S400.732,116.949,400.732,120.264"/>
	<path fill="#1B1C1C" d="M422.441,120.264c0,3.316-2.685,6.004-5.997,6.004c-3.311,0-5.996-2.688-5.996-6.004
		c0-3.315,2.686-6.004,5.996-6.004C419.757,114.26,422.441,116.949,422.441,120.264"/>
	<path fill="#1B1C1C" d="M444.15,120.264c0,3.316-2.685,6.004-5.997,6.004c-3.311,0-5.996-2.688-5.996-6.004
		c0-3.315,2.686-6.004,5.996-6.004C441.466,114.26,444.15,116.949,444.15,120.264"/>
	<path fill="#1B1C1C" d="M465.859,120.264c0,3.316-2.685,6.004-5.997,6.004c-3.311,0-5.996-2.688-5.996-6.004
		c0-3.315,2.686-6.004,5.996-6.004C463.175,114.26,465.859,116.949,465.859,120.264"/>
	<path fill="#1B1C1C" d="M487.568,120.264c0,3.316-2.685,6.004-5.997,6.004c-3.311,0-5.996-2.688-5.996-6.004
		c0-3.315,2.686-6.004,5.996-6.004C484.884,114.26,487.568,116.949,487.568,120.264"/>
	<path fill="#1B1C1C" d="M509.278,120.264c0,3.316-2.686,6.004-5.996,6.004c-3.313,0-5.998-2.688-5.998-6.004
		c0-3.315,2.686-6.004,5.998-6.004C506.593,114.26,509.278,116.949,509.278,120.264"/>
	<path fill="#1B1C1C" d="M530.987,120.264c0,3.316-2.686,6.004-5.996,6.004c-3.313,0-5.998-2.688-5.998-6.004
		c0-3.315,2.686-6.004,5.998-6.004C528.302,114.26,530.987,116.949,530.987,120.264"/>
	<path fill="#1B1C1C" d="M552.696,120.264c0,3.316-2.686,6.004-5.996,6.004c-3.313,0-5.997-2.688-5.997-6.004
		c0-3.315,2.685-6.004,5.997-6.004C550.011,114.26,552.696,116.949,552.696,120.264"/>
	<path fill="#1B1C1C" d="M195.634,132.271c0,3.315-2.685,6.003-5.996,6.003s-5.996-2.688-5.996-6.003
		c0-3.315,2.685-6.004,5.996-6.004S195.634,128.955,195.634,132.271"/>
	<path fill="#1B1C1C" d="M217.343,132.271c0,3.315-2.685,6.003-5.996,6.003s-5.996-2.688-5.996-6.003
		c0-3.315,2.685-6.004,5.996-6.004S217.343,128.955,217.343,132.271"/>
	<path fill="#1B1C1C" d="M239.052,132.271c0,3.315-2.685,6.003-5.996,6.003s-5.996-2.688-5.996-6.003
		c0-3.315,2.685-6.004,5.996-6.004S239.052,128.955,239.052,132.271"/>
	<path fill="#1B1C1C" d="M260.762,132.271c0,3.315-2.685,6.003-5.997,6.003c-3.311,0-5.996-2.688-5.996-6.003
		c0-3.315,2.686-6.004,5.996-6.004C258.077,126.267,260.762,128.955,260.762,132.271"/>
	<path fill="#1B1C1C" d="M282.471,132.271c0,3.315-2.685,6.003-5.997,6.003c-3.311,0-5.996-2.688-5.996-6.003
		c0-3.315,2.686-6.004,5.996-6.004C279.786,126.267,282.471,128.955,282.471,132.271"/>
	<path fill="#1B1C1C" d="M304.18,132.271c0,3.315-2.685,6.003-5.997,6.003c-3.311,0-5.996-2.688-5.996-6.003
		c0-3.315,2.686-6.004,5.996-6.004C301.495,126.267,304.18,128.955,304.18,132.271"/>
	<path fill="#1B1C1C" d="M325.889,132.271c0,3.315-2.685,6.003-5.997,6.003c-3.311,0-5.996-2.688-5.996-6.003
		c0-3.315,2.686-6.004,5.996-6.004C323.204,126.267,325.889,128.955,325.889,132.271"/>
	<path fill="#1B1C1C" d="M347.599,132.271c0,3.315-2.686,6.003-5.998,6.003c-3.311,0-5.996-2.688-5.996-6.003
		c0-3.315,2.686-6.004,5.996-6.004C344.913,126.267,347.599,128.955,347.599,132.271"/>
	<path fill="#1B1C1C" d="M369.308,132.271c0,3.315-2.686,6.003-5.998,6.003c-3.311,0-5.996-2.688-5.996-6.003
		c0-3.315,2.686-6.004,5.996-6.004C366.622,126.267,369.308,128.955,369.308,132.271"/>
	<path fill="#1B1C1C" d="M391.017,132.271c0,3.315-2.686,6.003-5.998,6.003c-3.311,0-5.995-2.688-5.995-6.003
		c0-3.315,2.685-6.004,5.995-6.004C388.331,126.267,391.017,128.955,391.017,132.271"/>
	<path fill="#1B1C1C" d="M412.726,132.271c0,3.315-2.686,6.003-5.997,6.003s-5.996-2.688-5.996-6.003
		c0-3.315,2.685-6.004,5.996-6.004S412.726,128.955,412.726,132.271"/>
	<path fill="#1B1C1C" d="M434.435,132.271c0,3.315-2.686,6.003-5.997,6.003s-5.996-2.688-5.996-6.003
		c0-3.315,2.685-6.004,5.996-6.004S434.435,128.955,434.435,132.271"/>
	<path fill="#1B1C1C" d="M456.144,132.271c0,3.315-2.686,6.003-5.997,6.003s-5.996-2.688-5.996-6.003
		c0-3.315,2.685-6.004,5.996-6.004S456.144,128.955,456.144,132.271"/>
	<path fill="#1B1C1C" d="M477.853,132.271c0,3.315-2.686,6.003-5.997,6.003s-5.996-2.688-5.996-6.003
		c0-3.315,2.685-6.004,5.996-6.004S477.853,128.955,477.853,132.271"/>
	<path fill="#1B1C1C" d="M499.562,132.271c0,3.315-2.685,6.003-5.997,6.003c-3.311,0-5.995-2.688-5.995-6.003
		c0-3.315,2.685-6.004,5.995-6.004C496.877,126.267,499.562,128.955,499.562,132.271"/>
	<path fill="#1B1C1C" d="M521.271,132.271c0,3.315-2.685,6.003-5.996,6.003s-5.996-2.688-5.996-6.003
		c0-3.315,2.685-6.004,5.996-6.004S521.271,128.955,521.271,132.271"/>
	<path fill="#1B1C1C" d="M542.979,132.271c0,3.315-2.685,6.003-5.996,6.003s-5.996-2.688-5.996-6.003
		c0-3.315,2.685-6.004,5.996-6.004S542.979,128.955,542.979,132.271"/>
	<path fill="#1B1C1C" d="M205.351,144.277c0,3.316-2.686,6.004-5.997,6.004s-5.996-2.688-5.996-6.004
		c0-3.316,2.685-6.003,5.996-6.003S205.351,140.961,205.351,144.277"/>
	<path fill="#1B1C1C" d="M227.06,144.277c0,3.316-2.686,6.004-5.997,6.004s-5.996-2.688-5.996-6.004
		c0-3.316,2.685-6.003,5.996-6.003S227.06,140.961,227.06,144.277"/>
	<path fill="#1B1C1C" d="M248.769,144.277c0,3.316-2.686,6.004-5.997,6.004s-5.996-2.688-5.996-6.004
		c0-3.316,2.685-6.003,5.996-6.003S248.769,140.961,248.769,144.277"/>
	<path fill="#1B1C1C" d="M270.478,144.277c0,3.316-2.686,6.004-5.997,6.004s-5.996-2.688-5.996-6.004
		c0-3.316,2.685-6.003,5.996-6.003S270.478,140.961,270.478,144.277"/>
	<path fill="#1B1C1C" d="M292.187,144.277c0,3.316-2.686,6.004-5.997,6.004s-5.996-2.688-5.996-6.004
		c0-3.316,2.685-6.003,5.996-6.003S292.187,140.961,292.187,144.277"/>
	<path fill="#1B1C1C" d="M313.896,144.277c0,3.316-2.685,6.004-5.997,6.004c-3.311,0-5.995-2.688-5.995-6.004
		c0-3.316,2.685-6.003,5.995-6.003C311.211,138.273,313.896,140.961,313.896,144.277"/>
	<path fill="#1B1C1C" d="M335.604,144.277c0,3.316-2.685,6.004-5.996,6.004s-5.996-2.688-5.996-6.004
		c0-3.316,2.685-6.003,5.996-6.003S335.604,140.961,335.604,144.277"/>
	<path fill="#1B1C1C" d="M357.313,144.277c0,3.316-2.685,6.004-5.996,6.004s-5.996-2.688-5.996-6.004
		c0-3.316,2.685-6.003,5.996-6.003S357.313,140.961,357.313,144.277"/>
	<path fill="#1B1C1C" d="M379.022,144.277c0,3.316-2.685,6.004-5.996,6.004s-5.996-2.688-5.996-6.004
		c0-3.316,2.685-6.003,5.996-6.003S379.022,140.961,379.022,144.277"/>
	<path fill="#1B1C1C" d="M400.732,144.277c0,3.316-2.686,6.004-5.997,6.004s-5.996-2.688-5.996-6.004
		c0-3.316,2.685-6.003,5.996-6.003S400.732,140.961,400.732,144.277"/>
	<path fill="#1B1C1C" d="M422.441,144.277c0,3.316-2.685,6.004-5.997,6.004c-3.311,0-5.996-2.688-5.996-6.004
		c0-3.316,2.686-6.003,5.996-6.003C419.757,138.273,422.441,140.961,422.441,144.277"/>
	<path fill="#1B1C1C" d="M444.15,144.277c0,3.316-2.685,6.004-5.997,6.004c-3.311,0-5.996-2.688-5.996-6.004
		c0-3.316,2.686-6.003,5.996-6.003C441.466,138.273,444.15,140.961,444.15,144.277"/>
	<path fill="#1B1C1C" d="M465.859,144.277c0,3.316-2.685,6.004-5.997,6.004c-3.311,0-5.996-2.688-5.996-6.004
		c0-3.316,2.686-6.003,5.996-6.003C463.175,138.273,465.859,140.961,465.859,144.277"/>
	<path fill="#1B1C1C" d="M487.568,144.277c0,3.316-2.685,6.004-5.997,6.004c-3.311,0-5.996-2.688-5.996-6.004
		c0-3.316,2.686-6.003,5.996-6.003C484.884,138.273,487.568,140.961,487.568,144.277"/>
	<path fill="#1B1C1C" d="M509.278,144.277c0,3.316-2.686,6.004-5.996,6.004c-3.313,0-5.998-2.688-5.998-6.004
		c0-3.316,2.686-6.003,5.998-6.003C506.593,138.273,509.278,140.961,509.278,144.277"/>
	<path fill="#1B1C1C" d="M530.987,144.277c0,3.316-2.686,6.004-5.996,6.004c-3.313,0-5.998-2.688-5.998-6.004
		c0-3.316,2.686-6.003,5.998-6.003C528.302,138.273,530.987,140.961,530.987,144.277"/>
	<path fill="#1B1C1C" d="M195.634,156.284c0,3.315-2.685,6.004-5.996,6.004s-5.996-2.688-5.996-6.004s2.685-6.004,5.996-6.004
		S195.634,152.968,195.634,156.284"/>
	<path fill="#1B1C1C" d="M217.343,156.284c0,3.315-2.685,6.004-5.996,6.004s-5.996-2.688-5.996-6.004s2.685-6.004,5.996-6.004
		S217.343,152.968,217.343,156.284"/>
	<path fill="#1B1C1C" d="M239.052,156.284c0,3.315-2.685,6.004-5.996,6.004s-5.996-2.688-5.996-6.004s2.685-6.004,5.996-6.004
		S239.052,152.968,239.052,156.284"/>
	<path fill="#1B1C1C" d="M260.762,156.284c0,3.315-2.685,6.004-5.997,6.004c-3.311,0-5.996-2.688-5.996-6.004
		s2.686-6.004,5.996-6.004C258.077,150.28,260.762,152.968,260.762,156.284"/>
	<path fill="#1B1C1C" d="M282.471,156.284c0,3.315-2.685,6.004-5.997,6.004c-3.311,0-5.996-2.688-5.996-6.004
		s2.686-6.004,5.996-6.004C279.786,150.28,282.471,152.968,282.471,156.284"/>
	<path fill="#1B1C1C" d="M304.18,156.284c0,3.315-2.685,6.004-5.997,6.004c-3.311,0-5.996-2.688-5.996-6.004
		s2.686-6.004,5.996-6.004C301.495,150.28,304.18,152.968,304.18,156.284"/>
	<path fill="#1B1C1C" d="M325.889,156.284c0,3.315-2.685,6.004-5.997,6.004c-3.311,0-5.996-2.688-5.996-6.004
		s2.686-6.004,5.996-6.004C323.204,150.28,325.889,152.968,325.889,156.284"/>
	<path fill="#1B1C1C" d="M347.599,156.284c0,3.315-2.686,6.004-5.998,6.004c-3.311,0-5.996-2.688-5.996-6.004
		s2.686-6.004,5.996-6.004C344.913,150.28,347.599,152.968,347.599,156.284"/>
	<path fill="#1B1C1C" d="M369.308,156.284c0,3.315-2.686,6.004-5.998,6.004c-3.311,0-5.996-2.688-5.996-6.004
		s2.686-6.004,5.996-6.004C366.622,150.28,369.308,152.968,369.308,156.284"/>
	<path fill="#1B1C1C" d="M391.017,156.284c0,3.315-2.686,6.004-5.998,6.004c-3.311,0-5.995-2.688-5.995-6.004
		s2.685-6.004,5.995-6.004C388.331,150.28,391.017,152.968,391.017,156.284"/>
	<path fill="#1B1C1C" d="M412.726,156.284c0,3.315-2.686,6.004-5.997,6.004s-5.996-2.688-5.996-6.004s2.685-6.004,5.996-6.004
		S412.726,152.968,412.726,156.284"/>
	<path fill="#1B1C1C" d="M434.435,156.284c0,3.315-2.686,6.004-5.997,6.004s-5.996-2.688-5.996-6.004s2.685-6.004,5.996-6.004
		S434.435,152.968,434.435,156.284"/>
	<path fill="#1B1C1C" d="M456.144,156.284c0,3.315-2.686,6.004-5.997,6.004s-5.996-2.688-5.996-6.004s2.685-6.004,5.996-6.004
		S456.144,152.968,456.144,156.284"/>
	<path fill="#1B1C1C" d="M477.853,156.284c0,3.315-2.686,6.004-5.997,6.004s-5.996-2.688-5.996-6.004s2.685-6.004,5.996-6.004
		S477.853,152.968,477.853,156.284"/>
	<path fill="#1B1C1C" d="M499.562,156.284c0,3.315-2.685,6.004-5.997,6.004c-3.311,0-5.995-2.688-5.995-6.004
		s2.685-6.004,5.995-6.004C496.877,150.28,499.562,152.968,499.562,156.284"/>
	<path fill="#1B1C1C" d="M521.271,156.284c0,3.315-2.685,6.004-5.996,6.004s-5.996-2.688-5.996-6.004s2.685-6.004,5.996-6.004
		S521.271,152.968,521.271,156.284"/>
	<path fill="#1B1C1C" d="M542.979,156.284c0,3.315-2.685,6.004-5.996,6.004s-5.996-2.688-5.996-6.004s2.685-6.004,5.996-6.004
		S542.979,152.968,542.979,156.284"/>
	<path fill="#1B1C1C" d="M205.351,168.291c0,3.316-2.686,6.003-5.997,6.003s-5.996-2.687-5.996-6.003
		c0-3.316,2.685-6.004,5.996-6.004S205.351,164.974,205.351,168.291"/>
	<path fill="#1B1C1C" d="M227.06,168.291c0,3.316-2.686,6.003-5.997,6.003s-5.996-2.687-5.996-6.003
		c0-3.316,2.685-6.004,5.996-6.004S227.06,164.974,227.06,168.291"/>
	<path fill="#1B1C1C" d="M248.769,168.291c0,3.316-2.686,6.003-5.997,6.003s-5.996-2.687-5.996-6.003
		c0-3.316,2.685-6.004,5.996-6.004S248.769,164.974,248.769,168.291"/>
	<path fill="#1B1C1C" d="M270.478,168.291c0,3.316-2.686,6.003-5.997,6.003s-5.996-2.687-5.996-6.003
		c0-3.316,2.685-6.004,5.996-6.004S270.478,164.974,270.478,168.291"/>
	<path fill="#1B1C1C" d="M292.187,168.291c0,3.316-2.686,6.003-5.997,6.003s-5.996-2.687-5.996-6.003
		c0-3.316,2.685-6.004,5.996-6.004S292.187,164.974,292.187,168.291"/>
	<path fill="#1B1C1C" d="M313.896,168.291c0,3.316-2.685,6.003-5.997,6.003c-3.311,0-5.995-2.687-5.995-6.003
		c0-3.316,2.685-6.004,5.995-6.004C311.211,162.287,313.896,164.974,313.896,168.291"/>
	<path fill="#1B1C1C" d="M335.604,168.291c0,3.316-2.685,6.003-5.996,6.003s-5.996-2.687-5.996-6.003
		c0-3.316,2.685-6.004,5.996-6.004S335.604,164.974,335.604,168.291"/>
	<path fill="#1B1C1C" d="M357.313,168.291c0,3.316-2.685,6.003-5.996,6.003s-5.996-2.687-5.996-6.003
		c0-3.316,2.685-6.004,5.996-6.004S357.313,164.974,357.313,168.291"/>
	<path fill="#1B1C1C" d="M379.022,168.291c0,3.316-2.685,6.003-5.996,6.003s-5.996-2.687-5.996-6.003
		c0-3.316,2.685-6.004,5.996-6.004S379.022,164.974,379.022,168.291"/>
	<path fill="#1B1C1C" d="M400.732,168.291c0,3.316-2.686,6.003-5.997,6.003s-5.996-2.687-5.996-6.003
		c0-3.316,2.685-6.004,5.996-6.004S400.732,164.974,400.732,168.291"/>
	<path fill="#1B1C1C" d="M422.441,168.291c0,3.316-2.685,6.003-5.997,6.003c-3.311,0-5.996-2.687-5.996-6.003
		c0-3.316,2.686-6.004,5.996-6.004C419.757,162.287,422.441,164.974,422.441,168.291"/>
	<path fill="#1B1C1C" d="M444.15,168.291c0,3.316-2.685,6.003-5.997,6.003c-3.311,0-5.996-2.687-5.996-6.003
		c0-3.316,2.686-6.004,5.996-6.004C441.466,162.287,444.15,164.974,444.15,168.291"/>
	<path fill="#1B1C1C" d="M465.859,168.291c0,3.316-2.685,6.003-5.997,6.003c-3.311,0-5.996-2.687-5.996-6.003
		c0-3.316,2.686-6.004,5.996-6.004C463.175,162.287,465.859,164.974,465.859,168.291"/>
	<path fill="#1B1C1C" d="M487.568,168.291c0,3.316-2.685,6.003-5.997,6.003c-3.311,0-5.996-2.687-5.996-6.003
		c0-3.316,2.686-6.004,5.996-6.004C484.884,162.287,487.568,164.974,487.568,168.291"/>
	<path fill="#1B1C1C" d="M509.278,168.291c0,3.316-2.686,6.003-5.996,6.003c-3.313,0-5.998-2.687-5.998-6.003
		c0-3.316,2.686-6.004,5.998-6.004C506.593,162.287,509.278,164.974,509.278,168.291"/>
	<path fill="#1B1C1C" d="M530.987,168.291c0,3.316-2.686,6.003-5.996,6.003c-3.313,0-5.998-2.687-5.998-6.003
		c0-3.316,2.686-6.004,5.998-6.004C528.302,162.287,530.987,164.974,530.987,168.291"/>
	<path fill="#1B1C1C" d="M217.343,180.297c0,3.315-2.685,6.004-5.996,6.004s-5.996-2.688-5.996-6.004
		c0-3.315,2.685-6.003,5.996-6.003S217.343,176.982,217.343,180.297"/>
	<path fill="#1B1C1C" d="M239.052,180.297c0,3.315-2.685,6.004-5.996,6.004s-5.996-2.688-5.996-6.004
		c0-3.315,2.685-6.003,5.996-6.003S239.052,176.982,239.052,180.297"/>
	<path fill="#1B1C1C" d="M260.762,180.297c0,3.315-2.685,6.004-5.997,6.004c-3.311,0-5.996-2.688-5.996-6.004
		c0-3.315,2.686-6.003,5.996-6.003C258.077,174.293,260.762,176.982,260.762,180.297"/>
	<path fill="#1B1C1C" d="M282.471,180.297c0,3.315-2.685,6.004-5.997,6.004c-3.311,0-5.996-2.688-5.996-6.004
		c0-3.315,2.686-6.003,5.996-6.003C279.786,174.293,282.471,176.982,282.471,180.297"/>
	<path fill="#1B1C1C" d="M304.18,180.297c0,3.315-2.685,6.004-5.997,6.004c-3.311,0-5.996-2.688-5.996-6.004
		c0-3.315,2.686-6.003,5.996-6.003C301.495,174.293,304.18,176.982,304.18,180.297"/>
	<path fill="#1B1C1C" d="M325.889,180.297c0,3.315-2.685,6.004-5.997,6.004c-3.311,0-5.996-2.688-5.996-6.004
		c0-3.315,2.686-6.003,5.996-6.003C323.204,174.293,325.889,176.982,325.889,180.297"/>
	<path fill="#1B1C1C" d="M347.599,180.297c0,3.315-2.686,6.004-5.998,6.004c-3.311,0-5.996-2.688-5.996-6.004
		c0-3.315,2.686-6.003,5.996-6.003C344.913,174.293,347.599,176.982,347.599,180.297"/>
	<path fill="#1B1C1C" d="M369.308,180.297c0,3.315-2.686,6.004-5.998,6.004c-3.311,0-5.996-2.688-5.996-6.004
		c0-3.315,2.686-6.003,5.996-6.003C366.622,174.293,369.308,176.982,369.308,180.297"/>
	<path fill="#1B1C1C" d="M391.017,180.297c0,3.315-2.686,6.004-5.998,6.004c-3.311,0-5.995-2.688-5.995-6.004
		c0-3.315,2.685-6.003,5.995-6.003C388.331,174.293,391.017,176.982,391.017,180.297"/>
	<path fill="#1B1C1C" d="M412.726,180.297c0,3.315-2.686,6.004-5.997,6.004s-5.996-2.688-5.996-6.004
		c0-3.315,2.685-6.003,5.996-6.003S412.726,176.982,412.726,180.297"/>
	<path fill="#1B1C1C" d="M434.435,180.297c0,3.315-2.686,6.004-5.997,6.004s-5.996-2.688-5.996-6.004
		c0-3.315,2.685-6.003,5.996-6.003S434.435,176.982,434.435,180.297"/>
	<path fill="#1B1C1C" d="M456.144,180.297c0,3.315-2.686,6.004-5.997,6.004s-5.996-2.688-5.996-6.004
		c0-3.315,2.685-6.003,5.996-6.003S456.144,176.982,456.144,180.297"/>
	<path fill="#1B1C1C" d="M477.853,180.297c0,3.315-2.686,6.004-5.997,6.004s-5.996-2.688-5.996-6.004
		c0-3.315,2.685-6.003,5.996-6.003S477.853,176.982,477.853,180.297"/>
	<path fill="#1B1C1C" d="M499.562,180.297c0,3.315-2.685,6.004-5.997,6.004c-3.311,0-5.995-2.688-5.995-6.004
		c0-3.315,2.685-6.003,5.995-6.003C496.877,174.293,499.562,176.982,499.562,180.297"/>
	<path fill="#1B1C1C" d="M521.271,180.297c0,3.315-2.685,6.004-5.996,6.004s-5.996-2.688-5.996-6.004
		c0-3.315,2.685-6.003,5.996-6.003S521.271,176.982,521.271,180.297"/>
	<path fill="#1B1C1C" d="M552.696,423.438c0-3.315,2.685-6.003,5.996-6.003s5.996,2.688,5.996,6.003
		c0,3.316-2.685,6.005-5.996,6.005S552.696,426.755,552.696,423.438"/>
	<path fill="#1B1C1C" d="M530.987,423.438c0-3.315,2.685-6.003,5.996-6.003s5.996,2.688,5.996,6.003
		c0,3.316-2.685,6.005-5.996,6.005S530.987,426.755,530.987,423.438"/>
	<path fill="#1B1C1C" d="M509.278,423.438c0-3.315,2.685-6.003,5.996-6.003s5.996,2.688,5.996,6.003
		c0,3.316-2.685,6.005-5.996,6.005S509.278,426.755,509.278,423.438"/>
	<path fill="#1B1C1C" d="M487.568,423.438c0-3.315,2.685-6.003,5.997-6.003c3.311,0,5.996,2.688,5.996,6.003
		c0,3.316-2.686,6.005-5.996,6.005C490.253,429.443,487.568,426.755,487.568,423.438"/>
	<path fill="#1B1C1C" d="M465.859,423.438c0-3.315,2.685-6.003,5.997-6.003c3.311,0,5.996,2.688,5.996,6.003
		c0,3.316-2.686,6.005-5.996,6.005C468.544,429.443,465.859,426.755,465.859,423.438"/>
	<path fill="#1B1C1C" d="M444.15,423.438c0-3.315,2.685-6.003,5.997-6.003c3.311,0,5.996,2.688,5.996,6.003
		c0,3.316-2.686,6.005-5.996,6.005C446.835,429.443,444.15,426.755,444.15,423.438"/>
	<path fill="#1B1C1C" d="M422.441,423.438c0-3.315,2.685-6.003,5.997-6.003c3.311,0,5.996,2.688,5.996,6.003
		c0,3.316-2.686,6.005-5.996,6.005C425.126,429.443,422.441,426.755,422.441,423.438"/>
	<path fill="#1B1C1C" d="M400.732,423.438c0-3.315,2.685-6.003,5.997-6.003c3.311,0,5.996,2.688,5.996,6.003
		c0,3.316-2.686,6.005-5.996,6.005C403.417,429.443,400.732,426.755,400.732,423.438"/>
	<path fill="#1B1C1C" d="M379.022,423.438c0-3.315,2.686-6.003,5.998-6.003c3.311,0,5.996,2.688,5.996,6.003
		c0,3.316-2.686,6.005-5.996,6.005C381.708,429.443,379.022,426.755,379.022,423.438"/>
	<path fill="#1B1C1C" d="M357.313,423.438c0-3.315,2.686-6.003,5.998-6.003c3.311,0,5.995,2.688,5.995,6.003
		c0,3.316-2.685,6.005-5.995,6.005C359.999,429.443,357.313,426.755,357.313,423.438"/>
	<path fill="#1B1C1C" d="M335.604,423.438c0-3.315,2.686-6.003,5.997-6.003s5.996,2.688,5.996,6.003
		c0,3.316-2.685,6.005-5.996,6.005S335.604,426.755,335.604,423.438"/>
	<path fill="#1B1C1C" d="M313.896,423.438c0-3.315,2.686-6.003,5.997-6.003s5.996,2.688,5.996,6.003
		c0,3.316-2.685,6.005-5.996,6.005S313.896,426.755,313.896,423.438"/>
	<path fill="#1B1C1C" d="M292.187,423.438c0-3.315,2.686-6.003,5.997-6.003s5.996,2.688,5.996,6.003
		c0,3.316-2.685,6.005-5.996,6.005S292.187,426.755,292.187,423.438"/>
	<path fill="#1B1C1C" d="M270.478,423.438c0-3.315,2.686-6.003,5.997-6.003s5.996,2.688,5.996,6.003
		c0,3.316-2.685,6.005-5.996,6.005S270.478,426.755,270.478,423.438"/>
	<path fill="#1B1C1C" d="M248.769,423.438c0-3.315,2.686-6.003,5.997-6.003c3.311,0,5.995,2.688,5.995,6.003
		c0,3.316-2.685,6.005-5.995,6.005C251.454,429.443,248.769,426.755,248.769,423.438"/>
	<path fill="#1B1C1C" d="M227.06,423.438c0-3.315,2.685-6.003,5.996-6.003s5.996,2.688,5.996,6.003c0,3.316-2.685,6.005-5.996,6.005
		S227.06,426.755,227.06,423.438"/>
	<path fill="#1B1C1C" d="M205.351,423.438c0-3.315,2.685-6.003,5.996-6.003s5.996,2.688,5.996,6.003
		c0,3.316-2.685,6.005-5.996,6.005S205.351,426.755,205.351,423.438"/>
	<path fill="#1B1C1C" d="M183.642,423.438c0-3.315,2.685-6.003,5.996-6.003s5.996,2.688,5.996,6.003
		c0,3.316-2.685,6.005-5.996,6.005S183.642,426.755,183.642,423.438"/>
	<path fill="#1B1C1C" d="M161.933,423.438c0-3.315,2.685-6.003,5.996-6.003s5.996,2.688,5.996,6.003
		c0,3.316-2.685,6.005-5.996,6.005S161.933,426.755,161.933,423.438"/>
	<path fill="#1B1C1C" d="M542.979,411.433c0-3.316,2.686-6.004,5.998-6.004c3.311,0,5.995,2.688,5.995,6.004
		c0,3.315-2.685,6.003-5.995,6.003C545.665,417.436,542.979,414.748,542.979,411.433"/>
	<path fill="#1B1C1C" d="M521.271,411.433c0-3.316,2.686-6.004,5.997-6.004s5.996,2.688,5.996,6.004
		c0,3.315-2.685,6.003-5.996,6.003S521.271,414.748,521.271,411.433"/>
	<path fill="#1B1C1C" d="M499.562,411.433c0-3.316,2.686-6.004,5.997-6.004s5.996,2.688,5.996,6.004
		c0,3.315-2.685,6.003-5.996,6.003S499.562,414.748,499.562,411.433"/>
	<path fill="#1B1C1C" d="M477.853,411.433c0-3.316,2.686-6.004,5.997-6.004s5.996,2.688,5.996,6.004
		c0,3.315-2.685,6.003-5.996,6.003S477.853,414.748,477.853,411.433"/>
	<path fill="#1B1C1C" d="M456.144,411.433c0-3.316,2.686-6.004,5.997-6.004s5.996,2.688,5.996,6.004
		c0,3.315-2.685,6.003-5.996,6.003S456.144,414.748,456.144,411.433"/>
	<path fill="#1B1C1C" d="M434.435,411.433c0-3.316,2.685-6.004,5.997-6.004c3.311,0,5.995,2.688,5.995,6.004
		c0,3.315-2.685,6.003-5.995,6.003C437.119,417.436,434.435,414.748,434.435,411.433"/>
	<path fill="#1B1C1C" d="M412.726,411.433c0-3.316,2.685-6.004,5.996-6.004s5.996,2.688,5.996,6.004
		c0,3.315-2.685,6.003-5.996,6.003S412.726,414.748,412.726,411.433"/>
	<path fill="#1B1C1C" d="M391.017,411.433c0-3.316,2.685-6.004,5.996-6.004s5.996,2.688,5.996,6.004
		c0,3.315-2.685,6.003-5.996,6.003S391.017,414.748,391.017,411.433"/>
	<path fill="#1B1C1C" d="M369.308,411.433c0-3.316,2.685-6.004,5.996-6.004s5.996,2.688,5.996,6.004
		c0,3.315-2.685,6.003-5.996,6.003S369.308,414.748,369.308,411.433"/>
	<path fill="#1B1C1C" d="M347.599,411.433c0-3.316,2.685-6.004,5.996-6.004s5.996,2.688,5.996,6.004
		c0,3.315-2.685,6.003-5.996,6.003S347.599,414.748,347.599,411.433"/>
	<path fill="#1B1C1C" d="M325.889,411.433c0-3.316,2.685-6.004,5.997-6.004c3.311,0,5.996,2.688,5.996,6.004
		c0,3.315-2.686,6.003-5.996,6.003C328.573,417.436,325.889,414.748,325.889,411.433"/>
	<path fill="#1B1C1C" d="M304.18,411.433c0-3.316,2.685-6.004,5.997-6.004c3.311,0,5.996,2.688,5.996,6.004
		c0,3.315-2.686,6.003-5.996,6.003C306.864,417.436,304.18,414.748,304.18,411.433"/>
	<path fill="#1B1C1C" d="M282.471,411.433c0-3.316,2.685-6.004,5.997-6.004c3.311,0,5.996,2.688,5.996,6.004
		c0,3.315-2.686,6.003-5.996,6.003C285.155,417.436,282.471,414.748,282.471,411.433"/>
	<path fill="#1B1C1C" d="M260.762,411.433c0-3.316,2.685-6.004,5.997-6.004c3.311,0,5.996,2.688,5.996,6.004
		c0,3.315-2.686,6.003-5.996,6.003C263.446,417.436,260.762,414.748,260.762,411.433"/>
	<path fill="#1B1C1C" d="M239.052,411.433c0-3.316,2.686-6.004,5.998-6.004c3.311,0,5.996,2.688,5.996,6.004
		c0,3.315-2.686,6.003-5.996,6.003C241.737,417.436,239.052,414.748,239.052,411.433"/>
	<path fill="#1B1C1C" d="M217.343,411.433c0-3.316,2.686-6.004,5.998-6.004c3.311,0,5.996,2.688,5.996,6.004
		c0,3.315-2.686,6.003-5.996,6.003C220.028,417.436,217.343,414.748,217.343,411.433"/>
	<path fill="#1B1C1C" d="M195.634,411.433c0-3.316,2.686-6.004,5.998-6.004c3.311,0,5.996,2.688,5.996,6.004
		c0,3.315-2.686,6.003-5.996,6.003C198.319,417.436,195.634,414.748,195.634,411.433"/>
	<path fill="#1B1C1C" d="M173.925,411.433c0-3.316,2.686-6.004,5.997-6.004s5.996,2.688,5.996,6.004
		c0,3.315-2.685,6.003-5.996,6.003S173.925,414.748,173.925,411.433"/>
	<path fill="#1B1C1C" d="M552.696,399.426c0-3.315,2.685-6.004,5.996-6.004s5.996,2.688,5.996,6.004s-2.685,6.004-5.996,6.004
		S552.696,402.741,552.696,399.426"/>
	<path fill="#1B1C1C" d="M530.987,399.426c0-3.315,2.685-6.004,5.996-6.004s5.996,2.688,5.996,6.004s-2.685,6.004-5.996,6.004
		S530.987,402.741,530.987,399.426"/>
	<path fill="#1B1C1C" d="M509.278,399.426c0-3.315,2.685-6.004,5.996-6.004s5.996,2.688,5.996,6.004s-2.685,6.004-5.996,6.004
		S509.278,402.741,509.278,399.426"/>
	<path fill="#1B1C1C" d="M487.568,399.426c0-3.315,2.685-6.004,5.997-6.004c3.311,0,5.996,2.688,5.996,6.004
		s-2.686,6.004-5.996,6.004C490.253,405.43,487.568,402.741,487.568,399.426"/>
	<path fill="#1B1C1C" d="M465.859,399.426c0-3.315,2.685-6.004,5.997-6.004c3.311,0,5.996,2.688,5.996,6.004
		s-2.686,6.004-5.996,6.004C468.544,405.43,465.859,402.741,465.859,399.426"/>
	<path fill="#1B1C1C" d="M444.15,399.426c0-3.315,2.685-6.004,5.997-6.004c3.311,0,5.996,2.688,5.996,6.004
		s-2.686,6.004-5.996,6.004C446.835,405.43,444.15,402.741,444.15,399.426"/>
	<path fill="#1B1C1C" d="M422.441,399.426c0-3.315,2.685-6.004,5.997-6.004c3.311,0,5.996,2.688,5.996,6.004
		s-2.686,6.004-5.996,6.004C425.126,405.43,422.441,402.741,422.441,399.426"/>
	<path fill="#1B1C1C" d="M400.732,399.426c0-3.315,2.685-6.004,5.997-6.004c3.311,0,5.996,2.688,5.996,6.004
		s-2.686,6.004-5.996,6.004C403.417,405.43,400.732,402.741,400.732,399.426"/>
	<path fill="#1B1C1C" d="M379.022,399.426c0-3.315,2.686-6.004,5.998-6.004c3.311,0,5.996,2.688,5.996,6.004
		s-2.686,6.004-5.996,6.004C381.708,405.43,379.022,402.741,379.022,399.426"/>
	<path fill="#1B1C1C" d="M357.313,399.426c0-3.315,2.686-6.004,5.998-6.004c3.311,0,5.995,2.688,5.995,6.004
		s-2.685,6.004-5.995,6.004C359.999,405.43,357.313,402.741,357.313,399.426"/>
	<path fill="#1B1C1C" d="M335.604,399.426c0-3.315,2.686-6.004,5.997-6.004s5.996,2.688,5.996,6.004s-2.685,6.004-5.996,6.004
		S335.604,402.741,335.604,399.426"/>
	<path fill="#1B1C1C" d="M313.896,399.426c0-3.315,2.686-6.004,5.997-6.004s5.996,2.688,5.996,6.004s-2.685,6.004-5.996,6.004
		S313.896,402.741,313.896,399.426"/>
	<path fill="#1B1C1C" d="M292.187,399.426c0-3.315,2.686-6.004,5.997-6.004s5.996,2.688,5.996,6.004s-2.685,6.004-5.996,6.004
		S292.187,402.741,292.187,399.426"/>
	<path fill="#1B1C1C" d="M270.478,399.426c0-3.315,2.686-6.004,5.997-6.004s5.996,2.688,5.996,6.004s-2.685,6.004-5.996,6.004
		S270.478,402.741,270.478,399.426"/>
	<path fill="#1B1C1C" d="M248.769,399.426c0-3.315,2.686-6.004,5.997-6.004c3.311,0,5.995,2.688,5.995,6.004
		s-2.685,6.004-5.995,6.004C251.454,405.43,248.769,402.741,248.769,399.426"/>
	<path fill="#1B1C1C" d="M227.06,399.426c0-3.315,2.685-6.004,5.996-6.004s5.996,2.688,5.996,6.004s-2.685,6.004-5.996,6.004
		S227.06,402.741,227.06,399.426"/>
	<path fill="#1B1C1C" d="M205.351,399.426c0-3.315,2.685-6.004,5.996-6.004s5.996,2.688,5.996,6.004s-2.685,6.004-5.996,6.004
		S205.351,402.741,205.351,399.426"/>
	<path fill="#1B1C1C" d="M183.642,399.426c0-3.315,2.685-6.004,5.996-6.004s5.996,2.688,5.996,6.004s-2.685,6.004-5.996,6.004
		S183.642,402.741,183.642,399.426"/>
	<path fill="#1B1C1C" d="M161.933,399.426c0-3.315,2.685-6.004,5.996-6.004s5.996,2.688,5.996,6.004s-2.685,6.004-5.996,6.004
		S161.933,402.741,161.933,399.426"/>
	<path fill="#1B1C1C" d="M542.979,387.419c0-3.315,2.686-6.003,5.998-6.003c3.311,0,5.995,2.688,5.995,6.003
		s-2.685,6.004-5.995,6.004C545.665,393.423,542.979,390.734,542.979,387.419"/>
	<path fill="#1B1C1C" d="M521.271,387.419c0-3.315,2.686-6.003,5.997-6.003s5.996,2.688,5.996,6.003s-2.685,6.004-5.996,6.004
		S521.271,390.734,521.271,387.419"/>
	<path fill="#1B1C1C" d="M499.562,387.419c0-3.315,2.686-6.003,5.997-6.003s5.996,2.688,5.996,6.003s-2.685,6.004-5.996,6.004
		S499.562,390.734,499.562,387.419"/>
	<path fill="#1B1C1C" d="M477.853,387.419c0-3.315,2.686-6.003,5.997-6.003s5.996,2.688,5.996,6.003s-2.685,6.004-5.996,6.004
		S477.853,390.734,477.853,387.419"/>
	<path fill="#1B1C1C" d="M456.144,387.419c0-3.315,2.686-6.003,5.997-6.003s5.996,2.688,5.996,6.003s-2.685,6.004-5.996,6.004
		S456.144,390.734,456.144,387.419"/>
	<path fill="#1B1C1C" d="M434.435,387.419c0-3.315,2.685-6.003,5.997-6.003c3.311,0,5.995,2.688,5.995,6.003
		s-2.685,6.004-5.995,6.004C437.119,393.423,434.435,390.734,434.435,387.419"/>
	<path fill="#1B1C1C" d="M412.726,387.419c0-3.315,2.685-6.003,5.996-6.003s5.996,2.688,5.996,6.003s-2.685,6.004-5.996,6.004
		S412.726,390.734,412.726,387.419"/>
	<path fill="#1B1C1C" d="M391.017,387.419c0-3.315,2.685-6.003,5.996-6.003s5.996,2.688,5.996,6.003s-2.685,6.004-5.996,6.004
		S391.017,390.734,391.017,387.419"/>
	<path fill="#1B1C1C" d="M369.308,387.419c0-3.315,2.685-6.003,5.996-6.003s5.996,2.688,5.996,6.003s-2.685,6.004-5.996,6.004
		S369.308,390.734,369.308,387.419"/>
	<path fill="#1B1C1C" d="M347.599,387.419c0-3.315,2.685-6.003,5.996-6.003s5.996,2.688,5.996,6.003s-2.685,6.004-5.996,6.004
		S347.599,390.734,347.599,387.419"/>
	<path fill="#1B1C1C" d="M325.889,387.419c0-3.315,2.685-6.003,5.997-6.003c3.311,0,5.996,2.688,5.996,6.003
		s-2.686,6.004-5.996,6.004C328.573,393.423,325.889,390.734,325.889,387.419"/>
	<path fill="#1B1C1C" d="M304.18,387.419c0-3.315,2.685-6.003,5.997-6.003c3.311,0,5.996,2.688,5.996,6.003
		s-2.686,6.004-5.996,6.004C306.864,393.423,304.18,390.734,304.18,387.419"/>
	<path fill="#1B1C1C" d="M282.471,387.419c0-3.315,2.685-6.003,5.997-6.003c3.311,0,5.996,2.688,5.996,6.003
		s-2.686,6.004-5.996,6.004C285.155,393.423,282.471,390.734,282.471,387.419"/>
	<path fill="#1B1C1C" d="M260.762,387.419c0-3.315,2.685-6.003,5.997-6.003c3.311,0,5.996,2.688,5.996,6.003
		s-2.686,6.004-5.996,6.004C263.446,393.423,260.762,390.734,260.762,387.419"/>
	<path fill="#1B1C1C" d="M239.052,387.419c0-3.315,2.686-6.003,5.998-6.003c3.311,0,5.996,2.688,5.996,6.003
		s-2.686,6.004-5.996,6.004C241.737,393.423,239.052,390.734,239.052,387.419"/>
	<path fill="#1B1C1C" d="M217.343,387.419c0-3.315,2.686-6.003,5.998-6.003c3.311,0,5.996,2.688,5.996,6.003
		s-2.686,6.004-5.996,6.004C220.028,393.423,217.343,390.734,217.343,387.419"/>
	<path fill="#1B1C1C" d="M195.634,387.419c0-3.315,2.686-6.003,5.998-6.003c3.311,0,5.996,2.688,5.996,6.003
		s-2.686,6.004-5.996,6.004C198.319,393.423,195.634,390.734,195.634,387.419"/>
	<path fill="#1B1C1C" d="M173.925,387.419c0-3.315,2.686-6.003,5.997-6.003s5.996,2.688,5.996,6.003s-2.685,6.004-5.996,6.004
		S173.925,390.734,173.925,387.419"/>
	<path fill="#1B1C1C" d="M530.987,375.413c0-3.315,2.685-6.003,5.996-6.003s5.996,2.688,5.996,6.003
		c0,3.314-2.685,6.004-5.996,6.004S530.987,378.728,530.987,375.413"/>
	<path fill="#1B1C1C" d="M509.278,375.413c0-3.315,2.685-6.003,5.996-6.003s5.996,2.688,5.996,6.003
		c0,3.314-2.685,6.004-5.996,6.004S509.278,378.728,509.278,375.413"/>
	<path fill="#1B1C1C" d="M487.568,375.413c0-3.315,2.685-6.003,5.997-6.003c3.311,0,5.996,2.688,5.996,6.003
		c0,3.314-2.686,6.004-5.996,6.004C490.253,381.417,487.568,378.728,487.568,375.413"/>
	<path fill="#1B1C1C" d="M465.859,375.413c0-3.315,2.685-6.003,5.997-6.003c3.311,0,5.996,2.688,5.996,6.003
		c0,3.314-2.686,6.004-5.996,6.004C468.544,381.417,465.859,378.728,465.859,375.413"/>
	<path fill="#1B1C1C" d="M444.15,375.413c0-3.315,2.685-6.003,5.997-6.003c3.311,0,5.996,2.688,5.996,6.003
		c0,3.314-2.686,6.004-5.996,6.004C446.835,381.417,444.15,378.728,444.15,375.413"/>
	<path fill="#1B1C1C" d="M422.441,375.413c0-3.315,2.685-6.003,5.997-6.003c3.311,0,5.996,2.688,5.996,6.003
		c0,3.314-2.686,6.004-5.996,6.004C425.126,381.417,422.441,378.728,422.441,375.413"/>
	<path fill="#1B1C1C" d="M400.732,375.413c0-3.315,2.685-6.003,5.997-6.003c3.311,0,5.996,2.688,5.996,6.003
		c0,3.314-2.686,6.004-5.996,6.004C403.417,381.417,400.732,378.728,400.732,375.413"/>
	<path fill="#1B1C1C" d="M379.022,375.413c0-3.315,2.686-6.003,5.998-6.003c3.311,0,5.996,2.688,5.996,6.003
		c0,3.314-2.686,6.004-5.996,6.004C381.708,381.417,379.022,378.728,379.022,375.413"/>
	<path fill="#1B1C1C" d="M357.313,375.413c0-3.315,2.686-6.003,5.998-6.003c3.311,0,5.995,2.688,5.995,6.003
		c0,3.314-2.685,6.004-5.995,6.004C359.999,381.417,357.313,378.728,357.313,375.413"/>
	<path fill="#1B1C1C" d="M335.604,375.413c0-3.315,2.686-6.003,5.997-6.003s5.996,2.688,5.996,6.003
		c0,3.314-2.685,6.004-5.996,6.004S335.604,378.728,335.604,375.413"/>
	<path fill="#1B1C1C" d="M313.896,375.413c0-3.315,2.686-6.003,5.997-6.003s5.996,2.688,5.996,6.003
		c0,3.314-2.685,6.004-5.996,6.004S313.896,378.728,313.896,375.413"/>
	<path fill="#1B1C1C" d="M292.187,375.413c0-3.315,2.686-6.003,5.997-6.003s5.996,2.688,5.996,6.003
		c0,3.314-2.685,6.004-5.996,6.004S292.187,378.728,292.187,375.413"/>
	<path fill="#1B1C1C" d="M270.478,375.413c0-3.315,2.686-6.003,5.997-6.003s5.996,2.688,5.996,6.003
		c0,3.314-2.685,6.004-5.996,6.004S270.478,378.728,270.478,375.413"/>
	<path fill="#1B1C1C" d="M248.769,375.413c0-3.315,2.686-6.003,5.997-6.003c3.311,0,5.995,2.688,5.995,6.003
		c0,3.314-2.685,6.004-5.995,6.004C251.454,381.417,248.769,378.728,248.769,375.413"/>
	<path fill="#1B1C1C" d="M227.06,375.413c0-3.315,2.685-6.003,5.996-6.003s5.996,2.688,5.996,6.003c0,3.314-2.685,6.004-5.996,6.004
		S227.06,378.728,227.06,375.413"/>
	<path fill="#1B1C1C" d="M205.351,375.413c0-3.315,2.685-6.003,5.996-6.003s5.996,2.688,5.996,6.003
		c0,3.314-2.685,6.004-5.996,6.004S205.351,378.728,205.351,375.413"/>
	<path fill="#1B1C1C" d="M183.642,375.413c0-3.315,2.685-6.003,5.996-6.003s5.996,2.688,5.996,6.003
		c0,3.314-2.685,6.004-5.996,6.004S183.642,378.728,183.642,375.413"/>
	<path fill="#1B1C1C" d="M521.271,363.406c0-3.316,2.686-6.004,5.997-6.004s5.996,2.688,5.996,6.004s-2.685,6.004-5.996,6.004
		S521.271,366.723,521.271,363.406"/>
	<path fill="#1B1C1C" d="M499.562,363.406c0-3.316,2.686-6.004,5.997-6.004s5.996,2.688,5.996,6.004s-2.685,6.004-5.996,6.004
		S499.562,366.723,499.562,363.406"/>
	<path fill="#1B1C1C" d="M477.853,363.406c0-3.316,2.686-6.004,5.997-6.004s5.996,2.688,5.996,6.004s-2.685,6.004-5.996,6.004
		S477.853,366.723,477.853,363.406"/>
	<path fill="#1B1C1C" d="M456.144,363.406c0-3.316,2.686-6.004,5.997-6.004s5.996,2.688,5.996,6.004s-2.685,6.004-5.996,6.004
		S456.144,366.723,456.144,363.406"/>
	<path fill="#1B1C1C" d="M434.435,363.406c0-3.316,2.685-6.004,5.997-6.004c3.311,0,5.995,2.688,5.995,6.004
		s-2.685,6.004-5.995,6.004C437.119,369.41,434.435,366.723,434.435,363.406"/>
	<path fill="#1B1C1C" d="M412.726,363.406c0-3.316,2.685-6.004,5.996-6.004s5.996,2.688,5.996,6.004s-2.685,6.004-5.996,6.004
		S412.726,366.723,412.726,363.406"/>
	<path fill="#1B1C1C" d="M391.017,363.406c0-3.316,2.685-6.004,5.996-6.004s5.996,2.688,5.996,6.004s-2.685,6.004-5.996,6.004
		S391.017,366.723,391.017,363.406"/>
	<path fill="#1B1C1C" d="M369.308,363.406c0-3.316,2.685-6.004,5.996-6.004s5.996,2.688,5.996,6.004s-2.685,6.004-5.996,6.004
		S369.308,366.723,369.308,363.406"/>
	<path fill="#1B1C1C" d="M347.599,363.406c0-3.316,2.685-6.004,5.996-6.004s5.996,2.688,5.996,6.004s-2.685,6.004-5.996,6.004
		S347.599,366.723,347.599,363.406"/>
	<path fill="#1B1C1C" d="M325.889,363.406c0-3.316,2.685-6.004,5.997-6.004c3.311,0,5.996,2.688,5.996,6.004
		s-2.686,6.004-5.996,6.004C328.573,369.41,325.889,366.723,325.889,363.406"/>
	<path fill="#1B1C1C" d="M304.18,363.406c0-3.316,2.685-6.004,5.997-6.004c3.311,0,5.996,2.688,5.996,6.004
		s-2.686,6.004-5.996,6.004C306.864,369.41,304.18,366.723,304.18,363.406"/>
	<path fill="#1B1C1C" d="M282.471,363.406c0-3.316,2.685-6.004,5.997-6.004c3.311,0,5.996,2.688,5.996,6.004
		s-2.686,6.004-5.996,6.004C285.155,369.41,282.471,366.723,282.471,363.406"/>
	<path fill="#1B1C1C" d="M260.762,363.406c0-3.316,2.685-6.004,5.997-6.004c3.311,0,5.996,2.688,5.996,6.004
		s-2.686,6.004-5.996,6.004C263.446,369.41,260.762,366.723,260.762,363.406"/>
	<path fill="#1B1C1C" d="M239.052,363.406c0-3.316,2.686-6.004,5.998-6.004c3.311,0,5.996,2.688,5.996,6.004
		s-2.686,6.004-5.996,6.004C241.737,369.41,239.052,366.723,239.052,363.406"/>
	<path fill="#1B1C1C" d="M217.343,363.406c0-3.316,2.686-6.004,5.998-6.004c3.311,0,5.996,2.688,5.996,6.004
		s-2.686,6.004-5.996,6.004C220.028,369.41,217.343,366.723,217.343,363.406"/>
	<path fill="#1B1C1C" d="M195.634,363.406c0-3.316,2.686-6.004,5.998-6.004c3.311,0,5.996,2.688,5.996,6.004
		s-2.686,6.004-5.996,6.004C198.319,369.41,195.634,366.723,195.634,363.406"/>
	<path fill="#1B1C1C" d="M530.987,351.399c0-3.315,2.685-6.004,5.996-6.004s5.996,2.688,5.996,6.004s-2.685,6.004-5.996,6.004
		S530.987,354.715,530.987,351.399"/>
	<path fill="#1B1C1C" d="M509.278,351.399c0-3.315,2.685-6.004,5.996-6.004s5.996,2.688,5.996,6.004s-2.685,6.004-5.996,6.004
		S509.278,354.715,509.278,351.399"/>
	<path fill="#1B1C1C" d="M487.568,351.399c0-3.315,2.685-6.004,5.997-6.004c3.311,0,5.996,2.688,5.996,6.004
		s-2.686,6.004-5.996,6.004C490.253,357.403,487.568,354.715,487.568,351.399"/>
	<path fill="#1B1C1C" d="M465.859,351.399c0-3.315,2.685-6.004,5.997-6.004c3.311,0,5.996,2.688,5.996,6.004
		s-2.686,6.004-5.996,6.004C468.544,357.403,465.859,354.715,465.859,351.399"/>
	<path fill="#1B1C1C" d="M444.15,351.399c0-3.315,2.685-6.004,5.997-6.004c3.311,0,5.996,2.688,5.996,6.004
		s-2.686,6.004-5.996,6.004C446.835,357.403,444.15,354.715,444.15,351.399"/>
	<path fill="#1B1C1C" d="M422.441,351.399c0-3.315,2.685-6.004,5.997-6.004c3.311,0,5.996,2.688,5.996,6.004
		s-2.686,6.004-5.996,6.004C425.126,357.403,422.441,354.715,422.441,351.399"/>
	<path fill="#1B1C1C" d="M400.732,351.399c0-3.315,2.685-6.004,5.997-6.004c3.311,0,5.996,2.688,5.996,6.004
		s-2.686,6.004-5.996,6.004C403.417,357.403,400.732,354.715,400.732,351.399"/>
	<path fill="#1B1C1C" d="M379.022,351.399c0-3.315,2.686-6.004,5.998-6.004c3.311,0,5.996,2.688,5.996,6.004
		s-2.686,6.004-5.996,6.004C381.708,357.403,379.022,354.715,379.022,351.399"/>
	<path fill="#1B1C1C" d="M357.313,351.399c0-3.315,2.686-6.004,5.998-6.004c3.311,0,5.995,2.688,5.995,6.004
		s-2.685,6.004-5.995,6.004C359.999,357.403,357.313,354.715,357.313,351.399"/>
	<path fill="#1B1C1C" d="M335.604,351.399c0-3.315,2.686-6.004,5.997-6.004s5.996,2.688,5.996,6.004s-2.685,6.004-5.996,6.004
		S335.604,354.715,335.604,351.399"/>
	<path fill="#1B1C1C" d="M313.896,351.399c0-3.315,2.686-6.004,5.997-6.004s5.996,2.688,5.996,6.004s-2.685,6.004-5.996,6.004
		S313.896,354.715,313.896,351.399"/>
	<path fill="#1B1C1C" d="M292.187,351.399c0-3.315,2.686-6.004,5.997-6.004s5.996,2.688,5.996,6.004s-2.685,6.004-5.996,6.004
		S292.187,354.715,292.187,351.399"/>
	<path fill="#1B1C1C" d="M270.478,351.399c0-3.315,2.686-6.004,5.997-6.004s5.996,2.688,5.996,6.004s-2.685,6.004-5.996,6.004
		S270.478,354.715,270.478,351.399"/>
	<path fill="#1B1C1C" d="M248.769,351.399c0-3.315,2.686-6.004,5.997-6.004c3.311,0,5.995,2.688,5.995,6.004
		s-2.685,6.004-5.995,6.004C251.454,357.403,248.769,354.715,248.769,351.399"/>
	<path fill="#1B1C1C" d="M227.06,351.399c0-3.315,2.685-6.004,5.996-6.004s5.996,2.688,5.996,6.004s-2.685,6.004-5.996,6.004
		S227.06,354.715,227.06,351.399"/>
	<path fill="#1B1C1C" d="M205.351,351.399c0-3.315,2.685-6.004,5.996-6.004s5.996,2.688,5.996,6.004s-2.685,6.004-5.996,6.004
		S205.351,354.715,205.351,351.399"/>
	<path fill="#1B1C1C" d="M183.642,351.399c0-3.315,2.685-6.004,5.996-6.004s5.996,2.688,5.996,6.004s-2.685,6.004-5.996,6.004
		S183.642,354.715,183.642,351.399"/>
	<path fill="#1B1C1C" d="M521.271,339.393c0-3.316,2.686-6.003,5.997-6.003s5.996,2.687,5.996,6.003s-2.685,6.004-5.996,6.004
		S521.271,342.709,521.271,339.393"/>
	<path fill="#1B1C1C" d="M499.562,339.393c0-3.316,2.686-6.003,5.997-6.003s5.996,2.687,5.996,6.003s-2.685,6.004-5.996,6.004
		S499.562,342.709,499.562,339.393"/>
	<path fill="#1B1C1C" d="M477.853,339.393c0-3.316,2.686-6.003,5.997-6.003s5.996,2.687,5.996,6.003s-2.685,6.004-5.996,6.004
		S477.853,342.709,477.853,339.393"/>
	<path fill="#1B1C1C" d="M456.144,339.393c0-3.316,2.686-6.003,5.997-6.003s5.996,2.687,5.996,6.003s-2.685,6.004-5.996,6.004
		S456.144,342.709,456.144,339.393"/>
	<path fill="#1B1C1C" d="M434.435,339.393c0-3.316,2.685-6.003,5.997-6.003c3.311,0,5.995,2.687,5.995,6.003
		s-2.685,6.004-5.995,6.004C437.119,345.396,434.435,342.709,434.435,339.393"/>
	<path fill="#1B1C1C" d="M412.726,339.393c0-3.316,2.685-6.003,5.996-6.003s5.996,2.687,5.996,6.003s-2.685,6.004-5.996,6.004
		S412.726,342.709,412.726,339.393"/>
	<path fill="#1B1C1C" d="M391.017,339.393c0-3.316,2.685-6.003,5.996-6.003s5.996,2.687,5.996,6.003s-2.685,6.004-5.996,6.004
		S391.017,342.709,391.017,339.393"/>
	<path fill="#1B1C1C" d="M369.308,339.393c0-3.316,2.685-6.003,5.996-6.003s5.996,2.687,5.996,6.003s-2.685,6.004-5.996,6.004
		S369.308,342.709,369.308,339.393"/>
	<path fill="#1B1C1C" d="M347.599,339.393c0-3.316,2.685-6.003,5.996-6.003s5.996,2.687,5.996,6.003s-2.685,6.004-5.996,6.004
		S347.599,342.709,347.599,339.393"/>
	<path fill="#1B1C1C" d="M325.889,339.393c0-3.316,2.685-6.003,5.997-6.003c3.311,0,5.996,2.687,5.996,6.003
		s-2.686,6.004-5.996,6.004C328.573,345.396,325.889,342.709,325.889,339.393"/>
	<path fill="#1B1C1C" d="M304.18,339.393c0-3.316,2.685-6.003,5.997-6.003c3.311,0,5.996,2.687,5.996,6.003
		s-2.686,6.004-5.996,6.004C306.864,345.396,304.18,342.709,304.18,339.393"/>
	<path fill="#1B1C1C" d="M282.471,339.393c0-3.316,2.685-6.003,5.997-6.003c3.311,0,5.996,2.687,5.996,6.003
		s-2.686,6.004-5.996,6.004C285.155,345.396,282.471,342.709,282.471,339.393"/>
	<path fill="#1B1C1C" d="M260.762,339.393c0-3.316,2.685-6.003,5.997-6.003c3.311,0,5.996,2.687,5.996,6.003
		s-2.686,6.004-5.996,6.004C263.446,345.396,260.762,342.709,260.762,339.393"/>
	<path fill="#1B1C1C" d="M239.052,339.393c0-3.316,2.686-6.003,5.998-6.003c3.311,0,5.996,2.687,5.996,6.003
		s-2.686,6.004-5.996,6.004C241.737,345.396,239.052,342.709,239.052,339.393"/>
	<path fill="#1B1C1C" d="M217.343,339.393c0-3.316,2.686-6.003,5.998-6.003c3.311,0,5.996,2.687,5.996,6.003
		s-2.686,6.004-5.996,6.004C220.028,345.396,217.343,342.709,217.343,339.393"/>
	<path fill="#1B1C1C" d="M195.634,339.393c0-3.316,2.686-6.003,5.998-6.003c3.311,0,5.996,2.687,5.996,6.003
		s-2.686,6.004-5.996,6.004C198.319,345.396,195.634,342.709,195.634,339.393"/>
	<path fill="#1B1C1C" d="M509.278,327.386c0-3.314,2.685-6.004,5.996-6.004s5.996,2.689,5.996,6.004
		c0,3.315-2.685,6.004-5.996,6.004S509.278,330.701,509.278,327.386"/>
	<path fill="#1B1C1C" d="M487.568,327.386c0-3.314,2.685-6.004,5.997-6.004c3.311,0,5.996,2.689,5.996,6.004
		c0,3.315-2.686,6.004-5.996,6.004C490.253,333.39,487.568,330.701,487.568,327.386"/>
	<path fill="#1B1C1C" d="M465.859,327.386c0-3.314,2.685-6.004,5.997-6.004c3.311,0,5.996,2.689,5.996,6.004
		c0,3.315-2.686,6.004-5.996,6.004C468.544,333.39,465.859,330.701,465.859,327.386"/>
	<path fill="#1B1C1C" d="M444.15,327.386c0-3.314,2.685-6.004,5.997-6.004c3.311,0,5.996,2.689,5.996,6.004
		c0,3.315-2.686,6.004-5.996,6.004C446.835,333.39,444.15,330.701,444.15,327.386"/>
	<path fill="#1B1C1C" d="M422.441,327.386c0-3.314,2.685-6.004,5.997-6.004c3.311,0,5.996,2.689,5.996,6.004
		c0,3.315-2.686,6.004-5.996,6.004C425.126,333.39,422.441,330.701,422.441,327.386"/>
	<path fill="#1B1C1C" d="M400.732,327.386c0-3.314,2.685-6.004,5.997-6.004c3.311,0,5.996,2.689,5.996,6.004
		c0,3.315-2.686,6.004-5.996,6.004C403.417,333.39,400.732,330.701,400.732,327.386"/>
	<path fill="#1B1C1C" d="M379.022,327.386c0-3.314,2.686-6.004,5.998-6.004c3.311,0,5.996,2.689,5.996,6.004
		c0,3.315-2.686,6.004-5.996,6.004C381.708,333.39,379.022,330.701,379.022,327.386"/>
	<path fill="#1B1C1C" d="M357.313,327.386c0-3.314,2.686-6.004,5.998-6.004c3.311,0,5.995,2.689,5.995,6.004
		c0,3.315-2.685,6.004-5.995,6.004C359.999,333.39,357.313,330.701,357.313,327.386"/>
	<path fill="#1B1C1C" d="M335.604,327.386c0-3.314,2.686-6.004,5.997-6.004s5.996,2.689,5.996,6.004
		c0,3.315-2.685,6.004-5.996,6.004S335.604,330.701,335.604,327.386"/>
	<path fill="#1B1C1C" d="M313.896,327.386c0-3.314,2.686-6.004,5.997-6.004s5.996,2.689,5.996,6.004
		c0,3.315-2.685,6.004-5.996,6.004S313.896,330.701,313.896,327.386"/>
	<path fill="#1B1C1C" d="M292.187,327.386c0-3.314,2.686-6.004,5.997-6.004s5.996,2.689,5.996,6.004
		c0,3.315-2.685,6.004-5.996,6.004S292.187,330.701,292.187,327.386"/>
	<path fill="#1B1C1C" d="M270.478,327.386c0-3.314,2.686-6.004,5.997-6.004s5.996,2.689,5.996,6.004
		c0,3.315-2.685,6.004-5.996,6.004S270.478,330.701,270.478,327.386"/>
	<path fill="#1B1C1C" d="M248.769,327.386c0-3.314,2.686-6.004,5.997-6.004c3.311,0,5.995,2.689,5.995,6.004
		c0,3.315-2.685,6.004-5.995,6.004C251.454,333.39,248.769,330.701,248.769,327.386"/>
	<path fill="#1B1C1C" d="M227.06,327.386c0-3.314,2.685-6.004,5.996-6.004s5.996,2.689,5.996,6.004c0,3.315-2.685,6.004-5.996,6.004
		S227.06,330.701,227.06,327.386"/>
	<path fill="#1B1C1C" d="M205.351,327.386c0-3.314,2.685-6.004,5.996-6.004s5.996,2.689,5.996,6.004
		c0,3.315-2.685,6.004-5.996,6.004S205.351,330.701,205.351,327.386"/>
	<path fill="none" stroke="#1B1C1C" stroke-width="10" stroke-linecap="round" stroke-linejoin="round" d="M1116.172,381.417
		l3.917,7.557c5.344,10.309-0.97,22.439-11.754,24.549"/>
	
		<path fill="none" stroke="#1B1C1C" stroke-width="10" stroke-linecap="round" stroke-linejoin="round" stroke-dasharray="83.093,31.16" d="
		M1077.194,413.844H862.437c-8.009,0-15.355-4.449-19.074-11.551l-41.319-78.925"/>
	
		<line fill="none" stroke="#1B1C1C" stroke-width="10" stroke-linecap="round" stroke-linejoin="round" x1="794.896" y1="309.509" x2="777.173" y2="273.61"/>
	<path fill="none" stroke="#1B1C1C" stroke-width="10" stroke-linecap="round" stroke-linejoin="round" d="M1119.124,120.264
		l2.275-4.783c5.375-11.3-2.854-24.348-15.355-24.348h-0.435"/>
	
		<path fill="none" stroke="#1B1C1C" stroke-width="10" stroke-linecap="round" stroke-linejoin="round" stroke-dasharray="80.185,30.069" d="
		M1075.54,91.133H862.438c-8.009,0-15.356,4.448-19.074,11.55l-36.772,70.239"/>
	<polyline fill="none" stroke="#1B1C1C" stroke-width="10" stroke-linecap="round" stroke-linejoin="round" points="
		799.611,186.254 796.702,191.811 781.765,222.091 	"/>
	<path fill="none" stroke="#1B1C1C" stroke-width="10" stroke-linecap="round" stroke-linejoin="round" d="M1090.27,359.502
		l1.528,2.951c5.662,10.921-2.255,23.964-14.546,23.964h-3.092"/>
	
		<path fill="none" stroke="#1B1C1C" stroke-width="10" stroke-linecap="round" stroke-linejoin="round" stroke-dasharray="93.767,35.163" d="
		M1038.998,386.417H879.663c-6.648,0-12.746-3.693-15.832-9.588l-28.555-54.541"/>
	<polyline fill="none" stroke="#1B1C1C" stroke-width="10" stroke-linecap="round" stroke-linejoin="round" points="
		827.114,306.698 825.102,302.852 810.173,270.428 	"/>
	<path fill="none" stroke="#1B1C1C" stroke-width="10" stroke-linecap="round" stroke-linejoin="round" d="M1092.72,142.738
		l0.342-0.718c5.18-10.887-2.751-23.461-14.797-23.461h-6.179"/>
	
		<path fill="none" stroke="#1B1C1C" stroke-width="10" stroke-linecap="round" stroke-linejoin="round" stroke-dasharray="89.89,33.709" d="
		M1038.377,118.559H879.663c-6.647,0-12.746,3.694-15.832,9.589l-24.23,46.282"/>
	<polyline fill="none" stroke="#1B1C1C" stroke-width="10" stroke-linecap="round" stroke-linejoin="round" points="
		831.776,189.375 825.102,202.124 812.673,224.554 	"/>
	<path fill="none" stroke="#1B1C1C" stroke-width="10" stroke-linecap="round" stroke-linejoin="round" d="M1065.458,338.494
		L1065.458,338.494c5.109,9.858-2.036,21.631-13.131,21.631h-9.682"/>
	
		<path fill="none" stroke="#1B1C1C" stroke-width="10" stroke-linecap="round" stroke-linejoin="round" stroke-dasharray="68.708,25.765" d="
		M1016.88,360.125H896.195c-5.342,0-10.243-2.968-12.724-7.706l-18.457-35.254"/>
	<polyline fill="none" stroke="#1B1C1C" stroke-width="10" stroke-linecap="round" stroke-linejoin="round" points="
		859.033,305.741 852.345,292.966 840.173,270.427 	"/>
	<path fill="none" stroke="#1B1C1C" stroke-width="10" stroke-linecap="round" stroke-linejoin="round" d="M1067.427,164.284
		c4.29-9.018-2.278-19.433-12.256-19.433h-12.645"/>
	
		<path fill="none" stroke="#1B1C1C" stroke-width="10" stroke-linecap="round" stroke-linejoin="round" stroke-dasharray="66.524,24.947" d="
		M1017.579,144.851H896.195c-5.343,0-10.244,2.968-12.724,7.706l-15.536,29.674"/>
	<polyline fill="none" stroke="#1B1C1C" stroke-width="10" stroke-linecap="round" stroke-linejoin="round" points="
		862.146,193.291 852.346,212.011 844.173,229.061 	"/>
	<path fill="#F3F5C4" d="M699.593,224.094c0,3.849-3.115,6.968-6.96,6.968c-3.844,0-6.96-3.119-6.96-6.968
		c0-3.848,3.116-6.968,6.96-6.968C696.478,217.126,699.593,220.246,699.593,224.094"/>
	<path fill="#D7A15B" d="M699.593,275.675c0,3.849-3.115,6.969-6.96,6.969c-3.844,0-6.96-3.12-6.96-6.969
		c0-3.848,3.116-6.967,6.96-6.967C696.478,268.708,699.593,271.827,699.593,275.675"/>
	<path fill="#6D6D68" d="M904.199,108.174c-11.229,0-20.333-9.114-20.333-20.354c0-11.243,9.104-20.357,20.333-20.357
		c11.23,0,20.333,9.114,20.333,20.357C924.532,99.06,915.43,108.174,904.199,108.174"/>
	<path fill="#9B9B98" d="M904.199,103.168c-8.468,0-15.333-6.873-15.333-15.349c0-8.479,6.865-15.352,15.333-15.352
		s15.333,6.872,15.333,15.352C919.532,96.295,912.667,103.168,904.199,103.168"/>
	<rect x="902.544" y="76.958" fill="#232527" width="3.311" height="21.722"/>
	
		<rect x="902.544" y="76.958" fill="none" stroke="#212222" stroke-width="1.701" stroke-miterlimit="10" width="3.311" height="21.722"/>
	<rect x="227.06" y="213.12" fill="#D0EAEF" width="197.659" height="82.728"/>
	
		<rect x="227.06" y="213.12" fill="none" stroke="#040000" stroke-width="2" stroke-miterlimit="10" width="197.659" height="82.728"/>
	<polygon fill="#FFFFFF" points="161.104,59.721 161.104,39.902 175.782,39.902 175.782,43.254 165.102,43.254 165.102,47.648 
		175.04,47.648 175.04,50.988 165.102,50.988 165.102,56.381 176.161,56.381 176.161,59.721 	"/>
	<path fill="#FFFFFF" d="M183.466,59.721l-5.779-14.356h3.982l2.701,7.326l0.784,2.447c0.206-0.622,0.337-1.031,0.392-1.23
		c0.125-0.406,0.26-0.81,0.405-1.216l2.728-7.326h3.901l-5.698,14.356H183.466z"/>
	<path fill="#FFFFFF" d="M197.598,45.972c-1.14,0.622-2.019,1.524-2.64,2.703c-0.621,1.181-0.933,2.402-0.933,3.665
		c0,1.649,0.312,3.048,0.933,4.197c0.621,1.148,1.527,2.021,2.721,2.616c0.977,0.488,1.996,0.763,3.055,0.852V45.078
		C199.598,45.164,198.548,45.453,197.598,45.972"/>
	<path fill="#FFFFFF" d="M208.825,52.502c0-2.154-0.693-3.937-2.08-5.347c-1.229-1.251-2.783-1.913-4.627-2.056v14.886
		c1.816-0.141,3.363-0.813,4.607-2.082C208.126,56.473,208.825,54.674,208.825,52.502"/>
	<polygon fill="#FFFFFF" points="212.165,37.284 217.01,31.466 209.347,35.685 209.61,25.647 204.331,32.775 201.419,20.121 
		198.506,32.775 193.227,25.647 193.491,35.685 185.827,31.466 190.673,37.284 177.228,39.902 201.022,39.902 201.814,39.902 
		225.61,39.902 	"/>
	<path fill="#FFFFFF" d="M216.079,51.197h9.315c-0.226-1.565-0.858-2.908-1.937-4.012c-1.362-1.397-3.109-2.095-5.242-2.095
		c-1.379,0-2.629,0.309-3.747,0.923c-1.119,0.616-1.984,1.509-2.595,2.678c-0.609,1.168-0.914,2.377-0.914,3.626
		c0,1.633,0.305,3.018,0.914,4.155c0.61,1.138,1.502,2,2.674,2.589c1.173,0.591,2.404,0.884,3.695,0.884
		c2.088,0,3.819-0.708,5.195-2.12c1.072-1.102,1.713-2.436,1.949-3.986h-9.309V51.197z"/>
</g>
</svg>
