<?xml version="1.0" encoding="utf-8"?>
<!-- Generator: Adobe Illustrator 16.0.0, SVG Export Plug-In . SVG Version: 6.00 Build 0)  -->
<!DOCTYPE svg PUBLIC "-//W3C//DTD SVG 1.1//EN" "http://www.w3.org/Graphics/SVG/1.1/DTD/svg11.dtd">
<svg version="1.1" id="图层_1" xmlns="http://www.w3.org/2000/svg" xmlns:xlink="http://www.w3.org/1999/xlink" x="0px" y="0px"
	 width="1275.59px" height="378.429px" viewBox="0 0 1275.59 378.429" enable-background="new 0 0 1275.59 378.429"
	 xml:space="preserve">
<rect fill="#B9B9B8" width="1275.59" height="378.429"/>
<rect y="53.65" fill="none" stroke="#383838" stroke-miterlimit="10" width="1275.59" height="0"/>
<g>
	<g>
		<path fill="#ACACAB" d="M897.604,29.203c0,5.771-4.684,10.451-10.462,10.451c-5.776,0-10.46-4.68-10.46-10.451
			c0-5.772,4.684-10.451,10.46-10.451C892.92,18.752,897.604,23.431,897.604,29.203"/>
		<ellipse fill="none" stroke="#8F8F8F" stroke-miterlimit="10" cx="887.143" cy="29.203" rx="10.461" ry="10.451"/>
		<path fill="#ACACAB" d="M894.828,29.203c0,4.24-3.44,7.679-7.687,7.679c-4.244,0-7.686-3.439-7.686-7.679
			c0-4.241,3.441-7.68,7.686-7.68C891.388,21.523,894.828,24.962,894.828,29.203"/>
		<ellipse fill="none" stroke="#8F8F8F" stroke-miterlimit="10" cx="887.142" cy="29.203" rx="7.686" ry="7.679"/>
		<g>
			<g>
				<defs>
					<rect id="SVGID_1_" x="879.896" y="21.965" width="14.493" height="14.476"/>
				</defs>
				<clipPath id="SVGID_2_">
					<use xlink:href="#SVGID_1_"  overflow="visible"/>
				</clipPath>
				<path clip-path="url(#SVGID_2_)" fill="#BBBBBB" d="M894.387,29.203c0,3.997-3.244,7.238-7.245,7.238s-7.243-3.241-7.243-7.238
					c0-3.997,3.242-7.238,7.243-7.238S894.387,25.206,894.387,29.203"/>
				<path clip-path="url(#SVGID_2_)" fill="#BCBDBD" d="M894.216,29.203c0,3.902-3.167,7.067-7.074,7.067
					c-3.906,0-7.072-3.165-7.072-7.067c0-3.903,3.166-7.067,7.072-7.067C891.049,22.136,894.216,25.3,894.216,29.203"/>
				<path clip-path="url(#SVGID_2_)" fill="#C0C0C0" d="M894.045,29.203c0,3.809-3.09,6.896-6.903,6.896
					c-3.812,0-6.903-3.088-6.903-6.896c0-3.809,3.092-6.897,6.903-6.897C890.955,22.306,894.045,25.394,894.045,29.203"/>
				<path clip-path="url(#SVGID_2_)" fill="#C2C2C2" d="M893.876,29.203c0,3.715-3.015,6.728-6.734,6.728
					c-3.718,0-6.732-3.013-6.732-6.728c0-3.715,3.015-6.728,6.732-6.728C890.861,22.476,893.876,25.488,893.876,29.203"/>
				<path clip-path="url(#SVGID_2_)" fill="#C3C5C5" d="M893.705,29.203c0,3.62-2.938,6.557-6.563,6.557
					c-3.624,0-6.562-2.937-6.562-6.557s2.938-6.558,6.562-6.558C890.767,22.646,893.705,25.583,893.705,29.203"/>
				<path clip-path="url(#SVGID_2_)" fill="#C6C7C7" d="M893.534,29.203c0,3.526-2.86,6.386-6.393,6.386
					c-3.529,0-6.392-2.859-6.392-6.386c0-3.527,2.862-6.386,6.392-6.386C890.674,22.817,893.534,25.676,893.534,29.203"/>
				<path clip-path="url(#SVGID_2_)" fill="#C8CACA" d="M893.363,29.203c0,3.433-2.785,6.216-6.222,6.216s-6.221-2.784-6.221-6.216
					c0-3.434,2.784-6.217,6.221-6.217S893.363,25.77,893.363,29.203"/>
				<path clip-path="url(#SVGID_2_)" fill="#CACCCC" d="M893.194,29.203c0,3.338-2.71,6.046-6.053,6.046
					c-3.341,0-6.051-2.708-6.051-6.046c0-3.339,2.71-6.047,6.051-6.047C890.484,23.156,893.194,25.864,893.194,29.203"/>
				<path clip-path="url(#SVGID_2_)" fill="#CDCFCF" d="M893.023,29.203c0,3.244-2.633,5.875-5.882,5.875
					c-3.247,0-5.881-2.631-5.881-5.875c0-3.245,2.634-5.875,5.881-5.875C890.391,23.328,893.023,25.958,893.023,29.203"/>
				<path clip-path="url(#SVGID_2_)" fill="#CFD1D1" d="M892.853,29.203c0,3.15-2.556,5.706-5.711,5.706
					c-3.153,0-5.71-2.555-5.71-5.706c0-3.151,2.557-5.706,5.71-5.706C890.297,23.497,892.853,26.052,892.853,29.203"/>
			</g>
		</g>
		<polygon fill="#5F5F5E" points="886.195,33.555 886.195,30.149 882.786,30.149 882.786,28.257 886.195,28.257 886.195,24.851 
			888.089,24.851 888.089,28.257 891.498,28.257 891.498,30.149 888.089,30.149 888.089,33.555 		"/>
		<path fill="#231815" d="M887.926,25.014v3.079v0.327h0.326h3.083v1.563h-3.083h-0.326v0.329v3.079h-1.566v-3.079v-0.329h-0.328
			h-3.081V28.42h3.081h0.328v-0.327v-3.079H887.926z M888.252,24.688h-2.221v3.406h-3.408v2.219h3.408v3.406h2.221v-3.406h3.41
			v-2.219h-3.41V24.688z"/>
	</g>
	<g>
		<path fill="#ACACAB" d="M365.294,29.203c0,5.771-4.684,10.451-10.462,10.451c-5.776,0-10.46-4.68-10.46-10.451
			c0-5.772,4.684-10.451,10.46-10.451C360.61,18.752,365.294,23.431,365.294,29.203"/>
		<ellipse fill="none" stroke="#8F8F8F" stroke-miterlimit="10" cx="354.833" cy="29.203" rx="10.461" ry="10.451"/>
		<path fill="#ACACAB" d="M362.52,29.203c0,4.24-3.441,7.679-7.688,7.679c-4.244,0-7.686-3.439-7.686-7.679
			c0-4.241,3.441-7.68,7.686-7.68C359.078,21.523,362.52,24.962,362.52,29.203"/>
		<ellipse fill="none" stroke="#8F8F8F" stroke-miterlimit="10" cx="354.833" cy="29.203" rx="7.687" ry="7.679"/>
		<g>
			<g>
				<defs>
					<rect id="SVGID_3_" x="347.586" y="21.965" width="14.493" height="14.476"/>
				</defs>
				<clipPath id="SVGID_4_">
					<use xlink:href="#SVGID_3_"  overflow="visible"/>
				</clipPath>
				<path clip-path="url(#SVGID_4_)" fill="#BBBBBB" d="M362.077,29.203c0,3.997-3.244,7.238-7.245,7.238
					c-4,0-7.243-3.241-7.243-7.238c0-3.997,3.243-7.238,7.243-7.238C358.833,21.965,362.077,25.206,362.077,29.203"/>
				<path clip-path="url(#SVGID_4_)" fill="#BCBDBD" d="M361.906,29.203c0,3.902-3.166,7.067-7.074,7.067
					c-3.906,0-7.072-3.165-7.072-7.067c0-3.903,3.166-7.067,7.072-7.067C358.74,22.136,361.906,25.3,361.906,29.203"/>
				<path clip-path="url(#SVGID_4_)" fill="#C0C0C0" d="M361.736,29.203c0,3.809-3.091,6.896-6.904,6.896
					c-3.812,0-6.903-3.088-6.903-6.896c0-3.809,3.092-6.897,6.903-6.897C358.646,22.306,361.736,25.394,361.736,29.203"/>
				<path clip-path="url(#SVGID_4_)" fill="#C2C2C2" d="M361.566,29.203c0,3.715-3.015,6.728-6.734,6.728
					c-3.718,0-6.732-3.013-6.732-6.728c0-3.715,3.015-6.728,6.732-6.728C358.552,22.476,361.566,25.488,361.566,29.203"/>
				<path clip-path="url(#SVGID_4_)" fill="#C3C5C5" d="M361.396,29.203c0,3.62-2.939,6.557-6.564,6.557
					c-3.624,0-6.562-2.937-6.562-6.557s2.938-6.558,6.562-6.558C358.457,22.646,361.396,25.583,361.396,29.203"/>
				<path clip-path="url(#SVGID_4_)" fill="#C6C7C7" d="M361.225,29.203c0,3.526-2.86,6.386-6.393,6.386
					c-3.529,0-6.392-2.859-6.392-6.386c0-3.527,2.862-6.386,6.392-6.386C358.364,22.817,361.225,25.676,361.225,29.203"/>
				<path clip-path="url(#SVGID_4_)" fill="#C8CACA" d="M361.055,29.203c0,3.433-2.786,6.216-6.223,6.216
					c-3.436,0-6.221-2.784-6.221-6.216c0-3.434,2.785-6.217,6.221-6.217C358.269,22.986,361.055,25.77,361.055,29.203"/>
				<path clip-path="url(#SVGID_4_)" fill="#CACCCC" d="M360.885,29.203c0,3.338-2.71,6.046-6.053,6.046
					c-3.341,0-6.051-2.708-6.051-6.046c0-3.339,2.71-6.047,6.051-6.047C358.175,23.156,360.885,25.864,360.885,29.203"/>
				<path clip-path="url(#SVGID_4_)" fill="#CDCFCF" d="M360.714,29.203c0,3.244-2.632,5.875-5.882,5.875
					c-3.247,0-5.881-2.631-5.881-5.875c0-3.245,2.634-5.875,5.881-5.875C358.082,23.328,360.714,25.958,360.714,29.203"/>
				<path clip-path="url(#SVGID_4_)" fill="#CFD1D1" d="M360.543,29.203c0,3.15-2.556,5.706-5.711,5.706
					c-3.153,0-5.71-2.555-5.71-5.706c0-3.151,2.557-5.706,5.71-5.706C357.987,23.497,360.543,26.052,360.543,29.203"/>
			</g>
		</g>
		<polygon fill="#5F5F5E" points="353.886,33.555 353.886,30.149 350.477,30.149 350.477,28.257 353.886,28.257 353.886,24.851 
			355.779,24.851 355.779,28.257 359.189,28.257 359.189,30.149 355.779,30.149 355.779,33.555 		"/>
		<path fill="#231815" d="M355.616,25.014v3.079v0.327h0.326h3.083v1.563h-3.083h-0.326v0.329v3.079h-1.566v-3.079v-0.329h-0.327
			h-3.082V28.42h3.082h0.327v-0.327v-3.079H355.616z M355.942,24.688h-2.22v3.406h-3.409v2.219h3.409v3.406h2.22v-3.406h3.41v-2.219
			h-3.41V24.688z"/>
	</g>
</g>
<g>
	<path fill="#ACACAB" d="M709.78,359.267c0,5.771-4.684,10.451-10.461,10.451s-10.461-4.68-10.461-10.451
		c0-5.772,4.684-10.451,10.461-10.451S709.78,353.494,709.78,359.267"/>
	<ellipse fill="none" stroke="#8F8F8F" stroke-miterlimit="10" cx="699.319" cy="359.267" rx="10.461" ry="10.451"/>
	<path fill="#ACACAB" d="M707.006,359.267c0,4.24-3.44,7.679-7.687,7.679c-4.244,0-7.686-3.438-7.686-7.679
		c0-4.241,3.441-7.68,7.686-7.68C703.565,351.587,707.006,355.025,707.006,359.267"/>
	<ellipse fill="none" stroke="#8F8F8F" stroke-miterlimit="10" cx="699.32" cy="359.267" rx="7.686" ry="7.679"/>
	<g>
		<g>
			<defs>
				<rect id="SVGID_5_" x="692.073" y="352.028" width="14.492" height="14.476"/>
			</defs>
			<clipPath id="SVGID_6_">
				<use xlink:href="#SVGID_5_"  overflow="visible"/>
			</clipPath>
			<path clip-path="url(#SVGID_6_)" fill="#BBBBBB" d="M706.563,359.267c0,3.997-3.243,7.237-7.244,7.237s-7.244-3.24-7.244-7.237
				s3.243-7.238,7.244-7.238S706.563,355.27,706.563,359.267"/>
			<path clip-path="url(#SVGID_6_)" fill="#BCBDBD" d="M706.394,359.267c0,3.902-3.167,7.067-7.074,7.067
				c-3.906,0-7.072-3.165-7.072-7.067c0-3.903,3.166-7.067,7.072-7.067C703.227,352.199,706.394,355.363,706.394,359.267"/>
			<path clip-path="url(#SVGID_6_)" fill="#C0C0C0" d="M706.223,359.267c0,3.809-3.091,6.896-6.903,6.896s-6.904-3.088-6.904-6.896
				c0-3.81,3.092-6.897,6.904-6.897S706.223,355.457,706.223,359.267"/>
			<path clip-path="url(#SVGID_6_)" fill="#C2C2C2" d="M706.054,359.267c0,3.715-3.016,6.728-6.734,6.728s-6.732-3.013-6.732-6.728
				c0-3.716,3.014-6.728,6.732-6.728S706.054,355.551,706.054,359.267"/>
			<path clip-path="url(#SVGID_6_)" fill="#C3C5C5" d="M705.883,359.267c0,3.62-2.938,6.558-6.563,6.558
				c-3.624,0-6.563-2.938-6.563-6.558s2.938-6.558,6.563-6.558C702.944,352.709,705.883,355.646,705.883,359.267"/>
			<path clip-path="url(#SVGID_6_)" fill="#C6C7C7" d="M705.712,359.267c0,3.526-2.861,6.386-6.393,6.386
				c-3.529,0-6.393-2.859-6.393-6.386c0-3.527,2.863-6.386,6.393-6.386C702.851,352.881,705.712,355.739,705.712,359.267"/>
			<path clip-path="url(#SVGID_6_)" fill="#C8CACA" d="M705.541,359.267c0,3.433-2.786,6.216-6.222,6.216
				c-3.437,0-6.221-2.783-6.221-6.216c0-3.434,2.784-6.217,6.221-6.217C702.755,353.05,705.541,355.833,705.541,359.267"/>
			<path clip-path="url(#SVGID_6_)" fill="#CACCCC" d="M705.372,359.267c0,3.339-2.711,6.046-6.053,6.046s-6.051-2.707-6.051-6.046
				s2.709-6.047,6.051-6.047S705.372,355.928,705.372,359.267"/>
			<path clip-path="url(#SVGID_6_)" fill="#CDCFCF" d="M705.2,359.267c0,3.244-2.632,5.875-5.881,5.875
				c-3.248,0-5.881-2.631-5.881-5.875c0-3.245,2.633-5.876,5.881-5.876C702.568,353.391,705.2,356.021,705.2,359.267"/>
			<path clip-path="url(#SVGID_6_)" fill="#CFD1D1" d="M705.03,359.267c0,3.15-2.557,5.706-5.711,5.706s-5.711-2.556-5.711-5.706
				c0-3.151,2.557-5.706,5.711-5.706S705.03,356.115,705.03,359.267"/>
		</g>
	</g>
	<polygon fill="#5F5F5E" points="698.372,363.619 698.372,360.213 694.964,360.213 694.964,358.32 698.372,358.32 698.372,354.914 
		700.267,354.914 700.267,358.32 703.676,358.32 703.676,360.213 700.267,360.213 700.267,363.619 	"/>
	<path fill="#231815" d="M700.103,355.078v3.078v0.328h0.326h3.084v1.563h-3.084h-0.326v0.328v3.08h-1.566v-3.08v-0.328h-0.327
		h-3.081v-1.563h3.081h0.327v-0.328v-3.078H700.103z M700.429,354.751h-2.22v3.405H694.8v2.219h3.409v3.406h2.22v-3.406h3.41v-2.219
		h-3.41V354.751z"/>
</g>
<g>
	<path fill="#ACACAB" d="M709.78,206.826c0,5.771-4.684,10.451-10.461,10.451s-10.461-4.68-10.461-10.451
		s4.684-10.451,10.461-10.451S709.78,201.055,709.78,206.826"/>
	<ellipse fill="none" stroke="#8F8F8F" stroke-miterlimit="10" cx="699.319" cy="206.826" rx="10.461" ry="10.451"/>
	<path fill="#ACACAB" d="M707.006,206.826c0,4.24-3.44,7.68-7.687,7.68c-4.244,0-7.686-3.439-7.686-7.68s3.441-7.68,7.686-7.68
		C703.565,199.146,707.006,202.586,707.006,206.826"/>
	<ellipse fill="none" stroke="#8F8F8F" stroke-miterlimit="10" cx="699.32" cy="206.826" rx="7.686" ry="7.68"/>
	<g>
		<g>
			<defs>
				<rect id="SVGID_7_" x="692.073" y="199.588" width="14.492" height="14.477"/>
			</defs>
			<clipPath id="SVGID_8_">
				<use xlink:href="#SVGID_7_"  overflow="visible"/>
			</clipPath>
			<path clip-path="url(#SVGID_8_)" fill="#BBBBBB" d="M706.563,206.826c0,3.997-3.243,7.238-7.244,7.238s-7.244-3.241-7.244-7.238
				c0-3.996,3.243-7.238,7.244-7.238S706.563,202.83,706.563,206.826"/>
			<path clip-path="url(#SVGID_8_)" fill="#BCBDBD" d="M706.394,206.826c0,3.902-3.167,7.067-7.074,7.067
				c-3.906,0-7.072-3.165-7.072-7.067s3.166-7.066,7.072-7.066C703.227,199.76,706.394,202.924,706.394,206.826"/>
			<path clip-path="url(#SVGID_8_)" fill="#C0C0C0" d="M706.223,206.826c0,3.809-3.091,6.896-6.903,6.896s-6.904-3.088-6.904-6.896
				s3.092-6.896,6.904-6.896S706.223,203.018,706.223,206.826"/>
			<path clip-path="url(#SVGID_8_)" fill="#C2C2C2" d="M706.054,206.826c0,3.715-3.016,6.729-6.734,6.729s-6.732-3.014-6.732-6.729
				s3.014-6.727,6.732-6.727S706.054,203.111,706.054,206.826"/>
			<path clip-path="url(#SVGID_8_)" fill="#C3C5C5" d="M705.883,206.826c0,3.621-2.938,6.558-6.563,6.558
				c-3.624,0-6.563-2.937-6.563-6.558c0-3.619,2.938-6.557,6.563-6.557C702.944,200.27,705.883,203.207,705.883,206.826"/>
			<path clip-path="url(#SVGID_8_)" fill="#C6C7C7" d="M705.712,206.826c0,3.527-2.861,6.387-6.393,6.387
				c-3.529,0-6.393-2.859-6.393-6.387s2.863-6.386,6.393-6.386C702.851,200.44,705.712,203.299,705.712,206.826"/>
			<path clip-path="url(#SVGID_8_)" fill="#C8CACA" d="M705.541,206.826c0,3.434-2.786,6.217-6.222,6.217
				c-3.437,0-6.221-2.783-6.221-6.217s2.784-6.217,6.221-6.217C702.755,200.609,705.541,203.393,705.541,206.826"/>
			<path clip-path="url(#SVGID_8_)" fill="#CACCCC" d="M705.372,206.826c0,3.339-2.711,6.047-6.053,6.047s-6.051-2.708-6.051-6.047
				c0-3.338,2.709-6.047,6.051-6.047S705.372,203.488,705.372,206.826"/>
			<path clip-path="url(#SVGID_8_)" fill="#CDCFCF" d="M705.2,206.826c0,3.244-2.632,5.875-5.881,5.875
				c-3.248,0-5.881-2.631-5.881-5.875s2.633-5.875,5.881-5.875C702.568,200.951,705.2,203.582,705.2,206.826"/>
			<path clip-path="url(#SVGID_8_)" fill="#CFD1D1" d="M705.03,206.826c0,3.15-2.557,5.706-5.711,5.706s-5.711-2.556-5.711-5.706
				s2.557-5.705,5.711-5.705S705.03,203.676,705.03,206.826"/>
		</g>
	</g>
	<polygon fill="#5F5F5E" points="698.372,211.179 698.372,207.772 694.964,207.772 694.964,205.881 698.372,205.881 
		698.372,202.475 700.267,202.475 700.267,205.881 703.676,205.881 703.676,207.772 700.267,207.772 700.267,211.179 	"/>
	<path fill="#231815" d="M700.103,202.638v3.079v0.327h0.326h3.084v1.563h-3.084h-0.326v0.328v3.079h-1.566v-3.079v-0.328h-0.327
		h-3.081v-1.563h3.081h0.327v-0.327v-3.079H700.103z M700.429,202.311h-2.22v3.406H694.8v2.219h3.409v3.406h2.22v-3.406h3.41v-2.219
		h-3.41V202.311z"/>
</g>
<g>
	<path fill="#ACACAB" d="M1182.42,359.267c0,5.771-4.684,10.451-10.462,10.451c-5.776,0-10.46-4.68-10.46-10.451
		c0-5.772,4.684-10.451,10.46-10.451C1177.736,348.815,1182.42,353.494,1182.42,359.267"/>
	<ellipse fill="none" stroke="#8F8F8F" stroke-miterlimit="10" cx="1171.959" cy="359.267" rx="10.461" ry="10.451"/>
	<path fill="#ACACAB" d="M1179.645,359.267c0,4.24-3.44,7.679-7.687,7.679c-4.244,0-7.686-3.438-7.686-7.679
		c0-4.241,3.441-7.68,7.686-7.68C1176.204,351.587,1179.645,355.025,1179.645,359.267"/>
	<ellipse fill="none" stroke="#8F8F8F" stroke-miterlimit="10" cx="1171.958" cy="359.267" rx="7.686" ry="7.679"/>
	<g>
		<g>
			<defs>
				<rect id="SVGID_9_" x="1164.712" y="352.028" width="14.493" height="14.476"/>
			</defs>
			<clipPath id="SVGID_10_">
				<use xlink:href="#SVGID_9_"  overflow="visible"/>
			</clipPath>
			<path clip-path="url(#SVGID_10_)" fill="#BBBBBB" d="M1179.203,359.267c0,3.997-3.244,7.237-7.245,7.237s-7.243-3.24-7.243-7.237
				s3.242-7.238,7.243-7.238S1179.203,355.27,1179.203,359.267"/>
			<path clip-path="url(#SVGID_10_)" fill="#BCBDBD" d="M1179.032,359.267c0,3.902-3.167,7.067-7.074,7.067
				c-3.906,0-7.072-3.165-7.072-7.067c0-3.903,3.166-7.067,7.072-7.067C1175.865,352.199,1179.032,355.363,1179.032,359.267"/>
			<path clip-path="url(#SVGID_10_)" fill="#C0C0C0" d="M1178.861,359.267c0,3.809-3.09,6.896-6.903,6.896
				c-3.812,0-6.903-3.088-6.903-6.896c0-3.81,3.092-6.897,6.903-6.897C1175.771,352.369,1178.861,355.457,1178.861,359.267"/>
			<path clip-path="url(#SVGID_10_)" fill="#C2C2C2" d="M1178.692,359.267c0,3.715-3.015,6.728-6.734,6.728
				c-3.718,0-6.732-3.013-6.732-6.728c0-3.716,3.015-6.728,6.732-6.728C1175.678,352.539,1178.692,355.551,1178.692,359.267"/>
			<path clip-path="url(#SVGID_10_)" fill="#C3C5C5" d="M1178.521,359.267c0,3.62-2.938,6.558-6.563,6.558
				c-3.624,0-6.562-2.938-6.562-6.558s2.938-6.558,6.562-6.558C1175.583,352.709,1178.521,355.646,1178.521,359.267"/>
			<path clip-path="url(#SVGID_10_)" fill="#C6C7C7" d="M1178.351,359.267c0,3.526-2.86,6.386-6.393,6.386
				c-3.529,0-6.392-2.859-6.392-6.386c0-3.527,2.862-6.386,6.392-6.386C1175.49,352.881,1178.351,355.739,1178.351,359.267"/>
			<path clip-path="url(#SVGID_10_)" fill="#C8CACA" d="M1178.18,359.267c0,3.433-2.785,6.216-6.222,6.216s-6.221-2.783-6.221-6.216
				c0-3.434,2.784-6.217,6.221-6.217S1178.18,355.833,1178.18,359.267"/>
			<path clip-path="url(#SVGID_10_)" fill="#CACCCC" d="M1178.011,359.267c0,3.339-2.71,6.046-6.053,6.046
				c-3.341,0-6.051-2.707-6.051-6.046s2.71-6.047,6.051-6.047C1175.301,353.22,1178.011,355.928,1178.011,359.267"/>
			<path clip-path="url(#SVGID_10_)" fill="#CDCFCF" d="M1177.84,359.267c0,3.244-2.633,5.875-5.882,5.875
				c-3.247,0-5.881-2.631-5.881-5.875c0-3.245,2.634-5.876,5.881-5.876C1175.207,353.391,1177.84,356.021,1177.84,359.267"/>
			<path clip-path="url(#SVGID_10_)" fill="#CFD1D1" d="M1177.669,359.267c0,3.15-2.556,5.706-5.711,5.706
				c-3.153,0-5.71-2.556-5.71-5.706c0-3.151,2.557-5.706,5.71-5.706C1175.113,353.561,1177.669,356.115,1177.669,359.267"/>
		</g>
	</g>
	<polygon fill="#5F5F5E" points="1171.012,363.619 1171.012,360.213 1167.603,360.213 1167.603,358.32 1171.012,358.32 
		1171.012,354.914 1172.905,354.914 1172.905,358.32 1176.314,358.32 1176.314,360.213 1172.905,360.213 1172.905,363.619 	"/>
	<path fill="#231815" d="M1172.742,355.078v3.078v0.328h0.326h3.083v1.563h-3.083h-0.326v0.328v3.08h-1.566v-3.08v-0.328h-0.328
		h-3.081v-1.563h3.081h0.328v-0.328v-3.078H1172.742z M1173.068,354.751h-2.221v3.405h-3.408v2.219h3.408v3.406h2.221v-3.406h3.41
		v-2.219h-3.41V354.751z"/>
</g>
<g>
	<path fill="#ACACAB" d="M365.294,359.267c0,5.771-4.684,10.451-10.462,10.451c-5.776,0-10.46-4.68-10.46-10.451
		c0-5.772,4.684-10.451,10.46-10.451C360.61,348.815,365.294,353.494,365.294,359.267"/>
	<ellipse fill="none" stroke="#8F8F8F" stroke-miterlimit="10" cx="354.833" cy="359.267" rx="10.461" ry="10.451"/>
	<path fill="#ACACAB" d="M362.52,359.267c0,4.24-3.441,7.679-7.688,7.679c-4.244,0-7.686-3.438-7.686-7.679
		c0-4.241,3.441-7.68,7.686-7.68C359.078,351.587,362.52,355.025,362.52,359.267"/>
	<ellipse fill="none" stroke="#8F8F8F" stroke-miterlimit="10" cx="354.833" cy="359.267" rx="7.687" ry="7.679"/>
	<g>
		<g>
			<defs>
				<rect id="SVGID_11_" x="347.586" y="352.028" width="14.493" height="14.476"/>
			</defs>
			<clipPath id="SVGID_12_">
				<use xlink:href="#SVGID_11_"  overflow="visible"/>
			</clipPath>
			<path clip-path="url(#SVGID_12_)" fill="#BBBBBB" d="M362.077,359.267c0,3.997-3.244,7.237-7.245,7.237
				c-4,0-7.243-3.24-7.243-7.237s3.243-7.238,7.243-7.238C358.833,352.028,362.077,355.27,362.077,359.267"/>
			<path clip-path="url(#SVGID_12_)" fill="#BCBDBD" d="M361.906,359.267c0,3.902-3.166,7.067-7.074,7.067
				c-3.906,0-7.072-3.165-7.072-7.067c0-3.903,3.166-7.067,7.072-7.067C358.74,352.199,361.906,355.363,361.906,359.267"/>
			<path clip-path="url(#SVGID_12_)" fill="#C0C0C0" d="M361.736,359.267c0,3.809-3.091,6.896-6.904,6.896
				c-3.812,0-6.903-3.088-6.903-6.896c0-3.81,3.092-6.897,6.903-6.897C358.646,352.369,361.736,355.457,361.736,359.267"/>
			<path clip-path="url(#SVGID_12_)" fill="#C2C2C2" d="M361.566,359.267c0,3.715-3.015,6.728-6.734,6.728
				c-3.718,0-6.732-3.013-6.732-6.728c0-3.716,3.015-6.728,6.732-6.728C358.552,352.539,361.566,355.551,361.566,359.267"/>
			<path clip-path="url(#SVGID_12_)" fill="#C3C5C5" d="M361.396,359.267c0,3.62-2.939,6.558-6.564,6.558
				c-3.624,0-6.562-2.938-6.562-6.558s2.938-6.558,6.562-6.558C358.457,352.709,361.396,355.646,361.396,359.267"/>
			<path clip-path="url(#SVGID_12_)" fill="#C6C7C7" d="M361.225,359.267c0,3.526-2.86,6.386-6.393,6.386
				c-3.529,0-6.392-2.859-6.392-6.386c0-3.527,2.862-6.386,6.392-6.386C358.364,352.881,361.225,355.739,361.225,359.267"/>
			<path clip-path="url(#SVGID_12_)" fill="#C8CACA" d="M361.055,359.267c0,3.433-2.786,6.216-6.223,6.216
				c-3.436,0-6.221-2.783-6.221-6.216c0-3.434,2.785-6.217,6.221-6.217C358.269,353.05,361.055,355.833,361.055,359.267"/>
			<path clip-path="url(#SVGID_12_)" fill="#CACCCC" d="M360.885,359.267c0,3.339-2.71,6.046-6.053,6.046
				c-3.341,0-6.051-2.707-6.051-6.046s2.71-6.047,6.051-6.047C358.175,353.22,360.885,355.928,360.885,359.267"/>
			<path clip-path="url(#SVGID_12_)" fill="#CDCFCF" d="M360.714,359.267c0,3.244-2.632,5.875-5.882,5.875
				c-3.247,0-5.881-2.631-5.881-5.875c0-3.245,2.634-5.876,5.881-5.876C358.082,353.391,360.714,356.021,360.714,359.267"/>
			<path clip-path="url(#SVGID_12_)" fill="#CFD1D1" d="M360.543,359.267c0,3.15-2.556,5.706-5.711,5.706
				c-3.153,0-5.71-2.556-5.71-5.706c0-3.151,2.557-5.706,5.71-5.706C357.987,353.561,360.543,356.115,360.543,359.267"/>
		</g>
	</g>
	<polygon fill="#5F5F5E" points="353.886,363.619 353.886,360.213 350.477,360.213 350.477,358.32 353.886,358.32 353.886,354.914 
		355.779,354.914 355.779,358.32 359.189,358.32 359.189,360.213 355.779,360.213 355.779,363.619 	"/>
	<path fill="#231815" d="M355.616,355.078v3.078v0.328h0.326h3.083v1.563h-3.083h-0.326v0.328v3.08h-1.566v-3.08v-0.328h-0.327
		h-3.082v-1.563h3.082h0.327v-0.328v-3.078H355.616z M355.942,354.751h-2.22v3.405h-3.409v2.219h3.409v3.406h2.22v-3.406h3.41
		v-2.219h-3.41V354.751z"/>
</g>
<g>
	<path fill="#ACACAB" d="M255.286,359.267c0,5.771-4.684,10.451-10.462,10.451c-5.777,0-10.461-4.68-10.461-10.451
		c0-5.772,4.684-10.451,10.461-10.451C250.603,348.815,255.286,353.494,255.286,359.267"/>
	<ellipse fill="none" stroke="#8F8F8F" stroke-miterlimit="10" cx="244.825" cy="359.267" rx="10.461" ry="10.451"/>
	<path fill="#ACACAB" d="M252.511,359.267c0,4.24-3.44,7.679-7.687,7.679c-4.244,0-7.686-3.438-7.686-7.679
		c0-4.241,3.441-7.68,7.686-7.68C249.07,351.587,252.511,355.025,252.511,359.267"/>
	<ellipse fill="none" stroke="#8F8F8F" stroke-miterlimit="10" cx="244.825" cy="359.267" rx="7.686" ry="7.679"/>
	<g>
		<g>
			<defs>
				<rect id="SVGID_13_" x="237.578" y="352.028" width="14.493" height="14.476"/>
			</defs>
			<clipPath id="SVGID_14_">
				<use xlink:href="#SVGID_13_"  overflow="visible"/>
			</clipPath>
			<path clip-path="url(#SVGID_14_)" fill="#BBBBBB" d="M252.069,359.267c0,3.997-3.244,7.237-7.245,7.237s-7.244-3.24-7.244-7.237
				s3.243-7.238,7.244-7.238S252.069,355.27,252.069,359.267"/>
			<path clip-path="url(#SVGID_14_)" fill="#BCBDBD" d="M251.898,359.267c0,3.902-3.167,7.067-7.074,7.067
				c-3.907,0-7.073-3.165-7.073-7.067c0-3.903,3.166-7.067,7.073-7.067C248.731,352.199,251.898,355.363,251.898,359.267"/>
			<path clip-path="url(#SVGID_14_)" fill="#C0C0C0" d="M251.728,359.267c0,3.809-3.09,6.896-6.903,6.896
				c-3.813,0-6.903-3.088-6.903-6.896c0-3.81,3.091-6.897,6.903-6.897C248.638,352.369,251.728,355.457,251.728,359.267"/>
			<path clip-path="url(#SVGID_14_)" fill="#C2C2C2" d="M251.559,359.267c0,3.715-3.015,6.728-6.734,6.728
				c-3.718,0-6.732-3.013-6.732-6.728c0-3.716,3.015-6.728,6.732-6.728C248.543,352.539,251.559,355.551,251.559,359.267"/>
			<path clip-path="url(#SVGID_14_)" fill="#C3C5C5" d="M251.388,359.267c0,3.62-2.938,6.558-6.563,6.558
				c-3.624,0-6.562-2.938-6.562-6.558s2.938-6.558,6.562-6.558C248.449,352.709,251.388,355.646,251.388,359.267"/>
			<path clip-path="url(#SVGID_14_)" fill="#C6C7C7" d="M251.217,359.267c0,3.526-2.861,6.386-6.393,6.386
				c-3.529,0-6.392-2.859-6.392-6.386c0-3.527,2.862-6.386,6.392-6.386C248.355,352.881,251.217,355.739,251.217,359.267"/>
			<path clip-path="url(#SVGID_14_)" fill="#C8CACA" d="M251.046,359.267c0,3.433-2.785,6.216-6.222,6.216s-6.221-2.783-6.221-6.216
				c0-3.434,2.784-6.217,6.221-6.217S251.046,355.833,251.046,359.267"/>
			<path clip-path="url(#SVGID_14_)" fill="#CACCCC" d="M250.876,359.267c0,3.339-2.71,6.046-6.052,6.046
				c-3.341,0-6.051-2.707-6.051-6.046s2.71-6.047,6.051-6.047C248.167,353.22,250.876,355.928,250.876,359.267"/>
			<path clip-path="url(#SVGID_14_)" fill="#CDCFCF" d="M250.705,359.267c0,3.244-2.632,5.875-5.881,5.875
				c-3.248,0-5.881-2.631-5.881-5.875c0-3.245,2.633-5.876,5.881-5.876C248.073,353.391,250.705,356.021,250.705,359.267"/>
			<path clip-path="url(#SVGID_14_)" fill="#CFD1D1" d="M250.535,359.267c0,3.15-2.557,5.706-5.711,5.706s-5.711-2.556-5.711-5.706
				c0-3.151,2.557-5.706,5.711-5.706S250.535,356.115,250.535,359.267"/>
		</g>
	</g>
	<polygon fill="#5F5F5E" points="243.877,363.619 243.877,360.213 240.469,360.213 240.469,358.32 243.877,358.32 243.877,354.914 
		245.771,354.914 245.771,358.32 249.181,358.32 249.181,360.213 245.771,360.213 245.771,363.619 	"/>
	<path fill="#231815" d="M245.607,355.078v3.078v0.328h0.327h3.083v1.563h-3.083h-0.327v0.328v3.08h-1.566v-3.08v-0.328h-0.328
		h-3.081v-1.563h3.081h0.328v-0.328v-3.078H245.607z M245.935,354.751h-2.221v3.405h-3.408v2.219h3.408v3.406h2.221v-3.406h3.409
		v-2.219h-3.409V354.751z"/>
</g>
<g>
	<path fill="#ACACAB" d="M268.018,77.291c0,5.771-4.684,10.451-10.462,10.451c-5.777,0-10.46-4.68-10.46-10.451
		c0-5.772,4.684-10.451,10.46-10.451C263.334,66.84,268.018,71.519,268.018,77.291"/>
	<ellipse fill="none" stroke="#8F8F8F" stroke-miterlimit="10" cx="257.556" cy="77.291" rx="10.461" ry="10.451"/>
	<path fill="#ACACAB" d="M265.243,77.291c0,4.24-3.441,7.68-7.687,7.68c-4.244,0-7.686-3.439-7.686-7.68
		c0-4.241,3.441-7.68,7.686-7.68C261.802,69.611,265.243,73.05,265.243,77.291"/>
	<ellipse fill="none" stroke="#8F8F8F" stroke-miterlimit="10" cx="257.556" cy="77.291" rx="7.686" ry="7.68"/>
	<g>
		<g>
			<defs>
				<rect id="SVGID_15_" x="250.31" y="70.053" width="14.493" height="14.477"/>
			</defs>
			<clipPath id="SVGID_16_">
				<use xlink:href="#SVGID_15_"  overflow="visible"/>
			</clipPath>
			<path clip-path="url(#SVGID_16_)" fill="#BBBBBB" d="M264.801,77.291c0,3.996-3.244,7.238-7.245,7.238
				c-4,0-7.244-3.242-7.244-7.238c0-3.997,3.243-7.238,7.244-7.238C261.557,70.053,264.801,73.294,264.801,77.291"/>
			<path clip-path="url(#SVGID_16_)" fill="#BCBDBD" d="M264.63,77.291c0,3.902-3.167,7.066-7.074,7.066
				c-3.906,0-7.072-3.164-7.072-7.066c0-3.903,3.166-7.067,7.072-7.067C261.463,70.224,264.63,73.388,264.63,77.291"/>
			<path clip-path="url(#SVGID_16_)" fill="#C0C0C0" d="M264.459,77.291c0,3.809-3.09,6.896-6.904,6.896
				c-3.812,0-6.903-3.088-6.903-6.896s3.091-6.896,6.903-6.896C261.369,70.395,264.459,73.482,264.459,77.291"/>
			<path clip-path="url(#SVGID_16_)" fill="#C2C2C2" d="M264.29,77.291c0,3.715-3.015,6.728-6.734,6.728
				c-3.718,0-6.732-3.013-6.732-6.728s3.015-6.728,6.732-6.728C261.275,70.563,264.29,73.576,264.29,77.291"/>
			<path clip-path="url(#SVGID_16_)" fill="#C3C5C5" d="M264.12,77.291c0,3.62-2.939,6.557-6.564,6.557
				c-3.624,0-6.562-2.937-6.562-6.557s2.938-6.558,6.562-6.558C261.181,70.733,264.12,73.671,264.12,77.291"/>
			<path clip-path="url(#SVGID_16_)" fill="#C6C7C7" d="M263.948,77.291c0,3.526-2.861,6.386-6.393,6.386
				c-3.529,0-6.392-2.859-6.392-6.386c0-3.527,2.862-6.387,6.392-6.387C261.087,70.904,263.948,73.764,263.948,77.291"/>
			<path clip-path="url(#SVGID_16_)" fill="#C8CACA" d="M263.778,77.291c0,3.433-2.786,6.217-6.222,6.217
				c-3.436,0-6.221-2.784-6.221-6.217c0-3.434,2.785-6.217,6.221-6.217C260.992,71.074,263.778,73.857,263.778,77.291"/>
			<path clip-path="url(#SVGID_16_)" fill="#CACCCC" d="M263.608,77.291c0,3.338-2.71,6.046-6.053,6.046
				c-3.341,0-6.051-2.708-6.051-6.046c0-3.339,2.71-6.047,6.051-6.047C260.898,71.244,263.608,73.952,263.608,77.291"/>
			<path clip-path="url(#SVGID_16_)" fill="#CDCFCF" d="M263.437,77.291c0,3.244-2.632,5.875-5.881,5.875
				c-3.248,0-5.881-2.631-5.881-5.875c0-3.245,2.633-5.875,5.881-5.875C260.805,71.416,263.437,74.046,263.437,77.291"/>
			<path clip-path="url(#SVGID_16_)" fill="#CFD1D1" d="M263.267,77.291c0,3.15-2.556,5.705-5.711,5.705
				c-3.154,0-5.71-2.555-5.71-5.705c0-3.151,2.557-5.706,5.71-5.706C260.71,71.585,263.267,74.14,263.267,77.291"/>
		</g>
	</g>
	<polygon fill="#5F5F5E" points="256.609,81.643 256.609,78.236 253.2,78.236 253.2,76.345 256.609,76.345 256.609,72.938 
		258.503,72.938 258.503,76.345 261.913,76.345 261.913,78.236 258.503,78.236 258.503,81.643 	"/>
	<path fill="#231815" d="M258.339,73.102v3.08v0.326h0.327h3.083v1.563h-3.083h-0.327V78.4v3.078h-1.566V78.4v-0.329h-0.328h-3.082
		v-1.563h3.082h0.328v-0.326v-3.08H258.339z M258.666,72.775h-2.22v3.406h-3.409V78.4h3.409v3.406h2.22V78.4h3.41v-2.219h-3.41
		V72.775z"/>
</g>
<g>
	<path fill="#ACACAB" d="M311.241,108.307c0,5.771-4.684,10.451-10.462,10.451c-5.777,0-10.46-4.68-10.46-10.451
		c0-5.773,4.683-10.451,10.46-10.451C306.558,97.855,311.241,102.533,311.241,108.307"/>
	<ellipse fill="none" stroke="#8F8F8F" stroke-miterlimit="10" cx="300.78" cy="108.307" rx="10.461" ry="10.451"/>
	<path fill="#ACACAB" d="M308.467,108.307c0,4.24-3.441,7.679-7.688,7.679c-4.244,0-7.686-3.438-7.686-7.679
		c0-4.242,3.441-7.68,7.686-7.68C305.025,100.627,308.467,104.064,308.467,108.307"/>
	<ellipse fill="none" stroke="#8F8F8F" stroke-miterlimit="10" cx="300.78" cy="108.307" rx="7.687" ry="7.679"/>
	<g>
		<g>
			<defs>
				<rect id="SVGID_17_" x="293.533" y="101.068" width="14.493" height="14.476"/>
			</defs>
			<clipPath id="SVGID_18_">
				<use xlink:href="#SVGID_17_"  overflow="visible"/>
			</clipPath>
			<path clip-path="url(#SVGID_18_)" fill="#BBBBBB" d="M308.025,108.307c0,3.996-3.244,7.237-7.246,7.237
				c-4,0-7.243-3.241-7.243-7.237c0-3.998,3.243-7.238,7.243-7.238C304.781,101.068,308.025,104.309,308.025,108.307"/>
			<path clip-path="url(#SVGID_18_)" fill="#BCBDBD" d="M307.854,108.307c0,3.902-3.166,7.066-7.074,7.066
				c-3.906,0-7.072-3.164-7.072-7.066c0-3.904,3.166-7.068,7.072-7.068C304.688,101.238,307.854,104.402,307.854,108.307"/>
			<path clip-path="url(#SVGID_18_)" fill="#C0C0C0" d="M307.684,108.307c0,3.809-3.091,6.896-6.904,6.896
				c-3.812,0-6.903-3.088-6.903-6.896c0-3.81,3.092-6.897,6.903-6.897C304.593,101.409,307.684,104.497,307.684,108.307"/>
			<path clip-path="url(#SVGID_18_)" fill="#C2C2C2" d="M307.514,108.307c0,3.715-3.015,6.727-6.734,6.727
				c-3.718,0-6.732-3.012-6.732-6.727c0-3.716,3.015-6.729,6.732-6.729C304.499,101.578,307.514,104.591,307.514,108.307"/>
			<path clip-path="url(#SVGID_18_)" fill="#C3C5C5" d="M307.344,108.307c0,3.619-2.939,6.557-6.564,6.557
				c-3.623,0-6.562-2.938-6.562-6.557c0-3.621,2.938-6.559,6.562-6.559C304.404,101.748,307.344,104.686,307.344,108.307"/>
			<path clip-path="url(#SVGID_18_)" fill="#C6C7C7" d="M307.172,108.307c0,3.525-2.86,6.385-6.393,6.385
				c-3.529,0-6.392-2.859-6.392-6.385c0-3.527,2.862-6.387,6.392-6.387C304.312,101.92,307.172,104.779,307.172,108.307"/>
			<path clip-path="url(#SVGID_18_)" fill="#C8CACA" d="M307.001,108.307c0,3.432-2.786,6.216-6.222,6.216
				c-3.436,0-6.221-2.784-6.221-6.216c0-3.434,2.785-6.217,6.221-6.217C304.216,102.09,307.001,104.873,307.001,108.307"/>
			<path clip-path="url(#SVGID_18_)" fill="#CACCCC" d="M306.832,108.307c0,3.338-2.71,6.045-6.053,6.045
				c-3.341,0-6.051-2.707-6.051-6.045c0-3.34,2.71-6.047,6.051-6.047C304.122,102.26,306.832,104.967,306.832,108.307"/>
			<path clip-path="url(#SVGID_18_)" fill="#CDCFCF" d="M306.661,108.307c0,3.244-2.632,5.875-5.882,5.875
				c-3.247,0-5.881-2.631-5.881-5.875c0-3.246,2.634-5.876,5.881-5.876C304.029,102.431,306.661,105.061,306.661,108.307"/>
			<path clip-path="url(#SVGID_18_)" fill="#CFD1D1" d="M306.49,108.307c0,3.15-2.556,5.705-5.711,5.705
				c-3.154,0-5.71-2.555-5.71-5.705c0-3.152,2.556-5.707,5.71-5.707C303.935,102.6,306.49,105.154,306.49,108.307"/>
		</g>
	</g>
	<polygon fill="#5F5F5E" points="299.833,112.658 299.833,109.252 296.424,109.252 296.424,107.359 299.833,107.359 
		299.833,103.953 301.727,103.953 301.727,107.359 305.137,107.359 305.137,109.252 301.727,109.252 301.727,112.658 	"/>
	<path fill="#231815" d="M301.563,104.117v3.079v0.327h0.326h3.083v1.563h-3.083h-0.326v0.329v3.079h-1.566v-3.079v-0.329h-0.327
		h-3.082v-1.563h3.082h0.327v-0.327v-3.079H301.563z M301.89,103.791h-2.22v3.405h-3.409v2.219h3.409v3.406h2.22v-3.406h3.41v-2.219
		h-3.41V103.791z"/>
</g>
<g>
	<path fill="#ACACAB" d="M76.557,81.644c0,5.771-4.684,10.451-10.462,10.451c-5.777,0-10.46-4.68-10.46-10.451
		c0-5.772,4.684-10.451,10.46-10.451C71.874,71.192,76.557,75.871,76.557,81.644"/>
	<ellipse fill="none" stroke="#8F8F8F" stroke-miterlimit="10" cx="66.096" cy="81.644" rx="10.461" ry="10.451"/>
	<path fill="#ACACAB" d="M73.782,81.644c0,4.24-3.441,7.679-7.687,7.679c-4.244,0-7.686-3.438-7.686-7.679
		c0-4.241,3.441-7.68,7.686-7.68C70.341,73.964,73.782,77.402,73.782,81.644"/>
	<ellipse fill="none" stroke="#8F8F8F" stroke-miterlimit="10" cx="66.096" cy="81.644" rx="7.686" ry="7.679"/>
	<g>
		<g>
			<defs>
				<rect id="SVGID_19_" x="58.849" y="74.405" width="14.493" height="14.476"/>
			</defs>
			<clipPath id="SVGID_20_">
				<use xlink:href="#SVGID_19_"  overflow="visible"/>
			</clipPath>
			<path clip-path="url(#SVGID_20_)" fill="#BBBBBB" d="M73.34,81.644c0,3.997-3.244,7.237-7.245,7.237c-4,0-7.244-3.24-7.244-7.237
				s3.243-7.238,7.244-7.238C70.097,74.405,73.34,77.646,73.34,81.644"/>
			<path clip-path="url(#SVGID_20_)" fill="#BCBDBD" d="M73.169,81.644c0,3.902-3.167,7.067-7.074,7.067
				c-3.906,0-7.072-3.165-7.072-7.067c0-3.903,3.166-7.067,7.072-7.067C70.003,74.576,73.169,77.74,73.169,81.644"/>
			<path clip-path="url(#SVGID_20_)" fill="#C0C0C0" d="M72.999,81.644c0,3.809-3.09,6.896-6.904,6.896
				c-3.812,0-6.903-3.088-6.903-6.896c0-3.81,3.091-6.897,6.903-6.897C69.909,74.746,72.999,77.834,72.999,81.644"/>
			<path clip-path="url(#SVGID_20_)" fill="#C2C2C2" d="M72.83,81.644c0,3.715-3.015,6.728-6.734,6.728
				c-3.718,0-6.732-3.013-6.732-6.728c0-3.716,3.015-6.728,6.732-6.728C69.815,74.916,72.83,77.928,72.83,81.644"/>
			<path clip-path="url(#SVGID_20_)" fill="#C3C5C5" d="M72.659,81.644c0,3.62-2.939,6.558-6.564,6.558
				c-3.624,0-6.562-2.938-6.562-6.558s2.938-6.558,6.562-6.558C69.72,75.086,72.659,78.023,72.659,81.644"/>
			<path clip-path="url(#SVGID_20_)" fill="#C6C7C7" d="M72.488,81.644c0,3.526-2.861,6.386-6.393,6.386
				c-3.529,0-6.392-2.859-6.392-6.386c0-3.527,2.862-6.386,6.392-6.386C69.627,75.258,72.488,78.116,72.488,81.644"/>
			<path clip-path="url(#SVGID_20_)" fill="#C8CACA" d="M72.317,81.644c0,3.433-2.786,6.216-6.222,6.216s-6.221-2.783-6.221-6.216
				c0-3.434,2.785-6.217,6.221-6.217S72.317,78.21,72.317,81.644"/>
			<path clip-path="url(#SVGID_20_)" fill="#CACCCC" d="M72.148,81.644c0,3.339-2.71,6.046-6.053,6.046
				c-3.341,0-6.051-2.707-6.051-6.046s2.71-6.047,6.051-6.047C69.438,75.597,72.148,78.305,72.148,81.644"/>
			<path clip-path="url(#SVGID_20_)" fill="#CDCFCF" d="M71.977,81.644c0,3.244-2.632,5.875-5.881,5.875
				c-3.248,0-5.881-2.631-5.881-5.875c0-3.245,2.633-5.876,5.881-5.876C69.345,75.768,71.977,78.398,71.977,81.644"/>
			<path clip-path="url(#SVGID_20_)" fill="#CFD1D1" d="M71.806,81.644c0,3.15-2.556,5.706-5.711,5.706
				c-3.154,0-5.71-2.556-5.71-5.706c0-3.151,2.557-5.706,5.71-5.706C69.25,75.938,71.806,78.492,71.806,81.644"/>
		</g>
	</g>
	<polygon fill="#5F5F5E" points="65.149,85.996 65.149,82.59 61.739,82.59 61.739,80.697 65.149,80.697 65.149,77.291 
		67.042,77.291 67.042,80.697 70.452,80.697 70.452,82.59 67.042,82.59 67.042,85.996 	"/>
	<path fill="#231815" d="M66.879,77.455v3.078v0.328h0.327h3.083v1.563h-3.083h-0.327v0.328v3.08h-1.566v-3.08v-0.328h-0.328h-3.082
		v-1.563h3.082h0.328v-0.328v-3.078H66.879z M67.206,77.128h-2.22v3.405h-3.409v2.219h3.409v3.406h2.22v-3.406h3.41v-2.219h-3.41
		V77.128z"/>
</g>
<g>
	<g>
		<path fill="#ACACAB" d="M1180.85,137.25c0,5.771-4.684,10.451-10.463,10.451c-5.777,0-10.461-4.68-10.461-10.451
			c0-5.772,4.684-10.451,10.461-10.451C1176.166,126.799,1180.85,131.478,1180.85,137.25"/>
		<ellipse fill="none" stroke="#8F8F8F" stroke-miterlimit="10" cx="1170.388" cy="137.25" rx="10.462" ry="10.451"/>
		<path fill="#ACACAB" d="M1178.074,137.25c0,4.24-3.441,7.68-7.688,7.68c-4.244,0-7.686-3.439-7.686-7.68
			c0-4.241,3.441-7.68,7.686-7.68C1174.633,129.57,1178.074,133.009,1178.074,137.25"/>
		<ellipse fill="none" stroke="#8F8F8F" stroke-miterlimit="10" cx="1170.388" cy="137.25" rx="7.687" ry="7.68"/>
		<g>
			<g>
				<defs>
					<rect id="SVGID_21_" x="1163.141" y="130.012" width="14.494" height="14.477"/>
				</defs>
				<clipPath id="SVGID_22_">
					<use xlink:href="#SVGID_21_"  overflow="visible"/>
				</clipPath>
				<path clip-path="url(#SVGID_22_)" fill="#BBBBBB" d="M1177.633,137.25c0,3.996-3.244,7.238-7.246,7.238
					c-4,0-7.244-3.242-7.244-7.238c0-3.997,3.244-7.238,7.244-7.238C1174.389,130.012,1177.633,133.253,1177.633,137.25"/>
				<path clip-path="url(#SVGID_22_)" fill="#BCBDBD" d="M1177.461,137.25c0,3.902-3.166,7.066-7.074,7.066
					c-3.906,0-7.072-3.164-7.072-7.066c0-3.903,3.166-7.067,7.072-7.067C1174.295,130.183,1177.461,133.347,1177.461,137.25"/>
				<path clip-path="url(#SVGID_22_)" fill="#C0C0C0" d="M1177.291,137.25c0,3.809-3.09,6.896-6.904,6.896
					c-3.813,0-6.902-3.088-6.902-6.896s3.09-6.896,6.902-6.896C1174.201,130.354,1177.291,133.441,1177.291,137.25"/>
				<path clip-path="url(#SVGID_22_)" fill="#C2C2C2" d="M1177.121,137.25c0,3.715-3.014,6.728-6.734,6.728
					c-3.717,0-6.732-3.013-6.732-6.728s3.016-6.728,6.732-6.728C1174.107,130.522,1177.121,133.535,1177.121,137.25"/>
				<path clip-path="url(#SVGID_22_)" fill="#C3C5C5" d="M1176.951,137.25c0,3.62-2.939,6.557-6.564,6.557
					c-3.623,0-6.561-2.937-6.561-6.557s2.938-6.558,6.561-6.558C1174.012,130.692,1176.951,133.63,1176.951,137.25"/>
				<path clip-path="url(#SVGID_22_)" fill="#C6C7C7" d="M1176.779,137.25c0,3.526-2.861,6.386-6.393,6.386
					c-3.529,0-6.391-2.859-6.391-6.386c0-3.527,2.861-6.387,6.391-6.387C1173.918,130.863,1176.779,133.723,1176.779,137.25"/>
				<path clip-path="url(#SVGID_22_)" fill="#C8CACA" d="M1176.609,137.25c0,3.433-2.785,6.217-6.223,6.217
					c-3.436,0-6.221-2.784-6.221-6.217c0-3.434,2.785-6.217,6.221-6.217C1173.824,131.033,1176.609,133.816,1176.609,137.25"/>
				<path clip-path="url(#SVGID_22_)" fill="#CACCCC" d="M1176.439,137.25c0,3.338-2.709,6.046-6.053,6.046
					c-3.34,0-6.051-2.708-6.051-6.046c0-3.339,2.711-6.047,6.051-6.047C1173.73,131.203,1176.439,133.911,1176.439,137.25"/>
				<path clip-path="url(#SVGID_22_)" fill="#CDCFCF" d="M1176.268,137.25c0,3.244-2.631,5.875-5.881,5.875
					c-3.248,0-5.881-2.631-5.881-5.875c0-3.245,2.633-5.875,5.881-5.875C1173.637,131.375,1176.268,134.005,1176.268,137.25"/>
				<path clip-path="url(#SVGID_22_)" fill="#CFD1D1" d="M1176.098,137.25c0,3.15-2.557,5.705-5.711,5.705s-5.711-2.555-5.711-5.705
					c0-3.151,2.557-5.706,5.711-5.706S1176.098,134.099,1176.098,137.25"/>
			</g>
		</g>
		<polygon fill="#5F5F5E" points="1169.441,141.602 1169.441,138.195 1166.031,138.195 1166.031,136.304 1169.441,136.304 
			1169.441,132.897 1171.334,132.897 1171.334,136.304 1174.744,136.304 1174.744,138.195 1171.334,138.195 1171.334,141.602 		"/>
		<path fill="#231815" d="M1171.17,133.061v3.08v0.326h0.328h3.082v1.563h-3.082h-0.328v0.329v3.078h-1.564v-3.078v-0.329h-0.328
			h-3.082v-1.563h3.082h0.328v-0.326v-3.08H1171.17z M1171.498,132.734h-2.221v3.406h-3.408v2.219h3.408v3.406h2.221v-3.406h3.408
			v-2.219h-3.408V132.734z"/>
	</g>
	<g>
		<path fill="#ACACAB" d="M648.54,137.25c0,5.771-4.684,10.451-10.463,10.451c-5.776,0-10.46-4.68-10.46-10.451
			c0-5.772,4.684-10.451,10.46-10.451C643.856,126.799,648.54,131.478,648.54,137.25"/>
		<ellipse fill="none" stroke="#8F8F8F" stroke-miterlimit="10" cx="638.079" cy="137.25" rx="10.461" ry="10.451"/>
		<path fill="#ACACAB" d="M645.765,137.25c0,4.24-3.441,7.68-7.688,7.68c-4.244,0-7.685-3.439-7.685-7.68
			c0-4.241,3.441-7.68,7.685-7.68C642.323,129.57,645.765,133.009,645.765,137.25"/>
		<ellipse fill="none" stroke="#8F8F8F" stroke-miterlimit="10" cx="638.078" cy="137.25" rx="7.686" ry="7.68"/>
		<g>
			<g>
				<defs>
					<rect id="SVGID_23_" x="630.832" y="130.012" width="14.494" height="14.477"/>
				</defs>
				<clipPath id="SVGID_24_">
					<use xlink:href="#SVGID_23_"  overflow="visible"/>
				</clipPath>
				<path clip-path="url(#SVGID_24_)" fill="#BBBBBB" d="M645.323,137.25c0,3.996-3.244,7.238-7.246,7.238
					c-4,0-7.243-3.242-7.243-7.238c0-3.997,3.243-7.238,7.243-7.238C642.079,130.012,645.323,133.253,645.323,137.25"/>
				<path clip-path="url(#SVGID_24_)" fill="#BCBDBD" d="M645.151,137.25c0,3.902-3.166,7.066-7.074,7.066
					c-3.906,0-7.072-3.164-7.072-7.066c0-3.903,3.166-7.067,7.072-7.067C641.985,130.183,645.151,133.347,645.151,137.25"/>
				<path clip-path="url(#SVGID_24_)" fill="#C0C0C0" d="M644.981,137.25c0,3.809-3.09,6.896-6.904,6.896
					c-3.812,0-6.903-3.088-6.903-6.896s3.091-6.896,6.903-6.896C641.892,130.354,644.981,133.441,644.981,137.25"/>
				<path clip-path="url(#SVGID_24_)" fill="#C2C2C2" d="M644.812,137.25c0,3.715-3.014,6.728-6.734,6.728
					c-3.717,0-6.732-3.013-6.732-6.728s3.015-6.728,6.732-6.728C641.798,130.522,644.812,133.535,644.812,137.25"/>
				<path clip-path="url(#SVGID_24_)" fill="#C3C5C5" d="M644.642,137.25c0,3.62-2.939,6.557-6.564,6.557
					c-3.623,0-6.561-2.937-6.561-6.557s2.938-6.558,6.561-6.558C641.702,130.692,644.642,133.63,644.642,137.25"/>
				<path clip-path="url(#SVGID_24_)" fill="#C6C7C7" d="M644.47,137.25c0,3.526-2.86,6.386-6.393,6.386
					c-3.529,0-6.391-2.859-6.391-6.386c0-3.527,2.862-6.387,6.391-6.387C641.609,130.863,644.47,133.723,644.47,137.25"/>
				<path clip-path="url(#SVGID_24_)" fill="#C8CACA" d="M644.3,137.25c0,3.433-2.785,6.217-6.223,6.217
					c-3.436,0-6.22-2.784-6.22-6.217c0-3.434,2.785-6.217,6.22-6.217C641.515,131.033,644.3,133.816,644.3,137.25"/>
				<path clip-path="url(#SVGID_24_)" fill="#CACCCC" d="M644.13,137.25c0,3.338-2.709,6.046-6.053,6.046
					c-3.34,0-6.05-2.708-6.05-6.046c0-3.339,2.71-6.047,6.05-6.047C641.421,131.203,644.13,133.911,644.13,137.25"/>
				<path clip-path="url(#SVGID_24_)" fill="#CDCFCF" d="M643.959,137.25c0,3.244-2.632,5.875-5.882,5.875
					c-3.247,0-5.88-2.631-5.88-5.875c0-3.245,2.633-5.875,5.88-5.875C641.327,131.375,643.959,134.005,643.959,137.25"/>
				<path clip-path="url(#SVGID_24_)" fill="#CFD1D1" d="M643.788,137.25c0,3.15-2.556,5.705-5.711,5.705
					c-3.153,0-5.71-2.555-5.71-5.705c0-3.151,2.557-5.706,5.71-5.706C641.232,131.544,643.788,134.099,643.788,137.25"/>
			</g>
		</g>
		<polygon fill="#5F5F5E" points="637.132,141.602 637.132,138.195 633.722,138.195 633.722,136.304 637.132,136.304 
			637.132,132.897 639.024,132.897 639.024,136.304 642.435,136.304 642.435,138.195 639.024,138.195 639.024,141.602 		"/>
		<path fill="#231815" d="M638.861,133.061v3.08v0.326h0.327h3.082v1.563h-3.082h-0.327v0.329v3.078h-1.565v-3.078v-0.329h-0.328
			h-3.082v-1.563h3.082h0.328v-0.326v-3.08H638.861z M639.188,132.734h-2.221v3.406h-3.408v2.219h3.408v3.406h2.221v-3.406h3.409
			v-2.219h-3.409V132.734z"/>
	</g>
</g>
<path fill="#454444" d="M386.629,113.076c0,2.801-2.271,5.071-5.072,5.071l0,0c-2.801,0-5.072-2.271-5.072-5.071V72.222
	c0-2.802,2.271-5.071,5.072-5.071l0,0c2.801,0,5.072,2.27,5.072,5.071V113.076z"/>
<path fill="#454444" d="M404.478,113.076c0,2.801-2.271,5.071-5.071,5.071l0,0c-2.801,0-5.072-2.271-5.072-5.071V72.222
	c0-2.802,2.271-5.071,5.072-5.071l0,0c2.801,0,5.071,2.27,5.071,5.071V113.076z"/>
<g>
	<path fill="#ACACAB" d="M680.347,203.689c0,5.771-4.684,10.451-10.461,10.451s-10.461-4.68-10.461-10.451
		c0-5.773,4.684-10.451,10.461-10.451S680.347,197.916,680.347,203.689"/>
	<ellipse fill="none" stroke="#8F8F8F" stroke-miterlimit="10" cx="669.886" cy="203.689" rx="10.461" ry="10.451"/>
	<path fill="#ACACAB" d="M677.572,203.689c0,4.24-3.44,7.679-7.687,7.679c-4.244,0-7.686-3.438-7.686-7.679
		c0-4.242,3.441-7.68,7.686-7.68C674.132,196.01,677.572,199.447,677.572,203.689"/>
	<ellipse fill="none" stroke="#8F8F8F" stroke-miterlimit="10" cx="669.886" cy="203.689" rx="7.686" ry="7.679"/>
	<g>
		<g>
			<defs>
				<rect id="SVGID_25_" x="662.64" y="196.451" width="14.492" height="14.476"/>
			</defs>
			<clipPath id="SVGID_26_">
				<use xlink:href="#SVGID_25_"  overflow="visible"/>
			</clipPath>
			<path clip-path="url(#SVGID_26_)" fill="#BBBBBB" d="M677.13,203.689c0,3.996-3.243,7.237-7.244,7.237s-7.244-3.241-7.244-7.237
				c0-3.998,3.243-7.238,7.244-7.238S677.13,199.691,677.13,203.689"/>
			<path clip-path="url(#SVGID_26_)" fill="#BCBDBD" d="M676.96,203.689c0,3.902-3.167,7.066-7.074,7.066
				c-3.906,0-7.072-3.164-7.072-7.066c0-3.904,3.166-7.068,7.072-7.068C673.793,196.621,676.96,199.785,676.96,203.689"/>
			<path clip-path="url(#SVGID_26_)" fill="#C0C0C0" d="M676.789,203.689c0,3.809-3.091,6.896-6.903,6.896s-6.904-3.088-6.904-6.896
				c0-3.81,3.092-6.897,6.904-6.897S676.789,199.88,676.789,203.689"/>
			<path clip-path="url(#SVGID_26_)" fill="#C2C2C2" d="M676.62,203.689c0,3.715-3.016,6.727-6.734,6.727s-6.732-3.012-6.732-6.727
				c0-3.716,3.014-6.729,6.732-6.729S676.62,199.974,676.62,203.689"/>
			<path clip-path="url(#SVGID_26_)" fill="#C3C5C5" d="M676.449,203.689c0,3.619-2.938,6.557-6.563,6.557
				c-3.624,0-6.563-2.938-6.563-6.557c0-3.621,2.938-6.559,6.563-6.559C673.511,197.131,676.449,200.068,676.449,203.689"/>
			<path clip-path="url(#SVGID_26_)" fill="#C6C7C7" d="M676.278,203.689c0,3.525-2.861,6.385-6.393,6.385
				c-3.529,0-6.393-2.859-6.393-6.385c0-3.527,2.863-6.387,6.393-6.387C673.417,197.303,676.278,200.162,676.278,203.689"/>
			<path clip-path="url(#SVGID_26_)" fill="#C8CACA" d="M676.107,203.689c0,3.432-2.786,6.216-6.222,6.216
				c-3.437,0-6.221-2.784-6.221-6.216c0-3.434,2.784-6.217,6.221-6.217C673.321,197.473,676.107,200.256,676.107,203.689"/>
			<path clip-path="url(#SVGID_26_)" fill="#CACCCC" d="M675.938,203.689c0,3.338-2.711,6.045-6.053,6.045s-6.051-2.707-6.051-6.045
				c0-3.34,2.709-6.047,6.051-6.047S675.938,200.35,675.938,203.689"/>
			<path clip-path="url(#SVGID_26_)" fill="#CDCFCF" d="M675.767,203.689c0,3.244-2.632,5.875-5.881,5.875
				c-3.248,0-5.881-2.631-5.881-5.875c0-3.246,2.633-5.876,5.881-5.876C673.135,197.813,675.767,200.443,675.767,203.689"/>
			<path clip-path="url(#SVGID_26_)" fill="#CFD1D1" d="M675.597,203.689c0,3.15-2.557,5.705-5.711,5.705s-5.711-2.555-5.711-5.705
				c0-3.152,2.557-5.707,5.711-5.707S675.597,200.537,675.597,203.689"/>
		</g>
	</g>
	<polygon fill="#5F5F5E" points="668.938,208.041 668.938,204.635 665.53,204.635 665.53,202.742 668.938,202.742 668.938,199.336 
		670.833,199.336 670.833,202.742 674.242,202.742 674.242,204.635 670.833,204.635 670.833,208.041 	"/>
	<path fill="#231815" d="M670.669,199.5v3.079v0.327h0.326h3.084v1.563h-3.084h-0.326v0.329v3.079h-1.566v-3.079v-0.329h-0.327
		h-3.081v-1.563h3.081h0.327v-0.327V199.5H670.669z M670.995,199.174h-2.22v3.405h-3.409v2.219h3.409v3.406h2.22v-3.406h3.41v-2.219
		h-3.41V199.174z"/>
</g>
<path fill="#454444" d="M422.326,113.076c0,2.801-2.271,5.071-5.072,5.071l0,0c-2.801,0-5.072-2.271-5.072-5.071V72.222
	c0-2.802,2.271-5.071,5.072-5.071l0,0c2.801,0,5.072,2.27,5.072,5.071V113.076z"/>
<path fill="#454444" d="M440.175,113.076c0,2.801-2.271,5.071-5.072,5.071l0,0c-2.801,0-5.071-2.271-5.071-5.071V72.222
	c0-2.802,2.271-5.071,5.071-5.071l0,0c2.801,0,5.072,2.27,5.072,5.071V113.076z"/>
<path fill="#454444" d="M458.023,113.076c0,2.801-2.271,5.071-5.072,5.071l0,0c-2.801,0-5.072-2.271-5.072-5.071V72.222
	c0-2.802,2.271-5.071,5.072-5.071l0,0c2.801,0,5.072,2.27,5.072,5.071V113.076z"/>
<path fill="#454444" d="M475.871,113.076c0,2.801-2.271,5.071-5.071,5.071l0,0c-2.801,0-5.072-2.271-5.072-5.071V72.222
	c0-2.802,2.271-5.071,5.072-5.071l0,0c2.801,0,5.071,2.27,5.071,5.071V113.076z"/>
<path fill="#454444" d="M493.72,113.076c0,2.801-2.271,5.071-5.072,5.071l0,0c-2.801,0-5.072-2.271-5.072-5.071V72.222
	c0-2.802,2.271-5.071,5.072-5.071l0,0c2.801,0,5.072,2.27,5.072,5.071V113.076z"/>
<path fill="#454444" d="M511.568,113.076c0,2.801-2.271,5.071-5.072,5.071l0,0c-2.801,0-5.071-2.271-5.071-5.071V72.222
	c0-2.802,2.271-5.071,5.071-5.071l0,0c2.801,0,5.072,2.27,5.072,5.071V113.076z"/>
<path fill="#454444" d="M529.417,113.076c0,2.801-2.271,5.071-5.072,5.071l0,0c-2.801,0-5.072-2.271-5.072-5.071V72.222
	c0-2.802,2.271-5.071,5.072-5.071l0,0c2.801,0,5.072,2.27,5.072,5.071V113.076z"/>
<path fill="#454444" d="M547.265,113.076c0,2.801-2.271,5.071-5.071,5.071l0,0c-2.801,0-5.072-2.271-5.072-5.071V72.222
	c0-2.802,2.271-5.071,5.072-5.071l0,0c2.801,0,5.071,2.27,5.071,5.071V113.076z"/>
<path fill="#454444" d="M565.113,113.076c0,2.801-2.271,5.071-5.072,5.071l0,0c-2.801,0-5.072-2.271-5.072-5.071V72.222
	c0-2.802,2.271-5.071,5.072-5.071l0,0c2.801,0,5.072,2.27,5.072,5.071V113.076z"/>
<path fill="#454444" d="M582.961,113.076c0,2.801-2.271,5.071-5.071,5.071l0,0c-2.801,0-5.072-2.271-5.072-5.071V72.222
	c0-2.802,2.271-5.071,5.072-5.071l0,0c2.801,0,5.071,2.27,5.071,5.071V113.076z"/>
<path fill="#454444" d="M600.81,113.076c0,2.801-2.271,5.071-5.071,5.071l0,0c-2.802,0-5.072-2.271-5.072-5.071V72.222
	c0-2.802,2.271-5.071,5.072-5.071l0,0c2.801,0,5.071,2.27,5.071,5.071V113.076z"/>
<path fill="#454444" d="M618.659,113.076c0,2.801-2.271,5.071-5.071,5.071l0,0c-2.802,0-5.072-2.271-5.072-5.071V72.222
	c0-2.802,2.271-5.071,5.072-5.071l0,0c2.801,0,5.071,2.27,5.071,5.071V113.076z"/>
<path fill="#454444" d="M636.507,113.076c0,2.801-2.27,5.071-5.071,5.071l0,0c-2.802,0-5.072-2.271-5.072-5.071V72.222
	c0-2.802,2.271-5.071,5.072-5.071l0,0c2.801,0,5.071,2.27,5.071,5.071V113.076z"/>
<g>
	<path fill="#ACACAB" d="M680.347,177.469c0,5.771-4.684,10.451-10.461,10.451s-10.461-4.68-10.461-10.451
		c0-5.772,4.684-10.451,10.461-10.451S680.347,171.696,680.347,177.469"/>
	<ellipse fill="none" stroke="#8F8F8F" stroke-miterlimit="10" cx="669.886" cy="177.469" rx="10.461" ry="10.451"/>
	<path fill="#ACACAB" d="M677.572,177.469c0,4.24-3.44,7.68-7.687,7.68c-4.244,0-7.686-3.439-7.686-7.68
		c0-4.241,3.441-7.68,7.686-7.68C674.132,169.789,677.572,173.228,677.572,177.469"/>
	<ellipse fill="none" stroke="#8F8F8F" stroke-miterlimit="10" cx="669.886" cy="177.469" rx="7.686" ry="7.68"/>
	<g>
		<g>
			<defs>
				<rect id="SVGID_27_" x="662.64" y="170.23" width="14.492" height="14.477"/>
			</defs>
			<clipPath id="SVGID_28_">
				<use xlink:href="#SVGID_27_"  overflow="visible"/>
			</clipPath>
			<path clip-path="url(#SVGID_28_)" fill="#BBBBBB" d="M677.13,177.469c0,3.996-3.243,7.238-7.244,7.238s-7.244-3.242-7.244-7.238
				c0-3.997,3.243-7.238,7.244-7.238S677.13,173.472,677.13,177.469"/>
			<path clip-path="url(#SVGID_28_)" fill="#BCBDBD" d="M676.96,177.469c0,3.902-3.167,7.066-7.074,7.066
				c-3.906,0-7.072-3.164-7.072-7.066c0-3.903,3.166-7.067,7.072-7.067C673.793,170.401,676.96,173.565,676.96,177.469"/>
			<path clip-path="url(#SVGID_28_)" fill="#C0C0C0" d="M676.789,177.469c0,3.809-3.091,6.896-6.903,6.896s-6.904-3.088-6.904-6.896
				s3.092-6.896,6.904-6.896S676.789,173.66,676.789,177.469"/>
			<path clip-path="url(#SVGID_28_)" fill="#C2C2C2" d="M676.62,177.469c0,3.715-3.016,6.728-6.734,6.728s-6.732-3.013-6.732-6.728
				s3.014-6.728,6.732-6.728S676.62,173.754,676.62,177.469"/>
			<path clip-path="url(#SVGID_28_)" fill="#C3C5C5" d="M676.449,177.469c0,3.62-2.938,6.557-6.563,6.557
				c-3.624,0-6.563-2.937-6.563-6.557s2.938-6.558,6.563-6.558C673.511,170.911,676.449,173.849,676.449,177.469"/>
			<path clip-path="url(#SVGID_28_)" fill="#C6C7C7" d="M676.278,177.469c0,3.526-2.861,6.386-6.393,6.386
				c-3.529,0-6.393-2.859-6.393-6.386c0-3.527,2.863-6.387,6.393-6.387C673.417,171.082,676.278,173.941,676.278,177.469"/>
			<path clip-path="url(#SVGID_28_)" fill="#C8CACA" d="M676.107,177.469c0,3.433-2.786,6.217-6.222,6.217
				c-3.437,0-6.221-2.784-6.221-6.217c0-3.434,2.784-6.217,6.221-6.217C673.321,171.252,676.107,174.035,676.107,177.469"/>
			<path clip-path="url(#SVGID_28_)" fill="#CACCCC" d="M675.938,177.469c0,3.338-2.711,6.046-6.053,6.046s-6.051-2.708-6.051-6.046
				c0-3.339,2.709-6.047,6.051-6.047S675.938,174.13,675.938,177.469"/>
			<path clip-path="url(#SVGID_28_)" fill="#CDCFCF" d="M675.767,177.469c0,3.244-2.632,5.875-5.881,5.875
				c-3.248,0-5.881-2.631-5.881-5.875c0-3.245,2.633-5.875,5.881-5.875C673.135,171.594,675.767,174.224,675.767,177.469"/>
			<path clip-path="url(#SVGID_28_)" fill="#CFD1D1" d="M675.597,177.469c0,3.15-2.557,5.705-5.711,5.705s-5.711-2.555-5.711-5.705
				c0-3.151,2.557-5.706,5.711-5.706S675.597,174.317,675.597,177.469"/>
		</g>
	</g>
	<polygon fill="#5F5F5E" points="668.938,181.82 668.938,178.414 665.53,178.414 665.53,176.522 668.938,176.522 668.938,173.116 
		670.833,173.116 670.833,176.522 674.242,176.522 674.242,178.414 670.833,178.414 670.833,181.82 	"/>
	<path fill="#231815" d="M670.669,173.279v3.08v0.326h0.326h3.084v1.563h-3.084h-0.326v0.329v3.078h-1.566v-3.078v-0.329h-0.327
		h-3.081v-1.563h3.081h0.327v-0.326v-3.08H670.669z M670.995,172.953h-2.22v3.406h-3.409v2.219h3.409v3.406h2.22v-3.406h3.41v-2.219
		h-3.41V172.953z"/>
</g>
<path fill="#454444" d="M654.356,113.076c0,2.801-2.271,5.071-5.072,5.071l0,0c-2.801,0-5.072-2.271-5.072-5.071V72.222
	c0-2.802,2.271-5.071,5.072-5.071l0,0c2.801,0,5.072,2.27,5.072,5.071V113.076z"/>
<path fill="#454444" d="M672.204,113.076c0,2.801-2.27,5.071-5.07,5.071l0,0c-2.803,0-5.072-2.271-5.072-5.071V72.222
	c0-2.802,2.27-5.071,5.072-5.071l0,0c2.801,0,5.07,2.27,5.07,5.071V113.076z"/>
<path fill="#454444" d="M690.054,113.076c0,2.801-2.271,5.071-5.072,5.071l0,0c-2.801,0-5.072-2.271-5.072-5.071V72.222
	c0-2.802,2.271-5.071,5.072-5.071l0,0c2.801,0,5.072,2.27,5.072,5.071V113.076z"/>
<path fill="#454444" d="M707.901,113.076c0,2.801-2.27,5.071-5.07,5.071l0,0c-2.803,0-5.072-2.271-5.072-5.071V72.222
	c0-2.802,2.27-5.071,5.072-5.071l0,0c2.801,0,5.07,2.27,5.07,5.071V113.076z"/>
<path fill="#454444" d="M725.75,113.076c0,2.801-2.27,5.071-5.07,5.071l0,0c-2.803,0-5.072-2.271-5.072-5.071V72.222
	c0-2.802,2.27-5.071,5.072-5.071l0,0c2.801,0,5.07,2.27,5.07,5.071V113.076z"/>
<path fill="#454444" d="M743.6,113.076c0,2.801-2.271,5.071-5.072,5.071l0,0c-2.801,0-5.072-2.271-5.072-5.071V72.222
	c0-2.802,2.271-5.071,5.072-5.071l0,0c2.801,0,5.072,2.27,5.072,5.071V113.076z"/>
<path fill="#454444" d="M761.447,113.076c0,2.801-2.27,5.071-5.07,5.071l0,0c-2.803,0-5.072-2.271-5.072-5.071V72.222
	c0-2.802,2.27-5.071,5.072-5.071l0,0c2.801,0,5.07,2.27,5.07,5.071V113.076z"/>
<path fill="#454444" d="M779.297,113.076c0,2.801-2.271,5.071-5.072,5.071l0,0c-2.801,0-5.072-2.271-5.072-5.071V72.222
	c0-2.802,2.271-5.071,5.072-5.071l0,0c2.801,0,5.072,2.27,5.072,5.071V113.076z"/>
<path fill="#454444" d="M797.145,113.076c0,2.801-2.27,5.071-5.07,5.071l0,0c-2.803,0-5.072-2.271-5.072-5.071V72.222
	c0-2.802,2.27-5.071,5.072-5.071l0,0c2.801,0,5.07,2.27,5.07,5.071V113.076z"/>
<path fill="#454444" d="M814.994,113.076c0,2.801-2.271,5.071-5.072,5.071l0,0c-2.801,0-5.072-2.271-5.072-5.071V72.222
	c0-2.802,2.271-5.071,5.072-5.071l0,0c2.801,0,5.072,2.27,5.072,5.071V113.076z"/>
<path fill="#454444" d="M832.842,113.076c0,2.801-2.27,5.071-5.07,5.071l0,0c-2.803,0-5.072-2.271-5.072-5.071V72.222
	c0-2.802,2.27-5.071,5.072-5.071l0,0c2.801,0,5.07,2.27,5.07,5.071V113.076z"/>
<path fill="#454444" d="M850.691,113.076c0,2.801-2.271,5.071-5.072,5.071l0,0c-2.801,0-5.072-2.271-5.072-5.071V72.222
	c0-2.802,2.271-5.071,5.072-5.071l0,0c2.801,0,5.072,2.27,5.072,5.071V113.076z"/>
<path fill="#454444" d="M868.539,113.076c0,2.801-2.27,5.071-5.07,5.071l0,0c-2.803,0-5.072-2.271-5.072-5.071V72.222
	c0-2.802,2.27-5.071,5.072-5.071l0,0c2.801,0,5.07,2.27,5.07,5.071V113.076z"/>
<path fill="#454444" d="M886.389,113.076c0,2.801-2.271,5.071-5.072,5.071l0,0c-2.801,0-5.072-2.271-5.072-5.071V72.222
	c0-2.802,2.271-5.071,5.072-5.071l0,0c2.801,0,5.072,2.27,5.072,5.071V113.076z"/>
<path fill="#454444" d="M904.236,113.076c0,2.801-2.27,5.071-5.07,5.071l0,0c-2.803,0-5.072-2.271-5.072-5.071V72.222
	c0-2.802,2.27-5.071,5.072-5.071l0,0c2.801,0,5.07,2.27,5.07,5.071V113.076z"/>
<path fill="#454444" d="M922.086,113.076c0,2.801-2.271,5.071-5.072,5.071l0,0c-2.801,0-5.072-2.271-5.072-5.071V72.222
	c0-2.802,2.271-5.071,5.072-5.071l0,0c2.801,0,5.072,2.27,5.072,5.071V113.076z"/>
<path fill="#454444" d="M939.934,113.076c0,2.801-2.27,5.071-5.07,5.071l0,0c-2.803,0-5.072-2.271-5.072-5.071V72.222
	c0-2.802,2.27-5.071,5.072-5.071l0,0c2.801,0,5.07,2.27,5.07,5.071V113.076z"/>
<path fill="#454444" d="M957.783,113.076c0,2.801-2.271,5.071-5.072,5.071l0,0c-2.801,0-5.072-2.271-5.072-5.071V72.222
	c0-2.802,2.271-5.071,5.072-5.071l0,0c2.801,0,5.072,2.27,5.072,5.071V113.076z"/>
<path fill="#454444" d="M975.631,113.076c0,2.801-2.27,5.071-5.07,5.071l0,0c-2.803,0-5.072-2.271-5.072-5.071V72.222
	c0-2.802,2.27-5.071,5.072-5.071l0,0c2.801,0,5.07,2.27,5.07,5.071V113.076z"/>
<path fill="#454444" d="M993.48,113.076c0,2.801-2.271,5.071-5.072,5.071l0,0c-2.801,0-5.072-2.271-5.072-5.071V72.222
	c0-2.802,2.271-5.071,5.072-5.071l0,0c2.801,0,5.072,2.27,5.072,5.071V113.076z"/>
<path fill="#454444" d="M1011.328,113.076c0,2.801-2.27,5.071-5.07,5.071l0,0c-2.803,0-5.072-2.271-5.072-5.071V72.222
	c0-2.802,2.27-5.071,5.072-5.071l0,0c2.801,0,5.07,2.27,5.07,5.071V113.076z"/>
<path fill="#454444" d="M1029.178,113.076c0,2.801-2.271,5.071-5.072,5.071l0,0c-2.801,0-5.072-2.271-5.072-5.071V72.222
	c0-2.802,2.271-5.071,5.072-5.071l0,0c2.801,0,5.072,2.27,5.072,5.071V113.076z"/>
<path fill="#454444" d="M1047.025,113.076c0,2.801-2.27,5.071-5.07,5.071l0,0c-2.803,0-5.072-2.271-5.072-5.071V72.222
	c0-2.802,2.27-5.071,5.072-5.071l0,0c2.801,0,5.07,2.27,5.07,5.071V113.076z"/>
<path fill="#454444" d="M1064.875,113.076c0,2.801-2.271,5.071-5.072,5.071l0,0c-2.801,0-5.072-2.271-5.072-5.071V72.222
	c0-2.802,2.271-5.071,5.072-5.071l0,0c2.801,0,5.072,2.27,5.072,5.071V113.076z"/>
<path fill="#454444" d="M1082.723,113.076c0,2.801-2.27,5.071-5.07,5.071l0,0c-2.803,0-5.072-2.271-5.072-5.071V72.222
	c0-2.802,2.27-5.071,5.072-5.071l0,0c2.801,0,5.07,2.27,5.07,5.071V113.076z"/>
<path fill="#454444" d="M1100.572,113.076c0,2.801-2.271,5.071-5.072,5.071l0,0c-2.801,0-5.072-2.271-5.072-5.071V72.222
	c0-2.802,2.271-5.071,5.072-5.071l0,0c2.801,0,5.072,2.27,5.072,5.071V113.076z"/>
<path fill="#454444" d="M1118.42,113.076c0,2.801-2.27,5.071-5.07,5.071l0,0c-2.803,0-5.072-2.271-5.072-5.071V72.222
	c0-2.802,2.27-5.071,5.072-5.071l0,0c2.801,0,5.07,2.27,5.07,5.071V113.076z"/>
<path fill="#454444" d="M1136.27,113.076c0,2.801-2.271,5.071-5.072,5.071l0,0c-2.801,0-5.072-2.271-5.072-5.071V72.222
	c0-2.802,2.271-5.071,5.072-5.071l0,0c2.801,0,5.072,2.27,5.072,5.071V113.076z"/>
<path fill="#454444" d="M1154.117,113.076c0,2.801-2.27,5.071-5.07,5.071l0,0c-2.803,0-5.072-2.271-5.072-5.071V72.222
	c0-2.802,2.27-5.071,5.072-5.071l0,0c2.801,0,5.07,2.27,5.07,5.071V113.076z"/>
<path fill="#454444" d="M1171.967,113.076c0,2.801-2.271,5.071-5.072,5.071l0,0c-2.801,0-5.072-2.271-5.072-5.071V72.222
	c0-2.802,2.271-5.071,5.072-5.071l0,0c2.801,0,5.072,2.27,5.072,5.071V113.076z"/>
<rect x="74.697" y="232.301" fill="#D2D2D2" width="149.59" height="137.417"/>
<path fill="#454444" d="M1189.814,113.076c0,2.801-2.27,5.071-5.07,5.071l0,0c-2.803,0-5.072-2.271-5.072-5.071V72.222
	c0-2.802,2.27-5.071,5.072-5.071l0,0c2.801,0,5.07,2.27,5.07,5.071V113.076z"/>
<circle fill="#2D2D2D" cx="146.143" cy="177.469" r="95.476"/>
<circle fill="none" stroke="#8F8F8F" stroke-width="3" stroke-miterlimit="10" cx="146.143" cy="177.469" r="87.943"/>
<circle fill="none" stroke="#8F8F8F" stroke-width="3" stroke-miterlimit="10" cx="146.143" cy="177.469" r="59.992"/>
<circle fill="#8F8F8F" cx="146.143" cy="177.469" r="34.417"/>
<rect x="146.143" y="89.525" fill="#8F8F8F" width="4.944" height="61.35"/>
<rect x="107.186" y="102.339" transform="matrix(0.7046 -0.7096 0.7096 0.7046 -61.9935 117.0978)" fill="#8F8F8F" width="4.944" height="61.35"/>
<rect x="187.951" y="183.104" transform="matrix(0.7046 -0.7096 0.7096 0.7046 -95.4473 198.2616)" fill="#8F8F8F" width="4.944" height="61.35"/>
<rect x="146.143" y="204.475" fill="#8F8F8F" width="4.944" height="61.35"/>
<rect x="184.339" y="104.661" transform="matrix(0.6801 0.7331 -0.7331 0.6801 158.966 -93.6591)" fill="#8F8F8F" width="4.944" height="61.35"/>
<rect x="102.332" y="186.668" transform="matrix(0.6801 0.7331 -0.7331 0.6801 192.853 -7.3107)" fill="#8F8F8F" width="4.944" height="61.35"/>
<rect x="200.909" y="141.384" transform="matrix(0.0131 0.9999 -0.9999 0.0131 372.7527 -33.5646)" fill="#8F8F8F" width="4.944" height="61.35"/>
<rect x="86.432" y="141.384" transform="matrix(0.0132 0.9999 -0.9999 0.0132 259.7712 80.8849)" fill="#8F8F8F" width="4.944" height="61.35"/>
<rect x="296.261" y="153.771" fill="#D2D2D2" stroke="#383838" stroke-width="3" stroke-miterlimit="10" width="931.558" height="178.604"/>
<rect x="375.911" y="153.771" fill="#606060" stroke="#1B1C1C" stroke-width="3" stroke-miterlimit="10" width="30.448" height="149.428"/>
<rect x="431.661" y="153.771" fill="#606060" stroke="#1B1C1C" stroke-width="3" stroke-miterlimit="10" width="30.448" height="149.428"/>
<rect x="487.411" y="153.771" fill="#606060" stroke="#353535" stroke-width="3" stroke-miterlimit="10" width="30.448" height="149.428"/>
<rect x="543.162" y="153.771" fill="#606060" stroke="#2D2D2D" stroke-width="3" stroke-miterlimit="10" width="30.448" height="149.428"/>
<rect x="598.912" y="153.771" fill="#606060" stroke="#353535" stroke-width="3" stroke-miterlimit="10" width="30.448" height="149.428"/>
<rect x="654.661" y="153.771" fill="#606060" stroke="#2D2D2D" stroke-width="3" stroke-miterlimit="10" width="30.449" height="149.428"/>
<rect x="710.412" y="153.771" fill="#606060" stroke="#383838" stroke-width="3" stroke-miterlimit="10" width="30.447" height="149.428"/>
<rect x="766.162" y="153.771" fill="#606060" stroke="#2D2D2D" stroke-width="3" stroke-miterlimit="10" width="30.447" height="149.428"/>
<rect x="821.912" y="153.771" fill="#606060" width="30.447" height="149.428"/>
<rect x="877.662" y="153.771" fill="#606060" width="30.447" height="149.428"/>
<rect x="933.412" y="153.771" fill="#606060" width="30.448" height="149.428"/>
<rect x="989.162" y="153.771" fill="#606060" width="30.448" height="149.428"/>
<rect x="1044.912" y="153.771" fill="#606060" width="30.449" height="149.428"/>
<rect x="1100.663" y="153.771" fill="#606060" stroke="#222323" stroke-width="3" stroke-miterlimit="10" width="30.448" height="149.428"/>
<rect x="1156.411" y="153.771" fill="#606060" stroke="#2A2B2B" stroke-width="3" stroke-miterlimit="10" width="30.448" height="149.428"/>
<g>
	<path fill="#ACACAB" d="M673.158,179.375c0,3.016-2.448,5.463-5.468,5.463s-5.467-2.447-5.467-5.463
		c0-3.018,2.447-5.463,5.467-5.463S673.158,176.357,673.158,179.375"/>
	<circle fill="none" stroke="#8F8F8F" stroke-miterlimit="10" cx="667.691" cy="179.375" r="5.467"/>
	<path fill="#ACACAB" d="M671.708,179.375c0,2.217-1.799,4.014-4.018,4.014s-4.018-1.797-4.018-4.014s1.799-4.014,4.018-4.014
		S671.708,177.158,671.708,179.375"/>
	<circle fill="none" stroke="#8F8F8F" stroke-miterlimit="10" cx="667.69" cy="179.375" r="4.018"/>
	<g>
		<g>
			<defs>
				<rect id="SVGID_29_" x="663.903" y="175.592" width="7.574" height="7.566"/>
			</defs>
			<clipPath id="SVGID_30_">
				<use xlink:href="#SVGID_29_"  overflow="visible"/>
			</clipPath>
			<path clip-path="url(#SVGID_30_)" fill="#BBBBBB" d="M671.478,179.375c0,2.09-1.695,3.783-3.787,3.783
				c-2.091,0-3.785-1.693-3.785-3.783s1.694-3.783,3.785-3.783C669.782,175.592,671.478,177.285,671.478,179.375"/>
			<path clip-path="url(#SVGID_30_)" fill="#BCBDBD" d="M671.388,179.375c0,2.039-1.655,3.693-3.697,3.693
				c-2.041,0-3.697-1.654-3.697-3.693s1.656-3.693,3.697-3.693C669.732,175.682,671.388,177.336,671.388,179.375"/>
			<path clip-path="url(#SVGID_30_)" fill="#C0C0C0" d="M671.299,179.375c0,1.99-1.616,3.605-3.608,3.605s-3.607-1.615-3.607-3.605
				s1.615-3.605,3.607-3.605S671.299,177.385,671.299,179.375"/>
			<path clip-path="url(#SVGID_30_)" fill="#C2C2C2" d="M671.21,179.375c0,1.941-1.576,3.516-3.52,3.516s-3.52-1.574-3.52-3.516
				s1.576-3.516,3.52-3.516S671.21,177.434,671.21,179.375"/>
			<path clip-path="url(#SVGID_30_)" fill="#C3C5C5" d="M671.12,179.375c0,1.893-1.535,3.428-3.43,3.428s-3.43-1.535-3.43-3.428
				s1.535-3.428,3.43-3.428S671.12,177.482,671.12,179.375"/>
			<path clip-path="url(#SVGID_30_)" fill="#C6C7C7" d="M671.031,179.375c0,1.844-1.495,3.338-3.341,3.338
				c-1.845,0-3.34-1.494-3.34-3.338s1.495-3.338,3.34-3.338C669.536,176.037,671.031,177.531,671.031,179.375"/>
			<path clip-path="url(#SVGID_30_)" fill="#C8CACA" d="M670.942,179.375c0,1.795-1.455,3.248-3.252,3.248
				c-1.796,0-3.252-1.453-3.252-3.248s1.456-3.25,3.252-3.25C669.487,176.125,670.942,177.58,670.942,179.375"/>
			<path clip-path="url(#SVGID_30_)" fill="#CACCCC" d="M670.854,179.375c0,1.744-1.418,3.16-3.164,3.16s-3.163-1.416-3.163-3.16
				s1.417-3.16,3.163-3.16S670.854,177.631,670.854,179.375"/>
			<path clip-path="url(#SVGID_30_)" fill="#CDCFCF" d="M670.765,179.375c0,1.695-1.377,3.071-3.074,3.071s-3.074-1.376-3.074-3.071
				s1.377-3.071,3.074-3.071S670.765,177.68,670.765,179.375"/>
			<path clip-path="url(#SVGID_30_)" fill="#CFD1D1" d="M670.675,179.375c0,1.646-1.336,2.982-2.984,2.982s-2.984-1.336-2.984-2.982
				s1.336-2.982,2.984-2.982S670.675,177.729,670.675,179.375"/>
		</g>
	</g>
	<polygon fill="#5F5F5E" points="667.196,181.648 667.196,179.869 665.413,179.869 665.413,178.881 667.196,178.881 667.196,177.1 
		668.185,177.1 668.185,178.881 669.968,178.881 669.968,179.869 668.185,179.869 668.185,181.648 	"/>
	<path fill="#231815" d="M668.101,177.186v1.609v0.172h0.17h1.611v0.816h-1.611h-0.17v0.172v1.609h-0.818v-1.609v-0.172h-0.172
		h-1.61v-0.816h1.61h0.172v-0.172v-1.609H668.101z M668.271,177.016h-1.16v1.779h-1.781v1.16h1.781v1.779h1.16v-1.779h1.783v-1.16
		h-1.783V177.016z"/>
</g>
<g>
	<path fill="#ACACAB" d="M896.966,159.233c0,3.017-2.448,5.462-5.468,5.462s-5.467-2.445-5.467-5.462s2.447-5.462,5.467-5.462
		S896.966,156.217,896.966,159.233"/>
	<ellipse fill="none" stroke="#8F8F8F" stroke-miterlimit="10" cx="891.499" cy="159.233" rx="5.467" ry="5.462"/>
	<path fill="#ACACAB" d="M895.516,159.233c0,2.216-1.799,4.014-4.018,4.014s-4.018-1.798-4.018-4.014
		c0-2.217,1.799-4.014,4.018-4.014S895.516,157.017,895.516,159.233"/>
	<circle fill="none" stroke="#8F8F8F" stroke-miterlimit="10" cx="891.498" cy="159.233" r="4.018"/>
	<g>
		<g>
			<defs>
				<rect id="SVGID_31_" x="887.711" y="155.451" width="7.574" height="7.564"/>
			</defs>
			<clipPath id="SVGID_32_">
				<use xlink:href="#SVGID_31_"  overflow="visible"/>
			</clipPath>
			<path clip-path="url(#SVGID_32_)" fill="#BBBBBB" d="M895.285,159.233c0,2.089-1.695,3.782-3.787,3.782
				c-2.091,0-3.785-1.693-3.785-3.782s1.694-3.782,3.785-3.782C893.59,155.451,895.285,157.145,895.285,159.233"/>
			<path clip-path="url(#SVGID_32_)" fill="#BCBDBD" d="M895.195,159.233c0,2.04-1.655,3.694-3.697,3.694
				c-2.041,0-3.697-1.654-3.697-3.694s1.656-3.694,3.697-3.694C893.54,155.539,895.195,157.193,895.195,159.233"/>
			<path clip-path="url(#SVGID_32_)" fill="#C0C0C0" d="M895.106,159.233c0,1.991-1.616,3.604-3.608,3.604s-3.607-1.613-3.607-3.604
				s1.615-3.604,3.607-3.604S895.106,157.242,895.106,159.233"/>
			<path clip-path="url(#SVGID_32_)" fill="#C2C2C2" d="M895.018,159.233c0,1.942-1.576,3.516-3.52,3.516s-3.52-1.573-3.52-3.516
				s1.576-3.517,3.52-3.517S895.018,157.291,895.018,159.233"/>
			<path clip-path="url(#SVGID_32_)" fill="#C3C5C5" d="M894.928,159.233c0,1.892-1.535,3.427-3.43,3.427s-3.43-1.535-3.43-3.427
				c0-1.893,1.535-3.427,3.43-3.427S894.928,157.341,894.928,159.233"/>
			<path clip-path="url(#SVGID_32_)" fill="#C6C7C7" d="M894.839,159.233c0,1.843-1.495,3.339-3.341,3.339
				c-1.845,0-3.34-1.496-3.34-3.339s1.495-3.339,3.34-3.339C893.344,155.895,894.839,157.391,894.839,159.233"/>
			<path clip-path="url(#SVGID_32_)" fill="#C8CACA" d="M894.75,159.233c0,1.794-1.455,3.249-3.252,3.249
				c-1.796,0-3.252-1.455-3.252-3.249s1.456-3.249,3.252-3.249C893.295,155.984,894.75,157.439,894.75,159.233"/>
			<path clip-path="url(#SVGID_32_)" fill="#CACCCC" d="M894.662,159.233c0,1.745-1.418,3.159-3.164,3.159s-3.163-1.414-3.163-3.159
				s1.417-3.16,3.163-3.16S894.662,157.488,894.662,159.233"/>
			<path clip-path="url(#SVGID_32_)" fill="#CDCFCF" d="M894.572,159.233c0,1.696-1.377,3.071-3.074,3.071s-3.074-1.375-3.074-3.071
				s1.377-3.071,3.074-3.071S894.572,157.537,894.572,159.233"/>
			<path clip-path="url(#SVGID_32_)" fill="#CFD1D1" d="M894.482,159.233c0,1.647-1.336,2.981-2.984,2.981s-2.984-1.334-2.984-2.981
				s1.336-2.981,2.984-2.981S894.482,157.586,894.482,159.233"/>
		</g>
	</g>
	<polygon fill="#5F5F5E" points="891.004,161.508 891.004,159.729 889.221,159.729 889.221,158.739 891.004,158.739 
		891.004,156.959 891.992,156.959 891.992,158.739 893.775,158.739 893.775,159.729 891.992,159.729 891.992,161.508 	"/>
	<path fill="#231815" d="M891.908,157.045v1.609v0.17h0.17h1.611v0.817h-1.611h-0.17v0.171v1.609h-0.818v-1.609v-0.171h-0.172h-1.61
		v-0.817h1.61h0.172v-0.17v-1.609H891.908z M892.078,156.873h-1.16v1.781h-1.781v1.158h1.781v1.781h1.16v-1.781h1.783v-1.158h-1.783
		V156.873z"/>
</g>
<g>
	<path fill="#ACACAB" d="M896.966,294.091c0,3.017-2.448,5.462-5.468,5.462s-5.467-2.445-5.467-5.462s2.447-5.462,5.467-5.462
		S896.966,291.074,896.966,294.091"/>
	<ellipse fill="none" stroke="#8F8F8F" stroke-miterlimit="10" cx="891.499" cy="294.091" rx="5.467" ry="5.462"/>
	<path fill="#ACACAB" d="M895.516,294.091c0,2.216-1.799,4.014-4.018,4.014s-4.018-1.798-4.018-4.014
		c0-2.217,1.799-4.014,4.018-4.014S895.516,291.874,895.516,294.091"/>
	<circle fill="none" stroke="#8F8F8F" stroke-miterlimit="10" cx="891.498" cy="294.091" r="4.018"/>
	<g>
		<g>
			<defs>
				<rect id="SVGID_33_" x="887.711" y="290.309" width="7.574" height="7.564"/>
			</defs>
			<clipPath id="SVGID_34_">
				<use xlink:href="#SVGID_33_"  overflow="visible"/>
			</clipPath>
			<path clip-path="url(#SVGID_34_)" fill="#BBBBBB" d="M895.285,294.091c0,2.089-1.695,3.782-3.787,3.782
				c-2.091,0-3.785-1.693-3.785-3.782s1.694-3.782,3.785-3.782C893.59,290.309,895.285,292.002,895.285,294.091"/>
			<path clip-path="url(#SVGID_34_)" fill="#BCBDBD" d="M895.195,294.091c0,2.04-1.655,3.694-3.697,3.694
				c-2.041,0-3.697-1.654-3.697-3.694s1.656-3.694,3.697-3.694C893.54,290.396,895.195,292.051,895.195,294.091"/>
			<path clip-path="url(#SVGID_34_)" fill="#C0C0C0" d="M895.106,294.091c0,1.991-1.616,3.604-3.608,3.604s-3.607-1.613-3.607-3.604
				s1.615-3.604,3.607-3.604S895.106,292.1,895.106,294.091"/>
			<path clip-path="url(#SVGID_34_)" fill="#C2C2C2" d="M895.018,294.091c0,1.942-1.576,3.516-3.52,3.516s-3.52-1.573-3.52-3.516
				s1.576-3.517,3.52-3.517S895.018,292.148,895.018,294.091"/>
			<path clip-path="url(#SVGID_34_)" fill="#C3C5C5" d="M894.928,294.091c0,1.892-1.535,3.427-3.43,3.427s-3.43-1.535-3.43-3.427
				c0-1.893,1.535-3.427,3.43-3.427S894.928,292.198,894.928,294.091"/>
			<path clip-path="url(#SVGID_34_)" fill="#C6C7C7" d="M894.839,294.091c0,1.843-1.495,3.339-3.341,3.339
				c-1.845,0-3.34-1.496-3.34-3.339s1.495-3.339,3.34-3.339C893.344,290.752,894.839,292.248,894.839,294.091"/>
			<path clip-path="url(#SVGID_34_)" fill="#C8CACA" d="M894.75,294.091c0,1.794-1.455,3.249-3.252,3.249
				c-1.796,0-3.252-1.455-3.252-3.249s1.456-3.249,3.252-3.249C893.295,290.842,894.75,292.297,894.75,294.091"/>
			<path clip-path="url(#SVGID_34_)" fill="#CACCCC" d="M894.662,294.091c0,1.745-1.418,3.159-3.164,3.159s-3.163-1.414-3.163-3.159
				s1.417-3.16,3.163-3.16S894.662,292.346,894.662,294.091"/>
			<path clip-path="url(#SVGID_34_)" fill="#CDCFCF" d="M894.572,294.091c0,1.696-1.377,3.071-3.074,3.071s-3.074-1.375-3.074-3.071
				s1.377-3.071,3.074-3.071S894.572,292.395,894.572,294.091"/>
			<path clip-path="url(#SVGID_34_)" fill="#CFD1D1" d="M894.482,294.091c0,1.647-1.336,2.981-2.984,2.981s-2.984-1.334-2.984-2.981
				s1.336-2.981,2.984-2.981S894.482,292.443,894.482,294.091"/>
		</g>
	</g>
	<polygon fill="#5F5F5E" points="891.004,296.365 891.004,294.586 889.221,294.586 889.221,293.597 891.004,293.597 
		891.004,291.816 891.992,291.816 891.992,293.597 893.775,293.597 893.775,294.586 891.992,294.586 891.992,296.365 	"/>
	<path fill="#231815" d="M891.908,291.902v1.609v0.17h0.17h1.611v0.817h-1.611h-0.17v0.171v1.609h-0.818v-1.609v-0.171h-0.172h-1.61
		v-0.817h1.61h0.172v-0.17v-1.609H891.908z M892.078,291.73h-1.16v1.781h-1.781v1.158h1.781v1.781h1.16v-1.781h1.783v-1.158h-1.783
		V291.73z"/>
</g>
<g>
	<path fill="#ACACAB" d="M673.158,224.861c0,3.016-2.448,5.463-5.468,5.463s-5.467-2.447-5.467-5.463
		c0-3.018,2.447-5.463,5.467-5.463S673.158,221.844,673.158,224.861"/>
	<circle fill="none" stroke="#8F8F8F" stroke-miterlimit="10" cx="667.691" cy="224.861" r="5.467"/>
	<path fill="#ACACAB" d="M671.708,224.861c0,2.217-1.799,4.014-4.018,4.014s-4.018-1.797-4.018-4.014s1.799-4.014,4.018-4.014
		S671.708,222.645,671.708,224.861"/>
	<circle fill="none" stroke="#8F8F8F" stroke-miterlimit="10" cx="667.69" cy="224.861" r="4.018"/>
	<g>
		<g>
			<defs>
				<rect id="SVGID_35_" x="663.903" y="221.078" width="7.574" height="7.566"/>
			</defs>
			<clipPath id="SVGID_36_">
				<use xlink:href="#SVGID_35_"  overflow="visible"/>
			</clipPath>
			<path clip-path="url(#SVGID_36_)" fill="#BBBBBB" d="M671.478,224.861c0,2.09-1.695,3.783-3.787,3.783
				c-2.091,0-3.785-1.693-3.785-3.783s1.694-3.783,3.785-3.783C669.782,221.078,671.478,222.771,671.478,224.861"/>
			<path clip-path="url(#SVGID_36_)" fill="#BCBDBD" d="M671.388,224.861c0,2.039-1.655,3.693-3.697,3.693
				c-2.041,0-3.697-1.654-3.697-3.693s1.656-3.693,3.697-3.693C669.732,221.168,671.388,222.822,671.388,224.861"/>
			<path clip-path="url(#SVGID_36_)" fill="#C0C0C0" d="M671.299,224.861c0,1.99-1.616,3.605-3.608,3.605s-3.607-1.615-3.607-3.605
				s1.615-3.605,3.607-3.605S671.299,222.871,671.299,224.861"/>
			<path clip-path="url(#SVGID_36_)" fill="#C2C2C2" d="M671.21,224.861c0,1.941-1.576,3.516-3.52,3.516s-3.52-1.574-3.52-3.516
				s1.576-3.516,3.52-3.516S671.21,222.92,671.21,224.861"/>
			<path clip-path="url(#SVGID_36_)" fill="#C3C5C5" d="M671.12,224.861c0,1.893-1.535,3.428-3.43,3.428s-3.43-1.535-3.43-3.428
				s1.535-3.428,3.43-3.428S671.12,222.969,671.12,224.861"/>
			<path clip-path="url(#SVGID_36_)" fill="#C6C7C7" d="M671.031,224.861c0,1.844-1.495,3.338-3.341,3.338
				c-1.845,0-3.34-1.494-3.34-3.338s1.495-3.338,3.34-3.338C669.536,221.523,671.031,223.018,671.031,224.861"/>
			<path clip-path="url(#SVGID_36_)" fill="#C8CACA" d="M670.942,224.861c0,1.795-1.455,3.248-3.252,3.248
				c-1.796,0-3.252-1.453-3.252-3.248s1.456-3.25,3.252-3.25C669.487,221.611,670.942,223.066,670.942,224.861"/>
			<path clip-path="url(#SVGID_36_)" fill="#CACCCC" d="M670.854,224.861c0,1.744-1.418,3.16-3.164,3.16s-3.163-1.416-3.163-3.16
				s1.417-3.16,3.163-3.16S670.854,223.117,670.854,224.861"/>
			<path clip-path="url(#SVGID_36_)" fill="#CDCFCF" d="M670.765,224.861c0,1.695-1.377,3.071-3.074,3.071s-3.074-1.376-3.074-3.071
				s1.377-3.071,3.074-3.071S670.765,223.166,670.765,224.861"/>
			<path clip-path="url(#SVGID_36_)" fill="#CFD1D1" d="M670.675,224.861c0,1.646-1.336,2.982-2.984,2.982s-2.984-1.336-2.984-2.982
				s1.336-2.982,2.984-2.982S670.675,223.215,670.675,224.861"/>
		</g>
	</g>
	<polygon fill="#5F5F5E" points="667.196,227.135 667.196,225.355 665.413,225.355 665.413,224.367 667.196,224.367 
		667.196,222.586 668.185,222.586 668.185,224.367 669.968,224.367 669.968,225.355 668.185,225.355 668.185,227.135 	"/>
	<path fill="#231815" d="M668.101,222.672v1.609v0.172h0.17h1.611v0.816h-1.611h-0.17v0.172v1.609h-0.818v-1.609v-0.172h-0.172
		h-1.61v-0.816h1.61h0.172v-0.172v-1.609H668.101z M668.271,222.502h-1.16v1.779h-1.781v1.16h1.781v1.779h1.16v-1.779h1.783v-1.16
		h-1.783V222.502z"/>
</g>
<g>
	<path fill="#ACACAB" d="M673.158,240.019c0,3.017-2.448,5.462-5.468,5.462s-5.467-2.445-5.467-5.462s2.447-5.462,5.467-5.462
		S673.158,237.002,673.158,240.019"/>
	<ellipse fill="none" stroke="#8F8F8F" stroke-miterlimit="10" cx="667.691" cy="240.019" rx="5.467" ry="5.462"/>
	<path fill="#ACACAB" d="M671.708,240.019c0,2.216-1.799,4.014-4.018,4.014s-4.018-1.798-4.018-4.014
		c0-2.217,1.799-4.014,4.018-4.014S671.708,237.802,671.708,240.019"/>
	<circle fill="none" stroke="#8F8F8F" stroke-miterlimit="10" cx="667.69" cy="240.019" r="4.018"/>
	<g>
		<g>
			<defs>
				<rect id="SVGID_37_" x="663.903" y="236.236" width="7.574" height="7.564"/>
			</defs>
			<clipPath id="SVGID_38_">
				<use xlink:href="#SVGID_37_"  overflow="visible"/>
			</clipPath>
			<path clip-path="url(#SVGID_38_)" fill="#BBBBBB" d="M671.478,240.019c0,2.089-1.695,3.782-3.787,3.782
				c-2.091,0-3.785-1.693-3.785-3.782s1.694-3.782,3.785-3.782C669.782,236.236,671.478,237.93,671.478,240.019"/>
			<path clip-path="url(#SVGID_38_)" fill="#BCBDBD" d="M671.388,240.019c0,2.04-1.655,3.694-3.697,3.694
				c-2.041,0-3.697-1.654-3.697-3.694s1.656-3.694,3.697-3.694C669.732,236.324,671.388,237.979,671.388,240.019"/>
			<path clip-path="url(#SVGID_38_)" fill="#C0C0C0" d="M671.299,240.019c0,1.991-1.616,3.604-3.608,3.604s-3.607-1.613-3.607-3.604
				s1.615-3.604,3.607-3.604S671.299,238.027,671.299,240.019"/>
			<path clip-path="url(#SVGID_38_)" fill="#C2C2C2" d="M671.21,240.019c0,1.942-1.576,3.516-3.52,3.516s-3.52-1.573-3.52-3.516
				s1.576-3.517,3.52-3.517S671.21,238.076,671.21,240.019"/>
			<path clip-path="url(#SVGID_38_)" fill="#C3C5C5" d="M671.12,240.019c0,1.892-1.535,3.427-3.43,3.427s-3.43-1.535-3.43-3.427
				c0-1.893,1.535-3.427,3.43-3.427S671.12,238.126,671.12,240.019"/>
			<path clip-path="url(#SVGID_38_)" fill="#C6C7C7" d="M671.031,240.019c0,1.843-1.495,3.339-3.341,3.339
				c-1.845,0-3.34-1.496-3.34-3.339s1.495-3.339,3.34-3.339C669.536,236.68,671.031,238.176,671.031,240.019"/>
			<path clip-path="url(#SVGID_38_)" fill="#C8CACA" d="M670.942,240.019c0,1.794-1.455,3.249-3.252,3.249
				c-1.796,0-3.252-1.455-3.252-3.249s1.456-3.249,3.252-3.249C669.487,236.77,670.942,238.225,670.942,240.019"/>
			<path clip-path="url(#SVGID_38_)" fill="#CACCCC" d="M670.854,240.019c0,1.745-1.418,3.159-3.164,3.159s-3.163-1.414-3.163-3.159
				s1.417-3.16,3.163-3.16S670.854,238.273,670.854,240.019"/>
			<path clip-path="url(#SVGID_38_)" fill="#CDCFCF" d="M670.765,240.019c0,1.696-1.377,3.071-3.074,3.071s-3.074-1.375-3.074-3.071
				s1.377-3.071,3.074-3.071S670.765,238.322,670.765,240.019"/>
			<path clip-path="url(#SVGID_38_)" fill="#CFD1D1" d="M670.675,240.019c0,1.647-1.336,2.981-2.984,2.981s-2.984-1.334-2.984-2.981
				s1.336-2.981,2.984-2.981S670.675,238.371,670.675,240.019"/>
		</g>
	</g>
	<polygon fill="#5F5F5E" points="667.196,242.293 667.196,240.514 665.413,240.514 665.413,239.524 667.196,239.524 
		667.196,237.744 668.185,237.744 668.185,239.524 669.968,239.524 669.968,240.514 668.185,240.514 668.185,242.293 	"/>
	<path fill="#231815" d="M668.101,237.83v1.609v0.17h0.17h1.611v0.817h-1.611h-0.17v0.171v1.609h-0.818v-1.609v-0.171h-0.172h-1.61
		v-0.817h1.61h0.172v-0.17v-1.609H668.101z M668.271,237.658h-1.16v1.781h-1.781v1.158h1.781v1.781h1.16v-1.781h1.783v-1.158h-1.783
		V237.658z"/>
</g>
<g>
	<path fill="#ACACAB" d="M673.158,280.893c0,3.016-2.448,5.462-5.468,5.462s-5.467-2.446-5.467-5.462
		c0-3.018,2.447-5.463,5.467-5.463S673.158,277.875,673.158,280.893"/>
	<ellipse fill="none" stroke="#8F8F8F" stroke-miterlimit="10" cx="667.691" cy="280.893" rx="5.467" ry="5.462"/>
	<path fill="#ACACAB" d="M671.708,280.893c0,2.216-1.799,4.014-4.018,4.014s-4.018-1.798-4.018-4.014
		c0-2.217,1.799-4.014,4.018-4.014S671.708,278.676,671.708,280.893"/>
	<circle fill="none" stroke="#8F8F8F" stroke-miterlimit="10" cx="667.69" cy="280.893" r="4.018"/>
	<g>
		<g>
			<defs>
				<rect id="SVGID_39_" x="663.903" y="277.109" width="7.574" height="7.565"/>
			</defs>
			<clipPath id="SVGID_40_">
				<use xlink:href="#SVGID_39_"  overflow="visible"/>
			</clipPath>
			<path clip-path="url(#SVGID_40_)" fill="#BBBBBB" d="M671.478,280.893c0,2.089-1.695,3.782-3.787,3.782
				c-2.091,0-3.785-1.693-3.785-3.782c0-2.09,1.694-3.783,3.785-3.783C669.782,277.109,671.478,278.803,671.478,280.893"/>
			<path clip-path="url(#SVGID_40_)" fill="#BCBDBD" d="M671.388,280.893c0,2.039-1.655,3.693-3.697,3.693
				c-2.041,0-3.697-1.654-3.697-3.693c0-2.04,1.656-3.694,3.697-3.694C669.732,277.198,671.388,278.853,671.388,280.893"/>
			<path clip-path="url(#SVGID_40_)" fill="#C0C0C0" d="M671.299,280.893c0,1.99-1.616,3.604-3.608,3.604s-3.607-1.614-3.607-3.604
				c0-1.991,1.615-3.605,3.607-3.605S671.299,278.901,671.299,280.893"/>
			<path clip-path="url(#SVGID_40_)" fill="#C2C2C2" d="M671.21,280.893c0,1.941-1.576,3.516-3.52,3.516s-3.52-1.574-3.52-3.516
				c0-1.942,1.576-3.517,3.52-3.517S671.21,278.95,671.21,280.893"/>
			<path clip-path="url(#SVGID_40_)" fill="#C3C5C5" d="M671.12,280.893c0,1.892-1.535,3.427-3.43,3.427s-3.43-1.535-3.43-3.427
				c0-1.893,1.535-3.428,3.43-3.428S671.12,279,671.12,280.893"/>
			<path clip-path="url(#SVGID_40_)" fill="#C6C7C7" d="M671.031,280.893c0,1.843-1.495,3.338-3.341,3.338
				c-1.845,0-3.34-1.495-3.34-3.338c0-1.844,1.495-3.339,3.34-3.339C669.536,277.554,671.031,279.049,671.031,280.893"/>
			<path clip-path="url(#SVGID_40_)" fill="#C8CACA" d="M670.942,280.893c0,1.794-1.455,3.248-3.252,3.248
				c-1.796,0-3.252-1.454-3.252-3.248c0-1.795,1.456-3.25,3.252-3.25C669.487,277.643,670.942,279.098,670.942,280.893"/>
			<path clip-path="url(#SVGID_40_)" fill="#CACCCC" d="M670.854,280.893c0,1.744-1.418,3.159-3.164,3.159s-3.163-1.415-3.163-3.159
				c0-1.745,1.417-3.16,3.163-3.16S670.854,279.147,670.854,280.893"/>
			<path clip-path="url(#SVGID_40_)" fill="#CDCFCF" d="M670.765,280.893c0,1.695-1.377,3.07-3.074,3.07s-3.074-1.375-3.074-3.07
				c0-1.696,1.377-3.072,3.074-3.072S670.765,279.196,670.765,280.893"/>
			<path clip-path="url(#SVGID_40_)" fill="#CFD1D1" d="M670.675,280.893c0,1.646-1.336,2.981-2.984,2.981s-2.984-1.335-2.984-2.981
				c0-1.647,1.336-2.982,2.984-2.982S670.675,279.245,670.675,280.893"/>
		</g>
	</g>
	<polygon fill="#5F5F5E" points="667.196,283.166 667.196,281.387 665.413,281.387 665.413,280.398 667.196,280.398 
		667.196,278.617 668.185,278.617 668.185,280.398 669.968,280.398 669.968,281.387 668.185,281.387 668.185,283.166 	"/>
	<path fill="#231815" d="M668.101,278.703v1.609v0.171h0.17h1.611v0.817h-1.611h-0.17v0.171v1.609h-0.818v-1.609v-0.171h-0.172
		h-1.61v-0.817h1.61h0.172v-0.171v-1.609H668.101z M668.271,278.532h-1.16v1.78h-1.781v1.159h1.781v1.78h1.16v-1.78h1.783v-1.159
		h-1.783V278.532z"/>
</g>
<circle fill="#2D2D2D" cx="837.136" cy="283.166" r="10.925"/>
<g>
	<path fill="#222323" d="M394.334,185.808c0,1.429-1.158,2.587-2.586,2.587l0,0c-1.429,0-2.586-1.158-2.586-2.587V167.29
		c0-1.429,1.158-2.587,2.586-2.587l0,0c1.429,0,2.586,1.158,2.586,2.587V185.808z"/>
	<path fill="#222323" d="M394.334,219.093c0,1.429-1.158,2.587-2.586,2.587l0,0c-1.429,0-2.586-1.158-2.586-2.587v-18.518
		c0-1.429,1.158-2.587,2.586-2.587l0,0c1.429,0,2.586,1.158,2.586,2.587V219.093z"/>
	<path fill="#222323" d="M394.334,252.378c0,1.429-1.158,2.587-2.586,2.587l0,0c-1.429,0-2.586-1.158-2.586-2.587V233.86
		c0-1.429,1.158-2.587,2.586-2.587l0,0c1.429,0,2.586,1.158,2.586,2.587V252.378z"/>
	<path fill="#222323" d="M394.334,285.663c0,1.429-1.158,2.587-2.586,2.587l0,0c-1.429,0-2.586-1.158-2.586-2.587v-18.518
		c0-1.429,1.158-2.587,2.586-2.587l0,0c1.429,0,2.586,1.158,2.586,2.587V285.663z"/>
</g>
<g>
	<path fill="#222323" d="M450.466,185.808c0,1.429-1.158,2.587-2.586,2.587l0,0c-1.429,0-2.587-1.158-2.587-2.587V167.29
		c0-1.429,1.158-2.587,2.587-2.587l0,0c1.429,0,2.586,1.158,2.586,2.587V185.808z"/>
	<path fill="#222323" d="M450.466,219.093c0,1.429-1.158,2.587-2.586,2.587l0,0c-1.429,0-2.587-1.158-2.587-2.587v-18.518
		c0-1.429,1.158-2.587,2.587-2.587l0,0c1.429,0,2.586,1.158,2.586,2.587V219.093z"/>
	<path fill="#222323" d="M450.466,252.378c0,1.429-1.158,2.587-2.586,2.587l0,0c-1.429,0-2.587-1.158-2.587-2.587V233.86
		c0-1.429,1.158-2.587,2.587-2.587l0,0c1.429,0,2.586,1.158,2.586,2.587V252.378z"/>
	<path fill="#222323" d="M450.466,285.663c0,1.429-1.158,2.587-2.586,2.587l0,0c-1.429,0-2.587-1.158-2.587-2.587v-18.518
		c0-1.429,1.158-2.587,2.587-2.587l0,0c1.429,0,2.586,1.158,2.586,2.587V285.663z"/>
</g>
<g>
	<path fill="#222323" d="M504.011,185.808c0,1.429-1.158,2.587-2.586,2.587l0,0c-1.429,0-2.587-1.158-2.587-2.587V167.29
		c0-1.429,1.158-2.587,2.587-2.587l0,0c1.429,0,2.586,1.158,2.586,2.587V185.808z"/>
	<path fill="#222323" d="M504.011,219.093c0,1.429-1.158,2.587-2.586,2.587l0,0c-1.429,0-2.587-1.158-2.587-2.587v-18.518
		c0-1.429,1.158-2.587,2.587-2.587l0,0c1.429,0,2.586,1.158,2.586,2.587V219.093z"/>
	<path fill="#222323" d="M504.011,252.378c0,1.429-1.158,2.587-2.586,2.587l0,0c-1.429,0-2.587-1.158-2.587-2.587V233.86
		c0-1.429,1.158-2.587,2.587-2.587l0,0c1.429,0,2.586,1.158,2.586,2.587V252.378z"/>
	<path fill="#222323" d="M504.011,285.663c0,1.429-1.158,2.587-2.586,2.587l0,0c-1.429,0-2.587-1.158-2.587-2.587v-18.518
		c0-1.429,1.158-2.587,2.587-2.587l0,0c1.429,0,2.586,1.158,2.586,2.587V285.663z"/>
</g>
<g>
	<path fill="#222323" d="M560.972,185.808c0,1.429-1.158,2.587-2.587,2.587l0,0c-1.429,0-2.586-1.158-2.586-2.587V167.29
		c0-1.429,1.158-2.587,2.586-2.587l0,0c1.429,0,2.587,1.158,2.587,2.587V185.808z"/>
	<path fill="#222323" d="M560.972,219.093c0,1.429-1.158,2.587-2.587,2.587l0,0c-1.429,0-2.586-1.158-2.586-2.587v-18.518
		c0-1.429,1.158-2.587,2.586-2.587l0,0c1.429,0,2.587,1.158,2.587,2.587V219.093z"/>
	<path fill="#222323" d="M560.972,252.378c0,1.429-1.158,2.587-2.587,2.587l0,0c-1.429,0-2.586-1.158-2.586-2.587V233.86
		c0-1.429,1.158-2.587,2.586-2.587l0,0c1.429,0,2.587,1.158,2.587,2.587V252.378z"/>
	<path fill="#222323" d="M560.972,285.663c0,1.429-1.158,2.587-2.587,2.587l0,0c-1.429,0-2.586-1.158-2.586-2.587v-18.518
		c0-1.429,1.158-2.587,2.586-2.587l0,0c1.429,0,2.587,1.158,2.587,2.587V285.663z"/>
</g>
<g>
	<path fill="#222323" d="M616.173,185.808c0,1.429-1.158,2.587-2.587,2.587l0,0c-1.429,0-2.586-1.158-2.586-2.587V167.29
		c0-1.429,1.158-2.587,2.586-2.587l0,0c1.429,0,2.587,1.158,2.587,2.587V185.808z"/>
	<path fill="#222323" d="M616.173,219.093c0,1.429-1.158,2.587-2.587,2.587l0,0c-1.429,0-2.586-1.158-2.586-2.587v-18.518
		c0-1.429,1.158-2.587,2.586-2.587l0,0c1.429,0,2.587,1.158,2.587,2.587V219.093z"/>
	<path fill="#222323" d="M616.173,252.378c0,1.429-1.158,2.587-2.587,2.587l0,0c-1.429,0-2.586-1.158-2.586-2.587V233.86
		c0-1.429,1.158-2.587,2.586-2.587l0,0c1.429,0,2.587,1.158,2.587,2.587V252.378z"/>
	<path fill="#222323" d="M616.173,285.663c0,1.429-1.158,2.587-2.587,2.587l0,0c-1.429,0-2.586-1.158-2.586-2.587v-18.518
		c0-1.429,1.158-2.587,2.586-2.587l0,0c1.429,0,2.587,1.158,2.587,2.587V285.663z"/>
</g>
<g>
	<path fill="#040000" d="M892.886,272.449c-6.262,0-11.339-5.076-11.339-11.34c0-6.262,5.077-11.338,11.339-11.338
		c6.263,0,11.34,5.076,11.34,11.338C904.226,267.373,899.148,272.449,892.886,272.449"/>
	<path fill="#E4E4E4" d="M892.886,269.123c-4.426,0-8.014-3.588-8.014-8.014s3.588-8.014,8.014-8.014
		c4.427,0,8.015,3.588,8.015,8.014S897.313,269.123,892.886,269.123"/>
	<circle fill="none" stroke="#BCBCBC" stroke-width="2" stroke-miterlimit="10" cx="892.886" cy="261.109" r="8.014"/>
	<path fill="#040000" d="M892.886,264.607c-1.932,0-3.497-1.566-3.497-3.498s1.565-3.498,3.497-3.498
		c1.933,0,3.497,1.566,3.497,3.498S894.818,264.607,892.886,264.607"/>
	<path fill="#040000" d="M892.886,243.355c-6.262,0-11.339-5.076-11.339-11.338s5.077-11.338,11.339-11.338
		c6.263,0,11.34,5.076,11.34,11.338S899.148,243.355,892.886,243.355"/>
	<path fill="#AB2D24" d="M892.886,240.031c-4.426,0-8.014-3.588-8.014-8.014c0-4.428,3.588-8.016,8.014-8.016
		c4.427,0,8.015,3.588,8.015,8.016C900.9,236.443,897.313,240.031,892.886,240.031"/>
	<circle fill="none" stroke="#BCBCBC" stroke-width="2" stroke-miterlimit="10" cx="892.886" cy="232.017" r="8.015"/>
	<path fill="#040000" d="M892.886,235.516c-1.932,0-3.497-1.566-3.497-3.498s1.565-3.498,3.497-3.498
		c1.933,0,3.497,1.566,3.497,3.498S894.818,235.516,892.886,235.516"/>
</g>
<path fill="#040000" d="M881.547,202.652c0-6.262,5.076-11.339,11.34-11.339c6.262,0,11.338,5.077,11.338,11.339
	c0,6.263-5.076,11.34-11.338,11.34C886.623,213.992,881.547,208.915,881.547,202.652"/>
<path fill="#004C8F" d="M884.872,202.652c0-4.426,3.588-8.014,8.014-8.014s8.015,3.588,8.015,8.014c0,4.427-3.589,8.015-8.015,8.015
	S884.872,207.079,884.872,202.652"/>
<circle fill="none" stroke="#BCBCBC" stroke-width="2" stroke-miterlimit="10" cx="892.886" cy="202.652" r="8.014"/>
<path fill="#040000" d="M889.389,202.652c0-1.932,1.565-3.496,3.497-3.496s3.498,1.564,3.498,3.496c0,1.933-1.566,3.497-3.498,3.497
	S889.389,204.585,889.389,202.652"/>
<rect x="1101.623" y="155.125" fill="#7C7C7D" width="3.99" height="146.75"/>
<rect x="1047.02" y="155.125" fill="#7C7C7D" width="3.99" height="146.75"/>
<rect x="1068.582" y="155.125" fill="#7C7C7D" width="3.99" height="146.75"/>
<rect x="1126.118" y="155.125" fill="#7C7C7D" width="3.99" height="146.75"/>
<rect x="1157.932" y="155.125" fill="#7C7C7D" width="3.99" height="146.75"/>
<rect x="1180.425" y="155.125" fill="#7C7C7D" width="3.99" height="146.75"/>
</svg>
