<?xml version="1.0" encoding="utf-8"?>
<!-- Generator: Adobe Illustrator 16.0.0, SVG Export Plug-In . SVG Version: 6.00 Build 0)  -->
<!DOCTYPE svg PUBLIC "-//W3C//DTD SVG 1.1//EN" "http://www.w3.org/Graphics/SVG/1.1/DTD/svg11.dtd">
<svg version="1.1" id="图层_1" xmlns="http://www.w3.org/2000/svg" xmlns:xlink="http://www.w3.org/1999/xlink" x="0px" y="0px"
	 width="1275.59px" height="126.14px" viewBox="0 0 1275.59 126.14" enable-background="new 0 0 1275.59 126.14"
	 xml:space="preserve">
<path fill="#383838" d="M1275.59,117.541c0,4.749-3.85,8.601-8.602,8.601H8.599C3.85,126.142,0,122.29,0,117.541V8.601
	C0,3.853,3.85,0,8.599,0h1258.39c4.752,0,8.602,3.853,8.602,8.601V117.541z"/>
<path fill="none" stroke="#040000" stroke-miterlimit="10" d="M477.873,116.656c0,2.234-1.771,4.046-3.957,4.046H18.852
	c-2.186,0-3.957-1.812-3.957-4.046V12.15c0-2.234,1.771-4.045,3.957-4.045h455.063c2.186,0,3.957,1.811,3.957,4.045V116.656z"/>
<linearGradient id="SVGID_1_" gradientUnits="userSpaceOnUse" x1="894.1641" y1="63.0708" x2="1273.3776" y2="63.0708">
	<stop  offset="0" style="stop-color:#141515"/>
	<stop  offset="0.1276" style="stop-color:#413E3D"/>
</linearGradient>
<path fill="url(#SVGID_1_)" d="M1266.988,0H895.85v126.142h371.139c4.752,0,8.602-3.852,8.602-8.601V8.601
	C1275.59,3.853,1271.74,0,1266.988,0z"/>
<linearGradient id="SVGID_2_" gradientUnits="userSpaceOnUse" x1="-3262.4502" y1="63.0708" x2="-3119.8318" y2="63.0708" gradientTransform="matrix(-1 0 0 1 -3119 0)">
	<stop  offset="0" style="stop-color:#141515"/>
	<stop  offset="0.1837" style="stop-color:#413E3D"/>
</linearGradient>
<path fill="url(#SVGID_2_)" d="M5.999,0h136.817v126.142H5.999c-3.313,0-5.999-3.852-5.999-8.601V8.601C0,3.853,2.686,0,5.999,0z"/>
<g>
	<circle fill="#040000" cx="1245.204" cy="30.135" r="15.544"/>
	<path fill="#2A2C2D" stroke="#040000" stroke-width="0.5" stroke-miterlimit="10" d="M1258.758,29.9
		c0.131,7.486-5.832,13.661-13.316,13.791c-7.488,0.13-13.66-5.833-13.791-13.319c-0.129-7.484,5.832-13.661,13.318-13.792
		S1258.629,22.412,1258.758,29.9"/>
	
		<rect x="1237.387" y="28.19" transform="matrix(0.9998 -0.0174 0.0174 0.9998 -0.3361 21.7037)" fill="#040000" width="15.635" height="3.894"/>
	
		<rect x="1237.387" y="28.19" transform="matrix(0.0174 0.9998 -0.9998 0.0174 1253.7175 -1215.4043)" fill="#040000" width="15.637" height="3.893"/>
</g>
<g>
	<circle fill="#040000" cx="1245.204" cy="96.006" r="15.544"/>
	<path fill="#2A2C2D" stroke="#040000" stroke-width="0.5" stroke-miterlimit="10" d="M1258.758,95.771
		c0.131,7.486-5.832,13.661-13.316,13.792c-7.488,0.13-13.66-5.833-13.791-13.32c-0.129-7.484,5.832-13.661,13.318-13.79
		C1252.455,82.32,1258.629,88.283,1258.758,95.771"/>
	
		<rect x="1237.387" y="94.061" transform="matrix(0.9998 -0.0174 0.0174 0.9998 -1.484 21.7137)" fill="#040000" width="15.635" height="3.893"/>
	
		<rect x="1237.386" y="94.06" transform="matrix(0.0174 0.9998 -0.9998 0.0174 1319.5801 -1150.6774)" fill="#040000" width="15.638" height="3.893"/>
</g>
<path fill="none" stroke="#040000" stroke-miterlimit="10" d="M895.85,116.656c0,2.234-1.6,4.046-3.572,4.046H481.445
	c-1.973,0-3.572-1.812-3.572-4.046V12.15c0-2.234,1.599-4.045,3.572-4.045h410.833c1.973,0,3.572,1.811,3.572,4.045V116.656z"/>
<text transform="matrix(0.9999 0 0 1 182.187 65.5996)" fill="#BC943A" font-family="'SimHei'" font-size="12.1362">PORT1</text>
<text transform="matrix(0.9999 0 0 1 249.687 65.5996)" fill="#BC943A" font-family="'SimHei'" font-size="12.1362">PORT2</text>
<text transform="matrix(0.9999 0 0 1 317.9453 65.5996)" fill="#BC943A" font-family="'SimHei'" font-size="12.1362">PORT3</text>
<text transform="matrix(0.9999 0 0 1 386.2036 65.5996)" fill="#BC943A" font-family="'SimHei'" font-size="12.1362">PORT4</text>
<text transform="matrix(0.9999 0 0 1 526.6079 71.668)" fill="#BC943A" font-family="'SimHei'" font-size="12.1362">COM1</text>
<text transform="matrix(0.9999 0 0 1 503.4233 82.8672)" fill="#BC943A" font-family="'SimHei'" font-size="9.232">TX</text>
<text transform="matrix(0.9999 0 0 1 482.8628 66.5908)" fill="#BC943A" font-family="'SimHei'" font-size="9.232">RX</text>
<text transform="matrix(0.9999 0 0 1 626.6196 71.668)" fill="#BC943A" font-family="'SimHei'" font-size="12.1362">COM2</text>
<text transform="matrix(0.9999 0 0 1 726.6309 71.668)" fill="#BC943A" font-family="'SimHei'" font-size="12.1362">COM3</text>
<text transform="matrix(0.9999 0 0 1 826.6426 71.668)" fill="#BC943A" font-family="'SimHei'" font-size="12.1362">COM4</text>
<circle fill="#BC943A" cx="495.926" cy="69.982" r="3.391"/>
<circle fill="#BC943A" cx="495.926" cy="79.442" r="3.391"/>
<text transform="matrix(0.9999 0 0 1 607.5464 82.8672)" fill="#BC943A" font-family="'SimHei'" font-size="9.232">TX</text>
<text transform="matrix(0.9999 0 0 1 586.9849 66.5908)" fill="#BC943A" font-family="'SimHei'" font-size="9.232">RX</text>
<circle fill="#BC943A" cx="600.049" cy="69.982" r="3.391"/>
<circle fill="#BC943A" cx="600.049" cy="79.442" r="3.391"/>
<text transform="matrix(0.9999 0 0 1 704.5352 82.8672)" fill="#BC943A" font-family="'SimHei'" font-size="9.232">TX</text>
<text transform="matrix(0.9999 0 0 1 683.9727 66.5908)" fill="#BC943A" font-family="'SimHei'" font-size="9.232">RX</text>
<circle fill="#BC943A" cx="697.038" cy="69.982" r="3.392"/>
<circle fill="#BC943A" cx="697.038" cy="79.442" r="3.392"/>
<text transform="matrix(0.9999 0 0 1 801.4609 82.8672)" fill="#BC943A" font-family="'SimHei'" font-size="9.232">TX</text>
<text transform="matrix(0.9999 0 0 1 780.8984 66.5908)" fill="#BC943A" font-family="'SimHei'" font-size="9.232">RX</text>
<circle fill="#BC943A" cx="793.962" cy="69.982" r="3.392"/>
<circle fill="#BC943A" cx="793.962" cy="79.442" r="3.392"/>
<path fill="#262626" d="M557.336,109.888c0,4.318-3.503,7.819-7.824,7.819s-7.823-3.501-7.823-7.819
	c0-4.319,3.502-7.822,7.823-7.822S557.336,105.568,557.336,109.888"/>
<circle fill="none" stroke="#131313" stroke-width="0.75" stroke-miterlimit="10" cx="549.513" cy="109.888" r="7.823"/>
<polygon fill="#040000" points="548.546,114.322 548.546,110.854 545.076,110.854 545.076,108.92 548.546,108.92 548.546,105.451 
	550.479,105.451 550.479,108.92 553.949,108.92 553.949,110.854 550.479,110.854 550.479,114.322 "/>
<path fill="#231815" d="M550.317,105.613v3.145v0.326h0.325h3.144v1.606h-3.144h-0.325v0.325v3.146h-1.607v-3.146v-0.325h-0.327
	h-3.144v-1.606h3.144h0.327v-0.326v-3.145H550.317z M550.642,105.287h-2.26v3.471h-3.47v2.258h3.47v3.471h2.26v-3.471h3.47v-2.258
	h-3.47V105.287z"/>
<path fill="#262626" d="M822.752,109.888c0,4.318-3.502,7.819-7.822,7.819s-7.824-3.501-7.824-7.819
	c0-4.319,3.504-7.822,7.824-7.822S822.752,105.568,822.752,109.888"/>
<circle fill="none" stroke="#131313" stroke-width="0.75" stroke-miterlimit="10" cx="814.929" cy="109.888" r="7.823"/>
<polygon fill="#040000" points="813.963,114.322 813.963,110.854 810.494,110.854 810.494,108.92 813.963,108.92 813.963,105.451 
	815.896,105.451 815.896,108.92 819.367,108.92 819.367,110.854 815.896,110.854 815.896,114.322 "/>
<path fill="#231815" d="M815.732,105.613v3.145v0.326h0.326h3.145v1.606h-3.145h-0.326v0.325v3.146h-1.605v-3.146v-0.325h-0.328
	h-3.143v-1.606h3.143h0.328v-0.326v-3.145H815.732z M816.059,105.287h-2.26v3.471h-3.469v2.258h3.469v3.471h2.26v-3.471h3.471
	v-2.258h-3.471V105.287z"/>
<path fill="#262626" d="M204.437,109.888c0,4.318-3.503,7.819-7.824,7.819s-7.823-3.501-7.823-7.819
	c0-4.319,3.502-7.822,7.823-7.822S204.437,105.568,204.437,109.888"/>
<circle fill="none" stroke="#131313" stroke-width="0.75" stroke-miterlimit="10" cx="196.614" cy="109.888" r="7.823"/>
<polygon fill="#040000" points="195.647,114.322 195.647,110.854 192.177,110.854 192.177,108.92 195.647,108.92 195.647,105.451 
	197.58,105.451 197.58,108.92 201.05,108.92 201.05,110.854 197.58,110.854 197.58,114.322 "/>
<path fill="#231815" d="M197.417,105.613v3.145v0.326h0.326h3.144v1.606h-3.144h-0.326v0.325v3.146h-1.607v-3.146v-0.325h-0.327
	h-3.144v-1.606h3.144h0.327v-0.326v-3.145H197.417z M197.743,105.287h-2.26v3.471h-3.47v2.258h3.47v3.471h2.26v-3.471h3.47v-2.258
	h-3.47V105.287z"/>
<path fill="#262626" d="M419.319,109.888c0,4.318-3.503,7.819-7.824,7.819c-4.321,0-7.823-3.501-7.823-7.819
	c0-4.319,3.502-7.822,7.823-7.822C415.815,102.065,419.319,105.568,419.319,109.888"/>
<circle fill="none" stroke="#131313" stroke-width="0.75" stroke-miterlimit="10" cx="411.496" cy="109.888" r="7.823"/>
<polygon fill="#040000" points="410.529,114.322 410.529,110.854 407.059,110.854 407.059,108.92 410.529,108.92 410.529,105.451 
	412.462,105.451 412.462,108.92 415.932,108.92 415.932,110.854 412.462,110.854 412.462,114.322 "/>
<path fill="#231815" d="M412.299,105.613v3.145v0.326h0.325h3.145v1.606h-3.145h-0.325v0.325v3.146h-1.607v-3.146v-0.325h-0.327
	h-3.144v-1.606h3.144h0.327v-0.326v-3.145H412.299z M412.625,105.287h-2.259v3.471h-3.47v2.258h3.47v3.471h2.259v-3.471h3.47v-2.258
	h-3.47V105.287z"/>
<path fill="#262626" d="M465.948,24.559c0,4.318-3.503,7.82-7.824,7.82c-4.321,0-7.823-3.502-7.823-7.82
	c0-4.322,3.502-7.824,7.823-7.824C462.444,16.735,465.948,20.237,465.948,24.559"/>
<circle fill="none" stroke="#131313" stroke-width="0.75" stroke-miterlimit="10" cx="458.125" cy="24.559" r="7.823"/>
<polygon fill="#040000" points="457.158,28.994 457.158,25.523 453.688,25.523 453.688,23.591 457.158,23.591 457.158,20.121 
	459.091,20.121 459.091,23.591 462.561,23.591 462.561,25.523 459.091,25.523 459.091,28.994 "/>
<path fill="#231815" d="M458.928,20.285v3.143v0.326h0.325h3.145v1.608h-3.145h-0.325v0.326v3.144h-1.607v-3.144v-0.326h-0.327
	h-3.144v-1.608h3.144h0.327v-0.326v-3.143H458.928z M459.253,19.958h-2.259v3.469h-3.47v2.26h3.47v3.47h2.259v-3.47h3.47v-2.26
	h-3.47V19.958z"/>
</svg>
