<?xml version="1.0" encoding="utf-8"?>
<!-- Generator: Adobe Illustrator 16.0.0, SVG Export Plug-In . SVG Version: 6.00 Build 0)  -->
<!DOCTYPE svg PUBLIC "-//W3C//DTD SVG 1.1//EN" "http://www.w3.org/Graphics/SVG/1.1/DTD/svg11.dtd">
<svg version="1.1" id="图层_1" xmlns="http://www.w3.org/2000/svg" xmlns:xlink="http://www.w3.org/1999/xlink" x="0px" y="0px"
	 width="28.346px" height="28.347px" viewBox="0 0 28.346 28.347" enable-background="new 0 0 28.346 28.347" xml:space="preserve">
<g>
	<path fill="#231815" d="M28.346,14.174c0,7.828-6.345,14.173-14.171,14.173C6.348,28.347,0,22.002,0,14.174
		C0,6.347,6.348,0,14.175,0C22.001,0,28.346,6.347,28.346,14.174"/>
	<path fill="#898989" d="M27.089,14.174c0,7.134-5.782,12.915-12.914,12.915c-7.133,0-12.918-5.781-12.918-12.915
		c0-7.133,5.785-12.916,12.918-12.916C21.307,1.258,27.089,7.041,27.089,14.174"/>
	<path fill="#231815" d="M26.528,14.174c0,6.824-5.531,12.355-12.353,12.355c-6.824,0-12.358-5.531-12.358-12.355
		c0-6.823,5.534-12.355,12.358-12.355C20.997,1.818,26.528,7.351,26.528,14.174"/>
	<path fill="#745B94" d="M24.856,18.214c0.477-1.258,0.748-2.615,0.748-4.04c0-5.477-3.854-10.05-8.995-11.166v2.966h-4.873V3.009
		C6.595,4.127,2.74,8.698,2.74,14.174c0,1.425,0.272,2.782,0.748,4.04h2.515v3.948c2.076,2.123,4.969,3.443,8.172,3.443
		c3.202,0,6.093-1.32,8.168-3.441v-3.95H24.856z"/>
	<path fill="#231815" d="M10.643,8.546c0,1.048-0.85,1.897-1.898,1.897c-1.048,0-1.897-0.85-1.897-1.897
		c0-1.049,0.85-1.898,1.897-1.898C9.793,6.647,10.643,7.497,10.643,8.546"/>
	<path fill="#231815" d="M8.772,14.395c0,1.049-0.85,1.898-1.897,1.898c-1.049,0-1.898-0.85-1.898-1.898
		c0-1.048,0.85-1.897,1.898-1.897C7.923,12.497,8.772,13.347,8.772,14.395"/>
	<path fill="#231815" d="M21.193,8.546c0,1.048-0.85,1.897-1.897,1.897s-1.898-0.85-1.898-1.897c0-1.049,0.851-1.898,1.898-1.898
		S21.193,7.497,21.193,8.546"/>
	<path fill="#231815" d="M12.479,20.572c0,1.048-0.851,1.898-1.898,1.898s-1.897-0.851-1.897-1.898s0.85-1.897,1.897-1.897
		S12.479,19.524,12.479,20.572"/>
	<path fill="#231815" d="M19.357,20.572c0,1.048-0.85,1.898-1.897,1.898s-1.898-0.851-1.898-1.898s0.851-1.897,1.898-1.897
		S19.357,19.524,19.357,20.572"/>
	<path fill="#231815" d="M23.369,14.395c0,1.049-0.851,1.898-1.898,1.898s-1.897-0.85-1.897-1.898c0-1.048,0.85-1.897,1.897-1.897
		S23.369,13.347,23.369,14.395"/>
	<rect x="12.176" y="7.764" fill="#231815" width="3.994" height="6.096"/>
</g>
</svg>
