<?xml version="1.0" encoding="utf-8"?>
<!-- Generator: Adobe Illustrator 16.0.0, SVG Export Plug-In . SVG Version: 6.00 Build 0)  -->
<!DOCTYPE svg PUBLIC "-//W3C//DTD SVG 1.1//EN" "http://www.w3.org/Graphics/SVG/1.1/DTD/svg11.dtd">
<svg version="1.1" id="图层_1" xmlns="http://www.w3.org/2000/svg" xmlns:xlink="http://www.w3.org/1999/xlink" x="0px" y="0px"
	 width="73.5px" height="50.833px" viewBox="0 0 73.5 50.833" enable-background="new 0 0 73.5 50.833" xml:space="preserve">
<g>
	<path fill="#3D3A39" d="M72.451,47.313c0,1.37-1.271,2.48-2.836,2.48H4.064c-1.566,0-2.836-1.11-2.836-2.48V3.59
		c0-1.37,1.27-2.48,2.836-2.48h65.551c1.565,0,2.836,1.11,2.836,2.48V47.313z"/>
	<path fill="none" stroke="#000000" stroke-width="2" stroke-miterlimit="10" d="M72.451,47.313c0,1.37-1.271,2.48-2.836,2.48H4.064
		c-1.566,0-2.836-1.11-2.836-2.48V3.59c0-1.37,1.27-2.48,2.836-2.48h65.551c1.565,0,2.836,1.11,2.836,2.48V47.313z"/>
	<polygon fill="#221714" points="12.25,41.514 12.25,17.417 21.574,9.388 52.385,9.388 61.429,17.787 61.429,41.514 	"/>
	<rect x="48.146" y="23.536" fill="#353741" width="3.108" height="9.142"/>
	<rect x="48.146" y="25.142" fill="#8B8F99" width="1.553" height="7.536"/>
	<rect x="34.577" y="17.851" fill="#353741" width="3.108" height="9.146"/>
	<rect x="34.577" y="19.457" fill="#8B8F99" width="1.556" height="7.539"/>
	<rect x="21.013" y="23.536" fill="#353741" width="3.108" height="9.142"/>
	<rect x="21.013" y="25.142" fill="#8B8F99" width="1.553" height="7.536"/>
</g>
</svg>
