<?xml version="1.0" encoding="utf-8"?>
<!-- Generator: Adobe Illustrator 16.0.0, SVG Export Plug-In . SVG Version: 6.00 Build 0)  -->
<!DOCTYPE svg PUBLIC "-//W3C//DTD SVG 1.1//EN" "http://www.w3.org/Graphics/SVG/1.1/DTD/svg11.dtd">
<svg version="1.1" id="图层_1" xmlns="http://www.w3.org/2000/svg" xmlns:xlink="http://www.w3.org/1999/xlink" x="0px" y="0px"
	 width="69.202px" height="70.818px" viewBox="0 0 69.202 70.818" enable-background="new 0 0 69.202 70.818" xml:space="preserve">
<g>
	<g>
		<path fill="#CBCBCB" d="M63.696,23.154H5.824c-2.266,0-4.127-1.791-4.214-4.056L1.127,6.375C1.035,3.984,2.948,1.999,5.34,1.999
			h58.842c2.393,0,4.303,1.985,4.212,4.375l-0.482,12.724C67.826,21.364,65.964,23.154,63.696,23.154"/>
		<path fill="none" stroke="#BABAB9" stroke-miterlimit="10" d="M63.696,23.154H5.824c-2.266,0-4.127-1.791-4.214-4.056L1.127,6.375
			C1.035,3.984,2.948,1.999,5.34,1.999h58.842c2.393,0,4.303,1.985,4.212,4.375l-0.482,12.724
			C67.826,21.364,65.964,23.154,63.696,23.154z"/>
		<rect x="5.186" y="5.232" fill="#040000" width="4.425" height="4.387"/>
		<rect x="10.752" y="5.232" fill="#040000" width="4.426" height="4.387"/>
		<rect x="16.319" y="5.232" fill="#040000" width="4.426" height="4.387"/>
		<rect x="21.884" y="5.232" fill="#040000" width="4.428" height="4.387"/>
		<rect x="27.452" y="5.232" fill="#040000" width="4.426" height="4.387"/>
		<rect x="33.016" y="5.232" fill="#040000" width="4.428" height="4.387"/>
		<rect x="38.583" y="5.232" fill="#040000" width="4.428" height="4.387"/>
		<rect x="44.15" y="5.232" fill="#040000" width="4.425" height="4.387"/>
		<rect x="5.186" y="10.615" fill="#040000" width="4.425" height="4.387"/>
		<rect x="10.752" y="10.615" fill="#040000" width="4.426" height="4.387"/>
		<rect x="16.319" y="10.615" fill="#040000" width="4.426" height="4.387"/>
		<rect x="21.884" y="10.615" fill="#040000" width="4.428" height="4.387"/>
		<rect x="27.452" y="10.615" fill="#040000" width="4.426" height="4.387"/>
		<rect x="33.016" y="10.615" fill="#040000" width="4.428" height="4.387"/>
		<rect x="38.583" y="10.615" fill="#040000" width="4.428" height="4.387"/>
		<rect x="44.15" y="10.615" fill="#040000" width="4.425" height="4.387"/>
		<rect x="5.186" y="15.999" fill="#040000" width="4.425" height="4.387"/>
		<rect x="10.752" y="15.999" fill="#040000" width="4.426" height="4.387"/>
		<rect x="16.319" y="15.999" fill="#040000" width="4.426" height="4.387"/>
		<rect x="21.884" y="15.999" fill="#040000" width="4.428" height="4.387"/>
		<rect x="27.452" y="15.999" fill="#040000" width="4.426" height="4.387"/>
		<rect x="33.016" y="15.999" fill="#040000" width="4.428" height="4.387"/>
		<rect x="38.583" y="15.999" fill="#040000" width="4.428" height="4.387"/>
		<rect x="44.15" y="15.999" fill="#040000" width="4.425" height="4.387"/>
		<rect x="53.421" y="7.669" fill="#040000" width="3.15" height="3.123"/>
		<rect x="53.421" y="14.846" fill="#040000" width="3.15" height="3.125"/>
		<rect x="60.729" y="7.669" fill="#040000" width="3.152" height="3.123"/>
		<rect x="60.729" y="14.846" fill="#040000" width="3.152" height="3.125"/>
		<rect x="51.976" y="12.057" fill="#040000" width="13.348" height="1.528"/>
		<rect x="58.499" y="6.341" fill="#040000" width="0.302" height="12.959"/>
	</g>
	<g>
		<path fill="#60605E" d="M63.245,70.818H6.277C2.816,70.818,0,68.282,0,65.162V5.657C0,2.538,2.815,0,6.277,0h56.968
			c3.463,0,6.276,2.538,6.276,5.657v59.504C69.521,68.282,66.708,70.818,63.245,70.818z M6.277,1.002
			c-2.908,0-5.274,2.088-5.274,4.655v59.504c0,2.565,2.366,4.655,5.274,4.655h56.968c2.908,0,5.275-2.091,5.275-4.655V5.657
			c0-2.566-2.367-4.655-5.275-4.655H6.277z"/>
	</g>
	<polygon fill="#393939" points="69.202,38.967 0.319,38.967 0.319,24.664 14.275,24.664 15.179,29.677 24.098,29.677 
		40.589,29.469 40.796,24.813 69.202,24.664 	"/>
	<g>
		<rect x="38.571" y="38.967" fill="#393939" width="7.779" height="16.118"/>
		<polygon fill="#393939" points="34.673,54.375 42.461,64.431 50.248,54.375 		"/>
	</g>
</g>
</svg>
