<?xml version="1.0" encoding="utf-8"?>
<!-- Generator: Adobe Illustrator 16.0.0, SVG Export Plug-In . SVG Version: 6.00 Build 0)  -->
<!DOCTYPE svg PUBLIC "-//W3C//DTD SVG 1.1//EN" "http://www.w3.org/Graphics/SVG/1.1/DTD/svg11.dtd">
<svg version="1.1" id="图层_1" xmlns="http://www.w3.org/2000/svg" xmlns:xlink="http://www.w3.org/1999/xlink" x="0px" y="0px"
	 width="50.833px" height="73.167px" viewBox="0 0 50.833 73.167" enable-background="new 0 0 50.833 73.167" xml:space="preserve">
<g>
	<path fill="#3D3A39" d="M47.367,1.006c1.37,0,2.48,1.271,2.48,2.836v65.551c0,1.566-1.11,2.836-2.48,2.836H3.644
		c-1.37,0-2.48-1.27-2.48-2.836V3.842c0-1.565,1.11-2.836,2.48-2.836H47.367z"/>
	<path fill="none" stroke="#000000" stroke-width="2" stroke-miterlimit="10" d="M47.367,1.006c1.37,0,2.48,1.271,2.48,2.836v65.551
		c0,1.566-1.11,2.836-2.48,2.836H3.644c-1.37,0-2.48-1.27-2.48-2.836V3.842c0-1.565,1.11-2.836,2.48-2.836H47.367z"/>
	<polygon fill="#221714" points="41.568,61.207 17.471,61.207 9.441,51.883 9.441,21.072 17.841,12.028 41.568,12.028 	"/>
	<rect x="23.59" y="22.202" fill="#353741" width="9.142" height="3.108"/>
	<rect x="25.196" y="23.758" fill="#8B8F99" width="7.536" height="1.553"/>
	<rect x="17.905" y="35.771" fill="#353741" width="9.146" height="3.108"/>
	<rect x="19.511" y="37.324" fill="#8B8F99" width="7.539" height="1.556"/>
	<rect x="23.59" y="49.336" fill="#353741" width="9.142" height="3.108"/>
	<rect x="25.196" y="50.891" fill="#8B8F99" width="7.536" height="1.553"/>
</g>
</svg>
