<?xml version="1.0" encoding="utf-8"?>
<!-- Generator: Adobe Illustrator 16.0.0, SVG Export Plug-In . SVG Version: 6.00 Build 0)  -->
<!DOCTYPE svg PUBLIC "-//W3C//DTD SVG 1.1//EN" "http://www.w3.org/Graphics/SVG/1.1/DTD/svg11.dtd">
<svg version="1.1" id="图层_1" xmlns="http://www.w3.org/2000/svg" xmlns:xlink="http://www.w3.org/1999/xlink" x="0px" y="0px"
	 width="1275.59px" height="126.14px" viewBox="0 0 1275.59 126.14" enable-background="new 0 0 1275.59 126.14"
	 xml:space="preserve">
<g>
	<rect y="0.001" fill="#CFD3D3" width="1275.589" height="126.142"/>
	<g>
		<rect fill="#2E2F30" width="63.57" height="126.143"/>
		<rect x="63.57" fill="#040000" width="3.454" height="126.143"/>
	</g>
	<g>
		<rect x="1212.019" y="0.001" fill="#2E2F30" width="63.57" height="126.142"/>
		<rect x="1208.564" y="0.001" fill="#040000" width="3.454" height="126.142"/>
	</g>
	<linearGradient id="SVGID_1_" gradientUnits="userSpaceOnUse" x1="637.7944" y1="12.4805" x2="637.7944" y2="0">
		<stop  offset="0" style="stop-color:#909393"/>
		<stop  offset="0.5161" style="stop-color:#CFD3D3"/>
		<stop  offset="1" style="stop-color:#909393"/>
	</linearGradient>
	<rect x="67.024" fill="url(#SVGID_1_)" width="1141.54" height="12.48"/>
	<rect x="67.024" y="12.479" fill="#545656" width="1141.54" height="2.459"/>
	<g>
		<g>
			<circle fill="#040000" cx="17.47" cy="21.605" r="13.979"/>
			<g>
				<circle fill="#E9E8E8" cx="17.344" cy="20.72" r="13.383"/>
				<g>
					<path fill="#AFAFAF" d="M25.103,27.678c-3.837,4.279-10.423,4.636-14.711,0.795C6.109,24.629,5.75,18.044,9.587,13.765
						c3.837-4.281,10.423-4.638,14.707-0.797C28.58,16.811,28.942,23.396,25.103,27.678"/>
					<path fill="none" stroke="#949394" stroke-miterlimit="10" d="M25.103,27.678c-3.837,4.279-10.423,4.636-14.711,0.795
						C6.109,24.629,5.75,18.044,9.587,13.765c3.837-4.281,10.423-4.638,14.707-0.797C28.58,16.811,28.942,23.396,25.103,27.678z"/>
					<g>
						<g>
							<defs>
								
									<rect id="SVGID_2_" x="7.52" y="10.908" transform="matrix(-0.7446 -0.6675 0.6675 -0.7446 16.4272 47.7261)" width="19.649" height="19.625"/>
							</defs>
							<clipPath id="SVGID_3_">
								<use xlink:href="#SVGID_2_"  overflow="visible"/>
							</clipPath>
							<path clip-path="url(#SVGID_3_)" fill="#BFBFBF" d="M24.657,27.277c-3.617,4.033-9.822,4.37-13.862,0.748
								c-4.037-3.62-4.38-9.828-0.765-13.861c3.62-4.034,9.828-4.371,13.867-0.749C27.933,17.035,28.274,23.242,24.657,27.277"/>
							<path clip-path="url(#SVGID_3_)" fill="#C1C1C1" d="M24.484,27.123c-3.531,3.938-9.593,4.266-13.536,0.73
								s-4.276-9.596-0.744-13.535c3.535-3.939,9.593-4.268,13.538-0.731C27.685,17.122,28.017,23.182,24.484,27.123"/>
							<path clip-path="url(#SVGID_3_)" fill="#C3C4C4" d="M24.313,26.968c-3.446,3.845-9.361,4.165-13.209,0.715
								c-3.851-3.451-4.174-9.366-0.729-13.21c3.448-3.846,9.363-4.165,13.212-0.715C27.437,17.209,27.761,23.124,24.313,26.968"/>
							<path clip-path="url(#SVGID_3_)" fill="#C5C6C6" d="M24.141,26.814c-3.361,3.748-9.131,4.062-12.883,0.695
								c-3.755-3.365-4.073-9.135-0.71-12.884c3.363-3.75,9.132-4.062,12.885-0.696C27.187,17.296,27.503,23.064,24.141,26.814"/>
							<path clip-path="url(#SVGID_3_)" fill="#C7C9C9" d="M23.969,26.66c-3.274,3.654-8.9,3.959-12.558,0.678
								c-3.658-3.279-3.966-8.902-0.692-12.557c3.278-3.655,8.902-3.961,12.56-0.68C26.939,17.381,27.246,23.006,23.969,26.66"/>
							<path clip-path="url(#SVGID_3_)" fill="#CACBCB" d="M23.796,26.506c-3.191,3.56-8.667,3.856-12.232,0.661
								c-3.561-3.196-3.861-8.673-0.672-12.231c3.193-3.562,8.671-3.856,12.234-0.662C26.689,17.47,26.989,22.945,23.796,26.506"/>
							<path clip-path="url(#SVGID_3_)" fill="#CCCECE" d="M23.625,26.352c-3.105,3.465-8.437,3.753-11.907,0.644
								c-3.469-3.111-3.761-8.441-0.654-11.906c3.107-3.465,8.439-3.754,11.907-0.644C26.441,17.554,26.733,22.886,23.625,26.352"/>
							<path clip-path="url(#SVGID_3_)" fill="#CED0D0" d="M23.452,26.197c-3.018,3.369-8.206,3.65-11.579,0.626
								c-3.372-3.024-3.657-8.211-0.636-11.58c3.022-3.371,8.207-3.65,11.581-0.626C26.188,17.641,26.474,22.827,23.452,26.197"/>
							<path clip-path="url(#SVGID_3_)" fill="#D1D3D3" d="M23.282,26.043c-2.938,3.274-7.974,3.549-11.255,0.608
								c-3.276-2.939-3.555-7.979-0.619-11.254c2.938-3.275,7.977-3.548,11.254-0.608C25.942,17.729,26.22,22.767,23.282,26.043"/>
							<path clip-path="url(#SVGID_3_)" fill="#D3D5D5" d="M23.108,25.889c-2.852,3.181-7.744,3.444-10.927,0.591
								c-3.183-2.855-3.453-7.748-0.6-10.928c2.851-3.181,7.743-3.446,10.928-0.59C25.692,17.815,25.961,22.708,23.108,25.889"/>
						</g>
					</g>
					<polygon fill="#5F5F5E" points="12.453,24.257 15.534,20.817 12.092,17.732 13.803,15.822 17.246,18.91 20.33,15.471 
						22.239,17.184 19.156,20.622 22.598,23.708 20.887,25.617 17.444,22.53 14.363,25.97 					"/>
					<path fill="#231815" d="M21.925,17.2l-2.787,3.108l-0.295,0.331l0.333,0.295l3.109,2.79l-1.415,1.578l-3.112-2.79l-0.331-0.296
						l-0.297,0.33l-2.789,3.109l-1.578-1.416l2.787-3.109l0.295-0.331l-0.33-0.296l-3.109-2.79l1.415-1.576l3.109,2.787l0.333,0.298
						l0.295-0.331l2.787-3.107L21.925,17.2z M22.554,17.167l-2.243-2.01l-3.083,3.438l-3.442-3.085l-2.006,2.238l3.441,3.086
						l-3.083,3.438l2.241,2.01l3.084-3.438l3.438,3.086l2.009-2.239l-3.439-3.086L22.554,17.167z"/>
				</g>
			</g>
		</g>
		<g>
			<circle fill="#040000" cx="17.476" cy="104.186" r="13.979"/>
			<g>
				<circle fill="#E9E8E8" cx="17.35" cy="103.301" r="13.383"/>
				<g>
					<path fill="#AFAFAF" d="M25.109,110.258c-3.837,4.279-10.423,4.637-14.711,0.795c-4.283-3.844-4.642-10.428-0.805-14.707
						c3.837-4.281,10.423-4.639,14.707-0.797C28.585,99.391,28.948,105.977,25.109,110.258"/>
					<path fill="none" stroke="#949394" stroke-miterlimit="10" d="M25.109,110.258c-3.837,4.279-10.423,4.637-14.711,0.795
						c-4.283-3.844-4.642-10.428-0.805-14.707c3.837-4.281,10.423-4.639,14.707-0.797C28.585,99.391,28.948,105.977,25.109,110.258z
						"/>
					<g>
						<g>
							<defs>
								
									<rect id="SVGID_4_" x="7.527" y="93.488" transform="matrix(-0.7446 -0.6675 0.6675 -0.7446 -38.6864 191.7992)" width="19.648" height="19.625"/>
							</defs>
							<clipPath id="SVGID_5_">
								<use xlink:href="#SVGID_4_"  overflow="visible"/>
							</clipPath>
							<path clip-path="url(#SVGID_5_)" fill="#BFBFBF" d="M24.663,109.857c-3.617,4.033-9.823,4.371-13.862,0.748
								c-4.037-3.619-4.381-9.828-0.765-13.861c3.62-4.033,9.828-4.371,13.867-0.748C27.939,99.615,28.28,105.822,24.663,109.857"/>
							<path clip-path="url(#SVGID_5_)" fill="#C1C1C1" d="M24.49,109.703c-3.531,3.938-9.593,4.266-13.536,0.73
								c-3.943-3.535-4.276-9.596-0.744-13.535c3.535-3.939,9.593-4.268,13.538-0.73C27.69,99.703,28.022,105.762,24.49,109.703"/>
							<path clip-path="url(#SVGID_5_)" fill="#C3C4C4" d="M24.318,109.549c-3.446,3.844-9.361,4.164-13.208,0.715
								c-3.851-3.451-4.174-9.367-0.729-13.211c3.448-3.846,9.363-4.164,13.212-0.715C27.442,99.789,27.766,105.705,24.318,109.549"
								/>
							<path clip-path="url(#SVGID_5_)" fill="#C5C6C6" d="M24.146,109.395c-3.361,3.748-9.132,4.063-12.883,0.695
								c-3.755-3.365-4.073-9.135-0.711-12.883c3.364-3.75,9.133-4.063,12.885-0.697C27.192,99.877,27.509,105.645,24.146,109.395"
								/>
							<path clip-path="url(#SVGID_5_)" fill="#C7C9C9" d="M23.975,109.24c-3.274,3.654-8.9,3.959-12.558,0.678
								c-3.658-3.279-3.966-8.902-0.692-12.557c3.278-3.654,8.902-3.961,12.56-0.68C26.945,99.961,27.251,105.586,23.975,109.24"/>
							<path clip-path="url(#SVGID_5_)" fill="#CACBCB" d="M23.802,109.086c-3.19,3.561-8.666,3.857-12.232,0.662
								c-3.562-3.197-3.861-8.674-0.672-12.232c3.193-3.561,8.671-3.855,12.234-0.662C26.695,100.051,26.995,105.525,23.802,109.086
								"/>
							<path clip-path="url(#SVGID_5_)" fill="#CCCECE" d="M23.631,108.932c-3.105,3.465-8.437,3.754-11.907,0.645
								c-3.469-3.111-3.761-8.441-0.654-11.906c3.107-3.465,8.439-3.754,11.907-0.645C26.447,100.135,26.738,105.467,23.631,108.932
								"/>
							<path clip-path="url(#SVGID_5_)" fill="#CED0D0" d="M23.458,108.777c-3.018,3.369-8.206,3.65-11.579,0.627
								c-3.372-3.025-3.657-8.211-0.637-11.58c3.022-3.371,8.207-3.65,11.582-0.627C26.194,100.221,26.48,105.408,23.458,108.777"/>
							<path clip-path="url(#SVGID_5_)" fill="#D1D3D3" d="M23.288,108.623c-2.938,3.275-7.975,3.549-11.255,0.609
								c-3.277-2.939-3.555-7.979-0.619-11.254c2.938-3.275,7.977-3.549,11.254-0.609C25.948,100.309,26.226,105.348,23.288,108.623
								"/>
							<path clip-path="url(#SVGID_5_)" fill="#D3D5D5" d="M23.114,108.469c-2.852,3.182-7.744,3.445-10.927,0.592
								c-3.183-2.855-3.453-7.748-0.6-10.928c2.851-3.182,7.743-3.447,10.929-0.59C25.698,100.396,25.967,105.289,23.114,108.469"/>
						</g>
					</g>
					<polygon fill="#5F5F5E" points="12.458,106.838 15.54,103.398 12.098,100.313 13.809,98.402 17.252,101.49 20.335,98.051 
						22.245,99.764 19.162,103.203 22.604,106.289 20.893,108.197 17.45,105.111 14.369,108.551 					"/>
					<path fill="#231815" d="M21.931,99.781l-2.787,3.107l-0.296,0.332l0.333,0.295l3.109,2.789l-1.415,1.578l-3.111-2.789
						l-0.332-0.297l-0.296,0.33l-2.789,3.109l-1.577-1.416l2.787-3.109l0.295-0.33l-0.33-0.297l-3.109-2.789l1.415-1.576
						l3.109,2.787l0.333,0.297l0.296-0.33l2.787-3.107L21.931,99.781z M22.56,99.748l-2.244-2.01l-3.082,3.438l-3.443-3.086
						l-2.005,2.238l3.44,3.086l-3.083,3.439l2.241,2.01l3.084-3.439l3.438,3.086l2.009-2.238l-3.439-3.086L22.56,99.748z"/>
				</g>
			</g>
		</g>
	</g>
	<g>
		<g>
			<circle fill="#040000" cx="1256.358" cy="22.167" r="13.979"/>
			<g>
				<circle fill="#E9E8E8" cx="1256.232" cy="21.281" r="13.383"/>
				<g>
					<path fill="#AFAFAF" d="M1263.992,28.239c-3.838,4.279-10.424,4.636-14.712,0.795c-4.282-3.844-4.643-10.429-0.805-14.708
						c3.837-4.281,10.423-4.638,14.706-0.797C1267.468,17.372,1267.831,23.957,1263.992,28.239"/>
					<path fill="none" stroke="#949394" stroke-miterlimit="10" d="M1263.992,28.239c-3.838,4.279-10.424,4.636-14.712,0.795
						c-4.282-3.844-4.643-10.429-0.805-14.708c3.837-4.281,10.423-4.638,14.706-0.797
						C1267.468,17.372,1267.831,23.957,1263.992,28.239z"/>
					<g>
						<g>
							<defs>
								
									<rect id="SVGID_6_" x="1246.409" y="11.469" transform="matrix(-0.7446 -0.6675 0.6675 -0.7446 2177.3867 875.7114)" width="19.649" height="19.625"/>
							</defs>
							<clipPath id="SVGID_7_">
								<use xlink:href="#SVGID_6_"  overflow="visible"/>
							</clipPath>
							<path clip-path="url(#SVGID_7_)" fill="#BFBFBF" d="M1263.545,27.839c-3.617,4.033-9.822,4.37-13.861,0.748
								c-4.037-3.62-4.381-9.828-0.766-13.861c3.62-4.034,9.828-4.371,13.867-0.749
								C1266.822,17.597,1267.163,23.804,1263.545,27.839"/>
							<path clip-path="url(#SVGID_7_)" fill="#C1C1C1" d="M1263.372,27.685c-3.53,3.938-9.593,4.266-13.536,0.73
								c-3.942-3.535-4.275-9.596-0.744-13.535c3.536-3.939,9.594-4.268,13.538-0.731
								C1266.573,17.684,1266.905,23.743,1263.372,27.685"/>
							<path clip-path="url(#SVGID_7_)" fill="#C3C4C4" d="M1263.2,27.529c-3.446,3.845-9.36,4.165-13.208,0.715
								c-3.851-3.451-4.175-9.366-0.729-13.21c3.448-3.846,9.363-4.165,13.212-0.715C1266.325,17.771,1266.648,23.686,1263.2,27.529
								"/>
							<path clip-path="url(#SVGID_7_)" fill="#C5C6C6" d="M1263.029,27.376c-3.361,3.748-9.132,4.062-12.883,0.695
								c-3.755-3.365-4.073-9.135-0.711-12.884c3.363-3.75,9.133-4.062,12.885-0.696
								C1266.075,17.857,1266.392,23.626,1263.029,27.376"/>
							<path clip-path="url(#SVGID_7_)" fill="#C7C9C9" d="M1262.857,27.222c-3.274,3.654-8.9,3.959-12.559,0.678
								c-3.657-3.279-3.965-8.902-0.691-12.557c3.277-3.655,8.902-3.961,12.56-0.68
								C1265.827,17.942,1266.134,23.567,1262.857,27.222"/>
							<path clip-path="url(#SVGID_7_)" fill="#CACBCB" d="M1262.685,27.067c-3.19,3.56-8.667,3.856-12.232,0.661
								c-3.561-3.196-3.86-8.673-0.672-12.231c3.192-3.562,8.671-3.856,12.234-0.662
								C1265.578,18.031,1265.878,23.507,1262.685,27.067"/>
							<path clip-path="url(#SVGID_7_)" fill="#CCCECE" d="M1262.514,26.913c-3.104,3.465-8.437,3.753-11.907,0.644
								c-3.469-3.111-3.761-8.441-0.653-11.906c3.106-3.465,8.439-3.754,11.907-0.644
								C1265.33,18.115,1265.621,23.447,1262.514,26.913"/>
							<path clip-path="url(#SVGID_7_)" fill="#CED0D0" d="M1262.34,26.759c-3.018,3.369-8.205,3.65-11.579,0.626
								c-3.372-3.024-3.657-8.211-0.636-11.58c3.021-3.371,8.206-3.65,11.581-0.626C1265.077,18.202,1265.362,23.389,1262.34,26.759
								"/>
							<path clip-path="url(#SVGID_7_)" fill="#D1D3D3" d="M1262.171,26.604c-2.938,3.274-7.975,3.549-11.256,0.608
								c-3.276-2.939-3.555-7.979-0.619-11.254c2.938-3.275,7.977-3.548,11.255-0.608
								C1264.83,18.29,1265.108,23.328,1262.171,26.604"/>
							<path clip-path="url(#SVGID_7_)" fill="#D3D5D5" d="M1261.997,26.45c-2.853,3.181-7.744,3.444-10.928,0.591
								c-3.183-2.855-3.452-7.748-0.6-10.928c2.851-3.181,7.743-3.446,10.929-0.59C1264.58,18.377,1264.85,23.27,1261.997,26.45"/>
						</g>
					</g>
					<polygon fill="#5F5F5E" points="1251.342,24.818 1254.422,21.379 1250.98,18.294 1252.691,16.384 1256.135,19.472 
						1259.218,16.032 1261.128,17.745 1258.045,21.184 1261.486,24.27 1259.775,26.179 1256.332,23.092 1253.251,26.531 					"/>
					<path fill="#231815" d="M1260.813,17.762l-2.786,3.108l-0.296,0.331l0.333,0.295l3.108,2.79l-1.414,1.578l-3.111-2.79
						l-0.332-0.296l-0.296,0.33l-2.789,3.109l-1.578-1.416l2.787-3.109l0.296-0.331l-0.33-0.296l-3.11-2.79l1.415-1.576l3.109,2.787
						l0.333,0.298l0.295-0.331l2.787-3.107L1260.813,17.762z M1261.442,17.729l-2.243-2.01l-3.082,3.438l-3.443-3.085l-2.005,2.238
						l3.44,3.086l-3.083,3.438l2.241,2.01l3.084-3.438l3.438,3.086l2.009-2.239l-3.439-3.086L1261.442,17.729z"/>
				</g>
			</g>
		</g>
		<g>
			<circle fill="#040000" cx="1256.364" cy="104.748" r="13.979"/>
			<g>
				<circle fill="#E9E8E8" cx="1256.239" cy="103.861" r="13.383"/>
				<g>
					<path fill="#AFAFAF" d="M1263.997,110.82c-3.837,4.279-10.423,4.635-14.711,0.795c-4.283-3.844-4.643-10.43-0.806-14.709
						c3.838-4.281,10.424-4.637,14.707-0.797C1267.474,99.953,1267.836,106.537,1263.997,110.82"/>
					<path fill="none" stroke="#949394" stroke-miterlimit="10" d="M1263.997,110.82c-3.837,4.279-10.423,4.635-14.711,0.795
						c-4.283-3.844-4.643-10.43-0.806-14.709c3.838-4.281,10.424-4.637,14.707-0.797
						C1267.474,99.953,1267.836,106.537,1263.997,110.82z"/>
					<g>
						<g>
							<defs>
								
									<rect id="SVGID_8_" x="1246.414" y="94.05" transform="matrix(-0.7446 -0.6676 0.6676 -0.7446 2122.2363 1019.8149)" width="19.649" height="19.624"/>
							</defs>
							<clipPath id="SVGID_9_">
								<use xlink:href="#SVGID_8_"  overflow="visible"/>
							</clipPath>
							<path clip-path="url(#SVGID_9_)" fill="#BFBFBF" d="M1263.551,110.42c-3.617,4.033-9.822,4.369-13.862,0.748
								c-4.037-3.621-4.38-9.828-0.765-13.861c3.62-4.035,9.828-4.371,13.867-0.75
								C1266.827,100.178,1267.168,106.385,1263.551,110.42"/>
							<path clip-path="url(#SVGID_9_)" fill="#C1C1C1" d="M1263.378,110.266c-3.531,3.938-9.593,4.266-13.536,0.73
								c-3.942-3.535-4.275-9.596-0.744-13.535c3.535-3.939,9.593-4.268,13.538-0.732
								C1266.578,100.264,1266.911,106.324,1263.378,110.266"/>
							<path clip-path="url(#SVGID_9_)" fill="#C3C4C4" d="M1263.206,110.109c-3.446,3.846-9.36,4.166-13.209,0.715
								c-3.85-3.451-4.174-9.365-0.729-13.209c3.448-3.846,9.362-4.166,13.212-0.715
								C1266.331,100.352,1266.654,106.266,1263.206,110.109"/>
							<path clip-path="url(#SVGID_9_)" fill="#C5C6C6" d="M1263.034,109.957c-3.361,3.748-9.131,4.061-12.883,0.695
								c-3.754-3.365-4.072-9.135-0.71-12.885c3.363-3.75,9.133-4.061,12.885-0.695
								C1266.081,100.438,1266.397,106.207,1263.034,109.957"/>
							<path clip-path="url(#SVGID_9_)" fill="#C7C9C9" d="M1262.863,109.803c-3.274,3.654-8.9,3.959-12.559,0.678
								c-3.658-3.279-3.965-8.902-0.691-12.557c3.277-3.656,8.901-3.961,12.56-0.68
								C1265.833,100.523,1266.14,106.148,1262.863,109.803"/>
							<path clip-path="url(#SVGID_9_)" fill="#CACBCB" d="M1262.69,109.648c-3.191,3.559-8.667,3.855-12.232,0.66
								c-3.562-3.195-3.861-8.672-0.673-12.23c3.193-3.563,8.671-3.857,12.234-0.662S1265.883,106.088,1262.69,109.648"/>
							<path clip-path="url(#SVGID_9_)" fill="#CCCECE" d="M1262.52,109.494c-3.104,3.465-8.438,3.752-11.907,0.643
								c-3.469-3.111-3.761-8.441-0.653-11.906c3.106-3.465,8.438-3.754,11.906-0.643
								C1265.336,100.695,1265.627,106.027,1262.52,109.494"/>
							<path clip-path="url(#SVGID_9_)" fill="#CED0D0" d="M1262.346,109.34c-3.018,3.369-8.206,3.65-11.579,0.625
								c-3.372-3.023-3.657-8.211-0.637-11.58c3.022-3.371,8.207-3.65,11.581-0.625
								C1265.082,100.783,1265.368,105.969,1262.346,109.34"/>
							<path clip-path="url(#SVGID_9_)" fill="#D1D3D3" d="M1262.177,109.186c-2.938,3.273-7.975,3.549-11.256,0.607
								c-3.276-2.939-3.555-7.979-0.619-11.254c2.938-3.275,7.977-3.547,11.254-0.607
								C1264.836,100.871,1265.114,105.908,1262.177,109.186"/>
							<path clip-path="url(#SVGID_9_)" fill="#D3D5D5" d="M1262.002,109.031c-2.852,3.18-7.743,3.443-10.927,0.59
								c-3.183-2.855-3.452-7.748-0.6-10.928c2.851-3.18,7.743-3.445,10.929-0.59
								C1264.586,100.957,1264.855,105.85,1262.002,109.031"/>
						</g>
					</g>
					<polygon fill="#5F5F5E" points="1251.347,107.398 1254.428,103.959 1250.986,100.875 1252.697,98.965 1256.14,102.053 
						1259.224,98.613 1261.133,100.326 1258.05,103.764 1261.492,106.85 1259.781,108.76 1256.338,105.672 1253.257,109.111 					
						"/>
					<path fill="#231815" d="M1260.819,100.342l-2.786,3.109l-0.296,0.33l0.333,0.295l3.108,2.791l-1.414,1.578l-3.112-2.791
						l-0.33-0.295l-0.297,0.33l-2.789,3.109l-1.578-1.416l2.787-3.109l0.296-0.332l-0.331-0.295l-3.109-2.791l1.415-1.576
						l3.109,2.787l0.333,0.299l0.295-0.332l2.787-3.107L1260.819,100.342z M1261.448,100.309l-2.243-2.01l-3.082,3.438l-3.443-3.084
						l-2.005,2.238l3.44,3.086l-3.083,3.438l2.241,2.01l3.084-3.438l3.438,3.086l2.009-2.24l-3.439-3.086L1261.448,100.309z"/>
				</g>
			</g>
		</g>
	</g>
	<rect x="131.399" y="37.62" fill="#0D4178" width="65.122" height="46.999"/>
	<g>
		<linearGradient id="SVGID_10_" gradientUnits="userSpaceOnUse" x1="142.1177" y1="47.2759" x2="193.5957" y2="47.2759">
			<stop  offset="0" style="stop-color:#C2D8F0"/>
			<stop  offset="0.9946" style="stop-color:#036EB8"/>
		</linearGradient>
		<path fill="url(#SVGID_10_)" d="M193.596,47.276c0,1.051-1.122,1.903-2.507,1.903h-46.464c-1.384,0-2.507-0.853-2.507-1.903l0,0
			c0-1.053,1.123-1.904,2.507-1.904h46.464C192.474,45.372,193.596,46.224,193.596,47.276L193.596,47.276z"/>
		<linearGradient id="SVGID_11_" gradientUnits="userSpaceOnUse" x1="138.2212" y1="53.6821" x2="189.6992" y2="53.6821">
			<stop  offset="0" style="stop-color:#C2D8F0"/>
			<stop  offset="0.9946" style="stop-color:#036EB8"/>
		</linearGradient>
		<path fill="url(#SVGID_11_)" d="M189.699,53.683c0,1.052-1.122,1.903-2.507,1.903h-46.464c-1.384,0-2.507-0.852-2.507-1.903l0,0
			c0-1.052,1.123-1.904,2.507-1.904h46.464C188.577,51.778,189.699,52.631,189.699,53.683L189.699,53.683z"/>
		
			<linearGradient id="SVGID_12_" gradientUnits="userSpaceOnUse" x1="142.1177" y1="8709.4844" x2="193.5957" y2="8709.4844" gradientTransform="matrix(1 0 0 -1 0 8783)">
			<stop  offset="0" style="stop-color:#C2D8F0"/>
			<stop  offset="0.9946" style="stop-color:#036EB8"/>
		</linearGradient>
		<path fill="url(#SVGID_12_)" d="M193.596,73.516c0-1.051-1.122-1.902-2.507-1.902h-46.464c-1.384,0-2.507,0.852-2.507,1.902l0,0
			c0,1.053,1.123,1.904,2.507,1.904h46.464C192.474,75.42,193.596,74.568,193.596,73.516L193.596,73.516z"/>
		
			<linearGradient id="SVGID_13_" gradientUnits="userSpaceOnUse" x1="138.2212" y1="8715.8906" x2="189.6992" y2="8715.8906" gradientTransform="matrix(1 0 0 -1 0 8783)">
			<stop  offset="0" style="stop-color:#C2D8F0"/>
			<stop  offset="0.9946" style="stop-color:#036EB8"/>
		</linearGradient>
		<path fill="url(#SVGID_13_)" d="M189.699,67.109c0-1.051-1.122-1.904-2.507-1.904h-46.464c-1.384,0-2.507,0.854-2.507,1.904l0,0
			c0,1.053,1.123,1.904,2.507,1.904h46.464C188.577,69.014,189.699,68.162,189.699,67.109L189.699,67.109z"/>
		<linearGradient id="SVGID_14_" gradientUnits="userSpaceOnUse" x1="134.3247" y1="60.0884" x2="185.8027" y2="60.0884">
			<stop  offset="0" style="stop-color:#C2D8F0"/>
			<stop  offset="0.9946" style="stop-color:#036EB8"/>
		</linearGradient>
		<path fill="url(#SVGID_14_)" d="M185.803,60.089c0,1.052-1.122,1.903-2.507,1.903h-46.464c-1.384,0-2.507-0.852-2.507-1.903l0,0
			c0-1.052,1.123-1.904,2.507-1.904h46.464C184.681,58.185,185.803,59.037,185.803,60.089L185.803,60.089z"/>
	</g>
	<text transform="matrix(1 0 0 1 214.4937 82.0137)" font-family="'NotoSansHans-DemiLight-GBpc-EUC-H'" font-size="17.5764">网络安全隔离设备</text>
	<text transform="matrix(1 0 0 1 988.3965 82.0137)" font-family="'NotoSansHans-DemiLight-GBpc-EUC-H'" font-size="17.5764">中国电力科学研究院</text>
	
		<text transform="matrix(1 0 0 1 244.0015 52.4941)" fill="#841B21" font-family="'NotoSansHans-DemiLight-GBpc-EUC-H'" font-size="13.4826">stomc Wall-2000</text>
	<rect x="67.024" y="118.727" fill="#ADADAD" width="1139.94" height="7.414"/>
	<rect x="67.024" y="116.438" fill="#838484" width="1139.94" height="2.289"/>
	<g>
		<path fill="#070001" d="M535.862,70.479c3.866,0,7,3.135,7,7c0,3.867-3.134,7-7,7c-3.866,0-7-3.133-7-7
			C528.862,73.613,531.996,70.479,535.862,70.479"/>
		<g>
			<defs>
				<path id="SVGID_15_" d="M530.238,77.479c0,3.107,2.519,5.625,5.625,5.625c3.107,0,5.625-2.518,5.625-5.625
					c0-3.105-2.518-5.625-5.625-5.625C532.757,71.854,530.238,74.373,530.238,77.479"/>
			</defs>
			<clipPath id="SVGID_16_">
				<use xlink:href="#SVGID_15_"  overflow="visible"/>
			</clipPath>
			
				<radialGradient id="SVGID_17_" cx="-196.2271" cy="372.1748" r="1" gradientTransform="matrix(8.2859 0 0 8.2859 2160.4023 -3008.3281)" gradientUnits="userSpaceOnUse">
				<stop  offset="0" style="stop-color:#636262"/>
				<stop  offset="1" style="stop-color:#040000"/>
			</radialGradient>
			<rect x="530.238" y="71.854" clip-path="url(#SVGID_16_)" fill="url(#SVGID_17_)" width="11.25" height="11.25"/>
		</g>
		<g opacity="0.5" enable-background="new    ">
			<g>
				<defs>
					<rect id="SVGID_18_" x="533.238" y="74.229" width="1.874" height="1.875"/>
				</defs>
				<clipPath id="SVGID_19_">
					<use xlink:href="#SVGID_18_"  overflow="visible"/>
				</clipPath>
				<rect x="533.238" y="74.229" clip-path="url(#SVGID_19_)" fill="#FFFFFF" width="1.874" height="1.875"/>
			</g>
		</g>
		<g opacity="0.5" enable-background="new    ">
			<g>
				<defs>
					<rect id="SVGID_20_" x="533.238" y="74.229" width="0.937" height="1.875"/>
				</defs>
				<clipPath id="SVGID_21_">
					<use xlink:href="#SVGID_20_"  overflow="visible"/>
				</clipPath>
				<rect x="533.238" y="74.229" clip-path="url(#SVGID_21_)" fill="#FFFFFF" width="0.937" height="1.875"/>
			</g>
		</g>
	</g>
	<g>
		<path fill="#070001" d="M502.239,70.393c3.913,0,7.087,3.174,7.087,7.088c0,3.912-3.174,7.086-7.087,7.086
			c-3.914,0-7.088-3.174-7.088-7.086C495.151,73.566,498.325,70.393,502.239,70.393"/>
		<g>
			<defs>
				<path id="SVGID_22_" d="M496.546,77.48c0,3.145,2.55,5.693,5.693,5.693c3.146,0,5.694-2.549,5.694-5.693
					c0-3.146-2.548-5.695-5.694-5.695C499.096,71.785,496.546,74.334,496.546,77.48"/>
			</defs>
			<clipPath id="SVGID_23_">
				<use xlink:href="#SVGID_22_"  overflow="visible"/>
			</clipPath>
			
				<radialGradient id="SVGID_24_" cx="-205.1802" cy="372.041" r="1" gradientTransform="matrix(8.3884 0 0 8.3884 2221.9766 -3045.3828)" gradientUnits="userSpaceOnUse">
				<stop  offset="0" style="stop-color:#DE5939"/>
				<stop  offset="1" style="stop-color:#D71718"/>
			</radialGradient>
			<rect x="496.546" y="71.785" clip-path="url(#SVGID_23_)" fill="url(#SVGID_24_)" width="11.388" height="11.389"/>
		</g>
		<g opacity="0.5" enable-background="new    ">
			<g>
				<defs>
					<rect id="SVGID_25_" x="499.583" y="74.189" width="1.896" height="1.898"/>
				</defs>
				<clipPath id="SVGID_26_">
					<use xlink:href="#SVGID_25_"  overflow="visible"/>
				</clipPath>
				<rect x="499.583" y="74.189" clip-path="url(#SVGID_26_)" fill="#FFFFFF" width="1.896" height="1.896"/>
			</g>
		</g>
		<g opacity="0.5" enable-background="new    ">
			<g>
				<defs>
					<rect id="SVGID_27_" x="499.583" y="74.189" width="0.947" height="1.898"/>
				</defs>
				<clipPath id="SVGID_28_">
					<use xlink:href="#SVGID_27_"  overflow="visible"/>
				</clipPath>
				<rect x="499.583" y="74.189" clip-path="url(#SVGID_28_)" fill="#FFFFFF" width="0.948" height="1.896"/>
			</g>
		</g>
	</g>
	<g>
		<path fill="#070001" d="M668.761,70.479c3.865,0,7,3.135,7,7c0,3.867-3.135,7-7,7c-3.866,0-7-3.133-7-7
			C661.761,73.613,664.895,70.479,668.761,70.479"/>
		<g>
			<defs>
				<path id="SVGID_29_" d="M663.137,77.479c0,3.107,2.519,5.625,5.625,5.625s5.625-2.518,5.625-5.625
					c0-3.105-2.519-5.625-5.625-5.625S663.137,74.373,663.137,77.479"/>
			</defs>
			<clipPath id="SVGID_30_">
				<use xlink:href="#SVGID_29_"  overflow="visible"/>
			</clipPath>
			
				<radialGradient id="SVGID_31_" cx="-180.188" cy="372.1748" r="1" gradientTransform="matrix(8.2859 0 0 8.2859 2160.4023 -3008.3281)" gradientUnits="userSpaceOnUse">
				<stop  offset="0" style="stop-color:#636262"/>
				<stop  offset="1" style="stop-color:#040000"/>
			</radialGradient>
			<rect x="663.137" y="71.854" clip-path="url(#SVGID_30_)" fill="url(#SVGID_31_)" width="11.25" height="11.25"/>
		</g>
		<g opacity="0.5" enable-background="new    ">
			<g>
				<defs>
					<rect id="SVGID_32_" x="666.137" y="74.229" width="1.874" height="1.875"/>
				</defs>
				<clipPath id="SVGID_33_">
					<use xlink:href="#SVGID_32_"  overflow="visible"/>
				</clipPath>
				<rect x="666.137" y="74.229" clip-path="url(#SVGID_33_)" fill="#FFFFFF" width="1.874" height="1.875"/>
			</g>
		</g>
		<g opacity="0.5" enable-background="new    ">
			<g>
				<defs>
					<rect id="SVGID_34_" x="666.137" y="74.229" width="0.937" height="1.875"/>
				</defs>
				<clipPath id="SVGID_35_">
					<use xlink:href="#SVGID_34_"  overflow="visible"/>
				</clipPath>
				<rect x="666.137" y="74.229" clip-path="url(#SVGID_35_)" fill="#FFFFFF" width="0.937" height="1.875"/>
			</g>
		</g>
	</g>
	<circle fill="#E4EDB5" stroke="#101010" stroke-miterlimit="10" cx="606.471" cy="77.479" r="6.799"/>
	<circle fill="#E4EDB5" stroke="#101010" stroke-miterlimit="10" cx="637.46" cy="77.479" r="6.799"/>
	<polyline fill="none" stroke="#101010" stroke-miterlimit="10" points="607.471,67.104 607.471,51.772 668.471,51.772 
		668.074,67.104 	"/>
	<g>
		<path fill="#070001" d="M764.18,71.361c3.865,0,7,3.135,7,7c0,3.867-3.135,7-7,7c-3.866,0-7-3.133-7-7
			C757.18,74.496,760.313,71.361,764.18,71.361"/>
		<g>
			<defs>
				<path id="SVGID_36_" d="M758.556,78.361c0,3.107,2.52,5.625,5.625,5.625c3.106,0,5.625-2.518,5.625-5.625
					c0-3.105-2.519-5.625-5.625-5.625C761.075,72.736,758.556,75.256,758.556,78.361"/>
			</defs>
			<clipPath id="SVGID_37_">
				<use xlink:href="#SVGID_36_"  overflow="visible"/>
			</clipPath>
			
				<radialGradient id="SVGID_38_" cx="-168.6719" cy="372.2813" r="1" gradientTransform="matrix(8.2859 0 0 8.2859 2160.4023 -3008.3281)" gradientUnits="userSpaceOnUse">
				<stop  offset="0" style="stop-color:#636262"/>
				<stop  offset="1" style="stop-color:#040000"/>
			</radialGradient>
			<rect x="758.556" y="72.736" clip-path="url(#SVGID_37_)" fill="url(#SVGID_38_)" width="11.25" height="11.25"/>
		</g>
		<g opacity="0.5" enable-background="new    ">
			<g>
				<defs>
					<rect id="SVGID_39_" x="761.556" y="75.111" width="1.874" height="1.875"/>
				</defs>
				<clipPath id="SVGID_40_">
					<use xlink:href="#SVGID_39_"  overflow="visible"/>
				</clipPath>
				<rect x="761.556" y="75.111" clip-path="url(#SVGID_40_)" fill="#FFFFFF" width="1.874" height="1.875"/>
			</g>
		</g>
		<g opacity="0.5" enable-background="new    ">
			<g>
				<defs>
					<rect id="SVGID_41_" x="761.556" y="75.111" width="0.938" height="1.875"/>
				</defs>
				<clipPath id="SVGID_42_">
					<use xlink:href="#SVGID_41_"  overflow="visible"/>
				</clipPath>
				<rect x="761.556" y="75.111" clip-path="url(#SVGID_42_)" fill="#FFFFFF" width="0.938" height="1.875"/>
			</g>
		</g>
	</g>
	<circle fill="#E4EDB5" stroke="#101010" stroke-miterlimit="10" cx="701.89" cy="78.361" r="6.799"/>
	<circle fill="#E4EDB5" stroke="#101010" stroke-miterlimit="10" cx="732.879" cy="78.361" r="6.799"/>
	<circle fill="#74BB31" stroke="#101010" stroke-miterlimit="10" cx="803.098" cy="76.986" r="6.799"/>
	<polyline fill="none" stroke="#101010" stroke-miterlimit="10" points="702.891,67.986 702.891,52.655 763.891,52.655 
		763.493,67.986 	"/>
</g>
</svg>
