<?xml version="1.0" encoding="utf-8"?>
<!-- Generator: Adobe Illustrator 16.0.0, SVG Export Plug-In . SVG Version: 6.00 Build 0)  -->
<!DOCTYPE svg PUBLIC "-//W3C//DTD SVG 1.1//EN" "http://www.w3.org/Graphics/SVG/1.1/DTD/svg11.dtd">
<svg version="1.1" id="图层_1" xmlns="http://www.w3.org/2000/svg" xmlns:xlink="http://www.w3.org/1999/xlink" x="0px" y="0px"
	 width="1275.59px" height="126.76px" viewBox="0 0 1275.59 126.76" enable-background="new 0 0 1275.59 126.76"
	 xml:space="preserve">
<g>
	<rect y="0.617" fill="#3B3C3F" width="1275.589" height="126.143"/>
</g>
<linearGradient id="SVGID_1_" gradientUnits="userSpaceOnUse" x1="40.9971" y1="32.1528" x2="1233.3467" y2="32.1528">
	<stop  offset="0" style="stop-color:#3B3C3F"/>
	<stop  offset="0.172" style="stop-color:#36373A"/>
	<stop  offset="0.2043" style="stop-color:#2A2B2E"/>
	<stop  offset="0.2473" style="stop-color:#3B3C3F"/>
	<stop  offset="0.7742" style="stop-color:#47474A"/>
	<stop  offset="0.8118" style="stop-color:#2F3134"/>
	<stop  offset="0.8333" style="stop-color:#393A3D"/>
	<stop  offset="1" style="stop-color:#3B3C3F"/>
</linearGradient>
<path fill="url(#SVGID_1_)" d="M1233.347,54.688c0,4.971-5.146,9-11.496,9H52.494c-6.349,0-11.497-4.029-11.497-9V9.617
	c0-4.971,5.148-9,11.497-9h1169.356c6.35,0,11.496,4.029,11.496,9V54.688z"/>
<linearGradient id="SVGID_2_" gradientUnits="userSpaceOnUse" x1="644.9229" y1="-2.874" x2="644.9229" y2="65.8569">
	<stop  offset="0" style="stop-color:#2B2D30"/>
	<stop  offset="0.2043" style="stop-color:#3D3E41"/>
	<stop  offset="0.3172" style="stop-color:#555658"/>
	<stop  offset="0.4194" style="stop-color:#37393B"/>
	<stop  offset="0.9032" style="stop-color:#343538"/>
	<stop  offset="0.9462" style="stop-color:#242629"/>
</linearGradient>
<path fill="url(#SVGID_2_)" d="M1002.101,55.306c0,4.971-4.398,9-9.828,9H297.571c-5.428,0-9.827-4.029-9.827-9V9.002
	c0-4.972,4.399-9,9.827-9h694.701c5.43,0,9.828,4.028,9.828,9V55.306z"/>
<rect y="63.688" fill="#0B0A0A" width="1275.589" height="2.937"/>
<path fill="#3B3C3F" stroke="#040000" stroke-width="3" stroke-miterlimit="10" d="M934.607,58.834c0,4.97-4.029,9-9,9H351.632
	c-4.971,0-9-4.03-9-9v-8c0-4.972,4.029-9,9-9h573.976c4.971,0,9,4.028,9,9V58.834z"/>
<g>
	<path fill="#F0EFEF" d="M615.221,38.274l-3.625-8.095l4.388-0.322c0,0,1.694-6.928,4.996-6.566c0,0,3.062-1.127,6.245,9.264
		l2.094,5.72h-4.41l-3.727-7.976c0,0-0.956-0.874-1.538,0.746H618.2v0.465h2.256v0.778h-1.907v0.334h2.819v1.021h-1.718v0.323h2.43
		v0.976h-2.048v0.372h2.469v0.907h-1.923v0.32h2.255v0.789L615.221,38.274z"/>
	<path fill="#F0EFEF" d="M626.539,23.256h8.9c0,0,2.215,0.277,2.577,2.332c0,0,0.04,1.934-2.86,2.336h-1.771v9.13
		c0,0-1.741,1.921-4.518,0v-9.171h-2.329c0,0-1.81-0.322-1.631-2.497C624.908,25.386,624.685,23.904,626.539,23.256z"/>
	<path fill="#F0EFEF" d="M637.735,24.26c0,0,0.503-0.818,1.61-1.004h8.197c0,0,2.032,0.076,2.557,1.404c0,0,0.988-2.275,3.181-0.945
		l4.581,4.72v-3.437c0,0,2.04-3.813,4.886-0.055v11.357c0,0-1.129,2.82-3.894,0.697l-4.377-4.858v4.833c0,0-1.53,1.529-4.35,0.242
		v-10.58c0,0-0.814,1.449-2.208,1.424h-6.17l0.311,0.309h5.859c0,0,1.644,0.566,1.617,2.156c0,0-0.188,2.127-1.879,2.475h-5.747
		v0.941h6.713c0,0,1.495,0.487,1.719,1.516c0,0,0.223,1.994-1.913,2.559H638.7c0,0-0.845-0.021-0.965-0.746V24.26z"/>
</g>
<linearGradient id="SVGID_3_" gradientUnits="userSpaceOnUse" x1="16.9106" y1="3.792" x2="16.9106" y2="66.463">
	<stop  offset="0" style="stop-color:#2B2D30"/>
	<stop  offset="0.1075" style="stop-color:#3D3E41"/>
	<stop  offset="0.1828" style="stop-color:#555658"/>
	<stop  offset="0.1828" style="stop-color:#464749"/>
	<stop  offset="0.2473" style="stop-color:#37393B"/>
	<stop  offset="0.9032" style="stop-color:#343538"/>
	<stop  offset="0.9462" style="stop-color:#242629"/>
</linearGradient>
<path fill="url(#SVGID_3_)" stroke="#161616" stroke-miterlimit="10" d="M32.294,58.75c0,4.971-4.029,9-9,9H10.527
	c-4.971,0-9-4.029-9-9V10.742c0-4.971,4.029-9,9-9h12.767c4.971,0,9,4.029,9,9V58.75z"/>
<linearGradient id="SVGID_4_" gradientUnits="userSpaceOnUse" x1="16.9106" y1="68.4922" x2="16.9106" y2="125.5866">
	<stop  offset="0" style="stop-color:#2B2D30"/>
	<stop  offset="0.1075" style="stop-color:#3D3E41"/>
	<stop  offset="0.1828" style="stop-color:#555658"/>
	<stop  offset="0.1828" style="stop-color:#464749"/>
	<stop  offset="0.2473" style="stop-color:#37393B"/>
	<stop  offset="0.9032" style="stop-color:#343538"/>
	<stop  offset="0.9462" style="stop-color:#242629"/>
</linearGradient>
<path fill="url(#SVGID_4_)" stroke="#0B0A0A" stroke-miterlimit="10" d="M32.294,118.561c0,4.528-4.029,8.199-9,8.199H10.527
	c-4.971,0-9-3.671-9-8.199V74.824c0-4.528,4.029-8.199,9-8.199h12.767c4.971,0,9,3.671,9,8.199V118.561z"/>
<linearGradient id="SVGID_5_" gradientUnits="userSpaceOnUse" x1="1260.2051" y1="3.792" x2="1260.2051" y2="66.463">
	<stop  offset="0" style="stop-color:#2B2D30"/>
	<stop  offset="0.1075" style="stop-color:#3D3E41"/>
	<stop  offset="0.1828" style="stop-color:#555658"/>
	<stop  offset="0.1828" style="stop-color:#464749"/>
	<stop  offset="0.2473" style="stop-color:#37393B"/>
	<stop  offset="0.9032" style="stop-color:#343538"/>
	<stop  offset="0.9462" style="stop-color:#242629"/>
</linearGradient>
<path fill="url(#SVGID_5_)" stroke="#161616" stroke-miterlimit="10" d="M1275.589,58.75c0,4.971-4.029,9-9,9h-12.767
	c-4.97,0-9-4.029-9-9V10.742c0-4.971,4.03-9,9-9h12.767c4.971,0,9,4.029,9,9V58.75z"/>
<linearGradient id="SVGID_6_" gradientUnits="userSpaceOnUse" x1="1260.2051" y1="68.4922" x2="1260.2051" y2="125.5866">
	<stop  offset="0" style="stop-color:#2B2D30"/>
	<stop  offset="0.1075" style="stop-color:#3D3E41"/>
	<stop  offset="0.1828" style="stop-color:#555658"/>
	<stop  offset="0.1828" style="stop-color:#464749"/>
	<stop  offset="0.2473" style="stop-color:#37393B"/>
	<stop  offset="0.9032" style="stop-color:#343538"/>
	<stop  offset="0.9462" style="stop-color:#242629"/>
</linearGradient>
<path fill="url(#SVGID_6_)" stroke="#0B0A0A" stroke-miterlimit="10" d="M1275.589,118.561c0,4.528-4.029,8.199-9,8.199h-12.767
	c-4.97,0-9-3.671-9-8.199V74.824c0-4.528,4.03-8.199,9-8.199h12.767c4.971,0,9,3.671,9,8.199V118.561z"/>
<ellipse fill="#BAD879" stroke="#5E9633" stroke-miterlimit="10" cx="1167.607" cy="91.793" rx="3.566" ry="3.841"/>
<text transform="matrix(1 0 0 1 1175.5166 94.25)" fill="#F2F2F2" font-family="'SimHei'" font-size="12">power</text>
<path fill="#222323" d="M170.831,57.125c0,2.209-1.791,4-4,4H44.997c-2.209,0-4-1.791-4-4V36.152c0-2.209,1.791-4,4-4h121.834
	c2.209,0,4,1.791,4,4V57.125z"/>
<path fill="#3F3F3F" stroke="#080707" stroke-miterlimit="10" d="M143.517,54.625c0,2.209-1.791,4-4,4h-36.894c-2.209,0-4-1.791-4-4
	v-17.5c0-2.209,1.791-4,4-4h36.894c2.209,0,4,1.791,4,4V54.625z"/>
<path fill="#3F3F3F" stroke="#080707" stroke-miterlimit="10" d="M98.592,54.625c0,2.209-2.188,4-4.886,4H48.651
	c-2.697,0-4.884-1.791-4.884-4v-17.5c0-2.209,2.187-4,4.884-4h45.055c2.698,0,4.886,1.791,4.886,4V54.625z"/>
<path fill="#222323" d="M1102.69,57.125c0,2.209,1.791,4,4,4h121.834c2.209,0,4-1.791,4-4V36.152c0-2.209-1.791-4-4-4H1106.69
	c-2.209,0-4,1.791-4,4V57.125z"/>
<path fill="#3F3F3F" stroke="#080707" stroke-miterlimit="10" d="M1130.005,54.625c0,2.209,1.791,4,4,4h36.894c2.209,0,4-1.791,4-4
	v-17.5c0-2.209-1.791-4-4-4h-36.894c-2.209,0-4,1.791-4,4V54.625z"/>
<path fill="#3F3F3F" stroke="#080707" stroke-miterlimit="10" d="M1174.93,54.625c0,2.209,2.187,4,4.886,4h45.053
	c2.699,0,4.885-1.791,4.885-4v-17.5c0-2.209-2.186-4-4.885-4h-45.053c-2.699,0-4.886,1.791-4.886,4V54.625z"/>
</svg>
