<?xml version="1.0" encoding="utf-8"?>
<!-- Generator: Adobe Illustrator 16.0.0, SVG Export Plug-In . SVG Version: 6.00 Build 0)  -->
<!DOCTYPE svg PUBLIC "-//W3C//DTD SVG 1.1//EN" "http://www.w3.org/Graphics/SVG/1.1/DTD/svg11.dtd">
<svg version="1.1" id="图层_1" xmlns="http://www.w3.org/2000/svg" xmlns:xlink="http://www.w3.org/1999/xlink" x="0px" y="0px"
	 width="24.31px" height="576.99px" viewBox="0 0 24.31 576.99" enable-background="new 0 0 24.31 576.99" xml:space="preserve">
<g>
	<rect x="0.001" fill="#444449" width="23.806" height="576.988"/>
	<rect x="0.264" y="271.745" fill="#535356" width="23.543" height="34.5"/>
	<rect x="0.264" y="302.744" fill="#38393A" width="23.543" height="3.5"/>
	<rect x="0.001" y="305.578" fill="#0A090A" width="23.806" height="0.666"/>
	<rect x="0.133" y="271.079" fill="#0A090A" width="23.674" height="0.666"/>
	<g>
		<rect x="0.001" y="271.745" fill="#343531" width="18.884" height="17.667"/>
		<rect x="0.001" y="271.745" fill="#858879" width="17.903" height="16.75"/>
		<rect x="0.001" y="271.745" fill="#ADB19D" width="14.942" height="13.979"/>
		<rect x="0.001" y="284.579" fill="#DDDECC" width="14.942" height="1.145"/>
	</g>
	<g>
		<g>
			<g>
				<linearGradient id="SVGID_1_" gradientUnits="userSpaceOnUse" x1="11.9038" y1="56.8945" x2="11.9038" y2="53.9775">
					<stop  offset="0" style="stop-color:#000000"/>
					<stop  offset="0.3578" style="stop-color:#9FA0A0"/>
					<stop  offset="0.6613" style="stop-color:#595757"/>
					<stop  offset="0.8495" style="stop-color:#595757"/>
					<stop  offset="1" style="stop-color:#3E3A39"/>
				</linearGradient>
				<rect y="53.978" fill="url(#SVGID_1_)" width="23.807" height="2.917"/>
				<linearGradient id="SVGID_2_" gradientUnits="userSpaceOnUse" x1="12.0708" y1="53.9775" x2="12.0708" y2="56.8945">
					<stop  offset="0" style="stop-color:#000000"/>
					<stop  offset="0.2581" style="stop-color:#868687"/>
					<stop  offset="0.457" style="stop-color:#F7F8F8"/>
					<stop  offset="0.629" style="stop-color:#C9CACA"/>
					<stop  offset="0.7825" style="stop-color:#727171"/>
					<stop  offset="1" style="stop-color:#868687"/>
				</linearGradient>
				<rect x="3.571" y="53.978" fill="url(#SVGID_2_)" width="16.999" height="2.917"/>
			</g>
			<rect x="3.446" y="53.978" fill="#323333" width="0.125" height="2.917"/>
			<rect x="20.508" y="53.978" fill="#323333" width="0.125" height="2.917"/>
		</g>
		<rect y="56.895" fill="#202020" width="23.807" height="0.333"/>
	</g>
	<g>
		<g>
			<g>
				<linearGradient id="SVGID_3_" gradientUnits="userSpaceOnUse" x1="11.9038" y1="77.876" x2="11.9038" y2="74.959">
					<stop  offset="0" style="stop-color:#000000"/>
					<stop  offset="0.3578" style="stop-color:#9FA0A0"/>
					<stop  offset="0.6613" style="stop-color:#595757"/>
					<stop  offset="0.8495" style="stop-color:#595757"/>
					<stop  offset="1" style="stop-color:#3E3A39"/>
				</linearGradient>
				<rect y="74.959" fill="url(#SVGID_3_)" width="23.807" height="2.917"/>
				<linearGradient id="SVGID_4_" gradientUnits="userSpaceOnUse" x1="12.0708" y1="74.959" x2="12.0708" y2="77.876">
					<stop  offset="0" style="stop-color:#000000"/>
					<stop  offset="0.2581" style="stop-color:#868687"/>
					<stop  offset="0.457" style="stop-color:#F7F8F8"/>
					<stop  offset="0.629" style="stop-color:#C9CACA"/>
					<stop  offset="0.7825" style="stop-color:#727171"/>
					<stop  offset="1" style="stop-color:#868687"/>
				</linearGradient>
				<rect x="3.571" y="74.959" fill="url(#SVGID_4_)" width="16.999" height="2.917"/>
			</g>
			<rect x="3.446" y="74.959" fill="#323333" width="0.125" height="2.917"/>
			<rect x="20.508" y="74.959" fill="#323333" width="0.125" height="2.917"/>
		</g>
		<rect y="77.876" fill="#202020" width="23.807" height="0.333"/>
	</g>
	<g>
		<g>
			<g>
				<linearGradient id="SVGID_5_" gradientUnits="userSpaceOnUse" x1="12.0718" y1="224.7446" x2="12.0718" y2="221.8276">
					<stop  offset="0" style="stop-color:#000000"/>
					<stop  offset="0.3578" style="stop-color:#9FA0A0"/>
					<stop  offset="0.6613" style="stop-color:#595757"/>
					<stop  offset="0.8495" style="stop-color:#595757"/>
					<stop  offset="1" style="stop-color:#3E3A39"/>
				</linearGradient>
				<rect x="0.168" y="221.828" fill="url(#SVGID_5_)" width="23.807" height="2.917"/>
				<linearGradient id="SVGID_6_" gradientUnits="userSpaceOnUse" x1="12.2388" y1="221.8276" x2="12.2388" y2="224.7446">
					<stop  offset="0" style="stop-color:#000000"/>
					<stop  offset="0.2581" style="stop-color:#868687"/>
					<stop  offset="0.457" style="stop-color:#F7F8F8"/>
					<stop  offset="0.629" style="stop-color:#C9CACA"/>
					<stop  offset="0.7825" style="stop-color:#727171"/>
					<stop  offset="1" style="stop-color:#868687"/>
				</linearGradient>
				<rect x="3.739" y="221.828" fill="url(#SVGID_6_)" width="16.999" height="2.917"/>
			</g>
			<rect x="3.614" y="221.828" fill="#323333" width="0.125" height="2.917"/>
			<rect x="20.676" y="221.828" fill="#323333" width="0.125" height="2.917"/>
		</g>
		<rect x="0.168" y="224.745" fill="#202020" width="23.807" height="0.333"/>
	</g>
	<g>
		<g>
			<g>
				<g>
					<linearGradient id="SVGID_7_" gradientUnits="userSpaceOnUse" x1="12.5425" y1="98.8569" x2="12.5425" y2="95.9399">
						<stop  offset="0" style="stop-color:#000000"/>
						<stop  offset="0.3578" style="stop-color:#9FA0A0"/>
						<stop  offset="0.6613" style="stop-color:#595757"/>
						<stop  offset="0.8495" style="stop-color:#595757"/>
						<stop  offset="1" style="stop-color:#3E3A39"/>
					</linearGradient>
					<rect x="1.277" y="95.94" fill="url(#SVGID_7_)" width="22.529" height="2.917"/>
					<linearGradient id="SVGID_8_" gradientUnits="userSpaceOnUse" x1="12.6997" y1="95.9399" x2="12.6997" y2="98.8569">
						<stop  offset="0" style="stop-color:#000000"/>
						<stop  offset="0.2581" style="stop-color:#868687"/>
						<stop  offset="0.457" style="stop-color:#F7F8F8"/>
						<stop  offset="0.629" style="stop-color:#C9CACA"/>
						<stop  offset="0.7825" style="stop-color:#727171"/>
						<stop  offset="1" style="stop-color:#868687"/>
					</linearGradient>
					<rect x="4.656" y="95.94" fill="url(#SVGID_8_)" width="16.088" height="2.917"/>
				</g>
				<rect x="4.538" y="95.94" fill="#323333" width="0.118" height="2.917"/>
				<rect x="20.686" y="95.94" fill="#323333" width="0.117" height="2.917"/>
			</g>
			<rect x="1.276" y="98.857" fill="#202020" width="22.53" height="0.333"/>
		</g>
		<g>
			<g>
				<g>
					<linearGradient id="SVGID_9_" gradientUnits="userSpaceOnUse" x1="12.5425" y1="119.8384" x2="12.5425" y2="116.9214">
						<stop  offset="0" style="stop-color:#000000"/>
						<stop  offset="0.3578" style="stop-color:#9FA0A0"/>
						<stop  offset="0.6613" style="stop-color:#595757"/>
						<stop  offset="0.8495" style="stop-color:#595757"/>
						<stop  offset="1" style="stop-color:#3E3A39"/>
					</linearGradient>
					<rect x="1.277" y="116.921" fill="url(#SVGID_9_)" width="22.529" height="2.917"/>
					<linearGradient id="SVGID_10_" gradientUnits="userSpaceOnUse" x1="12.6997" y1="116.9214" x2="12.6997" y2="119.8384">
						<stop  offset="0" style="stop-color:#000000"/>
						<stop  offset="0.2581" style="stop-color:#868687"/>
						<stop  offset="0.457" style="stop-color:#F7F8F8"/>
						<stop  offset="0.629" style="stop-color:#C9CACA"/>
						<stop  offset="0.7825" style="stop-color:#727171"/>
						<stop  offset="1" style="stop-color:#868687"/>
					</linearGradient>
					<rect x="4.656" y="116.921" fill="url(#SVGID_10_)" width="16.088" height="2.917"/>
				</g>
				<rect x="4.538" y="116.921" fill="#323333" width="0.118" height="2.917"/>
				<rect x="20.686" y="116.921" fill="#323333" width="0.117" height="2.917"/>
			</g>
			<rect x="1.276" y="119.838" fill="#202020" width="22.53" height="0.333"/>
		</g>
		<g>
			<g>
				<g>
					<linearGradient id="SVGID_11_" gradientUnits="userSpaceOnUse" x1="12.5425" y1="140.8198" x2="12.5425" y2="137.9028">
						<stop  offset="0" style="stop-color:#000000"/>
						<stop  offset="0.3578" style="stop-color:#9FA0A0"/>
						<stop  offset="0.6613" style="stop-color:#595757"/>
						<stop  offset="0.8495" style="stop-color:#595757"/>
						<stop  offset="1" style="stop-color:#3E3A39"/>
					</linearGradient>
					<rect x="1.277" y="137.903" fill="url(#SVGID_11_)" width="22.529" height="2.917"/>
					<linearGradient id="SVGID_12_" gradientUnits="userSpaceOnUse" x1="12.6997" y1="137.9028" x2="12.6997" y2="140.8198">
						<stop  offset="0" style="stop-color:#000000"/>
						<stop  offset="0.2581" style="stop-color:#868687"/>
						<stop  offset="0.457" style="stop-color:#F7F8F8"/>
						<stop  offset="0.629" style="stop-color:#C9CACA"/>
						<stop  offset="0.7825" style="stop-color:#727171"/>
						<stop  offset="1" style="stop-color:#868687"/>
					</linearGradient>
					<rect x="4.656" y="137.903" fill="url(#SVGID_12_)" width="16.088" height="2.917"/>
				</g>
				<rect x="4.538" y="137.903" fill="#323333" width="0.118" height="2.917"/>
				<rect x="20.686" y="137.903" fill="#323333" width="0.117" height="2.917"/>
			</g>
			<rect x="1.276" y="140.82" fill="#202020" width="22.53" height="0.333"/>
		</g>
		<g>
			<g>
				<g>
					<linearGradient id="SVGID_13_" gradientUnits="userSpaceOnUse" x1="12.5425" y1="161.8008" x2="12.5425" y2="158.8838">
						<stop  offset="0" style="stop-color:#000000"/>
						<stop  offset="0.3578" style="stop-color:#9FA0A0"/>
						<stop  offset="0.6613" style="stop-color:#595757"/>
						<stop  offset="0.8495" style="stop-color:#595757"/>
						<stop  offset="1" style="stop-color:#3E3A39"/>
					</linearGradient>
					<rect x="1.277" y="158.884" fill="url(#SVGID_13_)" width="22.529" height="2.917"/>
					<linearGradient id="SVGID_14_" gradientUnits="userSpaceOnUse" x1="12.6997" y1="158.8838" x2="12.6997" y2="161.8008">
						<stop  offset="0" style="stop-color:#000000"/>
						<stop  offset="0.2581" style="stop-color:#868687"/>
						<stop  offset="0.457" style="stop-color:#F7F8F8"/>
						<stop  offset="0.629" style="stop-color:#C9CACA"/>
						<stop  offset="0.7825" style="stop-color:#727171"/>
						<stop  offset="1" style="stop-color:#868687"/>
					</linearGradient>
					<rect x="4.656" y="158.884" fill="url(#SVGID_14_)" width="16.088" height="2.917"/>
				</g>
				<rect x="4.538" y="158.884" fill="#323333" width="0.118" height="2.917"/>
				<rect x="20.686" y="158.884" fill="#323333" width="0.117" height="2.917"/>
			</g>
			<rect x="1.276" y="161.801" fill="#202020" width="22.53" height="0.333"/>
		</g>
		<g>
			<g>
				<g>
					<linearGradient id="SVGID_15_" gradientUnits="userSpaceOnUse" x1="12.5425" y1="182.7822" x2="12.5425" y2="179.8652">
						<stop  offset="0" style="stop-color:#000000"/>
						<stop  offset="0.3578" style="stop-color:#9FA0A0"/>
						<stop  offset="0.6613" style="stop-color:#595757"/>
						<stop  offset="0.8495" style="stop-color:#595757"/>
						<stop  offset="1" style="stop-color:#3E3A39"/>
					</linearGradient>
					<rect x="1.277" y="179.865" fill="url(#SVGID_15_)" width="22.529" height="2.917"/>
					<linearGradient id="SVGID_16_" gradientUnits="userSpaceOnUse" x1="12.6997" y1="179.8652" x2="12.6997" y2="182.7822">
						<stop  offset="0" style="stop-color:#000000"/>
						<stop  offset="0.2581" style="stop-color:#868687"/>
						<stop  offset="0.457" style="stop-color:#F7F8F8"/>
						<stop  offset="0.629" style="stop-color:#C9CACA"/>
						<stop  offset="0.7825" style="stop-color:#727171"/>
						<stop  offset="1" style="stop-color:#868687"/>
					</linearGradient>
					<rect x="4.656" y="179.865" fill="url(#SVGID_16_)" width="16.088" height="2.917"/>
				</g>
				<rect x="4.538" y="179.865" fill="#323333" width="0.118" height="2.917"/>
				<rect x="20.686" y="179.865" fill="#323333" width="0.117" height="2.917"/>
			</g>
			<rect x="1.276" y="182.782" fill="#202020" width="22.53" height="0.333"/>
		</g>
		<g>
			<g>
				<g>
					<linearGradient id="SVGID_17_" gradientUnits="userSpaceOnUse" x1="12.5425" y1="203.7632" x2="12.5425" y2="200.8462">
						<stop  offset="0" style="stop-color:#000000"/>
						<stop  offset="0.3578" style="stop-color:#9FA0A0"/>
						<stop  offset="0.6613" style="stop-color:#595757"/>
						<stop  offset="0.8495" style="stop-color:#595757"/>
						<stop  offset="1" style="stop-color:#3E3A39"/>
					</linearGradient>
					<rect x="1.277" y="200.846" fill="url(#SVGID_17_)" width="22.529" height="2.917"/>
					<linearGradient id="SVGID_18_" gradientUnits="userSpaceOnUse" x1="12.6997" y1="200.8462" x2="12.6997" y2="203.7632">
						<stop  offset="0" style="stop-color:#000000"/>
						<stop  offset="0.2581" style="stop-color:#868687"/>
						<stop  offset="0.457" style="stop-color:#F7F8F8"/>
						<stop  offset="0.629" style="stop-color:#C9CACA"/>
						<stop  offset="0.7825" style="stop-color:#727171"/>
						<stop  offset="1" style="stop-color:#868687"/>
					</linearGradient>
					<rect x="4.656" y="200.846" fill="url(#SVGID_18_)" width="16.088" height="2.917"/>
				</g>
				<rect x="4.538" y="200.846" fill="#323333" width="0.118" height="2.917"/>
				<rect x="20.686" y="200.846" fill="#323333" width="0.117" height="2.917"/>
			</g>
			<rect x="1.276" y="203.763" fill="#202020" width="22.53" height="0.333"/>
		</g>
		<g>
			<g>
				<g>
					<g>
						<linearGradient id="SVGID_19_" gradientUnits="userSpaceOnUse" x1="12.4194" y1="395.5332" x2="12.4194" y2="392.6152">
							<stop  offset="0" style="stop-color:#000000"/>
							<stop  offset="0.3578" style="stop-color:#9FA0A0"/>
							<stop  offset="0.6613" style="stop-color:#595757"/>
							<stop  offset="0.8495" style="stop-color:#595757"/>
							<stop  offset="1" style="stop-color:#3E3A39"/>
						</linearGradient>
						<rect x="1.277" y="392.615" fill="url(#SVGID_19_)" width="22.283" height="2.918"/>
						<linearGradient id="SVGID_20_" gradientUnits="userSpaceOnUse" x1="12.5747" y1="392.6152" x2="12.5747" y2="395.5332">
							<stop  offset="0" style="stop-color:#000000"/>
							<stop  offset="0.2581" style="stop-color:#868687"/>
							<stop  offset="0.457" style="stop-color:#F7F8F8"/>
							<stop  offset="0.629" style="stop-color:#C9CACA"/>
							<stop  offset="0.7825" style="stop-color:#727171"/>
							<stop  offset="1" style="stop-color:#868687"/>
						</linearGradient>
						<rect x="4.619" y="392.615" fill="url(#SVGID_20_)" width="15.912" height="2.918"/>
					</g>
					<rect x="4.504" y="392.615" fill="#323333" width="0.115" height="2.918"/>
					<rect x="20.473" y="392.615" fill="#323333" width="0.117" height="2.918"/>
				</g>
				<rect x="1.277" y="395.533" fill="#202020" width="22.283" height="0.332"/>
			</g>
			<g>
				<g>
					<g>
						<linearGradient id="SVGID_21_" gradientUnits="userSpaceOnUse" x1="12.4194" y1="416.5137" x2="12.4194" y2="413.5957">
							<stop  offset="0" style="stop-color:#000000"/>
							<stop  offset="0.3578" style="stop-color:#9FA0A0"/>
							<stop  offset="0.6613" style="stop-color:#595757"/>
							<stop  offset="0.8495" style="stop-color:#595757"/>
							<stop  offset="1" style="stop-color:#3E3A39"/>
						</linearGradient>
						<rect x="1.277" y="413.596" fill="url(#SVGID_21_)" width="22.283" height="2.918"/>
						<linearGradient id="SVGID_22_" gradientUnits="userSpaceOnUse" x1="12.5747" y1="413.5957" x2="12.5747" y2="416.5137">
							<stop  offset="0" style="stop-color:#000000"/>
							<stop  offset="0.2581" style="stop-color:#868687"/>
							<stop  offset="0.457" style="stop-color:#F7F8F8"/>
							<stop  offset="0.629" style="stop-color:#C9CACA"/>
							<stop  offset="0.7825" style="stop-color:#727171"/>
							<stop  offset="1" style="stop-color:#868687"/>
						</linearGradient>
						<rect x="4.619" y="413.596" fill="url(#SVGID_22_)" width="15.912" height="2.918"/>
					</g>
					<rect x="4.504" y="413.596" fill="#323333" width="0.115" height="2.918"/>
					<rect x="20.473" y="413.596" fill="#323333" width="0.117" height="2.918"/>
				</g>
				<rect x="1.277" y="416.514" fill="#202020" width="22.283" height="0.332"/>
			</g>
			<g>
				<g>
					<g>
						<linearGradient id="SVGID_23_" gradientUnits="userSpaceOnUse" x1="12.5767" y1="437.4941" x2="12.5767" y2="434.5781">
							<stop  offset="0" style="stop-color:#000000"/>
							<stop  offset="0.3578" style="stop-color:#9FA0A0"/>
							<stop  offset="0.6613" style="stop-color:#595757"/>
							<stop  offset="0.8495" style="stop-color:#595757"/>
							<stop  offset="1" style="stop-color:#3E3A39"/>
						</linearGradient>
						<rect x="1.436" y="434.578" fill="url(#SVGID_23_)" width="22.281" height="2.916"/>
						<linearGradient id="SVGID_24_" gradientUnits="userSpaceOnUse" x1="12.7329" y1="434.5781" x2="12.7329" y2="437.4941">
							<stop  offset="0" style="stop-color:#000000"/>
							<stop  offset="0.2581" style="stop-color:#868687"/>
							<stop  offset="0.457" style="stop-color:#F7F8F8"/>
							<stop  offset="0.629" style="stop-color:#C9CACA"/>
							<stop  offset="0.7825" style="stop-color:#727171"/>
							<stop  offset="1" style="stop-color:#868687"/>
						</linearGradient>
						<rect x="4.777" y="434.578" fill="url(#SVGID_24_)" width="15.912" height="2.916"/>
					</g>
					<rect x="4.66" y="434.578" fill="#323333" width="0.117" height="2.916"/>
					<rect x="20.631" y="434.578" fill="#323333" width="0.117" height="2.916"/>
				</g>
				<rect x="1.435" y="437.494" fill="#202020" width="22.282" height="0.334"/>
			</g>
		</g>
	</g>
	<rect y="306.244" fill="#38393A" width="23.807" height="17.584"/>
	<rect y="322.744" fill="#202020" width="23.807" height="1.084"/>
	<rect x="4.555" y="306.244" fill="#1A1A1A" width="14.699" height="11.834"/>
	<g>
		<circle fill="#141415" cx="11.904" cy="8.869" r="8.057"/>
		<g>
			<path fill="#AFAFAF" d="M18.717,8.869c0,3.792-3.051,6.868-6.813,6.868S5.09,12.661,5.09,8.869c0-3.793,3.051-6.868,6.813-6.868
				S18.717,5.076,18.717,8.869"/>
			<ellipse fill="none" stroke="#949394" stroke-miterlimit="10" cx="11.903" cy="8.869" rx="6.813" ry="6.868"/>
			<path fill="#AFAFAF" d="M16.91,8.869c0,2.786-2.242,5.046-5.007,5.046s-5.007-2.26-5.007-5.046c0-2.787,2.242-5.047,5.007-5.047
				S16.91,6.082,16.91,8.869"/>
			<ellipse fill="none" stroke="#949394" stroke-miterlimit="10" cx="11.903" cy="8.869" rx="5.007" ry="5.046"/>
			<g>
				<g>
					<defs>
						<rect id="SVGID_25_" x="7.184" y="4.113" width="9.439" height="9.513"/>
					</defs>
					<clipPath id="SVGID_26_">
						<use xlink:href="#SVGID_25_"  overflow="visible"/>
					</clipPath>
					<path clip-path="url(#SVGID_26_)" fill="#BFBFBF" d="M16.623,8.869c0,2.626-2.113,4.756-4.72,4.756
						c-2.605,0-4.719-2.13-4.719-4.756c0-2.627,2.113-4.756,4.719-4.756C14.51,4.113,16.623,6.242,16.623,8.869"/>
					<path clip-path="url(#SVGID_26_)" fill="#C1C1C1" d="M16.512,8.869c0,2.564-2.064,4.644-4.608,4.644s-4.607-2.08-4.607-4.644
						c0-2.565,2.063-4.644,4.607-4.644S16.512,6.304,16.512,8.869"/>
					<path clip-path="url(#SVGID_26_)" fill="#C3C4C4" d="M16.4,8.869c0,2.502-2.014,4.532-4.497,4.532s-4.496-2.03-4.496-4.532
						c0-2.503,2.013-4.533,4.496-4.533S16.4,6.366,16.4,8.869"/>
					<path clip-path="url(#SVGID_26_)" fill="#C5C6C6" d="M16.289,8.869c0,2.44-1.963,4.42-4.386,4.42
						c-2.422,0-4.386-1.98-4.386-4.42c0-2.442,1.964-4.421,4.386-4.421C14.326,4.448,16.289,6.427,16.289,8.869"/>
					<path clip-path="url(#SVGID_26_)" fill="#C7C9C9" d="M16.178,8.869c0,2.379-1.914,4.309-4.274,4.309s-4.274-1.93-4.274-4.309
						c0-2.38,1.914-4.31,4.274-4.31S16.178,6.489,16.178,8.869"/>
					<path clip-path="url(#SVGID_26_)" fill="#CACBCB" d="M16.066,8.869c0,2.317-1.863,4.197-4.163,4.197S7.74,11.187,7.74,8.869
						c0-2.318,1.863-4.197,4.163-4.197S16.066,6.551,16.066,8.869"/>
					<path clip-path="url(#SVGID_26_)" fill="#CCCECE" d="M15.957,8.869c0,2.255-1.816,4.084-4.054,4.084
						c-2.238,0-4.052-1.829-4.052-4.084s1.813-4.085,4.052-4.085C14.141,4.784,15.957,6.614,15.957,8.869"/>
					<path clip-path="url(#SVGID_26_)" fill="#CED0D0" d="M15.846,8.869c0,2.194-1.766,3.973-3.942,3.973s-3.941-1.779-3.941-3.973
						c0-2.194,1.765-3.974,3.941-3.974S15.846,6.675,15.846,8.869"/>
					<path clip-path="url(#SVGID_26_)" fill="#D1D3D3" d="M15.734,8.869c0,2.132-1.715,3.861-3.831,3.861
						c-2.114,0-3.831-1.729-3.831-3.861c0-2.133,1.717-3.862,3.831-3.862C14.02,5.007,15.734,6.736,15.734,8.869"/>
					<path clip-path="url(#SVGID_26_)" fill="#D3D5D5" d="M15.623,8.869c0,2.07-1.666,3.749-3.72,3.749s-3.72-1.679-3.72-3.749
						c0-2.071,1.666-3.75,3.72-3.75S15.623,6.798,15.623,8.869"/>
				</g>
			</g>
			<polygon fill="#5F5F5E" points="11.287,11.728 11.287,9.491 9.066,9.491 9.066,8.247 11.287,8.247 11.287,6.009 12.52,6.009 
				12.52,8.247 14.74,8.247 14.74,9.491 12.52,9.491 12.52,11.728 			"/>
			<path fill="#231815" d="M12.414,6.117v2.022v0.216h0.213h2.006v1.027h-2.006h-0.213v0.215v2.024h-1.02V9.597V9.382h-0.214H9.173
				V8.355h2.008h0.214V8.139V6.117H12.414z M12.627,5.901h-1.446v2.238h-2.22v1.458h2.22v2.239h1.446V9.597h2.221V8.139h-2.221
				V5.901z"/>
		</g>
	</g>
	<g>
		<circle fill="#141415" cx="11.904" cy="563.475" r="8.057"/>
		<g>
			<path fill="#AFAFAF" d="M18.717,563.475c0,3.791-3.051,6.867-6.813,6.867s-6.813-3.076-6.813-6.867
				c0-3.793,3.051-6.869,6.813-6.869S18.717,559.682,18.717,563.475"/>
			<ellipse fill="none" stroke="#949394" stroke-miterlimit="10" cx="11.903" cy="563.475" rx="6.813" ry="6.867"/>
			<path fill="#AFAFAF" d="M16.91,563.475c0,2.785-2.242,5.045-5.007,5.045s-5.007-2.26-5.007-5.045
				c0-2.787,2.242-5.047,5.007-5.047S16.91,560.688,16.91,563.475"/>
			<ellipse fill="none" stroke="#949394" stroke-miterlimit="10" cx="11.903" cy="563.475" rx="5.007" ry="5.045"/>
			<g>
				<g>
					<defs>
						<rect id="SVGID_27_" x="7.184" y="558.719" width="9.439" height="9.512"/>
					</defs>
					<clipPath id="SVGID_28_">
						<use xlink:href="#SVGID_27_"  overflow="visible"/>
					</clipPath>
					<path clip-path="url(#SVGID_28_)" fill="#BFBFBF" d="M16.623,563.475c0,2.627-2.113,4.756-4.72,4.756
						c-2.605,0-4.719-2.129-4.719-4.756s2.113-4.756,4.719-4.756C14.51,558.719,16.623,560.848,16.623,563.475"/>
					<path clip-path="url(#SVGID_28_)" fill="#C1C1C1" d="M16.512,563.475c0,2.564-2.064,4.645-4.608,4.645s-4.607-2.08-4.607-4.645
						s2.063-4.645,4.607-4.645S16.512,560.91,16.512,563.475"/>
					<path clip-path="url(#SVGID_28_)" fill="#C3C4C4" d="M16.4,563.475c0,2.502-2.014,4.531-4.497,4.531s-4.496-2.029-4.496-4.531
						c0-2.504,2.013-4.533,4.496-4.533S16.4,560.971,16.4,563.475"/>
					<path clip-path="url(#SVGID_28_)" fill="#C5C6C6" d="M16.289,563.475c0,2.439-1.963,4.42-4.386,4.42
						c-2.422,0-4.386-1.98-4.386-4.42c0-2.441,1.964-4.422,4.386-4.422C14.326,559.053,16.289,561.033,16.289,563.475"/>
					<path clip-path="url(#SVGID_28_)" fill="#C7C9C9" d="M16.178,563.475c0,2.379-1.914,4.309-4.274,4.309s-4.274-1.93-4.274-4.309
						c0-2.381,1.914-4.311,4.274-4.311S16.178,561.094,16.178,563.475"/>
					<path clip-path="url(#SVGID_28_)" fill="#CACBCB" d="M16.066,563.475c0,2.316-1.863,4.197-4.163,4.197
						s-4.163-1.881-4.163-4.197c0-2.318,1.863-4.197,4.163-4.197S16.066,561.156,16.066,563.475"/>
					<path clip-path="url(#SVGID_28_)" fill="#CCCECE" d="M15.957,563.475c0,2.256-1.816,4.084-4.054,4.084
						c-2.238,0-4.052-1.828-4.052-4.084s1.813-4.086,4.052-4.086C14.141,559.389,15.957,561.219,15.957,563.475"/>
					<path clip-path="url(#SVGID_28_)" fill="#CED0D0" d="M15.846,563.475c0,2.193-1.766,3.973-3.942,3.973
						s-3.941-1.779-3.941-3.973c0-2.195,1.765-3.975,3.941-3.975S15.846,561.279,15.846,563.475"/>
					<path clip-path="url(#SVGID_28_)" fill="#D1D3D3" d="M15.734,563.475c0,2.131-1.715,3.861-3.831,3.861
						c-2.114,0-3.831-1.73-3.831-3.861c0-2.133,1.717-3.861,3.831-3.861C14.02,559.613,15.734,561.342,15.734,563.475"/>
					<path clip-path="url(#SVGID_28_)" fill="#D3D5D5" d="M15.623,563.475c0,2.07-1.666,3.748-3.72,3.748s-3.72-1.678-3.72-3.748
						s1.666-3.75,3.72-3.75S15.623,561.404,15.623,563.475"/>
				</g>
			</g>
			<polygon fill="#5F5F5E" points="11.287,566.334 11.287,564.096 9.066,564.096 9.066,562.852 11.287,562.852 11.287,560.615 
				12.52,560.615 12.52,562.852 14.74,562.852 14.74,564.096 12.52,564.096 12.52,566.334 			"/>
			<path fill="#231815" d="M12.414,560.723v2.021v0.217h0.213h2.006v1.027h-2.006h-0.213v0.215v2.023h-1.02v-2.023v-0.215h-0.214
				H9.173v-1.027h2.008h0.214v-0.217v-2.021H12.414z M12.627,560.506h-1.446v2.238h-2.22v1.459h2.22v2.238h1.446v-2.238h2.221
				v-1.459h-2.221V560.506z"/>
		</g>
	</g>
	<rect x="23.034" fill="#212122" width="1.275" height="576.988"/>
	<rect x="0.001" fill="#212122" width="1.276" height="576.988"/>
</g>
</svg>
