<?xml version="1.0" encoding="utf-8"?>
<!-- Generator: Adobe Illustrator 16.0.0, SVG Export Plug-In . SVG Version: 6.00 Build 0)  -->
<!DOCTYPE svg PUBLIC "-//W3C//DTD SVG 1.1//EN" "http://www.w3.org/Graphics/SVG/1.1/DTD/svg11.dtd">
<svg version="1.1" id="图层_1" xmlns="http://www.w3.org/2000/svg" xmlns:xlink="http://www.w3.org/1999/xlink" x="0px" y="0px"
	 width="1275.59px" height="126.14px" viewBox="0 0 1275.59 126.14" enable-background="new 0 0 1275.59 126.14"
	 xml:space="preserve">
<rect x="0.849" y="0.839" fill="#232527" width="1273.892" height="124.463"/>
<g>
	<path fill="#212222" d="M1275.591,126.143H0V0h1275.591V126.143z M1.699,124.463h1272.193V1.679H1.699V124.463z"/>
</g>
<rect x="170.929" y="0.839" fill="#292F4D" width="933.734" height="124.463"/>
<rect x="170.929" y="0.839" fill="none" stroke="#212222" stroke-miterlimit="10" width="933.734" height="124.463"/>
<rect x="177.522" y="7.017" fill="#292F4D" width="920.548" height="112.108"/>
<rect x="177.522" y="7.017" fill="none" stroke="#212222" stroke-miterlimit="10" width="920.548" height="112.108"/>
<rect x="613.709" y="29.633" fill="#C8C9CA" width="158.884" height="66.875"/>
<rect x="792.646" y="29.633" fill="#C8C9CA" width="158.884" height="66.875"/>
<rect x="792.646" y="29.633" fill="none" stroke="#231815" stroke-width="2" stroke-miterlimit="10" width="158.884" height="66.875"/>
<text transform="matrix(0.9987 0 0 1 631.5547 24.5215)" fill="#FFFFFF" font-family="'Arial-BoldMT'" font-size="8.0106">1</text>
<text transform="matrix(0.9987 0 0 1 347.0498 71.6953)" fill="#FFFFFF" font-family="'Arial-BoldMT'" font-size="8.0106">1</text>
<text transform="matrix(0.9987 0 0 1 361.481 71.6953)" fill="#FFFFFF" font-family="'Arial-BoldMT'" font-size="8.0106">2</text>
<text transform="matrix(0.9987 0 0 1 375.9136 71.6953)" fill="#FFFFFF" font-family="'Arial-BoldMT'" font-size="8.0106">3</text>
<text transform="matrix(0.9987 0 0 1 390.3457 71.6953)" fill="#FFFFFF" font-family="'Arial-BoldMT'" font-size="8.0106">4</text>
<text transform="matrix(0.9987 0 0 1 404.7778 71.6953)" fill="#FFFFFF" font-family="'Arial-BoldMT'" font-size="8.0106">5</text>
<text transform="matrix(0.9987 0 0 1 419.21 71.6953)" fill="#FFFFFF" font-family="'Arial-BoldMT'" font-size="8.0106">6</text>
<text transform="matrix(0.9987 0 0 1 433.6416 71.6953)" fill="#FFFFFF" font-family="'Arial-BoldMT'" font-size="8.0106">7</text>
<text transform="matrix(0.9987 0 0 1 448.0737 71.6953)" fill="#FFFFFF" font-family="'Arial-BoldMT'" font-size="8.0106">8</text>
<text transform="matrix(0.9987 0 0 1 462.5063 71.6953)" fill="#FFFFFF" font-family="'Arial-BoldMT'" font-size="8.0106">9</text>
<text transform="matrix(0.9987 0 0 1 474.938 71.6953)" fill="#FFFFFF" font-family="'Arial-BoldMT'" font-size="8.0106">10</text>
<text transform="matrix(0.9987 0 0 1 489.3696 71.6953)"><tspan x="0" y="0" fill="#FFFFFF" font-family="'Arial-BoldMT'" font-size="8.0106">1</tspan><tspan x="4.015" y="0" fill="#FFFFFF" font-family="'Arial-BoldMT'" font-size="8.0106">1</tspan></text>
<text transform="matrix(0.9987 0 0 1 503.8018 71.6953)" fill="#FFFFFF" font-family="'Arial-BoldMT'" font-size="8.0106">12</text>
<text transform="matrix(0.9987 0 0 1 518.2344 71.6953)" fill="#FFFFFF" font-family="'Arial-BoldMT'" font-size="8.0106">13</text>
<text transform="matrix(0.9987 0 0 1 532.666 71.6953)" fill="#FFFFFF" font-family="'Arial-BoldMT'" font-size="8.0106">14</text>
<text transform="matrix(0.9987 0 0 1 547.0981 71.6953)" fill="#FFFFFF" font-family="'Arial-BoldMT'" font-size="8.0106">15</text>
<text transform="matrix(0.9987 0 0 1 561.5293 71.6953)" fill="#FFFFFF" font-family="'Arial-BoldMT'" font-size="8.0106">16</text>
<text transform="matrix(0.9987 0 0 1 447.1143 48.8335)" fill="#FFFFFF" font-family="'Arial-BoldMT'" font-size="8.0106">100M</text>
<text transform="matrix(0.9987 0 0 1 671.3691 24.5293)" fill="#FFFFFF" font-family="'Arial-BoldMT'" font-size="8.0106">2</text>
<text transform="matrix(0.9987 0 0 1 711.21 24.5293)" fill="#FFFFFF" font-family="'Arial-BoldMT'" font-size="8.0106">3</text>
<text transform="matrix(0.9987 0 0 1 751.043 24.5293)" fill="#FFFFFF" font-family="'Arial-BoldMT'" font-size="8.0106">4</text>
<text transform="matrix(0.9987 0 0 1 810.0576 24.5293)" fill="#FFFFFF" font-family="'Arial-BoldMT'" font-size="8.0106">5</text>
<text transform="matrix(0.9987 0 0 1 849.8984 24.5293)" fill="#FFFFFF" font-family="'Arial-BoldMT'" font-size="8.0106">6</text>
<text transform="matrix(0.9987 0 0 1 889.7383 24.5293)" fill="#FFFFFF" font-family="'Arial-BoldMT'" font-size="8.0106">7</text>
<text transform="matrix(0.9987 0 0 1 929.5703 24.5293)" fill="#FFFFFF" font-family="'Arial-BoldMT'" font-size="8.0106">8</text>
<text transform="matrix(0.9987 0 0 1 631.5381 108.6406)" fill="#FFFFFF" font-family="'Arial-BoldMT'" font-size="8.0106">9</text>
<text transform="matrix(0.9987 0 0 1 671.3779 108.6406)" fill="#FFFFFF" font-family="'Arial-BoldMT'" font-size="8.0106">10</text>
<text transform="matrix(0.9987 0 0 1 711.2178 108.6406)"><tspan x="0" y="0" fill="#FFFFFF" font-family="'Arial-BoldMT'" font-size="8.0106">1</tspan><tspan x="4.014" y="0" fill="#FFFFFF" font-family="'Arial-BoldMT'" font-size="8.0106">1</tspan></text>
<text transform="matrix(0.9987 0 0 1 751.0508 108.6406)" fill="#FFFFFF" font-family="'Arial-BoldMT'" font-size="8.0106">12</text>
<text transform="matrix(0.9987 0 0 1 810.0654 108.6406)" fill="#FFFFFF" font-family="'Arial-BoldMT'" font-size="8.0106">13</text>
<text transform="matrix(0.9987 0 0 1 849.9063 108.6406)" fill="#FFFFFF" font-family="'Arial-BoldMT'" font-size="8.0106">14</text>
<text transform="matrix(0.9987 0 0 1 889.7461 108.6406)" fill="#FFFFFF" font-family="'Arial-BoldMT'" font-size="8.0106">15</text>
<text transform="matrix(0.9987 0 0 1 929.5781 108.6406)" fill="#FFFFFF" font-family="'Arial-BoldMT'" font-size="8.0106">16</text>
<text transform="matrix(0.9987 0 0 1 191.6318 26.4595)"><tspan x="0" y="0" fill="#FFFFFF" font-family="'Arial-BoldMT'" font-size="14.0185" letter-spacing="5.007">N</tspan><tspan x="15.717" y="0" fill="#FFFFFF" font-family="'Arial-BoldMT'" font-size="14.0185" letter-spacing="5.007">ETGE</tspan><tspan x="76.314" y="0" fill="#FFFFFF" font-family="'Arial-BoldMT'" font-size="14.0185" letter-spacing="5.007">A</tspan><tspan x="92.031" y="0" fill="#FFFFFF" font-family="'Arial-BoldMT'" font-size="14.0185">R</tspan></text>
<path fill="#D2E38B" d="M354.234,63.071h-9.619c-0.312,0-0.566-0.255-0.566-0.568V56.46c0-0.312,0.255-0.567,0.566-0.567h9.619
	c0.312,0,0.566,0.255,0.566,0.567v6.042C354.801,62.816,354.546,63.071,354.234,63.071"/>
<path fill="none" stroke="#212222" stroke-miterlimit="10" d="M354.234,63.071h-9.619c-0.312,0-0.566-0.255-0.566-0.568V56.46
	c0-0.312,0.255-0.567,0.566-0.567h9.619c0.312,0,0.566,0.255,0.566,0.567v6.042C354.801,62.816,354.546,63.071,354.234,63.071z"/>
<path fill="#D2E38B" d="M368.674,63.071h-9.617c-0.313,0-0.567-0.255-0.567-0.568V56.46c0-0.312,0.255-0.567,0.567-0.567h9.617
	c0.313,0,0.567,0.255,0.567,0.567v6.042C369.241,62.816,368.986,63.071,368.674,63.071"/>
<path fill="none" stroke="#212222" stroke-miterlimit="10" d="M368.674,63.071h-9.617c-0.313,0-0.567-0.255-0.567-0.568V56.46
	c0-0.312,0.255-0.567,0.567-0.567h9.617c0.313,0,0.567,0.255,0.567,0.567v6.042C369.241,62.816,368.986,63.071,368.674,63.071z"/>
<path fill="#B6B6B6" d="M383.115,63.071h-9.618c-0.312,0-0.567-0.255-0.567-0.568V56.46c0-0.312,0.256-0.567,0.567-0.567h9.618
	c0.312,0,0.567,0.255,0.567,0.567v6.042C383.682,62.816,383.427,63.071,383.115,63.071"/>
<path fill="none" stroke="#2E2E2E" stroke-miterlimit="10" d="M383.115,63.071h-9.618c-0.312,0-0.567-0.255-0.567-0.568V56.46
	c0-0.312,0.256-0.567,0.567-0.567h9.618c0.312,0,0.567,0.255,0.567,0.567v6.042C383.682,62.816,383.427,63.071,383.115,63.071z"/>
<path fill="#D2E38B" d="M397.555,63.071h-9.617c-0.313,0-0.567-0.255-0.567-0.568V56.46c0-0.312,0.255-0.567,0.567-0.567h9.617
	c0.313,0,0.567,0.255,0.567,0.567v6.042C398.122,62.816,397.867,63.071,397.555,63.071"/>
<path fill="none" stroke="#212222" stroke-miterlimit="10" d="M397.555,63.071h-9.617c-0.313,0-0.567-0.255-0.567-0.568V56.46
	c0-0.312,0.255-0.567,0.567-0.567h9.617c0.313,0,0.567,0.255,0.567,0.567v6.042C398.122,62.816,397.867,63.071,397.555,63.071z"/>
<path fill="#B6B6B6" d="M411.996,63.071h-9.618c-0.312,0-0.567-0.255-0.567-0.568V56.46c0-0.312,0.256-0.567,0.567-0.567h9.618
	c0.313,0,0.566,0.255,0.566,0.567v6.042C412.563,62.816,412.309,63.071,411.996,63.071"/>
<path fill="none" stroke="#2E2E2E" stroke-miterlimit="10" d="M411.996,63.071h-9.618c-0.312,0-0.567-0.255-0.567-0.568V56.46
	c0-0.312,0.256-0.567,0.567-0.567h9.618c0.313,0,0.566,0.255,0.566,0.567v6.042C412.563,62.816,412.309,63.071,411.996,63.071z"/>
<path fill="#B6B6B6" d="M426.437,63.071h-9.618c-0.313,0-0.566-0.255-0.566-0.568V56.46c0-0.312,0.253-0.567,0.566-0.567h9.618
	c0.312,0,0.567,0.255,0.567,0.567v6.042C427.004,62.816,426.748,63.071,426.437,63.071"/>
<path fill="none" stroke="#2E2E2E" stroke-miterlimit="10" d="M426.437,63.071h-9.618c-0.313,0-0.566-0.255-0.566-0.568V56.46
	c0-0.312,0.253-0.567,0.566-0.567h9.618c0.312,0,0.567,0.255,0.567,0.567v6.042C427.004,62.816,426.748,63.071,426.437,63.071z"/>
<path fill="#B6B6B6" d="M440.877,63.071h-9.618c-0.312,0-0.568-0.255-0.568-0.568V56.46c0-0.312,0.256-0.567,0.568-0.567h9.618
	c0.313,0,0.566,0.255,0.566,0.567v6.042C441.443,62.816,441.19,63.071,440.877,63.071"/>
<path fill="none" stroke="#2E2E2E" stroke-miterlimit="10" d="M440.877,63.071h-9.618c-0.312,0-0.568-0.255-0.568-0.568V56.46
	c0-0.312,0.256-0.567,0.568-0.567h9.618c0.313,0,0.566,0.255,0.566,0.567v6.042C441.443,62.816,441.19,63.071,440.877,63.071z"/>
<path fill="#B6B6B6" d="M455.317,63.071h-9.618c-0.313,0-0.566-0.255-0.566-0.568V56.46c0-0.312,0.253-0.567,0.566-0.567h9.618
	c0.312,0,0.567,0.255,0.567,0.567v6.042C455.885,62.816,455.629,63.071,455.317,63.071"/>
<path fill="none" stroke="#2E2E2E" stroke-miterlimit="10" d="M455.317,63.071h-9.618c-0.313,0-0.566-0.255-0.566-0.568V56.46
	c0-0.312,0.253-0.567,0.566-0.567h9.618c0.312,0,0.567,0.255,0.567,0.567v6.042C455.885,62.816,455.629,63.071,455.317,63.071z"/>
<path fill="#B6B6B6" d="M469.758,63.071h-9.618c-0.312,0-0.568-0.255-0.568-0.568V56.46c0-0.312,0.256-0.567,0.568-0.567h9.618
	c0.313,0,0.566,0.255,0.566,0.567v6.042C470.324,62.816,470.071,63.071,469.758,63.071"/>
<path fill="none" stroke="#2E2E2E" stroke-miterlimit="10" d="M469.758,63.071h-9.618c-0.312,0-0.568-0.255-0.568-0.568V56.46
	c0-0.312,0.256-0.567,0.568-0.567h9.618c0.313,0,0.566,0.255,0.566,0.567v6.042C470.324,62.816,470.071,63.071,469.758,63.071z"/>
<path fill="#B6B6B6" d="M484.199,63.071h-9.619c-0.312,0-0.566-0.255-0.566-0.568V56.46c0-0.312,0.255-0.567,0.566-0.567h9.619
	c0.311,0,0.567,0.255,0.567,0.567v6.042C484.766,62.816,484.51,63.071,484.199,63.071"/>
<path fill="none" stroke="#2E2E2E" stroke-miterlimit="10" d="M484.199,63.071h-9.619c-0.312,0-0.566-0.255-0.566-0.568V56.46
	c0-0.312,0.255-0.567,0.566-0.567h9.619c0.311,0,0.567,0.255,0.567,0.567v6.042C484.766,62.816,484.51,63.071,484.199,63.071z"/>
<path fill="#B6B6B6" d="M498.639,63.071h-9.618c-0.312,0-0.567-0.255-0.567-0.568V56.46c0-0.312,0.255-0.567,0.567-0.567h9.618
	c0.313,0,0.567,0.255,0.567,0.567v6.042C499.206,62.816,498.952,63.071,498.639,63.071"/>
<path fill="none" stroke="#2E2E2E" stroke-miterlimit="10" d="M498.639,63.071h-9.618c-0.312,0-0.567-0.255-0.567-0.568V56.46
	c0-0.312,0.255-0.567,0.567-0.567h9.618c0.313,0,0.567,0.255,0.567,0.567v6.042C499.206,62.816,498.952,63.071,498.639,63.071z"/>
<path fill="#B6B6B6" d="M513.08,63.071h-9.619c-0.312,0-0.567-0.255-0.567-0.568V56.46c0-0.312,0.255-0.567,0.567-0.567h9.619
	c0.312,0,0.567,0.255,0.567,0.567v6.042C513.647,62.816,513.392,63.071,513.08,63.071"/>
<path fill="none" stroke="#2E2E2E" stroke-miterlimit="10" d="M513.08,63.071h-9.619c-0.312,0-0.567-0.255-0.567-0.568V56.46
	c0-0.312,0.255-0.567,0.567-0.567h9.619c0.312,0,0.567,0.255,0.567,0.567v6.042C513.647,62.816,513.392,63.071,513.08,63.071z"/>
<path fill="#B6B6B6" d="M527.52,63.071h-9.618c-0.312,0-0.567-0.255-0.567-0.568V56.46c0-0.312,0.255-0.567,0.567-0.567h9.618
	c0.313,0,0.567,0.255,0.567,0.567v6.042C528.087,62.816,527.833,63.071,527.52,63.071"/>
<path fill="none" stroke="#2E2E2E" stroke-miterlimit="10" d="M527.52,63.071h-9.618c-0.312,0-0.567-0.255-0.567-0.568V56.46
	c0-0.312,0.255-0.567,0.567-0.567h9.618c0.313,0,0.567,0.255,0.567,0.567v6.042C528.087,62.816,527.833,63.071,527.52,63.071z"/>
<path fill="#B6B6B6" d="M541.961,63.071h-9.619c-0.312,0-0.567-0.255-0.567-0.568V56.46c0-0.312,0.255-0.567,0.567-0.567h9.619
	c0.312,0,0.567,0.255,0.567,0.567v6.042C542.528,62.816,542.273,63.071,541.961,63.071"/>
<path fill="none" stroke="#2E2E2E" stroke-miterlimit="10" d="M541.961,63.071h-9.619c-0.312,0-0.567-0.255-0.567-0.568V56.46
	c0-0.312,0.255-0.567,0.567-0.567h9.619c0.312,0,0.567,0.255,0.567,0.567v6.042C542.528,62.816,542.273,63.071,541.961,63.071z"/>
<path fill="#B6B6B6" d="M556.401,63.071h-9.618c-0.313,0-0.567-0.255-0.567-0.568V56.46c0-0.312,0.254-0.567,0.567-0.567h9.618
	c0.312,0,0.568,0.255,0.568,0.567v6.042C556.969,62.816,556.713,63.071,556.401,63.071"/>
<path fill="none" stroke="#2E2E2E" stroke-miterlimit="10" d="M556.401,63.071h-9.618c-0.313,0-0.567-0.255-0.567-0.568V56.46
	c0-0.312,0.254-0.567,0.567-0.567h9.618c0.312,0,0.568,0.255,0.568,0.567v6.042C556.969,62.816,556.713,63.071,556.401,63.071z"/>
<path fill="#B6B6B6" d="M570.842,63.071h-9.618c-0.311,0-0.566-0.255-0.566-0.568V56.46c0-0.312,0.255-0.567,0.566-0.567h9.618
	c0.312,0,0.566,0.255,0.566,0.567v6.042C571.408,62.816,571.154,63.071,570.842,63.071"/>
<path fill="none" stroke="#2E2E2E" stroke-miterlimit="10" d="M570.842,63.071h-9.618c-0.311,0-0.566-0.255-0.566-0.568V56.46
	c0-0.312,0.255-0.567,0.566-0.567h9.618c0.312,0,0.566,0.255,0.566,0.567v6.042C571.408,62.816,571.154,63.071,570.842,63.071z"/>
<path fill="#D2E38B" d="M354.234,80.313h-9.619c-0.312,0-0.566-0.256-0.566-0.566v-6.043c0-0.313,0.255-0.568,0.566-0.568h9.619
	c0.312,0,0.566,0.256,0.566,0.568v6.043C354.801,80.057,354.546,80.313,354.234,80.313"/>
<path fill="none" stroke="#212222" stroke-miterlimit="10" d="M354.234,80.313h-9.619c-0.312,0-0.566-0.256-0.566-0.566v-6.043
	c0-0.313,0.255-0.568,0.566-0.568h9.619c0.312,0,0.566,0.256,0.566,0.568v6.043C354.801,80.057,354.546,80.313,354.234,80.313z"/>
<path fill="#D2E38B" d="M321.482,80.313h-9.619c-0.312,0-0.566-0.256-0.566-0.566v-6.043c0-0.313,0.254-0.568,0.566-0.568h9.619
	c0.311,0,0.566,0.256,0.566,0.568v6.043C322.049,80.057,321.793,80.313,321.482,80.313"/>
<path fill="none" stroke="#212222" stroke-miterlimit="10" d="M321.482,80.313h-9.619c-0.312,0-0.566-0.256-0.566-0.566v-6.043
	c0-0.313,0.254-0.568,0.566-0.568h9.619c0.311,0,0.566,0.256,0.566,0.568v6.043C322.049,80.057,321.793,80.313,321.482,80.313z"/>
<path fill="#D2E38B" d="M368.674,80.313h-9.617c-0.313,0-0.567-0.256-0.567-0.566v-6.043c0-0.313,0.255-0.568,0.567-0.568h9.617
	c0.313,0,0.567,0.256,0.567,0.568v6.043C369.241,80.057,368.986,80.313,368.674,80.313"/>
<path fill="none" stroke="#212222" stroke-miterlimit="10" d="M368.674,80.313h-9.617c-0.313,0-0.567-0.256-0.567-0.566v-6.043
	c0-0.313,0.255-0.568,0.567-0.568h9.617c0.313,0,0.567,0.256,0.567,0.568v6.043C369.241,80.057,368.986,80.313,368.674,80.313z"/>
<path fill="#B6B6B6" d="M383.115,80.313h-9.618c-0.312,0-0.567-0.256-0.567-0.566v-6.043c0-0.313,0.256-0.568,0.567-0.568h9.618
	c0.312,0,0.567,0.256,0.567,0.568v6.043C383.682,80.057,383.427,80.313,383.115,80.313"/>
<path fill="none" stroke="#2E2E2E" stroke-miterlimit="10" d="M383.115,80.313h-9.618c-0.312,0-0.567-0.256-0.567-0.566v-6.043
	c0-0.313,0.256-0.568,0.567-0.568h9.618c0.312,0,0.567,0.256,0.567,0.568v6.043C383.682,80.057,383.427,80.313,383.115,80.313z"/>
<path fill="#D2E38B" d="M397.555,80.313h-9.617c-0.313,0-0.567-0.256-0.567-0.566v-6.043c0-0.313,0.255-0.568,0.567-0.568h9.617
	c0.313,0,0.567,0.256,0.567,0.568v6.043C398.122,80.057,397.867,80.313,397.555,80.313"/>
<path fill="none" stroke="#212222" stroke-miterlimit="10" d="M397.555,80.313h-9.617c-0.313,0-0.567-0.256-0.567-0.566v-6.043
	c0-0.313,0.255-0.568,0.567-0.568h9.617c0.313,0,0.567,0.256,0.567,0.568v6.043C398.122,80.057,397.867,80.313,397.555,80.313z"/>
<path fill="#D2E38B" d="M411.996,80.313h-9.618c-0.312,0-0.567-0.256-0.567-0.566v-6.043c0-0.313,0.256-0.568,0.567-0.568h9.618
	c0.313,0,0.566,0.256,0.566,0.568v6.043C412.563,80.057,412.309,80.313,411.996,80.313"/>
<path fill="none" stroke="#212222" stroke-miterlimit="10" d="M411.996,80.313h-9.618c-0.312,0-0.567-0.256-0.567-0.566v-6.043
	c0-0.313,0.256-0.568,0.567-0.568h9.618c0.313,0,0.566,0.256,0.566,0.568v6.043C412.563,80.057,412.309,80.313,411.996,80.313z"/>
<path fill="#B6B6B6" d="M426.437,80.313h-9.618c-0.313,0-0.566-0.256-0.566-0.566v-6.043c0-0.313,0.253-0.568,0.566-0.568h9.618
	c0.312,0,0.567,0.256,0.567,0.568v6.043C427.004,80.057,426.748,80.313,426.437,80.313"/>
<path fill="none" stroke="#2E2E2E" stroke-miterlimit="10" d="M426.437,80.313h-9.618c-0.313,0-0.566-0.256-0.566-0.566v-6.043
	c0-0.313,0.253-0.568,0.566-0.568h9.618c0.312,0,0.567,0.256,0.567,0.568v6.043C427.004,80.057,426.748,80.313,426.437,80.313z"/>
<path fill="#B6B6B6" d="M440.877,80.313h-9.618c-0.312,0-0.568-0.256-0.568-0.566v-6.043c0-0.313,0.256-0.568,0.568-0.568h9.618
	c0.313,0,0.566,0.256,0.566,0.568v6.043C441.443,80.057,441.19,80.313,440.877,80.313"/>
<path fill="none" stroke="#2E2E2E" stroke-miterlimit="10" d="M440.877,80.313h-9.618c-0.312,0-0.568-0.256-0.568-0.566v-6.043
	c0-0.313,0.256-0.568,0.568-0.568h9.618c0.313,0,0.566,0.256,0.566,0.568v6.043C441.443,80.057,441.19,80.313,440.877,80.313z"/>
<path fill="#B6B6B6" d="M455.317,80.313h-9.618c-0.313,0-0.566-0.256-0.566-0.566v-6.043c0-0.313,0.253-0.568,0.566-0.568h9.618
	c0.312,0,0.567,0.256,0.567,0.568v6.043C455.885,80.057,455.629,80.313,455.317,80.313"/>
<path fill="none" stroke="#2E2E2E" stroke-miterlimit="10" d="M455.317,80.313h-9.618c-0.313,0-0.566-0.256-0.566-0.566v-6.043
	c0-0.313,0.253-0.568,0.566-0.568h9.618c0.312,0,0.567,0.256,0.567,0.568v6.043C455.885,80.057,455.629,80.313,455.317,80.313z"/>
<path fill="#B6B6B6" d="M469.758,80.313h-9.618c-0.312,0-0.568-0.256-0.568-0.566v-6.043c0-0.313,0.256-0.568,0.568-0.568h9.618
	c0.313,0,0.566,0.256,0.566,0.568v6.043C470.324,80.057,470.071,80.313,469.758,80.313"/>
<path fill="none" stroke="#2E2E2E" stroke-miterlimit="10" d="M469.758,80.313h-9.618c-0.312,0-0.568-0.256-0.568-0.566v-6.043
	c0-0.313,0.256-0.568,0.568-0.568h9.618c0.313,0,0.566,0.256,0.566,0.568v6.043C470.324,80.057,470.071,80.313,469.758,80.313z"/>
<path fill="#B6B6B6" d="M484.199,80.313h-9.619c-0.312,0-0.566-0.256-0.566-0.566v-6.043c0-0.313,0.255-0.568,0.566-0.568h9.619
	c0.311,0,0.567,0.256,0.567,0.568v6.043C484.766,80.057,484.51,80.313,484.199,80.313"/>
<path fill="none" stroke="#2E2E2E" stroke-miterlimit="10" d="M484.199,80.313h-9.619c-0.312,0-0.566-0.256-0.566-0.566v-6.043
	c0-0.313,0.255-0.568,0.566-0.568h9.619c0.311,0,0.567,0.256,0.567,0.568v6.043C484.766,80.057,484.51,80.313,484.199,80.313z"/>
<path fill="#B6B6B6" d="M498.639,80.313h-9.618c-0.312,0-0.567-0.256-0.567-0.566v-6.043c0-0.313,0.255-0.568,0.567-0.568h9.618
	c0.313,0,0.567,0.256,0.567,0.568v6.043C499.206,80.057,498.952,80.313,498.639,80.313"/>
<path fill="none" stroke="#2E2E2E" stroke-miterlimit="10" d="M498.639,80.313h-9.618c-0.312,0-0.567-0.256-0.567-0.566v-6.043
	c0-0.313,0.255-0.568,0.567-0.568h9.618c0.313,0,0.567,0.256,0.567,0.568v6.043C499.206,80.057,498.952,80.313,498.639,80.313z"/>
<path fill="#B6B6B6" d="M513.08,80.313h-9.619c-0.312,0-0.567-0.256-0.567-0.566v-6.043c0-0.313,0.255-0.568,0.567-0.568h9.619
	c0.312,0,0.567,0.256,0.567,0.568v6.043C513.647,80.057,513.392,80.313,513.08,80.313"/>
<path fill="none" stroke="#2E2E2E" stroke-miterlimit="10" d="M513.08,80.313h-9.619c-0.312,0-0.567-0.256-0.567-0.566v-6.043
	c0-0.313,0.255-0.568,0.567-0.568h9.619c0.312,0,0.567,0.256,0.567,0.568v6.043C513.647,80.057,513.392,80.313,513.08,80.313z"/>
<path fill="#B6B6B6" d="M527.52,80.313h-9.618c-0.312,0-0.567-0.256-0.567-0.566v-6.043c0-0.313,0.255-0.568,0.567-0.568h9.618
	c0.313,0,0.567,0.256,0.567,0.568v6.043C528.087,80.057,527.833,80.313,527.52,80.313"/>
<path fill="none" stroke="#2E2E2E" stroke-miterlimit="10" d="M527.52,80.313h-9.618c-0.312,0-0.567-0.256-0.567-0.566v-6.043
	c0-0.313,0.255-0.568,0.567-0.568h9.618c0.313,0,0.567,0.256,0.567,0.568v6.043C528.087,80.057,527.833,80.313,527.52,80.313z"/>
<path fill="#B6B6B6" d="M541.961,80.313h-9.619c-0.312,0-0.567-0.256-0.567-0.566v-6.043c0-0.313,0.255-0.568,0.567-0.568h9.619
	c0.312,0,0.567,0.256,0.567,0.568v6.043C542.528,80.057,542.273,80.313,541.961,80.313"/>
<path fill="none" stroke="#2E2E2E" stroke-miterlimit="10" d="M541.961,80.313h-9.619c-0.312,0-0.567-0.256-0.567-0.566v-6.043
	c0-0.313,0.255-0.568,0.567-0.568h9.619c0.312,0,0.567,0.256,0.567,0.568v6.043C542.528,80.057,542.273,80.313,541.961,80.313z"/>
<path fill="#B6B6B6" d="M556.401,80.313h-9.618c-0.313,0-0.567-0.256-0.567-0.566v-6.043c0-0.313,0.254-0.568,0.567-0.568h9.618
	c0.312,0,0.568,0.256,0.568,0.568v6.043C556.969,80.057,556.713,80.313,556.401,80.313"/>
<path fill="none" stroke="#2E2E2E" stroke-miterlimit="10" d="M556.401,80.313h-9.618c-0.313,0-0.567-0.256-0.567-0.566v-6.043
	c0-0.313,0.254-0.568,0.567-0.568h9.618c0.312,0,0.568,0.256,0.568,0.568v6.043C556.969,80.057,556.713,80.313,556.401,80.313z"/>
<path fill="#B6B6B6" d="M570.842,80.313h-9.618c-0.311,0-0.566-0.256-0.566-0.566v-6.043c0-0.313,0.255-0.568,0.566-0.568h9.618
	c0.312,0,0.566,0.256,0.566,0.568v6.043C571.408,80.057,571.154,80.313,570.842,80.313"/>
<path fill="none" stroke="#2E2E2E" stroke-miterlimit="10" d="M570.842,80.313h-9.618c-0.311,0-0.566-0.256-0.566-0.566v-6.043
	c0-0.313,0.255-0.568,0.566-0.568h9.618c0.312,0,0.566,0.256,0.566,0.568v6.043C571.408,80.057,571.154,80.313,570.842,80.313z"/>
<polyline fill="none" stroke="#FFFFFF" stroke-miterlimit="10" points="470.957,46.211 566.033,46.211 566.033,53.029 "/>
<polyline fill="none" stroke="#FFFFFF" stroke-miterlimit="10" points="347.598,53.029 347.598,46.212 442.673,46.212 "/>
<text transform="matrix(0.9987 0 0 1 447.1348 92.8008)" fill="#FFFFFF" font-family="'Arial-BoldMT'" font-size="5.5901">Unk/Aci</text>
<text transform="matrix(0.9987 0 0 1 308.1362 70.6914)" fill="#FFFFFF" font-family="'Arial-BoldMT'" font-size="5.5901">Power</text>
<polyline fill="none" stroke="#FFFFFF" stroke-miterlimit="10" points="442.674,90.916 347.598,90.916 347.598,84.1 "/>
<polyline fill="none" stroke="#FFFFFF" stroke-miterlimit="10" points="566.034,84.1 566.034,90.916 470.957,90.916 "/>
<text transform="matrix(0.9987 0 0 1 1043.4668 30.9053)" fill="#FFFFFF" font-family="'ArialMT'" font-size="11.5683">JFS516</text>
<text transform="matrix(0.9987 0 0 1 1020.8086 27.019)" fill="#FFFFFF" font-family="'ArialMT'" font-size="6.0657">MODEL</text>
<rect x="1020.342" y="20.386" fill="#FFFFFF" width="64.082" height="1.001"/>
<rect x="1044.372" y="17.682" fill="#FFFFFF" width="40.052" height="3.539"/>
</svg>
