<?xml version="1.0" encoding="utf-8"?>
<!-- Generator: Adobe Illustrator 16.0.0, SVG Export Plug-In . SVG Version: 6.00 Build 0)  -->
<!DOCTYPE svg PUBLIC "-//W3C//DTD SVG 1.1//EN" "http://www.w3.org/Graphics/SVG/1.1/DTD/svg11.dtd">
<svg version="1.1" id="图层_1" xmlns="http://www.w3.org/2000/svg" xmlns:xlink="http://www.w3.org/1999/xlink" x="0px" y="0px"
	 width="1275.59px" height="126.14px" viewBox="0 0 1275.59 126.14" enable-background="new 0 0 1275.59 126.14"
	 xml:space="preserve">
<g>
	<defs>
		<rect id="SVGID_1_" y="-0.001" width="1275.59" height="126.143"/>
	</defs>
	<clipPath id="SVGID_2_">
		<use xlink:href="#SVGID_1_"  overflow="visible"/>
	</clipPath>
	<rect clip-path="url(#SVGID_2_)" fill="#050B25" width="1275.59" height="126.142"/>
	
		<rect x="340.853" y="33.021" clip-path="url(#SVGID_2_)" fill="#EFE9DC" stroke="#050101" stroke-width="2" stroke-miterlimit="10" width="44.756" height="81.531"/>
	
		<rect x="392.731" y="33.021" clip-path="url(#SVGID_2_)" fill="#EFE9DC" stroke="#050101" stroke-width="2" stroke-miterlimit="10" width="44.756" height="81.531"/>
	<g clip-path="url(#SVGID_2_)">
		<defs>
			<rect id="SVGID_3_" x="464.15" y="-24.479" width="809.272" height="180"/>
		</defs>
		<clipPath id="SVGID_4_">
			<use xlink:href="#SVGID_3_"  overflow="visible"/>
		</clipPath>
		<path clip-path="url(#SVGID_4_)" fill="#90989D" d="M1366.256,63.294c0,33.564-29.596,60.774-66.105,60.774H547.814
			c-36.508,0-66.104-27.21-66.104-60.774l0,0c0-33.565,29.597-60.774,66.104-60.774h752.336
			C1336.66,2.52,1366.256,29.729,1366.256,63.294L1366.256,63.294z"/>
	</g>
	<g clip-path="url(#SVGID_2_)">
		<defs>
			<rect id="SVGID_5_" x="940.15" y="54.188" width="335.439" height="86"/>
		</defs>
		<clipPath id="SVGID_6_">
			<use xlink:href="#SVGID_5_"  overflow="visible"/>
		</clipPath>
		<path clip-path="url(#SVGID_6_)" fill="#121213" d="M1346.061,94.795c0-16.167-13.676-29.273-30.547-29.273H988.916
			c-16.871,0-30.549,13.106-30.549,29.273l0,0c0,16.167,13.678,29.273,30.549,29.273h326.598
			C1332.385,124.068,1346.061,110.962,1346.061,94.795L1346.061,94.795z"/>
	</g>
	<rect x="1114.869" y="50.194" clip-path="url(#SVGID_2_)" fill="#121213" width="141.281" height="18.881"/>
	<radialGradient id="SVGID_7_" cx="1010.1777" cy="95.9053" r="6.7988" gradientUnits="userSpaceOnUse">
		<stop  offset="0" style="stop-color:#FFFFFF"/>
		<stop  offset="1" style="stop-color:#000000"/>
	</radialGradient>
	
		<circle clip-path="url(#SVGID_2_)" fill="url(#SVGID_7_)" stroke="#101010" stroke-miterlimit="10" cx="1010.178" cy="95.905" r="6.799"/>
	<radialGradient id="SVGID_8_" cx="1047.1465" cy="95.9053" r="6.7988" gradientUnits="userSpaceOnUse">
		<stop  offset="0" style="stop-color:#FFFFFF"/>
		<stop  offset="1" style="stop-color:#000000"/>
	</radialGradient>
	
		<circle clip-path="url(#SVGID_2_)" fill="url(#SVGID_8_)" stroke="#101010" stroke-miterlimit="10" cx="1047.146" cy="95.905" r="6.799"/>
	<radialGradient id="SVGID_9_" cx="1084.1143" cy="95.9053" r="6.7993" gradientUnits="userSpaceOnUse">
		<stop  offset="0" style="stop-color:#FFFFFF"/>
		<stop  offset="1" style="stop-color:#000000"/>
	</radialGradient>
	
		<circle clip-path="url(#SVGID_2_)" fill="url(#SVGID_9_)" stroke="#101010" stroke-miterlimit="10" cx="1084.114" cy="95.905" r="6.8"/>
</g>
</svg>
