<?xml version="1.0" encoding="utf-8"?>
<!-- Generator: Adobe Illustrator 16.0.0, SVG Export Plug-In . SVG Version: 6.00 Build 0)  -->
<!DOCTYPE svg PUBLIC "-//W3C//DTD SVG 1.1//EN" "http://www.w3.org/Graphics/SVG/1.1/DTD/svg11.dtd">
<svg version="1.1" id="图层_1" xmlns="http://www.w3.org/2000/svg" xmlns:xlink="http://www.w3.org/1999/xlink" x="0px" y="0px"
	 width="1275.59px" height="504.57px" viewBox="0 0 1275.59 504.57" enable-background="new 0 0 1275.59 504.57"
	 xml:space="preserve">
<rect fill="#2F485B" width="1275.59" height="504.566"/>
<rect y="420.473" fill="#133E76" width="1275.59" height="84.094"/>
<rect x="13.903" y="423.028" fill="#0B1113" width="8.721" height="65.053"/>
<rect x="39.396" y="423.028" fill="#040000" width="957.124" height="58.903"/>
<rect x="39.396" y="481.932" fill="#070C0E" width="957.124" height="0.517"/>
<path fill="#184F8B" d="M1275.59,502.468c0,0.455-0.381,0.824-0.85,0.824h-80.68c-0.469,0-0.85-0.369-0.85-0.824v-78.333
	c0-0.455,0.381-0.824,0.85-0.824h80.68c0.469,0,0.85,0.369,0.85,0.824V502.468z"/>
<rect x="1159.748" y="423.311" fill="#133E76" width="41.002" height="81.256"/>
<rect x="1199.375" y="423.292" fill="#08223D" width="1.375" height="81.274"/>
<rect x="36.855" y="480.835" fill="#0F171D" width="959.664" height="2.146"/>
<rect x="36.855" y="421.146" fill="#0F171D" width="1238.734" height="2.146"/>
<text transform="matrix(1.0365 0 0 1 81.5366 497.1523)" fill="#040000" font-family="'SimHei'" font-size="11.6509">1</text>
<text transform="matrix(1.0365 0 0 1 167.8271 497.1523)" fill="#050101" font-family="'SimHei'" font-size="11.6509">2</text>
<text transform="matrix(1.0365 0 0 1 247.8286 497.1523)" fill="#050101" font-family="'SimHei'" font-size="11.6509">3</text>
<text transform="matrix(1.0365 0 0 1 327.8301 497.1523)" fill="#050101" font-family="'SimHei'" font-size="11.6509">4</text>
<text transform="matrix(1.0365 0 0 1 407.8311 497.1523)" fill="#050101" font-family="'SimHei'" font-size="11.6509">5</text>
<text transform="matrix(1.0365 0 0 1 487.8325 497.1523)" fill="#050101" font-family="'SimHei'" font-size="11.6509">6</text>
<text transform="matrix(1.0365 0 0 1 567.834 497.1523)" fill="#050101" font-family="'SimHei'" font-size="11.6509">7</text>
<text transform="matrix(1.0365 0 0 1 647.835 497.1523)" fill="#050101" font-family="'SimHei'" font-size="11.6509">8</text>
<text transform="matrix(1.0365 0 0 1 727.8359 497.1523)" fill="#050101" font-family="'SimHei'" font-size="11.6509">9</text>
<text transform="matrix(1.0365 0 0 1 807.8379 497.1523)" fill="#050101" font-family="'SimHei'" font-size="11.6509">10</text>
<text transform="matrix(1.0365 0 0 1 887.8389 497.1523)" fill="#050101" font-family="'SimHei'" font-size="11.6509">11</text>
<text transform="matrix(1.0365 0 0 1 967.8398 497.1523)" fill="#050101" font-family="'SimHei'" font-size="11.6509">12</text>
<rect y="336.378" fill="#133E76" width="1275.59" height="84.095"/>
<rect x="13.903" y="338.934" fill="#0B1113" width="8.721" height="65.053"/>
<rect x="39.396" y="338.934" fill="#040000" width="957.124" height="58.904"/>
<rect x="39.396" y="397.838" fill="#070C0E" width="957.124" height="0.516"/>
<path fill="#184F8B" d="M1275.59,418.373c0,0.455-0.381,0.825-0.85,0.825h-80.68c-0.469,0-0.85-0.37-0.85-0.825V340.04
	c0-0.455,0.381-0.824,0.85-0.824h80.68c0.469,0,0.85,0.369,0.85,0.824V418.373z"/>
<rect x="1159.748" y="339.216" fill="#133E76" width="41.002" height="81.257"/>
<rect x="1199.375" y="339.198" fill="#08223D" width="1.375" height="81.274"/>
<rect x="36.855" y="396.74" fill="#0F171D" width="959.664" height="2.146"/>
<rect x="36.855" y="337.052" fill="#0F171D" width="1238.734" height="2.146"/>
<text transform="matrix(1.0365 0 0 1 81.5366 413.0586)" fill="#040000" font-family="'SimHei'" font-size="11.6509">1</text>
<text transform="matrix(1.0365 0 0 1 167.8271 413.0586)" fill="#050101" font-family="'SimHei'" font-size="11.6509">2</text>
<text transform="matrix(1.0365 0 0 1 247.8286 413.0586)" fill="#050101" font-family="'SimHei'" font-size="11.6509">3</text>
<text transform="matrix(1.0365 0 0 1 327.8301 413.0586)" fill="#050101" font-family="'SimHei'" font-size="11.6509">4</text>
<text transform="matrix(1.0365 0 0 1 407.8311 413.0586)" fill="#050101" font-family="'SimHei'" font-size="11.6509">5</text>
<text transform="matrix(1.0365 0 0 1 487.8325 413.0586)" fill="#050101" font-family="'SimHei'" font-size="11.6509">6</text>
<text transform="matrix(1.0365 0 0 1 567.834 413.0586)" fill="#050101" font-family="'SimHei'" font-size="11.6509">7</text>
<text transform="matrix(1.0365 0 0 1 647.835 413.0586)" fill="#050101" font-family="'SimHei'" font-size="11.6509">8</text>
<text transform="matrix(1.0365 0 0 1 727.8359 413.0586)" fill="#050101" font-family="'SimHei'" font-size="11.6509">9</text>
<text transform="matrix(1.0365 0 0 1 807.8379 413.0586)" fill="#050101" font-family="'SimHei'" font-size="11.6509">10</text>
<text transform="matrix(1.0365 0 0 1 887.8389 413.0586)" fill="#050101" font-family="'SimHei'" font-size="11.6509">11</text>
<text transform="matrix(1.0365 0 0 1 967.8398 413.0586)" fill="#050101" font-family="'SimHei'" font-size="11.6509">12</text>
<rect y="252.283" fill="#133E76" width="1275.59" height="84.095"/>
<rect x="13.903" y="254.839" fill="#0B1113" width="8.721" height="65.054"/>
<rect x="39.396" y="254.839" fill="#040000" width="957.124" height="58.904"/>
<rect x="39.396" y="313.743" fill="#070C0E" width="957.124" height="0.516"/>
<path fill="#184F8B" d="M1275.59,334.278c0,0.455-0.381,0.825-0.85,0.825h-80.68c-0.469,0-0.85-0.37-0.85-0.825v-78.332
	c0-0.456,0.381-0.825,0.85-0.825h80.68c0.469,0,0.85,0.369,0.85,0.825V334.278z"/>
<rect x="1159.748" y="255.121" fill="#133E76" width="41.002" height="81.257"/>
<rect x="1199.375" y="255.104" fill="#08223D" width="1.375" height="81.274"/>
<rect x="36.855" y="312.646" fill="#0F171D" width="959.664" height="2.146"/>
<rect x="36.855" y="252.957" fill="#0F171D" width="1238.734" height="2.146"/>
<text transform="matrix(1.0365 0 0 1 81.5366 328.9639)" fill="#040000" font-family="'SimHei'" font-size="11.6509">1</text>
<text transform="matrix(1.0365 0 0 1 167.8271 328.9639)" fill="#050101" font-family="'SimHei'" font-size="11.6509">2</text>
<text transform="matrix(1.0365 0 0 1 247.8286 328.9639)" fill="#050101" font-family="'SimHei'" font-size="11.6509">3</text>
<text transform="matrix(1.0365 0 0 1 327.8301 328.9639)" fill="#050101" font-family="'SimHei'" font-size="11.6509">4</text>
<text transform="matrix(1.0365 0 0 1 407.8311 328.9639)" fill="#050101" font-family="'SimHei'" font-size="11.6509">5</text>
<text transform="matrix(1.0365 0 0 1 487.8325 328.9639)" fill="#050101" font-family="'SimHei'" font-size="11.6509">6</text>
<text transform="matrix(1.0365 0 0 1 567.834 328.9639)" fill="#050101" font-family="'SimHei'" font-size="11.6509">7</text>
<text transform="matrix(1.0365 0 0 1 647.835 328.9639)" fill="#050101" font-family="'SimHei'" font-size="11.6509">8</text>
<text transform="matrix(1.0365 0 0 1 727.8359 328.9639)" fill="#050101" font-family="'SimHei'" font-size="11.6509">9</text>
<text transform="matrix(1.0365 0 0 1 807.8379 328.9639)" fill="#050101" font-family="'SimHei'" font-size="11.6509">10</text>
<text transform="matrix(1.0365 0 0 1 887.8389 328.9639)" fill="#050101" font-family="'SimHei'" font-size="11.6509">11</text>
<text transform="matrix(1.0365 0 0 1 967.8398 328.9639)" fill="#050101" font-family="'SimHei'" font-size="11.6509">12</text>
<rect y="168.188" fill="#133E76" width="1275.59" height="84.095"/>
<rect x="13.903" y="170.745" fill="#0B1113" width="8.721" height="65.053"/>
<rect x="39.396" y="170.745" fill="#040000" width="957.124" height="58.903"/>
<rect x="39.396" y="229.648" fill="#070C0E" width="957.124" height="0.517"/>
<path fill="#184F8B" d="M1275.59,250.185c0,0.455-0.381,0.824-0.85,0.824h-80.68c-0.469,0-0.85-0.369-0.85-0.824v-78.333
	c0-0.455,0.381-0.825,0.85-0.825h80.68c0.469,0,0.85,0.37,0.85,0.825V250.185z"/>
<rect x="1159.748" y="171.026" fill="#133E76" width="41.002" height="81.257"/>
<rect x="1199.375" y="171.009" fill="#08223D" width="1.375" height="81.274"/>
<rect x="36.855" y="228.552" fill="#0F171D" width="959.664" height="2.146"/>
<rect x="36.855" y="168.862" fill="#0F171D" width="1238.734" height="2.146"/>
<text transform="matrix(1.0365 0 0 1 81.5366 244.8691)" fill="#040000" font-family="'SimHei'" font-size="11.6509">1</text>
<text transform="matrix(1.0365 0 0 1 167.8271 244.8691)" fill="#050101" font-family="'SimHei'" font-size="11.6509">2</text>
<text transform="matrix(1.0365 0 0 1 247.8286 244.8691)" fill="#050101" font-family="'SimHei'" font-size="11.6509">3</text>
<text transform="matrix(1.0365 0 0 1 327.8301 244.8691)" fill="#050101" font-family="'SimHei'" font-size="11.6509">4</text>
<text transform="matrix(1.0365 0 0 1 407.8311 244.8691)" fill="#050101" font-family="'SimHei'" font-size="11.6509">5</text>
<text transform="matrix(1.0365 0 0 1 487.8325 244.8691)" fill="#050101" font-family="'SimHei'" font-size="11.6509">6</text>
<text transform="matrix(1.0365 0 0 1 567.834 244.8691)" fill="#050101" font-family="'SimHei'" font-size="11.6509">7</text>
<text transform="matrix(1.0365 0 0 1 647.835 244.8691)" fill="#050101" font-family="'SimHei'" font-size="11.6509">8</text>
<text transform="matrix(1.0365 0 0 1 727.8359 244.8691)" fill="#050101" font-family="'SimHei'" font-size="11.6509">9</text>
<text transform="matrix(1.0365 0 0 1 807.8379 244.8691)" fill="#050101" font-family="'SimHei'" font-size="11.6509">10</text>
<text transform="matrix(1.0365 0 0 1 887.8389 244.8691)" fill="#050101" font-family="'SimHei'" font-size="11.6509">11</text>
<text transform="matrix(1.0365 0 0 1 967.8398 244.8691)" fill="#050101" font-family="'SimHei'" font-size="11.6509">12</text>
<rect y="84.094" fill="#133E76" width="1275.59" height="84.094"/>
<rect x="13.903" y="86.65" fill="#0B1113" width="8.721" height="65.053"/>
<rect x="39.396" y="86.65" fill="#040000" width="957.124" height="58.903"/>
<rect x="39.396" y="145.554" fill="#070C0E" width="957.124" height="0.516"/>
<path fill="#184F8B" d="M1275.59,166.09c0,0.455-0.381,0.825-0.85,0.825h-80.68c-0.469,0-0.85-0.37-0.85-0.825V87.757
	c0-0.455,0.381-0.824,0.85-0.824h80.68c0.469,0,0.85,0.369,0.85,0.824V166.09z"/>
<rect x="1159.748" y="86.933" fill="#133E76" width="41.002" height="81.256"/>
<rect x="1199.375" y="86.914" fill="#08223D" width="1.375" height="81.274"/>
<rect x="36.855" y="144.458" fill="#0F171D" width="959.664" height="2.146"/>
<rect x="36.855" y="84.769" fill="#0F171D" width="1238.734" height="2.146"/>
<text transform="matrix(1.0365 0 0 1 81.5366 160.7749)" fill="#040000" font-family="'SimHei'" font-size="11.6509">1</text>
<text transform="matrix(1.0365 0 0 1 167.8271 160.7749)" fill="#050101" font-family="'SimHei'" font-size="11.6509">2</text>
<text transform="matrix(1.0365 0 0 1 247.8286 160.7749)" fill="#050101" font-family="'SimHei'" font-size="11.6509">3</text>
<text transform="matrix(1.0365 0 0 1 327.8301 160.7749)" fill="#050101" font-family="'SimHei'" font-size="11.6509">4</text>
<text transform="matrix(1.0365 0 0 1 407.8311 160.7749)" fill="#050101" font-family="'SimHei'" font-size="11.6509">5</text>
<text transform="matrix(1.0365 0 0 1 487.8325 160.7749)" fill="#050101" font-family="'SimHei'" font-size="11.6509">6</text>
<text transform="matrix(1.0365 0 0 1 567.834 160.7749)" fill="#050101" font-family="'SimHei'" font-size="11.6509">7</text>
<text transform="matrix(1.0365 0 0 1 647.835 160.7749)" fill="#050101" font-family="'SimHei'" font-size="11.6509">8</text>
<text transform="matrix(1.0365 0 0 1 727.8359 160.7749)" fill="#050101" font-family="'SimHei'" font-size="11.6509">9</text>
<text transform="matrix(1.0365 0 0 1 807.8379 160.7749)" fill="#050101" font-family="'SimHei'" font-size="11.6509">10</text>
<text transform="matrix(1.0365 0 0 1 887.8389 160.7749)" fill="#050101" font-family="'SimHei'" font-size="11.6509">11</text>
<text transform="matrix(1.0365 0 0 1 967.8398 160.7749)" fill="#050101" font-family="'SimHei'" font-size="11.6509">12</text>
<rect fill="#133E76" width="1275.59" height="84.094"/>
<rect x="13.903" y="2.556" fill="#0B1113" width="8.721" height="65.053"/>
<rect x="39.396" y="2.556" fill="#040000" width="957.124" height="58.904"/>
<rect x="39.396" y="61.46" fill="#070C0E" width="957.124" height="0.516"/>
<path fill="#184F8B" d="M1275.59,81.995c0,0.455-0.381,0.825-0.85,0.825h-80.68c-0.469,0-0.85-0.37-0.85-0.825V3.663
	c0-0.456,0.381-0.825,0.85-0.825h80.68c0.469,0,0.85,0.369,0.85,0.825V81.995z"/>
<rect x="1159.748" y="2.838" fill="#133E76" width="41.002" height="81.256"/>
<rect x="1199.375" y="2.82" fill="#08223D" width="1.375" height="81.274"/>
<rect x="36.855" y="60.363" fill="#0F171D" width="959.664" height="2.146"/>
<rect x="36.855" y="0.674" fill="#0F171D" width="1238.734" height="2.146"/>
<text transform="matrix(1.0365 0 0 1 81.5366 76.6802)" fill="#040000" font-family="'SimHei'" font-size="11.6509">1</text>
<text transform="matrix(1.0365 0 0 1 167.8271 76.6802)" fill="#050101" font-family="'SimHei'" font-size="11.6509">2</text>
<text transform="matrix(1.0365 0 0 1 247.8286 76.6802)" fill="#050101" font-family="'SimHei'" font-size="11.6509">3</text>
<text transform="matrix(1.0365 0 0 1 327.8301 76.6802)" fill="#050101" font-family="'SimHei'" font-size="11.6509">4</text>
<text transform="matrix(1.0365 0 0 1 407.8311 76.6802)" fill="#050101" font-family="'SimHei'" font-size="11.6509">5</text>
<text transform="matrix(1.0365 0 0 1 487.8325 76.6802)" fill="#050101" font-family="'SimHei'" font-size="11.6509">6</text>
<text transform="matrix(1.0365 0 0 1 567.834 76.6802)" fill="#050101" font-family="'SimHei'" font-size="11.6509">7</text>
<text transform="matrix(1.0365 0 0 1 647.835 76.6802)" fill="#050101" font-family="'SimHei'" font-size="11.6509">8</text>
<text transform="matrix(1.0365 0 0 1 727.8359 76.6802)" fill="#050101" font-family="'SimHei'" font-size="11.6509">9</text>
<text transform="matrix(1.0365 0 0 1 807.8379 76.6802)" fill="#050101" font-family="'SimHei'" font-size="11.6509">10</text>
<text transform="matrix(1.0365 0 0 1 887.8389 76.6802)" fill="#050101" font-family="'SimHei'" font-size="11.6509">11</text>
<text transform="matrix(1.0365 0 0 1 967.8398 76.6802)" fill="#050101" font-family="'SimHei'" font-size="11.6509">12</text>
<g>
	<g>
		<path fill="#222222" d="M1200.75,458.983c0,0,5.598,12.079,14.072,0c0,0,0.48-0.636,0.801-3.337l38.219-11.921l7.516,9.06
			c0,0,7.355,10.967,14.232-0.477v9.536v4.768l-74.84-0.636V458.983z"/>
	</g>
	<path fill="#222222" d="M1200.75,472.652c0,0,5.598-12.079,14.072,0c0,0,0.48,0.636,0.801,3.338l38.219,11.92l7.516-9.06
		c0,0,7.355-10.967,14.232,0.477v-9.536v-4.768l-74.84,0.636V472.652z"/>
</g>
<g>
	<g>
		<path fill="#222222" d="M1200.75,375.469c0,0,5.598,12.079,14.072,0c0,0,0.48-0.636,0.801-3.338l38.219-11.92l7.516,9.06
			c0,0,7.355,10.966,14.232-0.477v9.535v4.769l-74.84-0.636V375.469z"/>
	</g>
	<path fill="#222222" d="M1200.75,389.137c0,0,5.598-12.079,14.072,0c0,0,0.48,0.636,0.801,3.338l38.219,11.92l7.516-9.059
		c0,0,7.355-10.967,14.232,0.477v-9.536v-4.769l-74.84,0.636V389.137z"/>
</g>
<g>
	<g>
		<path fill="#222222" d="M1200.75,291.953c0,0,5.598,12.079,14.072,0c0,0,0.48-0.636,0.801-3.337l38.219-11.92l7.516,9.059
			c0,0,7.355,10.967,14.232-0.477v9.536v4.768l-74.84-0.636V291.953z"/>
	</g>
	<path fill="#222222" d="M1200.75,305.622c0,0,5.598-12.079,14.072,0c0,0,0.48,0.636,0.801,3.338l38.219,11.92l7.516-9.06
		c0,0,7.355-10.967,14.232,0.477v-9.536v-4.768l-74.84,0.636V305.622z"/>
</g>
<g>
	<g>
		<path fill="#222222" d="M1200.75,208.438c0,0,5.598,12.079,14.072,0c0,0,0.48-0.636,0.801-3.338l38.219-11.92l7.516,9.059
			c0,0,7.355,10.967,14.232-0.477v9.536v4.769l-74.84-0.636V208.438z"/>
	</g>
	<path fill="#222222" d="M1200.75,222.106c0,0,5.598-12.079,14.072,0c0,0,0.48,0.636,0.801,3.338l38.219,11.92l7.516-9.059
		c0,0,7.355-10.967,14.232,0.477v-9.536v-4.769l-74.84,0.636V222.106z"/>
</g>
<g>
	<g>
		<path fill="#222222" d="M1200.75,124.923c0,0,5.598,12.079,14.072,0c0,0,0.48-0.636,0.801-3.338l38.219-11.919l7.516,9.059
			c0,0,7.355,10.967,14.232-0.477v9.536v4.768l-74.84-0.636V124.923z"/>
	</g>
	<path fill="#222222" d="M1200.75,138.591c0,0,5.598-12.078,14.072,0c0,0,0.48,0.637,0.801,3.338l38.219,11.921l7.516-9.06
		c0,0,7.355-10.967,14.232,0.477v-9.536v-4.768l-74.84,0.636V138.591z"/>
</g>
<g>
	<g>
		<path fill="#222222" d="M1200.75,41.408c0,0,5.598,12.079,14.072,0c0,0,0.48-0.636,0.801-3.338l38.219-11.92l7.516,9.059
			c0,0,7.355,10.966,14.232-0.477v9.536v4.769l-74.84-0.636V41.408z"/>
	</g>
	<path fill="#222222" d="M1200.75,55.076c0,0,5.598-12.079,14.072,0c0,0,0.48,0.636,0.801,3.338l38.219,11.92l7.516-9.059
		c0,0,7.355-10.966,14.232,0.477v-9.536v-4.769l-74.84,0.636V55.076z"/>
</g>
</svg>
