<?xml version="1.0" encoding="utf-8"?>
<!-- Generator: Adobe Illustrator 16.0.0, SVG Export Plug-In . SVG Version: 6.00 Build 0)  -->
<!DOCTYPE svg PUBLIC "-//W3C//DTD SVG 1.1//EN" "http://www.w3.org/Graphics/SVG/1.1/DTD/svg11.dtd">
<svg version="1.1" id="图层_1" xmlns="http://www.w3.org/2000/svg" xmlns:xlink="http://www.w3.org/1999/xlink" x="0px" y="0px"
	 width="22.678px" height="22.679px" viewBox="0 0 22.678 22.679" enable-background="new 0 0 22.678 22.679" xml:space="preserve">
<g>
	<path fill="#040000" d="M0,11.339C0,5.077,5.076,0,11.34,0c6.262,0,11.338,5.077,11.338,11.339c0,6.263-5.076,11.34-11.338,11.34
		C5.076,22.679,0,17.602,0,11.339"/>
	<path fill="#E8E7E6" d="M3.325,11.339c0-4.426,3.588-8.014,8.014-8.014s8.015,3.588,8.015,8.014c0,4.427-3.589,8.015-8.015,8.015
		S3.325,15.766,3.325,11.339"/>
	<circle fill="none" stroke="#C0BFBE" stroke-width="2" stroke-miterlimit="10" cx="11.339" cy="11.339" r="8.014"/>
	<path fill="#040000" d="M7.842,11.339c0-1.932,1.565-3.497,3.497-3.497s3.498,1.565,3.498,3.497c0,1.933-1.566,3.497-3.498,3.497
		S7.842,13.271,7.842,11.339"/>
</g>
</svg>
