<?xml version="1.0" encoding="utf-8"?>
<!-- Generator: Adobe Illustrator 16.0.0, SVG Export Plug-In . SVG Version: 6.00 Build 0)  -->
<!DOCTYPE svg PUBLIC "-//W3C//DTD SVG 1.1//EN" "http://www.w3.org/Graphics/SVG/1.1/DTD/svg11.dtd">
<svg version="1.1" id="图层_1" xmlns="http://www.w3.org/2000/svg" xmlns:xlink="http://www.w3.org/1999/xlink" x="0px" y="0px"
	 width="45.75px" height="32.031px" viewBox="0 0 45.75 32.031" enable-background="new 0 0 45.75 32.031" xml:space="preserve">
<g>
	<rect fill="#151209" width="45.75" height="32.031"/>
	<rect x="2.75" y="1.927" fill="#151209" width="40.25" height="28.18"/>
	<rect x="15.5" y="26.676" fill="#888888" width="14.75" height="3.431"/>
	<path fill="#888888" d="M45.75,13.156v-4.75H44V0.927h-5.25V0h-5.125v0.927h-8.188V0h-5.125v0.927h-8.188V0H7v0.927H1.75v7.479H0
		v4.75h1.75v6.288H0v4.75h1.75v6.912H44v-6.912h1.75v-4.75H44v-6.288H45.75z M42,29.106H3.75V2.927H42V29.106z"/>
	<path fill="#151209" d="M31.311,31.166H14.44v-5.552h16.871V31.166z M16.561,29.046h12.628v-1.311H16.561V29.046z"/>
</g>
</svg>
