<?xml version="1.0" encoding="utf-8"?>
<!-- Generator: Adobe Illustrator 16.0.0, SVG Export Plug-In . SVG Version: 6.00 Build 0)  -->
<!DOCTYPE svg PUBLIC "-//W3C//DTD SVG 1.1//EN" "http://www.w3.org/Graphics/SVG/1.1/DTD/svg11.dtd">
<svg version="1.1" id="图层_1" xmlns="http://www.w3.org/2000/svg" xmlns:xlink="http://www.w3.org/1999/xlink" x="0px" y="0px"
	 width="84px" height="9.328px" viewBox="0 0 84 9.328" enable-background="new 0 0 84 9.328" xml:space="preserve">
<g>
	<path fill="#8E8E8E" stroke="#4A4949" stroke-width="0.75" stroke-miterlimit="10" d="M76.342,7.394
		c0,0.965-0.809,1.746-1.803,1.746H8.824c-0.995,0-1.803-0.781-1.803-1.746V1.935c0-0.965,0.808-1.747,1.803-1.747h65.715
		c0.994,0,1.803,0.782,1.803,1.747V7.394z"/>
	<path fill="#090305" d="M11.55,8.318c-0.837,0-1.638-0.676-1.82-1.539L8.918,2.961C8.809,2.45,8.909,1.951,9.193,1.595
		c0.252-0.321,0.629-0.498,1.058-0.498h63.073c0.428,0,0.805,0.177,1.058,0.498c0.283,0.356,0.385,0.855,0.273,1.367l-0.812,3.817
		c-0.185,0.863-0.983,1.539-1.819,1.539H11.55z"/>
	<path fill="#B1B0B1" d="M73.61,6.724c-0.16,0.74-0.867,1.325-1.586,1.325H11.55c-0.719,0-1.426-0.586-1.586-1.325L9.152,2.972
		C8.969,2.126,9.46,1.427,10.251,1.427h63.073c0.792,0,1.28,0.7,1.099,1.545L73.61,6.724z"/>
	<path fill="#FBFAEF" d="M11.679,7.544c-0.492,0-0.999-0.43-1.108-0.939L9.765,2.89C9.706,2.601,9.752,2.333,9.897,2.154
		c0.115-0.144,0.288-0.221,0.495-0.221h62.789c0.209,0,0.379,0.077,0.494,0.221c0.146,0.179,0.195,0.447,0.131,0.737l-0.803,3.714
		c-0.109,0.511-0.618,0.939-1.107,0.939H11.679z"/>
	<path fill="#56554F" d="M12.584,6.226c-0.269,0-0.546-0.232-0.605-0.511l-0.438-1.727c-0.034-0.157-0.008-0.303,0.071-0.401
		c0.063-0.079,0.155-0.121,0.27-0.121h59.811c0.113,0,0.207,0.042,0.271,0.121c0.079,0.098,0.106,0.243,0.07,0.401l-0.437,1.726
		c-0.061,0.277-0.339,0.512-0.604,0.512H12.584L12.584,6.226z"/>
	<g>
		<path fill="#686761" d="M13.022,6.673c0,0.154-0.124,0.279-0.277,0.279l0,0c-0.153,0-0.278-0.125-0.278-0.279V2.656
			c0-0.154,0.125-0.279,0.278-0.279l0,0c0.154,0,0.277,0.125,0.277,0.279V6.673z"/>
		<path fill="#686761" d="M14.925,6.673c0,0.154-0.126,0.279-0.28,0.279l0,0c-0.153,0-0.277-0.125-0.277-0.279V2.656
			c0-0.154,0.125-0.279,0.277-0.279l0,0c0.154,0,0.28,0.125,0.28,0.279V6.673z"/>
		<path fill="#686761" d="M16.824,6.673c0,0.154-0.123,0.279-0.277,0.279l0,0c-0.154,0-0.277-0.125-0.277-0.279V2.656
			c0-0.154,0.125-0.279,0.277-0.279l0,0c0.154,0,0.277,0.125,0.277,0.279V6.673z"/>
		<path fill="#686761" d="M18.727,6.673c0,0.154-0.125,0.279-0.279,0.279l0,0c-0.153,0-0.279-0.125-0.279-0.279V2.656
			c0-0.154,0.125-0.279,0.279-0.279l0,0c0.154,0,0.279,0.125,0.279,0.279V6.673z"/>
		<path fill="#686761" d="M20.626,6.673c0,0.154-0.125,0.279-0.279,0.279l0,0c-0.154,0-0.277-0.125-0.277-0.279V2.656
			c0-0.154,0.125-0.279,0.277-0.279l0,0c0.153,0,0.279,0.125,0.279,0.279V6.673z"/>
		<path fill="#686761" d="M22.526,6.673c0,0.154-0.125,0.279-0.278,0.279l0,0c-0.155,0-0.278-0.125-0.278-0.279V2.656
			c0-0.154,0.123-0.279,0.278-0.279l0,0c0.153,0,0.278,0.125,0.278,0.279V6.673z"/>
		<path fill="#686761" d="M24.428,6.673c0,0.154-0.125,0.279-0.278,0.279l0,0c-0.153,0-0.279-0.125-0.279-0.279V2.656
			c0-0.154,0.125-0.279,0.279-0.279l0,0c0.153,0,0.278,0.125,0.278,0.279V6.673z"/>
		<path fill="#686761" d="M26.328,6.673c0,0.154-0.125,0.279-0.277,0.279l0,0c-0.153,0-0.278-0.125-0.278-0.279V2.656
			c0-0.154,0.125-0.279,0.278-0.279l0,0c0.152,0,0.277,0.125,0.277,0.279V6.673z"/>
		<path fill="#686761" d="M28.229,6.673c0,0.154-0.125,0.279-0.278,0.279l0,0c-0.154,0-0.278-0.125-0.278-0.279V2.656
			c0-0.154,0.125-0.279,0.278-0.279l0,0c0.153,0,0.278,0.125,0.278,0.279V6.673z"/>
		<path fill="#686761" d="M30.129,6.673c0,0.154-0.125,0.279-0.278,0.279l0,0c-0.154,0-0.276-0.125-0.276-0.279V2.656
			c0-0.154,0.124-0.279,0.276-0.279l0,0c0.154,0,0.278,0.125,0.278,0.279V6.673z"/>
		<path fill="#686761" d="M32.03,6.673c0,0.154-0.125,0.279-0.278,0.279l0,0c-0.155,0-0.278-0.125-0.278-0.279V2.656
			c0-0.154,0.125-0.279,0.278-0.279l0,0c0.151,0,0.278,0.125,0.278,0.279V6.673z"/>
		<path fill="#686761" d="M33.933,6.673c0,0.154-0.125,0.279-0.279,0.279l0,0c-0.154,0-0.278-0.125-0.278-0.279V2.656
			c0-0.154,0.125-0.279,0.278-0.279l0,0c0.152,0,0.279,0.125,0.279,0.279V6.673z"/>
		<path fill="#686761" d="M35.832,6.673c0,0.154-0.125,0.279-0.278,0.279l0,0c-0.154,0-0.277-0.125-0.277-0.279V2.656
			c0-0.154,0.123-0.279,0.277-0.279l0,0c0.154,0,0.278,0.125,0.278,0.279V6.673z"/>
		<path fill="#686761" d="M37.933,6.673c0,0.154-0.125,0.279-0.279,0.279l0,0c-0.154,0-0.278-0.125-0.278-0.279V2.656
			c0-0.154,0.124-0.279,0.278-0.279l0,0c0.154,0,0.279,0.125,0.279,0.279V6.673z"/>
		<path fill="#686761" d="M39.832,6.673c0,0.154-0.124,0.279-0.278,0.279l0,0c-0.154,0-0.277-0.125-0.277-0.279V2.656
			c0-0.154,0.125-0.279,0.277-0.279l0,0c0.154,0,0.278,0.125,0.278,0.279V6.673z"/>
		<path fill="#686761" d="M41.732,6.673c0,0.154-0.123,0.279-0.277,0.279l0,0c-0.154,0-0.28-0.125-0.28-0.279V2.656
			c0-0.154,0.125-0.279,0.28-0.279l0,0c0.154,0,0.277,0.125,0.277,0.279V6.673z"/>
		<path fill="#686761" d="M43.632,6.673c0,0.154-0.124,0.279-0.277,0.279l0,0c-0.153,0-0.278-0.125-0.278-0.279V2.656
			c0-0.154,0.125-0.279,0.278-0.279l0,0c0.153,0,0.277,0.125,0.277,0.279V6.673z"/>
		<path fill="#686761" d="M45.534,6.673c0,0.154-0.125,0.279-0.279,0.279l0,0c-0.152,0-0.277-0.125-0.277-0.279V2.656
			c0-0.154,0.125-0.279,0.277-0.279l0,0c0.154,0,0.279,0.125,0.279,0.279V6.673z"/>
		<path fill="#686761" d="M47.435,6.673c0,0.154-0.125,0.279-0.277,0.279l0,0c-0.154,0-0.278-0.125-0.278-0.279V2.656
			c0-0.154,0.124-0.279,0.278-0.279l0,0c0.152,0,0.277,0.125,0.277,0.279V6.673z"/>
		<path fill="#686761" d="M49.335,6.673c0,0.154-0.125,0.279-0.277,0.279l0,0c-0.154,0-0.279-0.125-0.279-0.279V2.656
			c0-0.154,0.125-0.279,0.279-0.279l0,0c0.152,0,0.277,0.125,0.277,0.279V6.673z"/>
		<path fill="#686761" d="M51.235,6.673c0,0.154-0.123,0.279-0.278,0.279l0,0c-0.153,0-0.276-0.125-0.276-0.279V2.656
			c0-0.154,0.123-0.279,0.276-0.279l0,0c0.155,0,0.278,0.125,0.278,0.279V6.673z"/>
		<path fill="#686761" d="M53.137,6.673c0,0.154-0.125,0.279-0.278,0.279l0,0c-0.153,0-0.277-0.125-0.277-0.279V2.656
			c0-0.154,0.124-0.279,0.277-0.279l0,0c0.153,0,0.278,0.125,0.278,0.279V6.673z"/>
		<path fill="#686761" d="M55.038,6.673c0,0.154-0.126,0.279-0.279,0.279l0,0c-0.152,0-0.277-0.125-0.277-0.279V2.656
			c0-0.154,0.125-0.279,0.277-0.279l0,0c0.153,0,0.279,0.125,0.279,0.279V6.673z"/>
		<path fill="#686761" d="M56.938,6.673c0,0.154-0.123,0.279-0.277,0.279l0,0c-0.154,0-0.279-0.125-0.279-0.279V2.656
			c0-0.154,0.125-0.279,0.279-0.279l0,0c0.154,0,0.277,0.125,0.277,0.279V6.673z"/>
		<path fill="#686761" d="M58.839,6.673c0,0.154-0.125,0.279-0.277,0.279l0,0c-0.154,0-0.278-0.125-0.278-0.279V2.656
			c0-0.154,0.124-0.279,0.278-0.279l0,0c0.152,0,0.277,0.125,0.277,0.279V6.673z"/>
		<path fill="#686761" d="M60.978,6.673c0,0.154-0.123,0.279-0.275,0.279l0,0c-0.154,0-0.279-0.125-0.279-0.279V2.656
			c0-0.154,0.125-0.279,0.279-0.279l0,0c0.152,0,0.275,0.125,0.275,0.279V6.673z"/>
		<path fill="#686761" d="M62.879,6.673c0,0.154-0.124,0.279-0.278,0.279l0,0c-0.152,0-0.276-0.125-0.276-0.279V2.656
			c0-0.154,0.124-0.279,0.276-0.279l0,0c0.154,0,0.278,0.125,0.278,0.279V6.673z"/>
		<path fill="#686761" d="M64.78,6.673c0,0.154-0.125,0.279-0.278,0.279l0,0c-0.153,0-0.278-0.125-0.278-0.279V2.656
			c0-0.154,0.125-0.279,0.278-0.279l0,0c0.153,0,0.278,0.125,0.278,0.279V6.673z"/>
		<path fill="#686761" d="M66.681,6.673c0,0.154-0.125,0.279-0.277,0.279l0,0c-0.153,0-0.278-0.125-0.278-0.279V2.656
			c0-0.154,0.125-0.279,0.278-0.279l0,0c0.152,0,0.277,0.125,0.277,0.279V6.673z"/>
		<path fill="#686761" d="M68.581,6.673c0,0.154-0.124,0.279-0.277,0.279l0,0c-0.154,0-0.279-0.125-0.279-0.279V2.656
			c0-0.154,0.125-0.279,0.279-0.279l0,0c0.153,0,0.277,0.125,0.277,0.279V6.673z"/>
		<path fill="#686761" d="M70.481,6.673c0,0.154-0.125,0.279-0.278,0.279l0,0c-0.153,0-0.277-0.125-0.277-0.279V2.656
			c0-0.154,0.124-0.279,0.277-0.279l0,0c0.153,0,0.278,0.125,0.278,0.279V6.673z"/>
		<path fill="#BDBCBC" d="M79.032,7.312c-0.33,0-0.639-0.178-0.805-0.465l-1.26-2.181c-0.166-0.287-0.166-0.644,0-0.931l1.26-2.181
			c0.166-0.287,0.475-0.465,0.805-0.465h2.519c0.333,0,0.64,0.179,0.806,0.465l1.26,2.181c0.167,0.288,0.167,0.644,0,0.932
			l-1.26,2.18c-0.166,0.285-0.473,0.465-0.806,0.465H79.032L79.032,7.312z"/>
		<path fill="#8E8E8E" d="M81.551,1.354c0.237,0,0.46,0.127,0.578,0.333l1.259,2.18c0.12,0.206,0.12,0.461,0,0.667l-1.259,2.181
			c-0.118,0.206-0.341,0.333-0.578,0.333h-2.519c-0.237,0-0.458-0.127-0.578-0.333l-1.258-2.181c-0.119-0.206-0.119-0.461,0-0.667
			l1.258-2.18c0.12-0.207,0.341-0.333,0.578-0.333H81.551 M81.551,0.828h-2.519c-0.424,0-0.819,0.229-1.032,0.596l-1.258,2.181
			c-0.216,0.368-0.216,0.825,0,1.193L78,6.978c0.213,0.367,0.608,0.597,1.032,0.597h2.519c0.425,0,0.821-0.229,1.034-0.597
			l1.257-2.181c0.212-0.368,0.212-0.825,0-1.193l-1.257-2.181C82.372,1.057,81.976,0.828,81.551,0.828"/>
		<path fill="#CCCDCE" d="M82.819,4.221c0,1.4-1.131,2.537-2.527,2.537s-2.527-1.136-2.527-2.537s1.131-2.536,2.527-2.536
			S82.819,2.821,82.819,4.221"/>
		<ellipse fill="none" stroke="#8E8E8E" stroke-width="0.25" stroke-miterlimit="10" cx="80.292" cy="4.22" rx="2.527" ry="2.537"/>
		<path fill="#424244" d="M81.854,4.221c0,0.865-0.699,1.567-1.563,1.567c-0.861,0-1.563-0.702-1.563-1.567
			c0-0.865,0.699-1.567,1.563-1.567S81.854,3.355,81.854,4.221"/>
		<circle fill="none" stroke="#060001" stroke-width="0.25" stroke-miterlimit="10" cx="80.292" cy="4.221" r="1.563"/>
		<path fill="#8E8E8E" d="M80.776,4.221c0,0.269-0.215,0.487-0.484,0.487s-0.484-0.218-0.484-0.487s0.217-0.487,0.484-0.487
			C80.562,3.733,80.776,3.952,80.776,4.221"/>
		<path fill="#BDBCBC" d="M2.454,7.312c-0.332,0-0.641-0.178-0.807-0.465L0.388,4.667c-0.166-0.287-0.166-0.644,0-0.931l1.259-2.181
			c0.167-0.287,0.476-0.465,0.807-0.465h2.518c0.331,0,0.64,0.179,0.806,0.465l1.257,2.181c0.166,0.288,0.166,0.644,0,0.932
			l-1.257,2.18C5.612,7.132,5.303,7.312,4.972,7.312H2.454L2.454,7.312z"/>
		<path fill="#8E8E8E" d="M4.972,1.354c0.238,0,0.459,0.127,0.579,0.333l1.259,2.18c0.118,0.206,0.118,0.461,0,0.667L5.551,6.714
			c-0.12,0.206-0.34,0.333-0.579,0.333H2.454c-0.24,0-0.459-0.127-0.58-0.333L0.617,4.534c-0.12-0.206-0.12-0.461,0-0.667
			l1.257-2.18c0.121-0.207,0.34-0.333,0.58-0.333H4.972 M4.972,0.828H2.454c-0.425,0-0.821,0.229-1.035,0.596L0.161,3.604
			c-0.213,0.368-0.213,0.825,0,1.193L1.42,6.978c0.213,0.367,0.61,0.597,1.035,0.597h2.518c0.423,0,0.82-0.229,1.033-0.597
			l1.259-2.181c0.211-0.368,0.211-0.825,0-1.193L6.004,1.423C5.792,1.057,5.395,0.828,4.972,0.828"/>
		<path fill="#CCCDCE" d="M6.241,4.221c0,1.4-1.133,2.537-2.528,2.537c-1.398,0-2.53-1.136-2.53-2.537s1.132-2.536,2.53-2.536
			C5.108,1.685,6.241,2.821,6.241,4.221"/>
		<ellipse fill="none" stroke="#8E8E8E" stroke-width="0.25" stroke-miterlimit="10" cx="3.712" cy="4.22" rx="2.529" ry="2.537"/>
		<path fill="#424244" d="M5.274,4.221c0,0.865-0.699,1.567-1.561,1.567c-0.864,0-1.563-0.702-1.563-1.567
			c0-0.865,0.699-1.567,1.563-1.567C4.575,2.654,5.274,3.355,5.274,4.221"/>
		<ellipse fill="none" stroke="#060001" stroke-width="0.25" stroke-miterlimit="10" cx="3.712" cy="4.221" rx="1.567" ry="1.567"/>
		<path fill="#8E8E8E" d="M4.199,4.221c0,0.269-0.218,0.487-0.486,0.487c-0.27,0-0.487-0.218-0.487-0.487s0.217-0.487,0.487-0.487
			C3.981,3.733,4.199,3.952,4.199,4.221"/>
	</g>
</g>
</svg>
