<?xml version="1.0" encoding="utf-8"?>
<!-- Generator: Adobe Illustrator 16.0.0, SVG Export Plug-In . SVG Version: 6.00 Build 0)  -->
<!DOCTYPE svg PUBLIC "-//W3C//DTD SVG 1.1//EN" "http://www.w3.org/Graphics/SVG/1.1/DTD/svg11.dtd">
<svg version="1.1" id="图层_1" xmlns="http://www.w3.org/2000/svg" xmlns:xlink="http://www.w3.org/1999/xlink" x="0px" y="0px"
	 width="44.184px" height="37.148px" viewBox="0 0 44.184 37.148" enable-background="new 0 0 44.184 37.148" xml:space="preserve">
<g>
	<polygon fill="#B0AFB0" points="44.182,20.615 0,20.604 0.002,15.876 44.185,15.879 	"/>
	<polygon fill="none" stroke="#060001" stroke-miterlimit="10" points="44.182,20.615 0,20.604 0.002,15.876 44.185,15.879 	"/>
	<path fill="#0A0305" d="M3.517,18.574C3.517,8.318,11.834,0,22.091,0s18.576,8.318,18.576,18.574
		c0,10.259-8.319,18.574-18.576,18.574S3.517,28.833,3.517,18.574"/>
	<path fill="#DCDCDB" d="M4.997,18.574c0-9.441,7.651-17.094,17.094-17.094s17.096,7.653,17.096,17.094
		c0,9.445-7.653,17.098-17.096,17.098S4.997,28.019,4.997,18.574"/>
	<path fill="#9D9C9D" d="M6.45,18.574c0-8.639,6.999-15.64,15.64-15.64c8.646,0,15.645,7.001,15.645,15.64
		c0,8.645-6.999,15.647-15.645,15.647C13.449,34.221,6.45,27.219,6.45,18.574"/>
	<path fill="#1B1E1D" d="M7.039,18.574c0-8.311,6.739-15.053,15.052-15.053c8.314,0,15.056,6.742,15.056,15.053
		c0,8.316-6.741,15.053-15.056,15.053C13.778,33.626,7.039,26.89,7.039,18.574"/>
	<path fill="#3F3F41" d="M14.276,18.575c0-4.315,3.5-7.812,7.813-7.812c4.315,0,7.815,3.497,7.815,7.812
		c0,4.316-3.5,7.816-7.815,7.816C17.776,26.391,14.276,22.891,14.276,18.575"/>
	<path fill="#DCDCDB" d="M14.775,18.574c0-4.037,3.274-7.313,7.315-7.313s7.315,3.276,7.315,7.313c0,4.044-3.274,7.317-7.315,7.317
		S14.775,22.618,14.775,18.574"/>
	<path fill="#060001" d="M15.976,18.573c0-3.377,2.736-6.11,6.115-6.11c3.378,0,6.117,2.733,6.117,6.11
		c0,3.381-2.739,6.115-6.117,6.115C18.712,24.688,15.976,21.954,15.976,18.573"/>
	<path fill="#DCDCDB" d="M20.181,18.575c0-1.055,0.854-1.908,1.91-1.908c1.055,0,1.91,0.853,1.91,1.908
		c0,1.056-0.855,1.911-1.91,1.911C21.035,20.485,20.181,19.63,20.181,18.575"/>
</g>
</svg>
