<?xml version="1.0" encoding="utf-8"?>
<!-- Generator: Adobe Illustrator 16.0.0, SVG Export Plug-In . SVG Version: 6.00 Build 0)  -->
<!DOCTYPE svg PUBLIC "-//W3C//DTD SVG 1.1//EN" "http://www.w3.org/Graphics/SVG/1.1/DTD/svg11.dtd">
<svg version="1.1" id="图层_1" xmlns="http://www.w3.org/2000/svg" xmlns:xlink="http://www.w3.org/1999/xlink" x="0px" y="0px"
	 width="38.591px" height="27.057px" viewBox="0 0 38.591 27.057" enable-background="new 0 0 38.591 27.057" xml:space="preserve">
<g>
	<path fill="#231815" d="M36.682,14.293h0.315h0.32c0.246,0,0.446-0.199,0.446-0.447v-0.447c0-0.246-0.2-0.448-0.446-0.448h-0.32
		V7.8c0-0.246-0.198-0.448-0.446-0.448h-6.55V2.814c0-0.119-0.122-0.217-0.271-0.217h-3.517V0.14c0-0.078-0.079-0.14-0.177-0.14
		H12.468c-0.098,0-0.175,0.062-0.175,0.14v2.458H8.776c-0.151,0-0.272,0.098-0.272,0.217v4.537H1.956
		c-0.25,0-0.449,0.202-0.449,0.448v5.15H1.19c-0.248,0-0.447,0.202-0.447,0.448v0.447c0,0.248,0.199,0.447,0.447,0.447h0.316h0.318
		h0.261v5.525H1.825H1.507H1.19c-0.248,0-0.447,0.199-0.447,0.447v0.447c0,0.25,0.199,0.449,0.447,0.449h0.316v5.447
		c0,0.248,0.199,0.448,0.449,0.448h34.595c0.248,0,0.446-0.2,0.446-0.448v-5.447h0.32c0.246,0,0.446-0.199,0.446-0.449v-0.447
		c0-0.248-0.2-0.447-0.446-0.447h-0.32h-0.315H36.42v-5.525H36.682z"/>
	<rect x="7.967" y="15.078" fill="#9E9E9E" width="1.354" height="9.705"/>
	<rect x="7.967" y="20.424" fill="#7F8080" width="1.354" height="4.359"/>
	<rect x="7.967" y="21.947" fill="#5E5E60" width="1.354" height="2.836"/>
	<rect x="10.997" y="15.078" fill="#9E9E9E" width="1.354" height="9.705"/>
	<rect x="10.997" y="20.424" fill="#7F8080" width="1.354" height="4.359"/>
	<rect x="10.997" y="21.947" fill="#5E5E60" width="1.354" height="2.836"/>
	<rect x="14.03" y="15.078" fill="#9E9E9E" width="1.354" height="9.705"/>
	<rect x="14.03" y="20.424" fill="#7F8080" width="1.354" height="4.359"/>
	<rect x="14.03" y="21.947" fill="#5E5E60" width="1.354" height="2.836"/>
	<rect x="17.06" y="15.078" fill="#9E9E9E" width="1.354" height="9.705"/>
	<rect x="17.06" y="20.424" fill="#7F8080" width="1.354" height="4.359"/>
	<rect x="17.06" y="21.947" fill="#5E5E60" width="1.354" height="2.836"/>
	<rect x="20.092" y="15.078" fill="#9E9E9E" width="1.354" height="9.705"/>
	<rect x="20.092" y="20.424" fill="#7F8080" width="1.354" height="4.359"/>
	<rect x="20.092" y="21.947" fill="#5E5E60" width="1.354" height="2.836"/>
	<rect x="23.122" y="15.078" fill="#9E9E9E" width="1.354" height="9.705"/>
	<rect x="23.122" y="20.424" fill="#7F8080" width="1.354" height="4.359"/>
	<rect x="23.122" y="21.947" fill="#5E5E60" width="1.354" height="2.836"/>
	<rect x="26.155" y="15.078" fill="#9E9E9E" width="1.354" height="9.705"/>
	<rect x="26.155" y="20.424" fill="#7F8080" width="1.354" height="4.359"/>
	<rect x="26.155" y="21.947" fill="#5E5E60" width="1.354" height="2.836"/>
	<rect x="29.185" y="15.078" fill="#9E9E9E" width="1.354" height="9.705"/>
	<rect x="29.185" y="20.424" fill="#7F8080" width="1.354" height="4.359"/>
	<rect x="29.185" y="21.947" fill="#5E5E60" width="1.354" height="2.836"/>
	<g>
		<defs>
			<rect id="SVGID_1_" x="0.001" y="3.126" width="8.503" height="4.227"/>
		</defs>
		<clipPath id="SVGID_2_">
			<use xlink:href="#SVGID_1_"  overflow="visible"/>
		</clipPath>
		
			<linearGradient id="SVGID_3_" gradientUnits="userSpaceOnUse" x1="-883.4292" y1="303.3521" x2="-882.4292" y2="303.3521" gradientTransform="matrix(-10.5922 0 0 10.5922 -9347.1338 -3207.9224)">
			<stop  offset="0" style="stop-color:#F0F0F0"/>
			<stop  offset="1" style="stop-color:#A3A3A3"/>
		</linearGradient>
		<rect x="0.001" y="3.126" clip-path="url(#SVGID_2_)" fill="url(#SVGID_3_)" width="8.503" height="4.227"/>
	</g>
	<rect y="3.125" fill="none" stroke="#231815" stroke-width="0.451" stroke-miterlimit="10" width="8.504" height="4.228"/>
	<g>
		<defs>
			<rect id="SVGID_4_" x="30.088" y="3.126" width="8.503" height="4.227"/>
		</defs>
		<clipPath id="SVGID_5_">
			<use xlink:href="#SVGID_4_"  overflow="visible"/>
		</clipPath>
		
			<linearGradient id="SVGID_6_" gradientUnits="userSpaceOnUse" x1="-883.4292" y1="303.3521" x2="-882.4292" y2="303.3521" gradientTransform="matrix(-10.5922 0 0 10.5922 -9317.0479 -3207.9224)">
			<stop  offset="0" style="stop-color:#F0F0F0"/>
			<stop  offset="1" style="stop-color:#A3A3A3"/>
		</linearGradient>
		<rect x="30.088" y="3.126" clip-path="url(#SVGID_5_)" fill="url(#SVGID_6_)" width="8.503" height="4.227"/>
	</g>
	
		<rect x="30.087" y="3.125" fill="none" stroke="#231815" stroke-width="0.451" stroke-miterlimit="10" width="8.504" height="4.228"/>
</g>
</svg>
