<?xml version="1.0" encoding="utf-8"?>
<!-- Generator: Adobe Illustrator 16.0.0, SVG Export Plug-In . SVG Version: 6.00 Build 0)  -->
<!DOCTYPE svg PUBLIC "-//W3C//DTD SVG 1.1//EN" "http://www.w3.org/Graphics/SVG/1.1/DTD/svg11.dtd">
<svg version="1.1" id="图层_1" xmlns="http://www.w3.org/2000/svg" xmlns:xlink="http://www.w3.org/1999/xlink" x="0px" y="0px"
	 width="38.85px" height="27.057px" viewBox="0 0 38.85 27.057" enable-background="new 0 0 38.85 27.057" xml:space="preserve">
<path fill="#231815" d="M2.168,12.764H1.853h-0.32c-0.246,0-0.446,0.199-0.446,0.447v0.447c0,0.246,0.2,0.448,0.446,0.448h0.32v5.15
	c0,0.246,0.198,0.448,0.446,0.448h6.55v4.537c0,0.119,0.122,0.217,0.271,0.217h3.517v2.458c0,0.078,0.079,0.14,0.177,0.14h13.568
	c0.098,0,0.175-0.062,0.175-0.14v-2.458h3.517c0.151,0,0.272-0.098,0.272-0.217v-4.537h6.548c0.25,0,0.449-0.202,0.449-0.448v-5.15
	h0.316c0.248,0,0.447-0.202,0.447-0.448v-0.447c0-0.248-0.199-0.447-0.447-0.447h-0.316h-0.318h-0.261V7.238h0.261h0.318h0.316
	c0.248,0,0.447-0.199,0.447-0.447V6.344c0-0.25-0.199-0.449-0.447-0.449h-0.316V0.447C37.343,0.199,37.144,0,36.894,0H2.299
	C2.051,0,1.853,0.199,1.853,0.447v5.447h-0.32c-0.246,0-0.446,0.199-0.446,0.449v0.447c0,0.248,0.2,0.447,0.446,0.447h0.32h0.315
	H2.43v5.525H2.168z"/>
<rect x="29.528" y="2.273" fill="#9E9E9E" width="1.354" height="9.705"/>
<rect x="29.528" y="2.273" fill="#7F8080" width="1.354" height="4.359"/>
<rect x="29.528" y="2.273" fill="#5E5E60" width="1.354" height="2.836"/>
<rect x="26.499" y="2.273" fill="#9E9E9E" width="1.354" height="9.705"/>
<rect x="26.499" y="2.273" fill="#7F8080" width="1.354" height="4.359"/>
<rect x="26.499" y="2.273" fill="#5E5E60" width="1.354" height="2.836"/>
<rect x="23.466" y="2.273" fill="#9E9E9E" width="1.354" height="9.705"/>
<rect x="23.466" y="2.273" fill="#7F8080" width="1.354" height="4.359"/>
<rect x="23.466" y="2.273" fill="#5E5E60" width="1.354" height="2.836"/>
<rect x="20.436" y="2.273" fill="#9E9E9E" width="1.354" height="9.705"/>
<rect x="20.436" y="2.273" fill="#7F8080" width="1.354" height="4.359"/>
<rect x="20.436" y="2.273" fill="#5E5E60" width="1.354" height="2.836"/>
<rect x="17.403" y="2.273" fill="#9E9E9E" width="1.354" height="9.705"/>
<rect x="17.403" y="2.273" fill="#7F8080" width="1.354" height="4.359"/>
<rect x="17.403" y="2.273" fill="#5E5E60" width="1.354" height="2.836"/>
<rect x="14.374" y="2.273" fill="#9E9E9E" width="1.354" height="9.705"/>
<rect x="14.374" y="2.273" fill="#7F8080" width="1.354" height="4.359"/>
<rect x="14.374" y="2.273" fill="#5E5E60" width="1.354" height="2.836"/>
<rect x="11.341" y="2.273" fill="#9E9E9E" width="1.354" height="9.705"/>
<rect x="11.341" y="2.273" fill="#7F8080" width="1.354" height="4.359"/>
<rect x="11.341" y="2.273" fill="#5E5E60" width="1.354" height="2.836"/>
<rect x="8.311" y="2.273" fill="#9E9E9E" width="1.354" height="9.705"/>
<rect x="8.311" y="2.273" fill="#7F8080" width="1.354" height="4.359"/>
<rect x="8.311" y="2.273" fill="#5E5E60" width="1.354" height="2.836"/>
<g>
	<defs>
		<rect id="SVGID_1_" x="30.346" y="19.704" width="8.503" height="4.227"/>
	</defs>
	<clipPath id="SVGID_2_">
		<use xlink:href="#SVGID_1_"  overflow="visible"/>
	</clipPath>
	
		<linearGradient id="SVGID_3_" gradientUnits="userSpaceOnUse" x1="-867.5923" y1="318.4321" x2="-866.5923" y2="318.4321" gradientTransform="matrix(10.5922 0 0 -10.5922 9218.2354 3394.7104)">
		<stop  offset="0" style="stop-color:#F0F0F0"/>
		<stop  offset="1" style="stop-color:#A3A3A3"/>
	</linearGradient>
	<rect x="30.346" y="19.704" clip-path="url(#SVGID_2_)" fill="url(#SVGID_3_)" width="8.503" height="4.227"/>
</g>
<rect x="30.346" y="19.704" fill="none" stroke="#231815" stroke-width="0.451" stroke-miterlimit="10" width="8.504" height="4.228"/>
<g>
	<defs>
		<rect id="SVGID_4_" x="0.259" y="19.704" width="8.503" height="4.227"/>
	</defs>
	<clipPath id="SVGID_5_">
		<use xlink:href="#SVGID_4_"  overflow="visible"/>
	</clipPath>
	
		<linearGradient id="SVGID_6_" gradientUnits="userSpaceOnUse" x1="-867.5923" y1="318.4321" x2="-866.5923" y2="318.4321" gradientTransform="matrix(10.5922 0 0 -10.5922 9188.1494 3394.7104)">
		<stop  offset="0" style="stop-color:#F0F0F0"/>
		<stop  offset="1" style="stop-color:#A3A3A3"/>
	</linearGradient>
	<rect x="0.259" y="19.704" clip-path="url(#SVGID_5_)" fill="url(#SVGID_6_)" width="8.503" height="4.227"/>
</g>
<rect x="0.259" y="19.704" fill="none" stroke="#231815" stroke-width="0.451" stroke-miterlimit="10" width="8.504" height="4.228"/>
</svg>
