<?xml version="1.0" encoding="utf-8"?>
<!-- Generator: Adobe Illustrator 16.0.0, SVG Export Plug-In . SVG Version: 6.00 Build 0)  -->
<!DOCTYPE svg PUBLIC "-//W3C//DTD SVG 1.1//EN" "http://www.w3.org/Graphics/SVG/1.1/DTD/svg11.dtd">
<svg version="1.1" id="图层_1" xmlns="http://www.w3.org/2000/svg" xmlns:xlink="http://www.w3.org/1999/xlink" x="0px" y="0px"
	 width="108.087px" height="28.144px" viewBox="0 0 108.087 28.144" enable-background="new 0 0 108.087 28.144"
	 xml:space="preserve">
<g id="XMLID_121_">
	<path id="XMLID_240_" fill="#151618" stroke="#B9B8B8" stroke-miterlimit="10" d="M96.716,28.144H11.371
		c-4.442,0-8.248-2.945-9.045-6.999L0.15,10.05C-0.876,4.817,3.459,0,9.193,0h89.699c5.735,0,10.069,4.817,9.044,10.05
		l-2.177,11.095C104.965,25.197,101.158,28.144,96.716,28.144z"/>
	<g id="XMLID_237_">
		<path id="XMLID_239_" fill="#1C305F" d="M11.371,26.271c-3.564,0-6.604-2.309-7.229-5.491L1.966,9.686
			c-0.354-1.809,0.11-3.617,1.312-5.097c1.401-1.726,3.559-2.716,5.916-2.716h89.698c2.358,0,4.516,0.99,5.916,2.716
			c1.201,1.479,1.666,3.288,1.313,5.097l-2.176,11.094c-0.625,3.183-3.663,5.491-7.228,5.491L11.371,26.271L11.371,26.271z"/>
		<path id="XMLID_238_" fill="#1C305F" d="M11.371,26.271c-3.564,0-6.604-2.309-7.229-5.491L1.966,9.686
			c-0.354-1.809,0.11-3.617,1.312-5.097c1.401-1.726,3.559-2.716,5.916-2.716h89.698c2.358,0,4.516,0.99,5.916,2.716
			c1.201,1.479,1.666,3.288,1.313,5.097l-2.176,11.094c-0.625,3.183-3.663,5.491-7.228,5.491L11.371,26.271L11.371,26.271z"/>
	</g>
	<rect id="XMLID_236_" x="7.809" y="8.936" fill="#46729B" width="91.219" height="9.722"/>
	<g id="XMLID_217_">
		<rect id="XMLID_235_" x="11.254" y="11.045" fill="#040000" width="2.902" height="1.652"/>
		<rect id="XMLID_234_" x="16.015" y="11.045" fill="#040000" width="2.901" height="1.652"/>
		<rect id="XMLID_233_" x="20.774" y="11.045" fill="#040000" width="2.901" height="1.652"/>
		<rect id="XMLID_232_" x="25.535" y="11.045" fill="#040000" width="2.902" height="1.652"/>
		<rect id="XMLID_231_" x="30.295" y="11.045" fill="#040000" width="2.902" height="1.652"/>
		<rect id="XMLID_230_" x="35.057" y="11.045" fill="#040000" width="2.9" height="1.652"/>
		<rect id="XMLID_229_" x="39.816" y="11.045" fill="#040000" width="2.902" height="1.652"/>
		<rect id="XMLID_228_" x="44.576" y="11.045" fill="#040000" width="2.902" height="1.652"/>
		<rect id="XMLID_227_" x="49.338" y="11.045" fill="#040000" width="2.901" height="1.652"/>
		<rect id="XMLID_226_" x="54.098" y="11.045" fill="#040000" width="2.901" height="1.652"/>
		<rect id="XMLID_225_" x="58.857" y="11.045" fill="#040000" width="2.902" height="1.652"/>
		<rect id="XMLID_224_" x="63.619" y="11.045" fill="#040000" width="2.901" height="1.652"/>
		<rect id="XMLID_223_" x="68.379" y="11.045" fill="#040000" width="2.902" height="1.652"/>
		<rect id="XMLID_222_" x="73.14" y="11.045" fill="#040000" width="2.901" height="1.652"/>
		<rect id="XMLID_221_" x="77.9" y="11.045" fill="#040000" width="2.901" height="1.652"/>
		<rect id="XMLID_220_" x="82.66" y="11.045" fill="#040000" width="2.901" height="1.652"/>
		<rect id="XMLID_219_" x="87.42" y="11.045" fill="#040000" width="2.902" height="1.652"/>
		<rect id="XMLID_218_" x="92.182" y="11.045" fill="#040000" width="2.901" height="1.652"/>
	</g>
	<g id="XMLID_198_">
		<rect id="XMLID_216_" x="11.254" y="8.42" fill="#777676" width="2.902" height="0.516"/>
		<rect id="XMLID_215_" x="16.015" y="8.42" fill="#777676" width="2.901" height="0.516"/>
		<rect id="XMLID_214_" x="20.774" y="8.42" fill="#777676" width="2.901" height="0.516"/>
		<rect id="XMLID_213_" x="25.535" y="8.42" fill="#777676" width="2.902" height="0.516"/>
		<rect id="XMLID_212_" x="30.295" y="8.42" fill="#777676" width="2.902" height="0.516"/>
		<rect id="XMLID_211_" x="35.057" y="8.42" fill="#777676" width="2.9" height="0.516"/>
		<rect id="XMLID_210_" x="39.816" y="8.42" fill="#777676" width="2.902" height="0.516"/>
		<rect id="XMLID_209_" x="44.576" y="8.42" fill="#777676" width="2.902" height="0.516"/>
		<rect id="XMLID_208_" x="49.338" y="8.42" fill="#777676" width="2.901" height="0.516"/>
		<rect id="XMLID_207_" x="54.098" y="8.42" fill="#777676" width="2.901" height="0.516"/>
		<rect id="XMLID_206_" x="58.857" y="8.42" fill="#777676" width="2.902" height="0.516"/>
		<rect id="XMLID_205_" x="63.619" y="8.42" fill="#777676" width="2.901" height="0.516"/>
		<rect id="XMLID_204_" x="68.379" y="8.42" fill="#777676" width="2.902" height="0.516"/>
		<rect id="XMLID_203_" x="73.14" y="8.42" fill="#777676" width="2.901" height="0.516"/>
		<rect id="XMLID_202_" x="77.9" y="8.42" fill="#777676" width="2.901" height="0.516"/>
		<rect id="XMLID_201_" x="82.66" y="8.42" fill="#777676" width="2.901" height="0.516"/>
		<rect id="XMLID_200_" x="87.42" y="8.42" fill="#777676" width="2.902" height="0.516"/>
		<rect id="XMLID_199_" x="92.182" y="8.42" fill="#777676" width="2.901" height="0.516"/>
	</g>
	<g id="XMLID_179_">
		<rect id="XMLID_197_" x="11.254" y="7.909" fill="#040000" width="2.902" height="0.517"/>
		<rect id="XMLID_196_" x="16.015" y="7.909" fill="#040000" width="2.901" height="0.517"/>
		<rect id="XMLID_195_" x="20.774" y="7.909" fill="#040000" width="2.901" height="0.517"/>
		<rect id="XMLID_194_" x="25.535" y="7.909" fill="#040000" width="2.902" height="0.517"/>
		<rect id="XMLID_193_" x="30.295" y="7.909" fill="#040000" width="2.902" height="0.517"/>
		<rect id="XMLID_192_" x="35.057" y="7.909" fill="#040000" width="2.9" height="0.517"/>
		<rect id="XMLID_191_" x="39.816" y="7.909" fill="#040000" width="2.902" height="0.517"/>
		<rect id="XMLID_190_" x="44.576" y="7.909" fill="#040000" width="2.902" height="0.517"/>
		<rect id="XMLID_189_" x="49.338" y="7.909" fill="#040000" width="2.901" height="0.517"/>
		<rect id="XMLID_188_" x="54.098" y="7.909" fill="#040000" width="2.901" height="0.517"/>
		<rect id="XMLID_187_" x="58.857" y="7.909" fill="#040000" width="2.902" height="0.517"/>
		<rect id="XMLID_186_" x="63.619" y="7.909" fill="#040000" width="2.901" height="0.517"/>
		<rect id="XMLID_185_" x="68.379" y="7.909" fill="#040000" width="2.902" height="0.517"/>
		<rect id="XMLID_184_" x="73.14" y="7.909" fill="#040000" width="2.901" height="0.517"/>
		<rect id="XMLID_183_" x="77.9" y="7.909" fill="#040000" width="2.901" height="0.517"/>
		<rect id="XMLID_182_" x="82.66" y="7.909" fill="#040000" width="2.901" height="0.517"/>
		<rect id="XMLID_181_" x="87.42" y="7.909" fill="#040000" width="2.902" height="0.517"/>
		<rect id="XMLID_180_" x="92.182" y="7.909" fill="#040000" width="2.901" height="0.517"/>
	</g>
	<g id="XMLID_160_">
		<rect id="XMLID_178_" x="11.254" y="19.174" fill="#040000" width="2.902" height="0.517"/>
		<rect id="XMLID_177_" x="16.015" y="19.174" fill="#040000" width="2.901" height="0.517"/>
		<rect id="XMLID_176_" x="20.774" y="19.174" fill="#040000" width="2.901" height="0.517"/>
		<rect id="XMLID_175_" x="25.535" y="19.174" fill="#040000" width="2.902" height="0.517"/>
		<rect id="XMLID_174_" x="30.295" y="19.174" fill="#040000" width="2.902" height="0.517"/>
		<rect id="XMLID_173_" x="35.057" y="19.174" fill="#040000" width="2.9" height="0.517"/>
		<rect id="XMLID_172_" x="39.816" y="19.174" fill="#040000" width="2.902" height="0.517"/>
		<rect id="XMLID_171_" x="44.576" y="19.174" fill="#040000" width="2.902" height="0.517"/>
		<rect id="XMLID_170_" x="49.338" y="19.174" fill="#040000" width="2.901" height="0.517"/>
		<rect id="XMLID_169_" x="54.098" y="19.174" fill="#040000" width="2.901" height="0.517"/>
		<rect id="XMLID_168_" x="58.857" y="19.174" fill="#040000" width="2.902" height="0.517"/>
		<rect id="XMLID_167_" x="63.619" y="19.174" fill="#040000" width="2.901" height="0.517"/>
		<rect id="XMLID_166_" x="68.379" y="19.174" fill="#040000" width="2.902" height="0.517"/>
		<rect id="XMLID_165_" x="73.14" y="19.174" fill="#040000" width="2.901" height="0.517"/>
		<rect id="XMLID_164_" x="77.9" y="19.174" fill="#040000" width="2.901" height="0.517"/>
		<rect id="XMLID_163_" x="82.66" y="19.174" fill="#040000" width="2.901" height="0.517"/>
		<rect id="XMLID_162_" x="87.42" y="19.174" fill="#040000" width="2.902" height="0.517"/>
		<rect id="XMLID_161_" x="92.182" y="19.174" fill="#040000" width="2.901" height="0.517"/>
	</g>
	<g id="XMLID_141_">
		<rect id="XMLID_159_" x="11.254" y="18.658" fill="#777676" width="2.902" height="0.516"/>
		<rect id="XMLID_158_" x="16.015" y="18.658" fill="#777676" width="2.901" height="0.516"/>
		<rect id="XMLID_157_" x="20.774" y="18.658" fill="#777676" width="2.901" height="0.516"/>
		<rect id="XMLID_156_" x="25.535" y="18.658" fill="#777676" width="2.902" height="0.516"/>
		<rect id="XMLID_155_" x="30.295" y="18.658" fill="#777676" width="2.902" height="0.516"/>
		<rect id="XMLID_154_" x="35.057" y="18.658" fill="#777676" width="2.9" height="0.516"/>
		<rect id="XMLID_153_" x="39.816" y="18.658" fill="#777676" width="2.902" height="0.516"/>
		<rect id="XMLID_152_" x="44.576" y="18.658" fill="#777676" width="2.902" height="0.516"/>
		<rect id="XMLID_151_" x="49.338" y="18.658" fill="#777676" width="2.901" height="0.516"/>
		<rect id="XMLID_150_" x="54.098" y="18.658" fill="#777676" width="2.901" height="0.516"/>
		<rect id="XMLID_149_" x="58.857" y="18.658" fill="#777676" width="2.902" height="0.516"/>
		<rect id="XMLID_148_" x="63.619" y="18.658" fill="#777676" width="2.901" height="0.516"/>
		<rect id="XMLID_147_" x="68.379" y="18.658" fill="#777676" width="2.902" height="0.516"/>
		<rect id="XMLID_146_" x="73.14" y="18.658" fill="#777676" width="2.901" height="0.516"/>
		<rect id="XMLID_145_" x="77.9" y="18.658" fill="#777676" width="2.901" height="0.516"/>
		<rect id="XMLID_144_" x="82.66" y="18.658" fill="#777676" width="2.901" height="0.516"/>
		<rect id="XMLID_143_" x="87.42" y="18.658" fill="#777676" width="2.902" height="0.516"/>
		<rect id="XMLID_142_" x="92.182" y="18.658" fill="#777676" width="2.901" height="0.516"/>
	</g>
	<g id="XMLID_122_">
		<rect id="XMLID_140_" x="11.254" y="15.172" fill="#040000" width="2.902" height="1.652"/>
		<rect id="XMLID_139_" x="16.015" y="15.172" fill="#040000" width="2.901" height="1.652"/>
		<rect id="XMLID_138_" x="20.774" y="15.172" fill="#040000" width="2.901" height="1.652"/>
		<rect id="XMLID_137_" x="25.535" y="15.172" fill="#040000" width="2.902" height="1.652"/>
		<rect id="XMLID_136_" x="30.295" y="15.172" fill="#040000" width="2.902" height="1.652"/>
		<rect id="XMLID_135_" x="35.057" y="15.172" fill="#040000" width="2.9" height="1.652"/>
		<rect id="XMLID_134_" x="39.816" y="15.172" fill="#040000" width="2.902" height="1.652"/>
		<rect id="XMLID_133_" x="44.576" y="15.172" fill="#040000" width="2.902" height="1.652"/>
		<rect id="XMLID_132_" x="49.338" y="15.172" fill="#040000" width="2.901" height="1.652"/>
		<rect id="XMLID_131_" x="54.098" y="15.172" fill="#040000" width="2.901" height="1.652"/>
		<rect id="XMLID_130_" x="58.857" y="15.172" fill="#040000" width="2.902" height="1.652"/>
		<rect id="XMLID_129_" x="63.619" y="15.172" fill="#040000" width="2.901" height="1.652"/>
		<rect id="XMLID_128_" x="68.379" y="15.172" fill="#040000" width="2.902" height="1.652"/>
		<rect id="XMLID_127_" x="73.14" y="15.172" fill="#040000" width="2.901" height="1.652"/>
		<rect id="XMLID_126_" x="77.9" y="15.172" fill="#040000" width="2.901" height="1.652"/>
		<rect id="XMLID_125_" x="82.66" y="15.172" fill="#040000" width="2.901" height="1.652"/>
		<rect id="XMLID_124_" x="87.42" y="15.172" fill="#040000" width="2.902" height="1.652"/>
		<rect id="XMLID_123_" x="92.182" y="15.172" fill="#040000" width="2.901" height="1.652"/>
	</g>
</g>
</svg>
