<?xml version="1.0" encoding="utf-8"?>
<!-- Generator: Adobe Illustrator 16.0.0, SVG Export Plug-In . SVG Version: 6.00 Build 0)  -->
<!DOCTYPE svg PUBLIC "-//W3C//DTD SVG 1.1//EN" "http://www.w3.org/Graphics/SVG/1.1/DTD/svg11.dtd">
<svg version="1.1" id="图层_1" xmlns="http://www.w3.org/2000/svg" xmlns:xlink="http://www.w3.org/1999/xlink" x="0px" y="0px"
	 width="38.668px" height="30.484px" viewBox="0 0 38.668 30.484" enable-background="new 0 0 38.668 30.484" xml:space="preserve">
<g>
	<g>
		<rect x="1" y="1" fill="#B7B7B7" width="36.668" height="28.484"/>
		<path fill="#070404" d="M0,0h38.668v30.484H0V0z M36.668,2H2v26.484h34.668V2z"/>
	</g>
	<g>
		<polygon fill="#050001" points="2.718,15.18 2.718,13.887 4.01,13.887 4.01,9.549 11.211,9.549 11.211,5.764 14.902,5.764 
			14.902,1.609 16.842,1.609 17.98,1.609 20.689,1.609 21.734,1.609 23.767,1.609 23.767,5.764 27.459,5.764 27.459,9.549 
			34.658,9.549 34.658,13.887 35.951,13.887 35.951,15.18 33.799,15.18 33.799,20.811 35.951,20.811 35.951,21.918 34.721,21.918 
			34.721,25.889 21.734,25.889 20.689,25.889 17.98,25.889 16.842,25.889 3.888,25.889 3.888,21.918 2.718,21.918 2.718,20.811 
			4.686,20.811 4.686,15.18 		"/>
	</g>
</g>
</svg>
