<?xml version="1.0" encoding="utf-8"?>
<!-- Generator: Adobe Illustrator 16.0.0, SVG Export Plug-In . SVG Version: 6.00 Build 0)  -->
<!DOCTYPE svg PUBLIC "-//W3C//DTD SVG 1.1//EN" "http://www.w3.org/Graphics/SVG/1.1/DTD/svg11.dtd">
<svg version="1.1" id="图层_1" xmlns="http://www.w3.org/2000/svg" xmlns:xlink="http://www.w3.org/1999/xlink" x="0px" y="0px"
	 width="49.838px" height="25.291px" viewBox="0 0 49.838 25.291" enable-background="new 0 0 49.838 25.291" xml:space="preserve">
<g>
	<path fill="#161719" d="M42,25.291H7.838c-4.858,0-8.573-4.074-7.838-8.594L1.686,6.335C2.279,2.69,5.608,0,9.523,0h30.791
		c3.916,0,7.245,2.69,7.838,6.335l1.687,10.362C50.573,21.217,46.856,25.291,42,25.291"/>
	<path fill="none" stroke="#B9B9B9" stroke-miterlimit="10" d="M42,25.291H7.838c-4.858,0-8.573-4.074-7.838-8.594L1.686,6.335
		C2.279,2.69,5.608,0,9.523,0h30.791c3.916,0,7.245,2.69,7.838,6.335l1.687,10.362C50.573,21.217,46.856,25.291,42,25.291z"/>
	<path fill="#565958" d="M7.837,23.59c-1.921,0-3.705-0.803-4.895-2.202c-1.073-1.262-1.522-2.831-1.264-4.418L3.364,6.608
		c0.455-2.798,3.103-4.907,6.159-4.907h30.791c3.056,0,5.704,2.109,6.159,4.907l1.685,10.361c0.259,1.587-0.19,3.156-1.263,4.418
		c-1.189,1.399-2.975,2.202-4.895,2.202H7.837z"/>
	<path fill="none" stroke="#000000" stroke-miterlimit="10" d="M7.837,23.59c-1.921,0-3.705-0.803-4.895-2.202
		c-1.073-1.262-1.522-2.831-1.264-4.418L3.364,6.608c0.455-2.798,3.103-4.907,6.159-4.907h30.791c3.056,0,5.704,2.109,6.159,4.907
		l1.685,10.361c0.259,1.587-0.19,3.156-1.263,4.418c-1.189,1.399-2.975,2.202-4.895,2.202H7.837z"/>
	<path d="M14.604,8.357c0,1.278-1.043,2.314-2.33,2.314s-2.33-1.036-2.33-2.314c0-1.277,1.043-2.313,2.33-2.313
		S14.604,7.08,14.604,8.357"/>
	<path d="M23.034,8.357c0,1.278-1.043,2.314-2.33,2.314s-2.33-1.036-2.33-2.314c0-1.277,1.043-2.313,2.33-2.313
		S23.034,7.08,23.034,8.357"/>
	<path d="M31.464,8.357c0,1.278-1.043,2.314-2.33,2.314s-2.33-1.036-2.33-2.314c0-1.277,1.043-2.313,2.33-2.313
		S31.464,7.08,31.464,8.357"/>
	<path d="M39.894,8.357c0,1.278-1.043,2.314-2.33,2.314s-2.33-1.036-2.33-2.314c0-1.277,1.043-2.313,2.33-2.313
		S39.894,7.08,39.894,8.357"/>
	<path d="M10.39,15.674c0,1.278-1.043,2.314-2.33,2.314s-2.33-1.036-2.33-2.314s1.043-2.313,2.33-2.313S10.39,14.396,10.39,15.674"
		/>
	<path d="M18.819,15.674c0,1.278-1.043,2.314-2.33,2.314s-2.33-1.036-2.33-2.314s1.043-2.313,2.33-2.313
		S18.819,14.396,18.819,15.674"/>
	<path d="M27.249,15.674c0,1.278-1.043,2.314-2.33,2.314s-2.33-1.036-2.33-2.314s1.043-2.313,2.33-2.313
		S27.249,14.396,27.249,15.674"/>
	<path d="M35.679,15.674c0,1.278-1.043,2.314-2.33,2.314s-2.33-1.036-2.33-2.314s1.043-2.313,2.33-2.313
		S35.679,14.396,35.679,15.674"/>
	<path d="M44.108,15.674c0,1.278-1.043,2.314-2.33,2.314s-2.33-1.036-2.33-2.314s1.043-2.313,2.33-2.313
		S44.108,14.396,44.108,15.674"/>
	<path fill="#B2B1B1" d="M14.913,9.015c0,1.088-0.888,1.97-1.984,1.97s-1.985-0.882-1.985-1.97s0.889-1.97,1.985-1.97
		S14.913,7.927,14.913,9.015"/>
	<path fill="#B2B1B1" d="M23.343,9.015c0,1.088-0.888,1.97-1.984,1.97c-1.096,0-1.984-0.882-1.984-1.97s0.889-1.97,1.984-1.97
		C22.455,7.045,23.343,7.927,23.343,9.015"/>
	<path fill="#B2B1B1" d="M31.772,9.015c0,1.088-0.888,1.97-1.984,1.97c-1.096,0-1.984-0.882-1.984-1.97s0.889-1.97,1.984-1.97
		C30.885,7.045,31.772,7.927,31.772,9.015"/>
	<path fill="#B2B1B1" d="M40.202,9.015c0,1.088-0.888,1.97-1.984,1.97c-1.096,0-1.984-0.882-1.984-1.97s0.889-1.97,1.984-1.97
		C39.314,7.045,40.202,7.927,40.202,9.015"/>
	<path fill="#B2B1B1" d="M10.698,16.331c0,1.088-0.888,1.97-1.984,1.97s-1.985-0.882-1.985-1.97s0.889-1.97,1.985-1.97
		S10.698,15.243,10.698,16.331"/>
	<path fill="#B2B1B1" d="M19.128,16.331c0,1.088-0.888,1.97-1.984,1.97s-1.985-0.882-1.985-1.97s0.889-1.97,1.985-1.97
		S19.128,15.243,19.128,16.331"/>
	<path fill="#B2B1B1" d="M27.558,16.331c0,1.088-0.888,1.97-1.984,1.97c-1.096,0-1.983-0.882-1.983-1.97s0.888-1.97,1.983-1.97
		C26.67,14.361,27.558,15.243,27.558,16.331"/>
	<path fill="#B2B1B1" d="M35.987,16.331c0,1.088-0.889,1.97-1.984,1.97s-1.984-0.882-1.984-1.97s0.889-1.97,1.984-1.97
		S35.987,15.243,35.987,16.331"/>
	<path fill="#B2B1B1" d="M44.417,16.331c0,1.088-0.889,1.97-1.984,1.97s-1.984-0.882-1.984-1.97s0.889-1.97,1.984-1.97
		S44.417,15.243,44.417,16.331"/>
</g>
</svg>
