<?xml version="1.0" encoding="utf-8"?>
<!-- Generator: Adobe Illustrator 16.0.0, SVG Export Plug-In . SVG Version: 6.00 Build 0)  -->
<!DOCTYPE svg PUBLIC "-//W3C//DTD SVG 1.1//EN" "http://www.w3.org/Graphics/SVG/1.1/DTD/svg11.dtd">
<svg version="1.1" id="图层_1" xmlns="http://www.w3.org/2000/svg" xmlns:xlink="http://www.w3.org/1999/xlink" x="0px" y="0px"
	 width="37.021px" height="27.058px" viewBox="0 0 37.021 27.058" enable-background="new 0 0 37.021 27.058" xml:space="preserve">
<g>
	<path fill="#231815" d="M1.082,12.764H0.767H0.447C0.2,12.764,0,12.963,0,13.211v0.448c0,0.246,0.2,0.447,0.447,0.447h0.319v5.149
		c0,0.246,0.198,0.449,0.446,0.449h6.55v4.538c0,0.119,0.122,0.216,0.271,0.216h3.518v2.457c0,0.08,0.08,0.142,0.177,0.142h13.567
		c0.097,0,0.177-0.062,0.177-0.142v-2.457h3.516c0.152,0,0.272-0.097,0.272-0.216v-4.538h6.55c0.248,0,0.447-0.203,0.447-0.449
		v-5.149h0.317c0.247,0,0.446-0.201,0.446-0.447v-0.448c0-0.248-0.199-0.447-0.446-0.447h-0.317h-0.318h-0.261V7.239h0.261h0.318
		h0.317c0.247,0,0.446-0.2,0.446-0.448V6.344c0-0.25-0.199-0.448-0.446-0.448h-0.317V0.448C36.257,0.2,36.058,0,35.81,0H1.213
		C0.965,0,0.767,0.2,0.767,0.448v5.447H0.447C0.2,5.896,0,6.094,0,6.344v0.447c0,0.248,0.2,0.448,0.447,0.448h0.319h0.315h0.262
		v5.524H1.082z"/>
	<rect x="28.443" y="2.274" fill="#9E9E9E" width="1.353" height="9.705"/>
	<rect x="28.443" y="2.274" fill="#7F8080" width="1.353" height="4.359"/>
	<rect x="28.443" y="2.273" fill="#5E5E60" width="1.353" height="2.836"/>
	<rect x="25.413" y="2.274" fill="#9E9E9E" width="1.354" height="9.705"/>
	<rect x="25.413" y="2.274" fill="#7F8080" width="1.354" height="4.359"/>
	<rect x="25.413" y="2.273" fill="#5E5E60" width="1.354" height="2.836"/>
	<rect x="22.382" y="2.274" fill="#9E9E9E" width="1.353" height="9.705"/>
	<rect x="22.382" y="2.274" fill="#7F8080" width="1.353" height="4.359"/>
	<rect x="22.382" y="2.273" fill="#5E5E60" width="1.353" height="2.836"/>
	<rect x="19.349" y="2.274" fill="#9E9E9E" width="1.354" height="9.705"/>
	<rect x="19.349" y="2.274" fill="#7F8080" width="1.354" height="4.359"/>
	<rect x="19.349" y="2.273" fill="#5E5E60" width="1.354" height="2.836"/>
	<rect x="16.318" y="2.274" fill="#9E9E9E" width="1.353" height="9.705"/>
	<rect x="16.318" y="2.274" fill="#7F8080" width="1.353" height="4.359"/>
	<rect x="16.318" y="2.273" fill="#5E5E60" width="1.353" height="2.836"/>
	<rect x="13.286" y="2.274" fill="#9E9E9E" width="1.354" height="9.705"/>
	<rect x="13.286" y="2.274" fill="#7F8080" width="1.354" height="4.359"/>
	<rect x="13.286" y="2.273" fill="#5E5E60" width="1.354" height="2.836"/>
	<rect x="10.257" y="2.274" fill="#9E9E9E" width="1.353" height="9.705"/>
	<rect x="10.257" y="2.274" fill="#7F8080" width="1.353" height="4.359"/>
	<rect x="10.257" y="2.273" fill="#5E5E60" width="1.353" height="2.836"/>
	<rect x="7.224" y="2.274" fill="#9E9E9E" width="1.354" height="9.705"/>
	<rect x="7.224" y="2.274" fill="#7F8080" width="1.354" height="4.359"/>
	<rect x="7.224" y="2.273" fill="#5E5E60" width="1.354" height="2.836"/>
</g>
</svg>
