<?xml version="1.0" encoding="utf-8"?>
<!-- Generator: Adobe Illustrator 16.0.0, SVG Export Plug-In . SVG Version: 6.00 Build 0)  -->
<!DOCTYPE svg PUBLIC "-//W3C//DTD SVG 1.1//EN" "http://www.w3.org/Graphics/SVG/1.1/DTD/svg11.dtd">
<svg version="1.1" id="图层_1" xmlns="http://www.w3.org/2000/svg" xmlns:xlink="http://www.w3.org/1999/xlink" x="0px" y="0px"
	 width="51px" height="35.76px" viewBox="0 0 51 35.76" enable-background="new 0 0 51 35.76" xml:space="preserve">
<g>
	<rect y="0.027" fill="#151209" width="51" height="35.706"/>
	<rect x="3.065" y="2.174" fill="#34322C" width="44.867" height="31.412"/>
	<rect x="17.278" y="29.762" fill="#898989" width="16.443" height="3.824"/>
	<path fill="#898989" d="M51,14.693V9.397h-1.952V1.058h-5.852V0.027h-5.713v1.031h-9.127V0.027h-5.715v1.031h-9.125V0.027H7.803
		v1.031H1.951v8.339H0v5.296h1.951v7.008H0v5.295h1.951v7.705h47.097v-7.705H51v-5.295h-1.952v-7.008H51z M46.818,32.471H4.181
		V3.289h42.639L46.818,32.471L46.818,32.471z"/>
	<path fill="#151209" d="M34.903,34.77H16.097V28.58h18.807V34.77z M18.46,32.404h14.078v-1.459H18.46V32.404z"/>
	<path d="M42.993,18.643h0.317h0.316c0.247,0,0.449-0.198,0.449-0.446V17.75c0-0.245-0.202-0.446-0.449-0.446h-0.316v-5.149
		c0-0.246-0.199-0.448-0.448-0.448h-6.547V7.169c0-0.118-0.123-0.217-0.272-0.217h-3.516V4.496c0-0.079-0.08-0.14-0.177-0.14H18.786
		c-0.097,0-0.172,0.061-0.172,0.14v2.457h-3.519c-0.149,0-0.271,0.098-0.271,0.217v4.536H8.278c-0.247,0-0.449,0.202-0.449,0.448
		v5.149H7.513c-0.247,0-0.447,0.201-0.447,0.446v0.447c0,0.248,0.199,0.446,0.447,0.446H7.83h0.319H8.41v5.527H8.149H7.83H7.513
		c-0.247,0-0.447,0.197-0.447,0.445v0.447c0,0.248,0.199,0.447,0.447,0.447H7.83v5.447c0,0.248,0.201,0.445,0.448,0.445h34.585
		c0.248,0,0.448-0.195,0.448-0.445V25.51h0.316c0.247,0,0.448-0.199,0.448-0.447v-0.447c0-0.248-0.201-0.445-0.448-0.445h-0.316
		h-0.316h-0.263v-5.527H42.993z"/>
	<rect x="14.29" y="19.428" fill="#9F9E9F" width="1.353" height="9.703"/>
	<rect x="14.29" y="24.775" fill="#7F8081" width="1.353" height="4.355"/>
	<rect x="14.29" y="26.295" fill="#5E5E60" width="1.353" height="2.836"/>
	<rect x="17.317" y="19.428" fill="#9F9E9F" width="1.354" height="9.703"/>
	<rect x="17.317" y="24.775" fill="#7F8081" width="1.354" height="4.355"/>
	<rect x="17.317" y="26.295" fill="#5E5E60" width="1.354" height="2.836"/>
	<rect x="20.35" y="19.428" fill="#9F9E9F" width="1.353" height="9.703"/>
	<rect x="20.35" y="24.775" fill="#7F8081" width="1.353" height="4.355"/>
	<rect x="20.35" y="26.295" fill="#5E5E60" width="1.353" height="2.836"/>
	<rect x="23.377" y="19.428" fill="#9F9E9F" width="1.353" height="9.703"/>
	<rect x="23.377" y="24.775" fill="#7F8081" width="1.353" height="4.355"/>
	<rect x="23.377" y="26.295" fill="#5E5E60" width="1.353" height="2.836"/>
	<rect x="26.409" y="19.428" fill="#9F9E9F" width="1.354" height="9.703"/>
	<rect x="26.409" y="24.775" fill="#7F8081" width="1.354" height="4.355"/>
	<rect x="26.409" y="26.295" fill="#5E5E60" width="1.354" height="2.836"/>
	<rect x="29.437" y="19.428" fill="#9F9E9F" width="1.355" height="9.703"/>
	<rect x="29.437" y="24.775" fill="#7F8081" width="1.355" height="4.355"/>
	<rect x="29.437" y="26.295" fill="#5E5E60" width="1.355" height="2.836"/>
	<rect x="32.47" y="19.428" fill="#9F9E9F" width="1.354" height="9.703"/>
	<rect x="32.47" y="24.775" fill="#7F8081" width="1.354" height="4.355"/>
	<rect x="32.47" y="26.295" fill="#5E5E60" width="1.354" height="2.836"/>
	<rect x="35.497" y="19.428" fill="#9F9E9F" width="1.355" height="9.703"/>
	<rect x="35.497" y="24.775" fill="#7F8081" width="1.355" height="4.355"/>
	<rect x="35.497" y="26.295" fill="#5E5E60" width="1.355" height="2.836"/>
	<g>
		<defs>
			<rect id="SVGID_1_" x="6.323" y="7.482" width="8.502" height="4.224"/>
		</defs>
		<clipPath id="SVGID_2_">
			<use xlink:href="#SVGID_1_"  overflow="visible"/>
		</clipPath>
		
			<linearGradient id="SVGID_3_" gradientUnits="userSpaceOnUse" x1="-818.6099" y1="339.4941" x2="-817.6105" y2="339.4941" gradientTransform="matrix(-10.5954 0 0 -10.5954 -8656.8672 3606.6797)">
			<stop  offset="0" style="stop-color:#F6EA5A"/>
			<stop  offset="1" style="stop-color:#9F8826"/>
		</linearGradient>
		<rect x="6.323" y="7.482" clip-path="url(#SVGID_2_)" fill="url(#SVGID_3_)" width="8.502" height="4.224"/>
	</g>
	
		<rect x="6.323" y="7.482" fill="none" stroke="#231815" stroke-width="0.451" stroke-miterlimit="10" width="8.502" height="4.224"/>
	<g>
		<defs>
			<rect id="SVGID_4_" x="36.175" y="7.482" width="8.502" height="4.224"/>
		</defs>
		<clipPath id="SVGID_5_">
			<use xlink:href="#SVGID_4_"  overflow="visible"/>
		</clipPath>
		
			<linearGradient id="SVGID_6_" gradientUnits="userSpaceOnUse" x1="-818.6548" y1="339.4492" x2="-817.656" y2="339.4492" gradientTransform="matrix(-10.5939 0 0 -10.5939 -8626.2656 3605.6719)">
			<stop  offset="0" style="stop-color:#298540"/>
			<stop  offset="1" style="stop-color:#0B4626"/>
		</linearGradient>
		<rect x="36.175" y="7.482" clip-path="url(#SVGID_5_)" fill="url(#SVGID_6_)" width="8.502" height="4.224"/>
	</g>
	
		<rect x="36.175" y="7.482" fill="none" stroke="#231815" stroke-width="0.902" stroke-miterlimit="10" width="8.501" height="4.224"/>
</g>
</svg>
