<?xml version="1.0" encoding="utf-8"?>
<!-- Generator: Adobe Illustrator 16.0.0, SVG Export Plug-In . SVG Version: 6.00 Build 0)  -->
<!DOCTYPE svg PUBLIC "-//W3C//DTD SVG 1.1//EN" "http://www.w3.org/Graphics/SVG/1.1/DTD/svg11.dtd">
<svg version="1.1" id="图层_1" xmlns="http://www.w3.org/2000/svg" xmlns:xlink="http://www.w3.org/1999/xlink" x="0px" y="0px"
	 width="17px" height="8.167px" viewBox="0 0 17 8.167" enable-background="new 0 0 17 8.167" xml:space="preserve">
<g>
	<path fill="#464646" d="M13.702,7.856H3.536c-0.335,0-0.654-0.141-0.88-0.388L0.927,5.577c-0.2-0.221-0.312-0.507-0.312-0.806
		V1.628c0-0.659,0.533-1.193,1.192-1.193H15.43c0.659,0,1.193,0.534,1.193,1.193v3.144c0,0.299-0.111,0.585-0.313,0.806
		l-1.728,1.892C14.356,7.716,14.037,7.856,13.702,7.856"/>
	<path fill="none" stroke="#B9B9B9" stroke-width="0.75" stroke-miterlimit="10" d="M13.702,7.856H3.536
		c-0.335,0-0.654-0.141-0.88-0.388L0.927,5.577c-0.2-0.221-0.312-0.507-0.312-0.806V1.628c0-0.659,0.533-1.193,1.192-1.193H15.43
		c0.659,0,1.193,0.534,1.193,1.193v3.144c0,0.299-0.111,0.585-0.313,0.806l-1.728,1.892C14.356,7.716,14.037,7.856,13.702,7.856z"/>
	<rect x="2.812" y="3.624" fill="#AFAFAF" width="11.613" height="1.043"/>
</g>
</svg>
