<?xml version="1.0" encoding="utf-8"?>
<!-- Generator: Adobe Illustrator 16.0.0, SVG Export Plug-In . SVG Version: 6.00 Build 0)  -->
<!DOCTYPE svg PUBLIC "-//W3C//DTD SVG 1.1//EN" "http://www.w3.org/Graphics/SVG/1.1/DTD/svg11.dtd">
<svg version="1.1" id="图层_1" xmlns="http://www.w3.org/2000/svg" xmlns:xlink="http://www.w3.org/1999/xlink" x="0px" y="0px"
	 width="27.058px" height="37.021px" viewBox="4.981 -4.982 27.058 37.021" enable-background="new 4.981 -4.982 27.058 37.021"
	 xml:space="preserve">
<g>
	<path fill="#231815" d="M19.274-3.9v-0.314v-0.32c0-0.247-0.198-0.447-0.446-0.447H18.38c-0.246,0-0.447,0.2-0.447,0.447v0.319
		h-5.148c-0.246,0-0.449,0.197-0.449,0.445v6.551H7.797c-0.119,0-0.216,0.121-0.216,0.271v3.518H5.124
		c-0.08,0-0.143,0.08-0.143,0.178v13.566c0,0.098,0.063,0.178,0.143,0.178h2.457v3.516c0,0.152,0.097,0.271,0.216,0.271h4.538v6.551
		c0,0.248,0.203,0.446,0.449,0.446h5.148v0.317c0,0.247,0.201,0.446,0.447,0.446h0.448c0.248,0,0.446-0.199,0.446-0.446v-0.317
		v-0.317v-0.261H24.8v0.261v0.317v0.317c0,0.247,0.2,0.446,0.448,0.446h0.447c0.25,0,0.447-0.199,0.447-0.446v-0.317h5.448
		c0.248,0,0.448-0.198,0.448-0.446V-3.769c0-0.248-0.2-0.445-0.448-0.445h-5.447v-0.32c-0.001-0.247-0.198-0.447-0.448-0.447h-0.447
		c-0.248,0-0.448,0.2-0.448,0.447v0.319v0.314v0.262h-5.524L19.274-3.9L19.274-3.9z"/>
	<rect x="20.059" y="23.462" fill="#9E9E9E" width="9.705" height="1.353"/>
	<rect x="25.406" y="23.462" fill="#7F8080" width="4.358" height="1.353"/>
	<rect x="26.929" y="23.462" fill="#5E5E60" width="2.836" height="1.353"/>
	<rect x="20.059" y="20.431" fill="#9E9E9E" width="9.705" height="1.354"/>
	<rect x="25.406" y="20.431" fill="#7F8080" width="4.358" height="1.354"/>
	<rect x="26.929" y="20.431" fill="#5E5E60" width="2.836" height="1.354"/>
	<rect x="20.059" y="17.4" fill="#9E9E9E" width="9.705" height="1.354"/>
	<rect x="25.406" y="17.4" fill="#7F8080" width="4.358" height="1.354"/>
	<rect x="26.929" y="17.4" fill="#5E5E60" width="2.836" height="1.354"/>
	<rect x="20.059" y="14.368" fill="#9E9E9E" width="9.705" height="1.354"/>
	<rect x="25.406" y="14.368" fill="#7F8080" width="4.358" height="1.354"/>
	<rect x="26.929" y="14.368" fill="#5E5E60" width="2.836" height="1.354"/>
	<rect x="20.059" y="11.337" fill="#9E9E9E" width="9.705" height="1.353"/>
	<rect x="25.406" y="11.337" fill="#7F8080" width="4.358" height="1.353"/>
	<rect x="26.929" y="11.337" fill="#5E5E60" width="2.836" height="1.353"/>
	<rect x="20.059" y="8.304" fill="#9E9E9E" width="9.705" height="1.354"/>
	<rect x="25.406" y="8.304" fill="#7F8080" width="4.358" height="1.354"/>
	<rect x="26.929" y="8.304" fill="#5E5E60" width="2.836" height="1.354"/>
	<rect x="20.059" y="5.275" fill="#9E9E9E" width="9.705" height="1.354"/>
	<rect x="25.406" y="5.275" fill="#7F8080" width="4.358" height="1.354"/>
	<rect x="26.929" y="5.275" fill="#5E5E60" width="2.836" height="1.354"/>
	<rect x="20.059" y="2.243" fill="#9E9E9E" width="9.705" height="1.354"/>
	<rect x="25.406" y="2.243" fill="#7F8080" width="4.358" height="1.354"/>
	<rect x="26.929" y="2.243" fill="#5E5E60" width="2.836" height="1.354"/>
</g>
</svg>
