<?xml version="1.0" encoding="utf-8"?>
<!-- Generator: Adobe Illustrator 16.0.0, SVG Export Plug-In . SVG Version: 6.00 Build 0)  -->
<!DOCTYPE svg PUBLIC "-//W3C//DTD SVG 1.1//EN" "http://www.w3.org/Graphics/SVG/1.1/DTD/svg11.dtd">
<svg version="1.1" id="图层_1" xmlns="http://www.w3.org/2000/svg" xmlns:xlink="http://www.w3.org/1999/xlink" x="0px" y="0px"
	 width="51px" height="35.706px" viewBox="0 0 51 35.706" enable-background="new 0 0 51 35.706" xml:space="preserve">
<rect fill="#151209" width="51" height="35.706"/>
<rect x="3.065" y="2.147" fill="#34322C" width="44.868" height="31.412"/>
<rect x="17.279" y="29.735" fill="#898989" width="16.443" height="3.824"/>
<path fill="#898989" d="M51,14.666V9.37h-1.951V1.031h-5.853V0h-5.713v1.031h-9.128V0h-5.713v1.031h-9.126V0H7.803v1.031H1.951V9.37
	H0v5.296h1.951v7.009H0v5.295h1.951v7.705h47.098V26.97H51v-5.295h-1.951v-7.009H51z M46.818,32.444H4.181V3.262h42.639
	L46.818,32.444L46.818,32.444z"/>
<path fill="#151209" d="M34.902,34.742H16.096v-6.188h18.807V34.742z M18.461,32.377h14.078v-1.459H18.461V32.377z"/>
<path d="M42.994,18.616h0.316h0.316c0.247,0,0.449-0.198,0.449-0.446v-0.447c0-0.245-0.202-0.446-0.449-0.446h-0.316v-5.149
	c0-0.246-0.199-0.448-0.448-0.448h-6.548V7.143c0-0.118-0.121-0.217-0.271-0.217h-3.516V4.469c0-0.079-0.08-0.14-0.178-0.14H18.787
	c-0.098,0-0.173,0.061-0.173,0.14v2.457h-3.519c-0.148,0-0.27,0.098-0.27,0.217v4.536H8.278c-0.247,0-0.449,0.202-0.449,0.448v5.149
	H7.514c-0.247,0-0.447,0.201-0.447,0.446v0.447c0,0.248,0.199,0.446,0.447,0.446H7.83h0.318H8.41v5.526H8.148H7.83H7.514
	c-0.247,0-0.447,0.197-0.447,0.445v0.448c0,0.248,0.199,0.447,0.447,0.447H7.83v5.447c0,0.248,0.201,0.445,0.448,0.445h34.585
	c0.248,0,0.448-0.196,0.448-0.445v-5.447h0.316c0.247,0,0.448-0.199,0.448-0.447v-0.448c0-0.247-0.201-0.445-0.448-0.445h-0.316
	h-0.317h-0.262v-5.526H42.994z"/>
<rect x="14.289" y="19.401" fill="#9F9E9F" width="1.354" height="9.702"/>
<rect x="14.289" y="24.748" fill="#7F8081" width="1.354" height="4.355"/>
<rect x="14.289" y="26.269" fill="#5E5E60" width="1.354" height="2.835"/>
<rect x="17.316" y="19.401" fill="#9F9E9F" width="1.355" height="9.702"/>
<rect x="17.316" y="24.748" fill="#7F8081" width="1.355" height="4.355"/>
<rect x="17.316" y="26.269" fill="#5E5E60" width="1.355" height="2.835"/>
<rect x="20.35" y="19.401" fill="#9F9E9F" width="1.353" height="9.702"/>
<rect x="20.35" y="24.748" fill="#7F8081" width="1.353" height="4.355"/>
<rect x="20.35" y="26.269" fill="#5E5E60" width="1.353" height="2.835"/>
<rect x="23.377" y="19.401" fill="#9F9E9F" width="1.353" height="9.702"/>
<rect x="23.377" y="24.748" fill="#7F8081" width="1.353" height="4.355"/>
<rect x="23.377" y="26.269" fill="#5E5E60" width="1.353" height="2.835"/>
<rect x="26.41" y="19.401" fill="#9F9E9F" width="1.354" height="9.702"/>
<rect x="26.41" y="24.748" fill="#7F8081" width="1.354" height="4.355"/>
<rect x="26.41" y="26.269" fill="#5E5E60" width="1.354" height="2.835"/>
<rect x="29.438" y="19.401" fill="#9F9E9F" width="1.355" height="9.702"/>
<rect x="29.438" y="24.748" fill="#7F8081" width="1.355" height="4.355"/>
<rect x="29.438" y="26.269" fill="#5E5E60" width="1.355" height="2.835"/>
<rect x="32.47" y="19.401" fill="#9F9E9F" width="1.354" height="9.702"/>
<rect x="32.47" y="24.748" fill="#7F8081" width="1.354" height="4.355"/>
<rect x="32.47" y="26.269" fill="#5E5E60" width="1.354" height="2.835"/>
<rect x="35.497" y="19.401" fill="#9F9E9F" width="1.355" height="9.702"/>
<rect x="35.497" y="24.748" fill="#7F8081" width="1.355" height="4.355"/>
<rect x="35.497" y="26.269" fill="#5E5E60" width="1.355" height="2.835"/>
<g>
	<defs>
		<rect id="SVGID_1_" x="6.322" y="7.455" width="8.504" height="4.224"/>
	</defs>
	<clipPath id="SVGID_2_">
		<use xlink:href="#SVGID_1_"  overflow="visible"/>
	</clipPath>
	
		<linearGradient id="SVGID_3_" gradientUnits="userSpaceOnUse" x1="-849.1055" y1="367.8452" x2="-848.1055" y2="367.8452" gradientTransform="matrix(-10.5954 0 0 -10.5954 -8979.9756 3907.0447)">
		<stop  offset="0" style="stop-color:#F6EA5A"/>
		<stop  offset="1" style="stop-color:#9F8826"/>
	</linearGradient>
	<rect x="6.322" y="7.455" clip-path="url(#SVGID_2_)" fill="url(#SVGID_3_)" width="8.504" height="4.224"/>
</g>
<rect x="6.322" y="7.455" fill="none" stroke="#231815" stroke-width="0.451" stroke-miterlimit="10" width="8.504" height="4.224"/>
<g>
	<defs>
		<rect id="SVGID_4_" x="36.176" y="7.455" width="8.501" height="4.224"/>
	</defs>
	<clipPath id="SVGID_5_">
		<use xlink:href="#SVGID_4_"  overflow="visible"/>
	</clipPath>
	
		<linearGradient id="SVGID_6_" gradientUnits="userSpaceOnUse" x1="-849.1504" y1="367.8003" x2="-848.151" y2="367.8003" gradientTransform="matrix(-10.5939 0 0 -10.5939 -8949.332 3905.998)">
		<stop  offset="0" style="stop-color:#298540"/>
		<stop  offset="1" style="stop-color:#0B4626"/>
	</linearGradient>
	<rect x="36.175" y="7.455" clip-path="url(#SVGID_5_)" fill="url(#SVGID_6_)" width="8.502" height="4.224"/>
</g>
<rect x="36.176" y="7.455" fill="none" stroke="#231815" stroke-width="0.902" stroke-miterlimit="10" width="8.5" height="4.224"/>
</svg>
