<?xml version="1.0" encoding="utf-8"?>
<!-- Generator: Adobe Illustrator 16.0.0, SVG Export Plug-In . SVG Version: 6.00 Build 0)  -->
<!DOCTYPE svg PUBLIC "-//W3C//DTD SVG 1.1//EN" "http://www.w3.org/Graphics/SVG/1.1/DTD/svg11.dtd">
<svg version="1.1" id="图层_1" xmlns="http://www.w3.org/2000/svg" xmlns:xlink="http://www.w3.org/1999/xlink" x="0px" y="0px"
	 width="142.5px" height="23.268px" viewBox="0 0 142.5 23.268" enable-background="new 0 0 142.5 23.268" xml:space="preserve">
<path fill="#165D9C" d="M115.765,23.268H23.39c-2.449,0-4.541-1.591-4.949-3.764L15.873,5.842c-0.518-2.758,1.842-5.272,4.949-5.272
	h97.509c3.106,0,5.467,2.515,4.949,5.272l-2.567,13.662C120.305,21.677,118.213,23.268,115.765,23.268"/>
<path fill="none" stroke="#939393" stroke-miterlimit="10" d="M115.765,23.268H23.39c-2.449,0-4.541-1.591-4.949-3.764L15.873,5.842
	c-0.518-2.758,1.842-5.272,4.949-5.272h97.509c3.106,0,5.467,2.515,4.949,5.272l-2.567,13.662
	C120.305,21.677,118.213,23.268,115.765,23.268z"/>
<path fill="#1F1F1F" d="M26.426,7.693c0,1.13-0.914,2.046-2.043,2.046c-1.127,0-2.041-0.916-2.041-2.046s0.914-2.046,2.041-2.046
	C25.512,5.647,26.426,6.563,26.426,7.693"/>
<path fill="#1F1F1F" d="M34.143,7.693c0,1.13-0.914,2.046-2.042,2.046s-2.042-0.916-2.042-2.046s0.914-2.046,2.042-2.046
	S34.143,6.563,34.143,7.693"/>
<path fill="#1F1F1F" d="M41.859,7.693c0,1.13-0.914,2.046-2.042,2.046s-2.042-0.916-2.042-2.046s0.914-2.046,2.042-2.046
	S41.859,6.563,41.859,7.693"/>
<path fill="#1F1F1F" d="M49.577,7.693c0,1.13-0.914,2.046-2.042,2.046s-2.042-0.916-2.042-2.046s0.914-2.046,2.042-2.046
	S49.577,6.563,49.577,7.693"/>
<path fill="#1F1F1F" d="M57.294,7.693c0,1.13-0.914,2.046-2.042,2.046S53.21,8.823,53.21,7.693s0.914-2.046,2.042-2.046
	S57.294,6.563,57.294,7.693"/>
<path fill="#1F1F1F" d="M65.012,7.693c0,1.13-0.914,2.046-2.043,2.046c-1.127,0-2.041-0.916-2.041-2.046s0.914-2.046,2.041-2.046
	C64.098,5.647,65.012,6.563,65.012,7.693"/>
<path fill="#1F1F1F" d="M72.729,7.693c0,1.13-0.914,2.046-2.042,2.046s-2.042-0.916-2.042-2.046s0.914-2.046,2.042-2.046
	S72.729,6.563,72.729,7.693"/>
<path fill="#1F1F1F" d="M80.445,7.693c0,1.13-0.914,2.046-2.042,2.046s-2.042-0.916-2.042-2.046s0.914-2.046,2.042-2.046
	S80.445,6.563,80.445,7.693"/>
<path fill="#1F1F1F" d="M88.163,7.693c0,1.13-0.914,2.046-2.042,2.046s-2.042-0.916-2.042-2.046s0.914-2.046,2.042-2.046
	S88.163,6.563,88.163,7.693"/>
<path fill="#1F1F1F" d="M95.88,7.693c0,1.13-0.914,2.046-2.042,2.046s-2.042-0.916-2.042-2.046s0.914-2.046,2.042-2.046
	S95.88,6.563,95.88,7.693"/>
<path fill="#1F1F1F" d="M103.598,7.693c0,1.13-0.914,2.046-2.043,2.046c-1.127,0-2.041-0.916-2.041-2.046s0.914-2.046,2.041-2.046
	C102.684,5.647,103.598,6.563,103.598,7.693"/>
<path fill="#1F1F1F" d="M111.314,7.693c0,1.13-0.914,2.046-2.042,2.046s-2.042-0.916-2.042-2.046s0.914-2.046,2.042-2.046
	S111.314,6.563,111.314,7.693"/>
<path fill="#1F1F1F" d="M30.284,16.144c0,1.13-0.914,2.046-2.042,2.046S26.2,17.273,26.2,16.144s0.914-2.046,2.042-2.046
	S30.284,15.014,30.284,16.144"/>
<path fill="#1F1F1F" d="M38.001,16.144c0,1.13-0.914,2.046-2.042,2.046s-2.042-0.916-2.042-2.046s0.914-2.046,2.042-2.046
	S38.001,15.014,38.001,16.144"/>
<path fill="#1F1F1F" d="M45.719,16.144c0,1.13-0.914,2.046-2.043,2.046c-1.127,0-2.041-0.916-2.041-2.046s0.914-2.046,2.041-2.046
	C44.805,14.098,45.719,15.014,45.719,16.144"/>
<path fill="#1F1F1F" d="M53.436,16.144c0,1.13-0.914,2.046-2.042,2.046s-2.042-0.916-2.042-2.046s0.914-2.046,2.042-2.046
	S53.436,15.014,53.436,16.144"/>
<path fill="#1F1F1F" d="M61.152,16.144c0,1.13-0.914,2.046-2.042,2.046s-2.042-0.916-2.042-2.046s0.914-2.046,2.042-2.046
	S61.152,15.014,61.152,16.144"/>
<path fill="#1F1F1F" d="M68.87,16.144c0,1.13-0.914,2.046-2.042,2.046s-2.042-0.916-2.042-2.046s0.914-2.046,2.042-2.046
	S68.87,15.014,68.87,16.144"/>
<path fill="#1F1F1F" d="M76.587,16.144c0,1.13-0.914,2.046-2.042,2.046s-2.042-0.916-2.042-2.046s0.914-2.046,2.042-2.046
	S76.587,15.014,76.587,16.144"/>
<path fill="#1F1F1F" d="M84.305,16.144c0,1.13-0.914,2.046-2.043,2.046c-1.127,0-2.041-0.916-2.041-2.046s0.914-2.046,2.041-2.046
	C83.391,14.098,84.305,15.014,84.305,16.144"/>
<path fill="#1F1F1F" d="M92.021,16.144c0,1.13-0.914,2.046-2.042,2.046s-2.042-0.916-2.042-2.046s0.914-2.046,2.042-2.046
	S92.021,15.014,92.021,16.144"/>
<path fill="#1F1F1F" d="M99.738,16.144c0,1.13-0.914,2.046-2.042,2.046s-2.042-0.916-2.042-2.046s0.914-2.046,2.042-2.046
	S99.738,15.014,99.738,16.144"/>
<path fill="#1F1F1F" d="M107.456,16.144c0,1.13-0.914,2.046-2.042,2.046s-2.042-0.916-2.042-2.046s0.914-2.046,2.042-2.046
	S107.456,15.014,107.456,16.144"/>
<path fill="#1F1F1F" d="M115.173,16.144c0,1.13-0.914,2.046-2.042,2.046s-2.042-0.916-2.042-2.046s0.914-2.046,2.042-2.046
	S115.173,15.014,115.173,16.144"/>
<path fill="#1F1F1F" d="M119.031,7.693c0,1.13-0.914,2.046-2.042,2.046s-2.042-0.916-2.042-2.046s0.914-2.046,2.042-2.046
	S119.031,6.563,119.031,7.693"/>
<path fill="#AFAFAF" d="M9.328,11.919c0,2.357-1.908,4.27-4.262,4.27c-2.354,0-4.263-1.912-4.263-4.27
	c0-2.358,1.908-4.271,4.263-4.271C7.42,7.648,9.328,9.561,9.328,11.919"/>
<ellipse fill="none" stroke="#939393" stroke-miterlimit="10" cx="5.066" cy="11.919" rx="4.262" ry="4.27"/>
<rect x="2.399" y="11.3" fill="#939393" width="5.333" height="1.236"/>
<rect x="4.448" y="9.252" fill="#939393" width="1.236" height="5.333"/>
<path fill="#AFAFAF" d="M141.851,11.919c0,2.357-1.908,4.27-4.263,4.27c-2.354,0-4.262-1.912-4.262-4.27
	c0-2.358,1.908-4.271,4.262-4.271C139.942,7.648,141.851,9.561,141.851,11.919"/>
<ellipse fill="none" stroke="#939393" stroke-miterlimit="10" cx="137.588" cy="11.919" rx="4.262" ry="4.27"/>
<rect x="134.923" y="11.3" fill="#939393" width="5.333" height="1.236"/>
<rect x="136.971" y="9.252" fill="#939393" width="1.236" height="5.333"/>
</svg>
