<?xml version="1.0" encoding="utf-8"?>
<!-- Generator: Adobe Illustrator 16.0.0, SVG Export Plug-In . SVG Version: 6.00 Build 0)  -->
<!DOCTYPE svg PUBLIC "-//W3C//DTD SVG 1.1//EN" "http://www.w3.org/Graphics/SVG/1.1/DTD/svg11.dtd">
<svg version="1.1" id="图层_1" xmlns="http://www.w3.org/2000/svg" xmlns:xlink="http://www.w3.org/1999/xlink" x="0px" y="0px"
	 width="30.484px" height="38.668px" viewBox="0 0 30.484 38.668" enable-background="new 0 0 30.484 38.668" xml:space="preserve">
<g>
	<g>
		<rect x="1" y="1" fill="#B7B7B7" width="28.484" height="36.668"/>
		<path fill="#070404" d="M30.484,0v38.668H0V0H30.484z M28.484,36.668V2H2v34.668H28.484z"/>
	</g>
	<g>
		<polygon fill="#050001" points="15.305,2.718 16.598,2.718 16.598,4.01 20.936,4.01 20.936,11.211 24.721,11.211 24.721,14.902 
			28.875,14.902 28.875,16.842 28.875,17.98 28.875,20.689 28.875,21.734 28.875,23.767 24.721,23.767 24.721,27.459 20.936,27.459 
			20.936,34.658 16.598,34.658 16.598,35.951 15.305,35.951 15.305,33.799 9.674,33.799 9.674,35.951 8.566,35.951 8.566,34.721 
			4.596,34.721 4.596,21.734 4.596,20.689 4.596,17.98 4.596,16.842 4.596,3.888 8.566,3.888 8.566,2.718 9.674,2.718 9.674,4.686 
			15.305,4.686 		"/>
	</g>
</g>
</svg>
