<?xml version="1.0" encoding="utf-8"?>
<!-- Generator: Adobe Illustrator 16.0.0, SVG Export Plug-In . SVG Version: 6.00 Build 0)  -->
<!DOCTYPE svg PUBLIC "-//W3C//DTD SVG 1.1//EN" "http://www.w3.org/Graphics/SVG/1.1/DTD/svg11.dtd">
<svg version="1.1" id="图层_1" xmlns="http://www.w3.org/2000/svg" xmlns:xlink="http://www.w3.org/1999/xlink" x="0px" y="0px"
	 width="19.406px" height="8.844px" viewBox="0 0 19.406 8.844" enable-background="new 0 0 19.406 8.844" xml:space="preserve">
<g>
	<path fill="#000200" d="M0.86,8.565h17.725c0.309,0,0.559-0.227,0.559-0.506V4.941c0-0.279-0.25-0.506-0.559-0.506H18.53
		c-0.309,0-0.559-0.227-0.559-0.506V0.754c0-0.279-0.252-0.506-0.56-0.506H1.979c-0.31,0-0.56,0.227-0.56,0.506v3.175
		c0,0.279-0.25,0.506-0.56,0.506c-0.309,0-0.559,0.227-0.559,0.506v3.118C0.302,8.338,0.552,8.565,0.86,8.565"/>
	<path fill="none" stroke="#B9B9B9" stroke-width="0.5" stroke-miterlimit="10" d="M0.86,8.565h17.725
		c0.309,0,0.559-0.227,0.559-0.506V4.941c0-0.279-0.25-0.506-0.559-0.506H18.53c-0.309,0-0.559-0.227-0.559-0.506V0.754
		c0-0.279-0.252-0.506-0.56-0.506H1.979c-0.31,0-0.56,0.227-0.56,0.506v3.175c0,0.279-0.25,0.506-0.56,0.506
		c-0.309,0-0.559,0.227-0.559,0.506v3.118C0.302,8.338,0.552,8.565,0.86,8.565z"/>
	<path fill="none" stroke="#B9B9B9" stroke-width="0.5" stroke-miterlimit="10" d="M0.86,8.565h17.725
		c0.309,0,0.559-0.227,0.559-0.506V4.941c0-0.279-0.25-0.506-0.559-0.506H18.53c-0.309,0-0.559-0.227-0.559-0.506V0.754
		c0-0.279-0.252-0.506-0.56-0.506H1.979c-0.31,0-0.56,0.227-0.56,0.506v3.175c0,0.279-0.25,0.506-0.56,0.506
		c-0.309,0-0.559,0.227-0.559,0.506v3.118C0.302,8.338,0.552,8.565,0.86,8.565z"/>
	<path fill="#686868" d="M2.65,0.874h14.146c0.156,0,0.283,0.127,0.283,0.283v4.59c0,0.156-0.127,0.283-0.283,0.283H2.65
		c-0.157,0-0.283-0.127-0.283-0.283v-4.59C2.367,1,2.493,0.874,2.65,0.874"/>
	<rect x="14.405" y="2.295" fill="#000200" width="1.387" height="2.313"/>
	<rect x="11.717" y="2.295" fill="#000200" width="1.387" height="2.313"/>
	<rect x="9.03" y="2.295" fill="#000200" width="1.387" height="2.313"/>
	<rect x="6.342" y="2.295" fill="#000200" width="1.387" height="2.313"/>
	<rect x="3.655" y="2.295" fill="#000200" width="1.387" height="2.313"/>
	<rect x="14.53" y="3.155" fill="#B9B9B9" width="1.135" height="0.594"/>
	<rect x="11.844" y="3.155" fill="#B9B9B9" width="1.134" height="0.594"/>
	<rect x="9.155" y="3.155" fill="#B9B9B9" width="1.135" height="0.594"/>
	<rect x="6.469" y="3.155" fill="#B9B9B9" width="1.134" height="0.594"/>
	<rect x="3.78" y="3.155" fill="#B9B9B9" width="1.135" height="0.594"/>
</g>
</svg>
