<?xml version="1.0" encoding="utf-8"?>
<!-- Generator: Adobe Illustrator 16.0.0, SVG Export Plug-In . SVG Version: 6.00 Build 0)  -->
<!DOCTYPE svg PUBLIC "-//W3C//DTD SVG 1.1//EN" "http://www.w3.org/Graphics/SVG/1.1/DTD/svg11.dtd">
<svg version="1.1" id="图层_1" xmlns="http://www.w3.org/2000/svg" xmlns:xlink="http://www.w3.org/1999/xlink" x="0px" y="0px"
	 width="26.375px" height="77.668px" viewBox="0 0 26.375 77.668" enable-background="new 0 0 26.375 77.668" xml:space="preserve">
<g>
	<g>
		<path fill="#BDBDBD" d="M11.422,9.256c-0.473,0-0.913-0.255-1.15-0.664L8.474,5.48c-0.235-0.411-0.235-0.919,0-1.329l1.797-3.112
			c0.237-0.41,0.679-0.665,1.151-0.665h3.593c0.475,0,0.916,0.255,1.151,0.666l1.797,3.111c0.235,0.41,0.235,0.918,0,1.329
			l-1.797,3.11c-0.236,0.41-0.678,0.665-1.151,0.665H11.422z"/>
		<path fill="#8F8F8F" d="M15.015,0.75c0.342,0,0.656,0.182,0.826,0.477l1.797,3.112c0.17,0.295,0.17,0.657,0,0.953l-1.797,3.111
			c-0.17,0.295-0.484,0.478-0.826,0.478h-3.593c-0.341,0-0.656-0.183-0.826-0.478L8.799,5.292c-0.17-0.296-0.17-0.658,0-0.953
			l1.797-3.112c0.17-0.295,0.485-0.477,0.826-0.477H15.015 M15.015,0h-3.593c-0.606,0-1.172,0.325-1.476,0.852L8.15,3.964
			c-0.305,0.524-0.305,1.178,0,1.703l1.796,3.111c0.304,0.526,0.869,0.853,1.476,0.853h3.593c0.607,0,1.172-0.326,1.476-0.853
			l1.797-3.111c0.303-0.525,0.303-1.179,0-1.703L16.49,0.852C16.187,0.325,15.622,0,15.015,0"/>
		<path fill="#CECECE" d="M16.828,4.844c0,1.999-1.616,3.62-3.609,3.62c-1.994,0-3.61-1.621-3.61-3.62s1.616-3.62,3.61-3.62
			C15.212,1.224,16.828,2.845,16.828,4.844"/>
		<ellipse fill="none" stroke="#8F8F8F" stroke-width="0.25" stroke-miterlimit="10" cx="13.218" cy="4.844" rx="3.61" ry="3.62"/>
		<path fill="#414244" d="M15.448,4.844c0,1.234-0.998,2.235-2.229,2.235s-2.23-1.001-2.23-2.235c0-1.235,0.999-2.236,2.23-2.236
			S15.448,3.608,15.448,4.844"/>
		<ellipse fill="none" stroke="#000000" stroke-width="0.25" stroke-miterlimit="10" cx="13.218" cy="4.844" rx="2.23" ry="2.235"/>
		<path fill="#8F8F8F" d="M13.912,4.844c0,0.384-0.311,0.695-0.693,0.695s-0.693-0.312-0.693-0.695s0.311-0.695,0.693-0.695
			S13.912,4.46,13.912,4.844"/>
	</g>
	<g>
		<path fill="#BDBDBD" d="M11.422,77.293c-0.473,0-0.913-0.256-1.15-0.664l-1.798-3.111c-0.235-0.412-0.235-0.92,0-1.33l1.797-3.111
			c0.237-0.41,0.679-0.666,1.151-0.666h3.594c0.475,0,0.916,0.256,1.15,0.666l1.797,3.111c0.236,0.41,0.236,0.918,0,1.33
			l-1.797,3.109c-0.236,0.41-0.678,0.666-1.15,0.666H11.422z"/>
		<path fill="#8F8F8F" d="M15.016,68.787c0.342,0,0.656,0.182,0.826,0.477l1.797,3.111c0.17,0.295,0.17,0.658,0,0.953l-1.797,3.111
			c-0.17,0.295-0.484,0.479-0.826,0.479h-3.594c-0.341,0-0.656-0.184-0.826-0.479l-1.797-3.111c-0.17-0.295-0.17-0.658,0-0.953
			l1.797-3.111c0.17-0.295,0.485-0.477,0.826-0.477H15.016 M15.016,68.037h-3.594c-0.606,0-1.172,0.324-1.476,0.852L8.15,72
			c-0.305,0.525-0.305,1.178,0,1.703l1.796,3.111c0.304,0.527,0.869,0.854,1.476,0.854h3.594c0.607,0,1.172-0.326,1.475-0.854
			l1.797-3.111c0.303-0.525,0.303-1.178,0-1.703l-1.797-3.111C16.188,68.361,15.623,68.037,15.016,68.037"/>
		<path fill="#CECECE" d="M16.828,72.881c0,1.998-1.615,3.619-3.609,3.619s-3.61-1.621-3.61-3.619c0-2,1.616-3.621,3.61-3.621
			S16.828,70.881,16.828,72.881"/>
		
			<ellipse fill="none" stroke="#8F8F8F" stroke-width="0.25" stroke-miterlimit="10" cx="13.218" cy="72.881" rx="3.61" ry="3.619"/>
		<path fill="#414244" d="M15.449,72.881c0,1.234-0.998,2.234-2.23,2.234c-1.231,0-2.23-1-2.23-2.234
			c0-1.236,0.999-2.236,2.23-2.236C14.451,70.645,15.449,71.645,15.449,72.881"/>
		<circle fill="none" stroke="#000000" stroke-width="0.25" stroke-miterlimit="10" cx="13.219" cy="72.881" r="2.23"/>
		<path fill="#8F8F8F" d="M13.912,72.881c0,0.383-0.311,0.695-0.693,0.695s-0.693-0.313-0.693-0.695
			c0-0.385,0.311-0.695,0.693-0.695S13.912,72.496,13.912,72.881"/>
	</g>
	<g>
		<path fill="#161719" d="M25.863,21.913v34.162c0,4.857-4.074,8.573-8.594,7.838L6.908,62.228
			c-3.645-0.594-6.335-3.923-6.335-7.838V23.599c0-3.916,2.69-7.244,6.335-7.838l10.361-1.686
			C21.789,13.341,25.863,17.056,25.863,21.913"/>
		<path fill="none" stroke="#B9B9B9" stroke-miterlimit="10" d="M25.863,21.913v34.162c0,4.857-4.074,8.573-8.594,7.838
			L6.908,62.228c-3.645-0.594-6.335-3.923-6.335-7.838V23.599c0-3.916,2.69-7.244,6.335-7.838l10.361-1.686
			C21.789,13.341,25.863,17.056,25.863,21.913z"/>
		<path fill="#565958" d="M24.162,56.075c0,1.921-0.803,3.705-2.201,4.896c-1.262,1.073-2.832,1.521-4.418,1.264L7.182,60.549
			c-2.798-0.455-4.907-3.104-4.907-6.159V23.599c0-3.057,2.109-5.704,4.907-6.159l10.361-1.685c1.586-0.26,3.156,0.189,4.418,1.263
			c1.398,1.19,2.201,2.976,2.201,4.896V56.075z"/>
		<path fill="none" stroke="#000000" stroke-miterlimit="10" d="M24.162,56.075c0,1.921-0.803,3.705-2.201,4.896
			c-1.262,1.073-2.832,1.521-4.418,1.264L7.182,60.549c-2.798-0.455-4.907-3.104-4.907-6.159V23.599
			c0-3.057,2.109-5.704,4.907-6.159l10.361-1.685c1.586-0.26,3.156,0.189,4.418,1.263c1.398,1.19,2.201,2.976,2.201,4.896V56.075z"
			/>
		<path d="M8.931,49.309c1.278,0,2.314,1.043,2.314,2.33s-1.036,2.33-2.314,2.33c-1.277,0-2.313-1.043-2.313-2.33
			S7.653,49.309,8.931,49.309"/>
		<path d="M8.931,40.879c1.278,0,2.314,1.043,2.314,2.33s-1.036,2.33-2.314,2.33c-1.277,0-2.313-1.043-2.313-2.33
			S7.653,40.879,8.931,40.879"/>
		<path d="M8.931,32.449c1.278,0,2.314,1.043,2.314,2.33s-1.036,2.33-2.314,2.33c-1.277,0-2.313-1.043-2.313-2.33
			S7.653,32.449,8.931,32.449"/>
		<path d="M8.931,24.02c1.278,0,2.314,1.044,2.314,2.33c0,1.287-1.036,2.33-2.314,2.33c-1.277,0-2.313-1.043-2.313-2.33
			C6.617,25.063,7.653,24.02,8.931,24.02"/>
		<path d="M16.246,53.523c1.279,0,2.314,1.043,2.314,2.33s-1.035,2.33-2.314,2.33c-1.277,0-2.313-1.043-2.313-2.33
			S14.969,53.523,16.246,53.523"/>
		<path d="M16.246,45.094c1.279,0,2.314,1.043,2.314,2.33s-1.035,2.33-2.314,2.33c-1.277,0-2.313-1.043-2.313-2.33
			S14.969,45.094,16.246,45.094"/>
		<path d="M16.246,36.664c1.279,0,2.314,1.043,2.314,2.33s-1.035,2.33-2.314,2.33c-1.277,0-2.313-1.043-2.313-2.33
			S14.969,36.664,16.246,36.664"/>
		<path d="M16.246,28.234c1.279,0,2.314,1.044,2.314,2.33c0,1.287-1.035,2.33-2.314,2.33c-1.277,0-2.313-1.043-2.313-2.33
			C13.934,29.278,14.969,28.234,16.246,28.234"/>
		<path d="M16.246,19.805c1.279,0,2.314,1.043,2.314,2.33s-1.035,2.33-2.314,2.33c-1.277,0-2.313-1.043-2.313-2.33
			S14.969,19.805,16.246,19.805"/>
		<path fill="#B2B1B1" d="M9.588,49c1.088,0,1.97,0.888,1.97,1.983c0,1.097-0.882,1.985-1.97,1.985s-1.97-0.889-1.97-1.985
			C7.618,49.888,8.5,49,9.588,49"/>
		<path fill="#B2B1B1" d="M9.588,40.57c1.088,0,1.97,0.888,1.97,1.984s-0.882,1.985-1.97,1.985s-1.97-0.889-1.97-1.985
			S8.5,40.57,9.588,40.57"/>
		<path fill="#B2B1B1" d="M9.588,32.141c1.088,0,1.97,0.888,1.97,1.983c0,1.097-0.882,1.985-1.97,1.985s-1.97-0.889-1.97-1.985
			C7.618,33.028,8.5,32.141,9.588,32.141"/>
		<path fill="#B2B1B1" d="M9.588,23.711c1.088,0,1.97,0.888,1.97,1.983c0,1.097-0.882,1.985-1.97,1.985s-1.97-0.889-1.97-1.985
			C7.618,24.599,8.5,23.711,9.588,23.711"/>
		<path fill="#B2B1B1" d="M16.904,53.215c1.088,0,1.969,0.888,1.969,1.983c0,1.097-0.881,1.985-1.969,1.985
			s-1.971-0.889-1.971-1.985C14.934,54.103,15.816,53.215,16.904,53.215"/>
		<path fill="#B2B1B1" d="M16.904,44.785c1.088,0,1.969,0.888,1.969,1.983c0,1.097-0.881,1.985-1.969,1.985
			s-1.971-0.889-1.971-1.985C14.934,45.673,15.816,44.785,16.904,44.785"/>
		<path fill="#B2B1B1" d="M16.904,36.355c1.088,0,1.969,0.888,1.969,1.983c0,1.097-0.881,1.984-1.969,1.984
			s-1.971-0.888-1.971-1.984C14.934,37.243,15.816,36.355,16.904,36.355"/>
		<path fill="#B2B1B1" d="M16.904,27.926c1.088,0,1.969,0.888,1.969,1.983c0,1.097-0.881,1.986-1.969,1.986s-1.971-0.89-1.971-1.986
			C14.934,28.813,15.816,27.926,16.904,27.926"/>
		<path fill="#B2B1B1" d="M16.904,19.496c1.088,0,1.969,0.888,1.969,1.983c0,1.097-0.881,1.985-1.969,1.985
			s-1.971-0.889-1.971-1.985C14.934,20.384,15.816,19.496,16.904,19.496"/>
	</g>
</g>
</svg>
