<?xml version="1.0" encoding="utf-8"?>
<!-- Generator: Adobe Illustrator 16.0.0, SVG Export Plug-In . SVG Version: 6.00 Build 0)  -->
<!DOCTYPE svg PUBLIC "-//W3C//DTD SVG 1.1//EN" "http://www.w3.org/Graphics/SVG/1.1/DTD/svg11.dtd">
<svg version="1.1" id="图层_1" xmlns="http://www.w3.org/2000/svg" xmlns:xlink="http://www.w3.org/1999/xlink" x="0px" y="0px"
	 width="1275.59px" height="126.14px" viewBox="0 0 1275.59 126.14" enable-background="new 0 0 1275.59 126.14"
	 xml:space="preserve">
<rect y="-0.001" fill="#92918C" width="1275.59" height="126.142"/>
<rect x="10.875" y="4.967" fill="none" stroke="#515151" stroke-width="2" stroke-miterlimit="10" width="1253.84" height="116.206"/>
<g>
	<g>
		<g>
			<path fill="#252626" d="M33.765,18.782c0,4.252-3.663,7.697-8.181,7.697s-8.18-3.445-8.18-7.697c0-4.251,3.662-7.699,8.18-7.699
				S33.765,14.531,33.765,18.782"/>
			
				<ellipse fill="none" stroke="#121212" stroke-width="0.75" stroke-miterlimit="10" cx="25.584" cy="18.782" rx="8.18" ry="7.697"/>
			<polygon fill="#040000" points="24.573,23.148 24.573,19.733 20.945,19.733 20.945,17.831 24.573,17.831 24.573,14.416 
				26.596,14.416 26.596,17.831 30.224,17.831 30.224,19.733 26.596,19.733 26.596,23.148 			"/>
			<path fill="#221714" d="M26.425,14.577v3.092v0.322h0.34h3.288v1.581h-3.288h-0.34v0.321v3.094h-1.68v-3.094v-0.321h-0.343
				h-3.287v-1.581h3.287h0.343v-0.322v-3.092H26.425z M26.765,14.255h-2.362v3.414h-3.628v2.225h3.628v3.415h2.362v-3.415h3.629
				v-2.225h-3.629V14.255z"/>
		</g>
		<rect x="24.402" y="14.257" fill="#606062" width="0.343" height="3.734"/>
		<rect x="20.774" y="17.669" fill="#606062" width="3.968" height="0.322"/>
	</g>
	<g>
		<g>
			<path fill="#252626" d="M33.765,108.98c0,4.252-3.663,7.698-8.181,7.698s-8.18-3.446-8.18-7.698s3.662-7.699,8.18-7.699
				S33.765,104.729,33.765,108.98"/>
			
				<ellipse fill="none" stroke="#121212" stroke-width="0.75" stroke-miterlimit="10" cx="25.584" cy="108.98" rx="8.18" ry="7.698"/>
			<polygon fill="#040000" points="24.573,113.346 24.573,109.931 20.945,109.931 20.945,108.029 24.573,108.029 24.573,104.614 
				26.596,104.614 26.596,108.029 30.224,108.029 30.224,109.931 26.596,109.931 26.596,113.346 			"/>
			<path fill="#221714" d="M26.425,104.774v3.094v0.32h0.34h3.288v1.582h-3.288h-0.34v0.321v3.095h-1.68v-3.095v-0.321h-0.343
				h-3.287v-1.582h3.287h0.343v-0.32v-3.094H26.425z M26.765,104.453h-2.362v3.415h-3.628v2.224h3.628v3.414h2.362v-3.414h3.629
				v-2.224h-3.629V104.453z"/>
		</g>
		<rect x="24.402" y="104.455" fill="#606062" width="0.343" height="3.733"/>
		<rect x="20.774" y="107.867" fill="#606062" width="3.968" height="0.321"/>
	</g>
</g>
<g>
	<g>
		<g>
			<path fill="#252626" d="M1258.373,18.782c0,4.252-3.664,7.697-8.182,7.697s-8.18-3.445-8.18-7.697
				c0-4.251,3.662-7.699,8.18-7.699S1258.373,14.531,1258.373,18.782"/>
			
				<ellipse fill="none" stroke="#121212" stroke-width="0.75" stroke-miterlimit="10" cx="1250.192" cy="18.782" rx="8.181" ry="7.697"/>
			<polygon fill="#040000" points="1249.182,23.148 1249.182,19.733 1245.553,19.733 1245.553,17.831 1249.182,17.831 
				1249.182,14.416 1251.203,14.416 1251.203,17.831 1254.832,17.831 1254.832,19.733 1251.203,19.733 1251.203,23.148 			"/>
			<path fill="#221714" d="M1251.033,14.577v3.092v0.321h0.34h3.289v1.582h-3.289h-0.34v0.321v3.094h-1.682v-3.094v-0.321h-0.342
				h-3.287V17.99h3.287h0.342v-0.321v-3.092H1251.033z M1251.373,14.255h-2.363v3.414h-3.627v2.225h3.627v3.415h2.363v-3.415h3.629
				v-2.225h-3.629V14.255z"/>
		</g>
		<rect x="1249.01" y="14.257" fill="#606062" width="0.342" height="3.733"/>
		<rect x="1245.383" y="17.669" fill="#606062" width="3.967" height="0.321"/>
	</g>
	<g>
		<g>
			<path fill="#252626" d="M1258.373,108.98c0,4.252-3.664,7.698-8.182,7.698s-8.18-3.446-8.18-7.698s3.662-7.699,8.18-7.699
				S1258.373,104.729,1258.373,108.98"/>
			
				<ellipse fill="none" stroke="#121212" stroke-width="0.75" stroke-miterlimit="10" cx="1250.192" cy="108.98" rx="8.181" ry="7.698"/>
			<polygon fill="#040000" points="1249.182,113.346 1249.182,109.931 1245.553,109.931 1245.553,108.028 1249.182,108.028 
				1249.182,104.614 1251.203,104.614 1251.203,108.028 1254.832,108.028 1254.832,109.931 1251.203,109.931 1251.203,113.346 			
				"/>
			<path fill="#221714" d="M1251.033,104.774v3.094v0.32h0.34h3.289v1.582h-3.289h-0.34v0.321v3.095h-1.682v-3.095v-0.321h-0.342
				h-3.287v-1.582h3.287h0.342v-0.32v-3.094H1251.033z M1251.373,104.453h-2.363v3.415h-3.627v2.224h3.627v3.414h2.363v-3.414h3.629
				v-2.224h-3.629V104.453z"/>
		</g>
		<rect x="1249.01" y="104.454" fill="#606062" width="0.342" height="3.734"/>
		<rect x="1245.383" y="107.867" fill="#606062" width="3.967" height="0.321"/>
	</g>
</g>
<g>
	<g>
		<path fill="#252626" d="M611.705,18.782c0,4.252-3.663,7.697-8.18,7.697c-4.519,0-8.181-3.445-8.181-7.697
			c0-4.251,3.662-7.699,8.181-7.699C608.042,11.083,611.705,14.531,611.705,18.782"/>
		
			<ellipse fill="none" stroke="#121212" stroke-width="0.75" stroke-miterlimit="10" cx="603.525" cy="18.782" rx="8.18" ry="7.697"/>
		<polygon fill="#040000" points="602.514,23.148 602.514,19.733 598.886,19.733 598.886,17.831 602.514,17.831 602.514,14.416 
			604.536,14.416 604.536,17.831 608.164,17.831 608.164,19.733 604.536,19.733 604.536,23.148 		"/>
		<path fill="#221714" d="M604.365,14.577v3.092v0.321h0.341h3.288v1.582h-3.288h-0.341v0.321v3.094h-1.68v-3.094v-0.321h-0.343
			h-3.287V17.99h3.287h0.343v-0.321v-3.092H604.365z M604.706,14.255h-2.363v3.414h-3.628v2.225h3.628v3.415h2.363v-3.415h3.628
			v-2.225h-3.628V14.255z"/>
	</g>
	<rect x="602.343" y="14.257" fill="#606062" width="0.343" height="3.733"/>
	<rect x="598.715" y="17.669" fill="#606062" width="3.967" height="0.321"/>
</g>
<text transform="matrix(1.0623 0 0 1 1131.4063 32.5879)" fill="#FFFFFF" font-family="'SimHei'" font-size="15.166">AC22V</text>
<text transform="matrix(1.0623 0 0 1 988.7051 32.5879)" fill="#FFFFFF" font-family="'SimHei'" font-size="15.166">FUSE</text>
<text transform="matrix(1.0623 0 0 1 836.0645 32.5879)" fill="#FFFFFF" font-family="'SimHei'" font-size="15.166">报时输出</text>
<text transform="matrix(1.0623 0 0 1 739.2324 32.5879)" fill="#FFFFFF" font-family="'SimHei'" font-size="15.166">EBU输出</text>
<text transform="matrix(1.0623 0 0 1 601.4648 46.75)" fill="#FFFFFF" font-family="'SimHei'" font-size="15.166">RS232输出</text>
<text transform="matrix(1.0623 0 0 1 475.5688 46.75)" fill="#FFFFFF" font-family="'SimHei'" font-size="15.166">RS232输出</text>
<text transform="matrix(1.0623 0 0 1 352.0688 32.5879)" fill="#FFFFFF" font-family="'SimHei'" font-size="15.166">IPPS输出</text>
<text transform="matrix(1.0623 0 0 1 271.0688 32.5879)" fill="#FFFFFF" font-family="'SimHei'" font-size="15.166">SZ输出</text>
<text transform="matrix(1.0623 0 0 1 171.0972 32.5879)" fill="#FFFFFF" font-family="'SimHei'" font-size="15.166">强制输出</text>
<text transform="matrix(1.0623 0 0 1 83.0972 32.5879)" fill="#FFFFFF" font-family="'SimHei'" font-size="15.166">天线输入</text>
<text transform="matrix(1.0623 0 0 1 180.2671 64.4395)" fill="#FFFFFF" font-family="'SimHei'" font-size="10.93">开</text>
<text transform="matrix(1.0623 0 0 1 218.2671 64.4395)" fill="#FFFFFF" font-family="'SimHei'" font-size="10.93">关</text>
</svg>
