<?xml version="1.0" encoding="utf-8"?>
<!-- Generator: Adobe Illustrator 16.0.0, SVG Export Plug-In . SVG Version: 6.00 Build 0)  -->
<!DOCTYPE svg PUBLIC "-//W3C//DTD SVG 1.1//EN" "http://www.w3.org/Graphics/SVG/1.1/DTD/svg11.dtd">
<svg version="1.1" id="图层_1" xmlns="http://www.w3.org/2000/svg" xmlns:xlink="http://www.w3.org/1999/xlink" x="0px" y="0px"
	 width="1275.59px" height="126.14px" viewBox="0 0 1275.59 126.14" enable-background="new 0 0 1275.59 126.14"
	 xml:space="preserve">
<g>
	<rect fill="#454645" width="1275.59" height="126.143"/>
	<g>
		<g>
			<g>
				<g>
					<rect x="20.465" y="9.832" fill="#040000" width="40.726" height="25.743"/>
					<rect x="20.465" y="33.584" fill="#686868" width="40.726" height="1.991"/>
				</g>
				<g>
					<rect x="112.587" y="9.832" fill="#040000" width="40.726" height="25.743"/>
					<rect x="112.587" y="33.584" fill="#686868" width="40.726" height="1.991"/>
				</g>
			</g>
			<g>
				<g>
					<rect x="20.465" y="88.352" fill="#040000" width="40.726" height="25.744"/>
					<rect x="20.465" y="112.104" fill="#686868" width="40.726" height="1.992"/>
				</g>
				<g>
					<rect x="112.587" y="88.352" fill="#040000" width="40.726" height="25.744"/>
					<rect x="112.587" y="112.104" fill="#686868" width="40.726" height="1.992"/>
				</g>
			</g>
		</g>
		<g>
			<g>
				<g>
					<rect x="1122.275" y="7.676" fill="#040000" width="40.727" height="25.743"/>
					<rect x="1122.275" y="31.428" fill="#686868" width="40.727" height="1.991"/>
				</g>
				<g>
					<rect x="1214.398" y="7.676" fill="#040000" width="40.727" height="25.743"/>
					<rect x="1214.398" y="31.428" fill="#686868" width="40.727" height="1.991"/>
				</g>
			</g>
			<g>
				<g>
					<rect x="1122.275" y="86.195" fill="#040000" width="40.727" height="25.744"/>
					<rect x="1122.275" y="109.947" fill="#686868" width="40.727" height="1.992"/>
				</g>
				<g>
					<rect x="1214.398" y="86.195" fill="#040000" width="40.727" height="25.744"/>
					<rect x="1214.398" y="109.947" fill="#686868" width="40.727" height="1.992"/>
				</g>
			</g>
		</g>
	</g>
	<rect fill="#656665" width="1275.59" height="2.494"/>
	<rect y="123.648" fill="#656665" width="1275.59" height="2.494"/>
	<path fill="#888889" d="M136.412,71.053c0,5.391-4.87,9.762-10.877,9.762H57.941c-6.007,0-10.877-4.371-10.877-9.762V49.905
		c0-5.39,4.87-9.76,10.877-9.76h67.593c6.007,0,10.877,4.37,10.877,9.76V71.053z"/>
	<path fill="#585959" d="M136.412,71.188c0,5.316-4.87,9.627-10.877,9.627H57.941c-6.007,0-10.877-4.311-10.877-9.627V50.332
		c0-5.316,4.87-9.626,10.877-9.626h67.593c6.007,0,10.877,4.31,10.877,9.626V71.188z"/>
	<path fill="#252525" d="M134.081,70.645c0,5.037-4.616,9.123-10.311,9.123H59.705c-5.694,0-10.311-4.086-10.311-9.123V50.876
		c0-5.039,4.616-9.124,10.311-9.124h64.066c5.694,0,10.311,4.085,10.311,9.124V70.645z"/>
	<path fill="#040000" d="M131.556,70.055c0,4.738-4.34,8.58-9.695,8.58H61.614c-5.354,0-9.695-3.842-9.695-8.58V51.465
		c0-4.738,4.34-8.58,9.695-8.58h60.246c5.355,0,9.695,3.842,9.695,8.58V70.055z"/>
	<rect x="57.034" y="47.696" fill-rule="evenodd" clip-rule="evenodd" fill="#2B3030" width="67.593" height="26.128"/>
	<path fill-rule="evenodd" clip-rule="evenodd" fill="#FFFFFF" d="M82.434,67.553h5.176h5.867c-0.105,0.545-0.289,1.078-0.553,1.576
		H73.417v-1.576H82.434z M87.25,65.99l-0.364-1.578h6.351c0.181,0.51,0.293,1.043,0.332,1.578H87.25z M82.434,65.99h-5.398v-1.578
		h5.398V65.99z M77.037,62.832v-1.58h13.512c0.747,0.414,1.36,0.959,1.833,1.58H77.037z M77.037,59.693v-1.58h5.397h4.452h5.617
		c-0.485,0.631-1.122,1.176-1.917,1.58H77.037z M77.037,54.953h5.398v1.578h-5.398V54.953z M73.417,53.392v-1.579h19.456
		c0.284,0.501,0.49,1.032,0.617,1.579H73.417z M93.633,54.953c-0.023,0.537-0.12,1.07-0.292,1.58h-6.094l0.362-1.58H93.633z
		 M104.461,62.832h-5.24v-1.58h5.24V62.832z M99.221,59.693v-1.58h10.445l0.684,1.58H99.221z M99.221,56.533v-1.58h9.076l0.684,1.58
		H99.221z M95.541,53.392v-1.579h11.396l0.684,1.579H95.541z M110.363,59.693l0.699-1.58h10.15v1.58H110.363z M111.76,56.533
		l0.697-1.58h8.755v1.58H111.76z M113.146,53.392l0.698-1.579h11.173v1.579H113.146z M121.212,62.832h-5.022v-1.58h5.022V62.832z
		 M114.665,61.251l-0.618,1.58h-7.624l-0.648-1.58H114.665z M104.461,65.99h-5.24v-1.578h5.24V65.99z M121.212,65.99h-5.022v-1.578
		h5.022V65.99z M113.43,64.412l-0.618,1.578h-5.093l-0.647-1.578H113.43z M104.461,69.129h-8.921v-1.576h8.921V69.129z
		 M125.017,69.129h-8.829v-1.576h8.829V69.129z M112.203,67.553l-0.619,1.576h-2.578l-0.648-1.576H112.203z M104.461,72.35h-8.921
		v-1.641h8.921V72.35z M125.017,72.35h-8.829v-1.641h8.829V72.35z M110.966,70.711l-0.643,1.639l-0.671-1.639H110.966z
		 M95.541,50.234v-1.541h10.043l0.667,1.541H95.541z M114.543,50.234l0.679-1.541h9.795v1.541H114.543z M73.417,48.694v1.541h18.124
		c-1.127-0.935-2.709-1.541-4.742-1.541H73.417z M73.417,70.711v1.639h13.382c2.139-0.006,3.76-0.65,4.878-1.639H73.417z
		 M58.458,48.694h12.416v1.541H58.458V48.694z M70.873,53.392H58.458v-1.578h12.415V53.392z M67.255,56.533h-5.27v-1.579h5.27
		V56.533z M67.255,59.693h-5.27v-1.58h5.27V59.693z M67.255,62.832h-5.27v-1.58h5.27V62.832z M67.255,65.99h-5.27v-1.578h5.27V65.99
		z M70.873,69.129H58.458v-1.576h12.415V69.129z M70.873,72.35H58.458v-1.641h12.415V72.35z"/>
</g>
</svg>
