<?xml version="1.0" encoding="utf-8"?>
<!-- Generator: Adobe Illustrator 16.0.0, SVG Export Plug-In . SVG Version: 6.00 Build 0)  -->
<!DOCTYPE svg PUBLIC "-//W3C//DTD SVG 1.1//EN" "http://www.w3.org/Graphics/SVG/1.1/DTD/svg11.dtd">
<svg version="1.1" id="图层_1" xmlns="http://www.w3.org/2000/svg" xmlns:xlink="http://www.w3.org/1999/xlink" x="0px" y="0px"
	 width="1275.59px" height="126.14px" viewBox="0 0 1275.59 126.14" enable-background="new 0 0 1275.59 126.14"
	 xml:space="preserve">
<rect fill="#ADA2A9" width="1275.59" height="126.143"/>
<path fill="#5C5C5F" d="M7.805,124.143c0,1.105-0.094,2-0.21,2H0.211c-0.117,0-0.211-0.895-0.211-2V2.001c0-1.105,0.094-2,0.211-2
	h7.383c0.116,0,0.21,0.895,0.21,2V124.143z"/>
<rect x="1268.514" fill="#040000" width="0.616" height="126.141"/>
<path fill="#5C5C5F" d="M1269.037,124.141c0,1.105,0.08,2,0.178,2h6.198c0.098,0,0.177-0.895,0.177-2V2c0-1.105-0.079-2-0.177-2
	h-6.198c-0.098,0-0.178,0.895-0.178,2V124.141z"/>
<rect x="4.57" y="0.001" fill="#5C5C5F" width="1271.02" height="11.482"/>
<rect x="4.57" y="118.535" fill="#5C5C5F" width="1271.02" height="7.607"/>
<path fill="#EFE9DC" stroke="#050101" stroke-width="2" stroke-miterlimit="10" d="M261.668,113.043c0,0.525-0.443,0.951-0.99,0.951
	H11.132c-0.547,0-0.99-0.426-0.99-0.951V18.024c0-0.525,0.443-0.95,0.99-0.95h249.546c0.547,0,0.99,0.425,0.99,0.95V113.043z"/>
<path fill="#7697B5" d="M260.714,23.514c0,0.68-0.432,1.229-0.967,1.229H11.973c-0.533,0-0.967-0.549-0.967-1.229v-4.263
	c0-0.678,0.434-1.228,0.967-1.228h247.775c0.535,0,0.967,0.55,0.967,1.228V23.514z"/>
<g>
	<polygon fill="#040000" points="25.758,20.66 23.789,24.161 21.82,20.66 	"/>
	<polygon fill="#040000" points="36.908,24.16 38.876,20.659 40.846,24.16 	"/>
</g>
<g>
	<polygon fill="#040000" points="67.463,20.66 65.494,24.161 63.524,20.66 	"/>
	<polygon fill="#040000" points="78.612,24.16 80.581,20.659 82.55,24.16 	"/>
</g>
<g>
	<polygon fill="#040000" points="108.681,20.66 106.712,24.161 104.743,20.66 	"/>
	<polygon fill="#040000" points="119.829,24.16 121.798,20.659 123.767,24.16 	"/>
</g>
<g>
	<polygon fill="#040000" points="150.869,20.66 148.9,24.161 146.931,20.66 	"/>
	<polygon fill="#040000" points="162.02,24.16 163.988,20.659 165.958,24.16 	"/>
</g>
<g>
	<polygon fill="#040000" points="192.088,20.661 190.119,24.162 188.15,20.661 	"/>
	<polygon fill="#040000" points="203.238,24.161 205.207,20.66 207.177,24.161 	"/>
</g>
<g>
	<polygon fill="#040000" points="234.281,20.661 232.313,24.162 230.344,20.661 	"/>
	<polygon fill="#040000" points="245.431,24.161 247.4,20.66 249.37,24.161 	"/>
</g>
<path fill="#EFE9DC" stroke="#050101" stroke-width="2" stroke-miterlimit="10" d="M525.67,113.043c0,0.525-0.443,0.951-0.991,0.951
	H275.128c-0.547,0-0.99-0.426-0.99-0.951V18.024c0-0.525,0.443-0.95,0.99-0.95h249.551c0.548,0,0.991,0.425,0.991,0.95V113.043z"/>
<path fill="#7697B5" d="M524.716,23.514c0,0.68-0.433,1.229-0.967,1.229h-247.78c-0.533,0-0.967-0.549-0.967-1.229v-4.263
	c0-0.678,0.434-1.228,0.967-1.228h247.78c0.534,0,0.967,0.55,0.967,1.228V23.514z"/>
<g>
	<polygon fill="#040000" points="289.754,20.66 287.785,24.161 285.816,20.66 	"/>
	<polygon fill="#040000" points="300.904,24.16 302.873,20.659 304.842,24.16 	"/>
</g>
<g>
	<polygon fill="#040000" points="331.459,20.66 329.49,24.161 327.521,20.66 	"/>
	<polygon fill="#040000" points="342.609,24.16 344.578,20.659 346.546,24.16 	"/>
</g>
<g>
	<polygon fill="#040000" points="372.678,20.66 370.709,24.161 368.739,20.66 	"/>
	<polygon fill="#040000" points="383.828,24.16 385.796,20.659 387.765,24.16 	"/>
</g>
<g>
	<polygon fill="#040000" points="414.87,20.66 412.902,24.161 410.933,20.66 	"/>
	<polygon fill="#040000" points="426.021,24.16 427.989,20.659 429.959,24.16 	"/>
</g>
<g>
	<polygon fill="#040000" points="456.09,20.661 454.121,24.162 452.151,20.661 	"/>
	<polygon fill="#040000" points="467.24,24.161 469.209,20.66 471.178,24.161 	"/>
</g>
<g>
	<polygon fill="#040000" points="498.283,20.661 496.314,24.162 494.345,20.661 	"/>
	<polygon fill="#040000" points="509.433,24.161 511.401,20.66 513.371,24.161 	"/>
</g>
<rect x="1058.345" y="3.805" fill="#5C5C5F" width="210.785" height="118.533"/>
<path fill="#EFE9DC" stroke="#050101" stroke-width="2" stroke-miterlimit="10" d="M789.666,113.043c0,0.525-0.443,0.951-0.99,0.951
	H539.125c-0.547,0-0.99-0.426-0.99-0.951V18.024c0-0.525,0.443-0.95,0.99-0.95h249.551c0.547,0,0.99,0.425,0.99,0.95V113.043z"/>
<path fill="#7697B5" d="M788.713,23.514c0,0.68-0.433,1.229-0.967,1.229h-247.78c-0.533,0-0.967-0.549-0.967-1.229v-4.263
	c0-0.678,0.434-1.228,0.967-1.228h247.78c0.534,0,0.967,0.55,0.967,1.228V23.514z"/>
<g>
	<polygon fill="#040000" points="553.751,20.66 551.782,24.161 549.813,20.66 	"/>
	<polygon fill="#040000" points="564.901,24.16 566.87,20.659 568.839,24.16 	"/>
</g>
<g>
	<polygon fill="#040000" points="595.456,20.66 593.487,24.161 591.518,20.66 	"/>
	<polygon fill="#040000" points="606.605,24.16 608.574,20.659 610.544,24.16 	"/>
</g>
<g>
	<polygon fill="#040000" points="636.674,20.66 634.705,24.161 632.736,20.66 	"/>
	<polygon fill="#040000" points="647.825,24.16 649.793,20.659 651.763,24.16 	"/>
</g>
<g>
	<polygon fill="#040000" points="678.867,20.66 676.899,24.161 674.93,20.66 	"/>
	<polygon fill="#040000" points="690.018,24.16 691.986,20.659 693.955,24.16 	"/>
</g>
<g>
	<polygon fill="#040000" points="720.087,20.661 718.118,24.162 716.148,20.661 	"/>
	<polygon fill="#040000" points="731.237,24.161 733.205,20.66 735.174,24.161 	"/>
</g>
<g>
	<polygon fill="#040000" points="762.279,20.661 760.312,24.162 758.342,20.661 	"/>
	<polygon fill="#040000" points="773.43,24.161 775.398,20.66 777.368,24.161 	"/>
</g>
<rect x="879.09" y="46.443" fill="#A2A2A2" width="153" height="52.314"/>
<text transform="matrix(1 0 0 1 897.6553 83.2871)" font-family="'NotoSansHans-Bold-GBpc-EUC-H'" font-size="25.9547">交 换 机 A</text>
<path fill="#EFE9DC" stroke="#050101" stroke-width="2" stroke-miterlimit="10" d="M1053.661,113.043
	c0,0.525-0.443,0.951-0.99,0.951H803.119c-0.547,0-0.99-0.426-0.99-0.951V18.024c0-0.525,0.443-0.95,0.99-0.95h249.552
	c0.547,0,0.99,0.425,0.99,0.95V113.043z"/>
<path fill="#7697B5" d="M1052.707,23.514c0,0.68-0.433,1.229-0.967,1.229H803.96c-0.533,0-0.966-0.549-0.966-1.229v-4.263
	c0-0.678,0.433-1.228,0.966-1.228h247.78c0.534,0,0.967,0.55,0.967,1.228V23.514z"/>
<g>
	<polygon fill="#040000" points="817.745,20.66 815.776,24.161 813.807,20.66 	"/>
	<polygon fill="#040000" points="828.896,24.16 830.864,20.659 832.834,24.16 	"/>
</g>
<g>
	<polygon fill="#040000" points="859.45,20.66 857.481,24.161 855.512,20.66 	"/>
	<polygon fill="#040000" points="870.601,24.16 872.569,20.659 874.537,24.16 	"/>
</g>
<g>
	<polygon fill="#040000" points="900.669,20.66 898.7,24.161 896.731,20.66 	"/>
	<polygon fill="#040000" points="911.819,24.16 913.787,20.659 915.758,24.16 	"/>
</g>
<g>
	<polygon fill="#040000" points="942.862,20.66 940.894,24.161 938.924,20.66 	"/>
	<polygon fill="#040000" points="954.013,24.16 955.981,20.659 957.95,24.16 	"/>
</g>
<g>
	<polygon fill="#040000" points="984.081,20.661 982.112,24.162 980.144,20.661 	"/>
	<polygon fill="#040000" points="995.231,24.161 997.2,20.66 999.169,24.161 	"/>
</g>
<g>
	<polygon fill="#040000" points="1026.273,20.661 1024.305,24.162 1022.336,20.661 	"/>
	<polygon fill="#040000" points="1037.424,24.161 1039.394,20.66 1041.362,24.161 	"/>
</g>
<g>
	<rect x="1058.345" y="55.834" fill="#272828" width="210.784" height="2.605"/>
	<rect x="1058.345" y="57.584" fill="#848484" width="210.784" height="0.855"/>
</g>
<g>
	<rect x="7.805" y="117.807" fill="#272828" width="1261.324" height="2.605"/>
	<rect x="7.805" y="119.557" fill="#848484" width="1261.324" height="0.855"/>
</g>
<g>
	<circle fill="#424142" cx="1214.133" cy="38.54" r="3.523"/>
	<ellipse fill="#1D1D1D" cx="1214.042" cy="38.376" rx="3.267" ry="3.196"/>
</g>
<g>
	<rect x="1224.985" y="21.775" fill="#DFE168" width="6.938" height="3.75"/>
	<rect x="1225.985" y="22.525" fill="#F7F6E0" width="1.313" height="0.563"/>
</g>
<text transform="matrix(1 0 0 1 1234.7363 26.0869)" fill="#C6C6C6" font-family="'MicrosoftYaHeiUI'" font-size="6">PYYR1</text>
<text transform="matrix(1 0 0 1 1205.4863 20.7598)" fill="#C6C6C6" font-family="'MicrosoftYaHeiUI'" font-size="6">SPEED</text>
<g>
	<rect x="1224.985" y="29.9" fill="#DFE168" width="6.938" height="3.75"/>
	<rect x="1225.985" y="30.65" fill="#F7F6E0" width="1.313" height="0.563"/>
</g>
<text transform="matrix(1 0 0 1 1234.7363 34.2119)" fill="#C6C6C6" font-family="'MicrosoftYaHeiUI'" font-size="6">PYYR2</text>
<rect x="1224.986" y="37.735" fill="#D6D6D6" width="6.938" height="3.75"/>
<rect x="1225.986" y="38.485" fill="#F7F6E0" width="1.313" height="0.563"/>
<text transform="matrix(1 0 0 1 1234.7383 42.0469)" fill="#C6C6C6" font-family="'MicrosoftYaHeiUI'" font-size="6">SYS</text>
<rect x="1213.737" y="24.343" fill="#D6D6D6" width="0.796" height="9.695"/>
<rect x="6.389" y="11.483" fill="#292A2B" width="1.417" height="108.929"/>
<rect x="6.392" y="11.487" fill="#292A2B" width="1262.741" height="2.139"/>
<rect x="1269.133" y="11.487" fill="#292A2B" width="0.506" height="108.925"/>
<g>
	<g>
		<path fill="#A3A3A3" d="M595.684,5.401h2.336V3.534h1.049v4.606h-1.049V6.216h-2.336v1.925h-1.05V3.534h1.05V5.401z"/>
		<path fill="#A3A3A3" d="M600.971,6.293c0,0.815,0.258,1.154,1.125,1.154s1.117-0.339,1.117-1.154V3.534h1.052v2.784
			c0,0.589-0.072,0.993-0.293,1.238c-0.41,0.448-1.008,0.635-1.875,0.635s-1.472-0.187-1.882-0.635
			c-0.229-0.25-0.285-0.654-0.285-1.238V3.534h1.042V6.293z"/>
		<path fill="#A3A3A3" d="M607.69,3.534l2.125,4.606h-1.167l-0.458-1.096h-2.166l-0.444,1.096h-1.11l2.11-4.606H607.69z
			 M606.363,6.223h1.486l-0.755-1.771L606.363,6.223z"/>
		<path fill="#A3A3A3" d="M610.292,3.534l1.153,3.542l0.972-3.542h1.237l1.116,3.542l1.078-3.542h1.075l-1.541,4.606h-1.285
			l-1.063-3.438l-0.93,3.438h-1.277l-1.661-4.606H610.292z"/>
		<path fill="#A3A3A3" d="M618.337,5.408h2.902V6.21h-2.908c0.006,0.827,0.359,1.128,1.186,1.128h1.722v0.803h-1.77
			c-0.604,0-1.069-0.046-1.555-0.404c-0.513-0.379-0.763-0.981-0.763-1.814c0-1.63,0.742-2.388,2.347-2.388h1.742v0.803h-1.722
			C618.761,4.337,618.378,4.683,618.337,5.408z"/>
		<path fill="#A3A3A3" d="M622.164,8.141V3.534h1.098v4.606H622.164z"/>
	</g>
	<g>
		<path fill="#A3A3A3" d="M585.188,8.056c0,0,0.02-0.016,0.009-0.043h0.001c-1.348-2.943-3.192-5.176-3.192-5.176
			s-1.003,0.952-0.931,1.905c0.038,0.723,0.581,1.149,0.581,1.149c0.875,0.852,2.992,1.929,3.484,2.172
			C585.147,8.066,585.172,8.074,585.188,8.056z"/>
		<path fill="#A3A3A3" d="M584.86,8.785c-0.009-0.031-0.046-0.031-0.046-0.031V8.753l-3.525,0.122
			c0.382,0.682,1.026,1.211,1.697,1.049c0.464-0.116,1.511-0.847,1.857-1.095h-0.001C584.87,8.805,584.86,8.785,584.86,8.785z"/>
		<path fill="#A3A3A3" d="M584.913,8.468c0.018-0.027-0.013-0.052-0.013-0.052l0,0c-1.548-1.045-4.549-2.648-4.549-2.648
			c-0.273,0.845,0.095,1.524,0.095,1.524c0.382,0.81,1.112,1.054,1.112,1.054c0.337,0.139,0.675,0.147,0.675,0.147
			c0.053,0.011,2.096,0.002,2.645-0.001C584.9,8.491,584.913,8.468,584.913,8.468z"/>
		<path fill="#A3A3A3" d="M585.147,1.314c-0.153,0.014-0.568,0.108-0.568,0.108c-0.933,0.24-1.154,1.088-1.154,1.088
			c-0.17,0.533,0.005,1.118,0.005,1.118c0.311,1.382,1.845,3.654,2.174,4.131c0.023,0.023,0.042,0.015,0.042,0.015
			c0.036-0.01,0.033-0.044,0.033-0.044l0,0.001C586.188,2.659,585.147,1.314,585.147,1.314z"/>
		<path fill="#A3A3A3" d="M586.314,7.773c0.034,0.013,0.052-0.02,0.052-0.02l0,0c0.338-0.489,1.862-2.748,2.173-4.125
			c0,0,0.168-0.667,0.006-1.118c0,0-0.231-0.86-1.166-1.088c0,0-0.27-0.067-0.555-0.108c0,0-1.045,1.345-0.537,6.42l0,0
			C586.291,7.767,586.314,7.773,586.314,7.773z"/>
		<path fill="#A3A3A3" d="M587.149,8.756c0,0-0.03,0.004-0.04,0.027c0,0-0.007,0.03,0.014,0.047l0,0
			c0.338,0.243,1.36,0.958,1.854,1.097c0,0,0.911,0.31,1.703-1.05L587.149,8.756L587.149,8.756z"/>
		<path fill="#A3A3A3" d="M591.618,5.76c0,0-2.997,1.608-4.547,2.653l0,0c0,0-0.027,0.019-0.018,0.052c0,0,0.015,0.026,0.037,0.026
			l0,0c0.554,0.002,2.655,0.004,2.708-0.006c0,0,0.271-0.011,0.607-0.14c0,0,0.747-0.237,1.135-1.085
			C591.54,7.261,591.886,6.567,591.618,5.76z"/>
		<path fill="#A3A3A3" d="M586.788,8.056c0,0,0.025,0.019,0.048,0.004l0,0c0.504-0.251,2.607-1.32,3.478-2.168
			c0,0,0.551-0.442,0.58-1.153c0.063-0.987-0.931-1.901-0.931-1.901s-1.838,2.225-3.185,5.162l0,0
			C586.778,7.999,586.763,8.034,586.788,8.056z"/>
	</g>
</g>
<rect x="1069.311" y="80.727" fill="#151515" width="188.854" height="29.727"/>
<rect x="1069.181" y="66.439" fill="#ADADAC" width="188.983" height="6.16"/>
<g>
	<polygon fill="#666666" points="1084.812,67.393 1082.162,71.98 1079.514,67.393 	"/>
	<rect x="1091.479" y="67.393" fill="#BFD630" width="5.726" height="4.182"/>
</g>
<g>
	<polygon fill="#666666" points="1155.005,67.189 1152.355,71.777 1149.707,67.189 	"/>
	<rect x="1161.672" y="67.189" fill="#BFD630" width="5.727" height="4.182"/>
</g>
<g>
	<polygon fill="#666666" points="1225.199,66.986 1222.55,71.574 1219.9,66.986 	"/>
	<rect x="1231.865" y="66.986" fill="#BFD630" width="5.727" height="4.182"/>
</g>
</svg>
