<?xml version="1.0" encoding="utf-8"?>
<!-- Generator: Adobe Illustrator 16.0.0, SVG Export Plug-In . SVG Version: 6.00 Build 0)  -->
<!DOCTYPE svg PUBLIC "-//W3C//DTD SVG 1.1//EN" "http://www.w3.org/Graphics/SVG/1.1/DTD/svg11.dtd">
<svg version="1.1" id="图层_1" xmlns="http://www.w3.org/2000/svg" xmlns:xlink="http://www.w3.org/1999/xlink" x="0px" y="0px"
	 width="1275.59px" height="1261.42px" viewBox="0 0 1275.59 1261.42" enable-background="new 0 0 1275.59 1261.42"
	 xml:space="preserve">
<rect y="519.309" fill="#A6A49D" width="1275.59" height="125.801"/>
<rect y="645.109" fill="#A6A49D" width="1275.59" height="119.965"/>
<rect y="163.41" fill="#A6A49D" width="1275.59" height="118.633"/>
<rect y="44.777" fill="#A6A49D" width="1275.59" height="118.633"/>
<rect y="282.043" fill="#A6A49D" width="1275.59" height="118.633"/>
<rect y="400.676" fill="#A6A49D" width="1275.59" height="118.633"/>
<rect y="756.574" fill="#A6A49D" width="1275.59" height="121.93"/>
<rect y="875.207" fill="#A6A49D" width="1275.59" height="118.633"/>
<rect y="54.705" fill="#323232" width="1275.59" height="2.305"/>
<rect y="162.258" fill="#323232" width="1275.59" height="2.305"/>
<rect y="280.891" fill="#323232" width="1275.59" height="2.305"/>
<rect y="399.523" fill="#323232" width="1275.59" height="2.305"/>
<rect y="518.156" fill="#323232" width="1275.59" height="2.305"/>
<rect y="636.789" fill="#323232" width="1275.59" height="2.305"/>
<rect y="755.422" fill="#323232" width="1275.59" height="2.305"/>
<rect y="873.113" fill="#323232" width="1275.59" height="2.305"/>
<rect y="975.75" fill="#323232" width="1275.59" height="2.305"/>
<rect y="973.943" fill="#323232" width="1275.59" height="2.305"/>
<linearGradient id="SVGID_1_" gradientUnits="userSpaceOnUse" x1="0" y1="104.0938" x2="42.4951" y2="104.0938">
	<stop  offset="0" style="stop-color:#595757"/>
	<stop  offset="0.7742" style="stop-color:#898989"/>
	<stop  offset="0.8656" style="stop-color:#FFFFFF"/>
	<stop  offset="0.9409" style="stop-color:#595757"/>
</linearGradient>
<rect y="45.93" fill="url(#SVGID_1_)" width="42.495" height="116.328"/>
<rect x="13.248" y="85.035" fill="#191919" width="8" height="47.95"/>
<linearGradient id="SVGID_2_" gradientUnits="userSpaceOnUse" x1="-8573.8965" y1="104.0938" x2="-8531.4014" y2="104.0938" gradientTransform="matrix(-1 0 0 1 -7298.3066 0)">
	<stop  offset="0" style="stop-color:#595757"/>
	<stop  offset="0.7742" style="stop-color:#898989"/>
	<stop  offset="0.8656" style="stop-color:#FFFFFF"/>
	<stop  offset="0.9409" style="stop-color:#595757"/>
</linearGradient>
<rect x="1233.095" y="45.93" fill="url(#SVGID_2_)" width="42.495" height="116.328"/>
<rect x="1254.343" y="85.035" fill="#191919" width="8" height="47.95"/>
<g>
	<linearGradient id="SVGID_3_" gradientUnits="userSpaceOnUse" x1="0" y1="222.7271" x2="42.4951" y2="222.7271">
		<stop  offset="0" style="stop-color:#595757"/>
		<stop  offset="0.7742" style="stop-color:#898989"/>
		<stop  offset="0.8656" style="stop-color:#FFFFFF"/>
		<stop  offset="0.9409" style="stop-color:#595757"/>
	</linearGradient>
	<rect y="164.563" fill="url(#SVGID_3_)" width="42.495" height="116.329"/>
	<rect x="13.248" y="199.904" fill="#191919" width="8" height="47.951"/>
</g>
<g>
	
		<linearGradient id="SVGID_4_" gradientUnits="userSpaceOnUse" x1="-8573.8965" y1="222.7266" x2="-8531.4014" y2="222.7266" gradientTransform="matrix(-1 0 0 1 -7298.3066 0)">
		<stop  offset="0" style="stop-color:#595757"/>
		<stop  offset="0.7742" style="stop-color:#898989"/>
		<stop  offset="0.8656" style="stop-color:#FFFFFF"/>
		<stop  offset="0.9409" style="stop-color:#595757"/>
	</linearGradient>
	<rect x="1233.095" y="164.563" fill="url(#SVGID_4_)" width="42.495" height="116.328"/>
	<rect x="1254.343" y="199.904" fill="#191919" width="8" height="47.95"/>
</g>
<g>
	<g>
		<linearGradient id="SVGID_5_" gradientUnits="userSpaceOnUse" x1="0" y1="341.3594" x2="42.4951" y2="341.3594">
			<stop  offset="0" style="stop-color:#595757"/>
			<stop  offset="0.7742" style="stop-color:#898989"/>
			<stop  offset="0.8656" style="stop-color:#FFFFFF"/>
			<stop  offset="0.9409" style="stop-color:#595757"/>
		</linearGradient>
		<rect y="283.195" fill="url(#SVGID_5_)" width="42.495" height="116.328"/>
		<rect x="13.248" y="318.537" fill="#191919" width="8" height="47.95"/>
	</g>
	<g>
		
			<linearGradient id="SVGID_6_" gradientUnits="userSpaceOnUse" x1="-8573.8965" y1="341.3594" x2="-8531.4014" y2="341.3594" gradientTransform="matrix(-1 0 0 1 -7298.3066 0)">
			<stop  offset="0" style="stop-color:#595757"/>
			<stop  offset="0.7742" style="stop-color:#898989"/>
			<stop  offset="0.8656" style="stop-color:#FFFFFF"/>
			<stop  offset="0.9409" style="stop-color:#595757"/>
		</linearGradient>
		<rect x="1233.095" y="283.195" fill="url(#SVGID_6_)" width="42.495" height="116.328"/>
		<rect x="1254.343" y="318.537" fill="#191919" width="8" height="47.95"/>
	</g>
</g>
<g>
	<g>
		<linearGradient id="SVGID_7_" gradientUnits="userSpaceOnUse" x1="0" y1="460.3721" x2="42.4951" y2="460.3721">
			<stop  offset="0" style="stop-color:#595757"/>
			<stop  offset="0.7742" style="stop-color:#898989"/>
			<stop  offset="0.8656" style="stop-color:#FFFFFF"/>
			<stop  offset="0.9409" style="stop-color:#595757"/>
		</linearGradient>
		<rect y="402.588" fill="url(#SVGID_7_)" width="42.495" height="115.568"/>
		<rect x="13.248" y="437.699" fill="#191919" width="8" height="47.636"/>
	</g>
	<g>
		
			<linearGradient id="SVGID_8_" gradientUnits="userSpaceOnUse" x1="-8573.8965" y1="460.3721" x2="-8531.4014" y2="460.3721" gradientTransform="matrix(-1 0 0 1 -7298.3066 0)">
			<stop  offset="0" style="stop-color:#595757"/>
			<stop  offset="0.7742" style="stop-color:#898989"/>
			<stop  offset="0.8656" style="stop-color:#FFFFFF"/>
			<stop  offset="0.9409" style="stop-color:#595757"/>
		</linearGradient>
		<rect x="1233.095" y="402.588" fill="url(#SVGID_8_)" width="42.495" height="115.568"/>
		<rect x="1254.343" y="437.699" fill="#191919" width="8" height="47.636"/>
	</g>
</g>
<g>
	<g>
		<linearGradient id="SVGID_9_" gradientUnits="userSpaceOnUse" x1="0" y1="578.625" x2="42.4951" y2="578.625">
			<stop  offset="0" style="stop-color:#595757"/>
			<stop  offset="0.7742" style="stop-color:#898989"/>
			<stop  offset="0.8656" style="stop-color:#FFFFFF"/>
			<stop  offset="0.9409" style="stop-color:#595757"/>
		</linearGradient>
		<rect y="520.461" fill="url(#SVGID_9_)" width="42.495" height="116.328"/>
		<rect x="13.248" y="555.802" fill="#191919" width="8" height="47.95"/>
	</g>
	<g>
		
			<linearGradient id="SVGID_10_" gradientUnits="userSpaceOnUse" x1="-8573.8965" y1="578.625" x2="-8531.4014" y2="578.625" gradientTransform="matrix(-1 0 0 1 -7298.3066 0)">
			<stop  offset="0" style="stop-color:#595757"/>
			<stop  offset="0.7742" style="stop-color:#898989"/>
			<stop  offset="0.8656" style="stop-color:#FFFFFF"/>
			<stop  offset="0.9409" style="stop-color:#595757"/>
		</linearGradient>
		<rect x="1233.095" y="520.461" fill="url(#SVGID_10_)" width="42.495" height="116.328"/>
		<rect x="1254.343" y="555.802" fill="#191919" width="8" height="47.95"/>
	</g>
</g>
<g>
	<g>
		<linearGradient id="SVGID_11_" gradientUnits="userSpaceOnUse" x1="0" y1="696.2832" x2="42.4951" y2="696.2832">
			<stop  offset="0" style="stop-color:#595757"/>
			<stop  offset="0.7742" style="stop-color:#898989"/>
			<stop  offset="0.8656" style="stop-color:#FFFFFF"/>
			<stop  offset="0.9409" style="stop-color:#595757"/>
		</linearGradient>
		<rect y="637.145" fill="url(#SVGID_11_)" width="42.495" height="118.277"/>
		<rect x="13.248" y="673.078" fill="#191919" width="8" height="48.754"/>
	</g>
	<g>
		
			<linearGradient id="SVGID_12_" gradientUnits="userSpaceOnUse" x1="-8573.8965" y1="696.2832" x2="-8531.4014" y2="696.2832" gradientTransform="matrix(-1 0 0 1 -7298.3066 0)">
			<stop  offset="0" style="stop-color:#595757"/>
			<stop  offset="0.7742" style="stop-color:#898989"/>
			<stop  offset="0.8656" style="stop-color:#FFFFFF"/>
			<stop  offset="0.9409" style="stop-color:#595757"/>
		</linearGradient>
		<rect x="1233.095" y="637.145" fill="url(#SVGID_12_)" width="42.495" height="118.277"/>
		<rect x="1254.343" y="673.078" fill="#191919" width="8" height="48.754"/>
	</g>
</g>
<g>
	<g>
		<linearGradient id="SVGID_13_" gradientUnits="userSpaceOnUse" x1="0" y1="810.3145" x2="42.4951" y2="810.3145">
			<stop  offset="0" style="stop-color:#595757"/>
			<stop  offset="0.7742" style="stop-color:#898989"/>
			<stop  offset="0.8656" style="stop-color:#FFFFFF"/>
			<stop  offset="0.9409" style="stop-color:#595757"/>
		</linearGradient>
		<rect y="756.543" fill="url(#SVGID_13_)" width="42.495" height="107.543"/>
		<rect x="13.248" y="789.215" fill="#191919" width="8" height="44.33"/>
	</g>
	<g>
		
			<linearGradient id="SVGID_14_" gradientUnits="userSpaceOnUse" x1="-8573.8965" y1="810.3145" x2="-8531.4014" y2="810.3145" gradientTransform="matrix(-1 0 0 1 -7298.3066 0)">
			<stop  offset="0" style="stop-color:#595757"/>
			<stop  offset="0.7742" style="stop-color:#898989"/>
			<stop  offset="0.8656" style="stop-color:#FFFFFF"/>
			<stop  offset="0.9409" style="stop-color:#595757"/>
		</linearGradient>
		<rect x="1233.095" y="756.543" fill="url(#SVGID_14_)" width="42.495" height="107.543"/>
		<rect x="1254.343" y="789.215" fill="#191919" width="8" height="44.33"/>
	</g>
</g>
<g>
	<g>
		<linearGradient id="SVGID_15_" gradientUnits="userSpaceOnUse" x1="0" y1="926.6543" x2="42.4951" y2="926.6543">
			<stop  offset="0" style="stop-color:#595757"/>
			<stop  offset="0.7742" style="stop-color:#898989"/>
			<stop  offset="0.8656" style="stop-color:#FFFFFF"/>
			<stop  offset="0.9409" style="stop-color:#595757"/>
		</linearGradient>
		<rect y="877.299" fill="url(#SVGID_15_)" width="42.495" height="98.711"/>
		<rect x="13.248" y="907.287" fill="#191919" width="8" height="40.689"/>
	</g>
	<g>
		
			<linearGradient id="SVGID_16_" gradientUnits="userSpaceOnUse" x1="-8573.8965" y1="926.6543" x2="-8531.4014" y2="926.6543" gradientTransform="matrix(-1 0 0 1 -7298.3066 0)">
			<stop  offset="0" style="stop-color:#595757"/>
			<stop  offset="0.7742" style="stop-color:#898989"/>
			<stop  offset="0.8656" style="stop-color:#FFFFFF"/>
			<stop  offset="0.9409" style="stop-color:#595757"/>
		</linearGradient>
		<rect x="1233.095" y="877.299" fill="url(#SVGID_16_)" width="42.495" height="98.711"/>
		<rect x="1254.343" y="907.287" fill="#191919" width="8" height="40.689"/>
	</g>
</g>
<g>
	<linearGradient id="SVGID_17_" gradientUnits="userSpaceOnUse" x1="0" y1="273.6211" x2="158.4951" y2="273.6211">
		<stop  offset="0" style="stop-color:#595757"/>
		<stop  offset="0.7742" style="stop-color:#898989"/>
		<stop  offset="0.8656" style="stop-color:#FFFFFF"/>
		<stop  offset="0.9409" style="stop-color:#595757"/>
	</linearGradient>
	<rect y="266.352" fill="url(#SVGID_17_)" width="158.495" height="14.539"/>
	
		<linearGradient id="SVGID_18_" gradientUnits="userSpaceOnUse" x1="-8689.8955" y1="273.6211" x2="-8531.4004" y2="273.6211" gradientTransform="matrix(-1 0 0 1 -7414.3057 0)">
		<stop  offset="0" style="stop-color:#595757"/>
		<stop  offset="0.7742" style="stop-color:#898989"/>
		<stop  offset="0.8656" style="stop-color:#FFFFFF"/>
		<stop  offset="0.9409" style="stop-color:#595757"/>
	</linearGradient>
	<rect x="1117.095" y="266.352" fill="url(#SVGID_18_)" width="158.495" height="14.539"/>
</g>
<g>
	<linearGradient id="SVGID_19_" gradientUnits="userSpaceOnUse" x1="0" y1="510.8867" x2="158.4951" y2="510.8867">
		<stop  offset="0" style="stop-color:#595757"/>
		<stop  offset="0.7742" style="stop-color:#898989"/>
		<stop  offset="0.8656" style="stop-color:#FFFFFF"/>
		<stop  offset="0.9409" style="stop-color:#595757"/>
	</linearGradient>
	<rect y="503.617" fill="url(#SVGID_19_)" width="158.495" height="14.539"/>
	
		<linearGradient id="SVGID_20_" gradientUnits="userSpaceOnUse" x1="-8689.8955" y1="510.8867" x2="-8531.4004" y2="510.8867" gradientTransform="matrix(-1 0 0 1 -7414.3057 0)">
		<stop  offset="0" style="stop-color:#595757"/>
		<stop  offset="0.7742" style="stop-color:#898989"/>
		<stop  offset="0.8656" style="stop-color:#FFFFFF"/>
		<stop  offset="0.9409" style="stop-color:#595757"/>
	</linearGradient>
	<rect x="1117.095" y="503.617" fill="url(#SVGID_20_)" width="158.495" height="14.539"/>
</g>
<g>
	<path fill="#AFAFAF" d="M91.377,592.755c0,8.564-7.391,15.51-16.508,15.51s-16.508-6.945-16.508-15.51
		c0-8.566,7.391-15.512,16.508-15.512S91.377,584.189,91.377,592.755"/>
	<ellipse fill="none" stroke="#949394" stroke-miterlimit="10" cx="74.869" cy="592.755" rx="16.508" ry="15.51"/>
	<path fill="#AFAFAF" d="M86.998,592.755c0,6.293-5.431,11.396-12.129,11.396s-12.128-5.104-12.128-11.396
		c0-6.295,5.43-11.396,12.128-11.396S86.998,586.46,86.998,592.755"/>
	<ellipse fill="none" stroke="#949394" stroke-miterlimit="10" cx="74.869" cy="592.755" rx="12.129" ry="11.396"/>
	<g>
		<g>
			<defs>
				<rect id="SVGID_21_" x="63.434" y="582.013" width="22.87" height="21.482"/>
			</defs>
			<clipPath id="SVGID_22_">
				<use xlink:href="#SVGID_21_"  overflow="visible"/>
			</clipPath>
			<path clip-path="url(#SVGID_22_)" fill="#BFBFBF" d="M86.301,592.755c0,5.932-5.118,10.74-11.432,10.74
				s-11.432-4.809-11.432-10.74s5.118-10.742,11.432-10.742S86.301,586.824,86.301,592.755"/>
			<path clip-path="url(#SVGID_22_)" fill="#C1C1C1" d="M86.032,592.755c0,5.791-4.999,10.486-11.163,10.486
				c-6.165,0-11.162-4.695-11.162-10.486c0-5.793,4.997-10.488,11.162-10.488C81.033,582.267,86.032,586.962,86.032,592.755"/>
			<path clip-path="url(#SVGID_22_)" fill="#C3C4C4" d="M85.762,592.755c0,5.652-4.875,10.236-10.893,10.236
				c-6.016,0-10.892-4.584-10.892-10.236s4.876-10.236,10.892-10.236C80.886,582.519,85.762,587.103,85.762,592.755"/>
			<path clip-path="url(#SVGID_22_)" fill="#C5C6C6" d="M85.495,592.755c0,5.514-4.757,9.982-10.625,9.982
				c-5.868,0-10.625-4.469-10.625-9.982s4.756-9.982,10.625-9.982C80.738,582.773,85.495,587.242,85.495,592.755"/>
			<path clip-path="url(#SVGID_22_)" fill="#C7C9C9" d="M85.227,592.755c0,5.373-4.639,9.73-10.358,9.73s-10.355-4.357-10.355-9.73
				s4.637-9.732,10.355-9.732S85.227,587.382,85.227,592.755"/>
			<path clip-path="url(#SVGID_22_)" fill="#CACBCB" d="M84.956,592.755c0,5.232-4.516,9.479-10.087,9.479
				s-10.087-4.246-10.087-9.479c0-5.234,4.516-9.479,10.087-9.479S84.956,587.521,84.956,592.755"/>
			<path clip-path="url(#SVGID_22_)" fill="#CCCECE" d="M84.688,592.755c0,5.094-4.396,9.225-9.818,9.225
				c-5.424,0-9.817-4.131-9.817-9.225c0-5.096,4.393-9.227,9.817-9.227C80.291,583.529,84.688,587.66,84.688,592.755"/>
			<path clip-path="url(#SVGID_22_)" fill="#CED0D0" d="M84.419,592.755c0,4.953-4.277,8.973-9.55,8.973s-9.549-4.02-9.549-8.973
				c0-4.955,4.276-8.975,9.549-8.975S84.419,587.8,84.419,592.755"/>
			<path clip-path="url(#SVGID_22_)" fill="#D1D3D3" d="M84.149,592.755c0,4.814-4.155,8.719-9.28,8.719
				c-5.125,0-9.28-3.904-9.28-8.719c0-4.816,4.156-8.721,9.28-8.721C79.995,584.035,84.149,587.939,84.149,592.755"/>
			<path clip-path="url(#SVGID_22_)" fill="#D3D5D5" d="M83.881,592.755c0,4.676-4.035,8.467-9.012,8.467s-9.012-3.791-9.012-8.467
				c0-4.678,4.035-8.467,9.012-8.467S83.881,588.078,83.881,592.755"/>
		</g>
	</g>
	<polygon fill="#5F5F5E" points="73.376,599.212 73.376,594.158 67.995,594.158 67.995,591.351 73.376,591.351 73.376,586.296 
		76.361,586.296 76.361,591.351 81.743,591.351 81.743,594.158 76.361,594.158 76.361,599.212 	"/>
	<path fill="#231815" d="M76.104,586.539v4.57v0.484h0.517h4.863v2.32h-4.863h-0.517v0.486v4.57h-2.47v-4.57v-0.486h-0.518h-4.863
		v-2.32h4.863h0.518v-0.484v-4.57H76.104z M76.621,586.054h-3.504v5.055h-5.379v3.291h5.379v5.057h3.504V594.4H82v-3.291h-5.379
		V586.054z"/>
</g>
<rect x="53.412" y="639.992" fill="#2A2B2B" width="1.166" height="118.633"/>
<rect x="53.412" y="757.473" fill="#2A2B2B" width="1.166" height="118.633"/>
<rect y="983.156" fill="#323333" width="1275.59" height="278.262"/>
<rect y="979.664" fill="#050101" width="1275.59" height="4.682"/>
<rect y="981.338" fill="#050101" width="1275.59" height="10.533"/>
<rect y="982.004" fill="#323232" width="1275.59" height="2.305"/>
<ellipse fill="#040000" cx="25.696" cy="1031.309" rx="8.222" ry="7.732"/>
<ellipse fill="#040000" cx="131.85" cy="1031.309" rx="8.221" ry="7.732"/>
<ellipse fill="#040000" cx="25.696" cy="1051.266" rx="8.222" ry="7.732"/>
<ellipse fill="#040000" cx="131.85" cy="1051.266" rx="8.221" ry="7.732"/>
<ellipse fill="#040000" cx="25.696" cy="1071.223" rx="8.222" ry="7.732"/>
<ellipse fill="#040000" cx="46.927" cy="1071.223" rx="8.222" ry="7.732"/>
<ellipse fill="#040000" cx="68.157" cy="1071.223" rx="8.222" ry="7.732"/>
<ellipse fill="#040000" cx="89.388" cy="1071.223" rx="8.222" ry="7.732"/>
<ellipse fill="#040000" cx="110.619" cy="1071.223" rx="8.221" ry="7.732"/>
<ellipse fill="#040000" cx="131.85" cy="1071.223" rx="8.221" ry="7.732"/>
<ellipse fill="#040000" cx="25.696" cy="1091.18" rx="8.222" ry="7.732"/>
<ellipse fill="#040000" cx="46.927" cy="1091.18" rx="8.222" ry="7.732"/>
<ellipse fill="#040000" cx="68.157" cy="1091.18" rx="8.222" ry="7.732"/>
<ellipse fill="#040000" cx="89.388" cy="1091.18" rx="8.222" ry="7.732"/>
<ellipse fill="#040000" cx="110.619" cy="1091.18" rx="8.221" ry="7.732"/>
<ellipse fill="#040000" cx="131.85" cy="1091.18" rx="8.221" ry="7.732"/>
<ellipse fill="#040000" cx="25.696" cy="1111.139" rx="8.222" ry="7.732"/>
<ellipse fill="#040000" cx="46.927" cy="1111.139" rx="8.222" ry="7.732"/>
<ellipse fill="#040000" cx="68.157" cy="1111.139" rx="8.222" ry="7.732"/>
<ellipse fill="#040000" cx="89.388" cy="1111.139" rx="8.222" ry="7.732"/>
<ellipse fill="#040000" cx="110.619" cy="1111.139" rx="8.221" ry="7.732"/>
<ellipse fill="#040000" cx="131.85" cy="1111.139" rx="8.221" ry="7.732"/>
<ellipse fill="#040000" cx="25.696" cy="1131.096" rx="8.222" ry="7.732"/>
<ellipse fill="#040000" cx="46.927" cy="1131.096" rx="8.222" ry="7.732"/>
<ellipse fill="#040000" cx="68.157" cy="1131.096" rx="8.222" ry="7.732"/>
<ellipse fill="#040000" cx="89.388" cy="1131.096" rx="8.222" ry="7.732"/>
<ellipse fill="#040000" cx="110.619" cy="1131.096" rx="8.221" ry="7.732"/>
<ellipse fill="#040000" cx="131.85" cy="1131.096" rx="8.221" ry="7.732"/>
<ellipse fill="#040000" cx="25.696" cy="1151.053" rx="8.222" ry="7.732"/>
<ellipse fill="#040000" cx="46.927" cy="1151.053" rx="8.222" ry="7.732"/>
<ellipse fill="#040000" cx="68.157" cy="1151.053" rx="8.222" ry="7.732"/>
<ellipse fill="#040000" cx="89.388" cy="1151.053" rx="8.222" ry="7.732"/>
<ellipse fill="#040000" cx="110.619" cy="1151.053" rx="8.221" ry="7.732"/>
<ellipse fill="#040000" cx="131.85" cy="1151.053" rx="8.221" ry="7.732"/>
<ellipse fill="#040000" cx="25.696" cy="1171.01" rx="8.222" ry="7.732"/>
<ellipse fill="#040000" cx="46.927" cy="1171.01" rx="8.222" ry="7.732"/>
<ellipse fill="#040000" cx="68.157" cy="1171.01" rx="8.222" ry="7.732"/>
<ellipse fill="#040000" cx="89.388" cy="1171.01" rx="8.222" ry="7.732"/>
<ellipse fill="#040000" cx="110.619" cy="1171.01" rx="8.221" ry="7.732"/>
<ellipse fill="#040000" cx="131.85" cy="1171.01" rx="8.221" ry="7.732"/>
<ellipse fill="#040000" cx="25.696" cy="1190.969" rx="8.222" ry="7.732"/>
<ellipse fill="#040000" cx="46.927" cy="1190.969" rx="8.222" ry="7.732"/>
<ellipse fill="#040000" cx="131.85" cy="1190.969" rx="8.221" ry="7.732"/>
<ellipse fill="#040000" cx="25.696" cy="1210.926" rx="8.222" ry="7.732"/>
<ellipse fill="#040000" cx="46.927" cy="1210.926" rx="8.222" ry="7.732"/>
<ellipse fill="#040000" cx="131.85" cy="1210.926" rx="8.221" ry="7.732"/>
<ellipse fill="#040000" cx="25.696" cy="1230.883" rx="8.222" ry="7.732"/>
<ellipse fill="#040000" cx="46.927" cy="1230.883" rx="8.222" ry="7.732"/>
<ellipse fill="#040000" cx="131.85" cy="1230.883" rx="8.221" ry="7.732"/>
<g>
	<path fill="#070001" d="M108.694,1182.348c4.557,0,8.25,3.475,8.25,7.76c0,4.287-3.694,7.762-8.25,7.762
		c-4.558,0-8.252-3.475-8.252-7.762C100.442,1185.822,104.136,1182.348,108.694,1182.348"/>
	<g>
		<defs>
			<path id="SVGID_23_" d="M102.062,1190.107c0,3.443,2.969,6.236,6.633,6.236c3.66,0,6.63-2.793,6.63-6.236s-2.97-6.236-6.63-6.236
				C105.031,1183.871,102.062,1186.664,102.062,1190.107"/>
		</defs>
		<clipPath id="SVGID_24_">
			<use xlink:href="#SVGID_23_"  overflow="visible"/>
		</clipPath>
		
			<radialGradient id="SVGID_25_" cx="-250.4155" cy="1022.0244" r="1.1788" gradientTransform="matrix(8.2859 0 0 7.7927 2182 -6776.4375)" gradientUnits="userSpaceOnUse">
			<stop  offset="0" style="stop-color:#7DB960"/>
			<stop  offset="1" style="stop-color:#1D813B"/>
		</radialGradient>
		<rect x="102.062" y="1183.871" clip-path="url(#SVGID_24_)" fill="url(#SVGID_25_)" width="13.263" height="12.473"/>
	</g>
	<g opacity="0.5" enable-background="new    ">
		<g>
			<defs>
				<rect id="SVGID_26_" x="105.599" y="1186.506" width="2.211" height="2.078"/>
			</defs>
			<clipPath id="SVGID_27_">
				<use xlink:href="#SVGID_26_"  overflow="visible"/>
			</clipPath>
			<rect x="105.599" y="1186.506" clip-path="url(#SVGID_27_)" fill="#FFFFFF" width="2.211" height="2.078"/>
		</g>
	</g>
	<g opacity="0.5" enable-background="new    ">
		<g>
			<defs>
				<rect id="SVGID_28_" x="105.599" y="1186.506" width="1.104" height="2.078"/>
			</defs>
			<clipPath id="SVGID_29_">
				<use xlink:href="#SVGID_28_"  overflow="visible"/>
			</clipPath>
			<rect x="105.599" y="1186.506" clip-path="url(#SVGID_29_)" fill="#FFFFFF" width="1.104" height="2.078"/>
		</g>
	</g>
</g>
<g>
	<defs>
		<path id="SVGID_30_" d="M102.062,1210c0,3.445,2.969,6.236,6.633,6.236c3.66,0,6.63-2.791,6.63-6.236
			c0-3.443-2.97-6.236-6.63-6.236C105.031,1203.764,102.062,1206.557,102.062,1210"/>
	</defs>
	<use xlink:href="#SVGID_30_"  overflow="visible" fill="#939393"/>
	<clipPath id="SVGID_31_">
		<use xlink:href="#SVGID_30_"  overflow="visible"/>
	</clipPath>
	<rect x="102.062" y="1203.764" clip-path="url(#SVGID_31_)" fill="#939393" width="13.263" height="12.473"/>
</g>
<g>
	<defs>
		<path id="SVGID_32_" d="M102.062,1227.111c0,3.445,2.969,6.236,6.633,6.236c3.66,0,6.63-2.791,6.63-6.236
			c0-3.443-2.97-6.234-6.63-6.234C105.031,1220.877,102.062,1223.668,102.062,1227.111"/>
	</defs>
	<use xlink:href="#SVGID_32_"  overflow="visible" fill="#939393"/>
	<clipPath id="SVGID_33_">
		<use xlink:href="#SVGID_32_"  overflow="visible"/>
	</clipPath>
	<rect x="102.062" y="1220.877" clip-path="url(#SVGID_33_)" fill="#939393" width="13.263" height="12.471"/>
</g>
<rect x="148.495" y="991.842" fill="#6B6B6B" width="2" height="256.861"/>
<ellipse fill="#040000" cx="329.67" cy="1031.309" rx="8.221" ry="7.732"/>
<ellipse fill="#040000" cx="435.823" cy="1031.309" rx="8.222" ry="7.732"/>
<ellipse fill="#040000" cx="329.67" cy="1051.266" rx="8.221" ry="7.732"/>
<ellipse fill="#040000" cx="435.823" cy="1051.266" rx="8.222" ry="7.732"/>
<ellipse fill="#040000" cx="329.67" cy="1071.223" rx="8.221" ry="7.732"/>
<ellipse fill="#040000" cx="350.899" cy="1071.223" rx="8.222" ry="7.732"/>
<ellipse fill="#040000" cx="372.13" cy="1071.223" rx="8.221" ry="7.732"/>
<ellipse fill="#040000" cx="393.361" cy="1071.223" rx="8.222" ry="7.732"/>
<ellipse fill="#040000" cx="414.593" cy="1071.223" rx="8.222" ry="7.732"/>
<ellipse fill="#040000" cx="435.823" cy="1071.223" rx="8.222" ry="7.732"/>
<ellipse fill="#040000" cx="329.67" cy="1091.18" rx="8.221" ry="7.732"/>
<ellipse fill="#040000" cx="350.899" cy="1091.18" rx="8.222" ry="7.732"/>
<ellipse fill="#040000" cx="372.13" cy="1091.18" rx="8.221" ry="7.732"/>
<ellipse fill="#040000" cx="393.361" cy="1091.18" rx="8.222" ry="7.732"/>
<ellipse fill="#040000" cx="414.593" cy="1091.18" rx="8.222" ry="7.732"/>
<ellipse fill="#040000" cx="435.823" cy="1091.18" rx="8.222" ry="7.732"/>
<ellipse fill="#040000" cx="329.67" cy="1111.139" rx="8.221" ry="7.732"/>
<ellipse fill="#040000" cx="350.899" cy="1111.139" rx="8.222" ry="7.732"/>
<ellipse fill="#040000" cx="372.13" cy="1111.139" rx="8.221" ry="7.732"/>
<ellipse fill="#040000" cx="393.361" cy="1111.139" rx="8.222" ry="7.732"/>
<ellipse fill="#040000" cx="414.593" cy="1111.139" rx="8.222" ry="7.732"/>
<ellipse fill="#040000" cx="435.823" cy="1111.139" rx="8.222" ry="7.732"/>
<ellipse fill="#040000" cx="329.67" cy="1131.096" rx="8.221" ry="7.732"/>
<ellipse fill="#040000" cx="350.899" cy="1131.096" rx="8.222" ry="7.732"/>
<ellipse fill="#040000" cx="372.13" cy="1131.096" rx="8.221" ry="7.732"/>
<ellipse fill="#040000" cx="393.361" cy="1131.096" rx="8.222" ry="7.732"/>
<ellipse fill="#040000" cx="414.593" cy="1131.096" rx="8.222" ry="7.732"/>
<ellipse fill="#040000" cx="435.823" cy="1131.096" rx="8.222" ry="7.732"/>
<ellipse fill="#040000" cx="329.67" cy="1151.053" rx="8.221" ry="7.732"/>
<ellipse fill="#040000" cx="350.899" cy="1151.053" rx="8.222" ry="7.732"/>
<ellipse fill="#040000" cx="372.13" cy="1151.053" rx="8.221" ry="7.732"/>
<ellipse fill="#040000" cx="393.361" cy="1151.053" rx="8.222" ry="7.732"/>
<ellipse fill="#040000" cx="414.593" cy="1151.053" rx="8.222" ry="7.732"/>
<ellipse fill="#040000" cx="435.823" cy="1151.053" rx="8.222" ry="7.732"/>
<ellipse fill="#040000" cx="329.67" cy="1171.01" rx="8.221" ry="7.732"/>
<ellipse fill="#040000" cx="350.899" cy="1171.01" rx="8.222" ry="7.732"/>
<ellipse fill="#040000" cx="372.13" cy="1171.01" rx="8.221" ry="7.732"/>
<ellipse fill="#040000" cx="393.361" cy="1171.01" rx="8.222" ry="7.732"/>
<ellipse fill="#040000" cx="414.593" cy="1171.01" rx="8.222" ry="7.732"/>
<ellipse fill="#040000" cx="435.823" cy="1171.01" rx="8.222" ry="7.732"/>
<ellipse fill="#040000" cx="329.67" cy="1190.969" rx="8.221" ry="7.732"/>
<ellipse fill="#040000" cx="350.899" cy="1190.969" rx="8.222" ry="7.732"/>
<ellipse fill="#040000" cx="435.823" cy="1190.969" rx="8.222" ry="7.732"/>
<ellipse fill="#040000" cx="329.67" cy="1210.926" rx="8.221" ry="7.732"/>
<ellipse fill="#040000" cx="350.899" cy="1210.926" rx="8.222" ry="7.732"/>
<ellipse fill="#040000" cx="435.823" cy="1210.926" rx="8.222" ry="7.732"/>
<ellipse fill="#040000" cx="329.67" cy="1230.883" rx="8.221" ry="7.732"/>
<ellipse fill="#040000" cx="350.899" cy="1230.883" rx="8.222" ry="7.732"/>
<ellipse fill="#040000" cx="435.823" cy="1230.883" rx="8.222" ry="7.732"/>
<g>
	<path fill="#070001" d="M411.668,1182.348c4.556,0,8.25,3.475,8.25,7.76c0,4.287-3.694,7.762-8.25,7.762
		c-4.559,0-8.252-3.475-8.252-7.762C403.416,1185.822,407.109,1182.348,411.668,1182.348"/>
	<g>
		<defs>
			<path id="SVGID_34_" d="M405.036,1190.107c0,3.443,2.967,6.236,6.632,6.236c3.66,0,6.63-2.793,6.63-6.236
				s-2.971-6.236-6.63-6.236C408.003,1183.871,405.036,1186.664,405.036,1190.107"/>
		</defs>
		<clipPath id="SVGID_35_">
			<use xlink:href="#SVGID_34_"  overflow="visible"/>
		</clipPath>
		
			<radialGradient id="SVGID_36_" cx="-213.8506" cy="1022.0244" r="1.1788" gradientTransform="matrix(8.2859 0 0 7.7927 2182 -6776.4375)" gradientUnits="userSpaceOnUse">
			<stop  offset="0" style="stop-color:#7DB960"/>
			<stop  offset="1" style="stop-color:#1D813B"/>
		</radialGradient>
		<rect x="405.036" y="1183.871" clip-path="url(#SVGID_35_)" fill="url(#SVGID_36_)" width="13.262" height="12.473"/>
	</g>
	<g opacity="0.5" enable-background="new    ">
		<g>
			<defs>
				<rect id="SVGID_37_" x="408.572" y="1186.506" width="2.211" height="2.078"/>
			</defs>
			<clipPath id="SVGID_38_">
				<use xlink:href="#SVGID_37_"  overflow="visible"/>
			</clipPath>
			<rect x="408.572" y="1186.506" clip-path="url(#SVGID_38_)" fill="#FFFFFF" width="2.211" height="2.078"/>
		</g>
	</g>
	<g opacity="0.5" enable-background="new    ">
		<g>
			<defs>
				<rect id="SVGID_39_" x="408.572" y="1186.506" width="1.104" height="2.078"/>
			</defs>
			<clipPath id="SVGID_40_">
				<use xlink:href="#SVGID_39_"  overflow="visible"/>
			</clipPath>
			<rect x="408.572" y="1186.506" clip-path="url(#SVGID_40_)" fill="#FFFFFF" width="1.104" height="2.078"/>
		</g>
	</g>
</g>
<g>
	<path fill="#070001" d="M639.797,1015.816c4.557,0,8.252,3.473,8.252,7.76c0,4.285-3.695,7.76-8.252,7.76
		c-4.559,0-8.252-3.475-8.252-7.76C631.545,1019.289,635.238,1015.816,639.797,1015.816"/>
	<g>
		<defs>
			<path id="SVGID_41_" d="M633.166,1023.576c0,3.443,2.968,6.236,6.631,6.236c3.662,0,6.631-2.793,6.631-6.236
				s-2.969-6.236-6.631-6.236C636.134,1017.34,633.166,1020.133,633.166,1023.576"/>
		</defs>
		<clipPath id="SVGID_42_">
			<use xlink:href="#SVGID_41_"  overflow="visible"/>
		</clipPath>
		
			<radialGradient id="SVGID_43_" cx="-186.3184" cy="1000.6553" r="1.1782" gradientTransform="matrix(8.2859 0 0 7.7927 2182 -6776.4375)" gradientUnits="userSpaceOnUse">
			<stop  offset="0" style="stop-color:#7DB960"/>
			<stop  offset="1" style="stop-color:#1D813B"/>
		</radialGradient>
		<rect x="633.166" y="1017.34" clip-path="url(#SVGID_42_)" fill="url(#SVGID_43_)" width="13.262" height="12.473"/>
	</g>
	<g opacity="0.5" enable-background="new    ">
		<g>
			<defs>
				<rect id="SVGID_44_" x="636.703" y="1019.973" width="2.21" height="2.08"/>
			</defs>
			<clipPath id="SVGID_45_">
				<use xlink:href="#SVGID_44_"  overflow="visible"/>
			</clipPath>
			<rect x="636.703" y="1019.973" clip-path="url(#SVGID_45_)" fill="#FFFFFF" width="2.21" height="2.08"/>
		</g>
	</g>
	<g opacity="0.5" enable-background="new    ">
		<g>
			<defs>
				<rect id="SVGID_46_" x="636.703" y="1019.973" width="1.104" height="2.08"/>
			</defs>
			<clipPath id="SVGID_47_">
				<use xlink:href="#SVGID_46_"  overflow="visible"/>
			</clipPath>
			<rect x="636.703" y="1019.973" clip-path="url(#SVGID_47_)" fill="#FFFFFF" width="1.104" height="2.08"/>
		</g>
	</g>
</g>
<g>
	<defs>
		<path id="SVGID_48_" d="M405.036,1210c0,3.445,2.967,6.236,6.632,6.236c3.66,0,6.63-2.791,6.63-6.236
			c0-3.443-2.971-6.236-6.63-6.236C408.003,1203.764,405.036,1206.557,405.036,1210"/>
	</defs>
	<use xlink:href="#SVGID_48_"  overflow="visible" fill="#939393"/>
	<clipPath id="SVGID_49_">
		<use xlink:href="#SVGID_48_"  overflow="visible"/>
	</clipPath>
	<rect x="405.036" y="1203.764" clip-path="url(#SVGID_49_)" fill="#939393" width="13.262" height="12.473"/>
</g>
<g>
	<defs>
		<path id="SVGID_50_" d="M633.166,1051.266c0,3.443,2.968,6.236,6.631,6.236c3.662,0,6.631-2.793,6.631-6.236
			s-2.969-6.236-6.631-6.236C636.134,1045.029,633.166,1047.822,633.166,1051.266"/>
	</defs>
	<use xlink:href="#SVGID_50_"  overflow="visible" fill="#939393"/>
	<clipPath id="SVGID_51_">
		<use xlink:href="#SVGID_50_"  overflow="visible"/>
	</clipPath>
	<rect x="633.166" y="1045.029" clip-path="url(#SVGID_51_)" fill="#939393" width="13.262" height="12.473"/>
</g>
<g>
	<defs>
		<path id="SVGID_52_" d="M405.036,1227.111c0,3.445,2.967,6.236,6.632,6.236c3.66,0,6.63-2.791,6.63-6.236
			c0-3.443-2.971-6.234-6.63-6.234C408.003,1220.877,405.036,1223.668,405.036,1227.111"/>
	</defs>
	<use xlink:href="#SVGID_52_"  overflow="visible" fill="#939393"/>
	<clipPath id="SVGID_53_">
		<use xlink:href="#SVGID_52_"  overflow="visible"/>
	</clipPath>
	<rect x="405.036" y="1220.877" clip-path="url(#SVGID_53_)" fill="#939393" width="13.262" height="12.471"/>
</g>
<rect x="443.068" y="991.842" fill="#6B6B6B" width="2" height="256.861"/>
<g>
	<rect x="590.355" y="991.842" fill="#6B6B6B" width="2" height="256.861"/>
	<rect x="591.356" y="991.842" width="2" height="256.861"/>
</g>
<g>
	<rect x="609.022" y="991.842" fill="#6B6B6B" width="2" height="231.523"/>
	<rect x="611.648" y="991.842" fill="#6B6B6B" width="2" height="231.523"/>
	<rect x="610.023" y="991.842" width="2.625" height="231.523"/>
</g>
<g>
	<rect x="664.772" y="991.842" fill="#6B6B6B" width="2" height="231.523"/>
	<rect x="667.398" y="991.842" fill="#6B6B6B" width="2" height="231.523"/>
	<rect x="665.773" y="991.842" width="2.625" height="231.523"/>
</g>
<rect x="737.641" y="991.842" fill="#6B6B6B" width="2" height="256.861"/>
<rect x="738.642" y="991.842" width="2" height="256.861"/>
<rect x="884.929" y="991.842" fill="#6B6B6B" width="2" height="256.861"/>
<rect x="885.93" y="991.842" width="2" height="256.861"/>
<rect x="1032.216" y="991.842" fill="#6B6B6B" width="2" height="255.615"/>
<rect x="1033.217" y="991.842" fill="#050505" width="2" height="255.615"/>
<rect x="1179.502" y="991.842" fill="#6B6B6B" width="2" height="255.615"/>
<rect x="1180.503" y="991.842" fill="#0A0A0A" width="2" height="255.615"/>
<rect x="295.782" y="991.842" fill="#6B6B6B" width="2" height="256.861"/>
<g>
	<path fill="#AFAFAF" d="M1264.265,1091.182c0,5.148-4.441,9.322-9.922,9.322c-5.481,0-9.923-4.174-9.923-9.322
		c0-5.15,4.441-9.324,9.923-9.324C1259.823,1081.857,1264.265,1086.031,1264.265,1091.182"/>
	<ellipse fill="none" stroke="#949394" stroke-miterlimit="10" cx="1254.342" cy="1091.182" rx="9.922" ry="9.322"/>
	<path fill="#AFAFAF" d="M1261.634,1091.182c0,3.781-3.266,6.85-7.291,6.85c-4.027,0-7.291-3.068-7.291-6.85
		c0-3.785,3.264-6.852,7.291-6.852C1258.368,1084.33,1261.634,1087.396,1261.634,1091.182"/>
	<ellipse fill="none" stroke="#949394" stroke-miterlimit="10" cx="1254.343" cy="1091.182" rx="7.291" ry="6.85"/>
	<g>
		<g>
			<defs>
				<rect id="SVGID_54_" x="1247.468" y="1084.725" width="13.748" height="12.912"/>
			</defs>
			<clipPath id="SVGID_55_">
				<use xlink:href="#SVGID_54_"  overflow="visible"/>
			</clipPath>
			<path clip-path="url(#SVGID_55_)" fill="#BFBFBF" d="M1261.214,1091.182c0,3.564-3.077,6.455-6.871,6.455
				c-3.797,0-6.872-2.891-6.872-6.455c0-3.566,3.075-6.457,6.872-6.457C1258.137,1084.725,1261.214,1087.615,1261.214,1091.182"/>
			<path clip-path="url(#SVGID_55_)" fill="#C1C1C1" d="M1261.052,1091.182c0,3.48-3.004,6.303-6.709,6.303
				c-3.707,0-6.71-2.822-6.71-6.303c0-3.482,3.003-6.307,6.71-6.307C1258.048,1084.875,1261.052,1087.699,1261.052,1091.182"/>
			<path clip-path="url(#SVGID_55_)" fill="#C3C4C4" d="M1260.89,1091.182c0,3.396-2.932,6.152-6.547,6.152
				c-3.617,0-6.548-2.756-6.548-6.152c0-3.398,2.931-6.154,6.548-6.154C1257.958,1085.027,1260.89,1087.783,1260.89,1091.182"/>
			<path clip-path="url(#SVGID_55_)" fill="#C5C6C6" d="M1260.729,1091.182c0,3.313-2.859,6-6.387,6c-3.529,0-6.388-2.688-6.388-6
				c0-3.316,2.858-6.002,6.388-6.002C1257.87,1085.18,1260.729,1087.865,1260.729,1091.182"/>
			<path clip-path="url(#SVGID_55_)" fill="#C7C9C9" d="M1260.567,1091.182c0,3.229-2.787,5.848-6.225,5.848
				s-6.226-2.619-6.226-5.848c0-3.23,2.788-5.852,6.226-5.852S1260.567,1087.951,1260.567,1091.182"/>
			<path clip-path="url(#SVGID_55_)" fill="#CACBCB" d="M1260.405,1091.182c0,3.145-2.715,5.697-6.063,5.697
				c-3.349,0-6.064-2.553-6.064-5.697c0-3.146,2.716-5.699,6.064-5.699C1257.69,1085.482,1260.405,1088.035,1260.405,1091.182"/>
			<path clip-path="url(#SVGID_55_)" fill="#CCCECE" d="M1260.244,1091.182c0,3.063-2.643,5.545-5.901,5.545
				c-3.26,0-5.902-2.482-5.902-5.545s2.643-5.547,5.902-5.547C1257.602,1085.635,1260.244,1088.119,1260.244,1091.182"/>
			<path clip-path="url(#SVGID_55_)" fill="#CED0D0" d="M1260.083,1091.182c0,2.977-2.571,5.393-5.74,5.393
				c-3.17,0-5.741-2.416-5.741-5.393c0-2.979,2.571-5.395,5.741-5.395C1257.512,1085.787,1260.083,1088.203,1260.083,1091.182"/>
			<path clip-path="url(#SVGID_55_)" fill="#D1D3D3" d="M1259.921,1091.182c0,2.893-2.497,5.24-5.578,5.24s-5.579-2.348-5.579-5.24
				c0-2.895,2.498-5.242,5.579-5.242S1259.921,1088.287,1259.921,1091.182"/>
			<path clip-path="url(#SVGID_55_)" fill="#D3D5D5" d="M1259.761,1091.182c0,2.811-2.427,5.088-5.418,5.088
				c-2.993,0-5.417-2.277-5.417-5.088c0-2.813,2.424-5.09,5.417-5.09C1257.334,1086.092,1259.761,1088.369,1259.761,1091.182"/>
		</g>
	</g>
	<polygon fill="#5F5F5E" points="1253.444,1095.063 1253.444,1092.023 1250.21,1092.023 1250.21,1090.338 1253.444,1090.338 
		1253.444,1087.299 1255.24,1087.299 1255.24,1090.338 1258.475,1090.338 1258.475,1092.023 1255.24,1092.023 1255.24,1095.063 	"/>
	<path fill="#231815" d="M1255.085,1087.443v2.748v0.291h0.311h2.924v1.395h-2.924h-0.311v0.293v2.746h-1.484v-2.746v-0.293h-0.311
		h-2.924v-1.395h2.924h0.311v-0.291v-2.748H1255.085z M1255.396,1087.152h-2.105v3.039h-3.234v1.979h3.234v3.039h2.105v-3.039h3.232
		v-1.979h-3.232V1087.152z"/>
</g>
<g>
	<path fill="#AFAFAF" d="M1170.954,1091.18c0,5.148-4.442,9.324-9.922,9.324c-5.481,0-9.924-4.176-9.924-9.324
		s4.442-9.322,9.924-9.322C1166.512,1081.857,1170.954,1086.031,1170.954,1091.18"/>
	<ellipse fill="none" stroke="#949394" stroke-miterlimit="10" cx="1161.031" cy="1091.18" rx="9.923" ry="9.324"/>
	<path fill="#AFAFAF" d="M1168.323,1091.18c0,3.783-3.267,6.852-7.291,6.852c-4.027,0-7.291-3.068-7.291-6.852
		s3.264-6.85,7.291-6.85C1165.057,1084.33,1168.323,1087.396,1168.323,1091.18"/>
	<ellipse fill="none" stroke="#949394" stroke-miterlimit="10" cx="1161.032" cy="1091.18" rx="7.291" ry="6.852"/>
	<g>
		<g>
			<defs>
				<rect id="SVGID_56_" x="1154.157" y="1084.725" width="13.748" height="12.912"/>
			</defs>
			<clipPath id="SVGID_57_">
				<use xlink:href="#SVGID_56_"  overflow="visible"/>
			</clipPath>
			<path clip-path="url(#SVGID_57_)" fill="#BFBFBF" d="M1167.903,1091.18c0,3.566-3.078,6.457-6.871,6.457
				c-3.797,0-6.873-2.891-6.873-6.457s3.076-6.455,6.873-6.455C1164.825,1084.725,1167.903,1087.613,1167.903,1091.18"/>
			<path clip-path="url(#SVGID_57_)" fill="#C1C1C1" d="M1167.741,1091.18c0,3.482-3.004,6.305-6.709,6.305
				c-3.707,0-6.71-2.822-6.71-6.305c0-3.48,3.003-6.305,6.71-6.305C1164.737,1084.875,1167.741,1087.699,1167.741,1091.18"/>
			<path clip-path="url(#SVGID_57_)" fill="#C3C4C4" d="M1167.579,1091.18c0,3.398-2.932,6.154-6.547,6.154
				c-3.617,0-6.549-2.756-6.549-6.154s2.932-6.152,6.549-6.152C1164.647,1085.027,1167.579,1087.781,1167.579,1091.18"/>
			<path clip-path="url(#SVGID_57_)" fill="#C5C6C6" d="M1167.419,1091.18c0,3.314-2.86,6.002-6.387,6.002
				c-3.529,0-6.388-2.688-6.388-6.002s2.858-6,6.388-6C1164.559,1085.18,1167.419,1087.865,1167.419,1091.18"/>
			<path clip-path="url(#SVGID_57_)" fill="#C7C9C9" d="M1167.257,1091.18c0,3.23-2.787,5.85-6.225,5.85
				c-3.438,0-6.226-2.619-6.226-5.85c0-3.229,2.787-5.85,6.226-5.85C1164.47,1085.33,1167.257,1087.951,1167.257,1091.18"/>
			<path clip-path="url(#SVGID_57_)" fill="#CACBCB" d="M1167.095,1091.18c0,3.146-2.715,5.697-6.063,5.697
				c-3.35,0-6.064-2.551-6.064-5.697c0-3.145,2.715-5.697,6.064-5.697C1164.38,1085.482,1167.095,1088.035,1167.095,1091.18"/>
			<path clip-path="url(#SVGID_57_)" fill="#CCCECE" d="M1166.933,1091.18c0,3.063-2.643,5.545-5.9,5.545
				c-3.261,0-5.902-2.482-5.902-5.545s2.642-5.545,5.902-5.545C1164.29,1085.635,1166.933,1088.117,1166.933,1091.18"/>
			<path clip-path="url(#SVGID_57_)" fill="#CED0D0" d="M1166.771,1091.18c0,2.979-2.57,5.395-5.739,5.395
				c-3.17,0-5.742-2.416-5.742-5.395s2.572-5.393,5.742-5.393C1164.201,1085.787,1166.771,1088.201,1166.771,1091.18"/>
			<path clip-path="url(#SVGID_57_)" fill="#D1D3D3" d="M1166.609,1091.18c0,2.895-2.497,5.242-5.577,5.242
				c-3.082,0-5.579-2.348-5.579-5.242s2.497-5.242,5.579-5.242C1164.112,1085.938,1166.609,1088.285,1166.609,1091.18"/>
			<path clip-path="url(#SVGID_57_)" fill="#D3D5D5" d="M1166.449,1091.18c0,2.811-2.427,5.09-5.417,5.09
				c-2.994,0-5.418-2.279-5.418-5.09s2.424-5.09,5.418-5.09C1164.022,1086.09,1166.449,1088.369,1166.449,1091.18"/>
		</g>
	</g>
	<polygon fill="#5F5F5E" points="1160.134,1095.063 1160.134,1092.023 1156.899,1092.023 1156.899,1090.336 1160.134,1090.336 
		1160.134,1087.299 1161.929,1087.299 1161.929,1090.336 1165.163,1090.336 1165.163,1092.023 1161.929,1092.023 1161.929,1095.063 
			"/>
	<path fill="#231815" d="M1161.773,1087.443v2.748v0.291h0.312h2.924v1.395h-2.924h-0.312v0.293v2.746h-1.483v-2.746v-0.293h-0.312
		h-2.923v-1.395h2.923h0.312v-0.291v-2.748H1161.773z M1162.085,1087.152h-2.106v3.039h-3.234v1.979h3.234v3.039h2.106v-3.039h3.232
		v-1.979h-3.232V1087.152z"/>
</g>
<g>
	<path fill="#AFAFAF" d="M1020.602,1091.18c0,5.148-4.442,9.324-9.923,9.324s-9.923-4.176-9.923-9.324s4.442-9.324,9.923-9.324
		S1020.602,1086.031,1020.602,1091.18"/>
	<ellipse fill="none" stroke="#949394" stroke-miterlimit="10" cx="1010.679" cy="1091.18" rx="9.923" ry="9.324"/>
	<path fill="#AFAFAF" d="M1017.97,1091.18c0,3.783-3.266,6.852-7.291,6.852c-4.026,0-7.291-3.068-7.291-6.852
		s3.265-6.852,7.291-6.852C1014.704,1084.328,1017.97,1087.396,1017.97,1091.18"/>
	<ellipse fill="none" stroke="#949394" stroke-miterlimit="10" cx="1010.679" cy="1091.18" rx="7.291" ry="6.852"/>
	<g>
		<g>
			<defs>
				<rect id="SVGID_58_" x="1003.805" y="1084.723" width="13.747" height="12.914"/>
			</defs>
			<clipPath id="SVGID_59_">
				<use xlink:href="#SVGID_58_"  overflow="visible"/>
			</clipPath>
			<path clip-path="url(#SVGID_59_)" fill="#BFBFBF" d="M1017.55,1091.18c0,3.564-3.077,6.457-6.871,6.457
				c-3.796,0-6.872-2.893-6.872-6.457c0-3.566,3.076-6.457,6.872-6.457C1014.473,1084.723,1017.55,1087.613,1017.55,1091.18"/>
			<path clip-path="url(#SVGID_59_)" fill="#C1C1C1" d="M1017.388,1091.18c0,3.48-3.004,6.305-6.709,6.305
				c-3.707,0-6.709-2.824-6.709-6.305c0-3.482,3.002-6.305,6.709-6.305C1014.384,1084.875,1017.388,1087.697,1017.388,1091.18"/>
			<path clip-path="url(#SVGID_59_)" fill="#C3C4C4" d="M1017.226,1091.18c0,3.398-2.932,6.152-6.547,6.152
				c-3.617,0-6.548-2.754-6.548-6.152s2.931-6.152,6.548-6.152C1014.294,1085.027,1017.226,1087.781,1017.226,1091.18"/>
			<path clip-path="url(#SVGID_59_)" fill="#C5C6C6" d="M1017.065,1091.18c0,3.314-2.859,6-6.387,6c-3.528,0-6.387-2.686-6.387-6
				s2.858-6.002,6.387-6.002C1014.206,1085.178,1017.065,1087.865,1017.065,1091.18"/>
			<path clip-path="url(#SVGID_59_)" fill="#C7C9C9" d="M1016.903,1091.18c0,3.23-2.787,5.85-6.225,5.85s-6.225-2.619-6.225-5.85
				c0-3.229,2.787-5.85,6.225-5.85S1016.903,1087.951,1016.903,1091.18"/>
			<path clip-path="url(#SVGID_59_)" fill="#CACBCB" d="M1016.741,1091.18c0,3.146-2.715,5.697-6.063,5.697
				c-3.349,0-6.063-2.551-6.063-5.697s2.715-5.697,6.063-5.697C1014.026,1085.482,1016.741,1088.033,1016.741,1091.18"/>
			<path clip-path="url(#SVGID_59_)" fill="#CCCECE" d="M1016.58,1091.18c0,3.063-2.642,5.545-5.901,5.545s-5.901-2.482-5.901-5.545
				s2.642-5.547,5.901-5.547S1016.58,1088.117,1016.58,1091.18"/>
			<path clip-path="url(#SVGID_59_)" fill="#CED0D0" d="M1016.419,1091.18c0,2.979-2.57,5.393-5.74,5.393s-5.741-2.414-5.741-5.393
				s2.571-5.395,5.741-5.395S1016.419,1088.201,1016.419,1091.18"/>
			<path clip-path="url(#SVGID_59_)" fill="#D1D3D3" d="M1016.257,1091.18c0,2.895-2.497,5.24-5.578,5.24s-5.578-2.346-5.578-5.24
				s2.497-5.242,5.578-5.242S1016.257,1088.285,1016.257,1091.18"/>
			<path clip-path="url(#SVGID_59_)" fill="#D3D5D5" d="M1016.097,1091.18c0,2.811-2.427,5.09-5.418,5.09
				c-2.993,0-5.417-2.279-5.417-5.09s2.424-5.09,5.417-5.09C1013.67,1086.09,1016.097,1088.369,1016.097,1091.18"/>
		</g>
	</g>
	<polygon fill="#5F5F5E" points="1009.78,1095.063 1009.78,1092.023 1006.546,1092.023 1006.546,1090.336 1009.78,1090.336 
		1009.78,1087.297 1011.576,1087.297 1011.576,1090.336 1014.811,1090.336 1014.811,1092.023 1011.576,1092.023 1011.576,1095.063 	
		"/>
	<path fill="#231815" d="M1011.421,1087.443v2.746v0.293h0.311h2.924v1.395h-2.924h-0.311v0.293v2.746h-1.484v-2.746v-0.293h-0.311
		h-2.924v-1.395h2.924h0.311v-0.293v-2.746H1011.421z M1011.731,1087.152h-2.105v3.037h-3.234v1.98h3.234v3.037h2.105v-3.037h3.233
		v-1.98h-3.233V1087.152z"/>
</g>
<g>
	<path fill="#AFAFAF" d="M876.461,1091.18c0,5.148-4.442,9.322-9.923,9.322s-9.922-4.174-9.922-9.322
		c0-5.15,4.441-9.324,9.922-9.324S876.461,1086.029,876.461,1091.18"/>
	<ellipse fill="none" stroke="#949394" stroke-miterlimit="10" cx="866.539" cy="1091.18" rx="9.922" ry="9.322"/>
	<path fill="#AFAFAF" d="M873.829,1091.18c0,3.781-3.266,6.85-7.291,6.85c-4.026,0-7.291-3.068-7.291-6.85
		c0-3.783,3.265-6.852,7.291-6.852C870.563,1084.328,873.829,1087.396,873.829,1091.18"/>
	<ellipse fill="none" stroke="#949394" stroke-miterlimit="10" cx="866.538" cy="1091.18" rx="7.291" ry="6.85"/>
	<g>
		<g>
			<defs>
				<rect id="SVGID_60_" x="859.663" y="1084.723" width="13.748" height="12.914"/>
			</defs>
			<clipPath id="SVGID_61_">
				<use xlink:href="#SVGID_60_"  overflow="visible"/>
			</clipPath>
			<path clip-path="url(#SVGID_61_)" fill="#BFBFBF" d="M873.409,1091.18c0,3.564-3.077,6.457-6.871,6.457
				c-3.796,0-6.872-2.893-6.872-6.457c0-3.566,3.076-6.457,6.872-6.457C870.332,1084.723,873.409,1087.613,873.409,1091.18"/>
			<path clip-path="url(#SVGID_61_)" fill="#C1C1C1" d="M873.247,1091.18c0,3.48-3.004,6.303-6.709,6.303
				c-3.707,0-6.71-2.822-6.71-6.303c0-3.482,3.003-6.305,6.71-6.305C870.243,1084.875,873.247,1087.697,873.247,1091.18"/>
			<path clip-path="url(#SVGID_61_)" fill="#C3C4C4" d="M873.085,1091.18c0,3.396-2.932,6.152-6.547,6.152
				c-3.617,0-6.548-2.756-6.548-6.152c0-3.398,2.931-6.154,6.548-6.154C870.153,1085.025,873.085,1087.781,873.085,1091.18"/>
			<path clip-path="url(#SVGID_61_)" fill="#C5C6C6" d="M872.925,1091.18c0,3.314-2.859,6-6.387,6c-3.528,0-6.387-2.686-6.387-6
				s2.858-6.002,6.387-6.002C870.065,1085.178,872.925,1087.865,872.925,1091.18"/>
			<path clip-path="url(#SVGID_61_)" fill="#C7C9C9" d="M872.763,1091.18c0,3.229-2.787,5.85-6.225,5.85s-6.226-2.621-6.226-5.85
				c0-3.23,2.788-5.85,6.226-5.85S872.763,1087.949,872.763,1091.18"/>
			<path clip-path="url(#SVGID_61_)" fill="#CACBCB" d="M872.601,1091.18c0,3.145-2.715,5.697-6.063,5.697
				c-3.349,0-6.063-2.553-6.063-5.697c0-3.146,2.715-5.697,6.063-5.697C869.886,1085.482,872.601,1088.033,872.601,1091.18"/>
			<path clip-path="url(#SVGID_61_)" fill="#CCCECE" d="M872.439,1091.18c0,3.063-2.642,5.545-5.901,5.545s-5.901-2.482-5.901-5.545
				s2.642-5.547,5.901-5.547S872.439,1088.117,872.439,1091.18"/>
			<path clip-path="url(#SVGID_61_)" fill="#CED0D0" d="M872.278,1091.18c0,2.979-2.57,5.393-5.74,5.393s-5.741-2.414-5.741-5.393
				s2.571-5.395,5.741-5.395S872.278,1088.201,872.278,1091.18"/>
			<path clip-path="url(#SVGID_61_)" fill="#D1D3D3" d="M872.116,1091.18c0,2.895-2.497,5.24-5.578,5.24s-5.579-2.346-5.579-5.24
				s2.498-5.242,5.579-5.242S872.116,1088.285,872.116,1091.18"/>
			<path clip-path="url(#SVGID_61_)" fill="#D3D5D5" d="M871.956,1091.18c0,2.811-2.427,5.09-5.418,5.09
				c-2.993,0-5.417-2.279-5.417-5.09c0-2.813,2.424-5.09,5.417-5.09C869.529,1086.09,871.956,1088.367,871.956,1091.18"/>
		</g>
	</g>
	<polygon fill="#5F5F5E" points="865.64,1095.061 865.64,1092.023 862.405,1092.023 862.405,1090.336 865.64,1090.336 
		865.64,1087.297 867.436,1087.297 867.436,1090.336 870.67,1090.336 870.67,1092.023 867.436,1092.023 867.436,1095.061 	"/>
	<path fill="#231815" d="M867.28,1087.443v2.746v0.293h0.312h2.923v1.393h-2.923h-0.312v0.293v2.746h-1.484v-2.746v-0.293h-0.311
		h-2.924v-1.393h2.924h0.311v-0.293v-2.746H867.28z M867.592,1087.152h-2.106v3.037h-3.234v1.979h3.234v3.039h2.106v-3.039h3.232
		v-1.979h-3.232V1087.152z"/>
</g>
<g>
	<path fill="#AFAFAF" d="M625.998,1223.15c0,4.322-3.729,7.826-8.328,7.826c-4.601,0-8.329-3.504-8.329-7.826
		c0-4.32,3.729-7.826,8.329-7.826C622.27,1215.324,625.998,1218.83,625.998,1223.15"/>
	<ellipse fill="none" stroke="#949394" stroke-miterlimit="10" cx="617.669" cy="1223.15" rx="8.329" ry="7.826"/>
	<path fill="#AFAFAF" d="M623.789,1223.15c0,3.174-2.74,5.75-6.119,5.75c-3.381,0-6.12-2.576-6.12-5.75
		c0-3.176,2.739-5.75,6.12-5.75C621.049,1217.4,623.789,1219.975,623.789,1223.15"/>
	<ellipse fill="none" stroke="#949394" stroke-miterlimit="10" cx="617.669" cy="1223.15" rx="6.12" ry="5.75"/>
	<g>
		<g>
			<defs>
				<rect id="SVGID_62_" x="611.9" y="1217.732" width="11.537" height="10.838"/>
			</defs>
			<clipPath id="SVGID_63_">
				<use xlink:href="#SVGID_62_"  overflow="visible"/>
			</clipPath>
			<path clip-path="url(#SVGID_63_)" fill="#BFBFBF" d="M623.437,1223.15c0,2.992-2.583,5.42-5.767,5.42
				c-3.187,0-5.769-2.428-5.769-5.42s2.582-5.418,5.769-5.418C620.854,1217.732,623.437,1220.158,623.437,1223.15"/>
			<path clip-path="url(#SVGID_63_)" fill="#C1C1C1" d="M623.301,1223.15c0,2.922-2.521,5.291-5.631,5.291
				c-3.111,0-5.632-2.369-5.632-5.291s2.521-5.291,5.632-5.291C620.779,1217.859,623.301,1220.229,623.301,1223.15"/>
			<path clip-path="url(#SVGID_63_)" fill="#C3C4C4" d="M623.165,1223.15c0,2.852-2.461,5.164-5.495,5.164
				c-3.036,0-5.496-2.313-5.496-5.164s2.46-5.164,5.496-5.164C620.704,1217.986,623.165,1220.299,623.165,1223.15"/>
			<path clip-path="url(#SVGID_63_)" fill="#C5C6C6" d="M623.029,1223.15c0,2.781-2.399,5.037-5.359,5.037
				c-2.962,0-5.361-2.256-5.361-5.037s2.399-5.037,5.361-5.037C620.63,1218.113,623.029,1220.369,623.029,1223.15"/>
			<path clip-path="url(#SVGID_63_)" fill="#C7C9C9" d="M622.894,1223.15c0,2.711-2.339,4.908-5.224,4.908
				c-2.887,0-5.226-2.197-5.226-4.908s2.339-4.91,5.226-4.91C620.555,1218.24,622.894,1220.439,622.894,1223.15"/>
			<path clip-path="url(#SVGID_63_)" fill="#CACBCB" d="M622.759,1223.15c0,2.641-2.278,4.783-5.089,4.783
				c-2.812,0-5.09-2.143-5.09-4.783s2.278-4.781,5.09-4.781C620.48,1218.369,622.759,1220.51,622.759,1223.15"/>
			<path clip-path="url(#SVGID_63_)" fill="#CCCECE" d="M622.622,1223.15c0,2.57-2.218,4.654-4.952,4.654
				c-2.736,0-4.953-2.084-4.953-4.654s2.217-4.654,4.953-4.654C620.404,1218.496,622.622,1220.58,622.622,1223.15"/>
			<path clip-path="url(#SVGID_63_)" fill="#CED0D0" d="M622.486,1223.15c0,2.5-2.156,4.527-4.816,4.527
				c-2.661,0-4.819-2.027-4.819-4.527s2.158-4.527,4.819-4.527C620.33,1218.623,622.486,1220.65,622.486,1223.15"/>
			<path clip-path="url(#SVGID_63_)" fill="#D1D3D3" d="M622.352,1223.15c0,2.43-2.096,4.4-4.682,4.4s-4.683-1.971-4.683-4.4
				s2.097-4.398,4.683-4.398S622.352,1220.721,622.352,1223.15"/>
			<path clip-path="url(#SVGID_63_)" fill="#D3D5D5" d="M622.215,1223.15c0,2.359-2.034,4.271-4.545,4.271
				c-2.512,0-4.547-1.912-4.547-4.271s2.035-4.271,4.547-4.271C620.181,1218.879,622.215,1220.791,622.215,1223.15"/>
		</g>
	</g>
	<polygon fill="#5F5F5E" points="616.916,1226.408 616.916,1223.857 614.201,1223.857 614.201,1222.443 616.916,1222.443 
		616.916,1219.893 618.422,1219.893 618.422,1222.443 621.137,1222.443 621.137,1223.857 618.422,1223.857 618.422,1226.408 	"/>
	<path fill="#231815" d="M618.292,1220.014v2.307v0.244h0.261h2.454v1.17h-2.454h-0.261v0.246v2.307h-1.245v-2.307v-0.246h-0.262
		h-2.454v-1.17h2.454h0.262v-0.244v-2.307H618.292z M618.553,1219.77h-1.768v2.551h-2.714v1.66h2.714v2.551h1.768v-2.551h2.714
		v-1.66h-2.714V1219.77z"/>
</g>
<g>
	<path fill="#AFAFAF" d="M669.398,1223.15c0,4.322-3.729,7.826-8.328,7.826c-4.601,0-8.329-3.504-8.329-7.826
		c0-4.32,3.729-7.826,8.329-7.826C665.67,1215.324,669.398,1218.83,669.398,1223.15"/>
	<ellipse fill="none" stroke="#949394" stroke-miterlimit="10" cx="661.07" cy="1223.15" rx="8.329" ry="7.826"/>
	<path fill="#AFAFAF" d="M667.189,1223.15c0,3.174-2.74,5.75-6.119,5.75c-3.381,0-6.12-2.576-6.12-5.75
		c0-3.176,2.739-5.75,6.12-5.75C664.449,1217.4,667.189,1219.975,667.189,1223.15"/>
	<ellipse fill="none" stroke="#949394" stroke-miterlimit="10" cx="661.07" cy="1223.15" rx="6.12" ry="5.75"/>
	<g>
		<g>
			<defs>
				<rect id="SVGID_64_" x="655.301" y="1217.732" width="11.537" height="10.838"/>
			</defs>
			<clipPath id="SVGID_65_">
				<use xlink:href="#SVGID_64_"  overflow="visible"/>
			</clipPath>
			<path clip-path="url(#SVGID_65_)" fill="#BFBFBF" d="M666.837,1223.15c0,2.992-2.583,5.42-5.767,5.42
				c-3.187,0-5.769-2.428-5.769-5.42s2.582-5.418,5.769-5.418C664.254,1217.732,666.837,1220.158,666.837,1223.15"/>
			<path clip-path="url(#SVGID_65_)" fill="#C1C1C1" d="M666.701,1223.15c0,2.922-2.521,5.291-5.631,5.291
				c-3.111,0-5.632-2.369-5.632-5.291s2.521-5.291,5.632-5.291C664.18,1217.859,666.701,1220.229,666.701,1223.15"/>
			<path clip-path="url(#SVGID_65_)" fill="#C3C4C4" d="M666.565,1223.15c0,2.852-2.461,5.164-5.495,5.164
				c-3.036,0-5.496-2.313-5.496-5.164s2.46-5.164,5.496-5.164C664.104,1217.986,666.565,1220.299,666.565,1223.15"/>
			<path clip-path="url(#SVGID_65_)" fill="#C5C6C6" d="M666.43,1223.15c0,2.781-2.399,5.037-5.359,5.037
				c-2.962,0-5.361-2.256-5.361-5.037s2.399-5.037,5.361-5.037C664.03,1218.113,666.43,1220.369,666.43,1223.15"/>
			<path clip-path="url(#SVGID_65_)" fill="#C7C9C9" d="M666.294,1223.15c0,2.711-2.339,4.908-5.224,4.908
				c-2.887,0-5.226-2.197-5.226-4.908s2.339-4.91,5.226-4.91C663.955,1218.24,666.294,1220.439,666.294,1223.15"/>
			<path clip-path="url(#SVGID_65_)" fill="#CACBCB" d="M666.159,1223.15c0,2.641-2.278,4.783-5.089,4.783
				c-2.812,0-5.09-2.143-5.09-4.783s2.278-4.781,5.09-4.781C663.881,1218.369,666.159,1220.51,666.159,1223.15"/>
			<path clip-path="url(#SVGID_65_)" fill="#CCCECE" d="M666.022,1223.15c0,2.57-2.218,4.654-4.952,4.654
				c-2.736,0-4.953-2.084-4.953-4.654s2.217-4.654,4.953-4.654C663.805,1218.496,666.022,1220.58,666.022,1223.15"/>
			<path clip-path="url(#SVGID_65_)" fill="#CED0D0" d="M665.887,1223.15c0,2.5-2.156,4.527-4.816,4.527
				c-2.661,0-4.819-2.027-4.819-4.527s2.158-4.527,4.819-4.527C663.73,1218.623,665.887,1220.65,665.887,1223.15"/>
			<path clip-path="url(#SVGID_65_)" fill="#D1D3D3" d="M665.752,1223.15c0,2.43-2.096,4.4-4.682,4.4s-4.683-1.971-4.683-4.4
				s2.097-4.398,4.683-4.398S665.752,1220.721,665.752,1223.15"/>
			<path clip-path="url(#SVGID_65_)" fill="#D3D5D5" d="M665.615,1223.15c0,2.359-2.034,4.271-4.545,4.271
				c-2.512,0-4.547-1.912-4.547-4.271s2.035-4.271,4.547-4.271C663.581,1218.879,665.615,1220.791,665.615,1223.15"/>
		</g>
	</g>
	<polygon fill="#5F5F5E" points="660.316,1226.408 660.316,1223.857 657.602,1223.857 657.602,1222.443 660.316,1222.443 
		660.316,1219.893 661.822,1219.893 661.822,1222.443 664.537,1222.443 664.537,1223.857 661.822,1223.857 661.822,1226.408 	"/>
	<path fill="#231815" d="M661.692,1220.014v2.307v0.244h0.261h2.454v1.17h-2.454h-0.261v0.246v2.307h-1.245v-2.307v-0.246h-0.262
		h-2.454v-1.17h2.454h0.262v-0.244v-2.307H661.692z M661.953,1219.77h-1.768v2.551h-2.714v1.66h2.714v2.551h1.768v-2.551h2.714
		v-1.66h-2.714V1219.77z"/>
</g>
<path fill="#EFE9DC" stroke="#050101" stroke-width="2" stroke-miterlimit="10" d="M339.027,856.188
	c0,0.494-0.503,0.893-1.124,0.893H54.523c-0.621,0-1.124-0.398-1.124-0.893v-89.363c0-0.494,0.503-0.893,1.124-0.893h283.38
	c0.621,0,1.124,0.398,1.124,0.893V856.188z"/>
<path fill="#7697B5" d="M337.945,771.986c0,0.641-0.491,1.156-1.097,1.156H55.479c-0.606,0-1.097-0.516-1.097-1.156v-4.008
	c0-0.639,0.491-1.154,1.097-1.154h281.369c0.606,0,1.097,0.516,1.097,1.154V771.986z"/>
<g>
	<polygon fill="#040000" points="71.133,769.303 68.897,772.596 66.661,769.303 	"/>
	<polygon fill="#040000" points="83.794,772.596 86.03,769.303 88.267,772.596 	"/>
</g>
<g>
	<polygon fill="#040000" points="118.492,769.303 116.256,772.596 114.02,769.303 	"/>
	<polygon fill="#040000" points="131.154,772.596 133.39,769.303 135.625,772.596 	"/>
</g>
<g>
	<polygon fill="#040000" points="165.298,769.303 163.063,772.596 160.827,769.303 	"/>
	<polygon fill="#040000" points="177.959,772.596 180.194,769.303 182.43,772.596 	"/>
</g>
<g>
	<polygon fill="#040000" points="213.207,769.303 210.972,772.596 208.735,769.303 	"/>
	<polygon fill="#040000" points="225.869,772.596 228.104,769.303 230.341,772.596 	"/>
</g>
<g>
	<polygon fill="#040000" points="260.015,769.305 257.779,772.598 255.543,769.305 	"/>
	<polygon fill="#040000" points="272.677,772.596 274.912,769.303 277.148,772.596 	"/>
</g>
<g>
	<polygon fill="#040000" points="307.929,769.305 305.692,772.598 303.456,769.305 	"/>
	<polygon fill="#040000" points="320.59,772.596 322.826,769.303 325.062,772.596 	"/>
</g>
<path fill="#EFE9DC" stroke="#050101" stroke-width="2" stroke-miterlimit="10" d="M633.896,856.188
	c0,0.494-0.504,0.893-1.125,0.893H349.393c-0.621,0-1.124-0.398-1.124-0.893v-89.363c0-0.494,0.503-0.893,1.124-0.893h283.379
	c0.621,0,1.125,0.398,1.125,0.893V856.188z"/>
<path fill="#7697B5" d="M632.813,771.986c0,0.641-0.491,1.156-1.098,1.156H350.347c-0.606,0-1.097-0.516-1.097-1.156v-4.008
	c0-0.639,0.491-1.154,1.097-1.154h281.369c0.606,0,1.098,0.516,1.098,1.154V771.986z"/>
<g>
	<polygon fill="#040000" points="366.002,769.303 363.766,772.596 361.53,769.303 	"/>
	<polygon fill="#040000" points="378.663,772.596 380.899,769.303 383.136,772.596 	"/>
</g>
<g>
	<polygon fill="#040000" points="413.36,769.303 411.125,772.596 408.889,769.303 	"/>
	<polygon fill="#040000" points="426.022,772.596 428.258,769.303 430.494,772.596 	"/>
</g>
<g>
	<polygon fill="#040000" points="460.167,769.303 457.931,772.596 455.695,769.303 	"/>
	<polygon fill="#040000" points="472.828,772.596 475.063,769.303 477.298,772.596 	"/>
</g>
<g>
	<polygon fill="#040000" points="508.075,769.303 505.84,772.596 503.604,769.303 	"/>
	<polygon fill="#040000" points="520.737,772.596 522.973,769.303 525.209,772.596 	"/>
</g>
<g>
	<polygon fill="#040000" points="554.883,769.305 552.647,772.598 550.411,769.305 	"/>
	<polygon fill="#040000" points="567.545,772.596 569.781,769.303 572.017,772.596 	"/>
</g>
<g>
	<polygon fill="#040000" points="602.797,769.305 600.561,772.598 598.325,769.305 	"/>
	<polygon fill="#040000" points="615.459,772.596 617.694,769.303 619.931,772.596 	"/>
</g>
<path fill="#EFE9DC" stroke="#050101" stroke-width="2" stroke-miterlimit="10" d="M928.765,856.188
	c0,0.494-0.503,0.893-1.124,0.893H644.262c-0.621,0-1.125-0.398-1.125-0.893v-89.363c0-0.494,0.504-0.893,1.125-0.893h283.379
	c0.621,0,1.124,0.398,1.124,0.893V856.188z"/>
<path fill="#7697B5" d="M927.683,771.986c0,0.641-0.492,1.156-1.098,1.156H645.217c-0.606,0-1.098-0.516-1.098-1.156v-4.008
	c0-0.639,0.491-1.154,1.098-1.154h281.368c0.605,0,1.098,0.516,1.098,1.154V771.986z"/>
<g>
	<polygon fill="#040000" points="660.87,769.303 658.635,772.596 656.398,769.303 	"/>
	<polygon fill="#040000" points="673.532,772.596 675.768,769.303 678.004,772.596 	"/>
</g>
<g>
	<polygon fill="#040000" points="708.229,769.303 705.994,772.596 703.758,769.303 	"/>
	<polygon fill="#040000" points="720.892,772.596 723.127,769.303 725.363,772.596 	"/>
</g>
<g>
	<polygon fill="#040000" points="755.035,769.303 752.801,772.596 750.564,769.303 	"/>
	<polygon fill="#040000" points="767.696,772.596 769.932,769.303 772.167,772.596 	"/>
</g>
<g>
	<polygon fill="#040000" points="802.944,769.303 800.709,772.596 798.473,769.303 	"/>
	<polygon fill="#040000" points="815.606,772.596 817.842,769.303 820.078,772.596 	"/>
</g>
<g>
	<polygon fill="#040000" points="849.752,769.305 847.517,772.598 845.28,769.305 	"/>
	<polygon fill="#040000" points="862.414,772.596 864.649,769.303 866.886,772.596 	"/>
</g>
<g>
	<polygon fill="#040000" points="897.666,769.305 895.43,772.598 893.193,769.305 	"/>
	<polygon fill="#040000" points="910.327,772.596 912.563,769.303 914.8,772.596 	"/>
</g>
<path fill="#EFE9DC" stroke="#050101" stroke-width="2" stroke-miterlimit="10" d="M1223.632,856.188
	c0,0.494-0.504,0.893-1.125,0.893H939.128c-0.621,0-1.124-0.398-1.124-0.893v-89.363c0-0.494,0.503-0.893,1.124-0.893h283.379
	c0.621,0,1.125,0.398,1.125,0.893V856.188z"/>
<path fill="#7697B5" d="M1222.549,771.986c0,0.641-0.491,1.156-1.098,1.156H940.083c-0.606,0-1.098-0.516-1.098-1.156v-4.008
	c0-0.639,0.491-1.154,1.098-1.154h281.368c0.606,0,1.098,0.516,1.098,1.154V771.986z"/>
<g>
	<polygon fill="#040000" points="955.737,769.303 953.501,772.596 951.265,769.303 	"/>
	<polygon fill="#040000" points="968.398,772.596 970.634,769.303 972.871,772.596 	"/>
</g>
<g>
	<polygon fill="#040000" points="1003.096,769.303 1000.86,772.596 998.624,769.303 	"/>
	<polygon fill="#040000" points="1015.758,772.596 1017.993,769.303 1020.229,772.596 	"/>
</g>
<g>
	<polygon fill="#040000" points="1049.901,769.303 1047.667,772.596 1045.431,769.303 	"/>
	<polygon fill="#040000" points="1062.563,772.596 1064.798,769.303 1067.034,772.596 	"/>
</g>
<g>
	<polygon fill="#040000" points="1097.811,769.303 1095.575,772.596 1093.339,769.303 	"/>
	<polygon fill="#040000" points="1110.473,772.596 1112.709,769.303 1114.944,772.596 	"/>
</g>
<g>
	<polygon fill="#040000" points="1144.618,769.305 1142.383,772.598 1140.146,769.305 	"/>
	<polygon fill="#040000" points="1157.28,772.596 1159.517,769.303 1161.752,772.596 	"/>
</g>
<g>
	<polygon fill="#040000" points="1192.532,769.305 1190.296,772.598 1188.06,769.305 	"/>
	<polygon fill="#040000" points="1205.194,772.596 1207.43,769.303 1209.666,772.596 	"/>
</g>
<path fill="#EFE9DC" stroke="#050101" stroke-width="2" stroke-miterlimit="10" d="M339.028,740.965
	c0,0.494-0.503,0.893-1.125,0.893H54.523c-0.621,0-1.124-0.398-1.124-0.893v-89.363c0-0.494,0.503-0.893,1.124-0.893h283.38
	c0.622,0,1.125,0.398,1.125,0.893V740.965z"/>
<path fill="#7697B5" d="M337.945,656.764c0,0.641-0.491,1.156-1.097,1.156H55.479c-0.606,0-1.097-0.516-1.097-1.156v-4.008
	c0-0.639,0.491-1.154,1.097-1.154h281.37c0.606,0,1.097,0.516,1.097,1.154V656.764z"/>
<g>
	<polygon fill="#040000" points="71.133,654.08 68.897,657.373 66.661,654.08 	"/>
	<polygon fill="#040000" points="83.794,657.373 86.03,654.08 88.267,657.373 	"/>
</g>
<g>
	<polygon fill="#040000" points="118.492,654.08 116.256,657.373 114.02,654.08 	"/>
	<polygon fill="#040000" points="131.154,657.373 133.39,654.08 135.626,657.373 	"/>
</g>
<g>
	<polygon fill="#040000" points="165.298,654.08 163.063,657.373 160.828,654.08 	"/>
	<polygon fill="#040000" points="177.959,657.373 180.194,654.08 182.43,657.373 	"/>
</g>
<g>
	<polygon fill="#040000" points="213.208,654.08 210.972,657.373 208.735,654.08 	"/>
	<polygon fill="#040000" points="225.87,657.373 228.105,654.08 230.341,657.373 	"/>
</g>
<g>
	<polygon fill="#040000" points="260.015,654.082 257.779,657.375 255.543,654.082 	"/>
	<polygon fill="#040000" points="272.677,657.373 274.912,654.08 277.148,657.373 	"/>
</g>
<g>
	<polygon fill="#040000" points="307.929,654.082 305.693,657.375 303.457,654.082 	"/>
	<polygon fill="#040000" points="320.59,657.373 322.826,654.08 325.063,657.373 	"/>
</g>
<path fill="#EFE9DC" stroke="#050101" stroke-width="2" stroke-miterlimit="10" d="M633.896,740.965
	c0,0.494-0.504,0.893-1.125,0.893H349.393c-0.621,0-1.124-0.398-1.124-0.893v-89.363c0-0.494,0.503-0.893,1.124-0.893h283.379
	c0.621,0,1.125,0.398,1.125,0.893V740.965z"/>
<path fill="#7697B5" d="M632.814,656.764c0,0.641-0.492,1.156-1.098,1.156H350.348c-0.606,0-1.097-0.516-1.097-1.156v-4.008
	c0-0.639,0.491-1.154,1.097-1.154h281.369c0.605,0,1.098,0.516,1.098,1.154V656.764z"/>
<g>
	<polygon fill="#040000" points="366.002,654.08 363.766,657.373 361.53,654.08 	"/>
	<polygon fill="#040000" points="378.664,657.373 380.899,654.08 383.136,657.373 	"/>
</g>
<g>
	<polygon fill="#040000" points="413.361,654.08 411.125,657.373 408.889,654.08 	"/>
	<polygon fill="#040000" points="426.023,657.373 428.259,654.08 430.494,657.373 	"/>
</g>
<g>
	<polygon fill="#040000" points="460.167,654.08 457.932,657.373 455.696,654.08 	"/>
	<polygon fill="#040000" points="472.828,657.373 475.063,654.08 477.299,657.373 	"/>
</g>
<g>
	<polygon fill="#040000" points="508.076,654.08 505.841,657.373 503.604,654.08 	"/>
	<polygon fill="#040000" points="520.737,657.373 522.974,654.08 525.21,657.373 	"/>
</g>
<g>
	<polygon fill="#040000" points="554.883,654.082 552.648,657.375 550.412,654.082 	"/>
	<polygon fill="#040000" points="567.546,657.373 569.781,654.08 572.017,657.373 	"/>
</g>
<g>
	<polygon fill="#040000" points="602.797,654.082 600.561,657.375 598.325,654.082 	"/>
	<polygon fill="#040000" points="615.459,657.373 617.695,654.08 619.932,657.373 	"/>
</g>
<path fill="#EFE9DC" stroke="#050101" stroke-width="2" stroke-miterlimit="10" d="M928.766,740.965
	c0,0.494-0.504,0.893-1.124,0.893h-283.38c-0.621,0-1.125-0.398-1.125-0.893v-89.363c0-0.494,0.504-0.893,1.125-0.893h283.38
	c0.62,0,1.124,0.398,1.124,0.893V740.965z"/>
<path fill="#7697B5" d="M927.683,656.764c0,0.641-0.491,1.156-1.098,1.156H645.217c-0.605,0-1.098-0.516-1.098-1.156v-4.008
	c0-0.639,0.492-1.154,1.098-1.154h281.368c0.606,0,1.098,0.516,1.098,1.154V656.764z"/>
<g>
	<polygon fill="#040000" points="660.87,654.08 658.635,657.373 656.398,654.08 	"/>
	<polygon fill="#040000" points="673.532,657.373 675.768,654.08 678.005,657.373 	"/>
</g>
<g>
	<polygon fill="#040000" points="708.229,654.08 705.994,657.373 703.758,654.08 	"/>
	<polygon fill="#040000" points="720.892,657.373 723.127,654.08 725.363,657.373 	"/>
</g>
<g>
	<polygon fill="#040000" points="755.035,654.08 752.801,657.373 750.564,654.08 	"/>
	<polygon fill="#040000" points="767.697,657.373 769.932,654.08 772.168,657.373 	"/>
</g>
<g>
	<polygon fill="#040000" points="802.945,654.08 800.709,657.373 798.473,654.08 	"/>
	<polygon fill="#040000" points="815.607,657.373 817.842,654.08 820.078,657.373 	"/>
</g>
<g>
	<polygon fill="#040000" points="849.753,654.082 847.517,657.375 845.28,654.082 	"/>
	<polygon fill="#040000" points="862.415,657.373 864.65,654.08 866.886,657.373 	"/>
</g>
<g>
	<polygon fill="#040000" points="897.666,654.082 895.43,657.375 893.193,654.082 	"/>
	<polygon fill="#040000" points="910.327,657.373 912.563,654.08 914.8,657.373 	"/>
</g>
<path fill="#EFE9DC" stroke="#050101" stroke-width="2" stroke-miterlimit="10" d="M1223.632,740.965
	c0,0.494-0.504,0.893-1.125,0.893H939.128c-0.621,0-1.124-0.398-1.124-0.893v-89.363c0-0.494,0.503-0.893,1.124-0.893h283.379
	c0.621,0,1.125,0.398,1.125,0.893V740.965z"/>
<path fill="#7697B5" d="M1222.55,656.764c0,0.641-0.492,1.156-1.098,1.156H940.084c-0.607,0-1.099-0.516-1.099-1.156v-4.008
	c0-0.639,0.491-1.154,1.099-1.154h281.368c0.605,0,1.098,0.516,1.098,1.154V656.764z"/>
<g>
	<polygon fill="#040000" points="955.737,654.08 953.502,657.373 951.266,654.08 	"/>
	<polygon fill="#040000" points="968.399,657.373 970.635,654.08 972.872,657.373 	"/>
</g>
<g>
	<polygon fill="#040000" points="1003.096,654.08 1000.86,657.373 998.625,654.08 	"/>
	<polygon fill="#040000" points="1015.759,657.373 1017.994,654.08 1020.229,657.373 	"/>
</g>
<g>
	<polygon fill="#040000" points="1049.902,654.08 1047.667,657.373 1045.432,654.08 	"/>
	<polygon fill="#040000" points="1062.563,657.373 1064.798,654.08 1067.034,657.373 	"/>
</g>
<g>
	<polygon fill="#040000" points="1097.811,654.08 1095.576,657.373 1093.339,654.08 	"/>
	<polygon fill="#040000" points="1110.474,657.373 1112.709,654.08 1114.945,657.373 	"/>
</g>
<g>
	<polygon fill="#040000" points="1144.619,654.082 1142.384,657.375 1140.146,654.082 	"/>
	<polygon fill="#040000" points="1157.281,657.373 1159.517,654.08 1161.753,657.373 	"/>
</g>
<g>
	<polygon fill="#040000" points="1192.532,654.082 1190.296,657.375 1188.061,654.082 	"/>
	<polygon fill="#040000" points="1205.194,657.373 1207.43,654.08 1209.667,657.373 	"/>
</g>
<path fill="#EFE9DC" stroke="#050101" stroke-width="2" stroke-miterlimit="10" d="M338.308,969.404
	c0,0.494-0.504,0.895-1.125,0.895H53.804c-0.621,0-1.125-0.4-1.125-0.895v-89.361c0-0.494,0.503-0.895,1.125-0.895h283.379
	c0.621,0,1.125,0.4,1.125,0.895V969.404z"/>
<path fill="#7697B5" d="M337.225,885.205c0,0.639-0.491,1.156-1.098,1.156H54.758c-0.606,0-1.097-0.518-1.097-1.156v-4.01
	c0-0.637,0.491-1.154,1.097-1.154h281.369c0.606,0,1.098,0.518,1.098,1.154V885.205z"/>
<g>
	<polygon fill="#040000" points="70.413,882.521 68.177,885.814 65.94,882.521 	"/>
	<polygon fill="#040000" points="83.074,885.813 85.31,882.521 87.546,885.813 	"/>
</g>
<g>
	<polygon fill="#040000" points="117.771,882.521 115.536,885.814 113.3,882.521 	"/>
	<polygon fill="#040000" points="130.434,885.813 132.67,882.521 134.905,885.813 	"/>
</g>
<g>
	<polygon fill="#040000" points="164.578,882.521 162.343,885.814 160.107,882.521 	"/>
	<polygon fill="#040000" points="177.239,885.813 179.474,882.521 181.71,885.813 	"/>
</g>
<g>
	<polygon fill="#040000" points="212.487,882.521 210.252,885.814 208.015,882.521 	"/>
	<polygon fill="#040000" points="225.149,885.813 227.385,882.521 229.621,885.813 	"/>
</g>
<g>
	<polygon fill="#040000" points="259.294,882.523 257.059,885.814 254.822,882.523 	"/>
	<polygon fill="#040000" points="271.957,885.814 274.192,882.521 276.428,885.814 	"/>
</g>
<g>
	<polygon fill="#040000" points="307.208,882.523 304.972,885.814 302.735,882.523 	"/>
	<polygon fill="#040000" points="319.87,885.814 322.105,882.521 324.342,885.814 	"/>
</g>
<path fill="#EFE9DC" stroke="#050101" stroke-width="2" stroke-miterlimit="10" d="M633.176,969.404
	c0,0.494-0.504,0.895-1.124,0.895H348.672c-0.621,0-1.125-0.4-1.125-0.895v-89.361c0-0.494,0.504-0.895,1.125-0.895h283.379
	c0.62,0,1.124,0.4,1.124,0.895V969.404z"/>
<path fill="#7697B5" d="M632.094,885.205c0,0.639-0.492,1.156-1.098,1.156H349.627c-0.605,0-1.097-0.518-1.097-1.156v-4.01
	c0-0.637,0.491-1.154,1.097-1.154h281.369c0.605,0,1.098,0.518,1.098,1.154V885.205z"/>
<g>
	<polygon fill="#040000" points="365.282,882.521 363.046,885.814 360.81,882.521 	"/>
	<polygon fill="#040000" points="377.943,885.813 380.179,882.521 382.416,885.813 	"/>
</g>
<g>
	<polygon fill="#040000" points="412.641,882.521 410.404,885.814 408.168,882.521 	"/>
	<polygon fill="#040000" points="425.303,885.813 427.538,882.521 429.773,885.813 	"/>
</g>
<g>
	<polygon fill="#040000" points="459.446,882.521 457.211,885.814 454.976,882.521 	"/>
	<polygon fill="#040000" points="472.107,885.813 474.343,882.521 476.578,885.813 	"/>
</g>
<g>
	<polygon fill="#040000" points="507.355,882.521 505.12,885.814 502.883,882.521 	"/>
	<polygon fill="#040000" points="520.018,885.813 522.253,882.521 524.489,885.813 	"/>
</g>
<g>
	<polygon fill="#040000" points="554.163,882.523 551.927,885.814 549.691,882.523 	"/>
	<polygon fill="#040000" points="566.825,885.814 569.061,882.521 571.296,885.814 	"/>
</g>
<g>
	<polygon fill="#040000" points="602.077,882.523 599.841,885.814 597.604,882.523 	"/>
	<polygon fill="#040000" points="614.738,885.814 616.975,882.521 619.211,885.814 	"/>
</g>
<path fill="#EFE9DC" stroke="#050101" stroke-width="2" stroke-miterlimit="10" d="M928.045,969.404
	c0,0.494-0.503,0.895-1.124,0.895h-283.38c-0.621,0-1.124-0.4-1.124-0.895v-89.361c0-0.494,0.503-0.895,1.124-0.895h283.38
	c0.621,0,1.124,0.4,1.124,0.895V969.404z"/>
<path fill="#7697B5" d="M926.962,885.205c0,0.639-0.491,1.156-1.098,1.156H644.496c-0.605,0-1.098-0.518-1.098-1.156v-4.01
	c0-0.637,0.492-1.154,1.098-1.154h281.368c0.606,0,1.098,0.518,1.098,1.154V885.205z"/>
<g>
	<polygon fill="#040000" points="660.15,882.521 657.914,885.814 655.678,882.521 	"/>
	<polygon fill="#040000" points="672.812,885.813 675.048,882.521 677.284,885.813 	"/>
</g>
<g>
	<polygon fill="#040000" points="707.509,882.521 705.273,885.814 703.037,882.521 	"/>
	<polygon fill="#040000" points="720.171,885.813 722.406,882.521 724.643,885.813 	"/>
</g>
<g>
	<polygon fill="#040000" points="754.315,882.521 752.08,885.814 749.844,882.521 	"/>
	<polygon fill="#040000" points="766.977,885.813 769.211,882.521 771.447,885.813 	"/>
</g>
<g>
	<polygon fill="#040000" points="802.225,882.521 799.988,885.814 797.752,882.521 	"/>
	<polygon fill="#040000" points="814.886,885.813 817.121,882.521 819.358,885.813 	"/>
</g>
<g>
	<polygon fill="#040000" points="849.032,882.523 846.796,885.814 844.56,882.523 	"/>
	<polygon fill="#040000" points="861.693,885.814 863.93,882.521 866.165,885.814 	"/>
</g>
<g>
	<polygon fill="#040000" points="896.945,882.523 894.709,885.814 892.474,882.523 	"/>
	<polygon fill="#040000" points="909.607,885.814 911.843,882.521 914.079,885.814 	"/>
</g>
<path fill="#EFE9DC" stroke="#050101" stroke-width="2" stroke-miterlimit="10" d="M1222.911,969.404
	c0,0.494-0.503,0.895-1.124,0.895H938.408c-0.621,0-1.125-0.4-1.125-0.895v-89.361c0-0.494,0.504-0.895,1.125-0.895h283.379
	c0.621,0,1.124,0.4,1.124,0.895V969.404z"/>
<path fill="#7697B5" d="M1221.828,885.205c0,0.639-0.491,1.156-1.097,1.156H939.362c-0.605,0-1.098-0.518-1.098-1.156v-4.01
	c0-0.637,0.492-1.154,1.098-1.154h281.369c0.605,0,1.097,0.518,1.097,1.154V885.205z"/>
<g>
	<polygon fill="#040000" points="955.017,882.521 952.781,885.814 950.545,882.521 	"/>
	<polygon fill="#040000" points="967.679,885.813 969.914,882.521 972.151,885.813 	"/>
</g>
<g>
	<polygon fill="#040000" points="1002.376,882.521 1000.14,885.814 997.903,882.521 	"/>
	<polygon fill="#040000" points="1015.038,885.813 1017.273,882.521 1019.509,885.813 	"/>
</g>
<g>
	<polygon fill="#040000" points="1049.182,882.521 1046.946,885.814 1044.711,882.521 	"/>
	<polygon fill="#040000" points="1061.843,885.813 1064.078,882.521 1066.313,885.813 	"/>
</g>
<g>
	<polygon fill="#040000" points="1097.091,882.521 1094.855,885.814 1092.618,882.521 	"/>
	<polygon fill="#040000" points="1109.753,885.813 1111.989,882.521 1114.225,885.813 	"/>
</g>
<g>
	<polygon fill="#040000" points="1143.898,882.523 1141.662,885.814 1139.427,882.523 	"/>
	<polygon fill="#040000" points="1156.561,885.814 1158.796,882.521 1161.032,885.814 	"/>
</g>
<g>
	<polygon fill="#040000" points="1191.812,882.523 1189.576,885.814 1187.34,882.523 	"/>
	<polygon fill="#040000" points="1204.474,885.814 1206.709,882.521 1208.945,885.814 	"/>
</g>
<g>
	<linearGradient id="SVGID_66_" gradientUnits="userSpaceOnUse" x1="0" y1="749.1699" x2="158.4951" y2="749.1699">
		<stop  offset="0" style="stop-color:#595757"/>
		<stop  offset="0.7742" style="stop-color:#898989"/>
		<stop  offset="0.8656" style="stop-color:#FFFFFF"/>
		<stop  offset="0.9409" style="stop-color:#595757"/>
	</linearGradient>
	<rect y="741.9" fill="url(#SVGID_66_)" width="158.495" height="14.539"/>
	
		<linearGradient id="SVGID_67_" gradientUnits="userSpaceOnUse" x1="-8689.8955" y1="749.1699" x2="-8531.4004" y2="749.1699" gradientTransform="matrix(-1 0 0 1 -7414.3057 0)">
		<stop  offset="0" style="stop-color:#595757"/>
		<stop  offset="0.7742" style="stop-color:#898989"/>
		<stop  offset="0.8656" style="stop-color:#FFFFFF"/>
		<stop  offset="0.9409" style="stop-color:#595757"/>
	</linearGradient>
	<rect x="1117.095" y="741.9" fill="url(#SVGID_67_)" width="158.495" height="14.539"/>
</g>
<g>
	<linearGradient id="SVGID_68_" gradientUnits="userSpaceOnUse" x1="0" y1="869.001" x2="158.4951" y2="869.001">
		<stop  offset="0" style="stop-color:#595757"/>
		<stop  offset="0.7742" style="stop-color:#898989"/>
		<stop  offset="0.8656" style="stop-color:#FFFFFF"/>
		<stop  offset="0.9409" style="stop-color:#595757"/>
	</linearGradient>
	<rect y="861.732" fill="url(#SVGID_68_)" width="158.495" height="14.537"/>
	
		<linearGradient id="SVGID_69_" gradientUnits="userSpaceOnUse" x1="-8689.8955" y1="869.001" x2="-8531.4004" y2="869.001" gradientTransform="matrix(-1 0 0 1 -7414.3057 0)">
		<stop  offset="0" style="stop-color:#595757"/>
		<stop  offset="0.7742" style="stop-color:#898989"/>
		<stop  offset="0.8656" style="stop-color:#FFFFFF"/>
		<stop  offset="0.9409" style="stop-color:#595757"/>
	</linearGradient>
	<rect x="1117.095" y="861.732" fill="url(#SVGID_69_)" width="158.495" height="14.537"/>
</g>
<rect y="1248.223" width="1275.59" height="3.291"/>
<rect y="0.941" fill="#545456" width="1275.59" height="61.639"/>
<rect y="56.791" fill="#050101" width="1275.59" height="4.683"/>
<rect fill="#717172" width="1275.59" height="4.877"/>
<text transform="matrix(1.0633 0 0 1 90.731 36.1724)" fill="#999899" font-family="'MicrosoftYaHeiUI'" font-size="20.4828">Quidway s9312</text>
<g>
	<g>
		<path fill="#A3A3A3" d="M1047.501,30.635h9.689v-7.283h4.35v17.97h-4.35v-7.509h-9.689v7.509h-4.356v-17.97h4.356V30.635z"/>
		<path fill="#A3A3A3" d="M1069.432,34.113c0,3.181,1.067,4.504,4.665,4.504c3.597,0,4.633-1.323,4.633-4.504V23.352h4.36v10.86
			c0,2.3-0.299,3.876-1.213,4.831c-1.702,1.75-4.184,2.477-7.78,2.477c-3.598,0-6.106-0.727-7.807-2.477
			c-0.946-0.976-1.18-2.553-1.18-4.831v-10.86h4.321V34.113z"/>
		<path fill="#A3A3A3" d="M1097.301,23.352l8.813,17.97h-4.84l-1.902-4.276h-8.984l-1.843,4.276h-4.607l8.753-17.97H1097.301z
			 M1091.798,33.838h6.164l-3.131-6.905L1091.798,33.838z"/>
		<path fill="#A3A3A3" d="M1108.092,23.352l4.783,13.818l4.031-13.818h5.132l4.63,13.818l4.472-13.818h4.458l-6.39,17.97h-5.33
			l-4.408-13.411l-3.855,13.411h-5.299l-6.891-17.97H1108.092z"/>
		<path fill="#A3A3A3" d="M1141.46,30.662h12.035v3.127h-12.062c0.026,3.227,1.493,4.402,4.92,4.402h7.142v3.13h-7.343
			c-2.505,0-4.433-0.179-6.448-1.577c-2.13-1.477-3.165-3.829-3.165-7.08c0-6.354,3.078-9.313,9.732-9.313h7.224v3.131h-7.142
			C1143.218,26.482,1141.63,27.831,1141.46,30.662z"/>
		<path fill="#A3A3A3" d="M1157.331,41.321v-17.97h4.554v17.97H1157.331z"/>
	</g>
	<g>
		<path fill="#A3A3A3" d="M1003.968,40.991c0,0,0.085-0.063,0.04-0.167h0.002c-5.591-11.484-13.237-20.191-13.237-20.191
			s-4.161,3.716-3.865,7.434c0.16,2.816,2.411,4.48,2.411,4.48c3.628,3.324,12.411,7.523,14.455,8.475
			C1003.798,41.033,1003.905,41.063,1003.968,40.991z"/>
		<path fill="#A3A3A3" d="M1002.61,43.834c-0.037-0.122-0.19-0.122-0.19-0.122v-0.005l-14.622,0.479
			c1.588,2.66,4.259,4.725,7.04,4.092c1.921-0.451,6.269-3.304,7.703-4.271l-0.003-0.002
			C1002.647,43.91,1002.61,43.834,1002.61,43.834z"/>
		<path fill="#A3A3A3" d="M1002.829,42.6c0.073-0.109-0.055-0.204-0.055-0.204v-0.002c-6.421-4.074-18.867-10.329-18.867-10.329
			c-1.133,3.293,0.394,5.947,0.394,5.947c1.583,3.156,4.614,4.109,4.614,4.109c1.398,0.54,2.797,0.576,2.797,0.576
			c0.219,0.041,8.696,0.005,10.969-0.004C1002.774,42.689,1002.829,42.6,1002.829,42.6z"/>
		<path fill="#A3A3A3" d="M1003.798,14.693c-0.635,0.055-2.352,0.422-2.352,0.422c-3.871,0.939-4.786,4.245-4.786,4.245
			c-0.708,2.079,0.02,4.363,0.02,4.363c1.289,5.391,7.648,14.253,9.017,16.112c0.097,0.092,0.173,0.057,0.173,0.057
			c0.147-0.039,0.136-0.172,0.136-0.172l0.001,0.003C1008.112,19.938,1003.798,14.693,1003.798,14.693z"/>
		<path fill="#A3A3A3" d="M1008.64,39.89c0.14,0.05,0.213-0.077,0.213-0.077l0.003,0.002c1.402-1.908,7.725-10.721,9.012-16.091
			c0,0,0.699-2.601,0.024-4.363c0,0-0.957-3.354-4.835-4.245c0,0-1.118-0.263-2.3-0.422c0,0-4.334,5.246-2.229,25.045l0,0
			C1008.545,39.862,1008.64,39.89,1008.64,39.89z"/>
		<path fill="#A3A3A3" d="M1012.104,43.72c0,0-0.126,0.017-0.165,0.108c0,0-0.028,0.119,0.057,0.184h-0.003
			c1.401,0.945,5.644,3.734,7.69,4.276c0,0,3.777,1.21,7.063-4.095l-14.643-0.479V43.72z"/>
		<path fill="#A3A3A3" d="M1030.637,32.036c0,0-12.429,6.273-18.856,10.347v0.002c0,0-0.115,0.071-0.072,0.203
			c0,0,0.059,0.102,0.15,0.102l0,0c2.299,0.005,11.011,0.016,11.23-0.023c0,0,1.125-0.042,2.519-0.545c0,0,3.096-0.927,4.705-4.233
			C1030.313,37.888,1031.746,35.186,1030.637,32.036z"/>
		<path fill="#A3A3A3" d="M1010.605,40.991c0,0,0.104,0.07,0.198,0.013v0.002c2.093-0.979,10.814-5.15,14.421-8.459
			c0,0,2.285-1.726,2.407-4.497c0.261-3.851-3.859-7.417-3.859-7.417s-7.623,8.678-13.21,20.138h0.002
			C1010.564,40.771,1010.501,40.905,1010.605,40.991z"/>
	</g>
</g>
<g>
	<path fill="#AFAFAF" d="M621.682,592.755c0,8.564-7.391,15.51-16.508,15.51s-16.508-6.945-16.508-15.51
		c0-8.566,7.391-15.512,16.508-15.512S621.682,584.189,621.682,592.755"/>
	<ellipse fill="none" stroke="#949394" stroke-miterlimit="10" cx="605.174" cy="592.755" rx="16.508" ry="15.51"/>
	<path fill="#AFAFAF" d="M617.303,592.755c0,6.293-5.431,11.396-12.129,11.396c-6.697,0-12.129-5.104-12.129-11.396
		c0-6.295,5.432-11.396,12.129-11.396C611.872,581.359,617.303,586.46,617.303,592.755"/>
	<ellipse fill="none" stroke="#949394" stroke-miterlimit="10" cx="605.174" cy="592.755" rx="12.129" ry="11.396"/>
	<g>
		<g>
			<defs>
				<rect id="SVGID_70_" x="593.738" y="582.013" width="22.869" height="21.482"/>
			</defs>
			<clipPath id="SVGID_71_">
				<use xlink:href="#SVGID_70_"  overflow="visible"/>
			</clipPath>
			<path clip-path="url(#SVGID_71_)" fill="#BFBFBF" d="M616.605,592.755c0,5.932-5.118,10.74-11.432,10.74
				c-6.314,0-11.432-4.809-11.432-10.74s5.117-10.742,11.432-10.742C611.487,582.013,616.605,586.824,616.605,592.755"/>
			<path clip-path="url(#SVGID_71_)" fill="#C1C1C1" d="M616.336,592.755c0,5.791-4.998,10.486-11.162,10.486
				c-6.165,0-11.162-4.695-11.162-10.486c0-5.793,4.997-10.488,11.162-10.488C611.338,582.267,616.336,586.962,616.336,592.755"/>
			<path clip-path="url(#SVGID_71_)" fill="#C3C4C4" d="M616.067,592.755c0,5.652-4.877,10.236-10.894,10.236
				c-6.018,0-10.895-4.584-10.895-10.236s4.877-10.236,10.895-10.236C611.19,582.519,616.067,587.103,616.067,592.755"/>
			<path clip-path="url(#SVGID_71_)" fill="#C5C6C6" d="M615.799,592.755c0,5.514-4.758,9.982-10.625,9.982
				c-5.868,0-10.625-4.469-10.625-9.982s4.757-9.982,10.625-9.982C611.041,582.773,615.799,587.242,615.799,592.755"/>
			<path clip-path="url(#SVGID_71_)" fill="#C7C9C9" d="M615.531,592.755c0,5.373-4.639,9.73-10.357,9.73s-10.355-4.357-10.355-9.73
				s4.637-9.732,10.355-9.732S615.531,587.382,615.531,592.755"/>
			<path clip-path="url(#SVGID_71_)" fill="#CACBCB" d="M615.261,592.755c0,5.232-4.517,9.479-10.087,9.479
				c-5.571,0-10.088-4.246-10.088-9.479c0-5.234,4.517-9.479,10.088-9.479C610.744,583.277,615.261,587.521,615.261,592.755"/>
			<path clip-path="url(#SVGID_71_)" fill="#CCCECE" d="M614.992,592.755c0,5.094-4.396,9.225-9.818,9.225
				c-5.423,0-9.818-4.131-9.818-9.225c0-5.096,4.396-9.227,9.818-9.227C610.596,583.529,614.992,587.66,614.992,592.755"/>
			<path clip-path="url(#SVGID_71_)" fill="#CED0D0" d="M614.723,592.755c0,4.953-4.275,8.973-9.549,8.973s-9.55-4.02-9.55-8.973
				c0-4.955,4.276-8.975,9.55-8.975S614.723,587.8,614.723,592.755"/>
			<path clip-path="url(#SVGID_71_)" fill="#D1D3D3" d="M614.453,592.755c0,4.814-4.153,8.719-9.279,8.719
				c-5.125,0-9.279-3.904-9.279-8.719c0-4.816,4.154-8.721,9.279-8.721C610.3,584.035,614.453,587.939,614.453,592.755"/>
			<path clip-path="url(#SVGID_71_)" fill="#D3D5D5" d="M614.186,592.755c0,4.676-4.035,8.467-9.012,8.467
				c-4.979,0-9.012-3.791-9.012-8.467c0-4.678,4.033-8.467,9.012-8.467C610.15,584.289,614.186,588.078,614.186,592.755"/>
		</g>
	</g>
	<polygon fill="#5F5F5E" points="603.681,599.212 603.681,594.158 598.3,594.158 598.3,591.351 603.681,591.351 603.681,586.296 
		606.666,586.296 606.666,591.351 612.048,591.351 612.048,594.158 606.666,594.158 606.666,599.212 	"/>
	<path fill="#231815" d="M606.408,586.539v4.57v0.484h0.518h4.863v2.32h-4.863h-0.518v0.486v4.57h-2.469v-4.57v-0.486h-0.518h-4.863
		v-2.32h4.863h0.518v-0.484v-4.57H606.408z M606.926,586.054h-3.504v5.055h-5.381v3.291h5.381v5.057h3.504V594.4h5.379v-3.291
		h-5.379V586.054z"/>
</g>
<rect x="628.84" y="520.461" fill="#2A2B2B" width="1.822" height="101.527"/>
<rect x="577.354" y="620.273" fill="#2A2B2B" width="53.307" height="1.715"/>
<rect x="577.354" y="620.273" fill="#2A2B2B" width="1.823" height="18.821"/>
<text transform="matrix(1.0633 0 0 1 1020.3398 554.562)" font-family="'NotoSansHans-Black-GBpc-EUC-H'" font-size="11.2857">ETH</text>
<text transform="matrix(1.0633 0 0 1 937.2246 555.8018)" font-family="'NotoSansHans-Black-GBpc-EUC-H'" font-size="11.2857">CLK2</text>
<text transform="matrix(1.0633 0 0 1 878.8633 555.8018)" font-family="'NotoSansHans-Black-GBpc-EUC-H'" font-size="11.2857">CLK1</text>
<text transform="matrix(1.0633 0 0 1 830.9492 605.1411)" font-family="'NotoSansHans-Black-GBpc-EUC-H'" font-size="11.2857">SYNC</text>
<text transform="matrix(1.0633 0 0 1 1078.8262 554.562)" font-family="'NotoSansHans-Black-GBpc-EUC-H'" font-size="11.2857">CON</text>
<g>
	<path fill="#070001" d="M1195.373,583.046c3.075,0,5.566,2.342,5.566,5.234c0,2.889-2.491,5.232-5.566,5.232
		c-3.073,0-5.565-2.344-5.565-5.232C1189.808,585.388,1192.3,583.046,1195.373,583.046"/>
	<g>
		<defs>
			<path id="SVGID_72_" d="M1190.901,588.281c0,2.322,2.004,4.205,4.473,4.205c2.471,0,4.473-1.883,4.473-4.205
				c0-2.324-2.002-4.207-4.473-4.207C1192.905,584.074,1190.901,585.957,1190.901,588.281"/>
		</defs>
		<clipPath id="SVGID_73_">
			<use xlink:href="#SVGID_72_"  overflow="visible"/>
		</clipPath>
		
			<radialGradient id="SVGID_74_" cx="-125.314" cy="944.6963" r="0.7852" gradientTransform="matrix(8.3884 0 0 7.8891 2245.4648 -6866.0313)" gradientUnits="userSpaceOnUse">
			<stop  offset="0" style="stop-color:#BCD980"/>
			<stop  offset="1" style="stop-color:#8FC31F"/>
		</radialGradient>
		<rect x="1190.901" y="584.074" clip-path="url(#SVGID_73_)" fill="url(#SVGID_74_)" width="8.945" height="8.412"/>
	</g>
	<g opacity="0.5" enable-background="new    ">
		<g>
			<defs>
				<rect id="SVGID_75_" x="1193.287" y="585.849" width="1.49" height="1.402"/>
			</defs>
			<clipPath id="SVGID_76_">
				<use xlink:href="#SVGID_75_"  overflow="visible"/>
			</clipPath>
			<rect x="1193.287" y="585.849" clip-path="url(#SVGID_76_)" fill="#FFFFFF" width="1.49" height="1.402"/>
		</g>
	</g>
	<g opacity="0.5" enable-background="new    ">
		<g>
			<defs>
				<rect id="SVGID_77_" x="1193.287" y="585.849" width="0.745" height="1.402"/>
			</defs>
			<clipPath id="SVGID_78_">
				<use xlink:href="#SVGID_77_"  overflow="visible"/>
			</clipPath>
			<rect x="1193.287" y="585.849" clip-path="url(#SVGID_78_)" fill="#FFFFFF" width="0.745" height="1.402"/>
		</g>
	</g>
</g>
<g>
	<path fill="#070001" d="M1174.227,583.046c3.075,0,5.566,2.342,5.566,5.234c0,2.889-2.491,5.232-5.566,5.232
		c-3.073,0-5.565-2.344-5.565-5.232C1168.661,585.388,1171.153,583.046,1174.227,583.046"/>
	<g>
		<defs>
			<path id="SVGID_79_" d="M1169.755,588.281c0,2.322,2.004,4.205,4.473,4.205c2.471,0,4.473-1.883,4.473-4.205
				c0-2.324-2.002-4.207-4.473-4.207C1171.759,584.074,1169.755,585.957,1169.755,588.281"/>
		</defs>
		<clipPath id="SVGID_80_">
			<use xlink:href="#SVGID_79_"  overflow="visible"/>
		</clipPath>
		
			<radialGradient id="SVGID_81_" cx="-127.8354" cy="944.6963" r="0.7855" gradientTransform="matrix(8.3884 0 0 7.8891 2245.4648 -6866.0313)" gradientUnits="userSpaceOnUse">
			<stop  offset="0" style="stop-color:#BCD980"/>
			<stop  offset="1" style="stop-color:#8FC31F"/>
		</radialGradient>
		<rect x="1169.755" y="584.074" clip-path="url(#SVGID_80_)" fill="url(#SVGID_81_)" width="8.945" height="8.412"/>
	</g>
	<g opacity="0.5" enable-background="new    ">
		<g>
			<defs>
				<rect id="SVGID_82_" x="1172.141" y="585.849" width="1.49" height="1.402"/>
			</defs>
			<clipPath id="SVGID_83_">
				<use xlink:href="#SVGID_82_"  overflow="visible"/>
			</clipPath>
			<rect x="1172.141" y="585.849" clip-path="url(#SVGID_83_)" fill="#FFFFFF" width="1.49" height="1.402"/>
		</g>
	</g>
	<g opacity="0.5" enable-background="new    ">
		<g>
			<defs>
				<rect id="SVGID_84_" x="1172.141" y="585.849" width="0.745" height="1.402"/>
			</defs>
			<clipPath id="SVGID_85_">
				<use xlink:href="#SVGID_84_"  overflow="visible"/>
			</clipPath>
			<rect x="1172.141" y="585.849" clip-path="url(#SVGID_85_)" fill="#FFFFFF" width="0.746" height="1.402"/>
		</g>
	</g>
</g>
<g>
	<path fill="#070001" d="M1151.047,583.046c3.075,0,5.566,2.342,5.566,5.234c0,2.889-2.491,5.232-5.566,5.232
		c-3.073,0-5.565-2.344-5.565-5.232C1145.481,585.388,1147.974,583.046,1151.047,583.046"/>
	<g>
		<defs>
			<path id="SVGID_86_" d="M1146.575,588.281c0,2.322,2.003,4.205,4.473,4.205c2.471,0,4.473-1.883,4.473-4.205
				c0-2.324-2.002-4.207-4.473-4.207C1148.578,584.074,1146.575,585.957,1146.575,588.281"/>
		</defs>
		<clipPath id="SVGID_87_">
			<use xlink:href="#SVGID_86_"  overflow="visible"/>
		</clipPath>
		
			<radialGradient id="SVGID_88_" cx="-130.5986" cy="944.6963" r="0.7855" gradientTransform="matrix(8.3884 0 0 7.8891 2245.4648 -6866.0313)" gradientUnits="userSpaceOnUse">
			<stop  offset="0" style="stop-color:#BCD980"/>
			<stop  offset="1" style="stop-color:#8FC31F"/>
		</radialGradient>
		<rect x="1146.575" y="584.074" clip-path="url(#SVGID_87_)" fill="url(#SVGID_88_)" width="8.945" height="8.412"/>
	</g>
	<g opacity="0.5" enable-background="new    ">
		<g>
			<defs>
				<rect id="SVGID_89_" x="1148.961" y="585.849" width="1.49" height="1.402"/>
			</defs>
			<clipPath id="SVGID_90_">
				<use xlink:href="#SVGID_89_"  overflow="visible"/>
			</clipPath>
			<rect x="1148.961" y="585.849" clip-path="url(#SVGID_90_)" fill="#FFFFFF" width="1.49" height="1.402"/>
		</g>
	</g>
	<g opacity="0.5" enable-background="new    ">
		<g>
			<defs>
				<rect id="SVGID_91_" x="1148.961" y="585.849" width="0.745" height="1.402"/>
			</defs>
			<clipPath id="SVGID_92_">
				<use xlink:href="#SVGID_91_"  overflow="visible"/>
			</clipPath>
			<rect x="1148.961" y="585.849" clip-path="url(#SVGID_92_)" fill="#FFFFFF" width="0.746" height="1.402"/>
		</g>
	</g>
</g>
<rect x="911.077" y="549.194" width="23.145" height="2.637"/>
<rect x="845.28" y="549.194" width="27.656" height="2.637"/>
<rect x="845.28" y="549.194" width="2.666" height="27.348"/>
<ellipse fill="#181818" cx="846.561" cy="586.304" rx="7" ry="6.922"/>
<g>
	<path fill="#AFAFAF" d="M622.006,473.506c0,8.564-7.391,15.51-16.508,15.51s-16.507-6.945-16.507-15.51
		c0-8.566,7.39-15.512,16.507-15.512S622.006,464.939,622.006,473.506"/>
	<ellipse fill="none" stroke="#949394" stroke-miterlimit="10" cx="605.498" cy="473.506" rx="16.508" ry="15.51"/>
	<path fill="#AFAFAF" d="M617.627,473.506c0,6.293-5.431,11.396-12.129,11.396c-6.697,0-12.129-5.104-12.129-11.396
		c0-6.295,5.432-11.397,12.129-11.397C612.196,462.108,617.627,467.211,617.627,473.506"/>
	<ellipse fill="none" stroke="#949394" stroke-miterlimit="10" cx="605.498" cy="473.506" rx="12.129" ry="11.396"/>
	<g>
		<g>
			<defs>
				<rect id="SVGID_93_" x="594.063" y="462.764" width="22.869" height="21.482"/>
			</defs>
			<clipPath id="SVGID_94_">
				<use xlink:href="#SVGID_93_"  overflow="visible"/>
			</clipPath>
			<path clip-path="url(#SVGID_94_)" fill="#BFBFBF" d="M616.93,473.506c0,5.931-5.118,10.74-11.432,10.74
				c-6.314,0-11.432-4.81-11.432-10.74c0-5.933,5.117-10.742,11.432-10.742C611.812,462.764,616.93,467.573,616.93,473.506"/>
			<path clip-path="url(#SVGID_94_)" fill="#C1C1C1" d="M616.66,473.506c0,5.791-4.998,10.487-11.162,10.487
				c-6.165,0-11.162-4.696-11.162-10.487c0-5.793,4.997-10.488,11.162-10.488C611.662,463.018,616.66,467.713,616.66,473.506"/>
			<path clip-path="url(#SVGID_94_)" fill="#C3C4C4" d="M616.392,473.506c0,5.652-4.877,10.235-10.894,10.235
				c-6.018,0-10.895-4.583-10.895-10.235s4.877-10.236,10.895-10.236C611.515,463.27,616.392,467.854,616.392,473.506"/>
			<path clip-path="url(#SVGID_94_)" fill="#C5C6C6" d="M616.123,473.506c0,5.513-4.758,9.982-10.625,9.982
				c-5.868,0-10.625-4.47-10.625-9.982c0-5.514,4.757-9.983,10.625-9.983C611.365,463.522,616.123,467.992,616.123,473.506"/>
			<path clip-path="url(#SVGID_94_)" fill="#C7C9C9" d="M615.854,473.506c0,5.372-4.638,9.73-10.356,9.73s-10.355-4.358-10.355-9.73
				c0-5.373,4.637-9.732,10.355-9.732S615.854,468.133,615.854,473.506"/>
			<path clip-path="url(#SVGID_94_)" fill="#CACBCB" d="M615.585,473.506c0,5.232-4.517,9.478-10.087,9.478
				c-5.571,0-10.088-4.245-10.088-9.478c0-5.234,4.517-9.479,10.088-9.479C611.068,464.027,615.585,468.271,615.585,473.506"/>
			<path clip-path="url(#SVGID_94_)" fill="#CCCECE" d="M615.316,473.506c0,5.094-4.396,9.225-9.818,9.225
				c-5.423,0-9.818-4.131-9.818-9.225c0-5.096,4.396-9.227,9.818-9.227C610.92,464.279,615.316,468.41,615.316,473.506"/>
			<path clip-path="url(#SVGID_94_)" fill="#CED0D0" d="M615.047,473.506c0,4.953-4.275,8.973-9.549,8.973s-9.549-4.02-9.549-8.973
				c0-4.955,4.276-8.975,9.549-8.975S615.047,468.551,615.047,473.506"/>
			<path clip-path="url(#SVGID_94_)" fill="#D1D3D3" d="M614.777,473.506c0,4.814-4.153,8.719-9.279,8.719
				c-5.125,0-9.279-3.904-9.279-8.719c0-4.816,4.154-8.721,9.279-8.721C610.624,464.785,614.777,468.689,614.777,473.506"/>
			<path clip-path="url(#SVGID_94_)" fill="#D3D5D5" d="M614.51,473.506c0,4.676-4.035,8.467-9.012,8.467
				c-4.979,0-9.012-3.791-9.012-8.467c0-4.677,4.033-8.468,9.012-8.468C610.475,465.038,614.51,468.829,614.51,473.506"/>
		</g>
	</g>
	<polygon fill="#5F5F5E" points="604.005,479.963 604.005,474.908 598.624,474.908 598.624,472.102 604.005,472.102 
		604.005,467.047 606.991,467.047 606.991,472.102 612.372,472.102 612.372,474.908 606.991,474.908 606.991,479.963 	"/>
	<path fill="#231815" d="M606.732,467.289v4.569v0.486h0.518h4.863v2.319h-4.863h-0.518v0.486v4.57h-2.469v-4.57v-0.486h-0.518
		h-4.863v-2.319h4.863h0.518v-0.486v-4.569H606.732z M607.25,466.805h-3.504v5.054h-5.38v3.292h5.38v5.056h3.504v-5.056h5.379
		v-3.292h-5.379V466.805z"/>
</g>
<rect x="629.164" y="401.211" fill="#2A2B2B" width="1.822" height="101.527"/>
<rect x="577.679" y="501.023" fill="#2A2B2B" width="53.307" height="1.714"/>
<rect x="577.679" y="501.023" fill="#2A2B2B" width="1.822" height="18.82"/>
<text transform="matrix(1.0633 0 0 1 1020.6641 435.312)" font-family="'NotoSansHans-Black-GBpc-EUC-H'" font-size="11.2857">ETH</text>
<text transform="matrix(1.0633 0 0 1 937.5488 436.5518)" font-family="'NotoSansHans-Black-GBpc-EUC-H'" font-size="11.2857">CLK2</text>
<text transform="matrix(1.0633 0 0 1 879.1875 436.5518)" font-family="'NotoSansHans-Black-GBpc-EUC-H'" font-size="11.2857">CLK1</text>
<text transform="matrix(1.0633 0 0 1 831.2734 485.8911)" font-family="'NotoSansHans-Black-GBpc-EUC-H'" font-size="11.2857">SYNC</text>
<text transform="matrix(1.0633 0 0 1 1079.1514 435.312)" font-family="'NotoSansHans-Black-GBpc-EUC-H'" font-size="11.2857">CON</text>
<g>
	<path fill="#070001" d="M1195.697,463.796c3.074,0,5.565,2.343,5.565,5.235c0,2.889-2.491,5.232-5.565,5.232
		c-3.073,0-5.565-2.344-5.565-5.232C1190.132,466.139,1192.624,463.796,1195.697,463.796"/>
	<g>
		<defs>
			<path id="SVGID_95_" d="M1191.226,469.031c0,2.322,2.003,4.205,4.473,4.205c2.471,0,4.473-1.883,4.473-4.205
				c0-2.324-2.002-4.207-4.473-4.207C1193.229,464.824,1191.226,466.707,1191.226,469.031"/>
		</defs>
		<clipPath id="SVGID_96_">
			<use xlink:href="#SVGID_95_"  overflow="visible"/>
		</clipPath>
		
			<radialGradient id="SVGID_97_" cx="-125.2759" cy="929.5811" r="0.7855" gradientTransform="matrix(8.3884 0 0 7.8891 2245.4648 -6866.0313)" gradientUnits="userSpaceOnUse">
			<stop  offset="0" style="stop-color:#BCD980"/>
			<stop  offset="1" style="stop-color:#8FC31F"/>
		</radialGradient>
		<rect x="1191.226" y="464.824" clip-path="url(#SVGID_96_)" fill="url(#SVGID_97_)" width="8.945" height="8.412"/>
	</g>
	<g opacity="0.5" enable-background="new    ">
		<g>
			<defs>
				<rect id="SVGID_98_" x="1193.611" y="466.6" width="1.49" height="1.402"/>
			</defs>
			<clipPath id="SVGID_99_">
				<use xlink:href="#SVGID_98_"  overflow="visible"/>
			</clipPath>
			<rect x="1193.611" y="466.6" clip-path="url(#SVGID_99_)" fill="#FFFFFF" width="1.49" height="1.402"/>
		</g>
	</g>
	<g opacity="0.5" enable-background="new    ">
		<g>
			<defs>
				<rect id="SVGID_100_" x="1193.611" y="466.6" width="0.745" height="1.402"/>
			</defs>
			<clipPath id="SVGID_101_">
				<use xlink:href="#SVGID_100_"  overflow="visible"/>
			</clipPath>
			<rect x="1193.611" y="466.6" clip-path="url(#SVGID_101_)" fill="#FFFFFF" width="0.745" height="1.402"/>
		</g>
	</g>
</g>
<g>
	<path fill="#070001" d="M1174.551,463.796c3.075,0,5.566,2.343,5.566,5.235c0,2.889-2.491,5.232-5.566,5.232
		c-3.073,0-5.565-2.344-5.565-5.232C1168.985,466.139,1171.478,463.796,1174.551,463.796"/>
	<g>
		<defs>
			<path id="SVGID_102_" d="M1170.079,469.031c0,2.322,2.004,4.205,4.473,4.205c2.471,0,4.473-1.883,4.473-4.205
				c0-2.324-2.002-4.207-4.473-4.207C1172.083,464.824,1170.079,466.707,1170.079,469.031"/>
		</defs>
		<clipPath id="SVGID_103_">
			<use xlink:href="#SVGID_102_"  overflow="visible"/>
		</clipPath>
		
			<radialGradient id="SVGID_104_" cx="-127.7964" cy="929.5811" r="0.7855" gradientTransform="matrix(8.3884 0 0 7.8891 2245.4648 -6866.0313)" gradientUnits="userSpaceOnUse">
			<stop  offset="0" style="stop-color:#BCD980"/>
			<stop  offset="1" style="stop-color:#8FC31F"/>
		</radialGradient>
		<rect x="1170.079" y="464.824" clip-path="url(#SVGID_103_)" fill="url(#SVGID_104_)" width="8.945" height="8.412"/>
	</g>
	<g opacity="0.5" enable-background="new    ">
		<g>
			<defs>
				<rect id="SVGID_105_" x="1172.465" y="466.6" width="1.49" height="1.402"/>
			</defs>
			<clipPath id="SVGID_106_">
				<use xlink:href="#SVGID_105_"  overflow="visible"/>
			</clipPath>
			<rect x="1172.465" y="466.6" clip-path="url(#SVGID_106_)" fill="#FFFFFF" width="1.49" height="1.402"/>
		</g>
	</g>
	<g opacity="0.5" enable-background="new    ">
		<g>
			<defs>
				<rect id="SVGID_107_" x="1172.465" y="466.6" width="0.745" height="1.402"/>
			</defs>
			<clipPath id="SVGID_108_">
				<use xlink:href="#SVGID_107_"  overflow="visible"/>
			</clipPath>
			<rect x="1172.465" y="466.6" clip-path="url(#SVGID_108_)" fill="#FFFFFF" width="0.746" height="1.402"/>
		</g>
	</g>
</g>
<g>
	<path fill="#070001" d="M1151.371,463.796c3.074,0,5.566,2.343,5.566,5.235c0,2.889-2.492,5.232-5.566,5.232
		c-3.073,0-5.565-2.344-5.565-5.232C1145.806,466.139,1148.298,463.796,1151.371,463.796"/>
	<g>
		<defs>
			<path id="SVGID_109_" d="M1146.899,469.031c0,2.322,2.004,4.205,4.473,4.205c2.471,0,4.473-1.883,4.473-4.205
				c0-2.324-2.002-4.207-4.473-4.207C1148.903,464.824,1146.899,466.707,1146.899,469.031"/>
		</defs>
		<clipPath id="SVGID_110_">
			<use xlink:href="#SVGID_109_"  overflow="visible"/>
		</clipPath>
		
			<radialGradient id="SVGID_111_" cx="-130.5601" cy="929.5811" r="0.7855" gradientTransform="matrix(8.3884 0 0 7.8891 2245.4648 -6866.0313)" gradientUnits="userSpaceOnUse">
			<stop  offset="0" style="stop-color:#BCD980"/>
			<stop  offset="1" style="stop-color:#8FC31F"/>
		</radialGradient>
		<rect x="1146.899" y="464.824" clip-path="url(#SVGID_110_)" fill="url(#SVGID_111_)" width="8.945" height="8.412"/>
	</g>
	<g opacity="0.5" enable-background="new    ">
		<g>
			<defs>
				<rect id="SVGID_112_" x="1149.285" y="466.6" width="1.49" height="1.402"/>
			</defs>
			<clipPath id="SVGID_113_">
				<use xlink:href="#SVGID_112_"  overflow="visible"/>
			</clipPath>
			<rect x="1149.285" y="466.6" clip-path="url(#SVGID_113_)" fill="#FFFFFF" width="1.49" height="1.402"/>
		</g>
	</g>
	<g opacity="0.5" enable-background="new    ">
		<g>
			<defs>
				<rect id="SVGID_114_" x="1149.285" y="466.6" width="0.745" height="1.402"/>
			</defs>
			<clipPath id="SVGID_115_">
				<use xlink:href="#SVGID_114_"  overflow="visible"/>
			</clipPath>
			<rect x="1149.285" y="466.6" clip-path="url(#SVGID_115_)" fill="#FFFFFF" width="0.745" height="1.402"/>
		</g>
	</g>
</g>
<rect x="911.401" y="429.944" width="23.145" height="2.637"/>
<rect x="845.604" y="429.944" width="27.655" height="2.637"/>
<rect x="845.604" y="429.944" width="2.666" height="27.349"/>
<ellipse fill="#181818" cx="846.885" cy="467.055" rx="7" ry="6.922"/>
</svg>
