<?xml version="1.0" encoding="utf-8"?>
<!-- Generator: Adobe Illustrator 16.0.0, SVG Export Plug-In . SVG Version: 6.00 Build 0)  -->
<!DOCTYPE svg PUBLIC "-//W3C//DTD SVG 1.1//EN" "http://www.w3.org/Graphics/SVG/1.1/DTD/svg11.dtd">
<svg version="1.1" id="图层_1" xmlns="http://www.w3.org/2000/svg" xmlns:xlink="http://www.w3.org/1999/xlink" x="0px" y="0px"
	 width="1275.59px" height="2648.98px" viewBox="0 0 1275.59 2648.98" enable-background="new 0 0 1275.59 2648.98"
	 xml:space="preserve">
<rect fill="#5A5A5E" width="1275.592" height="2648.977"/>
<rect x="9.586" y="741.949" fill="#161616" width="1186.951" height="13.498"/>
<path fill="#D2D2C8" d="M144.854,1849.566c0,5.197-4.631,9.409-10.344,9.409H57.922c-5.713,0-10.342-4.212-10.342-9.409V764.854
	c0-5.196,4.629-9.408,10.342-9.408h76.588c5.713,0,10.344,4.211,10.344,9.408V1849.566z"/>
<path fill="#D2D2C8" d="M253.146,1849.566c0,5.197-4.629,9.409-10.342,9.409h-76.588c-5.711,0-10.342-4.212-10.342-9.409V764.854
	c0-5.196,4.631-9.408,10.342-9.408h76.588c5.713,0,10.342,4.211,10.342,9.408V1849.566z"/>
<path fill="#D2D2C8" d="M361.441,1849.566c0,5.197-4.629,9.409-10.342,9.409h-76.586c-5.713,0-10.344-4.212-10.344-9.409V764.854
	c0-5.196,4.631-9.408,10.344-9.408H351.1c5.713,0,10.342,4.211,10.342,9.408V1849.566z"/>
<path fill="#D2D2C8" d="M469.736,1827.932c0,5.094-4.629,9.223-10.34,9.223h-76.59c-5.711,0-10.34-4.129-10.34-9.223V764.668
	c0-5.094,4.629-9.222,10.34-9.222h76.59c5.711,0,10.34,4.128,10.34,9.222V1827.932z"/>
<path fill="#D2D2C8" d="M578.031,1827.932c0,5.094-4.629,9.223-10.342,9.223H491.1c-5.711,0-10.342-4.129-10.342-9.223V764.668
	c0-5.094,4.631-9.222,10.342-9.222h76.59c5.713,0,10.342,4.128,10.342,9.222V1827.932z"/>
<path fill="#D2D2C8" d="M686.326,1827.932c0,5.094-4.629,9.223-10.342,9.223h-76.588c-5.711,0-10.342-4.129-10.342-9.223V764.668
	c0-5.094,4.631-9.222,10.342-9.222h76.588c5.713,0,10.342,4.128,10.342,9.222V1827.932z"/>
<path fill="#D2D2C8" d="M794.623,1827.932c0,5.094-4.631,9.223-10.342,9.223h-76.59c-5.711,0-10.342-4.129-10.342-9.223V764.668
	c0-5.094,4.631-9.222,10.342-9.222h76.59c5.711,0,10.342,4.128,10.342,9.222V1827.932z"/>
<path fill="#D2D2C8" d="M902.916,1849.566c0,5.197-4.631,9.409-10.34,9.409h-76.592c-5.709,0-10.342-4.212-10.342-9.409V764.854
	c0-5.196,4.633-9.408,10.342-9.408h76.592c5.709,0,10.34,4.211,10.34,9.408V1849.566z"/>
<path fill="#D2D2C8" d="M1119.506,1849.566c0,5.197-4.629,9.409-10.342,9.409h-76.588c-5.711,0-10.342-4.212-10.342-9.409V764.854
	c0-5.196,4.631-9.408,10.342-9.408h76.588c5.713,0,10.342,4.211,10.342,9.408V1849.566z"/>
<path fill="#8E8E8E" stroke="#070405" stroke-miterlimit="10" d="M126.557,1146.772c1.693,0,3.066-1.1,3.066-2.453V925.451
	c0-1.354-1.373-2.453-3.066-2.453H65.871c-1.691,0-3.064,1.099-3.064,2.453v218.868c0,1.354,1.373,2.453,3.064,2.453H126.557z"/>
<path fill="#8E8E8E" stroke="#070405" stroke-miterlimit="10" d="M126.557,1676.806c1.693,0,3.066-1.1,3.066-2.453v-218.868
	c0-1.354-1.373-2.453-3.066-2.453H65.871c-1.691,0-3.064,1.099-3.064,2.453v218.868c0,1.354,1.373,2.453,3.064,2.453H126.557z"/>
<g>
	<ellipse fill="#CECECF" cx="96.217" cy="773.447" rx="14.088" ry="14.396"/>
	<g>
		<ellipse fill="#040000" cx="96.216" cy="773.447" rx="11.403" ry="11.652"/>
		<path fill="#2A2C2D" stroke="#040000" stroke-width="0.5" stroke-miterlimit="10" d="M106.16,773.624
			c0.096-5.612-4.279-10.24-9.771-10.338s-10.02,4.372-10.115,9.983c-0.096,5.61,4.275,10.239,9.77,10.337
			C101.535,783.704,106.064,779.236,106.16,773.624"/>
		<polygon fill="#040000" points="101.977,772.089 90.506,771.885 90.457,774.804 101.928,775.009 		"/>
		
			<rect x="90.356" y="772.017" transform="matrix(0.0172 -0.9999 0.9999 0.0172 -678.767 856.3745)" fill="#040000" width="11.721" height="2.858"/>
	</g>
</g>
<g>
	<ellipse fill="#CECECF" cx="204.511" cy="773.447" rx="14.089" ry="14.396"/>
	<g>
		<ellipse fill="#040000" cx="204.511" cy="773.447" rx="11.403" ry="11.652"/>
		<path fill="#2A2C2D" stroke="#040000" stroke-width="0.5" stroke-miterlimit="10" d="M214.455,773.624
			c0.094-5.612-4.279-10.24-9.771-10.338s-10.021,4.372-10.117,9.983c-0.094,5.61,4.275,10.239,9.77,10.337
			C209.828,783.704,214.357,779.236,214.455,773.624"/>
		<polygon fill="#040000" points="210.27,772.089 198.801,771.885 198.752,774.804 210.221,775.009 		"/>
		
			<rect x="198.65" y="772.016" transform="matrix(0.0172 -0.9999 0.9999 0.0172 -572.3316 964.6525)" fill="#040000" width="11.721" height="2.86"/>
	</g>
</g>
<g>
	<ellipse fill="#CECECF" cx="312.805" cy="773.447" rx="14.088" ry="14.396"/>
	<g>
		<ellipse fill="#040000" cx="312.806" cy="773.447" rx="11.403" ry="11.652"/>
		<path fill="#2A2C2D" stroke="#040000" stroke-width="0.5" stroke-miterlimit="10" d="M322.75,773.624
			c0.096-5.612-4.277-10.24-9.771-10.338c-5.492-0.098-10.021,4.372-10.115,9.983c-0.098,5.61,4.275,10.239,9.77,10.337
			C318.125,783.704,322.654,779.236,322.75,773.624"/>
		<polygon fill="#040000" points="318.566,772.089 307.094,771.885 307.047,774.804 318.514,775.009 		"/>
		
			<rect x="306.946" y="772.016" transform="matrix(0.0173 -0.9998 0.9998 0.0173 -465.9442 1072.8027)" fill="#040000" width="11.721" height="2.86"/>
	</g>
</g>
<g>
	<path fill="#CECECF" d="M407.012,773.447c0,7.95,6.311,14.396,14.088,14.396c7.781,0,14.09-6.445,14.09-14.396
		c0-7.951-6.309-14.396-14.09-14.396C413.322,759.051,407.012,765.496,407.012,773.447z"/>
	<g>
		<ellipse fill="#040000" cx="421.1" cy="773.447" rx="11.402" ry="11.652"/>
		<path fill="#2A2C2D" stroke="#040000" stroke-width="0.5" stroke-miterlimit="10" d="M431.041,773.624
			c0.1-5.612-4.273-10.24-9.768-10.338c-5.492-0.098-10.021,4.372-10.115,9.983c-0.098,5.61,4.275,10.239,9.768,10.337
			S430.947,779.236,431.041,773.624"/>
		
			<rect x="415.366" y="771.987" transform="matrix(0.9998 0.0178 -0.0178 0.9998 13.8314 -7.3716)" fill="#040000" width="11.469" height="2.919"/>
		
			<rect x="415.241" y="772.017" transform="matrix(0.0172 -0.9999 0.9999 0.0172 -359.4581 1181.2114)" fill="#040000" width="11.721" height="2.858"/>
	</g>
</g>
<g>
	<ellipse fill="#CECECF" cx="745.984" cy="773.447" rx="14.088" ry="14.396"/>
	<g>
		<path fill="#040000" d="M734.582,773.447c0,6.435,5.105,11.652,11.4,11.652c6.301,0,11.406-5.218,11.406-11.652
			c0-6.437-5.105-11.653-11.406-11.653C739.688,761.794,734.582,767.011,734.582,773.447z"/>
		<path fill="#2A2C2D" stroke="#040000" stroke-width="0.5" stroke-miterlimit="10" d="M755.93,773.624
			c0.096-5.612-4.279-10.24-9.771-10.338s-10.02,4.372-10.115,9.983c-0.098,5.61,4.275,10.239,9.77,10.337
			C751.305,783.704,755.834,779.236,755.93,773.624"/>
		<polygon fill="#040000" points="751.746,772.089 740.275,771.885 740.229,774.804 751.695,775.009 		"/>
		
			<rect x="740.126" y="772.017" transform="matrix(0.0172 -0.9999 0.9999 0.0172 -40.1492 1506.0483)" fill="#040000" width="11.721" height="2.858"/>
	</g>
</g>
<g>
	<ellipse fill="#CECECF" cx="854.28" cy="773.447" rx="14.089" ry="14.396"/>
	<g>
		<ellipse fill="#040000" cx="854.279" cy="773.447" rx="11.402" ry="11.652"/>
		<path fill="#2A2C2D" stroke="#040000" stroke-width="0.5" stroke-miterlimit="10" d="M864.223,773.624
			c0.096-5.612-4.277-10.24-9.77-10.338s-10.02,4.372-10.115,9.983c-0.098,5.61,4.277,10.239,9.77,10.337
			C859.598,783.704,864.127,779.236,864.223,773.624"/>
		
			<rect x="848.546" y="771.987" transform="matrix(0.9998 0.0178 -0.0178 0.9998 13.9 -15.0807)" fill="#040000" width="11.469" height="2.919"/>
		
			<rect x="848.42" y="772.017" transform="matrix(0.017 -0.9999 0.9999 0.017 66.4262 1614.4576)" fill="#040000" width="11.721" height="2.858"/>
	</g>
</g>
<path fill="#434244" d="M697.35,791.447V764.67c0-5.094,4.629-9.223,10.34-9.223h76.59c5.711,0,10.342,4.129,10.342,9.223v26.777
	H697.35z"/>
<g>
	<ellipse fill="#CECECF" cx="1070.87" cy="773.447" rx="14.089" ry="14.396"/>
	<g>
		<ellipse fill="#040000" cx="1070.869" cy="773.447" rx="11.402" ry="11.652"/>
		<path fill="#2A2C2D" stroke="#040000" stroke-width="0.5" stroke-miterlimit="10" d="M1080.813,773.624
			c0.096-5.612-4.277-10.24-9.77-10.338s-10.02,4.372-10.117,9.983c-0.096,5.61,4.277,10.239,9.77,10.337
			S1080.719,779.236,1080.813,773.624"/>
		
			<rect x="1065.135" y="771.987" transform="matrix(0.9998 0.0178 -0.0178 0.9998 13.9319 -18.9321)" fill="#040000" width="11.471" height="2.919"/>
		
			<rect x="1065.009" y="772.018" transform="matrix(0.0172 -0.9999 0.9999 0.0172 279.1586 1830.8843)" fill="#040000" width="11.721" height="2.856"/>
	</g>
</g>
<path fill="#D2D2C8" d="M1011.209,1849.566c0,5.197-4.627,9.409-10.34,9.409h-76.59c-5.711,0-10.34-4.212-10.34-9.409V764.854
	c0-5.196,4.629-9.408,10.34-9.408h76.59c5.713,0,10.34,4.211,10.34,9.408V1849.566z"/>
<g>
	<ellipse fill="#CECECF" cx="962.575" cy="773.447" rx="14.089" ry="14.396"/>
	<g>
		<path fill="#040000" d="M951.172,773.447c0,6.435,5.105,11.652,11.4,11.652c6.301,0,11.404-5.218,11.404-11.652
			c0-6.437-5.104-11.653-11.404-11.653C956.277,761.794,951.172,767.011,951.172,773.447z"/>
		<path fill="#2A2C2D" stroke="#040000" stroke-width="0.5" stroke-miterlimit="10" d="M972.518,773.624
			c0.096-5.612-4.277-10.24-9.771-10.338c-5.49-0.098-10.02,4.372-10.115,9.983c-0.096,5.61,4.277,10.239,9.77,10.337
			S972.422,779.236,972.518,773.624"/>
		
			<rect x="956.839" y="771.987" transform="matrix(0.9998 0.0178 -0.0178 0.9998 13.9147 -17.0051)" fill="#040000" width="11.471" height="2.919"/>
		
			<rect x="956.714" y="772.017" transform="matrix(0.0172 -0.9999 0.9999 0.0172 172.7214 1722.6042)" fill="#040000" width="11.721" height="2.858"/>
	</g>
</g>
<path fill="#5A5A5E" d="M480.758,1822.25v27.316c0,5.197,4.631,9.409,10.342,9.409h76.59c5.713,0,10.342-4.212,10.342-9.409v-27.316
	H480.758z"/>
<path fill="#AB5162" d="M589.055,1822.25v27.316c0,5.197,4.631,9.409,10.342,9.409h76.588c5.713,0,10.342-4.212,10.342-9.409
	v-27.316H589.055z"/>
<path fill="#434244" d="M480.758,791.447V764.67c0-5.094,4.631-9.223,10.342-9.223h76.59c5.713,0,10.342,4.129,10.342,9.223v26.777
	H480.758z"/>
<path fill="#AB5162" d="M589.055,791.447V764.67c0-5.094,4.631-9.223,10.342-9.223h76.588c5.713,0,10.342,4.129,10.342,9.223v26.777
	H589.055z"/>
<path fill="#AB5162" d="M589.055,1210.936v-26.777c0-5.094,4.631-9.223,10.342-9.223h76.588c5.713,0,10.342,4.129,10.342,9.223
	v26.777H589.055z"/>
<path fill="#AB5162" d="M589.055,1213.955v26.777c0,5.094,4.631,9.223,10.342,9.223h76.588c5.713,0,10.342-4.129,10.342-9.223
	v-26.777H589.055z"/>
<path fill="#5A5A5E" d="M698.17,1822.248v27.318c0,5.196,4.629,9.408,10.342,9.408H785.1c5.711,0,10.342-4.212,10.342-9.408v-27.318
	H698.17z"/>
<g>
	<ellipse fill="#CECECF" cx="96.217" cy="1840.611" rx="14.088" ry="14.686"/>
	<g>
		<ellipse fill="#040000" cx="96.216" cy="1840.611" rx="11.403" ry="11.887"/>
		<path fill="#2A2C2D" stroke="#040000" stroke-width="0.5" stroke-miterlimit="10" d="M106.16,1840.432
			c0.096,5.725-4.279,10.446-9.771,10.546s-10.02-4.46-10.115-10.185c-0.096-5.724,4.275-10.445,9.77-10.545
			C101.535,1830.148,106.064,1834.705,106.16,1840.432"/>
		<polygon fill="#040000" points="101.977,1841.998 90.506,1842.205 90.457,1839.228 101.928,1839.019 		"/>
		<polygon fill="#040000" points="94.889,1846.616 94.688,1834.66 97.545,1834.609 97.746,1846.564 		"/>
	</g>
</g>
<g>
	<ellipse fill="#CECECF" cx="204.511" cy="1840.611" rx="14.089" ry="14.686"/>
	<g>
		<ellipse fill="#040000" cx="204.511" cy="1840.611" rx="11.403" ry="11.887"/>
		<path fill="#2A2C2D" stroke="#040000" stroke-width="0.5" stroke-miterlimit="10" d="M214.455,1840.432
			c0.094,5.725-4.279,10.446-9.771,10.546s-10.021-4.46-10.117-10.185c-0.094-5.724,4.275-10.445,9.77-10.545
			C209.828,1830.148,214.357,1834.705,214.455,1840.432"/>
		<polygon fill="#040000" points="210.27,1841.998 198.801,1842.205 198.752,1839.228 210.221,1839.019 		"/>
		<polygon fill="#040000" points="203.182,1846.616 202.98,1834.66 205.84,1834.609 206.039,1846.564 		"/>
	</g>
</g>
<g>
	<ellipse fill="#CECECF" cx="312.805" cy="1840.611" rx="14.088" ry="14.686"/>
	<g>
		<ellipse fill="#040000" cx="312.806" cy="1840.611" rx="11.403" ry="11.887"/>
		<path fill="#2A2C2D" stroke="#040000" stroke-width="0.5" stroke-miterlimit="10" d="M322.75,1840.432
			c0.096,5.725-4.277,10.446-9.771,10.546c-5.492,0.1-10.021-4.46-10.115-10.185c-0.098-5.724,4.275-10.445,9.77-10.545
			C318.125,1830.148,322.654,1834.705,322.75,1840.432"/>
		<polygon fill="#040000" points="318.566,1841.998 307.094,1842.205 307.047,1839.228 318.514,1839.019 		"/>
		<polygon fill="#040000" points="311.479,1846.616 311.275,1834.66 314.135,1834.609 314.336,1846.564 		"/>
	</g>
</g>
<g>
	<path fill="#CECECF" d="M407.012,1840.611c0-8.11,6.311-14.686,14.088-14.686c7.781,0,14.09,6.575,14.09,14.686
		c0,8.111-6.309,14.688-14.09,14.688C413.322,1855.299,407.012,1848.723,407.012,1840.611z"/>
	<g>
		<ellipse fill="#040000" cx="421.1" cy="1840.611" rx="11.402" ry="11.887"/>
		<path fill="#2A2C2D" stroke="#040000" stroke-width="0.5" stroke-miterlimit="10" d="M431.041,1840.432
			c0.1,5.725-4.273,10.446-9.768,10.546c-5.492,0.1-10.021-4.46-10.115-10.185c-0.098-5.724,4.275-10.445,9.768-10.545
			S430.947,1834.705,431.041,1840.432"/>
		<polygon fill="#040000" points="426.859,1841.998 415.393,1842.205 415.342,1839.228 426.811,1839.019 		"/>
		<polygon fill="#040000" points="419.773,1846.616 419.572,1834.66 422.43,1834.609 422.631,1846.564 		"/>
	</g>
</g>
<g>
	<ellipse fill="#CECECF" cx="529.396" cy="1840.611" rx="14.089" ry="14.686"/>
	<g>
		<path fill="#040000" d="M517.992,1840.611c0-6.564,5.104-11.887,11.4-11.887c6.301,0,11.404,5.322,11.404,11.887
			c0,6.566-5.104,11.889-11.404,11.889C523.096,1852.5,517.992,1847.178,517.992,1840.611z"/>
		<path fill="#2A2C2D" stroke="#040000" stroke-width="0.5" stroke-miterlimit="10" d="M539.338,1840.432
			c0.098,5.725-4.275,10.446-9.771,10.546c-5.492,0.1-10.02-4.46-10.115-10.185c-0.096-5.724,4.277-10.445,9.77-10.545
			S539.244,1834.705,539.338,1840.432"/>
		<polygon fill="#040000" points="535.154,1841.998 523.686,1842.205 523.637,1839.228 535.105,1839.019 		"/>
		<polygon fill="#040000" points="528.066,1846.616 527.867,1834.66 530.725,1834.609 530.926,1846.564 		"/>
	</g>
</g>
<g>
	<path fill="#CECECF" d="M623.604,1840.611c0-8.11,6.309-14.686,14.086-14.686c7.783,0,14.09,6.575,14.09,14.686
		c0,8.111-6.307,14.688-14.09,14.688C629.912,1855.299,623.604,1848.723,623.604,1840.611z"/>
	<g>
		<ellipse fill="#040000" cx="637.689" cy="1840.611" rx="11.402" ry="11.887"/>
		<path fill="#2A2C2D" stroke="#040000" stroke-width="0.5" stroke-miterlimit="10" d="M647.633,1840.432
			c0.098,5.725-4.275,10.446-9.77,10.546c-5.492,0.1-10.02-4.46-10.115-10.185c-0.098-5.724,4.275-10.445,9.77-10.545
			C643.008,1830.148,647.537,1834.705,647.633,1840.432"/>
		<polygon fill="#040000" points="643.449,1841.998 631.98,1842.205 631.932,1839.228 643.398,1839.019 		"/>
		<polygon fill="#040000" points="636.363,1846.616 636.162,1834.66 639.02,1834.609 639.219,1846.564 		"/>
	</g>
</g>
<g>
	<ellipse fill="#CECECF" cx="745.984" cy="1840.611" rx="14.088" ry="14.686"/>
	<g>
		<path fill="#040000" d="M734.582,1840.611c0-6.564,5.105-11.887,11.4-11.887c6.301,0,11.406,5.322,11.406,11.887
			c0,6.566-5.105,11.889-11.406,11.889C739.688,1852.5,734.582,1847.178,734.582,1840.611z"/>
		<path fill="#2A2C2D" stroke="#040000" stroke-width="0.5" stroke-miterlimit="10" d="M755.93,1840.432
			c0.096,5.725-4.279,10.446-9.771,10.546s-10.02-4.46-10.115-10.185c-0.098-5.724,4.275-10.445,9.77-10.545
			C751.305,1830.148,755.834,1834.705,755.93,1840.432"/>
		<polygon fill="#040000" points="751.746,1841.998 740.275,1842.205 740.229,1839.228 751.695,1839.019 		"/>
		<polygon fill="#040000" points="744.658,1846.616 744.457,1834.66 747.314,1834.609 747.516,1846.564 		"/>
	</g>
</g>
<g>
	<ellipse fill="#CECECF" cx="854.28" cy="1840.611" rx="14.089" ry="14.686"/>
	<g>
		<ellipse fill="#040000" cx="854.279" cy="1840.611" rx="11.402" ry="11.887"/>
		<path fill="#2A2C2D" stroke="#040000" stroke-width="0.5" stroke-miterlimit="10" d="M864.223,1840.432
			c0.096,5.725-4.277,10.446-9.77,10.546s-10.02-4.46-10.115-10.185c-0.098-5.724,4.277-10.445,9.77-10.545
			C859.598,1830.148,864.127,1834.705,864.223,1840.432"/>
		<polygon fill="#040000" points="860.039,1841.998 848.572,1842.205 848.521,1839.228 859.99,1839.019 		"/>
		<polygon fill="#040000" points="852.951,1846.616 852.752,1834.66 855.609,1834.609 855.809,1846.564 		"/>
	</g>
</g>
<g>
	<ellipse fill="#CECECF" cx="962.575" cy="1840.611" rx="14.089" ry="14.686"/>
	<g>
		<path fill="#040000" d="M951.172,1840.611c0-6.564,5.105-11.887,11.4-11.887c6.301,0,11.404,5.322,11.404,11.887
			c0,6.566-5.104,11.889-11.404,11.889C956.277,1852.5,951.172,1847.178,951.172,1840.611z"/>
		<path fill="#2A2C2D" stroke="#040000" stroke-width="0.5" stroke-miterlimit="10" d="M972.518,1840.432
			c0.096,5.725-4.277,10.446-9.771,10.546c-5.49,0.1-10.02-4.46-10.115-10.185c-0.096-5.724,4.277-10.445,9.77-10.545
			S972.422,1834.705,972.518,1840.432"/>
		<polygon fill="#040000" points="968.334,1841.998 956.865,1842.205 956.814,1839.228 968.285,1839.019 		"/>
		<polygon fill="#040000" points="961.246,1846.616 961.045,1834.66 963.902,1834.609 964.104,1846.564 		"/>
	</g>
</g>
<g>
	<ellipse fill="#CECECF" cx="1070.87" cy="1840.611" rx="14.089" ry="14.686"/>
	<g>
		<ellipse fill="#040000" cx="1070.869" cy="1840.611" rx="11.402" ry="11.887"/>
		<path fill="#2A2C2D" stroke="#040000" stroke-width="0.5" stroke-miterlimit="10" d="M1080.813,1840.432
			c0.096,5.725-4.277,10.446-9.77,10.546s-10.02-4.46-10.117-10.185c-0.096-5.724,4.277-10.445,9.77-10.545
			S1080.719,1834.705,1080.813,1840.432"/>
		<polygon fill="#040000" points="1076.629,1841.998 1065.16,1842.205 1065.111,1839.228 1076.578,1839.019 		"/>
		<polygon fill="#040000" points="1069.543,1846.616 1069.342,1834.66 1072.197,1834.609 1072.398,1846.564 		"/>
	</g>
</g>
<g>
	<path fill="#D2D2C8" d="M1228.037,1849.566c0,5.197-4.631,9.408-10.342,9.408h-76.59c-5.711,0-10.34-4.211-10.34-9.408V764.854
		c0-5.196,4.629-9.408,10.34-9.408h76.59c5.711,0,10.342,4.211,10.342,9.408V1849.566z"/>
	<g>
		<ellipse fill="#CECECF" cx="1179.401" cy="773.81" rx="14.089" ry="14.686"/>
		<g>
			<path fill="#040000" d="M1167.996,773.81c0,6.564,5.107,11.887,11.402,11.887c6.299,0,11.404-5.323,11.404-11.887
				c0-6.566-5.105-11.889-11.404-11.889C1173.104,761.921,1167.996,767.244,1167.996,773.81z"/>
			<path fill="#2A2C2D" stroke="#040000" stroke-width="0.5" stroke-miterlimit="10" d="M1189.344,773.99
				c0.096-5.726-4.277-10.447-9.771-10.546c-5.49-0.1-10.02,4.46-10.117,10.185c-0.094,5.723,4.279,10.446,9.77,10.545
				C1184.719,784.274,1189.248,779.716,1189.344,773.99"/>
			<polygon fill="#040000" points="1185.16,772.424 1173.691,772.216 1173.643,775.194 1185.109,775.403 			"/>
			<polygon fill="#040000" points="1178.072,767.806 1177.873,779.762 1180.729,779.813 1180.93,767.857 			"/>
		</g>
	</g>
	<g>
		<ellipse fill="#CECECF" cx="1179.401" cy="1840.611" rx="14.089" ry="14.686"/>
		<g>
			<path fill="#040000" d="M1167.996,1840.611c0-6.564,5.107-11.888,11.402-11.888c6.299,0,11.404,5.323,11.404,11.888
				c0,6.566-5.105,11.889-11.404,11.889C1173.104,1852.5,1167.996,1847.178,1167.996,1840.611z"/>
			<path fill="#2A2C2D" stroke="#040000" stroke-width="0.5" stroke-miterlimit="10" d="M1189.344,1840.431
				c0.096,5.726-4.277,10.446-9.771,10.546c-5.49,0.1-10.02-4.459-10.117-10.184c-0.094-5.725,4.279-10.446,9.77-10.546
				C1184.719,1830.147,1189.248,1834.705,1189.344,1840.431"/>
			<polygon fill="#040000" points="1185.16,1841.997 1173.691,1842.205 1173.643,1839.227 1185.109,1839.018 			"/>
			<polygon fill="#040000" points="1178.072,1846.615 1177.873,1834.66 1180.729,1834.608 1180.93,1846.563 			"/>
		</g>
	</g>
</g>
<g>
	<ellipse fill="#CECECF" cx="529.396" cy="773.447" rx="14.089" ry="14.396"/>
	<g>
		<path fill="#040000" d="M517.992,773.447c0,6.435,5.104,11.652,11.4,11.652c6.301,0,11.404-5.218,11.404-11.652
			c0-6.437-5.104-11.653-11.404-11.653C523.096,761.794,517.992,767.011,517.992,773.447z"/>
		<path fill="#2A2C2D" stroke="#040000" stroke-width="0.5" stroke-miterlimit="10" d="M539.338,773.624
			c0.098-5.612-4.275-10.24-9.771-10.338c-5.492-0.098-10.02,4.372-10.115,9.983c-0.096,5.61,4.277,10.239,9.77,10.337
			S539.244,779.236,539.338,773.624"/>
		<polygon fill="#040000" points="535.154,772.089 523.686,771.885 523.637,774.804 535.105,775.009 		"/>
		
			<rect x="523.535" y="772.017" transform="matrix(0.017 -0.9999 0.9999 0.017 -252.9368 1289.6198)" fill="#040000" width="11.721" height="2.858"/>
	</g>
</g>
<g>
	<path fill="#CECECF" d="M623.604,773.447c0,7.95,6.309,14.396,14.086,14.396c7.783,0,14.09-6.445,14.09-14.396
		c0-7.951-6.307-14.396-14.09-14.396C629.912,759.051,623.604,765.496,623.604,773.447z"/>
	<g>
		<ellipse fill="#040000" cx="637.689" cy="773.447" rx="11.402" ry="11.652"/>
		<path fill="#2A2C2D" stroke="#040000" stroke-width="0.5" stroke-miterlimit="10" d="M647.633,773.624
			c0.098-5.612-4.275-10.24-9.77-10.338c-5.492-0.098-10.02,4.372-10.115,9.983c-0.098,5.61,4.275,10.239,9.77,10.337
			C643.008,783.704,647.537,779.236,647.633,773.624"/>
		
			<rect x="631.955" y="771.987" transform="matrix(0.9998 0.0178 -0.0178 0.9998 13.8633 -11.2243)" fill="#040000" width="11.471" height="2.919"/>
		
			<rect x="631.831" y="772.017" transform="matrix(0.0172 -0.9999 0.9999 0.0172 -146.5855 1397.7693)" fill="#040000" width="11.721" height="2.858"/>
	</g>
</g>
<g>
	<path fill="#CEE07D" d="M522.656,1581.738c0-2.824,2.242-5.113,5.004-5.113c2.766,0,5.008,2.289,5.008,5.113
		s-2.242,5.113-5.008,5.113C524.898,1586.852,522.656,1584.563,522.656,1581.738z"/>
</g>
<g>
	<path fill="#B2B2B2" d="M527.66,1587.316c-3.01,0-5.459-2.502-5.459-5.578c0-3.078,2.449-5.578,5.459-5.578
		c3.012,0,5.461,2.5,5.461,5.578C533.121,1584.814,530.672,1587.316,527.66,1587.316z M527.66,1577.088
		c-2.508,0-4.549,2.086-4.549,4.65c0,2.563,2.041,4.648,4.549,4.648c2.512,0,4.553-2.086,4.553-4.648
		C532.213,1579.174,530.172,1577.088,527.66,1577.088z"/>
</g>
<g>
	<g>
		<path fill="#606060" d="M537.643,1581.738c0-2.824,2.242-5.113,5.004-5.113c2.764,0,5.008,2.289,5.008,5.113
			s-2.244,5.113-5.008,5.113C539.885,1586.852,537.643,1584.563,537.643,1581.738z"/>
	</g>
	<g>
		<path fill="#B2B2B2" d="M542.646,1587.316c-3.01,0-5.459-2.502-5.459-5.578c0-3.078,2.449-5.578,5.459-5.578
			c3.014,0,5.461,2.5,5.461,5.578C548.107,1584.814,545.66,1587.316,542.646,1587.316z M542.646,1577.088
			c-2.508,0-4.547,2.086-4.547,4.65c0,2.563,2.039,4.648,4.547,4.648c2.512,0,4.553-2.086,4.553-4.648
			C547.199,1579.174,545.158,1577.088,542.646,1577.088z"/>
	</g>
</g>
<g>
	<g>
		<ellipse fill="#606060" cx="530.312" cy="1415.483" rx="5.005" ry="5.113"/>
	</g>
	<g>
		<path fill="#B2B2B2" d="M530.311,1421.063c-3.01,0-5.459-2.502-5.459-5.58c0-3.075,2.449-5.578,5.459-5.578
			s5.461,2.503,5.461,5.578C535.771,1418.562,533.32,1421.063,530.311,1421.063z M530.311,1410.835c-2.51,0-4.549,2.086-4.549,4.648
			c0,2.563,2.039,4.649,4.549,4.649c2.508,0,4.551-2.086,4.551-4.649C534.861,1412.921,532.818,1410.835,530.311,1410.835z"/>
	</g>
</g>
<g>
	<g>
		<ellipse fill="#606060" cx="545.298" cy="1415.483" rx="5.005" ry="5.113"/>
	</g>
	<g>
		<path fill="#B2B2B2" d="M545.297,1421.063c-3.01,0-5.459-2.502-5.459-5.58c0-3.075,2.449-5.578,5.459-5.578
			c3.012,0,5.461,2.503,5.461,5.578C550.758,1418.562,548.309,1421.063,545.297,1421.063z M545.297,1410.835
			c-2.51,0-4.549,2.086-4.549,4.648c0,2.563,2.039,4.649,4.549,4.649s4.551-2.086,4.551-4.649
			C549.848,1412.921,547.807,1410.835,545.297,1410.835z"/>
	</g>
</g>
<polyline fill="none" stroke="#888888" stroke-miterlimit="10" points="500.947,1439.439 500.947,1454.533 513.344,1454.532 "/>
<path fill="none" stroke="#888888" stroke-miterlimit="10" d="M500.947,1439.439"/>
<path fill="none" stroke="#888888" stroke-miterlimit="10" d="M500.947,1427.938"/>
<path fill="none" stroke="#888888" stroke-miterlimit="10" d="M523.158,1415.484H503.23c0,0-2.607,1.865-2.283,5.579v6.875"/>
<polyline fill="none" stroke="#888888" stroke-miterlimit="10" points="500.947,1524.102 500.947,1542.75 513.344,1542.75 "/>
<path fill="none" stroke="#888888" stroke-miterlimit="10" d="M500.947,1472.076"/>
<path fill="none" stroke="#888888" stroke-miterlimit="10" d="M500.947,1456.404"/>
<path fill="none" stroke="#888888" stroke-miterlimit="10" d="M523.158,1488.08H503.23c0,0-2.607,1.865-2.283,5.578v14.771"/>
<linearGradient id="SVGID_1_" gradientUnits="userSpaceOnUse" x1="535.1543" y1="1602.7539" x2="535.1543" y2="1795.9897">
	<stop  offset="0" style="stop-color:#474747"/>
	<stop  offset="0.5269" style="stop-color:#312928"/>
	<stop  offset="1" style="stop-color:#000000"/>
</linearGradient>
<path fill="url(#SVGID_1_)" d="M551.354,1791.979c0,2.222-1.824,4.022-4.076,4.022h-24.246c-2.252,0-4.076-1.801-4.076-4.022
	v-187.046c0-2.222,1.824-4.021,4.076-4.021h24.246c2.252,0,4.076,1.8,4.076,4.021V1791.979z"/>
<g>
	<path fill="#E9E8E8" d="M525.834,1627.496c-4.625-5.26-4.197-13.354,0.947-18.078c5.148-4.723,13.07-4.291,17.693,0.967
		c4.623,5.262,4.197,13.355-0.947,18.08C538.379,1633.186,530.457,1632.754,525.834,1627.496z"/>
	<g>
		<path fill="#AFAFAF" d="M544.91,1618.932c0.004,5.498-4.361,9.963-9.748,9.969c-5.389,0.002-9.756-4.453-9.762-9.951
			s4.357-9.963,9.744-9.967C540.533,1608.979,544.902,1613.432,544.91,1618.932"/>
		<path fill="none" stroke="#949394" stroke-miterlimit="10" d="M544.91,1618.932c0.004,5.498-4.361,9.963-9.748,9.969
			c-5.389,0.002-9.756-4.453-9.762-9.951s4.357-9.963,9.744-9.967C540.533,1608.979,544.902,1613.432,544.91,1618.932z"/>
		<g>
			<g>
				<defs>
					
						<rect id="SVGID_2_" x="525.958" y="1609.554" transform="matrix(-1 9.557325e-004 -9.557325e-004 -1 1071.8557 3237.3687)" width="18.393" height="18.773"/>
				</defs>
				<clipPath id="SVGID_3_">
					<use xlink:href="#SVGID_2_"  overflow="visible"/>
				</clipPath>
				<path clip-path="url(#SVGID_3_)" fill="#BFBFBF" d="M544.348,1618.932c0.002,5.184-4.107,9.389-9.186,9.393
					c-5.076,0.004-9.199-4.191-9.203-9.373c-0.002-5.186,4.109-9.391,9.188-9.396
					C540.223,1609.549,544.342,1613.75,544.348,1618.932"/>
				<path clip-path="url(#SVGID_3_)" fill="#C1C1C1" d="M544.131,1618.934c0.006,5.059-4.012,9.166-8.971,9.17
					c-4.955,0.006-8.98-4.094-8.984-9.152c-0.002-5.064,4.012-9.17,8.973-9.176C540.105,1609.771,544.125,1613.873,544.131,1618.934
					"/>
				<path clip-path="url(#SVGID_3_)" fill="#C3C4C4" d="M543.914,1618.932c0.004,4.939-3.912,8.949-8.752,8.953
					s-8.766-3.998-8.77-8.936c-0.004-4.939,3.916-8.949,8.752-8.951C539.986,1609.992,543.91,1613.994,543.914,1618.932"/>
				<path clip-path="url(#SVGID_3_)" fill="#C5C6C6" d="M543.697,1618.934c0.004,4.816-3.816,8.727-8.535,8.73
					s-8.551-3.898-8.555-8.715c-0.004-4.818,3.822-8.729,8.539-8.732C539.865,1610.213,543.693,1614.115,543.697,1618.934"/>
				<path clip-path="url(#SVGID_3_)" fill="#C7C9C9" d="M543.482,1618.932c0.004,4.695-3.721,8.508-8.32,8.51
					c-4.6,0.006-8.332-3.799-8.336-8.492c-0.008-4.693,3.719-8.508,8.322-8.512C539.746,1610.432,543.479,1614.238,543.482,1618.932
					"/>
				<path clip-path="url(#SVGID_3_)" fill="#CACBCB" d="M543.268,1618.934c0.002,4.574-3.625,8.283-8.105,8.291
					c-4.48,0-8.115-3.707-8.121-8.273c-0.004-4.576,3.625-8.287,8.105-8.293C539.629,1610.654,543.262,1614.359,543.268,1618.934"/>
				<path clip-path="url(#SVGID_3_)" fill="#CCCECE" d="M543.051,1618.932c0.004,4.453-3.527,8.064-7.891,8.072
					c-4.361,0.002-7.9-3.605-7.902-8.057s3.529-8.066,7.891-8.068C539.51,1610.873,543.047,1614.48,543.051,1618.932"/>
				<path clip-path="url(#SVGID_3_)" fill="#CED0D0" d="M542.834,1618.936c0.004,4.326-3.432,7.842-7.674,7.848
					c-4.24,0.002-7.682-3.51-7.686-7.834c-0.004-4.33,3.43-7.846,7.672-7.848C539.387,1611.098,542.83,1614.605,542.834,1618.936"/>
				<path clip-path="url(#SVGID_3_)" fill="#D1D3D3" d="M542.617,1618.932c0.004,4.209-3.332,7.625-7.457,7.629
					c-4.117,0.002-7.467-3.406-7.471-7.613s3.336-7.623,7.457-7.625C539.271,1611.318,542.613,1614.725,542.617,1618.932"/>
				<path clip-path="url(#SVGID_3_)" fill="#D3D5D5" d="M542.402,1618.934c0.002,4.088-3.24,7.402-7.242,7.404
					c-4.002,0.006-7.25-3.305-7.252-7.391c-0.004-4.086,3.236-7.402,7.24-7.404C539.152,1611.539,542.398,1614.848,542.402,1618.934
					"/>
			</g>
		</g>
		<polygon fill="#5F5F5E" points="533.959,1624.584 533.953,1620.168 529.627,1620.172 529.625,1617.717 533.951,1617.717 
			533.947,1613.297 536.352,1613.295 536.352,1617.713 540.682,1617.709 540.684,1620.16 536.354,1620.166 536.359,1624.582 		"/>
		<path fill="#231815" d="M536.143,1613.506l0.002,3.996l0.002,0.424l0.418-0.002h3.91l0.002,2.023l-3.912,0.004l-0.418,0.002v0.424
			l0.006,3.994l-1.986,0.002l-0.004-3.994v-0.426l-0.418,0.002l-3.91,0.002v-2.023l3.91-0.006h0.416v-0.426l-0.004-3.992
			L536.143,1613.506z M536.561,1613.082l-2.822,0.004l0.006,4.416l-4.328,0.006l0.004,2.873l4.324-0.002l0.006,4.416h2.818
			l-0.002-4.42l4.324-0.002l-0.002-2.875h-4.328V1613.082z"/>
	</g>
</g>
<rect x="518.955" y="1640.092" fill="#D6D7D7" width="32.398" height="3.154"/>
<g>
	<ellipse fill="#CEE07D" cx="735.897" cy="1576.897" rx="5.005" ry="5.113"/>
</g>
<g>
	<path fill="#B2B2B2" d="M735.896,1582.477c-3.01,0-5.459-2.503-5.459-5.579c0-3.077,2.449-5.578,5.459-5.578
		c3.012,0,5.461,2.501,5.461,5.578C741.357,1579.974,738.908,1582.477,735.896,1582.477z M735.896,1572.247
		c-2.508,0-4.549,2.087-4.549,4.65c0,2.563,2.041,4.648,4.549,4.648c2.51,0,4.551-2.086,4.551-4.648
		C740.447,1574.334,738.406,1572.247,735.896,1572.247z"/>
</g>
<g>
	<g>
		<path fill="#606060" d="M745.877,1576.897c0-2.824,2.244-5.113,5.006-5.113c2.764,0,5.006,2.289,5.006,5.113
			s-2.242,5.114-5.006,5.114C748.121,1582.012,745.877,1579.722,745.877,1576.897z"/>
	</g>
	<g>
		<path fill="#B2B2B2" d="M750.883,1582.477c-3.01,0-5.459-2.503-5.459-5.579c0-3.077,2.449-5.578,5.459-5.578
			c3.012,0,5.461,2.501,5.461,5.578C756.344,1579.974,753.895,1582.477,750.883,1582.477z M750.883,1572.247
			c-2.508,0-4.549,2.087-4.549,4.65c0,2.563,2.041,4.648,4.549,4.648c2.512,0,4.551-2.086,4.551-4.648
			C755.434,1574.334,753.395,1572.247,750.883,1572.247z"/>
	</g>
</g>
<path fill="none" stroke="#888888" stroke-miterlimit="10" d="M709.184,1359.563"/>
<path fill="none" stroke="#888888" stroke-miterlimit="10" d="M709.184,1348.062"/>
<g>
	<g>
		<path fill="#606060" d="M733.541,1415.482c0-2.822,2.24-5.113,5.006-5.113c2.762,0,5.006,2.291,5.006,5.113
			c0,2.826-2.244,5.115-5.006,5.115C735.781,1420.598,733.541,1418.309,733.541,1415.482z"/>
	</g>
	<g>
		<path fill="#B2B2B2" d="M738.547,1421.063c-3.012,0-5.459-2.502-5.459-5.58c0-3.074,2.447-5.578,5.459-5.578
			c3.01,0,5.461,2.504,5.461,5.578C744.008,1418.561,741.557,1421.063,738.547,1421.063z M738.547,1410.834
			c-2.512,0-4.551,2.086-4.551,4.648c0,2.564,2.039,4.65,4.551,4.65c2.506,0,4.551-2.086,4.551-4.65
			C743.098,1412.92,741.053,1410.834,738.547,1410.834z"/>
	</g>
</g>
<g>
	<g>
		<path fill="#606060" d="M748.527,1415.482c0-2.822,2.242-5.113,5.004-5.113c2.766,0,5.008,2.291,5.008,5.113
			c0,2.826-2.242,5.115-5.008,5.115C750.77,1420.598,748.527,1418.309,748.527,1415.482z"/>
	</g>
	<g>
		<path fill="#B2B2B2" d="M753.531,1421.063c-3.01,0-5.459-2.502-5.459-5.58c0-3.074,2.449-5.578,5.459-5.578
			c3.012,0,5.461,2.504,5.461,5.578C758.992,1418.561,756.543,1421.063,753.531,1421.063z M753.531,1410.834
			c-2.508,0-4.547,2.086-4.547,4.648c0,2.564,2.039,4.65,4.547,4.65c2.512,0,4.553-2.086,4.553-4.65
			C758.084,1412.92,756.043,1410.834,753.531,1410.834z"/>
	</g>
</g>
<polyline fill="none" stroke="#888888" stroke-miterlimit="10" points="709.184,1439.439 709.184,1454.533 721.58,1454.531 "/>
<path fill="none" stroke="#888888" stroke-miterlimit="10" d="M731.393,1415.484h-19.926c0,0-2.609,1.865-2.283,5.578v6.875"/>
<polyline fill="none" stroke="#888888" stroke-miterlimit="10" points="709.184,1519.262 709.184,1537.91 721.58,1537.909 "/>
<path fill="none" stroke="#888888" stroke-miterlimit="10" d="M709.184,1467.236"/>
<path fill="none" stroke="#888888" stroke-miterlimit="10" d="M709.184,1451.563"/>
<path fill="none" stroke="#888888" stroke-miterlimit="10" d="M731.393,1483.239h-19.926c0,0-2.609,1.865-2.283,5.579v14.771"/>
<linearGradient id="SVGID_4_" gradientUnits="userSpaceOnUse" x1="743.3896" y1="1597.959" x2="743.3896" y2="1795.9897">
	<stop  offset="0" style="stop-color:#474747"/>
	<stop  offset="0.5269" style="stop-color:#312928"/>
	<stop  offset="1" style="stop-color:#000000"/>
</linearGradient>
<path fill="url(#SVGID_4_)" d="M759.59,1791.881c0,2.275-1.824,4.121-4.076,4.121h-24.248c-2.25,0-4.076-1.846-4.076-4.121v-191.688
	c0-2.277,1.826-4.122,4.076-4.122h24.248c2.252,0,4.076,1.845,4.076,4.122V1791.881z"/>
<g>
	<path fill="#E9E8E8" d="M734.07,1622.655c-4.627-5.26-4.199-13.354,0.947-18.078c5.146-4.723,13.068-4.291,17.691,0.967
		c4.625,5.263,4.197,13.355-0.947,18.08C746.613,1628.346,738.693,1627.913,734.07,1622.655z"/>
	<g>
		<path fill="#AFAFAF" d="M753.146,1614.092c0.004,5.497-4.363,9.962-9.75,9.968c-5.387,0.003-9.756-4.453-9.762-9.951
			c-0.004-5.498,4.359-9.962,9.746-9.967C748.768,1604.138,753.139,1608.591,753.146,1614.092"/>
		<path fill="none" stroke="#949394" stroke-miterlimit="10" d="M753.146,1614.092c0.004,5.497-4.363,9.962-9.75,9.968
			c-5.387,0.003-9.756-4.453-9.762-9.951c-0.004-5.498,4.359-9.962,9.746-9.967C748.768,1604.138,753.139,1608.591,753.146,1614.092
			z"/>
		<g>
			<g>
				<defs>
					
						<rect id="SVGID_5_" x="734.195" y="1604.713" transform="matrix(-1 9.557325e-004 -9.557325e-004 -1 1488.3235 3227.488)" width="18.391" height="18.773"/>
				</defs>
				<clipPath id="SVGID_6_">
					<use xlink:href="#SVGID_5_"  overflow="visible"/>
				</clipPath>
				<path clip-path="url(#SVGID_6_)" fill="#BFBFBF" d="M752.584,1614.092c0.002,5.183-4.107,9.388-9.188,9.392
					c-5.076,0.005-9.199-4.191-9.203-9.372c-0.002-5.186,4.109-9.392,9.189-9.397
					C748.459,1604.708,752.578,1608.909,752.584,1614.092"/>
				<path clip-path="url(#SVGID_6_)" fill="#C1C1C1" d="M752.365,1614.093c0.006,5.059-4.01,9.166-8.969,9.171
					c-4.955,0.005-8.98-4.094-8.984-9.153c-0.002-5.064,4.012-9.169,8.973-9.176C748.34,1604.931,752.359,1609.032,752.365,1614.093
					"/>
				<path clip-path="url(#SVGID_6_)" fill="#C3C4C4" d="M752.15,1614.092c0.004,4.938-3.914,8.948-8.754,8.952
					s-8.766-3.998-8.77-8.936c-0.004-4.939,3.918-8.948,8.754-8.951C748.221,1605.151,752.146,1609.153,752.15,1614.092"/>
				<path clip-path="url(#SVGID_6_)" fill="#C5C6C6" d="M751.934,1614.093c0.004,4.816-3.816,8.727-8.537,8.73
					c-4.719,0.004-8.551-3.898-8.553-8.715c-0.004-4.817,3.82-8.729,8.539-8.731C748.102,1605.373,751.93,1609.274,751.934,1614.093
					"/>
				<path clip-path="url(#SVGID_6_)" fill="#C7C9C9" d="M751.717,1614.092c0.006,4.695-3.721,8.508-8.32,8.509
					c-4.6,0.006-8.332-3.798-8.336-8.492c-0.006-4.693,3.721-8.508,8.324-8.512C747.982,1605.592,751.713,1609.398,751.717,1614.092
					"/>
				<path clip-path="url(#SVGID_6_)" fill="#CACBCB" d="M751.502,1614.093c0.004,4.574-3.625,8.283-8.105,8.291
					c-4.48,0-8.113-3.706-8.121-8.273c-0.004-4.576,3.627-8.287,8.107-8.293C747.863,1605.814,751.498,1609.519,751.502,1614.093"/>
				<path clip-path="url(#SVGID_6_)" fill="#CCCECE" d="M751.287,1614.092c0.004,4.452-3.527,8.064-7.893,8.071
					c-4.359,0.002-7.9-3.604-7.9-8.057c-0.002-4.451,3.527-8.066,7.891-8.067C747.746,1606.032,751.281,1609.641,751.287,1614.092"
					/>
				<path clip-path="url(#SVGID_6_)" fill="#CED0D0" d="M751.068,1614.095c0.004,4.326-3.432,7.842-7.672,7.848
					c-4.24,0.002-7.682-3.509-7.686-7.834c-0.006-4.33,3.43-7.845,7.672-7.848C747.623,1606.257,751.064,1609.765,751.068,1614.095"
					/>
				<path clip-path="url(#SVGID_6_)" fill="#D1D3D3" d="M750.854,1614.092c0.004,4.209-3.334,7.624-7.457,7.628
					c-4.119,0.002-7.467-3.405-7.471-7.613c-0.004-4.207,3.336-7.623,7.457-7.625
					C747.506,1606.478,750.85,1609.884,750.854,1614.092"/>
				<path clip-path="url(#SVGID_6_)" fill="#D3D5D5" d="M750.637,1614.093c0.002,4.088-3.238,7.402-7.24,7.404
					c-4.002,0.006-7.252-3.305-7.254-7.391c-0.004-4.086,3.236-7.402,7.242-7.404
					C747.387,1606.698,750.633,1610.007,750.637,1614.093"/>
			</g>
		</g>
		<polygon fill="#5F5F5E" points="742.193,1619.744 742.188,1615.327 737.861,1615.331 737.859,1612.876 742.188,1612.876 
			742.184,1608.456 744.586,1608.455 744.588,1612.872 748.916,1612.868 748.92,1615.32 744.59,1615.325 744.596,1619.741 		"/>
		<path fill="#231815" d="M744.379,1608.665v3.996l0.004,0.424l0.418-0.002h3.908l0.002,2.023l-3.912,0.005l-0.416,0.001v0.424
			l0.004,3.995l-1.986,0.002l-0.004-3.994v-0.427l-0.416,0.002l-3.91,0.002v-2.023l3.908-0.006l0.416,0.001v-0.426l-0.004-3.992
			L744.379,1608.665z M744.795,1608.242l-2.82,0.004l0.004,4.416l-4.328,0.005l0.006,2.874l4.324-0.002l0.006,4.416l2.818-0.001
			l-0.002-4.42l4.322-0.002l-0.002-2.875l-4.326,0.001L744.795,1608.242z"/>
	</g>
</g>
<rect x="727.189" y="1635.252" fill="#D6D7D7" width="32.4" height="3.154"/>
<g>
	<ellipse fill="#CEE07D" cx="714.375" cy="1585.518" rx="5.006" ry="5.113"/>
</g>
<g>
	<ellipse fill="#CEE07D" cx="714.375" cy="1652.186" rx="5.006" ry="5.113"/>
</g>
<g>
	<g>
		<rect x="44.551" y="37.023" fill="#0C141D" width="1186.488" height="504.045"/>
	</g>
	<g>
		<rect x="44.551" y="25.018" fill="#1F3250" width="1186.488" height="504.045"/>
	</g>
	<path fill="#3F4769" d="M44.551,25.018h1186.488v210.939c0,0-552.512,280.48-1186.488,0V25.018z"/>
	<polygon fill="#65769A" points="1229.037,275.003 879.555,359.617 879.555,24.018 1229.037,24.018 	"/>
	<polygon fill="#46526F" points="1231.039,275.003 881.557,359.617 881.557,24.018 1231.039,24.018 	"/>
	<polygon fill="#52617F" points="46.553,276.003 396.035,360.617 396.035,25.018 46.553,25.018 	"/>
	<polygon fill="#46526F" points="44.551,276.003 394.033,360.617 394.033,25.018 44.551,25.018 	"/>
	<path fill="#4E6994" d="M44.553,230.473c0,0,526.072,274.48,1186.486,0v60.997c0,0-603.508,233.482-1186.486,0V230.473z"/>
	<path fill="#576B85" d="M44.553,240.478c0,0,526.072,274.48,1186.486,0v60.997c0,0-603.508,233.482-1186.486,0V240.478z"/>
	<path fill="#142032" d="M44.553,239.477c0,0,526.072,274.48,1186.486,0v60.997c0,0-603.508,233.482-1186.486,0V239.477z"/>
	<path fill="#253859" d="M44.553,234.475c0,0,526.072,274.48,1186.486,0v60.997c0,0-603.508,233.482-1186.486,0V234.475z"/>
	<path fill="#7C8AAD" d="M856.213,120.901c0,12.15-9.85,22-22,22h-392c-12.15,0-22-9.85-22-22v-38c0-12.15,9.85-22,22-22h392
		c12.15,0,22,9.85,22,22V120.901z"/>
	<path fill="#3D4568" d="M856.213,115.898c0,12.15-9.85,22-22,22h-392c-12.15,0-22-9.85-22-22v-38c0-12.15,9.85-22,22-22h392
		c12.15,0,22,9.85,22,22V115.898z"/>
	<path fill="#3D4568" d="M856.213,115.898c0,12.15-9.85,22-22,22h-392c-12.15,0-22-9.85-22-22v-38c0-12.15,9.85-22,22-22h392
		c12.15,0,22,9.85,22,22V115.898z"/>
	<path fill="#797997" d="M420.213,74.564l23.164,29.333v29.333c0,0-1.332,4.667,2.668,4.667c0,0-25.832,4-25.832-22V74.564z"/>
	<rect x="443.377" y="103.898" fill="#535C79" width="388" height="34"/>
	<path fill="#2C334B" d="M443.377,103.898l-23.164-29.333c0,0,1.164-18.667,30.498-18.667h376c0,0,29.502-2.667,29.502,28.667
		v31.333c0,0-0.836,22-24.836,22v-34H443.377z"/>
	<path fill="#7C8AAD" d="M855.377,253.002c0,12.15-9.85,22-22,22h-392c-12.15,0-22-9.85-22-22v-38c0-12.15,9.85-22,22-22h392
		c12.15,0,22,9.85,22,22V253.002z"/>
	<path fill="#3D4568" d="M855.377,246.999c0,12.15-9.85,22-22,22h-392c-12.15,0-22-9.85-22-22v-38c0-12.15,9.85-22,22-22h392
		c12.15,0,22,9.85,22,22V246.999z"/>
	<path fill="#3D4568" d="M855.377,246.999c0,12.15-9.85,22-22,22h-392c-12.15,0-22-9.85-22-22v-38c0-12.15,9.85-22,22-22h392
		c12.15,0,22,9.85,22,22V246.999z"/>
	<path fill="#797997" d="M419.377,205.665l23.164,29.333v29.333c0,0-1.332,4.667,2.668,4.667c0,0-25.832,4-25.832-22V205.665z"/>
	<rect x="442.541" y="234.999" fill="#535C79" width="388" height="34"/>
	<path fill="#2C334B" d="M442.541,234.999l-23.164-29.333c0,0,1.164-18.667,30.498-18.667h376c0,0,29.502-2.667,29.502,28.667
		v31.333c0,0-0.836,22-24.836,22v-34H442.541z"/>
	<path fill="#7C8AAD" d="M854.541,391.152c0,12.15-9.85,22-22,22h-392c-12.15,0-22-9.85-22-22v-38c0-12.15,9.85-22,22-22h392
		c12.15,0,22,9.85,22,22V391.152z"/>
	<path fill="#3D4568" d="M854.541,385.148c0,12.15-9.85,22-22,22h-392c-12.15,0-22-9.85-22-22v-38c0-12.15,9.85-22,22-22h392
		c12.15,0,22,9.85,22,22V385.148z"/>
	<path fill="#3D4568" d="M854.541,385.148c0,12.15-9.85,22-22,22h-392c-12.15,0-22-9.85-22-22v-38c0-12.15,9.85-22,22-22h392
		c12.15,0,22,9.85,22,22V385.148z"/>
	<path fill="#797997" d="M418.541,343.814l23.164,29.333v29.333c0,0-1.332,4.667,2.668,4.667c0,0-25.832,4-25.832-22V343.814z"/>
	<rect x="441.705" y="373.148" fill="#535C79" width="388" height="34"/>
	<path fill="#2C334B" d="M441.705,373.148l-23.164-29.333c0,0,1.164-18.667,30.498-18.667h376c0,0,29.502-2.667,29.502,28.667
		v31.333c0,0-0.836,22-24.836,22v-34H441.705z"/>
	<rect x="303.512" y="464.742" fill="#4D6289" width="662" height="35.998"/>
	<rect x="303.512" y="458.74" fill="#10182A" width="662" height="35.997"/>
	<g>
		<g>
			<g>
				<ellipse fill="#7C8AAD" cx="946.054" cy="84.425" rx="21.669" ry="18.235"/>
				<ellipse fill="#1A1C2B" cx="946.054" cy="82.819" rx="21.669" ry="18.235"/>
			</g>
			<g>
				<ellipse fill="#7C8AAD" cx="1004.804" cy="87.229" rx="21.669" ry="18.235"/>
				<ellipse fill="#1A1C2B" cx="1004.804" cy="85.623" rx="21.669" ry="18.235"/>
			</g>
			<g>
				<ellipse fill="#7C8AAD" cx="1063.556" cy="89.033" rx="21.669" ry="18.235"/>
				<ellipse fill="#1A1C2B" cx="1063.556" cy="87.427" rx="21.669" ry="18.235"/>
			</g>
			<g>
				<ellipse fill="#7C8AAD" cx="1122.306" cy="90.837" rx="21.669" ry="18.235"/>
				<ellipse fill="#1A1C2B" cx="1122.306" cy="89.23" rx="21.669" ry="18.235"/>
			</g>
			<g>
				<ellipse fill="#7C8AAD" cx="1181.063" cy="92.641" rx="21.669" ry="18.235"/>
				<ellipse fill="#1A1C2B" cx="1181.063" cy="91.034" rx="21.669" ry="18.235"/>
			</g>
		</g>
		<g>
			<g>
				<ellipse fill="#7C8AAD" cx="916.056" cy="137.133" rx="21.669" ry="18.235"/>
				<ellipse fill="#1A1C2B" cx="916.056" cy="135.526" rx="21.669" ry="18.235"/>
			</g>
			<g>
				<ellipse fill="#7C8AAD" cx="974.806" cy="139.937" rx="21.669" ry="18.235"/>
				<ellipse fill="#1A1C2B" cx="974.806" cy="138.331" rx="21.669" ry="18.235"/>
			</g>
			<g>
				<ellipse fill="#7C8AAD" cx="1033.558" cy="141.741" rx="21.669" ry="18.235"/>
				<ellipse fill="#1A1C2B" cx="1033.558" cy="140.134" rx="21.669" ry="18.235"/>
			</g>
			<g>
				<ellipse fill="#7C8AAD" cx="1092.308" cy="143.544" rx="21.669" ry="18.235"/>
				<ellipse fill="#1A1C2B" cx="1092.308" cy="141.938" rx="21.669" ry="18.235"/>
			</g>
			<g>
				<ellipse fill="#7C8AAD" cx="1151.065" cy="145.348" rx="21.669" ry="18.235"/>
				<ellipse fill="#1A1C2B" cx="1151.065" cy="143.742" rx="21.669" ry="18.235"/>
			</g>
		</g>
		<g>
			<ellipse fill="#7C8AAD" cx="916.052" cy="242.548" rx="21.669" ry="18.235"/>
			<ellipse fill="#1A1C2B" cx="916.052" cy="240.942" rx="21.669" ry="18.235"/>
		</g>
		<g>
			<ellipse fill="#7C8AAD" cx="974.802" cy="245.353" rx="21.669" ry="18.235"/>
			<ellipse fill="#1A1C2B" cx="974.802" cy="243.746" rx="21.669" ry="18.235"/>
		</g>
		<g>
			<ellipse fill="#7C8AAD" cx="946.05" cy="189.84" rx="21.669" ry="18.235"/>
			<ellipse fill="#1A1C2B" cx="946.05" cy="188.234" rx="21.669" ry="18.235"/>
		</g>
		<g>
			<ellipse fill="#7C8AAD" cx="1004.8" cy="192.645" rx="21.669" ry="18.235"/>
			<ellipse fill="#1A1C2B" cx="1004.8" cy="191.038" rx="21.669" ry="18.235"/>
		</g>
		<g>
			<ellipse fill="#7C8AAD" cx="1063.552" cy="194.448" rx="21.669" ry="18.235"/>
			<ellipse fill="#1A1C2B" cx="1063.552" cy="192.842" rx="21.669" ry="18.235"/>
		</g>
	</g>
	<g>
		<g>
			<g>
				<ellipse fill="#7C8AAD" cx="323.581" cy="84.425" rx="21.669" ry="18.235"/>
				<ellipse fill="#1A1C2B" cx="323.581" cy="82.819" rx="21.669" ry="18.235"/>
			</g>
			<g>
				<ellipse fill="#7C8AAD" cx="264.829" cy="87.229" rx="21.669" ry="18.235"/>
				<ellipse fill="#1A1C2B" cx="264.829" cy="85.623" rx="21.669" ry="18.235"/>
			</g>
			<g>
				<ellipse fill="#7C8AAD" cx="206.079" cy="89.033" rx="21.669" ry="18.235"/>
				<ellipse fill="#1A1C2B" cx="206.079" cy="87.427" rx="21.669" ry="18.235"/>
			</g>
			<g>
				<ellipse fill="#7C8AAD" cx="147.327" cy="90.837" rx="21.669" ry="18.235"/>
				<ellipse fill="#1A1C2B" cx="147.327" cy="89.23" rx="21.669" ry="18.235"/>
			</g>
			<g>
				<ellipse fill="#7C8AAD" cx="88.569" cy="92.641" rx="21.669" ry="18.235"/>
				<ellipse fill="#1A1C2B" cx="88.569" cy="91.034" rx="21.669" ry="18.235"/>
			</g>
		</g>
		<g>
			<g>
				<ellipse fill="#7C8AAD" cx="353.579" cy="137.133" rx="21.669" ry="18.235"/>
				<ellipse fill="#1A1C2B" cx="353.579" cy="135.526" rx="21.669" ry="18.235"/>
			</g>
			<g>
				<ellipse fill="#7C8AAD" cx="294.827" cy="139.937" rx="21.669" ry="18.235"/>
				<ellipse fill="#1A1C2B" cx="294.827" cy="138.331" rx="21.669" ry="18.235"/>
			</g>
			<g>
				<ellipse fill="#7C8AAD" cx="236.077" cy="141.741" rx="21.669" ry="18.235"/>
				<ellipse fill="#1A1C2B" cx="236.077" cy="140.134" rx="21.669" ry="18.235"/>
			</g>
			<g>
				<ellipse fill="#7C8AAD" cx="177.325" cy="143.544" rx="21.669" ry="18.235"/>
				<ellipse fill="#1A1C2B" cx="177.325" cy="141.938" rx="21.669" ry="18.235"/>
			</g>
			<g>
				<ellipse fill="#7C8AAD" cx="118.567" cy="145.348" rx="21.669" ry="18.235"/>
				<ellipse fill="#1A1C2B" cx="118.567" cy="143.742" rx="21.669" ry="18.235"/>
			</g>
		</g>
		<g>
			<ellipse fill="#7C8AAD" cx="353.583" cy="242.548" rx="21.669" ry="18.235"/>
			<ellipse fill="#1A1C2B" cx="353.583" cy="240.942" rx="21.669" ry="18.235"/>
		</g>
		<g>
			<ellipse fill="#7C8AAD" cx="294.831" cy="245.353" rx="21.669" ry="18.235"/>
			<ellipse fill="#1A1C2B" cx="294.831" cy="243.746" rx="21.669" ry="18.235"/>
		</g>
		<g>
			<ellipse fill="#7C8AAD" cx="323.585" cy="189.84" rx="21.669" ry="18.235"/>
			<ellipse fill="#1A1C2B" cx="323.585" cy="188.234" rx="21.669" ry="18.235"/>
		</g>
		<g>
			<ellipse fill="#7C8AAD" cx="264.833" cy="192.645" rx="21.669" ry="18.235"/>
			<ellipse fill="#1A1C2B" cx="264.833" cy="191.038" rx="21.669" ry="18.235"/>
		</g>
		<g>
			<ellipse fill="#7C8AAD" cx="206.083" cy="194.448" rx="21.669" ry="18.235"/>
			<ellipse fill="#1A1C2B" cx="206.083" cy="192.842" rx="21.669" ry="18.235"/>
		</g>
	</g>
	
		<text transform="matrix(1 0 0 1 554.5249 443.4692)" fill="#AFAFAF" font-family="'NotoSansHans-Bold-GBpc-EUC-H'" font-size="15.2746">FAN RUN        FAN ALM</text>
	<g>
		<g>
			<path fill="#A3A3A3" d="M1008.189,47.678h6.678v-5.337h3v13.168h-3v-5.503h-6.678v5.503h-2.998V42.341h2.998V47.678z"/>
			<path fill="#A3A3A3" d="M1023.305,50.228c0,2.331,0.738,3.3,3.217,3.3s3.193-0.969,3.193-3.3v-7.887h3.006V50.3
				c0,1.683-0.205,2.838-0.838,3.54c-1.172,1.281-2.883,1.814-5.361,1.814s-4.207-0.534-5.381-1.814
				c-0.652-0.715-0.813-1.87-0.813-3.54v-7.959h2.977V50.228z"/>
			<path fill="#A3A3A3" d="M1042.514,42.341l6.074,13.168h-3.336l-1.311-3.132h-6.193l-1.266,3.132h-3.18l6.035-13.168H1042.514z
				 M1038.719,50.026h4.25l-2.156-5.062L1038.719,50.026z"/>
			<path fill="#A3A3A3" d="M1049.951,42.341l3.295,10.125l2.781-10.125h3.535l3.191,10.125l3.082-10.125h3.072l-4.406,13.168h-3.668
				l-3.043-9.83l-2.656,9.83h-3.652l-4.748-13.168H1049.951z"/>
			<path fill="#A3A3A3" d="M1072.949,47.698h8.297v2.292h-8.314c0.018,2.365,1.029,3.225,3.391,3.225h4.924v2.295h-5.064
				c-1.723,0-3.053-0.132-4.443-1.156c-1.467-1.083-2.182-2.806-2.182-5.187c0-4.66,2.121-6.826,6.709-6.826h4.98v2.294h-4.924
				C1074.158,44.635,1073.066,45.624,1072.949,47.698z"/>
			<path fill="#A3A3A3" d="M1083.887,55.509V42.341h3.139v13.168H1083.887z"/>
		</g>
		<g>
			<path fill="#A3A3A3" d="M978.191,55.266c0,0,0.057-0.044,0.023-0.123h0.002c-3.852-8.414-9.123-14.795-9.123-14.795
				s-2.869,2.722-2.662,5.447c0.107,2.066,1.66,3.285,1.66,3.285c2.502,2.435,8.553,5.514,9.961,6.208
				C978.072,55.297,978.146,55.319,978.191,55.266z"/>
			<path fill="#A3A3A3" d="M977.254,57.352c-0.027-0.089-0.133-0.089-0.133-0.089v-0.003l-10.074,0.349
				c1.09,1.949,2.932,3.462,4.848,2.999c1.326-0.333,4.322-2.421,5.309-3.13l0,0C977.279,57.408,977.254,57.352,977.254,57.352z"/>
			<path fill="#A3A3A3" d="M977.404,56.444c0.051-0.078-0.037-0.147-0.037-0.147l0,0c-4.424-2.987-13.006-7.571-13.006-7.571
				c-0.781,2.414,0.273,4.357,0.273,4.357c1.09,2.314,3.178,3.013,3.178,3.013c0.967,0.396,1.93,0.421,1.93,0.421
				c0.152,0.031,5.994,0.005,7.561-0.002C977.367,56.511,977.404,56.444,977.404,56.444z"/>
			<path fill="#A3A3A3" d="M978.072,35.996c-0.438,0.039-1.621,0.309-1.621,0.309c-2.67,0.687-3.301,3.11-3.301,3.11
				c-0.484,1.524,0.018,3.197,0.018,3.197c0.887,3.949,5.271,10.446,6.211,11.808c0.066,0.067,0.121,0.042,0.121,0.042
				c0.1-0.028,0.094-0.125,0.094-0.125v0.002C981.045,39.839,978.072,35.996,978.072,35.996z"/>
			<path fill="#A3A3A3" d="M981.408,54.459c0.094,0.036,0.148-0.056,0.148-0.056l0,0c0.967-1.399,5.324-7.855,6.211-11.792
				c0,0,0.484-1.907,0.018-3.197c0,0-0.66-2.459-3.334-3.11c0,0-0.771-0.192-1.586-0.309c0,0-2.986,3.843-1.533,18.352l0,0
				C981.342,54.439,981.408,54.459,981.408,54.459z"/>
			<path fill="#A3A3A3" d="M983.797,57.268c0,0-0.088,0.011-0.117,0.078c0,0-0.018,0.086,0.041,0.134l0,0
				c0.965,0.695,3.887,2.738,5.297,3.135c0,0,2.605,0.885,4.869-3l-10.09-0.35V57.268z"/>
			<path fill="#A3A3A3" d="M996.57,48.703c0,0-8.568,4.598-12.998,7.584l0,0c0,0-0.078,0.054-0.051,0.148
				c0,0,0.043,0.075,0.104,0.075l0,0c1.584,0.006,7.59,0.011,7.744-0.017c0,0,0.773-0.03,1.732-0.398c0,0,2.135-0.679,3.246-3.102
				C996.348,52.994,997.334,51.011,996.57,48.703z"/>
			<path fill="#A3A3A3" d="M982.762,55.266c0,0,0.074,0.054,0.137,0.011l0,0c1.445-0.717,7.455-3.774,9.943-6.197
				c0,0,1.574-1.264,1.656-3.296c0.182-2.823-2.66-5.436-2.66-5.436s-5.254,6.359-9.104,14.756h0.004
				C982.738,55.104,982.693,55.205,982.762,55.266z"/>
		</g>
	</g>
</g>
<g>
	<rect x="44.551" y="2117.551" fill="#0C141D" width="1186.488" height="504.045"/>
</g>
<g>
	<rect x="44.551" y="2129.557" fill="#1F3250" width="1186.488" height="504.045"/>
</g>
<path fill="#3F4769" d="M1231.039,2633.602H44.553v-210.939c0,0,552.512-280.48,1186.486,0V2633.602z"/>
<polygon fill="#65769A" points="46.553,2383.615 396.035,2299.002 396.035,2634.602 46.553,2634.602 "/>
<polygon fill="#46526F" points="44.551,2383.615 394.033,2299.002 394.033,2634.602 44.551,2634.602 "/>
<polygon fill="#52617F" points="1229.037,2382.616 879.555,2298.002 879.555,2633.602 1229.037,2633.602 "/>
<polygon fill="#46526F" points="1231.039,2382.616 881.557,2298.002 881.557,2633.602 1231.039,2633.602 "/>
<path fill="#4E6994" d="M1231.039,2428.146c0,0-526.072-274.48-1186.488,0v-60.997c0,0,603.508-233.482,1186.488,0.001V2428.146z"/>
<path fill="#576B85" d="M1231.039,2418.142c0,0-526.072-274.48-1186.488-0.001v-60.996c0,0,603.508-233.482,1186.488,0V2418.142z"/>
<path fill="#142032" d="M1231.039,2419.143c0,0-526.072-274.48-1186.488-0.001v-60.997c0,0,603.508-233.482,1186.488,0.001V2419.143
	z"/>
<path fill="#253859" d="M1231.039,2424.145c0,0-526.072-274.48-1186.488,0v-60.997c0,0,603.508-233.482,1186.488,0.001V2424.145z"/>
<path fill="#7C8AAD" d="M419.377,2537.717c0-12.149,9.85-22,22-22h392c12.15,0,22,9.851,22,22v38c0,12.15-9.85,22-22,22h-392
	c-12.15,0-22-9.85-22-22V2537.717z"/>
<path fill="#3D4568" d="M419.377,2542.721c0-12.15,9.85-22,22-22h392c12.15,0,22,9.85,22,22v38c0,12.15-9.85,22-22,22h-392
	c-12.15,0-22-9.85-22-22V2542.721z"/>
<path fill="#3D4568" d="M419.377,2542.721c0-12.15,9.85-22,22-22h392c12.15,0,22,9.85,22,22v38c0,12.15-9.85,22-22,22h-392
	c-12.15,0-22-9.85-22-22V2542.721z"/>
<path fill="#797997" d="M855.377,2584.055l-23.164-29.334v-29.334c0,0,1.334-4.666-2.666-4.666c0,0,25.83-4,25.83,22V2584.055z"/>
<rect x="444.213" y="2520.721" fill="#535C79" width="388" height="34"/>
<path fill="#2C334B" d="M832.213,2554.721l23.164,29.334c0,0-1.162,18.666-30.496,18.666h-376c0,0-29.504,2.666-29.504-28.666
	v-31.334c0,0,0.836-22,24.836-22v34H832.213z"/>
<path fill="#7C8AAD" d="M420.213,2405.616c0-12.149,9.85-22,22-22h392c12.15,0,22,9.851,22,22v38c0,12.15-9.85,22-22,22h-392
	c-12.15,0-22-9.85-22-22V2405.616z"/>
<path fill="#3D4568" d="M420.213,2411.62c0-12.149,9.85-22,22-22h392c12.15,0,22,9.851,22,22v38c0,12.149-9.85,22-22,22h-392
	c-12.15,0-22-9.851-22-22V2411.62z"/>
<path fill="#3D4568" d="M420.213,2411.62c0-12.149,9.85-22,22-22h392c12.15,0,22,9.851,22,22v38c0,12.149-9.85,22-22,22h-392
	c-12.15,0-22-9.851-22-22V2411.62z"/>
<path fill="#797997" d="M856.213,2452.953l-23.164-29.333v-29.333c0,0,1.334-4.667-2.666-4.667c0,0,25.83-4,25.83,22V2452.953z"/>
<rect x="445.049" y="2389.62" fill="#535C79" width="388" height="34"/>
<path fill="#2C334B" d="M833.049,2423.62l23.164,29.333c0,0-1.162,18.667-30.496,18.667h-376c0,0-29.504,2.667-29.504-28.667
	v-31.333c0,0,0.836-22,24.836-22v34H833.049z"/>
<rect x="310.078" y="2157.879" fill="#4D6289" width="662" height="35.998"/>
<rect x="310.078" y="2163.882" fill="#10182A" width="662" height="35.997"/>
<g>
	<g>
		<g>
			<ellipse fill="#7C8AAD" cx="329.538" cy="2574.193" rx="21.669" ry="18.234"/>
			<ellipse fill="#1A1C2B" cx="329.538" cy="2575.8" rx="21.669" ry="18.235"/>
		</g>
		<g>
			<ellipse fill="#7C8AAD" cx="270.786" cy="2571.389" rx="21.669" ry="18.234"/>
			<ellipse fill="#1A1C2B" cx="270.786" cy="2572.996" rx="21.669" ry="18.236"/>
		</g>
		<g>
			<ellipse fill="#7C8AAD" cx="212.036" cy="2569.586" rx="21.669" ry="18.235"/>
			<ellipse fill="#1A1C2B" cx="212.036" cy="2571.191" rx="21.669" ry="18.234"/>
		</g>
		<g>
			<ellipse fill="#7C8AAD" cx="153.284" cy="2567.781" rx="21.669" ry="18.234"/>
			<ellipse fill="#1A1C2B" cx="153.284" cy="2569.389" rx="21.669" ry="18.236"/>
		</g>
		<g>
			<ellipse fill="#7C8AAD" cx="94.526" cy="2565.979" rx="21.669" ry="18.235"/>
			<ellipse fill="#1A1C2B" cx="94.526" cy="2567.584" rx="21.669" ry="18.234"/>
		</g>
	</g>
	<g>
		<g>
			<ellipse fill="#7C8AAD" cx="359.536" cy="2521.486" rx="21.669" ry="18.235"/>
			<ellipse fill="#1A1C2B" cx="359.536" cy="2523.092" rx="21.669" ry="18.234"/>
		</g>
		<g>
			<ellipse fill="#7C8AAD" cx="300.784" cy="2518.682" rx="21.669" ry="18.234"/>
			<ellipse fill="#1A1C2B" cx="300.784" cy="2520.288" rx="21.669" ry="18.235"/>
		</g>
		<g>
			<ellipse fill="#7C8AAD" cx="242.034" cy="2516.878" rx="21.669" ry="18.235"/>
			<ellipse fill="#1A1C2B" cx="242.034" cy="2518.484" rx="21.669" ry="18.235"/>
		</g>
		<g>
			<ellipse fill="#7C8AAD" cx="183.282" cy="2515.074" rx="21.669" ry="18.234"/>
			<ellipse fill="#1A1C2B" cx="183.282" cy="2516.681" rx="21.669" ry="18.235"/>
		</g>
		<g>
			<ellipse fill="#7C8AAD" cx="124.524" cy="2513.271" rx="21.669" ry="18.235"/>
			<ellipse fill="#1A1C2B" cx="124.524" cy="2514.877" rx="21.669" ry="18.235"/>
		</g>
	</g>
	<g>
		<ellipse fill="#7C8AAD" cx="359.54" cy="2416.07" rx="21.669" ry="18.234"/>
		<ellipse fill="#1A1C2B" cx="359.54" cy="2417.677" rx="21.669" ry="18.235"/>
	</g>
	<g>
		<ellipse fill="#7C8AAD" cx="300.788" cy="2413.266" rx="21.669" ry="18.234"/>
		<ellipse fill="#1A1C2B" cx="300.788" cy="2414.873" rx="21.669" ry="18.236"/>
	</g>
	<g>
		<ellipse fill="#7C8AAD" cx="329.542" cy="2468.778" rx="21.669" ry="18.235"/>
		<ellipse fill="#1A1C2B" cx="329.542" cy="2470.385" rx="21.669" ry="18.235"/>
	</g>
	<g>
		<ellipse fill="#7C8AAD" cx="270.79" cy="2465.975" rx="21.669" ry="18.235"/>
		<ellipse fill="#1A1C2B" cx="270.79" cy="2467.58" rx="21.669" ry="18.234"/>
	</g>
	<g>
		<ellipse fill="#7C8AAD" cx="212.04" cy="2464.17" rx="21.669" ry="18.234"/>
		<ellipse fill="#1A1C2B" cx="212.04" cy="2465.777" rx="21.669" ry="18.236"/>
	</g>
</g>
<g>
	<g>
		<g>
			<ellipse fill="#7C8AAD" cx="952.011" cy="2574.193" rx="21.669" ry="18.234"/>
			<ellipse fill="#1A1C2B" cx="952.011" cy="2575.8" rx="21.669" ry="18.235"/>
		</g>
		<g>
			<ellipse fill="#7C8AAD" cx="1010.761" cy="2571.389" rx="21.669" ry="18.234"/>
			<ellipse fill="#1A1C2B" cx="1010.761" cy="2572.996" rx="21.669" ry="18.236"/>
		</g>
		<g>
			<ellipse fill="#7C8AAD" cx="1069.513" cy="2569.586" rx="21.669" ry="18.235"/>
			<ellipse fill="#1A1C2B" cx="1069.513" cy="2571.192" rx="21.669" ry="18.235"/>
		</g>
		<g>
			<ellipse fill="#7C8AAD" cx="1128.263" cy="2567.782" rx="21.669" ry="18.235"/>
			<ellipse fill="#1A1C2B" cx="1128.263" cy="2569.389" rx="21.669" ry="18.235"/>
		</g>
		<g>
			<ellipse fill="#7C8AAD" cx="1187.021" cy="2565.979" rx="21.669" ry="18.234"/>
			<ellipse fill="#1A1C2B" cx="1187.021" cy="2567.585" rx="21.669" ry="18.235"/>
		</g>
	</g>
	<g>
		<g>
			<ellipse fill="#7C8AAD" cx="922.013" cy="2521.486" rx="21.669" ry="18.235"/>
			<ellipse fill="#1A1C2B" cx="922.013" cy="2523.092" rx="21.669" ry="18.234"/>
		</g>
		<g>
			<ellipse fill="#7C8AAD" cx="980.763" cy="2518.682" rx="21.669" ry="18.234"/>
			<ellipse fill="#1A1C2B" cx="980.763" cy="2520.288" rx="21.669" ry="18.235"/>
		</g>
		<g>
			<ellipse fill="#7C8AAD" cx="1039.515" cy="2516.878" rx="21.669" ry="18.235"/>
			<ellipse fill="#1A1C2B" cx="1039.515" cy="2518.484" rx="21.669" ry="18.235"/>
		</g>
		<g>
			<ellipse fill="#7C8AAD" cx="1098.265" cy="2515.074" rx="21.669" ry="18.234"/>
			<ellipse fill="#1A1C2B" cx="1098.265" cy="2516.681" rx="21.669" ry="18.236"/>
		</g>
		<g>
			<ellipse fill="#7C8AAD" cx="1157.022" cy="2513.271" rx="21.669" ry="18.235"/>
			<ellipse fill="#1A1C2B" cx="1157.022" cy="2514.877" rx="21.669" ry="18.234"/>
		</g>
	</g>
	<g>
		<ellipse fill="#7C8AAD" cx="922.009" cy="2416.07" rx="21.669" ry="18.234"/>
		<ellipse fill="#1A1C2B" cx="922.009" cy="2417.677" rx="21.669" ry="18.235"/>
	</g>
	<g>
		<ellipse fill="#7C8AAD" cx="980.759" cy="2413.266" rx="21.669" ry="18.234"/>
		<ellipse fill="#1A1C2B" cx="980.759" cy="2414.873" rx="21.669" ry="18.236"/>
	</g>
	<g>
		<ellipse fill="#7C8AAD" cx="952.007" cy="2468.778" rx="21.669" ry="18.235"/>
		<ellipse fill="#1A1C2B" cx="952.007" cy="2470.385" rx="21.669" ry="18.235"/>
	</g>
	<g>
		<ellipse fill="#7C8AAD" cx="1010.757" cy="2465.975" rx="21.669" ry="18.235"/>
		<ellipse fill="#1A1C2B" cx="1010.757" cy="2467.58" rx="21.669" ry="18.234"/>
	</g>
	<g>
		<ellipse fill="#7C8AAD" cx="1069.509" cy="2464.17" rx="21.669" ry="18.235"/>
		<ellipse fill="#1A1C2B" cx="1069.509" cy="2465.777" rx="21.669" ry="18.236"/>
	</g>
</g>
<text transform="matrix(-1 0 0 -1 721.0625 2215.1602)" fill="#AFAFAF" font-family="'NotoSansHans-Bold-GBpc-EUC-H'" font-size="15.2746">FAN RUN        FAN ALM</text>
<g>
	<g>
		<path fill="#A3A3A3" d="M267.4,2610.94h-6.678v5.337h-2.998v-13.168h2.998v5.503h6.678v-5.503h3v13.168h-3V2610.94z"/>
		<path fill="#A3A3A3" d="M252.285,2608.391c0-2.33-0.736-3.299-3.215-3.299s-3.193,0.969-3.193,3.299v7.887h-3.006v-7.959
			c0-1.683,0.205-2.838,0.836-3.539c1.174-1.281,2.885-1.814,5.363-1.814s4.207,0.533,5.379,1.814
			c0.652,0.715,0.813,1.869,0.813,3.539v7.959h-2.977V2608.391z"/>
		<path fill="#A3A3A3" d="M233.078,2616.277l-6.076-13.168h3.338l1.311,3.133h6.193l1.266-3.133h3.178l-6.033,13.168H233.078z
			 M236.871,2608.592h-4.25l2.158,5.063L236.871,2608.592z"/>
		<path fill="#A3A3A3" d="M225.641,2616.277l-3.297-10.125l-2.779,10.125h-3.535l-3.191-10.125l-3.082,10.125h-3.074l4.406-13.168
			h3.67l3.041,9.83l2.658-9.83h3.652l4.746,13.168H225.641z"/>
		<path fill="#A3A3A3" d="M202.643,2610.92h-8.297v-2.291h8.314c-0.018-2.365-1.029-3.225-3.393-3.225h-4.922v-2.295h5.063
			c1.725,0,3.053,0.132,4.445,1.156c1.467,1.082,2.182,2.806,2.182,5.186c0,4.66-2.123,6.826-6.709,6.826h-4.98v-2.294h4.922
			C201.432,2613.983,202.523,2612.995,202.643,2610.92z"/>
		<path fill="#A3A3A3" d="M191.703,2603.109v13.168h-3.137v-13.168H191.703z"/>
	</g>
	<g>
		<path fill="#A3A3A3" d="M297.4,2603.354c0,0-0.059,0.044-0.025,0.122h-0.002c3.854,8.414,9.123,14.796,9.123,14.796
			s2.869-2.723,2.662-5.447c-0.107-2.066-1.658-3.285-1.658-3.285c-2.502-2.435-8.555-5.514-9.961-6.209
			C297.52,2603.322,297.445,2603.299,297.4,2603.354z"/>
		<path fill="#A3A3A3" d="M298.336,2601.268c0.029,0.089,0.135,0.089,0.135,0.089v0.003l10.074-0.35
			c-1.09-1.948-2.934-3.461-4.85-2.998c-1.326,0.333-4.32,2.421-5.309,3.131l0,0
			C298.311,2601.211,298.336,2601.268,298.336,2601.268z"/>
		<path fill="#A3A3A3" d="M298.186,2602.175c-0.051,0.078,0.039,0.147,0.039,0.147l0,0c4.424,2.986,13.004,7.57,13.004,7.57
			c0.781-2.414-0.271-4.357-0.271-4.357c-1.09-2.314-3.18-3.012-3.18-3.012c-0.967-0.396-1.928-0.422-1.928-0.422
			c-0.152-0.031-5.994-0.005-7.561,0.003C298.225,2602.107,298.186,2602.175,298.186,2602.175z"/>
		<path fill="#A3A3A3" d="M297.52,2622.623c0.438-0.039,1.621-0.31,1.621-0.31c2.668-0.687,3.301-3.11,3.301-3.11
			c0.484-1.523-0.018-3.197-0.018-3.197c-0.887-3.949-5.271-10.445-6.211-11.808c-0.068-0.067-0.121-0.042-0.121-0.042
			c-0.102,0.028-0.094,0.125-0.094,0.125v-0.002C294.547,2618.779,297.52,2622.623,297.52,2622.623z"/>
		<path fill="#A3A3A3" d="M294.182,2604.159c-0.094-0.036-0.146,0.056-0.146,0.056l0,0c-0.967,1.398-5.324,7.855-6.211,11.791
			c0,0-0.484,1.908-0.018,3.197c0,0,0.658,2.459,3.334,3.11c0,0,0.77,0.192,1.586,0.31c0,0,2.984-3.844,1.531-18.353l0,0
			C294.25,2604.18,294.182,2604.159,294.182,2604.159z"/>
		<path fill="#A3A3A3" d="M291.795,2601.351c0,0,0.086-0.011,0.115-0.078c0,0,0.018-0.086-0.039-0.134l0,0
			c-0.965-0.695-3.889-2.738-5.297-3.135c0,0-2.607-0.885-4.869,3l10.09,0.35V2601.351z"/>
		<path fill="#A3A3A3" d="M279.02,2609.916c0,0,8.57-4.598,12.998-7.585l0,0c0,0,0.078-0.054,0.053-0.148
			c0,0-0.043-0.075-0.104-0.075l0,0c-1.586-0.006-7.592-0.011-7.746,0.018c0,0-0.771,0.029-1.732,0.398c0,0-2.135,0.679-3.244,3.102
			C279.244,2605.625,278.256,2607.607,279.02,2609.916z"/>
		<path fill="#A3A3A3" d="M292.828,2603.354c0,0-0.072-0.055-0.135-0.012l0,0c-1.445,0.717-7.455,3.773-9.943,6.197
			c0,0-1.574,1.264-1.656,3.297c-0.182,2.822,2.658,5.436,2.658,5.436s5.256-6.359,9.104-14.757h-0.002
			C292.854,2603.515,292.898,2603.414,292.828,2603.354z"/>
	</g>
</g>
<rect x="44.551" y="594.982" fill="#434244" width="1187.021" height="146.967"/>
<rect x="29.783" y="25.018" fill="#2F3030" width="14.768" height="2609.587"/>
<rect x="1231.039" y="24.018" fill="#2F3030" width="14.768" height="2609.587"/>
<g>
	<rect y="544.073" fill="#8E8E8E" width="1275.592" height="38.904"/>
	<rect y="556.079" fill="#343535" width="1275.592" height="38.904"/>
	<rect y="549.075" fill="#545656" width="1275.592" height="38.904"/>
</g>
<g>
	<defs>
		<circle id="SVGID_7_" cx="66.9" cy="691.132" r="22.666"/>
	</defs>
	<clipPath id="SVGID_8_">
		<use xlink:href="#SVGID_7_"  overflow="visible"/>
	</clipPath>
	<g transform="matrix(1 -3.725290e-009 0 1 0 0)" clip-path="url(#SVGID_8_)">
		
			<image overflow="visible" width="3024" height="4032" xlink:href="E:\2017年工作.wang\7月\3号\宁波质量监督局\N11-4正.jpg"  transform="matrix(0.6392 0.0235 -0.022 0.6821 -820.2085 -43.3853)">
		</image>
	</g>
</g>
<g>
	<defs>
		<circle id="SVGID_9_" cx="184.409" cy="691.132" r="22.667"/>
	</defs>
	<clipPath id="SVGID_10_">
		<use xlink:href="#SVGID_9_"  overflow="visible"/>
	</clipPath>
	<g transform="matrix(1 -3.725290e-009 0 1 6.103516e-005 3.814697e-006)" clip-path="url(#SVGID_10_)">
		
			<image overflow="visible" width="3024" height="4032" xlink:href="E:\2017年工作.wang\7月\3号\宁波质量监督局\N11-4正.jpg"  transform="matrix(0.6392 0.0235 -0.022 0.6821 -702.7007 -43.3853)">
		</image>
	</g>
</g>
<g>
	<defs>
		<circle id="SVGID_11_" cx="301.918" cy="691.132" r="22.666"/>
	</defs>
	<clipPath id="SVGID_12_">
		<use xlink:href="#SVGID_11_"  overflow="visible"/>
	</clipPath>
	<g transform="matrix(1 -3.725290e-009 0 1 0 0)" clip-path="url(#SVGID_12_)">
		
			<image overflow="visible" width="3024" height="4032" xlink:href="E:\2017年工作.wang\7月\3号\宁波质量监督局\N11-4正.jpg"  transform="matrix(0.6392 0.0235 -0.022 0.6821 -585.1909 -43.3853)">
		</image>
	</g>
</g>
<g>
	<defs>
		<circle id="SVGID_13_" cx="419.427" cy="691.132" r="22.667"/>
	</defs>
	<clipPath id="SVGID_14_">
		<use xlink:href="#SVGID_13_"  overflow="visible"/>
	</clipPath>
	<g transform="matrix(1 -3.725290e-009 0 1 -3.051758e-005 0)" clip-path="url(#SVGID_14_)">
		
			<image overflow="visible" width="3024" height="4032" xlink:href="E:\2017年工作.wang\7月\3号\宁波质量监督局\N11-4正.jpg"  transform="matrix(0.6392 0.0235 -0.022 0.6821 -467.6831 -43.3853)">
		</image>
	</g>
</g>
<g>
	<defs>
		<circle id="SVGID_15_" cx="536.936" cy="691.132" r="22.666"/>
	</defs>
	<clipPath id="SVGID_16_">
		<use xlink:href="#SVGID_15_"  overflow="visible"/>
	</clipPath>
	<g transform="matrix(1 -3.725290e-009 0 1 0 0)" clip-path="url(#SVGID_16_)">
		
			<image overflow="visible" width="3024" height="4032" xlink:href="E:\2017年工作.wang\7月\3号\宁波质量监督局\N11-4正.jpg"  transform="matrix(0.6392 0.0235 -0.022 0.6821 -350.1733 -43.3853)">
		</image>
	</g>
</g>
<g>
	<defs>
		<circle id="SVGID_17_" cx="654.444" cy="691.132" r="22.667"/>
	</defs>
	<clipPath id="SVGID_18_">
		<use xlink:href="#SVGID_17_"  overflow="visible"/>
	</clipPath>
	<g transform="matrix(1 -3.725290e-009 0 1 0 3.814697e-006)" clip-path="url(#SVGID_18_)">
		
			<image overflow="visible" width="3024" height="4032" xlink:href="E:\2017年工作.wang\7月\3号\宁波质量监督局\N11-4正.jpg"  transform="matrix(0.6392 0.0235 -0.022 0.6821 -232.6655 -43.3853)">
		</image>
	</g>
</g>
<g>
	<defs>
		<circle id="SVGID_19_" cx="771.953" cy="691.132" r="22.666"/>
	</defs>
	<clipPath id="SVGID_20_">
		<use xlink:href="#SVGID_19_"  overflow="visible"/>
	</clipPath>
	<g transform="matrix(1 -3.725290e-009 0 1 -7.629395e-006 3.814697e-006)" clip-path="url(#SVGID_20_)">
		
			<image overflow="visible" width="3024" height="4032" xlink:href="E:\2017年工作.wang\7月\3号\宁波质量监督局\N11-4正.jpg"  transform="matrix(0.6392 0.0235 -0.022 0.6821 -115.1558 -43.3853)">
		</image>
	</g>
</g>
<g>
	<defs>
		<circle id="SVGID_21_" cx="889.462" cy="691.132" r="22.667"/>
	</defs>
	<clipPath id="SVGID_22_">
		<use xlink:href="#SVGID_21_"  overflow="visible"/>
	</clipPath>
	<g transform="matrix(1 -3.725290e-009 0 1 0 3.814697e-006)" clip-path="url(#SVGID_22_)">
		
			<image overflow="visible" width="3024" height="4032" xlink:href="E:\2017年工作.wang\7月\3号\宁波质量监督局\N11-4正.jpg"  transform="matrix(0.6392 0.0235 -0.022 0.6821 2.3521 -43.3853)">
		</image>
	</g>
</g>
<g>
	<defs>
		<circle id="SVGID_23_" cx="1006.971" cy="691.132" r="22.666"/>
	</defs>
	<clipPath id="SVGID_24_">
		<use xlink:href="#SVGID_23_"  overflow="visible"/>
	</clipPath>
	<g transform="matrix(1 -3.725290e-009 0 1 -7.629395e-006 3.814697e-006)" clip-path="url(#SVGID_24_)">
		
			<image overflow="visible" width="3024" height="4032" xlink:href="E:\2017年工作.wang\7月\3号\宁波质量监督局\N11-4正.jpg"  transform="matrix(0.6392 0.0235 -0.022 0.6821 119.8618 -43.3853)">
		</image>
	</g>
</g>
<g>
	<defs>
		<circle id="SVGID_25_" cx="1124.479" cy="691.132" r="22.667"/>
	</defs>
	<clipPath id="SVGID_26_">
		<use xlink:href="#SVGID_25_"  overflow="visible"/>
	</clipPath>
	<g transform="matrix(1 -3.725290e-009 0 1 0 3.814697e-006)" clip-path="url(#SVGID_26_)">
		
			<image overflow="visible" width="3024" height="4032" xlink:href="E:\2017年工作.wang\7月\3号\宁波质量监督局\N11-4正.jpg"  transform="matrix(0.6392 0.0235 -0.022 0.6821 237.3696 -43.3853)">
		</image>
	</g>
</g>
<g>
	<defs>
		<circle id="SVGID_27_" cx="1216.964" cy="691.132" r="22.667"/>
	</defs>
	<clipPath id="SVGID_28_">
		<use xlink:href="#SVGID_27_"  overflow="visible"/>
	</clipPath>
	<g transform="matrix(1 -3.725290e-009 0 1 -3.051758e-005 3.814697e-006)" clip-path="url(#SVGID_28_)">
		
			<image overflow="visible" width="3024" height="4032" xlink:href="E:\2017年工作.wang\7月\3号\宁波质量监督局\N11-4正.jpg"  transform="matrix(0.6392 0.0235 -0.022 0.6821 329.854 -43.3853)">
		</image>
	</g>
</g>
<g>
	<g>
		<path fill="#A0A0A0" d="M1270.959,118.633c0,1.104-0.895,2-2,2h-15c-1.104,0-2-0.896-2-2v-9.978c0-1.104,0.896-2,2-2h15
			c1.105,0,2,0.896,2,2V118.633z"/>
		<path fill="#181818" d="M1270.959,117.632c0,1.104-0.895,2-2,2h-15c-1.104,0-2-0.896-2-2v-9.978c0-1.104,0.896-2,2-2h15
			c1.105,0,2,0.896,2,2V117.632z"/>
	</g>
	<g>
		<path fill="#A0A0A0" d="M25.006,118.633c0,1.104-0.895,2-2,2h-15c-1.104,0-2-0.896-2-2v-9.978c0-1.104,0.896-2,2-2h15
			c1.105,0,2,0.896,2,2V118.633z"/>
		<path fill="#181818" d="M25.006,117.632c0,1.104-0.895,2-2,2h-15c-1.104,0-2-0.896-2-2v-9.978c0-1.104,0.896-2,2-2h15
			c1.105,0,2,0.896,2,2V117.632z"/>
	</g>
</g>
<g>
	<g>
		<path fill="#A0A0A0" d="M1269.018,506.229c0,1.104-0.895,2-2,2h-15c-1.104,0-2-0.896-2-2v-9.978c0-1.104,0.896-2,2-2h15
			c1.105,0,2,0.896,2,2V506.229z"/>
		<path fill="#181818" d="M1269.018,505.228c0,1.104-0.895,2-2,2h-15c-1.104,0-2-0.896-2-2v-9.978c0-1.104,0.896-2,2-2h15
			c1.105,0,2,0.896,2,2V505.228z"/>
	</g>
	<g>
		<path fill="#A0A0A0" d="M23.064,506.229c0,1.104-0.895,2-2,2h-15c-1.104,0-2-0.896-2-2v-9.978c0-1.104,0.896-2,2-2h15
			c1.105,0,2,0.896,2,2V506.229z"/>
		<path fill="#181818" d="M23.064,505.228c0,1.104-0.895,2-2,2h-15c-1.104,0-2-0.896-2-2v-9.978c0-1.104,0.896-2,2-2h15
			c1.105,0,2,0.896,2,2V505.228z"/>
	</g>
</g>
<g>
	<g>
		<path fill="#A0A0A0" d="M1269.018,893.825c0,1.104-0.895,2-2,2h-15c-1.104,0-2-0.896-2-2v-9.978c0-1.104,0.896-2,2-2h15
			c1.105,0,2,0.896,2,2V893.825z"/>
		<path fill="#181818" d="M1269.018,892.824c0,1.104-0.895,2-2,2h-15c-1.104,0-2-0.896-2-2v-9.978c0-1.104,0.896-2,2-2h15
			c1.105,0,2,0.896,2,2V892.824z"/>
	</g>
	<g>
		<path fill="#A0A0A0" d="M23.064,893.825c0,1.104-0.895,2-2,2h-15c-1.104,0-2-0.896-2-2v-9.978c0-1.104,0.896-2,2-2h15
			c1.105,0,2,0.896,2,2V893.825z"/>
		<path fill="#181818" d="M23.064,892.824c0,1.104-0.895,2-2,2h-15c-1.104,0-2-0.896-2-2v-9.978c0-1.104,0.896-2,2-2h15
			c1.105,0,2,0.896,2,2V892.824z"/>
	</g>
</g>
<g>
	<g>
		<path fill="#A0A0A0" d="M1269.018,1281.421c0,1.104-0.895,2-2,2h-15c-1.104,0-2-0.896-2-2v-9.978c0-1.104,0.896-2,2-2h15
			c1.105,0,2,0.896,2,2V1281.421z"/>
		<path fill="#181818" d="M1269.018,1280.42c0,1.104-0.895,2-2,2h-15c-1.104,0-2-0.896-2-2v-9.978c0-1.104,0.896-2,2-2h15
			c1.105,0,2,0.896,2,2V1280.42z"/>
	</g>
	<g>
		<path fill="#A0A0A0" d="M23.064,1281.421c0,1.104-0.895,2-2,2h-15c-1.104,0-2-0.896-2-2v-9.978c0-1.104,0.896-2,2-2h15
			c1.105,0,2,0.896,2,2V1281.421z"/>
		<path fill="#181818" d="M23.064,1280.42c0,1.104-0.895,2-2,2h-15c-1.104,0-2-0.896-2-2v-9.978c0-1.104,0.896-2,2-2h15
			c1.105,0,2,0.896,2,2V1280.42z"/>
	</g>
</g>
<g>
	<g>
		<path fill="#A0A0A0" d="M1269.018,1669.018c0,1.104-0.895,2-2,2h-15c-1.104,0-2-0.896-2-2v-9.979c0-1.104,0.896-2,2-2h15
			c1.105,0,2,0.896,2,2V1669.018z"/>
		<path fill="#181818" d="M1269.018,1668.017c0,1.104-0.895,2-2,2h-15c-1.104,0-2-0.896-2-2v-9.978c0-1.104,0.896-2,2-2h15
			c1.105,0,2,0.896,2,2V1668.017z"/>
	</g>
	<g>
		<path fill="#A0A0A0" d="M23.064,1669.018c0,1.104-0.895,2-2,2h-15c-1.104,0-2-0.896-2-2v-9.979c0-1.104,0.896-2,2-2h15
			c1.105,0,2,0.896,2,2V1669.018z"/>
		<path fill="#181818" d="M23.064,1668.017c0,1.104-0.895,2-2,2h-15c-1.104,0-2-0.896-2-2v-9.978c0-1.104,0.896-2,2-2h15
			c1.105,0,2,0.896,2,2V1668.017z"/>
	</g>
</g>
<g>
	<g>
		<path fill="#A0A0A0" d="M1269.018,2056.613c0,1.104-0.895,2-2,2h-15c-1.104,0-2-0.896-2-2v-9.978c0-1.104,0.896-2,2-2h15
			c1.105,0,2,0.896,2,2V2056.613z"/>
		<path fill="#181818" d="M1269.018,2055.613c0,1.104-0.895,2-2,2h-15c-1.104,0-2-0.896-2-2v-9.979c0-1.104,0.896-2,2-2h15
			c1.105,0,2,0.896,2,2V2055.613z"/>
	</g>
	<g>
		<path fill="#A0A0A0" d="M23.064,2056.613c0,1.104-0.895,2-2,2h-15c-1.104,0-2-0.896-2-2v-9.978c0-1.104,0.896-2,2-2h15
			c1.105,0,2,0.896,2,2V2056.613z"/>
		<path fill="#181818" d="M23.064,2055.613c0,1.104-0.895,2-2,2h-15c-1.104,0-2-0.896-2-2v-9.979c0-1.104,0.896-2,2-2h15
			c1.105,0,2,0.896,2,2V2055.613z"/>
	</g>
</g>
<g>
	<g>
		<path fill="#A0A0A0" d="M1269.018,2444.209c0,1.105-0.895,2-2,2h-15c-1.104,0-2-0.895-2-2v-9.977c0-1.105,0.896-2,2-2h15
			c1.105,0,2,0.895,2,2V2444.209z"/>
		<path fill="#181818" d="M1269.018,2443.209c0,1.104-0.895,2-2,2h-15c-1.104,0-2-0.896-2-2v-9.978c0-1.104,0.896-2,2-2h15
			c1.105,0,2,0.896,2,2V2443.209z"/>
	</g>
	<g>
		<path fill="#A0A0A0" d="M23.064,2444.209c0,1.105-0.895,2-2,2h-15c-1.104,0-2-0.895-2-2v-9.977c0-1.105,0.896-2,2-2h15
			c1.105,0,2,0.895,2,2V2444.209z"/>
		<path fill="#181818" d="M23.064,2443.209c0,1.104-0.895,2-2,2h-15c-1.104,0-2-0.896-2-2v-9.978c0-1.104,0.896-2,2-2h15
			c1.105,0,2,0.896,2,2V2443.209z"/>
	</g>
</g>
<g>
	<ellipse fill="#CECECF" cx="744.457" cy="771.885" rx="14.088" ry="14.396"/>
	<g>
		<ellipse fill="#040000" cx="744.457" cy="771.885" rx="11.402" ry="11.652"/>
		<path fill="#2A2C2D" stroke="#040000" stroke-width="0.5" stroke-miterlimit="10" d="M754.4,772.062
			c0.096-5.612-4.279-10.24-9.771-10.338c-5.49-0.098-10.02,4.372-10.115,9.983c-0.096,5.61,4.277,10.239,9.77,10.337
			S754.305,777.674,754.4,772.062"/>
		
			<rect x="738.722" y="770.425" transform="matrix(0.9998 0.0178 -0.0178 0.9998 13.8524 -13.1243)" fill="#040000" width="11.471" height="2.919"/>
		
			<rect x="738.596" y="770.455" transform="matrix(0.0172 -0.9999 0.9999 0.0172 -40.0905 1502.984)" fill="#040000" width="11.721" height="2.858"/>
	</g>
</g>
<g>
	<rect x="521.068" y="1000.897" fill="#272828" width="19.715" height="142.995"/>
	<rect x="529.396" y="1003.976" fill="#A0A09F" width="1.529" height="137.333"/>
	<rect x="522.43" y="1000.904" fill="#7E7E7F" width="1.529" height="142.988"/>
</g>
<rect x="529.395" y="1143.892" fill="#7E7E7F" width="0.766" height="12.084"/>
<radialGradient id="SVGID_29_" cx="529.7773" cy="1158.8096" r="2" gradientUnits="userSpaceOnUse">
	<stop  offset="0" style="stop-color:#474747"/>
	<stop  offset="1" style="stop-color:#000000"/>
</radialGradient>
<circle fill="url(#SVGID_29_)" cx="529.777" cy="1158.81" r="2"/>
<text transform="matrix(1 0 0 1 534.9126 1160.8096)" font-family="'NotoSansHans-Bold-GBpc-EUC-H'" font-size="7.1974">CF ACT</text>
<g>
	<radialGradient id="SVGID_30_" cx="527.8281" cy="976.8604" r="2.75" gradientUnits="userSpaceOnUse">
		<stop  offset="0" style="stop-color:#474747"/>
		<stop  offset="1" style="stop-color:#000000"/>
	</radialGradient>
	<circle fill="url(#SVGID_30_)" cx="527.828" cy="976.86" r="2.75"/>
	<text transform="matrix(1 0 0 1 532.9624 979.8623)" font-family="'NotoSansHans-Bold-GBpc-EUC-H'" font-size="7.1974">RESET</text>
</g>
<g>
	<radialGradient id="SVGID_31_" cx="737.5059" cy="976.8604" r="2.75" gradientUnits="userSpaceOnUse">
		<stop  offset="0" style="stop-color:#474747"/>
		<stop  offset="1" style="stop-color:#000000"/>
	</radialGradient>
	<circle fill="url(#SVGID_31_)" cx="737.506" cy="976.86" r="2.75"/>
	<text transform="matrix(1 0 0 1 742.6406 979.8623)" font-family="'NotoSansHans-Bold-GBpc-EUC-H'" font-size="7.1974">RESET</text>
</g>
<g>
	<g>
		<rect x="734.6" y="1000.897" fill="#272828" width="19.715" height="142.995"/>
		<rect x="742.928" y="1003.976" fill="#A0A09F" width="1.529" height="137.333"/>
		<rect x="735.963" y="1000.904" fill="#7E7E7F" width="1.529" height="142.988"/>
	</g>
	<rect x="742.928" y="1143.892" fill="#7E7E7F" width="0.766" height="12.084"/>
	<radialGradient id="SVGID_32_" cx="743.3105" cy="1158.8096" r="2" gradientUnits="userSpaceOnUse">
		<stop  offset="0" style="stop-color:#474747"/>
		<stop  offset="1" style="stop-color:#000000"/>
	</radialGradient>
	<circle fill="url(#SVGID_32_)" cx="743.311" cy="1158.81" r="2"/>
	<text transform="matrix(1 0 0 1 748.4453 1160.8096)" font-family="'NotoSansHans-Bold-GBpc-EUC-H'" font-size="7.1974">CF ACT</text>
</g>
<g>
	<g>
		<g>
			<text transform="matrix(1 0 0 1 520.4058 910.7549)" font-family="'NotoSansHans-Bold-GBpc-EUC-H'" font-size="7.1974">ACT</text>
		</g>
		<g>
			<path fill="#070001" d="M544.975,903.613c2.455,0,4.443,1.99,4.443,4.445c0,2.454-1.988,4.443-4.443,4.443
				s-4.445-1.99-4.445-4.443C540.529,905.603,542.52,903.613,544.975,903.613"/>
			<g>
				<defs>
					<path id="SVGID_33_" d="M541.404,908.058c0,1.972,1.6,3.57,3.57,3.57c1.973,0,3.572-1.599,3.572-3.57
						c0-1.973-1.6-3.572-3.572-3.572C543.004,904.486,541.404,906.085,541.404,908.058"/>
				</defs>
				<clipPath id="SVGID_34_">
					<use xlink:href="#SVGID_33_"  overflow="visible"/>
				</clipPath>
				
					<radialGradient id="SVGID_35_" cx="-202.8232" cy="1581.8193" r="0.6273" gradientTransform="matrix(8.3884 0 0 8.3884 2245.4648 -12362.1523)" gradientUnits="userSpaceOnUse">
					<stop  offset="0" style="stop-color:#BCD980"/>
					<stop  offset="1" style="stop-color:#8FC31F"/>
				</radialGradient>
				<rect x="541.404" y="904.486" clip-path="url(#SVGID_34_)" fill="url(#SVGID_35_)" width="7.143" height="7.143"/>
			</g>
			<g opacity="0.5" enable-background="new    ">
				<g>
					<defs>
						<rect id="SVGID_36_" x="543.309" y="905.994" width="1.189" height="1.191"/>
					</defs>
					<clipPath id="SVGID_37_">
						<use xlink:href="#SVGID_36_"  overflow="visible"/>
					</clipPath>
					<rect x="543.309" y="905.994" clip-path="url(#SVGID_37_)" fill="#FFFFFF" width="1.189" height="1.19"/>
				</g>
			</g>
			<g opacity="0.5" enable-background="new    ">
				<g>
					<defs>
						<rect id="SVGID_38_" x="543.309" y="905.994" width="0.594" height="1.191"/>
					</defs>
					<clipPath id="SVGID_39_">
						<use xlink:href="#SVGID_38_"  overflow="visible"/>
					</clipPath>
					<rect x="543.309" y="905.994" clip-path="url(#SVGID_39_)" fill="#FFFFFF" width="0.596" height="1.19"/>
				</g>
			</g>
		</g>
	</g>
	<g>
		<g>
			<text transform="matrix(1 0 0 1 520.4058 859.2715)" font-family="'NotoSansHans-Bold-GBpc-EUC-H'" font-size="7.1974">RLM</text>
		</g>
		<g>
			<path fill="#070001" d="M544.975,852.129c2.455,0,4.443,1.99,4.443,4.445c0,2.454-1.988,4.443-4.443,4.443
				s-4.445-1.99-4.445-4.443C540.529,854.12,542.52,852.129,544.975,852.129"/>
			<g>
				<defs>
					<path id="SVGID_40_" d="M541.404,856.575c0,1.972,1.6,3.57,3.57,3.57c1.973,0,3.572-1.599,3.572-3.57
						c0-1.973-1.6-3.572-3.572-3.572C543.004,853.002,541.404,854.602,541.404,856.575"/>
				</defs>
				<clipPath id="SVGID_41_">
					<use xlink:href="#SVGID_40_"  overflow="visible"/>
				</clipPath>
				
					<radialGradient id="SVGID_42_" cx="-202.8232" cy="1575.6816" r="0.6273" gradientTransform="matrix(8.3884 0 0 8.3884 2245.4648 -12362.1523)" gradientUnits="userSpaceOnUse">
					<stop  offset="0" style="stop-color:#F7F8F8"/>
					<stop  offset="1" style="stop-color:#E60012"/>
				</radialGradient>
				<rect x="541.404" y="853.002" clip-path="url(#SVGID_41_)" fill="url(#SVGID_42_)" width="7.143" height="7.143"/>
			</g>
			<g opacity="0.5" enable-background="new    ">
				<g>
					<defs>
						<rect id="SVGID_43_" x="543.309" y="854.511" width="1.189" height="1.191"/>
					</defs>
					<clipPath id="SVGID_44_">
						<use xlink:href="#SVGID_43_"  overflow="visible"/>
					</clipPath>
					<rect x="543.309" y="854.511" clip-path="url(#SVGID_44_)" fill="#FFFFFF" width="1.189" height="1.19"/>
				</g>
			</g>
			<g opacity="0.5" enable-background="new    ">
				<g>
					<defs>
						<rect id="SVGID_45_" x="543.309" y="854.511" width="0.594" height="1.191"/>
					</defs>
					<clipPath id="SVGID_46_">
						<use xlink:href="#SVGID_45_"  overflow="visible"/>
					</clipPath>
					<rect x="543.309" y="854.511" clip-path="url(#SVGID_46_)" fill="#FFFFFF" width="0.596" height="1.19"/>
				</g>
			</g>
		</g>
	</g>
	<g>
		<g>
			<text transform="matrix(1 0 0 1 520.4058 832.8115)" font-family="'NotoSansHans-Bold-GBpc-EUC-H'" font-size="7.1974">RUN</text>
		</g>
		<g>
			<path fill="#070001" d="M544.975,825.669c2.455,0,4.443,1.99,4.443,4.445c0,2.454-1.988,4.443-4.443,4.443
				s-4.445-1.99-4.445-4.443C540.529,827.66,542.52,825.669,544.975,825.669"/>
			<g>
				<defs>
					<path id="SVGID_47_" d="M541.404,830.115c0,1.972,1.6,3.57,3.57,3.57c1.973,0,3.572-1.599,3.572-3.57
						c0-1.973-1.6-3.572-3.572-3.572C543.004,826.542,541.404,828.142,541.404,830.115"/>
				</defs>
				<clipPath id="SVGID_48_">
					<use xlink:href="#SVGID_47_"  overflow="visible"/>
				</clipPath>
				
					<radialGradient id="SVGID_49_" cx="-202.8232" cy="1572.5273" r="0.6273" gradientTransform="matrix(8.3884 0 0 8.3884 2245.4648 -12362.1523)" gradientUnits="userSpaceOnUse">
					<stop  offset="0" style="stop-color:#BCD980"/>
					<stop  offset="1" style="stop-color:#8FC31F"/>
				</radialGradient>
				<rect x="541.404" y="826.542" clip-path="url(#SVGID_48_)" fill="url(#SVGID_49_)" width="7.143" height="7.143"/>
			</g>
			<g opacity="0.5" enable-background="new    ">
				<g>
					<defs>
						<rect id="SVGID_50_" x="543.309" y="828.051" width="1.189" height="1.191"/>
					</defs>
					<clipPath id="SVGID_51_">
						<use xlink:href="#SVGID_50_"  overflow="visible"/>
					</clipPath>
					<rect x="543.309" y="828.051" clip-path="url(#SVGID_51_)" fill="#FFFFFF" width="1.189" height="1.19"/>
				</g>
			</g>
			<g opacity="0.5" enable-background="new    ">
				<g>
					<defs>
						<rect id="SVGID_52_" x="543.309" y="828.051" width="0.594" height="1.191"/>
					</defs>
					<clipPath id="SVGID_53_">
						<use xlink:href="#SVGID_52_"  overflow="visible"/>
					</clipPath>
					<rect x="543.309" y="828.051" clip-path="url(#SVGID_53_)" fill="#FFFFFF" width="0.596" height="1.19"/>
				</g>
			</g>
		</g>
	</g>
</g>
<g>
	<g>
		<g>
			<text transform="matrix(1 0 0 1 621.6543 879.7881)" font-family="'NotoSansHans-Bold-GBpc-EUC-H'" font-size="7.1974">ACT</text>
		</g>
		<g>
			<path fill="#070001" d="M646.225,872.65c2.455,0,4.445,1.99,4.445,4.445c0,2.454-1.99,4.443-4.445,4.443
				c-2.453,0-4.443-1.99-4.443-4.443C641.781,874.64,643.771,872.65,646.225,872.65"/>
			<g>
				<defs>
					<path id="SVGID_54_" d="M642.654,877.095c0,1.972,1.6,3.57,3.57,3.57c1.975,0,3.572-1.599,3.572-3.57
						c0-1.973-1.598-3.572-3.572-3.572C644.254,873.523,642.654,875.122,642.654,877.095"/>
				</defs>
				<clipPath id="SVGID_55_">
					<use xlink:href="#SVGID_54_"  overflow="visible"/>
				</clipPath>
				
					<radialGradient id="SVGID_56_" cx="-190.7534" cy="1578.1279" r="0.6273" gradientTransform="matrix(8.3884 0 0 8.3884 2245.4648 -12362.1523)" gradientUnits="userSpaceOnUse">
					<stop  offset="0" style="stop-color:#BCD980"/>
					<stop  offset="1" style="stop-color:#8FC31F"/>
				</radialGradient>
				<rect x="642.654" y="873.523" clip-path="url(#SVGID_55_)" fill="url(#SVGID_56_)" width="7.143" height="7.143"/>
			</g>
			<g opacity="0.5" enable-background="new    ">
				<g>
					<defs>
						<rect id="SVGID_57_" x="644.559" y="875.031" width="1.189" height="1.191"/>
					</defs>
					<clipPath id="SVGID_58_">
						<use xlink:href="#SVGID_57_"  overflow="visible"/>
					</clipPath>
					<rect x="644.559" y="875.031" clip-path="url(#SVGID_58_)" fill="#FFFFFF" width="1.189" height="1.19"/>
				</g>
			</g>
			<g opacity="0.5" enable-background="new    ">
				<g>
					<defs>
						<rect id="SVGID_59_" x="644.559" y="875.031" width="0.596" height="1.191"/>
					</defs>
					<clipPath id="SVGID_60_">
						<use xlink:href="#SVGID_59_"  overflow="visible"/>
					</clipPath>
					<rect x="644.559" y="875.031" clip-path="url(#SVGID_60_)" fill="#FFFFFF" width="0.596" height="1.19"/>
				</g>
			</g>
		</g>
	</g>
	<g>
		<g>
			<text transform="matrix(1 0 0 1 621.6543 829.8623)" font-family="'NotoSansHans-Bold-GBpc-EUC-H'" font-size="7.1974">RUN</text>
		</g>
		<g>
			<path fill="#070001" d="M646.225,822.72c2.455,0,4.445,1.99,4.445,4.445c0,2.454-1.99,4.443-4.445,4.443
				c-2.453,0-4.443-1.99-4.443-4.443C641.781,824.71,643.771,822.72,646.225,822.72"/>
			<g>
				<defs>
					<path id="SVGID_61_" d="M642.654,827.166c0,1.972,1.6,3.57,3.57,3.57c1.975,0,3.572-1.599,3.572-3.57
						c0-1.973-1.598-3.572-3.572-3.572C644.254,823.593,642.654,825.192,642.654,827.166"/>
				</defs>
				<clipPath id="SVGID_62_">
					<use xlink:href="#SVGID_61_"  overflow="visible"/>
				</clipPath>
				
					<radialGradient id="SVGID_63_" cx="-190.7534" cy="1572.1758" r="0.6273" gradientTransform="matrix(8.3884 0 0 8.3884 2245.4648 -12362.1523)" gradientUnits="userSpaceOnUse">
					<stop  offset="0" style="stop-color:#BCD980"/>
					<stop  offset="1" style="stop-color:#8FC31F"/>
				</radialGradient>
				<rect x="642.654" y="823.593" clip-path="url(#SVGID_62_)" fill="url(#SVGID_63_)" width="7.143" height="7.143"/>
			</g>
			<g opacity="0.5" enable-background="new    ">
				<g>
					<defs>
						<rect id="SVGID_64_" x="644.559" y="825.102" width="1.189" height="1.191"/>
					</defs>
					<clipPath id="SVGID_65_">
						<use xlink:href="#SVGID_64_"  overflow="visible"/>
					</clipPath>
					<rect x="644.559" y="825.102" clip-path="url(#SVGID_65_)" fill="#FFFFFF" width="1.189" height="1.19"/>
				</g>
			</g>
			<g opacity="0.5" enable-background="new    ">
				<g>
					<defs>
						<rect id="SVGID_66_" x="644.559" y="825.102" width="0.596" height="1.191"/>
					</defs>
					<clipPath id="SVGID_67_">
						<use xlink:href="#SVGID_66_"  overflow="visible"/>
					</clipPath>
					<rect x="644.559" y="825.102" clip-path="url(#SVGID_67_)" fill="#FFFFFF" width="0.596" height="1.19"/>
				</g>
			</g>
		</g>
	</g>
</g>
<g>
	<g>
		<g>
			<text transform="matrix(1 0 0 1 623.1816 1340.8516)" font-family="'NotoSansHans-Bold-GBpc-EUC-H'" font-size="7.1974">ACT</text>
		</g>
		<g>
			<path fill="#070001" d="M647.752,1333.713c2.455,0,4.445,1.99,4.445,4.445c0,2.453-1.99,4.443-4.445,4.443
				c-2.453,0-4.443-1.99-4.443-4.443C643.309,1335.703,645.299,1333.713,647.752,1333.713"/>
			<g>
				<defs>
					<path id="SVGID_68_" d="M644.182,1338.158c0,1.972,1.6,3.57,3.57,3.57c1.975,0,3.572-1.599,3.572-3.57
						c0-1.973-1.598-3.572-3.572-3.572C645.781,1334.586,644.182,1336.186,644.182,1338.158"/>
				</defs>
				<clipPath id="SVGID_69_">
					<use xlink:href="#SVGID_68_"  overflow="visible"/>
				</clipPath>
				
					<radialGradient id="SVGID_70_" cx="-190.5708" cy="1633.0918" r="0.6271" gradientTransform="matrix(8.3884 0 0 8.3884 2245.4648 -12362.1523)" gradientUnits="userSpaceOnUse">
					<stop  offset="0" style="stop-color:#BCD980"/>
					<stop  offset="1" style="stop-color:#8FC31F"/>
				</radialGradient>
				<rect x="644.182" y="1334.586" clip-path="url(#SVGID_69_)" fill="url(#SVGID_70_)" width="7.143" height="7.143"/>
			</g>
			<g opacity="0.5" enable-background="new    ">
				<g>
					<defs>
						<rect id="SVGID_71_" x="646.086" y="1336.094" width="1.189" height="1.191"/>
					</defs>
					<clipPath id="SVGID_72_">
						<use xlink:href="#SVGID_71_"  overflow="visible"/>
					</clipPath>
					<rect x="646.086" y="1336.094" clip-path="url(#SVGID_72_)" fill="#FFFFFF" width="1.189" height="1.19"/>
				</g>
			</g>
			<g opacity="0.5" enable-background="new    ">
				<g>
					<defs>
						<rect id="SVGID_73_" x="646.086" y="1336.094" width="0.596" height="1.191"/>
					</defs>
					<clipPath id="SVGID_74_">
						<use xlink:href="#SVGID_73_"  overflow="visible"/>
					</clipPath>
					<rect x="646.086" y="1336.094" clip-path="url(#SVGID_74_)" fill="#FFFFFF" width="0.596" height="1.19"/>
				</g>
			</g>
		</g>
	</g>
	<g>
		<g>
			<text transform="matrix(1 0 0 1 623.1816 1290.9258)" font-family="'NotoSansHans-Bold-GBpc-EUC-H'" font-size="7.1974">RUN</text>
		</g>
		<g>
			<path fill="#070001" d="M647.752,1283.783c2.455,0,4.445,1.99,4.445,4.445c0,2.454-1.99,4.443-4.445,4.443
				c-2.453,0-4.443-1.99-4.443-4.443C643.309,1285.773,645.299,1283.783,647.752,1283.783"/>
			<g>
				<defs>
					<path id="SVGID_75_" d="M644.182,1288.229c0,1.972,1.6,3.57,3.57,3.57c1.975,0,3.572-1.599,3.572-3.57
						c0-1.973-1.598-3.572-3.572-3.572C645.781,1284.656,644.182,1286.255,644.182,1288.229"/>
				</defs>
				<clipPath id="SVGID_76_">
					<use xlink:href="#SVGID_75_"  overflow="visible"/>
				</clipPath>
				
					<radialGradient id="SVGID_77_" cx="-190.5708" cy="1627.1396" r="0.6271" gradientTransform="matrix(8.3884 0 0 8.3884 2245.4648 -12362.1523)" gradientUnits="userSpaceOnUse">
					<stop  offset="0" style="stop-color:#BCD980"/>
					<stop  offset="1" style="stop-color:#8FC31F"/>
				</radialGradient>
				<rect x="644.182" y="1284.656" clip-path="url(#SVGID_76_)" fill="url(#SVGID_77_)" width="7.143" height="7.143"/>
			</g>
			<g opacity="0.5" enable-background="new    ">
				<g>
					<defs>
						<rect id="SVGID_78_" x="646.086" y="1286.165" width="1.189" height="1.191"/>
					</defs>
					<clipPath id="SVGID_79_">
						<use xlink:href="#SVGID_78_"  overflow="visible"/>
					</clipPath>
					<rect x="646.086" y="1286.165" clip-path="url(#SVGID_79_)" fill="#FFFFFF" width="1.189" height="1.19"/>
				</g>
			</g>
			<g opacity="0.5" enable-background="new    ">
				<g>
					<defs>
						<rect id="SVGID_80_" x="646.086" y="1286.165" width="0.596" height="1.191"/>
					</defs>
					<clipPath id="SVGID_81_">
						<use xlink:href="#SVGID_80_"  overflow="visible"/>
					</clipPath>
					<rect x="646.086" y="1286.165" clip-path="url(#SVGID_81_)" fill="#FFFFFF" width="0.596" height="1.19"/>
				</g>
			</g>
		</g>
	</g>
</g>
<g>
	<g>
		<g>
			<text transform="matrix(1 0 0 1 732.3008 910.7549)" font-family="'NotoSansHans-Bold-GBpc-EUC-H'" font-size="7.1974">ACT</text>
		</g>
		<g>
			<path fill="#070001" d="M756.869,903.613c2.455,0,4.443,1.99,4.443,4.445c0,2.454-1.988,4.443-4.443,4.443
				s-4.445-1.99-4.445-4.443C752.424,905.603,754.414,903.613,756.869,903.613"/>
			<g>
				<defs>
					<path id="SVGID_82_" d="M753.299,908.058c0,1.972,1.6,3.57,3.57,3.57c1.973,0,3.572-1.599,3.572-3.57
						c0-1.973-1.6-3.572-3.572-3.572C754.898,904.486,753.299,906.085,753.299,908.058"/>
				</defs>
				<clipPath id="SVGID_83_">
					<use xlink:href="#SVGID_82_"  overflow="visible"/>
				</clipPath>
				
					<radialGradient id="SVGID_84_" cx="-177.563" cy="1581.8193" r="0.6273" gradientTransform="matrix(8.3884 0 0 8.3884 2245.4648 -12362.1523)" gradientUnits="userSpaceOnUse">
					<stop  offset="0" style="stop-color:#BCD980"/>
					<stop  offset="1" style="stop-color:#8FC31F"/>
				</radialGradient>
				<rect x="753.299" y="904.486" clip-path="url(#SVGID_83_)" fill="url(#SVGID_84_)" width="7.143" height="7.143"/>
			</g>
			<g opacity="0.5" enable-background="new    ">
				<g>
					<defs>
						<rect id="SVGID_85_" x="755.203" y="905.994" width="1.189" height="1.191"/>
					</defs>
					<clipPath id="SVGID_86_">
						<use xlink:href="#SVGID_85_"  overflow="visible"/>
					</clipPath>
					<rect x="755.203" y="905.994" clip-path="url(#SVGID_86_)" fill="#FFFFFF" width="1.189" height="1.19"/>
				</g>
			</g>
			<g opacity="0.5" enable-background="new    ">
				<g>
					<defs>
						<rect id="SVGID_87_" x="755.203" y="905.994" width="0.594" height="1.191"/>
					</defs>
					<clipPath id="SVGID_88_">
						<use xlink:href="#SVGID_87_"  overflow="visible"/>
					</clipPath>
					<rect x="755.203" y="905.994" clip-path="url(#SVGID_88_)" fill="#FFFFFF" width="0.596" height="1.19"/>
				</g>
			</g>
		</g>
	</g>
	<g>
		<g>
			<text transform="matrix(1 0 0 1 732.3008 859.2715)" font-family="'NotoSansHans-Bold-GBpc-EUC-H'" font-size="7.1974">RLM</text>
		</g>
		<g>
			<path fill="#070001" d="M756.869,852.129c2.455,0,4.443,1.99,4.443,4.445c0,2.454-1.988,4.443-4.443,4.443
				s-4.445-1.99-4.445-4.443C752.424,854.12,754.414,852.129,756.869,852.129"/>
			<g>
				<defs>
					<path id="SVGID_89_" d="M753.299,856.575c0,1.972,1.6,3.57,3.57,3.57c1.973,0,3.572-1.599,3.572-3.57
						c0-1.973-1.6-3.572-3.572-3.572C754.898,853.002,753.299,854.602,753.299,856.575"/>
				</defs>
				<clipPath id="SVGID_90_">
					<use xlink:href="#SVGID_89_"  overflow="visible"/>
				</clipPath>
				
					<radialGradient id="SVGID_91_" cx="-177.563" cy="1575.6816" r="0.6273" gradientTransform="matrix(8.3884 0 0 8.3884 2245.4648 -12362.1523)" gradientUnits="userSpaceOnUse">
					<stop  offset="0" style="stop-color:#F7F8F8"/>
					<stop  offset="1" style="stop-color:#E60012"/>
				</radialGradient>
				<rect x="753.299" y="853.002" clip-path="url(#SVGID_90_)" fill="url(#SVGID_91_)" width="7.143" height="7.143"/>
			</g>
			<g opacity="0.5" enable-background="new    ">
				<g>
					<defs>
						<rect id="SVGID_92_" x="755.203" y="854.511" width="1.189" height="1.191"/>
					</defs>
					<clipPath id="SVGID_93_">
						<use xlink:href="#SVGID_92_"  overflow="visible"/>
					</clipPath>
					<rect x="755.203" y="854.511" clip-path="url(#SVGID_93_)" fill="#FFFFFF" width="1.189" height="1.19"/>
				</g>
			</g>
			<g opacity="0.5" enable-background="new    ">
				<g>
					<defs>
						<rect id="SVGID_94_" x="755.203" y="854.511" width="0.594" height="1.191"/>
					</defs>
					<clipPath id="SVGID_95_">
						<use xlink:href="#SVGID_94_"  overflow="visible"/>
					</clipPath>
					<rect x="755.203" y="854.511" clip-path="url(#SVGID_95_)" fill="#FFFFFF" width="0.596" height="1.19"/>
				</g>
			</g>
		</g>
	</g>
	<g>
		<g>
			<text transform="matrix(1 0 0 1 732.3008 832.8115)" font-family="'NotoSansHans-Bold-GBpc-EUC-H'" font-size="7.1974">RUN</text>
		</g>
		<g>
			<path fill="#070001" d="M756.869,825.669c2.455,0,4.443,1.99,4.443,4.445c0,2.454-1.988,4.443-4.443,4.443
				s-4.445-1.99-4.445-4.443C752.424,827.66,754.414,825.669,756.869,825.669"/>
			<g>
				<defs>
					<path id="SVGID_96_" d="M753.299,830.115c0,1.972,1.6,3.57,3.57,3.57c1.973,0,3.572-1.599,3.572-3.57
						c0-1.973-1.6-3.572-3.572-3.572C754.898,826.542,753.299,828.142,753.299,830.115"/>
				</defs>
				<clipPath id="SVGID_97_">
					<use xlink:href="#SVGID_96_"  overflow="visible"/>
				</clipPath>
				
					<radialGradient id="SVGID_98_" cx="-177.563" cy="1572.5273" r="0.6273" gradientTransform="matrix(8.3884 0 0 8.3884 2245.4648 -12362.1523)" gradientUnits="userSpaceOnUse">
					<stop  offset="0" style="stop-color:#BCD980"/>
					<stop  offset="1" style="stop-color:#8FC31F"/>
				</radialGradient>
				<rect x="753.299" y="826.542" clip-path="url(#SVGID_97_)" fill="url(#SVGID_98_)" width="7.143" height="7.143"/>
			</g>
			<g opacity="0.5" enable-background="new    ">
				<g>
					<defs>
						<rect id="SVGID_99_" x="755.203" y="828.051" width="1.189" height="1.191"/>
					</defs>
					<clipPath id="SVGID_100_">
						<use xlink:href="#SVGID_99_"  overflow="visible"/>
					</clipPath>
					<rect x="755.203" y="828.051" clip-path="url(#SVGID_100_)" fill="#FFFFFF" width="1.189" height="1.19"/>
				</g>
			</g>
			<g opacity="0.5" enable-background="new    ">
				<g>
					<defs>
						<rect id="SVGID_101_" x="755.203" y="828.051" width="0.594" height="1.191"/>
					</defs>
					<clipPath id="SVGID_102_">
						<use xlink:href="#SVGID_101_"  overflow="visible"/>
					</clipPath>
					<rect x="755.203" y="828.051" clip-path="url(#SVGID_102_)" fill="#FFFFFF" width="0.596" height="1.19"/>
				</g>
			</g>
		</g>
	</g>
</g>
<g>
	<ellipse fill="#CECECF" cx="634.512" cy="1195.938" rx="14.088" ry="14.396"/>
	<g>
		<ellipse fill="#040000" cx="634.512" cy="1195.938" rx="11.402" ry="11.652"/>
		<path fill="#2A2C2D" stroke="#040000" stroke-width="0.5" stroke-miterlimit="10" d="M644.455,1196.115
			c0.096-5.612-4.279-10.24-9.771-10.338c-5.49-0.098-10.02,4.372-10.115,9.983c-0.096,5.61,4.277,10.239,9.77,10.337
			S644.359,1201.727,644.455,1196.115"/>
		
			<rect x="628.776" y="1194.477" transform="matrix(0.9998 0.0178 -0.0178 0.9998 21.3804 -11.1008)" fill="#040000" width="11.471" height="2.919"/>
		
			<rect x="628.651" y="1194.508" transform="matrix(0.0172 -0.9999 0.9999 0.0172 -572.1392 1809.8297)" fill="#040000" width="11.721" height="2.858"/>
	</g>
</g>
<g>
	<ellipse fill="#CECECF" cx="634.511" cy="1228.357" rx="14.089" ry="14.396"/>
	<g>
		<ellipse fill="#040000" cx="634.51" cy="1228.357" rx="11.402" ry="11.652"/>
		<path fill="#2A2C2D" stroke="#040000" stroke-width="0.5" stroke-miterlimit="10" d="M644.453,1228.534
			c0.096-5.612-4.277-10.24-9.77-10.338s-10.02,4.372-10.115,9.983c-0.098,5.61,4.277,10.239,9.77,10.337
			C639.828,1238.614,644.357,1234.146,644.453,1228.534"/>
		
			<rect x="628.776" y="1226.896" transform="matrix(0.9998 0.0178 -0.0178 0.9998 21.9609 -11.0975)" fill="#040000" width="11.469" height="2.919"/>
		
			<rect x="628.65" y="1226.927" transform="matrix(0.017 -0.9999 0.9999 0.017 -604.452 1841.8978)" fill="#040000" width="11.721" height="2.858"/>
	</g>
</g>
<rect x="44.434" y="1858.976" fill="#1F3250" width="1183.459" height="244.575"/>
<g>
	<g>
		<rect x="54.768" y="1881.535" fill="#517B9E" width="382.434" height="87.01"/>
		<rect x="54.768" y="1877.533" fill="#0E1A27" width="382.434" height="87.01"/>
	</g>
	<g>
		<rect x="442.893" y="1881.537" fill="#517B9E" width="382.434" height="87.008"/>
		<rect x="442.893" y="1877.535" fill="#0E1A27" width="382.434" height="87.008"/>
	</g>
	<g>
		<rect x="831.018" y="1881.535" fill="#517B9E" width="382.434" height="87.01"/>
		<rect x="831.018" y="1877.533" fill="#0E1A27" width="382.434" height="87.01"/>
	</g>
</g>
<g>
	<g>
		<rect x="54.768" y="1989.268" fill="#517B9E" width="382.434" height="87.008"/>
		<rect x="54.768" y="1985.266" fill="#0E1A27" width="382.434" height="87.008"/>
	</g>
	<g>
		<rect x="442.893" y="1989.268" fill="#517B9E" width="382.434" height="87.01"/>
		<rect x="442.893" y="1985.266" fill="#0E1A27" width="382.434" height="87.01"/>
	</g>
	<g>
		<rect x="831.018" y="1989.268" fill="#517B9E" width="382.434" height="87.008"/>
		<rect x="831.018" y="1985.266" fill="#0E1A27" width="382.434" height="87.008"/>
	</g>
</g>
</svg>
