<?xml version="1.0" encoding="utf-8"?>
<!-- Generator: Adobe Illustrator 21.0.0, SVG Export Plug-In . SVG Version: 6.00 Build 0)  -->
<svg version="1.1" id="图层_1" xmlns="http://www.w3.org/2000/svg" xmlns:xlink="http://www.w3.org/1999/xlink" x="0px" y="0px"
	 width="1275.6px" height="252.3px" viewBox="0 0 1275.6 252.3" enable-background="new 0 0 1275.6 252.3" xml:space="preserve">
<g>
	<rect x="0" fill="#3B3C3F" width="1275.6" height="252.3"/>
	<g>
		<path fill="#314B9D" d="M925.4,51.1h-27c-3.7,0-7-2.6-7.7-6.3l-1.8-9.1c-0.6-3.1,2-6,5.3-6h35.3c3.3,0,5.9,2.8,5.3,6l-1.8,9.1
			C932.4,48.4,929.2,51.1,925.4,51.1"/>
		<path fill="none" stroke="#0B0C0C" stroke-miterlimit="10" d="M925.4,51.1h-27c-3.7,0-7-2.6-7.7-6.3l-1.8-9.1c-0.6-3.1,2-6,5.3-6
			h35.3c3.3,0,5.9,2.8,5.3,6l-1.8,9.1C932.4,48.4,929.2,51.1,925.4,51.1z"/>
		<path fill="#040000" d="M899.4,34.5c0,1.2-1,2.2-2.2,2.2c-1.2,0-2.2-1-2.2-2.2c0-1.2,1-2.2,2.2-2.2
			C898.4,32.3,899.4,33.3,899.4,34.5"/>
		<path fill="#040000" d="M906.1,34.5c0,1.2-1,2.2-2.2,2.2c-1.2,0-2.2-1-2.2-2.2c0-1.2,1-2.2,2.2-2.2
			C905.1,32.3,906.1,33.3,906.1,34.5"/>
		<path fill="#040000" d="M912.7,34.5c0,1.2-1,2.2-2.2,2.2c-1.2,0-2.2-1-2.2-2.2c0-1.2,1-2.2,2.2-2.2
			C911.7,32.3,912.7,33.3,912.7,34.5"/>
		<path fill="#040000" d="M919.4,34.5c0,1.2-1,2.2-2.2,2.2c-1.2,0-2.2-1-2.2-2.2c0-1.2,1-2.2,2.2-2.2
			C918.4,32.3,919.4,33.3,919.4,34.5"/>
		<path fill="#040000" d="M926,34.5c0,1.2-1,2.2-2.2,2.2c-1.2,0-2.2-1-2.2-2.2c0-1.2,1-2.2,2.2-2.2C925.1,32.3,926,33.3,926,34.5"/>
		<path fill="#040000" d="M903,40.4c0,1.2-1,2.2-2.2,2.2c-1.2,0-2.2-1-2.2-2.2s1-2.2,2.2-2.2C902,38.2,903,39.1,903,40.4"/>
		<path fill="#040000" d="M909.6,40.4c0,1.2-1,2.2-2.2,2.2c-1.2,0-2.2-1-2.2-2.2s1-2.2,2.2-2.2C908.6,38.2,909.6,39.1,909.6,40.4"/>
		<path fill="#040000" d="M916.3,40.4c0,1.2-1,2.2-2.2,2.2c-1.2,0-2.2-1-2.2-2.2s1-2.2,2.2-2.2C915.3,38.2,916.3,39.1,916.3,40.4"/>
		<path fill="#040000" d="M922.9,40.4c0,1.2-1,2.2-2.2,2.2c-1.2,0-2.2-1-2.2-2.2s1-2.2,2.2-2.2C922,38.2,922.9,39.1,922.9,40.4"/>
		<path fill="#040000" d="M929.6,40.4c0,1.2-1,2.2-2.2,2.2c-1.2,0-2.2-1-2.2-2.2s1-2.2,2.2-2.2C928.6,38.2,929.6,39.1,929.6,40.4"/>
		<path fill="#040000" d="M898.7,46.2c0,1.2-1,2.2-2.2,2.2c-1.2,0-2.2-1-2.2-2.2c0-1.2,1-2.2,2.2-2.2C897.7,44,898.7,45,898.7,46.2"
			/>
		<path fill="#040000" d="M905.4,46.2c0,1.2-1,2.2-2.2,2.2c-1.2,0-2.2-1-2.2-2.2c0-1.2,1-2.2,2.2-2.2C904.4,44,905.4,45,905.4,46.2"
			/>
		<path fill="#040000" d="M912,46.2c0,1.2-1,2.2-2.2,2.2c-1.2,0-2.2-1-2.2-2.2c0-1.2,1-2.2,2.2-2.2C911.1,44,912,45,912,46.2"/>
		<path fill="#040000" d="M918.7,46.2c0,1.2-1,2.2-2.2,2.2s-2.2-1-2.2-2.2c0-1.2,1-2.2,2.2-2.2S918.7,45,918.7,46.2"/>
		<path fill="#040000" d="M925.4,46.2c0,1.2-1,2.2-2.2,2.2c-1.2,0-2.2-1-2.2-2.2c0-1.2,1-2.2,2.2-2.2C924.4,44,925.4,45,925.4,46.2"
			/>
		<path fill="#BDBCBD" d="M880.6,44.5c-0.5,0-0.9-0.3-1.2-0.7l-1.8-3.1c-0.2-0.4-0.2-0.9,0-1.3l1.8-3.1c0.2-0.4,0.7-0.7,1.2-0.7h3.6
			c0.5,0,0.9,0.3,1.1,0.7l1.8,3.1c0.2,0.4,0.2,0.9,0,1.3l-1.8,3.1c-0.2,0.4-0.7,0.7-1.1,0.7H880.6z"/>
		<path fill="#8F8E8E" stroke="#222222" stroke-miterlimit="10" d="M884.2,36c0.3,0,0.7,0.2,0.8,0.5l1.8,3.1c0.2,0.3,0.2,0.7,0,1
			l-1.8,3.1c-0.2,0.3-0.5,0.5-0.8,0.5h-3.6c-0.3,0-0.7-0.2-0.8-0.5l-1.8-3.1c-0.2-0.3-0.2-0.7,0-1l1.8-3.1c0.2-0.3,0.5-0.5,0.8-0.5
			H884.2 M884.2,35.2h-3.6c-0.6,0-1.2,0.3-1.5,0.9l-1.8,3.1c-0.3,0.5-0.3,1.2,0,1.7l1.8,3.1c0.3,0.5,0.9,0.9,1.5,0.9h3.6
			c0.6,0,1.2-0.3,1.5-0.9l1.8-3.1c0.3-0.5,0.3-1.2,0-1.7l-1.8-3.1C885.3,35.6,884.8,35.2,884.2,35.2"/>
		<path fill="#CCCDCD" d="M886,40.1c0,2-1.6,3.6-3.6,3.6c-2,0-3.6-1.6-3.6-3.6s1.6-3.6,3.6-3.6C884.4,36.4,886,38.1,886,40.1"/>
		<ellipse fill="none" stroke="#8F8E8E" stroke-width="0.25" stroke-miterlimit="10" cx="882.4" cy="40.1" rx="3.6" ry="3.6"/>
		<path fill="#414244" d="M884.6,40.1c0,1.2-1,2.2-2.2,2.2c-1.2,0-2.2-1-2.2-2.2c0-1.2,1-2.2,2.2-2.2
			C883.6,37.8,884.6,38.8,884.6,40.1"/>
		<ellipse fill="none" stroke="#040000" stroke-width="0.25" stroke-miterlimit="10" cx="882.4" cy="40.1" rx="2.2" ry="2.2"/>
		<path fill="#8F8E8E" d="M883.1,40.1c0,0.4-0.3,0.7-0.7,0.7c-0.4,0-0.7-0.3-0.7-0.7s0.3-0.7,0.7-0.7
			C882.7,39.4,883.1,39.7,883.1,40.1"/>
		<path fill="#BDBCBD" d="M939.8,44.5c-0.5,0-0.9-0.3-1.2-0.7l-1.8-3.1c-0.2-0.4-0.2-0.9,0-1.3l1.8-3.1c0.2-0.4,0.7-0.7,1.2-0.7h3.6
			c0.5,0,0.9,0.3,1.1,0.7l1.8,3.1c0.2,0.4,0.2,0.9,0,1.3l-1.8,3.1c-0.2,0.4-0.7,0.7-1.1,0.7H939.8z"/>
		<path fill="#8F8E8E" stroke="#222222" stroke-miterlimit="10" d="M943.4,36c0.3,0,0.7,0.2,0.8,0.5l1.8,3.1c0.2,0.3,0.2,0.7,0,1
			l-1.8,3.1c-0.2,0.3-0.5,0.5-0.8,0.5h-3.6c-0.3,0-0.7-0.2-0.8-0.5l-1.8-3.1c-0.2-0.3-0.2-0.7,0-1l1.8-3.1c0.2-0.3,0.5-0.5,0.8-0.5
			H943.4 M943.4,35.2h-3.6c-0.6,0-1.2,0.3-1.5,0.9l-1.8,3.1c-0.3,0.5-0.3,1.2,0,1.7l1.8,3.1c0.3,0.5,0.9,0.9,1.5,0.9h3.6
			c0.6,0,1.2-0.3,1.5-0.9l1.8-3.1c0.3-0.5,0.3-1.2,0-1.7l-1.8-3.1C944.5,35.6,944,35.2,943.4,35.2"/>
		<path fill="#CCCDCD" d="M945.2,40.1c0,2-1.6,3.6-3.6,3.6c-2,0-3.6-1.6-3.6-3.6s1.6-3.6,3.6-3.6C943.6,36.4,945.2,38.1,945.2,40.1"
			/>
		<ellipse fill="none" stroke="#8F8E8E" stroke-width="0.25" stroke-miterlimit="10" cx="941.6" cy="40.1" rx="3.6" ry="3.6"/>
		<path fill="#414244" d="M943.8,40.1c0,1.2-1,2.2-2.2,2.2c-1.2,0-2.2-1-2.2-2.2c0-1.2,1-2.2,2.2-2.2
			C942.8,37.8,943.8,38.8,943.8,40.1"/>
		<ellipse fill="none" stroke="#040000" stroke-width="0.25" stroke-miterlimit="10" cx="941.6" cy="40.1" rx="2.2" ry="2.2"/>
		<path fill="#8F8E8E" d="M942.3,40.1c0,0.4-0.3,0.7-0.7,0.7c-0.4,0-0.7-0.3-0.7-0.7s0.3-0.7,0.7-0.7
			C941.9,39.4,942.3,39.7,942.3,40.1"/>
	</g>
	<g>
		<g>
			<rect x="467.1" y="77.7" fill="#030000" width="315.3" height="162.5"/>
			<g>
				<path fill="#3B3C3F" d="M774.6,148.6c0,3.3-2.4,6-5.3,6H478.7c-2.9,0-5.3-2.7-5.3-6V90.2c0-3.3,2.4-6,5.3-6h290.6
					c2.9,0,5.3,2.7,5.3,6V148.6z"/>
				<g>
					<path fill="#666768" d="M552,119.4c0-14.6,10.1-26.4,22.5-26.4h135.3c12.4,0,22.5,11.8,22.5,26.4l0,0
						c0,14.6-10.1,26.4-22.5,26.4H574.5C562.1,145.8,552,134,552,119.4L552,119.4z"/>
					<path fill="#151515" d="M553.8,118.1c0-13.9,9.9-25.1,22.1-25.1h132.6c12.2,0,22.1,11.2,22.1,25.1l0,0
						c0,13.9-9.9,25.1-22.1,25.1H575.9C563.7,143.2,553.8,132,553.8,118.1L553.8,118.1z"/>
					<g>
						
							<linearGradient id="SVGID_1_" gradientUnits="userSpaceOnUse" x1="-4733.2798" y1="-19161.2051" x2="-4730.1699" y2="-19161.2051" gradientTransform="matrix(-1 0 0 -1 -4054.2073 -19043.0996)">
							<stop  offset="0" style="stop-color:#2A2B2B"/>
							<stop  offset="0.4839" style="stop-color:#888888"/>
							<stop  offset="0.9946" style="stop-color:#434444"/>
						</linearGradient>
						<rect x="676" y="93" fill="url(#SVGID_1_)" width="3.1" height="50.3"/>
						
							<linearGradient id="SVGID_2_" gradientUnits="userSpaceOnUse" x1="-4734.9458" y1="-19184.918" x2="-4728.1714" y2="-19184.918" gradientTransform="matrix(-1 0 0 -1 -4054.2073 -19043.0996)">
							<stop  offset="0" style="stop-color:#2A2B2B"/>
							<stop  offset="0.4839" style="stop-color:#888888"/>
							<stop  offset="0.9946" style="stop-color:#434444"/>
						</linearGradient>
						<rect x="674" y="140.4" fill="url(#SVGID_2_)" width="6.8" height="2.8"/>
						
							<linearGradient id="SVGID_3_" gradientUnits="userSpaceOnUse" x1="-4735.1123" y1="-19137.4902" x2="-4728.3364" y2="-19137.4902" gradientTransform="matrix(-1 0 0 -1 -4054.2073 -19043.0996)">
							<stop  offset="0" style="stop-color:#2A2B2B"/>
							<stop  offset="0.4839" style="stop-color:#888888"/>
							<stop  offset="0.9946" style="stop-color:#434444"/>
						</linearGradient>
						<rect x="674.1" y="93" fill="url(#SVGID_3_)" width="6.8" height="2.8"/>
					</g>
					<g>
						
							<linearGradient id="SVGID_4_" gradientUnits="userSpaceOnUse" x1="-4696.9614" y1="-19161.2051" x2="-4693.8516" y2="-19161.2051" gradientTransform="matrix(-1 0 0 -1 -4054.2073 -19043.0996)">
							<stop  offset="0" style="stop-color:#2A2B2B"/>
							<stop  offset="0.4839" style="stop-color:#888888"/>
							<stop  offset="0.9946" style="stop-color:#434444"/>
						</linearGradient>
						<rect x="639.6" y="93" fill="url(#SVGID_4_)" width="3.1" height="50.3"/>
						
							<linearGradient id="SVGID_5_" gradientUnits="userSpaceOnUse" x1="-4698.6274" y1="-19184.918" x2="-4691.8525" y2="-19184.918" gradientTransform="matrix(-1 0 0 -1 -4054.2073 -19043.0996)">
							<stop  offset="0" style="stop-color:#2A2B2B"/>
							<stop  offset="0.4839" style="stop-color:#888888"/>
							<stop  offset="0.9946" style="stop-color:#434444"/>
						</linearGradient>
						<rect x="637.6" y="140.4" fill="url(#SVGID_5_)" width="6.8" height="2.8"/>
						
							<linearGradient id="SVGID_6_" gradientUnits="userSpaceOnUse" x1="-4698.7939" y1="-19137.4902" x2="-4692.0195" y2="-19137.4902" gradientTransform="matrix(-1 0 0 -1 -4054.2073 -19043.0996)">
							<stop  offset="0" style="stop-color:#2A2B2B"/>
							<stop  offset="0.4839" style="stop-color:#888888"/>
							<stop  offset="0.9946" style="stop-color:#434444"/>
						</linearGradient>
						<rect x="637.8" y="93" fill="url(#SVGID_6_)" width="6.8" height="2.8"/>
					</g>
					<g>
						
							<linearGradient id="SVGID_7_" gradientUnits="userSpaceOnUse" x1="-4660.6436" y1="-19161.2051" x2="-4657.5332" y2="-19161.2051" gradientTransform="matrix(-1 0 0 -1 -4054.2073 -19043.0996)">
							<stop  offset="0" style="stop-color:#2A2B2B"/>
							<stop  offset="0.4839" style="stop-color:#888888"/>
							<stop  offset="0.9946" style="stop-color:#434444"/>
						</linearGradient>
						<rect x="603.3" y="93" fill="url(#SVGID_7_)" width="3.1" height="50.3"/>
						
							<linearGradient id="SVGID_8_" gradientUnits="userSpaceOnUse" x1="-4662.3091" y1="-19184.918" x2="-4655.5352" y2="-19184.918" gradientTransform="matrix(-1 0 0 -1 -4054.2073 -19043.0996)">
							<stop  offset="0" style="stop-color:#2A2B2B"/>
							<stop  offset="0.4839" style="stop-color:#888888"/>
							<stop  offset="0.9946" style="stop-color:#434444"/>
						</linearGradient>
						<rect x="601.3" y="140.4" fill="url(#SVGID_8_)" width="6.8" height="2.8"/>
						
							<linearGradient id="SVGID_10_" gradientUnits="userSpaceOnUse" x1="-4662.4756" y1="-19137.4902" x2="-4655.7007" y2="-19137.4902" gradientTransform="matrix(-1 0 0 -1 -4054.2073 -19043.0996)">
							<stop  offset="0" style="stop-color:#2A2B2B"/>
							<stop  offset="0.4839" style="stop-color:#888888"/>
							<stop  offset="0.9946" style="stop-color:#434444"/>
						</linearGradient>
						<rect x="601.5" y="93" fill="url(#SVGID_10_)" width="6.8" height="2.8"/>
					</g>
				</g>
				<rect x="475.5" y="85.5" fill="#1D1D1D" width="62.4" height="66.9"/>
				<rect x="537.9" y="85.5" fill="#535354" width="2.4" height="66.9"/>
				<linearGradient id="SVGID_12_" gradientUnits="userSpaceOnUse" x1="497.766" y1="152.4256" x2="497.766" y2="85.4783">
					<stop  offset="0" style="stop-color:#3E3A39"/>
					<stop  offset="0.2449" style="stop-color:#888888"/>
					<stop  offset="0.6531" style="stop-color:#3E3A39"/>
					<stop  offset="0.8418" style="stop-color:#888888"/>
					<stop  offset="1" style="stop-color:#3E3A39"/>
				</linearGradient>
				<rect x="494.7" y="85.5" fill="url(#SVGID_12_)" width="6.1" height="66.9"/>
				<linearGradient id="SVGID_13_" gradientUnits="userSpaceOnUse" x1="517.6148" y1="152.4256" x2="517.6148" y2="85.4788">
					<stop  offset="0" style="stop-color:#3E3A39"/>
					<stop  offset="0.2449" style="stop-color:#888888"/>
					<stop  offset="0.6531" style="stop-color:#3E3A39"/>
					<stop  offset="0.8418" style="stop-color:#888888"/>
					<stop  offset="1" style="stop-color:#3E3A39"/>
				</linearGradient>
				<path fill="url(#SVGID_13_)" d="M520.4,152.4h-8.3c0,0,2.7-25.1,2.7-33.5c0-8.4-2.7-33.5-2.7-33.5h8.3c0,0,2.7,25.1,2.7,33.5
					C523.1,127.3,520.4,152.4,520.4,152.4z"/>
				<path fill="#030000" d="M773.4,126.9c0,3.3-2.3,6-5.1,6h-29.1c-2.8,0-5.1-2.7-5.1-6v-14c0-3.3,2.3-6,5.1-6h29.1
					c2.8,0,5.1,2.7,5.1,6V126.9z"/>
				<path fill="#5A5A5D" d="M771.8,126.3c0,3-2.1,5.5-4.7,5.5h-26.7c-2.6,0-4.7-2.5-4.7-5.5v-12.8c0-3,2.1-5.5,4.7-5.5h26.7
					c2.6,0,4.7,2.5,4.7,5.5V126.3z"/>
				<path fill="#3B3C3F" d="M771,126c0,2.9-2,5.3-4.5,5.3h-25.5c-2.5,0-4.5-2.4-4.5-5.3v-12.3c0-2.9,2-5.3,4.5-5.3h25.5
					c2.5,0,4.5,2.4,4.5,5.3V126z"/>
			</g>
			<g>
				<path fill="#3B3C3F" d="M774.6,223.2c0,3.3-2.4,6-5.3,6H478.7c-2.9,0-5.3-2.7-5.3-6v-58.4c0-3.3,2.4-6,5.3-6h290.6
					c2.9,0,5.3,2.7,5.3,6V223.2z"/>
				<g>
					<path fill="#666768" d="M552,194c0-14.6,10.1-26.4,22.5-26.4h135.3c12.4,0,22.5,11.8,22.5,26.4l0,0c0,14.6-10.1,26.4-22.5,26.4
						H574.5C562.1,220.4,552,208.6,552,194L552,194z"/>
					<path fill="#151515" d="M553.8,192.7c0-13.9,9.9-25.1,22.1-25.1h132.6c12.2,0,22.1,11.2,22.1,25.1l0,0
						c0,13.9-9.9,25.1-22.1,25.1H575.9C563.7,217.8,553.8,206.5,553.8,192.7L553.8,192.7z"/>
					<g>
						
							<linearGradient id="SVGID_15_" gradientUnits="userSpaceOnUse" x1="-4733.2798" y1="-19235.7637" x2="-4730.1699" y2="-19235.7637" gradientTransform="matrix(-1 0 0 -1 -4054.2073 -19043.0996)">
							<stop  offset="0" style="stop-color:#2A2B2B"/>
							<stop  offset="0.4839" style="stop-color:#888888"/>
							<stop  offset="0.9946" style="stop-color:#434444"/>
						</linearGradient>
						<rect x="676" y="167.5" fill="url(#SVGID_15_)" width="3.1" height="50.3"/>
						
							<linearGradient id="SVGID_16_" gradientUnits="userSpaceOnUse" x1="-4734.9458" y1="-19259.4766" x2="-4728.1714" y2="-19259.4766" gradientTransform="matrix(-1 0 0 -1 -4054.2073 -19043.0996)">
							<stop  offset="0" style="stop-color:#2A2B2B"/>
							<stop  offset="0.4839" style="stop-color:#888888"/>
							<stop  offset="0.9946" style="stop-color:#434444"/>
						</linearGradient>
						<rect x="674" y="215" fill="url(#SVGID_16_)" width="6.8" height="2.8"/>
						
							<linearGradient id="SVGID_17_" gradientUnits="userSpaceOnUse" x1="-4735.1123" y1="-19212.0488" x2="-4728.3364" y2="-19212.0488" gradientTransform="matrix(-1 0 0 -1 -4054.2073 -19043.0996)">
							<stop  offset="0" style="stop-color:#2A2B2B"/>
							<stop  offset="0.4839" style="stop-color:#888888"/>
							<stop  offset="0.9946" style="stop-color:#434444"/>
						</linearGradient>
						<rect x="674.1" y="167.5" fill="url(#SVGID_17_)" width="6.8" height="2.8"/>
					</g>
					<g>
						
							<linearGradient id="SVGID_18_" gradientUnits="userSpaceOnUse" x1="-4696.9614" y1="-19235.7637" x2="-4693.8516" y2="-19235.7637" gradientTransform="matrix(-1 0 0 -1 -4054.2073 -19043.0996)">
							<stop  offset="0" style="stop-color:#2A2B2B"/>
							<stop  offset="0.4839" style="stop-color:#888888"/>
							<stop  offset="0.9946" style="stop-color:#434444"/>
						</linearGradient>
						<rect x="639.6" y="167.5" fill="url(#SVGID_18_)" width="3.1" height="50.3"/>
						
							<linearGradient id="SVGID_19_" gradientUnits="userSpaceOnUse" x1="-4698.6274" y1="-19259.4766" x2="-4691.8525" y2="-19259.4766" gradientTransform="matrix(-1 0 0 -1 -4054.2073 -19043.0996)">
							<stop  offset="0" style="stop-color:#2A2B2B"/>
							<stop  offset="0.4839" style="stop-color:#888888"/>
							<stop  offset="0.9946" style="stop-color:#434444"/>
						</linearGradient>
						<rect x="637.6" y="215" fill="url(#SVGID_19_)" width="6.8" height="2.8"/>
						
							<linearGradient id="SVGID_20_" gradientUnits="userSpaceOnUse" x1="-4698.7939" y1="-19212.0488" x2="-4692.0195" y2="-19212.0488" gradientTransform="matrix(-1 0 0 -1 -4054.2073 -19043.0996)">
							<stop  offset="0" style="stop-color:#2A2B2B"/>
							<stop  offset="0.4839" style="stop-color:#888888"/>
							<stop  offset="0.9946" style="stop-color:#434444"/>
						</linearGradient>
						<rect x="637.8" y="167.5" fill="url(#SVGID_20_)" width="6.8" height="2.8"/>
					</g>
					<g>
						
							<linearGradient id="SVGID_21_" gradientUnits="userSpaceOnUse" x1="-4660.6436" y1="-19235.7637" x2="-4657.5332" y2="-19235.7637" gradientTransform="matrix(-1 0 0 -1 -4054.2073 -19043.0996)">
							<stop  offset="0" style="stop-color:#2A2B2B"/>
							<stop  offset="0.4839" style="stop-color:#888888"/>
							<stop  offset="0.9946" style="stop-color:#434444"/>
						</linearGradient>
						<rect x="603.3" y="167.5" fill="url(#SVGID_21_)" width="3.1" height="50.3"/>
						
							<linearGradient id="SVGID_24_" gradientUnits="userSpaceOnUse" x1="-4662.3091" y1="-19259.4766" x2="-4655.5352" y2="-19259.4766" gradientTransform="matrix(-1 0 0 -1 -4054.2073 -19043.0996)">
							<stop  offset="0" style="stop-color:#2A2B2B"/>
							<stop  offset="0.4839" style="stop-color:#888888"/>
							<stop  offset="0.9946" style="stop-color:#434444"/>
						</linearGradient>
						<rect x="601.3" y="215" fill="url(#SVGID_24_)" width="6.8" height="2.8"/>
						
							<linearGradient id="SVGID_29_" gradientUnits="userSpaceOnUse" x1="-4662.4756" y1="-19212.0488" x2="-4655.7007" y2="-19212.0488" gradientTransform="matrix(-1 0 0 -1 -4054.2073 -19043.0996)">
							<stop  offset="0" style="stop-color:#2A2B2B"/>
							<stop  offset="0.4839" style="stop-color:#888888"/>
							<stop  offset="0.9946" style="stop-color:#434444"/>
						</linearGradient>
						<rect x="601.5" y="167.5" fill="url(#SVGID_29_)" width="6.8" height="2.8"/>
					</g>
				</g>
				<rect x="475.5" y="160" fill="#1D1D1D" width="62.4" height="66.9"/>
				<rect x="537.9" y="160" fill="#535354" width="2.4" height="66.9"/>
				<g>
					<path fill="#060001" d="M483.5,165c-2.6,0-4.7,2.4-4.7,5.4c0,3,2.1,5.3,4.7,5.3c2.6,0,4.7-2.4,4.7-5.3
						C488.2,167.4,486.1,165,483.5,165"/>
					<g>
						<defs>
							<path id="SVGID_1391_" d="M487.3,170.4c0,2.4-1.7,4.3-3.8,4.3c-2.1,0-3.8-1.9-3.8-4.3c0-2.4,1.7-4.3,3.8-4.3
								C485.6,166.1,487.3,168,487.3,170.4"/>
						</defs>
						<clipPath id="SVGID_32_">
							<use xlink:href="#SVGID_1391_"  overflow="visible"/>
						</clipPath>
						
							<radialGradient id="SVGID_35_" cx="2630.4417" cy="-2686.0032" r="0.755" gradientTransform="matrix(-7.4098 0 0 8.3884 19975.5469 22700.0977)" gradientUnits="userSpaceOnUse">
							<stop  offset="0" style="stop-color:#F4CF4C"/>
							<stop  offset="1" style="stop-color:#DE9212"/>
						</radialGradient>
						<rect x="479.7" y="166.1" clip-path="url(#SVGID_32_)" fill="url(#SVGID_35_)" width="7.6" height="8.6"/>
					</g>
					<g opacity="0.5" enable-background="new    ">
						<g>
							<defs>
								<rect id="SVGID_1394_" x="484" y="167.9" width="1.3" height="1.4"/>
							</defs>
							<clipPath id="SVGID_38_">
								<use xlink:href="#SVGID_1394_"  overflow="visible"/>
							</clipPath>
							<rect x="484" y="167.9" clip-path="url(#SVGID_38_)" fill="#FFFFFF" width="1.3" height="1.4"/>
						</g>
					</g>
					<g opacity="0.5" enable-background="new    ">
						<g>
							<defs>
								<rect id="SVGID_1396_" x="484.6" y="167.9" width="0.6" height="1.4"/>
							</defs>
							<clipPath id="SVGID_39_">
								<use xlink:href="#SVGID_1396_"  overflow="visible"/>
							</clipPath>
							<rect x="484.6" y="167.9" clip-path="url(#SVGID_39_)" fill="#FFFFFF" width="0.6" height="1.4"/>
						</g>
					</g>
				</g>
				<g>
					<path fill="#060001" d="M483.5,182c-2.6,0-4.7,2.4-4.7,5.4c0,3,2.1,5.3,4.7,5.3c2.6,0,4.7-2.4,4.7-5.3
						C488.2,184.4,486.1,182,483.5,182"/>
					<g>
						<defs>
							<path id="SVGID_1398_" d="M487.3,187.3c0,2.4-1.7,4.3-3.8,4.3c-2.1,0-3.8-1.9-3.8-4.3c0-2.4,1.7-4.3,3.8-4.3
								C485.6,183,487.3,184.9,487.3,187.3"/>
						</defs>
						<clipPath id="SVGID_41_">
							<use xlink:href="#SVGID_1398_"  overflow="visible"/>
						</clipPath>
						
							<radialGradient id="SVGID_44_" cx="2630.4419" cy="-2683.9824" r="0.755" gradientTransform="matrix(-7.4098 0 0 8.3884 19975.5469 22700.0977)" gradientUnits="userSpaceOnUse">
							<stop  offset="0" style="stop-color:#F4CF4C"/>
							<stop  offset="1" style="stop-color:#DE9212"/>
						</radialGradient>
						<rect x="479.7" y="183" clip-path="url(#SVGID_41_)" fill="url(#SVGID_44_)" width="7.6" height="8.6"/>
					</g>
					<g opacity="0.5" enable-background="new    ">
						<g>
							<defs>
								<rect id="SVGID_1401_" x="484" y="184.8" width="1.3" height="1.4"/>
							</defs>
							<clipPath id="SVGID_46_">
								<use xlink:href="#SVGID_1401_"  overflow="visible"/>
							</clipPath>
							<rect x="484" y="184.8" clip-path="url(#SVGID_46_)" fill="#FFFFFF" width="1.3" height="1.4"/>
						</g>
					</g>
					<g opacity="0.5" enable-background="new    ">
						<g>
							<defs>
								<rect id="SVGID_1403_" x="484.6" y="184.8" width="0.6" height="1.4"/>
							</defs>
							<clipPath id="SVGID_48_">
								<use xlink:href="#SVGID_1403_"  overflow="visible"/>
							</clipPath>
							<rect x="484.6" y="184.8" clip-path="url(#SVGID_48_)" fill="#FFFFFF" width="0.6" height="1.4"/>
						</g>
					</g>
				</g>
				<linearGradient id="SVGID_49_" gradientUnits="userSpaceOnUse" x1="497.766" y1="226.9844" x2="497.766" y2="160.0371">
					<stop  offset="0" style="stop-color:#3E3A39"/>
					<stop  offset="0.2449" style="stop-color:#888888"/>
					<stop  offset="0.6531" style="stop-color:#3E3A39"/>
					<stop  offset="0.8418" style="stop-color:#888888"/>
					<stop  offset="1" style="stop-color:#3E3A39"/>
				</linearGradient>
				<rect x="494.7" y="160" fill="url(#SVGID_49_)" width="6.1" height="66.9"/>
				<linearGradient id="SVGID_52_" gradientUnits="userSpaceOnUse" x1="517.6148" y1="226.9844" x2="517.6148" y2="160.0376">
					<stop  offset="0" style="stop-color:#3E3A39"/>
					<stop  offset="0.2449" style="stop-color:#888888"/>
					<stop  offset="0.6531" style="stop-color:#3E3A39"/>
					<stop  offset="0.8418" style="stop-color:#888888"/>
					<stop  offset="1" style="stop-color:#3E3A39"/>
				</linearGradient>
				<path fill="url(#SVGID_52_)" d="M520.4,227h-8.3c0,0,2.7-25.1,2.7-33.5s-2.7-33.5-2.7-33.5h8.3c0,0,2.7,25.1,2.7,33.5
					S520.4,227,520.4,227z"/>
				<path fill="#030000" d="M773.4,201.4c0,3.3-2.3,6-5.1,6h-29.1c-2.8,0-5.1-2.7-5.1-6v-14c0-3.3,2.3-6,5.1-6h29.1
					c2.8,0,5.1,2.7,5.1,6V201.4z"/>
				<path fill="#5A5A5D" d="M771.8,200.9c0,3-2.1,5.5-4.7,5.5h-26.7c-2.6,0-4.7-2.5-4.7-5.5V188c0-3,2.1-5.5,4.7-5.5h26.7
					c2.6,0,4.7,2.5,4.7,5.5V200.9z"/>
				<path fill="#3B3C3F" d="M771,200.6c0,2.9-2,5.3-4.5,5.3h-25.5c-2.5,0-4.5-2.4-4.5-5.3v-12.3c0-2.9,2-5.3,4.5-5.3h25.5
					c2.5,0,4.5,2.4,4.5,5.3V200.6z"/>
			</g>
		</g>
	</g>
	<g>
		<g>
			<rect x="87.8" y="77.7" fill="#030000" width="340.7" height="86.5"/>
			<g>
				<path fill="#3B3C3F" d="M420,149.9c0,3.3-2.6,6-5.7,6H100.3c-3.2,0-5.7-2.7-5.7-6V91.5c0-3.3,2.6-6,5.7-6h313.9
					c3.2,0,5.7,2.7,5.7,6V149.9z"/>
				<g>
					<path fill="#666768" d="M179.5,120.7c0-14.6,10.9-26.4,24.3-26.4h146.2c13.4,0,24.3,11.8,24.3,26.4l0,0
						c0,14.6-10.9,26.4-24.3,26.4H203.9C190.4,147.1,179.5,135.3,179.5,120.7L179.5,120.7z"/>
					<path fill="#151515" d="M181.5,119.4c0-13.9,10.7-25.1,23.9-25.1h143.3c13.2,0,23.9,11.2,23.9,25.1l0,0
						c0,13.9-10.7,25.1-23.9,25.1H205.3C192.1,144.5,181.5,133.2,181.5,119.4L181.5,119.4z"/>
					<g>
						
							<linearGradient id="SVGID_53_" gradientUnits="userSpaceOnUse" x1="-4371.0322" y1="-19162.4551" x2="-4367.6724" y2="-19162.4551" gradientTransform="matrix(-1 0 0 -1 -4054.2073 -19043.0996)">
							<stop  offset="0" style="stop-color:#2A2B2B"/>
							<stop  offset="0.4839" style="stop-color:#888888"/>
							<stop  offset="0.9946" style="stop-color:#434444"/>
						</linearGradient>
						<rect x="313.5" y="94.2" fill="url(#SVGID_53_)" width="3.4" height="50.3"/>
						
							<linearGradient id="SVGID_55_" gradientUnits="userSpaceOnUse" x1="-4372.8325" y1="-19186.168" x2="-4365.5132" y2="-19186.168" gradientTransform="matrix(-1 0 0 -1 -4054.2073 -19043.0996)">
							<stop  offset="0" style="stop-color:#2A2B2B"/>
							<stop  offset="0.4839" style="stop-color:#888888"/>
							<stop  offset="0.9946" style="stop-color:#434444"/>
						</linearGradient>
						<rect x="311.3" y="141.7" fill="url(#SVGID_55_)" width="7.3" height="2.8"/>
						
							<linearGradient id="SVGID_57_" gradientUnits="userSpaceOnUse" x1="-4373.0127" y1="-19138.7402" x2="-4365.6914" y2="-19138.7402" gradientTransform="matrix(-1 0 0 -1 -4054.2073 -19043.0996)">
							<stop  offset="0" style="stop-color:#2A2B2B"/>
							<stop  offset="0.4839" style="stop-color:#888888"/>
							<stop  offset="0.9946" style="stop-color:#434444"/>
						</linearGradient>
						<rect x="311.5" y="94.2" fill="url(#SVGID_57_)" width="7.3" height="2.8"/>
					</g>
					<g>
						
							<linearGradient id="SVGID_60_" gradientUnits="userSpaceOnUse" x1="-4331.7925" y1="-19162.4551" x2="-4328.4321" y2="-19162.4551" gradientTransform="matrix(-1 0 0 -1 -4054.2073 -19043.0996)">
							<stop  offset="0" style="stop-color:#2A2B2B"/>
							<stop  offset="0.4839" style="stop-color:#888888"/>
							<stop  offset="0.9946" style="stop-color:#434444"/>
						</linearGradient>
						<rect x="274.2" y="94.2" fill="url(#SVGID_60_)" width="3.4" height="50.3"/>
						
							<linearGradient id="SVGID_62_" gradientUnits="userSpaceOnUse" x1="-4333.5923" y1="-19186.168" x2="-4326.2725" y2="-19186.168" gradientTransform="matrix(-1 0 0 -1 -4054.2073 -19043.0996)">
							<stop  offset="0" style="stop-color:#2A2B2B"/>
							<stop  offset="0.4839" style="stop-color:#888888"/>
							<stop  offset="0.9946" style="stop-color:#434444"/>
						</linearGradient>
						<rect x="272.1" y="141.7" fill="url(#SVGID_62_)" width="7.3" height="2.8"/>
						
							<linearGradient id="SVGID_64_" gradientUnits="userSpaceOnUse" x1="-4333.772" y1="-19138.7402" x2="-4326.4531" y2="-19138.7402" gradientTransform="matrix(-1 0 0 -1 -4054.2073 -19043.0996)">
							<stop  offset="0" style="stop-color:#2A2B2B"/>
							<stop  offset="0.4839" style="stop-color:#888888"/>
							<stop  offset="0.9946" style="stop-color:#434444"/>
						</linearGradient>
						<rect x="272.2" y="94.2" fill="url(#SVGID_64_)" width="7.3" height="2.8"/>
					</g>
					<g>
						
							<linearGradient id="SVGID_65_" gradientUnits="userSpaceOnUse" x1="-4292.5522" y1="-19162.4551" x2="-4289.1919" y2="-19162.4551" gradientTransform="matrix(-1 0 0 -1 -4054.2073 -19043.0996)">
							<stop  offset="0" style="stop-color:#2A2B2B"/>
							<stop  offset="0.4839" style="stop-color:#888888"/>
							<stop  offset="0.9946" style="stop-color:#434444"/>
						</linearGradient>
						<rect x="235" y="94.2" fill="url(#SVGID_65_)" width="3.4" height="50.3"/>
						
							<linearGradient id="SVGID_66_" gradientUnits="userSpaceOnUse" x1="-4294.3521" y1="-19186.168" x2="-4287.0327" y2="-19186.168" gradientTransform="matrix(-1 0 0 -1 -4054.2073 -19043.0996)">
							<stop  offset="0" style="stop-color:#2A2B2B"/>
							<stop  offset="0.4839" style="stop-color:#888888"/>
							<stop  offset="0.9946" style="stop-color:#434444"/>
						</linearGradient>
						<rect x="232.8" y="141.7" fill="url(#SVGID_66_)" width="7.3" height="2.8"/>
						
							<linearGradient id="SVGID_68_" gradientUnits="userSpaceOnUse" x1="-4294.5317" y1="-19138.7402" x2="-4287.2119" y2="-19138.7402" gradientTransform="matrix(-1 0 0 -1 -4054.2073 -19043.0996)">
							<stop  offset="0" style="stop-color:#2A2B2B"/>
							<stop  offset="0.4839" style="stop-color:#888888"/>
							<stop  offset="0.9946" style="stop-color:#434444"/>
						</linearGradient>
						<rect x="233" y="94.2" fill="url(#SVGID_68_)" width="7.3" height="2.8"/>
					</g>
				</g>
				<rect x="96.8" y="86.7" fill="#1D1D1D" width="67.4" height="66.9"/>
				<rect x="164.3" y="86.7" fill="#535354" width="2.5" height="66.9"/>
				<g>
					<path fill="#060001" d="M105.5,91.7c-2.8,0-5.1,2.4-5.1,5.4c0,3,2.3,5.3,5.1,5.3c2.8,0,5.1-2.4,5.1-5.3
						C110.6,94.1,108.3,91.7,105.5,91.7"/>
					<g>
						<defs>
							<path id="SVGID_1416_" d="M109.6,97.1c0,2.4-1.8,4.3-4.1,4.3c-2.3,0-4.1-1.9-4.1-4.3c0-2.4,1.8-4.3,4.1-4.3
								C107.8,92.8,109.6,94.7,109.6,97.1"/>
						</defs>
						<clipPath id="SVGID_69_">
							<use xlink:href="#SVGID_1416_"  overflow="visible"/>
						</clipPath>
						
							<radialGradient id="SVGID_71_" cx="2704.5547" cy="-2694.7424" r="0.755" gradientTransform="matrix(-8.006 0 0 8.3884 21759.1582 22700.0977)" gradientUnits="userSpaceOnUse">
							<stop  offset="0" style="stop-color:#F4CF4C"/>
							<stop  offset="1" style="stop-color:#DE9212"/>
						</radialGradient>
						<rect x="101.4" y="92.8" clip-path="url(#SVGID_69_)" fill="url(#SVGID_71_)" width="8.2" height="8.6"/>
					</g>
					<g opacity="0.5" enable-background="new    ">
						<g>
							<defs>
								<rect id="SVGID_1419_" x="106" y="94.6" width="1.4" height="1.4"/>
							</defs>
							<clipPath id="SVGID_74_">
								<use xlink:href="#SVGID_1419_"  overflow="visible"/>
							</clipPath>
							<rect x="106" y="94.6" clip-path="url(#SVGID_74_)" fill="#FFFFFF" width="1.4" height="1.4"/>
						</g>
					</g>
					<g opacity="0.5" enable-background="new    ">
						<g>
							<defs>
								<rect id="SVGID_1421_" x="106.7" y="94.6" width="0.7" height="1.4"/>
							</defs>
							<clipPath id="SVGID_105_">
								<use xlink:href="#SVGID_1421_"  overflow="visible"/>
							</clipPath>
							<rect x="106.7" y="94.6" clip-path="url(#SVGID_105_)" fill="#FFFFFF" width="0.7" height="1.4"/>
						</g>
					</g>
				</g>
				<g>
					<path fill="#060001" d="M105.5,108.7c-2.8,0-5.1,2.4-5.1,5.4c0,3,2.3,5.3,5.1,5.3c2.8,0,5.1-2.4,5.1-5.3
						C110.6,111,108.3,108.7,105.5,108.7"/>
					<g>
						<defs>
							<path id="SVGID_1423_" d="M109.6,114c0,2.4-1.8,4.3-4.1,4.3c-2.3,0-4.1-1.9-4.1-4.3c0-2.4,1.8-4.3,4.1-4.3
								C107.8,109.7,109.6,111.6,109.6,114"/>
						</defs>
						<clipPath id="SVGID_106_">
							<use xlink:href="#SVGID_1423_"  overflow="visible"/>
						</clipPath>
						
							<radialGradient id="SVGID_107_" cx="2704.5547" cy="-2692.7217" r="0.755" gradientTransform="matrix(-8.006 0 0 8.3884 21759.1582 22700.0977)" gradientUnits="userSpaceOnUse">
							<stop  offset="0" style="stop-color:#F4CF4C"/>
							<stop  offset="1" style="stop-color:#DE9212"/>
						</radialGradient>
						<rect x="101.4" y="109.7" clip-path="url(#SVGID_106_)" fill="url(#SVGID_107_)" width="8.2" height="8.6"/>
					</g>
					<g opacity="0.5" enable-background="new    ">
						<g>
							<defs>
								<rect id="SVGID_1426_" x="106" y="111.5" width="1.4" height="1.4"/>
							</defs>
							<clipPath id="SVGID_108_">
								<use xlink:href="#SVGID_1426_"  overflow="visible"/>
							</clipPath>
							<rect x="106" y="111.5" clip-path="url(#SVGID_108_)" fill="#FFFFFF" width="1.4" height="1.4"/>
						</g>
					</g>
					<g opacity="0.5" enable-background="new    ">
						<g>
							<defs>
								<rect id="SVGID_1428_" x="106.7" y="111.5" width="0.7" height="1.4"/>
							</defs>
							<clipPath id="SVGID_109_">
								<use xlink:href="#SVGID_1428_"  overflow="visible"/>
							</clipPath>
							<rect x="106.7" y="111.5" clip-path="url(#SVGID_109_)" fill="#FFFFFF" width="0.7" height="1.4"/>
						</g>
					</g>
				</g>
				<linearGradient id="SVGID_110_" gradientUnits="userSpaceOnUse" x1="120.9317" y1="153.6756" x2="120.9317" y2="86.7283">
					<stop  offset="0" style="stop-color:#3E3A39"/>
					<stop  offset="0.2449" style="stop-color:#888888"/>
					<stop  offset="0.6531" style="stop-color:#3E3A39"/>
					<stop  offset="0.8418" style="stop-color:#888888"/>
					<stop  offset="1" style="stop-color:#3E3A39"/>
				</linearGradient>
				<rect x="117.6" y="86.7" fill="url(#SVGID_110_)" width="6.6" height="66.9"/>
				<linearGradient id="SVGID_111_" gradientUnits="userSpaceOnUse" x1="142.3774" y1="153.6756" x2="142.3774" y2="86.7288">
					<stop  offset="0" style="stop-color:#3E3A39"/>
					<stop  offset="0.2449" style="stop-color:#888888"/>
					<stop  offset="0.6531" style="stop-color:#3E3A39"/>
					<stop  offset="0.8418" style="stop-color:#888888"/>
					<stop  offset="1" style="stop-color:#3E3A39"/>
				</linearGradient>
				<path fill="url(#SVGID_111_)" d="M145.4,153.7h-8.9c0,0,2.9-25.1,2.9-33.5s-2.9-33.5-2.9-33.5h8.9c0,0,2.9,25.1,2.9,33.5
					S145.4,153.7,145.4,153.7z"/>
				<path fill="#030000" d="M418.8,128.1c0,3.3-2.5,6-5.5,6h-31.4c-3,0-5.5-2.7-5.5-6v-14c0-3.3,2.5-6,5.5-6h31.4c3,0,5.5,2.7,5.5,6
					V128.1z"/>
				<path fill="#5A5A5D" d="M417,127.6c0,3-2.3,5.5-5,5.5h-28.8c-2.8,0-5-2.5-5-5.5v-12.8c0-3,2.3-5.5,5-5.5H412c2.8,0,5,2.5,5,5.5
					V127.6z"/>
				<path fill="#3B3C3F" d="M416.1,127.3c0,2.9-2.2,5.3-4.8,5.3h-27.5c-2.7,0-4.8-2.4-4.8-5.3V115c0-2.9,2.2-5.3,4.8-5.3h27.5
					c2.7,0,4.8,2.4,4.8,5.3V127.3z"/>
			</g>
		</g>
	</g>
	<g>
		<rect x="801" y="77.7" fill="#030000" width="315.3" height="162.5"/>
		<g>
			<path fill="#3B3C3F" d="M1108.4,148.6c0,3.3-2.4,6-5.3,6H812.5c-2.9,0-5.3-2.7-5.3-6V90.2c0-3.3,2.4-6,5.3-6h290.6
				c2.9,0,5.3,2.7,5.3,6V148.6z"/>
			<g>
				<path fill="#666768" d="M885.8,119.4c0-14.6,10.1-26.4,22.5-26.4h135.3c12.4,0,22.5,11.8,22.5,26.4l0,0
					c0,14.6-10.1,26.4-22.5,26.4H908.4C895.9,145.8,885.8,134,885.8,119.4L885.8,119.4z"/>
				<path fill="#151515" d="M887.6,118.1c0-13.9,9.9-25.1,22.1-25.1h132.6c12.2,0,22.1,11.2,22.1,25.1l0,0
					c0,13.9-9.9,25.1-22.1,25.1H909.7C897.5,143.2,887.6,132,887.6,118.1L887.6,118.1z"/>
				<g>
					
						<linearGradient id="SVGID_112_" gradientUnits="userSpaceOnUse" x1="-5067.1104" y1="-19161.2051" x2="-5064.001" y2="-19161.2051" gradientTransform="matrix(-1 0 0 -1 -4054.2073 -19043.0996)">
						<stop  offset="0" style="stop-color:#2A2B2B"/>
						<stop  offset="0.4839" style="stop-color:#888888"/>
						<stop  offset="0.9946" style="stop-color:#434444"/>
					</linearGradient>
					<rect x="1009.8" y="93" fill="url(#SVGID_112_)" width="3.1" height="50.3"/>
					
						<linearGradient id="SVGID_113_" gradientUnits="userSpaceOnUse" x1="-5068.7769" y1="-19184.918" x2="-5062.0024" y2="-19184.918" gradientTransform="matrix(-1 0 0 -1 -4054.2073 -19043.0996)">
						<stop  offset="0" style="stop-color:#2A2B2B"/>
						<stop  offset="0.4839" style="stop-color:#888888"/>
						<stop  offset="0.9946" style="stop-color:#434444"/>
					</linearGradient>
					<rect x="1007.8" y="140.4" fill="url(#SVGID_113_)" width="6.8" height="2.8"/>
					
						<linearGradient id="SVGID_114_" gradientUnits="userSpaceOnUse" x1="-5068.9434" y1="-19137.4902" x2="-5062.167" y2="-19137.4902" gradientTransform="matrix(-1 0 0 -1 -4054.2073 -19043.0996)">
						<stop  offset="0" style="stop-color:#2A2B2B"/>
						<stop  offset="0.4839" style="stop-color:#888888"/>
						<stop  offset="0.9946" style="stop-color:#434444"/>
					</linearGradient>
					<rect x="1008" y="93" fill="url(#SVGID_114_)" width="6.8" height="2.8"/>
				</g>
				<g>
					
						<linearGradient id="SVGID_115_" gradientUnits="userSpaceOnUse" x1="-5030.792" y1="-19161.2051" x2="-5027.6821" y2="-19161.2051" gradientTransform="matrix(-1 0 0 -1 -4054.2073 -19043.0996)">
						<stop  offset="0" style="stop-color:#2A2B2B"/>
						<stop  offset="0.4839" style="stop-color:#888888"/>
						<stop  offset="0.9946" style="stop-color:#434444"/>
					</linearGradient>
					<rect x="973.5" y="93" fill="url(#SVGID_115_)" width="3.1" height="50.3"/>
					
						<linearGradient id="SVGID_116_" gradientUnits="userSpaceOnUse" x1="-5032.4585" y1="-19184.918" x2="-5025.6831" y2="-19184.918" gradientTransform="matrix(-1 0 0 -1 -4054.2073 -19043.0996)">
						<stop  offset="0" style="stop-color:#2A2B2B"/>
						<stop  offset="0.4839" style="stop-color:#888888"/>
						<stop  offset="0.9946" style="stop-color:#434444"/>
					</linearGradient>
					<rect x="971.5" y="140.4" fill="url(#SVGID_116_)" width="6.8" height="2.8"/>
					
						<linearGradient id="SVGID_117_" gradientUnits="userSpaceOnUse" x1="-5032.6245" y1="-19137.4902" x2="-5025.8501" y2="-19137.4902" gradientTransform="matrix(-1 0 0 -1 -4054.2073 -19043.0996)">
						<stop  offset="0" style="stop-color:#2A2B2B"/>
						<stop  offset="0.4839" style="stop-color:#888888"/>
						<stop  offset="0.9946" style="stop-color:#434444"/>
					</linearGradient>
					<rect x="971.6" y="93" fill="url(#SVGID_117_)" width="6.8" height="2.8"/>
				</g>
				<g>
					
						<linearGradient id="SVGID_118_" gradientUnits="userSpaceOnUse" x1="-4994.4741" y1="-19161.2051" x2="-4991.3638" y2="-19161.2051" gradientTransform="matrix(-1 0 0 -1 -4054.2073 -19043.0996)">
						<stop  offset="0" style="stop-color:#2A2B2B"/>
						<stop  offset="0.4839" style="stop-color:#888888"/>
						<stop  offset="0.9946" style="stop-color:#434444"/>
					</linearGradient>
					<rect x="937.2" y="93" fill="url(#SVGID_118_)" width="3.1" height="50.3"/>
					
						<linearGradient id="SVGID_119_" gradientUnits="userSpaceOnUse" x1="-4996.1396" y1="-19184.918" x2="-4989.3652" y2="-19184.918" gradientTransform="matrix(-1 0 0 -1 -4054.2073 -19043.0996)">
						<stop  offset="0" style="stop-color:#2A2B2B"/>
						<stop  offset="0.4839" style="stop-color:#888888"/>
						<stop  offset="0.9946" style="stop-color:#434444"/>
					</linearGradient>
					<rect x="935.2" y="140.4" fill="url(#SVGID_119_)" width="6.8" height="2.8"/>
					
						<linearGradient id="SVGID_120_" gradientUnits="userSpaceOnUse" x1="-4996.3062" y1="-19137.4902" x2="-4989.5317" y2="-19137.4902" gradientTransform="matrix(-1 0 0 -1 -4054.2073 -19043.0996)">
						<stop  offset="0" style="stop-color:#2A2B2B"/>
						<stop  offset="0.4839" style="stop-color:#888888"/>
						<stop  offset="0.9946" style="stop-color:#434444"/>
					</linearGradient>
					<rect x="935.3" y="93" fill="url(#SVGID_120_)" width="6.8" height="2.8"/>
				</g>
			</g>
			<rect x="809.3" y="85.5" fill="#1D1D1D" width="62.4" height="66.9"/>
			<rect x="871.7" y="85.5" fill="#535354" width="2.4" height="66.9"/>
			<linearGradient id="SVGID_121_" gradientUnits="userSpaceOnUse" x1="831.5968" y1="152.4256" x2="831.5968" y2="85.4783">
				<stop  offset="0" style="stop-color:#3E3A39"/>
				<stop  offset="0.2449" style="stop-color:#888888"/>
				<stop  offset="0.6531" style="stop-color:#3E3A39"/>
				<stop  offset="0.8418" style="stop-color:#888888"/>
				<stop  offset="1" style="stop-color:#3E3A39"/>
			</linearGradient>
			<rect x="828.5" y="85.5" fill="url(#SVGID_121_)" width="6.1" height="66.9"/>
			<linearGradient id="SVGID_122_" gradientUnits="userSpaceOnUse" x1="851.4453" y1="152.4256" x2="851.4453" y2="85.4788">
				<stop  offset="0" style="stop-color:#3E3A39"/>
				<stop  offset="0.2449" style="stop-color:#888888"/>
				<stop  offset="0.6531" style="stop-color:#3E3A39"/>
				<stop  offset="0.8418" style="stop-color:#888888"/>
				<stop  offset="1" style="stop-color:#3E3A39"/>
			</linearGradient>
			<path fill="url(#SVGID_122_)" d="M854.3,152.4H846c0,0,2.7-25.1,2.7-33.5c0-8.4-2.7-33.5-2.7-33.5h8.3c0,0,2.7,25.1,2.7,33.5
				C856.9,127.3,854.3,152.4,854.3,152.4z"/>
			<path fill="#030000" d="M1107.2,126.9c0,3.3-2.3,6-5.1,6h-29.1c-2.8,0-5.1-2.7-5.1-6v-14c0-3.3,2.3-6,5.1-6h29.1
				c2.8,0,5.1,2.7,5.1,6V126.9z"/>
			<path fill="#5A5A5D" d="M1105.6,126.3c0,3-2.1,5.5-4.7,5.5h-26.7c-2.6,0-4.7-2.5-4.7-5.5v-12.8c0-3,2.1-5.5,4.7-5.5h26.7
				c2.6,0,4.7,2.5,4.7,5.5V126.3z"/>
			<path fill="#3B3C3F" d="M1104.8,126c0,2.9-2,5.3-4.5,5.3h-25.5c-2.5,0-4.5-2.4-4.5-5.3v-12.3c0-2.9,2-5.3,4.5-5.3h25.5
				c2.5,0,4.5,2.4,4.5,5.3V126z"/>
		</g>
		<g>
			<path fill="#3B3C3F" d="M1108.4,223.2c0,3.3-2.4,6-5.3,6H812.5c-2.9,0-5.3-2.7-5.3-6v-58.4c0-3.3,2.4-6,5.3-6h290.6
				c2.9,0,5.3,2.7,5.3,6V223.2z"/>
			<g>
				<path fill="#666768" d="M885.8,194c0-14.6,10.1-26.4,22.5-26.4h135.3c12.4,0,22.5,11.8,22.5,26.4l0,0
					c0,14.6-10.1,26.4-22.5,26.4H908.4C895.9,220.4,885.8,208.6,885.8,194L885.8,194z"/>
				<path fill="#151515" d="M887.6,192.7c0-13.9,9.9-25.1,22.1-25.1h132.6c12.2,0,22.1,11.2,22.1,25.1l0,0
					c0,13.9-9.9,25.1-22.1,25.1H909.7C897.5,217.8,887.6,206.5,887.6,192.7L887.6,192.7z"/>
				<g>
					
						<linearGradient id="SVGID_123_" gradientUnits="userSpaceOnUse" x1="-5067.1104" y1="-19235.7637" x2="-5064.001" y2="-19235.7637" gradientTransform="matrix(-1 0 0 -1 -4054.2073 -19043.0996)">
						<stop  offset="0" style="stop-color:#2A2B2B"/>
						<stop  offset="0.4839" style="stop-color:#888888"/>
						<stop  offset="0.9946" style="stop-color:#434444"/>
					</linearGradient>
					<rect x="1009.8" y="167.5" fill="url(#SVGID_123_)" width="3.1" height="50.3"/>
					
						<linearGradient id="SVGID_124_" gradientUnits="userSpaceOnUse" x1="-5068.7769" y1="-19259.4766" x2="-5062.0024" y2="-19259.4766" gradientTransform="matrix(-1 0 0 -1 -4054.2073 -19043.0996)">
						<stop  offset="0" style="stop-color:#2A2B2B"/>
						<stop  offset="0.4839" style="stop-color:#888888"/>
						<stop  offset="0.9946" style="stop-color:#434444"/>
					</linearGradient>
					<rect x="1007.8" y="215" fill="url(#SVGID_124_)" width="6.8" height="2.8"/>
					
						<linearGradient id="SVGID_125_" gradientUnits="userSpaceOnUse" x1="-5068.9434" y1="-19212.0488" x2="-5062.167" y2="-19212.0488" gradientTransform="matrix(-1 0 0 -1 -4054.2073 -19043.0996)">
						<stop  offset="0" style="stop-color:#2A2B2B"/>
						<stop  offset="0.4839" style="stop-color:#888888"/>
						<stop  offset="0.9946" style="stop-color:#434444"/>
					</linearGradient>
					<rect x="1008" y="167.5" fill="url(#SVGID_125_)" width="6.8" height="2.8"/>
				</g>
				<g>
					
						<linearGradient id="SVGID_126_" gradientUnits="userSpaceOnUse" x1="-5030.792" y1="-19235.7637" x2="-5027.6821" y2="-19235.7637" gradientTransform="matrix(-1 0 0 -1 -4054.2073 -19043.0996)">
						<stop  offset="0" style="stop-color:#2A2B2B"/>
						<stop  offset="0.4839" style="stop-color:#888888"/>
						<stop  offset="0.9946" style="stop-color:#434444"/>
					</linearGradient>
					<rect x="973.5" y="167.5" fill="url(#SVGID_126_)" width="3.1" height="50.3"/>
					
						<linearGradient id="SVGID_127_" gradientUnits="userSpaceOnUse" x1="-5032.4585" y1="-19259.4766" x2="-5025.6831" y2="-19259.4766" gradientTransform="matrix(-1 0 0 -1 -4054.2073 -19043.0996)">
						<stop  offset="0" style="stop-color:#2A2B2B"/>
						<stop  offset="0.4839" style="stop-color:#888888"/>
						<stop  offset="0.9946" style="stop-color:#434444"/>
					</linearGradient>
					<rect x="971.5" y="215" fill="url(#SVGID_127_)" width="6.8" height="2.8"/>
					
						<linearGradient id="SVGID_128_" gradientUnits="userSpaceOnUse" x1="-5032.6245" y1="-19212.0488" x2="-5025.8501" y2="-19212.0488" gradientTransform="matrix(-1 0 0 -1 -4054.2073 -19043.0996)">
						<stop  offset="0" style="stop-color:#2A2B2B"/>
						<stop  offset="0.4839" style="stop-color:#888888"/>
						<stop  offset="0.9946" style="stop-color:#434444"/>
					</linearGradient>
					<rect x="971.6" y="167.5" fill="url(#SVGID_128_)" width="6.8" height="2.8"/>
				</g>
				<g>
					
						<linearGradient id="SVGID_129_" gradientUnits="userSpaceOnUse" x1="-4994.4741" y1="-19235.7637" x2="-4991.3638" y2="-19235.7637" gradientTransform="matrix(-1 0 0 -1 -4054.2073 -19043.0996)">
						<stop  offset="0" style="stop-color:#2A2B2B"/>
						<stop  offset="0.4839" style="stop-color:#888888"/>
						<stop  offset="0.9946" style="stop-color:#434444"/>
					</linearGradient>
					<rect x="937.2" y="167.5" fill="url(#SVGID_129_)" width="3.1" height="50.3"/>
					
						<linearGradient id="SVGID_130_" gradientUnits="userSpaceOnUse" x1="-4996.1396" y1="-19259.4766" x2="-4989.3652" y2="-19259.4766" gradientTransform="matrix(-1 0 0 -1 -4054.2073 -19043.0996)">
						<stop  offset="0" style="stop-color:#2A2B2B"/>
						<stop  offset="0.4839" style="stop-color:#888888"/>
						<stop  offset="0.9946" style="stop-color:#434444"/>
					</linearGradient>
					<rect x="935.2" y="215" fill="url(#SVGID_130_)" width="6.8" height="2.8"/>
					
						<linearGradient id="SVGID_131_" gradientUnits="userSpaceOnUse" x1="-4996.3062" y1="-19212.0488" x2="-4989.5317" y2="-19212.0488" gradientTransform="matrix(-1 0 0 -1 -4054.2073 -19043.0996)">
						<stop  offset="0" style="stop-color:#2A2B2B"/>
						<stop  offset="0.4839" style="stop-color:#888888"/>
						<stop  offset="0.9946" style="stop-color:#434444"/>
					</linearGradient>
					<rect x="935.3" y="167.5" fill="url(#SVGID_131_)" width="6.8" height="2.8"/>
				</g>
			</g>
			<rect x="809.3" y="160" fill="#1D1D1D" width="62.4" height="66.9"/>
			<rect x="871.7" y="160" fill="#535354" width="2.4" height="66.9"/>
			<linearGradient id="SVGID_132_" gradientUnits="userSpaceOnUse" x1="831.5968" y1="226.9844" x2="831.5968" y2="160.0371">
				<stop  offset="0" style="stop-color:#3E3A39"/>
				<stop  offset="0.2449" style="stop-color:#888888"/>
				<stop  offset="0.6531" style="stop-color:#3E3A39"/>
				<stop  offset="0.8418" style="stop-color:#888888"/>
				<stop  offset="1" style="stop-color:#3E3A39"/>
			</linearGradient>
			<rect x="828.5" y="160" fill="url(#SVGID_132_)" width="6.1" height="66.9"/>
			<linearGradient id="SVGID_133_" gradientUnits="userSpaceOnUse" x1="851.4453" y1="226.9844" x2="851.4453" y2="160.0376">
				<stop  offset="0" style="stop-color:#3E3A39"/>
				<stop  offset="0.2449" style="stop-color:#888888"/>
				<stop  offset="0.6531" style="stop-color:#3E3A39"/>
				<stop  offset="0.8418" style="stop-color:#888888"/>
				<stop  offset="1" style="stop-color:#3E3A39"/>
			</linearGradient>
			<path fill="url(#SVGID_133_)" d="M854.3,227H846c0,0,2.7-25.1,2.7-33.5S846,160,846,160h8.3c0,0,2.7,25.1,2.7,33.5
				S854.3,227,854.3,227z"/>
			<path fill="#030000" d="M1107.2,201.4c0,3.3-2.3,6-5.1,6h-29.1c-2.8,0-5.1-2.7-5.1-6v-14c0-3.3,2.3-6,5.1-6h29.1
				c2.8,0,5.1,2.7,5.1,6V201.4z"/>
			<path fill="#5A5A5D" d="M1105.6,200.9c0,3-2.1,5.5-4.7,5.5h-26.7c-2.6,0-4.7-2.5-4.7-5.5V188c0-3,2.1-5.5,4.7-5.5h26.7
				c2.6,0,4.7,2.5,4.7,5.5V200.9z"/>
			<path fill="#3B3C3F" d="M1104.8,200.6c0,2.9-2,5.3-4.5,5.3h-25.5c-2.5,0-4.5-2.4-4.5-5.3v-12.3c0-2.9,2-5.3,4.5-5.3h25.5
				c2.5,0,4.5,2.4,4.5,5.3V200.6z"/>
		</g>
	</g>
	<g>
		<linearGradient id="SVGID_134_" gradientUnits="userSpaceOnUse" x1="25.5161" y1="103.4798" x2="25.5161" y2="14.1941">
			<stop  offset="0" style="stop-color:#231815"/>
			<stop  offset="0.5612" style="stop-color:#888888"/>
			<stop  offset="1" style="stop-color:#231815"/>
		</linearGradient>
		<rect x="13.5" y="14.2" fill="url(#SVGID_134_)" width="24" height="89.3"/>
		<rect x="13.5" y="99" fill="#030000" width="24" height="4.4"/>
	</g>
	<g>
		<g>
			<path fill="#252626" d="M9.3,179.4c0,8.4,6.8,15.1,15.1,15.1c8.4,0,15.1-6.8,15.1-15.1c0-8.4-6.8-15.1-15.1-15.1
				C16.1,164.2,9.3,171,9.3,179.4"/>
			<ellipse fill="none" stroke="#121212" stroke-width="0.75" stroke-miterlimit="10" cx="24.4" cy="179.4" rx="15.1" ry="15.1"/>
			<polygon fill="#040000" points="26.3,188 26.3,181.2 33,181.2 33,177.5 26.3,177.5 26.3,170.8 22.6,170.8 22.6,177.5 15.8,177.5 
				15.8,181.2 22.6,181.2 22.6,188 			"/>
			<path fill="#221714" d="M26,171.1v6.1v0.6h0.6h6.1v3.1h-6.1H26v0.6v6.1h-3.1v-6.1v-0.6h-0.6h-6.1v-3.1h6.1h0.6v-0.6v-6.1H26z
				 M22.2,177.2h-6.7v4.4h6.7v6.7h4.4v-6.7h6.7v-4.4h-6.7v-6.7h-4.4V177.2z"/>
		</g>
		<rect x="26" y="170.5" fill="#606062" width="0.6" height="7.3"/>
		<rect x="26" y="177.2" fill="#606062" width="7.3" height="0.6"/>
	</g>
	<g>
		
			<linearGradient id="SVGID_135_" gradientUnits="userSpaceOnUse" x1="-3752.2056" y1="103.4798" x2="-3752.2056" y2="14.1941" gradientTransform="matrix(-1 0 0 1 -2506.0303 0)">
			<stop  offset="0" style="stop-color:#231815"/>
			<stop  offset="0.5612" style="stop-color:#888888"/>
			<stop  offset="1" style="stop-color:#231815"/>
		</linearGradient>
		<rect x="1234.2" y="14.2" fill="url(#SVGID_135_)" width="24" height="89.3"/>
		<rect x="1234.2" y="99" fill="#030000" width="24" height="4.4"/>
	</g>
	<g>
		<g>
			<path fill="#252626" d="M1262.4,179.4c0,8.4-6.8,15.1-15.1,15.1c-8.4,0-15.1-6.8-15.1-15.1c0-8.4,6.8-15.1,15.1-15.1
				C1255.6,164.2,1262.4,171,1262.4,179.4"/>
			<ellipse fill="none" stroke="#121212" stroke-width="0.75" stroke-miterlimit="10" cx="1247.3" cy="179.4" rx="15.1" ry="15.1"/>
			<polygon fill="#040000" points="1245.4,188 1245.4,181.2 1238.7,181.2 1238.7,177.5 1245.4,177.5 1245.4,170.8 1249.1,170.8 
				1249.1,177.5 1255.8,177.5 1255.8,181.2 1249.1,181.2 1249.1,188 			"/>
			<path fill="#221714" d="M1248.8,171.1v6.1v0.6h0.6h6.1v3.1h-6.1h-0.6v0.6v6.1h-3.1v-6.1v-0.6h-0.6h-6.1v-3.1h6.1h0.6v-0.6v-6.1
				H1248.8z M1249.4,170.5h-4.4v6.7h-6.7v4.4h6.7v6.7h4.4v-6.7h6.7v-4.4h-6.7V170.5z"/>
		</g>
		<rect x="1245.1" y="170.5" fill="#606062" width="0.6" height="7.3"/>
		<rect x="1238.4" y="177.2" fill="#606062" width="7.3" height="0.6"/>
	</g>
	<g>
		<rect x="90.2" y="179.6" fill="#3B3C3F" stroke="#070404" stroke-width="2" stroke-miterlimit="10" width="365.3" height="42.2"/>
		<rect x="247.6" y="192.7" fill="#17191D" width="34.9" height="14"/>
		<rect x="247.6" y="192.7" fill="none" stroke="#1F2020" stroke-width="1.701" stroke-miterlimit="10" width="34.9" height="14"/>
		<path fill="#969696" d="M315.5,202.5h-8.1c-0.3,0-0.6-0.3-0.6-0.6v-4.5c0-0.3,0.3-0.6,0.6-0.6h8.1c0.3,0,0.6,0.3,0.6,0.6v4.5
			C316.1,202.3,315.9,202.5,315.5,202.5"/>
		<path fill="none" stroke="#B6B4B4" stroke-miterlimit="10" d="M315.5,202.5h-8.1c-0.3,0-0.6-0.3-0.6-0.6v-4.5
			c0-0.3,0.3-0.6,0.6-0.6h8.1c0.3,0,0.6,0.3,0.6,0.6v4.5C316.1,202.3,315.9,202.5,315.5,202.5z"/>
		<path fill="#3A3C3E" d="M397,206.3c0,1-0.9,1.7-1.9,1.7c-1.1,0-1.9-0.8-1.9-1.7c0-1,0.9-1.7,1.9-1.7
			C396.2,204.5,397,205.3,397,206.3"/>
		<ellipse fill="none" stroke="#1F2020" stroke-width="1.701" stroke-miterlimit="10" cx="336.7" cy="206.3" rx="1.7" ry="1.7"/>
	</g>
	<g>
		<path fill="#231815" d="M859.3,38.9c0,5.9-4.8,10.7-10.7,10.7c-5.9,0-10.7-4.8-10.7-10.7c0-5.9,4.8-10.7,10.7-10.7
			C854.5,28.2,859.3,33,859.3,38.9"/>
		<path fill="#888888" d="M858.3,38.9c0,5.4-4.4,9.8-9.8,9.8c-5.4,0-9.8-4.4-9.8-9.8c0-5.4,4.4-9.8,9.8-9.8
			C854,29.1,858.3,33.5,858.3,38.9"/>
		<path fill="#231815" d="M857.9,38.9c0,5.2-4.2,9.4-9.4,9.4c-5.2,0-9.4-4.2-9.4-9.4c0-5.2,4.2-9.4,9.4-9.4
			C853.7,29.6,857.9,33.8,857.9,38.9"/>
		<path fill="#424142" d="M856.7,42c0.4-1,0.6-2,0.6-3.1c0-4.1-2.9-7.6-6.8-8.5v2.2h-3.7v-2.2c-3.9,0.8-6.8,4.3-6.8,8.5
			c0,1.1,0.2,2.1,0.6,3.1h1.9v3c1.6,1.6,3.8,2.6,6.2,2.6c2.4,0,4.6-1,6.2-2.6v-3H856.7z"/>
		<path fill="#231815" d="M845.9,34.7c0,0.8-0.6,1.4-1.4,1.4c-0.8,0-1.4-0.6-1.4-1.4c0-0.8,0.6-1.4,1.4-1.4
			C845.2,33.2,845.9,33.9,845.9,34.7"/>
		<path fill="#231815" d="M844.5,39.1c0,0.8-0.6,1.4-1.4,1.4c-0.8,0-1.4-0.6-1.4-1.4c0-0.8,0.6-1.4,1.4-1.4
			C843.8,37.7,844.5,38.3,844.5,39.1"/>
		<path fill="#231815" d="M853.9,34.7c0,0.8-0.6,1.4-1.4,1.4c-0.8,0-1.4-0.6-1.4-1.4c0-0.8,0.6-1.4,1.4-1.4
			C853.2,33.2,853.9,33.9,853.9,34.7"/>
		<path fill="#231815" d="M847.3,43.8c0,0.8-0.6,1.4-1.4,1.4c-0.8,0-1.4-0.6-1.4-1.4c0-0.8,0.6-1.4,1.4-1.4
			C846.6,42.3,847.3,43,847.3,43.8"/>
		<path fill="#231815" d="M852.5,43.8c0,0.8-0.6,1.4-1.4,1.4c-0.8,0-1.4-0.6-1.4-1.4c0-0.8,0.6-1.4,1.4-1.4
			C851.8,42.3,852.5,43,852.5,43.8"/>
		<path fill="#231815" d="M855.5,39.1c0,0.8-0.6,1.4-1.4,1.4c-0.8,0-1.4-0.6-1.4-1.4c0-0.8,0.6-1.4,1.4-1.4
			C854.9,37.7,855.5,38.3,855.5,39.1"/>
		<rect x="847" y="34.1" fill="#231815" width="3" height="4.6"/>
	</g>
	<circle fill="#151515" cx="94.6" cy="16.8" r="5.6"/>
	<circle fill="#151515" cx="122.6" cy="16.8" r="5.6"/>
	<circle fill="#151515" cx="150.5" cy="16.8" r="5.6"/>
	<circle fill="#151515" cx="178.5" cy="16.8" r="5.6"/>
	<circle fill="#151515" cx="206.5" cy="16.8" r="5.6"/>
	<circle fill="#151515" cx="234.5" cy="16.8" r="5.6"/>
	<circle fill="#151515" cx="262.5" cy="16.8" r="5.6"/>
	<circle fill="#151515" cx="290.5" cy="16.8" r="5.6"/>
	<circle fill="#151515" cx="318.5" cy="16.8" r="5.6"/>
	<circle fill="#151515" cx="346.5" cy="16.8" r="5.6"/>
	<circle fill="#151515" cx="374.5" cy="16.8" r="5.6"/>
	<circle fill="#151515" cx="402.5" cy="16.8" r="5.6"/>
	<circle fill="#151515" cx="430.5" cy="16.8" r="5.6"/>
	<circle fill="#151515" cx="458.5" cy="16.8" r="5.6"/>
	<circle fill="#151515" cx="486.5" cy="16.8" r="5.6"/>
	<circle fill="#151515" cx="514.5" cy="16.8" r="5.6"/>
	<circle fill="#151515" cx="542.5" cy="16.8" r="5.6"/>
	<circle fill="#151515" cx="570.5" cy="16.8" r="5.6"/>
	<circle fill="#151515" cx="598.5" cy="16.8" r="5.6"/>
	<circle fill="#151515" cx="626.5" cy="16.8" r="5.6"/>
	<circle fill="#151515" cx="654.5" cy="16.8" r="5.6"/>
	<circle fill="#151515" cx="682.5" cy="16.8" r="5.6"/>
	<circle fill="#151515" cx="710.5" cy="16.8" r="5.6"/>
	<circle fill="#151515" cx="738.5" cy="16.8" r="5.6"/>
	<circle fill="#151515" cx="766.5" cy="16.8" r="5.6"/>
	<circle fill="#151515" cx="794.5" cy="16.8" r="5.6"/>
	<circle fill="#151515" cx="94.6" cy="43.5" r="5.6"/>
	<circle fill="#151515" cx="150.5" cy="43.5" r="5.6"/>
	<circle fill="#151515" cx="178.5" cy="43.5" r="5.6"/>
	<circle fill="#151515" cx="206.5" cy="43.5" r="5.6"/>
	<circle fill="#151515" cx="234.5" cy="43.5" r="5.6"/>
	<circle fill="#151515" cx="262.5" cy="43.5" r="5.6"/>
	<circle fill="#151515" cx="290.5" cy="43.5" r="5.6"/>
	<circle fill="#151515" cx="318.5" cy="43.5" r="5.6"/>
	<circle fill="#151515" cx="346.5" cy="43.5" r="5.6"/>
	<circle fill="#151515" cx="374.5" cy="43.5" r="5.6"/>
	<circle fill="#151515" cx="402.5" cy="43.5" r="5.6"/>
	<circle fill="#151515" cx="430.5" cy="43.5" r="5.6"/>
	<circle fill="#151515" cx="458.5" cy="43.5" r="5.6"/>
	<circle fill="#151515" cx="486.5" cy="43.5" r="5.6"/>
	<circle fill="#151515" cx="514.5" cy="43.5" r="5.6"/>
	<circle fill="#151515" cx="542.5" cy="43.5" r="5.6"/>
	<circle fill="#151515" cx="570.5" cy="43.5" r="5.6"/>
	<circle fill="#151515" cx="598.5" cy="43.5" r="5.6"/>
	<circle fill="#151515" cx="626.5" cy="43.5" r="5.6"/>
	<circle fill="#151515" cx="654.5" cy="43.5" r="5.6"/>
	<circle fill="#151515" cx="710.5" cy="43.5" r="5.6"/>
	<circle fill="#151515" cx="738.5" cy="43.5" r="5.6"/>
	<circle fill="#151515" cx="766.5" cy="43.5" r="5.6"/>
	<circle fill="#151515" cx="794.5" cy="43.5" r="5.6"/>
	<circle fill="#151515" cx="165.2" cy="31.2" r="5.6"/>
	<circle fill="#151515" cx="193.2" cy="31.2" r="5.6"/>
	<circle fill="#151515" cx="221.2" cy="31.2" r="5.6"/>
	<circle fill="#151515" cx="249.2" cy="31.2" r="5.6"/>
	<circle fill="#151515" cx="277.2" cy="31.2" r="5.6"/>
	<circle fill="#151515" cx="305.2" cy="31.2" r="5.6"/>
	<circle fill="#151515" cx="333.2" cy="31.2" r="5.6"/>
	<circle fill="#151515" cx="361.2" cy="31.2" r="5.6"/>
	<circle fill="#151515" cx="389.2" cy="31.2" r="5.6"/>
	<circle fill="#151515" cx="417.2" cy="31.2" r="5.6"/>
	<circle fill="#151515" cx="445.2" cy="31.2" r="5.6"/>
	<circle fill="#151515" cx="473.2" cy="31.2" r="5.6"/>
	<circle fill="#151515" cx="501.2" cy="31.2" r="5.6"/>
	<circle fill="#151515" cx="529.2" cy="31.2" r="5.6"/>
	<circle fill="#151515" cx="557.2" cy="31.2" r="5.6"/>
	<circle fill="#151515" cx="585.2" cy="31.2" r="5.6"/>
	<circle fill="#151515" cx="613.2" cy="31.2" r="5.6"/>
	<circle fill="#151515" cx="641.2" cy="31.2" r="5.6"/>
	<circle fill="#151515" cx="725.1" cy="31.2" r="5.6"/>
	<circle fill="#151515" cx="753.1" cy="31.2" r="5.6"/>
	<circle fill="#151515" cx="781.1" cy="31.2" r="5.6"/>
	<circle fill="#151515" cx="109.2" cy="57.4" r="5.6"/>
	<circle fill="#151515" cx="137.2" cy="57.4" r="5.6"/>
	<circle fill="#151515" cx="165.2" cy="57.4" r="5.6"/>
	<circle fill="#151515" cx="193.2" cy="57.4" r="5.6"/>
	<circle fill="#151515" cx="221.2" cy="57.4" r="5.6"/>
	<circle fill="#151515" cx="249.2" cy="57.4" r="5.6"/>
	<circle fill="#151515" cx="277.2" cy="57.4" r="5.6"/>
	<circle fill="#151515" cx="305.2" cy="57.4" r="5.6"/>
	<circle fill="#151515" cx="333.2" cy="57.4" r="5.6"/>
	<circle fill="#151515" cx="361.2" cy="57.4" r="5.6"/>
	<circle fill="#151515" cx="389.2" cy="57.4" r="5.6"/>
	<circle fill="#151515" cx="417.2" cy="57.4" r="5.6"/>
	<circle fill="#151515" cx="445.2" cy="57.4" r="5.6"/>
	<circle fill="#151515" cx="473.2" cy="57.4" r="5.6"/>
	<circle fill="#151515" cx="501.2" cy="57.4" r="5.6"/>
	<circle fill="#151515" cx="529.2" cy="57.4" r="5.6"/>
	<circle fill="#151515" cx="557.2" cy="57.4" r="5.6"/>
	<circle fill="#151515" cx="585.2" cy="57.4" r="5.6"/>
	<circle fill="#151515" cx="613.2" cy="57.4" r="5.6"/>
	<circle fill="#151515" cx="641.2" cy="57.4" r="5.6"/>
	<circle fill="#151515" cx="669.2" cy="57.4" r="5.6"/>
	<circle fill="#151515" cx="697.2" cy="57.4" r="5.6"/>
	<circle fill="#151515" cx="725.1" cy="57.4" r="5.6"/>
	<circle fill="#151515" cx="753.1" cy="57.4" r="5.6"/>
	<circle fill="#151515" cx="781.1" cy="57.4" r="5.6"/>
	<g>
		<path fill="#AEADAD" d="M670.1,38.7c0-6.8,5.4-12.3,12-12.3c6.6,0,12,5.5,12,12.3c0,6.8-5.4,12.3-12,12.3
			C675.5,51,670.1,45.5,670.1,38.7"/>
		<ellipse fill="none" stroke="#919191" stroke-miterlimit="10" cx="682.2" cy="38.7" rx="12" ry="12.3"/>
		<path fill="#AEADAD" d="M673.3,38.7c0-5,4-9,8.8-9c4.9,0,8.8,4,8.8,9c0,5-4,9-8.8,9C677.3,47.7,673.3,43.7,673.3,38.7"/>
		<ellipse fill="none" stroke="#919191" stroke-miterlimit="10" cx="682.2" cy="38.7" rx="8.8" ry="9"/>
		<g>
			<g>
				<defs>
					<rect id="SVGID_83_" x="673.8" y="30.2" width="16.7" height="17"/>
				</defs>
				<clipPath id="SVGID_136_">
					<use xlink:href="#SVGID_83_"  overflow="visible"/>
				</clipPath>
				<path clip-path="url(#SVGID_136_)" fill="#BDBDBC" d="M673.8,38.7c0-4.7,3.7-8.5,8.3-8.5s8.3,3.8,8.3,8.5c0,4.7-3.7,8.5-8.3,8.5
					S673.8,43.4,673.8,38.7"/>
				<path clip-path="url(#SVGID_136_)" fill="#BFBFBF" d="M674,38.7c0-4.6,3.6-8.3,8.1-8.3c4.5,0,8.1,3.7,8.1,8.3
					c0,4.6-3.6,8.3-8.1,8.3C677.7,47,674,43.3,674,38.7"/>
				<path clip-path="url(#SVGID_136_)" fill="#C1C2C2" d="M674.2,38.7c0-4.5,3.6-8.1,7.9-8.1c4.4,0,7.9,3.6,7.9,8.1
					c0,4.5-3.6,8.1-7.9,8.1C677.8,46.8,674.2,43.2,674.2,38.7"/>
				<path clip-path="url(#SVGID_136_)" fill="#C3C4C3" d="M674.4,38.7c0-4.4,3.5-7.9,7.7-7.9c4.3,0,7.7,3.5,7.7,7.9
					c0,4.4-3.5,7.9-7.7,7.9C677.9,46.6,674.4,43.1,674.4,38.7"/>
				<path clip-path="url(#SVGID_136_)" fill="#C5C7C7" d="M674.6,38.7c0-4.2,3.4-7.7,7.5-7.7c4.2,0,7.5,3.4,7.5,7.7
					c0,4.3-3.4,7.7-7.5,7.7C678,46.4,674.6,42.9,674.6,38.7"/>
				<path clip-path="url(#SVGID_136_)" fill="#C8C9CA" d="M674.8,38.7c0-4.1,3.3-7.5,7.3-7.5c4.1,0,7.3,3.4,7.3,7.5
					c0,4.1-3.3,7.5-7.3,7.5C678.1,46.2,674.8,42.8,674.8,38.7"/>
				<path clip-path="url(#SVGID_136_)" fill="#CACCCC" d="M675,38.7c0-4,3.2-7.3,7.1-7.3c4,0,7.2,3.3,7.2,7.3c0,4-3.2,7.3-7.2,7.3
					C678.2,46,675,42.7,675,38.7"/>
				<path clip-path="url(#SVGID_136_)" fill="#CBCECF" d="M675.2,38.7c0-3.9,3.1-7.1,7-7.1c3.8,0,7,3.2,7,7.1c0,3.9-3.1,7.1-7,7.1
					C678.3,45.8,675.2,42.6,675.2,38.7"/>
				<path clip-path="url(#SVGID_136_)" fill="#CFD1D1" d="M675.4,38.7c0-3.8,3-6.9,6.8-6.9c3.7,0,6.8,3.1,6.8,6.9
					c0,3.8-3,6.9-6.8,6.9C678.4,45.6,675.4,42.5,675.4,38.7"/>
				<path clip-path="url(#SVGID_136_)" fill="#D1D3D4" d="M675.6,38.7c0-3.7,2.9-6.7,6.6-6.7c3.6,0,6.6,3,6.6,6.7
					c0,3.7-2.9,6.7-6.6,6.7C678.5,45.4,675.6,42.4,675.6,38.7"/>
			</g>
		</g>
		<polygon fill="#605F5E" points="683.2,33.6 683.2,37.6 687.2,37.6 687.2,39.8 683.2,39.8 683.2,43.8 681.1,43.8 681.1,39.8 
			677.2,39.8 677.2,37.6 681.1,37.6 681.1,33.6 		"/>
		<path fill="#221714" d="M681.3,43.6V40v-0.4h-0.4h-3.5v-1.8h3.5h0.4v-0.4v-3.6h1.8v3.6v0.4h0.4h3.5v1.8h-3.5h-0.4V40v3.6H681.3z
			 M680.9,44h2.6v-4h3.9v-2.6h-3.9v-4h-2.6v4H677V40h3.9V44z"/>
	</g>
	<g>
		<path fill="#AEADAD" d="M1027.4,38.7c0-6.8,5.4-12.3,12-12.3c6.6,0,12,5.5,12,12.3c0,6.8-5.4,12.3-12,12.3
			C1032.8,51,1027.4,45.5,1027.4,38.7"/>
		<ellipse fill="none" stroke="#919191" stroke-miterlimit="10" cx="1039.4" cy="38.7" rx="12" ry="12.3"/>
		<path fill="#AEADAD" d="M1030.6,38.7c0-5,4-9,8.8-9c4.9,0,8.8,4,8.8,9c0,5-4,9-8.8,9C1034.6,47.7,1030.6,43.7,1030.6,38.7"/>
		<ellipse fill="none" stroke="#919191" stroke-miterlimit="10" cx="1039.4" cy="38.7" rx="8.8" ry="9"/>
		<g>
			<g>
				<defs>
					<rect id="SVGID_85_" x="1031.1" y="30.2" width="16.7" height="17"/>
				</defs>
				<clipPath id="SVGID_137_">
					<use xlink:href="#SVGID_85_"  overflow="visible"/>
				</clipPath>
				<path clip-path="url(#SVGID_137_)" fill="#BDBDBC" d="M1031.1,38.7c0-4.7,3.7-8.5,8.3-8.5c4.6,0,8.3,3.8,8.3,8.5
					c0,4.7-3.7,8.5-8.3,8.5C1034.8,47.2,1031.1,43.4,1031.1,38.7"/>
				<path clip-path="url(#SVGID_137_)" fill="#BFBFBF" d="M1031.3,38.7c0-4.6,3.6-8.3,8.1-8.3c4.5,0,8.1,3.7,8.1,8.3
					c0,4.6-3.6,8.3-8.1,8.3C1035,47,1031.3,43.3,1031.3,38.7"/>
				<path clip-path="url(#SVGID_137_)" fill="#C1C2C2" d="M1031.5,38.7c0-4.5,3.6-8.1,7.9-8.1c4.4,0,7.9,3.6,7.9,8.1
					c0,4.5-3.6,8.1-7.9,8.1C1035.1,46.8,1031.5,43.2,1031.5,38.7"/>
				<path clip-path="url(#SVGID_137_)" fill="#C3C4C3" d="M1031.7,38.7c0-4.4,3.5-7.9,7.7-7.9c4.3,0,7.7,3.5,7.7,7.9
					c0,4.4-3.5,7.9-7.7,7.9C1035.2,46.6,1031.7,43.1,1031.7,38.7"/>
				<path clip-path="url(#SVGID_137_)" fill="#C5C7C7" d="M1031.9,38.7c0-4.2,3.4-7.7,7.5-7.7c4.2,0,7.5,3.4,7.5,7.7
					c0,4.3-3.4,7.7-7.5,7.7C1035.3,46.4,1031.9,42.9,1031.9,38.7"/>
				<path clip-path="url(#SVGID_137_)" fill="#C8C9CA" d="M1032.1,38.7c0-4.1,3.3-7.5,7.3-7.5c4.1,0,7.3,3.4,7.3,7.5
					c0,4.1-3.3,7.5-7.3,7.5C1035.4,46.2,1032.1,42.8,1032.1,38.7"/>
				<path clip-path="url(#SVGID_137_)" fill="#CACCCC" d="M1032.3,38.7c0-4,3.2-7.3,7.1-7.3c4,0,7.2,3.3,7.2,7.3
					c0,4-3.2,7.3-7.2,7.3C1035.5,46,1032.3,42.7,1032.3,38.7"/>
				<path clip-path="url(#SVGID_137_)" fill="#CBCECF" d="M1032.5,38.7c0-3.9,3.1-7.1,7-7.1c3.8,0,7,3.2,7,7.1c0,3.9-3.1,7.1-7,7.1
					C1035.6,45.8,1032.5,42.6,1032.5,38.7"/>
				<path clip-path="url(#SVGID_137_)" fill="#CFD1D1" d="M1032.7,38.7c0-3.8,3-6.9,6.8-6.9c3.7,0,6.8,3.1,6.8,6.9
					c0,3.8-3,6.9-6.8,6.9C1035.7,45.6,1032.7,42.5,1032.7,38.7"/>
				<path clip-path="url(#SVGID_137_)" fill="#D1D3D4" d="M1032.9,38.7c0-3.7,2.9-6.7,6.6-6.7c3.6,0,6.6,3,6.6,6.7
					c0,3.7-2.9,6.7-6.6,6.7C1035.8,45.4,1032.9,42.4,1032.9,38.7"/>
			</g>
		</g>
		<polygon fill="#605F5E" points="1040.5,33.6 1040.5,37.6 1044.5,37.6 1044.5,39.8 1040.5,39.8 1040.5,43.8 1038.4,43.8 
			1038.4,39.8 1034.4,39.8 1034.4,37.6 1038.4,37.6 1038.4,33.6 		"/>
		<path fill="#221714" d="M1038.5,43.6V40v-0.4h-0.4h-3.5v-1.8h3.5h0.4v-0.4v-3.6h1.8v3.6v0.4h0.4h3.5v1.8h-3.5h-0.4V40v3.6H1038.5z
			 M1038.2,44h2.6v-4h3.9v-2.6h-3.9v-4h-2.6v4h-3.9V40h3.9V44z"/>
	</g>
	<g>
		<path fill="#AEADAD" d="M1212.7,38.7c0-4.7,3.7-8.5,8.3-8.5c4.6,0,8.3,3.8,8.3,8.5c0,4.7-3.7,8.5-8.3,8.5
			C1216.5,47.2,1212.7,43.4,1212.7,38.7"/>
		<ellipse fill="none" stroke="#919191" stroke-miterlimit="10" cx="1221.1" cy="38.7" rx="8.3" ry="8.5"/>
		<path fill="#AEADAD" d="M1215,38.7c0-3.4,2.7-6.2,6.1-6.2c3.4,0,6.1,2.8,6.1,6.2c0,3.5-2.7,6.2-6.1,6.2
			C1217.7,44.9,1215,42.1,1215,38.7"/>
		<ellipse fill="none" stroke="#919191" stroke-miterlimit="10" cx="1221.1" cy="38.7" rx="6.1" ry="6.2"/>
		<g>
			<g>
				<defs>
					<rect id="SVGID_86_" x="1215.3" y="32.8" width="11.5" height="11.8"/>
				</defs>
				<clipPath id="SVGID_138_">
					<use xlink:href="#SVGID_86_"  overflow="visible"/>
				</clipPath>
				<path clip-path="url(#SVGID_138_)" fill="#BDBDBC" d="M1215.3,38.7c0-3.2,2.6-5.9,5.8-5.9c3.2,0,5.8,2.6,5.8,5.9
					c0,3.3-2.6,5.9-5.8,5.9C1217.9,44.6,1215.3,41.9,1215.3,38.7"/>
				<path clip-path="url(#SVGID_138_)" fill="#BFBFBF" d="M1215.4,38.7c0-3.2,2.5-5.7,5.6-5.7c3.1,0,5.6,2.6,5.6,5.7
					c0,3.2-2.5,5.7-5.6,5.7C1218,44.4,1215.4,41.9,1215.4,38.7"/>
				<path clip-path="url(#SVGID_138_)" fill="#C1C2C2" d="M1215.6,38.7c0-3.1,2.5-5.6,5.5-5.6c3,0,5.5,2.5,5.5,5.6
					c0,3.1-2.5,5.6-5.5,5.6C1218,44.3,1215.6,41.8,1215.6,38.7"/>
				<path clip-path="url(#SVGID_138_)" fill="#C3C4C3" d="M1215.7,38.7c0-3,2.4-5.5,5.4-5.5c3,0,5.4,2.4,5.4,5.5
					c0,3-2.4,5.5-5.4,5.5C1218.1,44.2,1215.7,41.7,1215.7,38.7"/>
				<path clip-path="url(#SVGID_138_)" fill="#C5C7C7" d="M1215.9,38.7c0-2.9,2.3-5.3,5.2-5.3c2.9,0,5.2,2.4,5.2,5.3
					c0,2.9-2.3,5.3-5.2,5.3C1218.2,44,1215.9,41.6,1215.9,38.7"/>
				<path clip-path="url(#SVGID_138_)" fill="#C8C9CA" d="M1216,38.7c0-2.9,2.3-5.2,5.1-5.2c2.8,0,5.1,2.3,5.1,5.2
					c0,2.9-2.3,5.2-5.1,5.2C1218.3,43.9,1216,41.6,1216,38.7"/>
				<path clip-path="url(#SVGID_138_)" fill="#CACCCC" d="M1216.1,38.7c0-2.8,2.2-5.1,4.9-5.1c2.7,0,5,2.3,5,5.1
					c0,2.8-2.2,5.1-5,5.1C1218.3,43.7,1216.1,41.5,1216.1,38.7"/>
				<path clip-path="url(#SVGID_138_)" fill="#CBCECF" d="M1216.3,38.7c0-2.7,2.2-4.9,4.8-4.9c2.7,0,4.8,2.2,4.8,4.9
					c0,2.7-2.2,4.9-4.8,4.9C1218.4,43.6,1216.3,41.4,1216.3,38.7"/>
				<path clip-path="url(#SVGID_138_)" fill="#CFD1D1" d="M1216.4,38.7c0-2.6,2.1-4.8,4.7-4.8c2.6,0,4.7,2.1,4.7,4.8
					c0,2.6-2.1,4.8-4.7,4.8C1218.5,43.5,1216.4,41.3,1216.4,38.7"/>
				<path clip-path="url(#SVGID_138_)" fill="#D1D3D4" d="M1216.5,38.7c0-2.6,2-4.6,4.5-4.6c2.5,0,4.5,2.1,4.5,4.6
					c0,2.6-2,4.6-4.5,4.6C1218.6,43.3,1216.5,41.3,1216.5,38.7"/>
			</g>
		</g>
		<polygon fill="#605F5E" points="1221.8,35.2 1221.8,37.9 1224.5,37.9 1224.5,39.5 1221.8,39.5 1221.8,42.2 1220.3,42.2 
			1220.3,39.5 1217.6,39.5 1217.6,37.9 1220.3,37.9 1220.3,35.2 		"/>
		<path fill="#221714" d="M1220.5,42.1v-2.5v-0.3h-0.3h-2.5v-1.3h2.5h0.3v-0.3v-2.5h1.2v2.5v0.3h0.3h2.5v1.3h-2.5h-0.3v0.3v2.5
			H1220.5z M1220.2,42.4h1.8v-2.8h2.7v-1.8h-2.7V35h-1.8v2.8h-2.7v1.8h2.7V42.4z"/>
	</g>
	<g>
		<path fill="#AEADAD" d="M1212.7,228c0-4.7,3.7-8.5,8.3-8.5c4.6,0,8.3,3.8,8.3,8.5c0,4.7-3.7,8.5-8.3,8.5
			C1216.5,236.5,1212.7,232.7,1212.7,228"/>
		<ellipse fill="none" stroke="#919191" stroke-miterlimit="10" cx="1221.1" cy="228" rx="8.3" ry="8.5"/>
		<path fill="#AEADAD" d="M1215,228c0-3.4,2.7-6.2,6.1-6.2c3.4,0,6.1,2.8,6.1,6.2c0,3.5-2.7,6.2-6.1,6.2
			C1217.7,234.3,1215,231.5,1215,228"/>
		<ellipse fill="none" stroke="#919191" stroke-miterlimit="10" cx="1221.1" cy="228" rx="6.1" ry="6.2"/>
		<g>
			<g>
				<defs>
					<rect id="SVGID_87_" x="1215.3" y="222.2" width="11.5" height="11.8"/>
				</defs>
				<clipPath id="SVGID_139_">
					<use xlink:href="#SVGID_87_"  overflow="visible"/>
				</clipPath>
				<path clip-path="url(#SVGID_139_)" fill="#BDBDBC" d="M1215.3,228c0-3.2,2.6-5.9,5.8-5.9c3.2,0,5.8,2.6,5.8,5.9
					c0,3.3-2.6,5.9-5.8,5.9C1217.9,233.9,1215.3,231.3,1215.3,228"/>
				<path clip-path="url(#SVGID_139_)" fill="#BFBFBF" d="M1215.4,228c0-3.2,2.5-5.7,5.6-5.7c3.1,0,5.6,2.6,5.6,5.7
					c0,3.2-2.5,5.7-5.6,5.7C1218,233.8,1215.4,231.2,1215.4,228"/>
				<path clip-path="url(#SVGID_139_)" fill="#C1C2C2" d="M1215.6,228c0-3.1,2.5-5.6,5.5-5.6c3,0,5.5,2.5,5.5,5.6
					c0,3.1-2.5,5.6-5.5,5.6C1218,233.6,1215.6,231.1,1215.6,228"/>
				<path clip-path="url(#SVGID_139_)" fill="#C3C4C3" d="M1215.7,228c0-3,2.4-5.5,5.4-5.5c3,0,5.4,2.4,5.4,5.5c0,3-2.4,5.5-5.4,5.5
					C1218.1,233.5,1215.7,231.1,1215.7,228"/>
				<path clip-path="url(#SVGID_139_)" fill="#C5C7C7" d="M1215.9,228c0-2.9,2.3-5.3,5.2-5.3c2.9,0,5.2,2.4,5.2,5.3
					c0,2.9-2.3,5.3-5.2,5.3C1218.2,233.4,1215.9,231,1215.9,228"/>
				<path clip-path="url(#SVGID_139_)" fill="#C8C9CA" d="M1216,228c0-2.9,2.3-5.2,5.1-5.2c2.8,0,5.1,2.3,5.1,5.2
					c0,2.9-2.3,5.2-5.1,5.2C1218.3,233.2,1216,230.9,1216,228"/>
				<path clip-path="url(#SVGID_139_)" fill="#CACCCC" d="M1216.1,228c0-2.8,2.2-5.1,4.9-5.1c2.7,0,5,2.3,5,5.1c0,2.8-2.2,5.1-5,5.1
					C1218.3,233.1,1216.1,230.8,1216.1,228"/>
				<path clip-path="url(#SVGID_139_)" fill="#CBCECF" d="M1216.3,228c0-2.7,2.2-4.9,4.8-4.9c2.7,0,4.8,2.2,4.8,4.9
					c0,2.7-2.2,4.9-4.8,4.9C1218.4,233,1216.3,230.8,1216.3,228"/>
				<path clip-path="url(#SVGID_139_)" fill="#CFD1D1" d="M1216.4,228c0-2.6,2.1-4.8,4.7-4.8c2.6,0,4.7,2.1,4.7,4.8
					c0,2.6-2.1,4.8-4.7,4.8C1218.5,232.8,1216.4,230.7,1216.4,228"/>
				<path clip-path="url(#SVGID_139_)" fill="#D1D3D4" d="M1216.5,228c0-2.6,2-4.6,4.5-4.6c2.5,0,4.5,2.1,4.5,4.6
					c0,2.6-2,4.6-4.5,4.6C1218.6,232.7,1216.5,230.6,1216.5,228"/>
			</g>
		</g>
		<polygon fill="#605F5E" points="1221.8,224.5 1221.8,227.3 1224.5,227.3 1224.5,228.8 1221.8,228.8 1221.8,231.6 1220.3,231.6 
			1220.3,228.8 1217.6,228.8 1217.6,227.3 1220.3,227.3 1220.3,224.5 		"/>
		<path fill="#221714" d="M1220.5,231.4v-2.5v-0.3h-0.3h-2.5v-1.3h2.5h0.3v-0.3v-2.5h1.2v2.5v0.3h0.3h2.5v1.3h-2.5h-0.3v0.3v2.5
			H1220.5z M1220.2,231.7h1.8v-2.8h2.7v-1.8h-2.7v-2.8h-1.8v2.8h-2.7v1.8h2.7V231.7z"/>
	</g>
	<g>
		<path fill="#AEADAD" d="M1127.3,228c0-4.7,3.7-8.5,8.3-8.5c4.6,0,8.3,3.8,8.3,8.5c0,4.7-3.7,8.5-8.3,8.5
			C1131,236.5,1127.3,232.7,1127.3,228"/>
		<ellipse fill="none" stroke="#919191" stroke-miterlimit="10" cx="1135.6" cy="228" rx="8.3" ry="8.5"/>
		<path fill="#AEADAD" d="M1129.5,228c0-3.4,2.7-6.2,6.1-6.2c3.4,0,6.1,2.8,6.1,6.2c0,3.5-2.7,6.2-6.1,6.2
			C1132.2,234.3,1129.5,231.5,1129.5,228"/>
		<ellipse fill="none" stroke="#919191" stroke-miterlimit="10" cx="1135.6" cy="228" rx="6.1" ry="6.2"/>
		<g>
			<g>
				<defs>
					<rect id="SVGID_88_" x="1129.8" y="222.2" width="11.5" height="11.8"/>
				</defs>
				<clipPath id="SVGID_140_">
					<use xlink:href="#SVGID_88_"  overflow="visible"/>
				</clipPath>
				<path clip-path="url(#SVGID_140_)" fill="#BDBDBC" d="M1129.8,228c0-3.2,2.6-5.9,5.8-5.9c3.2,0,5.8,2.6,5.8,5.9
					c0,3.3-2.6,5.9-5.8,5.9C1132.4,233.9,1129.8,231.3,1129.8,228"/>
				<path clip-path="url(#SVGID_140_)" fill="#BFBFBF" d="M1130,228c0-3.2,2.5-5.7,5.6-5.7c3.1,0,5.6,2.6,5.6,5.7
					c0,3.2-2.5,5.7-5.6,5.7C1132.5,233.8,1130,231.2,1130,228"/>
				<path clip-path="url(#SVGID_140_)" fill="#C1C2C2" d="M1130.1,228c0-3.1,2.5-5.6,5.5-5.6c3,0,5.5,2.5,5.5,5.6
					c0,3.1-2.5,5.6-5.5,5.6C1132.6,233.6,1130.1,231.1,1130.1,228"/>
				<path clip-path="url(#SVGID_140_)" fill="#C3C4C3" d="M1130.2,228c0-3,2.4-5.5,5.4-5.5c3,0,5.4,2.4,5.4,5.5c0,3-2.4,5.5-5.4,5.5
					C1132.6,233.5,1130.2,231.1,1130.2,228"/>
				<path clip-path="url(#SVGID_140_)" fill="#C5C7C7" d="M1130.4,228c0-2.9,2.3-5.3,5.2-5.3c2.9,0,5.2,2.4,5.2,5.3
					c0,2.9-2.3,5.3-5.2,5.3C1132.7,233.4,1130.4,231,1130.4,228"/>
				<path clip-path="url(#SVGID_140_)" fill="#C8C9CA" d="M1130.5,228c0-2.9,2.3-5.2,5.1-5.2s5.1,2.3,5.1,5.2c0,2.9-2.3,5.2-5.1,5.2
					S1130.5,230.9,1130.5,228"/>
				<path clip-path="url(#SVGID_140_)" fill="#CACCCC" d="M1130.6,228c0-2.8,2.2-5.1,4.9-5.1c2.7,0,5,2.3,5,5.1c0,2.8-2.2,5.1-5,5.1
					C1132.9,233.1,1130.6,230.8,1130.6,228"/>
				<path clip-path="url(#SVGID_140_)" fill="#CBCECF" d="M1130.8,228c0-2.7,2.2-4.9,4.8-4.9c2.7,0,4.8,2.2,4.8,4.9
					c0,2.7-2.2,4.9-4.8,4.9C1132.9,233,1130.8,230.8,1130.8,228"/>
				<path clip-path="url(#SVGID_140_)" fill="#CFD1D1" d="M1130.9,228c0-2.6,2.1-4.8,4.7-4.8c2.6,0,4.7,2.1,4.7,4.8
					c0,2.6-2.1,4.8-4.7,4.8C1133,232.8,1130.9,230.7,1130.9,228"/>
				<path clip-path="url(#SVGID_140_)" fill="#D1D3D4" d="M1131,228c0-2.6,2-4.6,4.5-4.6c2.5,0,4.5,2.1,4.5,4.6c0,2.6-2,4.6-4.5,4.6
					C1133.1,232.7,1131,230.6,1131,228"/>
			</g>
		</g>
		<polygon fill="#605F5E" points="1136.3,224.5 1136.3,227.3 1139.1,227.3 1139.1,228.8 1136.3,228.8 1136.3,231.6 1134.8,231.6 
			1134.8,228.8 1132.1,228.8 1132.1,227.3 1134.8,227.3 1134.8,224.5 		"/>
		<path fill="#221714" d="M1135,231.4v-2.5v-0.3h-0.3h-2.5v-1.3h2.5h0.3v-0.3v-2.5h1.2v2.5v0.3h0.3h2.5v1.3h-2.5h-0.3v0.3v2.5H1135z
			 M1134.7,231.7h1.8v-2.8h2.7v-1.8h-2.7v-2.8h-1.8v2.8h-2.7v1.8h2.7V231.7z"/>
	</g>
	<g>
		<path fill="#AEADAD" d="M110.5,37.1c0-6.8,5.4-12.3,12-12.3c6.6,0,12,5.5,12,12.3c0,6.8-5.4,12.3-12,12.3
			C115.9,49.4,110.5,43.9,110.5,37.1"/>
		<ellipse fill="none" stroke="#919191" stroke-miterlimit="10" cx="122.6" cy="37.1" rx="12" ry="12.3"/>
		<path fill="#AEADAD" d="M113.7,37.1c0-5,4-9,8.8-9c4.9,0,8.8,4,8.8,9c0,5-4,9-8.8,9C117.7,46.1,113.7,42.1,113.7,37.1"/>
		<ellipse fill="none" stroke="#919191" stroke-miterlimit="10" cx="122.6" cy="37.1" rx="8.8" ry="9"/>
		<g>
			<g>
				<defs>
					<rect id="SVGID_84_" x="114.2" y="28.6" width="16.7" height="17"/>
				</defs>
				<clipPath id="SVGID_141_">
					<use xlink:href="#SVGID_84_"  overflow="visible"/>
				</clipPath>
				<path clip-path="url(#SVGID_141_)" fill="#BDBDBC" d="M114.2,37.1c0-4.7,3.7-8.5,8.3-8.5s8.3,3.8,8.3,8.5c0,4.7-3.7,8.5-8.3,8.5
					S114.2,41.8,114.2,37.1"/>
				<path clip-path="url(#SVGID_141_)" fill="#BFBFBF" d="M114.4,37.1c0-4.6,3.6-8.3,8.1-8.3c4.5,0,8.1,3.7,8.1,8.3
					c0,4.6-3.6,8.3-8.1,8.3C118.1,45.4,114.4,41.7,114.4,37.1"/>
				<path clip-path="url(#SVGID_141_)" fill="#C1C2C2" d="M114.6,37.1c0-4.5,3.6-8.1,7.9-8.1c4.4,0,7.9,3.6,7.9,8.1
					c0,4.5-3.6,8.1-7.9,8.1C118.2,45.2,114.6,41.6,114.6,37.1"/>
				<path clip-path="url(#SVGID_141_)" fill="#C3C4C3" d="M114.8,37.1c0-4.4,3.5-7.9,7.7-7.9c4.3,0,7.7,3.5,7.7,7.9
					c0,4.4-3.5,7.9-7.7,7.9C118.3,45,114.8,41.5,114.8,37.1"/>
				<path clip-path="url(#SVGID_141_)" fill="#C5C7C7" d="M115,37.1c0-4.2,3.4-7.7,7.5-7.7c4.2,0,7.5,3.4,7.5,7.7
					c0,4.3-3.4,7.7-7.5,7.7C118.4,44.8,115,41.4,115,37.1"/>
				<path clip-path="url(#SVGID_141_)" fill="#C8C9CA" d="M115.2,37.1c0-4.1,3.3-7.5,7.3-7.5c4.1,0,7.3,3.4,7.3,7.5
					c0,4.1-3.3,7.5-7.3,7.5C118.5,44.6,115.2,41.3,115.2,37.1"/>
				<path clip-path="url(#SVGID_141_)" fill="#CACCCC" d="M115.4,37.1c0-4,3.2-7.3,7.1-7.3c4,0,7.2,3.3,7.2,7.3c0,4-3.2,7.3-7.2,7.3
					C118.6,44.4,115.4,41.1,115.4,37.1"/>
				<path clip-path="url(#SVGID_141_)" fill="#CBCECF" d="M115.6,37.1c0-3.9,3.1-7.1,7-7.1c3.8,0,7,3.2,7,7.1c0,3.9-3.1,7.1-7,7.1
					C118.7,44.2,115.6,41,115.6,37.1"/>
				<path clip-path="url(#SVGID_141_)" fill="#CFD1D1" d="M115.8,37.1c0-3.8,3-6.9,6.8-6.9c3.7,0,6.8,3.1,6.8,6.9
					c0,3.8-3,6.9-6.8,6.9C118.8,44,115.8,40.9,115.8,37.1"/>
				<path clip-path="url(#SVGID_141_)" fill="#D1D3D4" d="M116,37.1c0-3.7,2.9-6.7,6.6-6.7c3.6,0,6.6,3,6.6,6.7
					c0,3.7-2.9,6.7-6.6,6.7C118.9,43.8,116,40.8,116,37.1"/>
			</g>
		</g>
		<polygon fill="#605F5E" points="123.6,32 123.6,36 127.6,36 127.6,38.2 123.6,38.2 123.6,42.2 121.5,42.2 121.5,38.2 117.5,38.2 
			117.5,36 121.5,36 121.5,32 		"/>
		<path fill="#221714" d="M121.7,42v-3.6V38h-0.4h-3.5v-1.8h3.5h0.4v-0.4v-3.6h1.8v3.6v0.4h0.4h3.5V38h-3.5h-0.4v0.4V42H121.7z
			 M121.3,42.4h2.6v-4h3.9v-2.6h-3.9v-4h-2.6v4h-3.9v2.6h3.9V42.4z"/>
	</g>
	<g>
		<rect x="965.6" y="29.4" fill="#B7B7B7" width="51.4" height="21.3"/>
		<g>
			<g>
				<rect x="968.3" y="31.6" fill="#1A1D20" width="46" height="16.9"/>
			</g>
			<g>
				<rect x="973.3" y="31.6" fill="#ABAAAD" width="9.7" height="1.9"/>
			</g>
			<g>
				<rect x="999.5" y="31.6" fill="#ABAAAD" width="9.7" height="1.9"/>
			</g>
			<g>
				<rect x="973.6" y="36" fill="#5A5B55" width="35.3" height="2.8"/>
			</g>
			<g>
				<rect x="968.3" y="36.6" fill="#ABAAAD" width="1.8" height="6.9"/>
			</g>
			<g>
				<rect x="1012.4" y="36.6" fill="#ABAAAD" width="1.8" height="6.9"/>
			</g>
			<g>
				<rect x="972.9" y="46.4" fill="#ABAAAD" width="36.8" height="2.2"/>
			</g>
		</g>
	</g>
	<g>
		<radialGradient id="SVGID_142_" cx="1080.5021" cy="29.7042" r="19.6635" gradientUnits="userSpaceOnUse">
			<stop  offset="0" style="stop-color:#888888"/>
			<stop  offset="0.5" style="stop-color:#C8C9CA"/>
			<stop  offset="0.8871" style="stop-color:#F7F7F7"/>
			<stop  offset="1" style="stop-color:#B4B4B5"/>
		</radialGradient>
		<path fill="url(#SVGID_142_)" d="M1055.2,20.3v18.7l8.6,0.3c0,0,7.8-0.7,8.4-5.6l9.6,7.6l10.8-8.4v6.1h13.2v-5.3l-6.3,0.1
			l-0.1-13.2l-6.7-0.1l-0.1,6.3l-8.8,7l-1.6-0.9l9-7l-3.9-3.1l-8.9,7l-1.5-1.3l8.7-7.1l-3.4-2.9l-9.8,7.3c0,0-2.5-4.5-6.8-5.4
			L1055.2,20.3z"/>
		<path fill="#030000" d="M1061.5,25.9v7.6h2.3c0,0,3-0.8,2.9-4.3c0,0-0.4-2.5-2.6-3.2H1061.5z"/>
		<radialGradient id="SVGID_143_" cx="1114.2903" cy="29.7292" r="8.1153" gradientUnits="userSpaceOnUse">
			<stop  offset="0" style="stop-color:#888888"/>
			<stop  offset="1" style="stop-color:#B4B4B5"/>
		</radialGradient>
		<polygon fill="url(#SVGID_143_)" points="1107.8,20.3 1114.2,20.3 1114.2,33.2 1120.8,33.5 1120.8,38.9 1107.8,39.2 		"/>
	</g>
	<g>
		<path fill="#FFFFFF" d="M1142.6,24.4c0,0.8-0.2,1.5-0.7,2c-0.5,0.5-1.2,0.7-2,0.7h-1.5v3.5h-1.2v-8.9h2.7c0.9,0,1.6,0.2,2,0.7
			C1142.4,22.9,1142.6,23.6,1142.6,24.4z M1141.4,24.4c0-0.7-0.2-1.1-0.5-1.4s-0.8-0.4-1.4-0.4h-1.2v3.5h1.2c0.6,0,1.1-0.1,1.4-0.4
			S1141.4,25.1,1141.4,24.4z"/>
		<path fill="#FFFFFF" d="M1149.3,27.7c0,0.9-0.3,1.6-0.8,2.2c-0.6,0.6-1.2,0.8-2,0.8c-0.8,0-1.4-0.3-2-0.8
			c-0.6-0.6-0.8-1.3-0.8-2.2c0-0.9,0.3-1.6,0.8-2.2c0.6-0.6,1.2-0.8,2-0.8c0.8,0,1.4,0.3,2,0.8C1149,26.1,1149.3,26.8,1149.3,27.7z
			 M1148.1,27.7c0-0.7-0.2-1.2-0.5-1.6c-0.3-0.3-0.7-0.5-1.2-0.5s-0.8,0.2-1.2,0.5c-0.3,0.3-0.5,0.9-0.5,1.6c0,0.7,0.2,1.2,0.5,1.6
			c0.3,0.3,0.7,0.5,1.2,0.5s0.8-0.2,1.2-0.5C1148,29,1148.1,28.4,1148.1,27.7z"/>
		<path fill="#FFFFFF" d="M1156.3,24.8l-1.3,6h-1l-0.8-4.5h-0.1l-0.8,4.5h-1l-1.3-6h1.1l0.7,3.9h0.1l0.7-3.9h1.2l0.7,3.9h0.1
			l0.7-3.9H1156.3z"/>
		<path fill="#FFFFFF" d="M1162.5,28.7c-0.1,0.6-0.3,1.1-0.8,1.5c-0.5,0.4-1.1,0.6-1.7,0.6c-0.8,0-1.5-0.3-2.1-0.8
			c-0.5-0.5-0.8-1.3-0.8-2.2s0.3-1.7,0.8-2.2c0.5-0.5,1.2-0.8,2.1-0.8c0.7,0,1.3,0.2,1.8,0.7s0.7,1.2,0.7,2.3h-4.2
			c0,0.8,0.2,1.3,0.5,1.6c0.3,0.3,0.7,0.5,1.2,0.5c0.4,0,0.7-0.1,0.9-0.3c0.2-0.2,0.4-0.5,0.5-0.9H1162.5z M1161.3,26.9
			c-0.1-0.5-0.2-0.8-0.5-1c-0.2-0.2-0.6-0.3-0.9-0.3c-0.3,0-0.7,0.1-0.9,0.3c-0.3,0.2-0.5,0.5-0.6,1H1161.3z"/>
		<path fill="#FFFFFF" d="M1168.5,25.9c-0.7-0.1-1.2,0-1.7,0.3c-0.5,0.3-0.8,0.8-1.2,1.5v3h-1v-5.9h1v1.5c0.3-0.6,0.7-1,1.2-1.2
			c0.5-0.3,1-0.4,1.6-0.4V25.9z"/>
		<path fill="#FFFFFF" d="M1176,30.7h-5.3v-8.9h5.1v1h-3.9v2.8h3.6v1h-3.6v3.2h4.1V30.7z"/>
		<path fill="#FFFFFF" d="M1182.4,30.7h-1v-0.8c-0.2,0.3-0.5,0.5-0.7,0.7c-0.3,0.1-0.6,0.2-1,0.2c-0.7,0-1.3-0.3-1.8-0.8
			c-0.5-0.5-0.7-1.3-0.7-2.3c0-1,0.2-1.8,0.7-2.3c0.5-0.5,1.1-0.8,1.8-0.8c0.4,0,0.7,0.1,1,0.2c0.3,0.2,0.5,0.4,0.7,0.7v-3.9h1V30.7
			z M1181.3,27.7c0-0.7-0.1-1.2-0.4-1.6c-0.3-0.4-0.7-0.6-1.1-0.6c-0.5,0-0.9,0.2-1.2,0.6c-0.3,0.4-0.4,0.9-0.4,1.6
			c0,0.7,0.1,1.2,0.4,1.5c0.3,0.4,0.7,0.5,1.2,0.5c0.4,0,0.8-0.2,1.1-0.5C1181.2,28.9,1181.3,28.4,1181.3,27.7z"/>
		<path fill="#FFFFFF" d="M1189.6,25.7c-0.2-0.1-0.5-0.1-0.7-0.1c-0.2,0-0.5,0-0.7,0.1c0.1,0.1,0.2,0.2,0.3,0.4
			c0.1,0.2,0.1,0.4,0.1,0.7c0,0.6-0.2,1.1-0.6,1.5c-0.4,0.4-0.9,0.6-1.5,0.6c-0.1,0-0.3,0-0.5-0.1c-0.2-0.1-0.4-0.1-0.5-0.2
			c-0.1,0.1-0.2,0.1-0.2,0.2c0,0.1-0.1,0.2-0.1,0.3c0,0.2,0.1,0.3,0.4,0.4c0.2,0.1,0.7,0.1,1.3,0.1c1,0,1.7,0.1,2.1,0.4
			c0.4,0.3,0.5,0.6,0.5,1c0,0.6-0.3,1-0.8,1.2c-0.5,0.3-1.2,0.4-1.9,0.4c-0.9,0-1.6-0.1-2.1-0.4c-0.5-0.2-0.7-0.6-0.7-1
			c0-0.2,0.1-0.4,0.3-0.6c0.2-0.2,0.4-0.4,0.7-0.5c-0.2-0.1-0.4-0.2-0.5-0.4c-0.1-0.2-0.2-0.4-0.2-0.6c0-0.2,0.1-0.4,0.2-0.5
			c0.2-0.2,0.3-0.3,0.5-0.4c-0.2-0.2-0.3-0.4-0.4-0.6c-0.1-0.2-0.2-0.5-0.2-0.8c0-0.6,0.2-1.1,0.6-1.5c0.4-0.4,0.9-0.6,1.5-0.6
			c0.3,0,0.6,0,0.8,0.1c0.2,0.1,0.4,0.2,0.6,0.4c0.3-0.2,0.6-0.4,0.8-0.4c0.3-0.1,0.6-0.1,0.9-0.1V25.7z M1188.4,31.1
			c0-0.1-0.1-0.3-0.2-0.4c-0.2-0.1-0.5-0.2-1.2-0.2c-0.1,0-0.3,0-0.6,0c-0.2,0-0.5,0-0.8-0.1c-0.3,0.1-0.5,0.2-0.6,0.4
			c-0.1,0.1-0.2,0.3-0.2,0.4c0,0.2,0.1,0.4,0.4,0.5c0.3,0.1,0.8,0.2,1.5,0.2c0.6,0,1-0.1,1.3-0.2S1188.4,31.3,1188.4,31.1z
			 M1187.5,26.7c0-0.3-0.1-0.6-0.3-0.8c-0.2-0.2-0.4-0.3-0.8-0.3c-0.3,0-0.6,0.1-0.8,0.3c-0.2,0.2-0.3,0.5-0.3,0.8s0.1,0.6,0.3,0.8
			c0.2,0.2,0.4,0.3,0.8,0.3c0.3,0,0.6-0.1,0.8-0.3C1187.4,27.4,1187.5,27.1,1187.5,26.7z"/>
		<path fill="#FFFFFF" d="M1196,28.7c-0.1,0.6-0.3,1.1-0.8,1.5c-0.5,0.4-1.1,0.6-1.7,0.6c-0.8,0-1.5-0.3-2.1-0.8
			c-0.5-0.5-0.8-1.3-0.8-2.2s0.3-1.7,0.8-2.2c0.5-0.5,1.2-0.8,2.1-0.8c0.7,0,1.3,0.2,1.8,0.7s0.7,1.2,0.7,2.3h-4.2
			c0,0.8,0.2,1.3,0.5,1.6c0.3,0.3,0.7,0.5,1.2,0.5c0.4,0,0.7-0.1,0.9-0.3c0.2-0.2,0.4-0.5,0.5-0.9H1196z M1194.7,26.9
			c-0.1-0.5-0.2-0.8-0.5-1c-0.2-0.2-0.6-0.3-0.9-0.3c-0.3,0-0.7,0.1-0.9,0.3c-0.3,0.2-0.5,0.5-0.6,1H1194.7z"/>
	</g>
	<g>
		<path fill="#FFFFFF" d="M1136.8,49.1c0-0.5,0.2-0.9,0.7-1.3c0.4-0.4,0.9-1,1.5-1.8c0.6-0.8,1-1.4,1.2-1.9s0.3-0.8,0.2-1.1
			s-0.2-0.6-0.4-0.8c-0.3-0.2-0.5-0.3-0.9-0.3s-0.6,0.2-0.9,0.4c-0.3,0.2-0.5,0.5-0.7,1l-0.9-0.1c0.2-0.7,0.6-1.2,1-1.6
			c0.4-0.3,0.9-0.5,1.4-0.5c0.3,0,0.6,0,0.8,0c0.2,0,0.5,0.2,0.8,0.3c0.3,0.2,0.5,0.4,0.7,0.8c0.2,0.3,0.2,0.8,0.2,1.2
			s-0.3,1.1-0.7,1.7c-0.4,0.7-1.3,1.7-2.5,3.2h3.4v0.8h-4.7V49.1z"/>
		<path fill="#FFFFFF" d="M1142.7,46.5c0-0.5,0.1-0.8,0.3-1.1s0.4-0.7,0.6-1.2l1.9-3h1.1l-2,3.1c0.8-0.2,1.5-0.2,2,0.1
			c0.5,0.3,0.8,0.6,1,1c0.2,0.4,0.3,0.8,0.3,1.2c0,0.4,0,0.8-0.2,1.2s-0.4,0.8-0.8,1.1c-0.4,0.3-0.9,0.5-1.5,0.5
			c-0.6,0-1.2-0.1-1.6-0.4c-0.5-0.3-0.8-0.6-0.9-1.1C1142.8,47.5,1142.7,47,1142.7,46.5z M1144.2,48.1c0.3,0.3,0.7,0.5,1.1,0.5
			s0.9-0.1,1.2-0.5c0.3-0.3,0.5-0.8,0.5-1.5s-0.2-1.1-0.6-1.4c-0.4-0.3-0.8-0.3-1.3-0.3c-0.5,0.1-0.8,0.3-1.1,0.7
			c-0.2,0.4-0.3,0.8-0.3,1.3C1143.7,47.4,1143.9,47.8,1144.2,48.1z"/>
		<path fill="#FFFFFF" d="M1149.3,47.1c0.2,0.8,0.6,1.3,1.1,1.4c0.5,0.1,1,0,1.3-0.2s0.6-0.5,0.7-0.8s0.2-0.7,0.2-1.1
			c0-0.4-0.1-0.8-0.3-1c-0.2-0.3-0.5-0.5-0.8-0.6c-0.3-0.1-0.7-0.1-1.1,0c-0.4,0.1-0.7,0.3-1,0.7l-0.8-0.1c0.1-0.2,0.4-1.5,0.9-4
			h3.7v0.8h-3c-0.2,0.8-0.3,1.5-0.5,2c0.5-0.2,0.9-0.3,1.3-0.3c0.4,0,0.8,0.1,1.2,0.3s0.6,0.4,0.8,0.7c0.2,0.3,0.3,0.6,0.4,0.9
			c0.1,0.3,0.1,0.6,0.1,1c0,0.3-0.1,0.7-0.2,1.1c-0.1,0.4-0.3,0.7-0.6,0.9c-0.3,0.2-0.6,0.4-0.9,0.6c-0.4,0.1-0.8,0.2-1.2,0.2
			s-0.9-0.2-1.3-0.5s-0.7-0.8-0.9-1.6L1149.3,47.1z"/>
		<path fill="#FFFFFF" d="M1154.7,44.8c0-0.8,0.1-1.5,0.4-2c0.2-0.5,0.5-0.9,0.9-1.2s0.8-0.5,1.4-0.5c0.5,0,1,0.2,1.4,0.7
			c0.4,0.5,0.7,1,0.8,1.7c0.1,0.7,0.2,1.5,0.1,2.4s-0.2,1.6-0.5,2.2c-0.3,0.6-0.7,1-1.2,1.2c-0.5,0.2-1.1,0.2-1.6-0.1
			c-0.5-0.3-0.9-0.6-1.1-1.1c-0.2-0.4-0.4-0.9-0.5-1.4S1154.6,45.6,1154.7,44.8z M1155.7,44.5c-0.1,0.9-0.1,1.6,0.1,2.3
			c0.2,0.7,0.4,1.1,0.8,1.4c0.4,0.3,0.7,0.3,1.1,0.2s0.6-0.5,0.8-1c0.2-0.5,0.3-1.1,0.3-1.7s0-1.2-0.1-1.7s-0.2-1-0.4-1.4
			s-0.5-0.6-0.9-0.6c-0.4,0-0.7,0.2-1,0.6C1156,43,1155.8,43.7,1155.7,44.5z"/>
	</g>
	<path fill="#151515" d="M1209.9,145.3h-62.4c-2.8,0-5.1-2.3-5.1-5.1V77.8c0-2.8,2.3-5.1,5.1-5.1h62.4c2.8,0,5.1,2.3,5.1,5.1v62.4
		C1215,143,1212.7,145.3,1209.9,145.3z"/>
	<path fill="#AEADAD" d="M1204.8,140.2h-52.2c-2.8,0-5.1-2.3-5.1-5.1V82.9c0-2.8,2.3-5.1,5.1-5.1h52.2c2.8,0,5.1,2.3,5.1,5.1v52.2
		C1209.9,137.9,1207.6,140.2,1204.8,140.2z"/>
	<path fill="#D3D3D4" d="M1147.5,82.9c0-2.8,2.3-5.1,5.1-5.1h52.2c2.8,0,5.1,2.3,5.1,5.1v52.2c0,2.8-2.3,5.1-5.1,5.1L1147.5,82.9z"
		/>
	<rect x="1144.4" y="157.2" fill="#D3D3D4" width="22.1" height="23.5"/>
	<polygon fill="#AEADAD" points="1166.5,180.7 1144.4,180.7 1148.9,175.9 1161,175.9 	"/>
	<polygon fill="#AEADAD" points="1144.4,157.2 1166.5,157.2 1162,162 1149.9,162 	"/>
	<polygon fill="#726D6D" points="1144.4,180.7 1144.4,157.2 1149.8,162 1149.8,175.9 	"/>
	<polygon fill="#726D6D" points="1166.5,157.2 1166.5,180.7 1161.1,175.9 1161.1,162 	"/>
	<circle fill="#726D6D" cx="1203.3" cy="189.5" r="11.7"/>
	<circle fill="#252626" cx="1203.3" cy="189.5" r="5.2"/>
	<circle fill="#151515" cx="1166.5" cy="216.4" r="11.7"/>
	<radialGradient id="SVGID_144_" cx="1166.5168" cy="216.3768" r="5.167" gradientUnits="userSpaceOnUse">
		<stop  offset="0" style="stop-color:#F4FF4C"/>
		<stop  offset="0.9358" style="stop-color:#F4FF4C"/>
	</radialGradient>
	<circle fill="url(#SVGID_144_)" cx="1166.5" cy="216.4" r="5.2"/>
	<circle fill="#726D6D" cx="1147.8" cy="191.2" r="4.5"/>
	<circle fill="#D3D3D4" cx="1147.8" cy="191.2" r="2"/>
	<circle fill="#726D6D" cx="1162" cy="191.2" r="4.5"/>
	<circle fill="#D3D3D4" cx="1162" cy="191.2" r="2"/>
</g>
</svg>
