<?xml version="1.0" encoding="utf-8"?>
<!-- Generator: Adobe Illustrator 19.0.0, SVG Export Plug-In . SVG Version: 6.00 Build 0)  -->
<svg version="1.1" id="图层_1" xmlns="http://www.w3.org/2000/svg" xmlns:xlink="http://www.w3.org/1999/xlink" x="0px" y="0px"
	 width="600px" height="2133.2px" viewBox="0 0 600 2133.2" style="enable-background:new 0 0 600 2133.2;" xml:space="preserve">
<style type="text/css">
	.st0{fill:url(#XMLID_2_);}
	.st1{fill:#FFFFFF;stroke:#3E3A39;stroke-width:0.7;stroke-miterlimit:10;}
	.st2{fill:#211613;}
	.st3{fill:#FFFFFF;}
	.st4{font-family:'MicrosoftYaHei';}
	.st5{font-size:24.6945px;}
</style>
<g id="XMLID_4450_">
	
		<linearGradient id="XMLID_2_" gradientUnits="userSpaceOnUse" x1="-123.2847" y1="1243.1406" x2="476.7153" y2="1243.1406" gradientTransform="matrix(1 0 0 -1 123.2847 2309.7656)">
		<stop  offset="0" style="stop-color:#55606A"/>
		<stop  offset="8.950000e-02" style="stop-color:#343C46"/>
		<stop  offset="0.9181" style="stop-color:#343C46"/>
		<stop  offset="1" style="stop-color:#55606A"/>
	</linearGradient>
	<path id="XMLID_4973_" class="st0" d="M0,0v2133.2h600V0H0z M525,2066.8H75V66.5h450V2066.8z"/>
</g>
<g id="XMLID_4451_">
	<polygon id="XMLID_4958_" class="st1" points="50.6,2044.5 44.4,2050 44.4,2039 50.6,2044.5 	"/>
	<rect id="XMLID_4957_" x="55.5" y="2024.1" class="st2" width="9" height="11.1"/>
	<rect id="XMLID_4956_" x="55.5" y="2053.8" class="st2" width="9" height="11.1"/>
	<polygon id="XMLID_4955_" class="st2" points="64.5,2043.1 64.5,2039 55.5,2039 55.5,2050.1 64.5,2050.1 64.5,2046 66,2046 
		66,2043.1 	"/>
	<text id="XMLID_4954_" transform="matrix(0.9276 0 0 1 557.9119 2051.9583)" class="st3 st4 st5">1</text>
	<text id="XMLID_4953_" transform="matrix(0.9276 0 0 1 15.2224 2051.9583)" class="st3 st4 st5">  1</text>
	<polygon id="XMLID_4952_" class="st1" points="548,2044.5 554.3,2050 554.3,2039 548,2044.5 	"/>
	<g id="XMLID_4948_">
		<rect id="XMLID_4951_" x="533.9" y="2024.1" class="st2" width="9" height="11.1"/>
		<rect id="XMLID_4950_" x="533.9" y="2053.8" class="st2" width="9" height="11.1"/>
		<polygon id="XMLID_4949_" class="st2" points="533.9,2043.1 533.9,2039 542.9,2039 542.9,2050.1 533.9,2050.1 533.9,2046 
			532.4,2046 532.4,2043.1 		"/>
	</g>
	<polygon id="XMLID_4947_" class="st1" points="50.6,2000.1 44.4,2005.6 44.4,1994.6 50.6,2000.1 	"/>
	<rect id="XMLID_4946_" x="55.5" y="1979.7" class="st2" width="9" height="11.1"/>
	<rect id="XMLID_4945_" x="55.5" y="2009.3" class="st2" width="9" height="11.1"/>
	<polygon id="XMLID_4944_" class="st2" points="64.5,1998.6 64.5,1994.5 55.5,1994.5 55.5,2005.6 64.5,2005.6 64.5,2001.5 
		66,2001.5 66,1998.6 	"/>
	<text id="XMLID_4943_" transform="matrix(0.9276 0 0 1 557.9119 2007.5083)" class="st3 st4 st5">2</text>
	<text id="XMLID_4942_" transform="matrix(0.9276 0 0 1 15.2224 2007.5083)" class="st3 st4 st5">  2</text>
	<polygon id="XMLID_4941_" class="st1" points="548,2000.1 554.3,2005.6 554.3,1994.6 548,2000.1 	"/>
	<g id="XMLID_4937_">
		<rect id="XMLID_4940_" x="533.9" y="1979.7" class="st2" width="9" height="11.1"/>
		<rect id="XMLID_4939_" x="533.9" y="2009.3" class="st2" width="9" height="11.1"/>
		<polygon id="XMLID_4938_" class="st2" points="533.9,1998.6 533.9,1994.5 542.9,1994.5 542.9,2005.6 533.9,2005.6 533.9,2001.5 
			532.4,2001.5 532.4,1998.6 		"/>
	</g>
	<polygon id="XMLID_4936_" class="st1" points="50.6,1955.6 44.4,1961.1 44.4,1950.2 50.6,1955.6 	"/>
	<rect id="XMLID_4935_" x="55.5" y="1935.2" class="st2" width="9" height="11.1"/>
	<rect id="XMLID_4934_" x="55.5" y="1964.9" class="st2" width="9" height="11.1"/>
	<polygon id="XMLID_4933_" class="st2" points="64.5,1954.2 64.5,1950.1 55.5,1950.1 55.5,1961.2 64.5,1961.2 64.5,1957.1 
		66,1957.1 66,1954.2 	"/>
	<text id="XMLID_4932_" transform="matrix(0.9276 0 0 1 557.9119 1963.0582)" class="st3 st4 st5">3</text>
	<text id="XMLID_4931_" transform="matrix(0.9276 0 0 1 15.2224 1963.0582)" class="st3 st4 st5">  3</text>
	<polygon id="XMLID_4930_" class="st1" points="548,1955.6 554.3,1961.1 554.3,1950.1 548,1955.6 	"/>
	<g id="XMLID_4926_">
		<rect id="XMLID_4929_" x="533.9" y="1935.2" class="st2" width="9" height="11.1"/>
		<rect id="XMLID_4928_" x="533.9" y="1964.9" class="st2" width="9" height="11.1"/>
		<polygon id="XMLID_4927_" class="st2" points="533.9,1954.2 533.9,1950.1 542.9,1950.1 542.9,1961.2 533.9,1961.2 533.9,1957.1 
			532.4,1957.1 532.4,1954.2 		"/>
	</g>
	<polygon id="XMLID_4925_" class="st1" points="50.6,1911.2 44.4,1916.7 44.4,1905.7 50.6,1911.2 	"/>
	<rect id="XMLID_4924_" x="55.5" y="1890.8" class="st2" width="9" height="11.1"/>
	<rect id="XMLID_4923_" x="55.5" y="1920.4" class="st2" width="9" height="11.1"/>
	<polygon id="XMLID_4922_" class="st2" points="64.5,1909.7 64.5,1905.6 55.5,1905.6 55.5,1916.7 64.5,1916.7 64.5,1912.6 
		66,1912.6 66,1909.7 	"/>
	<text id="XMLID_4921_" transform="matrix(0.9276 0 0 1 557.9119 1918.6083)" class="st3 st4 st5">4</text>
	<text id="XMLID_4920_" transform="matrix(0.9276 0 0 1 15.2224 1918.6083)" class="st3 st4 st5">  4</text>
	<polygon id="XMLID_4919_" class="st1" points="548,1911.2 554.3,1916.7 554.3,1905.7 548,1911.2 	"/>
	<g id="XMLID_4915_">
		<rect id="XMLID_4918_" x="533.9" y="1890.8" class="st2" width="9" height="11.1"/>
		<rect id="XMLID_4917_" x="533.9" y="1920.4" class="st2" width="9" height="11.1"/>
		<polygon id="XMLID_4916_" class="st2" points="533.9,1909.7 533.9,1905.6 542.9,1905.6 542.9,1916.7 533.9,1916.7 533.9,1912.6 
			532.4,1912.6 532.4,1909.7 		"/>
	</g>
	<polygon id="XMLID_4914_" class="st1" points="50.6,1866.7 44.4,1872.2 44.4,1861.2 50.6,1866.7 	"/>
	<rect id="XMLID_4913_" x="55.5" y="1846.3" class="st2" width="9" height="11.1"/>
	<rect id="XMLID_4912_" x="55.5" y="1876" class="st2" width="9" height="11.1"/>
	<polygon id="XMLID_4911_" class="st2" points="64.5,1865.3 64.5,1861.2 55.5,1861.2 55.5,1872.3 64.5,1872.3 64.5,1868.2 
		66,1868.2 66,1865.3 	"/>
	<text id="XMLID_4910_" transform="matrix(0.9276 0 0 1 557.9119 1874.1582)" class="st3 st4 st5">5</text>
	<text id="XMLID_4909_" transform="matrix(0.9276 0 0 1 15.2224 1874.1582)" class="st3 st4 st5">  5</text>
	<polygon id="XMLID_4908_" class="st1" points="548,1866.7 554.3,1872.2 554.3,1861.2 548,1866.7 	"/>
	<g id="XMLID_4904_">
		<rect id="XMLID_4907_" x="533.9" y="1846.3" class="st2" width="9" height="11.1"/>
		<rect id="XMLID_4906_" x="533.9" y="1876" class="st2" width="9" height="11.1"/>
		<polygon id="XMLID_4905_" class="st2" points="533.9,1865.3 533.9,1861.2 542.9,1861.2 542.9,1872.3 533.9,1872.3 533.9,1868.2 
			532.4,1868.2 532.4,1865.3 		"/>
	</g>
	<polygon id="XMLID_4903_" class="st1" points="50.6,1822.3 44.4,1827.8 44.4,1816.8 50.6,1822.3 	"/>
	<rect id="XMLID_4902_" x="55.5" y="1801.9" class="st2" width="9" height="11.1"/>
	<rect id="XMLID_4901_" x="55.5" y="1831.5" class="st2" width="9" height="11.1"/>
	<polygon id="XMLID_4900_" class="st2" points="64.5,1820.8 64.5,1816.7 55.5,1816.7 55.5,1827.8 64.5,1827.8 64.5,1823.7 
		66,1823.7 66,1820.8 	"/>
	<text id="XMLID_4899_" transform="matrix(0.9276 0 0 1 557.9119 1829.7083)" class="st3 st4 st5">6</text>
	<text id="XMLID_4898_" transform="matrix(0.9276 0 0 1 15.2224 1829.7083)" class="st3 st4 st5">  6</text>
	<polygon id="XMLID_4897_" class="st1" points="548,1822.3 554.3,1827.8 554.3,1816.8 548,1822.3 	"/>
	<g id="XMLID_4893_">
		<rect id="XMLID_4896_" x="533.9" y="1801.9" class="st2" width="9" height="11.1"/>
		<rect id="XMLID_4895_" x="533.9" y="1831.5" class="st2" width="9" height="11.1"/>
		<polygon id="XMLID_4894_" class="st2" points="533.9,1820.8 533.9,1816.7 542.9,1816.7 542.9,1827.8 533.9,1827.8 533.9,1823.7 
			532.4,1823.7 532.4,1820.8 		"/>
	</g>
	<polygon id="XMLID_4892_" class="st1" points="50.6,1777.8 44.4,1783.3 44.4,1772.3 50.6,1777.8 	"/>
	<rect id="XMLID_4891_" x="55.5" y="1757.4" class="st2" width="9" height="11.1"/>
	<rect id="XMLID_4890_" x="55.5" y="1787.1" class="st2" width="9" height="11.1"/>
	<polygon id="XMLID_4889_" class="st2" points="64.5,1776.4 64.5,1772.3 55.5,1772.3 55.5,1783.4 64.5,1783.4 64.5,1779.3 
		66,1779.3 66,1776.4 	"/>
	<text id="XMLID_4888_" transform="matrix(0.9276 0 0 1 557.9119 1785.2583)" class="st3 st4 st5">7</text>
	<text id="XMLID_4887_" transform="matrix(0.9276 0 0 1 15.2224 1785.2583)" class="st3 st4 st5">  7</text>
	<polygon id="XMLID_4886_" class="st1" points="548,1777.8 554.3,1783.3 554.3,1772.3 548,1777.8 	"/>
	<g id="XMLID_4882_">
		<rect id="XMLID_4885_" x="533.9" y="1757.4" class="st2" width="9" height="11.1"/>
		<rect id="XMLID_4884_" x="533.9" y="1787.1" class="st2" width="9" height="11.1"/>
		<polygon id="XMLID_4883_" class="st2" points="533.9,1776.4 533.9,1772.3 542.9,1772.3 542.9,1783.4 533.9,1783.4 533.9,1779.3 
			532.4,1779.3 532.4,1776.4 		"/>
	</g>
	<polygon id="XMLID_4881_" class="st1" points="50.6,1733.4 44.4,1738.9 44.4,1727.9 50.6,1733.4 	"/>
	<rect id="XMLID_4880_" x="55.5" y="1713" class="st2" width="9" height="11.1"/>
	<rect id="XMLID_4879_" x="55.5" y="1742.6" class="st2" width="9" height="11.1"/>
	<polygon id="XMLID_4878_" class="st2" points="64.5,1731.9 64.5,1727.8 55.5,1727.8 55.5,1738.9 64.5,1738.9 64.5,1734.8 
		66,1734.8 66,1731.9 	"/>
	<text id="XMLID_4877_" transform="matrix(0.9276 0 0 1 557.9119 1740.8082)" class="st3 st4 st5">8</text>
	<text id="XMLID_4876_" transform="matrix(0.9276 0 0 1 15.2224 1740.8082)" class="st3 st4 st5">  8</text>
	<polygon id="XMLID_4875_" class="st1" points="548,1733.4 554.3,1738.9 554.3,1727.9 548,1733.4 	"/>
	<g id="XMLID_4871_">
		<rect id="XMLID_4874_" x="533.9" y="1713" class="st2" width="9" height="11.1"/>
		<rect id="XMLID_4873_" x="533.9" y="1742.6" class="st2" width="9" height="11.1"/>
		<polygon id="XMLID_4872_" class="st2" points="533.9,1731.9 533.9,1727.8 542.9,1727.8 542.9,1738.9 533.9,1738.9 533.9,1734.8 
			532.4,1734.8 532.4,1731.9 		"/>
	</g>
	<polygon id="XMLID_4870_" class="st1" points="50.6,1688.9 44.4,1694.4 44.4,1683.4 50.6,1688.9 	"/>
	<rect id="XMLID_4869_" x="55.5" y="1668.5" class="st2" width="9" height="11.1"/>
	<rect id="XMLID_4868_" x="55.5" y="1698.2" class="st2" width="9" height="11.1"/>
	<polygon id="XMLID_4867_" class="st2" points="64.5,1687.5 64.5,1683.4 55.5,1683.4 55.5,1694.5 64.5,1694.5 64.5,1690.4 
		66,1690.4 66,1687.5 	"/>
	<text id="XMLID_4866_" transform="matrix(0.9276 0 0 1 557.9119 1696.3583)" class="st3 st4 st5">9</text>
	<text id="XMLID_4865_" transform="matrix(0.9276 0 0 1 15.2224 1696.3583)" class="st3 st4 st5">  9</text>
	<polygon id="XMLID_4864_" class="st1" points="548,1688.9 554.3,1694.4 554.3,1683.4 548,1688.9 	"/>
	<g id="XMLID_4860_">
		<rect id="XMLID_4863_" x="533.9" y="1668.5" class="st2" width="9" height="11.1"/>
		<rect id="XMLID_4862_" x="533.9" y="1698.2" class="st2" width="9" height="11.1"/>
		<polygon id="XMLID_4861_" class="st2" points="533.9,1687.5 533.9,1683.4 542.9,1683.4 542.9,1694.5 533.9,1694.5 533.9,1690.4 
			532.4,1690.4 532.4,1687.5 		"/>
	</g>
	<polygon id="XMLID_4859_" class="st1" points="50.6,1644.5 44.4,1650 44.4,1639 50.6,1644.5 	"/>
	<rect id="XMLID_4858_" x="55.5" y="1624.1" class="st2" width="9" height="11.1"/>
	<rect id="XMLID_4857_" x="55.5" y="1653.7" class="st2" width="9" height="11.1"/>
	<polygon id="XMLID_4856_" class="st2" points="64.5,1643 64.5,1638.9 55.5,1638.9 55.5,1650 64.5,1650 64.5,1645.9 66,1645.9 
		66,1643 	"/>
	<text id="XMLID_4855_" transform="matrix(0.9276 0 0 1 557.9119 1651.9082)" class="st3 st4 st5">10</text>
	<text id="XMLID_4854_" transform="matrix(0.9276 0 0 1 15.2224 1651.9082)" class="st3 st4 st5">10</text>
	<polygon id="XMLID_4853_" class="st1" points="548,1644.5 554.3,1650 554.3,1639 548,1644.5 	"/>
	<g id="XMLID_4849_">
		<rect id="XMLID_4852_" x="533.9" y="1624.1" class="st2" width="9" height="11.1"/>
		<rect id="XMLID_4851_" x="533.9" y="1653.7" class="st2" width="9" height="11.1"/>
		<polygon id="XMLID_4850_" class="st2" points="533.9,1643 533.9,1638.9 542.9,1638.9 542.9,1650 533.9,1650 533.9,1645.9 
			532.4,1645.9 532.4,1643 		"/>
	</g>
	<polygon id="XMLID_4848_" class="st1" points="50.6,1600 44.4,1605.5 44.4,1594.5 50.6,1600 	"/>
	<rect id="XMLID_4847_" x="55.5" y="1579.6" class="st2" width="9" height="11.1"/>
	<rect id="XMLID_4846_" x="55.5" y="1609.3" class="st2" width="9" height="11.1"/>
	<polygon id="XMLID_4845_" class="st2" points="64.5,1598.6 64.5,1594.5 55.5,1594.5 55.5,1605.6 64.5,1605.6 64.5,1601.5 
		66,1601.5 66,1598.6 	"/>
	<text id="XMLID_4844_" transform="matrix(0.9276 0 0 1 557.9119 1607.4583)" class="st3 st4 st5">11</text>
	<text id="XMLID_4843_" transform="matrix(0.9276 0 0 1 15.2224 1607.4583)" class="st3 st4 st5">11</text>
	<polygon id="XMLID_4842_" class="st1" points="548,1600 554.3,1605.5 554.3,1594.5 548,1600 	"/>
	<g id="XMLID_4838_">
		<rect id="XMLID_4841_" x="533.9" y="1579.6" class="st2" width="9" height="11.1"/>
		<rect id="XMLID_4840_" x="533.9" y="1609.3" class="st2" width="9" height="11.1"/>
		<polygon id="XMLID_4839_" class="st2" points="533.9,1598.6 533.9,1594.5 542.9,1594.5 542.9,1605.6 533.9,1605.6 533.9,1601.5 
			532.4,1601.5 532.4,1598.6 		"/>
	</g>
	<polygon id="XMLID_4837_" class="st1" points="50.6,1555.6 44.4,1561.1 44.4,1550.1 50.6,1555.6 	"/>
	<rect id="XMLID_4836_" x="55.5" y="1535.2" class="st2" width="9" height="11.1"/>
	<rect id="XMLID_4835_" x="55.5" y="1564.8" class="st2" width="9" height="11.1"/>
	<polygon id="XMLID_4834_" class="st2" points="64.5,1554.1 64.5,1550 55.5,1550 55.5,1561.1 64.5,1561.1 64.5,1557 66,1557 
		66,1554.1 	"/>
	<text id="XMLID_4833_" transform="matrix(0.9276 0 0 1 557.9119 1563.0082)" class="st3 st4 st5">12</text>
	<text id="XMLID_4832_" transform="matrix(0.9276 0 0 1 15.2224 1563.0082)" class="st3 st4 st5">12</text>
	<polygon id="XMLID_4831_" class="st1" points="548,1555.6 554.3,1561.1 554.3,1550.1 548,1555.6 	"/>
	<g id="XMLID_4827_">
		<rect id="XMLID_4830_" x="533.9" y="1535.2" class="st2" width="9" height="11.1"/>
		<rect id="XMLID_4829_" x="533.9" y="1564.8" class="st2" width="9" height="11.1"/>
		<polygon id="XMLID_4828_" class="st2" points="533.9,1554.1 533.9,1550 542.9,1550 542.9,1561.1 533.9,1561.1 533.9,1557 
			532.4,1557 532.4,1554.1 		"/>
	</g>
	<polygon id="XMLID_4826_" class="st1" points="50.6,1511.1 44.4,1516.6 44.4,1505.6 50.6,1511.1 	"/>
	<rect id="XMLID_4825_" x="55.5" y="1490.7" class="st2" width="9" height="11.1"/>
	<rect id="XMLID_4824_" x="55.5" y="1520.4" class="st2" width="9" height="11.1"/>
	<polygon id="XMLID_4823_" class="st2" points="64.5,1509.7 64.5,1505.6 55.5,1505.6 55.5,1516.7 64.5,1516.7 64.5,1512.6 
		66,1512.6 66,1509.7 	"/>
	<text id="XMLID_4822_" transform="matrix(0.9276 0 0 1 557.9119 1518.5582)" class="st3 st4 st5">13</text>
	<text id="XMLID_4821_" transform="matrix(0.9276 0 0 1 15.2224 1518.5582)" class="st3 st4 st5">13</text>
	<polygon id="XMLID_4820_" class="st1" points="548,1511.1 554.3,1516.6 554.3,1505.6 548,1511.1 	"/>
	<g id="XMLID_4816_">
		<rect id="XMLID_4819_" x="533.9" y="1490.7" class="st2" width="9" height="11.1"/>
		<rect id="XMLID_4818_" x="533.9" y="1520.4" class="st2" width="9" height="11.1"/>
		<polygon id="XMLID_4817_" class="st2" points="533.9,1509.7 533.9,1505.6 542.9,1505.6 542.9,1516.7 533.9,1516.7 533.9,1512.6 
			532.4,1512.6 532.4,1509.7 		"/>
	</g>
	<polygon id="XMLID_4815_" class="st1" points="50.6,1466.7 44.4,1472.2 44.4,1461.2 50.6,1466.7 	"/>
	<rect id="XMLID_4814_" x="55.5" y="1446.3" class="st2" width="9" height="11.1"/>
	<rect id="XMLID_4813_" x="55.5" y="1475.9" class="st2" width="9" height="11.1"/>
	<polygon id="XMLID_4812_" class="st2" points="64.5,1465.2 64.5,1461.1 55.5,1461.1 55.5,1472.2 64.5,1472.2 64.5,1468.1 
		66,1468.1 66,1465.2 	"/>
	<text id="XMLID_4811_" transform="matrix(0.9276 0 0 1 557.9119 1474.1082)" class="st3 st4 st5">14</text>
	<text id="XMLID_4810_" transform="matrix(0.9276 0 0 1 15.2224 1474.1082)" class="st3 st4 st5">14</text>
	<polygon id="XMLID_4809_" class="st1" points="548,1466.7 554.3,1472.2 554.3,1461.2 548,1466.7 	"/>
	<g id="XMLID_4805_">
		<rect id="XMLID_4808_" x="533.9" y="1446.3" class="st2" width="9" height="11.1"/>
		<rect id="XMLID_4807_" x="533.9" y="1475.9" class="st2" width="9" height="11.1"/>
		<polygon id="XMLID_4806_" class="st2" points="533.9,1465.2 533.9,1461.1 542.9,1461.1 542.9,1472.2 533.9,1472.2 533.9,1468.1 
			532.4,1468.1 532.4,1465.2 		"/>
	</g>
	<polygon id="XMLID_4804_" class="st1" points="50.6,1422.2 44.4,1427.7 44.4,1416.8 50.6,1422.2 	"/>
	<rect id="XMLID_4803_" x="55.5" y="1401.8" class="st2" width="9" height="11.1"/>
	<rect id="XMLID_4802_" x="55.5" y="1431.5" class="st2" width="9" height="11.1"/>
	<polygon id="XMLID_4801_" class="st2" points="64.5,1420.8 64.5,1416.7 55.5,1416.7 55.5,1427.8 64.5,1427.8 64.5,1423.7 
		66,1423.7 66,1420.8 	"/>
	<text id="XMLID_4800_" transform="matrix(0.9276 0 0 1 557.9119 1429.6582)" class="st3 st4 st5">15</text>
	<text id="XMLID_4799_" transform="matrix(0.9276 0 0 1 15.2224 1429.6582)" class="st3 st4 st5">15</text>
	<polygon id="XMLID_4798_" class="st1" points="548,1422.2 554.3,1427.7 554.3,1416.7 548,1422.2 	"/>
	<g id="XMLID_4794_">
		<rect id="XMLID_4797_" x="533.9" y="1401.8" class="st2" width="9" height="11.1"/>
		<rect id="XMLID_4796_" x="533.9" y="1431.5" class="st2" width="9" height="11.1"/>
		<polygon id="XMLID_4795_" class="st2" points="533.9,1420.8 533.9,1416.7 542.9,1416.7 542.9,1427.8 533.9,1427.8 533.9,1423.7 
			532.4,1423.7 532.4,1420.8 		"/>
	</g>
	<polygon id="XMLID_4793_" class="st1" points="50.6,1377.8 44.4,1383.3 44.4,1372.3 50.6,1377.8 	"/>
	<rect id="XMLID_4792_" x="55.5" y="1357.4" class="st2" width="9" height="11.1"/>
	<rect id="XMLID_4791_" x="55.5" y="1387" class="st2" width="9" height="11.1"/>
	<polygon id="XMLID_4790_" class="st2" points="64.5,1376.3 64.5,1372.2 55.5,1372.2 55.5,1383.3 64.5,1383.3 64.5,1379.2 
		66,1379.2 66,1376.3 	"/>
	<text id="XMLID_4789_" transform="matrix(0.9276 0 0 1 557.9119 1385.2081)" class="st3 st4 st5">16</text>
	<text id="XMLID_4788_" transform="matrix(0.9276 0 0 1 15.2224 1385.2081)" class="st3 st4 st5">16</text>
	<polygon id="XMLID_4787_" class="st1" points="548,1377.8 554.3,1383.3 554.3,1372.3 548,1377.8 	"/>
	<g id="XMLID_4783_">
		<rect id="XMLID_4786_" x="533.9" y="1357.4" class="st2" width="9" height="11.1"/>
		<rect id="XMLID_4785_" x="533.9" y="1387" class="st2" width="9" height="11.1"/>
		<polygon id="XMLID_4784_" class="st2" points="533.9,1376.3 533.9,1372.2 542.9,1372.2 542.9,1383.3 533.9,1383.3 533.9,1379.2 
			532.4,1379.2 532.4,1376.3 		"/>
	</g>
	<polygon id="XMLID_4782_" class="st1" points="50.6,1333.3 44.4,1338.8 44.4,1327.8 50.6,1333.3 	"/>
	<rect id="XMLID_4781_" x="55.5" y="1312.9" class="st2" width="9" height="11.1"/>
	<rect id="XMLID_4780_" x="55.5" y="1342.6" class="st2" width="9" height="11.1"/>
	<polygon id="XMLID_4779_" class="st2" points="64.5,1331.9 64.5,1327.8 55.5,1327.8 55.5,1338.9 64.5,1338.9 64.5,1334.8 
		66,1334.8 66,1331.9 	"/>
	<text id="XMLID_4778_" transform="matrix(0.9276 0 0 1 557.9119 1340.7581)" class="st3 st4 st5">17</text>
	<text id="XMLID_4777_" transform="matrix(0.9276 0 0 1 15.2224 1340.7581)" class="st3 st4 st5">17</text>
	<polygon id="XMLID_4776_" class="st1" points="548,1333.3 554.3,1338.8 554.3,1327.8 548,1333.3 	"/>
	<g id="XMLID_4772_">
		<rect id="XMLID_4775_" x="533.9" y="1312.9" class="st2" width="9" height="11.1"/>
		<rect id="XMLID_4774_" x="533.9" y="1342.6" class="st2" width="9" height="11.1"/>
		<polygon id="XMLID_4773_" class="st2" points="533.9,1331.9 533.9,1327.8 542.9,1327.8 542.9,1338.9 533.9,1338.9 533.9,1334.8 
			532.4,1334.8 532.4,1331.9 		"/>
	</g>
	<polygon id="XMLID_4771_" class="st1" points="50.6,1288.9 44.4,1294.4 44.4,1283.4 50.6,1288.9 	"/>
	<rect id="XMLID_4770_" x="55.5" y="1268.5" class="st2" width="9" height="11.1"/>
	<rect id="XMLID_4769_" x="55.5" y="1298.1" class="st2" width="9" height="11.1"/>
	<polygon id="XMLID_4768_" class="st2" points="64.5,1287.4 64.5,1283.3 55.5,1283.3 55.5,1294.4 64.5,1294.4 64.5,1290.3 
		66,1290.3 66,1287.4 	"/>
	<text id="XMLID_4767_" transform="matrix(0.9276 0 0 1 557.9119 1296.3081)" class="st3 st4 st5">18</text>
	<text id="XMLID_4766_" transform="matrix(0.9276 0 0 1 15.2224 1296.3081)" class="st3 st4 st5">18</text>
	<polygon id="XMLID_4765_" class="st1" points="548,1288.9 554.3,1294.4 554.3,1283.4 548,1288.9 	"/>
	<g id="XMLID_4761_">
		<rect id="XMLID_4764_" x="533.9" y="1268.5" class="st2" width="9" height="11.1"/>
		<rect id="XMLID_4763_" x="533.9" y="1298.1" class="st2" width="9" height="11.1"/>
		<polygon id="XMLID_4762_" class="st2" points="533.9,1287.4 533.9,1283.3 542.9,1283.3 542.9,1294.4 533.9,1294.4 533.9,1290.3 
			532.4,1290.3 532.4,1287.4 		"/>
	</g>
	<polygon id="XMLID_4760_" class="st1" points="50.6,1244.4 44.4,1249.9 44.4,1238.9 50.6,1244.4 	"/>
	<rect id="XMLID_4759_" x="55.5" y="1224" class="st2" width="9" height="11.1"/>
	<rect id="XMLID_4758_" x="55.5" y="1253.7" class="st2" width="9" height="11.1"/>
	<polygon id="XMLID_4757_" class="st2" points="64.5,1243 64.5,1238.9 55.5,1238.9 55.5,1250 64.5,1250 64.5,1245.9 66,1245.9 
		66,1243 	"/>
	<text id="XMLID_4756_" transform="matrix(0.9276 0 0 1 557.9119 1251.8582)" class="st3 st4 st5">19</text>
	<text id="XMLID_4755_" transform="matrix(0.9276 0 0 1 15.2224 1251.8582)" class="st3 st4 st5">19</text>
	<polygon id="XMLID_4754_" class="st1" points="548,1244.4 554.3,1249.9 554.3,1238.9 548,1244.4 	"/>
	<g id="XMLID_4750_">
		<rect id="XMLID_4753_" x="533.9" y="1224" class="st2" width="9" height="11.1"/>
		<rect id="XMLID_4752_" x="533.9" y="1253.7" class="st2" width="9" height="11.1"/>
		<polygon id="XMLID_4751_" class="st2" points="533.9,1243 533.9,1238.9 542.9,1238.9 542.9,1250 533.9,1250 533.9,1245.9 
			532.4,1245.9 532.4,1243 		"/>
	</g>
	<polygon id="XMLID_4749_" class="st1" points="50.6,1200 44.4,1205.5 44.4,1194.5 50.6,1200 	"/>
	<rect id="XMLID_4748_" x="55.5" y="1179.6" class="st2" width="9" height="11.1"/>
	<rect id="XMLID_4747_" x="55.5" y="1209.2" class="st2" width="9" height="11.1"/>
	<polygon id="XMLID_4746_" class="st2" points="64.5,1198.5 64.5,1194.4 55.5,1194.4 55.5,1205.5 64.5,1205.5 64.5,1201.4 
		66,1201.4 66,1198.5 	"/>
	<text id="XMLID_4745_" transform="matrix(0.9276 0 0 1 557.9119 1207.4081)" class="st3 st4 st5">20</text>
	<text id="XMLID_4744_" transform="matrix(0.9276 0 0 1 15.2224 1207.4081)" class="st3 st4 st5">20</text>
	<polygon id="XMLID_4743_" class="st1" points="548,1200 554.3,1205.5 554.3,1194.5 548,1200 	"/>
	<g id="XMLID_4739_">
		<rect id="XMLID_4742_" x="533.9" y="1179.6" class="st2" width="9" height="11.1"/>
		<rect id="XMLID_4741_" x="533.9" y="1209.2" class="st2" width="9" height="11.1"/>
		<polygon id="XMLID_4740_" class="st2" points="533.9,1198.5 533.9,1194.4 542.9,1194.4 542.9,1205.5 533.9,1205.5 533.9,1201.4 
			532.4,1201.4 532.4,1198.5 		"/>
	</g>
	<polygon id="XMLID_4738_" class="st1" points="50.6,1155.5 44.4,1161 44.4,1150 50.6,1155.5 	"/>
	<rect id="XMLID_4737_" x="55.5" y="1135.1" class="st2" width="9" height="11.1"/>
	<rect id="XMLID_4736_" x="55.5" y="1164.8" class="st2" width="9" height="11.1"/>
	<polygon id="XMLID_4735_" class="st2" points="64.5,1154.1 64.5,1150 55.5,1150 55.5,1161.1 64.5,1161.1 64.5,1157 66,1157 
		66,1154.1 	"/>
	<text id="XMLID_4734_" transform="matrix(0.9276 0 0 1 557.9119 1162.958)" class="st3 st4 st5">21</text>
	<text id="XMLID_4733_" transform="matrix(0.9276 0 0 1 15.2224 1162.958)" class="st3 st4 st5">21</text>
	<polygon id="XMLID_4732_" class="st1" points="548,1155.5 554.3,1161 554.3,1150 548,1155.5 	"/>
	<g id="XMLID_4728_">
		<rect id="XMLID_4731_" x="533.9" y="1135.1" class="st2" width="9" height="11.1"/>
		<rect id="XMLID_4730_" x="533.9" y="1164.8" class="st2" width="9" height="11.1"/>
		<polygon id="XMLID_4729_" class="st2" points="533.9,1154.1 533.9,1150 542.9,1150 542.9,1161.1 533.9,1161.1 533.9,1157 
			532.4,1157 532.4,1154.1 		"/>
	</g>
	<polygon id="XMLID_4727_" class="st1" points="50.6,1111.1 44.4,1116.6 44.4,1105.6 50.6,1111.1 	"/>
	<rect id="XMLID_4726_" x="55.5" y="1090.7" class="st2" width="9" height="11.1"/>
	<rect id="XMLID_4725_" x="55.5" y="1120.3" class="st2" width="9" height="11.1"/>
	<polygon id="XMLID_4724_" class="st2" points="64.5,1109.6 64.5,1105.5 55.5,1105.5 55.5,1116.6 64.5,1116.6 64.5,1112.5 
		66,1112.5 66,1109.6 	"/>
	<text id="XMLID_4723_" transform="matrix(0.9276 0 0 1 557.9119 1118.5081)" class="st3 st4 st5">22</text>
	<text id="XMLID_4722_" transform="matrix(0.9276 0 0 1 15.2224 1118.5081)" class="st3 st4 st5">22</text>
	<polygon id="XMLID_4721_" class="st1" points="548,1111.1 554.3,1116.6 554.3,1105.6 548,1111.1 	"/>
	<g id="XMLID_4717_">
		<rect id="XMLID_4720_" x="533.9" y="1090.7" class="st2" width="9" height="11.1"/>
		<rect id="XMLID_4719_" x="533.9" y="1120.3" class="st2" width="9" height="11.1"/>
		<polygon id="XMLID_4718_" class="st2" points="533.9,1109.6 533.9,1105.5 542.9,1105.5 542.9,1116.6 533.9,1116.6 533.9,1112.5 
			532.4,1112.5 532.4,1109.6 		"/>
	</g>
	<polygon id="XMLID_4716_" class="st1" points="50.6,1066.6 44.4,1072.1 44.4,1061.1 50.6,1066.6 	"/>
	<rect id="XMLID_4715_" x="55.5" y="1046.2" class="st2" width="9" height="11.1"/>
	<rect id="XMLID_4714_" x="55.5" y="1075.9" class="st2" width="9" height="11.1"/>
	<polygon id="XMLID_4713_" class="st2" points="64.5,1065.2 64.5,1061.1 55.5,1061.1 55.5,1072.2 64.5,1072.2 64.5,1068.1 
		66,1068.1 66,1065.2 	"/>
	<text id="XMLID_4712_" transform="matrix(0.9276 0 0 1 557.9119 1074.0581)" class="st3 st4 st5">23</text>
	<text id="XMLID_4711_" transform="matrix(0.9276 0 0 1 15.2224 1074.0581)" class="st3 st4 st5">23</text>
	<polygon id="XMLID_4710_" class="st1" points="548,1066.6 554.3,1072.1 554.3,1061.1 548,1066.6 	"/>
	<g id="XMLID_4706_">
		<rect id="XMLID_4709_" x="533.9" y="1046.2" class="st2" width="9" height="11.1"/>
		<rect id="XMLID_4708_" x="533.9" y="1075.9" class="st2" width="9" height="11.1"/>
		<polygon id="XMLID_4707_" class="st2" points="533.9,1065.2 533.9,1061.1 542.9,1061.1 542.9,1072.2 533.9,1072.2 533.9,1068.1 
			532.4,1068.1 532.4,1065.2 		"/>
	</g>
	<polygon id="XMLID_4705_" class="st1" points="50.6,1022.2 44.4,1027.7 44.4,1016.7 50.6,1022.2 	"/>
	<rect id="XMLID_4704_" x="55.5" y="1001.8" class="st2" width="9" height="11.1"/>
	<rect id="XMLID_4703_" x="55.5" y="1031.4" class="st2" width="9" height="11.1"/>
	<polygon id="XMLID_4702_" class="st2" points="64.5,1020.7 64.5,1016.6 55.5,1016.6 55.5,1027.7 64.5,1027.7 64.5,1023.6 
		66,1023.6 66,1020.7 	"/>
	<text id="XMLID_4701_" transform="matrix(0.9276 0 0 1 557.9119 1029.608)" class="st3 st4 st5">24</text>
	<text id="XMLID_4700_" transform="matrix(0.9276 0 0 1 15.2224 1029.608)" class="st3 st4 st5">24</text>
	<polygon id="XMLID_4699_" class="st1" points="548,1022.2 554.3,1027.7 554.3,1016.7 548,1022.2 	"/>
	<g id="XMLID_4695_">
		<rect id="XMLID_4698_" x="533.9" y="1001.8" class="st2" width="9" height="11.1"/>
		<rect id="XMLID_4697_" x="533.9" y="1031.4" class="st2" width="9" height="11.1"/>
		<polygon id="XMLID_4696_" class="st2" points="533.9,1020.7 533.9,1016.6 542.9,1016.6 542.9,1027.7 533.9,1027.7 533.9,1023.6 
			532.4,1023.6 532.4,1020.7 		"/>
	</g>
	<polygon id="XMLID_4694_" class="st1" points="50.6,977.7 44.4,983.2 44.4,972.2 50.6,977.7 	"/>
	<rect id="XMLID_4693_" x="55.5" y="957.3" class="st2" width="9" height="11.1"/>
	<rect id="XMLID_4692_" x="55.5" y="987" class="st2" width="9" height="11.1"/>
	<polygon id="XMLID_4691_" class="st2" points="64.5,976.3 64.5,972.2 55.5,972.2 55.5,983.3 64.5,983.3 64.5,979.2 66,979.2 
		66,976.3 	"/>
	<text id="XMLID_4690_" transform="matrix(0.9276 0 0 1 557.9119 985.1581)" class="st3 st4 st5">25</text>
	<text id="XMLID_4689_" transform="matrix(0.9276 0 0 1 15.2224 985.1581)" class="st3 st4 st5">25</text>
	<polygon id="XMLID_4688_" class="st1" points="548,977.7 554.3,983.2 554.3,972.2 548,977.7 	"/>
	<g id="XMLID_4684_">
		<rect id="XMLID_4687_" x="533.9" y="957.3" class="st2" width="9" height="11.1"/>
		<rect id="XMLID_4686_" x="533.9" y="987" class="st2" width="9" height="11.1"/>
		<polygon id="XMLID_4685_" class="st2" points="533.9,976.3 533.9,972.2 542.9,972.2 542.9,983.3 533.9,983.3 533.9,979.2 
			532.4,979.2 532.4,976.3 		"/>
	</g>
	<polygon id="XMLID_4683_" class="st1" points="50.6,933.3 44.4,938.8 44.4,927.8 50.6,933.3 	"/>
	<rect id="XMLID_4682_" x="55.5" y="912.9" class="st2" width="9" height="11.1"/>
	<rect id="XMLID_4681_" x="55.5" y="942.5" class="st2" width="9" height="11.1"/>
	<polygon id="XMLID_4680_" class="st2" points="64.5,931.8 64.5,927.7 55.5,927.7 55.5,938.8 64.5,938.8 64.5,934.7 66,934.7 
		66,931.8 	"/>
	<text id="XMLID_4679_" transform="matrix(0.9276 0 0 1 557.9119 940.7083)" class="st3 st4 st5">26</text>
	<text id="XMLID_4678_" transform="matrix(0.9276 0 0 1 15.2224 940.7083)" class="st3 st4 st5">26</text>
	<polygon id="XMLID_4677_" class="st1" points="548,933.3 554.3,938.8 554.3,927.8 548,933.3 	"/>
	<g id="XMLID_4673_">
		<rect id="XMLID_4676_" x="533.9" y="912.9" class="st2" width="9" height="11.1"/>
		<rect id="XMLID_4675_" x="533.9" y="942.5" class="st2" width="9" height="11.1"/>
		<polygon id="XMLID_4674_" class="st2" points="533.9,931.8 533.9,927.7 542.9,927.7 542.9,938.8 533.9,938.8 533.9,934.7 
			532.4,934.7 532.4,931.8 		"/>
	</g>
	<polygon id="XMLID_4672_" class="st1" points="50.6,888.8 44.4,894.3 44.4,883.3 50.6,888.8 	"/>
	<rect id="XMLID_4671_" x="55.5" y="868.4" class="st2" width="9" height="11.1"/>
	<rect id="XMLID_4670_" x="55.5" y="898.1" class="st2" width="9" height="11.1"/>
	<polygon id="XMLID_4669_" class="st2" points="64.5,887.4 64.5,883.3 55.5,883.3 55.5,894.4 64.5,894.4 64.5,890.3 66,890.3 
		66,887.4 	"/>
	<text id="XMLID_4668_" transform="matrix(0.9276 0 0 1 557.9119 896.2582)" class="st3 st4 st5">27</text>
	<text id="XMLID_4667_" transform="matrix(0.9276 0 0 1 15.2224 896.2582)" class="st3 st4 st5">27</text>
	<polygon id="XMLID_4666_" class="st1" points="548,888.8 554.3,894.3 554.3,883.3 548,888.8 	"/>
	<g id="XMLID_4662_">
		<rect id="XMLID_4665_" x="533.9" y="868.4" class="st2" width="9" height="11.1"/>
		<rect id="XMLID_4664_" x="533.9" y="898.1" class="st2" width="9" height="11.1"/>
		<polygon id="XMLID_4663_" class="st2" points="533.9,887.4 533.9,883.3 542.9,883.3 542.9,894.4 533.9,894.4 533.9,890.3 
			532.4,890.3 532.4,887.4 		"/>
	</g>
	<polygon id="XMLID_4661_" class="st1" points="50.6,844.4 44.4,849.9 44.4,838.9 50.6,844.4 	"/>
	<rect id="XMLID_4660_" x="55.5" y="824" class="st2" width="9" height="11.1"/>
	<rect id="XMLID_4659_" x="55.5" y="853.6" class="st2" width="9" height="11.1"/>
	<polygon id="XMLID_4658_" class="st2" points="64.5,842.9 64.5,838.8 55.5,838.8 55.5,849.9 64.5,849.9 64.5,845.8 66,845.8 
		66,842.9 	"/>
	<text id="XMLID_4657_" transform="matrix(0.9276 0 0 1 557.9119 851.8082)" class="st3 st4 st5">28</text>
	<text id="XMLID_4656_" transform="matrix(0.9276 0 0 1 15.2224 851.8082)" class="st3 st4 st5">28</text>
	<polygon id="XMLID_4655_" class="st1" points="548,844.4 554.3,849.9 554.3,838.9 548,844.4 	"/>
	<g id="XMLID_4651_">
		<rect id="XMLID_4654_" x="533.9" y="824" class="st2" width="9" height="11.1"/>
		<rect id="XMLID_4653_" x="533.9" y="853.6" class="st2" width="9" height="11.1"/>
		<polygon id="XMLID_4652_" class="st2" points="533.9,842.9 533.9,838.8 542.9,838.8 542.9,849.9 533.9,849.9 533.9,845.8 
			532.4,845.8 532.4,842.9 		"/>
	</g>
	<polygon id="XMLID_4650_" class="st1" points="50.6,799.9 44.4,805.4 44.4,794.4 50.6,799.9 	"/>
	<rect id="XMLID_4649_" x="55.5" y="779.5" class="st2" width="9" height="11.1"/>
	<rect id="XMLID_4648_" x="55.5" y="809.2" class="st2" width="9" height="11.1"/>
	<polygon id="XMLID_4647_" class="st2" points="64.5,798.5 64.5,794.4 55.5,794.4 55.5,805.5 64.5,805.5 64.5,801.4 66,801.4 
		66,798.5 	"/>
	<text id="XMLID_4646_" transform="matrix(0.9276 0 0 1 557.9119 807.3583)" class="st3 st4 st5">29</text>
	<text id="XMLID_4645_" transform="matrix(0.9276 0 0 1 15.2224 807.3583)" class="st3 st4 st5">29</text>
	<polygon id="XMLID_4644_" class="st1" points="548,799.9 554.3,805.4 554.3,794.4 548,799.9 	"/>
	<g id="XMLID_4640_">
		<rect id="XMLID_4643_" x="533.9" y="779.5" class="st2" width="9" height="11.1"/>
		<rect id="XMLID_4642_" x="533.9" y="809.2" class="st2" width="9" height="11.1"/>
		<polygon id="XMLID_4641_" class="st2" points="533.9,798.5 533.9,794.4 542.9,794.4 542.9,805.5 533.9,805.5 533.9,801.4 
			532.4,801.4 532.4,798.5 		"/>
	</g>
	<polygon id="XMLID_4639_" class="st1" points="50.6,755.5 44.4,761 44.4,750 50.6,755.5 	"/>
	<rect id="XMLID_4638_" x="55.5" y="735.1" class="st2" width="9" height="11.1"/>
	<rect id="XMLID_4637_" x="55.5" y="764.7" class="st2" width="9" height="11.1"/>
	<polygon id="XMLID_4636_" class="st2" points="64.5,754 64.5,749.9 55.5,749.9 55.5,761 64.5,761 64.5,756.9 66,756.9 66,754 	"/>
	<text id="XMLID_4635_" transform="matrix(0.9276 0 0 1 557.9119 762.9083)" class="st3 st4 st5">30</text>
	<text id="XMLID_4634_" transform="matrix(0.9276 0 0 1 15.2224 762.9083)" class="st3 st4 st5">30</text>
	<polygon id="XMLID_4633_" class="st1" points="548,755.5 554.3,761 554.3,750 548,755.5 	"/>
	<g id="XMLID_4629_">
		<rect id="XMLID_4632_" x="533.9" y="735.1" class="st2" width="9" height="11.1"/>
		<rect id="XMLID_4631_" x="533.9" y="764.7" class="st2" width="9" height="11.1"/>
		<polygon id="XMLID_4630_" class="st2" points="533.9,754 533.9,749.9 542.9,749.9 542.9,761 533.9,761 533.9,756.9 532.4,756.9 
			532.4,754 		"/>
	</g>
	<polygon id="XMLID_4628_" class="st1" points="50.6,711 44.4,716.5 44.4,705.5 50.6,711 	"/>
	<rect id="XMLID_4627_" x="55.5" y="690.6" class="st2" width="9" height="11.1"/>
	<rect id="XMLID_4626_" x="55.5" y="720.3" class="st2" width="9" height="11.1"/>
	<polygon id="XMLID_4625_" class="st2" points="64.5,709.6 64.5,705.5 55.5,705.5 55.5,716.6 64.5,716.6 64.5,712.5 66,712.5 
		66,709.6 	"/>
	<text id="XMLID_4624_" transform="matrix(0.9276 0 0 1 557.9119 718.4584)" class="st3 st4 st5">31</text>
	<text id="XMLID_4623_" transform="matrix(0.9276 0 0 1 15.2224 718.4584)" class="st3 st4 st5">31</text>
	<polygon id="XMLID_4622_" class="st1" points="548,711 554.3,716.5 554.3,705.5 548,711 	"/>
	<g id="XMLID_4618_">
		<rect id="XMLID_4621_" x="533.9" y="690.6" class="st2" width="9" height="11.1"/>
		<rect id="XMLID_4620_" x="533.9" y="720.3" class="st2" width="9" height="11.1"/>
		<polygon id="XMLID_4619_" class="st2" points="533.9,709.6 533.9,705.5 542.9,705.5 542.9,716.6 533.9,716.6 533.9,712.5 
			532.4,712.5 532.4,709.6 		"/>
	</g>
	<polygon id="XMLID_4617_" class="st1" points="50.6,666.6 44.4,672.1 44.4,661.1 50.6,666.6 	"/>
	<rect id="XMLID_4616_" x="55.5" y="646.2" class="st2" width="9" height="11.1"/>
	<rect id="XMLID_4615_" x="55.5" y="675.8" class="st2" width="9" height="11.1"/>
	<polygon id="XMLID_4614_" class="st2" points="64.5,665.1 64.5,661 55.5,661 55.5,672.1 64.5,672.1 64.5,668 66,668 66,665.1 	"/>
	<text id="XMLID_4613_" transform="matrix(0.9276 0 0 1 557.9119 674.0084)" class="st3 st4 st5">32</text>
	<text id="XMLID_4612_" transform="matrix(0.9276 0 0 1 15.2224 674.0084)" class="st3 st4 st5">32</text>
	<polygon id="XMLID_4611_" class="st1" points="548,666.6 554.3,672.1 554.3,661.1 548,666.6 	"/>
	<g id="XMLID_4607_">
		<rect id="XMLID_4610_" x="533.9" y="646.2" class="st2" width="9" height="11.1"/>
		<rect id="XMLID_4609_" x="533.9" y="675.8" class="st2" width="9" height="11.1"/>
		<polygon id="XMLID_4608_" class="st2" points="533.9,665.1 533.9,661 542.9,661 542.9,672.1 533.9,672.1 533.9,668 532.4,668 
			532.4,665.1 		"/>
	</g>
	<polygon id="XMLID_4606_" class="st1" points="50.6,622.1 44.4,627.6 44.4,616.6 50.6,622.1 	"/>
	<rect id="XMLID_4605_" x="55.5" y="601.7" class="st2" width="9" height="11.1"/>
	<rect id="XMLID_4604_" x="55.5" y="631.4" class="st2" width="9" height="11.1"/>
	<polygon id="XMLID_4603_" class="st2" points="64.5,620.7 64.5,616.6 55.5,616.6 55.5,627.7 64.5,627.7 64.5,623.6 66,623.6 
		66,620.7 	"/>
	<text id="XMLID_4602_" transform="matrix(0.9276 0 0 1 557.9119 629.5585)" class="st3 st4 st5">33</text>
	<text id="XMLID_4601_" transform="matrix(0.9276 0 0 1 15.2224 629.5585)" class="st3 st4 st5">33</text>
	<polygon id="XMLID_4600_" class="st1" points="548,622.1 554.3,627.6 554.3,616.6 548,622.1 	"/>
	<g id="XMLID_4596_">
		<rect id="XMLID_4599_" x="533.9" y="601.7" class="st2" width="9" height="11.1"/>
		<rect id="XMLID_4598_" x="533.9" y="631.4" class="st2" width="9" height="11.1"/>
		<polygon id="XMLID_4597_" class="st2" points="533.9,620.7 533.9,616.6 542.9,616.6 542.9,627.7 533.9,627.7 533.9,623.6 
			532.4,623.6 532.4,620.7 		"/>
	</g>
	<polygon id="XMLID_4595_" class="st1" points="50.6,577.7 44.4,583.2 44.4,572.2 50.6,577.7 	"/>
	<rect id="XMLID_4594_" x="55.5" y="557.3" class="st2" width="9" height="11.1"/>
	<rect id="XMLID_4593_" x="55.5" y="586.9" class="st2" width="9" height="11.1"/>
	<polygon id="XMLID_4592_" class="st2" points="64.5,576.2 64.5,572.1 55.5,572.1 55.5,583.2 64.5,583.2 64.5,579.1 66,579.1 
		66,576.2 	"/>
	<text id="XMLID_4591_" transform="matrix(0.9276 0 0 1 557.9119 585.1085)" class="st3 st4 st5">34</text>
	<text id="XMLID_4590_" transform="matrix(0.9276 0 0 1 15.2224 585.1085)" class="st3 st4 st5">34</text>
	<polygon id="XMLID_4589_" class="st1" points="548,577.7 554.3,583.2 554.3,572.2 548,577.7 	"/>
	<g id="XMLID_4585_">
		<rect id="XMLID_4588_" x="533.9" y="557.3" class="st2" width="9" height="11.1"/>
		<rect id="XMLID_4587_" x="533.9" y="586.9" class="st2" width="9" height="11.1"/>
		<polygon id="XMLID_4586_" class="st2" points="533.9,576.2 533.9,572.1 542.9,572.1 542.9,583.2 533.9,583.2 533.9,579.1 
			532.4,579.1 532.4,576.2 		"/>
	</g>
	<polygon id="XMLID_4584_" class="st1" points="50.6,533.2 44.4,538.7 44.4,527.7 50.6,533.2 	"/>
	<rect id="XMLID_4583_" x="55.5" y="512.8" class="st2" width="9" height="11.1"/>
	<rect id="XMLID_4582_" x="55.5" y="542.5" class="st2" width="9" height="11.1"/>
	<polygon id="XMLID_4581_" class="st2" points="64.5,531.8 64.5,527.7 55.5,527.7 55.5,538.8 64.5,538.8 64.5,534.7 66,534.7 
		66,531.8 	"/>
	<text id="XMLID_4580_" transform="matrix(0.9276 0 0 1 557.9119 540.6586)" class="st3 st4 st5">35</text>
	<text id="XMLID_4579_" transform="matrix(0.9276 0 0 1 15.2224 540.6586)" class="st3 st4 st5">35</text>
	<polygon id="XMLID_4578_" class="st1" points="548,533.2 554.3,538.7 554.3,527.7 548,533.2 	"/>
	<g id="XMLID_4574_">
		<rect id="XMLID_4577_" x="533.9" y="512.8" class="st2" width="9" height="11.1"/>
		<rect id="XMLID_4576_" x="533.9" y="542.5" class="st2" width="9" height="11.1"/>
		<polygon id="XMLID_4575_" class="st2" points="533.9,531.8 533.9,527.7 542.9,527.7 542.9,538.8 533.9,538.8 533.9,534.7 
			532.4,534.7 532.4,531.8 		"/>
	</g>
	<polygon id="XMLID_4573_" class="st1" points="50.6,488.8 44.4,494.3 44.4,483.3 50.6,488.8 	"/>
	<rect id="XMLID_4572_" x="55.5" y="468.4" class="st2" width="9" height="11.1"/>
	<rect id="XMLID_4571_" x="55.5" y="498" class="st2" width="9" height="11.1"/>
	<polygon id="XMLID_4570_" class="st2" points="64.5,487.3 64.5,483.2 55.5,483.2 55.5,494.3 64.5,494.3 64.5,490.2 66,490.2 
		66,487.3 	"/>
	<text id="XMLID_4569_" transform="matrix(0.9276 0 0 1 557.9119 496.2086)" class="st3 st4 st5">36</text>
	<text id="XMLID_4568_" transform="matrix(0.9276 0 0 1 15.2224 496.2086)" class="st3 st4 st5">36</text>
	<polygon id="XMLID_4567_" class="st1" points="548,488.8 554.3,494.3 554.3,483.3 548,488.8 	"/>
	<g id="XMLID_4563_">
		<rect id="XMLID_4566_" x="533.9" y="468.4" class="st2" width="9" height="11.1"/>
		<rect id="XMLID_4565_" x="533.9" y="498" class="st2" width="9" height="11.1"/>
		<polygon id="XMLID_4564_" class="st2" points="533.9,487.3 533.9,483.2 542.9,483.2 542.9,494.3 533.9,494.3 533.9,490.2 
			532.4,490.2 532.4,487.3 		"/>
	</g>
	<polygon id="XMLID_4562_" class="st1" points="50.6,444.3 44.4,449.8 44.4,438.8 50.6,444.3 	"/>
	<rect id="XMLID_4561_" x="55.5" y="423.9" class="st2" width="9" height="11.1"/>
	<rect id="XMLID_4560_" x="55.5" y="453.6" class="st2" width="9" height="11.1"/>
	<polygon id="XMLID_4559_" class="st2" points="64.5,442.9 64.5,438.8 55.5,438.8 55.5,449.9 64.5,449.9 64.5,445.8 66,445.8 
		66,442.9 	"/>
	<text id="XMLID_4558_" transform="matrix(0.9276 0 0 1 557.9119 451.7587)" class="st3 st4 st5">37</text>
	<text id="XMLID_4557_" transform="matrix(0.9276 0 0 1 15.2224 451.7587)" class="st3 st4 st5">37</text>
	<polygon id="XMLID_4556_" class="st1" points="548,444.3 554.3,449.8 554.3,438.8 548,444.3 	"/>
	<g id="XMLID_4552_">
		<rect id="XMLID_4555_" x="533.9" y="423.9" class="st2" width="9" height="11.1"/>
		<rect id="XMLID_4554_" x="533.9" y="453.6" class="st2" width="9" height="11.1"/>
		<polygon id="XMLID_4553_" class="st2" points="533.9,442.9 533.9,438.8 542.9,438.8 542.9,449.9 533.9,449.9 533.9,445.8 
			532.4,445.8 532.4,442.9 		"/>
	</g>
	<polygon id="XMLID_4551_" class="st1" points="50.6,399.9 44.4,405.4 44.4,394.4 50.6,399.9 	"/>
	<rect id="XMLID_4550_" x="55.5" y="379.5" class="st2" width="9" height="11.1"/>
	<rect id="XMLID_4549_" x="55.5" y="409.1" class="st2" width="9" height="11.1"/>
	<polygon id="XMLID_4548_" class="st2" points="64.5,398.4 64.5,394.3 55.5,394.3 55.5,405.4 64.5,405.4 64.5,401.3 66,401.3 
		66,398.4 	"/>
	<text id="XMLID_4547_" transform="matrix(0.9276 0 0 1 557.9119 407.3087)" class="st3 st4 st5">38</text>
	<text id="XMLID_4546_" transform="matrix(0.9276 0 0 1 15.2224 407.3087)" class="st3 st4 st5">38</text>
	<polygon id="XMLID_4545_" class="st1" points="548,399.9 554.3,405.4 554.3,394.4 548,399.9 	"/>
	<g id="XMLID_4541_">
		<rect id="XMLID_4544_" x="533.9" y="379.5" class="st2" width="9" height="11.1"/>
		<rect id="XMLID_4543_" x="533.9" y="409.1" class="st2" width="9" height="11.1"/>
		<polygon id="XMLID_4542_" class="st2" points="533.9,398.4 533.9,394.3 542.9,394.3 542.9,405.4 533.9,405.4 533.9,401.3 
			532.4,401.3 532.4,398.4 		"/>
	</g>
	<polygon id="XMLID_4540_" class="st1" points="50.6,355.4 44.4,360.9 44.4,349.9 50.6,355.4 	"/>
	<rect id="XMLID_4539_" x="55.5" y="335" class="st2" width="9" height="11.1"/>
	<rect id="XMLID_4538_" x="55.5" y="364.7" class="st2" width="9" height="11.1"/>
	<polygon id="XMLID_4537_" class="st2" points="64.5,354 64.5,349.9 55.5,349.9 55.5,361 64.5,361 64.5,356.9 66,356.9 66,354 	"/>
	<text id="XMLID_4536_" transform="matrix(0.9276 0 0 1 557.9119 362.8589)" class="st3 st4 st5">39</text>
	<text id="XMLID_4535_" transform="matrix(0.9276 0 0 1 15.2224 362.8589)" class="st3 st4 st5">39</text>
	<polygon id="XMLID_4534_" class="st1" points="548,355.4 554.3,360.9 554.3,349.9 548,355.4 	"/>
	<g id="XMLID_4530_">
		<rect id="XMLID_4533_" x="533.9" y="335" class="st2" width="9" height="11.1"/>
		<rect id="XMLID_4532_" x="533.9" y="364.7" class="st2" width="9" height="11.1"/>
		<polygon id="XMLID_4531_" class="st2" points="533.9,354 533.9,349.9 542.9,349.9 542.9,361 533.9,361 533.9,356.9 532.4,356.9 
			532.4,354 		"/>
	</g>
	<polygon id="XMLID_4529_" class="st1" points="50.6,311 44.4,316.5 44.4,305.5 50.6,311 	"/>
	<rect id="XMLID_4528_" x="55.5" y="290.6" class="st2" width="9" height="11.1"/>
	<rect id="XMLID_4527_" x="55.5" y="320.2" class="st2" width="9" height="11.1"/>
	<polygon id="XMLID_4526_" class="st2" points="64.5,309.5 64.5,305.4 55.5,305.4 55.5,316.5 64.5,316.5 64.5,312.4 66,312.4 
		66,309.5 	"/>
	<text id="XMLID_4525_" transform="matrix(0.9276 0 0 1 557.9119 318.4089)" class="st3 st4 st5">40</text>
	<text id="XMLID_4524_" transform="matrix(0.9276 0 0 1 15.2224 318.4089)" class="st3 st4 st5">40</text>
	<polygon id="XMLID_4523_" class="st1" points="548,311 554.3,316.5 554.3,305.5 548,311 	"/>
	<g id="XMLID_4519_">
		<rect id="XMLID_4522_" x="533.9" y="290.6" class="st2" width="9" height="11.1"/>
		<rect id="XMLID_4521_" x="533.9" y="320.2" class="st2" width="9" height="11.1"/>
		<polygon id="XMLID_4520_" class="st2" points="533.9,309.5 533.9,305.4 542.9,305.4 542.9,316.5 533.9,316.5 533.9,312.4 
			532.4,312.4 532.4,309.5 		"/>
	</g>
	<polygon id="XMLID_4518_" class="st1" points="50.6,266.5 44.4,272 44.4,261 50.6,266.5 	"/>
	<rect id="XMLID_4517_" x="55.5" y="246.1" class="st2" width="9" height="11.1"/>
	<rect id="XMLID_4516_" x="55.5" y="275.8" class="st2" width="9" height="11.1"/>
	<polygon id="XMLID_4515_" class="st2" points="64.5,265.1 64.5,261 55.5,261 55.5,272.1 64.5,272.1 64.5,268 66,268 66,265.1 	"/>
	<text id="XMLID_4514_" transform="matrix(0.9276 0 0 1 557.9119 273.959)" class="st3 st4 st5">41</text>
	<text id="XMLID_4513_" transform="matrix(0.9276 0 0 1 15.2224 273.959)" class="st3 st4 st5">41</text>
	<polygon id="XMLID_4512_" class="st1" points="548,266.5 554.3,272 554.3,261 548,266.5 	"/>
	<g id="XMLID_4508_">
		<rect id="XMLID_4511_" x="533.9" y="246.1" class="st2" width="9" height="11.1"/>
		<rect id="XMLID_4510_" x="533.9" y="275.8" class="st2" width="9" height="11.1"/>
		<polygon id="XMLID_4509_" class="st2" points="533.9,265.1 533.9,261 542.9,261 542.9,272.1 533.9,272.1 533.9,268 532.4,268 
			532.4,265.1 		"/>
	</g>
	<polygon id="XMLID_4507_" class="st1" points="50.6,222.1 44.4,227.6 44.4,216.6 50.6,222.1 	"/>
	<rect id="XMLID_4506_" x="55.5" y="201.7" class="st2" width="9" height="11.1"/>
	<rect id="XMLID_4505_" x="55.5" y="231.3" class="st2" width="9" height="11.1"/>
	<polygon id="XMLID_4504_" class="st2" points="64.5,220.6 64.5,216.5 55.5,216.5 55.5,227.6 64.5,227.6 64.5,223.5 66,223.5 
		66,220.6 	"/>
	<text id="XMLID_4503_" transform="matrix(0.9276 0 0 1 557.9119 229.509)" class="st3 st4 st5">42</text>
	<text id="XMLID_4502_" transform="matrix(0.9276 0 0 1 15.2224 229.509)" class="st3 st4 st5">42</text>
	<polygon id="XMLID_4501_" class="st1" points="548,222.1 554.3,227.6 554.3,216.6 548,222.1 	"/>
	<g id="XMLID_4497_">
		<rect id="XMLID_4500_" x="533.9" y="201.7" class="st2" width="9" height="11.1"/>
		<rect id="XMLID_4499_" x="533.9" y="231.3" class="st2" width="9" height="11.1"/>
		<polygon id="XMLID_4498_" class="st2" points="533.9,220.6 533.9,216.5 542.9,216.5 542.9,227.6 533.9,227.6 533.9,223.5 
			532.4,223.5 532.4,220.6 		"/>
	</g>
	<polygon id="XMLID_4496_" class="st1" points="50.6,177.6 44.4,183.1 44.4,172.1 50.6,177.6 	"/>
	<rect id="XMLID_4495_" x="55.5" y="157.2" class="st2" width="9" height="11.1"/>
	<rect id="XMLID_4494_" x="55.5" y="186.9" class="st2" width="9" height="11.1"/>
	<polygon id="XMLID_4493_" class="st2" points="64.5,176.2 64.5,172.1 55.5,172.1 55.5,183.2 64.5,183.2 64.5,179.1 66,179.1 
		66,176.2 	"/>
	<text id="XMLID_4492_" transform="matrix(0.9276 0 0 1 557.9119 185.0591)" class="st3 st4 st5">43</text>
	<text id="XMLID_4491_" transform="matrix(0.9276 0 0 1 15.2224 185.0591)" class="st3 st4 st5">43</text>
	<polygon id="XMLID_4490_" class="st1" points="548,177.6 554.3,183.1 554.3,172.1 548,177.6 	"/>
	<g id="XMLID_4486_">
		<rect id="XMLID_4489_" x="533.9" y="157.2" class="st2" width="9" height="11.1"/>
		<rect id="XMLID_4488_" x="533.9" y="186.9" class="st2" width="9" height="11.1"/>
		<polygon id="XMLID_4487_" class="st2" points="533.9,176.2 533.9,172.1 542.9,172.1 542.9,183.2 533.9,183.2 533.9,179.1 
			532.4,179.1 532.4,176.2 		"/>
	</g>
	<polygon id="XMLID_4485_" class="st1" points="50.6,133.2 44.4,138.7 44.4,127.7 50.6,133.2 	"/>
	<rect id="XMLID_4484_" x="55.5" y="112.8" class="st2" width="9" height="11.1"/>
	<rect id="XMLID_4483_" x="55.5" y="142.4" class="st2" width="9" height="11.1"/>
	<polygon id="XMLID_4482_" class="st2" points="64.5,131.7 64.5,127.6 55.5,127.6 55.5,138.7 64.5,138.7 64.5,134.6 66,134.6 
		66,131.7 	"/>
	<text id="XMLID_4481_" transform="matrix(0.9276 0 0 1 557.9119 140.6091)" class="st3 st4 st5">44</text>
	<text id="XMLID_4480_" transform="matrix(0.9276 0 0 1 15.2224 140.6091)" class="st3 st4 st5">44</text>
	<polygon id="XMLID_4479_" class="st1" points="548,133.2 554.3,138.7 554.3,127.7 548,133.2 	"/>
	<g id="XMLID_4475_">
		<rect id="XMLID_4478_" x="533.9" y="112.8" class="st2" width="9" height="11.1"/>
		<rect id="XMLID_4477_" x="533.9" y="142.4" class="st2" width="9" height="11.1"/>
		<polygon id="XMLID_4476_" class="st2" points="533.9,131.7 533.9,127.6 542.9,127.6 542.9,138.7 533.9,138.7 533.9,134.6 
			532.4,134.6 532.4,131.7 		"/>
	</g>
	<polygon id="XMLID_4474_" class="st1" points="50.6,88.7 44.4,94.2 44.4,83.2 50.6,88.7 	"/>
	<rect id="XMLID_4473_" x="55.5" y="68.3" class="st2" width="9" height="11.1"/>
	<rect id="XMLID_4472_" x="55.5" y="98" class="st2" width="9" height="11.1"/>
	<polygon id="XMLID_4471_" class="st2" points="64.5,87.3 64.5,83.2 55.5,83.2 55.5,94.3 64.5,94.3 64.5,90.2 66,90.2 66,87.3 	"/>
	<text id="XMLID_4470_" transform="matrix(0.9276 0 0 1 557.9119 96.1592)" class="st3 st4 st5">45</text>
	<text id="XMLID_4469_" transform="matrix(0.9276 0 0 1 15.2224 96.1592)" class="st3 st4 st5">45</text>
	<polygon id="XMLID_4468_" class="st1" points="548,88.7 554.3,94.2 554.3,83.2 548,88.7 	"/>
	<g id="XMLID_4464_">
		<rect id="XMLID_4467_" x="533.9" y="68.3" class="st2" width="9" height="11.1"/>
		<rect id="XMLID_4466_" x="533.9" y="98" class="st2" width="9" height="11.1"/>
		<polygon id="XMLID_4465_" class="st2" points="533.9,87.3 533.9,83.2 542.9,83.2 542.9,94.3 533.9,94.3 533.9,90.2 532.4,90.2 
			532.4,87.3 		"/>
	</g>
</g>
</svg>
