<?xml version="1.0" encoding="utf-8"?>
<!-- Generator: Adobe Illustrator 19.0.0, SVG Export Plug-In . SVG Version: 6.00 Build 0)  -->
<svg version="1.1" id="图层_1" xmlns="http://www.w3.org/2000/svg" xmlns:xlink="http://www.w3.org/1999/xlink" x="0px" y="0px"
	 width="600px" height="2088.8px" viewBox="0 0 600 2088.8" style="enable-background:new 0 0 600 2088.8;" xml:space="preserve">
<style type="text/css">
	.st0{fill:url(#XMLID_2_);}
	.st1{fill:#FFFFFF;stroke:#3E3A39;stroke-width:0.7;stroke-miterlimit:10;}
	.st2{fill:#211613;}
	.st3{fill:#FFFFFF;}
	.st4{font-family:'MicrosoftYaHei';}
	.st5{font-size:24.6945px;}
</style>
<linearGradient id="XMLID_2_" gradientUnits="userSpaceOnUse" x1="-123.2848" y1="1219.3656" x2="476.7152" y2="1219.3656" gradientTransform="matrix(1 0 0 -1 123.2847 2263.7656)">
	<stop  offset="0" style="stop-color:#55606A"/>
	<stop  offset="8.950000e-02" style="stop-color:#343C46"/>
	<stop  offset="0.9181" style="stop-color:#343C46"/>
	<stop  offset="1" style="stop-color:#55606A"/>
</linearGradient>
<path id="XMLID_4447_" class="st0" d="M0,0v2088.8h600V0H0z M525,2022.3H75V66.5h450V2022.3z"/>
<g id="XMLID_3924_">
	<polygon id="XMLID_4420_" class="st1" points="50.7,2000.1 44.4,2005.6 44.4,1994.6 50.7,2000.1 	"/>
	<rect id="XMLID_4419_" x="55.5" y="1979.7" class="st2" width="9" height="11.1"/>
	<rect id="XMLID_4418_" x="55.5" y="2009.3" class="st2" width="9" height="11.1"/>
	<polygon id="XMLID_4417_" class="st2" points="64.5,1998.6 64.5,1994.5 55.5,1994.5 55.5,2005.6 64.5,2005.6 64.5,2001.5 
		66,2001.5 66,1998.6 	"/>
	<text id="XMLID_4416_" transform="matrix(0.9276 0 0 1 557.9126 2007.5083)" class="st3 st4 st5">1</text>
	<text id="XMLID_4415_" transform="matrix(0.9276 0 0 1 15.2231 2007.5083)" class="st3 st4 st5">  1</text>
	<polygon id="XMLID_4414_" class="st1" points="548,2000.1 554.3,2005.6 554.3,1994.6 548,2000.1 	"/>
	<g id="XMLID_4410_">
		<rect id="XMLID_4413_" x="533.9" y="1979.7" class="st2" width="9" height="11.1"/>
		<rect id="XMLID_4412_" x="533.9" y="2009.3" class="st2" width="9" height="11.1"/>
		<polygon id="XMLID_4411_" class="st2" points="533.9,1998.6 533.9,1994.5 542.9,1994.5 542.9,2005.6 533.9,2005.6 533.9,2001.5 
			532.4,2001.5 532.4,1998.6 		"/>
	</g>
	<polygon id="XMLID_4409_" class="st1" points="50.7,1955.6 44.4,1961.1 44.4,1950.2 50.7,1955.6 	"/>
	<rect id="XMLID_4408_" x="55.5" y="1935.2" class="st2" width="9" height="11.1"/>
	<rect id="XMLID_4407_" x="55.5" y="1964.9" class="st2" width="9" height="11.1"/>
	<polygon id="XMLID_4406_" class="st2" points="64.5,1954.2 64.5,1950.1 55.5,1950.1 55.5,1961.2 64.5,1961.2 64.5,1957.1 
		66,1957.1 66,1954.2 	"/>
	<text id="XMLID_4405_" transform="matrix(0.9276 0 0 1 557.9126 1963.0582)" class="st3 st4 st5">2</text>
	<text id="XMLID_4404_" transform="matrix(0.9276 0 0 1 15.2231 1963.0582)" class="st3 st4 st5">  2</text>
	<polygon id="XMLID_4403_" class="st1" points="548,1955.6 554.3,1961.1 554.3,1950.1 548,1955.6 	"/>
	<g id="XMLID_4399_">
		<rect id="XMLID_4402_" x="533.9" y="1935.2" class="st2" width="9" height="11.1"/>
		<rect id="XMLID_4401_" x="533.9" y="1964.9" class="st2" width="9" height="11.1"/>
		<polygon id="XMLID_4400_" class="st2" points="533.9,1954.2 533.9,1950.1 542.9,1950.1 542.9,1961.2 533.9,1961.2 533.9,1957.1 
			532.4,1957.1 532.4,1954.2 		"/>
	</g>
	<polygon id="XMLID_4398_" class="st1" points="50.7,1911.2 44.4,1916.7 44.4,1905.7 50.7,1911.2 	"/>
	<rect id="XMLID_4397_" x="55.5" y="1890.8" class="st2" width="9" height="11.1"/>
	<rect id="XMLID_4396_" x="55.5" y="1920.4" class="st2" width="9" height="11.1"/>
	<polygon id="XMLID_4395_" class="st2" points="64.5,1909.7 64.5,1905.6 55.5,1905.6 55.5,1916.7 64.5,1916.7 64.5,1912.6 
		66,1912.6 66,1909.7 	"/>
	<text id="XMLID_4394_" transform="matrix(0.9276 0 0 1 557.9126 1918.6083)" class="st3 st4 st5">3</text>
	<text id="XMLID_4393_" transform="matrix(0.9276 0 0 1 15.2231 1918.6083)" class="st3 st4 st5">  3</text>
	<polygon id="XMLID_4392_" class="st1" points="548,1911.2 554.3,1916.7 554.3,1905.7 548,1911.2 	"/>
	<g id="XMLID_4388_">
		<rect id="XMLID_4391_" x="533.9" y="1890.8" class="st2" width="9" height="11.1"/>
		<rect id="XMLID_4390_" x="533.9" y="1920.4" class="st2" width="9" height="11.1"/>
		<polygon id="XMLID_4389_" class="st2" points="533.9,1909.7 533.9,1905.6 542.9,1905.6 542.9,1916.7 533.9,1916.7 533.9,1912.6 
			532.4,1912.6 532.4,1909.7 		"/>
	</g>
	<polygon id="XMLID_4387_" class="st1" points="50.7,1866.7 44.4,1872.2 44.4,1861.2 50.7,1866.7 	"/>
	<rect id="XMLID_4386_" x="55.5" y="1846.3" class="st2" width="9" height="11.1"/>
	<rect id="XMLID_4385_" x="55.5" y="1876" class="st2" width="9" height="11.1"/>
	<polygon id="XMLID_4384_" class="st2" points="64.5,1865.3 64.5,1861.2 55.5,1861.2 55.5,1872.3 64.5,1872.3 64.5,1868.2 
		66,1868.2 66,1865.3 	"/>
	<text id="XMLID_4383_" transform="matrix(0.9276 0 0 1 557.9126 1874.1582)" class="st3 st4 st5">4</text>
	<text id="XMLID_4382_" transform="matrix(0.9276 0 0 1 15.2231 1874.1582)" class="st3 st4 st5">  4</text>
	<polygon id="XMLID_4381_" class="st1" points="548,1866.7 554.3,1872.2 554.3,1861.2 548,1866.7 	"/>
	<g id="XMLID_4377_">
		<rect id="XMLID_4380_" x="533.9" y="1846.3" class="st2" width="9" height="11.1"/>
		<rect id="XMLID_4379_" x="533.9" y="1876" class="st2" width="9" height="11.1"/>
		<polygon id="XMLID_4378_" class="st2" points="533.9,1865.3 533.9,1861.2 542.9,1861.2 542.9,1872.3 533.9,1872.3 533.9,1868.2 
			532.4,1868.2 532.4,1865.3 		"/>
	</g>
	<polygon id="XMLID_4376_" class="st1" points="50.7,1822.3 44.4,1827.8 44.4,1816.8 50.7,1822.3 	"/>
	<rect id="XMLID_4375_" x="55.5" y="1801.9" class="st2" width="9" height="11.1"/>
	<rect id="XMLID_4374_" x="55.5" y="1831.5" class="st2" width="9" height="11.1"/>
	<polygon id="XMLID_4373_" class="st2" points="64.5,1820.8 64.5,1816.7 55.5,1816.7 55.5,1827.8 64.5,1827.8 64.5,1823.7 
		66,1823.7 66,1820.8 	"/>
	<text id="XMLID_4372_" transform="matrix(0.9276 0 0 1 557.9126 1829.7083)" class="st3 st4 st5">5</text>
	<text id="XMLID_4371_" transform="matrix(0.9276 0 0 1 15.2231 1829.7083)" class="st3 st4 st5">  5</text>
	<polygon id="XMLID_4370_" class="st1" points="548,1822.3 554.3,1827.8 554.3,1816.8 548,1822.3 	"/>
	<g id="XMLID_4366_">
		<rect id="XMLID_4369_" x="533.9" y="1801.9" class="st2" width="9" height="11.1"/>
		<rect id="XMLID_4368_" x="533.9" y="1831.5" class="st2" width="9" height="11.1"/>
		<polygon id="XMLID_4367_" class="st2" points="533.9,1820.8 533.9,1816.7 542.9,1816.7 542.9,1827.8 533.9,1827.8 533.9,1823.7 
			532.4,1823.7 532.4,1820.8 		"/>
	</g>
	<polygon id="XMLID_4365_" class="st1" points="50.7,1777.8 44.4,1783.3 44.4,1772.3 50.7,1777.8 	"/>
	<rect id="XMLID_4364_" x="55.5" y="1757.4" class="st2" width="9" height="11.1"/>
	<rect id="XMLID_4363_" x="55.5" y="1787.1" class="st2" width="9" height="11.1"/>
	<polygon id="XMLID_4362_" class="st2" points="64.5,1776.4 64.5,1772.3 55.5,1772.3 55.5,1783.4 64.5,1783.4 64.5,1779.3 
		66,1779.3 66,1776.4 	"/>
	<text id="XMLID_4361_" transform="matrix(0.9276 0 0 1 557.9126 1785.2582)" class="st3 st4 st5">6</text>
	<text id="XMLID_4360_" transform="matrix(0.9276 0 0 1 15.2231 1785.2582)" class="st3 st4 st5">  6</text>
	<polygon id="XMLID_4359_" class="st1" points="548,1777.8 554.3,1783.3 554.3,1772.3 548,1777.8 	"/>
	<g id="XMLID_4355_">
		<rect id="XMLID_4358_" x="533.9" y="1757.4" class="st2" width="9" height="11.1"/>
		<rect id="XMLID_4357_" x="533.9" y="1787.1" class="st2" width="9" height="11.1"/>
		<polygon id="XMLID_4356_" class="st2" points="533.9,1776.4 533.9,1772.3 542.9,1772.3 542.9,1783.4 533.9,1783.4 533.9,1779.3 
			532.4,1779.3 532.4,1776.4 		"/>
	</g>
	<polygon id="XMLID_4354_" class="st1" points="50.7,1733.4 44.4,1738.9 44.4,1727.9 50.7,1733.4 	"/>
	<rect id="XMLID_4353_" x="55.5" y="1713" class="st2" width="9" height="11.1"/>
	<rect id="XMLID_4352_" x="55.5" y="1742.6" class="st2" width="9" height="11.1"/>
	<polygon id="XMLID_4351_" class="st2" points="64.5,1731.9 64.5,1727.8 55.5,1727.8 55.5,1738.9 64.5,1738.9 64.5,1734.8 
		66,1734.8 66,1731.9 	"/>
	<text id="XMLID_4350_" transform="matrix(0.9276 0 0 1 557.9126 1740.8082)" class="st3 st4 st5">7</text>
	<text id="XMLID_4349_" transform="matrix(0.9276 0 0 1 15.2231 1740.8082)" class="st3 st4 st5">  7</text>
	<polygon id="XMLID_4348_" class="st1" points="548,1733.4 554.3,1738.9 554.3,1727.9 548,1733.4 	"/>
	<g id="XMLID_4344_">
		<rect id="XMLID_4347_" x="533.9" y="1713" class="st2" width="9" height="11.1"/>
		<rect id="XMLID_4346_" x="533.9" y="1742.6" class="st2" width="9" height="11.1"/>
		<polygon id="XMLID_4345_" class="st2" points="533.9,1731.9 533.9,1727.8 542.9,1727.8 542.9,1738.9 533.9,1738.9 533.9,1734.8 
			532.4,1734.8 532.4,1731.9 		"/>
	</g>
	<polygon id="XMLID_4343_" class="st1" points="50.7,1688.9 44.4,1694.4 44.4,1683.4 50.7,1688.9 	"/>
	<rect id="XMLID_4342_" x="55.5" y="1668.5" class="st2" width="9" height="11.1"/>
	<rect id="XMLID_4341_" x="55.5" y="1698.2" class="st2" width="9" height="11.1"/>
	<polygon id="XMLID_4340_" class="st2" points="64.5,1687.5 64.5,1683.4 55.5,1683.4 55.5,1694.5 64.5,1694.5 64.5,1690.4 
		66,1690.4 66,1687.5 	"/>
	<text id="XMLID_4339_" transform="matrix(0.9276 0 0 1 557.9126 1696.3583)" class="st3 st4 st5">8</text>
	<text id="XMLID_4338_" transform="matrix(0.9276 0 0 1 15.2231 1696.3583)" class="st3 st4 st5">  8</text>
	<polygon id="XMLID_4337_" class="st1" points="548,1688.9 554.3,1694.4 554.3,1683.4 548,1688.9 	"/>
	<g id="XMLID_4333_">
		<rect id="XMLID_4336_" x="533.9" y="1668.5" class="st2" width="9" height="11.1"/>
		<rect id="XMLID_4335_" x="533.9" y="1698.2" class="st2" width="9" height="11.1"/>
		<polygon id="XMLID_4334_" class="st2" points="533.9,1687.5 533.9,1683.4 542.9,1683.4 542.9,1694.5 533.9,1694.5 533.9,1690.4 
			532.4,1690.4 532.4,1687.5 		"/>
	</g>
	<polygon id="XMLID_4332_" class="st1" points="50.7,1644.5 44.4,1650 44.4,1639 50.7,1644.5 	"/>
	<rect id="XMLID_4331_" x="55.5" y="1624.1" class="st2" width="9" height="11.1"/>
	<rect id="XMLID_4330_" x="55.5" y="1653.7" class="st2" width="9" height="11.1"/>
	<polygon id="XMLID_4329_" class="st2" points="64.5,1643 64.5,1638.9 55.5,1638.9 55.5,1650 64.5,1650 64.5,1645.9 66,1645.9 
		66,1643 	"/>
	<text id="XMLID_4328_" transform="matrix(0.9276 0 0 1 557.9126 1651.9082)" class="st3 st4 st5">9</text>
	<text id="XMLID_4327_" transform="matrix(0.9276 0 0 1 15.2231 1651.9082)" class="st3 st4 st5">  9</text>
	<polygon id="XMLID_4326_" class="st1" points="548,1644.5 554.3,1650 554.3,1639 548,1644.5 	"/>
	<g id="XMLID_4322_">
		<rect id="XMLID_4325_" x="533.9" y="1624.1" class="st2" width="9" height="11.1"/>
		<rect id="XMLID_4324_" x="533.9" y="1653.7" class="st2" width="9" height="11.1"/>
		<polygon id="XMLID_4323_" class="st2" points="533.9,1643 533.9,1638.9 542.9,1638.9 542.9,1650 533.9,1650 533.9,1645.9 
			532.4,1645.9 532.4,1643 		"/>
	</g>
	<polygon id="XMLID_4321_" class="st1" points="50.7,1600 44.4,1605.5 44.4,1594.5 50.7,1600 	"/>
	<rect id="XMLID_4320_" x="55.5" y="1579.6" class="st2" width="9" height="11.1"/>
	<rect id="XMLID_4319_" x="55.5" y="1609.3" class="st2" width="9" height="11.1"/>
	<polygon id="XMLID_4318_" class="st2" points="64.5,1598.6 64.5,1594.5 55.5,1594.5 55.5,1605.6 64.5,1605.6 64.5,1601.5 
		66,1601.5 66,1598.6 	"/>
	<text id="XMLID_4317_" transform="matrix(0.9276 0 0 1 557.9126 1607.4583)" class="st3 st4 st5">10</text>
	<text id="XMLID_4316_" transform="matrix(0.9276 0 0 1 15.2231 1607.4583)" class="st3 st4 st5">10</text>
	<polygon id="XMLID_4315_" class="st1" points="548,1600 554.3,1605.5 554.3,1594.5 548,1600 	"/>
	<g id="XMLID_4311_">
		<rect id="XMLID_4314_" x="533.9" y="1579.6" class="st2" width="9" height="11.1"/>
		<rect id="XMLID_4313_" x="533.9" y="1609.3" class="st2" width="9" height="11.1"/>
		<polygon id="XMLID_4312_" class="st2" points="533.9,1598.6 533.9,1594.5 542.9,1594.5 542.9,1605.6 533.9,1605.6 533.9,1601.5 
			532.4,1601.5 532.4,1598.6 		"/>
	</g>
	<polygon id="XMLID_4310_" class="st1" points="50.7,1555.6 44.4,1561.1 44.4,1550.1 50.7,1555.6 	"/>
	<rect id="XMLID_4309_" x="55.5" y="1535.2" class="st2" width="9" height="11.1"/>
	<rect id="XMLID_4308_" x="55.5" y="1564.8" class="st2" width="9" height="11.1"/>
	<polygon id="XMLID_4307_" class="st2" points="64.5,1554.1 64.5,1550 55.5,1550 55.5,1561.1 64.5,1561.1 64.5,1557 66,1557 
		66,1554.1 	"/>
	<text id="XMLID_4306_" transform="matrix(0.9276 0 0 1 557.9126 1563.0082)" class="st3 st4 st5">11</text>
	<text id="XMLID_4305_" transform="matrix(0.9276 0 0 1 15.2231 1563.0082)" class="st3 st4 st5">11</text>
	<polygon id="XMLID_4304_" class="st1" points="548,1555.6 554.3,1561.1 554.3,1550.1 548,1555.6 	"/>
	<g id="XMLID_4300_">
		<rect id="XMLID_4303_" x="533.9" y="1535.2" class="st2" width="9" height="11.1"/>
		<rect id="XMLID_4302_" x="533.9" y="1564.8" class="st2" width="9" height="11.1"/>
		<polygon id="XMLID_4301_" class="st2" points="533.9,1554.1 533.9,1550 542.9,1550 542.9,1561.1 533.9,1561.1 533.9,1557 
			532.4,1557 532.4,1554.1 		"/>
	</g>
	<polygon id="XMLID_4299_" class="st1" points="50.7,1511.1 44.4,1516.6 44.4,1505.6 50.7,1511.1 	"/>
	<rect id="XMLID_4298_" x="55.5" y="1490.7" class="st2" width="9" height="11.1"/>
	<rect id="XMLID_4297_" x="55.5" y="1520.4" class="st2" width="9" height="11.1"/>
	<polygon id="XMLID_4296_" class="st2" points="64.5,1509.7 64.5,1505.6 55.5,1505.6 55.5,1516.7 64.5,1516.7 64.5,1512.6 
		66,1512.6 66,1509.7 	"/>
	<text id="XMLID_4295_" transform="matrix(0.9276 0 0 1 557.9126 1518.5582)" class="st3 st4 st5">12</text>
	<text id="XMLID_4294_" transform="matrix(0.9276 0 0 1 15.2231 1518.5582)" class="st3 st4 st5">12</text>
	<polygon id="XMLID_4293_" class="st1" points="548,1511.1 554.3,1516.6 554.3,1505.6 548,1511.1 	"/>
	<g id="XMLID_4289_">
		<rect id="XMLID_4292_" x="533.9" y="1490.7" class="st2" width="9" height="11.1"/>
		<rect id="XMLID_4291_" x="533.9" y="1520.4" class="st2" width="9" height="11.1"/>
		<polygon id="XMLID_4290_" class="st2" points="533.9,1509.7 533.9,1505.6 542.9,1505.6 542.9,1516.7 533.9,1516.7 533.9,1512.6 
			532.4,1512.6 532.4,1509.7 		"/>
	</g>
	<polygon id="XMLID_4288_" class="st1" points="50.7,1466.7 44.4,1472.2 44.4,1461.2 50.7,1466.7 	"/>
	<rect id="XMLID_4287_" x="55.5" y="1446.3" class="st2" width="9" height="11.1"/>
	<rect id="XMLID_4286_" x="55.5" y="1475.9" class="st2" width="9" height="11.1"/>
	<polygon id="XMLID_4285_" class="st2" points="64.5,1465.2 64.5,1461.1 55.5,1461.1 55.5,1472.2 64.5,1472.2 64.5,1468.1 
		66,1468.1 66,1465.2 	"/>
	<text id="XMLID_4284_" transform="matrix(0.9276 0 0 1 557.9126 1474.1082)" class="st3 st4 st5">13</text>
	<text id="XMLID_4283_" transform="matrix(0.9276 0 0 1 15.2231 1474.1082)" class="st3 st4 st5">13</text>
	<polygon id="XMLID_4282_" class="st1" points="548,1466.7 554.3,1472.2 554.3,1461.2 548,1466.7 	"/>
	<g id="XMLID_4278_">
		<rect id="XMLID_4281_" x="533.9" y="1446.3" class="st2" width="9" height="11.1"/>
		<rect id="XMLID_4280_" x="533.9" y="1475.9" class="st2" width="9" height="11.1"/>
		<polygon id="XMLID_4279_" class="st2" points="533.9,1465.2 533.9,1461.1 542.9,1461.1 542.9,1472.2 533.9,1472.2 533.9,1468.1 
			532.4,1468.1 532.4,1465.2 		"/>
	</g>
	<polygon id="XMLID_4277_" class="st1" points="50.7,1422.2 44.4,1427.7 44.4,1416.8 50.7,1422.2 	"/>
	<rect id="XMLID_4276_" x="55.5" y="1401.8" class="st2" width="9" height="11.1"/>
	<rect id="XMLID_4275_" x="55.5" y="1431.5" class="st2" width="9" height="11.1"/>
	<polygon id="XMLID_4274_" class="st2" points="64.5,1420.8 64.5,1416.7 55.5,1416.7 55.5,1427.8 64.5,1427.8 64.5,1423.7 
		66,1423.7 66,1420.8 	"/>
	<text id="XMLID_4273_" transform="matrix(0.9276 0 0 1 557.9126 1429.6582)" class="st3 st4 st5">14</text>
	<text id="XMLID_4272_" transform="matrix(0.9276 0 0 1 15.2231 1429.6582)" class="st3 st4 st5">14</text>
	<polygon id="XMLID_4271_" class="st1" points="548,1422.2 554.3,1427.7 554.3,1416.7 548,1422.2 	"/>
	<g id="XMLID_4267_">
		<rect id="XMLID_4270_" x="533.9" y="1401.8" class="st2" width="9" height="11.1"/>
		<rect id="XMLID_4269_" x="533.9" y="1431.5" class="st2" width="9" height="11.1"/>
		<polygon id="XMLID_4268_" class="st2" points="533.9,1420.8 533.9,1416.7 542.9,1416.7 542.9,1427.8 533.9,1427.8 533.9,1423.7 
			532.4,1423.7 532.4,1420.8 		"/>
	</g>
	<polygon id="XMLID_4266_" class="st1" points="50.7,1377.8 44.4,1383.3 44.4,1372.3 50.7,1377.8 	"/>
	<rect id="XMLID_4265_" x="55.5" y="1357.4" class="st2" width="9" height="11.1"/>
	<rect id="XMLID_4264_" x="55.5" y="1387" class="st2" width="9" height="11.1"/>
	<polygon id="XMLID_4263_" class="st2" points="64.5,1376.3 64.5,1372.2 55.5,1372.2 55.5,1383.3 64.5,1383.3 64.5,1379.2 
		66,1379.2 66,1376.3 	"/>
	<text id="XMLID_4262_" transform="matrix(0.9276 0 0 1 557.9126 1385.2081)" class="st3 st4 st5">15</text>
	<text id="XMLID_4261_" transform="matrix(0.9276 0 0 1 15.2231 1385.2081)" class="st3 st4 st5">15</text>
	<polygon id="XMLID_4260_" class="st1" points="548,1377.8 554.3,1383.3 554.3,1372.3 548,1377.8 	"/>
	<g id="XMLID_4256_">
		<rect id="XMLID_4259_" x="533.9" y="1357.4" class="st2" width="9" height="11.1"/>
		<rect id="XMLID_4258_" x="533.9" y="1387" class="st2" width="9" height="11.1"/>
		<polygon id="XMLID_4257_" class="st2" points="533.9,1376.3 533.9,1372.2 542.9,1372.2 542.9,1383.3 533.9,1383.3 533.9,1379.2 
			532.4,1379.2 532.4,1376.3 		"/>
	</g>
	<polygon id="XMLID_4255_" class="st1" points="50.7,1333.3 44.4,1338.8 44.4,1327.8 50.7,1333.3 	"/>
	<rect id="XMLID_4254_" x="55.5" y="1312.9" class="st2" width="9" height="11.1"/>
	<rect id="XMLID_4253_" x="55.5" y="1342.6" class="st2" width="9" height="11.1"/>
	<polygon id="XMLID_4252_" class="st2" points="64.5,1331.9 64.5,1327.8 55.5,1327.8 55.5,1338.9 64.5,1338.9 64.5,1334.8 
		66,1334.8 66,1331.9 	"/>
	<text id="XMLID_4251_" transform="matrix(0.9276 0 0 1 557.9126 1340.7581)" class="st3 st4 st5">16</text>
	<text id="XMLID_4250_" transform="matrix(0.9276 0 0 1 15.2231 1340.7581)" class="st3 st4 st5">16</text>
	<polygon id="XMLID_4249_" class="st1" points="548,1333.3 554.3,1338.8 554.3,1327.8 548,1333.3 	"/>
	<g id="XMLID_4245_">
		<rect id="XMLID_4248_" x="533.9" y="1312.9" class="st2" width="9" height="11.1"/>
		<rect id="XMLID_4247_" x="533.9" y="1342.6" class="st2" width="9" height="11.1"/>
		<polygon id="XMLID_4246_" class="st2" points="533.9,1331.9 533.9,1327.8 542.9,1327.8 542.9,1338.9 533.9,1338.9 533.9,1334.8 
			532.4,1334.8 532.4,1331.9 		"/>
	</g>
	<polygon id="XMLID_4244_" class="st1" points="50.7,1288.9 44.4,1294.4 44.4,1283.4 50.7,1288.9 	"/>
	<rect id="XMLID_4243_" x="55.5" y="1268.5" class="st2" width="9" height="11.1"/>
	<rect id="XMLID_4242_" x="55.5" y="1298.1" class="st2" width="9" height="11.1"/>
	<polygon id="XMLID_4241_" class="st2" points="64.5,1287.4 64.5,1283.3 55.5,1283.3 55.5,1294.4 64.5,1294.4 64.5,1290.3 
		66,1290.3 66,1287.4 	"/>
	<text id="XMLID_4240_" transform="matrix(0.9276 0 0 1 557.9126 1296.3081)" class="st3 st4 st5">17</text>
	<text id="XMLID_4239_" transform="matrix(0.9276 0 0 1 15.2231 1296.3081)" class="st3 st4 st5">17</text>
	<polygon id="XMLID_4238_" class="st1" points="548,1288.9 554.3,1294.4 554.3,1283.4 548,1288.9 	"/>
	<g id="XMLID_4234_">
		<rect id="XMLID_4237_" x="533.9" y="1268.5" class="st2" width="9" height="11.1"/>
		<rect id="XMLID_4236_" x="533.9" y="1298.1" class="st2" width="9" height="11.1"/>
		<polygon id="XMLID_4235_" class="st2" points="533.9,1287.4 533.9,1283.3 542.9,1283.3 542.9,1294.4 533.9,1294.4 533.9,1290.3 
			532.4,1290.3 532.4,1287.4 		"/>
	</g>
	<polygon id="XMLID_4233_" class="st1" points="50.7,1244.4 44.4,1249.9 44.4,1238.9 50.7,1244.4 	"/>
	<rect id="XMLID_4232_" x="55.5" y="1224" class="st2" width="9" height="11.1"/>
	<rect id="XMLID_4231_" x="55.5" y="1253.7" class="st2" width="9" height="11.1"/>
	<polygon id="XMLID_4230_" class="st2" points="64.5,1243 64.5,1238.9 55.5,1238.9 55.5,1250 64.5,1250 64.5,1245.9 66,1245.9 
		66,1243 	"/>
	<text id="XMLID_4229_" transform="matrix(0.9276 0 0 1 557.9126 1251.8582)" class="st3 st4 st5">18</text>
	<text id="XMLID_4228_" transform="matrix(0.9276 0 0 1 15.2231 1251.8582)" class="st3 st4 st5">18</text>
	<polygon id="XMLID_4227_" class="st1" points="548,1244.4 554.3,1249.9 554.3,1238.9 548,1244.4 	"/>
	<g id="XMLID_4223_">
		<rect id="XMLID_4226_" x="533.9" y="1224" class="st2" width="9" height="11.1"/>
		<rect id="XMLID_4225_" x="533.9" y="1253.7" class="st2" width="9" height="11.1"/>
		<polygon id="XMLID_4224_" class="st2" points="533.9,1243 533.9,1238.9 542.9,1238.9 542.9,1250 533.9,1250 533.9,1245.9 
			532.4,1245.9 532.4,1243 		"/>
	</g>
	<polygon id="XMLID_4222_" class="st1" points="50.7,1200 44.4,1205.5 44.4,1194.5 50.7,1200 	"/>
	<rect id="XMLID_4221_" x="55.5" y="1179.6" class="st2" width="9" height="11.1"/>
	<rect id="XMLID_4220_" x="55.5" y="1209.2" class="st2" width="9" height="11.1"/>
	<polygon id="XMLID_4219_" class="st2" points="64.5,1198.5 64.5,1194.4 55.5,1194.4 55.5,1205.5 64.5,1205.5 64.5,1201.4 
		66,1201.4 66,1198.5 	"/>
	<text id="XMLID_4218_" transform="matrix(0.9276 0 0 1 557.9126 1207.4081)" class="st3 st4 st5">19</text>
	<text id="XMLID_4217_" transform="matrix(0.9276 0 0 1 15.2231 1207.4081)" class="st3 st4 st5">19</text>
	<polygon id="XMLID_4216_" class="st1" points="548,1200 554.3,1205.5 554.3,1194.5 548,1200 	"/>
	<g id="XMLID_4212_">
		<rect id="XMLID_4215_" x="533.9" y="1179.6" class="st2" width="9" height="11.1"/>
		<rect id="XMLID_4214_" x="533.9" y="1209.2" class="st2" width="9" height="11.1"/>
		<polygon id="XMLID_4213_" class="st2" points="533.9,1198.5 533.9,1194.4 542.9,1194.4 542.9,1205.5 533.9,1205.5 533.9,1201.4 
			532.4,1201.4 532.4,1198.5 		"/>
	</g>
	<polygon id="XMLID_4211_" class="st1" points="50.7,1155.5 44.4,1161 44.4,1150 50.7,1155.5 	"/>
	<rect id="XMLID_4210_" x="55.5" y="1135.1" class="st2" width="9" height="11.1"/>
	<rect id="XMLID_4209_" x="55.5" y="1164.8" class="st2" width="9" height="11.1"/>
	<polygon id="XMLID_4208_" class="st2" points="64.5,1154.1 64.5,1150 55.5,1150 55.5,1161.1 64.5,1161.1 64.5,1157 66,1157 
		66,1154.1 	"/>
	<text id="XMLID_4207_" transform="matrix(0.9276 0 0 1 557.9126 1162.958)" class="st3 st4 st5">20</text>
	<text id="XMLID_4206_" transform="matrix(0.9276 0 0 1 15.2231 1162.958)" class="st3 st4 st5">20</text>
	<polygon id="XMLID_4205_" class="st1" points="548,1155.5 554.3,1161 554.3,1150 548,1155.5 	"/>
	<g id="XMLID_4201_">
		<rect id="XMLID_4204_" x="533.9" y="1135.1" class="st2" width="9" height="11.1"/>
		<rect id="XMLID_4203_" x="533.9" y="1164.8" class="st2" width="9" height="11.1"/>
		<polygon id="XMLID_4202_" class="st2" points="533.9,1154.1 533.9,1150 542.9,1150 542.9,1161.1 533.9,1161.1 533.9,1157 
			532.4,1157 532.4,1154.1 		"/>
	</g>
	<polygon id="XMLID_4200_" class="st1" points="50.7,1111.1 44.4,1116.6 44.4,1105.6 50.7,1111.1 	"/>
	<rect id="XMLID_4199_" x="55.5" y="1090.7" class="st2" width="9" height="11.1"/>
	<rect id="XMLID_4198_" x="55.5" y="1120.3" class="st2" width="9" height="11.1"/>
	<polygon id="XMLID_4197_" class="st2" points="64.5,1109.6 64.5,1105.5 55.5,1105.5 55.5,1116.6 64.5,1116.6 64.5,1112.5 
		66,1112.5 66,1109.6 	"/>
	<text id="XMLID_4196_" transform="matrix(0.9276 0 0 1 557.9126 1118.5081)" class="st3 st4 st5">21</text>
	<text id="XMLID_4195_" transform="matrix(0.9276 0 0 1 15.2231 1118.5081)" class="st3 st4 st5">21</text>
	<polygon id="XMLID_4194_" class="st1" points="548,1111.1 554.3,1116.6 554.3,1105.6 548,1111.1 	"/>
	<g id="XMLID_4190_">
		<rect id="XMLID_4193_" x="533.9" y="1090.7" class="st2" width="9" height="11.1"/>
		<rect id="XMLID_4192_" x="533.9" y="1120.3" class="st2" width="9" height="11.1"/>
		<polygon id="XMLID_4191_" class="st2" points="533.9,1109.6 533.9,1105.5 542.9,1105.5 542.9,1116.6 533.9,1116.6 533.9,1112.5 
			532.4,1112.5 532.4,1109.6 		"/>
	</g>
	<polygon id="XMLID_4189_" class="st1" points="50.7,1066.6 44.4,1072.1 44.4,1061.1 50.7,1066.6 	"/>
	<rect id="XMLID_4188_" x="55.5" y="1046.2" class="st2" width="9" height="11.1"/>
	<rect id="XMLID_4187_" x="55.5" y="1075.9" class="st2" width="9" height="11.1"/>
	<polygon id="XMLID_4186_" class="st2" points="64.5,1065.2 64.5,1061.1 55.5,1061.1 55.5,1072.2 64.5,1072.2 64.5,1068.1 
		66,1068.1 66,1065.2 	"/>
	<text id="XMLID_4185_" transform="matrix(0.9276 0 0 1 557.9126 1074.0581)" class="st3 st4 st5">22</text>
	<text id="XMLID_4184_" transform="matrix(0.9276 0 0 1 15.2231 1074.0581)" class="st3 st4 st5">22</text>
	<polygon id="XMLID_4183_" class="st1" points="548,1066.6 554.3,1072.1 554.3,1061.1 548,1066.6 	"/>
	<g id="XMLID_4179_">
		<rect id="XMLID_4182_" x="533.9" y="1046.2" class="st2" width="9" height="11.1"/>
		<rect id="XMLID_4181_" x="533.9" y="1075.9" class="st2" width="9" height="11.1"/>
		<polygon id="XMLID_4180_" class="st2" points="533.9,1065.2 533.9,1061.1 542.9,1061.1 542.9,1072.2 533.9,1072.2 533.9,1068.1 
			532.4,1068.1 532.4,1065.2 		"/>
	</g>
	<polygon id="XMLID_4178_" class="st1" points="50.7,1022.2 44.4,1027.7 44.4,1016.7 50.7,1022.2 	"/>
	<rect id="XMLID_4177_" x="55.5" y="1001.8" class="st2" width="9" height="11.1"/>
	<rect id="XMLID_4176_" x="55.5" y="1031.4" class="st2" width="9" height="11.1"/>
	<polygon id="XMLID_4175_" class="st2" points="64.5,1020.7 64.5,1016.6 55.5,1016.6 55.5,1027.7 64.5,1027.7 64.5,1023.6 
		66,1023.6 66,1020.7 	"/>
	<text id="XMLID_4174_" transform="matrix(0.9276 0 0 1 557.9126 1029.608)" class="st3 st4 st5">23</text>
	<text id="XMLID_4173_" transform="matrix(0.9276 0 0 1 15.2231 1029.608)" class="st3 st4 st5">23</text>
	<polygon id="XMLID_4172_" class="st1" points="548,1022.2 554.3,1027.7 554.3,1016.7 548,1022.2 	"/>
	<g id="XMLID_4168_">
		<rect id="XMLID_4171_" x="533.9" y="1001.8" class="st2" width="9" height="11.1"/>
		<rect id="XMLID_4170_" x="533.9" y="1031.4" class="st2" width="9" height="11.1"/>
		<polygon id="XMLID_4169_" class="st2" points="533.9,1020.7 533.9,1016.6 542.9,1016.6 542.9,1027.7 533.9,1027.7 533.9,1023.6 
			532.4,1023.6 532.4,1020.7 		"/>
	</g>
	<polygon id="XMLID_4167_" class="st1" points="50.7,977.7 44.4,983.2 44.4,972.2 50.7,977.7 	"/>
	<rect id="XMLID_4166_" x="55.5" y="957.3" class="st2" width="9" height="11.1"/>
	<rect id="XMLID_4165_" x="55.5" y="987" class="st2" width="9" height="11.1"/>
	<polygon id="XMLID_4164_" class="st2" points="64.5,976.3 64.5,972.2 55.5,972.2 55.5,983.3 64.5,983.3 64.5,979.2 66,979.2 
		66,976.3 	"/>
	<text id="XMLID_4163_" transform="matrix(0.9276 0 0 1 557.9126 985.158)" class="st3 st4 st5">24</text>
	<text id="XMLID_4162_" transform="matrix(0.9276 0 0 1 15.2231 985.158)" class="st3 st4 st5">24</text>
	<polygon id="XMLID_4161_" class="st1" points="548,977.7 554.3,983.2 554.3,972.2 548,977.7 	"/>
	<g id="XMLID_4157_">
		<rect id="XMLID_4160_" x="533.9" y="957.3" class="st2" width="9" height="11.1"/>
		<rect id="XMLID_4159_" x="533.9" y="987" class="st2" width="9" height="11.1"/>
		<polygon id="XMLID_4158_" class="st2" points="533.9,976.3 533.9,972.2 542.9,972.2 542.9,983.3 533.9,983.3 533.9,979.2 
			532.4,979.2 532.4,976.3 		"/>
	</g>
	<polygon id="XMLID_4156_" class="st1" points="50.7,933.3 44.4,938.8 44.4,927.8 50.7,933.3 	"/>
	<rect id="XMLID_4155_" x="55.5" y="912.9" class="st2" width="9" height="11.1"/>
	<rect id="XMLID_4154_" x="55.5" y="942.5" class="st2" width="9" height="11.1"/>
	<polygon id="XMLID_4153_" class="st2" points="64.5,931.8 64.5,927.7 55.5,927.7 55.5,938.8 64.5,938.8 64.5,934.7 66,934.7 
		66,931.8 	"/>
	<text id="XMLID_4152_" transform="matrix(0.9276 0 0 1 557.9126 940.7081)" class="st3 st4 st5">25</text>
	<text id="XMLID_4151_" transform="matrix(0.9276 0 0 1 15.2231 940.7081)" class="st3 st4 st5">25</text>
	<polygon id="XMLID_4150_" class="st1" points="548,933.3 554.3,938.8 554.3,927.8 548,933.3 	"/>
	<g id="XMLID_4146_">
		<rect id="XMLID_4149_" x="533.9" y="912.9" class="st2" width="9" height="11.1"/>
		<rect id="XMLID_4148_" x="533.9" y="942.5" class="st2" width="9" height="11.1"/>
		<polygon id="XMLID_4147_" class="st2" points="533.9,931.8 533.9,927.7 542.9,927.7 542.9,938.8 533.9,938.8 533.9,934.7 
			532.4,934.7 532.4,931.8 		"/>
	</g>
	<polygon id="XMLID_4145_" class="st1" points="50.7,888.8 44.4,894.3 44.4,883.3 50.7,888.8 	"/>
	<rect id="XMLID_4144_" x="55.5" y="868.4" class="st2" width="9" height="11.1"/>
	<rect id="XMLID_4143_" x="55.5" y="898.1" class="st2" width="9" height="11.1"/>
	<polygon id="XMLID_4142_" class="st2" points="64.5,887.4 64.5,883.3 55.5,883.3 55.5,894.4 64.5,894.4 64.5,890.3 66,890.3 
		66,887.4 	"/>
	<text id="XMLID_4141_" transform="matrix(0.9276 0 0 1 557.9126 896.2582)" class="st3 st4 st5">26</text>
	<text id="XMLID_4140_" transform="matrix(0.9276 0 0 1 15.2231 896.2582)" class="st3 st4 st5">26</text>
	<polygon id="XMLID_4139_" class="st1" points="548,888.8 554.3,894.3 554.3,883.3 548,888.8 	"/>
	<g id="XMLID_4135_">
		<rect id="XMLID_4138_" x="533.9" y="868.4" class="st2" width="9" height="11.1"/>
		<rect id="XMLID_4137_" x="533.9" y="898.1" class="st2" width="9" height="11.1"/>
		<polygon id="XMLID_4136_" class="st2" points="533.9,887.4 533.9,883.3 542.9,883.3 542.9,894.4 533.9,894.4 533.9,890.3 
			532.4,890.3 532.4,887.4 		"/>
	</g>
	<polygon id="XMLID_4134_" class="st1" points="50.7,844.4 44.4,849.9 44.4,838.9 50.7,844.4 	"/>
	<rect id="XMLID_4133_" x="55.5" y="824" class="st2" width="9" height="11.1"/>
	<rect id="XMLID_4132_" x="55.5" y="853.6" class="st2" width="9" height="11.1"/>
	<polygon id="XMLID_4131_" class="st2" points="64.5,842.9 64.5,838.8 55.5,838.8 55.5,849.9 64.5,849.9 64.5,845.8 66,845.8 
		66,842.9 	"/>
	<text id="XMLID_4130_" transform="matrix(0.9276 0 0 1 557.9126 851.8081)" class="st3 st4 st5">27</text>
	<text id="XMLID_4129_" transform="matrix(0.9276 0 0 1 15.2231 851.8081)" class="st3 st4 st5">27</text>
	<polygon id="XMLID_4128_" class="st1" points="548,844.4 554.3,849.9 554.3,838.9 548,844.4 	"/>
	<g id="XMLID_4124_">
		<rect id="XMLID_4127_" x="533.9" y="824" class="st2" width="9" height="11.1"/>
		<rect id="XMLID_4126_" x="533.9" y="853.6" class="st2" width="9" height="11.1"/>
		<polygon id="XMLID_4125_" class="st2" points="533.9,842.9 533.9,838.8 542.9,838.8 542.9,849.9 533.9,849.9 533.9,845.8 
			532.4,845.8 532.4,842.9 		"/>
	</g>
	<polygon id="XMLID_4123_" class="st1" points="50.7,799.9 44.4,805.4 44.4,794.4 50.7,799.9 	"/>
	<rect id="XMLID_4122_" x="55.5" y="779.5" class="st2" width="9" height="11.1"/>
	<rect id="XMLID_4121_" x="55.5" y="809.2" class="st2" width="9" height="11.1"/>
	<polygon id="XMLID_4120_" class="st2" points="64.5,798.5 64.5,794.4 55.5,794.4 55.5,805.5 64.5,805.5 64.5,801.4 66,801.4 
		66,798.5 	"/>
	<text id="XMLID_4119_" transform="matrix(0.9276 0 0 1 557.9126 807.3582)" class="st3 st4 st5">28</text>
	<text id="XMLID_4118_" transform="matrix(0.9276 0 0 1 15.2231 807.3582)" class="st3 st4 st5">28</text>
	<polygon id="XMLID_4117_" class="st1" points="548,799.9 554.3,805.4 554.3,794.4 548,799.9 	"/>
	<g id="XMLID_4113_">
		<rect id="XMLID_4116_" x="533.9" y="779.5" class="st2" width="9" height="11.1"/>
		<rect id="XMLID_4115_" x="533.9" y="809.2" class="st2" width="9" height="11.1"/>
		<polygon id="XMLID_4114_" class="st2" points="533.9,798.5 533.9,794.4 542.9,794.4 542.9,805.5 533.9,805.5 533.9,801.4 
			532.4,801.4 532.4,798.5 		"/>
	</g>
	<polygon id="XMLID_4112_" class="st1" points="50.7,755.5 44.4,761 44.4,750 50.7,755.5 	"/>
	<rect id="XMLID_4111_" x="55.5" y="735.1" class="st2" width="9" height="11.1"/>
	<rect id="XMLID_4110_" x="55.5" y="764.7" class="st2" width="9" height="11.1"/>
	<polygon id="XMLID_4109_" class="st2" points="64.5,754 64.5,749.9 55.5,749.9 55.5,761 64.5,761 64.5,756.9 66,756.9 66,754 	"/>
	<text id="XMLID_4108_" transform="matrix(0.9276 0 0 1 557.9126 762.9082)" class="st3 st4 st5">29</text>
	<text id="XMLID_4107_" transform="matrix(0.9276 0 0 1 15.2231 762.9082)" class="st3 st4 st5">29</text>
	<polygon id="XMLID_4106_" class="st1" points="548,755.5 554.3,761 554.3,750 548,755.5 	"/>
	<g id="XMLID_4102_">
		<rect id="XMLID_4105_" x="533.9" y="735.1" class="st2" width="9" height="11.1"/>
		<rect id="XMLID_4104_" x="533.9" y="764.7" class="st2" width="9" height="11.1"/>
		<polygon id="XMLID_4103_" class="st2" points="533.9,754 533.9,749.9 542.9,749.9 542.9,761 533.9,761 533.9,756.9 532.4,756.9 
			532.4,754 		"/>
	</g>
	<polygon id="XMLID_4101_" class="st1" points="50.7,711 44.4,716.5 44.4,705.5 50.7,711 	"/>
	<rect id="XMLID_4100_" x="55.5" y="690.6" class="st2" width="9" height="11.1"/>
	<rect id="XMLID_4099_" x="55.5" y="720.3" class="st2" width="9" height="11.1"/>
	<polygon id="XMLID_4098_" class="st2" points="64.5,709.6 64.5,705.5 55.5,705.5 55.5,716.6 64.5,716.6 64.5,712.5 66,712.5 
		66,709.6 	"/>
	<text id="XMLID_4097_" transform="matrix(0.9276 0 0 1 557.9126 718.4583)" class="st3 st4 st5">30</text>
	<text id="XMLID_4096_" transform="matrix(0.9276 0 0 1 15.2231 718.4583)" class="st3 st4 st5">30</text>
	<polygon id="XMLID_4095_" class="st1" points="548,711 554.3,716.5 554.3,705.5 548,711 	"/>
	<g id="XMLID_4091_">
		<rect id="XMLID_4094_" x="533.9" y="690.6" class="st2" width="9" height="11.1"/>
		<rect id="XMLID_4093_" x="533.9" y="720.3" class="st2" width="9" height="11.1"/>
		<polygon id="XMLID_4092_" class="st2" points="533.9,709.6 533.9,705.5 542.9,705.5 542.9,716.6 533.9,716.6 533.9,712.5 
			532.4,712.5 532.4,709.6 		"/>
	</g>
	<polygon id="XMLID_4090_" class="st1" points="50.7,666.6 44.4,672.1 44.4,661.1 50.7,666.6 	"/>
	<rect id="XMLID_4089_" x="55.5" y="646.2" class="st2" width="9" height="11.1"/>
	<rect id="XMLID_4088_" x="55.5" y="675.8" class="st2" width="9" height="11.1"/>
	<polygon id="XMLID_4087_" class="st2" points="64.5,665.1 64.5,661 55.5,661 55.5,672.1 64.5,672.1 64.5,668 66,668 66,665.1 	"/>
	<text id="XMLID_4086_" transform="matrix(0.9276 0 0 1 557.9126 674.0083)" class="st3 st4 st5">31</text>
	<text id="XMLID_4085_" transform="matrix(0.9276 0 0 1 15.2231 674.0083)" class="st3 st4 st5">31</text>
	<polygon id="XMLID_4084_" class="st1" points="548,666.6 554.3,672.1 554.3,661.1 548,666.6 	"/>
	<g id="XMLID_4080_">
		<rect id="XMLID_4083_" x="533.9" y="646.2" class="st2" width="9" height="11.1"/>
		<rect id="XMLID_4082_" x="533.9" y="675.8" class="st2" width="9" height="11.1"/>
		<polygon id="XMLID_4081_" class="st2" points="533.9,665.1 533.9,661 542.9,661 542.9,672.1 533.9,672.1 533.9,668 532.4,668 
			532.4,665.1 		"/>
	</g>
	<polygon id="XMLID_4079_" class="st1" points="50.7,622.1 44.4,627.6 44.4,616.6 50.7,622.1 	"/>
	<rect id="XMLID_4078_" x="55.5" y="601.7" class="st2" width="9" height="11.1"/>
	<rect id="XMLID_4077_" x="55.5" y="631.4" class="st2" width="9" height="11.1"/>
	<polygon id="XMLID_4076_" class="st2" points="64.5,620.7 64.5,616.6 55.5,616.6 55.5,627.7 64.5,627.7 64.5,623.6 66,623.6 
		66,620.7 	"/>
	<text id="XMLID_4075_" transform="matrix(0.9276 0 0 1 557.9126 629.5583)" class="st3 st4 st5">32</text>
	<text id="XMLID_4074_" transform="matrix(0.9276 0 0 1 15.2231 629.5583)" class="st3 st4 st5">32</text>
	<polygon id="XMLID_4073_" class="st1" points="548,622.1 554.3,627.6 554.3,616.6 548,622.1 	"/>
	<g id="XMLID_4069_">
		<rect id="XMLID_4072_" x="533.9" y="601.7" class="st2" width="9" height="11.1"/>
		<rect id="XMLID_4071_" x="533.9" y="631.4" class="st2" width="9" height="11.1"/>
		<polygon id="XMLID_4070_" class="st2" points="533.9,620.7 533.9,616.6 542.9,616.6 542.9,627.7 533.9,627.7 533.9,623.6 
			532.4,623.6 532.4,620.7 		"/>
	</g>
	<polygon id="XMLID_4068_" class="st1" points="50.7,577.7 44.4,583.2 44.4,572.2 50.7,577.7 	"/>
	<rect id="XMLID_4067_" x="55.5" y="557.3" class="st2" width="9" height="11.1"/>
	<rect id="XMLID_4066_" x="55.5" y="586.9" class="st2" width="9" height="11.1"/>
	<polygon id="XMLID_4065_" class="st2" points="64.5,576.2 64.5,572.1 55.5,572.1 55.5,583.2 64.5,583.2 64.5,579.1 66,579.1 
		66,576.2 	"/>
	<text id="XMLID_4064_" transform="matrix(0.9276 0 0 1 557.9126 585.1084)" class="st3 st4 st5">33</text>
	<text id="XMLID_4063_" transform="matrix(0.9276 0 0 1 15.2231 585.1084)" class="st3 st4 st5">33</text>
	<polygon id="XMLID_4062_" class="st1" points="548,577.7 554.3,583.2 554.3,572.2 548,577.7 	"/>
	<g id="XMLID_4058_">
		<rect id="XMLID_4061_" x="533.9" y="557.3" class="st2" width="9" height="11.1"/>
		<rect id="XMLID_4060_" x="533.9" y="586.9" class="st2" width="9" height="11.1"/>
		<polygon id="XMLID_4059_" class="st2" points="533.9,576.2 533.9,572.1 542.9,572.1 542.9,583.2 533.9,583.2 533.9,579.1 
			532.4,579.1 532.4,576.2 		"/>
	</g>
	<polygon id="XMLID_4057_" class="st1" points="50.7,533.2 44.4,538.7 44.4,527.7 50.7,533.2 	"/>
	<rect id="XMLID_4056_" x="55.5" y="512.8" class="st2" width="9" height="11.1"/>
	<rect id="XMLID_4055_" x="55.5" y="542.5" class="st2" width="9" height="11.1"/>
	<polygon id="XMLID_4054_" class="st2" points="64.5,531.8 64.5,527.7 55.5,527.7 55.5,538.8 64.5,538.8 64.5,534.7 66,534.7 
		66,531.8 	"/>
	<text id="XMLID_4053_" transform="matrix(0.9276 0 0 1 557.9126 540.6584)" class="st3 st4 st5">34</text>
	<text id="XMLID_4052_" transform="matrix(0.9276 0 0 1 15.2231 540.6584)" class="st3 st4 st5">34</text>
	<polygon id="XMLID_4051_" class="st1" points="548,533.2 554.3,538.7 554.3,527.7 548,533.2 	"/>
	<g id="XMLID_4047_">
		<rect id="XMLID_4050_" x="533.9" y="512.8" class="st2" width="9" height="11.1"/>
		<rect id="XMLID_4049_" x="533.9" y="542.5" class="st2" width="9" height="11.1"/>
		<polygon id="XMLID_4048_" class="st2" points="533.9,531.8 533.9,527.7 542.9,527.7 542.9,538.8 533.9,538.8 533.9,534.7 
			532.4,534.7 532.4,531.8 		"/>
	</g>
	<polygon id="XMLID_4046_" class="st1" points="50.7,488.8 44.4,494.3 44.4,483.3 50.7,488.8 	"/>
	<rect id="XMLID_4045_" x="55.5" y="468.4" class="st2" width="9" height="11.1"/>
	<rect id="XMLID_4044_" x="55.5" y="498" class="st2" width="9" height="11.1"/>
	<polygon id="XMLID_4043_" class="st2" points="64.5,487.3 64.5,483.2 55.5,483.2 55.5,494.3 64.5,494.3 64.5,490.2 66,490.2 
		66,487.3 	"/>
	<text id="XMLID_4042_" transform="matrix(0.9276 0 0 1 557.9126 496.2085)" class="st3 st4 st5">35</text>
	<text id="XMLID_4041_" transform="matrix(0.9276 0 0 1 15.2231 496.2085)" class="st3 st4 st5">35</text>
	<polygon id="XMLID_4040_" class="st1" points="548,488.8 554.3,494.3 554.3,483.3 548,488.8 	"/>
	<g id="XMLID_4036_">
		<rect id="XMLID_4039_" x="533.9" y="468.4" class="st2" width="9" height="11.1"/>
		<rect id="XMLID_4038_" x="533.9" y="498" class="st2" width="9" height="11.1"/>
		<polygon id="XMLID_4037_" class="st2" points="533.9,487.3 533.9,483.2 542.9,483.2 542.9,494.3 533.9,494.3 533.9,490.2 
			532.4,490.2 532.4,487.3 		"/>
	</g>
	<polygon id="XMLID_4035_" class="st1" points="50.7,444.3 44.4,449.8 44.4,438.8 50.7,444.3 	"/>
	<rect id="XMLID_4034_" x="55.5" y="423.9" class="st2" width="9" height="11.1"/>
	<rect id="XMLID_4033_" x="55.5" y="453.6" class="st2" width="9" height="11.1"/>
	<polygon id="XMLID_4032_" class="st2" points="64.5,442.9 64.5,438.8 55.5,438.8 55.5,449.9 64.5,449.9 64.5,445.8 66,445.8 
		66,442.9 	"/>
	<text id="XMLID_4031_" transform="matrix(0.9276 0 0 1 557.9126 451.7585)" class="st3 st4 st5">36</text>
	<text id="XMLID_4030_" transform="matrix(0.9276 0 0 1 15.2231 451.7585)" class="st3 st4 st5">36</text>
	<polygon id="XMLID_4029_" class="st1" points="548,444.3 554.3,449.8 554.3,438.8 548,444.3 	"/>
	<g id="XMLID_4025_">
		<rect id="XMLID_4028_" x="533.9" y="423.9" class="st2" width="9" height="11.1"/>
		<rect id="XMLID_4027_" x="533.9" y="453.6" class="st2" width="9" height="11.1"/>
		<polygon id="XMLID_4026_" class="st2" points="533.9,442.9 533.9,438.8 542.9,438.8 542.9,449.9 533.9,449.9 533.9,445.8 
			532.4,445.8 532.4,442.9 		"/>
	</g>
	<polygon id="XMLID_4024_" class="st1" points="50.7,399.9 44.4,405.4 44.4,394.4 50.7,399.9 	"/>
	<rect id="XMLID_4023_" x="55.5" y="379.5" class="st2" width="9" height="11.1"/>
	<rect id="XMLID_4022_" x="55.5" y="409.1" class="st2" width="9" height="11.1"/>
	<polygon id="XMLID_4021_" class="st2" points="64.5,398.4 64.5,394.3 55.5,394.3 55.5,405.4 64.5,405.4 64.5,401.3 66,401.3 
		66,398.4 	"/>
	<text id="XMLID_4020_" transform="matrix(0.9276 0 0 1 557.9126 407.3086)" class="st3 st4 st5">37</text>
	<text id="XMLID_4019_" transform="matrix(0.9276 0 0 1 15.2231 407.3086)" class="st3 st4 st5">37</text>
	<polygon id="XMLID_4018_" class="st1" points="548,399.9 554.3,405.4 554.3,394.4 548,399.9 	"/>
	<g id="XMLID_4014_">
		<rect id="XMLID_4017_" x="533.9" y="379.5" class="st2" width="9" height="11.1"/>
		<rect id="XMLID_4016_" x="533.9" y="409.1" class="st2" width="9" height="11.1"/>
		<polygon id="XMLID_4015_" class="st2" points="533.9,398.4 533.9,394.3 542.9,394.3 542.9,405.4 533.9,405.4 533.9,401.3 
			532.4,401.3 532.4,398.4 		"/>
	</g>
	<polygon id="XMLID_4013_" class="st1" points="50.7,355.4 44.4,360.9 44.4,349.9 50.7,355.4 	"/>
	<rect id="XMLID_4012_" x="55.5" y="335" class="st2" width="9" height="11.1"/>
	<rect id="XMLID_4011_" x="55.5" y="364.7" class="st2" width="9" height="11.1"/>
	<polygon id="XMLID_4010_" class="st2" points="64.5,354 64.5,349.9 55.5,349.9 55.5,361 64.5,361 64.5,356.9 66,356.9 66,354 	"/>
	<text id="XMLID_4009_" transform="matrix(0.9276 0 0 1 557.9126 362.8586)" class="st3 st4 st5">38</text>
	<text id="XMLID_4008_" transform="matrix(0.9276 0 0 1 15.2231 362.8586)" class="st3 st4 st5">38</text>
	<polygon id="XMLID_4007_" class="st1" points="548,355.4 554.3,360.9 554.3,349.9 548,355.4 	"/>
	<g id="XMLID_4003_">
		<rect id="XMLID_4006_" x="533.9" y="335" class="st2" width="9" height="11.1"/>
		<rect id="XMLID_4005_" x="533.9" y="364.7" class="st2" width="9" height="11.1"/>
		<polygon id="XMLID_4004_" class="st2" points="533.9,354 533.9,349.9 542.9,349.9 542.9,361 533.9,361 533.9,356.9 532.4,356.9 
			532.4,354 		"/>
	</g>
	<polygon id="XMLID_4002_" class="st1" points="50.7,311 44.4,316.5 44.4,305.5 50.7,311 	"/>
	<rect id="XMLID_4001_" x="55.5" y="290.6" class="st2" width="9" height="11.1"/>
	<rect id="XMLID_4000_" x="55.5" y="320.2" class="st2" width="9" height="11.1"/>
	<polygon id="XMLID_3999_" class="st2" points="64.5,309.5 64.5,305.4 55.5,305.4 55.5,316.5 64.5,316.5 64.5,312.4 66,312.4 
		66,309.5 	"/>
	<text id="XMLID_3998_" transform="matrix(0.9276 0 0 1 557.9126 318.4088)" class="st3 st4 st5">39</text>
	<text id="XMLID_3997_" transform="matrix(0.9276 0 0 1 15.2231 318.4088)" class="st3 st4 st5">39</text>
	<polygon id="XMLID_3996_" class="st1" points="548,311 554.3,316.5 554.3,305.5 548,311 	"/>
	<g id="XMLID_3992_">
		<rect id="XMLID_3995_" x="533.9" y="290.6" class="st2" width="9" height="11.1"/>
		<rect id="XMLID_3994_" x="533.9" y="320.2" class="st2" width="9" height="11.1"/>
		<polygon id="XMLID_3993_" class="st2" points="533.9,309.5 533.9,305.4 542.9,305.4 542.9,316.5 533.9,316.5 533.9,312.4 
			532.4,312.4 532.4,309.5 		"/>
	</g>
	<polygon id="XMLID_3991_" class="st1" points="50.7,266.5 44.4,272 44.4,261 50.7,266.5 	"/>
	<rect id="XMLID_3990_" x="55.5" y="246.1" class="st2" width="9" height="11.1"/>
	<rect id="XMLID_3989_" x="55.5" y="275.8" class="st2" width="9" height="11.1"/>
	<polygon id="XMLID_3988_" class="st2" points="64.5,265.1 64.5,261 55.5,261 55.5,272.1 64.5,272.1 64.5,268 66,268 66,265.1 	"/>
	<text id="XMLID_3987_" transform="matrix(0.9276 0 0 1 557.9126 273.9589)" class="st3 st4 st5">40</text>
	<text id="XMLID_3986_" transform="matrix(0.9276 0 0 1 15.2231 273.9589)" class="st3 st4 st5">40</text>
	<polygon id="XMLID_3985_" class="st1" points="548,266.5 554.3,272 554.3,261 548,266.5 	"/>
	<g id="XMLID_3981_">
		<rect id="XMLID_3984_" x="533.9" y="246.1" class="st2" width="9" height="11.1"/>
		<rect id="XMLID_3983_" x="533.9" y="275.8" class="st2" width="9" height="11.1"/>
		<polygon id="XMLID_3982_" class="st2" points="533.9,265.1 533.9,261 542.9,261 542.9,272.1 533.9,272.1 533.9,268 532.4,268 
			532.4,265.1 		"/>
	</g>
	<polygon id="XMLID_3980_" class="st1" points="50.7,222.1 44.4,227.6 44.4,216.6 50.7,222.1 	"/>
	<rect id="XMLID_3979_" x="55.5" y="201.7" class="st2" width="9" height="11.1"/>
	<rect id="XMLID_3978_" x="55.5" y="231.3" class="st2" width="9" height="11.1"/>
	<polygon id="XMLID_3977_" class="st2" points="64.5,220.6 64.5,216.5 55.5,216.5 55.5,227.6 64.5,227.6 64.5,223.5 66,223.5 
		66,220.6 	"/>
	<text id="XMLID_3976_" transform="matrix(0.9276 0 0 1 557.9126 229.5089)" class="st3 st4 st5">41</text>
	<text id="XMLID_3975_" transform="matrix(0.9276 0 0 1 15.2231 229.5089)" class="st3 st4 st5">41</text>
	<polygon id="XMLID_3974_" class="st1" points="548,222.1 554.3,227.6 554.3,216.6 548,222.1 	"/>
	<g id="XMLID_3970_">
		<rect id="XMLID_3973_" x="533.9" y="201.7" class="st2" width="9" height="11.1"/>
		<rect id="XMLID_3972_" x="533.9" y="231.3" class="st2" width="9" height="11.1"/>
		<polygon id="XMLID_3971_" class="st2" points="533.9,220.6 533.9,216.5 542.9,216.5 542.9,227.6 533.9,227.6 533.9,223.5 
			532.4,223.5 532.4,220.6 		"/>
	</g>
	<polygon id="XMLID_3969_" class="st1" points="50.7,177.6 44.4,183.1 44.4,172.1 50.7,177.6 	"/>
	<rect id="XMLID_3968_" x="55.5" y="157.2" class="st2" width="9" height="11.1"/>
	<rect id="XMLID_3967_" x="55.5" y="186.9" class="st2" width="9" height="11.1"/>
	<polygon id="XMLID_3966_" class="st2" points="64.5,176.2 64.5,172.1 55.5,172.1 55.5,183.2 64.5,183.2 64.5,179.1 66,179.1 
		66,176.2 	"/>
	<text id="XMLID_3965_" transform="matrix(0.9276 0 0 1 557.9126 185.059)" class="st3 st4 st5">42</text>
	<text id="XMLID_3964_" transform="matrix(0.9276 0 0 1 15.2231 185.059)" class="st3 st4 st5">42</text>
	<polygon id="XMLID_3963_" class="st1" points="548,177.6 554.3,183.1 554.3,172.1 548,177.6 	"/>
	<g id="XMLID_3959_">
		<rect id="XMLID_3962_" x="533.9" y="157.2" class="st2" width="9" height="11.1"/>
		<rect id="XMLID_3961_" x="533.9" y="186.9" class="st2" width="9" height="11.1"/>
		<polygon id="XMLID_3960_" class="st2" points="533.9,176.2 533.9,172.1 542.9,172.1 542.9,183.2 533.9,183.2 533.9,179.1 
			532.4,179.1 532.4,176.2 		"/>
	</g>
	<polygon id="XMLID_3958_" class="st1" points="50.7,133.2 44.4,138.7 44.4,127.7 50.7,133.2 	"/>
	<rect id="XMLID_3957_" x="55.5" y="112.8" class="st2" width="9" height="11.1"/>
	<rect id="XMLID_3956_" x="55.5" y="142.4" class="st2" width="9" height="11.1"/>
	<polygon id="XMLID_3955_" class="st2" points="64.5,131.7 64.5,127.6 55.5,127.6 55.5,138.7 64.5,138.7 64.5,134.6 66,134.6 
		66,131.7 	"/>
	<text id="XMLID_3954_" transform="matrix(0.9276 0 0 1 557.9126 140.609)" class="st3 st4 st5">43</text>
	<text id="XMLID_3953_" transform="matrix(0.9276 0 0 1 15.2231 140.609)" class="st3 st4 st5">43</text>
	<polygon id="XMLID_3952_" class="st1" points="548,133.2 554.3,138.7 554.3,127.7 548,133.2 	"/>
	<g id="XMLID_3948_">
		<rect id="XMLID_3951_" x="533.9" y="112.8" class="st2" width="9" height="11.1"/>
		<rect id="XMLID_3950_" x="533.9" y="142.4" class="st2" width="9" height="11.1"/>
		<polygon id="XMLID_3949_" class="st2" points="533.9,131.7 533.9,127.6 542.9,127.6 542.9,138.7 533.9,138.7 533.9,134.6 
			532.4,134.6 532.4,131.7 		"/>
	</g>
	<polygon id="XMLID_3947_" class="st1" points="50.7,88.7 44.4,94.2 44.4,83.2 50.7,88.7 	"/>
	<rect id="XMLID_3946_" x="55.5" y="68.3" class="st2" width="9" height="11.1"/>
	<rect id="XMLID_3945_" x="55.5" y="98" class="st2" width="9" height="11.1"/>
	<polygon id="XMLID_3944_" class="st2" points="64.5,87.3 64.5,83.2 55.5,83.2 55.5,94.3 64.5,94.3 64.5,90.2 66,90.2 66,87.3 	"/>
	<text id="XMLID_3943_" transform="matrix(0.9276 0 0 1 557.9126 96.1591)" class="st3 st4 st5">44</text>
	<text id="XMLID_3942_" transform="matrix(0.9276 0 0 1 15.2231 96.1591)" class="st3 st4 st5">44</text>
	<polygon id="XMLID_3941_" class="st1" points="548,88.7 554.3,94.2 554.3,83.2 548,88.7 	"/>
	<g id="XMLID_3937_">
		<rect id="XMLID_3940_" x="533.9" y="68.3" class="st2" width="9" height="11.1"/>
		<rect id="XMLID_3939_" x="533.9" y="98" class="st2" width="9" height="11.1"/>
		<polygon id="XMLID_3938_" class="st2" points="533.9,87.3 533.9,83.2 542.9,83.2 542.9,94.3 533.9,94.3 533.9,90.2 532.4,90.2 
			532.4,87.3 		"/>
	</g>
</g>
</svg>
