<?xml version="1.0" encoding="utf-8"?>
<!-- Generator: Adobe Illustrator 19.0.0, SVG Export Plug-In . SVG Version: 6.00 Build 0)  -->
<svg version="1.1" id="图层_1" xmlns="http://www.w3.org/2000/svg" xmlns:xlink="http://www.w3.org/1999/xlink" x="0px" y="0px"
	 width="600px" height="2177.7px" viewBox="0 0 600 2177.7" style="enable-background:new 0 0 600 2177.7;" xml:space="preserve">
<style type="text/css">
	.st0{fill:url(#XMLID_2_);}
	.st1{fill:#FFFFFF;stroke:#3E3A39;stroke-width:0.7;stroke-miterlimit:10;}
	.st2{fill:#211613;}
	.st3{fill:#FFFFFF;}
	.st4{font-family:'MicrosoftYaHei';}
	.st5{font-size:24.6945px;}
</style>
<g id="XMLID_4976_">
	
		<linearGradient id="XMLID_2_" gradientUnits="userSpaceOnUse" x1="-123.2847" y1="1264.9156" x2="476.7153" y2="1264.9156" gradientTransform="matrix(1 0 0 -1 123.2847 2353.7656)">
		<stop  offset="0" style="stop-color:#55606A"/>
		<stop  offset="8.950000e-02" style="stop-color:#343C46"/>
		<stop  offset="0.9181" style="stop-color:#343C46"/>
		<stop  offset="1" style="stop-color:#55606A"/>
	</linearGradient>
	<path id="XMLID_5500_" class="st0" d="M0,0v2177.7h600V0H0z M525,2111.2H75V66.5h450V2111.2z"/>
</g>
<g id="XMLID_4977_">
	<polygon id="XMLID_5496_" class="st1" points="50.7,2089 44.4,2094.5 44.4,2083.5 50.7,2089 	"/>
	<rect id="XMLID_5495_" x="55.5" y="2068.6" class="st2" width="9" height="11.1"/>
	<rect id="XMLID_5494_" x="55.5" y="2098.2" class="st2" width="9" height="11.1"/>
	<polygon id="XMLID_5493_" class="st2" points="64.5,2087.5 64.5,2083.4 55.5,2083.4 55.5,2094.5 64.5,2094.5 64.5,2090.4 
		66,2090.4 66,2087.5 	"/>
	<text id="XMLID_5492_" transform="matrix(0.9276 0 0 1 557.9121 2096.4082)" class="st3 st4 st5">1</text>
	<text id="XMLID_5491_" transform="matrix(0.9276 0 0 1 15.2227 2096.4082)" class="st3 st4 st5">  1</text>
	<polygon id="XMLID_5490_" class="st1" points="548,2089 554.3,2094.5 554.3,2083.5 548,2089 	"/>
	<g id="XMLID_5486_">
		<rect id="XMLID_5489_" x="533.9" y="2068.6" class="st2" width="9" height="11.1"/>
		<rect id="XMLID_5488_" x="533.9" y="2098.2" class="st2" width="9" height="11.1"/>
		<polygon id="XMLID_5487_" class="st2" points="533.9,2087.5 533.9,2083.4 542.9,2083.4 542.9,2094.5 533.9,2094.5 533.9,2090.4 
			532.4,2090.4 532.4,2087.5 		"/>
	</g>
	<polygon id="XMLID_5485_" class="st1" points="50.7,2044.5 44.4,2050 44.4,2039 50.7,2044.5 	"/>
	<rect id="XMLID_5484_" x="55.5" y="2024.1" class="st2" width="9" height="11.1"/>
	<rect id="XMLID_5483_" x="55.5" y="2053.8" class="st2" width="9" height="11.1"/>
	<polygon id="XMLID_5482_" class="st2" points="64.5,2043.1 64.5,2039 55.5,2039 55.5,2050.1 64.5,2050.1 64.5,2046 66,2046 
		66,2043.1 	"/>
	<text id="XMLID_5481_" transform="matrix(0.9276 0 0 1 557.9121 2051.9583)" class="st3 st4 st5">2</text>
	<text id="XMLID_5480_" transform="matrix(0.9276 0 0 1 15.2227 2051.9583)" class="st3 st4 st5">  2</text>
	<polygon id="XMLID_5479_" class="st1" points="548,2044.5 554.3,2050 554.3,2039 548,2044.5 	"/>
	<g id="XMLID_5475_">
		<rect id="XMLID_5478_" x="533.9" y="2024.1" class="st2" width="9" height="11.1"/>
		<rect id="XMLID_5477_" x="533.9" y="2053.8" class="st2" width="9" height="11.1"/>
		<polygon id="XMLID_5476_" class="st2" points="533.9,2043.1 533.9,2039 542.9,2039 542.9,2050.1 533.9,2050.1 533.9,2046 
			532.4,2046 532.4,2043.1 		"/>
	</g>
	<polygon id="XMLID_5474_" class="st1" points="50.7,2000.1 44.4,2005.6 44.4,1994.6 50.7,2000.1 	"/>
	<rect id="XMLID_5473_" x="55.5" y="1979.7" class="st2" width="9" height="11.1"/>
	<rect id="XMLID_5472_" x="55.5" y="2009.3" class="st2" width="9" height="11.1"/>
	<polygon id="XMLID_5471_" class="st2" points="64.5,1998.6 64.5,1994.5 55.5,1994.5 55.5,2005.6 64.5,2005.6 64.5,2001.5 
		66,2001.5 66,1998.6 	"/>
	<text id="XMLID_5470_" transform="matrix(0.9276 0 0 1 557.9121 2007.5082)" class="st3 st4 st5">3</text>
	<text id="XMLID_5469_" transform="matrix(0.9276 0 0 1 15.2227 2007.5082)" class="st3 st4 st5">  3</text>
	<polygon id="XMLID_5468_" class="st1" points="548,2000.1 554.3,2005.6 554.3,1994.6 548,2000.1 	"/>
	<g id="XMLID_5464_">
		<rect id="XMLID_5467_" x="533.9" y="1979.7" class="st2" width="9" height="11.1"/>
		<rect id="XMLID_5466_" x="533.9" y="2009.3" class="st2" width="9" height="11.1"/>
		<polygon id="XMLID_5465_" class="st2" points="533.9,1998.6 533.9,1994.5 542.9,1994.5 542.9,2005.6 533.9,2005.6 533.9,2001.5 
			532.4,2001.5 532.4,1998.6 		"/>
	</g>
	<polygon id="XMLID_5463_" class="st1" points="50.7,1955.6 44.4,1961.1 44.4,1950.2 50.7,1955.6 	"/>
	<rect id="XMLID_5462_" x="55.5" y="1935.2" class="st2" width="9" height="11.1"/>
	<rect id="XMLID_5461_" x="55.5" y="1964.9" class="st2" width="9" height="11.1"/>
	<polygon id="XMLID_5460_" class="st2" points="64.5,1954.2 64.5,1950.1 55.5,1950.1 55.5,1961.2 64.5,1961.2 64.5,1957.1 
		66,1957.1 66,1954.2 	"/>
	<text id="XMLID_5459_" transform="matrix(0.9276 0 0 1 557.9121 1963.0582)" class="st3 st4 st5">4</text>
	<text id="XMLID_5458_" transform="matrix(0.9276 0 0 1 15.2227 1963.0582)" class="st3 st4 st5">  4</text>
	<polygon id="XMLID_5457_" class="st1" points="548,1955.6 554.3,1961.1 554.3,1950.1 548,1955.6 	"/>
	<g id="XMLID_5453_">
		<rect id="XMLID_5456_" x="533.9" y="1935.2" class="st2" width="9" height="11.1"/>
		<rect id="XMLID_5455_" x="533.9" y="1964.9" class="st2" width="9" height="11.1"/>
		<polygon id="XMLID_5454_" class="st2" points="533.9,1954.2 533.9,1950.1 542.9,1950.1 542.9,1961.2 533.9,1961.2 533.9,1957.1 
			532.4,1957.1 532.4,1954.2 		"/>
	</g>
	<polygon id="XMLID_5452_" class="st1" points="50.7,1911.2 44.4,1916.7 44.4,1905.7 50.7,1911.2 	"/>
	<rect id="XMLID_5451_" x="55.5" y="1890.8" class="st2" width="9" height="11.1"/>
	<rect id="XMLID_5450_" x="55.5" y="1920.4" class="st2" width="9" height="11.1"/>
	<polygon id="XMLID_5449_" class="st2" points="64.5,1909.7 64.5,1905.6 55.5,1905.6 55.5,1916.7 64.5,1916.7 64.5,1912.6 
		66,1912.6 66,1909.7 	"/>
	<text id="XMLID_5448_" transform="matrix(0.9276 0 0 1 557.9121 1918.6083)" class="st3 st4 st5">5</text>
	<text id="XMLID_5447_" transform="matrix(0.9276 0 0 1 15.2227 1918.6083)" class="st3 st4 st5">  5</text>
	<polygon id="XMLID_5446_" class="st1" points="548,1911.2 554.3,1916.7 554.3,1905.7 548,1911.2 	"/>
	<g id="XMLID_5442_">
		<rect id="XMLID_5445_" x="533.9" y="1890.8" class="st2" width="9" height="11.1"/>
		<rect id="XMLID_5444_" x="533.9" y="1920.4" class="st2" width="9" height="11.1"/>
		<polygon id="XMLID_5443_" class="st2" points="533.9,1909.7 533.9,1905.6 542.9,1905.6 542.9,1916.7 533.9,1916.7 533.9,1912.6 
			532.4,1912.6 532.4,1909.7 		"/>
	</g>
	<polygon id="XMLID_5441_" class="st1" points="50.7,1866.7 44.4,1872.2 44.4,1861.2 50.7,1866.7 	"/>
	<rect id="XMLID_5440_" x="55.5" y="1846.3" class="st2" width="9" height="11.1"/>
	<rect id="XMLID_5439_" x="55.5" y="1876" class="st2" width="9" height="11.1"/>
	<polygon id="XMLID_5438_" class="st2" points="64.5,1865.3 64.5,1861.2 55.5,1861.2 55.5,1872.3 64.5,1872.3 64.5,1868.2 
		66,1868.2 66,1865.3 	"/>
	<text id="XMLID_5437_" transform="matrix(0.9276 0 0 1 557.9121 1874.1582)" class="st3 st4 st5">6</text>
	<text id="XMLID_5436_" transform="matrix(0.9276 0 0 1 15.2227 1874.1582)" class="st3 st4 st5">  6</text>
	<polygon id="XMLID_5435_" class="st1" points="548,1866.7 554.3,1872.2 554.3,1861.2 548,1866.7 	"/>
	<g id="XMLID_5431_">
		<rect id="XMLID_5434_" x="533.9" y="1846.3" class="st2" width="9" height="11.1"/>
		<rect id="XMLID_5433_" x="533.9" y="1876" class="st2" width="9" height="11.1"/>
		<polygon id="XMLID_5432_" class="st2" points="533.9,1865.3 533.9,1861.2 542.9,1861.2 542.9,1872.3 533.9,1872.3 533.9,1868.2 
			532.4,1868.2 532.4,1865.3 		"/>
	</g>
	<polygon id="XMLID_5430_" class="st1" points="50.7,1822.3 44.4,1827.8 44.4,1816.8 50.7,1822.3 	"/>
	<rect id="XMLID_5429_" x="55.5" y="1801.9" class="st2" width="9" height="11.1"/>
	<rect id="XMLID_5428_" x="55.5" y="1831.5" class="st2" width="9" height="11.1"/>
	<polygon id="XMLID_5427_" class="st2" points="64.5,1820.8 64.5,1816.7 55.5,1816.7 55.5,1827.8 64.5,1827.8 64.5,1823.7 
		66,1823.7 66,1820.8 	"/>
	<text id="XMLID_5426_" transform="matrix(0.9276 0 0 1 557.9121 1829.7083)" class="st3 st4 st5">7</text>
	<text id="XMLID_5425_" transform="matrix(0.9276 0 0 1 15.2227 1829.7083)" class="st3 st4 st5">  7</text>
	<polygon id="XMLID_5424_" class="st1" points="548,1822.3 554.3,1827.8 554.3,1816.8 548,1822.3 	"/>
	<g id="XMLID_5420_">
		<rect id="XMLID_5423_" x="533.9" y="1801.9" class="st2" width="9" height="11.1"/>
		<rect id="XMLID_5422_" x="533.9" y="1831.5" class="st2" width="9" height="11.1"/>
		<polygon id="XMLID_5421_" class="st2" points="533.9,1820.8 533.9,1816.7 542.9,1816.7 542.9,1827.8 533.9,1827.8 533.9,1823.7 
			532.4,1823.7 532.4,1820.8 		"/>
	</g>
	<polygon id="XMLID_5419_" class="st1" points="50.7,1777.8 44.4,1783.3 44.4,1772.3 50.7,1777.8 	"/>
	<rect id="XMLID_5418_" x="55.5" y="1757.4" class="st2" width="9" height="11.1"/>
	<rect id="XMLID_5417_" x="55.5" y="1787.1" class="st2" width="9" height="11.1"/>
	<polygon id="XMLID_5416_" class="st2" points="64.5,1776.4 64.5,1772.3 55.5,1772.3 55.5,1783.4 64.5,1783.4 64.5,1779.3 
		66,1779.3 66,1776.4 	"/>
	<text id="XMLID_5415_" transform="matrix(0.9276 0 0 1 557.9121 1785.2582)" class="st3 st4 st5">8</text>
	<text id="XMLID_5414_" transform="matrix(0.9276 0 0 1 15.2227 1785.2582)" class="st3 st4 st5">  8</text>
	<polygon id="XMLID_5413_" class="st1" points="548,1777.8 554.3,1783.3 554.3,1772.3 548,1777.8 	"/>
	<g id="XMLID_5409_">
		<rect id="XMLID_5412_" x="533.9" y="1757.4" class="st2" width="9" height="11.1"/>
		<rect id="XMLID_5411_" x="533.9" y="1787.1" class="st2" width="9" height="11.1"/>
		<polygon id="XMLID_5410_" class="st2" points="533.9,1776.4 533.9,1772.3 542.9,1772.3 542.9,1783.4 533.9,1783.4 533.9,1779.3 
			532.4,1779.3 532.4,1776.4 		"/>
	</g>
	<polygon id="XMLID_5408_" class="st1" points="50.7,1733.4 44.4,1738.9 44.4,1727.9 50.7,1733.4 	"/>
	<rect id="XMLID_5407_" x="55.5" y="1713" class="st2" width="9" height="11.1"/>
	<rect id="XMLID_5406_" x="55.5" y="1742.6" class="st2" width="9" height="11.1"/>
	<polygon id="XMLID_5405_" class="st2" points="64.5,1731.9 64.5,1727.8 55.5,1727.8 55.5,1738.9 64.5,1738.9 64.5,1734.8 
		66,1734.8 66,1731.9 	"/>
	<text id="XMLID_5404_" transform="matrix(0.9276 0 0 1 557.9121 1740.8082)" class="st3 st4 st5">9</text>
	<text id="XMLID_5403_" transform="matrix(0.9276 0 0 1 15.2227 1740.8082)" class="st3 st4 st5">  9</text>
	<polygon id="XMLID_5402_" class="st1" points="548,1733.4 554.3,1738.9 554.3,1727.9 548,1733.4 	"/>
	<g id="XMLID_5398_">
		<rect id="XMLID_5401_" x="533.9" y="1713" class="st2" width="9" height="11.1"/>
		<rect id="XMLID_5400_" x="533.9" y="1742.6" class="st2" width="9" height="11.1"/>
		<polygon id="XMLID_5399_" class="st2" points="533.9,1731.9 533.9,1727.8 542.9,1727.8 542.9,1738.9 533.9,1738.9 533.9,1734.8 
			532.4,1734.8 532.4,1731.9 		"/>
	</g>
	<polygon id="XMLID_5397_" class="st1" points="50.7,1688.9 44.4,1694.4 44.4,1683.4 50.7,1688.9 	"/>
	<rect id="XMLID_5396_" x="55.5" y="1668.5" class="st2" width="9" height="11.1"/>
	<rect id="XMLID_5395_" x="55.5" y="1698.2" class="st2" width="9" height="11.1"/>
	<polygon id="XMLID_5394_" class="st2" points="64.5,1687.5 64.5,1683.4 55.5,1683.4 55.5,1694.5 64.5,1694.5 64.5,1690.4 
		66,1690.4 66,1687.5 	"/>
	<text id="XMLID_5393_" transform="matrix(0.9276 0 0 1 557.9121 1696.3582)" class="st3 st4 st5">10</text>
	<text id="XMLID_5392_" transform="matrix(0.9276 0 0 1 15.2227 1696.3582)" class="st3 st4 st5">10</text>
	<polygon id="XMLID_5391_" class="st1" points="548,1688.9 554.3,1694.4 554.3,1683.4 548,1688.9 	"/>
	<g id="XMLID_5387_">
		<rect id="XMLID_5390_" x="533.9" y="1668.5" class="st2" width="9" height="11.1"/>
		<rect id="XMLID_5389_" x="533.9" y="1698.2" class="st2" width="9" height="11.1"/>
		<polygon id="XMLID_5388_" class="st2" points="533.9,1687.5 533.9,1683.4 542.9,1683.4 542.9,1694.5 533.9,1694.5 533.9,1690.4 
			532.4,1690.4 532.4,1687.5 		"/>
	</g>
	<polygon id="XMLID_5386_" class="st1" points="50.7,1644.5 44.4,1650 44.4,1639 50.7,1644.5 	"/>
	<rect id="XMLID_5385_" x="55.5" y="1624.1" class="st2" width="9" height="11.1"/>
	<rect id="XMLID_5384_" x="55.5" y="1653.7" class="st2" width="9" height="11.1"/>
	<polygon id="XMLID_5383_" class="st2" points="64.5,1643 64.5,1638.9 55.5,1638.9 55.5,1650 64.5,1650 64.5,1645.9 66,1645.9 
		66,1643 	"/>
	<text id="XMLID_5382_" transform="matrix(0.9276 0 0 1 557.9121 1651.9082)" class="st3 st4 st5">11</text>
	<text id="XMLID_5381_" transform="matrix(0.9276 0 0 1 15.2227 1651.9082)" class="st3 st4 st5">11</text>
	<polygon id="XMLID_5380_" class="st1" points="548,1644.5 554.3,1650 554.3,1639 548,1644.5 	"/>
	<g id="XMLID_5376_">
		<rect id="XMLID_5379_" x="533.9" y="1624.1" class="st2" width="9" height="11.1"/>
		<rect id="XMLID_5378_" x="533.9" y="1653.7" class="st2" width="9" height="11.1"/>
		<polygon id="XMLID_5377_" class="st2" points="533.9,1643 533.9,1638.9 542.9,1638.9 542.9,1650 533.9,1650 533.9,1645.9 
			532.4,1645.9 532.4,1643 		"/>
	</g>
	<polygon id="XMLID_5375_" class="st1" points="50.7,1600 44.4,1605.5 44.4,1594.5 50.7,1600 	"/>
	<rect id="XMLID_5374_" x="55.5" y="1579.6" class="st2" width="9" height="11.1"/>
	<rect id="XMLID_5373_" x="55.5" y="1609.3" class="st2" width="9" height="11.1"/>
	<polygon id="XMLID_5372_" class="st2" points="64.5,1598.6 64.5,1594.5 55.5,1594.5 55.5,1605.6 64.5,1605.6 64.5,1601.5 
		66,1601.5 66,1598.6 	"/>
	<text id="XMLID_5371_" transform="matrix(0.9276 0 0 1 557.9121 1607.4583)" class="st3 st4 st5">12</text>
	<text id="XMLID_5370_" transform="matrix(0.9276 0 0 1 15.2227 1607.4583)" class="st3 st4 st5">12</text>
	<polygon id="XMLID_5369_" class="st1" points="548,1600 554.3,1605.5 554.3,1594.5 548,1600 	"/>
	<g id="XMLID_5365_">
		<rect id="XMLID_5368_" x="533.9" y="1579.6" class="st2" width="9" height="11.1"/>
		<rect id="XMLID_5367_" x="533.9" y="1609.3" class="st2" width="9" height="11.1"/>
		<polygon id="XMLID_5366_" class="st2" points="533.9,1598.6 533.9,1594.5 542.9,1594.5 542.9,1605.6 533.9,1605.6 533.9,1601.5 
			532.4,1601.5 532.4,1598.6 		"/>
	</g>
	<polygon id="XMLID_5364_" class="st1" points="50.7,1555.6 44.4,1561.1 44.4,1550.1 50.7,1555.6 	"/>
	<rect id="XMLID_5363_" x="55.5" y="1535.2" class="st2" width="9" height="11.1"/>
	<rect id="XMLID_5362_" x="55.5" y="1564.8" class="st2" width="9" height="11.1"/>
	<polygon id="XMLID_5361_" class="st2" points="64.5,1554.1 64.5,1550 55.5,1550 55.5,1561.1 64.5,1561.1 64.5,1557 66,1557 
		66,1554.1 	"/>
	<text id="XMLID_5360_" transform="matrix(0.9276 0 0 1 557.9121 1563.0082)" class="st3 st4 st5">13</text>
	<text id="XMLID_5359_" transform="matrix(0.9276 0 0 1 15.2227 1563.0082)" class="st3 st4 st5">13</text>
	<polygon id="XMLID_5358_" class="st1" points="548,1555.6 554.3,1561.1 554.3,1550.1 548,1555.6 	"/>
	<g id="XMLID_5354_">
		<rect id="XMLID_5357_" x="533.9" y="1535.2" class="st2" width="9" height="11.1"/>
		<rect id="XMLID_5356_" x="533.9" y="1564.8" class="st2" width="9" height="11.1"/>
		<polygon id="XMLID_5355_" class="st2" points="533.9,1554.1 533.9,1550 542.9,1550 542.9,1561.1 533.9,1561.1 533.9,1557 
			532.4,1557 532.4,1554.1 		"/>
	</g>
	<polygon id="XMLID_5353_" class="st1" points="50.7,1511.1 44.4,1516.6 44.4,1505.6 50.7,1511.1 	"/>
	<rect id="XMLID_5352_" x="55.5" y="1490.7" class="st2" width="9" height="11.1"/>
	<rect id="XMLID_5351_" x="55.5" y="1520.4" class="st2" width="9" height="11.1"/>
	<polygon id="XMLID_5350_" class="st2" points="64.5,1509.7 64.5,1505.6 55.5,1505.6 55.5,1516.7 64.5,1516.7 64.5,1512.6 
		66,1512.6 66,1509.7 	"/>
	<text id="XMLID_5349_" transform="matrix(0.9276 0 0 1 557.9121 1518.5582)" class="st3 st4 st5">14</text>
	<text id="XMLID_5348_" transform="matrix(0.9276 0 0 1 15.2227 1518.5582)" class="st3 st4 st5">14</text>
	<polygon id="XMLID_5347_" class="st1" points="548,1511.1 554.3,1516.6 554.3,1505.6 548,1511.1 	"/>
	<g id="XMLID_5343_">
		<rect id="XMLID_5346_" x="533.9" y="1490.7" class="st2" width="9" height="11.1"/>
		<rect id="XMLID_5345_" x="533.9" y="1520.4" class="st2" width="9" height="11.1"/>
		<polygon id="XMLID_5344_" class="st2" points="533.9,1509.7 533.9,1505.6 542.9,1505.6 542.9,1516.7 533.9,1516.7 533.9,1512.6 
			532.4,1512.6 532.4,1509.7 		"/>
	</g>
	<polygon id="XMLID_5342_" class="st1" points="50.7,1466.7 44.4,1472.2 44.4,1461.2 50.7,1466.7 	"/>
	<rect id="XMLID_5341_" x="55.5" y="1446.3" class="st2" width="9" height="11.1"/>
	<rect id="XMLID_5340_" x="55.5" y="1475.9" class="st2" width="9" height="11.1"/>
	<polygon id="XMLID_5339_" class="st2" points="64.5,1465.2 64.5,1461.1 55.5,1461.1 55.5,1472.2 64.5,1472.2 64.5,1468.1 
		66,1468.1 66,1465.2 	"/>
	<text id="XMLID_5338_" transform="matrix(0.9276 0 0 1 557.9121 1474.1082)" class="st3 st4 st5">15</text>
	<text id="XMLID_5337_" transform="matrix(0.9276 0 0 1 15.2227 1474.1082)" class="st3 st4 st5">15</text>
	<polygon id="XMLID_5336_" class="st1" points="548,1466.7 554.3,1472.2 554.3,1461.2 548,1466.7 	"/>
	<g id="XMLID_5332_">
		<rect id="XMLID_5335_" x="533.9" y="1446.3" class="st2" width="9" height="11.1"/>
		<rect id="XMLID_5334_" x="533.9" y="1475.9" class="st2" width="9" height="11.1"/>
		<polygon id="XMLID_5333_" class="st2" points="533.9,1465.2 533.9,1461.1 542.9,1461.1 542.9,1472.2 533.9,1472.2 533.9,1468.1 
			532.4,1468.1 532.4,1465.2 		"/>
	</g>
	<polygon id="XMLID_5331_" class="st1" points="50.7,1422.2 44.4,1427.7 44.4,1416.8 50.7,1422.2 	"/>
	<rect id="XMLID_5330_" x="55.5" y="1401.8" class="st2" width="9" height="11.1"/>
	<rect id="XMLID_5329_" x="55.5" y="1431.5" class="st2" width="9" height="11.1"/>
	<polygon id="XMLID_5328_" class="st2" points="64.5,1420.8 64.5,1416.7 55.5,1416.7 55.5,1427.8 64.5,1427.8 64.5,1423.7 
		66,1423.7 66,1420.8 	"/>
	<text id="XMLID_5327_" transform="matrix(0.9276 0 0 1 557.9121 1429.6582)" class="st3 st4 st5">16</text>
	<text id="XMLID_5326_" transform="matrix(0.9276 0 0 1 15.2227 1429.6582)" class="st3 st4 st5">16</text>
	<polygon id="XMLID_5325_" class="st1" points="548,1422.2 554.3,1427.7 554.3,1416.7 548,1422.2 	"/>
	<g id="XMLID_5321_">
		<rect id="XMLID_5324_" x="533.9" y="1401.8" class="st2" width="9" height="11.1"/>
		<rect id="XMLID_5323_" x="533.9" y="1431.5" class="st2" width="9" height="11.1"/>
		<polygon id="XMLID_5322_" class="st2" points="533.9,1420.8 533.9,1416.7 542.9,1416.7 542.9,1427.8 533.9,1427.8 533.9,1423.7 
			532.4,1423.7 532.4,1420.8 		"/>
	</g>
	<polygon id="XMLID_5320_" class="st1" points="50.7,1377.8 44.4,1383.3 44.4,1372.3 50.7,1377.8 	"/>
	<rect id="XMLID_5319_" x="55.5" y="1357.4" class="st2" width="9" height="11.1"/>
	<rect id="XMLID_5318_" x="55.5" y="1387" class="st2" width="9" height="11.1"/>
	<polygon id="XMLID_5317_" class="st2" points="64.5,1376.3 64.5,1372.2 55.5,1372.2 55.5,1383.3 64.5,1383.3 64.5,1379.2 
		66,1379.2 66,1376.3 	"/>
	<text id="XMLID_5316_" transform="matrix(0.9276 0 0 1 557.9121 1385.2081)" class="st3 st4 st5">17</text>
	<text id="XMLID_5315_" transform="matrix(0.9276 0 0 1 15.2227 1385.2081)" class="st3 st4 st5">17</text>
	<polygon id="XMLID_5314_" class="st1" points="548,1377.8 554.3,1383.3 554.3,1372.3 548,1377.8 	"/>
	<g id="XMLID_5310_">
		<rect id="XMLID_5313_" x="533.9" y="1357.4" class="st2" width="9" height="11.1"/>
		<rect id="XMLID_5312_" x="533.9" y="1387" class="st2" width="9" height="11.1"/>
		<polygon id="XMLID_5311_" class="st2" points="533.9,1376.3 533.9,1372.2 542.9,1372.2 542.9,1383.3 533.9,1383.3 533.9,1379.2 
			532.4,1379.2 532.4,1376.3 		"/>
	</g>
	<polygon id="XMLID_5309_" class="st1" points="50.7,1333.3 44.4,1338.8 44.4,1327.8 50.7,1333.3 	"/>
	<rect id="XMLID_5308_" x="55.5" y="1312.9" class="st2" width="9" height="11.1"/>
	<rect id="XMLID_5307_" x="55.5" y="1342.6" class="st2" width="9" height="11.1"/>
	<polygon id="XMLID_5306_" class="st2" points="64.5,1331.9 64.5,1327.8 55.5,1327.8 55.5,1338.9 64.5,1338.9 64.5,1334.8 
		66,1334.8 66,1331.9 	"/>
	<text id="XMLID_5305_" transform="matrix(0.9276 0 0 1 557.9121 1340.7581)" class="st3 st4 st5">18</text>
	<text id="XMLID_5304_" transform="matrix(0.9276 0 0 1 15.2227 1340.7581)" class="st3 st4 st5">18</text>
	<polygon id="XMLID_5303_" class="st1" points="548,1333.3 554.3,1338.8 554.3,1327.8 548,1333.3 	"/>
	<g id="XMLID_5299_">
		<rect id="XMLID_5302_" x="533.9" y="1312.9" class="st2" width="9" height="11.1"/>
		<rect id="XMLID_5301_" x="533.9" y="1342.6" class="st2" width="9" height="11.1"/>
		<polygon id="XMLID_5300_" class="st2" points="533.9,1331.9 533.9,1327.8 542.9,1327.8 542.9,1338.9 533.9,1338.9 533.9,1334.8 
			532.4,1334.8 532.4,1331.9 		"/>
	</g>
	<polygon id="XMLID_5298_" class="st1" points="50.7,1288.9 44.4,1294.4 44.4,1283.4 50.7,1288.9 	"/>
	<rect id="XMLID_5297_" x="55.5" y="1268.5" class="st2" width="9" height="11.1"/>
	<rect id="XMLID_5296_" x="55.5" y="1298.1" class="st2" width="9" height="11.1"/>
	<polygon id="XMLID_5295_" class="st2" points="64.5,1287.4 64.5,1283.3 55.5,1283.3 55.5,1294.4 64.5,1294.4 64.5,1290.3 
		66,1290.3 66,1287.4 	"/>
	<text id="XMLID_5294_" transform="matrix(0.9276 0 0 1 557.9121 1296.3081)" class="st3 st4 st5">19</text>
	<text id="XMLID_5293_" transform="matrix(0.9276 0 0 1 15.2227 1296.3081)" class="st3 st4 st5">19</text>
	<polygon id="XMLID_5292_" class="st1" points="548,1288.9 554.3,1294.4 554.3,1283.4 548,1288.9 	"/>
	<g id="XMLID_5288_">
		<rect id="XMLID_5291_" x="533.9" y="1268.5" class="st2" width="9" height="11.1"/>
		<rect id="XMLID_5290_" x="533.9" y="1298.1" class="st2" width="9" height="11.1"/>
		<polygon id="XMLID_5289_" class="st2" points="533.9,1287.4 533.9,1283.3 542.9,1283.3 542.9,1294.4 533.9,1294.4 533.9,1290.3 
			532.4,1290.3 532.4,1287.4 		"/>
	</g>
	<polygon id="XMLID_5287_" class="st1" points="50.7,1244.4 44.4,1249.9 44.4,1238.9 50.7,1244.4 	"/>
	<rect id="XMLID_5286_" x="55.5" y="1224" class="st2" width="9" height="11.1"/>
	<rect id="XMLID_5285_" x="55.5" y="1253.7" class="st2" width="9" height="11.1"/>
	<polygon id="XMLID_5284_" class="st2" points="64.5,1243 64.5,1238.9 55.5,1238.9 55.5,1250 64.5,1250 64.5,1245.9 66,1245.9 
		66,1243 	"/>
	<text id="XMLID_5283_" transform="matrix(0.9276 0 0 1 557.9121 1251.8582)" class="st3 st4 st5">20</text>
	<text id="XMLID_5282_" transform="matrix(0.9276 0 0 1 15.2227 1251.8582)" class="st3 st4 st5">20</text>
	<polygon id="XMLID_5281_" class="st1" points="548,1244.4 554.3,1249.9 554.3,1238.9 548,1244.4 	"/>
	<g id="XMLID_5277_">
		<rect id="XMLID_5280_" x="533.9" y="1224" class="st2" width="9" height="11.1"/>
		<rect id="XMLID_5279_" x="533.9" y="1253.7" class="st2" width="9" height="11.1"/>
		<polygon id="XMLID_5278_" class="st2" points="533.9,1243 533.9,1238.9 542.9,1238.9 542.9,1250 533.9,1250 533.9,1245.9 
			532.4,1245.9 532.4,1243 		"/>
	</g>
	<polygon id="XMLID_5276_" class="st1" points="50.7,1200 44.4,1205.5 44.4,1194.5 50.7,1200 	"/>
	<rect id="XMLID_5275_" x="55.5" y="1179.6" class="st2" width="9" height="11.1"/>
	<rect id="XMLID_5274_" x="55.5" y="1209.2" class="st2" width="9" height="11.1"/>
	<polygon id="XMLID_5273_" class="st2" points="64.5,1198.5 64.5,1194.4 55.5,1194.4 55.5,1205.5 64.5,1205.5 64.5,1201.4 
		66,1201.4 66,1198.5 	"/>
	<text id="XMLID_5272_" transform="matrix(0.9276 0 0 1 557.9121 1207.4081)" class="st3 st4 st5">21</text>
	<text id="XMLID_5271_" transform="matrix(0.9276 0 0 1 15.2227 1207.4081)" class="st3 st4 st5">21</text>
	<polygon id="XMLID_5270_" class="st1" points="548,1200 554.3,1205.5 554.3,1194.5 548,1200 	"/>
	<g id="XMLID_5266_">
		<rect id="XMLID_5269_" x="533.9" y="1179.6" class="st2" width="9" height="11.1"/>
		<rect id="XMLID_5268_" x="533.9" y="1209.2" class="st2" width="9" height="11.1"/>
		<polygon id="XMLID_5267_" class="st2" points="533.9,1198.5 533.9,1194.4 542.9,1194.4 542.9,1205.5 533.9,1205.5 533.9,1201.4 
			532.4,1201.4 532.4,1198.5 		"/>
	</g>
	<polygon id="XMLID_5265_" class="st1" points="50.7,1155.5 44.4,1161 44.4,1150 50.7,1155.5 	"/>
	<rect id="XMLID_5264_" x="55.5" y="1135.1" class="st2" width="9" height="11.1"/>
	<rect id="XMLID_5263_" x="55.5" y="1164.8" class="st2" width="9" height="11.1"/>
	<polygon id="XMLID_5262_" class="st2" points="64.5,1154.1 64.5,1150 55.5,1150 55.5,1161.1 64.5,1161.1 64.5,1157 66,1157 
		66,1154.1 	"/>
	<text id="XMLID_5261_" transform="matrix(0.9276 0 0 1 557.9121 1162.958)" class="st3 st4 st5">22</text>
	<text id="XMLID_5260_" transform="matrix(0.9276 0 0 1 15.2227 1162.958)" class="st3 st4 st5">22</text>
	<polygon id="XMLID_5259_" class="st1" points="548,1155.5 554.3,1161 554.3,1150 548,1155.5 	"/>
	<g id="XMLID_5255_">
		<rect id="XMLID_5258_" x="533.9" y="1135.1" class="st2" width="9" height="11.1"/>
		<rect id="XMLID_5257_" x="533.9" y="1164.8" class="st2" width="9" height="11.1"/>
		<polygon id="XMLID_5256_" class="st2" points="533.9,1154.1 533.9,1150 542.9,1150 542.9,1161.1 533.9,1161.1 533.9,1157 
			532.4,1157 532.4,1154.1 		"/>
	</g>
	<polygon id="XMLID_5254_" class="st1" points="50.7,1111.1 44.4,1116.6 44.4,1105.6 50.7,1111.1 	"/>
	<rect id="XMLID_5253_" x="55.5" y="1090.7" class="st2" width="9" height="11.1"/>
	<rect id="XMLID_5252_" x="55.5" y="1120.3" class="st2" width="9" height="11.1"/>
	<polygon id="XMLID_5251_" class="st2" points="64.5,1109.6 64.5,1105.5 55.5,1105.5 55.5,1116.6 64.5,1116.6 64.5,1112.5 
		66,1112.5 66,1109.6 	"/>
	<text id="XMLID_5250_" transform="matrix(0.9276 0 0 1 557.9121 1118.5081)" class="st3 st4 st5">23</text>
	<text id="XMLID_5249_" transform="matrix(0.9276 0 0 1 15.2227 1118.5081)" class="st3 st4 st5">23</text>
	<polygon id="XMLID_5248_" class="st1" points="548,1111.1 554.3,1116.6 554.3,1105.6 548,1111.1 	"/>
	<g id="XMLID_5244_">
		<rect id="XMLID_5247_" x="533.9" y="1090.7" class="st2" width="9" height="11.1"/>
		<rect id="XMLID_5246_" x="533.9" y="1120.3" class="st2" width="9" height="11.1"/>
		<polygon id="XMLID_5245_" class="st2" points="533.9,1109.6 533.9,1105.5 542.9,1105.5 542.9,1116.6 533.9,1116.6 533.9,1112.5 
			532.4,1112.5 532.4,1109.6 		"/>
	</g>
	<polygon id="XMLID_5243_" class="st1" points="50.7,1066.6 44.4,1072.1 44.4,1061.1 50.7,1066.6 	"/>
	<rect id="XMLID_5242_" x="55.5" y="1046.2" class="st2" width="9" height="11.1"/>
	<rect id="XMLID_5241_" x="55.5" y="1075.9" class="st2" width="9" height="11.1"/>
	<polygon id="XMLID_5240_" class="st2" points="64.5,1065.2 64.5,1061.1 55.5,1061.1 55.5,1072.2 64.5,1072.2 64.5,1068.1 
		66,1068.1 66,1065.2 	"/>
	<text id="XMLID_5239_" transform="matrix(0.9276 0 0 1 557.9121 1074.0581)" class="st3 st4 st5">24</text>
	<text id="XMLID_5238_" transform="matrix(0.9276 0 0 1 15.2227 1074.0581)" class="st3 st4 st5">24</text>
	<polygon id="XMLID_5237_" class="st1" points="548,1066.6 554.3,1072.1 554.3,1061.1 548,1066.6 	"/>
	<g id="XMLID_5233_">
		<rect id="XMLID_5236_" x="533.9" y="1046.2" class="st2" width="9" height="11.1"/>
		<rect id="XMLID_5235_" x="533.9" y="1075.9" class="st2" width="9" height="11.1"/>
		<polygon id="XMLID_5234_" class="st2" points="533.9,1065.2 533.9,1061.1 542.9,1061.1 542.9,1072.2 533.9,1072.2 533.9,1068.1 
			532.4,1068.1 532.4,1065.2 		"/>
	</g>
	<polygon id="XMLID_5232_" class="st1" points="50.7,1022.2 44.4,1027.7 44.4,1016.7 50.7,1022.2 	"/>
	<rect id="XMLID_5231_" x="55.5" y="1001.8" class="st2" width="9" height="11.1"/>
	<rect id="XMLID_5230_" x="55.5" y="1031.4" class="st2" width="9" height="11.1"/>
	<polygon id="XMLID_5229_" class="st2" points="64.5,1020.7 64.5,1016.6 55.5,1016.6 55.5,1027.7 64.5,1027.7 64.5,1023.6 
		66,1023.6 66,1020.7 	"/>
	<text id="XMLID_5228_" transform="matrix(0.9276 0 0 1 557.9121 1029.6082)" class="st3 st4 st5">25</text>
	<text id="XMLID_5227_" transform="matrix(0.9276 0 0 1 15.2227 1029.6082)" class="st3 st4 st5">25</text>
	<polygon id="XMLID_5226_" class="st1" points="548,1022.2 554.3,1027.7 554.3,1016.7 548,1022.2 	"/>
	<g id="XMLID_5222_">
		<rect id="XMLID_5225_" x="533.9" y="1001.8" class="st2" width="9" height="11.1"/>
		<rect id="XMLID_5224_" x="533.9" y="1031.4" class="st2" width="9" height="11.1"/>
		<polygon id="XMLID_5223_" class="st2" points="533.9,1020.7 533.9,1016.6 542.9,1016.6 542.9,1027.7 533.9,1027.7 533.9,1023.6 
			532.4,1023.6 532.4,1020.7 		"/>
	</g>
	<polygon id="XMLID_5221_" class="st1" points="50.7,977.7 44.4,983.2 44.4,972.2 50.7,977.7 	"/>
	<rect id="XMLID_5220_" x="55.5" y="957.3" class="st2" width="9" height="11.1"/>
	<rect id="XMLID_5219_" x="55.5" y="987" class="st2" width="9" height="11.1"/>
	<polygon id="XMLID_5218_" class="st2" points="64.5,976.3 64.5,972.2 55.5,972.2 55.5,983.3 64.5,983.3 64.5,979.2 66,979.2 
		66,976.3 	"/>
	<text id="XMLID_5217_" transform="matrix(0.9276 0 0 1 557.9121 985.1581)" class="st3 st4 st5">26</text>
	<text id="XMLID_5216_" transform="matrix(0.9276 0 0 1 15.2227 985.1581)" class="st3 st4 st5">26</text>
	<polygon id="XMLID_5215_" class="st1" points="548,977.7 554.3,983.2 554.3,972.2 548,977.7 	"/>
	<g id="XMLID_5211_">
		<rect id="XMLID_5214_" x="533.9" y="957.3" class="st2" width="9" height="11.1"/>
		<rect id="XMLID_5213_" x="533.9" y="987" class="st2" width="9" height="11.1"/>
		<polygon id="XMLID_5212_" class="st2" points="533.9,976.3 533.9,972.2 542.9,972.2 542.9,983.3 533.9,983.3 533.9,979.2 
			532.4,979.2 532.4,976.3 		"/>
	</g>
	<polygon id="XMLID_5210_" class="st1" points="50.7,933.3 44.4,938.8 44.4,927.8 50.7,933.3 	"/>
	<rect id="XMLID_5209_" x="55.5" y="912.9" class="st2" width="9" height="11.1"/>
	<rect id="XMLID_5208_" x="55.5" y="942.5" class="st2" width="9" height="11.1"/>
	<polygon id="XMLID_5207_" class="st2" points="64.5,931.8 64.5,927.7 55.5,927.7 55.5,938.8 64.5,938.8 64.5,934.7 66,934.7 
		66,931.8 	"/>
	<text id="XMLID_5206_" transform="matrix(0.9276 0 0 1 557.9121 940.7081)" class="st3 st4 st5">27</text>
	<text id="XMLID_5205_" transform="matrix(0.9276 0 0 1 15.2227 940.7081)" class="st3 st4 st5">27</text>
	<polygon id="XMLID_5204_" class="st1" points="548,933.3 554.3,938.8 554.3,927.8 548,933.3 	"/>
	<g id="XMLID_5200_">
		<rect id="XMLID_5203_" x="533.9" y="912.9" class="st2" width="9" height="11.1"/>
		<rect id="XMLID_5202_" x="533.9" y="942.5" class="st2" width="9" height="11.1"/>
		<polygon id="XMLID_5201_" class="st2" points="533.9,931.8 533.9,927.7 542.9,927.7 542.9,938.8 533.9,938.8 533.9,934.7 
			532.4,934.7 532.4,931.8 		"/>
	</g>
	<polygon id="XMLID_5199_" class="st1" points="50.7,888.8 44.4,894.3 44.4,883.3 50.7,888.8 	"/>
	<rect id="XMLID_5198_" x="55.5" y="868.4" class="st2" width="9" height="11.1"/>
	<rect id="XMLID_5197_" x="55.5" y="898.1" class="st2" width="9" height="11.1"/>
	<polygon id="XMLID_5196_" class="st2" points="64.5,887.4 64.5,883.3 55.5,883.3 55.5,894.4 64.5,894.4 64.5,890.3 66,890.3 
		66,887.4 	"/>
	<text id="XMLID_5195_" transform="matrix(0.9276 0 0 1 557.9121 896.2582)" class="st3 st4 st5">28</text>
	<text id="XMLID_5194_" transform="matrix(0.9276 0 0 1 15.2227 896.2582)" class="st3 st4 st5">28</text>
	<polygon id="XMLID_5193_" class="st1" points="548,888.8 554.3,894.3 554.3,883.3 548,888.8 	"/>
	<g id="XMLID_5189_">
		<rect id="XMLID_5192_" x="533.9" y="868.4" class="st2" width="9" height="11.1"/>
		<rect id="XMLID_5191_" x="533.9" y="898.1" class="st2" width="9" height="11.1"/>
		<polygon id="XMLID_5190_" class="st2" points="533.9,887.4 533.9,883.3 542.9,883.3 542.9,894.4 533.9,894.4 533.9,890.3 
			532.4,890.3 532.4,887.4 		"/>
	</g>
	<polygon id="XMLID_5188_" class="st1" points="50.7,844.4 44.4,849.9 44.4,838.9 50.7,844.4 	"/>
	<rect id="XMLID_5187_" x="55.5" y="824" class="st2" width="9" height="11.1"/>
	<rect id="XMLID_5186_" x="55.5" y="853.6" class="st2" width="9" height="11.1"/>
	<polygon id="XMLID_5185_" class="st2" points="64.5,842.9 64.5,838.8 55.5,838.8 55.5,849.9 64.5,849.9 64.5,845.8 66,845.8 
		66,842.9 	"/>
	<text id="XMLID_5184_" transform="matrix(0.9276 0 0 1 557.9121 851.8082)" class="st3 st4 st5">29</text>
	<text id="XMLID_5183_" transform="matrix(0.9276 0 0 1 15.2227 851.8082)" class="st3 st4 st5">29</text>
	<polygon id="XMLID_5182_" class="st1" points="548,844.4 554.3,849.9 554.3,838.9 548,844.4 	"/>
	<g id="XMLID_5178_">
		<rect id="XMLID_5181_" x="533.9" y="824" class="st2" width="9" height="11.1"/>
		<rect id="XMLID_5180_" x="533.9" y="853.6" class="st2" width="9" height="11.1"/>
		<polygon id="XMLID_5179_" class="st2" points="533.9,842.9 533.9,838.8 542.9,838.8 542.9,849.9 533.9,849.9 533.9,845.8 
			532.4,845.8 532.4,842.9 		"/>
	</g>
	<polygon id="XMLID_5177_" class="st1" points="50.7,799.9 44.4,805.4 44.4,794.4 50.7,799.9 	"/>
	<rect id="XMLID_5176_" x="55.5" y="779.5" class="st2" width="9" height="11.1"/>
	<rect id="XMLID_5175_" x="55.5" y="809.2" class="st2" width="9" height="11.1"/>
	<polygon id="XMLID_5174_" class="st2" points="64.5,798.5 64.5,794.4 55.5,794.4 55.5,805.5 64.5,805.5 64.5,801.4 66,801.4 
		66,798.5 	"/>
	<text id="XMLID_5173_" transform="matrix(0.9276 0 0 1 557.9121 807.3583)" class="st3 st4 st5">30</text>
	<text id="XMLID_5172_" transform="matrix(0.9276 0 0 1 15.2227 807.3583)" class="st3 st4 st5">30</text>
	<polygon id="XMLID_5171_" class="st1" points="548,799.9 554.3,805.4 554.3,794.4 548,799.9 	"/>
	<g id="XMLID_5167_">
		<rect id="XMLID_5170_" x="533.9" y="779.5" class="st2" width="9" height="11.1"/>
		<rect id="XMLID_5169_" x="533.9" y="809.2" class="st2" width="9" height="11.1"/>
		<polygon id="XMLID_5168_" class="st2" points="533.9,798.5 533.9,794.4 542.9,794.4 542.9,805.5 533.9,805.5 533.9,801.4 
			532.4,801.4 532.4,798.5 		"/>
	</g>
	<polygon id="XMLID_5166_" class="st1" points="50.7,755.5 44.4,761 44.4,750 50.7,755.5 	"/>
	<rect id="XMLID_5165_" x="55.5" y="735.1" class="st2" width="9" height="11.1"/>
	<rect id="XMLID_5164_" x="55.5" y="764.7" class="st2" width="9" height="11.1"/>
	<polygon id="XMLID_5163_" class="st2" points="64.5,754 64.5,749.9 55.5,749.9 55.5,761 64.5,761 64.5,756.9 66,756.9 66,754 	"/>
	<text id="XMLID_5162_" transform="matrix(0.9276 0 0 1 557.9121 762.9083)" class="st3 st4 st5">31</text>
	<text id="XMLID_5161_" transform="matrix(0.9276 0 0 1 15.2227 762.9083)" class="st3 st4 st5">31</text>
	<polygon id="XMLID_5160_" class="st1" points="548,755.5 554.3,761 554.3,750 548,755.5 	"/>
	<g id="XMLID_5156_">
		<rect id="XMLID_5159_" x="533.9" y="735.1" class="st2" width="9" height="11.1"/>
		<rect id="XMLID_5158_" x="533.9" y="764.7" class="st2" width="9" height="11.1"/>
		<polygon id="XMLID_5157_" class="st2" points="533.9,754 533.9,749.9 542.9,749.9 542.9,761 533.9,761 533.9,756.9 532.4,756.9 
			532.4,754 		"/>
	</g>
	<polygon id="XMLID_5155_" class="st1" points="50.7,711 44.4,716.5 44.4,705.5 50.7,711 	"/>
	<rect id="XMLID_5154_" x="55.5" y="690.6" class="st2" width="9" height="11.1"/>
	<rect id="XMLID_5153_" x="55.5" y="720.3" class="st2" width="9" height="11.1"/>
	<polygon id="XMLID_5152_" class="st2" points="64.5,709.6 64.5,705.5 55.5,705.5 55.5,716.6 64.5,716.6 64.5,712.5 66,712.5 
		66,709.6 	"/>
	<text id="XMLID_5151_" transform="matrix(0.9276 0 0 1 557.9121 718.4584)" class="st3 st4 st5">32</text>
	<text id="XMLID_5150_" transform="matrix(0.9276 0 0 1 15.2227 718.4584)" class="st3 st4 st5">32</text>
	<polygon id="XMLID_5149_" class="st1" points="548,711 554.3,716.5 554.3,705.5 548,711 	"/>
	<g id="XMLID_5145_">
		<rect id="XMLID_5148_" x="533.9" y="690.6" class="st2" width="9" height="11.1"/>
		<rect id="XMLID_5147_" x="533.9" y="720.3" class="st2" width="9" height="11.1"/>
		<polygon id="XMLID_5146_" class="st2" points="533.9,709.6 533.9,705.5 542.9,705.5 542.9,716.6 533.9,716.6 533.9,712.5 
			532.4,712.5 532.4,709.6 		"/>
	</g>
	<polygon id="XMLID_5144_" class="st1" points="50.7,666.6 44.4,672.1 44.4,661.1 50.7,666.6 	"/>
	<rect id="XMLID_5143_" x="55.5" y="646.2" class="st2" width="9" height="11.1"/>
	<rect id="XMLID_5142_" x="55.5" y="675.8" class="st2" width="9" height="11.1"/>
	<polygon id="XMLID_5141_" class="st2" points="64.5,665.1 64.5,661 55.5,661 55.5,672.1 64.5,672.1 64.5,668 66,668 66,665.1 	"/>
	<text id="XMLID_5140_" transform="matrix(0.9276 0 0 1 557.9121 674.0084)" class="st3 st4 st5">33</text>
	<text id="XMLID_5139_" transform="matrix(0.9276 0 0 1 15.2227 674.0084)" class="st3 st4 st5">33</text>
	<polygon id="XMLID_5138_" class="st1" points="548,666.6 554.3,672.1 554.3,661.1 548,666.6 	"/>
	<g id="XMLID_5134_">
		<rect id="XMLID_5137_" x="533.9" y="646.2" class="st2" width="9" height="11.1"/>
		<rect id="XMLID_5136_" x="533.9" y="675.8" class="st2" width="9" height="11.1"/>
		<polygon id="XMLID_5135_" class="st2" points="533.9,665.1 533.9,661 542.9,661 542.9,672.1 533.9,672.1 533.9,668 532.4,668 
			532.4,665.1 		"/>
	</g>
	<polygon id="XMLID_5133_" class="st1" points="50.7,622.1 44.4,627.6 44.4,616.6 50.7,622.1 	"/>
	<rect id="XMLID_5132_" x="55.5" y="601.7" class="st2" width="9" height="11.1"/>
	<rect id="XMLID_5131_" x="55.5" y="631.4" class="st2" width="9" height="11.1"/>
	<polygon id="XMLID_5130_" class="st2" points="64.5,620.7 64.5,616.6 55.5,616.6 55.5,627.7 64.5,627.7 64.5,623.6 66,623.6 
		66,620.7 	"/>
	<text id="XMLID_5129_" transform="matrix(0.9276 0 0 1 557.9121 629.5585)" class="st3 st4 st5">34</text>
	<text id="XMLID_5128_" transform="matrix(0.9276 0 0 1 15.2227 629.5585)" class="st3 st4 st5">34</text>
	<polygon id="XMLID_5127_" class="st1" points="548,622.1 554.3,627.6 554.3,616.6 548,622.1 	"/>
	<g id="XMLID_5123_">
		<rect id="XMLID_5126_" x="533.9" y="601.7" class="st2" width="9" height="11.1"/>
		<rect id="XMLID_5125_" x="533.9" y="631.4" class="st2" width="9" height="11.1"/>
		<polygon id="XMLID_5124_" class="st2" points="533.9,620.7 533.9,616.6 542.9,616.6 542.9,627.7 533.9,627.7 533.9,623.6 
			532.4,623.6 532.4,620.7 		"/>
	</g>
	<polygon id="XMLID_5122_" class="st1" points="50.7,577.7 44.4,583.2 44.4,572.2 50.7,577.7 	"/>
	<rect id="XMLID_5121_" x="55.5" y="557.3" class="st2" width="9" height="11.1"/>
	<rect id="XMLID_5120_" x="55.5" y="586.9" class="st2" width="9" height="11.1"/>
	<polygon id="XMLID_5119_" class="st2" points="64.5,576.2 64.5,572.1 55.5,572.1 55.5,583.2 64.5,583.2 64.5,579.1 66,579.1 
		66,576.2 	"/>
	<text id="XMLID_5118_" transform="matrix(0.9276 0 0 1 557.9121 585.1085)" class="st3 st4 st5">35</text>
	<text id="XMLID_5117_" transform="matrix(0.9276 0 0 1 15.2227 585.1085)" class="st3 st4 st5">35</text>
	<polygon id="XMLID_5116_" class="st1" points="548,577.7 554.3,583.2 554.3,572.2 548,577.7 	"/>
	<g id="XMLID_5112_">
		<rect id="XMLID_5115_" x="533.9" y="557.3" class="st2" width="9" height="11.1"/>
		<rect id="XMLID_5114_" x="533.9" y="586.9" class="st2" width="9" height="11.1"/>
		<polygon id="XMLID_5113_" class="st2" points="533.9,576.2 533.9,572.1 542.9,572.1 542.9,583.2 533.9,583.2 533.9,579.1 
			532.4,579.1 532.4,576.2 		"/>
	</g>
	<polygon id="XMLID_5111_" class="st1" points="50.7,533.2 44.4,538.7 44.4,527.7 50.7,533.2 	"/>
	<rect id="XMLID_5110_" x="55.5" y="512.8" class="st2" width="9" height="11.1"/>
	<rect id="XMLID_5109_" x="55.5" y="542.5" class="st2" width="9" height="11.1"/>
	<polygon id="XMLID_5108_" class="st2" points="64.5,531.8 64.5,527.7 55.5,527.7 55.5,538.8 64.5,538.8 64.5,534.7 66,534.7 
		66,531.8 	"/>
	<text id="XMLID_5107_" transform="matrix(0.9276 0 0 1 557.9121 540.6586)" class="st3 st4 st5">36</text>
	<text id="XMLID_5106_" transform="matrix(0.9276 0 0 1 15.2227 540.6586)" class="st3 st4 st5">36</text>
	<polygon id="XMLID_5105_" class="st1" points="548,533.2 554.3,538.7 554.3,527.7 548,533.2 	"/>
	<g id="XMLID_5101_">
		<rect id="XMLID_5104_" x="533.9" y="512.8" class="st2" width="9" height="11.1"/>
		<rect id="XMLID_5103_" x="533.9" y="542.5" class="st2" width="9" height="11.1"/>
		<polygon id="XMLID_5102_" class="st2" points="533.9,531.8 533.9,527.7 542.9,527.7 542.9,538.8 533.9,538.8 533.9,534.7 
			532.4,534.7 532.4,531.8 		"/>
	</g>
	<polygon id="XMLID_5100_" class="st1" points="50.7,488.8 44.4,494.3 44.4,483.3 50.7,488.8 	"/>
	<rect id="XMLID_5099_" x="55.5" y="468.4" class="st2" width="9" height="11.1"/>
	<rect id="XMLID_5098_" x="55.5" y="498" class="st2" width="9" height="11.1"/>
	<polygon id="XMLID_5097_" class="st2" points="64.5,487.3 64.5,483.2 55.5,483.2 55.5,494.3 64.5,494.3 64.5,490.2 66,490.2 
		66,487.3 	"/>
	<text id="XMLID_5096_" transform="matrix(0.9276 0 0 1 557.9121 496.2086)" class="st3 st4 st5">37</text>
	<text id="XMLID_5095_" transform="matrix(0.9276 0 0 1 15.2227 496.2086)" class="st3 st4 st5">37</text>
	<polygon id="XMLID_5094_" class="st1" points="548,488.8 554.3,494.3 554.3,483.3 548,488.8 	"/>
	<g id="XMLID_5090_">
		<rect id="XMLID_5093_" x="533.9" y="468.4" class="st2" width="9" height="11.1"/>
		<rect id="XMLID_5092_" x="533.9" y="498" class="st2" width="9" height="11.1"/>
		<polygon id="XMLID_5091_" class="st2" points="533.9,487.3 533.9,483.2 542.9,483.2 542.9,494.3 533.9,494.3 533.9,490.2 
			532.4,490.2 532.4,487.3 		"/>
	</g>
	<polygon id="XMLID_5089_" class="st1" points="50.7,444.3 44.4,449.8 44.4,438.8 50.7,444.3 	"/>
	<rect id="XMLID_5088_" x="55.5" y="423.9" class="st2" width="9" height="11.1"/>
	<rect id="XMLID_5087_" x="55.5" y="453.6" class="st2" width="9" height="11.1"/>
	<polygon id="XMLID_5086_" class="st2" points="64.5,442.9 64.5,438.8 55.5,438.8 55.5,449.9 64.5,449.9 64.5,445.8 66,445.8 
		66,442.9 	"/>
	<text id="XMLID_5085_" transform="matrix(0.9276 0 0 1 557.9121 451.7587)" class="st3 st4 st5">38</text>
	<text id="XMLID_5084_" transform="matrix(0.9276 0 0 1 15.2227 451.7587)" class="st3 st4 st5">38</text>
	<polygon id="XMLID_5083_" class="st1" points="548,444.3 554.3,449.8 554.3,438.8 548,444.3 	"/>
	<g id="XMLID_5079_">
		<rect id="XMLID_5082_" x="533.9" y="423.9" class="st2" width="9" height="11.1"/>
		<rect id="XMLID_5081_" x="533.9" y="453.6" class="st2" width="9" height="11.1"/>
		<polygon id="XMLID_5080_" class="st2" points="533.9,442.9 533.9,438.8 542.9,438.8 542.9,449.9 533.9,449.9 533.9,445.8 
			532.4,445.8 532.4,442.9 		"/>
	</g>
	<polygon id="XMLID_5078_" class="st1" points="50.7,399.9 44.4,405.4 44.4,394.4 50.7,399.9 	"/>
	<rect id="XMLID_5077_" x="55.5" y="379.5" class="st2" width="9" height="11.1"/>
	<rect id="XMLID_5076_" x="55.5" y="409.1" class="st2" width="9" height="11.1"/>
	<polygon id="XMLID_5075_" class="st2" points="64.5,398.4 64.5,394.3 55.5,394.3 55.5,405.4 64.5,405.4 64.5,401.3 66,401.3 
		66,398.4 	"/>
	<text id="XMLID_5074_" transform="matrix(0.9276 0 0 1 557.9121 407.3088)" class="st3 st4 st5">39</text>
	<text id="XMLID_5073_" transform="matrix(0.9276 0 0 1 15.2227 407.3088)" class="st3 st4 st5">39</text>
	<polygon id="XMLID_5072_" class="st1" points="548,399.9 554.3,405.4 554.3,394.4 548,399.9 	"/>
	<g id="XMLID_5068_">
		<rect id="XMLID_5071_" x="533.9" y="379.5" class="st2" width="9" height="11.1"/>
		<rect id="XMLID_5070_" x="533.9" y="409.1" class="st2" width="9" height="11.1"/>
		<polygon id="XMLID_5069_" class="st2" points="533.9,398.4 533.9,394.3 542.9,394.3 542.9,405.4 533.9,405.4 533.9,401.3 
			532.4,401.3 532.4,398.4 		"/>
	</g>
	<polygon id="XMLID_5067_" class="st1" points="50.7,355.4 44.4,360.9 44.4,349.9 50.7,355.4 	"/>
	<rect id="XMLID_5066_" x="55.5" y="335" class="st2" width="9" height="11.1"/>
	<rect id="XMLID_5065_" x="55.5" y="364.7" class="st2" width="9" height="11.1"/>
	<polygon id="XMLID_5064_" class="st2" points="64.5,354 64.5,349.9 55.5,349.9 55.5,361 64.5,361 64.5,356.9 66,356.9 66,354 	"/>
	<text id="XMLID_5063_" transform="matrix(0.9276 0 0 1 557.9121 362.8589)" class="st3 st4 st5">40</text>
	<text id="XMLID_5062_" transform="matrix(0.9276 0 0 1 15.2227 362.8589)" class="st3 st4 st5">40</text>
	<polygon id="XMLID_5061_" class="st1" points="548,355.4 554.3,360.9 554.3,349.9 548,355.4 	"/>
	<g id="XMLID_5057_">
		<rect id="XMLID_5060_" x="533.9" y="335" class="st2" width="9" height="11.1"/>
		<rect id="XMLID_5059_" x="533.9" y="364.7" class="st2" width="9" height="11.1"/>
		<polygon id="XMLID_5058_" class="st2" points="533.9,354 533.9,349.9 542.9,349.9 542.9,361 533.9,361 533.9,356.9 532.4,356.9 
			532.4,354 		"/>
	</g>
	<polygon id="XMLID_5056_" class="st1" points="50.7,311 44.4,316.5 44.4,305.5 50.7,311 	"/>
	<rect id="XMLID_5055_" x="55.5" y="290.6" class="st2" width="9" height="11.1"/>
	<rect id="XMLID_5054_" x="55.5" y="320.2" class="st2" width="9" height="11.1"/>
	<polygon id="XMLID_5053_" class="st2" points="64.5,309.5 64.5,305.4 55.5,305.4 55.5,316.5 64.5,316.5 64.5,312.4 66,312.4 
		66,309.5 	"/>
	<text id="XMLID_5052_" transform="matrix(0.9276 0 0 1 557.9121 318.4089)" class="st3 st4 st5">41</text>
	<text id="XMLID_5051_" transform="matrix(0.9276 0 0 1 15.2227 318.4089)" class="st3 st4 st5">41</text>
	<polygon id="XMLID_5050_" class="st1" points="548,311 554.3,316.5 554.3,305.5 548,311 	"/>
	<g id="XMLID_5046_">
		<rect id="XMLID_5049_" x="533.9" y="290.6" class="st2" width="9" height="11.1"/>
		<rect id="XMLID_5048_" x="533.9" y="320.2" class="st2" width="9" height="11.1"/>
		<polygon id="XMLID_5047_" class="st2" points="533.9,309.5 533.9,305.4 542.9,305.4 542.9,316.5 533.9,316.5 533.9,312.4 
			532.4,312.4 532.4,309.5 		"/>
	</g>
	<polygon id="XMLID_5045_" class="st1" points="50.7,266.5 44.4,272 44.4,261 50.7,266.5 	"/>
	<rect id="XMLID_5044_" x="55.5" y="246.1" class="st2" width="9" height="11.1"/>
	<rect id="XMLID_5043_" x="55.5" y="275.8" class="st2" width="9" height="11.1"/>
	<polygon id="XMLID_5042_" class="st2" points="64.5,265.1 64.5,261 55.5,261 55.5,272.1 64.5,272.1 64.5,268 66,268 66,265.1 	"/>
	<text id="XMLID_5041_" transform="matrix(0.9276 0 0 1 557.9121 273.959)" class="st3 st4 st5">42</text>
	<text id="XMLID_5040_" transform="matrix(0.9276 0 0 1 15.2227 273.959)" class="st3 st4 st5">42</text>
	<polygon id="XMLID_5039_" class="st1" points="548,266.5 554.3,272 554.3,261 548,266.5 	"/>
	<g id="XMLID_5035_">
		<rect id="XMLID_5038_" x="533.9" y="246.1" class="st2" width="9" height="11.1"/>
		<rect id="XMLID_5037_" x="533.9" y="275.8" class="st2" width="9" height="11.1"/>
		<polygon id="XMLID_5036_" class="st2" points="533.9,265.1 533.9,261 542.9,261 542.9,272.1 533.9,272.1 533.9,268 532.4,268 
			532.4,265.1 		"/>
	</g>
	<polygon id="XMLID_5034_" class="st1" points="50.7,222.1 44.4,227.6 44.4,216.6 50.7,222.1 	"/>
	<rect id="XMLID_5033_" x="55.5" y="201.7" class="st2" width="9" height="11.1"/>
	<rect id="XMLID_5032_" x="55.5" y="231.3" class="st2" width="9" height="11.1"/>
	<polygon id="XMLID_5031_" class="st2" points="64.5,220.6 64.5,216.5 55.5,216.5 55.5,227.6 64.5,227.6 64.5,223.5 66,223.5 
		66,220.6 	"/>
	<text id="XMLID_5030_" transform="matrix(0.9276 0 0 1 557.9121 229.509)" class="st3 st4 st5">43</text>
	<text id="XMLID_5029_" transform="matrix(0.9276 0 0 1 15.2227 229.509)" class="st3 st4 st5">43</text>
	<polygon id="XMLID_5028_" class="st1" points="548,222.1 554.3,227.6 554.3,216.6 548,222.1 	"/>
	<g id="XMLID_5024_">
		<rect id="XMLID_5027_" x="533.9" y="201.7" class="st2" width="9" height="11.1"/>
		<rect id="XMLID_5026_" x="533.9" y="231.3" class="st2" width="9" height="11.1"/>
		<polygon id="XMLID_5025_" class="st2" points="533.9,220.6 533.9,216.5 542.9,216.5 542.9,227.6 533.9,227.6 533.9,223.5 
			532.4,223.5 532.4,220.6 		"/>
	</g>
	<polygon id="XMLID_5023_" class="st1" points="50.7,177.6 44.4,183.1 44.4,172.1 50.7,177.6 	"/>
	<rect id="XMLID_5022_" x="55.5" y="157.2" class="st2" width="9" height="11.1"/>
	<rect id="XMLID_5021_" x="55.5" y="186.9" class="st2" width="9" height="11.1"/>
	<polygon id="XMLID_5020_" class="st2" points="64.5,176.2 64.5,172.1 55.5,172.1 55.5,183.2 64.5,183.2 64.5,179.1 66,179.1 
		66,176.2 	"/>
	<text id="XMLID_5019_" transform="matrix(0.9276 0 0 1 557.9121 185.0591)" class="st3 st4 st5">44</text>
	<text id="XMLID_5018_" transform="matrix(0.9276 0 0 1 15.2227 185.0591)" class="st3 st4 st5">44</text>
	<polygon id="XMLID_5017_" class="st1" points="548,177.6 554.3,183.1 554.3,172.1 548,177.6 	"/>
	<g id="XMLID_5013_">
		<rect id="XMLID_5016_" x="533.9" y="157.2" class="st2" width="9" height="11.1"/>
		<rect id="XMLID_5015_" x="533.9" y="186.9" class="st2" width="9" height="11.1"/>
		<polygon id="XMLID_5014_" class="st2" points="533.9,176.2 533.9,172.1 542.9,172.1 542.9,183.2 533.9,183.2 533.9,179.1 
			532.4,179.1 532.4,176.2 		"/>
	</g>
	<polygon id="XMLID_5012_" class="st1" points="50.7,133.2 44.4,138.7 44.4,127.7 50.7,133.2 	"/>
	<rect id="XMLID_5011_" x="55.5" y="112.8" class="st2" width="9" height="11.1"/>
	<rect id="XMLID_5010_" x="55.5" y="142.4" class="st2" width="9" height="11.1"/>
	<polygon id="XMLID_5009_" class="st2" points="64.5,131.7 64.5,127.6 55.5,127.6 55.5,138.7 64.5,138.7 64.5,134.6 66,134.6 
		66,131.7 	"/>
	<text id="XMLID_5007_" transform="matrix(0.9276 0 0 1 557.9121 140.6091)" class="st3 st4 st5">45</text>
	<text id="XMLID_5006_" transform="matrix(0.9276 0 0 1 15.2227 140.6091)" class="st3 st4 st5">45</text>
	<polygon id="XMLID_5004_" class="st1" points="548,133.2 554.3,138.7 554.3,127.7 548,133.2 	"/>
	<g id="XMLID_5000_">
		<rect id="XMLID_5003_" x="533.9" y="112.8" class="st2" width="9" height="11.1"/>
		<rect id="XMLID_5002_" x="533.9" y="142.4" class="st2" width="9" height="11.1"/>
		<polygon id="XMLID_5001_" class="st2" points="533.9,131.7 533.9,127.6 542.9,127.6 542.9,138.7 533.9,138.7 533.9,134.6 
			532.4,134.6 532.4,131.7 		"/>
	</g>
	<polygon id="XMLID_4999_" class="st1" points="50.7,88.7 44.4,94.2 44.4,83.2 50.7,88.7 	"/>
	<rect id="XMLID_4998_" x="55.5" y="68.3" class="st2" width="9" height="11.1"/>
	<rect id="XMLID_4997_" x="55.5" y="98" class="st2" width="9" height="11.1"/>
	<polygon id="XMLID_4996_" class="st2" points="64.5,87.3 64.5,83.2 55.5,83.2 55.5,94.3 64.5,94.3 64.5,90.2 66,90.2 66,87.3 	"/>
	<text id="XMLID_4995_" transform="matrix(0.9276 0 0 1 557.9121 96.1592)" class="st3 st4 st5">46</text>
	<text id="XMLID_4994_" transform="matrix(0.9276 0 0 1 15.2227 96.1592)" class="st3 st4 st5">46</text>
	<polygon id="XMLID_4993_" class="st1" points="548,88.7 554.3,94.2 554.3,83.2 548,88.7 	"/>
	<g id="XMLID_4989_">
		<rect id="XMLID_4992_" x="533.9" y="68.3" class="st2" width="9" height="11.1"/>
		<rect id="XMLID_4991_" x="533.9" y="98" class="st2" width="9" height="11.1"/>
		<polygon id="XMLID_4990_" class="st2" points="533.9,87.3 533.9,83.2 542.9,83.2 542.9,94.3 533.9,94.3 533.9,90.2 532.4,90.2 
			532.4,87.3 		"/>
	</g>
</g>
</svg>
