<?xml version="1.0" encoding="utf-8"?>
<!-- Generator: Adobe Illustrator 19.0.0, SVG Export Plug-In . SVG Version: 6.00 Build 0)  -->
<svg version="1.1" id="图层_1" xmlns="http://www.w3.org/2000/svg" xmlns:xlink="http://www.w3.org/1999/xlink" x="0px" y="0px"
	 width="600px" height="2222.1px" viewBox="0 0 600 2222.1" style="enable-background:new 0 0 600 2222.1;" xml:space="preserve">
<style type="text/css">
	.st0{fill:url(#XMLID_3_);}
	.st1{fill:#FFFFFF;stroke:#3E3A39;stroke-width:0.7;stroke-miterlimit:10;}
	.st2{fill:#211613;}
	.st3{fill:#FFFFFF;}
	.st4{font-family:'MicrosoftYaHei';}
	.st5{font-size:24.6945px;}
</style>
<linearGradient id="XMLID_3_" gradientUnits="userSpaceOnUse" x1="-123.2847" y1="1286.6906" x2="476.7153" y2="1286.6906" gradientTransform="matrix(1 0 0 -1 123.2847 2397.7656)">
	<stop  offset="0" style="stop-color:#55606A"/>
	<stop  offset="8.950000e-02" style="stop-color:#343C46"/>
	<stop  offset="0.9181" style="stop-color:#343C46"/>
	<stop  offset="1" style="stop-color:#55606A"/>
</linearGradient>
<path id="XMLID_6026_" class="st0" d="M0,0v2222.1h600V0H0z M525,2155.7H75V66.5h450V2155.7z"/>
<g id="XMLID_66_">
	<polygon id="XMLID_5984_" class="st1" points="50.7,2133.4 44.4,2138.9 44.4,2127.9 50.7,2133.4 	"/>
	<rect id="XMLID_5861_" x="55.5" y="2113" class="st2" width="9" height="11.1"/>
	<rect id="XMLID_5860_" x="55.5" y="2142.7" class="st2" width="9" height="11.1"/>
	<polygon id="XMLID_5859_" class="st2" points="64.5,2132 64.5,2127.9 55.5,2127.9 55.5,2139 64.5,2139 64.5,2134.9 66,2134.9 
		66,2132 	"/>
	<text id="XMLID_5674_" transform="matrix(0.9276 0 0 1 557.9124 2140.8582)" class="st3 st4 st5">1</text>
	<text id="XMLID_5632_" transform="matrix(0.9276 0 0 1 15.2229 2140.8582)" class="st3 st4 st5">  1</text>
	<polygon id="XMLID_5631_" class="st1" points="548,2133.4 554.3,2138.9 554.3,2127.9 548,2133.4 	"/>
	<g id="XMLID_1_">
		<rect id="XMLID_5507_" x="533.9" y="2113" class="st2" width="9" height="11.1"/>
		<rect id="XMLID_5506_" x="533.9" y="2142.7" class="st2" width="9" height="11.1"/>
		<polygon id="XMLID_5505_" class="st2" points="533.9,2132 533.9,2127.9 542.9,2127.9 542.9,2139 533.9,2139 533.9,2134.9 
			532.4,2134.9 532.4,2132 		"/>
	</g>
	<polygon id="XMLID_77_" class="st1" points="50.7,2089 44.4,2094.5 44.4,2083.5 50.7,2089 	"/>
	<rect id="XMLID_76_" x="55.5" y="2068.6" class="st2" width="9" height="11.1"/>
	<rect id="XMLID_75_" x="55.5" y="2098.2" class="st2" width="9" height="11.1"/>
	<polygon id="XMLID_74_" class="st2" points="64.5,2087.5 64.5,2083.4 55.5,2083.4 55.5,2094.5 64.5,2094.5 64.5,2090.4 66,2090.4 
		66,2087.5 	"/>
	<text id="XMLID_73_" transform="matrix(0.9276 0 0 1 557.9124 2096.4082)" class="st3 st4 st5">2</text>
	<text id="XMLID_72_" transform="matrix(0.9276 0 0 1 15.2229 2096.4082)" class="st3 st4 st5">  2</text>
	<polygon id="XMLID_71_" class="st1" points="548,2089 554.3,2094.5 554.3,2083.5 548,2089 	"/>
	<g id="XMLID_67_">
		<rect id="XMLID_70_" x="533.9" y="2068.6" class="st2" width="9" height="11.1"/>
		<rect id="XMLID_69_" x="533.9" y="2098.2" class="st2" width="9" height="11.1"/>
		<polygon id="XMLID_68_" class="st2" points="533.9,2087.5 533.9,2083.4 542.9,2083.4 542.9,2094.5 533.9,2094.5 533.9,2090.4 
			532.4,2090.4 532.4,2087.5 		"/>
	</g>
	<polygon id="XMLID_3902_" class="st1" points="50.7,2044.5 44.4,2050 44.4,2039 50.7,2044.5 	"/>
	<rect id="XMLID_3901_" x="55.5" y="2024.1" class="st2" width="9" height="11.1"/>
	<rect id="XMLID_3900_" x="55.5" y="2053.8" class="st2" width="9" height="11.1"/>
	<polygon id="XMLID_3899_" class="st2" points="64.5,2043.1 64.5,2039 55.5,2039 55.5,2050.1 64.5,2050.1 64.5,2046 66,2046 
		66,2043.1 	"/>
	<text id="XMLID_3898_" transform="matrix(0.9276 0 0 1 557.9124 2051.9583)" class="st3 st4 st5">3</text>
	<text id="XMLID_3897_" transform="matrix(0.9276 0 0 1 15.2229 2051.9583)" class="st3 st4 st5">  3</text>
	<polygon id="XMLID_3896_" class="st1" points="548,2044.5 554.3,2050 554.3,2039 548,2044.5 	"/>
	<g id="XMLID_78_">
		<rect id="XMLID_3895_" x="533.9" y="2024.1" class="st2" width="9" height="11.1"/>
		<rect id="XMLID_3894_" x="533.9" y="2053.8" class="st2" width="9" height="11.1"/>
		<polygon id="XMLID_3893_" class="st2" points="533.9,2043.1 533.9,2039 542.9,2039 542.9,2050.1 533.9,2050.1 533.9,2046 
			532.4,2046 532.4,2043.1 		"/>
	</g>
	<polygon id="XMLID_3913_" class="st1" points="50.7,2000.1 44.4,2005.6 44.4,1994.6 50.7,2000.1 	"/>
	<rect id="XMLID_3912_" x="55.5" y="1979.7" class="st2" width="9" height="11.1"/>
	<rect id="XMLID_3911_" x="55.5" y="2009.3" class="st2" width="9" height="11.1"/>
	<polygon id="XMLID_3910_" class="st2" points="64.5,1998.6 64.5,1994.5 55.5,1994.5 55.5,2005.6 64.5,2005.6 64.5,2001.5 
		66,2001.5 66,1998.6 	"/>
	<text id="XMLID_3909_" transform="matrix(0.9276 0 0 1 557.9124 2007.5082)" class="st3 st4 st5">4</text>
	<text id="XMLID_3908_" transform="matrix(0.9276 0 0 1 15.2229 2007.5082)" class="st3 st4 st5">  4</text>
	<polygon id="XMLID_3907_" class="st1" points="548,2000.1 554.3,2005.6 554.3,1994.6 548,2000.1 	"/>
	<g id="XMLID_3903_">
		<rect id="XMLID_3906_" x="533.9" y="1979.7" class="st2" width="9" height="11.1"/>
		<rect id="XMLID_3905_" x="533.9" y="2009.3" class="st2" width="9" height="11.1"/>
		<polygon id="XMLID_3904_" class="st2" points="533.9,1998.6 533.9,1994.5 542.9,1994.5 542.9,2005.6 533.9,2005.6 533.9,2001.5 
			532.4,2001.5 532.4,1998.6 		"/>
	</g>
	<polygon id="XMLID_5511_" class="st1" points="50.7,1955.6 44.4,1961.1 44.4,1950.2 50.7,1955.6 	"/>
	<rect id="XMLID_5510_" x="55.5" y="1935.2" class="st2" width="9" height="11.1"/>
	<rect id="XMLID_5509_" x="55.5" y="1964.9" class="st2" width="9" height="11.1"/>
	<polygon id="XMLID_5508_" class="st2" points="64.5,1954.2 64.5,1950.1 55.5,1950.1 55.5,1961.2 64.5,1961.2 64.5,1957.1 
		66,1957.1 66,1954.2 	"/>
	<text id="XMLID_5504_" transform="matrix(0.9276 0 0 1 557.9124 1963.0582)" class="st3 st4 st5">5</text>
	<text id="XMLID_3920_" transform="matrix(0.9276 0 0 1 15.2229 1963.0582)" class="st3 st4 st5">  5</text>
	<polygon id="XMLID_3919_" class="st1" points="548,1955.6 554.3,1961.1 554.3,1950.1 548,1955.6 	"/>
	<g id="XMLID_3914_">
		<rect id="XMLID_3918_" x="533.9" y="1935.2" class="st2" width="9" height="11.1"/>
		<rect id="XMLID_3916_" x="533.9" y="1964.9" class="st2" width="9" height="11.1"/>
		<polygon id="XMLID_3915_" class="st2" points="533.9,1954.2 533.9,1950.1 542.9,1950.1 542.9,1961.2 533.9,1961.2 533.9,1957.1 
			532.4,1957.1 532.4,1954.2 		"/>
	</g>
	<polygon id="XMLID_5522_" class="st1" points="50.7,1911.2 44.4,1916.7 44.4,1905.7 50.7,1911.2 	"/>
	<rect id="XMLID_5521_" x="55.5" y="1890.8" class="st2" width="9" height="11.1"/>
	<rect id="XMLID_5520_" x="55.5" y="1920.4" class="st2" width="9" height="11.1"/>
	<polygon id="XMLID_5519_" class="st2" points="64.5,1909.7 64.5,1905.6 55.5,1905.6 55.5,1916.7 64.5,1916.7 64.5,1912.6 
		66,1912.6 66,1909.7 	"/>
	<text id="XMLID_5518_" transform="matrix(0.9276 0 0 1 557.9124 1918.6083)" class="st3 st4 st5">6</text>
	<text id="XMLID_5517_" transform="matrix(0.9276 0 0 1 15.2229 1918.6083)" class="st3 st4 st5">  6</text>
	<polygon id="XMLID_5516_" class="st1" points="548,1911.2 554.3,1916.7 554.3,1905.7 548,1911.2 	"/>
	<g id="XMLID_5512_">
		<rect id="XMLID_5515_" x="533.9" y="1890.8" class="st2" width="9" height="11.1"/>
		<rect id="XMLID_5514_" x="533.9" y="1920.4" class="st2" width="9" height="11.1"/>
		<polygon id="XMLID_5513_" class="st2" points="533.9,1909.7 533.9,1905.6 542.9,1905.6 542.9,1916.7 533.9,1916.7 533.9,1912.6 
			532.4,1912.6 532.4,1909.7 		"/>
	</g>
	<polygon id="XMLID_5533_" class="st1" points="50.7,1866.7 44.4,1872.2 44.4,1861.2 50.7,1866.7 	"/>
	<rect id="XMLID_5532_" x="55.5" y="1846.3" class="st2" width="9" height="11.1"/>
	<rect id="XMLID_5531_" x="55.5" y="1876" class="st2" width="9" height="11.1"/>
	<polygon id="XMLID_5530_" class="st2" points="64.5,1865.3 64.5,1861.2 55.5,1861.2 55.5,1872.3 64.5,1872.3 64.5,1868.2 
		66,1868.2 66,1865.3 	"/>
	<text id="XMLID_5529_" transform="matrix(0.9276 0 0 1 557.9124 1874.1582)" class="st3 st4 st5">7</text>
	<text id="XMLID_5528_" transform="matrix(0.9276 0 0 1 15.2229 1874.1582)" class="st3 st4 st5">  7</text>
	<polygon id="XMLID_5527_" class="st1" points="548,1866.7 554.3,1872.2 554.3,1861.2 548,1866.7 	"/>
	<g id="XMLID_5523_">
		<rect id="XMLID_5526_" x="533.9" y="1846.3" class="st2" width="9" height="11.1"/>
		<rect id="XMLID_5525_" x="533.9" y="1876" class="st2" width="9" height="11.1"/>
		<polygon id="XMLID_5524_" class="st2" points="533.9,1865.3 533.9,1861.2 542.9,1861.2 542.9,1872.3 533.9,1872.3 533.9,1868.2 
			532.4,1868.2 532.4,1865.3 		"/>
	</g>
	<polygon id="XMLID_5544_" class="st1" points="50.7,1822.3 44.4,1827.8 44.4,1816.8 50.7,1822.3 	"/>
	<rect id="XMLID_5543_" x="55.5" y="1801.9" class="st2" width="9" height="11.1"/>
	<rect id="XMLID_5542_" x="55.5" y="1831.5" class="st2" width="9" height="11.1"/>
	<polygon id="XMLID_5541_" class="st2" points="64.5,1820.8 64.5,1816.7 55.5,1816.7 55.5,1827.8 64.5,1827.8 64.5,1823.7 
		66,1823.7 66,1820.8 	"/>
	<text id="XMLID_5540_" transform="matrix(0.9276 0 0 1 557.9124 1829.7083)" class="st3 st4 st5">8</text>
	<text id="XMLID_5539_" transform="matrix(0.9276 0 0 1 15.2229 1829.7083)" class="st3 st4 st5">  8</text>
	<polygon id="XMLID_5538_" class="st1" points="548,1822.3 554.3,1827.8 554.3,1816.8 548,1822.3 	"/>
	<g id="XMLID_5534_">
		<rect id="XMLID_5537_" x="533.9" y="1801.9" class="st2" width="9" height="11.1"/>
		<rect id="XMLID_5536_" x="533.9" y="1831.5" class="st2" width="9" height="11.1"/>
		<polygon id="XMLID_5535_" class="st2" points="533.9,1820.8 533.9,1816.7 542.9,1816.7 542.9,1827.8 533.9,1827.8 533.9,1823.7 
			532.4,1823.7 532.4,1820.8 		"/>
	</g>
	<polygon id="XMLID_5555_" class="st1" points="50.7,1777.8 44.4,1783.3 44.4,1772.3 50.7,1777.8 	"/>
	<rect id="XMLID_5554_" x="55.5" y="1757.4" class="st2" width="9" height="11.1"/>
	<rect id="XMLID_5553_" x="55.5" y="1787.1" class="st2" width="9" height="11.1"/>
	<polygon id="XMLID_5552_" class="st2" points="64.5,1776.4 64.5,1772.3 55.5,1772.3 55.5,1783.4 64.5,1783.4 64.5,1779.3 
		66,1779.3 66,1776.4 	"/>
	<text id="XMLID_5551_" transform="matrix(0.9276 0 0 1 557.9124 1785.2582)" class="st3 st4 st5">9</text>
	<text id="XMLID_5550_" transform="matrix(0.9276 0 0 1 15.2229 1785.2582)" class="st3 st4 st5">  9</text>
	<polygon id="XMLID_5549_" class="st1" points="548,1777.8 554.3,1783.3 554.3,1772.3 548,1777.8 	"/>
	<g id="XMLID_5545_">
		<rect id="XMLID_5548_" x="533.9" y="1757.4" class="st2" width="9" height="11.1"/>
		<rect id="XMLID_5547_" x="533.9" y="1787.1" class="st2" width="9" height="11.1"/>
		<polygon id="XMLID_5546_" class="st2" points="533.9,1776.4 533.9,1772.3 542.9,1772.3 542.9,1783.4 533.9,1783.4 533.9,1779.3 
			532.4,1779.3 532.4,1776.4 		"/>
	</g>
	<polygon id="XMLID_5567_" class="st1" points="50.7,1733.4 44.4,1738.9 44.4,1727.9 50.7,1733.4 	"/>
	<rect id="XMLID_5566_" x="55.5" y="1713" class="st2" width="9" height="11.1"/>
	<rect id="XMLID_5565_" x="55.5" y="1742.6" class="st2" width="9" height="11.1"/>
	<polygon id="XMLID_5564_" class="st2" points="64.5,1731.9 64.5,1727.8 55.5,1727.8 55.5,1738.9 64.5,1738.9 64.5,1734.8 
		66,1734.8 66,1731.9 	"/>
	<text id="XMLID_5562_" transform="matrix(0.9276 0 0 1 557.9124 1740.8082)" class="st3 st4 st5">10</text>
	<text id="XMLID_5561_" transform="matrix(0.9276 0 0 1 15.2229 1740.8082)" class="st3 st4 st5">10</text>
	<polygon id="XMLID_5560_" class="st1" points="548,1733.4 554.3,1738.9 554.3,1727.9 548,1733.4 	"/>
	<g id="XMLID_5556_">
		<rect id="XMLID_5559_" x="533.9" y="1713" class="st2" width="9" height="11.1"/>
		<rect id="XMLID_5558_" x="533.9" y="1742.6" class="st2" width="9" height="11.1"/>
		<polygon id="XMLID_5557_" class="st2" points="533.9,1731.9 533.9,1727.8 542.9,1727.8 542.9,1738.9 533.9,1738.9 533.9,1734.8 
			532.4,1734.8 532.4,1731.9 		"/>
	</g>
	<polygon id="XMLID_5578_" class="st1" points="50.7,1688.9 44.4,1694.4 44.4,1683.4 50.7,1688.9 	"/>
	<rect id="XMLID_5577_" x="55.5" y="1668.5" class="st2" width="9" height="11.1"/>
	<rect id="XMLID_5576_" x="55.5" y="1698.2" class="st2" width="9" height="11.1"/>
	<polygon id="XMLID_5575_" class="st2" points="64.5,1687.5 64.5,1683.4 55.5,1683.4 55.5,1694.5 64.5,1694.5 64.5,1690.4 
		66,1690.4 66,1687.5 	"/>
	<text id="XMLID_5574_" transform="matrix(0.9276 0 0 1 557.9124 1696.3582)" class="st3 st4 st5">11</text>
	<text id="XMLID_5573_" transform="matrix(0.9276 0 0 1 15.2229 1696.3582)" class="st3 st4 st5">11</text>
	<polygon id="XMLID_5572_" class="st1" points="548,1688.9 554.3,1694.4 554.3,1683.4 548,1688.9 	"/>
	<g id="XMLID_5568_">
		<rect id="XMLID_5571_" x="533.9" y="1668.5" class="st2" width="9" height="11.1"/>
		<rect id="XMLID_5570_" x="533.9" y="1698.2" class="st2" width="9" height="11.1"/>
		<polygon id="XMLID_5569_" class="st2" points="533.9,1687.5 533.9,1683.4 542.9,1683.4 542.9,1694.5 533.9,1694.5 533.9,1690.4 
			532.4,1690.4 532.4,1687.5 		"/>
	</g>
	<polygon id="XMLID_5589_" class="st1" points="50.7,1644.5 44.4,1650 44.4,1639 50.7,1644.5 	"/>
	<rect id="XMLID_5588_" x="55.5" y="1624.1" class="st2" width="9" height="11.1"/>
	<rect id="XMLID_5587_" x="55.5" y="1653.7" class="st2" width="9" height="11.1"/>
	<polygon id="XMLID_5586_" class="st2" points="64.5,1643 64.5,1638.9 55.5,1638.9 55.5,1650 64.5,1650 64.5,1645.9 66,1645.9 
		66,1643 	"/>
	<text id="XMLID_5585_" transform="matrix(0.9276 0 0 1 557.9124 1651.9082)" class="st3 st4 st5">12</text>
	<text id="XMLID_5584_" transform="matrix(0.9276 0 0 1 15.2229 1651.9082)" class="st3 st4 st5">12</text>
	<polygon id="XMLID_5583_" class="st1" points="548,1644.5 554.3,1650 554.3,1639 548,1644.5 	"/>
	<g id="XMLID_5579_">
		<rect id="XMLID_5582_" x="533.9" y="1624.1" class="st2" width="9" height="11.1"/>
		<rect id="XMLID_5581_" x="533.9" y="1653.7" class="st2" width="9" height="11.1"/>
		<polygon id="XMLID_5580_" class="st2" points="533.9,1643 533.9,1638.9 542.9,1638.9 542.9,1650 533.9,1650 533.9,1645.9 
			532.4,1645.9 532.4,1643 		"/>
	</g>
	<polygon id="XMLID_5600_" class="st1" points="50.7,1600 44.4,1605.5 44.4,1594.5 50.7,1600 	"/>
	<rect id="XMLID_5599_" x="55.5" y="1579.6" class="st2" width="9" height="11.1"/>
	<rect id="XMLID_5598_" x="55.5" y="1609.3" class="st2" width="9" height="11.1"/>
	<polygon id="XMLID_5597_" class="st2" points="64.5,1598.6 64.5,1594.5 55.5,1594.5 55.5,1605.6 64.5,1605.6 64.5,1601.5 
		66,1601.5 66,1598.6 	"/>
	<text id="XMLID_5596_" transform="matrix(0.9276 0 0 1 557.9124 1607.4583)" class="st3 st4 st5">13</text>
	<text id="XMLID_5595_" transform="matrix(0.9276 0 0 1 15.2229 1607.4583)" class="st3 st4 st5">13</text>
	<polygon id="XMLID_5594_" class="st1" points="548,1600 554.3,1605.5 554.3,1594.5 548,1600 	"/>
	<g id="XMLID_5590_">
		<rect id="XMLID_5593_" x="533.9" y="1579.6" class="st2" width="9" height="11.1"/>
		<rect id="XMLID_5592_" x="533.9" y="1609.3" class="st2" width="9" height="11.1"/>
		<polygon id="XMLID_5591_" class="st2" points="533.9,1598.6 533.9,1594.5 542.9,1594.5 542.9,1605.6 533.9,1605.6 533.9,1601.5 
			532.4,1601.5 532.4,1598.6 		"/>
	</g>
	<polygon id="XMLID_5611_" class="st1" points="50.7,1555.6 44.4,1561.1 44.4,1550.1 50.7,1555.6 	"/>
	<rect id="XMLID_5610_" x="55.5" y="1535.2" class="st2" width="9" height="11.1"/>
	<rect id="XMLID_5609_" x="55.5" y="1564.8" class="st2" width="9" height="11.1"/>
	<polygon id="XMLID_5608_" class="st2" points="64.5,1554.1 64.5,1550 55.5,1550 55.5,1561.1 64.5,1561.1 64.5,1557 66,1557 
		66,1554.1 	"/>
	<text id="XMLID_5607_" transform="matrix(0.9276 0 0 1 557.9124 1563.0082)" class="st3 st4 st5">14</text>
	<text id="XMLID_5606_" transform="matrix(0.9276 0 0 1 15.2229 1563.0082)" class="st3 st4 st5">14</text>
	<polygon id="XMLID_5605_" class="st1" points="548,1555.6 554.3,1561.1 554.3,1550.1 548,1555.6 	"/>
	<g id="XMLID_5601_">
		<rect id="XMLID_5604_" x="533.9" y="1535.2" class="st2" width="9" height="11.1"/>
		<rect id="XMLID_5603_" x="533.9" y="1564.8" class="st2" width="9" height="11.1"/>
		<polygon id="XMLID_5602_" class="st2" points="533.9,1554.1 533.9,1550 542.9,1550 542.9,1561.1 533.9,1561.1 533.9,1557 
			532.4,1557 532.4,1554.1 		"/>
	</g>
	<polygon id="XMLID_5622_" class="st1" points="50.7,1511.1 44.4,1516.6 44.4,1505.6 50.7,1511.1 	"/>
	<rect id="XMLID_5621_" x="55.5" y="1490.7" class="st2" width="9" height="11.1"/>
	<rect id="XMLID_5620_" x="55.5" y="1520.4" class="st2" width="9" height="11.1"/>
	<polygon id="XMLID_5619_" class="st2" points="64.5,1509.7 64.5,1505.6 55.5,1505.6 55.5,1516.7 64.5,1516.7 64.5,1512.6 
		66,1512.6 66,1509.7 	"/>
	<text id="XMLID_5618_" transform="matrix(0.9276 0 0 1 557.9124 1518.5582)" class="st3 st4 st5">15</text>
	<text id="XMLID_5617_" transform="matrix(0.9276 0 0 1 15.2229 1518.5582)" class="st3 st4 st5">15</text>
	<polygon id="XMLID_5616_" class="st1" points="548,1511.1 554.3,1516.6 554.3,1505.6 548,1511.1 	"/>
	<g id="XMLID_5612_">
		<rect id="XMLID_5615_" x="533.9" y="1490.7" class="st2" width="9" height="11.1"/>
		<rect id="XMLID_5614_" x="533.9" y="1520.4" class="st2" width="9" height="11.1"/>
		<polygon id="XMLID_5613_" class="st2" points="533.9,1509.7 533.9,1505.6 542.9,1505.6 542.9,1516.7 533.9,1516.7 533.9,1512.6 
			532.4,1512.6 532.4,1509.7 		"/>
	</g>
	<polygon id="XMLID_5635_" class="st1" points="50.7,1466.7 44.4,1472.2 44.4,1461.2 50.7,1466.7 	"/>
	<rect id="XMLID_5634_" x="55.5" y="1446.3" class="st2" width="9" height="11.1"/>
	<rect id="XMLID_5633_" x="55.5" y="1475.9" class="st2" width="9" height="11.1"/>
	<polygon id="XMLID_5630_" class="st2" points="64.5,1465.2 64.5,1461.1 55.5,1461.1 55.5,1472.2 64.5,1472.2 64.5,1468.1 
		66,1468.1 66,1465.2 	"/>
	<text id="XMLID_5629_" transform="matrix(0.9276 0 0 1 557.9124 1474.1082)" class="st3 st4 st5">16</text>
	<text id="XMLID_5628_" transform="matrix(0.9276 0 0 1 15.2229 1474.1082)" class="st3 st4 st5">16</text>
	<polygon id="XMLID_5627_" class="st1" points="548,1466.7 554.3,1472.2 554.3,1461.2 548,1466.7 	"/>
	<g id="XMLID_5623_">
		<rect id="XMLID_5626_" x="533.9" y="1446.3" class="st2" width="9" height="11.1"/>
		<rect id="XMLID_5625_" x="533.9" y="1475.9" class="st2" width="9" height="11.1"/>
		<polygon id="XMLID_5624_" class="st2" points="533.9,1465.2 533.9,1461.1 542.9,1461.1 542.9,1472.2 533.9,1472.2 533.9,1468.1 
			532.4,1468.1 532.4,1465.2 		"/>
	</g>
	<polygon id="XMLID_5646_" class="st1" points="50.7,1422.2 44.4,1427.7 44.4,1416.8 50.7,1422.2 	"/>
	<rect id="XMLID_5645_" x="55.5" y="1401.8" class="st2" width="9" height="11.1"/>
	<rect id="XMLID_5644_" x="55.5" y="1431.5" class="st2" width="9" height="11.1"/>
	<polygon id="XMLID_5643_" class="st2" points="64.5,1420.8 64.5,1416.7 55.5,1416.7 55.5,1427.8 64.5,1427.8 64.5,1423.7 
		66,1423.7 66,1420.8 	"/>
	<text id="XMLID_5642_" transform="matrix(0.9276 0 0 1 557.9124 1429.6582)" class="st3 st4 st5">17</text>
	<text id="XMLID_5641_" transform="matrix(0.9276 0 0 1 15.2229 1429.6582)" class="st3 st4 st5">17</text>
	<polygon id="XMLID_5640_" class="st1" points="548,1422.2 554.3,1427.7 554.3,1416.7 548,1422.2 	"/>
	<g id="XMLID_5636_">
		<rect id="XMLID_5639_" x="533.9" y="1401.8" class="st2" width="9" height="11.1"/>
		<rect id="XMLID_5638_" x="533.9" y="1431.5" class="st2" width="9" height="11.1"/>
		<polygon id="XMLID_5637_" class="st2" points="533.9,1420.8 533.9,1416.7 542.9,1416.7 542.9,1427.8 533.9,1427.8 533.9,1423.7 
			532.4,1423.7 532.4,1420.8 		"/>
	</g>
	<polygon id="XMLID_5657_" class="st1" points="50.7,1377.8 44.4,1383.3 44.4,1372.3 50.7,1377.8 	"/>
	<rect id="XMLID_5656_" x="55.5" y="1357.4" class="st2" width="9" height="11.1"/>
	<rect id="XMLID_5655_" x="55.5" y="1387" class="st2" width="9" height="11.1"/>
	<polygon id="XMLID_5654_" class="st2" points="64.5,1376.3 64.5,1372.2 55.5,1372.2 55.5,1383.3 64.5,1383.3 64.5,1379.2 
		66,1379.2 66,1376.3 	"/>
	<text id="XMLID_5653_" transform="matrix(0.9276 0 0 1 557.9124 1385.2081)" class="st3 st4 st5">18</text>
	<text id="XMLID_5652_" transform="matrix(0.9276 0 0 1 15.2229 1385.2081)" class="st3 st4 st5">18</text>
	<polygon id="XMLID_5651_" class="st1" points="548,1377.8 554.3,1383.3 554.3,1372.3 548,1377.8 	"/>
	<g id="XMLID_5647_">
		<rect id="XMLID_5650_" x="533.9" y="1357.4" class="st2" width="9" height="11.1"/>
		<rect id="XMLID_5649_" x="533.9" y="1387" class="st2" width="9" height="11.1"/>
		<polygon id="XMLID_5648_" class="st2" points="533.9,1376.3 533.9,1372.2 542.9,1372.2 542.9,1383.3 533.9,1383.3 533.9,1379.2 
			532.4,1379.2 532.4,1376.3 		"/>
	</g>
	<polygon id="XMLID_5668_" class="st1" points="50.7,1333.3 44.4,1338.8 44.4,1327.8 50.7,1333.3 	"/>
	<rect id="XMLID_5667_" x="55.5" y="1312.9" class="st2" width="9" height="11.1"/>
	<rect id="XMLID_5666_" x="55.5" y="1342.6" class="st2" width="9" height="11.1"/>
	<polygon id="XMLID_5665_" class="st2" points="64.5,1331.9 64.5,1327.8 55.5,1327.8 55.5,1338.9 64.5,1338.9 64.5,1334.8 
		66,1334.8 66,1331.9 	"/>
	<text id="XMLID_5664_" transform="matrix(0.9276 0 0 1 557.9124 1340.7581)" class="st3 st4 st5">19</text>
	<text id="XMLID_5663_" transform="matrix(0.9276 0 0 1 15.2229 1340.7581)" class="st3 st4 st5">19</text>
	<polygon id="XMLID_5662_" class="st1" points="548,1333.3 554.3,1338.8 554.3,1327.8 548,1333.3 	"/>
	<g id="XMLID_5658_">
		<rect id="XMLID_5661_" x="533.9" y="1312.9" class="st2" width="9" height="11.1"/>
		<rect id="XMLID_5660_" x="533.9" y="1342.6" class="st2" width="9" height="11.1"/>
		<polygon id="XMLID_5659_" class="st2" points="533.9,1331.9 533.9,1327.8 542.9,1327.8 542.9,1338.9 533.9,1338.9 533.9,1334.8 
			532.4,1334.8 532.4,1331.9 		"/>
	</g>
	<polygon id="XMLID_5680_" class="st1" points="50.7,1288.9 44.4,1294.4 44.4,1283.4 50.7,1288.9 	"/>
	<rect id="XMLID_5679_" x="55.5" y="1268.5" class="st2" width="9" height="11.1"/>
	<rect id="XMLID_5678_" x="55.5" y="1298.1" class="st2" width="9" height="11.1"/>
	<polygon id="XMLID_5677_" class="st2" points="64.5,1287.4 64.5,1283.3 55.5,1283.3 55.5,1294.4 64.5,1294.4 64.5,1290.3 
		66,1290.3 66,1287.4 	"/>
	<text id="XMLID_5676_" transform="matrix(0.9276 0 0 1 557.9124 1296.3081)" class="st3 st4 st5">20</text>
	<text id="XMLID_5675_" transform="matrix(0.9276 0 0 1 15.2229 1296.3081)" class="st3 st4 st5">20</text>
	<polygon id="XMLID_5673_" class="st1" points="548,1288.9 554.3,1294.4 554.3,1283.4 548,1288.9 	"/>
	<g id="XMLID_5669_">
		<rect id="XMLID_5672_" x="533.9" y="1268.5" class="st2" width="9" height="11.1"/>
		<rect id="XMLID_5671_" x="533.9" y="1298.1" class="st2" width="9" height="11.1"/>
		<polygon id="XMLID_5670_" class="st2" points="533.9,1287.4 533.9,1283.3 542.9,1283.3 542.9,1294.4 533.9,1294.4 533.9,1290.3 
			532.4,1290.3 532.4,1287.4 		"/>
	</g>
	<polygon id="XMLID_5691_" class="st1" points="50.7,1244.4 44.4,1249.9 44.4,1238.9 50.7,1244.4 	"/>
	<rect id="XMLID_5690_" x="55.5" y="1224" class="st2" width="9" height="11.1"/>
	<rect id="XMLID_5689_" x="55.5" y="1253.7" class="st2" width="9" height="11.1"/>
	<polygon id="XMLID_5688_" class="st2" points="64.5,1243 64.5,1238.9 55.5,1238.9 55.5,1250 64.5,1250 64.5,1245.9 66,1245.9 
		66,1243 	"/>
	<text id="XMLID_5687_" transform="matrix(0.9276 0 0 1 557.9124 1251.8582)" class="st3 st4 st5">21</text>
	<text id="XMLID_5686_" transform="matrix(0.9276 0 0 1 15.2229 1251.8582)" class="st3 st4 st5">21</text>
	<polygon id="XMLID_5685_" class="st1" points="548,1244.4 554.3,1249.9 554.3,1238.9 548,1244.4 	"/>
	<g id="XMLID_5681_">
		<rect id="XMLID_5684_" x="533.9" y="1224" class="st2" width="9" height="11.1"/>
		<rect id="XMLID_5683_" x="533.9" y="1253.7" class="st2" width="9" height="11.1"/>
		<polygon id="XMLID_5682_" class="st2" points="533.9,1243 533.9,1238.9 542.9,1238.9 542.9,1250 533.9,1250 533.9,1245.9 
			532.4,1245.9 532.4,1243 		"/>
	</g>
	<polygon id="XMLID_5702_" class="st1" points="50.7,1200 44.4,1205.5 44.4,1194.5 50.7,1200 	"/>
	<rect id="XMLID_5701_" x="55.5" y="1179.6" class="st2" width="9" height="11.1"/>
	<rect id="XMLID_5700_" x="55.5" y="1209.2" class="st2" width="9" height="11.1"/>
	<polygon id="XMLID_5699_" class="st2" points="64.5,1198.5 64.5,1194.4 55.5,1194.4 55.5,1205.5 64.5,1205.5 64.5,1201.4 
		66,1201.4 66,1198.5 	"/>
	<text id="XMLID_5698_" transform="matrix(0.9276 0 0 1 557.9124 1207.4081)" class="st3 st4 st5">22</text>
	<text id="XMLID_5697_" transform="matrix(0.9276 0 0 1 15.2229 1207.4081)" class="st3 st4 st5">22</text>
	<polygon id="XMLID_5696_" class="st1" points="548,1200 554.3,1205.5 554.3,1194.5 548,1200 	"/>
	<g id="XMLID_5692_">
		<rect id="XMLID_5695_" x="533.9" y="1179.6" class="st2" width="9" height="11.1"/>
		<rect id="XMLID_5694_" x="533.9" y="1209.2" class="st2" width="9" height="11.1"/>
		<polygon id="XMLID_5693_" class="st2" points="533.9,1198.5 533.9,1194.4 542.9,1194.4 542.9,1205.5 533.9,1205.5 533.9,1201.4 
			532.4,1201.4 532.4,1198.5 		"/>
	</g>
	<polygon id="XMLID_5713_" class="st1" points="50.7,1155.5 44.4,1161 44.4,1150 50.7,1155.5 	"/>
	<rect id="XMLID_5712_" x="55.5" y="1135.1" class="st2" width="9" height="11.1"/>
	<rect id="XMLID_5711_" x="55.5" y="1164.8" class="st2" width="9" height="11.1"/>
	<polygon id="XMLID_5710_" class="st2" points="64.5,1154.1 64.5,1150 55.5,1150 55.5,1161.1 64.5,1161.1 64.5,1157 66,1157 
		66,1154.1 	"/>
	<text id="XMLID_5709_" transform="matrix(0.9276 0 0 1 557.9124 1162.958)" class="st3 st4 st5">23</text>
	<text id="XMLID_5708_" transform="matrix(0.9276 0 0 1 15.2229 1162.958)" class="st3 st4 st5">23</text>
	<polygon id="XMLID_5707_" class="st1" points="548,1155.5 554.3,1161 554.3,1150 548,1155.5 	"/>
	<g id="XMLID_5703_">
		<rect id="XMLID_5706_" x="533.9" y="1135.1" class="st2" width="9" height="11.1"/>
		<rect id="XMLID_5705_" x="533.9" y="1164.8" class="st2" width="9" height="11.1"/>
		<polygon id="XMLID_5704_" class="st2" points="533.9,1154.1 533.9,1150 542.9,1150 542.9,1161.1 533.9,1161.1 533.9,1157 
			532.4,1157 532.4,1154.1 		"/>
	</g>
	<polygon id="XMLID_5724_" class="st1" points="50.7,1111.1 44.4,1116.6 44.4,1105.6 50.7,1111.1 	"/>
	<rect id="XMLID_5723_" x="55.5" y="1090.7" class="st2" width="9" height="11.1"/>
	<rect id="XMLID_5722_" x="55.5" y="1120.3" class="st2" width="9" height="11.1"/>
	<polygon id="XMLID_5721_" class="st2" points="64.5,1109.6 64.5,1105.5 55.5,1105.5 55.5,1116.6 64.5,1116.6 64.5,1112.5 
		66,1112.5 66,1109.6 	"/>
	<text id="XMLID_5720_" transform="matrix(0.9276 0 0 1 557.9124 1118.5081)" class="st3 st4 st5">24</text>
	<text id="XMLID_5719_" transform="matrix(0.9276 0 0 1 15.2229 1118.5081)" class="st3 st4 st5">24</text>
	<polygon id="XMLID_5718_" class="st1" points="548,1111.1 554.3,1116.6 554.3,1105.6 548,1111.1 	"/>
	<g id="XMLID_5714_">
		<rect id="XMLID_5717_" x="533.9" y="1090.7" class="st2" width="9" height="11.1"/>
		<rect id="XMLID_5716_" x="533.9" y="1120.3" class="st2" width="9" height="11.1"/>
		<polygon id="XMLID_5715_" class="st2" points="533.9,1109.6 533.9,1105.5 542.9,1105.5 542.9,1116.6 533.9,1116.6 533.9,1112.5 
			532.4,1112.5 532.4,1109.6 		"/>
	</g>
	<polygon id="XMLID_5735_" class="st1" points="50.7,1066.6 44.4,1072.1 44.4,1061.1 50.7,1066.6 	"/>
	<rect id="XMLID_5734_" x="55.5" y="1046.2" class="st2" width="9" height="11.1"/>
	<rect id="XMLID_5733_" x="55.5" y="1075.9" class="st2" width="9" height="11.1"/>
	<polygon id="XMLID_5732_" class="st2" points="64.5,1065.2 64.5,1061.1 55.5,1061.1 55.5,1072.2 64.5,1072.2 64.5,1068.1 
		66,1068.1 66,1065.2 	"/>
	<text id="XMLID_5731_" transform="matrix(0.9276 0 0 1 557.9124 1074.0581)" class="st3 st4 st5">25</text>
	<text id="XMLID_5730_" transform="matrix(0.9276 0 0 1 15.2229 1074.0581)" class="st3 st4 st5">25</text>
	<polygon id="XMLID_5729_" class="st1" points="548,1066.6 554.3,1072.1 554.3,1061.1 548,1066.6 	"/>
	<g id="XMLID_5725_">
		<rect id="XMLID_5728_" x="533.9" y="1046.2" class="st2" width="9" height="11.1"/>
		<rect id="XMLID_5727_" x="533.9" y="1075.9" class="st2" width="9" height="11.1"/>
		<polygon id="XMLID_5726_" class="st2" points="533.9,1065.2 533.9,1061.1 542.9,1061.1 542.9,1072.2 533.9,1072.2 533.9,1068.1 
			532.4,1068.1 532.4,1065.2 		"/>
	</g>
	<polygon id="XMLID_5746_" class="st1" points="50.7,1022.2 44.4,1027.7 44.4,1016.7 50.7,1022.2 	"/>
	<rect id="XMLID_5745_" x="55.5" y="1001.8" class="st2" width="9" height="11.1"/>
	<rect id="XMLID_5744_" x="55.5" y="1031.4" class="st2" width="9" height="11.1"/>
	<polygon id="XMLID_5743_" class="st2" points="64.5,1020.7 64.5,1016.6 55.5,1016.6 55.5,1027.7 64.5,1027.7 64.5,1023.6 
		66,1023.6 66,1020.7 	"/>
	<text id="XMLID_5742_" transform="matrix(0.9276 0 0 1 557.9124 1029.6082)" class="st3 st4 st5">26</text>
	<text id="XMLID_5741_" transform="matrix(0.9276 0 0 1 15.2229 1029.6082)" class="st3 st4 st5">26</text>
	<polygon id="XMLID_5740_" class="st1" points="548,1022.2 554.3,1027.7 554.3,1016.7 548,1022.2 	"/>
	<g id="XMLID_5736_">
		<rect id="XMLID_5739_" x="533.9" y="1001.8" class="st2" width="9" height="11.1"/>
		<rect id="XMLID_5738_" x="533.9" y="1031.4" class="st2" width="9" height="11.1"/>
		<polygon id="XMLID_5737_" class="st2" points="533.9,1020.7 533.9,1016.6 542.9,1016.6 542.9,1027.7 533.9,1027.7 533.9,1023.6 
			532.4,1023.6 532.4,1020.7 		"/>
	</g>
	<polygon id="XMLID_5757_" class="st1" points="50.7,977.7 44.4,983.2 44.4,972.2 50.7,977.7 	"/>
	<rect id="XMLID_5756_" x="55.5" y="957.3" class="st2" width="9" height="11.1"/>
	<rect id="XMLID_5755_" x="55.5" y="987" class="st2" width="9" height="11.1"/>
	<polygon id="XMLID_5754_" class="st2" points="64.5,976.3 64.5,972.2 55.5,972.2 55.5,983.3 64.5,983.3 64.5,979.2 66,979.2 
		66,976.3 	"/>
	<text id="XMLID_5753_" transform="matrix(0.9276 0 0 1 557.9124 985.1581)" class="st3 st4 st5">27</text>
	<text id="XMLID_5752_" transform="matrix(0.9276 0 0 1 15.2229 985.1581)" class="st3 st4 st5">27</text>
	<polygon id="XMLID_5751_" class="st1" points="548,977.7 554.3,983.2 554.3,972.2 548,977.7 	"/>
	<g id="XMLID_5747_">
		<rect id="XMLID_5750_" x="533.9" y="957.3" class="st2" width="9" height="11.1"/>
		<rect id="XMLID_5749_" x="533.9" y="987" class="st2" width="9" height="11.1"/>
		<polygon id="XMLID_5748_" class="st2" points="533.9,976.3 533.9,972.2 542.9,972.2 542.9,983.3 533.9,983.3 533.9,979.2 
			532.4,979.2 532.4,976.3 		"/>
	</g>
	<polygon id="XMLID_5768_" class="st1" points="50.7,933.3 44.4,938.8 44.4,927.8 50.7,933.3 	"/>
	<rect id="XMLID_5767_" x="55.5" y="912.9" class="st2" width="9" height="11.1"/>
	<rect id="XMLID_5766_" x="55.5" y="942.5" class="st2" width="9" height="11.1"/>
	<polygon id="XMLID_5765_" class="st2" points="64.5,931.8 64.5,927.7 55.5,927.7 55.5,938.8 64.5,938.8 64.5,934.7 66,934.7 
		66,931.8 	"/>
	<text id="XMLID_5764_" transform="matrix(0.9276 0 0 1 557.9124 940.7081)" class="st3 st4 st5">28</text>
	<text id="XMLID_5763_" transform="matrix(0.9276 0 0 1 15.2229 940.7081)" class="st3 st4 st5">28</text>
	<polygon id="XMLID_5762_" class="st1" points="548,933.3 554.3,938.8 554.3,927.8 548,933.3 	"/>
	<g id="XMLID_5758_">
		<rect id="XMLID_5761_" x="533.9" y="912.9" class="st2" width="9" height="11.1"/>
		<rect id="XMLID_5760_" x="533.9" y="942.5" class="st2" width="9" height="11.1"/>
		<polygon id="XMLID_5759_" class="st2" points="533.9,931.8 533.9,927.7 542.9,927.7 542.9,938.8 533.9,938.8 533.9,934.7 
			532.4,934.7 532.4,931.8 		"/>
	</g>
	<polygon id="XMLID_5779_" class="st1" points="50.7,888.8 44.4,894.3 44.4,883.3 50.7,888.8 	"/>
	<rect id="XMLID_5778_" x="55.5" y="868.4" class="st2" width="9" height="11.1"/>
	<rect id="XMLID_5777_" x="55.5" y="898.1" class="st2" width="9" height="11.1"/>
	<polygon id="XMLID_5776_" class="st2" points="64.5,887.4 64.5,883.3 55.5,883.3 55.5,894.4 64.5,894.4 64.5,890.3 66,890.3 
		66,887.4 	"/>
	<text id="XMLID_5775_" transform="matrix(0.9276 0 0 1 557.9124 896.2582)" class="st3 st4 st5">29</text>
	<text id="XMLID_5774_" transform="matrix(0.9276 0 0 1 15.2229 896.2582)" class="st3 st4 st5">29</text>
	<polygon id="XMLID_5773_" class="st1" points="548,888.8 554.3,894.3 554.3,883.3 548,888.8 	"/>
	<g id="XMLID_5769_">
		<rect id="XMLID_5772_" x="533.9" y="868.4" class="st2" width="9" height="11.1"/>
		<rect id="XMLID_5771_" x="533.9" y="898.1" class="st2" width="9" height="11.1"/>
		<polygon id="XMLID_5770_" class="st2" points="533.9,887.4 533.9,883.3 542.9,883.3 542.9,894.4 533.9,894.4 533.9,890.3 
			532.4,890.3 532.4,887.4 		"/>
	</g>
	<polygon id="XMLID_5790_" class="st1" points="50.7,844.4 44.4,849.9 44.4,838.9 50.7,844.4 	"/>
	<rect id="XMLID_5789_" x="55.5" y="824" class="st2" width="9" height="11.1"/>
	<rect id="XMLID_5788_" x="55.5" y="853.6" class="st2" width="9" height="11.1"/>
	<polygon id="XMLID_5787_" class="st2" points="64.5,842.9 64.5,838.8 55.5,838.8 55.5,849.9 64.5,849.9 64.5,845.8 66,845.8 
		66,842.9 	"/>
	<text id="XMLID_5786_" transform="matrix(0.9276 0 0 1 557.9124 851.8082)" class="st3 st4 st5">30</text>
	<text id="XMLID_5785_" transform="matrix(0.9276 0 0 1 15.2229 851.8082)" class="st3 st4 st5">30</text>
	<polygon id="XMLID_5784_" class="st1" points="548,844.4 554.3,849.9 554.3,838.9 548,844.4 	"/>
	<g id="XMLID_5780_">
		<rect id="XMLID_5783_" x="533.9" y="824" class="st2" width="9" height="11.1"/>
		<rect id="XMLID_5782_" x="533.9" y="853.6" class="st2" width="9" height="11.1"/>
		<polygon id="XMLID_5781_" class="st2" points="533.9,842.9 533.9,838.8 542.9,838.8 542.9,849.9 533.9,849.9 533.9,845.8 
			532.4,845.8 532.4,842.9 		"/>
	</g>
	<polygon id="XMLID_5801_" class="st1" points="50.7,799.9 44.4,805.4 44.4,794.4 50.7,799.9 	"/>
	<rect id="XMLID_5800_" x="55.5" y="779.5" class="st2" width="9" height="11.1"/>
	<rect id="XMLID_5799_" x="55.5" y="809.2" class="st2" width="9" height="11.1"/>
	<polygon id="XMLID_5798_" class="st2" points="64.5,798.5 64.5,794.4 55.5,794.4 55.5,805.5 64.5,805.5 64.5,801.4 66,801.4 
		66,798.5 	"/>
	<text id="XMLID_5797_" transform="matrix(0.9276 0 0 1 557.9124 807.3583)" class="st3 st4 st5">31</text>
	<text id="XMLID_5796_" transform="matrix(0.9276 0 0 1 15.2229 807.3583)" class="st3 st4 st5">31</text>
	<polygon id="XMLID_5795_" class="st1" points="548,799.9 554.3,805.4 554.3,794.4 548,799.9 	"/>
	<g id="XMLID_5791_">
		<rect id="XMLID_5794_" x="533.9" y="779.5" class="st2" width="9" height="11.1"/>
		<rect id="XMLID_5793_" x="533.9" y="809.2" class="st2" width="9" height="11.1"/>
		<polygon id="XMLID_5792_" class="st2" points="533.9,798.5 533.9,794.4 542.9,794.4 542.9,805.5 533.9,805.5 533.9,801.4 
			532.4,801.4 532.4,798.5 		"/>
	</g>
	<polygon id="XMLID_5812_" class="st1" points="50.7,755.5 44.4,761 44.4,750 50.7,755.5 	"/>
	<rect id="XMLID_5811_" x="55.5" y="735.1" class="st2" width="9" height="11.1"/>
	<rect id="XMLID_5810_" x="55.5" y="764.7" class="st2" width="9" height="11.1"/>
	<polygon id="XMLID_5809_" class="st2" points="64.5,754 64.5,749.9 55.5,749.9 55.5,761 64.5,761 64.5,756.9 66,756.9 66,754 	"/>
	<text id="XMLID_5808_" transform="matrix(0.9276 0 0 1 557.9124 762.9083)" class="st3 st4 st5">32</text>
	<text id="XMLID_5807_" transform="matrix(0.9276 0 0 1 15.2229 762.9083)" class="st3 st4 st5">32</text>
	<polygon id="XMLID_5806_" class="st1" points="548,755.5 554.3,761 554.3,750 548,755.5 	"/>
	<g id="XMLID_5802_">
		<rect id="XMLID_5805_" x="533.9" y="735.1" class="st2" width="9" height="11.1"/>
		<rect id="XMLID_5804_" x="533.9" y="764.7" class="st2" width="9" height="11.1"/>
		<polygon id="XMLID_5803_" class="st2" points="533.9,754 533.9,749.9 542.9,749.9 542.9,761 533.9,761 533.9,756.9 532.4,756.9 
			532.4,754 		"/>
	</g>
	<polygon id="XMLID_5823_" class="st1" points="50.7,711 44.4,716.5 44.4,705.5 50.7,711 	"/>
	<rect id="XMLID_5822_" x="55.5" y="690.6" class="st2" width="9" height="11.1"/>
	<rect id="XMLID_5821_" x="55.5" y="720.3" class="st2" width="9" height="11.1"/>
	<polygon id="XMLID_5820_" class="st2" points="64.5,709.6 64.5,705.5 55.5,705.5 55.5,716.6 64.5,716.6 64.5,712.5 66,712.5 
		66,709.6 	"/>
	<text id="XMLID_5819_" transform="matrix(0.9276 0 0 1 557.9124 718.4584)" class="st3 st4 st5">33</text>
	<text id="XMLID_5818_" transform="matrix(0.9276 0 0 1 15.2229 718.4584)" class="st3 st4 st5">33</text>
	<polygon id="XMLID_5817_" class="st1" points="548,711 554.3,716.5 554.3,705.5 548,711 	"/>
	<g id="XMLID_5813_">
		<rect id="XMLID_5816_" x="533.9" y="690.6" class="st2" width="9" height="11.1"/>
		<rect id="XMLID_5815_" x="533.9" y="720.3" class="st2" width="9" height="11.1"/>
		<polygon id="XMLID_5814_" class="st2" points="533.9,709.6 533.9,705.5 542.9,705.5 542.9,716.6 533.9,716.6 533.9,712.5 
			532.4,712.5 532.4,709.6 		"/>
	</g>
	<polygon id="XMLID_5834_" class="st1" points="50.7,666.6 44.4,672.1 44.4,661.1 50.7,666.6 	"/>
	<rect id="XMLID_5833_" x="55.5" y="646.2" class="st2" width="9" height="11.1"/>
	<rect id="XMLID_5832_" x="55.5" y="675.8" class="st2" width="9" height="11.1"/>
	<polygon id="XMLID_5831_" class="st2" points="64.5,665.1 64.5,661 55.5,661 55.5,672.1 64.5,672.1 64.5,668 66,668 66,665.1 	"/>
	<text id="XMLID_5830_" transform="matrix(0.9276 0 0 1 557.9124 674.0084)" class="st3 st4 st5">34</text>
	<text id="XMLID_5829_" transform="matrix(0.9276 0 0 1 15.2229 674.0084)" class="st3 st4 st5">34</text>
	<polygon id="XMLID_5828_" class="st1" points="548,666.6 554.3,672.1 554.3,661.1 548,666.6 	"/>
	<g id="XMLID_5824_">
		<rect id="XMLID_5827_" x="533.9" y="646.2" class="st2" width="9" height="11.1"/>
		<rect id="XMLID_5826_" x="533.9" y="675.8" class="st2" width="9" height="11.1"/>
		<polygon id="XMLID_5825_" class="st2" points="533.9,665.1 533.9,661 542.9,661 542.9,672.1 533.9,672.1 533.9,668 532.4,668 
			532.4,665.1 		"/>
	</g>
	<polygon id="XMLID_5845_" class="st1" points="50.7,622.1 44.4,627.6 44.4,616.6 50.7,622.1 	"/>
	<rect id="XMLID_5844_" x="55.5" y="601.7" class="st2" width="9" height="11.1"/>
	<rect id="XMLID_5843_" x="55.5" y="631.4" class="st2" width="9" height="11.1"/>
	<polygon id="XMLID_5842_" class="st2" points="64.5,620.7 64.5,616.6 55.5,616.6 55.5,627.7 64.5,627.7 64.5,623.6 66,623.6 
		66,620.7 	"/>
	<text id="XMLID_5841_" transform="matrix(0.9276 0 0 1 557.9124 629.5585)" class="st3 st4 st5">35</text>
	<text id="XMLID_5840_" transform="matrix(0.9276 0 0 1 15.2229 629.5585)" class="st3 st4 st5">35</text>
	<polygon id="XMLID_5839_" class="st1" points="548,622.1 554.3,627.6 554.3,616.6 548,622.1 	"/>
	<g id="XMLID_5835_">
		<rect id="XMLID_5838_" x="533.9" y="601.7" class="st2" width="9" height="11.1"/>
		<rect id="XMLID_5837_" x="533.9" y="631.4" class="st2" width="9" height="11.1"/>
		<polygon id="XMLID_5836_" class="st2" points="533.9,620.7 533.9,616.6 542.9,616.6 542.9,627.7 533.9,627.7 533.9,623.6 
			532.4,623.6 532.4,620.7 		"/>
	</g>
	<polygon id="XMLID_5856_" class="st1" points="50.7,577.7 44.4,583.2 44.4,572.2 50.7,577.7 	"/>
	<rect id="XMLID_5855_" x="55.5" y="557.3" class="st2" width="9" height="11.1"/>
	<rect id="XMLID_5854_" x="55.5" y="586.9" class="st2" width="9" height="11.1"/>
	<polygon id="XMLID_5853_" class="st2" points="64.5,576.2 64.5,572.1 55.5,572.1 55.5,583.2 64.5,583.2 64.5,579.1 66,579.1 
		66,576.2 	"/>
	<text id="XMLID_5852_" transform="matrix(0.9276 0 0 1 557.9124 585.1085)" class="st3 st4 st5">36</text>
	<text id="XMLID_5851_" transform="matrix(0.9276 0 0 1 15.2229 585.1085)" class="st3 st4 st5">36</text>
	<polygon id="XMLID_5850_" class="st1" points="548,577.7 554.3,583.2 554.3,572.2 548,577.7 	"/>
	<g id="XMLID_5846_">
		<rect id="XMLID_5849_" x="533.9" y="557.3" class="st2" width="9" height="11.1"/>
		<rect id="XMLID_5848_" x="533.9" y="586.9" class="st2" width="9" height="11.1"/>
		<polygon id="XMLID_5847_" class="st2" points="533.9,576.2 533.9,572.1 542.9,572.1 542.9,583.2 533.9,583.2 533.9,579.1 
			532.4,579.1 532.4,576.2 		"/>
	</g>
	<polygon id="XMLID_5870_" class="st1" points="50.7,533.2 44.4,538.7 44.4,527.7 50.7,533.2 	"/>
	<rect id="XMLID_5869_" x="55.5" y="512.8" class="st2" width="9" height="11.1"/>
	<rect id="XMLID_5868_" x="55.5" y="542.5" class="st2" width="9" height="11.1"/>
	<polygon id="XMLID_5867_" class="st2" points="64.5,531.8 64.5,527.7 55.5,527.7 55.5,538.8 64.5,538.8 64.5,534.7 66,534.7 
		66,531.8 	"/>
	<text id="XMLID_5866_" transform="matrix(0.9276 0 0 1 557.9124 540.6586)" class="st3 st4 st5">37</text>
	<text id="XMLID_5865_" transform="matrix(0.9276 0 0 1 15.2229 540.6586)" class="st3 st4 st5">37</text>
	<polygon id="XMLID_5864_" class="st1" points="548,533.2 554.3,538.7 554.3,527.7 548,533.2 	"/>
	<g id="XMLID_5857_">
		<rect id="XMLID_5863_" x="533.9" y="512.8" class="st2" width="9" height="11.1"/>
		<rect id="XMLID_5862_" x="533.9" y="542.5" class="st2" width="9" height="11.1"/>
		<polygon id="XMLID_5858_" class="st2" points="533.9,531.8 533.9,527.7 542.9,527.7 542.9,538.8 533.9,538.8 533.9,534.7 
			532.4,534.7 532.4,531.8 		"/>
	</g>
	<polygon id="XMLID_5881_" class="st1" points="50.7,488.8 44.4,494.3 44.4,483.3 50.7,488.8 	"/>
	<rect id="XMLID_5880_" x="55.5" y="468.4" class="st2" width="9" height="11.1"/>
	<rect id="XMLID_5879_" x="55.5" y="498" class="st2" width="9" height="11.1"/>
	<polygon id="XMLID_5878_" class="st2" points="64.5,487.3 64.5,483.2 55.5,483.2 55.5,494.3 64.5,494.3 64.5,490.2 66,490.2 
		66,487.3 	"/>
	<text id="XMLID_5877_" transform="matrix(0.9276 0 0 1 557.9124 496.2086)" class="st3 st4 st5">38</text>
	<text id="XMLID_5876_" transform="matrix(0.9276 0 0 1 15.2229 496.2086)" class="st3 st4 st5">38</text>
	<polygon id="XMLID_5875_" class="st1" points="548,488.8 554.3,494.3 554.3,483.3 548,488.8 	"/>
	<g id="XMLID_5871_">
		<rect id="XMLID_5874_" x="533.9" y="468.4" class="st2" width="9" height="11.1"/>
		<rect id="XMLID_5873_" x="533.9" y="498" class="st2" width="9" height="11.1"/>
		<polygon id="XMLID_5872_" class="st2" points="533.9,487.3 533.9,483.2 542.9,483.2 542.9,494.3 533.9,494.3 533.9,490.2 
			532.4,490.2 532.4,487.3 		"/>
	</g>
	<polygon id="XMLID_5892_" class="st1" points="50.7,444.3 44.4,449.8 44.4,438.8 50.7,444.3 	"/>
	<rect id="XMLID_5891_" x="55.5" y="423.9" class="st2" width="9" height="11.1"/>
	<rect id="XMLID_5890_" x="55.5" y="453.6" class="st2" width="9" height="11.1"/>
	<polygon id="XMLID_5889_" class="st2" points="64.5,442.9 64.5,438.8 55.5,438.8 55.5,449.9 64.5,449.9 64.5,445.8 66,445.8 
		66,442.9 	"/>
	<text id="XMLID_5888_" transform="matrix(0.9276 0 0 1 557.9124 451.7588)" class="st3 st4 st5">39</text>
	<text id="XMLID_5887_" transform="matrix(0.9276 0 0 1 15.2229 451.7588)" class="st3 st4 st5">39</text>
	<polygon id="XMLID_5886_" class="st1" points="548,444.3 554.3,449.8 554.3,438.8 548,444.3 	"/>
	<g id="XMLID_5882_">
		<rect id="XMLID_5885_" x="533.9" y="423.9" class="st2" width="9" height="11.1"/>
		<rect id="XMLID_5884_" x="533.9" y="453.6" class="st2" width="9" height="11.1"/>
		<polygon id="XMLID_5883_" class="st2" points="533.9,442.9 533.9,438.8 542.9,438.8 542.9,449.9 533.9,449.9 533.9,445.8 
			532.4,445.8 532.4,442.9 		"/>
	</g>
	<polygon id="XMLID_5903_" class="st1" points="50.7,399.9 44.4,405.4 44.4,394.4 50.7,399.9 	"/>
	<rect id="XMLID_5902_" x="55.5" y="379.5" class="st2" width="9" height="11.1"/>
	<rect id="XMLID_5901_" x="55.5" y="409.1" class="st2" width="9" height="11.1"/>
	<polygon id="XMLID_5900_" class="st2" points="64.5,398.4 64.5,394.3 55.5,394.3 55.5,405.4 64.5,405.4 64.5,401.3 66,401.3 
		66,398.4 	"/>
	<text id="XMLID_5899_" transform="matrix(0.9276 0 0 1 557.9124 407.3088)" class="st3 st4 st5">40</text>
	<text id="XMLID_5898_" transform="matrix(0.9276 0 0 1 15.2229 407.3088)" class="st3 st4 st5">40</text>
	<polygon id="XMLID_5897_" class="st1" points="548,399.9 554.3,405.4 554.3,394.4 548,399.9 	"/>
	<g id="XMLID_5893_">
		<rect id="XMLID_5896_" x="533.9" y="379.5" class="st2" width="9" height="11.1"/>
		<rect id="XMLID_5895_" x="533.9" y="409.1" class="st2" width="9" height="11.1"/>
		<polygon id="XMLID_5894_" class="st2" points="533.9,398.4 533.9,394.3 542.9,394.3 542.9,405.4 533.9,405.4 533.9,401.3 
			532.4,401.3 532.4,398.4 		"/>
	</g>
	<polygon id="XMLID_5914_" class="st1" points="50.7,355.4 44.4,360.9 44.4,349.9 50.7,355.4 	"/>
	<rect id="XMLID_5913_" x="55.5" y="335" class="st2" width="9" height="11.1"/>
	<rect id="XMLID_5912_" x="55.5" y="364.7" class="st2" width="9" height="11.1"/>
	<polygon id="XMLID_5911_" class="st2" points="64.5,354 64.5,349.9 55.5,349.9 55.5,361 64.5,361 64.5,356.9 66,356.9 66,354 	"/>
	<text id="XMLID_5910_" transform="matrix(0.9276 0 0 1 557.9124 362.8589)" class="st3 st4 st5">41</text>
	<text id="XMLID_5909_" transform="matrix(0.9276 0 0 1 15.2229 362.8589)" class="st3 st4 st5">41</text>
	<polygon id="XMLID_5908_" class="st1" points="548,355.4 554.3,360.9 554.3,349.9 548,355.4 	"/>
	<g id="XMLID_5904_">
		<rect id="XMLID_5907_" x="533.9" y="335" class="st2" width="9" height="11.1"/>
		<rect id="XMLID_5906_" x="533.9" y="364.7" class="st2" width="9" height="11.1"/>
		<polygon id="XMLID_5905_" class="st2" points="533.9,354 533.9,349.9 542.9,349.9 542.9,361 533.9,361 533.9,356.9 532.4,356.9 
			532.4,354 		"/>
	</g>
	<polygon id="XMLID_5925_" class="st1" points="50.7,311 44.4,316.5 44.4,305.5 50.7,311 	"/>
	<rect id="XMLID_5924_" x="55.5" y="290.6" class="st2" width="9" height="11.1"/>
	<rect id="XMLID_5923_" x="55.5" y="320.2" class="st2" width="9" height="11.1"/>
	<polygon id="XMLID_5922_" class="st2" points="64.5,309.5 64.5,305.4 55.5,305.4 55.5,316.5 64.5,316.5 64.5,312.4 66,312.4 
		66,309.5 	"/>
	<text id="XMLID_5921_" transform="matrix(0.9276 0 0 1 557.9124 318.4089)" class="st3 st4 st5">42</text>
	<text id="XMLID_5920_" transform="matrix(0.9276 0 0 1 15.2229 318.4089)" class="st3 st4 st5">42</text>
	<polygon id="XMLID_5919_" class="st1" points="548,311 554.3,316.5 554.3,305.5 548,311 	"/>
	<g id="XMLID_5915_">
		<rect id="XMLID_5918_" x="533.9" y="290.6" class="st2" width="9" height="11.1"/>
		<rect id="XMLID_5917_" x="533.9" y="320.2" class="st2" width="9" height="11.1"/>
		<polygon id="XMLID_5916_" class="st2" points="533.9,309.5 533.9,305.4 542.9,305.4 542.9,316.5 533.9,316.5 533.9,312.4 
			532.4,312.4 532.4,309.5 		"/>
	</g>
	<polygon id="XMLID_5936_" class="st1" points="50.7,266.5 44.4,272 44.4,261 50.7,266.5 	"/>
	<rect id="XMLID_5935_" x="55.5" y="246.1" class="st2" width="9" height="11.1"/>
	<rect id="XMLID_5934_" x="55.5" y="275.8" class="st2" width="9" height="11.1"/>
	<polygon id="XMLID_5933_" class="st2" points="64.5,265.1 64.5,261 55.5,261 55.5,272.1 64.5,272.1 64.5,268 66,268 66,265.1 	"/>
	<text id="XMLID_5932_" transform="matrix(0.9276 0 0 1 557.9124 273.959)" class="st3 st4 st5">43</text>
	<text id="XMLID_5931_" transform="matrix(0.9276 0 0 1 15.2229 273.959)" class="st3 st4 st5">43</text>
	<polygon id="XMLID_5930_" class="st1" points="548,266.5 554.3,272 554.3,261 548,266.5 	"/>
	<g id="XMLID_5926_">
		<rect id="XMLID_5929_" x="533.9" y="246.1" class="st2" width="9" height="11.1"/>
		<rect id="XMLID_5928_" x="533.9" y="275.8" class="st2" width="9" height="11.1"/>
		<polygon id="XMLID_5927_" class="st2" points="533.9,265.1 533.9,261 542.9,261 542.9,272.1 533.9,272.1 533.9,268 532.4,268 
			532.4,265.1 		"/>
	</g>
	<polygon id="XMLID_5947_" class="st1" points="50.7,222.1 44.4,227.6 44.4,216.6 50.7,222.1 	"/>
	<rect id="XMLID_5946_" x="55.5" y="201.7" class="st2" width="9" height="11.1"/>
	<rect id="XMLID_5945_" x="55.5" y="231.3" class="st2" width="9" height="11.1"/>
	<polygon id="XMLID_5944_" class="st2" points="64.5,220.6 64.5,216.5 55.5,216.5 55.5,227.6 64.5,227.6 64.5,223.5 66,223.5 
		66,220.6 	"/>
	<text id="XMLID_5943_" transform="matrix(0.9276 0 0 1 557.9124 229.509)" class="st3 st4 st5">44</text>
	<text id="XMLID_5942_" transform="matrix(0.9276 0 0 1 15.2229 229.509)" class="st3 st4 st5">44</text>
	<polygon id="XMLID_5941_" class="st1" points="548,222.1 554.3,227.6 554.3,216.6 548,222.1 	"/>
	<g id="XMLID_5937_">
		<rect id="XMLID_5940_" x="533.9" y="201.7" class="st2" width="9" height="11.1"/>
		<rect id="XMLID_5939_" x="533.9" y="231.3" class="st2" width="9" height="11.1"/>
		<polygon id="XMLID_5938_" class="st2" points="533.9,220.6 533.9,216.5 542.9,216.5 542.9,227.6 533.9,227.6 533.9,223.5 
			532.4,223.5 532.4,220.6 		"/>
	</g>
	<polygon id="XMLID_5958_" class="st1" points="50.7,177.6 44.4,183.1 44.4,172.1 50.7,177.6 	"/>
	<rect id="XMLID_5957_" x="55.5" y="157.2" class="st2" width="9" height="11.1"/>
	<rect id="XMLID_5956_" x="55.5" y="186.9" class="st2" width="9" height="11.1"/>
	<polygon id="XMLID_5955_" class="st2" points="64.5,176.2 64.5,172.1 55.5,172.1 55.5,183.2 64.5,183.2 64.5,179.1 66,179.1 
		66,176.2 	"/>
	<text id="XMLID_5954_" transform="matrix(0.9276 0 0 1 557.9124 185.0591)" class="st3 st4 st5">45</text>
	<text id="XMLID_5953_" transform="matrix(0.9276 0 0 1 15.2229 185.0591)" class="st3 st4 st5">45</text>
	<polygon id="XMLID_5952_" class="st1" points="548,177.6 554.3,183.1 554.3,172.1 548,177.6 	"/>
	<g id="XMLID_5948_">
		<rect id="XMLID_5951_" x="533.9" y="157.2" class="st2" width="9" height="11.1"/>
		<rect id="XMLID_5950_" x="533.9" y="186.9" class="st2" width="9" height="11.1"/>
		<polygon id="XMLID_5949_" class="st2" points="533.9,176.2 533.9,172.1 542.9,172.1 542.9,183.2 533.9,183.2 533.9,179.1 
			532.4,179.1 532.4,176.2 		"/>
	</g>
	<polygon id="XMLID_5969_" class="st1" points="50.7,133.2 44.4,138.7 44.4,127.7 50.7,133.2 	"/>
	<rect id="XMLID_5968_" x="55.5" y="112.8" class="st2" width="9" height="11.1"/>
	<rect id="XMLID_5967_" x="55.5" y="142.4" class="st2" width="9" height="11.1"/>
	<polygon id="XMLID_5966_" class="st2" points="64.5,131.7 64.5,127.6 55.5,127.6 55.5,138.7 64.5,138.7 64.5,134.6 66,134.6 
		66,131.7 	"/>
	<text id="XMLID_5965_" transform="matrix(0.9276 0 0 1 557.9124 140.6091)" class="st3 st4 st5">46</text>
	<text id="XMLID_5964_" transform="matrix(0.9276 0 0 1 15.2229 140.6091)" class="st3 st4 st5">46</text>
	<polygon id="XMLID_5963_" class="st1" points="548,133.2 554.3,138.7 554.3,127.7 548,133.2 	"/>
	<g id="XMLID_5959_">
		<rect id="XMLID_5962_" x="533.9" y="112.8" class="st2" width="9" height="11.1"/>
		<rect id="XMLID_5961_" x="533.9" y="142.4" class="st2" width="9" height="11.1"/>
		<polygon id="XMLID_5960_" class="st2" points="533.9,131.7 533.9,127.6 542.9,127.6 542.9,138.7 533.9,138.7 533.9,134.6 
			532.4,134.6 532.4,131.7 		"/>
	</g>
	<polygon id="XMLID_5980_" class="st1" points="50.7,88.7 44.4,94.2 44.4,83.2 50.7,88.7 	"/>
	<rect id="XMLID_5979_" x="55.5" y="68.3" class="st2" width="9" height="11.1"/>
	<rect id="XMLID_5978_" x="55.5" y="98" class="st2" width="9" height="11.1"/>
	<polygon id="XMLID_5977_" class="st2" points="64.5,87.3 64.5,83.2 55.5,83.2 55.5,94.3 64.5,94.3 64.5,90.2 66,90.2 66,87.3 	"/>
	<text id="XMLID_5976_" transform="matrix(0.9276 0 0 1 557.9124 96.1592)" class="st3 st4 st5">47</text>
	<text id="XMLID_5975_" transform="matrix(0.9276 0 0 1 15.2229 96.1592)" class="st3 st4 st5">47</text>
	<polygon id="XMLID_5974_" class="st1" points="548,88.7 554.3,94.2 554.3,83.2 548,88.7 	"/>
	<g id="XMLID_5970_">
		<rect id="XMLID_5973_" x="533.9" y="68.3" class="st2" width="9" height="11.1"/>
		<rect id="XMLID_5972_" x="533.9" y="98" class="st2" width="9" height="11.1"/>
		<polygon id="XMLID_5971_" class="st2" points="533.9,87.3 533.9,83.2 542.9,83.2 542.9,94.3 533.9,94.3 533.9,90.2 532.4,90.2 
			532.4,87.3 		"/>
	</g>
</g>
</svg>
