<?xml version="1.0" encoding="utf-8"?>
<!-- Generator: Adobe Illustrator 16.0.0, SVG Export Plug-In . SVG Version: 6.00 Build 0)  -->
<!DOCTYPE svg PUBLIC "-//W3C//DTD SVG 1.1//EN" "http://www.w3.org/Graphics/SVG/1.1/DTD/svg11.dtd">
<svg version="1.1" id="图层_1" xmlns="http://www.w3.org/2000/svg" xmlns:xlink="http://www.w3.org/1999/xlink" x="0px" y="0px"
	 width="1275.59px" height="126.14px" viewBox="0 0 1275.59 126.14" enable-background="new 0 0 1275.59 126.14"
	 xml:space="preserve">
<rect fill="#D0D1D2" width="1275.59" height="126.143"/>
<g>
	<radialGradient id="SVGID_1_" cx="1008.7432" cy="58.6528" r="4.4189" gradientUnits="userSpaceOnUse">
		<stop  offset="0" style="stop-color:#FFFFFF"/>
		<stop  offset="1" style="stop-color:#1F2020"/>
	</radialGradient>
	<circle fill="url(#SVGID_1_)" stroke="#030000" stroke-miterlimit="10" cx="1008.743" cy="58.653" r="4.419"/>
	<radialGradient id="SVGID_2_" cx="1033.9932" cy="58.6528" r="4.4189" gradientUnits="userSpaceOnUse">
		<stop  offset="0" style="stop-color:#FFFFFF"/>
		<stop  offset="1" style="stop-color:#1F2020"/>
	</radialGradient>
	<circle fill="url(#SVGID_2_)" stroke="#030000" stroke-miterlimit="10" cx="1033.993" cy="58.653" r="4.419"/>
</g>
<g>
	<radialGradient id="SVGID_3_" cx="1070.7432" cy="58.6528" r="4.4189" gradientUnits="userSpaceOnUse">
		<stop  offset="0" style="stop-color:#FFFFFF"/>
		<stop  offset="1" style="stop-color:#1F2020"/>
	</radialGradient>
	<circle fill="url(#SVGID_3_)" stroke="#030000" stroke-miterlimit="10" cx="1070.743" cy="58.653" r="4.419"/>
	<radialGradient id="SVGID_4_" cx="1095.9932" cy="58.6528" r="4.4189" gradientUnits="userSpaceOnUse">
		<stop  offset="0" style="stop-color:#FFFFFF"/>
		<stop  offset="1" style="stop-color:#1F2020"/>
	</radialGradient>
	<circle fill="url(#SVGID_4_)" stroke="#030000" stroke-miterlimit="10" cx="1095.993" cy="58.653" r="4.419"/>
</g>
<path fill="#4F2871" d="M109.786,92.18c8.027-38.883,74.807-58.623,154.101-47.788V11.207H17.479c-3.641,0-6.593,2.687-6.593,6v97
	c0,3.313,2.952,6,6.593,6h96.378C109.424,110.799,107.896,101.332,109.786,92.18z"/>
<ellipse fill="#F1F1F1" cx="54.219" cy="35.873" rx="34.333" ry="16"/>
<ellipse fill="#181818" cx="54.219" cy="35.873" rx="30.333" ry="14.137"/>
<text transform="matrix(1 0 0 1 26.5532 39.2666)" fill="#FFFFFF" font-family="'Shruti'" font-size="15.9974">radware</text>
<text transform="matrix(1 0 0 1 165.5532 31.2666)" fill="#FFFFFF" font-family="'Shruti'" font-size="15.9974">Linkproof</text>
<circle fill="#DEE7E4" stroke="#9D9D9D" stroke-miterlimit="10" cx="487.386" cy="88.041" r="12.5"/>
<g>
	<circle fill="none" stroke="#2F302F" stroke-miterlimit="10" cx="487.376" cy="88.041" r="4.042"/>
	<path fill="#2E2F2F" d="M487.979,86.936c0,0.242-0.271,0.438-0.604,0.438l0,0c-0.333,0-0.604-0.195-0.604-0.438v-5.875
		c0-0.24,0.271-0.438,0.604-0.438l0,0c0.333,0,0.604,0.197,0.604,0.438V86.936z"/>
</g>
<circle fill="#2E2F2F" cx="515.553" cy="87.373" r="3.333"/>
<radialGradient id="SVGID_5_" cx="1180.9336" cy="68.541" r="10.791" gradientUnits="userSpaceOnUse">
	<stop  offset="0" style="stop-color:#FFFFFF"/>
	<stop  offset="1" style="stop-color:#9E9E9F"/>
</radialGradient>
<circle fill="url(#SVGID_5_)" stroke="#4F4E4E" stroke-miterlimit="10" cx="1180.934" cy="68.541" r="10.791"/>
<radialGradient id="SVGID_6_" cx="1180.7266" cy="88.041" r="10.791" gradientUnits="userSpaceOnUse">
	<stop  offset="0" style="stop-color:#FFFFFF"/>
	<stop  offset="1" style="stop-color:#9E9E9F"/>
</radialGradient>
<circle fill="url(#SVGID_6_)" stroke="#4F4E4E" stroke-miterlimit="10" cx="1180.727" cy="88.041" r="10.791"/>
</svg>
