<?xml version="1.0" encoding="utf-8"?>
<!-- Generator: Adobe Illustrator 16.0.0, SVG Export Plug-In . SVG Version: 6.00 Build 0)  -->
<!DOCTYPE svg PUBLIC "-//W3C//DTD SVG 1.1//EN" "http://www.w3.org/Graphics/SVG/1.1/DTD/svg11.dtd">
<svg version="1.1" id="图层_1" xmlns="http://www.w3.org/2000/svg" xmlns:xlink="http://www.w3.org/1999/xlink" x="0px" y="0px"
	 width="1275.59px" height="126.14px" viewBox="0 0 1275.59 126.14" enable-background="new 0 0 1275.59 126.14"
	 xml:space="preserve">
<rect y="0" fill="#B1B4B5" width="1275.59" height="126.142"/>
<rect x="22.14" y="9.845" fill="#707574" width="263.746" height="107.044"/>
<linearGradient id="SVGID_1_" gradientUnits="userSpaceOnUse" x1="283.9004" y1="63.3667" x2="287.1602" y2="63.3667">
	<stop  offset="0" style="stop-color:#636666"/>
	<stop  offset="0.6735" style="stop-color:#B1B4B5"/>
	<stop  offset="1" style="stop-color:#919292"/>
</linearGradient>
<rect x="283.9" y="9.845" fill="url(#SVGID_1_)" width="3.26" height="107.044"/>
<linearGradient id="SVGID_2_" gradientUnits="userSpaceOnUse" x1="310.4443" y1="64.0723" x2="334.8037" y2="64.0723">
	<stop  offset="0" style="stop-color:#636666"/>
	<stop  offset="0.1122" style="stop-color:#B1B4B5"/>
	<stop  offset="0.9439" style="stop-color:#B1B4B5"/>
	<stop  offset="1" style="stop-color:#919292"/>
</linearGradient>
<rect x="310.444" y="9.845" fill="url(#SVGID_2_)" width="24.359" height="108.454"/>
<linearGradient id="SVGID_3_" gradientUnits="userSpaceOnUse" x1="22.1396" y1="63.3667" x2="25.3994" y2="63.3667">
	<stop  offset="0" style="stop-color:#636666"/>
	<stop  offset="0.6735" style="stop-color:#B1B4B5"/>
	<stop  offset="1" style="stop-color:#919292"/>
</linearGradient>
<rect x="22.14" y="9.845" fill="url(#SVGID_3_)" width="3.26" height="107.044"/>
<g>
	<g>
		<g>
			<circle fill="#030000" cx="93.577" cy="61.889" r="45.567"/>
			<g>
				<g>
					<g>
						<linearGradient id="SVGID_4_" gradientUnits="userSpaceOnUse" x1="46.9155" y1="61.8892" x2="88.0381" y2="61.8892">
							<stop  offset="0" style="stop-color:#B1B4B5"/>
							<stop  offset="0.0806" style="stop-color:#B1B4B5"/>
							<stop  offset="0.129" style="stop-color:#D5D5D5"/>
							<stop  offset="0.2204" style="stop-color:#B1B4B5"/>
							<stop  offset="0.3118" style="stop-color:#717071"/>
							<stop  offset="0.5323" style="stop-color:#717071"/>
							<stop  offset="0.6882" style="stop-color:#B1B4B5"/>
							<stop  offset="0.8817" style="stop-color:#717071"/>
							<stop  offset="1" style="stop-color:#B1B4B5"/>
						</linearGradient>
						<path fill="url(#SVGID_4_)" d="M48.754,68.992l-1.839-3.152c12.399-7.229,26.619-11.054,41.123-11.054v3.65
							C74.18,58.436,60.596,62.086,48.754,68.992z"/>
					</g>
					<g>
						
							<linearGradient id="SVGID_5_" gradientUnits="userSpaceOnUse" x1="-9627.1963" y1="319.6777" x2="-9586.0742" y2="319.6777" gradientTransform="matrix(-1 0 0 -1 -9486.957 381.5664)">
							<stop  offset="0" style="stop-color:#B1B4B5"/>
							<stop  offset="0.0806" style="stop-color:#B1B4B5"/>
							<stop  offset="0.129" style="stop-color:#D5D5D5"/>
							<stop  offset="0.2204" style="stop-color:#B1B4B5"/>
							<stop  offset="0.3118" style="stop-color:#717071"/>
							<stop  offset="0.5323" style="stop-color:#717071"/>
							<stop  offset="0.6882" style="stop-color:#B1B4B5"/>
							<stop  offset="0.8817" style="stop-color:#717071"/>
							<stop  offset="1" style="stop-color:#B1B4B5"/>
						</linearGradient>
						<path fill="url(#SVGID_5_)" d="M138.4,54.786l1.838,3.154c-12.398,7.23-26.619,11.052-41.123,11.052v-3.65
							C112.975,65.342,126.559,61.69,138.4,54.786z"/>
					</g>
				</g>
				<g>
					<g>
						
							<linearGradient id="SVGID_6_" gradientUnits="userSpaceOnUse" x1="-4892.4321" y1="-4619.6733" x2="-4851.3091" y2="-4619.6733" gradientTransform="matrix(0 1 -1 0 -4526.0957 4907.6616)">
							<stop  offset="0" style="stop-color:#B1B4B5"/>
							<stop  offset="0.0806" style="stop-color:#B1B4B5"/>
							<stop  offset="0.129" style="stop-color:#D5D5D5"/>
							<stop  offset="0.2204" style="stop-color:#B1B4B5"/>
							<stop  offset="0.3118" style="stop-color:#717071"/>
							<stop  offset="0.5323" style="stop-color:#717071"/>
							<stop  offset="0.6882" style="stop-color:#B1B4B5"/>
							<stop  offset="0.8817" style="stop-color:#717071"/>
							<stop  offset="1" style="stop-color:#B1B4B5"/>
						</linearGradient>
						<path fill="url(#SVGID_6_)" d="M86.475,17.065l3.153-1.836c7.231,12.398,11.053,26.619,11.053,41.123h-3.65
							C97.03,42.493,93.38,28.909,86.475,17.065z"/>
					</g>
					<g>
						
							<linearGradient id="SVGID_7_" gradientUnits="userSpaceOnUse" x1="-4687.8457" y1="5001.2402" x2="-4646.7246" y2="5001.2402" gradientTransform="matrix(0 -1 1 0 -4907.6621 -4579.2949)">
							<stop  offset="0" style="stop-color:#B1B4B5"/>
							<stop  offset="0.0806" style="stop-color:#B1B4B5"/>
							<stop  offset="0.129" style="stop-color:#D5D5D5"/>
							<stop  offset="0.2204" style="stop-color:#B1B4B5"/>
							<stop  offset="0.3118" style="stop-color:#717071"/>
							<stop  offset="0.5323" style="stop-color:#717071"/>
							<stop  offset="0.6882" style="stop-color:#B1B4B5"/>
							<stop  offset="0.8817" style="stop-color:#717071"/>
							<stop  offset="1" style="stop-color:#B1B4B5"/>
						</linearGradient>
						<path fill="url(#SVGID_7_)" d="M100.681,106.711l-3.153,1.84c-7.23-12.396-11.053-26.619-11.053-41.121h3.65
							C90.125,81.287,93.775,94.871,100.681,106.711z"/>
					</g>
				</g>
				<g>
					<g>
						
							<linearGradient id="SVGID_8_" gradientUnits="userSpaceOnUse" x1="-8256.1963" y1="-3119.5342" x2="-8215.0723" y2="-3119.5342" gradientTransform="matrix(-0.7071 0.7071 -0.7071 -0.7071 -7917.2061 3661.0288)">
							<stop  offset="0" style="stop-color:#B1B4B5"/>
							<stop  offset="0.0806" style="stop-color:#B1B4B5"/>
							<stop  offset="0.129" style="stop-color:#D5D5D5"/>
							<stop  offset="0.2204" style="stop-color:#B1B4B5"/>
							<stop  offset="0.3118" style="stop-color:#717071"/>
							<stop  offset="0.5323" style="stop-color:#717071"/>
							<stop  offset="0.6882" style="stop-color:#B1B4B5"/>
							<stop  offset="0.8817" style="stop-color:#717071"/>
							<stop  offset="1" style="stop-color:#B1B4B5"/>
						</linearGradient>
						<path fill="url(#SVGID_8_)" d="M120.249,25.173l3.53,0.93c-3.654,13.879-11.007,26.639-21.263,36.894l-2.581-2.582
							C109.735,50.616,116.759,38.429,120.249,25.173z"/>
					</g>
					<g>
						
							<linearGradient id="SVGID_9_" gradientUnits="userSpaceOnUse" x1="-1324.0327" y1="3501.2588" x2="-1282.9092" y2="3501.2588" gradientTransform="matrix(0.7071 -0.7071 0.7071 0.7071 -1478.9336 -3317.0791)">
							<stop  offset="0" style="stop-color:#B1B4B5"/>
							<stop  offset="0.0806" style="stop-color:#B1B4B5"/>
							<stop  offset="0.129" style="stop-color:#D5D5D5"/>
							<stop  offset="0.2204" style="stop-color:#B1B4B5"/>
							<stop  offset="0.3118" style="stop-color:#717071"/>
							<stop  offset="0.5323" style="stop-color:#717071"/>
							<stop  offset="0.6882" style="stop-color:#B1B4B5"/>
							<stop  offset="0.8817" style="stop-color:#717071"/>
							<stop  offset="1" style="stop-color:#B1B4B5"/>
						</linearGradient>
						<path fill="url(#SVGID_9_)" d="M66.905,98.607l-3.529-0.93c3.654-13.881,11.007-26.641,21.263-36.894l2.581,2.582
							C77.419,73.164,70.396,85.352,66.905,98.607z"/>
					</g>
				</g>
				<g>
					<g>
						
							<linearGradient id="SVGID_10_" gradientUnits="userSpaceOnUse" x1="-8073.9121" y1="3683.5439" x2="-8032.7881" y2="3683.5439" gradientTransform="matrix(-0.7071 -0.7071 0.7071 -0.7071 -8187.1235 -3009.5439)">
							<stop  offset="0" style="stop-color:#B1B4B5"/>
							<stop  offset="0.0806" style="stop-color:#B1B4B5"/>
							<stop  offset="0.129" style="stop-color:#D5D5D5"/>
							<stop  offset="0.2204" style="stop-color:#B1B4B5"/>
							<stop  offset="0.3118" style="stop-color:#717071"/>
							<stop  offset="0.5323" style="stop-color:#717071"/>
							<stop  offset="0.6882" style="stop-color:#B1B4B5"/>
							<stop  offset="0.8817" style="stop-color:#717071"/>
							<stop  offset="1" style="stop-color:#B1B4B5"/>
						</linearGradient>
						<path fill="url(#SVGID_10_)" d="M130.295,88.563l-0.929,3.531c-13.88-3.656-26.638-11.01-36.894-21.264l2.581-2.582
							C104.852,78.047,117.04,85.072,130.295,88.563z"/>
					</g>
					<g>
						
							<linearGradient id="SVGID_11_" gradientUnits="userSpaceOnUse" x1="-1506.3169" y1="-3301.8174" x2="-1465.1929" y2="-3301.8174" gradientTransform="matrix(0.7071 0.7071 -0.7071 0.7071 -1209.0156 3428.729)">
							<stop  offset="0" style="stop-color:#B1B4B5"/>
							<stop  offset="0.0806" style="stop-color:#B1B4B5"/>
							<stop  offset="0.129" style="stop-color:#D5D5D5"/>
							<stop  offset="0.2204" style="stop-color:#B1B4B5"/>
							<stop  offset="0.3118" style="stop-color:#717071"/>
							<stop  offset="0.5323" style="stop-color:#717071"/>
							<stop  offset="0.6882" style="stop-color:#B1B4B5"/>
							<stop  offset="0.8817" style="stop-color:#717071"/>
							<stop  offset="1" style="stop-color:#B1B4B5"/>
						</linearGradient>
						<path fill="url(#SVGID_11_)" d="M56.861,35.22l0.929-3.529c13.88,3.654,26.639,11.006,36.895,21.264l-2.581,2.58
							C82.303,45.733,70.117,38.708,56.861,35.22z"/>
					</g>
				</g>
			</g>
			<circle fill="#B1B4B5" cx="93.921" cy="61.891" r="22.634"/>
			<circle fill="#BFC0C0" cx="93.921" cy="61.891" r="21.468"/>
		</g>
		<g>
			<g>
				<path fill="#AFAEAE" d="M59.461,109.26c0,3.461-2.809,6.266-6.273,6.266c-3.465,0-6.273-2.805-6.273-6.266
					c0-3.463,2.808-6.268,6.273-6.268C56.653,102.992,59.461,105.797,59.461,109.26"/>
				<ellipse fill="none" stroke="#929292" stroke-miterlimit="10" cx="53.188" cy="109.26" rx="6.273" ry="6.266"/>
				<path fill="#AFAEAE" d="M57.797,109.26c0,2.543-2.064,4.604-4.609,4.604c-2.545,0-4.609-2.061-4.609-4.604
					c0-2.545,2.063-4.604,4.609-4.604C55.733,104.656,57.797,106.715,57.797,109.26"/>
				<ellipse fill="none" stroke="#929292" stroke-miterlimit="10" cx="53.188" cy="109.26" rx="4.609" ry="4.604"/>
				<g>
					<g>
						<defs>
							<rect id="SVGID_12_" x="48.843" y="104.92" width="8.69" height="8.68"/>
						</defs>
						<clipPath id="SVGID_13_">
							<use xlink:href="#SVGID_12_"  overflow="visible"/>
						</clipPath>
						<path clip-path="url(#SVGID_13_)" fill="#BEBEBD" d="M57.532,109.26c0,2.396-1.945,4.34-4.344,4.34s-4.344-1.943-4.344-4.34
							s1.945-4.34,4.344-4.34S57.532,106.863,57.532,109.26"/>
						<path clip-path="url(#SVGID_13_)" fill="#C0C0C0" d="M57.43,109.26c0,2.34-1.899,4.236-4.242,4.236
							c-2.343,0-4.242-1.896-4.242-4.236s1.899-4.238,4.242-4.238C55.531,105.021,57.43,106.92,57.43,109.26"/>
						<path clip-path="url(#SVGID_13_)" fill="#C2C3C3" d="M57.328,109.26c0,2.283-1.853,4.135-4.139,4.135s-4.14-1.852-4.14-4.135
							s1.854-4.137,4.14-4.137S57.328,106.977,57.328,109.26"/>
						<path clip-path="url(#SVGID_13_)" fill="#C4C5C4" d="M57.226,109.26c0,2.229-1.808,4.033-4.037,4.033
							c-2.23,0-4.038-1.805-4.038-4.033s1.808-4.033,4.038-4.033C55.418,105.227,57.226,107.031,57.226,109.26"/>
						<path clip-path="url(#SVGID_13_)" fill="#C6C8C8" d="M57.124,109.26c0,2.17-1.763,3.93-3.936,3.93s-3.936-1.76-3.936-3.93
							c0-2.172,1.763-3.934,3.936-3.934S57.124,107.088,57.124,109.26"/>
						<path clip-path="url(#SVGID_13_)" fill="#C9CACB" d="M57.021,109.26c0,2.113-1.716,3.83-3.833,3.83
							c-2.118,0-3.833-1.717-3.833-3.83c0-2.115,1.715-3.83,3.833-3.83C55.305,105.43,57.021,107.145,57.021,109.26"/>
						<path clip-path="url(#SVGID_13_)" fill="#CBCDCD" d="M56.919,109.26c0,2.057-1.67,3.729-3.731,3.729
							c-2.061,0-3.73-1.672-3.73-3.729c0-2.061,1.669-3.729,3.73-3.729C55.249,105.531,56.919,107.199,56.919,109.26"/>
						<path clip-path="url(#SVGID_13_)" fill="#CCCFD0" d="M56.817,109.26c0,2.002-1.625,3.625-3.629,3.625
							s-3.629-1.623-3.629-3.625s1.625-3.625,3.629-3.625S56.817,107.258,56.817,109.26"/>
						<path clip-path="url(#SVGID_13_)" fill="#D0D2D2" d="M56.715,109.26c0,1.945-1.579,3.523-3.526,3.523
							s-3.527-1.578-3.527-3.523c0-1.947,1.579-3.523,3.527-3.523S56.715,107.313,56.715,109.26"/>
						<path clip-path="url(#SVGID_13_)" fill="#D2D4D5" d="M56.613,109.26c0,1.889-1.533,3.42-3.424,3.42
							c-1.892,0-3.424-1.531-3.424-3.42c0-1.891,1.533-3.422,3.424-3.422C55.08,105.838,56.613,107.369,56.613,109.26"/>
					</g>
				</g>
				<polygon fill="#605F5E" points="52.621,111.869 52.621,109.826 50.576,109.826 50.576,108.691 52.621,108.691 52.621,106.648 
					53.756,106.648 53.756,108.691 55.8,108.691 55.8,109.826 53.756,109.826 53.756,111.869 				"/>
				<path fill="#221714" d="M53.658,106.748v1.846v0.197h0.197h1.848v0.936h-1.848h-0.197v0.197v1.846h-0.938v-1.846v-0.197h-0.197
					h-1.848v-0.936h1.848h0.197v-0.197v-1.846H53.658z M53.854,106.553h-1.332v2.041h-2.044v1.33h2.044v2.043h1.332v-2.043h2.044
					v-1.33h-2.044V106.553z"/>
			</g>
			<g>
				<path fill="#AFAEAE" d="M140.239,109.26c0,3.461-2.808,6.266-6.273,6.266c-3.464,0-6.272-2.805-6.272-6.266
					c0-3.463,2.809-6.268,6.272-6.268C137.431,102.992,140.239,105.797,140.239,109.26"/>
				<ellipse fill="none" stroke="#929292" stroke-miterlimit="10" cx="133.966" cy="109.26" rx="6.273" ry="6.266"/>
				<path fill="#AFAEAE" d="M138.574,109.26c0,2.543-2.063,4.604-4.609,4.604c-2.545,0-4.608-2.061-4.608-4.604
					c0-2.545,2.063-4.604,4.608-4.604C136.511,104.656,138.574,106.715,138.574,109.26"/>
				<circle fill="none" stroke="#929292" stroke-miterlimit="10" cx="133.966" cy="109.26" r="4.608"/>
				<g>
					<g>
						<defs>
							<rect id="SVGID_14_" x="129.62" y="104.92" width="8.691" height="8.68"/>
						</defs>
						<clipPath id="SVGID_15_">
							<use xlink:href="#SVGID_14_"  overflow="visible"/>
						</clipPath>
						<path clip-path="url(#SVGID_15_)" fill="#BEBEBD" d="M138.31,109.26c0,2.396-1.944,4.34-4.344,4.34
							c-2.398,0-4.344-1.943-4.344-4.34s1.945-4.34,4.344-4.34C136.365,104.92,138.31,106.863,138.31,109.26"/>
						<path clip-path="url(#SVGID_15_)" fill="#C0C0C0" d="M138.208,109.26c0,2.34-1.899,4.236-4.243,4.236
							c-2.342,0-4.241-1.896-4.241-4.236s1.899-4.238,4.241-4.238C136.309,105.021,138.208,106.92,138.208,109.26"/>
						<path clip-path="url(#SVGID_15_)" fill="#C2C3C3" d="M138.105,109.26c0,2.283-1.853,4.135-4.14,4.135
							c-2.286,0-4.139-1.852-4.139-4.135s1.854-4.137,4.139-4.137C136.252,105.123,138.105,106.977,138.105,109.26"/>
						<path clip-path="url(#SVGID_15_)" fill="#C4C5C4" d="M138.003,109.26c0,2.229-1.807,4.033-4.038,4.033
							c-2.229,0-4.037-1.805-4.037-4.033s1.808-4.033,4.037-4.033C136.196,105.227,138.003,107.031,138.003,109.26"/>
						<path clip-path="url(#SVGID_15_)" fill="#C6C8C8" d="M137.901,109.26c0,2.17-1.762,3.93-3.936,3.93
							c-2.172,0-3.935-1.76-3.935-3.93c0-2.172,1.762-3.934,3.935-3.934C136.139,105.326,137.901,107.088,137.901,109.26"/>
						<path clip-path="url(#SVGID_15_)" fill="#C9CACB" d="M137.799,109.26c0,2.113-1.716,3.83-3.833,3.83
							c-2.117,0-3.833-1.717-3.833-3.83c0-2.115,1.716-3.83,3.833-3.83C136.083,105.43,137.799,107.145,137.799,109.26"/>
						<path clip-path="url(#SVGID_15_)" fill="#CBCDCD" d="M137.697,109.26c0,2.057-1.67,3.729-3.731,3.729
							c-2.061,0-3.73-1.672-3.73-3.729c0-2.061,1.669-3.729,3.73-3.729C136.026,105.531,137.697,107.199,137.697,109.26"/>
						<path clip-path="url(#SVGID_15_)" fill="#CCCFD0" d="M137.595,109.26c0,2.002-1.625,3.625-3.63,3.625
							c-2.003,0-3.628-1.623-3.628-3.625s1.625-3.625,3.628-3.625C135.97,105.635,137.595,107.258,137.595,109.26"/>
						<path clip-path="url(#SVGID_15_)" fill="#D0D2D2" d="M137.493,109.26c0,1.945-1.579,3.523-3.527,3.523
							c-1.947,0-3.526-1.578-3.526-3.523c0-1.947,1.579-3.523,3.526-3.523C135.914,105.736,137.493,107.313,137.493,109.26"/>
						<path clip-path="url(#SVGID_15_)" fill="#D2D4D5" d="M137.391,109.26c0,1.889-1.533,3.42-3.425,3.42
							c-1.891,0-3.424-1.531-3.424-3.42c0-1.891,1.533-3.422,3.424-3.422C135.857,105.838,137.391,107.369,137.391,109.26"/>
					</g>
				</g>
				<polygon fill="#605F5E" points="133.398,111.869 133.398,109.826 131.354,109.826 131.354,108.691 133.398,108.691 
					133.398,106.648 134.533,106.648 134.533,108.691 136.578,108.691 136.578,109.826 134.533,109.826 134.533,111.869 				"/>
				<path fill="#221714" d="M134.436,106.748v1.846v0.197h0.196h1.848v0.936h-1.848h-0.196v0.197v1.846h-0.938v-1.846v-0.197H133.3
					h-1.848v-0.936h1.848h0.197v-0.197v-1.846H134.436z M134.632,106.553H133.3v2.041h-2.044v1.33h2.044v2.043h1.332v-2.043h2.044
					v-1.33h-2.044V106.553z"/>
			</g>
		</g>
		<g>
			<g>
				<path fill="#AFAEAE" d="M59.461,19.368c0,3.461-2.809,6.266-6.273,6.266c-3.465,0-6.273-2.805-6.273-6.266
					c0-3.462,2.808-6.268,6.273-6.268C56.653,13.101,59.461,15.906,59.461,19.368"/>
				<ellipse fill="none" stroke="#929292" stroke-miterlimit="10" cx="53.188" cy="19.368" rx="6.273" ry="6.266"/>
				<path fill="#AFAEAE" d="M57.797,19.368c0,2.543-2.064,4.604-4.609,4.604c-2.545,0-4.609-2.061-4.609-4.604
					c0-2.545,2.063-4.605,4.609-4.605C55.733,14.763,57.797,16.823,57.797,19.368"/>
				<ellipse fill="none" stroke="#929292" stroke-miterlimit="10" cx="53.188" cy="19.368" rx="4.609" ry="4.604"/>
				<g>
					<g>
						<defs>
							<rect id="SVGID_16_" x="48.843" y="15.029" width="8.69" height="8.679"/>
						</defs>
						<clipPath id="SVGID_17_">
							<use xlink:href="#SVGID_16_"  overflow="visible"/>
						</clipPath>
						<path clip-path="url(#SVGID_17_)" fill="#BEBEBD" d="M57.532,19.368c0,2.396-1.945,4.34-4.344,4.34s-4.344-1.943-4.344-4.34
							c0-2.398,1.945-4.339,4.344-4.339S57.532,16.97,57.532,19.368"/>
						<path clip-path="url(#SVGID_17_)" fill="#C0C0C0" d="M57.43,19.368c0,2.34-1.899,4.236-4.242,4.236
							c-2.343,0-4.242-1.896-4.242-4.236c0-2.339,1.899-4.238,4.242-4.238C55.531,15.13,57.43,17.029,57.43,19.368"/>
						<path clip-path="url(#SVGID_17_)" fill="#C2C3C3" d="M57.328,19.368c0,2.283-1.853,4.135-4.139,4.135s-4.14-1.852-4.14-4.135
							s1.854-4.137,4.14-4.137S57.328,17.085,57.328,19.368"/>
						<path clip-path="url(#SVGID_17_)" fill="#C4C5C4" d="M57.226,19.368c0,2.227-1.808,4.033-4.037,4.033
							c-2.23,0-4.038-1.807-4.038-4.033c0-2.229,1.808-4.033,4.038-4.033C55.418,15.335,57.226,17.14,57.226,19.368"/>
						<path clip-path="url(#SVGID_17_)" fill="#C6C8C8" d="M57.124,19.368c0,2.17-1.763,3.93-3.936,3.93s-3.936-1.76-3.936-3.93
							c0-2.171,1.763-3.934,3.936-3.934S57.124,17.197,57.124,19.368"/>
						<path clip-path="url(#SVGID_17_)" fill="#C9CACB" d="M57.021,19.368c0,2.113-1.716,3.83-3.833,3.83
							c-2.118,0-3.833-1.717-3.833-3.83c0-2.115,1.715-3.83,3.833-3.83C55.305,15.538,57.021,17.253,57.021,19.368"/>
						<path clip-path="url(#SVGID_17_)" fill="#CBCDCD" d="M56.919,19.368c0,2.057-1.67,3.727-3.731,3.727
							c-2.061,0-3.73-1.67-3.73-3.727c0-2.061,1.669-3.729,3.73-3.729C55.249,15.64,56.919,17.308,56.919,19.368"/>
						<path clip-path="url(#SVGID_17_)" fill="#CCCFD0" d="M56.817,19.368c0,2.002-1.625,3.625-3.629,3.625
							s-3.629-1.623-3.629-3.625s1.625-3.625,3.629-3.625S56.817,17.366,56.817,19.368"/>
						<path clip-path="url(#SVGID_17_)" fill="#D0D2D2" d="M56.715,19.368c0,1.945-1.579,3.523-3.526,3.523
							s-3.527-1.578-3.527-3.523c0-1.947,1.579-3.525,3.527-3.525S56.715,17.421,56.715,19.368"/>
						<path clip-path="url(#SVGID_17_)" fill="#D2D4D5" d="M56.613,19.368c0,1.889-1.533,3.42-3.424,3.42
							c-1.892,0-3.424-1.531-3.424-3.42c0-1.891,1.533-3.421,3.424-3.421C55.08,15.947,56.613,17.478,56.613,19.368"/>
					</g>
				</g>
				<polygon fill="#605F5E" points="52.621,21.978 52.621,19.935 50.576,19.935 50.576,18.8 52.621,18.8 52.621,16.757 
					53.756,16.757 53.756,18.8 55.8,18.8 55.8,19.935 53.756,19.935 53.756,21.978 				"/>
				<path fill="#221714" d="M53.658,16.856v1.846v0.197h0.197h1.848v0.936h-1.848h-0.197v0.197v1.846h-0.938v-1.846v-0.197h-0.197
					h-1.848v-0.936h1.848h0.197v-0.197v-1.846H53.658z M53.854,16.661h-1.332v2.041h-2.044v1.33h2.044v2.043h1.332v-2.043h2.044
					v-1.33h-2.044V16.661z"/>
			</g>
			<g>
				<path fill="#AFAEAE" d="M140.239,19.368c0,3.461-2.808,6.266-6.273,6.266c-3.464,0-6.272-2.805-6.272-6.266
					c0-3.462,2.809-6.268,6.272-6.268C137.431,13.101,140.239,15.906,140.239,19.368"/>
				<ellipse fill="none" stroke="#929292" stroke-miterlimit="10" cx="133.966" cy="19.368" rx="6.273" ry="6.266"/>
				<path fill="#AFAEAE" d="M138.574,19.368c0,2.543-2.063,4.604-4.609,4.604c-2.545,0-4.608-2.061-4.608-4.604
					c0-2.545,2.063-4.605,4.608-4.605C136.511,14.763,138.574,16.823,138.574,19.368"/>
				<circle fill="none" stroke="#929292" stroke-miterlimit="10" cx="133.966" cy="19.368" r="4.608"/>
				<g>
					<g>
						<defs>
							<rect id="SVGID_18_" x="129.62" y="15.029" width="8.691" height="8.679"/>
						</defs>
						<clipPath id="SVGID_19_">
							<use xlink:href="#SVGID_18_"  overflow="visible"/>
						</clipPath>
						<path clip-path="url(#SVGID_19_)" fill="#BEBEBD" d="M138.31,19.368c0,2.396-1.944,4.34-4.344,4.34
							c-2.398,0-4.344-1.943-4.344-4.34c0-2.398,1.945-4.339,4.344-4.339C136.365,15.029,138.31,16.97,138.31,19.368"/>
						<path clip-path="url(#SVGID_19_)" fill="#C0C0C0" d="M138.208,19.368c0,2.34-1.899,4.236-4.243,4.236
							c-2.342,0-4.241-1.896-4.241-4.236c0-2.339,1.899-4.238,4.241-4.238C136.309,15.13,138.208,17.029,138.208,19.368"/>
						<path clip-path="url(#SVGID_19_)" fill="#C2C3C3" d="M138.105,19.368c0,2.283-1.853,4.135-4.14,4.135
							c-2.286,0-4.139-1.852-4.139-4.135s1.854-4.137,4.139-4.137C136.252,15.231,138.105,17.085,138.105,19.368"/>
						<path clip-path="url(#SVGID_19_)" fill="#C4C5C4" d="M138.003,19.368c0,2.227-1.807,4.033-4.038,4.033
							c-2.229,0-4.037-1.807-4.037-4.033c0-2.229,1.808-4.033,4.037-4.033C136.196,15.335,138.003,17.14,138.003,19.368"/>
						<path clip-path="url(#SVGID_19_)" fill="#C6C8C8" d="M137.901,19.368c0,2.17-1.762,3.93-3.936,3.93
							c-2.172,0-3.935-1.76-3.935-3.93c0-2.171,1.762-3.934,3.935-3.934C136.139,15.435,137.901,17.197,137.901,19.368"/>
						<path clip-path="url(#SVGID_19_)" fill="#C9CACB" d="M137.799,19.368c0,2.113-1.716,3.83-3.833,3.83
							c-2.117,0-3.833-1.717-3.833-3.83c0-2.115,1.716-3.83,3.833-3.83C136.083,15.538,137.799,17.253,137.799,19.368"/>
						<path clip-path="url(#SVGID_19_)" fill="#CBCDCD" d="M137.697,19.368c0,2.057-1.67,3.727-3.731,3.727
							c-2.061,0-3.73-1.67-3.73-3.727c0-2.061,1.669-3.729,3.73-3.729C136.026,15.64,137.697,17.308,137.697,19.368"/>
						<path clip-path="url(#SVGID_19_)" fill="#CCCFD0" d="M137.595,19.368c0,2.002-1.625,3.625-3.63,3.625
							c-2.003,0-3.628-1.623-3.628-3.625s1.625-3.625,3.628-3.625C135.97,15.743,137.595,17.366,137.595,19.368"/>
						<path clip-path="url(#SVGID_19_)" fill="#D0D2D2" d="M137.493,19.368c0,1.945-1.579,3.523-3.527,3.523
							c-1.947,0-3.526-1.578-3.526-3.523c0-1.947,1.579-3.525,3.526-3.525C135.914,15.843,137.493,17.421,137.493,19.368"/>
						<path clip-path="url(#SVGID_19_)" fill="#D2D4D5" d="M137.391,19.368c0,1.889-1.533,3.42-3.425,3.42
							c-1.891,0-3.424-1.531-3.424-3.42c0-1.891,1.533-3.421,3.424-3.421C135.857,15.947,137.391,17.478,137.391,19.368"/>
					</g>
				</g>
				<polygon fill="#605F5E" points="133.398,21.978 133.398,19.935 131.354,19.935 131.354,18.8 133.398,18.8 133.398,16.757 
					134.533,16.757 134.533,18.8 136.578,18.8 136.578,19.935 134.533,19.935 134.533,21.978 				"/>
				<path fill="#221714" d="M134.436,16.856v1.846v0.197h0.196h1.848v0.936h-1.848h-0.196v0.197v1.846h-0.938v-1.846v-0.197H133.3
					h-1.848v-0.936h1.848h0.197v-0.197v-1.846H134.436z M134.632,16.661H133.3v2.041h-2.044v1.33h2.044v2.043h1.332v-2.043h2.044
					v-1.33h-2.044V16.661z"/>
			</g>
		</g>
	</g>
	<g>
		<path fill="none" stroke="#929292" stroke-miterlimit="10" d="M100.623,61.315c0,3.333-2.707,6.039-6.046,6.039
			s-6.046-2.705-6.046-6.039c0-3.338,2.707-6.042,6.046-6.042S100.623,57.977,100.623,61.315z"/>
		<g>
			<path fill="#AFAEAE" d="M100.623,61.315c0,3.333-2.707,6.039-6.046,6.039s-6.046-2.705-6.046-6.039
				c0-3.338,2.707-6.042,6.046-6.042S100.623,57.977,100.623,61.315"/>
			<g>
				<g>
					<defs>
						<rect id="SVGID_20_" x="90.39" y="57.131" width="8.375" height="8.365"/>
					</defs>
					<clipPath id="SVGID_21_">
						<use xlink:href="#SVGID_20_"  overflow="visible"/>
					</clipPath>
					<path clip-path="url(#SVGID_21_)" fill="#BEBEBD" d="M98.764,61.315c0,2.309-1.875,4.181-4.187,4.181
						c-2.313,0-4.187-1.873-4.187-4.181c0-2.311,1.875-4.184,4.187-4.184C96.89,57.131,98.764,59.004,98.764,61.315"/>
					<path clip-path="url(#SVGID_21_)" fill="#C0C0C0" d="M98.666,61.315c0,2.254-1.831,4.082-4.088,4.082
						c-2.258,0-4.088-1.828-4.088-4.082c0-2.256,1.831-4.086,4.088-4.086C96.835,57.229,98.666,59.059,98.666,61.315"/>
					<path clip-path="url(#SVGID_21_)" fill="#C2C3C3" d="M98.567,61.315c0,2.199-1.786,3.984-3.99,3.984s-3.99-1.785-3.99-3.984
						c0-2.203,1.786-3.989,3.99-3.989S98.567,59.112,98.567,61.315"/>
					<path clip-path="url(#SVGID_21_)" fill="#C4C5C4" d="M98.469,61.315c0,2.146-1.742,3.886-3.891,3.886s-3.892-1.74-3.892-3.886
						c0-2.148,1.742-3.889,3.892-3.889S98.469,59.167,98.469,61.315"/>
					<path clip-path="url(#SVGID_21_)" fill="#C6C8C8" d="M98.37,61.315c0,2.092-1.698,3.787-3.792,3.787
						c-2.095,0-3.792-1.695-3.792-3.787c0-2.094,1.698-3.791,3.792-3.791C96.672,57.524,98.37,59.221,98.37,61.315"/>
					<path clip-path="url(#SVGID_21_)" fill="#C9CACB" d="M98.272,61.315c0,2.037-1.654,3.689-3.694,3.689s-3.695-1.652-3.695-3.689
						c0-2.039,1.654-3.691,3.695-3.691S98.272,59.276,98.272,61.315"/>
					<path clip-path="url(#SVGID_21_)" fill="#CBCDCD" d="M98.173,61.315c0,1.982-1.609,3.591-3.595,3.591
						c-1.986,0-3.595-1.609-3.595-3.591c0-1.984,1.609-3.594,3.595-3.594C96.563,57.721,98.173,59.331,98.173,61.315"/>
					<path clip-path="url(#SVGID_21_)" fill="#CCCFD0" d="M98.075,61.315c0,1.928-1.566,3.492-3.498,3.492s-3.498-1.564-3.498-3.492
						c0-1.932,1.567-3.496,3.498-3.496S98.075,59.383,98.075,61.315"/>
					<path clip-path="url(#SVGID_21_)" fill="#D0D2D2" d="M97.977,61.315c0,1.873-1.521,3.394-3.399,3.394
						c-1.877,0-3.399-1.521-3.399-3.394c0-1.877,1.522-3.396,3.399-3.396C96.455,57.918,97.977,59.438,97.977,61.315"/>
					<path clip-path="url(#SVGID_21_)" fill="#D2D4D5" d="M97.878,61.315c0,1.82-1.478,3.294-3.3,3.294
						c-1.823,0-3.301-1.474-3.301-3.294c0-1.822,1.478-3.299,3.301-3.299C96.4,58.016,97.878,59.493,97.878,61.315"/>
				</g>
			</g>
			<rect x="92.09" y="60.76" fill="#605F5E" width="4.974" height="1.105"/>
		</g>
	</g>
</g>
<linearGradient id="SVGID_22_" gradientUnits="userSpaceOnUse" x1="637.7954" y1="9.8447" x2="637.7954" y2="0">
	<stop  offset="0" style="stop-color:#636666"/>
	<stop  offset="0.6735" style="stop-color:#B1B4B5"/>
	<stop  offset="1" style="stop-color:#919292"/>
</linearGradient>
<rect fill="url(#SVGID_22_)" width="1275.59" height="9.845"/>
<linearGradient id="SVGID_23_" gradientUnits="userSpaceOnUse" x1="637.7954" y1="126.1426" x2="637.7954" y2="118.2988">
	<stop  offset="0" style="stop-color:#636666"/>
	<stop  offset="0.6735" style="stop-color:#B1B4B5"/>
	<stop  offset="1" style="stop-color:#919292"/>
</linearGradient>
<rect y="118.299" fill="url(#SVGID_23_)" width="1275.59" height="7.844"/>
<g>
	<path fill="#AFAEAE" d="M307.297,64.314c0,6.102-4.95,11.049-11.06,11.049c-6.11,0-11.06-4.947-11.06-11.049
		c0-6.104,4.95-11.052,11.06-11.052C302.348,53.263,307.297,58.21,307.297,64.314"/>
	<ellipse fill="none" stroke="#929292" stroke-miterlimit="10" cx="296.237" cy="64.314" rx="11.06" ry="11.049"/>
	<path fill="#AFAEAE" d="M304.364,64.314c0,4.482-3.639,8.117-8.127,8.117c-4.487,0-8.127-3.635-8.127-8.117
		c0-4.484,3.64-8.12,8.127-8.12C300.726,56.195,304.364,59.831,304.364,64.314"/>
	<ellipse fill="none" stroke="#929292" stroke-miterlimit="10" cx="296.237" cy="64.314" rx="8.127" ry="8.117"/>
	<g>
		<g>
			<defs>
				<rect id="SVGID_24_" x="288.576" y="56.661" width="15.324" height="15.306"/>
			</defs>
			<clipPath id="SVGID_25_">
				<use xlink:href="#SVGID_24_"  overflow="visible"/>
			</clipPath>
			<path clip-path="url(#SVGID_25_)" fill="#BEBEBD" d="M303.897,64.314c0,4.225-3.43,7.652-7.66,7.652
				c-4.229,0-7.659-3.428-7.659-7.652c0-4.227,3.43-7.653,7.659-7.653C300.467,56.661,303.897,60.087,303.897,64.314"/>
			<path clip-path="url(#SVGID_25_)" fill="#C0C0C0" d="M303.716,64.314c0,4.125-3.348,7.471-7.479,7.471s-7.479-3.346-7.479-7.471
				c0-4.126,3.348-7.474,7.479-7.474S303.716,60.188,303.716,64.314"/>
			<path clip-path="url(#SVGID_25_)" fill="#C2C3C3" d="M303.538,64.314c0,4.025-3.27,7.291-7.301,7.291
				c-4.031,0-7.297-3.266-7.297-7.291c0-4.028,3.266-7.294,7.297-7.294C300.269,57.021,303.538,60.287,303.538,64.314"/>
			<path clip-path="url(#SVGID_25_)" fill="#C4C5C4" d="M303.356,64.314c0,3.928-3.187,7.111-7.119,7.111
				c-3.932,0-7.119-3.184-7.119-7.111c0-3.929,3.188-7.113,7.119-7.113C300.17,57.201,303.356,60.385,303.356,64.314"/>
			<path clip-path="url(#SVGID_25_)" fill="#C6C8C8" d="M303.176,64.314c0,3.824-3.107,6.932-6.938,6.932s-6.938-3.107-6.938-6.932
				c0-3.829,3.107-6.935,6.938-6.935S303.176,60.486,303.176,64.314"/>
			<path clip-path="url(#SVGID_25_)" fill="#C9CACB" d="M302.996,64.314c0,3.729-3.025,6.752-6.759,6.752
				c-3.735,0-6.759-3.023-6.759-6.752c0-3.73,3.024-6.753,6.759-6.753C299.971,57.561,302.996,60.584,302.996,64.314"/>
			<path clip-path="url(#SVGID_25_)" fill="#CBCDCD" d="M302.816,64.314c0,3.629-2.947,6.57-6.579,6.57
				c-3.633,0-6.578-2.941-6.578-6.57c0-3.63,2.945-6.574,6.578-6.574C299.869,57.741,302.816,60.684,302.816,64.314"/>
			<path clip-path="url(#SVGID_25_)" fill="#CCCFD0" d="M302.636,64.314c0,3.527-2.865,6.393-6.398,6.393s-6.399-2.865-6.399-6.393
				c0-3.532,2.866-6.392,6.399-6.392S302.636,60.783,302.636,64.314"/>
			<path clip-path="url(#SVGID_25_)" fill="#D0D2D2" d="M302.456,64.314c0,3.43-2.783,6.211-6.219,6.211
				c-3.435,0-6.218-2.781-6.218-6.211c0-3.431,2.784-6.214,6.218-6.214C299.673,58.1,302.456,60.883,302.456,64.314"/>
			<path clip-path="url(#SVGID_25_)" fill="#D2D4D5" d="M302.275,64.314c0,3.33-2.703,6.031-6.038,6.031
				c-3.335,0-6.038-2.701-6.038-6.031c0-3.333,2.702-6.034,6.038-6.034C299.572,58.281,302.275,60.982,302.275,64.314"/>
		</g>
	</g>
	<polygon fill="#605F5E" points="295.237,68.914 295.237,65.314 291.632,65.314 291.632,63.313 295.237,63.313 295.237,59.711 
		297.237,59.711 297.237,63.313 300.844,63.313 300.844,65.314 297.237,65.314 297.237,68.914 	"/>
	<path fill="#221714" d="M297.064,59.885v3.254v0.348h0.345h3.261v1.652h-3.261h-0.345v0.348v3.254h-1.653v-3.254v-0.348h-0.349
		h-3.259v-1.652h3.259h0.349v-0.348v-3.254H297.064z M297.409,59.54h-2.346v3.6h-3.605v2.347h3.605v3.602h2.346v-3.602h3.605v-2.347
		h-3.605V59.54z"/>
</g>
<g>
	<path fill="#AFAEAE" d="M332.994,21.341c0,5.75-4.664,10.413-10.422,10.413c-5.757,0-10.422-4.663-10.422-10.413
		c0-5.752,4.665-10.414,10.422-10.414C328.33,10.927,332.994,15.589,332.994,21.341"/>
	<ellipse fill="none" stroke="#929292" stroke-miterlimit="10" cx="322.572" cy="21.341" rx="10.422" ry="10.413"/>
	<path fill="#AFAEAE" d="M330.23,21.341c0,4.224-3.429,7.65-7.659,7.65c-4.229,0-7.658-3.426-7.658-7.65
		c0-4.226,3.43-7.652,7.658-7.652C326.801,13.689,330.23,17.115,330.23,21.341"/>
	<ellipse fill="none" stroke="#929292" stroke-miterlimit="10" cx="322.572" cy="21.341" rx="7.658" ry="7.65"/>
	<g>
		<g>
			<defs>
				<rect id="SVGID_26_" x="315.352" y="14.129" width="14.44" height="14.423"/>
			</defs>
			<clipPath id="SVGID_27_">
				<use xlink:href="#SVGID_26_"  overflow="visible"/>
			</clipPath>
			<path clip-path="url(#SVGID_27_)" fill="#BEBEBD" d="M329.79,21.341c0,3.982-3.232,7.211-7.218,7.211
				c-3.985,0-7.217-3.229-7.217-7.211c0-3.983,3.232-7.212,7.217-7.212C326.558,14.129,329.79,17.357,329.79,21.341"/>
			<path clip-path="url(#SVGID_27_)" fill="#C0C0C0" d="M329.619,21.341c0,3.887-3.155,7.04-7.047,7.04
				c-3.893,0-7.047-3.153-7.047-7.04c0-3.889,3.154-7.043,7.047-7.043C326.464,14.298,329.619,17.452,329.619,21.341"/>
			<path clip-path="url(#SVGID_27_)" fill="#C2C3C3" d="M329.451,21.341c0,3.794-3.081,6.872-6.879,6.872s-6.876-3.078-6.876-6.872
				c0-3.795,3.078-6.873,6.876-6.873S329.451,17.545,329.451,21.341"/>
			<path clip-path="url(#SVGID_27_)" fill="#C4C5C4" d="M329.28,21.341c0,3.701-3.002,6.701-6.708,6.701s-6.709-3-6.709-6.701
				c0-3.702,3.003-6.703,6.709-6.703S329.28,17.639,329.28,21.341"/>
			<path clip-path="url(#SVGID_27_)" fill="#C6C8C8" d="M329.11,21.341c0,3.605-2.929,6.533-6.539,6.533
				c-3.61,0-6.539-2.928-6.539-6.533c0-3.608,2.928-6.535,6.539-6.535C326.182,14.806,329.11,17.733,329.11,21.341"/>
			<path clip-path="url(#SVGID_27_)" fill="#C9CACB" d="M328.94,21.341c0,3.513-2.85,6.362-6.369,6.362
				c-3.52,0-6.369-2.849-6.369-6.362c0-3.514,2.849-6.364,6.369-6.364C326.09,14.977,328.94,17.827,328.94,21.341"/>
			<path clip-path="url(#SVGID_27_)" fill="#CBCDCD" d="M328.771,21.341c0,3.419-2.777,6.191-6.2,6.191
				c-3.423,0-6.199-2.772-6.199-6.191c0-3.421,2.775-6.194,6.199-6.194C325.994,15.146,328.771,17.919,328.771,21.341"/>
			<path clip-path="url(#SVGID_27_)" fill="#CCCFD0" d="M328.601,21.341c0,3.325-2.7,6.024-6.029,6.024s-6.03-2.699-6.03-6.024
				c0-3.328,2.701-6.023,6.03-6.023S328.601,18.013,328.601,21.341"/>
			<path clip-path="url(#SVGID_27_)" fill="#D0D2D2" d="M328.432,21.341c0,3.232-2.622,5.854-5.86,5.854
				c-3.236,0-5.859-2.622-5.859-5.854c0-3.233,2.623-5.856,5.859-5.856C325.81,15.485,328.432,18.107,328.432,21.341"/>
			<path clip-path="url(#SVGID_27_)" fill="#D2D4D5" d="M328.261,21.341c0,3.138-2.547,5.684-5.689,5.684
				c-3.143,0-5.689-2.545-5.689-5.684c0-3.14,2.546-5.685,5.689-5.685C325.714,15.656,328.261,18.201,328.261,21.341"/>
		</g>
	</g>
	<polygon fill="#605F5E" points="321.629,25.676 321.629,22.283 318.232,22.283 318.232,20.397 321.629,20.397 321.629,17.003 
		323.515,17.003 323.515,20.397 326.912,20.397 326.912,22.283 323.515,22.283 323.515,25.676 	"/>
	<path fill="#221714" d="M323.351,17.167v3.067v0.327h0.326h3.072v1.557h-3.072h-0.326v0.327v3.067h-1.557v-3.067v-0.327h-0.329
		h-3.071v-1.557h3.071h0.329v-0.327v-3.067H323.351z M323.676,16.842h-2.211v3.392h-3.396v2.211h3.396v3.394h2.211v-3.394h3.397
		v-2.211h-3.397V16.842z"/>
</g>
<g>
	<path fill="#AFAEAE" d="M821.129,21.978c0,5.75-4.664,10.413-10.422,10.413s-10.422-4.663-10.422-10.413
		c0-5.751,4.664-10.414,10.422-10.414S821.129,16.226,821.129,21.978"/>
	<ellipse fill="none" stroke="#929292" stroke-miterlimit="10" cx="810.707" cy="21.978" rx="10.422" ry="10.413"/>
	<path fill="#AFAEAE" d="M818.365,21.978c0,4.225-3.43,7.65-7.658,7.65s-7.658-3.426-7.658-7.65c0-4.225,3.43-7.651,7.658-7.651
		S818.365,17.752,818.365,21.978"/>
	<ellipse fill="none" stroke="#929292" stroke-miterlimit="10" cx="810.707" cy="21.978" rx="7.658" ry="7.65"/>
	<g>
		<g>
			<defs>
				<rect id="SVGID_28_" x="803.486" y="14.766" width="14.439" height="14.422"/>
			</defs>
			<clipPath id="SVGID_29_">
				<use xlink:href="#SVGID_28_"  overflow="visible"/>
			</clipPath>
			<path clip-path="url(#SVGID_29_)" fill="#BEBEBD" d="M817.924,21.978c0,3.982-3.23,7.211-7.217,7.211s-7.217-3.229-7.217-7.211
				c0-3.983,3.23-7.211,7.217-7.211S817.924,17.995,817.924,21.978"/>
			<path clip-path="url(#SVGID_29_)" fill="#C0C0C0" d="M817.754,21.978c0,3.887-3.154,7.041-7.047,7.041s-7.047-3.153-7.047-7.041
				c0-3.889,3.154-7.042,7.047-7.042S817.754,18.089,817.754,21.978"/>
			<path clip-path="url(#SVGID_29_)" fill="#C2C3C3" d="M817.586,21.978c0,3.794-3.08,6.872-6.879,6.872s-6.877-3.078-6.877-6.872
				c0-3.795,3.078-6.873,6.877-6.873S817.586,18.183,817.586,21.978"/>
			<path clip-path="url(#SVGID_29_)" fill="#C4C5C4" d="M817.414,21.978c0,3.701-3.002,6.702-6.707,6.702s-6.709-3-6.709-6.702
				c0-3.702,3.004-6.703,6.709-6.703S817.414,18.276,817.414,21.978"/>
			<path clip-path="url(#SVGID_29_)" fill="#C6C8C8" d="M817.244,21.978c0,3.605-2.928,6.533-6.537,6.533
				c-3.611,0-6.539-2.928-6.539-6.533c0-3.607,2.928-6.534,6.539-6.534C814.316,15.443,817.244,18.37,817.244,21.978"/>
			<path clip-path="url(#SVGID_29_)" fill="#C9CACB" d="M817.076,21.978c0,3.514-2.852,6.363-6.369,6.363
				c-3.52,0-6.369-2.85-6.369-6.363s2.85-6.364,6.369-6.364C814.225,15.614,817.076,18.464,817.076,21.978"/>
			<path clip-path="url(#SVGID_29_)" fill="#CBCDCD" d="M816.906,21.978c0,3.42-2.777,6.192-6.199,6.192
				c-3.424,0-6.199-2.772-6.199-6.192c0-3.421,2.775-6.194,6.199-6.194C814.129,15.784,816.906,18.557,816.906,21.978"/>
			<path clip-path="url(#SVGID_29_)" fill="#CCCFD0" d="M816.736,21.978c0,3.325-2.701,6.024-6.029,6.024
				c-3.33,0-6.031-2.699-6.031-6.024c0-3.328,2.701-6.023,6.031-6.023C814.035,15.955,816.736,18.65,816.736,21.978"/>
			<path clip-path="url(#SVGID_29_)" fill="#D0D2D2" d="M816.566,21.978c0,3.232-2.623,5.854-5.859,5.854s-5.859-2.622-5.859-5.854
				c0-3.233,2.623-5.855,5.859-5.855S816.566,18.745,816.566,21.978"/>
			<path clip-path="url(#SVGID_29_)" fill="#D2D4D5" d="M816.396,21.978c0,3.139-2.547,5.684-5.689,5.684
				c-3.145,0-5.689-2.545-5.689-5.684c0-3.14,2.545-5.685,5.689-5.685C813.85,16.292,816.396,18.838,816.396,21.978"/>
		</g>
	</g>
	<polygon fill="#605F5E" points="809.764,26.313 809.764,22.92 806.367,22.92 806.367,21.034 809.764,21.034 809.764,17.641 
		811.648,17.641 811.648,21.034 815.047,21.034 815.047,22.92 811.648,22.92 811.648,26.313 	"/>
	<path fill="#221714" d="M811.484,17.804v3.067v0.327h0.326h3.072v1.557h-3.072h-0.326v0.327v3.067h-1.557v-3.067v-0.327H809.6
		h-3.07v-1.557h3.07h0.328v-0.327v-3.067H811.484z M811.811,17.479H809.6v3.392h-3.396v2.211h3.396v3.394h2.211v-3.394h3.398v-2.211
		h-3.398V17.479z"/>
</g>
<g>
	<rect x="314.914" y="35.791" fill="#2C2D2D" width="16.343" height="18.551"/>
	<rect x="313.244" y="35.791" fill="#D1D4D5" width="1.67" height="18.551"/>
</g>
<g>
	<g>
		<rect x="460.359" y="10.362" fill="#2C2D2D" width="16.831" height="14.829"/>
		<rect x="460.359" y="25.19" fill="#D1D4D5" width="16.831" height="1.515"/>
	</g>
	<g>
		<rect x="483.11" y="10.362" fill="#2C2D2D" width="16.831" height="14.829"/>
		<rect x="483.11" y="25.19" fill="#D1D4D5" width="16.831" height="1.515"/>
	</g>
	<g>
		<rect x="505.861" y="10.362" fill="#2C2D2D" width="16.832" height="14.829"/>
		<rect x="505.861" y="25.19" fill="#D1D4D5" width="16.832" height="1.515"/>
	</g>
	<g>
		<rect x="528.612" y="10.362" fill="#2C2D2D" width="16.831" height="14.829"/>
		<rect x="528.612" y="25.19" fill="#D1D4D5" width="16.831" height="1.515"/>
	</g>
	<g>
		<rect x="551.363" y="10.362" fill="#2C2D2D" width="16.831" height="14.829"/>
		<rect x="551.363" y="25.19" fill="#D1D4D5" width="16.831" height="1.515"/>
	</g>
	<g>
		<rect x="574.114" y="10.362" fill="#2C2D2D" width="16.831" height="14.829"/>
		<rect x="574.114" y="25.19" fill="#D1D4D5" width="16.831" height="1.515"/>
	</g>
	<g>
		<rect x="596.865" y="10.362" fill="#2C2D2D" width="16.831" height="14.829"/>
		<rect x="596.865" y="25.19" fill="#D1D4D5" width="16.831" height="1.515"/>
	</g>
	<g>
		<rect x="619.616" y="10.362" fill="#2C2D2D" width="16.831" height="14.829"/>
		<rect x="619.616" y="25.19" fill="#D1D4D5" width="16.831" height="1.515"/>
	</g>
</g>
<g>
	<g>
		<rect x="460.359" y="31.085" fill="#2C2D2D" width="16.831" height="14.829"/>
		<rect x="460.359" y="45.914" fill="#D1D4D5" width="16.831" height="1.515"/>
	</g>
	<g>
		<rect x="483.11" y="31.085" fill="#2C2D2D" width="16.831" height="14.829"/>
		<rect x="483.11" y="45.914" fill="#D1D4D5" width="16.831" height="1.515"/>
	</g>
	<g>
		<rect x="505.861" y="31.085" fill="#2C2D2D" width="16.832" height="14.829"/>
		<rect x="505.861" y="45.914" fill="#D1D4D5" width="16.832" height="1.515"/>
	</g>
	<g>
		<rect x="528.612" y="31.085" fill="#2C2D2D" width="16.831" height="14.829"/>
		<rect x="528.612" y="45.914" fill="#D1D4D5" width="16.831" height="1.515"/>
	</g>
	<g>
		<rect x="551.363" y="31.085" fill="#2C2D2D" width="16.831" height="14.829"/>
		<rect x="551.363" y="45.914" fill="#D1D4D5" width="16.831" height="1.515"/>
	</g>
	<g>
		<rect x="574.114" y="31.085" fill="#2C2D2D" width="16.831" height="14.829"/>
		<rect x="574.114" y="45.914" fill="#D1D4D5" width="16.831" height="1.515"/>
	</g>
	<g>
		<rect x="596.865" y="31.085" fill="#2C2D2D" width="16.831" height="14.829"/>
		<rect x="596.865" y="45.914" fill="#D1D4D5" width="16.831" height="1.515"/>
	</g>
	<g>
		<rect x="619.616" y="31.085" fill="#2C2D2D" width="16.831" height="14.829"/>
		<rect x="619.616" y="45.914" fill="#D1D4D5" width="16.831" height="1.515"/>
	</g>
</g>
<g>
	<rect x="460.359" y="51.808" fill="#2C2D2D" width="16.831" height="14.829"/>
	<rect x="460.359" y="66.637" fill="#D1D4D5" width="16.831" height="1.516"/>
</g>
<g>
	<rect x="483.11" y="51.808" fill="#2C2D2D" width="16.831" height="14.829"/>
	<rect x="483.11" y="66.637" fill="#D1D4D5" width="16.831" height="1.516"/>
</g>
<g>
	<rect x="505.861" y="51.808" fill="#2C2D2D" width="16.832" height="14.829"/>
	<rect x="505.861" y="66.637" fill="#D1D4D5" width="16.832" height="1.516"/>
</g>
<g>
	<rect x="528.612" y="51.808" fill="#2C2D2D" width="16.831" height="14.829"/>
	<rect x="528.612" y="66.637" fill="#D1D4D5" width="16.831" height="1.516"/>
</g>
<g>
	<rect x="779.162" y="9.979" fill="#2C2D2D" width="16.832" height="14.829"/>
	<rect x="779.162" y="24.807" fill="#D1D4D5" width="16.832" height="1.516"/>
</g>
<g>
	<rect x="779.162" y="31.56" fill="#2C2D2D" width="16.832" height="14.829"/>
	<rect x="779.162" y="46.389" fill="#D1D4D5" width="16.832" height="1.515"/>
</g>
<g>
	<rect x="779.162" y="53.142" fill="#2C2D2D" width="16.832" height="14.829"/>
	<rect x="779.162" y="67.971" fill="#D1D4D5" width="16.832" height="1.514"/>
</g>
<g>
	<rect x="886.215" y="91.066" fill="#2C2D2D" width="21.049" height="18.545"/>
	<rect x="886.215" y="109.611" fill="#D1D4D5" width="21.049" height="1.895"/>
</g>
<g>
	<rect x="913.77" y="91.066" fill="#2C2D2D" width="21.049" height="18.545"/>
	<rect x="913.77" y="109.611" fill="#D1D4D5" width="21.049" height="1.895"/>
</g>
<g>
	<rect x="941.324" y="91.066" fill="#2C2D2D" width="21.049" height="18.545"/>
	<rect x="941.324" y="109.611" fill="#D1D4D5" width="21.049" height="1.895"/>
</g>
<g>
	<rect x="968.879" y="91.066" fill="#2C2D2D" width="21.049" height="18.545"/>
	<rect x="968.879" y="109.611" fill="#D1D4D5" width="21.049" height="1.895"/>
</g>
<g>
	<rect x="996.434" y="91.066" fill="#2C2D2D" width="21.049" height="18.545"/>
	<rect x="996.434" y="109.611" fill="#D1D4D5" width="21.049" height="1.895"/>
</g>
<g>
	<rect x="1023.988" y="91.066" fill="#2C2D2D" width="21.049" height="18.545"/>
	<rect x="1023.988" y="109.611" fill="#D1D4D5" width="21.049" height="1.895"/>
</g>
<g>
	<rect x="1051.543" y="91.066" fill="#2C2D2D" width="21.049" height="18.545"/>
	<rect x="1051.543" y="109.611" fill="#D1D4D5" width="21.049" height="1.895"/>
</g>
<g>
	<rect x="779.162" y="74.723" fill="#2C2D2D" width="16.832" height="14.828"/>
	<rect x="779.162" y="89.551" fill="#D1D4D5" width="16.832" height="1.516"/>
</g>
<g>
	<rect x="779.162" y="96.305" fill="#2C2D2D" width="16.832" height="14.828"/>
	<rect x="779.162" y="111.133" fill="#D1D4D5" width="16.832" height="1.516"/>
</g>
<g>
	<rect x="551.363" y="51.808" fill="#2C2D2D" width="16.831" height="14.829"/>
	<rect x="551.363" y="66.637" fill="#D1D4D5" width="16.831" height="1.516"/>
</g>
<g>
	<rect x="574.114" y="51.808" fill="#2C2D2D" width="16.831" height="14.829"/>
	<rect x="574.114" y="66.637" fill="#D1D4D5" width="16.831" height="1.516"/>
</g>
<g>
	<rect x="596.865" y="51.808" fill="#2C2D2D" width="16.831" height="14.829"/>
	<rect x="596.865" y="66.637" fill="#D1D4D5" width="16.831" height="1.516"/>
</g>
<g>
	<rect x="619.616" y="51.808" fill="#2C2D2D" width="16.831" height="14.829"/>
	<rect x="619.616" y="66.637" fill="#D1D4D5" width="16.831" height="1.516"/>
</g>
<g>
	<rect x="315.287" y="62.04" fill="#2C2D2D" width="16.344" height="18.55"/>
	<rect x="313.617" y="62.04" fill="#D1D4D5" width="1.67" height="18.55"/>
</g>
<g>
	<rect x="315.661" y="88.289" fill="#2C2D2D" width="16.344" height="18.551"/>
	<rect x="313.991" y="88.289" fill="#D1D4D5" width="1.67" height="18.551"/>
</g>
<g>
	<linearGradient id="SVGID_30_" gradientUnits="userSpaceOnUse" x1="417.4214" y1="53.2627" x2="417.4214" y2="9.8447">
		<stop  offset="0" style="stop-color:#636666"/>
		<stop  offset="0.1122" style="stop-color:#B1B4B5"/>
		<stop  offset="0.5459" style="stop-color:#B1B4B5"/>
		<stop  offset="1" style="stop-color:#919292"/>
	</linearGradient>
	<rect x="392.077" y="9.845" fill="url(#SVGID_30_)" width="50.688" height="43.418"/>
	<g>
		<rect x="402.758" y="18.15" fill="#090909" width="29.327" height="17.187"/>
		<rect x="402.758" y="35.337" fill="#E9E9E9" width="29.327" height="1.961"/>
	</g>
</g>
<linearGradient id="SVGID_31_" gradientUnits="userSpaceOnUse" x1="689.4863" y1="58.2388" x2="689.4863" y2="24.6064">
	<stop  offset="0" style="stop-color:#636666"/>
	<stop  offset="0.1122" style="stop-color:#B1B4B5"/>
	<stop  offset="0.5459" style="stop-color:#B1B4B5"/>
	<stop  offset="1" style="stop-color:#919292"/>
</linearGradient>
<rect x="669.854" y="24.606" fill="url(#SVGID_31_)" width="39.266" height="33.632"/>
<g>
	<rect x="678.129" y="31.04" fill="#090909" width="22.717" height="13.313"/>
	<rect x="678.129" y="44.354" fill="#E9E9E9" width="22.717" height="1.519"/>
</g>
<g>
	<rect x="819.93" y="31.083" fill="#090909" width="34.881" height="20.441"/>
	<rect x="819.93" y="51.524" fill="#E9E9E9" width="34.881" height="2.333"/>
</g>
<g>
	<rect x="885.434" y="66.852" fill="#090909" width="49.385" height="14.42"/>
	<rect x="885.434" y="81.271" fill="#E9E9E9" width="49.385" height="1.646"/>
</g>
<g>
	<rect x="942.266" y="66.852" fill="#090909" width="49.385" height="14.42"/>
	<rect x="942.266" y="81.271" fill="#E9E9E9" width="49.385" height="1.646"/>
</g>
<g>
	<rect x="999.1" y="66.852" fill="#090909" width="49.385" height="14.42"/>
	<rect x="999.1" y="81.271" fill="#E9E9E9" width="49.385" height="1.646"/>
</g>
<g>
	<rect x="1055.932" y="66.852" fill="#090909" width="49.385" height="14.42"/>
	<rect x="1055.932" y="81.271" fill="#E9E9E9" width="49.385" height="1.646"/>
</g>
<g>
	<rect x="1112.764" y="66.852" fill="#090909" width="49.385" height="14.42"/>
	<rect x="1112.764" y="81.271" fill="#E9E9E9" width="49.385" height="1.646"/>
</g>
<g>
	<rect x="1091.516" y="91.854" fill="#090909" width="49.385" height="14.422"/>
	<rect x="1091.516" y="106.275" fill="#E9E9E9" width="49.385" height="1.645"/>
</g>
<g>
	<rect x="1157.375" y="92.662" fill="#090909" width="49.385" height="14.42"/>
	<rect x="1157.375" y="107.082" fill="#E9E9E9" width="49.385" height="1.646"/>
</g>
<g>
	<rect x="831.084" y="10.59" fill="#090909" width="23.727" height="13.904"/>
	<rect x="831.084" y="24.494" fill="#E9E9E9" width="23.727" height="1.587"/>
</g>
<g>
	<rect x="819.93" y="59.928" fill="#090909" width="34.881" height="20.441"/>
	<rect x="819.93" y="80.369" fill="#E9E9E9" width="34.881" height="2.334"/>
</g>
<g>
	<rect x="819.93" y="88.773" fill="#090909" width="34.881" height="20.441"/>
	<rect x="819.93" y="109.215" fill="#E9E9E9" width="34.881" height="2.332"/>
</g>
<g>
	<linearGradient id="SVGID_32_" gradientUnits="userSpaceOnUse" x1="738.9111" y1="58.2388" x2="738.9111" y2="24.6064">
		<stop  offset="0" style="stop-color:#636666"/>
		<stop  offset="0.1122" style="stop-color:#B1B4B5"/>
		<stop  offset="0.5459" style="stop-color:#B1B4B5"/>
		<stop  offset="1" style="stop-color:#919292"/>
	</linearGradient>
	<rect x="719.279" y="24.606" fill="url(#SVGID_32_)" width="39.264" height="33.632"/>
	<g>
		<rect x="727.553" y="31.04" fill="#090909" width="22.717" height="13.313"/>
		<rect x="727.553" y="44.354" fill="#E9E9E9" width="22.717" height="1.519"/>
	</g>
</g>
<linearGradient id="SVGID_33_" gradientUnits="userSpaceOnUse" x1="870.832" y1="35.459" x2="879.3516" y2="35.459">
	<stop  offset="0" style="stop-color:#636666"/>
	<stop  offset="0.1122" style="stop-color:#B1B4B5"/>
	<stop  offset="0.5459" style="stop-color:#B1B4B5"/>
	<stop  offset="1" style="stop-color:#919292"/>
</linearGradient>
<path fill="url(#SVGID_33_)" d="M879.352,56.295c0,2.354-1.906,4.261-4.26,4.261l0,0c-2.354,0-4.26-1.907-4.26-4.261V14.623
	c0-2.353,1.906-4.261,4.26-4.261l0,0c2.354,0,4.26,1.908,4.26,4.261V56.295z"/>
<path fill="#2C2D2D" d="M881.439,105.988c0,3.678-2.98,6.66-6.658,6.66l0,0c-3.68,0-6.66-2.982-6.66-6.66V93.785
	c0-3.678,2.98-6.66,6.66-6.66l0,0c3.678,0,6.658,2.982,6.658,6.66V105.988z"/>
<path fill="#9FA2A3" stroke="#6D6D6D" stroke-miterlimit="10" d="M1228.744,51.239c0,3.866-3.133,7-7,7H925.318
	c-3.865,0-7-3.134-7-7V24.641c0-3.866,3.135-7,7-7h296.426c3.867,0,7,3.134,7,7V51.239z"/>
<path fill="#1F2020" stroke="#6D6D6D" stroke-miterlimit="10" d="M969.369,36.907c0,2.494-2.021,4.516-4.516,4.516H923.41
	c-2.494,0-4.516-2.021-4.516-4.516l0,0c0-2.494,2.021-4.516,4.516-4.516h41.443C967.348,32.391,969.369,34.413,969.369,36.907
	L969.369,36.907z"/>
<path fill="#1F2020" stroke="#6D6D6D" stroke-miterlimit="10" d="M1028.854,36.907c0,2.494-2.021,4.516-4.516,4.516h-41.443
	c-2.494,0-4.516-2.021-4.516-4.516l0,0c0-2.494,2.021-4.516,4.516-4.516h41.443C1026.832,32.391,1028.854,34.413,1028.854,36.907
	L1028.854,36.907z"/>
<path fill="#1F2020" stroke="#6D6D6D" stroke-miterlimit="10" d="M1088.338,36.907c0,2.494-2.021,4.516-4.516,4.516h-41.443
	c-2.494,0-4.516-2.021-4.516-4.516l0,0c0-2.494,2.021-4.516,4.516-4.516h41.443C1086.316,32.391,1088.338,34.413,1088.338,36.907
	L1088.338,36.907z"/>
<path fill="#1F2020" stroke="#6D6D6D" stroke-miterlimit="10" d="M1147.822,36.907c0,2.494-2.021,4.516-4.516,4.516h-41.445
	c-2.494,0-4.516-2.021-4.516-4.516l0,0c0-2.494,2.021-4.516,4.516-4.516h41.445C1145.801,32.391,1147.822,34.413,1147.822,36.907
	L1147.822,36.907z"/>
<path fill="#1F2020" stroke="#6D6D6D" stroke-miterlimit="10" d="M1207.305,36.907c0,2.494-2.021,4.516-4.516,4.516h-41.443
	c-2.494,0-4.516-2.021-4.516-4.516l0,0c0-2.494,2.021-4.516,4.516-4.516h41.443C1205.283,32.391,1207.305,34.413,1207.305,36.907
	L1207.305,36.907z"/>
<linearGradient id="SVGID_34_" gradientUnits="userSpaceOnUse" x1="1066.3682" y1="30.0864" x2="1066.3682" y2="21.9771">
	<stop  offset="0" style="stop-color:#636666"/>
	<stop  offset="0.1122" style="stop-color:#B1B4B5"/>
	<stop  offset="0.5459" style="stop-color:#E0E0DF"/>
	<stop  offset="1" style="stop-color:#919292"/>
</linearGradient>
<path fill="url(#SVGID_34_)" d="M1191.412,26.032c0,2.239-1.816,4.055-4.055,4.055H945.379c-2.238,0-4.055-1.815-4.055-4.055l0,0
	c0-2.239,1.816-4.055,4.055-4.055h241.979C1189.596,21.977,1191.412,23.792,1191.412,26.032L1191.412,26.032z"/>
<linearGradient id="SVGID_35_" gradientUnits="userSpaceOnUse" x1="1066.3682" y1="54.0229" x2="1066.3682" y2="45.9136">
	<stop  offset="0" style="stop-color:#636666"/>
	<stop  offset="0.1122" style="stop-color:#B1B4B5"/>
	<stop  offset="0.5459" style="stop-color:#E0E0DF"/>
	<stop  offset="1" style="stop-color:#919292"/>
</linearGradient>
<path fill="url(#SVGID_35_)" d="M1191.412,49.969c0,2.239-1.816,4.054-4.055,4.054H945.379c-2.238,0-4.055-1.815-4.055-4.054l0,0
	c0-2.24,1.816-4.055,4.055-4.055h241.979C1189.596,45.914,1191.412,47.729,1191.412,49.969L1191.412,49.969z"/>
<linearGradient id="SVGID_36_" gradientUnits="userSpaceOnUse" x1="1263.4121" y1="64.0723" x2="1275.5898" y2="64.0723">
	<stop  offset="0" style="stop-color:#636666"/>
	<stop  offset="0.6735" style="stop-color:#B1B4B5"/>
	<stop  offset="1" style="stop-color:#919292"/>
</linearGradient>
<rect x="1263.412" y="9.845" fill="url(#SVGID_36_)" width="12.178" height="108.454"/>
<linearGradient id="SVGID_37_" gradientUnits="userSpaceOnUse" x1="0" y1="64.0723" x2="12.1787" y2="64.0723">
	<stop  offset="0" style="stop-color:#636666"/>
	<stop  offset="0.6735" style="stop-color:#B1B4B5"/>
	<stop  offset="1" style="stop-color:#919292"/>
</linearGradient>
<rect y="9.845" fill="url(#SVGID_37_)" width="12.179" height="108.454"/>
<g>
	<path fill="#AFAEAE" d="M30.197,64.314c0,6.102-4.95,11.049-11.061,11.049c-6.109,0-11.06-4.947-11.06-11.049
		c0-6.104,4.95-11.052,11.06-11.052C25.247,53.263,30.197,58.21,30.197,64.314"/>
	<ellipse fill="none" stroke="#929292" stroke-miterlimit="10" cx="19.137" cy="64.314" rx="11.06" ry="11.049"/>
	<path fill="#AFAEAE" d="M27.264,64.314c0,4.482-3.639,8.117-8.127,8.117c-4.487,0-8.126-3.635-8.126-8.117
		c0-4.484,3.639-8.12,8.126-8.12C23.625,56.195,27.264,59.831,27.264,64.314"/>
	<ellipse fill="none" stroke="#929292" stroke-miterlimit="10" cx="19.137" cy="64.314" rx="8.127" ry="8.117"/>
	<g>
		<g>
			<defs>
				<rect id="SVGID_38_" x="11.476" y="56.661" width="15.323" height="15.306"/>
			</defs>
			<clipPath id="SVGID_39_">
				<use xlink:href="#SVGID_38_"  overflow="visible"/>
			</clipPath>
			<path clip-path="url(#SVGID_39_)" fill="#BEBEBD" d="M26.797,64.314c0,4.225-3.43,7.652-7.66,7.652
				c-4.229,0-7.659-3.428-7.659-7.652c0-4.227,3.43-7.653,7.659-7.653C23.367,56.661,26.797,60.087,26.797,64.314"/>
			<path clip-path="url(#SVGID_39_)" fill="#C0C0C0" d="M26.616,64.314c0,4.125-3.349,7.471-7.479,7.471s-7.478-3.346-7.478-7.471
				c0-4.126,3.347-7.474,7.478-7.474S26.616,60.188,26.616,64.314"/>
			<path clip-path="url(#SVGID_39_)" fill="#C2C3C3" d="M26.438,64.314c0,4.025-3.27,7.291-7.301,7.291
				c-4.03,0-7.297-3.266-7.297-7.291c0-4.028,3.267-7.294,7.297-7.294C23.168,57.021,26.438,60.287,26.438,64.314"/>
			<path clip-path="url(#SVGID_39_)" fill="#C4C5C4" d="M26.256,64.314c0,3.928-3.187,7.111-7.119,7.111
				c-3.932,0-7.119-3.184-7.119-7.111c0-3.929,3.188-7.113,7.119-7.113C23.069,57.201,26.256,60.385,26.256,64.314"/>
			<path clip-path="url(#SVGID_39_)" fill="#C6C8C8" d="M26.076,64.314c0,3.824-3.108,6.932-6.939,6.932s-6.938-3.107-6.938-6.932
				c0-3.829,3.107-6.935,6.938-6.935S26.076,60.486,26.076,64.314"/>
			<path clip-path="url(#SVGID_39_)" fill="#C9CACB" d="M25.896,64.314c0,3.729-3.024,6.752-6.759,6.752s-6.758-3.023-6.758-6.752
				c0-3.73,3.024-6.753,6.758-6.753S25.896,60.584,25.896,64.314"/>
			<path clip-path="url(#SVGID_39_)" fill="#CBCDCD" d="M25.716,64.314c0,3.629-2.947,6.57-6.58,6.57s-6.578-2.941-6.578-6.57
				c0-3.63,2.945-6.574,6.578-6.574S25.716,60.684,25.716,64.314"/>
			<path clip-path="url(#SVGID_39_)" fill="#CCCFD0" d="M25.535,64.314c0,3.527-2.865,6.393-6.398,6.393
				c-3.533,0-6.399-2.865-6.399-6.393c0-3.532,2.866-6.392,6.399-6.392C22.67,57.922,25.535,60.783,25.535,64.314"/>
			<path clip-path="url(#SVGID_39_)" fill="#D0D2D2" d="M25.355,64.314c0,3.43-2.783,6.211-6.219,6.211
				c-3.434,0-6.218-2.781-6.218-6.211c0-3.431,2.784-6.214,6.218-6.214C22.573,58.1,25.355,60.883,25.355,64.314"/>
			<path clip-path="url(#SVGID_39_)" fill="#D2D4D5" d="M25.175,64.314c0,3.33-2.703,6.031-6.038,6.031
				c-3.335,0-6.037-2.701-6.037-6.031c0-3.333,2.702-6.034,6.037-6.034C22.472,58.281,25.175,60.982,25.175,64.314"/>
		</g>
	</g>
	<polygon fill="#605F5E" points="18.137,68.914 18.137,65.314 14.531,65.314 14.531,63.313 18.137,63.313 18.137,59.711 
		20.138,59.711 20.138,63.313 23.744,63.313 23.744,65.314 20.138,65.314 20.138,68.914 	"/>
	<path fill="#221714" d="M19.964,59.885v3.254v0.348h0.345h3.26v1.652h-3.26h-0.345v0.348v3.254h-1.653v-3.254v-0.348h-0.348h-3.259
		v-1.652h3.259h0.348v-0.348v-3.254H19.964z M20.309,59.54h-2.346v3.6h-3.604v2.347h3.604v3.602h2.346v-3.602h3.605v-2.347h-3.605
		V59.54z"/>
</g>
</svg>
