<?xml version="1.0" encoding="utf-8"?>
<!-- Generator: Adobe Illustrator 16.0.0, SVG Export Plug-In . SVG Version: 6.00 Build 0)  -->
<!DOCTYPE svg PUBLIC "-//W3C//DTD SVG 1.1//EN" "http://www.w3.org/Graphics/SVG/1.1/DTD/svg11.dtd">
<svg version="1.1" id="图层_1" xmlns="http://www.w3.org/2000/svg" xmlns:xlink="http://www.w3.org/1999/xlink" x="0px" y="0px"
	 width="1275.59px" height="126.14px" viewBox="0 0 1275.59 126.14" enable-background="new 0 0 1275.59 126.14"
	 xml:space="preserve">
<g>
	<linearGradient id="SVGID_1_" gradientUnits="userSpaceOnUse" x1="637.7954" y1="126.1406" x2="637.7954" y2="4.882813e-004">
		<stop  offset="0" style="stop-color:#B2ACA9"/>
		<stop  offset="0.1129" style="stop-color:#CCC9C8"/>
		<stop  offset="0.8871" style="stop-color:#A9AAAA"/>
		<stop  offset="0.9409" style="stop-color:#BFBCBB"/>
		<stop  offset="1" style="stop-color:#B2ACA9"/>
	</linearGradient>
	<rect fill="url(#SVGID_1_)" width="1275.59" height="126.141"/>
	<g>
		<polygon fill="#6C6D6D" points="0,0 162.104,0 170.271,45.388 0.001,66.57 		"/>
		<polygon fill="#F5F6F7" points="0,0 158.771,0 166.771,43.001 0.001,63.071 		"/>
	</g>
	<polygon fill="#6C6D6D" points="1275.59,0 1113.486,0 1105.318,45.388 1275.588,66.57 	"/>
	<polygon fill="#E3DFDD" points="1275.59,0 1116.818,0 1108.818,43.001 1275.588,63.071 	"/>
	<g>
		<path fill="#F8EDDF" d="M422.049,32.664c0.035,0.552-0.384,1.026-0.935,1.061l-11.026,0.698c-0.551,0.035-1.026-0.383-1.061-0.935
			l-0.534-8.437c-0.035-0.552,0.384-1.026,0.935-1.062l11.025-0.698c0.551-0.034,1.026,0.384,1.061,0.936L422.049,32.664z"/>
		<path fill="#F8EDDF" d="M502.803,29.904c0.001,0.553-0.446,1.001-0.998,1.002l-11.047,0.022c-0.553,0.001-1.001-0.445-1.002-0.998
			l-0.017-8.453c-0.001-0.553,0.446-1.001,0.998-1.003l11.048-0.022c0.552,0,1,0.447,1.001,1L502.803,29.904z"/>
	</g>
	<g>
		<path fill="#F8EDDF" d="M840.232,34.083c-0.033,0.552,0.385,1.026,0.936,1.061l11.025,0.698c0.551,0.035,1.027-0.383,1.063-0.935
			l0.533-8.437c0.035-0.552-0.383-1.026-0.936-1.062l-11.025-0.698c-0.551-0.034-1.025,0.384-1.061,0.936L840.232,34.083z"/>
		<path fill="#F8EDDF" d="M759.479,31.323c0,0.553,0.445,1.001,0.998,1.002l11.049,0.022c0.551,0.001,1-0.445,1.002-0.998
			l0.016-8.453c0.002-0.553-0.445-1.001-0.998-1.003l-11.047-0.022c-0.553,0-1.002,0.447-1.002,1L759.479,31.323z"/>
	</g>
	<path fill="#9E9D9D" d="M170.271,38.869c0,0,680-36.025,950,7.79c0,0-14,60.366-78,61.339H236.677
		C236.677,107.998,192.271,109.945,170.271,38.869z"/>
	<path fill="#C6C1BD" d="M165.269,40.871c0,0,679.999-36.025,949.999,7.79c0,0-14,60.366-78,61.339H231.674
		C231.674,110,187.269,111.947,165.269,40.871z"/>
	<path fill="#3B342C" d="M333.795,29.347l10.667,9.334c0,0,250-20.269,586.667,0l10.666-9.334
		C941.795,29.347,600.461,4.681,333.795,29.347z"/>
	<g>
		<g>
			<ellipse fill="#EAEAEA" cx="187.706" cy="66.391" rx="4.194" ry="4.059"/>
			<circle fill="#070606" cx="187.738" cy="66.771" r="4.06"/>
		</g>
		<g>
			<ellipse fill="#EAEAEA" cx="204.8" cy="66.01" rx="4.194" ry="4.059"/>
			<circle fill="#070606" cx="204.832" cy="66.391" r="4.06"/>
		</g>
		<g>
			<ellipse fill="#EAEAEA" cx="221.895" cy="65.629" rx="4.194" ry="4.059"/>
			<circle fill="#070606" cx="221.927" cy="66.01" r="4.06"/>
		</g>
		<g>
			<ellipse fill="#EAEAEA" cx="238.989" cy="64.246" rx="4.194" ry="4.061"/>
			<circle fill="#070606" cx="239.021" cy="64.627" r="4.06"/>
		</g>
		<g>
			<ellipse fill="#EAEAEA" cx="255.082" cy="63.866" rx="4.194" ry="4.06"/>
			<circle fill="#070606" cx="255.114" cy="64.246" r="4.06"/>
		</g>
		<g>
			<ellipse fill="#EAEAEA" cx="272.176" cy="62.484" rx="4.194" ry="4.059"/>
			<circle fill="#070606" cx="272.208" cy="62.865" r="4.06"/>
		</g>
		<g>
			<ellipse fill="#EAEAEA" cx="289.271" cy="62.104" rx="4.194" ry="4.059"/>
			<circle fill="#070606" cx="289.302" cy="62.484" r="4.06"/>
		</g>
		<g>
			<ellipse fill="#EAEAEA" cx="305.364" cy="61.723" rx="4.194" ry="4.059"/>
			<circle fill="#070606" cx="305.396" cy="62.104" r="4.06"/>
		</g>
		<g>
			<ellipse fill="#EAEAEA" cx="321.458" cy="61.342" rx="4.194" ry="4.059"/>
			<circle fill="#070606" cx="321.49" cy="61.723" r="4.06"/>
		</g>
		<g>
			<ellipse fill="#EAEAEA" cx="338.552" cy="59.96" rx="4.194" ry="4.06"/>
			<circle fill="#070606" cx="338.584" cy="60.341" r="4.06"/>
		</g>
		<g>
			<ellipse fill="#EAEAEA" cx="354.302" cy="59.771" rx="4.194" ry="4.06"/>
			<circle fill="#070606" cx="354.334" cy="60.151" r="4.06"/>
		</g>
		<g>
			<ellipse fill="#EAEAEA" cx="370.552" cy="59.771" rx="4.194" ry="4.06"/>
			<circle fill="#070606" cx="370.584" cy="60.151" r="4.06"/>
		</g>
		<g>
			<ellipse fill="#EAEAEA" cx="386.802" cy="59.771" rx="4.194" ry="4.06"/>
			<circle fill="#070606" cx="386.834" cy="60.151" r="4.06"/>
		</g>
		<g>
			<ellipse fill="#EAEAEA" cx="404.053" cy="58.77" rx="4.194" ry="4.06"/>
			<circle fill="#070606" cx="404.084" cy="59.15" r="4.06"/>
		</g>
		<g>
			<ellipse fill="#EAEAEA" cx="421.303" cy="58.77" rx="4.194" ry="4.06"/>
			<circle fill="#070606" cx="421.335" cy="59.15" r="4.06"/>
		</g>
		<g>
			<ellipse fill="#EAEAEA" cx="437.553" cy="58.77" rx="4.194" ry="4.06"/>
			<circle fill="#070606" cx="437.585" cy="59.15" r="4.06"/>
		</g>
		<g>
			<ellipse fill="#EAEAEA" cx="453.803" cy="57.769" rx="4.194" ry="4.06"/>
			<circle fill="#070606" cx="453.835" cy="58.149" r="4.06"/>
		</g>
		<g>
			<ellipse fill="#EAEAEA" cx="471.054" cy="57.769" rx="4.194" ry="4.06"/>
			<circle fill="#070606" cx="471.086" cy="58.149" r="4.06"/>
		</g>
		<g>
			<ellipse fill="#EAEAEA" cx="486.054" cy="56.641" rx="4.194" ry="4.06"/>
			<circle fill="#070606" cx="486.086" cy="57.021" r="4.06"/>
		</g>
		<g>
			<ellipse fill="#EAEAEA" cx="502.804" cy="56.641" rx="4.194" ry="4.06"/>
			<circle fill="#070606" cx="502.836" cy="57.021" r="4.06"/>
		</g>
		<g>
			<ellipse fill="#EAEAEA" cx="519.054" cy="56.452" rx="4.194" ry="4.06"/>
			<circle fill="#070606" cx="519.086" cy="56.833" r="4.06"/>
		</g>
		<g>
			<ellipse fill="#EAEAEA" cx="535.387" cy="56.264" rx="4.194" ry="4.06"/>
			<circle fill="#070606" cx="535.419" cy="56.645" r="4.06"/>
		</g>
		<g>
			<ellipse fill="#EAEAEA" cx="551.72" cy="56.075" rx="4.194" ry="4.06"/>
			<circle fill="#070606" cx="551.753" cy="56.456" r="4.06"/>
		</g>
		<g>
			<ellipse fill="#EAEAEA" cx="568.054" cy="55.887" rx="4.194" ry="4.06"/>
			<circle fill="#070606" cx="568.085" cy="56.268" r="4.06"/>
		</g>
		<g>
			<ellipse fill="#EAEAEA" cx="584.387" cy="55.698" rx="4.194" ry="4.06"/>
			<circle fill="#070606" cx="584.419" cy="56.079" r="4.06"/>
		</g>
		<g>
			<ellipse fill="#EAEAEA" cx="600.72" cy="55.51" rx="4.194" ry="4.06"/>
			<circle fill="#070606" cx="600.753" cy="55.891" r="4.06"/>
		</g>
		<g>
			<ellipse fill="#EAEAEA" cx="617.054" cy="55.321" rx="4.194" ry="4.06"/>
			<circle fill="#070606" cx="617.085" cy="55.702" r="4.06"/>
		</g>
		<g>
			<ellipse fill="#EAEAEA" cx="633.388" cy="55.133" rx="4.194" ry="4.06"/>
			<circle fill="#070606" cx="633.419" cy="55.514" r="4.06"/>
		</g>
		<g>
			<ellipse fill="#EAEAEA" cx="650.722" cy="54.944" rx="4.194" ry="4.06"/>
			<circle fill="#070606" cx="650.753" cy="55.325" r="4.06"/>
		</g>
		<g>
			<ellipse fill="#EAEAEA" cx="667.054" cy="55.757" rx="4.194" ry="4.06"/>
			<circle fill="#070606" cx="667.087" cy="56.138" r="4.06"/>
		</g>
		<g>
			<ellipse fill="#EAEAEA" cx="684.388" cy="55.568" rx="4.194" ry="4.06"/>
			<circle fill="#070606" cx="684.421" cy="55.949" r="4.06"/>
		</g>
		<g>
			<ellipse fill="#EAEAEA" cx="700.888" cy="55.567" rx="4.194" ry="4.06"/>
			<circle fill="#070606" cx="700.921" cy="55.948" r="4.06"/>
		</g>
		<g>
			<ellipse fill="#EAEAEA" cx="717.87" cy="55.948" rx="4.194" ry="4.06"/>
			<circle fill="#070606" cx="717.902" cy="56.329" r="4.061"/>
		</g>
		<g>
			<ellipse fill="#EAEAEA" cx="734.37" cy="56.14" rx="4.194" ry="4.06"/>
			<circle fill="#070606" cx="734.402" cy="56.521" r="4.061"/>
		</g>
		<g>
			<ellipse fill="#EAEAEA" cx="750.87" cy="56.331" rx="4.194" ry="4.06"/>
			<circle fill="#070606" cx="750.902" cy="56.712" r="4.061"/>
		</g>
		<g>
			<ellipse fill="#EAEAEA" cx="767.37" cy="56.522" rx="4.194" ry="4.06"/>
			<circle fill="#070606" cx="767.402" cy="56.903" r="4.061"/>
		</g>
		<g>
			<ellipse fill="#EAEAEA" cx="783.87" cy="57.715" rx="4.194" ry="4.06"/>
			<circle fill="#070606" cx="783.902" cy="58.096" r="4.061"/>
		</g>
		<g>
			<ellipse fill="#EAEAEA" cx="800.37" cy="57.906" rx="4.194" ry="4.06"/>
			<circle fill="#070606" cx="800.402" cy="58.287" r="4.061"/>
		</g>
		<g>
			<ellipse fill="#EAEAEA" cx="816.87" cy="58.098" rx="4.194" ry="4.06"/>
			<circle fill="#070606" cx="816.902" cy="58.479" r="4.061"/>
		</g>
		<g>
			<ellipse fill="#EAEAEA" cx="833.37" cy="58.289" rx="4.194" ry="4.06"/>
			<circle fill="#070606" cx="833.402" cy="58.67" r="4.061"/>
		</g>
		<g>
			<ellipse fill="#EAEAEA" cx="849.62" cy="58.289" rx="4.194" ry="4.06"/>
			<circle fill="#070606" cx="849.652" cy="58.67" r="4.061"/>
		</g>
		<g>
			<ellipse fill="#EAEAEA" cx="865.62" cy="59.438" rx="4.194" ry="4.06"/>
			<circle fill="#070606" cx="865.652" cy="59.818" r="4.061"/>
		</g>
		<g>
			<ellipse fill="#EAEAEA" cx="882.62" cy="59.585" rx="4.194" ry="4.06"/>
			<circle fill="#070606" cx="882.653" cy="59.966" r="4.06"/>
		</g>
		<g>
			<ellipse fill="#EAEAEA" cx="899.622" cy="60.733" rx="4.194" ry="4.06"/>
			<circle fill="#070606" cx="899.653" cy="61.114" r="4.06"/>
		</g>
		<g>
			<ellipse fill="#EAEAEA" cx="916.622" cy="61.882" rx="4.194" ry="4.06"/>
			<circle fill="#070606" cx="916.654" cy="62.263" r="4.061"/>
		</g>
		<g>
			<ellipse fill="#EAEAEA" cx="933.622" cy="62.029" rx="4.194" ry="4.059"/>
			<circle fill="#070606" cx="933.655" cy="62.41" r="4.06"/>
		</g>
		<g>
			<ellipse fill="#EAEAEA" cx="949.62" cy="62.841" rx="4.194" ry="4.06"/>
			<circle fill="#070606" cx="949.652" cy="63.222" r="4.061"/>
		</g>
		<g>
			<ellipse fill="#EAEAEA" cx="966.12" cy="63.688" rx="4.194" ry="4.06"/>
			<circle fill="#070606" cx="966.152" cy="64.068" r="4.061"/>
		</g>
		<g>
			<ellipse fill="#EAEAEA" cx="982.897" cy="63.688" rx="4.194" ry="4.06"/>
			<circle fill="#070606" cx="982.929" cy="64.068" r="4.06"/>
		</g>
		<g>
			<ellipse fill="#EAEAEA" cx="998.397" cy="63.308" rx="4.194" ry="4.06"/>
			<circle fill="#070606" cx="998.429" cy="63.688" r="4.06"/>
		</g>
		<g>
			<ellipse fill="#EAEAEA" cx="1015.37" cy="64.604" rx="4.194" ry="4.059"/>
			<circle fill="#070606" cx="1015.402" cy="64.984" r="4.061"/>
		</g>
		<g>
			<ellipse fill="#EAEAEA" cx="1032.12" cy="65.752" rx="4.194" ry="4.059"/>
			<circle fill="#070606" cx="1032.152" cy="66.133" r="4.061"/>
		</g>
		<g>
			<ellipse fill="#EAEAEA" cx="1048.87" cy="66.281" rx="4.194" ry="4.059"/>
			<circle fill="#070606" cx="1048.902" cy="66.662" r="4.061"/>
		</g>
		<g>
			<ellipse fill="#EAEAEA" cx="1065.37" cy="67.178" rx="4.194" ry="4.059"/>
			<circle fill="#070606" cx="1065.402" cy="67.559" r="4.061"/>
		</g>
		<g>
			<ellipse fill="#EAEAEA" cx="1082.12" cy="68.475" rx="4.194" ry="4.059"/>
			<circle fill="#070606" cx="1082.152" cy="68.855" r="4.061"/>
		</g>
		<g>
			<ellipse fill="#EAEAEA" cx="1098.87" cy="68.666" rx="4.194" ry="4.059"/>
			<circle fill="#070606" cx="1098.902" cy="69.047" r="4.061"/>
		</g>
	</g>
	<g>
		<ellipse fill="#EAEAEA" cx="229.075" cy="101.674" rx="4.194" ry="4.059"/>
		<circle fill="#070606" cx="229.107" cy="102.055" r="4.06"/>
	</g>
	<g>
		<g>
			<ellipse fill="#EAEAEA" cx="370.384" cy="104.346" rx="4.194" ry="4.061"/>
			<circle fill="#070606" cx="370.416" cy="104.727" r="4.06"/>
		</g>
		<g>
			<ellipse fill="#EAEAEA" cx="386.186" cy="104.346" rx="4.195" ry="4.061"/>
			<circle fill="#070606" cx="386.218" cy="104.727" r="4.06"/>
		</g>
		<g>
			<ellipse fill="#EAEAEA" cx="401.988" cy="104.346" rx="4.194" ry="4.061"/>
			<circle fill="#070606" cx="402.02" cy="104.727" r="4.06"/>
		</g>
		<g>
			<ellipse fill="#EAEAEA" cx="417.791" cy="104.346" rx="4.194" ry="4.061"/>
			<circle fill="#070606" cx="417.823" cy="104.727" r="4.06"/>
		</g>
		<g>
			<ellipse fill="#EAEAEA" cx="433.593" cy="104.346" rx="4.194" ry="4.061"/>
			<circle fill="#070606" cx="433.625" cy="104.727" r="4.06"/>
		</g>
		<g>
			<ellipse fill="#EAEAEA" cx="449.395" cy="104.346" rx="4.194" ry="4.061"/>
			<circle fill="#070606" cx="449.427" cy="104.727" r="4.06"/>
		</g>
		<g>
			<ellipse fill="#EAEAEA" cx="465.197" cy="104.346" rx="4.194" ry="4.061"/>
			<circle fill="#070606" cx="465.229" cy="104.727" r="4.06"/>
		</g>
		<g>
			<ellipse fill="#EAEAEA" cx="481" cy="104.346" rx="4.194" ry="4.061"/>
			<circle fill="#070606" cx="481.031" cy="104.727" r="4.06"/>
		</g>
		<g>
			<ellipse fill="#EAEAEA" cx="496.802" cy="104.346" rx="4.194" ry="4.061"/>
			<circle fill="#070606" cx="496.834" cy="104.727" r="4.06"/>
		</g>
		<g>
			<ellipse fill="#EAEAEA" cx="512.604" cy="104.346" rx="4.194" ry="4.061"/>
			<circle fill="#070606" cx="512.636" cy="104.727" r="4.06"/>
		</g>
		<g>
			<ellipse fill="#EAEAEA" cx="528.406" cy="104.346" rx="4.194" ry="4.061"/>
			<circle fill="#070606" cx="528.438" cy="104.727" r="4.06"/>
		</g>
		<g>
			<ellipse fill="#EAEAEA" cx="544.208" cy="104.346" rx="4.194" ry="4.061"/>
			<circle fill="#070606" cx="544.24" cy="104.727" r="4.06"/>
		</g>
		<g>
			<ellipse fill="#EAEAEA" cx="560.011" cy="104.346" rx="4.194" ry="4.061"/>
			<circle fill="#070606" cx="560.042" cy="104.727" r="4.06"/>
		</g>
		<g>
			<ellipse fill="#EAEAEA" cx="575.813" cy="104.346" rx="4.194" ry="4.061"/>
			<circle fill="#070606" cx="575.845" cy="104.727" r="4.06"/>
		</g>
		<g>
			<ellipse fill="#EAEAEA" cx="591.615" cy="104.346" rx="4.194" ry="4.061"/>
			<circle fill="#070606" cx="591.648" cy="104.727" r="4.06"/>
		</g>
		<g>
			<ellipse fill="#EAEAEA" cx="607.417" cy="104.346" rx="4.194" ry="4.061"/>
			<circle fill="#070606" cx="607.449" cy="104.727" r="4.06"/>
		</g>
		<g>
			<ellipse fill="#EAEAEA" cx="623.22" cy="104.346" rx="4.194" ry="4.061"/>
			<circle fill="#070606" cx="623.251" cy="104.727" r="4.06"/>
		</g>
		<g>
			<ellipse fill="#EAEAEA" cx="639.022" cy="104.346" rx="4.195" ry="4.061"/>
			<circle fill="#070606" cx="639.054" cy="104.727" r="4.059"/>
		</g>
		<g>
			<ellipse fill="#EAEAEA" cx="654.823" cy="104.346" rx="4.194" ry="4.061"/>
			<circle fill="#070606" cx="654.856" cy="104.727" r="4.06"/>
		</g>
		<g>
			<ellipse fill="#EAEAEA" cx="670.626" cy="104.346" rx="4.194" ry="4.061"/>
			<circle fill="#070606" cx="670.658" cy="104.727" r="4.061"/>
		</g>
		<g>
			<ellipse fill="#EAEAEA" cx="686.429" cy="104.346" rx="4.194" ry="4.061"/>
			<circle fill="#070606" cx="686.46" cy="104.727" r="4.06"/>
		</g>
		<g>
			<ellipse fill="#EAEAEA" cx="702.231" cy="104.346" rx="4.194" ry="4.061"/>
			<circle fill="#070606" cx="702.263" cy="104.727" r="4.06"/>
		</g>
		<g>
			<ellipse fill="#EAEAEA" cx="718.032" cy="104.346" rx="4.194" ry="4.061"/>
			<circle fill="#070606" cx="718.065" cy="104.727" r="4.06"/>
		</g>
		<g>
			<ellipse fill="#EAEAEA" cx="733.835" cy="104.346" rx="4.194" ry="4.061"/>
			<circle fill="#070606" cx="733.867" cy="104.727" r="4.061"/>
		</g>
		<g>
			<ellipse fill="#EAEAEA" cx="749.638" cy="104.346" rx="4.194" ry="4.061"/>
			<circle fill="#070606" cx="749.669" cy="104.727" r="4.06"/>
		</g>
		<g>
			<ellipse fill="#EAEAEA" cx="765.44" cy="104.346" rx="4.194" ry="4.061"/>
			<circle fill="#070606" cx="765.472" cy="104.727" r="4.06"/>
		</g>
		<g>
			<ellipse fill="#EAEAEA" cx="782.19" cy="104.346" rx="4.194" ry="4.061"/>
			<circle fill="#070606" cx="782.222" cy="104.727" r="4.06"/>
		</g>
		<g>
			<ellipse fill="#EAEAEA" cx="798.94" cy="104.346" rx="4.194" ry="4.061"/>
			<circle fill="#070606" cx="798.972" cy="104.727" r="4.06"/>
		</g>
		<g>
			<ellipse fill="#EAEAEA" cx="815.69" cy="104.346" rx="4.194" ry="4.061"/>
			<circle fill="#070606" cx="815.722" cy="104.727" r="4.06"/>
		</g>
		<g>
			<ellipse fill="#EAEAEA" cx="832.44" cy="104.346" rx="4.194" ry="4.061"/>
			<circle fill="#070606" cx="832.472" cy="104.727" r="4.06"/>
		</g>
		<g>
			<ellipse fill="#EAEAEA" cx="849.19" cy="104.346" rx="4.194" ry="4.061"/>
			<circle fill="#070606" cx="849.222" cy="104.727" r="4.06"/>
		</g>
		<g>
			<ellipse fill="#EAEAEA" cx="865.94" cy="104.346" rx="4.194" ry="4.061"/>
			<circle fill="#070606" cx="865.972" cy="104.727" r="4.06"/>
		</g>
		<g>
			<ellipse fill="#EAEAEA" cx="882.602" cy="104.346" rx="4.193" ry="4.061"/>
			<circle fill="#070606" cx="882.634" cy="104.727" r="4.06"/>
		</g>
		<g>
			<ellipse fill="#EAEAEA" cx="899.263" cy="104.346" rx="4.194" ry="4.061"/>
			<circle fill="#070606" cx="899.296" cy="104.727" r="4.06"/>
		</g>
		<g>
			<ellipse fill="#EAEAEA" cx="915.925" cy="104.346" rx="4.194" ry="4.061"/>
			<circle fill="#070606" cx="915.958" cy="104.727" r="4.06"/>
		</g>
	</g>
	<g>
		<ellipse fill="#EAEAEA" cx="246.169" cy="101.293" rx="4.194" ry="4.059"/>
		<circle fill="#070606" cx="246.201" cy="101.674" r="4.06"/>
	</g>
	<g>
		<ellipse fill="#EAEAEA" cx="263.264" cy="100.912" rx="4.194" ry="4.059"/>
		<circle fill="#070606" cx="263.296" cy="101.293" r="4.06"/>
	</g>
	<g>
		<ellipse fill="#EAEAEA" cx="280.358" cy="99.529" rx="4.194" ry="4.061"/>
		<circle fill="#070606" cx="280.39" cy="99.91" r="4.06"/>
	</g>
	<g>
		<ellipse fill="#EAEAEA" cx="296.451" cy="99.148" rx="4.194" ry="4.061"/>
		<circle fill="#070606" cx="296.483" cy="99.529" r="4.06"/>
	</g>
	<g>
		<ellipse fill="#EAEAEA" cx="313.545" cy="97.768" rx="4.194" ry="4.059"/>
		<circle fill="#070606" cx="313.577" cy="98.148" r="4.06"/>
	</g>
	<g>
		<ellipse fill="#EAEAEA" cx="330.64" cy="97.387" rx="4.194" ry="4.059"/>
		<circle fill="#070606" cx="330.672" cy="97.768" r="4.06"/>
	</g>
	<g>
		<ellipse fill="#EAEAEA" cx="346.733" cy="97.006" rx="4.194" ry="4.059"/>
		<circle fill="#070606" cx="346.765" cy="97.387" r="4.06"/>
	</g>
	<g>
		<ellipse fill="#EAEAEA" cx="362.827" cy="96.625" rx="4.194" ry="4.059"/>
		<circle fill="#070606" cx="362.859" cy="97.006" r="4.06"/>
	</g>
	<g>
		<ellipse fill="#EAEAEA" cx="379.921" cy="95.242" rx="4.194" ry="4.061"/>
		<circle fill="#070606" cx="379.953" cy="95.623" r="4.06"/>
	</g>
	<g>
		<ellipse fill="#EAEAEA" cx="395.671" cy="95.053" rx="4.194" ry="4.061"/>
		<circle fill="#070606" cx="395.703" cy="95.434" r="4.06"/>
	</g>
	<g>
		<ellipse fill="#EAEAEA" cx="411.921" cy="95.053" rx="4.194" ry="4.061"/>
		<circle fill="#070606" cx="411.953" cy="95.434" r="4.06"/>
	</g>
	<g>
		<ellipse fill="#EAEAEA" cx="428.171" cy="95.053" rx="4.194" ry="4.061"/>
		<circle fill="#070606" cx="428.203" cy="95.434" r="4.06"/>
	</g>
	<g>
		<ellipse fill="#EAEAEA" cx="445.422" cy="94.053" rx="4.194" ry="4.059"/>
		<circle fill="#070606" cx="445.453" cy="94.434" r="4.06"/>
	</g>
	<g>
		<ellipse fill="#EAEAEA" cx="462.672" cy="94.053" rx="4.194" ry="4.059"/>
		<circle fill="#070606" cx="462.704" cy="94.434" r="4.06"/>
	</g>
	<g>
		<ellipse fill="#EAEAEA" cx="478.922" cy="94.053" rx="4.194" ry="4.059"/>
		<circle fill="#070606" cx="478.954" cy="94.434" r="4.06"/>
	</g>
	<g>
		<ellipse fill="#EAEAEA" cx="495.172" cy="93.051" rx="4.194" ry="4.061"/>
		<circle fill="#070606" cx="495.204" cy="93.432" r="4.06"/>
	</g>
	<g>
		<ellipse fill="#EAEAEA" cx="512.423" cy="93.051" rx="4.194" ry="4.061"/>
		<circle fill="#070606" cx="512.455" cy="93.432" r="4.06"/>
	</g>
	<g>
		<ellipse fill="#EAEAEA" cx="527.423" cy="91.924" rx="4.194" ry="4.059"/>
		<circle fill="#070606" cx="527.455" cy="92.305" r="4.06"/>
	</g>
	<g>
		<ellipse fill="#EAEAEA" cx="544.173" cy="91.924" rx="4.194" ry="4.059"/>
		<circle fill="#070606" cx="544.205" cy="92.305" r="4.06"/>
	</g>
	<g>
		<ellipse fill="#EAEAEA" cx="560.423" cy="91.734" rx="4.194" ry="4.061"/>
		<circle fill="#070606" cx="560.455" cy="92.115" r="4.06"/>
	</g>
	<g>
		<ellipse fill="#EAEAEA" cx="576.756" cy="91.547" rx="4.194" ry="4.059"/>
		<circle fill="#070606" cx="576.789" cy="91.928" r="4.06"/>
	</g>
	<g>
		<ellipse fill="#EAEAEA" cx="593.089" cy="91.357" rx="4.194" ry="4.061"/>
		<circle fill="#070606" cx="593.121" cy="91.738" r="4.06"/>
	</g>
	<g>
		<ellipse fill="#EAEAEA" cx="609.423" cy="91.17" rx="4.194" ry="4.059"/>
		<circle fill="#070606" cx="609.455" cy="91.551" r="4.06"/>
	</g>
	<g>
		<ellipse fill="#EAEAEA" cx="625.756" cy="90.98" rx="4.194" ry="4.061"/>
		<circle fill="#070606" cx="625.789" cy="91.361" r="4.06"/>
	</g>
	<g>
		<ellipse fill="#EAEAEA" cx="642.089" cy="90.793" rx="4.194" ry="4.059"/>
		<circle fill="#070606" cx="642.122" cy="91.174" r="4.06"/>
	</g>
	<g>
		<ellipse fill="#EAEAEA" cx="658.423" cy="90.604" rx="4.194" ry="4.061"/>
		<circle fill="#070606" cx="658.454" cy="90.984" r="4.06"/>
	</g>
	<g>
		<ellipse fill="#EAEAEA" cx="674.757" cy="90.416" rx="4.194" ry="4.059"/>
		<circle fill="#070606" cx="674.788" cy="90.797" r="4.06"/>
	</g>
	<g>
		<ellipse fill="#EAEAEA" cx="692.091" cy="90.227" rx="4.194" ry="4.061"/>
		<circle fill="#070606" cx="692.122" cy="90.607" r="4.06"/>
	</g>
	<g>
		<ellipse fill="#EAEAEA" cx="708.423" cy="91.039" rx="4.194" ry="4.061"/>
		<circle fill="#070606" cx="708.456" cy="91.42" r="4.06"/>
	</g>
	<g>
		<ellipse fill="#EAEAEA" cx="725.757" cy="90.852" rx="4.194" ry="4.059"/>
		<circle fill="#070606" cx="725.79" cy="91.232" r="4.06"/>
	</g>
	<g>
		<ellipse fill="#EAEAEA" cx="742.257" cy="90.85" rx="4.194" ry="4.061"/>
		<circle fill="#070606" cx="742.29" cy="91.23" r="4.06"/>
	</g>
	<g>
		<ellipse fill="#EAEAEA" cx="759.239" cy="91.23" rx="4.194" ry="4.061"/>
		<circle fill="#070606" cx="759.271" cy="91.611" r="4.061"/>
	</g>
	<g>
		<ellipse fill="#EAEAEA" cx="775.739" cy="91.422" rx="4.194" ry="4.061"/>
		<circle fill="#070606" cx="775.771" cy="91.803" r="4.061"/>
	</g>
	<g>
		<ellipse fill="#EAEAEA" cx="792.239" cy="91.613" rx="4.194" ry="4.061"/>
		<circle fill="#070606" cx="792.271" cy="91.994" r="4.061"/>
	</g>
	<g>
		<ellipse fill="#EAEAEA" cx="808.739" cy="91.805" rx="4.194" ry="4.061"/>
		<circle fill="#070606" cx="808.771" cy="92.186" r="4.061"/>
	</g>
	<g>
		<ellipse fill="#EAEAEA" cx="825.239" cy="92.998" rx="4.194" ry="4.059"/>
		<circle fill="#070606" cx="825.271" cy="93.379" r="4.061"/>
	</g>
	<g>
		<ellipse fill="#EAEAEA" cx="841.739" cy="93.189" rx="4.194" ry="4.059"/>
		<circle fill="#070606" cx="841.771" cy="93.57" r="4.061"/>
	</g>
	<g>
		<ellipse fill="#EAEAEA" cx="858.239" cy="93.381" rx="4.194" ry="4.059"/>
		<circle fill="#070606" cx="858.271" cy="93.762" r="4.061"/>
	</g>
	<g>
		<ellipse fill="#EAEAEA" cx="874.739" cy="93.572" rx="4.194" ry="4.059"/>
		<circle fill="#070606" cx="874.771" cy="93.953" r="4.061"/>
	</g>
	<g>
		<ellipse fill="#EAEAEA" cx="890.989" cy="93.572" rx="4.194" ry="4.059"/>
		<circle fill="#070606" cx="891.021" cy="93.953" r="4.061"/>
	</g>
	<g>
		<ellipse fill="#EAEAEA" cx="906.989" cy="94.721" rx="4.194" ry="4.059"/>
		<circle fill="#070606" cx="907.021" cy="95.102" r="4.061"/>
	</g>
	<g>
		<ellipse fill="#EAEAEA" cx="923.989" cy="94.867" rx="4.194" ry="4.061"/>
		<circle fill="#070606" cx="924.022" cy="95.248" r="4.06"/>
	</g>
	<g>
		<ellipse fill="#EAEAEA" cx="940.991" cy="96.016" rx="4.194" ry="4.061"/>
		<circle fill="#070606" cx="941.022" cy="96.396" r="4.06"/>
	</g>
	<g>
		<ellipse fill="#EAEAEA" cx="957.991" cy="97.164" rx="4.194" ry="4.061"/>
		<circle fill="#070606" cx="958.022" cy="97.545" r="4.06"/>
	</g>
	<g>
		<ellipse fill="#EAEAEA" cx="974.991" cy="97.313" rx="4.194" ry="4.059"/>
		<circle fill="#070606" cx="975.024" cy="97.693" r="4.06"/>
	</g>
	<g>
		<ellipse fill="#EAEAEA" cx="990.989" cy="98.123" rx="4.194" ry="4.061"/>
		<circle fill="#070606" cx="991.021" cy="98.504" r="4.061"/>
	</g>
	<g>
		<ellipse fill="#EAEAEA" cx="1007.489" cy="98.971" rx="4.194" ry="4.061"/>
		<circle fill="#070606" cx="1007.521" cy="99.352" r="4.061"/>
	</g>
	<g>
		<ellipse fill="#EAEAEA" cx="1024.267" cy="98.971" rx="4.194" ry="4.061"/>
		<circle fill="#070606" cx="1024.298" cy="99.352" r="4.06"/>
	</g>
	<g>
		<ellipse fill="#EAEAEA" cx="1039.767" cy="98.59" rx="4.194" ry="4.061"/>
		<circle fill="#070606" cx="1039.798" cy="98.971" r="4.06"/>
	</g>
	<g>
		<ellipse fill="#EAEAEA" cx="1056.739" cy="99.887" rx="4.194" ry="4.059"/>
		<circle fill="#070606" cx="1056.771" cy="100.268" r="4.061"/>
	</g>
	<g>
		<ellipse fill="#EAEAEA" cx="205.277" cy="89.555" rx="4.194" ry="4.059"/>
		<circle fill="#070606" cx="205.309" cy="89.936" r="4.06"/>
	</g>
	<g>
		<ellipse fill="#EAEAEA" cx="222.371" cy="89.174" rx="4.194" ry="4.059"/>
		<circle fill="#070606" cx="222.403" cy="89.555" r="4.06"/>
	</g>
	<g>
		<ellipse fill="#EAEAEA" cx="239.465" cy="88.793" rx="4.194" ry="4.059"/>
		<circle fill="#070606" cx="239.497" cy="89.174" r="4.06"/>
	</g>
	<g>
		<ellipse fill="#EAEAEA" cx="256.56" cy="87.41" rx="4.194" ry="4.061"/>
		<circle fill="#070606" cx="256.592" cy="87.791" r="4.06"/>
	</g>
	<g>
		<ellipse fill="#EAEAEA" cx="272.653" cy="87.029" rx="4.194" ry="4.061"/>
		<circle fill="#070606" cx="272.685" cy="87.41" r="4.06"/>
	</g>
	<g>
		<ellipse fill="#EAEAEA" cx="289.747" cy="85.648" rx="4.194" ry="4.059"/>
		<circle fill="#070606" cx="289.779" cy="86.029" r="4.06"/>
	</g>
	<g>
		<ellipse fill="#EAEAEA" cx="306.841" cy="85.268" rx="4.194" ry="4.059"/>
		<circle fill="#070606" cx="306.873" cy="85.648" r="4.06"/>
	</g>
	<g>
		<ellipse fill="#EAEAEA" cx="322.935" cy="84.887" rx="4.194" ry="4.059"/>
		<circle fill="#070606" cx="322.967" cy="85.268" r="4.06"/>
	</g>
	<g>
		<ellipse fill="#EAEAEA" cx="339.029" cy="84.506" rx="4.194" ry="4.059"/>
		<circle fill="#070606" cx="339.061" cy="84.887" r="4.06"/>
	</g>
	<g>
		<ellipse fill="#EAEAEA" cx="356.123" cy="83.123" rx="4.194" ry="4.061"/>
		<circle fill="#070606" cx="356.155" cy="83.504" r="4.06"/>
	</g>
	<g>
		<ellipse fill="#EAEAEA" cx="371.873" cy="82.934" rx="4.194" ry="4.061"/>
		<circle fill="#070606" cx="371.905" cy="83.314" r="4.06"/>
	</g>
	<g>
		<ellipse fill="#EAEAEA" cx="388.123" cy="82.934" rx="4.194" ry="4.061"/>
		<circle fill="#070606" cx="388.155" cy="83.314" r="4.06"/>
	</g>
	<g>
		<ellipse fill="#EAEAEA" cx="404.373" cy="82.934" rx="4.194" ry="4.061"/>
		<circle fill="#070606" cx="404.405" cy="83.314" r="4.06"/>
	</g>
	<g>
		<ellipse fill="#EAEAEA" cx="421.623" cy="81.934" rx="4.194" ry="4.059"/>
		<circle fill="#070606" cx="421.655" cy="82.314" r="4.06"/>
	</g>
	<g>
		<ellipse fill="#EAEAEA" cx="438.874" cy="81.934" rx="4.194" ry="4.059"/>
		<circle fill="#070606" cx="438.906" cy="82.314" r="4.06"/>
	</g>
	<g>
		<ellipse fill="#EAEAEA" cx="455.124" cy="81.934" rx="4.194" ry="4.059"/>
		<circle fill="#070606" cx="455.156" cy="82.314" r="4.06"/>
	</g>
	<g>
		<ellipse fill="#EAEAEA" cx="471.374" cy="80.932" rx="4.194" ry="4.061"/>
		<circle fill="#070606" cx="471.406" cy="81.313" r="4.06"/>
	</g>
	<g>
		<ellipse fill="#EAEAEA" cx="488.625" cy="80.932" rx="4.194" ry="4.061"/>
		<circle fill="#070606" cx="488.656" cy="81.313" r="4.06"/>
	</g>
	<g>
		<ellipse fill="#EAEAEA" cx="503.625" cy="79.805" rx="4.194" ry="4.059"/>
		<circle fill="#070606" cx="503.656" cy="80.186" r="4.06"/>
	</g>
	<g>
		<ellipse fill="#EAEAEA" cx="520.375" cy="79.805" rx="4.194" ry="4.059"/>
		<circle fill="#070606" cx="520.406" cy="80.186" r="4.06"/>
	</g>
	<g>
		<ellipse fill="#EAEAEA" cx="536.625" cy="79.615" rx="4.194" ry="4.061"/>
		<circle fill="#070606" cx="536.656" cy="79.996" r="4.06"/>
	</g>
	<g>
		<ellipse fill="#EAEAEA" cx="552.958" cy="79.428" rx="4.194" ry="4.059"/>
		<circle fill="#070606" cx="552.99" cy="79.809" r="4.06"/>
	</g>
	<g>
		<ellipse fill="#EAEAEA" cx="569.291" cy="79.238" rx="4.194" ry="4.061"/>
		<circle fill="#070606" cx="569.324" cy="79.619" r="4.06"/>
	</g>
	<g>
		<ellipse fill="#EAEAEA" cx="585.625" cy="79.051" rx="4.194" ry="4.059"/>
		<circle fill="#070606" cx="585.656" cy="79.432" r="4.06"/>
	</g>
	<g>
		<ellipse fill="#EAEAEA" cx="601.958" cy="78.861" rx="4.194" ry="4.061"/>
		<circle fill="#070606" cx="601.99" cy="79.242" r="4.06"/>
	</g>
	<g>
		<ellipse fill="#EAEAEA" cx="618.292" cy="78.674" rx="4.194" ry="4.059"/>
		<circle fill="#070606" cx="618.324" cy="79.055" r="4.06"/>
	</g>
	<g>
		<ellipse fill="#EAEAEA" cx="634.625" cy="78.484" rx="4.194" ry="4.061"/>
		<circle fill="#070606" cx="634.657" cy="78.865" r="4.06"/>
	</g>
	<g>
		<ellipse fill="#EAEAEA" cx="650.958" cy="78.297" rx="4.194" ry="4.059"/>
		<circle fill="#070606" cx="650.989" cy="78.678" r="4.06"/>
	</g>
	<g>
		<ellipse fill="#EAEAEA" cx="668.292" cy="78.107" rx="4.194" ry="4.061"/>
		<circle fill="#070606" cx="668.323" cy="78.488" r="4.06"/>
	</g>
	<g>
		<ellipse fill="#EAEAEA" cx="684.626" cy="78.92" rx="4.194" ry="4.061"/>
		<circle fill="#070606" cx="684.657" cy="79.301" r="4.06"/>
	</g>
	<g>
		<ellipse fill="#EAEAEA" cx="701.96" cy="78.732" rx="4.194" ry="4.059"/>
		<circle fill="#070606" cx="701.991" cy="79.113" r="4.06"/>
	</g>
	<g>
		<ellipse fill="#EAEAEA" cx="718.46" cy="78.73" rx="4.194" ry="4.061"/>
		<circle fill="#070606" cx="718.491" cy="79.111" r="4.06"/>
	</g>
	<g>
		<ellipse fill="#EAEAEA" cx="735.44" cy="79.111" rx="4.194" ry="4.061"/>
		<circle fill="#070606" cx="735.474" cy="79.492" r="4.06"/>
	</g>
	<g>
		<ellipse fill="#EAEAEA" cx="751.94" cy="79.303" rx="4.194" ry="4.061"/>
		<circle fill="#070606" cx="751.974" cy="79.684" r="4.06"/>
	</g>
	<g>
		<ellipse fill="#EAEAEA" cx="768.44" cy="79.494" rx="4.194" ry="4.061"/>
		<circle fill="#070606" cx="768.474" cy="79.875" r="4.06"/>
	</g>
	<g>
		<ellipse fill="#EAEAEA" cx="784.94" cy="79.686" rx="4.194" ry="4.061"/>
		<circle fill="#070606" cx="784.974" cy="80.066" r="4.06"/>
	</g>
	<g>
		<ellipse fill="#EAEAEA" cx="801.44" cy="80.879" rx="4.194" ry="4.059"/>
		<circle fill="#070606" cx="801.474" cy="81.26" r="4.06"/>
	</g>
	<g>
		<ellipse fill="#EAEAEA" cx="817.94" cy="81.07" rx="4.194" ry="4.059"/>
		<circle fill="#070606" cx="817.974" cy="81.451" r="4.06"/>
	</g>
	<g>
		<ellipse fill="#EAEAEA" cx="834.44" cy="81.262" rx="4.194" ry="4.059"/>
		<circle fill="#070606" cx="834.474" cy="81.643" r="4.06"/>
	</g>
	<g>
		<ellipse fill="#EAEAEA" cx="850.94" cy="81.453" rx="4.194" ry="4.059"/>
		<circle fill="#070606" cx="850.974" cy="81.834" r="4.06"/>
	</g>
	<g>
		<ellipse fill="#EAEAEA" cx="867.19" cy="81.453" rx="4.194" ry="4.059"/>
		<circle fill="#070606" cx="867.224" cy="81.834" r="4.06"/>
	</g>
	<g>
		<ellipse fill="#EAEAEA" cx="883.19" cy="82.602" rx="4.194" ry="4.059"/>
		<circle fill="#070606" cx="883.224" cy="82.982" r="4.06"/>
	</g>
	<g>
		<ellipse fill="#EAEAEA" cx="900.192" cy="82.748" rx="4.194" ry="4.061"/>
		<circle fill="#070606" cx="900.224" cy="83.129" r="4.06"/>
	</g>
	<g>
		<ellipse fill="#EAEAEA" cx="917.192" cy="83.896" rx="4.194" ry="4.061"/>
		<circle fill="#070606" cx="917.224" cy="84.277" r="4.06"/>
	</g>
	<g>
		<ellipse fill="#EAEAEA" cx="934.192" cy="85.045" rx="4.194" ry="4.061"/>
		<circle fill="#070606" cx="934.226" cy="85.426" r="4.06"/>
	</g>
	<g>
		<ellipse fill="#EAEAEA" cx="951.194" cy="85.193" rx="4.194" ry="4.059"/>
		<circle fill="#070606" cx="951.226" cy="85.574" r="4.06"/>
	</g>
	<g>
		<ellipse fill="#EAEAEA" cx="967.19" cy="86.004" rx="4.194" ry="4.061"/>
		<circle fill="#070606" cx="967.224" cy="86.385" r="4.06"/>
	</g>
	<g>
		<ellipse fill="#EAEAEA" cx="983.69" cy="86.852" rx="4.194" ry="4.061"/>
		<circle fill="#070606" cx="983.724" cy="87.232" r="4.06"/>
	</g>
	<g>
		<ellipse fill="#EAEAEA" cx="1000.468" cy="86.852" rx="4.194" ry="4.061"/>
		<circle fill="#070606" cx="1000.5" cy="87.232" r="4.061"/>
	</g>
	<g>
		<ellipse fill="#EAEAEA" cx="1015.968" cy="86.471" rx="4.194" ry="4.061"/>
		<circle fill="#070606" cx="1016" cy="86.852" r="4.061"/>
	</g>
	<g>
		<ellipse fill="#EAEAEA" cx="1032.94" cy="87.768" rx="4.194" ry="4.059"/>
		<circle fill="#070606" cx="1032.974" cy="88.148" r="4.06"/>
	</g>
	<g>
		<ellipse fill="#EAEAEA" cx="1049.69" cy="88.916" rx="4.194" ry="4.059"/>
		<circle fill="#070606" cx="1049.724" cy="89.297" r="4.06"/>
	</g>
	<g>
		<ellipse fill="#EAEAEA" cx="1066.44" cy="89.445" rx="4.194" ry="4.059"/>
		<circle fill="#070606" cx="1066.474" cy="89.826" r="4.06"/>
	</g>
	<g>
		<ellipse fill="#EAEAEA" cx="1082.94" cy="90.342" rx="4.194" ry="4.059"/>
		<circle fill="#070606" cx="1082.974" cy="90.723" r="4.06"/>
	</g>
	<g>
		<ellipse fill="#EAEAEA" cx="197.04" cy="79.717" rx="4.194" ry="4.061"/>
		<circle fill="#070606" cx="197.071" cy="80.098" r="4.06"/>
	</g>
	<g>
		<ellipse fill="#EAEAEA" cx="214.134" cy="79.336" rx="4.194" ry="4.061"/>
		<circle fill="#070606" cx="214.166" cy="79.717" r="4.06"/>
	</g>
	<g>
		<ellipse fill="#EAEAEA" cx="231.228" cy="78.955" rx="4.194" ry="4.061"/>
		<circle fill="#070606" cx="231.26" cy="79.336" r="4.06"/>
	</g>
	<g>
		<ellipse fill="#EAEAEA" cx="248.322" cy="77.574" rx="4.194" ry="4.059"/>
		<circle fill="#070606" cx="248.354" cy="77.955" r="4.06"/>
	</g>
	<g>
		<ellipse fill="#EAEAEA" cx="264.416" cy="77.193" rx="4.194" ry="4.059"/>
		<circle fill="#070606" cx="264.448" cy="77.574" r="4.06"/>
	</g>
	<g>
		<ellipse fill="#EAEAEA" cx="281.51" cy="75.811" rx="4.194" ry="4.061"/>
		<circle fill="#070606" cx="281.542" cy="76.191" r="4.06"/>
	</g>
	<g>
		<ellipse fill="#EAEAEA" cx="298.604" cy="75.43" rx="4.194" ry="4.061"/>
		<circle fill="#070606" cx="298.636" cy="75.811" r="4.06"/>
	</g>
	<g>
		<ellipse fill="#EAEAEA" cx="314.697" cy="75.049" rx="4.194" ry="4.061"/>
		<circle fill="#070606" cx="314.729" cy="75.43" r="4.06"/>
	</g>
	<g>
		<ellipse fill="#EAEAEA" cx="330.791" cy="74.668" rx="4.194" ry="4.061"/>
		<circle fill="#070606" cx="330.823" cy="75.049" r="4.06"/>
	</g>
	<g>
		<ellipse fill="#EAEAEA" cx="347.885" cy="73.287" rx="4.194" ry="4.059"/>
		<circle fill="#070606" cx="347.917" cy="73.668" r="4.06"/>
	</g>
	<g>
		<ellipse fill="#EAEAEA" cx="363.635" cy="73.098" rx="4.194" ry="4.059"/>
		<circle fill="#070606" cx="363.667" cy="73.479" r="4.06"/>
	</g>
	<g>
		<ellipse fill="#EAEAEA" cx="379.885" cy="73.098" rx="4.194" ry="4.059"/>
		<circle fill="#070606" cx="379.917" cy="73.479" r="4.06"/>
	</g>
	<g>
		<ellipse fill="#EAEAEA" cx="396.135" cy="73.098" rx="4.194" ry="4.059"/>
		<circle fill="#070606" cx="396.167" cy="73.479" r="4.06"/>
	</g>
	<g>
		<ellipse fill="#EAEAEA" cx="413.386" cy="72.096" rx="4.194" ry="4.061"/>
		<circle fill="#070606" cx="413.418" cy="72.477" r="4.06"/>
	</g>
	<g>
		<ellipse fill="#EAEAEA" cx="430.636" cy="72.096" rx="4.194" ry="4.061"/>
		<circle fill="#070606" cx="430.668" cy="72.477" r="4.06"/>
	</g>
	<g>
		<ellipse fill="#EAEAEA" cx="446.886" cy="72.096" rx="4.194" ry="4.061"/>
		<circle fill="#070606" cx="446.918" cy="72.477" r="4.06"/>
	</g>
	<g>
		<ellipse fill="#EAEAEA" cx="463.136" cy="71.096" rx="4.194" ry="4.059"/>
		<circle fill="#070606" cx="463.168" cy="71.477" r="4.06"/>
	</g>
	<g>
		<ellipse fill="#EAEAEA" cx="480.387" cy="71.096" rx="4.194" ry="4.059"/>
		<circle fill="#070606" cx="480.419" cy="71.477" r="4.06"/>
	</g>
	<g>
		<ellipse fill="#EAEAEA" cx="495.387" cy="69.967" rx="4.194" ry="4.061"/>
		<circle fill="#070606" cx="495.419" cy="70.348" r="4.06"/>
	</g>
	<g>
		<ellipse fill="#EAEAEA" cx="512.137" cy="69.967" rx="4.194" ry="4.061"/>
		<circle fill="#070606" cx="512.169" cy="70.348" r="4.06"/>
	</g>
	<g>
		<ellipse fill="#EAEAEA" cx="528.387" cy="69.779" rx="4.194" ry="4.059"/>
		<circle fill="#070606" cx="528.419" cy="70.16" r="4.06"/>
	</g>
	<g>
		<ellipse fill="#EAEAEA" cx="544.72" cy="69.59" rx="4.194" ry="4.061"/>
		<circle fill="#070606" cx="544.752" cy="69.971" r="4.06"/>
	</g>
	<g>
		<ellipse fill="#EAEAEA" cx="561.054" cy="69.402" rx="4.194" ry="4.059"/>
		<circle fill="#070606" cx="561.085" cy="69.783" r="4.06"/>
	</g>
	<g>
		<ellipse fill="#EAEAEA" cx="577.387" cy="69.213" rx="4.194" ry="4.061"/>
		<circle fill="#070606" cx="577.419" cy="69.594" r="4.06"/>
	</g>
	<g>
		<ellipse fill="#EAEAEA" cx="593.72" cy="69.025" rx="4.194" ry="4.059"/>
		<circle fill="#070606" cx="593.753" cy="69.406" r="4.06"/>
	</g>
	<g>
		<ellipse fill="#EAEAEA" cx="610.054" cy="68.836" rx="4.194" ry="4.061"/>
		<circle fill="#070606" cx="610.085" cy="69.217" r="4.06"/>
	</g>
	<g>
		<ellipse fill="#EAEAEA" cx="626.387" cy="68.648" rx="4.194" ry="4.059"/>
		<circle fill="#070606" cx="626.419" cy="69.029" r="4.06"/>
	</g>
	<g>
		<ellipse fill="#EAEAEA" cx="642.72" cy="68.459" rx="4.194" ry="4.061"/>
		<circle fill="#070606" cx="642.753" cy="68.84" r="4.06"/>
	</g>
	<g>
		<ellipse fill="#EAEAEA" cx="660.054" cy="68.271" rx="4.194" ry="4.059"/>
		<circle fill="#070606" cx="660.087" cy="68.652" r="4.06"/>
	</g>
	<g>
		<ellipse fill="#EAEAEA" cx="676.388" cy="69.084" rx="4.194" ry="4.059"/>
		<circle fill="#070606" cx="676.419" cy="69.465" r="4.06"/>
	</g>
	<g>
		<ellipse fill="#EAEAEA" cx="693.722" cy="68.895" rx="4.194" ry="4.061"/>
		<circle fill="#070606" cx="693.753" cy="69.275" r="4.06"/>
	</g>
	<g>
		<ellipse fill="#EAEAEA" cx="710.222" cy="68.895" rx="4.194" ry="4.059"/>
		<circle fill="#070606" cx="710.253" cy="69.275" r="4.06"/>
	</g>
	<g>
		<ellipse fill="#EAEAEA" cx="727.204" cy="69.275" rx="4.194" ry="4.059"/>
		<circle fill="#070606" cx="727.235" cy="69.656" r="4.06"/>
	</g>
	<g>
		<ellipse fill="#EAEAEA" cx="743.704" cy="69.467" rx="4.194" ry="4.059"/>
		<circle fill="#070606" cx="743.735" cy="69.848" r="4.06"/>
	</g>
	<g>
		<ellipse fill="#EAEAEA" cx="760.204" cy="69.658" rx="4.194" ry="4.059"/>
		<circle fill="#070606" cx="760.235" cy="70.039" r="4.06"/>
	</g>
	<g>
		<ellipse fill="#EAEAEA" cx="776.704" cy="69.85" rx="4.194" ry="4.059"/>
		<circle fill="#070606" cx="776.735" cy="70.23" r="4.06"/>
	</g>
	<g>
		<ellipse fill="#EAEAEA" cx="793.204" cy="71.041" rx="4.194" ry="4.061"/>
		<circle fill="#070606" cx="793.235" cy="71.422" r="4.06"/>
	</g>
	<g>
		<ellipse fill="#EAEAEA" cx="809.704" cy="71.232" rx="4.194" ry="4.061"/>
		<circle fill="#070606" cx="809.735" cy="71.613" r="4.06"/>
	</g>
	<g>
		<ellipse fill="#EAEAEA" cx="826.204" cy="71.424" rx="4.194" ry="4.061"/>
		<circle fill="#070606" cx="826.235" cy="71.805" r="4.06"/>
	</g>
	<g>
		<ellipse fill="#EAEAEA" cx="842.704" cy="71.615" rx="4.194" ry="4.061"/>
		<circle fill="#070606" cx="842.735" cy="71.996" r="4.06"/>
	</g>
	<g>
		<ellipse fill="#EAEAEA" cx="858.954" cy="71.615" rx="4.194" ry="4.061"/>
		<circle fill="#070606" cx="858.985" cy="71.996" r="4.06"/>
	</g>
	<g>
		<ellipse fill="#EAEAEA" cx="874.954" cy="72.764" rx="4.194" ry="4.061"/>
		<circle fill="#070606" cx="874.985" cy="73.145" r="4.06"/>
	</g>
	<g>
		<ellipse fill="#EAEAEA" cx="891.954" cy="72.912" rx="4.194" ry="4.059"/>
		<circle fill="#070606" cx="891.985" cy="73.293" r="4.06"/>
	</g>
	<g>
		<ellipse fill="#EAEAEA" cx="908.954" cy="74.061" rx="4.194" ry="4.059"/>
		<circle fill="#070606" cx="908.987" cy="74.441" r="4.06"/>
	</g>
	<g>
		<ellipse fill="#EAEAEA" cx="925.956" cy="75.209" rx="4.194" ry="4.059"/>
		<circle fill="#070606" cx="925.987" cy="75.59" r="4.06"/>
	</g>
	<g>
		<ellipse fill="#EAEAEA" cx="942.956" cy="75.355" rx="4.194" ry="4.061"/>
		<circle fill="#070606" cx="942.987" cy="75.736" r="4.06"/>
	</g>
	<g>
		<ellipse fill="#EAEAEA" cx="958.954" cy="76.168" rx="4.194" ry="4.059"/>
		<circle fill="#070606" cx="958.985" cy="76.549" r="4.06"/>
	</g>
	<g>
		<ellipse fill="#EAEAEA" cx="975.454" cy="77.016" rx="4.194" ry="4.059"/>
		<circle fill="#070606" cx="975.485" cy="77.396" r="4.06"/>
	</g>
	<g>
		<ellipse fill="#EAEAEA" cx="992.23" cy="77.016" rx="4.193" ry="4.059"/>
		<circle fill="#070606" cx="992.263" cy="77.396" r="4.06"/>
	</g>
	<g>
		<ellipse fill="#EAEAEA" cx="1007.73" cy="76.635" rx="4.193" ry="4.059"/>
		<circle fill="#070606" cx="1007.763" cy="77.016" r="4.06"/>
	</g>
	<g>
		<ellipse fill="#EAEAEA" cx="1024.704" cy="77.93" rx="4.194" ry="4.061"/>
		<circle fill="#070606" cx="1024.735" cy="78.311" r="4.06"/>
	</g>
	<g>
		<ellipse fill="#EAEAEA" cx="1041.454" cy="79.078" rx="4.194" ry="4.061"/>
		<circle fill="#070606" cx="1041.485" cy="79.459" r="4.06"/>
	</g>
	<g>
		<ellipse fill="#EAEAEA" cx="1058.204" cy="79.607" rx="4.194" ry="4.061"/>
		<circle fill="#070606" cx="1058.235" cy="79.988" r="4.06"/>
	</g>
	<g>
		<ellipse fill="#EAEAEA" cx="1074.704" cy="80.504" rx="4.194" ry="4.061"/>
		<circle fill="#070606" cx="1074.735" cy="80.885" r="4.06"/>
	</g>
	<g>
		<ellipse fill="#EAEAEA" cx="1091.454" cy="81.801" rx="4.194" ry="4.061"/>
		<circle fill="#070606" cx="1091.485" cy="82.182" r="4.06"/>
	</g>
	<g>
		<g>
			<ellipse fill="#EAEAEA" cx="182.458" cy="46.034" rx="4.194" ry="4.06"/>
			<circle fill="#070606" cx="182.49" cy="46.415" r="4.06"/>
		</g>
		<g>
			<ellipse fill="#EAEAEA" cx="199.537" cy="45.463" rx="4.194" ry="4.06"/>
			<circle fill="#070606" cx="199.569" cy="45.844" r="4.06"/>
		</g>
		<g>
			<ellipse fill="#EAEAEA" cx="215.454" cy="44.892" rx="4.194" ry="4.06"/>
			<circle fill="#070606" cx="215.486" cy="45.272" r="4.06"/>
		</g>
		<g>
			<ellipse fill="#EAEAEA" cx="231.903" cy="43.559" rx="4.194" ry="4.06"/>
			<circle fill="#070606" cx="231.935" cy="43.939" r="4.06"/>
		</g>
		<g>
			<ellipse fill="#EAEAEA" cx="251.514" cy="42.367" rx="4.194" ry="4.06"/>
			<circle fill="#070606" cx="251.546" cy="42.748" r="4.06"/>
		</g>
		<g>
			<ellipse fill="#EAEAEA" cx="267.731" cy="41.164" rx="4.194" ry="4.06"/>
			<circle fill="#070606" cx="267.763" cy="41.545" r="4.06"/>
		</g>
		<g>
			<ellipse fill="#EAEAEA" cx="284.375" cy="39.45" rx="4.194" ry="4.06"/>
			<circle fill="#070606" cx="284.407" cy="39.831" r="4.06"/>
		</g>
		<g>
			<ellipse fill="#EAEAEA" cx="300.625" cy="39.26" rx="4.194" ry="4.06"/>
			<circle fill="#070606" cx="300.657" cy="39.641" r="4.06"/>
		</g>
		<g>
			<ellipse fill="#EAEAEA" cx="318.208" cy="37.736" rx="4.194" ry="4.06"/>
			<circle fill="#070606" cx="318.24" cy="38.117" r="4.06"/>
		</g>
		<g>
			<ellipse fill="#EAEAEA" cx="193.206" cy="56.058" rx="4.194" ry="4.06"/>
			<circle fill="#070606" cx="193.238" cy="56.438" r="4.06"/>
		</g>
		<g>
			<ellipse fill="#EAEAEA" cx="210.286" cy="55.486" rx="4.194" ry="4.06"/>
			<circle fill="#070606" cx="210.317" cy="55.867" r="4.06"/>
		</g>
		<g>
			<ellipse fill="#EAEAEA" cx="226.202" cy="54.915" rx="4.194" ry="4.06"/>
			<circle fill="#070606" cx="226.234" cy="55.296" r="4.06"/>
		</g>
		<g>
			<ellipse fill="#EAEAEA" cx="242.651" cy="53.582" rx="4.194" ry="4.06"/>
			<circle fill="#070606" cx="242.683" cy="53.963" r="4.06"/>
		</g>
		<g>
			<ellipse fill="#EAEAEA" cx="262.262" cy="52.391" rx="4.194" ry="4.06"/>
			<circle fill="#070606" cx="262.294" cy="52.771" r="4.06"/>
		</g>
		<g>
			<ellipse fill="#EAEAEA" cx="278.479" cy="51.188" rx="4.194" ry="4.06"/>
			<circle fill="#070606" cx="278.511" cy="51.568" r="4.06"/>
		</g>
		<g>
			<ellipse fill="#EAEAEA" cx="295.123" cy="49.474" rx="4.194" ry="4.06"/>
			<circle fill="#070606" cx="295.155" cy="49.854" r="4.06"/>
		</g>
		<g>
			<ellipse fill="#EAEAEA" cx="311.373" cy="49.283" rx="4.194" ry="4.06"/>
			<circle fill="#070606" cx="311.405" cy="49.664" r="4.06"/>
		</g>
		<g>
			<ellipse fill="#EAEAEA" cx="328.956" cy="47.76" rx="4.194" ry="4.06"/>
			<circle fill="#070606" cx="328.988" cy="48.141" r="4.06"/>
		</g>
	</g>
	<g>
		<g>
			<ellipse fill="#EAEAEA" cx="1104.368" cy="48.075" rx="4.194" ry="4.06"/>
			<circle fill="#070606" cx="1104.337" cy="48.456" r="4.06"/>
		</g>
		<g>
			<ellipse fill="#EAEAEA" cx="1087.29" cy="47.504" rx="4.194" ry="4.06"/>
			<circle fill="#070606" cx="1087.257" cy="47.885" r="4.06"/>
		</g>
		<g>
			<ellipse fill="#EAEAEA" cx="1071.374" cy="46.933" rx="4.194" ry="4.06"/>
			<circle fill="#070606" cx="1071.341" cy="47.313" r="4.06"/>
		</g>
		<g>
			<ellipse fill="#EAEAEA" cx="1054.925" cy="45.6" rx="4.194" ry="4.06"/>
			<circle fill="#070606" cx="1054.892" cy="45.98" r="4.06"/>
		</g>
		<g>
			<ellipse fill="#EAEAEA" cx="1035.313" cy="44.408" rx="4.194" ry="4.06"/>
			<circle fill="#070606" cx="1035.28" cy="44.789" r="4.06"/>
		</g>
		<g>
			<ellipse fill="#EAEAEA" cx="1019.097" cy="43.205" rx="4.194" ry="4.06"/>
			<circle fill="#070606" cx="1019.063" cy="43.586" r="4.06"/>
		</g>
		<g>
			<ellipse fill="#EAEAEA" cx="1002.452" cy="41.491" rx="4.194" ry="4.06"/>
			<circle fill="#070606" cx="1002.42" cy="41.872" r="4.061"/>
		</g>
		<g>
			<ellipse fill="#EAEAEA" cx="986.202" cy="41.301" rx="4.194" ry="4.06"/>
			<circle fill="#070606" cx="986.171" cy="41.682" r="4.06"/>
		</g>
		<g>
			<ellipse fill="#EAEAEA" cx="968.618" cy="39.777" rx="4.194" ry="4.06"/>
			<circle fill="#070606" cx="968.587" cy="40.158" r="4.06"/>
		</g>
		<g>
			<ellipse fill="#EAEAEA" cx="1093.621" cy="58.099" rx="4.193" ry="4.06"/>
			<circle fill="#070606" cx="1093.589" cy="58.479" r="4.06"/>
		</g>
		<g>
			<ellipse fill="#EAEAEA" cx="1076.542" cy="57.527" rx="4.194" ry="4.06"/>
			<circle fill="#070606" cx="1076.509" cy="57.908" r="4.06"/>
		</g>
		<g>
			<ellipse fill="#EAEAEA" cx="1060.626" cy="56.956" rx="4.194" ry="4.06"/>
			<circle fill="#070606" cx="1060.593" cy="57.337" r="4.06"/>
		</g>
		<g>
			<ellipse fill="#EAEAEA" cx="1044.177" cy="55.623" rx="4.194" ry="4.06"/>
			<circle fill="#070606" cx="1044.144" cy="56.004" r="4.06"/>
		</g>
		<g>
			<ellipse fill="#EAEAEA" cx="1024.564" cy="54.432" rx="4.193" ry="4.06"/>
			<circle fill="#070606" cx="1024.532" cy="54.813" r="4.06"/>
		</g>
		<g>
			<ellipse fill="#EAEAEA" cx="1008.349" cy="53.229" rx="4.194" ry="4.06"/>
			<circle fill="#070606" cx="1008.315" cy="53.609" r="4.06"/>
		</g>
		<g>
			<ellipse fill="#EAEAEA" cx="991.704" cy="51.515" rx="4.194" ry="4.06"/>
			<circle fill="#070606" cx="991.672" cy="51.896" r="4.061"/>
		</g>
		<g>
			<ellipse fill="#EAEAEA" cx="975.454" cy="51.324" rx="4.194" ry="4.06"/>
			<circle fill="#070606" cx="975.422" cy="51.705" r="4.061"/>
		</g>
		<g>
			<ellipse fill="#EAEAEA" cx="957.87" cy="49.801" rx="4.194" ry="4.06"/>
			<circle fill="#070606" cx="957.839" cy="50.182" r="4.06"/>
		</g>
	</g>
	<text transform="matrix(1 0 0 1 1162.2598 29.8696)" fill="#FFFFFF" font-family="'CTCuHeiSJ'" font-size="21.9089">KX2216</text>
</g>
</svg>
