<?xml version="1.0" encoding="utf-8"?>
<!-- Generator: Adobe Illustrator 16.0.0, SVG Export Plug-In . SVG Version: 6.00 Build 0)  -->
<!DOCTYPE svg PUBLIC "-//W3C//DTD SVG 1.1//EN" "http://www.w3.org/Graphics/SVG/1.1/DTD/svg11.dtd">
<svg version="1.1" id="图层_1" xmlns="http://www.w3.org/2000/svg" xmlns:xlink="http://www.w3.org/1999/xlink" x="0px" y="0px"
	 width="1275.59px" height="126.14px" viewBox="0 0 1275.59 126.14" enable-background="new 0 0 1275.59 126.14"
	 xml:space="preserve">
<rect fill="#C4C3C3" width="1275.59" height="126.143"/>
<path fill="#151515" d="M139.75,101.66c0,8.838-7.163,16-16,16H43.136c-8.837,0-16-7.162-16-16V24.48c0-8.836,7.163-16,16-16h80.614
	c8.837,0,16,7.164,16,16V101.66z"/>
<g>
	<g>
		<defs>
			<rect id="SVGID_1_" x="51.384" y="19.357" width="59.812" height="32.852"/>
		</defs>
		<clipPath id="SVGID_2_">
			<use xlink:href="#SVGID_1_"  overflow="visible"/>
		</clipPath>
		
			<linearGradient id="SVGID_3_" gradientUnits="userSpaceOnUse" x1="-225.0127" y1="492.1191" x2="-224.0127" y2="492.1191" gradientTransform="matrix(-79.8244 0 0 79.8244 -17839.5 -39247.3125)">
			<stop  offset="0" style="stop-color:#113577"/>
			<stop  offset="0.2581" style="stop-color:#162145"/>
			<stop  offset="1" style="stop-color:#03051D"/>
		</linearGradient>
		<rect x="51.384" y="19.357" clip-path="url(#SVGID_2_)" fill="url(#SVGID_3_)" width="59.812" height="32.852"/>
	</g>
	<g>
		<defs>
			<path id="SVGID_4_" d="M52.846,52.293h58.422c0.283,0,0.45-0.129,0.459-0.082V18.662c-0.058-0.056-0.215-0.148-0.459-0.148
				H52.846c-0.285,0-0.453,0.125-0.462,0.08l-0.02,33.521C52.393,52.162,52.561,52.293,52.846,52.293"/>
		</defs>
		<clipPath id="SVGID_5_">
			<use xlink:href="#SVGID_4_"  overflow="visible"/>
		</clipPath>
		
			<linearGradient id="SVGID_6_" gradientUnits="userSpaceOnUse" x1="-132.8687" y1="180.1094" x2="-131.8687" y2="180.1094" gradientTransform="matrix(58.6222 0 0 -58.6222 7842.0313 10593.8438)">
			<stop  offset="0" style="stop-color:#2E2523"/>
			<stop  offset="1" style="stop-color:#342E2B"/>
		</linearGradient>
		<rect x="52.365" y="18.514" clip-path="url(#SVGID_5_)" fill="url(#SVGID_6_)" width="59.362" height="33.779"/>
	</g>
	<path d="M110.727,19.627v31.551H53.384V19.627H110.727z M51.384,18.594v33.617c0,0.656,0.654,1.196,1.462,1.196h58.422
		c0.808,0,1.459-0.54,1.459-1.196V18.594c0-0.662-0.651-1.197-1.459-1.197H52.846C52.039,17.396,51.384,17.932,51.384,18.594"/>
	<path fill="#030303" d="M102.932,23.508c0.578,0,1.043,0.354,1.043,0.791v22.206c0,0.436-0.465,0.79-1.043,0.79h-41.75
		c-0.576,0-1.044-0.354-1.044-0.79V24.299c0-0.438,0.468-0.791,1.044-0.791H102.932z"/>
	<g>
		<defs>
			<path id="SVGID_7_" d="M63.034,45.037c0,0.38,0.406,0.686,0.908,0.686h18.114V25.08H63.942c-0.502,0-0.908,0.308-0.908,0.686
				V45.037z"/>
		</defs>
		<clipPath id="SVGID_8_">
			<use xlink:href="#SVGID_7_"  overflow="visible"/>
		</clipPath>
		
			<linearGradient id="SVGID_9_" gradientUnits="userSpaceOnUse" x1="-48.3213" y1="-106.168" x2="-47.3213" y2="-106.168" gradientTransform="matrix(22.6221 0 0 -22.6221 1164.2344 -2366.3438)">
			<stop  offset="0" style="stop-color:#251C18"/>
			<stop  offset="1" style="stop-color:#524E4E"/>
		</linearGradient>
		<rect x="63.034" y="25.08" clip-path="url(#SVGID_8_)" fill="url(#SVGID_9_)" width="19.022" height="20.643"/>
	</g>
	<path fill="#050505" d="M82.056,45.723h18.117c0.502,0,0.905-0.307,0.905-0.685V25.765c0-0.378-0.403-0.685-0.905-0.685H82.056
		V45.723z"/>
	<path fill="#121212" d="M82.056,45.723h18.117c0.502,0,0.905-0.307,0.905-0.685V25.765c0-0.378-0.403-0.685-0.905-0.685H82.056
		V45.723z"/>
	<rect x="82.056" y="25.08" fill="#030303" width="0.784" height="20.642"/>
	<rect x="67.981" y="34.656" fill="#EAEAEA" width="9.13" height="2.254"/>
	
		<ellipse fill="none" stroke="#F4F4F4" stroke-width="0.783" stroke-miterlimit="10" cx="91.613" cy="35.345" rx="1.601" ry="1.784"/>
</g>
<path fill="#151515" d="M265.596,101.66c0,8.838-7.164,16-16,16h-80.615c-8.836,0-16-7.162-16-16V24.48c0-8.836,7.164-16,16-16
	h80.615c8.836,0,16,7.164,16,16V101.66z"/>
<g>
	<g>
		<defs>
			<rect id="SVGID_10_" x="177.229" y="19.357" width="59.812" height="32.852"/>
		</defs>
		<clipPath id="SVGID_11_">
			<use xlink:href="#SVGID_10_"  overflow="visible"/>
		</clipPath>
		
			<linearGradient id="SVGID_12_" gradientUnits="userSpaceOnUse" x1="-226.5894" y1="492.1191" x2="-225.5894" y2="492.1191" gradientTransform="matrix(-79.8244 0 0 79.8244 -17839.5 -39247.3125)">
			<stop  offset="0" style="stop-color:#113577"/>
			<stop  offset="0.2581" style="stop-color:#162145"/>
			<stop  offset="1" style="stop-color:#03051D"/>
		</linearGradient>
		<rect x="177.229" y="19.357" clip-path="url(#SVGID_11_)" fill="url(#SVGID_12_)" width="59.812" height="32.852"/>
	</g>
	<g>
		<defs>
			<path id="SVGID_13_" d="M178.691,52.293h58.422c0.283,0,0.45-0.129,0.459-0.082V18.662c-0.058-0.056-0.215-0.148-0.459-0.148
				h-58.422c-0.285,0-0.453,0.125-0.462,0.08l-0.02,33.521C178.238,52.162,178.406,52.293,178.691,52.293"/>
		</defs>
		<clipPath id="SVGID_14_">
			<use xlink:href="#SVGID_13_"  overflow="visible"/>
		</clipPath>
		
			<linearGradient id="SVGID_15_" gradientUnits="userSpaceOnUse" x1="-130.7222" y1="180.1094" x2="-129.7222" y2="180.1094" gradientTransform="matrix(58.6222 0 0 -58.6222 7842.0313 10593.8438)">
			<stop  offset="0" style="stop-color:#2E2523"/>
			<stop  offset="1" style="stop-color:#342E2B"/>
		</linearGradient>
		<rect x="178.21" y="18.514" clip-path="url(#SVGID_14_)" fill="url(#SVGID_15_)" width="59.362" height="33.779"/>
	</g>
	<path d="M236.572,19.627v31.551h-57.343V19.627H236.572z M177.229,18.594v33.617c0,0.656,0.654,1.196,1.462,1.196h58.422
		c0.808,0,1.459-0.54,1.459-1.196V18.594c0-0.662-0.651-1.197-1.459-1.197h-58.422C177.884,17.396,177.229,17.932,177.229,18.594"/>
	<path fill="#030303" d="M228.777,23.508c0.578,0,1.043,0.354,1.043,0.791v22.206c0,0.436-0.465,0.79-1.043,0.79h-41.75
		c-0.576,0-1.044-0.354-1.044-0.79V24.299c0-0.438,0.468-0.791,1.044-0.791H228.777z"/>
	<g>
		<defs>
			<path id="SVGID_16_" d="M188.879,45.037c0,0.38,0.406,0.686,0.908,0.686h18.114V25.08h-18.114c-0.502,0-0.908,0.308-0.908,0.686
				V45.037z"/>
		</defs>
		<clipPath id="SVGID_17_">
			<use xlink:href="#SVGID_16_"  overflow="visible"/>
		</clipPath>
		
			<linearGradient id="SVGID_18_" gradientUnits="userSpaceOnUse" x1="-42.7583" y1="-106.168" x2="-41.7583" y2="-106.168" gradientTransform="matrix(22.6221 0 0 -22.6221 1164.2344 -2366.3438)">
			<stop  offset="0" style="stop-color:#251C18"/>
			<stop  offset="1" style="stop-color:#524E4E"/>
		</linearGradient>
		<rect x="188.879" y="25.08" clip-path="url(#SVGID_17_)" fill="url(#SVGID_18_)" width="19.022" height="20.643"/>
	</g>
	<path fill="#050505" d="M207.901,45.723h18.118c0.501,0,0.905-0.307,0.905-0.685V25.765c0-0.378-0.403-0.685-0.905-0.685h-18.118
		V45.723z"/>
	<path fill="#121212" d="M207.901,45.723h18.118c0.501,0,0.905-0.307,0.905-0.685V25.765c0-0.378-0.403-0.685-0.905-0.685h-18.118
		V45.723z"/>
	<rect x="207.901" y="25.08" fill="#030303" width="0.785" height="20.642"/>
	<rect x="193.826" y="34.656" fill="#EAEAEA" width="9.13" height="2.254"/>
	
		<ellipse fill="none" stroke="#F4F4F4" stroke-width="0.783" stroke-miterlimit="10" cx="217.458" cy="35.345" rx="1.601" ry="1.784"/>
</g>
<g>
	<g>
		<g>
			<polygon fill="#070606" points="326.794,52.523 329.971,47.02 326.794,41.517 320.44,41.517 317.264,47.02 320.44,52.523 			"/>
			<polygon fill="#070606" points="326.794,68.354 329.971,62.852 326.794,57.348 320.44,57.348 317.264,62.852 320.44,68.354 			
				"/>
			<polygon fill="#070606" points="326.794,84.186 329.971,78.683 326.794,73.18 320.44,73.18 317.264,78.683 320.44,84.186 			"/>
		</g>
		<g>
			<g>
				<polygon fill="#070606" points="343.317,42.194 346.494,36.691 343.317,31.188 336.963,31.188 333.787,36.691 336.963,42.194 
									"/>
				<polygon fill="#070606" points="343.317,58.025 346.494,52.523 343.317,47.02 336.963,47.02 333.787,52.523 336.963,58.025 				
					"/>
				<polygon fill="#070606" points="343.317,73.857 346.494,68.354 343.317,62.852 336.963,62.852 333.787,68.354 336.963,73.857 
									"/>
			</g>
			<polygon fill="#070606" points="343.317,89.689 346.494,84.186 343.317,78.683 336.963,78.683 333.787,84.186 336.963,89.689 			
				"/>
			<polygon fill="#070606" points="343.317,105.52 346.494,100.018 343.317,94.514 336.963,94.514 333.787,100.018 336.963,105.52 
							"/>
		</g>
	</g>
	<g>
		<g>
			<polygon fill="#070606" points="384.138,52.523 380.961,47.02 384.138,41.517 390.492,41.517 393.669,47.02 390.492,52.523 			
				"/>
			<polygon fill="#070606" points="384.138,68.354 380.961,62.852 384.138,57.348 390.492,57.348 393.669,62.852 390.492,68.354 			
				"/>
			<polygon fill="#070606" points="384.138,84.186 380.961,78.683 384.138,73.18 390.492,73.18 393.669,78.683 390.492,84.186 			
				"/>
		</g>
		<g>
			<g>
				<polygon fill="#070606" points="367.615,42.194 364.438,36.691 367.615,31.188 373.969,31.188 377.146,36.691 373.969,42.194 
									"/>
				<polygon fill="#070606" points="367.615,58.025 364.438,52.523 367.615,47.02 373.969,47.02 377.146,52.523 373.969,58.025 				
					"/>
				<polygon fill="#070606" points="367.615,73.857 364.438,68.354 367.615,62.852 373.969,62.852 377.146,68.354 373.969,73.857 
									"/>
			</g>
			<polygon fill="#070606" points="367.615,89.689 364.438,84.186 367.615,78.683 373.969,78.683 377.146,84.186 373.969,89.689 			
				"/>
			<polygon fill="#070606" points="367.615,105.52 364.438,100.018 367.615,94.514 373.969,94.514 377.146,100.018 373.969,105.52 
							"/>
		</g>
	</g>
	<g>
		<g>
			<polygon fill="#070606" points="358.137,33.561 361.313,28.059 358.137,22.555 351.783,22.555 348.606,28.059 351.783,33.561 			
				"/>
			<polygon fill="#070606" points="358.137,49.393 361.313,43.89 358.137,38.387 351.783,38.387 348.606,43.89 351.783,49.393 			
				"/>
			<polygon fill="#070606" points="358.137,65.225 361.313,59.721 358.137,54.219 351.783,54.219 348.606,59.721 351.783,65.225 			
				"/>
		</g>
		<polygon fill="#070606" points="358.137,81.056 361.313,75.553 358.137,70.05 351.783,70.05 348.606,75.553 351.783,81.056 		"/>
		<polygon fill="#070606" points="358.137,96.887 361.313,91.385 358.137,85.881 351.783,85.881 348.606,91.385 351.783,96.887 		
			"/>
	</g>
</g>
<g>
	<rect x="338.897" fill="#070606" width="32.043" height="8.48"/>
	<linearGradient id="SVGID_19_" gradientUnits="userSpaceOnUse" x1="354.9189" y1="4.2402" x2="354.9189" y2="0">
		<stop  offset="0" style="stop-color:#A3A3A4"/>
		<stop  offset="0.25" style="stop-color:#BEBDBE"/>
		<stop  offset="0.4184" style="stop-color:#A3A3A4"/>
		<stop  offset="0.9235" style="stop-color:#A3A3A4"/>
	</linearGradient>
	<rect x="338.897" fill="url(#SVGID_19_)" width="32.043" height="4.24"/>
</g>
<g>
	<rect x="689.281" fill="#070606" width="32.042" height="8.48"/>
	<linearGradient id="SVGID_20_" gradientUnits="userSpaceOnUse" x1="705.3027" y1="4.2402" x2="705.3027" y2="0">
		<stop  offset="0" style="stop-color:#A3A3A4"/>
		<stop  offset="0.25" style="stop-color:#BEBDBE"/>
		<stop  offset="0.4184" style="stop-color:#A3A3A4"/>
		<stop  offset="0.9235" style="stop-color:#A3A3A4"/>
	</linearGradient>
	<rect x="689.281" fill="url(#SVGID_20_)" width="32.042" height="4.24"/>
</g>
<g>
	<rect x="1000.67" fill="#070606" width="32.042" height="8.48"/>
	<linearGradient id="SVGID_21_" gradientUnits="userSpaceOnUse" x1="1016.6914" y1="4.2402" x2="1016.6914" y2="0">
		<stop  offset="0" style="stop-color:#A3A3A4"/>
		<stop  offset="0.25" style="stop-color:#BEBDBE"/>
		<stop  offset="0.4184" style="stop-color:#A3A3A4"/>
		<stop  offset="0.9235" style="stop-color:#A3A3A4"/>
	</linearGradient>
	<rect x="1000.67" fill="url(#SVGID_21_)" width="32.042" height="4.24"/>
</g>
<path fill="#111313" d="M645.565,15.48c0-3.866-4.063-7-9.075-7h-72.086c-5.013,0-9.075,3.134-9.075,7v47.59H482.85
	c-5.012,0-9.075,3.135-9.075,7v32.684c0,3.867,4.063,7,9.075,7H636.49c5.012,0,9.075-3.133,9.075-7V81.072c0-0.002,0-0.002,0-0.003
	V15.48z"/>
<g>
	<path fill="#EFEFEF" d="M631.151,98.973l-2.341-1.398v1.043h-10.478H617.4h-0.841l2.377-2.379c0.217-0.219,0.515-0.34,0.816-0.34
		h2.102c0.189,0.434,0.627,0.736,1.133,0.736c0.681,0,1.233-0.551,1.233-1.234c0-0.682-0.553-1.234-1.233-1.234
		c-0.607,0-1.109,0.434-1.215,1.012h-2.02c-0.491,0-0.973,0.199-1.325,0.551l-2.556,2.557c-0.213,0.213-0.498,0.332-0.797,0.332
		h-0.316h-0.83c-0.169-0.932-0.982-1.637-1.959-1.637c-1.104,0-2,0.891-2,1.992c0,1.105,0.896,1.996,2,1.996
		c0.977,0,1.79-0.705,1.959-1.633h0.83h0.316h2.325h0.933c0.301,0,0.583,0.115,0.792,0.324l2.451,2.453
		c0.353,0.352,0.822,0.547,1.319,0.547h1.77v0.936h2.342v-2.342h-2.342v0.686h-1.77c-0.306,0-0.594-0.119-0.811-0.34l-2.268-2.264
		h8.993v1.041L631.151,98.973z"/>
</g>
<rect x="645.083" y="22.672" fill="#AAA9A9" stroke="#727272" stroke-miterlimit="10" width="610.419" height="77.848"/>
</svg>
