<?xml version="1.0" encoding="utf-8"?>
<!-- Generator: Adobe Illustrator 16.0.0, SVG Export Plug-In . SVG Version: 6.00 Build 0)  -->
<!DOCTYPE svg PUBLIC "-//W3C//DTD SVG 1.1//EN" "http://www.w3.org/Graphics/SVG/1.1/DTD/svg11.dtd">
<svg version="1.1" id="图层_1" xmlns="http://www.w3.org/2000/svg" xmlns:xlink="http://www.w3.org/1999/xlink" x="0px" y="0px"
	 width="1275.59px" height="126.14px" viewBox="0 0 1275.59 126.14" enable-background="new 0 0 1275.59 126.14"
	 xml:space="preserve">
<path fill="#221714" d="M1231.155,32.369v3.97v0.425h0.449h4.225v2.017h-4.225h-0.449v0.423v3.972h-2.145v-3.972V38.78h-0.449
	h-4.225v-2.017h4.225h0.449v-0.425v-3.97H1231.155z M1231.604,31.946h-3.043v4.393h-4.674v2.864h4.674v4.395h3.043v-4.395h4.672
	v-2.864h-4.672V31.946z"/>
<rect y="-0.001" fill="#3A404B" width="1275.591" height="126.142"/>
<rect x="698.12" y="9.304" fill="#1D1D1D" width="489.365" height="110.134"/>
<g>
	<linearGradient id="SVGID_1_" gradientUnits="userSpaceOnUse" x1="821.8076" y1="116.6133" x2="821.8076" y2="11.4341">
		<stop  offset="0" style="stop-color:#030000"/>
		<stop  offset="0.102" style="stop-color:#505E6B"/>
		<stop  offset="0.9031" style="stop-color:#505E6B"/>
		<stop  offset="1" style="stop-color:#030000"/>
	</linearGradient>
	<path fill="url(#SVGID_1_)" d="M941.036,112.848c0,2.08-1.922,3.766-4.295,3.766H706.872c-2.371,0-4.293-1.686-4.293-3.766V15.198
		c0-2.079,1.922-3.765,4.293-3.765h229.869c2.373,0,4.295,1.686,4.295,3.765V112.848z"/>
	<g>
		<g>
			<path fill="#AFAEAE" d="M732.319,27.693c0,7.575-6.488,13.715-14.492,13.715s-14.492-6.14-14.492-13.715
				c0-7.576,6.488-13.718,14.492-13.718S732.319,20.117,732.319,27.693"/>
			<ellipse fill="none" stroke="#929292" stroke-miterlimit="10" cx="717.827" cy="27.693" rx="14.492" ry="13.715"/>
			<path fill="#AFAEAE" d="M728.474,27.693c0,5.564-4.768,10.078-10.646,10.078c-5.881,0-10.65-4.514-10.65-10.078
				c0-5.566,4.77-10.08,10.65-10.08C723.706,17.613,728.474,22.127,728.474,27.693"/>
			<ellipse fill="none" stroke="#929292" stroke-miterlimit="10" cx="717.825" cy="27.693" rx="10.648" ry="10.078"/>
			<g>
				<g>
					<defs>
						<rect id="SVGID_2_" x="707.788" y="18.193" width="20.076" height="18.997"/>
					</defs>
					<clipPath id="SVGID_3_">
						<use xlink:href="#SVGID_2_"  overflow="visible"/>
					</clipPath>
					<path clip-path="url(#SVGID_3_)" fill="#BEBEBD" d="M727.862,27.693c0,5.245-4.494,9.497-10.035,9.497
						c-5.543,0-10.037-4.252-10.037-9.497c0-5.246,4.494-9.5,10.037-9.5C723.368,18.193,727.862,22.447,727.862,27.693"/>
					<path clip-path="url(#SVGID_3_)" fill="#C0C0C0" d="M727.626,27.693c0,5.121-4.389,9.273-9.799,9.273
						c-5.414,0-9.799-4.152-9.799-9.273c0-5.123,4.385-9.276,9.799-9.276C723.237,18.417,727.626,22.57,727.626,27.693"/>
					<path clip-path="url(#SVGID_3_)" fill="#C2C3C3" d="M727.39,27.693c0,4.997-4.283,9.051-9.563,9.051
						c-5.283,0-9.564-4.054-9.564-9.051c0-5,4.281-9.052,9.564-9.052C723.106,18.642,727.39,22.693,727.39,27.693"/>
					<path clip-path="url(#SVGID_3_)" fill="#C4C5C4" d="M727.153,27.693c0,4.875-4.176,8.828-9.326,8.828
						c-5.152,0-9.328-3.953-9.328-8.828c0-4.877,4.176-8.828,9.328-8.828C722.978,18.865,727.153,22.816,727.153,27.693"/>
					<path clip-path="url(#SVGID_3_)" fill="#C6C8C8" d="M726.917,27.693c0,4.75-4.072,8.604-9.09,8.604
						c-5.021,0-9.092-3.854-9.092-8.604c0-4.752,4.07-8.606,9.092-8.606C722.845,19.087,726.917,22.941,726.917,27.693"/>
					<path clip-path="url(#SVGID_3_)" fill="#C9CACB" d="M726.681,27.693c0,4.627-3.963,8.38-8.854,8.38s-8.855-3.753-8.855-8.38
						c0-4.63,3.965-8.383,8.855-8.383S726.681,23.063,726.681,27.693"/>
					<path clip-path="url(#SVGID_3_)" fill="#CBCDCD" d="M726.446,27.693c0,4.504-3.861,8.158-8.619,8.158
						c-4.762,0-8.621-3.654-8.621-8.158c0-4.506,3.859-8.16,8.621-8.16C722.585,19.533,726.446,23.188,726.446,27.693"/>
					<path clip-path="url(#SVGID_3_)" fill="#CCCFD0" d="M726.21,27.693c0,4.381-3.754,7.935-8.383,7.935s-8.385-3.554-8.385-7.935
						c0-4.383,3.756-7.936,8.385-7.936S726.21,23.311,726.21,27.693"/>
					<path clip-path="url(#SVGID_3_)" fill="#D0D2D2" d="M725.974,27.693c0,4.258-3.648,7.711-8.146,7.711
						c-4.5,0-8.148-3.453-8.148-7.711c0-4.26,3.648-7.713,8.148-7.713C722.325,19.98,725.974,23.434,725.974,27.693"/>
					<path clip-path="url(#SVGID_3_)" fill="#D2D4D5" d="M725.737,27.693c0,4.134-3.543,7.487-7.91,7.487
						c-4.371,0-7.912-3.354-7.912-7.487c0-4.137,3.541-7.488,7.912-7.488C722.194,20.205,725.737,23.557,725.737,27.693"/>
				</g>
			</g>
			<polygon fill="#605F5E" points="716.515,33.404 716.515,28.934 711.792,28.934 711.792,26.452 716.515,26.452 716.515,21.982 
				719.138,21.982 719.138,26.452 723.86,26.452 723.86,28.934 719.138,28.934 719.138,33.404 			"/>
			<path fill="#221714" d="M718.911,22.196v4.038v0.433h0.453h4.27v2.05h-4.27h-0.453v0.43v4.041h-2.168v-4.041v-0.43h-0.455h-4.27
				v-2.05h4.27h0.455v-0.433v-4.038H718.911z M719.364,21.768h-3.076v4.467h-4.723v2.912h4.723v4.472h3.076v-4.472h4.723v-2.912
				h-4.723V21.768z"/>
		</g>
		<g>
			<path fill="#AFAEAE" d="M940.28,27.693c0,7.575-6.488,13.715-14.492,13.715s-14.492-6.14-14.492-13.715
				c0-7.576,6.488-13.718,14.492-13.718S940.28,20.117,940.28,27.693"/>
			<ellipse fill="none" stroke="#929292" stroke-miterlimit="10" cx="925.788" cy="27.693" rx="14.492" ry="13.715"/>
			<path fill="#AFAEAE" d="M936.435,27.693c0,5.564-4.768,10.078-10.646,10.078c-5.881,0-10.65-4.514-10.65-10.078
				c0-5.566,4.77-10.08,10.65-10.08C931.667,17.613,936.435,22.127,936.435,27.693"/>
			<ellipse fill="none" stroke="#929292" stroke-miterlimit="10" cx="925.786" cy="27.693" rx="10.648" ry="10.078"/>
			<g>
				<g>
					<defs>
						<rect id="SVGID_4_" x="915.749" y="18.193" width="20.074" height="18.997"/>
					</defs>
					<clipPath id="SVGID_5_">
						<use xlink:href="#SVGID_4_"  overflow="visible"/>
					</clipPath>
					<path clip-path="url(#SVGID_5_)" fill="#BEBEBD" d="M935.821,27.693c0,5.245-4.492,9.497-10.033,9.497
						c-5.543,0-10.037-4.252-10.037-9.497c0-5.246,4.494-9.5,10.037-9.5C931.329,18.193,935.821,22.447,935.821,27.693"/>
					<path clip-path="url(#SVGID_5_)" fill="#C0C0C0" d="M935.587,27.693c0,5.121-4.389,9.273-9.799,9.273
						c-5.414,0-9.801-4.152-9.801-9.273c0-5.123,4.387-9.276,9.801-9.276C931.198,18.417,935.587,22.57,935.587,27.693"/>
					<path clip-path="url(#SVGID_5_)" fill="#C2C3C3" d="M935.351,27.693c0,4.997-4.283,9.051-9.563,9.051
						c-5.283,0-9.564-4.054-9.564-9.051c0-5,4.281-9.052,9.564-9.052C931.067,18.642,935.351,22.693,935.351,27.693"/>
					<path clip-path="url(#SVGID_5_)" fill="#C4C5C4" d="M935.114,27.693c0,4.875-4.176,8.828-9.326,8.828
						c-5.152,0-9.33-3.953-9.33-8.828c0-4.877,4.178-8.828,9.33-8.828C930.938,18.865,935.114,22.816,935.114,27.693"/>
					<path clip-path="url(#SVGID_5_)" fill="#C6C8C8" d="M934.878,27.693c0,4.75-4.072,8.604-9.09,8.604
						c-5.021,0-9.092-3.854-9.092-8.604c0-4.752,4.07-8.606,9.092-8.606C930.806,19.087,934.878,22.941,934.878,27.693"/>
					<path clip-path="url(#SVGID_5_)" fill="#C9CACB" d="M934.64,27.693c0,4.627-3.961,8.38-8.852,8.38
						c-4.893,0-8.855-3.753-8.855-8.38c0-4.63,3.963-8.383,8.855-8.383C930.679,19.311,934.64,23.063,934.64,27.693"/>
					<path clip-path="url(#SVGID_5_)" fill="#CBCDCD" d="M934.407,27.693c0,4.504-3.861,8.158-8.619,8.158
						c-4.762,0-8.619-3.654-8.619-8.158c0-4.506,3.857-8.16,8.619-8.16C930.546,19.533,934.407,23.188,934.407,27.693"/>
					<path clip-path="url(#SVGID_5_)" fill="#CCCFD0" d="M934.171,27.693c0,4.381-3.756,7.935-8.383,7.935
						c-4.629,0-8.385-3.554-8.385-7.935c0-4.383,3.756-7.936,8.385-7.936C930.415,19.758,934.171,23.311,934.171,27.693"/>
					<path clip-path="url(#SVGID_5_)" fill="#D0D2D2" d="M933.935,27.693c0,4.258-3.648,7.711-8.146,7.711
						c-4.5,0-8.148-3.453-8.148-7.711c0-4.26,3.648-7.713,8.148-7.713C930.286,19.98,933.935,23.434,933.935,27.693"/>
					<path clip-path="url(#SVGID_5_)" fill="#D2D4D5" d="M933.698,27.693c0,4.134-3.543,7.487-7.91,7.487
						c-4.371,0-7.912-3.354-7.912-7.487c0-4.137,3.541-7.488,7.912-7.488C930.155,20.205,933.698,23.557,933.698,27.693"/>
				</g>
			</g>
			<polygon fill="#605F5E" points="924.476,33.404 924.476,28.934 919.753,28.934 919.753,26.452 924.476,26.452 924.476,21.982 
				927.099,21.982 927.099,26.452 931.821,26.452 931.821,28.934 927.099,28.934 927.099,33.404 			"/>
			<path fill="#221714" d="M926.872,22.196v4.038v0.433h0.453h4.27v2.05h-4.27h-0.453v0.43v4.041h-2.17v-4.041v-0.43h-0.453h-4.27
				v-2.05h4.27h0.453v-0.433v-4.038H926.872z M927.325,21.768h-3.076v4.467h-4.723v2.912h4.723v4.472h3.076v-4.472h4.723v-2.912
				h-4.723V21.768z"/>
		</g>
	</g>
</g>
<linearGradient id="SVGID_6_" gradientUnits="userSpaceOnUse" x1="1063.9678" y1="116.6133" x2="1063.9678" y2="11.4341">
	<stop  offset="0" style="stop-color:#030000"/>
	<stop  offset="0.102" style="stop-color:#505E6B"/>
	<stop  offset="0.9031" style="stop-color:#505E6B"/>
	<stop  offset="1" style="stop-color:#030000"/>
</linearGradient>
<path fill="url(#SVGID_6_)" d="M1183.196,112.848c0,2.08-1.922,3.766-4.293,3.766H949.032c-2.371,0-4.293-1.686-4.293-3.766V15.198
	c0-2.079,1.922-3.765,4.293-3.765h229.871c2.371,0,4.293,1.686,4.293,3.765V112.848z"/>
<g>
	<path fill="#AFAEAE" d="M974.479,27.693c0,7.575-6.49,13.715-14.492,13.715c-8.004,0-14.492-6.14-14.492-13.715
		c0-7.576,6.488-13.718,14.492-13.718C967.989,13.976,974.479,20.117,974.479,27.693"/>
	<ellipse fill="none" stroke="#929292" stroke-miterlimit="10" cx="959.987" cy="27.693" rx="14.492" ry="13.715"/>
	<path fill="#AFAEAE" d="M970.634,27.693c0,5.564-4.768,10.078-10.646,10.078c-5.881,0-10.65-4.514-10.65-10.078
		c0-5.566,4.77-10.08,10.65-10.08C965.866,17.613,970.634,22.127,970.634,27.693"/>
	<ellipse fill="none" stroke="#929292" stroke-miterlimit="10" cx="959.985" cy="27.693" rx="10.648" ry="10.078"/>
	<g>
		<g>
			<defs>
				<rect id="SVGID_7_" x="949.948" y="18.193" width="20.074" height="18.997"/>
			</defs>
			<clipPath id="SVGID_8_">
				<use xlink:href="#SVGID_7_"  overflow="visible"/>
			</clipPath>
			<path clip-path="url(#SVGID_8_)" fill="#BEBEBD" d="M970.021,27.693c0,5.245-4.492,9.497-10.033,9.497
				c-5.543,0-10.037-4.252-10.037-9.497c0-5.246,4.494-9.5,10.037-9.5C965.528,18.193,970.021,22.447,970.021,27.693"/>
			<path clip-path="url(#SVGID_8_)" fill="#C0C0C0" d="M969.786,27.693c0,5.121-4.389,9.273-9.799,9.273
				c-5.414,0-9.799-4.152-9.799-9.273c0-5.123,4.385-9.276,9.799-9.276C965.397,18.417,969.786,22.57,969.786,27.693"/>
			<path clip-path="url(#SVGID_8_)" fill="#C2C3C3" d="M969.55,27.693c0,4.997-4.283,9.051-9.563,9.051
				c-5.283,0-9.564-4.054-9.564-9.051c0-5,4.281-9.052,9.564-9.052C965.267,18.642,969.55,22.693,969.55,27.693"/>
			<path clip-path="url(#SVGID_8_)" fill="#C4C5C4" d="M969.313,27.693c0,4.875-4.176,8.828-9.326,8.828
				c-5.152,0-9.328-3.953-9.328-8.828c0-4.877,4.176-8.828,9.328-8.828C965.138,18.865,969.313,22.816,969.313,27.693"/>
			<path clip-path="url(#SVGID_8_)" fill="#C6C8C8" d="M969.077,27.693c0,4.75-4.072,8.604-9.09,8.604
				c-5.021,0-9.092-3.854-9.092-8.604c0-4.752,4.07-8.606,9.092-8.606C965.005,19.087,969.077,22.941,969.077,27.693"/>
			<path clip-path="url(#SVGID_8_)" fill="#C9CACB" d="M968.839,27.693c0,4.627-3.961,8.38-8.852,8.38
				c-4.893,0-8.855-3.753-8.855-8.38c0-4.63,3.963-8.383,8.855-8.383C964.878,19.311,968.839,23.063,968.839,27.693"/>
			<path clip-path="url(#SVGID_8_)" fill="#CBCDCD" d="M968.606,27.693c0,4.504-3.861,8.158-8.619,8.158
				c-4.762,0-8.619-3.654-8.619-8.158c0-4.506,3.857-8.16,8.619-8.16C964.745,19.533,968.606,23.188,968.606,27.693"/>
			<path clip-path="url(#SVGID_8_)" fill="#CCCFD0" d="M968.37,27.693c0,4.381-3.756,7.935-8.383,7.935
				c-4.629,0-8.385-3.554-8.385-7.935c0-4.383,3.756-7.936,8.385-7.936C964.614,19.758,968.37,23.311,968.37,27.693"/>
			<path clip-path="url(#SVGID_8_)" fill="#D0D2D2" d="M968.134,27.693c0,4.258-3.648,7.711-8.146,7.711
				c-4.5,0-8.148-3.453-8.148-7.711c0-4.26,3.648-7.713,8.148-7.713C964.485,19.98,968.134,23.434,968.134,27.693"/>
			<path clip-path="url(#SVGID_8_)" fill="#D2D4D5" d="M967.897,27.693c0,4.134-3.543,7.487-7.91,7.487
				c-4.371,0-7.912-3.354-7.912-7.487c0-4.137,3.541-7.488,7.912-7.488C964.354,20.205,967.897,23.557,967.897,27.693"/>
		</g>
	</g>
	<polygon fill="#605F5E" points="958.675,33.404 958.675,28.934 953.952,28.934 953.952,26.452 958.675,26.452 958.675,21.982 
		961.298,21.982 961.298,26.452 966.021,26.452 966.021,28.934 961.298,28.934 961.298,33.404 	"/>
	<path fill="#221714" d="M961.071,22.196v4.038v0.433h0.453h4.27v2.05h-4.27h-0.453v0.43v4.041h-2.168v-4.041v-0.43h-0.455h-4.27
		v-2.05h4.27h0.455v-0.433v-4.038H961.071z M961.524,21.768h-3.076v4.467h-4.723v2.912h4.723v4.472h3.076v-4.472h4.723v-2.912
		h-4.723V21.768z"/>
</g>
<g>
	<path fill="#AFAEAE" d="M1182.438,27.693c0,7.575-6.486,13.715-14.49,13.715s-14.492-6.14-14.492-13.715
		c0-7.576,6.488-13.718,14.492-13.718S1182.438,20.117,1182.438,27.693"/>
	<ellipse fill="none" stroke="#929292" stroke-miterlimit="10" cx="1167.947" cy="27.693" rx="14.491" ry="13.715"/>
	<path fill="#AFAEAE" d="M1178.595,27.693c0,5.564-4.768,10.078-10.646,10.078c-5.881,0-10.65-4.514-10.65-10.078
		c0-5.566,4.77-10.08,10.65-10.08C1173.827,17.613,1178.595,22.127,1178.595,27.693"/>
	<ellipse fill="none" stroke="#929292" stroke-miterlimit="10" cx="1167.946" cy="27.693" rx="10.648" ry="10.078"/>
	<g>
		<g>
			<defs>
				<rect id="SVGID_9_" x="1157.907" y="18.193" width="20.076" height="18.997"/>
			</defs>
			<clipPath id="SVGID_10_">
				<use xlink:href="#SVGID_9_"  overflow="visible"/>
			</clipPath>
			<path clip-path="url(#SVGID_10_)" fill="#BEBEBD" d="M1177.981,27.693c0,5.245-4.492,9.497-10.033,9.497
				c-5.545,0-10.037-4.252-10.037-9.497c0-5.246,4.492-9.5,10.037-9.5C1173.489,18.193,1177.981,22.447,1177.981,27.693"/>
			<path clip-path="url(#SVGID_10_)" fill="#C0C0C0" d="M1177.747,27.693c0,5.121-4.389,9.273-9.799,9.273
				c-5.414,0-9.801-4.152-9.801-9.273c0-5.123,4.387-9.276,9.801-9.276C1173.358,18.417,1177.747,22.57,1177.747,27.693"/>
			<path clip-path="url(#SVGID_10_)" fill="#C2C3C3" d="M1177.511,27.693c0,4.997-4.283,9.051-9.563,9.051
				c-5.283,0-9.564-4.054-9.564-9.051c0-5,4.281-9.052,9.564-9.052C1173.228,18.642,1177.511,22.693,1177.511,27.693"/>
			<path clip-path="url(#SVGID_10_)" fill="#C4C5C4" d="M1177.274,27.693c0,4.875-4.176,8.828-9.326,8.828
				c-5.152,0-9.33-3.953-9.33-8.828c0-4.877,4.178-8.828,9.33-8.828C1173.099,18.865,1177.274,22.816,1177.274,27.693"/>
			<path clip-path="url(#SVGID_10_)" fill="#C6C8C8" d="M1177.038,27.693c0,4.75-4.072,8.604-9.09,8.604
				c-5.021,0-9.092-3.854-9.092-8.604c0-4.752,4.07-8.606,9.092-8.606C1172.966,19.087,1177.038,22.941,1177.038,27.693"/>
			<path clip-path="url(#SVGID_10_)" fill="#C9CACB" d="M1176.802,27.693c0,4.627-3.963,8.38-8.854,8.38
				c-4.893,0-8.855-3.753-8.855-8.38c0-4.63,3.963-8.383,8.855-8.383C1172.839,19.311,1176.802,23.063,1176.802,27.693"/>
			<path clip-path="url(#SVGID_10_)" fill="#CBCDCD" d="M1176.567,27.693c0,4.504-3.861,8.158-8.619,8.158
				c-4.762,0-8.619-3.654-8.619-8.158c0-4.506,3.857-8.16,8.619-8.16C1172.706,19.533,1176.567,23.188,1176.567,27.693"/>
			<path clip-path="url(#SVGID_10_)" fill="#CCCFD0" d="M1176.331,27.693c0,4.381-3.756,7.935-8.383,7.935
				c-4.629,0-8.385-3.554-8.385-7.935c0-4.383,3.756-7.936,8.385-7.936C1172.575,19.758,1176.331,23.311,1176.331,27.693"/>
			<path clip-path="url(#SVGID_10_)" fill="#D0D2D2" d="M1176.095,27.693c0,4.258-3.648,7.711-8.146,7.711
				c-4.5,0-8.148-3.453-8.148-7.711c0-4.26,3.648-7.713,8.148-7.713C1172.446,19.98,1176.095,23.434,1176.095,27.693"/>
			<path clip-path="url(#SVGID_10_)" fill="#D2D4D5" d="M1175.858,27.693c0,4.134-3.543,7.487-7.91,7.487
				c-4.371,0-7.912-3.354-7.912-7.487c0-4.137,3.541-7.488,7.912-7.488C1172.315,20.205,1175.858,23.557,1175.858,27.693"/>
		</g>
	</g>
	<polygon fill="#605F5E" points="1166.636,33.404 1166.636,28.934 1161.913,28.934 1161.913,26.452 1166.636,26.452 
		1166.636,21.982 1169.259,21.982 1169.259,26.452 1173.981,26.452 1173.981,28.934 1169.259,28.934 1169.259,33.404 	"/>
	<path fill="#221714" d="M1169.03,22.196v4.038v0.433h0.455h4.27v2.05h-4.27h-0.455v0.43v4.041h-2.168v-4.041v-0.43h-0.453h-4.27
		v-2.05h4.27h0.453v-0.433v-4.038H1169.03z M1169.485,21.768h-3.076v4.467h-4.723v2.912h4.723v4.472h3.076v-4.472h4.721v-2.912
		h-4.721V21.768z"/>
</g>
<g>
	<g>
		<ellipse fill="none" stroke="#B4B4B4" stroke-miterlimit="10" cx="1203.382" cy="53.197" rx="6.195" ry="5.833"/>
	</g>
	<g>
		<rect x="1200.417" y="56.117" fill="#B4B4B4" width="5.93" height="0.857"/>
		<rect x="1199.718" y="54.656" fill="#B4B4B4" width="7.328" height="0.859"/>
		<rect x="1199.05" y="53.197" fill="#B4B4B4" width="8.664" height="0.858"/>
		<rect x="1203.017" y="48.046" fill="#B4B4B4" width="0.73" height="4.751"/>
	</g>
</g>
<g>
	<path fill="#AFAEAE" d="M1211.376,28.285c0,4.152-3.578,7.518-7.994,7.518c-4.414,0-7.994-3.365-7.994-7.518
		s3.58-7.519,7.994-7.519C1207.798,20.767,1211.376,24.133,1211.376,28.285"/>
	<ellipse fill="none" stroke="#929292" stroke-miterlimit="10" cx="1203.382" cy="28.285" rx="7.994" ry="7.518"/>
	<path fill="#AFAEAE" d="M1209.257,28.285c0,3.051-2.631,5.525-5.875,5.525c-3.242,0-5.875-2.475-5.875-5.525
		c0-3.052,2.633-5.525,5.875-5.525C1206.626,22.76,1209.257,25.233,1209.257,28.285"/>
	<ellipse fill="none" stroke="#929292" stroke-miterlimit="10" cx="1203.382" cy="28.285" rx="5.875" ry="5.525"/>
	<g>
		<g>
			<defs>
				<rect id="SVGID_11_" x="1197.845" y="23.078" width="11.074" height="10.413"/>
			</defs>
			<clipPath id="SVGID_12_">
				<use xlink:href="#SVGID_11_"  overflow="visible"/>
			</clipPath>
			<path clip-path="url(#SVGID_12_)" fill="#BEBEBD" d="M1208.919,28.285c0,2.874-2.479,5.206-5.537,5.206
				c-3.057,0-5.535-2.332-5.535-5.206c0-2.875,2.479-5.207,5.535-5.207C1206.44,23.078,1208.919,25.41,1208.919,28.285"/>
			<path clip-path="url(#SVGID_12_)" fill="#C0C0C0" d="M1208.788,28.285c0,2.807-2.42,5.083-5.406,5.083
				c-2.984,0-5.406-2.276-5.406-5.083c0-2.809,2.422-5.084,5.406-5.084C1206.368,23.201,1208.788,25.477,1208.788,28.285"/>
			<path clip-path="url(#SVGID_12_)" fill="#C2C3C3" d="M1208.657,28.285c0,2.738-2.361,4.961-5.275,4.961s-5.275-2.223-5.275-4.961
				c0-2.741,2.361-4.962,5.275-4.962S1208.657,25.544,1208.657,28.285"/>
			<path clip-path="url(#SVGID_12_)" fill="#C4C5C4" d="M1208.526,28.285c0,2.672-2.303,4.838-5.145,4.838s-5.145-2.166-5.145-4.838
				c0-2.674,2.303-4.838,5.145-4.838S1208.526,25.611,1208.526,28.285"/>
			<path clip-path="url(#SVGID_12_)" fill="#C6C8C8" d="M1208.397,28.285c0,2.604-2.246,4.717-5.016,4.717s-5.014-2.113-5.014-4.717
				c0-2.605,2.244-4.717,5.014-4.717S1208.397,25.68,1208.397,28.285"/>
			<path clip-path="url(#SVGID_12_)" fill="#C9CACB" d="M1208.267,28.285c0,2.537-2.186,4.593-4.885,4.593
				c-2.697,0-4.885-2.056-4.885-4.593c0-2.538,2.188-4.594,4.885-4.594C1206.081,23.691,1208.267,25.747,1208.267,28.285"/>
			<path clip-path="url(#SVGID_12_)" fill="#CBCDCD" d="M1208.138,28.285c0,2.47-2.131,4.473-4.756,4.473s-4.754-2.003-4.754-4.473
				s2.129-4.474,4.754-4.474S1208.138,25.815,1208.138,28.285"/>
			<path clip-path="url(#SVGID_12_)" fill="#CCCFD0" d="M1208.007,28.285c0,2.401-2.07,4.35-4.625,4.35
				c-2.553,0-4.625-1.948-4.625-4.35s2.072-4.35,4.625-4.35C1205.937,23.936,1208.007,25.884,1208.007,28.285"/>
			<path clip-path="url(#SVGID_12_)" fill="#D0D2D2" d="M1207.876,28.285c0,2.334-2.012,4.227-4.494,4.227s-4.494-1.893-4.494-4.227
				c0-2.336,2.012-4.228,4.494-4.228S1207.876,25.949,1207.876,28.285"/>
			<path clip-path="url(#SVGID_12_)" fill="#D2D4D5" d="M1207.747,28.285c0,2.267-1.955,4.104-4.365,4.104s-4.363-1.837-4.363-4.104
				c0-2.268,1.953-4.104,4.363-4.104S1207.747,26.018,1207.747,28.285"/>
		</g>
	</g>
	<polygon fill="#605F5E" points="1202.659,31.416 1202.659,28.965 1200.054,28.965 1200.054,27.604 1202.659,27.604 
		1202.659,25.154 1204.106,25.154 1204.106,27.604 1206.71,27.604 1206.71,28.965 1204.106,28.965 1204.106,31.416 	"/>
</g>
<g>
	<path fill="#AFAEAE" d="M1211.376,79.424c0,4.152-3.578,7.518-7.994,7.518c-4.414,0-7.994-3.365-7.994-7.518
		s3.58-7.519,7.994-7.519C1207.798,71.905,1211.376,75.271,1211.376,79.424"/>
	<ellipse fill="none" stroke="#929292" stroke-miterlimit="10" cx="1203.382" cy="79.424" rx="7.994" ry="7.518"/>
	<path fill="#AFAEAE" d="M1209.257,79.424c0,3.051-2.631,5.525-5.875,5.525c-3.242,0-5.875-2.475-5.875-5.525
		c0-3.052,2.633-5.525,5.875-5.525C1206.626,73.898,1209.257,76.372,1209.257,79.424"/>
	<ellipse fill="none" stroke="#929292" stroke-miterlimit="10" cx="1203.382" cy="79.424" rx="5.875" ry="5.525"/>
	<g>
		<g>
			<defs>
				<rect id="SVGID_13_" x="1197.845" y="74.217" width="11.074" height="10.414"/>
			</defs>
			<clipPath id="SVGID_14_">
				<use xlink:href="#SVGID_13_"  overflow="visible"/>
			</clipPath>
			<path clip-path="url(#SVGID_14_)" fill="#BEBEBD" d="M1208.919,79.424c0,2.874-2.479,5.207-5.537,5.207
				c-3.057,0-5.535-2.333-5.535-5.207c0-2.875,2.479-5.207,5.535-5.207C1206.44,74.217,1208.919,76.549,1208.919,79.424"/>
			<path clip-path="url(#SVGID_14_)" fill="#C0C0C0" d="M1208.788,79.424c0,2.807-2.42,5.083-5.406,5.083
				c-2.984,0-5.406-2.276-5.406-5.083c0-2.809,2.422-5.084,5.406-5.084C1206.368,74.34,1208.788,76.615,1208.788,79.424"/>
			<path clip-path="url(#SVGID_14_)" fill="#C2C3C3" d="M1208.657,79.424c0,2.738-2.361,4.961-5.275,4.961s-5.275-2.223-5.275-4.961
				c0-2.74,2.361-4.961,5.275-4.961S1208.657,76.684,1208.657,79.424"/>
			<path clip-path="url(#SVGID_14_)" fill="#C4C5C4" d="M1208.526,79.424c0,2.672-2.303,4.838-5.145,4.838s-5.145-2.166-5.145-4.838
				c0-2.674,2.303-4.838,5.145-4.838S1208.526,76.75,1208.526,79.424"/>
			<path clip-path="url(#SVGID_14_)" fill="#C6C8C8" d="M1208.397,79.424c0,2.604-2.246,4.717-5.016,4.717s-5.014-2.113-5.014-4.717
				c0-2.605,2.244-4.717,5.014-4.717S1208.397,76.818,1208.397,79.424"/>
			<path clip-path="url(#SVGID_14_)" fill="#C9CACB" d="M1208.267,79.424c0,2.537-2.186,4.594-4.885,4.594
				c-2.697,0-4.885-2.057-4.885-4.594s2.188-4.594,4.885-4.594C1206.081,74.83,1208.267,76.887,1208.267,79.424"/>
			<path clip-path="url(#SVGID_14_)" fill="#CBCDCD" d="M1208.138,79.424c0,2.47-2.131,4.473-4.756,4.473s-4.754-2.003-4.754-4.473
				c0-2.469,2.129-4.473,4.754-4.473S1208.138,76.955,1208.138,79.424"/>
			<path clip-path="url(#SVGID_14_)" fill="#CCCFD0" d="M1208.007,79.424c0,2.402-2.07,4.35-4.625,4.35
				c-2.553,0-4.625-1.947-4.625-4.35s2.072-4.35,4.625-4.35C1205.937,75.074,1208.007,77.021,1208.007,79.424"/>
			<path clip-path="url(#SVGID_14_)" fill="#D0D2D2" d="M1207.876,79.424c0,2.334-2.012,4.227-4.494,4.227s-4.494-1.893-4.494-4.227
				c0-2.335,2.012-4.228,4.494-4.228S1207.876,77.089,1207.876,79.424"/>
			<path clip-path="url(#SVGID_14_)" fill="#D2D4D5" d="M1207.747,79.424c0,2.267-1.955,4.104-4.365,4.104s-4.363-1.837-4.363-4.104
				c0-2.268,1.953-4.104,4.363-4.104S1207.747,77.156,1207.747,79.424"/>
		</g>
	</g>
	<polygon fill="#605F5E" points="1202.659,82.555 1202.659,80.104 1200.054,80.104 1200.054,78.743 1202.659,78.743 
		1202.659,76.293 1204.106,76.293 1204.106,78.743 1206.71,78.743 1206.71,80.104 1204.106,80.104 1204.106,82.555 	"/>
</g>
<g>
	<path fill="#AFAEAE" d="M91.448,88.033c0,4.152-3.578,7.518-7.994,7.518s-7.995-3.365-7.995-7.518s3.579-7.519,7.995-7.519
		S91.448,83.881,91.448,88.033"/>
	<ellipse fill="none" stroke="#929292" stroke-miterlimit="10" cx="83.454" cy="88.033" rx="7.994" ry="7.518"/>
	<path fill="#AFAEAE" d="M89.328,88.033c0,3.051-2.63,5.525-5.874,5.525s-5.875-2.475-5.875-5.525c0-3.052,2.631-5.525,5.875-5.525
		S89.328,84.981,89.328,88.033"/>
	<ellipse fill="none" stroke="#929292" stroke-miterlimit="10" cx="83.454" cy="88.033" rx="5.874" ry="5.525"/>
	<g>
		<g>
			<defs>
				<rect id="SVGID_15_" x="77.917" y="82.826" width="11.074" height="10.413"/>
			</defs>
			<clipPath id="SVGID_16_">
				<use xlink:href="#SVGID_15_"  overflow="visible"/>
			</clipPath>
			<path clip-path="url(#SVGID_16_)" fill="#BEBEBD" d="M88.99,88.033c0,2.874-2.479,5.206-5.536,5.206
				c-3.058,0-5.537-2.332-5.537-5.206c0-2.875,2.479-5.207,5.537-5.207C86.512,82.826,88.99,85.158,88.99,88.033"/>
			<path clip-path="url(#SVGID_16_)" fill="#C0C0C0" d="M88.859,88.033c0,2.807-2.42,5.083-5.405,5.083
				c-2.986,0-5.406-2.276-5.406-5.083c0-2.809,2.42-5.084,5.406-5.084C86.439,82.949,88.859,85.225,88.859,88.033"/>
			<path clip-path="url(#SVGID_16_)" fill="#C2C3C3" d="M88.729,88.033c0,2.738-2.362,4.961-5.275,4.961
				c-2.914,0-5.276-2.223-5.276-4.961c0-2.741,2.362-4.962,5.276-4.962C86.367,83.071,88.729,85.292,88.729,88.033"/>
			<path clip-path="url(#SVGID_16_)" fill="#C4C5C4" d="M88.6,88.033c0,2.672-2.304,4.838-5.145,4.838
				c-2.843,0-5.146-2.166-5.146-4.838c0-2.674,2.303-4.838,5.146-4.838C86.296,83.195,88.6,85.359,88.6,88.033"/>
			<path clip-path="url(#SVGID_16_)" fill="#C6C8C8" d="M88.47,88.033c0,2.604-2.246,4.717-5.015,4.717
				c-2.77,0-5.015-2.113-5.015-4.717c0-2.605,2.245-4.718,5.015-4.718C86.224,83.315,88.47,85.428,88.47,88.033"/>
			<path clip-path="url(#SVGID_16_)" fill="#C9CACB" d="M88.339,88.033c0,2.537-2.187,4.593-4.884,4.593
				c-2.699,0-4.885-2.056-4.885-4.593c0-2.538,2.187-4.594,4.885-4.594C86.152,83.439,88.339,85.495,88.339,88.033"/>
			<path clip-path="url(#SVGID_16_)" fill="#CBCDCD" d="M88.209,88.033c0,2.469-2.129,4.473-4.754,4.473
				c-2.626,0-4.754-2.004-4.754-4.473s2.128-4.474,4.754-4.474C86.08,83.56,88.209,85.564,88.209,88.033"/>
			<path clip-path="url(#SVGID_16_)" fill="#CCCFD0" d="M88.079,88.033c0,2.401-2.071,4.35-4.625,4.35s-4.625-1.948-4.625-4.35
				c0-2.402,2.072-4.35,4.625-4.35S88.079,85.631,88.079,88.033"/>
			<path clip-path="url(#SVGID_16_)" fill="#D0D2D2" d="M87.948,88.033c0,2.334-2.012,4.227-4.494,4.227
				c-2.482,0-4.495-1.893-4.495-4.227c0-2.335,2.012-4.228,4.495-4.228C85.937,83.806,87.948,85.698,87.948,88.033"/>
			<path clip-path="url(#SVGID_16_)" fill="#D2D4D5" d="M87.818,88.033c0,2.266-1.955,4.104-4.364,4.104
				c-2.411,0-4.365-1.838-4.365-4.104c0-2.268,1.954-4.104,4.365-4.104C85.864,83.929,87.818,85.766,87.818,88.033"/>
		</g>
	</g>
	<polygon fill="#605F5E" points="82.731,91.164 82.731,88.713 80.125,88.713 80.125,87.352 82.731,87.352 82.731,84.902 
		84.178,84.902 84.178,87.352 86.782,87.352 86.782,88.713 84.178,88.713 84.178,91.164 	"/>
</g>
<g>
	<path fill="#AFAEAE" d="M354.088,88.033c0,4.152-3.578,7.518-7.994,7.518s-7.995-3.365-7.995-7.518s3.579-7.519,7.995-7.519
		S354.088,83.881,354.088,88.033"/>
	<ellipse fill="none" stroke="#929292" stroke-miterlimit="10" cx="346.094" cy="88.033" rx="7.994" ry="7.518"/>
	<path fill="#AFAEAE" d="M351.968,88.033c0,3.051-2.63,5.525-5.874,5.525s-5.874-2.475-5.874-5.525c0-3.052,2.63-5.525,5.874-5.525
		S351.968,84.981,351.968,88.033"/>
	<ellipse fill="none" stroke="#929292" stroke-miterlimit="10" cx="346.094" cy="88.033" rx="5.874" ry="5.525"/>
	<g>
		<g>
			<defs>
				<rect id="SVGID_17_" x="340.557" y="82.826" width="11.075" height="10.413"/>
			</defs>
			<clipPath id="SVGID_18_">
				<use xlink:href="#SVGID_17_"  overflow="visible"/>
			</clipPath>
			<path clip-path="url(#SVGID_18_)" fill="#BEBEBD" d="M351.63,88.033c0,2.874-2.478,5.206-5.536,5.206s-5.536-2.332-5.536-5.206
				c0-2.875,2.479-5.207,5.536-5.207S351.63,85.158,351.63,88.033"/>
			<path clip-path="url(#SVGID_18_)" fill="#C0C0C0" d="M351.499,88.033c0,2.807-2.42,5.083-5.405,5.083
				c-2.986,0-5.405-2.276-5.405-5.083c0-2.809,2.419-5.084,5.405-5.084C349.079,82.949,351.499,85.225,351.499,88.033"/>
			<path clip-path="url(#SVGID_18_)" fill="#C2C3C3" d="M351.37,88.033c0,2.738-2.363,4.961-5.276,4.961
				c-2.914,0-5.275-2.223-5.275-4.961c0-2.741,2.362-4.962,5.275-4.962C349.007,83.071,351.37,85.292,351.37,88.033"/>
			<path clip-path="url(#SVGID_18_)" fill="#C4C5C4" d="M351.24,88.033c0,2.672-2.303,4.838-5.146,4.838
				c-2.842,0-5.146-2.166-5.146-4.838c0-2.674,2.304-4.838,5.146-4.838C348.937,83.195,351.24,85.359,351.24,88.033"/>
			<path clip-path="url(#SVGID_18_)" fill="#C6C8C8" d="M351.11,88.033c0,2.604-2.246,4.717-5.016,4.717
				c-2.77,0-5.015-2.113-5.015-4.717c0-2.605,2.245-4.718,5.015-4.718C348.864,83.315,351.11,85.428,351.11,88.033"/>
			<path clip-path="url(#SVGID_18_)" fill="#C9CACB" d="M350.979,88.033c0,2.537-2.187,4.593-4.885,4.593
				c-2.698,0-4.885-2.056-4.885-4.593c0-2.538,2.187-4.594,4.885-4.594C348.792,83.439,350.979,85.495,350.979,88.033"/>
			<path clip-path="url(#SVGID_18_)" fill="#CBCDCD" d="M350.849,88.033c0,2.469-2.128,4.473-4.754,4.473s-4.754-2.004-4.754-4.473
				s2.128-4.474,4.754-4.474S350.849,85.564,350.849,88.033"/>
			<path clip-path="url(#SVGID_18_)" fill="#CCCFD0" d="M350.719,88.033c0,2.401-2.071,4.35-4.625,4.35s-4.625-1.948-4.625-4.35
				c0-2.402,2.072-4.35,4.625-4.35S350.719,85.631,350.719,88.033"/>
			<path clip-path="url(#SVGID_18_)" fill="#D0D2D2" d="M350.588,88.033c0,2.334-2.011,4.227-4.494,4.227s-4.495-1.893-4.495-4.227
				c0-2.335,2.012-4.228,4.495-4.228S350.588,85.698,350.588,88.033"/>
			<path clip-path="url(#SVGID_18_)" fill="#D2D4D5" d="M350.458,88.033c0,2.266-1.954,4.104-4.364,4.104
				c-2.411,0-4.364-1.838-4.364-4.104c0-2.268,1.953-4.104,4.364-4.104C348.504,83.929,350.458,85.766,350.458,88.033"/>
		</g>
	</g>
	<polygon fill="#605F5E" points="345.371,91.164 345.371,88.713 342.765,88.713 342.765,87.352 345.371,87.352 345.371,84.902 
		346.818,84.902 346.818,87.352 349.423,87.352 349.423,88.713 346.818,88.713 346.818,91.164 	"/>
</g>
<g>
	<path fill="#AFAEAE" d="M523.248,88.033c0,4.152-3.578,7.518-7.993,7.518c-4.416,0-7.995-3.365-7.995-7.518
		s3.579-7.519,7.995-7.519C519.67,80.515,523.248,83.881,523.248,88.033"/>
	<ellipse fill="none" stroke="#929292" stroke-miterlimit="10" cx="515.254" cy="88.033" rx="7.994" ry="7.518"/>
	<path fill="#AFAEAE" d="M521.128,88.033c0,3.051-2.63,5.525-5.873,5.525c-3.244,0-5.875-2.475-5.875-5.525
		c0-3.052,2.631-5.525,5.875-5.525C518.498,82.508,521.128,84.981,521.128,88.033"/>
	<ellipse fill="none" stroke="#929292" stroke-miterlimit="10" cx="515.254" cy="88.033" rx="5.874" ry="5.525"/>
	<g>
		<g>
			<defs>
				<rect id="SVGID_19_" x="509.717" y="82.826" width="11.074" height="10.413"/>
			</defs>
			<clipPath id="SVGID_20_">
				<use xlink:href="#SVGID_19_"  overflow="visible"/>
			</clipPath>
			<path clip-path="url(#SVGID_20_)" fill="#BEBEBD" d="M520.79,88.033c0,2.874-2.479,5.206-5.535,5.206
				c-3.058,0-5.537-2.332-5.537-5.206c0-2.875,2.479-5.207,5.537-5.207C518.312,82.826,520.79,85.158,520.79,88.033"/>
			<path clip-path="url(#SVGID_20_)" fill="#C0C0C0" d="M520.659,88.033c0,2.807-2.42,5.083-5.404,5.083
				c-2.986,0-5.406-2.276-5.406-5.083c0-2.809,2.42-5.084,5.406-5.084C518.239,82.949,520.659,85.225,520.659,88.033"/>
			<path clip-path="url(#SVGID_20_)" fill="#C2C3C3" d="M520.529,88.033c0,2.738-2.362,4.961-5.274,4.961
				c-2.914,0-5.276-2.223-5.276-4.961c0-2.741,2.362-4.962,5.276-4.962C518.167,83.071,520.529,85.292,520.529,88.033"/>
			<path clip-path="url(#SVGID_20_)" fill="#C4C5C4" d="M520.399,88.033c0,2.672-2.303,4.838-5.145,4.838
				c-2.843,0-5.146-2.166-5.146-4.838c0-2.674,2.303-4.838,5.146-4.838C518.097,83.195,520.399,85.359,520.399,88.033"/>
			<path clip-path="url(#SVGID_20_)" fill="#C6C8C8" d="M520.27,88.033c0,2.604-2.246,4.717-5.015,4.717
				c-2.77,0-5.016-2.113-5.016-4.717c0-2.605,2.246-4.718,5.016-4.718C518.024,83.315,520.27,85.428,520.27,88.033"/>
			<path clip-path="url(#SVGID_20_)" fill="#C9CACB" d="M520.139,88.033c0,2.537-2.187,4.593-4.884,4.593
				c-2.699,0-4.886-2.056-4.886-4.593c0-2.538,2.187-4.594,4.886-4.594C517.952,83.439,520.139,85.495,520.139,88.033"/>
			<path clip-path="url(#SVGID_20_)" fill="#CBCDCD" d="M520.009,88.033c0,2.469-2.129,4.473-4.754,4.473
				c-2.627,0-4.755-2.004-4.755-4.473s2.128-4.474,4.755-4.474C517.88,83.56,520.009,85.564,520.009,88.033"/>
			<path clip-path="url(#SVGID_20_)" fill="#CCCFD0" d="M519.879,88.033c0,2.401-2.071,4.35-4.624,4.35
				c-2.554,0-4.626-1.948-4.626-4.35c0-2.402,2.072-4.35,4.626-4.35C517.808,83.684,519.879,85.631,519.879,88.033"/>
			<path clip-path="url(#SVGID_20_)" fill="#D0D2D2" d="M519.748,88.033c0,2.334-2.012,4.227-4.493,4.227
				c-2.482,0-4.495-1.893-4.495-4.227c0-2.335,2.013-4.228,4.495-4.228C517.736,83.806,519.748,85.698,519.748,88.033"/>
			<path clip-path="url(#SVGID_20_)" fill="#D2D4D5" d="M519.618,88.033c0,2.266-1.954,4.104-4.363,4.104
				c-2.411,0-4.365-1.838-4.365-4.104c0-2.268,1.954-4.104,4.365-4.104C517.664,83.929,519.618,85.766,519.618,88.033"/>
		</g>
	</g>
	<polygon fill="#605F5E" points="514.531,91.164 514.531,88.713 511.925,88.713 511.925,87.352 514.531,87.352 514.531,84.902 
		515.978,84.902 515.978,87.352 518.583,87.352 518.583,88.713 515.978,88.713 515.978,91.164 	"/>
</g>
<g>
	<g>
		<polygon fill="#888988" points="40.544,126.141 42.537,126.141 42.537,45.232 0,0.404 0,3.062 40.544,45.929 		"/>
	</g>
	<g>
		<polygon fill="#0B0C0C" points="40.674,126.141 42.674,126.141 42.674,44.973 0,-0.001 0,2.667 40.674,45.671 		"/>
	</g>
</g>
<g>
	<g>
		<polygon fill="#888988" points="1235.046,126.141 1233.054,126.141 1233.054,45.232 1275.591,0.404 1275.591,3.062 
			1235.046,45.929 		"/>
	</g>
	<g>
		<polygon fill="#0B0C0C" points="1234.917,126.141 1232.917,126.141 1232.917,44.973 1275.591,-0.001 1275.591,2.667 
			1234.917,45.671 		"/>
	</g>
</g>
<rect x="543.814" y="62.241" fill="#454C58" stroke="#6B6B6B" stroke-miterlimit="10" width="131.296" height="59.192"/>
<rect x="543.814" y="63.183" fill="#454C58" stroke="#252526" stroke-miterlimit="10" width="131.296" height="59.192"/>
<g>
	<g>
		<path fill="#252626" d="M669.897,90.342c0,4.252-3.662,7.697-8.18,7.697s-8.182-3.445-8.182-7.697s3.664-7.699,8.182-7.699
			S669.897,86.09,669.897,90.342"/>
		
			<ellipse fill="none" stroke="#121212" stroke-width="0.75" stroke-miterlimit="10" cx="661.717" cy="90.342" rx="8.181" ry="7.697"/>
		<polygon fill="#040000" points="660.706,94.707 660.706,91.293 657.077,91.293 657.077,89.389 660.706,89.389 660.706,85.976 
			662.728,85.976 662.728,89.389 666.356,89.389 666.356,91.293 662.728,91.293 662.728,94.707 		"/>
		<path fill="#221714" d="M662.558,86.137v3.093v0.321h0.34h3.289v1.581h-3.289h-0.34v0.321v3.094h-1.68v-3.094v-0.321h-0.342
			h-3.287v-1.581h3.287h0.342v-0.321v-3.093H662.558z M662.897,85.814h-2.361v3.415h-3.629v2.224h3.629v3.414h2.361v-3.414h3.629
			v-2.224h-3.629V85.814z"/>
	</g>
	<rect x="660.536" y="85.814" fill="#606062" width="0.342" height="3.736"/>
	<rect x="656.907" y="89.229" fill="#606062" width="3.969" height="0.322"/>
</g>
<g>
	<g>
		<path fill="#252626" d="M563.685,90.857c0,4.252-3.663,7.697-8.181,7.697s-8.18-3.445-8.18-7.697s3.662-7.699,8.18-7.699
			S563.685,86.605,563.685,90.857"/>
		
			<ellipse fill="none" stroke="#121212" stroke-width="0.75" stroke-miterlimit="10" cx="555.504" cy="90.857" rx="8.18" ry="7.697"/>
		<polygon fill="#040000" points="554.493,95.223 554.493,91.808 550.864,91.808 550.864,89.904 554.493,89.904 554.493,86.49 
			556.515,86.49 556.515,89.904 560.144,89.904 560.144,91.808 556.515,91.808 556.515,95.223 		"/>
		<path fill="#221714" d="M556.345,86.652v3.092v0.321h0.34h3.289v1.581h-3.289h-0.34v0.321v3.095h-1.681v-3.095v-0.321h-0.342
			h-3.287v-1.581h3.287h0.342v-0.321v-3.092H556.345z M556.685,86.33h-2.362v3.414h-3.628v2.224h3.628v3.415h2.362v-3.415h3.629
			v-2.224h-3.629V86.33z"/>
	</g>
	<rect x="554.322" y="86.33" fill="#606062" width="0.342" height="3.735"/>
	<rect x="550.694" y="89.744" fill="#606062" width="3.968" height="0.321"/>
</g>
<text transform="matrix(1.0623 0 0 1 816.502 9.3037)" fill="#EDEDEC" font-family="'SimHei'" font-size="9.9615">XE1</text>
<text transform="matrix(1.0623 0 0 1 591.9092 54.3037)" fill="#EDEDEC" font-family="'SimHei'" font-size="9.9615">RPS-12V</text>
<text transform="matrix(1.0623 0 0 1 1060.9209 9.3037)" fill="#EDEDEC" font-family="'SimHei'" font-size="9.9615">XE2</text>
</svg>
