<?xml version="1.0" encoding="utf-8"?>
<!-- Generator: Adobe Illustrator 16.0.0, SVG Export Plug-In . SVG Version: 6.00 Build 0)  -->
<!DOCTYPE svg PUBLIC "-//W3C//DTD SVG 1.1//EN" "http://www.w3.org/Graphics/SVG/1.1/DTD/svg11.dtd">
<svg version="1.1" id="图层_1" xmlns="http://www.w3.org/2000/svg" xmlns:xlink="http://www.w3.org/1999/xlink" x="0px" y="0px"
	 width="103.88px" height="784.33px" viewBox="0 0 103.88 784.33" enable-background="new 0 0 103.88 784.33" xml:space="preserve">
<g>
	<g>
		<path fill="#C4C3BF" d="M103.879,777.641c0,3.693-2.502,6.688-5.588,6.688H56.916c-3.086,0-5.588-2.994-5.588-6.688V6.687
			C51.328,2.994,53.83,0,56.916,0h41.375c3.086,0,5.588,2.994,5.588,6.687V777.641z"/>
		<g>
			<g>
				<path fill="#AFAFAF" d="M86.863,12.077c0,4.038-3.443,7.312-7.691,7.312c-4.246,0-7.688-3.274-7.688-7.312
					c0-4.039,3.441-7.313,7.688-7.313C83.42,4.764,86.863,8.038,86.863,12.077"/>
				<ellipse fill="none" stroke="#949394" stroke-miterlimit="10" cx="79.174" cy="12.077" rx="7.689" ry="7.312"/>
				<path fill="#AFAFAF" d="M84.822,12.077c0,2.966-2.529,5.373-5.65,5.373c-3.119,0-5.648-2.406-5.648-5.373
					c0-2.967,2.529-5.374,5.648-5.374C82.293,6.704,84.822,9.11,84.822,12.077"/>
				<ellipse fill="none" stroke="#949394" stroke-miterlimit="10" cx="79.173" cy="12.077" rx="5.649" ry="5.373"/>
				<g>
					<g>
						<defs>
							<rect id="SVGID_1_" x="73.846" y="7.013" width="10.654" height="10.128"/>
						</defs>
						<clipPath id="SVGID_2_">
							<use xlink:href="#SVGID_1_"  overflow="visible"/>
						</clipPath>
						<path clip-path="url(#SVGID_2_)" fill="#BFBFBF" d="M84.498,12.077c0,2.796-2.385,5.064-5.326,5.064
							c-2.939,0-5.324-2.268-5.324-5.064c0-2.797,2.385-5.064,5.324-5.064C82.113,7.013,84.498,9.28,84.498,12.077"/>
						<path clip-path="url(#SVGID_2_)" fill="#C1C1C1" d="M84.373,12.077c0,2.73-2.328,4.944-5.201,4.944
							c-2.869,0-5.197-2.214-5.197-4.944c0-2.731,2.328-4.945,5.197-4.945C82.045,7.132,84.373,9.346,84.373,12.077"/>
						<path clip-path="url(#SVGID_2_)" fill="#C3C4C4" d="M84.248,12.077c0,2.665-2.271,4.826-5.076,4.826
							c-2.801,0-5.072-2.161-5.072-4.826c0-2.665,2.271-4.826,5.072-4.826C81.977,7.251,84.248,9.412,84.248,12.077"/>
						<path clip-path="url(#SVGID_2_)" fill="#C5C6C6" d="M84.123,12.077c0,2.599-2.217,4.707-4.951,4.707
							c-2.732,0-4.947-2.108-4.947-4.707c0-2.6,2.215-4.707,4.947-4.707C81.906,7.37,84.123,9.477,84.123,12.077"/>
						<path clip-path="url(#SVGID_2_)" fill="#C7C9C9" d="M83.998,12.077c0,2.533-2.16,4.587-4.826,4.587
							c-2.662,0-4.822-2.055-4.822-4.587c0-2.534,2.16-4.588,4.822-4.588C81.838,7.489,83.998,9.543,83.998,12.077"/>
						<path clip-path="url(#SVGID_2_)" fill="#CACBCB" d="M83.871,12.077c0,2.467-2.104,4.468-4.699,4.468
							c-2.594,0-4.697-2.001-4.697-4.468c0-2.468,2.104-4.469,4.697-4.469C81.768,7.608,83.871,9.609,83.871,12.077"/>
						<path clip-path="url(#SVGID_2_)" fill="#CCCECE" d="M83.746,12.077c0,2.401-2.047,4.349-4.574,4.349
							c-2.525,0-4.572-1.948-4.572-4.349c0-2.402,2.047-4.349,4.572-4.349C81.699,7.728,83.746,9.675,83.746,12.077"/>
						<path clip-path="url(#SVGID_2_)" fill="#CED0D0" d="M83.621,12.077c0,2.335-1.992,4.23-4.449,4.23
							c-2.455,0-4.447-1.895-4.447-4.23c0-2.336,1.992-4.231,4.447-4.231C81.629,7.846,83.621,9.741,83.621,12.077"/>
						<path clip-path="url(#SVGID_2_)" fill="#D1D3D3" d="M83.496,12.077c0,2.27-1.936,4.111-4.324,4.111
							c-2.385,0-4.322-1.841-4.322-4.111c0-2.271,1.938-4.112,4.322-4.112C81.561,7.965,83.496,9.806,83.496,12.077"/>
						<path clip-path="url(#SVGID_2_)" fill="#D3D5D5" d="M83.371,12.077c0,2.205-1.879,3.992-4.199,3.992
							c-2.316,0-4.195-1.787-4.195-3.992c0-2.205,1.879-3.992,4.195-3.992C81.492,8.085,83.371,9.872,83.371,12.077"/>
					</g>
				</g>
				<polygon fill="#5F5F5E" points="78.479,15.122 78.479,12.739 75.971,12.739 75.971,11.415 78.479,11.415 78.479,9.032 
					79.869,9.032 79.869,11.415 82.375,11.415 82.375,12.739 79.869,12.739 79.869,15.122 				"/>
				<path fill="#231815" d="M79.75,9.146V11.3v0.23h0.238h2.266v1.094h-2.266H79.75v0.229v2.154h-1.152v-2.154v-0.229h-0.24h-2.266
					V11.53h2.266h0.24V11.3V9.146H79.75z M79.988,8.917h-1.631V11.3h-2.506v1.553h2.506v2.383h1.631v-2.383h2.506V11.3h-2.506V8.917
					z"/>
			</g>
			<g>
				<path fill="#AFAFAF" d="M86.863,767.742c0,4.037-3.443,7.311-7.691,7.311c-4.246,0-7.688-3.273-7.688-7.311
					c0-4.039,3.441-7.314,7.688-7.314C83.42,760.428,86.863,763.703,86.863,767.742"/>
				<ellipse fill="none" stroke="#949394" stroke-miterlimit="10" cx="79.174" cy="767.742" rx="7.689" ry="7.311"/>
				<path fill="#AFAFAF" d="M84.822,767.742c0,2.965-2.529,5.371-5.65,5.371c-3.119,0-5.648-2.406-5.648-5.371
					c0-2.969,2.529-5.373,5.648-5.373C82.293,762.369,84.822,764.773,84.822,767.742"/>
				<ellipse fill="none" stroke="#949394" stroke-miterlimit="10" cx="79.173" cy="767.742" rx="5.649" ry="5.371"/>
				<g>
					<g>
						<defs>
							<rect id="SVGID_3_" x="73.846" y="762.678" width="10.654" height="10.127"/>
						</defs>
						<clipPath id="SVGID_4_">
							<use xlink:href="#SVGID_3_"  overflow="visible"/>
						</clipPath>
						<path clip-path="url(#SVGID_4_)" fill="#BFBFBF" d="M84.498,767.742c0,2.795-2.385,5.063-5.326,5.063
							c-2.939,0-5.324-2.268-5.324-5.063c0-2.797,2.385-5.064,5.324-5.064C82.113,762.678,84.498,764.945,84.498,767.742"/>
						<path clip-path="url(#SVGID_4_)" fill="#C1C1C1" d="M84.373,767.742c0,2.73-2.328,4.943-5.201,4.943
							c-2.869,0-5.197-2.213-5.197-4.943c0-2.732,2.328-4.945,5.197-4.945C82.045,762.797,84.373,765.01,84.373,767.742"/>
						<path clip-path="url(#SVGID_4_)" fill="#C3C4C4" d="M84.248,767.742c0,2.664-2.271,4.824-5.076,4.824
							c-2.801,0-5.072-2.16-5.072-4.824c0-2.666,2.271-4.826,5.072-4.826C81.977,762.916,84.248,765.076,84.248,767.742"/>
						<path clip-path="url(#SVGID_4_)" fill="#C5C6C6" d="M84.123,767.742c0,2.598-2.217,4.705-4.951,4.705
							c-2.732,0-4.947-2.107-4.947-4.705c0-2.602,2.215-4.707,4.947-4.707C81.906,763.035,84.123,765.141,84.123,767.742"/>
						<path clip-path="url(#SVGID_4_)" fill="#C7C9C9" d="M83.998,767.742c0,2.531-2.16,4.586-4.826,4.586
							c-2.662,0-4.822-2.055-4.822-4.586c0-2.535,2.16-4.588,4.822-4.588C81.838,763.154,83.998,765.207,83.998,767.742"/>
						<path clip-path="url(#SVGID_4_)" fill="#CACBCB" d="M83.871,767.742c0,2.467-2.104,4.467-4.699,4.467
							c-2.594,0-4.697-2-4.697-4.467c0-2.469,2.104-4.471,4.697-4.471C81.768,763.271,83.871,765.273,83.871,767.742"/>
						<path clip-path="url(#SVGID_4_)" fill="#CCCECE" d="M83.746,767.742c0,2.4-2.047,4.348-4.574,4.348
							c-2.525,0-4.572-1.947-4.572-4.348c0-2.402,2.047-4.35,4.572-4.35C81.699,763.393,83.746,765.34,83.746,767.742"/>
						<path clip-path="url(#SVGID_4_)" fill="#CED0D0" d="M83.621,767.742c0,2.334-1.992,4.23-4.449,4.23
							c-2.455,0-4.447-1.896-4.447-4.23c0-2.336,1.992-4.23,4.447-4.23C81.629,763.512,83.621,765.406,83.621,767.742"/>
						<path clip-path="url(#SVGID_4_)" fill="#D1D3D3" d="M83.496,767.742c0,2.27-1.936,4.111-4.324,4.111
							c-2.385,0-4.322-1.842-4.322-4.111c0-2.271,1.938-4.113,4.322-4.113C81.561,763.629,83.496,765.471,83.496,767.742"/>
						<path clip-path="url(#SVGID_4_)" fill="#D3D5D5" d="M83.371,767.742c0,2.203-1.879,3.99-4.199,3.99
							c-2.316,0-4.195-1.787-4.195-3.99c0-2.205,1.879-3.992,4.195-3.992C81.492,763.75,83.371,765.537,83.371,767.742"/>
					</g>
				</g>
				<polygon fill="#5F5F5E" points="78.479,770.785 78.479,768.402 75.971,768.402 75.971,767.08 78.479,767.08 78.479,764.695 
					79.869,764.695 79.869,767.08 82.375,767.08 82.375,768.402 79.869,768.402 79.869,770.785 				"/>
				<path fill="#231815" d="M79.75,764.811v2.154v0.229h0.238h2.266v1.094h-2.266H79.75v0.23v2.154h-1.152v-2.154v-0.23h-0.24
					h-2.266v-1.094h2.266h0.24v-0.229v-2.154H79.75z M79.988,764.582h-1.631v2.383h-2.506v1.553h2.506v2.383h1.631v-2.383h2.506
					v-1.553h-2.506V764.582z"/>
			</g>
		</g>
		<path fill="#545454" d="M49.412,777.641c0,3.693-2.354,6.688-5.255,6.688H5.254c-2.901,0-5.253-2.994-5.253-6.688V6.687
			C0.001,2.994,2.353,0,5.254,0h38.903c2.901,0,5.255,2.994,5.255,6.687V777.641z"/>
		<path fill="#C4C3BF" d="M51.328,777.641c0,3.693-2.352,6.688-5.253,6.688H7.171c-2.9,0-5.252-2.994-5.252-6.688V6.687
			C1.919,2.994,4.271,0,7.171,0h38.904c2.901,0,5.253,2.994,5.253,6.687V777.641z"/>
		<g>
			<g>
				<path fill="#AFAFAF" d="M34.313,12.077c0,4.038-3.442,7.312-7.689,7.312c-4.246,0-7.688-3.274-7.688-7.312
					c0-4.039,3.442-7.313,7.688-7.313C30.87,4.764,34.313,8.038,34.313,12.077"/>
				<ellipse fill="none" stroke="#949394" stroke-miterlimit="10" cx="26.624" cy="12.077" rx="7.689" ry="7.312"/>
				<path fill="#AFAFAF" d="M32.273,12.077c0,2.966-2.529,5.373-5.65,5.373c-3.119,0-5.649-2.406-5.649-5.373
					c0-2.967,2.53-5.374,5.649-5.374C29.744,6.704,32.273,9.11,32.273,12.077"/>
				<ellipse fill="none" stroke="#949394" stroke-miterlimit="10" cx="26.624" cy="12.077" rx="5.65" ry="5.373"/>
				<g>
					<g>
						<defs>
							<rect id="SVGID_5_" x="21.297" y="7.013" width="10.653" height="10.128"/>
						</defs>
						<clipPath id="SVGID_6_">
							<use xlink:href="#SVGID_5_"  overflow="visible"/>
						</clipPath>
						<path clip-path="url(#SVGID_6_)" fill="#BFBFBF" d="M31.948,12.077c0,2.796-2.384,5.064-5.325,5.064
							c-2.939,0-5.324-2.268-5.324-5.064c0-2.797,2.385-5.064,5.324-5.064C29.564,7.013,31.948,9.28,31.948,12.077"/>
						<path clip-path="url(#SVGID_6_)" fill="#C1C1C1" d="M31.823,12.077c0,2.73-2.329,4.944-5.2,4.944s-5.198-2.214-5.198-4.944
							c0-2.731,2.327-4.945,5.198-4.945S31.823,9.346,31.823,12.077"/>
						<path clip-path="url(#SVGID_6_)" fill="#C3C4C4" d="M31.698,12.077c0,2.665-2.272,4.826-5.075,4.826
							c-2.802,0-5.073-2.161-5.073-4.826c0-2.665,2.271-4.826,5.073-4.826C29.426,7.251,31.698,9.412,31.698,12.077"/>
						<path clip-path="url(#SVGID_6_)" fill="#C5C6C6" d="M31.572,12.077c0,2.599-2.215,4.707-4.949,4.707
							c-2.732,0-4.948-2.108-4.948-4.707c0-2.6,2.216-4.707,4.948-4.707C29.357,7.37,31.572,9.477,31.572,12.077"/>
						<path clip-path="url(#SVGID_6_)" fill="#C7C9C9" d="M31.447,12.077c0,2.533-2.16,4.587-4.824,4.587
							c-2.663,0-4.823-2.055-4.823-4.587c0-2.534,2.16-4.588,4.823-4.588C29.287,7.489,31.447,9.543,31.447,12.077"/>
						<path clip-path="url(#SVGID_6_)" fill="#CACBCB" d="M31.322,12.077c0,2.467-2.104,4.468-4.699,4.468
							c-2.594,0-4.698-2.001-4.698-4.468c0-2.468,2.104-4.469,4.698-4.469C29.219,7.608,31.322,9.609,31.322,12.077"/>
						<path clip-path="url(#SVGID_6_)" fill="#CCCECE" d="M31.197,12.077c0,2.401-2.048,4.349-4.574,4.349
							c-2.525,0-4.572-1.948-4.572-4.349c0-2.402,2.047-4.349,4.572-4.349C29.149,7.728,31.197,9.675,31.197,12.077"/>
						<path clip-path="url(#SVGID_6_)" fill="#CED0D0" d="M31.072,12.077c0,2.335-1.992,4.23-4.449,4.23
							c-2.456,0-4.447-1.895-4.447-4.23c0-2.336,1.991-4.231,4.447-4.231C29.08,7.846,31.072,9.741,31.072,12.077"/>
						<path clip-path="url(#SVGID_6_)" fill="#D1D3D3" d="M30.946,12.077c0,2.27-1.936,4.111-4.323,4.111
							c-2.387,0-4.322-1.841-4.322-4.111c0-2.271,1.936-4.112,4.322-4.112C29.011,7.965,30.946,9.806,30.946,12.077"/>
						<path clip-path="url(#SVGID_6_)" fill="#D3D5D5" d="M30.821,12.077c0,2.205-1.88,3.992-4.198,3.992s-4.196-1.787-4.196-3.992
							c0-2.205,1.878-3.992,4.196-3.992S30.821,9.872,30.821,12.077"/>
					</g>
				</g>
				<polygon fill="#5F5F5E" points="25.928,15.122 25.928,12.739 23.422,12.739 23.422,11.415 25.928,11.415 25.928,9.032 
					27.319,9.032 27.319,11.415 29.826,11.415 29.826,12.739 27.319,12.739 27.319,15.122 				"/>
				<path fill="#231815" d="M27.199,9.146V11.3v0.23h0.24h2.266v1.094h-2.266h-0.24v0.229v2.154h-1.151v-2.154v-0.229h-0.24h-2.266
					V11.53h2.266h0.24V11.3V9.146H27.199z M27.439,8.917h-1.632V11.3h-2.506v1.553h2.506v2.383h1.632v-2.383h2.506V11.3h-2.506
					V8.917z"/>
			</g>
			<g>
				<path fill="#AFAFAF" d="M34.313,767.742c0,4.037-3.442,7.311-7.689,7.311c-4.246,0-7.688-3.273-7.688-7.311
					c0-4.039,3.442-7.314,7.688-7.314C30.87,760.428,34.313,763.703,34.313,767.742"/>
				<ellipse fill="none" stroke="#949394" stroke-miterlimit="10" cx="26.624" cy="767.742" rx="7.689" ry="7.311"/>
				<path fill="#AFAFAF" d="M32.273,767.742c0,2.965-2.529,5.371-5.65,5.371c-3.119,0-5.649-2.406-5.649-5.371
					c0-2.969,2.53-5.373,5.649-5.373C29.744,762.369,32.273,764.773,32.273,767.742"/>
				<ellipse fill="none" stroke="#949394" stroke-miterlimit="10" cx="26.624" cy="767.742" rx="5.65" ry="5.371"/>
				<g>
					<g>
						<defs>
							<rect id="SVGID_7_" x="21.297" y="762.678" width="10.653" height="10.127"/>
						</defs>
						<clipPath id="SVGID_8_">
							<use xlink:href="#SVGID_7_"  overflow="visible"/>
						</clipPath>
						<path clip-path="url(#SVGID_8_)" fill="#BFBFBF" d="M31.948,767.742c0,2.795-2.384,5.063-5.325,5.063
							c-2.939,0-5.324-2.268-5.324-5.063c0-2.797,2.385-5.064,5.324-5.064C29.564,762.678,31.948,764.945,31.948,767.742"/>
						<path clip-path="url(#SVGID_8_)" fill="#C1C1C1" d="M31.823,767.742c0,2.73-2.329,4.943-5.2,4.943s-5.198-2.213-5.198-4.943
							c0-2.732,2.327-4.945,5.198-4.945S31.823,765.01,31.823,767.742"/>
						<path clip-path="url(#SVGID_8_)" fill="#C3C4C4" d="M31.698,767.742c0,2.664-2.272,4.824-5.075,4.824
							c-2.802,0-5.073-2.16-5.073-4.824c0-2.666,2.271-4.826,5.073-4.826C29.426,762.916,31.698,765.076,31.698,767.742"/>
						<path clip-path="url(#SVGID_8_)" fill="#C5C6C6" d="M31.572,767.742c0,2.598-2.215,4.705-4.949,4.705
							c-2.732,0-4.948-2.107-4.948-4.705c0-2.602,2.216-4.707,4.948-4.707C29.357,763.035,31.572,765.141,31.572,767.742"/>
						<path clip-path="url(#SVGID_8_)" fill="#C7C9C9" d="M31.447,767.742c0,2.531-2.16,4.586-4.824,4.586
							c-2.663,0-4.823-2.055-4.823-4.586c0-2.535,2.16-4.588,4.823-4.588C29.287,763.154,31.447,765.207,31.447,767.742"/>
						<path clip-path="url(#SVGID_8_)" fill="#CACBCB" d="M31.322,767.742c0,2.467-2.104,4.467-4.699,4.467
							c-2.594,0-4.698-2-4.698-4.467c0-2.469,2.104-4.471,4.698-4.471C29.219,763.271,31.322,765.273,31.322,767.742"/>
						<path clip-path="url(#SVGID_8_)" fill="#CCCECE" d="M31.197,767.742c0,2.4-2.048,4.348-4.574,4.348
							c-2.525,0-4.572-1.947-4.572-4.348c0-2.402,2.047-4.35,4.572-4.35C29.149,763.393,31.197,765.34,31.197,767.742"/>
						<path clip-path="url(#SVGID_8_)" fill="#CED0D0" d="M31.072,767.742c0,2.334-1.992,4.23-4.449,4.23
							c-2.456,0-4.447-1.896-4.447-4.23c0-2.336,1.991-4.23,4.447-4.23C29.08,763.512,31.072,765.406,31.072,767.742"/>
						<path clip-path="url(#SVGID_8_)" fill="#D1D3D3" d="M30.946,767.742c0,2.27-1.936,4.111-4.323,4.111
							c-2.387,0-4.322-1.842-4.322-4.111c0-2.271,1.936-4.113,4.322-4.113C29.011,763.629,30.946,765.471,30.946,767.742"/>
						<path clip-path="url(#SVGID_8_)" fill="#D3D5D5" d="M30.821,767.742c0,2.203-1.88,3.99-4.198,3.99s-4.196-1.787-4.196-3.99
							c0-2.205,1.878-3.992,4.196-3.992S30.821,765.537,30.821,767.742"/>
					</g>
				</g>
				<polygon fill="#5F5F5E" points="25.928,770.785 25.928,768.402 23.422,768.402 23.422,767.08 25.928,767.08 25.928,764.695 
					27.319,764.695 27.319,767.08 29.826,767.08 29.826,768.402 27.319,768.402 27.319,770.785 				"/>
				<path fill="#231815" d="M27.199,764.811v2.154v0.229h0.24h2.266v1.094h-2.266h-0.24v0.23v2.154h-1.151v-2.154v-0.23h-0.24
					h-2.266v-1.094h2.266h0.24v-0.229v-2.154H27.199z M27.439,764.582h-1.632v2.383h-2.506v1.553h2.506v2.383h1.632v-2.383h2.506
					v-1.553h-2.506V764.582z"/>
			</g>
		</g>
		<g>
			<path fill="#070001" d="M43.54,693.498c2.81,0,5.087,2.277,5.087,5.086s-2.277,5.086-5.087,5.086s-5.087-2.277-5.087-5.086
				S40.73,693.498,43.54,693.498"/>
			<g>
				<defs>
					<path id="SVGID_9_" d="M39.453,698.584c0,2.258,1.83,4.088,4.088,4.088c2.257,0,4.088-1.83,4.088-4.088
						s-1.831-4.088-4.088-4.088C41.283,694.496,39.453,696.326,39.453,698.584"/>
				</defs>
				<clipPath id="SVGID_10_">
					<use xlink:href="#SVGID_9_"  overflow="visible"/>
				</clipPath>
				
					<radialGradient id="SVGID_11_" cx="-778.7573" cy="735.9316" r="0.7177" gradientTransform="matrix(8.3884 0 0 8.3884 6575.0664 -5476.1641)" gradientUnits="userSpaceOnUse">
					<stop  offset="0" style="stop-color:#F5D04D"/>
					<stop  offset="1" style="stop-color:#22AC38"/>
				</radialGradient>
				<rect x="39.452" y="694.496" clip-path="url(#SVGID_10_)" fill="url(#SVGID_11_)" width="8.177" height="8.176"/>
			</g>
			<g opacity="0.5" enable-background="new    ">
				<g>
					<defs>
						<rect id="SVGID_12_" x="41.633" y="696.223" width="1.362" height="1.363"/>
					</defs>
					<clipPath id="SVGID_13_">
						<use xlink:href="#SVGID_12_"  overflow="visible"/>
					</clipPath>
					<rect x="41.633" y="696.223" clip-path="url(#SVGID_13_)" fill="#FFFFFF" width="1.362" height="1.361"/>
				</g>
			</g>
			<g opacity="0.5" enable-background="new    ">
				<g>
					<defs>
						<rect id="SVGID_14_" x="41.633" y="696.223" width="0.681" height="1.363"/>
					</defs>
					<clipPath id="SVGID_15_">
						<use xlink:href="#SVGID_14_"  overflow="visible"/>
					</clipPath>
					<rect x="41.633" y="696.223" clip-path="url(#SVGID_15_)" fill="#FFFFFF" width="0.682" height="1.361"/>
				</g>
			</g>
		</g>
		<g>
			<circle fill="#272726" cx="22.208" cy="624.891" r="6.667"/>
			<circle fill="#AAAAA9" cx="22.208" cy="624.891" r="5.26"/>
			<circle fill="#323333" cx="22.208" cy="624.891" r="3.823"/>
		</g>
		<g>
			<g>
				<circle fill="#272726" cx="25.863" cy="530.586" r="3.266"/>
				<circle fill="#AAAAA9" cx="25.863" cy="530.586" r="2.577"/>
				<circle fill="#323333" cx="25.863" cy="530.586" r="1.873"/>
			</g>
			<g>
				<circle fill="#272726" cx="36.05" cy="530.586" r="3.265"/>
				<circle fill="#AAAAA9" cx="36.05" cy="530.586" r="2.577"/>
				<circle fill="#323333" cx="36.05" cy="530.586" r="1.873"/>
			</g>
		</g>
		<g>
			<g>
				<circle fill="#272726" cx="25.863" cy="538.102" r="3.266"/>
				<circle fill="#AAAAA9" cx="25.863" cy="538.102" r="2.577"/>
				<circle fill="#323333" cx="25.863" cy="538.102" r="1.873"/>
			</g>
			<g>
				<circle fill="#272726" cx="36.05" cy="538.102" r="3.265"/>
				<circle fill="#AAAAA9" cx="36.05" cy="538.102" r="2.577"/>
				<circle fill="#323333" cx="36.05" cy="538.102" r="1.873"/>
			</g>
		</g>
		<g>
			<g>
				<circle fill="#272726" cx="25.863" cy="545.617" r="3.266"/>
				<circle fill="#AAAAA9" cx="25.863" cy="545.617" r="2.577"/>
				<circle fill="#323333" cx="25.863" cy="545.617" r="1.873"/>
			</g>
			<g>
				<circle fill="#272726" cx="36.05" cy="545.617" r="3.265"/>
				<circle fill="#AAAAA9" cx="36.05" cy="545.617" r="2.577"/>
				<circle fill="#323333" cx="36.05" cy="545.617" r="1.873"/>
			</g>
		</g>
		<g>
			<g>
				<circle fill="#272726" cx="25.863" cy="553.133" r="3.266"/>
				<circle fill="#AAAAA9" cx="25.863" cy="553.133" r="2.577"/>
				<circle fill="#323333" cx="25.863" cy="553.133" r="1.873"/>
			</g>
			<g>
				<circle fill="#272726" cx="36.05" cy="553.133" r="3.265"/>
				<circle fill="#AAAAA9" cx="36.05" cy="553.133" r="2.577"/>
				<circle fill="#323333" cx="36.05" cy="553.133" r="1.873"/>
			</g>
		</g>
		<g>
			<g>
				<circle fill="#272726" cx="25.863" cy="560.65" r="3.266"/>
				<circle fill="#AAAAA9" cx="25.863" cy="560.65" r="2.577"/>
				<circle fill="#323333" cx="25.863" cy="560.65" r="1.873"/>
			</g>
			<g>
				<circle fill="#272726" cx="36.05" cy="560.65" r="3.265"/>
				<circle fill="#AAAAA9" cx="36.05" cy="560.65" r="2.577"/>
				<circle fill="#323333" cx="36.05" cy="560.65" r="1.873"/>
			</g>
		</g>
		<g>
			<circle fill="#272726" cx="22.208" cy="650.975" r="6.667"/>
			<circle fill="#AAAAA9" cx="22.208" cy="650.975" r="5.26"/>
			<circle fill="#323333" cx="22.208" cy="650.975" r="3.823"/>
		</g>
	</g>
	<g>
		<circle fill="#1B1B1B" cx="28.661" cy="217.005" r="13.058"/>
		<radialGradient id="SVGID_16_" cx="28.6611" cy="217.0049" r="10.8816" gradientUnits="userSpaceOnUse">
			<stop  offset="0" style="stop-color:#595757"/>
			<stop  offset="0.064" style="stop-color:#B5B5B6"/>
			<stop  offset="0.33" style="stop-color:#727171"/>
			<stop  offset="0.3793" style="stop-color:#B5B5B6"/>
			<stop  offset="0.601" style="stop-color:#B5B5B6"/>
			<stop  offset="0.6404" style="stop-color:#595757"/>
			<stop  offset="0.8325" style="stop-color:#727171"/>
			<stop  offset="0.9606" style="stop-color:#C9CACA"/>
			<stop  offset="1" style="stop-color:#595757"/>
		</radialGradient>
		<circle fill="url(#SVGID_16_)" cx="28.661" cy="217.005" r="10.882"/>
	</g>
	<g>
		<circle fill="#1B1B1B" cx="75.015" cy="217.005" r="13.058"/>
		<radialGradient id="SVGID_17_" cx="75.0156" cy="217.0049" r="10.8811" gradientUnits="userSpaceOnUse">
			<stop  offset="0" style="stop-color:#595757"/>
			<stop  offset="0.064" style="stop-color:#B5B5B6"/>
			<stop  offset="0.33" style="stop-color:#727171"/>
			<stop  offset="0.3793" style="stop-color:#B5B5B6"/>
			<stop  offset="0.601" style="stop-color:#B5B5B6"/>
			<stop  offset="0.6404" style="stop-color:#595757"/>
			<stop  offset="0.8325" style="stop-color:#727171"/>
			<stop  offset="0.9606" style="stop-color:#C9CACA"/>
			<stop  offset="1" style="stop-color:#595757"/>
		</radialGradient>
		<circle fill="url(#SVGID_17_)" cx="75.016" cy="217.005" r="10.881"/>
	</g>
	<g>
		<circle fill="#1B1B1B" cx="28.661" cy="180.289" r="10.813"/>
		<radialGradient id="SVGID_18_" cx="28.6611" cy="180.2896" r="9.01" gradientUnits="userSpaceOnUse">
			<stop  offset="0" style="stop-color:#595757"/>
			<stop  offset="0.064" style="stop-color:#B5B5B6"/>
			<stop  offset="0.33" style="stop-color:#727171"/>
			<stop  offset="0.3793" style="stop-color:#B5B5B6"/>
			<stop  offset="0.601" style="stop-color:#B5B5B6"/>
			<stop  offset="0.6404" style="stop-color:#595757"/>
			<stop  offset="0.8325" style="stop-color:#727171"/>
			<stop  offset="0.9606" style="stop-color:#C9CACA"/>
			<stop  offset="1" style="stop-color:#595757"/>
		</radialGradient>
		<circle fill="url(#SVGID_18_)" cx="28.661" cy="180.289" r="9.01"/>
	</g>
	<g>
		<circle fill="#1B1B1B" cx="75.016" cy="180.289" r="10.813"/>
		<radialGradient id="SVGID_19_" cx="75.0156" cy="180.2896" r="9.01" gradientUnits="userSpaceOnUse">
			<stop  offset="0" style="stop-color:#595757"/>
			<stop  offset="0.064" style="stop-color:#B5B5B6"/>
			<stop  offset="0.33" style="stop-color:#727171"/>
			<stop  offset="0.3793" style="stop-color:#B5B5B6"/>
			<stop  offset="0.601" style="stop-color:#B5B5B6"/>
			<stop  offset="0.6404" style="stop-color:#595757"/>
			<stop  offset="0.8325" style="stop-color:#727171"/>
			<stop  offset="0.9606" style="stop-color:#C9CACA"/>
			<stop  offset="1" style="stop-color:#595757"/>
		</radialGradient>
		<circle fill="url(#SVGID_19_)" cx="75.016" cy="180.289" r="9.01"/>
	</g>
	<g>
		<circle fill="#1B1B1B" cx="28.661" cy="144.11" r="10.812"/>
		<radialGradient id="SVGID_20_" cx="28.6611" cy="144.1104" r="9.01" gradientUnits="userSpaceOnUse">
			<stop  offset="0" style="stop-color:#595757"/>
			<stop  offset="0.064" style="stop-color:#B5B5B6"/>
			<stop  offset="0.33" style="stop-color:#727171"/>
			<stop  offset="0.3793" style="stop-color:#B5B5B6"/>
			<stop  offset="0.601" style="stop-color:#B5B5B6"/>
			<stop  offset="0.6404" style="stop-color:#595757"/>
			<stop  offset="0.8325" style="stop-color:#727171"/>
			<stop  offset="0.9606" style="stop-color:#C9CACA"/>
			<stop  offset="1" style="stop-color:#595757"/>
		</radialGradient>
		<circle fill="url(#SVGID_20_)" cx="28.661" cy="144.11" r="9.01"/>
	</g>
	<g>
		<circle fill="#1B1B1B" cx="75.016" cy="144.11" r="10.813"/>
		<radialGradient id="SVGID_21_" cx="75.0156" cy="144.1104" r="9.01" gradientUnits="userSpaceOnUse">
			<stop  offset="0" style="stop-color:#595757"/>
			<stop  offset="0.064" style="stop-color:#B5B5B6"/>
			<stop  offset="0.33" style="stop-color:#727171"/>
			<stop  offset="0.3793" style="stop-color:#B5B5B6"/>
			<stop  offset="0.601" style="stop-color:#B5B5B6"/>
			<stop  offset="0.6404" style="stop-color:#595757"/>
			<stop  offset="0.8325" style="stop-color:#727171"/>
			<stop  offset="0.9606" style="stop-color:#C9CACA"/>
			<stop  offset="1" style="stop-color:#595757"/>
		</radialGradient>
		<circle fill="url(#SVGID_21_)" cx="75.016" cy="144.11" r="9.01"/>
	</g>
	<g>
		<circle fill="#1B1B1B" cx="28.661" cy="107.931" r="10.813"/>
		<radialGradient id="SVGID_22_" cx="28.6611" cy="107.9307" r="9.01" gradientUnits="userSpaceOnUse">
			<stop  offset="0" style="stop-color:#595757"/>
			<stop  offset="0.064" style="stop-color:#B5B5B6"/>
			<stop  offset="0.33" style="stop-color:#727171"/>
			<stop  offset="0.3793" style="stop-color:#B5B5B6"/>
			<stop  offset="0.601" style="stop-color:#B5B5B6"/>
			<stop  offset="0.6404" style="stop-color:#595757"/>
			<stop  offset="0.8325" style="stop-color:#727171"/>
			<stop  offset="0.9606" style="stop-color:#C9CACA"/>
			<stop  offset="1" style="stop-color:#595757"/>
		</radialGradient>
		<circle fill="url(#SVGID_22_)" cx="28.661" cy="107.931" r="9.01"/>
	</g>
	<g>
		<circle fill="#1B1B1B" cx="75.016" cy="107.931" r="10.813"/>
		<radialGradient id="SVGID_23_" cx="75.0156" cy="107.9307" r="9.01" gradientUnits="userSpaceOnUse">
			<stop  offset="0" style="stop-color:#595757"/>
			<stop  offset="0.064" style="stop-color:#B5B5B6"/>
			<stop  offset="0.33" style="stop-color:#727171"/>
			<stop  offset="0.3793" style="stop-color:#B5B5B6"/>
			<stop  offset="0.601" style="stop-color:#B5B5B6"/>
			<stop  offset="0.6404" style="stop-color:#595757"/>
			<stop  offset="0.8325" style="stop-color:#727171"/>
			<stop  offset="0.9606" style="stop-color:#C9CACA"/>
			<stop  offset="1" style="stop-color:#595757"/>
		</radialGradient>
		<circle fill="url(#SVGID_23_)" cx="75.016" cy="107.931" r="9.01"/>
	</g>
</g>
</svg>
