<?xml version="1.0" encoding="utf-8"?>
<!-- Generator: Adobe Illustrator 16.0.0, SVG Export Plug-In . SVG Version: 6.00 Build 0)  -->
<!DOCTYPE svg PUBLIC "-//W3C//DTD SVG 1.1//EN" "http://www.w3.org/Graphics/SVG/1.1/DTD/svg11.dtd">
<svg version="1.1" id="图层_1" xmlns="http://www.w3.org/2000/svg" xmlns:xlink="http://www.w3.org/1999/xlink" x="0px" y="0px"
	 width="1275.59px" height="504.57px" viewBox="0 0 1275.59 504.57" enable-background="new 0 0 1275.59 504.57"
	 xml:space="preserve">
<rect y="0.001" fill="#3C3D3D" width="1275.59" height="504.568"/>
<g>
	<g>
		<g>
			<rect x="53.044" y="6.313" fill="#151515" width="292.374" height="76.398"/>
			<rect x="71.031" y="6.313" fill="#3D3D45" width="47.748" height="76.398"/>
			<g>
				<path fill="#A3A3A3" d="M66.254,82.712c-6.975-9.99-7.472-12.095-7.812-16.893c-0.7-9.865-0.014-39.623-0.002-39.921
					c0.613-14.645,7.471-19.355,7.809-19.584h2.432c-0.075,0.051-8.278,6.058-8.278,19.605c-0.007,0.32-0.696,29.993-0.002,39.773
					c0.313,4.421,1.573,7.414,8.281,17.02H66.254z"/>
			</g>
			<rect x="75.527" y="6.313" fill="#232032" width="19.95" height="76.398"/>
			<rect x="73.32" y="6.313" fill="#6F6499" width="19.949" height="76.398"/>
			<rect x="71.031" y="6.313" fill="#FFFEFB" width="19.95" height="76.398"/>
			<path fill="#989598" d="M112.156,65.355c0,2.591-2.196,4.691-4.905,4.691h-6.869c-2.71,0-4.906-2.1-4.906-4.691V25.482
				c0-2.591,2.196-4.691,4.906-4.691h6.869c2.708,0,4.905,2.1,4.905,4.691V65.355z"/>
			<g>
				<rect x="68.681" y="78.646" fill="#989598" width="276.738" height="3.127"/>
				<rect x="121.722" y="76.848" fill="#151515" width="2.698" height="4.925"/>
			</g>
			<g>
				<rect x="68.681" y="7.252" fill="#989598" width="276.738" height="3.127"/>
				<rect x="124.073" y="7.251" fill="#151515" width="2.698" height="4.926"/>
			</g>
			<rect x="118.779" y="22.98" fill="#2B2E32" width="137.357" height="44.409"/>
			<path fill="none" stroke="#878787" stroke-width="3.5" stroke-miterlimit="10" d="M113.546,77.242
				c0,0,3.287-14.698,23.328-14.386l118.608-0.005"/>
			<linearGradient id="SVGID_1_" gradientUnits="userSpaceOnUse" x1="256.1362" y1="45.1846" x2="296.853" y2="45.1846">
				<stop  offset="0" style="stop-color:#D70051"/>
				<stop  offset="0.1828" style="stop-color:#E95268"/>
				<stop  offset="0.8172" style="stop-color:#E95268"/>
				<stop  offset="1" style="stop-color:#D70051"/>
			</linearGradient>
			<rect x="256.136" y="22.98" fill="url(#SVGID_1_)" width="40.717" height="44.409"/>
			<rect x="326.286" y="10.379" fill="#2E3134" width="19.132" height="68.267"/>
			<rect x="326.286" y="10.379" fill="#2E3134" width="19.132" height="68.267"/>
			<rect x="326.286" y="10.379" fill="#52555B" width="2.126" height="68.267"/>
			<path fill="#939393" stroke="#060404" stroke-miterlimit="10" d="M340.514,29.704c0,0.518-0.439,0.938-0.981,0.938h-5.396
				c-0.542,0-0.981-0.42-0.981-0.938v-5.786c0-0.518,0.439-0.938,0.981-0.938h5.396c0.542,0,0.981,0.42,0.981,0.938V29.704z"/>
			<path fill="#939393" stroke="#060404" stroke-miterlimit="10" d="M340.514,66.45c0,0.518-0.439,0.939-0.981,0.939h-5.396
				c-0.542,0-0.981-0.421-0.981-0.939v-5.786c0-0.518,0.439-0.938,0.981-0.938h5.396c0.542,0,0.981,0.42,0.981,0.938V66.45z"/>
			<rect x="71.031" y="10.379" fill="#96989C" width="2.289" height="68.267"/>
		</g>
		<g>
			<rect x="53.043" y="89.339" fill="#151515" width="292.375" height="76.399"/>
			<rect x="71.03" y="89.339" fill="#3D3D45" width="47.748" height="76.399"/>
			<g>
				<path fill="#A3A3A3" d="M66.254,165.738c-6.976-9.99-7.472-12.095-7.813-16.893c-0.699-9.865-0.014-39.622-0.001-39.921
					c0.613-14.645,7.471-19.355,7.808-19.584h2.433c-0.074,0.051-8.278,6.058-8.278,19.605c-0.007,0.32-0.696,29.993-0.002,39.773
					c0.314,4.421,1.573,7.414,8.281,17.021H66.254z"/>
			</g>
			<rect x="75.526" y="89.339" fill="#232032" width="19.95" height="76.399"/>
			<rect x="73.319" y="89.339" fill="#6F6499" width="19.95" height="76.399"/>
			<rect x="71.03" y="89.339" fill="#FFFEFB" width="19.95" height="76.399"/>
			<path fill="#989598" d="M112.156,148.382c0,2.59-2.196,4.691-4.905,4.691h-6.869c-2.709,0-4.906-2.101-4.906-4.691v-39.874
				c0-2.59,2.196-4.691,4.906-4.691h6.869c2.709,0,4.905,2.101,4.905,4.691V148.382z"/>
			<g>
				<rect x="68.68" y="161.672" fill="#989598" width="276.738" height="3.127"/>
				<rect x="121.722" y="159.874" fill="#151515" width="2.698" height="4.926"/>
			</g>
			<g>
				<rect x="68.68" y="90.278" fill="#989598" width="276.738" height="3.127"/>
				<rect x="124.072" y="90.278" fill="#151515" width="2.698" height="4.925"/>
			</g>
			<rect x="118.778" y="106.006" fill="#2B2E32" width="137.357" height="44.408"/>
			<path fill="none" stroke="#878787" stroke-width="3.5" stroke-miterlimit="10" d="M113.545,160.268
				c0,0,3.286-14.699,23.328-14.386l118.608-0.005"/>
			<linearGradient id="SVGID_2_" gradientUnits="userSpaceOnUse" x1="256.1357" y1="128.2104" x2="296.8525" y2="128.2104">
				<stop  offset="0" style="stop-color:#D70051"/>
				<stop  offset="0.1828" style="stop-color:#E95268"/>
				<stop  offset="0.8172" style="stop-color:#E95268"/>
				<stop  offset="1" style="stop-color:#D70051"/>
			</linearGradient>
			<rect x="256.136" y="106.006" fill="url(#SVGID_2_)" width="40.717" height="44.408"/>
			<rect x="326.286" y="93.406" fill="#2E3134" width="19.132" height="68.266"/>
			<rect x="326.286" y="93.406" fill="#2E3134" width="19.132" height="68.266"/>
			<rect x="326.286" y="93.406" fill="#52555B" width="2.126" height="68.266"/>
			<path fill="#939393" stroke="#060404" stroke-miterlimit="10" d="M340.514,112.73c0,0.518-0.439,0.938-0.982,0.938h-5.396
				c-0.542,0-0.981-0.42-0.981-0.938v-5.786c0-0.518,0.439-0.938,0.981-0.938h5.396c0.542,0,0.982,0.42,0.982,0.938V112.73z"/>
			<path fill="#939393" stroke="#060404" stroke-miterlimit="10" d="M340.514,149.477c0,0.518-0.439,0.938-0.982,0.938h-5.396
				c-0.542,0-0.981-0.42-0.981-0.938v-5.786c0-0.518,0.439-0.938,0.981-0.938h5.396c0.542,0,0.982,0.42,0.982,0.938V149.477z"/>
			<rect x="71.03" y="93.406" fill="#96989C" width="2.289" height="68.266"/>
		</g>
		<g>
			<rect x="53.043" y="172.366" fill="#151515" width="292.374" height="76.398"/>
			<rect x="71.03" y="172.366" fill="#3D3D45" width="47.748" height="76.398"/>
			<g>
				<path fill="#A3A3A3" d="M66.254,248.764c-6.975-9.99-7.472-12.095-7.813-16.893c-0.699-9.865-0.014-39.623-0.001-39.921
					c0.613-14.645,7.471-19.355,7.808-19.584h2.432c-0.074,0.051-8.278,6.057-8.278,19.605c-0.007,0.32-0.696,29.993-0.002,39.773
					c0.313,4.421,1.573,7.414,8.28,17.02H66.254z"/>
			</g>
			<rect x="75.526" y="172.366" fill="#232032" width="19.95" height="76.398"/>
			<rect x="73.318" y="172.366" fill="#6F6499" width="19.95" height="76.398"/>
			<rect x="71.03" y="172.366" fill="#FFFEFB" width="19.95" height="76.398"/>
			<path fill="#989598" d="M112.155,231.408c0,2.59-2.196,4.691-4.905,4.691h-6.869c-2.709,0-4.906-2.101-4.906-4.691v-39.873
				c0-2.591,2.196-4.692,4.906-4.692h6.869c2.709,0,4.905,2.101,4.905,4.692V231.408z"/>
			<g>
				<rect x="68.679" y="244.698" fill="#989598" width="276.738" height="3.127"/>
				<rect x="121.721" y="242.9" fill="#151515" width="2.698" height="4.926"/>
			</g>
			<g>
				<rect x="68.679" y="173.304" fill="#989598" width="276.738" height="3.127"/>
				<rect x="124.072" y="173.304" fill="#151515" width="2.698" height="4.925"/>
			</g>
			<rect x="118.778" y="189.032" fill="#2B2E32" width="137.357" height="44.409"/>
			<path fill="none" stroke="#878787" stroke-width="3.5" stroke-miterlimit="10" d="M113.544,243.294
				c0,0,3.287-14.699,23.329-14.386l118.608-0.005"/>
			<linearGradient id="SVGID_3_" gradientUnits="userSpaceOnUse" x1="256.1353" y1="211.2363" x2="296.8521" y2="211.2363">
				<stop  offset="0" style="stop-color:#D70051"/>
				<stop  offset="0.1828" style="stop-color:#E95268"/>
				<stop  offset="0.8172" style="stop-color:#E95268"/>
				<stop  offset="1" style="stop-color:#D70051"/>
			</linearGradient>
			<rect x="256.135" y="189.032" fill="url(#SVGID_3_)" width="40.717" height="44.409"/>
			<rect x="326.286" y="176.432" fill="#2E3134" width="19.132" height="68.267"/>
			<rect x="326.286" y="176.432" fill="#2E3134" width="19.132" height="68.267"/>
			<rect x="326.286" y="176.432" fill="#52555B" width="2.126" height="68.267"/>
			<path fill="#939393" stroke="#060404" stroke-miterlimit="10" d="M340.513,195.756c0,0.518-0.44,0.938-0.981,0.938h-5.396
				c-0.542,0-0.981-0.42-0.981-0.938v-5.785c0-0.519,0.438-0.939,0.981-0.939h5.396c0.542,0,0.981,0.42,0.981,0.939V195.756z"/>
			<path fill="#939393" stroke="#060404" stroke-miterlimit="10" d="M340.513,232.502c0,0.518-0.44,0.938-0.981,0.938h-5.396
				c-0.542,0-0.981-0.42-0.981-0.938v-5.786c0-0.518,0.438-0.938,0.981-0.938h5.396c0.542,0,0.981,0.42,0.981,0.938V232.502z"/>
			<rect x="71.03" y="176.432" fill="#96989C" width="2.289" height="68.267"/>
		</g>
		<g>
			<rect x="53.042" y="255.392" fill="#151515" width="292.375" height="76.399"/>
			<rect x="71.03" y="255.392" fill="#3D3D45" width="47.748" height="76.399"/>
			<g>
				<path fill="#A3A3A3" d="M66.253,331.791c-6.975-9.99-7.473-12.096-7.813-16.894c-0.699-9.864-0.015-39.622-0.002-39.921
					c0.613-14.645,7.471-19.355,7.808-19.585h2.433c-0.074,0.052-8.278,6.058-8.278,19.605c-0.007,0.319-0.696,29.993-0.002,39.772
					c0.313,4.422,1.573,7.414,8.28,17.021H66.253z"/>
			</g>
			<rect x="75.525" y="255.392" fill="#232032" width="19.95" height="76.399"/>
			<rect x="73.318" y="255.392" fill="#6F6499" width="19.95" height="76.399"/>
			<rect x="71.03" y="255.392" fill="#FFFEFB" width="19.949" height="76.399"/>
			<path fill="#989598" d="M112.155,314.434c0,2.591-2.196,4.691-4.905,4.691h-6.869c-2.709,0-4.905-2.101-4.905-4.691v-39.873
				c0-2.59,2.196-4.691,4.905-4.691h6.869c2.709,0,4.905,2.102,4.905,4.691V314.434z"/>
			<g>
				<rect x="68.679" y="327.725" fill="#989598" width="276.738" height="3.127"/>
				<rect x="121.721" y="325.926" fill="#151515" width="2.698" height="4.926"/>
			</g>
			<g>
				<rect x="68.679" y="256.33" fill="#989598" width="276.738" height="3.127"/>
				<rect x="124.071" y="256.33" fill="#151515" width="2.698" height="4.926"/>
			</g>
			<rect x="118.777" y="272.059" fill="#2B2E32" width="137.357" height="44.408"/>
			<path fill="none" stroke="#878787" stroke-width="3.5" stroke-miterlimit="10" d="M113.544,326.32
				c0,0,3.286-14.699,23.328-14.386l118.608-0.005"/>
			<linearGradient id="SVGID_4_" gradientUnits="userSpaceOnUse" x1="256.1348" y1="294.2627" x2="296.8516" y2="294.2627">
				<stop  offset="0" style="stop-color:#D70051"/>
				<stop  offset="0.1828" style="stop-color:#E95268"/>
				<stop  offset="0.8172" style="stop-color:#E95268"/>
				<stop  offset="1" style="stop-color:#D70051"/>
			</linearGradient>
			<rect x="256.135" y="272.059" fill="url(#SVGID_4_)" width="40.717" height="44.408"/>
			<rect x="326.285" y="259.458" fill="#2E3134" width="19.132" height="68.267"/>
			<rect x="326.285" y="259.458" fill="#2E3134" width="19.132" height="68.267"/>
			<rect x="326.285" y="259.458" fill="#52555B" width="2.126" height="68.267"/>
			<path fill="#939393" stroke="#060404" stroke-miterlimit="10" d="M340.513,278.782c0,0.519-0.439,0.938-0.981,0.938h-5.396
				c-0.542,0-0.981-0.42-0.981-0.938v-5.786c0-0.518,0.439-0.938,0.981-0.938h5.396c0.542,0,0.981,0.42,0.981,0.938V278.782z"/>
			<path fill="#939393" stroke="#060404" stroke-miterlimit="10" d="M340.513,315.529c0,0.518-0.439,0.938-0.981,0.938h-5.396
				c-0.542,0-0.981-0.42-0.981-0.938v-5.786c0-0.519,0.439-0.938,0.981-0.938h5.396c0.542,0,0.981,0.42,0.981,0.938V315.529z"/>
			<rect x="71.03" y="259.458" fill="#96989C" width="2.288" height="68.267"/>
		</g>
		<g>
			<rect x="53.042" y="338.418" fill="#151515" width="292.374" height="76.398"/>
			<rect x="71.029" y="338.418" fill="#3D3D45" width="47.748" height="76.398"/>
			<g>
				<path fill="#A3A3A3" d="M66.252,414.816c-6.975-9.989-7.472-12.095-7.813-16.893c-0.699-9.865-0.014-39.623-0.002-39.922
					c0.613-14.645,7.471-19.354,7.809-19.584h2.432c-0.075,0.051-8.278,6.057-8.278,19.605c-0.007,0.32-0.696,29.992-0.002,39.773
					c0.314,4.42,1.573,7.413,8.281,17.02H66.252z"/>
			</g>
			<rect x="75.525" y="338.418" fill="#232032" width="19.95" height="76.398"/>
			<rect x="73.317" y="338.418" fill="#6F6499" width="19.95" height="76.398"/>
			<rect x="71.029" y="338.418" fill="#FFFEFB" width="19.95" height="76.398"/>
			<path fill="#989598" d="M112.154,397.46c0,2.591-2.196,4.69-4.905,4.69h-6.869c-2.71,0-4.906-2.1-4.906-4.69v-39.873
				c0-2.591,2.196-4.691,4.906-4.691h6.869c2.709,0,4.905,2.101,4.905,4.691V397.46z"/>
			<g>
				<rect x="68.679" y="410.75" fill="#989598" width="276.738" height="3.127"/>
				<rect x="121.72" y="408.953" fill="#151515" width="2.699" height="4.925"/>
			</g>
			<g>
				<rect x="68.679" y="339.356" fill="#989598" width="276.738" height="3.127"/>
				<rect x="124.071" y="339.355" fill="#151515" width="2.698" height="4.926"/>
			</g>
			<rect x="118.777" y="355.084" fill="#2B2E32" width="137.357" height="44.409"/>
			<path fill="none" stroke="#878787" stroke-width="3.5" stroke-miterlimit="10" d="M113.544,409.346
				c0,0,3.286-14.698,23.328-14.385l118.608-0.006"/>
			<linearGradient id="SVGID_5_" gradientUnits="userSpaceOnUse" x1="256.1343" y1="377.2891" x2="296.8511" y2="377.2891">
				<stop  offset="0" style="stop-color:#D70051"/>
				<stop  offset="0.1828" style="stop-color:#E95268"/>
				<stop  offset="0.8172" style="stop-color:#E95268"/>
				<stop  offset="1" style="stop-color:#D70051"/>
			</linearGradient>
			<rect x="256.134" y="355.084" fill="url(#SVGID_5_)" width="40.717" height="44.409"/>
			<rect x="326.285" y="342.484" fill="#2E3134" width="19.132" height="68.266"/>
			<rect x="326.285" y="342.484" fill="#2E3134" width="19.132" height="68.266"/>
			<rect x="326.285" y="342.484" fill="#52555B" width="2.126" height="68.266"/>
			<path fill="#939393" stroke="#060404" stroke-miterlimit="10" d="M340.512,361.809c0,0.519-0.439,0.938-0.981,0.938h-5.396
				c-0.542,0-0.981-0.419-0.981-0.938v-5.785c0-0.52,0.439-0.939,0.981-0.939h5.396c0.542,0,0.981,0.42,0.981,0.939V361.809z"/>
			<path fill="#939393" stroke="#060404" stroke-miterlimit="10" d="M340.512,398.555c0,0.518-0.439,0.938-0.981,0.938h-5.396
				c-0.542,0-0.981-0.421-0.981-0.938v-5.785c0-0.519,0.439-0.939,0.981-0.939h5.396c0.542,0,0.981,0.421,0.981,0.939V398.555z"/>
			<rect x="71.029" y="342.484" fill="#96989C" width="2.289" height="68.266"/>
		</g>
		<g>
			<rect x="53.042" y="421.443" fill="#151515" width="292.375" height="76.399"/>
			<rect x="71.029" y="421.443" fill="#3D3D45" width="47.748" height="76.399"/>
			<g>
				<path fill="#A3A3A3" d="M66.252,497.843c-6.975-9.989-7.472-12.095-7.813-16.893c-0.7-9.865-0.015-39.622-0.002-39.922
					c0.613-14.645,7.471-19.354,7.808-19.585h2.433c-0.074,0.052-8.278,6.059-8.278,19.605c-0.007,0.32-0.696,29.994-0.002,39.773
					c0.314,4.422,1.574,7.414,8.281,17.021H66.252z"/>
			</g>
			<rect x="75.525" y="421.443" fill="#232032" width="19.949" height="76.399"/>
			<rect x="73.317" y="421.443" fill="#6F6499" width="19.95" height="76.399"/>
			<rect x="71.029" y="421.443" fill="#FFFEFB" width="19.949" height="76.399"/>
			<path fill="#989598" d="M112.153,480.486c0,2.591-2.196,4.691-4.905,4.691h-6.869c-2.709,0-4.906-2.101-4.906-4.691v-39.873
				c0-2.591,2.196-4.691,4.906-4.691h6.869c2.709,0,4.905,2.101,4.905,4.691V480.486z"/>
			<g>
				<rect x="68.678" y="493.776" fill="#989598" width="276.738" height="3.128"/>
				<rect x="121.719" y="491.979" fill="#151515" width="2.698" height="4.926"/>
			</g>
			<g>
				<rect x="68.678" y="422.383" fill="#989598" width="276.738" height="3.127"/>
				<rect x="124.069" y="422.383" fill="#151515" width="2.699" height="4.925"/>
			</g>
			<rect x="118.776" y="438.111" fill="#2B2E32" width="137.357" height="44.408"/>
			<path fill="none" stroke="#878787" stroke-width="3.5" stroke-miterlimit="10" d="M113.543,492.373
				c0,0,3.286-14.699,23.328-14.387l118.608-0.005"/>
			<linearGradient id="SVGID_6_" gradientUnits="userSpaceOnUse" x1="256.1333" y1="460.3154" x2="296.8501" y2="460.3154">
				<stop  offset="0" style="stop-color:#D70051"/>
				<stop  offset="0.1828" style="stop-color:#E95268"/>
				<stop  offset="0.8172" style="stop-color:#E95268"/>
				<stop  offset="1" style="stop-color:#D70051"/>
			</linearGradient>
			<rect x="256.133" y="438.111" fill="url(#SVGID_6_)" width="40.717" height="44.408"/>
			<rect x="326.284" y="425.51" fill="#2E3134" width="19.132" height="68.267"/>
			<rect x="326.284" y="425.51" fill="#2E3134" width="19.132" height="68.267"/>
			<rect x="326.284" y="425.51" fill="#52555B" width="2.127" height="68.267"/>
			<path fill="#939393" stroke="#060404" stroke-miterlimit="10" d="M340.511,444.834c0,0.52-0.439,0.939-0.981,0.939h-5.396
				c-0.542,0-0.981-0.42-0.981-0.939v-5.785c0-0.518,0.439-0.938,0.981-0.938h5.396c0.542,0,0.981,0.42,0.981,0.938V444.834z"/>
			<path fill="#939393" stroke="#060404" stroke-miterlimit="10" d="M340.511,481.581c0,0.519-0.439,0.938-0.981,0.938h-5.396
				c-0.542,0-0.981-0.42-0.981-0.938v-5.786c0-0.518,0.439-0.938,0.981-0.938h5.396c0.542,0,0.981,0.42,0.981,0.938V481.581z"/>
			<rect x="71.029" y="425.51" fill="#96989C" width="2.288" height="68.267"/>
		</g>
	</g>
	<g>
		<g>
			<rect x="345.421" y="6.313" fill="#151515" width="292.375" height="76.398"/>
			<rect x="363.408" y="6.313" fill="#3D3D45" width="47.748" height="76.398"/>
			<g>
				<path fill="#A3A3A3" d="M358.632,82.711c-6.975-9.99-7.472-12.095-7.813-16.893c-0.699-9.865-0.014-39.623-0.001-39.921
					c0.613-14.645,7.471-19.355,7.808-19.584h2.432c-0.075,0.051-8.278,6.058-8.278,19.605c-0.007,0.32-0.695,29.993-0.002,39.773
					c0.313,4.421,1.573,7.414,8.28,17.02H358.632z"/>
			</g>
			<rect x="367.904" y="6.313" fill="#232032" width="19.949" height="76.398"/>
			<rect x="365.697" y="6.313" fill="#6F6499" width="19.949" height="76.398"/>
			<rect x="363.408" y="6.313" fill="#FFFEFB" width="19.951" height="76.398"/>
			<path fill="#989598" d="M404.533,65.354c0,2.591-2.196,4.691-4.905,4.691h-6.869c-2.71,0-4.906-2.1-4.906-4.691V25.481
				c0-2.591,2.196-4.691,4.906-4.691h6.869c2.709,0,4.905,2.1,4.905,4.691V65.354z"/>
			<g>
				<rect x="361.058" y="78.645" fill="#989598" width="276.739" height="3.127"/>
				<rect x="414.099" y="76.847" fill="#151515" width="2.698" height="4.925"/>
			</g>
			<g>
				<rect x="361.058" y="7.251" fill="#989598" width="276.739" height="3.127"/>
				<rect x="416.45" y="7.25" fill="#151515" width="2.698" height="4.926"/>
			</g>
			<rect x="411.156" y="22.979" fill="#2B2E32" width="137.358" height="44.409"/>
			<path fill="none" stroke="#878787" stroke-width="3.5" stroke-miterlimit="10" d="M405.923,77.241
				c0,0,3.287-14.699,23.328-14.386l118.608-0.005"/>
			<linearGradient id="SVGID_7_" gradientUnits="userSpaceOnUse" x1="548.5137" y1="45.1836" x2="589.23" y2="45.1836">
				<stop  offset="0" style="stop-color:#D70051"/>
				<stop  offset="0.1828" style="stop-color:#E95268"/>
				<stop  offset="0.8172" style="stop-color:#E95268"/>
				<stop  offset="1" style="stop-color:#D70051"/>
			</linearGradient>
			<rect x="548.514" y="22.979" fill="url(#SVGID_7_)" width="40.716" height="44.409"/>
			<rect x="618.664" y="10.378" fill="#2E3134" width="19.133" height="68.267"/>
			<rect x="618.664" y="10.378" fill="#2E3134" width="19.133" height="68.267"/>
			<rect x="618.664" y="10.378" fill="#52555B" width="2.127" height="68.267"/>
			<path fill="#939393" stroke="#060404" stroke-miterlimit="10" d="M632.891,29.703c0,0.518-0.439,0.938-0.981,0.938h-5.396
				c-0.541,0-0.98-0.42-0.98-0.938v-5.786c0-0.518,0.439-0.938,0.98-0.938h5.396c0.542,0,0.981,0.42,0.981,0.938V29.703z"/>
			<path fill="#939393" stroke="#060404" stroke-miterlimit="10" d="M632.891,66.449c0,0.518-0.439,0.939-0.981,0.939h-5.396
				c-0.541,0-0.98-0.421-0.98-0.939v-5.786c0-0.518,0.439-0.938,0.98-0.938h5.396c0.542,0,0.981,0.42,0.981,0.938V66.449z"/>
			<rect x="363.408" y="10.378" fill="#96989C" width="2.289" height="68.267"/>
		</g>
		<g>
			<rect x="345.42" y="89.338" fill="#151515" width="292.374" height="76.399"/>
			<rect x="363.407" y="89.338" fill="#3D3D45" width="47.748" height="76.399"/>
			<g>
				<path fill="#A3A3A3" d="M358.632,165.737c-6.975-9.99-7.473-12.095-7.813-16.893c-0.699-9.865-0.014-39.622-0.001-39.921
					c0.613-14.645,7.47-19.355,7.808-19.584h2.432c-0.074,0.052-8.278,6.058-8.278,19.605c-0.007,0.32-0.696,29.993-0.002,39.773
					c0.313,4.421,1.573,7.414,8.28,17.021H358.632z"/>
			</g>
			<rect x="367.904" y="89.338" fill="#232032" width="19.95" height="76.399"/>
			<rect x="365.696" y="89.338" fill="#6F6499" width="19.95" height="76.399"/>
			<rect x="363.408" y="89.338" fill="#FFFEFB" width="19.95" height="76.399"/>
			<path fill="#989598" d="M404.533,148.381c0,2.59-2.196,4.691-4.905,4.691h-6.869c-2.709,0-4.905-2.101-4.905-4.691v-39.874
				c0-2.59,2.196-4.691,4.905-4.691h6.869c2.708,0,4.905,2.101,4.905,4.691V148.381z"/>
			<g>
				<rect x="361.057" y="161.671" fill="#989598" width="276.737" height="3.127"/>
				<rect x="414.099" y="159.873" fill="#151515" width="2.698" height="4.926"/>
			</g>
			<g>
				<rect x="361.057" y="90.277" fill="#989598" width="276.737" height="3.127"/>
				<rect x="416.449" y="90.277" fill="#151515" width="2.698" height="4.925"/>
			</g>
			<rect x="411.155" y="106.005" fill="#2B2E32" width="137.358" height="44.408"/>
			<path fill="none" stroke="#878787" stroke-width="3.5" stroke-miterlimit="10" d="M405.923,160.267
				c0,0,3.286-14.699,23.328-14.386l118.608-0.005"/>
			<linearGradient id="SVGID_8_" gradientUnits="userSpaceOnUse" x1="548.5132" y1="128.2095" x2="589.2295" y2="128.2095">
				<stop  offset="0" style="stop-color:#D70051"/>
				<stop  offset="0.1828" style="stop-color:#E95268"/>
				<stop  offset="0.8172" style="stop-color:#E95268"/>
				<stop  offset="1" style="stop-color:#D70051"/>
			</linearGradient>
			<rect x="548.513" y="106.005" fill="url(#SVGID_8_)" width="40.716" height="44.408"/>
			<rect x="618.664" y="93.405" fill="#2E3134" width="19.131" height="68.266"/>
			<rect x="618.664" y="93.405" fill="#2E3134" width="19.131" height="68.266"/>
			<rect x="618.664" y="93.405" fill="#52555B" width="2.126" height="68.266"/>
			<path fill="#939393" stroke="#060404" stroke-miterlimit="10" d="M632.89,112.729c0,0.518-0.439,0.938-0.98,0.938h-5.396
				c-0.541,0-0.981-0.42-0.981-0.938v-5.786c0-0.518,0.44-0.938,0.981-0.938h5.396c0.541,0,0.98,0.42,0.98,0.938V112.729z"/>
			<path fill="#939393" stroke="#060404" stroke-miterlimit="10" d="M632.89,149.476c0,0.519-0.439,0.938-0.98,0.938h-5.396
				c-0.541,0-0.981-0.419-0.981-0.938v-5.786c0-0.518,0.44-0.938,0.981-0.938h5.396c0.541,0,0.98,0.42,0.98,0.938V149.476z"/>
			<rect x="363.408" y="93.405" fill="#96989C" width="2.288" height="68.266"/>
		</g>
		<g>
			<rect x="345.42" y="172.365" fill="#151515" width="292.375" height="76.398"/>
			<rect x="363.407" y="172.365" fill="#3D3D45" width="47.748" height="76.398"/>
			<g>
				<path fill="#A3A3A3" d="M358.631,248.763c-6.975-9.99-7.472-12.095-7.813-16.893c-0.7-9.865-0.015-39.623-0.002-39.921
					c0.613-14.645,7.471-19.355,7.808-19.584h2.432c-0.074,0.051-8.278,6.058-8.278,19.605c-0.007,0.32-0.695,29.993-0.001,39.773
					c0.313,4.421,1.573,7.414,8.28,17.02H358.631z"/>
			</g>
			<rect x="367.904" y="172.365" fill="#232032" width="19.949" height="76.398"/>
			<rect x="365.696" y="172.365" fill="#6F6499" width="19.949" height="76.398"/>
			<rect x="363.407" y="172.365" fill="#FFFEFB" width="19.95" height="76.398"/>
			<path fill="#989598" d="M404.532,231.407c0,2.591-2.195,4.691-4.904,4.691h-6.869c-2.709,0-4.905-2.101-4.905-4.691v-39.873
				c0-2.591,2.196-4.692,4.905-4.692h6.869c2.709,0,4.904,2.101,4.904,4.692V231.407z"/>
			<g>
				<rect x="361.057" y="244.697" fill="#989598" width="276.738" height="3.127"/>
				<rect x="414.098" y="242.899" fill="#151515" width="2.698" height="4.926"/>
			</g>
			<g>
				<rect x="361.057" y="173.303" fill="#989598" width="276.738" height="3.127"/>
				<rect x="416.449" y="173.303" fill="#151515" width="2.698" height="4.926"/>
			</g>
			<rect x="411.155" y="189.031" fill="#2B2E32" width="137.358" height="44.409"/>
			<path fill="none" stroke="#878787" stroke-width="3.5" stroke-miterlimit="10" d="M405.922,243.293
				c0,0,3.286-14.699,23.328-14.386l118.608-0.005"/>
			<linearGradient id="SVGID_9_" gradientUnits="userSpaceOnUse" x1="548.5127" y1="211.2354" x2="589.229" y2="211.2354">
				<stop  offset="0" style="stop-color:#D70051"/>
				<stop  offset="0.1828" style="stop-color:#E95268"/>
				<stop  offset="0.8172" style="stop-color:#E95268"/>
				<stop  offset="1" style="stop-color:#D70051"/>
			</linearGradient>
			<rect x="548.513" y="189.031" fill="url(#SVGID_9_)" width="40.716" height="44.409"/>
			<rect x="618.664" y="176.431" fill="#2E3134" width="19.131" height="68.266"/>
			<rect x="618.664" y="176.431" fill="#2E3134" width="19.131" height="68.266"/>
			<rect x="618.664" y="176.431" fill="#52555B" width="2.125" height="68.266"/>
			<path fill="#939393" stroke="#060404" stroke-miterlimit="10" d="M632.89,195.755c0,0.518-0.439,0.938-0.98,0.938h-5.396
				c-0.542,0-0.981-0.42-0.981-0.938v-5.785c0-0.519,0.439-0.939,0.981-0.939h5.396c0.541,0,0.98,0.42,0.98,0.939V195.755z"/>
			<path fill="#939393" stroke="#060404" stroke-miterlimit="10" d="M632.89,232.501c0,0.518-0.439,0.938-0.98,0.938h-5.396
				c-0.542,0-0.981-0.42-0.981-0.938v-5.786c0-0.518,0.439-0.938,0.981-0.938h5.396c0.541,0,0.98,0.42,0.98,0.938V232.501z"/>
			<rect x="363.407" y="176.431" fill="#96989C" width="2.289" height="68.266"/>
		</g>
		<g>
			<rect x="345.419" y="255.391" fill="#151515" width="292.375" height="76.398"/>
			<rect x="363.407" y="255.391" fill="#3D3D45" width="47.748" height="76.398"/>
			<g>
				<path fill="#A3A3A3" d="M358.631,331.789c-6.975-9.989-7.473-12.094-7.813-16.893c-0.7-9.865-0.015-39.622-0.002-39.922
					c0.613-14.645,7.47-19.354,7.808-19.584h2.432c-0.073,0.051-8.278,6.058-8.278,19.605c-0.007,0.32-0.696,29.993-0.002,39.773
					c0.313,4.421,1.573,7.414,8.28,17.02H358.631z"/>
			</g>
			<rect x="367.903" y="255.391" fill="#232032" width="19.95" height="76.398"/>
			<rect x="365.695" y="255.391" fill="#6F6499" width="19.95" height="76.398"/>
			<rect x="363.407" y="255.391" fill="#FFFEFB" width="19.949" height="76.398"/>
			<path fill="#989598" d="M404.532,314.434c0,2.59-2.195,4.69-4.905,4.69h-6.87c-2.708,0-4.905-2.101-4.905-4.69V274.56
				c0-2.591,2.196-4.69,4.905-4.69h6.87c2.709,0,4.905,2.1,4.905,4.69V314.434z"/>
			<g>
				<rect x="361.056" y="327.723" fill="#989598" width="276.739" height="3.128"/>
				<rect x="414.098" y="325.926" fill="#151515" width="2.698" height="4.926"/>
			</g>
			<g>
				<rect x="361.056" y="256.33" fill="#989598" width="276.739" height="3.127"/>
				<rect x="416.448" y="256.329" fill="#151515" width="2.698" height="4.925"/>
			</g>
			<rect x="411.154" y="272.058" fill="#2B2E32" width="137.357" height="44.408"/>
			<path fill="none" stroke="#878787" stroke-width="3.5" stroke-miterlimit="10" d="M405.922,326.319
				c0,0,3.286-14.698,23.328-14.386l118.608-0.006"/>
			<linearGradient id="SVGID_10_" gradientUnits="userSpaceOnUse" x1="548.5117" y1="294.2617" x2="589.228" y2="294.2617">
				<stop  offset="0" style="stop-color:#D70051"/>
				<stop  offset="0.1828" style="stop-color:#E95268"/>
				<stop  offset="0.8172" style="stop-color:#E95268"/>
				<stop  offset="1" style="stop-color:#D70051"/>
			</linearGradient>
			<rect x="548.512" y="272.058" fill="url(#SVGID_10_)" width="40.716" height="44.408"/>
			<rect x="618.662" y="259.457" fill="#2E3134" width="19.133" height="68.266"/>
			<rect x="618.662" y="259.457" fill="#2E3134" width="19.133" height="68.266"/>
			<rect x="618.662" y="259.457" fill="#52555B" width="2.127" height="68.266"/>
			<path fill="#939393" stroke="#060404" stroke-miterlimit="10" d="M632.89,278.781c0,0.519-0.439,0.939-0.981,0.939h-5.397
				c-0.541,0-0.98-0.421-0.98-0.939v-5.785c0-0.519,0.439-0.938,0.98-0.938h5.397c0.542,0,0.981,0.42,0.981,0.938V278.781z"/>
			<path fill="#939393" stroke="#060404" stroke-miterlimit="10" d="M632.89,315.527c0,0.519-0.439,0.938-0.981,0.938h-5.397
				c-0.541,0-0.98-0.42-0.98-0.938v-5.785c0-0.518,0.439-0.938,0.98-0.938h5.397c0.542,0,0.981,0.42,0.981,0.938V315.527z"/>
			<rect x="363.407" y="259.457" fill="#96989C" width="2.288" height="68.266"/>
		</g>
		<g>
			<rect x="345.419" y="338.417" fill="#151515" width="292.375" height="76.398"/>
			<rect x="363.406" y="338.417" fill="#3D3D45" width="47.747" height="76.398"/>
			<g>
				<path fill="#A3A3A3" d="M358.63,414.815c-6.975-9.989-7.472-12.095-7.813-16.894c-0.7-9.864-0.015-39.621-0.002-39.921
					c0.614-14.645,7.471-19.354,7.809-19.584h2.432c-0.074,0.052-8.278,6.058-8.278,19.605c-0.007,0.319-0.695,29.993-0.001,39.772
					c0.313,4.422,1.573,7.414,8.28,17.021H358.63z"/>
			</g>
			<rect x="367.903" y="338.417" fill="#232032" width="19.949" height="76.398"/>
			<rect x="365.695" y="338.417" fill="#6F6499" width="19.949" height="76.398"/>
			<rect x="363.406" y="338.417" fill="#FFFEFB" width="19.95" height="76.398"/>
			<path fill="#989598" d="M404.531,397.459c0,2.591-2.196,4.691-4.905,4.691h-6.87c-2.709,0-4.905-2.101-4.905-4.691v-39.873
				c0-2.591,2.196-4.691,4.905-4.691h6.87c2.709,0,4.905,2.101,4.905,4.691V397.459z"/>
			<g>
				<rect x="361.056" y="410.75" fill="#989598" width="276.739" height="3.127"/>
				<rect x="414.097" y="408.951" fill="#151515" width="2.698" height="4.926"/>
			</g>
			<g>
				<rect x="361.056" y="339.355" fill="#989598" width="276.739" height="3.127"/>
				<rect x="416.448" y="339.355" fill="#151515" width="2.698" height="4.926"/>
			</g>
			<rect x="411.153" y="355.084" fill="#2B2E32" width="137.358" height="44.408"/>
			<path fill="none" stroke="#878787" stroke-width="3.5" stroke-miterlimit="10" d="M405.921,409.346
				c0,0,3.286-14.699,23.328-14.387l118.608-0.004"/>
			<linearGradient id="SVGID_11_" gradientUnits="userSpaceOnUse" x1="548.5112" y1="377.2881" x2="589.228" y2="377.2881">
				<stop  offset="0" style="stop-color:#D70051"/>
				<stop  offset="0.1828" style="stop-color:#E95268"/>
				<stop  offset="0.8172" style="stop-color:#E95268"/>
				<stop  offset="1" style="stop-color:#D70051"/>
			</linearGradient>
			<rect x="548.511" y="355.084" fill="url(#SVGID_11_)" width="40.717" height="44.408"/>
			<rect x="618.662" y="342.482" fill="#2E3134" width="19.133" height="68.268"/>
			<rect x="618.662" y="342.482" fill="#2E3134" width="19.133" height="68.268"/>
			<rect x="618.662" y="342.482" fill="#52555B" width="2.127" height="68.268"/>
			<path fill="#939393" stroke="#060404" stroke-miterlimit="10" d="M632.889,361.808c0,0.519-0.438,0.938-0.981,0.938h-5.396
				c-0.541,0-0.98-0.42-0.98-0.938v-5.786c0-0.518,0.439-0.938,0.98-0.938h5.396c0.543,0,0.981,0.42,0.981,0.938V361.808z"/>
			<path fill="#939393" stroke="#060404" stroke-miterlimit="10" d="M632.889,398.555c0,0.518-0.438,0.938-0.981,0.938h-5.396
				c-0.541,0-0.98-0.42-0.98-0.938v-5.787c0-0.518,0.439-0.938,0.98-0.938h5.396c0.543,0,0.981,0.42,0.981,0.938V398.555z"/>
			<rect x="363.406" y="342.482" fill="#96989C" width="2.289" height="68.268"/>
		</g>
		<g>
			<rect x="345.418" y="421.443" fill="#151515" width="292.375" height="76.398"/>
			<rect x="363.405" y="421.443" fill="#3D3D45" width="47.748" height="76.398"/>
			<g>
				<path fill="#A3A3A3" d="M358.63,497.842c-6.975-9.99-7.473-12.095-7.813-16.893c-0.7-9.865-0.015-39.622-0.002-39.922
					c0.614-14.645,7.471-19.355,7.808-19.584h2.432c-0.074,0.051-8.278,6.057-8.278,19.605c-0.007,0.319-0.696,29.992-0.002,39.772
					c0.313,4.422,1.573,7.414,8.28,17.021H358.63z"/>
			</g>
			<rect x="367.902" y="421.443" fill="#232032" width="19.95" height="76.398"/>
			<rect x="365.694" y="421.443" fill="#6F6499" width="19.95" height="76.398"/>
			<rect x="363.406" y="421.443" fill="#FFFEFB" width="19.949" height="76.398"/>
			<path fill="#989598" d="M404.531,480.485c0,2.591-2.196,4.69-4.905,4.69h-6.869c-2.709,0-4.905-2.1-4.905-4.69v-39.874
				c0-2.59,2.196-4.69,4.905-4.69h6.869c2.709,0,4.905,2.101,4.905,4.69V480.485z"/>
			<g>
				<rect x="361.055" y="493.775" fill="#989598" width="276.738" height="3.127"/>
				<rect x="414.097" y="491.978" fill="#151515" width="2.697" height="4.925"/>
			</g>
			<g>
				<rect x="361.055" y="422.382" fill="#989598" width="276.738" height="3.127"/>
				<rect x="416.447" y="422.381" fill="#151515" width="2.698" height="4.926"/>
			</g>
			<rect x="411.153" y="438.109" fill="#2B2E32" width="137.358" height="44.408"/>
			<path fill="none" stroke="#878787" stroke-width="3.5" stroke-miterlimit="10" d="M405.921,492.371
				c0,0,3.286-14.698,23.328-14.385l118.607-0.006"/>
			<linearGradient id="SVGID_12_" gradientUnits="userSpaceOnUse" x1="548.5112" y1="460.3135" x2="589.2275" y2="460.3135">
				<stop  offset="0" style="stop-color:#D70051"/>
				<stop  offset="0.1828" style="stop-color:#E95268"/>
				<stop  offset="0.8172" style="stop-color:#E95268"/>
				<stop  offset="1" style="stop-color:#D70051"/>
			</linearGradient>
			<rect x="548.511" y="438.109" fill="url(#SVGID_12_)" width="40.716" height="44.408"/>
			<rect x="618.662" y="425.51" fill="#2E3134" width="19.132" height="68.266"/>
			<rect x="618.662" y="425.51" fill="#2E3134" width="19.132" height="68.266"/>
			<rect x="618.662" y="425.51" fill="#52555B" width="2.126" height="68.266"/>
			<path fill="#939393" stroke="#060404" stroke-miterlimit="10" d="M632.888,444.834c0,0.518-0.438,0.938-0.98,0.938h-5.396
				c-0.542,0-0.98-0.42-0.98-0.938v-5.786c0-0.519,0.438-0.938,0.98-0.938h5.396c0.542,0,0.98,0.42,0.98,0.938V444.834z"/>
			<path fill="#939393" stroke="#060404" stroke-miterlimit="10" d="M632.888,481.58c0,0.518-0.438,0.938-0.98,0.938h-5.396
				c-0.542,0-0.98-0.42-0.98-0.938v-5.786c0-0.519,0.438-0.938,0.98-0.938h5.396c0.542,0,0.98,0.42,0.98,0.938V481.58z"/>
			<rect x="363.406" y="425.51" fill="#96989C" width="2.288" height="68.266"/>
		</g>
	</g>
	<g>
		<g>
			<rect x="637.796" y="6.521" fill="#151515" width="292.374" height="76.398"/>
			<rect x="655.783" y="6.521" fill="#3D3D45" width="47.748" height="76.398"/>
			<g>
				<path fill="#A3A3A3" d="M651.006,82.919c-6.975-9.99-7.471-12.095-7.813-16.893c-0.699-9.865-0.014-39.623-0.002-39.921
					C643.805,11.46,650.664,6.75,651,6.521h2.434c-0.074,0.051-8.279,6.058-8.279,19.605c-0.008,0.32-0.695,29.993-0.002,39.773
					c0.313,4.421,1.574,7.414,8.281,17.02H651.006z"/>
			</g>
			<rect x="660.279" y="6.521" fill="#232032" width="19.949" height="76.398"/>
			<rect x="658.072" y="6.521" fill="#6F6499" width="19.949" height="76.398"/>
			<rect x="655.783" y="6.521" fill="#FFFEFB" width="19.949" height="76.398"/>
			<path fill="#989598" d="M696.908,65.563c0,2.591-2.195,4.691-4.906,4.691h-6.867c-2.709,0-4.906-2.1-4.906-4.691V25.689
				c0-2.59,2.197-4.691,4.906-4.691h6.867c2.711,0,4.906,2.101,4.906,4.691V65.563z"/>
			<g>
				<rect x="653.434" y="78.853" fill="#989598" width="276.736" height="3.127"/>
				<rect x="706.475" y="77.055" fill="#151515" width="2.697" height="4.925"/>
			</g>
			<g>
				<rect x="653.434" y="7.459" fill="#989598" width="276.736" height="3.127"/>
				<rect x="708.824" y="7.458" fill="#151515" width="2.699" height="4.926"/>
			</g>
			<rect x="703.531" y="23.187" fill="#2B2E32" width="137.357" height="44.409"/>
			<path fill="none" stroke="#878787" stroke-width="3.5" stroke-miterlimit="10" d="M698.299,77.449
				c0,0,3.285-14.698,23.328-14.386l118.607-0.005"/>
			<linearGradient id="SVGID_13_" gradientUnits="userSpaceOnUse" x1="840.8887" y1="45.3916" x2="881.6055" y2="45.3916">
				<stop  offset="0" style="stop-color:#D70051"/>
				<stop  offset="0.1828" style="stop-color:#E95268"/>
				<stop  offset="0.8172" style="stop-color:#E95268"/>
				<stop  offset="1" style="stop-color:#D70051"/>
			</linearGradient>
			<rect x="840.889" y="23.187" fill="url(#SVGID_13_)" width="40.717" height="44.409"/>
			<rect x="911.039" y="10.586" fill="#2E3134" width="19.131" height="68.267"/>
			<rect x="911.039" y="10.586" fill="#2E3134" width="19.131" height="68.267"/>
			<rect x="911.039" y="10.586" fill="#52555B" width="2.125" height="68.267"/>
			<path fill="#939393" stroke="#060404" stroke-miterlimit="10" d="M925.266,29.911c0,0.518-0.439,0.938-0.98,0.938h-5.396
				c-0.541,0-0.98-0.42-0.98-0.938v-5.786c0-0.518,0.439-0.938,0.98-0.938h5.396c0.541,0,0.98,0.42,0.98,0.938V29.911z"/>
			<path fill="#939393" stroke="#060404" stroke-miterlimit="10" d="M925.266,66.657c0,0.518-0.439,0.939-0.98,0.939h-5.396
				c-0.541,0-0.98-0.421-0.98-0.939v-5.786c0-0.518,0.439-0.938,0.98-0.938h5.396c0.541,0,0.98,0.42,0.98,0.938V66.657z"/>
			<rect x="655.783" y="10.586" fill="#96989C" width="2.289" height="68.267"/>
		</g>
		<g>
			<rect x="637.794" y="89.546" fill="#151515" width="292.375" height="76.399"/>
			<rect x="655.783" y="89.546" fill="#3D3D45" width="47.748" height="76.399"/>
			<g>
				<path fill="#A3A3A3" d="M651.006,165.945c-6.975-9.99-7.471-12.095-7.813-16.893c-0.699-9.865-0.014-39.622-0.002-39.921
					c0.613-14.645,7.471-19.355,7.809-19.584h2.432c-0.074,0.052-8.277,6.058-8.277,19.605c-0.008,0.32-0.697,29.993-0.004,39.773
					c0.314,4.421,1.574,7.414,8.281,17.021H651.006z"/>
			</g>
			<rect x="660.279" y="89.546" fill="#232032" width="19.949" height="76.399"/>
			<rect x="658.07" y="89.546" fill="#6F6499" width="19.951" height="76.399"/>
			<rect x="655.783" y="89.546" fill="#FFFEFB" width="19.949" height="76.399"/>
			<path fill="#989598" d="M696.908,148.589c0,2.59-2.197,4.691-4.906,4.691h-6.869c-2.707,0-4.904-2.101-4.904-4.691v-39.874
				c0-2.59,2.197-4.691,4.904-4.691h6.869c2.709,0,4.906,2.101,4.906,4.691V148.589z"/>
			<g>
				<rect x="653.432" y="161.879" fill="#989598" width="276.738" height="3.127"/>
				<rect x="706.475" y="160.081" fill="#151515" width="2.697" height="4.926"/>
			</g>
			<g>
				<rect x="653.432" y="90.485" fill="#989598" width="276.738" height="3.127"/>
				<rect x="708.824" y="90.485" fill="#151515" width="2.697" height="4.925"/>
			</g>
			<rect x="703.531" y="106.213" fill="#2B2E32" width="137.357" height="44.408"/>
			<path fill="none" stroke="#878787" stroke-width="3.5" stroke-miterlimit="10" d="M698.297,160.475
				c0,0,3.287-14.699,23.328-14.386l118.609-0.005"/>
			<linearGradient id="SVGID_14_" gradientUnits="userSpaceOnUse" x1="840.8887" y1="128.4175" x2="881.6055" y2="128.4175">
				<stop  offset="0" style="stop-color:#D70051"/>
				<stop  offset="0.1828" style="stop-color:#E95268"/>
				<stop  offset="0.8172" style="stop-color:#E95268"/>
				<stop  offset="1" style="stop-color:#D70051"/>
			</linearGradient>
			<rect x="840.889" y="106.213" fill="url(#SVGID_14_)" width="40.717" height="44.408"/>
			<rect x="911.039" y="93.613" fill="#2E3134" width="19.131" height="68.266"/>
			<rect x="911.039" y="93.613" fill="#2E3134" width="19.131" height="68.266"/>
			<rect x="911.039" y="93.613" fill="#52555B" width="2.125" height="68.266"/>
			<path fill="#939393" stroke="#060404" stroke-miterlimit="10" d="M925.266,112.938c0,0.518-0.439,0.938-0.982,0.938h-5.395
				c-0.543,0-0.98-0.42-0.98-0.938v-5.786c0-0.518,0.438-0.938,0.98-0.938h5.395c0.543,0,0.982,0.42,0.982,0.938V112.938z"/>
			<path fill="#939393" stroke="#060404" stroke-miterlimit="10" d="M925.266,149.684c0,0.518-0.439,0.938-0.982,0.938h-5.395
				c-0.543,0-0.98-0.42-0.98-0.938v-5.786c0-0.518,0.438-0.938,0.98-0.938h5.395c0.543,0,0.982,0.42,0.982,0.938V149.684z"/>
			<rect x="655.783" y="93.613" fill="#96989C" width="2.287" height="68.266"/>
		</g>
		<g>
			<rect x="637.794" y="172.573" fill="#151515" width="292.375" height="76.398"/>
			<rect x="655.781" y="172.573" fill="#3D3D45" width="47.748" height="76.398"/>
			<g>
				<path fill="#A3A3A3" d="M651.006,248.971c-6.975-9.99-7.473-12.095-7.813-16.893c-0.699-9.865-0.014-39.623-0.002-39.921
					c0.613-14.645,7.471-19.355,7.809-19.584h2.432c-0.074,0.051-8.279,6.058-8.279,19.605c-0.006,0.32-0.695,29.993-0.002,39.773
					c0.314,4.421,1.574,7.414,8.281,17.02H651.006z"/>
			</g>
			<rect x="660.279" y="172.573" fill="#232032" width="19.949" height="76.398"/>
			<rect x="658.07" y="172.573" fill="#6F6499" width="19.949" height="76.398"/>
			<rect x="655.781" y="172.573" fill="#FFFEFB" width="19.951" height="76.398"/>
			<path fill="#989598" d="M696.908,231.615c0,2.591-2.197,4.691-4.906,4.691h-6.869c-2.709,0-4.904-2.101-4.904-4.691v-39.873
				c0-2.591,2.195-4.691,4.904-4.691h6.869c2.709,0,4.906,2.101,4.906,4.691V231.615z"/>
			<g>
				<rect x="653.432" y="244.905" fill="#989598" width="276.738" height="3.127"/>
				<rect x="706.473" y="243.107" fill="#151515" width="2.699" height="4.926"/>
			</g>
			<g>
				<rect x="653.432" y="173.511" fill="#989598" width="276.738" height="3.127"/>
				<rect x="708.824" y="173.511" fill="#151515" width="2.697" height="4.926"/>
			</g>
			<rect x="703.529" y="189.239" fill="#2B2E32" width="137.357" height="44.409"/>
			<path fill="none" stroke="#878787" stroke-width="3.5" stroke-miterlimit="10" d="M698.297,243.501
				c0,0,3.287-14.699,23.328-14.386l118.607-0.005"/>
			<linearGradient id="SVGID_15_" gradientUnits="userSpaceOnUse" x1="840.8867" y1="211.4434" x2="881.6035" y2="211.4434">
				<stop  offset="0" style="stop-color:#D70051"/>
				<stop  offset="0.1828" style="stop-color:#E95268"/>
				<stop  offset="0.8172" style="stop-color:#E95268"/>
				<stop  offset="1" style="stop-color:#D70051"/>
			</linearGradient>
			<rect x="840.887" y="189.239" fill="url(#SVGID_15_)" width="40.717" height="44.409"/>
			<rect x="911.037" y="176.639" fill="#2E3134" width="19.133" height="68.266"/>
			<rect x="911.037" y="176.639" fill="#2E3134" width="19.133" height="68.266"/>
			<rect x="911.037" y="176.639" fill="#52555B" width="2.127" height="68.266"/>
			<path fill="#939393" stroke="#060404" stroke-miterlimit="10" d="M925.266,195.963c0,0.518-0.439,0.938-0.982,0.938h-5.395
				c-0.543,0-0.982-0.42-0.982-0.938v-5.786c0-0.519,0.439-0.938,0.982-0.938h5.395c0.543,0,0.982,0.42,0.982,0.938V195.963z"/>
			<path fill="#939393" stroke="#060404" stroke-miterlimit="10" d="M925.266,232.709c0,0.518-0.439,0.938-0.982,0.938h-5.395
				c-0.543,0-0.982-0.42-0.982-0.938v-5.786c0-0.518,0.439-0.938,0.982-0.938h5.395c0.543,0,0.982,0.42,0.982,0.938V232.709z"/>
			<rect x="655.781" y="176.639" fill="#96989C" width="2.289" height="68.266"/>
		</g>
		<g>
			<rect x="637.794" y="255.6" fill="#151515" width="292.375" height="76.398"/>
			<rect x="655.781" y="255.6" fill="#3D3D45" width="47.748" height="76.398"/>
			<g>
				<path fill="#A3A3A3" d="M651.006,331.998c-6.975-9.99-7.473-12.096-7.813-16.894c-0.699-9.864-0.014-39.622-0.002-39.921
					c0.613-14.645,7.471-19.355,7.809-19.584h2.432c-0.074,0.051-8.279,6.057-8.279,19.604c-0.006,0.319-0.695,29.993-0.002,39.772
					c0.314,4.422,1.574,7.414,8.281,17.021H651.006z"/>
			</g>
			<rect x="660.277" y="255.6" fill="#232032" width="19.951" height="76.398"/>
			<rect x="658.07" y="255.6" fill="#6F6499" width="19.949" height="76.398"/>
			<rect x="655.781" y="255.6" fill="#FFFEFB" width="19.951" height="76.398"/>
			<path fill="#989598" d="M696.906,314.641c0,2.591-2.195,4.691-4.904,4.691h-6.869c-2.709,0-4.906-2.101-4.906-4.691v-39.873
				c0-2.59,2.197-4.69,4.906-4.69h6.869c2.709,0,4.904,2.101,4.904,4.69V314.641z"/>
			<g>
				<rect x="653.432" y="327.932" fill="#989598" width="276.738" height="3.127"/>
				<rect x="706.473" y="326.133" fill="#151515" width="2.699" height="4.926"/>
			</g>
			<g>
				<rect x="653.432" y="256.537" fill="#989598" width="276.738" height="3.127"/>
				<rect x="708.822" y="256.537" fill="#151515" width="2.699" height="4.926"/>
			</g>
			<rect x="703.529" y="272.266" fill="#2B2E32" width="137.357" height="44.408"/>
			<path fill="none" stroke="#878787" stroke-width="3.5" stroke-miterlimit="10" d="M698.297,326.527
				c0,0,3.287-14.699,23.328-14.386l118.607-0.005"/>
			<linearGradient id="SVGID_16_" gradientUnits="userSpaceOnUse" x1="840.8867" y1="294.4697" x2="881.6035" y2="294.4697">
				<stop  offset="0" style="stop-color:#D70051"/>
				<stop  offset="0.1828" style="stop-color:#E95268"/>
				<stop  offset="0.8172" style="stop-color:#E95268"/>
				<stop  offset="1" style="stop-color:#D70051"/>
			</linearGradient>
			<rect x="840.887" y="272.266" fill="url(#SVGID_16_)" width="40.717" height="44.408"/>
			<rect x="911.037" y="259.665" fill="#2E3134" width="19.133" height="68.267"/>
			<rect x="911.037" y="259.665" fill="#2E3134" width="19.133" height="68.267"/>
			<rect x="911.037" y="259.665" fill="#52555B" width="2.127" height="68.267"/>
			<path fill="#939393" stroke="#060404" stroke-miterlimit="10" d="M925.266,278.989c0,0.519-0.439,0.938-0.982,0.938h-5.396
				c-0.541,0-0.98-0.42-0.98-0.938v-5.786c0-0.518,0.439-0.938,0.98-0.938h5.396c0.543,0,0.982,0.42,0.982,0.938V278.989z"/>
			<path fill="#939393" stroke="#060404" stroke-miterlimit="10" d="M925.266,315.736c0,0.518-0.439,0.938-0.982,0.938h-5.396
				c-0.541,0-0.98-0.42-0.98-0.938v-5.786c0-0.519,0.439-0.938,0.98-0.938h5.396c0.543,0,0.982,0.42,0.982,0.938V315.736z"/>
			<rect x="655.781" y="259.665" fill="#96989C" width="2.289" height="68.267"/>
		</g>
		<g>
			<rect x="637.794" y="338.625" fill="#151515" width="292.375" height="76.398"/>
			<rect x="655.781" y="338.625" fill="#3D3D45" width="47.748" height="76.398"/>
			<g>
				<path fill="#A3A3A3" d="M651.004,415.023c-6.975-9.989-7.471-12.094-7.813-16.893c-0.699-9.865-0.014-39.623-0.002-39.922
					c0.613-14.645,7.473-19.354,7.809-19.584h2.434c-0.074,0.051-8.279,6.057-8.279,19.605c-0.008,0.32-0.695,29.992-0.002,39.773
					c0.314,4.42,1.574,7.413,8.281,17.02H651.004z"/>
			</g>
			<rect x="660.277" y="338.625" fill="#232032" width="19.949" height="76.398"/>
			<rect x="658.07" y="338.625" fill="#6F6499" width="19.949" height="76.398"/>
			<rect x="655.781" y="338.625" fill="#FFFEFB" width="19.951" height="76.398"/>
			<path fill="#989598" d="M696.906,397.667c0,2.591-2.195,4.69-4.904,4.69h-6.869c-2.709,0-4.906-2.1-4.906-4.69v-39.873
				c0-2.591,2.197-4.691,4.906-4.691h6.869c2.709,0,4.904,2.101,4.904,4.691V397.667z"/>
			<g>
				<rect x="653.432" y="410.957" fill="#989598" width="276.738" height="3.127"/>
				<rect x="706.473" y="409.16" fill="#151515" width="2.697" height="4.925"/>
			</g>
			<g>
				<rect x="653.432" y="339.563" fill="#989598" width="276.738" height="3.127"/>
				<rect x="708.822" y="339.563" fill="#151515" width="2.697" height="4.926"/>
			</g>
			<rect x="703.529" y="355.291" fill="#2B2E32" width="137.357" height="44.409"/>
			<path fill="none" stroke="#878787" stroke-width="3.5" stroke-miterlimit="10" d="M698.297,409.553
				c0,0,3.285-14.698,23.328-14.385l118.607-0.006"/>
			<linearGradient id="SVGID_17_" gradientUnits="userSpaceOnUse" x1="840.8867" y1="377.4961" x2="881.6035" y2="377.4961">
				<stop  offset="0" style="stop-color:#D70051"/>
				<stop  offset="0.1828" style="stop-color:#E95268"/>
				<stop  offset="0.8172" style="stop-color:#E95268"/>
				<stop  offset="1" style="stop-color:#D70051"/>
			</linearGradient>
			<rect x="840.887" y="355.291" fill="url(#SVGID_17_)" width="40.717" height="44.409"/>
			<rect x="911.037" y="342.691" fill="#2E3134" width="19.133" height="68.266"/>
			<rect x="911.037" y="342.691" fill="#2E3134" width="19.133" height="68.266"/>
			<rect x="911.037" y="342.691" fill="#52555B" width="2.127" height="68.266"/>
			<path fill="#939393" stroke="#060404" stroke-miterlimit="10" d="M925.264,362.016c0,0.519-0.439,0.938-0.98,0.938h-5.396
				c-0.541,0-0.98-0.419-0.98-0.938v-5.785c0-0.52,0.439-0.939,0.98-0.939h5.396c0.541,0,0.98,0.42,0.98,0.939V362.016z"/>
			<path fill="#939393" stroke="#060404" stroke-miterlimit="10" d="M925.264,398.762c0,0.518-0.439,0.938-0.98,0.938h-5.396
				c-0.541,0-0.98-0.421-0.98-0.938v-5.785c0-0.519,0.439-0.939,0.98-0.939h5.396c0.541,0,0.98,0.421,0.98,0.939V398.762z"/>
			<rect x="655.781" y="342.691" fill="#96989C" width="2.289" height="68.266"/>
		</g>
		<g>
			<rect x="637.793" y="421.65" fill="#151515" width="292.375" height="76.399"/>
			<rect x="655.781" y="421.65" fill="#3D3D45" width="47.748" height="76.399"/>
			<g>
				<path fill="#A3A3A3" d="M651.004,498.05c-6.975-9.989-7.473-12.095-7.813-16.894c-0.699-9.864-0.014-39.621-0.002-39.921
					c0.613-14.645,7.471-19.354,7.809-19.585h2.432c-0.074,0.052-8.277,6.059-8.277,19.605c-0.008,0.32-0.697,29.994-0.002,39.773
					c0.313,4.422,1.572,7.414,8.279,17.021H651.004z"/>
			</g>
			<rect x="660.277" y="421.65" fill="#232032" width="19.949" height="76.399"/>
			<rect x="658.068" y="421.65" fill="#6F6499" width="19.951" height="76.399"/>
			<rect x="655.781" y="421.65" fill="#FFFEFB" width="19.949" height="76.399"/>
			<path fill="#989598" d="M696.906,480.693c0,2.591-2.197,4.691-4.906,4.691h-6.867c-2.709,0-4.906-2.101-4.906-4.691V440.82
				c0-2.591,2.197-4.691,4.906-4.691H692c2.709,0,4.906,2.101,4.906,4.691V480.693z"/>
			<g>
				<rect x="653.43" y="493.983" fill="#989598" width="276.738" height="3.128"/>
				<rect x="706.473" y="492.186" fill="#151515" width="2.697" height="4.926"/>
			</g>
			<g>
				<rect x="653.43" y="422.59" fill="#989598" width="276.738" height="3.127"/>
				<rect x="708.822" y="422.59" fill="#151515" width="2.697" height="4.926"/>
			</g>
			<rect x="703.529" y="438.318" fill="#2B2E32" width="137.355" height="44.408"/>
			<path fill="none" stroke="#878787" stroke-width="3.5" stroke-miterlimit="10" d="M698.295,492.58
				c0,0,3.287-14.699,23.328-14.387l118.609-0.005"/>
			<linearGradient id="SVGID_18_" gradientUnits="userSpaceOnUse" x1="840.8848" y1="460.5225" x2="881.6016" y2="460.5225">
				<stop  offset="0" style="stop-color:#D70051"/>
				<stop  offset="0.1828" style="stop-color:#E95268"/>
				<stop  offset="0.8172" style="stop-color:#E95268"/>
				<stop  offset="1" style="stop-color:#D70051"/>
			</linearGradient>
			<rect x="840.885" y="438.318" fill="url(#SVGID_18_)" width="40.717" height="44.408"/>
			<rect x="911.035" y="425.717" fill="#2E3134" width="19.133" height="68.267"/>
			<rect x="911.035" y="425.717" fill="#2E3134" width="19.133" height="68.267"/>
			<rect x="911.035" y="425.717" fill="#52555B" width="2.127" height="68.267"/>
			<path fill="#939393" stroke="#060404" stroke-miterlimit="10" d="M925.264,445.041c0,0.52-0.439,0.939-0.98,0.939h-5.396
				c-0.543,0-0.98-0.42-0.98-0.939v-5.785c0-0.518,0.438-0.938,0.98-0.938h5.396c0.541,0,0.98,0.42,0.98,0.938V445.041z"/>
			<path fill="#939393" stroke="#060404" stroke-miterlimit="10" d="M925.264,481.788c0,0.519-0.439,0.938-0.98,0.938h-5.396
				c-0.543,0-0.98-0.42-0.98-0.938v-5.786c0-0.518,0.438-0.938,0.98-0.938h5.396c0.541,0,0.98,0.42,0.98,0.938V481.788z"/>
			<rect x="655.781" y="425.717" fill="#96989C" width="2.287" height="68.267"/>
		</g>
	</g>
	<g>
		<g>
			<rect x="930.174" y="6.521" fill="#151515" width="292.375" height="76.398"/>
			<rect x="948.16" y="6.521" fill="#3D3D45" width="47.748" height="76.398"/>
			<g>
				<path fill="#A3A3A3" d="M943.385,82.919c-6.975-9.99-7.473-12.095-7.813-16.893c-0.701-9.865-0.016-39.623-0.002-39.921
					c0.611-14.645,7.471-19.355,7.807-19.584h2.434c-0.076,0.051-8.279,6.058-8.279,19.605c-0.006,0.32-0.695,29.993-0.002,39.773
					c0.314,4.421,1.574,7.414,8.281,17.02H943.385z"/>
			</g>
			<rect x="952.656" y="6.521" fill="#232032" width="19.951" height="76.398"/>
			<rect x="950.449" y="6.521" fill="#6F6499" width="19.949" height="76.398"/>
			<rect x="948.16" y="6.521" fill="#FFFEFB" width="19.951" height="76.398"/>
			<path fill="#989598" d="M989.285,65.563c0,2.591-2.195,4.691-4.904,4.691h-6.869c-2.711,0-4.904-2.1-4.904-4.691V25.689
				c0-2.59,2.193-4.691,4.904-4.691h6.869c2.709,0,4.904,2.101,4.904,4.691V65.563z"/>
			<g>
				<rect x="945.811" y="78.853" fill="#989598" width="276.738" height="3.127"/>
				<rect x="998.852" y="77.055" fill="#151515" width="2.697" height="4.925"/>
			</g>
			<g>
				<rect x="945.811" y="7.459" fill="#989598" width="276.738" height="3.127"/>
				<rect x="1001.201" y="7.458" fill="#151515" width="2.699" height="4.926"/>
			</g>
			<rect x="995.908" y="23.187" fill="#2B2E32" width="137.357" height="44.409"/>
			<path fill="none" stroke="#878787" stroke-width="3.5" stroke-miterlimit="10" d="M990.676,77.449
				c0,0,3.285-14.698,23.326-14.386l118.609-0.005"/>
			<linearGradient id="SVGID_19_" gradientUnits="userSpaceOnUse" x1="1133.2656" y1="45.3916" x2="1173.9824" y2="45.3916">
				<stop  offset="0" style="stop-color:#D70051"/>
				<stop  offset="0.1828" style="stop-color:#E95268"/>
				<stop  offset="0.8172" style="stop-color:#E95268"/>
				<stop  offset="1" style="stop-color:#D70051"/>
			</linearGradient>
			<rect x="1133.266" y="23.187" fill="url(#SVGID_19_)" width="40.717" height="44.409"/>
			<rect x="1203.416" y="10.586" fill="#2E3134" width="19.133" height="68.267"/>
			<rect x="1203.416" y="10.586" fill="#2E3134" width="19.133" height="68.267"/>
			<rect x="1203.416" y="10.586" fill="#52555B" width="2.127" height="68.267"/>
			<path fill="#939393" stroke="#060404" stroke-miterlimit="10" d="M1217.643,29.911c0,0.518-0.439,0.938-0.98,0.938h-5.396
				c-0.541,0-0.98-0.42-0.98-0.938v-5.786c0-0.518,0.439-0.938,0.98-0.938h5.396c0.541,0,0.98,0.42,0.98,0.938V29.911z"/>
			<path fill="#939393" stroke="#060404" stroke-miterlimit="10" d="M1217.643,66.657c0,0.518-0.439,0.939-0.98,0.939h-5.396
				c-0.541,0-0.98-0.421-0.98-0.939v-5.786c0-0.518,0.439-0.938,0.98-0.938h5.396c0.541,0,0.98,0.42,0.98,0.938V66.657z"/>
			<rect x="948.16" y="10.586" fill="#96989C" width="2.289" height="68.267"/>
		</g>
		<g>
			<rect x="930.172" y="89.546" fill="#151515" width="292.375" height="76.399"/>
			<rect x="948.16" y="89.546" fill="#3D3D45" width="47.748" height="76.399"/>
			<g>
				<path fill="#A3A3A3" d="M943.385,165.945c-6.977-9.99-7.473-12.095-7.813-16.893c-0.701-9.865-0.016-39.622-0.002-39.921
					c0.611-14.645,7.469-19.355,7.807-19.584h2.432c-0.074,0.052-8.277,6.058-8.277,19.605c-0.008,0.32-0.695,29.993-0.002,39.773
					c0.313,4.421,1.572,7.414,8.279,17.021H943.385z"/>
			</g>
			<rect x="952.656" y="89.546" fill="#232032" width="19.951" height="76.399"/>
			<rect x="950.449" y="89.546" fill="#6F6499" width="19.949" height="76.399"/>
			<rect x="948.16" y="89.546" fill="#FFFEFB" width="19.949" height="76.399"/>
			<path fill="#989598" d="M989.285,148.589c0,2.59-2.195,4.691-4.904,4.691h-6.869c-2.711,0-4.906-2.101-4.906-4.691v-39.874
				c0-2.59,2.195-4.691,4.906-4.691h6.869c2.709,0,4.904,2.101,4.904,4.691V148.589z"/>
			<g>
				<rect x="945.809" y="161.879" fill="#989598" width="276.738" height="3.127"/>
				<rect x="998.85" y="160.081" fill="#151515" width="2.699" height="4.926"/>
			</g>
			<g>
				<rect x="945.809" y="90.485" fill="#989598" width="276.738" height="3.127"/>
				<rect x="1001.201" y="90.485" fill="#151515" width="2.697" height="4.925"/>
			</g>
			<rect x="995.908" y="106.213" fill="#2B2E32" width="137.357" height="44.408"/>
			<path fill="none" stroke="#878787" stroke-width="3.5" stroke-miterlimit="10" d="M990.676,160.475
				c0,0,3.285-14.699,23.326-14.386l118.609-0.005"/>
			<linearGradient id="SVGID_20_" gradientUnits="userSpaceOnUse" x1="1133.2656" y1="128.4175" x2="1173.9824" y2="128.4175">
				<stop  offset="0" style="stop-color:#D70051"/>
				<stop  offset="0.1828" style="stop-color:#E95268"/>
				<stop  offset="0.8172" style="stop-color:#E95268"/>
				<stop  offset="1" style="stop-color:#D70051"/>
			</linearGradient>
			<rect x="1133.266" y="106.213" fill="url(#SVGID_20_)" width="40.717" height="44.408"/>
			<rect x="1203.416" y="93.613" fill="#2E3134" width="19.131" height="68.266"/>
			<rect x="1203.416" y="93.613" fill="#2E3134" width="19.131" height="68.266"/>
			<rect x="1203.416" y="93.613" fill="#52555B" width="2.125" height="68.266"/>
			<path fill="#939393" stroke="#060404" stroke-miterlimit="10" d="M1217.643,112.938c0,0.518-0.439,0.938-0.98,0.938h-5.396
				c-0.541,0-0.982-0.42-0.982-0.938v-5.786c0-0.518,0.441-0.938,0.982-0.938h5.396c0.541,0,0.98,0.42,0.98,0.938V112.938z"/>
			<path fill="#939393" stroke="#060404" stroke-miterlimit="10" d="M1217.643,149.684c0,0.518-0.439,0.938-0.98,0.938h-5.396
				c-0.541,0-0.982-0.42-0.982-0.938v-5.786c0-0.518,0.441-0.938,0.982-0.938h5.396c0.541,0,0.98,0.42,0.98,0.938V149.684z"/>
			<rect x="948.16" y="93.613" fill="#96989C" width="2.289" height="68.266"/>
		</g>
		<g>
			<rect x="930.172" y="172.573" fill="#151515" width="292.375" height="76.398"/>
			<rect x="948.16" y="172.573" fill="#3D3D45" width="47.746" height="76.398"/>
			<g>
				<path fill="#A3A3A3" d="M943.383,248.971c-6.975-9.99-7.473-12.095-7.813-16.893c-0.699-9.865-0.014-39.623-0.002-39.921
					c0.613-14.645,7.471-19.355,7.809-19.584h2.432c-0.074,0.051-8.277,6.058-8.277,19.605c-0.008,0.32-0.695,29.993-0.002,39.773
					c0.313,4.421,1.572,7.414,8.279,17.02H943.383z"/>
			</g>
			<rect x="952.656" y="172.573" fill="#232032" width="19.949" height="76.398"/>
			<rect x="950.449" y="172.573" fill="#6F6499" width="19.949" height="76.398"/>
			<rect x="948.16" y="172.573" fill="#FFFEFB" width="19.949" height="76.398"/>
			<path fill="#989598" d="M989.283,231.615c0,2.591-2.195,4.691-4.904,4.691h-6.869c-2.709,0-4.904-2.101-4.904-4.691v-39.873
				c0-2.591,2.195-4.691,4.904-4.691h6.869c2.709,0,4.904,2.101,4.904,4.691V231.615z"/>
			<g>
				<rect x="945.809" y="244.905" fill="#989598" width="276.738" height="3.127"/>
				<rect x="998.85" y="243.107" fill="#151515" width="2.699" height="4.926"/>
			</g>
			<g>
				<rect x="945.809" y="173.511" fill="#989598" width="276.738" height="3.127"/>
				<rect x="1001.201" y="173.511" fill="#151515" width="2.697" height="4.926"/>
			</g>
			<rect x="995.906" y="189.239" fill="#2B2E32" width="137.359" height="44.409"/>
			<path fill="none" stroke="#878787" stroke-width="3.5" stroke-miterlimit="10" d="M990.674,243.501
				c0,0,3.287-14.699,23.328-14.386l118.607-0.005"/>
			<linearGradient id="SVGID_21_" gradientUnits="userSpaceOnUse" x1="1133.2656" y1="211.4434" x2="1173.9824" y2="211.4434">
				<stop  offset="0" style="stop-color:#D70051"/>
				<stop  offset="0.1828" style="stop-color:#E95268"/>
				<stop  offset="0.8172" style="stop-color:#E95268"/>
				<stop  offset="1" style="stop-color:#D70051"/>
			</linearGradient>
			<rect x="1133.266" y="189.239" fill="url(#SVGID_21_)" width="40.717" height="44.409"/>
			<rect x="1203.416" y="176.639" fill="#2E3134" width="19.131" height="68.266"/>
			<rect x="1203.416" y="176.639" fill="#2E3134" width="19.131" height="68.266"/>
			<rect x="1203.416" y="176.639" fill="#52555B" width="2.125" height="68.266"/>
			<path fill="#939393" stroke="#060404" stroke-miterlimit="10" d="M1217.643,195.963c0,0.518-0.439,0.938-0.98,0.938h-5.396
				c-0.543,0-0.982-0.42-0.982-0.938v-5.786c0-0.519,0.439-0.938,0.982-0.938h5.396c0.541,0,0.98,0.42,0.98,0.938V195.963z"/>
			<path fill="#939393" stroke="#060404" stroke-miterlimit="10" d="M1217.643,232.709c0,0.518-0.439,0.938-0.98,0.938h-5.396
				c-0.543,0-0.982-0.42-0.982-0.938v-5.786c0-0.518,0.439-0.938,0.982-0.938h5.396c0.541,0,0.98,0.42,0.98,0.938V232.709z"/>
			<rect x="948.16" y="176.639" fill="#96989C" width="2.289" height="68.266"/>
		</g>
		<g>
			<rect x="930.172" y="255.6" fill="#151515" width="292.375" height="76.398"/>
			<rect x="948.158" y="255.6" fill="#3D3D45" width="47.748" height="76.398"/>
			<g>
				<path fill="#A3A3A3" d="M943.383,331.998c-6.975-9.99-7.473-12.096-7.813-16.894c-0.699-9.864-0.014-39.622-0.002-39.921
					c0.613-14.645,7.471-19.355,7.809-19.584h2.432c-0.074,0.051-8.279,6.057-8.279,19.604c-0.006,0.319-0.695,29.993-0.002,39.772
					c0.314,4.422,1.574,7.414,8.281,17.021H943.383z"/>
			</g>
			<rect x="952.654" y="255.6" fill="#232032" width="19.951" height="76.398"/>
			<rect x="950.447" y="255.6" fill="#6F6499" width="19.951" height="76.398"/>
			<rect x="948.16" y="255.6" fill="#FFFEFB" width="19.949" height="76.398"/>
			<path fill="#989598" d="M989.283,314.641c0,2.591-2.195,4.691-4.904,4.691h-6.869c-2.709,0-4.904-2.101-4.904-4.691v-39.873
				c0-2.59,2.195-4.69,4.904-4.69h6.869c2.709,0,4.904,2.101,4.904,4.69V314.641z"/>
			<g>
				<rect x="945.809" y="327.932" fill="#989598" width="276.738" height="3.127"/>
				<rect x="998.85" y="326.133" fill="#151515" width="2.699" height="4.926"/>
			</g>
			<g>
				<rect x="945.809" y="256.537" fill="#989598" width="276.738" height="3.127"/>
				<rect x="1001.199" y="256.537" fill="#151515" width="2.699" height="4.926"/>
			</g>
			<rect x="995.906" y="272.266" fill="#2B2E32" width="137.357" height="44.408"/>
			<path fill="none" stroke="#878787" stroke-width="3.5" stroke-miterlimit="10" d="M990.674,326.527
				c0,0,3.287-14.699,23.328-14.386l118.607-0.005"/>
			<linearGradient id="SVGID_22_" gradientUnits="userSpaceOnUse" x1="1133.2637" y1="294.4697" x2="1173.9805" y2="294.4697">
				<stop  offset="0" style="stop-color:#D70051"/>
				<stop  offset="0.1828" style="stop-color:#E95268"/>
				<stop  offset="0.8172" style="stop-color:#E95268"/>
				<stop  offset="1" style="stop-color:#D70051"/>
			</linearGradient>
			<rect x="1133.264" y="272.266" fill="url(#SVGID_22_)" width="40.717" height="44.408"/>
			<rect x="1203.414" y="259.665" fill="#2E3134" width="19.133" height="68.267"/>
			<rect x="1203.414" y="259.665" fill="#2E3134" width="19.133" height="68.267"/>
			<rect x="1203.414" y="259.665" fill="#52555B" width="2.127" height="68.267"/>
			<path fill="#939393" stroke="#060404" stroke-miterlimit="10" d="M1217.643,278.989c0,0.519-0.439,0.938-0.982,0.938h-5.396
				c-0.541,0-0.98-0.42-0.98-0.938v-5.786c0-0.518,0.439-0.938,0.98-0.938h5.396c0.543,0,0.982,0.42,0.982,0.938V278.989z"/>
			<path fill="#939393" stroke="#060404" stroke-miterlimit="10" d="M1217.643,315.736c0,0.518-0.439,0.938-0.982,0.938h-5.396
				c-0.541,0-0.98-0.42-0.98-0.938v-5.786c0-0.519,0.439-0.938,0.98-0.938h5.396c0.543,0,0.982,0.42,0.982,0.938V315.736z"/>
			<rect x="948.16" y="259.665" fill="#96989C" width="2.287" height="68.267"/>
		</g>
		<g>
			<rect x="930.172" y="338.625" fill="#151515" width="292.375" height="76.398"/>
			<rect x="948.158" y="338.625" fill="#3D3D45" width="47.748" height="76.398"/>
			<g>
				<path fill="#A3A3A3" d="M943.383,415.023c-6.975-9.989-7.473-12.094-7.813-16.893c-0.701-9.865-0.016-39.623-0.004-39.922
					c0.615-14.645,7.473-19.354,7.809-19.584h2.434c-0.074,0.051-8.279,6.057-8.279,19.605c-0.006,0.32-0.695,29.992-0.002,39.773
					c0.314,4.42,1.574,7.413,8.281,17.02H943.383z"/>
			</g>
			<rect x="952.654" y="338.625" fill="#232032" width="19.949" height="76.398"/>
			<rect x="950.447" y="338.625" fill="#6F6499" width="19.949" height="76.398"/>
			<rect x="948.158" y="338.625" fill="#FFFEFB" width="19.951" height="76.398"/>
			<path fill="#989598" d="M989.283,397.667c0,2.591-2.195,4.69-4.904,4.69h-6.869c-2.709,0-4.906-2.1-4.906-4.69v-39.873
				c0-2.591,2.197-4.691,4.906-4.691h6.869c2.709,0,4.904,2.101,4.904,4.691V397.667z"/>
			<g>
				<rect x="945.809" y="410.957" fill="#989598" width="276.738" height="3.127"/>
				<rect x="998.85" y="409.16" fill="#151515" width="2.697" height="4.925"/>
			</g>
			<g>
				<rect x="945.809" y="339.563" fill="#989598" width="276.738" height="3.127"/>
				<rect x="1001.199" y="339.563" fill="#151515" width="2.699" height="4.926"/>
			</g>
			<rect x="995.906" y="355.291" fill="#2B2E32" width="137.357" height="44.409"/>
			<path fill="none" stroke="#878787" stroke-width="3.5" stroke-miterlimit="10" d="M990.674,409.553
				c0,0,3.285-14.698,23.328-14.385l118.607-0.006"/>
			<linearGradient id="SVGID_23_" gradientUnits="userSpaceOnUse" x1="1133.2637" y1="377.4961" x2="1173.9805" y2="377.4961">
				<stop  offset="0" style="stop-color:#D70051"/>
				<stop  offset="0.1828" style="stop-color:#E95268"/>
				<stop  offset="0.8172" style="stop-color:#E95268"/>
				<stop  offset="1" style="stop-color:#D70051"/>
			</linearGradient>
			<rect x="1133.264" y="355.291" fill="url(#SVGID_23_)" width="40.717" height="44.409"/>
			<rect x="1203.414" y="342.691" fill="#2E3134" width="19.133" height="68.266"/>
			<rect x="1203.414" y="342.691" fill="#2E3134" width="19.133" height="68.266"/>
			<rect x="1203.414" y="342.691" fill="#52555B" width="2.127" height="68.266"/>
			<path fill="#939393" stroke="#060404" stroke-miterlimit="10" d="M1217.641,362.016c0,0.519-0.438,0.938-0.98,0.938h-5.396
				c-0.541,0-0.98-0.419-0.98-0.938v-5.785c0-0.52,0.439-0.939,0.98-0.939h5.396c0.543,0,0.98,0.42,0.98,0.939V362.016z"/>
			<path fill="#939393" stroke="#060404" stroke-miterlimit="10" d="M1217.641,398.762c0,0.518-0.438,0.938-0.98,0.938h-5.396
				c-0.541,0-0.98-0.421-0.98-0.938v-5.785c0-0.519,0.439-0.939,0.98-0.939h5.396c0.543,0,0.98,0.421,0.98,0.939V398.762z"/>
			<rect x="948.158" y="342.691" fill="#96989C" width="2.289" height="68.266"/>
		</g>
		<g>
			<rect x="930.17" y="421.65" fill="#151515" width="292.375" height="76.399"/>
			<rect x="948.158" y="421.65" fill="#3D3D45" width="47.748" height="76.399"/>
			<g>
				<path fill="#A3A3A3" d="M943.383,498.05c-6.977-9.989-7.473-12.095-7.813-16.894c-0.701-9.864-0.016-39.621-0.004-39.921
					c0.615-14.645,7.471-19.354,7.809-19.585h2.432c-0.074,0.052-8.277,6.059-8.277,19.605c-0.008,0.32-0.695,29.994-0.002,39.773
					c0.313,4.422,1.572,7.414,8.279,17.021H943.383z"/>
			</g>
			<rect x="952.654" y="421.65" fill="#232032" width="19.949" height="76.399"/>
			<rect x="950.447" y="421.65" fill="#6F6499" width="19.949" height="76.399"/>
			<rect x="948.158" y="421.65" fill="#FFFEFB" width="19.949" height="76.399"/>
			<path fill="#989598" d="M989.283,480.693c0,2.591-2.197,4.691-4.904,4.691h-6.869c-2.709,0-4.906-2.101-4.906-4.691V440.82
				c0-2.591,2.197-4.691,4.906-4.691h6.869c2.707,0,4.904,2.101,4.904,4.691V480.693z"/>
			<g>
				<rect x="945.807" y="493.983" fill="#989598" width="276.738" height="3.128"/>
				<rect x="998.85" y="492.186" fill="#151515" width="2.697" height="4.926"/>
			</g>
			<g>
				<rect x="945.807" y="422.59" fill="#989598" width="276.738" height="3.127"/>
				<rect x="1001.199" y="422.59" fill="#151515" width="2.699" height="4.926"/>
			</g>
			<rect x="995.906" y="438.318" fill="#2B2E32" width="137.357" height="44.408"/>
			<path fill="none" stroke="#878787" stroke-width="3.5" stroke-miterlimit="10" d="M990.674,492.58
				c0,0,3.285-14.699,23.328-14.387l118.607-0.005"/>
			<linearGradient id="SVGID_24_" gradientUnits="userSpaceOnUse" x1="1133.2637" y1="460.5225" x2="1173.9805" y2="460.5225">
				<stop  offset="0" style="stop-color:#D70051"/>
				<stop  offset="0.1828" style="stop-color:#E95268"/>
				<stop  offset="0.8172" style="stop-color:#E95268"/>
				<stop  offset="1" style="stop-color:#D70051"/>
			</linearGradient>
			<rect x="1133.264" y="438.318" fill="url(#SVGID_24_)" width="40.717" height="44.408"/>
			<rect x="1203.414" y="425.717" fill="#2E3134" width="19.131" height="68.267"/>
			<rect x="1203.414" y="425.717" fill="#2E3134" width="19.131" height="68.267"/>
			<rect x="1203.414" y="425.717" fill="#52555B" width="2.125" height="68.267"/>
			<path fill="#939393" stroke="#060404" stroke-miterlimit="10" d="M1217.641,445.041c0,0.52-0.439,0.939-0.98,0.939h-5.396
				c-0.541,0-0.98-0.42-0.98-0.939v-5.785c0-0.518,0.439-0.938,0.98-0.938h5.396c0.541,0,0.98,0.42,0.98,0.938V445.041z"/>
			<path fill="#939393" stroke="#060404" stroke-miterlimit="10" d="M1217.641,481.788c0,0.519-0.439,0.938-0.98,0.938h-5.396
				c-0.541,0-0.98-0.42-0.98-0.938v-5.786c0-0.518,0.439-0.938,0.98-0.938h5.396c0.541,0,0.98,0.42,0.98,0.938V481.788z"/>
			<rect x="948.158" y="425.717" fill="#96989C" width="2.289" height="68.267"/>
		</g>
	</g>
</g>
<g>
	<defs>
		<rect id="SVGID_25_" x="0.664" y="164.054" width="51.826" height="67.282"/>
	</defs>
	<clipPath id="SVGID_26_">
		<use xlink:href="#SVGID_25_"  overflow="visible"/>
	</clipPath>
	<g clip-path="url(#SVGID_26_)">
		<path fill="#555656" d="M52.49,194.589c0,15.462-12.509,27.997-27.939,27.997h-43.417c-15.43,0-27.939-12.535-27.939-27.997l0,0
			c0-15.462,12.509-27.997,27.939-27.997H24.55C39.981,166.593,52.49,179.127,52.49,194.589L52.49,194.589z"/>
		<path fill="#272828" d="M49.995,194.589c0,14.685-11.88,26.59-26.535,26.59h-41.235c-14.654,0-26.535-11.905-26.535-26.59l0,0
			c0-14.685,11.881-26.59,26.535-26.59h41.235C38.114,168,49.995,179.904,49.995,194.589L49.995,194.589z"/>
	</g>
</g>
<g>
	<ellipse fill="#515050" cx="22.823" cy="193.863" rx="14.775" ry="14.807"/>
	<g>
		<path fill="#AFAFAF" d="M33.015,193.864c0,5.635-4.563,10.202-10.192,10.202c-5.628,0-10.191-4.567-10.191-10.202
			c0-5.636,4.563-10.203,10.191-10.203C28.452,183.661,33.015,188.228,33.015,193.864"/>
		<ellipse fill="none" stroke="#949394" stroke-miterlimit="10" cx="22.823" cy="193.864" rx="10.191" ry="10.202"/>
		<path fill="#AFAFAF" d="M30.311,193.864c0,4.14-3.353,7.497-7.488,7.497c-4.135,0-7.487-3.357-7.487-7.497
			c0-4.142,3.352-7.496,7.487-7.496C26.958,186.368,30.311,189.722,30.311,193.864"/>
		<ellipse fill="none" stroke="#949394" stroke-miterlimit="10" cx="22.823" cy="193.864" rx="7.488" ry="7.497"/>
		<g>
			<g>
				<defs>
					<rect id="SVGID_27_" x="15.763" y="186.798" width="14.12" height="14.13"/>
				</defs>
				<clipPath id="SVGID_28_">
					<use xlink:href="#SVGID_27_"  overflow="visible"/>
				</clipPath>
				<path clip-path="url(#SVGID_28_)" fill="#BFBFBF" d="M29.88,193.864c0,3.902-3.16,7.064-7.058,7.064
					c-3.897,0-7.058-3.162-7.058-7.064c0-3.903,3.16-7.065,7.058-7.065C26.721,186.798,29.88,189.96,29.88,193.864"/>
				<path clip-path="url(#SVGID_28_)" fill="#C1C1C1" d="M29.714,193.864c0,3.81-3.085,6.898-6.891,6.898s-6.892-3.089-6.892-6.898
					c0-3.811,3.086-6.898,6.892-6.898S29.714,190.053,29.714,193.864"/>
				<path clip-path="url(#SVGID_28_)" fill="#C3C4C4" d="M29.548,193.864c0,3.719-3.011,6.731-6.726,6.731
					c-3.714,0-6.726-3.013-6.726-6.731s3.011-6.732,6.726-6.732C26.538,187.131,29.548,190.145,29.548,193.864"/>
				<path clip-path="url(#SVGID_28_)" fill="#C5C6C6" d="M29.382,193.864c0,3.626-2.937,6.567-6.56,6.567s-6.56-2.941-6.56-6.567
					c0-3.627,2.937-6.566,6.56-6.566S29.382,190.237,29.382,193.864"/>
				<path clip-path="url(#SVGID_28_)" fill="#C7C9C9" d="M29.217,193.864c0,3.534-2.864,6.399-6.394,6.399s-6.393-2.865-6.393-6.399
					c0-3.535,2.862-6.4,6.393-6.4S29.217,190.329,29.217,193.864"/>
				<path clip-path="url(#SVGID_28_)" fill="#CACBCB" d="M29.05,193.864c0,3.442-2.788,6.235-6.228,6.235s-6.228-2.793-6.228-6.235
					c0-3.443,2.788-6.236,6.228-6.236S29.05,190.42,29.05,193.864"/>
				<path clip-path="url(#SVGID_28_)" fill="#CCCECE" d="M28.885,193.864c0,3.351-2.714,6.068-6.062,6.068
					c-3.349,0-6.061-2.718-6.061-6.068c0-3.352,2.712-6.068,6.061-6.068C26.17,187.795,28.885,190.512,28.885,193.864"/>
				<path clip-path="url(#SVGID_28_)" fill="#CED0D0" d="M28.718,193.864c0,3.26-2.64,5.902-5.896,5.902s-5.896-2.643-5.896-5.902
					s2.64-5.903,5.896-5.903S28.718,190.604,28.718,193.864"/>
				<path clip-path="url(#SVGID_28_)" fill="#D1D3D3" d="M28.552,193.864c0,3.167-2.564,5.735-5.729,5.735
					c-3.164,0-5.729-2.568-5.729-5.735c0-3.168,2.565-5.735,5.729-5.735C25.988,188.128,28.552,190.696,28.552,193.864"/>
				<path clip-path="url(#SVGID_28_)" fill="#D3D5D5" d="M28.386,193.864c0,3.075-2.491,5.57-5.563,5.57
					c-3.072,0-5.563-2.495-5.563-5.57c0-3.076,2.491-5.57,5.563-5.57C25.896,188.293,28.386,190.788,28.386,193.864"/>
			</g>
		</g>
		<polygon fill="#5F5F5E" points="21.901,198.112 21.901,194.788 18.579,194.788 18.579,192.941 21.901,192.941 21.901,189.615 
			23.745,189.615 23.745,192.941 27.067,192.941 27.067,194.788 23.745,194.788 23.745,198.112 		"/>
		<path fill="#231815" d="M23.585,189.775v3.005v0.321h0.319h3.002v1.525h-3.002h-0.319v0.319v3.006h-1.524v-3.006v-0.319h-0.32
			h-3.002v-1.525h3.002h0.32v-0.321v-3.005H23.585z M23.904,189.456h-2.164v3.324H18.42v2.166h3.321v3.325h2.164v-3.325h3.321
			v-2.166h-3.321V189.456z"/>
	</g>
</g>
<g>
	<defs>
		<rect id="SVGID_29_" x="0.663" y="333.496" width="51.826" height="67.281"/>
	</defs>
	<clipPath id="SVGID_30_">
		<use xlink:href="#SVGID_29_"  overflow="visible"/>
	</clipPath>
	<g clip-path="url(#SVGID_30_)">
		<path fill="#555656" d="M52.489,364.031c0,15.462-12.509,27.996-27.938,27.996h-43.417c-15.431,0-27.94-12.534-27.94-27.996l0,0
			c0-15.462,12.509-27.996,27.94-27.996H24.55C39.98,336.035,52.489,348.569,52.489,364.031L52.489,364.031z"/>
		<path fill="#272828" d="M49.995,364.031c0,14.686-11.881,26.59-26.535,26.59h-41.235c-14.655,0-26.536-11.904-26.536-26.59l0,0
			c0-14.686,11.881-26.59,26.536-26.59h41.235C38.114,337.441,49.995,349.346,49.995,364.031L49.995,364.031z"/>
	</g>
</g>
<g>
	<ellipse fill="#515050" cx="22.822" cy="363.305" rx="14.775" ry="14.807"/>
	<g>
		<path fill="#AFAFAF" d="M33.014,363.307c0,5.634-4.563,10.201-10.191,10.201c-5.629,0-10.192-4.567-10.192-10.201
			c0-5.637,4.563-10.204,10.192-10.204C28.451,353.103,33.014,357.67,33.014,363.307"/>
		<path fill="none" stroke="#949394" stroke-miterlimit="10" d="M33.014,363.307c0,5.634-4.563,10.201-10.191,10.201
			c-5.629,0-10.192-4.567-10.192-10.201c0-5.637,4.563-10.204,10.192-10.204C28.451,353.103,33.014,357.67,33.014,363.307z"/>
		<path fill="#AFAFAF" d="M30.31,363.307c0,4.139-3.353,7.496-7.487,7.496c-4.136,0-7.488-3.357-7.488-7.496
			c0-4.143,3.353-7.497,7.488-7.497C26.958,355.81,30.31,359.164,30.31,363.307"/>
		<ellipse fill="none" stroke="#949394" stroke-miterlimit="10" cx="22.822" cy="363.307" rx="7.488" ry="7.496"/>
		<g>
			<g>
				<defs>
					<rect id="SVGID_31_" x="15.762" y="356.24" width="14.12" height="14.13"/>
				</defs>
				<clipPath id="SVGID_32_">
					<use xlink:href="#SVGID_31_"  overflow="visible"/>
				</clipPath>
				<path clip-path="url(#SVGID_32_)" fill="#BFBFBF" d="M29.88,363.307c0,3.901-3.16,7.063-7.057,7.063
					c-3.898,0-7.058-3.162-7.058-7.063c0-3.904,3.159-7.066,7.058-7.066C26.72,356.24,29.88,359.402,29.88,363.307"/>
				<path clip-path="url(#SVGID_32_)" fill="#C1C1C1" d="M29.714,363.307c0,3.809-3.086,6.897-6.891,6.897
					c-3.806,0-6.892-3.089-6.892-6.897c0-3.812,3.085-6.899,6.892-6.899C26.628,356.407,29.714,359.495,29.714,363.307"/>
				<path clip-path="url(#SVGID_32_)" fill="#C3C4C4" d="M29.548,363.307c0,3.718-3.011,6.73-6.725,6.73
					c-3.715,0-6.726-3.013-6.726-6.73c0-3.72,3.011-6.733,6.726-6.733C26.537,356.573,29.548,359.587,29.548,363.307"/>
				<path clip-path="url(#SVGID_32_)" fill="#C5C6C6" d="M29.382,363.307c0,3.625-2.937,6.566-6.56,6.566s-6.56-2.941-6.56-6.566
					c0-3.627,2.937-6.567,6.56-6.567S29.382,359.68,29.382,363.307"/>
				<path clip-path="url(#SVGID_32_)" fill="#C7C9C9" d="M29.216,363.307c0,3.533-2.863,6.398-6.394,6.398s-6.394-2.865-6.394-6.398
					c0-3.536,2.863-6.401,6.394-6.401S29.216,359.771,29.216,363.307"/>
				<path clip-path="url(#SVGID_32_)" fill="#CACBCB" d="M29.049,363.307c0,3.441-2.788,6.234-6.227,6.234
					c-3.44,0-6.228-2.793-6.228-6.234c0-3.444,2.787-6.237,6.228-6.237C26.261,357.069,29.049,359.862,29.049,363.307"/>
				<path clip-path="url(#SVGID_32_)" fill="#CCCECE" d="M28.884,363.307c0,3.35-2.715,6.067-6.062,6.067
					c-3.349,0-6.062-2.718-6.062-6.067c0-3.353,2.713-6.069,6.062-6.069C26.169,357.237,28.884,359.954,28.884,363.307"/>
				<path clip-path="url(#SVGID_32_)" fill="#CED0D0" d="M28.718,363.307c0,3.259-2.641,5.901-5.896,5.901
					c-3.256,0-5.896-2.643-5.896-5.901c0-3.261,2.64-5.904,5.896-5.904C26.078,357.402,28.718,360.046,28.718,363.307"/>
				<path clip-path="url(#SVGID_32_)" fill="#D1D3D3" d="M28.552,363.307c0,3.166-2.565,5.734-5.729,5.734s-5.729-2.568-5.729-5.734
					c0-3.168,2.565-5.736,5.729-5.736S28.552,360.139,28.552,363.307"/>
				<path clip-path="url(#SVGID_32_)" fill="#D3D5D5" d="M28.385,363.307c0,3.074-2.491,5.569-5.563,5.569
					c-3.073,0-5.564-2.495-5.564-5.569c0-3.077,2.491-5.571,5.564-5.571C25.894,357.735,28.385,360.229,28.385,363.307"/>
			</g>
		</g>
		<polygon fill="#5F5F5E" points="21.901,367.555 21.901,364.229 18.579,364.229 18.579,362.383 21.901,362.383 21.901,359.057 
			23.744,359.057 23.744,362.383 27.066,362.383 27.066,364.229 23.744,364.229 23.744,367.555 		"/>
		<path fill="#231815" d="M23.585,359.217v3.005v0.321h0.318h3.002v1.525h-3.002h-0.318v0.32v3.005h-1.524v-3.005v-0.32h-0.32
			h-3.002v-1.525h3.002h0.32v-0.321v-3.005H23.585z M23.904,358.897h-2.163v3.324h-3.321v2.167h3.321v3.324h2.163v-3.324h3.321
			v-2.167h-3.321V358.897z"/>
	</g>
</g>
<g>
	<defs>
		<rect id="SVGID_33_" x="1225.73" y="168.056" width="47.932" height="67.282"/>
	</defs>
	<clipPath id="SVGID_34_">
		<use xlink:href="#SVGID_33_"  overflow="visible"/>
	</clipPath>
	<g clip-path="url(#SVGID_34_)">
		<path fill="#555656" d="M1225.73,198.591c0,15.462,11.568,27.997,25.84,27.997h40.154c14.27,0,25.84-12.535,25.84-27.997l0,0
			c0-15.462-11.57-27.996-25.84-27.996h-40.154C1237.299,170.595,1225.73,183.129,1225.73,198.591L1225.73,198.591z"/>
		<path fill="#272828" d="M1228.037,198.591c0,14.685,10.988,26.59,24.541,26.59h38.137c13.555,0,24.541-11.905,24.541-26.59l0,0
			c0-14.685-10.986-26.59-24.541-26.59h-38.137C1239.025,172.001,1228.037,183.906,1228.037,198.591L1228.037,198.591z"/>
	</g>
</g>
<g>
	<ellipse fill="#515050" cx="1253.167" cy="197.865" rx="13.665" ry="14.807"/>
	<g>
		<path fill="#AFAFAF" d="M1243.742,197.866c0,5.634,4.221,10.202,9.426,10.202s9.426-4.567,9.426-10.202
			c0-5.636-4.221-10.204-9.426-10.204S1243.742,192.23,1243.742,197.866"/>
		<ellipse fill="none" stroke="#949394" stroke-miterlimit="10" cx="1253.168" cy="197.866" rx="9.426" ry="10.202"/>
		<path fill="#AFAFAF" d="M1246.242,197.866c0,4.139,3.102,7.497,6.926,7.497s6.926-3.357,6.926-7.497
			c0-4.142-3.102-7.497-6.926-7.497S1246.242,193.724,1246.242,197.866"/>
		<ellipse fill="none" stroke="#949394" stroke-miterlimit="10" cx="1253.168" cy="197.866" rx="6.926" ry="7.497"/>
		<g>
			<g>
				<defs>
					<rect id="SVGID_35_" x="1246.639" y="190.8" width="13.059" height="14.13"/>
				</defs>
				<clipPath id="SVGID_36_">
					<use xlink:href="#SVGID_35_"  overflow="visible"/>
				</clipPath>
				<path clip-path="url(#SVGID_36_)" fill="#BFBFBF" d="M1246.641,197.866c0,3.902,2.922,7.064,6.527,7.064
					s6.527-3.162,6.527-7.064c0-3.904-2.922-7.066-6.527-7.066S1246.641,193.962,1246.641,197.866"/>
				<path clip-path="url(#SVGID_36_)" fill="#C1C1C1" d="M1246.795,197.866c0,3.809,2.854,6.898,6.373,6.898
					s6.373-3.089,6.373-6.898c0-3.811-2.854-6.899-6.373-6.899S1246.795,194.055,1246.795,197.866"/>
				<path clip-path="url(#SVGID_36_)" fill="#C3C4C4" d="M1246.947,197.866c0,3.718,2.785,6.731,6.221,6.731
					c3.434,0,6.219-3.013,6.219-6.731c0-3.719-2.785-6.733-6.219-6.733C1249.732,191.133,1246.947,194.147,1246.947,197.866"/>
				<path clip-path="url(#SVGID_36_)" fill="#C5C6C6" d="M1247.1,197.866c0,3.625,2.717,6.567,6.068,6.567
					c3.35,0,6.066-2.941,6.066-6.567c0-3.627-2.717-6.567-6.066-6.567C1249.816,191.299,1247.1,194.239,1247.1,197.866"/>
				<path clip-path="url(#SVGID_36_)" fill="#C7C9C9" d="M1247.256,197.866c0,3.534,2.646,6.399,5.912,6.399
					s5.912-2.865,5.912-6.399c0-3.536-2.646-6.401-5.912-6.401S1247.256,194.331,1247.256,197.866"/>
				<path clip-path="url(#SVGID_36_)" fill="#CACBCB" d="M1247.408,197.866c0,3.442,2.578,6.235,5.76,6.235s5.76-2.793,5.76-6.235
					c0-3.444-2.578-6.237-5.76-6.237S1247.408,194.422,1247.408,197.866"/>
				<path clip-path="url(#SVGID_36_)" fill="#CCCECE" d="M1247.561,197.866c0,3.35,2.512,6.068,5.607,6.068s5.605-2.718,5.605-6.068
					c0-3.352-2.51-6.069-5.605-6.069S1247.561,194.514,1247.561,197.866"/>
				<path clip-path="url(#SVGID_36_)" fill="#CED0D0" d="M1247.715,197.866c0,3.259,2.441,5.902,5.453,5.902
					s5.453-2.643,5.453-5.902c0-3.26-2.441-5.904-5.453-5.904S1247.715,194.606,1247.715,197.866"/>
				<path clip-path="url(#SVGID_36_)" fill="#D1D3D3" d="M1247.867,197.866c0,3.167,2.373,5.735,5.301,5.735
					c2.926,0,5.297-2.568,5.297-5.735c0-3.168-2.371-5.736-5.297-5.736C1250.24,192.13,1247.867,194.698,1247.867,197.866"/>
				<path clip-path="url(#SVGID_36_)" fill="#D3D5D5" d="M1248.023,197.866c0,3.075,2.303,5.57,5.145,5.57s5.145-2.495,5.145-5.57
					c0-3.077-2.303-5.571-5.145-5.571S1248.023,194.79,1248.023,197.866"/>
			</g>
		</g>
		<polygon fill="#5F5F5E" points="1254.02,202.114 1254.02,198.79 1257.094,198.79 1257.094,196.943 1254.02,196.943 
			1254.02,193.617 1252.314,193.617 1252.314,196.943 1249.242,196.943 1249.242,198.79 1252.314,198.79 1252.314,202.114 		"/>
		<path fill="#231815" d="M1253.873,193.777v3.005v0.321h0.295h2.777v1.525h-2.777h-0.295v0.319v3.006h-1.41v-3.006v-0.319h-0.295
			h-2.777v-1.525h2.777h0.295v-0.321v-3.005H1253.873z M1252.168,196.782h-3.072v2.166h3.072v3.325h2v-3.325h3.072v-2.166h-3.072
			v-3.324h-2V196.782z"/>
	</g>
</g>
<g>
	<defs>
		<rect id="SVGID_37_" x="1225.732" y="337.498" width="47.93" height="67.281"/>
	</defs>
	<clipPath id="SVGID_38_">
		<use xlink:href="#SVGID_37_"  overflow="visible"/>
	</clipPath>
	<g clip-path="url(#SVGID_38_)">
		<path fill="#555656" d="M1225.732,368.033c0,15.462,11.566,27.996,25.838,27.996h40.154c14.271,0,25.84-12.534,25.84-27.996l0,0
			c0-15.462-11.568-27.996-25.84-27.996h-40.154C1237.299,340.037,1225.732,352.571,1225.732,368.033L1225.732,368.033z"/>
		<path fill="#272828" d="M1228.039,368.033c0,14.686,10.986,26.59,24.541,26.59h38.135c13.555,0,24.541-11.904,24.541-26.59l0,0
			c0-14.686-10.986-26.59-24.541-26.59h-38.135C1239.025,341.443,1228.039,353.348,1228.039,368.033L1228.039,368.033z"/>
	</g>
</g>
<g>
	<ellipse fill="#515050" cx="1253.167" cy="367.307" rx="13.665" ry="14.807"/>
	<g>
		<path fill="#AFAFAF" d="M1243.742,367.308c0,5.635,4.221,10.202,9.426,10.202s9.426-4.567,9.426-10.202
			c0-5.636-4.221-10.203-9.426-10.203S1243.742,361.672,1243.742,367.308"/>
		<ellipse fill="none" stroke="#949394" stroke-miterlimit="10" cx="1253.168" cy="367.308" rx="9.426" ry="10.202"/>
		<path fill="#AFAFAF" d="M1246.242,367.308c0,4.14,3.102,7.497,6.926,7.497s6.926-3.357,6.926-7.497
			c0-4.142-3.102-7.496-6.926-7.496S1246.242,363.166,1246.242,367.308"/>
		<ellipse fill="none" stroke="#949394" stroke-miterlimit="10" cx="1253.168" cy="367.308" rx="6.926" ry="7.497"/>
		<g>
			<g>
				<defs>
					<rect id="SVGID_39_" x="1246.639" y="360.242" width="13.059" height="14.13"/>
				</defs>
				<clipPath id="SVGID_40_">
					<use xlink:href="#SVGID_39_"  overflow="visible"/>
				</clipPath>
				<path clip-path="url(#SVGID_40_)" fill="#BFBFBF" d="M1246.641,367.308c0,3.902,2.922,7.064,6.527,7.064
					s6.527-3.162,6.527-7.064c0-3.903-2.922-7.065-6.527-7.065S1246.641,363.404,1246.641,367.308"/>
				<path clip-path="url(#SVGID_40_)" fill="#C1C1C1" d="M1246.795,367.308c0,3.81,2.854,6.898,6.373,6.898s6.373-3.089,6.373-6.898
					c0-3.811-2.854-6.898-6.373-6.898S1246.795,363.497,1246.795,367.308"/>
				<path clip-path="url(#SVGID_40_)" fill="#C3C4C4" d="M1246.949,367.308c0,3.719,2.783,6.731,6.219,6.731
					c3.434,0,6.221-3.013,6.221-6.731s-2.787-6.732-6.221-6.732C1249.732,360.575,1246.949,363.589,1246.949,367.308"/>
				<path clip-path="url(#SVGID_40_)" fill="#C5C6C6" d="M1247.102,367.308c0,3.626,2.715,6.567,6.066,6.567
					c3.35,0,6.066-2.941,6.066-6.567s-2.717-6.566-6.066-6.566C1249.816,360.741,1247.102,363.682,1247.102,367.308"/>
				<path clip-path="url(#SVGID_40_)" fill="#C7C9C9" d="M1247.256,367.308c0,3.534,2.646,6.399,5.912,6.399
					s5.914-2.865,5.914-6.399c0-3.535-2.648-6.4-5.914-6.4S1247.256,363.772,1247.256,367.308"/>
				<path clip-path="url(#SVGID_40_)" fill="#CACBCB" d="M1247.408,367.308c0,3.442,2.578,6.235,5.76,6.235s5.76-2.793,5.76-6.235
					c0-3.443-2.578-6.236-5.76-6.236S1247.408,363.864,1247.408,367.308"/>
				<path clip-path="url(#SVGID_40_)" fill="#CCCECE" d="M1247.563,367.308c0,3.351,2.51,6.068,5.605,6.068s5.605-2.718,5.605-6.068
					c0-3.352-2.51-6.068-5.605-6.068S1247.563,363.956,1247.563,367.308"/>
				<path clip-path="url(#SVGID_40_)" fill="#CED0D0" d="M1247.715,367.308c0,3.26,2.441,5.902,5.453,5.902s5.453-2.643,5.453-5.902
					s-2.441-5.903-5.453-5.903S1247.715,364.048,1247.715,367.308"/>
				<path clip-path="url(#SVGID_40_)" fill="#D1D3D3" d="M1247.869,367.308c0,3.167,2.371,5.735,5.299,5.735
					c2.926,0,5.297-2.568,5.297-5.735s-2.371-5.735-5.297-5.735C1250.24,361.572,1247.869,364.141,1247.869,367.308"/>
				<path clip-path="url(#SVGID_40_)" fill="#D3D5D5" d="M1248.023,367.308c0,3.075,2.303,5.57,5.145,5.57s5.146-2.495,5.146-5.57
					c0-3.076-2.305-5.57-5.146-5.57S1248.023,364.231,1248.023,367.308"/>
			</g>
		</g>
		<polygon fill="#5F5F5E" points="1254.021,371.557 1254.021,368.231 1257.094,368.231 1257.094,366.385 1254.021,366.385 
			1254.021,363.059 1252.314,363.059 1252.314,366.385 1249.242,366.385 1249.242,368.231 1252.314,368.231 1252.314,371.557 		"/>
		<path fill="#231815" d="M1253.873,363.219v3.006v0.32h0.295h2.777v1.525h-2.777h-0.295v0.32v3.005h-1.41v-3.005v-0.32h-0.295
			h-2.777v-1.525h2.777h0.295v-0.32v-3.006H1253.873z M1252.168,366.225h-3.072v2.166h3.072v3.324h2v-3.324h3.072v-2.166h-3.072
			v-3.325h-2V366.225z"/>
	</g>
</g>
<rect x="1222.545" y="0.001" fill="#040000" width="3.188" height="504.568"/>
<rect x="47.711" y="6.313" fill="#040000" width="3.185" height="491.529"/>
</svg>
