<?xml version="1.0" encoding="utf-8"?>
<!-- Generator: Adobe Illustrator 16.0.0, SVG Export Plug-In . SVG Version: 6.00 Build 0)  -->
<!DOCTYPE svg PUBLIC "-//W3C//DTD SVG 1.1//EN" "http://www.w3.org/Graphics/SVG/1.1/DTD/svg11.dtd">
<svg version="1.1" id="图层_1" xmlns="http://www.w3.org/2000/svg" xmlns:xlink="http://www.w3.org/1999/xlink" x="0px" y="0px"
	 width="1275.6px" height="252.3px" viewBox="0 0 1275.6 252.3" enable-background="new 0 0 1275.6 252.3" xml:space="preserve">
<polygon fill="#303030" points="0,0 0,126.15 0,252.3 1275.6,252.3 1275.6,126.15 1275.6,0 "/>
<rect x="64.138" y="12.083" width="1147.322" height="228.134"/>
<circle fill="#B1EA2C" stroke="#050505" stroke-miterlimit="10" cx="282.423" cy="50.469" r="7.189"/>
<circle fill="#919191" stroke="#050505" stroke-miterlimit="10" cx="251.556" cy="50.469" r="7.189"/>
<circle fill="#BCFF7B" stroke="#5F9B12" stroke-width="2" stroke-miterlimit="10" cx="178.881" cy="43.808" r="10.703"/>
<circle fill="#777777" stroke="#3F3F3F" stroke-width="2" stroke-miterlimit="10" cx="211.808" cy="43.808" r="10.703"/>
<path fill="#303030" stroke="#161616" stroke-miterlimit="10" d="M1177.289,61.735c0,0.664-0.537,1.203-1.203,1.203H835.907
	c-0.664,0-1.203-0.539-1.203-1.203V24.828c0-0.666,0.539-1.205,1.203-1.205h340.179c0.666,0,1.203,0.539,1.203,1.205V61.735z"/>
<g>
	<path fill="#565656" d="M1004.428,28.693h-10.262l-0.336,1.768h2.42h0.486h4.424c0,0,0.297,5.021-2.674,5.65h-2.946l0.501-4.533
		h-2.439l-0.758,6.023h5.792C1005.469,36.504,1004.428,28.693,1004.428,28.693z"/>
	<path fill="#565656" d="M1025.968,28.693h-10.263l-0.338,1.768h2.42h0.489h4.421c0,0,0.297,5.021-2.671,5.65h-2.947l0.501-4.533
		h-2.438l-0.763,6.023h5.798C1027.006,36.504,1025.968,28.693,1025.968,28.693z"/>
	<polygon fill="#565656" points="1006.801,28.742 1008.08,37.651 1009.787,37.651 1015.576,28.742 1012.774,28.742 1010.399,32.824 
		1009.178,32.891 1008.386,28.742 	"/>
	<rect x="1002.962" y="28.742" fill="#565656" width="4.093" height="1.762"/>
</g>
<path fill="#565656" d="M1008.201,41.095c-9.219,0-16.691,1.1-16.691,2.455c0,1.354,7.473,2.451,16.691,2.451
	c9.215,0,16.688-1.098,16.688-2.451C1024.889,42.194,1017.416,41.095,1008.201,41.095z M1008.673,43.958
	c-1.735,0-3.144-0.309-3.144-0.688c0-0.379,1.408-0.689,3.144-0.689c1.732,0,3.139,0.31,3.139,0.689
	C1011.812,43.649,1010.405,43.958,1008.673,43.958z"/>
<path fill="#565656" d="M991.563,46.427v7.192h33.274v-7.192H991.563z M999.275,52.521h-0.32h-0.321v-3.885h-0.004l-1.378,3.885
	h-0.318h-0.319l-1.384-3.873h-0.002v3.873h-0.32h-0.322v-4.59h0.477h0.478l1.397,3.905l1.387-3.905h0.476h0.476V52.521z
	 M1006.425,50.835c0,0.568-0.17,1.01-0.511,1.33c-0.34,0.32-0.81,0.479-1.414,0.479c-0.627,0-1.107-0.154-1.435-0.459
	c-0.327-0.309-0.491-0.758-0.491-1.35v-2.905h0.329h0.333v2.86c0,0.426,0.107,0.75,0.322,0.973c0.215,0.221,0.53,0.33,0.941,0.33
	c0.412,0,0.726-0.109,0.939-0.33c0.213-0.223,0.322-0.547,0.322-0.973v-2.86h0.329h0.334V50.835z M1012.49,52.246v0.275h-3.14v-4.59
	h0.33h0.331v4.04h2.479V52.246z M1018.272,48.204v0.276h-1.653v4.041h-0.328h-0.333V48.48h-1.655v-0.276v-0.273h3.97V48.204z
	 M1021.811,52.521h-0.327h-0.334v-4.59h0.33h0.331V52.521z"/>
<g>
	<path fill="#565656" d="M995.667,54.799h0.202h1.188c0.318,0,0.548,0.068,0.69,0.209c0.14,0.134,0.187,0.335,0.14,0.603
		c-0.046,0.262-0.167,0.465-0.366,0.611c-0.05,0.04-0.104,0.072-0.159,0.1l0.063,0.033c0.165,0.104,0.228,0.277,0.19,0.525
		l-0.08,0.545c-0.014,0.088-0.012,0.154,0,0.193c0.014,0.039,0.047,0.072,0.102,0.102l-0.012,0.064h-0.497
		c-0.008-0.025-0.008-0.088,0-0.192c0.006-0.104,0.02-0.217,0.035-0.343l0.033-0.237c0.027-0.183,0.006-0.318-0.066-0.394
		c-0.072-0.083-0.205-0.122-0.396-0.122h-0.961l-0.226,1.29h-0.202h-0.203L995.667,54.799z M995.834,56.148h1
		c0.188,0,0.332-0.041,0.432-0.124c0.102-0.082,0.168-0.213,0.199-0.388c0.031-0.174,0.006-0.299-0.07-0.379
		c-0.076-0.079-0.215-0.12-0.412-0.12h-0.971L995.834,56.148z"/>
	<path fill="#565656" d="M998.139,57.787l0.528-2.988h2.184l-0.031,0.179l-0.031,0.18h-1.78l-0.159,0.912h1.624l-0.031,0.178
		l-0.033,0.18h-1.624l-0.176,1.001h1.8l-0.031,0.18l-0.031,0.178H998.139z"/>
	<path fill="#565656" d="M1003.586,56.688c-0.115,0.367-0.309,0.658-0.575,0.867c-0.269,0.209-0.579,0.313-0.932,0.313
		c-0.413,0-0.718-0.141-0.911-0.426c-0.194-0.283-0.249-0.664-0.163-1.146c0.083-0.482,0.278-0.863,0.583-1.15
		c0.306-0.283,0.67-0.426,1.098-0.426c0.339,0,0.598,0.086,0.785,0.26c0.186,0.174,0.273,0.414,0.266,0.717h-0.391
		c-0.004-0.198-0.068-0.352-0.194-0.459c-0.127-0.105-0.306-0.16-0.534-0.16c-0.299,0-0.558,0.109-0.772,0.33
		c-0.218,0.221-0.36,0.518-0.425,0.889c-0.07,0.395-0.041,0.698,0.088,0.907c0.127,0.205,0.351,0.311,0.661,0.311
		c0.233,0,0.437-0.073,0.616-0.215c0.179-0.143,0.315-0.348,0.413-0.609H1003.586z"/>
	<path fill="#565656" d="M1004.192,57.433c-0.219-0.289-0.286-0.667-0.203-1.139c0.084-0.473,0.285-0.854,0.604-1.14
		c0.318-0.292,0.696-0.436,1.131-0.436s0.761,0.145,0.977,0.436c0.217,0.287,0.283,0.667,0.201,1.14
		c-0.084,0.471-0.285,0.85-0.603,1.139c-0.319,0.292-0.696,0.434-1.131,0.434C1004.732,57.867,1004.408,57.725,1004.192,57.433z
		 M1006.043,57.175c0.231-0.224,0.38-0.516,0.442-0.881c0.063-0.365,0.021-0.658-0.129-0.882c-0.152-0.225-0.386-0.336-0.696-0.336
		c-0.31,0-0.581,0.111-0.813,0.336c-0.229,0.225-0.379,0.517-0.441,0.882c-0.063,0.365-0.021,0.657,0.131,0.881
		c0.15,0.223,0.383,0.336,0.694,0.336S1005.813,57.398,1006.043,57.175z"/>
	<path fill="#565656" d="M1007.695,54.799h0.199h1.189c0.317,0,0.548,0.068,0.688,0.209c0.141,0.134,0.188,0.335,0.141,0.603
		c-0.045,0.262-0.168,0.465-0.364,0.611c-0.051,0.04-0.104,0.072-0.158,0.1l0.063,0.033c0.162,0.104,0.225,0.277,0.188,0.525
		l-0.078,0.545c-0.014,0.088-0.014,0.154,0,0.193s0.047,0.072,0.1,0.102l-0.012,0.064h-0.499c-0.006-0.025-0.006-0.088,0.004-0.192
		c0.006-0.104,0.018-0.217,0.035-0.343l0.031-0.237c0.027-0.183,0.006-0.318-0.064-0.394c-0.072-0.083-0.205-0.122-0.398-0.122
		h-0.959l-0.229,1.29h-0.198h-0.203L1007.695,54.799z M1007.859,56.148h1.002c0.186,0,0.33-0.041,0.433-0.124
		c0.102-0.082,0.168-0.213,0.199-0.388c0.029-0.174,0.006-0.299-0.072-0.379c-0.076-0.079-0.216-0.12-0.413-0.12h-0.971
		L1007.859,56.148z"/>
	<path fill="#565656" d="M1010.673,54.799h0.2h1.025c0.379,0,0.659,0.134,0.835,0.406c0.178,0.271,0.227,0.633,0.145,1.089
		c-0.08,0.457-0.258,0.819-0.538,1.088c-0.275,0.27-0.61,0.405-1,0.405h-0.994h-0.201L1010.673,54.799z M1010.61,57.441h0.739
		c0.292,0,0.531-0.099,0.725-0.298c0.191-0.199,0.322-0.483,0.385-0.848c0.067-0.365,0.039-0.65-0.076-0.85
		c-0.117-0.201-0.314-0.301-0.593-0.301h-0.774L1010.61,57.441z"/>
	<path fill="#565656" d="M1013.663,57.787l-0.257-2.988h0.22h0.219l0.115,2.363c0.004,0.039,0.006,0.076,0.006,0.111
		c-0.002,0.038-0.002,0.063-0.006,0.077l0,0c0.004-0.018,0.012-0.045,0.025-0.08c0.014-0.038,0.027-0.072,0.042-0.107l1.05-2.363
		h0.226h0.229l0.214,2.35c0.004,0.035,0.006,0.074,0.008,0.113c0,0.037-0.002,0.064-0.004,0.082c0-0.014,0.008-0.041,0.021-0.078
		c0.014-0.042,0.027-0.076,0.045-0.117l0.952-2.35h0.218h0.217l-1.309,2.988h-0.22h-0.217l-0.24-2.311
		c-0.004-0.042-0.006-0.081-0.008-0.117c-0.002-0.037,0-0.065,0.002-0.079l0,0c-0.004,0.018-0.012,0.045-0.025,0.084
		c-0.013,0.035-0.028,0.072-0.046,0.111l-1.042,2.311h-0.216H1013.663z"/>
	<path fill="#565656" d="M1017.635,54.799h0.201h1.19c0.316,0,0.544,0.068,0.687,0.209c0.141,0.134,0.188,0.335,0.141,0.603
		c-0.045,0.262-0.168,0.465-0.364,0.611c-0.051,0.04-0.104,0.072-0.158,0.1l0.061,0.033c0.165,0.104,0.228,0.277,0.188,0.525
		l-0.077,0.545c-0.014,0.088-0.014,0.154,0,0.193c0.013,0.039,0.046,0.072,0.099,0.102l-0.012,0.064h-0.497
		c-0.006-0.025-0.006-0.088,0.004-0.192c0.006-0.104,0.018-0.217,0.035-0.343l0.031-0.237c0.027-0.183,0.006-0.318-0.066-0.394
		c-0.07-0.083-0.204-0.122-0.397-0.122h-0.961l-0.227,1.29h-0.2h-0.203L1017.635,54.799z M1017.803,56.148h0.998
		c0.188,0,0.333-0.041,0.433-0.124c0.104-0.082,0.168-0.213,0.199-0.388c0.031-0.174,0.008-0.299-0.07-0.379
		c-0.076-0.079-0.215-0.12-0.412-0.12h-0.969L1017.803,56.148z"/>
</g>
<path fill="#565656" d="M884.542,31.092h-27.104c-0.938,0-1.695,0.756-1.695,1.694v16.235c0,0.934,0.758,1.693,1.695,1.693h27.104
	c0.936,0,1.696-0.759,1.696-1.693V32.786C886.238,31.848,885.478,31.092,884.542,31.092z M868.452,40.407
	c0,0-0.352,1.166-1.445,1.535l1.199,4.077h-1.766l-1.27-4.077h-1.64c0,0-0.177,0.073-0.354,0.301v3.775h-1.693v-3.775
	c0,0,0.141-1.166,1.182-1.746h3.848c0,0,0.758-1.764,0-2.965h-4.854v-1.746h5.085c0,0,1.269,0.316,1.708,1.764V40.407z
	 M880.497,44.608c-0.451,1.166-1.324,1.244-1.324,1.244h-2.408c-0.926-0.238-1.164-1.164-1.164-1.164
	c-0.531,1.059-1.349,1.164-1.349,1.164h-2.437c-0.98-0.371-1.244-1.59-1.244-1.59v-8.364h1.164v8.261h3.096v-8.261h1.324v8.261
	h3.045v-8.261h1.297V44.608z"/>
<g>
	<path fill="#565656" d="M853.456,53.281h0.242h1.236c0.457,0,0.818,0.137,1.09,0.411c0.27,0.273,0.404,0.64,0.404,1.104
		c0,0.459-0.139,0.826-0.414,1.098c-0.277,0.273-0.65,0.41-1.118,0.41h-1.198h-0.242V53.281z M853.944,55.955h0.889
		c0.35,0,0.619-0.102,0.809-0.303c0.191-0.203,0.285-0.488,0.285-0.857c0-0.373-0.09-0.659-0.273-0.86
		c-0.184-0.203-0.441-0.305-0.778-0.305h-0.931V55.955z"/>
	<path fill="#565656" d="M856.769,53.281h0.271h0.272l1.029,2.584h0.002l1.027-2.584h0.27h0.27l-1.309,3.022h-0.262h-0.261
		L856.769,53.281z"/>
	<path fill="#565656" d="M860.415,53.281h0.242h1.236c0.457,0,0.82,0.137,1.09,0.411c0.27,0.273,0.404,0.64,0.404,1.104
		c0,0.459-0.139,0.826-0.414,1.098c-0.277,0.273-0.65,0.41-1.119,0.41h-1.197h-0.242V53.281z M860.903,55.955h0.889
		c0.35,0,0.62-0.102,0.811-0.303c0.189-0.203,0.283-0.488,0.283-0.857c0-0.373-0.09-0.659-0.273-0.86
		c-0.183-0.203-0.441-0.305-0.777-0.305h-0.932V55.955z"/>
	<path fill="#565656" d="M864.907,55.398h-1.084v-0.311h1.084v-0.91h0.369v0.91h1.084v0.311h-1.084v0.911h-0.369V55.398z"/>
	<path fill="#565656" d="M866.995,53.281h0.24h1.432c0.381,0,0.672,0.07,0.871,0.209c0.199,0.138,0.297,0.343,0.297,0.611
		c0,0.266-0.102,0.473-0.309,0.621c-0.053,0.037-0.109,0.069-0.17,0.098l0.082,0.036c0.217,0.104,0.332,0.283,0.34,0.531l0.02,0.551
		c0.004,0.089,0.018,0.156,0.041,0.195c0.025,0.041,0.073,0.075,0.144,0.104v0.065h-0.601c-0.012-0.024-0.025-0.09-0.039-0.193
		s-0.023-0.219-0.029-0.348l-0.01-0.236c-0.008-0.19-0.061-0.325-0.164-0.403c-0.104-0.082-0.271-0.121-0.506-0.121h-1.154v1.303
		h-0.24h-0.244V53.281z M867.479,54.646h1.205c0.226,0,0.389-0.043,0.492-0.125c0.107-0.082,0.158-0.213,0.158-0.395
		c0-0.173-0.055-0.301-0.164-0.38c-0.111-0.081-0.284-0.122-0.523-0.122h-1.168V54.646z"/>
	<path fill="#565656" d="M871.563,56.363c-0.371,0-0.662-0.098-0.873-0.297c-0.213-0.195-0.318-0.471-0.318-0.818
		c0-0.367,0.113-0.664,0.338-0.88c0.223-0.221,0.523-0.331,0.902-0.331c0.342,0,0.62,0.107,0.83,0.32
		c0.209,0.215,0.314,0.497,0.314,0.846l-0.004,0.128h-1.912c0.018,0.221,0.076,0.387,0.179,0.502
		c0.124,0.14,0.319,0.209,0.585,0.209c0.17,0,0.316-0.039,0.442-0.12c0.125-0.078,0.2-0.179,0.229-0.302h0.434
		c-0.064,0.24-0.195,0.424-0.391,0.552C872.125,56.299,871.872,56.363,871.563,56.363z M872.298,55.035
		c-0.012-0.203-0.071-0.363-0.179-0.477c-0.12-0.125-0.296-0.191-0.524-0.191c-0.232,0-0.418,0.074-0.556,0.221
		c-0.108,0.113-0.175,0.262-0.198,0.447H872.298z"/>
	<path fill="#565656" d="M873.979,56.303l-0.939-3.022h0.26h0.266l0.642,2.389c0.012,0.039,0.02,0.078,0.029,0.113
		c0.006,0.037,0.01,0.063,0.01,0.078h-0.002c0-0.017,0.006-0.045,0.014-0.082c0.008-0.037,0.018-0.073,0.029-0.109l0.761-2.389
		h0.274h0.272l0.757,2.377c0.012,0.036,0.023,0.077,0.031,0.111c0.01,0.041,0.012,0.069,0.012,0.086l0,0
		c0-0.015,0.004-0.041,0.012-0.082c0.008-0.037,0.018-0.076,0.027-0.115l0.647-2.377h0.262h0.262l-0.939,3.022h-0.261h-0.263
		l-0.78-2.336c-0.014-0.041-0.025-0.08-0.035-0.119c-0.01-0.036-0.014-0.065-0.014-0.079h-0.002c0,0.016-0.004,0.045-0.012,0.084
		c-0.008,0.037-0.018,0.074-0.031,0.113l-0.763,2.336h-0.263H873.979z"/>
	<path fill="#565656" d="M878.073,54.103h0.207h0.212v0.377c0.037-0.061,0.078-0.113,0.119-0.16c0.167-0.19,0.372-0.284,0.614-0.284
		c0.041,0,0.082,0.006,0.125,0.022v0.375h-0.092c-0.238,0-0.42,0.058-0.55,0.179c-0.129,0.12-0.195,0.292-0.195,0.514v1.176h-0.222
		h-0.219V54.103z"/>
	<path fill="#565656" d="M879.689,53.281h0.45v0.42h-0.45V53.281z M879.697,54.103h0.218h0.221v2.2h-0.221h-0.218V54.103z"/>
	<path fill="#565656" d="M881.756,56.301c-0.151,0.02-0.261,0.029-0.329,0.029c-0.193,0-0.328-0.037-0.406-0.107
		c-0.08-0.072-0.12-0.193-0.12-0.367v-1.449h-0.362v-0.303h0.362v-0.617h0.44v0.617h0.415v0.303h-0.415v1.449
		c0,0.051,0.023,0.088,0.07,0.117c0.047,0.028,0.107,0.043,0.189,0.043h0.155V56.301z"/>
	<path fill="#565656" d="M882.875,56.363c-0.257,0-0.46-0.057-0.608-0.174c-0.15-0.113-0.225-0.27-0.225-0.466
		c0-0.197,0.068-0.354,0.211-0.471c0.141-0.115,0.346-0.189,0.618-0.217l0.599-0.063c0.049-0.006,0.094-0.013,0.139-0.023
		c0.057-0.012,0.102-0.036,0.133-0.075c0.031-0.035,0.047-0.082,0.047-0.138v-0.018c0-0.119-0.053-0.211-0.16-0.277
		c-0.105-0.066-0.252-0.1-0.441-0.1c-0.181,0-0.321,0.038-0.425,0.105c-0.103,0.07-0.163,0.178-0.185,0.316h-0.406
		c0.02-0.242,0.121-0.422,0.303-0.544c0.18-0.122,0.44-0.182,0.777-0.182c0.318,0,0.56,0.059,0.728,0.174
		c0.165,0.117,0.249,0.285,0.249,0.507v1.209c0,0.037,0.014,0.067,0.039,0.088c0.027,0.024,0.064,0.036,0.109,0.036
		c0.014,0,0.033-0.002,0.059-0.006c0.025-0.002,0.053-0.006,0.082-0.01v0.266c-0.043,0.014-0.088,0.023-0.135,0.033
		c-0.049,0.008-0.088,0.014-0.119,0.014c-0.168,0-0.288-0.039-0.362-0.118c-0.049-0.049-0.084-0.123-0.106-0.215
		c-0.031,0.034-0.068,0.066-0.113,0.098C883.462,56.279,883.192,56.363,882.875,56.363z M883.788,55.432v-0.239
		c-0.082,0.033-0.174,0.055-0.273,0.069l-0.402,0.049c-0.212,0.023-0.366,0.066-0.465,0.125c-0.098,0.057-0.146,0.137-0.146,0.237
		c0,0.123,0.039,0.219,0.119,0.283c0.08,0.07,0.194,0.102,0.341,0.102c0.231,0,0.427-0.053,0.585-0.158
		c0.109-0.075,0.184-0.156,0.219-0.252c0.008-0.015,0.012-0.045,0.016-0.084C883.784,55.523,883.788,55.48,883.788,55.432z"/>
	<path fill="#565656" d="M884.938,53.281h0.221h0.22v1.107c0.191-0.236,0.441-0.354,0.745-0.352c0.343,0,0.614,0.1,0.813,0.299
		c0.202,0.198,0.302,0.465,0.302,0.803c0,0.381-0.102,0.682-0.304,0.899c-0.201,0.217-0.48,0.326-0.837,0.326
		c-0.298,0-0.53-0.096-0.706-0.288l-0.041-0.045v0.272h-0.413V53.281z M886.076,56.041c0.228,0,0.401-0.071,0.522-0.217
		c0.119-0.146,0.178-0.359,0.178-0.639c0-0.277-0.057-0.48-0.17-0.611c-0.115-0.133-0.291-0.199-0.528-0.199
		c-0.243,0-0.421,0.074-0.534,0.224c-0.109,0.149-0.166,0.385-0.166,0.709c0,0.234,0.059,0.414,0.182,0.541
		C885.679,55.978,885.851,56.041,886.076,56.041z"/>
	<path fill="#565656" d="M887.767,53.281h0.221h0.222v3.022h-0.222h-0.221V53.281z"/>
	<path fill="#565656" d="M889.937,56.363c-0.368,0-0.661-0.098-0.873-0.297c-0.213-0.195-0.318-0.471-0.318-0.818
		c0-0.367,0.113-0.664,0.338-0.88c0.224-0.221,0.525-0.331,0.904-0.331c0.341,0,0.617,0.107,0.828,0.32
		c0.209,0.215,0.316,0.497,0.316,0.846l-0.006,0.128h-1.911c0.018,0.221,0.078,0.387,0.178,0.502
		c0.125,0.14,0.319,0.209,0.587,0.209c0.168,0,0.315-0.039,0.44-0.12c0.125-0.078,0.2-0.179,0.229-0.302h0.436
		c-0.066,0.24-0.195,0.424-0.391,0.552C890.498,56.299,890.246,56.363,889.937,56.363z M890.671,55.035
		c-0.012-0.203-0.072-0.363-0.179-0.477c-0.119-0.125-0.294-0.191-0.524-0.191c-0.232,0-0.417,0.074-0.554,0.221
		c-0.109,0.113-0.176,0.262-0.199,0.447H890.671z"/>
</g>
<path fill="#565656" stroke="#000000" stroke-miterlimit="10" d="M1087.547,50.72c0,0.762-0.618,1.381-1.382,1.381h-29.344
	c-0.764,0-1.381-0.619-1.381-1.381v-9.436c0-0.764,0.617-1.381,1.381-1.381h29.344c0.764,0,1.382,0.617,1.382,1.381V50.72z"/>
</svg>
