<?xml version="1.0" encoding="utf-8"?>
<!-- Generator: Adobe Illustrator 16.0.0, SVG Export Plug-In . SVG Version: 6.00 Build 0)  -->
<!DOCTYPE svg PUBLIC "-//W3C//DTD SVG 1.1//EN" "http://www.w3.org/Graphics/SVG/1.1/DTD/svg11.dtd">
<svg version="1.1" id="图层_1" xmlns="http://www.w3.org/2000/svg" xmlns:xlink="http://www.w3.org/1999/xlink" x="0px" y="0px"
	 width="1275.59px" height="252.28px" viewBox="0 0 1275.59 252.28" enable-background="new 0 0 1275.59 252.28"
	 xml:space="preserve">
<linearGradient id="SVGID_1_" gradientUnits="userSpaceOnUse" x1="637.7964" y1="252.4238" x2="637.7964" y2="0.1416">
	<stop  offset="0" style="stop-color:#919292"/>
	<stop  offset="0.0718" style="stop-color:#F7F7F7"/>
	<stop  offset="0.8473" style="stop-color:#EEEEEF"/>
	<stop  offset="1" style="stop-color:#919292"/>
</linearGradient>
<rect y="0.141" fill="url(#SVGID_1_)" width="1275.592" height="252.283"/>
<linearGradient id="SVGID_2_" gradientUnits="userSpaceOnUse" x1="637.7954" y1="26.605" x2="637.7954" y2="23.9712">
	<stop  offset="0.0968" style="stop-color:#919292"/>
	<stop  offset="0.2546" style="stop-color:#F7F7F7"/>
	<stop  offset="0.7237" style="stop-color:#EEEEEF"/>
	<stop  offset="1" style="stop-color:#919292"/>
</linearGradient>
<rect y="23.971" fill="url(#SVGID_2_)" width="1275.59" height="2.634"/>
<g>
	<linearGradient id="SVGID_3_" gradientUnits="userSpaceOnUse" x1="644.3848" y1="252.4238" x2="644.3848" y2="243.3516">
		<stop  offset="0.0968" style="stop-color:#919292"/>
		<stop  offset="0.2546" style="stop-color:#F7F7F7"/>
		<stop  offset="0.7237" style="stop-color:#EEEEEF"/>
		<stop  offset="1" style="stop-color:#919292"/>
	</linearGradient>
	<rect x="13.181" y="243.352" fill="url(#SVGID_3_)" width="1262.409" height="9.072"/>
	<linearGradient id="SVGID_4_" gradientUnits="userSpaceOnUse" x1="644.3848" y1="243.3516" x2="644.3848" y2="242.502">
		<stop  offset="0.0968" style="stop-color:#919292"/>
		<stop  offset="0.2546" style="stop-color:#F7F7F7"/>
		<stop  offset="0.7237" style="stop-color:#EEEEEF"/>
		<stop  offset="1" style="stop-color:#919292"/>
	</linearGradient>
	<rect x="13.181" y="242.502" fill="url(#SVGID_4_)" width="1262.409" height="0.85"/>
</g>
<g>
	<path fill="#AFAEAE" d="M341.95,13.915c0,5.588-4.533,10.115-10.126,10.115c-5.592,0-10.125-4.527-10.125-10.115
		s4.533-10.117,10.125-10.117C337.417,3.797,341.95,8.327,341.95,13.915"/>
	<ellipse fill="none" stroke="#929292" stroke-miterlimit="10" cx="331.824" cy="13.915" rx="10.126" ry="10.115"/>
	<path fill="#AFAEAE" d="M339.264,13.915c0,4.104-3.332,7.434-7.441,7.434s-7.44-3.33-7.44-7.434c0-4.105,3.331-7.434,7.44-7.434
		S339.264,9.809,339.264,13.915"/>
	<ellipse fill="none" stroke="#929292" stroke-miterlimit="10" cx="331.824" cy="13.915" rx="7.44" ry="7.434"/>
	<g>
		<g>
			<defs>
				<rect id="SVGID_5_" x="324.808" y="6.909" width="14.029" height="14.01"/>
			</defs>
			<clipPath id="SVGID_6_">
				<use xlink:href="#SVGID_5_"  overflow="visible"/>
			</clipPath>
			<path clip-path="url(#SVGID_6_)" fill="#BEBEBD" d="M338.835,13.915c0,3.869-3.14,7.004-7.012,7.004
				c-3.874,0-7.011-3.135-7.011-7.004s3.138-7.006,7.011-7.006C335.695,6.909,338.835,10.045,338.835,13.915"/>
			<path clip-path="url(#SVGID_6_)" fill="#C0C0C0" d="M338.67,13.915c0,3.777-3.065,6.84-6.847,6.84
				c-3.782,0-6.847-3.063-6.847-6.84c0-3.779,3.064-6.842,6.847-6.842C335.605,7.073,338.67,10.135,338.67,13.915"/>
			<path clip-path="url(#SVGID_6_)" fill="#C2C3C3" d="M338.506,13.915c0,3.686-2.993,6.676-6.683,6.676
				c-3.692,0-6.683-2.99-6.683-6.676c0-3.688,2.991-6.676,6.683-6.676C335.514,7.239,338.506,10.227,338.506,13.915"/>
			<path clip-path="url(#SVGID_6_)" fill="#C4C5C4" d="M338.339,13.915c0,3.596-2.916,6.512-6.516,6.512
				c-3.599,0-6.518-2.916-6.518-6.512s2.918-6.512,6.518-6.512C335.423,7.403,338.339,10.319,338.339,13.915"/>
			<path clip-path="url(#SVGID_6_)" fill="#C6C8C8" d="M338.175,13.915c0,3.504-2.843,6.346-6.352,6.346s-6.354-2.842-6.354-6.346
				c0-3.505,2.845-6.348,6.354-6.348S338.175,10.41,338.175,13.915"/>
			<path clip-path="url(#SVGID_6_)" fill="#C9CACB" d="M338.01,13.915c0,3.412-2.77,6.18-6.187,6.18s-6.188-2.768-6.188-6.18
				c0-3.414,2.77-6.182,6.188-6.182S338.01,10.5,338.01,13.915"/>
			<path clip-path="url(#SVGID_6_)" fill="#CBCDCD" d="M337.847,13.915c0,3.322-2.698,6.018-6.024,6.018s-6.022-2.695-6.022-6.018
				c0-3.324,2.697-6.02,6.022-6.02S337.847,10.59,337.847,13.915"/>
			<path clip-path="url(#SVGID_6_)" fill="#CCCFD0" d="M337.681,13.915c0,3.232-2.623,5.852-5.857,5.852
				c-3.234,0-5.858-2.619-5.858-5.852s2.624-5.852,5.858-5.852C335.058,8.063,337.681,10.682,337.681,13.915"/>
			<path clip-path="url(#SVGID_6_)" fill="#D0D2D2" d="M337.516,13.915c0,3.141-2.548,5.688-5.693,5.688
				c-3.144,0-5.693-2.547-5.693-5.688c0-3.143,2.549-5.689,5.693-5.689C334.968,8.225,337.516,10.772,337.516,13.915"/>
			<path clip-path="url(#SVGID_6_)" fill="#D2D4D5" d="M337.352,13.915c0,3.049-2.476,5.521-5.528,5.521
				c-3.053,0-5.527-2.473-5.527-5.521c0-3.051,2.474-5.523,5.527-5.523C334.876,8.391,337.352,10.864,337.352,13.915"/>
		</g>
	</g>
	<polygon fill="#605F5E" points="330.907,18.127 330.907,14.829 327.606,14.829 327.606,12.999 330.907,12.999 330.907,9.702 
		332.739,9.702 332.739,12.999 336.039,12.999 336.039,14.829 332.739,14.829 332.739,18.127 	"/>
	<path fill="#221714" d="M332.582,9.86v2.979v0.318h0.316h2.983v1.514h-2.983h-0.316v0.316v2.98h-1.517v-2.98V14.67h-0.315h-2.984
		v-1.514h2.984h0.315v-0.318V9.86H332.582z M332.898,9.543h-2.148v3.295h-3.301v2.148h3.301v3.298h2.148v-3.298h3.3v-2.148h-3.3
		V9.543z"/>
</g>
<g>
	<path fill="#AFAEAE" d="M851.76,13.915c0,5.588-4.531,10.115-10.125,10.115c-5.592,0-10.127-4.527-10.127-10.115
		s4.535-10.117,10.127-10.117C847.229,3.797,851.76,8.327,851.76,13.915"/>
	<ellipse fill="none" stroke="#929292" stroke-miterlimit="10" cx="841.634" cy="13.915" rx="10.126" ry="10.115"/>
	<path fill="#AFAEAE" d="M849.074,13.915c0,4.104-3.332,7.434-7.439,7.434c-4.109,0-7.441-3.33-7.441-7.434
		c0-4.105,3.332-7.434,7.441-7.434C845.742,6.481,849.074,9.809,849.074,13.915"/>
	<ellipse fill="none" stroke="#929292" stroke-miterlimit="10" cx="841.634" cy="13.915" rx="7.44" ry="7.434"/>
	<g>
		<g>
			<defs>
				<rect id="SVGID_7_" x="834.621" y="6.909" width="14.027" height="14.01"/>
			</defs>
			<clipPath id="SVGID_8_">
				<use xlink:href="#SVGID_7_"  overflow="visible"/>
			</clipPath>
			<path clip-path="url(#SVGID_8_)" fill="#BEBEBD" d="M848.646,13.915c0,3.869-3.139,7.004-7.012,7.004s-7.012-3.135-7.012-7.004
				s3.139-7.006,7.012-7.006S848.646,10.045,848.646,13.915"/>
			<path clip-path="url(#SVGID_8_)" fill="#C0C0C0" d="M848.48,13.915c0,3.777-3.064,6.84-6.846,6.84
				c-3.783,0-6.848-3.063-6.848-6.84c0-3.779,3.064-6.842,6.848-6.842C845.416,7.073,848.48,10.135,848.48,13.915"/>
			<path clip-path="url(#SVGID_8_)" fill="#C2C3C3" d="M848.316,13.915c0,3.686-2.994,6.676-6.682,6.676
				c-3.691,0-6.684-2.99-6.684-6.676c0-3.688,2.992-6.676,6.684-6.676C845.322,7.239,848.316,10.227,848.316,13.915"/>
			<path clip-path="url(#SVGID_8_)" fill="#C4C5C4" d="M848.15,13.915c0,3.596-2.916,6.512-6.516,6.512s-6.52-2.916-6.52-6.512
				s2.92-6.512,6.52-6.512S848.15,10.319,848.15,13.915"/>
			<path clip-path="url(#SVGID_8_)" fill="#C6C8C8" d="M847.986,13.915c0,3.504-2.844,6.346-6.352,6.346
				c-3.51,0-6.354-2.842-6.354-6.346c0-3.505,2.844-6.348,6.354-6.348C845.143,7.567,847.986,10.41,847.986,13.915"/>
			<path clip-path="url(#SVGID_8_)" fill="#C9CACB" d="M847.82,13.915c0,3.412-2.77,6.18-6.186,6.18
				c-3.418,0-6.188-2.768-6.188-6.18c0-3.414,2.77-6.182,6.188-6.182C845.051,7.733,847.82,10.5,847.82,13.915"/>
			<path clip-path="url(#SVGID_8_)" fill="#CBCDCD" d="M847.658,13.915c0,3.322-2.699,6.018-6.023,6.018
				c-3.326,0-6.023-2.695-6.023-6.018c0-3.324,2.697-6.02,6.023-6.02C844.959,7.895,847.658,10.59,847.658,13.915"/>
			<path clip-path="url(#SVGID_8_)" fill="#CCCFD0" d="M847.49,13.915c0,3.232-2.621,5.852-5.855,5.852s-5.857-2.619-5.857-5.852
				s2.623-5.852,5.857-5.852S847.49,10.682,847.49,13.915"/>
			<path clip-path="url(#SVGID_8_)" fill="#D0D2D2" d="M847.326,13.915c0,3.141-2.547,5.688-5.691,5.688s-5.693-2.547-5.693-5.688
				c0-3.143,2.549-5.689,5.693-5.689S847.326,10.772,847.326,13.915"/>
			<path clip-path="url(#SVGID_8_)" fill="#D2D4D5" d="M847.162,13.915c0,3.049-2.475,5.521-5.527,5.521s-5.529-2.473-5.529-5.521
				c0-3.051,2.477-5.523,5.529-5.523S847.162,10.864,847.162,13.915"/>
		</g>
	</g>
	<polygon fill="#605F5E" points="840.719,18.127 840.719,14.829 837.416,14.829 837.416,12.999 840.719,12.999 840.719,9.702 
		842.551,9.702 842.551,12.999 845.85,12.999 845.85,14.829 842.551,14.829 842.551,18.127 	"/>
	<path fill="#221714" d="M842.393,9.86v2.979v0.318h0.316h2.982v1.514h-2.982h-0.316v0.316v2.98h-1.516v-2.98V14.67h-0.316h-2.984
		v-1.514h2.984h0.316v-0.318V9.86H842.393z M842.709,9.543h-2.148v3.295h-3.301v2.148h3.301v3.298h2.148v-3.298h3.299v-2.148h-3.299
		V9.543z"/>
</g>
<linearGradient id="SVGID_9_" gradientUnits="userSpaceOnUse" x1="-2462.9233" y1="1096.7109" x2="-2462.9233" y2="1083.3066" gradientTransform="matrix(0 -1 1 0 -1083.3086 -2322.1992)">
	<stop  offset="0" style="stop-color:#343535"/>
	<stop  offset="0.1847" style="stop-color:#F7F7F7"/>
	<stop  offset="0.4839" style="stop-color:#C8C9CA"/>
	<stop  offset="0.8419" style="stop-color:#EEEEEF"/>
</linearGradient>
<rect x="-0.001" y="29.026" fill="url(#SVGID_9_)" width="13.405" height="223.398"/>
<linearGradient id="SVGID_10_" gradientUnits="userSpaceOnUse" x1="-2462.9233" y1="-840.8057" x2="-2462.9233" y2="-854.2119" gradientTransform="matrix(0 -1 -1 0 421.3779 -2322.1992)">
	<stop  offset="0" style="stop-color:#343535"/>
	<stop  offset="0.1847" style="stop-color:#F7F7F7"/>
	<stop  offset="0.4839" style="stop-color:#C8C9CA"/>
	<stop  offset="0.8419" style="stop-color:#EEEEEF"/>
</linearGradient>
<rect x="1262.184" y="29.026" fill="url(#SVGID_10_)" width="13.406" height="223.398"/>
<linearGradient id="SVGID_11_" gradientUnits="userSpaceOnUse" x1="637.7954" y1="27.9712" x2="637.7954" y2="-0.144">
	<stop  offset="0.0968" style="stop-color:#919292"/>
	<stop  offset="0.2546" style="stop-color:#F7F7F7"/>
	<stop  offset="0.7237" style="stop-color:#EEEEEF"/>
	<stop  offset="1" style="stop-color:#919292"/>
</linearGradient>
<rect y="-0.144" fill="url(#SVGID_11_)" width="1275.59" height="28.115"/>
<g>
	<path fill="#181818" d="M324.335,234.453c0,1.736-1.408,3.146-3.146,3.146h-12.507c-1.738,0-3.147-1.41-3.147-3.146v-12.508
		c0-1.738,1.409-3.146,3.147-3.146h12.507c1.738,0,3.146,1.408,3.146,3.146V234.453z"/>
	<path fill="#181818" d="M324.335,210.963c0,1.736-1.408,3.146-3.146,3.146h-12.507c-1.738,0-3.147-1.41-3.147-3.146v-12.508
		c0-1.738,1.409-3.146,3.147-3.146h12.507c1.738,0,3.146,1.408,3.146,3.146V210.963z"/>
	<path fill="#181818" d="M324.335,187.473c0,1.736-1.408,3.146-3.146,3.146h-12.507c-1.738,0-3.147-1.41-3.147-3.146v-12.508
		c0-1.738,1.409-3.146,3.147-3.146h12.507c1.738,0,3.146,1.408,3.146,3.146V187.473z"/>
	<path fill="#181818" d="M324.335,163.982c0,1.738-1.408,3.146-3.146,3.146h-12.507c-1.738,0-3.147-1.408-3.147-3.146v-12.506
		c0-1.738,1.409-3.148,3.147-3.148h12.507c1.738,0,3.146,1.41,3.146,3.148V163.982z"/>
	<path fill="#181818" d="M324.335,140.492c0,1.738-1.408,3.146-3.146,3.146h-12.507c-1.738,0-3.147-1.408-3.147-3.146v-12.506
		c0-1.739,1.409-3.148,3.147-3.148h12.507c1.738,0,3.146,1.409,3.146,3.148V140.492z"/>
	<path fill="#181818" d="M324.335,117.002c0,1.737-1.408,3.147-3.146,3.147h-12.507c-1.738,0-3.147-1.41-3.147-3.147v-12.507
		c0-1.738,1.409-3.147,3.147-3.147h12.507c1.738,0,3.146,1.409,3.146,3.147V117.002z"/>
	<path fill="#181818" d="M324.335,93.513c0,1.736-1.408,3.146-3.146,3.146h-12.507c-1.738,0-3.147-1.41-3.147-3.146V81.005
		c0-1.738,1.409-3.146,3.147-3.146h12.507c1.738,0,3.146,1.408,3.146,3.146V93.513z"/>
	<path fill="#181818" d="M324.335,70.023c0,1.736-1.408,3.146-3.146,3.146h-12.507c-1.738,0-3.147-1.41-3.147-3.146V57.515
		c0-1.738,1.409-3.146,3.147-3.146h12.507c1.738,0,3.146,1.408,3.146,3.146V70.023z"/>
	<path fill="#181818" d="M324.335,46.533c0,1.737-1.408,3.146-3.146,3.146h-12.507c-1.738,0-3.147-1.409-3.147-3.146V34.026
		c0-1.738,1.409-3.147,3.147-3.147h12.507c1.738,0,3.146,1.409,3.146,3.147V46.533z"/>
</g>
<g>
	<path fill="#181818" d="M347.204,234.453c0,1.736-1.409,3.146-3.148,3.146h-12.507c-1.737,0-3.146-1.41-3.146-3.146v-12.508
		c0-1.738,1.409-3.146,3.146-3.146h12.507c1.739,0,3.148,1.408,3.148,3.146V234.453z"/>
	<path fill="#181818" d="M347.204,210.963c0,1.736-1.409,3.146-3.148,3.146h-12.507c-1.737,0-3.146-1.41-3.146-3.146v-12.508
		c0-1.738,1.409-3.146,3.146-3.146h12.507c1.739,0,3.148,1.408,3.148,3.146V210.963z"/>
	<path fill="#181818" d="M347.204,187.473c0,1.736-1.409,3.146-3.148,3.146h-12.507c-1.737,0-3.146-1.41-3.146-3.146v-12.508
		c0-1.738,1.409-3.146,3.146-3.146h12.507c1.739,0,3.148,1.408,3.148,3.146V187.473z"/>
	<path fill="#181818" d="M347.204,163.982c0,1.738-1.409,3.146-3.148,3.146h-12.507c-1.737,0-3.146-1.408-3.146-3.146v-12.506
		c0-1.738,1.409-3.148,3.146-3.148h12.507c1.739,0,3.148,1.41,3.148,3.148V163.982z"/>
	<path fill="#181818" d="M347.204,140.492c0,1.738-1.409,3.146-3.148,3.146h-12.507c-1.737,0-3.146-1.408-3.146-3.146v-12.506
		c0-1.739,1.409-3.148,3.146-3.148h12.507c1.739,0,3.148,1.409,3.148,3.148V140.492z"/>
	<path fill="#181818" d="M347.204,117.002c0,1.737-1.409,3.147-3.148,3.147h-12.507c-1.737,0-3.146-1.41-3.146-3.147v-12.507
		c0-1.738,1.409-3.147,3.146-3.147h12.507c1.739,0,3.148,1.409,3.148,3.147V117.002z"/>
	<path fill="#181818" d="M347.204,93.513c0,1.736-1.409,3.146-3.148,3.146h-12.507c-1.737,0-3.146-1.41-3.146-3.146V81.005
		c0-1.738,1.409-3.146,3.146-3.146h12.507c1.739,0,3.148,1.408,3.148,3.146V93.513z"/>
	<path fill="#181818" d="M347.204,70.023c0,1.736-1.409,3.146-3.148,3.146h-12.507c-1.737,0-3.146-1.41-3.146-3.146V57.515
		c0-1.738,1.409-3.146,3.146-3.146h12.507c1.739,0,3.148,1.408,3.148,3.146V70.023z"/>
	<path fill="#181818" d="M347.204,46.533c0,1.737-1.409,3.146-3.148,3.146h-12.507c-1.737,0-3.146-1.409-3.146-3.146V34.026
		c0-1.738,1.409-3.147,3.146-3.147h12.507c1.739,0,3.148,1.409,3.148,3.147V46.533z"/>
</g>
<g>
	<path fill="#181818" d="M370.073,234.453c0,1.736-1.409,3.146-3.147,3.146h-12.507c-1.738,0-3.147-1.41-3.147-3.146v-12.508
		c0-1.738,1.409-3.146,3.147-3.146h12.507c1.738,0,3.147,1.408,3.147,3.146V234.453z"/>
	<path fill="#181818" d="M370.073,210.963c0,1.736-1.409,3.146-3.147,3.146h-12.507c-1.738,0-3.147-1.41-3.147-3.146v-12.508
		c0-1.738,1.409-3.146,3.147-3.146h12.507c1.738,0,3.147,1.408,3.147,3.146V210.963z"/>
	<path fill="#181818" d="M370.073,187.473c0,1.736-1.409,3.146-3.147,3.146h-12.507c-1.738,0-3.147-1.41-3.147-3.146v-12.508
		c0-1.738,1.409-3.146,3.147-3.146h12.507c1.738,0,3.147,1.408,3.147,3.146V187.473z"/>
	<path fill="#181818" d="M370.073,163.982c0,1.738-1.409,3.146-3.147,3.146h-12.507c-1.738,0-3.147-1.408-3.147-3.146v-12.506
		c0-1.738,1.409-3.148,3.147-3.148h12.507c1.738,0,3.147,1.41,3.147,3.148V163.982z"/>
	<path fill="#181818" d="M370.073,140.492c0,1.738-1.409,3.146-3.147,3.146h-12.507c-1.738,0-3.147-1.408-3.147-3.146v-12.506
		c0-1.739,1.409-3.148,3.147-3.148h12.507c1.738,0,3.147,1.409,3.147,3.148V140.492z"/>
	<path fill="#181818" d="M370.073,117.002c0,1.737-1.409,3.147-3.147,3.147h-12.507c-1.738,0-3.147-1.41-3.147-3.147v-12.507
		c0-1.738,1.409-3.147,3.147-3.147h12.507c1.738,0,3.147,1.409,3.147,3.147V117.002z"/>
	<path fill="#181818" d="M370.073,93.513c0,1.736-1.409,3.146-3.147,3.146h-12.507c-1.738,0-3.147-1.41-3.147-3.146V81.005
		c0-1.738,1.409-3.146,3.147-3.146h12.507c1.738,0,3.147,1.408,3.147,3.146V93.513z"/>
	<path fill="#181818" d="M370.073,70.023c0,1.736-1.409,3.146-3.147,3.146h-12.507c-1.738,0-3.147-1.41-3.147-3.146V57.515
		c0-1.738,1.409-3.146,3.147-3.146h12.507c1.738,0,3.147,1.408,3.147,3.146V70.023z"/>
	<path fill="#181818" d="M370.073,46.533c0,1.737-1.409,3.146-3.147,3.146h-12.507c-1.738,0-3.147-1.409-3.147-3.146V34.026
		c0-1.738,1.409-3.147,3.147-3.147h12.507c1.738,0,3.147,1.409,3.147,3.147V46.533z"/>
</g>
<path fill="#181818" d="M392.941,234.453c0,1.736-1.409,3.146-3.146,3.146h-12.507c-1.738,0-3.147-1.41-3.147-3.146v-12.508
	c0-1.738,1.409-3.146,3.147-3.146h12.507c1.737,0,3.146,1.408,3.146,3.146V234.453z"/>
<path fill="#181818" d="M392.941,210.963c0,1.736-1.409,3.146-3.146,3.146h-12.507c-1.738,0-3.147-1.41-3.147-3.146v-12.508
	c0-1.738,1.409-3.146,3.147-3.146h12.507c1.737,0,3.146,1.408,3.146,3.146V210.963z"/>
<path fill="#181818" d="M392.941,187.473c0,1.736-1.409,3.146-3.146,3.146h-12.507c-1.738,0-3.147-1.41-3.147-3.146v-12.508
	c0-1.738,1.409-3.146,3.147-3.146h12.507c1.737,0,3.146,1.408,3.146,3.146V187.473z"/>
<path fill="#181818" d="M392.941,163.982c0,1.738-1.409,3.146-3.146,3.146h-12.507c-1.738,0-3.147-1.408-3.147-3.146v-12.506
	c0-1.738,1.409-3.148,3.147-3.148h12.507c1.737,0,3.146,1.41,3.146,3.148V163.982z"/>
<path fill="#181818" d="M392.941,140.492c0,1.738-1.409,3.146-3.146,3.146h-12.507c-1.738,0-3.147-1.408-3.147-3.146v-12.506
	c0-1.739,1.409-3.148,3.147-3.148h12.507c1.737,0,3.146,1.409,3.146,3.148V140.492z"/>
<path fill="#181818" d="M392.941,117.002c0,1.737-1.409,3.147-3.146,3.147h-12.507c-1.738,0-3.147-1.41-3.147-3.147v-12.507
	c0-1.738,1.409-3.147,3.147-3.147h12.507c1.737,0,3.146,1.409,3.146,3.147V117.002z"/>
<path fill="#181818" d="M392.941,93.513c0,1.736-1.409,3.146-3.146,3.146h-12.507c-1.738,0-3.147-1.41-3.147-3.146V81.005
	c0-1.738,1.409-3.146,3.147-3.146h12.507c1.737,0,3.146,1.408,3.146,3.146V93.513z"/>
<path fill="#181818" d="M392.941,70.023c0,1.736-1.409,3.146-3.146,3.146h-12.507c-1.738,0-3.147-1.41-3.147-3.146V57.515
	c0-1.738,1.409-3.146,3.147-3.146h12.507c1.737,0,3.146,1.408,3.146,3.146V70.023z"/>
<path fill="#181818" d="M392.941,46.533c0,1.737-1.409,3.146-3.146,3.146h-12.507c-1.738,0-3.147-1.409-3.147-3.146V34.026
	c0-1.738,1.409-3.147,3.147-3.147h12.507c1.737,0,3.146,1.409,3.146,3.147V46.533z"/>
<g>
	<path fill="#181818" d="M415.235,46.533c0,1.737-1.409,3.146-3.147,3.146h-12.508c-1.737,0-3.146-1.409-3.146-3.146V34.026
		c0-1.738,1.409-3.147,3.146-3.147h12.508c1.738,0,3.147,1.409,3.147,3.147V46.533z"/>
	<path fill="#181818" d="M437.529,46.533c0,1.737-1.409,3.146-3.147,3.146h-12.507c-1.737,0-3.146-1.409-3.146-3.146V34.026
		c0-1.738,1.409-3.147,3.146-3.147h12.507c1.738,0,3.147,1.409,3.147,3.147V46.533z"/>
	<path fill="#181818" d="M459.823,46.533c0,1.737-1.409,3.146-3.147,3.146h-12.507c-1.738,0-3.147-1.409-3.147-3.146V34.026
		c0-1.738,1.409-3.147,3.147-3.147h12.507c1.738,0,3.147,1.409,3.147,3.147V46.533z"/>
	<path fill="#181818" d="M482.117,46.533c0,1.737-1.409,3.146-3.147,3.146h-12.507c-1.738,0-3.146-1.409-3.146-3.146V34.026
		c0-1.738,1.408-3.147,3.146-3.147h12.507c1.738,0,3.147,1.409,3.147,3.147V46.533z"/>
	<path fill="#181818" d="M504.41,46.533c0,1.737-1.409,3.146-3.147,3.146h-12.507c-1.737,0-3.146-1.409-3.146-3.146V34.026
		c0-1.738,1.409-3.147,3.146-3.147h12.507c1.738,0,3.147,1.409,3.147,3.147V46.533z"/>
	<path fill="#181818" d="M526.704,46.533c0,1.737-1.409,3.146-3.148,3.146h-12.507c-1.737,0-3.146-1.409-3.146-3.146V34.026
		c0-1.738,1.409-3.147,3.146-3.147h12.507c1.739,0,3.148,1.409,3.148,3.147V46.533z"/>
	<path fill="#181818" d="M548.998,46.533c0,1.737-1.409,3.146-3.147,3.146h-12.507c-1.737,0-3.146-1.409-3.146-3.146V34.026
		c0-1.738,1.409-3.147,3.146-3.147h12.507c1.738,0,3.147,1.409,3.147,3.147V46.533z"/>
	<path fill="#181818" d="M571.292,46.533c0,1.737-1.41,3.146-3.147,3.146h-12.507c-1.737,0-3.147-1.409-3.147-3.146V34.026
		c0-1.738,1.41-3.147,3.147-3.147h12.507c1.738,0,3.147,1.409,3.147,3.147V46.533z"/>
	<path fill="#181818" d="M593.585,46.533c0,1.737-1.41,3.146-3.146,3.146h-12.508c-1.738,0-3.146-1.409-3.146-3.146V34.026
		c0-1.738,1.409-3.147,3.146-3.147h12.508c1.736,0,3.146,1.409,3.146,3.147V46.533z"/>
	<path fill="#181818" d="M615.879,46.533c0,1.737-1.409,3.146-3.146,3.146h-12.508c-1.737,0-3.146-1.409-3.146-3.146V34.026
		c0-1.738,1.409-3.147,3.146-3.147h12.508c1.737,0,3.146,1.409,3.146,3.147V46.533z"/>
	<path fill="#181818" d="M638.172,46.533c0,1.737-1.408,3.146-3.147,3.146h-12.507c-1.736,0-3.146-1.409-3.146-3.146V34.026
		c0-1.738,1.41-3.147,3.146-3.147h12.507c1.739,0,3.147,1.409,3.147,3.147V46.533z"/>
	<path fill="#181818" d="M660.467,46.533c0,1.737-1.41,3.146-3.148,3.146h-12.506c-1.738,0-3.146-1.409-3.146-3.146V34.026
		c0-1.738,1.408-3.147,3.146-3.147h12.506c1.738,0,3.148,1.409,3.148,3.147V46.533z"/>
</g>
<g>
	<path fill="#181818" d="M415.235,70.023c0,1.737-1.409,3.146-3.147,3.146h-12.508c-1.737,0-3.146-1.409-3.146-3.146V57.516
		c0-1.738,1.409-3.147,3.146-3.147h12.508c1.738,0,3.147,1.409,3.147,3.147V70.023z"/>
	<path fill="#181818" d="M437.529,70.023c0,1.737-1.409,3.146-3.147,3.146h-12.507c-1.737,0-3.146-1.409-3.146-3.146V57.516
		c0-1.738,1.409-3.147,3.146-3.147h12.507c1.738,0,3.147,1.409,3.147,3.147V70.023z"/>
	<path fill="#181818" d="M459.823,70.023c0,1.737-1.409,3.146-3.147,3.146h-12.507c-1.738,0-3.147-1.409-3.147-3.146V57.516
		c0-1.738,1.409-3.147,3.147-3.147h12.507c1.738,0,3.147,1.409,3.147,3.147V70.023z"/>
	<path fill="#181818" d="M482.117,70.023c0,1.737-1.409,3.146-3.147,3.146h-12.507c-1.738,0-3.146-1.409-3.146-3.146V57.516
		c0-1.738,1.408-3.147,3.146-3.147h12.507c1.738,0,3.147,1.409,3.147,3.147V70.023z"/>
	<path fill="#181818" d="M504.41,70.023c0,1.737-1.409,3.146-3.147,3.146h-12.507c-1.737,0-3.146-1.409-3.146-3.146V57.516
		c0-1.738,1.409-3.147,3.146-3.147h12.507c1.738,0,3.147,1.409,3.147,3.147V70.023z"/>
	<path fill="#181818" d="M526.704,70.023c0,1.737-1.409,3.146-3.148,3.146h-12.507c-1.737,0-3.146-1.409-3.146-3.146V57.516
		c0-1.738,1.409-3.147,3.146-3.147h12.507c1.739,0,3.148,1.409,3.148,3.147V70.023z"/>
	<path fill="#181818" d="M548.998,70.023c0,1.737-1.409,3.146-3.147,3.146h-12.507c-1.737,0-3.146-1.409-3.146-3.146V57.516
		c0-1.738,1.409-3.147,3.146-3.147h12.507c1.738,0,3.147,1.409,3.147,3.147V70.023z"/>
	<path fill="#181818" d="M571.292,70.023c0,1.737-1.41,3.146-3.147,3.146h-12.507c-1.737,0-3.147-1.409-3.147-3.146V57.516
		c0-1.738,1.41-3.147,3.147-3.147h12.507c1.738,0,3.147,1.409,3.147,3.147V70.023z"/>
	<path fill="#181818" d="M593.585,70.023c0,1.737-1.41,3.146-3.146,3.146h-12.508c-1.738,0-3.146-1.409-3.146-3.146V57.516
		c0-1.738,1.409-3.147,3.146-3.147h12.508c1.736,0,3.146,1.409,3.146,3.147V70.023z"/>
	<path fill="#181818" d="M615.879,70.023c0,1.737-1.409,3.146-3.146,3.146h-12.508c-1.737,0-3.146-1.409-3.146-3.146V57.516
		c0-1.738,1.409-3.147,3.146-3.147h12.508c1.737,0,3.146,1.409,3.146,3.147V70.023z"/>
	<path fill="#181818" d="M638.172,70.023c0,1.737-1.408,3.146-3.147,3.146h-12.507c-1.736,0-3.146-1.409-3.146-3.146V57.516
		c0-1.738,1.41-3.147,3.146-3.147h12.507c1.739,0,3.147,1.409,3.147,3.147V70.023z"/>
	<path fill="#181818" d="M660.467,70.023c0,1.737-1.41,3.146-3.148,3.146h-12.506c-1.738,0-3.146-1.409-3.146-3.146V57.516
		c0-1.738,1.408-3.147,3.146-3.147h12.506c1.738,0,3.148,1.409,3.148,3.147V70.023z"/>
</g>
<g>
	<path fill="#181818" d="M415.235,93.513c0,1.737-1.409,3.146-3.147,3.146h-12.508c-1.737,0-3.146-1.409-3.146-3.146V81.006
		c0-1.738,1.409-3.147,3.146-3.147h12.508c1.738,0,3.147,1.409,3.147,3.147V93.513z"/>
	<path fill="#181818" d="M437.529,93.513c0,1.737-1.409,3.146-3.147,3.146h-12.507c-1.737,0-3.146-1.409-3.146-3.146V81.006
		c0-1.738,1.409-3.147,3.146-3.147h12.507c1.738,0,3.147,1.409,3.147,3.147V93.513z"/>
	<path fill="#181818" d="M459.823,93.513c0,1.737-1.409,3.146-3.147,3.146h-12.507c-1.738,0-3.147-1.409-3.147-3.146V81.006
		c0-1.738,1.409-3.147,3.147-3.147h12.507c1.738,0,3.147,1.409,3.147,3.147V93.513z"/>
	<path fill="#181818" d="M482.117,93.513c0,1.737-1.409,3.146-3.147,3.146h-12.507c-1.738,0-3.146-1.409-3.146-3.146V81.006
		c0-1.738,1.408-3.147,3.146-3.147h12.507c1.738,0,3.147,1.409,3.147,3.147V93.513z"/>
	<path fill="#181818" d="M504.41,93.513c0,1.737-1.409,3.146-3.147,3.146h-12.507c-1.737,0-3.146-1.409-3.146-3.146V81.006
		c0-1.738,1.409-3.147,3.146-3.147h12.507c1.738,0,3.147,1.409,3.147,3.147V93.513z"/>
	<path fill="#181818" d="M526.704,93.513c0,1.737-1.409,3.146-3.148,3.146h-12.507c-1.737,0-3.146-1.409-3.146-3.146V81.006
		c0-1.738,1.409-3.147,3.146-3.147h12.507c1.739,0,3.148,1.409,3.148,3.147V93.513z"/>
	<path fill="#181818" d="M548.998,93.513c0,1.737-1.409,3.146-3.147,3.146h-12.507c-1.737,0-3.146-1.409-3.146-3.146V81.006
		c0-1.738,1.409-3.147,3.146-3.147h12.507c1.738,0,3.147,1.409,3.147,3.147V93.513z"/>
	<path fill="#181818" d="M571.292,93.513c0,1.737-1.41,3.146-3.147,3.146h-12.507c-1.737,0-3.147-1.409-3.147-3.146V81.006
		c0-1.738,1.41-3.147,3.147-3.147h12.507c1.738,0,3.147,1.409,3.147,3.147V93.513z"/>
	<path fill="#181818" d="M593.585,93.513c0,1.737-1.41,3.146-3.146,3.146h-12.508c-1.738,0-3.146-1.409-3.146-3.146V81.006
		c0-1.738,1.409-3.147,3.146-3.147h12.508c1.736,0,3.146,1.409,3.146,3.147V93.513z"/>
	<path fill="#181818" d="M615.879,93.513c0,1.737-1.409,3.146-3.146,3.146h-12.508c-1.737,0-3.146-1.409-3.146-3.146V81.006
		c0-1.738,1.409-3.147,3.146-3.147h12.508c1.737,0,3.146,1.409,3.146,3.147V93.513z"/>
	<path fill="#181818" d="M638.172,93.513c0,1.737-1.408,3.146-3.147,3.146h-12.507c-1.736,0-3.146-1.409-3.146-3.146V81.006
		c0-1.738,1.41-3.147,3.146-3.147h12.507c1.739,0,3.147,1.409,3.147,3.147V93.513z"/>
	<path fill="#181818" d="M660.467,93.513c0,1.737-1.41,3.146-3.148,3.146h-12.506c-1.738,0-3.146-1.409-3.146-3.146V81.006
		c0-1.738,1.408-3.147,3.146-3.147h12.506c1.738,0,3.148,1.409,3.148,3.147V93.513z"/>
</g>
<g>
	<path fill="#181818" d="M415.235,117.003c0,1.737-1.409,3.146-3.147,3.146h-12.508c-1.737,0-3.146-1.409-3.146-3.146v-12.507
		c0-1.738,1.409-3.147,3.146-3.147h12.508c1.738,0,3.147,1.409,3.147,3.147V117.003z"/>
	<path fill="#181818" d="M437.529,117.003c0,1.737-1.409,3.146-3.147,3.146h-12.507c-1.737,0-3.146-1.409-3.146-3.146v-12.507
		c0-1.738,1.409-3.147,3.146-3.147h12.507c1.738,0,3.147,1.409,3.147,3.147V117.003z"/>
	<path fill="#181818" d="M459.823,117.003c0,1.737-1.409,3.146-3.147,3.146h-12.507c-1.738,0-3.147-1.409-3.147-3.146v-12.507
		c0-1.738,1.409-3.147,3.147-3.147h12.507c1.738,0,3.147,1.409,3.147,3.147V117.003z"/>
	<path fill="#181818" d="M482.117,117.003c0,1.737-1.409,3.146-3.147,3.146h-12.507c-1.738,0-3.146-1.409-3.146-3.146v-12.507
		c0-1.738,1.408-3.147,3.146-3.147h12.507c1.738,0,3.147,1.409,3.147,3.147V117.003z"/>
	<path fill="#181818" d="M504.41,117.003c0,1.737-1.409,3.146-3.147,3.146h-12.507c-1.737,0-3.146-1.409-3.146-3.146v-12.507
		c0-1.738,1.409-3.147,3.146-3.147h12.507c1.738,0,3.147,1.409,3.147,3.147V117.003z"/>
	<path fill="#181818" d="M526.704,117.003c0,1.737-1.409,3.146-3.148,3.146h-12.507c-1.737,0-3.146-1.409-3.146-3.146v-12.507
		c0-1.738,1.409-3.147,3.146-3.147h12.507c1.739,0,3.148,1.409,3.148,3.147V117.003z"/>
	<path fill="#181818" d="M548.998,117.003c0,1.737-1.409,3.146-3.147,3.146h-12.507c-1.737,0-3.146-1.409-3.146-3.146v-12.507
		c0-1.738,1.409-3.147,3.146-3.147h12.507c1.738,0,3.147,1.409,3.147,3.147V117.003z"/>
	<path fill="#181818" d="M571.292,117.003c0,1.737-1.41,3.146-3.147,3.146h-12.507c-1.737,0-3.147-1.409-3.147-3.146v-12.507
		c0-1.738,1.41-3.147,3.147-3.147h12.507c1.738,0,3.147,1.409,3.147,3.147V117.003z"/>
	<path fill="#181818" d="M593.585,117.003c0,1.737-1.41,3.146-3.146,3.146h-12.508c-1.738,0-3.146-1.409-3.146-3.146v-12.507
		c0-1.738,1.409-3.147,3.146-3.147h12.508c1.736,0,3.146,1.409,3.146,3.147V117.003z"/>
	<path fill="#181818" d="M615.879,117.003c0,1.737-1.409,3.146-3.146,3.146h-12.508c-1.737,0-3.146-1.409-3.146-3.146v-12.507
		c0-1.738,1.409-3.147,3.146-3.147h12.508c1.737,0,3.146,1.409,3.146,3.147V117.003z"/>
	<path fill="#181818" d="M638.172,117.003c0,1.737-1.408,3.146-3.147,3.146h-12.507c-1.736,0-3.146-1.409-3.146-3.146v-12.507
		c0-1.738,1.41-3.147,3.146-3.147h12.507c1.739,0,3.147,1.409,3.147,3.147V117.003z"/>
	<path fill="#181818" d="M660.467,117.003c0,1.737-1.41,3.146-3.148,3.146h-12.506c-1.738,0-3.146-1.409-3.146-3.146v-12.507
		c0-1.738,1.408-3.147,3.146-3.147h12.506c1.738,0,3.148,1.409,3.148,3.147V117.003z"/>
</g>
<g>
	<rect x="465.29" y="130.961" fill="#DCDCDC" width="41.308" height="41.309"/>
	<rect x="465.29" y="170.941" fill="#9F9E9F" width="41.308" height="1.328"/>
	<rect x="476.616" y="142.287" fill="#222222" width="18.656" height="18.656"/>
</g>
<rect x="688.328" y="28.055" fill="#181818" width="32.113" height="156.285"/>
<g>
	<path fill="#AFAEAE" d="M714.529,46.132c0,5.598-4.541,10.135-10.143,10.135c-5.605,0-10.146-4.537-10.146-10.135
		c0-5.597,4.541-10.136,10.146-10.136C709.988,35.997,714.529,40.536,714.529,46.132"/>
	<path fill="none" stroke="#929292" stroke-miterlimit="10" d="M714.529,46.132c0,5.598-4.541,10.135-10.143,10.135
		c-5.605,0-10.146-4.537-10.146-10.135c0-5.597,4.541-10.136,10.146-10.136C709.988,35.997,714.529,40.536,714.529,46.132z"/>
	<path fill="#AFAEAE" d="M711.84,46.132c0,4.111-3.338,7.446-7.453,7.446c-4.119,0-7.457-3.335-7.457-7.446
		c0-4.114,3.338-7.448,7.457-7.448C708.502,38.684,711.84,42.018,711.84,46.132"/>
	<ellipse fill="none" stroke="#929292" stroke-miterlimit="10" cx="704.385" cy="46.132" rx="7.455" ry="7.446"/>
	<g>
		<g>
			<defs>
				<rect id="SVGID_12_" x="697.357" y="39.112" width="14.053" height="14.038"/>
			</defs>
			<clipPath id="SVGID_13_">
				<use xlink:href="#SVGID_12_"  overflow="visible"/>
			</clipPath>
			<path clip-path="url(#SVGID_13_)" fill="#BEBEBD" d="M711.41,46.132c0,3.876-3.145,7.018-7.023,7.018
				c-3.881,0-7.029-3.142-7.029-7.018c0-3.877,3.148-7.021,7.029-7.021C708.266,39.112,711.41,42.255,711.41,46.132"/>
			<path clip-path="url(#SVGID_13_)" fill="#C0C0C0" d="M711.244,46.132c0,3.782-3.07,6.853-6.857,6.853
				c-3.791,0-6.861-3.07-6.861-6.853c0-3.786,3.07-6.854,6.861-6.854C708.174,39.278,711.244,42.346,711.244,46.132"/>
			<path clip-path="url(#SVGID_13_)" fill="#C2C3C3" d="M711.08,46.132c0,3.692-2.998,6.688-6.693,6.688
				c-3.699,0-6.697-2.996-6.697-6.688c0-3.694,2.998-6.689,6.697-6.689C708.082,39.443,711.08,42.438,711.08,46.132"/>
			<path clip-path="url(#SVGID_13_)" fill="#C4C5C4" d="M710.914,46.132c0,3.603-2.922,6.522-6.527,6.522
				c-3.609,0-6.533-2.92-6.533-6.522c0-3.604,2.924-6.522,6.533-6.522C707.992,39.61,710.914,42.528,710.914,46.132"/>
			<path clip-path="url(#SVGID_13_)" fill="#C6C8C8" d="M710.748,46.132c0,3.511-2.85,6.358-6.361,6.358
				c-3.518,0-6.367-2.848-6.367-6.358c0-3.512,2.85-6.36,6.367-6.36C707.898,39.772,710.748,42.621,710.748,46.132"/>
			<path clip-path="url(#SVGID_13_)" fill="#C9CACB" d="M710.584,46.132c0,3.42-2.775,6.192-6.197,6.192
				c-3.426,0-6.201-2.772-6.201-6.192c0-3.423,2.775-6.194,6.201-6.194C707.809,39.938,710.584,42.709,710.584,46.132"/>
			<path clip-path="url(#SVGID_13_)" fill="#CBCDCD" d="M710.42,46.132c0,3.327-2.703,6.028-6.033,6.028
				c-3.336,0-6.037-2.701-6.037-6.028c0-3.33,2.701-6.029,6.037-6.029C707.717,40.103,710.42,42.802,710.42,46.132"/>
			<path clip-path="url(#SVGID_13_)" fill="#CCCFD0" d="M710.254,46.132c0,3.237-2.629,5.862-5.867,5.862
				c-3.244,0-5.871-2.625-5.871-5.862c0-3.239,2.627-5.864,5.871-5.864C707.625,40.268,710.254,42.893,710.254,46.132"/>
			<path clip-path="url(#SVGID_13_)" fill="#D0D2D2" d="M710.09,46.132c0,3.145-2.555,5.698-5.703,5.698
				c-3.15,0-5.705-2.554-5.705-5.698c0-3.147,2.555-5.7,5.705-5.7C707.535,40.432,710.09,42.985,710.09,46.132"/>
			<path clip-path="url(#SVGID_13_)" fill="#D2D4D5" d="M709.924,46.132c0,3.055-2.479,5.531-5.537,5.531
				c-3.061,0-5.539-2.477-5.539-5.531c0-3.058,2.479-5.534,5.539-5.534C707.445,40.598,709.924,43.075,709.924,46.132"/>
		</g>
	</g>
	<polygon fill="#605F5E" points="703.467,50.352 703.467,47.049 700.16,47.049 700.16,45.215 703.467,45.215 703.467,41.912 
		705.303,41.912 705.303,45.215 708.607,45.215 708.607,47.049 705.303,47.049 705.303,50.352 	"/>
	<path fill="#221714" d="M705.143,42.071v2.982v0.321h0.318h2.988v1.515h-2.988h-0.318v0.316v2.986h-1.518v-2.986v-0.316h-0.318
		h-2.99v-1.515h2.99h0.318v-0.321v-2.982H705.143z M705.461,41.752h-2.154v3.301H700v2.152h3.307v3.305h2.154v-3.305h3.305v-2.152
		h-3.305V41.752z"/>
</g>
<g>
	<path fill="#AFAEAE" d="M714.529,165.479c0,5.598-4.543,10.135-10.145,10.135c-5.604,0-10.146-4.537-10.146-10.135
		s4.543-10.137,10.146-10.137C709.986,155.342,714.529,159.881,714.529,165.479"/>
	<ellipse fill="none" stroke="#929292" stroke-miterlimit="10" cx="704.384" cy="165.479" rx="10.146" ry="10.135"/>
	<path fill="#AFAEAE" d="M711.838,165.479c0,4.111-3.338,7.445-7.453,7.445c-4.117,0-7.457-3.334-7.457-7.445
		c0-4.115,3.34-7.449,7.457-7.449C708.5,158.029,711.838,161.363,711.838,165.479"/>
	<path fill="none" stroke="#929292" stroke-miterlimit="10" d="M711.838,165.479c0,4.111-3.338,7.445-7.453,7.445
		c-4.117,0-7.457-3.334-7.457-7.445c0-4.115,3.34-7.449,7.457-7.449C708.5,158.029,711.838,161.363,711.838,165.479z"/>
	<g>
		<g>
			<defs>
				<rect id="SVGID_14_" x="697.355" y="158.457" width="14.055" height="14.039"/>
			</defs>
			<clipPath id="SVGID_15_">
				<use xlink:href="#SVGID_14_"  overflow="visible"/>
			</clipPath>
			<path clip-path="url(#SVGID_15_)" fill="#BEBEBD" d="M711.408,165.479c0,3.875-3.145,7.018-7.023,7.018
				c-3.881,0-7.027-3.143-7.027-7.018c0-3.877,3.146-7.021,7.027-7.021C708.264,158.457,711.408,161.602,711.408,165.479"/>
			<path clip-path="url(#SVGID_15_)" fill="#C0C0C0" d="M711.242,165.479c0,3.781-3.07,6.852-6.857,6.852
				c-3.791,0-6.861-3.07-6.861-6.852c0-3.787,3.07-6.855,6.861-6.855C708.172,158.623,711.242,161.691,711.242,165.479"/>
			<path clip-path="url(#SVGID_15_)" fill="#C2C3C3" d="M711.078,165.479c0,3.691-2.998,6.688-6.693,6.688
				c-3.699,0-6.695-2.996-6.695-6.688c0-3.695,2.996-6.689,6.695-6.689C708.08,158.789,711.078,161.783,711.078,165.479"/>
			<path clip-path="url(#SVGID_15_)" fill="#C4C5C4" d="M710.912,165.479c0,3.602-2.92,6.521-6.527,6.521s-6.533-2.92-6.533-6.521
				c0-3.605,2.926-6.523,6.533-6.523S710.912,161.873,710.912,165.479"/>
			<path clip-path="url(#SVGID_15_)" fill="#C6C8C8" d="M710.746,165.479c0,3.51-2.85,6.357-6.361,6.357
				c-3.518,0-6.365-2.848-6.365-6.357c0-3.512,2.848-6.361,6.365-6.361C707.896,159.117,710.746,161.967,710.746,165.479"/>
			<path clip-path="url(#SVGID_15_)" fill="#C9CACB" d="M710.582,165.479c0,3.42-2.775,6.191-6.197,6.191
				c-3.426,0-6.201-2.771-6.201-6.191c0-3.424,2.775-6.195,6.201-6.195C707.807,159.283,710.582,162.055,710.582,165.479"/>
			<path clip-path="url(#SVGID_15_)" fill="#CBCDCD" d="M710.418,165.479c0,3.326-2.703,6.027-6.033,6.027
				c-3.334,0-6.037-2.701-6.037-6.027c0-3.33,2.703-6.029,6.037-6.029C707.715,159.449,710.418,162.148,710.418,165.479"/>
			<path clip-path="url(#SVGID_15_)" fill="#CCCFD0" d="M710.252,165.479c0,3.236-2.629,5.861-5.867,5.861
				c-3.242,0-5.871-2.625-5.871-5.861c0-3.24,2.629-5.865,5.871-5.865C707.623,159.613,710.252,162.238,710.252,165.479"/>
			<path clip-path="url(#SVGID_15_)" fill="#D0D2D2" d="M710.088,165.479c0,3.145-2.555,5.697-5.703,5.697
				c-3.15,0-5.705-2.553-5.705-5.697c0-3.148,2.555-5.701,5.705-5.701C707.533,159.777,710.088,162.33,710.088,165.479"/>
			<path clip-path="url(#SVGID_15_)" fill="#D2D4D5" d="M709.922,165.479c0,3.055-2.479,5.531-5.537,5.531
				c-3.061,0-5.539-2.477-5.539-5.531c0-3.059,2.479-5.535,5.539-5.535C707.443,159.943,709.922,162.42,709.922,165.479"/>
		</g>
	</g>
	<polygon fill="#605F5E" points="703.465,169.697 703.465,166.395 700.158,166.395 700.158,164.561 703.465,164.561 
		703.465,161.258 705.301,161.258 705.301,164.561 708.605,164.561 708.605,166.395 705.301,166.395 705.301,169.697 	"/>
	<path fill="#221714" d="M705.143,161.416v2.982v0.322h0.316h2.99v1.514h-2.99h-0.316v0.316v2.986h-1.52v-2.986v-0.316h-0.318
		h-2.988v-1.514h2.988h0.318v-0.322v-2.982H705.143z M705.459,161.098h-2.154v3.301H700v2.152h3.305v3.305h2.154v-3.305h3.305
		v-2.152h-3.305V161.098z"/>
</g>
<path fill="#444344" d="M45.167,72.154c0-2.491,1.885-4.512,4.21-4.512h95.262c2.326,0,4.212,2.021,4.212,4.512v55.159
	c0,2.492-1.886,4.512-4.212,4.512H49.377c-2.325,0-4.21-2.02-4.21-4.512V72.154z"/>
<linearGradient id="SVGID_16_" gradientUnits="userSpaceOnUse" x1="22.0674" y1="40.0024" x2="56.7344" y2="40.0024">
	<stop  offset="0.0161" style="stop-color:#753131"/>
	<stop  offset="0.1021" style="stop-color:#995957"/>
	<stop  offset="0.5699" style="stop-color:#753131"/>
	<stop  offset="0.7634" style="stop-color:#EE8A7A"/>
	<stop  offset="1" style="stop-color:#753131"/>
</linearGradient>
<rect x="22.067" y="31.002" fill="url(#SVGID_16_)" width="34.667" height="18"/>
<g>
	<g>
		<rect x="171.883" y="34.349" fill="#030000" width="92.035" height="92.034"/>
		<circle fill="#E4E4E4" cx="217.901" cy="80.368" r="27.365"/>
		<g>
			<linearGradient id="SVGID_17_" gradientUnits="userSpaceOnUse" x1="189.4058" y1="80.3662" x2="192.4541" y2="80.3662">
				<stop  offset="0" style="stop-color:#CBCCCC"/>
				<stop  offset="0.1828" style="stop-color:#B1B4B5"/>
				<stop  offset="0.4408" style="stop-color:#E0DFDE"/>
				<stop  offset="0.6451" style="stop-color:#B1B4B5"/>
				<stop  offset="0.9516" style="stop-color:#B1B4B5"/>
				<stop  offset="1" style="stop-color:#666666"/>
			</linearGradient>
			<rect x="189.406" y="34.349" fill="url(#SVGID_17_)" width="3.048" height="92.034"/>
			<linearGradient id="SVGID_18_" gradientUnits="userSpaceOnUse" x1="207.3877" y1="80.3662" x2="210.4321" y2="80.3662">
				<stop  offset="0" style="stop-color:#CBCCCC"/>
				<stop  offset="0.1828" style="stop-color:#B1B4B5"/>
				<stop  offset="0.4408" style="stop-color:#E0DFDE"/>
				<stop  offset="0.6451" style="stop-color:#B1B4B5"/>
				<stop  offset="0.9516" style="stop-color:#B1B4B5"/>
				<stop  offset="1" style="stop-color:#666666"/>
			</linearGradient>
			<rect x="207.388" y="34.349" fill="url(#SVGID_18_)" width="3.044" height="92.034"/>
			<linearGradient id="SVGID_19_" gradientUnits="userSpaceOnUse" x1="225.3672" y1="80.3662" x2="228.416" y2="80.3662">
				<stop  offset="0" style="stop-color:#CBCCCC"/>
				<stop  offset="0.1828" style="stop-color:#B1B4B5"/>
				<stop  offset="0.4408" style="stop-color:#E0DFDE"/>
				<stop  offset="0.6451" style="stop-color:#B1B4B5"/>
				<stop  offset="0.9516" style="stop-color:#B1B4B5"/>
				<stop  offset="1" style="stop-color:#666666"/>
			</linearGradient>
			<rect x="225.367" y="34.349" fill="url(#SVGID_19_)" width="3.049" height="92.034"/>
			<linearGradient id="SVGID_20_" gradientUnits="userSpaceOnUse" x1="243.3481" y1="80.3662" x2="246.396" y2="80.3662">
				<stop  offset="0" style="stop-color:#CBCCCC"/>
				<stop  offset="0.1828" style="stop-color:#B1B4B5"/>
				<stop  offset="0.4408" style="stop-color:#E0DFDE"/>
				<stop  offset="0.6451" style="stop-color:#B1B4B5"/>
				<stop  offset="0.9516" style="stop-color:#B1B4B5"/>
				<stop  offset="1" style="stop-color:#666666"/>
			</linearGradient>
			<rect x="243.348" y="34.349" fill="url(#SVGID_20_)" width="3.048" height="92.034"/>
		</g>
		<g>
			
				<linearGradient id="SVGID_21_" gradientUnits="userSpaceOnUse" x1="6333.9668" y1="-6916.9941" x2="6337.0137" y2="-6916.9941" gradientTransform="matrix(0 1 -1 0 -6699.0938 -6282.0957)">
				<stop  offset="0" style="stop-color:#CBCCCC"/>
				<stop  offset="0.1828" style="stop-color:#B1B4B5"/>
				<stop  offset="0.4408" style="stop-color:#E0DFDE"/>
				<stop  offset="0.6451" style="stop-color:#B1B4B5"/>
				<stop  offset="0.9516" style="stop-color:#B1B4B5"/>
				<stop  offset="1" style="stop-color:#666666"/>
			</linearGradient>
			<rect x="171.883" y="51.872" fill="url(#SVGID_21_)" width="92.035" height="3.047"/>
			
				<linearGradient id="SVGID_22_" gradientUnits="userSpaceOnUse" x1="6351.9473" y1="-6916.9941" x2="6354.9941" y2="-6916.9941" gradientTransform="matrix(0 1 -1 0 -6699.0938 -6282.0957)">
				<stop  offset="0" style="stop-color:#CBCCCC"/>
				<stop  offset="0.1828" style="stop-color:#B1B4B5"/>
				<stop  offset="0.4408" style="stop-color:#E0DFDE"/>
				<stop  offset="0.6451" style="stop-color:#B1B4B5"/>
				<stop  offset="0.9516" style="stop-color:#B1B4B5"/>
				<stop  offset="1" style="stop-color:#666666"/>
			</linearGradient>
			<rect x="171.883" y="69.852" fill="url(#SVGID_22_)" width="92.035" height="3.047"/>
			
				<linearGradient id="SVGID_23_" gradientUnits="userSpaceOnUse" x1="6369.9277" y1="-6916.9941" x2="6372.9766" y2="-6916.9941" gradientTransform="matrix(0 1 -1 0 -6699.0938 -6282.0957)">
				<stop  offset="0" style="stop-color:#CBCCCC"/>
				<stop  offset="0.1828" style="stop-color:#B1B4B5"/>
				<stop  offset="0.4408" style="stop-color:#E0DFDE"/>
				<stop  offset="0.6451" style="stop-color:#B1B4B5"/>
				<stop  offset="0.9516" style="stop-color:#B1B4B5"/>
				<stop  offset="1" style="stop-color:#666666"/>
			</linearGradient>
			<rect x="171.883" y="87.833" fill="url(#SVGID_23_)" width="92.035" height="3.049"/>
			
				<linearGradient id="SVGID_24_" gradientUnits="userSpaceOnUse" x1="6387.9102" y1="-6916.9941" x2="6390.957" y2="-6916.9941" gradientTransform="matrix(0 1 -1 0 -6699.0938 -6282.0957)">
				<stop  offset="0" style="stop-color:#CBCCCC"/>
				<stop  offset="0.1828" style="stop-color:#B1B4B5"/>
				<stop  offset="0.4408" style="stop-color:#E0DFDE"/>
				<stop  offset="0.6451" style="stop-color:#B1B4B5"/>
				<stop  offset="0.9516" style="stop-color:#B1B4B5"/>
				<stop  offset="1" style="stop-color:#666666"/>
			</linearGradient>
			<rect x="171.883" y="105.814" fill="url(#SVGID_24_)" width="92.035" height="3.048"/>
		</g>
	</g>
	<g>
		<path fill="#AFAEAE" d="M188.072,42.639c0,4.466-3.623,8.086-8.095,8.086c-4.469,0-8.094-3.62-8.094-8.086
			s3.625-8.088,8.094-8.088C184.449,34.551,188.072,38.173,188.072,42.639"/>
		<ellipse fill="none" stroke="#929292" stroke-miterlimit="10" cx="179.977" cy="42.639" rx="8.094" ry="8.086"/>
		<path fill="#AFAEAE" d="M185.923,42.639c0,3.281-2.662,5.941-5.947,5.941c-3.284,0-5.947-2.66-5.947-5.941
			c0-3.282,2.664-5.943,5.947-5.943C183.261,36.696,185.923,39.357,185.923,42.639"/>
		<ellipse fill="none" stroke="#929292" stroke-miterlimit="10" cx="179.976" cy="42.639" rx="5.947" ry="5.941"/>
		<g>
			<g>
				<defs>
					<rect id="SVGID_25_" x="174.37" y="37.039" width="11.212" height="11.2"/>
				</defs>
				<clipPath id="SVGID_26_">
					<use xlink:href="#SVGID_25_"  overflow="visible"/>
				</clipPath>
				<path clip-path="url(#SVGID_26_)" fill="#BEBEBD" d="M185.583,42.639c0,3.092-2.51,5.6-5.606,5.6
					c-3.096,0-5.604-2.508-5.604-5.6c0-3.093,2.508-5.601,5.604-5.601C183.073,37.039,185.583,39.546,185.583,42.639"/>
				<path clip-path="url(#SVGID_26_)" fill="#C0C0C0" d="M185.45,42.639c0,3.018-2.45,5.467-5.473,5.467
					c-3.022,0-5.472-2.449-5.472-5.467c0-3.02,2.45-5.469,5.472-5.469C183,37.17,185.45,39.62,185.45,42.639"/>
				<path clip-path="url(#SVGID_26_)" fill="#C2C3C3" d="M185.317,42.639c0,2.946-2.39,5.336-5.341,5.336
					c-2.949,0-5.34-2.39-5.34-5.336c0-2.947,2.391-5.336,5.34-5.336C182.928,37.303,185.317,39.692,185.317,42.639"/>
				<path clip-path="url(#SVGID_26_)" fill="#C4C5C4" d="M185.186,42.639c0,2.874-2.331,5.203-5.209,5.203
					c-2.876,0-5.21-2.329-5.21-5.203c0-2.877,2.334-5.205,5.21-5.205C182.855,37.434,185.186,39.762,185.186,42.639"/>
				<path clip-path="url(#SVGID_26_)" fill="#C6C8C8" d="M185.054,42.639c0,2.801-2.274,5.072-5.077,5.072
					c-2.804,0-5.078-2.271-5.078-5.072c0-2.802,2.273-5.074,5.078-5.074C182.78,37.565,185.054,39.837,185.054,42.639"/>
				<path clip-path="url(#SVGID_26_)" fill="#C9CACB" d="M184.921,42.639c0,2.727-2.212,4.939-4.945,4.939
					c-2.731,0-4.946-2.213-4.946-4.939c0-2.73,2.215-4.942,4.946-4.942C182.709,37.697,184.921,39.909,184.921,42.639"/>
				<path clip-path="url(#SVGID_26_)" fill="#CBCDCD" d="M184.792,42.639c0,2.654-2.157,4.811-4.815,4.811
					c-2.658,0-4.813-2.156-4.813-4.811c0-2.657,2.155-4.813,4.813-4.813C182.635,37.827,184.792,39.982,184.792,42.639"/>
				<path clip-path="url(#SVGID_26_)" fill="#CCCFD0" d="M184.66,42.639c0,2.582-2.097,4.678-4.683,4.678
					c-2.584,0-4.682-2.096-4.682-4.678c0-2.584,2.097-4.68,4.682-4.68C182.563,37.959,184.66,40.055,184.66,42.639"/>
				<path clip-path="url(#SVGID_26_)" fill="#D0D2D2" d="M184.527,42.639c0,2.51-2.038,4.545-4.551,4.545
					c-2.512,0-4.55-2.035-4.55-4.545c0-2.512,2.038-4.548,4.55-4.548C182.489,38.091,184.527,40.127,184.527,42.639"/>
				<path clip-path="url(#SVGID_26_)" fill="#D2D4D5" d="M184.395,42.639c0,2.436-1.977,4.414-4.418,4.414
					c-2.44,0-4.417-1.979-4.417-4.414c0-2.439,1.977-4.416,4.417-4.416C182.418,38.223,184.395,40.2,184.395,42.639"/>
			</g>
		</g>
		<polygon fill="#605F5E" points="179.246,46.005 179.246,43.37 176.606,43.37 176.606,41.907 179.246,41.907 179.246,39.272 
			180.71,39.272 180.71,41.907 183.346,41.907 183.346,43.37 180.71,43.37 180.71,46.005 		"/>
		<path fill="#221714" d="M180.583,39.397v2.382v0.255h0.254h2.383v1.209h-2.383h-0.254v0.254v2.382h-1.21v-2.382v-0.254h-0.254
			h-2.386v-1.209h2.386h0.254v-0.255v-2.382H180.583z M180.836,39.145h-1.718v2.634h-2.637v1.718h2.637v2.635h1.718v-2.635h2.637
			v-1.718h-2.637V39.145z"/>
	</g>
	<g>
		<path fill="#AFAEAE" d="M263.918,42.639c0,4.466-3.623,8.086-8.093,8.086c-4.471,0-8.094-3.62-8.094-8.086
			s3.623-8.087,8.094-8.087C260.295,34.552,263.918,38.173,263.918,42.639"/>
		<ellipse fill="none" stroke="#929292" stroke-miterlimit="10" cx="255.824" cy="42.639" rx="8.094" ry="8.086"/>
		<path fill="#AFAEAE" d="M261.772,42.639c0,3.281-2.664,5.941-5.947,5.941c-3.285,0-5.949-2.66-5.949-5.941
			c0-3.282,2.664-5.941,5.949-5.941C259.108,36.698,261.772,39.357,261.772,42.639"/>
		<ellipse fill="none" stroke="#929292" stroke-miterlimit="10" cx="255.824" cy="42.639" rx="5.948" ry="5.941"/>
		<g>
			<g>
				<defs>
					<rect id="SVGID_27_" x="250.217" y="37.039" width="11.212" height="11.2"/>
				</defs>
				<clipPath id="SVGID_28_">
					<use xlink:href="#SVGID_27_"  overflow="visible"/>
				</clipPath>
				<path clip-path="url(#SVGID_28_)" fill="#BEBEBD" d="M261.429,42.639c0,3.094-2.51,5.6-5.604,5.6
					c-3.097,0-5.607-2.506-5.607-5.6c0-3.093,2.51-5.601,5.607-5.601C258.919,37.039,261.429,39.546,261.429,42.639"/>
				<path clip-path="url(#SVGID_28_)" fill="#C0C0C0" d="M261.297,42.639c0,3.018-2.45,5.467-5.472,5.467
					c-3.026,0-5.475-2.449-5.475-5.467c0-3.02,2.449-5.469,5.475-5.469C258.847,37.17,261.297,39.62,261.297,42.639"/>
				<path clip-path="url(#SVGID_28_)" fill="#C2C3C3" d="M261.166,42.639c0,2.946-2.393,5.336-5.341,5.336
					c-2.951,0-5.343-2.39-5.343-5.336c0-2.947,2.392-5.336,5.343-5.336C258.773,37.303,261.166,39.692,261.166,42.639"/>
				<path clip-path="url(#SVGID_28_)" fill="#C4C5C4" d="M261.034,42.639c0,2.874-2.332,5.203-5.208,5.203
					c-2.878,0-5.211-2.329-5.211-5.203c0-2.877,2.333-5.203,5.211-5.203C258.702,37.436,261.034,39.762,261.034,42.639"/>
				<path clip-path="url(#SVGID_28_)" fill="#C6C8C8" d="M260.9,42.639c0,2.801-2.273,5.072-5.075,5.072
					c-2.805,0-5.079-2.271-5.079-5.072c0-2.802,2.273-5.074,5.079-5.074C258.627,37.565,260.9,39.837,260.9,42.639"/>
				<path clip-path="url(#SVGID_28_)" fill="#C9CACB" d="M260.77,42.639c0,2.729-2.214,4.941-4.945,4.941
					c-2.732,0-4.946-2.213-4.946-4.941c0-2.73,2.214-4.942,4.946-4.942C258.556,37.697,260.77,39.909,260.77,42.639"/>
				<path clip-path="url(#SVGID_28_)" fill="#CBCDCD" d="M260.638,42.639c0,2.654-2.156,4.811-4.813,4.811
					c-2.661,0-4.815-2.156-4.815-4.811c0-2.656,2.155-4.811,4.815-4.811C258.482,37.829,260.638,39.983,260.638,42.639"/>
				<path clip-path="url(#SVGID_28_)" fill="#CCCFD0" d="M260.505,42.639c0,2.582-2.096,4.678-4.68,4.678
					c-2.588,0-4.684-2.096-4.684-4.678c0-2.584,2.096-4.678,4.684-4.678C258.41,37.961,260.505,40.055,260.505,42.639"/>
				<path clip-path="url(#SVGID_28_)" fill="#D0D2D2" d="M260.376,42.639c0,2.51-2.039,4.547-4.551,4.547
					c-2.513,0-4.552-2.037-4.552-4.547s2.039-4.548,4.552-4.548C258.337,38.091,260.376,40.129,260.376,42.639"/>
				<path clip-path="url(#SVGID_28_)" fill="#D2D4D5" d="M260.244,42.639c0,2.438-1.979,4.414-4.418,4.414
					c-2.441,0-4.419-1.977-4.419-4.414c0-2.439,1.978-4.416,4.419-4.416C258.264,38.223,260.244,40.2,260.244,42.639"/>
			</g>
		</g>
		<polygon fill="#605F5E" points="255.091,46.005 255.091,43.372 252.452,43.372 252.452,41.909 255.091,41.909 255.091,39.272 
			256.556,39.272 256.556,41.909 259.193,41.909 259.193,43.372 256.556,43.372 256.556,46.005 		"/>
		<path fill="#221714" d="M256.429,39.399v2.38v0.256h0.254h2.384v1.208h-2.384h-0.254v0.254v2.382h-1.211v-2.382v-0.254h-0.253
			h-2.386v-1.208h2.386h0.253v-0.256v-2.38H256.429z M256.683,39.145h-1.718v2.634h-2.639v1.718h2.639v2.635h1.718v-2.635h2.636
			v-1.718h-2.636V39.145z"/>
	</g>
	<g>
		<path fill="#AFAEAE" d="M188.072,118.299c0,4.465-3.623,8.084-8.095,8.084c-4.469,0-8.094-3.619-8.094-8.084
			c0-4.467,3.625-8.088,8.094-8.088C184.449,110.211,188.072,113.833,188.072,118.299"/>
		<ellipse fill="none" stroke="#929292" stroke-miterlimit="10" cx="179.977" cy="118.299" rx="8.094" ry="8.084"/>
		<path fill="#AFAEAE" d="M185.923,118.299c0,3.279-2.662,5.941-5.947,5.941c-3.284,0-5.947-2.662-5.947-5.941
			c0-3.282,2.664-5.944,5.947-5.944C183.261,112.355,185.923,115.017,185.923,118.299"/>
		<ellipse fill="none" stroke="#929292" stroke-miterlimit="10" cx="179.976" cy="118.299" rx="5.947" ry="5.941"/>
		<g>
			<g>
				<defs>
					<rect id="SVGID_29_" x="174.37" y="112.698" width="11.212" height="11.201"/>
				</defs>
				<clipPath id="SVGID_30_">
					<use xlink:href="#SVGID_29_"  overflow="visible"/>
				</clipPath>
				<path clip-path="url(#SVGID_30_)" fill="#BEBEBD" d="M185.583,118.299c0,3.092-2.51,5.6-5.606,5.6
					c-3.096,0-5.604-2.508-5.604-5.6c0-3.096,2.508-5.602,5.604-5.602C183.073,112.698,185.583,115.204,185.583,118.299"/>
				<path clip-path="url(#SVGID_30_)" fill="#C0C0C0" d="M185.45,118.299c0,3.018-2.45,5.466-5.473,5.466
					c-3.022,0-5.472-2.448-5.472-5.466c0-3.021,2.45-5.471,5.472-5.471C183,112.829,185.45,115.278,185.45,118.299"/>
				<path clip-path="url(#SVGID_30_)" fill="#C2C3C3" d="M185.317,118.299c0,2.945-2.39,5.334-5.341,5.334
					c-2.949,0-5.34-2.389-5.34-5.334c0-2.949,2.391-5.338,5.34-5.338C182.928,112.961,185.317,115.35,185.317,118.299"/>
				<path clip-path="url(#SVGID_30_)" fill="#C4C5C4" d="M185.186,118.299c0,2.873-2.331,5.203-5.209,5.203
					c-2.876,0-5.21-2.33-5.21-5.203c0-2.876,2.334-5.205,5.21-5.205C182.855,113.094,185.186,115.423,185.186,118.299"/>
				<path clip-path="url(#SVGID_30_)" fill="#C6C8C8" d="M185.054,118.299c0,2.801-2.274,5.07-5.077,5.07
					c-2.804,0-5.078-2.27-5.078-5.07c0-2.802,2.273-5.074,5.078-5.074C182.78,113.225,185.054,115.498,185.054,118.299"/>
				<path clip-path="url(#SVGID_30_)" fill="#C9CACB" d="M184.921,118.299c0,2.727-2.212,4.938-4.945,4.938
					c-2.731,0-4.946-2.212-4.946-4.938c0-2.73,2.215-4.943,4.946-4.943C182.709,113.356,184.921,115.569,184.921,118.299"/>
				<path clip-path="url(#SVGID_30_)" fill="#CBCDCD" d="M184.792,118.299c0,2.655-2.157,4.809-4.815,4.809
					c-2.658,0-4.813-2.153-4.813-4.809c0-2.658,2.155-4.813,4.813-4.813C182.635,113.487,184.792,115.641,184.792,118.299"/>
				<path clip-path="url(#SVGID_30_)" fill="#CCCFD0" d="M184.66,118.299c0,2.582-2.097,4.678-4.683,4.678
					c-2.584,0-4.682-2.096-4.682-4.678c0-2.586,2.097-4.679,4.682-4.679C182.563,113.621,184.66,115.713,184.66,118.299"/>
				<path clip-path="url(#SVGID_30_)" fill="#D0D2D2" d="M184.527,118.299c0,2.51-2.038,4.545-4.551,4.545
					c-2.512,0-4.55-2.035-4.55-4.545c0-2.514,2.038-4.549,4.55-4.549C182.489,113.75,184.527,115.786,184.527,118.299"/>
				<path clip-path="url(#SVGID_30_)" fill="#D2D4D5" d="M184.395,118.299c0,2.436-1.977,4.412-4.418,4.412
					c-2.44,0-4.417-1.977-4.417-4.412c0-2.441,1.977-4.416,4.417-4.416C182.418,113.883,184.395,115.858,184.395,118.299"/>
			</g>
		</g>
		<polygon fill="#605F5E" points="179.246,121.666 179.246,119.029 176.606,119.029 176.606,117.567 179.246,117.567 
			179.246,114.93 180.71,114.93 180.71,117.567 183.346,117.567 183.346,119.029 180.71,119.029 180.71,121.666 		"/>
		<path fill="#221714" d="M180.583,115.057v2.381v0.254h0.254h2.383v1.211h-2.383h-0.254v0.252v2.382h-1.21v-2.382v-0.252h-0.254
			h-2.386v-1.211h2.386h0.254v-0.254v-2.381H180.583z M180.836,114.805h-1.718v2.633h-2.637v1.717h2.637v2.635h1.718v-2.635h2.637
			v-1.717h-2.637V114.805z"/>
	</g>
	<g>
		<path fill="#AFAEAE" d="M263.918,118.299c0,4.465-3.623,8.084-8.093,8.084c-4.471,0-8.094-3.619-8.094-8.084
			c0-4.467,3.623-8.088,8.094-8.088C260.295,110.211,263.918,113.833,263.918,118.299"/>
		<ellipse fill="none" stroke="#929292" stroke-miterlimit="10" cx="255.824" cy="118.299" rx="8.094" ry="8.084"/>
		<path fill="#AFAEAE" d="M261.772,118.299c0,3.279-2.664,5.941-5.947,5.941c-3.285,0-5.949-2.662-5.949-5.941
			c0-3.282,2.664-5.944,5.949-5.944C259.108,112.355,261.772,115.017,261.772,118.299"/>
		<ellipse fill="none" stroke="#929292" stroke-miterlimit="10" cx="255.824" cy="118.299" rx="5.948" ry="5.941"/>
		<g>
			<g>
				<defs>
					<rect id="SVGID_31_" x="250.217" y="112.699" width="11.212" height="11.2"/>
				</defs>
				<clipPath id="SVGID_32_">
					<use xlink:href="#SVGID_31_"  overflow="visible"/>
				</clipPath>
				<path clip-path="url(#SVGID_32_)" fill="#BEBEBD" d="M261.429,118.299c0,3.092-2.51,5.6-5.604,5.6
					c-3.097,0-5.607-2.508-5.607-5.6c0-3.094,2.51-5.601,5.607-5.601C258.919,112.699,261.429,115.206,261.429,118.299"/>
				<path clip-path="url(#SVGID_32_)" fill="#C0C0C0" d="M261.297,118.299c0,3.018-2.45,5.466-5.472,5.466
					c-3.026,0-5.475-2.448-5.475-5.466c0-3.021,2.449-5.471,5.475-5.471C258.847,112.829,261.297,115.278,261.297,118.299"/>
				<path clip-path="url(#SVGID_32_)" fill="#C2C3C3" d="M261.166,118.299c0,2.945-2.393,5.336-5.341,5.336
					c-2.951,0-5.343-2.391-5.343-5.336c0-2.949,2.392-5.338,5.343-5.338C258.773,112.961,261.166,115.35,261.166,118.299"/>
				<path clip-path="url(#SVGID_32_)" fill="#C4C5C4" d="M261.034,118.299c0,2.873-2.332,5.203-5.208,5.203
					c-2.878,0-5.211-2.33-5.211-5.203c0-2.876,2.333-5.205,5.211-5.205C258.702,113.094,261.034,115.423,261.034,118.299"/>
				<path clip-path="url(#SVGID_32_)" fill="#C6C8C8" d="M260.9,118.299c0,2.801-2.273,5.07-5.075,5.07
					c-2.805,0-5.079-2.27-5.079-5.07c0-2.802,2.273-5.074,5.079-5.074C258.627,113.225,260.9,115.498,260.9,118.299"/>
				<path clip-path="url(#SVGID_32_)" fill="#C9CACB" d="M260.77,118.299c0,2.727-2.214,4.938-4.945,4.938
					c-2.732,0-4.946-2.212-4.946-4.938c0-2.73,2.214-4.943,4.946-4.943C258.556,113.356,260.77,115.569,260.77,118.299"/>
				<path clip-path="url(#SVGID_32_)" fill="#CBCDCD" d="M260.638,118.299c0,2.655-2.156,4.809-4.813,4.809
					c-2.661,0-4.815-2.153-4.815-4.809c0-2.656,2.155-4.813,4.815-4.813C258.482,113.487,260.638,115.643,260.638,118.299"/>
				<path clip-path="url(#SVGID_32_)" fill="#CCCFD0" d="M260.505,118.299c0,2.582-2.096,4.678-4.68,4.678
					c-2.588,0-4.684-2.096-4.684-4.678c0-2.583,2.096-4.679,4.684-4.679C258.41,113.621,260.505,115.716,260.505,118.299"/>
				<path clip-path="url(#SVGID_32_)" fill="#D0D2D2" d="M260.376,118.299c0,2.51-2.039,4.545-4.551,4.545
					c-2.513,0-4.552-2.035-4.552-4.545c0-2.514,2.039-4.549,4.552-4.549C258.337,113.75,260.376,115.786,260.376,118.299"/>
				<path clip-path="url(#SVGID_32_)" fill="#D2D4D5" d="M260.244,118.299c0,2.437-1.979,4.414-4.418,4.414
					c-2.441,0-4.419-1.978-4.419-4.414c0-2.438,1.978-4.415,4.419-4.415C258.264,113.884,260.244,115.862,260.244,118.299"/>
			</g>
		</g>
		<polygon fill="#605F5E" points="255.091,121.666 255.091,119.029 252.452,119.029 252.452,117.567 255.091,117.567 
			255.091,114.932 256.556,114.932 256.556,117.567 259.193,117.567 259.193,119.029 256.556,119.029 256.556,121.666 		"/>
		<path fill="#221714" d="M256.429,115.057v2.381v0.254h0.254h2.384v1.211h-2.384h-0.254v0.252v2.383h-1.211v-2.383v-0.252h-0.253
			h-2.386v-1.211h2.386h0.253v-0.254v-2.381H256.429z M256.683,114.805h-1.718v2.633h-2.639v1.717h2.639v2.635h1.718v-2.635h2.636
			v-1.717h-2.636V114.805z"/>
	</g>
</g>
<g>
	<radialGradient id="SVGID_33_" cx="78.9746" cy="56.0146" r="6.3652" gradientUnits="userSpaceOnUse">
		<stop  offset="0" style="stop-color:#FFFFFF"/>
		<stop  offset="1" style="stop-color:#8DC21F"/>
	</radialGradient>
	<circle fill="url(#SVGID_33_)" stroke="#030000" stroke-width="0.5" stroke-miterlimit="10" cx="78.975" cy="56.014" r="6.365"/>
	<radialGradient id="SVGID_34_" cx="111.623" cy="56.0146" r="6.3652" gradientUnits="userSpaceOnUse">
		<stop  offset="0" style="stop-color:#FFFFFF"/>
		<stop  offset="1" style="stop-color:#252526"/>
	</radialGradient>
	<circle fill="url(#SVGID_34_)" stroke="#030000" stroke-width="0.5" stroke-miterlimit="10" cx="111.623" cy="56.014" r="6.365"/>
</g>
<path fill="#444344" d="M45.167,177.838c0-2.492,1.885-4.512,4.21-4.512h95.262c2.326,0,4.212,2.02,4.212,4.512v55.158
	c0,2.492-1.886,4.512-4.212,4.512H49.377c-2.325,0-4.21-2.02-4.21-4.512V177.838z"/>
<linearGradient id="SVGID_35_" gradientUnits="userSpaceOnUse" x1="22.0674" y1="145.6855" x2="56.7344" y2="145.6855">
	<stop  offset="0.0161" style="stop-color:#753131"/>
	<stop  offset="0.1021" style="stop-color:#995957"/>
	<stop  offset="0.5699" style="stop-color:#753131"/>
	<stop  offset="0.7634" style="stop-color:#EE8A7A"/>
	<stop  offset="1" style="stop-color:#753131"/>
</linearGradient>
<rect x="22.067" y="136.686" fill="url(#SVGID_35_)" width="34.667" height="18"/>
<g>
	<g>
		<rect x="171.883" y="140.033" fill="#030000" width="92.035" height="92.033"/>
		<circle fill="#E4E4E4" cx="217.901" cy="186.051" r="27.365"/>
		<g>
			<linearGradient id="SVGID_36_" gradientUnits="userSpaceOnUse" x1="189.4058" y1="186.0498" x2="192.4541" y2="186.0498">
				<stop  offset="0" style="stop-color:#CBCCCC"/>
				<stop  offset="0.1828" style="stop-color:#B1B4B5"/>
				<stop  offset="0.4408" style="stop-color:#E0DFDE"/>
				<stop  offset="0.6451" style="stop-color:#B1B4B5"/>
				<stop  offset="0.9516" style="stop-color:#B1B4B5"/>
				<stop  offset="1" style="stop-color:#666666"/>
			</linearGradient>
			<rect x="189.406" y="140.033" fill="url(#SVGID_36_)" width="3.048" height="92.033"/>
			<linearGradient id="SVGID_37_" gradientUnits="userSpaceOnUse" x1="207.3877" y1="186.0498" x2="210.4321" y2="186.0498">
				<stop  offset="0" style="stop-color:#CBCCCC"/>
				<stop  offset="0.1828" style="stop-color:#B1B4B5"/>
				<stop  offset="0.4408" style="stop-color:#E0DFDE"/>
				<stop  offset="0.6451" style="stop-color:#B1B4B5"/>
				<stop  offset="0.9516" style="stop-color:#B1B4B5"/>
				<stop  offset="1" style="stop-color:#666666"/>
			</linearGradient>
			<rect x="207.388" y="140.033" fill="url(#SVGID_37_)" width="3.044" height="92.033"/>
			<linearGradient id="SVGID_38_" gradientUnits="userSpaceOnUse" x1="225.3672" y1="186.0498" x2="228.416" y2="186.0498">
				<stop  offset="0" style="stop-color:#CBCCCC"/>
				<stop  offset="0.1828" style="stop-color:#B1B4B5"/>
				<stop  offset="0.4408" style="stop-color:#E0DFDE"/>
				<stop  offset="0.6451" style="stop-color:#B1B4B5"/>
				<stop  offset="0.9516" style="stop-color:#B1B4B5"/>
				<stop  offset="1" style="stop-color:#666666"/>
			</linearGradient>
			<rect x="225.367" y="140.033" fill="url(#SVGID_38_)" width="3.049" height="92.033"/>
			<linearGradient id="SVGID_39_" gradientUnits="userSpaceOnUse" x1="243.3481" y1="186.0498" x2="246.396" y2="186.0498">
				<stop  offset="0" style="stop-color:#CBCCCC"/>
				<stop  offset="0.1828" style="stop-color:#B1B4B5"/>
				<stop  offset="0.4408" style="stop-color:#E0DFDE"/>
				<stop  offset="0.6451" style="stop-color:#B1B4B5"/>
				<stop  offset="0.9516" style="stop-color:#B1B4B5"/>
				<stop  offset="1" style="stop-color:#666666"/>
			</linearGradient>
			<rect x="243.348" y="140.033" fill="url(#SVGID_39_)" width="3.048" height="92.033"/>
		</g>
		<g>
			
				<linearGradient id="SVGID_40_" gradientUnits="userSpaceOnUse" x1="6439.6504" y1="-6916.9941" x2="6442.6973" y2="-6916.9941" gradientTransform="matrix(0 1 -1 0 -6699.0938 -6282.0957)">
				<stop  offset="0" style="stop-color:#CBCCCC"/>
				<stop  offset="0.1828" style="stop-color:#B1B4B5"/>
				<stop  offset="0.4408" style="stop-color:#E0DFDE"/>
				<stop  offset="0.6451" style="stop-color:#B1B4B5"/>
				<stop  offset="0.9516" style="stop-color:#B1B4B5"/>
				<stop  offset="1" style="stop-color:#666666"/>
			</linearGradient>
			<rect x="171.883" y="157.555" fill="url(#SVGID_40_)" width="92.035" height="3.047"/>
			
				<linearGradient id="SVGID_41_" gradientUnits="userSpaceOnUse" x1="6457.6309" y1="-6916.9941" x2="6460.6777" y2="-6916.9941" gradientTransform="matrix(0 1 -1 0 -6699.0938 -6282.0957)">
				<stop  offset="0" style="stop-color:#CBCCCC"/>
				<stop  offset="0.1828" style="stop-color:#B1B4B5"/>
				<stop  offset="0.4408" style="stop-color:#E0DFDE"/>
				<stop  offset="0.6451" style="stop-color:#B1B4B5"/>
				<stop  offset="0.9516" style="stop-color:#B1B4B5"/>
				<stop  offset="1" style="stop-color:#666666"/>
			</linearGradient>
			<rect x="171.883" y="175.535" fill="url(#SVGID_41_)" width="92.035" height="3.047"/>
			
				<linearGradient id="SVGID_42_" gradientUnits="userSpaceOnUse" x1="6475.6113" y1="-6916.9941" x2="6478.6602" y2="-6916.9941" gradientTransform="matrix(0 1 -1 0 -6699.0938 -6282.0957)">
				<stop  offset="0" style="stop-color:#CBCCCC"/>
				<stop  offset="0.1828" style="stop-color:#B1B4B5"/>
				<stop  offset="0.4408" style="stop-color:#E0DFDE"/>
				<stop  offset="0.6451" style="stop-color:#B1B4B5"/>
				<stop  offset="0.9516" style="stop-color:#B1B4B5"/>
				<stop  offset="1" style="stop-color:#666666"/>
			</linearGradient>
			<rect x="171.883" y="193.516" fill="url(#SVGID_42_)" width="92.035" height="3.049"/>
			
				<linearGradient id="SVGID_43_" gradientUnits="userSpaceOnUse" x1="6493.5938" y1="-6916.9941" x2="6496.6406" y2="-6916.9941" gradientTransform="matrix(0 1 -1 0 -6699.0938 -6282.0957)">
				<stop  offset="0" style="stop-color:#CBCCCC"/>
				<stop  offset="0.1828" style="stop-color:#B1B4B5"/>
				<stop  offset="0.4408" style="stop-color:#E0DFDE"/>
				<stop  offset="0.6451" style="stop-color:#B1B4B5"/>
				<stop  offset="0.9516" style="stop-color:#B1B4B5"/>
				<stop  offset="1" style="stop-color:#666666"/>
			</linearGradient>
			<rect x="171.883" y="211.498" fill="url(#SVGID_43_)" width="92.035" height="3.047"/>
		</g>
	</g>
	<g>
		<path fill="#AFAEAE" d="M188.072,148.322c0,4.467-3.623,8.086-8.095,8.086c-4.469,0-8.094-3.619-8.094-8.086
			c0-4.465,3.625-8.088,8.094-8.088C184.449,140.234,188.072,143.857,188.072,148.322"/>
		<ellipse fill="none" stroke="#929292" stroke-miterlimit="10" cx="179.977" cy="148.322" rx="8.094" ry="8.086"/>
		<path fill="#AFAEAE" d="M185.923,148.322c0,3.281-2.662,5.941-5.947,5.941c-3.284,0-5.947-2.66-5.947-5.941
			s2.664-5.943,5.947-5.943C183.261,142.379,185.923,145.041,185.923,148.322"/>
		<ellipse fill="none" stroke="#929292" stroke-miterlimit="10" cx="179.976" cy="148.322" rx="5.947" ry="5.941"/>
		<g>
			<g>
				<defs>
					<rect id="SVGID_44_" x="174.37" y="142.723" width="11.212" height="11.199"/>
				</defs>
				<clipPath id="SVGID_45_">
					<use xlink:href="#SVGID_44_"  overflow="visible"/>
				</clipPath>
				<path clip-path="url(#SVGID_45_)" fill="#BEBEBD" d="M185.583,148.322c0,3.092-2.51,5.6-5.606,5.6
					c-3.096,0-5.604-2.508-5.604-5.6s2.508-5.6,5.604-5.6C183.073,142.723,185.583,145.23,185.583,148.322"/>
				<path clip-path="url(#SVGID_45_)" fill="#C0C0C0" d="M185.45,148.322c0,3.018-2.45,5.467-5.473,5.467
					c-3.022,0-5.472-2.449-5.472-5.467c0-3.02,2.45-5.469,5.472-5.469C183,142.854,185.45,145.303,185.45,148.322"/>
				<path clip-path="url(#SVGID_45_)" fill="#C2C3C3" d="M185.317,148.322c0,2.947-2.39,5.336-5.341,5.336
					c-2.949,0-5.34-2.389-5.34-5.336s2.391-5.336,5.34-5.336C182.928,142.986,185.317,145.375,185.317,148.322"/>
				<path clip-path="url(#SVGID_45_)" fill="#C4C5C4" d="M185.186,148.322c0,2.875-2.331,5.203-5.209,5.203
					c-2.876,0-5.21-2.328-5.21-5.203c0-2.877,2.334-5.205,5.21-5.205C182.855,143.117,185.186,145.445,185.186,148.322"/>
				<path clip-path="url(#SVGID_45_)" fill="#C6C8C8" d="M185.054,148.322c0,2.801-2.274,5.072-5.077,5.072
					c-2.804,0-5.078-2.271-5.078-5.072s2.273-5.074,5.078-5.074C182.78,143.248,185.054,145.521,185.054,148.322"/>
				<path clip-path="url(#SVGID_45_)" fill="#C9CACB" d="M184.921,148.322c0,2.727-2.212,4.939-4.945,4.939
					c-2.731,0-4.946-2.213-4.946-4.939c0-2.73,2.215-4.941,4.946-4.941C182.709,143.381,184.921,145.592,184.921,148.322"/>
				<path clip-path="url(#SVGID_45_)" fill="#CBCDCD" d="M184.792,148.322c0,2.654-2.157,4.811-4.815,4.811
					c-2.658,0-4.813-2.156-4.813-4.811c0-2.656,2.155-4.813,4.813-4.813C182.635,143.51,184.792,145.666,184.792,148.322"/>
				<path clip-path="url(#SVGID_45_)" fill="#CCCFD0" d="M184.66,148.322c0,2.582-2.097,4.678-4.683,4.678
					c-2.584,0-4.682-2.096-4.682-4.678c0-2.584,2.097-4.68,4.682-4.68C182.563,143.643,184.66,145.738,184.66,148.322"/>
				<path clip-path="url(#SVGID_45_)" fill="#D0D2D2" d="M184.527,148.322c0,2.51-2.038,4.545-4.551,4.545
					c-2.512,0-4.55-2.035-4.55-4.545c0-2.512,2.038-4.547,4.55-4.547C182.489,143.775,184.527,145.811,184.527,148.322"/>
				<path clip-path="url(#SVGID_45_)" fill="#D2D4D5" d="M184.395,148.322c0,2.436-1.977,4.414-4.418,4.414
					c-2.44,0-4.417-1.979-4.417-4.414c0-2.439,1.977-4.416,4.417-4.416C182.418,143.906,184.395,145.883,184.395,148.322"/>
			</g>
		</g>
		<polygon fill="#605F5E" points="179.246,151.689 179.246,149.053 176.606,149.053 176.606,147.59 179.246,147.59 179.246,144.955 
			180.71,144.955 180.71,147.59 183.346,147.59 183.346,149.053 180.71,149.053 180.71,151.689 		"/>
		<path fill="#221714" d="M180.583,145.08v2.383v0.254h0.254h2.383v1.209h-2.383h-0.254v0.254v2.383h-1.21v-2.383v-0.254h-0.254
			h-2.386v-1.209h2.386h0.254v-0.254v-2.383H180.583z M180.836,144.828h-1.718v2.635h-2.637v1.717h2.637v2.635h1.718v-2.635h2.637
			v-1.717h-2.637V144.828z"/>
	</g>
	<g>
		<path fill="#AFAEAE" d="M263.918,148.322c0,4.467-3.623,8.086-8.093,8.086c-4.471,0-8.094-3.619-8.094-8.086
			c0-4.465,3.623-8.086,8.094-8.086C260.295,140.236,263.918,143.857,263.918,148.322"/>
		<ellipse fill="none" stroke="#929292" stroke-miterlimit="10" cx="255.824" cy="148.322" rx="8.094" ry="8.086"/>
		<path fill="#AFAEAE" d="M261.772,148.322c0,3.281-2.664,5.941-5.947,5.941c-3.285,0-5.949-2.66-5.949-5.941
			s2.664-5.941,5.949-5.941C259.108,142.381,261.772,145.041,261.772,148.322"/>
		<ellipse fill="none" stroke="#929292" stroke-miterlimit="10" cx="255.824" cy="148.322" rx="5.948" ry="5.941"/>
		<g>
			<g>
				<defs>
					<rect id="SVGID_46_" x="250.217" y="142.723" width="11.212" height="11.199"/>
				</defs>
				<clipPath id="SVGID_47_">
					<use xlink:href="#SVGID_46_"  overflow="visible"/>
				</clipPath>
				<path clip-path="url(#SVGID_47_)" fill="#BEBEBD" d="M261.429,148.322c0,3.094-2.51,5.6-5.604,5.6
					c-3.097,0-5.607-2.506-5.607-5.6c0-3.092,2.51-5.6,5.607-5.6C258.919,142.723,261.429,145.23,261.429,148.322"/>
				<path clip-path="url(#SVGID_47_)" fill="#C0C0C0" d="M261.297,148.322c0,3.018-2.45,5.467-5.472,5.467
					c-3.026,0-5.475-2.449-5.475-5.467c0-3.02,2.449-5.469,5.475-5.469C258.847,142.854,261.297,145.303,261.297,148.322"/>
				<path clip-path="url(#SVGID_47_)" fill="#C2C3C3" d="M261.166,148.322c0,2.947-2.393,5.336-5.341,5.336
					c-2.951,0-5.343-2.389-5.343-5.336s2.392-5.336,5.343-5.336C258.773,142.986,261.166,145.375,261.166,148.322"/>
				<path clip-path="url(#SVGID_47_)" fill="#C4C5C4" d="M261.034,148.322c0,2.875-2.332,5.203-5.208,5.203
					c-2.878,0-5.211-2.328-5.211-5.203c0-2.877,2.333-5.203,5.211-5.203C258.702,143.119,261.034,145.445,261.034,148.322"/>
				<path clip-path="url(#SVGID_47_)" fill="#C6C8C8" d="M260.9,148.322c0,2.801-2.273,5.072-5.075,5.072
					c-2.805,0-5.079-2.271-5.079-5.072s2.273-5.074,5.079-5.074C258.627,143.248,260.9,145.521,260.9,148.322"/>
				<path clip-path="url(#SVGID_47_)" fill="#C9CACB" d="M260.77,148.322c0,2.729-2.214,4.941-4.945,4.941
					c-2.732,0-4.946-2.213-4.946-4.941c0-2.73,2.214-4.941,4.946-4.941C258.556,143.381,260.77,145.592,260.77,148.322"/>
				<path clip-path="url(#SVGID_47_)" fill="#CBCDCD" d="M260.638,148.322c0,2.654-2.156,4.811-4.813,4.811
					c-2.661,0-4.815-2.156-4.815-4.811c0-2.656,2.155-4.811,4.815-4.811C258.482,143.512,260.638,145.666,260.638,148.322"/>
				<path clip-path="url(#SVGID_47_)" fill="#CCCFD0" d="M260.505,148.322c0,2.582-2.096,4.678-4.68,4.678
					c-2.588,0-4.684-2.096-4.684-4.678c0-2.584,2.096-4.678,4.684-4.678C258.41,143.645,260.505,145.738,260.505,148.322"/>
				<path clip-path="url(#SVGID_47_)" fill="#D0D2D2" d="M260.376,148.322c0,2.51-2.039,4.547-4.551,4.547
					c-2.513,0-4.552-2.037-4.552-4.547s2.039-4.547,4.552-4.547C258.337,143.775,260.376,145.813,260.376,148.322"/>
				<path clip-path="url(#SVGID_47_)" fill="#D2D4D5" d="M260.244,148.322c0,2.438-1.979,4.414-4.418,4.414
					c-2.441,0-4.419-1.977-4.419-4.414c0-2.439,1.978-4.416,4.419-4.416C258.264,143.906,260.244,145.883,260.244,148.322"/>
			</g>
		</g>
		<polygon fill="#605F5E" points="255.091,151.689 255.091,149.055 252.452,149.055 252.452,147.592 255.091,147.592 
			255.091,144.955 256.556,144.955 256.556,147.592 259.193,147.592 259.193,149.055 256.556,149.055 256.556,151.689 		"/>
		<path fill="#221714" d="M256.429,145.082v2.381v0.256h0.254h2.384v1.207h-2.384h-0.254v0.254v2.383h-1.211v-2.383v-0.254h-0.253
			h-2.386v-1.207h2.386h0.253v-0.256v-2.381H256.429z M256.683,144.828h-1.718v2.635h-2.639v1.717h2.639v2.635h1.718v-2.635h2.636
			v-1.717h-2.636V144.828z"/>
	</g>
	<g>
		<path fill="#AFAEAE" d="M188.072,223.982c0,4.465-3.623,8.084-8.095,8.084c-4.469,0-8.094-3.619-8.094-8.084
			c0-4.467,3.625-8.088,8.094-8.088C184.449,215.895,188.072,219.516,188.072,223.982"/>
		<ellipse fill="none" stroke="#929292" stroke-miterlimit="10" cx="179.977" cy="223.982" rx="8.094" ry="8.084"/>
		<path fill="#AFAEAE" d="M185.923,223.982c0,3.279-2.662,5.941-5.947,5.941c-3.284,0-5.947-2.662-5.947-5.941
			c0-3.281,2.664-5.943,5.947-5.943C183.261,218.039,185.923,220.701,185.923,223.982"/>
		<ellipse fill="none" stroke="#929292" stroke-miterlimit="10" cx="179.976" cy="223.982" rx="5.947" ry="5.941"/>
		<g>
			<g>
				<defs>
					<rect id="SVGID_48_" x="174.37" y="218.381" width="11.212" height="11.201"/>
				</defs>
				<clipPath id="SVGID_49_">
					<use xlink:href="#SVGID_48_"  overflow="visible"/>
				</clipPath>
				<path clip-path="url(#SVGID_49_)" fill="#BEBEBD" d="M185.583,223.982c0,3.092-2.51,5.6-5.606,5.6
					c-3.096,0-5.604-2.508-5.604-5.6c0-3.096,2.508-5.602,5.604-5.602C183.073,218.381,185.583,220.887,185.583,223.982"/>
				<path clip-path="url(#SVGID_49_)" fill="#C0C0C0" d="M185.45,223.982c0,3.018-2.45,5.467-5.473,5.467
					c-3.022,0-5.472-2.449-5.472-5.467c0-3.021,2.45-5.471,5.472-5.471C183,218.512,185.45,220.961,185.45,223.982"/>
				<path clip-path="url(#SVGID_49_)" fill="#C2C3C3" d="M185.317,223.982c0,2.945-2.39,5.334-5.341,5.334
					c-2.949,0-5.34-2.389-5.34-5.334c0-2.949,2.391-5.338,5.34-5.338C182.928,218.645,185.317,221.033,185.317,223.982"/>
				<path clip-path="url(#SVGID_49_)" fill="#C4C5C4" d="M185.186,223.982c0,2.873-2.331,5.203-5.209,5.203
					c-2.876,0-5.21-2.33-5.21-5.203c0-2.875,2.334-5.205,5.21-5.205C182.855,218.777,185.186,221.107,185.186,223.982"/>
				<path clip-path="url(#SVGID_49_)" fill="#C6C8C8" d="M185.054,223.982c0,2.801-2.274,5.07-5.077,5.07
					c-2.804,0-5.078-2.27-5.078-5.07s2.273-5.074,5.078-5.074C182.78,218.908,185.054,221.182,185.054,223.982"/>
				<path clip-path="url(#SVGID_49_)" fill="#C9CACB" d="M184.921,223.982c0,2.727-2.212,4.939-4.945,4.939
					c-2.731,0-4.946-2.213-4.946-4.939c0-2.73,2.215-4.943,4.946-4.943C182.709,219.039,184.921,221.252,184.921,223.982"/>
				<path clip-path="url(#SVGID_49_)" fill="#CBCDCD" d="M184.792,223.982c0,2.656-2.157,4.809-4.815,4.809
					c-2.658,0-4.813-2.152-4.813-4.809c0-2.658,2.155-4.813,4.813-4.813C182.635,219.17,184.792,221.324,184.792,223.982"/>
				<path clip-path="url(#SVGID_49_)" fill="#CCCFD0" d="M184.66,223.982c0,2.582-2.097,4.678-4.683,4.678
					c-2.584,0-4.682-2.096-4.682-4.678c0-2.586,2.097-4.678,4.682-4.678C182.563,219.305,184.66,221.396,184.66,223.982"/>
				<path clip-path="url(#SVGID_49_)" fill="#D0D2D2" d="M184.527,223.982c0,2.51-2.038,4.545-4.551,4.545
					c-2.512,0-4.55-2.035-4.55-4.545c0-2.514,2.038-4.549,4.55-4.549C182.489,219.434,184.527,221.469,184.527,223.982"/>
				<path clip-path="url(#SVGID_49_)" fill="#D2D4D5" d="M184.395,223.982c0,2.436-1.977,4.412-4.418,4.412
					c-2.44,0-4.417-1.977-4.417-4.412c0-2.441,1.977-4.416,4.417-4.416C182.418,219.566,184.395,221.541,184.395,223.982"/>
			</g>
		</g>
		<polygon fill="#605F5E" points="179.246,227.35 179.246,224.713 176.606,224.713 176.606,223.25 179.246,223.25 179.246,220.613 
			180.71,220.613 180.71,223.25 183.346,223.25 183.346,224.713 180.71,224.713 180.71,227.35 		"/>
		<path fill="#221714" d="M180.583,220.74v2.381v0.254h0.254h2.383v1.211h-2.383h-0.254v0.252v2.383h-1.21v-2.383v-0.252h-0.254
			h-2.386v-1.211h2.386h0.254v-0.254v-2.381H180.583z M180.836,220.488h-1.718v2.633h-2.637v1.717h2.637v2.635h1.718v-2.635h2.637
			v-1.717h-2.637V220.488z"/>
	</g>
	<g>
		<path fill="#AFAEAE" d="M263.918,223.982c0,4.465-3.623,8.084-8.093,8.084c-4.471,0-8.094-3.619-8.094-8.084
			c0-4.467,3.623-8.088,8.094-8.088C260.295,215.895,263.918,219.516,263.918,223.982"/>
		<ellipse fill="none" stroke="#929292" stroke-miterlimit="10" cx="255.824" cy="223.982" rx="8.094" ry="8.084"/>
		<path fill="#AFAEAE" d="M261.772,223.982c0,3.279-2.664,5.941-5.947,5.941c-3.285,0-5.949-2.662-5.949-5.941
			c0-3.281,2.664-5.943,5.949-5.943C259.108,218.039,261.772,220.701,261.772,223.982"/>
		<ellipse fill="none" stroke="#929292" stroke-miterlimit="10" cx="255.824" cy="223.982" rx="5.948" ry="5.941"/>
		<g>
			<g>
				<defs>
					<rect id="SVGID_50_" x="250.217" y="218.383" width="11.212" height="11.199"/>
				</defs>
				<clipPath id="SVGID_51_">
					<use xlink:href="#SVGID_50_"  overflow="visible"/>
				</clipPath>
				<path clip-path="url(#SVGID_51_)" fill="#BEBEBD" d="M261.429,223.982c0,3.092-2.51,5.6-5.604,5.6
					c-3.097,0-5.607-2.508-5.607-5.6c0-3.094,2.51-5.6,5.607-5.6C258.919,218.383,261.429,220.889,261.429,223.982"/>
				<path clip-path="url(#SVGID_51_)" fill="#C0C0C0" d="M261.297,223.982c0,3.018-2.45,5.467-5.472,5.467
					c-3.026,0-5.475-2.449-5.475-5.467c0-3.021,2.449-5.471,5.475-5.471C258.847,218.512,261.297,220.961,261.297,223.982"/>
				<path clip-path="url(#SVGID_51_)" fill="#C2C3C3" d="M261.166,223.982c0,2.945-2.393,5.336-5.341,5.336
					c-2.951,0-5.343-2.391-5.343-5.336c0-2.949,2.392-5.338,5.343-5.338C258.773,218.645,261.166,221.033,261.166,223.982"/>
				<path clip-path="url(#SVGID_51_)" fill="#C4C5C4" d="M261.034,223.982c0,2.873-2.332,5.203-5.208,5.203
					c-2.878,0-5.211-2.33-5.211-5.203c0-2.875,2.333-5.205,5.211-5.205C258.702,218.777,261.034,221.107,261.034,223.982"/>
				<path clip-path="url(#SVGID_51_)" fill="#C6C8C8" d="M260.9,223.982c0,2.801-2.273,5.07-5.075,5.07
					c-2.805,0-5.079-2.27-5.079-5.07s2.273-5.074,5.079-5.074C258.627,218.908,260.9,221.182,260.9,223.982"/>
				<path clip-path="url(#SVGID_51_)" fill="#C9CACB" d="M260.77,223.982c0,2.727-2.214,4.939-4.945,4.939
					c-2.732,0-4.946-2.213-4.946-4.939c0-2.73,2.214-4.943,4.946-4.943C258.556,219.039,260.77,221.252,260.77,223.982"/>
				<path clip-path="url(#SVGID_51_)" fill="#CBCDCD" d="M260.638,223.982c0,2.656-2.156,4.809-4.813,4.809
					c-2.661,0-4.815-2.152-4.815-4.809s2.155-4.813,4.815-4.813C258.482,219.17,260.638,221.326,260.638,223.982"/>
				<path clip-path="url(#SVGID_51_)" fill="#CCCFD0" d="M260.505,223.982c0,2.582-2.096,4.678-4.68,4.678
					c-2.588,0-4.684-2.096-4.684-4.678s2.096-4.678,4.684-4.678C258.41,219.305,260.505,221.4,260.505,223.982"/>
				<path clip-path="url(#SVGID_51_)" fill="#D0D2D2" d="M260.376,223.982c0,2.51-2.039,4.545-4.551,4.545
					c-2.513,0-4.552-2.035-4.552-4.545c0-2.514,2.039-4.549,4.552-4.549C258.337,219.434,260.376,221.469,260.376,223.982"/>
				<path clip-path="url(#SVGID_51_)" fill="#D2D4D5" d="M260.244,223.982c0,2.438-1.979,4.414-4.418,4.414
					c-2.441,0-4.419-1.977-4.419-4.414s1.978-4.414,4.419-4.414C258.264,219.568,260.244,221.545,260.244,223.982"/>
			</g>
		</g>
		<polygon fill="#605F5E" points="255.091,227.35 255.091,224.713 252.452,224.713 252.452,223.25 255.091,223.25 255.091,220.615 
			256.556,220.615 256.556,223.25 259.193,223.25 259.193,224.713 256.556,224.713 256.556,227.35 		"/>
		<path fill="#221714" d="M256.429,220.74v2.381v0.254h0.254h2.384v1.211h-2.384h-0.254v0.252v2.383h-1.211v-2.383v-0.252h-0.253
			h-2.386v-1.211h2.386h0.253v-0.254v-2.381H256.429z M256.683,220.488h-1.718v2.633h-2.639v1.717h2.639v2.635h1.718v-2.635h2.636
			v-1.717h-2.636V220.488z"/>
	</g>
</g>
<g>
	<g>
		<g>
			<path fill="#2C2722" d="M16.936,226.664h18.696c0.002,6.439,13.666,11.682,30.458,11.68h174.338
				c16.796,0,30.461-5.24,30.461-11.68v-29.775h18.69l0.001,29.775c0,10.68-22.049,19.369-49.153,19.369H66.089
				C38.986,246.033,16.936,237.344,16.936,226.664z"/>
		</g>
		<g>
			<rect x="16.936" y="196.889" fill="#2C2722" width="18.699" height="29.775"/>
		</g>
	</g>
	<g>
		<g>
			<path fill="#909090" d="M16.936,225.508h18.698c0.001,6.193,13.665,11.229,30.456,11.229H240.43
				c16.793,0,30.459-5.035,30.459-11.229v-28.619h18.69l0.001,28.619c0,10.27-22.049,18.619-49.153,18.619H66.089
				C38.986,244.127,16.937,235.777,16.936,225.508z"/>
		</g>
		<g>
			<rect x="16.936" y="196.889" fill="#909090" width="18.699" height="28.619"/>
		</g>
	</g>
	<linearGradient id="SVGID_52_" gradientUnits="userSpaceOnUse" x1="16.938" y1="217.6416" x2="289.5791" y2="217.6416">
		<stop  offset="0" style="stop-color:#919292"/>
		<stop  offset="0.0718" style="stop-color:#F7F7F7"/>
		<stop  offset="0.8473" style="stop-color:#EEEEEF"/>
		<stop  offset="1" style="stop-color:#919292"/>
	</linearGradient>
	<path fill="url(#SVGID_52_)" d="M270.886,192.121v30.926c0,6.689-13.662,12.129-30.456,12.129H66.089
		c-16.793,0-30.458-5.439-30.458-12.129l0.003-30.926H16.938v30.924c-0.002,11.096,22.047,20.117,49.151,20.117h174.339
		c27.104,0,49.153-9.021,49.151-20.115v-30.926H270.886z"/>
</g>
<g>
	<radialGradient id="SVGID_53_" cx="78.9746" cy="161.6982" r="6.3655" gradientUnits="userSpaceOnUse">
		<stop  offset="0" style="stop-color:#FFFFFF"/>
		<stop  offset="1" style="stop-color:#8DC21F"/>
	</radialGradient>
	<circle fill="url(#SVGID_53_)" stroke="#030000" stroke-width="0.5" stroke-miterlimit="10" cx="78.975" cy="161.697" r="6.365"/>
	<radialGradient id="SVGID_54_" cx="111.623" cy="161.6982" r="6.3655" gradientUnits="userSpaceOnUse">
		<stop  offset="0" style="stop-color:#FFFFFF"/>
		<stop  offset="1" style="stop-color:#252526"/>
	</radialGradient>
	<circle fill="url(#SVGID_54_)" stroke="#030000" stroke-width="0.5" stroke-miterlimit="10" cx="111.623" cy="161.697" r="6.365"/>
</g>
<g>
	<g>
		<rect x="730.4" y="34.634" fill="#CDCECD" stroke="#7E7E7F" stroke-miterlimit="10" width="215.422" height="27.046"/>
		
			<linearGradient id="SVGID_55_" gradientUnits="userSpaceOnUse" x1="357.3267" y1="1375.8711" x2="378.4243" y2="1375.8711" gradientTransform="matrix(0 -1 1 0 -546.1514 416.2637)">
			<stop  offset="0.0968" style="stop-color:#919292"/>
			<stop  offset="0.2546" style="stop-color:#F7F7F7"/>
			<stop  offset="0.7237" style="stop-color:#EEEEEF"/>
			<stop  offset="0.9247" style="stop-color:#636666"/>
		</linearGradient>
		<path fill="url(#SVGID_55_)" d="M916.658,37.839c1.848,0,3.35,2.043,3.35,4.566v11.962c0,2.523-1.502,4.569-3.35,4.569H742.779
			c-1.85,0-3.348-2.046-3.348-4.569V42.406c0-2.523,1.498-4.566,3.348-4.566H916.658z"/>
	</g>
	<path fill="#181818" d="M796.424,48.775c0,2.217-2.172,4.016-4.85,4.016h-43.979c-2.678,0-4.85-1.799-4.85-4.016l0,0
		c0-2.217,2.172-4.016,4.85-4.016h43.979C794.252,44.759,796.424,46.558,796.424,48.775L796.424,48.775z"/>
	<path fill="#181818" d="M855.729,48.775c0,2.217-2.172,4.016-4.852,4.016H806.9c-2.68,0-4.852-1.799-4.852-4.016l0,0
		c0-2.217,2.172-4.016,4.852-4.016h43.977C853.557,44.759,855.729,46.558,855.729,48.775L855.729,48.775z"/>
	<path fill="#181818" d="M915.033,48.775c0,2.217-2.172,4.016-4.852,4.016h-43.977c-2.68,0-4.85-1.799-4.85-4.016l0,0
		c0-2.217,2.17-4.016,4.85-4.016h43.977C912.861,44.759,915.033,46.558,915.033,48.775L915.033,48.775z"/>
	<linearGradient id="SVGID_56_" gradientUnits="userSpaceOnUse" x1="720.4414" y1="47.9668" x2="791.1816" y2="47.9668">
		<stop  offset="0" style="stop-color:#FFFFFF"/>
		<stop  offset="0.0484" style="stop-color:#3E3A39"/>
		<stop  offset="0.4086" style="stop-color:#838383"/>
		<stop  offset="0.9624" style="stop-color:#717071"/>
		<stop  offset="1" style="stop-color:#C2C2C2"/>
	</linearGradient>
	<path fill="url(#SVGID_56_)" d="M720.441,34.032v27.87h70.74v-27.87H720.441z M772.123,50.597c0,2.589-2.865,4.685-6.4,4.685
		h-26.479c-3.535,0-6.4-2.096-6.4-4.685V46.4c0-2.588,2.865-4.686,6.4-4.686h26.479c3.535,0,6.4,2.098,6.4,4.686V50.597z"/>
</g>
<g>
	<g>
		<rect x="760.129" y="65.056" fill="#CDCECD" stroke="#7E7E7F" stroke-miterlimit="10" width="185.693" height="27.047"/>
		
			<linearGradient id="SVGID_57_" gradientUnits="userSpaceOnUse" x1="326.9038" y1="1391.8916" x2="348.0015" y2="1391.8916" gradientTransform="matrix(0 -1 1 0 -546.1514 416.2637)">
			<stop  offset="0.0968" style="stop-color:#919292"/>
			<stop  offset="0.2546" style="stop-color:#F7F7F7"/>
			<stop  offset="0.7237" style="stop-color:#EEEEEF"/>
			<stop  offset="0.9247" style="stop-color:#636666"/>
		</linearGradient>
		<path fill="url(#SVGID_57_)" d="M920.684,68.262c1.592,0,2.885,2.044,2.885,4.567v11.963c0,2.522-1.293,4.567-2.885,4.567H770.799
			c-1.594,0-2.887-2.045-2.887-4.567V72.83c0-2.523,1.293-4.567,2.887-4.567H920.684z"/>
	</g>
	<path fill="#181818" d="M817.041,79.198c0,2.219-1.873,4.016-4.182,4.016h-37.91c-2.309,0-4.18-1.797-4.18-4.016l0,0
		c0-2.217,1.871-4.016,4.18-4.016h37.91C815.168,75.182,817.041,76.981,817.041,79.198L817.041,79.198z"/>
	<path fill="#181818" d="M868.162,79.198c0,2.219-1.873,4.016-4.182,4.016h-37.91c-2.309,0-4.182-1.797-4.182-4.016l0,0
		c0-2.217,1.873-4.016,4.182-4.016h37.91C866.289,75.182,868.162,76.981,868.162,79.198L868.162,79.198z"/>
	<path fill="#181818" d="M919.281,79.198c0,2.219-1.871,4.016-4.182,4.016h-37.908c-2.309,0-4.18-1.797-4.18-4.016l0,0
		c0-2.217,1.871-4.016,4.18-4.016H915.1C917.41,75.182,919.281,76.981,919.281,79.198L919.281,79.198z"/>
	<linearGradient id="SVGID_58_" gradientUnits="userSpaceOnUse" x1="751.543" y1="78.3901" x2="812.5234" y2="78.3901">
		<stop  offset="0" style="stop-color:#FFFFFF"/>
		<stop  offset="0.0484" style="stop-color:#3E3A39"/>
		<stop  offset="0.4086" style="stop-color:#838383"/>
		<stop  offset="0.9624" style="stop-color:#717071"/>
		<stop  offset="1" style="stop-color:#C2C2C2"/>
	</linearGradient>
	<path fill="url(#SVGID_58_)" d="M751.543,64.456v27.869h60.98V64.456H751.543z M796.094,81.02c0,2.588-2.471,4.685-5.518,4.685
		h-22.824c-3.047,0-5.518-2.097-5.518-4.685v-4.198c0-2.586,2.471-4.685,5.518-4.685h22.824c3.047,0,5.518,2.099,5.518,4.685V81.02z
		"/>
</g>
<g>
	<g>
		<rect x="945.822" y="75.182" fill="#CDCECD" stroke="#7E7E7F" stroke-miterlimit="10" width="313.928" height="38.145"/>
		
			<linearGradient id="SVGID_59_" gradientUnits="userSpaceOnUse" x1="306.8071" y1="1636.7061" x2="336.562" y2="1636.7061" gradientTransform="matrix(0 -1 1 0 -546.1514 416.2637)">
			<stop  offset="0.0968" style="stop-color:#919292"/>
			<stop  offset="0.2546" style="stop-color:#F7F7F7"/>
			<stop  offset="0.7237" style="stop-color:#EEEEEF"/>
			<stop  offset="0.9247" style="stop-color:#636666"/>
		</linearGradient>
		<path fill="url(#SVGID_59_)" d="M1217.248,79.702c2.695,0,4.881,2.884,4.881,6.442v16.87c0,3.559-2.186,6.442-4.881,6.442H963.861
			c-2.695,0-4.881-2.884-4.881-6.442v-16.87c0-3.559,2.186-6.442,4.881-6.442H1217.248z"/>
	</g>
	<path fill="#181818" d="M1042.035,95.125c0,3.127-3.164,5.663-7.068,5.663h-64.088c-3.902,0-7.068-2.536-7.068-5.663l0,0
		c0-3.128,3.166-5.662,7.068-5.662h64.088C1038.871,89.463,1042.035,91.998,1042.035,95.125L1042.035,95.125z"/>
	<path fill="#181818" d="M1128.457,95.125c0,3.127-3.164,5.663-7.066,5.663h-64.09c-3.902,0-7.068-2.536-7.068-5.663l0,0
		c0-3.128,3.166-5.662,7.068-5.662h64.09C1125.293,89.463,1128.457,91.998,1128.457,95.125L1128.457,95.125z"/>
	<path fill="#181818" d="M1214.881,95.125c0,3.127-3.166,5.663-7.068,5.663h-64.088c-3.904,0-7.068-2.536-7.068-5.663l0,0
		c0-3.128,3.164-5.662,7.068-5.662h64.088C1211.715,89.463,1214.881,91.998,1214.881,95.125L1214.881,95.125z"/>
	<g>
		<rect x="945.822" y="117.188" fill="#CDCECD" stroke="#7E7E7F" stroke-miterlimit="10" width="313.928" height="38.144"/>
		
			<linearGradient id="SVGID_60_" gradientUnits="userSpaceOnUse" x1="264.8008" y1="1636.7061" x2="294.5552" y2="1636.7061" gradientTransform="matrix(0 -1 1 0 -546.1514 416.2637)">
			<stop  offset="0.0968" style="stop-color:#919292"/>
			<stop  offset="0.2546" style="stop-color:#F7F7F7"/>
			<stop  offset="0.7237" style="stop-color:#EEEEEF"/>
			<stop  offset="0.9247" style="stop-color:#636666"/>
		</linearGradient>
		<path fill="url(#SVGID_60_)" d="M1217.248,121.708c2.695,0,4.881,2.883,4.881,6.442v16.871c0,3.557-2.186,6.441-4.881,6.441
			H963.861c-2.695,0-4.881-2.885-4.881-6.441V128.15c0-3.559,2.186-6.442,4.881-6.442H1217.248z"/>
	</g>
	<path fill="#181818" d="M1042.035,137.131c0,3.127-3.164,5.664-7.068,5.664h-64.088c-3.902,0-7.068-2.537-7.068-5.664l0,0
		c0-3.127,3.166-5.662,7.068-5.662h64.088C1038.871,131.469,1042.035,134.004,1042.035,137.131L1042.035,137.131z"/>
	<path fill="#181818" d="M1128.457,137.131c0,3.127-3.164,5.664-7.066,5.664h-64.09c-3.902,0-7.068-2.537-7.068-5.664l0,0
		c0-3.127,3.166-5.662,7.068-5.662h64.09C1125.293,131.469,1128.457,134.004,1128.457,137.131L1128.457,137.131z"/>
	<path fill="#181818" d="M1214.881,137.131c0,3.127-3.166,5.664-7.068,5.664h-64.088c-3.904,0-7.068-2.537-7.068-5.664l0,0
		c0-3.127,3.164-5.662,7.068-5.662h64.088C1211.715,131.469,1214.881,134.004,1214.881,137.131L1214.881,137.131z"/>
	<g>
		<rect x="945.822" y="159.193" fill="#CDCECD" stroke="#7E7E7F" stroke-miterlimit="10" width="313.928" height="38.146"/>
		
			<linearGradient id="SVGID_61_" gradientUnits="userSpaceOnUse" x1="222.7949" y1="1636.7061" x2="252.5488" y2="1636.7061" gradientTransform="matrix(0 -1 1 0 -546.1514 416.2637)">
			<stop  offset="0.0968" style="stop-color:#919292"/>
			<stop  offset="0.2546" style="stop-color:#F7F7F7"/>
			<stop  offset="0.7237" style="stop-color:#EEEEEF"/>
			<stop  offset="0.9247" style="stop-color:#636666"/>
		</linearGradient>
		<path fill="url(#SVGID_61_)" d="M1217.248,163.715c2.695,0,4.881,2.883,4.881,6.441v16.869c0,3.559-2.186,6.443-4.881,6.443
			H963.861c-2.695,0-4.881-2.885-4.881-6.443v-16.869c0-3.559,2.186-6.441,4.881-6.441H1217.248z"/>
	</g>
	<path fill="#181818" d="M1042.035,179.139c0,3.125-3.164,5.662-7.068,5.662h-64.088c-3.902,0-7.068-2.537-7.068-5.662l0,0
		c0-3.129,3.166-5.664,7.068-5.664h64.088C1038.871,173.475,1042.035,176.01,1042.035,179.139L1042.035,179.139z"/>
	<path fill="#181818" d="M1128.457,179.139c0,3.125-3.164,5.662-7.066,5.662h-64.09c-3.902,0-7.068-2.537-7.068-5.662l0,0
		c0-3.129,3.166-5.664,7.068-5.664h64.09C1125.293,173.475,1128.457,176.01,1128.457,179.139L1128.457,179.139z"/>
	<path fill="#181818" d="M1214.881,179.139c0,3.125-3.166,5.662-7.068,5.662h-64.088c-3.904,0-7.068-2.537-7.068-5.662l0,0
		c0-3.129,3.164-5.664,7.068-5.664h64.088C1211.715,173.475,1214.881,176.01,1214.881,179.139L1214.881,179.139z"/>
	<g>
		<rect x="945.822" y="201.199" fill="#CDCECD" stroke="#7E7E7F" stroke-miterlimit="10" width="313.928" height="38.146"/>
		
			<linearGradient id="SVGID_62_" gradientUnits="userSpaceOnUse" x1="180.7891" y1="1636.7061" x2="210.543" y2="1636.7061" gradientTransform="matrix(0 -1 1 0 -546.1514 416.2637)">
			<stop  offset="0.0968" style="stop-color:#919292"/>
			<stop  offset="0.2546" style="stop-color:#F7F7F7"/>
			<stop  offset="0.7237" style="stop-color:#EEEEEF"/>
			<stop  offset="0.9247" style="stop-color:#636666"/>
		</linearGradient>
		<path fill="url(#SVGID_62_)" d="M1217.248,205.721c2.695,0,4.881,2.883,4.881,6.441v16.871c0,3.557-2.186,6.441-4.881,6.441
			H963.861c-2.695,0-4.881-2.885-4.881-6.441v-16.871c0-3.559,2.186-6.441,4.881-6.441H1217.248z"/>
	</g>
	<path fill="#181818" d="M1042.035,221.143c0,3.129-3.164,5.664-7.068,5.664h-64.088c-3.902,0-7.068-2.535-7.068-5.664l0,0
		c0-3.127,3.166-5.662,7.068-5.662h64.088C1038.871,215.48,1042.035,218.016,1042.035,221.143L1042.035,221.143z"/>
	<path fill="#181818" d="M1128.457,221.143c0,3.129-3.164,5.664-7.066,5.664h-64.09c-3.902,0-7.068-2.535-7.068-5.664l0,0
		c0-3.127,3.166-5.662,7.068-5.662h64.09C1125.293,215.48,1128.457,218.016,1128.457,221.143L1128.457,221.143z"/>
	<path fill="#181818" d="M1214.881,221.143c0,3.129-3.166,5.664-7.068,5.664h-64.088c-3.904,0-7.068-2.535-7.068-5.664l0,0
		c0-3.127,3.164-5.662,7.068-5.662h64.088C1211.715,215.48,1214.881,218.016,1214.881,221.143L1214.881,221.143z"/>
</g>
<g>
	<g>
		<rect x="730.4" y="95.48" fill="#CDCECD" stroke="#7E7E7F" stroke-miterlimit="10" width="215.422" height="27.048"/>
		
			<linearGradient id="SVGID_63_" gradientUnits="userSpaceOnUse" x1="296.481" y1="1375.8711" x2="317.5786" y2="1375.8711" gradientTransform="matrix(0 -1 1 0 -546.1514 416.2637)">
			<stop  offset="0.0968" style="stop-color:#919292"/>
			<stop  offset="0.2546" style="stop-color:#F7F7F7"/>
			<stop  offset="0.7237" style="stop-color:#EEEEEF"/>
			<stop  offset="0.9247" style="stop-color:#636666"/>
		</linearGradient>
		<path fill="url(#SVGID_63_)" d="M916.658,98.685c1.848,0,3.35,2.043,3.35,4.566v11.964c0,2.521-1.502,4.567-3.35,4.567H742.779
			c-1.85,0-3.348-2.046-3.348-4.567v-11.964c0-2.523,1.498-4.566,3.348-4.566H916.658z"/>
	</g>
	<path fill="#181818" d="M796.424,109.621c0,2.219-2.172,4.016-4.85,4.016h-43.979c-2.678,0-4.85-1.797-4.85-4.016l0,0
		c0-2.217,2.172-4.016,4.85-4.016h43.979C794.252,105.605,796.424,107.404,796.424,109.621L796.424,109.621z"/>
	<path fill="#181818" d="M855.729,109.621c0,2.219-2.172,4.016-4.852,4.016H806.9c-2.68,0-4.852-1.797-4.852-4.016l0,0
		c0-2.217,2.172-4.016,4.852-4.016h43.977C853.557,105.605,855.729,107.404,855.729,109.621L855.729,109.621z"/>
	<path fill="#181818" d="M915.033,109.621c0,2.219-2.172,4.016-4.852,4.016h-43.977c-2.68,0-4.85-1.797-4.85-4.016l0,0
		c0-2.217,2.17-4.016,4.85-4.016h43.977C912.861,105.605,915.033,107.404,915.033,109.621L915.033,109.621z"/>
	<linearGradient id="SVGID_64_" gradientUnits="userSpaceOnUse" x1="720.4414" y1="108.8125" x2="791.1816" y2="108.8125">
		<stop  offset="0" style="stop-color:#FFFFFF"/>
		<stop  offset="0.0484" style="stop-color:#3E3A39"/>
		<stop  offset="0.4086" style="stop-color:#838383"/>
		<stop  offset="0.9624" style="stop-color:#717071"/>
		<stop  offset="1" style="stop-color:#C2C2C2"/>
	</linearGradient>
	<path fill="url(#SVGID_64_)" d="M720.441,94.877v27.87h70.74v-27.87H720.441z M772.123,111.444c0,2.587-2.865,4.684-6.4,4.684
		h-26.479c-3.535,0-6.4-2.097-6.4-4.684v-4.197c0-2.589,2.865-4.687,6.4-4.687h26.479c3.535,0,6.4,2.098,6.4,4.687V111.444z"/>
</g>
<g>
	<g>
		<rect x="760.129" y="125.902" fill="#CDCECD" stroke="#7E7E7F" stroke-miterlimit="10" width="185.693" height="27.049"/>
		
			<linearGradient id="SVGID_65_" gradientUnits="userSpaceOnUse" x1="266.0586" y1="1391.8916" x2="287.1563" y2="1391.8916" gradientTransform="matrix(0 -1 1 0 -546.1514 416.2637)">
			<stop  offset="0.0968" style="stop-color:#919292"/>
			<stop  offset="0.2546" style="stop-color:#F7F7F7"/>
			<stop  offset="0.7237" style="stop-color:#EEEEEF"/>
			<stop  offset="0.9247" style="stop-color:#636666"/>
		</linearGradient>
		<path fill="url(#SVGID_65_)" d="M920.684,129.107c1.592,0,2.885,2.045,2.885,4.568v11.963c0,2.523-1.293,4.566-2.885,4.566
			H770.799c-1.594,0-2.887-2.043-2.887-4.566v-11.963c0-2.523,1.293-4.568,2.887-4.568H920.684z"/>
	</g>
	<path fill="#181818" d="M817.041,140.043c0,2.219-1.873,4.018-4.182,4.018h-37.91c-2.309,0-4.18-1.799-4.18-4.018l0,0
		c0-2.217,1.871-4.014,4.18-4.014h37.91C815.168,136.029,817.041,137.826,817.041,140.043L817.041,140.043z"/>
	<path fill="#181818" d="M868.162,140.043c0,2.219-1.873,4.018-4.182,4.018h-37.91c-2.309,0-4.182-1.799-4.182-4.018l0,0
		c0-2.217,1.873-4.014,4.182-4.014h37.91C866.289,136.029,868.162,137.826,868.162,140.043L868.162,140.043z"/>
	<path fill="#181818" d="M919.281,140.043c0,2.219-1.871,4.018-4.182,4.018h-37.908c-2.309,0-4.18-1.799-4.18-4.018l0,0
		c0-2.217,1.871-4.014,4.18-4.014H915.1C917.41,136.029,919.281,137.826,919.281,140.043L919.281,140.043z"/>
	<linearGradient id="SVGID_66_" gradientUnits="userSpaceOnUse" x1="751.543" y1="139.2373" x2="812.5234" y2="139.2373">
		<stop  offset="0" style="stop-color:#FFFFFF"/>
		<stop  offset="0.0484" style="stop-color:#3E3A39"/>
		<stop  offset="0.4086" style="stop-color:#838383"/>
		<stop  offset="0.9624" style="stop-color:#717071"/>
		<stop  offset="1" style="stop-color:#C2C2C2"/>
	</linearGradient>
	<path fill="url(#SVGID_66_)" d="M751.543,125.302v27.87h60.98v-27.87H751.543z M796.094,141.865c0,2.588-2.471,4.686-5.518,4.686
		h-22.824c-3.047,0-5.518-2.098-5.518-4.686v-4.197c0-2.586,2.471-4.684,5.518-4.684h22.824c3.047,0,5.518,2.098,5.518,4.684
		V141.865z"/>
</g>
<g>
	<g>
		<rect x="730.4" y="156.326" fill="#CDCECD" stroke="#7E7E7F" stroke-miterlimit="10" width="215.422" height="27.047"/>
		
			<linearGradient id="SVGID_67_" gradientUnits="userSpaceOnUse" x1="235.6348" y1="1375.8711" x2="256.7324" y2="1375.8711" gradientTransform="matrix(0 -1 1 0 -546.1514 416.2637)">
			<stop  offset="0.0968" style="stop-color:#919292"/>
			<stop  offset="0.2546" style="stop-color:#F7F7F7"/>
			<stop  offset="0.7237" style="stop-color:#EEEEEF"/>
			<stop  offset="0.9247" style="stop-color:#636666"/>
		</linearGradient>
		<path fill="url(#SVGID_67_)" d="M916.658,159.531c1.848,0,3.35,2.045,3.35,4.568v11.963c0,2.521-1.502,4.566-3.35,4.566H742.779
			c-1.85,0-3.348-2.045-3.348-4.566V164.1c0-2.523,1.498-4.568,3.348-4.568H916.658z"/>
	</g>
	<path fill="#181818" d="M796.424,170.467c0,2.221-2.172,4.018-4.85,4.018h-43.979c-2.678,0-4.85-1.797-4.85-4.018l0,0
		c0-2.217,2.172-4.014,4.85-4.014h43.979C794.252,166.453,796.424,168.25,796.424,170.467L796.424,170.467z"/>
	<path fill="#181818" d="M855.729,170.467c0,2.221-2.172,4.018-4.852,4.018H806.9c-2.68,0-4.852-1.797-4.852-4.018l0,0
		c0-2.217,2.172-4.014,4.852-4.014h43.977C853.557,166.453,855.729,168.25,855.729,170.467L855.729,170.467z"/>
	<path fill="#181818" d="M915.033,170.467c0,2.221-2.172,4.018-4.852,4.018h-43.977c-2.68,0-4.85-1.797-4.85-4.018l0,0
		c0-2.217,2.17-4.014,4.85-4.014h43.977C912.861,166.453,915.033,168.25,915.033,170.467L915.033,170.467z"/>
	<linearGradient id="SVGID_68_" gradientUnits="userSpaceOnUse" x1="720.4414" y1="169.6602" x2="791.1816" y2="169.6602">
		<stop  offset="0" style="stop-color:#FFFFFF"/>
		<stop  offset="0.0484" style="stop-color:#3E3A39"/>
		<stop  offset="0.4086" style="stop-color:#838383"/>
		<stop  offset="0.9624" style="stop-color:#717071"/>
		<stop  offset="1" style="stop-color:#C2C2C2"/>
	</linearGradient>
	<path fill="url(#SVGID_68_)" d="M720.441,155.725v27.871h70.74v-27.871H720.441z M772.123,172.289c0,2.59-2.865,4.688-6.4,4.688
		h-26.479c-3.535,0-6.4-2.098-6.4-4.688v-4.195c0-2.59,2.865-4.686,6.4-4.686h26.479c3.535,0,6.4,2.096,6.4,4.686V172.289z"/>
</g>
<linearGradient id="SVGID_69_" gradientUnits="userSpaceOnUse" x1="-2266.3574" y1="1545.5098" x2="-2195.6172" y2="1545.5098" gradientTransform="matrix(-1 0 0 -1 -1475.1758 1623.8984)">
	<stop  offset="0.0161" style="stop-color:#030000"/>
	<stop  offset="0.0645" style="stop-color:#343535"/>
	<stop  offset="0.1452" style="stop-color:#1F2020"/>
	<stop  offset="0.8118" style="stop-color:#515151"/>
	<stop  offset="0.914" style="stop-color:#636666"/>
	<stop  offset="1" style="stop-color:#030000"/>
</linearGradient>
<rect x="720.441" y="64.454" fill="url(#SVGID_69_)" width="70.74" height="27.871"/>
<linearGradient id="SVGID_70_" gradientUnits="userSpaceOnUse" x1="-2267.3477" y1="1485.6797" x2="-2196.6074" y2="1485.6797" gradientTransform="matrix(-1 0 0 -1 -1475.1758 1623.8984)">
	<stop  offset="0.0161" style="stop-color:#030000"/>
	<stop  offset="0.0645" style="stop-color:#343535"/>
	<stop  offset="0.1452" style="stop-color:#1F2020"/>
	<stop  offset="0.8118" style="stop-color:#515151"/>
	<stop  offset="0.914" style="stop-color:#636666"/>
	<stop  offset="1" style="stop-color:#030000"/>
</linearGradient>
<rect x="721.432" y="124.284" fill="url(#SVGID_70_)" width="70.74" height="27.871"/>
<rect x="954.4" y="28.055" fill="#5F6049" width="310.742" height="47.619"/>
<g>
	<g>
		<g>
			<path fill="#2C2722" d="M16.936,120.981h18.696c0.002,6.439,13.666,11.681,30.458,11.679h174.338
				c16.796,0,30.461-5.24,30.461-11.679V91.205h18.69l0.001,29.776c0,10.679-22.049,19.369-49.153,19.369H66.089
				C38.986,140.35,16.936,131.66,16.936,120.981z"/>
		</g>
		<g>
			<rect x="16.936" y="91.205" fill="#2C2722" width="18.699" height="29.776"/>
		</g>
	</g>
	<g>
		<g>
			<path fill="#909090" d="M16.936,119.825h18.698c0.001,6.192,13.665,11.228,30.456,11.228H240.43
				c16.793,0,30.459-5.036,30.459-11.228v-28.62h18.69l0.001,28.62c0,10.269-22.049,18.619-49.153,18.619H66.089
				C38.986,138.443,16.937,130.094,16.936,119.825z"/>
		</g>
		<g>
			<rect x="16.936" y="91.205" fill="#909090" width="18.699" height="28.62"/>
		</g>
	</g>
	<linearGradient id="SVGID_71_" gradientUnits="userSpaceOnUse" x1="16.938" y1="111.958" x2="289.5791" y2="111.958">
		<stop  offset="0" style="stop-color:#919292"/>
		<stop  offset="0.0718" style="stop-color:#F7F7F7"/>
		<stop  offset="0.8473" style="stop-color:#EEEEEF"/>
		<stop  offset="1" style="stop-color:#919292"/>
	</linearGradient>
	<path fill="url(#SVGID_71_)" d="M270.886,86.438v30.925c0,6.689-13.662,12.129-30.456,12.129H66.089
		c-16.793,0-30.458-5.44-30.458-12.128l0.003-30.926H16.938v30.924c-0.002,11.095,22.047,20.117,49.151,20.117h174.339
		c27.104,0,49.153-9.021,49.151-20.116V86.438H270.886z"/>
</g>
<g>
	
		<linearGradient id="SVGID_72_" gradientUnits="userSpaceOnUse" x1="-2457.4204" y1="1379.2139" x2="-2457.4204" y2="1371.2383" gradientTransform="matrix(0 -1 1 0 -1083.3086 -2322.1992)">
		<stop  offset="0" style="stop-color:#343535"/>
		<stop  offset="0.1847" style="stop-color:#F7F7F7"/>
		<stop  offset="0.4839" style="stop-color:#C8C9CA"/>
		<stop  offset="0.8419" style="stop-color:#EEEEEF"/>
	</linearGradient>
	<rect x="287.93" y="27.944" fill="url(#SVGID_72_)" width="7.976" height="214.556"/>
	<rect x="287.932" y="27.945" fill="#444344" width="3.988" height="214.557"/>
</g>
</svg>
