<?xml version="1.0" encoding="utf-8"?>
<!-- Generator: Adobe Illustrator 16.0.0, SVG Export Plug-In . SVG Version: 6.00 Build 0)  -->
<!DOCTYPE svg PUBLIC "-//W3C//DTD SVG 1.1//EN" "http://www.w3.org/Graphics/SVG/1.1/DTD/svg11.dtd">
<svg version="1.1" id="图层_1" xmlns="http://www.w3.org/2000/svg" xmlns:xlink="http://www.w3.org/1999/xlink" x="0px" y="0px"
	 width="1417.32px" height="126.14px" viewBox="0 0 1417.32 126.14" enable-background="new 0 0 1417.32 126.14"
	 xml:space="preserve">
<g>
	<g>
		<rect x="-0.001" y="-0.001" fill="#313945" width="1417.322" height="126.141"/>
	</g>
	<g>
		<rect x="73.358" y="10.374" fill="#6B75A4" width="1274.762" height="105.391"/>
	</g>
	<g>
		<g>
			<path fill="#1B1518" d="M276.129,84.488c0.011,3.313-2.667,6.01-5.98,6.02l-71,0.227c-3.313,0.011-6.008-2.667-6.02-5.98
				l-0.014-4.75c-0.012-3.313,2.666-6.009,5.98-6.019l70.999-0.228c3.313-0.01,6.008,2.666,6.019,5.981L276.129,84.488z"/>
		</g>
		<g>
			<path fill="#DDDCD6" d="M249.577,98.329l-29.807,0.095c-4.133,0.014-7.7-3.537-8.52-8.477l-2.035-12.291
				c-0.622-4.21,2.166-8.055,5.85-8.066l39.031-0.125c3.685-0.012,6.498,3.815,5.902,8.029l-1.959,12.305
				C257.253,94.742,253.709,98.316,249.577,98.329z"/>
		</g>
		<g>
			<path fill="#1A1517" d="M246.896,94.61l-24.469,0.077c-3.391,0.011-6.321-2.62-6.989-6.284l-1.669-9.113
				c-0.51-3.122,1.779-5.973,4.804-5.982l32.042-0.102c3.024-0.011,5.333,2.825,4.843,5.95l-1.611,9.125
				C253.198,91.949,250.289,94.599,246.896,94.61"/>
		</g>
		<g>
			<path fill="#AEA7A2" d="M213.196,78.415c0-3.082,2.412-5.598,5.374-5.607l32.042-0.102c1.402-0.005,2.73,0.547,3.741,1.555
				c1.274,1.271,1.887,3.154,1.599,4.973l-1.614,9.135c-0.688,3.894-3.817,6.729-7.44,6.742l-24.469,0.077
				c-3.626,0.012-6.772-2.805-7.483-6.694l-1.669-9.114C213.223,79.054,213.196,78.732,213.196,78.415z M255.023,78.317
				c0-1.257-0.501-2.477-1.376-3.349c-0.821-0.818-1.898-1.267-3.031-1.263l-32.041,0.102c-2.414,0.008-4.378,2.074-4.378,4.607
				c0,0.264,0.022,0.53,0.065,0.794l1.667,9.104c0.624,3.414,3.355,5.884,6.495,5.874l24.47-0.077
				c3.138-0.011,5.855-2.499,6.459-5.916l1.612-9.125C255.003,78.822,255.023,78.568,255.023,78.317z"/>
		</g>
		<g>
			<path fill="#060303" d="M221.703,79.296c0.004,1.451-1.166,2.634-2.613,2.64c-1.451,0.003-2.627-1.171-2.631-2.624
				c-0.006-1.453,1.165-2.636,2.612-2.639C220.521,76.669,221.698,77.842,221.703,79.296"/>
		</g>
		<g>
			<path fill="#060303" d="M229.646,79.271c0.005,1.453-1.166,2.635-2.612,2.64c-1.45,0.005-2.626-1.169-2.631-2.623
				c-0.007-1.452,1.164-2.635,2.613-2.64C228.465,76.644,229.641,77.818,229.646,79.271"/>
		</g>
		<g>
			<path fill="#060303" d="M237.592,79.245c0.004,1.453-1.167,2.636-2.616,2.638c-1.448,0.007-2.625-1.168-2.632-2.622
				c-0.004-1.451,1.167-2.634,2.615-2.639C236.409,76.618,237.587,77.792,237.592,79.245"/>
		</g>
		<g>
			<path fill="#060303" d="M245.536,79.22c0.005,1.452-1.166,2.636-2.614,2.639c-1.452,0.006-2.63-1.169-2.633-2.621
				c-0.007-1.454,1.164-2.635,2.615-2.641C244.352,76.592,245.529,77.767,245.536,79.22"/>
		</g>
		<g>
			<path fill="#060303" d="M253.479,79.194c0.005,1.452-1.167,2.635-2.615,2.641c-1.448,0.004-2.627-1.172-2.631-2.623
				c-0.007-1.454,1.166-2.635,2.616-2.64C252.295,76.567,253.474,77.743,253.479,79.194"/>
		</g>
		<g>
			<path fill="#060303" d="M225.667,88.679c0.004,1.454-1.164,2.635-2.613,2.641c-1.45,0.004-2.628-1.17-2.633-2.623
				c-0.005-1.453,1.167-2.635,2.615-2.64C224.486,86.053,225.663,87.228,225.667,88.679"/>
		</g>
		<g>
			<path fill="#060303" d="M233.614,88.653c0.003,1.454-1.168,2.637-2.614,2.64c-1.452,0.005-2.629-1.168-2.632-2.622
				c-0.005-1.452,1.164-2.635,2.613-2.639C232.43,86.026,233.609,87.201,233.614,88.653"/>
		</g>
		<g>
			<path fill="#060303" d="M241.557,88.63c0.004,1.451-1.166,2.635-2.613,2.639c-1.449,0.004-2.628-1.17-2.633-2.623
				c-0.007-1.452,1.167-2.635,2.616-2.639C240.373,86.002,241.553,87.176,241.557,88.63"/>
		</g>
		<g>
			<path fill="#060303" d="M249.5,88.604c0.005,1.454-1.165,2.635-2.614,2.64c-1.449,0.004-2.627-1.17-2.632-2.623
				c-0.004-1.453,1.167-2.635,2.615-2.639C248.317,85.976,249.495,87.151,249.5,88.604"/>
		</g>
		<g>
			<path fill="#B1ABA6" d="M194.649,79.66c-0.002-0.714,0.381-1.383,1.002-1.742l4.691-2.729c0.617-0.357,1.385-0.36,2.004-0.006
				l4.712,2.697c0.618,0.356,1.007,1.022,1.009,1.737l0.018,5.428c0.002,0.712-0.381,1.38-0.998,1.74l-4.696,2.73
				c-0.615,0.357-1.383,0.36-2.003,0.007l-4.71-2.7c-0.621-0.358-1.009-1.022-1.012-1.734L194.649,79.66z"/>
		</g>
		<g>
			<path fill="#7F7778" d="M207.516,85.048c0.002,0.514-0.271,0.99-0.717,1.249l-4.689,2.729c-0.445,0.259-0.994,0.26-1.441,0.005
				l-4.709-2.699c-0.447-0.256-0.724-0.731-0.726-1.246l-0.017-5.427c-0.002-0.515,0.271-0.992,0.717-1.25l4.692-2.73
				c0.444-0.257,0.994-0.259,1.44-0.005l4.707,2.7c0.447,0.255,0.724,0.731,0.725,1.246L207.516,85.048 M208.649,85.044
				l-0.018-5.428c-0.002-0.918-0.497-1.771-1.294-2.225l-4.708-2.7c-0.795-0.456-1.781-0.453-2.575,0.009l-4.69,2.73
				c-0.794,0.459-1.285,1.314-1.282,2.232l0.018,5.427c0.002,0.916,0.497,1.769,1.295,2.225l4.71,2.699
				c0.796,0.455,1.78,0.451,2.573-0.009l4.691-2.729C208.163,86.815,208.651,85.96,208.649,85.044"/>
		</g>
		<g>
			<path fill="#C4C1BA" d="M201.341,87.806c-3.019,0.01-5.477-2.424-5.488-5.434c-0.007-3.013,2.434-5.463,5.453-5.473
				c3.021-0.01,5.478,2.425,5.487,5.437C206.803,85.347,204.362,87.796,201.341,87.806"/>
		</g>
		<g>
			<path fill="#7F7778" d="M195.729,82.356c0-3.066,2.502-5.572,5.577-5.582c1.494-0.005,2.9,0.571,3.961,1.621
				c1.06,1.051,1.646,2.45,1.651,3.939c0,3.084-2.502,5.586-5.577,5.596c-3.083,0.01-5.602-2.483-5.612-5.559V82.356z
				 M206.668,82.354c-0.005-1.44-0.565-2.776-1.577-3.78c-1.014-1.003-2.357-1.554-3.785-1.549c-2.938,0.01-5.327,2.401-5.327,5.332
				h-0.125l0.125,0.016c0.011,2.936,2.416,5.318,5.362,5.309C204.279,87.672,206.668,85.282,206.668,82.354z"/>
		</g>
		<g>
			<path fill="#2A2228" d="M201.334,85.722c-1.865,0.006-3.382-1.497-3.388-3.358c-0.005-1.859,1.501-3.373,3.367-3.379
				s3.383,1.498,3.389,3.357C204.707,84.203,203.2,85.715,201.334,85.722"/>
		</g>
		<g>
			<path fill="#060303" d="M197.822,82.353c0-1.92,1.566-3.487,3.491-3.493c1.932-0.006,3.507,1.556,3.514,3.481
				c0,1.932-1.566,3.499-3.492,3.506c-1.931,0.006-3.507-1.557-3.513-3.482V82.353z M204.577,82.353
				c-0.006-1.799-1.47-3.249-3.264-3.243c-1.787,0.006-3.241,1.461-3.241,3.243h-0.125l0.125,0.011
				c0.006,1.788,1.469,3.239,3.263,3.233C203.121,85.591,204.577,84.135,204.577,82.353z"/>
		</g>
		<g>
			<path fill="#7F7778" d="M201.327,83.399c-0.578,0.002-1.052-0.464-1.052-1.043c-0.003-0.578,0.468-1.048,1.045-1.05
				c0.582-0.002,1.051,0.465,1.055,1.043C202.375,82.928,201.909,83.397,201.327,83.399"/>
		</g>
		<g>
			<path fill="#B1ABA6" d="M260.904,79.449c-0.002-0.714,0.382-1.383,1-1.743l4.692-2.728c0.619-0.356,1.387-0.36,2.006-0.006
				l4.711,2.697c0.619,0.355,1.006,1.022,1.007,1.737l0.018,5.427c0.002,0.714-0.381,1.38-0.998,1.741l-4.693,2.73
				c-0.617,0.357-1.386,0.36-2.006,0.007l-4.71-2.7c-0.62-0.357-1.007-1.022-1.009-1.735L260.904,79.449z"/>
		</g>
		<g>
			<path fill="#7F7778" d="M273.77,84.837c0.001,0.513-0.27,0.99-0.717,1.249l-4.689,2.729c-0.443,0.259-0.993,0.26-1.442,0.005
				l-4.708-2.7c-0.446-0.256-0.724-0.73-0.724-1.245l-0.019-5.427c0-0.516,0.273-0.992,0.717-1.25l4.694-2.731
				c0.443-0.257,0.993-0.258,1.44-0.004l4.707,2.7c0.446,0.255,0.724,0.731,0.725,1.246L273.77,84.837 M274.904,84.833l-0.017-5.428
				c-0.003-0.918-0.499-1.771-1.295-2.225l-4.708-2.7c-0.796-0.456-1.781-0.453-2.572,0.008l-4.693,2.73
				c-0.794,0.46-1.283,1.315-1.281,2.232l0.017,5.428c0.003,0.916,0.5,1.769,1.296,2.225l4.709,2.697
				c0.794,0.457,1.781,0.454,2.574-0.007l4.689-2.729C274.418,86.604,274.906,85.749,274.904,84.833"/>
		</g>
		<g>
			<path fill="#C4C1BA" d="M267.596,87.595c-3.02,0.009-5.477-2.425-5.486-5.436s2.434-5.462,5.451-5.472
				c3.021-0.01,5.478,2.426,5.486,5.438C273.057,85.136,270.617,87.584,267.596,87.595"/>
		</g>
		<g>
			<path fill="#7F7778" d="M261.985,82.142c0-3.066,2.501-5.569,5.576-5.579c1.494-0.005,2.901,0.57,3.96,1.622
				c1.061,1.051,1.647,2.45,1.65,3.94c0,3.083-2.5,5.584-5.576,5.595c-3.084,0.009-5.602-2.484-5.611-5.56V82.142z M272.922,82.144
				c-0.003-1.441-0.563-2.777-1.576-3.781s-2.356-1.554-3.785-1.55c-2.937,0.01-5.326,2.4-5.326,5.329h-0.125l0.125,0.018
				c0.01,2.938,2.414,5.319,5.361,5.311C270.532,87.46,272.922,85.07,272.922,82.144z"/>
		</g>
		<g>
			<path fill="#2A2228" d="M267.588,85.511c-1.864,0.006-3.379-1.497-3.386-3.358c-0.006-1.86,1.5-3.373,3.365-3.379
				s3.383,1.498,3.39,3.357C270.963,83.991,269.455,85.504,267.588,85.511"/>
		</g>
		<g>
			<path fill="#060303" d="M264.077,82.142c0-1.92,1.565-3.487,3.49-3.493c1.93-0.006,3.508,1.556,3.516,3.481
				c0,1.932-1.568,3.499-3.495,3.506c-1.928,0.006-3.504-1.557-3.511-3.482V82.142z M270.833,82.142
				c-0.008-1.8-1.473-3.249-3.266-3.243c-1.787,0.006-3.24,1.461-3.24,3.243h-0.125l0.125,0.011
				c0.007,1.788,1.469,3.239,3.261,3.233C269.377,85.38,270.833,83.924,270.833,82.142z"/>
		</g>
		<g>
			<path fill="#7F7778" d="M267.583,83.188c-0.579,0.003-1.051-0.464-1.053-1.042c-0.002-0.579,0.467-1.049,1.045-1.051
				c0.581-0.001,1.053,0.466,1.055,1.044C268.629,82.717,268.163,83.187,267.583,83.188"/>
		</g>
	</g>
	<rect x="535.757" y="26.569" fill="#768066" stroke="#463D42" stroke-width="2" stroke-miterlimit="10" width="348" height="61"/>
	<g>
		<path fill="#DBD8D3" d="M568.587,41.298v19.751h4.938v2.046h-4.938v3.342c0,3.491,0.149,4.14,4.39,4.488v0.699h-11.772v-0.699
			c4.588-0.349,4.888-0.847,4.888-4.438v-3.392h-12.869v-1.048c4.589-6.734,9.378-13.768,14.615-20.75H568.587z M566.093,61.049
			V45.787h-0.1c-3.592,4.589-6.934,9.628-10.325,15.262H566.093z"/>
		<path fill="#DBD8D3" d="M583.353,53.368c0,1.397-0.949,2.295-2.246,2.295c-1.247,0-2.195-0.897-2.195-2.295
			c0-1.247,0.948-2.244,2.195-2.244C582.504,51.124,583.353,52.271,583.353,53.368z M578.963,69.929
			c0-1.247,0.947-2.294,2.194-2.294c1.297,0,2.245,1.047,2.245,2.294c0,1.347-0.948,2.245-2.245,2.245
			C579.761,72.124,578.963,71.176,578.963,69.929z"/>
		<path fill="#DBD8D3" d="M592.729,70.926c4.639-0.448,4.939-0.997,4.939-4.339V47.482c0-2.145-0.199-2.494-2.545-2.743l-2.144-0.25
			v-0.748c3.093-0.549,5.586-1.446,7.133-2.443v25.289c0,3.342,0.35,3.891,4.988,4.339v0.699h-12.371V70.926z"/>
		<path fill="#DBD8D3" d="M631.039,56.711c0,6.983-2.644,15.463-9.428,15.463c-6.884,0-9.627-8.479-9.627-15.463
			c0-6.934,2.743-15.413,9.627-15.413C628.544,41.298,631.039,50.076,631.039,56.711z M621.611,42.444
			c-5.337,0-6.733,7.383-6.733,14.316c0,6.783,1.396,14.315,6.783,14.315c5.137,0,6.584-7.532,6.584-14.315
			c0-6.934-1.447-14.316-6.584-14.316H621.611z"/>
		<path fill="#DBD8D3" d="M641.315,53.368c0,1.397-0.948,2.295-2.245,2.295c-1.248,0-2.194-0.897-2.194-2.295
			c0-1.247,0.947-2.244,2.194-2.244C640.466,51.124,641.315,52.271,641.315,53.368z M636.925,69.929
			c0-1.247,0.947-2.294,2.194-2.294c1.297,0,2.244,1.047,2.244,2.294c0,1.347-0.947,2.245-2.244,2.245
			C637.723,72.124,636.925,71.176,636.925,69.929z"/>
		<path fill="#DBD8D3" d="M665.557,66.188c-0.549,1.547-0.948,3.093-1.546,5.438h-17.508v-0.798c2.742-2.744,5.536-5.537,7.93-8.38
			c2.594-2.993,6.685-6.884,6.685-11.872c0-4.539-2.346-6.934-6.285-6.934c-3.741,0-5.836,2.993-6.934,4.639l-0.748-0.598
			l2.693-3.741c1.347-1.397,3.592-2.644,6.234-2.644c3.941,0,7.732,2.793,7.732,7.631c0,4.39-2.345,7.532-6.336,11.822l-7.73,8.43
			h10.275c2.494,0,3.242-0.249,4.539-3.292L665.557,66.188z"/>
		<path fill="#DBD8D3" d="M681.619,59.206c-1.048,0.497-1.847,0.697-2.945,0.697c-4.738,0-8.279-3.492-8.279-8.529
			c0-4.839,3.691-10.076,9.278-10.076c5.536,0,9.077,5.536,9.077,11.871c0,9.178-4.988,15.164-11.173,17.808
			c-3.043,1.098-5.188,1.446-6.085,1.397l-0.15-0.948c6.934-1.147,12.471-6.036,14.416-14.217L681.619,59.206z M673.138,49.877
			c0,4.24,2.544,7.98,7.083,7.98c2.194,0,4.54-0.997,5.637-2.045c0.05-0.848,0.15-1.796,0.15-2.843
			c0-3.841-1.147-10.476-6.833-10.476C674.585,42.494,673.138,47.283,673.138,49.877z"/>
	</g>
	<g>
		<path fill="#FFFFFF" d="M699.183,49.916c0,0.906-0.219,1.593-0.656,2.063c-0.438,0.469-0.969,0.703-1.594,0.703
			c-0.343,0-0.64-0.07-0.89-0.211c-0.251-0.14-0.469-0.352-0.656-0.633v2.438h-0.938v-6.984h0.938v0.703
			c0.188-0.281,0.405-0.485,0.656-0.61c0.25-0.125,0.547-0.187,0.89-0.187c0.625,0,1.157,0.226,1.594,0.68
			C698.964,48.331,699.183,49.009,699.183,49.916z M698.152,49.916c0-0.594-0.117-1.055-0.352-1.383
			c-0.235-0.327-0.586-0.492-1.055-0.492c-0.375,0-0.695,0.165-0.96,0.492c-0.266,0.328-0.398,0.789-0.398,1.383
			c0,0.593,0.133,1.063,0.398,1.406s0.586,0.516,0.96,0.516c0.469,0,0.82-0.172,1.055-0.516
			C698.035,50.979,698.152,50.509,698.152,49.916z"/>
		<path fill="#FFFFFF" d="M699.605,66.941h-0.938v-3.797c0-0.188-0.031-0.344-0.094-0.469c-0.063-0.125-0.188-0.187-0.375-0.187
			c-0.219,0-0.421,0.117-0.609,0.352s-0.282,0.539-0.282,0.914v3.188h-0.937v-3.797c0-0.188-0.031-0.344-0.094-0.469
			c-0.063-0.125-0.188-0.187-0.375-0.187c-0.219,0-0.422,0.117-0.609,0.352c-0.188,0.234-0.281,0.539-0.281,0.914v3.188h-0.938
			v-5.25h0.938v0.703c0.156-0.25,0.344-0.445,0.563-0.586c0.218-0.141,0.452-0.211,0.703-0.211c0.25,0,0.461,0.07,0.633,0.211
			c0.171,0.141,0.288,0.336,0.352,0.586c0.156-0.25,0.335-0.445,0.539-0.586c0.203-0.141,0.429-0.211,0.679-0.211
			c0.375,0,0.657,0.102,0.844,0.305s0.281,0.492,0.281,0.867V66.941z"/>
	</g>
	<g>
		<path fill="#FFFFFF" d="M539.362,99.565c0,0.759-0.241,1.358-0.717,1.805c-0.479,0.444-1.13,0.667-1.953,0.667
			c-0.824,0-1.467-0.23-1.928-0.692c-0.462-0.462-0.692-1.038-0.692-1.73v-0.346h1.137v0.297c0,0.494,0.148,0.873,0.445,1.137
			c0.296,0.265,0.642,0.396,1.038,0.396c0.527,0,0.914-0.14,1.162-0.42c0.248-0.28,0.372-0.618,0.372-1.013
			c0-0.33-0.148-0.636-0.445-0.916c-0.297-0.279-0.726-0.535-1.285-0.766c-0.791-0.297-1.36-0.626-1.706-0.989
			c-0.347-0.362-0.52-0.791-0.52-1.285c0-0.692,0.239-1.253,0.718-1.682c0.477-0.428,1.045-0.643,1.705-0.643
			c0.857,0,1.475,0.256,1.854,0.767c0.378,0.512,0.569,1.063,0.569,1.656h-1.137c0.033-0.362-0.066-0.692-0.297-0.989
			c-0.23-0.296-0.561-0.444-0.988-0.444c-0.396,0-0.709,0.107-0.939,0.321c-0.231,0.215-0.346,0.503-0.346,0.865
			c0,0.297,0.09,0.552,0.272,0.767c0.181,0.214,0.65,0.47,1.409,0.765c0.725,0.298,1.286,0.652,1.682,1.064
			C539.165,98.568,539.362,99.038,539.362,99.565z"/>
		<path fill="#FFFFFF" d="M545.689,96.4l-2.273,5.982c-0.133,0.462-0.33,0.808-0.594,1.039c-0.263,0.229-0.593,0.346-0.988,0.346
			c-0.166,0-0.322-0.01-0.471-0.024c-0.148-0.018-0.29-0.059-0.42-0.124v-0.988c0.13,0.065,0.263,0.116,0.396,0.148
			c0.131,0.032,0.247,0.049,0.347,0.049c0.262,0,0.444-0.042,0.543-0.122c0.1-0.084,0.198-0.273,0.297-0.57L540.35,96.4h1.087
			l1.583,4.352h0.049l1.533-4.352H545.689z"/>
		<path fill="#FFFFFF" d="M551.822,101.938h-0.989v-3.56c0-0.396-0.1-0.709-0.297-0.939c-0.198-0.23-0.462-0.348-0.791-0.348
			c-0.429,0-0.833,0.224-1.211,0.669c-0.38,0.445-0.568,0.997-0.568,1.656v2.521h-0.989V96.4h0.989v1.039
			c0.263-0.362,0.551-0.643,0.865-0.841c0.313-0.198,0.717-0.298,1.211-0.298c0.594,0,1.038,0.166,1.334,0.496
			c0.298,0.329,0.446,0.741,0.446,1.235V101.938z"/>
		<path fill="#FFFFFF" d="M558.249,99.714c0,0.691-0.239,1.253-0.717,1.681c-0.478,0.429-1.08,0.643-1.805,0.643
			s-1.352-0.255-1.879-0.767c-0.528-0.511-0.792-1.211-0.792-2.101c0-0.891,0.264-1.589,0.792-2.102
			c0.527-0.511,1.154-0.768,1.879-0.768s1.302,0.191,1.73,0.569c0.429,0.38,0.643,0.833,0.643,1.36h-1.088
			c-0.033-0.396-0.173-0.668-0.42-0.815c-0.247-0.149-0.536-0.223-0.865-0.223c-0.396,0-0.758,0.156-1.088,0.47
			c-0.33,0.313-0.494,0.815-0.494,1.508c0,0.691,0.164,1.194,0.494,1.508c0.331,0.313,0.692,0.47,1.088,0.47
			c0.427,0,0.773-0.115,1.039-0.347c0.263-0.229,0.395-0.593,0.395-1.087H558.249z"/>
		<path fill="#FFFFFF" d="M564.676,99.565c0,0.759-0.239,1.358-0.717,1.805c-0.479,0.444-1.13,0.667-1.954,0.667
			c-0.824,0-1.467-0.23-1.927-0.692c-0.463-0.462-0.692-1.038-0.692-1.73v-0.346h1.137v0.297c0,0.494,0.148,0.873,0.445,1.137
			c0.296,0.265,0.643,0.396,1.038,0.396c0.528,0,0.916-0.14,1.163-0.42c0.247-0.28,0.371-0.618,0.371-1.013
			c0-0.33-0.148-0.636-0.445-0.916c-0.297-0.279-0.726-0.535-1.285-0.766c-0.791-0.297-1.361-0.626-1.706-0.989
			c-0.346-0.362-0.52-0.791-0.52-1.285c0-0.692,0.239-1.253,0.718-1.682c0.477-0.428,1.045-0.643,1.705-0.643
			c0.858,0,1.475,0.256,1.854,0.767c0.378,0.512,0.569,1.063,0.569,1.656h-1.137c0.033-0.362-0.066-0.692-0.297-0.989
			c-0.23-0.296-0.561-0.444-0.989-0.444c-0.395,0-0.708,0.107-0.939,0.321c-0.23,0.215-0.346,0.503-0.346,0.865
			c0,0.297,0.09,0.552,0.272,0.767c0.181,0.214,0.65,0.47,1.409,0.765c0.725,0.298,1.286,0.652,1.681,1.064
			C564.479,98.568,564.676,99.038,564.676,99.565z"/>
		<path fill="#FFFFFF" d="M570.904,100.06c-0.065,0.594-0.329,1.071-0.791,1.434c-0.461,0.363-1.006,0.544-1.631,0.544
			c-0.791,0-1.442-0.255-1.953-0.767c-0.511-0.511-0.766-1.211-0.766-2.101c0-0.891,0.255-1.589,0.766-2.102
			c0.511-0.511,1.162-0.768,1.953-0.768c0.692,0,1.261,0.224,1.705,0.669c0.446,0.445,0.668,1.179,0.668,2.2h-4.004
			c0,0.725,0.156,1.235,0.469,1.532c0.314,0.297,0.701,0.445,1.163,0.445c0.362,0,0.658-0.091,0.89-0.272
			c0.23-0.181,0.379-0.452,0.445-0.815H570.904z M569.719,98.379c-0.066-0.462-0.215-0.783-0.446-0.964
			c-0.23-0.182-0.527-0.272-0.889-0.272c-0.33,0-0.627,0.091-0.89,0.272c-0.266,0.181-0.463,0.502-0.594,0.964H569.719z"/>
		<path fill="#FFFFFF" d="M576.542,97.39c-0.626-0.099-1.153-0.008-1.582,0.272c-0.429,0.28-0.791,0.766-1.088,1.458v2.818h-0.988
			V96.4h0.988v1.435c0.297-0.527,0.668-0.915,1.114-1.162c0.444-0.247,0.963-0.372,1.557-0.372V97.39z"/>
		<path fill="#FFFFFF" d="M583.612,96.4l-2.076,5.637h-1.088l-2.077-5.637h1.039l1.532,4.302h0.1l1.532-4.302H583.612z"/>
		<path fill="#FFFFFF" d="M589.891,100.06c-0.066,0.594-0.33,1.071-0.791,1.434c-0.462,0.363-1.006,0.544-1.631,0.544
			c-0.791,0-1.443-0.255-1.953-0.767c-0.512-0.511-0.767-1.211-0.767-2.101c0-0.891,0.255-1.589,0.767-2.102
			c0.51-0.511,1.162-0.768,1.953-0.768c0.691,0,1.26,0.224,1.705,0.669c0.446,0.445,0.668,1.179,0.668,2.2h-4.005
			c0,0.725,0.155,1.235,0.469,1.532c0.313,0.297,0.701,0.445,1.163,0.445c0.361,0,0.658-0.091,0.888-0.272
			c0.232-0.181,0.38-0.452,0.447-0.815H589.891z M588.705,98.379c-0.066-0.462-0.215-0.783-0.444-0.964
			c-0.231-0.182-0.529-0.272-0.891-0.272c-0.331,0-0.627,0.091-0.89,0.272c-0.264,0.181-0.461,0.502-0.593,0.964H588.705z"/>
		<path fill="#FFFFFF" d="M595.528,97.39c-0.626-0.099-1.155-0.008-1.582,0.272c-0.43,0.28-0.792,0.766-1.088,1.458v2.818h-0.988
			V96.4h0.988v1.435c0.297-0.527,0.668-0.915,1.113-1.162s0.964-0.372,1.558-0.372V97.39z"/>
		<path fill="#FFFFFF" d="M608.976,99.565c0,0.759-0.239,1.358-0.717,1.805c-0.479,0.444-1.13,0.667-1.953,0.667
			c-0.825,0-1.467-0.23-1.929-0.692c-0.461-0.462-0.691-1.038-0.691-1.73v-0.346h1.136v0.297c0,0.494,0.148,0.873,0.446,1.137
			c0.297,0.265,0.643,0.396,1.038,0.396c0.526,0,0.915-0.14,1.161-0.42c0.248-0.28,0.372-0.618,0.372-1.013
			c0-0.33-0.15-0.636-0.445-0.916c-0.297-0.279-0.726-0.535-1.287-0.766c-0.791-0.297-1.359-0.626-1.705-0.989
			c-0.346-0.362-0.52-0.791-0.52-1.285c0-0.692,0.238-1.253,0.717-1.682c0.478-0.428,1.047-0.643,1.706-0.643
			c0.856,0,1.474,0.256,1.854,0.767c0.378,0.512,0.568,1.063,0.568,1.656h-1.137c0.031-0.362-0.066-0.692-0.297-0.989
			c-0.232-0.296-0.562-0.444-0.989-0.444c-0.396,0-0.709,0.107-0.939,0.321c-0.23,0.215-0.346,0.503-0.346,0.865
			c0,0.297,0.09,0.552,0.271,0.767c0.18,0.214,0.65,0.47,1.409,0.765c0.725,0.298,1.286,0.652,1.682,1.064
			C608.778,98.568,608.976,99.038,608.976,99.565z"/>
		<path fill="#FFFFFF" d="M610.163,101.691c0.032-0.495,0.264-0.939,0.692-1.335c0.427-0.396,0.972-1.015,1.631-1.854
			s1.088-1.491,1.286-1.953c0.198-0.461,0.272-0.856,0.222-1.187c-0.05-0.329-0.207-0.601-0.47-0.815
			c-0.263-0.214-0.568-0.305-0.914-0.272c-0.347,0.033-0.676,0.166-0.989,0.396c-0.314,0.231-0.552,0.577-0.717,1.039l-0.94-0.148
			c0.264-0.758,0.601-1.311,1.014-1.656c0.411-0.347,0.897-0.535,1.459-0.568c0.329-0.033,0.625-0.025,0.89,0.024
			c0.263,0.049,0.535,0.165,0.815,0.346c0.28,0.182,0.511,0.454,0.692,0.816c0.18,0.362,0.247,0.799,0.197,1.31
			c-0.049,0.512-0.305,1.121-0.766,1.83c-0.462,0.71-1.352,1.821-2.67,3.337h3.56v0.89h-4.993V101.691z"/>
		<path fill="#FFFFFF" d="M616.342,97.167c0.033-0.873,0.156-1.564,0.371-2.076c0.214-0.51,0.52-0.931,0.914-1.26
			c0.396-0.33,0.882-0.495,1.459-0.495c0.576,0,1.079,0.239,1.508,0.717c0.427,0.478,0.709,1.08,0.841,1.805
			s0.172,1.558,0.124,2.496c-0.05,0.939-0.215,1.706-0.496,2.3c-0.28,0.594-0.7,1.005-1.26,1.235
			c-0.561,0.231-1.121,0.206-1.681-0.074c-0.562-0.279-0.956-0.649-1.187-1.112c-0.231-0.461-0.397-0.947-0.494-1.458
			C616.342,98.733,616.309,98.041,616.342,97.167z M617.381,96.87c-0.1,0.907-0.066,1.715,0.098,2.423
			c0.165,0.709,0.438,1.212,0.816,1.508c0.378,0.297,0.766,0.355,1.162,0.174s0.684-0.544,0.865-1.088
			c0.181-0.545,0.272-1.138,0.272-1.78s-0.024-1.228-0.073-1.755c-0.05-0.527-0.199-1.005-0.447-1.434
			c-0.246-0.429-0.576-0.65-0.988-0.668c-0.413-0.016-0.775,0.19-1.088,0.618C617.685,95.297,617.479,95.965,617.381,96.87z"/>
		<path fill="#FFFFFF" d="M622.671,97.167c0.032-0.873,0.155-1.564,0.37-2.076c0.214-0.51,0.52-0.931,0.915-1.26
			c0.396-0.33,0.881-0.495,1.458-0.495c0.576,0,1.08,0.239,1.509,0.717c0.428,0.478,0.708,1.08,0.841,1.805
			c0.131,0.725,0.173,1.558,0.123,2.496c-0.049,0.939-0.215,1.706-0.494,2.3c-0.281,0.594-0.701,1.005-1.261,1.235
			c-0.56,0.231-1.121,0.206-1.68-0.074c-0.562-0.279-0.957-0.649-1.188-1.112c-0.23-0.461-0.396-0.947-0.494-1.458
			S622.638,98.041,622.671,97.167z M623.709,96.87c-0.1,0.907-0.066,1.715,0.098,2.423c0.165,0.709,0.437,1.212,0.815,1.508
			c0.379,0.297,0.767,0.355,1.163,0.174c0.396-0.182,0.685-0.544,0.865-1.088c0.182-0.545,0.272-1.138,0.272-1.78
			s-0.024-1.228-0.075-1.755c-0.049-0.527-0.198-1.005-0.445-1.434c-0.248-0.429-0.577-0.65-0.989-0.668
			c-0.412-0.016-0.774,0.19-1.088,0.618C624.014,95.297,623.808,95.965,623.709,96.87z"/>
	</g>
	<g>
		<path fill="#FFFFFF" d="M784.262,101.938h-1.234l-2.721-6.131h-0.049v6.131h-1.137v-8.455h1.236l2.719,6.131h0.049v-6.131h1.137
			V101.938z"/>
		<path fill="#FFFFFF" d="M790.592,100.06c-0.067,0.594-0.33,1.071-0.791,1.434c-0.463,0.363-1.006,0.544-1.631,0.544
			c-0.793,0-1.443-0.255-1.955-0.767c-0.51-0.511-0.766-1.211-0.766-2.101c0-0.891,0.256-1.589,0.766-2.102
			c0.512-0.511,1.162-0.768,1.955-0.768c0.691,0,1.26,0.224,1.705,0.669s0.666,1.179,0.666,2.2h-4.004
			c0,0.725,0.156,1.235,0.471,1.532c0.313,0.297,0.699,0.445,1.162,0.445c0.361,0,0.658-0.091,0.889-0.272
			c0.23-0.181,0.379-0.452,0.445-0.815H790.592z M789.404,98.379c-0.066-0.462-0.215-0.783-0.445-0.964
			c-0.23-0.182-0.527-0.272-0.889-0.272c-0.33,0-0.627,0.091-0.891,0.272c-0.265,0.181-0.463,0.502-0.594,0.964H789.404z"/>
		<path fill="#FFFFFF" d="M796.723,101.79c-0.166,0.066-0.355,0.125-0.568,0.173c-0.215,0.05-0.504,0.074-0.865,0.074
			c-0.594,0-1.072-0.163-1.434-0.494c-0.364-0.329-0.545-0.791-0.545-1.385v-2.966h-1.681V96.4h1.681v-1.928h0.99V96.4h2.025v0.792
			h-2.025v3.016c0,0.264,0.064,0.486,0.196,0.667c0.132,0.182,0.378,0.272,0.741,0.272s0.659-0.032,0.891-0.099
			c0.23-0.066,0.428-0.148,0.594-0.248V101.79z"/>
		<path fill="#FFFFFF" d="M803.693,96.4l-1.236,5.637h-0.939l-0.791-4.302h-0.098l-0.791,4.302h-0.94l-1.235-5.637h1.037
			l0.643,3.709h0.1l0.693-3.709h1.086l0.692,3.709h0.099l0.643-3.709H803.693z"/>
		<path fill="#FFFFFF" d="M809.725,99.17c0,0.857-0.264,1.55-0.791,2.077c-0.527,0.526-1.154,0.79-1.879,0.79
			s-1.352-0.264-1.879-0.79c-0.527-0.527-0.789-1.22-0.789-2.077s0.262-1.548,0.789-2.078c0.527-0.525,1.154-0.791,1.879-0.791
			s1.352,0.266,1.879,0.791C809.461,97.622,809.725,98.313,809.725,99.17z M808.639,99.17c0-0.659-0.166-1.153-0.496-1.483
			c-0.33-0.329-0.691-0.494-1.088-0.494c-0.395,0-0.758,0.165-1.086,0.494c-0.33,0.33-0.496,0.824-0.496,1.483
			s0.166,1.154,0.496,1.483c0.328,0.329,0.691,0.494,1.086,0.494c0.396,0,0.758-0.165,1.088-0.494S808.639,99.829,808.639,99.17z"/>
		<path fill="#FFFFFF" d="M815.213,97.39c-0.625-0.099-1.154-0.008-1.582,0.272s-0.791,0.766-1.088,1.458v2.818h-0.988V96.4h0.988
			v1.435c0.297-0.527,0.668-0.915,1.113-1.162c0.443-0.247,0.965-0.372,1.557-0.372V97.39z"/>
		<path fill="#FFFFFF" d="M822.382,101.938h-1.138l-1.779-3.016l-1.137,1.087v1.929h-0.988v-8.455h0.988v5.391l2.473-2.474h1.236
			l-1.93,1.879L822.382,101.938z"/>
		<path fill="#FFFFFF" d="M828.563,94.423h-1.977v7.516h-1.139v-7.516h-1.977v-0.939h5.092V94.423z"/>
		<path fill="#FFFFFF" d="M832.814,94.818h-0.988v-1.285h0.988V94.818z M832.814,101.938h-0.988V96.4h0.988V101.938z"/>
		<path fill="#FFFFFF" d="M841.615,101.938h-0.988v-4.005c0-0.198-0.033-0.362-0.1-0.494s-0.197-0.198-0.396-0.198
			c-0.231,0-0.444,0.124-0.644,0.371c-0.197,0.247-0.295,0.568-0.295,0.964v3.362h-0.988v-4.005c0-0.198-0.033-0.362-0.1-0.494
			s-0.199-0.198-0.396-0.198c-0.23,0-0.445,0.124-0.643,0.371s-0.297,0.568-0.297,0.964v3.362h-0.988V96.4h0.988v0.742
			c0.164-0.264,0.362-0.47,0.594-0.618c0.23-0.148,0.479-0.224,0.742-0.224s0.486,0.075,0.666,0.224
			c0.182,0.148,0.305,0.354,0.371,0.618c0.164-0.264,0.354-0.47,0.568-0.618s0.453-0.224,0.717-0.224
			c0.396,0,0.693,0.108,0.891,0.323c0.197,0.214,0.297,0.519,0.297,0.914V101.938z"/>
		<path fill="#FFFFFF" d="M847.548,100.06c-0.066,0.594-0.329,1.071-0.79,1.434c-0.463,0.363-1.006,0.544-1.633,0.544
			c-0.789,0-1.441-0.255-1.951-0.767c-0.512-0.511-0.768-1.211-0.768-2.101c0-0.891,0.256-1.589,0.768-2.102
			c0.51-0.511,1.162-0.768,1.951-0.768c0.693,0,1.262,0.224,1.706,0.669s0.667,1.179,0.667,2.2h-4.004
			c0,0.725,0.156,1.235,0.47,1.532s0.7,0.445,1.161,0.445c0.363,0,0.66-0.091,0.891-0.272c0.23-0.181,0.379-0.452,0.445-0.815
			H847.548z M846.361,98.379c-0.066-0.462-0.215-0.783-0.445-0.964c-0.23-0.182-0.527-0.272-0.889-0.272
			c-0.33,0-0.627,0.091-0.891,0.272c-0.264,0.181-0.461,0.502-0.594,0.964H846.361z"/>
		<path fill="#FFFFFF" d="M853.977,99.565c0,0.759-0.24,1.358-0.717,1.805c-0.479,0.444-1.131,0.667-1.953,0.667
			c-0.825,0-1.467-0.23-1.93-0.692c-0.461-0.462-0.691-1.038-0.691-1.73v-0.346h1.137v0.297c0,0.494,0.148,0.873,0.445,1.137
			c0.297,0.265,0.643,0.396,1.039,0.396c0.525,0,0.914-0.14,1.16-0.42c0.248-0.28,0.373-0.618,0.373-1.013
			c0-0.33-0.15-0.636-0.445-0.916c-0.298-0.279-0.727-0.535-1.287-0.766c-0.791-0.297-1.359-0.626-1.705-0.989
			c-0.346-0.362-0.52-0.791-0.52-1.285c0-0.692,0.238-1.253,0.717-1.682c0.479-0.428,1.047-0.643,1.707-0.643
			c0.855,0,1.474,0.256,1.854,0.767c0.379,0.512,0.568,1.063,0.568,1.656h-1.137c0.031-0.362-0.066-0.692-0.297-0.989
			c-0.231-0.296-0.561-0.444-0.988-0.444c-0.396,0-0.71,0.107-0.94,0.321c-0.229,0.215-0.345,0.503-0.345,0.865
			c0,0.297,0.09,0.552,0.271,0.767c0.18,0.214,0.65,0.47,1.408,0.765c0.725,0.298,1.287,0.652,1.682,1.064
			S853.977,99.038,853.977,99.565z"/>
		<path fill="#FFFFFF" d="M860.205,100.06c-0.066,0.594-0.33,1.071-0.791,1.434c-0.461,0.363-1.006,0.544-1.632,0.544
			c-0.791,0-1.442-0.255-1.953-0.767c-0.511-0.511-0.767-1.211-0.767-2.101c0-0.891,0.256-1.589,0.767-2.102
			c0.511-0.511,1.162-0.768,1.953-0.768c0.692,0,1.261,0.224,1.706,0.669c0.444,0.445,0.668,1.179,0.668,2.2h-4.006
			c0,0.725,0.156,1.235,0.471,1.532c0.313,0.297,0.699,0.445,1.161,0.445c0.362,0,0.659-0.091,0.89-0.272
			c0.23-0.181,0.379-0.452,0.445-0.815H860.205z M859.02,98.379c-0.066-0.462-0.215-0.783-0.445-0.964
			c-0.232-0.182-0.529-0.272-0.891-0.272c-0.33,0-0.627,0.091-0.891,0.272c-0.264,0.181-0.462,0.502-0.594,0.964H859.02z"/>
		<path fill="#FFFFFF" d="M865.842,97.39c-0.627-0.099-1.154-0.008-1.582,0.272c-0.43,0.28-0.791,0.766-1.088,1.458v2.818h-0.989
			V96.4h0.989v1.435c0.297-0.527,0.668-0.915,1.111-1.162c0.445-0.247,0.965-0.372,1.559-0.372V97.39z"/>
		<path fill="#FFFFFF" d="M872.912,96.4l-2.076,5.637h-1.089l-2.075-5.637h1.037l1.533,4.302h0.1l1.531-4.302H872.912z"/>
		<path fill="#FFFFFF" d="M879.191,100.06c-0.066,0.594-0.33,1.071-0.792,1.434c-0.462,0.363-1.005,0.544-1.63,0.544
			c-0.793,0-1.443-0.255-1.955-0.767c-0.51-0.511-0.766-1.211-0.766-2.101c0-0.891,0.256-1.589,0.766-2.102
			c0.512-0.511,1.162-0.768,1.955-0.768c0.691,0,1.26,0.224,1.705,0.669s0.666,1.179,0.666,2.2h-4.004
			c0,0.725,0.156,1.235,0.469,1.532c0.314,0.297,0.701,0.445,1.164,0.445c0.361,0,0.658-0.091,0.889-0.272
			c0.23-0.181,0.379-0.452,0.445-0.815H879.191z M878.004,98.379c-0.066-0.462-0.215-0.783-0.445-0.964
			c-0.23-0.182-0.527-0.272-0.889-0.272c-0.33,0-0.627,0.091-0.891,0.272c-0.265,0.181-0.463,0.502-0.594,0.964H878.004z"/>
		<path fill="#FFFFFF" d="M884.828,97.39c-0.627-0.099-1.154-0.008-1.584,0.272c-0.428,0.28-0.789,0.766-1.086,1.458v2.818h-0.988
			V96.4h0.988v1.435c0.297-0.527,0.666-0.915,1.111-1.162s0.965-0.372,1.559-0.372V97.39z"/>
	</g>
	<g>
		<path fill="#DBD8D3" d="M721.033,49.702h-2.254l-3.384-6.953h-2.442v6.953h-2.162V33.635h4.699c1.502,0,2.725,0.362,3.664,1.08
			c0.939,0.721,1.409,1.895,1.409,3.524c0,1.254-0.314,2.225-0.938,2.912c-0.628,0.691-1.35,1.129-2.162,1.316L721.033,49.702z
			 M718.402,38.239c0-0.877-0.266-1.565-0.799-2.066c-0.531-0.502-1.395-0.752-2.584-0.752h-2.066v5.543h2.631
			c0.752,0,1.408-0.203,1.973-0.611C718.121,39.946,718.402,39.241,718.402,38.239z"/>
		<path fill="#DBD8D3" d="M732.686,49.702h-9.584V33.635h9.113v1.786h-6.953v4.979h6.391v1.787h-6.391v5.73h7.424V49.702z"/>
		<path fill="#DBD8D3" d="M744.807,35.421h-7.705v5.262h5.824v1.785h-5.824v7.235h-2.162V33.635h9.867V35.421z"/>
		<path fill="#DBD8D3" d="M752.698,41.058h-2.161v-2.066h2.161V41.058z M752.698,49.702h-2.161v-2.067h2.161V49.702z"/>
		<path fill="#DBD8D3" d="M768.578,49.89h-1.598l-0.281-1.314c-0.252,0.375-0.643,0.689-1.176,0.939
			c-0.532,0.252-1.111,0.375-1.736,0.375c-1.316,0-2.491-0.609-3.525-1.832c-1.033-1.221-1.55-3.178-1.55-5.871
			c0-2.945,0.47-5.137,1.409-6.578c0.939-1.439,2.223-2.162,3.854-2.162c1.439,0,2.566,0.533,3.383,1.598
			c0.813,1.066,1.221,2.443,1.221,4.135h-2.066c0-1.314-0.221-2.303-0.658-2.959c-0.439-0.658-1.066-0.986-1.879-0.986
			c-1.004,0-1.754,0.516-2.256,1.549s-0.752,2.773-0.752,5.215c0,2.318,0.313,3.916,0.939,4.793
			c0.626,0.877,1.348,1.314,2.162,1.314c0.813,0,1.455-0.295,1.926-0.893c0.47-0.594,0.705-1.518,0.705-2.771v-1.033h-2.912v-1.785
			h4.791V49.89z"/>
		<path fill="#DBD8D3" d="M780.98,38.521c0,1.504-0.438,2.695-1.314,3.57c-0.879,0.879-2.1,1.316-3.664,1.316h-2.725v6.295h-2.162
			V33.635h4.887c1.564,0,2.785,0.438,3.664,1.315C780.543,35.829,780.98,37.019,780.98,38.521z M778.82,38.521
			c0-1.189-0.281-2.004-0.846-2.443c-0.564-0.438-1.41-0.656-2.537-0.656h-2.16v6.201h2.16c1.127,0,1.973-0.219,2.537-0.658
			C778.539,40.526,778.82,39.712,778.82,38.521z"/>
		<path fill="#DBD8D3" d="M792.82,45.192c0,1.441-0.455,2.584-1.363,3.43c-0.908,0.845-2.146,1.268-3.711,1.268
			c-1.566,0-2.787-0.438-3.664-1.314s-1.316-1.973-1.316-3.289v-0.658h2.162v0.564c0,0.939,0.281,1.66,0.846,2.16
			c0.564,0.504,1.221,0.752,1.973,0.752c1.002,0,1.738-0.266,2.209-0.799c0.469-0.531,0.703-1.174,0.703-1.926
			c0-0.625-0.281-1.206-0.846-1.738c-0.563-0.531-1.377-1.018-2.441-1.455c-1.504-0.564-2.584-1.189-3.242-1.881
			c-0.658-0.688-0.986-1.502-0.986-2.441c0-1.316,0.453-2.381,1.363-3.195c0.906-0.814,1.986-1.223,3.24-1.223
			c1.629,0,2.803,0.486,3.523,1.457c0.719,0.973,1.08,2.02,1.08,3.148h-2.16c0.061-0.689-0.127-1.316-0.564-1.878
			c-0.438-0.564-1.064-0.846-1.879-0.846c-0.752,0-1.348,0.203-1.785,0.609c-0.439,0.408-0.656,0.957-0.656,1.645
			c0,0.564,0.17,1.051,0.516,1.457c0.344,0.408,1.236,0.893,2.678,1.457c1.377,0.563,2.443,1.236,3.195,2.02
			S792.82,44.19,792.82,45.192z"/>
		<path fill="#DBD8D3" d="M806.633,45.005c0-0.752,0.188-1.488,0.563-2.209c0.376-0.719,1.001-1.299,1.88-1.738
			c-0.752-0.438-1.254-0.924-1.504-1.455c-0.25-0.533-0.393-1.143-0.424-1.834c-0.031-0.688,0.063-1.283,0.283-1.785
			c0.219-0.5,0.547-0.969,0.986-1.408c0.438-0.438,0.924-0.736,1.457-0.893c0.531-0.156,1.111-0.236,1.737-0.236
			s1.19,0.064,1.692,0.189c0.5,0.125,1.033,0.391,1.596,0.799c0.564,0.408,0.971,0.986,1.223,1.738
			c0.25,0.75,0.234,1.628-0.047,2.631c-0.283,1.002-1.02,1.785-2.209,2.348c1.064,0.314,1.816,0.799,2.256,1.457
			c0.438,0.658,0.657,1.457,0.657,2.396s-0.142,1.691-0.423,2.253c-0.281,0.565-0.596,1.036-0.939,1.411
			c-0.346,0.375-0.814,0.673-1.408,0.893c-0.598,0.221-1.35,0.328-2.256,0.328c-0.91,0-1.691-0.107-2.35-0.328
			c-0.658-0.219-1.207-0.547-1.645-0.986c-0.438-0.438-0.736-0.955-0.893-1.551C806.711,46.431,806.633,45.757,806.633,45.005z
			 M808.559,44.911c-0.031,0.752,0.094,1.408,0.377,1.972c0.281,0.565,0.797,0.926,1.551,1.081c0.75,0.158,1.533,0.141,2.348-0.047
			c0.813-0.188,1.377-0.625,1.691-1.314c0.313-0.689,0.422-1.377,0.33-2.068c-0.096-0.688-0.486-1.268-1.176-1.738
			c-0.689-0.469-1.441-0.672-2.254-0.609c-0.816,0.063-1.49,0.344-2.021,0.846C808.871,43.534,808.59,44.159,808.559,44.911z
			 M808.889,37.581c0,0.627,0.217,1.223,0.656,1.785c0.438,0.564,1.129,0.846,2.067,0.846c0.94,0,1.646-0.281,2.114-0.846
			c0.47-0.563,0.688-1.236,0.658-2.02c-0.031-0.783-0.314-1.363-0.846-1.738c-0.533-0.375-1.254-0.531-2.162-0.471
			c-0.908,0.064-1.549,0.33-1.926,0.799C809.076,36.407,808.889,36.956,808.889,37.581z"/>
		<path fill="#DBD8D3" d="M840.928,45.192c0,1.441-0.455,2.584-1.361,3.43c-0.908,0.845-2.146,1.268-3.711,1.268
			c-1.566,0-2.789-0.438-3.666-1.314s-1.314-1.973-1.314-3.289v-0.658h2.162v0.564c0,0.939,0.281,1.66,0.845,2.16
			c0.563,0.504,1.222,0.752,1.974,0.752c1,0,1.738-0.266,2.207-0.799c0.47-0.531,0.705-1.174,0.705-1.926
			c0-0.625-0.281-1.206-0.846-1.738c-0.564-0.531-1.379-1.018-2.443-1.455c-1.504-0.564-2.584-1.189-3.24-1.881
			c-0.659-0.688-0.988-1.502-0.988-2.441c0-1.316,0.455-2.381,1.363-3.195s1.988-1.223,3.242-1.223c1.627,0,2.803,0.486,3.523,1.457
			c0.719,0.973,1.08,2.02,1.08,3.148h-2.161c0.062-0.689-0.126-1.316-0.563-1.878c-0.439-0.564-1.066-0.846-1.879-0.846
			c-0.752,0-1.348,0.203-1.785,0.609c-0.439,0.408-0.658,0.957-0.658,1.645c0,0.564,0.172,1.051,0.516,1.457
			c0.344,0.408,1.236,0.893,2.678,1.457c1.379,0.563,2.445,1.236,3.195,2.02C840.553,43.298,840.928,44.19,840.928,45.192z"/>
		<path fill="#DBD8D3" d="M852.861,49.702h-2.256c-0.125-0.125-0.219-0.297-0.281-0.516c-0.063-0.219-0.094-0.484-0.094-0.799
			c-0.439,0.502-0.971,0.877-1.598,1.127c-0.627,0.252-1.285,0.375-1.973,0.375c-1.002,0-1.848-0.248-2.537-0.75
			c-0.69-0.502-1.033-1.223-1.033-2.162s0.313-1.691,0.939-2.256c0.625-0.563,1.598-0.939,2.912-1.127
			c0.877-0.125,1.645-0.281,2.303-0.469c0.658-0.189,0.986-0.438,0.986-0.752c0-0.377-0.141-0.752-0.423-1.129
			c-0.282-0.375-0.893-0.563-1.833-0.563c-0.75,0-1.299,0.141-1.644,0.422c-0.345,0.283-0.579,0.674-0.704,1.176h-2.068
			c0.125-1.002,0.58-1.801,1.363-2.397c0.783-0.595,1.801-0.892,3.053-0.892c1.379,0,2.412,0.314,3.102,0.939
			c0.688,0.627,1.033,1.504,1.033,2.631v5.168c0,0.375,0.063,0.721,0.188,1.033C852.424,49.077,852.611,49.39,852.861,49.702z
			 M850.23,46.226v-1.879c-0.375,0.127-0.736,0.234-1.08,0.328c-0.346,0.096-0.926,0.206-1.738,0.331
			c-0.939,0.125-1.551,0.344-1.833,0.658c-0.281,0.313-0.423,0.689-0.423,1.127c0,0.375,0.142,0.705,0.423,0.986
			c0.282,0.281,0.706,0.422,1.269,0.422c0.564,0,1.176-0.154,1.832-0.469C849.338,47.417,849.855,46.915,850.23,46.226z"/>
		<path fill="#DBD8D3" d="M864.42,49.421c-0.314,0.127-0.675,0.234-1.08,0.328c-0.41,0.093-0.957,0.141-1.646,0.141
			c-1.127,0-2.035-0.313-2.723-0.939c-0.691-0.625-1.035-1.502-1.035-2.631v-5.637h-3.195v-1.504h3.195v-3.664h1.879v3.664h3.854
			v1.504h-3.854v5.73c0,0.502,0.125,0.926,0.377,1.27c0.248,0.346,0.719,0.516,1.408,0.516s1.254-0.061,1.691-0.188
			c0.438-0.125,0.814-0.281,1.129-0.469V49.421z"/>
		<path fill="#DBD8D3" d="M876.822,46.132c-0.127,1.126-0.627,2.037-1.504,2.725c-0.877,0.691-1.91,1.033-3.1,1.033
			c-1.504,0-2.742-0.484-3.711-1.455c-0.973-0.971-1.457-2.303-1.457-3.994s0.484-3.021,1.457-3.992
			c0.969-0.971,2.207-1.457,3.711-1.457c1.314,0,2.395,0.422,3.24,1.267c0.846,0.846,1.27,2.241,1.27,4.182h-7.611
			c0,1.379,0.297,2.35,0.893,2.912c0.596,0.564,1.33,0.846,2.209,0.846c0.688,0,1.252-0.17,1.691-0.516
			c0.437-0.344,0.719-0.861,0.846-1.551H876.822z M874.566,42.937c-0.125-0.875-0.408-1.486-0.846-1.832
			c-0.438-0.344-1.002-0.516-1.691-0.516c-0.625,0-1.189,0.172-1.689,0.516c-0.502,0.346-0.879,0.957-1.129,1.832H874.566z"/>
	</g>
	<g>
		<path fill="#DBD8D3" d="M720.471,78.769h-2.35l-5.168-11.65h-0.094v11.65h-2.162V62.702h2.35l5.168,11.65h0.094v-11.65h2.162
			V78.769z"/>
		<path fill="#DBD8D3" d="M732.496,64.487h-3.758v14.281h-2.16V64.487h-3.758v-1.785h9.676V64.487z"/>
		<path fill="#DBD8D3" d="M744.899,67.587c0,1.504-0.438,2.695-1.315,3.57c-0.877,0.879-2.1,1.316-3.664,1.316h-2.725v6.295h-2.162
			V62.702h4.887c1.564,0,2.787,0.438,3.664,1.314C744.461,64.896,744.899,66.085,744.899,67.587z M742.738,67.587
			c0-1.189-0.281-2.004-0.846-2.443c-0.563-0.438-1.408-0.656-2.537-0.656h-2.16v6.201h2.16c1.129,0,1.974-0.219,2.537-0.658
			C742.457,69.592,742.738,68.778,742.738,67.587z"/>
		<path fill="#DBD8D3" d="M768.766,74.258c0,1.442-0.455,2.584-1.361,3.431c-0.91,0.846-2.146,1.268-3.713,1.268
			s-2.787-0.438-3.664-1.314c-0.878-0.877-1.315-1.973-1.315-3.289v-0.658h2.161v0.563c0,0.94,0.281,1.661,0.846,2.161
			c0.563,0.504,1.221,0.752,1.973,0.752c1.002,0,1.738-0.266,2.209-0.799c0.471-0.531,0.705-1.174,0.705-1.926
			c0-0.625-0.283-1.205-0.846-1.738c-0.564-0.532-1.379-1.018-2.443-1.455c-1.504-0.564-2.584-1.189-3.242-1.881
			c-0.658-0.688-0.986-1.502-0.986-2.441c0-1.316,0.453-2.382,1.363-3.195c0.906-0.814,1.986-1.223,3.24-1.223
			c1.629,0,2.803,0.486,3.523,1.457c0.721,0.973,1.081,2.02,1.081,3.148h-2.161c0.062-0.689-0.125-1.317-0.563-1.879
			c-0.439-0.565-1.066-0.846-1.881-0.846c-0.752,0-1.348,0.203-1.785,0.609c-0.438,0.408-0.657,0.957-0.657,1.645
			c0,0.564,0.173,1.051,0.517,1.457c0.344,0.408,1.236,0.893,2.678,1.457c1.379,0.563,2.443,1.236,3.195,2.02
			S768.766,73.257,768.766,74.258z"/>
		<path fill="#DBD8D3" d="M780.229,78.487c-0.314,0.127-0.673,0.234-1.081,0.328s-0.955,0.141-1.643,0.141
			c-1.129,0-2.037-0.313-2.727-0.939c-0.689-0.625-1.033-1.502-1.033-2.631v-5.637h-3.193v-1.504h3.193v-3.664h1.879v3.664h3.854
			v1.504h-3.854v5.73c0,0.502,0.125,0.926,0.377,1.27c0.248,0.346,0.719,0.516,1.408,0.516s1.252-0.061,1.691-0.188
			c0.438-0.125,0.813-0.281,1.128-0.469V78.487z"/>
		<path fill="#DBD8D3" d="M791.316,70.124c-1.189-0.188-2.193-0.014-3.006,0.518c-0.815,0.532-1.504,1.457-2.068,2.771v5.355h-1.879
			V68.245h1.879v2.725c0.564-1,1.27-1.738,2.115-2.207c0.846-0.471,1.832-0.705,2.959-0.705V70.124z"/>
		<path fill="#DBD8D3" d="M804.754,78.769h-2.256c-0.127-0.125-0.221-0.297-0.282-0.516s-0.093-0.484-0.093-0.799
			c-0.439,0.502-0.973,0.877-1.599,1.127c-0.627,0.252-1.284,0.375-1.972,0.375c-1.004,0-1.85-0.248-2.538-0.75
			c-0.69-0.502-1.034-1.223-1.034-2.162s0.313-1.691,0.941-2.256c0.624-0.563,1.596-0.939,2.912-1.127
			c0.877-0.125,1.645-0.281,2.303-0.469c0.656-0.189,0.986-0.438,0.986-0.752c0-0.377-0.143-0.752-0.424-1.129
			c-0.281-0.375-0.893-0.563-1.832-0.563c-0.752,0-1.301,0.141-1.645,0.422c-0.346,0.283-0.58,0.674-0.705,1.176h-2.066
			c0.125-1.002,0.578-1.801,1.361-2.396s1.801-0.893,3.055-0.893c1.377,0,2.41,0.314,3.102,0.939
			c0.688,0.627,1.033,1.504,1.033,2.631v5.168c0,0.375,0.061,0.721,0.188,1.033C804.314,78.144,804.502,78.456,804.754,78.769z
			 M802.123,75.292v-1.879c-0.377,0.127-0.738,0.234-1.082,0.328c-0.345,0.096-0.925,0.205-1.736,0.33
			c-0.941,0.125-1.551,0.344-1.834,0.658c-0.281,0.313-0.423,0.689-0.423,1.127c0,0.375,0.142,0.705,0.423,0.985
			c0.283,0.282,0.705,0.423,1.27,0.423s1.174-0.154,1.832-0.469C801.229,76.483,801.746,75.981,802.123,75.292z"/>
		<path fill="#DBD8D3" d="M816.311,78.487c-0.314,0.127-0.674,0.234-1.08,0.328c-0.408,0.094-0.957,0.141-1.645,0.141
			c-1.127,0-2.035-0.313-2.725-0.939c-0.689-0.625-1.033-1.502-1.033-2.631v-5.637h-3.195v-1.504h3.195v-3.664h1.879v3.664h3.852
			v1.504h-3.852v5.73c0,0.502,0.124,0.926,0.375,1.27c0.25,0.346,0.721,0.516,1.41,0.516c0.688,0,1.252-0.061,1.69-0.188
			c0.438-0.125,0.813-0.281,1.128-0.469V78.487z"/>
		<path fill="#DBD8D3" d="M828.525,78.769h-1.879v-1.973c-0.502,0.689-1.05,1.221-1.645,1.598c-0.596,0.375-1.361,0.563-2.301,0.563
			c-1.129,0-1.975-0.313-2.538-0.939c-0.563-0.625-0.845-1.408-0.845-2.348v-7.424h1.879v6.766c0,0.752,0.188,1.348,0.563,1.785
			c0.377,0.439,0.877,0.658,1.504,0.658c0.814,0,1.582-0.424,2.303-1.27c0.719-0.846,1.08-1.893,1.08-3.146v-4.793h1.879V78.769z"/>
		<path fill="#DBD8D3" d="M841.492,78.769h-1.879v-7.611c0-0.375-0.063-0.688-0.188-0.94c-0.127-0.247-0.375-0.375-0.752-0.375
			c-0.439,0-0.846,0.235-1.221,0.706c-0.377,0.469-0.564,1.08-0.564,1.832v6.389h-1.879v-7.611c0-0.375-0.064-0.688-0.188-0.94
			c-0.127-0.247-0.377-0.375-0.752-0.375c-0.439,0-0.846,0.235-1.223,0.706c-0.375,0.469-0.564,1.08-0.564,1.832v6.389h-1.879
			V68.245h1.879v1.41c0.313-0.502,0.689-0.893,1.129-1.176c0.438-0.281,0.908-0.422,1.41-0.422c0.5,0,0.922,0.141,1.268,0.422
			c0.344,0.283,0.578,0.674,0.705,1.176c0.313-0.502,0.672-0.893,1.08-1.176c0.406-0.281,0.861-0.422,1.363-0.422
			c0.75,0,1.314,0.203,1.689,0.611c0.377,0.408,0.564,0.986,0.564,1.738V78.769z"/>
		<path fill="#DBD8D3" d="M859.346,65.708c-0.815,0.814-1.85,1.598-3.102,2.35v-1.785c1.564-1.064,2.85-2.316,3.853-3.76h1.128
			v16.161h-1.879V65.708z"/>
	</g>
	<g>
		<path fill="#0F0C0E" d="M1011.367,46.497c0,6.236-5.056,11.293-11.293,11.293l0,0c-6.236,0-11.292-5.057-11.292-11.293V34.309
			c0-6.236,5.056-11.292,11.292-11.292l0,0c6.237,0,11.293,5.056,11.293,11.292V46.497z"/>
		<path fill="#0F0C0E" d="M1011.367,93.368c0,6.236-5.056,11.292-11.293,11.292l0,0c-6.236,0-11.292-5.056-11.292-11.292V81.181
			c0-6.236,5.056-11.293,11.292-11.293l0,0c6.237,0,11.293,5.057,11.293,11.293V93.368z"/>
		<path fill="#0F0C0E" d="M1019.433,75.174c-6.236,0-11.292-5.056-11.292-11.292l0,0c0-6.236,5.056-11.291,11.292-11.291h12.188
			c6.236,0,11.293,5.055,11.293,11.291l0,0c0,6.236-5.057,11.292-11.293,11.292H1019.433z"/>
		<path fill="#0F0C0E" d="M968.686,75.174c-6.237,0-11.293-5.056-11.293-11.292l0,0c0-6.236,5.056-11.291,11.293-11.291h12.188
			c6.236,0,11.291,5.055,11.291,11.291l0,0c0,6.236-5.055,11.292-11.291,11.292H968.686z"/>
		<polygon fill="#FFFFFF" points="995.521,37.758 1000.074,29.871 1004.63,37.758 		"/>
		<polygon fill="#FFFFFF" points="995.521,88.618 1000.074,96.505 1004.63,88.618 		"/>
		<polygon fill="#FFFFFF" points="971.154,59.329 963.268,63.882 971.154,68.437 		"/>
		<polygon fill="#FFFFFF" points="1029.47,68.437 1037.357,63.882 1029.47,59.329 		"/>
	</g>
	<circle fill="#0F0C0E" stroke="#070506" stroke-miterlimit="10" cx="1082.156" cy="33.814" r="12"/>
	<text transform="matrix(1 0 0 1 1079.5742 37.5645)" fill="#FFFFFF" font-family="'SimHei'" font-size="12">1</text>
	<circle fill="#0F0C0E" stroke="#070506" stroke-miterlimit="10" cx="1082.156" cy="61.702" r="12"/>
	<text transform="matrix(1 0 0 1 1079.5742 65.4531)" fill="#FFFFFF" font-family="'SimHei'" font-size="12">4</text>
	<circle fill="#0F0C0E" stroke="#070506" stroke-miterlimit="10" cx="1082.156" cy="89.59" r="12"/>
	<text transform="matrix(1 0 0 1 1079.5742 93.3398)" fill="#FFFFFF" font-family="'SimHei'" font-size="12">7</text>
	<circle fill="#0F0C0E" stroke="#070506" stroke-miterlimit="10" cx="1116.156" cy="33.814" r="12"/>
	<text transform="matrix(1 0 0 1 1113.5742 37.5645)" fill="#FFFFFF" font-family="'SimHei'" font-size="12">2</text>
	<circle fill="#0F0C0E" stroke="#070506" stroke-miterlimit="10" cx="1116.156" cy="61.702" r="12"/>
	<text transform="matrix(1 0 0 1 1113.5742 65.4531)" fill="#FFFFFF" font-family="'SimHei'" font-size="12">5</text>
	<text transform="matrix(1 0 0 1 215.1245 49.7109)" fill="#FFFFFF" font-family="'SimHei'" font-size="12">Console</text>
	<text transform="matrix(1 0 0 1 317.6245 49.7109)" fill="#FFFFFF" font-family="'SimHei'" font-size="12">Sync</text>
	<text transform="matrix(1 0 0 1 317.6245 66.7109)" fill="#FFFFFF" font-family="'SimHei'" font-size="12">Network</text>
	<text transform="matrix(1 0 0 1 317.6245 82.1426)" fill="#FFFFFF" font-family="'SimHei'" font-size="12">NTP</text>
	<text transform="matrix(1 0 0 1 317.6245 97.0859)" fill="#FFFFFF" font-family="'SimHei'" font-size="12">AIarm</text>
	<text transform="matrix(1 0 0 1 217.7915 64.377)" fill="#FFFFFF" font-family="'SimHei'" font-size="12">RS-232</text>
	<circle fill="#0F0C0E" stroke="#070506" stroke-miterlimit="10" cx="1116.156" cy="89.59" r="12"/>
	<text transform="matrix(1 0 0 1 1113.5742 93.3398)" fill="#FFFFFF" font-family="'SimHei'" font-size="12">8</text>
	<circle fill="#0F0C0E" stroke="#070506" stroke-miterlimit="10" cx="1150.156" cy="33.814" r="12"/>
	<text transform="matrix(1 0 0 1 1147.5742 37.5645)" fill="#FFFFFF" font-family="'SimHei'" font-size="12">3</text>
	<circle fill="#0F0C0E" stroke="#070506" stroke-miterlimit="10" cx="1150.156" cy="61.702" r="12"/>
	<text transform="matrix(1 0 0 1 1147.5742 65.4531)" fill="#FFFFFF" font-family="'SimHei'" font-size="12">6</text>
	<circle fill="#0F0C0E" stroke="#070506" stroke-miterlimit="10" cx="1185.044" cy="61.702" r="12"/>
	<text transform="matrix(1 0 0 1 1182.4609 65.4531)" fill="#FFFFFF" font-family="'SimHei'" font-size="12">0</text>
	<circle fill="#0F0C0E" stroke="#070506" stroke-miterlimit="10" cx="1150.156" cy="89.59" r="12"/>
	<text transform="matrix(1 0 0 1 1147.5742 93.3398)" fill="#FFFFFF" font-family="'SimHei'" font-size="12">9</text>
	<path fill="#0C0909" stroke="#070304" stroke-miterlimit="10" d="M1225.55,33.814c0,6.333-5.133,11.466-11.465,11.466h-29.236
		c-6.332,0-11.465-5.133-11.465-11.466l0,0c0-6.332,5.133-11.465,11.465-11.465h29.236
		C1220.417,22.35,1225.55,27.482,1225.55,33.814L1225.55,33.814z"/>
	<text transform="matrix(1.2481 0 0 1 1185.0449 36.9551)" fill="#FFFFFF" font-family="'SimHei'" font-size="9.2428">ENTER</text>
	<path fill="#0C0909" stroke="#070304" stroke-miterlimit="10" d="M1225.55,89.59c0,6.333-5.133,11.466-11.465,11.466h-29.236
		c-6.332,0-11.465-5.133-11.465-11.466l0,0c0-6.332,5.133-11.465,11.465-11.465h29.236
		C1220.417,78.125,1225.55,83.258,1225.55,89.59L1225.55,89.59z"/>
	<text transform="matrix(1.2481 0 0 1 1191.4199 92.7305)" fill="#FFFFFF" font-family="'SimHei'" font-size="9.2428">CLA</text>
	<path fill="#0C0909" stroke="#070304" stroke-miterlimit="10" d="M1313.269,33.814c0,6.333-5.133,11.466-11.465,11.466h-29.237
		c-6.331,0-11.465-5.133-11.465-11.466l0,0c0-6.332,5.134-11.465,11.465-11.465h29.237
		C1308.136,22.35,1313.269,27.482,1313.269,33.814L1313.269,33.814z"/>
	<text transform="matrix(1.2481 0 0 1 1275.0957 36.9551)" fill="#FFFFFF" font-family="'SimHei'" font-size="9.2428">TIME</text>
	<path fill="#0C0909" stroke="#070304" stroke-miterlimit="10" d="M1313.269,62.236c0,6.333-5.133,11.466-11.465,11.466h-29.237
		c-6.331,0-11.465-5.133-11.465-11.466l0,0c0-6.332,5.134-11.465,11.465-11.465h29.237
		C1308.136,50.771,1313.269,55.904,1313.269,62.236L1313.269,62.236z"/>
	<text transform="matrix(1.2481 0 0 1 1270.7637 65.377)" fill="#FFFFFF" font-family="'SimHei'" font-size="9.2428">STATUS</text>
	<path fill="#0C0909" stroke="#070304" stroke-miterlimit="10" d="M1313.269,89.59c0,6.333-5.133,11.466-11.465,11.466h-29.237
		c-6.331,0-11.465-5.133-11.465-11.466l0,0c0-6.332,5.134-11.465,11.465-11.465h29.237
		C1308.136,78.125,1313.269,83.258,1313.269,89.59L1313.269,89.59z"/>
	<text transform="matrix(1.2481 0 0 1 1276.2637 92.7305)" fill="#FFFFFF" font-family="'SimHei'" font-size="9.2428">MEHU</text>
	<circle fill="#B8D452" cx="307.324" cy="46.253" r="6.597"/>
	<circle fill="#B8D452" cx="307.324" cy="62.462" r="6.597"/>
	<circle fill="#7D7F31" stroke="#070505" stroke-miterlimit="10" cx="307.323" cy="77.796" r="4.906"/>
	<circle fill="#B8D452" cx="307.324" cy="92.048" r="6.597"/>
	<g>
		<text transform="matrix(1 0 0 1 118.4683 34.0127)" fill="#F6F5F0" font-family="'MicrosoftYaHei'" font-size="12">Symmctricom</text>
		<path fill="#F6F5F0" d="M129.094,24.671c0,0,28.551-14.308,58.066,0C187.161,24.671,160.534,12.715,129.094,24.671z"/>
		<path fill="#F6F5F0" d="M163.605,18.468c0,0,0.212-0.058,0.597-0.156c3.057-0.78,16.999-4.083,21.439-0.601
			c4.998,3.92-11.019,9.801-11.019,9.801S200.275,14.814,163.605,18.468z"/>
	</g>
	<g>
		<g>
			<linearGradient id="SVGID_1_" gradientUnits="userSpaceOnUse" x1="-9.765625e-004" y1="63.0698" x2="70.8647" y2="63.0698">
				<stop  offset="0" style="stop-color:#30363E"/>
				<stop  offset="0.7778" style="stop-color:#30363E"/>
				<stop  offset="0.8673" style="stop-color:#434C5A"/>
				<stop  offset="1" style="stop-color:#030000"/>
			</linearGradient>
			<rect x="-0.001" y="-0.001" fill="url(#SVGID_1_)" width="70.866" height="126.142"/>
			<g>
				<g>
					<path fill="#B7B6B6" d="M40.19,15.368c0,3.931-3.187,7.118-7.119,7.118H17.712c-3.932,0-7.118-3.188-7.118-7.118l0,0
						c0-3.932,3.187-7.119,7.118-7.119h15.359C37.003,8.249,40.19,11.437,40.19,15.368L40.19,15.368z"/>
					<path fill="#0E0D0D" d="M39.349,15.166c0,3.82-3.097,6.917-6.917,6.917H17.511c-3.82,0-6.917-3.096-6.917-6.917l0,0
						c0-3.82,3.096-6.917,6.917-6.917h14.921C36.252,8.249,39.349,11.345,39.349,15.166L39.349,15.166z"/>
				</g>
				<g>
					<path fill="#B7B6B6" d="M40.19,110.772c0,3.931-3.187,7.118-7.119,7.118H17.712c-3.932,0-7.118-3.188-7.118-7.118l0,0
						c0-3.931,3.187-7.118,7.118-7.118h15.359C37.003,103.654,40.19,106.842,40.19,110.772L40.19,110.772z"/>
					<path fill="#0E0D0D" d="M39.349,110.57c0,3.82-3.097,6.916-6.917,6.916H17.511c-3.82,0-6.917-3.096-6.917-6.916l0,0
						c0-3.82,3.096-6.916,6.917-6.916h14.921C36.252,103.654,39.349,106.75,39.349,110.57L39.349,110.57z"/>
				</g>
			</g>
		</g>
		<g>
			<g>
				<path fill="#AFAEAE" d="M34.569,15.465c0,5.7-4.595,10.321-10.265,10.321c-5.67,0-10.267-4.621-10.267-10.321
					c0-5.701,4.597-10.323,10.267-10.323C29.974,5.142,34.569,9.764,34.569,15.465"/>
				<ellipse fill="none" stroke="#929292" stroke-miterlimit="10" cx="24.303" cy="15.465" rx="10.266" ry="10.321"/>
				<path fill="#AFAEAE" d="M31.847,15.465c0,4.188-3.378,7.584-7.543,7.584c-4.166,0-7.544-3.396-7.544-7.584
					c0-4.189,3.378-7.586,7.544-7.586C28.468,7.879,31.847,11.276,31.847,15.465"/>
				<ellipse fill="none" stroke="#929292" stroke-miterlimit="10" cx="24.303" cy="15.465" rx="7.544" ry="7.584"/>
				<g>
					<g>
						<defs>
							<rect id="SVGID_2_" x="17.191" y="8.316" width="14.222" height="14.296"/>
						</defs>
						<clipPath id="SVGID_3_">
							<use xlink:href="#SVGID_2_"  overflow="visible"/>
						</clipPath>
						<path clip-path="url(#SVGID_3_)" fill="#BEBEBD" d="M31.412,15.465c0,3.947-3.183,7.146-7.108,7.146
							c-3.928,0-7.111-3.2-7.111-7.146c0-3.948,3.183-7.149,7.111-7.149C28.229,8.316,31.412,11.517,31.412,15.465"/>
						<path clip-path="url(#SVGID_3_)" fill="#C0C0C0" d="M31.245,15.465c0,3.853-3.108,6.979-6.941,6.979
							c-3.835,0-6.943-3.125-6.943-6.979c0-3.855,3.107-6.981,6.943-6.981C28.136,8.484,31.245,11.61,31.245,15.465"/>
						<path clip-path="url(#SVGID_3_)" fill="#C2C3C3" d="M31.078,15.465c0,3.76-3.034,6.812-6.774,6.812
							c-3.743,0-6.776-3.051-6.776-6.812c0-3.763,3.033-6.813,6.776-6.813C28.043,8.653,31.078,11.703,31.078,15.465"/>
						<path clip-path="url(#SVGID_3_)" fill="#C4C5C4" d="M30.91,15.465c0,3.668-2.957,6.643-6.606,6.643
							c-3.65,0-6.609-2.975-6.609-6.643c0-3.669,2.958-6.644,6.609-6.644C27.953,8.821,30.91,11.796,30.91,15.465"/>
						<path clip-path="url(#SVGID_3_)" fill="#C6C8C8" d="M30.743,15.465c0,3.574-2.884,6.475-6.439,6.475
							c-3.558,0-6.441-2.9-6.441-6.475c0-3.577,2.883-6.477,6.441-6.477C27.859,8.988,30.743,11.889,30.743,15.465"/>
						<path clip-path="url(#SVGID_3_)" fill="#C9CACB" d="M30.576,15.465c0,3.482-2.808,6.306-6.272,6.306
							c-3.465,0-6.274-2.824-6.274-6.306c0-3.484,2.809-6.309,6.274-6.309C27.768,9.157,30.576,11.981,30.576,15.465"/>
						<path clip-path="url(#SVGID_3_)" fill="#CBCDCD" d="M30.41,15.465c0,3.389-2.735,6.139-6.106,6.139
							c-3.373,0-6.107-2.75-6.107-6.139c0-3.392,2.734-6.142,6.107-6.142C27.674,9.324,30.41,12.074,30.41,15.465"/>
						<path clip-path="url(#SVGID_3_)" fill="#CCCFD0" d="M30.243,15.465c0,3.296-2.661,5.971-5.939,5.971
							c-3.28,0-5.94-2.674-5.94-5.971c0-3.299,2.66-5.972,5.94-5.972C27.582,9.494,30.243,12.167,30.243,15.465"/>
						<path clip-path="url(#SVGID_3_)" fill="#D0D2D2" d="M30.075,15.465c0,3.204-2.584,5.802-5.771,5.802
							c-3.188,0-5.771-2.599-5.771-5.802c0-3.206,2.583-5.805,5.771-5.805C27.491,9.661,30.075,12.259,30.075,15.465"/>
						<path clip-path="url(#SVGID_3_)" fill="#D2D4D5" d="M29.908,15.465c0,3.11-2.51,5.634-5.604,5.634
							c-3.097,0-5.605-2.523-5.605-5.634c0-3.113,2.508-5.635,5.605-5.635C27.398,9.83,29.908,12.352,29.908,15.465"/>
					</g>
				</g>
				<polygon fill="#605F5E" points="23.374,19.763 23.374,16.399 20.028,16.399 20.028,14.531 23.374,14.531 23.374,11.167 
					25.232,11.167 25.232,14.531 28.578,14.531 28.578,16.399 25.232,16.399 25.232,19.763 				"/>
				<path fill="#221714" d="M25.071,11.329v3.039v0.325h0.321h3.024v1.543h-3.024h-0.321v0.323V19.6h-1.536v-3.041v-0.323h-0.321
					h-3.025v-1.543h3.025h0.321v-0.325v-3.039H25.071z M25.392,11.005h-2.179v3.362h-3.346v2.191h3.346v3.364h2.179v-3.364h3.346
					v-2.191h-3.346V11.005z"/>
			</g>
			<g>
				<path fill="#AFAEAE" d="M34.569,110.813c0,5.7-4.595,10.321-10.265,10.321c-5.67,0-10.267-4.621-10.267-10.321
					c0-5.701,4.597-10.323,10.267-10.323C29.974,100.49,34.569,105.112,34.569,110.813"/>
				<ellipse fill="none" stroke="#929292" stroke-miterlimit="10" cx="24.303" cy="110.813" rx="10.266" ry="10.321"/>
				<path fill="#AFAEAE" d="M31.847,110.813c0,4.188-3.378,7.585-7.543,7.585c-4.166,0-7.544-3.397-7.544-7.585
					c0-4.189,3.378-7.586,7.544-7.586C28.468,103.228,31.847,106.624,31.847,110.813"/>
				<ellipse fill="none" stroke="#929292" stroke-miterlimit="10" cx="24.303" cy="110.813" rx="7.544" ry="7.585"/>
				<g>
					<g>
						<defs>
							<rect id="SVGID_4_" x="17.191" y="103.664" width="14.222" height="14.296"/>
						</defs>
						<clipPath id="SVGID_5_">
							<use xlink:href="#SVGID_4_"  overflow="visible"/>
						</clipPath>
						<path clip-path="url(#SVGID_5_)" fill="#BEBEBD" d="M31.412,110.813c0,3.946-3.183,7.146-7.108,7.146
							c-3.928,0-7.111-3.2-7.111-7.146c0-3.948,3.183-7.149,7.111-7.149C28.229,103.664,31.412,106.865,31.412,110.813"/>
						<path clip-path="url(#SVGID_5_)" fill="#C0C0C0" d="M31.245,110.813c0,3.853-3.108,6.979-6.941,6.979
							c-3.835,0-6.943-3.126-6.943-6.979c0-3.855,3.107-6.981,6.943-6.981C28.136,103.832,31.245,106.958,31.245,110.813"/>
						<path clip-path="url(#SVGID_5_)" fill="#C2C3C3" d="M31.078,110.813c0,3.761-3.034,6.812-6.774,6.812
							c-3.743,0-6.776-3.051-6.776-6.812c0-3.763,3.033-6.813,6.776-6.813C28.043,104.001,31.078,107.051,31.078,110.813"/>
						<path clip-path="url(#SVGID_5_)" fill="#C4C5C4" d="M30.91,110.813c0,3.669-2.957,6.643-6.606,6.643
							c-3.65,0-6.609-2.974-6.609-6.643c0-3.67,2.958-6.644,6.609-6.644C27.953,104.17,30.91,107.144,30.91,110.813"/>
						<path clip-path="url(#SVGID_5_)" fill="#C6C8C8" d="M30.743,110.813c0,3.574-2.884,6.475-6.439,6.475
							c-3.558,0-6.441-2.9-6.441-6.475c0-3.577,2.883-6.477,6.441-6.477C27.859,104.337,30.743,107.236,30.743,110.813"/>
						<path clip-path="url(#SVGID_5_)" fill="#C9CACB" d="M30.576,110.813c0,3.482-2.808,6.306-6.272,6.306
							c-3.465,0-6.274-2.823-6.274-6.306c0-3.484,2.809-6.309,6.274-6.309C27.768,104.505,30.576,107.329,30.576,110.813"/>
						<path clip-path="url(#SVGID_5_)" fill="#CBCDCD" d="M30.41,110.813c0,3.39-2.735,6.14-6.106,6.14
							c-3.373,0-6.107-2.75-6.107-6.14c0-3.392,2.734-6.142,6.107-6.142C27.674,104.672,30.41,107.422,30.41,110.813"/>
						<path clip-path="url(#SVGID_5_)" fill="#CCCFD0" d="M30.243,110.813c0,3.296-2.661,5.971-5.939,5.971
							c-3.28,0-5.94-2.675-5.94-5.971c0-3.299,2.66-5.972,5.94-5.972C27.582,104.842,30.243,107.515,30.243,110.813"/>
						<path clip-path="url(#SVGID_5_)" fill="#D0D2D2" d="M30.075,110.813c0,3.203-2.584,5.802-5.771,5.802
							c-3.188,0-5.771-2.599-5.771-5.802c0-3.206,2.583-5.805,5.771-5.805C27.491,105.009,30.075,107.607,30.075,110.813"/>
						<path clip-path="url(#SVGID_5_)" fill="#D2D4D5" d="M29.908,110.813c0,3.11-2.51,5.634-5.604,5.634
							c-3.097,0-5.605-2.523-5.605-5.634c0-3.113,2.508-5.636,5.605-5.636C27.398,105.178,29.908,107.7,29.908,110.813"/>
					</g>
				</g>
				<polygon fill="#605F5E" points="23.374,115.111 23.374,111.747 20.028,111.747 20.028,109.879 23.374,109.879 23.374,106.515 
					25.232,106.515 25.232,109.879 28.578,109.879 28.578,111.747 25.232,111.747 25.232,115.111 				"/>
				<path fill="#221714" d="M25.071,106.677v3.039v0.325h0.321h3.024v1.543h-3.024h-0.321v0.323v3.04h-1.536v-3.04v-0.323h-0.321
					h-3.025v-1.543h3.025h0.321v-0.325v-3.039H25.071z M25.392,106.354h-2.179v3.362h-3.346v2.191h3.346v3.364h2.179v-3.364h3.346
					v-2.191h-3.346V106.354z"/>
			</g>
		</g>
	</g>
	<g>
		<g>
			
				<linearGradient id="SVGID_6_" gradientUnits="userSpaceOnUse" x1="-9180.8184" y1="63.0698" x2="-9109.9531" y2="63.0698" gradientTransform="matrix(-1 0 0 1 -7763.4971 0)">
				<stop  offset="0" style="stop-color:#30363E"/>
				<stop  offset="0.7778" style="stop-color:#30363E"/>
				<stop  offset="0.8673" style="stop-color:#434C5A"/>
				<stop  offset="1" style="stop-color:#030000"/>
			</linearGradient>
			<rect x="1346.456" y="-0.001" fill="url(#SVGID_6_)" width="70.865" height="126.142"/>
			<g>
				<g>
					<path fill="#B7B6B6" d="M1377.13,15.368c0,3.931,3.188,7.118,7.119,7.118h15.359c3.932,0,7.119-3.188,7.119-7.118l0,0
						c0-3.932-3.188-7.119-7.119-7.119h-15.359C1380.317,8.249,1377.13,11.437,1377.13,15.368L1377.13,15.368z"/>
					<path fill="#0E0D0D" d="M1377.972,15.166c0,3.82,3.098,6.917,6.917,6.917h14.921c3.82,0,6.918-3.096,6.918-6.917l0,0
						c0-3.82-3.098-6.917-6.918-6.917h-14.921C1381.069,8.249,1377.972,11.345,1377.972,15.166L1377.972,15.166z"/>
				</g>
				<g>
					<path fill="#B7B6B6" d="M1377.13,110.772c0,3.931,3.188,7.118,7.119,7.118h15.359c3.932,0,7.119-3.188,7.119-7.118l0,0
						c0-3.931-3.188-7.118-7.119-7.118h-15.359C1380.317,103.654,1377.13,106.842,1377.13,110.772L1377.13,110.772z"/>
					<path fill="#0E0D0D" d="M1377.972,110.57c0,3.82,3.098,6.916,6.917,6.916h14.921c3.82,0,6.918-3.096,6.918-6.916l0,0
						c0-3.82-3.098-6.916-6.918-6.916h-14.921C1381.069,103.654,1377.972,106.75,1377.972,110.57L1377.972,110.57z"/>
				</g>
			</g>
		</g>
		<g>
			<g>
				<path fill="#AFAEAE" d="M1382.752,15.465c0,5.7,4.595,10.321,10.265,10.321c5.671,0,10.268-4.621,10.268-10.321
					c0-5.701-4.597-10.323-10.268-10.323C1387.347,5.142,1382.752,9.764,1382.752,15.465"/>
				<ellipse fill="none" stroke="#929292" stroke-miterlimit="10" cx="1393.018" cy="15.465" rx="10.266" ry="10.321"/>
				<path fill="#AFAEAE" d="M1385.474,15.465c0,4.188,3.379,7.584,7.543,7.584c4.166,0,7.545-3.396,7.545-7.584
					c0-4.189-3.379-7.586-7.545-7.586C1388.853,7.879,1385.474,11.276,1385.474,15.465"/>
				<ellipse fill="none" stroke="#929292" stroke-miterlimit="10" cx="1393.018" cy="15.465" rx="7.544" ry="7.584"/>
				<g>
					<g>
						<defs>
							<rect id="SVGID_7_" x="1385.907" y="8.316" width="14.223" height="14.296"/>
						</defs>
						<clipPath id="SVGID_8_">
							<use xlink:href="#SVGID_7_"  overflow="visible"/>
						</clipPath>
						<path clip-path="url(#SVGID_8_)" fill="#BEBEBD" d="M1385.909,15.465c0,3.947,3.183,7.146,7.107,7.146
							c3.928,0,7.111-3.2,7.111-7.146c0-3.948-3.184-7.149-7.111-7.149C1389.092,8.316,1385.909,11.517,1385.909,15.465"/>
						<path clip-path="url(#SVGID_8_)" fill="#C0C0C0" d="M1386.075,15.465c0,3.853,3.109,6.979,6.941,6.979
							c3.836,0,6.943-3.125,6.943-6.979c0-3.855-3.107-6.981-6.943-6.981C1389.185,8.484,1386.075,11.61,1386.075,15.465"/>
						<path clip-path="url(#SVGID_8_)" fill="#C2C3C3" d="M1386.243,15.465c0,3.76,3.033,6.812,6.773,6.812
							c3.743,0,6.775-3.051,6.775-6.812c0-3.763-3.032-6.813-6.775-6.813C1389.276,8.653,1386.243,11.703,1386.243,15.465"/>
						<path clip-path="url(#SVGID_8_)" fill="#C4C5C4" d="M1386.411,15.465c0,3.668,2.957,6.643,6.605,6.643
							c3.65,0,6.609-2.975,6.609-6.643c0-3.669-2.959-6.644-6.609-6.644C1389.368,8.821,1386.411,11.796,1386.411,15.465"/>
						<path clip-path="url(#SVGID_8_)" fill="#C6C8C8" d="M1386.577,15.465c0,3.574,2.885,6.475,6.439,6.475
							c3.559,0,6.441-2.9,6.441-6.475c0-3.577-2.883-6.477-6.441-6.477C1389.462,8.988,1386.577,11.889,1386.577,15.465"/>
						<path clip-path="url(#SVGID_8_)" fill="#C9CACB" d="M1386.745,15.465c0,3.482,2.808,6.306,6.271,6.306
							c3.467,0,6.274-2.824,6.274-6.306c0-3.484-2.808-6.309-6.274-6.309C1389.553,9.157,1386.745,11.981,1386.745,15.465"/>
						<path clip-path="url(#SVGID_8_)" fill="#CBCDCD" d="M1386.911,15.465c0,3.389,2.734,6.139,6.105,6.139
							c3.373,0,6.107-2.75,6.107-6.139c0-3.392-2.734-6.142-6.107-6.142C1389.646,9.324,1386.911,12.074,1386.911,15.465"/>
						<path clip-path="url(#SVGID_8_)" fill="#CCCFD0" d="M1387.077,15.465c0,3.296,2.662,5.971,5.939,5.971
							c3.281,0,5.939-2.674,5.939-5.971c0-3.299-2.658-5.972-5.939-5.972C1389.739,9.494,1387.077,12.167,1387.077,15.465"/>
						<path clip-path="url(#SVGID_8_)" fill="#D0D2D2" d="M1387.245,15.465c0,3.204,2.584,5.802,5.771,5.802
							c3.189,0,5.771-2.599,5.771-5.802c0-3.206-2.582-5.805-5.771-5.805C1389.829,9.661,1387.245,12.259,1387.245,15.465"/>
						<path clip-path="url(#SVGID_8_)" fill="#D2D4D5" d="M1387.413,15.465c0,3.11,2.51,5.634,5.604,5.634
							c3.098,0,5.605-2.523,5.605-5.634c0-3.113-2.508-5.635-5.605-5.635C1389.923,9.83,1387.413,12.352,1387.413,15.465"/>
					</g>
				</g>
				<polygon fill="#605F5E" points="1393.946,19.763 1393.946,16.399 1397.292,16.399 1397.292,14.531 1393.946,14.531 
					1393.946,11.167 1392.089,11.167 1392.089,14.531 1388.743,14.531 1388.743,16.399 1392.089,16.399 1392.089,19.763 				"/>
				<path fill="#221714" d="M1393.786,11.329v3.039v0.325h0.32h3.025v1.543h-3.025h-0.32v0.323V19.6h-1.535v-3.041v-0.323h-0.322
					h-3.024v-1.543h3.024h0.322v-0.325v-3.039H1393.786z M1391.929,14.368h-3.346v2.191h3.346v3.364h2.178v-3.364h3.347v-2.191
					h-3.347v-3.362h-2.178V14.368z"/>
			</g>
			<g>
				<path fill="#AFAEAE" d="M1382.752,110.813c0,5.7,4.595,10.321,10.265,10.321c5.671,0,10.268-4.621,10.268-10.321
					c0-5.701-4.597-10.323-10.268-10.323C1387.347,100.49,1382.752,105.112,1382.752,110.813"/>
				<ellipse fill="none" stroke="#929292" stroke-miterlimit="10" cx="1393.018" cy="110.813" rx="10.266" ry="10.321"/>
				<path fill="#AFAEAE" d="M1385.474,110.813c0,4.188,3.379,7.585,7.543,7.585c4.166,0,7.545-3.397,7.545-7.585
					c0-4.189-3.379-7.586-7.545-7.586C1388.853,103.228,1385.474,106.624,1385.474,110.813"/>
				<ellipse fill="none" stroke="#929292" stroke-miterlimit="10" cx="1393.018" cy="110.813" rx="7.544" ry="7.585"/>
				<g>
					<g>
						<defs>
							<rect id="SVGID_9_" x="1385.907" y="103.664" width="14.223" height="14.296"/>
						</defs>
						<clipPath id="SVGID_10_">
							<use xlink:href="#SVGID_9_"  overflow="visible"/>
						</clipPath>
						<path clip-path="url(#SVGID_10_)" fill="#BEBEBD" d="M1385.909,110.813c0,3.946,3.183,7.146,7.107,7.146
							c3.928,0,7.111-3.2,7.111-7.146c0-3.948-3.184-7.149-7.111-7.149C1389.092,103.664,1385.909,106.865,1385.909,110.813"/>
						<path clip-path="url(#SVGID_10_)" fill="#C0C0C0" d="M1386.075,110.813c0,3.853,3.109,6.979,6.941,6.979
							c3.836,0,6.943-3.126,6.943-6.979c0-3.855-3.107-6.981-6.943-6.981C1389.185,103.832,1386.075,106.958,1386.075,110.813"/>
						<path clip-path="url(#SVGID_10_)" fill="#C2C3C3" d="M1386.243,110.813c0,3.761,3.033,6.812,6.773,6.812
							c3.743,0,6.775-3.051,6.775-6.812c0-3.763-3.032-6.813-6.775-6.813C1389.276,104.001,1386.243,107.051,1386.243,110.813"/>
						<path clip-path="url(#SVGID_10_)" fill="#C4C5C4" d="M1386.411,110.813c0,3.669,2.957,6.643,6.605,6.643
							c3.65,0,6.609-2.974,6.609-6.643c0-3.67-2.959-6.644-6.609-6.644C1389.368,104.17,1386.411,107.144,1386.411,110.813"/>
						<path clip-path="url(#SVGID_10_)" fill="#C6C8C8" d="M1386.577,110.813c0,3.574,2.885,6.475,6.439,6.475
							c3.559,0,6.441-2.9,6.441-6.475c0-3.577-2.883-6.477-6.441-6.477C1389.462,104.337,1386.577,107.236,1386.577,110.813"/>
						<path clip-path="url(#SVGID_10_)" fill="#C9CACB" d="M1386.745,110.813c0,3.482,2.808,6.306,6.271,6.306
							c3.467,0,6.274-2.823,6.274-6.306c0-3.484-2.808-6.309-6.274-6.309C1389.553,104.505,1386.745,107.329,1386.745,110.813"/>
						<path clip-path="url(#SVGID_10_)" fill="#CBCDCD" d="M1386.911,110.813c0,3.39,2.734,6.14,6.105,6.14
							c3.373,0,6.107-2.75,6.107-6.14c0-3.392-2.734-6.142-6.107-6.142C1389.646,104.672,1386.911,107.422,1386.911,110.813"/>
						<path clip-path="url(#SVGID_10_)" fill="#CCCFD0" d="M1387.077,110.813c0,3.296,2.662,5.971,5.939,5.971
							c3.281,0,5.939-2.675,5.939-5.971c0-3.299-2.658-5.972-5.939-5.972C1389.739,104.842,1387.077,107.515,1387.077,110.813"/>
						<path clip-path="url(#SVGID_10_)" fill="#D0D2D2" d="M1387.245,110.813c0,3.203,2.584,5.802,5.771,5.802
							c3.189,0,5.771-2.599,5.771-5.802c0-3.206-2.582-5.805-5.771-5.805C1389.829,105.009,1387.245,107.607,1387.245,110.813"/>
						<path clip-path="url(#SVGID_10_)" fill="#D2D4D5" d="M1387.413,110.813c0,3.11,2.51,5.634,5.604,5.634
							c3.098,0,5.605-2.523,5.605-5.634c0-3.113-2.508-5.636-5.605-5.636C1389.923,105.178,1387.413,107.7,1387.413,110.813"/>
					</g>
				</g>
				<polygon fill="#605F5E" points="1393.946,115.111 1393.946,111.747 1397.292,111.747 1397.292,109.879 1393.946,109.879 
					1393.946,106.515 1392.089,106.515 1392.089,109.879 1388.743,109.879 1388.743,111.747 1392.089,111.747 1392.089,115.111 				
					"/>
				<path fill="#221714" d="M1393.786,106.677v3.039v0.325h0.32h3.025v1.543h-3.025h-0.32v0.323v3.04h-1.535v-3.04v-0.323h-0.322
					h-3.024v-1.543h3.024h0.322v-0.325v-3.039H1393.786z M1391.929,109.716h-3.346v2.191h3.346v3.364h2.178v-3.364h3.347v-2.191
					h-3.347v-3.362h-2.178V109.716z"/>
			</g>
		</g>
	</g>
</g>
</svg>
