<?xml version="1.0" encoding="utf-8"?>
<!-- Generator: Adobe Illustrator 16.0.0, SVG Export Plug-In . SVG Version: 6.00 Build 0)  -->
<!DOCTYPE svg PUBLIC "-//W3C//DTD SVG 1.1//EN" "http://www.w3.org/Graphics/SVG/1.1/DTD/svg11.dtd">
<svg version="1.1" id="图层_1" xmlns="http://www.w3.org/2000/svg" xmlns:xlink="http://www.w3.org/1999/xlink" x="0px" y="0px"
	 width="1275.6px" height="252.3px" viewBox="0 0 1275.6 252.3" enable-background="new 0 0 1275.6 252.3" xml:space="preserve">
<polygon fill="#EBEDE1" points="0,0.008 0,126.151 0,252.291 1275.588,252.291 1275.588,126.151 1275.588,0.008 "/>
<rect y="0.008" fill="#FCFCFC" width="1275.588" height="8.568"/>
<g>
	<path fill="#4F4F4F" d="M66.713,37.497c-3.615,4.033-9.82,4.371-13.861,0.75c-4.035-3.621-4.377-9.828-0.76-13.861
		c3.615-4.033,9.82-4.369,13.859-0.748C69.99,27.256,70.332,33.461,66.713,37.497"/>
	<path fill="#AFAFAF" d="M64.775,35.758c-2.658,2.963-7.217,3.211-10.186,0.551c-2.967-2.66-3.219-7.221-0.557-10.184
		c2.654-2.965,7.217-3.211,10.182-0.551C67.182,28.233,67.432,32.795,64.775,35.758"/>
	<path fill="none" stroke="#939393" stroke-miterlimit="10" d="M64.775,35.758c-2.658,2.963-7.217,3.211-10.186,0.551
		c-2.967-2.66-3.219-7.221-0.557-10.184c2.654-2.965,7.217-3.211,10.182-0.551C67.182,28.233,67.432,32.795,64.775,35.758z"/>
	<g>
		<g>
			<defs>
				
					<rect id="SVGID_1_" x="52.6" y="24.145" transform="matrix(-0.7445 -0.6677 0.6677 -0.7445 82.9678 93.6344)" width="13.606" height="13.589"/>
			</defs>
			<clipPath id="SVGID_2_">
				<use xlink:href="#SVGID_1_"  overflow="visible"/>
			</clipPath>
			<path clip-path="url(#SVGID_2_)" fill="#BEBFBF" d="M64.467,35.481c-2.504,2.793-6.805,3.025-9.6,0.52
				c-2.797-2.508-3.031-6.805-0.527-9.6c2.506-2.793,6.801-3.025,9.596-0.518C66.734,28.391,66.971,32.688,64.467,35.481"/>
			<path clip-path="url(#SVGID_2_)" fill="#C0C1C1" d="M64.346,35.375c-2.445,2.727-6.641,2.953-9.371,0.504
				c-2.73-2.447-2.961-6.643-0.516-9.371c2.449-2.729,6.641-2.955,9.371-0.506C66.563,28.45,66.793,32.645,64.346,35.375"/>
			<path clip-path="url(#SVGID_2_)" fill="#C3C4C4" d="M64.227,35.268c-2.387,2.662-6.482,2.883-9.145,0.494
				c-2.668-2.389-2.889-6.484-0.504-9.146c2.387-2.662,6.482-2.885,9.146-0.496C66.391,28.51,66.613,32.606,64.227,35.268"/>
			<path clip-path="url(#SVGID_2_)" fill="#C5C6C6" d="M64.109,35.161c-2.328,2.596-6.322,2.811-8.922,0.482
				c-2.598-2.332-2.82-6.326-0.49-8.92c2.328-2.598,6.32-2.814,8.92-0.484S66.438,32.565,64.109,35.161"/>
			<path clip-path="url(#SVGID_2_)" fill="#C7C9C9" d="M63.988,35.055c-2.268,2.529-6.162,2.74-8.695,0.469
				c-2.531-2.271-2.746-6.166-0.477-8.695c2.27-2.531,6.162-2.74,8.695-0.471C66.043,28.629,66.258,32.524,63.988,35.055"/>
			<path clip-path="url(#SVGID_2_)" fill="#CACBCB" d="M63.871,34.948c-2.211,2.463-6.002,2.67-8.471,0.457
				c-2.467-2.213-2.676-6.004-0.467-8.469c2.213-2.467,6.006-2.67,8.471-0.459C65.871,28.69,66.078,32.481,63.871,34.948"/>
			<path clip-path="url(#SVGID_2_)" fill="#CCCECE" d="M63.752,34.84c-2.152,2.398-5.844,2.598-8.244,0.445
				c-2.402-2.152-2.605-5.844-0.453-8.242c2.15-2.4,5.84-2.602,8.244-0.447C65.701,28.75,65.902,32.44,63.752,34.84"/>
			<path clip-path="url(#SVGID_2_)" fill="#CED0D0" d="M63.631,34.735c-2.09,2.332-5.682,2.527-8.016,0.432
				c-2.336-2.094-2.535-5.686-0.441-8.018c2.092-2.334,5.682-2.527,8.02-0.434C65.527,28.809,65.725,32.401,63.631,34.735"/>
			<path clip-path="url(#SVGID_2_)" fill="#D1D3D3" d="M63.512,34.627c-2.033,2.268-5.52,2.455-7.791,0.42s-2.461-5.523-0.43-7.791
				c2.035-2.268,5.523-2.457,7.793-0.422C65.355,28.87,65.547,32.36,63.512,34.627"/>
			<path clip-path="url(#SVGID_2_)" fill="#D3D5D5" d="M63.395,34.52c-1.975,2.201-5.363,2.385-7.566,0.408
				c-2.205-1.977-2.391-5.363-0.416-7.566c1.973-2.201,5.361-2.387,7.566-0.408C65.182,28.93,65.367,32.317,63.395,34.52"/>
		</g>
	</g>
	<polygon fill="#605F5E" points="56.016,33.389 58.148,31.008 55.764,28.872 56.953,27.549 59.334,29.688 61.469,27.307 
		62.789,28.493 60.66,30.874 63.041,33.008 61.854,34.333 59.473,32.194 57.338,34.577 	"/>
	<path fill="#231815" d="M62.576,28.504l-1.93,2.152l-0.209,0.229l0.232,0.205l2.154,1.93l-0.98,1.096l-2.154-1.934l-0.229-0.205
		l-0.205,0.229l-1.93,2.154l-1.094-0.982l1.928-2.15l0.207-0.23l-0.229-0.205l-2.152-1.932l0.979-1.092l2.152,1.93l0.229,0.207
		l0.205-0.229l1.928-2.152L62.576,28.504z M63.01,28.481l-1.555-1.391l-2.133,2.379l-2.385-2.137l-1.389,1.551l2.383,2.137
		l-2.133,2.381l1.549,1.393l2.137-2.381l2.381,2.135l1.393-1.549l-2.385-2.137L63.01,28.481z"/>
</g>
<g>
	<path fill="#4F4F4F" d="M645.104,37.497c-3.615,4.033-9.821,4.371-13.862,0.75c-4.035-3.621-4.377-9.828-0.76-13.861
		c3.615-4.033,9.821-4.369,13.86-0.748C648.381,27.256,648.723,33.461,645.104,37.497"/>
	<path fill="#AFAFAF" d="M643.166,35.758c-2.658,2.963-7.217,3.211-10.186,0.551c-2.967-2.66-3.219-7.221-0.557-10.184
		c2.654-2.965,7.217-3.211,10.182-0.551C645.572,28.233,645.822,32.795,643.166,35.758"/>
	<path fill="none" stroke="#939393" stroke-miterlimit="10" d="M643.166,35.758c-2.658,2.963-7.217,3.211-10.186,0.551
		c-2.967-2.66-3.219-7.221-0.557-10.184c2.654-2.965,7.217-3.211,10.182-0.551C645.572,28.233,645.822,32.795,643.166,35.758z"/>
	<g>
		<g>
			<defs>
				
					<rect id="SVGID_3_" x="630.99" y="24.145" transform="matrix(-0.7445 -0.6677 0.6677 -0.7445 1091.9487 479.8042)" width="13.606" height="13.59"/>
			</defs>
			<clipPath id="SVGID_4_">
				<use xlink:href="#SVGID_3_"  overflow="visible"/>
			</clipPath>
			<path clip-path="url(#SVGID_4_)" fill="#BEBFBF" d="M642.857,35.481c-2.504,2.793-6.805,3.025-9.6,0.52
				c-2.797-2.508-3.031-6.805-0.527-9.6c2.506-2.793,6.801-3.025,9.596-0.518C645.125,28.391,645.361,32.688,642.857,35.481"/>
			<path clip-path="url(#SVGID_4_)" fill="#C0C1C1" d="M642.736,35.375c-2.445,2.727-6.641,2.953-9.372,0.504
				c-2.73-2.447-2.961-6.643-0.516-9.371c2.449-2.729,6.641-2.955,9.372-0.506C644.953,28.45,645.184,32.645,642.736,35.375"/>
			<path clip-path="url(#SVGID_4_)" fill="#C3C4C4" d="M642.617,35.268c-2.387,2.662-6.483,2.883-9.145,0.494
				c-2.668-2.389-2.889-6.484-0.504-9.146c2.387-2.662,6.483-2.885,9.147-0.496C644.781,28.51,645.004,32.606,642.617,35.268"/>
			<path clip-path="url(#SVGID_4_)" fill="#C5C6C6" d="M642.5,35.161c-2.328,2.596-6.323,2.811-8.922,0.482
				c-2.598-2.332-2.82-6.326-0.49-8.92c2.328-2.598,6.321-2.814,8.92-0.484S644.828,32.565,642.5,35.161"/>
			<path clip-path="url(#SVGID_4_)" fill="#C7C9C9" d="M642.379,35.055c-2.268,2.529-6.163,2.74-8.696,0.469
				c-2.531-2.271-2.746-6.166-0.477-8.695c2.27-2.531,6.163-2.74,8.696-0.471C644.434,28.629,644.648,32.524,642.379,35.055"/>
			<path clip-path="url(#SVGID_4_)" fill="#CACBCB" d="M642.262,34.948c-2.211,2.463-6.002,2.67-8.471,0.457
				c-2.467-2.213-2.676-6.004-0.467-8.469c2.213-2.467,6.006-2.67,8.471-0.459C644.262,28.69,644.469,32.481,642.262,34.948"/>
			<path clip-path="url(#SVGID_4_)" fill="#CCCECE" d="M642.143,34.84c-2.152,2.398-5.844,2.598-8.245,0.445
				c-2.402-2.152-2.605-5.844-0.453-8.242c2.15-2.4,5.84-2.602,8.245-0.447C644.092,28.75,644.293,32.44,642.143,34.84"/>
			<path clip-path="url(#SVGID_4_)" fill="#CED0D0" d="M642.021,34.735c-2.09,2.332-5.682,2.527-8.016,0.432
				c-2.336-2.094-2.535-5.686-0.441-8.018c2.092-2.334,5.682-2.527,8.02-0.434C643.918,28.809,644.115,32.401,642.021,34.735"/>
			<path clip-path="url(#SVGID_4_)" fill="#D1D3D3" d="M641.902,34.627c-2.033,2.268-5.52,2.455-7.792,0.42s-2.461-5.523-0.43-7.791
				c2.035-2.268,5.524-2.457,7.793-0.422C643.746,28.87,643.938,32.36,641.902,34.627"/>
			<path clip-path="url(#SVGID_4_)" fill="#D3D5D5" d="M641.785,34.52c-1.975,2.201-5.364,2.385-7.567,0.408
				c-2.205-1.977-2.391-5.363-0.416-7.566c1.973-2.201,5.362-2.387,7.567-0.408C643.572,28.93,643.758,32.317,641.785,34.52"/>
		</g>
	</g>
	<polygon fill="#605F5E" points="634.406,33.389 636.539,31.008 634.154,28.872 635.343,27.549 637.724,29.688 639.859,27.307 
		641.18,28.493 639.051,30.874 641.432,33.008 640.244,34.333 637.863,32.194 635.728,34.577 	"/>
	<path fill="#231815" d="M640.967,28.504l-1.93,2.152l-0.209,0.229l0.233,0.205l2.154,1.93l-0.98,1.096l-2.155-1.934l-0.229-0.205
		l-0.205,0.229l-1.93,2.154l-1.094-0.982l1.928-2.15l0.207-0.23l-0.229-0.205l-2.152-1.932l0.979-1.092l2.152,1.93l0.229,0.207
		l0.205-0.229l1.928-2.152L640.967,28.504z M641.4,28.481l-1.555-1.391l-2.133,2.379l-2.385-2.137l-1.389,1.551l2.383,2.137
		l-2.133,2.381l1.549,1.393l2.137-2.381l2.381,2.135l1.393-1.549l-2.385-2.137L641.4,28.481z"/>
</g>
<g>
	<path fill="#4F4F4F" d="M1232.156,37.497c-3.615,4.033-9.82,4.371-13.861,0.75c-4.035-3.621-4.377-9.828-0.76-13.861
		c3.615-4.033,9.82-4.369,13.859-0.748C1235.434,27.256,1235.775,33.461,1232.156,37.497"/>
	<path fill="#AFAFAF" d="M1230.219,35.758c-2.658,2.963-7.217,3.211-10.186,0.551c-2.967-2.66-3.219-7.221-0.557-10.184
		c2.654-2.965,7.217-3.211,10.182-0.551C1232.625,28.233,1232.875,32.795,1230.219,35.758"/>
	<path fill="none" stroke="#939393" stroke-miterlimit="10" d="M1230.219,35.758c-2.658,2.963-7.217,3.211-10.186,0.551
		c-2.967-2.66-3.219-7.221-0.557-10.184c2.654-2.965,7.217-3.211,10.182-0.551C1232.625,28.233,1232.875,32.795,1230.219,35.758z"/>
	<g>
		<g>
			<defs>
				
					<rect id="SVGID_5_" x="1218.043" y="24.145" transform="matrix(-0.7445 -0.6677 0.6677 -0.7445 2116.0413 871.7578)" width="13.606" height="13.589"/>
			</defs>
			<clipPath id="SVGID_6_">
				<use xlink:href="#SVGID_5_"  overflow="visible"/>
			</clipPath>
			<path clip-path="url(#SVGID_6_)" fill="#BEBFBF" d="M1229.91,35.481c-2.504,2.793-6.805,3.025-9.6,0.52
				c-2.797-2.508-3.031-6.805-0.527-9.6c2.506-2.793,6.801-3.025,9.596-0.518C1232.178,28.391,1232.414,32.688,1229.91,35.481"/>
			<path clip-path="url(#SVGID_6_)" fill="#C0C1C1" d="M1229.789,35.375c-2.445,2.727-6.641,2.953-9.371,0.504
				c-2.73-2.447-2.961-6.643-0.516-9.371c2.449-2.729,6.641-2.955,9.371-0.506C1232.006,28.45,1232.236,32.645,1229.789,35.375"/>
			<path clip-path="url(#SVGID_6_)" fill="#C3C4C4" d="M1229.67,35.268c-2.387,2.662-6.482,2.883-9.145,0.494
				c-2.668-2.389-2.889-6.484-0.504-9.146c2.387-2.662,6.482-2.885,9.146-0.496C1231.834,28.51,1232.057,32.606,1229.67,35.268"/>
			<path clip-path="url(#SVGID_6_)" fill="#C5C6C6" d="M1229.553,35.161c-2.328,2.596-6.322,2.811-8.922,0.482
				c-2.598-2.332-2.82-6.326-0.49-8.92c2.328-2.598,6.32-2.814,8.92-0.484S1231.881,32.565,1229.553,35.161"/>
			<path clip-path="url(#SVGID_6_)" fill="#C7C9C9" d="M1229.432,35.055c-2.268,2.529-6.162,2.74-8.695,0.469
				c-2.531-2.271-2.746-6.166-0.477-8.695c2.27-2.531,6.162-2.74,8.695-0.471C1231.486,28.629,1231.701,32.524,1229.432,35.055"/>
			<path clip-path="url(#SVGID_6_)" fill="#CACBCB" d="M1229.314,34.948c-2.211,2.463-6.002,2.67-8.471,0.457
				c-2.467-2.213-2.676-6.004-0.467-8.469c2.213-2.467,6.006-2.67,8.471-0.459C1231.314,28.69,1231.521,32.481,1229.314,34.948"/>
			<path clip-path="url(#SVGID_6_)" fill="#CCCECE" d="M1229.195,34.84c-2.152,2.398-5.844,2.598-8.244,0.445
				c-2.402-2.152-2.605-5.844-0.453-8.242c2.15-2.4,5.84-2.602,8.244-0.447C1231.145,28.75,1231.346,32.44,1229.195,34.84"/>
			<path clip-path="url(#SVGID_6_)" fill="#CED0D0" d="M1229.074,34.735c-2.09,2.332-5.682,2.527-8.016,0.432
				c-2.336-2.094-2.535-5.686-0.441-8.018c2.092-2.334,5.682-2.527,8.02-0.434C1230.971,28.809,1231.168,32.401,1229.074,34.735"/>
			<path clip-path="url(#SVGID_6_)" fill="#D1D3D3" d="M1228.955,34.627c-2.033,2.268-5.52,2.455-7.791,0.42
				s-2.461-5.523-0.43-7.791c2.035-2.268,5.523-2.457,7.793-0.422C1230.799,28.87,1230.99,32.36,1228.955,34.627"/>
			<path clip-path="url(#SVGID_6_)" fill="#D3D5D5" d="M1228.838,34.52c-1.975,2.201-5.363,2.385-7.566,0.408
				c-2.205-1.977-2.391-5.363-0.416-7.566c1.973-2.201,5.361-2.387,7.566-0.408C1230.625,28.93,1230.811,32.317,1228.838,34.52"/>
		</g>
	</g>
	<polygon fill="#605F5E" points="1221.459,33.389 1223.592,31.008 1221.207,28.872 1222.396,27.549 1224.777,29.688 
		1226.912,27.307 1228.232,28.493 1226.104,30.874 1228.484,33.008 1227.297,34.333 1224.916,32.194 1222.781,34.577 	"/>
	<path fill="#231815" d="M1228.02,28.504l-1.93,2.152l-0.209,0.229l0.232,0.205l2.154,1.93l-0.98,1.096l-2.154-1.934l-0.229-0.205
		l-0.205,0.229l-1.93,2.154l-1.094-0.982l1.928-2.15l0.207-0.23l-0.229-0.205l-2.152-1.932l0.979-1.092l2.152,1.93l0.229,0.207
		l0.205-0.229l1.928-2.152L1228.02,28.504z M1228.453,28.481l-1.555-1.391l-2.133,2.379l-2.385-2.137l-1.389,1.551l2.383,2.137
		l-2.133,2.381l1.549,1.393l2.137-2.381l2.381,2.135l1.393-1.549l-2.385-2.137L1228.453,28.481z"/>
</g>
<g>
	<path fill="#4F4F4F" d="M66.713,239.279c-3.615,4.033-9.82,4.371-13.861,0.75c-4.035-3.621-4.377-9.828-0.76-13.861
		c3.615-4.033,9.82-4.369,13.859-0.748C69.99,229.039,70.332,235.244,66.713,239.279"/>
	<path fill="#AFAFAF" d="M64.775,237.541c-2.658,2.963-7.217,3.211-10.186,0.551c-2.967-2.66-3.219-7.221-0.557-10.184
		c2.654-2.965,7.217-3.211,10.182-0.551C67.182,230.016,67.432,234.578,64.775,237.541"/>
	<path fill="none" stroke="#939393" stroke-miterlimit="10" d="M64.775,237.541c-2.658,2.963-7.217,3.211-10.186,0.551
		c-2.967-2.66-3.219-7.221-0.557-10.184c2.654-2.965,7.217-3.211,10.182-0.551C67.182,230.016,67.432,234.578,64.775,237.541z"/>
	<g>
		<g>
			<defs>
				
					<rect id="SVGID_7_" x="52.6" y="225.928" transform="matrix(-0.7445 -0.6677 0.6677 -0.7445 -51.7551 445.637)" width="13.606" height="13.589"/>
			</defs>
			<clipPath id="SVGID_8_">
				<use xlink:href="#SVGID_7_"  overflow="visible"/>
			</clipPath>
			<path clip-path="url(#SVGID_8_)" fill="#BEBFBF" d="M64.467,237.264c-2.504,2.793-6.805,3.025-9.6,0.52
				c-2.797-2.508-3.031-6.805-0.527-9.6c2.506-2.793,6.801-3.025,9.596-0.518C66.734,230.174,66.971,234.471,64.467,237.264"/>
			<path clip-path="url(#SVGID_8_)" fill="#C0C1C1" d="M64.346,237.158c-2.445,2.727-6.641,2.953-9.371,0.504
				c-2.73-2.447-2.961-6.643-0.516-9.371c2.449-2.729,6.641-2.955,9.371-0.506C66.563,230.232,66.793,234.428,64.346,237.158"/>
			<path clip-path="url(#SVGID_8_)" fill="#C3C4C4" d="M64.227,237.051c-2.387,2.662-6.482,2.883-9.145,0.494
				c-2.668-2.389-2.889-6.484-0.504-9.146c2.387-2.662,6.482-2.885,9.146-0.496C66.391,230.293,66.613,234.389,64.227,237.051"/>
			<path clip-path="url(#SVGID_8_)" fill="#C5C6C6" d="M64.109,236.943c-2.328,2.596-6.322,2.811-8.922,0.482
				c-2.598-2.332-2.82-6.326-0.49-8.92c2.328-2.598,6.32-2.814,8.92-0.484S66.438,234.348,64.109,236.943"/>
			<path clip-path="url(#SVGID_8_)" fill="#C7C9C9" d="M63.988,236.838c-2.268,2.529-6.162,2.74-8.695,0.469
				c-2.531-2.271-2.746-6.166-0.477-8.695c2.27-2.531,6.162-2.74,8.695-0.471C66.043,230.412,66.258,234.307,63.988,236.838"/>
			<path clip-path="url(#SVGID_8_)" fill="#CACBCB" d="M63.871,236.73c-2.211,2.463-6.002,2.67-8.471,0.457
				c-2.467-2.213-2.676-6.004-0.467-8.469c2.213-2.467,6.006-2.67,8.471-0.459C65.871,230.473,66.078,234.264,63.871,236.73"/>
			<path clip-path="url(#SVGID_8_)" fill="#CCCECE" d="M63.752,236.623c-2.152,2.398-5.844,2.598-8.244,0.445
				c-2.402-2.152-2.605-5.844-0.453-8.242c2.15-2.4,5.84-2.602,8.244-0.447C65.701,230.533,65.902,234.223,63.752,236.623"/>
			<path clip-path="url(#SVGID_8_)" fill="#CED0D0" d="M63.631,236.518c-2.09,2.332-5.682,2.527-8.016,0.432
				c-2.336-2.094-2.535-5.686-0.441-8.018c2.092-2.334,5.682-2.527,8.02-0.434C65.527,230.592,65.725,234.184,63.631,236.518"/>
			<path clip-path="url(#SVGID_8_)" fill="#D1D3D3" d="M63.512,236.41c-2.033,2.268-5.52,2.455-7.791,0.42s-2.461-5.523-0.43-7.791
				c2.035-2.268,5.523-2.457,7.793-0.422C65.355,230.652,65.547,234.143,63.512,236.41"/>
			<path clip-path="url(#SVGID_8_)" fill="#D3D5D5" d="M63.395,236.303c-1.975,2.201-5.363,2.385-7.566,0.408
				c-2.205-1.977-2.391-5.363-0.416-7.566c1.973-2.201,5.361-2.387,7.566-0.408C65.182,230.713,65.367,234.1,63.395,236.303"/>
		</g>
	</g>
	<polygon fill="#605F5E" points="56.016,235.172 58.148,232.791 55.764,230.654 56.953,229.332 59.334,231.471 61.469,229.09 
		62.789,230.275 60.66,232.656 63.041,234.791 61.854,236.115 59.473,233.977 57.338,236.359 	"/>
	<path fill="#231815" d="M62.576,230.287l-1.93,2.152l-0.209,0.229l0.232,0.205l2.154,1.93l-0.98,1.096l-2.154-1.934l-0.229-0.205
		l-0.205,0.229l-1.93,2.154l-1.094-0.982l1.928-2.15l0.207-0.23l-0.229-0.205l-2.152-1.932l0.979-1.092l2.152,1.93l0.229,0.207
		l0.205-0.229l1.928-2.152L62.576,230.287z M63.01,230.264l-1.555-1.391l-2.133,2.379l-2.385-2.137l-1.389,1.551l2.383,2.137
		l-2.133,2.381l1.549,1.393l2.137-2.381l2.381,2.135l1.393-1.549l-2.385-2.137L63.01,230.264z"/>
</g>
<g>
	<path fill="#4F4F4F" d="M645.104,239.279c-3.615,4.033-9.821,4.371-13.862,0.75c-4.035-3.621-4.377-9.828-0.76-13.861
		c3.615-4.033,9.821-4.369,13.86-0.748C648.381,229.039,648.723,235.244,645.104,239.279"/>
	<path fill="#AFAFAF" d="M643.166,237.541c-2.658,2.963-7.217,3.211-10.186,0.551c-2.967-2.66-3.219-7.221-0.557-10.184
		c2.654-2.965,7.217-3.211,10.182-0.551C645.572,230.016,645.822,234.578,643.166,237.541"/>
	<path fill="none" stroke="#939393" stroke-miterlimit="10" d="M643.166,237.541c-2.658,2.963-7.217,3.211-10.186,0.551
		c-2.967-2.66-3.219-7.221-0.557-10.184c2.654-2.965,7.217-3.211,10.182-0.551C645.572,230.016,645.822,234.578,643.166,237.541z"/>
	<g>
		<g>
			<defs>
				
					<rect id="SVGID_9_" x="630.99" y="225.928" transform="matrix(-0.7445 -0.6677 0.6677 -0.7445 957.2259 831.8068)" width="13.606" height="13.59"/>
			</defs>
			<clipPath id="SVGID_10_">
				<use xlink:href="#SVGID_9_"  overflow="visible"/>
			</clipPath>
			<path clip-path="url(#SVGID_10_)" fill="#BEBFBF" d="M642.857,237.264c-2.504,2.793-6.805,3.025-9.6,0.52
				c-2.797-2.508-3.031-6.805-0.527-9.6c2.506-2.793,6.801-3.025,9.596-0.518C645.125,230.174,645.361,234.471,642.857,237.264"/>
			<path clip-path="url(#SVGID_10_)" fill="#C0C1C1" d="M642.736,237.158c-2.445,2.727-6.641,2.953-9.372,0.504
				c-2.73-2.447-2.961-6.643-0.516-9.371c2.449-2.729,6.641-2.955,9.372-0.506C644.953,230.232,645.184,234.428,642.736,237.158"/>
			<path clip-path="url(#SVGID_10_)" fill="#C3C4C4" d="M642.617,237.051c-2.387,2.662-6.483,2.883-9.145,0.494
				c-2.668-2.389-2.889-6.484-0.504-9.146c2.387-2.662,6.483-2.885,9.147-0.496C644.781,230.293,645.004,234.389,642.617,237.051"/>
			<path clip-path="url(#SVGID_10_)" fill="#C5C6C6" d="M642.5,236.943c-2.328,2.596-6.323,2.811-8.922,0.482
				c-2.598-2.332-2.82-6.326-0.49-8.92c2.328-2.598,6.321-2.814,8.92-0.484S644.828,234.348,642.5,236.943"/>
			<path clip-path="url(#SVGID_10_)" fill="#C7C9C9" d="M642.379,236.838c-2.268,2.529-6.163,2.74-8.696,0.469
				c-2.531-2.271-2.746-6.166-0.477-8.695c2.27-2.531,6.163-2.74,8.696-0.471C644.434,230.412,644.648,234.307,642.379,236.838"/>
			<path clip-path="url(#SVGID_10_)" fill="#CACBCB" d="M642.262,236.73c-2.211,2.463-6.002,2.67-8.471,0.457
				c-2.467-2.213-2.676-6.004-0.467-8.469c2.213-2.467,6.006-2.67,8.471-0.459C644.262,230.473,644.469,234.264,642.262,236.73"/>
			<path clip-path="url(#SVGID_10_)" fill="#CCCECE" d="M642.143,236.623c-2.152,2.398-5.844,2.598-8.245,0.445
				c-2.402-2.152-2.605-5.844-0.453-8.242c2.15-2.4,5.84-2.602,8.245-0.447C644.092,230.533,644.293,234.223,642.143,236.623"/>
			<path clip-path="url(#SVGID_10_)" fill="#CED0D0" d="M642.021,236.518c-2.09,2.332-5.682,2.527-8.016,0.432
				c-2.336-2.094-2.535-5.686-0.441-8.018c2.092-2.334,5.682-2.527,8.02-0.434C643.918,230.592,644.115,234.184,642.021,236.518"/>
			<path clip-path="url(#SVGID_10_)" fill="#D1D3D3" d="M641.902,236.41c-2.033,2.268-5.52,2.455-7.792,0.42
				s-2.461-5.523-0.43-7.791c2.035-2.268,5.524-2.457,7.793-0.422C643.746,230.652,643.938,234.143,641.902,236.41"/>
			<path clip-path="url(#SVGID_10_)" fill="#D3D5D5" d="M641.785,236.303c-1.975,2.201-5.364,2.385-7.567,0.408
				c-2.205-1.977-2.391-5.363-0.416-7.566c1.973-2.201,5.362-2.387,7.567-0.408C643.572,230.713,643.758,234.1,641.785,236.303"/>
		</g>
	</g>
	<polygon fill="#605F5E" points="634.406,235.172 636.539,232.791 634.154,230.654 635.343,229.332 637.724,231.471 639.859,229.09 
		641.18,230.275 639.051,232.656 641.432,234.791 640.244,236.115 637.863,233.977 635.728,236.359 	"/>
	<path fill="#231815" d="M640.967,230.287l-1.93,2.152l-0.209,0.229l0.233,0.205l2.154,1.93l-0.98,1.096l-2.155-1.934l-0.229-0.205
		l-0.205,0.229l-1.93,2.154l-1.094-0.982l1.928-2.15l0.207-0.23l-0.229-0.205l-2.152-1.932l0.979-1.092l2.152,1.93l0.229,0.207
		l0.205-0.229l1.928-2.152L640.967,230.287z M641.4,230.264l-1.555-1.391l-2.133,2.379l-2.385-2.137l-1.389,1.551l2.383,2.137
		l-2.133,2.381l1.549,1.393l2.137-2.381l2.381,2.135l1.393-1.549l-2.385-2.137L641.4,230.264z"/>
</g>
<g>
	<path fill="#4F4F4F" d="M1232.156,239.279c-3.615,4.033-9.82,4.371-13.861,0.75c-4.035-3.621-4.377-9.828-0.76-13.861
		c3.615-4.033,9.82-4.369,13.859-0.748C1235.434,229.039,1235.775,235.244,1232.156,239.279"/>
	<path fill="#AFAFAF" d="M1230.219,237.541c-2.658,2.963-7.217,3.211-10.186,0.551c-2.967-2.66-3.219-7.221-0.557-10.184
		c2.654-2.965,7.217-3.211,10.182-0.551C1232.625,230.016,1232.875,234.578,1230.219,237.541"/>
	<path fill="none" stroke="#939393" stroke-miterlimit="10" d="M1230.219,237.541c-2.658,2.963-7.217,3.211-10.186,0.551
		c-2.967-2.66-3.219-7.221-0.557-10.184c2.654-2.965,7.217-3.211,10.182-0.551C1232.625,230.016,1232.875,234.578,1230.219,237.541z
		"/>
	<g>
		<g>
			<defs>
				
					<rect id="SVGID_11_" x="1218.043" y="225.928" transform="matrix(-0.7445 -0.6677 0.6677 -0.7445 1981.3185 1223.7603)" width="13.606" height="13.589"/>
			</defs>
			<clipPath id="SVGID_12_">
				<use xlink:href="#SVGID_11_"  overflow="visible"/>
			</clipPath>
			<path clip-path="url(#SVGID_12_)" fill="#BEBFBF" d="M1229.91,237.264c-2.504,2.793-6.805,3.025-9.6,0.52
				c-2.797-2.508-3.031-6.805-0.527-9.6c2.506-2.793,6.801-3.025,9.596-0.518C1232.178,230.174,1232.414,234.471,1229.91,237.264"/>
			<path clip-path="url(#SVGID_12_)" fill="#C0C1C1" d="M1229.789,237.158c-2.445,2.727-6.641,2.953-9.371,0.504
				c-2.73-2.447-2.961-6.643-0.516-9.371c2.449-2.729,6.641-2.955,9.371-0.506C1232.006,230.232,1232.236,234.428,1229.789,237.158"
				/>
			<path clip-path="url(#SVGID_12_)" fill="#C3C4C4" d="M1229.67,237.051c-2.387,2.662-6.482,2.883-9.145,0.494
				c-2.668-2.389-2.889-6.484-0.504-9.146c2.387-2.662,6.482-2.885,9.146-0.496C1231.834,230.293,1232.057,234.389,1229.67,237.051"
				/>
			<path clip-path="url(#SVGID_12_)" fill="#C5C6C6" d="M1229.553,236.943c-2.328,2.596-6.322,2.811-8.922,0.482
				c-2.598-2.332-2.82-6.326-0.49-8.92c2.328-2.598,6.32-2.814,8.92-0.484S1231.881,234.348,1229.553,236.943"/>
			<path clip-path="url(#SVGID_12_)" fill="#C7C9C9" d="M1229.432,236.838c-2.268,2.529-6.162,2.74-8.695,0.469
				c-2.531-2.271-2.746-6.166-0.477-8.695c2.27-2.531,6.162-2.74,8.695-0.471C1231.486,230.412,1231.701,234.307,1229.432,236.838"
				/>
			<path clip-path="url(#SVGID_12_)" fill="#CACBCB" d="M1229.314,236.73c-2.211,2.463-6.002,2.67-8.471,0.457
				c-2.467-2.213-2.676-6.004-0.467-8.469c2.213-2.467,6.006-2.67,8.471-0.459C1231.314,230.473,1231.521,234.264,1229.314,236.73"
				/>
			<path clip-path="url(#SVGID_12_)" fill="#CCCECE" d="M1229.195,236.623c-2.152,2.398-5.844,2.598-8.244,0.445
				c-2.402-2.152-2.605-5.844-0.453-8.242c2.15-2.4,5.84-2.602,8.244-0.447C1231.145,230.533,1231.346,234.223,1229.195,236.623"/>
			<path clip-path="url(#SVGID_12_)" fill="#CED0D0" d="M1229.074,236.518c-2.09,2.332-5.682,2.527-8.016,0.432
				c-2.336-2.094-2.535-5.686-0.441-8.018c2.092-2.334,5.682-2.527,8.02-0.434C1230.971,230.592,1231.168,234.184,1229.074,236.518"
				/>
			<path clip-path="url(#SVGID_12_)" fill="#D1D3D3" d="M1228.955,236.41c-2.033,2.268-5.52,2.455-7.791,0.42
				s-2.461-5.523-0.43-7.791c2.035-2.268,5.523-2.457,7.793-0.422C1230.799,230.652,1230.99,234.143,1228.955,236.41"/>
			<path clip-path="url(#SVGID_12_)" fill="#D3D5D5" d="M1228.838,236.303c-1.975,2.201-5.363,2.385-7.566,0.408
				c-2.205-1.977-2.391-5.363-0.416-7.566c1.973-2.201,5.361-2.387,7.566-0.408C1230.625,230.713,1230.811,234.1,1228.838,236.303"
				/>
		</g>
	</g>
	<polygon fill="#605F5E" points="1221.459,235.172 1223.592,232.791 1221.207,230.654 1222.396,229.332 1224.777,231.471 
		1226.912,229.09 1228.232,230.275 1226.104,232.656 1228.484,234.791 1227.297,236.115 1224.916,233.977 1222.781,236.359 	"/>
	<path fill="#231815" d="M1228.02,230.287l-1.93,2.152l-0.209,0.229l0.232,0.205l2.154,1.93l-0.98,1.096l-2.154-1.934l-0.229-0.205
		l-0.205,0.229l-1.93,2.154l-1.094-0.982l1.928-2.15l0.207-0.23l-0.229-0.205l-2.152-1.932l0.979-1.092l2.152,1.93l0.229,0.207
		l0.205-0.229l1.928-2.152L1228.02,230.287z M1228.453,230.264l-1.555-1.391l-2.133,2.379l-2.385-2.137l-1.389,1.551l2.383,2.137
		l-2.133,2.381l1.549,1.393l2.137-2.381l2.381,2.135l1.393-1.549l-2.385-2.137L1228.453,230.264z"/>
</g>
</svg>
