<?xml version="1.0" encoding="utf-8"?>
<!-- Generator: Adobe Illustrator 16.0.0, SVG Export Plug-In . SVG Version: 6.00 Build 0)  -->
<!DOCTYPE svg PUBLIC "-//W3C//DTD SVG 1.1//EN" "http://www.w3.org/Graphics/SVG/1.1/DTD/svg11.dtd">
<svg version="1.1" id="图层_1" xmlns="http://www.w3.org/2000/svg" xmlns:xlink="http://www.w3.org/1999/xlink" x="0px" y="0px"
	 width="1275.59px" height="504.57px" viewBox="0 0 1275.59 504.57" enable-background="new 0 0 1275.59 504.57"
	 xml:space="preserve">
<g>
	<g>
		<rect y="0.004" fill="#3C3D3D" width="1275.591" height="504.567"/>
		<g>
			<rect x="1.076" y="4.588" fill="#4C4C4C" width="47.206" height="494.032"/>
			<g>
				<linearGradient id="SVGID_1_" gradientUnits="userSpaceOnUse" x1="23.3291" y1="490.7822" x2="23.3291" y2="17.6099">
					<stop  offset="0" style="stop-color:#000000"/>
					<stop  offset="0.0806" style="stop-color:#3E3A39"/>
					<stop  offset="0.7903" style="stop-color:#3E3A39"/>
					<stop  offset="0.871" style="stop-color:#3E3A39"/>
					<stop  offset="0.9086" style="stop-color:#727171"/>
					<stop  offset="1" style="stop-color:#000000"/>
				</linearGradient>
				<rect x="2.079" y="17.609" fill="url(#SVGID_1_)" width="42.5" height="473.173"/>
				<rect x="2.079" y="13.682" width="42.5" height="3.928"/>
				<rect x="44.575" y="13.67" width="1.003" height="477.112"/>
				<rect x="1.076" y="13.67" width="1.003" height="477.112"/>
			</g>
			<rect x="48.282" y="4.588" fill="#040000" width="1.333" height="494.032"/>
		</g>
		<g>
			<rect x="1225.701" y="4.586" fill="#4C4C4C" width="47.206" height="494.034"/>
			<g>
				
					<linearGradient id="SVGID_2_" gradientUnits="userSpaceOnUse" x1="-6013.5874" y1="490.7822" x2="-6013.5874" y2="17.6074" gradientTransform="matrix(-1 0 0 1 -4762.9336 0)">
					<stop  offset="0" style="stop-color:#000000"/>
					<stop  offset="0.0806" style="stop-color:#3E3A39"/>
					<stop  offset="0.7903" style="stop-color:#3E3A39"/>
					<stop  offset="0.871" style="stop-color:#3E3A39"/>
					<stop  offset="0.9086" style="stop-color:#727171"/>
					<stop  offset="1" style="stop-color:#000000"/>
				</linearGradient>
				<rect x="1229.404" y="17.607" fill="url(#SVGID_2_)" width="42.5" height="473.175"/>
				<rect x="1229.404" y="13.68" width="42.5" height="3.928"/>
				<rect x="1228.405" y="13.67" width="1.003" height="477.112"/>
				<rect x="1271.904" y="13.67" width="1.003" height="477.112"/>
			</g>
			<rect x="1224.367" y="4.586" fill="#040000" width="1.335" height="494.034"/>
		</g>
		<g>
			<path fill="#101010" d="M56.046,102.017v75.887c0,0,0.667,7.133,6,7.133c0,0,30.667,0,47.333,0c17.645,0,54.146-39.245,9-68.104
				c-7.919-5.062-25.202-14.436-34.666-14.916C73.131,101.478,56.046,102.017,56.046,102.017z"/>
			<path fill="#6B6B6B" d="M56.046,100.068v75.887c0,0,0.667,7.136,6,7.136c0,0,30.667,0,47.333,0c17.645,0,54.146-39.247,9-68.104
				c-7.919-5.063-25.202-14.437-34.666-14.919C73.131,99.531,56.046,100.068,56.046,100.068z"/>
			<path fill="#494848" d="M56.046,100.068v75.887c0,0,0.649,7.136,5.842,7.136c0,0,29.857,0,46.083,0
				c17.179,0,52.715-39.247,8.762-68.104c-7.71-5.063-24.536-14.437-33.75-14.919C72.68,99.531,56.046,100.068,56.046,100.068z"/>
			<path fill="#727272" d="M73.378,164.652c0,3.224-2.686,5.838-6,5.838l0,0c-3.313,0-6-2.614-6-5.838v-45.726
				c0-3.226,2.687-5.838,6-5.838l0,0c3.314,0,6,2.612,6,5.838V164.652z"/>
			<path fill="#100F0F" d="M74.379,164.652c0,3.224-2.687,5.838-6,5.838l0,0c-3.314,0-6-2.614-6-5.838v-45.726
				c0-3.226,2.686-5.838,6-5.838l0,0c3.313,0,6,2.612,6,5.838V164.652z"/>
			<ellipse fill="#727272" cx="106.379" cy="143.406" rx="21.335" ry="20.758"/>
			<ellipse fill="#727272" cx="108.38" cy="143.406" rx="21.335" ry="20.758"/>
			<ellipse fill="#202020" cx="107.379" cy="143.406" rx="21.335" ry="20.758"/>
			<g>
				<ellipse fill="#A9A8A8" cx="107.379" cy="142.749" rx="15.835" ry="15.091"/>
				<ellipse fill="#494848" cx="107.379" cy="143.406" rx="15.835" ry="15.407"/>
			</g>
			<ellipse fill="#202020" cx="107.379" cy="143.406" rx="8.99" ry="8.747"/>
			<g>
				<ellipse fill="#A9A8A8" cx="107.379" cy="143.089" rx="4.791" ry="4.565"/>
				<ellipse fill="#494848" cx="107.379" cy="143.288" rx="4.791" ry="4.661"/>
			</g>
		</g>
		<g>
			<defs>
				<path id="SVGID_3_" d="M49.615,0.005L195.98,57.331c0,0,26.366,10,58.816,10h770.687c0,0,33.465,2,67.942-13l134.87-54.326
					H49.615z"/>
			</defs>
			<clipPath id="SVGID_4_">
				<use xlink:href="#SVGID_3_"  overflow="visible"/>
			</clipPath>
			<g transform="matrix(1 0 0 1 -4.768372e-007 0)" clip-path="url(#SVGID_4_)">
				
					<image overflow="visible" width="1024" height="128" xlink:href="../../待画/THTF_server_2_front.jpg"  transform="matrix(1.2632 0 0 0.9855 -7.3408 0.002)">
				</image>
			</g>
		</g>
		<g>
			<circle fill="#0A090A" cx="630.169" cy="142.204" r="44.001"/>
			<circle fill="#F6F4E8" cx="630.169" cy="140.204" r="43.5"/>
			<circle fill="#494946" stroke="#0C0C0C" stroke-width="1.5" stroke-miterlimit="10" cx="630.169" cy="140.204" r="38.166"/>
			<g>
				<polygon fill="#F6F4E8" points="602.419,123.329 616.419,123.329 616.419,114.579 622.794,114.579 622.794,134.454 
					626.044,134.454 626.044,105.204 632.544,105.204 632.544,114.704 646.294,114.704 646.294,121.079 642.419,121.079 
					642.294,163.954 635.044,163.954 635.169,121.079 632.419,121.079 632.419,171.954 625.919,171.954 625.919,141.329 
					622.294,141.454 622.294,164.204 615.794,164.204 615.669,129.829 613.294,129.829 613.294,157.329 606.919,157.454 
					606.919,129.579 602.419,129.454 				"/>
				<polygon fill="#F6F4E8" points="657.419,123.579 645.169,123.579 645.169,158.329 651.294,158.329 651.294,129.704 
					657.419,129.704 				"/>
				<polygon fill="#F6F4E8" points="652.419,137.454 652.419,146.454 659.169,141.954 				"/>
			</g>
			<g>
				<path fill="#F5F3E6" d="M603.863,119.713l-2.523-1.623c2.899-4.505,7.252-8.051,12.256-9.982l1.082,2.798
					C610.261,112.61,606.42,115.739,603.863,119.713z"/>
			</g>
			<g>
				<path fill="#F5F3E6" d="M654.083,117.183l1.953-2.277c4.066,3.486,6.984,8.281,8.217,13.504l-2.92,0.689
					C660.246,124.49,657.671,120.259,654.083,117.183z"/>
			</g>
		</g>
		<g>
			<defs>
				<path id="SVGID_5_" d="M44.689,0.005l146.366,53.092c0,0,26.365,9.262,58.816,9.262h770.687c0,0,33.465,1.853,67.942-12.04
					l134.87-50.313H44.689z"/>
			</defs>
			<clipPath id="SVGID_6_">
				<use xlink:href="#SVGID_5_"  overflow="visible"/>
			</clipPath>
			<g clip-path="url(#SVGID_6_)">
				
					<image overflow="visible" width="1024" height="512" xlink:href="../../待画/THTF_server_5_front.jpg"  transform="matrix(1.2457 0 0 0.9855 -9.79 9.765625e-004)">
				</image>
			</g>
		</g>
	</g>
	<g>
		<defs>
			<path id="SVGID_7_" d="M98.117,336.549v64c0,0,3.333,10.667,16.667,18l106.667,44.667c0,0,15.334,4.666,34.667,4.666l769.999,2
				c0,0,28.667,1.333,52-10l78-33.333c0,0,21.334-10.001,21.334-34.667v-52c0,0,1.333-15.334-16-26l-90.667-49.138
				c0,0-3.333-4.196-62-4.862H267.45c0,0-18.666-2.667-56.667,12l-89.333,38.667C121.451,310.549,98.117,321.882,98.117,336.549z"/>
		</defs>
		<clipPath id="SVGID_8_">
			<use xlink:href="#SVGID_7_"  overflow="visible"/>
		</clipPath>
		<g transform="matrix(1 0 0 1 5.960464e-008 0)" clip-path="url(#SVGID_8_)">
			
				<image overflow="visible" width="1024" height="512" xlink:href="../../待画/THTF_server_5_front.jpg"  transform="matrix(1.2457 0 0 0.9855 -0.8545 12.458)">
			</image>
		</g>
	</g>
</g>
</svg>
