<?xml version="1.0" encoding="utf-8"?>
<!-- Generator: Adobe Illustrator 16.0.0, SVG Export Plug-In . SVG Version: 6.00 Build 0)  -->
<!DOCTYPE svg PUBLIC "-//W3C//DTD SVG 1.1//EN" "http://www.w3.org/Graphics/SVG/1.1/DTD/svg11.dtd">
<svg version="1.1" id="图层_1" xmlns="http://www.w3.org/2000/svg" xmlns:xlink="http://www.w3.org/1999/xlink" x="0px" y="0px"
	 width="1275.59px" height="126.14px" viewBox="0 0 1275.59 126.14" enable-background="new 0 0 1275.59 126.14"
	 xml:space="preserve">
<g>
	<rect fill="#3C3D3D" width="1275.59" height="126.142"/>
	<g>
		<rect y="0" fill="#4C4C4C" width="47.206" height="126.139"/>
		<g>
			<linearGradient id="SVGID_1_" gradientUnits="userSpaceOnUse" x1="22.2524" y1="124.1406" x2="22.2524" y2="3.3257">
				<stop  offset="0" style="stop-color:#000000"/>
				<stop  offset="0.0806" style="stop-color:#3E3A39"/>
				<stop  offset="0.7903" style="stop-color:#3E3A39"/>
				<stop  offset="0.871" style="stop-color:#3E3A39"/>
				<stop  offset="0.9086" style="stop-color:#727171"/>
				<stop  offset="1" style="stop-color:#000000"/>
			</linearGradient>
			<rect x="1.002" y="3.325" fill="url(#SVGID_1_)" width="42.5" height="120.815"/>
			<rect x="1.002" y="2.322" width="42.5" height="1.003"/>
			<rect x="43.5" y="2.32" width="1.002" height="121.82"/>
			<rect y="2.32" width="1.002" height="121.82"/>
		</g>
		<rect x="47.206" y="0" fill="#040000" width="1.334" height="126.139"/>
	</g>
	<g>
		<rect x="1228.385" fill="#4C4C4C" width="47.205" height="126.14"/>
		<g>
			
				<linearGradient id="SVGID_2_" gradientUnits="userSpaceOnUse" x1="-6123.0796" y1="124.1396" x2="-6123.0796" y2="3.3247" gradientTransform="matrix(-1 0 0 1 -4869.7422 0)">
				<stop  offset="0" style="stop-color:#000000"/>
				<stop  offset="0.0806" style="stop-color:#3E3A39"/>
				<stop  offset="0.7903" style="stop-color:#3E3A39"/>
				<stop  offset="0.871" style="stop-color:#3E3A39"/>
				<stop  offset="0.9086" style="stop-color:#727171"/>
				<stop  offset="1" style="stop-color:#000000"/>
			</linearGradient>
			<rect x="1232.088" y="3.325" fill="url(#SVGID_2_)" width="42.5" height="120.815"/>
			<rect x="1232.088" y="2.322" width="42.5" height="1.003"/>
			<rect x="1231.088" y="2.319" width="1.004" height="121.819"/>
			<rect x="1274.588" y="2.319" width="1.002" height="121.819"/>
		</g>
		<rect x="1227.051" fill="#040000" width="1.334" height="126.14"/>
	</g>
	<g>
		<path fill="#101010" d="M53.873,22.189v78c0,0,0.667,7.333,6,7.333c0,0,30.667,0,47.333,0c17.645,0,54.146-40.339,9-70
			c-7.92-5.204-25.202-14.838-34.667-15.333C70.958,21.636,53.873,22.189,53.873,22.189z"/>
		<path fill="#6B6B6B" d="M53.873,20.188v78c0,0,0.667,7.333,6,7.333c0,0,30.667,0,47.333,0c17.645,0,54.146-40.339,9-70
			c-7.92-5.204-25.202-14.838-34.667-15.333C70.958,19.635,53.873,20.188,53.873,20.188z"/>
		<path fill="#494848" d="M53.873,20.188v78c0,0,0.65,7.333,5.842,7.333c0,0,29.857,0,46.083,0c17.179,0,52.716-40.339,8.762-70
			c-7.71-5.204-24.537-14.838-33.75-15.333C70.506,19.635,53.873,20.188,53.873,20.188z"/>
		<path fill="#727272" d="M71.205,86.57c0,3.313-2.686,6-6,6l0,0c-3.313,0-6-2.687-6-6v-47c0-3.313,2.687-6,6-6l0,0
			c3.314,0,6,2.687,6,6V86.57z"/>
		<path fill="#100F0F" d="M72.206,86.57c0,3.313-2.686,6-6,6l0,0c-3.313,0-6-2.687-6-6v-47c0-3.313,2.687-6,6-6l0,0
			c3.314,0,6,2.687,6,6V86.57z"/>
		<circle fill="#727272" cx="104.206" cy="64.733" r="21.335"/>
		<circle fill="#727272" cx="106.207" cy="64.733" r="21.335"/>
		<circle fill="#202020" cx="105.206" cy="64.733" r="21.335"/>
		<g>
			<ellipse fill="#A9A8A8" cx="105.206" cy="64.058" rx="15.835" ry="15.51"/>
			<circle fill="#494848" cx="105.206" cy="64.733" r="15.835"/>
		</g>
		<circle fill="#202020" cx="105.206" cy="64.733" r="8.99"/>
		<g>
			<ellipse fill="#A9A8A8" cx="105.206" cy="64.406" rx="4.791" ry="4.692"/>
			<circle fill="#494848" cx="105.206" cy="64.61" r="4.791"/>
		</g>
	</g>
	<g>
		<defs>
			<path id="SVGID_3_" d="M48.037,0L194.4,57.327c0,0,26.366,10,58.816,10h770.688c0,0,33.463,2,67.941-13L1226.717,0H48.037z"/>
		</defs>
		<clipPath id="SVGID_4_">
			<use xlink:href="#SVGID_3_"  overflow="visible"/>
		</clipPath>
		<g transform="matrix(1 0 0 1 0 0)" clip-path="url(#SVGID_4_)">
			
				<image overflow="visible" width="1024" height="128" xlink:href="../../待画/THTF_server_2_front.jpg"  transform="matrix(1.2632 0 0 0.9855 -8.9229 -0.0024)">
			</image>
		</g>
	</g>
	<g>
		<circle fill="#0A090A" cx="627.882" cy="58.495" r="44.001"/>
		<circle fill="#F6F4E8" cx="627.881" cy="56.494" r="43.5"/>
		<circle fill="#494946" stroke="#0C0C0C" stroke-width="1.5" stroke-miterlimit="10" cx="627.882" cy="56.494" r="38.167"/>
		<g>
			<polygon fill="#F6F4E8" points="600.131,39.619 614.131,39.619 614.131,30.869 620.506,30.869 620.506,50.744 623.756,50.744 
				623.756,21.494 630.256,21.494 630.256,30.994 644.006,30.994 644.006,37.369 640.131,37.369 640.006,80.244 632.756,80.244 
				632.881,37.369 630.131,37.369 630.131,88.244 623.631,88.244 623.631,57.619 620.006,57.744 620.006,80.494 613.506,80.494 
				613.381,46.119 611.006,46.119 611.006,73.619 604.631,73.744 604.631,45.869 600.131,45.744 			"/>
			<polygon fill="#F6F4E8" points="655.131,39.869 642.881,39.869 642.881,74.619 649.006,74.619 649.006,45.994 655.131,45.994 			
				"/>
			<polygon fill="#F6F4E8" points="650.131,53.744 650.131,62.744 656.881,58.244 			"/>
		</g>
		<g>
			<path fill="#F5F3E6" d="M601.576,36.003l-2.523-1.623c2.9-4.505,7.252-8.051,12.256-9.982l1.082,2.798
				C607.974,28.901,604.132,32.03,601.576,36.003z"/>
		</g>
		<g>
			<path fill="#F5F3E6" d="M651.797,33.474l1.951-2.278c4.068,3.486,6.986,8.282,8.219,13.504l-2.92,0.689
				C657.959,40.781,655.385,36.549,651.797,33.474z"/>
		</g>
	</g>
</g>
</svg>
