<?xml version="1.0" encoding="utf-8"?>
<!-- Generator: Adobe Illustrator 16.0.0, SVG Export Plug-In . SVG Version: 6.00 Build 0)  -->
<!DOCTYPE svg PUBLIC "-//W3C//DTD SVG 1.1//EN" "http://www.w3.org/Graphics/SVG/1.1/DTD/svg11.dtd">
<svg version="1.1" id="图层_1" xmlns="http://www.w3.org/2000/svg" xmlns:xlink="http://www.w3.org/1999/xlink" x="0px" y="0px"
	 width="1417.32px" height="252.28px" viewBox="0 0 1417.32 252.28" enable-background="new 0 0 1417.32 252.28"
	 xml:space="preserve">
<rect x="-0.001" y="-0.001" fill="#363638" width="1417.323" height="252.283"/>
<g>
	<linearGradient id="SVGID_1_" gradientUnits="userSpaceOnUse" x1="-9.765625e-004" y1="126.1396" x2="70.8652" y2="126.1396">
		<stop  offset="0.0161" style="stop-color:#030000"/>
		<stop  offset="0.0645" style="stop-color:#343535"/>
		<stop  offset="0.1452" style="stop-color:#1F2020"/>
		<stop  offset="0.8118" style="stop-color:#515151"/>
		<stop  offset="0.914" style="stop-color:#636666"/>
		<stop  offset="1" style="stop-color:#030000"/>
	</linearGradient>
	<rect x="-0.001" y="-0.001" fill="url(#SVGID_1_)" width="70.866" height="252.283"/>
	<g>
		<g>
			<g>
				<path fill="#B7B6B6" d="M49.152,52.259c0,3.905-3.387,7.072-7.563,7.072H25.274c-4.178,0-7.563-3.167-7.563-7.072l0,0
					c0-3.906,3.385-7.072,7.563-7.072h16.314C45.766,45.187,49.152,48.353,49.152,52.259L49.152,52.259z"/>
				<path fill="#0E0D0D" d="M48.258,52.058c0,3.795-3.289,6.871-7.347,6.871H25.06c-4.058,0-7.348-3.076-7.348-6.871l0,0
					c0-3.795,3.29-6.871,7.348-6.871h15.852C44.969,45.187,48.258,48.263,48.258,52.058L48.258,52.058z"/>
			</g>
			<g>
				<path fill="#AFAEAE" d="M42.697,51.324c0,5.331-4.596,9.652-10.265,9.652c-5.671,0-10.267-4.321-10.267-9.652
					c0-5.332,4.596-9.654,10.267-9.654C38.102,41.67,42.697,45.993,42.697,51.324"/>
				<ellipse fill="none" stroke="#929292" stroke-miterlimit="10" cx="32.432" cy="51.324" rx="10.266" ry="9.652"/>
				<path fill="#AFAEAE" d="M39.976,51.324c0,3.916-3.379,7.092-7.543,7.092c-4.166,0-7.545-3.176-7.545-7.092
					c0-3.918,3.379-7.094,7.545-7.094C36.597,44.23,39.976,47.406,39.976,51.324"/>
				<ellipse fill="none" stroke="#929292" stroke-miterlimit="10" cx="32.432" cy="51.324" rx="7.544" ry="7.092"/>
				<g>
					<g>
						<defs>
							<rect id="SVGID_2_" x="25.32" y="44.638" width="14.222" height="13.37"/>
						</defs>
						<clipPath id="SVGID_3_">
							<use xlink:href="#SVGID_2_"  overflow="visible"/>
						</clipPath>
						<path clip-path="url(#SVGID_3_)" fill="#BEBEBD" d="M39.54,51.324c0,3.691-3.182,6.683-7.107,6.683
							c-3.929,0-7.111-2.992-7.111-6.683c0-3.692,3.183-6.687,7.111-6.687C36.358,44.638,39.54,47.632,39.54,51.324"/>
						<path clip-path="url(#SVGID_3_)" fill="#C0C0C0" d="M39.374,51.324c0,3.603-3.108,6.526-6.941,6.526
							c-3.836,0-6.943-2.923-6.943-6.526c0-3.605,3.107-6.529,6.943-6.529C36.266,44.795,39.374,47.719,39.374,51.324"/>
						<path clip-path="url(#SVGID_3_)" fill="#C2C3C3" d="M39.206,51.324c0,3.516-3.034,6.37-6.773,6.37
							c-3.742,0-6.775-2.854-6.775-6.37c0-3.519,3.033-6.371,6.775-6.371C36.172,44.953,39.206,47.805,39.206,51.324"/>
						<path clip-path="url(#SVGID_3_)" fill="#C4C5C4" d="M39.038,51.324c0,3.431-2.956,6.212-6.605,6.212
							c-3.651,0-6.609-2.781-6.609-6.212c0-3.432,2.958-6.213,6.609-6.213C36.082,45.111,39.038,47.892,39.038,51.324"/>
						<path clip-path="url(#SVGID_3_)" fill="#C6C8C8" d="M38.871,51.324c0,3.342-2.884,6.055-6.438,6.055
							c-3.558,0-6.441-2.712-6.441-6.055c0-3.345,2.884-6.057,6.441-6.057C35.987,45.267,38.871,47.979,38.871,51.324"/>
						<path clip-path="url(#SVGID_3_)" fill="#C9CACB" d="M38.704,51.324c0,3.256-2.808,5.896-6.271,5.896
							c-3.466,0-6.273-2.64-6.273-5.896c0-3.259,2.808-5.9,6.273-5.9C35.896,45.424,38.704,48.065,38.704,51.324"/>
						<path clip-path="url(#SVGID_3_)" fill="#CBCDCD" d="M38.538,51.324c0,3.169-2.734,5.741-6.105,5.741
							c-3.373,0-6.106-2.571-6.106-5.741c0-3.172,2.733-5.744,6.106-5.744C35.804,45.581,38.538,48.152,38.538,51.324"/>
						<path clip-path="url(#SVGID_3_)" fill="#CCCFD0" d="M38.371,51.324c0,3.083-2.66,5.584-5.938,5.584
							c-3.28,0-5.939-2.501-5.939-5.584c0-3.085,2.659-5.585,5.939-5.585C35.711,45.739,38.371,48.239,38.371,51.324"/>
						<path clip-path="url(#SVGID_3_)" fill="#D0D2D2" d="M38.203,51.324c0,2.996-2.584,5.426-5.771,5.426
							c-3.189,0-5.771-2.43-5.771-5.426c0-2.999,2.582-5.428,5.771-5.428C35.619,45.896,38.203,48.326,38.203,51.324"/>
						<path clip-path="url(#SVGID_3_)" fill="#D2D4D5" d="M38.037,51.324c0,2.909-2.51,5.269-5.604,5.269
							c-3.097,0-5.605-2.359-5.605-5.269c0-2.912,2.509-5.27,5.605-5.27C35.527,46.054,38.037,48.413,38.037,51.324"/>
					</g>
				</g>
				<polygon fill="#605F5E" points="31.503,55.344 31.503,52.197 28.157,52.197 28.157,50.45 31.503,50.45 31.503,47.304 
					33.361,47.304 33.361,50.45 36.706,50.45 36.706,52.197 33.361,52.197 33.361,55.344 				"/>
				<path fill="#221714" d="M33.199,47.456v2.843v0.304h0.321h3.024v1.442h-3.024h-0.321v0.302v2.844h-1.536v-2.844v-0.302h-0.32
					h-3.025v-1.442h3.025h0.32v-0.304v-2.843H33.199z M33.521,47.153h-2.178v3.145h-3.347v2.048h3.347v3.146h2.178v-3.146h3.347
					v-2.048h-3.347V47.153z"/>
			</g>
		</g>
		<g>
			<g>
				<path fill="#B7B6B6" d="M49.152,28.942c0,3.905-3.387,7.072-7.563,7.072H25.274c-4.178,0-7.563-3.167-7.563-7.072l0,0
					c0-3.906,3.385-7.072,7.563-7.072h16.314C45.766,21.87,49.152,25.036,49.152,28.942L49.152,28.942z"/>
				<path fill="#0E0D0D" d="M48.258,28.741c0,3.795-3.289,6.871-7.347,6.871H25.06c-4.058,0-7.348-3.076-7.348-6.871l0,0
					c0-3.795,3.29-6.871,7.348-6.871h15.852C44.969,21.87,48.258,24.946,48.258,28.741L48.258,28.741z"/>
			</g>
			<g>
				<path fill="#AFAEAE" d="M42.697,28.007c0,5.331-4.596,9.652-10.265,9.652c-5.671,0-10.267-4.321-10.267-9.652
					c0-5.332,4.596-9.654,10.267-9.654C38.102,18.353,42.697,22.676,42.697,28.007"/>
				<ellipse fill="none" stroke="#929292" stroke-miterlimit="10" cx="32.432" cy="28.007" rx="10.266" ry="9.652"/>
				<path fill="#AFAEAE" d="M39.976,28.007c0,3.916-3.379,7.092-7.543,7.092c-4.166,0-7.545-3.176-7.545-7.092
					c0-3.918,3.379-7.094,7.545-7.094C36.597,20.913,39.976,24.089,39.976,28.007"/>
				<ellipse fill="none" stroke="#929292" stroke-miterlimit="10" cx="32.432" cy="28.007" rx="7.544" ry="7.092"/>
				<g>
					<g>
						<defs>
							<rect id="SVGID_4_" x="25.32" y="21.321" width="14.222" height="13.37"/>
						</defs>
						<clipPath id="SVGID_5_">
							<use xlink:href="#SVGID_4_"  overflow="visible"/>
						</clipPath>
						<path clip-path="url(#SVGID_5_)" fill="#BEBEBD" d="M39.54,28.007c0,3.691-3.182,6.683-7.107,6.683
							c-3.929,0-7.111-2.992-7.111-6.683c0-3.692,3.183-6.687,7.111-6.687C36.358,21.321,39.54,24.315,39.54,28.007"/>
						<path clip-path="url(#SVGID_5_)" fill="#C0C0C0" d="M39.374,28.007c0,3.603-3.108,6.526-6.941,6.526
							c-3.836,0-6.943-2.923-6.943-6.526c0-3.605,3.107-6.529,6.943-6.529C36.266,21.479,39.374,24.402,39.374,28.007"/>
						<path clip-path="url(#SVGID_5_)" fill="#C2C3C3" d="M39.206,28.007c0,3.516-3.034,6.37-6.773,6.37
							c-3.742,0-6.775-2.854-6.775-6.37c0-3.519,3.033-6.371,6.775-6.371C36.172,21.636,39.206,24.488,39.206,28.007"/>
						<path clip-path="url(#SVGID_5_)" fill="#C4C5C4" d="M39.038,28.007c0,3.431-2.956,6.212-6.605,6.212
							c-3.651,0-6.609-2.781-6.609-6.212c0-3.432,2.958-6.213,6.609-6.213C36.082,21.794,39.038,24.575,39.038,28.007"/>
						<path clip-path="url(#SVGID_5_)" fill="#C6C8C8" d="M38.871,28.007c0,3.342-2.884,6.055-6.438,6.055
							c-3.558,0-6.441-2.712-6.441-6.055c0-3.345,2.884-6.057,6.441-6.057C35.987,21.95,38.871,24.662,38.871,28.007"/>
						<path clip-path="url(#SVGID_5_)" fill="#C9CACB" d="M38.704,28.007c0,3.256-2.808,5.896-6.271,5.896
							c-3.466,0-6.273-2.64-6.273-5.896c0-3.259,2.808-5.9,6.273-5.9C35.896,22.107,38.704,24.749,38.704,28.007"/>
						<path clip-path="url(#SVGID_5_)" fill="#CBCDCD" d="M38.538,28.007c0,3.169-2.734,5.741-6.105,5.741
							c-3.373,0-6.106-2.571-6.106-5.741c0-3.172,2.733-5.744,6.106-5.744C35.804,22.264,38.538,24.835,38.538,28.007"/>
						<path clip-path="url(#SVGID_5_)" fill="#CCCFD0" d="M38.371,28.007c0,3.083-2.66,5.584-5.938,5.584
							c-3.28,0-5.939-2.501-5.939-5.584c0-3.085,2.659-5.585,5.939-5.585C35.711,22.422,38.371,24.922,38.371,28.007"/>
						<path clip-path="url(#SVGID_5_)" fill="#D0D2D2" d="M38.203,28.007c0,2.996-2.584,5.426-5.771,5.426
							c-3.189,0-5.771-2.43-5.771-5.426c0-2.999,2.582-5.428,5.771-5.428C35.619,22.579,38.203,25.009,38.203,28.007"/>
						<path clip-path="url(#SVGID_5_)" fill="#D2D4D5" d="M38.037,28.007c0,2.909-2.51,5.269-5.604,5.269
							c-3.097,0-5.605-2.359-5.605-5.269c0-2.912,2.509-5.27,5.605-5.27C35.527,22.737,38.037,25.096,38.037,28.007"/>
					</g>
				</g>
				<polygon fill="#605F5E" points="31.503,32.027 31.503,28.88 28.157,28.88 28.157,27.133 31.503,27.133 31.503,23.987 
					33.361,23.987 33.361,27.133 36.706,27.133 36.706,28.88 33.361,28.88 33.361,32.027 				"/>
				<path fill="#221714" d="M33.199,24.139v2.843v0.304h0.321h3.024v1.442h-3.024h-0.321v0.302v2.844h-1.536V29.03v-0.302h-0.32
					h-3.025v-1.442h3.025h0.32v-0.304v-2.843H33.199z M33.521,23.836h-2.178v3.145h-3.347v2.048h3.347v3.146h2.178V29.03h3.347
					v-2.048h-3.347V23.836z"/>
			</g>
		</g>
	</g>
	<g>
		<g>
			<g>
				<path fill="#B7B6B6" d="M49.152,227.258c0,3.906-3.387,7.072-7.563,7.072H25.274c-4.178,0-7.563-3.166-7.563-7.072l0,0
					c0-3.904,3.385-7.07,7.563-7.07h16.314C45.766,220.188,49.152,223.354,49.152,227.258L49.152,227.258z"/>
				<path fill="#0E0D0D" d="M48.258,227.059c0,3.795-3.289,6.871-7.347,6.871H25.06c-4.058,0-7.348-3.076-7.348-6.871l0,0
					c0-3.797,3.29-6.871,7.348-6.871h15.852C44.969,220.188,48.258,223.262,48.258,227.059L48.258,227.059z"/>
			</g>
			<g>
				<path fill="#AFAEAE" d="M42.697,226.324c0,5.33-4.596,9.652-10.265,9.652c-5.671,0-10.267-4.322-10.267-9.652
					c0-5.332,4.596-9.654,10.267-9.654C38.102,216.67,42.697,220.992,42.697,226.324"/>
				<ellipse fill="none" stroke="#929292" stroke-miterlimit="10" cx="32.432" cy="226.324" rx="10.266" ry="9.652"/>
				<path fill="#AFAEAE" d="M39.976,226.324c0,3.916-3.379,7.092-7.543,7.092c-4.166,0-7.545-3.176-7.545-7.092
					c0-3.918,3.379-7.094,7.545-7.094C36.597,219.23,39.976,222.406,39.976,226.324"/>
				<ellipse fill="none" stroke="#929292" stroke-miterlimit="10" cx="32.432" cy="226.324" rx="7.544" ry="7.092"/>
				<g>
					<g>
						<defs>
							<rect id="SVGID_6_" x="25.32" y="219.637" width="14.222" height="13.371"/>
						</defs>
						<clipPath id="SVGID_7_">
							<use xlink:href="#SVGID_6_"  overflow="visible"/>
						</clipPath>
						<path clip-path="url(#SVGID_7_)" fill="#BEBEBD" d="M39.54,226.324c0,3.691-3.182,6.684-7.107,6.684
							c-3.929,0-7.111-2.992-7.111-6.684s3.183-6.688,7.111-6.688C36.358,219.637,39.54,222.633,39.54,226.324"/>
						<path clip-path="url(#SVGID_7_)" fill="#C0C0C0" d="M39.374,226.324c0,3.604-3.108,6.525-6.941,6.525
							c-3.836,0-6.943-2.922-6.943-6.525c0-3.605,3.107-6.529,6.943-6.529C36.266,219.795,39.374,222.719,39.374,226.324"/>
						<path clip-path="url(#SVGID_7_)" fill="#C2C3C3" d="M39.206,226.324c0,3.516-3.034,6.369-6.773,6.369
							c-3.742,0-6.775-2.854-6.775-6.369c0-3.52,3.033-6.371,6.775-6.371C36.172,219.953,39.206,222.805,39.206,226.324"/>
						<path clip-path="url(#SVGID_7_)" fill="#C4C5C4" d="M39.038,226.324c0,3.432-2.956,6.211-6.605,6.211
							c-3.651,0-6.609-2.779-6.609-6.211s2.958-6.213,6.609-6.213C36.082,220.111,39.038,222.893,39.038,226.324"/>
						<path clip-path="url(#SVGID_7_)" fill="#C6C8C8" d="M38.871,226.324c0,3.342-2.884,6.055-6.438,6.055
							c-3.558,0-6.441-2.713-6.441-6.055c0-3.346,2.884-6.057,6.441-6.057C35.987,220.268,38.871,222.979,38.871,226.324"/>
						<path clip-path="url(#SVGID_7_)" fill="#C9CACB" d="M38.704,226.324c0,3.256-2.808,5.896-6.271,5.896
							c-3.466,0-6.273-2.641-6.273-5.896c0-3.26,2.808-5.9,6.273-5.9C35.896,220.424,38.704,223.064,38.704,226.324"/>
						<path clip-path="url(#SVGID_7_)" fill="#CBCDCD" d="M38.538,226.324c0,3.17-2.734,5.74-6.105,5.74
							c-3.373,0-6.106-2.57-6.106-5.74c0-3.172,2.733-5.744,6.106-5.744C35.804,220.58,38.538,223.152,38.538,226.324"/>
						<path clip-path="url(#SVGID_7_)" fill="#CCCFD0" d="M38.371,226.324c0,3.082-2.66,5.584-5.938,5.584
							c-3.28,0-5.939-2.502-5.939-5.584c0-3.086,2.659-5.586,5.939-5.586C35.711,220.738,38.371,223.238,38.371,226.324"/>
						<path clip-path="url(#SVGID_7_)" fill="#D0D2D2" d="M38.203,226.324c0,2.996-2.584,5.426-5.771,5.426
							c-3.189,0-5.771-2.43-5.771-5.426c0-2.998,2.582-5.428,5.771-5.428C35.619,220.896,38.203,223.326,38.203,226.324"/>
						<path clip-path="url(#SVGID_7_)" fill="#D2D4D5" d="M38.037,226.324c0,2.908-2.51,5.268-5.604,5.268
							c-3.097,0-5.605-2.359-5.605-5.268c0-2.912,2.509-5.27,5.605-5.27C35.527,221.055,38.037,223.412,38.037,226.324"/>
					</g>
				</g>
				<polygon fill="#605F5E" points="31.503,230.344 31.503,227.197 28.157,227.197 28.157,225.449 31.503,225.449 31.503,222.303 
					33.361,222.303 33.361,225.449 36.706,225.449 36.706,227.197 33.361,227.197 33.361,230.344 				"/>
				<path fill="#221714" d="M33.199,222.455v2.844v0.303h0.321h3.024v1.443h-3.024h-0.321v0.301v2.846h-1.536v-2.846v-0.301h-0.32
					h-3.025v-1.443h3.025h0.32v-0.303v-2.844H33.199z M33.521,222.152h-2.178v3.146h-3.347v2.047h3.347v3.146h2.178v-3.146h3.347
					v-2.047h-3.347V222.152z"/>
			</g>
		</g>
		<g>
			<g>
				<path fill="#B7B6B6" d="M49.152,203.941c0,3.906-3.387,7.072-7.563,7.072H25.274c-4.178,0-7.563-3.166-7.563-7.072l0,0
					c0-3.905,3.385-7.071,7.563-7.071h16.314C45.766,196.87,49.152,200.036,49.152,203.941L49.152,203.941z"/>
				<path fill="#0E0D0D" d="M48.258,203.741c0,3.796-3.289,6.871-7.347,6.871H25.06c-4.058,0-7.348-3.075-7.348-6.871l0,0
					c0-3.796,3.29-6.871,7.348-6.871h15.852C44.969,196.87,48.258,199.945,48.258,203.741L48.258,203.741z"/>
			</g>
			<g>
				<path fill="#AFAEAE" d="M42.697,203.008c0,5.33-4.596,9.651-10.265,9.651c-5.671,0-10.267-4.321-10.267-9.651
					c0-5.332,4.596-9.654,10.267-9.654C38.102,193.354,42.697,197.676,42.697,203.008"/>
				<ellipse fill="none" stroke="#929292" stroke-miterlimit="10" cx="32.432" cy="203.008" rx="10.266" ry="9.651"/>
				<path fill="#AFAEAE" d="M39.976,203.008c0,3.916-3.379,7.092-7.543,7.092c-4.166,0-7.545-3.176-7.545-7.092
					c0-3.918,3.379-7.095,7.545-7.095C36.597,195.913,39.976,199.09,39.976,203.008"/>
				<ellipse fill="none" stroke="#929292" stroke-miterlimit="10" cx="32.432" cy="203.008" rx="7.544" ry="7.092"/>
				<g>
					<g>
						<defs>
							<rect id="SVGID_8_" x="25.32" y="196.32" width="14.222" height="13.37"/>
						</defs>
						<clipPath id="SVGID_9_">
							<use xlink:href="#SVGID_8_"  overflow="visible"/>
						</clipPath>
						<path clip-path="url(#SVGID_9_)" fill="#BEBEBD" d="M39.54,203.008c0,3.69-3.182,6.683-7.107,6.683
							c-3.929,0-7.111-2.992-7.111-6.683c0-3.692,3.183-6.688,7.111-6.688C36.358,196.32,39.54,199.315,39.54,203.008"/>
						<path clip-path="url(#SVGID_9_)" fill="#C0C0C0" d="M39.374,203.008c0,3.603-3.108,6.525-6.941,6.525
							c-3.836,0-6.943-2.923-6.943-6.525c0-3.605,3.107-6.529,6.943-6.529C36.266,196.479,39.374,199.402,39.374,203.008"/>
						<path clip-path="url(#SVGID_9_)" fill="#C2C3C3" d="M39.206,203.008c0,3.516-3.034,6.369-6.773,6.369
							c-3.742,0-6.775-2.854-6.775-6.369c0-3.52,3.033-6.371,6.775-6.371C36.172,196.637,39.206,199.488,39.206,203.008"/>
						<path clip-path="url(#SVGID_9_)" fill="#C4C5C4" d="M39.038,203.008c0,3.431-2.956,6.211-6.605,6.211
							c-3.651,0-6.609-2.78-6.609-6.211c0-3.433,2.958-6.213,6.609-6.213C36.082,196.795,39.038,199.575,39.038,203.008"/>
						<path clip-path="url(#SVGID_9_)" fill="#C6C8C8" d="M38.871,203.008c0,3.342-2.884,6.055-6.438,6.055
							c-3.558,0-6.441-2.713-6.441-6.055c0-3.346,2.884-6.058,6.441-6.058C35.987,196.95,38.871,199.662,38.871,203.008"/>
						<path clip-path="url(#SVGID_9_)" fill="#C9CACB" d="M38.704,203.008c0,3.256-2.808,5.896-6.271,5.896
							c-3.466,0-6.273-2.641-6.273-5.896c0-3.26,2.808-5.9,6.273-5.9C35.896,197.107,38.704,199.748,38.704,203.008"/>
						<path clip-path="url(#SVGID_9_)" fill="#CBCDCD" d="M38.538,203.008c0,3.169-2.734,5.74-6.105,5.74
							c-3.373,0-6.106-2.571-6.106-5.74c0-3.172,2.733-5.744,6.106-5.744C35.804,197.264,38.538,199.836,38.538,203.008"/>
						<path clip-path="url(#SVGID_9_)" fill="#CCCFD0" d="M38.371,203.008c0,3.082-2.66,5.584-5.938,5.584
							c-3.28,0-5.939-2.502-5.939-5.584c0-3.086,2.659-5.586,5.939-5.586C35.711,197.422,38.371,199.922,38.371,203.008"/>
						<path clip-path="url(#SVGID_9_)" fill="#D0D2D2" d="M38.203,203.008c0,2.996-2.584,5.426-5.771,5.426
							c-3.189,0-5.771-2.43-5.771-5.426c0-2.999,2.582-5.429,5.771-5.429C35.619,197.579,38.203,200.009,38.203,203.008"/>
						<path clip-path="url(#SVGID_9_)" fill="#D2D4D5" d="M38.037,203.008c0,2.908-2.51,5.268-5.604,5.268
							c-3.097,0-5.605-2.359-5.605-5.268c0-2.912,2.509-5.271,5.605-5.271C35.527,197.737,38.037,200.096,38.037,203.008"/>
					</g>
				</g>
				<polygon fill="#605F5E" points="31.503,207.027 31.503,203.881 28.157,203.881 28.157,202.133 31.503,202.133 31.503,198.986 
					33.361,198.986 33.361,202.133 36.706,202.133 36.706,203.881 33.361,203.881 33.361,207.027 				"/>
				<path fill="#221714" d="M33.199,199.139v2.843v0.304h0.321h3.024v1.442h-3.024h-0.321v0.302v2.845h-1.536v-2.845v-0.302h-0.32
					h-3.025v-1.442h3.025h0.32v-0.304v-2.843H33.199z M33.521,198.836h-2.178v3.146h-3.347v2.048h3.347v3.146h2.178v-3.146h3.347
					v-2.048h-3.347V198.836z"/>
			</g>
		</g>
	</g>
</g>
<linearGradient id="SVGID_10_" gradientUnits="userSpaceOnUse" x1="-4426.1719" y1="126.1396" x2="-4355.3047" y2="126.1396" gradientTransform="matrix(-1 0 0 1 -3008.8496 0)">
	<stop  offset="0.0161" style="stop-color:#030000"/>
	<stop  offset="0.0645" style="stop-color:#343535"/>
	<stop  offset="0.1452" style="stop-color:#1F2020"/>
	<stop  offset="0.8118" style="stop-color:#515151"/>
	<stop  offset="0.914" style="stop-color:#636666"/>
	<stop  offset="1" style="stop-color:#030000"/>
</linearGradient>
<rect x="1346.455" y="-0.001" fill="url(#SVGID_10_)" width="70.867" height="252.283"/>
<g>
	<g>
		<g>
			<path fill="#B7B6B6" d="M1368.168,52.259c0,3.905,3.387,7.072,7.563,7.072h16.315c4.178,0,7.563-3.167,7.563-7.072l0,0
				c0-3.906-3.385-7.072-7.563-7.072h-16.315C1371.555,45.187,1368.168,48.353,1368.168,52.259L1368.168,52.259z"/>
			<path fill="#0E0D0D" d="M1369.063,52.058c0,3.795,3.289,6.871,7.348,6.871h15.852c4.057,0,7.348-3.076,7.348-6.871l0,0
				c0-3.795-3.291-6.871-7.348-6.871h-15.852C1372.352,45.187,1369.063,48.263,1369.063,52.058L1369.063,52.058z"/>
		</g>
		<g>
			<path fill="#AFAEAE" d="M1374.623,51.324c0,5.331,4.596,9.652,10.266,9.652s10.266-4.321,10.266-9.652
				c0-5.332-4.596-9.654-10.266-9.654S1374.623,45.993,1374.623,51.324"/>
			<ellipse fill="none" stroke="#929292" stroke-miterlimit="10" cx="1384.889" cy="51.324" rx="10.266" ry="9.652"/>
			<path fill="#AFAEAE" d="M1377.346,51.324c0,3.916,3.379,7.092,7.543,7.092c4.166,0,7.544-3.176,7.544-7.092
				c0-3.918-3.378-7.094-7.544-7.094C1380.725,44.23,1377.346,47.406,1377.346,51.324"/>
			<ellipse fill="none" stroke="#929292" stroke-miterlimit="10" cx="1384.889" cy="51.324" rx="7.543" ry="7.092"/>
			<g>
				<g>
					<defs>
						<rect id="SVGID_11_" x="1377.779" y="44.638" width="14.221" height="13.37"/>
					</defs>
					<clipPath id="SVGID_12_">
						<use xlink:href="#SVGID_11_"  overflow="visible"/>
					</clipPath>
					<path clip-path="url(#SVGID_12_)" fill="#BEBEBD" d="M1377.781,51.324c0,3.691,3.182,6.683,7.107,6.683
						c3.928,0,7.11-2.992,7.11-6.683c0-3.692-3.183-6.687-7.11-6.687C1380.963,44.638,1377.781,47.632,1377.781,51.324"/>
					<path clip-path="url(#SVGID_12_)" fill="#C0C0C0" d="M1377.947,51.324c0,3.603,3.107,6.526,6.941,6.526
						c3.836,0,6.942-2.923,6.942-6.526c0-3.605-3.106-6.529-6.942-6.529C1381.055,44.795,1377.947,47.719,1377.947,51.324"/>
					<path clip-path="url(#SVGID_12_)" fill="#C2C3C3" d="M1378.114,51.324c0,3.516,3.034,6.37,6.774,6.37
						c3.742,0,6.775-2.854,6.775-6.37c0-3.519-3.033-6.371-6.775-6.371C1381.148,44.953,1378.114,47.805,1378.114,51.324"/>
					<path clip-path="url(#SVGID_12_)" fill="#C4C5C4" d="M1378.282,51.324c0,3.431,2.956,6.212,6.606,6.212
						s6.609-2.781,6.609-6.212c0-3.432-2.959-6.213-6.609-6.213S1378.282,47.892,1378.282,51.324"/>
					<path clip-path="url(#SVGID_12_)" fill="#C6C8C8" d="M1378.449,51.324c0,3.342,2.885,6.055,6.439,6.055
						c3.557,0,6.441-2.712,6.441-6.055c0-3.345-2.885-6.057-6.441-6.057C1381.334,45.267,1378.449,47.979,1378.449,51.324"/>
					<path clip-path="url(#SVGID_12_)" fill="#C9CACB" d="M1378.617,51.324c0,3.256,2.807,5.896,6.271,5.896s6.273-2.64,6.273-5.896
						c0-3.259-2.809-5.9-6.273-5.9S1378.617,48.065,1378.617,51.324"/>
					<path clip-path="url(#SVGID_12_)" fill="#CBCDCD" d="M1378.782,51.324c0,3.169,2.735,5.741,6.106,5.741
						c3.373,0,6.105-2.571,6.105-5.741c0-3.172-2.732-5.744-6.105-5.744C1381.518,45.581,1378.782,48.152,1378.782,51.324"/>
					<path clip-path="url(#SVGID_12_)" fill="#CCCFD0" d="M1378.949,51.324c0,3.083,2.66,5.584,5.939,5.584s5.939-2.501,5.939-5.584
						c0-3.085-2.66-5.585-5.939-5.585S1378.949,48.239,1378.949,51.324"/>
					<path clip-path="url(#SVGID_12_)" fill="#D0D2D2" d="M1379.117,51.324c0,2.996,2.584,5.426,5.771,5.426
						c3.189,0,5.771-2.43,5.771-5.426c0-2.999-2.582-5.428-5.771-5.428C1381.701,45.896,1379.117,48.326,1379.117,51.324"/>
					<path clip-path="url(#SVGID_12_)" fill="#D2D4D5" d="M1379.283,51.324c0,2.909,2.51,5.269,5.605,5.269s5.605-2.359,5.605-5.269
						c0-2.912-2.51-5.27-5.605-5.27S1379.283,48.413,1379.283,51.324"/>
				</g>
			</g>
			<polygon fill="#605F5E" points="1385.818,55.344 1385.818,52.197 1389.164,52.197 1389.164,50.45 1385.818,50.45 
				1385.818,47.304 1383.959,47.304 1383.959,50.45 1380.614,50.45 1380.614,52.197 1383.959,52.197 1383.959,55.344 			"/>
			<path fill="#221714" d="M1385.658,47.456v2.843v0.304h0.32h3.025v1.442h-3.025h-0.32v0.302v2.844h-1.537v-2.844v-0.302h-0.321
				h-3.024v-1.442h3.024h0.321v-0.304v-2.843H1385.658z M1383.8,50.298h-3.347v2.048h3.347v3.146h2.179v-3.146h3.346v-2.048h-3.346
				v-3.145h-2.179V50.298z"/>
		</g>
	</g>
	<g>
		<g>
			<path fill="#B7B6B6" d="M1368.168,28.942c0,3.905,3.387,7.072,7.563,7.072h16.315c4.178,0,7.563-3.167,7.563-7.072l0,0
				c0-3.906-3.385-7.072-7.563-7.072h-16.315C1371.555,21.87,1368.168,25.036,1368.168,28.942L1368.168,28.942z"/>
			<path fill="#0E0D0D" d="M1369.063,28.741c0,3.795,3.289,6.871,7.348,6.871h15.852c4.057,0,7.348-3.076,7.348-6.871l0,0
				c0-3.795-3.291-6.871-7.348-6.871h-15.852C1372.352,21.87,1369.063,24.946,1369.063,28.741L1369.063,28.741z"/>
		</g>
		<g>
			<path fill="#AFAEAE" d="M1374.623,28.007c0,5.331,4.596,9.652,10.266,9.652s10.266-4.321,10.266-9.652
				c0-5.332-4.596-9.654-10.266-9.654S1374.623,22.676,1374.623,28.007"/>
			<ellipse fill="none" stroke="#929292" stroke-miterlimit="10" cx="1384.889" cy="28.007" rx="10.266" ry="9.652"/>
			<path fill="#AFAEAE" d="M1377.346,28.007c0,3.916,3.379,7.092,7.543,7.092c4.166,0,7.544-3.176,7.544-7.092
				c0-3.918-3.378-7.094-7.544-7.094C1380.725,20.913,1377.346,24.089,1377.346,28.007"/>
			<ellipse fill="none" stroke="#929292" stroke-miterlimit="10" cx="1384.889" cy="28.007" rx="7.543" ry="7.092"/>
			<g>
				<g>
					<defs>
						<rect id="SVGID_13_" x="1377.779" y="21.321" width="14.221" height="13.37"/>
					</defs>
					<clipPath id="SVGID_14_">
						<use xlink:href="#SVGID_13_"  overflow="visible"/>
					</clipPath>
					<path clip-path="url(#SVGID_14_)" fill="#BEBEBD" d="M1377.781,28.007c0,3.691,3.182,6.683,7.107,6.683
						c3.928,0,7.11-2.992,7.11-6.683c0-3.692-3.183-6.687-7.11-6.687C1380.963,21.321,1377.781,24.315,1377.781,28.007"/>
					<path clip-path="url(#SVGID_14_)" fill="#C0C0C0" d="M1377.947,28.007c0,3.603,3.107,6.526,6.941,6.526
						c3.836,0,6.942-2.923,6.942-6.526c0-3.605-3.106-6.529-6.942-6.529C1381.055,21.479,1377.947,24.402,1377.947,28.007"/>
					<path clip-path="url(#SVGID_14_)" fill="#C2C3C3" d="M1378.114,28.007c0,3.516,3.034,6.37,6.774,6.37
						c3.742,0,6.775-2.854,6.775-6.37c0-3.519-3.033-6.371-6.775-6.371C1381.148,21.636,1378.114,24.488,1378.114,28.007"/>
					<path clip-path="url(#SVGID_14_)" fill="#C4C5C4" d="M1378.282,28.007c0,3.431,2.956,6.212,6.606,6.212
						s6.609-2.781,6.609-6.212c0-3.432-2.959-6.213-6.609-6.213S1378.282,24.575,1378.282,28.007"/>
					<path clip-path="url(#SVGID_14_)" fill="#C6C8C8" d="M1378.449,28.007c0,3.342,2.885,6.055,6.439,6.055
						c3.557,0,6.441-2.712,6.441-6.055c0-3.345-2.885-6.057-6.441-6.057C1381.334,21.95,1378.449,24.662,1378.449,28.007"/>
					<path clip-path="url(#SVGID_14_)" fill="#C9CACB" d="M1378.617,28.007c0,3.256,2.807,5.896,6.271,5.896s6.273-2.64,6.273-5.896
						c0-3.259-2.809-5.9-6.273-5.9S1378.617,24.749,1378.617,28.007"/>
					<path clip-path="url(#SVGID_14_)" fill="#CBCDCD" d="M1378.782,28.007c0,3.169,2.735,5.741,6.106,5.741
						c3.373,0,6.105-2.571,6.105-5.741c0-3.172-2.732-5.744-6.105-5.744C1381.518,22.264,1378.782,24.835,1378.782,28.007"/>
					<path clip-path="url(#SVGID_14_)" fill="#CCCFD0" d="M1378.949,28.007c0,3.083,2.66,5.584,5.939,5.584s5.939-2.501,5.939-5.584
						c0-3.085-2.66-5.585-5.939-5.585S1378.949,24.922,1378.949,28.007"/>
					<path clip-path="url(#SVGID_14_)" fill="#D0D2D2" d="M1379.117,28.007c0,2.996,2.584,5.426,5.771,5.426
						c3.189,0,5.771-2.43,5.771-5.426c0-2.999-2.582-5.428-5.771-5.428C1381.701,22.579,1379.117,25.009,1379.117,28.007"/>
					<path clip-path="url(#SVGID_14_)" fill="#D2D4D5" d="M1379.283,28.007c0,2.909,2.51,5.269,5.605,5.269s5.605-2.359,5.605-5.269
						c0-2.912-2.51-5.27-5.605-5.27S1379.283,25.096,1379.283,28.007"/>
				</g>
			</g>
			<polygon fill="#605F5E" points="1385.818,32.027 1385.818,28.88 1389.164,28.88 1389.164,27.133 1385.818,27.133 
				1385.818,23.987 1383.959,23.987 1383.959,27.133 1380.614,27.133 1380.614,28.88 1383.959,28.88 1383.959,32.027 			"/>
			<path fill="#221714" d="M1385.658,24.139v2.843v0.304h0.32h3.025v1.442h-3.025h-0.32v0.302v2.844h-1.537V29.03v-0.302h-0.321
				h-3.024v-1.442h3.024h0.321v-0.304v-2.843H1385.658z M1383.8,26.981h-3.347v2.048h3.347v3.146h2.179V29.03h3.346v-2.048h-3.346
				v-3.145h-2.179V26.981z"/>
		</g>
	</g>
</g>
<g>
	<g>
		<path fill="#B7B6B6" d="M1368.168,227.258c0,3.906,3.387,7.072,7.563,7.072h16.315c4.178,0,7.563-3.166,7.563-7.072l0,0
			c0-3.904-3.385-7.07-7.563-7.07h-16.315C1371.555,220.188,1368.168,223.354,1368.168,227.258L1368.168,227.258z"/>
		<path fill="#0E0D0D" d="M1369.063,227.059c0,3.795,3.289,6.871,7.348,6.871h15.852c4.057,0,7.348-3.076,7.348-6.871l0,0
			c0-3.797-3.291-6.871-7.348-6.871h-15.852C1372.352,220.188,1369.063,223.262,1369.063,227.059L1369.063,227.059z"/>
	</g>
	<g>
		<path fill="#AFAEAE" d="M1374.623,226.324c0,5.33,4.596,9.652,10.266,9.652s10.266-4.322,10.266-9.652
			c0-5.332-4.596-9.654-10.266-9.654S1374.623,220.992,1374.623,226.324"/>
		<ellipse fill="none" stroke="#929292" stroke-miterlimit="10" cx="1384.889" cy="226.324" rx="10.266" ry="9.652"/>
		<path fill="#AFAEAE" d="M1377.346,226.324c0,3.916,3.379,7.092,7.543,7.092c4.166,0,7.544-3.176,7.544-7.092
			c0-3.918-3.378-7.094-7.544-7.094C1380.725,219.23,1377.346,222.406,1377.346,226.324"/>
		<ellipse fill="none" stroke="#929292" stroke-miterlimit="10" cx="1384.889" cy="226.324" rx="7.543" ry="7.092"/>
		<g>
			<g>
				<defs>
					<rect id="SVGID_15_" x="1377.779" y="219.637" width="14.221" height="13.371"/>
				</defs>
				<clipPath id="SVGID_16_">
					<use xlink:href="#SVGID_15_"  overflow="visible"/>
				</clipPath>
				<path clip-path="url(#SVGID_16_)" fill="#BEBEBD" d="M1377.781,226.324c0,3.691,3.182,6.684,7.107,6.684
					c3.928,0,7.11-2.992,7.11-6.684s-3.183-6.688-7.11-6.688C1380.963,219.637,1377.781,222.633,1377.781,226.324"/>
				<path clip-path="url(#SVGID_16_)" fill="#C0C0C0" d="M1377.947,226.324c0,3.604,3.107,6.525,6.941,6.525
					c3.836,0,6.942-2.922,6.942-6.525c0-3.605-3.106-6.529-6.942-6.529C1381.055,219.795,1377.947,222.719,1377.947,226.324"/>
				<path clip-path="url(#SVGID_16_)" fill="#C2C3C3" d="M1378.114,226.324c0,3.516,3.034,6.369,6.774,6.369
					c3.742,0,6.775-2.854,6.775-6.369c0-3.52-3.033-6.371-6.775-6.371C1381.148,219.953,1378.114,222.805,1378.114,226.324"/>
				<path clip-path="url(#SVGID_16_)" fill="#C4C5C4" d="M1378.282,226.324c0,3.432,2.956,6.211,6.606,6.211
					s6.609-2.779,6.609-6.211s-2.959-6.213-6.609-6.213S1378.282,222.893,1378.282,226.324"/>
				<path clip-path="url(#SVGID_16_)" fill="#C6C8C8" d="M1378.449,226.324c0,3.342,2.885,6.055,6.439,6.055
					c3.557,0,6.441-2.713,6.441-6.055c0-3.346-2.885-6.057-6.441-6.057C1381.334,220.268,1378.449,222.979,1378.449,226.324"/>
				<path clip-path="url(#SVGID_16_)" fill="#C9CACB" d="M1378.617,226.324c0,3.256,2.807,5.896,6.271,5.896
					s6.273-2.641,6.273-5.896c0-3.26-2.809-5.9-6.273-5.9S1378.617,223.064,1378.617,226.324"/>
				<path clip-path="url(#SVGID_16_)" fill="#CBCDCD" d="M1378.782,226.324c0,3.17,2.735,5.74,6.106,5.74
					c3.373,0,6.105-2.57,6.105-5.74c0-3.172-2.732-5.744-6.105-5.744C1381.518,220.58,1378.782,223.152,1378.782,226.324"/>
				<path clip-path="url(#SVGID_16_)" fill="#CCCFD0" d="M1378.949,226.324c0,3.082,2.66,5.584,5.939,5.584s5.939-2.502,5.939-5.584
					c0-3.086-2.66-5.586-5.939-5.586S1378.949,223.238,1378.949,226.324"/>
				<path clip-path="url(#SVGID_16_)" fill="#D0D2D2" d="M1379.117,226.324c0,2.996,2.584,5.426,5.771,5.426
					c3.189,0,5.771-2.43,5.771-5.426c0-2.998-2.582-5.428-5.771-5.428C1381.701,220.896,1379.117,223.326,1379.117,226.324"/>
				<path clip-path="url(#SVGID_16_)" fill="#D2D4D5" d="M1379.283,226.324c0,2.908,2.51,5.268,5.605,5.268s5.605-2.359,5.605-5.268
					c0-2.912-2.51-5.27-5.605-5.27S1379.283,223.412,1379.283,226.324"/>
			</g>
		</g>
		<polygon fill="#605F5E" points="1385.818,230.344 1385.818,227.197 1389.164,227.197 1389.164,225.449 1385.818,225.449 
			1385.818,222.303 1383.959,222.303 1383.959,225.449 1380.614,225.449 1380.614,227.197 1383.959,227.197 1383.959,230.344 		"/>
		<path fill="#221714" d="M1385.658,222.455v2.844v0.303h0.32h3.025v1.443h-3.025h-0.32v0.301v2.846h-1.537v-2.846v-0.301h-0.321
			h-3.024v-1.443h3.024h0.321v-0.303v-2.844H1385.658z M1383.8,225.299h-3.347v2.047h3.347v3.146h2.179v-3.146h3.346v-2.047h-3.346
			v-3.146h-2.179V225.299z"/>
	</g>
</g>
<g>
	<path fill="#B7B6B6" d="M1368.168,203.941c0,3.906,3.387,7.072,7.563,7.072h16.315c4.178,0,7.563-3.166,7.563-7.072l0,0
		c0-3.905-3.385-7.071-7.563-7.071h-16.315C1371.555,196.87,1368.168,200.036,1368.168,203.941L1368.168,203.941z"/>
	<path fill="#0E0D0D" d="M1369.063,203.741c0,3.796,3.289,6.871,7.348,6.871h15.852c4.057,0,7.348-3.075,7.348-6.871l0,0
		c0-3.796-3.291-6.871-7.348-6.871h-15.852C1372.352,196.87,1369.063,199.945,1369.063,203.741L1369.063,203.741z"/>
</g>
<g>
	<path fill="#AFAEAE" d="M1374.623,203.008c0,5.33,4.596,9.651,10.266,9.651s10.266-4.321,10.266-9.651
		c0-5.332-4.596-9.654-10.266-9.654S1374.623,197.676,1374.623,203.008"/>
	<ellipse fill="none" stroke="#929292" stroke-miterlimit="10" cx="1384.889" cy="203.008" rx="10.266" ry="9.651"/>
	<path fill="#AFAEAE" d="M1377.346,203.008c0,3.916,3.379,7.092,7.543,7.092c4.166,0,7.544-3.176,7.544-7.092
		c0-3.918-3.378-7.095-7.544-7.095C1380.725,195.913,1377.346,199.09,1377.346,203.008"/>
	<ellipse fill="none" stroke="#929292" stroke-miterlimit="10" cx="1384.889" cy="203.008" rx="7.543" ry="7.092"/>
	<g>
		<g>
			<defs>
				<rect id="SVGID_17_" x="1377.779" y="196.32" width="14.221" height="13.37"/>
			</defs>
			<clipPath id="SVGID_18_">
				<use xlink:href="#SVGID_17_"  overflow="visible"/>
			</clipPath>
			<path clip-path="url(#SVGID_18_)" fill="#BEBEBD" d="M1377.781,203.008c0,3.69,3.182,6.683,7.107,6.683
				c3.928,0,7.11-2.992,7.11-6.683c0-3.692-3.183-6.688-7.11-6.688C1380.963,196.32,1377.781,199.315,1377.781,203.008"/>
			<path clip-path="url(#SVGID_18_)" fill="#C0C0C0" d="M1377.947,203.008c0,3.603,3.107,6.525,6.941,6.525
				c3.836,0,6.942-2.923,6.942-6.525c0-3.605-3.106-6.529-6.942-6.529C1381.055,196.479,1377.947,199.402,1377.947,203.008"/>
			<path clip-path="url(#SVGID_18_)" fill="#C2C3C3" d="M1378.114,203.008c0,3.516,3.034,6.369,6.774,6.369
				c3.742,0,6.775-2.854,6.775-6.369c0-3.52-3.033-6.371-6.775-6.371C1381.148,196.637,1378.114,199.488,1378.114,203.008"/>
			<path clip-path="url(#SVGID_18_)" fill="#C4C5C4" d="M1378.282,203.008c0,3.431,2.956,6.211,6.606,6.211s6.609-2.78,6.609-6.211
				c0-3.433-2.959-6.213-6.609-6.213S1378.282,199.575,1378.282,203.008"/>
			<path clip-path="url(#SVGID_18_)" fill="#C6C8C8" d="M1378.449,203.008c0,3.342,2.885,6.055,6.439,6.055
				c3.557,0,6.441-2.713,6.441-6.055c0-3.346-2.885-6.058-6.441-6.058C1381.334,196.95,1378.449,199.662,1378.449,203.008"/>
			<path clip-path="url(#SVGID_18_)" fill="#C9CACB" d="M1378.617,203.008c0,3.256,2.807,5.896,6.271,5.896s6.273-2.641,6.273-5.896
				c0-3.26-2.809-5.9-6.273-5.9S1378.617,199.748,1378.617,203.008"/>
			<path clip-path="url(#SVGID_18_)" fill="#CBCDCD" d="M1378.782,203.008c0,3.169,2.735,5.74,6.106,5.74
				c3.373,0,6.105-2.571,6.105-5.74c0-3.172-2.732-5.744-6.105-5.744C1381.518,197.264,1378.782,199.836,1378.782,203.008"/>
			<path clip-path="url(#SVGID_18_)" fill="#CCCFD0" d="M1378.949,203.008c0,3.082,2.66,5.584,5.939,5.584s5.939-2.502,5.939-5.584
				c0-3.086-2.66-5.586-5.939-5.586S1378.949,199.922,1378.949,203.008"/>
			<path clip-path="url(#SVGID_18_)" fill="#D0D2D2" d="M1379.117,203.008c0,2.996,2.584,5.426,5.771,5.426
				c3.189,0,5.771-2.43,5.771-5.426c0-2.999-2.582-5.429-5.771-5.429C1381.701,197.579,1379.117,200.009,1379.117,203.008"/>
			<path clip-path="url(#SVGID_18_)" fill="#D2D4D5" d="M1379.283,203.008c0,2.908,2.51,5.268,5.605,5.268s5.605-2.359,5.605-5.268
				c0-2.912-2.51-5.271-5.605-5.271S1379.283,200.096,1379.283,203.008"/>
		</g>
	</g>
	<polygon fill="#605F5E" points="1385.818,207.027 1385.818,203.881 1389.164,203.881 1389.164,202.133 1385.818,202.133 
		1385.818,198.986 1383.959,198.986 1383.959,202.133 1380.614,202.133 1380.614,203.881 1383.959,203.881 1383.959,207.027 	"/>
	<path fill="#221714" d="M1385.658,199.139v2.843v0.304h0.32h3.025v1.442h-3.025h-0.32v0.302v2.845h-1.537v-2.845v-0.302h-0.321
		h-3.024v-1.442h3.024h0.321v-0.304v-2.843H1385.658z M1383.8,201.981h-3.347v2.048h3.347v3.146h2.179v-3.146h3.346v-2.048h-3.346
		v-3.146h-2.179V201.981z"/>
</g>
<g>
	<path fill="#101010" d="M259.933,56.204c0,1.184-0.926,2.143-2.067,2.143H94c-1.142,0-2.067-0.959-2.067-2.143V23.983
		c0-1.184,0.926-2.143,2.067-2.143h163.865c1.142,0,2.067,0.959,2.067,2.143V56.204z"/>
	<linearGradient id="SVGID_19_" gradientUnits="userSpaceOnUse" x1="176.1826" y1="56.917" x2="176.1826" y2="22.8408">
		<stop  offset="0" style="stop-color:#40210F"/>
		<stop  offset="0.0968" style="stop-color:#A82A2C"/>
		<stop  offset="0.8548" style="stop-color:#D3464C"/>
		<stop  offset="0.9462" style="stop-color:#EB6B78"/>
		<stop  offset="1" style="stop-color:#A82A2C"/>
	</linearGradient>
	<path fill="url(#SVGID_19_)" d="M257.433,54.917c0,1.104-0.896,2-2,2h-158.5c-1.104,0-2-0.896-2-2V24.841c0-1.104,0.896-2,2-2
		h158.5c1.104,0,2,0.896,2,2V54.917z"/>
	<path fill="#EFEFEF" d="M129.361,31.626c0,0-2.727,2.578,0,4.826c0,0,1.4,0.811,4.2-0.184c0,0,5.6-2.359,8.362-3.059
		c0,0,3.794-1.143,5.563-1.068c0,0,0.848,0.074,0,0.7c0,0-3.61,3.39-4.531,4.311c0,0-2.137,1.988-1.511,5.046
		c0,0,0.848,2.248,1.621,3.464c0,0,0.59,0.958-0.626,1.916c0,0-3.353,2.763-3.463,3.904c0,0-0.295,1.364-0.073,1.917
		c0,0,0.663,0.221,2.615-1.29c0,0,1.363-0.958,3.721-0.774c0,0,2.505-0.073,3.574-1.584c0,0,2.137-1.916,0.884-4.162
		c0,0-2.727-2.801-2.837-3.279c0,0-1.399-1.4-0.479-3.058c0,0,1.988-2.542,3.131-2.983c0,0,2.1-1.659,2.211-2.469
		c0,0,0.074-0.994-0.7-2.174c0,0,1.769-1.253,3.831-1.475c0,0,1.364-0.367,1.548-1.141c0,0,0.11-1.032-1.363-1.068
		c0,0-2.173-0.517-7.884,0c0,0-6.042,0.736-7.957,1.178c0,0-4.09,0.774-5.526,1.105C133.672,30.226,130.613,30.779,129.361,31.626z"
		/>
	
		<text transform="matrix(1.1667 0 0 1 161.7666 40.5615)" fill="#EFEFEF" font-family="'HeitiEG-Ultra-GB'" font-size="12" letter-spacing="1.714">天融信</text>
	<text transform="matrix(1.4267 0 0 1 162.7671 50.6582)" fill="#EFEFEF" font-family="'HeitiEG-Ultra-GB'" font-size="9.813">TOPSEC</text>
</g>
<rect x="96.934" y="139.173" fill="#262626" stroke="#0C0C0C" stroke-width="2.8346" stroke-miterlimit="10" width="300.41" height="106.251"/>
<rect x="404.817" y="139.173" fill="#262626" stroke="#0C0C0C" stroke-width="2.8346" stroke-miterlimit="10" width="300.409" height="106.251"/>
<rect x="712.701" y="139.173" fill="#262626" stroke="#0C0C0C" stroke-width="2.8346" stroke-miterlimit="10" width="300.41" height="106.251"/>
<rect x="1020.585" y="139.173" fill="#262626" stroke="#0C0C0C" stroke-width="2.8346" stroke-miterlimit="10" width="300.409" height="106.251"/>
<text transform="matrix(1 0 0 1 230.293 130.1582)" fill="#FFFFFF" font-family="'SimHei'" font-size="13.313">SLOT4</text>
<text transform="matrix(1 0 0 1 233.293 198.8359)" fill="#FFFFFF" font-family="'SimHei'" font-size="13.313">SLOT</text>
<text transform="matrix(1 0 0 1 541.293 198.9863)" fill="#FFFFFF" font-family="'SimHei'" font-size="13.313">SLOT</text>
<text transform="matrix(1 0 0 1 849.293 199.1367)" fill="#FFFFFF" font-family="'SimHei'" font-size="13.313">SLOT</text>
<text transform="matrix(1 0 0 1 537.293 130.1582)" fill="#FFFFFF" font-family="'SimHei'" font-size="13.313">SLOT3</text>
<text transform="matrix(1 0 0 1 845.293 130.1582)" fill="#FFFFFF" font-family="'SimHei'" font-size="13.313">SLOT2</text>
<text transform="matrix(1 0 0 1 1154.293 130.1582)" fill="#FFFFFF" font-family="'SimHei'" font-size="13.313">SLOT1</text>
<g>
	<rect x="1197.75" y="38.973" fill="#030000" width="44.332" height="72.979"/>
	<linearGradient id="SVGID_20_" gradientUnits="userSpaceOnUse" x1="1198.2881" y1="75.5361" x2="1241.5439" y2="75.5361">
		<stop  offset="0" style="stop-color:#FFFFFF"/>
		<stop  offset="0.1688" style="stop-color:#B1B4B5"/>
		<stop  offset="0.4086" style="stop-color:#E0E0DF"/>
		<stop  offset="0.7581" style="stop-color:#B1B4B5"/>
		<stop  offset="1" style="stop-color:#C2C2C2"/>
	</linearGradient>
	<rect x="1198.288" y="40.384" fill="url(#SVGID_20_)" width="43.256" height="70.304"/>
</g>
<text transform="matrix(1 0 0 1 1109.584 69.3003)" fill="#FFFFFF" font-family="'SimHei'" font-size="8">CONSOLE     SECKEY</text>
<text transform="matrix(1 0 0 1 1199.2881 36.0137)" fill="#FFFFFF" font-family="'SimHei'" font-size="8">ACT</text>
<text transform="matrix(1 0 0 1 1213.3496 24.4805)" fill="#FFFFFF" font-family="'SimHei'" font-size="8">MGMT</text>
<text transform="matrix(1 0 0 1 1229.6475 36.0137)" fill="#FFFFFF" font-family="'SimHei'" font-size="8">LNK</text>
<g>
	<rect x="1231.647" y="158.107" fill="#030000" width="44.333" height="77.525"/>
	<linearGradient id="SVGID_21_" gradientUnits="userSpaceOnUse" x1="1232.1855" y1="196.9482" x2="1275.4414" y2="196.9482">
		<stop  offset="0" style="stop-color:#FFFFFF"/>
		<stop  offset="0.1688" style="stop-color:#B1B4B5"/>
		<stop  offset="0.4086" style="stop-color:#E0E0DF"/>
		<stop  offset="0.7581" style="stop-color:#B1B4B5"/>
		<stop  offset="1" style="stop-color:#C2C2C2"/>
	</linearGradient>
	<rect x="1232.186" y="159.607" fill="url(#SVGID_21_)" width="43.256" height="74.682"/>
</g>
<g>
	<rect x="1070.54" y="158.107" fill="#030000" width="48.915" height="77.525"/>
	<linearGradient id="SVGID_22_" gradientUnits="userSpaceOnUse" x1="1071.1348" y1="196.9473" x2="1118.8613" y2="196.9473">
		<stop  offset="0" style="stop-color:#FFFFFF"/>
		<stop  offset="0.1688" style="stop-color:#B1B4B5"/>
		<stop  offset="0.4086" style="stop-color:#E0E0DF"/>
		<stop  offset="0.7581" style="stop-color:#B1B4B5"/>
		<stop  offset="1" style="stop-color:#C2C2C2"/>
	</linearGradient>
	<rect x="1071.135" y="159.606" fill="url(#SVGID_22_)" width="47.727" height="74.683"/>
</g>
<g>
	<rect x="1124.355" y="158.107" fill="#030000" width="48.914" height="77.525"/>
	<linearGradient id="SVGID_23_" gradientUnits="userSpaceOnUse" x1="1124.9492" y1="196.9473" x2="1172.6758" y2="196.9473">
		<stop  offset="0" style="stop-color:#FFFFFF"/>
		<stop  offset="0.1688" style="stop-color:#B1B4B5"/>
		<stop  offset="0.4086" style="stop-color:#E0E0DF"/>
		<stop  offset="0.7581" style="stop-color:#B1B4B5"/>
		<stop  offset="1" style="stop-color:#C2C2C2"/>
	</linearGradient>
	<rect x="1124.949" y="159.606" fill="url(#SVGID_23_)" width="47.727" height="74.683"/>
</g>
<g>
	<rect x="1178.171" y="158.107" fill="#030000" width="48.915" height="77.525"/>
	<linearGradient id="SVGID_24_" gradientUnits="userSpaceOnUse" x1="1178.7656" y1="196.9473" x2="1226.4922" y2="196.9473">
		<stop  offset="0" style="stop-color:#FFFFFF"/>
		<stop  offset="0.1688" style="stop-color:#B1B4B5"/>
		<stop  offset="0.4086" style="stop-color:#E0E0DF"/>
		<stop  offset="0.7581" style="stop-color:#B1B4B5"/>
		<stop  offset="1" style="stop-color:#C2C2C2"/>
	</linearGradient>
	<rect x="1178.766" y="159.606" fill="url(#SVGID_24_)" width="47.727" height="74.683"/>
</g>
<g>
	<g>
		<radialGradient id="SVGID_25_" cx="1037.293" cy="209.8584" r="4.7607" gradientUnits="userSpaceOnUse">
			<stop  offset="0" style="stop-color:#FFFFFF"/>
			<stop  offset="1" style="stop-color:#8FC31F"/>
		</radialGradient>
		<circle fill="url(#SVGID_25_)" stroke="#000000" stroke-miterlimit="10" cx="1037.293" cy="209.859" r="4.76"/>
		<radialGradient id="SVGID_26_" cx="1053.627" cy="209.8584" r="4.7603" gradientUnits="userSpaceOnUse">
			<stop  offset="0" style="stop-color:#FFFFFF"/>
			<stop  offset="1" style="stop-color:#8FC31F"/>
		</radialGradient>
		<circle fill="url(#SVGID_26_)" stroke="#000000" stroke-miterlimit="10" cx="1053.626" cy="209.859" r="4.76"/>
	</g>
	<g>
		<radialGradient id="SVGID_27_" cx="1037.293" cy="223.917" r="4.7607" gradientUnits="userSpaceOnUse">
			<stop  offset="0" style="stop-color:#FFFFFF"/>
			<stop  offset="1" style="stop-color:#8FC31F"/>
		</radialGradient>
		<circle fill="url(#SVGID_27_)" stroke="#000000" stroke-miterlimit="10" cx="1037.293" cy="223.918" r="4.76"/>
		<radialGradient id="SVGID_28_" cx="1053.627" cy="223.917" r="4.7603" gradientUnits="userSpaceOnUse">
			<stop  offset="0" style="stop-color:#FFFFFF"/>
			<stop  offset="1" style="stop-color:#8FC31F"/>
		</radialGradient>
		<circle fill="url(#SVGID_28_)" stroke="#000000" stroke-miterlimit="10" cx="1053.626" cy="223.918" r="4.76"/>
	</g>
</g>
<radialGradient id="SVGID_29_" cx="1287.96" cy="209.8584" r="4.7607" gradientUnits="userSpaceOnUse">
	<stop  offset="0" style="stop-color:#FFFFFF"/>
	<stop  offset="1" style="stop-color:#8FC31F"/>
</radialGradient>
<circle fill="url(#SVGID_29_)" stroke="#000000" stroke-miterlimit="10" cx="1287.96" cy="209.859" r="4.761"/>
<radialGradient id="SVGID_30_" cx="1287.96" cy="223.917" r="4.7607" gradientUnits="userSpaceOnUse">
	<stop  offset="0" style="stop-color:#FFFFFF"/>
	<stop  offset="1" style="stop-color:#8FC31F"/>
</radialGradient>
<circle fill="url(#SVGID_30_)" stroke="#000000" stroke-miterlimit="10" cx="1287.96" cy="223.918" r="4.761"/>
<text transform="matrix(1 0 0 1 1031.6211 199.9131)" fill="#FFFFFF" font-family="'SimHei'" font-size="8">ACT</text>
<text transform="matrix(1 0 0 1 1047.9805 199.9131)" fill="#FFFFFF" font-family="'SimHei'" font-size="8">LNK</text>
<g>
	<radialGradient id="SVGID_31_" cx="1255.2402" cy="69.6895" r="4.7607" gradientUnits="userSpaceOnUse">
		<stop  offset="0" style="stop-color:#FFFFFF"/>
		<stop  offset="1" style="stop-color:#8FC31F"/>
	</radialGradient>
	<circle fill="url(#SVGID_31_)" stroke="#000000" stroke-miterlimit="10" cx="1255.241" cy="69.69" r="4.76"/>
	<radialGradient id="SVGID_32_" cx="1255.2402" cy="81.5361" r="4.7605" gradientUnits="userSpaceOnUse">
		<stop  offset="0" style="stop-color:#FFFFFF"/>
		<stop  offset="1" style="stop-color:#8FC31F"/>
	</radialGradient>
	<circle fill="url(#SVGID_32_)" stroke="#000000" stroke-miterlimit="10" cx="1255.241" cy="81.536" r="4.76"/>
	<radialGradient id="SVGID_33_" cx="1255.2402" cy="93.3818" r="4.7607" gradientUnits="userSpaceOnUse">
		<stop  offset="0" style="stop-color:#FFFFFF"/>
		<stop  offset="1" style="stop-color:#8FC31F"/>
	</radialGradient>
	<circle fill="url(#SVGID_33_)" stroke="#000000" stroke-miterlimit="10" cx="1255.241" cy="93.382" r="4.76"/>
	<radialGradient id="SVGID_34_" cx="1255.2402" cy="105.2285" r="4.7605" gradientUnits="userSpaceOnUse">
		<stop  offset="0" style="stop-color:#FFFFFF"/>
		<stop  offset="1" style="stop-color:#8FC31F"/>
	</radialGradient>
	<circle fill="url(#SVGID_34_)" stroke="#000000" stroke-miterlimit="10" cx="1255.241" cy="105.229" r="4.76"/>
	<text transform="matrix(1 0 0 1 1266.4873 71.8374)" fill="#FFFFFF" font-family="'SimHei'" font-size="8">RUN</text>
	<text transform="matrix(1 0 0 1 1266.4873 83.8374)" fill="#FFFFFF" font-family="'SimHei'" font-size="8">M/S</text>
	<text transform="matrix(1 0 0 1 1266.4873 97.0039)" fill="#FFFFFF" font-family="'SimHei'" font-size="8">MGMT</text>
	<text transform="matrix(1 0 0 1 1266.4873 109.0039)" fill="#FFFFFF" font-family="'SimHei'" font-size="8">LOG</text>
</g>
</svg>
