<?xml version="1.0" encoding="utf-8"?>
<!-- Generator: Adobe Illustrator 16.0.0, SVG Export Plug-In . SVG Version: 6.00 Build 0)  -->
<!DOCTYPE svg PUBLIC "-//W3C//DTD SVG 1.1//EN" "http://www.w3.org/Graphics/SVG/1.1/DTD/svg11.dtd">
<svg version="1.1" id="图层_1" xmlns="http://www.w3.org/2000/svg" xmlns:xlink="http://www.w3.org/1999/xlink" x="0px" y="0px"
	 width="1275.591px" height="252.283px" viewBox="0 0 1275.591 252.283" enable-background="new 0 0 1275.591 252.283"
	 xml:space="preserve">
<linearGradient id="SVGID_1_" gradientUnits="userSpaceOnUse" x1="637.7949" y1="126.1426" x2="637.7949" y2="0">
	<stop  offset="0" style="stop-color:#000000"/>
	<stop  offset="0.7097" style="stop-color:#3E3A39"/>
	<stop  offset="0.8387" style="stop-color:#595757"/>
	<stop  offset="0.9194" style="stop-color:#B5B5B6"/>
	<stop  offset="1" style="stop-color:#3E3A39"/>
</linearGradient>
<rect fill="url(#SVGID_1_)" width="1275.59" height="126.143"/>
<linearGradient id="SVGID_2_" gradientUnits="userSpaceOnUse" x1="637.7949" y1="252.2842" x2="637.7949" y2="4.882813e-004">
	<stop  offset="0" style="stop-color:#000000"/>
	<stop  offset="0.7957" style="stop-color:#3E3A39"/>
	<stop  offset="0.8817" style="stop-color:#595757"/>
	<stop  offset="0.9355" style="stop-color:#898989"/>
	<stop  offset="0.9892" style="stop-color:#000000"/>
</linearGradient>
<rect fill="url(#SVGID_2_)" width="1275.59" height="252.284"/>
<path fill="#0B0D0A" d="M1254.477,252.284V101.014c0-8.968-6.716-16.238-15-16.238H36.113c-8.284,0-15,7.271-15,16.238v151.271
	H1254.477z"/>
<text transform="matrix(1 0 0 1 241.2241 179.1621)" fill="#F4F4F4" font-family="'CTCuHeiSJ'" font-size="10.2052">RUN</text>
<text transform="matrix(1 0 0 1 241.2241 193.1904)" fill="#F4F4F4" font-family="'CTCuHeiSJ'" font-size="10.2052">MS</text>
<text transform="matrix(1 0 0 1 241.2241 209.7563)" fill="#F4F4F4" font-family="'CTCuHeiSJ'" font-size="10.2052">MGMT</text>
<text transform="matrix(1 0 0 1 241.2241 225.4102)" fill="#F4F4F4" font-family="'CTCuHeiSJ'" font-size="10.2052">LOG</text>
<circle fill="#B4D89E" stroke="#151515" stroke-miterlimit="10" cx="230.66" cy="174.735" r="4.714"/>
<circle fill="#DCD546" stroke="#151515" stroke-miterlimit="10" cx="230.66" cy="190.389" r="4.714"/>
<circle fill="#DCD546" stroke="#151515" stroke-miterlimit="10" cx="230.66" cy="206.042" r="4.714"/>
<circle fill="#DCD546" stroke="#151515" stroke-miterlimit="10" cx="230.66" cy="221.695" r="4.714"/>
<rect x="159.865" y="187.185" fill="#828282" width="49.435" height="36.428"/>
<rect x="72.869" y="187.185" fill="#828282" width="49.435" height="36.428"/>
<text transform="matrix(1 0 0 1 423.2549 135.8247)" fill="#EDEDED" font-family="'CTCuHeiSJ'" font-size="8">ETH3</text>
<text transform="matrix(1 0 0 1 741.9219 135.8247)" fill="#EDEDED" font-family="'CTCuHeiSJ'" font-size="8">ETH2</text>
<text transform="matrix(1 0 0 1 1060.5889 135.8247)" fill="#EDEDED" font-family="'CTCuHeiSJ'" font-size="8">ETH</text>
<text transform="matrix(1 0 0 1 77.2998 236.1592)" fill="#EDEDED" font-family="'CTCuHeiSJ'" font-size="8">CONSOLE</text>
<text transform="matrix(1 0 0 1 126.3052 236.1592)" fill="#EDEDED" font-family="'CTCuHeiSJ'" font-size="8">seckey</text>
<text transform="matrix(1 0 0 1 159.3066 236.1592)" fill="#EDEDED" font-family="'CTCuHeiSJ'" font-size="8">ACT</text>
<text transform="matrix(1 0 0 1 192.917 236.1592)" fill="#EDEDED" font-family="'CTCuHeiSJ'" font-size="8">LNK</text>
<text transform="matrix(1 0 0 1 159.3066 150.1592)" fill="#EDEDED" font-family="'CTCuHeiSJ'" font-size="8">ACT</text>
<linearGradient id="SVGID_3_" gradientUnits="userSpaceOnUse" x1="1075.0771" y1="252.2842" x2="1075.0771" y2="148.1382">
	<stop  offset="0" style="stop-color:#000000"/>
	<stop  offset="0.3495" style="stop-color:#3E3A39"/>
	<stop  offset="0.9462" style="stop-color:#2E2B2A"/>
	<stop  offset="0.9516" style="stop-color:#3E3A39"/>
	<stop  offset="1" style="stop-color:#595757"/>
</linearGradient>
<path fill="url(#SVGID_3_)" d="M1225.242,252.284v-99.176c0-2.745-2.175-4.971-4.857-4.971H929.77c-2.683,0-4.857,2.226-4.857,4.971
	v99.176H1225.242z"/>
<text transform="matrix(1 0 0 1 192.917 150.1592)" fill="#EDEDED" font-family="'CTCuHeiSJ'" font-size="8">LNK</text>
<text transform="matrix(1 0 0 1 178.3071 242.1636)" fill="#EDEDED" font-family="'CTCuHeiSJ'" font-size="8">HA</text>
<text transform="matrix(1 0 0 1 172.3032 140.6606)" fill="#EDEDED" font-family="'CTCuHeiSJ'" font-size="8">MGMT</text>
<rect x="159.865" y="153.963" fill="#828282" width="49.435" height="36.427"/>
<rect x="1127.525" y="190.188" fill="#828282" width="49.435" height="36.428"/>
<rect x="1127.525" y="156.966" fill="#828282" width="49.435" height="36.427"/>
<text transform="matrix(1 0 0 1 1047.208 158.1592)" fill="#EDEDED" font-family="'CTCuHeiSJ'" font-size="8">2</text>
<g>
	<linearGradient id="SVGID_4_" gradientUnits="userSpaceOnUse" x1="1051.2441" y1="234.8975" x2="1051.2441" y2="200.1729">
		<stop  offset="0" style="stop-color:#000000"/>
		<stop  offset="0.1075" style="stop-color:#3E3A39"/>
		<stop  offset="0.8172" style="stop-color:#595757"/>
		<stop  offset="0.9301" style="stop-color:#595757"/>
		<stop  offset="1" style="stop-color:#898989"/>
	</linearGradient>
	<rect x="1030.119" y="200.173" fill="url(#SVGID_4_)" width="42.25" height="34.725"/>
	<rect x="1040.204" y="209.676" fill="#343535" width="22" height="13.899"/>
</g>
<g>
	<linearGradient id="SVGID_5_" gradientUnits="userSpaceOnUse" x1="1051.2441" y1="199.7578" x2="1051.2441" y2="165.0332">
		<stop  offset="0" style="stop-color:#000000"/>
		<stop  offset="0.1075" style="stop-color:#3E3A39"/>
		<stop  offset="0.8172" style="stop-color:#595757"/>
		<stop  offset="0.9301" style="stop-color:#595757"/>
		<stop  offset="1" style="stop-color:#898989"/>
	</linearGradient>
	<rect x="1030.119" y="165.033" fill="url(#SVGID_5_)" width="42.25" height="34.725"/>
	<rect x="1040.204" y="174.536" fill="#343535" width="22" height="13.899"/>
</g>
<path fill="#1B1B1B" d="M190.585,29.797c0,2.542-2.238,4.604-5,4.604l0,0c-2.762,0-5-2.062-5-4.604V8.837
	c0-2.542,2.238-4.604,5-4.604l0,0c2.762,0,5,2.062,5,4.604V29.797z"/>
<path fill="#1B1B1B" d="M208.251,29.797c0,2.542-2.238,4.604-5,4.604l0,0c-2.762,0-5-2.062-5-4.604V8.837
	c0-2.542,2.238-4.604,5-4.604l0,0c2.762,0,5,2.062,5,4.604V29.797z"/>
<path fill="#1B1B1B" d="M225.918,29.797c0,2.542-2.238,4.604-5,4.604l0,0c-2.762,0-5-2.062-5-4.604V8.837
	c0-2.542,2.238-4.604,5-4.604l0,0c2.762,0,5,2.062,5,4.604V29.797z"/>
<path fill="#1B1B1B" d="M243.584,29.797c0,2.542-2.238,4.604-5,4.604l0,0c-2.762,0-5-2.062-5-4.604V8.837
	c0-2.542,2.238-4.604,5-4.604l0,0c2.762,0,5,2.062,5,4.604V29.797z"/>
<path fill="#1B1B1B" d="M261.251,29.797c0,2.542-2.238,4.604-5,4.604l0,0c-2.762,0-5-2.062-5-4.604V8.837
	c0-2.542,2.238-4.604,5-4.604l0,0c2.762,0,5,2.062,5,4.604V29.797z"/>
<path fill="#1B1B1B" d="M278.917,29.797c0,2.542-2.238,4.604-5,4.604l0,0c-2.762,0-5-2.062-5-4.604V8.837
	c0-2.542,2.238-4.604,5-4.604l0,0c2.762,0,5,2.062,5,4.604V29.797z"/>
<path fill="#1B1B1B" d="M296.584,29.797c0,2.542-2.238,4.604-5,4.604l0,0c-2.762,0-5-2.062-5-4.604V8.837
	c0-2.542,2.238-4.604,5-4.604l0,0c2.762,0,5,2.062,5,4.604V29.797z"/>
<path fill="#1B1B1B" d="M314.25,29.797c0,2.542-2.238,4.604-5,4.604l0,0c-2.762,0-5-2.062-5-4.604V8.837
	c0-2.542,2.238-4.604,5-4.604l0,0c2.762,0,5,2.062,5,4.604V29.797z"/>
<path fill="#1B1B1B" d="M331.917,29.797c0,2.542-2.238,4.604-5,4.604l0,0c-2.762,0-5-2.062-5-4.604V8.837
	c0-2.542,2.238-4.604,5-4.604l0,0c2.762,0,5,2.062,5,4.604V29.797z"/>
<path fill="#1B1B1B" d="M349.583,29.797c0,2.542-2.238,4.604-5,4.604l0,0c-2.762,0-5-2.062-5-4.604V8.837
	c0-2.542,2.238-4.604,5-4.604l0,0c2.762,0,5,2.062,5,4.604V29.797z"/>
<path fill="#1B1B1B" d="M367.25,29.797c0,2.542-2.238,4.604-5,4.604l0,0c-2.762,0-5-2.062-5-4.604V8.837
	c0-2.542,2.238-4.604,5-4.604l0,0c2.762,0,5,2.062,5,4.604V29.797z"/>
<path fill="#1B1B1B" d="M384.917,29.797c0,2.542-2.238,4.604-5,4.604l0,0c-2.762,0-5-2.062-5-4.604V8.837
	c0-2.542,2.238-4.604,5-4.604l0,0c2.762,0,5,2.062,5,4.604V29.797z"/>
<path fill="#1B1B1B" d="M402.583,29.797c0,2.542-2.238,4.604-5,4.604l0,0c-2.762,0-5-2.062-5-4.604V8.837
	c0-2.542,2.238-4.604,5-4.604l0,0c2.762,0,5,2.062,5,4.604V29.797z"/>
<path fill="#1B1B1B" d="M420.25,29.797c0,2.542-2.238,4.604-5,4.604l0,0c-2.762,0-5-2.062-5-4.604V8.837
	c0-2.542,2.238-4.604,5-4.604l0,0c2.762,0,5,2.062,5,4.604V29.797z"/>
<path fill="#1B1B1B" d="M437.916,29.797c0,2.542-2.238,4.604-5,4.604l0,0c-2.762,0-5-2.062-5-4.604V8.837
	c0-2.542,2.238-4.604,5-4.604l0,0c2.762,0,5,2.062,5,4.604V29.797z"/>
<path fill="#1B1B1B" d="M455.583,29.797c0,2.542-2.238,4.604-5,4.604l0,0c-2.762,0-5-2.062-5-4.604V8.837
	c0-2.542,2.238-4.604,5-4.604l0,0c2.762,0,5,2.062,5,4.604V29.797z"/>
<path fill="#1B1B1B" d="M473.249,29.797c0,2.542-2.238,4.604-5,4.604l0,0c-2.762,0-5-2.062-5-4.604V8.837
	c0-2.542,2.238-4.604,5-4.604l0,0c2.762,0,5,2.062,5,4.604V29.797z"/>
<path fill="#1B1B1B" d="M490.915,29.797c0,2.542-2.238,4.604-5,4.604l0,0c-2.762,0-5-2.062-5-4.604V8.837
	c0-2.542,2.238-4.604,5-4.604l0,0c2.762,0,5,2.062,5,4.604V29.797z"/>
<path fill="#1B1B1B" d="M508.582,29.797c0,2.542-2.238,4.604-5,4.604l0,0c-2.762,0-5-2.062-5-4.604V8.837
	c0-2.542,2.238-4.604,5-4.604l0,0c2.762,0,5,2.062,5,4.604V29.797z"/>
<path fill="#1B1B1B" d="M526.249,29.797c0,2.542-2.238,4.604-5,4.604l0,0c-2.762,0-5-2.062-5-4.604V8.837
	c0-2.542,2.238-4.604,5-4.604l0,0c2.762,0,5,2.062,5,4.604V29.797z"/>
<path fill="#1B1B1B" d="M543.915,29.797c0,2.542-2.238,4.604-5,4.604l0,0c-2.762,0-5-2.062-5-4.604V8.837
	c0-2.542,2.238-4.604,5-4.604l0,0c2.762,0,5,2.062,5,4.604V29.797z"/>
<path fill="#1B1B1B" d="M561.581,29.797c0,2.542-2.238,4.604-5,4.604l0,0c-2.762,0-5-2.062-5-4.604V8.837
	c0-2.542,2.238-4.604,5-4.604l0,0c2.762,0,5,2.062,5,4.604V29.797z"/>
<path fill="#1B1B1B" d="M579.248,29.797c0,2.542-2.238,4.604-5,4.604l0,0c-2.762,0-5-2.062-5-4.604V8.837
	c0-2.542,2.238-4.604,5-4.604l0,0c2.762,0,5,2.062,5,4.604V29.797z"/>
<path fill="#1B1B1B" d="M596.914,29.797c0,2.542-2.238,4.604-5,4.604l0,0c-2.762,0-5-2.062-5-4.604V8.837
	c0-2.542,2.238-4.604,5-4.604l0,0c2.762,0,5,2.062,5,4.604V29.797z"/>
<path fill="#1B1B1B" d="M614.581,29.797c0,2.542-2.238,4.604-5,4.604l0,0c-2.762,0-5-2.062-5-4.604V8.837
	c0-2.542,2.238-4.604,5-4.604l0,0c2.762,0,5,2.062,5,4.604V29.797z"/>
<path fill="#1B1B1B" d="M632.248,29.797c0,2.542-2.238,4.604-5,4.604l0,0c-2.762,0-5-2.062-5-4.604V8.837
	c0-2.542,2.238-4.604,5-4.604l0,0c2.762,0,5,2.062,5,4.604V29.797z"/>
<path fill="#1B1B1B" d="M649.914,29.797c0,2.542-2.238,4.604-5,4.604l0,0c-2.762,0-5-2.062-5-4.604V8.837
	c0-2.542,2.238-4.604,5-4.604l0,0c2.762,0,5,2.062,5,4.604V29.797z"/>
<path fill="#1B1B1B" d="M667.58,29.797c0,2.542-2.238,4.604-5,4.604l0,0c-2.762,0-5-2.062-5-4.604V8.837
	c0-2.542,2.238-4.604,5-4.604l0,0c2.762,0,5,2.062,5,4.604V29.797z"/>
<path fill="#1B1B1B" d="M685.247,29.797c0,2.542-2.238,4.604-5,4.604l0,0c-2.762,0-5-2.062-5-4.604V8.837
	c0-2.542,2.238-4.604,5-4.604l0,0c2.762,0,5,2.062,5,4.604V29.797z"/>
<path fill="#1B1B1B" d="M702.914,29.797c0,2.542-2.238,4.604-5,4.604l0,0c-2.762,0-5-2.062-5-4.604V8.837
	c0-2.542,2.238-4.604,5-4.604l0,0c2.762,0,5,2.062,5,4.604V29.797z"/>
<path fill="#1B1B1B" d="M720.58,29.797c0,2.542-2.238,4.604-5,4.604l0,0c-2.762,0-5-2.062-5-4.604V8.837
	c0-2.542,2.238-4.604,5-4.604l0,0c2.762,0,5,2.062,5,4.604V29.797z"/>
<path fill="#1B1B1B" d="M738.246,29.797c0,2.542-2.238,4.604-5,4.604l0,0c-2.762,0-5-2.062-5-4.604V8.837
	c0-2.542,2.238-4.604,5-4.604l0,0c2.762,0,5,2.062,5,4.604V29.797z"/>
<path fill="#1B1B1B" d="M755.913,29.797c0,2.542-2.238,4.604-5,4.604l0,0c-2.762,0-5-2.062-5-4.604V8.837
	c0-2.542,2.238-4.604,5-4.604l0,0c2.762,0,5,2.062,5,4.604V29.797z"/>
<path fill="#1B1B1B" d="M773.58,29.797c0,2.542-2.238,4.604-5,4.604l0,0c-2.762,0-5-2.062-5-4.604V8.837
	c0-2.542,2.238-4.604,5-4.604l0,0c2.762,0,5,2.062,5,4.604V29.797z"/>
<path fill="#1B1B1B" d="M791.246,29.797c0,2.542-2.238,4.604-5,4.604l0,0c-2.762,0-5-2.062-5-4.604V8.837
	c0-2.542,2.238-4.604,5-4.604l0,0c2.762,0,5,2.062,5,4.604V29.797z"/>
<path fill="#1B1B1B" d="M808.912,29.797c0,2.542-2.238,4.604-5,4.604l0,0c-2.762,0-5-2.062-5-4.604V8.837
	c0-2.542,2.238-4.604,5-4.604l0,0c2.762,0,5,2.062,5,4.604V29.797z"/>
<path fill="#1B1B1B" d="M826.579,29.797c0,2.542-2.238,4.604-5,4.604l0,0c-2.762,0-5-2.062-5-4.604V8.837
	c0-2.542,2.238-4.604,5-4.604l0,0c2.762,0,5,2.062,5,4.604V29.797z"/>
<path fill="#1B1B1B" d="M844.246,29.797c0,2.542-2.238,4.604-5,4.604l0,0c-2.762,0-5-2.062-5-4.604V8.837
	c0-2.542,2.238-4.604,5-4.604l0,0c2.762,0,5,2.062,5,4.604V29.797z"/>
<path fill="#1B1B1B" d="M861.912,29.797c0,2.542-2.238,4.604-5,4.604l0,0c-2.762,0-5-2.062-5-4.604V8.837
	c0-2.542,2.238-4.604,5-4.604l0,0c2.762,0,5,2.062,5,4.604V29.797z"/>
<path fill="#1B1B1B" d="M879.578,29.797c0,2.542-2.238,4.604-5,4.604l0,0c-2.762,0-5-2.062-5-4.604V8.837
	c0-2.542,2.238-4.604,5-4.604l0,0c2.762,0,5,2.062,5,4.604V29.797z"/>
<path fill="#1B1B1B" d="M897.245,29.797c0,2.542-2.238,4.604-5,4.604l0,0c-2.762,0-5-2.062-5-4.604V8.837
	c0-2.542,2.238-4.604,5-4.604l0,0c2.762,0,5,2.062,5,4.604V29.797z"/>
<path fill="#1B1B1B" d="M914.912,29.797c0,2.542-2.238,4.604-5,4.604l0,0c-2.762,0-5-2.062-5-4.604V8.837
	c0-2.542,2.238-4.604,5-4.604l0,0c2.762,0,5,2.062,5,4.604V29.797z"/>
<path fill="#1B1B1B" d="M932.578,29.797c0,2.542-2.238,4.604-5,4.604l0,0c-2.762,0-5-2.062-5-4.604V8.837
	c0-2.542,2.238-4.604,5-4.604l0,0c2.762,0,5,2.062,5,4.604V29.797z"/>
<path fill="#1B1B1B" d="M950.244,29.797c0,2.542-2.238,4.604-5,4.604l0,0c-2.762,0-5-2.062-5-4.604V8.837
	c0-2.542,2.238-4.604,5-4.604l0,0c2.762,0,5,2.062,5,4.604V29.797z"/>
<path fill="#1B1B1B" d="M967.911,29.797c0,2.542-2.238,4.604-5,4.604l0,0c-2.762,0-5-2.062-5-4.604V8.837
	c0-2.542,2.238-4.604,5-4.604l0,0c2.762,0,5,2.062,5,4.604V29.797z"/>
<path fill="#1B1B1B" d="M985.578,29.797c0,2.542-2.238,4.604-5,4.604l0,0c-2.762,0-5-2.062-5-4.604V8.837
	c0-2.542,2.238-4.604,5-4.604l0,0c2.762,0,5,2.062,5,4.604V29.797z"/>
<path fill="#1B1B1B" d="M1003.244,29.797c0,2.542-2.238,4.604-5,4.604l0,0c-2.762,0-5-2.062-5-4.604V8.837
	c0-2.542,2.238-4.604,5-4.604l0,0c2.762,0,5,2.062,5,4.604V29.797z"/>
<path fill="#1B1B1B" d="M1020.91,29.797c0,2.542-2.238,4.604-5,4.604l0,0c-2.762,0-5-2.062-5-4.604V8.837
	c0-2.542,2.238-4.604,5-4.604l0,0c2.762,0,5,2.062,5,4.604V29.797z"/>
<path fill="#1B1B1B" d="M1038.577,29.797c0,2.542-2.238,4.604-5,4.604l0,0c-2.762,0-5-2.062-5-4.604V8.837
	c0-2.542,2.238-4.604,5-4.604l0,0c2.762,0,5,2.062,5,4.604V29.797z"/>
<path fill="#1B1B1B" d="M1056.244,29.797c0,2.542-2.238,4.604-5,4.604l0,0c-2.762,0-5-2.062-5-4.604V8.837
	c0-2.542,2.238-4.604,5-4.604l0,0c2.762,0,5,2.062,5,4.604V29.797z"/>
<path fill="#1B1B1B" d="M1073.91,29.797c0,2.542-2.238,4.604-5,4.604l0,0c-2.762,0-5-2.062-5-4.604V8.837
	c0-2.542,2.238-4.604,5-4.604l0,0c2.762,0,5,2.062,5,4.604V29.797z"/>
<path fill="#1B1B1B" d="M1091.576,29.797c0,2.542-2.238,4.604-5,4.604l0,0c-2.762,0-5-2.062-5-4.604V8.837
	c0-2.542,2.238-4.604,5-4.604l0,0c2.762,0,5,2.062,5,4.604V29.797z"/>
<path fill="#1B1B1B" d="M1109.243,29.797c0,2.542-2.238,4.604-5,4.604l0,0c-2.762,0-5-2.062-5-4.604V8.837
	c0-2.542,2.238-4.604,5-4.604l0,0c2.762,0,5,2.062,5,4.604V29.797z"/>
<path fill="#1B1B1B" d="M1126.91,29.797c0,2.542-2.238,4.604-5,4.604l0,0c-2.762,0-5-2.062-5-4.604V8.837
	c0-2.542,2.238-4.604,5-4.604l0,0c2.762,0,5,2.062,5,4.604V29.797z"/>
<path fill="#1B1B1B" d="M1144.576,29.797c0,2.542-2.238,4.604-5,4.604l0,0c-2.762,0-5-2.062-5-4.604V8.837
	c0-2.542,2.238-4.604,5-4.604l0,0c2.762,0,5,2.062,5,4.604V29.797z"/>
<path fill="#1B1B1B" d="M1162.242,29.797c0,2.542-2.238,4.604-5,4.604l0,0c-2.762,0-5-2.062-5-4.604V8.837
	c0-2.542,2.238-4.604,5-4.604l0,0c2.762,0,5,2.062,5,4.604V29.797z"/>
<path fill="#1B1B1B" d="M1179.909,29.797c0,2.542-2.238,4.604-5,4.604l0,0c-2.762,0-5-2.062-5-4.604V8.837
	c0-2.542,2.238-4.604,5-4.604l0,0c2.762,0,5,2.062,5,4.604V29.797z"/>
<path fill="#1B1B1B" d="M1197.576,29.797c0,2.542-2.238,4.604-5,4.604l0,0c-2.762,0-5-2.062-5-4.604V8.837
	c0-2.542,2.238-4.604,5-4.604l0,0c2.762,0,5,2.062,5,4.604V29.797z"/>
<g>
	<path fill="#101010" d="M91.146,24.368H0v44.505h91.146c11.703,0,21.189-9.962,21.189-22.252
		C112.335,34.333,102.849,24.368,91.146,24.368z"/>
	<linearGradient id="SVGID_6_" gradientUnits="userSpaceOnUse" x1="55.6665" y1="67.6123" x2="55.6665" y2="25.6123">
		<stop  offset="0" style="stop-color:#40220F"/>
		<stop  offset="0.0968" style="stop-color:#A92B2B"/>
		<stop  offset="0.8548" style="stop-color:#D3464C"/>
		<stop  offset="0.9462" style="stop-color:#EC6B77"/>
		<stop  offset="1" style="stop-color:#A92B2B"/>
	</linearGradient>
	<path fill="url(#SVGID_6_)" d="M90.333,25.612H0v42h90.333c11.598,0,21-9.402,21-21S101.932,25.612,90.333,25.612z"/>
	<g>
		<path fill="#EFEFEF" d="M14.345,36.676c0,0-2.726,2.578,0,4.826c0,0,1.4,0.811,4.2-0.184c0,0,5.6-2.359,8.363-3.059
			c0,0,3.794-1.143,5.563-1.068c0,0,0.847,0.074,0,0.7c0,0-3.611,3.39-4.531,4.311c0,0-2.137,1.988-1.511,5.046
			c0,0,0.847,2.248,1.621,3.464c0,0,0.589,0.958-0.626,1.916c0,0-3.352,2.763-3.463,3.904c0,0-0.294,1.364-0.073,1.917
			c0,0,0.663,0.221,2.616-1.29c0,0,1.363-0.958,3.721-0.774c0,0,2.505-0.073,3.574-1.584c0,0,2.137-1.916,0.884-4.162
			c0,0-2.727-2.801-2.837-3.279c0,0-1.399-1.4-0.479-3.058c0,0,1.989-2.542,3.131-2.983c0,0,2.1-1.659,2.21-2.469
			c0,0,0.074-0.994-0.7-2.174c0,0,1.769-1.253,3.832-1.475c0,0,1.364-0.367,1.547-1.141c0,0,0.11-1.032-1.363-1.068
			c0,0-2.173-0.517-7.884,0c0,0-6.042,0.736-7.957,1.178c0,0-4.09,0.774-5.526,1.105C18.655,35.275,15.597,35.829,14.345,36.676z"/>
		
			<text transform="matrix(1.1667 0 0 1 46.7505 45.6118)" fill="#EFEFEF" font-family="'HeitiEG-Ultra-GB'" font-size="12" letter-spacing="1.714">天融信</text>
		<text transform="matrix(1.4267 0 0 1 47.751 55.7085)" fill="#EFEFEF" font-family="'HeitiEG-Ultra-GB'" font-size="9.813">TOPSEC</text>
	</g>
</g>
<path fill="none" stroke="#222222" stroke-width="4" stroke-miterlimit="10" d="M1234.252,17.498
	c0,8.431-11.145,15.265-24.892,15.265H169.144c-13.747,0-24.892-6.834-24.892-15.265l0,0c0-8.431,11.145-15.265,24.892-15.265
	H1209.36C1223.107,2.233,1234.252,9.067,1234.252,17.498L1234.252,17.498z"/>
<linearGradient id="SVGID_7_" gradientUnits="userSpaceOnUse" x1="193.918" y1="68.873" x2="193.918" y2="49.1563">
	<stop  offset="0" style="stop-color:#000000"/>
	<stop  offset="0.0376" style="stop-color:#898989"/>
	<stop  offset="0.0753" style="stop-color:#000000"/>
	<stop  offset="0.9301" style="stop-color:#000000"/>
	<stop  offset="0.9624" style="stop-color:#898989"/>
	<stop  offset="1" style="stop-color:#000000"/>
</linearGradient>
<path fill="url(#SVGID_7_)" d="M243.584,59.015c0,5.444-4.414,9.858-9.858,9.858H154.11c-5.445,0-9.858-4.414-9.858-9.858l0,0
	c0-5.444,4.414-9.858,9.858-9.858h79.616C239.171,49.156,243.584,53.57,243.584,59.015L243.584,59.015z"/>
<text transform="matrix(1 0 0 1 167.7656 61.1665)" fill="#EDEDED" font-family="'CTCuHeiSJ'" font-size="10" letter-spacing="1">TopFilter</text>
<linearGradient id="SVGID_8_" gradientUnits="userSpaceOnUse" x1="436.7495" y1="252.2842" x2="436.7495" y2="148.1382">
	<stop  offset="0" style="stop-color:#000000"/>
	<stop  offset="0.3495" style="stop-color:#3E3A39"/>
	<stop  offset="0.9462" style="stop-color:#2E2B2A"/>
	<stop  offset="0.9516" style="stop-color:#3E3A39"/>
	<stop  offset="1" style="stop-color:#595757"/>
</linearGradient>
<path fill="url(#SVGID_8_)" d="M586.914,252.284v-99.176c0-2.745-2.175-4.971-4.857-4.971H291.442c-2.683,0-4.858,2.226-4.858,4.971
	v99.176H586.914z"/>
<linearGradient id="SVGID_9_" gradientUnits="userSpaceOnUse" x1="755.9131" y1="252.2842" x2="755.9131" y2="148.1382">
	<stop  offset="0" style="stop-color:#000000"/>
	<stop  offset="0.3495" style="stop-color:#3E3A39"/>
	<stop  offset="0.9462" style="stop-color:#2E2B2A"/>
	<stop  offset="0.9516" style="stop-color:#3E3A39"/>
	<stop  offset="1" style="stop-color:#595757"/>
</linearGradient>
<path fill="url(#SVGID_9_)" d="M906.078,252.284v-99.176c0-2.745-2.175-4.971-4.857-4.971H610.605c-2.683,0-4.857,2.226-4.857,4.971
	v99.176H906.078z"/>
<text transform="matrix(1 0 0 1 979.5527 209.7119)" fill="#F4F4F4" font-family="'CTCuHeiSJ'" font-size="10.2052">ACTUK</text>
<text transform="matrix(1 0 0 1 979.5527 223.7402)" fill="#F4F4F4" font-family="'CTCuHeiSJ'" font-size="10.2052">ACTUK</text>
<circle fill="#B4D89E" stroke="#151515" stroke-miterlimit="10" cx="968.988" cy="205.286" r="4.715"/>
<circle fill="#B4D89E" stroke="#151515" stroke-miterlimit="10" cx="968.988" cy="220.939" r="4.715"/>
<text transform="matrix(1 0 0 1 1195.2129 211.7329)" fill="#F4F4F4" font-family="'CTCuHeiSJ'" font-size="10.2052">D18p</text>
<circle fill="#B4D89E" stroke="#151515" stroke-miterlimit="10" cx="1187.649" cy="208.928" r="4.714"/>
<path fill="#1B1B1B" d="M360.87,58.461c0,3.303-3.109,5.98-6.945,5.98h-56.086c-3.836,0-6.945-2.678-6.945-5.98l0,0
	c0-3.303,3.109-5.98,6.945-5.98h56.086C357.761,52.48,360.87,55.158,360.87,58.461L360.87,58.461z"/>
<path fill="#1B1B1B" d="M451.521,58.461c0,3.303-3.109,5.98-6.945,5.98H388.49c-3.836,0-6.945-2.678-6.945-5.98l0,0
	c0-3.303,3.109-5.98,6.945-5.98h56.086C448.412,52.48,451.521,55.158,451.521,58.461L451.521,58.461z"/>
<path fill="#1B1B1B" d="M542.173,58.461c0,3.303-3.109,5.98-6.945,5.98h-56.086c-3.836,0-6.945-2.678-6.945-5.98l0,0
	c0-3.303,3.109-5.98,6.945-5.98h56.086C539.063,52.48,542.173,55.158,542.173,58.461L542.173,58.461z"/>
<path fill="#1B1B1B" d="M632.824,58.461c0,3.303-3.109,5.98-6.945,5.98h-56.086c-3.836,0-6.944-2.678-6.944-5.98l0,0
	c0-3.303,3.108-5.98,6.944-5.98h56.086C629.715,52.48,632.824,55.158,632.824,58.461L632.824,58.461z"/>
<path fill="#1B1B1B" d="M723.476,58.461c0,3.303-3.109,5.98-6.944,5.98h-56.087c-3.836,0-6.944-2.678-6.944-5.98l0,0
	c0-3.303,3.108-5.98,6.944-5.98h56.087C720.366,52.48,723.476,55.158,723.476,58.461L723.476,58.461z"/>
<path fill="#1B1B1B" d="M814.127,58.461c0,3.303-3.109,5.98-6.945,5.98h-56.086c-3.836,0-6.945-2.678-6.945-5.98l0,0
	c0-3.303,3.109-5.98,6.945-5.98h56.086C811.018,52.48,814.127,55.158,814.127,58.461L814.127,58.461z"/>
<path fill="#1B1B1B" d="M904.778,58.461c0,3.303-3.109,5.98-6.944,5.98h-56.087c-3.836,0-6.944-2.678-6.944-5.98l0,0
	c0-3.303,3.108-5.98,6.944-5.98h56.087C901.669,52.48,904.778,55.158,904.778,58.461L904.778,58.461z"/>
<path fill="#1B1B1B" d="M995.43,58.461c0,3.303-3.109,5.98-6.945,5.98h-56.086c-3.836,0-6.945-2.678-6.945-5.98l0,0
	c0-3.303,3.109-5.98,6.945-5.98h56.086C992.32,52.48,995.43,55.158,995.43,58.461L995.43,58.461z"/>
<path fill="#1B1B1B" d="M1086.081,58.461c0,3.303-3.109,5.98-6.944,5.98h-56.087c-3.836,0-6.944-2.678-6.944-5.98l0,0
	c0-3.303,3.108-5.98,6.944-5.98h56.087C1082.972,52.48,1086.081,55.158,1086.081,58.461L1086.081,58.461z"/>
<path fill="#1B1B1B" d="M1176.732,58.461c0,3.303-3.109,5.98-6.945,5.98h-56.086c-3.836,0-6.945-2.678-6.945-5.98l0,0
	c0-3.303,3.109-5.98,6.945-5.98h56.086C1173.623,52.48,1176.732,55.158,1176.732,58.461L1176.732,58.461z"/>
</svg>
