<?xml version="1.0" encoding="utf-8"?>
<!-- Generator: Adobe Illustrator 16.0.0, SVG Export Plug-In . SVG Version: 6.00 Build 0)  -->
<!DOCTYPE svg PUBLIC "-//W3C//DTD SVG 1.1//EN" "http://www.w3.org/Graphics/SVG/1.1/DTD/svg11.dtd">
<svg version="1.1" id="图层_1" xmlns="http://www.w3.org/2000/svg" xmlns:xlink="http://www.w3.org/1999/xlink" x="0px" y="0px"
	 width="1275.591px" height="126.143px" viewBox="0 0 1275.591 126.143" enable-background="new 0 0 1275.591 126.143"
	 xml:space="preserve">
<linearGradient id="SVGID_1_" gradientUnits="userSpaceOnUse" x1="638.6406" y1="126.1426" x2="638.6406" y2="0">
	<stop  offset="0" style="stop-color:#000000"/>
	<stop  offset="0.7097" style="stop-color:#3E3A39"/>
	<stop  offset="0.8387" style="stop-color:#595757"/>
	<stop  offset="0.9194" style="stop-color:#B5B5B6"/>
	<stop  offset="1" style="stop-color:#3E3A39"/>
</linearGradient>
<rect x="0.846" fill="url(#SVGID_1_)" width="1275.59" height="126.143"/>
<path fill="#0B0D0A" d="M1255.322,126.143V52.639c0-4.357-6.717-7.891-15-7.891H36.959c-8.284,0-15,3.533-15,7.891v73.504H1255.322z
	"/>
<text transform="matrix(1 0 0 1 235.1592 76.3628)" fill="#F4F4F4" font-family="'CTCuHeiSJ'" font-size="7.2388">RUN</text>
<text transform="matrix(1 0 0 1 235.1592 86.313)" fill="#F4F4F4" font-family="'CTCuHeiSJ'" font-size="7.2388">MS</text>
<text transform="matrix(1 0 0 1 235.1592 98.0635)" fill="#F4F4F4" font-family="'CTCuHeiSJ'" font-size="7.2388">MGMT</text>
<text transform="matrix(1 0 0 1 235.1592 109.1675)" fill="#F4F4F4" font-family="'CTCuHeiSJ'" font-size="7.2388">LOG</text>
<circle fill="#B4D89E" stroke="#151515" stroke-miterlimit="10" cx="227.66" cy="73.222" r="3.344"/>
<circle fill="#DCD546" stroke="#151515" stroke-miterlimit="10" cx="227.66" cy="84.325" r="3.344"/>
<circle fill="#DCD546" stroke="#151515" stroke-miterlimit="10" cx="227.66" cy="95.428" r="3.344"/>
<circle fill="#DCD546" stroke="#151515" stroke-miterlimit="10" cx="227.66" cy="106.531" r="3.344"/>
<rect x="177.443" y="82.053" fill="#828282" width="35.065" height="25.839"/>
<rect x="115.735" y="82.053" fill="#828282" width="35.065" height="25.839"/>
<text transform="matrix(1 0 0 1 424.1001 39.8965)" fill="#EDEDED" font-family="'CTCuHeiSJ'" font-size="8">ETH3</text>
<text transform="matrix(1 0 0 1 742.7676 39.8965)" fill="#EDEDED" font-family="'CTCuHeiSJ'" font-size="8">ETH2</text>
<text transform="matrix(1 0 0 1 1061.4336 39.8965)" fill="#EDEDED" font-family="'CTCuHeiSJ'" font-size="8">ETH</text>
<text transform="matrix(1 0 0 1 118.8838 116.792)" fill="#EDEDED" font-family="'CTCuHeiSJ'" font-size="5.6746">CONSOLE</text>
<text transform="matrix(1 0 0 1 153.6445 116.792)" fill="#EDEDED" font-family="'CTCuHeiSJ'" font-size="5.6746">seckey</text>
<text transform="matrix(1 0 0 1 177.0527 116.792)" fill="#EDEDED" font-family="'CTCuHeiSJ'" font-size="5.6746">ACT</text>
<text transform="matrix(1 0 0 1 200.894 116.792)" fill="#EDEDED" font-family="'CTCuHeiSJ'" font-size="5.6746">LNK</text>
<text transform="matrix(1 0 0 1 177.0527 55.79)" fill="#EDEDED" font-family="'CTCuHeiSJ'" font-size="5.6746">ACT</text>
<text transform="matrix(1 0 0 1 200.894 55.79)" fill="#EDEDED" font-family="'CTCuHeiSJ'" font-size="5.6746">LNK</text>
<text transform="matrix(1 0 0 1 190.5308 121.0508)" fill="#EDEDED" font-family="'CTCuHeiSJ'" font-size="5.6746">HA</text>
<text transform="matrix(1 0 0 1 186.272 49.0527)" fill="#EDEDED" font-family="'CTCuHeiSJ'" font-size="5.6746">MGMT</text>
<rect x="177.443" y="58.487" fill="#828282" width="35.065" height="25.839"/>
<path fill="#1B1B1B" d="M191.431,20.361c0,1.826-2.238,3.307-5,3.307l0,0c-2.762,0-5-1.48-5-3.307V5.307
	c0-1.826,2.238-3.307,5-3.307l0,0c2.762,0,5,1.48,5,3.307V20.361z"/>
<path fill="#1B1B1B" d="M209.097,20.361c0,1.826-2.238,3.307-5,3.307l0,0c-2.762,0-5-1.48-5-3.307V5.307
	c0-1.826,2.238-3.307,5-3.307l0,0c2.762,0,5,1.48,5,3.307V20.361z"/>
<path fill="#1B1B1B" d="M226.764,20.361c0,1.826-2.238,3.307-5,3.307l0,0c-2.762,0-5-1.48-5-3.307V5.307
	c0-1.826,2.238-3.307,5-3.307l0,0c2.762,0,5,1.48,5,3.307V20.361z"/>
<path fill="#1B1B1B" d="M244.43,20.361c0,1.826-2.238,3.307-5,3.307l0,0c-2.762,0-5-1.48-5-3.307V5.307c0-1.826,2.238-3.307,5-3.307
	l0,0c2.762,0,5,1.48,5,3.307V20.361z"/>
<path fill="#1B1B1B" d="M262.097,20.361c0,1.826-2.238,3.307-5,3.307l0,0c-2.762,0-5-1.48-5-3.307V5.307
	c0-1.826,2.238-3.307,5-3.307l0,0c2.762,0,5,1.48,5,3.307V20.361z"/>
<path fill="#1B1B1B" d="M279.763,20.361c0,1.826-2.238,3.307-5,3.307l0,0c-2.762,0-5-1.48-5-3.307V5.307
	c0-1.826,2.238-3.307,5-3.307l0,0c2.762,0,5,1.48,5,3.307V20.361z"/>
<path fill="#1B1B1B" d="M297.43,20.361c0,1.826-2.238,3.307-5,3.307l0,0c-2.762,0-5-1.48-5-3.307V5.307c0-1.826,2.238-3.307,5-3.307
	l0,0c2.762,0,5,1.48,5,3.307V20.361z"/>
<path fill="#1B1B1B" d="M315.096,20.361c0,1.826-2.238,3.307-5,3.307l0,0c-2.762,0-5-1.48-5-3.307V5.307
	c0-1.826,2.238-3.307,5-3.307l0,0c2.762,0,5,1.48,5,3.307V20.361z"/>
<path fill="#1B1B1B" d="M332.763,20.361c0,1.826-2.238,3.307-5,3.307l0,0c-2.762,0-5-1.48-5-3.307V5.307
	c0-1.826,2.238-3.307,5-3.307l0,0c2.762,0,5,1.48,5,3.307V20.361z"/>
<path fill="#1B1B1B" d="M350.429,20.361c0,1.826-2.238,3.307-5,3.307l0,0c-2.762,0-5-1.48-5-3.307V5.307
	c0-1.826,2.238-3.307,5-3.307l0,0c2.762,0,5,1.48,5,3.307V20.361z"/>
<path fill="#1B1B1B" d="M368.096,20.361c0,1.826-2.238,3.307-5,3.307l0,0c-2.762,0-5-1.48-5-3.307V5.307
	c0-1.826,2.238-3.307,5-3.307l0,0c2.762,0,5,1.48,5,3.307V20.361z"/>
<path fill="#1B1B1B" d="M385.762,20.361c0,1.826-2.238,3.307-5,3.307l0,0c-2.762,0-5-1.48-5-3.307V5.307
	c0-1.826,2.238-3.307,5-3.307l0,0c2.762,0,5,1.48,5,3.307V20.361z"/>
<path fill="#1B1B1B" d="M403.429,20.361c0,1.826-2.238,3.307-5,3.307l0,0c-2.762,0-5-1.48-5-3.307V5.307
	c0-1.826,2.238-3.307,5-3.307l0,0c2.762,0,5,1.48,5,3.307V20.361z"/>
<path fill="#1B1B1B" d="M421.095,20.361c0,1.826-2.238,3.307-5,3.307l0,0c-2.762,0-5-1.48-5-3.307V5.307
	c0-1.826,2.238-3.307,5-3.307l0,0c2.762,0,5,1.48,5,3.307V20.361z"/>
<path fill="#1B1B1B" d="M438.762,20.361c0,1.826-2.238,3.307-5,3.307l0,0c-2.762,0-5-1.48-5-3.307V5.307
	c0-1.826,2.238-3.307,5-3.307l0,0c2.762,0,5,1.48,5,3.307V20.361z"/>
<path fill="#1B1B1B" d="M456.428,20.361c0,1.826-2.238,3.307-5,3.307l0,0c-2.762,0-5-1.48-5-3.307V5.307
	c0-1.826,2.238-3.307,5-3.307l0,0c2.762,0,5,1.48,5,3.307V20.361z"/>
<path fill="#1B1B1B" d="M474.095,20.361c0,1.826-2.238,3.307-5,3.307l0,0c-2.762,0-5-1.48-5-3.307V5.307
	c0-1.826,2.238-3.307,5-3.307l0,0c2.762,0,5,1.48,5,3.307V20.361z"/>
<path fill="#1B1B1B" d="M491.762,20.361c0,1.826-2.238,3.307-5,3.307l0,0c-2.762,0-5-1.48-5-3.307V5.307
	c0-1.826,2.238-3.307,5-3.307l0,0c2.762,0,5,1.48,5,3.307V20.361z"/>
<path fill="#1B1B1B" d="M509.428,20.361c0,1.826-2.238,3.307-5,3.307l0,0c-2.762,0-5-1.48-5-3.307V5.307
	c0-1.826,2.238-3.307,5-3.307l0,0c2.762,0,5,1.48,5,3.307V20.361z"/>
<path fill="#1B1B1B" d="M527.094,20.361c0,1.826-2.238,3.307-5,3.307l0,0c-2.762,0-5-1.48-5-3.307V5.307
	c0-1.826,2.238-3.307,5-3.307l0,0c2.762,0,5,1.48,5,3.307V20.361z"/>
<path fill="#1B1B1B" d="M544.761,20.361c0,1.826-2.238,3.307-5,3.307l0,0c-2.762,0-5-1.48-5-3.307V5.307
	c0-1.826,2.238-3.307,5-3.307l0,0c2.762,0,5,1.48,5,3.307V20.361z"/>
<path fill="#1B1B1B" d="M562.428,20.361c0,1.826-2.238,3.307-5,3.307l0,0c-2.762,0-5-1.48-5-3.307V5.307
	c0-1.826,2.238-3.307,5-3.307l0,0c2.762,0,5,1.48,5,3.307V20.361z"/>
<path fill="#1B1B1B" d="M580.094,20.361c0,1.826-2.238,3.307-5,3.307l0,0c-2.762,0-5-1.48-5-3.307V5.307
	c0-1.826,2.238-3.307,5-3.307l0,0c2.762,0,5,1.48,5,3.307V20.361z"/>
<path fill="#1B1B1B" d="M597.76,20.361c0,1.826-2.238,3.307-5,3.307l0,0c-2.762,0-5-1.48-5-3.307V5.307c0-1.826,2.238-3.307,5-3.307
	l0,0c2.762,0,5,1.48,5,3.307V20.361z"/>
<path fill="#1B1B1B" d="M615.427,20.361c0,1.826-2.238,3.307-5,3.307l0,0c-2.762,0-5-1.48-5-3.307V5.307
	c0-1.826,2.238-3.307,5-3.307l0,0c2.762,0,5,1.48,5,3.307V20.361z"/>
<path fill="#1B1B1B" d="M633.094,20.361c0,1.826-2.238,3.307-5,3.307l0,0c-2.762,0-5-1.48-5-3.307V5.307
	c0-1.826,2.238-3.307,5-3.307l0,0c2.762,0,5,1.48,5,3.307V20.361z"/>
<path fill="#1B1B1B" d="M650.76,20.361c0,1.826-2.238,3.307-5,3.307l0,0c-2.762,0-5-1.48-5-3.307V5.307c0-1.826,2.238-3.307,5-3.307
	l0,0c2.762,0,5,1.48,5,3.307V20.361z"/>
<path fill="#1B1B1B" d="M668.426,20.361c0,1.826-2.238,3.307-5,3.307l0,0c-2.762,0-5-1.48-5-3.307V5.307
	c0-1.826,2.238-3.307,5-3.307l0,0c2.762,0,5,1.48,5,3.307V20.361z"/>
<path fill="#1B1B1B" d="M686.093,20.361c0,1.826-2.238,3.307-5,3.307l0,0c-2.762,0-5-1.48-5-3.307V5.307
	c0-1.826,2.238-3.307,5-3.307l0,0c2.762,0,5,1.48,5,3.307V20.361z"/>
<path fill="#1B1B1B" d="M703.76,20.361c0,1.826-2.238,3.307-5,3.307l0,0c-2.762,0-5-1.48-5-3.307V5.307c0-1.826,2.238-3.307,5-3.307
	l0,0c2.762,0,5,1.48,5,3.307V20.361z"/>
<path fill="#1B1B1B" d="M721.426,20.361c0,1.826-2.238,3.307-5,3.307l0,0c-2.762,0-5-1.48-5-3.307V5.307
	c0-1.826,2.238-3.307,5-3.307l0,0c2.762,0,5,1.48,5,3.307V20.361z"/>
<path fill="#1B1B1B" d="M739.092,20.361c0,1.826-2.238,3.307-5,3.307l0,0c-2.762,0-5-1.48-5-3.307V5.307
	c0-1.826,2.238-3.307,5-3.307l0,0c2.762,0,5,1.48,5,3.307V20.361z"/>
<path fill="#1B1B1B" d="M756.759,20.361c0,1.826-2.238,3.307-5,3.307l0,0c-2.762,0-5-1.48-5-3.307V5.307
	c0-1.826,2.238-3.307,5-3.307l0,0c2.762,0,5,1.48,5,3.307V20.361z"/>
<path fill="#1B1B1B" d="M774.426,20.361c0,1.826-2.238,3.307-5,3.307l0,0c-2.762,0-5-1.48-5-3.307V5.307
	c0-1.826,2.238-3.307,5-3.307l0,0c2.762,0,5,1.48,5,3.307V20.361z"/>
<path fill="#1B1B1B" d="M792.092,20.361c0,1.826-2.238,3.307-5,3.307l0,0c-2.762,0-5-1.48-5-3.307V5.307
	c0-1.826,2.238-3.307,5-3.307l0,0c2.762,0,5,1.48,5,3.307V20.361z"/>
<path fill="#1B1B1B" d="M809.758,20.361c0,1.826-2.238,3.307-5,3.307l0,0c-2.762,0-5-1.48-5-3.307V5.307
	c0-1.826,2.238-3.307,5-3.307l0,0c2.762,0,5,1.48,5,3.307V20.361z"/>
<path fill="#1B1B1B" d="M827.425,20.361c0,1.826-2.238,3.307-5,3.307l0,0c-2.762,0-5-1.48-5-3.307V5.307
	c0-1.826,2.238-3.307,5-3.307l0,0c2.762,0,5,1.48,5,3.307V20.361z"/>
<path fill="#1B1B1B" d="M845.092,20.361c0,1.826-2.238,3.307-5,3.307l0,0c-2.762,0-5-1.48-5-3.307V5.307
	c0-1.826,2.238-3.307,5-3.307l0,0c2.762,0,5,1.48,5,3.307V20.361z"/>
<path fill="#1B1B1B" d="M862.758,20.361c0,1.826-2.238,3.307-5,3.307l0,0c-2.762,0-5-1.48-5-3.307V5.307
	c0-1.826,2.238-3.307,5-3.307l0,0c2.762,0,5,1.48,5,3.307V20.361z"/>
<path fill="#1B1B1B" d="M880.424,20.361c0,1.826-2.238,3.307-5,3.307l0,0c-2.762,0-5-1.48-5-3.307V5.307
	c0-1.826,2.238-3.307,5-3.307l0,0c2.762,0,5,1.48,5,3.307V20.361z"/>
<path fill="#1B1B1B" d="M898.091,20.361c0,1.826-2.238,3.307-5,3.307l0,0c-2.762,0-5-1.48-5-3.307V5.307
	c0-1.826,2.238-3.307,5-3.307l0,0c2.762,0,5,1.48,5,3.307V20.361z"/>
<path fill="#1B1B1B" d="M915.758,20.361c0,1.826-2.238,3.307-5,3.307l0,0c-2.762,0-5-1.48-5-3.307V5.307
	c0-1.826,2.238-3.307,5-3.307l0,0c2.762,0,5,1.48,5,3.307V20.361z"/>
<path fill="#1B1B1B" d="M933.424,20.361c0,1.826-2.238,3.307-5,3.307l0,0c-2.762,0-5-1.48-5-3.307V5.307
	c0-1.826,2.238-3.307,5-3.307l0,0c2.762,0,5,1.48,5,3.307V20.361z"/>
<path fill="#1B1B1B" d="M951.09,20.361c0,1.826-2.238,3.307-5,3.307l0,0c-2.762,0-5-1.48-5-3.307V5.307c0-1.826,2.238-3.307,5-3.307
	l0,0c2.762,0,5,1.48,5,3.307V20.361z"/>
<path fill="#1B1B1B" d="M968.756,20.361c0,1.826-2.238,3.307-5,3.307l0,0c-2.762,0-5-1.48-5-3.307V5.307
	c0-1.826,2.238-3.307,5-3.307l0,0c2.762,0,5,1.48,5,3.307V20.361z"/>
<path fill="#1B1B1B" d="M986.424,20.361c0,1.826-2.238,3.307-5,3.307l0,0c-2.762,0-5-1.48-5-3.307V5.307
	c0-1.826,2.238-3.307,5-3.307l0,0c2.762,0,5,1.48,5,3.307V20.361z"/>
<path fill="#1B1B1B" d="M1004.09,20.361c0,1.826-2.238,3.307-5,3.307l0,0c-2.762,0-5-1.48-5-3.307V5.307
	c0-1.826,2.238-3.307,5-3.307l0,0c2.762,0,5,1.48,5,3.307V20.361z"/>
<path fill="#1B1B1B" d="M1021.756,20.361c0,1.826-2.238,3.307-5,3.307l0,0c-2.762,0-5-1.48-5-3.307V5.307
	c0-1.826,2.238-3.307,5-3.307l0,0c2.762,0,5,1.48,5,3.307V20.361z"/>
<path fill="#1B1B1B" d="M1039.422,20.361c0,1.826-2.238,3.307-5,3.307l0,0c-2.762,0-5-1.48-5-3.307V5.307
	c0-1.826,2.238-3.307,5-3.307l0,0c2.762,0,5,1.48,5,3.307V20.361z"/>
<path fill="#1B1B1B" d="M1057.09,20.361c0,1.826-2.238,3.307-5,3.307l0,0c-2.762,0-5-1.48-5-3.307V5.307
	c0-1.826,2.238-3.307,5-3.307l0,0c2.762,0,5,1.48,5,3.307V20.361z"/>
<path fill="#1B1B1B" d="M1074.756,20.361c0,1.826-2.238,3.307-5,3.307l0,0c-2.762,0-5-1.48-5-3.307V5.307
	c0-1.826,2.238-3.307,5-3.307l0,0c2.762,0,5,1.48,5,3.307V20.361z"/>
<path fill="#1B1B1B" d="M1092.422,20.361c0,1.826-2.238,3.307-5,3.307l0,0c-2.762,0-5-1.48-5-3.307V5.307
	c0-1.826,2.238-3.307,5-3.307l0,0c2.762,0,5,1.48,5,3.307V20.361z"/>
<path fill="#1B1B1B" d="M1110.088,20.361c0,1.826-2.238,3.307-5,3.307l0,0c-2.762,0-5-1.48-5-3.307V5.307
	c0-1.826,2.238-3.307,5-3.307l0,0c2.762,0,5,1.48,5,3.307V20.361z"/>
<path fill="#1B1B1B" d="M1127.756,20.361c0,1.826-2.238,3.307-5,3.307l0,0c-2.762,0-5-1.48-5-3.307V5.307
	c0-1.826,2.238-3.307,5-3.307l0,0c2.762,0,5,1.48,5,3.307V20.361z"/>
<path fill="#1B1B1B" d="M1145.422,20.361c0,1.826-2.238,3.307-5,3.307l0,0c-2.762,0-5-1.48-5-3.307V5.307
	c0-1.826,2.238-3.307,5-3.307l0,0c2.762,0,5,1.48,5,3.307V20.361z"/>
<path fill="#1B1B1B" d="M1163.088,20.361c0,1.826-2.238,3.307-5,3.307l0,0c-2.762,0-5-1.48-5-3.307V5.307
	c0-1.826,2.238-3.307,5-3.307l0,0c2.762,0,5,1.48,5,3.307V20.361z"/>
<path fill="#1B1B1B" d="M1180.754,20.361c0,1.826-2.238,3.307-5,3.307l0,0c-2.762,0-5-1.48-5-3.307V5.307
	c0-1.826,2.238-3.307,5-3.307l0,0c2.762,0,5,1.48,5,3.307V20.361z"/>
<path fill="#1B1B1B" d="M1198.422,20.361c0,1.826-2.238,3.307-5,3.307l0,0c-2.762,0-5-1.48-5-3.307V5.307
	c0-1.826,2.238-3.307,5-3.307l0,0c2.762,0,5,1.48,5,3.307V20.361z"/>
<g>
	<path fill="#101010" d="M50.057,9.008H0.846v24.028h49.211c6.318,0,11.44-5.378,11.44-12.015
		C61.497,14.389,56.375,9.008,50.057,9.008z"/>
	<linearGradient id="SVGID_2_" gradientUnits="userSpaceOnUse" x1="30.9009" y1="32.3555" x2="30.9009" y2="9.6797">
		<stop  offset="0" style="stop-color:#40220F"/>
		<stop  offset="0.0968" style="stop-color:#A92B2B"/>
		<stop  offset="0.8548" style="stop-color:#D3464C"/>
		<stop  offset="0.9462" style="stop-color:#EC6B77"/>
		<stop  offset="1" style="stop-color:#A92B2B"/>
	</linearGradient>
	<path fill="url(#SVGID_2_)" d="M49.619,9.68H0.846v22.676h48.773c6.262,0,11.338-5.076,11.338-11.338S55.88,9.68,49.619,9.68z"/>
	<g>
		<path fill="#EFEFEF" d="M8.59,15.652c0,0-1.471,1.393,0,2.605c0,0,0.756,0.438,2.268-0.099c0,0,3.023-1.274,4.516-1.651
			c0,0,2.049-0.617,3.003-0.576c0,0,0.458,0.039,0,0.377c0,0-1.949,1.83-2.446,2.328c0,0-1.154,1.073-0.816,2.724
			c0,0,0.457,1.214,0.875,1.87c0,0,0.318,0.518-0.338,1.035c0,0-1.81,1.49-1.87,2.107c0,0-0.16,0.736-0.04,1.035
			c0,0,0.358,0.119,1.412-0.696c0,0,0.736-0.517,2.009-0.419c0,0,1.353-0.039,1.93-0.854c0,0,1.153-1.034,0.478-2.247
			c0,0-1.473-1.512-1.532-1.771c0,0-0.755-0.757-0.258-1.651c0,0,1.074-1.372,1.691-1.61c0,0,1.134-0.896,1.193-1.333
			c0,0,0.04-0.537-0.378-1.174c0,0,0.955-0.677,2.068-0.797c0,0,0.736-0.197,0.835-0.615c0,0,0.06-0.557-0.736-0.576
			c0,0-1.173-0.279-4.257,0c0,0-3.262,0.397-4.296,0.636c0,0-2.208,0.417-2.984,0.597C10.918,14.896,9.267,15.195,8.59,15.652z"/>
		
			<text transform="matrix(1.1667 0 0 1 26.0864 20.4814)" fill="#EFEFEF" font-family="'HeitiEG-Ultra-GB'" font-size="6.479" letter-spacing="0.857">天融信</text>
		<text transform="matrix(1.4267 0 0 1 26.6274 25.9326)" fill="#EFEFEF" font-family="'HeitiEG-Ultra-GB'" font-size="5.2982">TOPSEC</text>
	</g>
</g>
<path fill="none" stroke="#222222" stroke-width="2" stroke-miterlimit="10" d="M1235.098,11.875
	c0,6.559-11.145,11.874-24.893,11.874H169.989c-13.747,0-24.892-5.315-24.892-11.874l0,0C145.097,5.316,156.242,0,169.989,0
	h1040.216C1223.953,0,1235.098,5.316,1235.098,11.875L1235.098,11.875z"/>
<linearGradient id="SVGID_3_" gradientUnits="userSpaceOnUse" x1="174.6118" y1="41.8984" x2="174.6118" y2="30.1816">
	<stop  offset="0" style="stop-color:#000000"/>
	<stop  offset="0.0376" style="stop-color:#898989"/>
	<stop  offset="0.0753" style="stop-color:#000000"/>
	<stop  offset="0.9301" style="stop-color:#000000"/>
	<stop  offset="0.9624" style="stop-color:#898989"/>
	<stop  offset="1" style="stop-color:#000000"/>
</linearGradient>
<path fill="url(#SVGID_3_)" d="M204.126,36.04c0,3.235-2.623,5.858-5.858,5.858h-47.313c-3.236,0-5.858-2.623-5.858-5.858l0,0
	c0-3.235,2.623-5.858,5.858-5.858h47.313C201.503,30.182,204.126,32.805,204.126,36.04L204.126,36.04z"/>
<text transform="matrix(1 0 0 1 159.0708 37.3179)" fill="#EDEDED" font-family="'CTCuHeiSJ'" font-size="5.9426">TopFilter</text>
<linearGradient id="SVGID_4_" gradientUnits="userSpaceOnUse" x1="438.7622" y1="126.1426" x2="438.7622" y2="59.6533">
	<stop  offset="0" style="stop-color:#000000"/>
	<stop  offset="0.3495" style="stop-color:#3E3A39"/>
	<stop  offset="0.9462" style="stop-color:#2E2B2A"/>
	<stop  offset="0.9516" style="stop-color:#3E3A39"/>
	<stop  offset="1" style="stop-color:#595757"/>
</linearGradient>
<path fill="url(#SVGID_4_)" d="M588.928,126.143V62.828c0-1.754-2.176-3.175-4.858-3.175H293.455c-2.683,0-4.858,1.421-4.858,3.175
	v63.314H588.928z"/>
<linearGradient id="SVGID_5_" gradientUnits="userSpaceOnUse" x1="756.7588" y1="126.1426" x2="756.7588" y2="59.6533">
	<stop  offset="0" style="stop-color:#000000"/>
	<stop  offset="0.3495" style="stop-color:#3E3A39"/>
	<stop  offset="0.9462" style="stop-color:#2E2B2A"/>
	<stop  offset="0.9516" style="stop-color:#3E3A39"/>
	<stop  offset="1" style="stop-color:#595757"/>
</linearGradient>
<path fill="url(#SVGID_5_)" d="M906.924,126.143V62.828c0-1.754-2.175-3.175-4.857-3.175H611.451c-2.683,0-4.857,1.421-4.857,3.175
	v63.314H906.924z"/>
<linearGradient id="SVGID_6_" gradientUnits="userSpaceOnUse" x1="1074.7559" y1="126.1426" x2="1074.7559" y2="59.6533">
	<stop  offset="0" style="stop-color:#000000"/>
	<stop  offset="0.3495" style="stop-color:#3E3A39"/>
	<stop  offset="0.9462" style="stop-color:#2E2B2A"/>
	<stop  offset="0.9516" style="stop-color:#3E3A39"/>
	<stop  offset="1" style="stop-color:#595757"/>
</linearGradient>
<path fill="url(#SVGID_6_)" d="M1224.922,126.143V62.828c0-1.754-2.176-3.175-4.859-3.175H929.449c-2.684,0-4.858,1.421-4.858,3.175
	v63.314H1224.922z"/>
<rect x="1127.52" y="89.317" fill="#828282" width="37.057" height="27.307"/>
<rect x="1127.52" y="64.413" fill="#828282" width="37.057" height="27.307"/>
<text transform="matrix(1 0 0 1 1067.3145 60.3027)" fill="#EDEDED" font-family="'CTCuHeiSJ'" font-size="5.9971">2</text>
<g>
	<linearGradient id="SVGID_7_" gradientUnits="userSpaceOnUse" x1="1070.3359" y1="117.8281" x2="1070.3359" y2="91.7979">
		<stop  offset="0" style="stop-color:#000000"/>
		<stop  offset="0.1075" style="stop-color:#3E3A39"/>
		<stop  offset="0.8172" style="stop-color:#595757"/>
		<stop  offset="0.9301" style="stop-color:#595757"/>
		<stop  offset="1" style="stop-color:#898989"/>
	</linearGradient>
	<rect x="1054.5" y="91.798" fill="url(#SVGID_7_)" width="31.672" height="26.03"/>
	<rect x="1062.061" y="98.921" fill="#343535" width="16.49" height="10.421"/>
</g>
<g>
	<linearGradient id="SVGID_8_" gradientUnits="userSpaceOnUse" x1="1070.3359" y1="91.4863" x2="1070.3359" y2="65.4551">
		<stop  offset="0" style="stop-color:#000000"/>
		<stop  offset="0.1075" style="stop-color:#3E3A39"/>
		<stop  offset="0.8172" style="stop-color:#595757"/>
		<stop  offset="0.9301" style="stop-color:#595757"/>
		<stop  offset="1" style="stop-color:#898989"/>
	</linearGradient>
	<rect x="1054.5" y="65.455" fill="url(#SVGID_8_)" width="31.672" height="26.031"/>
	<rect x="1062.061" y="72.58" fill="#343535" width="16.49" height="10.419"/>
</g>
<text transform="matrix(1 0 0 1 1016.5977 98.9492)" fill="#F4F4F4" font-family="'CTCuHeiSJ'" font-size="7.6502">ACTUK</text>
<text transform="matrix(1 0 0 1 1016.5977 109.4648)" fill="#F4F4F4" font-family="'CTCuHeiSJ'" font-size="7.6502">ACTUK</text>
<circle fill="#B4D89E" stroke="#151515" stroke-miterlimit="10" cx="1008.673" cy="95.631" r="3.534"/>
<circle fill="#B4D89E" stroke="#151515" stroke-miterlimit="10" cx="1008.673" cy="107.365" r="3.534"/>
<text transform="matrix(1 0 0 1 1178.2646 101.4644)" fill="#F4F4F4" font-family="'CTCuHeiSJ'" font-size="7.6502">D18p</text>
<circle fill="#B4D89E" stroke="#151515" stroke-miterlimit="10" cx="1172.59" cy="98.361" r="3.533"/>
</svg>
