<?xml version="1.0" encoding="utf-8"?>
<!-- Generator: Adobe Illustrator 16.0.0, SVG Export Plug-In . SVG Version: 6.00 Build 0)  -->
<!DOCTYPE svg PUBLIC "-//W3C//DTD SVG 1.1//EN" "http://www.w3.org/Graphics/SVG/1.1/DTD/svg11.dtd">
<svg version="1.1" id="图层_1" xmlns="http://www.w3.org/2000/svg" xmlns:xlink="http://www.w3.org/1999/xlink" x="0px" y="0px"
	 width="1275.591px" height="252.283px" viewBox="0 0 1275.591 252.283" enable-background="new 0 0 1275.591 252.283"
	 xml:space="preserve">
<linearGradient id="SVGID_1_" gradientUnits="userSpaceOnUse" x1="637.7949" y1="252.2842" x2="637.7949" y2="4.882813e-004">
	<stop  offset="0" style="stop-color:#000000"/>
	<stop  offset="0.7957" style="stop-color:#3E3A39"/>
	<stop  offset="0.8817" style="stop-color:#595757"/>
	<stop  offset="0.9355" style="stop-color:#898989"/>
	<stop  offset="0.9892" style="stop-color:#000000"/>
</linearGradient>
<rect fill="url(#SVGID_1_)" width="1275.59" height="252.284"/>
<path fill="#0B0D0A" d="M1182.936,252.284V101.014c0-8.968-6.076-16.238-13.571-16.238H80.604c-7.496,0-13.572,7.271-13.572,16.238
	v151.271H1182.936z"/>
<linearGradient id="SVGID_2_" gradientUnits="userSpaceOnUse" x1="1027.2441" y1="252.2842" x2="1027.2441" y2="153.9634">
	<stop  offset="0" style="stop-color:#000000"/>
	<stop  offset="0.3495" style="stop-color:#3E3A39"/>
	<stop  offset="0.9462" style="stop-color:#2E2B2A"/>
	<stop  offset="0.9516" style="stop-color:#3E3A39"/>
	<stop  offset="1" style="stop-color:#595757"/>
</linearGradient>
<path fill="url(#SVGID_2_)" d="M1157.242,252.284v-93.628c0-2.592-1.884-4.693-4.206-4.693H901.451
	c-2.323,0-4.206,2.102-4.206,4.693v93.628H1157.242z"/>
<text transform="matrix(1 0 0 1 1017.9121 150.1597)" fill="#EDEDED" font-family="'CTCuHeiSJ'" font-size="8">SLOT1</text>
<text transform="matrix(1 0 0 1 745.9141 150.1597)" fill="#EDEDED" font-family="'CTCuHeiSJ'" font-size="8">SLOT2</text>
<text transform="matrix(1 0 0 1 466.2515 150.1597)" fill="#EDEDED" font-family="'CTCuHeiSJ'" font-size="8">SLOT3</text>
<rect x="1039.193" y="201.521" fill="#828282" width="49.434" height="36.428"/>
<rect x="1039.193" y="168.299" fill="#828282" width="49.434" height="36.427"/>
<rect x="1097.193" y="201.521" fill="#828282" width="49.434" height="36.428"/>
<rect x="1097.193" y="168.299" fill="#828282" width="49.434" height="36.427"/>
<text transform="matrix(1 0 0 1 1062.2168 163.1616)" fill="#EDEDED" font-family="'CTCuHeiSJ'" font-size="8">2</text>
<text transform="matrix(1 0 0 1 1063.7422 245.8286)" fill="#EDEDED" font-family="'CTCuHeiSJ'" font-size="8">3</text>
<path fill="#1B1B1B" d="M225.918,29.797c0,2.542-2.238,4.604-5,4.604l0,0c-2.762,0-5-2.062-5-4.604V8.837
	c0-2.542,2.238-4.604,5-4.604l0,0c2.762,0,5,2.062,5,4.604V29.797z"/>
<path fill="#1B1B1B" d="M243.585,29.797c0,2.542-2.238,4.604-5,4.604l0,0c-2.762,0-5-2.062-5-4.604V8.837
	c0-2.542,2.238-4.604,5-4.604l0,0c2.762,0,5,2.062,5,4.604V29.797z"/>
<path fill="#1B1B1B" d="M261.251,29.797c0,2.542-2.238,4.604-5,4.604l0,0c-2.762,0-5-2.062-5-4.604V8.837
	c0-2.542,2.238-4.604,5-4.604l0,0c2.762,0,5,2.062,5,4.604V29.797z"/>
<path fill="#1B1B1B" d="M278.918,29.797c0,2.542-2.238,4.604-5,4.604l0,0c-2.762,0-5-2.062-5-4.604V8.837
	c0-2.542,2.238-4.604,5-4.604l0,0c2.762,0,5,2.062,5,4.604V29.797z"/>
<path fill="#1B1B1B" d="M296.584,29.797c0,2.542-2.238,4.604-5,4.604l0,0c-2.762,0-5-2.062-5-4.604V8.837
	c0-2.542,2.238-4.604,5-4.604l0,0c2.762,0,5,2.062,5,4.604V29.797z"/>
<path fill="#1B1B1B" d="M314.251,29.797c0,2.542-2.238,4.604-5,4.604l0,0c-2.762,0-5-2.062-5-4.604V8.837
	c0-2.542,2.238-4.604,5-4.604l0,0c2.762,0,5,2.062,5,4.604V29.797z"/>
<path fill="#1B1B1B" d="M331.917,29.797c0,2.542-2.238,4.604-5,4.604l0,0c-2.762,0-5-2.062-5-4.604V8.837
	c0-2.542,2.238-4.604,5-4.604l0,0c2.762,0,5,2.062,5,4.604V29.797z"/>
<path fill="#1B1B1B" d="M349.584,29.797c0,2.542-2.238,4.604-5,4.604l0,0c-2.762,0-5-2.062-5-4.604V8.837
	c0-2.542,2.238-4.604,5-4.604l0,0c2.762,0,5,2.062,5,4.604V29.797z"/>
<path fill="#1B1B1B" d="M367.25,29.797c0,2.542-2.238,4.604-5,4.604l0,0c-2.762,0-5-2.062-5-4.604V8.837
	c0-2.542,2.238-4.604,5-4.604l0,0c2.762,0,5,2.062,5,4.604V29.797z"/>
<path fill="#1B1B1B" d="M384.917,29.797c0,2.542-2.238,4.604-5,4.604l0,0c-2.762,0-5-2.062-5-4.604V8.837
	c0-2.542,2.238-4.604,5-4.604l0,0c2.762,0,5,2.062,5,4.604V29.797z"/>
<path fill="#1B1B1B" d="M402.583,29.797c0,2.542-2.238,4.604-5,4.604l0,0c-2.762,0-5-2.062-5-4.604V8.837
	c0-2.542,2.238-4.604,5-4.604l0,0c2.762,0,5,2.062,5,4.604V29.797z"/>
<path fill="#1B1B1B" d="M420.25,29.797c0,2.542-2.238,4.604-5,4.604l0,0c-2.762,0-5-2.062-5-4.604V8.837
	c0-2.542,2.238-4.604,5-4.604l0,0c2.762,0,5,2.062,5,4.604V29.797z"/>
<path fill="#1B1B1B" d="M437.916,29.797c0,2.542-2.238,4.604-5,4.604l0,0c-2.762,0-5-2.062-5-4.604V8.837
	c0-2.542,2.238-4.604,5-4.604l0,0c2.762,0,5,2.062,5,4.604V29.797z"/>
<path fill="#1B1B1B" d="M455.583,29.797c0,2.542-2.238,4.604-5,4.604l0,0c-2.762,0-5-2.062-5-4.604V8.837
	c0-2.542,2.238-4.604,5-4.604l0,0c2.762,0,5,2.062,5,4.604V29.797z"/>
<path fill="#1B1B1B" d="M473.249,29.797c0,2.542-2.238,4.604-5,4.604l0,0c-2.762,0-5-2.062-5-4.604V8.837
	c0-2.542,2.238-4.604,5-4.604l0,0c2.762,0,5,2.062,5,4.604V29.797z"/>
<path fill="#1B1B1B" d="M490.916,29.797c0,2.542-2.238,4.604-5,4.604l0,0c-2.762,0-5-2.062-5-4.604V8.837
	c0-2.542,2.238-4.604,5-4.604l0,0c2.762,0,5,2.062,5,4.604V29.797z"/>
<path fill="#1B1B1B" d="M508.582,29.797c0,2.542-2.238,4.604-5,4.604l0,0c-2.762,0-5-2.062-5-4.604V8.837
	c0-2.542,2.238-4.604,5-4.604l0,0c2.762,0,5,2.062,5,4.604V29.797z"/>
<path fill="#1B1B1B" d="M526.249,29.797c0,2.542-2.238,4.604-5,4.604l0,0c-2.762,0-5-2.062-5-4.604V8.837
	c0-2.542,2.238-4.604,5-4.604l0,0c2.762,0,5,2.062,5,4.604V29.797z"/>
<path fill="#1B1B1B" d="M543.915,29.797c0,2.542-2.238,4.604-5,4.604l0,0c-2.762,0-5-2.062-5-4.604V8.837
	c0-2.542,2.238-4.604,5-4.604l0,0c2.762,0,5,2.062,5,4.604V29.797z"/>
<path fill="#1B1B1B" d="M561.582,29.797c0,2.542-2.238,4.604-5,4.604l0,0c-2.762,0-5-2.062-5-4.604V8.837
	c0-2.542,2.238-4.604,5-4.604l0,0c2.762,0,5,2.062,5,4.604V29.797z"/>
<path fill="#1B1B1B" d="M579.248,29.797c0,2.542-2.238,4.604-5,4.604l0,0c-2.762,0-5-2.062-5-4.604V8.837
	c0-2.542,2.238-4.604,5-4.604l0,0c2.762,0,5,2.062,5,4.604V29.797z"/>
<path fill="#1B1B1B" d="M596.915,29.797c0,2.542-2.238,4.604-5,4.604l0,0c-2.762,0-5-2.062-5-4.604V8.837
	c0-2.542,2.238-4.604,5-4.604l0,0c2.762,0,5,2.062,5,4.604V29.797z"/>
<path fill="#1B1B1B" d="M614.581,29.797c0,2.542-2.238,4.604-5,4.604l0,0c-2.762,0-5-2.062-5-4.604V8.837
	c0-2.542,2.238-4.604,5-4.604l0,0c2.762,0,5,2.062,5,4.604V29.797z"/>
<path fill="#1B1B1B" d="M632.248,29.797c0,2.542-2.238,4.604-5,4.604l0,0c-2.762,0-5-2.062-5-4.604V8.837
	c0-2.542,2.238-4.604,5-4.604l0,0c2.762,0,5,2.062,5,4.604V29.797z"/>
<path fill="#1B1B1B" d="M649.914,29.797c0,2.542-2.238,4.604-5,4.604l0,0c-2.762,0-5-2.062-5-4.604V8.837
	c0-2.542,2.238-4.604,5-4.604l0,0c2.762,0,5,2.062,5,4.604V29.797z"/>
<path fill="#1B1B1B" d="M667.581,29.797c0,2.542-2.238,4.604-5,4.604l0,0c-2.762,0-5-2.062-5-4.604V8.837
	c0-2.542,2.238-4.604,5-4.604l0,0c2.762,0,5,2.062,5,4.604V29.797z"/>
<path fill="#1B1B1B" d="M685.247,29.797c0,2.542-2.238,4.604-5,4.604l0,0c-2.762,0-5-2.062-5-4.604V8.837
	c0-2.542,2.238-4.604,5-4.604l0,0c2.762,0,5,2.062,5,4.604V29.797z"/>
<path fill="#1B1B1B" d="M702.914,29.797c0,2.542-2.238,4.604-5,4.604l0,0c-2.762,0-5-2.062-5-4.604V8.837
	c0-2.542,2.238-4.604,5-4.604l0,0c2.762,0,5,2.062,5,4.604V29.797z"/>
<path fill="#1B1B1B" d="M720.58,29.797c0,2.542-2.238,4.604-5,4.604l0,0c-2.762,0-5-2.062-5-4.604V8.837
	c0-2.542,2.238-4.604,5-4.604l0,0c2.762,0,5,2.062,5,4.604V29.797z"/>
<path fill="#1B1B1B" d="M738.247,29.797c0,2.542-2.238,4.604-5,4.604l0,0c-2.762,0-5-2.062-5-4.604V8.837
	c0-2.542,2.238-4.604,5-4.604l0,0c2.762,0,5,2.062,5,4.604V29.797z"/>
<path fill="#1B1B1B" d="M755.913,29.797c0,2.542-2.238,4.604-5,4.604l0,0c-2.762,0-5-2.062-5-4.604V8.837
	c0-2.542,2.238-4.604,5-4.604l0,0c2.762,0,5,2.062,5,4.604V29.797z"/>
<path fill="#1B1B1B" d="M773.58,29.797c0,2.542-2.238,4.604-5,4.604l0,0c-2.762,0-5-2.062-5-4.604V8.837
	c0-2.542,2.238-4.604,5-4.604l0,0c2.762,0,5,2.062,5,4.604V29.797z"/>
<path fill="#1B1B1B" d="M791.246,29.797c0,2.542-2.238,4.604-5,4.604l0,0c-2.762,0-5-2.062-5-4.604V8.837
	c0-2.542,2.238-4.604,5-4.604l0,0c2.762,0,5,2.062,5,4.604V29.797z"/>
<path fill="#1B1B1B" d="M808.913,29.797c0,2.542-2.238,4.604-5,4.604l0,0c-2.762,0-5-2.062-5-4.604V8.837
	c0-2.542,2.238-4.604,5-4.604l0,0c2.762,0,5,2.062,5,4.604V29.797z"/>
<path fill="#1B1B1B" d="M826.579,29.797c0,2.542-2.238,4.604-5,4.604l0,0c-2.762,0-5-2.062-5-4.604V8.837
	c0-2.542,2.238-4.604,5-4.604l0,0c2.762,0,5,2.062,5,4.604V29.797z"/>
<path fill="#1B1B1B" d="M844.246,29.797c0,2.542-2.238,4.604-5,4.604l0,0c-2.762,0-5-2.062-5-4.604V8.837
	c0-2.542,2.238-4.604,5-4.604l0,0c2.762,0,5,2.062,5,4.604V29.797z"/>
<path fill="#1B1B1B" d="M861.912,29.797c0,2.542-2.238,4.604-5,4.604l0,0c-2.762,0-5-2.062-5-4.604V8.837
	c0-2.542,2.238-4.604,5-4.604l0,0c2.762,0,5,2.062,5,4.604V29.797z"/>
<path fill="#1B1B1B" d="M879.579,29.797c0,2.542-2.238,4.604-5,4.604l0,0c-2.762,0-5-2.062-5-4.604V8.837
	c0-2.542,2.238-4.604,5-4.604l0,0c2.762,0,5,2.062,5,4.604V29.797z"/>
<path fill="#1B1B1B" d="M897.245,29.797c0,2.542-2.238,4.604-5,4.604l0,0c-2.762,0-5-2.062-5-4.604V8.837
	c0-2.542,2.238-4.604,5-4.604l0,0c2.762,0,5,2.062,5,4.604V29.797z"/>
<path fill="#1B1B1B" d="M914.912,29.797c0,2.542-2.238,4.604-5,4.604l0,0c-2.762,0-5-2.062-5-4.604V8.837
	c0-2.542,2.238-4.604,5-4.604l0,0c2.762,0,5,2.062,5,4.604V29.797z"/>
<path fill="#1B1B1B" d="M932.578,29.797c0,2.542-2.238,4.604-5,4.604l0,0c-2.762,0-5-2.062-5-4.604V8.837
	c0-2.542,2.238-4.604,5-4.604l0,0c2.762,0,5,2.062,5,4.604V29.797z"/>
<path fill="#1B1B1B" d="M950.245,29.797c0,2.542-2.238,4.604-5,4.604l0,0c-2.762,0-5-2.062-5-4.604V8.837
	c0-2.542,2.238-4.604,5-4.604l0,0c2.762,0,5,2.062,5,4.604V29.797z"/>
<path fill="#1B1B1B" d="M967.911,29.797c0,2.542-2.238,4.604-5,4.604l0,0c-2.762,0-5-2.062-5-4.604V8.837
	c0-2.542,2.238-4.604,5-4.604l0,0c2.762,0,5,2.062,5,4.604V29.797z"/>
<path fill="#1B1B1B" d="M985.578,29.797c0,2.542-2.238,4.604-5,4.604l0,0c-2.762,0-5-2.062-5-4.604V8.837
	c0-2.542,2.238-4.604,5-4.604l0,0c2.762,0,5,2.062,5,4.604V29.797z"/>
<path fill="#1B1B1B" d="M1003.244,29.797c0,2.542-2.238,4.604-5,4.604l0,0c-2.762,0-5-2.062-5-4.604V8.837
	c0-2.542,2.238-4.604,5-4.604l0,0c2.762,0,5,2.062,5,4.604V29.797z"/>
<path fill="#1B1B1B" d="M1020.911,29.797c0,2.542-2.238,4.604-5,4.604l0,0c-2.762,0-5-2.062-5-4.604V8.837
	c0-2.542,2.238-4.604,5-4.604l0,0c2.762,0,5,2.062,5,4.604V29.797z"/>
<path fill="#1B1B1B" d="M1038.577,29.797c0,2.542-2.238,4.604-5,4.604l0,0c-2.762,0-5-2.062-5-4.604V8.837
	c0-2.542,2.238-4.604,5-4.604l0,0c2.762,0,5,2.062,5,4.604V29.797z"/>
<path fill="#1B1B1B" d="M1056.244,29.797c0,2.542-2.238,4.604-5,4.604l0,0c-2.762,0-5-2.062-5-4.604V8.837
	c0-2.542,2.238-4.604,5-4.604l0,0c2.762,0,5,2.062,5,4.604V29.797z"/>
<path fill="#1B1B1B" d="M1073.91,29.797c0,2.542-2.238,4.604-5,4.604l0,0c-2.762,0-5-2.062-5-4.604V8.837
	c0-2.542,2.238-4.604,5-4.604l0,0c2.762,0,5,2.062,5,4.604V29.797z"/>
<path fill="#1B1B1B" d="M1091.577,29.797c0,2.542-2.238,4.604-5,4.604l0,0c-2.762,0-5-2.062-5-4.604V8.837
	c0-2.542,2.238-4.604,5-4.604l0,0c2.762,0,5,2.062,5,4.604V29.797z"/>
<path fill="#1B1B1B" d="M1109.243,29.797c0,2.542-2.238,4.604-5,4.604l0,0c-2.762,0-5-2.062-5-4.604V8.837
	c0-2.542,2.238-4.604,5-4.604l0,0c2.762,0,5,2.062,5,4.604V29.797z"/>
<path fill="#1B1B1B" d="M1126.91,29.797c0,2.542-2.238,4.604-5,4.604l0,0c-2.762,0-5-2.062-5-4.604V8.837
	c0-2.542,2.238-4.604,5-4.604l0,0c2.762,0,5,2.062,5,4.604V29.797z"/>
<path fill="#1B1B1B" d="M1144.576,29.797c0,2.542-2.238,4.604-5,4.604l0,0c-2.762,0-5-2.062-5-4.604V8.837
	c0-2.542,2.238-4.604,5-4.604l0,0c2.762,0,5,2.062,5,4.604V29.797z"/>
<g>
	<path fill="#101010" d="M158.178,15.503H67.033v37.354h91.146c11.703,0,21.189-8.361,21.189-18.677
		C179.368,23.867,169.881,15.503,158.178,15.503z"/>
	<linearGradient id="SVGID_3_" gradientUnits="userSpaceOnUse" x1="122.6997" y1="51.7998" x2="122.6997" y2="16.5479">
		<stop  offset="0" style="stop-color:#40220F"/>
		<stop  offset="0.0968" style="stop-color:#A92B2B"/>
		<stop  offset="0.8548" style="stop-color:#D3464C"/>
		<stop  offset="0.9462" style="stop-color:#EC6B77"/>
		<stop  offset="1" style="stop-color:#A92B2B"/>
	</linearGradient>
	<path fill="url(#SVGID_3_)" d="M157.367,16.548H67.033V51.8h90.334c11.598,0,21-7.892,21-17.626S168.964,16.548,157.367,16.548z"/>
	<g>
		<path fill="#EFEFEF" d="M81.377,25.834c0,0-2.726,2.163,0,4.051c0,0,1.4,0.68,4.2-0.154c0,0,5.6-1.98,8.363-2.567
			c0,0,3.794-0.959,5.563-0.896c0,0,0.847,0.063,0,0.588c0,0-3.611,2.845-4.531,3.617c0,0-2.138,1.669-1.511,4.235
			c0,0,0.847,1.887,1.621,2.907c0,0,0.589,0.805-0.627,1.608c0,0-3.352,2.319-3.463,3.277c0,0-0.294,1.145-0.073,1.608
			c0,0,0.663,0.186,2.616-1.082c0,0,1.363-0.805,3.721-0.65c0,0,2.505-0.062,3.573-1.329c0,0,2.137-1.608,0.884-3.494
			c0,0-2.727-2.351-2.837-2.752c0,0-1.399-1.176-0.479-2.566c0,0,1.989-2.134,3.132-2.504c0,0,2.1-1.393,2.21-2.072
			c0,0,0.074-0.835-0.7-1.824c0,0,1.769-1.052,3.832-1.238c0,0,1.363-0.308,1.547-0.957c0,0,0.11-0.866-1.363-0.896
			c0,0-2.173-0.434-7.884,0c0,0-6.042,0.617-7.957,0.988c0,0-4.09,0.649-5.526,0.928C85.688,24.658,82.63,25.123,81.377,25.834z"/>
		
			<text transform="matrix(1.39 0 0 1 113.793 33.3398)" fill="#EFEFEF" font-family="'HeitiEG-Ultra-GB'" font-size="10.072" letter-spacing="1.439">天融信</text>
		<text transform="matrix(1.6998 0 0 1 114.7935 41.8145)" fill="#EFEFEF" font-family="'HeitiEG-Ultra-GB'" font-size="8.2364">TOPSEC</text>
	</g>
</g>
<path fill="none" stroke="#222222" stroke-width="4" stroke-miterlimit="10" d="M1174.909,17.498
	c0,8.431-10.063,15.265-22.479,15.265H213.063c-12.414,0-22.479-6.834-22.479-15.265l0,0c0-8.431,10.064-15.265,22.479-15.265
	h939.367C1164.846,2.233,1174.909,9.067,1174.909,17.498L1174.909,17.498z"/>
<path fill="#1B1B1B" d="M266.253,58.844c0,3.303-3.109,5.98-6.945,5.98h-56.086c-3.836,0-6.945-2.678-6.945-5.98l0,0
	c0-3.303,3.109-5.98,6.945-5.98h56.086C263.144,52.863,266.253,55.541,266.253,58.844L266.253,58.844z"/>
<path fill="#1B1B1B" d="M356.905,58.844c0,3.303-3.109,5.98-6.945,5.98h-56.086c-3.836,0-6.945-2.678-6.945-5.98l0,0
	c0-3.303,3.109-5.98,6.945-5.98h56.086C353.795,52.863,356.905,55.541,356.905,58.844L356.905,58.844z"/>
<path fill="#1B1B1B" d="M447.556,58.844c0,3.303-3.109,5.98-6.945,5.98h-56.086c-3.836,0-6.945-2.678-6.945-5.98l0,0
	c0-3.303,3.109-5.98,6.945-5.98h56.086C444.447,52.863,447.556,55.541,447.556,58.844L447.556,58.844z"/>
<path fill="#1B1B1B" d="M538.207,58.844c0,3.303-3.109,5.98-6.944,5.98h-56.087c-3.835,0-6.944-2.678-6.944-5.98l0,0
	c0-3.303,3.109-5.98,6.944-5.98h56.087C535.098,52.863,538.207,55.541,538.207,58.844L538.207,58.844z"/>
<path fill="#1B1B1B" d="M628.859,58.844c0,3.303-3.109,5.98-6.945,5.98h-56.086c-3.836,0-6.945-2.678-6.945-5.98l0,0
	c0-3.303,3.109-5.98,6.945-5.98h56.086C625.75,52.863,628.859,55.541,628.859,58.844L628.859,58.844z"/>
<path fill="#1B1B1B" d="M719.51,58.844c0,3.303-3.109,5.98-6.944,5.98h-56.087c-3.836,0-6.944-2.678-6.944-5.98l0,0
	c0-3.303,3.108-5.98,6.944-5.98h56.087C716.4,52.863,719.51,55.541,719.51,58.844L719.51,58.844z"/>
<path fill="#1B1B1B" d="M810.162,58.844c0,3.303-3.109,5.98-6.945,5.98h-56.086c-3.836,0-6.945-2.678-6.945-5.98l0,0
	c0-3.303,3.109-5.98,6.945-5.98h56.086C807.053,52.863,810.162,55.541,810.162,58.844L810.162,58.844z"/>
<path fill="#1B1B1B" d="M900.813,58.844c0,3.303-3.109,5.98-6.944,5.98h-56.087c-3.836,0-6.944-2.678-6.944-5.98l0,0
	c0-3.303,3.108-5.98,6.944-5.98h56.087C897.703,52.863,900.813,55.541,900.813,58.844L900.813,58.844z"/>
<path fill="#1B1B1B" d="M991.465,58.844c0,3.303-3.109,5.98-6.945,5.98h-56.086c-3.836,0-6.945-2.678-6.945-5.98l0,0
	c0-3.303,3.109-5.98,6.945-5.98h56.086C988.355,52.863,991.465,55.541,991.465,58.844L991.465,58.844z"/>
<path fill="#1B1B1B" d="M1082.115,58.844c0,3.303-3.109,5.98-6.944,5.98h-56.087c-3.836,0-6.944-2.678-6.944-5.98l0,0
	c0-3.303,3.108-5.98,6.944-5.98h56.087C1079.006,52.863,1082.115,55.541,1082.115,58.844L1082.115,58.844z"/>
<path fill="#1B1B1B" d="M1172.768,58.844c0,3.303-3.109,5.98-6.945,5.98h-56.086c-3.836,0-6.945-2.678-6.945-5.98l0,0
	c0-3.303,3.109-5.98,6.945-5.98h56.086C1169.658,52.863,1172.768,55.541,1172.768,58.844L1172.768,58.844z"/>
<linearGradient id="SVGID_4_" gradientUnits="userSpaceOnUse" x1="474.582" y1="252.2842" x2="474.582" y2="153.9634">
	<stop  offset="0" style="stop-color:#000000"/>
	<stop  offset="0.3495" style="stop-color:#3E3A39"/>
	<stop  offset="0.9462" style="stop-color:#2E2B2A"/>
	<stop  offset="0.9516" style="stop-color:#3E3A39"/>
	<stop  offset="1" style="stop-color:#595757"/>
</linearGradient>
<path fill="url(#SVGID_4_)" d="M604.581,252.284v-93.628c0-2.592-1.884-4.693-4.206-4.693H348.79c-2.323,0-4.206,2.102-4.206,4.693
	v93.628H604.581z"/>
<linearGradient id="SVGID_5_" gradientUnits="userSpaceOnUse" x1="750.9131" y1="252.2842" x2="750.9131" y2="153.9634">
	<stop  offset="0" style="stop-color:#000000"/>
	<stop  offset="0.3495" style="stop-color:#3E3A39"/>
	<stop  offset="0.9462" style="stop-color:#2E2B2A"/>
	<stop  offset="0.9516" style="stop-color:#3E3A39"/>
	<stop  offset="1" style="stop-color:#595757"/>
</linearGradient>
<path fill="url(#SVGID_5_)" d="M880.912,252.284v-93.628c0-2.592-1.885-4.693-4.207-4.693H625.12c-2.323,0-4.206,2.102-4.206,4.693
	v93.628H880.912z"/>
<rect y="0.001" fill="#0B0D0A" width="67.032" height="252.283"/>
<rect x="1208.558" y="0.001" fill="#0B0D0A" width="67.032" height="252.283"/>
<rect x="909.912" y="203.122" fill="#1B1B1B" width="30.333" height="30.334"/>
<circle fill="#B4D89E" stroke="#151515" stroke-miterlimit="10" cx="918.488" cy="209.29" r="4.714"/>
<circle fill="#B4D89E" stroke="#151515" stroke-miterlimit="10" cx="918.488" cy="224.943" r="4.714"/>
<circle fill="#B4D89E" stroke="#151515" stroke-miterlimit="10" cx="930.577" cy="209.29" r="4.714"/>
<circle fill="#B4D89E" stroke="#151515" stroke-miterlimit="10" cx="930.577" cy="224.943" r="4.714"/>
<text transform="matrix(1 0 0 1 910.9131 203.7607)" fill="#F4F4F4" font-family="'CTCuHeiSJ'" font-size="8">ACTUK</text>
<text transform="matrix(1 0 0 1 750.3613 208.1099)" fill="#EDEDED" font-family="'CTCuHeiSJ'" font-size="8">SLOT</text>
<text transform="matrix(1 0 0 1 470.6987 208.1099)" fill="#EDEDED" font-family="'CTCuHeiSJ'" font-size="8">SLOT</text>
<g>
	<g>
		<g>
			<path fill="#AFAFAF" d="M1271.981,22.014c0,6.86-5.567,12.423-12.436,12.423s-12.436-5.563-12.436-12.423
				c0-6.862,5.567-12.425,12.436-12.425S1271.981,15.151,1271.981,22.014"/>
			<ellipse fill="none" stroke="#949394" stroke-miterlimit="10" cx="1259.546" cy="22.014" rx="12.436" ry="12.423"/>
			<path fill="#AFAFAF" d="M1268.683,22.014c0,5.04-4.091,9.128-9.137,9.128s-9.137-4.088-9.137-9.128
				c0-5.042,4.091-9.13,9.137-9.13S1268.683,16.972,1268.683,22.014"/>
			<ellipse fill="none" stroke="#949394" stroke-miterlimit="10" cx="1259.546" cy="22.014" rx="9.137" ry="9.128"/>
			<g>
				<g>
					<defs>
						<rect id="SVGID_6_" x="1250.932" y="13.409" width="17.229" height="17.207"/>
					</defs>
					<clipPath id="SVGID_7_">
						<use xlink:href="#SVGID_6_"  overflow="visible"/>
					</clipPath>
					<path clip-path="url(#SVGID_7_)" fill="#BFBFBF" d="M1268.157,22.014c0,4.751-3.855,8.603-8.611,8.603
						s-8.611-3.852-8.611-8.603c0-4.752,3.855-8.604,8.611-8.604S1268.157,17.262,1268.157,22.014"/>
					<path clip-path="url(#SVGID_7_)" fill="#C1C1C1" d="M1267.955,22.014c0,4.639-3.766,8.399-8.409,8.399
						c-4.645,0-8.408-3.761-8.408-8.399c0-4.64,3.764-8.401,8.408-8.401C1264.189,13.612,1267.955,17.374,1267.955,22.014"/>
					<path clip-path="url(#SVGID_7_)" fill="#C3C4C4" d="M1267.752,22.014c0,4.527-3.674,8.198-8.206,8.198
						s-8.206-3.671-8.206-8.198c0-4.528,3.674-8.2,8.206-8.2S1267.752,17.485,1267.752,22.014"/>
					<path clip-path="url(#SVGID_7_)" fill="#C5C6C6" d="M1267.55,22.014c0,4.416-3.583,7.996-8.004,7.996s-8.004-3.58-8.004-7.996
						c0-4.417,3.583-7.996,8.004-7.996S1267.55,17.597,1267.55,22.014"/>
					<path clip-path="url(#SVGID_7_)" fill="#C7C9C9" d="M1267.348,22.014c0,4.303-3.494,7.793-7.802,7.793s-7.801-3.49-7.801-7.793
						c0-4.305,3.493-7.795,7.801-7.795S1267.348,17.709,1267.348,22.014"/>
					<path clip-path="url(#SVGID_7_)" fill="#CACBCB" d="M1267.145,22.014c0,4.191-3.401,7.591-7.599,7.591
						c-4.196,0-7.599-3.399-7.599-7.591c0-4.193,3.402-7.593,7.599-7.593C1263.743,14.421,1267.145,17.82,1267.145,22.014"/>
					<path clip-path="url(#SVGID_7_)" fill="#CCCECE" d="M1266.942,22.014c0,4.079-3.313,7.389-7.396,7.389
						c-4.085,0-7.396-3.31-7.396-7.389c0-4.082,3.311-7.391,7.396-7.391C1263.63,14.623,1266.942,17.932,1266.942,22.014"/>
					<path clip-path="url(#SVGID_7_)" fill="#CED0D0" d="M1266.74,22.014c0,3.968-3.222,7.187-7.194,7.187s-7.194-3.219-7.194-7.187
						c0-3.971,3.222-7.188,7.194-7.188S1266.74,18.043,1266.74,22.014"/>
					<path clip-path="url(#SVGID_7_)" fill="#D1D3D3" d="M1266.537,22.014c0,3.856-3.13,6.984-6.991,6.984
						c-3.86,0-6.991-3.128-6.991-6.984c0-3.857,3.131-6.986,6.991-6.986C1263.407,15.027,1266.537,18.156,1266.537,22.014"/>
					<path clip-path="url(#SVGID_7_)" fill="#D3D5D5" d="M1266.334,22.014c0,3.744-3.039,6.781-6.788,6.781
						s-6.788-3.037-6.788-6.781c0-3.746,3.039-6.783,6.788-6.783S1266.334,18.268,1266.334,22.014"/>
				</g>
			</g>
			<polygon fill="#5F5F5E" points="1258.422,27.186 1258.422,23.137 1254.368,23.137 1254.368,20.889 1258.422,20.889 
				1258.422,16.839 1260.671,16.839 1260.671,20.889 1264.725,20.889 1264.725,23.137 1260.671,23.137 1260.671,27.186 			"/>
			<path fill="#231815" d="M1260.477,17.035v3.659v0.39h0.39h3.663v1.858h-3.663h-0.39v0.389v3.66h-1.86v-3.66v-0.389h-0.39h-3.664
				v-1.858h3.664h0.39v-0.39v-3.659H1260.477z M1260.866,16.646h-2.64v4.049h-4.054v2.637h4.054v4.05h2.64v-4.05h4.052v-2.637
				h-4.052V16.646z"/>
		</g>
		<g>
			<path fill="#AFAFAF" d="M1271.981,56.455c0,6.86-5.567,12.423-12.436,12.423s-12.436-5.563-12.436-12.423
				c0-6.862,5.567-12.425,12.436-12.425S1271.981,49.593,1271.981,56.455"/>
			<ellipse fill="none" stroke="#949394" stroke-miterlimit="10" cx="1259.546" cy="56.455" rx="12.436" ry="12.423"/>
			<path fill="#AFAFAF" d="M1268.683,56.455c0,5.04-4.091,9.128-9.137,9.128s-9.137-4.088-9.137-9.128
				c0-5.042,4.091-9.13,9.137-9.13S1268.683,51.413,1268.683,56.455"/>
			<ellipse fill="none" stroke="#949394" stroke-miterlimit="10" cx="1259.546" cy="56.455" rx="9.137" ry="9.128"/>
			<g>
				<g>
					<defs>
						<rect id="SVGID_8_" x="1250.932" y="47.851" width="17.229" height="17.207"/>
					</defs>
					<clipPath id="SVGID_9_">
						<use xlink:href="#SVGID_8_"  overflow="visible"/>
					</clipPath>
					<path clip-path="url(#SVGID_9_)" fill="#BFBFBF" d="M1268.157,56.455c0,4.751-3.855,8.603-8.611,8.603
						s-8.611-3.852-8.611-8.603c0-4.752,3.855-8.604,8.611-8.604S1268.157,51.703,1268.157,56.455"/>
					<path clip-path="url(#SVGID_9_)" fill="#C1C1C1" d="M1267.955,56.455c0,4.639-3.766,8.399-8.409,8.399
						c-4.645,0-8.408-3.761-8.408-8.399c0-4.64,3.764-8.401,8.408-8.401C1264.189,48.054,1267.955,51.815,1267.955,56.455"/>
					<path clip-path="url(#SVGID_9_)" fill="#C3C4C4" d="M1267.752,56.455c0,4.527-3.674,8.198-8.206,8.198
						s-8.206-3.671-8.206-8.198c0-4.528,3.674-8.2,8.206-8.2S1267.752,51.927,1267.752,56.455"/>
					<path clip-path="url(#SVGID_9_)" fill="#C5C6C6" d="M1267.55,56.455c0,4.416-3.583,7.996-8.004,7.996s-8.004-3.58-8.004-7.996
						c0-4.417,3.583-7.996,8.004-7.996S1267.55,52.038,1267.55,56.455"/>
					<path clip-path="url(#SVGID_9_)" fill="#C7C9C9" d="M1267.348,56.455c0,4.303-3.494,7.793-7.802,7.793s-7.801-3.49-7.801-7.793
						c0-4.305,3.493-7.795,7.801-7.795S1267.348,52.15,1267.348,56.455"/>
					<path clip-path="url(#SVGID_9_)" fill="#CACBCB" d="M1267.145,56.455c0,4.191-3.401,7.591-7.599,7.591
						c-4.196,0-7.599-3.399-7.599-7.591c0-4.193,3.402-7.593,7.599-7.593C1263.743,48.862,1267.145,52.262,1267.145,56.455"/>
					<path clip-path="url(#SVGID_9_)" fill="#CCCECE" d="M1266.942,56.455c0,4.079-3.313,7.389-7.396,7.389
						c-4.085,0-7.396-3.31-7.396-7.389c0-4.082,3.311-7.391,7.396-7.391C1263.63,49.064,1266.942,52.373,1266.942,56.455"/>
					<path clip-path="url(#SVGID_9_)" fill="#CED0D0" d="M1266.74,56.455c0,3.968-3.222,7.187-7.194,7.187s-7.194-3.219-7.194-7.187
						c0-3.971,3.222-7.188,7.194-7.188S1266.74,52.484,1266.74,56.455"/>
					<path clip-path="url(#SVGID_9_)" fill="#D1D3D3" d="M1266.537,56.455c0,3.856-3.13,6.984-6.991,6.984
						c-3.86,0-6.991-3.128-6.991-6.984c0-3.857,3.131-6.986,6.991-6.986C1263.407,49.469,1266.537,52.598,1266.537,56.455"/>
					<path clip-path="url(#SVGID_9_)" fill="#D3D5D5" d="M1266.334,56.455c0,3.744-3.039,6.781-6.788,6.781
						s-6.788-3.037-6.788-6.781c0-3.746,3.039-6.783,6.788-6.783S1266.334,52.709,1266.334,56.455"/>
				</g>
			</g>
			<polygon fill="#5F5F5E" points="1258.422,61.627 1258.422,57.578 1254.368,57.578 1254.368,55.33 1258.422,55.33 1258.422,51.28 
				1260.671,51.28 1260.671,55.33 1264.725,55.33 1264.725,57.578 1260.671,57.578 1260.671,61.627 			"/>
			<path fill="#231815" d="M1260.477,51.477v3.659v0.39h0.39h3.663v1.858h-3.663h-0.39v0.389v3.66h-1.86v-3.66v-0.389h-0.39h-3.664
				v-1.858h3.664h0.39v-0.39v-3.659H1260.477z M1260.866,51.087h-2.64v4.049h-4.054v2.637h4.054v4.05h2.64v-4.05h4.052v-2.637
				h-4.052V51.087z"/>
		</g>
	</g>
	<g>
		<g>
			<path fill="#AFAFAF" d="M1271.981,193.537c0,6.86-5.567,12.423-12.436,12.423s-12.436-5.563-12.436-12.423
				c0-6.862,5.567-12.425,12.436-12.425S1271.981,186.675,1271.981,193.537"/>
			<ellipse fill="none" stroke="#949394" stroke-miterlimit="10" cx="1259.546" cy="193.537" rx="12.436" ry="12.423"/>
			<path fill="#AFAFAF" d="M1268.683,193.537c0,5.04-4.091,9.128-9.137,9.128s-9.137-4.088-9.137-9.128
				c0-5.042,4.091-9.13,9.137-9.13S1268.683,188.495,1268.683,193.537"/>
			<ellipse fill="none" stroke="#949394" stroke-miterlimit="10" cx="1259.546" cy="193.537" rx="9.137" ry="9.128"/>
			<g>
				<g>
					<defs>
						<rect id="SVGID_10_" x="1250.932" y="184.933" width="17.229" height="17.207"/>
					</defs>
					<clipPath id="SVGID_11_">
						<use xlink:href="#SVGID_10_"  overflow="visible"/>
					</clipPath>
					<path clip-path="url(#SVGID_11_)" fill="#BFBFBF" d="M1268.157,193.537c0,4.751-3.855,8.603-8.611,8.603
						s-8.611-3.852-8.611-8.603c0-4.752,3.855-8.604,8.611-8.604S1268.157,188.785,1268.157,193.537"/>
					<path clip-path="url(#SVGID_11_)" fill="#C1C1C1" d="M1267.955,193.537c0,4.639-3.766,8.399-8.409,8.399
						c-4.645,0-8.408-3.761-8.408-8.399c0-4.64,3.764-8.401,8.408-8.401C1264.189,185.136,1267.955,188.897,1267.955,193.537"/>
					<path clip-path="url(#SVGID_11_)" fill="#C3C4C4" d="M1267.752,193.537c0,4.527-3.674,8.198-8.206,8.198
						s-8.206-3.671-8.206-8.198c0-4.528,3.674-8.2,8.206-8.2S1267.752,189.009,1267.752,193.537"/>
					<path clip-path="url(#SVGID_11_)" fill="#C5C6C6" d="M1267.55,193.537c0,4.416-3.583,7.996-8.004,7.996
						s-8.004-3.58-8.004-7.996c0-4.417,3.583-7.996,8.004-7.996S1267.55,189.12,1267.55,193.537"/>
					<path clip-path="url(#SVGID_11_)" fill="#C7C9C9" d="M1267.348,193.537c0,4.303-3.494,7.793-7.802,7.793
						s-7.801-3.49-7.801-7.793c0-4.305,3.493-7.795,7.801-7.795S1267.348,189.232,1267.348,193.537"/>
					<path clip-path="url(#SVGID_11_)" fill="#CACBCB" d="M1267.145,193.537c0,4.191-3.401,7.591-7.599,7.591
						c-4.196,0-7.599-3.399-7.599-7.591c0-4.193,3.402-7.593,7.599-7.593C1263.743,185.944,1267.145,189.344,1267.145,193.537"/>
					<path clip-path="url(#SVGID_11_)" fill="#CCCECE" d="M1266.942,193.537c0,4.079-3.313,7.389-7.396,7.389
						c-4.085,0-7.396-3.31-7.396-7.389c0-4.082,3.311-7.391,7.396-7.391C1263.63,186.146,1266.942,189.455,1266.942,193.537"/>
					<path clip-path="url(#SVGID_11_)" fill="#CED0D0" d="M1266.74,193.537c0,3.968-3.222,7.187-7.194,7.187
						s-7.194-3.219-7.194-7.187c0-3.971,3.222-7.188,7.194-7.188S1266.74,189.566,1266.74,193.537"/>
					<path clip-path="url(#SVGID_11_)" fill="#D1D3D3" d="M1266.537,193.537c0,3.856-3.13,6.984-6.991,6.984
						c-3.86,0-6.991-3.128-6.991-6.984c0-3.857,3.131-6.986,6.991-6.986C1263.407,186.551,1266.537,189.68,1266.537,193.537"/>
					<path clip-path="url(#SVGID_11_)" fill="#D3D5D5" d="M1266.334,193.537c0,3.744-3.039,6.781-6.788,6.781
						s-6.788-3.037-6.788-6.781c0-3.746,3.039-6.783,6.788-6.783S1266.334,189.791,1266.334,193.537"/>
				</g>
			</g>
			<polygon fill="#5F5F5E" points="1258.422,198.709 1258.422,194.66 1254.368,194.66 1254.368,192.412 1258.422,192.412 
				1258.422,188.362 1260.671,188.362 1260.671,192.412 1264.725,192.412 1264.725,194.66 1260.671,194.66 1260.671,198.709 			"/>
			<path fill="#231815" d="M1260.477,188.559v3.659v0.39h0.39h3.663v1.858h-3.663h-0.39v0.389v3.66h-1.86v-3.66v-0.389h-0.39h-3.664
				v-1.858h3.664h0.39v-0.39v-3.659H1260.477z M1260.866,188.169h-2.64v4.049h-4.054v2.637h4.054v4.05h2.64v-4.05h4.052v-2.637
				h-4.052V188.169z"/>
		</g>
		<g>
			<path fill="#AFAFAF" d="M1271.981,227.979c0,6.86-5.567,12.423-12.436,12.423s-12.436-5.563-12.436-12.423
				c0-6.862,5.567-12.425,12.436-12.425S1271.981,221.116,1271.981,227.979"/>
			<ellipse fill="none" stroke="#949394" stroke-miterlimit="10" cx="1259.546" cy="227.979" rx="12.436" ry="12.423"/>
			<path fill="#AFAFAF" d="M1268.683,227.979c0,5.04-4.091,9.128-9.137,9.128s-9.137-4.088-9.137-9.128
				c0-5.042,4.091-9.13,9.137-9.13S1268.683,222.937,1268.683,227.979"/>
			<ellipse fill="none" stroke="#949394" stroke-miterlimit="10" cx="1259.546" cy="227.979" rx="9.137" ry="9.128"/>
			<g>
				<g>
					<defs>
						<rect id="SVGID_12_" x="1250.932" y="219.374" width="17.229" height="17.207"/>
					</defs>
					<clipPath id="SVGID_13_">
						<use xlink:href="#SVGID_12_"  overflow="visible"/>
					</clipPath>
					<path clip-path="url(#SVGID_13_)" fill="#BFBFBF" d="M1268.157,227.979c0,4.751-3.855,8.603-8.611,8.603
						s-8.611-3.852-8.611-8.603c0-4.752,3.855-8.604,8.611-8.604S1268.157,223.227,1268.157,227.979"/>
					<path clip-path="url(#SVGID_13_)" fill="#C1C1C1" d="M1267.955,227.979c0,4.639-3.766,8.399-8.409,8.399
						c-4.645,0-8.408-3.761-8.408-8.399c0-4.64,3.764-8.401,8.408-8.401C1264.189,219.577,1267.955,223.339,1267.955,227.979"/>
					<path clip-path="url(#SVGID_13_)" fill="#C3C4C4" d="M1267.752,227.979c0,4.527-3.674,8.198-8.206,8.198
						s-8.206-3.671-8.206-8.198c0-4.528,3.674-8.2,8.206-8.2S1267.752,223.45,1267.752,227.979"/>
					<path clip-path="url(#SVGID_13_)" fill="#C5C6C6" d="M1267.55,227.979c0,4.416-3.583,7.996-8.004,7.996
						s-8.004-3.58-8.004-7.996c0-4.417,3.583-7.996,8.004-7.996S1267.55,223.562,1267.55,227.979"/>
					<path clip-path="url(#SVGID_13_)" fill="#C7C9C9" d="M1267.348,227.979c0,4.303-3.494,7.793-7.802,7.793
						s-7.801-3.49-7.801-7.793c0-4.305,3.493-7.795,7.801-7.795S1267.348,223.674,1267.348,227.979"/>
					<path clip-path="url(#SVGID_13_)" fill="#CACBCB" d="M1267.145,227.979c0,4.191-3.401,7.591-7.599,7.591
						c-4.196,0-7.599-3.399-7.599-7.591c0-4.193,3.402-7.593,7.599-7.593C1263.743,220.386,1267.145,223.785,1267.145,227.979"/>
					<path clip-path="url(#SVGID_13_)" fill="#CCCECE" d="M1266.942,227.979c0,4.079-3.313,7.389-7.396,7.389
						c-4.085,0-7.396-3.31-7.396-7.389c0-4.082,3.311-7.391,7.396-7.391C1263.63,220.588,1266.942,223.896,1266.942,227.979"/>
					<path clip-path="url(#SVGID_13_)" fill="#CED0D0" d="M1266.74,227.979c0,3.968-3.222,7.187-7.194,7.187
						s-7.194-3.219-7.194-7.187c0-3.971,3.222-7.188,7.194-7.188S1266.74,224.008,1266.74,227.979"/>
					<path clip-path="url(#SVGID_13_)" fill="#D1D3D3" d="M1266.537,227.979c0,3.856-3.13,6.984-6.991,6.984
						c-3.86,0-6.991-3.128-6.991-6.984c0-3.857,3.131-6.986,6.991-6.986C1263.407,220.992,1266.537,224.121,1266.537,227.979"/>
					<path clip-path="url(#SVGID_13_)" fill="#D3D5D5" d="M1266.334,227.979c0,3.744-3.039,6.781-6.788,6.781
						s-6.788-3.037-6.788-6.781c0-3.746,3.039-6.783,6.788-6.783S1266.334,224.232,1266.334,227.979"/>
				</g>
			</g>
			<polygon fill="#5F5F5E" points="1258.422,233.15 1258.422,229.102 1254.368,229.102 1254.368,226.854 1258.422,226.854 
				1258.422,222.804 1260.671,222.804 1260.671,226.854 1264.725,226.854 1264.725,229.102 1260.671,229.102 1260.671,233.15 			"/>
			<path fill="#231815" d="M1260.477,223v3.659v0.39h0.39h3.663v1.858h-3.663h-0.39v0.389v3.66h-1.86v-3.66v-0.389h-0.39h-3.664
				v-1.858h3.664h0.39v-0.39V223H1260.477z M1260.866,222.61h-2.64v4.049h-4.054v2.637h4.054v4.05h2.64v-4.05h4.052v-2.637h-4.052
				V222.61z"/>
		</g>
	</g>
</g>
<g>
	<g>
		<g>
			<path fill="#AFAFAF" d="M28.144,22.014c0,6.86-5.567,12.423-12.436,12.423S3.272,28.874,3.272,22.014
				c0-6.862,5.567-12.425,12.436-12.425S28.144,15.151,28.144,22.014"/>
			<ellipse fill="none" stroke="#949394" stroke-miterlimit="10" cx="15.708" cy="22.014" rx="12.436" ry="12.423"/>
			<path fill="#AFAFAF" d="M24.845,22.014c0,5.04-4.091,9.128-9.137,9.128s-9.137-4.088-9.137-9.128c0-5.042,4.091-9.13,9.137-9.13
				S24.845,16.972,24.845,22.014"/>
			<ellipse fill="none" stroke="#949394" stroke-miterlimit="10" cx="15.708" cy="22.014" rx="9.137" ry="9.128"/>
			<g>
				<g>
					<defs>
						<rect id="SVGID_14_" x="7.094" y="13.409" width="17.228" height="17.207"/>
					</defs>
					<clipPath id="SVGID_15_">
						<use xlink:href="#SVGID_14_"  overflow="visible"/>
					</clipPath>
					<path clip-path="url(#SVGID_15_)" fill="#BFBFBF" d="M24.319,22.014c0,4.751-3.855,8.603-8.611,8.603s-8.611-3.852-8.611-8.603
						c0-4.752,3.855-8.604,8.611-8.604S24.319,17.262,24.319,22.014"/>
					<path clip-path="url(#SVGID_15_)" fill="#C1C1C1" d="M24.117,22.014c0,4.639-3.765,8.399-8.409,8.399
						c-4.645,0-8.408-3.761-8.408-8.399c0-4.64,3.764-8.401,8.408-8.401C20.352,13.612,24.117,17.374,24.117,22.014"/>
					<path clip-path="url(#SVGID_15_)" fill="#C3C4C4" d="M23.914,22.014c0,4.527-3.673,8.198-8.206,8.198
						c-4.532,0-8.206-3.671-8.206-8.198c0-4.528,3.674-8.2,8.206-8.2C20.241,13.813,23.914,17.485,23.914,22.014"/>
					<path clip-path="url(#SVGID_15_)" fill="#C5C6C6" d="M23.712,22.014c0,4.416-3.583,7.996-8.004,7.996s-8.004-3.58-8.004-7.996
						c0-4.417,3.583-7.996,8.004-7.996S23.712,17.597,23.712,22.014"/>
					<path clip-path="url(#SVGID_15_)" fill="#C7C9C9" d="M23.51,22.014c0,4.303-3.494,7.793-7.802,7.793s-7.801-3.49-7.801-7.793
						c0-4.305,3.493-7.795,7.801-7.795S23.51,17.709,23.51,22.014"/>
					<path clip-path="url(#SVGID_15_)" fill="#CACBCB" d="M23.307,22.014c0,4.191-3.401,7.591-7.599,7.591
						c-4.197,0-7.599-3.399-7.599-7.591c0-4.193,3.402-7.593,7.599-7.593C19.905,14.421,23.307,17.82,23.307,22.014"/>
					<path clip-path="url(#SVGID_15_)" fill="#CCCECE" d="M23.104,22.014c0,4.079-3.313,7.389-7.396,7.389
						c-4.085,0-7.396-3.31-7.396-7.389c0-4.082,3.311-7.391,7.396-7.391C19.792,14.623,23.104,17.932,23.104,22.014"/>
					<path clip-path="url(#SVGID_15_)" fill="#CED0D0" d="M22.902,22.014c0,3.968-3.221,7.187-7.194,7.187s-7.194-3.219-7.194-7.187
						c0-3.971,3.221-7.188,7.194-7.188S22.902,18.043,22.902,22.014"/>
					<path clip-path="url(#SVGID_15_)" fill="#D1D3D3" d="M22.699,22.014c0,3.856-3.13,6.984-6.991,6.984
						c-3.86,0-6.991-3.128-6.991-6.984c0-3.857,3.13-6.986,6.991-6.986C19.569,15.027,22.699,18.156,22.699,22.014"/>
					<path clip-path="url(#SVGID_15_)" fill="#D3D5D5" d="M22.496,22.014c0,3.744-3.039,6.781-6.788,6.781
						c-3.75,0-6.789-3.037-6.789-6.781c0-3.746,3.039-6.783,6.789-6.783C19.457,15.23,22.496,18.268,22.496,22.014"/>
				</g>
			</g>
			<polygon fill="#5F5F5E" points="14.583,27.186 14.583,23.137 10.53,23.137 10.53,20.889 14.583,20.889 14.583,16.839 
				16.833,16.839 16.833,20.889 20.887,20.889 20.887,23.137 16.833,23.137 16.833,27.186 			"/>
			<path fill="#231815" d="M16.639,17.035v3.659v0.39h0.39h3.663v1.858h-3.663h-0.39v0.389v3.66h-1.86v-3.66v-0.389h-0.39h-3.664
				v-1.858h3.664h0.39v-0.39v-3.659H16.639z M17.028,16.646h-2.64v4.049h-4.054v2.637h4.054v4.05h2.64v-4.05h4.052v-2.637h-4.052
				V16.646z"/>
		</g>
		<g>
			<path fill="#AFAFAF" d="M28.144,56.455c0,6.86-5.567,12.423-12.436,12.423S3.272,63.315,3.272,56.455
				c0-6.862,5.567-12.425,12.436-12.425S28.144,49.593,28.144,56.455"/>
			<ellipse fill="none" stroke="#949394" stroke-miterlimit="10" cx="15.708" cy="56.455" rx="12.436" ry="12.423"/>
			<path fill="#AFAFAF" d="M24.845,56.455c0,5.04-4.091,9.128-9.137,9.128s-9.137-4.088-9.137-9.128c0-5.042,4.091-9.13,9.137-9.13
				S24.845,51.413,24.845,56.455"/>
			<ellipse fill="none" stroke="#949394" stroke-miterlimit="10" cx="15.708" cy="56.455" rx="9.137" ry="9.128"/>
			<g>
				<g>
					<defs>
						<rect id="SVGID_16_" x="7.094" y="47.851" width="17.228" height="17.207"/>
					</defs>
					<clipPath id="SVGID_17_">
						<use xlink:href="#SVGID_16_"  overflow="visible"/>
					</clipPath>
					<path clip-path="url(#SVGID_17_)" fill="#BFBFBF" d="M24.319,56.455c0,4.751-3.855,8.603-8.611,8.603s-8.611-3.852-8.611-8.603
						c0-4.752,3.855-8.604,8.611-8.604S24.319,51.703,24.319,56.455"/>
					<path clip-path="url(#SVGID_17_)" fill="#C1C1C1" d="M24.117,56.455c0,4.639-3.765,8.399-8.409,8.399
						c-4.645,0-8.408-3.761-8.408-8.399c0-4.64,3.764-8.401,8.408-8.401C20.352,48.054,24.117,51.815,24.117,56.455"/>
					<path clip-path="url(#SVGID_17_)" fill="#C3C4C4" d="M23.914,56.455c0,4.527-3.673,8.198-8.206,8.198
						c-4.532,0-8.206-3.671-8.206-8.198c0-4.528,3.674-8.2,8.206-8.2C20.241,48.255,23.914,51.927,23.914,56.455"/>
					<path clip-path="url(#SVGID_17_)" fill="#C5C6C6" d="M23.712,56.455c0,4.416-3.583,7.996-8.004,7.996s-8.004-3.58-8.004-7.996
						c0-4.417,3.583-7.996,8.004-7.996S23.712,52.038,23.712,56.455"/>
					<path clip-path="url(#SVGID_17_)" fill="#C7C9C9" d="M23.51,56.455c0,4.303-3.494,7.793-7.802,7.793s-7.801-3.49-7.801-7.793
						c0-4.305,3.493-7.795,7.801-7.795S23.51,52.15,23.51,56.455"/>
					<path clip-path="url(#SVGID_17_)" fill="#CACBCB" d="M23.307,56.455c0,4.191-3.401,7.591-7.599,7.591
						c-4.197,0-7.599-3.399-7.599-7.591c0-4.193,3.402-7.593,7.599-7.593C19.905,48.862,23.307,52.262,23.307,56.455"/>
					<path clip-path="url(#SVGID_17_)" fill="#CCCECE" d="M23.104,56.455c0,4.079-3.313,7.389-7.396,7.389
						c-4.085,0-7.396-3.31-7.396-7.389c0-4.082,3.311-7.391,7.396-7.391C19.792,49.064,23.104,52.373,23.104,56.455"/>
					<path clip-path="url(#SVGID_17_)" fill="#CED0D0" d="M22.902,56.455c0,3.968-3.221,7.187-7.194,7.187s-7.194-3.219-7.194-7.187
						c0-3.971,3.221-7.188,7.194-7.188S22.902,52.484,22.902,56.455"/>
					<path clip-path="url(#SVGID_17_)" fill="#D1D3D3" d="M22.699,56.455c0,3.856-3.13,6.984-6.991,6.984
						c-3.86,0-6.991-3.128-6.991-6.984c0-3.857,3.13-6.986,6.991-6.986C19.569,49.469,22.699,52.598,22.699,56.455"/>
					<path clip-path="url(#SVGID_17_)" fill="#D3D5D5" d="M22.496,56.455c0,3.744-3.039,6.781-6.788,6.781
						c-3.75,0-6.789-3.037-6.789-6.781c0-3.746,3.039-6.783,6.789-6.783C19.457,49.672,22.496,52.709,22.496,56.455"/>
				</g>
			</g>
			<polygon fill="#5F5F5E" points="14.583,61.627 14.583,57.578 10.53,57.578 10.53,55.33 14.583,55.33 14.583,51.28 16.833,51.28 
				16.833,55.33 20.887,55.33 20.887,57.578 16.833,57.578 16.833,61.627 			"/>
			<path fill="#231815" d="M16.639,51.477v3.659v0.39h0.39h3.663v1.858h-3.663h-0.39v0.389v3.66h-1.86v-3.66v-0.389h-0.39h-3.664
				v-1.858h3.664h0.39v-0.39v-3.659H16.639z M17.028,51.087h-2.64v4.049h-4.054v2.637h4.054v4.05h2.64v-4.05h4.052v-2.637h-4.052
				V51.087z"/>
		</g>
	</g>
	<g>
		<g>
			<path fill="#AFAFAF" d="M28.144,193.537c0,6.86-5.567,12.423-12.436,12.423s-12.436-5.563-12.436-12.423
				c0-6.862,5.567-12.425,12.436-12.425S28.144,186.675,28.144,193.537"/>
			<ellipse fill="none" stroke="#949394" stroke-miterlimit="10" cx="15.708" cy="193.537" rx="12.436" ry="12.423"/>
			<path fill="#AFAFAF" d="M24.845,193.537c0,5.04-4.091,9.128-9.137,9.128s-9.137-4.088-9.137-9.128c0-5.042,4.091-9.13,9.137-9.13
				S24.845,188.495,24.845,193.537"/>
			<ellipse fill="none" stroke="#949394" stroke-miterlimit="10" cx="15.708" cy="193.537" rx="9.137" ry="9.128"/>
			<g>
				<g>
					<defs>
						<rect id="SVGID_18_" x="7.094" y="184.933" width="17.228" height="17.207"/>
					</defs>
					<clipPath id="SVGID_19_">
						<use xlink:href="#SVGID_18_"  overflow="visible"/>
					</clipPath>
					<path clip-path="url(#SVGID_19_)" fill="#BFBFBF" d="M24.319,193.537c0,4.751-3.855,8.603-8.611,8.603
						s-8.611-3.852-8.611-8.603c0-4.752,3.855-8.604,8.611-8.604S24.319,188.785,24.319,193.537"/>
					<path clip-path="url(#SVGID_19_)" fill="#C1C1C1" d="M24.117,193.537c0,4.639-3.765,8.399-8.409,8.399
						c-4.645,0-8.408-3.761-8.408-8.399c0-4.64,3.764-8.401,8.408-8.401C20.352,185.136,24.117,188.897,24.117,193.537"/>
					<path clip-path="url(#SVGID_19_)" fill="#C3C4C4" d="M23.914,193.537c0,4.527-3.673,8.198-8.206,8.198
						c-4.532,0-8.206-3.671-8.206-8.198c0-4.528,3.674-8.2,8.206-8.2C20.241,185.337,23.914,189.009,23.914,193.537"/>
					<path clip-path="url(#SVGID_19_)" fill="#C5C6C6" d="M23.712,193.537c0,4.416-3.583,7.996-8.004,7.996s-8.004-3.58-8.004-7.996
						c0-4.417,3.583-7.996,8.004-7.996S23.712,189.12,23.712,193.537"/>
					<path clip-path="url(#SVGID_19_)" fill="#C7C9C9" d="M23.51,193.537c0,4.303-3.494,7.793-7.802,7.793s-7.801-3.49-7.801-7.793
						c0-4.305,3.493-7.795,7.801-7.795S23.51,189.232,23.51,193.537"/>
					<path clip-path="url(#SVGID_19_)" fill="#CACBCB" d="M23.307,193.537c0,4.191-3.401,7.591-7.599,7.591
						c-4.197,0-7.599-3.399-7.599-7.591c0-4.193,3.402-7.593,7.599-7.593C19.905,185.944,23.307,189.344,23.307,193.537"/>
					<path clip-path="url(#SVGID_19_)" fill="#CCCECE" d="M23.104,193.537c0,4.079-3.313,7.389-7.396,7.389
						c-4.085,0-7.396-3.31-7.396-7.389c0-4.082,3.311-7.391,7.396-7.391C19.792,186.146,23.104,189.455,23.104,193.537"/>
					<path clip-path="url(#SVGID_19_)" fill="#CED0D0" d="M22.902,193.537c0,3.968-3.221,7.187-7.194,7.187
						s-7.194-3.219-7.194-7.187c0-3.971,3.221-7.188,7.194-7.188S22.902,189.566,22.902,193.537"/>
					<path clip-path="url(#SVGID_19_)" fill="#D1D3D3" d="M22.699,193.537c0,3.856-3.13,6.984-6.991,6.984
						c-3.86,0-6.991-3.128-6.991-6.984c0-3.857,3.13-6.986,6.991-6.986C19.569,186.551,22.699,189.68,22.699,193.537"/>
					<path clip-path="url(#SVGID_19_)" fill="#D3D5D5" d="M22.496,193.537c0,3.744-3.039,6.781-6.788,6.781
						c-3.75,0-6.789-3.037-6.789-6.781c0-3.746,3.039-6.783,6.789-6.783C19.457,186.754,22.496,189.791,22.496,193.537"/>
				</g>
			</g>
			<polygon fill="#5F5F5E" points="14.583,198.709 14.583,194.66 10.53,194.66 10.53,192.412 14.583,192.412 14.583,188.362 
				16.833,188.362 16.833,192.412 20.887,192.412 20.887,194.66 16.833,194.66 16.833,198.709 			"/>
			<path fill="#231815" d="M16.639,188.559v3.659v0.39h0.39h3.663v1.858h-3.663h-0.39v0.389v3.66h-1.86v-3.66v-0.389h-0.39h-3.664
				v-1.858h3.664h0.39v-0.39v-3.659H16.639z M17.028,188.169h-2.64v4.049h-4.054v2.637h4.054v4.05h2.64v-4.05h4.052v-2.637h-4.052
				V188.169z"/>
		</g>
		<g>
			<path fill="#AFAFAF" d="M28.144,227.979c0,6.86-5.567,12.423-12.436,12.423s-12.436-5.563-12.436-12.423
				c0-6.862,5.567-12.425,12.436-12.425S28.144,221.116,28.144,227.979"/>
			<ellipse fill="none" stroke="#949394" stroke-miterlimit="10" cx="15.708" cy="227.979" rx="12.436" ry="12.423"/>
			<path fill="#AFAFAF" d="M24.845,227.979c0,5.04-4.091,9.128-9.137,9.128s-9.137-4.088-9.137-9.128c0-5.042,4.091-9.13,9.137-9.13
				S24.845,222.937,24.845,227.979"/>
			<ellipse fill="none" stroke="#949394" stroke-miterlimit="10" cx="15.708" cy="227.979" rx="9.137" ry="9.128"/>
			<g>
				<g>
					<defs>
						<rect id="SVGID_20_" x="7.094" y="219.374" width="17.228" height="17.207"/>
					</defs>
					<clipPath id="SVGID_21_">
						<use xlink:href="#SVGID_20_"  overflow="visible"/>
					</clipPath>
					<path clip-path="url(#SVGID_21_)" fill="#BFBFBF" d="M24.319,227.979c0,4.751-3.855,8.603-8.611,8.603
						s-8.611-3.852-8.611-8.603c0-4.752,3.855-8.604,8.611-8.604S24.319,223.227,24.319,227.979"/>
					<path clip-path="url(#SVGID_21_)" fill="#C1C1C1" d="M24.117,227.979c0,4.639-3.765,8.399-8.409,8.399
						c-4.645,0-8.408-3.761-8.408-8.399c0-4.64,3.764-8.401,8.408-8.401C20.352,219.577,24.117,223.339,24.117,227.979"/>
					<path clip-path="url(#SVGID_21_)" fill="#C3C4C4" d="M23.914,227.979c0,4.527-3.673,8.198-8.206,8.198
						c-4.532,0-8.206-3.671-8.206-8.198c0-4.528,3.674-8.2,8.206-8.2C20.241,219.778,23.914,223.45,23.914,227.979"/>
					<path clip-path="url(#SVGID_21_)" fill="#C5C6C6" d="M23.712,227.979c0,4.416-3.583,7.996-8.004,7.996s-8.004-3.58-8.004-7.996
						c0-4.417,3.583-7.996,8.004-7.996S23.712,223.562,23.712,227.979"/>
					<path clip-path="url(#SVGID_21_)" fill="#C7C9C9" d="M23.51,227.979c0,4.303-3.494,7.793-7.802,7.793s-7.801-3.49-7.801-7.793
						c0-4.305,3.493-7.795,7.801-7.795S23.51,223.674,23.51,227.979"/>
					<path clip-path="url(#SVGID_21_)" fill="#CACBCB" d="M23.307,227.979c0,4.191-3.401,7.591-7.599,7.591
						c-4.197,0-7.599-3.399-7.599-7.591c0-4.193,3.402-7.593,7.599-7.593C19.905,220.386,23.307,223.785,23.307,227.979"/>
					<path clip-path="url(#SVGID_21_)" fill="#CCCECE" d="M23.104,227.979c0,4.079-3.313,7.389-7.396,7.389
						c-4.085,0-7.396-3.31-7.396-7.389c0-4.082,3.311-7.391,7.396-7.391C19.792,220.588,23.104,223.896,23.104,227.979"/>
					<path clip-path="url(#SVGID_21_)" fill="#CED0D0" d="M22.902,227.979c0,3.968-3.221,7.187-7.194,7.187
						s-7.194-3.219-7.194-7.187c0-3.971,3.221-7.188,7.194-7.188S22.902,224.008,22.902,227.979"/>
					<path clip-path="url(#SVGID_21_)" fill="#D1D3D3" d="M22.699,227.979c0,3.856-3.13,6.984-6.991,6.984
						c-3.86,0-6.991-3.128-6.991-6.984c0-3.857,3.13-6.986,6.991-6.986C19.569,220.992,22.699,224.121,22.699,227.979"/>
					<path clip-path="url(#SVGID_21_)" fill="#D3D5D5" d="M22.496,227.979c0,3.744-3.039,6.781-6.788,6.781
						c-3.75,0-6.789-3.037-6.789-6.781c0-3.746,3.039-6.783,6.789-6.783C19.457,221.195,22.496,224.232,22.496,227.979"/>
				</g>
			</g>
			<polygon fill="#5F5F5E" points="14.583,233.15 14.583,229.102 10.53,229.102 10.53,226.854 14.583,226.854 14.583,222.804 
				16.833,222.804 16.833,226.854 20.887,226.854 20.887,229.102 16.833,229.102 16.833,233.15 			"/>
			<path fill="#231815" d="M16.639,223v3.659v0.39h0.39h3.663v1.858h-3.663h-0.39v0.389v3.66h-1.86v-3.66v-0.389h-0.39h-3.664
				v-1.858h3.664h0.39v-0.39V223H16.639z M17.028,222.61h-2.64v4.049h-4.054v2.637h4.054v4.05h2.64v-4.05h4.052v-2.637h-4.052
				V222.61z"/>
		</g>
	</g>
</g>
<text transform="matrix(1 0 0 1 305.0991 178.4043)" fill="#F4F4F4" font-family="'CTCuHeiSJ'" font-size="10.2052">RUN</text>
<text transform="matrix(1 0 0 1 305.0991 192.4326)" fill="#F4F4F4" font-family="'CTCuHeiSJ'" font-size="10.2052">M/S</text>
<text transform="matrix(1 0 0 1 305.0991 208.998)" fill="#F4F4F4" font-family="'CTCuHeiSJ'" font-size="10.2052">MGMT</text>
<text transform="matrix(1 0 0 1 305.0991 224.6519)" fill="#F4F4F4" font-family="'CTCuHeiSJ'" font-size="10.2052">LOG</text>
<circle fill="#B4D89E" stroke="#151515" stroke-miterlimit="10" cx="294.527" cy="173.977" r="4.714"/>
<circle fill="#DCD546" stroke="#151515" stroke-miterlimit="10" cx="294.527" cy="189.63" r="4.714"/>
<circle fill="#DCD546" stroke="#151515" stroke-miterlimit="10" cx="294.527" cy="205.283" r="4.714"/>
<circle fill="#DCD546" stroke="#151515" stroke-miterlimit="10" cx="294.527" cy="220.937" r="4.714"/>
<rect x="223.733" y="186.426" fill="#828282" width="49.435" height="36.428"/>
<rect x="136.737" y="186.426" fill="#828282" width="49.435" height="36.428"/>
<text transform="matrix(1 0 0 1 141.1758 181.4063)" fill="#EDEDED" font-family="'CTCuHeiSJ'" font-size="8">CONSOLE</text>
<text transform="matrix(1 0 0 1 190.1807 181.4063)" fill="#EDEDED" font-family="'CTCuHeiSJ'" font-size="8">seckey</text>
<text transform="matrix(1 0 0 1 225.1826 233.4009)" fill="#EDEDED" font-family="'CTCuHeiSJ'" font-size="8">LNK</text>
<text transform="matrix(1 0 0 1 255.792 233.4009)" fill="#EDEDED" font-family="'CTCuHeiSJ'" font-size="8">SPD</text>
<text transform="matrix(1 0 0 1 225.1826 149.4019)" fill="#EDEDED" font-family="'CTCuHeiSJ'" font-size="8">LNK</text>
<text transform="matrix(1 0 0 1 255.792 149.4019)" fill="#EDEDED" font-family="'CTCuHeiSJ'" font-size="8">SPD</text>
<text transform="matrix(1 0 0 1 242.1826 138.9121)" fill="#EDEDED" font-family="'CTCuHeiSJ'" font-size="8">HA</text>
<text transform="matrix(1 0 0 1 237.1792 243.0698)" fill="#EDEDED" font-family="'CTCuHeiSJ'" font-size="8">MGMT</text>
<rect x="223.733" y="153.204" fill="#828282" width="49.435" height="36.427"/>
</svg>
