<?xml version="1.0" encoding="utf-8"?>
<!-- Generator: Adobe Illustrator 16.0.0, SVG Export Plug-In . SVG Version: 6.00 Build 0)  -->
<!DOCTYPE svg PUBLIC "-//W3C//DTD SVG 1.1//EN" "http://www.w3.org/Graphics/SVG/1.1/DTD/svg11.dtd">
<svg version="1.1" id="图层_1" xmlns="http://www.w3.org/2000/svg" xmlns:xlink="http://www.w3.org/1999/xlink" x="0px" y="0px"
	 width="1275.591px" height="252.285px" viewBox="0 0 1275.591 252.285" enable-background="new 0 0 1275.591 252.285"
	 xml:space="preserve">
<g>
	<rect fill="#2F3030" width="1275.59" height="126.143"/>
	<rect y="126.143" fill="#2F3030" width="1275.59" height="126.143"/>
</g>
<g>
	<text transform="matrix(1 0 0 1 396.6606 63.1812)" fill="#F4F4F4" font-family="'CTCuHeiSJ'" font-size="12.2939">PWR</text>
	<text transform="matrix(1 0 0 1 396.6606 80.0815)" fill="#F4F4F4" font-family="'CTCuHeiSJ'" font-size="12.2939">HOD</text>
	<circle fill="#871B20" stroke="#252525" stroke-miterlimit="10" cx="383.934" cy="74.552" r="5.679"/>
	<circle fill="#B4D89E" stroke="#151515" stroke-miterlimit="10" cx="383.934" cy="57.849" r="5.679"/>
</g>
<g>
	<text transform="matrix(1 0 0 1 396.6606 185.4238)" fill="#F4F4F4" font-family="'CTCuHeiSJ'" font-size="12.2939">PWR</text>
	<text transform="matrix(1 0 0 1 396.6606 202.3242)" fill="#F4F4F4" font-family="'CTCuHeiSJ'" font-size="12.2939">HOD</text>
	<circle fill="#871B20" stroke="#252525" stroke-miterlimit="10" cx="383.934" cy="196.794" r="5.679"/>
	<circle fill="#B4D89E" stroke="#151515" stroke-miterlimit="10" cx="383.934" cy="180.092" r="5.679"/>
</g>
<text transform="matrix(1 0 0 1 447.0981 174.1777)" fill="#EDEDED" font-family="'CTCuHeiSJ'" font-size="8">CONSOLE</text>
<text transform="matrix(1 0 0 1 514.3574 164.1719)" fill="#EDEDED" font-family="'CTCuHeiSJ'" font-size="8">USB</text>
<text transform="matrix(1 0 0 1 569.3555 172.1768)" fill="#EDEDED" font-family="'CTCuHeiSJ'" font-size="8">INTO</text>
<text transform="matrix(1 0 0 1 618.6895 172.1768)" fill="#EDEDED" font-family="'CTCuHeiSJ'" font-size="8">INT1</text>
<text transform="matrix(1 0 0 1 668.0215 172.1768)" fill="#EDEDED" font-family="'CTCuHeiSJ'" font-size="8">INT2</text>
<text transform="matrix(1 0 0 1 717.3555 172.1768)" fill="#EDEDED" font-family="'CTCuHeiSJ'" font-size="8">INT3</text>
<rect x="555.664" y="187.187" fill="#828282" width="49.434" height="36.428"/>
<rect x="443.083" y="187.185" fill="#828282" width="49.435" height="36.428"/>
<rect x="501.35" y="176.606" fill="#828282" width="43.732" height="47.006"/>
<rect x="604.98" y="187.187" fill="#828282" width="49.436" height="36.428"/>
<rect x="654.416" y="187.187" fill="#828282" width="49.434" height="36.428"/>
<rect x="703.732" y="187.187" fill="#828282" width="49.436" height="36.428"/>
<text transform="matrix(1 0 0 1 447.0981 49.1577)" fill="#EDEDED" font-family="'CTCuHeiSJ'" font-size="8">CONSOLE</text>
<text transform="matrix(1 0 0 1 514.3574 39.1519)" fill="#EDEDED" font-family="'CTCuHeiSJ'" font-size="8">USB</text>
<text transform="matrix(1 0 0 1 569.3555 47.1567)" fill="#EDEDED" font-family="'CTCuHeiSJ'" font-size="8">EXT0</text>
<text transform="matrix(1 0 0 1 618.6895 47.1567)" fill="#EDEDED" font-family="'CTCuHeiSJ'" font-size="8">EXT1</text>
<text transform="matrix(1 0 0 1 668.0215 47.1567)" fill="#EDEDED" font-family="'CTCuHeiSJ'" font-size="8">EXT2</text>
<text transform="matrix(1 0 0 1 717.3555 47.1567)" fill="#EDEDED" font-family="'CTCuHeiSJ'" font-size="8">EXT3</text>
<rect x="555.664" y="62.167" fill="#828282" width="49.434" height="36.427"/>
<rect x="443.083" y="62.165" fill="#828282" width="49.435" height="36.428"/>
<rect x="501.35" y="51.587" fill="#828282" width="43.732" height="47.006"/>
<rect x="604.98" y="62.167" fill="#828282" width="49.436" height="36.427"/>
<rect x="654.416" y="62.167" fill="#828282" width="49.434" height="36.427"/>
<rect x="703.732" y="62.167" fill="#828282" width="49.436" height="36.427"/>
<rect x="1219.795" y="0.001" fill="#060404" width="5.336" height="252.284"/>
<g>
	<rect y="0.001" fill="#666666" width="67.082" height="252.284"/>
	<g>
		<g>
			<path fill="#AFAFAF" d="M25.217,16.375c0,6.38-5.167,11.554-11.544,11.554c-6.376,0-11.545-5.174-11.545-11.554
				c0-6.382,5.169-11.555,11.545-11.555C20.049,4.82,25.217,9.993,25.217,16.375"/>
			<ellipse fill="none" stroke="#949394" stroke-miterlimit="10" cx="13.672" cy="16.375" rx="11.545" ry="11.554"/>
			<path fill="#AFAFAF" d="M22.155,16.375c0,4.687-3.799,8.489-8.482,8.489s-8.481-3.803-8.481-8.489
				c0-4.689,3.798-8.491,8.481-8.491S22.155,11.686,22.155,16.375"/>
			<ellipse fill="none" stroke="#949394" stroke-miterlimit="10" cx="13.673" cy="16.375" rx="8.482" ry="8.489"/>
			<g>
				<g>
					<defs>
						<rect id="SVGID_1_" x="5.675" y="8.373" width="15.994" height="16.003"/>
					</defs>
					<clipPath id="SVGID_2_">
						<use xlink:href="#SVGID_1_"  overflow="visible"/>
					</clipPath>
					<path clip-path="url(#SVGID_2_)" fill="#BFBFBF" d="M21.667,16.375c0,4.419-3.579,8.001-7.995,8.001s-7.994-3.582-7.994-8.001
						s3.578-8.002,7.994-8.002S21.667,11.956,21.667,16.375"/>
					<path clip-path="url(#SVGID_2_)" fill="#C1C1C1" d="M21.479,16.375c0,4.313-3.496,7.813-7.806,7.813
						c-4.311,0-7.806-3.499-7.806-7.813c0-4.315,3.495-7.813,7.806-7.813C17.983,8.562,21.479,12.06,21.479,16.375"/>
					<path clip-path="url(#SVGID_2_)" fill="#C3C4C4" d="M21.291,16.375c0,4.21-3.411,7.624-7.619,7.624
						c-4.207,0-7.619-3.414-7.619-7.624s3.412-7.626,7.619-7.626C17.88,8.749,21.291,12.165,21.291,16.375"/>
					<path clip-path="url(#SVGID_2_)" fill="#C5C6C6" d="M21.102,16.375c0,4.106-3.326,7.437-7.43,7.437
						c-4.104,0-7.43-3.33-7.43-7.437c0-4.107,3.326-7.437,7.43-7.437C17.776,8.938,21.102,12.268,21.102,16.375"/>
					<path clip-path="url(#SVGID_2_)" fill="#C7C9C9" d="M20.915,16.375c0,4.002-3.243,7.248-7.242,7.248
						c-4,0-7.241-3.246-7.241-7.248c0-4.003,3.241-7.25,7.241-7.25C17.672,9.125,20.915,12.372,20.915,16.375"/>
					<path clip-path="url(#SVGID_2_)" fill="#CACBCB" d="M20.725,16.375c0,3.897-3.156,7.06-7.053,7.06s-7.054-3.162-7.054-7.06
						c0-3.899,3.157-7.062,7.054-7.062S20.725,12.476,20.725,16.375"/>
					<path clip-path="url(#SVGID_2_)" fill="#CCCECE" d="M20.539,16.375c0,3.794-3.075,6.871-6.866,6.871
						c-3.792,0-6.865-3.077-6.865-6.871c0-3.796,3.073-6.873,6.865-6.873C17.464,9.502,20.539,12.579,20.539,16.375"/>
					<path clip-path="url(#SVGID_2_)" fill="#CED0D0" d="M20.351,16.375c0,3.69-2.99,6.684-6.679,6.684
						c-3.688,0-6.678-2.993-6.678-6.684c0-3.692,2.99-6.685,6.678-6.685C17.361,9.69,20.351,12.683,20.351,16.375"/>
					<path clip-path="url(#SVGID_2_)" fill="#D1D3D3" d="M20.162,16.375c0,3.586-2.904,6.495-6.489,6.495
						c-3.583,0-6.489-2.909-6.489-6.495c0-3.588,2.906-6.497,6.489-6.497C17.257,9.878,20.162,12.787,20.162,16.375"/>
					<path clip-path="url(#SVGID_2_)" fill="#D3D5D5" d="M19.975,16.375c0,3.483-2.822,6.306-6.303,6.306
						c-3.481,0-6.302-2.822-6.302-6.306s2.82-6.308,6.302-6.308C17.153,10.067,19.975,12.892,19.975,16.375"/>
				</g>
			</g>
			<polygon fill="#5F5F5E" points="12.628,21.186 12.628,17.42 8.866,17.42 8.866,15.329 12.628,15.329 12.628,11.563 
				14.716,11.563 14.716,15.329 18.48,15.329 18.48,17.42 14.716,17.42 14.716,21.186 			"/>
			<path fill="#231815" d="M14.536,11.744v3.403v0.362h0.362h3.4v1.728h-3.4h-0.362v0.363v3.404h-1.727v-3.404v-0.363h-0.361H9.045
				V15.51h3.402h0.361v-0.362v-3.403H14.536z M14.898,11.382h-2.451v3.766H8.685v2.453h3.762v3.766h2.451v-3.766h3.762v-2.453
				h-3.762V11.382z"/>
		</g>
		<g>
			<path fill="#AFAFAF" d="M25.217,234.97c0,6.382-5.167,11.555-11.544,11.555c-6.376,0-11.545-5.173-11.545-11.555
				c0-6.381,5.169-11.553,11.545-11.553C20.049,223.417,25.217,228.589,25.217,234.97"/>
			<ellipse fill="none" stroke="#949394" stroke-miterlimit="10" cx="13.672" cy="234.97" rx="11.545" ry="11.555"/>
			<path fill="#AFAFAF" d="M22.155,234.97c0,4.689-3.799,8.49-8.482,8.49s-8.481-3.801-8.481-8.49c0-4.688,3.798-8.489,8.481-8.489
				S22.155,230.282,22.155,234.97"/>
			<ellipse fill="none" stroke="#949394" stroke-miterlimit="10" cx="13.673" cy="234.97" rx="8.482" ry="8.49"/>
			<g>
				<g>
					<defs>
						<rect id="SVGID_3_" x="5.675" y="226.969" width="15.994" height="16.003"/>
					</defs>
					<clipPath id="SVGID_4_">
						<use xlink:href="#SVGID_3_"  overflow="visible"/>
					</clipPath>
					<path clip-path="url(#SVGID_4_)" fill="#BFBFBF" d="M21.667,234.97c0,4.418-3.579,8.002-7.995,8.002s-7.994-3.584-7.994-8.002
						s3.578-8.001,7.994-8.001S21.667,230.552,21.667,234.97"/>
					<path clip-path="url(#SVGID_4_)" fill="#C1C1C1" d="M21.479,234.97c0,4.314-3.496,7.813-7.806,7.813
						c-4.311,0-7.806-3.499-7.806-7.813s3.495-7.813,7.806-7.813C17.983,227.157,21.479,230.655,21.479,234.97"/>
					<path clip-path="url(#SVGID_4_)" fill="#C3C4C4" d="M21.291,234.97c0,4.212-3.411,7.625-7.619,7.625
						c-4.207,0-7.619-3.413-7.619-7.625c0-4.211,3.412-7.623,7.619-7.623C17.88,227.347,21.291,230.759,21.291,234.97"/>
					<path clip-path="url(#SVGID_4_)" fill="#C5C6C6" d="M21.102,234.97c0,4.107-3.326,7.438-7.43,7.438
						c-4.104,0-7.43-3.33-7.43-7.438c0-4.105,3.326-7.436,7.43-7.436C17.776,227.534,21.102,230.864,21.102,234.97"/>
					<path clip-path="url(#SVGID_4_)" fill="#C7C9C9" d="M20.915,234.97c0,4.002-3.243,7.25-7.242,7.25c-4,0-7.241-3.248-7.241-7.25
						s3.241-7.248,7.241-7.248C17.672,227.722,20.915,230.968,20.915,234.97"/>
					<path clip-path="url(#SVGID_4_)" fill="#CACBCB" d="M20.725,234.97c0,3.899-3.156,7.062-7.053,7.062s-7.054-3.162-7.054-7.062
						c0-3.898,3.157-7.061,7.054-7.061S20.725,231.071,20.725,234.97"/>
					<path clip-path="url(#SVGID_4_)" fill="#CCCECE" d="M20.539,234.97c0,3.796-3.075,6.873-6.866,6.873
						c-3.792,0-6.865-3.077-6.865-6.873c0-3.795,3.073-6.871,6.865-6.871C17.464,228.099,20.539,231.175,20.539,234.97"/>
					<path clip-path="url(#SVGID_4_)" fill="#CED0D0" d="M20.351,234.97c0,3.691-2.99,6.684-6.679,6.684
						c-3.688,0-6.678-2.992-6.678-6.684c0-3.689,2.99-6.684,6.678-6.684C17.361,228.286,20.351,231.28,20.351,234.97"/>
					<path clip-path="url(#SVGID_4_)" fill="#D1D3D3" d="M20.162,234.97c0,3.587-2.904,6.496-6.489,6.496
						c-3.583,0-6.489-2.909-6.489-6.496c0-3.586,2.906-6.495,6.489-6.495C17.257,228.475,20.162,231.384,20.162,234.97"/>
					<path clip-path="url(#SVGID_4_)" fill="#D3D5D5" d="M19.975,234.97c0,3.484-2.822,6.307-6.303,6.307
						c-3.481,0-6.302-2.822-6.302-6.307c0-3.482,2.82-6.307,6.302-6.307C17.153,228.663,19.975,231.487,19.975,234.97"/>
				</g>
			</g>
			<polygon fill="#5F5F5E" points="12.628,239.781 12.628,236.016 8.866,236.016 8.866,233.925 12.628,233.925 12.628,230.159 
				14.716,230.159 14.716,233.925 18.48,233.925 18.48,236.016 14.716,236.016 14.716,239.781 			"/>
			<path fill="#231815" d="M14.536,230.341v3.402v0.363h0.362h3.4v1.728h-3.4h-0.362v0.361v3.404h-1.727v-3.404v-0.361h-0.361H9.045
				v-1.728h3.402h0.361v-0.363v-3.402H14.536z M14.898,229.978h-2.451v3.766H8.685v2.452h3.762v3.767h2.451v-3.767h3.762v-2.452
				h-3.762V229.978z"/>
		</g>
	</g>
	<path fill="#1B1B1B" d="M34.542,58.869c0,2.761-2.238,5-5,5H11.676c-2.762,0-5-2.239-5-5v-6.852c0-2.761,2.238-5,5-5h17.865
		c2.762,0,5,2.239,5,5V58.869z"/>
	<path fill="#1B1B1B" d="M34.542,206.968c0,2.761-2.238,5-5,5H11.676c-2.762,0-5-2.239-5-5v-6.852c0-2.762,2.238-5,5-5h17.865
		c2.762,0,5,2.238,5,5V206.968z"/>
</g>
<g>
	<rect x="1208.508" y="0.001" fill="#666666" width="67.082" height="252.284"/>
	<g>
		<g>
			<path fill="#AFAFAF" d="M1250.373,16.375c0,6.38,5.168,11.554,11.545,11.554c6.375,0,11.545-5.174,11.545-11.554
				c0-6.382-5.17-11.555-11.545-11.555C1255.541,4.82,1250.373,9.993,1250.373,16.375"/>
			<ellipse fill="none" stroke="#949394" stroke-miterlimit="10" cx="1261.918" cy="16.375" rx="11.545" ry="11.554"/>
			<path fill="#AFAFAF" d="M1253.436,16.375c0,4.687,3.799,8.489,8.482,8.489s8.48-3.803,8.48-8.489c0-4.689-3.797-8.491-8.48-8.491
				S1253.436,11.686,1253.436,16.375"/>
			<ellipse fill="none" stroke="#949394" stroke-miterlimit="10" cx="1261.917" cy="16.375" rx="8.481" ry="8.489"/>
			<g>
				<g>
					<defs>
						<rect id="SVGID_5_" x="1253.92" y="8.373" width="15.994" height="16.003"/>
					</defs>
					<clipPath id="SVGID_6_">
						<use xlink:href="#SVGID_5_"  overflow="visible"/>
					</clipPath>
					<path clip-path="url(#SVGID_6_)" fill="#BFBFBF" d="M1253.922,16.375c0,4.419,3.58,8.001,7.996,8.001
						c4.414,0,7.992-3.582,7.992-8.001s-3.578-8.002-7.992-8.002C1257.502,8.373,1253.922,11.956,1253.922,16.375"/>
					<path clip-path="url(#SVGID_6_)" fill="#C1C1C1" d="M1254.111,16.375c0,4.313,3.496,7.813,7.807,7.813s7.805-3.499,7.805-7.813
						c0-4.315-3.494-7.813-7.805-7.813S1254.111,12.06,1254.111,16.375"/>
					<path clip-path="url(#SVGID_6_)" fill="#C3C4C4" d="M1254.299,16.375c0,4.21,3.41,7.624,7.619,7.624
						c4.205,0,7.617-3.414,7.617-7.624s-3.412-7.626-7.617-7.626C1257.709,8.749,1254.299,12.165,1254.299,16.375"/>
					<path clip-path="url(#SVGID_6_)" fill="#C5C6C6" d="M1254.488,16.375c0,4.106,3.324,7.437,7.43,7.437
						c4.104,0,7.43-3.33,7.43-7.437c0-4.107-3.326-7.437-7.43-7.437C1257.813,8.938,1254.488,12.268,1254.488,16.375"/>
					<path clip-path="url(#SVGID_6_)" fill="#C7C9C9" d="M1254.676,16.375c0,4.002,3.242,7.248,7.242,7.248s7.24-3.246,7.24-7.248
						c0-4.003-3.24-7.25-7.24-7.25S1254.676,12.372,1254.676,16.375"/>
					<path clip-path="url(#SVGID_6_)" fill="#CACBCB" d="M1254.865,16.375c0,3.897,3.156,7.06,7.053,7.06s7.053-3.162,7.053-7.06
						c0-3.899-3.156-7.062-7.053-7.062S1254.865,12.476,1254.865,16.375"/>
					<path clip-path="url(#SVGID_6_)" fill="#CCCECE" d="M1255.051,16.375c0,3.794,3.074,6.871,6.867,6.871
						c3.791,0,6.865-3.077,6.865-6.871c0-3.796-3.074-6.873-6.865-6.873C1258.125,9.502,1255.051,12.579,1255.051,16.375"/>
					<path clip-path="url(#SVGID_6_)" fill="#CED0D0" d="M1255.238,16.375c0,3.69,2.99,6.684,6.68,6.684
						c3.688,0,6.678-2.993,6.678-6.684c0-3.692-2.99-6.685-6.678-6.685C1258.229,9.69,1255.238,12.683,1255.238,16.375"/>
					<path clip-path="url(#SVGID_6_)" fill="#D1D3D3" d="M1255.428,16.375c0,3.586,2.904,6.495,6.49,6.495
						c3.582,0,6.488-2.909,6.488-6.495c0-3.588-2.906-6.497-6.488-6.497C1258.332,9.878,1255.428,12.787,1255.428,16.375"/>
					<path clip-path="url(#SVGID_6_)" fill="#D3D5D5" d="M1255.615,16.375c0,3.483,2.822,6.306,6.303,6.306s6.301-2.822,6.301-6.306
						s-2.82-6.308-6.301-6.308S1255.615,12.892,1255.615,16.375"/>
				</g>
			</g>
			<polygon fill="#5F5F5E" points="1262.961,21.186 1262.961,17.42 1266.725,17.42 1266.725,15.329 1262.961,15.329 
				1262.961,11.563 1260.873,11.563 1260.873,15.329 1257.109,15.329 1257.109,17.42 1260.873,17.42 1260.873,21.186 			"/>
			<path fill="#231815" d="M1262.781,11.744v3.403v0.362h0.361h3.402v1.728h-3.402h-0.361v0.363v3.404h-1.727v-3.404v-0.363h-0.363
				h-3.4V15.51h3.4h0.363v-0.362v-3.403H1262.781z M1260.691,15.147h-3.762v2.453h3.762v3.766h2.451v-3.766h3.762v-2.453h-3.762
				v-3.766h-2.451V15.147z"/>
		</g>
		<g>
			<path fill="#AFAFAF" d="M1250.373,234.97c0,6.382,5.168,11.555,11.545,11.555c6.375,0,11.545-5.173,11.545-11.555
				c0-6.381-5.17-11.553-11.545-11.553C1255.541,223.417,1250.373,228.589,1250.373,234.97"/>
			<ellipse fill="none" stroke="#949394" stroke-miterlimit="10" cx="1261.918" cy="234.97" rx="11.545" ry="11.555"/>
			<path fill="#AFAFAF" d="M1253.436,234.97c0,4.689,3.799,8.49,8.482,8.49s8.48-3.801,8.48-8.49c0-4.688-3.797-8.489-8.48-8.489
				S1253.436,230.282,1253.436,234.97"/>
			<ellipse fill="none" stroke="#949394" stroke-miterlimit="10" cx="1261.917" cy="234.97" rx="8.481" ry="8.49"/>
			<g>
				<g>
					<defs>
						<rect id="SVGID_7_" x="1253.92" y="226.969" width="15.994" height="16.003"/>
					</defs>
					<clipPath id="SVGID_8_">
						<use xlink:href="#SVGID_7_"  overflow="visible"/>
					</clipPath>
					<path clip-path="url(#SVGID_8_)" fill="#BFBFBF" d="M1253.922,234.97c0,4.418,3.58,8.002,7.996,8.002
						c4.414,0,7.992-3.584,7.992-8.002s-3.578-8.001-7.992-8.001C1257.502,226.969,1253.922,230.552,1253.922,234.97"/>
					<path clip-path="url(#SVGID_8_)" fill="#C1C1C1" d="M1254.111,234.97c0,4.314,3.496,7.813,7.807,7.813s7.805-3.499,7.805-7.813
						s-3.494-7.813-7.805-7.813S1254.111,230.655,1254.111,234.97"/>
					<path clip-path="url(#SVGID_8_)" fill="#C3C4C4" d="M1254.299,234.97c0,4.212,3.41,7.625,7.619,7.625
						c4.205,0,7.617-3.413,7.617-7.625c0-4.211-3.412-7.623-7.617-7.623C1257.709,227.347,1254.299,230.759,1254.299,234.97"/>
					<path clip-path="url(#SVGID_8_)" fill="#C5C6C6" d="M1254.488,234.97c0,4.107,3.324,7.438,7.43,7.438
						c4.104,0,7.43-3.33,7.43-7.438c0-4.105-3.326-7.436-7.43-7.436C1257.813,227.534,1254.488,230.864,1254.488,234.97"/>
					<path clip-path="url(#SVGID_8_)" fill="#C7C9C9" d="M1254.676,234.97c0,4.002,3.242,7.25,7.242,7.25s7.24-3.248,7.24-7.25
						s-3.24-7.248-7.24-7.248S1254.676,230.968,1254.676,234.97"/>
					<path clip-path="url(#SVGID_8_)" fill="#CACBCB" d="M1254.865,234.97c0,3.899,3.156,7.062,7.053,7.062s7.053-3.162,7.053-7.062
						c0-3.898-3.156-7.061-7.053-7.061S1254.865,231.071,1254.865,234.97"/>
					<path clip-path="url(#SVGID_8_)" fill="#CCCECE" d="M1255.051,234.97c0,3.796,3.074,6.873,6.867,6.873
						c3.791,0,6.865-3.077,6.865-6.873c0-3.795-3.074-6.871-6.865-6.871C1258.125,228.099,1255.051,231.175,1255.051,234.97"/>
					<path clip-path="url(#SVGID_8_)" fill="#CED0D0" d="M1255.238,234.97c0,3.691,2.99,6.684,6.68,6.684
						c3.688,0,6.678-2.992,6.678-6.684c0-3.689-2.99-6.684-6.678-6.684C1258.229,228.286,1255.238,231.28,1255.238,234.97"/>
					<path clip-path="url(#SVGID_8_)" fill="#D1D3D3" d="M1255.428,234.97c0,3.587,2.904,6.496,6.49,6.496
						c3.582,0,6.488-2.909,6.488-6.496c0-3.586-2.906-6.495-6.488-6.495C1258.332,228.475,1255.428,231.384,1255.428,234.97"/>
					<path clip-path="url(#SVGID_8_)" fill="#D3D5D5" d="M1255.615,234.97c0,3.484,2.822,6.307,6.303,6.307s6.301-2.822,6.301-6.307
						c0-3.482-2.82-6.307-6.301-6.307S1255.615,231.487,1255.615,234.97"/>
				</g>
			</g>
			<polygon fill="#5F5F5E" points="1262.961,239.781 1262.961,236.016 1266.725,236.016 1266.725,233.925 1262.961,233.925 
				1262.961,230.159 1260.873,230.159 1260.873,233.925 1257.109,233.925 1257.109,236.016 1260.873,236.016 1260.873,239.781 			
				"/>
			<path fill="#231815" d="M1262.781,230.341v3.402v0.363h0.361h3.402v1.728h-3.402h-0.361v0.361v3.404h-1.727v-3.404v-0.361h-0.363
				h-3.4v-1.728h3.4h0.363v-0.363v-3.402H1262.781z M1260.691,233.743h-3.762v2.452h3.762v3.767h2.451v-3.767h3.762v-2.452h-3.762
				v-3.766h-2.451V233.743z"/>
		</g>
	</g>
	<path fill="#1B1B1B" d="M1241.049,58.869c0,2.761,2.238,5,5,5h17.865c2.762,0,5-2.239,5-5v-6.852c0-2.761-2.238-5-5-5h-17.865
		c-2.762,0-5,2.239-5,5V58.869z"/>
	<path fill="#1B1B1B" d="M1241.049,206.968c0,2.761,2.238,5,5,5h17.865c2.762,0,5-2.239,5-5v-6.852c0-2.762-2.238-5-5-5h-17.865
		c-2.762,0-5,2.238-5,5V206.968z"/>
</g>
<path fill="#101010" d="M261.582,54.729c0,1.184-0.926,2.143-2.067,2.143H95.649c-1.142,0-2.067-0.959-2.067-2.143V22.509
	c0-1.184,0.926-2.143,2.067-2.143h163.865c1.142,0,2.067,0.959,2.067,2.143V54.729z"/>
<linearGradient id="SVGID_9_" gradientUnits="userSpaceOnUse" x1="177.832" y1="55.4424" x2="177.832" y2="21.3662">
	<stop  offset="0" style="stop-color:#40220F"/>
	<stop  offset="0.0968" style="stop-color:#A92B2B"/>
	<stop  offset="0.8548" style="stop-color:#D3464C"/>
	<stop  offset="0.9462" style="stop-color:#EC6B77"/>
	<stop  offset="1" style="stop-color:#A92B2B"/>
</linearGradient>
<path fill="url(#SVGID_9_)" d="M259.082,53.442c0,1.104-0.896,2-2,2h-158.5c-1.104,0-2-0.896-2-2V23.366c0-1.104,0.896-2,2-2h158.5
	c1.104,0,2,0.896,2,2V53.442z"/>
<path fill="#EFEFEF" d="M131.01,30.151c0,0-2.726,2.578,0,4.826c0,0,1.4,0.811,4.2-0.184c0,0,5.6-2.359,8.363-3.059
	c0,0,3.794-1.143,5.563-1.068c0,0,0.847,0.074,0,0.7c0,0-3.611,3.39-4.531,4.311c0,0-2.137,1.988-1.511,5.046
	c0,0,0.847,2.248,1.621,3.464c0,0,0.589,0.958-0.626,1.916c0,0-3.352,2.763-3.463,3.904c0,0-0.294,1.364-0.073,1.917
	c0,0,0.663,0.221,2.616-1.29c0,0,1.363-0.958,3.721-0.774c0,0,2.505-0.073,3.574-1.584c0,0,2.137-1.916,0.884-4.162
	c0,0-2.727-2.801-2.837-3.279c0,0-1.399-1.4-0.479-3.058c0,0,1.989-2.542,3.131-2.983c0,0,2.1-1.659,2.21-2.469
	c0,0,0.074-0.994-0.7-2.174c0,0,1.769-1.253,3.832-1.475c0,0,1.364-0.367,1.547-1.141c0,0,0.11-1.032-1.363-1.068
	c0,0-2.173-0.517-7.884,0c0,0-6.042,0.736-7.957,1.178c0,0-4.09,0.774-5.526,1.105C135.321,28.751,132.263,29.305,131.01,30.151z"/>
<text transform="matrix(1.1667 0 0 1 163.4155 39.0869)" fill="#EFEFEF" font-family="'HeitiEG-Ultra-GB'" font-size="12" letter-spacing="1.714">天融信</text>
<text transform="matrix(1.4267 0 0 1 164.416 49.1836)" fill="#EFEFEF" font-family="'HeitiEG-Ultra-GB'" font-size="9.813">TOPSEC</text>
<g>
	<text transform="matrix(1 0 0 1 1143.9609 75.187)" fill="#F4F4F4" font-family="'CTCuHeiSJ'" font-size="12.2939">LNK/ACT</text>
	<text transform="matrix(1 0 0 1 1143.9609 91.1455)" fill="#F4F4F4" font-family="'CTCuHeiSJ'" font-size="12.2939">LNK/ACT</text>
</g>
<g>
	<circle fill="#B1B2B1" stroke="#151515" stroke-miterlimit="10" cx="1133.24" cy="70.855" r="5.68"/>
	<circle fill="#B1B2B1" stroke="#151515" stroke-miterlimit="10" cx="1133.24" cy="88.272" r="5.68"/>
</g>
<g>
	<text transform="matrix(1 0 0 1 1143.9609 204.0894)" fill="#F4F4F4" font-family="'CTCuHeiSJ'" font-size="12.2939">LNK/ACT</text>
	<text transform="matrix(1 0 0 1 1143.9609 220.0479)" fill="#F4F4F4" font-family="'CTCuHeiSJ'" font-size="12.2939">LNK/ACT</text>
</g>
<g>
	<circle fill="#B1B2B1" stroke="#151515" stroke-miterlimit="10" cx="1133.24" cy="199.758" r="5.68"/>
	<circle fill="#B1B2B1" stroke="#151515" stroke-miterlimit="10" cx="1133.24" cy="217.175" r="5.68"/>
</g>
<g>
	<g>
		<text transform="matrix(1 0 0 1 853.4414 75.187)" fill="#F4F4F4" font-family="'CTCuHeiSJ'" font-size="12.2939">LNK/ACT</text>
		<text transform="matrix(1 0 0 1 853.4414 91.1455)" fill="#F4F4F4" font-family="'CTCuHeiSJ'" font-size="12.2939">LNK/ACT</text>
		<circle fill="#B1B2B1" stroke="#151515" stroke-miterlimit="10" cx="920.763" cy="70.855" r="5.679"/>
		<circle fill="#B1B2B1" stroke="#151515" stroke-miterlimit="10" cx="920.763" cy="88.272" r="5.679"/>
	</g>
	<text transform="matrix(1 0 0 1 957.7305 47.1567)" fill="#EDEDED" font-family="'CTCuHeiSJ'" font-size="8">EXT3</text>
	<text transform="matrix(1 0 0 1 998.9023 47.1567)" fill="#EDEDED" font-family="'CTCuHeiSJ'" font-size="8">EXT4</text>
	<text transform="matrix(1 0 0 1 1040.0723 47.1567)" fill="#EDEDED" font-family="'CTCuHeiSJ'" font-size="8">EXT5</text>
	<text transform="matrix(1 0 0 1 1081.2441 47.1567)" fill="#EDEDED" font-family="'CTCuHeiSJ'" font-size="8">EXT6</text>
	<linearGradient id="SVGID_10_" gradientUnits="userSpaceOnUse" x1="1030.0684" y1="98.5938" x2="1030.0684" y2="63.8691">
		<stop  offset="0" style="stop-color:#000000"/>
		<stop  offset="0.1075" style="stop-color:#3E3A39"/>
		<stop  offset="0.8172" style="stop-color:#595757"/>
		<stop  offset="0.9301" style="stop-color:#595757"/>
		<stop  offset="1" style="stop-color:#898989"/>
	</linearGradient>
	<rect x="939.734" y="63.869" fill="url(#SVGID_10_)" width="180.668" height="34.725"/>
	<rect x="957.734" y="73.372" fill="#343535" width="22" height="13.899"/>
	<rect x="998.904" y="73.372" fill="#343535" width="22" height="13.899"/>
	<rect x="1040.076" y="73.372" fill="#343535" width="22" height="13.899"/>
	<rect x="1081.246" y="73.372" fill="#343535" width="22" height="13.899"/>
	<rect x="987.068" y="63.869" fill="#343535" width="1.5" height="34.725"/>
	<rect x="1029.318" y="63.869" fill="#343535" width="1.5" height="34.725"/>
	<rect x="1071.568" y="63.869" fill="#343535" width="1.5" height="34.725"/>
</g>
<g>
	<g>
		<text transform="matrix(1 0 0 1 853.4414 202.4214)" fill="#F4F4F4" font-family="'CTCuHeiSJ'" font-size="12.2939">LNK/ACT</text>
		<text transform="matrix(1 0 0 1 853.4414 218.3799)" fill="#F4F4F4" font-family="'CTCuHeiSJ'" font-size="12.2939">LNK/ACT</text>
		<circle fill="#B1B2B1" stroke="#151515" stroke-miterlimit="10" cx="920.76" cy="198.09" r="5.68"/>
		<circle fill="#B1B2B1" stroke="#151515" stroke-miterlimit="10" cx="920.76" cy="215.507" r="5.68"/>
	</g>
	<text transform="matrix(1 0 0 1 957.7305 174.3911)" fill="#EDEDED" font-family="'CTCuHeiSJ'" font-size="8">EXT3</text>
	<text transform="matrix(1 0 0 1 998.9014 174.3911)" fill="#EDEDED" font-family="'CTCuHeiSJ'" font-size="8">EXT4</text>
	<text transform="matrix(1 0 0 1 1040.0723 174.3911)" fill="#EDEDED" font-family="'CTCuHeiSJ'" font-size="8">EXT5</text>
	<text transform="matrix(1 0 0 1 1081.2432 174.3911)" fill="#EDEDED" font-family="'CTCuHeiSJ'" font-size="8">EXT6</text>
	<linearGradient id="SVGID_11_" gradientUnits="userSpaceOnUse" x1="1030.0654" y1="225.8281" x2="1030.0654" y2="191.1035">
		<stop  offset="0" style="stop-color:#000000"/>
		<stop  offset="0.1075" style="stop-color:#3E3A39"/>
		<stop  offset="0.8172" style="stop-color:#595757"/>
		<stop  offset="0.9301" style="stop-color:#595757"/>
		<stop  offset="1" style="stop-color:#898989"/>
	</linearGradient>
	<rect x="939.732" y="191.104" fill="url(#SVGID_11_)" width="180.666" height="34.725"/>
	<rect x="957.73" y="200.606" fill="#343535" width="22" height="13.899"/>
	<rect x="998.902" y="200.606" fill="#343535" width="22" height="13.899"/>
	<rect x="1040.072" y="200.606" fill="#343535" width="22" height="13.899"/>
	<rect x="1081.242" y="200.606" fill="#343535" width="22" height="13.899"/>
	<rect x="987.066" y="191.104" fill="#343535" width="1.5" height="34.725"/>
	<rect x="1029.316" y="191.104" fill="#343535" width="1.5" height="34.725"/>
	<rect x="1071.566" y="191.104" fill="#343535" width="1.5" height="34.725"/>
</g>
</svg>
