<?xml version="1.0" encoding="utf-8"?>
<!-- Generator: Adobe Illustrator 16.0.0, SVG Export Plug-In . SVG Version: 6.00 Build 0)  -->
<!DOCTYPE svg PUBLIC "-//W3C//DTD SVG 1.1//EN" "http://www.w3.org/Graphics/SVG/1.1/DTD/svg11.dtd">
<svg version="1.1" id="图层_1" xmlns="http://www.w3.org/2000/svg" xmlns:xlink="http://www.w3.org/1999/xlink" x="0px" y="0px"
	 width="1275.59px" height="126.14px" viewBox="0 0 1275.59 126.14" enable-background="new 0 0 1275.59 126.14"
	 xml:space="preserve">
<rect y="-0.001" fill="#39393A" width="1275.59" height="126.142"/>
<rect x="10.333" y="3.123" fill="none" stroke="#030000" stroke-miterlimit="10" width="1254.938" height="119.894"/>
<g>
	<g>
		<g>
			<circle fill="#030000" cx="78.265" cy="60.646" r="45.567"/>
			<g>
				<g>
					<g>
						<linearGradient id="SVGID_1_" gradientUnits="userSpaceOnUse" x1="31.6025" y1="60.6455" x2="72.7256" y2="60.6455">
							<stop  offset="0" style="stop-color:#B1B4B5"/>
							<stop  offset="0.0806" style="stop-color:#B1B4B5"/>
							<stop  offset="0.129" style="stop-color:#D5D5D5"/>
							<stop  offset="0.2204" style="stop-color:#B1B4B5"/>
							<stop  offset="0.3118" style="stop-color:#717071"/>
							<stop  offset="0.5323" style="stop-color:#717071"/>
							<stop  offset="0.6882" style="stop-color:#B1B4B5"/>
							<stop  offset="0.8817" style="stop-color:#717071"/>
							<stop  offset="1" style="stop-color:#B1B4B5"/>
						</linearGradient>
						<path fill="url(#SVGID_1_)" d="M33.442,67.749l-1.839-3.152c12.399-7.229,26.619-11.055,41.123-11.055v3.65
							C58.867,57.192,45.283,60.843,33.442,67.749z"/>
					</g>
					<g>
						
							<linearGradient id="SVGID_2_" gradientUnits="userSpaceOnUse" x1="-9611.8838" y1="320.9209" x2="-9570.7607" y2="320.9209" gradientTransform="matrix(-1 0 0 -1 -9486.957 381.5664)">
							<stop  offset="0" style="stop-color:#B1B4B5"/>
							<stop  offset="0.0806" style="stop-color:#B1B4B5"/>
							<stop  offset="0.129" style="stop-color:#D5D5D5"/>
							<stop  offset="0.2204" style="stop-color:#B1B4B5"/>
							<stop  offset="0.3118" style="stop-color:#717071"/>
							<stop  offset="0.5323" style="stop-color:#717071"/>
							<stop  offset="0.6882" style="stop-color:#B1B4B5"/>
							<stop  offset="0.8817" style="stop-color:#717071"/>
							<stop  offset="1" style="stop-color:#B1B4B5"/>
						</linearGradient>
						<path fill="url(#SVGID_2_)" d="M123.088,53.542l1.838,3.154c-12.398,7.23-26.619,11.053-41.123,11.053v-3.65
							C97.662,64.099,111.246,60.446,123.088,53.542z"/>
					</g>
				</g>
				<g>
					<g>
						
							<linearGradient id="SVGID_3_" gradientUnits="userSpaceOnUse" x1="-4893.6763" y1="-4604.3604" x2="-4852.5532" y2="-4604.3604" gradientTransform="matrix(0 1 -1 0 -4526.0957 4907.6616)">
							<stop  offset="0" style="stop-color:#B1B4B5"/>
							<stop  offset="0.0806" style="stop-color:#B1B4B5"/>
							<stop  offset="0.129" style="stop-color:#D5D5D5"/>
							<stop  offset="0.2204" style="stop-color:#B1B4B5"/>
							<stop  offset="0.3118" style="stop-color:#717071"/>
							<stop  offset="0.5323" style="stop-color:#717071"/>
							<stop  offset="0.6882" style="stop-color:#B1B4B5"/>
							<stop  offset="0.8817" style="stop-color:#717071"/>
							<stop  offset="1" style="stop-color:#B1B4B5"/>
						</linearGradient>
						<path fill="url(#SVGID_3_)" d="M71.162,15.821l3.153-1.836c7.231,12.398,11.054,26.619,11.054,41.123h-3.65
							C81.718,41.249,78.067,27.665,71.162,15.821z"/>
					</g>
					<g>
						
							<linearGradient id="SVGID_4_" gradientUnits="userSpaceOnUse" x1="-4686.6025" y1="4985.9277" x2="-4645.4814" y2="4985.9277" gradientTransform="matrix(0 -1 1 0 -4907.6621 -4579.2949)">
							<stop  offset="0" style="stop-color:#B1B4B5"/>
							<stop  offset="0.0806" style="stop-color:#B1B4B5"/>
							<stop  offset="0.129" style="stop-color:#D5D5D5"/>
							<stop  offset="0.2204" style="stop-color:#B1B4B5"/>
							<stop  offset="0.3118" style="stop-color:#717071"/>
							<stop  offset="0.5323" style="stop-color:#717071"/>
							<stop  offset="0.6882" style="stop-color:#B1B4B5"/>
							<stop  offset="0.8817" style="stop-color:#717071"/>
							<stop  offset="1" style="stop-color:#B1B4B5"/>
						</linearGradient>
						<path fill="url(#SVGID_4_)" d="M85.368,105.468l-3.153,1.84c-7.23-12.397-11.053-26.619-11.053-41.121h3.651
							C74.813,80.044,78.463,93.628,85.368,105.468z"/>
					</g>
				</g>
				<g>
					<g>
						
							<linearGradient id="SVGID_5_" gradientUnits="userSpaceOnUse" x1="-8246.248" y1="-3107.8267" x2="-8205.125" y2="-3107.8267" gradientTransform="matrix(-0.7071 0.7071 -0.7071 -0.7071 -7917.2061 3661.0288)">
							<stop  offset="0" style="stop-color:#B1B4B5"/>
							<stop  offset="0.0806" style="stop-color:#B1B4B5"/>
							<stop  offset="0.129" style="stop-color:#D5D5D5"/>
							<stop  offset="0.2204" style="stop-color:#B1B4B5"/>
							<stop  offset="0.3118" style="stop-color:#717071"/>
							<stop  offset="0.5323" style="stop-color:#717071"/>
							<stop  offset="0.6882" style="stop-color:#B1B4B5"/>
							<stop  offset="0.8817" style="stop-color:#717071"/>
							<stop  offset="1" style="stop-color:#B1B4B5"/>
						</linearGradient>
						<path fill="url(#SVGID_5_)" d="M104.937,23.929l3.53,0.93c-3.655,13.879-11.007,26.639-21.263,36.895l-2.581-2.582
							C94.422,49.372,101.446,37.185,104.937,23.929z"/>
					</g>
					<g>
						
							<linearGradient id="SVGID_6_" gradientUnits="userSpaceOnUse" x1="-1333.9814" y1="3489.5527" x2="-1292.8574" y2="3489.5527" gradientTransform="matrix(0.7071 -0.7071 0.7071 0.7071 -1478.9336 -3317.0791)">
							<stop  offset="0" style="stop-color:#B1B4B5"/>
							<stop  offset="0.0806" style="stop-color:#B1B4B5"/>
							<stop  offset="0.129" style="stop-color:#D5D5D5"/>
							<stop  offset="0.2204" style="stop-color:#B1B4B5"/>
							<stop  offset="0.3118" style="stop-color:#717071"/>
							<stop  offset="0.5323" style="stop-color:#717071"/>
							<stop  offset="0.6882" style="stop-color:#B1B4B5"/>
							<stop  offset="0.8817" style="stop-color:#717071"/>
							<stop  offset="1" style="stop-color:#B1B4B5"/>
						</linearGradient>
						<path fill="url(#SVGID_6_)" d="M51.592,97.364l-3.529-0.93C51.717,82.554,59.07,69.794,69.326,59.54l2.581,2.582
							C62.106,71.921,55.083,84.108,51.592,97.364z"/>
					</g>
				</g>
				<g>
					<g>
						
							<linearGradient id="SVGID_7_" gradientUnits="userSpaceOnUse" x1="-8062.2061" y1="3673.5957" x2="-8021.0811" y2="3673.5957" gradientTransform="matrix(-0.7071 -0.7071 0.7071 -0.7071 -8187.1235 -3009.5439)">
							<stop  offset="0" style="stop-color:#B1B4B5"/>
							<stop  offset="0.0806" style="stop-color:#B1B4B5"/>
							<stop  offset="0.129" style="stop-color:#D5D5D5"/>
							<stop  offset="0.2204" style="stop-color:#B1B4B5"/>
							<stop  offset="0.3118" style="stop-color:#717071"/>
							<stop  offset="0.5323" style="stop-color:#717071"/>
							<stop  offset="0.6882" style="stop-color:#B1B4B5"/>
							<stop  offset="0.8817" style="stop-color:#717071"/>
							<stop  offset="1" style="stop-color:#B1B4B5"/>
						</linearGradient>
						<path fill="url(#SVGID_7_)" d="M114.982,87.319l-0.929,3.531c-13.879-3.656-26.638-11.01-36.894-21.264l2.581-2.582
							C89.54,76.804,101.728,83.828,114.982,87.319z"/>
					</g>
					<g>
						
							<linearGradient id="SVGID_8_" gradientUnits="userSpaceOnUse" x1="-1518.0239" y1="-3291.8691" x2="-1476.8999" y2="-3291.8691" gradientTransform="matrix(0.7071 0.7071 -0.7071 0.7071 -1209.0156 3428.729)">
							<stop  offset="0" style="stop-color:#B1B4B5"/>
							<stop  offset="0.0806" style="stop-color:#B1B4B5"/>
							<stop  offset="0.129" style="stop-color:#D5D5D5"/>
							<stop  offset="0.2204" style="stop-color:#B1B4B5"/>
							<stop  offset="0.3118" style="stop-color:#717071"/>
							<stop  offset="0.5323" style="stop-color:#717071"/>
							<stop  offset="0.6882" style="stop-color:#B1B4B5"/>
							<stop  offset="0.8817" style="stop-color:#717071"/>
							<stop  offset="1" style="stop-color:#B1B4B5"/>
						</linearGradient>
						<path fill="url(#SVGID_8_)" d="M41.548,33.976l0.929-3.529c13.88,3.654,26.639,11.007,36.895,21.264l-2.582,2.58
							C66.991,44.489,54.805,37.464,41.548,33.976z"/>
					</g>
				</g>
			</g>
			<circle fill="#B1B4B5" cx="78.608" cy="60.647" r="22.634"/>
			<circle fill="#BFC0C0" cx="78.608" cy="60.647" r="21.468"/>
		</g>
		<g>
			<g>
				<path fill="#AFAEAE" d="M44.148,108.017c0,3.461-2.808,6.266-6.273,6.266c-3.464,0-6.273-2.805-6.273-6.266
					c0-3.463,2.809-6.268,6.273-6.268C41.34,101.749,44.148,104.554,44.148,108.017"/>
				<ellipse fill="none" stroke="#929292" stroke-miterlimit="10" cx="37.875" cy="108.017" rx="6.273" ry="6.266"/>
				<path fill="#AFAEAE" d="M42.484,108.017c0,2.543-2.063,4.604-4.609,4.604s-4.609-2.061-4.609-4.604
					c0-2.545,2.063-4.604,4.609-4.604S42.484,105.472,42.484,108.017"/>
				<ellipse fill="none" stroke="#929292" stroke-miterlimit="10" cx="37.875" cy="108.017" rx="4.609" ry="4.604"/>
				<g>
					<g>
						<defs>
							<rect id="SVGID_9_" x="33.53" y="103.677" width="8.69" height="8.68"/>
						</defs>
						<clipPath id="SVGID_10_">
							<use xlink:href="#SVGID_9_"  overflow="visible"/>
						</clipPath>
						<path clip-path="url(#SVGID_10_)" fill="#BEBEBD" d="M42.22,108.017c0,2.396-1.945,4.34-4.344,4.34
							c-2.399,0-4.344-1.943-4.344-4.34c0-2.397,1.945-4.34,4.344-4.34C40.275,103.677,42.22,105.619,42.22,108.017"/>
						<path clip-path="url(#SVGID_10_)" fill="#C0C0C0" d="M42.118,108.017c0,2.34-1.899,4.236-4.242,4.236
							c-2.342,0-4.241-1.896-4.241-4.236s1.899-4.238,4.241-4.238C40.218,103.778,42.118,105.677,42.118,108.017"/>
						<path clip-path="url(#SVGID_10_)" fill="#C2C3C3" d="M42.015,108.017c0,2.283-1.854,4.135-4.14,4.135
							c-2.286,0-4.139-1.852-4.139-4.135s1.854-4.137,4.139-4.137C40.162,103.88,42.015,105.733,42.015,108.017"/>
						<path clip-path="url(#SVGID_10_)" fill="#C4C5C4" d="M41.913,108.017c0,2.228-1.808,4.033-4.038,4.033
							c-2.229,0-4.037-1.806-4.037-4.033c0-2.229,1.808-4.033,4.037-4.033C40.105,103.983,41.913,105.788,41.913,108.017"/>
						<path clip-path="url(#SVGID_10_)" fill="#C6C8C8" d="M41.812,108.017c0,2.17-1.763,3.93-3.936,3.93
							c-2.172,0-3.935-1.76-3.935-3.93c0-2.172,1.763-3.934,3.935-3.934C40.049,104.083,41.812,105.845,41.812,108.017"/>
						<path clip-path="url(#SVGID_10_)" fill="#C9CACB" d="M41.709,108.017c0,2.113-1.716,3.83-3.833,3.83s-3.833-1.717-3.833-3.83
							c0-2.115,1.715-3.83,3.833-3.83S41.709,105.901,41.709,108.017"/>
						<path clip-path="url(#SVGID_10_)" fill="#CBCDCD" d="M41.606,108.017c0,2.057-1.67,3.728-3.731,3.728s-3.73-1.671-3.73-3.728
							c0-2.061,1.669-3.729,3.73-3.729S41.606,105.956,41.606,108.017"/>
						<path clip-path="url(#SVGID_10_)" fill="#CCCFD0" d="M41.505,108.017c0,2.002-1.625,3.625-3.629,3.625
							c-2.003,0-3.628-1.623-3.628-3.625s1.625-3.625,3.628-3.625C39.88,104.392,41.505,106.015,41.505,108.017"/>
						<path clip-path="url(#SVGID_10_)" fill="#D0D2D2" d="M41.402,108.017c0,1.945-1.579,3.523-3.527,3.523
							c-1.947,0-3.526-1.578-3.526-3.523c0-1.947,1.579-3.524,3.526-3.524C39.824,104.492,41.402,106.069,41.402,108.017"/>
						<path clip-path="url(#SVGID_10_)" fill="#D2D4D5" d="M41.3,108.017c0,1.889-1.534,3.42-3.425,3.42s-3.424-1.531-3.424-3.42
							c0-1.891,1.533-3.422,3.424-3.422S41.3,106.126,41.3,108.017"/>
					</g>
				</g>
				<polygon fill="#605F5E" points="37.309,110.626 37.309,108.583 35.264,108.583 35.264,107.448 37.309,107.448 37.309,105.405 
					38.443,105.405 38.443,107.448 40.487,107.448 40.487,108.583 38.443,108.583 38.443,110.626 				"/>
				<path fill="#221714" d="M38.345,105.505v1.846v0.197h0.196h1.848v0.936h-1.848h-0.196v0.197v1.846h-0.938v-1.846v-0.197H37.21
					h-1.848v-0.936h1.848h0.197v-0.197v-1.846H38.345z M38.542,105.31H37.21v2.041h-2.044v1.33h2.044v2.043h1.332v-2.043h2.044
					v-1.33h-2.044V105.31z"/>
			</g>
			<g>
				<path fill="#AFAEAE" d="M124.926,108.017c0,3.461-2.808,6.266-6.273,6.266c-3.464,0-6.272-2.805-6.272-6.266
					c0-3.463,2.808-6.268,6.272-6.268C122.118,101.749,124.926,104.554,124.926,108.017"/>
				<ellipse fill="none" stroke="#929292" stroke-miterlimit="10" cx="118.653" cy="108.017" rx="6.273" ry="6.266"/>
				<path fill="#AFAEAE" d="M123.262,108.017c0,2.543-2.063,4.604-4.609,4.604c-2.545,0-4.608-2.061-4.608-4.604
					c0-2.545,2.063-4.604,4.608-4.604C121.199,103.412,123.262,105.472,123.262,108.017"/>
				<circle fill="none" stroke="#929292" stroke-miterlimit="10" cx="118.653" cy="108.017" r="4.608"/>
				<g>
					<g>
						<defs>
							<rect id="SVGID_11_" x="114.308" y="103.677" width="8.69" height="8.68"/>
						</defs>
						<clipPath id="SVGID_12_">
							<use xlink:href="#SVGID_11_"  overflow="visible"/>
						</clipPath>
						<path clip-path="url(#SVGID_12_)" fill="#BEBEBD" d="M122.997,108.017c0,2.396-1.944,4.34-4.344,4.34
							c-2.398,0-4.344-1.943-4.344-4.34c0-2.397,1.945-4.34,4.344-4.34C121.053,103.677,122.997,105.619,122.997,108.017"/>
						<path clip-path="url(#SVGID_12_)" fill="#C0C0C0" d="M122.895,108.017c0,2.34-1.899,4.236-4.242,4.236
							c-2.342,0-4.241-1.896-4.241-4.236s1.899-4.238,4.241-4.238C120.996,103.778,122.895,105.677,122.895,108.017"/>
						<path clip-path="url(#SVGID_12_)" fill="#C2C3C3" d="M122.793,108.017c0,2.283-1.854,4.135-4.14,4.135
							c-2.286,0-4.139-1.852-4.139-4.135s1.854-4.137,4.139-4.137C120.939,103.88,122.793,105.733,122.793,108.017"/>
						<path clip-path="url(#SVGID_12_)" fill="#C4C5C4" d="M122.69,108.017c0,2.228-1.807,4.033-4.038,4.033
							c-2.229,0-4.037-1.806-4.037-4.033c0-2.229,1.808-4.033,4.037-4.033C120.883,103.983,122.69,105.788,122.69,108.017"/>
						<path clip-path="url(#SVGID_12_)" fill="#C6C8C8" d="M122.589,108.017c0,2.17-1.762,3.93-3.936,3.93
							c-2.172,0-3.935-1.76-3.935-3.93c0-2.172,1.762-3.934,3.935-3.934C120.827,104.083,122.589,105.845,122.589,108.017"/>
						<path clip-path="url(#SVGID_12_)" fill="#C9CACB" d="M122.486,108.017c0,2.113-1.716,3.83-3.833,3.83
							c-2.117,0-3.833-1.717-3.833-3.83c0-2.115,1.716-3.83,3.833-3.83C120.771,104.187,122.486,105.901,122.486,108.017"/>
						<path clip-path="url(#SVGID_12_)" fill="#CBCDCD" d="M122.384,108.017c0,2.057-1.67,3.728-3.731,3.728
							c-2.061,0-3.73-1.671-3.73-3.728c0-2.061,1.669-3.729,3.73-3.729C120.714,104.288,122.384,105.956,122.384,108.017"/>
						<path clip-path="url(#SVGID_12_)" fill="#CCCFD0" d="M122.283,108.017c0,2.002-1.625,3.625-3.63,3.625
							c-2.004,0-3.628-1.623-3.628-3.625s1.625-3.625,3.628-3.625C120.658,104.392,122.283,106.015,122.283,108.017"/>
						<path clip-path="url(#SVGID_12_)" fill="#D0D2D2" d="M122.18,108.017c0,1.945-1.579,3.523-3.527,3.523
							c-1.947,0-3.526-1.578-3.526-3.523c0-1.947,1.579-3.524,3.526-3.524C120.601,104.492,122.18,106.069,122.18,108.017"/>
						<path clip-path="url(#SVGID_12_)" fill="#D2D4D5" d="M122.078,108.017c0,1.889-1.533,3.42-3.425,3.42
							c-1.891,0-3.424-1.531-3.424-3.42c0-1.891,1.533-3.422,3.424-3.422C120.545,104.595,122.078,106.126,122.078,108.017"/>
					</g>
				</g>
				<polygon fill="#605F5E" points="118.086,110.626 118.086,108.583 116.041,108.583 116.041,107.448 118.086,107.448 
					118.086,105.405 119.221,105.405 119.221,107.448 121.265,107.448 121.265,108.583 119.221,108.583 119.221,110.626 				"/>
				<path fill="#221714" d="M119.123,105.505v1.846v0.197h0.196h1.848v0.936h-1.848h-0.196v0.197v1.846h-0.938v-1.846v-0.197h-0.197
					h-1.848v-0.936h1.848h0.197v-0.197v-1.846H119.123z M119.319,105.31h-1.332v2.041h-2.044v1.33h2.044v2.043h1.332v-2.043h2.044
					v-1.33h-2.044V105.31z"/>
			</g>
		</g>
		<g>
			<g>
				<path fill="#AFAEAE" d="M44.148,18.124c0,3.461-2.808,6.266-6.273,6.266c-3.464,0-6.273-2.805-6.273-6.266
					c0-3.462,2.809-6.268,6.273-6.268C41.34,11.856,44.148,14.662,44.148,18.124"/>
				<ellipse fill="none" stroke="#929292" stroke-miterlimit="10" cx="37.875" cy="18.124" rx="6.273" ry="6.266"/>
				<path fill="#AFAEAE" d="M42.484,18.124c0,2.543-2.063,4.604-4.609,4.604s-4.609-2.061-4.609-4.604
					c0-2.545,2.063-4.605,4.609-4.605S42.484,15.579,42.484,18.124"/>
				<ellipse fill="none" stroke="#929292" stroke-miterlimit="10" cx="37.875" cy="18.124" rx="4.609" ry="4.604"/>
				<g>
					<g>
						<defs>
							<rect id="SVGID_13_" x="33.53" y="13.785" width="8.69" height="8.679"/>
						</defs>
						<clipPath id="SVGID_14_">
							<use xlink:href="#SVGID_13_"  overflow="visible"/>
						</clipPath>
						<path clip-path="url(#SVGID_14_)" fill="#BEBEBD" d="M42.22,18.124c0,2.396-1.945,4.34-4.344,4.34
							c-2.399,0-4.344-1.943-4.344-4.34c0-2.398,1.945-4.339,4.344-4.339C40.275,13.785,42.22,15.726,42.22,18.124"/>
						<path clip-path="url(#SVGID_14_)" fill="#C0C0C0" d="M42.118,18.124c0,2.34-1.899,4.236-4.242,4.236
							c-2.342,0-4.241-1.896-4.241-4.236c0-2.339,1.899-4.238,4.241-4.238C40.218,13.886,42.118,15.785,42.118,18.124"/>
						<path clip-path="url(#SVGID_14_)" fill="#C2C3C3" d="M42.015,18.124c0,2.283-1.854,4.135-4.14,4.135
							c-2.286,0-4.139-1.852-4.139-4.135s1.854-4.137,4.139-4.137C40.162,13.987,42.015,15.841,42.015,18.124"/>
						<path clip-path="url(#SVGID_14_)" fill="#C4C5C4" d="M41.913,18.124c0,2.227-1.808,4.033-4.038,4.033
							c-2.229,0-4.037-1.807-4.037-4.033c0-2.229,1.808-4.033,4.037-4.033C40.105,14.091,41.913,15.896,41.913,18.124"/>
						<path clip-path="url(#SVGID_14_)" fill="#C6C8C8" d="M41.812,18.124c0,2.17-1.763,3.93-3.936,3.93
							c-2.172,0-3.935-1.76-3.935-3.93c0-2.171,1.763-3.934,3.935-3.934C40.049,14.19,41.812,15.953,41.812,18.124"/>
						<path clip-path="url(#SVGID_14_)" fill="#C9CACB" d="M41.709,18.124c0,2.113-1.716,3.83-3.833,3.83s-3.833-1.717-3.833-3.83
							c0-2.115,1.715-3.83,3.833-3.83S41.709,16.009,41.709,18.124"/>
						<path clip-path="url(#SVGID_14_)" fill="#CBCDCD" d="M41.606,18.124c0,2.057-1.67,3.727-3.731,3.727s-3.73-1.67-3.73-3.727
							c0-2.061,1.669-3.729,3.73-3.729S41.606,16.063,41.606,18.124"/>
						<path clip-path="url(#SVGID_14_)" fill="#CCCFD0" d="M41.505,18.124c0,2.002-1.625,3.625-3.629,3.625
							c-2.003,0-3.628-1.623-3.628-3.625s1.625-3.625,3.628-3.625C39.88,14.499,41.505,16.122,41.505,18.124"/>
						<path clip-path="url(#SVGID_14_)" fill="#D0D2D2" d="M41.402,18.124c0,1.945-1.579,3.523-3.527,3.523
							c-1.947,0-3.526-1.578-3.526-3.523c0-1.947,1.579-3.525,3.526-3.525C39.824,14.599,41.402,16.177,41.402,18.124"/>
						<path clip-path="url(#SVGID_14_)" fill="#D2D4D5" d="M41.3,18.124c0,1.889-1.534,3.42-3.425,3.42s-3.424-1.531-3.424-3.42
							c0-1.891,1.533-3.421,3.424-3.421S41.3,16.233,41.3,18.124"/>
					</g>
				</g>
				<polygon fill="#605F5E" points="37.309,20.733 37.309,18.69 35.264,18.69 35.264,17.556 37.309,17.556 37.309,15.513 
					38.443,15.513 38.443,17.556 40.487,17.556 40.487,18.69 38.443,18.69 38.443,20.733 				"/>
				<path fill="#221714" d="M38.345,15.612v1.846v0.197h0.196h1.848v0.936h-1.848h-0.196v0.197v1.846h-0.938v-1.846v-0.197H37.21
					h-1.848v-0.936h1.848h0.197v-0.197v-1.846H38.345z M38.542,15.417H37.21v2.041h-2.044v1.33h2.044v2.043h1.332v-2.043h2.044
					v-1.33h-2.044V15.417z"/>
			</g>
			<g>
				<path fill="#AFAEAE" d="M124.926,18.124c0,3.461-2.808,6.266-6.273,6.266c-3.464,0-6.272-2.805-6.272-6.266
					c0-3.462,2.808-6.268,6.272-6.268C122.118,11.856,124.926,14.662,124.926,18.124"/>
				<ellipse fill="none" stroke="#929292" stroke-miterlimit="10" cx="118.653" cy="18.124" rx="6.273" ry="6.266"/>
				<path fill="#AFAEAE" d="M123.262,18.124c0,2.543-2.063,4.604-4.609,4.604c-2.545,0-4.608-2.061-4.608-4.604
					c0-2.545,2.063-4.605,4.608-4.605C121.199,13.519,123.262,15.579,123.262,18.124"/>
				<circle fill="none" stroke="#929292" stroke-miterlimit="10" cx="118.653" cy="18.124" r="4.608"/>
				<g>
					<g>
						<defs>
							<rect id="SVGID_15_" x="114.308" y="13.785" width="8.69" height="8.679"/>
						</defs>
						<clipPath id="SVGID_16_">
							<use xlink:href="#SVGID_15_"  overflow="visible"/>
						</clipPath>
						<path clip-path="url(#SVGID_16_)" fill="#BEBEBD" d="M122.997,18.124c0,2.396-1.944,4.34-4.344,4.34
							c-2.398,0-4.344-1.943-4.344-4.34c0-2.398,1.945-4.339,4.344-4.339C121.053,13.785,122.997,15.726,122.997,18.124"/>
						<path clip-path="url(#SVGID_16_)" fill="#C0C0C0" d="M122.895,18.124c0,2.34-1.899,4.236-4.242,4.236
							c-2.342,0-4.241-1.896-4.241-4.236c0-2.339,1.899-4.238,4.241-4.238C120.996,13.886,122.895,15.785,122.895,18.124"/>
						<path clip-path="url(#SVGID_16_)" fill="#C2C3C3" d="M122.793,18.124c0,2.283-1.854,4.135-4.14,4.135
							c-2.286,0-4.139-1.852-4.139-4.135s1.854-4.137,4.139-4.137C120.939,13.987,122.793,15.841,122.793,18.124"/>
						<path clip-path="url(#SVGID_16_)" fill="#C4C5C4" d="M122.69,18.124c0,2.227-1.807,4.033-4.038,4.033
							c-2.229,0-4.037-1.807-4.037-4.033c0-2.229,1.808-4.033,4.037-4.033C120.883,14.091,122.69,15.896,122.69,18.124"/>
						<path clip-path="url(#SVGID_16_)" fill="#C6C8C8" d="M122.589,18.124c0,2.17-1.762,3.93-3.936,3.93
							c-2.172,0-3.935-1.76-3.935-3.93c0-2.171,1.762-3.934,3.935-3.934C120.827,14.19,122.589,15.953,122.589,18.124"/>
						<path clip-path="url(#SVGID_16_)" fill="#C9CACB" d="M122.486,18.124c0,2.113-1.716,3.83-3.833,3.83
							c-2.117,0-3.833-1.717-3.833-3.83c0-2.115,1.716-3.83,3.833-3.83C120.771,14.294,122.486,16.009,122.486,18.124"/>
						<path clip-path="url(#SVGID_16_)" fill="#CBCDCD" d="M122.384,18.124c0,2.057-1.67,3.727-3.731,3.727
							c-2.061,0-3.73-1.67-3.73-3.727c0-2.061,1.669-3.729,3.73-3.729C120.714,14.396,122.384,16.063,122.384,18.124"/>
						<path clip-path="url(#SVGID_16_)" fill="#CCCFD0" d="M122.283,18.124c0,2.002-1.625,3.625-3.63,3.625
							c-2.004,0-3.628-1.623-3.628-3.625s1.625-3.625,3.628-3.625C120.658,14.499,122.283,16.122,122.283,18.124"/>
						<path clip-path="url(#SVGID_16_)" fill="#D0D2D2" d="M122.18,18.124c0,1.945-1.579,3.523-3.527,3.523
							c-1.947,0-3.526-1.578-3.526-3.523c0-1.947,1.579-3.525,3.526-3.525C120.601,14.599,122.18,16.177,122.18,18.124"/>
						<path clip-path="url(#SVGID_16_)" fill="#D2D4D5" d="M122.078,18.124c0,1.889-1.533,3.42-3.425,3.42
							c-1.891,0-3.424-1.531-3.424-3.42c0-1.891,1.533-3.421,3.424-3.421C120.545,14.703,122.078,16.233,122.078,18.124"/>
					</g>
				</g>
				<polygon fill="#605F5E" points="118.086,20.733 118.086,18.69 116.041,18.69 116.041,17.556 118.086,17.556 118.086,15.513 
					119.221,15.513 119.221,17.556 121.265,17.556 121.265,18.69 119.221,18.69 119.221,20.733 				"/>
				<path fill="#221714" d="M119.123,15.612v1.846v0.197h0.196h1.848v0.936h-1.848h-0.196v0.197v1.846h-0.938v-1.846v-0.197h-0.197
					h-1.848v-0.936h1.848h0.197v-0.197v-1.846H119.123z M119.319,15.417h-1.332v2.041h-2.044v1.33h2.044v2.043h1.332v-2.043h2.044
					v-1.33h-2.044V15.417z"/>
			</g>
		</g>
	</g>
	<g>
		<ellipse fill="none" stroke="#929292" stroke-miterlimit="10" cx="79.265" cy="60.07" rx="6.046" ry="6.039"/>
		<g>
			<path fill="#AFAEAE" d="M85.311,60.07c0,3.334-2.707,6.039-6.046,6.039s-6.046-2.705-6.046-6.039
				c0-3.338,2.707-6.041,6.046-6.041S85.311,56.732,85.311,60.07"/>
			<g>
				<g>
					<defs>
						<rect id="SVGID_17_" x="75.077" y="55.887" width="8.375" height="8.365"/>
					</defs>
					<clipPath id="SVGID_18_">
						<use xlink:href="#SVGID_17_"  overflow="visible"/>
					</clipPath>
					<path clip-path="url(#SVGID_18_)" fill="#BEBEBD" d="M83.452,60.07c0,2.309-1.875,4.182-4.187,4.182
						c-2.312,0-4.187-1.873-4.187-4.182c0-2.311,1.875-4.184,4.187-4.184C81.577,55.887,83.452,57.76,83.452,60.07"/>
					<path clip-path="url(#SVGID_18_)" fill="#C0C0C0" d="M83.353,60.07c0,2.255-1.83,4.082-4.088,4.082s-4.088-1.827-4.088-4.082
						c0-2.256,1.83-4.086,4.088-4.086S83.353,57.814,83.353,60.07"/>
					<path clip-path="url(#SVGID_18_)" fill="#C2C3C3" d="M83.255,60.07c0,2.199-1.786,3.984-3.99,3.984
						c-2.203,0-3.989-1.785-3.989-3.984c0-2.202,1.786-3.988,3.989-3.988C81.469,56.082,83.255,57.868,83.255,60.07"/>
					<path clip-path="url(#SVGID_18_)" fill="#C4C5C4" d="M83.156,60.07c0,2.146-1.742,3.887-3.892,3.887
						c-2.149,0-3.891-1.74-3.891-3.887c0-2.148,1.742-3.889,3.891-3.889C81.414,56.182,83.156,57.922,83.156,60.07"/>
					<path clip-path="url(#SVGID_18_)" fill="#C6C8C8" d="M83.058,60.07c0,2.092-1.698,3.787-3.793,3.787
						c-2.094,0-3.792-1.695-3.792-3.787c0-2.094,1.698-3.791,3.792-3.791C81.359,56.279,83.058,57.977,83.058,60.07"/>
					<path clip-path="url(#SVGID_18_)" fill="#C9CACB" d="M82.959,60.07c0,2.037-1.653,3.689-3.694,3.689
						c-2.041,0-3.694-1.652-3.694-3.689c0-2.039,1.654-3.691,3.694-3.691C81.306,56.379,82.959,58.031,82.959,60.07"/>
					<path clip-path="url(#SVGID_18_)" fill="#CBCDCD" d="M82.86,60.07c0,1.982-1.609,3.592-3.596,3.592
						c-1.986,0-3.595-1.609-3.595-3.592c0-1.984,1.609-3.594,3.595-3.594C81.251,56.477,82.86,58.086,82.86,60.07"/>
					<path clip-path="url(#SVGID_18_)" fill="#CCCFD0" d="M82.763,60.07c0,1.928-1.566,3.492-3.498,3.492
						c-1.931,0-3.498-1.564-3.498-3.492c0-1.932,1.566-3.495,3.498-3.495C81.196,56.575,82.763,58.139,82.763,60.07"/>
					<path clip-path="url(#SVGID_18_)" fill="#D0D2D2" d="M82.664,60.07c0,1.873-1.521,3.395-3.399,3.395
						c-1.877,0-3.399-1.521-3.399-3.395c0-1.877,1.522-3.396,3.399-3.396C81.143,56.674,82.664,58.193,82.664,60.07"/>
					<path clip-path="url(#SVGID_18_)" fill="#D2D4D5" d="M82.565,60.07c0,1.82-1.478,3.295-3.301,3.295
						c-1.823,0-3.3-1.475-3.3-3.295c0-1.822,1.478-3.299,3.3-3.299C81.088,56.771,82.565,58.248,82.565,60.07"/>
				</g>
			</g>
			<rect x="76.778" y="59.516" fill="#605F5E" width="4.974" height="1.105"/>
		</g>
	</g>
</g>
<g>
	<rect x="309.698" y="68.303" fill="#B7B7B7" width="37.25" height="21.25"/>
	<g>
		<g>
			<rect x="311.656" y="70.458" fill="#1A1D20" width="33.336" height="16.941"/>
		</g>
		<g>
			<rect x="315.345" y="70.456" fill="#ABAAAD" width="7.046" height="1.943"/>
		</g>
		<g>
			<rect x="334.276" y="70.456" fill="#ABAAAD" width="7.046" height="1.943"/>
		</g>
		<g>
			<rect x="315.52" y="74.907" fill="#5A5B55" width="25.607" height="2.803"/>
		</g>
		<g>
			<rect x="311.655" y="75.503" fill="#ABAAAD" width="1.329" height="6.852"/>
		</g>
		<g>
			<rect x="343.663" y="75.503" fill="#ABAAAD" width="1.329" height="6.852"/>
		</g>
		<g>
			<rect x="315.013" y="85.243" fill="#ABAAAD" width="26.623" height="2.156"/>
		</g>
	</g>
</g>
<rect x="143.091" y="3.123" fill="#030000" width="1.654" height="119.894"/>
<rect x="144.745" y="3.123" fill="#263C52" stroke="#0E0E0E" stroke-miterlimit="10" width="511.851" height="119.894"/>
<g>
	<g>
		<rect x="153.361" y="11.185" fill="#030000" width="8.597" height="10.425"/>
		<rect x="164.452" y="11.185" fill="#030000" width="8.597" height="10.425"/>
		<rect x="175.543" y="11.185" fill="#030000" width="8.597" height="10.425"/>
		<rect x="186.635" y="11.185" fill="#030000" width="8.597" height="10.425"/>
		<rect x="197.726" y="11.185" fill="#030000" width="8.597" height="10.425"/>
		<rect x="208.816" y="11.185" fill="#030000" width="8.597" height="10.425"/>
		<rect x="219.908" y="11.185" fill="#030000" width="8.597" height="10.425"/>
		<rect x="230.999" y="11.185" fill="#030000" width="8.597" height="10.425"/>
		<rect x="242.089" y="11.185" fill="#030000" width="8.597" height="10.425"/>
		<rect x="253.18" y="11.185" fill="#030000" width="8.597" height="10.425"/>
		<rect x="264.271" y="11.185" fill="#030000" width="8.597" height="10.425"/>
		<rect x="275.362" y="11.185" fill="#030000" width="8.597" height="10.425"/>
		<rect x="286.453" y="11.185" fill="#030000" width="8.597" height="10.425"/>
		<rect x="297.544" y="11.185" fill="#030000" width="8.597" height="10.425"/>
		<rect x="308.635" y="11.185" fill="#030000" width="8.597" height="10.425"/>
		<rect x="319.726" y="11.185" fill="#030000" width="8.597" height="10.425"/>
		<rect x="330.817" y="11.185" fill="#030000" width="8.597" height="10.425"/>
		<rect x="341.908" y="11.185" fill="#030000" width="8.597" height="10.425"/>
		<rect x="352.999" y="11.185" fill="#030000" width="8.597" height="10.425"/>
		<rect x="364.09" y="11.185" fill="#030000" width="8.597" height="10.425"/>
		<rect x="375.181" y="11.185" fill="#030000" width="8.597" height="10.425"/>
		<rect x="386.271" y="11.185" fill="#030000" width="8.597" height="10.425"/>
		<rect x="397.363" y="11.185" fill="#030000" width="8.597" height="10.425"/>
		<rect x="408.454" y="11.185" fill="#030000" width="8.597" height="10.425"/>
		<rect x="419.544" y="11.185" fill="#030000" width="8.597" height="10.425"/>
		<rect x="430.635" y="11.185" fill="#030000" width="8.597" height="10.425"/>
		<rect x="441.726" y="11.185" fill="#030000" width="8.597" height="10.425"/>
		<rect x="452.817" y="11.185" fill="#030000" width="8.597" height="10.425"/>
		<rect x="463.908" y="11.185" fill="#030000" width="8.597" height="10.425"/>
		<rect x="474.999" y="11.185" fill="#030000" width="8.597" height="10.425"/>
		<rect x="486.09" y="11.185" fill="#030000" width="8.597" height="10.425"/>
		<rect x="497.181" y="11.185" fill="#030000" width="8.597" height="10.425"/>
		<rect x="508.271" y="11.185" fill="#030000" width="8.597" height="10.425"/>
		<rect x="519.362" y="11.185" fill="#030000" width="8.597" height="10.425"/>
		<rect x="530.453" y="11.185" fill="#030000" width="8.597" height="10.425"/>
		<rect x="541.544" y="11.185" fill="#030000" width="8.597" height="10.425"/>
		<rect x="552.635" y="11.185" fill="#030000" width="8.597" height="10.425"/>
		<rect x="563.726" y="11.185" fill="#030000" width="8.597" height="10.425"/>
		<rect x="574.816" y="11.185" fill="#030000" width="8.597" height="10.425"/>
		<rect x="585.907" y="11.185" fill="#030000" width="8.597" height="10.425"/>
	</g>
	<rect x="153.361" y="25.651" fill="#030000" width="8.597" height="10.425"/>
	<rect x="164.452" y="25.651" fill="#030000" width="8.597" height="10.425"/>
	<rect x="175.543" y="25.651" fill="#030000" width="8.597" height="10.425"/>
	<rect x="186.635" y="25.651" fill="#030000" width="8.597" height="10.425"/>
	<rect x="197.726" y="25.651" fill="#030000" width="8.597" height="10.425"/>
	<rect x="208.816" y="25.651" fill="#030000" width="8.597" height="10.425"/>
	<rect x="219.908" y="25.651" fill="#030000" width="8.597" height="10.425"/>
	<rect x="230.999" y="25.651" fill="#030000" width="8.597" height="10.425"/>
	<rect x="242.089" y="25.651" fill="#030000" width="8.597" height="10.425"/>
	<rect x="253.18" y="25.651" fill="#030000" width="8.597" height="10.425"/>
	<rect x="264.271" y="25.651" fill="#030000" width="8.597" height="10.425"/>
	<rect x="275.362" y="25.651" fill="#030000" width="8.597" height="10.425"/>
	<rect x="286.453" y="25.651" fill="#030000" width="8.597" height="10.425"/>
	<rect x="297.544" y="25.651" fill="#030000" width="8.597" height="10.425"/>
	<rect x="308.635" y="25.651" fill="#030000" width="8.597" height="10.425"/>
	<rect x="319.726" y="25.651" fill="#030000" width="8.597" height="10.425"/>
	<rect x="330.817" y="25.651" fill="#030000" width="8.597" height="10.425"/>
	<rect x="341.908" y="25.651" fill="#030000" width="8.597" height="10.425"/>
	<rect x="352.999" y="25.651" fill="#030000" width="8.597" height="10.425"/>
	<rect x="364.09" y="25.651" fill="#030000" width="8.597" height="10.425"/>
	<rect x="375.181" y="25.651" fill="#030000" width="8.597" height="10.425"/>
	<rect x="386.271" y="25.651" fill="#030000" width="8.597" height="10.425"/>
	<rect x="397.363" y="25.651" fill="#030000" width="8.597" height="10.425"/>
	<rect x="408.454" y="25.651" fill="#030000" width="8.597" height="10.425"/>
	<rect x="419.544" y="25.651" fill="#030000" width="8.597" height="10.425"/>
	<rect x="430.635" y="25.651" fill="#030000" width="8.597" height="10.425"/>
	<rect x="441.726" y="25.651" fill="#030000" width="8.597" height="10.425"/>
	<rect x="452.817" y="25.651" fill="#030000" width="8.597" height="10.425"/>
	<rect x="463.908" y="25.651" fill="#030000" width="8.597" height="10.425"/>
	<rect x="474.999" y="25.651" fill="#030000" width="8.597" height="10.425"/>
	<rect x="486.09" y="25.651" fill="#030000" width="8.597" height="10.425"/>
	<rect x="497.181" y="25.651" fill="#030000" width="8.597" height="10.425"/>
	<rect x="508.271" y="25.651" fill="#030000" width="8.597" height="10.425"/>
	<rect x="519.362" y="25.651" fill="#030000" width="8.597" height="10.425"/>
	<rect x="530.453" y="25.651" fill="#030000" width="8.597" height="10.425"/>
	<rect x="541.544" y="25.651" fill="#030000" width="8.597" height="10.425"/>
	<rect x="153.361" y="40.117" fill="#030000" width="8.597" height="10.425"/>
	<rect x="164.452" y="40.117" fill="#030000" width="8.597" height="10.425"/>
	<rect x="175.543" y="40.117" fill="#030000" width="8.597" height="10.425"/>
	<rect x="186.635" y="40.117" fill="#030000" width="8.597" height="10.425"/>
	<rect x="197.726" y="40.117" fill="#030000" width="8.597" height="10.425"/>
	<rect x="208.816" y="40.117" fill="#030000" width="8.597" height="10.425"/>
	<rect x="219.908" y="40.117" fill="#030000" width="8.597" height="10.425"/>
	<rect x="230.999" y="40.117" fill="#030000" width="8.597" height="10.425"/>
	<rect x="242.089" y="40.117" fill="#030000" width="8.597" height="10.425"/>
	<rect x="253.18" y="40.117" fill="#030000" width="8.597" height="10.425"/>
	<rect x="264.271" y="40.117" fill="#030000" width="8.597" height="10.425"/>
	<rect x="275.362" y="40.117" fill="#030000" width="8.597" height="10.425"/>
	<rect x="286.453" y="40.117" fill="#030000" width="8.597" height="10.425"/>
	<rect x="297.544" y="40.117" fill="#030000" width="8.597" height="10.425"/>
	<rect x="308.635" y="40.117" fill="#030000" width="8.597" height="10.425"/>
	<rect x="319.726" y="40.117" fill="#030000" width="8.597" height="10.425"/>
	<rect x="330.817" y="40.117" fill="#030000" width="8.597" height="10.425"/>
	<rect x="341.908" y="40.117" fill="#030000" width="8.597" height="10.425"/>
	<rect x="352.999" y="40.117" fill="#030000" width="8.597" height="10.425"/>
	<rect x="364.09" y="40.117" fill="#030000" width="8.597" height="10.425"/>
	<rect x="375.181" y="40.117" fill="#030000" width="8.597" height="10.425"/>
	<rect x="386.271" y="40.117" fill="#030000" width="8.597" height="10.425"/>
	<rect x="397.363" y="40.117" fill="#030000" width="8.597" height="10.425"/>
	<rect x="408.454" y="40.117" fill="#030000" width="8.597" height="10.425"/>
	<rect x="419.544" y="40.117" fill="#030000" width="8.597" height="10.425"/>
	<rect x="430.635" y="40.117" fill="#030000" width="8.597" height="10.425"/>
	<rect x="441.726" y="40.117" fill="#030000" width="8.597" height="10.425"/>
	<rect x="452.817" y="40.117" fill="#030000" width="8.597" height="10.425"/>
	<rect x="463.908" y="40.117" fill="#030000" width="8.597" height="10.425"/>
	<rect x="474.999" y="40.117" fill="#030000" width="8.597" height="10.425"/>
	<rect x="486.09" y="40.117" fill="#030000" width="8.597" height="10.425"/>
	<rect x="497.181" y="40.117" fill="#030000" width="8.597" height="10.425"/>
	<rect x="508.271" y="40.117" fill="#030000" width="8.597" height="10.425"/>
	<rect x="519.362" y="40.117" fill="#030000" width="8.597" height="10.425"/>
	<rect x="530.453" y="40.117" fill="#030000" width="8.597" height="10.425"/>
	<rect x="541.544" y="40.117" fill="#030000" width="8.597" height="10.425"/>
</g>
<g>
	<g>
		<g>
			<path fill="#252626" d="M661.267,20.918c0,4.415,3.58,7.993,7.996,7.993s7.996-3.578,7.996-7.993c0-4.414-3.58-7.994-7.996-7.994
				S661.267,16.504,661.267,20.918"/>
			<circle fill="none" stroke="#121212" stroke-width="0.75" stroke-miterlimit="10" cx="669.263" cy="20.918" r="7.996"/>
			<polygon fill="#040000" points="670.251,25.451 670.251,21.904 673.797,21.904 673.797,19.93 670.251,19.93 670.251,16.384 
				668.274,16.384 668.274,19.93 664.728,19.93 664.728,21.904 668.274,21.904 668.274,25.451 			"/>
			<path fill="#221714" d="M670.083,16.551v3.212v0.334h0.335h3.213v1.642h-3.213h-0.335v0.334v3.212h-1.642v-3.212v-0.334h-0.333
				h-3.214v-1.642h3.214h0.333v-0.334v-3.212H670.083z M668.108,19.763h-3.547v2.31h3.547v3.545h2.31v-3.545h3.546v-2.31h-3.546
				v-3.546h-2.31V19.763z"/>
		</g>
		<rect x="670.083" y="16.218" fill="#606062" width="0.335" height="3.879"/>
		<rect x="670.086" y="19.763" fill="#606062" width="3.878" height="0.334"/>
	</g>
	<g>
		<g>
			<path fill="#252626" d="M661.267,107.587c0,4.414,3.58,7.993,7.996,7.993s7.996-3.579,7.996-7.993
				c0-4.415-3.58-7.995-7.996-7.995S661.267,103.172,661.267,107.587"/>
			<circle fill="none" stroke="#121212" stroke-width="0.75" stroke-miterlimit="10" cx="669.263" cy="107.587" r="7.996"/>
			<polygon fill="#040000" points="670.251,112.12 670.251,108.573 673.797,108.573 673.797,106.598 670.251,106.598 
				670.251,103.053 668.274,103.053 668.274,106.598 664.728,106.598 664.728,108.573 668.274,108.573 668.274,112.12 			"/>
			<path fill="#221714" d="M670.083,103.22v3.212v0.334h0.335h3.213v1.642h-3.213h-0.335v0.333v3.213h-1.642v-3.213v-0.333h-0.333
				h-3.214v-1.642h3.214h0.333v-0.334v-3.212H670.083z M668.108,106.432h-3.547v2.309h3.547v3.546h2.31v-3.546h3.546v-2.309h-3.546
				v-3.546h-2.31V106.432z"/>
		</g>
		<rect x="670.083" y="102.887" fill="#606062" width="0.335" height="3.879"/>
		<rect x="670.086" y="106.432" fill="#606062" width="3.878" height="0.334"/>
	</g>
</g>
<rect x="743.573" y="3.123" fill="#2F302F" width="512.552" height="119.894"/>
<g>
	<path fill="#868787" d="M827.18,104.936c0,3.691-2.993,6.685-6.685,6.685l0,0c-3.692,0-6.685-2.993-6.685-6.685V79.938
		c0-3.692,2.992-6.686,6.685-6.686l0,0c3.691,0,6.685,2.993,6.685,6.686V104.936z"/>
	<path fill="#030000" d="M827.555,105.436c0,3.691-2.993,6.685-6.685,6.685l0,0c-3.692,0-6.685-2.993-6.685-6.685V80.438
		c0-3.692,2.992-6.686,6.685-6.686l0,0c3.691,0,6.685,2.993,6.685,6.686V105.436z"/>
</g>
<g>
	<path fill="#868787" d="M846.492,104.936c0,3.691-2.993,6.685-6.685,6.685l0,0c-3.692,0-6.685-2.993-6.685-6.685V79.938
		c0-3.692,2.992-6.686,6.685-6.686l0,0c3.691,0,6.685,2.993,6.685,6.686V104.936z"/>
	<path fill="#030000" d="M846.867,105.436c0,3.691-2.993,6.685-6.685,6.685l0,0c-3.692,0-6.685-2.993-6.685-6.685V80.438
		c0-3.692,2.992-6.686,6.685-6.686l0,0c3.691,0,6.685,2.993,6.685,6.686V105.436z"/>
</g>
<g>
	<path fill="#868787" d="M865.805,104.936c0,3.691-2.993,6.685-6.685,6.685l0,0c-3.692,0-6.685-2.993-6.685-6.685V79.938
		c0-3.692,2.992-6.686,6.685-6.686l0,0c3.691,0,6.685,2.993,6.685,6.686V104.936z"/>
	<path fill="#030000" d="M866.18,105.436c0,3.691-2.993,6.685-6.685,6.685l0,0c-3.692,0-6.685-2.993-6.685-6.685V80.438
		c0-3.692,2.992-6.686,6.685-6.686l0,0c3.691,0,6.685,2.993,6.685,6.686V105.436z"/>
</g>
<g>
	<path fill="#868787" d="M885.117,104.936c0,3.691-2.993,6.685-6.685,6.685l0,0c-3.692,0-6.685-2.993-6.685-6.685V79.938
		c0-3.692,2.992-6.686,6.685-6.686l0,0c3.691,0,6.685,2.993,6.685,6.686V104.936z"/>
	<path fill="#030000" d="M885.492,105.436c0,3.691-2.993,6.685-6.685,6.685l0,0c-3.692,0-6.685-2.993-6.685-6.685V80.438
		c0-3.692,2.992-6.686,6.685-6.686l0,0c3.691,0,6.685,2.993,6.685,6.686V105.436z"/>
</g>
<g>
	<path fill="#868787" d="M904.43,104.936c0,3.691-2.993,6.685-6.685,6.685l0,0c-3.692,0-6.685-2.993-6.685-6.685V79.938
		c0-3.692,2.992-6.686,6.685-6.686l0,0c3.691,0,6.685,2.993,6.685,6.686V104.936z"/>
	<path fill="#030000" d="M904.805,105.436c0,3.691-2.993,6.685-6.685,6.685l0,0c-3.692,0-6.685-2.993-6.685-6.685V80.438
		c0-3.692,2.992-6.686,6.685-6.686l0,0c3.691,0,6.685,2.993,6.685,6.686V105.436z"/>
</g>
<g>
	<path fill="#868787" d="M923.742,104.936c0,3.691-2.993,6.685-6.685,6.685l0,0c-3.692,0-6.685-2.993-6.685-6.685V79.938
		c0-3.692,2.992-6.686,6.685-6.686l0,0c3.691,0,6.685,2.993,6.685,6.686V104.936z"/>
	<path fill="#030000" d="M924.117,105.436c0,3.691-2.993,6.685-6.685,6.685l0,0c-3.692,0-6.685-2.993-6.685-6.685V80.438
		c0-3.692,2.992-6.686,6.685-6.686l0,0c3.691,0,6.685,2.993,6.685,6.686V105.436z"/>
</g>
<g>
	<path fill="#868787" d="M943.055,104.936c0,3.691-2.992,6.685-6.685,6.685l0,0c-3.692,0-6.685-2.993-6.685-6.685V79.938
		c0-3.692,2.992-6.686,6.685-6.686l0,0c3.692,0,6.685,2.993,6.685,6.686V104.936z"/>
	<path fill="#030000" d="M943.43,105.436c0,3.691-2.992,6.685-6.685,6.685l0,0c-3.692,0-6.685-2.993-6.685-6.685V80.438
		c0-3.692,2.992-6.686,6.685-6.686l0,0c3.692,0,6.685,2.993,6.685,6.686V105.436z"/>
</g>
<g>
	<path fill="#868787" d="M962.367,104.936c0,3.691-2.992,6.685-6.685,6.685l0,0c-3.692,0-6.685-2.993-6.685-6.685V79.938
		c0-3.692,2.992-6.686,6.685-6.686l0,0c3.692,0,6.685,2.993,6.685,6.686V104.936z"/>
	<path fill="#030000" d="M962.742,105.436c0,3.691-2.992,6.685-6.685,6.685l0,0c-3.692,0-6.685-2.993-6.685-6.685V80.438
		c0-3.692,2.992-6.686,6.685-6.686l0,0c3.692,0,6.685,2.993,6.685,6.686V105.436z"/>
</g>
<g>
	<path fill="#868787" d="M981.68,104.936c0,3.691-2.992,6.685-6.685,6.685l0,0c-3.692,0-6.685-2.993-6.685-6.685V79.938
		c0-3.692,2.992-6.686,6.685-6.686l0,0c3.692,0,6.685,2.993,6.685,6.686V104.936z"/>
	<path fill="#030000" d="M982.055,105.436c0,3.691-2.992,6.685-6.685,6.685l0,0c-3.692,0-6.685-2.993-6.685-6.685V80.438
		c0-3.692,2.992-6.686,6.685-6.686l0,0c3.692,0,6.685,2.993,6.685,6.686V105.436z"/>
</g>
<g>
	<path fill="#868787" d="M1000.992,104.936c0,3.691-2.992,6.685-6.685,6.685l0,0c-3.692,0-6.685-2.993-6.685-6.685V79.938
		c0-3.692,2.992-6.686,6.685-6.686l0,0c3.692,0,6.685,2.993,6.685,6.686V104.936z"/>
	<path fill="#030000" d="M1001.367,105.436c0,3.691-2.992,6.685-6.685,6.685l0,0c-3.692,0-6.685-2.993-6.685-6.685V80.438
		c0-3.692,2.992-6.686,6.685-6.686l0,0c3.692,0,6.685,2.993,6.685,6.686V105.436z"/>
</g>
<g>
	<path fill="#868787" d="M1020.305,104.936c0,3.691-2.992,6.685-6.685,6.685l0,0c-3.692,0-6.685-2.993-6.685-6.685V79.938
		c0-3.692,2.992-6.686,6.685-6.686l0,0c3.692,0,6.685,2.993,6.685,6.686V104.936z"/>
	<path fill="#030000" d="M1020.68,105.436c0,3.691-2.992,6.685-6.685,6.685l0,0c-3.692,0-6.685-2.993-6.685-6.685V80.438
		c0-3.692,2.992-6.686,6.685-6.686l0,0c3.692,0,6.685,2.993,6.685,6.686V105.436z"/>
</g>
<g>
	<path fill="#868787" d="M1039.617,104.936c0,3.691-2.992,6.685-6.685,6.685l0,0c-3.692,0-6.685-2.993-6.685-6.685V79.938
		c0-3.692,2.992-6.686,6.685-6.686l0,0c3.692,0,6.685,2.993,6.685,6.686V104.936z"/>
	<path fill="#030000" d="M1039.992,105.436c0,3.691-2.992,6.685-6.685,6.685l0,0c-3.692,0-6.685-2.993-6.685-6.685V80.438
		c0-3.692,2.992-6.686,6.685-6.686l0,0c3.692,0,6.685,2.993,6.685,6.686V105.436z"/>
</g>
<g>
	<path fill="#868787" d="M1058.93,104.936c0,3.691-2.992,6.685-6.685,6.685l0,0c-3.692,0-6.685-2.993-6.685-6.685V79.938
		c0-3.692,2.992-6.686,6.685-6.686l0,0c3.692,0,6.685,2.993,6.685,6.686V104.936z"/>
	<path fill="#030000" d="M1059.305,105.436c0,3.691-2.992,6.685-6.685,6.685l0,0c-3.692,0-6.685-2.993-6.685-6.685V80.438
		c0-3.692,2.992-6.686,6.685-6.686l0,0c3.692,0,6.685,2.993,6.685,6.686V105.436z"/>
</g>
<g>
	<path fill="#868787" d="M1078.242,104.936c0,3.691-2.992,6.685-6.685,6.685l0,0c-3.692,0-6.685-2.993-6.685-6.685V79.938
		c0-3.692,2.992-6.686,6.685-6.686l0,0c3.692,0,6.685,2.993,6.685,6.686V104.936z"/>
	<path fill="#030000" d="M1078.617,105.436c0,3.691-2.992,6.685-6.685,6.685l0,0c-3.692,0-6.685-2.993-6.685-6.685V80.438
		c0-3.692,2.992-6.686,6.685-6.686l0,0c3.692,0,6.685,2.993,6.685,6.686V105.436z"/>
</g>
<g>
	<path fill="#868787" d="M1097.555,104.936c0,3.691-2.992,6.685-6.685,6.685l0,0c-3.692,0-6.685-2.993-6.685-6.685V79.938
		c0-3.692,2.992-6.686,6.685-6.686l0,0c3.692,0,6.685,2.993,6.685,6.686V104.936z"/>
	<path fill="#030000" d="M1097.93,105.436c0,3.691-2.992,6.685-6.685,6.685l0,0c-3.692,0-6.685-2.993-6.685-6.685V80.438
		c0-3.692,2.992-6.686,6.685-6.686l0,0c3.692,0,6.685,2.993,6.685,6.686V105.436z"/>
</g>
<g>
	<path fill="#868787" d="M1116.867,104.936c0,3.691-2.992,6.685-6.685,6.685l0,0c-3.692,0-6.685-2.993-6.685-6.685V79.938
		c0-3.692,2.992-6.686,6.685-6.686l0,0c3.692,0,6.685,2.993,6.685,6.686V104.936z"/>
	<path fill="#030000" d="M1117.242,105.436c0,3.691-2.992,6.685-6.685,6.685l0,0c-3.692,0-6.685-2.993-6.685-6.685V80.438
		c0-3.692,2.992-6.686,6.685-6.686l0,0c3.692,0,6.685,2.993,6.685,6.686V105.436z"/>
</g>
<g>
	<path fill="#868787" d="M1136.18,104.936c0,3.691-2.992,6.685-6.685,6.685l0,0c-3.692,0-6.685-2.993-6.685-6.685V79.938
		c0-3.692,2.992-6.686,6.685-6.686l0,0c3.692,0,6.685,2.993,6.685,6.686V104.936z"/>
	<path fill="#030000" d="M1136.555,105.436c0,3.691-2.992,6.685-6.685,6.685l0,0c-3.692,0-6.685-2.993-6.685-6.685V80.438
		c0-3.692,2.992-6.686,6.685-6.686l0,0c3.692,0,6.685,2.993,6.685,6.686V105.436z"/>
</g>
<g>
	<path fill="#868787" d="M1155.492,104.936c0,3.691-2.992,6.685-6.685,6.685l0,0c-3.692,0-6.685-2.993-6.685-6.685V79.938
		c0-3.692,2.992-6.686,6.685-6.686l0,0c3.692,0,6.685,2.993,6.685,6.686V104.936z"/>
	<path fill="#030000" d="M1155.867,105.436c0,3.691-2.992,6.685-6.685,6.685l0,0c-3.692,0-6.685-2.993-6.685-6.685V80.438
		c0-3.692,2.992-6.686,6.685-6.686l0,0c3.692,0,6.685,2.993,6.685,6.686V105.436z"/>
</g>
<g>
	<path fill="#868787" d="M1174.805,104.936c0,3.691-2.992,6.685-6.685,6.685l0,0c-3.692,0-6.685-2.993-6.685-6.685V79.938
		c0-3.692,2.992-6.686,6.685-6.686l0,0c3.692,0,6.685,2.993,6.685,6.686V104.936z"/>
	<path fill="#030000" d="M1175.18,105.436c0,3.691-2.992,6.685-6.685,6.685l0,0c-3.692,0-6.685-2.993-6.685-6.685V80.438
		c0-3.692,2.992-6.686,6.685-6.686l0,0c3.692,0,6.685,2.993,6.685,6.686V105.436z"/>
</g>
</svg>
