<?xml version="1.0" encoding="utf-8"?>
<!-- Generator: Adobe Illustrator 16.0.0, SVG Export Plug-In . SVG Version: 6.00 Build 0)  -->
<!DOCTYPE svg PUBLIC "-//W3C//DTD SVG 1.1//EN" "http://www.w3.org/Graphics/SVG/1.1/DTD/svg11.dtd">
<svg version="1.1" id="图层_1" xmlns="http://www.w3.org/2000/svg" xmlns:xlink="http://www.w3.org/1999/xlink" x="0px" y="0px"
	 width="1275.59px" height="252.28px" viewBox="0 0 1275.59 252.28" enable-background="new 0 0 1275.59 252.28"
	 xml:space="preserve">
<g>
	<g>
		<g>
			<g>
				<g>
					<polygon fill="#3D3D3D" points="0.193,-0.002 0.193,168.124 0.193,252.282 1275.591,252.282 1275.591,168.124 1275.591,-0.002 
											"/>
				</g>
				<g>
					<rect x="-0.001" y="-0.002" fill="#333333" width="61.473" height="252.284"/>
				</g>
				<g>
					<rect x="59.28" y="-0.002" width="2.191" height="252.284"/>
				</g>
				<g>
					<rect x="1211.925" y="-0.002" width="2.192" height="252.284"/>
				</g>
				<g>
					<rect x="1214.117" y="-0.002" fill="#2B2B2B" width="61.474" height="252.284"/>
				</g>
			</g>
			<g>
				<g>
					<path fill="#DDDBD3" d="M126.977,69.507V16.055c0,0,0-0.905,1.052-1.11h42.663c0,0,0.838,0.293,0.896,1.52v53.043
						C171.588,69.507,149.282,77.686,126.977,69.507z"/>
					<path fill="#999790" d="M162.057,50.657c0,0.517-0.418,0.936-0.935,0.936h-23.68c-0.516,0-0.935-0.418-0.935-0.936V32.119
						c0-0.516,0.419-0.935,0.935-0.935h23.68c0.516,0,0.935,0.418,0.935,0.935V50.657z"/>
				</g>
				<g>
					<path fill="#DDDBD3" d="M1104.002,69.507V16.055c0,0,0-0.905,1.051-1.11h42.664c0,0,0.838,0.293,0.896,1.52v53.043
						C1148.613,69.507,1126.307,77.686,1104.002,69.507z"/>
					<path fill="#999790" d="M1139.08,50.657c0,0.517-0.418,0.936-0.934,0.936h-23.68c-0.516,0-0.934-0.418-0.934-0.936V32.119
						c0-0.516,0.418-0.935,0.934-0.935h23.68c0.516,0,0.934,0.418,0.934,0.935V50.657z"/>
				</g>
			</g>
		</g>
		<g>
			<polygon fill="#DDDDDD" points="665.07,97.986 634.381,111.155 638.462,113.585 648.697,108.873 648.595,107.855 
				657.516,104.224 657.63,102.971 666.15,99.243 			"/>
			<polygon fill="#DDDDDD" points="670.186,100.71 640.275,113.504 643.457,116.144 654.147,111.469 654.107,110.563 
				662.11,106.745 662.862,105.747 671.607,102.01 			"/>
			<path fill="#DDDDDD" d="M674.733,103.403c-0.285-0.044-29.158,13.156-29.158,13.156l3.191,1.959l19.585-9.213l0.064-1.138
				l8.585-3.503L674.733,103.403z"/>
			<polygon fill="#DDDDDD" points="680.226,105.658 669.965,109.802 670.012,110.822 662.419,113.655 660.591,115.95 
				652.01,119.567 653.88,120.79 683.718,107.602 			"/>
			<polygon fill="#DDDDDD" points="685.056,108.337 675.651,112.501 675.185,113.545 666.92,116.635 665.873,118.61 
				657.643,122.438 659.56,123.433 689.073,110.6 			"/>
			<polygon fill="#DDDDDD" points="691.317,111.238 680.876,115.163 680.415,116.319 672.405,119.969 671.666,121.249 
				663.04,125.096 665.072,126.14 694.706,113.472 			"/>
			<text transform="matrix(1 0 0 1 580.8838 122.5024)" fill="#DDDDDD" font-family="'MicrosoftYaHei'" font-size="24.7097">普天</text>
			
				<text transform="matrix(1 0 0 1 580.8838 122.5024)" fill="none" stroke="#DDDDDD" stroke-miterlimit="10" font-family="'MicrosoftYaHei'" font-size="24.7097">普天</text>
		</g>
	</g>
	<g>
		<path fill="#AFAFAF" d="M1259.21,44.811c0,7.92-6.428,14.342-14.356,14.342s-14.356-6.422-14.356-14.342
			c0-7.922,6.428-14.344,14.356-14.344S1259.21,36.889,1259.21,44.811"/>
		<ellipse fill="none" stroke="#939393" stroke-miterlimit="10" cx="1244.854" cy="44.81" rx="14.356" ry="14.342"/>
		<path fill="#AFAFAF" d="M1255.401,44.811c0,5.818-4.724,10.538-10.548,10.538c-5.826,0-10.548-4.72-10.548-10.538
			c0-5.821,4.722-10.54,10.548-10.54C1250.678,34.27,1255.401,38.989,1255.401,44.811"/>
		<ellipse fill="none" stroke="#939393" stroke-miterlimit="10" cx="1244.854" cy="44.811" rx="10.548" ry="10.538"/>
		<g>
			<g>
				<g>
					<defs>
						<rect id="SVGID_1_" x="1234.908" y="34.877" width="19.889" height="19.865"/>
					</defs>
					<clipPath id="SVGID_2_">
						<use xlink:href="#SVGID_1_"  overflow="visible"/>
					</clipPath>
					<path clip-path="url(#SVGID_2_)" fill="#BEBFBF" d="M1254.795,44.811c0,5.484-4.45,9.932-9.941,9.932
						c-5.49,0-9.942-4.447-9.942-9.932c0-5.486,4.451-9.934,9.942-9.934C1250.343,34.877,1254.795,39.323,1254.795,44.811"/>
				</g>
				<g>
					<defs>
						<rect id="SVGID_3_" x="1234.908" y="34.877" width="19.889" height="19.865"/>
					</defs>
					<clipPath id="SVGID_4_">
						<use xlink:href="#SVGID_3_"  overflow="visible"/>
					</clipPath>
					<path clip-path="url(#SVGID_4_)" fill="#C0C1C1" d="M1254.561,44.811c0,5.354-4.347,9.697-9.707,9.697
						c-5.362,0-9.708-4.343-9.708-9.697c0-5.356,4.346-9.699,9.708-9.699C1250.214,35.111,1254.561,39.453,1254.561,44.811"/>
				</g>
				<g>
					<defs>
						<rect id="SVGID_5_" x="1234.908" y="34.877" width="19.889" height="19.865"/>
					</defs>
					<clipPath id="SVGID_6_">
						<use xlink:href="#SVGID_5_"  overflow="visible"/>
					</clipPath>
					<path clip-path="url(#SVGID_6_)" fill="#C3C4C4" d="M1254.328,44.811c0,5.226-4.241,9.464-9.475,9.464
						s-9.475-4.238-9.475-9.464c0-5.229,4.241-9.467,9.475-9.467C1250.085,35.343,1254.328,39.582,1254.328,44.811"/>
				</g>
				<g>
					<defs>
						<rect id="SVGID_7_" x="1234.908" y="34.877" width="19.889" height="19.865"/>
					</defs>
					<clipPath id="SVGID_8_">
						<use xlink:href="#SVGID_7_"  overflow="visible"/>
					</clipPath>
					<path clip-path="url(#SVGID_8_)" fill="#C5C6C6" d="M1254.094,44.811c0,5.097-4.138,9.231-9.24,9.231
						c-5.104,0-9.24-4.134-9.24-9.231c0-5.099,4.136-9.233,9.24-9.233C1249.956,35.577,1254.094,39.712,1254.094,44.811"/>
				</g>
				<g>
					<defs>
						<rect id="SVGID_9_" x="1234.908" y="34.877" width="19.889" height="19.865"/>
					</defs>
					<clipPath id="SVGID_10_">
						<use xlink:href="#SVGID_9_"  overflow="visible"/>
					</clipPath>
					<path clip-path="url(#SVGID_10_)" fill="#C7C9C9" d="M1253.859,44.811c0,4.967-4.032,8.997-9.006,8.997
						c-4.972,0-9.004-4.03-9.004-8.997c0-4.97,4.032-9,9.004-9C1249.827,35.811,1253.859,39.841,1253.859,44.811"/>
				</g>
				<g>
					<defs>
						<rect id="SVGID_11_" x="1234.908" y="34.877" width="19.889" height="19.865"/>
					</defs>
					<clipPath id="SVGID_12_">
						<use xlink:href="#SVGID_11_"  overflow="visible"/>
					</clipPath>
					<path clip-path="url(#SVGID_12_)" fill="#CACBCB" d="M1253.625,44.811c0,4.839-3.927,8.765-8.771,8.765
						c-4.847,0-8.773-3.926-8.773-8.765c0-4.841,3.927-8.766,8.773-8.766C1249.698,36.044,1253.625,39.97,1253.625,44.811"/>
				</g>
				<g>
					<defs>
						<rect id="SVGID_13_" x="1234.908" y="34.877" width="19.889" height="19.865"/>
					</defs>
					<clipPath id="SVGID_14_">
						<use xlink:href="#SVGID_13_"  overflow="visible"/>
					</clipPath>
					<path clip-path="url(#SVGID_14_)" fill="#CCCECE" d="M1253.393,44.811c0,4.71-3.824,8.529-8.539,8.529
						c-4.717,0-8.539-3.819-8.539-8.529c0-4.712,3.823-8.532,8.539-8.532C1249.568,36.278,1253.393,40.099,1253.393,44.811"/>
				</g>
				<g>
					<defs>
						<rect id="SVGID_15_" x="1234.908" y="34.877" width="19.889" height="19.865"/>
					</defs>
					<clipPath id="SVGID_16_">
						<use xlink:href="#SVGID_15_"  overflow="visible"/>
					</clipPath>
					<path clip-path="url(#SVGID_16_)" fill="#CED0D0" d="M1253.158,44.811c0,4.58-3.717,8.297-8.305,8.297
						c-4.586,0-8.306-3.717-8.306-8.297c0-4.583,3.72-8.299,8.306-8.299C1249.441,36.512,1253.158,40.228,1253.158,44.811"/>
				</g>
				<g>
					<defs>
						<rect id="SVGID_17_" x="1234.908" y="34.877" width="19.889" height="19.865"/>
					</defs>
					<clipPath id="SVGID_18_">
						<use xlink:href="#SVGID_17_"  overflow="visible"/>
					</clipPath>
					<path clip-path="url(#SVGID_18_)" fill="#D1D3D3" d="M1252.924,44.811c0,4.452-3.613,8.063-8.07,8.063s-8.071-3.61-8.071-8.063
						c0-4.454,3.614-8.064,8.071-8.064S1252.924,40.355,1252.924,44.811"/>
				</g>
				<g>
					<defs>
						<rect id="SVGID_19_" x="1234.908" y="34.877" width="19.889" height="19.865"/>
					</defs>
					<clipPath id="SVGID_20_">
						<use xlink:href="#SVGID_19_"  overflow="visible"/>
					</clipPath>
					<path clip-path="url(#SVGID_20_)" fill="#D3D5D5" d="M1252.69,44.811c0,4.323-3.508,7.828-7.837,7.828
						c-4.33,0-7.837-3.505-7.837-7.828c0-4.325,3.507-7.831,7.837-7.831C1249.183,36.979,1252.69,40.484,1252.69,44.811"/>
				</g>
			</g>
		</g>
		<polygon fill="#605F5E" points="1243.554,50.78 1243.554,46.105 1238.874,46.105 1238.874,43.511 1243.554,43.511 
			1243.554,38.836 1246.151,38.836 1246.151,43.511 1250.831,43.511 1250.831,46.105 1246.151,46.105 1246.151,50.78 		"/>
		<path fill="#231815" d="M1245.927,39.062v4.226v0.449h0.45h4.229v2.146h-4.229h-0.45v0.449v4.226h-2.146v-4.226v-0.449h-0.45
			h-4.229v-2.146h4.229h0.45v-0.449v-4.226H1245.927z M1246.377,38.613h-3.047v4.674h-4.68v3.044h4.68v4.675h3.047v-4.675h4.678
			v-3.044h-4.678V38.613z"/>
		<path fill="#AFAFAF" d="M1259.21,207.473c0,7.92-6.428,14.341-14.356,14.341s-14.356-6.421-14.356-14.341
			c0-7.921,6.428-14.344,14.356-14.344S1259.21,199.55,1259.21,207.473"/>
		<ellipse fill="none" stroke="#939393" stroke-miterlimit="10" cx="1244.854" cy="207.473" rx="14.356" ry="14.341"/>
		<path fill="#AFAFAF" d="M1255.401,207.473c0,5.818-4.724,10.537-10.548,10.537c-5.826,0-10.548-4.719-10.548-10.537
			c0-5.82,4.722-10.539,10.548-10.539C1250.678,196.933,1255.401,201.65,1255.401,207.473"/>
		<ellipse fill="none" stroke="#939393" stroke-miterlimit="10" cx="1244.854" cy="207.473" rx="10.548" ry="10.537"/>
		<g>
			<g>
				<g>
					<defs>
						<rect id="SVGID_21_" x="1234.908" y="197.539" width="19.889" height="19.865"/>
					</defs>
					<clipPath id="SVGID_22_">
						<use xlink:href="#SVGID_21_"  overflow="visible"/>
					</clipPath>
					<path clip-path="url(#SVGID_22_)" fill="#BEBFBF" d="M1254.795,207.473c0,5.486-4.45,9.932-9.941,9.932
						c-5.49,0-9.942-4.445-9.942-9.932s4.451-9.934,9.942-9.934C1250.343,197.539,1254.795,201.986,1254.795,207.473"/>
				</g>
				<g>
					<defs>
						<rect id="SVGID_23_" x="1234.908" y="197.539" width="19.889" height="19.865"/>
					</defs>
					<clipPath id="SVGID_24_">
						<use xlink:href="#SVGID_23_"  overflow="visible"/>
					</clipPath>
					<path clip-path="url(#SVGID_24_)" fill="#C0C1C1" d="M1254.561,207.473c0,5.354-4.347,9.697-9.707,9.697
						c-5.362,0-9.708-4.344-9.708-9.697c0-5.357,4.346-9.697,9.708-9.697C1250.214,197.773,1254.561,202.115,1254.561,207.473"/>
				</g>
				<g>
					<defs>
						<rect id="SVGID_25_" x="1234.908" y="197.539" width="19.889" height="19.865"/>
					</defs>
					<clipPath id="SVGID_26_">
						<use xlink:href="#SVGID_25_"  overflow="visible"/>
					</clipPath>
					<path clip-path="url(#SVGID_26_)" fill="#C3C4C4" d="M1254.328,207.473c0,5.227-4.241,9.465-9.475,9.465
						s-9.475-4.238-9.475-9.465c0-5.229,4.241-9.467,9.475-9.467C1250.085,198.006,1254.328,202.244,1254.328,207.473"/>
				</g>
				<g>
					<defs>
						<rect id="SVGID_27_" x="1234.908" y="197.539" width="19.889" height="19.865"/>
					</defs>
					<clipPath id="SVGID_28_">
						<use xlink:href="#SVGID_27_"  overflow="visible"/>
					</clipPath>
					<path clip-path="url(#SVGID_28_)" fill="#C5C6C6" d="M1254.094,207.473c0,5.097-4.138,9.229-9.24,9.229
						c-5.104,0-9.24-4.133-9.24-9.229c0-5.099,4.136-9.231,9.24-9.231C1249.956,198.24,1254.094,202.373,1254.094,207.473"/>
				</g>
				<g>
					<defs>
						<rect id="SVGID_29_" x="1234.908" y="197.539" width="19.889" height="19.865"/>
					</defs>
					<clipPath id="SVGID_30_">
						<use xlink:href="#SVGID_29_"  overflow="visible"/>
					</clipPath>
					<path clip-path="url(#SVGID_30_)" fill="#C7C9C9" d="M1253.859,207.473c0,4.967-4.032,8.998-9.006,8.998
						c-4.972,0-9.004-4.031-9.004-8.998c0-4.971,4.032-9,9.004-9C1249.827,198.473,1253.859,202.502,1253.859,207.473"/>
				</g>
				<g>
					<defs>
						<rect id="SVGID_31_" x="1234.908" y="197.539" width="19.889" height="19.865"/>
					</defs>
					<clipPath id="SVGID_32_">
						<use xlink:href="#SVGID_31_"  overflow="visible"/>
					</clipPath>
					<path clip-path="url(#SVGID_32_)" fill="#CACBCB" d="M1253.625,207.473c0,4.839-3.927,8.763-8.771,8.763
						c-4.847,0-8.773-3.924-8.773-8.763c0-4.84,3.927-8.766,8.773-8.766C1249.698,198.707,1253.625,202.631,1253.625,207.473"/>
				</g>
				<g>
					<defs>
						<rect id="SVGID_33_" x="1234.908" y="197.539" width="19.889" height="19.865"/>
					</defs>
					<clipPath id="SVGID_34_">
						<use xlink:href="#SVGID_33_"  overflow="visible"/>
					</clipPath>
					<path clip-path="url(#SVGID_34_)" fill="#CCCECE" d="M1253.393,207.473c0,4.711-3.824,8.531-8.539,8.531
						c-4.717,0-8.539-3.82-8.539-8.531s3.823-8.533,8.539-8.533C1249.568,198.939,1253.393,202.762,1253.393,207.473"/>
				</g>
				<g>
					<defs>
						<rect id="SVGID_35_" x="1234.908" y="197.539" width="19.889" height="19.865"/>
					</defs>
					<clipPath id="SVGID_36_">
						<use xlink:href="#SVGID_35_"  overflow="visible"/>
					</clipPath>
					<path clip-path="url(#SVGID_36_)" fill="#CED0D0" d="M1253.158,207.473c0,4.582-3.717,8.297-8.305,8.297
						c-4.586,0-8.306-3.715-8.306-8.297c0-4.584,3.72-8.299,8.306-8.299C1249.441,199.174,1253.158,202.889,1253.158,207.473"/>
				</g>
				<g>
					<defs>
						<rect id="SVGID_37_" x="1234.908" y="197.539" width="19.889" height="19.865"/>
					</defs>
					<clipPath id="SVGID_38_">
						<use xlink:href="#SVGID_37_"  overflow="visible"/>
					</clipPath>
					<path clip-path="url(#SVGID_38_)" fill="#D1D3D3" d="M1252.924,207.473c0,4.451-3.613,8.063-8.07,8.063
						s-8.071-3.611-8.071-8.063c0-4.453,3.614-8.063,8.071-8.063S1252.924,203.02,1252.924,207.473"/>
				</g>
				<g>
					<defs>
						<rect id="SVGID_39_" x="1234.908" y="197.539" width="19.889" height="19.865"/>
					</defs>
					<clipPath id="SVGID_40_">
						<use xlink:href="#SVGID_39_"  overflow="visible"/>
					</clipPath>
					<path clip-path="url(#SVGID_40_)" fill="#D3D5D5" d="M1252.69,207.473c0,4.323-3.508,7.829-7.837,7.829
						c-4.33,0-7.837-3.506-7.837-7.829c0-4.325,3.507-7.83,7.837-7.83C1249.183,199.643,1252.69,203.147,1252.69,207.473"/>
				</g>
			</g>
		</g>
		<polygon fill="#605F5E" points="1243.554,213.443 1243.554,208.768 1238.874,208.768 1238.874,206.173 1243.554,206.173 
			1243.554,201.498 1246.151,201.498 1246.151,206.173 1250.831,206.173 1250.831,208.768 1246.151,208.768 1246.151,213.443 		"/>
		<path fill="#231815" d="M1245.927,201.725v4.224v0.45h0.45h4.229v2.146h-4.229h-0.45v0.449v4.226h-2.146v-4.226v-0.449h-0.45
			h-4.229v-2.146h4.229h0.45v-0.45v-4.224H1245.927z M1246.377,201.275h-3.047v4.674h-4.68v3.044h4.68v4.675h3.047v-4.675h4.678
			v-3.044h-4.678V201.275z"/>
	</g>
	<g>
		<path fill="#AFAFAF" d="M43.628,44.811c0,7.92-6.428,14.342-14.356,14.342S14.915,52.73,14.915,44.811
			c0-7.922,6.428-14.344,14.356-14.344S43.628,36.889,43.628,44.811"/>
		<ellipse fill="none" stroke="#939393" stroke-miterlimit="10" cx="29.271" cy="44.81" rx="14.356" ry="14.342"/>
		<path fill="#AFAFAF" d="M39.819,44.811c0,5.818-4.724,10.538-10.548,10.538c-5.826,0-10.548-4.72-10.548-10.538
			c0-5.821,4.722-10.54,10.548-10.54C35.096,34.27,39.819,38.989,39.819,44.811"/>
		<ellipse fill="none" stroke="#939393" stroke-miterlimit="10" cx="29.271" cy="44.811" rx="10.548" ry="10.538"/>
		<g>
			<g>
				<g>
					<defs>
						<rect id="SVGID_41_" x="19.326" y="34.877" width="19.889" height="19.865"/>
					</defs>
					<clipPath id="SVGID_42_">
						<use xlink:href="#SVGID_41_"  overflow="visible"/>
					</clipPath>
					<path clip-path="url(#SVGID_42_)" fill="#BEBFBF" d="M39.213,44.811c0,5.484-4.45,9.932-9.941,9.932
						c-5.49,0-9.942-4.447-9.942-9.932c0-5.486,4.451-9.934,9.942-9.934C34.761,34.877,39.213,39.323,39.213,44.811"/>
				</g>
				<g>
					<defs>
						<rect id="SVGID_43_" x="19.326" y="34.877" width="19.889" height="19.865"/>
					</defs>
					<clipPath id="SVGID_44_">
						<use xlink:href="#SVGID_43_"  overflow="visible"/>
					</clipPath>
					<path clip-path="url(#SVGID_44_)" fill="#C0C1C1" d="M38.979,44.811c0,5.354-4.347,9.697-9.707,9.697
						c-5.362,0-9.708-4.343-9.708-9.697c0-5.356,4.346-9.699,9.708-9.699C34.632,35.111,38.979,39.453,38.979,44.811"/>
				</g>
				<g>
					<defs>
						<rect id="SVGID_45_" x="19.326" y="34.877" width="19.889" height="19.865"/>
					</defs>
					<clipPath id="SVGID_46_">
						<use xlink:href="#SVGID_45_"  overflow="visible"/>
					</clipPath>
					<path clip-path="url(#SVGID_46_)" fill="#C3C4C4" d="M38.746,44.811c0,5.226-4.241,9.464-9.475,9.464s-9.475-4.238-9.475-9.464
						c0-5.229,4.241-9.467,9.475-9.467C34.503,35.343,38.746,39.582,38.746,44.811"/>
				</g>
				<g>
					<defs>
						<rect id="SVGID_47_" x="19.326" y="34.877" width="19.889" height="19.865"/>
					</defs>
					<clipPath id="SVGID_48_">
						<use xlink:href="#SVGID_47_"  overflow="visible"/>
					</clipPath>
					<path clip-path="url(#SVGID_48_)" fill="#C5C6C6" d="M38.512,44.811c0,5.097-4.138,9.231-9.24,9.231
						c-5.104,0-9.24-4.134-9.24-9.231c0-5.099,4.136-9.233,9.24-9.233C34.374,35.577,38.512,39.712,38.512,44.811"/>
				</g>
				<g>
					<defs>
						<rect id="SVGID_49_" x="19.326" y="34.877" width="19.889" height="19.865"/>
					</defs>
					<clipPath id="SVGID_50_">
						<use xlink:href="#SVGID_49_"  overflow="visible"/>
					</clipPath>
					<path clip-path="url(#SVGID_50_)" fill="#C7C9C9" d="M38.277,44.811c0,4.967-4.032,8.997-9.006,8.997
						c-4.972,0-9.004-4.03-9.004-8.997c0-4.97,4.032-9,9.004-9C34.245,35.811,38.277,39.841,38.277,44.811"/>
				</g>
				<g>
					<defs>
						<rect id="SVGID_51_" x="19.326" y="34.877" width="19.889" height="19.865"/>
					</defs>
					<clipPath id="SVGID_52_">
						<use xlink:href="#SVGID_51_"  overflow="visible"/>
					</clipPath>
					<path clip-path="url(#SVGID_52_)" fill="#CACBCB" d="M38.043,44.811c0,4.839-3.927,8.765-8.771,8.765
						c-4.847,0-8.773-3.926-8.773-8.765c0-4.841,3.927-8.766,8.773-8.766C34.116,36.044,38.043,39.97,38.043,44.811"/>
				</g>
				<g>
					<defs>
						<rect id="SVGID_53_" x="19.326" y="34.877" width="19.889" height="19.865"/>
					</defs>
					<clipPath id="SVGID_54_">
						<use xlink:href="#SVGID_53_"  overflow="visible"/>
					</clipPath>
					<path clip-path="url(#SVGID_54_)" fill="#CCCECE" d="M37.811,44.811c0,4.71-3.824,8.529-8.539,8.529
						c-4.717,0-8.539-3.819-8.539-8.529c0-4.712,3.823-8.532,8.539-8.532C33.986,36.278,37.811,40.099,37.811,44.811"/>
				</g>
				<g>
					<defs>
						<rect id="SVGID_55_" x="19.326" y="34.877" width="19.889" height="19.865"/>
					</defs>
					<clipPath id="SVGID_56_">
						<use xlink:href="#SVGID_55_"  overflow="visible"/>
					</clipPath>
					<path clip-path="url(#SVGID_56_)" fill="#CED0D0" d="M37.576,44.811c0,4.58-3.717,8.297-8.305,8.297
						c-4.586,0-8.306-3.717-8.306-8.297c0-4.583,3.72-8.299,8.306-8.299C33.859,36.512,37.576,40.228,37.576,44.811"/>
				</g>
				<g>
					<defs>
						<rect id="SVGID_57_" x="19.326" y="34.877" width="19.889" height="19.865"/>
					</defs>
					<clipPath id="SVGID_58_">
						<use xlink:href="#SVGID_57_"  overflow="visible"/>
					</clipPath>
					<path clip-path="url(#SVGID_58_)" fill="#D1D3D3" d="M37.342,44.811c0,4.452-3.613,8.063-8.07,8.063s-8.071-3.61-8.071-8.063
						c0-4.454,3.614-8.064,8.071-8.064S37.342,40.355,37.342,44.811"/>
				</g>
				<g>
					<defs>
						<rect id="SVGID_59_" x="19.326" y="34.877" width="19.889" height="19.865"/>
					</defs>
					<clipPath id="SVGID_60_">
						<use xlink:href="#SVGID_59_"  overflow="visible"/>
					</clipPath>
					<path clip-path="url(#SVGID_60_)" fill="#D3D5D5" d="M37.108,44.811c0,4.323-3.508,7.828-7.837,7.828
						c-4.33,0-7.837-3.505-7.837-7.828c0-4.325,3.507-7.831,7.837-7.831C33.601,36.979,37.108,40.484,37.108,44.811"/>
				</g>
			</g>
		</g>
		<polygon fill="#605F5E" points="27.972,50.78 27.972,46.105 23.292,46.105 23.292,43.511 27.972,43.511 27.972,38.836 
			30.569,38.836 30.569,43.511 35.249,43.511 35.249,46.105 30.569,46.105 30.569,50.78 		"/>
		<path fill="#231815" d="M30.345,39.062v4.226v0.449h0.45h4.229v2.146h-4.229h-0.45v0.449v4.226h-2.146v-4.226v-0.449h-0.45h-4.229
			v-2.146h4.229h0.45v-0.449v-4.226H30.345z M30.795,38.613h-3.047v4.674h-4.68v3.044h4.68v4.675h3.047v-4.675h4.678v-3.044h-4.678
			V38.613z"/>
		<path fill="#AFAFAF" d="M43.628,207.473c0,7.92-6.428,14.341-14.356,14.341s-14.356-6.421-14.356-14.341
			c0-7.921,6.428-14.344,14.356-14.344S43.628,199.55,43.628,207.473"/>
		<ellipse fill="none" stroke="#939393" stroke-miterlimit="10" cx="29.271" cy="207.473" rx="14.356" ry="14.341"/>
		<path fill="#AFAFAF" d="M39.819,207.473c0,5.818-4.724,10.537-10.548,10.537c-5.826,0-10.548-4.719-10.548-10.537
			c0-5.82,4.722-10.539,10.548-10.539C35.096,196.933,39.819,201.65,39.819,207.473"/>
		<ellipse fill="none" stroke="#939393" stroke-miterlimit="10" cx="29.271" cy="207.473" rx="10.548" ry="10.537"/>
		<g>
			<g>
				<g>
					<defs>
						<rect id="SVGID_61_" x="19.326" y="197.539" width="19.889" height="19.865"/>
					</defs>
					<clipPath id="SVGID_62_">
						<use xlink:href="#SVGID_61_"  overflow="visible"/>
					</clipPath>
					<path clip-path="url(#SVGID_62_)" fill="#BEBFBF" d="M39.213,207.473c0,5.486-4.45,9.932-9.941,9.932
						c-5.49,0-9.942-4.445-9.942-9.932s4.451-9.934,9.942-9.934C34.761,197.539,39.213,201.986,39.213,207.473"/>
				</g>
				<g>
					<defs>
						<rect id="SVGID_63_" x="19.326" y="197.539" width="19.889" height="19.865"/>
					</defs>
					<clipPath id="SVGID_64_">
						<use xlink:href="#SVGID_63_"  overflow="visible"/>
					</clipPath>
					<path clip-path="url(#SVGID_64_)" fill="#C0C1C1" d="M38.979,207.473c0,5.354-4.347,9.697-9.707,9.697
						c-5.362,0-9.708-4.344-9.708-9.697c0-5.357,4.346-9.697,9.708-9.697C34.632,197.773,38.979,202.115,38.979,207.473"/>
				</g>
				<g>
					<defs>
						<rect id="SVGID_65_" x="19.326" y="197.539" width="19.889" height="19.865"/>
					</defs>
					<clipPath id="SVGID_66_">
						<use xlink:href="#SVGID_65_"  overflow="visible"/>
					</clipPath>
					<path clip-path="url(#SVGID_66_)" fill="#C3C4C4" d="M38.746,207.473c0,5.227-4.241,9.465-9.475,9.465
						s-9.475-4.238-9.475-9.465c0-5.229,4.241-9.467,9.475-9.467C34.503,198.006,38.746,202.244,38.746,207.473"/>
				</g>
				<g>
					<defs>
						<rect id="SVGID_67_" x="19.326" y="197.539" width="19.889" height="19.865"/>
					</defs>
					<clipPath id="SVGID_68_">
						<use xlink:href="#SVGID_67_"  overflow="visible"/>
					</clipPath>
					<path clip-path="url(#SVGID_68_)" fill="#C5C6C6" d="M38.512,207.473c0,5.097-4.138,9.229-9.24,9.229
						c-5.104,0-9.24-4.133-9.24-9.229c0-5.099,4.136-9.231,9.24-9.231C34.374,198.24,38.512,202.373,38.512,207.473"/>
				</g>
				<g>
					<defs>
						<rect id="SVGID_69_" x="19.326" y="197.539" width="19.889" height="19.865"/>
					</defs>
					<clipPath id="SVGID_70_">
						<use xlink:href="#SVGID_69_"  overflow="visible"/>
					</clipPath>
					<path clip-path="url(#SVGID_70_)" fill="#C7C9C9" d="M38.277,207.473c0,4.967-4.032,8.998-9.006,8.998
						c-4.972,0-9.004-4.031-9.004-8.998c0-4.971,4.032-9,9.004-9C34.245,198.473,38.277,202.502,38.277,207.473"/>
				</g>
				<g>
					<defs>
						<rect id="SVGID_71_" x="19.326" y="197.539" width="19.889" height="19.865"/>
					</defs>
					<clipPath id="SVGID_72_">
						<use xlink:href="#SVGID_71_"  overflow="visible"/>
					</clipPath>
					<path clip-path="url(#SVGID_72_)" fill="#CACBCB" d="M38.043,207.473c0,4.839-3.927,8.763-8.771,8.763
						c-4.847,0-8.773-3.924-8.773-8.763c0-4.84,3.927-8.766,8.773-8.766C34.116,198.707,38.043,202.631,38.043,207.473"/>
				</g>
				<g>
					<defs>
						<rect id="SVGID_73_" x="19.326" y="197.539" width="19.889" height="19.865"/>
					</defs>
					<clipPath id="SVGID_74_">
						<use xlink:href="#SVGID_73_"  overflow="visible"/>
					</clipPath>
					<path clip-path="url(#SVGID_74_)" fill="#CCCECE" d="M37.811,207.473c0,4.711-3.824,8.531-8.539,8.531
						c-4.717,0-8.539-3.82-8.539-8.531s3.823-8.533,8.539-8.533C33.986,198.939,37.811,202.762,37.811,207.473"/>
				</g>
				<g>
					<defs>
						<rect id="SVGID_75_" x="19.326" y="197.539" width="19.889" height="19.865"/>
					</defs>
					<clipPath id="SVGID_76_">
						<use xlink:href="#SVGID_75_"  overflow="visible"/>
					</clipPath>
					<path clip-path="url(#SVGID_76_)" fill="#CED0D0" d="M37.576,207.473c0,4.582-3.717,8.297-8.305,8.297
						c-4.586,0-8.306-3.715-8.306-8.297c0-4.584,3.72-8.299,8.306-8.299C33.859,199.174,37.576,202.889,37.576,207.473"/>
				</g>
				<g>
					<defs>
						<rect id="SVGID_77_" x="19.326" y="197.539" width="19.889" height="19.865"/>
					</defs>
					<clipPath id="SVGID_78_">
						<use xlink:href="#SVGID_77_"  overflow="visible"/>
					</clipPath>
					<path clip-path="url(#SVGID_78_)" fill="#D1D3D3" d="M37.342,207.473c0,4.451-3.613,8.063-8.07,8.063s-8.071-3.611-8.071-8.063
						c0-4.453,3.614-8.063,8.071-8.063S37.342,203.02,37.342,207.473"/>
				</g>
				<g>
					<defs>
						<rect id="SVGID_79_" x="19.326" y="197.539" width="19.889" height="19.865"/>
					</defs>
					<clipPath id="SVGID_80_">
						<use xlink:href="#SVGID_79_"  overflow="visible"/>
					</clipPath>
					<path clip-path="url(#SVGID_80_)" fill="#D3D5D5" d="M37.108,207.473c0,4.323-3.508,7.829-7.837,7.829
						c-4.33,0-7.837-3.506-7.837-7.829c0-4.325,3.507-7.83,7.837-7.83C33.601,199.643,37.108,203.147,37.108,207.473"/>
				</g>
			</g>
		</g>
		<polygon fill="#605F5E" points="27.972,213.443 27.972,208.768 23.292,208.768 23.292,206.173 27.972,206.173 27.972,201.498 
			30.569,201.498 30.569,206.173 35.249,206.173 35.249,208.768 30.569,208.768 30.569,213.443 		"/>
		<path fill="#231815" d="M30.345,201.725v4.224v0.45h0.45h4.229v2.146h-4.229h-0.45v0.449v4.226h-2.146v-4.226v-0.449h-0.45h-4.229
			v-2.146h4.229h0.45v-0.45v-4.224H30.345z M30.795,201.275h-3.047v4.674h-4.68v3.044h4.68v4.675h3.047v-4.675h4.678v-3.044h-4.678
			V201.275z"/>
	</g>
</g>
</svg>
