<?xml version="1.0" encoding="utf-8"?>
<!-- Generator: Adobe Illustrator 16.0.0, SVG Export Plug-In . SVG Version: 6.00 Build 0)  -->
<!DOCTYPE svg PUBLIC "-//W3C//DTD SVG 1.1//EN" "http://www.w3.org/Graphics/SVG/1.1/DTD/svg11.dtd">
<svg version="1.1" id="图层_1" xmlns="http://www.w3.org/2000/svg" xmlns:xlink="http://www.w3.org/1999/xlink" x="0px" y="0px"
	 width="1275.59px" height="126.14px" viewBox="0 0 1275.59 126.14" enable-background="new 0 0 1275.59 126.14"
	 xml:space="preserve">
<linearGradient id="SVGID_1_" gradientUnits="userSpaceOnUse" x1="2733.9355" y1="126.1426" x2="2733.9355" y2="-4.882813e-004" gradientTransform="matrix(-1 0 0 1 3371.7305 -9.765625e-004)">
	<stop  offset="0" style="stop-color:#515150"/>
	<stop  offset="0.0806" style="stop-color:#B1B4B5"/>
	<stop  offset="1" style="stop-color:#AAA9A9"/>
</linearGradient>
<rect x="0" y="-0.002" fill="url(#SVGID_1_)" width="1275.589" height="126.143"/>
<linearGradient id="SVGID_2_" gradientUnits="userSpaceOnUse" x1="2728.9727" y1="11.0488" x2="2728.9727" y2="-9.765625e-004" gradientTransform="matrix(-1 0 0 1 3371.7305 -9.765625e-004)">
	<stop  offset="0" style="stop-color:#343535"/>
	<stop  offset="0.2707" style="stop-color:#F7F7F7"/>
	<stop  offset="0.4839" style="stop-color:#C8C9CA"/>
	<stop  offset="0.8419" style="stop-color:#EEEEEF"/>
</linearGradient>
<rect x="9.925" y="-0.002" fill="url(#SVGID_2_)" width="1265.665" height="11.05"/>
<linearGradient id="SVGID_3_" gradientUnits="userSpaceOnUse" x1="2733.9346" y1="-4369.7388" x2="2733.9346" y2="-4376.7212" gradientTransform="matrix(-1 0 0 -1 3371.7305 -4250.5811)">
	<stop  offset="0" style="stop-color:#343535"/>
	<stop  offset="0.2707" style="stop-color:#F7F7F7"/>
	<stop  offset="0.4839" style="stop-color:#C8C9CA"/>
	<stop  offset="0.8419" style="stop-color:#EEEEEF"/>
</linearGradient>
<rect x="0.003" y="119.158" fill="url(#SVGID_3_)" width="1275.587" height="6.982"/>
<linearGradient id="SVGID_4_" gradientUnits="userSpaceOnUse" x1="-3697.1096" y1="1288.5605" x2="-3697.1096" y2="1277.5986" gradientTransform="matrix(0 -1 -1 0 2553.1875 -3634.04)">
	<stop  offset="0" style="stop-color:#343535"/>
	<stop  offset="0.2707" style="stop-color:#F7F7F7"/>
	<stop  offset="0.4839" style="stop-color:#C8C9CA"/>
	<stop  offset="0.8419" style="stop-color:#EEEEEF"/>
</linearGradient>
<rect x="1264.627" y="-0.001" fill="url(#SVGID_4_)" width="10.961" height="126.143"/>
<linearGradient id="SVGID_5_" gradientUnits="userSpaceOnUse" x1="-3697.1094" y1="-4729.6416" x2="-3697.1094" y2="-4740.6035" gradientTransform="matrix(0 -1 1 0 4740.6055 -3634.04)">
	<stop  offset="0" style="stop-color:#343535"/>
	<stop  offset="0.2707" style="stop-color:#F7F7F7"/>
	<stop  offset="0.4839" style="stop-color:#C8C9CA"/>
	<stop  offset="0.8419" style="stop-color:#EEEEEF"/>
</linearGradient>
<rect x="0.002" y="-0.001" fill="url(#SVGID_5_)" width="10.961" height="126.142"/>
<path fill="#35502E" d="M1031.353,60.357c0-6.354-4.896-11.557-11.117-12.066V12.506h243.468l0.001,104.762h-243.468l-0.001-44.847
	C1026.457,71.912,1031.353,66.711,1031.353,60.357z"/>
<rect x="1261.402" y="12.506" fill="#727272" width="2.302" height="104.762"/>
<rect x="208.222" y="11.047" fill="#1B1D1D" width="0.708" height="108.111"/>
<rect x="497.983" y="11.047" fill="#1B1D1D" width="0.708" height="108.111"/>
<rect x="739.775" y="11.047" fill="#1B1D1D" width="0.708" height="108.111"/>
<rect x="1016.554" y="11.822" fill="#1B1D1D" width="0.708" height="108.11"/>
<linearGradient id="SVGID_6_" gradientUnits="userSpaceOnUse" x1="1056.2334" y1="65.3047" x2="1172.6289" y2="65.3047">
	<stop  offset="0.0161" style="stop-color:#030000"/>
	<stop  offset="0.0322" style="stop-color:#343535"/>
	<stop  offset="0.0699" style="stop-color:#1F2020"/>
	<stop  offset="0.8118" style="stop-color:#515151"/>
	<stop  offset="0.9462" style="stop-color:#636666"/>
	<stop  offset="1" style="stop-color:#030000"/>
</linearGradient>
<path fill="url(#SVGID_6_)" d="M1172.629,113.116c0,2.479-2.236,4.491-4.997,4.491h-106.4c-2.761,0-4.998-2.012-4.998-4.491V17.492
	c0-2.48,2.237-4.491,4.998-4.491h106.4c2.761,0,4.997,2.01,4.997,4.491V113.116z"/>
<g>
	<g>
		<path fill="#030000" d="M1070.307,91.486c0.001,10.494,8.507,19,19.001,19h49.247c10.494,0,19-8.506,18.999-19V42.238
			c0-10.492-8.506-19-19-19h-49.247c-10.494,0-19,8.508-19,19V91.486z"/>
		<g>
			
				<linearGradient id="SVGID_7_" gradientUnits="userSpaceOnUse" x1="-14498.8691" y1="-12560.1074" x2="-14455.8135" y2="-12560.1074" gradientTransform="matrix(-0.7071 -0.7071 0.7071 -0.7071 -219.1738 -19028.2227)">
				<stop  offset="0" style="stop-color:#B1B4B5"/>
				<stop  offset="0.0806" style="stop-color:#B1B4B5"/>
				<stop  offset="0.129" style="stop-color:#D5D5D5"/>
				<stop  offset="0.2204" style="stop-color:#B1B4B5"/>
				<stop  offset="0.3118" style="stop-color:#717071"/>
				<stop  offset="0.5323" style="stop-color:#717071"/>
				<stop  offset="0.6882" style="stop-color:#B1B4B5"/>
				<stop  offset="0.8817" style="stop-color:#717071"/>
				<stop  offset="1" style="stop-color:#B1B4B5"/>
			</linearGradient>
			<path fill="url(#SVGID_7_)" d="M1155.622,98.561l-0.973,3.695c-14.533-3.825-27.892-11.521-38.628-22.262l2.702-2.701
				C1128.983,87.555,1141.743,94.91,1155.622,98.561z"/>
		</g>
		<g>
			
				<linearGradient id="SVGID_8_" gradientUnits="userSpaceOnUse" x1="-11371.251" y1="-6992.7314" x2="-11328.1953" y2="-6992.7314" gradientTransform="matrix(-0.7071 0.7071 -0.7071 -0.7071 -11831.082 3127.2114)">
				<stop  offset="0" style="stop-color:#B1B4B5"/>
				<stop  offset="0.0806" style="stop-color:#B1B4B5"/>
				<stop  offset="0.129" style="stop-color:#D5D5D5"/>
				<stop  offset="0.2204" style="stop-color:#B1B4B5"/>
				<stop  offset="0.3118" style="stop-color:#717071"/>
				<stop  offset="0.5323" style="stop-color:#717071"/>
				<stop  offset="0.6882" style="stop-color:#B1B4B5"/>
				<stop  offset="0.8817" style="stop-color:#717071"/>
				<stop  offset="1" style="stop-color:#B1B4B5"/>
			</linearGradient>
			<path fill="url(#SVGID_8_)" d="M1147.471,27.264l3.694,0.973c-3.825,14.532-11.522,27.891-22.261,38.626l-2.704-2.702
				C1136.464,53.9,1143.819,41.142,1147.471,27.264z"/>
		</g>
		<g>
			
				<linearGradient id="SVGID_9_" gradientUnits="userSpaceOnUse" x1="-16869.0117" y1="-3864.8374" x2="-16825.957" y2="-3864.8374" gradientTransform="matrix(0.7071 0.7071 -0.7071 0.7071 10272.3711 14688.042)">
				<stop  offset="0" style="stop-color:#B1B4B5"/>
				<stop  offset="0.0806" style="stop-color:#B1B4B5"/>
				<stop  offset="0.129" style="stop-color:#D5D5D5"/>
				<stop  offset="0.2204" style="stop-color:#B1B4B5"/>
				<stop  offset="0.3118" style="stop-color:#717071"/>
				<stop  offset="0.5323" style="stop-color:#717071"/>
				<stop  offset="0.6882" style="stop-color:#B1B4B5"/>
				<stop  offset="0.8817" style="stop-color:#717071"/>
				<stop  offset="1" style="stop-color:#B1B4B5"/>
			</linearGradient>
			<path fill="url(#SVGID_9_)" d="M1073.223,33.756l0.973-3.694c14.531,3.825,27.89,11.521,38.625,22.261l-2.7,2.702
				C1099.859,44.763,1087.099,37.407,1073.223,33.756z"/>
		</g>
		<g>
			
				<linearGradient id="SVGID_10_" gradientUnits="userSpaceOnUse" x1="-19938.5469" y1="-9361.8496" x2="-19895.4922" y2="-9361.8496" gradientTransform="matrix(0.7071 -0.7071 0.7071 0.7071 21789.2305 -7378.1831)">
				<stop  offset="0" style="stop-color:#B1B4B5"/>
				<stop  offset="0.0806" style="stop-color:#B1B4B5"/>
				<stop  offset="0.129" style="stop-color:#D5D5D5"/>
				<stop  offset="0.2204" style="stop-color:#B1B4B5"/>
				<stop  offset="0.3118" style="stop-color:#717071"/>
				<stop  offset="0.5323" style="stop-color:#717071"/>
				<stop  offset="0.6882" style="stop-color:#B1B4B5"/>
				<stop  offset="0.8817" style="stop-color:#717071"/>
				<stop  offset="1" style="stop-color:#B1B4B5"/>
			</linearGradient>
			<path fill="url(#SVGID_10_)" d="M1077.54,104.496l-3.695-0.972c3.825-14.532,11.52-27.891,22.261-38.626l2.701,2.701
				C1088.545,77.859,1081.189,90.619,1077.54,104.496z"/>
		</g>
		<path fill="#B1B4B5" d="M1088.428,62.223c0,13.086,10.609,23.695,23.697,23.695s23.695-10.609,23.695-23.695
			c0-13.09-10.607-23.697-23.695-23.697S1088.428,49.133,1088.428,62.223z"/>
		<circle fill="#BFC0C0" cx="1112.125" cy="62.223" r="22.476"/>
	</g>
	<g>
		<g>
			<path fill="#AFAEAE" d="M1057.723,106.265c0,3.54,2.854,6.411,6.376,6.411c3.521,0,6.376-2.871,6.376-6.411
				c0-3.541-2.854-6.413-6.376-6.413C1060.576,99.852,1057.723,102.724,1057.723,106.265"/>
			<ellipse fill="none" stroke="#929292" stroke-miterlimit="10" cx="1064.099" cy="106.265" rx="6.376" ry="6.411"/>
			<path fill="#AFAEAE" d="M1059.413,106.265c0,2.601,2.097,4.71,4.686,4.71c2.588,0,4.686-2.109,4.686-4.71
				c0-2.603-2.098-4.712-4.686-4.712C1061.51,101.553,1059.413,103.662,1059.413,106.265"/>
			<ellipse fill="none" stroke="#929292" stroke-miterlimit="10" cx="1064.099" cy="106.265" rx="4.686" ry="4.71"/>
			<g>
				<g>
					<defs>
						<rect id="SVGID_11_" x="1059.683" y="101.824" width="8.833" height="8.879"/>
					</defs>
					<clipPath id="SVGID_12_">
						<use xlink:href="#SVGID_11_"  overflow="visible"/>
					</clipPath>
					<path clip-path="url(#SVGID_12_)" fill="#BEBEBD" d="M1059.683,106.265c0,2.451,1.977,4.438,4.416,4.438
						c2.438,0,4.416-1.987,4.416-4.438c0-2.452-1.978-4.44-4.416-4.44C1061.659,101.824,1059.683,103.813,1059.683,106.265"/>
					<path clip-path="url(#SVGID_12_)" fill="#C0C0C0" d="M1059.784,106.265c0,2.393,1.934,4.334,4.314,4.334
						s4.313-1.941,4.313-4.334c0-2.396-1.932-4.337-4.313-4.337S1059.784,103.869,1059.784,106.265"/>
					<path clip-path="url(#SVGID_12_)" fill="#C2C3C3" d="M1059.891,106.265c0,2.335,1.884,4.231,4.208,4.231
						c2.323,0,4.208-1.896,4.208-4.231c0-2.338-1.885-4.231-4.208-4.231C1061.774,102.033,1059.891,103.927,1059.891,106.265"/>
					<path clip-path="url(#SVGID_12_)" fill="#C4C5C4" d="M1059.992,106.265c0,2.278,1.839,4.126,4.106,4.126
						s4.104-1.848,4.104-4.126c0-2.28-1.836-4.127-4.104-4.127S1059.992,103.984,1059.992,106.265"/>
					<path clip-path="url(#SVGID_12_)" fill="#C6C8C8" d="M1060.099,106.265c0,2.22,1.791,4.021,4,4.021s4-1.801,4-4.021
						c0-2.222-1.791-4.023-4-4.023S1060.099,104.043,1060.099,106.265"/>
					<path clip-path="url(#SVGID_12_)" fill="#C9CACB" d="M1060.202,106.265c0,2.163,1.744,3.917,3.896,3.917
						s3.896-1.754,3.896-3.917c0-2.165-1.744-3.919-3.896-3.919S1060.202,104.1,1060.202,106.265"/>
					<path clip-path="url(#SVGID_12_)" fill="#CBCDCD" d="M1060.305,106.265c0,2.104,1.7,3.813,3.794,3.813
						c2.095,0,3.792-1.709,3.792-3.813c0-2.106-1.697-3.815-3.792-3.815C1062.005,102.449,1060.305,104.158,1060.305,106.265"/>
					<path clip-path="url(#SVGID_12_)" fill="#CCCFD0" d="M1060.408,106.265c0,2.047,1.653,3.708,3.69,3.708
						s3.689-1.661,3.689-3.708c0-2.05-1.652-3.71-3.689-3.71S1060.408,104.215,1060.408,106.265"/>
					<path clip-path="url(#SVGID_12_)" fill="#D0D2D2" d="M1060.513,106.265c0,1.989,1.605,3.604,3.586,3.604
						s3.584-1.615,3.584-3.604c0-1.991-1.604-3.606-3.584-3.606S1060.513,104.273,1060.513,106.265"/>
					<path clip-path="url(#SVGID_12_)" fill="#D2D4D5" d="M1060.616,106.265c0,1.932,1.561,3.499,3.482,3.499
						c1.923,0,3.48-1.567,3.48-3.499c0-1.935-1.558-3.5-3.48-3.5C1062.177,102.765,1060.616,104.33,1060.616,106.265"/>
				</g>
			</g>
			<polygon fill="#605F5E" points="1064.677,108.934 1064.677,106.844 1066.754,106.844 1066.754,105.684 1064.677,105.684 
				1064.677,103.594 1063.521,103.594 1063.521,105.684 1061.443,105.684 1061.443,106.844 1063.521,106.844 1063.521,108.934 			
				"/>
			<path fill="#221714" d="M1064.575,103.695v1.887v0.203h0.199h1.88v0.957h-1.88h-0.199v0.201v1.889h-0.953v-1.889v-0.201h-0.2
				h-1.878v-0.957h1.878h0.2v-0.203v-1.887H1064.575z M1063.422,105.582h-2.078v1.361h2.078v2.09h1.353v-2.09h2.078v-1.361h-2.078
				v-2.088h-1.353V105.582z"/>
		</g>
		<g>
			<path fill="#AFAEAE" d="M1057.722,23.239c0,3.54,2.854,6.411,6.377,6.411c3.521,0,6.375-2.871,6.375-6.411
				c0-3.541-2.854-6.411-6.375-6.411C1060.576,16.828,1057.722,19.698,1057.722,23.239"/>
			<ellipse fill="none" stroke="#929292" stroke-miterlimit="10" cx="1064.098" cy="23.239" rx="6.376" ry="6.411"/>
			<path fill="#AFAEAE" d="M1059.412,23.239c0,2.601,2.098,4.711,4.687,4.711c2.587,0,4.685-2.11,4.685-4.711
				c0-2.603-2.098-4.712-4.685-4.712C1061.51,18.527,1059.412,20.637,1059.412,23.239"/>
			<ellipse fill="none" stroke="#929292" stroke-miterlimit="10" cx="1064.098" cy="23.239" rx="4.686" ry="4.711"/>
			<g>
				<g>
					<defs>
						<rect id="SVGID_13_" x="1059.683" y="18.799" width="8.832" height="8.879"/>
					</defs>
					<clipPath id="SVGID_14_">
						<use xlink:href="#SVGID_13_"  overflow="visible"/>
					</clipPath>
					<path clip-path="url(#SVGID_14_)" fill="#BEBEBD" d="M1059.683,23.239c0,2.452,1.976,4.438,4.416,4.438
						c2.438,0,4.415-1.986,4.415-4.438s-1.977-4.44-4.415-4.44C1061.658,18.799,1059.683,20.787,1059.683,23.239"/>
					<path clip-path="url(#SVGID_14_)" fill="#C0C0C0" d="M1059.784,23.239c0,2.394,1.933,4.335,4.314,4.335
						c2.38,0,4.312-1.941,4.312-4.335c0-2.395-1.932-4.336-4.312-4.336C1061.717,18.903,1059.784,20.845,1059.784,23.239"/>
					<path clip-path="url(#SVGID_14_)" fill="#C2C3C3" d="M1059.891,23.239c0,2.335,1.883,4.231,4.208,4.231
						c2.323,0,4.207-1.896,4.207-4.231c0-2.337-1.884-4.231-4.207-4.231C1061.773,19.008,1059.891,20.902,1059.891,23.239"/>
					<path clip-path="url(#SVGID_14_)" fill="#C4C5C4" d="M1059.992,23.239c0,2.278,1.838,4.126,4.106,4.126
						c2.266,0,4.102-1.848,4.102-4.126s-1.836-4.126-4.102-4.126C1061.83,19.113,1059.992,20.961,1059.992,23.239"/>
					<path clip-path="url(#SVGID_14_)" fill="#C6C8C8" d="M1060.097,23.239c0,2.22,1.792,4.021,4.002,4.021c2.208,0,4-1.802,4-4.021
						c0-2.222-1.792-4.022-4-4.022C1061.889,19.217,1060.097,21.018,1060.097,23.239"/>
					<path clip-path="url(#SVGID_14_)" fill="#C9CACB" d="M1060.2,23.239c0,2.163,1.745,3.917,3.898,3.917
						c2.15,0,3.896-1.754,3.896-3.917c0-2.164-1.745-3.919-3.896-3.919C1061.945,19.32,1060.2,21.075,1060.2,23.239"/>
					<path clip-path="url(#SVGID_14_)" fill="#CBCDCD" d="M1060.304,23.239c0,2.104,1.7,3.813,3.795,3.813
						c2.093,0,3.792-1.709,3.792-3.813c0-2.106-1.699-3.815-3.792-3.815C1062.004,19.424,1060.304,21.133,1060.304,23.239"/>
					<path clip-path="url(#SVGID_14_)" fill="#CCCFD0" d="M1060.408,23.239c0,2.048,1.652,3.708,3.69,3.708
						c2.035,0,3.688-1.66,3.688-3.708c0-2.049-1.653-3.71-3.688-3.71C1062.061,19.529,1060.408,21.19,1060.408,23.239"/>
					<path clip-path="url(#SVGID_14_)" fill="#D0D2D2" d="M1060.512,23.239c0,1.989,1.604,3.604,3.587,3.604
						c1.979,0,3.584-1.615,3.584-3.604c0-1.991-1.604-3.605-3.584-3.605C1062.116,19.634,1060.512,21.248,1060.512,23.239"/>
					<path clip-path="url(#SVGID_14_)" fill="#D2D4D5" d="M1060.615,23.239c0,1.933,1.561,3.499,3.483,3.499
						c1.922,0,3.478-1.566,3.478-3.499c0-1.934-1.556-3.5-3.478-3.5C1062.176,19.739,1060.615,21.306,1060.615,23.239"/>
				</g>
			</g>
			<polygon fill="#605F5E" points="1064.676,25.908 1064.676,23.819 1066.753,23.819 1066.753,22.658 1064.676,22.658 
				1064.676,20.569 1063.52,20.569 1063.52,22.658 1061.443,22.658 1061.443,23.819 1063.52,23.819 1063.52,25.908 			"/>
			<path fill="#221714" d="M1064.574,20.67v1.888v0.202h0.199h1.878v0.958h-1.878h-0.199v0.2v1.89h-0.953v-1.89v-0.2h-0.2h-1.878
				V22.76h1.878h0.2v-0.202V20.67H1064.574z M1063.421,22.558h-2.079v1.36h2.079v2.09h1.353v-2.09h2.077v-1.36h-2.077v-2.089h-1.353
				V22.558z"/>
		</g>
	</g>
	<g>
		<g>
			<path fill="#AFAEAE" d="M1158.389,106.265c0,3.54,2.854,6.411,6.377,6.411s6.376-2.871,6.376-6.411
				c0-3.541-2.854-6.413-6.376-6.413S1158.389,102.724,1158.389,106.265"/>
			<ellipse fill="none" stroke="#929292" stroke-miterlimit="10" cx="1164.765" cy="106.265" rx="6.376" ry="6.411"/>
			<path fill="#AFAEAE" d="M1160.081,106.265c0,2.601,2.098,4.71,4.685,4.71c2.588,0,4.686-2.109,4.686-4.71
				c0-2.603-2.098-4.712-4.686-4.712C1162.179,101.553,1160.081,103.662,1160.081,106.265"/>
			<ellipse fill="none" stroke="#929292" stroke-miterlimit="10" cx="1164.766" cy="106.265" rx="4.685" ry="4.71"/>
			<g>
				<g>
					<defs>
						<rect id="SVGID_15_" x="1160.35" y="101.824" width="8.833" height="8.879"/>
					</defs>
					<clipPath id="SVGID_16_">
						<use xlink:href="#SVGID_15_"  overflow="visible"/>
					</clipPath>
					<path clip-path="url(#SVGID_16_)" fill="#BEBEBD" d="M1160.351,106.265c0,2.451,1.977,4.438,4.415,4.438
						c2.439,0,4.417-1.987,4.417-4.438c0-2.452-1.978-4.44-4.417-4.44C1162.327,101.824,1160.351,103.813,1160.351,106.265"/>
					<path clip-path="url(#SVGID_16_)" fill="#C0C0C0" d="M1160.454,106.265c0,2.393,1.931,4.334,4.312,4.334
						c2.382,0,4.311-1.941,4.311-4.334c0-2.396-1.929-4.337-4.311-4.337C1162.385,101.928,1160.454,103.869,1160.454,106.265"/>
					<path clip-path="url(#SVGID_16_)" fill="#C2C3C3" d="M1160.558,106.265c0,2.335,1.885,4.231,4.208,4.231
						c2.324,0,4.208-1.896,4.208-4.231c0-2.338-1.884-4.231-4.208-4.231C1162.442,102.033,1160.558,103.927,1160.558,106.265"/>
					<path clip-path="url(#SVGID_16_)" fill="#C4C5C4" d="M1160.66,106.265c0,2.278,1.839,4.126,4.105,4.126
						s4.105-1.848,4.105-4.126c0-2.28-1.839-4.127-4.105-4.127S1160.66,103.984,1160.66,106.265"/>
					<path clip-path="url(#SVGID_16_)" fill="#C6C8C8" d="M1160.766,106.265c0,2.22,1.792,4.021,4,4.021c2.209,0,4-1.801,4-4.021
						c0-2.222-1.791-4.023-4-4.023C1162.558,102.241,1160.766,104.043,1160.766,106.265"/>
					<path clip-path="url(#SVGID_16_)" fill="#C9CACB" d="M1160.87,106.265c0,2.163,1.742,3.917,3.896,3.917
						c2.151,0,3.895-1.754,3.895-3.917c0-2.165-1.743-3.919-3.895-3.919C1162.612,102.346,1160.87,104.1,1160.87,106.265"/>
					<path clip-path="url(#SVGID_16_)" fill="#CBCDCD" d="M1160.974,106.265c0,2.104,1.698,3.813,3.792,3.813
						s3.793-1.709,3.793-3.813c0-2.106-1.699-3.815-3.793-3.815S1160.974,104.158,1160.974,106.265"/>
					<path clip-path="url(#SVGID_16_)" fill="#CCCFD0" d="M1161.076,106.265c0,2.047,1.653,3.708,3.689,3.708
						c2.037,0,3.689-1.661,3.689-3.708c0-2.05-1.652-3.71-3.689-3.71C1162.729,102.555,1161.076,104.215,1161.076,106.265"/>
					<path clip-path="url(#SVGID_16_)" fill="#D0D2D2" d="M1161.181,106.265c0,1.989,1.604,3.604,3.585,3.604
						c1.979,0,3.584-1.615,3.584-3.604c0-1.991-1.604-3.606-3.584-3.606C1162.784,102.658,1161.181,104.273,1161.181,106.265"/>
					<path clip-path="url(#SVGID_16_)" fill="#D2D4D5" d="M1161.284,106.265c0,1.932,1.558,3.499,3.481,3.499
						s3.481-1.567,3.481-3.499c0-1.935-1.558-3.5-3.481-3.5S1161.284,104.33,1161.284,106.265"/>
				</g>
			</g>
			<polygon fill="#605F5E" points="1165.342,108.934 1165.342,106.844 1167.422,106.844 1167.422,105.684 1165.342,105.684 
				1165.342,103.594 1164.189,103.594 1164.189,105.684 1162.11,105.684 1162.11,106.844 1164.189,106.844 1164.189,108.934 			"/>
			<path fill="#221714" d="M1165.243,103.695v1.887v0.203h0.199h1.88v0.957h-1.88h-0.199v0.201v1.889h-0.954v-1.889v-0.201h-0.2
				h-1.878v-0.957h1.878h0.2v-0.203v-1.887H1165.243z M1164.089,105.582h-2.079v1.361h2.079v2.09h1.354v-2.09h2.076v-1.361h-2.076
				v-2.088h-1.354V105.582z"/>
		</g>
		<g>
			<path fill="#AFAEAE" d="M1158.388,23.239c0,3.54,2.854,6.411,6.378,6.411c3.521,0,6.375-2.871,6.375-6.411
				c0-3.541-2.854-6.411-6.375-6.411C1161.242,16.828,1158.388,19.698,1158.388,23.239"/>
			<ellipse fill="none" stroke="#929292" stroke-miterlimit="10" cx="1164.764" cy="23.239" rx="6.376" ry="6.411"/>
			<path fill="#AFAEAE" d="M1160.08,23.239c0,2.601,2.098,4.711,4.686,4.711c2.587,0,4.685-2.11,4.685-4.711
				c0-2.603-2.098-4.712-4.685-4.712C1162.178,18.527,1160.08,20.637,1160.08,23.239"/>
			<ellipse fill="none" stroke="#929292" stroke-miterlimit="10" cx="1164.765" cy="23.239" rx="4.685" ry="4.711"/>
			<g>
				<g>
					<defs>
						<rect id="SVGID_17_" x="1160.349" y="18.799" width="8.834" height="8.879"/>
					</defs>
					<clipPath id="SVGID_18_">
						<use xlink:href="#SVGID_17_"  overflow="visible"/>
					</clipPath>
					<path clip-path="url(#SVGID_18_)" fill="#BEBEBD" d="M1160.35,23.239c0,2.452,1.977,4.438,4.416,4.438
						c2.438,0,4.415-1.986,4.415-4.438s-1.977-4.44-4.415-4.44C1162.326,18.799,1160.35,20.787,1160.35,23.239"/>
					<path clip-path="url(#SVGID_18_)" fill="#C0C0C0" d="M1160.453,23.239c0,2.394,1.931,4.335,4.313,4.335
						c2.381,0,4.311-1.941,4.311-4.335c0-2.395-1.93-4.336-4.311-4.336C1162.384,18.903,1160.453,20.845,1160.453,23.239"/>
					<path clip-path="url(#SVGID_18_)" fill="#C2C3C3" d="M1160.558,23.239c0,2.335,1.884,4.231,4.208,4.231
						c2.323,0,4.208-1.896,4.208-4.231c0-2.337-1.885-4.231-4.208-4.231C1162.441,19.008,1160.558,20.902,1160.558,23.239"/>
					<path clip-path="url(#SVGID_18_)" fill="#C4C5C4" d="M1160.66,23.239c0,2.278,1.837,4.126,4.105,4.126
						c2.267,0,4.104-1.848,4.104-4.126s-1.838-4.126-4.104-4.126C1162.497,19.113,1160.66,20.961,1160.66,23.239"/>
					<path clip-path="url(#SVGID_18_)" fill="#C6C8C8" d="M1160.764,23.239c0,2.22,1.794,4.021,4.002,4.021c2.209,0,4-1.802,4-4.021
						c0-2.222-1.791-4.022-4-4.022C1162.558,19.217,1160.764,21.018,1160.764,23.239"/>
					<path clip-path="url(#SVGID_18_)" fill="#C9CACB" d="M1160.868,23.239c0,2.163,1.744,3.917,3.897,3.917
						c2.151,0,3.895-1.754,3.895-3.917c0-2.164-1.743-3.919-3.895-3.919C1162.612,19.32,1160.868,21.075,1160.868,23.239"/>
					<path clip-path="url(#SVGID_18_)" fill="#CBCDCD" d="M1160.972,23.239c0,2.104,1.698,3.813,3.794,3.813
						c2.094,0,3.792-1.709,3.792-3.813c0-2.106-1.698-3.815-3.792-3.815C1162.67,19.424,1160.972,21.133,1160.972,23.239"/>
					<path clip-path="url(#SVGID_18_)" fill="#CCCFD0" d="M1161.076,23.239c0,2.048,1.65,3.708,3.689,3.708
						c2.036,0,3.688-1.66,3.688-3.708c0-2.049-1.652-3.71-3.688-3.71C1162.727,19.529,1161.076,21.19,1161.076,23.239"/>
					<path clip-path="url(#SVGID_18_)" fill="#D0D2D2" d="M1161.18,23.239c0,1.989,1.604,3.604,3.586,3.604
						c1.979,0,3.583-1.615,3.583-3.604c0-1.991-1.604-3.605-3.583-3.605C1162.783,19.634,1161.18,21.248,1161.18,23.239"/>
					<path clip-path="url(#SVGID_18_)" fill="#D2D4D5" d="M1161.283,23.239c0,1.933,1.559,3.499,3.482,3.499
						c1.922,0,3.48-1.566,3.48-3.499c0-1.934-1.559-3.5-3.48-3.5C1162.842,19.739,1161.283,21.306,1161.283,23.239"/>
				</g>
			</g>
			<polygon fill="#605F5E" points="1165.342,25.908 1165.342,23.819 1167.421,23.819 1167.421,22.658 1165.342,22.658 
				1165.342,20.569 1164.188,20.569 1164.188,22.658 1162.109,22.658 1162.109,23.819 1164.188,23.819 1164.188,25.908 			"/>
			<path fill="#221714" d="M1165.242,20.67v1.888v0.202h0.199h1.88v0.958h-1.88h-0.199v0.2v1.89h-0.954v-1.89v-0.2h-0.2h-1.879
				V22.76h1.879h0.2v-0.202V20.67H1165.242z M1164.088,22.558h-2.078v1.36h2.078v2.09h1.354v-2.09h2.077v-1.36h-2.077v-2.089h-1.354
				V22.558z"/>
		</g>
	</g>
</g>
<g>
	<path fill="#AFAEAE" d="M1041.855,21.39c0,4.344-3.72,7.865-8.31,7.865c-4.591,0-8.311-3.521-8.311-7.865
		c0-4.345,3.72-7.867,8.311-7.867C1038.136,13.522,1041.855,17.045,1041.855,21.39"/>
	<ellipse fill="none" stroke="#929292" stroke-miterlimit="10" cx="1033.545" cy="21.39" rx="8.31" ry="7.865"/>
	<path fill="#AFAEAE" d="M1039.651,21.39c0,3.191-2.734,5.78-6.105,5.78c-3.372,0-6.108-2.589-6.108-5.78
		c0-3.192,2.736-5.781,6.108-5.781C1036.917,15.608,1039.651,18.197,1039.651,21.39"/>
	<ellipse fill="none" stroke="#929292" stroke-miterlimit="10" cx="1033.544" cy="21.39" rx="6.107" ry="5.78"/>
	<g>
		<g>
			<defs>
				<rect id="SVGID_19_" x="1027.789" y="15.941" width="11.512" height="10.895"/>
			</defs>
			<clipPath id="SVGID_20_">
				<use xlink:href="#SVGID_19_"  overflow="visible"/>
			</clipPath>
			<path clip-path="url(#SVGID_20_)" fill="#BEBEBD" d="M1039.301,21.39c0,3.008-2.577,5.446-5.755,5.446
				c-3.18,0-5.757-2.438-5.757-5.446c0-3.009,2.577-5.448,5.757-5.448C1036.724,15.941,1039.301,18.381,1039.301,21.39"/>
			<path clip-path="url(#SVGID_20_)" fill="#C0C0C0" d="M1039.165,21.39c0,2.937-2.518,5.317-5.619,5.317
				c-3.104,0-5.62-2.381-5.62-5.317c0-2.938,2.516-5.32,5.62-5.32C1036.647,16.069,1039.165,18.451,1039.165,21.39"/>
			<path clip-path="url(#SVGID_20_)" fill="#C2C3C3" d="M1039.031,21.39c0,2.865-2.457,5.191-5.485,5.191
				c-3.03,0-5.485-2.326-5.485-5.191c0-2.868,2.455-5.191,5.485-5.191C1036.574,16.198,1039.031,18.521,1039.031,21.39"/>
			<path clip-path="url(#SVGID_20_)" fill="#C4C5C4" d="M1038.893,21.39c0,2.795-2.393,5.062-5.347,5.062
				c-2.956,0-5.351-2.267-5.351-5.062c0-2.797,2.395-5.063,5.351-5.063C1036.5,16.326,1038.893,18.593,1038.893,21.39"/>
			<path clip-path="url(#SVGID_20_)" fill="#C6C8C8" d="M1038.758,21.39c0,2.724-2.334,4.935-5.212,4.935
				c-2.881,0-5.215-2.211-5.215-4.935c0-2.726,2.334-4.937,5.215-4.937C1036.424,16.453,1038.758,18.664,1038.758,21.39"/>
			<path clip-path="url(#SVGID_20_)" fill="#C9CACB" d="M1038.623,21.39c0,2.653-2.273,4.806-5.077,4.806
				c-2.806,0-5.08-2.152-5.08-4.806c0-2.655,2.274-4.808,5.08-4.808C1036.35,16.582,1038.623,18.734,1038.623,21.39"/>
			<path clip-path="url(#SVGID_20_)" fill="#CBCDCD" d="M1038.488,21.39c0,2.583-2.213,4.679-4.942,4.679
				c-2.731,0-4.944-2.096-4.944-4.679c0-2.585,2.213-4.681,4.944-4.681C1036.275,16.709,1038.488,18.805,1038.488,21.39"/>
			<path clip-path="url(#SVGID_20_)" fill="#CCCFD0" d="M1038.354,21.39c0,2.513-2.154,4.55-4.808,4.55
				c-2.655,0-4.809-2.037-4.809-4.55c0-2.515,2.153-4.552,4.809-4.552C1036.199,16.838,1038.354,18.875,1038.354,21.39"/>
			<path clip-path="url(#SVGID_20_)" fill="#D0D2D2" d="M1038.218,21.39c0,2.44-2.093,4.421-4.672,4.421
				c-2.581,0-4.673-1.98-4.673-4.421c0-2.443,2.092-4.424,4.673-4.424C1036.125,16.966,1038.218,18.946,1038.218,21.39"/>
			<path clip-path="url(#SVGID_20_)" fill="#D2D4D5" d="M1038.081,21.39c0,2.37-2.031,4.293-4.535,4.293
				c-2.508,0-4.538-1.923-4.538-4.293c0-2.372,2.03-4.294,4.538-4.294C1036.05,17.096,1038.081,19.018,1038.081,21.39"/>
		</g>
	</g>
	<polygon fill="#605F5E" points="1032.793,24.665 1032.793,22.102 1030.084,22.102 1030.084,20.678 1032.793,20.678 
		1032.793,18.113 1034.297,18.113 1034.297,20.678 1037.006,20.678 1037.006,22.102 1034.297,22.102 1034.297,24.665 	"/>
	<path fill="#221714" d="M1034.167,18.237v2.315v0.248h0.259h2.449v1.176h-2.449h-0.259v0.246v2.317h-1.243v-2.317v-0.246h-0.26
		h-2.45v-1.176h2.45h0.26v-0.248v-2.315H1034.167z M1034.426,17.99h-1.762v2.563h-2.709v1.67h2.709v2.564h1.762v-2.564h2.71v-1.67
		h-2.71V17.99z"/>
</g>
<g>
	<g>
		<g>
			<path fill="#AFAEAE" d="M1015.908,21.493c0,4.345-3.721,7.865-8.311,7.865c-4.592,0-8.311-3.521-8.311-7.865
				s3.719-7.867,8.311-7.867C1012.188,13.626,1015.908,17.148,1015.908,21.493"/>
			<ellipse fill="none" stroke="#929292" stroke-miterlimit="10" cx="1007.598" cy="21.493" rx="8.311" ry="7.865"/>
			<path fill="#AFAEAE" d="M1013.704,21.493c0,3.191-2.734,5.779-6.106,5.779s-6.108-2.588-6.108-5.779
				c0-3.192,2.736-5.781,6.108-5.781S1013.704,18.301,1013.704,21.493"/>
			<ellipse fill="none" stroke="#929292" stroke-miterlimit="10" cx="1007.597" cy="21.493" rx="6.107" ry="5.779"/>
			<g>
				<g>
					<defs>
						<rect id="SVGID_21_" x="1001.841" y="16.045" width="11.512" height="10.895"/>
					</defs>
					<clipPath id="SVGID_22_">
						<use xlink:href="#SVGID_21_"  overflow="visible"/>
					</clipPath>
					<path clip-path="url(#SVGID_22_)" fill="#BEBEBD" d="M1013.353,21.493c0,3.008-2.577,5.446-5.755,5.446
						c-3.181,0-5.757-2.438-5.757-5.446c0-3.009,2.576-5.448,5.757-5.448C1010.775,16.045,1013.353,18.484,1013.353,21.493"/>
					<path clip-path="url(#SVGID_22_)" fill="#C0C0C0" d="M1013.217,21.493c0,2.937-2.517,5.317-5.619,5.317
						c-3.105,0-5.62-2.381-5.62-5.317c0-2.938,2.515-5.32,5.62-5.32C1010.7,16.173,1013.217,18.555,1013.217,21.493"/>
					<path clip-path="url(#SVGID_22_)" fill="#C2C3C3" d="M1013.083,21.493c0,2.865-2.458,5.191-5.485,5.191
						c-3.03,0-5.485-2.326-5.485-5.191c0-2.868,2.455-5.191,5.485-5.191C1010.625,16.302,1013.083,18.625,1013.083,21.493"/>
					<path clip-path="url(#SVGID_22_)" fill="#C4C5C4" d="M1012.943,21.493c0,2.795-2.392,5.062-5.346,5.062
						c-2.956,0-5.351-2.267-5.351-5.062c0-2.797,2.395-5.063,5.351-5.063C1010.552,16.43,1012.943,18.696,1012.943,21.493"/>
					<path clip-path="url(#SVGID_22_)" fill="#C6C8C8" d="M1012.811,21.493c0,2.724-2.336,4.935-5.213,4.935
						c-2.88,0-5.216-2.211-5.216-4.935c0-2.726,2.336-4.937,5.216-4.937C1010.475,16.557,1012.811,18.768,1012.811,21.493"/>
					<path clip-path="url(#SVGID_22_)" fill="#C9CACB" d="M1012.674,21.493c0,2.653-2.272,4.806-5.076,4.806
						c-2.806,0-5.079-2.152-5.079-4.806c0-2.655,2.273-4.808,5.079-4.808C1010.401,16.686,1012.674,18.838,1012.674,21.493"/>
					<path clip-path="url(#SVGID_22_)" fill="#CBCDCD" d="M1012.54,21.493c0,2.583-2.213,4.679-4.942,4.679
						c-2.731,0-4.946-2.096-4.946-4.679c0-2.585,2.215-4.681,4.946-4.681C1010.327,16.813,1012.54,18.908,1012.54,21.493"/>
					<path clip-path="url(#SVGID_22_)" fill="#CCCFD0" d="M1012.404,21.493c0,2.513-2.153,4.55-4.807,4.55
						c-2.655,0-4.809-2.037-4.809-4.55c0-2.515,2.153-4.552,4.809-4.552C1010.251,16.941,1012.404,18.979,1012.404,21.493"/>
					<path clip-path="url(#SVGID_22_)" fill="#D0D2D2" d="M1012.27,21.493c0,2.44-2.092,4.421-4.672,4.421
						c-2.581,0-4.673-1.98-4.673-4.421c0-2.443,2.092-4.424,4.673-4.424C1010.178,17.069,1012.27,19.05,1012.27,21.493"/>
					<path clip-path="url(#SVGID_22_)" fill="#D2D4D5" d="M1012.134,21.493c0,2.37-2.031,4.293-4.536,4.293
						c-2.508,0-4.539-1.923-4.539-4.293c0-2.372,2.031-4.294,4.539-4.294C1010.103,17.199,1012.134,19.121,1012.134,21.493"/>
				</g>
			</g>
			<polygon fill="#605F5E" points="1006.845,24.769 1006.845,22.205 1004.136,22.205 1004.136,20.781 1006.845,20.781 
				1006.845,18.217 1008.349,18.217 1008.349,20.781 1011.058,20.781 1011.058,22.205 1008.349,22.205 1008.349,24.769 			"/>
			<path fill="#221714" d="M1008.218,18.341v2.315v0.248h0.26h2.448v1.176h-2.448h-0.26v0.246v2.317h-1.243v-2.317V22.08h-0.259
				h-2.449v-1.176h2.449h0.259v-0.248v-2.315H1008.218z M1008.478,18.094h-1.762v2.563h-2.71v1.67h2.71v2.564h1.762v-2.564h2.71
				v-1.67h-2.71V18.094z"/>
		</g>
		<g>
			<path fill="#AFAEAE" d="M1015.908,107.315c0,4.343-3.721,7.864-8.311,7.864c-4.592,0-8.311-3.521-8.311-7.864
				c0-4.345,3.719-7.868,8.311-7.868C1012.188,99.447,1015.908,102.971,1015.908,107.315"/>
			<ellipse fill="none" stroke="#929292" stroke-miterlimit="10" cx="1007.598" cy="107.315" rx="8.311" ry="7.864"/>
			<path fill="#AFAEAE" d="M1013.704,107.315c0,3.19-2.734,5.778-6.106,5.778s-6.108-2.588-6.108-5.778
				c0-3.193,2.736-5.782,6.108-5.782S1013.704,104.122,1013.704,107.315"/>
			<ellipse fill="none" stroke="#929292" stroke-miterlimit="10" cx="1007.597" cy="107.315" rx="6.107" ry="5.778"/>
			<g>
				<g>
					<defs>
						<rect id="SVGID_23_" x="1001.841" y="101.867" width="11.512" height="10.895"/>
					</defs>
					<clipPath id="SVGID_24_">
						<use xlink:href="#SVGID_23_"  overflow="visible"/>
					</clipPath>
					<path clip-path="url(#SVGID_24_)" fill="#BEBEBD" d="M1013.353,107.315c0,3.007-2.577,5.446-5.755,5.446
						c-3.181,0-5.757-2.439-5.757-5.446c0-3.01,2.576-5.448,5.757-5.448C1010.775,101.867,1013.353,104.306,1013.353,107.315"/>
					<path clip-path="url(#SVGID_24_)" fill="#C0C0C0" d="M1013.217,107.315c0,2.936-2.517,5.317-5.619,5.317
						c-3.105,0-5.62-2.382-5.62-5.317c0-2.938,2.515-5.321,5.62-5.321C1010.7,101.994,1013.217,104.377,1013.217,107.315"/>
					<path clip-path="url(#SVGID_24_)" fill="#C2C3C3" d="M1013.083,107.315c0,2.864-2.458,5.19-5.485,5.19
						c-3.03,0-5.485-2.326-5.485-5.19c0-2.868,2.455-5.192,5.485-5.192C1010.625,102.123,1013.083,104.447,1013.083,107.315"/>
					<path clip-path="url(#SVGID_24_)" fill="#C4C5C4" d="M1012.943,107.315c0,2.794-2.392,5.062-5.346,5.062
						c-2.956,0-5.351-2.268-5.351-5.062c0-2.798,2.395-5.063,5.351-5.063C1010.552,102.252,1012.943,104.518,1012.943,107.315"/>
					<path clip-path="url(#SVGID_24_)" fill="#C6C8C8" d="M1012.811,107.315c0,2.724-2.336,4.934-5.213,4.934
						c-2.88,0-5.216-2.21-5.216-4.934c0-2.727,2.336-4.937,5.216-4.937C1010.475,102.379,1012.811,104.589,1012.811,107.315"/>
					<path clip-path="url(#SVGID_24_)" fill="#C9CACB" d="M1012.674,107.315c0,2.653-2.272,4.805-5.076,4.805
						c-2.806,0-5.079-2.151-5.079-4.805c0-2.656,2.273-4.808,5.079-4.808C1010.401,102.508,1012.674,104.659,1012.674,107.315"/>
					<path clip-path="url(#SVGID_24_)" fill="#CBCDCD" d="M1012.54,107.315c0,2.582-2.213,4.678-4.942,4.678
						c-2.731,0-4.946-2.096-4.946-4.678c0-2.585,2.215-4.681,4.946-4.681C1010.327,102.635,1012.54,104.73,1012.54,107.315"/>
					<path clip-path="url(#SVGID_24_)" fill="#CCCFD0" d="M1012.404,107.315c0,2.512-2.153,4.55-4.807,4.55
						c-2.655,0-4.809-2.038-4.809-4.55c0-2.515,2.153-4.552,4.809-4.552C1010.251,102.764,1012.404,104.801,1012.404,107.315"/>
					<path clip-path="url(#SVGID_24_)" fill="#D0D2D2" d="M1012.27,107.315c0,2.44-2.092,4.421-4.672,4.421
						c-2.581,0-4.673-1.98-4.673-4.421c0-2.444,2.092-4.425,4.673-4.425C1010.178,102.891,1012.27,104.871,1012.27,107.315"/>
					<path clip-path="url(#SVGID_24_)" fill="#D2D4D5" d="M1012.134,107.315c0,2.37-2.031,4.293-4.536,4.293
						c-2.508,0-4.539-1.923-4.539-4.293c0-2.373,2.031-4.295,4.539-4.295C1010.103,103.021,1012.134,104.942,1012.134,107.315"/>
				</g>
			</g>
			<polygon fill="#605F5E" points="1006.845,110.59 1006.845,108.026 1004.136,108.026 1004.136,106.604 1006.845,106.604 
				1006.845,104.039 1008.349,104.039 1008.349,106.604 1011.058,106.604 1011.058,108.026 1008.349,108.026 1008.349,110.59 			"/>
			<path fill="#221714" d="M1008.218,104.162v2.316v0.248h0.26h2.448v1.176h-2.448h-0.26v0.246v2.316h-1.243v-2.316v-0.246h-0.259
				h-2.449v-1.176h2.449h0.259v-0.248v-2.316H1008.218z M1008.478,103.916h-1.762v2.563h-2.71v1.67h2.71v2.563h1.762v-2.563h2.71
				v-1.67h-2.71V103.916z"/>
		</g>
	</g>
	<g>
		<g>
			<path fill="#AFAEAE" d="M759.067,21.493c0,4.345-3.72,7.865-8.31,7.865c-4.591,0-8.311-3.521-8.311-7.865s3.72-7.867,8.311-7.867
				C755.348,13.626,759.067,17.148,759.067,21.493"/>
			<ellipse fill="none" stroke="#929292" stroke-miterlimit="10" cx="750.757" cy="21.493" rx="8.31" ry="7.865"/>
			<path fill="#AFAEAE" d="M756.864,21.493c0,3.191-2.734,5.779-6.106,5.779s-6.108-2.588-6.108-5.779
				c0-3.192,2.736-5.781,6.108-5.781S756.864,18.301,756.864,21.493"/>
			<ellipse fill="none" stroke="#929292" stroke-miterlimit="10" cx="750.757" cy="21.493" rx="6.107" ry="5.779"/>
			<g>
				<g>
					<defs>
						<rect id="SVGID_25_" x="745.001" y="16.045" width="11.512" height="10.895"/>
					</defs>
					<clipPath id="SVGID_26_">
						<use xlink:href="#SVGID_25_"  overflow="visible"/>
					</clipPath>
					<path clip-path="url(#SVGID_26_)" fill="#BEBEBD" d="M756.513,21.493c0,3.008-2.578,5.446-5.755,5.446
						c-3.182,0-5.757-2.438-5.757-5.446c0-3.009,2.575-5.448,5.757-5.448C753.935,16.045,756.513,18.484,756.513,21.493"/>
					<path clip-path="url(#SVGID_26_)" fill="#C0C0C0" d="M756.377,21.493c0,2.937-2.518,5.317-5.619,5.317
						c-3.106,0-5.62-2.381-5.62-5.317c0-2.938,2.514-5.32,5.62-5.32C753.859,16.173,756.377,18.555,756.377,21.493"/>
					<path clip-path="url(#SVGID_26_)" fill="#C2C3C3" d="M756.243,21.493c0,2.865-2.459,5.191-5.485,5.191
						c-3.03,0-5.486-2.326-5.486-5.191c0-2.868,2.456-5.191,5.486-5.191C753.784,16.302,756.243,18.625,756.243,21.493"/>
					<path clip-path="url(#SVGID_26_)" fill="#C4C5C4" d="M756.104,21.493c0,2.795-2.392,5.062-5.346,5.062
						c-2.956,0-5.351-2.267-5.351-5.062c0-2.797,2.395-5.063,5.351-5.063C753.712,16.43,756.104,18.696,756.104,21.493"/>
					<path clip-path="url(#SVGID_26_)" fill="#C6C8C8" d="M755.971,21.493c0,2.724-2.335,4.935-5.213,4.935
						c-2.88,0-5.215-2.211-5.215-4.935c0-2.726,2.335-4.937,5.215-4.937C753.636,16.557,755.971,18.768,755.971,21.493"/>
					<path clip-path="url(#SVGID_26_)" fill="#C9CACB" d="M755.835,21.493c0,2.653-2.273,4.806-5.077,4.806
						c-2.806,0-5.079-2.152-5.079-4.806c0-2.655,2.273-4.808,5.079-4.808C753.562,16.686,755.835,18.838,755.835,21.493"/>
					<path clip-path="url(#SVGID_26_)" fill="#CBCDCD" d="M755.7,21.493c0,2.583-2.213,4.679-4.942,4.679
						c-2.731,0-4.944-2.096-4.944-4.679c0-2.585,2.213-4.681,4.944-4.681C753.487,16.813,755.7,18.908,755.7,21.493"/>
					<path clip-path="url(#SVGID_26_)" fill="#CCCFD0" d="M755.565,21.493c0,2.513-2.154,4.55-4.808,4.55
						c-2.655,0-4.81-2.037-4.81-4.55c0-2.515,2.154-4.552,4.81-4.552C753.411,16.941,755.565,18.979,755.565,21.493"/>
					<path clip-path="url(#SVGID_26_)" fill="#D0D2D2" d="M755.43,21.493c0,2.44-2.092,4.421-4.672,4.421
						c-2.581,0-4.673-1.98-4.673-4.421c0-2.443,2.092-4.424,4.673-4.424C753.338,17.069,755.43,19.05,755.43,21.493"/>
					<path clip-path="url(#SVGID_26_)" fill="#D2D4D5" d="M755.293,21.493c0,2.37-2.03,4.293-4.535,4.293
						c-2.509,0-4.538-1.923-4.538-4.293c0-2.372,2.029-4.294,4.538-4.294C753.263,17.199,755.293,19.121,755.293,21.493"/>
				</g>
			</g>
			<polygon fill="#605F5E" points="750.005,24.769 750.005,22.205 747.296,22.205 747.296,20.781 750.005,20.781 750.005,18.217 
				751.509,18.217 751.509,20.781 754.218,20.781 754.218,22.205 751.509,22.205 751.509,24.769 			"/>
			<path fill="#221714" d="M751.379,18.341v2.315v0.248h0.259h2.448v1.176h-2.448h-0.259v0.246v2.317h-1.243v-2.317V22.08h-0.26
				h-2.45v-1.176h2.45h0.26v-0.248v-2.315H751.379z M751.638,18.094h-1.762v2.563h-2.709v1.67h2.709v2.564h1.762v-2.564h2.71v-1.67
				h-2.71V18.094z"/>
		</g>
		<g>
			<path fill="#AFAEAE" d="M759.067,107.315c0,4.343-3.72,7.864-8.31,7.864c-4.591,0-8.311-3.521-8.311-7.864
				c0-4.345,3.72-7.868,8.311-7.868C755.348,99.447,759.067,102.971,759.067,107.315"/>
			<ellipse fill="none" stroke="#929292" stroke-miterlimit="10" cx="750.757" cy="107.315" rx="8.31" ry="7.864"/>
			<path fill="#AFAEAE" d="M756.864,107.315c0,3.19-2.734,5.778-6.106,5.778s-6.108-2.588-6.108-5.778
				c0-3.193,2.736-5.782,6.108-5.782S756.864,104.122,756.864,107.315"/>
			<ellipse fill="none" stroke="#929292" stroke-miterlimit="10" cx="750.757" cy="107.315" rx="6.107" ry="5.778"/>
			<g>
				<g>
					<defs>
						<rect id="SVGID_27_" x="745.001" y="101.867" width="11.512" height="10.895"/>
					</defs>
					<clipPath id="SVGID_28_">
						<use xlink:href="#SVGID_27_"  overflow="visible"/>
					</clipPath>
					<path clip-path="url(#SVGID_28_)" fill="#BEBEBD" d="M756.513,107.315c0,3.007-2.578,5.446-5.755,5.446
						c-3.182,0-5.757-2.439-5.757-5.446c0-3.01,2.575-5.448,5.757-5.448C753.935,101.867,756.513,104.306,756.513,107.315"/>
					<path clip-path="url(#SVGID_28_)" fill="#C0C0C0" d="M756.377,107.315c0,2.936-2.518,5.317-5.619,5.317
						c-3.106,0-5.62-2.382-5.62-5.317c0-2.938,2.514-5.321,5.62-5.321C753.859,101.994,756.377,104.377,756.377,107.315"/>
					<path clip-path="url(#SVGID_28_)" fill="#C2C3C3" d="M756.243,107.315c0,2.864-2.459,5.19-5.485,5.19
						c-3.03,0-5.486-2.326-5.486-5.19c0-2.868,2.456-5.192,5.486-5.192C753.784,102.123,756.243,104.447,756.243,107.315"/>
					<path clip-path="url(#SVGID_28_)" fill="#C4C5C4" d="M756.104,107.315c0,2.794-2.392,5.062-5.346,5.062
						c-2.956,0-5.351-2.268-5.351-5.062c0-2.798,2.395-5.063,5.351-5.063C753.712,102.252,756.104,104.518,756.104,107.315"/>
					<path clip-path="url(#SVGID_28_)" fill="#C6C8C8" d="M755.971,107.315c0,2.724-2.335,4.934-5.213,4.934
						c-2.88,0-5.215-2.21-5.215-4.934c0-2.727,2.335-4.937,5.215-4.937C753.636,102.379,755.971,104.589,755.971,107.315"/>
					<path clip-path="url(#SVGID_28_)" fill="#C9CACB" d="M755.835,107.315c0,2.653-2.273,4.805-5.077,4.805
						c-2.806,0-5.079-2.151-5.079-4.805c0-2.656,2.273-4.808,5.079-4.808C753.562,102.508,755.835,104.659,755.835,107.315"/>
					<path clip-path="url(#SVGID_28_)" fill="#CBCDCD" d="M755.7,107.315c0,2.582-2.213,4.678-4.942,4.678
						c-2.731,0-4.944-2.096-4.944-4.678c0-2.585,2.213-4.681,4.944-4.681C753.487,102.635,755.7,104.73,755.7,107.315"/>
					<path clip-path="url(#SVGID_28_)" fill="#CCCFD0" d="M755.565,107.315c0,2.512-2.154,4.55-4.808,4.55
						c-2.655,0-4.81-2.038-4.81-4.55c0-2.515,2.154-4.552,4.81-4.552C753.411,102.764,755.565,104.801,755.565,107.315"/>
					<path clip-path="url(#SVGID_28_)" fill="#D0D2D2" d="M755.43,107.315c0,2.44-2.092,4.421-4.672,4.421
						c-2.581,0-4.673-1.98-4.673-4.421c0-2.444,2.092-4.425,4.673-4.425C753.338,102.891,755.43,104.871,755.43,107.315"/>
					<path clip-path="url(#SVGID_28_)" fill="#D2D4D5" d="M755.293,107.315c0,2.37-2.03,4.293-4.535,4.293
						c-2.509,0-4.538-1.923-4.538-4.293c0-2.373,2.029-4.295,4.538-4.295C753.263,103.021,755.293,104.942,755.293,107.315"/>
				</g>
			</g>
			<polygon fill="#605F5E" points="750.005,110.59 750.005,108.026 747.296,108.026 747.296,106.604 750.005,106.604 
				750.005,104.039 751.509,104.039 751.509,106.604 754.218,106.604 754.218,108.026 751.509,108.026 751.509,110.59 			"/>
			<path fill="#221714" d="M751.379,104.162v2.316v0.248h0.259h2.448v1.176h-2.448h-0.259v0.246v2.316h-1.243v-2.316v-0.246h-0.26
				h-2.45v-1.176h2.45h0.26v-0.248v-2.316H751.379z M751.638,103.916h-1.762v2.563h-2.709v1.67h2.709v2.563h1.762v-2.563h2.71v-1.67
				h-2.71V103.916z"/>
		</g>
	</g>
</g>
<g>
	<g>
		<path fill="#AFAEAE" d="M736.212,21.493c0,4.345-3.721,7.865-8.311,7.865c-4.591,0-8.312-3.521-8.312-7.865
			s3.721-7.867,8.312-7.867C732.491,13.626,736.212,17.148,736.212,21.493"/>
		<ellipse fill="none" stroke="#929292" stroke-miterlimit="10" cx="727.901" cy="21.493" rx="8.311" ry="7.865"/>
		<path fill="#AFAEAE" d="M734.008,21.493c0,3.191-2.734,5.779-6.106,5.779s-6.108-2.588-6.108-5.779
			c0-3.192,2.736-5.781,6.108-5.781S734.008,18.301,734.008,21.493"/>
		<ellipse fill="none" stroke="#929292" stroke-miterlimit="10" cx="727.9" cy="21.493" rx="6.107" ry="5.779"/>
		<g>
			<g>
				<defs>
					<rect id="SVGID_29_" x="722.143" y="16.045" width="11.514" height="10.895"/>
				</defs>
				<clipPath id="SVGID_30_">
					<use xlink:href="#SVGID_29_"  overflow="visible"/>
				</clipPath>
				<path clip-path="url(#SVGID_30_)" fill="#BEBEBD" d="M733.656,21.493c0,3.008-2.577,5.446-5.755,5.446
					c-3.18,0-5.759-2.438-5.759-5.446c0-3.009,2.579-5.448,5.759-5.448C731.079,16.045,733.656,18.484,733.656,21.493"/>
				<path clip-path="url(#SVGID_30_)" fill="#C0C0C0" d="M733.52,21.493c0,2.937-2.516,5.317-5.618,5.317
					c-3.104,0-5.62-2.381-5.62-5.317c0-2.938,2.516-5.32,5.62-5.32C731.004,16.173,733.52,18.555,733.52,21.493"/>
				<path clip-path="url(#SVGID_30_)" fill="#C2C3C3" d="M733.387,21.493c0,2.865-2.457,5.191-5.485,5.191
					c-3.03,0-5.485-2.326-5.485-5.191c0-2.868,2.455-5.191,5.485-5.191C730.93,16.302,733.387,18.625,733.387,21.493"/>
				<path clip-path="url(#SVGID_30_)" fill="#C4C5C4" d="M733.248,21.493c0,2.795-2.393,5.062-5.347,5.062
					c-2.956,0-5.352-2.267-5.352-5.062c0-2.797,2.396-5.063,5.352-5.063C730.855,16.43,733.248,18.696,733.248,21.493"/>
				<path clip-path="url(#SVGID_30_)" fill="#C6C8C8" d="M733.114,21.493c0,2.724-2.335,4.935-5.213,4.935
					c-2.88,0-5.215-2.211-5.215-4.935c0-2.726,2.335-4.937,5.215-4.937C730.779,16.557,733.114,18.768,733.114,21.493"/>
				<path clip-path="url(#SVGID_30_)" fill="#C9CACB" d="M732.979,21.493c0,2.653-2.273,4.806-5.077,4.806
					c-2.806,0-5.079-2.152-5.079-4.806c0-2.655,2.273-4.808,5.079-4.808C730.705,16.686,732.979,18.838,732.979,21.493"/>
				<path clip-path="url(#SVGID_30_)" fill="#CBCDCD" d="M732.844,21.493c0,2.583-2.214,4.679-4.942,4.679
					c-2.731,0-4.944-2.096-4.944-4.679c0-2.585,2.213-4.681,4.944-4.681C730.63,16.813,732.844,18.908,732.844,21.493"/>
				<path clip-path="url(#SVGID_30_)" fill="#CCCFD0" d="M732.709,21.493c0,2.513-2.154,4.55-4.808,4.55
					c-2.655,0-4.809-2.037-4.809-4.55c0-2.515,2.153-4.552,4.809-4.552C730.555,16.941,732.709,18.979,732.709,21.493"/>
				<path clip-path="url(#SVGID_30_)" fill="#D0D2D2" d="M732.572,21.493c0,2.44-2.091,4.421-4.671,4.421
					c-2.581,0-4.673-1.98-4.673-4.421c0-2.443,2.092-4.424,4.673-4.424C730.481,17.069,732.572,19.05,732.572,21.493"/>
				<path clip-path="url(#SVGID_30_)" fill="#D2D4D5" d="M732.438,21.493c0,2.37-2.031,4.293-4.536,4.293
					c-2.508,0-4.538-1.923-4.538-4.293c0-2.372,2.03-4.294,4.538-4.294C730.406,17.199,732.438,19.121,732.438,21.493"/>
			</g>
		</g>
		<polygon fill="#605F5E" points="727.148,24.769 727.148,22.205 724.439,22.205 724.439,20.781 727.148,20.781 727.148,18.217 
			728.651,18.217 728.651,20.781 731.361,20.781 731.361,22.205 728.651,22.205 728.651,24.769 		"/>
		<path fill="#221714" d="M728.522,18.341v2.315v0.248h0.258h2.45v1.176h-2.45h-0.258v0.246v2.317h-1.243v-2.317V22.08h-0.26h-2.449
			v-1.176h2.449h0.26v-0.248v-2.315H728.522z M728.78,18.094h-1.761v2.563h-2.709v1.67h2.709v2.564h1.761v-2.564h2.711v-1.67h-2.711
			V18.094z"/>
	</g>
	<g>
		<path fill="#AFAEAE" d="M736.212,107.315c0,4.343-3.721,7.864-8.311,7.864c-4.591,0-8.312-3.521-8.312-7.864
			c0-4.345,3.721-7.868,8.312-7.868C732.491,99.447,736.212,102.971,736.212,107.315"/>
		<ellipse fill="none" stroke="#929292" stroke-miterlimit="10" cx="727.901" cy="107.315" rx="8.311" ry="7.864"/>
		<path fill="#AFAEAE" d="M734.008,107.315c0,3.19-2.734,5.778-6.106,5.778s-6.108-2.588-6.108-5.778
			c0-3.193,2.736-5.782,6.108-5.782S734.008,104.122,734.008,107.315"/>
		<ellipse fill="none" stroke="#929292" stroke-miterlimit="10" cx="727.9" cy="107.315" rx="6.107" ry="5.778"/>
		<g>
			<g>
				<defs>
					<rect id="SVGID_31_" x="722.143" y="101.867" width="11.514" height="10.895"/>
				</defs>
				<clipPath id="SVGID_32_">
					<use xlink:href="#SVGID_31_"  overflow="visible"/>
				</clipPath>
				<path clip-path="url(#SVGID_32_)" fill="#BEBEBD" d="M733.656,107.315c0,3.007-2.577,5.446-5.755,5.446
					c-3.18,0-5.759-2.439-5.759-5.446c0-3.01,2.579-5.448,5.759-5.448C731.079,101.867,733.656,104.306,733.656,107.315"/>
				<path clip-path="url(#SVGID_32_)" fill="#C0C0C0" d="M733.52,107.315c0,2.936-2.516,5.317-5.618,5.317
					c-3.104,0-5.62-2.382-5.62-5.317c0-2.938,2.516-5.321,5.62-5.321C731.004,101.994,733.52,104.377,733.52,107.315"/>
				<path clip-path="url(#SVGID_32_)" fill="#C2C3C3" d="M733.387,107.315c0,2.864-2.457,5.19-5.485,5.19
					c-3.03,0-5.485-2.326-5.485-5.19c0-2.868,2.455-5.192,5.485-5.192C730.93,102.123,733.387,104.447,733.387,107.315"/>
				<path clip-path="url(#SVGID_32_)" fill="#C4C5C4" d="M733.248,107.315c0,2.794-2.393,5.062-5.347,5.062
					c-2.956,0-5.352-2.268-5.352-5.062c0-2.798,2.396-5.063,5.352-5.063C730.855,102.252,733.248,104.518,733.248,107.315"/>
				<path clip-path="url(#SVGID_32_)" fill="#C6C8C8" d="M733.114,107.315c0,2.724-2.335,4.934-5.213,4.934
					c-2.88,0-5.215-2.21-5.215-4.934c0-2.727,2.335-4.937,5.215-4.937C730.779,102.379,733.114,104.589,733.114,107.315"/>
				<path clip-path="url(#SVGID_32_)" fill="#C9CACB" d="M732.979,107.315c0,2.653-2.273,4.805-5.077,4.805
					c-2.806,0-5.079-2.151-5.079-4.805c0-2.656,2.273-4.808,5.079-4.808C730.705,102.508,732.979,104.659,732.979,107.315"/>
				<path clip-path="url(#SVGID_32_)" fill="#CBCDCD" d="M732.844,107.315c0,2.582-2.214,4.678-4.942,4.678
					c-2.731,0-4.944-2.096-4.944-4.678c0-2.585,2.213-4.681,4.944-4.681C730.63,102.635,732.844,104.73,732.844,107.315"/>
				<path clip-path="url(#SVGID_32_)" fill="#CCCFD0" d="M732.709,107.315c0,2.512-2.154,4.55-4.808,4.55
					c-2.655,0-4.809-2.038-4.809-4.55c0-2.515,2.153-4.552,4.809-4.552C730.555,102.764,732.709,104.801,732.709,107.315"/>
				<path clip-path="url(#SVGID_32_)" fill="#D0D2D2" d="M732.572,107.315c0,2.44-2.091,4.421-4.671,4.421
					c-2.581,0-4.673-1.98-4.673-4.421c0-2.444,2.092-4.425,4.673-4.425C730.481,102.891,732.572,104.871,732.572,107.315"/>
				<path clip-path="url(#SVGID_32_)" fill="#D2D4D5" d="M732.438,107.315c0,2.37-2.031,4.293-4.536,4.293
					c-2.508,0-4.538-1.923-4.538-4.293c0-2.373,2.03-4.295,4.538-4.295C730.406,103.021,732.438,104.942,732.438,107.315"/>
			</g>
		</g>
		<polygon fill="#605F5E" points="727.148,110.59 727.148,108.026 724.439,108.026 724.439,106.604 727.148,106.604 
			727.148,104.039 728.651,104.039 728.651,106.604 731.361,106.604 731.361,108.026 728.651,108.026 728.651,110.59 		"/>
		<path fill="#221714" d="M728.522,104.162v2.316v0.248h0.258h2.45v1.176h-2.45h-0.258v0.246v2.316h-1.243v-2.316v-0.246h-0.26
			h-2.449v-1.176h2.449h0.26v-0.248v-2.316H728.522z M728.78,103.916h-1.761v2.563h-2.709v1.67h2.709v2.563h1.761v-2.563h2.711
			v-1.67h-2.711V103.916z"/>
	</g>
</g>
<g>
	<g>
		<path fill="#AFAEAE" d="M493.372,21.493c0,4.345-3.721,7.865-8.311,7.865c-4.591,0-8.311-3.521-8.311-7.865
			s3.72-7.867,8.311-7.867C489.651,13.626,493.372,17.148,493.372,21.493"/>
		<ellipse fill="none" stroke="#929292" stroke-miterlimit="10" cx="485.062" cy="21.493" rx="8.311" ry="7.865"/>
		<path fill="#AFAEAE" d="M491.168,21.493c0,3.191-2.734,5.779-6.106,5.779s-6.108-2.588-6.108-5.779
			c0-3.192,2.736-5.781,6.108-5.781S491.168,18.301,491.168,21.493"/>
		<ellipse fill="none" stroke="#929292" stroke-miterlimit="10" cx="485.061" cy="21.493" rx="6.107" ry="5.779"/>
		<g>
			<g>
				<defs>
					<rect id="SVGID_33_" x="479.305" y="16.045" width="11.511" height="10.895"/>
				</defs>
				<clipPath id="SVGID_34_">
					<use xlink:href="#SVGID_33_"  overflow="visible"/>
				</clipPath>
				<path clip-path="url(#SVGID_34_)" fill="#BEBEBD" d="M490.815,21.493c0,3.008-2.576,5.446-5.754,5.446
					c-3.18,0-5.757-2.438-5.757-5.446c0-3.009,2.577-5.448,5.757-5.448C488.239,16.045,490.815,18.484,490.815,21.493"/>
				<path clip-path="url(#SVGID_34_)" fill="#C0C0C0" d="M490.681,21.493c0,2.937-2.517,5.317-5.619,5.317
					c-3.104,0-5.62-2.381-5.62-5.317c0-2.938,2.516-5.32,5.62-5.32C488.164,16.173,490.681,18.555,490.681,21.493"/>
				<path clip-path="url(#SVGID_34_)" fill="#C2C3C3" d="M490.547,21.493c0,2.865-2.457,5.191-5.485,5.191
					c-3.03,0-5.485-2.326-5.485-5.191c0-2.868,2.455-5.191,5.485-5.191C488.09,16.302,490.547,18.625,490.547,21.493"/>
				<path clip-path="url(#SVGID_34_)" fill="#C4C5C4" d="M490.408,21.493c0,2.795-2.394,5.062-5.347,5.062
					c-2.956,0-5.351-2.267-5.351-5.062c0-2.797,2.395-5.063,5.351-5.063C488.015,16.43,490.408,18.696,490.408,21.493"/>
				<path clip-path="url(#SVGID_34_)" fill="#C6C8C8" d="M490.274,21.493c0,2.724-2.335,4.935-5.213,4.935
					c-2.88,0-5.215-2.211-5.215-4.935c0-2.726,2.335-4.937,5.215-4.937C487.939,16.557,490.274,18.768,490.274,21.493"/>
				<path clip-path="url(#SVGID_34_)" fill="#C9CACB" d="M490.139,21.493c0,2.653-2.274,4.806-5.077,4.806
					c-2.806,0-5.079-2.152-5.079-4.806c0-2.655,2.273-4.808,5.079-4.808C487.864,16.686,490.139,18.838,490.139,21.493"/>
				<path clip-path="url(#SVGID_34_)" fill="#CBCDCD" d="M490.004,21.493c0,2.583-2.213,4.679-4.942,4.679
					c-2.732,0-4.945-2.096-4.945-4.679c0-2.585,2.213-4.681,4.945-4.681C487.791,16.813,490.004,18.908,490.004,21.493"/>
				<path clip-path="url(#SVGID_34_)" fill="#CCCFD0" d="M489.869,21.493c0,2.513-2.154,4.55-4.808,4.55
					c-2.655,0-4.809-2.037-4.809-4.55c0-2.515,2.153-4.552,4.809-4.552C487.715,16.941,489.869,18.979,489.869,21.493"/>
				<path clip-path="url(#SVGID_34_)" fill="#D0D2D2" d="M489.733,21.493c0,2.44-2.092,4.421-4.672,4.421
					c-2.582,0-4.673-1.98-4.673-4.421c0-2.443,2.091-4.424,4.673-4.424C487.642,17.069,489.733,19.05,489.733,21.493"/>
				<path clip-path="url(#SVGID_34_)" fill="#D2D4D5" d="M489.598,21.493c0,2.37-2.031,4.293-4.536,4.293
					c-2.508,0-4.538-1.923-4.538-4.293c0-2.372,2.03-4.294,4.538-4.294C487.566,17.199,489.598,19.121,489.598,21.493"/>
			</g>
		</g>
		<polygon fill="#605F5E" points="484.309,24.769 484.309,22.205 481.599,22.205 481.599,20.781 484.309,20.781 484.309,18.217 
			485.813,18.217 485.813,20.781 488.521,20.781 488.521,22.205 485.813,22.205 485.813,24.769 		"/>
		<path fill="#221714" d="M485.683,18.341v2.315v0.248h0.259h2.449v1.176h-2.449h-0.259v0.246v2.317h-1.243v-2.317V22.08h-0.26
			h-2.449v-1.176h2.449h0.26v-0.248v-2.315H485.683z M485.941,18.094h-1.762v2.563h-2.709v1.67h2.709v2.564h1.762v-2.564h2.71v-1.67
			h-2.71V18.094z"/>
	</g>
	<g>
		<path fill="#AFAEAE" d="M493.372,107.315c0,4.343-3.721,7.864-8.311,7.864c-4.591,0-8.311-3.521-8.311-7.864
			c0-4.345,3.72-7.868,8.311-7.868C489.651,99.447,493.372,102.971,493.372,107.315"/>
		<ellipse fill="none" stroke="#929292" stroke-miterlimit="10" cx="485.062" cy="107.315" rx="8.311" ry="7.864"/>
		<path fill="#AFAEAE" d="M491.168,107.315c0,3.19-2.734,5.778-6.106,5.778s-6.108-2.588-6.108-5.778
			c0-3.193,2.736-5.782,6.108-5.782S491.168,104.122,491.168,107.315"/>
		<ellipse fill="none" stroke="#929292" stroke-miterlimit="10" cx="485.061" cy="107.315" rx="6.107" ry="5.778"/>
		<g>
			<g>
				<defs>
					<rect id="SVGID_35_" x="479.305" y="101.867" width="11.511" height="10.895"/>
				</defs>
				<clipPath id="SVGID_36_">
					<use xlink:href="#SVGID_35_"  overflow="visible"/>
				</clipPath>
				<path clip-path="url(#SVGID_36_)" fill="#BEBEBD" d="M490.815,107.315c0,3.007-2.576,5.446-5.754,5.446
					c-3.18,0-5.757-2.439-5.757-5.446c0-3.01,2.577-5.448,5.757-5.448C488.239,101.867,490.815,104.306,490.815,107.315"/>
				<path clip-path="url(#SVGID_36_)" fill="#C0C0C0" d="M490.681,107.315c0,2.936-2.517,5.317-5.619,5.317
					c-3.104,0-5.62-2.382-5.62-5.317c0-2.938,2.516-5.321,5.62-5.321C488.164,101.994,490.681,104.377,490.681,107.315"/>
				<path clip-path="url(#SVGID_36_)" fill="#C2C3C3" d="M490.547,107.315c0,2.864-2.457,5.19-5.485,5.19
					c-3.03,0-5.485-2.326-5.485-5.19c0-2.868,2.455-5.192,5.485-5.192C488.09,102.123,490.547,104.447,490.547,107.315"/>
				<path clip-path="url(#SVGID_36_)" fill="#C4C5C4" d="M490.408,107.315c0,2.794-2.394,5.062-5.347,5.062
					c-2.956,0-5.351-2.268-5.351-5.062c0-2.798,2.395-5.063,5.351-5.063C488.015,102.252,490.408,104.518,490.408,107.315"/>
				<path clip-path="url(#SVGID_36_)" fill="#C6C8C8" d="M490.274,107.315c0,2.724-2.335,4.934-5.213,4.934
					c-2.88,0-5.215-2.21-5.215-4.934c0-2.727,2.335-4.937,5.215-4.937C487.939,102.379,490.274,104.589,490.274,107.315"/>
				<path clip-path="url(#SVGID_36_)" fill="#C9CACB" d="M490.139,107.315c0,2.653-2.274,4.805-5.077,4.805
					c-2.806,0-5.079-2.151-5.079-4.805c0-2.656,2.273-4.808,5.079-4.808C487.864,102.508,490.139,104.659,490.139,107.315"/>
				<path clip-path="url(#SVGID_36_)" fill="#CBCDCD" d="M490.004,107.315c0,2.582-2.213,4.678-4.942,4.678
					c-2.732,0-4.945-2.096-4.945-4.678c0-2.585,2.213-4.681,4.945-4.681C487.791,102.635,490.004,104.73,490.004,107.315"/>
				<path clip-path="url(#SVGID_36_)" fill="#CCCFD0" d="M489.869,107.315c0,2.512-2.154,4.55-4.808,4.55
					c-2.655,0-4.809-2.038-4.809-4.55c0-2.515,2.153-4.552,4.809-4.552C487.715,102.764,489.869,104.801,489.869,107.315"/>
				<path clip-path="url(#SVGID_36_)" fill="#D0D2D2" d="M489.733,107.315c0,2.44-2.092,4.421-4.672,4.421
					c-2.582,0-4.673-1.98-4.673-4.421c0-2.444,2.091-4.425,4.673-4.425C487.642,102.891,489.733,104.871,489.733,107.315"/>
				<path clip-path="url(#SVGID_36_)" fill="#D2D4D5" d="M489.598,107.315c0,2.37-2.031,4.293-4.536,4.293
					c-2.508,0-4.538-1.923-4.538-4.293c0-2.373,2.03-4.295,4.538-4.295C487.566,103.021,489.598,104.942,489.598,107.315"/>
			</g>
		</g>
		<polygon fill="#605F5E" points="484.309,110.59 484.309,108.026 481.599,108.026 481.599,106.604 484.309,106.604 
			484.309,104.039 485.813,104.039 485.813,106.604 488.521,106.604 488.521,108.026 485.813,108.026 485.813,110.59 		"/>
		<path fill="#221714" d="M485.683,104.162v2.316v0.248h0.259h2.449v1.176h-2.449h-0.259v0.246v2.316h-1.243v-2.316v-0.246h-0.26
			h-2.449v-1.176h2.449h0.26v-0.248v-2.316H485.683z M485.941,103.916h-1.762v2.563h-2.709v1.67h2.709v2.563h1.762v-2.563h2.71
			v-1.67h-2.71V103.916z"/>
	</g>
</g>
<g>
	<g>
		<path fill="#AFAEAE" d="M226.142,21.493c0,4.345-3.721,7.865-8.311,7.865c-4.591,0-8.312-3.521-8.312-7.865
			s3.721-7.867,8.312-7.867C222.421,13.626,226.142,17.148,226.142,21.493"/>
		<ellipse fill="none" stroke="#929292" stroke-miterlimit="10" cx="217.831" cy="21.493" rx="8.311" ry="7.865"/>
		<path fill="#AFAEAE" d="M223.938,21.493c0,3.191-2.734,5.779-6.106,5.779s-6.108-2.588-6.108-5.779
			c0-3.192,2.736-5.781,6.108-5.781S223.938,18.301,223.938,21.493"/>
		<ellipse fill="none" stroke="#929292" stroke-miterlimit="10" cx="217.83" cy="21.493" rx="6.107" ry="5.779"/>
		<g>
			<g>
				<defs>
					<rect id="SVGID_37_" x="212.074" y="16.045" width="11.512" height="10.895"/>
				</defs>
				<clipPath id="SVGID_38_">
					<use xlink:href="#SVGID_37_"  overflow="visible"/>
				</clipPath>
				<path clip-path="url(#SVGID_38_)" fill="#BEBEBD" d="M223.586,21.493c0,3.008-2.577,5.446-5.755,5.446
					c-3.18,0-5.757-2.438-5.757-5.446c0-3.009,2.577-5.448,5.757-5.448C221.009,16.045,223.586,18.484,223.586,21.493"/>
				<path clip-path="url(#SVGID_38_)" fill="#C0C0C0" d="M223.45,21.493c0,2.937-2.517,5.317-5.619,5.317
					c-3.104,0-5.62-2.381-5.62-5.317c0-2.938,2.516-5.32,5.62-5.32C220.934,16.173,223.45,18.555,223.45,21.493"/>
				<path clip-path="url(#SVGID_38_)" fill="#C2C3C3" d="M223.315,21.493c0,2.865-2.456,5.191-5.484,5.191
					c-3.03,0-5.485-2.326-5.485-5.191c0-2.868,2.455-5.191,5.485-5.191C220.859,16.302,223.315,18.625,223.315,21.493"/>
				<path clip-path="url(#SVGID_38_)" fill="#C4C5C4" d="M223.178,21.493c0,2.795-2.394,5.062-5.347,5.062
					c-2.956,0-5.352-2.267-5.352-5.062c0-2.797,2.396-5.063,5.352-5.063C220.784,16.43,223.178,18.696,223.178,21.493"/>
				<path clip-path="url(#SVGID_38_)" fill="#C6C8C8" d="M223.044,21.493c0,2.724-2.335,4.935-5.213,4.935
					c-2.88,0-5.215-2.211-5.215-4.935c0-2.726,2.335-4.937,5.215-4.937C220.709,16.557,223.044,18.768,223.044,21.493"/>
				<path clip-path="url(#SVGID_38_)" fill="#C9CACB" d="M222.908,21.493c0,2.653-2.274,4.806-5.077,4.806
					c-2.806,0-5.079-2.152-5.079-4.806c0-2.655,2.273-4.808,5.079-4.808C220.634,16.686,222.908,18.838,222.908,21.493"/>
				<path clip-path="url(#SVGID_38_)" fill="#CBCDCD" d="M222.773,21.493c0,2.583-2.213,4.679-4.942,4.679
					c-2.732,0-4.944-2.096-4.944-4.679c0-2.585,2.212-4.681,4.944-4.681C220.561,16.813,222.773,18.908,222.773,21.493"/>
				<path clip-path="url(#SVGID_38_)" fill="#CCCFD0" d="M222.639,21.493c0,2.513-2.155,4.55-4.808,4.55
					c-2.655,0-4.809-2.037-4.809-4.55c0-2.515,2.153-4.552,4.809-4.552C220.483,16.941,222.639,18.979,222.639,21.493"/>
				<path clip-path="url(#SVGID_38_)" fill="#D0D2D2" d="M222.501,21.493c0,2.44-2.09,4.421-4.67,4.421
					c-2.582,0-4.673-1.98-4.673-4.421c0-2.443,2.091-4.424,4.673-4.424C220.411,17.069,222.501,19.05,222.501,21.493"/>
				<path clip-path="url(#SVGID_38_)" fill="#D2D4D5" d="M222.367,21.493c0,2.37-2.031,4.293-4.536,4.293
					c-2.508,0-4.538-1.923-4.538-4.293c0-2.372,2.03-4.294,4.538-4.294C220.336,17.199,222.367,19.121,222.367,21.493"/>
			</g>
		</g>
		<polygon fill="#605F5E" points="217.078,24.769 217.078,22.205 214.369,22.205 214.369,20.781 217.078,20.781 217.078,18.217 
			218.581,18.217 218.581,20.781 221.291,20.781 221.291,22.205 218.581,22.205 218.581,24.769 		"/>
		<path fill="#221714" d="M218.452,18.341v2.315v0.248h0.259h2.449v1.176h-2.449h-0.259v0.246v2.317h-1.243v-2.317V22.08h-0.261
			H214.5v-1.176h2.448h0.261v-0.248v-2.315H218.452z M218.711,18.094h-1.763v2.563h-2.708v1.67h2.708v2.564h1.763v-2.564h2.71v-1.67
			h-2.71V18.094z"/>
	</g>
	<g>
		<path fill="#AFAEAE" d="M226.142,107.315c0,4.343-3.721,7.864-8.311,7.864c-4.591,0-8.312-3.521-8.312-7.864
			c0-4.345,3.721-7.868,8.312-7.868C222.421,99.447,226.142,102.971,226.142,107.315"/>
		<ellipse fill="none" stroke="#929292" stroke-miterlimit="10" cx="217.831" cy="107.315" rx="8.311" ry="7.864"/>
		<path fill="#AFAEAE" d="M223.938,107.315c0,3.19-2.734,5.778-6.106,5.778s-6.108-2.588-6.108-5.778
			c0-3.193,2.736-5.782,6.108-5.782S223.938,104.122,223.938,107.315"/>
		<ellipse fill="none" stroke="#929292" stroke-miterlimit="10" cx="217.83" cy="107.315" rx="6.107" ry="5.778"/>
		<g>
			<g>
				<defs>
					<rect id="SVGID_39_" x="212.074" y="101.867" width="11.512" height="10.895"/>
				</defs>
				<clipPath id="SVGID_40_">
					<use xlink:href="#SVGID_39_"  overflow="visible"/>
				</clipPath>
				<path clip-path="url(#SVGID_40_)" fill="#BEBEBD" d="M223.586,107.315c0,3.007-2.577,5.446-5.755,5.446
					c-3.18,0-5.757-2.439-5.757-5.446c0-3.01,2.577-5.448,5.757-5.448C221.009,101.867,223.586,104.306,223.586,107.315"/>
				<path clip-path="url(#SVGID_40_)" fill="#C0C0C0" d="M223.45,107.315c0,2.936-2.517,5.317-5.619,5.317
					c-3.104,0-5.62-2.382-5.62-5.317c0-2.938,2.516-5.321,5.62-5.321C220.934,101.994,223.45,104.377,223.45,107.315"/>
				<path clip-path="url(#SVGID_40_)" fill="#C2C3C3" d="M223.315,107.315c0,2.864-2.456,5.19-5.484,5.19
					c-3.03,0-5.485-2.326-5.485-5.19c0-2.868,2.455-5.192,5.485-5.192C220.859,102.123,223.315,104.447,223.315,107.315"/>
				<path clip-path="url(#SVGID_40_)" fill="#C4C5C4" d="M223.178,107.315c0,2.794-2.394,5.062-5.347,5.062
					c-2.956,0-5.352-2.268-5.352-5.062c0-2.798,2.396-5.063,5.352-5.063C220.784,102.252,223.178,104.518,223.178,107.315"/>
				<path clip-path="url(#SVGID_40_)" fill="#C6C8C8" d="M223.044,107.315c0,2.724-2.335,4.934-5.213,4.934
					c-2.88,0-5.215-2.21-5.215-4.934c0-2.727,2.335-4.937,5.215-4.937C220.709,102.379,223.044,104.589,223.044,107.315"/>
				<path clip-path="url(#SVGID_40_)" fill="#C9CACB" d="M222.908,107.315c0,2.653-2.274,4.805-5.077,4.805
					c-2.806,0-5.079-2.151-5.079-4.805c0-2.656,2.273-4.808,5.079-4.808C220.634,102.508,222.908,104.659,222.908,107.315"/>
				<path clip-path="url(#SVGID_40_)" fill="#CBCDCD" d="M222.773,107.315c0,2.582-2.213,4.678-4.942,4.678
					c-2.732,0-4.944-2.096-4.944-4.678c0-2.585,2.212-4.681,4.944-4.681C220.561,102.635,222.773,104.73,222.773,107.315"/>
				<path clip-path="url(#SVGID_40_)" fill="#CCCFD0" d="M222.639,107.315c0,2.512-2.155,4.55-4.808,4.55
					c-2.655,0-4.809-2.038-4.809-4.55c0-2.515,2.153-4.552,4.809-4.552C220.483,102.764,222.639,104.801,222.639,107.315"/>
				<path clip-path="url(#SVGID_40_)" fill="#D0D2D2" d="M222.501,107.315c0,2.44-2.09,4.421-4.67,4.421
					c-2.582,0-4.673-1.98-4.673-4.421c0-2.444,2.091-4.425,4.673-4.425C220.411,102.891,222.501,104.871,222.501,107.315"/>
				<path clip-path="url(#SVGID_40_)" fill="#D2D4D5" d="M222.367,107.315c0,2.37-2.031,4.293-4.536,4.293
					c-2.508,0-4.538-1.923-4.538-4.293c0-2.373,2.03-4.295,4.538-4.295C220.336,103.021,222.367,104.942,222.367,107.315"/>
			</g>
		</g>
		<polygon fill="#605F5E" points="217.078,110.59 217.078,108.026 214.369,108.026 214.369,106.604 217.078,106.604 
			217.078,104.039 218.581,104.039 218.581,106.604 221.291,106.604 221.291,108.026 218.581,108.026 218.581,110.59 		"/>
		<path fill="#221714" d="M218.452,104.162v2.316v0.248h0.259h2.449v1.176h-2.449h-0.259v0.246v2.316h-1.243v-2.316v-0.246h-0.261
			H214.5v-1.176h2.448h0.261v-0.248v-2.316H218.452z M218.711,103.916h-1.763v2.563h-2.708v1.67h2.708v2.563h1.763v-2.563h2.71
			v-1.67h-2.71V103.916z"/>
	</g>
</g>
<g>
	<g>
		<path fill="#AFAEAE" d="M27.641,21.493c0,4.345-3.721,7.865-8.312,7.865c-4.59,0-8.31-3.521-8.31-7.865s3.72-7.867,8.31-7.867
			C23.92,13.626,27.641,17.148,27.641,21.493"/>
		<ellipse fill="none" stroke="#929292" stroke-miterlimit="10" cx="19.33" cy="21.493" rx="8.311" ry="7.865"/>
		<path fill="#AFAEAE" d="M25.437,21.493c0,3.191-2.734,5.779-6.107,5.779c-3.372,0-6.107-2.588-6.107-5.779
			c0-3.192,2.735-5.781,6.107-5.781C22.702,15.712,25.437,18.301,25.437,21.493"/>
		<ellipse fill="none" stroke="#929292" stroke-miterlimit="10" cx="19.329" cy="21.493" rx="6.107" ry="5.779"/>
		<g>
			<g>
				<defs>
					<rect id="SVGID_41_" x="13.572" y="16.045" width="11.513" height="10.895"/>
				</defs>
				<clipPath id="SVGID_42_">
					<use xlink:href="#SVGID_41_"  overflow="visible"/>
				</clipPath>
				<path clip-path="url(#SVGID_42_)" fill="#BEBEBD" d="M25.085,21.493c0,3.008-2.577,5.446-5.756,5.446s-5.757-2.438-5.757-5.446
					c0-3.009,2.578-5.448,5.757-5.448S25.085,18.484,25.085,21.493"/>
				<path clip-path="url(#SVGID_42_)" fill="#C0C0C0" d="M24.948,21.493c0,2.937-2.516,5.317-5.619,5.317s-5.62-2.381-5.62-5.317
					c0-2.938,2.517-5.32,5.62-5.32S24.948,18.555,24.948,21.493"/>
				<path clip-path="url(#SVGID_42_)" fill="#C2C3C3" d="M24.815,21.493c0,2.865-2.457,5.191-5.486,5.191s-5.484-2.326-5.484-5.191
					c0-2.868,2.455-5.191,5.484-5.191S24.815,18.625,24.815,21.493"/>
				<path clip-path="url(#SVGID_42_)" fill="#C4C5C4" d="M24.677,21.493c0,2.795-2.393,5.062-5.348,5.062
					c-2.956,0-5.35-2.267-5.35-5.062c0-2.797,2.394-5.063,5.35-5.063C22.284,16.43,24.677,18.696,24.677,21.493"/>
				<path clip-path="url(#SVGID_42_)" fill="#C6C8C8" d="M24.543,21.493c0,2.724-2.335,4.935-5.214,4.935s-5.214-2.211-5.214-4.935
					c0-2.726,2.335-4.937,5.214-4.937S24.543,18.768,24.543,21.493"/>
				<path clip-path="url(#SVGID_42_)" fill="#C9CACB" d="M24.407,21.493c0,2.653-2.273,4.806-5.078,4.806
					c-2.806,0-5.078-2.152-5.078-4.806c0-2.655,2.272-4.808,5.078-4.808C22.134,16.686,24.407,18.838,24.407,21.493"/>
				<path clip-path="url(#SVGID_42_)" fill="#CBCDCD" d="M24.271,21.493c0,2.583-2.213,4.679-4.942,4.679
					c-2.73,0-4.943-2.096-4.943-4.679c0-2.585,2.213-4.681,4.943-4.681C22.059,16.813,24.271,18.908,24.271,21.493"/>
				<path clip-path="url(#SVGID_42_)" fill="#CCCFD0" d="M24.138,21.493c0,2.513-2.154,4.55-4.809,4.55
					c-2.655,0-4.808-2.037-4.808-4.55c0-2.515,2.152-4.552,4.808-4.552C21.983,16.941,24.138,18.979,24.138,21.493"/>
				<path clip-path="url(#SVGID_42_)" fill="#D0D2D2" d="M24.002,21.493c0,2.44-2.092,4.421-4.673,4.421
					c-2.58,0-4.673-1.98-4.673-4.421c0-2.443,2.093-4.424,4.673-4.424C21.91,17.069,24.002,19.05,24.002,21.493"/>
				<path clip-path="url(#SVGID_42_)" fill="#D2D4D5" d="M23.866,21.493c0,2.37-2.031,4.293-4.537,4.293
					c-2.507,0-4.537-1.923-4.537-4.293c0-2.372,2.03-4.294,4.537-4.294C21.835,17.199,23.866,19.121,23.866,21.493"/>
			</g>
		</g>
		<polygon fill="#605F5E" points="18.577,24.769 18.577,22.205 15.868,22.205 15.868,20.781 18.577,20.781 18.577,18.217 
			20.081,18.217 20.081,20.781 22.79,20.781 22.79,22.205 20.081,22.205 20.081,24.769 		"/>
		<path fill="#221714" d="M19.951,18.341v2.315v0.248h0.258h2.45v1.176h-2.45h-0.258v0.246v2.317h-1.243v-2.317V22.08h-0.26h-2.449
			v-1.176h2.449h0.26v-0.248v-2.315H19.951z M20.209,18.094h-1.761v2.563h-2.709v1.67h2.709v2.564h1.761v-2.564h2.711v-1.67h-2.711
			V18.094z"/>
	</g>
	<g>
		<path fill="#AFAEAE" d="M27.641,107.315c0,4.343-3.721,7.864-8.312,7.864c-4.59,0-8.31-3.521-8.31-7.864
			c0-4.345,3.72-7.868,8.31-7.868C23.92,99.447,27.641,102.971,27.641,107.315"/>
		<ellipse fill="none" stroke="#929292" stroke-miterlimit="10" cx="19.33" cy="107.315" rx="8.311" ry="7.864"/>
		<path fill="#AFAEAE" d="M25.437,107.315c0,3.19-2.734,5.778-6.107,5.778c-3.372,0-6.107-2.588-6.107-5.778
			c0-3.193,2.735-5.782,6.107-5.782C22.702,101.533,25.437,104.122,25.437,107.315"/>
		<ellipse fill="none" stroke="#929292" stroke-miterlimit="10" cx="19.329" cy="107.315" rx="6.107" ry="5.778"/>
		<g>
			<g>
				<defs>
					<rect id="SVGID_43_" x="13.572" y="101.867" width="11.513" height="10.895"/>
				</defs>
				<clipPath id="SVGID_44_">
					<use xlink:href="#SVGID_43_"  overflow="visible"/>
				</clipPath>
				<path clip-path="url(#SVGID_44_)" fill="#BEBEBD" d="M25.085,107.315c0,3.007-2.577,5.446-5.756,5.446s-5.757-2.439-5.757-5.446
					c0-3.01,2.578-5.448,5.757-5.448S25.085,104.306,25.085,107.315"/>
				<path clip-path="url(#SVGID_44_)" fill="#C0C0C0" d="M24.948,107.315c0,2.936-2.516,5.317-5.619,5.317s-5.62-2.382-5.62-5.317
					c0-2.938,2.517-5.321,5.62-5.321S24.948,104.377,24.948,107.315"/>
				<path clip-path="url(#SVGID_44_)" fill="#C2C3C3" d="M24.815,107.315c0,2.864-2.457,5.19-5.486,5.19s-5.484-2.326-5.484-5.19
					c0-2.868,2.455-5.192,5.484-5.192S24.815,104.447,24.815,107.315"/>
				<path clip-path="url(#SVGID_44_)" fill="#C4C5C4" d="M24.677,107.315c0,2.794-2.393,5.062-5.348,5.062
					c-2.956,0-5.35-2.268-5.35-5.062c0-2.798,2.394-5.063,5.35-5.063C22.284,102.252,24.677,104.518,24.677,107.315"/>
				<path clip-path="url(#SVGID_44_)" fill="#C6C8C8" d="M24.543,107.315c0,2.724-2.335,4.934-5.214,4.934s-5.214-2.21-5.214-4.934
					c0-2.727,2.335-4.937,5.214-4.937S24.543,104.589,24.543,107.315"/>
				<path clip-path="url(#SVGID_44_)" fill="#C9CACB" d="M24.407,107.315c0,2.653-2.273,4.805-5.078,4.805
					c-2.806,0-5.078-2.151-5.078-4.805c0-2.656,2.272-4.808,5.078-4.808C22.134,102.508,24.407,104.659,24.407,107.315"/>
				<path clip-path="url(#SVGID_44_)" fill="#CBCDCD" d="M24.271,107.315c0,2.582-2.213,4.678-4.942,4.678
					c-2.73,0-4.943-2.096-4.943-4.678c0-2.585,2.213-4.681,4.943-4.681C22.059,102.635,24.271,104.73,24.271,107.315"/>
				<path clip-path="url(#SVGID_44_)" fill="#CCCFD0" d="M24.138,107.315c0,2.512-2.154,4.55-4.809,4.55
					c-2.655,0-4.808-2.038-4.808-4.55c0-2.515,2.152-4.552,4.808-4.552C21.983,102.764,24.138,104.801,24.138,107.315"/>
				<path clip-path="url(#SVGID_44_)" fill="#D0D2D2" d="M24.002,107.315c0,2.44-2.092,4.421-4.673,4.421
					c-2.58,0-4.673-1.98-4.673-4.421c0-2.444,2.093-4.425,4.673-4.425C21.91,102.891,24.002,104.871,24.002,107.315"/>
				<path clip-path="url(#SVGID_44_)" fill="#D2D4D5" d="M23.866,107.315c0,2.37-2.031,4.293-4.537,4.293
					c-2.507,0-4.537-1.923-4.537-4.293c0-2.373,2.03-4.295,4.537-4.295C21.835,103.021,23.866,104.942,23.866,107.315"/>
			</g>
		</g>
		<polygon fill="#605F5E" points="18.577,110.59 18.577,108.026 15.868,108.026 15.868,106.604 18.577,106.604 18.577,104.039 
			20.081,104.039 20.081,106.604 22.79,106.604 22.79,108.026 20.081,108.026 20.081,110.59 		"/>
		<path fill="#221714" d="M19.951,104.162v2.316v0.248h0.258h2.45v1.176h-2.45h-0.258v0.246v2.316h-1.243v-2.316v-0.246h-0.26
			h-2.449v-1.176h2.449h0.26v-0.248v-2.316H19.951z M20.209,103.916h-1.761v2.563h-2.709v1.67h2.709v2.563h1.761v-2.563h2.711v-1.67
			h-2.711V103.916z"/>
	</g>
</g>
<g>
	<g>
		<path fill="#AFAEAE" d="M519.91,21.493c0,4.345-3.721,7.865-8.312,7.865c-4.59,0-8.31-3.521-8.31-7.865s3.72-7.867,8.31-7.867
			C516.189,13.626,519.91,17.148,519.91,21.493"/>
		<ellipse fill="none" stroke="#929292" stroke-miterlimit="10" cx="511.6" cy="21.493" rx="8.311" ry="7.865"/>
		<path fill="#AFAEAE" d="M517.705,21.493c0,3.191-2.733,5.779-6.106,5.779c-3.371,0-6.107-2.588-6.107-5.779
			c0-3.192,2.736-5.781,6.107-5.781C514.972,15.712,517.705,18.301,517.705,21.493"/>
		<ellipse fill="none" stroke="#929292" stroke-miterlimit="10" cx="511.598" cy="21.493" rx="6.107" ry="5.779"/>
		<g>
			<g>
				<defs>
					<rect id="SVGID_45_" x="505.842" y="16.045" width="11.513" height="10.895"/>
				</defs>
				<clipPath id="SVGID_46_">
					<use xlink:href="#SVGID_45_"  overflow="visible"/>
				</clipPath>
				<path clip-path="url(#SVGID_46_)" fill="#BEBEBD" d="M517.354,21.493c0,3.008-2.577,5.446-5.756,5.446s-5.757-2.438-5.757-5.446
					c0-3.009,2.578-5.448,5.757-5.448S517.354,18.484,517.354,21.493"/>
				<path clip-path="url(#SVGID_46_)" fill="#C0C0C0" d="M517.218,21.493c0,2.937-2.516,5.317-5.619,5.317s-5.619-2.381-5.619-5.317
					c0-2.938,2.516-5.32,5.619-5.32S517.218,18.555,517.218,21.493"/>
				<path clip-path="url(#SVGID_46_)" fill="#C2C3C3" d="M517.085,21.493c0,2.865-2.457,5.191-5.486,5.191s-5.484-2.326-5.484-5.191
					c0-2.868,2.455-5.191,5.484-5.191S517.085,18.625,517.085,21.493"/>
				<path clip-path="url(#SVGID_46_)" fill="#C4C5C4" d="M516.946,21.493c0,2.795-2.393,5.062-5.348,5.062
					c-2.956,0-5.35-2.267-5.35-5.062c0-2.797,2.394-5.063,5.35-5.063C514.554,16.43,516.946,18.696,516.946,21.493"/>
				<path clip-path="url(#SVGID_46_)" fill="#C6C8C8" d="M516.813,21.493c0,2.724-2.335,4.935-5.214,4.935s-5.214-2.211-5.214-4.935
					c0-2.726,2.335-4.937,5.214-4.937S516.813,18.768,516.813,21.493"/>
				<path clip-path="url(#SVGID_46_)" fill="#C9CACB" d="M516.677,21.493c0,2.653-2.273,4.806-5.078,4.806s-5.079-2.152-5.079-4.806
					c0-2.655,2.274-4.808,5.079-4.808S516.677,18.838,516.677,21.493"/>
				<path clip-path="url(#SVGID_46_)" fill="#CBCDCD" d="M516.541,21.493c0,2.583-2.212,4.679-4.942,4.679s-4.943-2.096-4.943-4.679
					c0-2.585,2.213-4.681,4.943-4.681S516.541,18.908,516.541,21.493"/>
				<path clip-path="url(#SVGID_46_)" fill="#CCCFD0" d="M516.407,21.493c0,2.513-2.154,4.55-4.809,4.55s-4.808-2.037-4.808-4.55
					c0-2.515,2.153-4.552,4.808-4.552S516.407,18.979,516.407,21.493"/>
				<path clip-path="url(#SVGID_46_)" fill="#D0D2D2" d="M516.271,21.493c0,2.44-2.092,4.421-4.673,4.421
					c-2.58,0-4.673-1.98-4.673-4.421c0-2.443,2.093-4.424,4.673-4.424C514.18,17.069,516.271,19.05,516.271,21.493"/>
				<path clip-path="url(#SVGID_46_)" fill="#D2D4D5" d="M516.136,21.493c0,2.37-2.032,4.293-4.537,4.293
					c-2.507,0-4.537-1.923-4.537-4.293c0-2.372,2.03-4.294,4.537-4.294C514.104,17.199,516.136,19.121,516.136,21.493"/>
			</g>
		</g>
		<polygon fill="#605F5E" points="510.847,24.769 510.847,22.205 508.138,22.205 508.138,20.781 510.847,20.781 510.847,18.217 
			512.351,18.217 512.351,20.781 515.059,20.781 515.059,22.205 512.351,22.205 512.351,24.769 		"/>
		<path fill="#221714" d="M512.221,18.341v2.315v0.248h0.259h2.449v1.176h-2.449h-0.259v0.246v2.317h-1.243v-2.317V22.08h-0.26
			h-2.449v-1.176h2.449h0.26v-0.248v-2.315H512.221z M512.479,18.094h-1.762v2.563h-2.709v1.67h2.709v2.564h1.762v-2.564h2.71v-1.67
			h-2.71V18.094z"/>
	</g>
	<g>
		<path fill="#AFAEAE" d="M519.91,107.315c0,4.343-3.721,7.864-8.312,7.864c-4.59,0-8.31-3.521-8.31-7.864
			c0-4.345,3.72-7.868,8.31-7.868C516.189,99.447,519.91,102.971,519.91,107.315"/>
		<ellipse fill="none" stroke="#929292" stroke-miterlimit="10" cx="511.6" cy="107.315" rx="8.311" ry="7.864"/>
		<path fill="#AFAEAE" d="M517.705,107.315c0,3.19-2.733,5.778-6.106,5.778c-3.371,0-6.107-2.588-6.107-5.778
			c0-3.193,2.736-5.782,6.107-5.782C514.972,101.533,517.705,104.122,517.705,107.315"/>
		<ellipse fill="none" stroke="#929292" stroke-miterlimit="10" cx="511.598" cy="107.315" rx="6.107" ry="5.778"/>
		<g>
			<g>
				<defs>
					<rect id="SVGID_47_" x="505.842" y="101.867" width="11.513" height="10.895"/>
				</defs>
				<clipPath id="SVGID_48_">
					<use xlink:href="#SVGID_47_"  overflow="visible"/>
				</clipPath>
				<path clip-path="url(#SVGID_48_)" fill="#BEBEBD" d="M517.354,107.315c0,3.007-2.577,5.446-5.756,5.446
					s-5.757-2.439-5.757-5.446c0-3.01,2.578-5.448,5.757-5.448S517.354,104.306,517.354,107.315"/>
				<path clip-path="url(#SVGID_48_)" fill="#C0C0C0" d="M517.218,107.315c0,2.936-2.516,5.317-5.619,5.317
					s-5.619-2.382-5.619-5.317c0-2.938,2.516-5.321,5.619-5.321S517.218,104.377,517.218,107.315"/>
				<path clip-path="url(#SVGID_48_)" fill="#C2C3C3" d="M517.085,107.315c0,2.864-2.457,5.19-5.486,5.19s-5.484-2.326-5.484-5.19
					c0-2.868,2.455-5.192,5.484-5.192S517.085,104.447,517.085,107.315"/>
				<path clip-path="url(#SVGID_48_)" fill="#C4C5C4" d="M516.946,107.315c0,2.794-2.393,5.062-5.348,5.062
					c-2.956,0-5.35-2.268-5.35-5.062c0-2.798,2.394-5.063,5.35-5.063C514.554,102.252,516.946,104.518,516.946,107.315"/>
				<path clip-path="url(#SVGID_48_)" fill="#C6C8C8" d="M516.813,107.315c0,2.724-2.335,4.934-5.214,4.934s-5.214-2.21-5.214-4.934
					c0-2.727,2.335-4.937,5.214-4.937S516.813,104.589,516.813,107.315"/>
				<path clip-path="url(#SVGID_48_)" fill="#C9CACB" d="M516.677,107.315c0,2.653-2.273,4.805-5.078,4.805
					s-5.079-2.151-5.079-4.805c0-2.656,2.274-4.808,5.079-4.808S516.677,104.659,516.677,107.315"/>
				<path clip-path="url(#SVGID_48_)" fill="#CBCDCD" d="M516.541,107.315c0,2.582-2.212,4.678-4.942,4.678
					s-4.943-2.096-4.943-4.678c0-2.585,2.213-4.681,4.943-4.681S516.541,104.73,516.541,107.315"/>
				<path clip-path="url(#SVGID_48_)" fill="#CCCFD0" d="M516.407,107.315c0,2.512-2.154,4.55-4.809,4.55s-4.808-2.038-4.808-4.55
					c0-2.515,2.153-4.552,4.808-4.552S516.407,104.801,516.407,107.315"/>
				<path clip-path="url(#SVGID_48_)" fill="#D0D2D2" d="M516.271,107.315c0,2.44-2.092,4.421-4.673,4.421
					c-2.58,0-4.673-1.98-4.673-4.421c0-2.444,2.093-4.425,4.673-4.425C514.18,102.891,516.271,104.871,516.271,107.315"/>
				<path clip-path="url(#SVGID_48_)" fill="#D2D4D5" d="M516.136,107.315c0,2.37-2.032,4.293-4.537,4.293
					c-2.507,0-4.537-1.923-4.537-4.293c0-2.373,2.03-4.295,4.537-4.295C514.104,103.021,516.136,104.942,516.136,107.315"/>
			</g>
		</g>
		<polygon fill="#605F5E" points="510.847,110.59 510.847,108.026 508.138,108.026 508.138,106.604 510.847,106.604 
			510.847,104.039 512.351,104.039 512.351,106.604 515.059,106.604 515.059,108.026 512.351,108.026 512.351,110.59 		"/>
		<path fill="#221714" d="M512.221,104.162v2.316v0.248h0.259h2.449v1.176h-2.449h-0.259v0.246v2.316h-1.243v-2.316v-0.246h-0.26
			h-2.449v-1.176h2.449h0.26v-0.248v-2.316H512.221z M512.479,103.916h-1.762v2.563h-2.709v1.67h2.709v2.563h1.762v-2.563h2.71
			v-1.67h-2.71V103.916z"/>
	</g>
</g>
<g>
	<path fill="#AFAEAE" d="M1041.855,110.487c0,4.344-3.72,7.865-8.31,7.865c-4.591,0-8.311-3.521-8.311-7.865
		c0-4.345,3.72-7.867,8.311-7.867C1038.136,102.62,1041.855,106.143,1041.855,110.487"/>
	<ellipse fill="none" stroke="#929292" stroke-miterlimit="10" cx="1033.545" cy="110.487" rx="8.31" ry="7.865"/>
	<path fill="#AFAEAE" d="M1039.651,110.487c0,3.191-2.734,5.779-6.105,5.779c-3.372,0-6.108-2.588-6.108-5.779
		c0-3.192,2.736-5.781,6.108-5.781C1036.917,104.706,1039.651,107.295,1039.651,110.487"/>
	<ellipse fill="none" stroke="#929292" stroke-miterlimit="10" cx="1033.544" cy="110.487" rx="6.107" ry="5.779"/>
	<g>
		<g>
			<defs>
				<rect id="SVGID_49_" x="1027.789" y="105.039" width="11.512" height="10.895"/>
			</defs>
			<clipPath id="SVGID_50_">
				<use xlink:href="#SVGID_49_"  overflow="visible"/>
			</clipPath>
			<path clip-path="url(#SVGID_50_)" fill="#BEBEBD" d="M1039.301,110.487c0,3.008-2.577,5.446-5.755,5.446
				c-3.18,0-5.757-2.438-5.757-5.446c0-3.009,2.577-5.448,5.757-5.448C1036.724,105.039,1039.301,107.479,1039.301,110.487"/>
			<path clip-path="url(#SVGID_50_)" fill="#C0C0C0" d="M1039.165,110.487c0,2.937-2.518,5.317-5.619,5.317
				c-3.104,0-5.62-2.381-5.62-5.317c0-2.938,2.516-5.32,5.62-5.32C1036.647,105.167,1039.165,107.549,1039.165,110.487"/>
			<path clip-path="url(#SVGID_50_)" fill="#C2C3C3" d="M1039.031,110.487c0,2.865-2.457,5.191-5.485,5.191
				c-3.03,0-5.485-2.326-5.485-5.191c0-2.868,2.455-5.191,5.485-5.191C1036.574,105.296,1039.031,107.619,1039.031,110.487"/>
			<path clip-path="url(#SVGID_50_)" fill="#C4C5C4" d="M1038.893,110.487c0,2.795-2.393,5.062-5.347,5.062
				c-2.956,0-5.351-2.267-5.351-5.062c0-2.797,2.395-5.063,5.351-5.063C1036.5,105.424,1038.893,107.69,1038.893,110.487"/>
			<path clip-path="url(#SVGID_50_)" fill="#C6C8C8" d="M1038.758,110.487c0,2.724-2.334,4.935-5.212,4.935
				c-2.881,0-5.215-2.211-5.215-4.935c0-2.726,2.334-4.937,5.215-4.937C1036.424,105.551,1038.758,107.762,1038.758,110.487"/>
			<path clip-path="url(#SVGID_50_)" fill="#C9CACB" d="M1038.623,110.487c0,2.653-2.273,4.806-5.077,4.806
				c-2.806,0-5.08-2.152-5.08-4.806c0-2.655,2.274-4.808,5.08-4.808C1036.35,105.68,1038.623,107.832,1038.623,110.487"/>
			<path clip-path="url(#SVGID_50_)" fill="#CBCDCD" d="M1038.488,110.487c0,2.583-2.213,4.679-4.942,4.679
				c-2.731,0-4.944-2.096-4.944-4.679c0-2.585,2.213-4.681,4.944-4.681C1036.275,105.807,1038.488,107.902,1038.488,110.487"/>
			<path clip-path="url(#SVGID_50_)" fill="#CCCFD0" d="M1038.354,110.487c0,2.513-2.154,4.55-4.808,4.55
				c-2.655,0-4.809-2.037-4.809-4.55c0-2.515,2.153-4.552,4.809-4.552C1036.199,105.936,1038.354,107.973,1038.354,110.487"/>
			<path clip-path="url(#SVGID_50_)" fill="#D0D2D2" d="M1038.218,110.487c0,2.44-2.093,4.421-4.672,4.421
				c-2.581,0-4.673-1.98-4.673-4.421c0-2.442,2.092-4.424,4.673-4.424C1036.125,106.063,1038.218,108.045,1038.218,110.487"/>
			<path clip-path="url(#SVGID_50_)" fill="#D2D4D5" d="M1038.081,110.487c0,2.37-2.031,4.293-4.535,4.293
				c-2.508,0-4.538-1.923-4.538-4.293c0-2.372,2.03-4.294,4.538-4.294C1036.05,106.193,1038.081,108.115,1038.081,110.487"/>
		</g>
	</g>
	<polygon fill="#605F5E" points="1032.793,113.763 1032.793,111.199 1030.084,111.199 1030.084,109.775 1032.793,109.775 
		1032.793,107.211 1034.297,107.211 1034.297,109.775 1037.006,109.775 1037.006,111.199 1034.297,111.199 1034.297,113.763 	"/>
	<path fill="#221714" d="M1034.167,107.336v2.314v0.248h0.259h2.449v1.176h-2.449h-0.259v0.246v2.317h-1.243v-2.317v-0.246h-0.26
		h-2.45v-1.176h2.45h0.26v-0.248v-2.314H1034.167z M1034.426,107.088h-1.762v2.563h-2.709v1.67h2.709v2.564h1.762v-2.564h2.71v-1.67
		h-2.71V107.088z"/>
</g>
<g>
	<rect x="1021.235" y="30.215" fill="#5B7155" width="21.62" height="37.43"/>
	<rect x="1021.235" y="30.215" fill="#1D2A19" width="1.444" height="37.43"/>
	<rect x="1026.235" y="59.818" fill="#44533F" width="14.065" height="3.914"/>
	<rect x="1026.235" y="54.168" fill="#44533F" width="14.065" height="3.913"/>
	<rect x="1026.235" y="48.517" fill="#44533F" width="14.065" height="3.913"/>
	<rect x="1026.235" y="42.865" fill="#44533F" width="14.065" height="3.914"/>
	<rect x="1026.235" y="37.215" fill="#44533F" width="14.065" height="3.912"/>
	<rect x="1026.235" y="31.563" fill="#44533F" width="14.065" height="3.914"/>
</g>
<g>
	<rect x="1021.235" y="61.099" fill="#5B7155" width="21.62" height="37.431"/>
	<rect x="1021.235" y="61.099" fill="#1D2A19" width="1.444" height="37.431"/>
	<rect x="1026.235" y="90.703" fill="#44533F" width="14.065" height="3.913"/>
	<rect x="1026.235" y="85.051" fill="#44533F" width="14.065" height="3.914"/>
	<rect x="1026.235" y="79.4" fill="#44533F" width="14.065" height="3.913"/>
	<rect x="1026.235" y="73.749" fill="#44533F" width="14.065" height="3.913"/>
	<rect x="1026.235" y="68.098" fill="#44533F" width="14.065" height="3.914"/>
	<rect x="1026.235" y="62.447" fill="#44533F" width="14.065" height="3.912"/>
</g>
<linearGradient id="SVGID_51_" gradientUnits="userSpaceOnUse" x1="1183.4248" y1="64.4033" x2="1244.3193" y2="64.4033">
	<stop  offset="0" style="stop-color:#919292"/>
	<stop  offset="0.0664" style="stop-color:#F7F7F7"/>
	<stop  offset="0.8204" style="stop-color:#EEEEEF"/>
	<stop  offset="1" style="stop-color:#919292"/>
</linearGradient>
<path fill="url(#SVGID_51_)" d="M1244.319,101.441c0,2.762-2.238,5-5,5h-50.895c-2.762,0-5-2.238-5-5V27.365c0-2.762,2.238-5,5-5
	h50.895c2.762,0,5,2.238,5,5V101.441z"/>
</svg>
