<?xml version="1.0" encoding="utf-8"?>
<!-- Generator: Adobe Illustrator 16.0.0, SVG Export Plug-In . SVG Version: 6.00 Build 0)  -->
<!DOCTYPE svg PUBLIC "-//W3C//DTD SVG 1.1//EN" "http://www.w3.org/Graphics/SVG/1.1/DTD/svg11.dtd">
<svg version="1.1" id="图层_1" xmlns="http://www.w3.org/2000/svg" xmlns:xlink="http://www.w3.org/1999/xlink" x="0px" y="0px"
	 width="69.785px" height="22.5px" viewBox="0 0 69.785 22.5" enable-background="new 0 0 69.785 22.5" xml:space="preserve">
<g>
	<path fill="#80C0C4" d="M48.371,21.947H21.416c-3.737,0-6.953-2.641-7.679-6.307l-1.806-9.119
		c-0.551-3.123,1.982-5.968,5.313-5.968h35.298c3.33,0,5.863,2.845,5.313,5.968l-1.807,9.119
		C55.324,19.306,52.109,21.947,48.371,21.947"/>
	<path fill="none" stroke="#606060" stroke-miterlimit="10" d="M48.371,21.947H21.416c-3.737,0-6.953-2.641-7.679-6.307
		l-1.806-9.119c-0.551-3.123,1.982-5.968,5.313-5.968h35.298c3.33,0,5.863,2.845,5.313,5.968l-1.807,9.119
		C55.324,19.306,52.109,21.947,48.371,21.947z"/>
	<path d="M22.33,5.406c0,1.219-0.985,2.206-2.199,2.206c-1.215,0-2.199-0.987-2.199-2.206c0-1.218,0.984-2.206,2.199-2.206
		C21.344,3.2,22.33,4.188,22.33,5.406"/>
	<path d="M28.99,5.406c0,1.219-0.984,2.206-2.199,2.206s-2.198-0.987-2.198-2.206c0-1.218,0.983-2.206,2.198-2.206
		S28.99,4.188,28.99,5.406"/>
	<path d="M35.651,5.406c0,1.219-0.985,2.206-2.199,2.206c-1.215,0-2.199-0.987-2.199-2.206c0-1.218,0.984-2.206,2.199-2.206
		C34.666,3.2,35.651,4.188,35.651,5.406"/>
	<path d="M42.312,5.406c0,1.219-0.986,2.206-2.199,2.206c-1.215,0-2.199-0.987-2.199-2.206c0-1.218,0.984-2.206,2.199-2.206
		C41.325,3.2,42.312,4.188,42.312,5.406"/>
	<path d="M48.972,5.406c0,1.219-0.984,2.206-2.199,2.206s-2.2-0.987-2.2-2.206c0-1.218,0.985-2.206,2.2-2.206
		S48.972,4.188,48.972,5.406"/>
	<path d="M25.892,11.25c0,1.218-0.985,2.206-2.199,2.206c-1.215,0-2.2-0.988-2.2-2.206s0.985-2.206,2.2-2.206
		C24.907,9.044,25.892,10.033,25.892,11.25"/>
	<path d="M32.552,11.25c0,1.218-0.985,2.206-2.199,2.206c-1.215,0-2.199-0.988-2.199-2.206s0.984-2.206,2.199-2.206
		C31.567,9.044,32.552,10.033,32.552,11.25"/>
	<path d="M39.212,11.25c0,1.218-0.984,2.206-2.198,2.206c-1.216,0-2.199-0.988-2.199-2.206s0.983-2.206,2.199-2.206
		C38.228,9.044,39.212,10.033,39.212,11.25"/>
	<path d="M45.875,11.25c0,1.218-0.987,2.206-2.2,2.206c-1.215,0-2.199-0.988-2.199-2.206s0.984-2.206,2.199-2.206
		C44.888,9.044,45.875,10.033,45.875,11.25"/>
	<path d="M52.535,11.25c0,1.218-0.984,2.206-2.199,2.206s-2.199-0.988-2.199-2.206s0.984-2.206,2.199-2.206
		S52.535,10.033,52.535,11.25"/>
	<path d="M21.65,17.095c0,1.218-0.985,2.206-2.199,2.206c-1.215,0-2.198-0.988-2.198-2.206c0-1.219,0.983-2.206,2.198-2.206
		C20.665,14.889,21.65,15.876,21.65,17.095"/>
	<path d="M28.311,17.095c0,1.218-0.985,2.206-2.199,2.206c-1.215,0-2.2-0.988-2.2-2.206c0-1.219,0.985-2.206,2.2-2.206
		C27.326,14.889,28.311,15.876,28.311,17.095"/>
	<path d="M34.971,17.095c0,1.218-0.985,2.206-2.199,2.206c-1.215,0-2.2-0.988-2.2-2.206c0-1.219,0.985-2.206,2.2-2.206
		C33.986,14.889,34.971,15.876,34.971,17.095"/>
	<path d="M41.632,17.095c0,1.218-0.984,2.206-2.199,2.206c-1.214,0-2.2-0.988-2.2-2.206c0-1.219,0.985-2.206,2.2-2.206
		C40.647,14.889,41.632,15.876,41.632,17.095"/>
	<path d="M48.292,17.095c0,1.218-0.984,2.206-2.199,2.206c-1.215,0-2.2-0.988-2.2-2.206c0-1.219,0.984-2.206,2.2-2.206
		C47.308,14.889,48.292,15.876,48.292,17.095"/>
	<path fill="#BDBDBD" d="M3.5,15.37c-0.473,0-0.914-0.255-1.15-0.665l-1.796-3.11c-0.238-0.411-0.238-0.919,0.001-1.33l1.795-3.111
		c0.238-0.41,0.678-0.665,1.15-0.665h3.595c0.472,0,0.914,0.255,1.149,0.665l1.797,3.112c0.237,0.41,0.237,0.918-0.001,1.33
		l-1.796,3.109c-0.234,0.41-0.677,0.665-1.149,0.665H3.5z"/>
	<path fill="#8F8F8F" d="M7.093,6.864c0.341,0,0.656,0.182,0.826,0.477l1.797,3.112c0.17,0.295,0.17,0.658,0,0.953l-1.797,3.111
		c-0.17,0.296-0.485,0.478-0.826,0.478H3.5c-0.341,0-0.656-0.182-0.826-0.478l-1.797-3.111c-0.17-0.295-0.17-0.658,0-0.953
		L2.674,7.34C2.844,7.045,3.16,6.864,3.5,6.864H7.093 M7.093,6.114H3.5c-0.607,0-1.172,0.326-1.477,0.852l-1.796,3.112
		c-0.304,0.525-0.304,1.178,0,1.703l1.796,3.111c0.305,0.526,0.869,0.853,1.477,0.853h3.593c0.607,0,1.172-0.326,1.475-0.853
		l1.798-3.111c0.303-0.525,0.303-1.178,0-1.703L8.568,6.965C8.265,6.44,7.701,6.114,7.093,6.114"/>
	<path fill="#CECECE" d="M8.906,10.958c0,1.999-1.615,3.62-3.608,3.62c-1.994,0-3.61-1.621-3.61-3.62s1.616-3.62,3.61-3.62
		C7.291,7.337,8.906,8.958,8.906,10.958"/>
	<ellipse fill="none" stroke="#8F8F8F" stroke-width="0.25" stroke-miterlimit="10" cx="5.296" cy="10.958" rx="3.609" ry="3.62"/>
	<path fill="#414244" d="M7.527,10.958c0,1.235-0.998,2.236-2.23,2.236c-1.23,0-2.229-1.001-2.229-2.236s0.999-2.236,2.229-2.236
		C6.529,8.721,7.527,9.722,7.527,10.958"/>
	<ellipse fill="none" stroke="#000000" stroke-width="0.25" stroke-miterlimit="10" cx="5.297" cy="10.958" rx="2.23" ry="2.236"/>
	<path fill="#8F8F8F" d="M5.99,10.958c0,0.384-0.31,0.695-0.693,0.695c-0.383,0-0.692-0.312-0.692-0.695s0.31-0.695,0.692-0.695
		C5.68,10.262,5.99,10.574,5.99,10.958"/>
	<path fill="#BDBDBD" d="M62.693,15.37c-0.473,0-0.914-0.255-1.15-0.665l-1.797-3.11c-0.236-0.411-0.236-0.919,0-1.329l1.797-3.112
		c0.238-0.41,0.678-0.665,1.15-0.665h3.594c0.473,0,0.914,0.255,1.15,0.665l1.797,3.112c0.234,0.41,0.234,0.918,0,1.329l-1.797,3.11
		c-0.234,0.41-0.678,0.665-1.15,0.665H62.693z"/>
	<path fill="#8F8F8F" d="M66.287,6.864c0.34,0,0.656,0.182,0.826,0.477l1.797,3.112c0.17,0.295,0.17,0.658,0,0.953l-1.797,3.111
		c-0.17,0.296-0.486,0.478-0.826,0.478h-3.594c-0.34,0-0.656-0.182-0.826-0.478l-1.797-3.111c-0.17-0.295-0.17-0.658,0-0.953
		l1.797-3.112c0.17-0.295,0.486-0.477,0.826-0.477H66.287 M66.287,6.114h-3.594c-0.607,0-1.172,0.326-1.477,0.852l-1.795,3.112
		c-0.305,0.525-0.305,1.178,0,1.703l1.795,3.111c0.305,0.526,0.869,0.853,1.477,0.853h3.594c0.607,0,1.172-0.326,1.475-0.853
		l1.797-3.111c0.303-0.525,0.303-1.178,0-1.703l-1.797-3.112C67.458,6.44,66.894,6.114,66.287,6.114"/>
	<path fill="#CECECE" d="M68.099,10.958c0,1.999-1.615,3.62-3.609,3.62s-3.609-1.621-3.609-3.62s1.615-3.62,3.609-3.62
		S68.099,8.958,68.099,10.958"/>
	<ellipse fill="none" stroke="#8F8F8F" stroke-width="0.25" stroke-miterlimit="10" cx="64.49" cy="10.958" rx="3.609" ry="3.62"/>
	<path fill="#414244" d="M66.72,10.958c0,1.235-0.998,2.236-2.23,2.236c-1.23,0-2.23-1.001-2.23-2.236s1-2.236,2.23-2.236
		C65.722,8.721,66.72,9.722,66.72,10.958"/>
	<ellipse fill="none" stroke="#000000" stroke-width="0.25" stroke-miterlimit="10" cx="64.49" cy="10.958" rx="2.23" ry="2.236"/>
	<path fill="#8F8F8F" d="M65.183,10.958c0,0.384-0.311,0.695-0.693,0.695s-0.693-0.312-0.693-0.695s0.311-0.695,0.693-0.695
		S65.183,10.574,65.183,10.958"/>
</g>
</svg>
