<?xml version="1.0" encoding="utf-8"?>
<!-- Generator: Adobe Illustrator 16.0.0, SVG Export Plug-In . SVG Version: 6.00 Build 0)  -->
<!DOCTYPE svg PUBLIC "-//W3C//DTD SVG 1.1//EN" "http://www.w3.org/Graphics/SVG/1.1/DTD/svg11.dtd">
<svg version="1.1" id="图层_1" xmlns="http://www.w3.org/2000/svg" xmlns:xlink="http://www.w3.org/1999/xlink" x="0px" y="0px"
	 width="1275.59px" height="126.14px" viewBox="0 0 1275.59 126.14" enable-background="new 0 0 1275.59 126.14"
	 xml:space="preserve">
<g>
	<linearGradient id="SVGID_1_" gradientUnits="userSpaceOnUse" x1="637.7954" y1="126.1406" x2="637.7954" y2="-4.882813e-004">
		<stop  offset="0" style="stop-color:#A69F92"/>
		<stop  offset="0.0501" style="stop-color:#DFD4C7"/>
		<stop  offset="0.5681" style="stop-color:#CCC2B4"/>
		<stop  offset="0.9265" style="stop-color:#DFD4C7"/>
		<stop  offset="1" style="stop-color:#756C74"/>
	</linearGradient>
	<rect y="-0.001" fill="url(#SVGID_1_)" width="1275.59" height="126.142"/>
	<linearGradient id="SVGID_2_" gradientUnits="userSpaceOnUse" x1="0" y1="63.0698" x2="60.1484" y2="63.0698">
		<stop  offset="0" style="stop-color:#A69F92"/>
		<stop  offset="0.7778" style="stop-color:#A69F92"/>
		<stop  offset="0.8835" style="stop-color:#DFD4C7"/>
		<stop  offset="1" style="stop-color:#756C74"/>
	</linearGradient>
	<rect y="-0.001" fill="url(#SVGID_2_)" width="60.148" height="126.142"/>
	
		<linearGradient id="SVGID_3_" gradientUnits="userSpaceOnUse" x1="-7095.8516" y1="63.0698" x2="-7035.7031" y2="63.0698" gradientTransform="matrix(-1 0 0 1 -5820.2617 0)">
		<stop  offset="0" style="stop-color:#A69F92"/>
		<stop  offset="0.7778" style="stop-color:#A69F92"/>
		<stop  offset="0.8835" style="stop-color:#DFD4C7"/>
		<stop  offset="1" style="stop-color:#756C74"/>
	</linearGradient>
	<rect x="1215.441" y="-0.001" fill="url(#SVGID_3_)" width="60.148" height="126.142"/>
	<g>
		<g>
			<path fill="#B7B6B6" d="M35.128,15.369c0,3.93-3.386,7.118-7.562,7.118H11.25c-4.178,0-7.563-3.188-7.563-7.118l0,0
				c0-3.932,3.386-7.12,7.563-7.12h16.316C31.742,8.249,35.128,11.438,35.128,15.369L35.128,15.369z"/>
			<path fill="#0E0D0D" d="M34.233,15.166c0,3.82-3.29,6.916-7.348,6.916H11.035c-4.058,0-7.349-3.096-7.349-6.916l0,0
				c0-3.821,3.291-6.917,7.349-6.917h15.851C30.943,8.249,34.233,11.345,34.233,15.166L34.233,15.166z"/>
		</g>
		<g>
			<path fill="#B7B6B6" d="M35.128,110.772c0,3.932-3.386,7.119-7.562,7.119H11.25c-4.178,0-7.563-3.188-7.563-7.119l0,0
				c0-3.932,3.386-7.118,7.563-7.118h16.316C31.742,103.654,35.128,106.841,35.128,110.772L35.128,110.772z"/>
			<path fill="#0E0D0D" d="M34.233,110.57c0,3.82-3.29,6.916-7.348,6.916H11.035c-4.058,0-7.349-3.096-7.349-6.916l0,0
				c0-3.82,3.291-6.916,7.349-6.916h15.851C30.943,103.654,34.233,106.75,34.233,110.57L34.233,110.57z"/>
		</g>
	</g>
	<g>
		<g>
			<path fill="#B7B6B6" d="M1238.907,15.369c0,3.93,3.387,7.118,7.562,7.118h16.316c4.175,0,7.563-3.188,7.563-7.118l0,0
				c0-3.932-3.388-7.12-7.563-7.12h-16.316C1242.294,8.249,1238.907,11.438,1238.907,15.369L1238.907,15.369z"/>
			<path fill="#0E0D0D" d="M1239.801,15.166c0,3.82,3.288,6.916,7.348,6.916H1263c4.058,0,7.348-3.096,7.348-6.916l0,0
				c0-3.821-3.29-6.917-7.348-6.917h-15.852C1243.089,8.249,1239.801,11.345,1239.801,15.166L1239.801,15.166z"/>
		</g>
		<g>
			<path fill="#B7B6B6" d="M1238.907,110.772c0,3.932,3.387,7.119,7.562,7.119h16.316c4.175,0,7.563-3.188,7.563-7.119l0,0
				c0-3.932-3.388-7.118-7.563-7.118h-16.316C1242.294,103.654,1238.907,106.841,1238.907,110.772L1238.907,110.772z"/>
			<path fill="#0E0D0D" d="M1239.801,110.57c0,3.82,3.288,6.916,7.348,6.916H1263c4.058,0,7.348-3.096,7.348-6.916l0,0
				c0-3.82-3.29-6.916-7.348-6.916h-15.852C1243.089,103.654,1239.801,106.75,1239.801,110.57L1239.801,110.57z"/>
		</g>
	</g>
	<g>
		<g>
			<path fill="#AFAEAE" d="M1264.893,15.369c0,5.365-4.597,9.716-10.265,9.716c-5.669,0-10.267-4.351-10.267-9.716
				c0-5.367,4.598-9.718,10.267-9.718C1260.296,5.651,1264.893,10.002,1264.893,15.369"/>
			<ellipse fill="none" stroke="#929292" stroke-miterlimit="10" cx="1254.627" cy="15.369" rx="10.266" ry="9.716"/>
			<path fill="#AFAEAE" d="M1262.171,15.369c0,3.941-3.377,7.139-7.543,7.139c-4.168,0-7.544-3.197-7.544-7.139
				c0-3.944,3.376-7.142,7.544-7.142C1258.794,8.228,1262.171,11.425,1262.171,15.369"/>
			<ellipse fill="none" stroke="#929292" stroke-miterlimit="10" cx="1254.627" cy="15.369" rx="7.543" ry="7.139"/>
			<g>
				<g>
					<defs>
						<rect id="SVGID_4_" x="1247.516" y="8.639" width="14.221" height="13.458"/>
					</defs>
					<clipPath id="SVGID_5_">
						<use xlink:href="#SVGID_4_"  overflow="visible"/>
					</clipPath>
					<path clip-path="url(#SVGID_5_)" fill="#BEBEBD" d="M1261.736,15.369c0,3.715-3.184,6.728-7.108,6.728
						c-3.929,0-7.111-3.013-7.111-6.728c0-3.717,3.183-6.73,7.111-6.73C1258.553,8.639,1261.736,11.652,1261.736,15.369"/>
					<path clip-path="url(#SVGID_5_)" fill="#C0C0C0" d="M1261.568,15.369c0,3.626-3.107,6.569-6.94,6.569
						c-3.834,0-6.943-2.943-6.943-6.569c0-3.63,3.109-6.572,6.943-6.572C1258.461,8.797,1261.568,11.739,1261.568,15.369"/>
					<path clip-path="url(#SVGID_5_)" fill="#C2C3C3" d="M1261.401,15.369c0,3.54-3.034,6.412-6.773,6.412
						c-3.743,0-6.776-2.872-6.776-6.412c0-3.542,3.033-6.413,6.776-6.413C1258.367,8.956,1261.401,11.827,1261.401,15.369"/>
					<path clip-path="url(#SVGID_5_)" fill="#C4C5C4" d="M1261.233,15.369c0,3.452-2.956,6.253-6.605,6.253
						c-3.65,0-6.61-2.801-6.61-6.253c0-3.455,2.96-6.254,6.61-6.254C1258.277,9.115,1261.233,11.914,1261.233,15.369"/>
					<path clip-path="url(#SVGID_5_)" fill="#C6C8C8" d="M1261.066,15.369c0,3.364-2.886,6.096-6.438,6.096
						c-3.559,0-6.44-2.731-6.44-6.096c0-3.368,2.882-6.098,6.44-6.098C1258.181,9.271,1261.066,12.001,1261.066,15.369"/>
					<path clip-path="url(#SVGID_5_)" fill="#C9CACB" d="M1260.9,15.369c0,3.277-2.809,5.936-6.272,5.936
						c-3.466,0-6.274-2.658-6.274-5.936c0-3.279,2.809-5.938,6.274-5.938C1258.092,9.431,1260.9,12.09,1260.9,15.369"/>
					<path clip-path="url(#SVGID_5_)" fill="#CBCDCD" d="M1260.733,15.369c0,3.19-2.733,5.779-6.105,5.779
						c-3.373,0-6.107-2.589-6.107-5.779c0-3.193,2.734-5.782,6.107-5.782C1258,9.587,1260.733,12.176,1260.733,15.369"/>
					<path clip-path="url(#SVGID_5_)" fill="#CCCFD0" d="M1260.566,15.369c0,3.103-2.662,5.62-5.938,5.62
						c-3.28,0-5.94-2.518-5.94-5.62c0-3.105,2.66-5.622,5.94-5.622C1257.904,9.747,1260.566,12.264,1260.566,15.369"/>
					<path clip-path="url(#SVGID_5_)" fill="#D0D2D2" d="M1260.398,15.369c0,3.015-2.585,5.461-5.771,5.461
						c-3.188,0-5.772-2.446-5.772-5.461c0-3.019,2.584-5.465,5.772-5.465C1257.813,9.904,1260.398,12.351,1260.398,15.369"/>
					<path clip-path="url(#SVGID_5_)" fill="#D2D4D5" d="M1260.232,15.369c0,2.928-2.51,5.303-5.604,5.303
						c-3.098,0-5.604-2.375-5.604-5.303c0-2.931,2.507-5.306,5.604-5.306C1257.723,10.063,1260.232,12.438,1260.232,15.369"/>
				</g>
			</g>
			<polygon fill="#605F5E" points="1253.698,19.415 1253.698,16.249 1250.352,16.249 1250.352,14.489 1253.698,14.489 
				1253.698,11.322 1255.556,11.322 1255.556,14.489 1258.901,14.489 1258.901,16.249 1255.556,16.249 1255.556,19.415 			"/>
			<path fill="#221714" d="M1255.394,11.475v2.861v0.306h0.322h3.024v1.452h-3.024h-0.322v0.305v2.861h-1.535v-2.861v-0.305h-0.321
				h-3.025v-1.452h3.025h0.321v-0.306v-2.861H1255.394z M1255.716,11.171h-2.179v3.165h-3.346v2.063h3.346v3.167h2.179v-3.167h3.346
				v-2.063h-3.346V11.171z"/>
		</g>
		<g>
			<path fill="#AFAEAE" d="M1264.893,110.774c0,5.364-4.597,9.715-10.265,9.715c-5.669,0-10.267-4.351-10.267-9.715
				c0-5.367,4.598-9.719,10.267-9.719C1260.296,101.056,1264.893,105.407,1264.893,110.774"/>
			<ellipse fill="none" stroke="#929292" stroke-miterlimit="10" cx="1254.627" cy="110.774" rx="10.266" ry="9.715"/>
			<path fill="#AFAEAE" d="M1262.171,110.774c0,3.941-3.377,7.139-7.543,7.139c-4.168,0-7.544-3.197-7.544-7.139
				c0-3.944,3.376-7.142,7.544-7.142C1258.794,103.633,1262.171,106.83,1262.171,110.774"/>
			<ellipse fill="none" stroke="#929292" stroke-miterlimit="10" cx="1254.627" cy="110.774" rx="7.543" ry="7.139"/>
			<g>
				<g>
					<defs>
						<rect id="SVGID_6_" x="1247.516" y="104.043" width="14.221" height="13.458"/>
					</defs>
					<clipPath id="SVGID_7_">
						<use xlink:href="#SVGID_6_"  overflow="visible"/>
					</clipPath>
					<path clip-path="url(#SVGID_7_)" fill="#BEBEBD" d="M1261.736,110.774c0,3.715-3.184,6.727-7.108,6.727
						c-3.929,0-7.111-3.012-7.111-6.727c0-3.717,3.183-6.731,7.111-6.731C1258.553,104.043,1261.736,107.058,1261.736,110.774"/>
					<path clip-path="url(#SVGID_7_)" fill="#C0C0C0" d="M1261.568,110.774c0,3.626-3.107,6.569-6.94,6.569
						c-3.834,0-6.943-2.943-6.943-6.569c0-3.63,3.109-6.572,6.943-6.572C1258.461,104.202,1261.568,107.145,1261.568,110.774"/>
					<path clip-path="url(#SVGID_7_)" fill="#C2C3C3" d="M1261.401,110.774c0,3.539-3.034,6.411-6.773,6.411
						c-3.743,0-6.776-2.872-6.776-6.411c0-3.543,3.033-6.413,6.776-6.413C1258.367,104.361,1261.401,107.231,1261.401,110.774"/>
					<path clip-path="url(#SVGID_7_)" fill="#C4C5C4" d="M1261.233,110.774c0,3.452-2.956,6.253-6.605,6.253
						c-3.65,0-6.61-2.801-6.61-6.253c0-3.455,2.96-6.255,6.61-6.255C1258.277,104.52,1261.233,107.319,1261.233,110.774"/>
					<path clip-path="url(#SVGID_7_)" fill="#C6C8C8" d="M1261.066,110.774c0,3.364-2.886,6.095-6.438,6.095
						c-3.559,0-6.44-2.73-6.44-6.095c0-3.368,2.882-6.098,6.44-6.098C1258.181,104.677,1261.066,107.406,1261.066,110.774"/>
					<path clip-path="url(#SVGID_7_)" fill="#C9CACB" d="M1260.9,110.774c0,3.277-2.809,5.935-6.272,5.935
						c-3.466,0-6.274-2.657-6.274-5.935c0-3.28,2.809-5.938,6.274-5.938C1258.092,104.836,1260.9,107.494,1260.9,110.774"/>
					<path clip-path="url(#SVGID_7_)" fill="#CBCDCD" d="M1260.733,110.774c0,3.189-2.733,5.778-6.105,5.778
						c-3.373,0-6.107-2.589-6.107-5.778c0-3.194,2.734-5.783,6.107-5.783C1258,104.991,1260.733,107.58,1260.733,110.774"/>
					<path clip-path="url(#SVGID_7_)" fill="#CCCFD0" d="M1260.566,110.774c0,3.103-2.662,5.62-5.938,5.62
						c-3.28,0-5.94-2.518-5.94-5.62c0-3.105,2.66-5.623,5.94-5.623C1257.904,105.151,1260.566,107.669,1260.566,110.774"/>
					<path clip-path="url(#SVGID_7_)" fill="#D0D2D2" d="M1260.398,110.774c0,3.015-2.585,5.461-5.771,5.461
						c-3.188,0-5.772-2.446-5.772-5.461c0-3.02,2.584-5.465,5.772-5.465C1257.813,105.31,1260.398,107.755,1260.398,110.774"/>
					<path clip-path="url(#SVGID_7_)" fill="#D2D4D5" d="M1260.232,110.774c0,2.927-2.51,5.302-5.604,5.302
						c-3.098,0-5.604-2.375-5.604-5.302c0-2.931,2.507-5.305,5.604-5.305C1257.723,105.47,1260.232,107.844,1260.232,110.774"/>
				</g>
			</g>
			<polygon fill="#605F5E" points="1253.698,114.819 1253.698,111.653 1250.352,111.653 1250.352,109.894 1253.698,109.894 
				1253.698,106.728 1255.556,106.728 1255.556,109.894 1258.901,109.894 1258.901,111.653 1255.556,111.653 1255.556,114.819 			
				"/>
			<path fill="#221714" d="M1255.394,106.88v2.86v0.306h0.322h3.024v1.453h-3.024h-0.322v0.305v2.861h-1.535v-2.861v-0.305h-0.321
				h-3.025v-1.453h3.025h0.321v-0.306v-2.86H1255.394z M1255.716,106.574h-2.179v3.166h-3.346v2.063h3.346v3.166h2.179v-3.166h3.346
				v-2.063h-3.346V106.574z"/>
		</g>
	</g>
	<g>
		<path fill="#AFAEAE" d="M28.673,14.428c0,5.365-4.595,9.716-10.266,9.716c-5.669,0-10.266-4.351-10.266-9.716
			c0-5.368,4.597-9.718,10.266-9.718C24.078,4.71,28.673,9.06,28.673,14.428"/>
		<ellipse fill="none" stroke="#929292" stroke-miterlimit="10" cx="18.407" cy="14.428" rx="10.266" ry="9.716"/>
		<path fill="#AFAEAE" d="M25.951,14.428c0,3.94-3.378,7.138-7.544,7.138c-4.165,0-7.545-3.197-7.545-7.138
			c0-3.945,3.38-7.143,7.545-7.143C22.573,7.285,25.951,10.482,25.951,14.428"/>
		<path fill="none" stroke="#929292" stroke-miterlimit="10" d="M25.951,14.428c0,3.94-3.378,7.138-7.544,7.138
			c-4.165,0-7.545-3.197-7.545-7.138c0-3.945,3.38-7.143,7.545-7.143C22.573,7.285,25.951,10.482,25.951,14.428z"/>
		<g>
			<g>
				<defs>
					<rect id="SVGID_8_" x="11.296" y="7.697" width="14.222" height="13.457"/>
				</defs>
				<clipPath id="SVGID_9_">
					<use xlink:href="#SVGID_8_"  overflow="visible"/>
				</clipPath>
				<path clip-path="url(#SVGID_9_)" fill="#BEBEBD" d="M25.517,14.428c0,3.715-3.183,6.727-7.109,6.727s-7.111-3.012-7.111-6.727
					c0-3.717,3.185-6.73,7.111-6.73S25.517,10.711,25.517,14.428"/>
				<path clip-path="url(#SVGID_9_)" fill="#C0C0C0" d="M25.35,14.428c0,3.626-3.109,6.568-6.942,6.568
					c-3.834,0-6.942-2.942-6.942-6.568c0-3.631,3.108-6.572,6.942-6.572C22.24,7.855,25.35,10.797,25.35,14.428"/>
				<path clip-path="url(#SVGID_9_)" fill="#C2C3C3" d="M25.182,14.428c0,3.539-3.034,6.412-6.774,6.412
					c-3.741,0-6.774-2.873-6.774-6.412c0-3.542,3.033-6.414,6.774-6.414C22.147,8.014,25.182,10.886,25.182,14.428"/>
				<path clip-path="url(#SVGID_9_)" fill="#C4C5C4" d="M25.013,14.428c0,3.452-2.955,6.252-6.605,6.252
					c-3.649,0-6.608-2.8-6.608-6.252c0-3.455,2.959-6.255,6.608-6.255C22.058,8.173,25.013,10.973,25.013,14.428"/>
				<path clip-path="url(#SVGID_9_)" fill="#C6C8C8" d="M24.847,14.428c0,3.363-2.886,6.094-6.439,6.094
					c-3.558,0-6.441-2.73-6.441-6.094c0-3.367,2.884-6.098,6.441-6.098C21.961,8.33,24.847,11.061,24.847,14.428"/>
				<path clip-path="url(#SVGID_9_)" fill="#C9CACB" d="M24.678,14.428c0,3.277-2.807,5.936-6.271,5.936s-6.273-2.658-6.273-5.936
					c0-3.281,2.81-5.939,6.273-5.939S24.678,11.146,24.678,14.428"/>
				<path clip-path="url(#SVGID_9_)" fill="#CBCDCD" d="M24.513,14.428c0,3.189-2.734,5.778-6.105,5.778
					c-3.372,0-6.106-2.589-6.106-5.778c0-3.193,2.734-5.781,6.106-5.781C21.778,8.646,24.513,11.234,24.513,14.428"/>
				<path clip-path="url(#SVGID_9_)" fill="#CCCFD0" d="M24.348,14.428c0,3.103-2.662,5.619-5.94,5.619
					c-3.279,0-5.938-2.517-5.938-5.619c0-3.106,2.659-5.622,5.938-5.622C21.686,8.806,24.348,11.321,24.348,14.428"/>
				<path clip-path="url(#SVGID_9_)" fill="#D0D2D2" d="M24.18,14.428c0,3.015-2.584,5.461-5.772,5.461
					c-3.188,0-5.771-2.446-5.771-5.461c0-3.019,2.583-5.466,5.771-5.466C21.596,8.962,24.18,11.409,24.18,14.428"/>
				<path clip-path="url(#SVGID_9_)" fill="#D2D4D5" d="M24.013,14.428c0,2.928-2.51,5.303-5.605,5.303
					c-3.097,0-5.605-2.375-5.605-5.303c0-2.932,2.509-5.306,5.605-5.306C21.503,9.122,24.013,11.496,24.013,14.428"/>
			</g>
		</g>
		<polygon fill="#605F5E" points="17.478,18.474 17.478,15.306 14.133,15.306 14.133,13.548 17.478,13.548 17.478,10.38 
			19.336,10.38 19.336,13.548 22.682,13.548 22.682,15.306 19.336,15.306 19.336,18.474 		"/>
		<path fill="#221714" d="M19.176,10.532v2.861V13.7h0.319h3.026v1.452h-3.026h-0.319v0.304v2.862h-1.537v-2.862v-0.304h-0.32
			h-3.025V13.7h3.025h0.32v-0.307v-2.861H19.176z M19.495,10.23h-2.177v3.163h-3.346v2.063h3.346v3.168h2.177v-3.168h3.347v-2.063
			h-3.347V10.23z"/>
	</g>
	<g>
		<path fill="#AFAEAE" d="M28.673,109.832c0,5.365-4.595,9.716-10.266,9.716c-5.669,0-10.266-4.351-10.266-9.716
			c0-5.367,4.597-9.718,10.266-9.718C24.078,100.114,28.673,104.465,28.673,109.832"/>
		<ellipse fill="none" stroke="#929292" stroke-miterlimit="10" cx="18.407" cy="109.832" rx="10.266" ry="9.716"/>
		<path fill="#AFAEAE" d="M25.951,109.832c0,3.941-3.378,7.14-7.544,7.14c-4.165,0-7.545-3.198-7.545-7.14
			c0-3.944,3.38-7.142,7.545-7.142C22.573,102.69,25.951,105.888,25.951,109.832"/>
		<ellipse fill="none" stroke="#929292" stroke-miterlimit="10" cx="18.407" cy="109.832" rx="7.544" ry="7.14"/>
		<g>
			<g>
				<defs>
					<rect id="SVGID_10_" x="11.296" y="103.102" width="14.222" height="13.458"/>
				</defs>
				<clipPath id="SVGID_11_">
					<use xlink:href="#SVGID_10_"  overflow="visible"/>
				</clipPath>
				<path clip-path="url(#SVGID_11_)" fill="#BEBEBD" d="M25.517,109.832c0,3.715-3.183,6.728-7.109,6.728s-7.111-3.013-7.111-6.728
					c0-3.717,3.185-6.73,7.111-6.73S25.517,106.115,25.517,109.832"/>
				<path clip-path="url(#SVGID_11_)" fill="#C0C0C0" d="M25.35,109.832c0,3.626-3.109,6.569-6.942,6.569
					c-3.834,0-6.942-2.943-6.942-6.569c0-3.63,3.108-6.572,6.942-6.572C22.24,103.26,25.35,106.202,25.35,109.832"/>
				<path clip-path="url(#SVGID_11_)" fill="#C2C3C3" d="M25.182,109.832c0,3.54-3.034,6.412-6.774,6.412
					c-3.741,0-6.774-2.872-6.774-6.412c0-3.542,3.033-6.413,6.774-6.413C22.147,103.419,25.182,106.29,25.182,109.832"/>
				<path clip-path="url(#SVGID_11_)" fill="#C4C5C4" d="M25.013,109.832c0,3.453-2.955,6.253-6.605,6.253
					c-3.649,0-6.608-2.8-6.608-6.253c0-3.455,2.959-6.254,6.608-6.254C22.058,103.578,25.013,106.377,25.013,109.832"/>
				<path clip-path="url(#SVGID_11_)" fill="#C6C8C8" d="M24.847,109.832c0,3.364-2.886,6.095-6.439,6.095
					c-3.558,0-6.441-2.73-6.441-6.095c0-3.368,2.884-6.097,6.441-6.097C21.961,103.735,24.847,106.464,24.847,109.832"/>
				<path clip-path="url(#SVGID_11_)" fill="#C9CACB" d="M24.678,109.832c0,3.278-2.807,5.936-6.271,5.936s-6.273-2.657-6.273-5.936
					c0-3.28,2.81-5.938,6.273-5.938S24.678,106.552,24.678,109.832"/>
				<path clip-path="url(#SVGID_11_)" fill="#CBCDCD" d="M24.513,109.832c0,3.19-2.734,5.779-6.105,5.779
					c-3.372,0-6.106-2.589-6.106-5.779c0-3.193,2.734-5.782,6.106-5.782C21.778,104.05,24.513,106.639,24.513,109.832"/>
				<path clip-path="url(#SVGID_11_)" fill="#CCCFD0" d="M24.348,109.832c0,3.103-2.662,5.62-5.94,5.62
					c-3.279,0-5.938-2.518-5.938-5.62c0-3.105,2.659-5.622,5.938-5.622C21.686,104.21,24.348,106.727,24.348,109.832"/>
				<path clip-path="url(#SVGID_11_)" fill="#D0D2D2" d="M24.18,109.832c0,3.015-2.584,5.462-5.772,5.462
					c-3.188,0-5.771-2.447-5.771-5.462c0-3.019,2.583-5.465,5.771-5.465C21.596,104.367,24.18,106.813,24.18,109.832"/>
				<path clip-path="url(#SVGID_11_)" fill="#D2D4D5" d="M24.013,109.832c0,2.928-2.51,5.303-5.605,5.303
					c-3.097,0-5.605-2.375-5.605-5.303c0-2.931,2.509-5.306,5.605-5.306C21.503,104.526,24.013,106.901,24.013,109.832"/>
			</g>
		</g>
		<polygon fill="#605F5E" points="17.478,113.878 17.478,110.711 14.133,110.711 14.133,108.952 17.478,108.952 17.478,105.785 
			19.336,105.785 19.336,108.952 22.682,108.952 22.682,110.711 19.336,110.711 19.336,113.878 		"/>
		<path fill="#221714" d="M19.176,105.938v2.861v0.306h0.319h3.026v1.452h-3.026h-0.319v0.305v2.861h-1.537v-2.861v-0.305h-0.32
			h-3.025v-1.452h3.025h0.32v-0.306v-2.861H19.176z M19.495,105.634h-2.177v3.165h-3.346v2.063h3.346v3.167h2.177v-3.167h3.347
			v-2.063h-3.347V105.634z"/>
	</g>
	
		<ellipse fill="none" stroke="#CDCECD" stroke-width="3" stroke-miterlimit="10" cx="1133.122" cy="63.07" rx="29.316" ry="17.886"/>
	<text transform="matrix(1.0623 0 0 1 1098.6953 106.2666)" fill="#CCCDCD" font-family="'SimHei'" font-size="22.2509">KYSTAR</text>
	<g>
		<polygon fill="#CCCDCD" points="1113.579,72.503 1123.773,53.072 1120.206,74.783 		"/>
		<polygon fill="#CCCDCD" points="1124.411,62.429 1141.612,50.314 1148.875,50.314 		"/>
		<polygon fill="#CCCDCD" points="1131.673,60.51 1131.673,75.263 1141.102,75.863 		"/>
	</g>
	<path fill="#494743" d="M60.148,10.156c0,0,11.477,3.333,37.112,62c0,0,13.46,20,32.688,20.667h98.063
		c0,0,23.714-1.334,35.251-12.667l63.452-59.333c0,0,11.537-11.999,54.479-11.333l800.523-1c0,0,27.56-3.334,23.714,13.333
		l-18.587,80c0,0,0.642,13.333-18.586,13.333l-873.59,1l-234.52-1.333V10.156z"/>
	<path fill="#9F9A91" d="M60.148,13.156c0,0,11.477,3.333,37.112,62c0,0,13.46,20,32.688,20.667h98.063
		c0,0,23.714-1.334,35.251-12.667l63.452-59.333c0,0,11.537-11.999,54.479-11.333l800.523-1c0,0,27.56-3.334,23.714,13.333
		l-18.587,80c0,0,0.642,13.333-18.586,13.333l-873.59,1l-234.52-1.333V13.156z"/>
	<linearGradient id="SVGID_12_" gradientUnits="userSpaceOnUse" x1="820.0576" y1="109.8301" x2="820.0576" y2="19.4165">
		<stop  offset="0" style="stop-color:#A69F92"/>
		<stop  offset="0.0501" style="stop-color:#DFD4C7"/>
		<stop  offset="0.5681" style="stop-color:#CCC2B4"/>
		<stop  offset="0.9265" style="stop-color:#DFD4C7"/>
		<stop  offset="1" style="stop-color:#756C74"/>
	</linearGradient>
	<path fill="url(#SVGID_12_)" d="M993.058,105.83c0,2.209-1.791,4-4,4h-338c-2.209,0-4-1.791-4-4V23.416c0-2.209,1.791-4,4-4h338
		c2.209,0,4,1.791,4,4V105.83z"/>
	<path fill="#272522" d="M876.058,96.114c0,2.209-1.791,4-4,4h-199c-2.209,0-4-1.791-4-4V35.417c0-2.209,1.791-4,4-4h199
		c2.209,0,4,1.791,4,4V96.114z"/>
	<g>
		<path fill="#424142" d="M1098.694,41.877c12.181,0,22.051,9.874,22.051,22.051c0,12.178-9.87,22.052-22.051,22.052
			c-12.178,0-22.05-9.874-22.05-22.052C1076.645,51.751,1086.517,41.877,1098.694,41.877"/>
		<g>
			<defs>
				<path id="SVGID_13_" d="M1077.166,63.928c0,11.89,9.64,21.529,21.529,21.529s21.528-9.64,21.528-21.529
					s-9.639-21.529-21.528-21.529S1077.166,52.038,1077.166,63.928"/>
			</defs>
			<clipPath id="SVGID_14_">
				<use xlink:href="#SVGID_13_"  overflow="visible"/>
			</clipPath>
			
				<linearGradient id="SVGID_15_" gradientUnits="userSpaceOnUse" x1="-73.3525" y1="400.9307" x2="-72.4842" y2="400.9307" gradientTransform="matrix(0 -49.5304 49.5304 0 -18759.5625 -3547.6875)">
				<stop  offset="0" style="stop-color:#CBCCCC"/>
				<stop  offset="0.0623" style="stop-color:#C6C5C6"/>
				<stop  offset="0.1438" style="stop-color:#B6B5B5"/>
				<stop  offset="0.236" style="stop-color:#9A999A"/>
				<stop  offset="0.336" style="stop-color:#747575"/>
				<stop  offset="0.4413" style="stop-color:#454545"/>
				<stop  offset="0.4771" style="stop-color:#323333"/>
				<stop  offset="0.5163" style="stop-color:#454545"/>
				<stop  offset="0.6317" style="stop-color:#747575"/>
				<stop  offset="0.7414" style="stop-color:#9A999A"/>
				<stop  offset="0.8424" style="stop-color:#B6B5B5"/>
				<stop  offset="0.9317" style="stop-color:#C6C5C6"/>
				<stop  offset="1" style="stop-color:#CBCCCC"/>
			</linearGradient>
			<rect x="1077.166" y="42.398" clip-path="url(#SVGID_14_)" fill="url(#SVGID_15_)" width="43.058" height="43.059"/>
		</g>
		<path fill="#666666" d="M1098.694,44.569c10.692,0,19.359,8.666,19.359,19.358s-8.667,19.359-19.359,19.359
			c-10.691,0-19.358-8.667-19.358-19.359S1088.003,44.569,1098.694,44.569"/>
		<g>
			<defs>
				<path id="SVGID_16_" d="M1079.943,63.928c0,10.356,8.395,18.751,18.752,18.751c10.354,0,18.751-8.395,18.751-18.751
					s-8.396-18.75-18.751-18.75C1088.338,45.178,1079.943,53.571,1079.943,63.928"/>
			</defs>
			<clipPath id="SVGID_17_">
				<use xlink:href="#SVGID_16_"  overflow="visible"/>
			</clipPath>
			
				<linearGradient id="SVGID_18_" gradientUnits="userSpaceOnUse" x1="-139.0015" y1="230.9209" x2="-138.1333" y2="230.9209" gradientTransform="matrix(43.2 0 0 43.2 7084.8438 -9911.875)">
				<stop  offset="0" style="stop-color:#3190C0"/>
				<stop  offset="1" style="stop-color:#235F9C"/>
			</linearGradient>
			<rect x="1079.943" y="45.178" clip-path="url(#SVGID_17_)" fill="url(#SVGID_18_)" width="37.503" height="37.501"/>
		</g>
		<g>
			<defs>
				<path id="SVGID_19_" d="M1082.981,63.928c0,8.679,7.036,15.713,15.714,15.713c8.68,0,15.713-7.034,15.713-15.713
					c0-8.678-7.033-15.712-15.713-15.712C1090.018,48.216,1082.981,55.25,1082.981,63.928"/>
			</defs>
			<clipPath id="SVGID_20_">
				<use xlink:href="#SVGID_19_"  overflow="visible"/>
			</clipPath>
			
				<linearGradient id="SVGID_21_" gradientUnits="userSpaceOnUse" x1="-339.9741" y1="303.9941" x2="-339.106" y2="303.9941" gradientTransform="matrix(0 36.2 -36.2 0 12103.3438 12355.2656)">
				<stop  offset="0" style="stop-color:#D9D8D9"/>
				<stop  offset="0.394" style="stop-color:#D6D6D6"/>
				<stop  offset="0.6019" style="stop-color:#CECECF"/>
				<stop  offset="0.7662" style="stop-color:#C0C0C0"/>
				<stop  offset="0.907" style="stop-color:#ADADAC"/>
				<stop  offset="1" style="stop-color:#9D9C9C"/>
			</linearGradient>
			<rect x="1082.981" y="48.216" clip-path="url(#SVGID_20_)" fill="url(#SVGID_21_)" width="31.427" height="31.425"/>
		</g>
		<g>
			<defs>
				<path id="SVGID_22_" d="M1101.126,59.413c2.344,0.957,4.08,3.299,4.08,5.991c0,3.559-2.865,6.511-6.511,6.511
					c-3.647,0-6.425-2.864-6.425-6.511c0-2.692,1.65-5.034,4.081-5.991v-1.909c-3.387,1.042-5.904,4.168-5.904,7.9
					c0,4.601,3.733,8.333,8.335,8.333c4.601,0,8.333-3.732,8.333-8.333c-0.087-3.732-2.604-6.858-5.989-7.9V59.413z"/>
			</defs>
			<clipPath id="SVGID_23_">
				<use xlink:href="#SVGID_22_"  overflow="visible"/>
			</clipPath>
			
				<linearGradient id="SVGID_24_" gradientUnits="userSpaceOnUse" x1="-76.856" y1="59.9697" x2="-75.9878" y2="59.9697" gradientTransform="matrix(18.5862 0 0 18.5862 2519.0781 -1048.9688)">
				<stop  offset="0" style="stop-color:#3190C0"/>
				<stop  offset="1" style="stop-color:#235F9C"/>
			</linearGradient>
			<rect x="1090.447" y="57.504" clip-path="url(#SVGID_23_)" fill="url(#SVGID_24_)" width="16.668" height="16.233"/>
		</g>
		<g>
			<defs>
				<rect id="SVGID_25_" x="1097.393" y="54.205" width="2.691" height="7.639"/>
			</defs>
			<clipPath id="SVGID_26_">
				<use xlink:href="#SVGID_25_"  overflow="visible"/>
			</clipPath>
			
				<linearGradient id="SVGID_27_" gradientUnits="userSpaceOnUse" x1="-76.854" y1="60.0313" x2="-75.9885" y2="60.0313" gradientTransform="matrix(18.5862 0 0 18.5862 2519.0781 -1057.7188)">
				<stop  offset="0" style="stop-color:#3190C0"/>
				<stop  offset="1" style="stop-color:#235F9C"/>
			</linearGradient>
			<rect x="1097.393" y="54.205" clip-path="url(#SVGID_26_)" fill="url(#SVGID_27_)" width="2.691" height="7.639"/>
		</g>
	</g>
</g>
</svg>
