<?xml version="1.0" encoding="utf-8"?>
<!-- Generator: Adobe Illustrator 16.0.0, SVG Export Plug-In . SVG Version: 6.00 Build 0)  -->
<!DOCTYPE svg PUBLIC "-//W3C//DTD SVG 1.1//EN" "http://www.w3.org/Graphics/SVG/1.1/DTD/svg11.dtd">
<svg version="1.1" id="图层_1" xmlns="http://www.w3.org/2000/svg" xmlns:xlink="http://www.w3.org/1999/xlink" x="0px" y="0px"
	 width="1275.59px" height="126.14px" viewBox="0 0 1275.59 126.14" enable-background="new 0 0 1275.59 126.14"
	 xml:space="preserve">
<rect x="0.001" y="-0.001" fill="#D5D4D3" width="1275.591" height="126.143"/>
<rect x="966.485" y="67.836" fill="#D0C5B2" stroke="#7A7977" stroke-miterlimit="10" width="280.205" height="40.494"/>
<rect x="875.766" y="-0.002" fill="#626363" width="3.176" height="124.832"/>
<rect x="877.351" y="-0.002" fill="#181818" width="1.588" height="124.831"/>
<rect x="9.865" y="4.691" fill="#0E0E0E" width="425.436" height="2.835"/>
<rect x="9.865" y="118.009" fill="#0E0E0E" width="425.436" height="2.835"/>
<g>
	<path fill="#AFAEAE" d="M142.314,17.855c0,5.365-4.595,9.716-10.266,9.716c-5.669,0-10.266-4.351-10.266-9.716
		c0-5.367,4.597-9.718,10.266-9.718C137.72,8.138,142.314,12.488,142.314,17.855"/>
	<ellipse fill="none" stroke="#929292" stroke-miterlimit="10" cx="132.049" cy="17.855" rx="10.266" ry="9.716"/>
	<path fill="#AFAEAE" d="M139.593,17.855c0,3.941-3.378,7.14-7.544,7.14c-4.165,0-7.545-3.198-7.545-7.14
		c0-3.944,3.38-7.142,7.545-7.142C136.215,10.714,139.593,13.911,139.593,17.855"/>
	<ellipse fill="none" stroke="#929292" stroke-miterlimit="10" cx="132.048" cy="17.855" rx="7.544" ry="7.14"/>
	<g>
		<g>
			<defs>
				<rect id="SVGID_1_" x="124.938" y="11.125" width="14.222" height="13.458"/>
			</defs>
			<clipPath id="SVGID_2_">
				<use xlink:href="#SVGID_1_"  overflow="visible"/>
			</clipPath>
			<path clip-path="url(#SVGID_2_)" fill="#BEBEBD" d="M139.158,17.855c0,3.715-3.183,6.728-7.109,6.728s-7.111-3.013-7.111-6.728
				c0-3.717,3.185-6.73,7.111-6.73S139.158,14.139,139.158,17.855"/>
			<path clip-path="url(#SVGID_2_)" fill="#C0C0C0" d="M138.991,17.855c0,3.626-3.108,6.569-6.942,6.569s-6.942-2.943-6.942-6.569
				c0-3.63,3.108-6.572,6.942-6.572S138.991,14.226,138.991,17.855"/>
			<path clip-path="url(#SVGID_2_)" fill="#C2C3C3" d="M138.823,17.855c0,3.54-3.033,6.412-6.774,6.412s-6.773-2.872-6.773-6.412
				c0-3.542,3.032-6.413,6.773-6.413S138.823,14.313,138.823,17.855"/>
			<path clip-path="url(#SVGID_2_)" fill="#C4C5C4" d="M138.654,17.855c0,3.453-2.955,6.253-6.605,6.253
				c-3.648,0-6.606-2.8-6.606-6.253c0-3.455,2.958-6.254,6.606-6.254C135.699,11.602,138.654,14.4,138.654,17.855"/>
			<path clip-path="url(#SVGID_2_)" fill="#C6C8C8" d="M138.489,17.855c0,3.364-2.885,6.095-6.44,6.095
				c-3.558,0-6.439-2.73-6.439-6.095c0-3.368,2.882-6.097,6.439-6.097C135.604,11.759,138.489,14.487,138.489,17.855"/>
			<path clip-path="url(#SVGID_2_)" fill="#C9CACB" d="M138.321,17.855c0,3.278-2.809,5.936-6.272,5.936s-6.272-2.657-6.272-5.936
				c0-3.28,2.809-5.938,6.272-5.938S138.321,14.575,138.321,17.855"/>
			<path clip-path="url(#SVGID_2_)" fill="#CBCDCD" d="M138.154,17.855c0,3.19-2.734,5.779-6.105,5.779
				c-3.372,0-6.106-2.589-6.106-5.779c0-3.193,2.734-5.782,6.106-5.782C135.42,12.073,138.154,14.662,138.154,17.855"/>
			<path clip-path="url(#SVGID_2_)" fill="#CCCFD0" d="M137.989,17.855c0,3.103-2.662,5.62-5.94,5.62
				c-3.279,0-5.938-2.518-5.938-5.62c0-3.105,2.659-5.622,5.938-5.622C135.327,12.233,137.989,14.75,137.989,17.855"/>
			<path clip-path="url(#SVGID_2_)" fill="#D0D2D2" d="M137.821,17.855c0,3.015-2.584,5.462-5.772,5.462
				c-3.188,0-5.771-2.447-5.771-5.462c0-3.019,2.583-5.465,5.771-5.465C135.237,12.391,137.821,14.837,137.821,17.855"/>
			<path clip-path="url(#SVGID_2_)" fill="#D2D4D5" d="M137.654,17.855c0,2.928-2.51,5.303-5.605,5.303s-5.604-2.375-5.604-5.303
				c0-2.931,2.509-5.306,5.604-5.306S137.654,14.925,137.654,17.855"/>
		</g>
	</g>
	<polygon fill="#605F5E" points="131.119,21.901 131.119,18.734 127.775,18.734 127.775,16.976 131.119,16.976 131.119,13.809 
		132.978,13.809 132.978,16.976 136.323,16.976 136.323,18.734 132.978,18.734 132.978,21.901 	"/>
	<path fill="#221714" d="M132.817,13.961v2.861v0.306h0.319h3.026v1.452h-3.026h-0.319v0.305v2.861h-1.536v-2.861V18.58h-0.321
		h-3.025v-1.452h3.025h0.321v-0.306v-2.861H132.817z M133.137,13.657h-2.177v3.165h-3.346v2.063h3.346v3.167h2.177v-3.167h3.348
		v-2.063h-3.348V13.657z"/>
</g>
<g>
	<path fill="#AFAEAE" d="M142.313,107.017c0,5.365-4.595,9.716-10.266,9.716c-5.669,0-10.266-4.351-10.266-9.716
		c0-5.367,4.597-9.718,10.266-9.718C137.719,97.299,142.313,101.649,142.313,107.017"/>
	<ellipse fill="none" stroke="#929292" stroke-miterlimit="10" cx="132.048" cy="107.017" rx="10.266" ry="9.716"/>
	<path fill="#AFAEAE" d="M139.592,107.017c0,3.941-3.378,7.14-7.544,7.14c-4.165,0-7.545-3.198-7.545-7.14
		c0-3.944,3.38-7.142,7.545-7.142C136.214,99.875,139.592,103.072,139.592,107.017"/>
	<ellipse fill="none" stroke="#929292" stroke-miterlimit="10" cx="132.047" cy="107.017" rx="7.544" ry="7.14"/>
	<g>
		<g>
			<defs>
				<rect id="SVGID_3_" x="124.937" y="100.286" width="14.222" height="13.458"/>
			</defs>
			<clipPath id="SVGID_4_">
				<use xlink:href="#SVGID_3_"  overflow="visible"/>
			</clipPath>
			<path clip-path="url(#SVGID_4_)" fill="#BEBEBD" d="M139.157,107.017c0,3.715-3.183,6.728-7.109,6.728s-7.111-3.013-7.111-6.728
				c0-3.717,3.185-6.73,7.111-6.73S139.157,103.3,139.157,107.017"/>
			<path clip-path="url(#SVGID_4_)" fill="#C0C0C0" d="M138.99,107.017c0,3.626-3.108,6.569-6.942,6.569s-6.942-2.943-6.942-6.569
				c0-3.63,3.108-6.572,6.942-6.572S138.99,103.387,138.99,107.017"/>
			<path clip-path="url(#SVGID_4_)" fill="#C2C3C3" d="M138.822,107.017c0,3.54-3.033,6.412-6.774,6.412s-6.774-2.872-6.774-6.412
				c0-3.542,3.033-6.413,6.774-6.413S138.822,103.475,138.822,107.017"/>
			<path clip-path="url(#SVGID_4_)" fill="#C4C5C4" d="M138.653,107.017c0,3.453-2.955,6.253-6.605,6.253
				c-3.649,0-6.608-2.8-6.608-6.253c0-3.455,2.959-6.254,6.608-6.254C135.698,100.763,138.653,103.562,138.653,107.017"/>
			<path clip-path="url(#SVGID_4_)" fill="#C6C8C8" d="M138.488,107.017c0,3.364-2.885,6.095-6.44,6.095
				c-3.558,0-6.438-2.73-6.438-6.095c0-3.368,2.881-6.097,6.438-6.097C135.604,100.92,138.488,103.648,138.488,107.017"/>
			<path clip-path="url(#SVGID_4_)" fill="#C9CACB" d="M138.32,107.017c0,3.278-2.809,5.936-6.272,5.936s-6.272-2.657-6.272-5.936
				c0-3.28,2.809-5.938,6.272-5.938S138.32,103.736,138.32,107.017"/>
			<path clip-path="url(#SVGID_4_)" fill="#CBCDCD" d="M138.153,107.017c0,3.19-2.734,5.779-6.105,5.779
				c-3.372,0-6.105-2.589-6.105-5.779c0-3.193,2.733-5.782,6.105-5.782C135.419,101.234,138.153,103.823,138.153,107.017"/>
			<path clip-path="url(#SVGID_4_)" fill="#CCCFD0" d="M137.988,107.017c0,3.103-2.662,5.62-5.94,5.62
				c-3.279,0-5.938-2.518-5.938-5.62c0-3.105,2.659-5.622,5.938-5.622C135.326,101.395,137.988,103.911,137.988,107.017"/>
			<path clip-path="url(#SVGID_4_)" fill="#D0D2D2" d="M137.82,107.017c0,3.015-2.584,5.462-5.772,5.462
				c-3.188,0-5.771-2.447-5.771-5.462c0-3.019,2.583-5.465,5.771-5.465C135.236,101.552,137.82,103.998,137.82,107.017"/>
			<path clip-path="url(#SVGID_4_)" fill="#D2D4D5" d="M137.653,107.017c0,2.928-2.51,5.303-5.605,5.303s-5.604-2.375-5.604-5.303
				c0-2.931,2.509-5.306,5.604-5.306S137.653,104.086,137.653,107.017"/>
		</g>
	</g>
	<polygon fill="#605F5E" points="131.118,111.063 131.118,107.896 127.773,107.896 127.773,106.137 131.118,106.137 131.118,102.97 
		132.977,102.97 132.977,106.137 136.322,106.137 136.322,107.896 132.977,107.896 132.977,111.063 	"/>
	<path fill="#221714" d="M132.816,103.122v2.861v0.306h0.319h3.026v1.452h-3.026h-0.319v0.305v2.861h-1.536v-2.861v-0.305h-0.321
		h-3.025v-1.452h3.025h0.321v-0.306v-2.861H132.816z M133.136,102.818h-2.177v3.165h-3.346v2.063h3.346v3.167h2.177v-3.167h3.349
		v-2.063h-3.349V102.818z"/>
</g>
<path fill="#181818" d="M119.734,114.003c0,2.209-1.792,4-4,4H13.865c-2.209,0-4-1.791-4-4V12.138c0-2.209,1.791-4,4-4h101.869
	c2.208,0,4,1.791,4,4V114.003z"/>
<linearGradient id="SVGID_5_" gradientUnits="userSpaceOnUse" x1="13.9434" y1="63.0703" x2="115.6533" y2="63.0703">
	<stop  offset="0" style="stop-color:#BEBDBE"/>
	<stop  offset="0.2151" style="stop-color:#E0E0DF"/>
	<stop  offset="0.5323" style="stop-color:#C1C0C0"/>
	<stop  offset="0.8065" style="stop-color:#E0E0DF"/>
	<stop  offset="0.9871" style="stop-color:#B1B4B5"/>
</linearGradient>
<circle fill="url(#SVGID_5_)" cx="64.798" cy="63.07" r="50.855"/>
<g>
	<g>
		<path fill="#030000" d="M103.773,61.231c-2.301,0-4.283-1.733-4.545-4.072C97.587,42.376,86.178,30.48,71.481,28.228
			c-2.497-0.382-4.216-2.722-3.83-5.22c0.38-2.499,2.719-4.207,5.219-3.829c18.783,2.88,33.364,18.081,35.461,36.968
			c0.278,2.514-1.532,4.778-4.047,5.055C104.112,61.223,103.943,61.231,103.773,61.231z"/>
	</g>
	<g>
		<path fill="#030000" d="M25.825,61.231c2.302,0,4.285-1.733,4.543-4.072c1.641-14.783,13.051-26.679,27.749-28.932
			c2.5-0.382,4.216-2.722,3.831-5.22c-0.385-2.499-2.72-4.207-5.22-3.829c-18.782,2.88-33.364,18.081-35.462,36.968
			c-0.278,2.514,1.533,4.778,4.048,5.055C25.484,61.223,25.656,61.231,25.825,61.231z"/>
	</g>
	<g>
		<path fill="#030000" d="M103.773,64.909c-2.301,0-4.283,1.729-4.545,4.072c-1.642,14.78-13.051,26.679-27.747,28.933
			c-2.497,0.383-4.216,2.721-3.83,5.219c0.38,2.496,2.719,4.207,5.219,3.831c18.783-2.881,33.364-18.083,35.461-36.971
			c0.278-2.511-1.532-4.775-4.047-5.057C104.112,64.917,103.943,64.909,103.773,64.909z"/>
	</g>
	<g>
		<path fill="#030000" d="M25.825,64.909c2.302,0,4.285,1.729,4.543,4.072c1.641,14.78,13.051,26.679,27.749,28.933
			c2.5,0.383,4.216,2.721,3.831,5.219c-0.385,2.496-2.72,4.207-5.22,3.831c-18.782-2.881-33.364-18.083-35.462-36.971
			c-0.278-2.511,1.533-4.775,4.048-5.057C25.484,64.917,25.656,64.909,25.825,64.909z"/>
	</g>
</g>
<linearGradient id="SVGID_6_" gradientUnits="userSpaceOnUse" x1="194.7344" y1="73.5459" x2="216.6328" y2="73.5459">
	<stop  offset="0" style="stop-color:#A69F92"/>
	<stop  offset="0.7778" style="stop-color:#A69F92"/>
	<stop  offset="0.8835" style="stop-color:#DFD4C7"/>
	<stop  offset="1" style="stop-color:#756C74"/>
</linearGradient>
<rect x="194.734" y="55.739" fill="url(#SVGID_6_)" stroke="#0B0C0C" stroke-width="2" stroke-miterlimit="10" width="21.898" height="35.613"/>
<linearGradient id="SVGID_7_" gradientUnits="userSpaceOnUse" x1="194.7344" y1="73.5459" x2="205.6826" y2="73.5459">
	<stop  offset="0" style="stop-color:#C30D23"/>
	<stop  offset="0.595" style="stop-color:#A40B5E"/>
	<stop  offset="0.8835" style="stop-color:#EA6000"/>
	<stop  offset="1" style="stop-color:#753131"/>
</linearGradient>
<rect x="194.734" y="55.739" fill="url(#SVGID_7_)" width="10.948" height="35.613"/>
<rect x="216.633" y="8.146" fill="#0E0E0E" width="2.835" height="109.863"/>
<circle fill="#0E0E0E" cx="180.991" cy="106.517" r="8.463"/>
<g>
	<path fill="#AFAEAE" d="M28.267,17.855c0,5.365-4.594,9.716-10.266,9.716c-5.668,0-10.266-4.351-10.266-9.716
		c0-5.367,4.598-9.718,10.266-9.718C23.673,8.138,28.267,12.488,28.267,17.855"/>
	<ellipse fill="none" stroke="#929292" stroke-miterlimit="10" cx="18.001" cy="17.855" rx="10.266" ry="9.716"/>
	<path fill="#AFAEAE" d="M25.545,17.855c0,3.941-3.377,7.14-7.544,7.14c-4.164,0-7.544-3.198-7.544-7.14
		c0-3.944,3.38-7.142,7.544-7.142C22.168,10.714,25.545,13.911,25.545,17.855"/>
	<ellipse fill="none" stroke="#929292" stroke-miterlimit="10" cx="18.001" cy="17.855" rx="7.544" ry="7.14"/>
	<g>
		<g>
			<defs>
				<rect id="SVGID_8_" x="10.891" y="11.125" width="14.221" height="13.458"/>
			</defs>
			<clipPath id="SVGID_9_">
				<use xlink:href="#SVGID_8_"  overflow="visible"/>
			</clipPath>
			<path clip-path="url(#SVGID_9_)" fill="#BEBEBD" d="M25.111,17.855c0,3.715-3.183,6.728-7.11,6.728
				c-3.926,0-7.11-3.013-7.11-6.728c0-3.717,3.185-6.73,7.11-6.73C21.929,11.125,25.111,14.139,25.111,17.855"/>
			<path clip-path="url(#SVGID_9_)" fill="#C0C0C0" d="M24.943,17.855c0,3.626-3.107,6.569-6.942,6.569
				c-3.833,0-6.942-2.943-6.942-6.569c0-3.63,3.109-6.572,6.942-6.572C21.836,11.283,24.943,14.226,24.943,17.855"/>
			<path clip-path="url(#SVGID_9_)" fill="#C2C3C3" d="M24.775,17.855c0,3.54-3.032,6.412-6.774,6.412
				c-3.74,0-6.774-2.872-6.774-6.412c0-3.542,3.034-6.413,6.774-6.413C21.743,11.442,24.775,14.313,24.775,17.855"/>
			<path clip-path="url(#SVGID_9_)" fill="#C4C5C4" d="M24.609,17.855c0,3.453-2.958,6.253-6.608,6.253
				c-3.648,0-6.607-2.8-6.607-6.253c0-3.455,2.959-6.254,6.607-6.254C21.651,11.602,24.609,14.4,24.609,17.855"/>
			<path clip-path="url(#SVGID_9_)" fill="#C6C8C8" d="M24.442,17.855c0,3.364-2.885,6.095-6.441,6.095
				c-3.558,0-6.439-2.73-6.439-6.095c0-3.368,2.882-6.097,6.439-6.097C21.558,11.759,24.442,14.487,24.442,17.855"/>
			<path clip-path="url(#SVGID_9_)" fill="#C9CACB" d="M24.275,17.855c0,3.278-2.81,5.936-6.274,5.936s-6.271-2.657-6.271-5.936
				c0-3.28,2.807-5.938,6.271-5.938S24.275,14.575,24.275,17.855"/>
			<path clip-path="url(#SVGID_9_)" fill="#CBCDCD" d="M24.109,17.855c0,3.19-2.736,5.779-6.108,5.779s-6.106-2.589-6.106-5.779
				c0-3.193,2.734-5.782,6.106-5.782S24.109,14.662,24.109,17.855"/>
			<path clip-path="url(#SVGID_9_)" fill="#CCCFD0" d="M23.942,17.855c0,3.103-2.662,5.62-5.941,5.62
				c-3.278,0-5.938-2.518-5.938-5.62c0-3.105,2.659-5.622,5.938-5.622C21.28,12.233,23.942,14.75,23.942,17.855"/>
			<path clip-path="url(#SVGID_9_)" fill="#D0D2D2" d="M23.775,17.855c0,3.015-2.583,5.462-5.774,5.462
				c-3.187,0-5.77-2.447-5.77-5.462c0-3.019,2.583-5.465,5.77-5.465C21.192,12.391,23.775,14.837,23.775,17.855"/>
			<path clip-path="url(#SVGID_9_)" fill="#D2D4D5" d="M23.609,17.855c0,2.928-2.512,5.303-5.608,5.303
				c-3.095,0-5.604-2.375-5.604-5.303c0-2.931,2.509-5.306,5.604-5.306C21.098,12.55,23.609,14.925,23.609,17.855"/>
		</g>
	</g>
	<polygon fill="#605F5E" points="17.072,21.901 17.072,18.734 13.727,18.734 13.727,16.976 17.072,16.976 17.072,13.809 
		18.931,13.809 18.931,16.976 22.275,16.976 22.275,18.734 18.931,18.734 18.931,21.901 	"/>
	<path fill="#221714" d="M18.771,13.961v2.861v0.306h0.319h3.026v1.452H19.09h-0.319v0.305v2.861h-1.536v-2.861V18.58h-0.322h-3.024
		v-1.452h3.024h0.322v-0.306v-2.861H18.771z M19.09,13.657h-2.178v3.165h-3.345v2.063h3.345v3.167h2.178v-3.167h3.348v-2.063H19.09
		V13.657z"/>
</g>
<g>
	<path fill="#AFAEAE" d="M28.267,107.017c0,5.365-4.594,9.716-10.266,9.716c-5.668,0-10.266-4.351-10.266-9.716
		c0-5.367,4.598-9.718,10.266-9.718C23.673,97.299,28.267,101.649,28.267,107.017"/>
	<ellipse fill="none" stroke="#929292" stroke-miterlimit="10" cx="18.001" cy="107.017" rx="10.266" ry="9.716"/>
	<path fill="#AFAEAE" d="M25.545,107.017c0,3.941-3.377,7.14-7.544,7.14c-4.164,0-7.544-3.198-7.544-7.14
		c0-3.944,3.38-7.142,7.544-7.142C22.168,99.875,25.545,103.072,25.545,107.017"/>
	<ellipse fill="none" stroke="#929292" stroke-miterlimit="10" cx="18.001" cy="107.017" rx="7.544" ry="7.14"/>
	<g>
		<g>
			<defs>
				<rect id="SVGID_10_" x="10.891" y="100.286" width="14.221" height="13.458"/>
			</defs>
			<clipPath id="SVGID_11_">
				<use xlink:href="#SVGID_10_"  overflow="visible"/>
			</clipPath>
			<path clip-path="url(#SVGID_11_)" fill="#BEBEBD" d="M25.111,107.017c0,3.715-3.183,6.728-7.11,6.728
				c-3.926,0-7.11-3.013-7.11-6.728c0-3.717,3.185-6.73,7.11-6.73C21.929,100.286,25.111,103.3,25.111,107.017"/>
			<path clip-path="url(#SVGID_11_)" fill="#C0C0C0" d="M24.943,107.017c0,3.626-3.107,6.569-6.942,6.569
				c-3.833,0-6.942-2.943-6.942-6.569c0-3.63,3.109-6.572,6.942-6.572C21.836,100.444,24.943,103.387,24.943,107.017"/>
			<path clip-path="url(#SVGID_11_)" fill="#C2C3C3" d="M24.775,107.017c0,3.54-3.032,6.412-6.774,6.412
				c-3.74,0-6.774-2.872-6.774-6.412c0-3.542,3.034-6.413,6.774-6.413C21.743,100.604,24.775,103.475,24.775,107.017"/>
			<path clip-path="url(#SVGID_11_)" fill="#C4C5C4" d="M24.609,107.017c0,3.453-2.958,6.253-6.608,6.253
				c-3.648,0-6.607-2.8-6.607-6.253c0-3.455,2.959-6.254,6.607-6.254C21.651,100.763,24.609,103.562,24.609,107.017"/>
			<path clip-path="url(#SVGID_11_)" fill="#C6C8C8" d="M24.442,107.017c0,3.364-2.885,6.095-6.441,6.095
				c-3.558,0-6.439-2.73-6.439-6.095c0-3.368,2.882-6.097,6.439-6.097C21.558,100.92,24.442,103.648,24.442,107.017"/>
			<path clip-path="url(#SVGID_11_)" fill="#C9CACB" d="M24.275,107.017c0,3.278-2.81,5.936-6.274,5.936s-6.271-2.657-6.271-5.936
				c0-3.28,2.807-5.938,6.271-5.938S24.275,103.736,24.275,107.017"/>
			<path clip-path="url(#SVGID_11_)" fill="#CBCDCD" d="M24.109,107.017c0,3.19-2.736,5.779-6.108,5.779s-6.106-2.589-6.106-5.779
				c0-3.193,2.734-5.782,6.106-5.782S24.109,103.823,24.109,107.017"/>
			<path clip-path="url(#SVGID_11_)" fill="#CCCFD0" d="M23.942,107.017c0,3.103-2.662,5.62-5.941,5.62
				c-3.278,0-5.938-2.518-5.938-5.62c0-3.105,2.659-5.622,5.938-5.622C21.28,101.395,23.942,103.911,23.942,107.017"/>
			<path clip-path="url(#SVGID_11_)" fill="#D0D2D2" d="M23.775,107.017c0,3.015-2.583,5.462-5.774,5.462
				c-3.187,0-5.77-2.447-5.77-5.462c0-3.019,2.583-5.465,5.77-5.465C21.192,101.552,23.775,103.998,23.775,107.017"/>
			<path clip-path="url(#SVGID_11_)" fill="#D2D4D5" d="M23.609,107.017c0,2.928-2.512,5.303-5.608,5.303
				c-3.095,0-5.604-2.375-5.604-5.303c0-2.931,2.509-5.306,5.604-5.306C21.098,101.711,23.609,104.086,23.609,107.017"/>
		</g>
	</g>
	<polygon fill="#605F5E" points="17.072,111.063 17.072,107.896 13.727,107.896 13.727,106.137 17.072,106.137 17.072,102.97 
		18.931,102.97 18.931,106.137 22.275,106.137 22.275,107.896 18.931,107.896 18.931,111.063 	"/>
	<path fill="#221714" d="M18.771,103.122v2.861v0.306h0.319h3.026v1.452H19.09h-0.319v0.305v2.861h-1.536v-2.861v-0.305h-0.322
		h-3.024v-1.452h3.024h0.322v-0.306v-2.861H18.771z M19.09,102.818h-2.178v3.165h-3.345v2.063h3.345v3.167h2.178v-3.167h3.348
		v-2.063H19.09V102.818z"/>
</g>
<g>
	<path fill="#AFAEAE" d="M358.122,17.855c0,5.365-4.595,9.716-10.266,9.716c-5.669,0-10.266-4.351-10.266-9.716
		c0-5.367,4.597-9.718,10.266-9.718C353.527,8.138,358.122,12.488,358.122,17.855"/>
	<ellipse fill="none" stroke="#929292" stroke-miterlimit="10" cx="347.856" cy="17.855" rx="10.266" ry="9.716"/>
	<path fill="#AFAEAE" d="M355.4,17.855c0,3.941-3.378,7.14-7.544,7.14c-4.164,0-7.545-3.198-7.545-7.14
		c0-3.944,3.381-7.142,7.545-7.142C352.022,10.714,355.4,13.911,355.4,17.855"/>
	<ellipse fill="none" stroke="#929292" stroke-miterlimit="10" cx="347.856" cy="17.855" rx="7.544" ry="7.14"/>
	<g>
		<g>
			<defs>
				<rect id="SVGID_12_" x="340.745" y="11.125" width="14.222" height="13.458"/>
			</defs>
			<clipPath id="SVGID_13_">
				<use xlink:href="#SVGID_12_"  overflow="visible"/>
			</clipPath>
			<path clip-path="url(#SVGID_13_)" fill="#BEBEBD" d="M354.966,17.855c0,3.715-3.183,6.728-7.109,6.728s-7.111-3.013-7.111-6.728
				c0-3.717,3.185-6.73,7.111-6.73S354.966,14.139,354.966,17.855"/>
			<path clip-path="url(#SVGID_13_)" fill="#C0C0C0" d="M354.799,17.855c0,3.626-3.106,6.569-6.942,6.569
				c-3.834,0-6.942-2.943-6.942-6.569c0-3.63,3.108-6.572,6.942-6.572C351.692,11.283,354.799,14.226,354.799,17.855"/>
			<path clip-path="url(#SVGID_13_)" fill="#C2C3C3" d="M354.631,17.855c0,3.54-3.033,6.412-6.774,6.412s-6.774-2.872-6.774-6.412
				c0-3.542,3.033-6.413,6.774-6.413S354.631,14.313,354.631,17.855"/>
			<path clip-path="url(#SVGID_13_)" fill="#C4C5C4" d="M354.462,17.855c0,3.453-2.955,6.253-6.605,6.253
				c-3.649,0-6.608-2.8-6.608-6.253c0-3.455,2.959-6.254,6.608-6.254C351.507,11.602,354.462,14.4,354.462,17.855"/>
			<path clip-path="url(#SVGID_13_)" fill="#C6C8C8" d="M354.297,17.855c0,3.364-2.885,6.095-6.44,6.095
				c-3.558,0-6.44-2.73-6.44-6.095c0-3.368,2.883-6.097,6.44-6.097C351.412,11.759,354.297,14.487,354.297,17.855"/>
			<path clip-path="url(#SVGID_13_)" fill="#C9CACB" d="M354.129,17.855c0,3.278-2.809,5.936-6.272,5.936s-6.272-2.657-6.272-5.936
				c0-3.28,2.809-5.938,6.272-5.938S354.129,14.575,354.129,17.855"/>
			<path clip-path="url(#SVGID_13_)" fill="#CBCDCD" d="M353.962,17.855c0,3.19-2.734,5.779-6.105,5.779
				c-3.372,0-6.106-2.589-6.106-5.779c0-3.193,2.734-5.782,6.106-5.782C351.228,12.073,353.962,14.662,353.962,17.855"/>
			<path clip-path="url(#SVGID_13_)" fill="#CCCFD0" d="M353.797,17.855c0,3.103-2.662,5.62-5.94,5.62
				c-3.279,0-5.938-2.518-5.938-5.62c0-3.105,2.659-5.622,5.938-5.622C351.135,12.233,353.797,14.75,353.797,17.855"/>
			<path clip-path="url(#SVGID_13_)" fill="#D0D2D2" d="M353.629,17.855c0,3.015-2.584,5.462-5.772,5.462
				c-3.188,0-5.771-2.447-5.771-5.462c0-3.019,2.583-5.465,5.771-5.465C351.045,12.391,353.629,14.837,353.629,17.855"/>
			<path clip-path="url(#SVGID_13_)" fill="#D2D4D5" d="M353.462,17.855c0,2.928-2.51,5.303-5.605,5.303s-5.604-2.375-5.604-5.303
				c0-2.931,2.509-5.306,5.604-5.306S353.462,14.925,353.462,17.855"/>
		</g>
	</g>
	<polygon fill="#605F5E" points="346.927,21.901 346.927,18.734 343.582,18.734 343.582,16.976 346.927,16.976 346.927,13.809 
		348.785,13.809 348.785,16.976 352.131,16.976 352.131,18.734 348.785,18.734 348.785,21.901 	"/>
	<path fill="#221714" d="M348.625,13.961v2.861v0.306h0.319h3.026v1.452h-3.026h-0.319v0.305v2.861h-1.536v-2.861V18.58h-0.321
		h-3.025v-1.452h3.025h0.321v-0.306v-2.861H348.625z M348.944,13.657h-2.177v3.165h-3.346v2.063h3.346v3.167h2.177v-3.167h3.348
		v-2.063h-3.348V13.657z"/>
</g>
<g>
	<path fill="#AFAEAE" d="M358.121,107.017c0,5.365-4.595,9.716-10.266,9.716c-5.669,0-10.266-4.351-10.266-9.716
		c0-5.367,4.597-9.718,10.266-9.718C353.526,97.299,358.121,101.649,358.121,107.017"/>
	<ellipse fill="none" stroke="#929292" stroke-miterlimit="10" cx="347.855" cy="107.017" rx="10.266" ry="9.716"/>
	<path fill="#AFAEAE" d="M355.4,107.017c0,3.941-3.379,7.14-7.545,7.14c-4.163,0-7.545-3.198-7.545-7.14
		c0-3.944,3.382-7.142,7.545-7.142C352.021,99.875,355.4,103.072,355.4,107.017"/>
	<path fill="none" stroke="#929292" stroke-miterlimit="10" d="M355.4,107.017c0,3.941-3.379,7.14-7.545,7.14
		c-4.163,0-7.545-3.198-7.545-7.14c0-3.944,3.382-7.142,7.545-7.142C352.021,99.875,355.4,103.072,355.4,107.017z"/>
	<g>
		<g>
			<defs>
				<rect id="SVGID_14_" x="340.744" y="100.286" width="14.222" height="13.458"/>
			</defs>
			<clipPath id="SVGID_15_">
				<use xlink:href="#SVGID_14_"  overflow="visible"/>
			</clipPath>
			<path clip-path="url(#SVGID_15_)" fill="#BEBEBD" d="M354.965,107.017c0,3.715-3.183,6.728-7.109,6.728s-7.111-3.013-7.111-6.728
				c0-3.717,3.185-6.73,7.111-6.73S354.965,103.3,354.965,107.017"/>
			<path clip-path="url(#SVGID_15_)" fill="#C0C0C0" d="M354.798,107.017c0,3.626-3.108,6.569-6.942,6.569s-6.942-2.943-6.942-6.569
				c0-3.63,3.108-6.572,6.942-6.572S354.798,103.387,354.798,107.017"/>
			<path clip-path="url(#SVGID_15_)" fill="#C2C3C3" d="M354.63,107.017c0,3.54-3.033,6.412-6.774,6.412s-6.774-2.872-6.774-6.412
				c0-3.542,3.033-6.413,6.774-6.413S354.63,103.475,354.63,107.017"/>
			<path clip-path="url(#SVGID_15_)" fill="#C4C5C4" d="M354.461,107.017c0,3.453-2.955,6.253-6.605,6.253
				c-3.649,0-6.608-2.8-6.608-6.253c0-3.455,2.959-6.254,6.608-6.254C351.506,100.763,354.461,103.562,354.461,107.017"/>
			<path clip-path="url(#SVGID_15_)" fill="#C6C8C8" d="M354.296,107.017c0,3.364-2.885,6.095-6.44,6.095
				c-3.558,0-6.44-2.73-6.44-6.095c0-3.368,2.883-6.097,6.44-6.097C351.411,100.92,354.296,103.648,354.296,107.017"/>
			<path clip-path="url(#SVGID_15_)" fill="#C9CACB" d="M354.128,107.017c0,3.278-2.809,5.936-6.272,5.936s-6.272-2.657-6.272-5.936
				c0-3.28,2.809-5.938,6.272-5.938S354.128,103.736,354.128,107.017"/>
			<path clip-path="url(#SVGID_15_)" fill="#CBCDCD" d="M353.961,107.017c0,3.19-2.734,5.779-6.105,5.779s-6.106-2.589-6.106-5.779
				c0-3.193,2.735-5.782,6.106-5.782S353.961,103.823,353.961,107.017"/>
			<path clip-path="url(#SVGID_15_)" fill="#CCCFD0" d="M353.796,107.017c0,3.103-2.662,5.62-5.94,5.62
				c-3.279,0-5.938-2.518-5.938-5.62c0-3.105,2.659-5.622,5.938-5.622C351.134,101.395,353.796,103.911,353.796,107.017"/>
			<path clip-path="url(#SVGID_15_)" fill="#D0D2D2" d="M353.628,107.017c0,3.015-2.584,5.462-5.772,5.462
				c-3.188,0-5.771-2.447-5.771-5.462c0-3.019,2.583-5.465,5.771-5.465C351.044,101.552,353.628,103.998,353.628,107.017"/>
			<path clip-path="url(#SVGID_15_)" fill="#D2D4D5" d="M353.461,107.017c0,2.928-2.51,5.303-5.605,5.303s-5.604-2.375-5.604-5.303
				c0-2.931,2.509-5.306,5.604-5.306S353.461,104.086,353.461,107.017"/>
		</g>
	</g>
	<polygon fill="#605F5E" points="346.926,111.063 346.926,107.896 343.581,107.896 343.581,106.137 346.926,106.137 346.926,102.97 
		348.784,102.97 348.784,106.137 352.13,106.137 352.13,107.896 348.784,107.896 348.784,111.063 	"/>
	<path fill="#221714" d="M348.624,103.122v2.861v0.306h0.319h3.026v1.452h-3.026h-0.319v0.305v2.861h-1.536v-2.861v-0.305h-0.321
		h-3.025v-1.452h3.025h0.321v-0.306v-2.861H348.624z M348.943,102.818h-2.177v3.165h-3.346v2.063h3.346v3.167h2.177v-3.167h3.348
		v-2.063h-3.348V102.818z"/>
</g>
<path fill="#181818" d="M335.54,114.003c0,2.209-1.791,4-4,4H229.673c-2.209,0-4-1.791-4-4V12.138c0-2.209,1.791-4,4-4H331.54
	c2.209,0,4,1.791,4,4V114.003z"/>
<linearGradient id="SVGID_16_" gradientUnits="userSpaceOnUse" x1="229.752" y1="63.0703" x2="331.4609" y2="63.0703">
	<stop  offset="0" style="stop-color:#BEBDBE"/>
	<stop  offset="0.2151" style="stop-color:#E0E0DF"/>
	<stop  offset="0.5323" style="stop-color:#C1C0C0"/>
	<stop  offset="0.8065" style="stop-color:#E0E0DF"/>
	<stop  offset="0.9871" style="stop-color:#B1B4B5"/>
</linearGradient>
<circle fill="url(#SVGID_16_)" cx="280.606" cy="63.07" r="50.854"/>
<g>
	<g>
		<path fill="#030000" d="M319.581,61.231c-2.301,0-4.283-1.733-4.545-4.072c-1.642-14.783-13.051-26.679-27.747-28.932
			c-2.499-0.382-4.216-2.722-3.83-5.22c0.38-2.499,2.719-4.207,5.219-3.829c18.783,2.88,33.363,18.081,35.461,36.968
			c0.278,2.514-1.532,4.778-4.047,5.055C319.92,61.223,319.751,61.231,319.581,61.231z"/>
	</g>
	<g>
		<path fill="#030000" d="M241.633,61.231c2.302,0,4.285-1.733,4.544-4.072c1.64-14.783,13.05-26.679,27.748-28.932
			c2.5-0.382,4.216-2.722,3.831-5.22c-0.385-2.499-2.72-4.207-5.22-3.829c-18.782,2.88-33.363,18.081-35.461,36.968
			c-0.278,2.514,1.534,4.778,4.047,5.055C241.292,61.223,241.464,61.231,241.633,61.231z"/>
	</g>
	<g>
		<path fill="#030000" d="M319.581,64.909c-2.301,0-4.283,1.729-4.545,4.072c-1.642,14.78-13.051,26.679-27.747,28.933
			c-2.499,0.383-4.216,2.721-3.83,5.219c0.38,2.496,2.719,4.207,5.219,3.831c18.783-2.881,33.363-18.083,35.461-36.971
			c0.278-2.511-1.532-4.775-4.047-5.057C319.92,64.917,319.751,64.909,319.581,64.909z"/>
	</g>
	<g>
		<path fill="#030000" d="M241.633,64.909c2.302,0,4.285,1.729,4.544,4.072c1.64,14.78,13.05,26.679,27.748,28.933
			c2.5,0.383,4.216,2.721,3.831,5.219c-0.385,2.496-2.72,4.207-5.22,3.831c-18.782-2.881-33.363-18.083-35.461-36.971
			c-0.278-2.511,1.534-4.775,4.047-5.057C241.292,64.917,241.464,64.909,241.633,64.909z"/>
	</g>
</g>
<linearGradient id="SVGID_17_" gradientUnits="userSpaceOnUse" x1="410.54" y1="73.5459" x2="432.4424" y2="73.5459">
	<stop  offset="0" style="stop-color:#A69F92"/>
	<stop  offset="0.7778" style="stop-color:#A69F92"/>
	<stop  offset="0.8835" style="stop-color:#DFD4C7"/>
	<stop  offset="1" style="stop-color:#756C74"/>
</linearGradient>
<rect x="410.54" y="55.739" fill="url(#SVGID_17_)" stroke="#0B0C0C" stroke-width="2" stroke-miterlimit="10" width="21.902" height="35.613"/>
<linearGradient id="SVGID_18_" gradientUnits="userSpaceOnUse" x1="410.541" y1="73.5459" x2="421.4902" y2="73.5459">
	<stop  offset="0" style="stop-color:#C30D23"/>
	<stop  offset="0.595" style="stop-color:#A40B5E"/>
	<stop  offset="0.8835" style="stop-color:#EA6000"/>
	<stop  offset="1" style="stop-color:#753131"/>
</linearGradient>
<rect x="410.541" y="55.739" fill="url(#SVGID_18_)" width="10.949" height="35.613"/>
<rect x="432.442" y="4.69" fill="#0E0E0E" width="2.833" height="113.317"/>
<circle fill="#0E0E0E" cx="393.799" cy="107.016" r="8.463"/>
<g>
	<path fill="#AFAEAE" d="M244.075,17.855c0,5.365-4.595,9.716-10.266,9.716c-5.669,0-10.266-4.351-10.266-9.716
		c0-5.367,4.597-9.718,10.266-9.718C239.48,8.138,244.075,12.488,244.075,17.855"/>
	<ellipse fill="none" stroke="#929292" stroke-miterlimit="10" cx="233.81" cy="17.855" rx="10.266" ry="9.716"/>
	<path fill="#AFAEAE" d="M241.354,17.855c0,3.941-3.378,7.14-7.544,7.14c-4.165,0-7.545-3.198-7.545-7.14
		c0-3.944,3.38-7.142,7.545-7.142C237.976,10.714,241.354,13.911,241.354,17.855"/>
	<ellipse fill="none" stroke="#929292" stroke-miterlimit="10" cx="233.809" cy="17.855" rx="7.544" ry="7.14"/>
	<g>
		<g>
			<defs>
				<rect id="SVGID_19_" x="226.698" y="11.125" width="14.222" height="13.458"/>
			</defs>
			<clipPath id="SVGID_20_">
				<use xlink:href="#SVGID_19_"  overflow="visible"/>
			</clipPath>
			<path clip-path="url(#SVGID_20_)" fill="#BEBEBD" d="M240.919,17.855c0,3.715-3.183,6.728-7.109,6.728s-7.111-3.013-7.111-6.728
				c0-3.717,3.185-6.73,7.111-6.73S240.919,14.139,240.919,17.855"/>
			<path clip-path="url(#SVGID_20_)" fill="#C0C0C0" d="M240.752,17.855c0,3.626-3.108,6.569-6.942,6.569s-6.942-2.943-6.942-6.569
				c0-3.63,3.108-6.572,6.942-6.572S240.752,14.226,240.752,17.855"/>
			<path clip-path="url(#SVGID_20_)" fill="#C2C3C3" d="M240.584,17.855c0,3.54-3.033,6.412-6.774,6.412s-6.774-2.872-6.774-6.412
				c0-3.542,3.033-6.413,6.774-6.413S240.584,14.313,240.584,17.855"/>
			<path clip-path="url(#SVGID_20_)" fill="#C4C5C4" d="M240.415,17.855c0,3.453-2.955,6.253-6.605,6.253
				c-3.649,0-6.608-2.8-6.608-6.253c0-3.455,2.959-6.254,6.608-6.254C237.46,11.602,240.415,14.4,240.415,17.855"/>
			<path clip-path="url(#SVGID_20_)" fill="#C6C8C8" d="M240.25,17.855c0,3.364-2.885,6.095-6.44,6.095
				c-3.558,0-6.44-2.73-6.44-6.095c0-3.368,2.883-6.097,6.44-6.097C237.365,11.759,240.25,14.487,240.25,17.855"/>
			<path clip-path="url(#SVGID_20_)" fill="#C9CACB" d="M240.082,17.855c0,3.278-2.807,5.936-6.272,5.936
				c-3.464,0-6.272-2.657-6.272-5.936c0-3.28,2.809-5.938,6.272-5.938C237.275,11.917,240.082,14.575,240.082,17.855"/>
			<path clip-path="url(#SVGID_20_)" fill="#CBCDCD" d="M239.915,17.855c0,3.19-2.734,5.779-6.105,5.779
				c-3.372,0-6.106-2.589-6.106-5.779c0-3.193,2.734-5.782,6.106-5.782C237.181,12.073,239.915,14.662,239.915,17.855"/>
			<path clip-path="url(#SVGID_20_)" fill="#CCCFD0" d="M239.75,17.855c0,3.103-2.662,5.62-5.94,5.62
				c-3.279,0-5.938-2.518-5.938-5.62c0-3.105,2.659-5.622,5.938-5.622C237.088,12.233,239.75,14.75,239.75,17.855"/>
			<path clip-path="url(#SVGID_20_)" fill="#D0D2D2" d="M239.582,17.855c0,3.015-2.584,5.462-5.772,5.462
				c-3.188,0-5.771-2.447-5.771-5.462c0-3.019,2.583-5.465,5.771-5.465C236.998,12.391,239.582,14.837,239.582,17.855"/>
			<path clip-path="url(#SVGID_20_)" fill="#D2D4D5" d="M239.415,17.855c0,2.928-2.51,5.303-5.605,5.303s-5.604-2.375-5.604-5.303
				c0-2.931,2.509-5.306,5.604-5.306S239.415,14.925,239.415,17.855"/>
		</g>
	</g>
	<polygon fill="#605F5E" points="232.88,21.901 232.88,18.734 229.535,18.734 229.535,16.976 232.88,16.976 232.88,13.809 
		234.738,13.809 234.738,16.976 238.084,16.976 238.084,18.734 234.738,18.734 234.738,21.901 	"/>
	<path fill="#221714" d="M234.578,13.961v2.861v0.306h0.319h3.026v1.452h-3.026h-0.319v0.305v2.861h-1.536v-2.861V18.58h-0.321
		h-3.025v-1.452h3.025h0.321v-0.306v-2.861H234.578z M234.897,13.657h-2.177v3.165h-3.346v2.063h3.346v3.167h2.177v-3.167h3.348
		v-2.063h-3.348V13.657z"/>
</g>
<g>
	<path fill="#AFAEAE" d="M244.075,107.017c0,5.365-4.595,9.716-10.266,9.716c-5.669,0-10.266-4.351-10.266-9.716
		c0-5.367,4.597-9.718,10.266-9.718C239.48,97.299,244.075,101.649,244.075,107.017"/>
	<ellipse fill="none" stroke="#929292" stroke-miterlimit="10" cx="233.81" cy="107.017" rx="10.266" ry="9.716"/>
	<path fill="#AFAEAE" d="M241.354,107.017c0,3.941-3.378,7.14-7.544,7.14c-4.165,0-7.545-3.198-7.545-7.14
		c0-3.944,3.38-7.142,7.545-7.142C237.976,99.875,241.354,103.072,241.354,107.017"/>
	<ellipse fill="none" stroke="#929292" stroke-miterlimit="10" cx="233.809" cy="107.017" rx="7.544" ry="7.14"/>
	<g>
		<g>
			<defs>
				<rect id="SVGID_21_" x="226.698" y="100.286" width="14.222" height="13.458"/>
			</defs>
			<clipPath id="SVGID_22_">
				<use xlink:href="#SVGID_21_"  overflow="visible"/>
			</clipPath>
			<path clip-path="url(#SVGID_22_)" fill="#BEBEBD" d="M240.919,107.017c0,3.715-3.183,6.728-7.109,6.728s-7.111-3.013-7.111-6.728
				c0-3.717,3.185-6.73,7.111-6.73S240.919,103.3,240.919,107.017"/>
			<path clip-path="url(#SVGID_22_)" fill="#C0C0C0" d="M240.752,107.017c0,3.626-3.108,6.569-6.942,6.569s-6.942-2.943-6.942-6.569
				c0-3.63,3.108-6.572,6.942-6.572S240.752,103.387,240.752,107.017"/>
			<path clip-path="url(#SVGID_22_)" fill="#C2C3C3" d="M240.584,107.017c0,3.54-3.033,6.412-6.774,6.412s-6.774-2.872-6.774-6.412
				c0-3.542,3.033-6.413,6.774-6.413S240.584,103.475,240.584,107.017"/>
			<path clip-path="url(#SVGID_22_)" fill="#C4C5C4" d="M240.415,107.017c0,3.453-2.955,6.253-6.605,6.253
				c-3.649,0-6.608-2.8-6.608-6.253c0-3.455,2.959-6.254,6.608-6.254C237.46,100.763,240.415,103.562,240.415,107.017"/>
			<path clip-path="url(#SVGID_22_)" fill="#C6C8C8" d="M240.25,107.017c0,3.364-2.885,6.095-6.44,6.095
				c-3.558,0-6.44-2.73-6.44-6.095c0-3.368,2.883-6.097,6.44-6.097C237.365,100.92,240.25,103.648,240.25,107.017"/>
			<path clip-path="url(#SVGID_22_)" fill="#C9CACB" d="M240.082,107.017c0,3.278-2.807,5.936-6.272,5.936
				c-3.464,0-6.272-2.657-6.272-5.936c0-3.28,2.809-5.938,6.272-5.938C237.275,101.078,240.082,103.736,240.082,107.017"/>
			<path clip-path="url(#SVGID_22_)" fill="#CBCDCD" d="M239.915,107.017c0,3.19-2.734,5.779-6.105,5.779
				c-3.372,0-6.106-2.589-6.106-5.779c0-3.193,2.734-5.782,6.106-5.782C237.181,101.234,239.915,103.823,239.915,107.017"/>
			<path clip-path="url(#SVGID_22_)" fill="#CCCFD0" d="M239.75,107.017c0,3.103-2.662,5.62-5.94,5.62
				c-3.279,0-5.938-2.518-5.938-5.62c0-3.105,2.659-5.622,5.938-5.622C237.088,101.395,239.75,103.911,239.75,107.017"/>
			<path clip-path="url(#SVGID_22_)" fill="#D0D2D2" d="M239.582,107.017c0,3.015-2.584,5.462-5.772,5.462
				c-3.188,0-5.771-2.447-5.771-5.462c0-3.019,2.583-5.465,5.771-5.465C236.998,101.552,239.582,103.998,239.582,107.017"/>
			<path clip-path="url(#SVGID_22_)" fill="#D2D4D5" d="M239.415,107.017c0,2.928-2.51,5.303-5.605,5.303s-5.604-2.375-5.604-5.303
				c0-2.931,2.509-5.306,5.604-5.306S239.415,104.086,239.415,107.017"/>
		</g>
	</g>
	<polygon fill="#605F5E" points="232.88,111.063 232.88,107.896 229.535,107.896 229.535,106.137 232.88,106.137 232.88,102.97 
		234.738,102.97 234.738,106.137 238.084,106.137 238.084,107.896 234.738,107.896 234.738,111.063 	"/>
	<path fill="#221714" d="M234.578,103.122v2.861v0.306h0.319h3.026v1.452h-3.026h-0.319v0.305v2.861h-1.536v-2.861v-0.305h-0.321
		h-3.025v-1.452h3.025h0.321v-0.306v-2.861H234.578z M234.897,102.818h-2.177v3.165h-3.346v2.063h3.346v3.167h2.177v-3.167h3.348
		v-2.063h-3.348V102.818z"/>
</g>
<radialGradient id="SVGID_23_" cx="417.0151" cy="107.0156" r="7.3064" gradientUnits="userSpaceOnUse">
	<stop  offset="0" style="stop-color:#FFFFFF"/>
	<stop  offset="1" style="stop-color:#FAED00"/>
</radialGradient>
<circle fill="url(#SVGID_23_)" stroke="#0E0E0E" stroke-miterlimit="10" cx="417.015" cy="107.017" r="7.306"/>
<g>
	<rect x="441.272" y="10.109" fill="#0E0E0E" width="14.02" height="14.018"/>
	<rect x="441.272" y="28.141" fill="#0E0E0E" width="14.02" height="14.018"/>
	<rect x="441.272" y="46.172" fill="#0E0E0E" width="14.02" height="14.018"/>
	<rect x="441.272" y="64.203" fill="#0E0E0E" width="14.02" height="14.018"/>
	<rect x="441.272" y="82.234" fill="#0E0E0E" width="14.02" height="14.018"/>
	<rect x="441.272" y="100.266" fill="#0E0E0E" width="14.02" height="14.018"/>
</g>
<g>
	<rect x="458.931" y="10.109" fill="#0E0E0E" width="14.02" height="14.018"/>
	<rect x="458.931" y="28.141" fill="#0E0E0E" width="14.02" height="14.018"/>
	<rect x="458.931" y="46.172" fill="#0E0E0E" width="14.02" height="14.018"/>
	<rect x="458.931" y="64.203" fill="#0E0E0E" width="14.02" height="14.018"/>
	<rect x="458.931" y="82.234" fill="#0E0E0E" width="14.02" height="14.018"/>
	<rect x="458.931" y="100.266" fill="#0E0E0E" width="14.02" height="14.018"/>
</g>
<g>
	<rect x="476.589" y="10.109" fill="#0E0E0E" width="14.021" height="14.018"/>
	<rect x="476.589" y="28.141" fill="#0E0E0E" width="14.021" height="14.018"/>
	<rect x="476.589" y="46.172" fill="#0E0E0E" width="14.021" height="14.018"/>
	<rect x="476.589" y="64.203" fill="#0E0E0E" width="14.021" height="14.018"/>
	<rect x="476.589" y="82.234" fill="#0E0E0E" width="14.021" height="14.018"/>
	<rect x="476.589" y="100.266" fill="#0E0E0E" width="14.021" height="14.018"/>
</g>
<g>
	<rect x="550.691" y="10.109" fill="#0E0E0E" width="14.018" height="14.018"/>
	<rect x="550.691" y="28.141" fill="#0E0E0E" width="14.018" height="14.018"/>
	<rect x="550.691" y="46.172" fill="#0E0E0E" width="14.018" height="14.018"/>
	<rect x="550.691" y="64.203" fill="#0E0E0E" width="14.018" height="14.018"/>
	<rect x="550.691" y="82.234" fill="#0E0E0E" width="14.018" height="14.018"/>
	<rect x="550.691" y="100.266" fill="#0E0E0E" width="14.018" height="14.018"/>
</g>
<rect x="704.366" y="59.021" fill="#0E0E0E" width="14.02" height="14.018"/>
<rect x="704.366" y="77.052" fill="#0E0E0E" width="14.02" height="14.018"/>
<rect x="704.366" y="95.083" fill="#0E0E0E" width="14.02" height="14.018"/>
<rect x="724.468" y="59.021" fill="#0E0E0E" width="14.02" height="14.018"/>
<rect x="724.468" y="77.052" fill="#0E0E0E" width="14.02" height="14.018"/>
<rect x="724.468" y="95.083" fill="#0E0E0E" width="14.02" height="14.018"/>
<rect x="744.569" y="59.021" fill="#0E0E0E" width="14.02" height="14.018"/>
<rect x="744.569" y="77.052" fill="#0E0E0E" width="14.02" height="14.018"/>
<rect x="744.569" y="95.083" fill="#0E0E0E" width="14.02" height="14.018"/>
<rect x="966.485" y="15.125" fill="#0E0E0E" width="14.02" height="14.018"/>
<rect x="966.485" y="33.156" fill="#0E0E0E" width="14.02" height="14.018"/>
<rect x="986.587" y="15.125" fill="#0E0E0E" width="14.02" height="14.018"/>
<rect x="986.587" y="33.156" fill="#0E0E0E" width="14.02" height="14.018"/>
<rect x="1006.69" y="15.125" fill="#0E0E0E" width="14.018" height="14.018"/>
<rect x="1006.69" y="33.156" fill="#0E0E0E" width="14.018" height="14.018"/>
<rect x="1026.485" y="15.125" fill="#0E0E0E" width="14.02" height="14.018"/>
<rect x="1026.485" y="33.156" fill="#0E0E0E" width="14.02" height="14.018"/>
<rect x="1046.587" y="15.125" fill="#0E0E0E" width="14.02" height="14.018"/>
<rect x="1046.587" y="33.156" fill="#0E0E0E" width="14.02" height="14.018"/>
<rect x="1066.69" y="15.125" fill="#0E0E0E" width="14.018" height="14.018"/>
<rect x="1066.69" y="33.156" fill="#0E0E0E" width="14.018" height="14.018"/>
<rect x="1086.485" y="15.125" fill="#0E0E0E" width="14.02" height="14.018"/>
<rect x="1086.485" y="33.156" fill="#0E0E0E" width="14.02" height="14.018"/>
<rect x="1106.587" y="15.125" fill="#0E0E0E" width="14.02" height="14.018"/>
<rect x="1106.587" y="33.156" fill="#0E0E0E" width="14.02" height="14.018"/>
<rect x="1126.69" y="15.125" fill="#0E0E0E" width="14.018" height="14.018"/>
<rect x="1126.69" y="33.156" fill="#0E0E0E" width="14.018" height="14.018"/>
<rect x="1146.485" y="15.125" fill="#0E0E0E" width="14.02" height="14.018"/>
<rect x="1146.485" y="33.156" fill="#0E0E0E" width="14.02" height="14.018"/>
<rect x="1166.587" y="15.125" fill="#0E0E0E" width="14.02" height="14.018"/>
<rect x="1166.587" y="33.156" fill="#0E0E0E" width="14.02" height="14.018"/>
<rect x="1186.69" y="15.125" fill="#0E0E0E" width="14.018" height="14.018"/>
<rect x="1186.69" y="33.156" fill="#0E0E0E" width="14.018" height="14.018"/>
<rect x="1206.485" y="15.125" fill="#0E0E0E" width="14.02" height="14.018"/>
<rect x="1206.485" y="33.156" fill="#0E0E0E" width="14.02" height="14.018"/>
<rect x="1226.587" y="15.125" fill="#0E0E0E" width="14.02" height="14.018"/>
<rect x="1226.587" y="33.156" fill="#0E0E0E" width="14.02" height="14.018"/>
<rect x="1246.69" y="15.125" fill="#0E0E0E" width="14.018" height="14.018"/>
<rect x="1246.69" y="33.156" fill="#0E0E0E" width="14.018" height="14.018"/>
<g>
	<g>
		<rect x="704.366" y="115.454" fill="#0E0E0E" width="14.02" height="4.361"/>
		<rect x="724.468" y="115.454" fill="#0E0E0E" width="14.02" height="4.361"/>
		<rect x="744.569" y="115.454" fill="#0E0E0E" width="14.02" height="4.361"/>
	</g>
	<g>
		<rect x="762.478" y="115.454" fill="#0E0E0E" width="14.02" height="4.361"/>
		<rect x="782.579" y="115.454" fill="#0E0E0E" width="14.02" height="4.361"/>
		<rect x="802.681" y="115.454" fill="#0E0E0E" width="14.02" height="4.361"/>
	</g>
	<g>
		<rect x="820.589" y="115.454" fill="#0E0E0E" width="14.021" height="4.361"/>
		<rect x="840.692" y="115.454" fill="#0E0E0E" width="14.018" height="4.361"/>
		<rect x="860.792" y="115.454" fill="#0E0E0E" width="14.02" height="4.361"/>
	</g>
</g>
<g>
	<g>
		<rect x="704.366" y="51" fill="#0E0E0E" width="14.02" height="4.361"/>
		<rect x="724.468" y="51" fill="#0E0E0E" width="14.02" height="4.361"/>
		<rect x="744.569" y="51" fill="#0E0E0E" width="14.02" height="4.361"/>
	</g>
	<g>
		<rect x="762.478" y="51" fill="#0E0E0E" width="14.02" height="4.361"/>
		<rect x="782.579" y="51" fill="#0E0E0E" width="14.02" height="4.361"/>
		<rect x="802.681" y="51" fill="#0E0E0E" width="14.02" height="4.361"/>
	</g>
	<g>
		<rect x="820.589" y="51" fill="#0E0E0E" width="14.021" height="4.361"/>
		<rect x="840.692" y="51" fill="#0E0E0E" width="14.018" height="4.361"/>
		<rect x="860.792" y="51" fill="#0E0E0E" width="14.02" height="4.361"/>
	</g>
</g>
<g>
	<rect x="568.671" y="10.109" fill="#0E0E0E" width="14.021" height="14.018"/>
	<rect x="568.671" y="28.141" fill="#0E0E0E" width="14.021" height="14.018"/>
	<rect x="568.671" y="46.172" fill="#0E0E0E" width="14.021" height="14.018"/>
	<rect x="568.671" y="64.203" fill="#0E0E0E" width="14.021" height="14.018"/>
	<rect x="568.671" y="82.234" fill="#0E0E0E" width="14.021" height="14.018"/>
	<rect x="568.671" y="100.266" fill="#0E0E0E" width="14.021" height="14.018"/>
</g>
<rect x="586.651" y="10.109" fill="#0E0E0E" width="14.02" height="14.018"/>
<rect x="586.651" y="28.141" fill="#0E0E0E" width="14.02" height="14.018"/>
<rect x="586.651" y="46.172" fill="#0E0E0E" width="14.02" height="14.018"/>
<rect x="586.651" y="64.203" fill="#0E0E0E" width="14.02" height="14.018"/>
<rect x="604.633" y="10.109" fill="#0E0E0E" width="14.02" height="14.018"/>
<rect x="604.633" y="28.141" fill="#0E0E0E" width="14.02" height="14.018"/>
<rect x="604.633" y="46.172" fill="#0E0E0E" width="14.02" height="14.018"/>
<rect x="604.633" y="64.203" fill="#0E0E0E" width="14.02" height="14.018"/>
<rect x="622.613" y="10.109" fill="#0E0E0E" width="14.02" height="14.018"/>
<rect x="622.613" y="28.141" fill="#0E0E0E" width="14.02" height="14.018"/>
<rect x="622.613" y="46.172" fill="#0E0E0E" width="14.02" height="14.018"/>
<rect x="622.613" y="64.203" fill="#0E0E0E" width="14.02" height="14.018"/>
<rect x="640.595" y="10.109" fill="#0E0E0E" width="14.02" height="14.018"/>
<rect x="640.595" y="28.141" fill="#0E0E0E" width="14.02" height="14.018"/>
<rect x="640.595" y="46.172" fill="#0E0E0E" width="14.02" height="14.018"/>
<rect x="640.595" y="64.203" fill="#0E0E0E" width="14.02" height="14.018"/>
<linearGradient id="SVGID_24_" gradientUnits="userSpaceOnUse" x1="860.21" y1="85.4307" x2="874.3018" y2="85.4307">
	<stop  offset="0" style="stop-color:#A69F92"/>
	<stop  offset="0.7778" style="stop-color:#A69F92"/>
	<stop  offset="0.8835" style="stop-color:#DFD4C7"/>
	<stop  offset="1" style="stop-color:#756C74"/>
</linearGradient>
<path fill="#0E0E0E" stroke="url(#SVGID_24_)" stroke-miterlimit="10" d="M873.802,93.707c0,2.209-1.791,4-4,4h-5.092
	c-2.209,0-4-1.791-4-4V77.154c0-2.209,1.791-4,4-4h5.092c2.209,0,4,1.791,4,4V93.707z"/>
<linearGradient id="SVGID_25_" gradientUnits="userSpaceOnUse" x1="916.1914" y1="13.8164" x2="916.1914" y2="-0.002">
	<stop  offset="0" style="stop-color:#BEBDBE"/>
	<stop  offset="0.7258" style="stop-color:#C1C0C0"/>
	<stop  offset="0.871" style="stop-color:#E0E0DF"/>
	<stop  offset="0.9871" style="stop-color:#B1B4B5"/>
</linearGradient>
<rect x="558.098" y="-0.002" fill="url(#SVGID_25_)" width="716.188" height="13.818"/>
<linearGradient id="SVGID_26_" gradientUnits="userSpaceOnUse" x1="5973.2119" y1="6377.9385" x2="5973.2119" y2="6369.4316" gradientTransform="matrix(-1 0 0 -1 6610.3516 6495.5703)">
	<stop  offset="0" style="stop-color:#BEBDBE"/>
	<stop  offset="0.6344" style="stop-color:#C1C0C0"/>
	<stop  offset="0.7903" style="stop-color:#E0E0DF"/>
	<stop  offset="0.9871" style="stop-color:#B1B4B5"/>
</linearGradient>
<rect x="-0.002" y="117.631" fill="url(#SVGID_26_)" width="1274.281" height="8.507"/>
<linearGradient id="SVGID_27_" gradientUnits="userSpaceOnUse" x1="317.3384" y1="5266.416" x2="317.3384" y2="5258.5654" gradientTransform="matrix(0 1 -1 0 6533.9336 -254.2676)">
	<stop  offset="0" style="stop-color:#BEBDBE"/>
	<stop  offset="0.7258" style="stop-color:#C1C0C0"/>
	<stop  offset="0.871" style="stop-color:#E0E0DF"/>
	<stop  offset="0.9871" style="stop-color:#B1B4B5"/>
</linearGradient>
<rect x="1267.518" y="-0.001" fill="url(#SVGID_27_)" width="7.85" height="126.143"/>
</svg>
