<?xml version="1.0" encoding="utf-8"?>
<!-- Generator: Adobe Illustrator 16.0.0, SVG Export Plug-In . SVG Version: 6.00 Build 0)  -->
<!DOCTYPE svg PUBLIC "-//W3C//DTD SVG 1.1//EN" "http://www.w3.org/Graphics/SVG/1.1/DTD/svg11.dtd">
<svg version="1.1" id="图层_1" xmlns="http://www.w3.org/2000/svg" xmlns:xlink="http://www.w3.org/1999/xlink" x="0px" y="0px"
	 width="1275.6px" height="252.28px" viewBox="0 0 1275.6 252.28" enable-background="new 0 0 1275.6 252.28" xml:space="preserve">
<polygon fill="#303030" points="0,-0.001 0,126.141 0,252.281 1275.588,252.281 1275.588,126.141 1275.588,-0.001 "/>
<path fill="#6B6B6B" d="M1190.16,230.229c0,0,21.43-0.875,27.114-34.988V47.659c0,0-0.991-23.615-27.114-25.584H860.402
	c0,0-40.236-1.232-76.973,14.512c-36.737,15.744-134.701,85.617-264.156,11.27c0,0-17.056-24.491-101.9-25.803h-316.2
	c0,0-34.987,4.811-42.859,43.297v125.955c0,0,1.749,27.115,28.864,38.924H1190.16z"/>
<rect x="503.017" y="174.793" fill="#9B9B9B" stroke="#030000" stroke-miterlimit="10" width="46.667" height="38.666"/>
<rect x="561.017" y="174.793" fill="#9B9B9B" stroke="#030000" stroke-miterlimit="10" width="46.667" height="38.666"/>
<rect x="619.017" y="174.793" fill="#9B9B9B" stroke="#030000" stroke-miterlimit="10" width="46.667" height="38.666"/>
<rect x="677.017" y="174.793" fill="#9B9B9B" stroke="#030000" stroke-miterlimit="10" width="46.667" height="38.666"/>
<rect x="777.238" y="174.793" fill="#9B9B9B" stroke="#030000" stroke-miterlimit="10" width="46.666" height="38.666"/>
<rect x="835.238" y="174.793" fill="#9B9B9B" stroke="#030000" stroke-miterlimit="10" width="46.666" height="38.666"/>
<rect x="893.238" y="174.793" fill="#9B9B9B" stroke="#030000" stroke-miterlimit="10" width="46.666" height="38.666"/>
<rect x="951.238" y="174.793" fill="#9B9B9B" stroke="#030000" stroke-miterlimit="10" width="46.666" height="38.666"/>
<path fill="#E2E2E2" d="M601.668,34.379c0,0,12.6-16.209,18.327-13.23s3.093,9.221,3.093,9.221s-1.546,6.473,7.904-0.629
	c9.45-7.104,20.563-11.514,22.395-5.041c1.833,6.473,9.279,9.336,15.35,5.727c6.071-3.607,20.734-7.178,11.112,2.521
	s-22.528,4.811-26.423,3.283s-3.743-9.346-8.706-6.43c-4.964,2.918-31.312,24.07-30.318,1.848c0,0,1.298-6.721-3.437-2.901
	C606.23,32.565,602.525,39.477,601.668,34.379z"/>
<g>
	<path fill="#E2E2E2" d="M614.619,45.317l1.385,0.387c-0.229,0.76-0.483,1.49-0.762,2.191v8.043h-1.418v-5.106
		c-0.244,0.419-0.498,0.825-0.762,1.22c-0.088-0.574-0.223-1.218-0.408-1.934C613.419,48.885,614.074,47.286,614.619,45.317z
		 M615.553,50.922h2.738v-0.838h-2.189V48.71h2.189v-0.827H615.8v-1.375h2.491v-1.115h1.493v1.115h3.007v1.375h-3.007v0.827h2.567
		v1.374h-2.567v0.838h3.329c-0.039,1.301-0.076,2.133-0.109,2.498c-0.035,0.364-0.132,0.664-0.293,0.896
		c-0.162,0.232-0.373,0.395-0.637,0.484c-0.264,0.092-0.691,0.139-1.286,0.139c-0.226,0-0.427-0.008-0.606-0.021
		c-0.051-0.467-0.115-0.945-0.193-1.439c0.271,0.035,0.605,0.053,1,0.053c0.163,0,0.299-0.035,0.406-0.109
		c0.107-0.073,0.167-0.221,0.178-0.439c0.01-0.221,0.023-0.445,0.037-0.674h-1.825v3.629h-1.493v-3.629h-2.738V50.922z"/>
	<path fill="#E2E2E2" d="M626.838,51.987l1.332,0.449c-0.359,1.039-0.703,1.949-1.031,2.729l-1.3-0.568
		C626.219,53.765,626.551,52.895,626.838,51.987z M626.806,45.78h8.763v5.541h-4.103c0.493,0.451,0.942,0.891,1.343,1.32
		l-1.096,0.955c-0.494-0.607-0.987-1.162-1.482-1.664l0.72-0.611h-4.145V45.78z M628.266,47.938h2.19v-0.936h-2.19V47.938z
		 M628.266,50.096h2.19v-0.934h-2.19V50.096z M632.99,52.92c0.588,0.271,1.082,0.486,1.482,0.645
		c-0.258,1.031-0.545,1.653-0.864,1.869c-0.319,0.214-0.689,0.322-1.112,0.322h-2.426c-1.074,0-1.611-0.494-1.611-1.482v-2.416
		h1.418v1.976c0,0.423,0.201,0.634,0.602,0.634h1.418c0.238,0,0.437-0.037,0.592-0.113c0.156-0.074,0.259-0.207,0.31-0.395
		C632.848,53.772,632.912,53.424,632.99,52.92z M634.108,47.002h-2.191v0.936h2.191V47.002z M634.108,50.096v-0.934h-2.191v0.934
		H634.108z M635.514,51.858c0.338,0.787,0.686,1.646,1.043,2.576l-1.385,0.516c-0.33-0.974-0.66-1.84-0.989-2.599L635.514,51.858z"
		/>
	<path fill="#E2E2E2" d="M645.092,45.274c0.189,0.336,0.372,0.695,0.548,1.074h3.489v0.924h-3.586v0.568h3.2V48.7h-3.2v0.57h3.2
		v0.857h-3.2v0.57h3.736v0.945h-7.623v0.387h-1.418V48.92c-0.193,0.186-0.395,0.367-0.603,0.541
		c-0.185-0.579-0.386-1.102-0.601-1.566c0.865-0.674,1.574-1.525,2.125-2.557l1.494,0.322c-0.122,0.236-0.248,0.465-0.381,0.688
		h1.842c-0.133-0.297-0.27-0.572-0.409-0.826L645.092,45.274z M643.664,51.879h1.417v0.494h4.499v1.03h-3.146
		c0.877,0.493,1.977,0.854,3.298,1.085c-0.309,0.486-0.559,0.912-0.753,1.277c-1.703-0.469-3.002-1.152-3.897-2.051v2.201h-1.417
		v-2.109c-0.945,0.83-2.241,1.52-3.889,2.066c-0.179-0.373-0.425-0.787-0.74-1.246c1.371-0.34,2.469-0.748,3.297-1.224h-3.061v-1.03
		h4.393V51.879z M641.656,47.293v0.547h2.469v-0.568h-2.459L641.656,47.293z M641.656,49.27h2.469V48.7h-2.469V49.27z
		 M641.656,50.698h2.469v-0.57h-2.469V50.698z"/>
	<path fill="#E2E2E2" d="M652.693,55.852V45.757h9.772v10.085h-1.493v-0.377h-6.787v0.387H652.693z M660.973,47.068h-6.787v7.108
		h6.787V47.068z M658.354,47.325h1.406v0.945h0.762v1.257h-0.762v2.309c0,0.647-0.146,1.142-0.439,1.479
		c-0.295,0.338-0.72,0.525-1.276,0.561c-0.556,0.037-1.044,0.055-1.463,0.055c-0.086-0.516-0.179-0.967-0.279-1.354
		c0.341,0.029,0.733,0.043,1.181,0.043c0.58,0,0.871-0.297,0.871-0.891v-1.746c-0.752,1.084-1.805,2.146-3.158,3.185
		c-0.328-0.466-0.633-0.856-0.912-1.171c1.267-0.748,2.307-1.57,3.119-2.47h-2.766V48.27h3.717V47.325z"/>
</g>
<circle fill="#96BA27" stroke="#050505" stroke-miterlimit="10" cx="197.949" cy="55.938" r="5.689"/>
<circle fill="#96BA27" stroke="#050505" stroke-miterlimit="10" cx="197.949" cy="73.284" r="5.689"/>
<circle fill="#96BA27" stroke="#050505" stroke-miterlimit="10" cx="197.949" cy="90.63" r="5.689"/>
<circle fill="#96BA27" stroke="#050505" stroke-miterlimit="10" cx="327.449" cy="55.938" r="5.689"/>
<circle fill="#96BA27" stroke="#050505" stroke-miterlimit="10" cx="327.449" cy="73.284" r="5.689"/>
<circle fill="#96BA27" stroke="#050505" stroke-miterlimit="10" cx="327.449" cy="90.63" r="5.689"/>
<circle fill="#96BA27" stroke="#050505" stroke-miterlimit="10" cx="197.949" cy="127.6" r="5.689"/>
<circle fill="#96BA27" stroke="#050505" stroke-miterlimit="10" cx="197.949" cy="144.947" r="5.689"/>
<circle fill="#96BA27" stroke="#050505" stroke-miterlimit="10" cx="197.949" cy="162.293" r="5.689"/>
<circle fill="#5E3333" stroke="#212121" stroke-miterlimit="10" cx="126.806" cy="206.123" r="5.689"/>
<circle fill="#5E3333" stroke="#212121" stroke-miterlimit="10" cx="183.139" cy="206.123" r="5.689"/>
<circle fill="#7C9123" stroke="#050505" stroke-miterlimit="10" cx="238.472" cy="206.123" r="5.689"/>
<circle fill="#96BA27" stroke="#050505" stroke-miterlimit="10" cx="327.449" cy="127.6" r="5.689"/>
<circle fill="#96BA27" stroke="#050505" stroke-miterlimit="10" cx="327.449" cy="144.947" r="5.689"/>
<circle fill="#96BA27" stroke="#050505" stroke-miterlimit="10" cx="327.449" cy="162.293" r="5.689"/>
<path fill="#102214" d="M1127.871,91.32c0,2.761-2.238,5-5,5H931.104c-2.762,0-5-2.239-5-5V55.25c0-2.761,2.238-5,5-5h191.768
	c2.762,0,5,2.239,5,5V91.32z"/>
</svg>
