<?xml version="1.0" encoding="utf-8"?>
<!-- Generator: Adobe Illustrator 16.0.0, SVG Export Plug-In . SVG Version: 6.00 Build 0)  -->
<!DOCTYPE svg PUBLIC "-//W3C//DTD SVG 1.1//EN" "http://www.w3.org/Graphics/SVG/1.1/DTD/svg11.dtd">
<svg version="1.1" id="图层_1" xmlns="http://www.w3.org/2000/svg" xmlns:xlink="http://www.w3.org/1999/xlink" x="0px" y="0px"
	 width="1275.591px" height="252.284px" viewBox="0 0 1275.591 252.284" enable-background="new 0 0 1275.591 252.284"
	 xml:space="preserve">
<g>
	<g>
		<g>
			<rect y="0.001" fill="#434444" width="1275.342" height="126.097"/>
			<rect x="0.25" y="126.187" fill="#434444" width="1275.342" height="126.097"/>
		</g>
		<g>
			<g>
				<g>
					<defs>
						<path id="SVGID_1_" d="M1248.523,14.87l-8.711,5.215c-2.281,1.365-3.867,6.018-3.867,11.336v4.387
							c0,11.71,4.674,20.602,9.799,18.642l12.83-4.926l-0.779-36.06l-3.463-0.215c-0.076-0.002-0.152-0.004-0.23-0.004
							C1252.326,13.245,1250.219,13.927,1248.523,14.87"/>
					</defs>
					<clipPath id="SVGID_2_">
						<use xlink:href="#SVGID_1_"  overflow="visible"/>
					</clipPath>
					
						<linearGradient id="SVGID_3_" gradientUnits="userSpaceOnUse" x1="-349.1357" y1="557.0693" x2="-347.5609" y2="557.0693" gradientTransform="matrix(21.6016 8.6407 8.6407 -21.6016 3954.8242 15076.8682)">
						<stop  offset="0" style="stop-color:#E1E0DF"/>
						<stop  offset="1" style="stop-color:#666767"/>
					</linearGradient>
					<polygon clip-path="url(#SVGID_2_)" fill="url(#SVGID_3_)" points="1239.064,-4.342 1265.182,19.2 1255.455,73.997 
						1229.338,50.457 					"/>
				</g>
				<g>
					<defs>
						<path id="SVGID_4_" d="M1235.947,210.502v2.261c-0.002,8.989,2.676,16.851,6.529,19.167l5.184,3.114
							c3.012,1.812,6.115,2.728,9.23,2.728l1.686-35.811l-14.65-6.326c-0.43-0.186-0.857-0.275-1.277-0.275
							C1239.027,195.359,1235.947,201.988,1235.947,210.502"/>
					</defs>
					<clipPath id="SVGID_5_">
						<use xlink:href="#SVGID_4_"  overflow="visible"/>
					</clipPath>
					
						<linearGradient id="SVGID_6_" gradientUnits="userSpaceOnUse" x1="-342.5654" y1="553.1387" x2="-341.5658" y2="553.1387" gradientTransform="matrix(14.9609 0 0 -14.9609 6358.623 8492.0342)">
						<stop  offset="0" style="stop-color:#E1E0DF"/>
						<stop  offset="1" style="stop-color:#666767"/>
					</linearGradient>
					<rect x="1235.943" y="195.359" clip-path="url(#SVGID_5_)" fill="url(#SVGID_6_)" width="22.633" height="42.413"/>
				</g>
				<g>
					<defs>
						<path id="SVGID_7_" d="M1256.891,13.251c-5.449,0-9.873,9.961-9.873,22.248v180.025c0,12.288,4.422,22.248,9.873,22.248
							c5.453,0,9.873-9.959,9.873-22.248V35.499c0-12.287-4.42-22.248-9.871-22.248H1256.891z"/>
					</defs>
					<clipPath id="SVGID_8_">
						<use xlink:href="#SVGID_7_"  overflow="visible"/>
					</clipPath>
					
						<linearGradient id="SVGID_9_" gradientUnits="userSpaceOnUse" x1="-357.3618" y1="541.7656" x2="-356.3623" y2="541.7656" gradientTransform="matrix(-19.7471 0 0 19.7471 -5790.1123 -10572.7842)">
						<stop  offset="0" style="stop-color:#CCCDCD"/>
						<stop  offset="0.4731" style="stop-color:#E1E0DF"/>
						<stop  offset="1" style="stop-color:#666767"/>
					</linearGradient>
					<rect x="1247.018" y="13.251" clip-path="url(#SVGID_8_)" fill="url(#SVGID_9_)" width="19.746" height="224.521"/>
				</g>
			</g>
			<g>
				<g>
					<defs>
						<path id="SVGID_10_" d="M27.067,14.87l8.711,5.215c2.28,1.365,3.868,6.018,3.868,11.336v4.387
							c0,11.71-4.676,20.602-9.8,18.642l-12.832-4.926l0.779-36.06l3.464-0.215c0.076-0.002,0.153-0.004,0.231-0.004
							C23.265,13.245,25.372,13.927,27.067,14.87"/>
					</defs>
					<clipPath id="SVGID_11_">
						<use xlink:href="#SVGID_10_"  overflow="visible"/>
					</clipPath>
					
						<linearGradient id="SVGID_12_" gradientUnits="userSpaceOnUse" x1="-581.9624" y1="463.9375" x2="-580.3879" y2="463.9375" gradientTransform="matrix(-21.6016 8.6407 -8.6407 -21.6016 -8513.4063 15076.8682)">
						<stop  offset="0" style="stop-color:#E1E0DF"/>
						<stop  offset="1" style="stop-color:#666767"/>
					</linearGradient>
					<polygon clip-path="url(#SVGID_11_)" fill="url(#SVGID_12_)" points="36.525,-4.342 10.411,19.2 20.137,73.997 46.252,50.457 
											"/>
				</g>
				<g>
					<defs>
						<path id="SVGID_13_" d="M39.645,210.502v2.261c0.002,8.989-2.678,16.851-6.531,19.167l-5.184,3.114
							c-3.011,1.812-6.114,2.728-9.229,2.728l-1.687-35.811l14.651-6.326c0.43-0.186,0.857-0.275,1.277-0.275
							C36.563,195.359,39.645,201.988,39.645,210.502"/>
					</defs>
					<clipPath id="SVGID_14_">
						<use xlink:href="#SVGID_13_"  overflow="visible"/>
					</clipPath>
					
						<linearGradient id="SVGID_15_" gradientUnits="userSpaceOnUse" x1="-732.5283" y1="553.1387" x2="-731.5286" y2="553.1387" gradientTransform="matrix(-14.9609 0 0 -14.9609 -10917.2207 8492.0342)">
						<stop  offset="0" style="stop-color:#E1E0DF"/>
						<stop  offset="1" style="stop-color:#666767"/>
					</linearGradient>
					<rect x="17.015" y="195.359" clip-path="url(#SVGID_14_)" fill="url(#SVGID_15_)" width="22.633" height="42.413"/>
				</g>
				<g>
					<defs>
						<path id="SVGID_16_" d="M18.701,13.251c5.449,0,9.871,9.961,9.871,22.248v180.025c0,12.288-4.42,22.248-9.871,22.248
							c-5.453,0-9.873-9.959-9.873-22.248V35.499C8.829,23.212,13.248,13.251,18.701,13.251L18.701,13.251z"/>
					</defs>
					<clipPath id="SVGID_17_">
						<use xlink:href="#SVGID_16_"  overflow="visible"/>
					</clipPath>
					
						<linearGradient id="SVGID_18_" gradientUnits="userSpaceOnUse" x1="-61.9165" y1="541.7656" x2="-60.9165" y2="541.7656" gradientTransform="matrix(19.7471 0 0 19.7471 1231.5149 -10572.7842)">
						<stop  offset="0" style="stop-color:#CCCDCD"/>
						<stop  offset="0.4731" style="stop-color:#E1E0DF"/>
						<stop  offset="1" style="stop-color:#666767"/>
					</linearGradient>
					<rect x="8.829" y="13.251" clip-path="url(#SVGID_17_)" fill="url(#SVGID_18_)" width="19.744" height="224.521"/>
				</g>
			</g>
		</g>
	</g>
	<path fill="#CECECF" d="M1201.729,225.743c0,7.177-10.32,12.995-23.053,12.995H96.915c-12.732,0-23.053-5.818-23.053-12.995V25.281
		c0-7.177,10.321-12.995,23.053-12.995h1081.761c12.732,0,23.053,5.818,23.053,12.995V225.743z"/>
</g>
<path fill="#393C39" d="M399.081,229.509h788.745c0,0,8.146,2.999,10.859-10.996V84.562c0,0-36.195-31.989-249.76,0
	c0,0-128.5,22.992-207.229,4.998c0,0-159.768-7.997-232.816,17.994c0,0-78.48,24.991-126.441,73.974
	C382.439,181.527,357.807,219.513,399.081,229.509z"/>
<g>
	<text transform="matrix(1.0002 0 0 1 166.7461 62.689)" font-family="'CTCuHeiSJ'" font-size="26.6982">网神</text>
	<text transform="matrix(1.0002 0 0 1 166.7461 82.1724)" fill="#322A27" font-family="'CTCuHeiSJ'" font-size="9.9964">SECWORLD</text>
	<rect x="167.771" y="69.297" width="55.989" height="1.044"/>
</g>
<g>
	<path fill="#3E3D3D" d="M115.674,46.091v4.998c0,0,5.499,7.498,10.248,5.748c0,0,4.749,0.514,11.998-5.241
		c0,0,11.748-7.754,17.497,3.492c0,0,1.25-5.249-3.749-8.997c0,0-5.11-5.248-16.053,2c0,0-6.705,6.675-16.697,2.587L115.674,46.091z
		"/>
	<path fill="#BC3D39" d="M115.674,54.838l-0.499,15.744c0,0,2.999,13.745,16.746,7.997c0,0,13.998-13.245,22.496,0V58.336
		c0,0-3.499-12.216-20.121-1.236C134.295,57.101,122.923,65.834,115.674,54.838z"/>
</g>
<text transform="matrix(1.0002 0 0 1 216.4077 173.3848)" font-family="'CTCuHeiSJ'" font-size="7.9971">USB</text>
<text transform="matrix(1.0002 0 0 1 265.1504 173.3848)" font-family="'CTCuHeiSJ'" font-size="7.9971">AUX</text>
<text transform="matrix(1.0002 0 0 1 314.2632 173.3848)" font-family="'CTCuHeiSJ'" font-size="7.9971">CONSOLE</text>
<rect x="247.772" y="182.349" fill="#999899" width="52.488" height="38.43"/>
<rect x="308.892" y="182.349" fill="#999899" width="52.488" height="38.43"/>
<rect x="408.438" y="184.428" fill="#999899" width="48.198" height="35.288"/>
<rect x="465.317" y="184.428" fill="#999899" width="48.199" height="35.288"/>
<rect x="522.197" y="184.428" fill="#999899" width="48.197" height="35.288"/>
<rect x="579.076" y="184.428" fill="#999899" width="48.197" height="35.288"/>
<rect x="635.955" y="184.428" fill="#999899" width="48.199" height="35.288"/>
<rect x="692.836" y="184.428" fill="#999899" width="48.197" height="35.288"/>
<text transform="matrix(1.0002 0 0 1 422.6255 177.1709)" fill="#FAFAFA" font-family="'CTCuHeiSJ'" font-size="7.3435">ETHO</text>
<text transform="matrix(1.0002 0 0 1 705.9668 177.1709)" fill="#FAFAFA" font-family="'CTCuHeiSJ'" font-size="7.3435">监听口</text>
<text transform="matrix(1.0002 0 0 1 784.916 181.1719)" fill="#FAFAFA" font-family="'CTCuHeiSJ'" font-size="7.3435">监听口</text>
<text transform="matrix(1.0002 0 0 1 851.3613 181.1719)" fill="#FAFAFA" font-family="'CTCuHeiSJ'" font-size="7.3435">监听口</text>
<text transform="matrix(1.0002 0 0 1 649.2803 177.1709)" fill="#FAFAFA" font-family="'CTCuHeiSJ'" font-size="7.3435">监听口</text>
<text transform="matrix(1.0002 0 0 1 592.5938 177.1709)" fill="#FAFAFA" font-family="'CTCuHeiSJ'" font-size="7.3435">监听口</text>
<text transform="matrix(1.0002 0 0 1 535.9082 177.1709)" fill="#FAFAFA" font-family="'CTCuHeiSJ'" font-size="7.3435">监听口</text>
<text transform="matrix(1.0002 0 0 1 479.2227 177.1709)" fill="#FAFAFA" font-family="'CTCuHeiSJ'" font-size="7.3435">备用口</text>
<g>
	<circle fill="#757575" cx="159.186" cy="214.821" r="3.695"/>
	<circle fill="#757575" cx="159.186" cy="191.826" r="3.695"/>
	<text transform="matrix(1.0002 0 0 1 119.2002 194.5186)" font-family="'CTCuHeiSJ'" font-size="7.9971">POWER</text>
	<text transform="matrix(1.0002 0 0 1 119.2002 216.5151)" font-family="'CTCuHeiSJ'" font-size="7.9971">STATUS</text>
</g>
<circle fill="#1C6534" stroke="#202020" stroke-miterlimit="10" cx="827.704" cy="198.01" r="4.665"/>
<circle fill="#1C6534" stroke="#202020" stroke-miterlimit="10" cx="895.504" cy="198.01" r="4.666"/>
<rect x="1058.658" y="31.167" fill="#224586" width="21.996" height="21.992"/>
<polygon fill="#224586" points="1069.656,57.714 1054.104,42.163 1069.656,26.613 1085.211,42.164 "/>
<text transform="matrix(1.0002 0 0 1 1062.9902 50.8364)" fill="#F4F4F4" font-family="'CTCuHeiSJ'" font-size="21.9921">S</text>
<text transform="matrix(1.0002 0 0 1 1093.6504 50.8364)" fill="#224586" font-family="'CTCuHeiSJ'" font-size="14.9946" letter-spacing="1">SecFox</text>
</svg>
