<?xml version="1.0" encoding="utf-8"?>
<!-- Generator: Adobe Illustrator 16.0.0, SVG Export Plug-In . SVG Version: 6.00 Build 0)  -->
<!DOCTYPE svg PUBLIC "-//W3C//DTD SVG 1.1//EN" "http://www.w3.org/Graphics/SVG/1.1/DTD/svg11.dtd">
<svg version="1.1" id="图层_1" xmlns="http://www.w3.org/2000/svg" xmlns:xlink="http://www.w3.org/1999/xlink" x="0px" y="0px"
	 width="1417.32px" height="252.28px" viewBox="0 0 1417.32 252.28" enable-background="new 0 0 1417.32 252.28"
	 xml:space="preserve">
<g>
	<rect x="-0.001" y="-0.001" fill="#3A437B" width="1417.323" height="252.283"/>
	
		<rect x="77.526" y="13.713" fill="#2C366C" stroke="#1B2342" stroke-width="3" stroke-miterlimit="10" width="213.034" height="62"/>
	<rect x="155.531" y="17.713" fill="#FFFFFF" width="127.671" height="52"/>
	<g>
		<radialGradient id="SVGID_1_" cx="353.0786" cy="49.7285" r="10.5269" gradientUnits="userSpaceOnUse">
			<stop  offset="0" style="stop-color:#FFFFFF"/>
			<stop  offset="1" style="stop-color:#FFFFFF"/>
		</radialGradient>
		<circle fill="url(#SVGID_1_)" cx="353.079" cy="49.728" r="10.527"/>
		<polygon fill="#666666" points="347.058,53.205 353.079,42.776 359.1,53.205 353.275,49.257 		"/>
	</g>
	<g>
		
			<radialGradient id="SVGID_2_" cx="-10149.0801" cy="10790.4375" r="10.5269" gradientTransform="matrix(-1 0 0 -1 -9796.001 10892.2734)" gradientUnits="userSpaceOnUse">
			<stop  offset="0" style="stop-color:#FFFFFF"/>
			<stop  offset="1" style="stop-color:#FFFFFF"/>
		</radialGradient>
		<circle fill="url(#SVGID_2_)" cx="353.079" cy="101.836" r="10.526"/>
		<polygon fill="#666666" points="359.101,98.36 353.079,108.789 347.058,98.36 352.882,102.307 		"/>
	</g>
	<g>
		<radialGradient id="SVGID_3_" cx="353.0786" cy="75.2822" r="10.5269" gradientUnits="userSpaceOnUse">
			<stop  offset="0" style="stop-color:#FFFFFF"/>
			<stop  offset="1" style="stop-color:#FFFFFF"/>
		</radialGradient>
		<circle fill="url(#SVGID_3_)" cx="353.079" cy="75.282" r="10.527"/>
		<polygon fill="#666666" points="347.058,78.758 353.079,68.33 359.1,78.758 353.275,74.811 		"/>
	</g>
	<g>
		
			<radialGradient id="SVGID_4_" cx="-10278.0996" cy="229.5938" r="10.5269" gradientTransform="matrix(0 1 -1 0 611.4277 10354.0928)" gradientUnits="userSpaceOnUse">
			<stop  offset="0" style="stop-color:#FFFFFF"/>
			<stop  offset="1" style="stop-color:#FFFFFF"/>
		</radialGradient>
		<circle fill="url(#SVGID_4_)" cx="381.834" cy="75.994" r="10.526"/>
		<polygon fill="#666666" points="378.357,69.972 388.786,75.993 378.357,82.014 382.305,76.19 		"/>
	</g>
	<g>
		
			<radialGradient id="SVGID_5_" cx="407.0737" cy="10782.9531" r="10.5269" gradientTransform="matrix(0 -1 1 0 -10457.5586 481.9072)" gradientUnits="userSpaceOnUse">
			<stop  offset="0" style="stop-color:#FFFFFF"/>
			<stop  offset="1" style="stop-color:#FFFFFF"/>
		</radialGradient>
		<circle fill="url(#SVGID_5_)" cx="325.396" cy="74.833" r="10.526"/>
		<polygon fill="#666666" points="328.871,80.855 318.442,74.833 328.871,68.812 324.924,74.636 		"/>
	</g>
	<g>
		<circle fill="#020202" cx="955.676" cy="81.778" r="4.772"/>
		<circle fill="#020202" cx="967.45" cy="77.005" r="4.773"/>
		<circle fill="#020202" cx="967.45" cy="89.534" r="4.773"/>
		<circle fill="#020202" cx="967.45" cy="101.033" r="4.773"/>
		<circle fill="#020202" cx="955.676" cy="94.307" r="4.772"/>
		<circle fill="#020202" cx="955.676" cy="105.807" r="4.772"/>
		<circle fill="#020202" cx="978.702" cy="81.778" r="4.772"/>
		<circle fill="#020202" cx="990.476" cy="77.005" r="4.773"/>
		<circle fill="#020202" cx="990.476" cy="89.534" r="4.773"/>
		<circle fill="#020202" cx="990.476" cy="101.033" r="4.773"/>
		<circle fill="#020202" cx="978.702" cy="94.307" r="4.772"/>
		<circle fill="#020202" cx="978.702" cy="105.807" r="4.772"/>
		<circle fill="#020202" cx="1001.729" cy="81.778" r="4.772"/>
		<circle fill="#020202" cx="1013.502" cy="77.005" r="4.773"/>
		<circle fill="#020202" cx="1013.502" cy="89.534" r="4.773"/>
		<circle fill="#020202" cx="1013.502" cy="101.033" r="4.773"/>
		<circle fill="#020202" cx="1001.729" cy="94.307" r="4.772"/>
		<circle fill="#020202" cx="1001.729" cy="105.807" r="4.772"/>
		<circle fill="#020202" cx="1024.755" cy="81.778" r="4.772"/>
		<circle fill="#020202" cx="1036.529" cy="77.005" r="4.773"/>
		<circle fill="#020202" cx="1036.529" cy="89.534" r="4.773"/>
		<circle fill="#020202" cx="1036.529" cy="101.033" r="4.773"/>
		<circle fill="#020202" cx="1024.755" cy="94.307" r="4.772"/>
		<circle fill="#020202" cx="1024.755" cy="105.807" r="4.772"/>
		<circle fill="#020202" cx="1047.781" cy="81.778" r="4.772"/>
		<circle fill="#020202" cx="1059.555" cy="77.005" r="4.772"/>
		<circle fill="#020202" cx="1059.555" cy="89.534" r="4.772"/>
		<circle fill="#020202" cx="1059.555" cy="101.033" r="4.772"/>
		<circle fill="#020202" cx="1047.781" cy="94.307" r="4.772"/>
		<circle fill="#020202" cx="1047.781" cy="105.807" r="4.772"/>
		<circle fill="#020202" cx="1070.808" cy="81.778" r="4.772"/>
		<circle fill="#020202" cx="1082.581" cy="77.005" r="4.772"/>
		<circle fill="#020202" cx="1082.581" cy="89.534" r="4.772"/>
		<circle fill="#020202" cx="1082.581" cy="101.033" r="4.772"/>
		<circle fill="#020202" cx="1070.808" cy="94.307" r="4.772"/>
		<circle fill="#020202" cx="1070.808" cy="105.807" r="4.772"/>
		<circle fill="#020202" cx="1093.834" cy="81.778" r="4.772"/>
		<circle fill="#020202" cx="1105.607" cy="77.005" r="4.772"/>
		<circle fill="#020202" cx="1105.607" cy="89.534" r="4.772"/>
		<circle fill="#020202" cx="1105.607" cy="101.033" r="4.772"/>
		<circle fill="#020202" cx="1093.834" cy="94.307" r="4.772"/>
		<circle fill="#020202" cx="1093.834" cy="105.807" r="4.772"/>
		<circle fill="#020202" cx="1116.86" cy="81.778" r="4.772"/>
		<circle fill="#020202" cx="1128.634" cy="77.005" r="4.773"/>
		<circle fill="#020202" cx="1128.634" cy="89.534" r="4.773"/>
		<circle fill="#020202" cx="1128.634" cy="101.033" r="4.773"/>
		<circle fill="#020202" cx="1116.86" cy="94.307" r="4.772"/>
		<circle fill="#020202" cx="1116.86" cy="105.807" r="4.772"/>
		<circle fill="#020202" cx="1139.887" cy="81.778" r="4.772"/>
		<circle fill="#020202" cx="1151.661" cy="77.005" r="4.772"/>
		<circle fill="#020202" cx="1151.661" cy="89.534" r="4.772"/>
		<circle fill="#020202" cx="1151.661" cy="101.033" r="4.772"/>
		<circle fill="#020202" cx="1139.887" cy="94.307" r="4.772"/>
		<circle fill="#020202" cx="1139.887" cy="105.807" r="4.772"/>
		<circle fill="#020202" cx="1162.913" cy="81.778" r="4.772"/>
		<circle fill="#020202" cx="1174.687" cy="77.005" r="4.773"/>
		<circle fill="#020202" cx="1174.687" cy="89.534" r="4.773"/>
		<circle fill="#020202" cx="1174.687" cy="101.033" r="4.773"/>
		<circle fill="#020202" cx="1162.913" cy="94.307" r="4.772"/>
		<circle fill="#020202" cx="1162.913" cy="105.807" r="4.772"/>
		<circle fill="#020202" cx="1185.939" cy="81.778" r="4.772"/>
		<circle fill="#020202" cx="1197.713" cy="77.005" r="4.773"/>
		<circle fill="#020202" cx="1197.713" cy="89.534" r="4.773"/>
		<circle fill="#020202" cx="1197.713" cy="101.033" r="4.773"/>
		<circle fill="#020202" cx="1185.939" cy="94.307" r="4.772"/>
		<circle fill="#020202" cx="1185.939" cy="105.807" r="4.772"/>
		<circle fill="#020202" cx="1208.966" cy="81.778" r="4.772"/>
		<circle fill="#020202" cx="1220.74" cy="77.005" r="4.773"/>
		<circle fill="#020202" cx="1220.74" cy="89.534" r="4.773"/>
		<circle fill="#020202" cx="1220.74" cy="101.033" r="4.773"/>
		<circle fill="#020202" cx="1208.966" cy="94.307" r="4.772"/>
		<circle fill="#020202" cx="1208.966" cy="105.807" r="4.772"/>
		<circle fill="#020202" cx="1231.992" cy="81.778" r="4.772"/>
		<circle fill="#020202" cx="1243.766" cy="77.005" r="4.773"/>
		<circle fill="#020202" cx="1243.766" cy="89.534" r="4.773"/>
		<circle fill="#020202" cx="1243.766" cy="101.033" r="4.773"/>
		<circle fill="#020202" cx="1231.992" cy="94.307" r="4.772"/>
		<circle fill="#020202" cx="1231.992" cy="105.807" r="4.772"/>
		<circle fill="#020202" cx="1255.019" cy="81.778" r="4.772"/>
		<circle fill="#020202" cx="1266.792" cy="77.005" r="4.773"/>
		<circle fill="#020202" cx="1266.792" cy="89.534" r="4.773"/>
		<circle fill="#020202" cx="1266.792" cy="101.033" r="4.773"/>
		<circle fill="#020202" cx="1255.019" cy="94.307" r="4.772"/>
		<circle fill="#020202" cx="1255.019" cy="105.807" r="4.772"/>
		<circle fill="#020202" cx="1278.045" cy="81.778" r="4.772"/>
		<circle fill="#020202" cx="1278.045" cy="94.307" r="4.772"/>
		<circle fill="#020202" cx="1278.045" cy="105.807" r="4.772"/>
	</g>
	<g>
		
			<rect x="461.916" y="124.929" fill="#3A437B" stroke="#252A3A" stroke-width="5" stroke-miterlimit="10" width="215.286" height="114.569"/>
		<g>
			<circle fill="#020202" cx="494.917" cy="178.766" r="4.772"/>
			<circle fill="#020202" cx="494.917" cy="191.293" r="4.772"/>
			<circle fill="#020202" cx="506.691" cy="186.521" r="4.773"/>
			<circle fill="#020202" cx="506.691" cy="199.049" r="4.773"/>
			<circle fill="#020202" cx="494.917" cy="203.822" r="4.772"/>
		</g>
		<g>
			<circle fill="#020202" cx="517.794" cy="178.766" r="4.772"/>
			<circle fill="#020202" cx="517.794" cy="191.293" r="4.772"/>
			<circle fill="#020202" cx="529.567" cy="186.521" r="4.772"/>
			<circle fill="#020202" cx="529.567" cy="199.049" r="4.772"/>
			<circle fill="#020202" cx="517.794" cy="203.822" r="4.772"/>
		</g>
		<g>
			<circle fill="#020202" cx="540.671" cy="178.766" r="4.772"/>
			<circle fill="#020202" cx="540.671" cy="191.293" r="4.772"/>
			<circle fill="#020202" cx="552.445" cy="186.521" r="4.773"/>
			<circle fill="#020202" cx="552.445" cy="199.049" r="4.773"/>
			<circle fill="#020202" cx="540.671" cy="203.822" r="4.772"/>
		</g>
		<g>
			<circle fill="#020202" cx="563.548" cy="178.766" r="4.772"/>
			<circle fill="#020202" cx="563.548" cy="191.293" r="4.772"/>
			<circle fill="#020202" cx="575.321" cy="186.521" r="4.772"/>
			<circle fill="#020202" cx="575.321" cy="199.049" r="4.772"/>
			<circle fill="#020202" cx="563.548" cy="203.822" r="4.772"/>
		</g>
		<g>
			<circle fill="#020202" cx="586.425" cy="178.766" r="4.772"/>
			<circle fill="#020202" cx="586.425" cy="191.293" r="4.772"/>
			<circle fill="#020202" cx="598.198" cy="186.521" r="4.772"/>
			<circle fill="#020202" cx="598.198" cy="199.049" r="4.772"/>
			<circle fill="#020202" cx="586.425" cy="203.822" r="4.772"/>
		</g>
		<g>
			<circle fill="#020202" cx="609.302" cy="178.766" r="4.772"/>
			<circle fill="#020202" cx="609.302" cy="191.293" r="4.772"/>
			<circle fill="#020202" cx="621.076" cy="186.521" r="4.773"/>
			<circle fill="#020202" cx="621.076" cy="199.049" r="4.773"/>
			<circle fill="#020202" cx="609.302" cy="203.822" r="4.772"/>
		</g>
		<g>
			<circle fill="#020202" cx="632.179" cy="178.766" r="4.772"/>
			<circle fill="#020202" cx="632.179" cy="191.293" r="4.772"/>
			<circle fill="#020202" cx="643.952" cy="186.521" r="4.772"/>
			<circle fill="#020202" cx="643.952" cy="199.049" r="4.772"/>
			<circle fill="#020202" cx="632.179" cy="203.822" r="4.772"/>
		</g>
		<linearGradient id="SVGID_6_" gradientUnits="userSpaceOnUse" x1="477.1602" y1="127.4814" x2="609.3018" y2="127.4814">
			<stop  offset="0" style="stop-color:#2F3760"/>
			<stop  offset="0.4731" style="stop-color:#5E74B7"/>
			<stop  offset="1" style="stop-color:#4F5E9E"/>
		</linearGradient>
		
			<rect x="477.16" y="124.93" fill="url(#SVGID_6_)" stroke="#000000" stroke-width="2" stroke-miterlimit="10" width="132.142" height="5.103"/>
		<linearGradient id="SVGID_7_" gradientUnits="userSpaceOnUse" x1="609.3018" y1="126.2939" x2="667.6543" y2="126.2939">
			<stop  offset="0" style="stop-color:#9FA0A0"/>
			<stop  offset="0.2258" style="stop-color:#F7F8F8"/>
			<stop  offset="0.3118" style="stop-color:#727171"/>
			<stop  offset="1" style="stop-color:#9FA0A0"/>
		</linearGradient>
		
			<rect x="609.302" y="119.152" fill="url(#SVGID_7_)" stroke="#000000" stroke-width="2" stroke-miterlimit="10" width="58.353" height="14.284"/>
		
			<rect x="679.595" y="124.929" fill="#3A437B" stroke="#252A3A" stroke-width="5" stroke-miterlimit="10" width="215.286" height="114.569"/>
		<g>
			<circle fill="#020202" cx="712.596" cy="178.766" r="4.772"/>
			<circle fill="#020202" cx="712.596" cy="191.293" r="4.772"/>
			<circle fill="#020202" cx="724.37" cy="186.521" r="4.772"/>
			<circle fill="#020202" cx="724.37" cy="199.049" r="4.772"/>
			<circle fill="#020202" cx="712.596" cy="203.822" r="4.772"/>
		</g>
		<g>
			<circle fill="#020202" cx="735.473" cy="178.766" r="4.773"/>
			<circle fill="#020202" cx="735.473" cy="191.293" r="4.773"/>
			<circle fill="#020202" cx="747.247" cy="186.521" r="4.772"/>
			<circle fill="#020202" cx="747.247" cy="199.049" r="4.772"/>
			<circle fill="#020202" cx="735.473" cy="203.822" r="4.773"/>
		</g>
		<g>
			<circle fill="#020202" cx="758.351" cy="178.766" r="4.772"/>
			<circle fill="#020202" cx="758.351" cy="191.293" r="4.772"/>
			<circle fill="#020202" cx="770.124" cy="186.521" r="4.772"/>
			<circle fill="#020202" cx="770.124" cy="199.049" r="4.772"/>
			<circle fill="#020202" cx="758.351" cy="203.822" r="4.772"/>
		</g>
		<g>
			<circle fill="#020202" cx="781.227" cy="178.766" r="4.772"/>
			<circle fill="#020202" cx="781.227" cy="191.293" r="4.772"/>
			<circle fill="#020202" cx="793.001" cy="186.521" r="4.772"/>
			<circle fill="#020202" cx="793.001" cy="199.049" r="4.772"/>
			<circle fill="#020202" cx="781.227" cy="203.822" r="4.772"/>
		</g>
		<g>
			<circle fill="#020202" cx="804.104" cy="178.766" r="4.773"/>
			<circle fill="#020202" cx="804.104" cy="191.293" r="4.773"/>
			<circle fill="#020202" cx="815.878" cy="186.521" r="4.772"/>
			<circle fill="#020202" cx="815.878" cy="199.049" r="4.772"/>
			<circle fill="#020202" cx="804.104" cy="203.822" r="4.773"/>
		</g>
		<g>
			<circle fill="#020202" cx="826.98" cy="178.766" r="4.772"/>
			<circle fill="#020202" cx="826.98" cy="191.293" r="4.772"/>
			<circle fill="#020202" cx="838.755" cy="186.521" r="4.772"/>
			<circle fill="#020202" cx="838.755" cy="199.049" r="4.772"/>
			<circle fill="#020202" cx="826.98" cy="203.822" r="4.772"/>
		</g>
		<g>
			<circle fill="#020202" cx="849.857" cy="178.766" r="4.772"/>
			<circle fill="#020202" cx="849.857" cy="191.293" r="4.772"/>
			<circle fill="#020202" cx="861.632" cy="186.521" r="4.772"/>
			<circle fill="#020202" cx="861.632" cy="199.049" r="4.772"/>
			<circle fill="#020202" cx="849.857" cy="203.822" r="4.772"/>
		</g>
		<linearGradient id="SVGID_8_" gradientUnits="userSpaceOnUse" x1="694.8398" y1="127.4814" x2="826.9805" y2="127.4814">
			<stop  offset="0" style="stop-color:#2F3760"/>
			<stop  offset="0.4731" style="stop-color:#5E74B7"/>
			<stop  offset="1" style="stop-color:#4F5E9E"/>
		</linearGradient>
		
			<rect x="694.84" y="124.93" fill="url(#SVGID_8_)" stroke="#000000" stroke-width="2" stroke-miterlimit="10" width="132.141" height="5.103"/>
		<linearGradient id="SVGID_9_" gradientUnits="userSpaceOnUse" x1="826.9805" y1="126.2939" x2="885.333" y2="126.2939">
			<stop  offset="0" style="stop-color:#9FA0A0"/>
			<stop  offset="0.2258" style="stop-color:#F7F8F8"/>
			<stop  offset="0.3118" style="stop-color:#727171"/>
			<stop  offset="1" style="stop-color:#9FA0A0"/>
		</linearGradient>
		
			<rect x="826.98" y="119.152" fill="url(#SVGID_9_)" stroke="#000000" stroke-width="2" stroke-miterlimit="10" width="58.353" height="14.284"/>
		
			<rect x="897.274" y="124.929" fill="#3A437B" stroke="#252A3A" stroke-width="5" stroke-miterlimit="10" width="215.286" height="114.569"/>
		<g>
			<circle fill="#020202" cx="930.275" cy="178.766" r="4.772"/>
			<circle fill="#020202" cx="930.275" cy="191.293" r="4.772"/>
			<circle fill="#020202" cx="942.049" cy="186.521" r="4.773"/>
			<circle fill="#020202" cx="942.049" cy="199.049" r="4.773"/>
			<circle fill="#020202" cx="930.275" cy="203.822" r="4.772"/>
		</g>
		<g>
			<circle fill="#020202" cx="953.152" cy="178.766" r="4.772"/>
			<circle fill="#020202" cx="953.152" cy="191.293" r="4.772"/>
			<circle fill="#020202" cx="964.926" cy="186.521" r="4.773"/>
			<circle fill="#020202" cx="964.926" cy="199.049" r="4.773"/>
			<circle fill="#020202" cx="953.152" cy="203.822" r="4.772"/>
		</g>
		<g>
			<circle fill="#020202" cx="976.029" cy="178.766" r="4.772"/>
			<circle fill="#020202" cx="976.029" cy="191.293" r="4.772"/>
			<circle fill="#020202" cx="987.803" cy="186.521" r="4.773"/>
			<circle fill="#020202" cx="987.803" cy="199.049" r="4.773"/>
			<circle fill="#020202" cx="976.029" cy="203.822" r="4.772"/>
		</g>
		<g>
			<circle fill="#020202" cx="998.906" cy="178.766" r="4.772"/>
			<circle fill="#020202" cx="998.906" cy="191.293" r="4.772"/>
			<circle fill="#020202" cx="1010.68" cy="186.521" r="4.772"/>
			<circle fill="#020202" cx="1010.68" cy="199.049" r="4.772"/>
			<circle fill="#020202" cx="998.906" cy="203.822" r="4.772"/>
		</g>
		<g>
			<circle fill="#020202" cx="1021.783" cy="178.766" r="4.772"/>
			<circle fill="#020202" cx="1021.783" cy="191.293" r="4.772"/>
			<circle fill="#020202" cx="1033.557" cy="186.521" r="4.772"/>
			<circle fill="#020202" cx="1033.557" cy="199.049" r="4.772"/>
			<circle fill="#020202" cx="1021.783" cy="203.822" r="4.772"/>
		</g>
		<g>
			<circle fill="#020202" cx="1044.66" cy="178.766" r="4.772"/>
			<circle fill="#020202" cx="1044.66" cy="191.293" r="4.772"/>
			<circle fill="#020202" cx="1056.434" cy="186.521" r="4.773"/>
			<circle fill="#020202" cx="1056.434" cy="199.049" r="4.773"/>
			<circle fill="#020202" cx="1044.66" cy="203.822" r="4.772"/>
		</g>
		<g>
			<circle fill="#020202" cx="1067.537" cy="178.766" r="4.772"/>
			<circle fill="#020202" cx="1067.537" cy="191.293" r="4.772"/>
			<circle fill="#020202" cx="1079.311" cy="186.521" r="4.772"/>
			<circle fill="#020202" cx="1079.311" cy="199.049" r="4.772"/>
			<circle fill="#020202" cx="1067.537" cy="203.822" r="4.772"/>
		</g>
		<linearGradient id="SVGID_10_" gradientUnits="userSpaceOnUse" x1="912.5186" y1="127.4814" x2="1044.6602" y2="127.4814">
			<stop  offset="0" style="stop-color:#2F3760"/>
			<stop  offset="0.4731" style="stop-color:#5E74B7"/>
			<stop  offset="1" style="stop-color:#4F5E9E"/>
		</linearGradient>
		
			<rect x="912.519" y="124.93" fill="url(#SVGID_10_)" stroke="#000000" stroke-width="2" stroke-miterlimit="10" width="132.142" height="5.103"/>
		<linearGradient id="SVGID_11_" gradientUnits="userSpaceOnUse" x1="1044.6602" y1="126.2939" x2="1103.0127" y2="126.2939">
			<stop  offset="0" style="stop-color:#9FA0A0"/>
			<stop  offset="0.2258" style="stop-color:#F7F8F8"/>
			<stop  offset="0.3118" style="stop-color:#727171"/>
			<stop  offset="1" style="stop-color:#9FA0A0"/>
		</linearGradient>
		
			<rect x="1044.66" y="119.152" fill="url(#SVGID_11_)" stroke="#000000" stroke-width="2" stroke-miterlimit="10" width="58.353" height="14.284"/>
		
			<rect x="1114.953" y="124.929" fill="#3A437B" stroke="#252A3A" stroke-width="5" stroke-miterlimit="10" width="215.286" height="114.569"/>
		<g>
			<circle fill="#020202" cx="1147.955" cy="178.766" r="4.772"/>
			<circle fill="#020202" cx="1147.955" cy="191.293" r="4.772"/>
			<circle fill="#020202" cx="1159.729" cy="186.521" r="4.772"/>
			<circle fill="#020202" cx="1159.729" cy="199.049" r="4.772"/>
			<circle fill="#020202" cx="1147.955" cy="203.822" r="4.772"/>
		</g>
		<g>
			<circle fill="#020202" cx="1170.831" cy="178.766" r="4.772"/>
			<circle fill="#020202" cx="1170.831" cy="191.293" r="4.772"/>
			<circle fill="#020202" cx="1182.605" cy="186.521" r="4.772"/>
			<circle fill="#020202" cx="1182.605" cy="199.049" r="4.772"/>
			<circle fill="#020202" cx="1170.831" cy="203.822" r="4.772"/>
		</g>
		<g>
			<circle fill="#020202" cx="1193.709" cy="178.766" r="4.772"/>
			<circle fill="#020202" cx="1193.709" cy="191.293" r="4.772"/>
			<circle fill="#020202" cx="1205.482" cy="186.521" r="4.772"/>
			<circle fill="#020202" cx="1205.482" cy="199.049" r="4.772"/>
			<circle fill="#020202" cx="1193.709" cy="203.822" r="4.772"/>
		</g>
		<g>
			<circle fill="#020202" cx="1216.585" cy="178.766" r="4.772"/>
			<circle fill="#020202" cx="1216.585" cy="191.293" r="4.772"/>
			<circle fill="#020202" cx="1228.359" cy="186.521" r="4.772"/>
			<circle fill="#020202" cx="1228.359" cy="199.049" r="4.772"/>
			<circle fill="#020202" cx="1216.585" cy="203.822" r="4.772"/>
		</g>
		<g>
			<circle fill="#020202" cx="1239.462" cy="178.766" r="4.773"/>
			<circle fill="#020202" cx="1239.462" cy="191.293" r="4.773"/>
			<circle fill="#020202" cx="1251.236" cy="186.521" r="4.772"/>
			<circle fill="#020202" cx="1251.236" cy="199.049" r="4.772"/>
			<circle fill="#020202" cx="1239.462" cy="203.822" r="4.773"/>
		</g>
		<g>
			<circle fill="#020202" cx="1262.339" cy="178.766" r="4.773"/>
			<circle fill="#020202" cx="1262.339" cy="191.293" r="4.773"/>
			<circle fill="#020202" cx="1274.113" cy="186.521" r="4.772"/>
			<circle fill="#020202" cx="1274.113" cy="199.049" r="4.772"/>
			<circle fill="#020202" cx="1262.339" cy="203.822" r="4.773"/>
		</g>
		<g>
			<circle fill="#020202" cx="1285.216" cy="178.766" r="4.772"/>
			<circle fill="#020202" cx="1285.216" cy="191.293" r="4.772"/>
			<circle fill="#020202" cx="1296.99" cy="186.521" r="4.772"/>
			<circle fill="#020202" cx="1296.99" cy="199.049" r="4.772"/>
			<circle fill="#020202" cx="1285.216" cy="203.822" r="4.772"/>
		</g>
		<linearGradient id="SVGID_12_" gradientUnits="userSpaceOnUse" x1="1130.1982" y1="127.4814" x2="1262.3389" y2="127.4814">
			<stop  offset="0" style="stop-color:#2F3760"/>
			<stop  offset="0.4731" style="stop-color:#5E74B7"/>
			<stop  offset="1" style="stop-color:#4F5E9E"/>
		</linearGradient>
		
			<rect x="1130.198" y="124.93" fill="url(#SVGID_12_)" stroke="#000000" stroke-width="2" stroke-miterlimit="10" width="132.141" height="5.103"/>
		<linearGradient id="SVGID_13_" gradientUnits="userSpaceOnUse" x1="1262.3389" y1="126.2939" x2="1320.6914" y2="126.2939">
			<stop  offset="0" style="stop-color:#9FA0A0"/>
			<stop  offset="0.2258" style="stop-color:#F7F8F8"/>
			<stop  offset="0.3118" style="stop-color:#727171"/>
			<stop  offset="1" style="stop-color:#9FA0A0"/>
		</linearGradient>
		
			<rect x="1262.339" y="119.152" fill="url(#SVGID_13_)" stroke="#000000" stroke-width="2" stroke-miterlimit="10" width="58.353" height="14.284"/>
	</g>
	<g>
		
			<rect x="968.001" y="7.818" fill="#2C366C" stroke="#1E2633" stroke-width="3" stroke-miterlimit="10" width="300.755" height="54.358"/>
		<rect x="979.798" y="13.15" fill="#F2EFC2" width="275.16" height="42.593"/>
		<g>
			<path fill="#3073B9" d="M1130.285,47.256h-30.57c-4.237,0-7.885-2.995-8.708-7.152l-2.048-10.343
				c-0.625-3.542,2.249-6.768,6.026-6.768h40.03c3.778,0,6.651,3.226,6.026,6.768l-2.049,10.343
				C1138.17,44.261,1134.524,47.256,1130.285,47.256"/>
			<path fill="none" stroke="#040000" stroke-miterlimit="10" d="M1130.285,47.256h-30.57c-4.237,0-7.885-2.995-8.708-7.152
				l-2.048-10.343c-0.625-3.542,2.249-6.768,6.026-6.768h40.03c3.778,0,6.651,3.226,6.026,6.768l-2.049,10.343
				C1138.17,44.261,1134.524,47.256,1130.285,47.256z"/>
			<path fill="#040000" d="M1100.752,28.497c0,1.382-1.117,2.502-2.494,2.502c-1.378,0-2.494-1.12-2.494-2.502
				c0-1.381,1.116-2.502,2.494-2.502C1099.635,25.995,1100.752,27.116,1100.752,28.497"/>
			<path fill="#040000" d="M1108.306,28.497c0,1.382-1.116,2.502-2.494,2.502s-2.493-1.12-2.493-2.502
				c0-1.381,1.115-2.502,2.493-2.502S1108.306,27.116,1108.306,28.497"/>
			<path fill="#040000" d="M1115.86,28.497c0,1.382-1.118,2.502-2.495,2.502s-2.494-1.12-2.494-2.502
				c0-1.381,1.117-2.502,2.494-2.502S1115.86,27.116,1115.86,28.497"/>
			<path fill="#040000" d="M1123.413,28.497c0,1.382-1.117,2.502-2.494,2.502s-2.493-1.12-2.493-2.502
				c0-1.381,1.116-2.502,2.493-2.502S1123.413,27.116,1123.413,28.497"/>
			<path fill="#040000" d="M1130.968,28.497c0,1.382-1.117,2.502-2.494,2.502s-2.495-1.12-2.495-2.502
				c0-1.381,1.118-2.502,2.495-2.502S1130.968,27.116,1130.968,28.497"/>
			<path fill="#040000" d="M1104.793,35.125c0,1.382-1.118,2.502-2.495,2.502c-1.378,0-2.495-1.12-2.495-2.502
				s1.117-2.502,2.495-2.502C1103.675,32.624,1104.793,33.744,1104.793,35.125"/>
			<path fill="#040000" d="M1112.346,35.125c0,1.382-1.117,2.502-2.494,2.502c-1.378,0-2.494-1.12-2.494-2.502
				s1.116-2.502,2.494-2.502C1111.229,32.624,1112.346,33.744,1112.346,35.125"/>
			<path fill="#040000" d="M1119.899,35.125c0,1.382-1.117,2.502-2.493,2.502c-1.379,0-2.494-1.12-2.494-2.502
				s1.115-2.502,2.494-2.502C1118.782,32.624,1119.899,33.744,1119.899,35.125"/>
			<path fill="#040000" d="M1127.453,35.125c0,1.382-1.117,2.502-2.493,2.502c-1.378,0-2.495-1.12-2.495-2.502
				s1.117-2.502,2.495-2.502C1126.336,32.624,1127.453,33.744,1127.453,35.125"/>
			<path fill="#040000" d="M1135.007,35.125c0,1.382-1.116,2.502-2.493,2.502s-2.494-1.12-2.494-2.502s1.117-2.502,2.494-2.502
				S1135.007,33.744,1135.007,35.125"/>
			<path fill="#040000" d="M1099.981,41.753c0,1.382-1.118,2.503-2.494,2.503c-1.378,0-2.493-1.121-2.493-2.503
				s1.115-2.502,2.493-2.502C1098.863,39.251,1099.981,40.372,1099.981,41.753"/>
			<path fill="#040000" d="M1107.535,41.753c0,1.382-1.116,2.503-2.493,2.503c-1.378,0-2.496-1.121-2.496-2.503
				s1.118-2.502,2.496-2.502C1106.419,39.251,1107.535,40.372,1107.535,41.753"/>
			<path fill="#040000" d="M1115.089,41.753c0,1.382-1.117,2.503-2.494,2.503c-1.378,0-2.495-1.121-2.495-2.503
				s1.117-2.502,2.495-2.502C1113.972,39.251,1115.089,40.372,1115.089,41.753"/>
			<path fill="#040000" d="M1122.644,41.753c0,1.382-1.117,2.503-2.494,2.503c-1.378,0-2.495-1.121-2.495-2.503
				s1.117-2.502,2.495-2.502C1121.526,39.251,1122.644,40.372,1122.644,41.753"/>
			<path fill="#040000" d="M1130.197,41.753c0,1.382-1.117,2.503-2.494,2.503c-1.378,0-2.493-1.121-2.493-2.503
				s1.115-2.502,2.493-2.502C1129.08,39.251,1130.197,40.372,1130.197,41.753"/>
			<path fill="#BDBCBD" d="M1079.397,39.796c-0.537,0-1.038-0.289-1.306-0.754l-2.037-3.527c-0.27-0.467-0.27-1.042,0.002-1.509
				l2.035-3.528c0.271-0.465,0.769-0.754,1.306-0.754h4.076c0.534,0,1.037,0.289,1.304,0.754l2.037,3.529
				c0.27,0.466,0.27,1.041-0.001,1.51l-2.036,3.525c-0.266,0.465-0.767,0.754-1.304,0.754H1079.397z"/>
			<path fill="#8F8E8E" d="M1083.473,30.15c0.386,0,0.744,0.206,0.937,0.541l2.038,3.529c0.192,0.335,0.192,0.747,0,1.081
				l-2.038,3.529c-0.192,0.335-0.551,0.541-0.937,0.541h-4.075c-0.386,0-0.743-0.206-0.937-0.541l-2.038-3.529
				c-0.192-0.334-0.192-0.746,0-1.081l2.038-3.529c0.193-0.335,0.551-0.541,0.937-0.541H1083.473 M1083.473,29.299h-4.075
				c-0.688,0-1.329,0.37-1.675,0.966l-2.036,3.53c-0.345,0.596-0.345,1.335,0,1.932l2.036,3.528
				c0.346,0.597,0.987,0.967,1.675,0.967h4.075c0.688,0,1.328-0.37,1.673-0.967l2.038-3.528c0.344-0.597,0.344-1.336,0-1.932
				l-2.038-3.53C1084.801,29.669,1084.161,29.299,1083.473,29.299"/>
			<path fill="#CCCDCD" d="M1085.528,34.792c0,2.268-1.832,4.106-4.093,4.106c-2.262,0-4.095-1.839-4.095-4.106
				c0-2.267,1.833-4.105,4.095-4.105C1083.696,30.687,1085.528,32.526,1085.528,34.792"/>
			
				<ellipse fill="none" stroke="#8F8E8E" stroke-width="0.25" stroke-miterlimit="10" cx="1081.435" cy="34.792" rx="4.094" ry="4.106"/>
			<path fill="#414244" d="M1083.964,34.792c0,1.401-1.131,2.538-2.529,2.538c-1.396,0-2.528-1.137-2.528-2.538
				c0-1.4,1.133-2.536,2.528-2.536C1082.833,32.256,1083.964,33.392,1083.964,34.792"/>
			
				<ellipse fill="none" stroke="#040000" stroke-width="0.25" stroke-miterlimit="10" cx="1081.435" cy="34.792" rx="2.529" ry="2.538"/>
			<path fill="#8F8E8E" d="M1082.221,34.792c0,0.437-0.351,0.789-0.786,0.789c-0.434,0-0.785-0.353-0.785-0.789
				c0-0.435,0.352-0.788,0.785-0.788C1081.87,34.004,1082.221,34.358,1082.221,34.792"/>
			<path fill="#BDBCBD" d="M1146.528,39.796c-0.537,0-1.036-0.289-1.306-0.754l-2.038-3.527c-0.267-0.467-0.267-1.042,0-1.508
				l2.038-3.529c0.271-0.465,0.769-0.754,1.306-0.754h4.076c0.535,0,1.036,0.289,1.305,0.754l2.038,3.529
				c0.266,0.466,0.266,1.041,0,1.508l-2.038,3.527c-0.266,0.465-0.769,0.754-1.305,0.754H1146.528z"/>
			<path fill="#8F8E8E" d="M1150.604,30.15c0.387,0,0.744,0.206,0.938,0.541l2.037,3.529c0.192,0.335,0.192,0.747,0,1.081
				l-2.037,3.529c-0.193,0.335-0.551,0.541-0.938,0.541h-4.075c-0.387,0-0.744-0.206-0.937-0.541l-2.038-3.529
				c-0.192-0.334-0.192-0.746,0-1.081l2.038-3.529c0.192-0.335,0.55-0.541,0.937-0.541H1150.604 M1150.604,29.299h-4.075
				c-0.688,0-1.329,0.37-1.674,0.966l-2.037,3.53c-0.345,0.596-0.345,1.335,0,1.932l2.037,3.528
				c0.345,0.597,0.985,0.967,1.674,0.967h4.075c0.689,0,1.329-0.37,1.673-0.967l2.038-3.528c0.344-0.597,0.344-1.336,0-1.932
				l-2.038-3.53C1151.933,29.669,1151.293,29.299,1150.604,29.299"/>
			<path fill="#CCCDCD" d="M1152.659,34.792c0,2.268-1.832,4.106-4.093,4.106c-2.262,0-4.094-1.839-4.094-4.106
				c0-2.267,1.832-4.105,4.094-4.105C1150.827,30.687,1152.659,32.526,1152.659,34.792"/>
			
				<ellipse fill="none" stroke="#8F8E8E" stroke-width="0.25" stroke-miterlimit="10" cx="1148.566" cy="34.792" rx="4.093" ry="4.106"/>
			<path fill="#414244" d="M1151.095,34.792c0,1.401-1.132,2.538-2.529,2.538c-1.396,0-2.528-1.137-2.528-2.538
				c0-1.4,1.133-2.536,2.528-2.536C1149.963,32.256,1151.095,33.392,1151.095,34.792"/>
			
				<ellipse fill="none" stroke="#040000" stroke-width="0.25" stroke-miterlimit="10" cx="1148.566" cy="34.792" rx="2.529" ry="2.538"/>
			<path fill="#8F8E8E" d="M1149.352,34.792c0,0.437-0.35,0.789-0.785,0.789s-0.786-0.353-0.786-0.789
				c0-0.435,0.351-0.788,0.786-0.788S1149.352,34.358,1149.352,34.792"/>
		</g>
	</g>
	<g>
		<g>
			
				<rect x="463.865" y="12.726" fill="#393A37" stroke="#020202" stroke-width="5" stroke-miterlimit="10" width="214.384" height="45.658"/>
			<g>
				<rect x="474.904" y="21.623" fill="#060404" width="91.696" height="26.042"/>
				<g>
					
						<radialGradient id="SVGID_14_" cx="-7666.4414" cy="20874.6016" r="34.4249" gradientTransform="matrix(0 0.9147 -0.9576 0 20511.9531 7047.7593)" gradientUnits="userSpaceOnUse">
						<stop  offset="0" style="stop-color:#A1A0A0"/>
						<stop  offset="1" style="stop-color:#262727"/>
					</radialGradient>
					
						<rect x="478.376" y="20.531" fill="url(#SVGID_14_)" stroke="#1E1F1F" stroke-miterlimit="10" width="88.225" height="28.813"/>
					<polygon fill="#0C0C0C" points="566.601,32.849 562.541,30.61 558.482,32.849 558.482,37.325 562.541,39.566 566.601,37.325 
											"/>
					<polygon fill="#0C0C0C" points="556.335,32.849 552.276,30.61 548.215,32.849 548.215,37.325 552.276,39.566 556.335,37.325 
											"/>
					<polygon fill="#0C0C0C" points="546.651,32.849 542.59,30.61 538.533,32.849 538.533,37.325 542.59,39.566 546.651,37.325 
											"/>
					<polygon fill="#0C0C0C" points="536.387,32.849 532.327,30.61 528.268,32.849 528.268,37.325 532.327,39.566 536.387,37.325 
											"/>
					<polygon fill="#0C0C0C" points="526.688,32.849 522.629,30.61 518.568,32.849 518.568,37.325 522.629,39.566 526.688,37.325 
											"/>
					<polygon fill="#0C0C0C" points="516.424,32.849 512.364,30.61 508.304,32.849 508.304,37.325 512.364,39.566 516.424,37.325 
											"/>
					<polygon fill="#0C0C0C" points="506.739,32.849 502.68,30.61 498.62,32.849 498.62,37.325 502.68,39.566 506.739,37.325 					
						"/>
					<polygon fill="#0C0C0C" points="496.477,32.849 492.414,30.61 488.354,32.849 488.354,37.325 492.414,39.566 496.477,37.325 
											"/>
					<polygon fill="#0C0C0C" points="486.556,32.849 482.497,30.61 478.438,32.849 478.438,37.325 482.497,39.566 486.556,37.325 
											"/>
					<polygon fill="#0C0C0C" points="561.72,24.203 557.658,21.963 553.6,24.203 553.6,28.679 557.658,30.918 561.72,28.679 					
						"/>
					<polygon fill="#0C0C0C" points="551.454,24.203 547.393,21.963 543.333,24.203 543.333,28.679 547.393,30.918 551.454,28.679 
											"/>
					<polygon fill="#0C0C0C" points="541.77,24.203 537.71,21.963 533.649,24.203 533.649,28.679 537.71,30.918 541.77,28.679 					
						"/>
					<polygon fill="#0C0C0C" points="531.503,24.203 527.444,21.963 523.384,24.203 523.384,28.679 527.444,30.918 531.503,28.679 
											"/>
					<polygon fill="#0C0C0C" points="521.805,24.203 517.747,21.963 513.685,24.203 513.685,28.679 517.747,30.918 521.805,28.679 
											"/>
					<polygon fill="#0C0C0C" points="511.541,24.203 507.479,21.963 503.42,24.203 503.42,28.679 507.479,30.918 511.541,28.679 
											"/>
					<polygon fill="#0C0C0C" points="501.856,24.203 497.797,21.963 493.737,24.203 493.737,28.679 497.797,30.918 501.856,28.679 
											"/>
					<polygon fill="#0C0C0C" points="491.593,24.203 487.532,21.963 483.472,24.203 483.472,28.679 487.532,30.918 491.593,28.679 
											"/>
					<polygon fill="#0C0C0C" points="561.72,41.119 557.658,38.88 553.6,41.119 553.6,45.596 557.658,47.834 561.72,45.596 					"/>
					<polygon fill="#0C0C0C" points="551.454,41.119 547.393,38.88 543.333,41.119 543.333,45.596 547.393,47.834 551.454,45.596 
											"/>
					<polygon fill="#0C0C0C" points="541.77,41.119 537.71,38.88 533.649,41.119 533.649,45.596 537.71,47.834 541.77,45.596 					
						"/>
					<polygon fill="#0C0C0C" points="531.503,41.119 527.444,38.88 523.384,41.119 523.384,45.596 527.444,47.834 531.503,45.596 
											"/>
					<polygon fill="#0C0C0C" points="521.805,41.119 517.747,38.88 513.685,41.119 513.685,45.596 517.747,47.834 521.805,45.596 
											"/>
					<polygon fill="#0C0C0C" points="511.541,41.119 507.479,38.88 503.42,41.119 503.42,45.596 507.479,47.834 511.541,45.596 
											"/>
					<polygon fill="#0C0C0C" points="501.856,41.119 497.797,38.88 493.737,41.119 493.737,45.596 497.797,47.834 501.856,45.596 
											"/>
					<polygon fill="#0C0C0C" points="491.593,41.119 487.532,38.88 483.472,41.119 483.472,45.596 487.532,47.834 491.593,45.596 
											"/>
				</g>
				<g>
					
						<linearGradient id="SVGID_15_" gradientUnits="userSpaceOnUse" x1="-10621.4902" y1="-1145.0977" x2="-10621.4902" y2="-1149.6396" gradientTransform="matrix(0 1 -1 0 -607.7998 10656.3652)">
						<stop  offset="0.0323" style="stop-color:#231815"/>
						<stop  offset="0.086" style="stop-color:#484949"/>
						<stop  offset="0.8656" style="stop-color:#3C3C3D"/>
						<stop  offset="0.9301" style="stop-color:#484949"/>
						<stop  offset="1" style="stop-color:#585959"/>
					</linearGradient>
					<rect x="537.298" y="20.792" fill="url(#SVGID_15_)" width="4.542" height="28.165"/>
					
						<linearGradient id="SVGID_16_" gradientUnits="userSpaceOnUse" x1="-10621.1035" y1="-1113.7197" x2="-10621.1035" y2="-1118.2617" gradientTransform="matrix(0 1 -1 0 -607.7998 10656.3652)">
						<stop  offset="0.0323" style="stop-color:#231815"/>
						<stop  offset="0.086" style="stop-color:#484949"/>
						<stop  offset="0.5591" style="stop-color:#3C3C3D"/>
						<stop  offset="0.6989" style="stop-color:#484949"/>
						<stop  offset="1" style="stop-color:#585959"/>
					</linearGradient>
					<rect x="505.92" y="21.179" fill="url(#SVGID_16_)" width="4.542" height="28.164"/>
					
						<linearGradient id="SVGID_17_" gradientUnits="userSpaceOnUse" x1="-10621.4902" y1="-1082.2598" x2="-10621.4902" y2="-1086.8027" gradientTransform="matrix(0 1 -1 0 -607.7998 10656.3652)">
						<stop  offset="0.0323" style="stop-color:#231815"/>
						<stop  offset="0.086" style="stop-color:#484949"/>
						<stop  offset="0.5591" style="stop-color:#3C3C3D"/>
						<stop  offset="0.6989" style="stop-color:#484949"/>
						<stop  offset="1" style="stop-color:#585959"/>
					</linearGradient>
					<rect x="474.46" y="20.792" fill="url(#SVGID_17_)" width="4.543" height="28.165"/>
				</g>
			</g>
			<rect x="574.809" y="21.623" fill="#040000" width="6.193" height="27.198"/>
			<rect x="582.101" y="21.623" fill="#F39B5F" width="21.768" height="27.198"/>
			<rect x="588.779" y="25.746" fill="#B14D2B" width="8.41" height="19.67"/>
			<rect x="624.239" y="12.727" fill="#020202" width="1.523" height="45.657"/>
			<rect x="629.755" y="13.108" fill="#020202" width="1.523" height="45.657"/>
			<rect x="630.517" y="17.537" fill="#020202" width="43.961" height="1.061"/>
			<rect x="630.517" y="51.925" fill="#020202" width="43.961" height="1.062"/>
			<rect x="618.592" y="17.537" fill="#020202" width="5.431" height="34.92"/>
			<rect x="674.478" y="15.111" fill="#515591" width="3.771" height="39.527"/>
		</g>
		<g>
			
				<rect x="463.865" y="60.774" fill="#393A37" stroke="#020202" stroke-width="5" stroke-miterlimit="10" width="214.384" height="45.658"/>
			<g>
				<rect x="474.904" y="69.67" fill="#060404" width="91.696" height="26.042"/>
				<g>
					
						<radialGradient id="SVGID_18_" cx="-7613.915" cy="20874.6016" r="34.4249" gradientTransform="matrix(0 0.9147 -0.9576 0 20511.9531 7047.7593)" gradientUnits="userSpaceOnUse">
						<stop  offset="0" style="stop-color:#A1A0A0"/>
						<stop  offset="1" style="stop-color:#262727"/>
					</radialGradient>
					
						<rect x="478.376" y="68.579" fill="url(#SVGID_18_)" stroke="#1E1F1F" stroke-miterlimit="10" width="88.225" height="28.813"/>
					<polygon fill="#0C0C0C" points="566.601,80.897 562.541,78.658 558.482,80.897 558.482,85.373 562.541,87.614 566.601,85.373 
											"/>
					<polygon fill="#0C0C0C" points="556.335,80.897 552.276,78.658 548.215,80.897 548.215,85.373 552.276,87.614 556.335,85.373 
											"/>
					<polygon fill="#0C0C0C" points="546.651,80.897 542.59,78.658 538.533,80.897 538.533,85.373 542.59,87.614 546.651,85.373 
											"/>
					<polygon fill="#0C0C0C" points="536.387,80.897 532.327,78.658 528.268,80.897 528.268,85.373 532.327,87.614 536.387,85.373 
											"/>
					<polygon fill="#0C0C0C" points="526.688,80.897 522.629,78.658 518.568,80.897 518.568,85.373 522.629,87.614 526.688,85.373 
											"/>
					<polygon fill="#0C0C0C" points="516.424,80.897 512.364,78.658 508.304,80.897 508.304,85.373 512.364,87.614 516.424,85.373 
											"/>
					<polygon fill="#0C0C0C" points="506.739,80.897 502.68,78.658 498.62,80.897 498.62,85.373 502.68,87.614 506.739,85.373 					
						"/>
					<polygon fill="#0C0C0C" points="496.477,80.897 492.414,78.658 488.354,80.897 488.354,85.373 492.414,87.614 496.477,85.373 
											"/>
					<polygon fill="#0C0C0C" points="486.556,80.897 482.497,78.658 478.438,80.897 478.438,85.373 482.497,87.614 486.556,85.373 
											"/>
					<polygon fill="#0C0C0C" points="561.72,72.25 557.658,70.011 553.6,72.25 553.6,76.727 557.658,78.966 561.72,76.727 					"/>
					<polygon fill="#0C0C0C" points="551.454,72.25 547.393,70.011 543.333,72.25 543.333,76.727 547.393,78.966 551.454,76.727 
											"/>
					<polygon fill="#0C0C0C" points="541.77,72.25 537.71,70.011 533.649,72.25 533.649,76.727 537.71,78.966 541.77,76.727 					
						"/>
					<polygon fill="#0C0C0C" points="531.503,72.25 527.444,70.011 523.384,72.25 523.384,76.727 527.444,78.966 531.503,76.727 
											"/>
					<polygon fill="#0C0C0C" points="521.805,72.25 517.747,70.011 513.685,72.25 513.685,76.727 517.747,78.966 521.805,76.727 
											"/>
					<polygon fill="#0C0C0C" points="511.541,72.25 507.479,70.011 503.42,72.25 503.42,76.727 507.479,78.966 511.541,76.727 					
						"/>
					<polygon fill="#0C0C0C" points="501.856,72.25 497.797,70.011 493.737,72.25 493.737,76.727 497.797,78.966 501.856,76.727 
											"/>
					<polygon fill="#0C0C0C" points="491.593,72.25 487.532,70.011 483.472,72.25 483.472,76.727 487.532,78.966 491.593,76.727 
											"/>
					<polygon fill="#0C0C0C" points="561.72,89.167 557.658,86.928 553.6,89.167 553.6,93.644 557.658,95.882 561.72,93.644 					
						"/>
					<polygon fill="#0C0C0C" points="551.454,89.167 547.393,86.928 543.333,89.167 543.333,93.644 547.393,95.882 551.454,93.644 
											"/>
					<polygon fill="#0C0C0C" points="541.77,89.167 537.71,86.928 533.649,89.167 533.649,93.644 537.71,95.882 541.77,93.644 					
						"/>
					<polygon fill="#0C0C0C" points="531.503,89.167 527.444,86.928 523.384,89.167 523.384,93.644 527.444,95.882 531.503,93.644 
											"/>
					<polygon fill="#0C0C0C" points="521.805,89.167 517.747,86.928 513.685,89.167 513.685,93.644 517.747,95.882 521.805,93.644 
											"/>
					<polygon fill="#0C0C0C" points="511.541,89.167 507.479,86.928 503.42,89.167 503.42,93.644 507.479,95.882 511.541,93.644 
											"/>
					<polygon fill="#0C0C0C" points="501.856,89.167 497.797,86.928 493.737,89.167 493.737,93.644 497.797,95.882 501.856,93.644 
											"/>
					<polygon fill="#0C0C0C" points="491.593,89.167 487.532,86.928 483.472,89.167 483.472,93.644 487.532,95.882 491.593,93.644 
											"/>
				</g>
				<g>
					
						<linearGradient id="SVGID_19_" gradientUnits="userSpaceOnUse" x1="-10573.4424" y1="-1145.0977" x2="-10573.4424" y2="-1149.6396" gradientTransform="matrix(0 1 -1 0 -607.7998 10656.3652)">
						<stop  offset="0.0323" style="stop-color:#231815"/>
						<stop  offset="0.086" style="stop-color:#484949"/>
						<stop  offset="0.8656" style="stop-color:#3C3C3D"/>
						<stop  offset="0.9301" style="stop-color:#484949"/>
						<stop  offset="1" style="stop-color:#585959"/>
					</linearGradient>
					<rect x="537.298" y="68.84" fill="url(#SVGID_19_)" width="4.542" height="28.165"/>
					
						<linearGradient id="SVGID_20_" gradientUnits="userSpaceOnUse" x1="-10573.0557" y1="-1113.7197" x2="-10573.0557" y2="-1118.2617" gradientTransform="matrix(0 1 -1 0 -607.7998 10656.3652)">
						<stop  offset="0.0323" style="stop-color:#231815"/>
						<stop  offset="0.086" style="stop-color:#484949"/>
						<stop  offset="0.5591" style="stop-color:#3C3C3D"/>
						<stop  offset="0.6989" style="stop-color:#484949"/>
						<stop  offset="1" style="stop-color:#585959"/>
					</linearGradient>
					<rect x="505.92" y="69.227" fill="url(#SVGID_20_)" width="4.542" height="28.164"/>
					
						<linearGradient id="SVGID_21_" gradientUnits="userSpaceOnUse" x1="-10573.4424" y1="-1082.2598" x2="-10573.4424" y2="-1086.8027" gradientTransform="matrix(0 1 -1 0 -607.7998 10656.3652)">
						<stop  offset="0.0323" style="stop-color:#231815"/>
						<stop  offset="0.086" style="stop-color:#484949"/>
						<stop  offset="0.5591" style="stop-color:#3C3C3D"/>
						<stop  offset="0.6989" style="stop-color:#484949"/>
						<stop  offset="1" style="stop-color:#585959"/>
					</linearGradient>
					<rect x="474.46" y="68.84" fill="url(#SVGID_21_)" width="4.543" height="28.165"/>
				</g>
			</g>
			<rect x="574.809" y="69.67" fill="#040000" width="6.193" height="27.198"/>
			<rect x="582.101" y="69.67" fill="#F39B5F" width="21.768" height="27.198"/>
			<rect x="588.779" y="73.793" fill="#B14D2B" width="8.41" height="19.67"/>
			<rect x="624.239" y="60.775" fill="#020202" width="1.523" height="45.657"/>
			<rect x="629.755" y="61.156" fill="#020202" width="1.523" height="45.657"/>
			<rect x="630.517" y="65.584" fill="#020202" width="43.961" height="1.061"/>
			<rect x="630.517" y="99.973" fill="#020202" width="43.961" height="1.062"/>
			<rect x="618.592" y="65.584" fill="#020202" width="5.431" height="34.92"/>
			<rect x="674.478" y="63.159" fill="#515591" width="3.771" height="39.527"/>
		</g>
	</g>
	<g>
		<g>
			
				<rect x="681.036" y="12.726" fill="#393A37" stroke="#020202" stroke-width="5" stroke-miterlimit="10" width="214.384" height="45.658"/>
			<g>
				<rect x="692.075" y="21.623" fill="#060404" width="91.696" height="26.042"/>
				<g>
					
						<radialGradient id="SVGID_22_" cx="-7666.4414" cy="20647.8164" r="34.4236" gradientTransform="matrix(0 0.9147 -0.9576 0 20511.9531 7047.7593)" gradientUnits="userSpaceOnUse">
						<stop  offset="0" style="stop-color:#A1A0A0"/>
						<stop  offset="1" style="stop-color:#262727"/>
					</radialGradient>
					
						<rect x="695.547" y="20.531" fill="url(#SVGID_22_)" stroke="#1E1F1F" stroke-miterlimit="10" width="88.225" height="28.813"/>
					<polygon fill="#0C0C0C" points="783.771,32.849 779.712,30.61 775.653,32.849 775.653,37.325 779.712,39.566 783.771,37.325 
											"/>
					<polygon fill="#0C0C0C" points="773.506,32.849 769.447,30.61 765.386,32.849 765.386,37.325 769.447,39.566 773.506,37.325 
											"/>
					<polygon fill="#0C0C0C" points="763.822,32.849 759.761,30.61 755.704,32.849 755.704,37.325 759.761,39.566 763.822,37.325 
											"/>
					<polygon fill="#0C0C0C" points="753.558,32.849 749.498,30.61 745.438,32.849 745.438,37.325 749.498,39.566 753.558,37.325 
											"/>
					<polygon fill="#0C0C0C" points="743.858,32.849 739.8,30.61 735.739,32.849 735.739,37.325 739.8,39.566 743.858,37.325 					
						"/>
					<polygon fill="#0C0C0C" points="733.595,32.849 729.535,30.61 725.475,32.849 725.475,37.325 729.535,39.566 733.595,37.325 
											"/>
					<polygon fill="#0C0C0C" points="723.91,32.849 719.851,30.61 715.791,32.849 715.791,37.325 719.851,39.566 723.91,37.325 
											"/>
					<polygon fill="#0C0C0C" points="713.647,32.849 709.585,30.61 705.524,32.849 705.524,37.325 709.585,39.566 713.647,37.325 
											"/>
					<polygon fill="#0C0C0C" points="703.727,32.849 699.668,30.61 695.609,32.849 695.609,37.325 699.668,39.566 703.727,37.325 
											"/>
					<polygon fill="#0C0C0C" points="778.891,24.203 774.829,21.963 770.771,24.203 770.771,28.679 774.829,30.918 778.891,28.679 
											"/>
					<polygon fill="#0C0C0C" points="768.625,24.203 764.563,21.963 760.504,24.203 760.504,28.679 764.563,30.918 768.625,28.679 
											"/>
					<polygon fill="#0C0C0C" points="758.94,24.203 754.881,21.963 750.82,24.203 750.82,28.679 754.881,30.918 758.94,28.679 					
						"/>
					<polygon fill="#0C0C0C" points="748.674,24.203 744.615,21.963 740.555,24.203 740.555,28.679 744.615,30.918 748.674,28.679 
											"/>
					<polygon fill="#0C0C0C" points="738.976,24.203 734.918,21.963 730.855,24.203 730.855,28.679 734.918,30.918 738.976,28.679 
											"/>
					<polygon fill="#0C0C0C" points="728.712,24.203 724.65,21.963 720.591,24.203 720.591,28.679 724.65,30.918 728.712,28.679 
											"/>
					<polygon fill="#0C0C0C" points="719.027,24.203 714.968,21.963 710.908,24.203 710.908,28.679 714.968,30.918 719.027,28.679 
											"/>
					<polygon fill="#0C0C0C" points="708.764,24.203 704.703,21.963 700.643,24.203 700.643,28.679 704.703,30.918 708.764,28.679 
											"/>
					<polygon fill="#0C0C0C" points="778.891,41.119 774.829,38.88 770.771,41.119 770.771,45.596 774.829,47.834 778.891,45.596 
											"/>
					<polygon fill="#0C0C0C" points="768.625,41.119 764.563,38.88 760.504,41.119 760.504,45.596 764.563,47.834 768.625,45.596 
											"/>
					<polygon fill="#0C0C0C" points="758.94,41.119 754.881,38.88 750.82,41.119 750.82,45.596 754.881,47.834 758.94,45.596 					
						"/>
					<polygon fill="#0C0C0C" points="748.674,41.119 744.615,38.88 740.555,41.119 740.555,45.596 744.615,47.834 748.674,45.596 
											"/>
					<polygon fill="#0C0C0C" points="738.976,41.119 734.918,38.88 730.855,41.119 730.855,45.596 734.918,47.834 738.976,45.596 
											"/>
					<polygon fill="#0C0C0C" points="728.712,41.119 724.65,38.88 720.591,41.119 720.591,45.596 724.65,47.834 728.712,45.596 
											"/>
					<polygon fill="#0C0C0C" points="719.027,41.119 714.968,38.88 710.908,41.119 710.908,45.596 714.968,47.834 719.027,45.596 
											"/>
					<polygon fill="#0C0C0C" points="708.764,41.119 704.703,38.88 700.643,41.119 700.643,45.596 704.703,47.834 708.764,45.596 
											"/>
				</g>
				<g>
					
						<linearGradient id="SVGID_23_" gradientUnits="userSpaceOnUse" x1="-10621.4902" y1="-1362.2686" x2="-10621.4902" y2="-1366.8105" gradientTransform="matrix(0 1 -1 0 -607.7998 10656.3652)">
						<stop  offset="0.0323" style="stop-color:#231815"/>
						<stop  offset="0.086" style="stop-color:#484949"/>
						<stop  offset="0.8656" style="stop-color:#3C3C3D"/>
						<stop  offset="0.9301" style="stop-color:#484949"/>
						<stop  offset="1" style="stop-color:#585959"/>
					</linearGradient>
					<rect x="754.469" y="20.792" fill="url(#SVGID_23_)" width="4.542" height="28.165"/>
					
						<linearGradient id="SVGID_24_" gradientUnits="userSpaceOnUse" x1="-10621.1035" y1="-1330.8906" x2="-10621.1035" y2="-1335.4326" gradientTransform="matrix(0 1 -1 0 -607.7998 10656.3652)">
						<stop  offset="0.0323" style="stop-color:#231815"/>
						<stop  offset="0.086" style="stop-color:#484949"/>
						<stop  offset="0.5591" style="stop-color:#3C3C3D"/>
						<stop  offset="0.6989" style="stop-color:#484949"/>
						<stop  offset="1" style="stop-color:#585959"/>
					</linearGradient>
					<rect x="723.091" y="21.179" fill="url(#SVGID_24_)" width="4.542" height="28.164"/>
					
						<linearGradient id="SVGID_25_" gradientUnits="userSpaceOnUse" x1="-10621.4902" y1="-1299.4307" x2="-10621.4902" y2="-1303.9736" gradientTransform="matrix(0 1 -1 0 -607.7998 10656.3652)">
						<stop  offset="0.0323" style="stop-color:#231815"/>
						<stop  offset="0.086" style="stop-color:#484949"/>
						<stop  offset="0.5591" style="stop-color:#3C3C3D"/>
						<stop  offset="0.6989" style="stop-color:#484949"/>
						<stop  offset="1" style="stop-color:#585959"/>
					</linearGradient>
					<rect x="691.631" y="20.792" fill="url(#SVGID_25_)" width="4.543" height="28.165"/>
				</g>
			</g>
			<rect x="791.979" y="21.623" fill="#040000" width="6.193" height="27.198"/>
			<rect x="799.271" y="21.623" fill="#F39B5F" width="21.768" height="27.198"/>
			<rect x="805.95" y="25.746" fill="#B14D2B" width="8.41" height="19.67"/>
			<rect x="841.41" y="12.727" fill="#020202" width="1.523" height="45.657"/>
			<rect x="846.926" y="13.108" fill="#020202" width="1.523" height="45.657"/>
			<rect x="847.688" y="17.537" fill="#020202" width="43.961" height="1.061"/>
			<rect x="847.688" y="51.925" fill="#020202" width="43.961" height="1.062"/>
			<rect x="835.763" y="17.537" fill="#020202" width="5.431" height="34.92"/>
			<rect x="891.648" y="15.111" fill="#515591" width="3.771" height="39.527"/>
		</g>
		<g>
			
				<rect x="681.036" y="60.774" fill="#393A37" stroke="#020202" stroke-width="5" stroke-miterlimit="10" width="214.384" height="45.658"/>
			<g>
				<rect x="692.075" y="69.67" fill="#060404" width="91.696" height="26.042"/>
				<g>
					
						<radialGradient id="SVGID_26_" cx="-7613.915" cy="20647.8164" r="34.4236" gradientTransform="matrix(0 0.9147 -0.9576 0 20511.9531 7047.7593)" gradientUnits="userSpaceOnUse">
						<stop  offset="0" style="stop-color:#A1A0A0"/>
						<stop  offset="1" style="stop-color:#262727"/>
					</radialGradient>
					
						<rect x="695.547" y="68.579" fill="url(#SVGID_26_)" stroke="#1E1F1F" stroke-miterlimit="10" width="88.225" height="28.813"/>
					<polygon fill="#0C0C0C" points="783.771,80.897 779.712,78.658 775.653,80.897 775.653,85.373 779.712,87.614 783.771,85.373 
											"/>
					<polygon fill="#0C0C0C" points="773.506,80.897 769.447,78.658 765.386,80.897 765.386,85.373 769.447,87.614 773.506,85.373 
											"/>
					<polygon fill="#0C0C0C" points="763.822,80.897 759.761,78.658 755.704,80.897 755.704,85.373 759.761,87.614 763.822,85.373 
											"/>
					<polygon fill="#0C0C0C" points="753.558,80.897 749.498,78.658 745.438,80.897 745.438,85.373 749.498,87.614 753.558,85.373 
											"/>
					<polygon fill="#0C0C0C" points="743.858,80.897 739.8,78.658 735.739,80.897 735.739,85.373 739.8,87.614 743.858,85.373 					
						"/>
					<polygon fill="#0C0C0C" points="733.595,80.897 729.535,78.658 725.475,80.897 725.475,85.373 729.535,87.614 733.595,85.373 
											"/>
					<polygon fill="#0C0C0C" points="723.91,80.897 719.851,78.658 715.791,80.897 715.791,85.373 719.851,87.614 723.91,85.373 
											"/>
					<polygon fill="#0C0C0C" points="713.647,80.897 709.585,78.658 705.524,80.897 705.524,85.373 709.585,87.614 713.647,85.373 
											"/>
					<polygon fill="#0C0C0C" points="703.727,80.897 699.668,78.658 695.609,80.897 695.609,85.373 699.668,87.614 703.727,85.373 
											"/>
					<polygon fill="#0C0C0C" points="778.891,72.25 774.829,70.011 770.771,72.25 770.771,76.727 774.829,78.966 778.891,76.727 
											"/>
					<polygon fill="#0C0C0C" points="768.625,72.25 764.563,70.011 760.504,72.25 760.504,76.727 764.563,78.966 768.625,76.727 
											"/>
					<polygon fill="#0C0C0C" points="758.94,72.25 754.881,70.011 750.82,72.25 750.82,76.727 754.881,78.966 758.94,76.727 					
						"/>
					<polygon fill="#0C0C0C" points="748.674,72.25 744.615,70.011 740.555,72.25 740.555,76.727 744.615,78.966 748.674,76.727 
											"/>
					<polygon fill="#0C0C0C" points="738.976,72.25 734.918,70.011 730.855,72.25 730.855,76.727 734.918,78.966 738.976,76.727 
											"/>
					<polygon fill="#0C0C0C" points="728.712,72.25 724.65,70.011 720.591,72.25 720.591,76.727 724.65,78.966 728.712,76.727 					
						"/>
					<polygon fill="#0C0C0C" points="719.027,72.25 714.968,70.011 710.908,72.25 710.908,76.727 714.968,78.966 719.027,76.727 
											"/>
					<polygon fill="#0C0C0C" points="708.764,72.25 704.703,70.011 700.643,72.25 700.643,76.727 704.703,78.966 708.764,76.727 
											"/>
					<polygon fill="#0C0C0C" points="778.891,89.167 774.829,86.928 770.771,89.167 770.771,93.644 774.829,95.882 778.891,93.644 
											"/>
					<polygon fill="#0C0C0C" points="768.625,89.167 764.563,86.928 760.504,89.167 760.504,93.644 764.563,95.882 768.625,93.644 
											"/>
					<polygon fill="#0C0C0C" points="758.94,89.167 754.881,86.928 750.82,89.167 750.82,93.644 754.881,95.882 758.94,93.644 					
						"/>
					<polygon fill="#0C0C0C" points="748.674,89.167 744.615,86.928 740.555,89.167 740.555,93.644 744.615,95.882 748.674,93.644 
											"/>
					<polygon fill="#0C0C0C" points="738.976,89.167 734.918,86.928 730.855,89.167 730.855,93.644 734.918,95.882 738.976,93.644 
											"/>
					<polygon fill="#0C0C0C" points="728.712,89.167 724.65,86.928 720.591,89.167 720.591,93.644 724.65,95.882 728.712,93.644 
											"/>
					<polygon fill="#0C0C0C" points="719.027,89.167 714.968,86.928 710.908,89.167 710.908,93.644 714.968,95.882 719.027,93.644 
											"/>
					<polygon fill="#0C0C0C" points="708.764,89.167 704.703,86.928 700.643,89.167 700.643,93.644 704.703,95.882 708.764,93.644 
											"/>
				</g>
				<g>
					
						<linearGradient id="SVGID_27_" gradientUnits="userSpaceOnUse" x1="-10573.4424" y1="-1362.2686" x2="-10573.4424" y2="-1366.8105" gradientTransform="matrix(0 1 -1 0 -607.7998 10656.3652)">
						<stop  offset="0.0323" style="stop-color:#231815"/>
						<stop  offset="0.086" style="stop-color:#484949"/>
						<stop  offset="0.8656" style="stop-color:#3C3C3D"/>
						<stop  offset="0.9301" style="stop-color:#484949"/>
						<stop  offset="1" style="stop-color:#585959"/>
					</linearGradient>
					<rect x="754.469" y="68.84" fill="url(#SVGID_27_)" width="4.542" height="28.165"/>
					
						<linearGradient id="SVGID_28_" gradientUnits="userSpaceOnUse" x1="-10573.0557" y1="-1330.8906" x2="-10573.0557" y2="-1335.4326" gradientTransform="matrix(0 1 -1 0 -607.7998 10656.3652)">
						<stop  offset="0.0323" style="stop-color:#231815"/>
						<stop  offset="0.086" style="stop-color:#484949"/>
						<stop  offset="0.5591" style="stop-color:#3C3C3D"/>
						<stop  offset="0.6989" style="stop-color:#484949"/>
						<stop  offset="1" style="stop-color:#585959"/>
					</linearGradient>
					<rect x="723.091" y="69.227" fill="url(#SVGID_28_)" width="4.542" height="28.164"/>
					
						<linearGradient id="SVGID_29_" gradientUnits="userSpaceOnUse" x1="-10573.4424" y1="-1299.4307" x2="-10573.4424" y2="-1303.9736" gradientTransform="matrix(0 1 -1 0 -607.7998 10656.3652)">
						<stop  offset="0.0323" style="stop-color:#231815"/>
						<stop  offset="0.086" style="stop-color:#484949"/>
						<stop  offset="0.5591" style="stop-color:#3C3C3D"/>
						<stop  offset="0.6989" style="stop-color:#484949"/>
						<stop  offset="1" style="stop-color:#585959"/>
					</linearGradient>
					<rect x="691.631" y="68.84" fill="url(#SVGID_29_)" width="4.543" height="28.165"/>
				</g>
			</g>
			<rect x="791.979" y="69.67" fill="#040000" width="6.193" height="27.198"/>
			<rect x="799.271" y="69.67" fill="#F39B5F" width="21.768" height="27.198"/>
			<rect x="805.95" y="73.793" fill="#B14D2B" width="8.41" height="19.67"/>
			<rect x="841.41" y="60.775" fill="#020202" width="1.523" height="45.657"/>
			<rect x="846.926" y="61.156" fill="#020202" width="1.523" height="45.657"/>
			<rect x="847.688" y="65.584" fill="#020202" width="43.961" height="1.061"/>
			<rect x="847.688" y="99.973" fill="#020202" width="43.961" height="1.062"/>
			<rect x="835.763" y="65.584" fill="#020202" width="5.431" height="34.92"/>
			<rect x="891.648" y="63.159" fill="#515591" width="3.771" height="39.527"/>
		</g>
	</g>
	<g>
		<g>
			<rect x="65.827" y="-0.001" width="3.667" height="252.283"/>
			<rect x="69.66" y="-0.001" fill="#6E7EB7" width="3.667" height="252.283"/>
		</g>
		<linearGradient id="SVGID_30_" gradientUnits="userSpaceOnUse" x1="9.6514" y1="126.1406" x2="56.708" y2="126.1406">
			<stop  offset="0" style="stop-color:#9FA0A0"/>
			<stop  offset="0.4624" style="stop-color:#F7F8F8"/>
			<stop  offset="1" style="stop-color:#9FA0A0"/>
		</linearGradient>
		<path fill="url(#SVGID_30_)" stroke="#000000" stroke-width="2" stroke-miterlimit="10" d="M56.708,229.635
			c0,8.283-6.716,15-15,15H24.651c-8.284,0-15-6.717-15-15V22.646c0-8.284,6.716-15,15-15h17.057c8.284,0,15,6.716,15,15V229.635z"
			/>
	</g>
	<g>
		<g>
			<rect x="1349.013" y="-0.001" width="3.667" height="252.283"/>
			<rect x="1345.179" y="-0.001" fill="#6E7EB7" width="3.668" height="252.283"/>
		</g>
		
			<linearGradient id="SVGID_31_" gradientUnits="userSpaceOnUse" x1="-6586.8545" y1="126.1406" x2="-6539.7979" y2="126.1406" gradientTransform="matrix(-1 0 0 1 -5178 0)">
			<stop  offset="0" style="stop-color:#9FA0A0"/>
			<stop  offset="0.4624" style="stop-color:#F7F8F8"/>
			<stop  offset="1" style="stop-color:#9FA0A0"/>
		</linearGradient>
		<path fill="url(#SVGID_31_)" stroke="#000000" stroke-width="2" stroke-miterlimit="10" d="M1361.798,229.635
			c0,8.283,6.716,15,15,15h17.057c8.284,0,15-6.717,15-15V22.646c0-8.284-6.716-15-15-15h-17.057c-8.284,0-15,6.716-15,15V229.635z"
			/>
	</g>
	<g>
		<radialGradient id="SVGID_32_" cx="87.5762" cy="211.9629" r="7.9102" gradientUnits="userSpaceOnUse">
			<stop  offset="0" style="stop-color:#FFFFFF"/>
			<stop  offset="1" style="stop-color:#898989"/>
		</radialGradient>
		<circle fill="url(#SVGID_32_)" stroke="#030000" stroke-width="2" stroke-miterlimit="10" cx="87.576" cy="211.963" r="7.91"/>
		<radialGradient id="SVGID_33_" cx="110.5703" cy="211.9629" r="7.9102" gradientUnits="userSpaceOnUse">
			<stop  offset="0" style="stop-color:#FFFFFF"/>
			<stop  offset="1" style="stop-color:#8DC21F"/>
		</radialGradient>
		<circle fill="url(#SVGID_33_)" stroke="#030000" stroke-width="2" stroke-miterlimit="10" cx="110.57" cy="211.963" r="7.91"/>
		<radialGradient id="SVGID_34_" cx="133.5649" cy="211.9629" r="7.9099" gradientUnits="userSpaceOnUse">
			<stop  offset="0" style="stop-color:#FFFFFF"/>
			<stop  offset="1" style="stop-color:#8DC21F"/>
		</radialGradient>
		<circle fill="url(#SVGID_34_)" stroke="#030000" stroke-width="2" stroke-miterlimit="10" cx="133.565" cy="211.963" r="7.91"/>
		<g>
			<rect x="151.062" y="178.691" fill="#3F3F3F" stroke="#161616" stroke-miterlimit="10" width="46.404" height="25.09"/>
			<radialGradient id="SVGID_35_" cx="189.7988" cy="191.2354" r="4.0275" gradientUnits="userSpaceOnUse">
				<stop  offset="0" style="stop-color:#FFFFFF"/>
				<stop  offset="1" style="stop-color:#898989"/>
			</radialGradient>
			
				<rect x="187.799" y="185.902" fill="url(#SVGID_35_)" stroke="#030000" stroke-width="0.1" stroke-miterlimit="10" width="4" height="10.666"/>
		</g>
		<g>
			<rect x="151.062" y="207.053" fill="#3F3F3F" stroke="#161616" stroke-miterlimit="10" width="46.404" height="25.09"/>
			<radialGradient id="SVGID_36_" cx="189.7988" cy="219.5986" r="4.0275" gradientUnits="userSpaceOnUse">
				<stop  offset="0" style="stop-color:#FFFFFF"/>
				<stop  offset="1" style="stop-color:#898989"/>
			</radialGradient>
			
				<rect x="187.799" y="214.266" fill="url(#SVGID_36_)" stroke="#030000" stroke-width="0.1" stroke-miterlimit="10" width="4" height="10.666"/>
		</g>
		
			<rect x="200.799" y="173.631" fill="#B7B6B6" stroke="#000000" stroke-width="2" stroke-miterlimit="10" width="60.513" height="60.512"/>
		
			<rect x="265.466" y="173.631" fill="#B7B6B6" stroke="#000000" stroke-width="2" stroke-miterlimit="10" width="60.513" height="60.512"/>
		
			<rect x="330.133" y="173.631" fill="#B7B6B6" stroke="#000000" stroke-width="2" stroke-miterlimit="10" width="60.513" height="60.512"/>
		<g>
			<g>
				<rect x="211.102" y="188.98" fill="#B7B7B7" width="36.668" height="28.484"/>
				<path fill="#070404" d="M210.102,187.98h38.668v30.484h-38.668V187.98z M246.77,189.98h-34.668v26.484h34.668V189.98z"/>
			</g>
			<g>
				<polygon fill="#050001" points="212.818,203.16 212.818,201.867 214.11,201.867 214.11,197.529 221.312,197.529 
					221.312,193.744 225.004,193.744 225.004,189.59 226.942,189.59 228.081,189.59 230.79,189.59 231.836,189.59 233.867,189.59 
					233.867,193.744 237.56,193.744 237.56,197.529 244.759,197.529 244.759,201.867 246.053,201.867 246.053,203.16 
					243.899,203.16 243.899,208.791 246.053,208.791 246.053,209.898 244.822,209.898 244.822,213.869 231.836,213.869 
					230.79,213.869 228.081,213.869 226.942,213.869 213.989,213.869 213.989,209.898 212.818,209.898 212.818,208.791 
					214.787,208.791 214.787,203.16 				"/>
			</g>
			<g>
				<rect x="238.002" y="193.756" fill="#878887" width="7.883" height="3.063"/>
			</g>
			<g>
				<rect x="212.818" y="193.756" fill="#878887" width="7.885" height="3.063"/>
			</g>
		</g>
		<g>
			<g>
				<rect x="276.53" y="188.98" fill="#B7B7B7" width="36.667" height="28.484"/>
				<path fill="#070404" d="M275.53,187.98h38.667v30.484H275.53V187.98z M312.197,189.98H277.53v26.484h34.667V189.98z"/>
			</g>
			<g>
				<polygon fill="#050001" points="278.247,203.16 278.247,201.867 279.539,201.867 279.539,197.529 286.739,197.529 
					286.739,193.744 290.433,193.744 290.433,189.59 292.371,189.59 293.51,189.59 296.218,189.59 297.264,189.59 299.296,189.59 
					299.296,193.744 302.988,193.744 302.988,197.529 310.188,197.529 310.188,201.867 311.48,201.867 311.48,203.16 
					309.327,203.16 309.327,208.791 311.48,208.791 311.48,209.898 310.25,209.898 310.25,213.869 297.264,213.869 296.218,213.869 
					293.51,213.869 292.371,213.869 279.417,213.869 279.417,209.898 278.247,209.898 278.247,208.791 280.216,208.791 
					280.216,203.16 				"/>
			</g>
			<g>
				<rect x="303.431" y="193.756" fill="#878887" width="7.883" height="3.063"/>
			</g>
			<g>
				<rect x="278.247" y="193.756" fill="#878887" width="7.885" height="3.063"/>
			</g>
		</g>
		<g>
			<g>
				<rect x="341.958" y="188.98" fill="#B7B7B7" width="36.668" height="28.484"/>
				<path fill="#070404" d="M340.958,187.98h38.668v30.484h-38.668V187.98z M377.626,189.98h-34.668v26.484h34.668V189.98z"/>
			</g>
			<g>
				<polygon fill="#050001" points="343.675,203.16 343.675,201.867 344.967,201.867 344.967,197.529 352.168,197.529 
					352.168,193.744 355.86,193.744 355.86,189.59 357.799,189.59 358.938,189.59 361.646,189.59 362.692,189.59 364.724,189.59 
					364.724,193.744 368.416,193.744 368.416,197.529 375.615,197.529 375.615,201.867 376.909,201.867 376.909,203.16 
					374.756,203.16 374.756,208.791 376.909,208.791 376.909,209.898 375.678,209.898 375.678,213.869 362.692,213.869 
					361.646,213.869 358.938,213.869 357.799,213.869 344.846,213.869 344.846,209.898 343.675,209.898 343.675,208.791 
					345.644,208.791 345.644,203.16 				"/>
			</g>
			<g>
				<rect x="368.858" y="193.756" fill="#878887" width="7.883" height="3.063"/>
			</g>
			<g>
				<rect x="343.675" y="193.756" fill="#878887" width="7.885" height="3.063"/>
			</g>
		</g>
		<g>
			<path fill="#FDFEFF" d="M186.63,243.58l-2.341-1.398v1.043h-10.478h-0.933h-0.84l2.376-2.379c0.217-0.219,0.516-0.34,0.817-0.34
				h2.101c0.19,0.434,0.627,0.736,1.133,0.736c0.681,0,1.233-0.551,1.233-1.234c0-0.682-0.553-1.234-1.233-1.234
				c-0.607,0-1.108,0.434-1.215,1.012h-2.019c-0.492,0-0.974,0.199-1.326,0.551l-2.556,2.557c-0.212,0.213-0.498,0.332-0.797,0.332
				h-0.315h-0.83c-0.169-0.932-0.983-1.637-1.959-1.637c-1.105,0-2,0.891-2,1.992c0,1.105,0.895,1.996,2,1.996
				c0.976,0,1.79-0.705,1.959-1.633h0.83h0.315h2.325h0.933c0.302,0,0.583,0.115,0.792,0.324l2.452,2.451
				c0.353,0.354,0.821,0.549,1.318,0.549h1.771v0.936h2.342v-2.342h-2.342v0.686h-1.771c-0.306,0-0.593-0.119-0.811-0.34
				l-2.267-2.264h8.992v1.041L186.63,243.58z"/>
		</g>
	</g>
</g>
</svg>
