<?xml version="1.0" encoding="utf-8"?>
<!-- Generator: Adobe Illustrator 16.0.0, SVG Export Plug-In . SVG Version: 6.00 Build 0)  -->
<!DOCTYPE svg PUBLIC "-//W3C//DTD SVG 1.1//EN" "http://www.w3.org/Graphics/SVG/1.1/DTD/svg11.dtd">
<svg version="1.1" id="图层_1" xmlns="http://www.w3.org/2000/svg" xmlns:xlink="http://www.w3.org/1999/xlink" x="0px" y="0px"
	 width="1275.59px" height="126.14px" viewBox="0 0 1275.59 126.14" enable-background="new 0 0 1275.59 126.14"
	 xml:space="preserve">
<g>
	<rect fill="#1C305F" width="1275.59" height="126.142"/>
	<g>
		<g>
			<rect fill="#0A1422" width="1275.59" height="3"/>
			<rect y="2" fill="#040204" width="1275.59" height="1"/>
		</g>
		<g>
			<rect fill="#0A1422" width="3" height="126.142"/>
			<rect x="2" fill="#040204" width="1" height="126.142"/>
		</g>
		<g>
			<rect x="1272.59" fill="#0A1422" width="3" height="126.142"/>
			<rect x="1272.59" fill="#040204" width="1" height="126.142"/>
		</g>
		<g>
			<path fill="#06061C" d="M1115.702,26.58v11.75c0,0,2.563,4.875,7.375,4.688c0,0,5.313,0.313,6.938-4.75V26.58
				c0,0,0.063-2.5-2.188-2.563c0,0-2.125,0.063-2.125,2.563l0.125,10.875c0,0-1.125,1.375-2.969,1.438c0,0-1.406,0.25-2.656-1.375
				v-11c0,0,0-2.438-2.125-2.5C1118.077,24.017,1115.702,23.767,1115.702,26.58z"/>
			<path fill="#06061C" d="M1132.89,27.205v14.063c0,0,0.75,1.823,2.375,1.755c0,0,2.188-0.068,2.25-1.568v-13.5
				c0,0,3.75-1.375,5.375,1v12c0,0,0.688,1.75,2.75,1.75c0,0,2.5-0.063,2.5-1.563V28.83c0,0-1.375-5.688-8.375-5.5
				C1139.765,23.33,1132.89,23.017,1132.89,27.205z"/>
			<path fill="#06061C" d="M1149.515,30.08c0,0,3.875,5.938,4.375,11.563c0,0,2.875,3.688,5.688,0l5.438-14.688
				c0,0,0.188-1.699-2.375-2.943c0,0-1.313-0.37-2.188,2.505c0,0-2.563,8.438-3.688,9.5l-3.313-10.813
				C1153.452,25.205,1147.827,22.955,1149.515,30.08z"/>
			<path fill="#06061C" d="M1129.265,20.767c0,0,3.438-4.313,9.75-4.75c0,0,7.5-0.563,11.375,3.25
				C1150.39,19.267,1135.015,18.017,1129.265,20.767z"/>
		</g>
		<g>
			<path fill="#D1D3D1" d="M1115.702,25.579v11.75c0,0,2.563,4.875,7.375,4.688c0,0,5.313,0.313,6.938-4.75V25.579
				c0,0,0.063-2.5-2.188-2.563c0,0-2.125,0.063-2.125,2.563l0.125,10.875c0,0-1.125,1.375-2.969,1.438c0,0-1.406,0.25-2.656-1.375
				v-11c0,0,0-2.438-2.125-2.5C1118.077,23.017,1115.702,22.767,1115.702,25.579z"/>
			<path fill="#D1D3D1" d="M1132.89,26.204v14.063c0,0,0.75,1.823,2.375,1.755c0,0,2.188-0.068,2.25-1.568v-13.5
				c0,0,3.75-1.375,5.375,1v12c0,0,0.688,1.75,2.75,1.75c0,0,2.5-0.063,2.5-1.563V27.829c0,0-1.375-5.688-8.375-5.5
				C1139.765,22.329,1132.89,22.017,1132.89,26.204z"/>
			<path fill="#D1D3D1" d="M1149.515,29.079c0,0,3.875,5.938,4.375,11.563c0,0,2.875,3.688,5.688,0l5.438-14.688
				c0,0,0.188-1.699-2.375-2.943c0,0-1.313-0.369-2.188,2.506c0,0-2.563,8.438-3.688,9.5l-3.313-10.813
				C1153.452,24.204,1147.827,21.954,1149.515,29.079z"/>
			<path fill="#D1D3D1" d="M1129.265,19.767c0,0,3.438-4.313,9.75-4.75c0,0,7.5-0.563,11.375,3.25
				C1150.39,18.267,1135.015,17.017,1129.265,19.767z"/>
		</g>
		
			<linearGradient id="SVGID_1_" gradientUnits="userSpaceOnUse" x1="637.7944" y1="-14622.1426" x2="637.7944" y2="-14629.5176" gradientTransform="matrix(1 0 0 -1 0 -14503.375)">
			<stop  offset="0" style="stop-color:#000000"/>
			<stop  offset="0.4677" style="stop-color:#B5B5B6"/>
			<stop  offset="0.8441" style="stop-color:#000000"/>
		</linearGradient>
		<rect y="118.767" fill="url(#SVGID_1_)" width="1275.59" height="7.375"/>
		<g>
			<g>
				<ellipse fill="#050101" cx="439.702" cy="49.72" rx="5.5" ry="5.297"/>
				<radialGradient id="SVGID_2_" cx="439.4521" cy="49.1416" r="5.25" gradientUnits="userSpaceOnUse">
					<stop  offset="0.4285" style="stop-color:#F3F3B1"/>
					<stop  offset="0.8441" style="stop-color:#FAEE00"/>
				</radialGradient>
				<circle fill="url(#SVGID_2_)" cx="439.452" cy="49.142" r="5.25"/>
			</g>
			<g>
				<ellipse fill="#050101" cx="459.536" cy="49.72" rx="5.5" ry="5.297"/>
				<radialGradient id="SVGID_3_" cx="459.2856" cy="49.1416" r="5.25" gradientUnits="userSpaceOnUse">
					<stop  offset="0.4285" style="stop-color:#F3F3B1"/>
					<stop  offset="0.8441" style="stop-color:#FAEE00"/>
				</radialGradient>
				<circle fill="url(#SVGID_3_)" cx="459.286" cy="49.142" r="5.25"/>
			</g>
			<ellipse fill="#050101" cx="439.702" cy="66.095" rx="5.5" ry="5.297"/>
			<circle fill="#EFEFEF" cx="439.452" cy="65.517" r="5.25"/>
			<ellipse fill="#050101" cx="459.536" cy="66.095" rx="5.5" ry="5.297"/>
			<circle fill="#EFEFEF" cx="459.286" cy="65.517" r="5.25"/>
		</g>
		<g>
			<g>
				<ellipse fill="#050101" cx="500.875" cy="49.72" rx="5.5" ry="5.297"/>
				<radialGradient id="SVGID_4_" cx="500.6245" cy="49.1416" r="5.25" gradientUnits="userSpaceOnUse">
					<stop  offset="0.4285" style="stop-color:#F3F3B1"/>
					<stop  offset="0.8441" style="stop-color:#FAEE00"/>
				</radialGradient>
				<circle fill="url(#SVGID_4_)" cx="500.625" cy="49.142" r="5.25"/>
			</g>
			<g>
				<ellipse fill="#050101" cx="500.875" cy="65.47" rx="5.5" ry="5.297"/>
				<radialGradient id="SVGID_5_" cx="500.6245" cy="64.8916" r="5.25" gradientUnits="userSpaceOnUse">
					<stop  offset="0.4285" style="stop-color:#F3F3B1"/>
					<stop  offset="0.8441" style="stop-color:#FAEE00"/>
				</radialGradient>
				<circle fill="url(#SVGID_5_)" cx="500.625" cy="64.892" r="5.25"/>
			</g>
		</g>
		<g>
			<g>
				<ellipse fill="#050101" cx="519.625" cy="49.72" rx="5.5" ry="5.297"/>
				<radialGradient id="SVGID_6_" cx="519.3745" cy="49.1416" r="5.25" gradientUnits="userSpaceOnUse">
					<stop  offset="0.4285" style="stop-color:#F3F3B1"/>
					<stop  offset="0.8441" style="stop-color:#FAEE00"/>
				</radialGradient>
				<circle fill="url(#SVGID_6_)" cx="519.375" cy="49.142" r="5.25"/>
			</g>
			<g>
				<ellipse fill="#050101" cx="519.625" cy="65.47" rx="5.5" ry="5.297"/>
				<radialGradient id="SVGID_7_" cx="519.3745" cy="64.8916" r="5.25" gradientUnits="userSpaceOnUse">
					<stop  offset="0.4285" style="stop-color:#F3F3B1"/>
					<stop  offset="0.8441" style="stop-color:#FAEE00"/>
				</radialGradient>
				<circle fill="url(#SVGID_7_)" cx="519.375" cy="64.892" r="5.25"/>
			</g>
		</g>
		<g>
			<g>
				<ellipse fill="#050101" cx="538.375" cy="49.72" rx="5.5" ry="5.297"/>
				<radialGradient id="SVGID_8_" cx="538.1245" cy="49.1416" r="5.25" gradientUnits="userSpaceOnUse">
					<stop  offset="0.4285" style="stop-color:#F3F3B1"/>
					<stop  offset="0.8441" style="stop-color:#FAEE00"/>
				</radialGradient>
				<circle fill="url(#SVGID_8_)" cx="538.125" cy="49.142" r="5.25"/>
			</g>
			<g>
				<ellipse fill="#050101" cx="538.375" cy="65.47" rx="5.5" ry="5.297"/>
				<radialGradient id="SVGID_9_" cx="538.1245" cy="64.8916" r="5.25" gradientUnits="userSpaceOnUse">
					<stop  offset="0.4285" style="stop-color:#F3F3B1"/>
					<stop  offset="0.8441" style="stop-color:#FAEE00"/>
				</radialGradient>
				<circle fill="url(#SVGID_9_)" cx="538.125" cy="64.892" r="5.25"/>
			</g>
		</g>
		<ellipse fill="#050101" cx="557.125" cy="49.72" rx="5.5" ry="5.297"/>
		<circle fill="#EFEFEF" cx="556.875" cy="49.142" r="5.25"/>
		<ellipse fill="#050101" cx="557.125" cy="65.47" rx="5.5" ry="5.297"/>
		<circle fill="#EFEFEF" cx="556.875" cy="64.892" r="5.25"/>
		<g>
			<rect x="500.187" y="31.898" fill="#EFEFEF" width="0.875" height="5.25"/>
			<rect x="500.188" y="31.904" fill="#EFEFEF" width="57.125" height="0.875"/>
			<rect x="556.437" y="31.898" fill="#EFEFEF" width="0.875" height="5.25"/>
		</g>
		
			<text transform="matrix(1 0 0 1 499.4521 41.8916)" fill="#FFFFFF" font-family="'NotoSansHans-Regular-GBpc-EUC-H'" font-size="4">1</text>
		
			<text transform="matrix(1 0 0 1 499.4521 75.3916)" fill="#FFFFFF" font-family="'NotoSansHans-Regular-GBpc-EUC-H'" font-size="4">2</text>
		
			<text transform="matrix(1 0 0 1 517.9521 41.8916)" fill="#FFFFFF" font-family="'NotoSansHans-Regular-GBpc-EUC-H'" font-size="4">3</text>
		
			<text transform="matrix(1 0 0 1 517.9521 75.3916)" fill="#FFFFFF" font-family="'NotoSansHans-Regular-GBpc-EUC-H'" font-size="4">4</text>
		
			<text transform="matrix(1 0 0 1 536.8271 41.8916)" fill="#FFFFFF" font-family="'NotoSansHans-Regular-GBpc-EUC-H'" font-size="4">5</text>
		
			<text transform="matrix(1 0 0 1 536.8271 75.3916)" fill="#FFFFFF" font-family="'NotoSansHans-Regular-GBpc-EUC-H'" font-size="4">6</text>
		
			<text transform="matrix(1 0 0 1 555.7021 41.8916)" fill="#FFFFFF" font-family="'NotoSansHans-Regular-GBpc-EUC-H'" font-size="4">7</text>
		
			<text transform="matrix(1 0 0 1 555.7021 75.3916)" fill="#FFFFFF" font-family="'NotoSansHans-Regular-GBpc-EUC-H'" font-size="4">8</text>
	</g>
</g>
</svg>
