<?xml version="1.0" encoding="utf-8"?>
<!-- Generator: Adobe Illustrator 16.0.0, SVG Export Plug-In . SVG Version: 6.00 Build 0)  -->
<!DOCTYPE svg PUBLIC "-//W3C//DTD SVG 1.1//EN" "http://www.w3.org/Graphics/SVG/1.1/DTD/svg11.dtd">
<svg version="1.1" id="图层_1" xmlns="http://www.w3.org/2000/svg" xmlns:xlink="http://www.w3.org/1999/xlink" x="0px" y="0px"
	 width="1275.59px" height="252.28px" viewBox="0 0 1275.59 252.28" enable-background="new 0 0 1275.59 252.28"
	 xml:space="preserve">
<rect fill="#727676" width="1275.59" height="252.283"/>
<rect fill="#969DA0" width="1275.59" height="22.975"/>
<rect y="22.975" fill="#0A090A" width="1275.59" height="2.042"/>
<g>
	<path fill="#AFAFAF" d="M1010.889,216.994c0,6.297-5.109,11.4-11.413,11.4c-6.303,0-11.412-5.104-11.412-11.4
		s5.109-11.402,11.412-11.402C1005.779,205.592,1010.889,210.697,1010.889,216.994"/>
	<ellipse fill="none" stroke="#949394" stroke-miterlimit="10" cx="999.476" cy="216.994" rx="11.413" ry="11.4"/>
	<path fill="#EDEDED" d="M1007.861,216.994c0,4.627-3.755,8.377-8.386,8.377c-4.63,0-8.385-3.75-8.385-8.377
		s3.755-8.379,8.385-8.379C1004.106,208.615,1007.861,212.367,1007.861,216.994"/>
	<ellipse fill="none" stroke="#949394" stroke-miterlimit="10" cx="999.476" cy="216.994" rx="8.385" ry="8.377"/>
</g>
<path fill="#AFAFAF" d="M1044.182,218.783c0,3.727-3.023,6.746-6.753,6.746s-6.753-3.02-6.753-6.746s3.023-6.746,6.753-6.746
	S1044.182,215.057,1044.182,218.783"/>
<ellipse fill="none" stroke="#949394" stroke-miterlimit="10" cx="1037.429" cy="218.783" rx="6.753" ry="6.746"/>
<path fill="#272828" d="M1042.391,218.783c0,2.736-2.222,4.957-4.962,4.957s-4.961-2.221-4.961-4.957
	c0-2.738,2.221-4.957,4.961-4.957S1042.391,216.045,1042.391,218.783"/>
<circle fill="none" stroke="#949394" stroke-miterlimit="10" cx="1037.429" cy="218.783" r="4.961"/>
<g>
	<path fill="#AFAFAF" d="M1254.11,121.184c0,4.797-3.894,8.687-8.697,8.687s-8.697-3.89-8.697-8.687c0-4.8,3.894-8.69,8.697-8.69
		S1254.11,116.384,1254.11,121.184"/>
	<ellipse fill="none" stroke="#949394" stroke-miterlimit="10" cx="1245.413" cy="121.184" rx="8.697" ry="8.687"/>
	<path fill="#AFAFAF" d="M1251.804,121.184c0,3.524-2.861,6.382-6.391,6.382s-6.39-2.858-6.39-6.382c0-3.527,2.86-6.387,6.39-6.387
		S1251.804,117.657,1251.804,121.184"/>
	<ellipse fill="none" stroke="#949394" stroke-miterlimit="10" cx="1245.414" cy="121.184" rx="6.39" ry="6.382"/>
	<g>
		<g>
			<defs>
				<rect id="SVGID_1_" x="1239.389" y="115.166" width="12.049" height="12.034"/>
			</defs>
			<clipPath id="SVGID_2_">
				<use xlink:href="#SVGID_1_"  overflow="visible"/>
			</clipPath>
			<path clip-path="url(#SVGID_2_)" fill="#BFBFBF" d="M1251.437,121.184c0,3.322-2.697,6.015-6.023,6.015s-6.022-2.693-6.022-6.015
				c0-3.324,2.696-6.019,6.022-6.019S1251.437,117.86,1251.437,121.184"/>
			<path clip-path="url(#SVGID_2_)" fill="#C1C1C1" d="M1251.294,121.184c0,3.243-2.633,5.875-5.881,5.875s-5.881-2.631-5.881-5.875
				c0-3.246,2.633-5.877,5.881-5.877S1251.294,117.938,1251.294,121.184"/>
			<path clip-path="url(#SVGID_2_)" fill="#C3C4C4" d="M1251.152,121.184c0,3.166-2.569,5.732-5.739,5.732s-5.739-2.566-5.739-5.732
				c0-3.168,2.569-5.735,5.739-5.735S1251.152,118.016,1251.152,121.184"/>
			<path clip-path="url(#SVGID_2_)" fill="#C5C6C6" d="M1251.011,121.184c0,3.087-2.506,5.592-5.598,5.592s-5.598-2.505-5.598-5.592
				c0-3.09,2.506-5.594,5.598-5.594S1251.011,118.094,1251.011,121.184"/>
			<path clip-path="url(#SVGID_2_)" fill="#C7C9C9" d="M1250.87,121.184c0,3.009-2.444,5.45-5.457,5.45s-5.455-2.441-5.455-5.45
				c0-3.012,2.442-5.453,5.455-5.453S1250.87,118.172,1250.87,121.184"/>
			<path clip-path="url(#SVGID_2_)" fill="#CACBCB" d="M1250.728,121.184c0,2.931-2.379,5.309-5.314,5.309s-5.313-2.378-5.313-5.309
				c0-2.934,2.378-5.311,5.313-5.311S1250.728,118.25,1250.728,121.184"/>
			<path clip-path="url(#SVGID_2_)" fill="#CCCECE" d="M1250.586,121.184c0,2.853-2.316,5.167-5.173,5.167s-5.172-2.314-5.172-5.167
				c0-2.855,2.315-5.17,5.172-5.17S1250.586,118.329,1250.586,121.184"/>
			<path clip-path="url(#SVGID_2_)" fill="#CED0D0" d="M1250.444,121.184c0,2.774-2.253,5.025-5.031,5.025
				c-2.777,0-5.031-2.251-5.031-5.025c0-2.777,2.254-5.028,5.031-5.028C1248.191,116.156,1250.444,118.407,1250.444,121.184"/>
			<path clip-path="url(#SVGID_2_)" fill="#D1D3D3" d="M1250.303,121.184c0,2.696-2.188,4.884-4.89,4.884
				c-2.699,0-4.889-2.188-4.889-4.884c0-2.699,2.189-4.887,4.889-4.887C1248.114,116.297,1250.303,118.485,1250.303,121.184"/>
			<path clip-path="url(#SVGID_2_)" fill="#D3D5D5" d="M1250.161,121.184c0,2.618-2.126,4.742-4.748,4.742s-4.748-2.124-4.748-4.742
				c0-2.621,2.126-4.744,4.748-4.744S1250.161,118.563,1250.161,121.184"/>
		</g>
	</g>
	<polygon fill="#5F5F5E" points="1244.626,124.801 1244.626,121.969 1241.791,121.969 1241.791,120.397 1244.626,120.397 
		1244.626,117.565 1246.2,117.565 1246.2,120.397 1249.034,120.397 1249.034,121.969 1246.2,121.969 1246.2,124.801 	"/>
	<path fill="#231815" d="M1246.063,117.701v2.56v0.272h0.273h2.563v1.3h-2.563h-0.273v0.272v2.56h-1.301v-2.56v-0.272h-0.272h-2.563
		v-1.3h2.563h0.272v-0.272v-2.56H1246.063z M1246.337,117.428h-1.847v2.832h-2.834v1.845h2.834v2.831h1.847v-2.831h2.834v-1.845
		h-2.834V117.428z"/>
</g>
<rect fill="#969DA0" width="37.981" height="252.283"/>
<rect x="37.981" y="22.975" fill="#0A090A" width="3.471" height="229.309"/>
<g>
	<path fill="#414242" d="M1087.957,128.713c0,4.074-3.304,7.377-7.379,7.377c-4.074,0-7.378-3.303-7.378-7.377
		c0-4.074,3.304-7.375,7.378-7.375C1084.653,121.337,1087.957,124.639,1087.957,128.713"/>
	<circle fill="none" stroke="#0A090A" stroke-width="0.75" stroke-miterlimit="10" cx="1080.579" cy="128.713" r="7.378"/>
	<polygon fill="#040000" points="1079.667,132.896 1079.667,129.625 1076.394,129.625 1076.394,127.801 1079.667,127.801 
		1079.667,124.53 1081.49,124.53 1081.49,127.801 1084.763,127.801 1084.763,129.625 1081.49,129.625 1081.49,132.896 	"/>
	<path fill="#231815" d="M1081.337,124.684v2.964v0.307h0.307h2.966v1.516h-2.966h-0.307v0.307v2.965h-1.516v-2.965v-0.307h-0.309
		h-2.965v-1.516h2.965h0.309v-0.307v-2.964H1081.337z M1081.644,124.376h-2.131v3.272h-3.272v2.129h3.272v3.273h2.131v-3.273h3.273
		v-2.129h-3.273V124.376z"/>
</g>
<path fill="#9D9EA0" d="M633.633,223.371c0,1.658-1.343,3-3,3h-20.666c-1.657,0-3-1.342-3-3v-71.004c0-1.656,1.343-3,3-3h20.666
	c1.657,0,3,1.344,3,3V223.371z"/>
<g>
	<path fill="#414242" d="M722.001,162.973c0,4.074-3.304,7.377-7.379,7.377c-4.074,0-7.378-3.303-7.378-7.377
		s3.304-7.377,7.378-7.377C718.697,155.596,722.001,158.898,722.001,162.973"/>
	<circle fill="none" stroke="#0A090A" stroke-width="0.75" stroke-miterlimit="10" cx="714.623" cy="162.973" r="7.378"/>
	<polygon fill="#040000" points="713.711,167.156 713.711,163.885 710.438,163.885 710.438,162.061 713.711,162.061 
		713.711,158.789 715.534,158.789 715.534,162.061 718.808,162.061 718.808,163.885 715.534,163.885 715.534,167.156 	"/>
	<path fill="#231815" d="M715.38,158.943v2.965v0.307h0.309h2.965v1.516h-2.965h-0.309v0.307v2.965h-1.515v-2.965v-0.307h-0.309
		h-2.965v-1.516h2.965h0.309v-0.307v-2.965H715.38z M715.688,158.635h-2.132v3.273h-3.272v2.129h3.272v3.273h2.132v-3.273h3.271
		v-2.129h-3.271V158.635z"/>
</g>
<g>
	<path fill="#414242" d="M627.678,162.973c0,4.074-3.304,7.377-7.379,7.377c-4.074,0-7.378-3.303-7.378-7.377
		s3.304-7.377,7.378-7.377C624.374,155.596,627.678,158.898,627.678,162.973"/>
	<circle fill="none" stroke="#0A090A" stroke-width="0.75" stroke-miterlimit="10" cx="620.299" cy="162.973" r="7.378"/>
	<polygon fill="#040000" points="619.388,167.156 619.388,163.885 616.114,163.885 616.114,162.061 619.388,162.061 
		619.388,158.789 621.211,158.789 621.211,162.061 624.483,162.061 624.483,163.885 621.211,163.885 621.211,167.156 	"/>
	<path fill="#231815" d="M621.058,158.943v2.965v0.307h0.307h2.966v1.516h-2.966h-0.307v0.307v2.965h-1.516v-2.965v-0.307h-0.309
		h-2.965v-1.516h2.965h0.309v-0.307v-2.965H621.058z M621.364,158.635h-2.131v3.273h-3.273v2.129h3.273v3.273h2.131v-3.273h3.273
		v-2.129h-3.273V158.635z"/>
</g>
<g>
	<path fill="#414242" d="M627.678,209.637c0,4.072-3.304,7.375-7.379,7.375c-4.074,0-7.378-3.303-7.378-7.375
		c0-4.074,3.304-7.377,7.378-7.377C624.374,202.26,627.678,205.563,627.678,209.637"/>
	<circle fill="none" stroke="#0A090A" stroke-width="0.75" stroke-miterlimit="10" cx="620.299" cy="209.637" r="7.378"/>
	<polygon fill="#040000" points="619.388,213.82 619.388,210.547 616.114,210.547 616.114,208.725 619.388,208.725 619.388,205.453 
		621.211,205.453 621.211,208.725 624.483,208.725 624.483,210.547 621.211,210.547 621.211,213.82 	"/>
	<path fill="#231815" d="M621.058,205.605v2.965v0.309h0.307h2.966v1.514h-2.966h-0.307v0.309v2.965h-1.516v-2.965v-0.309h-0.309
		h-2.965v-1.514h2.965h0.309v-0.309v-2.965H621.058z M621.364,205.299h-2.131v3.271h-3.273v2.131h3.273v3.271h2.131v-3.271h3.273
		v-2.131h-3.273V205.299z"/>
</g>
<path fill="#9D9EA0" d="M361.453,223.371c0,1.658-1.343,3-3,3h-20.666c-1.657,0-3-1.342-3-3v-71.004c0-1.656,1.343-3,3-3h20.666
	c1.657,0,3,1.344,3,3V223.371z"/>
<g>
	<path fill="#414242" d="M355.742,162.973c0,4.074-3.304,7.377-7.379,7.377c-4.075,0-7.378-3.303-7.378-7.377
		s3.303-7.377,7.378-7.377C352.438,155.596,355.742,158.898,355.742,162.973"/>
	<circle fill="none" stroke="#0A090A" stroke-width="0.75" stroke-miterlimit="10" cx="348.364" cy="162.973" r="7.378"/>
	<polygon fill="#040000" points="347.452,167.156 347.452,163.885 344.179,163.885 344.179,162.061 347.452,162.061 
		347.452,158.789 349.275,158.789 349.275,162.061 352.548,162.061 352.548,163.885 349.275,163.885 349.275,167.156 	"/>
	<path fill="#231815" d="M349.122,158.943v2.965v0.307h0.308h2.965v1.516h-2.965h-0.308v0.307v2.965h-1.515v-2.965v-0.307h-0.309
		h-2.965v-1.516h2.965h0.309v-0.307v-2.965H349.122z M349.429,158.635h-2.131v3.273h-3.273v2.129h3.273v3.273h2.131v-3.273h3.273
		v-2.129h-3.273V158.635z"/>
</g>
<g>
	<path fill="#414242" d="M355.742,209.637c0,4.072-3.304,7.375-7.379,7.375c-4.075,0-7.378-3.303-7.378-7.375
		c0-4.074,3.303-7.377,7.378-7.377C352.438,202.26,355.742,205.563,355.742,209.637"/>
	<circle fill="none" stroke="#0A090A" stroke-width="0.75" stroke-miterlimit="10" cx="348.364" cy="209.637" r="7.378"/>
	<polygon fill="#040000" points="347.452,213.82 347.452,210.547 344.179,210.547 344.179,208.725 347.452,208.725 347.452,205.453 
		349.275,205.453 349.275,208.725 352.548,208.725 352.548,210.547 349.275,210.547 349.275,213.82 	"/>
	<path fill="#231815" d="M349.122,205.605v2.965v0.309h0.308h2.965v1.514h-2.965h-0.308v0.309v2.965h-1.515v-2.965v-0.309h-0.309
		h-2.965v-1.514h2.965h0.309v-0.309v-2.965H349.122z M349.429,205.299h-2.131v3.271h-3.273v2.131h3.273v3.271h2.131v-3.271h3.273
		v-2.131h-3.273V205.299z"/>
</g>
<g>
	<path fill="#414242" d="M238.713,12.695c0,4.073-3.304,7.376-7.379,7.376c-4.074,0-7.378-3.303-7.378-7.376
		c0-4.074,3.304-7.377,7.378-7.377C235.409,5.318,238.713,8.621,238.713,12.695"/>
	<circle fill="none" stroke="#0A090A" stroke-width="0.75" stroke-miterlimit="10" cx="231.335" cy="12.695" r="7.379"/>
	<polygon fill="#040000" points="230.423,16.877 230.423,13.605 227.15,13.605 227.15,11.783 230.423,11.783 230.423,8.511 
		232.246,8.511 232.246,11.783 235.52,11.783 235.52,13.605 232.246,13.605 232.246,16.877 	"/>
	<path fill="#231815" d="M232.093,8.665v2.964v0.308h0.308h2.965v1.516H232.4h-0.308v0.308v2.965h-1.516v-2.965v-0.308h-0.308
		h-2.965v-1.516h2.965h0.308v-0.308V8.665H232.093z M232.4,8.357h-2.131v3.271h-3.273v2.131h3.273v3.272h2.131v-3.272h3.272v-2.131
		H232.4V8.357z"/>
</g>
<g>
	<path fill="#414242" d="M26.369,41.716c0,4.074-3.304,7.376-7.379,7.376c-4.075,0-7.378-3.302-7.378-7.376
		c0-4.074,3.303-7.376,7.378-7.376C23.065,34.339,26.369,37.642,26.369,41.716"/>
	<circle fill="none" stroke="#0A090A" stroke-width="0.75" stroke-miterlimit="10" cx="18.991" cy="41.716" r="7.378"/>
	<polygon fill="#040000" points="18.079,45.899 18.079,42.626 14.806,42.626 14.806,40.804 18.079,40.804 18.079,37.532 
		19.902,37.532 19.902,40.804 23.175,40.804 23.175,42.626 19.902,42.626 19.902,45.899 	"/>
	<path fill="#231815" d="M19.749,37.686v2.964v0.308h0.308h2.965v1.516h-2.965h-0.308v0.307v2.965h-1.515V42.78v-0.307h-0.309H14.96
		v-1.516h2.965h0.309V40.65v-2.964H19.749z M20.056,37.378h-2.131v3.271h-3.273v2.13h3.273v3.272h2.131V42.78h3.273v-2.13h-3.273
		V37.378z"/>
</g>
<g>
	<path fill="#414242" d="M26.369,220.482c0,4.072-3.304,7.375-7.379,7.375c-4.075,0-7.378-3.303-7.378-7.375
		c0-4.074,3.303-7.377,7.378-7.377C23.065,213.105,26.369,216.408,26.369,220.482"/>
	<circle fill="none" stroke="#0A090A" stroke-width="0.75" stroke-miterlimit="10" cx="18.991" cy="220.482" r="7.378"/>
	<polygon fill="#040000" points="18.079,224.666 18.079,221.393 14.806,221.393 14.806,219.57 18.079,219.57 18.079,216.299 
		19.902,216.299 19.902,219.57 23.175,219.57 23.175,221.393 19.902,221.393 19.902,224.666 	"/>
	<path fill="#231815" d="M19.749,216.451v2.965v0.309h0.308h2.965v1.516h-2.965h-0.308v0.307v2.965h-1.515v-2.965v-0.307h-0.309
		H14.96v-1.516h2.965h0.309v-0.309v-2.965H19.749z M20.056,216.145h-2.131v3.271h-3.273v2.131h3.273v3.271h2.131v-3.271h3.273
		v-2.131h-3.273V216.145z"/>
</g>
<g>
	<rect x="1029.612" y="35.885" fill="#0A1422" width="8.301" height="8.301"/>
	<rect x="1029.612" y="46.551" fill="#0A1422" width="8.301" height="8.301"/>
	<rect x="1029.612" y="57.218" fill="#0A1422" width="8.301" height="8.301"/>
	<rect x="1029.612" y="67.884" fill="#0A1422" width="8.301" height="8.301"/>
	<rect x="1029.612" y="78.551" fill="#0A1422" width="8.301" height="8.301"/>
	<rect x="1029.612" y="89.217" fill="#0A1422" width="8.301" height="8.301"/>
	<rect x="1029.612" y="99.883" fill="#0A1422" width="8.301" height="8.302"/>
	<rect x="1040.278" y="35.885" fill="#0A1422" width="8.301" height="8.301"/>
	<rect x="1040.278" y="46.551" fill="#0A1422" width="8.301" height="8.301"/>
	<rect x="1040.278" y="57.218" fill="#0A1422" width="8.301" height="8.301"/>
	<rect x="1040.278" y="67.884" fill="#0A1422" width="8.301" height="8.301"/>
	<rect x="1040.278" y="78.551" fill="#0A1422" width="8.301" height="8.301"/>
	<rect x="1040.278" y="89.217" fill="#0A1422" width="8.301" height="8.301"/>
	<rect x="1040.278" y="99.883" fill="#0A1422" width="8.301" height="8.302"/>
	<rect x="1050.944" y="35.885" fill="#0A1422" width="8.302" height="8.301"/>
	<rect x="1050.944" y="46.551" fill="#0A1422" width="8.302" height="8.301"/>
	<rect x="1050.944" y="57.218" fill="#0A1422" width="8.302" height="8.301"/>
	<rect x="1050.944" y="67.884" fill="#0A1422" width="8.302" height="8.301"/>
	<rect x="1050.944" y="78.551" fill="#0A1422" width="8.302" height="8.301"/>
	<rect x="1050.944" y="89.217" fill="#0A1422" width="8.302" height="8.301"/>
	<rect x="1050.944" y="99.883" fill="#0A1422" width="8.302" height="8.302"/>
	<rect x="1061.611" y="35.885" fill="#0A1422" width="8.302" height="8.301"/>
	<rect x="1061.611" y="46.551" fill="#0A1422" width="8.302" height="8.301"/>
	<rect x="1061.611" y="57.218" fill="#0A1422" width="8.302" height="8.301"/>
	<rect x="1061.611" y="67.884" fill="#0A1422" width="8.302" height="8.301"/>
	<rect x="1061.611" y="78.551" fill="#0A1422" width="8.302" height="8.301"/>
	<rect x="1061.611" y="89.217" fill="#0A1422" width="8.302" height="8.301"/>
	<rect x="1061.611" y="99.883" fill="#0A1422" width="8.302" height="8.302"/>
	<rect x="1072.278" y="35.885" fill="#0A1422" width="8.301" height="8.301"/>
	<rect x="1072.278" y="46.551" fill="#0A1422" width="8.301" height="8.301"/>
	<rect x="1072.278" y="57.218" fill="#0A1422" width="8.301" height="8.301"/>
	<rect x="1072.278" y="67.884" fill="#0A1422" width="8.301" height="8.301"/>
	<rect x="1072.278" y="78.551" fill="#0A1422" width="8.301" height="8.301"/>
	<rect x="1072.278" y="89.217" fill="#0A1422" width="8.301" height="8.301"/>
	<rect x="1072.278" y="99.883" fill="#0A1422" width="8.301" height="8.302"/>
	<rect x="1082.944" y="35.885" fill="#0A1422" width="8.301" height="8.301"/>
	<rect x="1082.944" y="46.551" fill="#0A1422" width="8.301" height="8.301"/>
	<rect x="1082.944" y="57.218" fill="#0A1422" width="8.301" height="8.301"/>
	<rect x="1082.944" y="67.884" fill="#0A1422" width="8.301" height="8.301"/>
	<rect x="1082.944" y="78.551" fill="#0A1422" width="8.301" height="8.301"/>
	<rect x="1082.944" y="89.217" fill="#0A1422" width="8.301" height="8.301"/>
	<rect x="1082.944" y="99.883" fill="#0A1422" width="8.301" height="8.302"/>
	<rect x="1093.61" y="35.885" fill="#0A1422" width="8.302" height="8.301"/>
	<rect x="1093.61" y="46.551" fill="#0A1422" width="8.302" height="8.301"/>
	<rect x="1093.61" y="57.218" fill="#0A1422" width="8.302" height="8.301"/>
	<rect x="1093.61" y="67.884" fill="#0A1422" width="8.302" height="8.301"/>
	<rect x="1093.61" y="78.551" fill="#0A1422" width="8.302" height="8.301"/>
	<rect x="1093.61" y="89.217" fill="#0A1422" width="8.302" height="8.301"/>
	<rect x="1093.61" y="99.883" fill="#0A1422" width="8.302" height="8.302"/>
	<rect x="1104.277" y="35.885" fill="#0A1422" width="8.302" height="8.301"/>
	<rect x="1104.277" y="46.551" fill="#0A1422" width="8.302" height="8.301"/>
	<rect x="1104.277" y="57.218" fill="#0A1422" width="8.302" height="8.301"/>
	<rect x="1104.277" y="67.884" fill="#0A1422" width="8.302" height="8.301"/>
	<rect x="1104.277" y="78.551" fill="#0A1422" width="8.302" height="8.301"/>
	<rect x="1104.277" y="89.217" fill="#0A1422" width="8.302" height="8.301"/>
	<rect x="1104.277" y="99.883" fill="#0A1422" width="8.302" height="8.302"/>
	<rect x="1114.944" y="35.885" fill="#0A1422" width="8.301" height="8.301"/>
	<rect x="1114.944" y="46.551" fill="#0A1422" width="8.301" height="8.301"/>
	<rect x="1114.944" y="57.218" fill="#0A1422" width="8.301" height="8.301"/>
	<rect x="1114.944" y="67.884" fill="#0A1422" width="8.301" height="8.301"/>
	<rect x="1114.944" y="78.551" fill="#0A1422" width="8.301" height="8.301"/>
	<rect x="1114.944" y="89.217" fill="#0A1422" width="8.301" height="8.301"/>
	<rect x="1114.944" y="99.883" fill="#0A1422" width="8.301" height="8.302"/>
	<rect x="1125.61" y="35.885" fill="#0A1422" width="8.301" height="8.301"/>
	<rect x="1125.61" y="46.551" fill="#0A1422" width="8.301" height="8.301"/>
	<rect x="1125.61" y="57.218" fill="#0A1422" width="8.301" height="8.301"/>
	<rect x="1125.61" y="67.884" fill="#0A1422" width="8.301" height="8.301"/>
	<rect x="1125.61" y="78.551" fill="#0A1422" width="8.301" height="8.301"/>
	<rect x="1125.61" y="89.217" fill="#0A1422" width="8.301" height="8.301"/>
	<rect x="1125.61" y="99.883" fill="#0A1422" width="8.301" height="8.302"/>
	<rect x="1136.277" y="35.885" fill="#0A1422" width="8.301" height="8.301"/>
	<rect x="1136.277" y="46.551" fill="#0A1422" width="8.301" height="8.301"/>
	<rect x="1136.277" y="57.218" fill="#0A1422" width="8.301" height="8.301"/>
	<rect x="1136.277" y="67.884" fill="#0A1422" width="8.301" height="8.301"/>
	<rect x="1136.277" y="78.551" fill="#0A1422" width="8.301" height="8.301"/>
	<rect x="1136.277" y="89.217" fill="#0A1422" width="8.301" height="8.301"/>
	<rect x="1136.277" y="99.883" fill="#0A1422" width="8.301" height="8.302"/>
	<rect x="1146.943" y="35.885" fill="#0A1422" width="8.302" height="8.301"/>
	<rect x="1146.943" y="46.551" fill="#0A1422" width="8.302" height="8.301"/>
	<rect x="1146.943" y="57.218" fill="#0A1422" width="8.302" height="8.301"/>
	<rect x="1146.943" y="67.884" fill="#0A1422" width="8.302" height="8.301"/>
	<rect x="1146.943" y="78.551" fill="#0A1422" width="8.302" height="8.301"/>
	<rect x="1146.943" y="89.217" fill="#0A1422" width="8.302" height="8.301"/>
	<rect x="1146.943" y="99.883" fill="#0A1422" width="8.302" height="8.302"/>
	<rect x="1157.61" y="35.885" fill="#0A1422" width="8.301" height="8.301"/>
	<rect x="1157.61" y="46.551" fill="#0A1422" width="8.301" height="8.301"/>
	<rect x="1157.61" y="57.218" fill="#0A1422" width="8.301" height="8.301"/>
	<rect x="1157.61" y="67.884" fill="#0A1422" width="8.301" height="8.301"/>
	<rect x="1157.61" y="78.551" fill="#0A1422" width="8.301" height="8.301"/>
	<rect x="1157.61" y="89.217" fill="#0A1422" width="8.301" height="8.301"/>
	<rect x="1157.61" y="99.883" fill="#0A1422" width="8.301" height="8.302"/>
</g>
<g>
	<rect x="778.128" y="35.885" fill="#0A1422" width="8.302" height="8.301"/>
	<rect x="778.128" y="46.551" fill="#0A1422" width="8.302" height="8.301"/>
	<rect x="778.128" y="57.218" fill="#0A1422" width="8.302" height="8.301"/>
	<rect x="778.128" y="67.884" fill="#0A1422" width="8.302" height="8.301"/>
	<rect x="778.128" y="78.551" fill="#0A1422" width="8.302" height="8.301"/>
	<rect x="778.128" y="89.217" fill="#0A1422" width="8.302" height="8.301"/>
	<rect x="778.128" y="99.883" fill="#0A1422" width="8.302" height="8.302"/>
	<rect x="788.795" y="35.885" fill="#0A1422" width="8.302" height="8.301"/>
	<rect x="788.795" y="46.551" fill="#0A1422" width="8.302" height="8.301"/>
	<rect x="788.795" y="57.218" fill="#0A1422" width="8.302" height="8.301"/>
	<rect x="788.795" y="67.884" fill="#0A1422" width="8.302" height="8.301"/>
	<rect x="788.795" y="78.551" fill="#0A1422" width="8.302" height="8.301"/>
	<rect x="788.795" y="89.217" fill="#0A1422" width="8.302" height="8.301"/>
	<rect x="788.795" y="99.883" fill="#0A1422" width="8.302" height="8.302"/>
	<rect x="799.461" y="35.885" fill="#0A1422" width="8.302" height="8.301"/>
	<rect x="799.461" y="46.551" fill="#0A1422" width="8.302" height="8.301"/>
	<rect x="799.461" y="57.218" fill="#0A1422" width="8.302" height="8.301"/>
	<rect x="799.461" y="67.884" fill="#0A1422" width="8.302" height="8.301"/>
	<rect x="799.461" y="78.551" fill="#0A1422" width="8.302" height="8.301"/>
	<rect x="799.461" y="89.217" fill="#0A1422" width="8.302" height="8.301"/>
	<rect x="799.461" y="99.883" fill="#0A1422" width="8.302" height="8.302"/>
	<rect x="810.128" y="35.885" fill="#0A1422" width="8.301" height="8.301"/>
	<rect x="810.128" y="46.551" fill="#0A1422" width="8.301" height="8.301"/>
	<rect x="810.128" y="57.218" fill="#0A1422" width="8.301" height="8.301"/>
	<rect x="810.128" y="67.884" fill="#0A1422" width="8.301" height="8.301"/>
	<rect x="810.128" y="78.551" fill="#0A1422" width="8.301" height="8.301"/>
	<rect x="810.128" y="89.217" fill="#0A1422" width="8.301" height="8.301"/>
	<rect x="810.128" y="99.883" fill="#0A1422" width="8.301" height="8.302"/>
	<rect x="820.794" y="35.885" fill="#0A1422" width="8.302" height="8.301"/>
	<rect x="820.794" y="46.551" fill="#0A1422" width="8.302" height="8.301"/>
	<rect x="820.794" y="57.218" fill="#0A1422" width="8.302" height="8.301"/>
	<rect x="820.794" y="67.884" fill="#0A1422" width="8.302" height="8.301"/>
	<rect x="820.794" y="78.551" fill="#0A1422" width="8.302" height="8.301"/>
	<rect x="820.794" y="89.217" fill="#0A1422" width="8.302" height="8.301"/>
	<rect x="820.794" y="99.883" fill="#0A1422" width="8.302" height="8.302"/>
	<rect x="831.461" y="35.885" fill="#0A1422" width="8.302" height="8.301"/>
	<rect x="831.461" y="46.551" fill="#0A1422" width="8.302" height="8.301"/>
	<rect x="831.461" y="57.218" fill="#0A1422" width="8.302" height="8.301"/>
	<rect x="831.461" y="67.884" fill="#0A1422" width="8.302" height="8.301"/>
	<rect x="831.461" y="78.551" fill="#0A1422" width="8.302" height="8.301"/>
	<rect x="831.461" y="89.217" fill="#0A1422" width="8.302" height="8.301"/>
	<rect x="831.461" y="99.883" fill="#0A1422" width="8.302" height="8.302"/>
	<rect x="842.127" y="35.885" fill="#0A1422" width="8.302" height="8.301"/>
	<rect x="842.127" y="46.551" fill="#0A1422" width="8.302" height="8.301"/>
	<rect x="842.127" y="57.218" fill="#0A1422" width="8.302" height="8.301"/>
	<rect x="842.127" y="67.884" fill="#0A1422" width="8.302" height="8.301"/>
	<rect x="842.127" y="78.551" fill="#0A1422" width="8.302" height="8.301"/>
	<rect x="842.127" y="89.217" fill="#0A1422" width="8.302" height="8.301"/>
	<rect x="842.127" y="99.883" fill="#0A1422" width="8.302" height="8.302"/>
	<rect x="852.794" y="35.885" fill="#0A1422" width="8.301" height="8.301"/>
	<rect x="852.794" y="46.551" fill="#0A1422" width="8.301" height="8.301"/>
	<rect x="852.794" y="57.218" fill="#0A1422" width="8.301" height="8.301"/>
	<rect x="852.794" y="67.884" fill="#0A1422" width="8.301" height="8.301"/>
	<rect x="852.794" y="78.551" fill="#0A1422" width="8.301" height="8.301"/>
	<rect x="852.794" y="89.217" fill="#0A1422" width="8.301" height="8.301"/>
	<rect x="852.794" y="99.883" fill="#0A1422" width="8.301" height="8.302"/>
	<rect x="863.46" y="35.885" fill="#0A1422" width="8.302" height="8.301"/>
	<rect x="863.46" y="46.551" fill="#0A1422" width="8.302" height="8.301"/>
	<rect x="863.46" y="57.218" fill="#0A1422" width="8.302" height="8.301"/>
	<rect x="863.46" y="67.884" fill="#0A1422" width="8.302" height="8.301"/>
	<rect x="863.46" y="78.551" fill="#0A1422" width="8.302" height="8.301"/>
	<rect x="863.46" y="89.217" fill="#0A1422" width="8.302" height="8.301"/>
	<rect x="863.46" y="99.883" fill="#0A1422" width="8.302" height="8.302"/>
	<rect x="874.127" y="35.885" fill="#0A1422" width="8.301" height="8.301"/>
	<rect x="874.127" y="46.551" fill="#0A1422" width="8.301" height="8.301"/>
	<rect x="874.127" y="57.218" fill="#0A1422" width="8.301" height="8.301"/>
	<rect x="874.127" y="67.884" fill="#0A1422" width="8.301" height="8.301"/>
	<rect x="874.127" y="78.551" fill="#0A1422" width="8.301" height="8.301"/>
	<rect x="874.127" y="89.217" fill="#0A1422" width="8.301" height="8.301"/>
	<rect x="874.127" y="99.883" fill="#0A1422" width="8.301" height="8.302"/>
	<rect x="884.793" y="35.885" fill="#0A1422" width="8.302" height="8.301"/>
	<rect x="884.793" y="46.551" fill="#0A1422" width="8.302" height="8.301"/>
	<rect x="884.793" y="57.218" fill="#0A1422" width="8.302" height="8.301"/>
	<rect x="884.793" y="67.884" fill="#0A1422" width="8.302" height="8.301"/>
	<rect x="884.793" y="78.551" fill="#0A1422" width="8.302" height="8.301"/>
	<rect x="884.793" y="89.217" fill="#0A1422" width="8.302" height="8.301"/>
	<rect x="884.793" y="99.883" fill="#0A1422" width="8.302" height="8.302"/>
	<rect x="895.46" y="35.885" fill="#0A1422" width="8.301" height="8.301"/>
	<rect x="895.46" y="46.551" fill="#0A1422" width="8.301" height="8.301"/>
	<rect x="895.46" y="57.218" fill="#0A1422" width="8.301" height="8.301"/>
	<rect x="895.46" y="67.884" fill="#0A1422" width="8.301" height="8.301"/>
	<rect x="895.46" y="78.551" fill="#0A1422" width="8.301" height="8.301"/>
	<rect x="895.46" y="89.217" fill="#0A1422" width="8.301" height="8.301"/>
	<rect x="895.46" y="99.883" fill="#0A1422" width="8.301" height="8.302"/>
	<rect x="906.126" y="35.885" fill="#0A1422" width="8.302" height="8.301"/>
	<rect x="906.126" y="46.551" fill="#0A1422" width="8.302" height="8.301"/>
	<rect x="906.126" y="57.218" fill="#0A1422" width="8.302" height="8.301"/>
	<rect x="906.126" y="67.884" fill="#0A1422" width="8.302" height="8.301"/>
	<rect x="906.126" y="78.551" fill="#0A1422" width="8.302" height="8.301"/>
	<rect x="906.126" y="89.217" fill="#0A1422" width="8.302" height="8.301"/>
	<rect x="906.126" y="99.883" fill="#0A1422" width="8.302" height="8.302"/>
</g>
<rect x="359.786" y="149.367" fill="#323333" width="249.667" height="2.732"/>
<rect x="361.621" y="187.113" fill="#323333" width="245.346" height="2.73"/>
</svg>
