<?xml version="1.0" encoding="utf-8"?>
<!-- Generator: Adobe Illustrator 16.0.0, SVG Export Plug-In . SVG Version: 6.00 Build 0)  -->
<!DOCTYPE svg PUBLIC "-//W3C//DTD SVG 1.1//EN" "http://www.w3.org/Graphics/SVG/1.1/DTD/svg11.dtd">
<svg version="1.1" id="图层_1" xmlns="http://www.w3.org/2000/svg" xmlns:xlink="http://www.w3.org/1999/xlink" x="0px" y="0px"
	 width="1275.59px" height="252.28px" viewBox="0 0 1275.59 252.28" enable-background="new 0 0 1275.59 252.28"
	 xml:space="preserve">
<g>
	<rect x="-0.001" y="0.292" fill="#E2E2DF" width="1275.591" height="252.284"/>
	<g>
		<g>
			<rect x="-0.001" y="0.292" fill="#B5B4B5" width="50.998" height="252.284"/>
			<rect x="50.997" y="0.292" fill="#757575" width="1.336" height="252.284"/>
		</g>
		<circle fill="#606262" cx="26.166" cy="24" r="18"/>
		<circle fill="#606262" cx="26.166" cy="226.5" r="18"/>
	</g>
	<g>
		<g>
			<rect x="1224.592" y="0.292" fill="#B5B4B5" width="50.998" height="252.284"/>
			<rect x="1223.256" y="0.292" fill="#757575" width="1.336" height="252.284"/>
		</g>
		<circle fill="#606262" cx="1249.422" cy="24" r="18"/>
		<circle fill="#606262" cx="1249.422" cy="226.5" r="18"/>
	</g>
	<g>
		<g>
			<g>
				<polygon fill="#0A1D2A" points="249.954,98 227.954,108 205.954,98 205.954,25 249.954,25 				"/>
				<polygon fill="#37609D" points="249.12,97 227.12,107 205.12,97 205.12,24 249.12,24 				"/>
			</g>
			<g>
				<g>
					<path fill="#324C70" d="M243.162,76.842h-31.25v-38h31.25V76.842z M213.912,74.842h27.25v-34h-27.25V74.842z"/>
				</g>
				<g>
					<path fill="#324C70" d="M227.537,92.158l-8.714-12.529h17.428L227.537,92.158z M222.65,81.628l4.887,7.026l4.887-7.026H222.65z
						"/>
				</g>
			</g>
		</g>
		<g>
			<g>
				<polygon fill="#0A1D2A" points="1059.613,98.5 1037.613,108.5 1015.613,98.5 1015.613,25.5 1059.613,25.5 				"/>
				<polygon fill="#37609D" points="1058.779,97.5 1036.779,107.5 1014.779,97.5 1014.779,24.5 1058.779,24.5 				"/>
			</g>
			<g>
				<g>
					<path fill="#324C70" d="M1052.821,77.342h-31.25v-38h31.25V77.342z M1023.571,75.342h27.25v-34h-27.25V75.342z"/>
				</g>
				<g>
					<path fill="#324C70" d="M1037.196,92.658l-8.714-12.529h17.428L1037.196,92.658z M1032.31,82.128l4.887,7.026l4.887-7.026
						H1032.31z"/>
				</g>
			</g>
		</g>
	</g>
	<g>
		<path fill="#3660A2" d="M269.522,52.163h10.315v4.35l-5.529,14.191h5.933v4.213h-9.54c0,0-2.427-0.978-1.719-2.73l6.035-15.844
			h-5.495V52.163z"/>
		<polygon fill="#3660A2" points="281.287,52.163 292.243,52.163 292.243,56.242 288.838,56.242 288.872,74.917 284.759,74.917 
			284.726,56.377 281.287,56.343 		"/>
		<path fill="#3660A2" d="M293.676,52.163h9.658v4.155h-5.486v4.918h5.133l-0.026,3.981h-5.132v5.512h5.512v4.188h-7.888
			c0,0-1.795-0.547-1.77-2.09V52.163z"/>
	</g>
	<text transform="matrix(1 0 0 1 312.2495 72.7793)" font-family="'AdobeHeitiStd-Regular-GBpc-EUC-H'" font-size="24.25">中兴</text>
</g>
</svg>
