<?xml version="1.0" encoding="utf-8"?>
<!-- Generator: Adobe Illustrator 16.0.0, SVG Export Plug-In . SVG Version: 6.00 Build 0)  -->
<!DOCTYPE svg PUBLIC "-//W3C//DTD SVG 1.1//EN" "http://www.w3.org/Graphics/SVG/1.1/DTD/svg11.dtd">
<svg version="1.1" id="图层_1" xmlns="http://www.w3.org/2000/svg" xmlns:xlink="http://www.w3.org/1999/xlink" x="0px" y="0px"
	 width="1275.591px" height="252.283px" viewBox="0 0 1275.591 252.283" enable-background="new 0 0 1275.591 252.283"
	 xml:space="preserve">
<rect x="0.001" fill="#DCDAD3" width="1275.591" height="126.142"/>
<rect x="0.001" y="126.142" fill="#DCDAD3" width="1275.591" height="126.142"/>
<g>
	<g>
		<g>
			<defs>
				<path id="SVGID_1_" d="M54.415,23.82l-3.938,0.188l-0.885,31.497l14.583,4.302c5.823,1.713,11.138-6.054,11.138-16.282v-3.833
					c0-4.646-1.806-8.71-4.397-9.902l-9.9-4.554c-1.927-0.824-4.32-1.419-6.339-1.419C54.588,23.816,54.5,23.818,54.415,23.82"/>
			</defs>
			<clipPath id="SVGID_2_">
				<use xlink:href="#SVGID_1_"  overflow="visible"/>
			</clipPath>
			
				<linearGradient id="SVGID_3_" gradientUnits="userSpaceOnUse" x1="-667.854" y1="545.5791" x2="-666.3358" y2="545.5791" gradientTransform="matrix(-21.6019 8.6407 -8.6407 -21.6019 -9630.2451 17590.9199)">
				<stop  offset="0" style="stop-color:#E1E0DF"/>
				<stop  offset="1" style="stop-color:#666767"/>
			</linearGradient>
			<polygon clip-path="url(#SVGID_2_)" fill="url(#SVGID_3_)" points="71.765,8.455 42.085,29.017 53.139,76.881 82.82,56.32 			"/>
		</g>
		<g>
			<defs>
				<path id="SVGID_4_" d="M66.243,183.129l-16.651,5.525l1.915,31.281c3.542,0,7.068-0.802,10.49-2.383l5.892-2.719
					c4.378-2.024,7.424-8.891,7.423-16.742v-1.976c0-7.438-3.502-13.227-7.616-13.227C67.218,182.889,66.732,182.968,66.243,183.129
					"/>
			</defs>
			<clipPath id="SVGID_5_">
				<use xlink:href="#SVGID_4_"  overflow="visible"/>
			</clipPath>
			
				<linearGradient id="SVGID_6_" gradientUnits="userSpaceOnUse" x1="-680.4663" y1="554.1523" x2="-679.3301" y2="554.1523" gradientTransform="matrix(-14.9609 0 0 -14.9609 -10102.3379 8492.0342)">
				<stop  offset="0" style="stop-color:#E1E0DF"/>
				<stop  offset="1" style="stop-color:#666767"/>
			</linearGradient>
			<rect x="49.592" y="182.889" clip-path="url(#SVGID_5_)" fill="url(#SVGID_6_)" width="25.721" height="37.047"/>
		</g>
		<g>
			<defs>
				<path id="SVGID_7_" d="M51.507,23.822c-6.196,0-11.219,8.701-11.219,19.433v157.247c0,10.733,5.023,19.434,11.219,19.434
					c6.194,0,11.22-8.701,11.22-19.434V43.254C62.727,32.522,57.702,23.822,51.507,23.822L51.507,23.822z"/>
			</defs>
			<clipPath id="SVGID_8_">
				<use xlink:href="#SVGID_7_"  overflow="visible"/>
			</clipPath>
			
				<linearGradient id="SVGID_9_" gradientUnits="userSpaceOnUse" x1="-612.876" y1="541.5938" x2="-611.7397" y2="541.5938" gradientTransform="matrix(19.747 0 0 19.747 12142.7646 -10572.9717)">
				<stop  offset="0" style="stop-color:#CCCDCD"/>
				<stop  offset="0.4731" style="stop-color:#E1E0DF"/>
				<stop  offset="1" style="stop-color:#666767"/>
			</linearGradient>
			<rect x="40.288" y="23.822" clip-path="url(#SVGID_8_)" fill="url(#SVGID_9_)" width="22.439" height="196.114"/>
		</g>
	</g>
	<g>
		<g>
			<defs>
				<path id="SVGID_10_" d="M1221.178,23.82l3.938,0.188L1226,55.504l-14.582,4.302c-5.824,1.713-11.139-6.054-11.139-16.282v-3.833
					c0-4.646,1.807-8.71,4.398-9.902l9.9-4.554c1.927-0.824,4.32-1.419,6.339-1.419C1221.004,23.816,1221.092,23.818,1221.178,23.82
					"/>
			</defs>
			<clipPath id="SVGID_11_">
				<use xlink:href="#SVGID_10_"  overflow="visible"/>
			</clipPath>
			
				<linearGradient id="SVGID_12_" gradientUnits="userSpaceOnUse" x1="-464.9912" y1="626.7236" x2="-463.473" y2="626.7236" gradientTransform="matrix(21.6019 8.6407 8.6407 -21.6019 5822.4834 17590.9199)">
				<stop  offset="0" style="stop-color:#E1E0DF"/>
				<stop  offset="1" style="stop-color:#666767"/>
			</linearGradient>
			<polygon clip-path="url(#SVGID_11_)" fill="url(#SVGID_12_)" points="1203.828,8.455 1233.508,29.017 1222.453,76.881 
				1192.773,56.32 			"/>
		</g>
		<g>
			<defs>
				<path id="SVGID_13_" d="M1209.35,183.129l16.65,5.525l-1.914,31.281c-3.543,0-7.068-0.802-10.49-2.383l-5.893-2.719
					c-4.377-2.024-7.424-8.891-7.422-16.742v-1.976c0-7.438,3.502-13.227,7.615-13.227
					C1208.375,182.889,1208.861,182.968,1209.35,183.129"/>
			</defs>
			<clipPath id="SVGID_14_">
				<use xlink:href="#SVGID_13_"  overflow="visible"/>
			</clipPath>
			
				<linearGradient id="SVGID_15_" gradientUnits="userSpaceOnUse" x1="-340.6904" y1="554.1523" x2="-339.5546" y2="554.1523" gradientTransform="matrix(14.9609 0 0 -14.9609 6294.5845 8492.0342)">
				<stop  offset="0" style="stop-color:#E1E0DF"/>
				<stop  offset="1" style="stop-color:#666767"/>
			</linearGradient>
			<rect x="1200.279" y="182.889" clip-path="url(#SVGID_14_)" fill="url(#SVGID_15_)" width="25.721" height="37.047"/>
		</g>
		<g>
			<defs>
				<path id="SVGID_16_" d="M1224.086,23.822c6.195,0,11.219,8.701,11.219,19.433v157.247c0,10.733-5.023,19.434-11.219,19.434
					s-11.221-8.701-11.221-19.434V43.254C1212.865,32.522,1217.891,23.822,1224.086,23.822L1224.086,23.822z"/>
			</defs>
			<clipPath id="SVGID_17_">
				<use xlink:href="#SVGID_16_"  overflow="visible"/>
			</clipPath>
			
				<linearGradient id="SVGID_18_" gradientUnits="userSpaceOnUse" x1="-870.2998" y1="541.5938" x2="-869.1636" y2="541.5938" gradientTransform="matrix(-19.747 0 0 19.747 -15950.5264 -10572.9717)">
				<stop  offset="0" style="stop-color:#CCCDCD"/>
				<stop  offset="0.4731" style="stop-color:#E1E0DF"/>
				<stop  offset="1" style="stop-color:#666767"/>
			</linearGradient>
			<rect x="1212.865" y="23.822" clip-path="url(#SVGID_17_)" fill="url(#SVGID_18_)" width="22.439" height="196.114"/>
		</g>
	</g>
</g>
<g>
	<g>
		<path fill="#262626" d="M31.786,30.4c0,6.835-5.544,12.377-12.382,12.377S7.023,37.235,7.023,30.4
			c0-6.837,5.543-12.378,12.381-12.378S31.786,23.563,31.786,30.4"/>
		<circle fill="none" stroke="#131313" stroke-width="0.75" stroke-miterlimit="10" cx="19.404" cy="30.4" r="12.381"/>
		<polygon fill="#040000" points="17.875,37.419 17.875,31.928 12.382,31.928 12.382,28.869 17.875,28.869 17.875,23.379 
			20.934,23.379 20.934,28.869 26.426,28.869 26.426,31.928 20.934,31.928 20.934,37.419 		"/>
		<path fill="#231815" d="M20.676,23.637v4.974v0.516h0.516h4.977v2.543h-4.977h-0.516v0.516v4.975h-2.543v-4.975V31.67h-0.518
			H12.64v-2.543h4.976h0.518v-0.516v-4.974H20.676z M21.192,23.122h-3.576v5.49h-5.492v3.575h5.492v5.491h3.576v-5.491h5.492v-3.575
			h-5.492V23.122z"/>
	</g>
	<g>
		<path fill="#262626" d="M31.786,222.937c0,6.835-5.544,12.377-12.382,12.377s-12.381-5.542-12.381-12.377
			c0-6.837,5.543-12.379,12.381-12.379S31.786,216.1,31.786,222.937"/>
		<circle fill="none" stroke="#131313" stroke-width="0.75" stroke-miterlimit="10" cx="19.404" cy="222.937" r="12.381"/>
		<polygon fill="#040000" points="17.875,229.956 17.875,224.465 12.382,224.465 12.382,221.406 17.875,221.406 17.875,215.916 
			20.934,215.916 20.934,221.406 26.426,221.406 26.426,224.465 20.934,224.465 20.934,229.956 		"/>
		<path fill="#231815" d="M20.676,216.174v4.974v0.516h0.516h4.977v2.543h-4.977h-0.516v0.516v4.975h-2.543v-4.975v-0.516h-0.518
			H12.64v-2.543h4.976h0.518v-0.516v-4.974H20.676z M21.192,215.658h-3.576v5.49h-5.492v3.575h5.492v5.491h3.576v-5.491h5.492
			v-3.575h-5.492V215.658z"/>
	</g>
</g>
<g>
	<g>
		<path fill="#262626" d="M1264.068,30.4c0,6.835-5.545,12.377-12.383,12.377s-12.381-5.542-12.381-12.377
			c0-6.837,5.543-12.378,12.381-12.378S1264.068,23.563,1264.068,30.4"/>
		<circle fill="none" stroke="#131313" stroke-width="0.75" stroke-miterlimit="10" cx="1251.687" cy="30.4" r="12.382"/>
		<polygon fill="#040000" points="1250.156,37.419 1250.156,31.928 1244.664,31.928 1244.664,28.869 1250.156,28.869 
			1250.156,23.379 1253.217,23.379 1253.217,28.869 1258.709,28.869 1258.709,31.928 1253.217,31.928 1253.217,37.419 		"/>
		<path fill="#231815" d="M1252.959,23.637v4.974v0.516h0.516h4.977v2.543h-4.977h-0.516v0.516v4.975h-2.543v-4.975V31.67h-0.518
			h-4.977v-2.543h4.977h0.518v-0.516v-4.974H1252.959z M1253.475,23.122h-3.576v5.49h-5.492v3.575h5.492v5.491h3.576v-5.491h5.492
			v-3.575h-5.492V23.122z"/>
	</g>
	<g>
		<path fill="#262626" d="M1264.068,222.937c0,6.835-5.545,12.377-12.383,12.377s-12.381-5.542-12.381-12.377
			c0-6.837,5.543-12.379,12.381-12.379S1264.068,216.1,1264.068,222.937"/>
		<circle fill="none" stroke="#131313" stroke-width="0.75" stroke-miterlimit="10" cx="1251.687" cy="222.937" r="12.382"/>
		<polygon fill="#040000" points="1250.156,229.956 1250.156,224.465 1244.664,224.465 1244.664,221.406 1250.156,221.406 
			1250.156,215.916 1253.217,215.916 1253.217,221.406 1258.709,221.406 1258.709,224.465 1253.217,224.465 1253.217,229.956 		"/>
		<path fill="#231815" d="M1252.959,216.174v4.974v0.516h0.516h4.977v2.543h-4.977h-0.516v0.516v4.975h-2.543v-4.975v-0.516h-0.518
			h-4.977v-2.543h4.977h0.518v-0.516v-4.974H1252.959z M1253.475,215.658h-3.576v5.49h-5.492v3.575h5.492v5.491h3.576v-5.491h5.492
			v-3.575h-5.492V215.658z"/>
	</g>
</g>
<path fill="#DCDAD3" stroke="#555656" stroke-miterlimit="10" d="M424.729,205.668c0,4.97-4.029,9-9,9H127.743c-4.971,0-9-4.029-9-9
	V40.085c0-4.971,4.029-9,9-9h287.985c4.971,0,9,4.029,9,9V205.668z"/>
<path fill="#DCDAD3" stroke="#555656" stroke-miterlimit="10" d="M1093.35,159.337c0,3.055-3.326,5.532-7.43,5.532H848.213
	c-4.103,0-7.429-2.477-7.429-5.532V57.566c0-3.055,3.326-5.532,7.429-5.532h237.707c4.104,0,7.43,2.477,7.43,5.532V159.337z"/>
<path fill="#DCDAD3" stroke="#555656" stroke-miterlimit="10" d="M369.221,127.057c0,1.784-2.568,3.231-5.734,3.231H179.985
	c-3.167,0-5.734-1.447-5.734-3.231V67.619c0-1.784,2.567-3.23,5.734-3.23h183.501c3.166,0,5.734,1.446,5.734,3.23V127.057z"/>
<path fill="#A8A17A" stroke="#555656" stroke-miterlimit="10" d="M343.731,119.287c0,1.318-1.896,2.386-4.235,2.386H203.974
	c-2.338,0-4.234-1.068-4.234-2.386V75.389c0-1.317,1.896-2.386,4.234-2.386h135.522c2.34,0,4.235,1.068,4.235,2.386V119.287z"/>
<circle fill="#3C3D3D" cx="258.884" cy="190.654" r="7.5"/>
<circle fill="#626363" cx="318.232" cy="190.654" r="7.5"/>
<circle fill="#626363" cx="377.582" cy="190.654" r="7.5"/>
<radialGradient id="SVGID_19_" cx="-9401.6895" cy="-3197.0728" r="5.5834" gradientTransform="matrix(0 -1 1 0 3338.7495 -9210.9355)" gradientUnits="userSpaceOnUse">
	<stop  offset="0" style="stop-color:#F7F8F8"/>
	<stop  offset="1" style="stop-color:#FAEE00"/>
</radialGradient>
<circle fill="url(#SVGID_19_)" stroke="#5F5F5F" stroke-width="0.5" stroke-miterlimit="10" cx="141.677" cy="190.654" r="5.583"/>
<radialGradient id="SVGID_20_" cx="-9401.6895" cy="-3136.0107" r="5.5834" gradientTransform="matrix(0 -1 1 0 3338.7495 -9210.9355)" gradientUnits="userSpaceOnUse">
	<stop  offset="0" style="stop-color:#F7F8F8"/>
	<stop  offset="1" style="stop-color:#FAEE00"/>
</radialGradient>
<circle fill="url(#SVGID_20_)" stroke="#5F5F5F" stroke-width="0.5" stroke-miterlimit="10" cx="202.739" cy="190.654" r="5.583"/>
<text transform="matrix(1 0 0 1 129.1523 179.0254)" font-family="'CTCuHeiSJ'" font-size="8">INPUT</text>
<text transform="matrix(1 0 0 1 187.4834 179.0254)" font-family="'CTCuHeiSJ'" font-size="8">OUTPUT</text>
<text transform="matrix(1 0 0 1 240.8174 179.0254)" font-family="'CTCuHeiSJ'" font-size="8">RESET</text>
<text transform="matrix(1 0 0 1 287.8086 179.0254)" font-family="'CTCuHeiSJ'" font-size="8">CURRENT LIMIT</text>
<text transform="matrix(1 0 0 1 362.8174 179.0254)" font-family="'CTCuHeiSJ'" font-size="8">ALARM</text>
<g>
	<g>
		<ellipse fill="#181919" cx="462.946" cy="72.975" rx="4.104" ry="4.525"/>
	</g>
	<g>
		<ellipse fill="#181919" cx="474.87" cy="65.107" rx="4.104" ry="4.526"/>
	</g>
	<g>
		<ellipse fill="#181919" cx="485.86" cy="55.558" rx="4.104" ry="4.527"/>
	</g>
	<g>
		<ellipse fill="#181919" cx="485.86" cy="72.975" rx="4.104" ry="4.525"/>
	</g>
	<g>
		<ellipse fill="#181919" cx="498.422" cy="48.223" rx="4.104" ry="4.527"/>
	</g>
	<g>
		<ellipse fill="#181919" cx="498.422" cy="65.107" rx="4.104" ry="4.526"/>
	</g>
	<g>
		<ellipse fill="#181919" cx="509.414" cy="40.234" rx="4.105" ry="4.527"/>
	</g>
	<g>
		<ellipse fill="#181919" cx="509.414" cy="55.558" rx="4.105" ry="4.527"/>
	</g>
	<g>
		<ellipse fill="#181919" cx="509.414" cy="72.975" rx="4.105" ry="4.525"/>
	</g>
	<g>
		<ellipse fill="#181919" cx="521.975" cy="48.223" rx="4.104" ry="4.527"/>
	</g>
	<g>
		<ellipse fill="#181919" cx="521.975" cy="65.107" rx="4.104" ry="4.526"/>
	</g>
	<g>
		<ellipse fill="#181919" cx="532.966" cy="40.234" rx="4.104" ry="4.527"/>
	</g>
	<g>
		<ellipse fill="#181919" cx="532.966" cy="55.558" rx="4.104" ry="4.527"/>
	</g>
	<g>
		<ellipse fill="#181919" cx="532.966" cy="72.975" rx="4.104" ry="4.525"/>
	</g>
	<g>
		<ellipse fill="#181919" cx="545.528" cy="48.223" rx="4.105" ry="4.527"/>
	</g>
	<g>
		<ellipse fill="#181919" cx="545.528" cy="65.107" rx="4.105" ry="4.526"/>
	</g>
	<g>
		<ellipse fill="#181919" cx="556.52" cy="40.234" rx="4.104" ry="4.527"/>
	</g>
	<g>
		<ellipse fill="#181919" cx="556.52" cy="55.558" rx="4.104" ry="4.527"/>
	</g>
	<g>
		<ellipse fill="#181919" cx="556.52" cy="72.975" rx="4.104" ry="4.525"/>
	</g>
	<g>
		<ellipse fill="#181919" cx="569.081" cy="48.223" rx="4.105" ry="4.527"/>
	</g>
	<g>
		<ellipse fill="#181919" cx="569.081" cy="65.107" rx="4.105" ry="4.526"/>
	</g>
	<g>
		<ellipse fill="#181919" cx="580.072" cy="40.234" rx="4.104" ry="4.527"/>
	</g>
	<g>
		<ellipse fill="#181919" cx="580.072" cy="55.558" rx="4.104" ry="4.527"/>
	</g>
	<g>
		<ellipse fill="#181919" cx="580.072" cy="72.975" rx="4.104" ry="4.525"/>
	</g>
	<g>
		<ellipse fill="#181919" cx="592.634" cy="48.223" rx="4.104" ry="4.527"/>
	</g>
	<g>
		<ellipse fill="#181919" cx="592.634" cy="65.107" rx="4.104" ry="4.526"/>
	</g>
	<g>
		<ellipse fill="#181919" cx="603.625" cy="40.234" rx="4.105" ry="4.527"/>
	</g>
	<g>
		<ellipse fill="#181919" cx="603.625" cy="55.558" rx="4.105" ry="4.527"/>
	</g>
	<g>
		<ellipse fill="#181919" cx="603.625" cy="72.975" rx="4.105" ry="4.525"/>
	</g>
	<g>
		<ellipse fill="#181919" cx="616.187" cy="48.223" rx="4.104" ry="4.527"/>
	</g>
	<g>
		<ellipse fill="#181919" cx="616.187" cy="65.107" rx="4.104" ry="4.526"/>
	</g>
	<g>
		<ellipse fill="#181919" cx="629.259" cy="40.234" rx="4.105" ry="4.527"/>
	</g>
	<g>
		<ellipse fill="#181919" cx="629.259" cy="55.558" rx="4.105" ry="4.527"/>
	</g>
	<g>
		<ellipse fill="#181919" cx="629.259" cy="72.975" rx="4.105" ry="4.525"/>
	</g>
	<g>
		<ellipse fill="#181919" cx="641.313" cy="40.234" rx="4.104" ry="4.527"/>
	</g>
	<g>
		<ellipse fill="#181919" cx="641.313" cy="55.558" rx="4.104" ry="4.527"/>
	</g>
	<g>
		<ellipse fill="#181919" cx="641.313" cy="72.975" rx="4.104" ry="4.525"/>
	</g>
	<g>
		<ellipse fill="#181919" cx="652.767" cy="48.223" rx="4.104" ry="4.527"/>
	</g>
	<g>
		<ellipse fill="#181919" cx="652.767" cy="65.107" rx="4.104" ry="4.526"/>
	</g>
	<g>
		<ellipse fill="#181919" cx="663.758" cy="40.234" rx="4.104" ry="4.527"/>
	</g>
	<g>
		<ellipse fill="#181919" cx="663.758" cy="55.558" rx="4.104" ry="4.527"/>
	</g>
	<g>
		<ellipse fill="#181919" cx="663.758" cy="72.975" rx="4.104" ry="4.525"/>
	</g>
	<g>
		<ellipse fill="#181919" cx="675.681" cy="48.223" rx="4.104" ry="4.527"/>
	</g>
	<g>
		<ellipse fill="#181919" cx="675.681" cy="65.107" rx="4.104" ry="4.526"/>
	</g>
	<g>
		<ellipse fill="#181919" cx="686.672" cy="40.234" rx="4.104" ry="4.527"/>
	</g>
	<g>
		<ellipse fill="#181919" cx="686.672" cy="55.558" rx="4.104" ry="4.527"/>
	</g>
	<g>
		<ellipse fill="#181919" cx="686.672" cy="72.975" rx="4.104" ry="4.525"/>
	</g>
	<g>
		<ellipse fill="#181919" cx="699.233" cy="48.223" rx="4.104" ry="4.527"/>
	</g>
	<g>
		<ellipse fill="#181919" cx="699.233" cy="65.107" rx="4.104" ry="4.526"/>
	</g>
	<g>
		<ellipse fill="#181919" cx="710.225" cy="40.234" rx="4.104" ry="4.527"/>
	</g>
	<g>
		<ellipse fill="#181919" cx="710.225" cy="55.558" rx="4.104" ry="4.527"/>
	</g>
	<g>
		<ellipse fill="#181919" cx="710.225" cy="72.975" rx="4.104" ry="4.525"/>
	</g>
	<g>
		<ellipse fill="#181919" cx="722.787" cy="48.223" rx="4.105" ry="4.527"/>
	</g>
	<g>
		<ellipse fill="#181919" cx="722.787" cy="65.107" rx="4.105" ry="4.526"/>
	</g>
	<g>
		<ellipse fill="#181919" cx="733.777" cy="40.234" rx="4.104" ry="4.527"/>
	</g>
	<g>
		<ellipse fill="#181919" cx="733.777" cy="55.558" rx="4.104" ry="4.527"/>
	</g>
	<g>
		<ellipse fill="#181919" cx="733.777" cy="72.975" rx="4.104" ry="4.525"/>
	</g>
	<g>
		<ellipse fill="#181919" cx="746.34" cy="48.223" rx="4.104" ry="4.527"/>
	</g>
	<g>
		<ellipse fill="#181919" cx="746.34" cy="65.107" rx="4.104" ry="4.526"/>
	</g>
	<g>
		<ellipse fill="#181919" cx="757.331" cy="40.234" rx="4.105" ry="4.527"/>
	</g>
	<g>
		<ellipse fill="#181919" cx="757.331" cy="55.558" rx="4.105" ry="4.527"/>
	</g>
	<g>
		<ellipse fill="#181919" cx="757.331" cy="72.975" rx="4.105" ry="4.525"/>
	</g>
	<g>
		<ellipse fill="#181919" cx="769.893" cy="48.223" rx="4.104" ry="4.527"/>
	</g>
	<g>
		<ellipse fill="#181919" cx="769.893" cy="65.107" rx="4.104" ry="4.526"/>
	</g>
	<g>
		<ellipse fill="#181919" cx="780.884" cy="55.558" rx="4.104" ry="4.527"/>
	</g>
	<g>
		<ellipse fill="#181919" cx="780.884" cy="72.975" rx="4.104" ry="4.525"/>
	</g>
	<g>
		<ellipse fill="#181919" cx="794.486" cy="65.107" rx="4.105" ry="4.526"/>
	</g>
	<g>
		<ellipse fill="#181919" cx="805.551" cy="72.975" rx="4.104" ry="4.525"/>
	</g>
	<g>
		<ellipse fill="#181919" cx="451.5" cy="82.147" rx="4.104" ry="4.527"/>
	</g>
	<g>
		<ellipse fill="#181919" cx="451.5" cy="97.47" rx="4.104" ry="4.527"/>
	</g>
	<g>
		<ellipse fill="#181919" cx="451.5" cy="114.888" rx="4.104" ry="4.524"/>
	</g>
	<g>
		<ellipse fill="#181919" cx="463.423" cy="90.136" rx="4.104" ry="4.527"/>
	</g>
	<g>
		<ellipse fill="#181919" cx="463.423" cy="107.021" rx="4.104" ry="4.527"/>
	</g>
	<g>
		<ellipse fill="#181919" cx="474.414" cy="82.147" rx="4.104" ry="4.527"/>
	</g>
	<g>
		<ellipse fill="#181919" cx="474.414" cy="97.47" rx="4.104" ry="4.527"/>
	</g>
	<g>
		<ellipse fill="#181919" cx="474.414" cy="114.888" rx="4.104" ry="4.524"/>
	</g>
	<g>
		<ellipse fill="#181919" cx="486.975" cy="90.136" rx="4.105" ry="4.527"/>
	</g>
	<g>
		<ellipse fill="#181919" cx="486.975" cy="107.021" rx="4.105" ry="4.527"/>
	</g>
	<g>
		<ellipse fill="#181919" cx="497.967" cy="82.147" rx="4.104" ry="4.527"/>
	</g>
	<g>
		<ellipse fill="#181919" cx="497.967" cy="97.47" rx="4.104" ry="4.527"/>
	</g>
	<g>
		<ellipse fill="#181919" cx="497.967" cy="114.888" rx="4.104" ry="4.524"/>
	</g>
	<g>
		<ellipse fill="#181919" cx="510.528" cy="90.136" rx="4.105" ry="4.527"/>
	</g>
	<g>
		<ellipse fill="#181919" cx="510.528" cy="107.021" rx="4.105" ry="4.527"/>
	</g>
	<g>
		<ellipse fill="#181919" cx="521.52" cy="82.147" rx="4.104" ry="4.527"/>
	</g>
	<g>
		<ellipse fill="#181919" cx="521.52" cy="97.47" rx="4.104" ry="4.527"/>
	</g>
	<g>
		<ellipse fill="#181919" cx="521.52" cy="114.888" rx="4.104" ry="4.524"/>
	</g>
	<g>
		<ellipse fill="#181919" cx="534.081" cy="90.136" rx="4.104" ry="4.527"/>
	</g>
	<g>
		<ellipse fill="#181919" cx="534.081" cy="107.021" rx="4.104" ry="4.527"/>
	</g>
	<g>
		<ellipse fill="#181919" cx="545.072" cy="82.147" rx="4.104" ry="4.527"/>
	</g>
	<g>
		<ellipse fill="#181919" cx="545.072" cy="97.47" rx="4.104" ry="4.527"/>
	</g>
	<g>
		<ellipse fill="#181919" cx="545.072" cy="114.888" rx="4.104" ry="4.524"/>
	</g>
	<g>
		<ellipse fill="#181919" cx="557.634" cy="90.136" rx="4.104" ry="4.527"/>
	</g>
	<g>
		<ellipse fill="#181919" cx="557.634" cy="107.021" rx="4.104" ry="4.527"/>
	</g>
	<g>
		<ellipse fill="#181919" cx="568.625" cy="82.147" rx="4.104" ry="4.527"/>
	</g>
	<g>
		<ellipse fill="#181919" cx="568.625" cy="97.47" rx="4.104" ry="4.527"/>
	</g>
	<g>
		<ellipse fill="#181919" cx="568.625" cy="114.888" rx="4.104" ry="4.524"/>
	</g>
	<g>
		<ellipse fill="#181919" cx="581.187" cy="90.136" rx="4.105" ry="4.527"/>
	</g>
	<g>
		<ellipse fill="#181919" cx="581.187" cy="107.021" rx="4.105" ry="4.527"/>
	</g>
	<g>
		<ellipse fill="#181919" cx="592.178" cy="82.147" rx="4.104" ry="4.527"/>
	</g>
	<g>
		<ellipse fill="#181919" cx="592.178" cy="97.47" rx="4.104" ry="4.527"/>
	</g>
	<g>
		<ellipse fill="#181919" cx="592.178" cy="114.888" rx="4.104" ry="4.524"/>
	</g>
	<g>
		<ellipse fill="#181919" cx="604.74" cy="90.136" rx="4.105" ry="4.527"/>
	</g>
	<g>
		<ellipse fill="#181919" cx="604.74" cy="107.021" rx="4.105" ry="4.527"/>
	</g>
	<g>
		<ellipse fill="#181919" cx="615.731" cy="82.147" rx="4.105" ry="4.527"/>
	</g>
	<g>
		<ellipse fill="#181919" cx="615.731" cy="97.47" rx="4.105" ry="4.527"/>
	</g>
	<g>
		<ellipse fill="#181919" cx="615.731" cy="114.888" rx="4.105" ry="4.524"/>
	</g>
	<g>
		<ellipse fill="#181919" cx="629.262" cy="91.731" rx="4.104" ry="4.527"/>
	</g>
	<g>
		<ellipse fill="#181919" cx="629.262" cy="111.445" rx="4.104" ry="4.525"/>
	</g>
	<g>
		<ellipse fill="#181919" cx="641.32" cy="90.136" rx="4.104" ry="4.527"/>
	</g>
	<g>
		<ellipse fill="#181919" cx="641.32" cy="107.021" rx="4.104" ry="4.527"/>
	</g>
	<g>
		<ellipse fill="#181919" cx="652.311" cy="82.147" rx="4.105" ry="4.527"/>
	</g>
	<g>
		<ellipse fill="#181919" cx="652.311" cy="97.47" rx="4.105" ry="4.527"/>
	</g>
	<g>
		<ellipse fill="#181919" cx="652.311" cy="114.888" rx="4.105" ry="4.524"/>
	</g>
	<g>
		<ellipse fill="#181919" cx="664.234" cy="90.136" rx="4.104" ry="4.527"/>
	</g>
	<g>
		<ellipse fill="#181919" cx="664.234" cy="107.021" rx="4.104" ry="4.527"/>
	</g>
	<g>
		<ellipse fill="#181919" cx="675.225" cy="82.147" rx="4.105" ry="4.527"/>
	</g>
	<g>
		<ellipse fill="#181919" cx="675.225" cy="97.47" rx="4.105" ry="4.527"/>
	</g>
	<g>
		<ellipse fill="#181919" cx="675.225" cy="114.888" rx="4.105" ry="4.524"/>
	</g>
	<g>
		<ellipse fill="#181919" cx="687.787" cy="90.136" rx="4.104" ry="4.527"/>
	</g>
	<g>
		<ellipse fill="#181919" cx="687.787" cy="107.021" rx="4.104" ry="4.527"/>
	</g>
	<g>
		<ellipse fill="#181919" cx="698.778" cy="82.147" rx="4.104" ry="4.527"/>
	</g>
	<g>
		<ellipse fill="#181919" cx="698.778" cy="97.47" rx="4.104" ry="4.527"/>
	</g>
	<g>
		<ellipse fill="#181919" cx="698.778" cy="114.888" rx="4.104" ry="4.524"/>
	</g>
	<g>
		<ellipse fill="#181919" cx="711.339" cy="90.136" rx="4.105" ry="4.527"/>
	</g>
	<g>
		<ellipse fill="#181919" cx="711.339" cy="107.021" rx="4.105" ry="4.527"/>
	</g>
	<g>
		<ellipse fill="#181919" cx="722.331" cy="82.147" rx="4.104" ry="4.527"/>
	</g>
	<g>
		<ellipse fill="#181919" cx="722.331" cy="97.47" rx="4.104" ry="4.527"/>
	</g>
	<g>
		<ellipse fill="#181919" cx="722.331" cy="114.888" rx="4.104" ry="4.524"/>
	</g>
	<g>
		<ellipse fill="#181919" cx="734.893" cy="90.136" rx="4.104" ry="4.527"/>
	</g>
	<g>
		<ellipse fill="#181919" cx="734.893" cy="107.021" rx="4.104" ry="4.527"/>
	</g>
	<g>
		<ellipse fill="#181919" cx="745.884" cy="82.147" rx="4.104" ry="4.527"/>
	</g>
	<g>
		<ellipse fill="#181919" cx="745.884" cy="97.47" rx="4.104" ry="4.527"/>
	</g>
	<g>
		<ellipse fill="#181919" cx="745.884" cy="114.888" rx="4.104" ry="4.524"/>
	</g>
	<g>
		<ellipse fill="#181919" cx="758.445" cy="90.136" rx="4.104" ry="4.527"/>
	</g>
	<g>
		<ellipse fill="#181919" cx="758.445" cy="107.021" rx="4.104" ry="4.527"/>
	</g>
	<g>
		<ellipse fill="#181919" cx="769.437" cy="82.147" rx="4.104" ry="4.527"/>
	</g>
	<g>
		<ellipse fill="#181919" cx="769.437" cy="97.47" rx="4.104" ry="4.527"/>
	</g>
	<g>
		<ellipse fill="#181919" cx="769.437" cy="114.888" rx="4.104" ry="4.524"/>
	</g>
	<g>
		<ellipse fill="#181919" cx="781.998" cy="90.136" rx="4.104" ry="4.527"/>
	</g>
	<g>
		<ellipse fill="#181919" cx="781.998" cy="107.021" rx="4.104" ry="4.527"/>
	</g>
	<g>
		<ellipse fill="#181919" cx="794.486" cy="82.147" rx="4.105" ry="4.527"/>
	</g>
	<g>
		<ellipse fill="#181919" cx="794.486" cy="97.47" rx="4.105" ry="4.527"/>
	</g>
	<g>
		<ellipse fill="#181919" cx="794.486" cy="114.888" rx="4.105" ry="4.524"/>
	</g>
	<g>
		<ellipse fill="#181919" cx="805.551" cy="90.136" rx="4.104" ry="4.527"/>
	</g>
	<g>
		<ellipse fill="#181919" cx="805.551" cy="107.021" rx="4.104" ry="4.527"/>
	</g>
	<g>
		<ellipse fill="#181919" cx="451.5" cy="130.057" rx="4.104" ry="4.527"/>
	</g>
	<g>
		<ellipse fill="#181919" cx="451.5" cy="146.94" rx="4.104" ry="4.527"/>
	</g>
	<g>
		<ellipse fill="#181919" cx="462.946" cy="122.067" rx="4.104" ry="4.527"/>
	</g>
	<g>
		<ellipse fill="#181919" cx="462.946" cy="137.391" rx="4.104" ry="4.527"/>
	</g>
	<g>
		<ellipse fill="#181919" cx="462.946" cy="154.808" rx="4.104" ry="4.525"/>
	</g>
	<g>
		<ellipse fill="#181919" cx="474.87" cy="130.057" rx="4.104" ry="4.527"/>
	</g>
	<g>
		<ellipse fill="#181919" cx="474.87" cy="146.94" rx="4.104" ry="4.527"/>
	</g>
	<g>
		<ellipse fill="#181919" cx="485.86" cy="122.067" rx="4.104" ry="4.527"/>
	</g>
	<g>
		<ellipse fill="#181919" cx="485.86" cy="137.391" rx="4.104" ry="4.527"/>
	</g>
	<g>
		<ellipse fill="#181919" cx="485.86" cy="154.808" rx="4.104" ry="4.525"/>
	</g>
	<g>
		<ellipse fill="#181919" cx="498.422" cy="130.057" rx="4.104" ry="4.527"/>
	</g>
	<g>
		<ellipse fill="#181919" cx="498.422" cy="146.94" rx="4.104" ry="4.527"/>
	</g>
	<g>
		<ellipse fill="#181919" cx="509.414" cy="122.067" rx="4.105" ry="4.527"/>
	</g>
	<g>
		<ellipse fill="#181919" cx="509.414" cy="137.391" rx="4.105" ry="4.527"/>
	</g>
	<g>
		<ellipse fill="#181919" cx="509.414" cy="154.808" rx="4.105" ry="4.525"/>
	</g>
	<g>
		<ellipse fill="#181919" cx="521.975" cy="130.057" rx="4.104" ry="4.527"/>
	</g>
	<g>
		<ellipse fill="#181919" cx="521.975" cy="146.94" rx="4.104" ry="4.527"/>
	</g>
	<g>
		<ellipse fill="#181919" cx="532.966" cy="122.067" rx="4.104" ry="4.527"/>
	</g>
	<g>
		<ellipse fill="#181919" cx="532.966" cy="137.391" rx="4.104" ry="4.527"/>
	</g>
	<g>
		<ellipse fill="#181919" cx="532.966" cy="154.808" rx="4.104" ry="4.525"/>
	</g>
	<g>
		<ellipse fill="#181919" cx="545.528" cy="130.057" rx="4.105" ry="4.527"/>
	</g>
	<g>
		<ellipse fill="#181919" cx="545.528" cy="146.94" rx="4.105" ry="4.527"/>
	</g>
	<g>
		<ellipse fill="#181919" cx="556.52" cy="122.067" rx="4.104" ry="4.527"/>
	</g>
	<g>
		<ellipse fill="#181919" cx="556.52" cy="137.391" rx="4.104" ry="4.527"/>
	</g>
	<g>
		<ellipse fill="#181919" cx="556.52" cy="154.808" rx="4.104" ry="4.525"/>
	</g>
	<g>
		<ellipse fill="#181919" cx="569.081" cy="130.057" rx="4.105" ry="4.527"/>
	</g>
	<g>
		<ellipse fill="#181919" cx="569.081" cy="146.94" rx="4.105" ry="4.527"/>
	</g>
	<g>
		<ellipse fill="#181919" cx="580.072" cy="122.067" rx="4.104" ry="4.527"/>
	</g>
	<g>
		<ellipse fill="#181919" cx="580.072" cy="137.391" rx="4.104" ry="4.527"/>
	</g>
	<g>
		<ellipse fill="#181919" cx="580.072" cy="154.808" rx="4.104" ry="4.525"/>
	</g>
	<g>
		<ellipse fill="#181919" cx="592.634" cy="130.057" rx="4.104" ry="4.527"/>
	</g>
	<g>
		<ellipse fill="#181919" cx="592.634" cy="146.94" rx="4.104" ry="4.527"/>
	</g>
	<g>
		<ellipse fill="#181919" cx="603.625" cy="122.067" rx="4.105" ry="4.527"/>
	</g>
	<g>
		<ellipse fill="#181919" cx="603.625" cy="137.391" rx="4.105" ry="4.527"/>
	</g>
	<g>
		<ellipse fill="#181919" cx="603.625" cy="154.808" rx="4.105" ry="4.525"/>
	</g>
	<g>
		<ellipse fill="#181919" cx="616.187" cy="130.057" rx="4.104" ry="4.527"/>
	</g>
	<g>
		<ellipse fill="#181919" cx="616.187" cy="146.94" rx="4.104" ry="4.527"/>
	</g>
	<g>
		<ellipse fill="#181919" cx="629.259" cy="135.095" rx="4.104" ry="4.527"/>
	</g>
	<g>
		<ellipse fill="#181919" cx="629.259" cy="153.661" rx="4.105" ry="4.525"/>
	</g>
	<g>
		<ellipse fill="#181919" cx="642.354" cy="122.067" rx="4.104" ry="4.527"/>
	</g>
	<g>
		<ellipse fill="#181919" cx="642.354" cy="137.391" rx="4.104" ry="4.527"/>
	</g>
	<g>
		<ellipse fill="#181919" cx="642.354" cy="154.808" rx="4.104" ry="4.525"/>
	</g>
	<g>
		<ellipse fill="#181919" cx="653.808" cy="130.057" rx="4.104" ry="4.527"/>
	</g>
	<g>
		<ellipse fill="#181919" cx="653.808" cy="146.94" rx="4.104" ry="4.527"/>
	</g>
	<g>
		<ellipse fill="#181919" cx="664.799" cy="122.067" rx="4.104" ry="4.527"/>
	</g>
	<g>
		<ellipse fill="#181919" cx="664.799" cy="137.391" rx="4.104" ry="4.527"/>
	</g>
	<g>
		<ellipse fill="#181919" cx="664.799" cy="154.808" rx="4.104" ry="4.525"/>
	</g>
	<g>
		<ellipse fill="#181919" cx="676.722" cy="130.057" rx="4.104" ry="4.527"/>
	</g>
	<g>
		<ellipse fill="#181919" cx="676.722" cy="146.94" rx="4.104" ry="4.527"/>
	</g>
	<g>
		<ellipse fill="#181919" cx="687.713" cy="122.067" rx="4.104" ry="4.527"/>
	</g>
	<g>
		<ellipse fill="#181919" cx="687.713" cy="137.391" rx="4.104" ry="4.527"/>
	</g>
	<g>
		<ellipse fill="#181919" cx="687.713" cy="154.808" rx="4.104" ry="4.525"/>
	</g>
	<g>
		<ellipse fill="#181919" cx="700.274" cy="130.057" rx="4.104" ry="4.527"/>
	</g>
	<g>
		<ellipse fill="#181919" cx="700.274" cy="146.94" rx="4.104" ry="4.527"/>
	</g>
	<g>
		<ellipse fill="#181919" cx="711.266" cy="122.067" rx="4.104" ry="4.527"/>
	</g>
	<g>
		<ellipse fill="#181919" cx="711.266" cy="137.391" rx="4.104" ry="4.527"/>
	</g>
	<g>
		<ellipse fill="#181919" cx="711.266" cy="154.808" rx="4.104" ry="4.525"/>
	</g>
	<g>
		<ellipse fill="#181919" cx="723.827" cy="130.057" rx="4.105" ry="4.527"/>
	</g>
	<g>
		<ellipse fill="#181919" cx="723.827" cy="146.94" rx="4.105" ry="4.527"/>
	</g>
	<g>
		<ellipse fill="#181919" cx="734.818" cy="122.067" rx="4.104" ry="4.527"/>
	</g>
	<g>
		<ellipse fill="#181919" cx="734.818" cy="137.391" rx="4.104" ry="4.527"/>
	</g>
	<g>
		<ellipse fill="#181919" cx="734.818" cy="154.808" rx="4.104" ry="4.525"/>
	</g>
	<g>
		<ellipse fill="#181919" cx="747.38" cy="130.057" rx="4.104" ry="4.527"/>
	</g>
	<g>
		<ellipse fill="#181919" cx="747.38" cy="146.94" rx="4.104" ry="4.527"/>
	</g>
	<g>
		<ellipse fill="#181919" cx="758.371" cy="122.067" rx="4.104" ry="4.527"/>
	</g>
	<g>
		<ellipse fill="#181919" cx="758.371" cy="137.391" rx="4.104" ry="4.527"/>
	</g>
	<g>
		<ellipse fill="#181919" cx="758.371" cy="154.808" rx="4.104" ry="4.525"/>
	</g>
	<g>
		<ellipse fill="#181919" cx="770.933" cy="130.057" rx="4.105" ry="4.527"/>
	</g>
	<g>
		<ellipse fill="#181919" cx="770.933" cy="146.94" rx="4.105" ry="4.527"/>
	</g>
	<g>
		<ellipse fill="#181919" cx="781.924" cy="122.067" rx="4.104" ry="4.527"/>
	</g>
	<g>
		<ellipse fill="#181919" cx="781.924" cy="137.391" rx="4.104" ry="4.527"/>
	</g>
	<g>
		<ellipse fill="#181919" cx="781.924" cy="154.808" rx="4.104" ry="4.525"/>
	</g>
	<g>
		<ellipse fill="#181919" cx="794.486" cy="130.057" rx="4.105" ry="4.527"/>
	</g>
	<g>
		<ellipse fill="#181919" cx="794.486" cy="146.94" rx="4.105" ry="4.527"/>
	</g>
	<g>
		<ellipse fill="#181919" cx="805.551" cy="122.067" rx="4.104" ry="4.527"/>
	</g>
	<g>
		<ellipse fill="#181919" cx="805.551" cy="137.391" rx="4.104" ry="4.527"/>
	</g>
	<g>
		<ellipse fill="#181919" cx="805.551" cy="154.808" rx="4.104" ry="4.525"/>
	</g>
	<g>
		<ellipse fill="#181919" cx="451.5" cy="165.569" rx="4.104" ry="4.527"/>
	</g>
	<g>
		<ellipse fill="#181919" cx="463.423" cy="173.559" rx="4.104" ry="4.527"/>
	</g>
	<g>
		<ellipse fill="#181919" cx="474.414" cy="165.569" rx="4.104" ry="4.527"/>
	</g>
	<g>
		<ellipse fill="#181919" cx="474.414" cy="180.893" rx="4.104" ry="4.527"/>
	</g>
	<g>
		<ellipse fill="#181919" cx="486.975" cy="173.559" rx="4.105" ry="4.527"/>
	</g>
	<g>
		<ellipse fill="#181919" cx="486.975" cy="190.442" rx="4.105" ry="4.526"/>
	</g>
	<g>
		<ellipse fill="#181919" cx="497.967" cy="165.569" rx="4.104" ry="4.527"/>
	</g>
	<g>
		<ellipse fill="#181919" cx="497.967" cy="180.893" rx="4.104" ry="4.527"/>
	</g>
	<g>
		<ellipse fill="#181919" cx="510.528" cy="173.559" rx="4.105" ry="4.527"/>
	</g>
	<g>
		<ellipse fill="#181919" cx="510.528" cy="190.442" rx="4.105" ry="4.526"/>
	</g>
	<g>
		<ellipse fill="#181919" cx="521.52" cy="165.569" rx="4.104" ry="4.527"/>
	</g>
	<g>
		<ellipse fill="#181919" cx="521.52" cy="180.893" rx="4.104" ry="4.527"/>
	</g>
	<g>
		<ellipse fill="#181919" cx="534.081" cy="173.559" rx="4.104" ry="4.527"/>
	</g>
	<g>
		<ellipse fill="#181919" cx="534.081" cy="190.442" rx="4.104" ry="4.526"/>
	</g>
	<g>
		<ellipse fill="#181919" cx="545.072" cy="165.569" rx="4.104" ry="4.527"/>
	</g>
	<g>
		<ellipse fill="#181919" cx="545.072" cy="180.893" rx="4.104" ry="4.527"/>
	</g>
	<g>
		<ellipse fill="#181919" cx="557.634" cy="173.559" rx="4.104" ry="4.527"/>
	</g>
	<g>
		<ellipse fill="#181919" cx="557.634" cy="190.442" rx="4.104" ry="4.526"/>
	</g>
	<g>
		<ellipse fill="#181919" cx="568.625" cy="165.569" rx="4.104" ry="4.527"/>
	</g>
	<g>
		<ellipse fill="#181919" cx="568.625" cy="180.893" rx="4.104" ry="4.527"/>
	</g>
	<g>
		<ellipse fill="#181919" cx="581.187" cy="173.559" rx="4.105" ry="4.527"/>
	</g>
	<g>
		<ellipse fill="#181919" cx="581.187" cy="190.442" rx="4.105" ry="4.526"/>
	</g>
	<g>
		<ellipse fill="#181919" cx="592.178" cy="165.569" rx="4.104" ry="4.527"/>
	</g>
	<g>
		<ellipse fill="#181919" cx="592.178" cy="180.893" rx="4.104" ry="4.527"/>
	</g>
	<g>
		<ellipse fill="#181919" cx="604.74" cy="173.559" rx="4.105" ry="4.527"/>
	</g>
	<g>
		<ellipse fill="#181919" cx="604.74" cy="190.442" rx="4.105" ry="4.526"/>
	</g>
	<g>
		<ellipse fill="#181919" cx="615.731" cy="165.569" rx="4.105" ry="4.527"/>
	</g>
	<g>
		<ellipse fill="#181919" cx="616.771" cy="180.893" rx="4.104" ry="4.527"/>
	</g>
	<g>
		<ellipse fill="#181919" cx="629.261" cy="185.484" rx="4.104" ry="4.527"/>
	</g>
	<g>
		<ellipse fill="#181919" cx="629.261" cy="170.563" rx="4.105" ry="4.527"/>
	</g>
	<g>
		<ellipse fill="#181919" cx="642.36" cy="173.559" rx="4.104" ry="4.527"/>
	</g>
	<g>
		<ellipse fill="#181919" cx="642.36" cy="190.442" rx="4.104" ry="4.526"/>
	</g>
	<g>
		<ellipse fill="#181919" cx="653.352" cy="165.569" rx="4.104" ry="4.527"/>
	</g>
	<g>
		<ellipse fill="#181919" cx="653.352" cy="180.893" rx="4.104" ry="4.527"/>
	</g>
	<g>
		<ellipse fill="#181919" cx="665.275" cy="173.559" rx="4.104" ry="4.527"/>
	</g>
	<g>
		<ellipse fill="#181919" cx="665.275" cy="190.442" rx="4.104" ry="4.526"/>
	</g>
	<g>
		<ellipse fill="#181919" cx="676.266" cy="165.569" rx="4.104" ry="4.527"/>
	</g>
	<g>
		<ellipse fill="#181919" cx="676.266" cy="180.893" rx="4.104" ry="4.527"/>
	</g>
	<g>
		<ellipse fill="#181919" cx="688.828" cy="173.559" rx="4.105" ry="4.527"/>
	</g>
	<g>
		<ellipse fill="#181919" cx="688.828" cy="190.442" rx="4.105" ry="4.526"/>
	</g>
	<g>
		<ellipse fill="#181919" cx="699.818" cy="165.569" rx="4.104" ry="4.527"/>
	</g>
	<g>
		<ellipse fill="#181919" cx="699.818" cy="180.893" rx="4.104" ry="4.527"/>
	</g>
	<g>
		<ellipse fill="#181919" cx="712.38" cy="173.559" rx="4.105" ry="4.527"/>
	</g>
	<g>
		<ellipse fill="#181919" cx="712.38" cy="190.442" rx="4.105" ry="4.526"/>
	</g>
	<g>
		<ellipse fill="#181919" cx="723.371" cy="165.569" rx="4.104" ry="4.527"/>
	</g>
	<g>
		<ellipse fill="#181919" cx="723.371" cy="180.893" rx="4.104" ry="4.527"/>
	</g>
	<g>
		<ellipse fill="#181919" cx="735.934" cy="173.559" rx="4.104" ry="4.527"/>
	</g>
	<g>
		<ellipse fill="#181919" cx="735.934" cy="190.442" rx="4.104" ry="4.526"/>
	</g>
	<g>
		<ellipse fill="#181919" cx="746.924" cy="165.569" rx="4.105" ry="4.527"/>
	</g>
	<g>
		<ellipse fill="#181919" cx="746.924" cy="180.893" rx="4.105" ry="4.527"/>
	</g>
	<g>
		<ellipse fill="#181919" cx="759.486" cy="173.559" rx="4.104" ry="4.527"/>
	</g>
	<g>
		<ellipse fill="#181919" cx="759.486" cy="190.442" rx="4.104" ry="4.526"/>
	</g>
	<g>
		<ellipse fill="#181919" cx="770.478" cy="165.569" rx="4.104" ry="4.527"/>
	</g>
	<g>
		<ellipse fill="#181919" cx="770.478" cy="180.893" rx="4.104" ry="4.527"/>
	</g>
	<g>
		<ellipse fill="#181919" cx="783.039" cy="173.559" rx="4.104" ry="4.527"/>
	</g>
	<g>
		<ellipse fill="#181919" cx="794.486" cy="165.569" rx="4.105" ry="4.527"/>
	</g>
	<g>
		<ellipse fill="#181919" cx="497.967" cy="199.458" rx="4.104" ry="4.525"/>
	</g>
	<g>
		<ellipse fill="#181919" cx="521.52" cy="199.458" rx="4.104" ry="4.525"/>
	</g>
	<g>
		<ellipse fill="#181919" cx="545.072" cy="199.458" rx="4.104" ry="4.525"/>
	</g>
	<g>
		<ellipse fill="#181919" cx="568.625" cy="199.458" rx="4.104" ry="4.525"/>
	</g>
	<g>
		<ellipse fill="#181919" cx="592.178" cy="199.458" rx="4.104" ry="4.525"/>
	</g>
	<g>
		<ellipse fill="#181919" cx="615.731" cy="199.458" rx="4.105" ry="4.525"/>
	</g>
	<g>
		<ellipse fill="#181919" cx="629.261" cy="199.458" rx="4.104" ry="4.525"/>
	</g>
	<g>
		<ellipse fill="#181919" cx="653.352" cy="199.458" rx="4.104" ry="4.525"/>
	</g>
	<g>
		<ellipse fill="#181919" cx="676.266" cy="199.458" rx="4.104" ry="4.525"/>
	</g>
	<g>
		<ellipse fill="#181919" cx="699.818" cy="199.458" rx="4.104" ry="4.525"/>
	</g>
	<g>
		<ellipse fill="#181919" cx="723.371" cy="199.458" rx="4.104" ry="4.525"/>
	</g>
	<g>
		<ellipse fill="#181919" cx="746.924" cy="199.458" rx="4.105" ry="4.525"/>
	</g>
</g>
<polygon fill="#DCDAD3" points="932.122,113.62 942.056,96.414 951.989,113.62 "/>
<polygon fill="#DCDAD3" points="982.028,99.416 991.962,116.621 1001.896,99.416 "/>
</svg>
