<?xml version="1.0" encoding="utf-8"?>
<!-- Generator: Adobe Illustrator 16.0.0, SVG Export Plug-In . SVG Version: 6.00 Build 0)  -->
<!DOCTYPE svg PUBLIC "-//W3C//DTD SVG 1.1//EN" "http://www.w3.org/Graphics/SVG/1.1/DTD/svg11.dtd">
<svg version="1.1" id="图层_1" xmlns="http://www.w3.org/2000/svg" xmlns:xlink="http://www.w3.org/1999/xlink" x="0px" y="0px"
	 width="1275.59px" height="126.14px" viewBox="0 0 1275.59 126.14" enable-background="new 0 0 1275.59 126.14"
	 xml:space="preserve">
<g>
	<rect fill="#B3B9BB" width="1275.592" height="126.143"/>
	<rect x="0.25" y="118.578" fill="#A7ADAE" width="1275.592" height="7.648"/>
	<rect x="0.249" y="0.084" fill="#A7ADAE" width="1275.593" height="7.648"/>
	<path fill="#838484" d="M493.738,126.227c0,0,62.399-87.33,359.297-88.365h422.807v88.365H493.738z"/>
	<path fill="#AAADAC" d="M498.738,126.227c0,0,62-84.365,357-85.365h420.104v85.365H498.738z"/>
	<g>
		<path fill="#E1E4E9" d="M917.883,63.947c0,3.477-2.688,6.295-6,6.295H750.549c-3.313,0-6-2.818-6-6.295l0,0
			c0-3.476,2.688-6.293,6-6.293h161.334C915.195,57.654,917.883,60.472,917.883,63.947L917.883,63.947z"/>
		<path fill="#0A060A" d="M917.883,62.653c0,3.313-2.688,6.001-6,6.001H750.549c-3.313,0-6-2.688-6-6.001l0,0c0-3.313,2.688-6,6-6
			h161.334C915.195,56.653,917.883,59.34,917.883,62.653L917.883,62.653z"/>
	</g>
	
		<text transform="matrix(1 0 0 1 103.3418 70.2412)" font-family="'NotoSansHans-Bold-GBpc-EUC-H'" font-size="23.4995" letter-spacing="2">电力专用纵向加密认证装置</text>
	<g>
		<path fill="#070001" d="M1003.59,61.653c3.865,0,7,3.136,7,7.001s-3.135,7-7,7c-3.867,0-7-3.135-7-7
			S999.723,61.653,1003.59,61.653"/>
		<g>
			<defs>
				<path id="SVGID_1_" d="M997.967,68.654c0,3.105,2.518,5.625,5.625,5.625c3.105,0,5.625-2.52,5.625-5.625
					s-2.52-5.626-5.625-5.626C1000.484,63.028,997.967,65.549,997.967,68.654"/>
			</defs>
			<clipPath id="SVGID_2_">
				<use xlink:href="#SVGID_1_"  overflow="visible"/>
			</clipPath>
			
				<radialGradient id="SVGID_3_" cx="-139.7783" cy="371.1104" r="1" gradientTransform="matrix(8.2859 0 0 8.2859 2160.4023 -3008.3281)" gradientUnits="userSpaceOnUse">
				<stop  offset="0" style="stop-color:#636262"/>
				<stop  offset="1" style="stop-color:#040000"/>
			</radialGradient>
			<rect x="997.967" y="63.028" clip-path="url(#SVGID_2_)" fill="url(#SVGID_3_)" width="11.25" height="11.251"/>
		</g>
		<g opacity="0.5" enable-background="new    ">
			<g>
				<defs>
					<rect id="SVGID_4_" x="1000.967" y="65.404" width="1.873" height="1.875"/>
				</defs>
				<clipPath id="SVGID_5_">
					<use xlink:href="#SVGID_4_"  overflow="visible"/>
				</clipPath>
				<rect x="1000.967" y="65.404" clip-path="url(#SVGID_5_)" fill="#FFFFFF" width="1.873" height="1.875"/>
			</g>
		</g>
		<g opacity="0.5" enable-background="new    ">
			<g>
				<defs>
					<rect id="SVGID_6_" x="1000.967" y="65.404" width="0.936" height="1.875"/>
				</defs>
				<clipPath id="SVGID_7_">
					<use xlink:href="#SVGID_6_"  overflow="visible"/>
				</clipPath>
				<rect x="1000.967" y="65.404" clip-path="url(#SVGID_7_)" fill="#FFFFFF" width="0.936" height="1.875"/>
			</g>
		</g>
	</g>
	<g>
		<path fill="#070001" d="M1055.73,61.654c3.865,0,7,3.135,7,7c0,3.867-3.135,7-7,7c-3.867,0-7-3.133-7-7
			C1048.73,64.789,1051.863,61.654,1055.73,61.654"/>
		<g>
			<defs>
				<path id="SVGID_8_" d="M1050.105,68.654c0,3.107,2.52,5.625,5.625,5.625c3.107,0,5.625-2.518,5.625-5.625
					c0-3.105-2.518-5.625-5.625-5.625C1052.625,63.029,1050.105,65.549,1050.105,68.654"/>
			</defs>
			<clipPath id="SVGID_9_">
				<use xlink:href="#SVGID_8_"  overflow="visible"/>
			</clipPath>
			
				<radialGradient id="SVGID_10_" cx="-133.4863" cy="371.1104" r="1.0003" gradientTransform="matrix(8.2859 0 0 8.2859 2160.4023 -3008.3281)" gradientUnits="userSpaceOnUse">
				<stop  offset="0" style="stop-color:#636262"/>
				<stop  offset="1" style="stop-color:#040000"/>
			</radialGradient>
			<rect x="1050.105" y="63.029" clip-path="url(#SVGID_9_)" fill="url(#SVGID_10_)" width="11.25" height="11.25"/>
		</g>
		<g opacity="0.5" enable-background="new    ">
			<g>
				<defs>
					<rect id="SVGID_11_" x="1053.105" y="65.404" width="1.875" height="1.875"/>
				</defs>
				<clipPath id="SVGID_12_">
					<use xlink:href="#SVGID_11_"  overflow="visible"/>
				</clipPath>
				<rect x="1053.105" y="65.404" clip-path="url(#SVGID_12_)" fill="#FFFFFF" width="1.875" height="1.875"/>
			</g>
		</g>
		<g opacity="0.5" enable-background="new    ">
			<g>
				<defs>
					<rect id="SVGID_13_" x="1053.105" y="65.404" width="0.938" height="1.875"/>
				</defs>
				<clipPath id="SVGID_14_">
					<use xlink:href="#SVGID_13_"  overflow="visible"/>
				</clipPath>
				<rect x="1053.105" y="65.404" clip-path="url(#SVGID_14_)" fill="#FFFFFF" width="0.938" height="1.875"/>
			</g>
		</g>
	</g>
	<g>
		<path fill="#070001" d="M1107.869,61.653c3.867,0,7,3.136,7,7.001s-3.133,7-7,7c-3.865,0-7-3.135-7-7
			S1104.004,61.653,1107.869,61.653"/>
		<g>
			<defs>
				<path id="SVGID_15_" d="M1102.246,68.654c0,3.105,2.52,5.625,5.625,5.625c3.107,0,5.625-2.52,5.625-5.625
					s-2.518-5.626-5.625-5.626C1104.766,63.028,1102.246,65.549,1102.246,68.654"/>
			</defs>
			<clipPath id="SVGID_16_">
				<use xlink:href="#SVGID_15_"  overflow="visible"/>
			</clipPath>
			
				<radialGradient id="SVGID_17_" cx="-127.1934" cy="371.1104" r="1" gradientTransform="matrix(8.2859 0 0 8.2859 2160.4023 -3008.3281)" gradientUnits="userSpaceOnUse">
				<stop  offset="0" style="stop-color:#636262"/>
				<stop  offset="1" style="stop-color:#040000"/>
			</radialGradient>
			<rect x="1102.246" y="63.028" clip-path="url(#SVGID_16_)" fill="url(#SVGID_17_)" width="11.25" height="11.251"/>
		</g>
		<g opacity="0.5" enable-background="new    ">
			<g>
				<defs>
					<rect id="SVGID_18_" x="1105.246" y="65.404" width="1.873" height="1.875"/>
				</defs>
				<clipPath id="SVGID_19_">
					<use xlink:href="#SVGID_18_"  overflow="visible"/>
				</clipPath>
				<rect x="1105.246" y="65.404" clip-path="url(#SVGID_19_)" fill="#FFFFFF" width="1.873" height="1.875"/>
			</g>
		</g>
		<g opacity="0.5" enable-background="new    ">
			<g>
				<defs>
					<rect id="SVGID_20_" x="1105.246" y="65.404" width="0.938" height="1.875"/>
				</defs>
				<clipPath id="SVGID_21_">
					<use xlink:href="#SVGID_20_"  overflow="visible"/>
				</clipPath>
				<rect x="1105.246" y="65.404" clip-path="url(#SVGID_21_)" fill="#FFFFFF" width="0.938" height="1.875"/>
			</g>
		</g>
	</g>
	<g>
		<path fill="#070001" d="M1160.01,61.654c3.865,0,7,3.135,7,7c0,3.867-3.135,7-7,7s-7-3.133-7-7
			C1153.01,64.789,1156.145,61.654,1160.01,61.654"/>
		<g>
			<defs>
				<path id="SVGID_22_" d="M1154.387,68.654c0,3.107,2.518,5.625,5.625,5.625c3.105,0,5.623-2.518,5.623-5.625
					c0-3.105-2.518-5.625-5.623-5.625C1156.904,63.029,1154.387,65.549,1154.387,68.654"/>
			</defs>
			<clipPath id="SVGID_23_">
				<use xlink:href="#SVGID_22_"  overflow="visible"/>
			</clipPath>
			
				<radialGradient id="SVGID_24_" cx="-120.9004" cy="371.1104" r="1" gradientTransform="matrix(8.2859 0 0 8.2859 2160.4023 -3008.3281)" gradientUnits="userSpaceOnUse">
				<stop  offset="0" style="stop-color:#636262"/>
				<stop  offset="1" style="stop-color:#040000"/>
			</radialGradient>
			<rect x="1154.387" y="63.029" clip-path="url(#SVGID_23_)" fill="url(#SVGID_24_)" width="11.248" height="11.25"/>
		</g>
		<g opacity="0.5" enable-background="new    ">
			<g>
				<defs>
					<rect id="SVGID_25_" x="1157.387" y="65.404" width="1.873" height="1.875"/>
				</defs>
				<clipPath id="SVGID_26_">
					<use xlink:href="#SVGID_25_"  overflow="visible"/>
				</clipPath>
				<rect x="1157.387" y="65.404" clip-path="url(#SVGID_26_)" fill="#FFFFFF" width="1.873" height="1.875"/>
			</g>
		</g>
		<g opacity="0.5" enable-background="new    ">
			<g>
				<defs>
					<rect id="SVGID_27_" x="1157.387" y="65.404" width="0.936" height="1.875"/>
				</defs>
				<clipPath id="SVGID_28_">
					<use xlink:href="#SVGID_27_"  overflow="visible"/>
				</clipPath>
				<rect x="1157.387" y="65.404" clip-path="url(#SVGID_28_)" fill="#FFFFFF" width="0.936" height="1.875"/>
			</g>
		</g>
	</g>
	<g>
		<path fill="#070001" d="M1212.15,61.653c3.865,0,7,3.136,7,7.001s-3.135,7-7,7c-3.867,0-7-3.135-7-7
			S1208.283,61.653,1212.15,61.653"/>
		<g>
			<defs>
				<path id="SVGID_29_" d="M1206.525,68.654c0,3.105,2.52,5.625,5.625,5.625c3.107,0,5.625-2.52,5.625-5.625
					s-2.518-5.626-5.625-5.626C1209.045,63.028,1206.525,65.549,1206.525,68.654"/>
			</defs>
			<clipPath id="SVGID_30_">
				<use xlink:href="#SVGID_29_"  overflow="visible"/>
			</clipPath>
			
				<radialGradient id="SVGID_31_" cx="-114.6084" cy="371.1104" r="1.0003" gradientTransform="matrix(8.2859 0 0 8.2859 2160.4023 -3008.3281)" gradientUnits="userSpaceOnUse">
				<stop  offset="0" style="stop-color:#636262"/>
				<stop  offset="1" style="stop-color:#040000"/>
			</radialGradient>
			<rect x="1206.525" y="63.028" clip-path="url(#SVGID_30_)" fill="url(#SVGID_31_)" width="11.25" height="11.251"/>
		</g>
		<g opacity="0.5" enable-background="new    ">
			<g>
				<defs>
					<rect id="SVGID_32_" x="1209.525" y="65.404" width="1.875" height="1.875"/>
				</defs>
				<clipPath id="SVGID_33_">
					<use xlink:href="#SVGID_32_"  overflow="visible"/>
				</clipPath>
				<rect x="1209.525" y="65.404" clip-path="url(#SVGID_33_)" fill="#FFFFFF" width="1.875" height="1.875"/>
			</g>
		</g>
		<g opacity="0.5" enable-background="new    ">
			<g>
				<defs>
					<rect id="SVGID_34_" x="1209.525" y="65.404" width="0.938" height="1.875"/>
				</defs>
				<clipPath id="SVGID_35_">
					<use xlink:href="#SVGID_34_"  overflow="visible"/>
				</clipPath>
				<rect x="1209.525" y="65.404" clip-path="url(#SVGID_35_)" fill="#FFFFFF" width="0.938" height="1.875"/>
			</g>
		</g>
	</g>
</g>
</svg>
