{
  "accessors": [
    {
      "name": "____02_1_0_positions",
      "componentType": 5126,
      "count": 215,
      "min": [
        -8.531900405883789,
        0.9732999801635742,
        -16.91160011291504
      ],
      "max": [
        8.531800270080566,
        5.277500152587891,
        10.273799896240234
      ],
      "type": "VEC3",
      "bufferView": 0,
      "byteOffset": 0
    },
    {
      "name": "____02_1_0_normals",
      "componentType": 5126,
      "count": 215,
      "min": [
        -0.9462026953697205,
        0.32350093126296997,
        -0.6980768442153931
      ],
      "max": [
        0.9462026953697205,
        0.8962199687957764,
        0.5778313875198364
      ],
      "type": "VEC3",
      "bufferView": 1,
      "byteOffset": 0
    },
    {
      "name": "____02_1_0_texcoords",
      "componentType": 5126,
      "count": 215,
      "min": [
        0.0005000000237487257,
        0.005499999970197678
      ],
      "max": [
        0.9994999766349792,
        0.9994999766349792
      ],
      "type": "VEC2",
      "bufferView": 2,
      "byteOffset": 0
    },
    {
      "name": "____02_1_0_indices",
      "componentType": 5123,
      "count": 804,
      "min": [
        0
      ],
      "max": [
        214
      ],
      "type": "SCALAR",
      "bufferView": 3,
      "byteOffset": 0
    },
    {
      "name": "____03_1_0_positions",
      "componentType": 5126,
      "count": 335,
      "min": [
        -9.05090045928955,
        -2.7046000957489014,
        -25.66819953918457
      ],
      "max": [
        9.050800323486328,
        1.0505000352859497,
        25.10650062561035
      ],
      "type": "VEC3",
      "bufferView": 0,
      "byteOffset": 2580
    },
    {
      "name": "____03_1_0_normals",
      "componentType": 5126,
      "count": 335,
      "min": [
        -0.981265664100647,
        -0.24018661677837372,
        -0.9998177886009216
      ],
      "max": [
        0.9833199977874756,
        0.8227855563163757,
        0.9412158131599426
      ],
      "type": "VEC3",
      "bufferView": 1,
      "byteOffset": 2580
    },
    {
      "name": "____03_1_0_texcoords",
      "componentType": 5126,
      "count": 335,
      "min": [
        0.18809999525547028,
        0.010599999688565731
      ],
      "max": [
        0.9937000274658203,
        0.9811000227928162
      ],
      "type": "VEC2",
      "bufferView": 2,
      "byteOffset": 1720
    },
    {
      "name": "____03_1_0_indices",
      "componentType": 5123,
      "count": 615,
      "min": [
        0
      ],
      "max": [
        334
      ],
      "type": "SCALAR",
      "bufferView": 3,
      "byteOffset": 1608
    },
    {
      "name": "____04_1_0_positions",
      "componentType": 5126,
      "count": 428,
      "min": [
        -9.086199760437012,
        -8.425100326538086,
        -16.681499481201172
      ],
      "max": [
        9.164799690246582,
        -1.5095000267028809,
        19.365800857543945
      ],
      "type": "VEC3",
      "bufferView": 0,
      "byteOffset": 6600
    },
    {
      "name": "____04_1_0_normals",
      "componentType": 5126,
      "count": 428,
      "min": [
        -0.9987999200820923,
        -0.994522213935852,
        -0.9999971389770508
      ],
      "max": [
        0.9987999200820923,
        0.9945117831230164,
        0.9999971389770508
      ],
      "type": "VEC3",
      "bufferView": 1,
      "byteOffset": 6600
    },
    {
      "name": "____04_1_0_texcoords",
      "componentType": 5126,
      "count": 428,
      "min": [
        0.0005000000237487257,
        0.0005000000237487257
      ],
      "max": [
        0.9174000024795532,
        0.9994999766349792
      ],
      "type": "VEC2",
      "bufferView": 2,
      "byteOffset": 4400
    },
    {
      "name": "____04_1_0_indices",
      "componentType": 5123,
      "count": 1596,
      "min": [
        0
      ],
      "max": [
        427
      ],
      "type": "SCALAR",
      "bufferView": 3,
      "byteOffset": 2840
    },
    {
      "name": "____01_1_0_positions",
      "componentType": 5126,
      "count": 4091,
      "min": [
        -10.587300300598145,
        -6.705900192260742,
        -26.85540008544922
      ],
      "max": [
        10.587200164794922,
        8.425000190734863,
        26.85540008544922
      ],
      "type": "VEC3",
      "bufferView": 0,
      "byteOffset": 11736
    },
    {
      "name": "____01_1_0_normals",
      "componentType": 5126,
      "count": 4091,
      "min": [
        -1,
        -1,
        -0.9998779892921448
      ],
      "max": [
        1,
        1,
        1
      ],
      "type": "VEC3",
      "bufferView": 1,
      "byteOffset": 11736
    },
    {
      "name": "____01_1_0_texcoords",
      "componentType": 5126,
      "count": 4091,
      "min": [
        -13.01039981842041,
        0.008700000122189522
      ],
      "max": [
        0.9901000261306763,
        14.48859977722168
      ],
      "type": "VEC2",
      "bufferView": 2,
      "byteOffset": 7824
    },
    {
      "name": "____01_1_0_indices",
      "componentType": 5123,
      "count": 10521,
      "min": [
        0
      ],
      "max": [
        4090
      ],
      "type": "SCALAR",
      "bufferView": 3,
      "byteOffset": 6032
    }
  ],
  "asset": {
    "generator": "obj2gltf",
    "version": "2.0"
  },
  "buffers": [
    {
      "name": "ff",
      "byteLength": 189284,
      "uri": "data:application/octet-stream;base64,"
    }
  ],
  "bufferViews": [
    {
      "name": "bufferView_0",
      "buffer": 0,
      "byteLength": 60828,
      "byteOffset": 0,
      "byteStride": 12,
      "target": 34962
    },
    {
      "name": "bufferView_1",
      "buffer": 0,
      "byteLength": 60828,
      "byteOffset": 60828,
      "byteStride": 12,
      "target": 34962
    },
    {
      "name": "bufferView_2",
      "buffer": 0,
      "byteLength": 40552,
      "byteOffset": 121656,
      "byteStride": 8,
      "target": 34962
    },
    {
      "name": "bufferView_3",
      "buffer": 0,
      "byteLength": 27076,
      "byteOffset": 162208,
      "target": 34963
    }
  ],
  "materials": [
    {
      "name": "car_glass",
      "pbrMetallicRoughness": {
        "baseColorFactor": [
          0,
          0.2745,
          0.7255,
          0.4
        ],
        "metallicFactor": 0,
        "roughnessFactor": 0.99
      },
      "emissiveFactor": [
        0,
        0,
        0
      ],
      "alphaMode": "BLEND",
      "doubleSided": true
    }
  ],
  "meshes": [
    {
      "name": "____02_1",
      "primitives": [
        {
          "attributes": {
            "POSITION": 0,
            "NORMAL": 1,
            "TEXCOORD_0": 2
          },
          "indices": 3,
          "material": 0,
          "mode": 4
        }
      ]
    },
    {
      "name": "____03_1",
      "primitives": [
        {
          "attributes": {
            "POSITION": 4,
            "NORMAL": 5,
            "TEXCOORD_0": 6
          },
          "indices": 7,
          "material": 0,
          "mode": 4
        }
      ]
    },
    {
      "name": "____04_1",
      "primitives": [
        {
          "attributes": {
            "POSITION": 8,
            "NORMAL": 9,
            "TEXCOORD_0": 10
          },
          "indices": 11,
          "material": 0,
          "mode": 4
        }
      ]
    },
    {
      "name": "____01_1",
      "primitives": [
        {
          "attributes": {
            "POSITION": 12,
            "NORMAL": 13,
            "TEXCOORD_0": 14
          },
          "indices": 15,
          "material": 0,
          "mode": 4
        }
      ]
    }
  ],
  "nodes": [
    {
      "name": "____02",
      "mesh": 0
    },
    {
      "name": "____03",
      "mesh": 1
    },
    {
      "name": "____04",
      "mesh": 2
    },
    {
      "name": "____01",
      "mesh": 3
    }
  ],
  "scene": 0,
  "scenes": [
    {
      "nodes": [
        0,
        1,
        2,
        3
      ]
    }
  ]
}
