# 3ds Max Wavefront OBJ Exporter v0.94b - (c)2007 guruware
# 创建的文件:25.06.2019 15:20:20

mtllib tiegui.mtl

#
# object Line01
#

v  -3049.4829 10.8817 -32.9591
v  -3049.4829 -20.0917 -32.9591
v  3049.4829 -20.0917 -32.9590
v  3049.4829 10.8817 -32.9590
v  -3049.4829 10.8817 33.7698
v  3049.4829 10.8817 33.7699
v  -3049.4829 -20.0917 33.7698
v  3049.4829 -20.0917 33.7699
v  -3049.4829 -20.0917 40.0838
v  3049.4829 -20.0917 40.0838
v  -3049.4829 20.0917 40.0838
v  3049.4829 20.0917 40.0838
v  -3049.4829 20.0917 -40.0838
v  3049.4829 20.0917 -40.0838
v  -3049.4829 -20.0915 -40.0838
v  3049.4829 -20.0915 -40.0838
# 16 vertices

vn -0.0000 0.0000 1.0000
vn 0.0000 -1.0000 0.0000
vn 0.0000 -0.0000 -1.0000
vn -0.0000 1.0000 -0.0000
vn 0.0000 -1.0000 -0.0000
vn 1.0000 0.0000 0.0000
vn -1.0000 -0.0000 -0.0000
# 7 vertex normals

vt 0.0100 0.0346 0.0000
vt 0.0100 0.0296 0.0000
vt 0.9900 0.0296 0.0000
vt 0.9900 0.0346 0.0000
vt 0.0100 0.0981 0.0000
vt 0.0100 0.0874 0.0000
vt 0.9900 0.0874 0.0000
vt 0.9900 0.0981 0.0000
vt 0.0100 0.0483 0.0000
vt 0.0100 0.0433 0.0000
vt 0.9900 0.0433 0.0000
vt 0.9900 0.0483 0.0000
vt 0.0100 0.0110 0.0000
vt 0.0100 0.0100 0.0000
vt 0.9900 0.0100 0.0000
vt 0.9900 0.0110 0.0000
vt 0.0100 0.0787 0.0000
vt 0.0100 0.0722 0.0000
vt 0.9900 0.0722 0.0000
vt 0.9900 0.0787 0.0000
vt 0.0100 0.1198 0.0000
vt 0.0100 0.1069 0.0000
vt 0.9900 0.1069 0.0000
vt 0.9900 0.1198 0.0000
vt 0.0100 0.0635 0.0000
vt 0.0100 0.0570 0.0000
vt 0.9900 0.0570 0.0000
vt 0.9900 0.0635 0.0000
vt 0.0100 0.0209 0.0000
vt 0.0100 0.0197 0.0000
vt 0.9900 0.0197 0.0000
vt 0.9900 0.0209 0.0000
vt 0.0229 0.1361 0.0000
vt 0.0219 0.1361 0.0000
vt 0.0219 0.1311 0.0000
vt 0.0229 0.1296 0.0000
vt 0.0111 0.1311 0.0000
vt 0.0100 0.1296 0.0000
vt 0.0100 0.1361 0.0000
vt 0.0111 0.1361 0.0000
vt 0.0100 0.1459 0.0000
vt 0.0111 0.1459 0.0000
vt 0.0111 0.1509 0.0000
vt 0.0100 0.1524 0.0000
vt 0.0219 0.1509 0.0000
vt 0.0219 0.1459 0.0000
vt 0.0229 0.1459 0.0000
vt 0.0229 0.1524 0.0000
# 48 texture coords

g Line01
usemtl Material__3877
s 1
f 1/1/1 2/2/1 3/3/1 4/4/1 
s 4
f 5/5/2 1/6/2 4/7/2 6/8/2 
s 2
f 7/9/3 5/10/3 6/11/3 8/12/3 
s 4
f 9/13/2 7/14/2 8/15/2 10/16/2 
s 2
f 11/17/1 9/18/1 10/19/1 12/20/1 
s 4
f 13/21/4 11/22/4 12/23/4 14/24/4 
s 2
f 15/25/3 13/26/3 14/27/3 16/28/3 
s 4
f 2/29/5 15/30/5 16/31/5 3/32/5 
s 16
f 10/33/6 8/34/6 6/35/6 12/36/6 
f 12/36/6 6/35/6 4/37/6 14/38/6 
f 16/39/6 14/38/6 4/37/6 3/40/6 
f 15/41/7 2/42/7 1/43/7 13/44/7 
f 5/45/7 7/46/7 9/47/7 11/48/7 
f 1/43/7 5/45/7 11/48/7 13/44/7 
# 14 polygons

